<?xml version="1.0" encoding="UTF-8" standalone="no"?>
<svg width="70px" height="63px" viewBox="0 0 70 63" version="1.1" xmlns="http://www.w3.org/2000/svg" xmlns:xlink="http://www.w3.org/1999/xlink">
    <!-- Generator: Sketch 39.1 (31720) - http://www.bohemiancoding.com/sketch -->
    <title>Slice 1</title>
    <desc>Created with Sketch.</desc>
    <defs></defs>
    <g id="Page-1" stroke="none" stroke-width="1" fill="none" fill-rule="evenodd">
        <path d="M34.946,62.878 C32.79,62.878 30.657,62.163 28.934,60.812 C21.94,55.332 9.344,44.588 3.562,34.191 C0.135,28.03 -0.24,20.417 2.557,13.825 C5.055,7.936 9.646,3.717 15.149,2.25 C16.553,1.876 17.987,1.691 19.436,1.691 C24.623,1.691 30.016,4.058 35.011,8.597 C38.511,5.412 42.156,3.299 45.847,2.314 C47.416,1.896 48.982,1.691 50.519,1.691 C55.899,1.691 60.931,4.199 64.549,8.841 C70.137,16.012 70.908,26.198 66.466,34.187 C60.69,44.573 47.962,55.341 40.889,60.835 C39.856,61.639 38.693,62.217 37.43,62.553 C36.614,62.771 35.778,62.878 34.946,62.878" id="Fill-532" fill="#A0A19D"></path>
        <path d="M36.99,60.9 C34.058,61.681 30.881,61.031 28.493,59.158 C21.499,53.679 8.903,42.934 3.121,32.537 C-0.305,26.377 -0.68,18.763 2.116,12.171 C4.615,6.283 9.205,2.064 14.708,0.596 C21.136,-1.117 28.18,1.137 34.57,6.944 C38.071,3.758 41.715,1.645 45.406,0.661 C52.465,-1.221 59.457,1.219 64.108,7.188 C69.696,14.358 70.467,24.544 66.026,32.534 C60.249,42.919 47.521,53.687 40.448,59.182 C39.416,59.985 38.252,60.563 36.99,60.9" id="Fill-533" fill="#FFFFFF"></path>
        <path d="M36.17,9.093 C35.264,9.929 33.876,9.929 32.97,9.093 C13.654,-8.738 -3.774,14.658 5.452,31.242 C11.021,41.258 23.396,51.779 30.137,57.06 C32.685,59.056 36.258,59.062 38.813,57.077 C45.613,51.795 58.12,41.261 63.696,31.239 C72.913,14.654 55.485,-8.74 36.17,9.093" id="Fill-534" fill="#DC326D"></path>
        <path d="M6.966,26.776 C6.395,25.033 6.107,23.199 6.107,21.354 C6.106,19.014 6.57,16.66 7.505,14.457 C8.977,10.989 11.374,8.378 14.213,7 C14.609,6.808 14.774,6.331 14.582,5.935 C14.389,5.539 13.912,5.374 13.517,5.566 C10.282,7.139 7.639,10.061 6.038,13.835 C5.017,16.239 4.512,18.804 4.512,21.354 C4.512,23.365 4.826,25.366 5.451,27.273 C5.588,27.691 6.038,27.919 6.457,27.782 C6.875,27.645 7.103,27.195 6.966,26.776" id="Fill-535" fill="#FFFFFF"></path>
        <path d="M10.135,32.736 C9.435,31.715 8.798,30.698 8.239,29.692 C8.025,29.307 7.54,29.169 7.155,29.382 C6.77,29.596 6.632,30.082 6.845,30.466 C7.433,31.523 8.096,32.581 8.82,33.638 C9.069,34.001 9.565,34.093 9.928,33.844 C10.291,33.595 10.384,33.099 10.135,32.736" id="Fill-536" fill="#FFFFFF"></path>
        <polyline id="Fill-537" fill="#DC326D" points="34.573 60.407 34.57 60.415 34.578 60.415 34.573 60.407"></polyline>
        <path d="M20.148,25.45 C20.166,25.463 20.185,25.539 20.205,25.679 C20.216,25.756 20.222,25.968 20.225,26.315 L20.229,26.669 L20.229,26.834 L20.193,27.076 L20.137,27.345 L19.839,27.245 L19.517,27.149 C19.15,27.013 18.845,26.891 18.601,26.784 C18.357,26.678 18.168,26.595 18.033,26.536 C17.23,26.058 16.775,25.589 16.633,25.13 L20.082,25.231 L20.148,25.45 L20.148,25.45 Z M22.595,27.819 L22.945,27.626 C23.457,27.348 23.893,26.922 24.252,26.35 C24.436,26.021 24.56,25.692 24.627,25.363 L24.628,25.363 L25.647,22.38 L24.382,21.125 L21.319,19.402 L17.24,20.13 L14.903,21.812 L14.986,22.12 L14.737,22.207 C14.229,22.406 13.621,22.73 12.913,23.178 L12.736,23.319 L12.043,22.383 L11.334,24.81 L11.229,24.959 C10.938,25.531 10.792,26.106 10.787,26.682 L10.784,26.691 L10.788,26.691 C10.786,26.867 10.795,27.042 10.821,27.217 C10.985,28.362 11.559,29.28 12.542,29.974 L12.737,30.112 L11.967,32.62 C11.754,33.002 11.611,33.419 11.577,33.893 L11.568,33.924 L11.578,33.924 C11.56,34.207 11.561,34.501 11.606,34.817 C11.782,36.037 12.388,36.96 13.424,37.584 C14.323,38.133 15.593,38.463 17.233,38.574 C17.408,38.58 17.581,38.583 17.755,38.581 C17.928,38.58 18.1,38.567 18.27,38.543 C23.353,37.812 26.089,36.054 26.478,33.27 C26.548,32.771 26.547,32.275 26.476,31.779 C26.198,29.848 24.904,28.527 22.595,27.819 L22.595,27.819 Z" id="Fill-538" fill="#1A1A19"></path>
        <path d="M32.981,29.472 L32.528,26.319 L32.307,24.292 C32.115,22.523 32.576,21.557 33.688,21.397 C34.291,21.31 34.76,21.444 35.095,21.798 C35.43,22.151 35.682,22.813 35.853,23.782 L36.213,25.789 L36.666,28.942 L36.887,30.968 C36.914,31.213 36.929,31.44 36.934,31.651 L34.601,31.333 L33.109,30.185 L32.981,29.472 L32.981,29.472 Z M39.321,20.918 C38.801,20.445 38.241,20.075 37.649,19.787 L37.841,19.792 L38.028,18.157 L36.442,17.474 L32.751,17.474 L28.264,21.629 L27.869,23.073 C27.371,24.055 27.079,25.126 26.99,26.286 L26.879,26.69 L26.946,26.786 C26.93,27.407 26.956,28.046 27.052,28.715 C27.397,31.111 28.329,32.987 29.85,34.346 C31.476,35.783 33.456,36.335 35.789,36 C38.122,35.664 39.866,34.577 41.021,32.74 C42.112,31.005 42.486,28.94 42.141,26.545 C41.797,24.151 40.857,22.275 39.321,20.918 L39.321,20.918 Z" id="Fill-539" fill="#1A1A19"></path>
        <path d="M42.241,19.259 L42.161,19.493 L42.129,19.584 L42.139,19.586 C42.091,19.797 42.065,20.012 42.086,20.236 C42.152,20.81 42.493,21.258 43.107,21.58 C43.634,21.851 44.112,21.932 44.538,21.824 L44.909,21.771 L44.862,21.943 L44.81,22.068 L44.74,22.244 L44.608,22.476 L44.165,23.178 L43.629,23.894 C43.536,24.018 43.501,24.157 43.523,24.312 C43.579,24.698 43.946,24.842 44.627,24.745 C45.405,24.349 46.115,23.797 46.755,23.09 C47.012,22.801 47.24,22.495 47.439,22.175 C47.638,21.855 47.815,21.526 47.971,21.188 C48.009,21.098 48.019,21.003 48.047,20.911 L48.069,20.916 L49.282,16.864 L43.192,16.477 L42.241,19.259" id="Fill-540" fill="#1A1A19"></path>
        <path d="M62.037,29.77 L62.039,29.763 L63.137,26.49 L61.647,26.847 L61.642,26.839 C61.339,26.426 61.008,26.134 60.653,25.964 C60.366,25.832 60.126,25.73 59.935,25.654 C59.742,25.579 59.59,25.534 59.477,25.519 L57.638,25.238 L57.394,25.179 L57.052,25.11 L56.831,25.048 L56.635,25.005 L56.337,24.906 C55.99,24.798 55.798,24.613 55.76,24.349 C55.684,23.825 56.164,23.487 57.199,23.339 L57.43,23.325 L58.462,23.591 L58.624,23.702 C58.748,23.794 58.997,24.097 59.37,24.612 C59.609,24.955 59.851,25.11 60.099,25.075 C60.3,25.046 60.422,25.02 60.467,24.997 C61.054,24.913 61.288,24.453 61.168,23.619 L61.136,23.481 L61.093,23.305 L62.036,21.521 L61.559,19.961 L59.73,19.101 L57.214,19.58 L55.537,20.8 L55.537,21.652 C54.708,21.803 54.022,21.983 53.486,22.193 C53.341,22.245 53.207,22.312 53.07,22.374 L51.612,21.693 L50.779,24.349 C50.579,24.7 50.463,25.086 50.418,25.502 L50.387,25.603 L50.401,25.604 C50.383,25.849 50.386,26.104 50.42,26.371 C50.511,27.107 50.891,27.732 51.53,28.257 L50.735,30.616 L50.738,30.617 C50.692,30.783 50.678,30.962 50.706,31.156 C50.829,32.007 51.415,32.577 52.467,32.867 C52.828,32.973 53.374,33.036 54.103,33.058 C55.056,33.109 56.067,33.059 57.133,32.905 L57.977,32.689 C58.648,32.53 59.304,32.27 59.947,31.909 C61.021,31.302 61.717,30.59 62.036,29.771 L62.037,29.77" id="Fill-541" fill="#1A1A19"></path>
        <path d="M20.622,20.866 C20.116,20.309 19.599,20.067 19.074,20.143 C18.595,20.212 18.21,20.44 17.919,20.829 C17.705,21.097 17.622,21.392 17.668,21.717 C17.742,22.226 18.227,22.749 19.124,23.283 C19.258,23.342 19.448,23.425 19.692,23.531 C19.936,23.638 20.241,23.76 20.608,23.896 L20.93,23.992 L21.228,24.092 L21.284,23.823 L21.319,23.582 L21.32,23.416 L21.316,23.062 C21.313,22.715 21.307,22.503 21.296,22.426 C21.275,22.286 21.257,22.21 21.239,22.197 C21.066,21.545 20.86,21.101 20.622,20.866 L20.622,20.866 Z M21.926,31.088 C21.846,30.532 21.391,30.054 20.56,29.652 L19.619,29.196 L18.864,28.879 L18.394,28.734 L18.192,28.644 L17.36,28.292 L17.308,28.583 L17.242,29.112 C17.233,29.713 17.253,30.176 17.299,30.5 C17.377,31.041 17.562,31.559 17.854,32.053 C18.225,32.661 18.642,32.98 19.103,33.008 C19.741,33.059 20.207,33.063 20.501,33.021 C21.212,32.918 21.666,32.513 21.864,31.808 C21.939,31.56 21.96,31.32 21.926,31.088 L21.926,31.088 Z M19.361,35.29 C19.19,35.314 19.019,35.327 18.846,35.328 C18.672,35.33 18.498,35.327 18.324,35.321 C16.684,35.21 15.414,34.88 14.515,34.331 C13.478,33.707 12.873,32.784 12.697,31.564 C12.49,30.127 12.94,29.029 14.045,28.271 L14.217,28.151 L14.538,27.916 L14.995,27.638 L14.816,27.545 L14.687,27.469 L13.633,26.721 C12.65,26.027 12.076,25.109 11.911,23.964 C11.803,23.208 11.939,22.455 12.32,21.706 C12.701,20.957 13.262,20.363 14.004,19.925 C14.712,19.477 15.32,19.153 15.828,18.954 C16.172,18.826 16.499,18.711 16.808,18.612 C17.117,18.512 17.409,18.434 17.685,18.379 C17.807,18.346 17.937,18.319 18.076,18.299 C18.215,18.279 18.345,18.253 18.467,18.22 C18.714,18.184 18.93,18.153 19.115,18.126 C19.301,18.1 19.472,18.082 19.629,18.076 C20.019,18.052 20.413,18.045 20.809,18.059 C21.206,18.073 21.606,18.115 22.01,18.182 C22.48,18.273 22.911,18.392 23.303,18.541 C23.695,18.689 24.057,18.874 24.389,19.094 C25.182,19.674 25.635,20.359 25.748,21.146 C25.842,21.795 25.707,22.446 25.343,23.097 C24.984,23.669 24.548,24.095 24.036,24.373 L23.685,24.566 C25.995,25.274 27.289,26.595 27.567,28.526 C27.638,29.022 27.639,29.518 27.568,30.017 C27.18,32.801 24.444,34.559 19.361,35.29 L19.361,35.29 Z" id="Fill-542" fill="#6BBE9C"></path>
        <path d="M13.726,24.736 C13.546,24.45 13.432,24.13 13.378,23.753 C13.364,23.656 13.357,23.559 13.357,23.463 C13.357,23.113 13.447,22.759 13.641,22.377 C13.897,21.877 14.253,21.499 14.757,21.202 L14.76,21.2 L14.763,21.198 C14.978,21.062 15.179,20.94 15.367,20.832 C15.481,20.767 15.52,20.621 15.455,20.507 C15.389,20.393 15.243,20.354 15.129,20.419 C14.935,20.531 14.729,20.656 14.509,20.795 L14.636,20.996 L14.515,20.791 C13.942,21.128 13.509,21.583 13.216,22.161 C12.995,22.596 12.88,23.029 12.88,23.463 C12.88,23.582 12.889,23.702 12.906,23.821 C12.968,24.254 13.105,24.644 13.323,24.99 C13.393,25.101 13.54,25.134 13.652,25.064 C13.763,24.994 13.796,24.847 13.726,24.736 L13.726,24.736 Z M14.396,32.137 C14.284,31.91 14.207,31.652 14.164,31.353 L14.164,31.354 C14.14,31.19 14.129,31.038 14.129,30.899 C14.137,30.256 14.346,29.872 14.883,29.494 L14.886,29.492 L15.413,29.112 C15.519,29.035 15.543,28.886 15.466,28.779 C15.389,28.673 15.24,28.649 15.134,28.726 L14.609,29.104 L14.749,29.298 L14.614,29.101 C13.975,29.528 13.644,30.132 13.652,30.899 C13.652,31.065 13.666,31.238 13.692,31.421 C13.741,31.761 13.831,32.07 13.968,32.348 C14.027,32.466 14.169,32.514 14.288,32.456 C14.406,32.398 14.454,32.255 14.396,32.137 L14.396,32.137 Z" id="Fill-543" fill="#FFFFFF"></path>
        <path d="M37.304,22.536 L36.944,20.529 C36.773,19.56 36.52,18.898 36.186,18.545 C35.851,18.191 35.382,18.057 34.779,18.144 C33.667,18.304 33.206,19.27 33.398,21.039 L33.619,23.066 L34.072,26.219 L34.431,28.225 C34.602,29.194 34.85,29.853 35.176,30.2 C35.503,30.548 35.967,30.677 36.569,30.591 C37.172,30.504 37.584,30.24 37.804,29.798 C38.025,29.357 38.082,28.663 37.978,27.715 L37.757,25.689 L37.304,22.536 L37.304,22.536 Z M42.112,29.487 C40.957,31.324 39.212,32.411 36.879,32.747 C34.546,33.082 32.567,32.53 30.941,31.093 C29.42,29.734 28.488,27.858 28.143,25.462 C27.801,23.084 28.165,21.012 29.237,19.249 C30.387,17.38 32.129,16.278 34.462,15.942 C36.795,15.607 38.779,16.181 40.412,17.665 C41.947,19.022 42.888,20.898 43.232,23.292 C43.577,25.687 43.203,27.752 42.112,29.487 L42.112,29.487 Z" id="Fill-544" fill="#6BBE9C"></path>
        <path d="M38.943,23.528 L38.77,22.322 L38.402,20.267 L38.403,20.268 C38.343,19.93 38.274,19.621 38.195,19.337 C38.159,19.21 38.028,19.136 37.901,19.172 C37.774,19.207 37.7,19.339 37.736,19.466 C37.81,19.732 37.876,20.026 37.933,20.351 L38.3,22.398 L38.472,23.596 C38.49,23.726 38.611,23.817 38.741,23.798 C38.872,23.779 38.962,23.659 38.943,23.528 L38.943,23.528 Z M29.65,25.513 L29.609,25.248 L29.374,25.285 L29.61,25.251 C29.536,24.736 29.499,24.245 29.499,23.774 C29.499,22.354 29.832,21.125 30.503,20.019 L30.506,20.014 L30.503,20.02 C30.734,19.644 30.993,19.309 31.281,19.015 C31.373,18.921 31.372,18.77 31.278,18.678 C31.184,18.586 31.033,18.588 30.941,18.682 C30.627,19.003 30.346,19.366 30.097,19.771 L30.093,19.776 L30.096,19.772 C29.377,20.953 29.022,22.28 29.022,23.774 C29.022,24.27 29.061,24.784 29.138,25.319 L29.139,25.321 L29.18,25.586 C29.2,25.716 29.321,25.805 29.451,25.785 C29.581,25.764 29.671,25.643 29.65,25.513 L29.65,25.513 Z" id="Fill-545" fill="#FFFFFF"></path>
        <path d="M48.53,18.922 C48.331,19.242 48.103,19.548 47.845,19.837 C47.205,20.544 46.496,21.096 45.717,21.492 C45.037,21.59 44.67,21.445 44.614,21.059 C44.592,20.904 44.627,20.765 44.72,20.641 L45.255,19.925 L45.699,19.224 L45.831,18.991 L45.901,18.815 L45.953,18.69 L45.999,18.518 L45.629,18.571 C45.202,18.679 44.725,18.598 44.197,18.327 C43.584,18.005 43.243,17.557 43.177,16.983 C43.121,16.376 43.317,15.821 43.764,15.313 C44.157,14.863 44.678,14.544 45.33,14.356 L45.558,14.298 C45.651,14.285 45.759,14.269 45.883,14.252 C46.222,14.203 46.602,14.212 47.022,14.278 C48.334,14.515 49.077,15.244 49.253,16.465 C49.326,16.974 49.262,17.464 49.062,17.935 C48.906,18.273 48.728,18.602 48.53,18.922" id="Fill-546" fill="#6BBE9C"></path>
        <path d="M44.649,16.818 L44.646,16.77 C44.649,16.672 44.666,16.536 44.876,16.293 L44.876,16.292 C45.081,16.058 45.351,15.893 45.741,15.78 L45.675,15.551 L45.726,15.784 L45.892,15.747 L46.091,15.719 L46.247,15.704 C46.378,15.693 46.474,15.577 46.462,15.446 C46.451,15.315 46.335,15.218 46.204,15.23 L46.042,15.245 L46.036,15.245 L45.816,15.276 L45.807,15.278 L45.623,15.319 L45.616,15.32 L45.609,15.322 C45.156,15.452 44.789,15.666 44.517,15.979 L44.518,15.978 C44.247,16.28 44.167,16.564 44.17,16.77 L44.174,16.861 C44.186,16.992 44.302,17.089 44.433,17.077 C44.564,17.065 44.66,16.949 44.649,16.818" id="Fill-547" fill="#FFFFFF"></path>
        <path d="M62.227,20.229 L62.259,20.366 C62.379,21.2 62.144,21.66 61.558,21.744 C61.513,21.767 61.391,21.793 61.19,21.822 C60.942,21.857 60.7,21.702 60.461,21.359 C60.087,20.844 59.839,20.541 59.715,20.449 C59.337,20.124 58.862,20.003 58.29,20.086 C57.255,20.235 56.775,20.572 56.851,21.096 C56.888,21.36 57.081,21.545 57.427,21.653 L57.726,21.752 L57.921,21.795 L58.143,21.857 L58.484,21.926 L58.729,21.985 L60.568,22.266 C60.681,22.281 60.833,22.326 61.025,22.401 C61.217,22.477 61.457,22.579 61.744,22.711 C62.099,22.881 62.43,23.173 62.733,23.586 C63.037,24 63.224,24.447 63.292,24.925 C63.51,26.441 62.758,27.684 61.038,28.656 C60.395,29.017 59.739,29.277 59.068,29.436 L58.223,29.652 C57.157,29.806 56.147,29.856 55.194,29.805 C54.465,29.783 53.919,29.721 53.557,29.614 C52.506,29.324 51.92,28.754 51.797,27.903 C51.744,27.533 51.824,27.214 52.038,26.946 C52.252,26.679 52.544,26.519 52.915,26.465 C53.394,26.397 53.744,26.473 53.965,26.693 L54.018,26.732 L54.648,27.328 C55.163,27.838 55.799,28.038 56.556,27.929 C56.788,27.896 57.034,27.798 57.294,27.634 C57.612,27.43 57.752,27.198 57.714,26.934 C57.665,26.594 57.393,26.35 56.899,26.2 L56.316,26.094 L54.577,25.847 C53.992,25.837 53.399,25.607 52.798,25.157 C52.04,24.604 51.611,23.925 51.511,23.118 C51.384,22.128 51.618,21.289 52.214,20.604 C52.845,19.836 53.632,19.281 54.577,18.94 C55.279,18.665 56.232,18.441 57.437,18.267 C57.746,18.223 58.073,18.192 58.418,18.174 C58.762,18.157 59.124,18.152 59.504,18.16 C60.468,18.179 61.127,18.313 61.478,18.562 C61.741,18.745 61.962,19.178 62.139,19.863 C62.179,20.031 62.207,20.153 62.227,20.229" id="Fill-548" fill="#6BBE9C"></path>
        <path d="M54.678,24.367 L54.601,24.365 C54.36,24.363 54.047,24.242 53.685,23.971 L53.684,23.97 L53.683,23.969 C53.09,23.527 53.018,23.185 52.981,22.936 C52.966,22.822 52.959,22.715 52.959,22.614 C52.962,22.185 53.078,21.873 53.333,21.576 L53.334,21.574 L53.337,21.571 C53.827,20.977 54.38,20.587 55.08,20.333 C55.204,20.289 55.268,20.152 55.223,20.028 C55.179,19.905 55.042,19.841 54.918,19.885 C54.144,20.164 53.505,20.614 52.969,21.268 L53.153,21.42 L52.973,21.263 C52.645,21.637 52.48,22.092 52.483,22.614 C52.483,22.737 52.491,22.864 52.508,22.995 C52.543,23.324 52.712,23.858 53.402,24.354 L53.543,24.162 L53.4,24.352 C53.809,24.657 54.204,24.834 54.593,24.842 L54.671,24.843 C54.802,24.845 54.911,24.74 54.913,24.608 C54.915,24.477 54.81,24.369 54.678,24.367" id="Fill-549" fill="#FFFFFF"></path>
    </g>
</svg>