<?xml version="1.0" encoding="UTF-8" standalone="no"?>
<svg width="23px" height="63px" viewBox="0 0 23 63" version="1.1" xmlns="http://www.w3.org/2000/svg" xmlns:xlink="http://www.w3.org/1999/xlink">
    <!-- Generator: Sketch 39.1 (31720) - http://www.bohemiancoding.com/sketch -->
    <title>Slice 1</title>
    <desc>Created with Sketch.</desc>
    <defs></defs>
    <g id="Page-1" stroke="none" stroke-width="1" fill="none" fill-rule="evenodd">
        <path d="M1.168,62.099 L1.168,51.561 L2.573,51.561 L2.574,17.267 L4.774,17.267 L4.774,9.857 C4.774,6.162 9.905,2.952 10.934,2.346 L11.757,1.861 L12.582,2.346 C13.61,2.952 18.741,6.163 18.74,9.857 L18.74,17.267 L20.94,17.267 L20.94,51.561 L22.347,51.561 L22.347,62.099 L1.168,62.099" id="Fill-118" fill="#A0A19D"></path>
        <path d="M0.632,61.052 L0.632,50.514 L2.038,50.514 L2.038,16.22 L4.238,16.22 L4.239,8.811 C4.239,5.116 9.369,1.906 10.398,1.3 L11.222,0.814 L12.046,1.3 C13.074,1.906 18.205,5.116 18.205,8.811 L18.205,16.221 L20.404,16.22 L20.404,50.514 L21.811,50.514 L21.811,61.052 L0.632,61.052" id="Fill-119" fill="#FFFFFF"></path>
        <polyline id="Fill-120" fill="#384489" points="18.781 17.844 3.662 17.844 3.661 52.137 18.781 52.138 18.781 17.844"></polyline>
        <path d="M5.925,40.504 L5.926,21.613 C5.926,21.3 5.672,21.047 5.36,21.047 C5.047,21.047 4.794,21.3 4.794,21.613 L4.793,40.504 C4.793,40.817 5.047,41.07 5.359,41.07 C5.672,41.07 5.925,40.817 5.925,40.504" id="Fill-121" fill="#FFFFFF"></path>
        <path d="M5.925,44.349 L5.925,43.411 C5.925,43.099 5.672,42.845 5.359,42.845 C5.047,42.845 4.794,43.099 4.793,43.411 L4.793,44.349 C4.793,44.662 5.047,44.915 5.359,44.915 C5.672,44.915 5.925,44.662 5.925,44.349" id="Fill-122" fill="#FFFFFF"></path>
        <polyline id="Fill-123" fill="#4A8ABD" points="2.255 52.137 2.255 59.429 20.188 59.429 20.188 52.138 2.255 52.137"></polyline>
        <path d="M4.519,56.636 L4.519,55.041 C4.519,54.729 4.266,54.475 3.953,54.475 C3.641,54.475 3.387,54.729 3.387,55.041 L3.387,56.636 C3.387,56.948 3.641,57.202 3.953,57.202 C4.266,57.202 4.519,56.948 4.519,56.636" id="Fill-124" fill="#FFFFFF"></path>
        <path d="M16.582,8.811 L16.581,17.957 L5.862,17.957 L5.862,8.811 C5.862,5.856 11.222,2.698 11.222,2.698 C11.222,2.698 16.582,5.856 16.582,8.811" id="Fill-125" fill="#D61273"></path>
        <path d="M8.126,12.575 L8.126,8.811 C8.124,8.716 8.17,8.529 8.296,8.296 C8.667,7.587 9.681,6.577 10.752,5.755 C10.999,5.564 11.045,5.208 10.854,4.961 C10.662,4.714 10.307,4.668 10.06,4.86 C9.298,5.449 8.564,6.11 7.999,6.769 C7.717,7.099 7.477,7.428 7.298,7.762 C7.121,8.096 6.996,8.437 6.994,8.811 L6.994,12.575 C6.994,12.888 7.247,13.141 7.56,13.141 C7.873,13.141 8.126,12.888 8.126,12.575" id="Fill-126" fill="#FFFFFF"></path>
    </g>
</svg>