<?xml version="1.0" encoding="UTF-8" standalone="no"?>
<svg width="60px" height="61px" viewBox="0 0 60 61" version="1.1" xmlns="http://www.w3.org/2000/svg" xmlns:xlink="http://www.w3.org/1999/xlink">
    <!-- Generator: Sketch 39.1 (31720) - http://www.bohemiancoding.com/sketch -->
    <title>Slice 1</title>
    <desc>Created with Sketch.</desc>
    <defs></defs>
    <g id="Page-1" stroke="none" stroke-width="1" fill="none" fill-rule="evenodd">
        <path d="M24.521,60.894 L24.515,54.858 L18.479,54.863 L18.474,48.827 L12.438,48.832 L12.433,42.796 L6.397,42.801 L6.392,36.765 L0.356,36.771 L0.331,7.844 L6.367,7.839 L6.361,1.803 L29.252,1.783 L29.257,7.819 L30.51,7.818 L30.505,1.782 L53.396,1.763 L53.401,7.799 L59.437,7.793 L59.462,36.719 L53.426,36.725 L53.43,42.761 L47.396,42.766 L47.401,48.802 L41.364,48.807 L41.37,54.843 L35.334,54.848 L35.34,60.884 L24.521,60.894 M18.459,30.719 L17.205,30.72 L17.206,31.974 L18.46,31.972 L18.459,30.719 M12.412,18.652 L11.159,18.654 L11.165,25.943 L12.419,25.942 L12.412,18.652 M18.443,12.611 L17.19,12.612 L17.191,13.866 L18.444,13.865 L18.443,12.611" id="Fill-63" fill="#A0A19D"></path>
        <path d="M17.005,12.122 L18.259,12.121 L18.257,10.868 L17.004,10.869 L17.005,12.122 L17.005,12.122 Z M10.979,24.199 L12.233,24.198 L12.227,16.909 L10.973,16.91 L10.979,24.199 L10.979,24.199 Z M17.021,30.23 L18.274,30.229 L18.273,28.976 L17.02,28.977 L17.021,30.23 L17.021,30.23 Z M24.33,53.114 L18.293,53.119 L18.288,47.083 L12.253,47.089 L12.247,41.052 L6.211,41.058 L6.206,35.022 L0.17,35.027 L0.145,6.101 L6.182,6.096 L6.176,0.06 L29.066,0.04 L29.072,6.076 L30.325,6.075 L30.32,0.038 L53.21,0.019 L53.216,6.055 L59.251,6.049 L59.276,34.976 L53.24,34.981 L53.245,41.017 L47.21,41.022 L47.215,47.058 L41.179,47.064 L41.184,53.099 L35.148,53.104 L35.154,59.14 L24.335,59.15 L24.33,53.114 L24.33,53.114 Z" id="Fill-64" fill="#FFFFFF"></path>
        <polyline id="Fill-65" fill="#E996B7" points="20.652 14.51 14.616 14.515 14.611 8.48 20.646 8.474 20.652 14.51"></polyline>
        <polyline id="Fill-66" fill="#E996B7" points="14.621 20.551 8.585 20.557 8.58 14.521 14.616 14.515 14.621 20.551"></polyline>
        <polyline id="Fill-67" fill="#E996B7" points="14.626 26.587 8.59 26.593 8.585 20.557 14.621 20.551 14.626 26.587"></polyline>
        <polyline id="Fill-68" fill="#E996B7" points="20.667 32.618 14.631 32.623 14.626 26.587 20.662 26.582 20.667 32.618"></polyline>
        <path d="M14.631,32.623 L14.626,26.587 L8.59,26.593 L8.58,14.521 L14.616,14.515 L14.611,8.479 L20.646,8.474 L20.652,14.51 L14.616,14.515 L14.626,26.587 L20.662,26.582 L20.667,32.618 L14.631,32.623 L14.631,32.623 Z M50.847,32.592 L56.883,32.587 L56.862,8.443 L50.826,8.448 L50.821,2.412 L44.785,2.417 L38.749,2.423 L32.713,2.428 L32.718,8.464 L26.682,8.469 L26.677,2.433 L20.641,2.438 L14.605,2.444 L8.569,2.449 L8.575,8.485 L2.539,8.49 L2.56,32.634 L8.596,32.628 L8.601,38.664 L14.637,38.659 L14.642,44.695 L20.678,44.69 L20.683,50.726 L26.719,50.721 L26.724,56.757 L32.76,56.751 L32.755,50.715 L38.791,50.71 L38.786,44.674 L44.822,44.669 L44.811,32.597 L38.775,32.602 L44.811,32.597 L44.816,38.633 L50.852,38.628 L50.847,32.592 L50.847,32.592 Z" id="Fill-69" fill="#DA2D31"></path>
    </g>
</svg>