<?xml version="1.0" encoding="UTF-8" standalone="no"?>
<svg width="68px" height="69px" viewBox="0 0 68 69" version="1.1" xmlns="http://www.w3.org/2000/svg" xmlns:xlink="http://www.w3.org/1999/xlink">
    <!-- Generator: Sketch 39.1 (31720) - http://www.bohemiancoding.com/sketch -->
    <title>Slice 1</title>
    <desc>Created with Sketch.</desc>
    <defs></defs>
    <g id="Page-1" stroke="none" stroke-width="1" fill="none" fill-rule="evenodd">
        <path d="M43.521,68.461 L43.521,68.461 L25.521,68.46 C24.451,68.46 23.373,68.39 22.317,68.252 C10.204,66.664 1.07,56.239 1.07,44.002 C1.07,42.598 1.191,41.197 1.429,39.84 L1.454,39.688 C1.62,38.072 3.797,18.621 13.983,4.78 C14.754,3.737 15.966,3.136 17.237,3.136 C17.411,3.136 17.587,3.148 17.762,3.171 C19.162,3.354 20.34,4.233 20.915,5.522 L27.198,19.55 L41.772,19.551 L48.058,5.518 C48.713,4.047 50.144,3.135 51.724,3.135 C51.902,3.135 52.082,3.147 52.263,3.171 C53.359,3.314 54.324,3.886 54.982,4.781 C64.036,17.072 66.755,33.677 67.389,38.65 C67.78,40.396 67.979,42.196 67.979,44.002 C67.979,48.213 66.89,52.361 64.83,55.997 C64.474,56.646 64.042,57.33 63.526,58.063 C62.718,59.215 61.803,60.303 60.811,61.295 C56.2,65.915 50.059,68.461 43.521,68.461" id="Fill-418" fill="#A0A19D"></path>
        <path d="M21.652,65.987 C9.539,64.399 0.404,53.974 0.405,41.737 C0.404,40.333 0.525,38.933 0.764,37.575 L0.788,37.424 C0.954,35.807 3.131,16.357 13.317,2.515 C14.194,1.329 15.641,0.715 17.096,0.906 C18.496,1.089 19.674,1.968 20.249,3.258 L26.532,17.286 L41.106,17.287 L47.392,3.253 C48.121,1.617 49.811,0.672 51.597,0.906 C52.693,1.049 53.658,1.621 54.316,2.516 C63.37,14.807 66.09,31.412 66.723,36.385 C67.114,38.132 67.313,39.931 67.313,41.737 C67.314,45.949 66.224,50.096 64.164,53.732 C63.808,54.382 63.376,55.065 62.86,55.799 C62.052,56.95 61.138,58.038 60.146,59.03 C55.534,63.65 49.392,66.196 42.855,66.196 L24.855,66.196 C23.785,66.195 22.707,66.125 21.652,65.987" id="Fill-419" fill="#FFFFFF"></path>
        <path d="M65.168,41.737 C65.168,45.713 64.127,49.445 62.297,52.675 C61.938,53.328 61.536,53.952 61.106,54.562 C60.366,55.617 59.541,56.6 58.63,57.512 C54.596,61.552 49.02,64.05 42.855,64.05 L24.855,64.05 C12.54,64.05 2.55,54.06 2.55,41.737 C2.55,40.381 2.672,39.053 2.909,37.769 L2.916,37.711 C3.031,36.527 5.091,17.315 15.045,3.786 C15.906,2.624 17.7,2.81 18.289,4.131 L25.143,19.432 L42.496,19.432 L49.35,4.131 C49.938,2.81 51.733,2.624 52.587,3.786 C61.5,15.886 64.077,32.529 64.608,36.757 C64.974,38.357 65.168,40.029 65.168,41.737" id="Fill-420" fill="#60C1C8"></path>
        <path d="M6.557,35.319 C7.24,30.854 9.074,21.62 13.349,12.978 C13.52,12.632 13.378,12.214 13.032,12.043 C12.686,11.872 12.267,12.013 12.097,12.359 C7.722,21.212 5.875,30.558 5.176,35.107 C5.118,35.488 5.38,35.845 5.761,35.903 C6.142,35.962 6.499,35.7 6.557,35.319" id="Fill-421" fill="#FFFFFF"></path>
        <path d="M7.317,49.06 C6.662,47.496 6.21,45.826 5.995,44.083 C5.948,43.701 5.599,43.429 5.216,43.476 C4.833,43.523 4.561,43.872 4.609,44.255 C4.84,46.126 5.325,47.92 6.029,49.6 C6.178,49.956 6.587,50.124 6.943,49.975 C7.299,49.826 7.466,49.416 7.317,49.061" id="Fill-422" fill="#FFFFFF"></path>
        <path d="M10.217,26.429 C11.275,22.167 12.557,18.32 14.861,13.781 C15.339,12.839 16.696,12.865 17.128,13.83 L20.756,21.931 L10.217,26.429" id="Fill-423" fill="#E996B7"></path>
        <path d="M46.879,21.931 L50.496,13.855 C50.932,12.88 52.309,12.867 52.775,13.829 C55.02,18.469 56.085,22.668 57.138,26.921 L46.879,21.931" id="Fill-424" fill="#E996B7"></path>
        <path d="M24.753,39.298 C24.753,43.276 21.528,46.502 17.549,46.502 C13.571,46.502 10.346,43.276 10.346,39.298 C10.346,35.319 13.571,32.094 17.549,32.094 C21.528,32.094 24.753,35.319 24.753,39.298" id="Fill-425" fill="#E9CD27"></path>
        <path d="M24.753,39.298 L24.184,39.298 C24.184,41.132 23.443,42.787 22.241,43.99 C21.039,45.191 19.383,45.933 17.549,45.933 C15.715,45.933 14.06,45.191 12.858,43.99 C11.656,42.787 10.915,41.132 10.914,39.298 C10.915,37.464 11.656,35.809 12.858,34.606 C14.06,33.405 15.715,32.663 17.549,32.663 C19.383,32.663 21.039,33.405 22.241,34.606 C23.443,35.809 24.184,37.464 24.184,39.298 L25.322,39.298 C25.322,35.005 21.842,31.526 17.549,31.525 C13.256,31.526 9.777,35.005 9.777,39.298 C9.777,43.591 13.257,47.07 17.549,47.071 C21.842,47.07 25.322,43.591 25.322,39.298 L24.753,39.298" id="Fill-426" fill="#1B1A18"></path>
        <path d="M19.006,39.362 C19.006,42.807 17.549,45.599 17.549,45.599 C17.549,45.599 16.093,42.807 16.093,39.362 C16.093,35.917 17.549,33.124 17.549,33.124 C17.549,33.124 19.006,35.917 19.006,39.362" id="Fill-427" fill="#0A0A08"></path>
        <path d="M56.311,39.297 C56.311,41.178 55.594,42.886 54.417,44.17 C53.929,44.701 53.362,45.161 52.73,45.519 C51.668,46.144 50.434,46.503 49.113,46.503 C45.13,46.503 41.908,43.273 41.908,39.297 C41.908,37.783 42.374,36.376 43.178,35.214 C43.587,34.618 44.089,34.087 44.656,33.635 C45.883,32.673 47.434,32.092 49.113,32.092 C53.089,32.092 56.311,35.321 56.311,39.297" id="Fill-428" fill="#0A0A08"></path>
        <path d="M30.195,49.367 L33.66,52.175 L36.931,49.354 C37.404,48.947 37.116,48.172 36.492,48.172 L30.618,48.172 C29.984,48.172 29.702,48.968 30.195,49.367" id="Fill-429" fill="#0A0A08"></path>
        <path d="M23.837,51.792 C23.911,53.656 25.005,55.39 26.655,56.259 C27.408,56.652 28.244,56.842 29.077,56.842 C30.076,56.841 31.076,56.569 31.932,56.019 C33.422,55.053 34.335,53.352 34.341,51.585 C34.341,51.495 34.338,51.404 34.334,51.315 C34.312,50.919 33.974,50.615 33.578,50.637 C33.182,50.658 32.879,50.997 32.9,51.392 L32.906,51.585 C32.911,52.845 32.214,54.137 31.155,54.812 C30.551,55.202 29.814,55.407 29.077,55.406 C28.462,55.407 27.851,55.265 27.32,54.987 C26.146,54.382 25.312,53.06 25.271,51.74 C25.257,51.344 24.924,51.034 24.528,51.049 C24.132,51.063 23.822,51.396 23.837,51.792" id="Fill-430" fill="#0A0A08"></path>
        <path d="M41.907,51.74 C41.866,53.06 41.032,54.382 39.859,54.987 C39.327,55.265 38.716,55.407 38.101,55.406 C37.364,55.407 36.627,55.202 36.023,54.812 C34.964,54.137 34.267,52.845 34.273,51.585 L34.278,51.394 C34.3,50.998 33.997,50.659 33.602,50.637 C33.206,50.615 32.867,50.917 32.845,51.313 C32.84,51.404 32.837,51.495 32.837,51.585 C32.843,53.352 33.757,55.053 35.246,56.019 C36.102,56.569 37.103,56.841 38.101,56.842 C38.934,56.842 39.77,56.652 40.523,56.259 C42.173,55.39 43.267,53.656 43.342,51.792 C43.356,51.396 43.046,51.063 42.65,51.049 C42.254,51.034 41.922,51.344 41.907,51.74" id="Fill-431" fill="#0A0A08"></path>
        <path d="M44.656,33.635 C44.089,34.087 43.587,34.618 43.178,35.214 L28.552,19.432 L31.494,19.432 L44.656,33.635" id="Fill-432" fill="#0A0A08"></path>
        <path d="M62.297,52.675 C61.938,53.328 61.536,53.952 61.106,54.562 L52.73,45.519 L43.178,35.214 C43.587,34.618 44.089,34.087 44.656,33.635 L62.297,52.675" id="Fill-433" fill="#0A0A08"></path>
    </g>
</svg>