<?xml version="1.0" encoding="UTF-8" standalone="no"?>
<svg width="71px" height="50px" viewBox="0 0 71 50" version="1.1" xmlns="http://www.w3.org/2000/svg" xmlns:xlink="http://www.w3.org/1999/xlink">
    <!-- Generator: Sketch 39.1 (31720) - http://www.bohemiancoding.com/sketch -->
    <title>Slice 1</title>
    <desc>Created with Sketch.</desc>
    <defs></defs>
    <g id="Page-1" stroke="none" stroke-width="1" fill="none" fill-rule="evenodd">
        <path d="M3.435,49.596 C2.654,49.596 2.021,48.964 2.02,48.183 L1.973,3.678 C1.972,2.897 2.605,2.262 3.387,2.261 L69.456,2.192 C70.238,2.191 70.872,2.824 70.873,3.606 L70.92,48.11 C70.921,48.891 70.288,49.526 69.506,49.527 L3.437,49.596 L3.435,49.596" id="Fill-583" fill="#A0A19D"></path>
        <path d="M0.943,46.838 L0.895,2.334 C0.895,1.553 1.528,0.918 2.309,0.917 L68.378,0.847 C69.16,0.847 69.794,1.48 69.795,2.261 L69.842,46.766 C69.843,47.547 69.21,48.182 68.428,48.183 L2.359,48.252 C1.578,48.253 0.943,47.62 0.943,46.838" id="Fill-584" fill="#FFFFFF"></path>
        <polyline id="Fill-585" fill="#384489" points="67.736 46.077 3.048 46.145 3.002 3.023 67.69 2.955 67.736 46.077"></polyline>
        <polyline id="Fill-586" fill="#FFFFFF" points="67.706 18.051 41.833 18.079 41.817 2.982 28.875 2.996 28.891 18.092 3.018 18.12 3.032 31.057 28.904 31.03 28.92 46.118 41.862 46.104 41.846 31.016 67.72 30.989 67.706 18.051"></polyline>
        <polyline id="Fill-587" fill="#FFFFFF" points="67.731 41.123 10.425 3.015 3.002 3.023 3.008 8.02 60.26 46.085 67.736 46.077 67.731 41.123"></polyline>
        <polyline id="Fill-588" fill="#FFFFFF" points="3.043 41.191 60.268 2.962 67.69 2.955 67.695 7.952 10.529 46.138 3.048 46.145 3.043 41.191"></polyline>
        <polyline id="Fill-589" fill="#DA2D31" points="67.709 20.741 39.143 20.771 39.125 2.985 31.576 2.993 31.595 20.779 3.021 20.809 3.029 28.356 31.603 28.326 31.621 46.115 39.17 46.107 39.151 28.318 67.717 28.288 67.709 20.741"></polyline>
        <polyline id="Fill-590" fill="#DA2D31" points="67.736 45.961 67.732 42.547 50.337 31.007 45.208 31.013 67.736 45.961"></polyline>
        <polyline id="Fill-591" fill="#DA2D31" points="67.69 2.955 62.585 2.96 41.831 16.786 41.833 18.079 45.021 18.075 67.69 2.955"></polyline>
        <polyline id="Fill-592" fill="#DA2D31" points="25.546 31.033 3.048 46.029 3.048 46.145 7.986 46.14 28.905 32.195 28.904 31.03 25.546 31.033"></polyline>
        <polyline id="Fill-593" fill="#DA2D31" points="3.003 3.05 3.006 6.453 20.549 18.101 25.667 18.096 3.003 3.05"></polyline>
    </g>
</svg>