<?xml version="1.0" encoding="UTF-8" standalone="no"?>
<svg width="87px" height="53px" viewBox="0 0 87 53" version="1.1" xmlns="http://www.w3.org/2000/svg" xmlns:xlink="http://www.w3.org/1999/xlink">
    <!-- Generator: Sketch 39.1 (31720) - http://www.bohemiancoding.com/sketch -->
    <title>Slice 1</title>
    <desc>Created with Sketch.</desc>
    <defs></defs>
    <g id="Page-1" stroke="none" stroke-width="1" fill="none" fill-rule="evenodd">
        <path d="M21.096,52.178 C17.342,52.178 13.811,50.428 11.521,47.518 C11.221,47.547 10.917,47.562 10.615,47.562 L10.609,47.562 C5.468,47.562 1.286,43.382 1.284,38.245 C1.285,35.509 2.487,32.942 4.511,31.192 C4.469,30.858 4.448,30.52 4.447,30.18 C4.447,26.274 7.24,22.97 11.089,22.324 C11.524,22.251 11.97,22.214 12.414,22.214 C13.249,22.214 14.066,22.343 14.842,22.592 C15.358,21.133 15.988,19.7 16.723,18.308 C19.128,13.804 22.823,9.78 27.134,6.968 C29.419,5.457 32.086,4.212 35.052,3.275 C36.265,2.911 37.505,2.624 38.772,2.411 C40.446,2.13 42.198,1.973 43.979,1.946 C47.199,1.994 50.191,2.438 52.947,3.265 C55.945,4.213 58.613,5.458 60.909,6.976 C65.207,9.779 68.902,13.804 71.303,18.298 C71.901,19.427 72.433,20.602 72.895,21.806 C76.087,22.833 78.714,25.098 80.199,28.114 C83.71,29.803 86.001,33.384 86.002,37.336 C86.001,42.35 82.418,46.591 77.479,47.42 C76.921,47.514 76.349,47.562 75.779,47.562 L75.775,47.562 L75.76,47.562 C75.517,47.562 75.274,47.553 75.033,47.536 C73.176,49.903 70.504,51.505 67.498,52.01 C66.833,52.122 66.151,52.178 65.472,52.178 C61.719,52.178 58.187,50.428 55.897,47.518 C55.595,47.547 55.29,47.562 54.984,47.562 C52.494,47.562 50.153,46.593 48.392,44.833 C46.631,43.073 45.662,40.733 45.662,38.244 C45.662,35.51 46.864,32.942 48.888,31.192 C48.845,30.858 48.824,30.52 48.824,30.18 C48.824,29.791 48.853,29.403 48.909,29.021 C48.479,28.481 47.962,28.004 47.406,27.637 C46.939,27.32 46.356,27.09 45.786,26.887 C45.319,26.755 44.766,26.675 44.016,26.632 C43.558,26.659 43.185,26.697 42.851,26.753 C42.631,26.79 42.431,26.834 42.245,26.887 C41.674,27.09 41.092,27.32 40.656,27.617 C39.748,28.216 38.967,29.061 38.484,29.957 L38.482,29.961 C40.476,31.871 41.625,34.514 41.625,37.336 C41.624,42.35 38.04,46.591 33.102,47.42 C32.543,47.514 31.969,47.562 31.398,47.562 L31.39,47.562 C31.145,47.562 30.9,47.553 30.657,47.536 C28.799,49.904 26.128,51.505 23.121,52.01 C22.456,52.121 21.774,52.178 21.096,52.178" id="Fill-102" fill="#A0A19D"></path>
        <path d="M66.214,50.799 C65.548,50.91 64.867,50.967 64.188,50.967 C60.434,50.967 56.903,49.217 54.613,46.307 C54.311,46.336 54.005,46.351 53.7,46.351 C51.21,46.351 48.868,45.382 47.108,43.622 C45.347,41.862 44.378,39.522 44.377,37.033 C44.377,34.298 45.579,31.731 47.604,29.98 C47.561,29.647 47.54,29.309 47.539,28.969 C47.54,28.579 47.568,28.192 47.624,27.809 C47.194,27.27 46.678,26.793 46.121,26.426 C45.654,26.109 45.072,25.878 44.501,25.676 C44.034,25.543 43.481,25.464 42.731,25.421 C42.273,25.447 41.901,25.486 41.567,25.542 C41.346,25.579 41.147,25.623 40.961,25.676 C40.39,25.879 39.808,26.108 39.371,26.406 C38.463,27.005 37.683,27.85 37.199,28.746 L37.197,28.749 C39.192,30.66 40.34,33.303 40.34,36.124 C40.34,41.139 36.755,45.38 31.817,46.209 C31.258,46.303 30.685,46.351 30.114,46.351 C29.866,46.351 29.618,46.342 29.372,46.325 C27.514,48.692 24.844,50.294 21.836,50.798 C21.172,50.91 20.49,50.967 19.811,50.967 C16.058,50.967 12.526,49.217 10.236,46.307 C9.934,46.336 9.629,46.351 9.324,46.351 C4.183,46.351 0.002,42.171 0,37.033 C0.001,34.298 1.203,31.73 3.226,29.981 C3.185,29.647 3.163,29.309 3.163,28.968 C3.163,25.063 5.956,21.759 9.804,21.112 C10.239,21.039 10.685,21.002 11.13,21.002 C11.964,21.002 12.781,21.131 13.557,21.38 C14.074,19.922 14.703,18.489 15.439,17.097 C17.844,12.593 21.539,8.569 25.85,5.756 C28.135,4.246 30.802,3.001 33.767,2.064 C34.981,1.7 36.22,1.412 37.487,1.2 C39.161,0.918 40.913,0.762 42.694,0.735 C45.914,0.783 48.907,1.227 51.662,2.054 C54.661,3.001 57.329,4.247 59.624,5.765 C63.922,8.568 67.618,12.592 70.018,17.087 C70.616,18.216 71.149,19.391 71.611,20.595 C74.803,21.622 77.43,23.886 78.914,26.903 C82.425,28.592 84.716,32.173 84.717,36.125 C84.717,41.139 81.133,45.38 76.195,46.209 C75.635,46.303 75.062,46.351 74.491,46.35 C74.242,46.351 73.995,46.342 73.749,46.324 C71.891,48.692 69.22,50.294 66.214,50.799" id="Fill-103" fill="#FFFFFF"></path>
        <path d="M66.311,31.681 C66.311,31.681 66.299,31.393 66.275,30.852 C66.261,30.582 66.244,30.249 66.224,29.857 C66.214,29.464 66.163,29.016 66.079,28.516 C65.853,26.511 65.145,23.641 63.524,20.563 C61.891,17.508 59.228,14.304 55.588,11.927 C53.777,10.726 51.711,9.801 49.539,9.108 C47.349,8.451 45.037,8.144 42.731,8.101 C40.425,8.144 38.113,8.451 35.923,9.108 C33.751,9.801 31.685,10.726 29.874,11.927 C26.234,14.304 23.571,17.508 21.938,20.563 C20.317,23.641 19.609,26.511 19.383,28.516 C19.299,29.016 19.248,29.464 19.238,29.857 C19.218,30.249 19.201,30.582 19.187,30.852 C19.164,31.393 19.151,31.681 19.151,31.681 L14.176,31.681 C14.176,31.681 14.19,31.333 14.215,30.679 C14.232,30.352 14.253,29.949 14.278,29.475 C14.294,29.002 14.355,28.459 14.452,27.852 C14.734,25.427 15.583,21.941 17.553,18.214 C19.53,14.512 22.749,10.635 27.157,7.759 C29.351,6.308 31.852,5.177 34.488,4.344 C37.143,3.547 39.944,3.168 42.731,3.126 C45.518,3.168 48.319,3.547 50.975,4.344 C53.611,5.177 56.111,6.308 58.305,7.759 C62.713,10.635 65.932,14.512 67.909,18.214 C69.879,21.941 70.728,25.427 71.01,27.852 C71.108,28.459 71.168,29.001 71.184,29.475 C71.209,29.949 71.23,30.352 71.247,30.679 C71.273,31.333 71.286,31.681 71.286,31.681 L66.311,31.681" id="Fill-104" fill="#384489"></path>
        <path d="M22.09,15.833 C23.886,13.512 26.095,11.457 28.533,9.868 L28.534,9.866 L28.536,9.865 C30.453,8.597 32.708,7.547 35.246,6.745 C35.577,6.64 35.761,6.287 35.656,5.955 C35.552,5.624 35.198,5.44 34.867,5.545 C32.232,6.377 29.871,7.473 27.842,8.815 L27.845,8.813 C25.284,10.484 22.976,12.632 21.094,15.063 C20.881,15.337 20.932,15.733 21.206,15.946 C21.481,16.158 21.877,16.108 22.09,15.833" id="Fill-105" fill="#FFFFFF"></path>
        <path d="M19.777,19.392 C20.033,18.913 20.308,18.439 20.599,17.972 C20.783,17.677 20.693,17.289 20.398,17.105 C20.103,16.921 19.715,17.011 19.531,17.306 C19.225,17.796 18.937,18.294 18.667,18.799 C18.503,19.106 18.619,19.487 18.926,19.651 C19.232,19.815 19.613,19.699 19.777,19.392" id="Fill-106" fill="#FFFFFF"></path>
        <path d="M61.336,31.681 C61.336,31.681 61.325,31.453 61.303,31.026 C61.292,30.812 61.279,30.548 61.263,30.238 C61.26,29.927 61.218,29.574 61.149,29.18 C60.978,27.595 60.411,25.341 59.138,22.911 C57.849,20.504 55.742,17.972 52.871,16.094 C51.444,15.144 49.812,14.425 48.104,13.871 C46.379,13.355 44.557,13.119 42.731,13.076 C40.906,13.119 39.083,13.355 37.358,13.871 C35.65,14.425 34.019,15.144 32.591,16.094 C29.72,17.972 27.613,20.504 26.324,22.912 C25.051,25.341 24.484,27.595 24.314,29.18 C24.244,29.574 24.202,29.927 24.199,30.239 C24.183,30.548 24.17,30.812 24.159,31.026 C24.137,31.453 24.126,31.681 24.126,31.681 L19.151,31.681 C19.151,31.681 19.164,31.393 19.187,30.852 C19.201,30.582 19.218,30.249 19.238,29.857 C19.248,29.464 19.299,29.016 19.383,28.516 C19.609,26.511 20.317,23.641 21.938,20.563 C23.571,17.508 26.234,14.304 29.874,11.927 C31.685,10.726 33.751,9.801 35.923,9.108 C38.113,8.451 40.425,8.144 42.731,8.101 C45.037,8.144 47.349,8.451 49.539,9.108 C51.711,9.801 53.777,10.726 55.588,11.927 C59.228,14.304 61.891,17.508 63.524,20.563 C65.145,23.641 65.853,26.511 66.079,28.516 C66.163,29.016 66.214,29.464 66.224,29.857 C66.244,30.249 66.261,30.582 66.275,30.852 C66.299,31.393 66.311,31.681 66.311,31.681 L61.336,31.681" id="Fill-107" fill="#DA2D31"></path>
        <path d="M56.361,31.681 C56.361,31.681 56.351,31.513 56.331,31.199 C56.292,30.888 56.343,30.417 56.218,29.843 C56.104,28.68 55.677,27.04 54.753,25.26 C53.808,23.5 52.257,21.64 50.155,20.262 C49.11,19.561 47.912,19.049 46.669,18.635 C45.408,18.259 44.076,18.095 42.731,18.051 C41.386,18.095 40.054,18.259 38.793,18.635 C37.55,19.049 36.352,19.561 35.308,20.262 C33.206,21.64 31.654,23.501 30.71,25.26 C29.785,27.04 29.358,28.68 29.244,29.844 C29.119,30.417 29.17,30.888 29.131,31.199 C29.111,31.513 29.101,31.681 29.101,31.681 L24.126,31.681 C24.126,31.681 24.137,31.453 24.159,31.026 C24.17,30.812 24.183,30.548 24.199,30.239 C24.202,29.927 24.244,29.574 24.314,29.18 C24.484,27.595 25.051,25.341 26.324,22.912 C27.613,20.504 29.72,17.972 32.591,16.094 C34.019,15.144 35.65,14.425 37.358,13.871 C39.083,13.355 40.906,13.119 42.731,13.076 C44.557,13.119 46.379,13.355 48.104,13.871 C49.812,14.425 51.444,15.144 52.871,16.094 C55.742,17.972 57.849,20.504 59.138,22.911 C60.411,25.341 60.978,27.595 61.149,29.18 C61.218,29.574 61.26,29.927 61.263,30.238 C61.279,30.548 61.292,30.812 61.303,31.026 C61.325,31.453 61.336,31.681 61.336,31.681 L56.361,31.681" id="Fill-108" fill="#E9CD27"></path>
        <path d="M51.386,31.681 C51.297,31.706 51.56,29.878 50.367,27.609 C49.766,26.497 48.771,25.309 47.438,24.43 C46.776,23.979 46.013,23.673 45.234,23.398 C44.438,23.163 43.595,23.07 42.731,23.026 C41.867,23.07 41.024,23.163 40.228,23.398 C39.449,23.673 38.686,23.979 38.024,24.43 C36.691,25.309 35.696,26.497 35.095,27.609 C33.902,29.878 34.165,31.706 34.076,31.681 L29.101,31.681 C29.101,31.681 29.111,31.513 29.131,31.199 C29.17,30.888 29.119,30.417 29.244,29.844 C29.358,28.68 29.785,27.04 30.71,25.26 C31.654,23.501 33.206,21.64 35.308,20.262 C36.352,19.561 37.55,19.049 38.793,18.635 C40.054,18.259 41.386,18.095 42.731,18.051 C44.076,18.095 45.408,18.259 46.669,18.635 C47.912,19.049 49.11,19.561 50.155,20.262 C52.257,21.64 53.808,23.5 54.753,25.26 C55.677,27.04 56.104,28.68 56.218,29.843 C56.343,30.417 56.292,30.888 56.331,31.199 C56.351,31.513 56.361,31.681 56.361,31.681 L51.386,31.681" id="Fill-109" fill="#35AC56"></path>
        <polyline id="Fill-110" fill="#4A8ABD" points="71.328 39.532 71.277 39.573 71.283 39.501 71.328 39.532"></polyline>
        <path d="M57.817,31.381 L57.812,31.453 L57.766,31.422 L57.817,31.381 L57.817,31.381 Z M46.769,37.033 C46.769,40.858 49.87,43.96 53.701,43.959 C54.399,43.959 55.073,43.857 55.705,43.664 C57.393,46.597 60.561,48.576 64.188,48.576 C67.784,48.576 70.931,46.632 72.624,43.735 C73.221,43.883 73.848,43.959 74.491,43.959 C78.816,43.959 82.326,40.455 82.326,36.125 C82.326,32.718 80.148,29.82 77.113,28.739 C75.654,25.016 72.027,22.379 67.784,22.379 C64.733,22.379 61.999,23.746 60.163,25.898 C59.163,24.388 57.45,23.394 55.506,23.394 C52.425,23.394 49.931,25.893 49.931,28.969 C49.931,29.683 50.064,30.361 50.309,30.988 C48.197,32.172 46.769,34.437 46.769,37.033 L46.769,37.033 Z" id="Fill-111" fill="#4A8ABD"></path>
        <path d="M52.654,30.074 C52.518,29.725 52.449,29.355 52.449,28.969 C52.449,28.274 52.68,27.637 53.071,27.122 C53.282,26.845 53.228,26.45 52.951,26.24 C52.674,26.029 52.28,26.083 52.069,26.36 C51.518,27.083 51.19,27.991 51.19,28.969 C51.19,29.507 51.288,30.035 51.481,30.531 C51.608,30.855 51.972,31.015 52.296,30.889 C52.62,30.763 52.78,30.398 52.654,30.074" id="Fill-112" fill="#FFFFFF"></path>
        <path d="M49.54,38.508 C49.376,38.047 49.286,37.552 49.286,37.033 C49.286,35.545 50.039,34.16 51.269,33.349 C51.559,33.158 51.639,32.768 51.448,32.477 C51.257,32.187 50.866,32.107 50.576,32.298 C48.994,33.342 48.028,35.119 48.027,37.033 C48.027,37.697 48.143,38.337 48.355,38.931 C48.472,39.259 48.832,39.43 49.159,39.313 C49.487,39.196 49.657,38.836 49.54,38.509" id="Fill-113" fill="#FFFFFF"></path>
        <path d="M13.44,31.381 L13.435,31.453 L13.389,31.422 L13.44,31.381 L13.44,31.381 Z M2.392,37.033 C2.392,40.858 5.493,43.96 9.324,43.96 C10.023,43.96 10.696,43.858 11.328,43.664 C13.017,46.597 16.184,48.576 19.811,48.576 C23.407,48.576 26.554,46.632 28.247,43.735 C28.844,43.883 29.471,43.96 30.114,43.96 C34.44,43.96 37.949,40.455 37.949,36.125 C37.949,32.718 35.771,29.82 32.736,28.739 C31.277,25.016 27.651,22.379 23.407,22.379 C20.357,22.379 17.623,23.746 15.786,25.898 C14.787,24.388 13.073,23.394 11.129,23.394 C8.049,23.394 5.554,25.893 5.554,28.969 C5.554,29.683 5.687,30.361 5.932,30.989 C3.82,32.172 2.392,34.437 2.392,37.033 L2.392,37.033 Z" id="Fill-114" fill="#4A8ABD"></path>
        <path d="M8.277,30.074 C8.141,29.725 8.072,29.355 8.072,28.969 C8.072,28.125 8.414,27.364 8.969,26.808 C9.525,26.253 10.285,25.911 11.129,25.911 C11.468,25.911 11.798,25.966 12.109,26.071 C12.438,26.182 12.795,26.005 12.906,25.676 C13.018,25.346 12.84,24.989 12.511,24.878 C12.072,24.73 11.606,24.652 11.129,24.652 C8.748,24.653 6.814,26.587 6.813,28.969 C6.813,29.507 6.911,30.035 7.104,30.531 C7.231,30.855 7.596,31.015 7.919,30.889 C8.243,30.763 8.403,30.398 8.277,30.074" id="Fill-115" fill="#FFFFFF"></path>
        <path d="M4.927,37.431 C4.916,37.3 4.91,37.167 4.91,37.033 C4.909,35.635 5.575,34.327 6.675,33.502 C6.953,33.293 7.01,32.899 6.801,32.621 C6.593,32.343 6.198,32.286 5.92,32.495 C4.504,33.556 3.651,35.234 3.651,37.033 C3.651,37.205 3.659,37.375 3.674,37.544 C3.705,37.89 4.011,38.145 4.357,38.114 C4.703,38.083 4.959,37.777 4.927,37.431" id="Fill-116" fill="#FFFFFF"></path>
        <polyline id="Fill-117" fill="#4A8ABD" points="71.328 39.532 71.277 39.573 71.283 39.501 71.328 39.532"></polyline>
    </g>
</svg>