<?xml version="1.0" encoding="iso-8859-1"?>
<!-- Generator: Adobe Illustrator 19.0.0, SVG Export Plug-In . SVG Version: 6.00 Build 0)  -->
<svg version="1.1" id="Layer_1" xmlns="http://www.w3.org/2000/svg" xmlns:xlink="http://www.w3.org/1999/xlink" x="0px" y="0px"
	 viewBox="0 0 511.489 511.489" style="enable-background:new 0 0 511.489 511.489;" xml:space="preserve">
<path style="fill:#663333;" d="M509.295,313.498c3.492,4.431,2.736,10.842-1.695,14.334l-17.693,13.956
	c-1.225,0.97-2.665,1.644-4.196,1.97l-49.516,10.546c-0.704,0.153-1.409,0.225-2.124,0.225c-0.766,0-1.531-0.082-2.277-0.255
	l-51.241-11.69c-0.541,1.623-1.113,3.236-1.715,4.829l53.313,24.482c1.388,0.633,2.603,1.572,3.584,2.736l34.712,41.562
	c1.011,1.215,1.736,2.654,2.103,4.196l4.084,17.325c1.286,5.493-2.113,10.985-7.596,12.282c-0.786,0.184-1.582,0.276-2.358,0.276
	c-4.625,0-8.821-3.165-9.924-7.871l-3.532-14.977l-31.68-37.928l-51.404-23.604c-0.837,1.47-1.705,2.92-2.593,4.349l31.333,27.371
	c1.011,0.888,1.838,1.96,2.44,3.165l17.693,35.825c0.694,1.409,1.062,2.951,1.062,4.523v18.071c0,5.636-4.574,10.209-10.209,10.209
	c-5.646,0-10.209-4.574-10.209-10.209v-15.692l-15.743-31.853l-28.484-24.88c-5.431,6.33-11.435,12.17-18.009,17.376
	c-23.257,18.459-52.425,28.627-82.114,28.627c-29.699,0-58.857-10.169-82.124-28.627c-6.411-5.084-12.302-10.781-17.621-16.927
	l-27.984,24.431l-15.743,31.853v15.692c0,5.636-4.564,10.209-10.209,10.209c-5.636,0-10.209-4.574-10.209-10.209v-18.071
	c0-1.572,0.368-3.114,1.062-4.523l17.693-35.825c0.602-1.205,1.429-2.277,2.44-3.165l30.761-26.861
	c-0.939-1.491-1.848-3.002-2.726-4.533l-50.7,23.277l-31.68,37.928l-3.532,14.977c-1.103,4.696-5.299,7.871-9.924,7.871
	c-0.776,0-1.572-0.092-2.358-0.276c-5.482-1.297-8.882-6.789-7.596-12.282l4.084-17.325c0.368-1.542,1.092-2.981,2.103-4.196
	l34.712-41.562c0.98-1.164,2.195-2.103,3.583-2.736l52.568-24.135c-0.653-1.705-1.266-3.42-1.848-5.156l-50.332,11.659
	c-0.755,0.174-1.531,0.265-2.307,0.265c-0.715,0-1.419-0.071-2.124-0.225l-49.516-10.546c-1.531-0.327-2.971-1.001-4.196-1.97
	L3.889,327.832c-4.431-3.492-5.186-9.903-1.695-14.334c3.492-4.431,9.903-5.186,14.334-1.695l15.835,12.476l44.962,9.587
	l47.494-11.006l-1.664-7.136H71.659c-3.236,0-6.289-1.531-8.208-4.145L29.28,265.351c-1.307-1.756-2.001-3.88-2.001-6.064v-22.001
	c0-5.636,4.574-10.209,10.209-10.209s10.209,4.574,10.209,10.209v18.632l29.107,39.388h41.583l-1.154-4.931
	c-2.787-11.976-0.071-24.196,7.116-33.681c-10.802-6.942-22.226-17.958-30.332-33.426c-13.405-25.544-13.497-57.499-1.725-72.905
	c-6.034-20.174,0.031-47.902,9.209-67.066c11.159-23.298,31.384-39.459,51.527-41.174c3.941-0.347,7.739,1.644,9.719,5.074
	c1.97,3.441,1.787,7.708-0.49,10.955c-2.42,3.451-4.574,7.147-6.422,11.006c-4.574,9.556-7.075,19.653-6.861,27.729
	c0.163,6.136,1.889,9.719,3.43,10.454c3.481,1.674,15.59-4.676,25.37-22.267c2.266-4.074,7.004-6.095,11.506-4.911
	c4.513,1.174,7.647,5.258,7.626,9.913c-0.051,11.547-2.94,23.625-8.351,34.937c-9.27,19.326-28.127,37.438-46.8,45.289
	c3.512,5.768,7.402,12.741,12.057,21.613c4.707,8.984,9.638,18.775,13.354,27.933l1.511-1.256
	c12.935-10.689,27.382-18.622,42.543-23.808l-2.848-13.599c-1.164-5.513,2.369-10.924,7.892-12.088
	c5.513-1.154,10.934,2.379,12.088,7.902l2.654,12.649c16.059-2.899,32.537-2.899,48.587,0l2.654-12.649
	c1.164-5.523,6.575-9.056,12.098-7.902c5.513,1.164,9.046,6.575,7.892,12.088l-2.859,13.599
	c15.171,5.186,29.607,13.119,42.543,23.808l1.521,1.256c3.716-9.168,8.647-18.949,13.364-27.933
	c4.655-8.872,8.535-15.845,12.047-21.603c-18.673-7.851-37.53-25.973-46.8-45.299c-5.411-11.292-8.3-23.369-8.351-34.937
	c-0.02-4.655,3.114-8.739,7.626-9.913c4.513-1.184,9.24,0.837,11.506,4.911c9.781,17.591,21.879,23.931,25.36,22.267
	c1.542-0.735,3.277-4.319,3.43-10.454c0.214-8.076-2.277-18.183-6.85-27.718c-1.848-3.859-4.012-7.575-6.432-11.026
	c-2.266-3.257-2.45-7.524-0.47-10.955s5.758-5.401,9.709-5.064c20.133,1.715,40.358,17.877,51.527,41.174
	c9.178,19.163,15.243,46.882,9.199,67.045c11.771,15.406,11.68,47.372-1.725,72.926c-8.116,15.467-19.531,26.473-30.342,33.415
	c7.198,9.484,9.924,21.715,7.126,33.691l-1.154,4.931h42.471l29.107-39.388v-18.632c0-5.636,4.574-10.209,10.209-10.209
	s10.209,4.574,10.209,10.209v22.001c0,2.185-0.694,4.308-2.001,6.064l-34.171,46.228c-1.919,2.614-4.972,4.145-8.208,4.145h-52.374
	l-1.664,7.106l48.352,11.036l44.983-9.587l15.835-12.476C499.392,308.312,505.803,309.067,509.295,313.498z M398.492,213.793
	c5.707-10.873,8.576-23.747,7.882-35.324c-0.633-10.536-3.9-15.916-5.299-16.754c-4.615-2.767-6.299-8.647-3.829-13.436
	c5.921-11.475,3.042-36.151-6.554-56.162c-3.165-6.595-7.269-12.445-11.874-17.182c2.287,7.81,3.41,15.488,3.226,22.491
	c-0.5,18.622-9.627,25.748-15.028,28.331c-6.371,3.053-13.538,2.961-20.766,0.163c8.525,11.986,21.164,22.379,32.905,26.483
	c5.013,1.756,8.892,5.636,10.638,10.659c1.756,5.033,1.113,10.526-1.746,15.038c-3.716,5.86-7.892,13.262-13.17,23.308
	c-5.309,10.118-11.475,22.379-14.804,32.19l10.434,8.627C379.605,237.612,390.907,228.26,398.492,213.793z M373.479,285.739
	c1.756-7.524-0.847-15.263-6.799-20.184l-37.765-31.22c-21.327-17.632-47.474-26.453-73.61-26.453
	c-26.146,0-52.282,8.821-73.61,26.453l-37.765,31.22c-5.962,4.921-8.566,12.66-6.81,20.184l9.413,40.307
	c5.707,24.452,19.674,46.504,39.347,62.114c19.663,15.6,44.319,24.196,69.424,24.196s49.761-8.596,69.424-24.196
	c19.663-15.61,33.64-37.662,39.347-62.114L373.479,285.739z M164.36,125.911c-7.228,2.808-14.405,2.899-20.776-0.153
	c-5.401-2.583-14.528-9.709-15.018-28.331c-0.184-7.004,0.939-14.691,3.226-22.491c-4.604,4.727-8.719,10.587-11.874,17.182
	c-9.597,20.021-12.476,44.697-6.565,56.182c2.46,4.788,0.786,10.659-3.829,13.436c-1.388,0.827-4.666,6.207-5.299,16.743
	c-0.694,11.577,2.175,24.441,7.882,35.304c7.586,14.477,18.887,23.819,27.994,28.443l10.424-8.627
	c-3.328-9.801-9.485-22.063-14.804-32.2c-5.258-10.036-9.444-17.438-13.16-23.298c-2.869-4.523-3.502-10.005-1.746-15.049
	c1.746-5.013,5.615-8.892,10.628-10.648C143.196,148.3,155.835,137.907,164.36,125.911z"/>
<path style="fill:#C85E4C;" d="M406.374,178.469c0.694,11.577-2.175,24.451-7.882,35.324c-7.586,14.467-18.887,23.819-27.984,28.433
	l-10.434-8.627c3.328-9.811,9.495-22.073,14.804-32.19c5.278-10.046,9.454-17.448,13.17-23.308
	c2.859-4.513,3.502-10.005,1.746-15.038c-1.746-5.023-5.625-8.903-10.638-10.659c-11.741-4.104-24.38-14.497-32.905-26.483
	c7.228,2.797,14.395,2.889,20.766-0.163c5.401-2.583,14.528-9.709,15.028-28.331c0.184-7.004-0.939-14.681-3.226-22.491
	c4.604,4.737,8.709,10.587,11.874,17.182c9.597,20.01,12.476,44.687,6.554,56.162c-2.471,4.788-0.786,10.669,3.829,13.436
	C402.474,162.552,405.741,167.933,406.374,178.469z"/>
<path style="fill:#FE6865;" d="M366.68,265.555c5.952,4.921,8.555,12.66,6.799,20.184l-9.403,40.307
	c-5.707,24.452-19.684,46.504-39.347,62.114c-19.663,15.6-44.319,24.196-69.424,24.196s-49.761-8.596-69.424-24.196
	c-19.674-15.61-33.64-37.662-39.347-62.114l-9.413-40.307c-1.756-7.524,0.847-15.263,6.81-20.184l37.765-31.22
	c21.327-17.632,47.463-26.453,73.61-26.453c26.136,0,52.282,8.821,73.61,26.453L366.68,265.555z M337.226,319.787
	c1.286-5.493-2.124-10.985-7.616-12.261c-5.493-1.286-10.985,2.124-12.262,7.616c-6.769,28.984-32.282,49.23-62.042,49.23
	c-5.646,0-10.209,4.574-10.209,10.209c0,5.636,4.564,10.209,10.209,10.209C294.602,384.79,328.292,358.062,337.226,319.787z"/>
<path style="fill:#663333;" d="M329.61,307.526c5.493,1.276,8.903,6.769,7.616,12.261c-8.933,38.275-42.624,65.003-81.92,65.003
	c-5.646,0-10.209-4.574-10.209-10.209c0-5.636,4.564-10.209,10.209-10.209c29.76,0,55.274-20.245,62.042-49.23
	C318.624,309.649,324.117,306.239,329.61,307.526z"/>
<path style="fill:#C85E4C;" d="M143.584,125.758c6.371,3.053,13.548,2.961,20.776,0.153c-8.525,11.996-21.164,22.389-32.915,26.493
	c-5.013,1.756-8.882,5.636-10.628,10.648c-1.756,5.043-1.123,10.526,1.746,15.049c3.716,5.86,7.902,13.262,13.16,23.298
	c5.319,10.138,11.475,22.399,14.804,32.2l-10.424,8.627c-9.107-4.625-20.409-13.966-27.994-28.443
	c-5.707-10.863-8.576-23.727-7.882-35.304c0.633-10.536,3.91-15.916,5.299-16.743c4.615-2.777,6.289-8.647,3.829-13.436
	c-5.911-11.486-3.032-36.162,6.565-56.182c3.155-6.595,7.269-12.455,11.874-17.182c-2.287,7.8-3.41,15.488-3.226,22.491
	C129.056,116.049,138.183,123.175,143.584,125.758z"/>
<g>
</g>
<g>
</g>
<g>
</g>
<g>
</g>
<g>
</g>
<g>
</g>
<g>
</g>
<g>
</g>
<g>
</g>
<g>
</g>
<g>
</g>
<g>
</g>
<g>
</g>
<g>
</g>
<g>
</g>
</svg>
