<?xml version="1.0" encoding="iso-8859-1"?>
<!-- Generator: Adobe Illustrator 19.0.0, SVG Export Plug-In . SVG Version: 6.00 Build 0)  -->
<svg version="1.1" id="Layer_1" xmlns="http://www.w3.org/2000/svg" xmlns:xlink="http://www.w3.org/1999/xlink" x="0px" y="0px"
	 viewBox="0 0 511.498 511.498" style="enable-background:new 0 0 511.498 511.498;" xml:space="preserve">
<path style="fill:#663333;" d="M395.017,27.486c19.71,0,35.733,16.023,35.733,35.733c0,19.69-16.023,35.723-35.733,35.723h-10.578
	c-5.395,8.439-14.115,14.165-24.03,15.732l9.493,211.989c0,13.703-3.858,26.813-11.201,38.205
	c0.06,0.502-5.857,134.404-5.857,134.404c-0.161,6.771-5.716,12.226-12.517,12.226h-22.352c-3.185,0-6.088-1.216-8.298-3.185
	c-1.889,1.366-4.199,2.18-6.701,2.18h-22.352c-6.259,0-11.372-5.033-11.513-11.261l-4.45-101.745h-41.67L218.5,499.272
	c-0.161,6.771-5.716,12.226-12.527,12.226h-22.352c-3.185,0-6.088-1.216-8.298-3.185c-1.889,1.366-4.199,2.18-6.701,2.18H146.27
	c-6.259,0-11.372-5.033-11.513-11.261c0,0-7.544-170.871-7.544-172.569c0-11.402,2.702-22.422,7.786-32.318
	c-14.727,4.129-25.908,16.787-27.898,32.278c0.111,0.07,0.221,0.131,0.332,0.201c3.727,2.592,6.218,6.48,7.032,10.94
	c0.352,1.999,0.352,4.018,0,6.017c0,0,0,0.01,0,0.02l-1.577,8.71c-1.336,7.434-7.836,12.658-15.139,12.658
	c-0.904,0-1.818-0.08-2.743-0.241c-6.269-1.135-11.261-6.108-12.407-12.387l-1.577-8.74c-0.804-4.46,0.171-8.981,2.763-12.708
	c1.386-1.989,3.154-3.627,5.174-4.842c2.672-28.802,26.973-51.425,56.468-51.425h4.38c7.735-7.002,17.289-11.894,17.51-11.995
	c9.634-4.641,19.971-6.992,30.73-6.992h69.015l15.139-189.717c-7.113-0.412-14.798-4.049-21.458-10.709
	c-5.415-5.415-8.951-11.563-10.217-17.791c-1.517-7.394,0.412-14.416,5.264-19.268c4.842-4.852,11.864-6.771,19.258-5.254
	c6.228,1.266,12.387,4.802,17.791,10.217c2.702,2.692,4.902,5.555,6.59,8.489c1.879-1.085,3.888-1.969,5.967-2.662V10.046
	C305.397,4.501,309.898,0,315.443,0c5.555,0,10.046,4.501,10.046,10.046v17.44h3.777v-17.44C329.266,4.501,333.767,0,339.312,0
	c5.545,0,10.046,4.501,10.046,10.046v17.44H395.017z M412.668,63.219c0-9.734-7.916-17.651-17.651-17.651h-79.323
	c-7.806,0-14.305,6.108-14.788,13.904c-0.02,0.311-11.241,140.472-11.241,140.472c14.436,5.626,24.261,19.529,24.261,35.653
	c0,21.006-17.008,38.114-37.974,38.295c-0.181,0.01-0.352,0.03-0.542,0.03h-45.729c0.794,2.823,1.206,5.776,1.206,8.8
	c0,18.756-16.184,34.026-36.085,34.026c-17.058,0-31.393-11.231-35.131-26.26c-9.272,9.825-14.376,22.643-14.376,36.175
	c0,1.256,7.092,161.83,7.092,161.83h10.116l4.39-100.449c0.211-4.832,4.199-8.639,9.031-8.639h97.385
	c4.842,0,8.82,3.807,9.031,8.639l4.571,104.367h9.775l4.611-105.412c0.181-4.159,3.185-7.655,7.263-8.469l0.281-0.06
	c0.03,0,0.07-0.01,0.1-0.02c13.03-2.461,24.582-9.704,32.529-20.413c6.771-9.122,10.347-19.971,10.347-31.373l-4.491-132.516
	c-17.45-3.858-30.54-19.308-30.54-37.722c0-16.596,10.649-30.992,25.838-36.386l-0.874-13.713c-0.171-2.743,0.904-5.415,2.943-7.263
	c2.029-1.848,4.792-2.672,7.504-2.24c0.874,0.141,1.758,0.211,2.642,0.211c6.942,0,13.14-4.159,15.782-10.578
	c1.396-3.385,4.701-5.596,8.358-5.596h16.033C404.751,80.86,412.668,72.943,412.668,63.219z M346.093,174.638l-2.23-35.11
	c-5.465,3.737-8.991,9.956-8.991,16.897C334.872,164.311,339.423,171.182,346.093,174.638z M333.084,491.406l4.701-105.432
	c-4.892,3.185-10.166,5.766-15.722,7.665l3.245,97.767L333.084,491.406L333.084,491.406z M295.844,235.597
	c0-6.46-2.994-12.226-7.755-15.933l-2.682,33.614C291.624,249.832,295.844,243.202,295.844,235.597z M285.014,47.587
	c1.135-1.145,0.603-6.259-4.963-11.493c-5.766-5.425-9.453-5.425-9.935-5.425c-0.583,0-1.175,0.111-1.547,0.472
	c-0.663,0.663-0.492,2.08-0.332,2.863c0.543,2.662,2.471,5.807,5.284,8.619C278.926,48.019,283.869,48.723,285.014,47.587z
	 M212.804,282.722c0-3.174-1.045-6.218-3.004-8.8h-11.754c-7.113,0-13.984,1.386-20.443,4.109c-0.532,1.507-0.814,3.074-0.814,4.691
	c0,8.79,8.087,15.943,18.012,15.943S212.804,291.512,212.804,282.722z M198.74,491.406l4.139-93.919h-15.3l3.355,93.919H198.74z"/>
<path style="fill:#FFCC66;" d="M395.017,45.568c9.734,0,17.651,7.916,17.651,17.651c0,9.724-7.916,17.641-17.651,17.641h-16.033
	c-3.657,0-6.962,2.21-8.358,5.596c-2.642,6.419-8.84,10.578-15.782,10.578c-0.884,0-1.768-0.07-2.642-0.211
	c-2.712-0.432-5.475,0.392-7.504,2.24c-2.039,1.848-3.114,4.521-2.943,7.263l0.874,13.713c-15.189,5.395-25.838,19.79-25.838,36.386
	c0,18.414,13.09,33.865,30.54,37.722l4.491,132.516c0,11.402-3.576,22.252-10.347,31.373c-7.946,10.709-19.499,17.952-32.529,20.413
	c-0.03,0.01-0.07,0.02-0.1,0.02l-0.281,0.06c-4.079,0.814-7.082,4.31-7.263,8.469l-4.611,105.412h-9.775l-4.571-104.367
	c-0.211-4.832-4.189-8.639-9.031-8.639h-97.385c-4.832,0-8.82,3.807-9.031,8.639l-4.39,100.449h-10.116
	c0,0-7.092-160.574-7.092-161.83c0-13.532,5.103-26.35,14.376-36.175c3.737,15.029,18.073,26.26,35.131,26.26
	c19.901,0,36.085-15.27,36.085-34.026c0-3.024-0.412-5.977-1.206-8.8h45.729c0.191,0,0.362-0.02,0.542-0.03
	c20.966-0.181,37.974-17.289,37.974-38.295c0-16.124-9.825-30.027-24.261-35.653c0,0,11.221-140.161,11.241-140.472
	c0.482-7.796,6.982-13.904,14.788-13.904L395.017,45.568L395.017,45.568z M352.824,62.556c0-5.445-4.41-9.855-9.845-9.855
	c-5.445,0-9.855,4.41-9.855,9.855s4.41,9.855,9.855,9.855C348.414,72.411,352.824,68.001,352.824,62.556z M327.79,354.078
	c5.927-5.927,8.288-14.808,6.48-24.381c-1.587-8.449-6.259-16.897-13.15-23.789c-3.446-3.446-7.283-6.339-11.312-8.569
	c-4.028-2.22-8.248-3.787-12.477-4.581c-9.574-1.808-18.454,0.553-24.381,6.48c-5.927,5.927-8.288,14.808-6.48,24.381
	c1.587,8.449,6.259,16.897,13.15,23.789c9.051,9.041,20.092,13.783,30.027,13.783C316.599,361.191,322.998,358.87,327.79,354.078z"
	/>
<path style="fill:#663333;" d="M342.979,52.701c5.435,0,9.845,4.41,9.845,9.855s-4.41,9.855-9.845,9.855
	c-5.445,0-9.855-4.41-9.855-9.855S337.534,52.701,342.979,52.701z"/>
<path style="fill:#B88D5B;" d="M343.863,139.528l2.23,35.11c-6.671-3.456-11.221-10.327-11.221-18.213
	C334.872,149.483,338.398,143.265,343.863,139.528z"/>
<path style="fill:#FFCC66;" d="M337.785,385.974l-4.701,105.432h-7.776l-3.245-97.767
	C327.619,391.74,332.893,389.159,337.785,385.974z"/>
<path style="fill:#663333;" d="M334.269,329.697c1.808,9.574-0.552,18.454-6.48,24.381c-4.792,4.792-11.191,7.113-18.143,7.113
	c-9.935,0-20.976-4.742-30.027-13.783c-6.891-6.891-11.563-15.34-13.15-23.789c-1.808-9.574,0.552-18.454,6.48-24.381
	c5.927-5.927,14.808-8.288,24.381-6.48c4.229,0.794,8.449,2.361,12.477,4.581c4.028,2.23,7.866,5.123,11.312,8.569
	C328.011,312.8,332.682,321.248,334.269,329.697z M315.001,341.29c2.321-2.321,1.818-6.53,1.497-8.238
	c-0.904-4.842-3.888-10.076-8.167-14.356c-4.28-4.28-9.513-7.263-14.356-8.177c-0.663-0.121-1.718-0.271-2.893-0.271
	c-1.828,0-3.938,0.362-5.344,1.778c-2.321,2.321-1.818,6.53-1.497,8.238c0.904,4.842,3.888,10.076,8.167,14.356
	s9.513,7.253,14.356,8.167C308.471,343.118,312.681,343.61,315.001,341.29z"/>
<g>
	<path style="fill:#B88D5B;" d="M316.498,333.052c0.321,1.708,0.824,5.917-1.497,8.238c-2.321,2.321-6.53,1.828-8.238,1.497
		c-4.842-0.914-10.076-3.888-14.356-8.167s-7.263-9.513-8.167-14.356c-0.321-1.708-0.824-5.917,1.497-8.238
		c1.406-1.417,3.516-1.778,5.344-1.778c1.175,0,2.23,0.151,2.893,0.271c4.842,0.914,10.076,3.898,14.356,8.177
		C312.61,322.976,315.594,328.21,316.498,333.052z"/>
	<path style="fill:#B88D5B;" d="M288.088,219.664c4.762,3.707,7.755,9.473,7.755,15.933c0,7.605-4.219,14.235-10.438,17.681
		L288.088,219.664z"/>
</g>
<path style="fill:#FFC84F;" d="M280.051,36.095c5.565,5.234,6.098,10.347,4.963,11.493c-1.145,1.135-6.088,0.432-11.493-4.963
	c-2.813-2.813-4.742-5.957-5.284-8.619c-0.161-0.784-0.331-2.2,0.332-2.863c0.372-0.362,0.964-0.472,1.547-0.472
	C270.598,30.67,274.285,30.67,280.051,36.095z"/>
<path style="fill:#B88D5B;" d="M209.8,273.922c1.959,2.582,3.004,5.626,3.004,8.8c0,8.79-8.077,15.943-18.002,15.943
	s-18.012-7.153-18.012-15.943c0-1.617,0.281-3.185,0.814-4.691c6.46-2.722,13.331-4.109,20.443-4.109H209.8z"/>
<polygon style="fill:#FFCC66;" points="202.879,397.487 198.74,491.406 190.934,491.406 187.579,397.487 "/>
<g>
</g>
<g>
</g>
<g>
</g>
<g>
</g>
<g>
</g>
<g>
</g>
<g>
</g>
<g>
</g>
<g>
</g>
<g>
</g>
<g>
</g>
<g>
</g>
<g>
</g>
<g>
</g>
<g>
</g>
</svg>
