<?xml version="1.0" encoding="iso-8859-1"?>
<!-- Generator: Adobe Illustrator 19.0.0, SVG Export Plug-In . SVG Version: 6.00 Build 0)  -->
<svg version="1.1" id="Layer_1" xmlns="http://www.w3.org/2000/svg" xmlns:xlink="http://www.w3.org/1999/xlink" x="0px" y="0px"
	 viewBox="0 0 511.493 511.493" style="enable-background:new 0 0 511.493 511.493;" xml:space="preserve">
<path style="fill:#663333;" d="M511.493,245.266c0,16.731-12.469,30.478-28.246,31.736l-0.213,131.724c0,17.644-14.356,32-32,32
	h-54.138c-14.6,0-27.201-8.715-32.883-21.215h-39.538c-19.906,0-36.109-16.193-36.109-36.109c0-0.751,0.03-1.502,0.081-2.252
	c-16.72-0.386-33.41-2.09-49.978-5.103c-8.685,25.892-31.757,44.571-58.947,47.645c-1.278,0.152-2.628,0.233-4.079,0.233
	c-7.569,0-14.854-2.435-20.89-6.717c-12.936,16-32.71,26.257-54.838,26.257c-19.916,0-36.119-16.203-36.119-36.119
	c0-11.627,5.641-22.605,15.097-29.382c6.848-4.9,10.947-13.23,10.998-22.28l0.335-46.265c0.01-1.431,0.315-2.78,0.852-4.008
	c-24.705-5.387-47.117-17.816-63.452-35.287C9.74,251.201,0,227.216,0,202.582c0-20.17,6.331-39.549,18.364-56.431
	c-3.926-8.086-6.037-17.512-6.037-27.242c0-28.53,17.197-50.881,39.153-50.881c10.897,0,20.921,5.601,28.165,15.371
	c12.429-5.854,26.024-8.908,39.833-8.908c13.819,0,27.414,3.054,39.843,8.908c7.244-9.77,17.278-15.371,28.155-15.371
	c19.764,0,35.673,18.11,38.646,42.542c0,0,118.219,0.041,118.696,0.112c22.808,1.075,50.283,10.998,75.901,27.526
	c32.416,20.9,55.001,48.974,60.936,74.592c0.152,0.213,0.274,0.436,0.406,0.659C498.394,214.108,511.493,228.119,511.493,245.266z
	 M491.201,245.266c0-5.408-3.348-9.943-7.833-11.191l-0.071,22.412C487.822,255.259,491.201,250.694,491.201,245.266z
	 M462.925,225.836c0.071-21.306-21.814-50.334-53.205-70.585c-23.498-15.158-48.233-24.046-67.855-24.391h-27.171
	c0.345,1.674,0.264,3.45-0.315,5.185c-14.823,44.591-12.895,92.875,5.428,135.954c9.05,21.286,21.773,40.573,37.408,57.06
	c15.635,16.477,34.181,30.153,54.889,40.249c3.602,1.562,6.128,5.144,6.128,9.324c0,5.6-4.535,10.146-10.146,10.146h-11.191
	c-8.725,0-15.828,7.092-15.828,15.828c0,8.725,7.102,15.828,15.828,15.828h54.138c6.453,0,11.708-5.256,11.708-11.708
	C462.742,408.725,462.925,226.455,462.925,225.836z M378.643,373.448c-1.035-0.68-2.049-1.38-3.074-2.09
	c-10.795,2.729-34.171,6.727-35.074,6.777c-10.521,1.471-21.083,2.415-31.635,2.841c-0.122,0.791-0.203,1.603-0.203,2.425
	c0,8.725,7.092,15.817,15.817,15.817h36.708C362.826,388.241,369.441,378.866,378.643,373.448z M338.181,357.966
	c0.375-0.051,11.942-1.806,16.862-2.78c-23.082-20.626-41.578-46.245-53.915-75.242c-20.099-47.249-22.341-100.139-6.382-149.083
	h-69.215c-0.994,5.408-2.648,10.582-4.931,15.29c12.043,16.893,18.364,36.261,18.364,56.431c0,19.602-6.179,38.788-17.613,55.335
	c-3.105,30.001-10.41,59.353-21.773,87.417c10.947,3.622,22.057,6.615,33.268,8.938
	C267.658,361.699,303.077,362.937,338.181,357.966z M218.673,202.582c0-17.704-6.25-34.719-18.07-49.207l-4.789-5.864l4.251-6.25
	c4.048-5.956,6.27-13.9,6.27-22.351c0-16.294-8.807-30.59-18.861-30.59c-5.732,0-11.546,4.931-15.168,12.855l-4.769,10.41
	l-9.76-5.986c-11.546-7.082-24.786-10.815-38.301-10.815c-13.504,0-26.744,3.734-38.29,10.815l-9.77,5.996l-4.758-10.43
	C63.036,93.24,57.223,88.32,51.48,88.32c-10.044,0-18.861,14.295-18.861,30.59c0,8.451,2.232,16.396,6.28,22.351l4.251,6.25
	l-4.789,5.864c-11.82,14.478-18.07,31.493-18.07,49.207c0,19.754,7.599,38.311,21.956,53.682
	c7.914,8.462,17.583,15.493,28.388,20.799c-4.454-5.56-7.133-12.601-7.133-20.251c0-5.042,4.089-9.131,9.131-9.131
	s9.131,4.089,9.131,9.131c0,7.812,6.361,14.164,14.164,14.164c7.812,0,14.164-6.351,14.164-14.164v-4.961
	c-1.694-0.913-3.297-2.07-4.728-3.51l-7.214-7.204c-3.571-3.571-3.571-9.354,0-12.916c3.561-3.571,9.344-3.571,12.916,0l7.204,7.214
	c0.67,0.659,1.755,0.659,2.425,0l7.204-7.214c3.571-3.571,9.354-3.571,12.916,0c3.571,3.561,3.571,9.344,0,12.916l-7.214,7.204
	c-1.573,1.573-3.348,2.821-5.245,3.754v4.718c0,7.812,6.361,14.164,14.164,14.164c7.812,0,14.164-6.351,14.164-14.164
	c0-5.042,4.089-9.131,9.131-9.131c5.042,0,9.131,4.089,9.131,9.131c0,7.843-2.79,15.036-7.447,20.647
	c11.14-5.337,21.114-12.52,29.22-21.195C211.084,240.903,218.673,222.336,218.673,202.582z M177.197,403.541
	c18.628-2.12,34.506-14.448,41.243-31.726c-16.355-3.967-32.497-9.263-48.203-15.838v16.964c0,9.446-1.887,18.455-5.266,26.694
	C167.457,404.19,176.659,403.602,177.197,403.541z M180.535,338.303c7.295-17.897,12.824-36.363,16.548-55.204
	c-14.58,11.029-32.041,18.861-50.75,22.666c-6.818,7.193-16.446,11.688-27.11,11.688c-3.084,0-6.088-0.375-8.959-1.086
	l-0.284,39.437c-0.081,15.513-7.356,29.981-19.47,38.656c-4.15,2.973-6.625,7.792-6.625,12.885c0,8.725,7.102,15.828,15.828,15.828
	c27.698,0,50.232-22.534,50.232-50.232v-32.578c0-5.6,4.535-10.146,10.146-10.146c1.562,0,3.044,0.365,4.363,0.994v-0.01
	C169.75,333.727,175.117,336.091,180.535,338.303z M119.224,299.191c7.467,0,13.92-4.312,17.065-10.562
	c-6.635-1.299-12.54-4.616-17.065-9.294c-4.515,4.677-10.43,7.995-17.055,9.294C105.304,294.879,111.767,299.191,119.224,299.191z"
	/>
<path style="fill:#FFFFFF;" d="M483.368,234.075c4.484,1.248,7.833,5.783,7.833,11.191c0,5.428-3.379,9.994-7.904,11.221
	L483.368,234.075z"/>
<path style="fill:#B2ABAC;" d="M409.72,155.252c31.391,20.251,53.276,49.278,53.205,70.585c0,0.619-0.183,182.889-0.183,182.889
	c0,6.453-5.256,11.708-11.708,11.708h-54.138c-8.725,0-15.828-7.102-15.828-15.828c0-8.736,7.102-15.828,15.828-15.828h11.191
	c5.611,0,10.146-4.545,10.146-10.146c0-4.18-2.526-7.762-6.128-9.324c-20.708-10.095-39.254-23.772-54.889-40.249
	c-15.635-16.487-28.358-35.774-37.408-57.06c-18.323-43.079-20.251-91.363-5.428-135.954c0.578-1.735,0.659-3.51,0.315-5.185h27.171
	C361.486,131.206,386.222,140.094,409.72,155.252z M390.473,307.145c4.139-3.764,4.444-10.186,0.67-14.326
	c-10.795-11.871-19.46-25.395-25.76-40.198c-5.347-12.561-8.847-25.801-10.41-39.356c-0.639-5.57-5.672-9.557-11.242-8.918
	c-5.56,0.639-9.557,5.672-8.918,11.242c1.796,15.493,5.793,30.62,11.891,44.977c7.193,16.903,17.096,32.355,29.433,45.91
	c2.009,2.202,4.748,3.318,7.508,3.318C386.08,309.793,388.525,308.921,390.473,307.145z"/>
<path style="fill:#663333;" d="M391.143,292.819c3.774,4.139,3.47,10.562-0.67,14.326c-1.948,1.776-4.393,2.648-6.828,2.648
	c-2.76,0-5.499-1.116-7.508-3.318c-12.337-13.555-22.24-29.007-29.433-45.91c-6.098-14.356-10.095-29.484-11.891-44.977
	c-0.639-5.57,3.358-10.602,8.918-11.242c5.57-0.639,10.602,3.348,11.242,8.918c1.562,13.555,5.063,26.795,10.41,39.356
	C371.683,267.424,380.348,280.949,391.143,292.819z"/>
<path style="fill:#B2ABAC;" d="M375.569,371.358c1.025,0.71,2.039,1.41,3.074,2.09c-9.202,5.418-15.817,14.793-17.461,25.77h-36.708
	c-8.725,0-15.817-7.092-15.817-15.817c0-0.822,0.081-1.633,0.203-2.425c10.552-0.426,21.114-1.37,31.635-2.841
	C341.398,378.085,364.774,374.087,375.569,371.358z"/>
<g>
	<path style="fill:#FFFFFF;" d="M355.044,355.186c-4.921,0.974-16.487,2.729-16.862,2.78c-35.105,4.971-70.524,3.734-105.334-3.693
		c-11.211-2.323-22.321-5.316-33.268-8.938c11.363-28.063,18.668-57.415,21.773-87.417c11.434-16.548,17.613-35.734,17.613-55.335
		c0-20.17-6.321-39.538-18.364-56.431c2.283-4.708,3.937-9.882,4.931-15.29h69.215c-15.959,48.944-13.717,101.834,6.382,149.083
		C313.466,308.941,331.962,334.559,355.044,355.186z"/>
	<path style="fill:#FFFFFF;" d="M200.604,153.375c11.82,14.488,18.07,31.503,18.07,49.207c0,19.754-7.589,38.321-21.956,53.682
		c-8.107,8.675-18.08,15.858-29.22,21.195c4.657-5.611,7.447-12.804,7.447-20.647c0-5.042-4.089-9.131-9.131-9.131
		c-5.042,0-9.131,4.089-9.131,9.131c0,7.812-6.351,14.164-14.164,14.164c-7.802,0-14.164-6.351-14.164-14.164v-4.718
		c1.897-0.933,3.673-2.181,5.245-3.754l7.214-7.204c3.571-3.571,3.571-9.354,0-12.916c-3.561-3.571-9.344-3.571-12.916,0
		l-7.204,7.214c-0.67,0.659-1.755,0.659-2.425,0l-7.204-7.214c-3.571-3.571-9.354-3.571-12.916,0c-3.571,3.561-3.571,9.344,0,12.916
		l7.214,7.204c1.431,1.441,3.034,2.597,4.728,3.51v4.961c0,7.812-6.351,14.164-14.164,14.164c-7.802,0-14.164-6.351-14.164-14.164
		c0-5.042-4.089-9.131-9.131-9.131c-5.042,0-9.131,4.089-9.131,9.131c0,7.65,2.679,14.691,7.133,20.251
		c-10.805-5.306-20.474-12.337-28.388-20.799c-14.356-15.371-21.956-33.928-21.956-53.682c0-17.715,6.25-34.729,18.07-49.207
		l4.789-5.864l-4.251-6.25c-4.048-5.956-6.28-13.9-6.28-22.351c0-16.294,8.817-30.59,18.861-30.59
		c5.743,0,11.556,4.921,15.178,12.845l4.758,10.43l9.77-5.996c11.546-7.082,24.786-10.815,38.29-10.815
		c13.514,0,26.755,3.734,38.301,10.815l9.76,5.986l4.769-10.41c3.622-7.924,9.436-12.855,15.168-12.855
		c10.055,0,18.861,14.295,18.861,30.59c0,8.451-2.222,16.396-6.27,22.351l-4.251,6.25L200.604,153.375z M196.028,218.856
		c7.072-6.016,10.379-15.726,9.091-26.623c-1.157-9.71-5.783-19.744-13.027-28.256c-16.122-18.932-39.64-24.472-53.55-12.632
		c-7.072,6.016-10.379,15.726-9.091,26.633c1.146,9.699,5.773,19.734,13.027,28.246c10.399,12.205,23.873,18.851,35.866,18.851
		C184.938,225.075,191.087,223.067,196.028,218.856z M109.514,177.978c1.289-10.907-2.019-20.616-9.081-26.633
		c-13.91-11.84-37.438-6.301-53.56,12.632c-7.244,8.512-11.871,18.547-13.027,28.256c-1.289,10.897,2.029,20.606,9.091,26.623
		c4.941,4.211,11.089,6.219,17.694,6.219c11.982,0,25.456-6.646,35.855-18.851C103.741,197.712,108.368,187.678,109.514,177.978z"/>
</g>
<path style="fill:#663333;" d="M205.119,192.233c1.289,10.897-2.019,20.606-9.091,26.623c-4.941,4.211-11.089,6.219-17.684,6.219
	c-11.992,0-25.466-6.646-35.866-18.851c-7.254-8.512-11.881-18.547-13.027-28.246c-1.289-10.907,2.019-20.616,9.091-26.633
	c13.91-11.84,37.428-6.301,53.55,12.632C199.335,172.49,203.962,182.524,205.119,192.233z M184.188,204.956
	c3.196-2.729,3.125-7.802,2.79-10.582c-0.72-6.077-3.926-12.835-8.796-18.557c-5.996-7.041-15.168-12.469-22.006-12.469
	c-2.252,0-4.251,0.588-5.793,1.907c-3.196,2.719-3.125,7.792-2.79,10.572c0.71,6.077,3.916,12.845,8.786,18.557
	C164.363,203.759,177.948,210.263,184.188,204.956z"/>
<g>
	<path style="fill:#B2ABAC;" d="M218.44,371.815c-6.737,17.278-22.615,29.606-41.243,31.726c-0.538,0.061-9.74,0.649-12.226-3.906
		c3.379-8.238,5.266-17.248,5.266-26.694v-16.964C185.943,362.552,202.085,367.848,218.44,371.815z"/>
	<path style="fill:#B2ABAC;" d="M197.083,283.1c-3.724,18.841-9.253,37.306-16.548,55.204c-5.418-2.212-10.785-4.576-16.081-7.102
		v0.01c-1.319-0.629-2.8-0.994-4.363-0.994c-5.611,0-10.146,4.545-10.146,10.146v32.578c0,27.698-22.534,50.232-50.232,50.232
		c-8.725,0-15.828-7.102-15.828-15.828c0-5.093,2.476-9.912,6.625-12.885c12.114-8.675,19.389-23.143,19.47-38.656l0.284-39.437
		c2.871,0.71,5.874,1.086,8.959,1.086c10.663,0,20.292-4.495,27.11-11.688C165.042,301.961,182.503,294.128,197.083,283.1z"/>
	<path style="fill:#B2ABAC;" d="M186.978,194.374c0.335,2.78,0.406,7.853-2.79,10.582c-6.24,5.306-19.825-1.197-27.81-10.572
		c-4.87-5.712-8.076-12.479-8.786-18.557c-0.335-2.78-0.406-7.853,2.79-10.572c1.542-1.319,3.541-1.907,5.793-1.907
		c6.838,0,16.01,5.428,22.006,12.469C183.051,181.54,186.257,188.297,186.978,194.374z M173.707,181.377
		c0-5.601-4.545-10.146-10.146-10.146s-10.146,4.545-10.146,10.146c0,5.611,4.545,10.146,10.146,10.146
		C169.162,191.523,173.707,186.988,173.707,181.377z"/>
</g>
<path style="fill:#663333;" d="M163.561,171.231c5.601,0,10.146,4.545,10.146,10.146c0,5.611-4.545,10.146-10.146,10.146
	s-10.146-4.535-10.146-10.146C153.415,175.777,157.961,171.231,163.561,171.231z"/>
<path style="fill:#FFFFFF;" d="M136.289,288.629c-3.145,6.25-9.598,10.562-17.065,10.562c-7.457,0-13.92-4.312-17.055-10.562
	c6.625-1.299,12.54-4.616,17.055-9.294C123.749,284.013,129.654,287.33,136.289,288.629z"/>
<path style="fill:#663333;" d="M100.434,151.346c7.062,6.016,10.369,15.726,9.081,26.633c-1.146,9.699-5.773,19.734-13.027,28.246
	c-10.399,12.205-23.873,18.851-35.855,18.851c-6.605,0-12.753-2.009-17.694-6.219c-7.062-6.016-10.379-15.726-9.091-26.623
	c1.157-9.71,5.783-19.744,13.027-28.256C62.996,145.045,86.524,139.505,100.434,151.346z M91.384,175.827
	c0.325-2.78,0.396-7.853-2.8-10.572c-1.542-1.319-3.541-1.907-5.793-1.907c-6.838,0-16.01,5.428-22.006,12.469
	c-4.87,5.722-8.076,12.479-8.796,18.557c-0.335,2.78-0.406,7.853,2.79,10.582c6.24,5.306,19.825-1.197,27.81-10.572
	C87.457,188.672,90.663,181.905,91.384,175.827z"/>
<path style="fill:#B2ABAC;" d="M88.583,165.256c3.196,2.719,3.125,7.792,2.8,10.572c-0.72,6.077-3.926,12.845-8.796,18.557
	c-7.985,9.375-21.57,15.878-27.81,10.572c-3.196-2.729-3.125-7.802-2.79-10.582c0.72-6.077,3.926-12.835,8.796-18.557
	c5.996-7.041,15.168-12.469,22.006-12.469C85.042,163.348,87.041,163.937,88.583,165.256z M85.55,181.377
	c0-5.601-4.545-10.146-10.146-10.146s-10.146,4.545-10.146,10.146c0,5.611,4.545,10.146,10.146,10.146S85.55,186.988,85.55,181.377z
	"/>
<path style="fill:#663333;" d="M75.404,171.231c5.601,0,10.146,4.545,10.146,10.146c0,5.611-4.545,10.146-10.146,10.146
	s-10.146-4.535-10.146-10.146C65.258,175.777,69.803,171.231,75.404,171.231z"/>
<g>
</g>
<g>
</g>
<g>
</g>
<g>
</g>
<g>
</g>
<g>
</g>
<g>
</g>
<g>
</g>
<g>
</g>
<g>
</g>
<g>
</g>
<g>
</g>
<g>
</g>
<g>
</g>
<g>
</g>
</svg>
