<?xml version="1.0" encoding="iso-8859-1"?>
<!-- Generator: Adobe Illustrator 19.0.0, SVG Export Plug-In . SVG Version: 6.00 Build 0)  -->
<svg version="1.1" id="Layer_1" xmlns="http://www.w3.org/2000/svg" xmlns:xlink="http://www.w3.org/1999/xlink" x="0px" y="0px"
	 viewBox="0 0 511.466 511.466" style="enable-background:new 0 0 511.466 511.466;" xml:space="preserve">
<path style="fill:#663333;" d="M418.636,474.856c5.897,0,10.683,4.786,10.683,10.683s-4.786,10.683-10.683,10.683
	c-3.91,0-7.745-0.299-11.495-0.865l-0.043,0.363c-21.932-1.88-42.369-9.081-60.017-20.287h-17.873
	c-4.839,20.629-23.385,36.034-45.478,36.034H175.534c-14.54,0-26.376-11.826-26.376-26.366v-4.668
	c0-12.809,9.198-23.524,21.334-25.885c-0.897-0.823-1.795-1.667-2.66-2.532c-0.011,0-0.011-0.011-0.011-0.011
	c-35.788-35.799-55.498-83.359-55.498-133.911c0-50.563,19.71-98.123,55.509-133.922c11.003-10.993,17.061-25.607,17.061-41.14
	s-6.057-30.137-17.061-41.14c-0.032-0.032-0.053-0.064-0.085-0.096c-0.021-0.032-0.053-0.053-0.085-0.085
	c-1.293-1.335-10.854-7.371-11.196-7.564l-0.011,0.011c-13.29-6.794-28.171-10.384-43.063-10.384c-6.228,0-12.435,0.62-18.439,1.837
	c-3.675,0.748-7.478-0.491-10.01-3.258s-3.419-6.666-2.35-10.266C92.73,38.081,122.642,14.664,157.8,12.73
	c9.07-7.67,20.383-12.136,32.348-12.723c0.481-0.043,7.66,0.118,10.106,0.449c43.063,3.6,82.996,22.488,113.229,53.725
	c32.337,33.427,50.146,77.473,50.146,124.051v241.628C363.629,450.189,388.307,474.856,418.636,474.856z M348.641,450.359
	c-4.092-9.348-6.378-19.657-6.378-30.5v-28.652c-12.147-1.186-23.716-4.369-34.378-9.209
	C312.746,409.508,327.638,433.608,348.641,450.359z M342.263,369.713V178.231c0-41.001-15.672-79.781-44.131-109.191
	c-26.59-27.477-61.705-44.099-99.576-47.283c-0.053,0-0.107,0-0.16-0.011c-2.275-0.192-4.572-0.32-6.869-0.417
	c-8.279,0.32-16.057,3.696-21.922,9.529c-6.324,6.25-9.796,14.572-9.796,23.449c0,7.991,2.842,15.576,8.012,21.558
	c8.375,4.006,14.561,10.33,15.298,11.089c0.011,0.021,0.021,0.043,0.043,0.053c14.892,15.01,23.097,34.891,23.097,56.022
	c0,21.238-8.279,41.215-23.31,56.246c-31.771,31.771-49.259,73.969-49.259,118.816s17.477,87.024,49.227,118.784
	c0.011,0.011,0.021,0.021,0.032,0.032c10.993,10.993,25.586,17.082,41.108,17.157h97.173c-21.398-22.723-34.955-52.902-36.312-86.18
	c-25.073-20.031-41.172-50.851-41.172-85.357V176.127c0-5.908,4.786-10.683,10.683-10.683c5.897,0,10.683,4.775,10.683,10.683
	v106.403C265.111,327.345,298.858,364.436,342.263,369.713z M306.732,475.432H175.534c-2.756,0-5.01,2.243-5.01,5v4.668
	c0,2.756,2.254,5,5.01,5h108.197C293.901,490.1,302.693,484.086,306.732,475.432z M138.442,54.308
	c0-5.715,0.887-11.281,2.564-16.569c-12.67,4.626-23.481,13.279-30.767,24.71c9.85-0.267,19.742,0.769,29.357,3.002
	C138.838,61.819,138.442,58.09,138.442,54.308z"/>
<path style="fill:#FFFFFF;" d="M342.263,419.859c0,10.843,2.286,21.152,6.378,30.5c-21.003-16.751-35.895-40.852-40.756-68.361
	c10.662,4.839,22.231,8.023,34.378,9.209V419.859z"/>
<path style="fill:#B2ABAC;" d="M342.263,178.231v191.482c-43.405-5.277-77.153-42.369-77.153-87.184V176.127
	c0-5.908-4.786-10.683-10.683-10.683s-10.683,4.775-10.683,10.683v106.403c0,34.506,16.099,65.327,41.172,85.357
	c1.357,33.278,14.913,63.457,36.312,86.18h-97.173c-15.522-0.075-30.115-6.164-41.108-17.157c-0.011-0.011-0.021-0.021-0.032-0.032
	c-31.75-31.761-49.227-73.937-49.227-118.784s17.488-87.045,49.259-118.816c15.031-15.031,23.31-35.008,23.31-56.246
	c0-21.131-8.205-41.012-23.097-56.022c-0.021-0.011-0.032-0.032-0.043-0.053c-0.737-0.758-6.923-7.083-15.298-11.089
	c-5.171-5.982-8.012-13.567-8.012-21.558c0-8.878,3.472-17.2,9.796-23.449c5.865-5.833,13.642-9.209,21.922-9.529
	c2.297,0.096,4.594,0.224,6.869,0.417c0.053,0.011,0.107,0.011,0.16,0.011c37.871,3.184,72.986,19.806,99.576,47.283
	C326.591,98.451,342.263,137.23,342.263,178.231z M205.296,45.089c0-5.897-4.786-10.683-10.683-10.683s-10.683,4.786-10.683,10.683
	c0,5.908,4.786,10.683,10.683,10.683C200.51,55.772,205.296,50.997,205.296,45.089z M196.408,392.479
	c5.085-2.991,6.784-9.54,3.792-14.625c-2.404-4.092-4.583-8.375-6.474-12.723c-11.42-26.323-12.862-55.893-4.06-83.274
	c1.805-5.619-1.293-11.634-6.901-13.439c-5.63-1.805-11.634,1.282-13.439,6.901c-10.384,32.316-8.685,67.228,4.797,98.316
	c2.233,5.139,4.807,10.213,7.66,15.052c1.987,3.387,5.555,5.267,9.219,5.267C192.84,393.953,194.71,393.472,196.408,392.479z"/>
<path style="fill:#FFCC66;" d="M175.534,475.432h131.198c-4.038,8.653-12.83,14.668-23,14.668H175.534c-2.756,0-5.01-2.243-5.01-5
	v-4.668C170.523,477.676,172.777,475.432,175.534,475.432z"/>
<path style="fill:#663333;" d="M194.613,34.406c5.897,0,10.683,4.786,10.683,10.683c0,5.908-4.786,10.683-10.683,10.683
	s-10.683-4.775-10.683-10.683C183.93,39.192,188.716,34.406,194.613,34.406z"/>
<path style="fill:#B2ABAC;" d="M200.201,377.854c2.991,5.085,1.293,11.634-3.792,14.625c-1.699,0.994-3.568,1.474-5.406,1.474
	c-3.664,0-7.232-1.88-9.219-5.267c-2.852-4.839-5.427-9.914-7.66-15.052c-13.482-31.088-15.181-66-4.797-98.316
	c1.805-5.619,7.809-8.707,13.439-6.901c5.609,1.805,8.707,7.82,6.901,13.439c-8.803,27.381-7.361,56.951,4.06,83.274
	C195.618,369.478,197.797,373.762,200.201,377.854z"/>
<path style="fill:#FFCC66;" d="M141.006,37.739c-1.677,5.288-2.564,10.854-2.564,16.569c0,3.782,0.395,7.51,1.154,11.142
	c-9.615-2.233-19.507-3.269-29.357-3.002C117.525,51.018,128.336,42.365,141.006,37.739z"/>
<g>
</g>
<g>
</g>
<g>
</g>
<g>
</g>
<g>
</g>
<g>
</g>
<g>
</g>
<g>
</g>
<g>
</g>
<g>
</g>
<g>
</g>
<g>
</g>
<g>
</g>
<g>
</g>
<g>
</g>
</svg>
