<?xml version="1.0" encoding="iso-8859-1"?>
<!-- Generator: Adobe Illustrator 19.0.0, SVG Export Plug-In . SVG Version: 6.00 Build 0)  -->
<svg version="1.1" id="Layer_1" xmlns="http://www.w3.org/2000/svg" xmlns:xlink="http://www.w3.org/1999/xlink" x="0px" y="0px"
	 viewBox="0 0 511.465 511.465" style="enable-background:new 0 0 511.465 511.465;" xml:space="preserve">
<path style="fill:#663333;" d="M509.134,68.713c6.361,23.841-0.513,49.479-17.94,66.905c-5.26,5.271-11.215,9.579-17.769,12.872
	v59.657c0,43.427-27.829,80.472-66.584,94.253c-3.763,5.271-7.976,10.253-12.562,14.839c-2.994,2.993-6.126,5.795-9.376,8.414v94.98
	c0,5.688-4.597,10.296-10.285,10.296h-34.062v11.151c0,5.688-4.608,10.296-10.285,10.296h-49.275
	c-5.688,0-10.296-4.608-10.296-10.296v-94.242h-71.941v72.796c0,5.688-4.608,10.296-10.285,10.296h-34.062v11.151
	c0,5.688-4.608,10.296-10.296,10.296H94.841c-5.677,0-10.285-4.608-10.285-10.296V327.727
	c-28.813-20.441-45.865-53.221-45.865-88.79c0-8.649,1.005-17.127,2.951-25.327c-1.946,0.267-3.924,0.428-5.923,0.428
	C16.026,214.038,0,198.012,0,178.308c0-16.892,13.727-30.641,30.63-30.641c3.186,0,6.318,0.567,9.301,1.679
	c5.324,1.989,8.029,7.911,6.051,13.236c-1.989,5.324-7.911,8.029-13.236,6.051c-0.684-0.246-1.401-0.385-2.117-0.385
	c-5.549,0-10.06,4.522-10.06,10.06c0,8.36,6.8,15.149,15.149,15.149c7.152,0,13.749-3.517,17.769-9.408
	c4.672-7.986,10.392-15.417,17.117-22.131c20.57-20.58,47.918-31.902,77.008-31.902h103.041
	c-13.685-17.063-18.635-39.899-12.926-61.303c0.952-3.56,3.731-6.34,7.281-7.291c23.841-6.361,49.489,0.513,66.916,17.94
	c5.763,5.763,10.445,12.498,13.856,19.843c15.32-5.527,31.304-8.35,47.629-8.382c0,0,0.011,0,0.021,0h0.011
	c16.336,0.032,32.309,2.844,47.64,8.382c3.41-7.345,8.093-14.07,13.856-19.843c17.427-17.427,43.064-24.301,66.905-17.94
	C505.402,62.373,508.182,65.153,509.134,68.713z M476.643,121.067c10.787-10.777,15.823-26.033,13.824-40.968
	c-14.946-1.999-30.192,3.036-40.979,13.813c-5.966,5.976-10.296,13.407-12.519,21.5c-1.497,5.485-7.163,8.703-12.637,7.206
	c-0.513-0.139-0.994-0.331-1.465-0.535l-0.021,0.011c-15.727-7.056-32.351-10.659-49.414-10.691
	c-17.063,0.032-33.688,3.635-49.404,10.691l-0.011-0.021c-0.481,0.214-0.973,0.396-1.486,0.545
	c-5.485,1.507-11.14-1.721-12.648-7.206c-2.213-8.093-6.543-15.534-12.509-21.5c-10.787-10.777-26.044-15.812-40.979-13.813
	c-1.999,14.936,3.036,30.192,13.824,40.968c4.918,4.918,10.691,8.66,17.149,11.108c3.998,1.507,6.639,5.346,6.639,9.622v66.349
	c0,43.791,35.634,79.425,79.425,79.425s79.414-35.634,79.414-79.425v-66.349c0-4.276,2.651-8.115,6.65-9.622
	c1.39-0.524,2.737-1.112,4.063-1.753C468.39,128.07,472.784,124.927,476.643,121.067z M373.794,308.141h-0.363
	c-55.134,0-99.994-44.86-99.994-99.994v-57.55H147.613c-23.595,0-45.779,9.184-62.468,25.873
	c-16.689,16.678-25.873,38.862-25.873,62.468c0,30.406,15.363,58.31,41.086,74.624c0.043,0.032,0.086,0.064,0.128,0.096
	c2.801,1.839,4.651,5.003,4.651,8.596v76.837h28.695v-61.538c0-2.833,1.155-5.41,3.015-7.27c1.86-1.86,4.426-3.015,7.27-3.015
	h136.879c5.688,0,10.285,4.608,10.285,10.285v61.538h28.695v-59.421c0-5.688,4.608-10.296,10.296-10.296
	c0.107,0,0.225,0.021,0.331,0.021C330.602,329.395,360.976,322.264,373.794,308.141z M364.333,410.348v-12.124h-23.777v12.124
	H364.333z M364.333,377.644v-38.67c-7.548,3.827-15.502,6.832-23.777,8.948v29.721L364.333,377.644L364.333,377.644z
	 M319.975,431.795v-12.124H291.28v12.124H319.975z M178.179,410.348v-12.124h-23.766v12.124H178.179z M178.179,377.644v-29.807
	h-23.766v29.807H178.179z M133.832,431.795v-12.124h-28.695v12.124H133.832z"/>
<path style="fill:#F9DCB2;" d="M490.467,80.099c1.999,14.936-3.036,30.192-13.824,40.968c-3.859,3.86-8.254,7.003-13.086,9.355
	c-1.326,0.641-2.673,1.229-4.063,1.753c-3.998,1.507-6.65,5.346-6.65,9.622v66.349c0,43.791-35.623,79.424-79.414,79.424
	s-79.425-35.634-79.425-79.425v-66.349c0-4.276-2.641-8.115-6.639-9.622c-6.457-2.448-12.231-6.19-17.149-11.108
	c-10.787-10.777-15.823-26.033-13.824-40.968c14.936-1.999,30.192,3.036,40.979,13.813c5.966,5.966,10.296,13.407,12.509,21.5
	c1.507,5.485,7.163,8.713,12.648,7.206c0.513-0.15,1.005-0.331,1.486-0.545l0.011,0.021c15.716-7.056,32.341-10.659,49.404-10.691
	c17.063,0.032,33.688,3.635,49.414,10.691l0.021-0.011c0.47,0.203,0.952,0.396,1.465,0.535c5.474,1.497,11.14-1.721,12.637-7.206
	c2.224-8.093,6.554-15.524,12.519-21.5C460.275,83.135,475.521,78.1,490.467,80.099z M426.566,159.267
	c0-5.645-4.576-10.221-10.221-10.221s-10.221,4.576-10.221,10.221c0,5.645,4.576,10.221,10.221,10.221
	S426.566,164.912,426.566,159.267z M426.213,226.236c0-24.109-23.681-43.716-52.782-43.716s-52.782,19.608-52.782,43.716
	s23.681,43.727,52.782,43.727S426.213,250.345,426.213,226.236z M340.737,159.267c0-5.645-4.576-10.221-10.221-10.221
	s-10.221,4.576-10.221,10.221c0,5.645,4.576,10.221,10.221,10.221S340.737,164.912,340.737,159.267z"/>
<g>
	<circle style="fill:#663333;" cx="416.345" cy="159.266" r="10.221"/>
	<path style="fill:#663333;" d="M373.431,182.52c29.101,0,52.782,19.608,52.782,43.716s-23.681,43.727-52.782,43.727
		s-52.782-19.618-52.782-43.727S344.33,182.52,373.431,182.52z M407.696,226.236c0-13.898-15.374-25.199-34.265-25.199
		c-18.891,0-34.265,11.301-34.265,25.199c0,13.898,15.374,25.199,34.265,25.199S407.696,240.135,407.696,226.236z"/>
</g>
<path style="fill:#B88D5B;" d="M373.431,201.037c18.891,0,34.265,11.301,34.265,25.199c0,13.898-15.374,25.199-34.265,25.199
	c-18.891,0-34.265-11.301-34.265-25.199C339.166,212.338,354.54,201.037,373.431,201.037z M399.154,226.236
	c0-5.078-4.127-9.194-9.205-9.194c-5.078,0-9.194,4.116-9.194,9.194s4.116,9.194,9.194,9.194
	C395.027,235.431,399.154,231.315,399.154,226.236z M366.108,226.236c0-5.078-4.127-9.194-9.205-9.194
	c-5.078,0-9.194,4.116-9.194,9.194s4.116,9.194,9.194,9.194C361.981,235.431,366.108,231.315,366.108,226.236z"/>
<path style="fill:#663333;" d="M389.949,217.042c5.078,0,9.205,4.116,9.205,9.194s-4.127,9.194-9.205,9.194
	c-5.078,0-9.194-4.116-9.194-9.194S384.871,217.042,389.949,217.042z"/>
<path style="fill:#F9DCB2;" d="M373.431,308.141h0.363c-12.819,14.123-43.192,21.254-43.192,21.254
	c-0.107,0-0.225-0.021-0.331-0.021c-5.688,0-10.296,4.608-10.296,10.296v59.421H291.28v-61.538c0-5.677-4.597-10.285-10.285-10.285
	H144.117c-2.844,0-5.41,1.155-7.27,3.015c-1.86,1.86-3.015,4.437-3.015,7.27v61.538h-28.695v-76.837c0-3.592-1.85-6.757-4.651-8.596
	c-0.043-0.032-0.086-0.064-0.128-0.096c-25.723-16.315-41.086-44.219-41.086-74.624c0-23.606,9.184-45.79,25.873-62.468
	c16.689-16.689,38.873-25.873,62.468-25.873h125.824v57.55C273.437,263.281,318.297,308.141,373.431,308.141z M237.14,187.866
	c0-5.688-4.608-10.296-10.296-10.296h-91.527c-5.688,0-10.296,4.608-10.296,10.296c0,5.677,4.608,10.285,10.296,10.285h91.527
	C232.532,198.151,237.14,193.543,237.14,187.866z"/>
<rect x="340.556" y="398.224" style="fill:#B88D5B;" width="23.777" height="12.124"/>
<path style="fill:#F9DCB2;" d="M364.333,338.974v38.67h-23.777v-29.721C348.831,345.806,356.785,342.802,364.333,338.974z"/>
<g>
	<path style="fill:#663333;" d="M356.902,217.042c5.078,0,9.205,4.116,9.205,9.194s-4.127,9.194-9.205,9.194
		c-5.078,0-9.194-4.116-9.194-9.194S351.824,217.042,356.902,217.042z"/>
	<circle style="fill:#663333;" cx="330.517" cy="159.266" r="10.221"/>
</g>
<rect x="291.28" y="419.67" style="fill:#B88D5B;" width="28.695" height="12.124"/>
<path style="fill:#663333;" d="M226.845,177.57c5.688,0,10.296,4.608,10.296,10.296c0,5.677-4.608,10.285-10.296,10.285h-91.527
	c-5.688,0-10.296-4.608-10.296-10.285c0-5.688,4.608-10.296,10.296-10.296H226.845z"/>
<rect x="154.412" y="398.224" style="fill:#B88D5B;" width="23.766" height="12.124"/>
<rect x="154.412" y="347.836" style="fill:#F9DCB2;" width="23.766" height="29.807"/>
<rect x="105.137" y="419.67" style="fill:#B88D5B;" width="28.695" height="12.124"/>
<g>
</g>
<g>
</g>
<g>
</g>
<g>
</g>
<g>
</g>
<g>
</g>
<g>
</g>
<g>
</g>
<g>
</g>
<g>
</g>
<g>
</g>
<g>
</g>
<g>
</g>
<g>
</g>
<g>
</g>
</svg>
