<?xml version="1.0" encoding="iso-8859-1"?>
<!-- Generator: Adobe Illustrator 19.0.0, SVG Export Plug-In . SVG Version: 6.00 Build 0)  -->
<svg version="1.1" id="Layer_1" xmlns="http://www.w3.org/2000/svg" xmlns:xlink="http://www.w3.org/1999/xlink" x="0px" y="0px"
	 viewBox="0 0 511.459 511.459" style="enable-background:new 0 0 511.459 511.459;" xml:space="preserve">
<path style="fill:#663333;" d="M453.522,107.434c31.945,0,57.937,25.993,57.937,57.948s-25.993,57.948-57.937,57.948h-29.445
	c0.043,0.66,0.097,1.331,0.13,1.991c6.601,7.597,10.324,17.422,10.324,27.529c0,11.525-4.772,22.487-12.986,30.343
	c0.13,1.699,0.206,3.398,0.206,5.075c0,29.585-20.29,54.875-48.328,61.79v3.484c0,15.182-7.824,29.369-20.333,37.582v41.511
	c0,4.956-4.026,8.982-8.993,8.982h-62.093c-4.956,0-8.982-4.026-8.982-8.982v-41.511c-7.239-4.761-12.953-11.536-16.448-19.359
	c-8.884,4.166-18.58,6.341-28.612,6.341c-12.336,0-24.272-3.355-34.672-9.599c-3.279,9.187-9.49,17.195-17.747,22.617v41.511
	c0,4.956-4.026,8.982-8.982,8.982H104.35c-4.956,0-8.982-4.026-8.982-8.982v-41.511c-12.52-8.213-20.344-22.4-20.344-37.582v-15.658
	c-2.381-1.721-4.718-3.528-6.991-5.411c-30.419-5.118-52.992-31.566-52.992-62.753c0-6.471,0.963-12.802,2.857-18.894
	c-8.516-11.081-13.137-24.619-13.137-38.719c0-16.816,6.579-32.745,18.245-44.595C9.847,164.506,0,152.71,0,138.654
	c0-15.691,12.271-28.568,27.713-29.542c4.502-3.625,10.129-5.649,16.037-5.649c5.973,0,11.687,2.089,16.21,5.789
	c3.398-0.4,6.861-0.184,10.172,0.595c11.99-14.988,30.375-24.013,49.789-24.013c7.023,0,14.003,1.169,20.615,3.43
	c7.553-11.936,20.734-19.424,35.429-19.424c8.744,0,17.26,2.77,24.316,7.781c9.317-5.108,19.716-7.781,30.505-7.781
	c13.548,0,26.469,4.22,37.247,12.033c7.25-5.584,16.167-8.668,25.56-8.668c10.021,0,19.662,3.604,27.216,10.021
	c1.58-0.173,3.171-0.271,4.761-0.271c5.151,0,10.183,0.941,14.901,2.727c7.694-8.646,18.894-14.111,31.349-14.111
	c9.891,0,19.446,3.56,26.923,9.804c4.567-2.327,9.653-3.571,14.923-3.571c17.022,0,31.057,13.018,32.68,29.629L453.522,107.434
	L453.522,107.434z M491.494,165.382c0-20.95-17.033-37.983-37.972-37.983h-11.622c-5.735,9.62-16.243,16.08-28.233,16.08
	c-2.63,0-5.205-0.303-7.705-0.909c3.268,7.759,4.967,16.113,4.967,24.64c0,3.257-0.26,6.471-0.736,9.631
	c-0.022,0.195-1.796,8.679-3.257,12.564c3.171,4.09,5.313,8.863,6.276,13.96h40.309
	C474.461,203.365,491.494,186.322,491.494,165.382z M425.949,114.49c0.011-0.022,0.584-2.521,0.584-3.842
	c0-7.099-5.768-12.867-12.867-12.867c-3.441,0-6.677,1.331-9.101,3.766c-2.056,2.056-4.891,3.106-7.791,2.9
	c-2.9-0.216-5.551-1.677-7.283-4.004c-4.199-5.66-10.648-8.906-17.671-8.906c-12.098,0-21.946,9.826-22,21.913
	c0.011,0.184,0.022,0.325,0.022,0.465c0.065,5.043-3.625,9.339-8.625,10.031c-21.459,2.965-37.647,21.567-37.647,43.264
	c0,24.088,19.608,43.686,43.697,43.686c3.582,0,12.261-1.602,13.061-1.602c3.777,0,7.326,2.143,9.003,5.681
	c2.175,4.545,6.612,7.359,11.611,7.359c7.099,0,12.867-5.768,12.867-12.867c0-3.95-1.786-7.618-4.902-10.085
	c-3.733-2.954-4.859-8.127-2.705-12.369c3.16-6.179,4.751-12.845,4.751-19.803c0-8.441-2.413-16.643-7.001-23.72
	c-2.749-4.231-1.905-9.847,1.969-13.083c2.132-1.786,3.885-3.917,5.216-6.341c1.385-2.554,3.82-4.361,6.666-4.978
	c2.835-0.606,5.8,0.054,8.116,1.807c2.272,1.721,4.945,2.619,7.748,2.619C419.424,123.515,424.315,119.716,425.949,114.49z
	 M414.565,252.851c0-6.147-2.489-11.849-7.012-16.07c-1.374-1.288-2.337-2.933-2.814-4.718
	c-5.984,6.298-14.436,10.237-23.796,10.237c-9.869,0-19.165-4.534-25.322-11.979c-2.77,0.357-5.562,0.541-8.354,0.541
	c-35.104,0-63.662-28.557-63.662-63.651c0-28.893,19.706-54.009,46.975-61.433c0.13-0.725,0.292-1.439,0.465-2.153
	c-1.775-0.454-3.603-0.693-5.476-0.693s-3.744,0.227-5.562,0.703c-3.625,0.931-7.467-0.249-9.956-3.052
	c-4.177-4.707-10.172-7.413-16.459-7.413c-6.753,0-13.04,3.052-17.249,8.365c-1.753,2.218-4.383,3.593-7.218,3.766
	c-2.835,0.184-5.605-0.866-7.629-2.868c-8.235-8.138-19.143-12.628-30.711-12.628c-9.252,0-18.093,2.868-25.582,8.289
	c-4.069,2.954-9.718,2.402-13.148-1.277c-4.22-4.523-9.934-7.012-16.091-7.012c-9.674,0-18.115,6.201-20.993,15.42
	c-0.887,2.846-2.998,5.151-5.768,6.276c-2.759,1.125-5.876,0.952-8.506-0.465c-6.439-3.474-13.429-5.238-20.777-5.238
	c-15.312,0-29.705,8.192-37.561,21.372c-1.374,2.316-3.625,3.971-6.244,4.599c-2.619,0.628-5.378,0.173-7.651-1.266
	c-2.521-1.58-5.541-1.937-8.397-0.887c-4.285,1.569-9.09,0.043-11.665-3.723c-1.06-1.547-2.803-2.467-4.653-2.467
	c-1.688,0-3.333,0.703-4.35,2.078c-3.593,4.826-9.49,3.517-9.815,3.517c-5.302,0-9.62,4.318-9.62,9.631
	c0,5.313,4.318,9.631,9.62,9.631c1.374,0,2.705-0.303,3.961-0.887c3.874-1.807,8.473-0.941,11.427,2.143
	c2.965,3.084,3.625,7.716,1.656,11.514c-1.602,3.073-2.435,6.385-2.478,9.858c-0.032,2.922-1.353,5.692-3.604,7.564
	c-10.053,8.332-15.821,20.593-15.821,33.633c0,11.124,4.199,21.729,11.817,29.867c2.705,2.878,3.452,7.088,1.905,10.724
	c-2.283,5.378-3.441,11.114-3.441,17.022c0,22.13,16.546,40.775,38.481,43.372c2.002,0.238,3.885,1.071,5.4,2.392
	c3.387,2.954,6.991,5.735,10.702,8.246c8.819,5.973,18.396,10.616,28.503,13.808c10.735,3.398,34.433,5.118,34.433,5.118
	c1.407,0,5.519,1.461,6.255,1.688c5.238,1.667,10.724,1.331,15.626-0.833c1.266-0.563,2.651-0.855,4.047-0.855h10.226
	c2.532,0,4.956,0.952,6.807,2.673c8.863,8.257,20.398,12.812,32.475,12.812c10.15,0,19.835-3.149,28.006-9.112
	c1.58-1.147,3.084-2.381,4.469-3.679c1.85-1.731,4.296-2.694,6.828-2.694h26.729c12.412,0,24.597-2.045,36.208-6.082
	c4.047-1.407,8.029-3.052,11.839-4.902c2.024-0.985,4.329-1.255,6.525-0.758c4.87,1.082,9.815,1.331,14.685,0.747
	c21.978-2.586,38.535-21.242,38.535-43.393c0-2.467-0.227-5.01-0.671-7.532c-0.671-3.809,0.931-7.661,4.09-9.891
	C411.059,266.724,414.565,259.993,414.565,252.851z M340.212,377.816c16.351-8.008,15.236-25.95,15.236-25.95
	c-2.586-0.108-5.183-0.368-7.759-0.79c-1.721,0.779-3.463,1.515-5.227,2.229v0.238c0,9.512-3.03,18.743-8.581,26.382
	C336.056,379.493,338.177,378.8,340.212,377.816z M335.115,423.644v-25.701c-2.164,0.325-4.35,0.498-6.579,0.498
	c-2.164,0-4.307-0.173-6.406-0.465v25.668H335.115z M317.941,371.15c2.987-3.463,4.999-7.597,5.941-12.001
	c-9.75,2.283-19.76,3.474-29.888,3.474h-21.751c2.37,6.558,7.25,12.109,13.667,15.193c3.658,1.764,7.586,2.651,11.665,2.651
	c3.679,0,7.207-0.725,10.518-2.143C308.819,377.837,315.853,373.574,317.941,371.15z M303.993,423.644v-25.668
	c-2.11,0.292-4.242,0.465-6.417,0.465c-2.218,0-4.415-0.173-6.59-0.498v25.701H303.993z M162.666,377.816
	c5.952-2.868,10.54-7.824,13.072-13.721c-3.333,0.833-6.763,1.266-10.248,1.266c-0.747,0-1.504-0.022-2.251-0.065
	c-1.428,5.259-3.798,10.226-7.023,14.663C158.435,379.515,160.599,378.811,162.666,377.816z M157.58,423.644v-25.701
	c-2.164,0.325-4.361,0.498-6.579,0.498c-2.208,0-4.393-0.173-6.536-0.487v25.69L157.58,423.644L157.58,423.644z M140.298,371.139
	c2.218-2.565,3.896-5.519,4.999-8.668c-11.319-0.519-22.465-2.5-33.221-5.898c-6.569-2.078-12.942-4.686-19.078-7.77v4.74
	c0,10.291,5.984,19.814,15.247,24.272c3.668,1.764,7.597,2.651,11.676,2.651c3.917,0,11.849-2.759,11.979-2.814
	C135.115,376.052,137.939,373.866,140.298,371.139z M126.447,423.644v-25.69c-2.143,0.314-4.318,0.487-6.525,0.487
	c-2.229,0-4.415-0.173-6.579-0.498v25.701L126.447,423.644L126.447,423.644z"/>
<path style="fill:#F9DCB2;" d="M453.522,127.399c20.939,0,37.972,17.033,37.972,37.983c0,20.939-17.033,37.983-37.972,37.983
	h-40.309c-0.963-5.097-3.106-9.869-6.276-13.96c1.461-3.885,3.236-12.369,3.257-12.564c0.476-3.16,0.736-6.374,0.736-9.631
	c0-8.527-1.699-16.881-4.967-24.64c2.5,0.606,5.075,0.909,7.705,0.909c11.99,0,22.498-6.46,28.233-16.08
	C441.899,127.399,453.522,127.399,453.522,127.399z M442.852,160.816c0-6.298-5.108-11.417-11.417-11.417
	c-6.309,0-11.416,5.118-11.416,11.417c0,6.309,5.108,11.427,11.416,11.427C437.744,172.243,442.852,167.124,442.852,160.816z"/>
<path style="fill:#663333;" d="M431.435,149.399c6.309,0,11.417,5.118,11.417,11.417c0,6.309-5.108,11.427-11.417,11.427
	c-6.309,0-11.416-5.118-11.416-11.427C420.019,154.518,425.126,149.399,431.435,149.399z"/>
<g>
	<path style="fill:#FFFFFF;" d="M426.533,110.648c0,1.32-0.574,3.82-0.584,3.842c-1.634,5.227-6.525,9.025-12.282,9.025
		c-2.803,0-5.476-0.898-7.748-2.619c-2.316-1.753-5.281-2.413-8.116-1.807c-2.846,0.617-5.281,2.424-6.666,4.978
		c-1.331,2.424-3.084,4.556-5.216,6.341c-3.874,3.236-4.718,8.852-1.969,13.083c4.588,7.077,7.001,15.28,7.001,23.72
		c0,6.958-1.591,13.624-4.751,19.803c-2.153,4.242-1.028,9.415,2.705,12.369c3.117,2.467,4.902,6.136,4.902,10.085
		c0,7.099-5.768,12.867-12.867,12.867c-4.999,0-9.436-2.814-11.611-7.359c-1.677-3.539-5.227-5.681-9.003-5.681
		c-0.801,0-9.479,1.602-13.061,1.602c-24.088,0-43.697-19.597-43.697-43.686c0-21.697,16.189-40.299,37.647-43.264
		c4.999-0.693,8.69-4.989,8.625-10.031c0-0.141-0.011-0.281-0.022-0.465c0.054-12.087,9.901-21.913,22-21.913
		c7.023,0,13.473,3.246,17.671,8.906c1.731,2.327,4.383,3.787,7.283,4.004c2.9,0.206,5.735-0.844,7.791-2.9
		c2.424-2.435,5.66-3.766,9.101-3.766C420.765,97.781,426.533,103.549,426.533,110.648z"/>
	<path style="fill:#FFFFFF;" d="M407.553,236.781c4.523,4.22,7.012,9.923,7.012,16.07c0,7.142-3.506,13.873-9.36,17.996
		c-3.16,2.229-4.761,6.082-4.09,9.891c0.444,2.521,0.671,5.064,0.671,7.532c0,22.151-16.557,40.807-38.535,43.393
		c-4.87,0.584-9.815,0.335-14.685-0.747c-2.197-0.498-4.502-0.227-6.525,0.758c-3.809,1.85-7.791,3.495-11.839,4.902
		c-11.611,4.036-23.796,6.082-36.208,6.082h-26.729c-2.532,0-4.978,0.963-6.828,2.694c-1.385,1.299-2.889,2.532-4.469,3.679
		c-8.17,5.963-17.855,9.112-28.006,9.112c-12.077,0-23.612-4.556-32.475-12.812c-1.85-1.721-4.274-2.673-6.807-2.673h-10.226
		c-1.396,0-2.781,0.292-4.047,0.855c-4.902,2.164-10.388,2.5-15.626,0.833c-0.736-0.227-4.848-1.688-6.255-1.688
		c0,0-23.699-1.721-34.433-5.118c-10.107-3.192-19.684-7.835-28.503-13.808c-3.712-2.511-7.315-5.292-10.702-8.246
		c-1.515-1.32-3.398-2.153-5.4-2.392c-21.935-2.597-38.481-21.242-38.481-43.372c0-5.908,1.158-11.644,3.441-17.022
		c1.547-3.636,0.801-7.845-1.905-10.724c-7.618-8.138-11.817-18.743-11.817-29.867c0-13.04,5.768-25.3,15.821-33.633
		c2.251-1.872,3.571-4.642,3.604-7.564c0.043-3.474,0.877-6.785,2.478-9.858c1.969-3.798,1.309-8.43-1.656-11.514
		c-2.954-3.084-7.553-3.95-11.427-2.143c-1.255,0.584-2.586,0.887-3.961,0.887c-5.302,0-9.62-4.318-9.62-9.631
		c0-5.313,4.318-9.631,9.62-9.631c0.325,0,6.222,1.309,9.815-3.517c1.017-1.374,2.662-2.078,4.35-2.078
		c1.85,0,3.593,0.92,4.653,2.467c2.575,3.766,7.38,5.292,11.665,3.723c2.857-1.05,5.876-0.693,8.397,0.887
		c2.272,1.439,5.032,1.894,7.651,1.266c2.619-0.628,4.87-2.283,6.244-4.599c7.856-13.18,22.249-21.372,37.561-21.372
		c7.348,0,14.338,1.764,20.777,5.238c2.63,1.418,5.746,1.591,8.506,0.465c2.77-1.125,4.88-3.43,5.768-6.276
		c2.878-9.22,11.319-15.42,20.993-15.42c6.157,0,11.871,2.489,16.091,7.012c3.43,3.679,9.079,4.231,13.148,1.277
		c7.488-5.421,16.329-8.289,25.582-8.289c11.568,0,22.476,4.491,30.711,12.628c2.024,2.002,4.794,3.052,7.629,2.868
		c2.835-0.173,5.465-1.547,7.218-3.766c4.21-5.313,10.497-8.365,17.249-8.365c6.287,0,12.282,2.705,16.459,7.413
		c2.489,2.803,6.33,3.982,9.956,3.052c1.818-0.476,3.69-0.703,5.562-0.703s3.701,0.238,5.476,0.693
		c-0.173,0.714-0.335,1.428-0.465,2.153c-27.27,7.423-46.975,32.54-46.975,61.433c0,35.094,28.557,63.651,63.662,63.651
		c2.792,0,5.584-0.184,8.354-0.541c6.157,7.445,15.453,11.979,25.322,11.979c9.36,0,17.812-3.939,23.796-10.237
		C405.215,233.849,406.178,235.494,407.553,236.781z M330.148,280.857c1.277-4.794-1.569-9.718-6.363-11.005
		c-7.64-2.034-15.864,0.162-21.448,5.757c-5.595,5.595-7.802,13.808-5.746,21.448c1.071,4.015,4.707,6.655,8.668,6.655
		c0.779,0,1.558-0.097,2.337-0.303c4.794-1.288,7.64-6.211,6.352-11.005c-0.4-1.483,0.011-3.008,1.093-4.09
		c1.082-1.082,2.619-1.493,4.101-1.093C323.936,288.496,328.86,285.65,330.148,280.857z M241.121,133.557
		c1.288-4.794-1.558-9.718-6.352-11.005c-8.787-2.337-18.223,0.195-24.651,6.612c-6.428,6.428-8.949,15.875-6.601,24.651
		c1.082,4.015,4.707,6.655,8.679,6.655c0.768,0,1.558-0.097,2.337-0.314c4.794-1.288,7.629-6.211,6.341-11.005
		c-0.693-2.586,0.054-5.378,1.959-7.283c1.894-1.894,4.696-2.651,7.294-1.948C234.92,141.197,239.844,138.351,241.121,133.557z
		 M230.148,241.153c2.359-8.776-0.173-18.223-6.59-24.651c-6.428-6.417-15.864-8.949-24.651-6.612
		c-4.794,1.288-7.64,6.211-6.363,11.005c1.288,4.794,6.211,7.64,11.005,6.363c2.597-0.693,5.4,0.054,7.294,1.948
		c1.905,1.905,2.651,4.696,1.959,7.283c-1.288,4.794,1.547,9.718,6.341,11.005c0.779,0.216,1.569,0.314,2.337,0.314
		C225.441,247.808,229.077,245.157,230.148,241.153z M143.512,298.647c2.359-8.776-0.173-18.212-6.601-24.64
		s-15.864-8.96-24.64-6.612c-4.794,1.288-7.64,6.211-6.363,11.005c1.277,4.794,6.201,7.64,11.005,6.352
		c2.597-0.693,5.389,0.054,7.294,1.959c1.894,1.894,2.64,4.686,1.948,7.283c-1.288,4.794,1.558,9.718,6.352,11.005
		c0.779,0.206,1.558,0.314,2.327,0.314C138.805,305.313,142.43,302.662,143.512,298.647z M113.04,178.974
		c1.277-4.794-1.569-9.718-6.363-10.994c-7.64-2.045-15.864,0.162-21.448,5.746c-5.595,5.595-7.802,13.819-5.746,21.459
		c1.071,4.015,4.707,6.655,8.668,6.655c0.768,0,1.558-0.097,2.337-0.314c4.794-1.288,7.64-6.211,6.352-11.005
		c-0.4-1.472,0.011-3.008,1.093-4.09c1.082-1.082,2.619-1.493,4.101-1.093C106.828,186.614,111.752,183.768,113.04,178.974z"/>
	<path style="fill:#FFFFFF;" d="M355.448,351.866c0,0,1.115,17.942-15.236,25.95c-2.034,0.985-4.155,1.677-6.33,2.11
		c5.551-7.64,8.581-16.87,8.581-26.382v-0.238c1.764-0.714,3.506-1.45,5.227-2.229C350.264,351.498,352.862,351.758,355.448,351.866
		z"/>
</g>
<path style="fill:#F9DCB2;" d="M335.115,397.943v25.701h-12.986v-25.668c2.099,0.292,4.242,0.465,6.406,0.465
	C330.764,398.441,332.95,398.268,335.115,397.943z"/>
<path style="fill:#663333;" d="M323.785,269.851c4.794,1.288,7.64,6.211,6.363,11.005c-1.288,4.794-6.211,7.64-11.005,6.363
	c-1.483-0.4-3.019,0.011-4.101,1.093c-1.082,1.082-1.493,2.608-1.093,4.09c1.288,4.794-1.558,9.718-6.352,11.005
	c-0.779,0.206-1.558,0.303-2.337,0.303c-3.961,0-7.597-2.64-8.668-6.655c-2.056-7.64,0.151-15.853,5.746-21.448
	C307.921,270.014,316.145,267.817,323.785,269.851z"/>
<path style="fill:#FFFFFF;" d="M323.882,359.149c-0.941,4.404-2.954,8.538-5.941,12.001c-2.089,2.424-9.122,6.688-9.847,7.175
	c-3.311,1.418-6.839,2.143-10.518,2.143c-4.08,0-8.008-0.887-11.665-2.651c-6.417-3.084-11.297-8.635-13.667-15.193h21.751
	C304.122,362.622,314.132,361.432,323.882,359.149z"/>
<path style="fill:#F9DCB2;" d="M303.993,397.976v25.668h-13.007v-25.701c2.175,0.325,4.372,0.498,6.59,0.498
	C299.751,398.441,301.882,398.268,303.993,397.976z"/>
<g>
	<path style="fill:#663333;" d="M234.769,122.551c4.794,1.288,7.64,6.211,6.352,11.005c-1.277,4.794-6.201,7.64-10.994,6.363
		c-2.597-0.703-5.4,0.054-7.294,1.948c-1.905,1.905-2.651,4.696-1.959,7.283c1.288,4.794-1.547,9.718-6.341,11.005
		c-0.779,0.216-1.569,0.314-2.337,0.314c-3.971,0-7.597-2.64-8.679-6.655c-2.348-8.776,0.173-18.223,6.601-24.651
		C216.545,122.746,225.982,120.214,234.769,122.551z"/>
	<path style="fill:#663333;" d="M223.558,216.502c6.417,6.428,8.949,15.875,6.59,24.651c-1.071,4.004-4.707,6.655-8.668,6.655
		c-0.768,0-1.558-0.097-2.337-0.314c-4.794-1.288-7.629-6.211-6.341-11.005c0.693-2.586-0.054-5.378-1.959-7.283
		c-1.894-1.894-4.696-2.64-7.294-1.948c-4.794,1.277-9.718-1.569-11.005-6.363c-1.277-4.794,1.569-9.718,6.363-11.005
		C207.694,207.553,217.13,210.085,223.558,216.502z"/>
</g>
<path style="fill:#FFFFFF;" d="M175.738,364.094c-2.532,5.898-7.12,10.854-13.072,13.721c-2.067,0.996-4.231,1.699-6.45,2.143
	c3.225-4.437,5.595-9.404,7.023-14.663c0.747,0.043,1.504,0.065,2.251,0.065C168.975,365.36,172.405,364.927,175.738,364.094z"/>
<path style="fill:#F9DCB2;" d="M157.58,397.943v25.701h-13.115v-25.69c2.143,0.314,4.329,0.487,6.536,0.487
	C153.219,398.441,155.416,398.268,157.58,397.943z"/>
<path style="fill:#663333;" d="M136.911,274.007c6.428,6.428,8.96,15.864,6.601,24.64c-1.082,4.015-4.707,6.666-8.679,6.666
	c-0.768,0-1.547-0.108-2.327-0.314c-4.794-1.288-7.64-6.211-6.352-11.005c0.693-2.597-0.054-5.389-1.948-7.283
	c-1.905-1.905-4.696-2.651-7.294-1.959c-4.805,1.288-9.728-1.558-11.005-6.352c-1.277-4.794,1.569-9.718,6.363-11.005
	C121.047,265.047,130.483,267.579,136.911,274.007z"/>
<path style="fill:#FFFFFF;" d="M145.298,362.471c-1.104,3.149-2.781,6.103-4.999,8.668c-2.359,2.727-5.183,4.913-8.397,6.514
	c-0.13,0.054-8.062,2.814-11.979,2.814c-4.08,0-8.008-0.887-11.676-2.651c-9.263-4.458-15.247-13.981-15.247-24.272v-4.74
	c6.136,3.084,12.509,5.692,19.078,7.77C122.833,359.971,133.979,361.952,145.298,362.471z"/>
<path style="fill:#F9DCB2;" d="M126.447,397.954v25.69h-13.105v-25.701c2.164,0.325,4.35,0.498,6.579,0.498
	C122.129,398.441,124.305,398.268,126.447,397.954z"/>
<path style="fill:#663333;" d="M106.677,167.979c4.794,1.277,7.64,6.201,6.363,10.994c-1.288,4.794-6.211,7.64-11.005,6.363
	c-1.483-0.4-3.019,0.011-4.101,1.093c-1.082,1.082-1.493,2.619-1.093,4.09c1.288,4.794-1.558,9.718-6.352,11.005
	c-0.779,0.216-1.569,0.314-2.337,0.314c-3.961,0-7.597-2.64-8.668-6.655c-2.056-7.64,0.151-15.864,5.746-21.459
	C90.813,168.142,99.037,165.934,106.677,167.979z"/>
<g>
</g>
<g>
</g>
<g>
</g>
<g>
</g>
<g>
</g>
<g>
</g>
<g>
</g>
<g>
</g>
<g>
</g>
<g>
</g>
<g>
</g>
<g>
</g>
<g>
</g>
<g>
</g>
<g>
</g>
</svg>
