<?xml version="1.0" encoding="iso-8859-1"?>
<!-- Generator: Adobe Illustrator 19.0.0, SVG Export Plug-In . SVG Version: 6.00 Build 0)  -->
<svg version="1.1" id="Layer_1" xmlns="http://www.w3.org/2000/svg" xmlns:xlink="http://www.w3.org/1999/xlink" x="0px" y="0px"
	 viewBox="0 0 511.42 511.42" style="enable-background:new 0 0 511.42 511.42;" xml:space="preserve">
<path style="fill:#663333;" d="M511.42,246.737c0,18.701-11.988,34.365-28.858,39.733c-1.936,17.067-16.452,30.365-34.029,30.365
	h-93.727c10.922,17.623,17.229,38.388,17.229,60.603c0,16.348-3.409,32.278-9.971,46.968h45.24
	c18.852,0,34.191,15.339,34.191,34.191c0,18.864-15.339,34.203-34.191,34.203H256.673c-2.133,0-4.267-0.081-6.388-0.197v0.023
	c-114.377,0-207.42-92.881-207.42-207.257V148.175c-0.012-0.162-0.012-0.336-0.012-0.51c0-17.414-14.145-31.919-31.525-32.313
	c-4.661-0.104-8.8-3.003-10.516-7.339c-1.716-4.336-0.661-9.275,2.667-12.545C17.16,82.077,35.27,74.703,54.459,74.703
	c42.701,0,83.71,12.881,118.608,37.24c29.275,20.441,52.487,47.675,67.919,79.42l47.385-47.385v-11.954
	c0-2.365,0.151-4.73,0.464-7.072c-17.484-15.838-27.722-38.643-27.722-62.353c0-6.62,0.8-13.275,2.365-19.768
	c1.507-6.214,7.757-10.041,13.983-8.545c4.835,1.159,9.588,2.759,14.122,4.742c4.452,1.959,8.672,4.29,12.672,6.933
	c3.014-8.197,7.293-15.919,12.742-22.887c1.901-2.435,4.696-4,7.745-4.371c3.061-0.371,6.145,0.499,8.568,2.4
	c3.919,3.096,7.571,6.504,10.829,10.145c12.881,14.377,20.278,32.417,21.287,51.513c0.046,0.023,0.093,0.046,0.139,0.058
	c33.496,15.536,60.487,42.527,76.035,76.011c7.861,16.951,6.551,36.44-3.478,52.174c-8.754,13.704-22.922,22.585-38.783,24.591
	c2.632,3.896,4.742,8.162,6.249,12.742h22.435c-0.023-0.522-0.035-1.055-0.035-1.6c0-22.991,30.806-37.936,36.974-40.707
	c3.014-1.345,6.47-1.345,9.484,0C480.614,208.801,511.42,223.746,511.42,246.737z M477.101,263.7
	c6.528-2.875,11.13-9.449,11.13-16.962c0-3.687-7.78-11.397-18.504-17.183c-10.052,5.484-18.551,13.159-18.551,17.183
	c0,0.58,0.046,1.148,0.093,1.716c8.104,0.649,15.641,4.093,21.472,9.901C474.388,260.001,475.837,261.798,477.101,263.7z
	 M459.594,282.587c0-0.951,0-4.881-3.258-7.838c-2.168-1.959-4.846-3.223-7.803-3.223h-52.185c-5.867,0-10.806-4.383-11.513-10.203
	c-1.67-13.925-13.519-24.8-27.548-25.299h-0.162v-0.012c-6.133-0.301-11.026-5.357-11.026-11.571c0-6.4,5.194-11.594,11.594-11.594
	h34.713c10.817,0,20.348-5.217,26.168-14.33c5.751-9.009,6.504-20.197,1.994-29.925c-13.241-28.51-36.232-51.501-64.742-64.73
	c-1.635-0.754-3.328-1.38-5.009-1.832c-6.667-1.832-13.577-1.391-20,1.264c-2.957,1.229-6.296,1.171-9.206-0.139
	c-2.922-1.322-5.159-3.78-6.203-6.806c-2.759-8.035-7.061-15.281-12.8-21.542c-5.229-5.693-11.385-10.261-18.296-13.6
	c-0.012,0.464-0.012,0.928-0.012,1.391c0,18.968,9.055,37.136,24.232,48.603c3.791,2.864,5.449,7.757,4.185,12.336
	c-0.765,2.771-1.159,5.623-1.159,8.487v16.754c0,3.084-1.217,6.029-3.397,8.197L199.908,265.23
	c-40.684,40.696-50.4,103.408-24.162,156.058c0.197,0.406,0.371,0.812,0.51,1.217c16.336,29.078,47.072,47.107,80.417,47.107
	h150.632c6.064,0,11.003-4.939,11.003-11.014c0-6.064-4.939-11.003-11.003-11.003h-64.962c-4.301,0-8.255-2.388-10.261-6.191
	s-1.739-8.406,0.696-11.954c10.516-15.362,16.07-33.345,16.07-52.012c0-50.829-41.345-92.174-92.174-92.174
	c-6.4,0-11.594-5.194-11.594-11.594c0-6.412,5.194-11.594,11.594-11.594c30.655,0,58.539,12.012,79.223,31.571h112.637
	C454.632,293.648,459.594,288.685,459.594,282.587z M341.612,77.729c-1.693-10.748-6.214-20.812-13.252-29.287
	c-2.307,4.765-3.965,9.809-4.962,15.014c3.768,4.707,7.003,9.762,9.67,15.13C335.896,78.065,338.748,77.787,341.612,77.729z
	 M183.513,248.836l40.011-40.011c-13.577-31.327-35.49-58.145-63.733-77.867c-30.98-21.635-67.409-33.067-105.333-33.067
	c-5.194,0-10.261,0.788-15.072,2.319c3.907,2.377,7.548,5.275,10.829,8.626c10.075,10.296,15.675,23.861,15.826,38.249
	c0.012,0.197,0.012,0.383,0.012,0.58v137.704c0,71.443,40.881,133.519,100.475,164.069c-4.07-5.09-11.583-17.693-11.803-18.365
	C124.383,369.601,135.908,296.442,183.513,248.836z"/>
<path style="fill:#CA5F38;" d="M488.232,246.737c0,7.513-4.603,14.087-11.13,16.962c-1.264-1.901-2.713-3.699-4.359-5.345
	c-5.832-5.809-13.368-9.252-21.472-9.901c-0.046-0.568-0.093-1.136-0.093-1.716c0-4.023,8.499-11.699,18.551-17.183
	C480.452,235.34,488.232,243.051,488.232,246.737z"/>
<path style="fill:#B88D5B;" d="M456.336,274.749c3.258,2.957,3.258,6.887,3.258,7.838c0,6.099-4.962,11.061-11.061,11.061H335.896
	c-20.684-19.559-48.568-31.571-79.223-31.571c-6.4,0-11.594,5.183-11.594,11.594c0,6.4,5.194,11.594,11.594,11.594
	c50.829,0,92.174,41.345,92.174,92.174c0,18.667-5.554,36.649-16.07,52.011c-2.435,3.548-2.701,8.151-0.696,11.954
	c2.006,3.803,5.959,6.191,10.261,6.191h64.962c6.064,0,11.003,4.939,11.003,11.003c0,6.075-4.939,11.014-11.003,11.014H256.673
	c-33.345,0-64.081-18.029-80.417-47.107c-0.139-0.406-0.313-0.812-0.51-1.217c-26.238-52.649-16.522-115.362,24.162-156.058
	l108.255-108.255c2.18-2.168,3.397-5.113,3.397-8.197v-16.754c0-2.864,0.394-5.716,1.159-8.487c1.264-4.58-0.394-9.472-4.185-12.336
	c-15.177-11.467-24.232-29.635-24.232-48.603c0-0.464,0-0.928,0.012-1.391c6.91,3.339,13.067,7.907,18.296,13.6
	c5.739,6.261,10.041,13.507,12.8,21.542c1.043,3.026,3.281,5.484,6.203,6.806c2.91,1.31,6.249,1.368,9.206,0.139
	c6.423-2.655,13.333-3.096,20-1.264c1.681,0.452,3.374,1.078,5.009,1.832c28.51,13.229,51.501,36.22,64.742,64.73
	c4.51,9.728,3.757,20.916-1.994,29.925c-5.82,9.113-15.351,14.33-26.168,14.33h-34.713c-6.4,0-11.594,5.194-11.594,11.594
	c0,6.214,4.893,11.27,11.026,11.571v0.012h0.162c14.029,0.499,25.878,11.374,27.548,25.298c0.707,5.82,5.646,10.203,11.513,10.203
	h52.185C451.49,271.526,454.168,272.79,456.336,274.749z M370.806,150.807c0-6.4-5.194-11.594-11.594-11.594
	s-11.594,5.194-11.594,11.594c0,6.412,5.194,11.594,11.594,11.594S370.806,157.219,370.806,150.807z M219.513,416.186
	c5.646-3.026,7.757-10.064,4.719-15.699c-12.487-23.235-12.997-51.246-1.38-74.945c2.817-5.751,0.441-12.696-5.299-15.513
	c-5.751-2.817-12.696-0.452-15.525,5.299c-14.899,30.4-14.238,66.342,1.785,96.139c2.087,3.896,6.087,6.11,10.226,6.11
	C215.884,417.578,217.774,417.126,219.513,416.186z"/>
<path style="fill:#663333;" d="M359.212,139.213c6.4,0,11.594,5.194,11.594,11.594c0,6.412-5.194,11.594-11.594,11.594
	s-11.594-5.183-11.594-11.594C347.617,144.407,352.812,139.213,359.212,139.213z"/>
<path style="fill:#B88D5B;" d="M328.359,48.442c7.038,8.475,11.559,18.539,13.252,29.287c-2.864,0.058-5.716,0.336-8.545,0.858
	c-2.667-5.368-5.901-10.423-9.67-15.13C324.394,58.251,326.052,53.208,328.359,48.442z"/>
<path style="fill:#663333;" d="M224.232,400.488c3.038,5.635,0.928,12.672-4.719,15.699c-1.739,0.939-3.629,1.391-5.472,1.391
	c-4.139,0-8.139-2.214-10.226-6.11c-16.023-29.797-16.684-65.739-1.785-96.139c2.829-5.751,9.774-8.116,15.525-5.299
	c5.739,2.817,8.116,9.762,5.299,15.513C211.235,349.242,211.745,377.253,224.232,400.488z"/>
<path style="fill:#B88D5B;" d="M223.525,208.825l-40.011,40.011c-47.606,47.606-59.13,120.765-28.788,182.237
	c0.22,0.672,7.733,13.275,11.803,18.365c-59.594-30.551-100.475-92.626-100.475-164.069V147.665c0-0.197,0-0.383-0.012-0.58
	c-0.151-14.388-5.751-27.954-15.826-38.249c-3.281-3.351-6.922-6.249-10.829-8.626c4.812-1.53,9.878-2.319,15.072-2.319
	c37.925,0,74.353,11.432,105.333,33.067C188.035,150.68,209.948,177.497,223.525,208.825z"/>
<g>
</g>
<g>
</g>
<g>
</g>
<g>
</g>
<g>
</g>
<g>
</g>
<g>
</g>
<g>
</g>
<g>
</g>
<g>
</g>
<g>
</g>
<g>
</g>
<g>
</g>
<g>
</g>
<g>
</g>
</svg>
