<?xml version="1.0" encoding="iso-8859-1"?>
<!-- Generator: Adobe Illustrator 19.0.0, SVG Export Plug-In . SVG Version: 6.00 Build 0)  -->
<svg version="1.1" id="Layer_1" xmlns="http://www.w3.org/2000/svg" xmlns:xlink="http://www.w3.org/1999/xlink" x="0px" y="0px"
	 viewBox="0 0 511.461 511.461" style="enable-background:new 0 0 511.461 511.461;" xml:space="preserve">
<path style="fill:#663333;" d="M500.677,111.201c5.953,0,10.784,4.831,10.784,10.784c0,40.667-11.291,80.342-32.665,114.722
	c-19.444,31.296-46.21,56.919-78.013,74.864c11.55,10.267,21.536,22.108,29.764,35.361c15.788,25.408,24.135,54.719,24.135,84.785
	c0,5.953-4.831,10.784-10.784,10.784h-87.19c-27.855,0-52.152-15.551-64.662-38.413c-8.67,28.341-20.867,42.705-36.3,42.705
	s-27.629-14.375-36.3-42.738c-12.51,22.884-36.817,38.446-64.683,38.446h-87.19c-5.953,0-10.784-4.831-10.784-10.784
	c0-30.066,8.347-59.378,24.135-84.785c8.228-13.254,18.204-25.084,29.754-35.35c-31.824-17.956-58.59-43.579-78.023-74.874
	C11.291,202.338,0,162.663,0,121.985c0-5.953,4.831-10.784,10.784-10.784h120.19c42.824,0,79.285,27.769,92.323,66.236
	c5.77-15.971,12.747-26.486,20.878-31.457c-3.721-33.56-32.234-59.744-66.765-59.744c-5.953,0-10.784-4.831-10.784-10.784
	s4.831-10.784,10.784-10.784c33.603,0,62.904,18.775,77.97,46.383c15.065-27.607,44.366-46.383,77.97-46.383
	c5.953,0,10.784,4.831,10.784,10.784c0,5.953-4.831,10.784-10.784,10.784c-34.391,0-62.818,25.979-66.711,59.345
	c8.412,4.777,15.615,15.411,21.536,31.792c13.07-38.446,49.51-66.172,92.313-66.172
	C380.487,111.201,500.677,111.201,500.677,111.201z M489.601,132.769H380.487c-41.853,0-75.899,34.046-75.899,75.899V328.47
	c0.011,0.129,0.022,0.259,0.022,0.388v39.977c0,28.729,23.369,52.098,52.098,52.098h75.996
	c-1.715-22.226-8.703-43.676-20.468-62.613c-9.781-15.734-22.377-29.171-37.443-39.955c-0.022-0.011-0.032-0.032-0.054-0.043
	c-0.119-0.086-0.226-0.173-0.345-0.259c0-0.011-0.011-0.011-0.022-0.022c-1.273-1.014-2.34-2.319-3.084-3.893
	c-2.513-5.403-0.173-11.809,5.23-14.332c34.671-16.144,63.713-41.907,83.966-74.497C477.825,197.41,487.8,165.607,489.601,132.769z
	 M283.02,299.687v-1.014c-0.032-36.353-3.602-70.777-10.072-97.004c-7.15-28.966-15.206-36.785-17.201-37.443
	c-1.984,0.658-10.04,8.476-17.19,37.443c-6.503,26.346-10.083,60.974-10.083,97.521c0,1.337,0.022,2.664,0.032,4.001h27.241
	c5.964,0,10.784,4.831,10.784,10.784c0,5.964-4.821,10.784-10.784,10.784h-26.648c0.464,9.361,1.175,18.398,2.124,26.96h15.421
	c5.953,0,10.784,4.831,10.784,10.784c0,5.964-4.831,10.784-10.784,10.784h-12.316c1.402,7.797,3.02,15.033,4.885,21.547
	c7.193,25.235,14.871,30.39,16.532,30.39c1.672,0,9.339-5.155,16.543-30.39C279.181,370.679,282.987,336.903,283.02,299.687z
	 M206.862,368.835V208.668c0-41.853-34.046-75.899-75.888-75.899H21.86c1.801,32.849,11.766,64.64,29.106,92.55
	c20.242,32.59,49.284,58.353,83.976,74.519c5.403,2.513,7.743,8.929,5.22,14.321c-0.723,1.564-3.473,4.206-3.494,4.217
	c-15.065,10.773-27.651,24.21-37.432,39.945c-11.766,18.937-18.754,40.387-20.468,62.613h75.996
	C183.493,420.933,206.862,397.564,206.862,368.835z"/>
<path style="fill:#FE6865;" d="M380.487,132.769h109.114c-1.801,32.838-11.776,64.64-29.117,92.55
	c-20.253,32.59-49.294,58.353-83.966,74.497c-5.403,2.523-7.743,8.929-5.23,14.332c0.744,1.574,1.812,2.879,3.084,3.893
	c0.011,0.011,0.022,0.011,0.022,0.022c0.119,0.086,0.226,0.173,0.345,0.259c0.022,0.011,0.032,0.032,0.054,0.043
	c15.065,10.784,27.661,24.221,37.443,39.955c11.766,18.937,18.754,40.387,20.468,62.613h-75.996
	c-28.729,0-52.098-23.369-52.098-52.098v-39.977c0-0.129-0.011-0.259-0.022-0.388V208.668
	C304.588,166.815,338.634,132.769,380.487,132.769z M451.781,176.165c1.122-3.289,0.593-6.934-1.434-9.76
	c-2.017-2.836-5.284-4.519-8.768-4.519h-61.092c-25.796,0-46.782,20.986-46.782,46.782v61.157c0,3.473,1.682,6.74,4.508,8.768
	c1.855,1.326,4.055,2.017,6.276,2.017c1.175,0,2.351-0.194,3.483-0.582c36.192-12.326,67.369-37.216,87.783-70.065
	C442.345,199.351,447.737,187.984,451.781,176.165z M384.035,388.537c5.058-3.138,6.611-9.792,3.462-14.85
	c-7.732-12.456-17.708-23.1-29.646-31.641c-4.842-3.462-11.582-2.351-15.044,2.491c-3.473,4.853-2.351,11.582,2.491,15.055
	c9.62,6.87,17.654,15.443,23.887,25.483c2.038,3.278,5.565,5.09,9.167,5.09C380.293,390.166,382.266,389.637,384.035,388.537z"/>
<path style="fill:#663333;" d="M450.347,166.405c2.027,2.825,2.556,6.471,1.434,9.76c-4.044,11.819-9.436,23.186-16.025,33.798
	c-20.414,32.849-51.591,57.738-87.783,70.065c-1.132,0.388-2.308,0.582-3.483,0.582c-2.222,0-4.422-0.69-6.276-2.017
	c-2.825-2.027-4.508-5.295-4.508-8.768v-61.157c0-25.796,20.986-46.782,46.782-46.782h61.092
	C445.063,161.887,448.33,163.569,450.347,166.405z M425.619,183.455h-45.132c-13.901,0-25.213,11.313-25.213,25.213v45.207
	c25.386-11.852,47.116-31.091,62.16-55.301C420.453,193.711,423.192,188.653,425.619,183.455z"/>
<path style="fill:#4EC8D8;" d="M380.487,183.455h45.132c-2.426,5.198-5.166,10.256-8.185,15.119
	c-15.044,24.21-36.774,43.449-62.16,55.301v-45.207C355.274,194.767,366.586,183.455,380.487,183.455z"/>
<path style="fill:#663333;" d="M387.497,373.688c3.149,5.058,1.596,11.712-3.462,14.85c-1.769,1.1-3.742,1.628-5.683,1.628
	c-3.602,0-7.128-1.812-9.167-5.09c-6.233-10.04-14.267-18.613-23.887-25.483c-4.842-3.473-5.964-10.202-2.491-15.055
	c3.462-4.842,10.202-5.953,15.044-2.491C369.789,350.588,379.765,361.232,387.497,373.688z"/>
<path style="fill:#F9DCB2;" d="M283.02,298.673v1.014c-0.032,37.216-3.839,70.992-10.73,95.149
	c-7.204,25.235-14.871,30.39-16.543,30.39c-1.661,0-9.339-5.155-16.532-30.39c-1.866-6.514-3.483-13.75-4.885-21.547h12.316
	c5.953,0,10.784-4.821,10.784-10.784c0-5.953-4.831-10.784-10.784-10.784h-15.421c-0.949-8.563-1.661-17.6-2.124-26.96h26.648
	c5.964,0,10.784-4.821,10.784-10.784c0-5.953-4.821-10.784-10.784-10.784h-27.241c-0.011-1.337-0.032-2.664-0.032-4.001
	c0-36.548,3.58-71.176,10.083-97.521c7.15-28.966,15.206-36.785,17.19-37.443c1.995,0.658,10.051,8.476,17.201,37.443
	C279.418,227.896,282.987,262.32,283.02,298.673z"/>
<path style="fill:#FE6865;" d="M206.862,208.668v160.167c0,28.729-23.369,52.098-52.098,52.098H78.768
	c1.715-22.226,8.703-43.676,20.468-62.613c9.781-15.734,22.366-29.171,37.432-39.945c0.022-0.011,2.772-2.653,3.494-4.217
	c2.523-5.392,0.183-11.809-5.22-14.321c-34.693-16.165-63.734-41.929-83.976-74.519c-17.341-27.909-27.306-59.701-29.106-92.55
	h109.114C172.816,132.769,206.862,166.815,206.862,208.668z M177.745,269.825v-61.157c0-25.796-20.986-46.782-46.771-46.782H69.881
	c-3.483,0-6.751,1.682-8.778,4.519c-2.027,2.825-2.556,6.471-1.424,9.76c4.044,11.819,9.436,23.186,16.025,33.798
	c20.414,32.849,51.591,57.738,87.783,70.065c1.132,0.388,2.308,0.582,3.473,0.582c2.222,0,4.422-0.69,6.276-2.017
	C176.073,276.565,177.745,273.298,177.745,269.825z M166.152,359.603c4.842-3.462,5.964-10.202,2.502-15.044
	c-3.473-4.842-10.202-5.964-15.044-2.502c-11.927,8.53-21.903,19.174-29.635,31.63c-3.149,5.058-1.596,11.712,3.462,14.85
	c1.769,1.1,3.742,1.628,5.683,1.628c3.602,0,7.128-1.812,9.167-5.09C148.52,375.036,156.554,366.473,166.152,359.603z"/>
<g>
	<path style="fill:#663333;" d="M177.745,208.668v61.157c0,3.473-1.672,6.74-4.508,8.768c-1.855,1.326-4.055,2.017-6.276,2.017
		c-1.165,0-2.34-0.194-3.473-0.582c-36.192-12.326-67.369-37.216-87.783-70.065c-6.589-10.612-11.981-21.978-16.025-33.798
		c-1.132-3.289-0.604-6.934,1.424-9.76c2.027-2.836,5.295-4.519,8.778-4.519h61.092
		C156.759,161.887,177.745,182.873,177.745,208.668z M156.176,253.876v-45.207c0-13.901-11.302-25.213-25.203-25.213H85.842
		c2.426,5.198,5.155,10.256,8.185,15.119C109.071,222.785,130.79,242.024,156.176,253.876z"/>
	<path style="fill:#663333;" d="M168.654,344.56c3.462,4.842,2.34,11.582-2.502,15.044c-9.598,6.87-17.632,15.432-23.865,25.472
		c-2.038,3.278-5.565,5.09-9.167,5.09c-1.941,0-3.915-0.528-5.683-1.628c-5.058-3.138-6.611-9.792-3.462-14.85
		c7.732-12.456,17.708-23.1,29.635-31.63C158.452,338.596,165.181,339.718,168.654,344.56z"/>
</g>
<path style="fill:#4EC8D8;" d="M156.176,208.668v45.207c-25.386-11.852-47.105-31.091-62.149-55.301
	c-3.03-4.864-5.759-9.921-8.185-15.119h45.132C144.875,183.455,156.176,194.767,156.176,208.668z"/>
<g>
</g>
<g>
</g>
<g>
</g>
<g>
</g>
<g>
</g>
<g>
</g>
<g>
</g>
<g>
</g>
<g>
</g>
<g>
</g>
<g>
</g>
<g>
</g>
<g>
</g>
<g>
</g>
<g>
</g>
</svg>
