<?xml version="1.0" encoding="iso-8859-1"?>
<!-- Generator: Adobe Illustrator 19.0.0, SVG Export Plug-In . SVG Version: 6.00 Build 0)  -->
<svg version="1.1" id="Capa_1" xmlns="http://www.w3.org/2000/svg" xmlns:xlink="http://www.w3.org/1999/xlink" x="0px" y="0px"
	 viewBox="0 0 58 58" style="enable-background:new 0 0 58 58;" xml:space="preserve">
<path style="fill:#D75A4A;" d="M57.988,19C57.729,25.593,44.854,30.904,29,30.904S0.271,25.593,0.012,19H0v22.096h0.012
	C0.271,47.688,13.146,53,29,53s28.729-5.312,28.988-11.904H58V19H57.988z"/>
<path style="fill:#F0C419;" d="M21,53c-0.131,0-0.264-0.025-0.393-0.08c-0.508-0.218-0.744-0.806-0.526-1.313l9-21.052
	c0.217-0.508,0.803-0.744,1.313-0.526c0.508,0.218,0.744,0.806,0.526,1.313l-9,21.052C21.757,52.772,21.388,53,21,53z"/>
<path style="fill:#F0C419;" d="M39,53c-0.388,0-0.758-0.228-0.92-0.606l-9-21.052c-0.217-0.508,0.019-1.096,0.526-1.313
	c0.506-0.219,1.095,0.02,1.313,0.526l9,21.052c0.217,0.508-0.019,1.096-0.526,1.313C39.265,52.975,39.132,53,39,53z"/>
<path style="fill:#F0C419;" d="M39,53c-0.117,0-0.236-0.021-0.352-0.063c-0.517-0.194-0.779-0.771-0.584-1.288l8.918-23.734
	c0.195-0.519,0.772-0.777,1.288-0.585c0.517,0.194,0.779,0.771,0.584,1.288l-8.918,23.734C39.785,52.753,39.404,53,39,53z"/>
<path style="fill:#F0C419;" d="M56,46c-0.372,0-0.729-0.208-0.901-0.565L47.018,28.7c-0.24-0.497-0.032-1.095,0.465-1.335
	c0.497-0.239,1.095-0.032,1.335,0.466L56.9,44.565c0.24,0.497,0.032,1.095-0.465,1.335C56.295,45.968,56.146,46,56,46z"/>
<path style="fill:#F0C419;" d="M3.999,48c-0.15,0-0.303-0.034-0.446-0.105c-0.494-0.247-0.694-0.848-0.447-1.342l9-18
	c0.247-0.494,0.846-0.693,1.342-0.447c0.494,0.247,0.694,0.848,0.447,1.342l-9,18C4.719,47.798,4.366,48,3.999,48z"/>
<path style="fill:#F0C419;" d="M21,53c-0.414,0-0.801-0.259-0.944-0.672l-8-23c-0.182-0.521,0.094-1.091,0.616-1.272
	c0.522-0.185,1.092,0.095,1.273,0.616l8,23c0.182,0.521-0.094,1.091-0.616,1.272C21.22,52.982,21.109,53,21,53z"/>
<path style="fill:#CBB292;" d="M49.663,10.458L38.027,22.094c-0.473,0.473-0.975,0.916-1.503,1.327l-1.748,1.36
	c-1.031,0.802-2.358-0.526-1.557-1.557l1.36-1.748c0.411-0.528,0.854-1.03,1.327-1.503L46.529,9.35C41.66,7.866,35.588,7,29,7
	S16.34,7.866,11.471,9.35l10.623,10.623c0.473,0.473,0.917,0.975,1.327,1.503l1.36,1.748c0.802,1.031-0.526,2.358-1.557,1.557
	l-1.748-1.36c-0.528-0.411-1.03-0.854-1.503-1.327L8.337,10.458C3.183,12.567,0,15.49,0,18.798c0,6.686,12.984,12.106,29,12.106
	s29-5.42,29-12.106C58,15.49,54.817,12.567,49.663,10.458z"/>
<path style="fill:#ECF0F1;" d="M0.004,45.936C0.004,45.957,0,45.978,0,46c0,6.627,12.984,12,29,12s29-5.373,29-12
	c0-0.022-0.004-0.043-0.004-0.064H58v-4.84h-0.012C57.729,47.688,44.854,53,29,53S0.271,47.688,0.012,41.096H0v4.84H0.004z"/>
<ellipse style="fill:#FBD490;" cx="29" cy="17" rx="28" ry="10"/>
<path style="fill:#AD977F;" d="M33.219,23.225l1.36-1.748c0.411-0.528,0.854-1.03,1.327-1.503L55.439,0.439
	c0.586-0.586,1.536-0.586,2.121,0v0c0.586,0.586,0.586,1.536,0,2.121L38.027,22.094c-0.473,0.473-0.975,0.916-1.503,1.327
	l-1.748,1.36C33.745,25.583,32.417,24.255,33.219,23.225z"/>
<path style="fill:#AD977F;" d="M24.781,23.225l-1.36-1.748c-0.411-0.528-0.854-1.03-1.327-1.503L2.561,0.439
	c-0.586-0.586-1.536-0.586-2.121,0l0,0c-0.586,0.586-0.586,1.536,0,2.121l19.534,19.534c0.473,0.473,0.975,0.916,1.503,1.327
	l1.748,1.36C24.255,25.583,25.583,24.255,24.781,23.225z"/>
<g>
</g>
<g>
</g>
<g>
</g>
<g>
</g>
<g>
</g>
<g>
</g>
<g>
</g>
<g>
</g>
<g>
</g>
<g>
</g>
<g>
</g>
<g>
</g>
<g>
</g>
<g>
</g>
<g>
</g>
</svg>
