<?xml version="1.0" encoding="iso-8859-1"?>
<!-- Generator: Adobe Illustrator 19.0.0, SVG Export Plug-In . SVG Version: 6.00 Build 0)  -->
<svg version="1.1" id="Capa_1" xmlns="http://www.w3.org/2000/svg" xmlns:xlink="http://www.w3.org/1999/xlink" x="0px" y="0px"
	 viewBox="0 0 58 58" style="enable-background:new 0 0 58 58;" xml:space="preserve">
<polygon style="fill:#E4C05C;" points="42.09,7 41.09,6 41.09,4 42.09,3 44.09,3 45.09,4 45.09,6 44.09,7 "/>
<polygon style="fill:#E4C05C;" points="48.09,4 47.09,3 47.09,1 48.09,0 50.09,0 51.09,1 51.09,3 50.09,4 "/>
<path style="fill:#7F6E5D;" d="M41.164,9.241L24.016,29.213l3.032,5.453l18.346-21.171C42.974,13.689,41.095,11.502,41.164,9.241z"
	/>
<path style="fill:#7F5B53;" d="M41.247,19.3c-0.253,0-0.507-0.096-0.701-0.287l-4.252-4.187c-0.394-0.388-0.398-1.021-0.012-1.414
	c0.388-0.395,1.021-0.399,1.414-0.012l4.252,4.187c0.394,0.388,0.398,1.021,0.012,1.414C41.764,19.2,41.506,19.3,41.247,19.3z"/>
<path style="fill:#7F5B53;" d="M37.158,23.762c-0.256,0-0.512-0.098-0.707-0.293l-4.075-4.076c-0.391-0.391-0.391-1.023,0-1.414
	c0.391-0.391,1.023-0.391,1.414,0l4.075,4.076c0.391,0.391,0.391,1.023,0,1.414C37.67,23.664,37.414,23.762,37.158,23.762z"/>
<path style="fill:#7F5B53;" d="M33.329,28.473c-0.258,0-0.516-0.1-0.712-0.298l-4.159-4.214c-0.388-0.393-0.384-1.026,0.01-1.414
	c0.392-0.388,1.024-0.384,1.414,0.01l4.159,4.214c0.388,0.393,0.384,1.026-0.01,1.414C33.837,28.377,33.583,28.473,33.329,28.473z"
	/>
<path style="fill:#5E5F62;" d="M57.764,1.53C57.48,0.677,56.775-0.138,55.09,0.02c0,0-1.678,0.143-4.029,0.952L51.09,1v2l-1,1h-2
	l-1-1V2.795c-0.662,0.387-1.331,0.83-2,1.331V6l-1,1h-2l-0.06-0.06c-2.421,2.978,0.506,7.628,4.268,6.392
	c0.476-0.156,0.959-0.39,1.433-0.726c0.659-0.467,1.126-1.16,1.37-1.93c0.255-0.803,0.425-1.974,1.618-3.084
	c0.602-0.56,1.887-1.034,2.876-1.438c0.773-0.316,2.194-0.13,3.393-1.427C57.782,3.868,58.132,2.64,57.764,1.53z"/>
<path style="fill:#5E5F62;" d="M27.048,34.667l-3.032-5.453l2.745-3.139L24.09,23.55L0.09,36l2.589,14
	c4.108,1.017,7.299,3.917,8.411,8h13.797l9.203-25l-3.047-2.879L27.048,34.667z"/>
<path style="fill:#E4C05C;" d="M12.888,46.202c-0.254,0-0.507-0.096-0.702-0.288c-0.394-0.387-0.397-1.021-0.01-1.414l8.081-8.202
	c0.387-0.393,1.02-0.398,1.414-0.01c0.394,0.387,0.397,1.021,0.01,1.414L13.6,45.904C13.404,46.103,13.146,46.202,12.888,46.202z"/>
<path style="fill:#E4C05C;" d="M10.767,44.081c-0.252,0-0.503-0.095-0.697-0.283c-0.396-0.386-0.404-1.019-0.02-1.414l9.081-9.323
	c0.387-0.397,1.02-0.401,1.414-0.02c0.396,0.386,0.404,1.019,0.02,1.414l-9.081,9.323C11.287,43.98,11.026,44.081,10.767,44.081z"/>
<path style="fill:#E4C05C;" d="M15.009,48.323c-0.251,0-0.502-0.094-0.696-0.282c-0.396-0.385-0.406-1.019-0.021-1.414l8.081-8.323
	c0.386-0.396,1.019-0.405,1.414-0.021c0.396,0.385,0.406,1.019,0.021,1.414l-8.081,8.323C15.53,48.222,15.27,48.323,15.009,48.323z"
	/>
<polygon style="fill:#CBB292;" points="14.301,52.504 5.815,44.018 8.645,40.96 17.13,49.445 "/>
<g>
</g>
<g>
</g>
<g>
</g>
<g>
</g>
<g>
</g>
<g>
</g>
<g>
</g>
<g>
</g>
<g>
</g>
<g>
</g>
<g>
</g>
<g>
</g>
<g>
</g>
<g>
</g>
<g>
</g>
</svg>
