<?xml version="1.0" encoding="iso-8859-1"?>
<!-- Generator: Adobe Illustrator 19.0.0, SVG Export Plug-In . SVG Version: 6.00 Build 0)  -->
<svg version="1.1" id="Capa_1" xmlns="http://www.w3.org/2000/svg" xmlns:xlink="http://www.w3.org/1999/xlink" x="0px" y="0px"
	 viewBox="0 0 53.23 53.23" style="enable-background:new 0 0 53.23 53.23;" xml:space="preserve">
<g>
	<path style="fill:#CA9A5D;" d="M6.615,6.23V0.508C4.973,0.356,3.619,0.185,2.615,0v6.23H6.615z"/>
	<path style="fill:#CA9A5D;" d="M2.615,10.23v43h0.043c0.835-2.966,2.167-5.786,3.957-8.411V10.23H2.615z"/>
</g>
<g>
	<path style="fill:#B27F40;" d="M10.615,6.23V0.806c-1.467-0.088-2.81-0.188-4-0.298V6.23H10.615z"/>
	<path style="fill:#B27F40;" d="M6.615,10.23v34.589c1.151-1.687,2.482-3.295,4-4.804V10.23H6.615z"/>
</g>
<g>
	<path style="fill:#CA9A5D;" d="M10.615,10.23v29.785c1.218-1.211,2.557-2.357,4-3.436V10.23H10.615z"/>
	<path style="fill:#CA9A5D;" d="M14.615,6.23V1.004c-1.415-0.057-2.753-0.123-4-0.198V6.23H14.615z"/>
</g>
<g>
	<path style="fill:#B27F40;" d="M18.615,6.23V1.133c-1.388-0.034-2.725-0.078-4-0.129V6.23H18.615z"/>
	<path style="fill:#B27F40;" d="M14.615,10.23v26.349c1.252-0.937,2.586-1.821,4-2.649v-23.7H14.615z"/>
</g>
<g>
	<path style="fill:#CA9A5D;" d="M22.615,6.23V1.206c-1.372-0.016-2.707-0.041-4-0.073V6.23H22.615z"/>
	<path style="fill:#CA9A5D;" d="M18.615,10.23v23.7c1.27-0.743,2.605-1.437,4-2.085V10.23H18.615z"/>
</g>
<g>
	<path style="fill:#B27F40;" d="M26.615,6.23v-5c-1.36,0-2.696-0.008-4-0.024V6.23H26.615z"/>
	<path style="fill:#B27F40;" d="M22.615,10.23v21.615c1.283-0.595,2.616-1.149,4-1.658V10.23H22.615z"/>
</g>
<g>
	<path style="fill:#CA9A5D;" d="M30.615,6.23V1.206c-1.304,0.016-2.64,0.024-4,0.024v5H30.615z"/>
	<path style="fill:#CA9A5D;" d="M26.615,10.23v19.957c1.292-0.475,2.623-0.915,4-1.31V10.23H26.615z"/>
</g>
<g>
	<path style="fill:#B27F40;" d="M34.615,6.23V1.133c-1.293,0.032-2.628,0.057-4,0.073V6.23H34.615z"/>
	<path style="fill:#B27F40;" d="M30.615,10.23v18.647c1.296-0.372,2.631-0.706,4-1.003V10.23H30.615z"/>
</g>
<g>
	<path style="fill:#CA9A5D;" d="M38.615,6.23V1.004c-1.275,0.051-2.612,0.095-4,0.129V6.23H38.615z"/>
	<path style="fill:#CA9A5D;" d="M34.615,10.23v17.644c1.3-0.282,2.636-0.526,4-0.738V10.23H34.615z"/>
</g>
<g>
	<path style="fill:#B27F40;" d="M42.615,6.23V0.806c-1.247,0.075-2.585,0.142-4,0.198V6.23H42.615z"/>
	<path style="fill:#B27F40;" d="M38.615,10.23v16.906c1.308-0.203,2.636-0.382,4-0.517V10.23H38.615z"/>
</g>
<g>
	<path style="fill:#CA9A5D;" d="M46.615,6.23V0.508c-1.19,0.11-2.533,0.21-4,0.298V6.23H46.615z"/>
	<path style="fill:#CA9A5D;" d="M42.615,10.23v16.389c1.306-0.13,2.644-0.218,4-0.283V10.23H42.615z"/>
</g>
<g>
	<path style="fill:#B27F40;" d="M46.615,10.23v16.106c1.313-0.063,2.642-0.106,4-0.106v-16H46.615z"/>
	<path style="fill:#B27F40;" d="M50.615,6.23V0c-1.004,0.185-2.358,0.356-4,0.508V6.23H50.615z"/>
</g>
<rect x="0.615" y="6.23" style="fill:#7F6E5D;" width="52" height="4"/>
<g>
</g>
<g>
</g>
<g>
</g>
<g>
</g>
<g>
</g>
<g>
</g>
<g>
</g>
<g>
</g>
<g>
</g>
<g>
</g>
<g>
</g>
<g>
</g>
<g>
</g>
<g>
</g>
<g>
</g>
</svg>
