<?xml version="1.0" encoding="iso-8859-1"?>
<!-- Generator: Adobe Illustrator 19.0.0, SVG Export Plug-In . SVG Version: 6.00 Build 0)  -->
<svg version="1.1" id="Capa_1" xmlns="http://www.w3.org/2000/svg" xmlns:xlink="http://www.w3.org/1999/xlink" x="0px" y="0px"
	 viewBox="0 0 59 59" style="enable-background:new 0 0 59 59;" xml:space="preserve">
<g>
	<polygon style="fill:#556080;" points="57.5,13 50.5,13 50.5,6 8.5,6 8.5,13 1.5,13 1.5,51 8.5,51 8.5,58 50.5,58 50.5,51 57.5,51 
			"/>
</g>
<polygon style="fill:#2C3E50;" points="50.5,13 50.5,10 8.5,10 8.5,13 5.5,13 5.5,51 8.5,51 8.5,54 50.5,54 50.5,51 53.5,51 
	53.5,13 "/>
<path style="fill:#556080;" d="M46.131,35.516C46.37,34.381,46.5,33.206,46.5,32s-0.13-2.381-0.369-3.516
	C48.692,27.443,50.5,24.935,50.5,22c0-3.866-3.134-7-7-7c-2.114,0-4.004,0.941-5.288,2.422C35.662,15.894,32.689,15,29.5,15
	s-6.162,0.894-8.712,2.422C19.504,15.941,17.614,15,15.5,15c-3.866,0-7,3.134-7,7c0,2.935,1.808,5.443,4.369,6.484
	C12.63,29.619,12.5,30.794,12.5,32s0.13,2.381,0.369,3.516C10.308,36.556,8.5,39.065,8.5,42c0,3.866,3.134,7,7,7
	c2.114,0,4.004-0.941,5.288-2.422C23.338,48.106,26.311,49,29.5,49s6.162-0.894,8.712-2.422C39.496,48.059,41.386,49,43.5,49
	c3.866,0,7-3.134,7-7C50.5,39.065,48.692,36.556,46.131,35.516z"/>
<path style="fill:#394156;" d="M50.5,13V5h2.841C56.19,5,58.5,7.31,58.5,10.159V13H50.5z"/>
<path style="fill:#394156;" d="M8.5,13h-8v-2.841C0.5,7.31,2.81,5,5.659,5H8.5V13z"/>
<path style="fill:#394156;" d="M8.5,51v8H5.659C2.81,59,0.5,56.69,0.5,53.841V51H8.5z"/>
<path style="fill:#394156;" d="M50.5,51h8v2.841C58.5,56.69,56.19,59,53.341,59H50.5V51z"/>
<circle style="fill:#394156;" cx="15.5" cy="22" r="3"/>
<circle style="fill:#394156;" cx="15.5" cy="42" r="3"/>
<circle style="fill:#394156;" cx="43.5" cy="22" r="3"/>
<circle style="fill:#394156;" cx="43.5" cy="42" r="3"/>
<path style="fill:#394156;" d="M38.5,6h-2V2.837C36.5,2.375,36.125,2,35.663,2H23.337C22.875,2,22.5,2.375,22.5,2.837V6h-2V2.837
	C20.5,1.273,21.773,0,23.337,0h12.325C37.227,0,38.5,1.273,38.5,2.837V6z"/>
<circle style="fill:#2C2F38;" cx="29.5" cy="32" r="13"/>
<circle style="fill:#F0C419;" cx="29.5" cy="32" r="11"/>
<circle style="fill:#394156;" cx="29.5" cy="32" r="5"/>
<g>
</g>
<g>
</g>
<g>
</g>
<g>
</g>
<g>
</g>
<g>
</g>
<g>
</g>
<g>
</g>
<g>
</g>
<g>
</g>
<g>
</g>
<g>
</g>
<g>
</g>
<g>
</g>
<g>
</g>
</svg>
