<?xml version="1.0" encoding="iso-8859-1"?>
<!-- Generator: Adobe Illustrator 19.0.0, SVG Export Plug-In . SVG Version: 6.00 Build 0)  -->
<svg version="1.1" id="Capa_1" xmlns="http://www.w3.org/2000/svg" xmlns:xlink="http://www.w3.org/1999/xlink" x="0px" y="0px"
	 viewBox="0 0 57.12 57.12" style="enable-background:new 0 0 57.12 57.12;" xml:space="preserve">
<path style="fill:none;stroke:#BDC3C7;stroke-width:2;stroke-linecap:round;stroke-linejoin:round;stroke-miterlimit:10;" d="
	M48.923,48.096c1.751-2.825,5.081-15.127,5.091-19.09c0.012-4.708-0.533-9.542-2.517-13.811C45.315,1.893,33.757,0.944,29.833,1.006
	c-0.962,0.015-1.923-0.019-2.885,0c-3.996,0.08-15.23,0.887-21.342,14.188c-1.971,4.29-2.515,9.09-2.499,13.811
	c0.013,3.955,2.074,16.277,3.818,19.09"/>
<path style="fill:#556080;" d="M17.407,56.822l-1.34,0.254c-1.351,0.256-2.666-0.639-2.922-1.99L9.33,34.991
	c-0.256-1.351,0.639-2.666,1.99-2.922l1.34-0.254c1.351-0.256,2.666,0.639,2.922,1.99l3.815,20.095
	C19.653,55.25,18.757,56.565,17.407,56.822z"/>
<path style="fill:#556080;" d="M38.452,56.822l1.34,0.254c1.351,0.256,2.666-0.639,2.922-1.99l3.815-20.095
	c0.256-1.351-0.639-2.666-1.99-2.922l-1.34-0.254c-1.351-0.256-2.666,0.639-2.922,1.99l-3.815,20.095
	C36.206,55.25,37.101,56.565,38.452,56.822z"/>
<polygon style="fill:#D1D4D1;" points="10.218,39.668 6,41.577 8.051,52.846 12.778,53.153 "/>
<polygon style="fill:#D1D4D1;" points="45.64,39.673 43.081,53.153 47.796,52.846 49.848,41.577 "/>
<g>
	<path style="fill:none;stroke:#BDC3C7;stroke-width:2;stroke-miterlimit:10;" d="M29.848,1.006
		c-0.471,0.007-0.941,0.003-1.412-0.001c-0.488-0.003-0.979-0.009-1.469,0.001C21.38,1.117,16.619,2.845,12.829,6.057
		C17.51,7.126,23.085,7.75,29.077,7.75c5.63,0,10.896-0.549,15.394-1.503C39.068,1.535,32.908,0.948,29.848,1.006z"/>
</g>
<g>
</g>
<g>
</g>
<g>
</g>
<g>
</g>
<g>
</g>
<g>
</g>
<g>
</g>
<g>
</g>
<g>
</g>
<g>
</g>
<g>
</g>
<g>
</g>
<g>
</g>
<g>
</g>
<g>
</g>
</svg>
