<?xml version="1.0" encoding="iso-8859-1"?>
<!-- Generator: Adobe Illustrator 19.0.0, SVG Export Plug-In . SVG Version: 6.00 Build 0)  -->
<svg version="1.1" id="Capa_1" xmlns="http://www.w3.org/2000/svg" xmlns:xlink="http://www.w3.org/1999/xlink" x="0px" y="0px"
	 viewBox="0 0 57.349 57.349" style="enable-background:new 0 0 57.349 57.349;" xml:space="preserve">
<rect x="6.343" y="43.006" transform="matrix(0.7071 0.7071 -0.7071 0.7071 36.2675 6.4539)" style="fill:#556080;" width="8" height="8"/>
<g>
	
		<rect x="1.004" y="49.531" transform="matrix(0.7071 -0.7071 0.7071 0.7071 -35.7339 18.793)" style="fill:#35495E;" width="7.627" height="6"/>
	<path style="fill:#35495E;" d="M25,35.349v-2l1-1h2l0.621,0.621l2-2L30,30.349v-2l1-1h2l0.621,0.621l2-2L35,25.349v-2l1-1h2
		l0.621,0.621l2-2L40,20.349v-2l1-1h2l0.621,0.621l2-2L45,15.349v-2l1-1h2l0.621,0.621l8.267-8.267c0.614-0.614,0.614-1.609,0-2.223
		L54.869,0.46c-0.614-0.614-1.609-0.614-2.223,0L11.05,42.056l4.243,4.243L25.621,35.97L25,35.349z"/>
</g>
<path style="fill:#556080;" d="M20.5,44.849c-0.256,0-0.512-0.098-0.707-0.293l-7-7c-0.391-0.391-0.391-1.023,0-1.414
	s1.023-0.391,1.414,0l7,7c0.391,0.391,0.391,1.023,0,1.414C21.012,44.751,20.756,44.849,20.5,44.849z"/>
<path style="fill:#556080;" d="M23.5,41.849c-0.256,0-0.512-0.098-0.707-0.293l-7-7c-0.391-0.391-0.391-1.023,0-1.414
	s1.023-0.391,1.414,0l7,7c0.391,0.391,0.391,1.023,0,1.414C24.012,41.751,23.756,41.849,23.5,41.849z"/>
<path style="fill:#556080;" d="M54.002,12.35c-0.768,0-1.536-0.292-2.121-0.876l-2.828-2.83c-0.391-0.391-0.391-1.023,0-1.414
	s1.023-0.391,1.414,0l2.828,2.829c0.392,0.39,1.025,0.389,1.415-0.001c0.39-0.389,0.39-1.024-0.001-1.414l-2.828-2.828
	c-0.391-0.391-0.391-1.023,0-1.414s1.023-0.391,1.414,0l2.829,2.828c1.169,1.17,1.169,3.073,0.001,4.243
	C55.539,12.057,54.771,12.35,54.002,12.35z"/>
<path style="fill:#8697CB;" d="M42.707,13.642l-4-4c-0.391-0.391-1.023-0.391-1.414,0l-15,15c-0.391,0.391-0.391,1.023,0,1.414l4,4
	c0.195,0.195,0.451,0.293,0.707,0.293s0.512-0.098,0.707-0.293c0.391-0.391,0.391-1.023,0-1.414l-3.293-3.293L38,11.763l3.293,3.293
	c0.195,0.195,0.451,0.293,0.707,0.293s0.512-0.098,0.707-0.293C43.098,14.665,43.098,14.032,42.707,13.642z"/>
<polygon style="fill:#E4C05C;" points="48,16.349 49,15.349 49,13.349 48,12.349 46,12.349 45,13.349 45,15.349 46,16.349 "/>
<polygon style="fill:#E4C05C;" points="43,21.349 44,20.349 44,18.349 43,17.349 41,17.349 40,18.349 40,20.349 41,21.349 "/>
<polygon style="fill:#E4C05C;" points="38,26.349 39,25.349 39,23.349 38,22.349 36,22.349 35,23.349 35,25.349 36,26.349 "/>
<polygon style="fill:#E4C05C;" points="33,31.349 34,30.349 34,28.349 33,27.349 31,27.349 30,28.349 30,30.349 31,31.349 "/>
<polygon style="fill:#E4C05C;" points="28,36.349 29,35.349 29,33.349 28,32.349 26,32.349 25,33.349 25,35.349 26,36.349 "/>
<g>
</g>
<g>
</g>
<g>
</g>
<g>
</g>
<g>
</g>
<g>
</g>
<g>
</g>
<g>
</g>
<g>
</g>
<g>
</g>
<g>
</g>
<g>
</g>
<g>
</g>
<g>
</g>
<g>
</g>
</svg>
