<?xml version="1.0" encoding="iso-8859-1"?>
<!-- Generator: Adobe Illustrator 19.0.0, SVG Export Plug-In . SVG Version: 6.00 Build 0)  -->
<svg version="1.1" id="Capa_1" xmlns="http://www.w3.org/2000/svg" xmlns:xlink="http://www.w3.org/1999/xlink" x="0px" y="0px"
	 viewBox="0 0 58 58" style="enable-background:new 0 0 58 58;" xml:space="preserve">
<path style="fill:#7A3726;" d="M37.559,46.287l8.612,8.612L49,52.071l-8.036-8.035C39.881,44.881,38.743,45.634,37.559,46.287z"/>
<path style="fill:#7A3726;" d="M29.5,49.073c-0.504,0-1.003-0.031-1.5-0.082V58h4v-9.149C31.177,48.992,30.344,49.073,29.5,49.073z"
	/>
<path style="fill:#7A3726;" d="M17.874,45.197L11,52.071l2.828,2.828l7.536-7.536C20.152,46.743,18.986,46.018,17.874,45.197z"/>
<path style="fill:#805333;" d="M3,20.5C3,37.345,14.864,52,29.5,52S56,37.345,56,20.5H3z"/>
<path style="fill:#CB8252;" d="M4.787,31.645L5,32c2.042,3.667,10.969,8,24.5,8s22.708-4.5,24.5-8l0.189-0.283
	C55.354,28.198,56,24.41,56,20.5H3C3,24.384,3.637,28.147,4.787,31.645z"/>
<path style="fill:#CAD8DB;" d="M48.844,11.278L38.027,22.094c-0.473,0.473-0.975,0.916-1.503,1.327l-1.748,1.36
	c-1.031,0.802-2.358-0.526-1.557-1.557l1.36-1.748c0.411-0.528,0.854-1.03,1.327-1.503l10.05-10.05C41.435,8.095,35.72,7,29.5,7
	c-6.548,0-12.537,1.212-17.161,3.217l9.756,9.756c0.473,0.473,0.917,0.975,1.327,1.503l1.36,1.748
	c0.802,1.031-0.526,2.358-1.557,1.557l-1.748-1.36c-0.528-0.411-1.03-0.854-1.503-1.327L9.517,11.639C5.462,14.01,3,17.108,3,20.5
	C3,27.956,14.865,34,29.5,34S56,27.956,56,20.5C56,16.933,53.28,13.691,48.844,11.278z"/>
<ellipse style="fill:#CAD8DB;" cx="29.5" cy="20.5" rx="26.5" ry="13.5"/>
<path style="fill:#ECF0F1;" d="M29.5,30c-6.366,0-12.534-1.282-16.923-3.519C9.085,24.703,7,22.467,7,20.5s2.085-4.203,5.577-5.981
	C16.966,12.282,23.134,11,29.5,11s12.534,1.282,16.923,3.519C49.915,16.297,52,18.533,52,20.5s-2.085,4.203-5.577,5.981
	C42.034,28.718,35.866,30,29.5,30z"/>
<path style="fill:#CBB292;" d="M33.219,23.225l1.36-1.748c0.411-0.528,0.854-1.03,1.327-1.503L55.439,0.439
	c0.586-0.586,1.536-0.586,2.121,0v0c0.586,0.586,0.586,1.536,0,2.121L38.027,22.094c-0.473,0.473-0.975,0.916-1.503,1.327
	l-1.748,1.36C33.745,25.583,32.417,24.255,33.219,23.225z"/>
<path style="fill:#CBB292;" d="M24.781,23.225l-1.36-1.748c-0.411-0.528-0.854-1.03-1.327-1.503L2.561,0.439
	c-0.586-0.586-1.536-0.586-2.121,0l0,0c-0.586,0.586-0.586,1.536,0,2.121l19.534,19.534c0.473,0.473,0.975,0.916,1.503,1.327
	l1.748,1.36C24.255,25.583,25.583,24.255,24.781,23.225z"/>
<g>
</g>
<g>
</g>
<g>
</g>
<g>
</g>
<g>
</g>
<g>
</g>
<g>
</g>
<g>
</g>
<g>
</g>
<g>
</g>
<g>
</g>
<g>
</g>
<g>
</g>
<g>
</g>
<g>
</g>
</svg>
