<?xml version="1.0" encoding="iso-8859-1"?>
<!-- Generator: Adobe Illustrator 19.0.0, SVG Export Plug-In . SVG Version: 6.00 Build 0)  -->
<svg version="1.1" id="Capa_1" xmlns="http://www.w3.org/2000/svg" xmlns:xlink="http://www.w3.org/1999/xlink" x="0px" y="0px"
	 viewBox="0 0 59 59" style="enable-background:new 0 0 59 59;" xml:space="preserve">
<line style="fill:none;stroke:#556080;stroke-width:2;stroke-linecap:round;stroke-linejoin:round;stroke-miterlimit:10;" x1="29.5" y1="8" x2="29.5" y2="4"/>
<line style="fill:none;stroke:#556080;stroke-width:2;stroke-linecap:round;stroke-linejoin:round;stroke-miterlimit:10;" x1="29.5" y1="24" x2="29.5" y2="58"/>
<line style="fill:none;stroke:#556080;stroke-width:2;stroke-linecap:round;stroke-linejoin:round;stroke-miterlimit:10;" x1="29.5" y1="18" x2="29.5" y2="14"/>
<polygon style="fill:#8697CB;" points="28.5,4 27.5,3 27.5,1 28.5,0 30.5,0 31.5,1 31.5,3 30.5,4 "/>
<path style="fill:#FBD490;" d="M3.5,14h5c8,0,9.402-6,21-6s13.063,6,21,6h5"/>
<path style="fill:#EEAF4B;" d="M55.5,15h-52c-0.553,0-1-0.447-1-1s0.447-1,1-1h52c0.553,0,1,0.447,1,1S56.053,15,55.5,15z"/>
<path style="fill:#FBD490;" d="M55.5,18h-5c-8,0-9.402,6-21,6s-13.063-6-21-6h-5"/>
<path style="fill:#EEAF4B;" d="M55.5,19h-52c-0.553,0-1-0.447-1-1s0.447-1,1-1h52c0.553,0,1,0.447,1,1S56.053,19,55.5,19z"/>
<line style="fill:none;stroke:#556080;stroke-width:2;stroke-linecap:round;stroke-linejoin:round;stroke-miterlimit:10;" x1="29.5" y1="46" x2="41.5" y2="58"/>
<line style="fill:none;stroke:#556080;stroke-width:2;stroke-linecap:round;stroke-linejoin:round;stroke-miterlimit:10;" x1="29.5" y1="46" x2="17.5" y2="58"/>
<g>
</g>
<g>
</g>
<g>
</g>
<g>
</g>
<g>
</g>
<g>
</g>
<g>
</g>
<g>
</g>
<g>
</g>
<g>
</g>
<g>
</g>
<g>
</g>
<g>
</g>
<g>
</g>
<g>
</g>
</svg>
