<?xml version="1.0" encoding="iso-8859-1"?>
<!-- Generator: Adobe Illustrator 19.0.0, SVG Export Plug-In . SVG Version: 6.00 Build 0)  -->
<svg version="1.1" id="Capa_1" xmlns="http://www.w3.org/2000/svg" xmlns:xlink="http://www.w3.org/1999/xlink" x="0px" y="0px"
	 viewBox="0 0 57.979 57.979" style="enable-background:new 0 0 57.979 57.979;" xml:space="preserve">
<polygon style="fill:#993028;" points="12.483,7.979 11.483,6.979 11.483,4.979 12.483,3.979 14.483,3.979 15.483,4.979 
	15.483,6.979 14.483,7.979 "/>
<polygon style="fill:#993028;" points="1.483,19.979 0.483,18.979 0.483,16.979 1.483,15.979 3.483,15.979 4.483,16.979 
	4.483,18.979 3.483,19.979 "/>
<polygon style="fill:#993028;" points="54.483,19.979 53.483,18.979 53.483,16.979 54.483,15.979 56.483,15.979 57.483,16.979 
	57.483,18.979 56.483,19.979 "/>
<polygon style="fill:#993028;" points="28.483,5.979 27.483,4.979 27.483,2.979 28.483,1.979 30.483,1.979 31.483,2.979 
	31.483,4.979 30.483,5.979 "/>
<path style="fill:#C03A2B;" d="M55.022,19.979c-2.302,6.261-13.081,11-26.039,11s-23.737-4.739-26.039-11H2.483v22.5
	c0,0.168,0.013,0.334,0.025,0.5h0.975l1,1v2l-0.691,0.691c1.487,2.321,4.175,4.365,7.691,5.942v-0.633l1-1h2l1,1v2l-0.09,0.09
	c3.571,1.089,7.686,1.762,12.09,1.887v-0.977l1-1h2l1,1v0.938c4.402-0.21,8.49-0.969,12-2.141v-1.798l1-1h2l1,1v0.162
	c3.027-1.505,5.348-3.374,6.691-5.47l-0.691-0.691v-2l1-1h0.975c0.012-0.166,0.025-0.332,0.025-0.5v-22.5H55.022z"/>
<polygon style="fill:#993028;" points="1.483,46.979 0.483,45.979 0.483,43.979 1.483,42.979 3.483,42.979 4.483,43.979 
	4.483,45.979 3.483,46.979 "/>
<polygon style="fill:#993028;" points="28.483,57.979 27.483,56.979 27.483,54.979 28.483,53.979 30.483,53.979 31.483,54.979 
	31.483,56.979 30.483,57.979 "/>
<polygon style="fill:#993028;" points="12.483,54.979 11.483,53.979 11.483,51.979 12.483,50.979 14.483,50.979 15.483,51.979 
	15.483,53.979 14.483,54.979 "/>
<polygon style="fill:#993028;" points="44.483,54.979 43.483,53.979 43.483,51.979 44.483,50.979 46.483,50.979 47.483,51.979 
	47.483,53.979 46.483,54.979 "/>
<polygon style="fill:#993028;" points="54.483,46.979 53.483,45.979 53.483,43.979 54.483,42.979 56.483,42.979 57.483,43.979 
	57.483,45.979 56.483,46.979 "/>
<path style="fill:#ED7161;" d="M28.983,30.979c-0.169,0-0.332-0.01-0.5-0.011v23.011h2V30.945
	C29.984,30.959,29.489,30.979,28.983,30.979z"/>
<path style="fill:#ED7161;" d="M44.483,28.421v22.558h2V27.601C45.841,27.89,45.178,28.165,44.483,28.421z"/>
<path style="fill:#ED7161;" d="M12.483,28.029v22.95h2V28.766C13.793,28.535,13.126,28.29,12.483,28.029z"/>
<path style="fill:#BDC3C7;" d="M28.983,30.979c-6.976,0-13.806-1.441-18.739-3.954c-5.004-2.549-7.761-5.939-7.761-9.546
	s2.757-6.997,7.762-9.546c4.932-2.513,11.762-3.954,18.738-3.954s13.806,1.441,18.739,3.954c5.004,2.549,7.761,5.939,7.761,9.546
	s-2.757,6.997-7.762,9.546C42.789,29.538,35.959,30.979,28.983,30.979z"/>
<path style="fill:#ECF0F1;" d="M28.983,26.979c-6.366,0-12.534-1.282-16.923-3.519c-3.492-1.778-5.577-4.015-5.577-5.981
	s2.085-4.203,5.577-5.981c4.389-2.236,10.557-3.519,16.923-3.519s12.534,1.282,16.923,3.519c3.492,1.778,5.577,4.015,5.577,5.981
	s-2.085,4.203-5.577,5.981C41.517,25.697,35.349,26.979,28.983,26.979z"/>
<path style="fill:#AD977F;" d="M13.851,11.06l7.649-0.956c0.664-0.083,1.332-0.125,2.002-0.125h32.496c0.828,0,1.5,0.672,1.5,1.5v0
	c0,0.828-0.672,1.5-1.5,1.5H23.501c-0.669,0-1.338-0.042-2.002-0.125l-7.649-0.956C13.357,11.837,13.357,11.122,13.851,11.06z"/>
<g>
	<path style="fill:#CBB292;" d="M41.373,9.979l12.49-7.18c0.717-0.414,0.963-1.332,0.549-2.049
		c-0.414-0.717-1.332-0.963-2.049-0.549l-17.01,9.778H41.373z"/>
	<path style="fill:#CBB292;" d="M30.135,12.979l-5.749,3.305c-0.58,0.335-1.138,0.705-1.671,1.109l-6.146,4.652
		c-0.397,0.3-0.039,0.92,0.419,0.726l7.102-2.996c0.617-0.26,1.216-0.558,1.796-0.893l10.268-5.903H30.135z"/>
</g>
<g>
</g>
<g>
</g>
<g>
</g>
<g>
</g>
<g>
</g>
<g>
</g>
<g>
</g>
<g>
</g>
<g>
</g>
<g>
</g>
<g>
</g>
<g>
</g>
<g>
</g>
<g>
</g>
<g>
</g>
</svg>
