<?xml version="1.0" encoding="iso-8859-1"?>
<!-- Generator: Adobe Illustrator 19.0.0, SVG Export Plug-In . SVG Version: 6.00 Build 0)  -->
<svg version="1.1" id="Capa_1" xmlns="http://www.w3.org/2000/svg" xmlns:xlink="http://www.w3.org/1999/xlink" x="0px" y="0px"
	 viewBox="0 0 58.007 58.007" style="enable-background:new 0 0 58.007 58.007;" xml:space="preserve">
<g>
	<path style="fill:#ED7161;" d="M11.818,44.886l11.44-11.44c-0.24-0.585-0.39-1.213-0.437-1.855
		c-0.107-1.442-0.009-3.48,0.769-5.958c0.571-1.819-0.66-3.802-2.558-3.984c-1.113-0.107-2.429,0.372-3.816,2.146
		c0,0-2.795,9.183-7.628,10.477c-2.22,0.595-4.371,1.473-6.073,3.018c-2.734,2.482-5.117,6.599-1.814,12.488
		c1.149,2.05,2.743,3.821,4.6,5.261c0.544,0.422,1.161,0.865,1.838,1.292c1.177,0.744,2.423,1.216,3.679,1.467V44.886z"/>
</g>
<path style="fill:#ECF0F1;" d="M28.529,36.523c0,0-1.425,0.452-3.166-0.58c-0.974-0.577-1.683-1.469-2.106-2.497l-11.44,11.44V57.8
	c5.864,1.173,11.974-2.733,12.58-9.203c0.008-0.081,0.015-0.162,0.021-0.245c0.281-3.734,2.52-7.087,6.038-8.367
	c0.351-0.128,0.719-0.246,1.106-0.352c1.022-0.281,1.733-1.328,1.423-2.342C32.706,36.369,31.645,35.661,28.529,36.523z"/>
<polygon style="fill:#E4C05C;" points="42.093,7 41.093,6 41.093,4 42.093,3 44.093,3 45.093,4 45.093,6 44.093,7 "/>
<polygon style="fill:#E4C05C;" points="48.093,4 47.093,3 47.093,1 48.093,0 50.093,0 51.093,1 51.093,3 50.093,4 "/>
<path style="fill:#7F6E5D;" d="M38.925,20.994l6.473-7.498c-2.421,0.193-4.3-1.994-4.23-4.255l-6.463,7.554
	c0.02,0.017,0.046,0.024,0.065,0.043L38.925,20.994z"/>
<path style="fill:#7F6E5D;" d="M29.498,22.88l-2.618,3.06c0.02,0.017,0.046,0.024,0.065,0.043l4.118,4.119l2.631-3.048
	c-0.019-0.016-0.043-0.023-0.062-0.041L29.498,22.88z"/>
<path style="fill:#7F6E5D;" d="M25.586,27.453l-2.796,3.268c0.003,0.308,0.012,0.603,0.032,0.87
	c0.131,1.771,1.015,3.447,2.543,4.352c0.157,0.093,0.307,0.161,0.457,0.231l3.941-4.565c-0.019-0.016-0.043-0.023-0.061-0.041
	L25.586,27.453z"/>
<path style="fill:#7F6E5D;" d="M33.411,18.307l-2.619,3.061c0.02,0.017,0.046,0.024,0.065,0.043l4.137,4.137l2.63-3.047
	c-0.019-0.016-0.043-0.023-0.061-0.041L33.411,18.307z"/>
<g>
	<path style="fill:#494038;" d="M34.77,16.838c-0.019-0.019-0.045-0.026-0.065-0.043l-1.294,1.512l4.153,4.153
		c0.018,0.018,0.042,0.024,0.061,0.041l1.301-1.507L34.77,16.838z"/>
	<path style="fill:#494038;" d="M30.792,21.368l-1.294,1.512l4.134,4.134c0.018,0.018,0.042,0.024,0.062,0.041l1.301-1.507
		l-4.137-4.137C30.838,21.392,30.812,21.385,30.792,21.368z"/>
	<path style="fill:#494038;" d="M26.88,25.94l-1.294,1.512l4.115,4.116c0.018,0.018,0.042,0.024,0.061,0.041l1.301-1.507
		l-4.118-4.119C26.925,25.964,26.9,25.958,26.88,25.94z"/>
</g>
<path style="fill:#E4C05C;" d="M12.022,46.091c-0.256,0-0.512-0.098-0.707-0.293c-0.391-0.391-0.391-1.023,0-1.414l9.081-9.081
	c0.391-0.391,1.023-0.391,1.414,0s0.391,1.023,0,1.414l-9.081,9.081C12.534,45.993,12.278,46.091,12.022,46.091z"/>
<path style="fill:#E4C05C;" d="M9.901,43.97c-0.256,0-0.512-0.098-0.707-0.293c-0.391-0.391-0.391-1.023,0-1.414l10.081-10.081
	c0.391-0.391,1.023-0.391,1.414,0s0.391,1.023,0,1.414L10.608,43.677C10.413,43.872,10.157,43.97,9.901,43.97z"/>
<path style="fill:#E4C05C;" d="M14.144,48.212c-0.256,0-0.512-0.098-0.707-0.293c-0.391-0.391-0.391-1.023,0-1.414l9.081-9.081
	c0.391-0.391,1.023-0.391,1.414,0s0.391,1.023,0,1.414l-9.081,9.081C14.655,48.114,14.4,48.212,14.144,48.212z"/>
<polygon style="fill:#35495E;" points="13.435,52.392 4.95,43.907 7.78,40.848 16.265,49.333 "/>
<path style="fill:#CBB292;" d="M57.767,1.53c-0.284-0.854-0.989-1.668-2.674-1.511c0,0-1.678,0.143-4.029,0.952L51.093,1v2l-1,1h-2
	l-1-1V2.795c-0.662,0.387-1.331,0.83-2,1.331V6l-1,1h-2l-0.06-0.06c-2.421,2.978,0.506,7.628,4.268,6.392
	c0.476-0.156,0.959-0.39,1.433-0.726c0.659-0.467,1.126-1.16,1.37-1.93c0.255-0.803,0.425-1.974,1.618-3.084
	c0.602-0.56,1.887-1.034,2.876-1.438c0.773-0.316,2.194-0.13,3.393-1.427C57.785,3.868,58.136,2.64,57.767,1.53z"/>
<g>
</g>
<g>
</g>
<g>
</g>
<g>
</g>
<g>
</g>
<g>
</g>
<g>
</g>
<g>
</g>
<g>
</g>
<g>
</g>
<g>
</g>
<g>
</g>
<g>
</g>
<g>
</g>
<g>
</g>
</svg>
