<?xml version="1.0" encoding="iso-8859-1"?>
<!-- Generator: Adobe Illustrator 19.0.0, SVG Export Plug-In . SVG Version: 6.00 Build 0)  -->
<svg version="1.1" id="Capa_1" xmlns="http://www.w3.org/2000/svg" xmlns:xlink="http://www.w3.org/1999/xlink" x="0px" y="0px"
	 viewBox="0 0 59 59" style="enable-background:new 0 0 59 59;" xml:space="preserve">
<path style="fill:#F0C419;" d="M53.5,59L53.5,59c-0.828,0-1.5-0.672-1.5-1.5v-7c0-0.828,0.672-1.5,1.5-1.5l0,0
	c0.828,0,1.5,0.672,1.5,1.5v7C55,58.328,54.328,59,53.5,59z"/>
<path style="fill:#DC9628;" d="M57,56h-2v-4h2c1.105,0,2,0.895,2,2v0C59,55.105,58.105,56,57,56z"/>
<line style="fill:none;stroke:#E4C05C;stroke-width:2;stroke-linecap:round;stroke-linejoin:round;stroke-miterlimit:10;" x1="1" y1="1" x2="45" y2="1"/>
<path style="fill:#F9EAB0;" d="M45.271,51c-3.339,3.404-7.886,5.601-12.947,5.933C31.888,56.973,31.447,57,31,57h21v-6H45.271z"/>
<path style="fill:#E4C05C;" d="M31,17c-11.046,0-20,8.954-20,20c0,11.046,8.954,20,20,20s20-8.954,20-20C51,25.954,42.046,17,31,17z
	 M31,52c-8.284,0-15-6.716-15-15c0-8.284,6.716-15,15-15s15,6.716,15,15C46,45.284,39.284,52,31,52z"/>
<path style="fill:#EDAC56;" d="M36,52.128c-0.204,0-0.406-0.063-0.577-0.184C35.158,51.757,35,51.453,35,51.128
	C35,49.403,33.597,48,31.872,48H28c-0.882,0-1.717-0.389-2.29-1.065c-0.571-0.676-0.814-1.565-0.667-2.442
	C25.282,43.071,26.605,42,28.122,42h10.91c0.293,0,0.571-0.13,0.763-0.357c0.112-0.133,0.29-0.415,0.222-0.818
	C39.938,40.362,39.453,40,38.91,40H28c-0.882,0-1.717-0.389-2.29-1.065c-0.571-0.676-0.814-1.565-0.667-2.442
	C25.282,35.071,26.605,34,28.122,34h10.91c0.293,0,0.571-0.13,0.763-0.357c0.112-0.133,0.29-0.415,0.222-0.818
	C39.938,32.362,39.453,32,38.91,32H28c-0.882,0-1.717-0.389-2.29-1.065c-0.571-0.676-0.814-1.565-0.667-2.442
	C25.282,27.071,26.605,26,28.122,26h3.75C33.597,26,35,24.597,35,22.872c0-0.325,0.158-0.629,0.423-0.816
	c0.265-0.188,0.604-0.235,0.911-0.126C42.713,24.188,47,30.245,47,37s-4.287,12.812-10.666,15.07
	C36.225,52.109,36.112,52.128,36,52.128z M28.122,44c-0.543,0-1.029,0.362-1.106,0.824c-0.068,0.403,0.11,0.686,0.222,0.818
	C27.429,45.87,27.707,46,28,46h3.872c2.341,0,4.321,1.577,4.933,3.725C41.753,47.468,45,42.498,45,37s-3.247-10.468-8.195-12.725
	C36.193,26.423,34.213,28,31.872,28h-3.75c-0.543,0-1.029,0.362-1.106,0.824c-0.068,0.403,0.11,0.686,0.222,0.818
	C27.429,29.87,27.707,30,28,30h10.91c1.516,0,2.84,1.071,3.079,2.492c0.147,0.877-0.096,1.767-0.667,2.442
	C40.749,35.611,39.914,36,39.031,36h-10.91c-0.543,0-1.029,0.362-1.106,0.824c-0.068,0.403,0.11,0.686,0.222,0.818
	C27.429,37.87,27.707,38,28,38h10.91c1.516,0,2.84,1.071,3.079,2.492c0.147,0.877-0.096,1.767-0.667,2.442
	C40.749,43.611,39.914,44,39.031,44H28.122z"/>
<path style="fill:#DC9628;" d="M32.647,9H14.261c0.303,0.913,0.586,1.91,0.844,3h16.73C32.076,11.004,32.345,9.989,32.647,9z"/>
<path style="fill:#F0C419;" d="M7.928,1c3.685,0,5.966,3.469,7.415,8h16.249C32.844,4.763,34.698,1,38,1H7.928z"/>
<path style="fill:#F0C419;" d="M16.158,12c0.778,3.377,1.217,7.018,1.502,10.128c3.229-2.898,7.397-4.755,12-5.06
	c0.351-1.465,0.711-3.24,1.144-5.068H16.158z"/>
<polygon style="fill:#FBD490;stroke:#DC9628;stroke-width:2;stroke-linecap:round;stroke-linejoin:round;stroke-miterlimit:10;" points="
	17.158,35 16.158,34 16.158,32 17.158,31 19.158,31 20.158,32 20.158,34 19.158,35 "/>
<polygon style="fill:#FBD490;stroke:#DC9628;stroke-width:2;stroke-linecap:round;stroke-linejoin:round;stroke-miterlimit:10;" points="
	17.158,43 16.158,42 16.158,40 17.158,39 19.158,39 20.158,40 20.158,42 19.158,43 "/>
<path style="fill:#F9EAB0;" d="M26.11,9c0.25-2.624,0.511-5.293,0.717-8H20.09c0.163,2.626,0.366,5.292,0.579,8H26.11z"/>
<path style="fill:#F9EAB0;" d="M25.546,17.795c0.118-1.914,0.233-3.843,0.333-5.795h-4.855c0.102,2.467,0.224,4.968,0.354,7.5
	C22.684,18.78,24.081,18.21,25.546,17.795z"/>
<g>
</g>
<g>
</g>
<g>
</g>
<g>
</g>
<g>
</g>
<g>
</g>
<g>
</g>
<g>
</g>
<g>
</g>
<g>
</g>
<g>
</g>
<g>
</g>
<g>
</g>
<g>
</g>
<g>
</g>
</svg>
