<?xml version="1.0" encoding="iso-8859-1"?>
<!-- Generator: Adobe Illustrator 19.0.0, SVG Export Plug-In . SVG Version: 6.00 Build 0)  -->
<svg version="1.1" id="Capa_1" xmlns="http://www.w3.org/2000/svg" xmlns:xlink="http://www.w3.org/1999/xlink" x="0px" y="0px"
	 viewBox="0 0 56 56" style="enable-background:new 0 0 56 56;" xml:space="preserve">
<polygon style="fill:none;stroke:#E4C05C;stroke-width:2;stroke-linecap:round;stroke-linejoin:round;stroke-miterlimit:10;" points="
	46.762,21.99 45.762,20.99 45.762,18.99 46.762,17.99 48.762,17.99 49.762,18.99 49.762,20.99 48.762,21.99 "/>
<polygon style="fill:#5E5F62;" points="3.752,37 41.752,37 35.752,7 9.752,7 "/>
<rect x="17.752" y="7" style="fill:#FFFFFF;" width="10" height="30"/>
<rect x="17.752" y="33" style="fill:#BDC3C7;" width="2" height="2"/>
<rect x="17.752" y="29" style="fill:#BDC3C7;" width="2" height="2"/>
<rect x="17.752" y="25" style="fill:#BDC3C7;" width="2" height="2"/>
<rect x="17.752" y="21" style="fill:#BDC3C7;" width="2" height="2"/>
<rect x="17.752" y="17" style="fill:#BDC3C7;" width="2" height="2"/>
<rect x="17.752" y="13" style="fill:#BDC3C7;" width="2" height="2"/>
<rect x="17.752" y="9" style="fill:#BDC3C7;" width="2" height="2"/>
<rect x="25.752" y="33" style="fill:#BDC3C7;" width="2" height="2"/>
<rect x="25.752" y="29" style="fill:#BDC3C7;" width="2" height="2"/>
<rect x="25.752" y="25" style="fill:#BDC3C7;" width="2" height="2"/>
<rect x="25.752" y="21" style="fill:#BDC3C7;" width="2" height="2"/>
<rect x="25.752" y="17" style="fill:#BDC3C7;" width="2" height="2"/>
<rect x="25.752" y="13" style="fill:#BDC3C7;" width="2" height="2"/>
<rect x="25.752" y="9" style="fill:#BDC3C7;" width="2" height="2"/>
<g>
	<polygon style="fill:#AF8066;" points="34.204,7 32.907,0 12.596,0 11.299,7 	"/>
	<polygon style="fill:#AF8066;" points="39.765,37 5.739,37 2.217,53 43.286,53 	"/>
</g>
<rect x="5.752" y="53" style="fill:#805333;" width="5" height="3"/>
<rect x="34.752" y="53" style="fill:#805333;" width="5" height="3"/>
<line style="fill:none;stroke:#E4C05C;stroke-width:2;stroke-linecap:round;stroke-linejoin:round;stroke-miterlimit:10;" x1="24.252" y1="43.5" x2="46.262" y2="21.49"/>
<line style="fill:none;stroke:#E4C05C;stroke-width:2;stroke-linecap:round;stroke-linejoin:round;stroke-miterlimit:10;" x1="49.293" y1="18.521" x2="52.783" y2="15.031"/>
<polygon style="fill:none;stroke:#E4C05C;stroke-width:2;stroke-linecap:round;stroke-linejoin:round;stroke-miterlimit:10;" points="
	21.752,47 20.752,46 20.752,44 21.752,43 23.752,43 24.752,44 24.752,46 23.752,47 "/>
<g>
</g>
<g>
</g>
<g>
</g>
<g>
</g>
<g>
</g>
<g>
</g>
<g>
</g>
<g>
</g>
<g>
</g>
<g>
</g>
<g>
</g>
<g>
</g>
<g>
</g>
<g>
</g>
<g>
</g>
</svg>
