<?xml version="1.0" encoding="iso-8859-1"?>
<!-- Generator: Adobe Illustrator 19.0.0, SVG Export Plug-In . SVG Version: 6.00 Build 0)  -->
<svg version="1.1" id="Capa_1" xmlns="http://www.w3.org/2000/svg" xmlns:xlink="http://www.w3.org/1999/xlink" x="0px" y="0px"
	 viewBox="0 0 57 57" style="enable-background:new 0 0 57 57;" xml:space="preserve">
<circle style="fill:#E4C05C;" cx="12.59" cy="12.59" r="6"/>
<circle style="fill:#E4C05C;" cx="6" cy="28.5" r="6"/>
<circle style="fill:#E4C05C;" cx="28.436" cy="6.064" r="6"/>
<circle style="fill:#E4C05C;" cx="44.41" cy="44.41" r="6"/>
<circle style="fill:#E4C05C;" cx="51" cy="28.5" r="6"/>
<circle style="fill:#E4C05C;" cx="28.564" cy="50.936" r="6"/>
<g>
	<path style="fill:#CB8252;" d="M33.267,9.612c3.304,0.825,6.436,2.514,9.022,5.099c2.582,2.582,4.269,5.709,5.096,9.008
		C48.391,22.958,49.64,22.5,51,22.5c0.073,0,0.14,0.019,0.212,0.021c-1.021-3.896-3.041-7.585-6.095-10.638
		c-3.073-3.073-6.788-5.098-10.71-6.113c0.005,0.099,0.03,0.193,0.03,0.294C34.436,7.393,33.999,8.618,33.267,9.612z"/>
	<path style="fill:#CB8252;" d="M23.733,47.388c-3.304-0.83-6.438-2.515-9.022-5.099c-2.582-2.582-4.269-5.71-5.096-9.009
		C8.61,34.042,7.36,34.5,6,34.5c-0.073,0-0.14-0.019-0.212-0.021c1.021,3.896,3.041,7.585,6.095,10.638
		c3.073,3.073,6.788,5.112,10.712,6.127c-0.005-0.104-0.031-0.202-0.031-0.308C22.564,49.607,23.001,48.383,23.733,47.388z"/>
	<path style="fill:#CB8252;" d="M38.42,44.513c0.004,0.243,0.021,0.486,0.054,0.727c-1.612,0.955-3.329,1.666-5.1,2.122
		c0.744,0.999,1.189,2.233,1.189,3.575c0,0.093-0.023,0.18-0.027,0.272c2.008-0.532,3.957-1.338,5.795-2.408
		c-0.054-0.05-0.111-0.095-0.164-0.148C39.022,47.507,38.446,46.014,38.42,44.513z"/>
	<path style="fill:#CB8252;" d="M47.372,33.271c-0.457,1.805-1.158,3.562-2.137,5.203c-0.24-0.033-0.482-0.049-0.724-0.054
		c1.502,0.025,2.996,0.602,4.142,1.748c0.054,0.054,0.101,0.113,0.153,0.169c1.083-1.855,1.874-3.829,2.406-5.857
		C51.14,34.481,51.072,34.5,51,34.5C49.635,34.5,48.38,34.039,47.372,33.271z"/>
	<path style="fill:#CB8252;" d="M18.581,12.489c-0.004-0.242-0.021-0.483-0.054-0.724c1.612-0.962,3.337-1.656,5.109-2.114
		c-0.75-1.002-1.2-2.241-1.2-3.588c0-0.089,0.022-0.172,0.026-0.261c-2.008,0.532-3.962,1.32-5.799,2.392
		c0.056,0.052,0.115,0.098,0.169,0.153C17.979,9.493,18.555,10.988,18.581,12.489z"/>
	<path style="fill:#CB8252;" d="M9.628,23.729c0.457-1.805,1.158-3.562,2.137-5.203c0.24,0.033,0.482,0.049,0.724,0.054
		c-1.502-0.025-2.996-0.602-4.142-1.748c-0.054-0.054-0.101-0.113-0.153-0.169c-1.083,1.855-1.874,3.829-2.406,5.857
		C5.86,22.519,5.928,22.5,6,22.5C7.365,22.5,8.62,22.961,9.628,23.729z"/>
</g>
<g>
</g>
<g>
</g>
<g>
</g>
<g>
</g>
<g>
</g>
<g>
</g>
<g>
</g>
<g>
</g>
<g>
</g>
<g>
</g>
<g>
</g>
<g>
</g>
<g>
</g>
<g>
</g>
<g>
</g>
</svg>
