<?xml version="1.0" encoding="iso-8859-1"?>
<!-- Generator: Adobe Illustrator 19.0.0, SVG Export Plug-In . SVG Version: 6.00 Build 0)  -->
<svg version="1.1" id="Capa_1" xmlns="http://www.w3.org/2000/svg" xmlns:xlink="http://www.w3.org/1999/xlink" x="0px" y="0px"
	 viewBox="0 0 58 58" style="enable-background:new 0 0 58 58;" xml:space="preserve">
<path style="fill:#D7DCE0;" d="M58,48H0V3.503C0,1.568,1.568,0,3.503,0h50.994C56.432,0,58,1.568,58,3.503V48z"/>
<path style="fill:#556080;" d="M0,48v6.497C0,56.432,1.568,58,3.503,58h50.994C56.432,58,58,56.432,58,54.497V48H0z"/>
<circle style="fill:#2C2F38;" cx="24" cy="24" r="22"/>
<path style="fill:#35495E;" d="M38.308,34.864l4.722-4.722C43.654,28.206,44,26.144,44,24c0-11.046-8.954-20-20-20S4,12.954,4,24
	c0,11.046,8.954,20,20,20c6.401,0,12.086-3.019,15.746-7.697L38.308,34.864z"/>
<polygon style="fill:#FFFFFF;" points="5,55 4,54 4,52 5,51 7,51 8,52 8,54 7,55 "/>
<polygon style="fill:#FFFFFF;" points="12,55 11,54 11,52 12,51 14,51 15,52 15,54 14,55 "/>
<polygon style="fill:#FFFFFF;" points="19,55 18,54 18,52 19,51 21,51 22,52 22,54 21,55 "/>
<polygon style="fill:#FFFFFF;" points="26,55 25,54 25,52 26,51 28,51 29,52 29,54 28,55 "/>
<path style="fill:#556080;" d="M51,46c-0.553,0-1-0.448-1-1v-5c0-0.552,0.447-1,1-1s1,0.448,1,1v5C52,45.552,51.553,46,51,46z"/>
<path style="fill:#556080;" d="M51,38c-0.553,0-1-0.448-1-1v-3c0-0.552,0.447-1,1-1s1,0.448,1,1v3C52,37.552,51.553,38,51,38z"/>
<circle style="fill:#556080;" cx="51" cy="7" r="3"/>
<path style="fill:#F3D55B;" d="M24,15c-4.971,0-9,4.029-9,9c0,4.971,4.029,9,9,9s9-4.029,9-9C33,19.029,28.971,15,24,15z M24,28
	c-2.209,0-4-1.791-4-4c0-2.209,1.791-4,4-4s4,1.791,4,4C28,26.209,26.209,28,24,28z"/>
<rect x="48" y="37" style="fill:#FFFFFF;" width="6" height="3"/>
<polyline style="fill:none;stroke:#464F5D;stroke-width:2;stroke-linecap:round;stroke-miterlimit:10;" points="44.672,31.328 
	51,25 51,7 "/>
<rect x="40.197" y="30.303" transform="matrix(0.7071 0.7071 -0.7071 0.7071 36.2617 -19.9368)" style="fill:#FFFFFF;" width="4" height="7"/>
<circle style="fill:#2C2F38;" cx="24" cy="24" r="4"/>
<g>
</g>
<g>
</g>
<g>
</g>
<g>
</g>
<g>
</g>
<g>
</g>
<g>
</g>
<g>
</g>
<g>
</g>
<g>
</g>
<g>
</g>
<g>
</g>
<g>
</g>
<g>
</g>
<g>
</g>
</svg>
