<?xml version="1.0" encoding="iso-8859-1"?>
<!-- Generator: Adobe Illustrator 19.0.0, SVG Export Plug-In . SVG Version: 6.00 Build 0)  -->
<svg version="1.1" id="Capa_1" xmlns="http://www.w3.org/2000/svg" xmlns:xlink="http://www.w3.org/1999/xlink" x="0px" y="0px"
	 viewBox="0 0 58 58" style="enable-background:new 0 0 58 58;" xml:space="preserve">
<path style="fill:#797979;" d="M58,50H0V3.503C0,1.568,1.568,0,3.503,0h50.994C56.432,0,58,1.568,58,3.503V50z"/>
<polygon style="fill:#5E5F62;" points="4,47 3,46 3,44 4,43 6,43 7,44 7,46 6,47 "/>
<polygon style="fill:#5E5F62;" points="11,47 10,46 10,44 11,43 13,43 14,44 14,46 13,47 "/>
<polygon style="fill:#D1D4D1;" points="4,45 3,44 3,42 4,41 6,41 7,42 7,44 6,45 "/>
<polygon style="fill:#D1D4D1;" points="11,45 10,44 10,42 11,41 13,41 14,42 14,44 13,45 "/>
<path style="fill:#D1D4D1;" d="M54.497,0H40.025C40.021,0.168,40,0.331,40,0.5C40,10.165,47.835,18,57.5,18
	c0.169,0,0.332-0.021,0.5-0.025V3.503C58,1.568,56.432,0,54.497,0z"/>
<circle style="fill:#95A5A5;" cx="51" cy="7" r="4"/>
<path style="fill:none;stroke:#BDC3C7;stroke-width:2;stroke-linecap:round;stroke-miterlimit:10;" d="M41.86,35
	C47.736,28.201,51,19.49,51,10.444V7"/>
<path style="fill:#ECF0F1;" d="M42,34c-2.757,0-5,2.243-5,5v1h6v-6H42z"/>
<path style="fill:#3D324C;" d="M22,3C11.507,3,3,11.507,3,22s8.507,19,19,19s19-8.507,19-19S32.493,3,22,3z M22,26
	c-2.209,0-4-1.791-4-4c0-2.209,1.791-4,4-4s4,1.791,4,4C26,24.209,24.209,26,22,26z"/>
<g>
	<path style="fill:#ECF0F1;" d="M52,31h2c0.553,0,1-0.448,1-1s-0.447-1-1-1h-2c-0.553,0-1,0.448-1,1S51.447,31,52,31z"/>
	<path style="fill:#ECF0F1;" d="M54,32h-2c-0.553,0-1,0.448-1,1s0.447,1,1,1h2c0.553,0,1-0.448,1-1S54.553,32,54,32z"/>
	<path style="fill:#ECF0F1;" d="M54,35h-2c-0.553,0-1,0.448-1,1s0.447,1,1,1h2c0.553,0,1-0.448,1-1S54.553,35,54,35z"/>
</g>
<path style="fill:#484848;" d="M0,50v4.497C0,56.432,1.568,58,3.503,58h50.994C56.432,58,58,56.432,58,54.497V50H0z"/>
<g>
	<circle style="fill:#514368;" cx="21.5" cy="4.5" r="0.5"/>
	<circle style="fill:#514368;" cx="23.5" cy="4.5" r="0.5"/>
	<circle style="fill:#514368;" cx="22.5" cy="5.5" r="0.5"/>
	<circle style="fill:#514368;" cx="20.5" cy="5.5" r="0.5"/>
	<circle style="fill:#514368;" cx="18.5" cy="5.5" r="0.5"/>
	<circle style="fill:#514368;" cx="16.5" cy="5.5" r="0.5"/>
	<circle style="fill:#514368;" cx="15.5" cy="6.5" r="0.5"/>
	<circle style="fill:#514368;" cx="17.5" cy="6.5" r="0.5"/>
	<circle style="fill:#514368;" cx="19.5" cy="6.5" r="0.5"/>
	<circle style="fill:#514368;" cx="21.5" cy="6.5" r="0.5"/>
	<circle style="fill:#514368;" cx="23.5" cy="6.5" r="0.5"/>
	<circle style="fill:#514368;" cx="25.5" cy="6.5" r="0.5"/>
	<circle style="fill:#514368;" cx="24.5" cy="5.5" r="0.5"/>
	<circle style="fill:#514368;" cx="25.5" cy="4.5" r="0.5"/>
	<circle style="fill:#514368;" cx="27.5" cy="6.5" r="0.5"/>
	<circle style="fill:#514368;" cx="26.5" cy="5.5" r="0.5"/>
	<circle style="fill:#514368;" cx="27.5" cy="4.5" r="0.5"/>
	<circle style="fill:#514368;" cx="29.5" cy="6.5" r="0.5"/>
	<circle style="fill:#514368;" cx="31.5" cy="6.5" r="0.5"/>
	<circle style="fill:#514368;" cx="31.5" cy="8.5" r="0.5"/>
	<circle style="fill:#514368;" cx="30.5" cy="7.5" r="0.5"/>
	<circle style="fill:#514368;" cx="32.5" cy="7.5" r="0.5"/>
	<circle style="fill:#514368;" cx="33.5" cy="8.5" r="0.5"/>
	<circle style="fill:#514368;" cx="34.5" cy="9.5" r="0.5"/>
	<circle style="fill:#514368;" cx="35.5" cy="10.5" r="0.5"/>
	<circle style="fill:#514368;" cx="36.5" cy="11.5" r="0.5"/>
	<circle style="fill:#514368;" cx="37.5" cy="12.5" r="0.5"/>
	<circle style="fill:#514368;" cx="35.5" cy="12.5" r="0.5"/>
	<circle style="fill:#514368;" cx="36.5" cy="13.5" r="0.5"/>
	<circle style="fill:#514368;" cx="37.5" cy="14.5" r="0.5"/>
	<circle style="fill:#514368;" cx="38.5" cy="15.5" r="0.5"/>
	<circle style="fill:#514368;" cx="36.5" cy="15.5" r="0.5"/>
	<circle style="fill:#514368;" cx="37.5" cy="16.5" r="0.5"/>
	<circle style="fill:#514368;" cx="38.5" cy="17.5" r="0.5"/>
	<circle style="fill:#514368;" cx="37.5" cy="18.5" r="0.5"/>
	<circle style="fill:#514368;" cx="37.5" cy="20.5" r="0.5"/>
	<circle style="fill:#514368;" cx="37.5" cy="22.5" r="0.5"/>
	<circle style="fill:#514368;" cx="39.5" cy="18.5" r="0.5"/>
	<circle style="fill:#514368;" cx="38.5" cy="19.5" r="0.5"/>
	<circle style="fill:#514368;" cx="39.5" cy="20.5" r="0.5"/>
	<circle style="fill:#514368;" cx="38.5" cy="21.5" r="0.5"/>
	<circle style="fill:#514368;" cx="39.5" cy="22.5" r="0.5"/>
	<circle style="fill:#514368;" cx="38.5" cy="23.5" r="0.5"/>
	<circle style="fill:#514368;" cx="39.5" cy="24.5" r="0.5"/>
	<circle style="fill:#514368;" cx="38.5" cy="25.5" r="0.5"/>
	<circle style="fill:#514368;" cx="37.5" cy="24.5" r="0.5"/>
	<circle style="fill:#514368;" cx="39.5" cy="26.5" r="0.5"/>
	<circle style="fill:#514368;" cx="38.5" cy="27.5" r="0.5"/>
	<circle style="fill:#514368;" cx="37.5" cy="26.5" r="0.5"/>
	<circle style="fill:#514368;" cx="37.5" cy="28.5" r="0.5"/>
	<circle style="fill:#514368;" cx="36.5" cy="29.5" r="0.5"/>
	<circle style="fill:#514368;" cx="38.5" cy="29.5" r="0.5"/>
	<circle style="fill:#514368;" cx="37.5" cy="30.5" r="0.5"/>
	<circle style="fill:#514368;" cx="36.5" cy="31.5" r="0.5"/>
	<circle style="fill:#514368;" cx="34.5" cy="31.5" r="0.5"/>
	<circle style="fill:#514368;" cx="33.5" cy="32.5" r="0.5"/>
	<circle style="fill:#514368;" cx="35.5" cy="30.5" r="0.5"/>
	<circle style="fill:#514368;" cx="35.5" cy="32.5" r="0.5"/>
	<circle style="fill:#514368;" cx="34.5" cy="33.5" r="0.5"/>
	<circle style="fill:#514368;" cx="32.5" cy="33.5" r="0.5"/>
	<circle style="fill:#514368;" cx="33.5" cy="34.5" r="0.5"/>
	<circle style="fill:#514368;" cx="34.5" cy="35.5" r="0.5"/>
	<circle style="fill:#514368;" cx="32.5" cy="35.5" r="0.5"/>
	<circle style="fill:#514368;" cx="31.5" cy="36.5" r="0.5"/>
	<circle style="fill:#514368;" cx="29.5" cy="36.5" r="0.5"/>
	<circle style="fill:#514368;" cx="29.5" cy="38.5" r="0.5"/>
	<circle style="fill:#514368;" cx="27.5" cy="38.5" r="0.5"/>
	<circle style="fill:#514368;" cx="26.5" cy="37.5" r="0.5"/>
	<circle style="fill:#514368;" cx="25.5" cy="38.5" r="0.5"/>
	<circle style="fill:#514368;" cx="24.5" cy="39.5" r="0.5"/>
	<circle style="fill:#514368;" cx="23.5" cy="38.5" r="0.5"/>
	<circle style="fill:#514368;" cx="22.5" cy="39.5" r="0.5"/>
	<circle style="fill:#514368;" cx="21.5" cy="38.5" r="0.5"/>
	<circle style="fill:#514368;" cx="20.5" cy="39.5" r="0.5"/>
	<circle style="fill:#514368;" cx="19.5" cy="38.5" r="0.5"/>
	<circle style="fill:#514368;" cx="18.5" cy="39.5" r="0.5"/>
	<circle style="fill:#514368;" cx="18.5" cy="37.5" r="0.5"/>
	<circle style="fill:#514368;" cx="16.5" cy="37.5" r="0.5"/>
	<circle style="fill:#514368;" cx="17.5" cy="38.5" r="0.5"/>
	<circle style="fill:#514368;" cx="15.5" cy="38.5" r="0.5"/>
	<circle style="fill:#514368;" cx="14.5" cy="37.5" r="0.5"/>
	<circle style="fill:#514368;" cx="15.5" cy="36.5" r="0.5"/>
	<circle style="fill:#514368;" cx="13.5" cy="36.5" r="0.5"/>
	<circle style="fill:#514368;" cx="12.5" cy="37.5" r="0.5"/>
	<circle style="fill:#514368;" cx="12.5" cy="35.5" r="0.5"/>
	<circle style="fill:#514368;" cx="11.5" cy="36.5" r="0.5"/>
	<circle style="fill:#514368;" cx="10.5" cy="35.5" r="0.5"/>
	<circle style="fill:#514368;" cx="11.5" cy="34.5" r="0.5"/>
	<circle style="fill:#514368;" cx="10.5" cy="33.5" r="0.5"/>
	<circle style="fill:#514368;" cx="9.5" cy="34.5" r="0.5"/>
	<circle style="fill:#514368;" cx="9.5" cy="32.5" r="0.5"/>
	<circle style="fill:#514368;" cx="7.5" cy="32.5" r="0.5"/>
	<circle style="fill:#514368;" cx="8.5" cy="31.5" r="0.5"/>
	<circle style="fill:#514368;" cx="7.5" cy="30.5" r="0.5"/>
	<circle style="fill:#514368;" cx="6.5" cy="29.5" r="0.5"/>
	<circle style="fill:#514368;" cx="5.5" cy="28.5" r="0.5"/>
	<circle style="fill:#514368;" cx="6.5" cy="27.5" r="0.5"/>
	<circle style="fill:#514368;" cx="5.5" cy="26.5" r="0.5"/>
	<circle style="fill:#514368;" cx="4.5" cy="25.5" r="0.5"/>
	<circle style="fill:#514368;" cx="6.5" cy="25.5" r="0.5"/>
	<circle style="fill:#514368;" cx="5.5" cy="24.5" r="0.5"/>
	<circle style="fill:#514368;" cx="4.5" cy="23.5" r="0.5"/>
	<circle style="fill:#514368;" cx="5.5" cy="22.5" r="0.5"/>
	<circle style="fill:#514368;" cx="4.5" cy="21.5" r="0.5"/>
	<circle style="fill:#514368;" cx="5.5" cy="20.5" r="0.5"/>
	<circle style="fill:#514368;" cx="4.5" cy="19.5" r="0.5"/>
	<circle style="fill:#514368;" cx="5.5" cy="18.5" r="0.5"/>
	<circle style="fill:#514368;" cx="4.5" cy="17.5" r="0.5"/>
	<circle style="fill:#514368;" cx="6.5" cy="17.5" r="0.5"/>
	<circle style="fill:#514368;" cx="6.5" cy="19.5" r="0.5"/>
	<circle style="fill:#514368;" cx="6.5" cy="21.5" r="0.5"/>
	<circle style="fill:#514368;" cx="6.5" cy="23.5" r="0.5"/>
	<circle style="fill:#514368;" cx="5.5" cy="16.5" r="0.5"/>
	<circle style="fill:#514368;" cx="6.5" cy="15.5" r="0.5"/>
	<circle style="fill:#514368;" cx="5.5" cy="14.5" r="0.5"/>
	<circle style="fill:#514368;" cx="7.5" cy="14.5" r="0.5"/>
	<circle style="fill:#514368;" cx="6.5" cy="13.5" r="0.5"/>
	<circle style="fill:#514368;" cx="8.5" cy="13.5" r="0.5"/>
	<circle style="fill:#514368;" cx="7.5" cy="12.5" r="0.5"/>
	<circle style="fill:#514368;" cx="9.5" cy="12.5" r="0.5"/>
	<circle style="fill:#514368;" cx="10.5" cy="11.5" r="0.5"/>
	<circle style="fill:#514368;" cx="11.5" cy="10.5" r="0.5"/>
	<circle style="fill:#514368;" cx="8.5" cy="11.5" r="0.5"/>
	<circle style="fill:#514368;" cx="9.5" cy="10.5" r="0.5"/>
	<circle style="fill:#514368;" cx="10.5" cy="9.5" r="0.5"/>
	<circle style="fill:#514368;" cx="11.5" cy="8.5" r="0.5"/>
	<circle style="fill:#514368;" cx="12.5" cy="9.5" r="0.5"/>
	<circle style="fill:#514368;" cx="12.5" cy="7.5" r="0.5"/>
	<circle style="fill:#514368;" cx="13.5" cy="8.5" r="0.5"/>
	<circle style="fill:#514368;" cx="13.5" cy="6.5" r="0.5"/>
	<circle style="fill:#514368;" cx="14.5" cy="7.5" r="0.5"/>
	<circle style="fill:#514368;" cx="7.5" cy="28.5" r="0.5"/>
	<circle style="fill:#514368;" cx="6.5" cy="31.5" r="0.5"/>
	<circle style="fill:#514368;" cx="8.5" cy="33.5" r="0.5"/>
	<circle style="fill:#514368;" cx="24.5" cy="37.5" r="0.5"/>
	<circle style="fill:#514368;" cx="22.5" cy="37.5" r="0.5"/>
	<circle style="fill:#514368;" cx="20.5" cy="37.5" r="0.5"/>
	<circle style="fill:#514368;" cx="31.5" cy="34.5" r="0.5"/>
	<circle style="fill:#514368;" cx="30.5" cy="35.5" r="0.5"/>
	<circle style="fill:#514368;" cx="30.5" cy="37.5" r="0.5"/>
	<circle style="fill:#514368;" cx="28.5" cy="37.5" r="0.5"/>
	<circle style="fill:#514368;" cx="34.5" cy="11.5" r="0.5"/>
	<circle style="fill:#514368;" cx="33.5" cy="10.5" r="0.5"/>
	<circle style="fill:#514368;" cx="32.5" cy="9.5" r="0.5"/>
	<circle style="fill:#514368;" cx="28.5" cy="7.5" r="0.5"/>
	<circle style="fill:#514368;" cx="28.5" cy="5.5" r="0.5"/>
	<circle style="fill:#514368;" cx="14.5" cy="5.5" r="0.5"/>
	<circle style="fill:#514368;" cx="19.5" cy="4.5" r="0.5"/>
	<circle style="fill:#514368;" cx="17.5" cy="4.5" r="0.5"/>
</g>
<path style="fill:#F3D55B;" d="M22,13c-4.971,0-9,4.029-9,9c0,4.971,4.029,9,9,9s9-4.029,9-9C31,17.029,26.971,13,22,13z M22,25
	c-1.657,0-3-1.343-3-3s1.343-3,3-3s3,1.343,3,3S23.657,25,22,25z"/>
<path style="fill:#484848;" d="M52,41c-0.553,0-1-0.448-1-1V28c0-0.552,0.447-1,1-1s1,0.448,1,1v12C53,40.552,52.553,41,52,41z"/>
<path style="fill:#484848;" d="M52,47c-0.553,0-1-0.448-1-1v-3c0-0.552,0.447-1,1-1s1,0.448,1,1v3C53,46.552,52.553,47,52,47z"/>
<rect x="50" y="40" style="fill:#ECF0F1;" width="4" height="3"/>
<circle style="fill:#2C2F38;" cx="22" cy="22" r="3"/>
<g>
</g>
<g>
</g>
<g>
</g>
<g>
</g>
<g>
</g>
<g>
</g>
<g>
</g>
<g>
</g>
<g>
</g>
<g>
</g>
<g>
</g>
<g>
</g>
<g>
</g>
<g>
</g>
<g>
</g>
</svg>
