<?xml version="1.0" encoding="iso-8859-1"?>
<!-- Generator: Adobe Illustrator 19.0.0, SVG Export Plug-In . SVG Version: 6.00 Build 0)  -->
<svg version="1.1" id="Capa_1" xmlns="http://www.w3.org/2000/svg" xmlns:xlink="http://www.w3.org/1999/xlink" x="0px" y="0px"
	 viewBox="0 0 58.896 58.896" style="enable-background:new 0 0 58.896 58.896;" xml:space="preserve">
<path style="fill:#B9A46D;" d="M47.996,3.501c-0.256,0-0.512-0.098-0.707-0.293l-1.414-1.414c-0.391-0.391-0.391-1.023,0-1.414
	s1.023-0.391,1.414,0l1.414,1.414c0.391,0.391,0.391,1.023,0,1.414C48.508,3.403,48.252,3.501,47.996,3.501z"/>
<path style="fill:#B9A46D;" d="M45.167,6.33c-0.256,0-0.512-0.098-0.708-0.293l-1.414-1.415c-0.39-0.391-0.39-1.024,0-1.414
	c0.391-0.391,1.024-0.391,1.415,0l1.414,1.415c0.391,0.391,0.39,1.024,0,1.414C45.679,6.232,45.423,6.33,45.167,6.33z"/>
<path style="fill:#B9A46D;" d="M55.067,16.229c-0.256,0-0.512-0.098-0.707-0.293l-1.415-1.414c-0.391-0.39-0.391-1.023,0-1.414
	s1.023-0.391,1.414,0l1.415,1.414c0.391,0.39,0.391,1.023,0,1.414C55.579,16.132,55.323,16.229,55.067,16.229z"/>
<path style="fill:#B9A46D;" d="M57.896,13.4c-0.256,0-0.512-0.098-0.707-0.293l-1.414-1.414c-0.391-0.391-0.391-1.023,0-1.414
	s1.023-0.391,1.414,0l1.414,1.414c0.391,0.391,0.391,1.023,0,1.414C58.407,13.303,58.151,13.4,57.896,13.4z"/>
<path style="fill:#9B431C;" d="M56.574,4.008l-1.6-1.6c-1.901-1.901-4.984-1.901-6.886,0l-3.633,3.633
	c-0.582,0.582-0.666,1.568-0.07,2.135C45,8.76,45.009,9.731,44.414,10.326L26.605,28.134c-0.63,0.63-0.572,1.653,0.107,2.23
	c0.678,0.577,1.304,1.214,1.87,1.902c0.573,0.697,1.61,0.766,2.248,0.128l17.826-17.826c0.586-0.586,1.536-0.586,2.121,0v0
	c0.586,0.586,1.536,0.586,2.121,0l3.674-3.674C58.475,8.992,58.475,5.91,56.574,4.008z"/>
<path style="fill:#C27037;" d="M34.618,28.607l-3.788,3.788c-0.638,0.638-1.675,0.569-2.248-0.128
	c-0.566-0.688-1.192-1.325-1.87-1.902c-0.679-0.578-0.737-1.6-0.107-2.23l3.77-3.77l-1.148-1.148
	c-6.281-3.508-19.056,2.086-24.395,7.425c-6.444,6.444-6.444,16.891,0,23.334c6.444,6.444,16.891,6.444,23.335,0
	c5.339-5.339,10.933-18.114,7.425-24.395L34.618,28.607z"/>
<circle style="fill:#42241E;" cx="17.37" cy="41.668" r="7.5"/>
<path style="fill:#42241E;" d="M14.799,52.31c-0.256,0-0.512-0.098-0.707-0.293l-7.071-7.071c-0.391-0.391-0.391-1.023,0-1.414
	s1.023-0.391,1.414,0l7.071,7.071c0.391,0.391,0.391,1.023,0,1.414C15.311,52.213,15.055,52.31,14.799,52.31z"/>
<g>
	<path style="fill:#CBB292;" d="M44.695,9.719c-0.391-0.391-1.023-0.391-1.414,0L7.021,46.36c-0.391,0.391-0.391,1.023,0,1.414
		c0.195,0.195,0.451,0.293,0.707,0.293s0.512-0.098,0.707-0.293l36.261-36.641C45.086,10.743,45.086,10.11,44.695,9.719z"/>
	<path style="fill:#CBB292;" d="M47.695,10.961c-0.391-0.391-1.023-0.391-1.414,0L9.143,48.481c-0.391,0.391-0.391,1.023,0,1.414
		c0.195,0.195,0.451,0.293,0.707,0.293s0.512-0.098,0.707-0.293l37.139-37.52C48.086,11.985,48.086,11.352,47.695,10.961z"/>
	<path style="fill:#CBB292;" d="M48.937,13.961c-0.391-0.391-1.023-0.391-1.414,0l-36.26,36.642c-0.391,0.391-0.391,1.023,0,1.414
		c0.195,0.195,0.451,0.293,0.707,0.293s0.512-0.098,0.707-0.293l36.26-36.642C49.328,14.985,49.328,14.352,48.937,13.961z"/>
</g>
<g>
</g>
<g>
</g>
<g>
</g>
<g>
</g>
<g>
</g>
<g>
</g>
<g>
</g>
<g>
</g>
<g>
</g>
<g>
</g>
<g>
</g>
<g>
</g>
<g>
</g>
<g>
</g>
<g>
</g>
</svg>
