<?xml version="1.0" encoding="iso-8859-1"?>
<!-- Generator: Adobe Illustrator 19.0.0, SVG Export Plug-In . SVG Version: 6.00 Build 0)  -->
<svg version="1.1" id="Capa_1" xmlns="http://www.w3.org/2000/svg" xmlns:xlink="http://www.w3.org/1999/xlink" x="0px" y="0px"
	 viewBox="0 0 59.249 59.249" style="enable-background:new 0 0 59.249 59.249;" xml:space="preserve">
<g>
	
		<rect x="42.986" y="3.671" transform="matrix(-0.707 -0.7073 0.7073 -0.707 72.8122 39.5098)" style="fill:#2C3E50;" width="3.21" height="2"/>
	<path style="fill:#2C3E50;" d="M45.578,1.414l2.215,2.215l0.023-0.023l0.613,0.613c0.151-0.151,0.337-0.291,0.584-0.439l1.1-0.658
		L46.992,0L45.578,1.414z"/>
	<path style="fill:#2C3E50;" d="M55.182,8.19l-0.658,1.104c-0.145,0.243-0.284,0.428-0.438,0.582l0.613,0.613l-0.023,0.023
		l2.215,2.215l1.414-1.414L55.182,8.19z"/>
	
		<rect x="52.03" y="12.714" transform="matrix(-0.7071 -0.7071 0.7071 -0.7071 81.8639 61.3369)" style="fill:#2C3E50;" width="3.21" height="2"/>
</g>
<path style="fill:#C27037;" d="M37.743,23.391l-7.721,7.721l-2.828-2.828l7.757-7.757c-3.846-2.992-9.301-3.065-13.237-0.004
	l-3.766,3.115c0.939,2.194,0.197,5.209-2.023,7.43c-2.633,2.633-6.379,3.179-8.552,1.317L5.806,33.68
	c0.245,1.015,0.387,2.184,0.387,3.432c0,3.866-1.343,7-3,7c-1.124,0-2.102-1.444-2.615-3.577c-0.982,3.592-0.09,7.622,2.776,10.488
	l3.929,3.929c4.589,4.589,12.161,4.117,16.145-1.005l2.451-3.062c-1.813-2.18-1.254-5.891,1.359-8.504
	c2.128-2.128,4.984-2.891,7.149-2.124l3.139-3.921C40.51,32.499,40.516,27.218,37.743,23.391z"/>
<path style="fill:#9B431C;" d="M14.906,54.112c-1.81,0-3.513-0.706-4.794-1.988l-3.931-3.93c-0.207-0.207-0.399-0.426-0.575-0.654
	c2.722-1.376,4.5-5.124,4.584-10.063c0.115,0.004,0.23,0.006,0.347,0.006c2.941,0,5.936-1.308,8.216-3.588
	c1.525-1.526,2.595-3.353,3.148-5.246l7.752,7.752c-1.913,0.56-3.734,1.643-5.243,3.151c-3.109,3.108-4.256,7.3-3.237,10.811
	l-0.867,1.084C18.974,53.157,17.019,54.112,14.906,54.112z"/>
<rect x="36.132" y="6.703" transform="matrix(0.7071 0.7071 -0.7071 0.7071 25.4333 -21.055)" style="fill:#9B431C;" width="4" height="26.941"/>
<path style="fill:#773A3A;" d="M50.531,13.522l-5.748-5.748c-0.365-0.365-0.365-0.958,0-1.323l2.939-2.939
	c1.549-1.549,4.061-1.549,5.61,0l1.461,1.461c1.549,1.549,1.549,4.061,0,5.61l-2.939,2.939
	C51.489,13.887,50.897,13.887,50.531,13.522z"/>
<path style="fill:#2C3E50;" d="M10.513,41.5c-0.769,0-1.536-0.292-2.121-0.877c-0.391-0.391-0.391-1.023,0-1.414
	s1.023-0.391,1.414,0s1.023,0.391,1.414,0l4.243-4.242c1.131-1.132,3.109-1.134,4.242,0c0.391,0.391,0.391,1.023,0,1.414
	s-1.023,0.391-1.414,0c-0.38-0.377-1.037-0.379-1.413,0l-4.244,4.242C12.049,41.208,11.282,41.5,10.513,41.5z"/>
<path style="fill:#2C3E50;" d="M18.292,50.108c-0.256,0-0.512-0.098-0.707-0.292c-0.566-0.566-0.879-1.32-0.879-2.122
	c0-0.801,0.313-1.555,0.879-2.121l4.242-4.242c0.39-0.391,0.39-1.024,0-1.415c-0.391-0.391-0.391-1.023,0-1.414s1.023-0.391,1.414,0
	c1.17,1.17,1.17,3.073,0,4.243l-4.242,4.242c-0.188,0.189-0.293,0.44-0.293,0.707c0,0.268,0.104,0.519,0.293,0.706
	c0.391,0.391,0.391,1.023,0.001,1.415C18.804,50.011,18.547,50.108,18.292,50.108z"/>
<g>
	<path style="fill:none;stroke:#E4C05C;stroke-width:2;stroke-miterlimit:10;" d="M15.311,21.181
		c-0.034-0.012,29.823,29.902,29.823,29.902c1.562,1.562,4.095,1.562,5.657,0"/>
	<path style="fill:none;stroke:#E4C05C;stroke-width:2;stroke-miterlimit:10;" d="M7.678,7.97c-1.562,1.562-1.562,4.095,0,5.657
		l10.075,10.01"/>
</g>
<ellipse style="fill:#9B431C;" cx="3.193" cy="37.113" rx="3" ry="7"/>
<path style="fill:#35495E;" d="M58.056,59.249c-0.256,0-0.512-0.098-0.707-0.293L4.899,6.506c-0.391-0.391-0.391-1.023,0-1.414
	s1.023-0.391,1.414,0l52.45,52.45c0.391,0.391,0.391,1.023,0,1.414C58.568,59.151,58.312,59.249,58.056,59.249z"/>
<g>
</g>
<g>
</g>
<g>
</g>
<g>
</g>
<g>
</g>
<g>
</g>
<g>
</g>
<g>
</g>
<g>
</g>
<g>
</g>
<g>
</g>
<g>
</g>
<g>
</g>
<g>
</g>
<g>
</g>
</svg>
