<?xml version="1.0" encoding="iso-8859-1"?>
<!-- Generator: Adobe Illustrator 19.0.0, SVG Export Plug-In . SVG Version: 6.00 Build 0)  -->
<svg version="1.1" id="Capa_1" xmlns="http://www.w3.org/2000/svg" xmlns:xlink="http://www.w3.org/1999/xlink" x="0px" y="0px"
	 viewBox="0 0 58 58" style="enable-background:new 0 0 58 58;" xml:space="preserve">
<path style="fill:#556080;" d="M55.051,56H43V2h12.051C56.68,2,58,3.32,58,4.949v48.103C58,54.68,56.68,56,55.051,56z"/>
<polygon style="fill:#E4C05C;" points="47,11 46,10 46,8 47,7 49,7 50,8 50,10 49,11 "/>
<polygon style="fill:#E4C05C;" points="52,16 51,15 51,13 52,12 54,12 55,13 55,15 54,16 "/>
<polygon style="fill:#E4C05C;" points="47,21 46,20 46,18 47,17 49,17 50,18 50,20 49,21 "/>
<polygon style="fill:#E4C05C;" points="52,26 51,25 51,23 52,22 54,22 55,23 55,25 54,26 "/>
<polygon style="fill:#E4C05C;" points="47,31 46,30 46,28 47,27 49,27 50,28 50,30 49,31 "/>
<polygon style="fill:#E4C05C;" points="52,36 51,35 51,33 52,32 54,32 55,33 55,35 54,36 "/>
<polygon style="fill:#E4C05C;" points="47,41 46,40 46,38 47,37 49,37 50,38 50,40 49,41 "/>
<polygon style="fill:#E4C05C;" points="52,46 51,45 51,43 52,42 54,42 55,43 55,45 54,46 "/>
<polygon style="fill:#E4C05C;" points="47,51 46,50 46,48 47,47 49,47 50,48 50,50 49,51 "/>
<polygon style="fill:#ECF0F1;" points="7,39 15,39 15,35 7,35 7,33 0,33 0,41 7,41 "/>
<polygon style="fill:#D7DCE0;" points="7,47 15,47 15,43 7,43 7,41 0,41 0,49 7,49 "/>
<path style="fill:#ECF0F1;" d="M15,51H7v-2H0l0,4.051C0,54.68,1.32,56,2.949,56H15V51z"/>
<path style="fill:#ECF0F1;" d="M15,7V2H4H2.949C1.32,2,0,3.32,0,4.949L0,9h7V7H15z"/>
<polygon style="fill:#D7DCE0;" points="7,31 15,31 15,27 7,27 7,25 0,25 0,33 7,33 "/>
<polygon style="fill:#ECF0F1;" points="7,23 15,23 15,19 7,19 7,17 0,17 0,25 7,25 "/>
<polygon style="fill:#D7DCE0;" points="7,15 15,15 15,11 7,11 7,9 0,9 0,17 7,17 "/>
<polygon style="fill:#2C3E50;" points="31,56 29,58 27,56 27,2 29,0 31,2 "/>
<polygon style="fill:#464F5D;" points="35,56 33,58 31,56 31,2 33,0 35,2 "/>
<polygon style="fill:#2C3E50;" points="39,56 37,58 35,56 35,2 37,0 39,2 "/>
<polygon style="fill:#464F5D;" points="43,56 41,58 39,56 39,2 41,0 43,2 "/>
<g>
	<rect x="6" y="31" style="fill:#556080;" width="10" height="4"/>
	<rect x="6" y="23" style="fill:#556080;" width="10" height="4"/>
	<rect x="6" y="39" style="fill:#556080;" width="10" height="4"/>
	<rect x="6" y="47" style="fill:#556080;" width="10" height="4"/>
	<rect x="6" y="7" style="fill:#556080;" width="10" height="4"/>
	<rect x="6" y="15" style="fill:#556080;" width="10" height="4"/>
</g>
<rect x="15" y="2" style="fill:#E1705C;" width="12" height="54"/>
<polygon style="fill:#FFFFFF;" points="24,17 18,22 18,11 24,5 "/>
<polygon style="fill:#FFFFFF;" points="18,47 24,53 24,42 18,37 "/>
<polygon style="fill:#FFFFFF;" points="18,29 24,23 24,36 "/>
<g>
</g>
<g>
</g>
<g>
</g>
<g>
</g>
<g>
</g>
<g>
</g>
<g>
</g>
<g>
</g>
<g>
</g>
<g>
</g>
<g>
</g>
<g>
</g>
<g>
</g>
<g>
</g>
<g>
</g>
</svg>
