<?xml version="1.0" encoding="iso-8859-1"?>
<!-- Generator: Adobe Illustrator 19.0.0, SVG Export Plug-In . SVG Version: 6.00 Build 0)  -->
<svg version="1.1" id="Capa_1" xmlns="http://www.w3.org/2000/svg" xmlns:xlink="http://www.w3.org/1999/xlink" x="0px" y="0px"
	 viewBox="0 0 60 60" style="enable-background:new 0 0 60 60;" xml:space="preserve">
<rect x="1" y="1" style="fill:#556080;stroke:#464F5D;stroke-width:2;stroke-linecap:round;stroke-miterlimit:10;" width="58" height="58"/>
<rect x="2" y="2" style="fill:#8697CB;" width="56" height="8"/>
<path style="fill:#3D324C;" d="M50,18h-5c-0.552,0-1-0.448-1-1s0.448-1,1-1h5c0.553,0,1,0.448,1,1S50.553,18,50,18z"/>
<path style="fill:#3D324C;" d="M54,18h-1c-0.553,0-1-0.448-1-1s0.447-1,1-1h1c0.553,0,1,0.448,1,1S54.553,18,54,18z"/>
<circle style="fill:#3D324C;" cx="8" cy="21" r="4"/>
<circle style="fill:#3D324C;" cx="8" cy="32" r="4"/>
<circle style="fill:#3D324C;" cx="8" cy="44" r="4"/>
<circle style="fill:#FFFFFF;" cx="8" cy="19" r="4"/>
<path style="fill:#BDC3C7;" d="M8,20c-0.256,0-0.512-0.098-0.707-0.293c-0.391-0.391-0.391-1.023,0-1.414l2.829-2.829
	c0.391-0.391,1.023-0.391,1.414,0s0.391,1.023,0,1.414l-2.829,2.829C8.512,19.902,8.256,20,8,20z"/>
<circle style="fill:#FFFFFF;" cx="8" cy="30" r="4"/>
<path style="fill:#BDC3C7;" d="M10.829,33.829c-0.256,0-0.512-0.098-0.707-0.293l-2.829-2.829c-0.391-0.391-0.391-1.023,0-1.414
	s1.023-0.391,1.414,0l2.829,2.829c0.391,0.391,0.391,1.023,0,1.414C11.34,33.731,11.084,33.829,10.829,33.829z"/>
<circle style="fill:#FFFFFF;" cx="8" cy="42" r="4"/>
<path style="fill:#BDC3C7;" d="M8,43c-0.256,0-0.512-0.098-0.707-0.293l-2.829-2.829c-0.391-0.391-0.391-1.023,0-1.414
	s1.023-0.391,1.414,0l2.829,2.829c0.391,0.391,0.391,1.023,0,1.414C8.512,42.902,8.256,43,8,43z"/>
<circle style="fill:#FF5364;" cx="55" cy="4" r="1"/>
<circle style="fill:#FF5364;" cx="55" cy="8" r="1"/>
<circle style="fill:#F3D55B;" cx="52" cy="4" r="1"/>
<circle style="fill:#F3D55B;" cx="52" cy="8" r="1"/>
<circle style="fill:#FF5364;" cx="49" cy="4" r="1"/>
<circle style="fill:#F3D55B;" cx="49" cy="8" r="1"/>
<circle style="fill:#FF5364;" cx="46" cy="4" r="1"/>
<circle style="fill:#F3D55B;" cx="46" cy="8" r="1"/>
<polygon style="fill:#FFFFFF;" points="5,8 4,7 4,5 5,4 7,4 8,5 8,7 7,8 "/>
<polygon style="fill:#FFFFFF;" points="12,8 11,7 11,5 12,4 14,4 15,5 15,7 14,8 "/>
<polygon style="fill:#FFFFFF;" points="19,8 18,7 18,5 19,4 21,4 22,5 22,7 21,8 "/>
<polygon style="fill:#FFFFFF;" points="26,8 25,7 25,5 26,4 28,4 29,5 29,7 28,8 "/>
<rect x="15" y="47" style="fill:#D0E8F9;" width="8" height="8"/>
<rect x="23" y="47" style="fill:#8697CB;" width="8" height="8"/>
<rect x="31" y="47" style="fill:#FBD490;" width="8" height="8"/>
<rect x="39" y="47" style="fill:#8697CB;" width="8" height="8"/>
<rect x="47" y="47" style="fill:#90BAE1;" width="8" height="8"/>
<rect x="15" y="39" style="fill:#90BAE1;" width="8" height="8"/>
<rect x="23" y="39" style="fill:#FBD490;" width="8" height="8"/>
<rect x="31" y="39" style="fill:#8697CB;" width="8" height="8"/>
<rect x="39" y="39" style="fill:#90BAE1;" width="8" height="8"/>
<rect x="47" y="39" style="fill:#D0E8F9;" width="8" height="8"/>
<rect x="15" y="31" style="fill:#8697CB;" width="8" height="8"/>
<rect x="23" y="31" style="fill:#90BAE1;" width="8" height="8"/>
<rect x="31" y="31" style="fill:#D0E8F9;" width="8" height="8"/>
<rect x="39" y="31" style="fill:#28FBBB;" width="8" height="8"/>
<rect x="47" y="31" style="fill:#8697CB;" width="8" height="8"/>
<rect x="15" y="23" style="fill:#90BAE1;" width="8" height="8"/>
<rect x="23" y="23" style="fill:#8697CB;" width="8" height="8"/>
<rect x="31" y="23" style="fill:#FBD490;" width="8" height="8"/>
<rect x="39" y="23" style="fill:#8697CB;" width="8" height="8"/>
<rect x="47" y="23" style="fill:#90BAE1;" width="8" height="8"/>
<rect x="4" y="52" style="fill:#F3D55B;" width="8" height="3"/>
<rect x="50" y="14" style="fill:#FFFFFF;" width="3" height="6"/>
<path style="fill:#3D324C;" d="M33,18h-3c-0.552,0-1-0.448-1-1s0.448-1,1-1h3c0.552,0,1,0.448,1,1S33.552,18,33,18z"/>
<path style="fill:#3D324C;" d="M39,18h-3c-0.552,0-1-0.448-1-1s0.448-1,1-1h3c0.552,0,1,0.448,1,1S39.552,18,39,18z"/>
<rect x="33" y="14" style="fill:#FFFFFF;" width="3" height="6"/>
<path style="fill:#3D324C;" d="M24,18h-5c-0.552,0-1-0.448-1-1s0.448-1,1-1h5c0.552,0,1,0.448,1,1S24.552,18,24,18z"/>
<path style="fill:#3D324C;" d="M16,18h-1c-0.552,0-1-0.448-1-1s0.448-1,1-1h1c0.552,0,1,0.448,1,1S16.552,18,16,18z"/>
<rect x="16" y="14" style="fill:#FFFFFF;" width="3" height="6"/>
<g>
</g>
<g>
</g>
<g>
</g>
<g>
</g>
<g>
</g>
<g>
</g>
<g>
</g>
<g>
</g>
<g>
</g>
<g>
</g>
<g>
</g>
<g>
</g>
<g>
</g>
<g>
</g>
<g>
</g>
</svg>
