<?xml version="1.0" encoding="iso-8859-1"?>
<!-- Generator: Adobe Illustrator 19.0.0, SVG Export Plug-In . SVG Version: 6.00 Build 0)  -->
<svg version="1.1" id="Capa_1" xmlns="http://www.w3.org/2000/svg" xmlns:xlink="http://www.w3.org/1999/xlink" x="0px" y="0px"
	 viewBox="0 0 58 58" style="enable-background:new 0 0 58 58;" xml:space="preserve">
<rect x="21" y="49" style="fill:#CB8252;" width="36" height="6"/>
<rect x="22" y="40" style="fill:#CB8252;" width="34" height="6"/>
<rect x="23" y="31" style="fill:#CB8252;" width="32" height="6"/>
<rect x="24" y="22" style="fill:#CB8252;" width="30" height="6"/>
<rect x="25" y="13" style="fill:#CB8252;" width="28" height="6"/>
<rect x="26" y="4" style="fill:#CB8252;" width="26" height="6"/>
<g>
	<polygon style="fill:#556080;" points="50.138,31 49.931,28 46.931,28 47.138,31 	"/>
	<polygon style="fill:#556080;" points="45.897,13 48.897,13 48.69,10 45.69,10 	"/>
	<polygon style="fill:#556080;" points="50.759,40 50.552,37 47.552,37 47.759,40 	"/>
	<polygon style="fill:#556080;" points="49.517,22 49.31,19 46.31,19 46.517,22 	"/>
	<polygon style="fill:#556080;" points="48.793,55 49,58 52,58 51.793,55 	"/>
	<polygon style="fill:#556080;" points="48.276,4 48,0 45,0 45.276,4 	"/>
	<polygon style="fill:#556080;" points="51.379,49 51.172,46 48.172,46 48.379,49 	"/>
</g>
<g>
	<polygon style="fill:#556080;" points="30.862,31 31.069,28 28.069,28 27.862,31 	"/>
	<polygon style="fill:#556080;" points="31.483,22 31.69,19 28.69,19 28.483,22 	"/>
	<polygon style="fill:#556080;" points="29.103,13 32.103,13 32.31,10 29.31,10 	"/>
	<polygon style="fill:#556080;" points="30.241,40 30.448,37 27.448,37 27.241,40 	"/>
	<polygon style="fill:#556080;" points="29.621,49 29.828,46 26.828,46 26.621,49 	"/>
	<polygon style="fill:#556080;" points="26.207,55 26,58 29,58 29.207,55 	"/>
	<polygon style="fill:#556080;" points="32.724,4 33,0 30,0 29.724,4 	"/>
</g>
<g>
	<circle style="fill:#ECF0F1;" cx="31" cy="7" r="1"/>
	<circle style="fill:#ECF0F1;" cx="30" cy="16" r="1"/>
	<circle style="fill:#ECF0F1;" cx="29" cy="25" r="1"/>
	<circle style="fill:#ECF0F1;" cx="29" cy="34" r="1"/>
	<circle style="fill:#ECF0F1;" cx="49" cy="34" r="1"/>
	<circle style="fill:#ECF0F1;" cx="50" cy="43" r="1"/>
	<circle style="fill:#ECF0F1;" cx="28" cy="43" r="1"/>
	<circle style="fill:#ECF0F1;" cx="28" cy="52" r="1"/>
	<circle style="fill:#ECF0F1;" cx="50" cy="52" r="1"/>
	<circle style="fill:#ECF0F1;" cx="49" cy="25" r="1"/>
	<circle style="fill:#ECF0F1;" cx="48" cy="16" r="1"/>
	<circle style="fill:#ECF0F1;" cx="47" cy="7" r="1"/>
</g>
<path style="fill:#CBB292;" d="M6.707,1.293l-1-1C5.52,0.105,5.265,0,5,0H3C2.735,0,2.48,0.105,2.293,0.293l-1,1
	C1.105,1.48,1,1.735,1,2v4c0,0.265,0.105,0.52,0.293,0.707l1,1C2.48,7.895,2.735,8,3,8v47c0,0.552,0.448,1,1,1s1-0.448,1-1V8
	c0.265,0,0.52-0.105,0.707-0.293l1-1C6.895,6.52,7,6.265,7,6V2C7,1.735,6.895,1.48,6.707,1.293z"/>
<path style="fill:#E2C5A6;" d="M13.707,51.293l-1-1C12.52,50.105,12.265,50,12,50V3c0-0.552-0.448-1-1-1s-1,0.448-1,1v47
	c-0.265,0-0.52,0.105-0.707,0.293l-1,1C8.105,51.48,8,51.735,8,52v4c0,0.265,0.105,0.52,0.293,0.707l1,1C9.48,57.895,9.735,58,10,58
	h2c0.265,0,0.52-0.105,0.707-0.293l1-1C13.895,56.52,14,56.265,14,56v-4C14,51.735,13.895,51.48,13.707,51.293z"/>
<g>
</g>
<g>
</g>
<g>
</g>
<g>
</g>
<g>
</g>
<g>
</g>
<g>
</g>
<g>
</g>
<g>
</g>
<g>
</g>
<g>
</g>
<g>
</g>
<g>
</g>
<g>
</g>
<g>
</g>
</svg>
