<?xml version="1.0" encoding="UTF-8" standalone="no"?>
<svg width="235px" height="228px" viewBox="0 0 235 228" version="1.1" xmlns="http://www.w3.org/2000/svg" xmlns:xlink="http://www.w3.org/1999/xlink">
    <!-- Generator: Sketch 39.1 (31720) - http://www.bohemiancoding.com/sketch -->
    <title>Slice 1</title>
    <desc>Created with Sketch.</desc>
    <defs></defs>
    <g id="Page-1" stroke="none" stroke-width="1" fill="none" fill-rule="evenodd">
        <path d="M99.735,89.233 C96.295,88.642 93.373,86.987 91.284,84.448 C88.896,81.542 87.58,77.605 87.58,73.36 C87.58,66.139 91.588,58.83 99.25,58.83 C104.996,58.83 110.013,63.333 111.734,70.035 L112.01,71.108 L111.023,70.606 C109.973,70.071 108.869,69.8 107.74,69.8 C105.346,69.8 103.079,71.027 101.355,73.256 C99.611,75.525 98.65,78.534 98.65,81.73 C98.65,84.152 99.208,86.496 100.263,88.508 L100.733,89.404 L99.735,89.233 L99.735,89.233 Z M134.747,88.508 C135.802,86.496 136.36,84.152 136.36,81.73 C136.36,75.152 132.277,69.8 127.26,69.8 C126.138,69.8 125.037,70.071 123.987,70.606 L123,71.108 L123.275,70.035 C124.997,63.333 130.01,58.83 135.75,58.83 C143.418,58.83 147.43,66.139 147.43,73.36 C147.43,77.605 146.114,81.542 143.726,84.447 C141.637,86.987 138.715,88.642 135.274,89.233 L134.277,89.404 L134.747,88.508 L134.747,88.508 Z" id="Fill-25" fill="#47827B"></path>
        <path d="M131.413,89.436 C126.265,88.842 122.67,82.836 122.67,74.83 C122.67,74.661 122.68,74.502 122.69,74.334 L122.702,74.164 L122.814,74.03 C124.079,72.592 125.658,71.8 127.26,71.8 C129.182,71.8 130.986,72.855 132.338,74.772 C133.643,76.645 134.36,79.115 134.36,81.73 C134.36,84.604 133.446,87.349 131.854,89.26 L131.681,89.467 L131.413,89.436 L131.413,89.436 Z M103.145,89.258 C101.559,87.343 100.65,84.599 100.65,81.73 C100.65,76.255 103.831,71.8 107.74,71.8 C109.348,71.8 110.931,72.592 112.195,74.03 L112.32,74.172 L112.32,74.36 C112.32,74.429 112.324,74.496 112.329,74.562 C112.334,74.651 112.34,74.738 112.34,74.83 C112.34,82.837 108.741,88.843 103.587,89.436 L103.317,89.467 L103.145,89.258 L103.145,89.258 Z M112.749,98.33 L117.5,88.324 L122.251,98.33 L112.749,98.33 L112.749,98.33 Z" id="Fill-26" fill="#F1BB31"></path>
        <path d="M99.25,56.83 C90.275,56.83 85.58,65.146 85.58,73.36 C85.58,78.067 87.056,82.457 89.736,85.722 C92.85,89.495 97.35,91.49 102.75,91.49 C109.466,91.49 114.34,84.483 114.34,74.83 C114.34,74.672 114.329,74.52 114.319,74.369 L114.298,73.988 L114.307,73.937 C114.325,73.83 114.32,73.726 114.292,73.599 C113.714,64.161 107.112,56.83 99.25,56.83 L99.25,56.83 Z M135.75,56.83 C127.894,56.83 121.296,64.161 120.729,73.52 C120.69,73.725 120.683,73.842 120.697,73.965 L120.687,74.317 C120.678,74.485 120.67,74.653 120.67,74.83 C120.67,84.483 125.54,91.49 132.25,91.49 C137.66,91.49 142.16,89.495 145.264,85.722 C147.95,82.462 149.43,78.071 149.43,73.36 C149.43,65.146 144.731,56.83 135.75,56.83 L135.75,56.83 Z M125.419,100.33 L117.5,83.665 L109.591,100.33 L125.419,100.33 L125.419,100.33 Z M92.137,102.277 L92.617,102.692 C94.361,104.202 96.057,105.48 97.8,106.599 C97.957,106.699 98.141,106.753 98.33,106.753 C98.675,106.753 98.993,106.579 99.18,106.289 C99.324,106.067 99.372,105.803 99.314,105.542 C99.256,105.28 99.101,105.055 98.877,104.909 C96.668,103.497 94.581,101.865 92.676,100.063 L92.647,100.042 L92.493,99.88 C84.333,92.04 79.84,81.47 79.84,70.12 C79.84,42.527 99.362,29.96 117.5,29.96 C135.643,29.96 155.17,42.527 155.17,70.12 C155.17,81.471 150.676,92.04 142.516,99.88 L142.488,99.919 L142.333,100.064 C140.397,101.886 138.31,103.516 136.129,104.911 C135.904,105.056 135.748,105.281 135.692,105.543 C135.637,105.802 135.685,106.066 135.829,106.286 C136.009,106.576 136.329,106.75 136.67,106.75 C136.872,106.75 137.054,106.699 137.21,106.599 C138.969,105.465 140.709,104.15 142.381,102.693 L142.862,102.275 L151.869,119.7 L150.91,119.565 C146.793,118.985 141.871,118.519 136.28,118.179 L135.988,118.161 L135.86,117.898 C135.072,116.276 132.924,112.041 129.998,107.762 C129.81,107.491 129.499,107.327 129.167,107.327 C128.966,107.327 128.77,107.388 128.602,107.503 C128.149,107.816 128.031,108.437 128.341,108.885 C130.514,112.058 132.239,115.191 133.304,117.261 L133.7,118.03 L132.836,117.989 C128.369,117.777 123.713,117.659 118.998,117.64 L118.5,117.638 L118.5,108.33 C118.5,107.779 118.051,107.33 117.5,107.33 C116.949,107.33 116.5,107.779 116.5,108.33 L116.5,117.638 L116.002,117.64 C111.292,117.659 106.64,117.777 102.174,117.989 L101.308,118.03 L101.706,117.26 C102.789,115.166 104.527,112.013 106.657,108.888 C106.81,108.666 106.867,108.403 106.818,108.142 C106.77,107.882 106.621,107.654 106.398,107.504 C106.231,107.387 106.039,107.327 105.84,107.327 C105.51,107.327 105.2,107.49 105.011,107.764 C102.075,112.043 99.927,116.277 99.14,117.898 L99.012,118.161 L98.72,118.179 C93.121,118.52 88.198,118.987 84.09,119.565 L83.131,119.7 L92.137,102.277 L92.137,102.277 Z M114.32,127.44 L114.32,119.656 L114.814,119.65 C115.706,119.64 116.598,119.63 117.5,119.63 C118.402,119.63 119.304,119.64 120.196,119.65 L120.69,119.656 L120.69,127.44 L114.32,127.44 L114.32,127.44 Z M117.102,137.622 C115.349,135.313 113.667,132.814 112.101,130.196 L111.648,129.44 L123.362,129.44 L122.909,130.196 C121.334,132.829 119.648,135.328 117.897,137.623 L117.499,138.146 L117.102,137.622 L117.102,137.622 Z M99.304,180.606 L99.838,180.571 C101.067,180.492 102.308,180.365 103.632,180.184 L104.105,180.12 L105.519,187.8 L105.052,187.907 C103.68,188.221 102.314,188.469 100.877,188.665 L100.38,188.733 L99.304,180.606 L99.304,180.606 Z M134.132,188.665 C132.673,188.467 131.307,188.218 129.958,187.907 L129.492,187.8 L130.905,180.119 L131.378,180.185 C132.662,180.361 133.936,180.491 135.163,180.571 L135.695,180.606 L134.63,188.733 L134.132,188.665 L134.132,188.665 Z M143.589,180.484 L144.111,180.432 C145.384,180.307 146.643,180.137 147.854,179.927 L148.35,179.842 L148.433,180.337 C148.651,181.633 149.086,184.274 149.544,187.407 L149.609,187.846 L149.18,187.962 C148.391,188.176 147.077,188.482 145.298,188.725 L144.807,188.792 L143.589,180.484 L143.589,180.484 Z M89.702,188.725 C87.799,188.463 86.458,188.134 85.828,187.962 L85.403,187.845 L85.465,187.409 C85.862,184.626 86.268,182.168 86.577,180.337 L86.661,179.841 L87.156,179.927 C88.342,180.134 89.602,180.304 90.899,180.432 L91.421,180.484 L90.192,188.793 L89.702,188.725 L89.702,188.725 Z M94.908,189.075 C94.146,189.075 93.42,189.055 92.733,189.019 L92.185,188.99 L93.422,180.616 L93.876,180.64 C94.628,180.68 95.399,180.7 96.21,180.7 L96.86,180.69 L97.298,180.69 L98.385,188.944 L97.852,188.979 C96.862,189.043 95.871,189.075 94.908,189.075 L94.908,189.075 Z M140.092,189.075 C139.128,189.075 138.138,189.043 137.147,188.979 L136.614,188.944 L137.702,180.69 L138.79,180.7 C139.601,180.7 140.382,180.68 141.134,180.64 L141.589,180.616 L142.814,188.99 L142.266,189.019 C141.579,189.055 140.854,189.075 140.092,189.075 L140.092,189.075 Z" id="Fill-27" fill="#FFFCE1"></path>
        <path d="M110.523,127.44 L110.381,127.179 C109.161,124.945 108.057,122.69 107.101,120.478 L106.809,119.801 L107.546,119.78 C108.947,119.74 110.368,119.71 111.81,119.68 L112.32,119.67 L112.32,127.44 L110.523,127.44 L110.523,127.44 Z M122.69,127.44 L122.69,119.669 L123.2,119.68 C124.632,119.71 126.053,119.74 127.464,119.78 L128.201,119.801 L127.909,120.478 C126.953,122.69 125.849,124.945 124.629,127.179 L124.487,127.44 L122.69,127.44 L122.69,127.44 Z M78.426,211.396 C75.706,209.875 73.021,208.052 70.446,205.98 L70.229,205.804 L70.264,205.527 C70.612,202.776 71.888,195.786 76.197,190.311 L76.708,189.661 L77.046,190.415 C78.068,192.697 80.307,197.103 83.81,200.964 L84.018,201.192 L83.906,201.48 C82.551,204.994 80.932,208.273 79.094,211.224 L78.842,211.629 L78.426,211.396 L78.426,211.396 Z M155.916,211.224 C154.078,208.273 152.459,204.994 151.104,201.48 L150.993,201.193 L151.199,200.965 C154.662,197.136 156.924,192.717 157.964,190.424 L158.304,189.674 L158.813,190.321 C163.284,196.008 164.477,203.4 164.736,205.529 L164.77,205.805 L164.553,205.98 C161.985,208.048 159.304,209.87 156.584,211.396 L156.168,211.63 L155.916,211.224 L155.916,211.224 Z M61.168,225.49 L61.019,225.288 C59.152,222.779 49.701,209.396 46.936,192.36 L46.898,192.124 L47.058,191.946 C48.565,190.269 54.354,184.323 65.539,178.181 L66.648,177.573 L66.255,178.775 C64.853,183.067 63.084,189.761 62.619,197.28 L62.543,198.507 L61.741,197.576 C60.643,196.301 60.01,195.457 59.965,195.389 C59.79,195.145 59.49,194.991 59.171,194.991 C58.96,194.991 58.757,195.058 58.585,195.183 C58.368,195.342 58.226,195.574 58.184,195.836 C58.142,196.097 58.206,196.36 58.363,196.574 C58.436,196.676 65.421,206.346 77.246,213.024 L77.729,213.297 L77.408,213.749 C73.652,219.032 69.151,222.966 64.027,225.44 L63.924,225.49 L61.168,225.49 L61.168,225.49 Z M105.835,133.411 C105.347,133.411 104.92,133.775 104.844,134.258 C104.51,136.375 104.26,138.598 104.099,140.865 C104.079,141.137 104.166,141.397 104.343,141.599 C104.516,141.797 104.757,141.915 105.02,141.931 L105.039,141.931 C105.632,141.931 106.058,141.525 106.091,141.008 C106.258,138.747 106.506,136.58 106.826,134.562 C106.868,134.302 106.805,134.042 106.649,133.827 C106.491,133.609 106.257,133.466 105.992,133.424 C105.938,133.415 105.887,133.411 105.835,133.411 L105.835,133.411 Z M129.176,133.411 C129.125,133.411 129.071,133.415 129.018,133.424 C128.752,133.466 128.519,133.609 128.361,133.827 C128.205,134.042 128.142,134.302 128.184,134.561 C128.511,136.622 128.755,138.79 128.909,141.005 C128.948,141.528 129.388,141.94 129.91,141.94 C130.25,141.915 130.491,141.796 130.666,141.596 C130.843,141.393 130.931,141.134 130.912,140.865 C130.756,138.677 130.501,136.454 130.156,134.258 C130.078,133.767 129.667,133.411 129.176,133.411 L129.176,133.411 Z M113.24,151.83 C112.688,151.83 112.24,152.279 112.24,152.83 C112.24,153.381 112.688,153.83 113.24,153.83 L116.5,153.83 L116.5,161.66 C116.5,162.211 116.949,162.66 117.5,162.66 C118.051,162.66 118.5,162.211 118.5,161.66 L118.5,153.83 L121.6,153.83 C122.151,153.83 122.6,153.381 122.6,152.83 C122.6,152.279 122.151,151.83 121.6,151.83 L118.5,151.83 L118.5,145.99 L122.5,145.99 C123.051,145.99 123.5,145.541 123.5,144.99 C123.5,144.439 123.051,143.99 122.5,143.99 L118.5,143.99 L118.5,140.095 L118.608,139.959 C125.468,131.327 129.204,122.664 130.186,120.214 L130.317,119.886 L130.67,119.901 C139.631,120.266 147.526,120.984 153.502,121.977 L155.476,122.31 L144.378,100.836 L144.635,100.578 C152.718,92.434 157.17,81.618 157.17,70.12 C157.17,41.153 136.606,27.96 117.5,27.96 C98.398,27.96 77.84,41.153 77.84,70.12 C77.84,81.618 82.292,92.434 90.375,100.578 L90.631,100.836 L79.534,122.31 L81.497,121.977 C87.47,120.985 95.365,120.267 104.33,119.901 L104.682,119.886 L104.813,120.213 C105.815,122.688 109.61,131.426 116.392,139.959 L116.5,140.095 L116.5,143.99 L112.34,143.99 C111.789,143.99 111.34,144.439 111.34,144.99 C111.34,145.541 111.789,145.99 112.34,145.99 L116.5,145.99 L116.5,151.83 L113.24,151.83 L113.24,151.83 Z M105.749,225.49 L96.501,219.803 L87.992,225.49 L68.137,225.49 L69.456,224.579 C83.541,214.842 87.998,196.527 89.029,191.146 L89.118,190.681 L89.587,190.744 C91.328,190.98 93.132,191.1 94.95,191.1 C98.867,191.1 102.896,190.564 106.923,189.507 L107.824,189.266 L106.079,179.807 L106.561,179.71 C107.941,179.431 109.092,179.166 110.182,178.877 L111.241,178.59 L110.861,177.563 C110.816,177.448 106.122,164.62 105.89,148.267 C105.883,147.718 105.439,147.294 104.858,147.28 C104.609,147.283 104.359,147.39 104.173,147.581 C103.987,147.772 103.887,148.026 103.89,148.294 C104.088,161.734 107.149,172.634 108.456,176.696 L108.623,177.214 L108.093,177.337 C104.262,178.226 100.288,178.677 96.282,178.677 C90.726,178.677 86.489,177.817 84.458,177.305 L84.025,177.196 L84.084,176.753 C86.825,156.453 94.051,132.857 94.866,130.234 C94.954,129.955 94.93,129.685 94.807,129.449 C94.684,129.212 94.475,129.037 94.219,128.956 C94.121,128.925 94.02,128.909 93.918,128.909 C93.482,128.909 93.099,129.191 92.966,129.611 C92.949,129.663 91.103,135.573 88.843,144.147 L88.636,144.934 L88.028,144.393 C75.946,133.655 67.661,121.469 66.123,119.135 L66,118.95 L66.056,118.735 C70.014,103.446 76.496,91.071 76.56,90.952 C76.811,90.469 76.624,89.866 76.139,89.613 C75.988,89.534 75.83,89.494 75.666,89.494 C75.296,89.494 74.958,89.7 74.782,90.033 C74.765,90.065 73.468,92.531 71.619,96.779 L71.25,97.628 L63.434,85.71 L63.44,85.55 C64.717,54.223 79.36,33.512 91.419,21.654 C102.869,10.402 114.118,4.796 117.292,3.345 L117.5,3.25 L117.709,3.346 C121.837,5.243 158.347,23.119 168.826,65.831 C170.367,72.11 171.29,78.744 171.569,85.55 L171.576,85.71 L163.75,97.627 L163.381,96.779 C161.533,92.533 160.235,90.065 160.224,90.045 C160.046,89.699 159.71,89.494 159.339,89.494 C159.177,89.494 159.021,89.533 158.875,89.611 C158.632,89.736 158.458,89.942 158.379,90.196 C158.3,90.449 158.325,90.719 158.451,90.954 C159.606,93.221 165.348,104.833 168.954,118.735 L169.01,118.95 L168.886,119.136 C166.695,122.442 158.639,134.032 146.972,144.394 L146.363,144.934 L146.156,144.147 C143.915,135.601 142.061,129.663 142.045,129.617 C141.911,129.191 141.528,128.909 141.091,128.909 C140.99,128.909 140.889,128.925 140.791,128.956 C140.266,129.123 139.968,129.687 140.128,130.215 C140.197,130.411 148.056,155.488 150.925,176.753 L150.985,177.196 L150.552,177.305 C148.521,177.817 144.284,178.677 138.724,178.677 C134.718,178.677 130.745,178.226 126.917,177.337 L126.387,177.214 L126.554,176.696 C127.861,172.633 130.922,161.731 131.11,148.293 C131.116,148.026 131.019,147.777 130.835,147.587 C130.648,147.392 130.395,147.283 130.124,147.28 C129.576,147.294 129.123,147.73 129.11,148.272 C128.877,164.646 124.193,177.448 124.146,177.571 L123.769,178.597 L124.828,178.877 C125.938,179.172 127.122,179.444 128.448,179.71 L128.931,179.806 L127.186,189.267 L128.08,189.507 C132.113,190.564 136.142,191.1 140.05,191.1 C141.879,191.1 143.684,190.98 145.413,190.744 L145.881,190.681 L145.971,191.145 C147.013,196.534 151.504,214.873 165.554,224.578 L166.874,225.49 L105.749,225.49 L105.749,225.49 Z M171.085,225.49 L170.982,225.44 C165.871,222.975 161.366,219.042 157.593,213.75 L157.27,213.298 L157.754,213.024 C169.588,206.346 176.574,196.676 176.643,196.579 C176.804,196.359 176.868,196.097 176.826,195.836 C176.785,195.574 176.642,195.342 176.425,195.184 C176.252,195.058 176.05,194.991 175.837,194.991 C175.517,194.991 175.213,195.146 175.024,195.405 C174.991,195.454 174.369,196.288 173.271,197.574 L172.469,198.513 L172.391,197.281 C171.914,189.725 170.15,183.047 168.755,178.775 L168.362,177.573 L169.471,178.181 C180.655,184.323 186.444,190.269 187.952,191.946 L188.112,192.124 L188.074,192.361 C185.31,209.327 175.858,222.766 173.992,225.287 L173.842,225.49 L171.085,225.49 L171.085,225.49 Z" id="Fill-28" fill="#505352"></path>
        <path d="M8.84,224.99 L1.84,224.99 C1.01,224.99 0.34,225.66 0.34,226.49 C0.34,227.32 1.01,227.99 1.84,227.99 L8.84,227.99 C9.67,227.99 10.34,227.32 10.34,226.49 C10.34,225.66 9.67,224.99 8.84,224.99 L8.84,224.99 Z M122.48,129.94 L112.53,129.94 C113.93,132.28 115.58,134.79 117.5,137.32 C119.43,134.79 121.08,132.28 122.48,129.94 L122.48,129.94 Z M111.82,120.18 C110.38,120.21 108.96,120.24 107.56,120.28 C108.2,121.76 109.28,124.12 110.82,126.94 L111.82,126.94 L111.82,120.18 L111.82,120.18 Z M117.5,120.13 C116.6,120.13 115.71,120.14 114.82,120.15 L114.82,126.94 L120.19,126.94 L120.19,120.15 C119.3,120.14 118.4,120.13 117.5,120.13 L117.5,120.13 Z M116,117.14 L116,108.33 C116,107.5 116.67,106.83 117.5,106.83 C118.33,106.83 119,107.5 119,108.33 L119,117.14 C123.78,117.16 128.44,117.28 132.86,117.49 C131.81,115.45 130.08,112.31 127.93,109.17 C127.46,108.49 127.64,107.56 128.32,107.09 C129.01,106.62 129.94,106.8 130.41,107.48 C133.33,111.75 135.47,115.95 136.31,117.68 C141.74,118.01 146.72,118.47 150.98,119.07 L142.71,103.07 C141.08,104.49 139.34,105.82 137.48,107.02 C137.23,107.18 136.95,107.25 136.67,107.25 C136.18,107.25 135.69,107.01 135.41,106.56 C134.96,105.87 135.16,104.94 135.86,104.49 C138.08,103.07 140.12,101.46 141.99,99.7 C142.04,99.63 142.1,99.57 142.17,99.52 C150.1,91.9 154.67,81.38 154.67,70.12 C154.67,42.87 135.4,30.46 117.5,30.46 C99.6,30.46 80.34,42.87 80.34,70.12 C80.34,81.38 84.91,91.9 92.84,99.52 C92.91,99.57 92.97,99.63 93.02,99.7 C94.88,101.46 96.93,103.07 99.15,104.49 C99.84,104.94 100.05,105.87 99.6,106.56 C99.15,107.26 98.22,107.46 97.53,107.02 C95.66,105.82 93.93,104.49 92.29,103.07 L84.02,119.07 C88.28,118.47 93.27,118.01 98.69,117.68 C99.53,115.95 101.67,111.75 104.6,107.48 C105.07,106.8 106,106.62 106.68,107.09 C107.37,107.56 107.54,108.49 107.07,109.17 C104.93,112.31 103.2,115.46 102.15,117.49 C106.57,117.28 111.23,117.16 116,117.14 L116,117.14 Z M127.45,120.28 C126.04,120.24 124.62,120.21 123.19,120.18 L123.19,126.94 L124.19,126.94 C125.73,124.12 126.81,121.76 127.45,120.28 L127.45,120.28 Z M123.1,152.83 C123.1,153.66 122.43,154.33 121.6,154.33 L119,154.33 L119,161.66 C119,162.49 118.33,163.16 117.5,163.16 C116.67,163.16 116,162.49 116,161.66 L116,154.33 L113.24,154.33 C112.41,154.33 111.74,153.66 111.74,152.83 C111.74,152 112.41,151.33 113.24,151.33 L116,151.33 L116,146.49 L112.34,146.49 C111.51,146.49 110.84,145.82 110.84,144.99 C110.84,144.16 111.51,143.49 112.34,143.49 L116,143.49 L116,140.27 C109.15,131.65 105.39,122.97 104.35,120.4 C95.54,120.76 87.6,121.47 81.58,122.47 L78.63,122.97 L90.02,100.93 C81.97,92.82 77.34,81.85 77.34,70.12 C77.34,40.81 98.16,27.46 117.5,27.46 C136.85,27.46 157.67,40.81 157.67,70.12 C157.67,81.85 153.04,92.82 144.99,100.93 L156.38,122.97 L153.42,122.47 C147.4,121.47 139.47,120.76 130.65,120.4 C129.62,122.97 125.85,131.65 119,140.27 L119,143.49 L122.5,143.49 C123.33,143.49 124,144.16 124,144.99 C124,145.82 123.33,146.49 122.5,146.49 L119,146.49 L119,151.33 L121.6,151.33 C122.43,151.33 123.1,152 123.1,152.83 L123.1,152.83 Z M111.84,74.83 C111.84,74.67 111.82,74.52 111.82,74.36 C110.65,73.03 109.22,72.3 107.74,72.3 C104.11,72.3 101.15,76.53 101.15,81.73 C101.15,84.51 102.04,87.14 103.53,88.94 C108.39,88.38 111.84,82.62 111.84,74.83 L111.84,74.83 Z M98.15,81.73 C98.15,78.3 99.23,75.2 100.96,72.95 C102.7,70.7 105.09,69.3 107.74,69.3 C108.97,69.3 110.15,69.6 111.25,70.16 C109.64,63.89 104.87,59.33 99.25,59.33 C91.92,59.33 88.08,66.38 88.08,73.36 C88.08,77.49 89.36,81.32 91.67,84.13 C93.71,86.61 96.5,88.17 99.82,88.74 C98.75,86.7 98.15,84.28 98.15,81.73 L98.15,81.73 Z M102.75,91.99 C97.19,91.99 92.56,89.93 89.35,86.04 C86.6,82.69 85.08,78.18 85.08,73.36 C85.08,64.89 89.95,56.33 99.25,56.33 C107.47,56.33 114.2,63.91 114.78,73.49 C114.82,73.67 114.83,73.84 114.8,74.02 C114.81,74.29 114.84,74.55 114.84,74.83 C114.84,84.77 109.75,91.99 102.75,91.99 L102.75,91.99 Z M106.07,132.93 C105.26,132.8 104.48,133.36 104.35,134.18 C104.01,136.34 103.76,138.58 103.6,140.83 C103.54,141.66 104.16,142.38 104.99,142.43 C105.03,142.44 105.06,142.44 105.1,142.44 C105.88,142.44 106.54,141.83 106.59,141.04 C106.75,138.88 106.99,136.72 107.32,134.64 C107.45,133.83 106.89,133.06 106.07,132.93 L106.07,132.93 Z M113.54,97.83 L121.46,97.83 L117.5,89.49 L113.54,97.83 L113.54,97.83 Z M126.21,100.83 L108.8,100.83 L117.5,82.5 L126.21,100.83 L126.21,100.83 Z M123.17,74.83 C123.17,82.62 126.62,88.38 131.47,88.94 C132.97,87.14 133.86,84.51 133.86,81.73 C133.86,79.13 133.12,76.77 131.93,75.06 C130.73,73.36 129.08,72.3 127.26,72.3 C125.79,72.3 124.36,73.03 123.19,74.36 C123.18,74.52 123.17,74.67 123.17,74.83 L123.17,74.83 Z M123.76,70.16 C124.86,69.6 126.04,69.3 127.26,69.3 C132.55,69.3 136.86,74.88 136.86,81.73 C136.86,84.28 136.26,86.7 135.19,88.74 C138.51,88.17 141.3,86.61 143.34,84.13 C145.65,81.32 146.93,77.49 146.93,73.36 C146.93,66.38 143.09,59.33 135.75,59.33 C130.14,59.33 125.37,63.89 123.76,70.16 L123.76,70.16 Z M120.17,74.83 C120.17,74.55 120.19,74.29 120.2,74.02 C120.18,73.84 120.19,73.67 120.23,73.49 C120.81,63.91 127.54,56.33 135.75,56.33 C145.06,56.33 149.93,64.89 149.93,73.36 C149.93,78.18 148.41,82.69 145.65,86.04 C142.45,89.93 137.81,91.99 132.25,91.99 C125.25,91.99 120.17,84.77 120.17,74.83 L120.17,74.83 Z M128.94,132.93 C128.12,133.06 127.56,133.83 127.69,134.64 C128.02,136.72 128.26,138.88 128.41,141.04 C128.47,141.83 129.13,142.44 129.91,142.44 C129.94,142.44 129.98,142.44 130.02,142.43 C130.84,142.38 131.47,141.66 131.41,140.83 C131.25,138.58 130.99,136.34 130.65,134.18 C130.52,133.36 129.76,132.8 128.94,132.93 L128.94,132.93 Z M173.59,224.99 C175.67,222.18 184.85,209.04 187.58,192.28 C186.06,190.59 180.34,184.72 169.23,178.62 C170.54,182.63 172.4,189.49 172.89,197.25 C174,195.95 174.6,195.14 174.62,195.11 C175.11,194.44 176.05,194.29 176.72,194.78 C177.39,195.27 177.54,196.2 177.05,196.87 C176.75,197.29 169.73,206.84 158,213.46 C161.28,218.06 165.58,222.28 171.2,224.99 L173.59,224.99 L173.59,224.99 Z M131.31,180.68 L130.07,187.42 C131.5,187.75 132.88,187.99 134.2,188.17 L135.13,181.07 C133.9,180.99 132.62,180.86 131.31,180.68 L131.31,180.68 Z M141.16,181.14 C140.4,181.18 139.61,181.2 138.79,181.2 C138.58,181.2 138.36,181.19 138.14,181.19 L137.18,188.48 C139.03,188.6 140.73,188.6 142.24,188.52 L141.16,181.14 L141.16,181.14 Z M100.81,188.17 C102.13,187.99 103.5,187.75 104.94,187.42 L103.7,180.68 C102.38,180.86 101.11,180.99 99.87,181.07 L100.81,188.17 L100.81,188.17 Z M97.82,188.48 L96.86,181.19 C96.65,181.19 96.42,181.2 96.21,181.2 C95.39,181.2 94.61,181.18 93.85,181.14 L92.76,188.52 C94.27,188.6 95.97,188.6 97.82,188.48 L97.82,188.48 Z M165.27,224.99 C151.04,215.16 146.53,196.67 145.48,191.24 C143.94,191.45 142.12,191.6 140.05,191.6 C136.62,191.6 132.53,191.19 127.95,189.99 L126.61,189.63 L128.35,180.2 C127.15,179.96 125.94,179.69 124.7,179.36 L123.11,178.94 L123.68,177.39 C123.73,177.26 128.38,164.45 128.61,148.26 C128.63,147.43 129.31,146.8 130.13,146.78 C130.96,146.79 131.63,147.47 131.61,148.3 C131.42,161.86 128.31,172.87 127.03,176.85 C138.05,179.41 147.26,177.62 150.43,176.82 C147.58,155.7 139.74,130.62 139.65,130.36 C139.41,129.57 139.85,128.73 140.64,128.48 C141.43,128.23 142.27,128.67 142.52,129.46 C142.56,129.58 144.41,135.52 146.64,144.02 C158.53,133.46 166.72,121.5 168.47,118.86 C164.54,103.71 158.07,91.32 158.01,91.19 C157.62,90.46 157.9,89.55 158.64,89.17 C159.37,88.78 160.28,89.06 160.66,89.8 C160.69,89.85 162.02,92.4 163.84,96.58 L171.07,85.57 C170.78,78.51 169.82,71.98 168.34,65.95 C157.99,23.76 122.46,6.08 117.5,3.8 C114.83,5.02 103.33,10.65 91.77,22.01 C79.76,33.82 65.21,54.4 63.94,85.57 L71.16,96.58 C72.98,92.4 74.31,89.85 74.34,89.8 C74.73,89.06 75.63,88.78 76.37,89.17 C77.1,89.55 77.38,90.46 77,91.19 C76.93,91.32 70.46,103.72 66.54,118.86 C68.28,121.5 76.49,133.47 88.36,144.02 C90.6,135.52 92.45,129.58 92.49,129.46 C92.74,128.67 93.58,128.23 94.37,128.48 C95.16,128.73 95.6,129.57 95.35,130.36 C95.27,130.62 87.43,155.71 84.58,176.82 C87.75,177.62 96.95,179.41 107.98,176.85 C106.7,172.87 103.59,161.86 103.39,148.3 C103.38,147.47 104.04,146.79 104.87,146.78 C105.7,146.8 106.38,147.43 106.39,148.26 C106.62,164.48 111.28,177.26 111.33,177.39 L111.9,178.93 L110.31,179.36 C109.07,179.69 107.85,179.96 106.66,180.2 L108.4,189.63 L107.05,189.99 C102.48,191.19 98.39,191.6 94.95,191.6 C92.89,191.6 91.07,191.45 89.52,191.24 C88.48,196.67 83.96,215.16 69.74,224.99 L87.84,224.99 L94.89,220.28 L96.49,219.21 L105.89,224.99 L165.27,224.99 L165.27,224.99 Z M63.81,224.99 C69.42,222.28 73.73,218.06 77,213.46 C65.28,206.84 58.26,197.29 57.96,196.87 C57.47,196.2 57.62,195.27 58.29,194.78 C58.96,194.29 59.9,194.44 60.38,195.11 C60.4,195.14 61,195.95 62.12,197.25 C62.6,189.49 64.47,182.63 65.78,178.62 C54.67,184.72 48.95,190.59 47.43,192.28 C50.15,209.04 59.33,222.18 61.42,224.99 L63.81,224.99 L63.81,224.99 Z M70.76,205.59 C73.07,207.45 75.72,209.31 78.67,210.96 C80.7,207.7 82.26,204.36 83.44,201.3 C80.01,197.52 77.75,193.21 76.59,190.62 C72.23,196.16 71.05,203.3 70.76,205.59 L70.76,205.59 Z M89.77,188.23 L90.85,180.93 C89.43,180.79 88.16,180.61 87.07,180.42 C86.81,181.96 86.38,184.54 85.96,187.48 C86.8,187.71 88.1,188 89.77,188.23 L89.77,188.23 Z M149.05,187.48 C148.62,184.54 148.2,181.96 147.94,180.42 C146.84,180.61 145.58,180.79 144.16,180.93 L145.23,188.23 C146.91,188 148.2,187.71 149.05,187.48 L149.05,187.48 Z M151.57,201.3 C152.75,204.36 154.31,207.7 156.34,210.96 C159.28,209.31 161.93,207.45 164.24,205.59 C163.96,203.29 162.76,196.15 158.42,190.63 C157.25,193.21 154.99,197.52 151.57,201.3 L151.57,201.3 Z M219.34,226.49 C219.34,227.32 218.67,227.99 217.84,227.99 L105.04,227.99 L96.55,222.77 L88.76,227.99 L17.17,227.99 C16.34,227.99 15.67,227.32 15.67,226.49 C15.67,225.66 16.34,224.99 17.17,224.99 L57.72,224.99 C54.24,219.95 46.7,207.58 44.35,192.05 L44.26,191.4 L44.66,190.89 C44.94,190.54 51.65,182.27 67.83,174.15 L71.44,172.34 L69.89,176.07 C69.84,176.19 65.15,187.6 65,200.38 C65.9,201.3 66.93,202.28 68.07,203.31 C68.78,199.34 70.74,192.07 76,186.77 L77.68,185.07 L78.47,187.33 C78.5,187.39 80.53,193.05 84.6,198.06 C85.64,194.87 86.25,192.24 86.56,190.72 C84.86,190.35 83.88,189.98 83.76,189.94 L82.64,189.51 L82.81,188.33 C83.31,184.77 83.83,181.56 84.13,179.8 C83.14,179.56 82.55,179.37 82.45,179.33 L81.28,178.94 L81.43,177.72 C82.72,167.55 85.22,156.33 87.52,147.27 C73.17,134.88 63.75,120.07 63.65,119.92 L63.31,119.38 L63.47,118.75 C65.28,111.59 67.68,104.99 69.76,99.91 L60.9,86.42 L60.92,85.94 C62.1,53.46 77.25,32.04 89.76,19.79 C103.3,6.52 116.38,1 116.93,0.77 L117.5,0.54 L118.08,0.77 C118.63,1 131.71,6.52 145.25,19.79 C154.87,29.22 166.06,44.08 171.24,65.23 C172.8,71.56 173.81,78.46 174.09,85.94 L174.1,86.42 L165.25,99.91 C167.33,104.99 169.72,111.59 171.54,118.75 L171.7,119.38 L171.35,119.92 C171.26,120.07 161.84,134.88 147.48,147.27 C149.78,156.33 152.29,167.55 153.57,177.72 L153.73,178.94 L152.56,179.33 C152.46,179.37 151.87,179.56 150.88,179.8 C151.18,181.56 151.7,184.77 152.2,188.33 L152.36,189.51 L151.25,189.94 C151.13,189.98 150.14,190.35 148.45,190.72 C148.75,192.24 149.36,194.87 150.41,198.06 C154.48,193.05 156.51,187.39 156.53,187.33 L157.33,185.07 L159.01,186.77 C164.27,192.07 166.23,199.34 166.93,203.31 C168.07,202.28 169.1,201.3 170,200.38 C169.86,187.6 165.17,176.19 165.12,176.07 L163.57,172.34 L167.18,174.15 C183.35,182.27 190.06,190.54 190.34,190.89 L190.75,191.4 L190.65,192.05 C188.3,207.58 180.77,219.95 177.29,224.99 L217.84,224.99 C218.67,224.99 219.34,225.66 219.34,226.49 L219.34,226.49 Z M234.67,226.49 C234.67,227.32 234,227.99 233.17,227.99 L226.17,227.99 C225.34,227.99 224.67,227.32 224.67,226.49 C224.67,225.66 225.34,224.99 226.17,224.99 L233.17,224.99 C234,224.99 234.67,225.66 234.67,226.49 L234.67,226.49 Z" id="Fill-29" fill="#2B2F35"></path>
    </g>
</svg>