<?xml version="1.0" encoding="UTF-8" standalone="no"?>
<svg width="246px" height="202px" viewBox="0 0 246 202" version="1.1" xmlns="http://www.w3.org/2000/svg" xmlns:xlink="http://www.w3.org/1999/xlink">
    <!-- Generator: Sketch 39.1 (31720) - http://www.bohemiancoding.com/sketch -->
    <title>Slice 1</title>
    <desc>Created with Sketch.</desc>
    <defs></defs>
    <g id="Page-1" stroke="none" stroke-width="1" fill="none" fill-rule="evenodd">
        <path d="M173.02,179.905 L173.02,155.564 L169.31,150.701 L173.02,146.535 L173.02,55.471 L172.71,55.18 C171.96,54.468 153.98,37.716 123.175,32.989 L123.021,32.969 L122.856,32.991 C92.065,37.716 74.085,54.468 73.335,55.178 L73.021,55.471 L73.021,146.535 L76.728,150.701 L73.021,155.564 L73.021,179.905 L57.521,179.905 L57.521,44.405 C57.521,43.845 57.96,43.405 58.521,43.405 L71.29,43.405 C73.475,43.405 75.438,42.193 76.413,40.241 C78.384,36.312 83.531,26.842 88.777,23.763 C90.753,22.606 93.102,22.02 95.759,22.02 C100.396,22.02 104.328,23.801 104.364,23.818 L105.476,24.324 L105.742,23.127 C105.858,22.627 108.731,10.905 122.779,3.168 L123.021,3.034 L123.262,3.168 C137.46,10.991 140.27,23.026 140.29,23.143 L140.56,24.324 L141.68,23.81 C142.72,23.375 146.24,22.022 150.29,22.022 C152.94,22.022 155.29,22.608 157.26,23.763 C162.51,26.842 167.66,36.312 169.63,40.241 C170.6,42.193 172.57,43.405 174.75,43.405 L187.52,43.405 C188.08,43.405 188.52,43.845 188.52,44.405 L188.52,179.905 L173.02,179.905 L173.02,179.905 Z M49.021,199.155 L197.02,199.155 L197.02,181.905 L49.021,181.905 L49.021,199.155 Z" id="Fill-74" fill="#5E5D6D"></path>
        <path d="M97.311,152.925 C96.697,152.925 96.053,152.839 95.396,152.67 L95.021,152.573 L95.021,138.348 L95.396,138.251 C96.051,138.081 96.695,137.995 97.311,137.995 C101.424,137.995 104.771,141.342 104.771,145.455 C104.771,149.574 101.424,152.925 97.311,152.925 L97.311,152.925 Z M145.69,152.925 C145.08,152.925 144.45,152.842 143.79,152.67 L143.41,152.573 L143.41,138.348 L143.79,138.251 C144.45,138.079 145.07,137.995 145.69,137.995 C149.81,137.995 153.16,141.342 153.16,145.455 C153.16,149.574 149.81,152.925 145.69,152.925 L145.69,152.925 Z M122.856,45.111 C114.167,46.444 105.648,48.895 97.549,52.394 C97.304,52.497 97.118,52.688 97.019,52.933 C96.918,53.184 96.922,53.459 97.028,53.706 C97.185,54.075 97.543,54.309 97.944,54.309 C98.081,54.309 98.215,54.282 98.341,54.226 C106.226,50.827 114.503,48.437 122.943,47.121 L123.021,47.109 L123.098,47.121 C131.54,48.437 139.82,50.827 147.7,54.226 C147.82,54.281 147.95,54.305 148.1,54.305 C148.5,54.305 148.86,54.072 149.01,53.711 C149.12,53.459 149.12,53.184 149.02,52.933 C148.92,52.688 148.74,52.497 148.5,52.396 C140.39,48.895 131.87,46.444 123.175,45.109 L123.021,45.089 L122.856,45.111 L122.856,45.111 Z M92.991,54.598 C92.839,54.598 92.691,54.634 92.554,54.702 C90.38,55.774 88.147,56.983 85.914,58.296 C85.442,58.581 85.282,59.199 85.561,59.67 C85.742,59.974 86.071,60.165 86.421,60.165 C86.599,60.165 86.782,60.115 86.938,60.023 C89.007,58.795 91.195,57.608 93.438,56.497 C93.929,56.252 94.132,55.649 93.892,55.154 C93.724,54.818 93.369,54.598 92.991,54.598 L92.991,54.598 Z M153.05,54.598 C152.67,54.598 152.32,54.818 152.15,55.159 C151.91,55.649 152.11,56.252 152.6,56.498 C154.85,57.608 157.03,58.795 159.11,60.025 C159.26,60.115 159.44,60.165 159.62,60.165 C159.97,60.165 160.3,59.974 160.48,59.669 C160.76,59.199 160.6,58.581 160.12,58.293 C157.89,56.983 155.66,55.774 153.49,54.703 C153.35,54.634 153.2,54.598 153.05,54.598 L153.05,54.598 Z M123.021,66.545 C115.223,66.545 105.321,68.709 103.079,74.808 C100.3,82.399 100.882,100.791 106.319,104.834 L106.521,104.984 L106.521,115.275 C106.521,116.863 107.808,118.155 109.391,118.155 L114.021,118.155 L114.021,124.535 C114.021,126.118 115.308,127.405 116.891,127.405 L129.15,127.405 C130.733,127.405 132.02,126.118 132.02,124.535 L132.02,118.155 L136.65,118.155 C138.23,118.155 139.52,116.863 139.52,115.275 L139.52,104.984 L139.72,104.834 C145.16,100.791 145.74,82.399 142.96,74.807 C140.72,68.709 130.818,66.545 123.021,66.545 L123.021,66.545 Z M93.196,137.088 C93.164,137.137 93.147,137.172 93.13,137.213 C93.039,137.407 93.014,137.55 93.021,137.704 L93.021,164.405 C93.021,164.957 93.47,165.405 94.021,165.405 C94.571,165.405 95.021,164.957 95.021,164.405 L95.021,154.652 L95.612,154.763 C96.192,154.872 96.749,154.925 97.311,154.925 C97.67,154.925 98.031,154.9 98.415,154.849 L98.659,154.818 L108.345,164.502 C108.53,164.688 108.788,164.795 109.05,164.795 C109.313,164.795 109.571,164.688 109.757,164.502 C109.949,164.309 110.054,164.056 110.054,163.787 C110.052,163.523 109.948,163.276 109.76,163.092 L100.896,154.227 L101.518,153.918 C104.758,152.303 106.771,149.06 106.771,145.455 C106.771,140.239 102.526,135.995 97.311,135.995 C96.083,135.995 94.882,136.231 93.739,136.698 C93.555,136.763 93.409,136.853 93.294,136.969 L93.24,137.049 L93.189,137.081 L93.196,137.088 L93.196,137.088 Z M123.021,136.655 C122.47,136.655 122.021,137.103 122.021,137.655 L122.021,164.405 C122.021,164.957 122.47,165.405 123.021,165.405 C123.571,165.405 124.021,164.957 124.021,164.405 L124.021,137.655 C124.021,137.103 123.571,136.655 123.021,136.655 L123.021,136.655 Z M145.69,135.995 C144.46,135.995 143.26,136.231 142.13,136.697 C141.94,136.763 141.8,136.853 141.68,136.969 L141.61,137.054 C141.55,137.136 141.54,137.17 141.52,137.211 L141.5,137.266 L141.44,137.345 C141.43,137.401 141.4,137.551 141.41,137.703 L141.41,164.405 C141.41,164.957 141.86,165.405 142.41,165.405 C142.96,165.405 143.41,164.957 143.41,164.405 L143.41,154.65 L144,154.763 C144.57,154.871 145.13,154.925 145.69,154.925 C150.91,154.925 155.16,150.677 155.16,145.455 C155.16,140.239 150.91,135.995 145.69,135.995 L145.69,135.995 Z M75.021,179.905 L75.021,156.246 L79.313,150.609 L75.021,145.775 L75.021,56.347 L75.191,56.198 C78.392,53.402 95.735,39.237 122.943,35.001 L123.021,34.989 L123.098,35.001 C150.24,39.235 167.64,53.401 170.85,56.198 L171.02,56.347 L171.02,145.775 L166.73,150.609 L171.02,156.246 L171.02,179.905 L75.021,179.905 L75.021,179.905 Z" id="Fill-75" fill="#686177"></path>
        <path d="M113.271,79.905 C111.341,79.905 109.771,81.475 109.771,83.405 L109.771,91.655 C109.771,93.585 111.341,95.155 113.271,95.155 C115.2,95.155 116.771,93.585 116.771,91.655 L116.771,83.405 C116.771,81.475 115.2,79.905 113.271,79.905 L113.271,79.905 Z M132.77,79.905 C130.841,79.905 129.271,81.475 129.271,83.405 L129.271,91.655 C129.271,93.585 130.841,95.155 132.77,95.155 C134.7,95.155 136.27,93.585 136.27,91.655 L136.27,83.405 C136.27,81.475 134.7,79.905 132.77,79.905 L132.77,79.905 Z M123.016,105.815 C116.905,105.754 110.845,104.819 107.933,103.49 C103.057,101.285 102.329,82.675 104.962,75.503 C106.46,71.406 113.886,68.545 123.021,68.545 C132.16,68.545 139.58,71.406 141.08,75.503 C143.71,82.675 142.98,101.285 138.11,103.491 C135.2,104.819 129.136,105.754 123.025,105.815 L123.016,105.815 L123.016,105.815 Z M109.391,116.155 C108.911,116.155 108.521,115.761 108.521,115.275 L108.521,105.873 L109.165,106.066 C110.39,106.434 111.882,106.765 113.603,107.052 L114.021,107.121 L114.021,116.155 L109.391,116.155 L109.391,116.155 Z M132.02,116.155 L132.02,107.121 L132.44,107.052 C134.16,106.765 135.65,106.434 136.88,106.066 L137.52,105.873 L137.52,115.275 C137.52,115.761 137.13,116.155 136.65,116.155 L132.02,116.155 L132.02,116.155 Z M116.891,125.405 C116.411,125.405 116.021,125.014 116.021,124.535 L116.021,107.389 L116.573,107.448 C118.149,107.615 119.818,107.725 121.535,107.775 L122.021,107.79 L122.021,125.405 L116.891,125.405 L116.891,125.405 Z M124.021,125.405 L124.021,107.79 L124.506,107.775 C126.223,107.725 127.892,107.615 129.468,107.448 L130.021,107.389 L130.021,124.535 C130.021,125.014 129.63,125.405 129.15,125.405 L124.021,125.405 L124.021,125.405 Z" id="Fill-76" fill="#FCF0D4"></path>
        <path d="M16.271,198.655 L2.271,198.655 C1.44,198.655 0.771,199.325 0.771,200.155 C0.771,200.985 1.44,201.655 2.271,201.655 L16.271,201.655 C17.101,201.655 17.771,200.985 17.771,200.155 C17.771,199.325 17.101,198.655 16.271,198.655 L16.271,198.655 Z M49.521,198.655 L196.52,198.655 L196.52,182.405 L49.521,182.405 L49.521,198.655 Z M166.08,150.585 L170.52,145.585 L170.52,56.575 C167.5,53.945 150.14,39.725 123.021,35.495 C95.851,39.725 78.53,53.945 75.521,56.575 L75.521,145.585 L79.96,150.585 L75.521,156.415 L75.521,179.405 L170.52,179.405 L170.52,156.415 L166.08,150.585 L166.08,150.585 Z M58.021,179.405 L72.521,179.405 L72.521,155.395 L76.081,150.725 L72.521,146.725 L72.521,55.255 L72.991,54.815 C73.751,54.095 91.9,37.235 122.79,32.495 L123.021,32.465 L123.251,32.495 C154.14,37.235 172.29,54.095 173.05,54.815 L173.52,55.255 L173.52,146.725 L169.96,150.725 L173.52,155.395 L173.52,179.405 L188.02,179.405 L188.02,44.405 C188.02,44.125 187.8,43.905 187.52,43.905 L174.75,43.905 C172.38,43.905 170.24,42.585 169.18,40.465 C167.23,36.575 162.14,27.205 157.01,24.195 C150.54,20.405 141.98,24.235 141.89,24.265 L140.2,25.035 L139.8,23.225 C139.78,23.105 136.98,11.295 123.021,3.605 C109.061,11.295 106.261,23.105 106.23,23.235 L105.831,25.035 L104.141,24.265 C104.061,24.225 95.501,20.405 89.03,24.195 C83.9,27.205 78.811,36.575 76.86,40.465 C75.8,42.585 73.661,43.905 71.29,43.905 L58.521,43.905 C58.241,43.905 58.021,44.125 58.021,44.405 L58.021,179.405 L58.021,179.405 Z M227.52,77.155 C227.52,77.985 226.85,78.655 226.02,78.655 L200.77,78.655 L200.77,87.386 L214.77,87.386 C215.6,87.386 216.27,88.055 216.27,88.886 C216.27,89.715 215.6,90.386 214.77,90.386 L200.77,90.386 L200.77,144.935 L209.27,157.185 L209.27,175.405 L216.77,175.405 C217.6,175.405 218.27,176.075 218.27,176.905 C218.27,177.735 217.6,178.405 216.77,178.405 L209.27,178.405 L209.27,192.035 L199.52,192.035 L199.52,198.655 L221.27,198.655 C222.1,198.655 222.77,199.325 222.77,200.155 C222.77,200.985 222.1,201.655 221.27,201.655 L24.771,201.655 C23.94,201.655 23.271,200.985 23.271,200.155 C23.271,199.325 23.94,198.655 24.771,198.655 L46.521,198.655 L46.521,192.035 L36.771,192.035 L36.771,178.405 L29.271,178.405 C28.44,178.405 27.771,177.735 27.771,176.905 C27.771,176.075 28.44,175.405 29.271,175.405 L36.771,175.405 L36.771,157.185 L45.271,144.935 L45.271,90.386 L31.271,90.386 C30.44,90.386 29.771,89.715 29.771,88.886 C29.771,88.055 30.44,87.386 31.271,87.386 L45.271,87.386 L45.271,78.655 L20.021,78.655 C19.19,78.655 18.521,77.985 18.521,77.155 C18.521,76.325 19.19,75.655 20.021,75.655 L45.271,75.655 L45.271,66.655 L5.021,66.655 C4.19,66.655 3.521,65.985 3.521,65.155 C3.521,64.325 4.19,63.655 5.021,63.655 L48.271,63.655 L48.271,145.875 L39.771,158.125 L39.771,189.035 L46.521,189.035 L46.521,179.405 L55.021,179.405 L55.021,44.405 C55.021,42.475 56.591,40.905 58.521,40.905 L71.29,40.905 C72.521,40.905 73.63,40.225 74.181,39.125 C76.751,33.995 81.9,24.905 87.511,21.615 C93.55,18.075 100.671,19.835 103.79,20.915 C105.13,17.035 109.601,7.275 122.32,0.575 L123.021,0.205 L123.721,0.575 C136.44,7.275 140.91,17.035 142.25,20.915 C145.37,19.835 152.49,18.075 158.53,21.615 C164.14,24.905 169.29,33.995 171.86,39.125 C172.41,40.225 173.52,40.905 174.75,40.905 L187.52,40.905 C189.45,40.905 191.02,42.475 191.02,44.405 L191.02,179.405 L199.52,179.405 L199.52,189.035 L206.27,189.035 L206.27,158.125 L197.77,145.875 L197.77,63.655 L241.02,63.655 C241.85,63.655 242.52,64.325 242.52,65.155 C242.52,65.985 241.85,66.655 241.02,66.655 L200.77,66.655 L200.77,75.655 L226.02,75.655 C226.85,75.655 227.52,76.325 227.52,77.155 L227.52,77.155 Z M94.341,54.935 C93.971,54.195 93.07,53.886 92.331,54.255 C90.061,55.375 87.82,56.595 85.661,57.865 C84.95,58.295 84.71,59.215 85.13,59.925 C85.411,60.395 85.911,60.665 86.421,60.665 C86.681,60.665 86.95,60.595 87.19,60.455 C89.28,59.215 91.46,58.035 93.661,56.945 C94.4,56.575 94.7,55.675 94.341,54.935 L94.341,54.935 Z M104.271,145.455 C104.271,141.625 101.15,138.495 97.311,138.495 C96.7,138.495 96.101,138.585 95.521,138.735 L95.521,152.185 C96.101,152.335 96.7,152.425 97.311,152.425 C101.15,152.425 104.271,149.295 104.271,145.455 L104.271,145.455 Z M110.11,162.735 C110.7,163.315 110.7,164.265 110.11,164.855 C109.82,165.145 109.431,165.295 109.05,165.295 C108.671,165.295 108.28,165.145 107.991,164.855 L98.48,155.345 C98.101,155.395 97.71,155.425 97.311,155.425 C96.7,155.425 96.11,155.365 95.521,155.255 L95.521,164.405 C95.521,165.235 94.851,165.905 94.021,165.905 C93.19,165.905 92.521,165.235 92.521,164.405 L92.521,153.295 L92.521,153.225 L92.521,137.725 C92.511,137.495 92.55,137.275 92.641,137.075 C92.65,137.055 92.661,137.035 92.671,137.015 C92.7,136.945 92.73,136.886 92.771,136.825 C92.8,136.775 92.841,136.735 92.88,136.685 C92.911,136.665 92.921,136.636 92.94,136.615 C93.11,136.445 93.32,136.315 93.55,136.235 C94.751,135.745 96.011,135.495 97.311,135.495 C102.8,135.495 107.271,139.965 107.271,145.455 C107.271,149.355 105.011,152.735 101.741,154.365 L110.11,162.735 L110.11,162.735 Z M98.54,54.685 C106.38,51.305 114.62,48.925 123.021,47.615 C131.42,48.925 139.66,51.305 147.5,54.685 C147.7,54.775 147.9,54.805 148.1,54.805 C148.68,54.805 149.23,54.475 149.47,53.905 C149.8,53.145 149.45,52.255 148.69,51.935 C140.54,48.415 131.98,45.955 123.251,44.615 L123.021,44.585 L122.79,44.615 C114.061,45.955 105.501,48.415 97.351,51.935 C96.591,52.255 96.241,53.145 96.57,53.905 C96.891,54.665 97.78,55.015 98.54,54.685 L98.54,54.685 Z M140.61,75.675 C139.18,71.765 131.95,69.045 123.021,69.045 C114.091,69.045 106.86,71.765 105.431,75.675 C102.671,83.195 103.851,101.095 108.141,103.035 C111.011,104.345 116.991,105.255 123.021,105.315 C129.05,105.255 135.03,104.345 137.9,103.035 C142.19,101.095 143.37,83.195 140.61,75.675 L140.61,75.675 Z M137.02,106.545 C135.72,106.935 134.2,107.265 132.52,107.545 L132.52,115.655 L136.65,115.655 C136.85,115.655 137.02,115.485 137.02,115.275 L137.02,106.545 L137.02,106.545 Z M129.521,107.945 C127.921,108.115 126.23,108.225 124.521,108.275 L124.521,124.905 L129.15,124.905 C129.351,124.905 129.521,124.735 129.521,124.535 L129.521,107.945 L129.521,107.945 Z M121.521,108.275 C119.811,108.225 118.12,108.115 116.521,107.945 L116.521,124.535 C116.521,124.735 116.69,124.905 116.891,124.905 L121.521,124.905 L121.521,108.275 L121.521,108.275 Z M113.521,107.545 C111.841,107.265 110.32,106.935 109.021,106.545 L109.021,115.275 C109.021,115.485 109.19,115.655 109.391,115.655 L113.521,115.655 L113.521,107.545 L113.521,107.545 Z M140.02,105.235 L140.02,115.275 C140.02,117.145 138.51,118.655 136.65,118.655 L132.52,118.655 L132.52,124.535 C132.52,126.395 131.01,127.905 129.15,127.905 L116.891,127.905 C115.03,127.905 113.521,126.395 113.521,124.535 L113.521,118.655 L109.391,118.655 C107.53,118.655 106.021,117.145 106.021,115.275 L106.021,105.235 C100.171,100.886 99.86,82.145 102.61,74.636 C104.94,68.295 115.061,66.045 123.021,66.045 C130.98,66.045 141.1,68.295 143.43,74.636 C146.18,82.145 145.87,100.886 140.02,105.235 L140.02,105.235 Z M113.271,79.405 C111.061,79.405 109.271,81.195 109.271,83.405 L109.271,91.655 C109.271,93.865 111.061,95.655 113.271,95.655 C115.48,95.655 117.271,93.865 117.271,91.655 L117.271,83.405 C117.271,81.195 115.48,79.405 113.271,79.405 L113.271,79.405 Z M123.021,136.155 C122.19,136.155 121.521,136.825 121.521,137.655 L121.521,164.405 C121.521,165.235 122.19,165.905 123.021,165.905 C123.851,165.905 124.521,165.235 124.521,164.405 L124.521,137.655 C124.521,136.825 123.851,136.155 123.021,136.155 L123.021,136.155 Z M132.77,79.405 C130.561,79.405 128.771,81.195 128.771,83.405 L128.771,91.655 C128.771,93.865 130.561,95.655 132.77,95.655 C134.98,95.655 136.77,93.865 136.77,91.655 L136.77,83.405 C136.77,81.195 134.98,79.405 132.77,79.405 L132.77,79.405 Z M152.66,145.455 C152.66,141.625 149.53,138.495 145.69,138.495 C145.08,138.495 144.49,138.585 143.91,138.735 L143.91,152.185 C144.49,152.335 145.08,152.425 145.69,152.425 C149.53,152.425 152.66,149.295 152.66,145.455 L152.66,145.455 Z M155.66,145.455 C155.66,150.955 151.19,155.425 145.69,155.425 C145.09,155.425 144.49,155.365 143.91,155.255 L143.91,164.405 C143.91,165.235 143.24,165.905 142.41,165.905 C141.58,165.905 140.91,165.235 140.91,164.405 L140.91,153.295 L140.91,153.225 L140.91,137.725 C140.9,137.495 140.94,137.275 141.02,137.075 C141.03,137.055 141.05,137.035 141.06,137.015 C141.09,136.945 141.12,136.886 141.16,136.825 C141.19,136.775 141.23,136.735 141.27,136.685 C141.29,136.665 141.31,136.636 141.33,136.615 C141.5,136.445 141.71,136.315 141.94,136.235 C143.13,135.745 144.4,135.495 145.69,135.495 C151.19,135.495 155.66,139.965 155.66,145.455 L155.66,145.455 Z M160.38,57.865 C158.22,56.595 155.98,55.375 153.71,54.255 C152.97,53.886 152.07,54.195 151.7,54.935 C151.34,55.675 151.64,56.575 152.38,56.945 C154.58,58.035 156.76,59.215 158.85,60.455 C159.09,60.595 159.36,60.665 159.62,60.665 C160.13,60.665 160.63,60.395 160.91,59.925 C161.33,59.215 161.09,58.295 160.38,57.865 L160.38,57.865 Z M245.27,200.155 C245.27,200.985 244.6,201.655 243.77,201.655 L229.77,201.655 C228.94,201.655 228.27,200.985 228.27,200.155 C228.27,199.325 228.94,198.655 229.77,198.655 L243.77,198.655 C244.6,198.655 245.27,199.325 245.27,200.155 L245.27,200.155 Z" id="Fill-77" fill="#42384B"></path>
    </g>
</svg>