<?xml version="1.0" encoding="UTF-8" standalone="no"?>
<svg width="232px" height="232px" viewBox="0 0 232 232" version="1.1" xmlns="http://www.w3.org/2000/svg" xmlns:xlink="http://www.w3.org/1999/xlink">
    <!-- Generator: Sketch 39.1 (31720) - http://www.bohemiancoding.com/sketch -->
    <title>Slice 1</title>
    <desc>Created with Sketch.</desc>
    <defs></defs>
    <g id="Page-1" stroke="none" stroke-width="1" fill="none" fill-rule="evenodd">
        <path d="M109.73,118.54 C108.87,118.54 108.17,119.239 108.17,120.1 L108.17,123.72 C108.17,124.58 108.87,125.28 109.73,125.28 C110.59,125.28 111.29,124.58 111.29,123.72 L111.29,120.1 C111.29,119.239 110.59,118.54 109.73,118.54 L109.73,118.54 Z M118.61,118.54 C117.75,118.54 117.05,119.239 117.05,120.1 L117.05,123.72 C117.05,124.58 117.75,125.28 118.61,125.28 C119.47,125.28 120.17,124.58 120.17,123.72 L120.17,120.1 C120.17,119.239 119.47,118.54 118.61,118.54 L118.61,118.54 Z M115.123,127.08 L114.17,125.471 L113.217,127.08 L115.123,127.08 L115.123,127.08 Z M114.17,130.16 C105.714,130.16 102.42,128.127 102.42,122.91 C102.42,116.431 107.691,111.16 114.17,111.16 C120.649,111.16 125.92,116.431 125.92,122.91 C125.92,128.127 122.625,130.16 114.17,130.16 L114.17,130.16 Z M112.6,138.705 C111.557,138.558 110.869,138.437 110.435,138.324 L110.06,138.227 L110.06,131.99 L110.607,132.042 C111.249,132.103 111.926,132.138 112.678,132.15 L113.17,132.158 L113.17,138.785 L112.6,138.705 L112.6,138.705 Z M115.17,132.158 L115.662,132.15 C116.414,132.138 117.091,132.103 117.732,132.042 L118.28,131.99 L118.28,138.227 L117.905,138.324 C117.471,138.437 116.783,138.558 115.74,138.705 L115.17,138.785 L115.17,132.158 L115.17,132.158 Z" id="Fill-1" fill="#FFFCE1"></path>
        <path d="M88.75,69.33 C81.744,69.33 75.873,64.088 75.093,57.135 L75.031,56.58 L88.675,56.58 L88.218,57.338 C87.807,58.02 87.59,58.795 87.59,59.58 C87.59,62.011 89.568,63.99 92,63.99 C94.437,63.99 96.42,62.011 96.42,59.58 C96.42,58.8 96.207,58.044 95.789,57.334 L95.345,56.58 L102.48,56.58 L102.417,57.136 C101.627,64.088 95.751,69.33 88.75,69.33 L88.75,69.33 Z M139.59,69.33 C132.588,69.33 126.713,64.088 125.923,57.136 L125.86,56.58 L132.995,56.58 L132.551,57.334 C132.132,58.044 131.92,58.8 131.92,59.58 C131.92,62.011 133.903,63.99 136.34,63.99 C138.771,63.99 140.75,62.011 140.75,59.58 C140.75,58.795 140.533,58.02 140.122,57.338 L139.665,56.58 L153.309,56.58 L153.247,57.135 C152.467,64.088 146.596,69.33 139.59,69.33 L139.59,69.33 Z" id="Fill-2" fill="#F1BB31"></path>
        <path d="M78.728,37.391 C72.637,22.674 59.343,13.899 55.414,11.56 L55.17,11.414 L55.17,4.797 L55.915,5.214 C61.949,8.599 76.798,18.26 84.335,34.823 L84.547,35.29 L84.075,35.49 C82.604,36.114 81.079,36.82 79.413,37.648 L78.933,37.886 L78.728,37.391 L78.728,37.391 Z M148.927,37.648 C147.261,36.82 145.735,36.114 144.265,35.49 L143.792,35.29 L144.005,34.823 C151.521,18.303 166.383,8.614 172.425,5.215 L173.17,4.795 L173.17,11.414 L172.926,11.56 C168.997,13.899 155.703,22.674 149.612,37.391 L149.407,37.886 L148.927,37.648 L148.927,37.648 Z M113.87,79.43 C110.85,77.167 109.121,73.82 108.359,72.025 L108.064,71.33 L120.287,71.33 L119.99,72.026 C119.226,73.818 117.493,77.163 114.47,79.43 L114.17,79.655 L113.87,79.43 L113.87,79.43 Z" id="Fill-3" fill="#8AA292"></path>
        <path d="M66.509,45.892 C66.288,45.892 66.079,45.963 65.905,46.096 C64.621,47.073 63.263,48.174 61.865,49.37 C61.662,49.544 61.539,49.787 61.52,50.055 C61.5,50.319 61.585,50.573 61.757,50.771 C61.956,51.004 62.226,51.13 62.52,51.13 C62.755,51.13 62.981,51.044 63.157,50.887 C64.509,49.735 65.839,48.663 67.118,47.692 C67.547,47.354 67.633,46.719 67.301,46.281 C67.113,46.034 66.825,45.892 66.509,45.892 L66.509,45.892 Z M161.835,45.895 C161.522,45.895 161.229,46.038 161.034,46.288 C160.707,46.719 160.792,47.354 161.229,47.697 C162.501,48.663 163.831,49.735 165.174,50.879 C165.358,51.044 165.584,51.13 165.82,51.13 C166.116,51.13 166.391,51.003 166.575,50.781 C166.755,50.573 166.839,50.319 166.82,50.055 C166.801,49.787 166.678,49.544 166.475,49.369 C165.077,48.173 163.719,47.073 162.437,46.098 C162.262,45.966 162.054,45.895 161.835,45.895 L161.835,45.895 Z M74,54.58 C73.449,54.58 73,55.029 73,55.58 C73,64.265 80.065,71.33 88.75,71.33 C96.806,71.33 103.694,65.051 104.432,57.034 L104.474,56.58 L109.34,56.58 C109.766,56.58 110.142,56.311 110.276,55.912 C110.418,55.498 110.289,55.052 109.957,54.798 L94.951,43.024 C94.771,42.88 94.56,42.805 94.337,42.805 C94.03,42.805 93.745,42.945 93.554,43.189 C93.214,43.621 93.29,44.254 93.722,44.599 L106.448,54.58 L74,54.58 L74,54.58 Z M134.003,42.805 C133.779,42.805 133.568,42.88 133.393,43.021 L118.389,54.794 C118.051,55.052 117.922,55.498 118.063,55.907 C118.198,56.311 118.574,56.58 119,56.58 L123.866,56.58 L123.908,57.034 C124.646,65.051 131.534,71.33 139.59,71.33 C148.274,71.33 155.34,64.265 155.34,55.58 C155.34,55.029 154.891,54.58 154.34,54.58 L121.892,54.58 L134.621,44.596 C135.05,44.254 135.125,43.621 134.787,43.189 C134.595,42.945 134.31,42.805 134.003,42.805 L134.003,42.805 Z M106.67,69.33 C106.36,69.33 106.064,69.476 105.878,69.721 C105.684,69.97 105.622,70.285 105.703,70.592 C105.924,71.36 108.012,78.143 113.637,81.687 C113.8,81.796 113.981,81.85 114.17,81.85 C114.359,81.85 114.54,81.796 114.692,81.694 C120.327,78.143 122.415,71.36 122.635,70.598 C122.718,70.285 122.656,69.97 122.466,69.728 C122.275,69.476 121.98,69.33 121.67,69.33 L106.67,69.33 L106.67,69.33 Z M104.67,88.28 C104.119,88.28 103.67,88.729 103.67,89.28 C103.67,89.831 104.119,90.28 104.67,90.28 L123.67,90.28 C124.221,90.28 124.67,89.831 124.67,89.28 C124.67,88.729 124.221,88.28 123.67,88.28 L104.67,88.28 L104.67,88.28 Z M113.17,100.83 C102.509,100.83 92.073,97.893 82.989,92.337 L82.222,91.867 L93.455,86.223 C93.692,86.101 93.871,85.893 93.955,85.638 C94.038,85.385 94.017,85.115 93.895,84.879 C93.724,84.535 93.385,84.325 93.008,84.325 C92.852,84.325 92.7,84.362 92.559,84.435 L80.318,90.591 L80.074,90.42 C75.956,87.551 72.22,84.15 68.969,80.313 L68.271,79.49 L92.17,79.49 C92.721,79.49 93.17,79.041 93.17,78.49 C93.17,77.939 92.721,77.49 92.17,77.49 L66.708,77.49 L66.558,77.288 C63.861,73.647 61.59,69.698 59.81,65.547 C56.731,58.348 55.17,50.705 55.17,42.83 L55.17,36.303 L62.741,30.096 L55.17,25.605 L55.17,13.762 L55.945,14.272 C60.548,17.299 71.814,25.713 76.983,38.422 L77.151,38.835 L76.759,39.049 C74.496,40.282 72.312,41.603 70.269,42.975 C69.807,43.282 69.681,43.905 69.986,44.363 C70.173,44.637 70.487,44.804 70.823,44.804 C71.022,44.804 71.216,44.745 71.383,44.634 C84.415,35.899 99.21,31.26 114.168,31.22 C119.766,31.24 125.378,31.897 130.853,33.173 C140.068,35.337 148.851,39.193 156.958,44.635 C157.132,44.748 157.328,44.81 157.52,44.81 C157.849,44.81 158.168,44.637 158.355,44.361 C158.659,43.905 158.533,43.282 158.073,42.976 C156.027,41.603 153.844,40.282 151.581,39.049 L151.188,38.835 L151.356,38.422 C156.526,25.713 167.792,17.299 172.395,14.272 L173.17,13.762 L173.17,25.605 L165.599,30.096 L173.17,36.303 L173.17,42.83 C173.17,50.705 171.609,58.348 168.529,65.547 C166.75,69.698 164.479,73.647 161.782,77.288 L161.632,77.49 L136.17,77.49 C135.619,77.49 135.17,77.939 135.17,78.49 C135.17,79.041 135.619,79.49 136.17,79.49 L160.069,79.49 L159.371,80.313 C156.12,84.15 152.384,87.551 148.266,90.42 L148.021,90.591 L135.785,84.437 C135.64,84.362 135.488,84.325 135.332,84.325 C134.955,84.325 134.616,84.535 134.447,84.874 C134.323,85.115 134.302,85.385 134.385,85.639 C134.469,85.893 134.647,86.101 134.889,86.225 L146.118,91.867 L145.351,92.337 C136.267,97.893 125.831,100.83 115.17,100.83 L113.17,100.83 L113.17,100.83 Z M123.085,112.46 C120.597,110.332 117.431,109.16 114.17,109.16 C110.909,109.16 107.743,110.332 105.255,112.46 L105.049,112.635 L104.79,112.56 C100.975,111.449 97.271,109.596 94.08,107.2 L93.549,106.801 L94.078,106.401 C96.586,104.505 99.322,102.985 102.212,101.883 L102.342,101.833 L102.479,101.858 C106.063,102.503 109.66,102.83 113.17,102.83 L115.17,102.83 C118.68,102.83 122.277,102.503 125.861,101.858 L125.998,101.833 L126.128,101.883 C129.018,102.985 131.754,104.505 134.262,106.401 L134.791,106.801 L134.26,107.2 C131.068,109.596 127.365,111.449 123.55,112.56 L123.291,112.635 L123.085,112.46 L123.085,112.46 Z M171.25,203.83 L171.25,187.83 L182.5,187.83 L182.5,176.91 L189.07,176.91 C189.621,176.91 190.07,176.461 190.07,175.91 C190.07,175.359 189.621,174.91 189.07,174.91 L182.5,174.91 L182.5,168.16 L189.07,168.16 C189.621,168.16 190.07,167.711 190.07,167.16 C190.07,166.609 189.621,166.16 189.07,166.16 L182.5,166.16 L182.5,159.41 L189.07,159.41 C189.621,159.41 190.07,158.961 190.07,158.41 C190.07,157.859 189.621,157.41 189.07,157.41 L182.5,157.41 L182.5,139.91 C182.5,135.499 186.089,131.91 190.5,131.91 L221.17,131.91 C225.581,131.91 229.17,135.499 229.17,139.91 L229.17,159.99 C229.17,164.401 225.581,167.99 221.17,167.99 C216.759,167.99 213.17,164.401 213.17,159.99 L213.17,147.91 L198.5,147.91 L198.5,195.83 C198.5,200.241 194.911,203.83 190.5,203.83 L171.25,203.83 L171.25,203.83 Z M79.75,192.33 C79.199,192.33 78.75,192.779 78.75,193.33 L78.75,204.74 C78.75,205.291 79.199,205.74 79.75,205.74 C80.301,205.74 80.75,205.291 80.75,204.74 L80.75,193.33 C80.75,192.779 80.301,192.33 79.75,192.33 L79.75,192.33 Z M148.59,192.33 C148.039,192.33 147.59,192.779 147.59,193.33 L147.59,204.74 C147.59,205.291 148.039,205.74 148.59,205.74 C149.141,205.74 149.59,205.291 149.59,204.74 L149.59,193.33 C149.59,192.779 149.141,192.33 148.59,192.33 L148.59,192.33 Z M152.624,229.16 L153.12,228.389 C153.741,227.424 154.07,226.307 154.07,225.16 L154.07,221.16 C154.07,217.851 151.378,215.16 148.07,215.16 L143.17,215.16 C142.619,215.16 142.17,215.609 142.17,216.16 C142.17,216.711 142.619,217.16 143.17,217.16 L148.07,217.16 C150.275,217.16 152.07,218.954 152.07,221.16 L152.07,225.16 C152.07,227.365 150.275,229.16 148.07,229.16 L126.67,229.16 C124.464,229.16 122.67,227.365 122.67,225.16 L122.67,221.16 C122.67,218.954 124.464,217.16 126.67,217.16 L131.29,217.16 C131.841,217.16 132.29,216.711 132.29,216.16 C132.29,215.609 131.841,215.16 131.29,215.16 L127.92,215.16 L127.92,147.67 C127.92,147.118 127.471,146.67 126.92,146.67 C126.369,146.67 125.92,147.118 125.92,147.67 L125.92,215.191 L125.517,215.271 C122.708,215.824 120.67,218.301 120.67,221.16 L120.67,225.16 C120.67,226.307 120.999,227.424 121.62,228.389 L122.116,229.16 L106.224,229.16 L106.72,228.389 C107.341,227.424 107.67,226.307 107.67,225.16 L107.67,221.16 C107.67,218.301 105.631,215.824 102.823,215.271 L102.42,215.191 L102.42,147.67 C102.42,147.118 101.971,146.67 101.42,146.67 C100.869,146.67 100.42,147.118 100.42,147.67 L100.42,215.16 L97.05,215.16 C96.498,215.16 96.05,215.609 96.05,216.16 C96.05,216.711 96.498,217.16 97.05,217.16 L101.67,217.16 C103.875,217.16 105.67,218.954 105.67,221.16 L105.67,225.16 C105.67,227.365 103.875,229.16 101.67,229.16 L80.27,229.16 C78.064,229.16 76.27,227.365 76.27,225.16 L76.27,221.16 C76.27,218.954 78.064,217.16 80.27,217.16 L85.17,217.16 C85.721,217.16 86.17,216.711 86.17,216.16 C86.17,215.609 85.721,215.16 85.17,215.16 L80.27,215.16 C76.961,215.16 74.27,217.851 74.27,221.16 L74.27,225.16 C74.27,226.307 74.599,227.424 75.22,228.389 L75.716,229.16 L55.81,229.16 C53.604,229.16 51.81,227.365 51.81,225.16 L51.81,221.16 C51.81,218.954 53.604,217.16 55.81,217.16 L66.42,217.16 C66.971,217.16 67.42,216.711 67.42,216.16 C67.42,215.609 66.971,215.16 66.42,215.16 L59.09,215.16 L59.09,162.7 C59.09,157.279 63.499,152.87 68.92,152.87 C71.543,152.87 74.013,153.895 75.873,155.757 C77.728,157.612 78.75,160.077 78.75,162.7 L78.75,183.83 C78.75,184.381 79.199,184.83 79.75,184.83 C80.301,184.83 80.75,184.381 80.75,183.83 L80.75,133.08 C80.75,126.647 82.61,120.374 86.13,114.938 C87.689,112.539 89.557,110.333 91.682,108.382 L91.995,108.094 L92.329,108.357 C95.483,110.839 99.02,112.753 102.84,114.046 L103.486,114.265 L103.083,114.815 C101.341,117.192 100.42,119.991 100.42,122.91 C100.42,127.643 102.792,130.486 107.671,131.603 L108.06,131.692 L108.06,138.41 C108.06,140.114 109.781,140.389 114.023,140.901 C114.082,140.909 114.115,140.91 114.142,140.91 C114.152,140.91 114.251,140.909 114.27,140.906 C118.559,140.389 120.28,140.114 120.28,138.41 L120.28,131.692 L120.668,131.603 C125.548,130.486 127.92,127.643 127.92,122.91 C127.92,119.991 126.999,117.192 125.257,114.815 L124.854,114.265 L125.5,114.046 C129.32,112.753 132.856,110.839 136.011,108.357 L136.342,108.095 L136.655,108.379 C137.083,108.766 137.5,109.174 137.898,109.581 C144.057,115.822 147.59,124.388 147.59,133.08 L147.59,183.83 C147.59,184.381 148.039,184.83 148.59,184.83 C149.141,184.83 149.59,184.381 149.59,183.83 L149.59,162.7 C149.59,157.279 154,152.87 159.42,152.87 C164.84,152.87 169.25,157.279 169.25,162.7 L169.25,215.16 L161.92,215.16 C161.369,215.16 160.92,215.609 160.92,216.16 C160.92,216.711 161.369,217.16 161.92,217.16 L172.53,217.16 C174.735,217.16 176.53,218.954 176.53,221.16 L176.53,225.16 C176.53,227.365 174.735,229.16 172.53,229.16 L152.624,229.16 L152.624,229.16 Z" id="Fill-4" fill="#47827B"></path>
        <path d="M15.42,228.66 L2.42,228.66 C1.59,228.66 0.92,229.33 0.92,230.16 C0.92,230.99 1.59,231.66 2.42,231.66 L15.42,231.66 C16.25,231.66 16.92,230.99 16.92,230.16 C16.92,229.33 16.25,228.66 15.42,228.66 L15.42,228.66 Z M65.6,45.7 C64.22,46.75 62.86,47.86 61.54,48.99 C60.91,49.53 60.84,50.48 61.38,51.1 C61.68,51.45 62.09,51.63 62.52,51.63 C62.86,51.63 63.21,51.51 63.49,51.26 C64.77,50.17 66.09,49.1 67.42,48.09 C68.07,47.58 68.2,46.64 67.7,45.98 C67.2,45.32 66.25,45.2 65.6,45.7 L65.6,45.7 Z M79.75,191.83 C78.93,191.83 78.25,192.5 78.25,193.33 L78.25,204.74 C78.25,205.57 78.93,206.24 79.75,206.24 C80.58,206.24 81.25,205.57 81.25,204.74 L81.25,193.33 C81.25,192.5 80.58,191.83 79.75,191.83 L79.75,191.83 Z M101.92,57.08 L96.22,57.08 C96.65,57.81 96.92,58.66 96.92,59.58 C96.92,62.29 94.72,64.49 92,64.49 C89.29,64.49 87.09,62.29 87.09,59.58 C87.09,58.66 87.35,57.81 87.79,57.08 L75.59,57.08 C76.33,63.68 81.95,68.83 88.75,68.83 C95.55,68.83 101.17,63.68 101.92,57.08 L101.92,57.08 Z M104.93,57.08 C104.17,65.34 97.21,71.83 88.75,71.83 C79.79,71.83 72.5,64.54 72.5,55.58 C72.5,54.75 73.17,54.08 74,54.08 L105,54.08 L93.41,44.99 C92.76,44.47 92.65,43.53 93.16,42.88 C93.67,42.23 94.61,42.11 95.26,42.63 L110.26,54.4 C110.77,54.79 110.96,55.46 110.75,56.07 C110.55,56.67 109.98,57.08 109.34,57.08 L104.93,57.08 L104.93,57.08 Z M109.73,118.04 C108.59,118.04 107.67,118.96 107.67,120.1 L107.67,123.72 C107.67,124.86 108.59,125.78 109.73,125.78 C110.87,125.78 111.79,124.86 111.79,123.72 L111.79,120.1 C111.79,118.96 110.87,118.04 109.73,118.04 L109.73,118.04 Z M112.34,127.58 L116,127.58 L114.17,124.49 L112.34,127.58 L112.34,127.58 Z M118.61,118.04 C117.47,118.04 116.55,118.96 116.55,120.1 L116.55,123.72 C116.55,124.86 117.47,125.78 118.61,125.78 C119.75,125.78 120.67,124.86 120.67,123.72 L120.67,120.1 C120.67,118.96 119.75,118.04 118.61,118.04 L118.61,118.04 Z M108.82,71.83 C109.66,73.81 111.34,76.91 114.17,79.03 C117.01,76.9 118.69,73.8 119.53,71.83 L108.82,71.83 L108.82,71.83 Z M106.67,68.83 L121.67,68.83 C122.14,68.83 122.58,69.05 122.86,69.42 C123.15,69.79 123.24,70.27 123.12,70.72 C123.03,71.03 121,78.31 114.97,82.11 C114.73,82.27 114.45,82.35 114.17,82.35 C113.89,82.35 113.61,82.27 113.37,82.11 C107.34,78.31 105.31,71.03 105.22,70.72 C105.1,70.27 105.19,69.79 105.48,69.42 C105.76,69.05 106.2,68.83 106.67,68.83 L106.67,68.83 Z M126.42,57.08 C127.17,63.68 132.79,68.83 139.59,68.83 C146.39,68.83 152.01,63.68 152.75,57.08 L140.55,57.08 C140.99,57.81 141.25,58.66 141.25,59.58 C141.25,62.29 139.05,64.49 136.34,64.49 C133.62,64.49 131.42,62.29 131.42,59.58 C131.42,58.66 131.69,57.81 132.12,57.08 L126.42,57.08 L126.42,57.08 Z M117.59,56.07 C117.38,55.46 117.57,54.79 118.08,54.4 L133.08,42.63 C133.73,42.11 134.67,42.23 135.18,42.88 C135.69,43.53 135.58,44.47 134.93,44.99 L123.34,54.08 L154.34,54.08 C155.17,54.08 155.84,54.75 155.84,55.58 C155.84,64.54 148.55,71.83 139.59,71.83 C131.13,71.83 124.17,65.34 123.41,57.08 L119,57.08 C118.36,57.08 117.79,56.67 117.59,56.07 L117.59,56.07 Z M125.17,89.28 C125.17,88.46 124.5,87.78 123.67,87.78 L104.67,87.78 C103.84,87.78 103.17,88.46 103.17,89.28 C103.17,90.11 103.84,90.78 104.67,90.78 L123.67,90.78 C124.5,90.78 125.17,90.11 125.17,89.28 L125.17,89.28 Z M228.67,139.91 C228.67,135.77 225.31,132.41 221.17,132.41 L190.5,132.41 C186.37,132.41 183,135.77 183,139.91 L183,156.91 L189.07,156.91 C189.9,156.91 190.57,157.58 190.57,158.41 C190.57,159.24 189.9,159.91 189.07,159.91 L183,159.91 L183,165.66 L189.07,165.66 C189.9,165.66 190.57,166.33 190.57,167.16 C190.57,167.99 189.9,168.66 189.07,168.66 L183,168.66 L183,174.41 L189.07,174.41 C189.9,174.41 190.57,175.08 190.57,175.91 C190.57,176.74 189.9,177.41 189.07,177.41 L183,177.41 L183,188.33 L171.75,188.33 L171.75,203.33 L190.5,203.33 C194.64,203.33 198,199.96 198,195.83 L198,147.41 L213.67,147.41 L213.67,159.99 C213.67,164.13 217.03,167.49 221.17,167.49 C225.31,167.49 228.67,164.13 228.67,159.99 L228.67,139.91 L228.67,139.91 Z M161.92,217.66 C161.09,217.66 160.42,216.99 160.42,216.16 C160.42,215.33 161.09,214.66 161.92,214.66 L168.75,214.66 L168.75,162.7 C168.75,157.56 164.56,153.37 159.42,153.37 C154.27,153.37 150.09,157.56 150.09,162.7 L150.09,183.83 C150.09,184.66 149.41,185.33 148.59,185.33 C147.76,185.33 147.09,184.66 147.09,183.83 L147.09,133.08 C147.09,124.26 143.51,115.98 137.54,109.93 C137.15,109.53 136.74,109.13 136.32,108.75 C133.13,111.26 129.5,113.22 125.66,114.52 C127.39,116.88 128.42,119.77 128.42,122.91 C128.42,128.89 124.67,131.2 120.78,132.09 L120.78,138.41 C120.78,140.63 118.5,140.9 114.35,141.4 C114.29,141.41 114.23,141.41 114.17,141.41 C114.11,141.41 114.05,141.41 113.99,141.4 C109.84,140.9 107.56,140.63 107.56,138.41 L107.56,132.09 C103.67,131.2 99.92,128.89 99.92,122.91 C99.92,119.77 100.95,116.88 102.68,114.52 C98.84,113.22 95.21,111.26 92.02,108.75 C89.93,110.67 88.09,112.84 86.55,115.21 C83.17,120.43 81.25,126.61 81.25,133.08 L81.25,183.83 C81.25,184.66 80.58,185.33 79.75,185.33 C78.93,185.33 78.25,184.66 78.25,183.83 L78.25,162.7 C78.25,160.13 77.21,157.8 75.52,156.11 C73.83,154.42 71.49,153.37 68.92,153.37 C63.78,153.37 59.59,157.56 59.59,162.7 L59.59,214.66 L66.42,214.66 C67.25,214.66 67.92,215.33 67.92,216.16 C67.92,216.99 67.25,217.66 66.42,217.66 L55.81,217.66 C53.88,217.66 52.31,219.23 52.31,221.16 L52.31,225.16 C52.31,227.09 53.88,228.66 55.81,228.66 L74.8,228.66 C74.15,227.65 73.77,226.45 73.77,225.16 L73.77,221.16 C73.77,217.58 76.69,214.66 80.27,214.66 L85.17,214.66 C86,214.66 86.67,215.33 86.67,216.16 C86.67,216.99 86,217.66 85.17,217.66 L80.27,217.66 C78.34,217.66 76.77,219.23 76.77,221.16 L76.77,225.16 C76.77,227.09 78.34,228.66 80.27,228.66 L101.67,228.66 C103.6,228.66 105.17,227.09 105.17,225.16 L105.17,221.16 C105.17,219.23 103.6,217.66 101.67,217.66 L97.05,217.66 C96.22,217.66 95.55,216.99 95.55,216.16 C95.55,215.33 96.22,214.66 97.05,214.66 L99.92,214.66 L99.92,147.67 C99.92,146.84 100.59,146.17 101.42,146.17 C102.25,146.17 102.92,146.84 102.92,147.67 L102.92,214.78 C105.91,215.37 108.17,218 108.17,221.16 L108.17,225.16 C108.17,226.45 107.79,227.65 107.14,228.66 L121.2,228.66 C120.55,227.65 120.17,226.45 120.17,225.16 L120.17,221.16 C120.17,218 122.43,215.37 125.42,214.78 L125.42,147.67 C125.42,146.84 126.09,146.17 126.92,146.17 C127.75,146.17 128.42,146.84 128.42,147.67 L128.42,214.66 L131.29,214.66 C132.12,214.66 132.79,215.33 132.79,216.16 C132.79,216.99 132.12,217.66 131.29,217.66 L126.67,217.66 C124.74,217.66 123.17,219.23 123.17,221.16 L123.17,225.16 C123.17,227.09 124.74,228.66 126.67,228.66 L148.07,228.66 C150,228.66 151.57,227.09 151.57,225.16 L151.57,221.16 C151.57,219.23 150,217.66 148.07,217.66 L143.17,217.66 C142.34,217.66 141.67,216.99 141.67,216.16 C141.67,215.33 142.34,214.66 143.17,214.66 L148.07,214.66 C151.65,214.66 154.57,217.58 154.57,221.16 L154.57,225.16 C154.57,226.45 154.19,227.65 153.54,228.66 L172.53,228.66 C174.46,228.66 176.03,227.09 176.03,225.16 L176.03,221.16 C176.03,219.23 174.46,217.66 172.53,217.66 L161.92,217.66 L161.92,217.66 Z M110.56,132.54 L110.56,137.84 C111.06,137.97 111.89,138.1 112.67,138.21 L112.67,132.65 C112.02,132.64 111.3,132.61 110.56,132.54 L110.56,132.54 Z M115.67,132.65 L115.67,138.21 C116.45,138.1 117.28,137.97 117.78,137.84 L117.78,132.54 C117.04,132.61 116.32,132.64 115.67,132.65 L115.67,132.65 Z M125.42,122.91 C125.42,116.71 120.37,111.66 114.17,111.66 C107.97,111.66 102.92,116.71 102.92,122.91 C102.92,127.83 105.97,129.66 114.17,129.66 C122.37,129.66 125.42,127.83 125.42,122.91 L125.42,122.91 Z M94.38,106.8 C97.55,109.18 101.15,110.98 104.93,112.08 C107.42,109.95 110.65,108.66 114.17,108.66 C117.69,108.66 120.92,109.95 123.41,112.08 C127.19,110.98 130.79,109.18 133.96,106.8 C131.54,104.97 128.86,103.46 125.95,102.35 C122.45,102.98 118.85,103.33 115.17,103.33 L113.17,103.33 C109.49,103.33 105.89,102.98 102.39,102.35 C99.48,103.46 96.8,104.97 94.38,106.8 L94.38,106.8 Z M113.17,100.33 L115.17,100.33 C126.12,100.33 136.36,97.25 145.09,91.91 L134.66,86.67 C133.92,86.29 133.62,85.39 134,84.65 C134.37,83.91 135.27,83.61 136.01,83.99 L147.98,90.01 C152.07,87.16 155.77,83.79 158.99,79.99 L136.17,79.99 C135.34,79.99 134.67,79.32 134.67,78.49 C134.67,77.66 135.34,76.99 136.17,76.99 L161.38,76.99 C164.04,73.4 166.29,69.5 168.07,65.35 C171.03,58.43 172.67,50.82 172.67,42.83 L172.67,36.54 L164.73,30.03 L172.67,25.32 L172.67,14.69 C167.94,17.8 156.9,26.12 151.82,38.61 C154.04,39.82 156.22,41.13 158.35,42.56 C159.04,43.02 159.23,43.95 158.77,44.64 C158.48,45.07 158,45.31 157.52,45.31 C157.23,45.31 156.94,45.22 156.68,45.05 C148.59,39.62 139.81,35.79 130.74,33.66 C125.29,32.39 119.74,31.74 114.17,31.72 C99.31,31.76 84.61,36.37 71.66,45.05 C70.97,45.51 70.04,45.33 69.57,44.64 C69.11,43.95 69.3,43.02 69.99,42.56 C72.12,41.13 74.3,39.82 76.52,38.61 C71.44,26.12 60.4,17.8 55.67,14.69 L55.67,25.32 L63.61,30.03 L55.67,36.54 L55.67,42.83 C55.67,50.82 57.31,58.43 60.27,65.35 C62.05,69.5 64.3,73.4 66.96,76.99 L92.17,76.99 C93,76.99 93.67,77.66 93.67,78.49 C93.67,79.32 93,79.99 92.17,79.99 L69.35,79.99 C72.57,83.79 76.27,87.16 80.36,90.01 L92.33,83.99 C93.07,83.61 93.97,83.91 94.34,84.65 C94.72,85.39 94.42,86.29 93.68,86.67 L83.25,91.91 C91.98,97.25 102.22,100.33 113.17,100.33 L113.17,100.33 Z M55.67,11.13 C59.13,13.19 72.97,22.17 79.19,37.2 C80.74,36.43 82.3,35.7 83.88,35.03 C76.34,18.46 61.25,8.78 55.67,5.65 L55.67,11.13 L55.67,11.13 Z M144.46,35.03 C146.04,35.7 147.6,36.43 149.15,37.2 C155.37,22.17 169.21,13.19 172.67,11.13 L172.67,5.65 C167.09,8.79 151.99,18.48 144.46,35.03 L144.46,35.03 Z M231.67,139.91 L231.67,159.99 C231.67,165.78 226.96,170.49 221.17,170.49 C215.38,170.49 210.67,165.78 210.67,159.99 L210.67,150.41 L201,150.41 L201,195.83 C201,201.62 196.29,206.33 190.5,206.33 L171.75,206.33 L171.75,214.66 L172.53,214.66 C172.57,214.66 172.62,214.66 172.66,214.67 C176.19,214.73 179.03,217.62 179.03,221.16 L179.03,225.16 C179.03,226.45 178.65,227.65 178,228.66 L186.64,228.66 L191.18,224.99 C191.75,224.54 192.56,224.55 193.11,225.03 L197.24,228.66 L205.67,228.66 C206.5,228.66 207.17,229.33 207.17,230.16 C207.17,230.99 206.5,231.66 205.67,231.66 L196.67,231.66 C196.31,231.66 195.95,231.53 195.68,231.29 L192.08,228.12 L188.11,231.33 C187.85,231.54 187.51,231.66 187.17,231.66 L41.17,231.66 C40.83,231.66 40.49,231.54 40.23,231.33 L36.26,228.12 L32.66,231.29 C32.39,231.53 32.03,231.66 31.67,231.66 L22.67,231.66 C21.84,231.66 21.17,230.99 21.17,230.16 C21.17,229.33 21.84,228.66 22.67,228.66 L31.1,228.66 L35.23,225.03 C35.78,224.55 36.59,224.54 37.16,224.99 L41.7,228.66 L50.34,228.66 C49.69,227.65 49.31,226.45 49.31,225.16 L49.31,221.16 C49.31,217.58 52.22,214.66 55.81,214.66 L56.59,214.66 L56.59,162.7 C56.59,155.9 62.12,150.37 68.92,150.37 C72.65,150.37 75.99,152.04 78.25,154.66 L78.25,133.08 C78.25,125.95 80.39,119.15 84.16,113.42 C87.48,108.36 92.05,104.15 97.53,101.27 C91.28,99.59 85.43,96.94 80.14,93.48 L67.18,100 C66.96,100.11 66.73,100.16 66.51,100.16 C65.96,100.16 65.43,99.86 65.17,99.33 C64.79,98.59 65.09,97.69 65.83,97.32 L77.33,91.53 C72.88,88.24 68.89,84.36 65.48,79.99 L52.84,79.99 C52.01,79.99 51.34,79.32 51.34,78.49 C51.34,77.66 52.01,76.99 52.84,76.99 L63.28,76.99 C61.02,73.71 59.09,70.2 57.52,66.51 C54.39,59.24 52.67,51.23 52.67,42.83 L52.67,35.12 L58.4,30.42 L52.67,27.03 L52.67,0.8 L54.81,1.8 C55.72,2.23 76.94,12.38 86.66,33.91 C95.52,30.52 104.81,28.75 114.17,28.72 C119.97,28.74 125.74,29.43 131.4,30.76 C134.88,31.57 138.31,32.62 141.68,33.91 C151.4,12.38 172.62,2.23 173.53,1.8 L175.67,0.8 L175.67,27.03 L169.94,30.42 L175.67,35.12 L175.67,42.83 C175.67,51.23 173.95,59.24 170.82,66.51 C169.25,70.2 167.32,73.71 165.06,76.99 L175.5,76.99 C176.33,76.99 177,77.66 177,78.49 C177,79.32 176.33,79.99 175.5,79.99 L162.86,79.99 C159.45,84.36 155.46,88.24 151.01,91.53 L162.51,97.32 C163.25,97.69 163.55,98.59 163.17,99.33 C162.91,99.86 162.38,100.16 161.83,100.16 C161.61,100.16 161.38,100.11 161.16,100 L148.2,93.48 C142.91,96.94 137.06,99.59 130.81,101.27 C134.09,103 137.06,105.2 139.62,107.79 C146.16,114.39 150.09,123.43 150.09,133.08 L150.09,154.66 C152.35,152.04 155.69,150.37 159.42,150.37 C166.22,150.37 171.75,155.9 171.75,162.7 L171.75,185.33 L180,185.33 L180,139.91 C180,134.12 184.71,129.41 190.5,129.41 L221.17,129.41 C226.96,129.41 231.67,134.12 231.67,139.91 L231.67,139.91 Z M148.59,191.83 C147.76,191.83 147.09,192.5 147.09,193.33 L147.09,204.74 C147.09,205.57 147.76,206.24 148.59,206.24 C149.41,206.24 150.09,205.57 150.09,204.74 L150.09,193.33 C150.09,192.5 149.41,191.83 148.59,191.83 L148.59,191.83 Z M160.92,48.09 C162.25,49.1 163.57,50.17 164.85,51.26 C165.13,51.51 165.48,51.63 165.82,51.63 C166.25,51.63 166.67,51.45 166.96,51.1 C167.5,50.48 167.43,49.53 166.8,48.99 C165.48,47.86 164.12,46.75 162.74,45.7 C162.08,45.2 161.15,45.33 160.64,45.98 C160.14,46.64 160.27,47.58 160.92,48.09 L160.92,48.09 Z M227.42,230.16 C227.42,230.99 226.75,231.66 225.92,231.66 L212.92,231.66 C212.09,231.66 211.42,230.99 211.42,230.16 C211.42,229.33 212.09,228.66 212.92,228.66 L225.92,228.66 C226.75,228.66 227.42,229.33 227.42,230.16 L227.42,230.16 Z" id="Fill-5" fill="#2B2F35"></path>
    </g>
</svg>