<?xml version="1.0" encoding="UTF-8" standalone="no"?>
<svg width="250px" height="200px" viewBox="0 0 250 200" version="1.1" xmlns="http://www.w3.org/2000/svg" xmlns:xlink="http://www.w3.org/1999/xlink">
    <!-- Generator: Sketch 39.1 (31720) - http://www.bohemiancoding.com/sketch -->
    <title>Slice 1</title>
    <desc>Created with Sketch.</desc>
    <defs></defs>
    <g id="Page-1" stroke="none" stroke-width="1" fill="none" fill-rule="evenodd">
        <path d="M112.577,125.634 C110.945,123.688 110.386,121.742 110.205,120.452 L110.127,119.896 L110.688,119.882 C111.917,119.853 113.191,119.792 114.475,119.704 L115.305,119.646 L114.966,120.406 C114.111,122.326 113.671,124.182 113.452,125.401 L113.263,126.452 L112.577,125.634 L112.577,125.634 Z M136.218,125.401 C136,124.183 135.56,122.328 134.704,120.406 L134.365,119.646 L135.195,119.704 C136.479,119.792 137.753,119.853 138.982,119.882 L139.549,119.896 L139.465,120.457 C139.269,121.762 138.698,123.72 137.093,125.634 L136.406,126.453 L136.218,125.401 L136.218,125.401 Z" id="Fill-32" fill="#FFFFFF"></path>
        <path d="M84.88,96.583 C82.95,96.583 81.38,98.153 81.38,100.083 C81.38,102.012 82.95,103.583 84.88,103.583 C86.81,103.583 88.38,102.012 88.38,100.083 C88.38,98.153 86.81,96.583 84.88,96.583 L84.88,96.583 Z M82.5,120.123 C76.804,120.123 72.17,115.488 72.17,109.792 L72.17,87.453 L92.83,87.453 L92.83,109.792 C92.83,115.488 88.196,120.123 82.5,120.123 L82.5,120.123 Z M164.79,96.583 C162.86,96.583 161.29,98.153 161.29,100.083 C161.29,102.012 162.86,103.583 164.79,103.583 C166.72,103.583 168.29,102.012 168.29,100.083 C168.29,98.153 166.72,96.583 164.79,96.583 L164.79,96.583 Z M167.17,120.123 C161.469,120.123 156.83,115.488 156.83,109.792 L156.83,87.453 L177.5,87.453 L177.5,109.792 C177.5,115.488 172.866,120.123 167.17,120.123 L167.17,120.123 Z" id="Fill-33" fill="#48A4A3"></path>
        <path d="M124.83,170.123 C113.659,170.123 101.989,170.051 92.333,169.532 L91.479,169.486 L91.938,168.765 C98.874,157.849 110.736,151.333 123.67,151.333 C123.998,151.333 124.334,151.34 124.726,151.349 L124.891,151.353 C125.241,151.342 125.615,151.333 126,151.333 C138.924,151.333 150.786,157.849 157.732,168.764 L158.191,169.486 L157.337,169.532 C147.67,170.051 136,170.123 124.83,170.123" id="Fill-34" fill="#FFF4D6"></path>
        <path d="M176.719,28.64 C175.412,28.342 174.161,28.092 172.896,27.875 L172.086,27.736 L172.581,27.081 C181.594,15.158 194.534,6.739 209.017,3.375 L209.506,3.262 L209.617,3.751 C209.876,4.884 210.11,6.051 210.313,7.217 L210.393,7.682 L209.934,7.79 C197.115,10.804 185.497,18.146 177.22,28.465 L177.024,28.709 L176.719,28.64 L176.719,28.64 Z M72.45,28.465 C64.174,18.147 52.556,10.804 39.736,7.79 L39.277,7.682 L39.357,7.217 C39.593,5.86 39.815,4.757 40.054,3.747 L40.168,3.263 L40.653,3.375 C55.136,6.739 68.076,15.158 77.089,27.081 L77.584,27.736 L76.774,27.875 C75.509,28.092 74.258,28.342 72.951,28.64 L72.646,28.709 L72.45,28.465 L72.45,28.465 Z M72.206,85.453 L72.296,84.876 C73.069,79.886 77.456,76.123 82.5,76.123 C87.544,76.123 91.931,79.886 92.704,84.876 L92.794,85.453 L72.206,85.453 L72.206,85.453 Z M156.876,85.453 L156.966,84.876 C157.739,79.886 162.126,76.123 167.17,76.123 C172.219,76.123 176.601,79.886 177.364,84.877 L177.453,85.453 L156.876,85.453 L156.876,85.453 Z M244.783,108.938 C242.755,105.867 239.348,104.033 235.67,104.033 C234.283,104.033 232.939,104.29 231.676,104.796 L231.178,104.997 L231.014,104.485 C229.877,100.931 226.617,98.542 222.9,98.542 C220.459,98.542 218.135,99.582 216.523,101.395 L216.101,101.87 L215.739,101.347 C214.329,99.309 212.022,98.092 209.57,98.092 C208.756,98.092 207.946,98.228 207.162,98.496 L206.5,98.721 L206.5,98.022 C206.5,97.185 206.5,96.336 206.49,95.508 L206.486,95.134 L206.844,95.024 C219.151,91.253 227.42,80.073 227.42,67.203 C227.42,63.095 226.58,59.126 224.923,55.406 L224.176,53.729 L225.67,54.796 C239.133,64.41 247.17,80.016 247.17,96.542 C247.17,100.643 246.67,104.76 245.686,108.782 L245.414,109.893 L244.783,108.938 L244.783,108.938 Z M3.985,108.783 C3,104.801 2.5,100.683 2.5,96.542 C2.5,80.019 10.533,64.413 23.989,54.796 L25.477,53.732 L24.737,55.405 C23.087,59.134 22.25,63.103 22.25,67.203 C22.25,80.075 30.515,91.255 42.816,95.024 L43.17,95.133 L43.17,98.719 L42.51,98.496 C41.715,98.228 40.904,98.092 40.1,98.092 C37.651,98.092 35.341,99.31 33.92,101.348 L33.556,101.87 L33.135,101.394 C31.534,99.582 29.214,98.542 26.77,98.542 C23.102,98.542 19.765,100.985 18.657,104.483 L18.495,104.996 L17.995,104.797 C16.722,104.29 15.378,104.033 14,104.033 C10.312,104.033 6.906,105.866 4.888,108.937 L4.26,109.894 L3.985,108.783 L3.985,108.783 Z M26.454,161.385 C25.852,161.385 25.352,161.285 24.97,161.086 C23.843,160.498 24.245,158.606 24.78,157.123 C28.428,146.954 39.018,136.498 43.402,132.474 L44.14,131.797 L44.238,132.793 C44.907,139.582 45.968,144.984 47.482,149.308 L47.575,149.573 L47.395,149.791 C43.284,154.775 31.346,161.385 26.454,161.385 C26.453,161.385 26.454,161.385 26.454,161.385 L26.454,161.385 Z M223.215,161.385 C218.308,161.385 206.37,154.775 202.274,149.79 L202.096,149.573 L202.188,149.309 C203.71,144.933 204.768,139.531 205.422,132.794 L205.519,131.796 L206.258,132.474 C210.646,136.501 221.247,146.966 224.891,157.124 C225.425,158.606 225.827,160.498 224.702,161.085 C224.318,161.285 223.818,161.385 223.215,161.385 L223.215,161.385 Z M82.5,74.123 C75.701,74.123 70.17,79.654 70.17,86.453 L70.17,109.792 C70.17,116.591 75.701,122.123 82.5,122.123 C89.299,122.123 94.83,116.591 94.83,109.792 L94.83,86.453 C94.83,79.654 89.299,74.123 82.5,74.123 L82.5,74.123 Z M167.17,74.123 C160.366,74.123 154.83,79.654 154.83,86.453 L154.83,109.792 C154.83,116.591 160.366,122.123 167.17,122.123 C173.969,122.123 179.5,116.591 179.5,109.792 L179.5,86.453 C179.5,79.654 173.969,74.123 167.17,74.123 L167.17,74.123 Z M101.528,119.043 C104.175,131.023 113.321,138.763 124.83,138.763 C136.349,138.763 145.496,131.023 148.142,119.044 L148.428,117.765 L147.115,117.832 C146.424,117.863 144.659,117.933 142.31,117.933 C138.057,117.933 130.17,117.692 125.137,116.079 L124.832,115.985 L124.528,116.08 C119.5,117.692 111.613,117.933 107.36,117.933 C105.011,117.933 103.246,117.863 102.596,117.833 L101.242,117.765 L101.528,119.043 L101.528,119.043 Z M160.237,169.083 C153.165,156.901 140.045,149.333 126,149.333 C125.606,149.333 125.202,149.342 124.896,149.352 C124.462,149.342 124.066,149.333 123.67,149.333 C109.618,149.333 96.496,156.901 89.423,169.083 L89.267,169.353 L88.957,169.332 C83.323,168.949 78.617,168.397 74.569,167.644 C66.467,166.133 60.779,163.729 56.668,160.077 C55.105,158.691 53.785,157.156 52.631,155.385 C51.466,153.608 50.492,151.632 49.651,149.345 C45.884,139.104 45.17,123.677 45.17,98.792 C45.17,80.604 45.687,69.747 46.956,61.318 C48.649,50.079 51.873,42.887 57.409,37.998 C67.647,28.975 86.482,27.453 124.83,27.453 C163.186,27.453 182.023,28.975 192.25,37.998 C198.067,43.114 201.26,50.53 202.926,62.795 C204.029,71.023 204.5,81.788 204.5,98.792 C204.5,123.073 203.767,139.129 200.019,149.345 L199.899,149.672 L199.887,149.672 C198.244,154.022 195.989,157.428 193.001,160.077 C188.89,163.729 183.199,166.134 175.092,167.644 C171.059,168.396 166.353,168.948 160.704,169.332 L160.394,169.353 L160.237,169.083 L160.237,169.083 Z M89.5,196.292 C84.671,196.292 79.5,186.179 79.5,171.123 L79.5,170.417 L80.062,170.486 C85.213,171.128 91.41,171.562 99.007,171.813 L99.499,171.829 L99.49,172.322 C99.211,186.661 94.1,196.292 89.5,196.292 L89.5,196.292 Z M160.17,196.292 C155.562,196.292 150.448,186.661 150.18,172.322 L150.171,171.829 L150.664,171.813 C158.264,171.562 164.457,171.128 169.598,170.486 L170.16,170.416 L170.16,170.982 C170.167,171.039 170.17,171.079 170.17,171.123 C170.17,186.179 164.999,196.292 160.17,196.292 L160.17,196.292 Z" id="Fill-35" fill="#515163"></path>
        <path d="M201.998,49.597 C200.055,44.007 197.38,39.845 193.58,36.498 C189.984,33.328 185.635,31.09 179.893,29.454 L179.149,29.242 L179.647,28.65 C187.508,19.317 198.334,12.621 210.134,9.796 L210.678,9.666 L210.746,10.222 C211.085,12.977 211.25,15.561 211.25,18.123 C211.25,29.188 208.364,40.1 202.905,49.68 L202.359,50.637 L201.998,49.597 L201.998,49.597 Z M46.766,49.68 C41.306,40.101 38.42,29.188 38.42,18.123 C38.42,15.561 38.585,12.977 38.924,10.222 L38.992,9.666 L39.536,9.796 C51.335,12.621 62.162,19.316 70.022,28.65 L70.521,29.242 L69.777,29.454 C64.02,31.094 59.671,33.332 56.091,36.497 C52.29,39.845 49.615,44.008 47.672,49.597 L47.311,50.637 L46.766,49.68 L46.766,49.68 Z M124.82,136.763 C117.396,136.763 107.482,132.515 103.97,120.543 L103.777,119.885 L104.463,119.902 C105.25,119.922 106.235,119.933 107.36,119.933 L108.125,119.933 L108.177,120.375 C108.408,122.368 109.41,126.172 113.53,129.263 L115.107,130.44 L115.12,128.469 C115.173,127.248 115.5,123.208 117.609,119.638 L117.736,119.424 L117.983,119.396 C120.623,119.091 122.879,118.663 124.687,118.124 L124.83,118.081 L124.973,118.123 C126.791,118.664 129.05,119.092 131.687,119.396 L131.934,119.424 L132.061,119.638 C134.473,123.72 134.54,128.416 134.54,128.462 L134.553,130.449 L136.141,129.262 C140.275,126.161 141.262,122.365 141.483,120.377 L141.532,119.933 L142.31,119.933 C143.435,119.933 144.421,119.922 145.208,119.902 L145.893,119.885 L145.7,120.543 C142.188,132.515 132.268,136.763 124.84,136.763 L124.82,136.763 L124.82,136.763 Z" id="Fill-36" fill="#DB807E"></path>
        <path d="M26,197.792 C26,198.612 25.33,199.292 24.5,199.292 L9.83,199.292 C9,199.292 8.33,198.612 8.33,197.792 C8.33,196.962 9,196.292 9.83,196.292 L24.5,196.292 C25.33,196.292 26,196.962 26,197.792 L26,197.792 Z M80.88,100.083 C80.88,97.873 82.67,96.083 84.88,96.083 C87.08,96.083 88.88,97.873 88.88,100.083 C88.88,102.292 87.08,104.083 84.88,104.083 C82.67,104.083 80.88,102.292 80.88,100.083 L80.88,100.083 Z M72.79,84.953 C73.52,80.243 77.59,76.623 82.5,76.623 C87.41,76.623 91.48,80.243 92.21,84.953 L72.79,84.953 L72.79,84.953 Z M92.33,109.792 C92.33,115.212 87.92,119.623 82.5,119.623 C77.08,119.623 72.67,115.212 72.67,109.792 L72.67,87.953 L92.33,87.953 L92.33,109.792 L92.33,109.792 Z M82.5,73.623 C75.42,73.623 69.67,79.382 69.67,86.453 L69.67,109.792 C69.67,116.862 75.42,122.623 82.5,122.623 C89.58,122.623 95.33,116.862 95.33,109.792 L95.33,86.453 C95.33,79.382 89.58,73.623 82.5,73.623 L82.5,73.623 Z M124.84,136.263 L124.82,136.263 C117.4,136.263 107.87,132.063 104.45,120.402 C105.24,120.422 106.23,120.433 107.36,120.433 L107.68,120.433 C107.93,122.592 108.99,126.482 113.23,129.663 L115.6,131.433 L115.62,128.473 C115.63,128.422 115.7,123.853 118.04,119.893 C120.47,119.612 122.82,119.203 124.83,118.603 C126.85,119.203 129.2,119.612 131.63,119.893 C133.97,123.853 134.04,128.422 134.04,128.462 L134.06,131.442 L136.44,129.663 C140.68,126.482 141.74,122.592 141.98,120.433 L142.31,120.433 C143.44,120.433 144.43,120.422 145.22,120.402 C141.8,132.063 132.27,136.263 124.84,136.263 L124.84,136.263 Z M114.51,120.203 C113.69,122.042 113.22,123.862 112.96,125.313 C111.4,123.453 110.87,121.592 110.7,120.382 C111.93,120.353 113.21,120.292 114.51,120.203 L114.51,120.203 Z M138.97,120.382 C138.79,121.583 138.27,123.453 136.71,125.313 C136.45,123.862 135.98,122.042 135.16,120.203 C136.46,120.292 137.74,120.353 138.97,120.382 L138.97,120.382 Z M142.31,117.433 C138.08,117.433 130.25,117.192 125.29,115.603 L124.83,115.462 L124.38,115.603 C119.42,117.192 111.58,117.433 107.36,117.433 C104.55,117.433 102.6,117.333 102.58,117.333 L100.61,117.232 L101.04,119.152 C103.74,131.373 113.07,139.263 124.83,139.263 L124.84,139.263 C136.59,139.263 145.93,131.373 148.63,119.152 L149.06,117.232 L147.09,117.333 C147.07,117.333 145.12,117.433 142.31,117.433 L142.31,117.433 Z M160.79,100.083 C160.79,97.873 162.58,96.083 164.79,96.083 C167,96.083 168.79,97.873 168.79,100.083 C168.79,102.292 167,104.083 164.79,104.083 C162.58,104.083 160.79,102.292 160.79,100.083 L160.79,100.083 Z M157.46,84.953 C158.19,80.243 162.26,76.623 167.17,76.623 C172.08,76.623 176.15,80.243 176.87,84.953 L157.46,84.953 L157.46,84.953 Z M177,109.792 C177,115.212 172.59,119.623 167.17,119.623 C161.74,119.623 157.33,115.212 157.33,109.792 L157.33,87.953 L177,87.953 L177,109.792 L177,109.792 Z M167.17,73.623 C160.09,73.623 154.33,79.382 154.33,86.453 L154.33,109.792 C154.33,116.862 160.09,122.623 167.17,122.623 C174.24,122.623 180,116.862 180,109.792 L180,86.453 C180,79.382 174.24,73.623 167.17,73.623 L167.17,73.623 Z M245.2,108.663 C243.14,105.542 239.62,103.533 235.67,103.533 C234.23,103.533 232.81,103.803 231.49,104.333 C230.32,100.672 226.89,98.042 222.9,98.042 C220.26,98.042 217.83,99.172 216.15,101.063 C214.69,98.953 212.25,97.592 209.57,97.592 C208.69,97.592 207.82,97.743 207,98.022 C207,97.183 207,96.333 206.99,95.502 C219.36,91.712 227.92,80.252 227.92,67.203 C227.92,63.022 227.05,58.953 225.38,55.203 C238.64,64.672 246.67,80.033 246.67,96.542 C246.67,100.643 246.17,104.703 245.2,108.663 L245.2,108.663 Z M224.42,157.292 C224.73,158.152 225.35,160.183 224.47,160.643 C221.25,162.313 207.22,155.022 202.66,149.473 C204.25,144.902 205.28,139.433 205.92,132.842 C209.81,136.413 220.75,147.063 224.42,157.292 L224.42,157.292 Z M199.55,149.172 L199.54,149.172 C197.9,153.643 195.67,157.042 192.67,159.703 C188.55,163.362 182.89,165.683 175,167.152 C170.87,167.922 166.12,168.462 160.67,168.833 C153.5,156.482 140.32,148.833 126,148.833 C125.6,148.833 125.19,148.842 124.88,148.853 C124.47,148.842 124.07,148.833 123.67,148.833 C109.35,148.833 96.16,156.482 88.99,168.833 C83.54,168.462 78.8,167.922 74.66,167.152 C66.78,165.683 61.12,163.362 57,159.703 C55.5,158.373 54.19,156.862 53.05,155.112 C51.91,153.373 50.94,151.402 50.12,149.172 C46.42,139.112 45.67,123.623 45.67,98.792 C45.67,82.913 46.04,70.763 47.45,61.393 C49.1,50.442 52.18,43.283 57.74,38.373 C67.85,29.462 86.61,27.953 124.83,27.953 C163.06,27.953 181.82,29.462 191.92,38.373 C197.74,43.493 200.83,51.083 202.43,62.862 C203.66,72.033 204,83.732 204,98.792 C204,123.623 203.24,139.112 199.55,149.172 L199.55,149.172 Z M160.17,195.792 C155.8,195.792 150.94,186.203 150.68,172.313 C157.94,172.073 164.21,171.663 169.66,170.982 C169.66,171.033 169.67,171.073 169.67,171.123 C169.67,185.663 164.66,195.792 160.17,195.792 L160.17,195.792 Z M94.77,196.292 C98.91,192.123 101.78,183.152 101.99,172.393 C108.76,172.573 116.34,172.623 124.83,172.623 C133.33,172.623 140.91,172.573 147.68,172.393 C147.89,183.152 150.75,192.123 154.89,196.292 L94.77,196.292 L94.77,196.292 Z M92.36,169.033 C99.14,158.362 110.92,151.833 123.67,151.833 C124.04,151.833 124.42,151.842 124.88,151.853 C125.25,151.842 125.62,151.833 126,151.833 C138.74,151.833 150.52,158.362 157.31,169.033 C148.37,169.513 137.68,169.623 124.83,169.623 C111.99,169.623 101.29,169.513 92.36,169.033 L92.36,169.033 Z M89.5,195.792 C85.01,195.792 80,185.663 80,171.123 L80,170.982 C85.46,171.663 91.73,172.073 98.99,172.313 C98.72,186.203 93.87,195.792 89.5,195.792 L89.5,195.792 Z M25.2,160.643 C24.32,160.183 24.94,158.152 25.25,157.292 C28.92,147.063 39.85,136.413 43.74,132.842 C44.39,139.433 45.41,144.902 47.01,149.473 C42.44,155.013 28.42,162.313 25.2,160.643 L25.2,160.643 Z M38.92,18.123 C38.92,15.493 39.1,12.882 39.42,10.283 C51.2,13.103 61.8,19.663 69.64,28.973 C63.85,30.623 59.38,32.922 55.76,36.123 C51.9,39.522 49.15,43.823 47.2,49.433 C41.78,39.922 38.92,29.163 38.92,18.123 L38.92,18.123 Z M40.54,3.862 C55.01,7.223 67.71,15.502 76.69,27.382 C75.35,27.612 74.07,27.873 72.84,28.152 C64.45,17.692 52.82,10.353 39.85,7.303 C40.05,6.152 40.27,5.002 40.54,3.862 L40.54,3.862 Z M209.13,3.862 C209.39,5.002 209.62,6.152 209.82,7.303 C196.85,10.353 185.22,17.692 176.83,28.152 C175.6,27.873 174.32,27.612 172.98,27.382 C181.96,15.502 194.66,7.223 209.13,3.862 L209.13,3.862 Z M210.25,10.283 C210.57,12.882 210.75,15.493 210.75,18.123 C210.75,29.163 207.89,39.922 202.47,49.433 C200.52,43.823 197.77,39.522 193.91,36.123 C190.28,32.922 185.82,30.623 180.03,28.973 C187.87,19.663 198.47,13.103 210.25,10.283 L210.25,10.283 Z M42.67,98.022 C41.84,97.743 40.97,97.592 40.1,97.592 C37.42,97.592 34.98,98.953 33.51,101.063 C31.84,99.172 29.41,98.042 26.77,98.042 C22.78,98.042 19.34,100.672 18.18,104.333 C16.85,103.803 15.44,103.533 14,103.533 C10.05,103.533 6.52,105.542 4.47,108.663 C3.49,104.703 3,100.643 3,96.542 C3,80.033 11.03,64.672 24.28,55.203 C22.62,58.953 21.75,63.022 21.75,67.203 C21.75,80.252 30.3,91.712 42.67,95.502 L42.67,98.022 L42.67,98.022 Z M221.8,49.402 L215.92,46.172 L219.86,51.603 C223.17,56.163 224.92,61.563 224.92,67.203 C224.92,78.632 217.63,88.703 206.98,92.373 C206.88,80.252 206.47,70.453 205.38,62.453 C204.93,59.112 204.36,56.083 203.64,53.333 C210.25,42.783 213.75,30.632 213.75,18.123 C213.75,12.583 213.06,7.053 211.7,1.712 L211.34,0.323 L209.94,0.612 C193.65,4.002 179.4,13.313 169.66,26.862 C158.78,25.333 144.4,24.953 124.83,24.953 C105.27,24.953 90.88,25.333 80.01,26.862 C70.27,13.313 56.02,4.002 39.73,0.612 L38.32,0.323 L37.97,1.712 C36.61,7.053 35.92,12.583 35.92,18.123 C35.92,30.632 39.42,42.783 46.03,53.333 C45.42,55.663 44.92,58.203 44.51,60.962 C43.25,69.223 42.8,79.493 42.69,92.373 C32.04,88.703 24.75,78.632 24.75,67.203 C24.75,61.563 26.5,56.163 29.81,51.603 L33.75,46.172 L27.87,49.402 C10.68,58.882 0,76.942 0,96.542 C0,102.393 0.95,108.172 2.82,113.723 L4.7,119.323 L5.72,113.502 C6.42,109.462 9.9,106.533 14,106.533 C15.58,106.533 17.13,106.982 18.48,107.833 L20.61,109.172 L20.77,106.663 C20.98,103.513 23.61,101.042 26.77,101.042 C29.24,101.042 31.43,102.522 32.35,104.803 L34.2,109.362 L35.21,104.553 C35.69,102.263 37.75,100.592 40.1,100.592 C41.02,100.592 41.9,100.853 42.67,101.323 C42.69,112.223 42.85,121.402 43.43,129.152 C43.35,129.203 43.27,129.252 43.19,129.313 C42.54,129.873 27.17,143.063 22.42,156.283 C20.85,160.672 22.31,162.522 23.82,163.303 C24.55,163.692 25.45,163.862 26.47,163.862 C32.68,163.862 43.34,157.433 48.23,152.553 C49.93,156.323 52.13,159.402 55,161.953 C59.56,165.993 65.67,168.513 74.13,170.083 C75.06,170.263 76.02,170.422 77.01,170.573 C77.01,170.752 77,170.933 77,171.123 C77,182.442 79.92,191.962 84.23,196.292 L34.83,196.292 C34,196.292 33.33,196.962 33.33,197.792 C33.33,198.612 34,199.292 34.83,199.292 L210.33,199.292 L215.14,195.683 L219.64,199.292 L239.83,199.292 C240.66,199.292 241.33,198.612 241.33,197.792 C241.33,196.962 240.66,196.292 239.83,196.292 L220.69,196.292 L215.2,191.893 L209.33,196.292 L165.44,196.292 C169.74,191.962 172.67,182.442 172.67,171.123 C172.67,170.933 172.66,170.752 172.66,170.573 C173.65,170.422 174.6,170.263 175.53,170.083 C184,168.513 190.11,165.993 194.66,161.953 C197.53,159.402 199.74,156.323 201.44,152.553 C206.32,157.433 216.99,163.862 223.2,163.862 C224.22,163.862 225.12,163.692 225.85,163.303 C227.36,162.522 228.82,160.672 227.25,156.283 C222.5,143.063 207.12,129.873 206.47,129.313 C206.4,129.252 206.32,129.203 206.24,129.152 C206.81,121.402 206.98,112.223 207,101.323 C207.77,100.853 208.65,100.592 209.57,100.592 C211.92,100.592 213.97,102.263 214.46,104.553 L215.47,109.362 L217.31,104.803 C218.24,102.522 220.43,101.042 222.9,101.042 C226.05,101.042 228.69,103.513 228.9,106.663 L229.06,109.172 L231.19,107.833 C232.54,106.982 234.09,106.533 235.67,106.533 C239.76,106.533 243.25,109.462 243.95,113.502 L244.96,119.323 L246.85,113.723 C248.72,108.172 249.67,102.393 249.67,96.542 C249.67,76.942 238.99,58.882 221.8,49.402 L221.8,49.402 Z" id="Fill-37" fill="#3B3B4D"></path>
    </g>
</svg>