<?xml version="1.0" encoding="UTF-8" standalone="no"?>
<svg width="237px" height="203px" viewBox="0 0 237 203" version="1.1" xmlns="http://www.w3.org/2000/svg" xmlns:xlink="http://www.w3.org/1999/xlink">
    <!-- Generator: Sketch 39.1 (31720) - http://www.bohemiancoding.com/sketch -->
    <title>Slice 1</title>
    <desc>Created with Sketch.</desc>
    <defs></defs>
    <g id="Page-1" stroke="none" stroke-width="1" fill="none" fill-rule="evenodd">
        <path d="M191.677,43.011 C190.674,41.734 189.559,40.552 188.36,39.498 C183.813,35.488 177.8,32.853 169.434,31.203 L169.004,31.118 L169.031,30.682 C169.11,29.399 169.26,28.081 169.477,26.761 C171.049,17.597 175.99,9.49 183.391,3.933 L183.791,3.632 L184.091,4.033 C186.795,7.649 188.971,11.603 190.558,15.785 C192.59,21.171 193.62,26.88 193.62,32.752 C193.62,36.142 193.263,39.525 192.56,42.808 L192.336,43.851 L191.677,43.011 L191.677,43.011 Z M46.671,42.806 C45.974,39.514 45.62,36.131 45.62,32.752 C45.62,22.314 48.912,12.384 55.14,4.034 L55.439,3.631 L55.841,3.933 C64.331,10.318 69.568,20.068 70.209,30.682 L70.235,31.119 L69.807,31.203 C61.435,32.852 55.418,35.487 50.871,39.498 C49.671,40.552 48.556,41.734 47.554,43.011 L46.893,43.854 L46.671,42.806 L46.671,42.806 Z M119.407,128.165 C116.336,126.717 113.438,124.538 111.845,122.479 C110.839,121.168 110.546,119.757 111.061,118.703 C111.471,117.858 112.378,117.373 113.55,117.373 L125.68,117.373 C126.852,117.373 127.759,117.858 128.17,118.704 C128.69,119.745 128.398,121.158 127.387,122.477 C125.788,124.543 122.895,126.722 119.833,128.165 L119.62,128.265 L119.407,128.165 L119.407,128.165 Z" id="Fill-43" fill="#F3B130"></path>
        <path d="M77.701,90.01 C76.245,93.493 75.45,97.906 75.45,102.583 C75.45,107.258 76.245,111.672 77.701,115.155 C79.156,111.689 79.95,107.275 79.95,102.583 C79.95,97.89 79.156,93.476 77.701,90.01 L77.701,90.01 Z M77.28,123.123 C71.584,123.123 66.95,118.488 66.95,112.792 L66.95,89.453 C66.95,83.757 71.584,79.123 77.28,79.123 C82.981,79.123 87.62,83.757 87.62,89.453 L87.62,112.792 C87.62,118.488 82.981,123.123 77.28,123.123 L77.28,123.123 Z M161.531,90.01 C160.075,93.493 159.28,97.906 159.28,102.583 C159.28,107.258 160.075,111.672 161.531,115.155 C162.986,111.689 163.78,107.275 163.78,102.583 C163.78,97.89 162.986,93.476 161.531,90.01 L161.531,90.01 Z M161.95,123.123 C156.254,123.123 151.62,118.488 151.62,112.792 L151.62,89.453 C151.62,83.757 156.254,79.123 161.95,79.123 C167.646,79.123 172.28,83.757 172.28,89.453 L172.28,112.792 C172.28,118.488 167.646,123.123 161.95,123.123 L161.95,123.123 Z" id="Fill-44" fill="#91B85E"></path>
        <path d="M166.469,30.676 C164.75,30.394 162.92,30.147 160.874,29.919 L160.315,29.857 L160.442,29.31 C160.574,28.743 160.716,28.178 160.867,27.622 C163.183,19.268 168.418,11.991 175.609,7.128 L176.268,7.87 C171.7,13.153 168.672,19.569 167.513,26.426 C167.298,27.607 167.142,28.881 167.049,30.217 L167.011,30.765 L166.469,30.676 L166.469,30.676 Z M72.181,30.217 C71.617,22.041 68.344,14.104 62.961,7.869 L63.62,7.128 C71.356,12.362 76.743,20.24 78.787,29.313 L78.91,29.857 L78.355,29.919 C76.311,30.147 74.48,30.395 72.761,30.676 L72.219,30.765 L72.181,30.217 L72.181,30.217 Z M23.21,118.083 C18.849,118.083 15.3,114.534 15.3,110.172 L15.3,86.083 L10.71,86.083 C6.349,86.083 2.8,82.534 2.8,78.172 L2.8,58.583 C2.8,55.274 5.491,52.583 8.8,52.583 C12.108,52.583 14.8,55.274 14.8,58.583 L14.8,71.172 C14.8,72.777 16.105,74.083 17.71,74.083 L19.4,74.083 C22.433,74.083 25.235,75.863 26.542,78.618 L26.88,79.333 L21.8,79.333 C21.248,79.333 20.8,79.781 20.8,80.333 C20.8,80.884 21.248,81.333 21.8,81.333 L27.3,81.333 L27.3,85.533 L20.46,85.533 C19.908,85.533 19.46,85.981 19.46,86.533 C19.46,87.084 19.908,87.533 20.46,87.533 L27.3,87.533 L27.3,103.172 C27.3,104.777 28.605,106.083 30.21,106.083 L37.957,106.083 L37.96,106.58 C37.979,110.156 38.007,113.963 38.08,117.572 L38.091,118.083 L23.21,118.083 L23.21,118.083 Z M21.234,164.385 C20.632,164.385 20.133,164.285 19.75,164.086 C18.622,163.498 19.024,161.606 19.56,160.123 C23.204,149.963 33.804,139.5 38.192,135.474 L38.931,134.796 L39.028,135.794 C39.682,142.529 40.739,147.931 42.263,152.309 L42.354,152.574 L42.176,152.791 C38.074,157.775 26.135,164.385 21.234,164.385 C21.233,164.385 21.234,164.385 21.234,164.385 L21.234,164.385 Z M217.997,164.385 C213.104,164.384 201.165,157.774 197.055,152.791 L196.875,152.573 L196.969,152.308 C198.481,147.986 199.542,142.584 200.212,135.793 L200.311,134.797 L201.048,135.474 C205.433,139.497 216.025,149.953 219.681,160.124 C220.437,162.291 220.368,163.622 219.481,164.086 C219.098,164.285 218.599,164.385 217.998,164.385 L217.997,164.385 L217.997,164.385 Z M77.28,77.123 C70.481,77.123 64.95,82.654 64.95,89.453 L64.95,112.792 C64.95,119.591 70.481,125.123 77.28,125.123 C84.085,125.123 89.62,119.591 89.62,112.792 L89.62,89.453 C89.62,82.654 84.085,77.123 77.28,77.123 L77.28,77.123 Z M161.95,77.123 C155.151,77.123 149.62,82.654 149.62,89.453 L149.62,112.792 C149.62,119.591 155.151,125.123 161.95,125.123 C168.749,125.123 174.28,119.591 174.28,112.792 L174.28,89.453 C174.28,82.654 168.749,77.123 161.95,77.123 L161.95,77.123 Z M120.031,144.598 C121.538,146.78 124.013,148.083 126.65,148.083 C131.078,148.083 134.68,144.48 134.68,140.053 C134.68,139.501 134.231,139.053 133.68,139.053 C133.128,139.053 132.68,139.501 132.68,140.053 C132.68,143.377 129.975,146.083 126.65,146.083 C123.494,146.083 120.896,143.645 120.641,140.553 L120.45,140.553 L120.45,130.077 L120.735,129.941 C124.119,128.333 127.199,125.996 128.974,123.688 C130.454,121.763 130.827,119.57 129.971,117.822 C129.218,116.289 127.613,115.373 125.68,115.373 L113.55,115.373 C111.623,115.373 110.022,116.289 109.27,117.823 C108.403,119.572 108.776,121.763 110.266,123.687 C111.961,125.902 114.916,128.181 118.171,129.784 L118.45,129.921 L118.45,141.455 L118.435,141.516 C117.751,144.205 115.348,146.083 112.59,146.083 C109.26,146.083 106.55,143.377 106.55,140.053 C106.55,139.501 106.102,139.053 105.55,139.053 C104.998,139.053 104.55,139.501 104.55,140.053 C104.55,144.48 108.156,148.083 112.59,148.083 C115.228,148.083 117.702,146.78 119.209,144.598 L119.62,144.002 L120.031,144.598 L120.031,144.598 Z M119.62,173.123 C97.205,173.123 82.069,172.767 71.039,170.946 C62.044,169.458 55.818,166.961 51.448,163.086 C48.365,160.352 46.063,156.811 44.41,152.263 L44.166,151.592 L65.95,151.592 C66.502,151.592 66.95,151.144 66.95,150.592 C66.95,150.041 66.502,149.592 65.95,149.592 L43.532,149.592 L43.43,149.229 C42.698,146.663 42.111,143.763 41.635,140.362 L41.555,139.792 L74.95,139.792 C75.502,139.792 75.95,139.344 75.95,138.792 C75.95,138.241 75.502,137.792 74.95,137.792 L41.304,137.792 L41.253,137.349 C40.34,129.26 39.95,118.626 39.95,101.792 C39.95,86.815 40.292,77.134 41.093,69.421 C42.152,59.331 44.096,52.214 47.211,47.025 C47.319,46.887 47.365,46.81 47.411,46.704 C48.816,44.448 50.371,42.603 52.2,40.997 C62.427,31.975 81.264,30.453 119.62,30.453 C157.968,30.453 176.803,31.975 187.041,40.998 C188.868,42.612 190.42,44.457 191.784,46.637 C191.855,46.788 191.904,46.868 191.99,46.983 C198.123,57.189 199.28,74.115 199.28,101.792 C199.28,118.912 198.905,129.213 197.987,137.349 L197.937,137.792 L164.28,137.792 C163.729,137.792 163.28,138.241 163.28,138.792 C163.28,139.344 163.729,139.792 164.28,139.792 L197.688,139.792 L197.605,140.363 C197.117,143.767 196.53,146.667 195.812,149.228 L195.709,149.592 L173.28,149.592 C172.729,149.592 172.28,150.041 172.28,150.592 C172.28,151.144 172.729,151.592 173.28,151.592 L195.076,151.592 L194.83,152.264 C193.161,156.826 190.858,160.366 187.792,163.086 C183.422,166.961 177.197,169.458 168.202,170.946 C157.17,172.767 142.035,173.123 119.62,173.123 L119.62,173.123 Z M84.28,199.292 C79.456,199.292 74.29,189.179 74.29,174.123 L74.29,173.416 L74.852,173.486 C79.993,174.128 86.187,174.562 93.786,174.813 L94.278,174.829 L94.27,175.322 C94.001,189.661 88.888,199.292 84.28,199.292 L84.28,199.292 Z M154.95,199.292 C150.352,199.292 145.239,189.661 144.96,175.322 L144.95,174.829 L145.443,174.813 C153.04,174.562 159.237,174.128 164.389,173.486 L164.95,173.417 L164.95,174.123 C164.95,189.179 159.779,199.292 154.95,199.292 L154.95,199.292 Z" id="Fill-45" fill="#788294"></path>
        <path d="M16.05,199.292 L4.62,199.292 C3.79,199.292 3.12,199.962 3.12,200.792 C3.12,201.612 3.79,202.292 4.62,202.292 L16.05,202.292 C16.88,202.292 17.55,201.612 17.55,200.792 C17.55,199.962 16.88,199.292 16.05,199.292 L16.05,199.292 Z M87.12,89.453 C87.12,84.033 82.71,79.623 77.28,79.623 C71.86,79.623 67.45,84.033 67.45,89.453 L67.45,112.792 C67.45,118.212 71.86,122.623 77.28,122.623 C82.71,122.623 87.12,118.212 87.12,112.792 L87.12,89.453 L87.12,89.453 Z M90.12,89.453 L90.12,112.792 C90.12,119.862 84.36,125.623 77.28,125.623 C70.21,125.623 64.45,119.862 64.45,112.792 L64.45,89.453 C64.45,82.382 70.21,76.623 77.28,76.623 C84.36,76.623 90.12,82.382 90.12,89.453 L90.12,89.453 Z M164.45,174.123 L164.45,173.982 C158.99,174.663 152.72,175.073 145.46,175.313 C145.73,189.203 150.58,198.792 154.95,198.792 C159.44,198.792 164.45,188.663 164.45,174.123 L164.45,174.123 Z M149.68,199.292 C145.54,195.123 142.67,186.152 142.46,175.393 C135.69,175.573 128.11,175.623 119.62,175.623 C111.12,175.623 103.54,175.573 96.77,175.393 C96.56,186.152 93.7,195.123 89.56,199.292 L149.68,199.292 L149.68,199.292 Z M93.77,175.313 C86.51,175.073 80.24,174.663 74.79,173.982 L74.79,174.123 C74.79,188.663 79.79,198.792 84.28,198.792 C88.65,198.792 93.51,189.203 93.77,175.313 L93.77,175.313 Z M119.62,172.623 C141.28,172.623 156.85,172.313 168.12,170.453 C176.89,169.002 183.05,166.623 187.46,162.712 C190.48,160.033 192.71,156.603 194.36,152.092 L173.28,152.092 C172.46,152.092 171.78,151.422 171.78,150.592 C171.78,149.763 172.46,149.092 173.28,149.092 L195.33,149.092 C196.06,146.493 196.64,143.573 197.11,140.292 L164.28,140.292 C163.46,140.292 162.78,139.623 162.78,138.792 C162.78,137.962 163.46,137.292 164.28,137.292 L197.49,137.292 C198.51,128.263 198.78,116.712 198.78,101.792 C198.78,73.732 197.62,57.323 191.59,47.283 C191.5,47.163 191.42,47.042 191.36,46.902 C190.04,44.792 188.51,42.962 186.71,41.373 C176.6,32.462 157.84,30.953 119.62,30.953 C81.39,30.953 62.63,32.462 52.53,41.373 C50.72,42.962 49.19,44.792 47.87,46.902 C47.81,47.042 47.74,47.163 47.64,47.283 C44.44,52.612 42.61,59.752 41.59,69.473 C40.7,78.042 40.45,88.643 40.45,101.792 C40.45,116.712 40.73,128.263 41.75,137.292 L74.95,137.292 C75.78,137.292 76.45,137.962 76.45,138.792 C76.45,139.623 75.78,140.292 74.95,140.292 L42.13,140.292 C42.59,143.573 43.17,146.493 43.91,149.092 L65.95,149.092 C66.78,149.092 67.45,149.763 67.45,150.592 C67.45,151.422 66.78,152.092 65.95,152.092 L44.88,152.092 C46.52,156.603 48.76,160.033 51.78,162.712 C56.19,166.623 62.35,169.002 71.12,170.453 C82.39,172.313 97.95,172.623 119.62,172.623 L119.62,172.623 Z M41.79,152.473 C40.2,147.902 39.17,142.433 38.53,135.842 C34.64,139.413 23.7,150.063 20.03,160.292 C19.72,161.152 19.1,163.183 19.98,163.643 C23.2,165.313 37.23,158.013 41.79,152.473 L41.79,152.473 Z M46.12,32.752 C46.12,36.112 46.47,39.442 47.16,42.703 C48.18,41.402 49.3,40.212 50.54,39.123 C55.2,35.013 61.23,32.382 69.71,30.712 C69.08,20.283 63.89,10.612 55.54,4.333 C49.38,12.592 46.12,22.373 46.12,32.752 L46.12,32.752 Z M63.34,7.542 C68.77,13.833 72.1,21.763 72.68,30.183 C74.45,29.893 76.32,29.643 78.3,29.422 C76.27,20.413 70.85,12.623 63.34,7.542 L63.34,7.542 Z M161.35,27.752 C161.2,28.303 161.06,28.862 160.93,29.422 C162.91,29.643 164.78,29.893 166.55,30.183 C166.64,28.893 166.79,27.603 167.02,26.342 C168.2,19.362 171.29,12.862 175.89,7.542 C168.85,12.303 163.65,19.453 161.35,27.752 L161.35,27.752 Z M169.97,26.842 C169.76,28.123 169.61,29.413 169.53,30.712 C178,32.382 184.03,35.013 188.69,39.123 C189.93,40.212 191.05,41.402 192.07,42.703 C192.77,39.442 193.12,36.112 193.12,32.752 C193.12,26.913 192.09,21.263 190.09,15.962 C188.53,11.853 186.39,7.942 183.69,4.333 C176.38,9.823 171.5,17.922 169.97,26.842 L169.97,26.842 Z M200.71,135.842 C200.06,142.433 199.04,147.902 197.44,152.473 C202.01,158.013 216.03,165.313 219.25,163.643 C220.13,163.183 219.51,161.152 219.21,160.292 C215.53,150.053 204.59,139.402 200.71,135.842 L200.71,135.842 Z M37.58,117.583 C37.51,114.132 37.48,110.473 37.46,106.583 L30.21,106.583 C28.33,106.583 26.8,105.053 26.8,103.172 L26.8,88.033 L20.46,88.033 C19.63,88.033 18.96,87.362 18.96,86.533 C18.96,85.703 19.63,85.033 20.46,85.033 L26.8,85.033 L26.8,81.993 L26.8,81.833 L21.8,81.833 C20.98,81.833 20.3,81.163 20.3,80.333 C20.3,79.502 20.98,78.833 21.8,78.833 L26.09,78.833 C24.9,76.323 22.35,74.583 19.4,74.583 L17.71,74.583 C15.83,74.583 14.3,73.053 14.3,71.172 L14.3,58.583 C14.3,55.553 11.84,53.083 8.8,53.083 C5.77,53.083 3.3,55.553 3.3,58.583 L3.3,78.172 C3.3,82.263 6.63,85.583 10.71,85.583 L15.8,85.583 L15.8,110.172 C15.8,114.263 19.13,117.583 23.21,117.583 L37.58,117.583 L37.58,117.583 Z M236.12,200.792 C236.12,201.612 235.45,202.292 234.62,202.292 L216.6,202.292 C215.77,202.292 215.1,201.612 215.1,200.792 C215.1,197.732 212.61,195.243 209.55,195.243 C206.5,195.243 204.01,197.732 204.01,200.792 C204.01,201.612 203.34,202.292 202.51,202.292 L27.55,202.292 C26.73,202.292 26.05,201.612 26.05,200.792 C26.05,199.962 26.73,199.292 27.55,199.292 L79.01,199.292 C74.71,194.962 71.79,185.442 71.79,174.123 L71.79,173.573 C71.4,173.513 71.02,173.453 70.64,173.382 C61.28,171.842 54.64,169.263 49.79,164.953 C46.92,162.402 44.71,159.323 43.01,155.553 C38.13,160.433 27.46,166.862 21.25,166.862 C20.23,166.862 19.33,166.692 18.6,166.303 C17.09,165.522 15.63,163.672 17.21,159.283 C21.95,146.063 37.33,132.873 37.98,132.313 C38.05,132.252 38.13,132.203 38.21,132.152 C37.95,128.603 37.77,124.752 37.66,120.583 L23.21,120.583 C17.47,120.583 12.8,115.913 12.8,110.172 L12.8,88.583 L10.71,88.583 C4.97,88.583 0.3,83.913 0.3,78.172 L0.3,58.583 C0.3,53.893 4.12,50.083 8.8,50.083 C13.49,50.083 17.3,53.893 17.3,58.583 L17.3,71.172 C17.3,71.402 17.49,71.583 17.71,71.583 L19.4,71.583 C25.14,71.583 29.8,76.252 29.8,81.993 L29.8,103.172 C29.8,103.402 29.99,103.583 30.21,103.583 L37.45,103.583 L37.45,101.792 C37.45,88.603 37.72,77.913 38.64,69.172 C39.67,59.163 41.57,51.723 44.89,46.033 C43.72,41.723 43.12,37.263 43.12,32.752 C43.12,21.232 47.1,9.953 54.33,0.993 L54.99,0.172 L55.99,0.513 C68.86,4.993 78.44,15.882 81.3,29.112 C91.25,28.203 103.72,27.953 119.62,27.953 C135.51,27.953 147.98,28.203 157.93,29.112 C158.08,28.402 158.26,27.692 158.45,26.993 C161.84,14.723 171.07,4.752 183.25,0.513 L184.25,0.172 L184.91,0.993 C188.29,5.192 190.98,9.902 192.86,14.913 C195,20.583 196.12,26.632 196.12,32.752 C196.12,37.263 195.52,41.723 194.34,46.033 C200.57,56.692 201.78,73.502 201.78,101.792 C201.78,113.823 201.64,123.813 201.02,132.152 C201.1,132.203 201.18,132.252 201.25,132.313 C201.91,132.873 217.28,146.063 222.03,159.283 C223.6,163.672 222.14,165.522 220.63,166.303 C219.9,166.692 219,166.862 217.98,166.862 C211.77,166.862 201.11,160.433 196.22,155.553 C194.52,159.323 192.32,162.402 189.45,164.953 C184.59,169.252 177.96,171.842 168.6,173.382 C168.22,173.453 167.83,173.513 167.44,173.573 C167.44,173.752 167.45,173.933 167.45,174.123 C167.45,185.442 164.53,194.962 160.22,199.292 L201.14,199.292 C201.85,195.292 205.36,192.243 209.55,192.243 C213.75,192.243 217.26,195.292 217.97,199.292 L234.62,199.292 C235.45,199.292 236.12,199.962 236.12,200.792 L236.12,200.792 Z M74.95,102.583 C74.95,107.982 76.01,112.862 77.7,116.373 C79.4,112.862 80.45,107.982 80.45,102.583 C80.45,97.183 79.4,92.303 77.7,88.792 C76.01,92.303 74.95,97.183 74.95,102.583 L74.95,102.583 Z M119.62,127.712 C122.61,126.303 125.45,124.163 126.99,122.172 C127.88,121.013 128.16,119.803 127.72,118.922 C127.39,118.243 126.66,117.873 125.68,117.873 L113.55,117.873 C112.57,117.873 111.84,118.243 111.51,118.922 C111.08,119.803 111.35,121.013 112.24,122.172 C113.78,124.163 116.63,126.303 119.62,127.712 L119.62,127.712 Z M119.62,144.882 C118.08,147.112 115.5,148.583 112.59,148.583 C107.88,148.583 104.05,144.752 104.05,140.053 C104.05,139.223 104.73,138.553 105.55,138.553 C106.38,138.553 107.05,139.223 107.05,140.053 C107.05,143.103 109.54,145.583 112.59,145.583 C115.17,145.583 117.34,143.792 117.95,141.393 L117.95,130.232 C114.66,128.612 111.63,126.292 109.87,123.993 C108.26,121.913 107.87,119.522 108.82,117.603 C109.66,115.893 111.43,114.873 113.55,114.873 L125.68,114.873 C127.8,114.873 129.58,115.893 130.42,117.603 C131.36,119.522 130.97,121.913 129.37,123.993 C127.54,126.373 124.36,128.772 120.95,130.393 L120.95,140.053 L121.12,140.053 C121.12,143.103 123.6,145.583 126.65,145.583 C129.7,145.583 132.18,143.103 132.18,140.053 C132.18,139.223 132.85,138.553 133.68,138.553 C134.51,138.553 135.18,139.223 135.18,140.053 C135.18,144.752 131.35,148.583 126.65,148.583 C123.73,148.583 121.16,147.112 119.62,144.882 L119.62,144.882 Z M152.12,112.792 C152.12,118.212 156.53,122.623 161.95,122.623 C167.37,122.623 171.78,118.212 171.78,112.792 L171.78,89.453 C171.78,84.033 167.37,79.623 161.95,79.623 C156.53,79.623 152.12,84.033 152.12,89.453 L152.12,112.792 L152.12,112.792 Z M149.12,112.792 L149.12,89.453 C149.12,82.382 154.87,76.623 161.95,76.623 C169.03,76.623 174.78,82.382 174.78,89.453 L174.78,112.792 C174.78,119.862 169.03,125.623 161.95,125.623 C154.87,125.623 149.12,119.862 149.12,112.792 L149.12,112.792 Z M161.53,116.373 C159.84,112.862 158.78,107.982 158.78,102.583 C158.78,97.183 159.84,92.303 161.53,88.792 C163.23,92.303 164.28,97.183 164.28,102.583 C164.28,107.982 163.23,112.862 161.53,116.373 L161.53,116.373 Z" id="Fill-46" fill="#3B3B4D"></path>
    </g>
</svg>