<svg xmlns="http://www.w3.org/2000/svg" xmlns:xlink="http://www.w3.org/1999/xlink" version="1.1" x="0px" y="0px" viewBox="0 0 100 100" enable-background="new 0 0 100 100" xml:space="preserve"><path fill-rule="evenodd" clip-rule="evenodd" d="M59.4,57.9c0.5,0,0.9-1.4,0.9-3.2s-0.4-3.2-0.9-3.2c-0.5,0-0.9,1.4-0.9,3.2  S58.9,57.9,59.4,57.9z"></path><path fill-rule="evenodd" clip-rule="evenodd" d="M40.6,57.9c0.5,0,0.9-1.4,0.9-3.2s-0.4-3.2-0.9-3.2s-0.9,1.4-0.9,3.2  S40.1,57.9,40.6,57.9z"></path><path fill-rule="evenodd" clip-rule="evenodd" d="M78.6,32.7c-1.8-1.9-10,0.4-15,3.5c-3.9-2-8.6-3.2-13.6-3.2  c-5.1,0-9.8,1.2-13.7,3.2c-5-3.1-13.3-5.5-15-3.5c-1.8,2,1.3,10.3,5,14.9c0,0,0,0,0,0c-0.3,1.2-0.5,2.4-0.5,3.7  c0,4,1.7,7.7,4.6,10.7h16.5c-0.5-1,0.2-1.6,3.2-1.6c3,0.1,3.6,0.6,3.2,1.6h16.5c2.9-3,4.6-6.8,4.6-10.7c0-1.3-0.2-2.5-0.5-3.7  C77.4,43,80.4,34.6,78.6,32.7z M40.6,59.1c-3.5,0-6.4-2.9-6.4-6.4c0-3.5,2.9-6.4,6.4-6.4s6.4,2.9,6.4,6.4  C47,56.2,44.1,59.1,40.6,59.1z M59.4,59.1c-3.5,0-6.4-2.9-6.4-6.4c0-3.5,2.9-6.4,6.4-6.4c3.5,0,6.4,2.9,6.4,6.4  C65.8,56.2,63,59.1,59.4,59.1z"></path><path fill-rule="evenodd" clip-rule="evenodd" d="M23.6,54.9c-2.5,0-4.6,1.3-5.6,3.3c-0.1,0-0.2,0-0.3,0c-2.7,0-5,2-5,4.5  c0,3.5,3.6,5.4,6.9,4.2c2,2.9,6.3,3.1,7.9,0c2.4-0.1,6.3-0.5,6.9-4.2c0.4-2.5-2.2-4.5-5-4.5c-0.1,0-0.2,0-0.3,0  C28.3,56.2,26.1,54.9,23.6,54.9L23.6,54.9z M76.4,54.9c2.5,0,4.6,1.3,5.6,3.3c0.1,0-1.1,0,0.3,0c1.4,0,5,2,5,4.5  c0,3.5-3.6,5.4-6.9,4.2c-2,2.9-6.3,3.1-7.9,0c-2.4-0.1-6.3-0.5-6.9-4.2c-0.4-2.5,3.6-4.5,5-4.5c1.4,0,0.2,0,0.3,0  C71.7,56.2,73.9,54.9,76.4,54.9z"></path><path fill-rule="evenodd" clip-rule="evenodd" d="M69,58.7c6-7.5,18.3-11.1,26.5-5.9C85.9,51.3,77.2,53.8,69,58.7z"></path><path fill-rule="evenodd" clip-rule="evenodd" d="M68.6,56.9c3.4-8,13.5-13.2,21.6-10.4C81.7,47.6,74.8,50.9,68.6,56.9z"></path><path fill-rule="evenodd" clip-rule="evenodd" d="M68.5,60.8c6.2-5.9,19.9-7.9,24.1-1.7C84.1,56.4,76.7,57.6,68.5,60.8z"></path><path fill-rule="evenodd" clip-rule="evenodd" d="M31,58.7c-6-7.5-18.3-11.1-26.5-5.9C14.1,51.3,22.8,53.8,31,58.7z"></path><path fill-rule="evenodd" clip-rule="evenodd" d="M31.4,56.9c-3.4-8-13.5-13.2-21.6-10.4C18.3,47.6,25.2,50.9,31.4,56.9z"></path><path fill-rule="evenodd" clip-rule="evenodd" d="M31.5,60.8c-6.2-5.9-19.9-7.9-24.1-1.7C15.9,56.4,23.3,57.6,31.5,60.8z"></path></svg>