<svg xmlns="http://www.w3.org/2000/svg" xmlns:xlink="http://www.w3.org/1999/xlink" version="1.1" x="0px" y="0px" viewBox="0 0 100 100" enable-background="new 0 0 100 100" xml:space="preserve"><path d="M48.582,78.014c-3.041-7.188-6.691-7.533-10.229-7.741c-2.209-0.13-5.667,1.384-7.878,4.839  c-1.373,2.144-5.114,9.813-2.073,12.992c5.332,5.573,4.944,10.229,3.041,10.229c-3.893,0-5.909,0-7.878,0c-4.566,0-7.504,0-12.717,0  c-2.411,0-0.016-6.839,1.382-13.132c1.935-8.707,1.935-8.707-2.168-19.88c-1.862-5.066-5.098-12.277-6.125-17.576  C3.128,43.57,2.416,35.442,4.213,25.076c0.389-2.244-1.244-9.813-3.041-11.334c-1.637-1.385-3.041-9.813,6.635-11.749  c15.731-3.147,9.601,17.521,9.399,21.01c-0.155,2.667-1.072,8.918,0.968,10.643c0.688,0.582,2.784,0.119,3.593-0.277  c1.935-0.943,7.208-13.179,21.148-11.61c11.058,1.244,15.248,12.988,19.669,13.265c2.402,0.15,4.798-5.903,6.179-7.875  c3.002-4.289,5.058-8.183,7.464-8.432c4.007-0.415,5.252,5.529,5.252,10.09c0,2.127,3.253,3.318,6.496,5.253  c4.854,2.896,9.122,7.049,10.175,10.263c0.332,1.01,0.159,4.791,0.331,5.839c0.139,0.854,1.548,2.245,1.52,3.109  c-0.064,1.872-2.467,5.118-3.732,6.497c-2.333,2.543-8.079,6.733-11.334,7.879c-2.81,0.989-9.216-0.487-11.887,0.829  c-2.151,1.061-5.419,4.979-6.357,7.187c-1.193,2.807-2.138,6.806-1.106,9.677c0.624,1.738,3.876,4.092,4.562,5.805  c0.542,1.354,1.015,4.423,0.554,5.806c-0.325,0.975-1.737,1.382-2.766,1.382c-5.528,0-6.22,0-10.504,0c-2.006,0-3.731,0-7.949,0  c-1.311,0-1.021-4.363-1.174-5.666C47.872,88.995,50.022,81.418,48.582,78.014z"></path></svg>