<svg xmlns="http://www.w3.org/2000/svg" viewBox="0 0 79.999993 95.000032" x="0px" y="0px"><path d="m307.11391 727.72089a2.545752 3.219085 0 0 0 -2.60273 3.216v26.1a29.472939 26.388035 0 0 0 -2.10527 9.737 29.472939 26.388035 0 0 0 2.77548 11.1099c-1.109.337-2.235.787-3.283 1.268-2.618 1.202-4.755 2.563-4.755 2.563l.561.891c0 0 2.09-1.326 4.632-2.492 1.079-.495 2.236-.951 3.337-1.272a29.472939 26.388035 0 0 0 1.28495 2.0039c-1.336.341-2.73.89-4.01 1.476-2.618 1.202-4.755 2.561-4.755 2.561l.561.891c0 0 2.09-1.323 4.632-2.49 1.271-.583 2.654-1.125 3.921-1.439.123-.031.237-.048.358-.074a29.472939 26.388035 0 0 0 1.68589 1.9813c-.407.056-.819.13-1.242.235-1.366.339-2.799.902-4.108 1.503-2.618 1.202-4.755 2.56-4.755 2.56l.561.891c0 0 2.09-1.324 4.632-2.49 1.271-.583 2.654-1.125 3.921-1.439.71-.176 1.373-.265 1.961-.272a29.472939 26.388035 0 0 0 1.63642 1.4411 22.1047 21.11043 0 0 0 -2.18537 9.0958 22.1047 21.11043 0 0 0 9.62159 17.4224 6.223215 8.50239 78.30024 0 0 -2.07643 5.7458 6.223215 8.50239 78.30024 0 0 9.96485 3.9314 6.223215 8.50239 78.30024 0 0 4.59295 -2.4369 8.50239 6.223215 11.699758 0 0 4.59484 2.4369 8.50239 6.223215 11.699758 0 0 9.96495 -3.9294 8.50239 6.223215 11.699758 0 0 -2.09284 -5.7642 22.1047 21.11043 0 0 0 5.77095 -5.4777c1.805.847 3.565 2.27 5.358 3.705 4.44 3.554 10.34 4.53 14.858 1.777 4.518-2.753 6.869-8.357 6.811-15.277a4.210292 4.222508 0 0 0 -4.30916 -4.2446 4.210292 4.222508 0 0 0 -4.11178 4.3168c.041 5.02-1.569 7.261-2.763 7.989-1.194.728-2.76.818-5.232-1.161-1.642-1.314-3.979-3.381-7.187-4.828a22.1047 21.11043 0 0 0 .44621 -4.2055 22.1047 21.11043 0 0 0 -2.17927 -9.0916 29.472939 26.388035 0 0 0 1.6118 -1.4453c.593.011 1.261.095 1.978.272 1.267.314 2.65.856 3.921 1.439 2.542 1.167 4.632 2.49 4.632 2.49l.563-.891c0 0-2.14-1.359-4.757-2.56-1.309-.601-2.739-1.164-4.106-1.503-.411-.102-.814-.175-1.211-.231a29.472939 26.388035 0 0 0 1.68169 -1.9791c.111.024.216.04.329.067 1.267.314 2.649.856 3.921 1.439 2.542 1.167 4.632 2.49 4.632 2.49l.563-.891c0 0-2.14-1.359-4.757-2.561-1.285-.59-2.686-1.142-4.03-1.482a29.472939 26.388035 0 0 0 1.28706 -2.004c1.107.322 2.271.78 3.357 1.278 2.542 1.167 4.632 2.492 4.632 2.492l.563-.891c0 0-2.14-1.361-4.757-2.563-1.049-.481-2.174-.931-3.283-1.268a29.472939 26.388035 0 0 0 2.77747 -11.1099 29.472939 26.388035 0 0 0 -2.10526 -9.7658v-26.07a2.545752 3.219085 0 0 0 -2.60473 -3.216 2.545752 3.219085 0 0 0 -1.21305 .4288l-17.533 12.801a29.472939 26.388035 0 0 0 -6.01759 -.5628 29.472939 26.388035 0 0 0 -5.99305 .5813l-17.559-12.819a2.545752 3.219085 0 0 0 -1.21306 -.4288m.555 6.332l5.981 11.992a29.473317 26.388404 0 0 0 -5.98053 5.6922v-17.684m48.42 0v17.724a29.473317 26.388404 0 0 0 -5.99084 -5.7087l5.991-12.01m-39.36 29.559c1.042-.02 2.107.097 3.16.357 4.205 1.045 7.391 4.203 7.775 7.997a.915043 .917579 0 0 1 -.18295 .6515c-2.355 3.084-6.765 4.34-10.976 3.301-4.205-1.045-7.393-4.203-7.777-7.997a.915043 .917579 0 0 1 .18295 -.6514c1.767-2.314 4.689-3.598 7.817-3.657zm30.3 0c3.127.059 6.05 1.343 7.817 3.657a.915043 .917579 0 0 1 .18295 .6514c-.385 3.794-3.573 6.952-7.777 7.997-4.211 1.039-8.621-.216-10.976-3.301a.915043 .917579 0 0 1 -.18294 -.6515c.385-3.794 3.571-6.952 7.775-7.997 1.053-.26 2.117-.377 3.16-.357zm-26.20443 2.1091a2.631354 3.166609 0 0 0 -2.63158 3.1667 2.631354 3.166609 0 0 0 2.63158 3.1665 2.631354 3.166609 0 0 0 2.63158 -3.1665 2.631354 3.166609 0 0 0 -2.63158 -3.1667m22.10706 0a2.631354 3.166609 0 0 0 -2.63148 3.1667 2.631354 3.166609 0 0 0 2.63148 3.1665 2.631354 3.166609 0 0 0 2.62948 -3.1665 2.631354 3.166609 0 0 0 -2.62948 -3.1667m-11.05243 12.6644a3.157855 2.111072 0 0 1 3.15779 2.111 3.157855 2.111072 0 0 1 -3.15779 2.1111 3.157855 2.111072 0 0 1 -3.1579 -2.1111 3.157855 2.111072 0 0 1 3.1579 -2.111" transform="translate(-297.14-727.72)"></path></svg>