<svg xmlns="http://www.w3.org/2000/svg" xmlns:xlink="http://www.w3.org/1999/xlink" version="1.1" x="0px" y="0px" viewBox="0 0 100 100" enable-background="new 0 0 100 100" xml:space="preserve"><g><path d="M42.667,40c0-5-7.667-5-7.667,0S42.667,45,42.667,40z"></path><path d="M59,43.449c5,0,5-7.667,0-7.667S54,43.449,59,43.449z"></path><path d="M51.082,58.02c0.448-2.065,3.402-4.558,4.703-6.202c0.713-0.901,2.178-2.277,0.937-3.42C56.055,47.782,54.768,48,53.945,48   c-3.143,0-6.286,0-9.429,0c-0.953,0-2.219-0.207-2.729,0.846c-0.566,1.173,0.803,2.379,1.449,3.197   c0.963,1.218,1.926,2.436,2.889,3.653c0.402,0.509,1.777,1.703,1.87,2.364c-0.808,2.845-2.909,5.153-5.612,6.329   c-2.089,0.909-4.589,0.4-6.545,1.228c-0.964,0.407-1.217,1.702-0.477,2.442c0.871,0.871,2.771,0.405,3.84,0.266   c4.257-0.555,8.131-2.702,10.343-6.451c1.363,2.311,3.416,4.135,5.866,5.229c1.691,0.754,3.521,1.161,5.361,1.318   c1.16,0.099,5.083-0.356,2.956-2.482c-0.991-0.991-3.769-0.564-5.13-0.908c-1.591-0.401-3.109-1.105-4.375-2.158   C52.72,61.621,51.607,59.903,51.082,58.02C51.117,57.857,51.655,60.076,51.082,58.02z M52.606,51   c-1.062,1.343-2.124,2.685-3.186,4.027c-1.062-1.343-2.123-2.685-3.185-4.027C48.36,51,50.483,51,52.606,51z"></path><path d="M86.37,45.067c-0.984-2.144-5.182,0.73-6.483,1.329c-0.268-2.013-1.694-5.005-1.054-6.723   c0.154-0.414,0.309-0.829,0.463-1.243c0.876-2.349,1.753-4.698,2.629-7.048c1.545-4.143,3.091-8.287,4.636-12.43   c-4.76,1.751-9.52,3.502-14.278,5.254c-1.093,0.402-2.185,0.804-3.277,1.206c-1.351,0.497-1.181,0.297-2.559-0.632   c-4.817-3.248-10.516-5.088-16.324-5.265c-5.438-0.166-10.878,1.114-15.663,3.705c-0.849,0.459-3.142,2.551-3.994,2.238   c-0.969-0.356-1.937-0.713-2.906-1.069c-4.924-1.812-9.849-3.624-14.773-5.436c1.45,3.889,2.901,7.778,4.351,11.667   c0.864,2.315,1.728,4.631,2.591,6.947c1.037,2.782-0.749,5.271-1.199,8.188c-0.995-0.46-1.99-0.921-2.984-1.382   c-1.804-0.836-3.157,1.844-1.346,2.683c0.833,0.719,2.381,1.103,3.381,1.565c1.257,0.582,0.633,4.002,0.789,5.38   c-1.092,0-2.184,0-3.276,0c-2.047,0-2.052,3-0.004,3c0.779,0,3.167-0.435,3.769,0c0.247,1.15,2.392,6.102,1.684,6.552   c-1.248,0.793-6.788,3.175-5.468,5.252c1.31,2.067,5.97-2.017,7.248-2.829c5.499,9.5,15.86,15.525,26.845,15.525   c11.235,0,21.807-6.303,27.203-16.149c1.454,0.924,5.88,4.934,7.675,3.97c3.205-1.72-4.938-5.785-5.997-6.459   C77.531,62.533,79.369,57,79.744,57c1.729,0,3.457,0,5.186,0c2.179,0,1.895-3-0.209-3c-1.585,0-3.171,0-4.757,0   c0.057-0.503,0.02-4.348,0.234-4.446c0.816-0.375,1.632-0.75,2.448-1.125C83.819,47.89,87.258,47,86.37,45.067z M81.467,24.022   c-1.551,4.16-3.103,8.32-4.653,12.48c-1.6-3.148-3.741-6.016-6.3-8.45C74.165,26.709,77.815,25.366,81.467,24.022z M17.881,24.022   c3.407,1.254,6.814,2.508,10.222,3.762c-2.374,2.203-4.401,4.775-5.985,7.599C20.705,31.596,19.293,27.81,17.881,24.022z    M21.167,50.5c0,0.096,6.955,3.002,8.031,3.5c-1.578,0-3.155,0-4.733,0c-0.88,0-1.76,0-2.64,0C20.828,54,21.167,51.303,21.167,50.5   z M21.937,57c2.971,0,5.942,0,8.913,0c-2.45,1.558-4.9,3.114-7.351,4.672C22.84,60.165,22.318,58.6,21.937,57z M49.167,78.5   c-6.908,0-13.66-2.614-18.776-7.254c-0.566-0.514-6.042-6.56-5.511-6.897c1.216-0.772,2.432-1.546,3.648-2.318   c2.682-1.705,6.198-3.24,8.493-5.454c2.232-2.151-3.672-3.96-4.637-4.406c-3.5-1.621-6.999-3.242-10.499-4.862   c-1.273-0.59,0.29-4.325,0.651-5.438c0.996-3.067,2.529-5.954,4.505-8.502c7.912-10.202,22.217-13.728,33.937-8.253   c4.679,2.186,8.713,5.675,11.561,9.982c1.365,2.065,2.456,4.312,3.231,6.665c0.267,0.812,1.866,5.669,1.055,6.042   c-2.754,1.265-5.508,2.531-8.262,3.797c-1.757,0.807-4.469,1.458-5.918,2.809c-1.423,1.423,0.152,2.316,1.355,3.082   c2.992,1.9,5.983,3.802,8.975,5.702c1.508,0.959,0.069,1.996-0.834,3.29c-1.685,2.415-3.749,4.563-6.095,6.341   C61.21,76.491,55.235,78.5,49.167,78.5z M75.117,60.999c-2.098-1.333-4.195-2.666-6.293-3.999c2.524,0,5.049,0,7.573,0   C76.071,58.362,75.645,59.701,75.117,60.999z M76.94,54c-2.139,0-4.278,0-6.417,0c2.211-1.016,4.421-2.032,6.632-3.048   C77.139,51.971,77.067,52.989,76.94,54z"></path></g></svg>