<svg xmlns="http://www.w3.org/2000/svg" xmlns:xlink="http://www.w3.org/1999/xlink" version="1.1" x="0px" y="0px" viewBox="0 0 100 100" enable-background="new 0 0 100 100" xml:space="preserve"><g><path fill="#000000" d="M50.5,89.8c-18.9,0-34.3-13.9-34.3-31c0-3.7,0.7-7.4,2.2-10.9l5.5-33.2c0.1-0.5,0.4-0.9,0.9-1.1   c0.5-0.2,1-0.1,1.5,0.2l19.8,14.4c3.7-0.4,7.3-0.3,10.9,0.3L76.1,14c0.4-0.3,1-0.4,1.5-0.2c0.5,0.2,0.8,0.7,0.9,1.2l4,32.6   c1.5,3.6,2.3,7.4,2.3,11.2C84.8,75.9,69.4,89.8,50.5,89.8z M26.5,17.6l-5.1,31c0,0.1-0.1,0.2-0.1,0.3c-1.3,3.2-2,6.5-2,9.9   c0,15.4,14,28,31.3,28c17.3,0,31.3-12.6,31.3-28c0-3.5-0.7-7-2.2-10.2c-0.1-0.1-0.1-0.3-0.1-0.4l-3.7-30.2L58.3,31.2   c-0.3,0.3-0.8,0.4-1.2,0.3c-3.7-0.7-7.5-0.8-11.2-0.3c-0.4,0-0.8,0-1.1-0.3L26.5,17.6z"></path></g><g><g><path fill="#000000" d="M39.2,58.1c-3.6,0-6.5-2.9-6.5-6.5c0-3.6,2.9-6.5,6.5-6.5c3.6,0,6.5,2.9,6.5,6.5    C45.6,55.2,42.7,58.1,39.2,58.1z M39.2,48.1c-1.9,0-3.5,1.6-3.5,3.5c0,1.9,1.6,3.5,3.5,3.5c1.9,0,3.5-1.6,3.5-3.5    C42.6,49.7,41.1,48.1,39.2,48.1z"></path></g><g><path fill="#000000" d="M61.8,58.1c-3.6,0-6.5-2.9-6.5-6.5c0-3.6,2.9-6.5,6.5-6.5c3.6,0,6.5,2.9,6.5,6.5    C68.3,55.2,65.4,58.1,61.8,58.1z M61.8,48.1c-1.9,0-3.5,1.6-3.5,3.5c0,1.9,1.6,3.5,3.5,3.5c1.9,0,3.5-1.6,3.5-3.5    C65.3,49.7,63.7,48.1,61.8,48.1z"></path></g></g><path fill="#000000" d="M64,68.5c-0.8,0-1.5,0.7-1.5,1.5c0,2.9-2.3,5.2-5.2,5.2S52,72.9,52,70v-2.4c2.4-0.4,4-1.7,4-3.4  c0-2.1-2.3-3.5-5.5-3.5S45,62.1,45,64.2c0,1.7,1.6,3,4,3.4V70c0,2.9-2.3,5.2-5.2,5.2s-5.2-2.3-5.2-5.2c0-0.8-0.7-1.5-1.5-1.5  s-1.5,0.7-1.5,1.5c0,4.5,3.7,8.2,8.2,8.2c2.8,0,5.2-1.4,6.7-3.5c1.5,2.1,3.9,3.5,6.7,3.5c4.5,0,8.2-3.7,8.2-8.2  C65.5,69.1,64.8,68.5,64,68.5z M50.5,63.6c1.2,0,2,0.3,2.3,0.5c-0.3,0.2-1.1,0.5-2.3,0.5s-2-0.3-2.3-0.5  C48.5,63.9,49.3,63.6,50.5,63.6z"></path></svg>