<svg xmlns="http://www.w3.org/2000/svg" xmlns:xlink="http://www.w3.org/1999/xlink" version="1.1" x="0px" y="0px" viewBox="0 0 100 100" style="enable-background:new 0 0 100 100;" xml:space="preserve"><style type="text/css">
	.st0{fill:#040000;}
</style><g><path class="st0" d="M62.2,40.6c0.2,0.7,0.3,1.8,0.3,2.9c0,2.1-0.4,3.8-0.9,3.8c-0.5,0-0.9-1.7-0.9-3.8c0-1,0.1-2,0.3-2.7   c-4.1,1.3-5.4,4.9-5.4,4.9c10.5,6.9,13.8-4.4,13.8-4.4C66.4,40.4,64.1,40.3,62.2,40.6z"></path><path class="st0" d="M52.4,53.7c0,0,0-0.1,0-0.1c0,0,0.1-0.1,0.1-0.1l2-2.5c0,0-5.5-0.1-5.7,0l2,2.5c0,0,0,0,0,0c0,0.1,0,0.2,0,0.2   C50.7,55.4,50,58,47,58.2c0,0,3.2,0.6,4.6-1.9c1.5,2.4,4.6,1.9,4.6,1.9C53.3,58,52.5,55.4,52.4,53.7z"></path><path class="st0" d="M42,40.8c0.2,0.7,0.3,1.7,0.3,2.7c0,2.1-0.4,3.8-0.9,3.8c-0.5,0-0.9-1.7-0.9-3.8c0-1.2,0.1-2.3,0.3-3   c-1.8-0.3-4.1-0.1-6.9,0.9c0,0,3.3,11.2,13.8,4.4C47.7,45.8,46.4,42,42,40.8z"></path><ellipse class="st0" cx="22.1" cy="63.3" rx="3" ry="2.4"></ellipse><circle class="st0" cx="18.7" cy="56.6" r="1.4"></circle><circle class="st0" cx="25.1" cy="56.6" r="1.4"></circle><circle class="st0" cx="29.2" cy="61" r="1.4"></circle><circle class="st0" cx="15.1" cy="60.5" r="1.4"></circle><path class="st0" d="M50,5C25.2,5,5,25.2,5,50c0,24.8,20.2,45,45,45c24.8,0,45-20.2,45-45C95,25.2,74.8,5,50,5z M69.1,86.5   l-1.5-10.7l-0.8,11.8C61.7,89.9,56,91.2,50,91.2c-5.6,0-11-1.1-15.9-3.2l2.6-10.9c0,0-3.1,5.3-7,8.7c-4.9-2.8-9.3-6.6-12.7-11.1   c-0.2-3-0.2-5.7-0.2-7.4c-0.6-0.6-1.2-1.2-1.5-1.9c-0.2-0.4-0.3-0.8-0.3-1.2c0,0,0,0-0.1,0c-2,0-3.6-1.7-3.6-3.8   c0-2.1,1.6-3.8,3.6-3.8c0,0,0,0,0,0c0.2-1.9,1.9-3.3,4-3.3c1.3,0,2.4,0.6,3.2,1.4c0.6-0.9,1.6-1.4,2.8-1.4c1.8,0,3.3,1.4,3.3,3.2   c0,0.6-0.2,1.1-0.4,1.5c0.4-0.2,0.8-0.2,1.2-0.2c1.7,0,3.1,1.4,3.1,3.1c0,1.7-1.4,3.1-3.1,3.1c-0.3,0-0.5,0-0.8-0.1   c-0.1,1.9-1.5,3.6-3.4,4.4c-0.4,3.5-1.6,15,3,8.7c3.2-4.3,5.8-13.1,7.1-17.6c-1.6-1.3-2.9-2.7-3.9-4C27.1,50.3,27,43,30.6,37.7   L28,26.2c-0.3-1.2,1-2.2,2.1-1.7l12.2,5.7c1.1-0.3,2.2-0.5,3.4-0.7l1.7,4.4c0.2,0.5,0.9,0.4,0.9-0.1l0.8-4.7c0.4,0,0.8,0,1.2,0   l1,5.1c0.1,0.5,0.9,0.5,1,0l1-5.1c0.5,0,1.1,0,1.6,0.1l1,4.1c0.1,0.5,0.8,0.5,0.9,0l0.9-3.7c1.2,0.2,2.3,0.4,3.3,0.6L73,24.5   c1.1-0.5,2.4,0.5,2.1,1.7l-2.5,11.2c3.4,5.1,3.4,12-0.4,17.5c-0.7,1-1.7,2.1-2.7,3.2c3.5,4.7,5.6,18,6.4,24   C73.8,83.7,71.5,85.2,69.1,86.5z"></path></g></svg>