<svg xmlns="http://www.w3.org/2000/svg" xmlns:xlink="http://www.w3.org/1999/xlink" version="1.1" x="0px" y="0px" viewBox="0 0 100 100" enable-background="new 0 0 100 100" xml:space="preserve"><g display="none"><path display="inline" fill="none" d="M88.669,11.717c-0.572-4.878-1.471-6.106-7.135-6.106c-4.823,0-13.823,10.836-16.781,14.396   c-0.513,0.617-0.823,0.99-0.957,1.125c-0.224,0.224-0.505,0.794-0.802,1.397c-0.632,1.285-1.349,2.74-2.408,3.017   c-0.426,0.109-0.856,0.018-1.283-0.275c-1.413-0.971-5.78-1.442-7.879-1.668l-0.456-0.049c-0.682-0.075-1.358-0.063-1.935,0   l-0.456,0.049c-2.098,0.226-6.466,0.696-7.879,1.668c-0.427,0.293-0.859,0.384-1.283,0.275c-1.06-0.277-1.776-1.733-2.409-3.017   c-0.297-0.603-0.578-1.173-0.802-1.397c-0.135-0.135-0.445-0.509-0.959-1.127c-2.958-3.56-11.957-14.394-16.779-14.394   c-5.663,0-6.563,1.228-7.134,6.106c-0.413,3.525,0.274,10.832,1,12.404c0.789,1.709,1.73,9.453,1.291,10.623   c-0.374,0.997-0.414,5.439,1.901,6.48l0.215,0.097l-0.039,0.233c-0.017,0.103-1.72,10.329-1.72,12.366l0,0.305   c-0.021,10.382,1.125,13.649,2.091,14.561c1.225,1.157,1.861,3.388,2.477,5.545c0.57,2.001,1.161,4.069,2.174,4.964   c1.723,1.52,5.381,4.822,7.566,6.793l1.285,1.16c1.013,0.912,8.816,3.495,11.879,4.461c-0.184-0.25-0.342-0.512-0.444-0.797   c-0.93-2.583-4.247-4.138-5.841-4.885c-0.306-0.144-0.547-0.257-0.692-0.339c-0.956-0.547-4.072-5.044-2.949-7.571   c0.958-2.155-1.729-4.952-4.078-6.01l0.251-0.557c2.525,1.136,5.54,4.217,4.386,6.815c-0.932,2.097,1.903,6.339,2.694,6.791   c0.136,0.079,0.361,0.183,0.648,0.317c1.352,0.633,3.886,1.822,5.341,3.751c0.959-0.342,4.832-1.697,7.398-2.179   c0.555-0.104,0.97-0.469,1.235-1.086c0.167-0.389,0.252-0.829,0.293-1.266c-0.034-0.408-0.03-0.826,0.005-1.235   c-0.041-0.466-0.12-0.83-0.184-0.967h0c-0.01-0.007-1.001-0.696-1.895-0.801c-1.057-0.123-4.573-3.145-4.823-4.145   c-0.108-0.432,0.12-1.032,0.409-1.789L43.186,75.7c0.011-0.003,0.028-0.006,0.04-0.009c0.404-1.059,0.883-2.357,0.4-3.254   c-1.005-1.865-1.52-4.135-1.575-6.936c-0.024-1.211-0.22-3.524-0.523-5.656c-1.329,1.865-3.431,3.012-5.629,3.012l-0.193-0.003   c-1.969-0.057-3.688-0.778-4.951-1.933c-4.197-3.346-4.639-8.378-4.643-8.435l-0.013-0.17l0.137-0.1   c1.137-0.833,2.603-1.246,4.177-1.342l0.01-0.012l0.129-0.007c0.056-0.003,0.114-0.001,0.171-0.003   c0.084-0.003,0.167-0.003,0.252-0.004c0.272-0.004,0.544,0.001,0.819,0.015c0.038,0.002,0.077,0.002,0.115,0.005   c2.479,0.149,5.019,1,6.919,2.256c0.006,0.004,0.012,0.008,0.018,0.012c0.269,0.179,0.526,0.364,0.767,0.558   c0.01,0.008,0.019,0.017,0.029,0.025c0.208,0.169,0.403,0.345,0.587,0.524c0.046,0.044,0.091,0.089,0.135,0.134   c0.189,0.193,0.368,0.389,0.526,0.592c0.061,0.078,0.12,0.179,0.177,0.293c0.034,0.066,0.067,0.145,0.101,0.222   c0.012,0.029,0.024,0.055,0.036,0.085c0.912,2.242,1.429,8.358,1.459,9.92c0.053,2.701,0.545,4.88,1.502,6.659   c0.551,1.022,0.178,2.289-0.227,3.388c1.847-0.348,4.94-0.617,6.311-0.617c1.266,0,4.183,0.279,5.81,0.605   c-0.404-1.096-0.771-2.358-0.222-3.377c0.957-1.778,1.449-3.955,1.502-6.658c0.031-1.562,0.547-7.677,1.458-9.919   c0.012-0.032,0.025-0.061,0.038-0.091c0.032-0.075,0.064-0.151,0.097-0.215c0.058-0.115,0.117-0.217,0.178-0.296   c0.158-0.204,0.338-0.401,0.528-0.594c0.043-0.044,0.087-0.087,0.132-0.13c0.179-0.174,0.368-0.345,0.57-0.509   c0.019-0.015,0.036-0.031,0.054-0.046c0.233-0.187,0.481-0.366,0.74-0.538c0.026-0.017,0.053-0.034,0.08-0.051   c0.249-0.163,0.508-0.319,0.777-0.467c0.016-0.009,0.032-0.018,0.048-0.027c0.583-0.318,1.209-0.6,1.862-0.841   c0.019-0.007,0.037-0.014,0.056-0.021c0.639-0.233,1.301-0.425,1.975-0.571c0.055-0.012,0.109-0.023,0.164-0.034   c0.279-0.057,0.559-0.107,0.839-0.148c0.059-0.009,0.119-0.019,0.178-0.027c0.307-0.041,0.613-0.071,0.92-0.091   c0.101-0.007,0.2-0.009,0.301-0.013c0.21-0.009,0.42-0.013,0.628-0.012c0.117,0.001,0.233,0.002,0.349,0.006   c0.045,0.002,0.091,0,0.136,0.002l0.129,0.007l0.009,0.01c1.574,0.096,3.041,0.509,4.177,1.344l0.138,0.1l-0.014,0.17   c-0.004,0.057-0.446,5.092-4.647,8.439c-1.263,1.153-2.979,1.872-4.946,1.929l-0.193,0.003c-2.198,0-4.3-1.147-5.629-3.012   c-0.303,2.131-0.499,4.444-0.522,5.656c-0.055,2.802-0.57,5.071-1.575,6.936c-0.485,0.899-0.002,2.2,0.403,3.26   c0.007,0.002,0.016,0.004,0.022,0.006l-0.009,0.029c0.002,0.006,0.005,0.013,0.007,0.019c0.29,0.76,0.519,1.362,0.41,1.794   c-0.25,0.999-3.765,4.021-4.823,4.145c-0.893,0.105-1.885,0.794-1.895,0.801h0c-0.064,0.137-0.143,0.501-0.184,0.966   c0.034,0.409,0.039,0.827,0.005,1.235c0.041,0.436,0.126,0.877,0.293,1.266c0.265,0.617,0.681,0.983,1.236,1.086   c2.565,0.482,6.436,1.837,7.397,2.179c1.455-1.928,3.989-3.117,5.342-3.75c0.286-0.134,0.511-0.239,0.648-0.317   c0.791-0.452,3.626-4.694,2.694-6.791c-1.155-2.597,1.86-5.679,4.386-6.815l0.25,0.557c-2.348,1.057-5.036,3.855-4.078,6.01   c1.124,2.529-1.993,7.024-2.95,7.571c-0.145,0.082-0.385,0.196-0.692,0.339c-1.594,0.747-4.911,2.301-5.841,4.885   c-0.103,0.285-0.262,0.547-0.448,0.798c3.061-0.965,10.867-3.548,11.882-4.462l1.289-1.163c2.184-1.972,5.841-5.272,7.562-6.79   c1.015-0.895,1.604-2.963,2.175-4.964c0.616-2.157,1.252-4.388,2.477-5.545c0.965-0.913,2.112-4.179,2.09-14.562V53.92   c0-2.038-1.703-12.263-1.721-12.366l-0.039-0.233l0.215-0.097c2.312-1.04,2.274-5.484,1.901-6.48   c-0.439-1.169,0.501-8.913,1.291-10.623C88.395,22.549,89.081,15.242,88.669,11.717z M14.211,10.881   c0.042-0.939,0.365-1.631,0.961-2.058c1.107-0.793,2.733-0.333,2.801-0.312l-0.171,0.587c-0.015-0.003-1.412-0.398-2.276,0.224   c-0.434,0.311-0.671,0.845-0.704,1.586c-0.138,3.094,1.395,13.563,3.26,15.055L17.7,26.441   C15.525,24.701,14.081,13.812,14.211,10.881z M35.451,29.633c-0.851,1.027-2.726,1.398-4.712,1.791   c-2.028,0.402-4.126,0.816-5.139,1.928c-0.747,0.819-1.537,1.657-2.306,2.471c-1.382,1.464-2.687,2.847-3.546,3.918   c-0.37,0.462-0.834,0.701-1.353,0.701c-0.078,0-0.156-0.005-0.236-0.016c-1.278-0.172-2.473-1.664-3.042-2.979l0.561-0.243   c0.606,1.398,1.683,2.498,2.563,2.616c0.401,0.056,0.738-0.097,1.03-0.461c0.874-1.09,2.188-2.482,3.579-3.955   c0.766-0.812,1.554-1.646,2.299-2.464c1.149-1.26,3.347-1.695,5.472-2.115c1.876-0.371,3.648-0.722,4.36-1.581   c1.21-1.462-0.773-5.247-1.639-6.582l0.513-0.333C33.991,22.54,37.192,27.529,35.451,29.633z M81.841,40.425   c-0.08,0.011-0.159,0.016-0.236,0.016c-0.519,0-0.983-0.239-1.353-0.701c-0.858-1.07-2.162-2.452-3.542-3.914   c-0.77-0.816-1.562-1.654-2.309-2.475c-1.014-1.112-3.111-1.526-5.139-1.927c-1.986-0.393-3.862-0.764-4.713-1.791   c-1.741-2.104,1.46-7.093,1.597-7.305l0.512,0.333c-0.865,1.336-2.847,5.122-1.638,6.582c0.711,0.86,2.483,1.21,4.36,1.581   c2.125,0.42,4.323,0.855,5.472,2.115c0.746,0.818,1.534,1.654,2.302,2.468c1.389,1.472,2.701,2.862,3.575,3.951   c0.292,0.364,0.633,0.515,1.03,0.461c0.88-0.118,1.957-1.218,2.563-2.616l0.561,0.243C84.313,38.76,83.119,40.253,81.841,40.425z    M82.3,26.441l-0.382-0.477c1.865-1.492,3.398-11.961,3.26-15.055c-0.033-0.741-0.27-1.275-0.703-1.586   c-0.863-0.62-2.263-0.227-2.276-0.224l-0.171-0.587c0.068-0.02,1.693-0.482,2.801,0.312c0.596,0.426,0.919,1.119,0.96,2.058   C85.919,13.813,84.474,24.701,82.3,26.441z"></path><path display="inline" fill="none" d="M47.686,81.083c0.92,0.108,1.865,0.7,2.113,0.866c0.061,0.019,0.131,0.065,0.2,0.172   c0.069-0.107,0.139-0.152,0.2-0.172c0.249-0.166,1.194-0.758,2.113-0.866c0.071-0.008,0.169-0.046,0.279-0.097   c-0.26-0.343-0.599-0.921-0.467-1.5c0.103-0.449,0.457-0.784,1.053-0.994c1.393-0.493,2.17-0.201,2.537,0.044   c0.487-0.486,0.843-0.913,0.899-1.139c0.054-0.213-0.111-0.69-0.299-1.19c-1.362-0.33-4.617-0.677-6.067-0.677   c-1.418,0-4.87,0.314-6.567,0.687c-0.186,0.496-0.348,0.969-0.296,1.179c0.056,0.226,0.412,0.654,0.899,1.139   c0.366-0.245,1.141-0.537,2.537-0.043c0.597,0.21,0.951,0.545,1.053,0.994c0.132,0.579-0.207,1.157-0.467,1.5   C47.517,81.037,47.615,81.075,47.686,81.083z"></path><path display="inline" fill="none" d="M46.618,79.069c-1.02-0.361-1.592-0.237-1.878-0.097c0.69,0.638,1.507,1.297,2.133,1.707   c0.214-0.268,0.487-0.707,0.406-1.056C47.226,79.392,47.003,79.206,46.618,79.069z"></path><path display="inline" fill="none" d="M58.418,90.705c0.121-0.336,0.279-0.654,0.463-0.957c-1.145-0.404-4.78-1.655-7.155-2.101   c-0.87-0.163-1.415-0.759-1.725-1.542c-0.31,0.782-0.855,1.378-1.725,1.542c-2.376,0.446-6.012,1.698-7.156,2.102   c0.183,0.303,0.341,0.621,0.462,0.957c0.61,1.693,3.206,2.713,5.277,3.271c2.047,0.551,4.21,0.551,6.256,0   C55.199,93.414,57.812,92.391,58.418,90.705z"></path><path display="inline" fill="none" d="M53.382,79.069c-0.386,0.137-0.608,0.323-0.661,0.554c-0.079,0.347,0.196,0.79,0.407,1.056   c0.626-0.41,1.442-1.069,2.132-1.707C54.976,78.834,54.403,78.708,53.382,79.069z"></path><path display="inline" fill="none" d="M39.947,54.825c-0.073-0.075-0.149-0.15-0.228-0.224c-0.074-0.071-0.153-0.139-0.231-0.208   c-2.08-1.805-5.626-3.041-8.776-2.932c-0.977,1.155-1.513,2.617-1.553,4.234c-0.048,1.942,0.746,3.647,2.079,4.832   c0.486,0.378,1.019,0.733,1.614,1.052c0.857,0.395,1.825,0.633,2.872,0.664l0.175,0.003c2.142,0,4.196-1.191,5.387-3.115   c-0.195-1.716-0.461-2.979-0.748-3.565c-0.044-0.083-0.087-0.164-0.132-0.221C40.268,55.167,40.11,54.995,39.947,54.825z"></path><path display="inline" fill="none" d="M64.101,62.246l0.176-0.003c1.047-0.03,2.014-0.269,2.872-0.664   c0.593-0.318,1.126-0.673,1.611-1.049c1.335-1.186,2.13-2.892,2.082-4.835c-0.041-1.618-0.577-3.08-1.554-4.234   c-3.136-0.101-6.72,1.14-8.801,2.955c-0.065,0.058-0.131,0.115-0.193,0.174c-0.084,0.078-0.165,0.158-0.243,0.238   c-0.162,0.168-0.319,0.339-0.456,0.516c-0.045,0.057-0.088,0.138-0.132,0.222c-0.287,0.587-0.553,1.849-0.747,3.565   C59.905,61.055,61.959,62.246,64.101,62.246z"></path><path display="inline" fill="none" d="M26.741,52.609c0.084,0.651,0.504,3.077,2.158,5.445c-0.243-0.74-0.372-1.536-0.351-2.374   c0.039-1.569,0.534-2.99,1.394-4.179C28.749,51.641,27.642,51.992,26.741,52.609z"></path><path display="inline" fill="none" d="M71.098,58.062c1.659-2.371,2.077-4.802,2.161-5.453c-0.901-0.617-2.007-0.968-3.201-1.108   c0.859,1.188,1.354,2.609,1.394,4.179C71.473,56.522,71.343,57.32,71.098,58.062z"></path><path display="inline" d="M81.759,39.819c-0.397,0.054-0.738-0.097-1.03-0.461c-0.874-1.089-2.186-2.479-3.575-3.951   c-0.767-0.813-1.556-1.649-2.302-2.468c-1.149-1.26-3.347-1.695-5.472-2.115c-1.877-0.371-3.649-0.722-4.36-1.581   c-1.209-1.46,0.773-5.246,1.638-6.582l-0.512-0.333c-0.138,0.211-3.339,5.201-1.597,7.305c0.851,1.027,2.726,1.399,4.713,1.791   c2.028,0.401,4.125,0.816,5.139,1.927c0.748,0.821,1.539,1.659,2.309,2.475c1.38,1.463,2.684,2.844,3.542,3.914   c0.371,0.462,0.834,0.701,1.353,0.701c0.077,0,0.156-0.005,0.236-0.016c1.278-0.172,2.472-1.665,3.042-2.979l-0.561-0.243   C83.717,38.601,82.639,39.701,81.759,39.819z"></path><path display="inline" d="M84.828,8.823c-1.108-0.794-2.733-0.332-2.801-0.312l0.171,0.587c0.014-0.004,1.413-0.396,2.276,0.224   c0.434,0.311,0.67,0.845,0.703,1.586c0.138,3.094-1.395,13.563-3.26,15.055l0.382,0.477c2.175-1.74,3.619-12.628,3.489-15.56   C85.747,9.942,85.424,9.25,84.828,8.823z"></path><path display="inline" d="M33.341,22.661c0.866,1.335,2.849,5.12,1.639,6.582c-0.711,0.86-2.484,1.21-4.36,1.581   c-2.125,0.42-4.323,0.855-5.472,2.115c-0.745,0.817-1.532,1.652-2.299,2.464c-1.391,1.473-2.704,2.865-3.579,3.955   c-0.292,0.365-0.629,0.517-1.03,0.461c-0.88-0.118-1.957-1.218-2.563-2.616l-0.561,0.243c0.569,1.314,1.764,2.806,3.042,2.979   c0.08,0.011,0.158,0.016,0.236,0.016c0.519,0,0.983-0.239,1.353-0.701c0.859-1.071,2.164-2.453,3.546-3.918   c0.769-0.815,1.559-1.652,2.306-2.471c1.013-1.112,3.111-1.526,5.139-1.928c1.986-0.393,3.862-0.764,4.712-1.791   c1.741-2.104-1.46-7.093-1.597-7.305L33.341,22.661z"></path><path display="inline" d="M18.082,25.964c-1.865-1.492-3.398-11.961-3.26-15.055c0.033-0.741,0.27-1.275,0.704-1.586   c0.864-0.621,2.261-0.227,2.276-0.224l0.171-0.587c-0.068-0.021-1.694-0.482-2.801,0.312c-0.596,0.426-0.919,1.119-0.961,2.058   c-0.13,2.931,1.314,13.82,3.489,15.56L18.082,25.964z"></path><path display="inline" d="M89.276,11.646C88.682,6.578,87.537,5,81.534,5c-5.11,0-14.248,11.001-17.251,14.616   c-0.467,0.562-0.804,0.968-0.919,1.083c-0.296,0.296-0.584,0.882-0.919,1.56c-0.546,1.109-1.225,2.489-2.015,2.695   c-0.246,0.064-0.504,0.004-0.781-0.187c-1.541-1.059-5.847-1.523-8.16-1.772l-0.456-0.049c-0.622-0.068-1.34-0.08-2.068,0   l-0.455,0.049c-2.313,0.249-6.619,0.713-8.16,1.773c-0.277,0.191-0.532,0.251-0.782,0.187c-0.789-0.206-1.468-1.587-2.015-2.696   c-0.334-0.678-0.622-1.263-0.918-1.559c-0.115-0.115-0.453-0.522-0.921-1.085C32.712,16,23.575,5,18.466,5   c-6.002,0-7.148,1.578-7.742,6.646c-0.392,3.35,0.237,10.965,1.052,12.731c0.75,1.626,1.606,9.268,1.274,10.153   c-0.373,0.995-0.587,5.729,2.009,7.146c-0.258,1.556-1.691,10.302-1.691,12.244l0,0.304c-0.018,8.51,0.75,13.559,2.282,15.006   c1.103,1.042,1.716,3.191,2.308,5.269c0.622,2.181,1.21,4.242,2.358,5.254c1.721,1.518,5.377,4.819,7.561,6.79l1.286,1.16   c1.39,1.251,12.615,4.748,13.212,4.931c1.193,0.923,2.876,1.543,4.325,1.933C47.774,94.855,48.88,95,49.985,95   c1.106,0,2.211-0.145,3.287-0.435c1.455-0.391,3.144-1.011,4.342-1.929c0.425-0.129,11.82-3.67,13.224-4.934l1.289-1.163   c2.184-1.971,5.838-5.27,7.558-6.787c1.148-1.013,1.735-3.073,2.358-5.254c0.593-2.079,1.206-4.227,2.307-5.269   c1.532-1.447,2.301-6.497,2.283-15.008l-0.001-0.302c0-1.942-1.434-10.688-1.692-12.244c2.594-1.416,2.382-6.151,2.01-7.146   c-0.332-0.884,0.523-8.525,1.274-10.152C89.039,22.612,89.668,14.997,89.276,11.646z M53.113,93.976   c-2.046,0.551-4.209,0.551-6.256,0c-2.071-0.558-4.667-1.578-5.277-3.271c-0.121-0.336-0.279-0.654-0.462-0.957   c1.144-0.404,4.781-1.655,7.156-2.102c0.87-0.163,1.415-0.759,1.725-1.542c0.31,0.782,0.856,1.378,1.725,1.542   c2.375,0.446,6.01,1.697,7.155,2.101c-0.184,0.303-0.342,0.621-0.463,0.957C57.812,92.391,55.199,93.414,53.113,93.976z    M46.872,80.679c-0.626-0.41-1.442-1.069-2.133-1.707c0.286-0.139,0.858-0.263,1.878,0.097c0.386,0.137,0.608,0.323,0.661,0.554   C47.359,79.972,47.086,80.411,46.872,80.679z M47.875,79.487c-0.102-0.449-0.457-0.784-1.053-0.994   c-1.396-0.494-2.172-0.202-2.537,0.043c-0.487-0.486-0.842-0.913-0.899-1.139c-0.053-0.21,0.109-0.683,0.296-1.179   c1.697-0.373,5.149-0.687,6.567-0.687c1.449,0,4.704,0.347,6.067,0.677c0.188,0.5,0.353,0.978,0.299,1.19   c-0.056,0.226-0.412,0.654-0.899,1.139c-0.367-0.245-1.144-0.538-2.537-0.044c-0.597,0.21-0.951,0.545-1.053,0.994   c-0.132,0.579,0.207,1.157,0.467,1.5c-0.109,0.05-0.208,0.089-0.279,0.097c-0.919,0.108-1.864,0.7-2.113,0.866   c-0.061,0.019-0.131,0.065-0.2,0.172c-0.069-0.107-0.139-0.152-0.2-0.172c-0.249-0.166-1.194-0.758-2.113-0.866   c-0.071-0.008-0.169-0.046-0.278-0.097C47.668,80.644,48.007,80.066,47.875,79.487z M53.128,80.679   c-0.211-0.266-0.486-0.708-0.407-1.056c0.053-0.231,0.275-0.417,0.661-0.554c1.021-0.361,1.594-0.235,1.878-0.097   C54.57,79.609,53.754,80.268,53.128,80.679z M86.378,34.745c0.372,0.997,0.411,5.44-1.901,6.48l-0.215,0.097l0.039,0.233   c0.017,0.103,1.721,10.328,1.721,12.366v0.304c0.021,10.382-1.125,13.649-2.09,14.562c-1.225,1.157-1.861,3.388-2.477,5.545   c-0.57,2.001-1.16,4.069-2.175,4.964c-1.721,1.519-5.377,4.819-7.562,6.79l-1.289,1.163c-1.015,0.914-8.821,3.497-11.882,4.462   c0.185-0.251,0.345-0.513,0.448-0.798c0.93-2.584,4.247-4.138,5.841-4.885c0.306-0.144,0.546-0.257,0.692-0.339   c0.956-0.547,4.074-5.043,2.95-7.571c-0.958-2.155,1.729-4.952,4.078-6.01l-0.25-0.557c-2.526,1.136-5.541,4.217-4.386,6.815   c0.932,2.097-1.902,6.339-2.694,6.791c-0.137,0.079-0.362,0.183-0.648,0.317c-1.352,0.633-3.887,1.822-5.342,3.75   c-0.96-0.343-4.832-1.697-7.397-2.179c-0.555-0.104-0.971-0.469-1.236-1.086c-0.167-0.389-0.252-0.83-0.293-1.266   c0.034-0.408,0.029-0.826-0.005-1.235c0.041-0.466,0.12-0.83,0.184-0.966h0c0.01-0.007,1.002-0.696,1.895-0.801   c1.057-0.123,4.572-3.145,4.823-4.145c0.109-0.433-0.12-1.034-0.41-1.794c-0.002-0.006-0.005-0.013-0.007-0.019l0.009-0.029   c-0.007-0.002-0.016-0.004-0.022-0.006c-0.405-1.061-0.887-2.362-0.403-3.26c1.005-1.865,1.52-4.134,1.575-6.936   c0.024-1.212,0.219-3.525,0.522-5.656c1.329,1.865,3.431,3.012,5.629,3.012l0.193-0.003c1.967-0.057,3.684-0.776,4.946-1.929   c4.201-3.346,4.643-8.382,4.647-8.439l0.014-0.17l-0.138-0.1c-1.137-0.835-2.603-1.248-4.177-1.344l-0.009-0.01l-0.129-0.007   c-0.045-0.002-0.091-0.001-0.136-0.002c-0.116-0.004-0.232-0.005-0.349-0.006c-0.209-0.002-0.418,0.003-0.628,0.012   c-0.1,0.004-0.2,0.006-0.301,0.013c-0.306,0.02-0.613,0.051-0.92,0.091c-0.059,0.008-0.119,0.019-0.178,0.027   c-0.281,0.041-0.561,0.09-0.839,0.148c-0.055,0.011-0.11,0.022-0.164,0.034c-0.674,0.146-1.337,0.339-1.975,0.571   c-0.019,0.007-0.037,0.014-0.056,0.021c-0.653,0.241-1.279,0.522-1.862,0.841c-0.016,0.009-0.032,0.018-0.048,0.027   c-0.269,0.148-0.528,0.304-0.777,0.467c-0.026,0.017-0.054,0.034-0.08,0.051c-0.259,0.173-0.507,0.351-0.74,0.538   c-0.019,0.015-0.036,0.031-0.054,0.046c-0.202,0.165-0.391,0.335-0.57,0.509c-0.044,0.043-0.089,0.086-0.132,0.13   c-0.189,0.194-0.37,0.391-0.528,0.594c-0.061,0.079-0.12,0.181-0.178,0.296c-0.033,0.064-0.065,0.141-0.097,0.215   c-0.013,0.031-0.026,0.059-0.038,0.091c-0.912,2.242-1.428,8.356-1.458,9.919c-0.053,2.702-0.545,4.88-1.502,6.658   c-0.549,1.019-0.182,2.281,0.222,3.377c-1.627-0.326-4.544-0.605-5.81-0.605c-1.371,0-4.464,0.269-6.311,0.617   c0.406-1.099,0.778-2.366,0.227-3.388c-0.957-1.779-1.449-3.957-1.502-6.659c-0.031-1.562-0.547-7.678-1.459-9.92   c-0.012-0.03-0.024-0.056-0.036-0.085c-0.033-0.077-0.066-0.156-0.101-0.222c-0.057-0.113-0.116-0.214-0.177-0.293   c-0.158-0.203-0.337-0.399-0.526-0.592c-0.044-0.045-0.089-0.089-0.135-0.134c-0.184-0.18-0.379-0.355-0.587-0.524   c-0.01-0.008-0.019-0.017-0.029-0.025c-0.241-0.194-0.498-0.379-0.767-0.558c-0.006-0.004-0.012-0.008-0.018-0.012   c-1.9-1.257-4.44-2.107-6.919-2.256c-0.039-0.002-0.077-0.003-0.115-0.005c-0.274-0.014-0.547-0.019-0.819-0.015   c-0.084,0.001-0.168,0.002-0.252,0.004c-0.057,0.002-0.114,0-0.171,0.003l-0.129,0.007l-0.01,0.012   c-1.573,0.096-3.04,0.509-4.177,1.342l-0.137,0.1l0.013,0.17c0.005,0.057,0.446,5.088,4.643,8.435   c1.263,1.155,2.981,1.876,4.951,1.933l0.193,0.003c2.198,0,4.3-1.147,5.629-3.012c0.303,2.131,0.499,4.445,0.523,5.656   c0.055,2.801,0.57,5.071,1.575,6.936c0.483,0.897,0.003,2.195-0.4,3.254c-0.012,0.003-0.028,0.006-0.04,0.009l0.015,0.057   c-0.289,0.757-0.517,1.357-0.409,1.789c0.25,0.999,3.766,4.021,4.823,4.145c0.893,0.105,1.885,0.794,1.895,0.801h0   c0.064,0.137,0.143,0.501,0.184,0.967c-0.034,0.409-0.039,0.827-0.005,1.235c-0.041,0.436-0.126,0.877-0.293,1.266   c-0.265,0.617-0.68,0.983-1.235,1.086c-2.566,0.482-6.439,1.837-7.398,2.179c-1.454-1.928-3.989-3.117-5.341-3.751   c-0.287-0.134-0.512-0.239-0.648-0.317c-0.791-0.452-3.626-4.694-2.694-6.791c1.155-2.597-1.86-5.679-4.386-6.815l-0.251,0.557   c2.349,1.057,5.036,3.855,4.078,6.01c-1.123,2.528,1.993,7.024,2.949,7.571c0.145,0.082,0.386,0.196,0.692,0.339   c1.594,0.747,4.911,2.302,5.841,4.885c0.103,0.285,0.261,0.546,0.444,0.797c-3.063-0.966-10.866-3.549-11.879-4.461l-1.285-1.16   c-2.186-1.972-5.843-5.274-7.566-6.793c-1.014-0.895-1.604-2.963-2.174-4.964c-0.615-2.157-1.252-4.388-2.477-5.545   c-0.966-0.912-2.112-4.178-2.091-14.561l0-0.305c0-2.037,1.703-12.263,1.72-12.366l0.039-0.233l-0.215-0.097   c-2.314-1.041-2.274-5.484-1.901-6.48c0.439-1.17-0.502-8.915-1.291-10.623c-0.726-1.573-1.412-8.88-1-12.404   c0.572-4.878,1.471-6.106,7.134-6.106c4.822,0,13.822,10.834,16.779,14.394c0.514,0.618,0.823,0.992,0.959,1.127   c0.224,0.224,0.505,0.793,0.802,1.397c0.632,1.285,1.349,2.741,2.409,3.017c0.424,0.109,0.856,0.018,1.283-0.275   c1.413-0.971,5.78-1.442,7.879-1.668l0.456-0.049c0.578-0.063,1.254-0.075,1.935,0l0.456,0.049   c2.099,0.226,6.466,0.696,7.879,1.668c0.427,0.293,0.857,0.384,1.283,0.275c1.059-0.277,1.776-1.732,2.408-3.017   c0.297-0.603,0.578-1.173,0.802-1.397c0.135-0.135,0.444-0.508,0.957-1.125c2.957-3.56,11.958-14.396,16.781-14.396   c5.663,0,6.563,1.228,7.135,6.106c0.412,3.525-0.274,10.832-1,12.404C86.88,25.832,85.939,33.576,86.378,34.745z M59.594,55.344   c0.137-0.177,0.294-0.347,0.456-0.516c0.078-0.08,0.159-0.16,0.243-0.238c0.062-0.059,0.128-0.116,0.193-0.174   c2.081-1.815,5.665-3.056,8.801-2.955c0.977,1.154,1.513,2.616,1.554,4.234c0.048,1.943-0.747,3.649-2.082,4.835   c-0.485,0.376-1.018,0.731-1.611,1.049c-0.857,0.395-1.825,0.633-2.872,0.664l-0.176,0.003c-2.142,0-4.196-1.191-5.386-3.115   c0.194-1.716,0.46-2.978,0.747-3.565C59.505,55.483,59.549,55.402,59.594,55.344z M70.058,51.501c1.194,0.14,2.3,0.491,3.201,1.108   c-0.083,0.652-0.501,3.082-2.161,5.453c0.245-0.742,0.375-1.541,0.354-2.382C71.412,54.11,70.917,52.689,70.058,51.501z    M41.286,59.131c-1.191,1.924-3.245,3.115-5.387,3.115l-0.175-0.003c-1.047-0.03-2.014-0.269-2.872-0.664   c-0.594-0.319-1.128-0.674-1.614-1.052c-1.333-1.186-2.127-2.89-2.079-4.832c0.04-1.617,0.577-3.079,1.553-4.234   c3.15-0.109,6.696,1.127,8.776,2.932c0.078,0.069,0.157,0.137,0.231,0.208c0.079,0.074,0.154,0.148,0.228,0.224   c0.163,0.169,0.321,0.341,0.459,0.519c0.044,0.057,0.088,0.138,0.132,0.221C40.825,56.152,41.091,57.415,41.286,59.131z    M28.899,58.054c-1.653-2.368-2.073-4.794-2.158-5.445c0.901-0.617,2.008-0.968,3.201-1.108c-0.86,1.189-1.355,2.61-1.394,4.179   C28.527,56.519,28.656,57.314,28.899,58.054z"></path></g><g><path d="M17.159,11.05c0.148,0.276,0.493,0.381,0.768,0.23c0.276-0.148,0.379-0.492,0.23-0.768c-0.509-0.945-1.873-1.948-3.2-1.915   c-2.182,0.051-2.38,2.838-2.524,4.872c-0.04,0.556-0.077,1.082-0.146,1.471c-0.47,2.645-0.542,4.657,0.424,7.708   c0.077,0.242,0.3,0.396,0.541,0.396c0.057,0,0.114-0.008,0.171-0.026c0.299-0.095,0.464-0.413,0.37-0.711   c-0.9-2.843-0.837-4.645-0.389-7.167c0.08-0.448,0.119-1.002,0.161-1.588c0.147-2.075,0.356-3.794,1.419-3.819   C15.782,9.708,16.815,10.412,17.159,11.05z"></path><path d="M32.359,24.433c-0.269,0.16-0.358,0.507-0.199,0.777c0.45,0.759,0.72,1.563-0.335,2.293   c-1.128,0.781-2.872,1.717-4.41,2.542c-0.648,0.348-1.273,0.683-1.826,0.991c-0.723,0.404-1.205,1.067-1.714,1.769   c-0.867,1.193-1.85,2.546-4.38,3.026c-1.515,0.29-1.909-0.22-1.914-0.22c0,0,0,0,0,0c-0.139-0.28-0.478-0.392-0.76-0.254   c-0.28,0.14-0.394,0.48-0.254,0.761c0.056,0.111,0.521,0.935,2.083,0.935c0.308,0,0.658-0.032,1.057-0.107   c2.972-0.565,4.144-2.178,5.086-3.474c0.453-0.624,0.844-1.163,1.35-1.445c0.548-0.306,1.167-0.638,1.809-0.982   c1.565-0.839,3.338-1.791,4.52-2.608c0.944-0.654,1.826-1.844,0.665-3.804C32.977,24.362,32.63,24.274,32.359,24.433z"></path><path d="M91.233,13.293c-0.053-0.845-0.107-1.582-0.144-2.06c-0.36-4.772-2.873-6.125-4.917-6.419   c-4.09-0.588-8.381,2.558-10.037,3.938c-0.893,0.742-4.282,4.485-6.309,6.721c-0.489,0.54-0.894,0.986-1.153,1.27   c-1.061,1.156-3.715,4.669-4.56,5.794C61.049,21.532,51.362,21.277,50,21.277s-11.049,0.255-14.114,1.259   c-0.845-1.125-3.5-4.638-4.56-5.794c-0.263-0.286-0.673-0.739-1.169-1.286c-2.021-2.23-5.403-5.963-6.292-6.704   c-1.657-1.38-5.954-4.524-10.037-3.938c-2.046,0.294-4.56,1.647-4.922,6.487c-0.031,0.411-0.086,1.147-0.139,1.992   c-0.166,2.646,0.055,5.294,0.657,7.872c1.57,6.721,2.422,10.529,2.533,11.32c0.094,0.662,0.148,1.559,0.206,2.509   c0.122,2.008,0.248,4.083,0.788,5.01c0.078,0.134,0.156,0.273,0.235,0.417c0.067,0.121,0.137,0.245,0.208,0.371   c-0.067,1.074-0.459,7.283-0.656,9.027c-0.208,1.844-0.159,7.8,1.2,11.591c0.696,1.943,1.929,3.868,3.636,6.531   c0.874,1.364,1.864,2.91,2.989,4.78c0.088,0.131,2.159,3.216,3.391,4.53c0.905,0.966,5.567,4.49,7.386,5.271   c2.097,0.901,6.437,2.726,7.856,3.174c1.155,0.366,2.444,0.503,3.003,0.548c0.106,0.155,0.206,0.287,0.295,0.382   c0.463,0.497,1.497,0.708,3.499,0.968c1.162,0.149,1.92,0.104,2.724,0.054c0.792-0.047,1.777-0.047,2.57,0   c0.394,0.024,0.776,0.048,1.201,0.048c0.442,0,0.93-0.025,1.522-0.102c2-0.26,3.034-0.471,3.498-0.968   c0.089-0.095,0.189-0.227,0.295-0.382c0.56-0.045,1.849-0.182,3.002-0.547c1.412-0.446,5.604-2.205,7.857-3.175   c1.82-0.781,6.481-4.305,7.386-5.271c1.231-1.314,3.304-4.399,3.406-4.554c1.111-1.849,2.102-3.395,2.976-4.76   c1.706-2.662,2.938-4.586,3.635-6.528c1.357-3.791,1.407-9.747,1.199-11.591c-0.197-1.744-0.589-7.952-0.656-9.027   c0.072-0.125,0.141-0.249,0.208-0.37c0.079-0.143,0.157-0.284,0.235-0.418c0.541-0.926,0.667-3.002,0.788-5.01   c0.058-0.95,0.112-1.848,0.206-2.509c0.111-0.791,0.964-4.6,2.533-11.32C91.179,18.588,91.399,15.939,91.233,13.293z    M53.862,86.469c-1.055,0.136-1.729,0.096-2.508,0.048c-0.835-0.053-1.874-0.053-2.709,0c-0.779,0.048-1.453,0.089-2.508-0.048   c-0.697-0.09-2.548-0.33-2.814-0.616c-0.545-0.585-1.578-2.805-1.921-3.9c0.307,0.008,0.618,0.014,0.937,0.014   c2.703,0,5.678-0.274,6.091-0.459c0.49-0.218,1.119-0.512,1.569-1.115c0.45,0.603,1.079,0.897,1.569,1.115   c0.414,0.185,3.389,0.459,6.092,0.459c0.319,0,0.63-0.005,0.937-0.014c-0.343,1.096-1.375,3.316-1.921,3.9   C56.41,86.139,54.56,86.379,53.862,86.469z M48.972,75.855c-0.021-0.142-0.028-0.33-0.028-0.517   c-0.002-0.465-0.005-0.992-0.232-1.442c-0.406-0.808-1.688-1.279-2.261-1.306c-0.121-0.001-0.449-0.01-1.826,0.733   c-0.153-0.071-0.304-0.151-0.453-0.255c-0.307-0.216-0.429-0.847-0.469-1.527c2.96-1.919,9.678-1.921,12.593-0.002   c-0.04,0.68-0.162,1.312-0.469,1.529c-0.142,0.1-0.287,0.177-0.434,0.247c-0.414-0.254-1.03-0.617-1.304-0.701   c-0.75-0.224-2.251,0.338-2.666,1.163c-0.221,0.436-0.271,0.999-0.314,1.497c-0.019,0.215-0.042,0.417-0.072,0.571   c-0.456,0.484-0.782,0.933-1.037,1.358C49.747,76.781,49.423,76.335,48.972,75.855z M47.786,74.777   c-0.615-0.482-1.171-0.752-1.678-0.935c0.139-0.064,0.246-0.11,0.289-0.12c0.308,0.015,1.141,0.365,1.301,0.683   C47.746,74.5,47.771,74.633,47.786,74.777z M53.984,73.807c-0.502,0.174-1.056,0.436-1.665,0.893   c0.028-0.161,0.064-0.309,0.117-0.414c0.155-0.311,1.071-0.65,1.323-0.588C53.801,73.712,53.883,73.753,53.984,73.807z    M89.474,20.907c-1.6,6.848-2.435,10.583-2.553,11.42c-0.1,0.707-0.155,1.625-0.214,2.599c-0.104,1.7-0.231,3.814-0.636,4.507   c-0.082,0.141-0.165,0.289-0.248,0.439c-0.484,0.871-0.984,1.771-1.824,1.848c-0.313,0.028-0.542,0.304-0.514,0.615   c0.026,0.295,0.273,0.516,0.563,0.516c0.018,0,0.034,0,0.052-0.002c0.601-0.054,1.069-0.314,1.458-0.666   c0.144,2.242,0.418,6.356,0.577,7.764c0.199,1.768,0.155,7.467-1.14,11.082c-0.653,1.821-1.856,3.7-3.521,6.3   c-0.879,1.371-1.874,2.925-2.979,4.764c-0.021,0.031-2.107,3.139-3.277,4.386c-0.814,0.87-5.369,4.302-7.005,5.005   c-2.081,0.895-6.38,2.7-7.752,3.135c-0.655,0.207-1.377,0.334-1.951,0.41c0.546-1.053,1.081-2.329,1.266-3.132   c0.188-0.014,0.372-0.03,0.545-0.05c3.257-0.366,6.611-2.591,7.93-3.715c1.001-0.854,0.751-2.01,0.461-3.347   c-0.236-1.088-0.529-2.442-0.27-4.08c0.451-2.83,1.832-3.878,2.841-4.644c0.225-0.17,0.429-0.326,0.602-0.479   c0.283-0.253,0.672-0.577,1.13-0.961c1.255-1.049,2.973-2.485,4.564-4.107c0.22-0.224,0.216-0.583-0.007-0.802   c-0.224-0.22-0.584-0.216-0.802,0.007c-1.553,1.583-3.246,2.999-4.482,4.033c-0.47,0.393-0.867,0.725-1.157,0.983   c-0.153,0.136-0.335,0.272-0.533,0.423c-1.096,0.832-2.752,2.089-3.274,5.369c-0.294,1.848,0.024,3.317,0.28,4.499   c0.269,1.234,0.376,1.846-0.089,2.242c-1.426,1.217-4.552,3.14-7.32,3.451c-2.894,0.327-7.76-0.133-8.164-0.246   c-0.88-0.393-1.43-0.699-1.462-1.904c0.258-0.581,0.614-1.214,1.292-1.938c0.025-0.017,0.037-0.045,0.06-0.066   c0.245-0.256,0.53-0.523,0.868-0.805c0.769-0.641,1.397-0.835,2.063-1.041c0.527-0.163,1.073-0.331,1.629-0.723   c1.138-0.801,1.001-3.032,0.919-4.365c-0.017-0.272-0.034-0.481-0.024-0.585c0.069-0.627-0.109-3.374-0.271-5.568   c-0.034-0.469,0.011-0.937,0.135-1.391c0.368-1.353,1.263-4.698,1.618-6.574c0.051-0.269,0.13-0.548,0.218-0.829   c1.145,1.88,3.191,3.085,5.449,3.085c0.909,0,1.772-0.193,2.556-0.536c0.003-0.001,0.005,0,0.008-0.001   c4.265-1.598,7.369-7.065,7.499-7.297c0.084-0.148,0.096-0.326,0.033-0.484c-0.062-0.158-0.191-0.28-0.354-0.333   c-0.212-0.068-0.503-0.192-0.859-0.341c-1.463-0.614-3.904-1.633-6.536-1.541c-0.003,0-0.006,0-0.01,0   c-0.375,0.013-0.753,0.049-1.134,0.112c-0.031,0.005-0.062,0.012-0.093,0.017c-0.349,0.062-0.699,0.141-1.049,0.253   c-0.425,0.136-0.834,0.312-1.236,0.507c-0.116,0.056-0.23,0.115-0.343,0.175c-0.313,0.168-0.618,0.352-0.913,0.553   c-0.068,0.046-0.14,0.087-0.207,0.135c-0.336,0.242-0.655,0.509-0.962,0.793c-0.094,0.087-0.181,0.178-0.271,0.268   c-0.207,0.206-0.406,0.419-0.597,0.643c-0.099,0.116-0.196,0.23-0.289,0.348c-0.152,0.194-0.294,0.397-0.433,0.603   c-0.099,0.145-0.203,0.288-0.294,0.435c-0.054,0.089-0.1,0.185-0.152,0.276c-0.571,0.994-0.969,2.013-1.146,2.948   c-0.349,1.836-1.234,5.148-1.599,6.486c-0.158,0.579-0.216,1.175-0.172,1.772c0.218,2.946,0.321,4.95,0.275,5.359   c-0.018,0.158-0.006,0.376,0.02,0.78c0.009,0.14,0.019,0.329,0.028,0.533c-3.284-1.663-9.279-1.661-12.591,0.006   c0.009-0.208,0.02-0.399,0.028-0.541c0.025-0.402,0.037-0.62,0.02-0.777c-0.045-0.407,0.06-2.461,0.274-5.36   c0.044-0.597-0.013-1.193-0.171-1.772c-0.364-1.338-1.25-4.65-1.598-6.486c-0.18-0.951-0.587-1.99-1.174-2.999   c-0.042-0.073-0.078-0.15-0.122-0.221c-0.094-0.153-0.201-0.3-0.304-0.45c-0.136-0.201-0.275-0.399-0.423-0.588   c-0.095-0.121-0.194-0.238-0.295-0.356c-0.189-0.221-0.385-0.432-0.59-0.635c-0.092-0.092-0.181-0.185-0.277-0.274   c-0.306-0.283-0.625-0.55-0.96-0.791c-0.066-0.048-0.138-0.088-0.206-0.134c-0.295-0.202-0.6-0.386-0.914-0.554   c-0.113-0.06-0.226-0.118-0.342-0.175c-0.402-0.195-0.811-0.371-1.236-0.507c-0.348-0.111-0.697-0.19-1.044-0.252   c-0.033-0.006-0.066-0.013-0.099-0.019c-0.38-0.063-0.758-0.098-1.132-0.112c-0.003,0-0.006,0-0.008,0   c-2.632-0.092-5.074,0.928-6.536,1.542c-0.357,0.149-0.648,0.273-0.86,0.341c-0.162,0.052-0.292,0.174-0.354,0.333   s-0.05,0.336,0.033,0.484c0.13,0.232,3.234,5.699,7.5,7.297c0.002,0.001,0.005,0,0.007,0.001c0.784,0.343,1.647,0.536,2.556,0.536   c2.258,0,4.304-1.205,5.449-3.085c0.088,0.281,0.167,0.561,0.218,0.829c0.356,1.876,1.25,5.222,1.619,6.574   c0.124,0.454,0.169,0.922,0.134,1.39c-0.162,2.192-0.341,4.938-0.271,5.569c0.01,0.103-0.007,0.312-0.024,0.583   c-0.082,1.334-0.22,3.565,0.918,4.367c0.556,0.392,1.101,0.56,1.628,0.723c0.666,0.206,1.295,0.4,2.064,1.041   c0.337,0.281,0.621,0.547,0.866,0.803c0.023,0.021,0.035,0.05,0.061,0.067c0.678,0.724,1.034,1.357,1.292,1.938   c-0.032,1.205-0.581,1.512-1.427,1.891c-0.439,0.129-5.307,0.586-8.199,0.26c-2.767-0.312-5.894-2.234-7.32-3.451   c-0.465-0.396-0.356-1.007-0.089-2.242c0.256-1.181,0.575-2.65,0.281-4.499c-0.522-3.28-2.179-4.537-3.275-5.369   c-0.198-0.15-0.38-0.287-0.532-0.423c-0.291-0.26-0.691-0.594-1.163-0.989c-1.235-1.032-2.926-2.447-4.476-4.026   c-0.218-0.224-0.578-0.228-0.802-0.008c-0.224,0.219-0.227,0.578-0.008,0.801c1.589,1.62,3.305,3.056,4.559,4.104   c0.461,0.386,0.852,0.712,1.136,0.966c0.173,0.153,0.377,0.31,0.602,0.479c1.008,0.766,2.39,1.813,2.84,4.644   c0.261,1.639-0.033,2.993-0.269,4.081c-0.29,1.337-0.54,2.491,0.461,3.346c1.318,1.124,4.673,3.349,7.929,3.715   c0.173,0.019,0.357,0.035,0.545,0.05c0.185,0.803,0.72,2.079,1.266,3.132c-0.573-0.076-1.295-0.203-1.952-0.411   c-1.377-0.435-5.672-2.24-7.751-3.134c-1.634-0.702-6.19-4.134-7.006-5.005c-1.168-1.247-3.255-4.354-3.261-4.362   c-1.119-1.861-2.114-3.414-2.991-4.784c-1.667-2.601-2.87-4.48-3.523-6.303c-1.295-3.614-1.34-9.313-1.14-11.082   c0.159-1.408,0.433-5.521,0.577-7.764c0.389,0.352,0.857,0.612,1.458,0.666c0.306,0.034,0.587-0.202,0.615-0.514   c0.028-0.312-0.202-0.587-0.514-0.615c-0.84-0.076-1.341-0.978-1.825-1.849c-0.083-0.15-0.165-0.297-0.247-0.437   c-0.404-0.693-0.533-2.808-0.636-4.507c-0.059-0.973-0.115-1.892-0.214-2.599c-0.118-0.835-0.953-4.571-2.552-11.42   c-0.577-2.47-0.789-5.008-0.629-7.543c0.052-0.839,0.107-1.57,0.143-2.044c0.242-3.23,1.57-5.042,3.948-5.384   c3.748-0.538,7.948,2.687,9.15,3.687c0.829,0.689,4.309,4.53,6.178,6.594c0.499,0.55,0.91,1.004,1.174,1.292   c1.204,1.312,4.709,6.002,4.745,6.05c0.161,0.216,0.454,0.29,0.696,0.173c1.955-0.923,11.351-1.321,14.068-1.321   c2.717,0,12.113,0.397,14.068,1.321c0.245,0.115,0.536,0.043,0.696-0.173c0.035-0.047,3.541-4.738,4.745-6.05   c0.261-0.285,0.667-0.732,1.158-1.275c1.874-2.069,5.362-5.919,6.192-6.61c1.203-1.001,5.411-4.229,9.15-3.687   c2.376,0.342,3.705,2.153,3.953,5.451c0.031,0.408,0.086,1.139,0.139,1.978C90.261,15.9,90.05,18.438,89.474,20.907z    M61.424,50.871c0.132-0.133,0.279-0.263,0.425-0.394c0.157-0.138,0.319-0.272,0.487-0.401c0.126-0.097,0.252-0.193,0.387-0.286   c0.225-0.154,0.462-0.293,0.705-0.427c0.111-0.061,0.213-0.128,0.329-0.185c0.363-0.18,0.743-0.339,1.144-0.469   c0.011-0.004,0.02-0.009,0.031-0.012c0.004-0.001,0.009-0.002,0.013-0.003c0.344-0.109,0.691-0.181,1.038-0.235   c0.128-0.02,0.261-0.028,0.391-0.041c0.223-0.023,0.446-0.04,0.669-0.044c0.167-0.003,0.337,0.002,0.508,0.009   c0.183,0.007,0.365,0.018,0.546,0.035c0.204,0.02,0.412,0.047,0.622,0.08c0.082,0.013,0.163,0.027,0.244,0.042   c0.543,0.848,0.83,1.821,0.83,2.829c0,2.903-2.362,5.266-5.267,5.266c-2.152,0-4.085-1.319-4.883-3.307   c0.286-0.557,0.79-1.376,1.54-2.194C61.261,51.045,61.339,50.956,61.424,50.871z M70.398,48.871   c1.012,0.299,1.902,0.669,2.569,0.949c0.102,0.042,0.197,0.083,0.289,0.121c-0.473,0.745-1.413,2.117-2.652,3.417   c0.206-0.628,0.321-1.296,0.321-1.991C70.925,50.499,70.734,49.658,70.398,48.871z M40.359,53.326   c-0.797,1.987-2.731,3.307-4.883,3.307c-2.904,0-5.266-2.362-5.266-5.266c0-1.008,0.286-1.981,0.829-2.829   c0.081-0.015,0.161-0.029,0.242-0.042c0.213-0.034,0.423-0.061,0.63-0.081c0.175-0.017,0.351-0.027,0.528-0.034   c0.177-0.007,0.354-0.012,0.526-0.009c0.216,0.004,0.433,0.022,0.651,0.043c0.135,0.013,0.273,0.022,0.405,0.043   c0.35,0.054,0.701,0.127,1.048,0.238c0.413,0.132,0.803,0.297,1.176,0.482c0.112,0.056,0.212,0.12,0.319,0.18   c0.246,0.136,0.488,0.277,0.715,0.433c0.133,0.091,0.257,0.186,0.381,0.282c0.17,0.13,0.335,0.266,0.493,0.406   c0.144,0.129,0.29,0.258,0.42,0.389c0.088,0.088,0.167,0.18,0.251,0.27C39.571,51.954,40.074,52.77,40.359,53.326z M29.397,53.358   c-1.239-1.3-2.179-2.671-2.652-3.417c0.091-0.038,0.188-0.078,0.288-0.12c0.668-0.28,1.558-0.651,2.57-0.949   c-0.336,0.786-0.526,1.627-0.526,2.496C29.076,52.062,29.191,52.73,29.397,53.358z"></path><path d="M87.566,13.469c-0.145-2.034-0.343-4.82-2.523-4.871c-1.313-0.033-2.691,0.97-3.2,1.915   c-0.148,0.275-0.046,0.619,0.23,0.768c0.276,0.15,0.62,0.045,0.768-0.23c0.343-0.638,1.317-1.358,2.175-1.318   c1.063,0.025,1.272,1.744,1.42,3.817c0.041,0.587,0.081,1.142,0.16,1.59c0.448,2.524,0.512,4.325-0.388,7.167   c-0.095,0.298,0.07,0.617,0.369,0.711c0.057,0.018,0.114,0.026,0.171,0.026c0.241,0,0.464-0.154,0.54-0.396   c0.966-3.049,0.895-5.062,0.425-7.708C87.644,14.551,87.605,14.025,87.566,13.469z"></path><path d="M83.186,35.344c-0.278-0.139-0.612-0.04-0.753,0.24c-0.004,0.005-0.379,0.543-1.929,0.247   c-2.53-0.48-3.513-1.833-4.38-3.026c-0.51-0.702-0.991-1.365-1.715-1.769c-0.553-0.309-1.177-0.644-1.824-0.991   c-1.538-0.825-3.282-1.761-4.411-2.542c-1.055-0.73-0.784-1.534-0.334-2.293c0.159-0.27,0.07-0.617-0.199-0.777   c-0.271-0.16-0.617-0.07-0.777,0.199c-1.16,1.96-0.278,3.15,0.666,3.804c1.181,0.818,2.955,1.77,4.52,2.609   c0.642,0.344,1.26,0.676,1.808,0.982c0.506,0.282,0.897,0.821,1.351,1.445c0.941,1.296,2.114,2.91,5.086,3.474   c0.397,0.076,0.748,0.107,1.057,0.107c1.562,0,2.026-0.823,2.082-0.935C83.572,35.838,83.466,35.484,83.186,35.344z"></path></g></svg>