<svg xmlns="http://www.w3.org/2000/svg" xmlns:xlink="http://www.w3.org/1999/xlink" version="1.1" x="0px" y="0px" viewBox="0 0 100 100" enable-background="new 0 0 100 100" xml:space="preserve"><g><path fill="#000000" d="M62.742,44.206c-4.313,0-7.822,3.509-7.822,7.822s3.509,7.822,7.822,7.822s7.823-3.509,7.823-7.822   S67.056,44.206,62.742,44.206z"></path><path fill="#000000" d="M37.76,44.206c-4.314,0-7.822,3.509-7.822,7.822s3.508,7.822,7.822,7.822c4.312,0,7.822-3.509,7.822-7.822   S42.072,44.206,37.76,44.206z"></path><polygon fill="#000000" points="50.249,68.52 50.253,68.52 50.251,68.517  "></polygon><path fill="#000000" d="M53.322,71.636c0.079,0.431,0.121,0.883,0.121,1.353c0,2.74-0.421,4.963-3.192,4.963   c-2.769,0-3.192-2.223-3.192-4.963c0-0.47,0.042-0.922,0.121-1.352c-0.32,0.197-0.66,0.388-1.02,0.57   c-2.121,1.075-4.762,1.79-7.629,2.083c0.427,3.615,5.688,6.31,11.72,6.325c6.032-0.016,11.293-2.71,11.72-6.325   c-2.868-0.293-5.508-1.008-7.63-2.083C53.981,72.024,53.642,71.834,53.322,71.636z"></path><path fill="#000000" d="M49.664,69.987l0.434,5.427c0.084,0.72,0.222,0.72,0.306,0l0.434-5.429l-0.592-1.368L49.664,69.987z"></path><path fill="#000000" d="M28.803,49.691c1.039-3.977,4.66-6.919,8.957-6.919c3.777,0,7.033,2.277,8.469,5.53   c1.181-0.882,2.606-1.359,4.104-1.359c1.447,0,2.824,0.446,3.979,1.271c1.456-3.205,4.687-5.441,8.43-5.441   c4.3,0,7.924,2.948,8.958,6.929c2.545-0.097,4.709-1.203,5.695-2.754c-1.336-1.347-2.399-2.407-3.563-2.407   c0,0,3.551-14.425-6.991-23.745l-7.877,12.538c0,0-0.732-0.399-2.164-0.805c-0.657-1.616-0.844-3.218,1.129-5.545   c-3.043-0.337-5.431,0.936-7.061,3.079c-1.544-1.417-2.769-2.776-1.684-6.141c-4.051,1.169-5.788,4.686-5.7,8.67   c-1.289,0.382-1.945,0.741-1.945,0.741L33.66,20.795c-10.541,9.32-6.99,23.745-6.99,23.745c-1.131,0-2.166,0.999-3.449,2.292   C24.148,48.405,26.277,49.546,28.803,49.691z M67.591,28.48c4.486,5.14,2.352,11.761,2.352,11.761   c-2.744-3.093-7.057-5.401-7.057-5.401L67.591,28.48z M32.91,28.48l4.705,6.359c0,0-4.312,2.309-7.057,5.401   C30.559,40.241,28.424,33.62,32.91,28.48z"></path><path fill="#000000" d="M90.032,52.51c-6.041,0.388-9.414-2.38-11.832-4.759c-1.217,1.712-3.557,2.916-6.284,3.066   c0.052,0.397,0.081,0.801,0.081,1.211c0,5.104-4.151,9.256-9.255,9.256s-9.256-4.152-9.256-9.256c0-0.83,0.112-1.634,0.317-2.399   c-0.975-0.811-2.188-1.252-3.471-1.252c-1.341,0-2.607,0.482-3.604,1.367c0.187,0.73,0.286,1.496,0.286,2.284   c0,5.104-4.151,9.256-9.255,9.256s-9.256-4.152-9.256-9.256c0-0.414,0.03-0.821,0.083-1.222c-2.706-0.197-5.007-1.435-6.173-3.165   c-2.428,2.402-5.81,5.262-11.945,4.868c0,5.151,4.963,9.321,11.097,9.321c-2.76,0-5.548,6.324-3.661,10.541   c7.043-4.533,14.088-0.203,18.604,1.099c3.494-0.115,6.739-0.854,9.223-2.113c2.504-1.269,3.926-2.907,4.037-4.633   c-0.139-0.059-0.27-0.142-0.385-0.253l-2.785-2.719c-0.494-0.482-0.352-1.018,0.316-1.188l2.152-0.55   c0.668-0.171,1.762-0.164,2.429,0.016l1.935,0.52c0.667,0.179,0.819,0.729,0.337,1.224l-2.607,2.675   c-0.125,0.127-0.27,0.221-0.424,0.284c0.113,1.723,1.537,3.356,4.036,4.624c2.483,1.259,5.729,1.998,9.222,2.113   c4.516-1.302,11.561-5.632,18.605-1.099c1.887-4.217-0.902-10.541-3.662-10.541C85.069,61.831,90.032,57.661,90.032,52.51z    M37.936,69.252c-0.271,0-0.49-0.22-0.49-0.49c0-0.271,0.22-0.49,0.49-0.49c0.271,0,0.49,0.219,0.49,0.49   C38.426,69.032,38.207,69.252,37.936,69.252z M39.242,66.708c-0.271,0-0.49-0.22-0.49-0.49c0-0.271,0.219-0.49,0.49-0.49   c0.271,0,0.49,0.219,0.49,0.49C39.732,66.488,39.513,66.708,39.242,66.708z M41.81,70.722c-0.271,0-0.491-0.219-0.491-0.489   s0.221-0.49,0.491-0.49s0.489,0.22,0.489,0.49S42.08,70.722,41.81,70.722z M41.81,67.996c-0.271,0-0.491-0.219-0.491-0.489   c0-0.271,0.221-0.49,0.491-0.49s0.489,0.219,0.489,0.49C42.299,67.777,42.08,67.996,41.81,67.996z M43.77,65.762   c-0.271,0-0.49-0.22-0.49-0.49s0.219-0.491,0.49-0.491s0.49,0.221,0.49,0.491S44.041,65.762,43.77,65.762z M45.32,68.762   c-0.271,0-0.49-0.22-0.49-0.49s0.219-0.49,0.49-0.49c0.27,0,0.489,0.22,0.489,0.49S45.59,68.762,45.32,68.762z M55.183,68.762   c-0.271,0-0.49-0.22-0.49-0.49s0.219-0.49,0.49-0.49c0.271,0,0.49,0.22,0.49,0.49S55.453,68.762,55.183,68.762z M56.731,65.762   c-0.271,0-0.489-0.22-0.489-0.49s0.219-0.491,0.489-0.491c0.271,0,0.49,0.221,0.49,0.491S57.003,65.762,56.731,65.762z    M58.692,70.722c-0.271,0-0.49-0.219-0.49-0.489s0.22-0.49,0.49-0.49c0.271,0,0.49,0.22,0.49,0.49S58.964,70.722,58.692,70.722z    M58.692,67.996c-0.271,0-0.49-0.219-0.49-0.489c0-0.271,0.22-0.49,0.49-0.49c0.271,0,0.49,0.219,0.49,0.49   C59.183,67.777,58.964,67.996,58.692,67.996z M61.26,66.708c-0.271,0-0.489-0.22-0.489-0.49c0-0.271,0.219-0.49,0.489-0.49   s0.491,0.219,0.491,0.49C61.751,66.488,61.53,66.708,61.26,66.708z M62.566,69.252c-0.271,0-0.491-0.22-0.491-0.49   c0-0.271,0.221-0.49,0.491-0.49s0.489,0.219,0.489,0.49C63.056,69.032,62.837,69.252,62.566,69.252z"></path></g></svg>