<svg xmlns="http://www.w3.org/2000/svg" xmlns:xlink="http://www.w3.org/1999/xlink" version="1.1" x="0px" y="0px" viewBox="0 0 100 100" enable-background="new 0 0 100 100" xml:space="preserve"><g><path d="M32,25c-1.7,0-3,1.3-3,3c0,1.7,1.3,3,3,3s3-1.3,3-3C35,26.3,33.7,25,32,25z M32,29c-0.6,0-1-0.4-1-1c0-0.6,0.4-1,1-1   c0.6,0,1,0.4,1,1C33,28.6,32.6,29,32,29z"></path><path d="M48,31c1.7,0,3-1.3,3-3c0-1.7-1.3-3-3-3c-1.7,0-3,1.3-3,3C45,29.7,46.3,31,48,31z M48,27c0.6,0,1,0.4,1,1c0,0.6-0.4,1-1,1   c-0.6,0-1-0.4-1-1C47,27.4,47.4,27,48,27z"></path><path d="M69.3,52.4c-2.6-2.1-5.1-3.5-7.1-4.7c-4.1-2.3-6-3.5-6.1-7.4c2.5-2.6,4-5.9,4-9.8c0-2.9-0.8-7-2.3-9.7L55.5,7.7   c-0.1-0.7-0.6-1.3-1.4-1.6c-0.7-0.2-1.5,0-2,0.5l-6.8,6.8c-3.5-0.9-7.1-0.9-10.6,0l-6.8-6.8c-0.5-0.5-1.3-0.7-2-0.5   c-0.7,0.2-1.2,0.8-1.4,1.6l-2.2,13.1c-1.5,2.7-2.3,6.8-2.3,9.7c0,6.4,3.8,11.3,10,13.7v36.1c-2,0.7-4,2.4-4,5.7c0,4.4,3.6,6,6,6   h16.9c3.2,1.4,7.5,2,13.1,2c16.7,0,18-10.7,18-14C80,69.8,80,61,69.3,52.4z M24,30.5c0-2.4,0.7-6,1.9-7.9c0.1-0.2,0.2-0.5,0.3-0.7   l1.6-9.7l4.9,4.9c0.5,0.5,1.3,0.7,2,0.5c3.5-1,7.1-1,10.6,0c0.7,0.2,1.5,0,2-0.5l4.9-4.9l1.6,9.7c0,0.3,0.1,0.5,0.3,0.7   c1.2,1.9,1.9,5.5,1.9,7.9C56,38.4,48,42,40,42S24,38.4,24,30.5z M62,90c-11.6,0-14.9-2.7-16.5-6.9c-1.8-5-1.1-10,2-13.8   c1.4-1.7,3.7-3,5.4-2.9c0.9,0,1.2,0.4,1.4,0.7c1,1.5,0.6,2.3-0.8,4.3c-1.5,2-3.7,5.1-1.2,9.6c2,3.6,9.9,5.2,14.6,2.8   c1-0.5,1.4-1.7,0.9-2.7c-0.5-1-1.7-1.4-2.7-0.9c-3.3,1.6-8.6,0.2-9.4-1.2c-1.2-2.2-0.5-3.3,1-5.3c1.4-1.9,3.5-4.9,0.9-8.8   c-1-1.5-2.6-2.4-4.6-2.5c-2.9-0.1-6.5,1.6-8.7,4.3c-4,4.9-5,11.4-2.7,17.7c0.5,1.3,1.1,2.5,1.9,3.6H32c-0.9,0-2-0.4-2-2s1.1-2,2-2   c1.1,0,2-0.9,2-2V45.4c1.9,0.4,3.9,0.6,6,0.6c4.9,0,9.1-1,12.4-2.9c1,4.2,4.2,6.1,7.8,8.1c2,1.1,4.2,2.4,6.6,4.3   C76,63,76,70.1,76,80C76,83.7,74.2,90,62,90z"></path></g></svg>