<svg xmlns="http://www.w3.org/2000/svg" xmlns:xlink="http://www.w3.org/1999/xlink" version="1.1" x="0px" y="0px" viewBox="0 0 100 100" enable-background="new 0 0 100 100" xml:space="preserve"><path fill="#000000" d="M73.604,28.801h-6.746c-0.013-0.201-0.03-0.402-0.051-0.604l5.046-2.789c0.529-0.293,0.722-0.961,0.429-1.49  c-0.293-0.53-0.96-0.723-1.49-0.43l-4.376,2.42c-0.359-1.486-0.917-2.922-1.664-4.259L57.43,5.642  c-0.173-0.38-0.546-0.628-0.962-0.641c-0.414-0.015-0.805,0.211-1.002,0.577l-3.999,7.453c-1.003-0.089-2.007-0.089-3.011,0  l-3.999-7.453c-0.197-0.366-0.585-0.589-1.001-0.577c-0.417,0.013-0.789,0.261-0.962,0.64L35.171,21.65  c-0.741,1.326-1.295,2.749-1.655,4.222l-4.308-2.383c-0.53-0.293-1.197-0.101-1.49,0.43c-0.293,0.529-0.101,1.197,0.429,1.49  l4.972,2.749c-0.022,0.214-0.041,0.429-0.055,0.644h-6.668c-0.605,0-1.097,0.491-1.097,1.097s0.491,1.097,1.097,1.097h6.668  c0.014,0.219,0.033,0.437,0.055,0.654l-4.972,2.75c-0.53,0.292-0.722,0.96-0.429,1.49c0.201,0.361,0.575,0.565,0.961,0.565  c0.18,0,0.361-0.044,0.529-0.137l4.306-2.382c0.642,2.628,1.909,5.07,3.724,7.134c-0.269,1.057-0.405,2.146-0.405,3.246v4.055  c-0.936-0.716-2.105-1.141-3.371-1.141c-3.067,0-5.563,2.496-5.563,5.565v5.678c0,0.004,0,0.011,0,0.017v0.342  c0,0.112,0.004,0.226,0.013,0.357c0.168,5.271,2.227,10.315,5.797,14.203c3.395,3.696,7.942,6.124,12.869,6.885  c1.467,4.152,4.109,7.729,7.675,10.377C58.081,93.497,62.633,95,67.416,95c0.013,0.001,0.025,0.001,0.038,0  c2.521,0,4.57-2.05,4.57-4.57s-2.05-4.57-4.57-4.57c-0.013,0-0.026,0-0.038,0c-4.533,0-8.752-2.418-11.086-6.256  c9.005-2.705,15.377-10.905,15.683-20.412c0.008-0.134,0.013-0.249,0.013-0.359v-6.036c0-3.069-2.496-5.565-5.564-5.565  c-1.267,0-2.436,0.425-3.371,1.141v-4.055c0-1.101-0.136-2.189-0.405-3.246c1.823-2.074,3.094-4.53,3.733-7.171l4.374,2.419  c0.168,0.093,0.35,0.137,0.529,0.137c0.386,0,0.761-0.204,0.961-0.565c0.293-0.53,0.101-1.198-0.429-1.49l-5.046-2.79  c0.021-0.204,0.038-0.409,0.051-0.614h6.746c0.605,0,1.097-0.491,1.097-1.097S74.21,28.801,73.604,28.801z M60.669,40.026  c-0.272,0.287-0.368,0.698-0.252,1.075c0.229,0.75,0.376,1.522,0.441,2.307h-4.464c-0.605,0-1.097,0.491-1.097,1.097  s0.491,1.097,1.097,1.097h4.502v3.615v0.827h-4.502c-0.605,0-1.097,0.491-1.097,1.098c0,0.605,0.491,1.096,1.097,1.096h4.502v0.559  v3.885h-4.502c-0.605,0-1.097,0.491-1.097,1.095c0,0.606,0.491,1.098,1.097,1.098h4.502v3.537c0,0.605,0.491,1.097,1.097,1.097  s1.097-0.491,1.097-1.097v-9.614c0-1.859,1.512-3.372,3.371-3.372c1.858,0,3.371,1.513,3.371,3.372v6.036  c0,0.066-0.003,0.14-0.01,0.232c0,0.013-0.001,0.026-0.002,0.039c-0.279,9-6.597,16.701-15.361,18.729  c-0.323,0.075-0.595,0.292-0.739,0.592c-0.145,0.299-0.146,0.646-0.004,0.947c2.494,5.259,7.849,8.662,13.651,8.681  c0.022,0.001,0.047,0.002,0.069,0.001l0.027-0.001c1.307,0.006,2.368,1.07,2.368,2.378c0,1.307-1.061,2.37-2.365,2.378  c-0.018-0.001-0.034-0.001-0.051-0.001c-0.016,0-0.031,0-0.046,0.001c-4.292-0.01-8.375-1.363-11.811-3.915  c-3.382-2.512-5.842-5.949-7.115-9.941c-0.13-0.409-0.486-0.703-0.912-0.756c-4.673-0.569-9.009-2.802-12.209-6.286  c-3.219-3.506-5.073-8.054-5.221-12.808c0-0.013-0.001-0.025-0.002-0.039c-0.006-0.091-0.009-0.164-0.009-0.23v-0.348  c0-0.002,0-0.003,0-0.005c0-0.003,0-0.004,0-0.006v-5.678c0-1.859,1.512-3.372,3.37-3.372c1.859,0,3.371,1.513,3.371,3.372v9.614  c0,0.605,0.491,1.097,1.097,1.097c0.605,0,1.096-0.491,1.096-1.097v-3.537h4.502c0.606,0,1.097-0.491,1.097-1.098  c0-0.604-0.491-1.095-1.097-1.095h-4.502v-3.885v-0.559h4.502c0.606,0,1.097-0.49,1.097-1.096c0-0.606-0.491-1.098-1.097-1.098  h-4.502v-0.827v-3.615h4.502c0.606,0,1.097-0.491,1.097-1.097s-0.491-1.097-1.097-1.097h-4.464c0.065-0.784,0.211-1.557,0.441-2.306  c0.116-0.378,0.02-0.788-0.251-1.076c-2.601-2.747-4.033-6.344-4.033-10.128c0-2.528,0.651-5.022,1.884-7.214  c0.015-0.026,0.029-0.054,0.042-0.081l6.422-14.04l3.304,6.159c0.216,0.402,0.659,0.628,1.112,0.567  c1.309-0.175,2.643-0.175,3.952,0c0.453,0.062,0.896-0.165,1.112-0.567l3.305-6.159l6.422,14.04  c0.013,0.027,0.026,0.055,0.041,0.081c1.232,2.191,1.884,4.686,1.884,7.214C64.701,33.682,63.269,37.28,60.669,40.026z"></path></svg>