<svg xmlns="http://www.w3.org/2000/svg" xmlns:xlink="http://www.w3.org/1999/xlink" version="1.1" x="0px" y="0px" viewBox="0 0 80 80" enable-background="new 0 0 80 80" xml:space="preserve"><path d="M25.4,40.4c-0.3,0.4-0.5,0.8-0.8,1.1c-0.5,0.5-1,0.9-1.5,1.3c-0.5,0.4-1,0.6-1.5,0.9c-0.9,0.6-1.7,1.3-2.5,1.9  c-1,0.7-2,1.3-3,1.9c-0.5,0.3-0.9,0.8-1.3,1.2c-0.8,1-0.8,2.3,0.1,3.4c0.8,1.1,1.5,2.4,1.1,3.9c-0.2,0.6-0.5,1-1.2,1  c-0.2,0-0.4,0-0.6,0c-1.1,0.2-2.2,0.5-2.9-0.8c-0.5-0.9-1.1-1.8-1-3c0.1-1.4-0.1-2.9-0.3-4.3c-0.2-1.1,0.1-2,0.8-2.8  c0.7-0.8,1.6-1.5,2.4-2.3c1.1-1,2-2.2,2.5-3.6c0.6-1.7,1.2-3.4,1.8-5.1c0.6-1.4,1.2-2.8,1.9-4.2c0.8-1.5,0.8-1.6-0.8-2.1  c-2.7-0.9-5.2-2.3-7.3-4.1c-1.2-1-2.5-1.8-3.7-2.7C7.1,22,6.7,21.5,6.3,21c0.9-0.7,1.6-0.1,2.3,0.2c1.9,1.1,3.8,2.3,5.7,3.3  c1.7,0.8,3.5,1.2,5.3,1.6c1.2,0.3,2.5,0.4,3.8,0.3c1.4,0,2.8-0.4,4.2-0.5c1.7-0.1,3.3,0.2,4.8,1c1.4,0.7,2.8,1.4,4.2,2.1  c1.9,0.9,3.7,1.8,5.7,2.5c2.1,0.8,4.2,1.4,6.5,1.4c1.1,0,1.9,0.5,2.5,1.3c0.5,0.6,1.1,1.2,1.6,1.7c0.2,0.2,0.4,0.3,0.6,0.4  c0.1-0.1,0.1-0.2,0.2-0.2c-0.2-0.2-0.4-0.5-0.6-0.7c-1.4-1-2.3-2.4-2.9-3.9c-0.3-0.6,0.1-1.6,0.4-2.4c0.4-1.3,1.1-2.4,0.6-4  c-0.5-1.4,0-2.9,0.4-4.3c0.3-1.1,0.6-2.2,0.8-3.4c0.2,0.2,0.5,0.4,0.7,0.6c1,0.9,1.9,1.8,2.9,2.7c0.3,0.2,0.6,0.4,0.8,0.7  c0.7,1.1,1.6,1.1,2.8,1c0.9-0.1,1.8-0.1,2.6,0c1.2,0.2,2.3,0.6,3.5,0.8c0.2,0,0.4,0,0.5-0.1c1.4-1.1,2.7-2.3,4-3.4  c0.4-0.3,0.8-0.6,1.3-0.9c0.5,0.2,0.7,0.4,0.4,1.1c-0.3,0.5-0.2,1.1-0.3,1.7c-0.1,0.7-0.2,1.4-0.3,2.1c-0.2,1-0.4,2-0.5,3  c0,0.9,0.2,1.8,0.3,2.8c0.1,1.1,0.1,2.2,0.1,3.2c0,0.2-0.1,0.4-0.2,0.5c-1.1,0.9-1.5,2.5-3.1,2.8c0,0.1,0,0.2,0,0.2  c0.7,0.1,1.4,0.3,2.1,0.4c0.8,0.1,1.5,0.2,2.3,0.4c0.3,0.1,0.5,0.4,0.8,0.7c-1.8-0.3-3.4-0.6-5-0.8c0,0.1-0.1,0.2-0.1,0.3  c0.9,0.3,1.8,0.5,2.7,0.8c0,0.1,0,0.2-0.1,0.3c-1.4-0.3-2.8-0.5-4.2-0.8c0,0.1-0.1,0.1-0.1,0.2c1,0.5,1.9,1,2.9,1.4  c0,0.1-0.1,0.2-0.1,0.3c-0.5-0.1-0.9-0.2-1.4-0.4c-0.2-0.1-0.4-0.2-0.6-0.3c-1-0.6-2-0.7-3,0.1c-0.3,0.2-0.9,0.2-1.3,0.3  c-0.6,0.2-1.2,0.3-1.7,0.6c-0.3,0.2-0.4,0.7-0.5,1.1c-0.2,0.9-0.3,1.8-0.5,2.7c-0.1,0.4-0.3,0.7-0.5,1.2c-0.7,0.1-0.7,1-0.9,1.6  c-0.4,1.3-0.2,2.6,0.5,3.8c0.1,0.2,0.1,0.4,0.2,0.6c0.1,0.3,0.1,0.5,0.2,0.8c0.5,1.4,1,2.8,1.5,4.3c0.3,0.9,0.7,1.6,1.5,2.1  c0.6,0.4,1.2,0.7,1.8,1.1c0.8,0.5,1,1.2,0.9,2.1c-0.1,0.6-0.3,1-1.1,1c-0.5,0-1,0.3-1.6,0.4c-1.9,0.4-2.1-0.2-3.2-1.6  c-0.3-0.4-0.7-0.9-1-1.2c-0.4-0.4-0.8-0.8-0.7-1.5c0.1-0.6-0.3-0.9-0.7-1.4c-0.9-1.1-1.7-2.3-2.5-3.4c-0.1-0.2-0.2-0.5-0.4-0.6  c-1.3-0.8-2-2.1-3-3.3c-0.8-0.9-1.7-1.1-2.8-1.1c-1.3,0-1.5,0.7-1.8,1.5c-0.8,2.1-1.6,4.2-2.3,6.3c-0.3,1-0.1,2,0.4,3  c0.3,0.5,0.2,1.2,0.2,1.8c0,0.5-0.2,0.9-0.3,1.3c-0.1,0.2-0.2,0.4-0.4,0.4c-1.7,0.5-3.1-0.2-4-1.7c-0.8-1.4-0.4-2.9-0.3-4.4  c0.1-1.5,0.2-2.9,0.2-4.4c0-1.8,0-3.6,0-5.3c-1-0.4-1.9-0.7-2.9-1c-0.3-0.1-0.6,0-0.9-0.1c-0.7-0.3-1.4-0.6-2-0.9  c-0.5-0.3-0.7,0-0.8,0.3c-0.7,2.2-1.1,4.4-0.5,6.7c0.1,0.3,0.3,0.5,0.5,0.7c0.8,0.6,1.6,1.2,2.4,1.8c0.8,0.5,1.2,1.1,1.3,2  c0.1,0.7-0.3,1.2-1,1.3c-0.7,0.1-1.4,0.3-2.1,0.2c-0.8-0.2-1.5-0.7-2.3-1c-0.2-0.1-0.3-0.2-0.4-0.4c-0.4-1.7-1.8-2.7-2.7-4.1  c-0.6-0.9-1-1.8-0.8-2.9c0.2-1,0.4-1.9,0.3-2.9c-0.1-1-0.2-2-0.7-2.9C27.1,42.7,26.2,41.5,25.4,40.4z M55.9,40.7  c0,0.7-0.5,1.4-1.1,1.4c-0.7,0-0.8,0.7-1.4,0.6c0,0-0.1,0.3-0.1,0.5c-1.4-0.1-0.8,1.4-1.5,1.9c-0.2-0.1-0.4-0.2-0.6-0.3  c-0.7,1.6-1.1,1.9-2,1.4c-0.1,0.4-0.3,0.8-0.5,1.2c0.9-0.2,1.7,0.8,2.6,0.1c0,0,0.1,0.1,0.2,0.1c0.4,0.1,0.8,0.1,1.1,0.2  c0.5,0,1.1,0.1,1.6,0.1c0.2-0.2,0.4-0.4,0.5-0.5c-0.1-0.4-0.1-0.6-0.2-1c0.5,0.2,0.9,0.3,1.1,0.4c0.3-0.4,0.6-0.7,0.8-0.8  c-0.1-0.1-0.2-0.1-0.3-0.2c0-0.1,0-0.2,0.1-0.3c0.9,0.5,0.7-0.5,1.1-0.8c0.1,0.3,0.1,0.5,0.2,0.7c0.8-0.3,0.4-1,0.6-1.5  c-0.3,0.2-0.5,0.3-0.6,0.4c0,0-0.1-0.1-0.1-0.1c0.2-0.4,0.4-0.8,0.6-1.2c0.1,0,0.2-0.1,0.3-0.1c0.1,0.3,0.2,0.5,0.2,0.8  c0.1-0.1,0.2-0.2,0.4-0.2c-0.3-0.6-0.5-1.2-0.8-1.8c-0.2-0.3-0.5-0.6-0.8-0.9C56.7,40.4,56.3,40.6,55.9,40.7z M41.6,54.6  c-0.2,0.7-0.3,1.1-0.4,1.5c-0.2,1.4-0.6,2.9,0,4.3c0.2,0.4,0.4,0.7,0.7,1.2c0.2-0.6,0.3-1,0.4-1.4c0.1,0,0.2,0,0.3,0  c0.2,0.4,0.4,0.8,0.6,1.1c0.1,0.2,0.3,0.4,0.4,0.6c0.2-0.2,0.6-0.4,0.6-0.6c0.1-0.3,0-0.7-0.1-1c-0.2-0.8-0.5-1.6-0.7-2.5  c-0.1-0.6-0.2-1.1-0.3-1.8c-0.5,0.3-0.7,0.2-0.8-0.4C42.2,55.4,41.9,55.1,41.6,54.6z M11.5,53.2c0.1,0.5,0.1,1.1,0.2,1.7  c0.1,0.5,0.3,1,1.1,0.9c0.4-0.1,0.9,0.1,1.3,0.2c0.6,0.2,0.9-0.1,0.8-0.6c-0.2-0.7-0.5-1.3-0.7-2c-0.1-0.4-0.4-0.7-0.5-1.1  c-0.1-0.4-0.1-0.8-0.6-0.9c-0.3,0-0.6,0-0.9,0.1C11.2,51.8,11.6,52.5,11.5,53.2z M62.3,62c-0.6-1.6-0.6-1.6-0.2-2.1  c0.2,0.4,0.4,0.8,0.7,1.2c0.4,0.8,0.4,0.8,1,0.5c-0.1-0.4-0.8-0.8,0-1.4c0.3,0.4,0.6,0.8,1,1.3c0.1-0.9-0.1-1.3-0.9-1.8  c-1.1-0.6-2.3-1.3-3.2-1.8c-0.6,0.2-1,0.3-1.6,0.5C60,59.5,60.5,61.2,62.3,62z M31.3,54c0.4,0.6,0.9,1.1,1.2,1.8  c0.2,0.6,0.6,0.9,1.1,1.2c0.7,0.3,1.3,0.5,2,0.2c0.6-0.2,0.8-0.4,0.4-0.9c-0.2-0.3-0.5-0.4-0.8-0.6c-1.1-0.8-2.2-1.5-3.3-2.2  C31.7,53.7,31.5,53.9,31.3,54z M53.5,26.4c0.1-0.2,0.1-0.4,0.2-0.6c0.2,0.3,0.4,0.5,0.6,0.7c0.2-0.1,0.4-0.3,0.5-0.4  c-0.1,0.1-0.3,0.2-0.4,0.3c-0.1-0.3-0.4-0.7-0.3-0.9c0.3-1-0.3-1.9-0.4-2.9c-0.1-0.8-0.3-1.5-0.5-2.3c-0.1,0-0.2,0-0.2,0  c-0.1,0.6-0.1,1.2-0.3,1.8c-0.2,0.5,0,1.1-0.2,1.4c-0.4,0.8-0.1,1.3,0.4,1.9C53,25.7,53.2,26,53.5,26.4z M60.1,36.1  c0.2,0.1,0.3,0.2,0.4,0.3c0.6,0.4,1.4,0.3,1.8-0.3c0.4-0.6-0.3-0.6-0.5-0.9c0,0,0-0.1-0.1-0.1c-0.2-0.2-0.4-0.6-0.5-0.6  c-0.5,0-1.1,0-1.3,0.6c0.3,0.2,0.5,0.3,0.8,0.5C60.4,35.8,60.3,35.9,60.1,36.1z M60.4,33.1c0.1-0.1,0.1-0.2,0.2-0.3  c-0.5-0.8-1-1.6-1.5-2.4c-0.1,0-0.2,0.1-0.3,0.1c-0.1,0.7-0.2,1.3-0.3,2.2C59.1,32.9,59.7,33,60.4,33.1z M63.6,36.2  c0.6,0.2,1.2,0.5,1.7,0.6c0.2,0,0.7-0.6,0.7-0.8c-0.2-0.5-0.6-0.9-1-1.5C64.5,35.1,64.1,35.5,63.6,36.2z M59.5,36.7  c0,0.1-0.1,0.1-0.1,0.2c1.3,1.4,4,1.6,4.9,0.2c-0.5,0-1-0.2-1.3,0c-1,0.7-2,0.5-2.9-0.1C60,36.8,59.8,36.8,59.5,36.7z M55.5,29.8  c0.6,0.8,1.1,1.4,1.6,1.9c0.4-0.7,0.8-1.2,1.2-1.9C57.4,29.8,56.6,29.8,55.5,29.8z M59.5,38.7c0-0.1,0-0.2,0.1-0.3  c-0.7-0.4-1.5-0.8-2.2-1.2c-0.4,0.2-0.9,0.4-1.6,0.7C57.1,38.5,58.3,38.7,59.5,38.7z M38.8,45.2c-0.3-0.3-0.7-0.6-1-1  c-0.1,0-0.2,0.1-0.2,0.1c0.1,0.3,0.2,0.7,0.4,0.8c0.6,0.3,1.2,0.5,1.9,0.8c0.1,0,0.4-0.1,0.4-0.3c0.1-0.3,0.1-0.6,0.1-1.1  C39.8,44.8,39.3,45,38.8,45.2z M64.8,32.9c0,0.1,0.1,0.2,0.1,0.2c0.5,0,1-0.1,1.5-0.1c0-0.7-0.1-1.2-0.1-1.8c-0.1,0-0.1,0-0.2,0  C65.7,31.8,65.2,32.4,64.8,32.9z M67.5,32.2c0.1,0,0.2,0.1,0.2,0.1c0.2-0.6,0.3-1.1,0.5-1.7c-0.5,0-0.9,0-1.3,0  C67.1,31.2,67.3,31.7,67.5,32.2z M54.2,36.9c0,0.1,0,0.1,0,0.2c0.5,0,0.9,0.9,1.4,0.1c-0.1-0.1-0.2-0.3-0.4-0.4  c0.3-0.2,0.6-0.3,0.9-0.4c0,0,0,0,0-0.1C55.5,36.5,54.8,36.7,54.2,36.9z M35.4,44.2c-0.3-0.4-0.4-0.8-0.7-0.9  c-0.1-0.1-0.5,0.2-0.8,0.4c0.7,0.3,1.3,0.6,1.9,0.9c0-0.1,0.1-0.2,0.1-0.3C35.8,44.2,35.6,44.2,35.4,44.2z"></path></svg>