<svg xmlns="http://www.w3.org/2000/svg" xmlns:xlink="http://www.w3.org/1999/xlink" version="1.1" x="0px" y="0px" viewBox="0 0 100 100" enable-background="new 0 0 100 100" xml:space="preserve"><path d="M56.035,93.343c-3.794,0-15.917-0.276-19.358-3.647c-0.353-0.345-1.418-1.389-1.092-2.598  c-4.421-0.655-12.069-1.885-15.957-3.078C10.285,81.153,6.348,71.604,5.982,65.884c-0.383-5.996,2.929-9.58,5.59-12.46  c1.324-1.433,2.574-2.786,3.157-4.191c1.737-4.188,0.321-7.605,0.306-7.639c-0.189-0.445-0.1-0.96,0.229-1.314  c0.33-0.355,0.836-0.481,1.293-0.326c0.454,0.153,1.055,0.231,1.381,0.249c-0.021-0.074-0.051-0.167-0.096-0.279  c-0.825-2.062-5.042-4.097-6.454-4.648c-0.499-0.194-0.814-0.69-0.777-1.224c0.036-0.534,0.416-0.983,0.936-1.108  c0.499-0.12,12.276-2.869,17.583,2.767c1.306,1.386,2.722,4.029,3.546,5.696l0.392-0.343c0.341-0.299,0.819-0.384,1.244-0.223  c0.423,0.162,0.723,0.544,0.779,0.994c0.042,0.344,1.014,8.494-1.152,15.508c-1.189,3.852-3.177,6.113-4.931,8.107  c-1.465,1.667-2.623,2.983-2.988,4.852c-0.451,2.308,2.064,4.382,3.911,5.565c-0.439-2.654-0.348-5.288,0.258-7.266  c1.893-6.181,5.431-11.797,9.465-15.025c3.956-3.165,10.047-6.064,12.715-7.155c1.436-0.587,2.109-1.37,2.412-1.873  c-5.887-3.234-10.045-8.808-10.248-9.083c-0.203-0.275-0.282-0.624-0.217-0.96c0.065-0.336,0.268-0.63,0.559-0.81  c0.305-0.188,0.632-0.397,0.944-0.604c-1.272-0.478-2.774-1.052-3.428-1.303c-0.443-0.17-0.749-0.58-0.784-1.053  c-0.035-0.473,0.206-0.924,0.619-1.158c0.028-0.016,2.775-1.571,4.568-2.693c0.093-0.08,0.192-0.159,0.293-0.235  c0.444-0.474,0.965-1.528,1.181-2.266c0.006-0.045,0.015-0.09,0.027-0.135c0.005-0.021,0.019-0.074,0.042-0.153  c-3.49-1.857-7.504-11.249-8.705-14.225c-0.13-0.324-0.117-0.688,0.038-1s0.435-0.545,0.771-0.639  c0.313-0.086,7.715-2.116,12.26-1.342c3.725,0.634,6.932,3.894,8.222,5.376c1.208-0.433,3.539-1.098,6.469-1.098  s5.196,0.445,6.385,0.743c0.606-0.8,1.743-2.019,3.633-3.112c7.383-4.268,15.543-0.924,15.887-0.779  c0.571,0.24,0.873,0.868,0.704,1.464c-0.139,0.489-3.396,11.885-6.485,15.587c0.045,0.237,0.283,0.753,0.781,1.262  c1.021,1.043,3.522,1.859,4.4,2.085c0.491,0.127,0.853,0.542,0.911,1.046s-0.199,0.991-0.648,1.226l-3.834,2.007l1.436,1.053  c0.396,0.291,0.58,0.789,0.468,1.267c-0.074,0.313-0.616,2.06-4.104,5.688c-2.511,2.612-5.732,4.27-9.133,5.269  c2.425,5.616,2.519,15.037-2.092,23.058c-2.08,3.619,1.739,6.705,5.298,8.988c0.18,0.115,0.337,0.217,0.468,0.304  c0.016,0.01,0.032,0.021,0.047,0.031c3.659,2.453,3.472,5.729,2.67,8.047c-0.979,2.826-3.125,2.916-4.546,2.975  c-0.942,0.04-1.384,0.089-1.651,0.403c-1.977,2.321-7.315,3.081-10.472,2.879c-1.711-0.109-2.72-1.009-3.327-1.766  c-1.946,2.161-6.452,2.415-7.011,2.438C57.152,93.333,56.736,93.343,56.035,93.343z M38.333,87.888  c0.019,0.019,0.038,0.038,0.058,0.058c2.525,2.475,14.544,3.117,18.684,2.938c0.927-0.039,2.14-0.218,3.196-0.53  c0.01-0.05,0.024-0.101,0.041-0.151c0.629-1.845-0.326-3.94-0.798-4.251c-0.608-0.296-0.851-1.024-0.555-1.632  s1.04-0.854,1.648-0.559c1.177,0.573,2.159,2.466,2.329,4.519c0.153-0.912,0.479-2.62,0.909-3.537  c-0.108-0.314-0.755-0.949-1.04-1.228c-0.134-0.131-0.26-0.255-0.371-0.37c-0.651-0.677-1.861-1.048-2.632-1.209  c-2.366,1.843-9.568,6.57-20.022,5.467c-0.376,0.266-0.868,0.366-1.223,0.438C38.494,87.854,38.416,87.871,38.333,87.888z   M65.404,88.392c0.133,0.16,0.244,0.326,0.339,0.469c0.502,0.753,0.935,1.291,1.929,1.354c1.494,0.096,3.159-0.056,4.629-0.368  c0.283-1.248,0.181-2.54-0.29-3.365c-0.318-0.558-0.792-0.896-1.45-1.033C69.9,85.311,69.475,84.663,69.613,84  s0.788-1.087,1.449-0.949c1.346,0.28,2.41,1.047,3.078,2.217c0.657,1.152,0.836,2.506,0.749,3.763  c0.377-0.176,0.698-0.365,0.944-0.563c0.011-0.153,0.05-0.307,0.121-0.453c0.521-1.07,1.13-3.018,0.785-3.8  c-0.293-0.667-2.395-1.771-4.198-2.405c-1.023,0.092-2.47,0.271-2.93,0.433c-1.686,0.594-2.949,2.356-3.339,2.956  c-0.039,0.185-0.104,0.373-0.199,0.563C65.849,86.21,65.584,87.389,65.404,88.392z M75.206,80.244  c1.494,0.687,3.219,1.717,3.776,2.984c0.494,1.123,0.306,2.553-0.021,3.731c0.197-0.014,0.39-0.022,0.575-0.03  c1.412-0.059,1.922-0.14,2.333-1.328c0.761-2.199,0.293-3.773-1.519-5.072c-0.735-0.108-2.763-0.392-3.916-0.431  C76.074,80.087,75.631,80.15,75.206,80.244z M39.323,84.882c10.327,1.36,17.463-3.678,19.224-5.083  c0.056-0.06,0.119-0.115,0.188-0.164c0.018-0.013,0.08-0.058,0.174-0.136c0.037-0.033,0.058-0.051,0.061-0.054  c0.031-0.029,0.063-0.056,0.097-0.081c0.975-0.86,3.656-3.733,2.569-8.522c-0.365-1.609-2.079-4.568-5.307-6.125  c-2.884-1.391-6.251-1.235-9.741,0.448c-0.609,0.294-1.341,0.038-1.636-0.571c-0.294-0.609-0.038-1.342,0.571-1.636  c5.288-2.551,9.373-1.652,11.869-0.448c3.754,1.81,6.07,5.307,6.633,7.79c1.052,4.639-0.695,7.887-2.174,9.684  c0.809,0.307,1.681,0.77,2.348,1.463c0.095,0.099,0.205,0.206,0.321,0.319c0.219,0.214,0.474,0.464,0.722,0.744  c0.824-0.946,2.037-2.041,3.556-2.577c0.485-0.171,1.311-0.307,2.077-0.406c-1.086-2.497-3.04-7.465-3.294-11.428  c-0.098-1.531,0.007-3.403,0.119-5.385c0.27-4.792,0.603-10.707-1.659-15.469c-3.543-0.158-6.511-0.733-8.105-1.283  c-0.315-0.109-0.628-0.227-0.937-0.353c-0.489,0.903-1.531,2.192-3.701,3.08c-2.555,1.045-8.375,3.811-12.112,6.801  c-3.664,2.932-6.899,8.102-8.652,13.829c-1.34,4.378,0.46,12.934,5.124,14.811C38.288,84.383,38.866,84.615,39.323,84.882z   M17.841,42.65c0.309,1.752,0.413,4.479-0.849,7.521c-0.75,1.809-2.145,3.318-3.621,4.916c-2.586,2.799-5.261,5.693-4.944,10.641  c0.323,5.041,3.763,13.448,11.919,15.95c3.136,0.962,9.042,1.981,13.424,2.664c-1.333-1.394-2.335-3.228-3.018-5.209  c-0.376-0.17-8.213-3.798-7.136-9.301c0.493-2.519,1.979-4.209,3.553-5.999c1.669-1.898,3.395-3.861,4.43-7.212  c1.339-4.336,1.369-9.295,1.237-12.142c-0.253,0.133-0.548,0.174-0.832,0.112c-0.379-0.083-0.697-0.342-0.856-0.696  c-0.586-1.31-2.411-5.03-3.799-6.504c-2.719-2.888-7.959-2.978-11.525-2.637c1.739,1.051,3.597,2.517,4.294,4.261  c0.617,1.542,0.204,2.438-0.252,2.917C19.336,42.488,18.55,42.634,17.841,42.65z M68.726,47.279  c2.01,5.071,1.685,10.838,1.418,15.572c-0.112,1.989-0.208,3.706-0.12,5.09c0.221,3.455,1.969,7.973,3.005,10.39  c0.736-0.265,2.084-0.681,3.306-0.684c-2.615-2.279-5.121-5.726-2.758-9.836c4.172-7.258,4.174-16.231,1.8-21.24  C73.134,47.03,70.869,47.239,68.726,47.279z M67.059,44.85c6.116,0.112,13.606-1.166,18.102-5.842  c1.818-1.891,2.712-3.163,3.137-3.88l-2.204-1.616c-0.341-0.25-0.529-0.658-0.497-1.08c0.032-0.421,0.279-0.797,0.653-0.993  l3.081-1.613c-0.236-0.104-0.475-0.218-0.712-0.339l0,0c-0.244,0-0.489-0.072-0.704-0.223c-3.587-2.523-13.446-2.829-15.275-1.779  c-0.417,1.021-1.769,1.98-4.038,2.865v0.874c0,0.205-0.05,0.397-0.139,0.567c1.132,0.633,5.146,2.573,10.183,1.466  c0.662-0.146,1.314,0.273,1.459,0.933c0.146,0.661-0.272,1.314-0.933,1.459c-2.891,0.637-5.472,0.427-7.522-0.047  c-1.466,1.186-6.602,0.749-6.655,0.743c-0.796-0.085-1.402-0.223-1.798-0.577c-2.025,0.48-4.538,0.645-7.3-0.137  c-0.651-0.184-1.029-0.861-0.845-1.512c0.185-0.651,0.862-1.029,1.512-0.845c4.643,1.312,8.554-0.662,9.779-1.393  c-0.121-0.19-0.191-0.416-0.191-0.657v-0.94c-2.419-0.967-3.753-2.022-3.976-3.147c-2.686-0.722-10.694-0.639-13.546,1.42  c-0.141,0.132-0.284,0.245-0.426,0.337c-0.014,0.009-0.029,0.019-0.043,0.027c-0.754,0.474-1.664,1.017-2.484,1.497  c1.456,0.551,2.658,1,2.868,1.063c0.459,0.138,0.855,0.579,0.921,1.054c0.094,0.679-0.091,1.155-2.132,2.502  c1.767,2.093,6.175,6.804,11.402,8.607c1.695,0.585,4.565,1.093,7.884,1.194C66.766,44.815,66.914,44.82,67.059,44.85z   M64.657,26.684c0.414,0.386,1.597,1.01,2.803,1.477c1.206-0.467,2.388-1.09,2.802-1.476c-0.094-0.117-0.303-0.305-0.723-0.489  c-1.02-0.445-2.614-0.507-3.762-0.147l0,0C65.123,26.254,64.787,26.525,64.657,26.684z M77.113,24.462  c2.59,0,5.509,0.357,7.986,1.018c-0.024-0.132-0.039-0.263-0.045-0.393c-0.062-0.106-0.108-0.223-0.136-0.349  c-0.069-0.299-1.825-7.471-10.968-10.232c-0.015-0.004-0.03-0.009-0.044-0.014c-0.089-0.03-2.684-0.873-6.513-0.873  c-3.008,0-5.278,0.797-6.04,1.104c-0.023,0.01-0.047,0.02-0.071,0.029c-0.132,0.054-0.203,0.087-0.207,0.089  c-0.121,0.058-0.248,0.094-0.375,0.109c-7.934,2.841-9.901,9.437-10.024,9.879c-0.02,0.083-0.042,0.167-0.065,0.251  c4.194-1.131,9.809-0.954,12.403-0.229c0.493-0.482,1.182-0.875,2.03-1.142h0c1.71-0.535,3.915-0.441,5.475,0.24  c0.685,0.299,1.23,0.691,1.613,1.148C73.38,24.667,75.152,24.462,77.113,24.462z M76.302,12.724  c6.294,2.429,9.104,6.802,10.269,9.397c1.824-3.161,3.777-8.978,4.748-12.193c-2.246-0.674-7.771-1.845-12.681,0.993  C77.572,11.537,76.815,12.189,76.302,12.724z M42.445,10.257c2.209,5.187,5.164,10.55,6.81,11.571  c1.242-2.482,3.906-6.291,9.207-8.622c-1.325-1.39-3.676-3.476-6.17-3.9C49.346,8.807,44.717,9.727,42.445,10.257z M70.325,23.498  c-0.402,0-0.796-0.198-1.031-0.562c-0.366-0.569-0.203-1.327,0.366-1.693c0.18-0.116,4.454-2.809,8.736-0.208  c0.579,0.351,0.763,1.104,0.411,1.683c-0.351,0.579-1.104,0.763-1.683,0.411c-2.986-1.812-6.106,0.155-6.137,0.174  C70.783,23.435,70.553,23.498,70.325,23.498z M64.632,23.498c-0.235,0-0.472-0.067-0.681-0.208c-0.13-0.086-3.32-2.146-6.046-0.21  c-0.55,0.393-1.315,0.262-1.708-0.29c-0.392-0.551-0.262-1.316,0.29-1.708c4.114-2.92,8.637,0.045,8.828,0.173  c0.562,0.376,0.712,1.138,0.335,1.7C65.414,23.307,65.026,23.498,64.632,23.498z"></path></svg>