<svg xmlns="http://www.w3.org/2000/svg" xmlns:xlink="http://www.w3.org/1999/xlink" version="1.1" x="0px" y="0px" viewBox="0 0 100 100" enable-background="new 0 0 100 100" xml:space="preserve"><g><path d="M93.89,21.096c-0.852-2.724-3.854,0.843-4.551,1.683c-2.152,2.595-2.533,2.447-5.851,2.778   c-3.447,0.345-3.856-1.253-6.194-3.708c-2.477-2.6-4.04-1.41-3.527,2.158c0.407,2.834,1.333,5.507,2.109,8.222   c1.04,3.641,2.943,4.608-0.909,6.679c-3.12,1.678-9.313,0.709-12.872,0.906c-11.25,0.621-20.231,0.366-29.208,8.087   c-4.486,3.857-7.85,6.89-13.698,9.061c-2.586,0.96-4.986,1.243-7.769,1.126c-1.271-0.055-5.656-1.655-6.442-0.898   c-1.974,1.902,5.258,4.05,6.394,4.139c3.073,0.241,6.797,0.349,9.81-0.502c3.52-0.993,7.319-2.722,10.375-4.774   c0.54-0.362,3.053-2.791,3.701-2.733c1.239-1.144,1.758,1.799,2.244,2.549c1.61,2.487,2.636,4.813,0.879,7.38   c-2.251,3.289-1.497,6.099-0.982,9.853c1.391,2.081-0.329,6.6,2.011,8.238c2.005,1.404,8.173-0.186,5.044-3.133   c3.973,3.01,7.704-3.049,3.667-2.655c-2.801,0.272-3.998-5.68-2.144-7.269c1.956-1.676,5.208-2.937,7.484-4.345   c2.732-1.69,5.229-2.858,8.524-2.487c2.293,0.259,6.572-1.078,8.553,0.229c2.203,0.249,3.049,7.211,3.544,8.941   c1.356,4.737,1.71,14.229,7.455,14.231c1.516,0.001,1.617-1.387,2.46-1.658c1.457,0.973,4.537-0.199,4.303-2.08   c-0.313-2.508-3.673-1.271-3.696-5.497c-0.017-2.941,0.288-6.029,0.426-8.979c0.166-3.539,1.527-5.725,2.51-9.067   c0.926-3.147,1.851-6.068,2.085-9.249c0.255-3.453,0.01-7.037,0.695-10.4C92.583,34.523,94.82,24.707,93.89,21.096z M42.702,77.791   c-0.644-1.652-1.099-3.425-1.189-5.201c0.562,1.53,1.231,4.245,2.618,5.234C43.661,77.716,43.185,77.705,42.702,77.791z    M80.667,77.111c0-3.241-1.764-6.766-1.019-9.994c0.451,4.348,1.313,8.675,2.038,12.984C80.922,79.396,80.746,78.083,80.667,77.111   z"></path></g></svg>