<svg xmlns="http://www.w3.org/2000/svg" xmlns:xlink="http://www.w3.org/1999/xlink" version="1.1" x="0px" y="0px" viewBox="0 0 100 100" enable-background="new 0 0 100 100" xml:space="preserve"><polygon points="26.931,15.976 26.933,15.977 26.933,15.977 "></polygon><path d="M45.977,73.921c-2.35-4.614-6.444-7.669-11.103-7.669s-8.755,3.057-11.104,7.672c-0.433,0.951-0.681,2.055-0.681,3.231  c0,3.578,2.291,6.478,5.116,6.478c1.274,0,2.439-0.589,3.334-1.565l-0.001-0.001c0.896,0.976,2.061,1.566,3.336,1.566  c1.274,0,2.439-0.589,3.334-1.565l-0.002-0.002c0.896,0.977,2.062,1.567,3.336,1.567c2.826,0,5.116-2.9,5.116-6.478  C46.659,75.977,46.411,74.873,45.977,73.921L45.977,73.921z"></path><path d="M74.119,73.921c-2.35-4.614-6.444-7.669-11.103-7.669s-8.755,3.057-11.104,7.672c-0.433,0.951-0.681,2.055-0.681,3.231  c0,3.578,2.291,6.478,5.116,6.478c1.274,0,2.439-0.589,3.334-1.565l-0.001-0.001c0.896,0.976,2.061,1.566,3.336,1.566  c1.274,0,2.439-0.589,3.334-1.565l-0.002-0.002c0.896,0.977,2.062,1.567,3.336,1.567c2.826,0,5.116-2.9,5.116-6.478  C74.802,75.977,74.554,74.873,74.119,73.921L74.119,73.921z"></path><path d="M88.595,51.8c-4.494-2.969-10.446-4.102-15.525-4.466c1.112-3.395,1.728-7.246,1.728-11.541  c0.083-10.669-1.6-15.227-4.396-19.816c-4.807,2.48-8.705,6.354-11.098,11.051c-3.359-0.999-6.932-1.538-10.637-1.538  s-7.278,0.539-10.639,1.539c-2.391-4.699-6.288-8.572-11.096-11.053c-2.796,4.589-4.479,9.147-4.396,19.816  c0,4.365,0.636,8.271,1.783,11.705c-4.633,0.495-9.732,1.683-13.696,4.302c-0.69,0.456-0.881,1.387-0.425,2.078  c0.857,1.299,2.117,0.365,3.075-0.18c1.208-0.688,2.498-1.223,3.816-1.66c2.707-0.897,5.541-1.375,8.376-1.625  c0.385,0.84,0.804,1.646,1.256,2.417c-4.215,1.166-9.029,3.373-12.813,7.552c-0.556,0.614-0.509,1.563,0.106,2.119  c0.599,0.542,1.563,0.507,2.119-0.106c3.589-3.964,8.36-5.929,12.371-6.902c0.578,0.751,1.196,1.456,1.843,2.122  c-3.476,1.839-7.421,4.705-10.254,9.05c-0.452,0.694-0.256,1.623,0.437,2.076c0.681,0.445,1.628,0.249,2.076-0.437  c2.752-4.223,6.805-6.903,10.155-8.526c4.406,3.437,9.919,5.231,15.905,5.231c6.348,0,12.166-2.014,16.693-5.869  c3.962,1.558,9.21,4.392,11.127,8.928c0.755,1.785,3.519,0.62,2.764-1.168c-2.124-5.026-7.282-8.199-11.555-10.051  c0.433-0.486,0.852-0.989,1.251-1.516c4.495,0.907,10.412,2.86,14.128,7.051c0.543,0.613,1.507,0.67,2.117,0.128  c0.62-0.549,0.677-1.498,0.127-2.118c-3.951-4.457-9.829-6.667-14.591-7.764c0.431-0.75,0.831-1.534,1.199-2.349  c4.887,0.262,10.783,1.228,15.013,4.022c0.677,0.446,1.623,0.265,2.079-0.425C89.476,53.187,89.286,52.256,88.595,51.8z"></path><path d="M32.676,19.463l-0.002-0.001L32.676,19.463z"></path></svg>