<svg xmlns="http://www.w3.org/2000/svg" xmlns:xlink="http://www.w3.org/1999/xlink" version="1.1" x="0px" y="0px" viewBox="0 0 100 100" enable-background="new 0 0 100 100" xml:space="preserve"><path d="M86.152,7.59c0,0-4.788-2.499-15.688,4.41c-3.928-1.723-8.406-2.702-13.163-2.702c-4.812,0-9.34,1.001-13.301,2.761  C33.036,5.077,28.221,7.59,28.221,7.59c-0.846,8.616,1.703,13.166,3.516,15.254c-1.65,2.96-2.576,6.253-2.576,9.726  c0,10.965,9.173,20.154,21.517,22.617c-0.138,0.432-0.53,0.754-1.006,0.76c-3.033,0.041-6.294,0.511-9.607,1.458  c-8.124,2.322-14.477,6.912-17.167,11.798c-9.181-7.305-9.524-16.38-9.524-16.38c-4.473,9.652,1.661,16.11,8.234,20.006  c-0.105,0.667-0.137,1.33-0.085,1.985c-0.039,0.344-0.04,0.697,0.011,1.055l1.978,13.857c0.326,2.287,2.465,3.891,4.751,3.564h0  c2.287-0.326,3.891-2.465,3.564-4.751l-0.71-4.975c0.556,0.13,1.128,0.243,1.717,0.336l0.282,1.973  c0.326,2.287,2.464,3.891,4.751,3.564c2.287-0.326,3.891-2.465,3.564-4.751l-0.1-0.701c1.949-0.234,3.957-0.631,5.986-1.211  c2.056-0.588,3.997-1.322,5.796-2.168l-0.057,8.5c-0.015,2.31,1.862,4.212,4.172,4.228c2.31,0.015,4.212-1.862,4.228-4.172  l0.079-11.927l1.351,4.115c0.721,2.195,3.106,3.4,5.301,2.68h0c2.195-0.721,3.4-3.106,2.679-5.301l-4.368-13.299l-2.819-6.076  c-0.02-0.167,0.021-0.336,0.021-0.507V55.23c12.458-2.397,21.743-11.629,21.743-22.66c0-3.538-0.959-6.889-2.667-9.891  C84.576,20.521,86.977,15.987,86.152,7.59z M54.841,41.88c0.346-0.2,0.788-0.082,0.988,0.263c0.152,0.262,0.314,0.422,0.432,0.426  c0.223,0.007,0.563-0.284,0.792-0.559v-1.104c-0.653-0.195-1.11-0.644-1.11-1.168c0-0.702,0.821-1.271,1.833-1.271  c1.012,0,1.833,0.569,1.833,1.271c0,0.524-0.457,0.973-1.11,1.168v1.104c0.227,0.268,0.565,0.559,0.783,0.559  c0.003,0,0.006,0,0.01,0c0.118-0.005,0.28-0.164,0.431-0.426c0.199-0.346,0.642-0.464,0.988-0.263  c0.346,0.2,0.464,0.642,0.263,0.988c-0.531,0.918-1.18,1.13-1.631,1.147c-0.02,0.001-0.04,0.001-0.059,0.001  c-0.608,0-1.132-0.338-1.508-0.679c-0.376,0.34-0.901,0.679-1.508,0.679c-0.02,0-0.04,0-0.059-0.001  c-0.45-0.017-1.099-0.229-1.631-1.147C54.377,42.523,54.495,42.08,54.841,41.88z M47.289,38.323  c-0.507,0.104-1.056,0.157-1.657,0.142c0,0-6.974,0.311-7.155-6.455c0,0,0.362-7.388,7.064-7.077c0,0,5.217,0.85,6.817,5.166  c-0.532-0.284-1.119-0.444-1.737-0.444c-2.396,0-4.338,2.367-4.338,5.287C46.284,36.228,46.662,37.407,47.289,38.323z   M48.843,34.349c0-0.982,0.796-1.779,1.779-1.779s1.779,0.796,1.779,1.779s-0.796,1.779-1.779,1.779S48.843,35.331,48.843,34.349z   M64.949,35.633c-0.982,0-1.779-0.796-1.779-1.779c0-0.982,0.796-1.779,1.779-1.779c0.982,0,1.779,0.796,1.779,1.779  C66.728,34.837,65.932,35.633,64.949,35.633z M69.645,38.465c-0.5,0.013-0.963-0.024-1.397-0.096c1.251-0.928,2.089-2.6,2.089-4.515  c0-2.92-1.942-5.287-4.338-5.287c-1.218,0-2.317,0.613-3.104,1.598c1.571-4.373,6.841-5.233,6.841-5.233  c6.702-0.311,7.064,7.077,7.064,7.077C76.619,38.776,69.645,38.465,69.645,38.465z"></path></svg>