<svg xmlns="http://www.w3.org/2000/svg" xmlns:xlink="http://www.w3.org/1999/xlink" version="1.1" x="0px" y="0px" viewBox="0 0 100 100" enable-background="new 0 0 100 100" xml:space="preserve"><g><path d="M35.706,76.106l1.613,5.065c0.599,1.882,2.338,3.083,4.213,3.083c0.444,0,0.896-0.067,1.343-0.21   c2.327-0.741,3.613-3.229,2.871-5.557l-2.109-6.623c0.576,0.513,1.311,0.844,2.111,0.915c0.11,0.01,2.413,0.174,3.527-1.866   l5.618-10.039L42.89,60.798L35.706,76.106z"></path><path d="M95.816,23.863c-0.529-0.603-1.24-0.935-2.002-0.935c-2.131,0-3.467,1.932-4.883,3.977   c-0.475,0.687-1.258,1.817-1.857,2.416c-0.619-0.017-4.572-0.017-5.115-0.006c-0.594-0.597-1.361-1.715-1.832-2.396   c-1.41-2.052-2.742-3.99-4.896-3.99c-0.762,0-1.473,0.333-2.002,0.935c-1.922,2.19-1.35,9.55-1,12.72   c-0.027,0.294-0.035,1.206-0.025,1.357c0,0-38.183,0.109-41,0.062c-9.57-0.06-16.314-2.292-19.515-6.466   c-3.45-4.499-1.999-10.236-1.961-10.382c0.543-1.958-0.597-3.989-2.554-4.544c-1.963-0.557-4.008,0.583-4.565,2.548   c-0.106,0.375-2.539,9.269,3.136,16.778c3.567,4.72,9.366,7.69,17.294,8.875c-0.229,0.757-0.354,1.549-0.354,2.362   c0,0-0.034,4.402,0.814,7.11c0.031,0.101,2.861,8.97,2.861,8.97c-1.128-1.002-2.737-1.403-4.278-0.913   c-2.327,0.741-3.613,3.229-2.872,5.556l4.229,13.277c0.599,1.882,2.339,3.083,4.212,3.083c0.445,0,0.897-0.067,1.343-0.21   c2.327-0.741,3.613-3.229,2.872-5.557l-2.073-6.51c1.001,0.736,2.181,0.816,2.308,0.816c0.844,0,1.649-0.294,2.292-0.811   l0.02,0.062l6.257-13.321c0.238-0.507,0.747-0.781,1.306-0.781c0.001,0,0.003,0,0.005,0l19.278,0.026v22.336   c0,2.442,2.055,4.422,4.494,4.422c2.443,0,4.498-1.979,4.498-4.422V57.943h1.998v22.362c0,2.442,1.887,4.422,4.328,4.422   s4.328-1.979,4.328-4.422v-25.14l0.709-1.847c-5.994-4.023-6.934-7.418-6.938-7.42c-0.266-0.433-0.133-0.999,0.301-1.266   c0.432-0.267,0.998-0.133,1.266,0.299c-0.004-0.003,1.992,2.294,5.012,3.896c1.223,0.649,3.322,0.997,4.176,1   c2.619-0.512,5.395-2.722,6.262-3.464c2.111-1.802,4.602-4.644,4.883-8.2c0.047-0.138,0.086-0.28,0.105-0.428   C96.926,35.864,98.041,26.398,95.816,23.863z"></path></g></svg>