<svg xmlns="http://www.w3.org/2000/svg" xmlns:xlink="http://www.w3.org/1999/xlink" version="1.1" x="0px" y="0px" viewBox="0 0 100 100" enable-background="new 0 0 100 100" xml:space="preserve"><path d="M46.548,77.394c-15.12-1.183-27.22-9.055-29.641-19.126c3.439,4.9,9.123,8.118,15.552,8.118c10.477,0,19-8.523,19-19  c0-6.149-2.915-11.785-7.858-15.359c2.228-0.31,4.535-0.473,6.899-0.473c16.287,0,29.894,7.729,33.243,18.054  c-0.691-0.362-1.466-0.587-2.3-0.587c-2.757,0-5,2.243-5,5c0,8.89-11.066,15.594-25.742,15.594c-2.757,0-5,2.243-5,5  C45.701,75.643,46.014,76.598,46.548,77.394z M81.443,51.021c-1.656,0-3,1.343-3,3c0,10.218-11.824,17.594-27.742,17.594  c-1.657,0-3,1.343-3,3s1.343,3,3,3c19.227,0,33.742-10.067,33.742-23.594C84.443,52.363,83.102,51.021,81.443,51.021z   M41.327,32.902l-2.868-10.517l-2.296,8.417c-1.193-0.266-2.431-0.417-3.704-0.417s-2.511,0.151-3.704,0.417l-2.296-8.417  l-2.868,10.517c-4.871,2.989-8.132,8.349-8.132,14.483c0,9.389,7.611,17,17,17s17-7.611,17-17  C49.459,41.251,46.198,35.892,41.327,32.902z"></path></svg>