<svg xmlns="http://www.w3.org/2000/svg" xmlns:xlink="http://www.w3.org/1999/xlink" version="1.1" x="0px" y="0px" viewBox="0 0 100 100" enable-background="new 0 0 100 100" xml:space="preserve"><g><path fill="none" d="M35.584,80.331c-0.228-0.622-1.303-1.584-1.756-1.884c-0.024,0.049-0.051,0.112-0.079,0.184   c-0.246,0.832-0.445,1.488-0.54,1.749c0,0.003-0.001,0.006-0.002,0.009c-0.097,0.375-0.179,0.728-0.223,0.981   C33.327,81.283,34.949,80.786,35.584,80.331z"></path><path fill="none" d="M33.535,37.478c-0.512-2.019-1.605-4.116,0.229-6.729c-2.85,0.324-6.534,3.326-10.404,2.409   c-5.732-1.358-6.217-5.722-7.643-6.862c1.444,5.431-3.449,10.947-3.835,13.657c-0.966,6.774,1.412,16.486,4.328,20.627   c1.323,1.877,9.531,9.359,11.193,11.16c0.151-2.567,0.752-4.639-0.771-7.825c-1.524-3.186-5.203-7.327-3.484-13.406   c0.885-3.13,5.844-5.806,6.676-6.637C30.654,43.04,34.006,39.334,33.535,37.478z"></path><path fill="none" d="M24.391,70.204c-0.709-0.851-0.206,11.757,0.138,14.094c0.344-2.681,2.338-9.725,2.613-11.304   C26.219,71.84,25.083,71.035,24.391,70.204z"></path><path fill="none" d="M51.479,69.723c-1.408-0.384-4.92,1.027-7.976-0.825c-2.269-1.374-5.981-10.931-5.569-8.317   c0.302,1.911-0.136,4.527-0.275,5.774c-0.139,1.247-1.629,5.213-2.044,6.182c-0.235,0.55-0.868,2.697-1.434,4.623   c1.415,1.355,4.981,5.685,5.609,6.833c2.081-0.685,4.063-1.582,4.137-2.45c0.676-7.968,2.052-8.714,5.137-10.529   C49.771,70.597,52.992,70.136,51.479,69.723z"></path><path d="M83.931,78.316c-1.104-1.021-3.298-0.424-3.575,1.101c-0.277,1.523,4.718,6.812,3.193,8.774   c-1.406,1.813-5.394-2.449-18.425-5.819c-2.087-0.539-4.363-3.506-4.569-4.536c-0.357-1.787-0.225-8.495-0.688-10.519   c-0.2-0.874-0.898-2.327-1.101-3.026c-4.881-16.913-11.618-22.619-22.597-26.529c-1.625-0.578-2.13-2.159-2.216-3.879   c-0.126-2.495,1.988-4.794,2.632-7.481c0.636-2.654,0.318-2.604,0.937-3.124c1.925-1.614,1.512-2.788,1.973-3.388   c1.073-1.399,3.538-6.953,2.152-7.646c-1.385-0.692-7.764,3.863-9.218,4.321c-1.369-0.745-5.15-1.845-7.065-2.078   c-1.035-1.512-1.846-9.874-4.617-9.874c-1.426,0-3.418,6.411-3.418,7.38c0,0.969-0.566,1.383-0.693,2.217   c-0.151,0.991,0.186,2.083-0.016,2.632c-0.341,0.93-1.992,4.546-1.924,6.234c0.112,2.777,0.342,4.502,0.207,6.013   c-0.133,1.486-1.257,4.104-1.714,5.156c-0.353,0.813-1.613,3.458-2.136,5.156c-0.55,1.788-0.253,8.603,0.413,11.551   c0.686,3.038,1.988,7.193,3.231,9.238c1.236,2.035,3.324,14.562,3.739,16.501c0.416,1.939,0.693,8.451-0.138,9.144   c-0.832,0.692-1.663,0.318-2.702,1.247c-1.037,0.928-0.625,3.073,0,3.463c1.284,0.801,4.9,0.61,5.632,0.216   c0.501-0.271-0.007,0.75,0.962,1.581s5.088,0.756,5.666,0.004c0.178,0.615,1.543,0.583,2,0.293c0.791-0.503,0.363-1.568,0.771-1.4   c2.013,0.829,18.484-1.959,20.646-2.472c2.105-0.499,4.173-2.842,5.88-2.991c1.957-0.172,3.114,1.748,4.433,2.234   c1.875,0.692,9.763,2.199,18.362,6.553c2.318,1.175,5.014,1.216,7.065-0.692C92.301,88.954,86.863,81.032,83.931,78.316z    M33.209,80.38c0.095-0.261,0.294-0.917,0.54-1.749c0.028-0.071,0.055-0.135,0.079-0.184c0.453,0.3,1.528,1.262,1.756,1.884   c-0.635,0.455-2.258,0.952-2.601,1.039c0.044-0.254,0.126-0.606,0.223-0.981C33.208,80.386,33.209,80.383,33.209,80.38z    M24.528,84.298c-0.343-2.337-0.847-14.944-0.138-14.094c0.693,0.831,1.829,1.636,2.751,2.79   C26.866,74.573,24.872,81.617,24.528,84.298z M29.823,43.872c-0.832,0.832-5.791,3.507-6.676,6.637   c-1.718,6.079,1.96,10.221,3.484,13.406c1.523,3.187,0.922,5.258,0.771,7.825c-1.662-1.801-9.87-9.283-11.193-11.16   c-2.917-4.141-5.294-13.853-4.328-20.627c0.386-2.71,5.28-8.226,3.835-13.657c1.426,1.14,1.911,5.504,7.643,6.862   c3.87,0.917,7.554-2.085,10.404-2.409c-1.835,2.613-0.741,4.71-0.229,6.729C34.006,39.334,30.654,43.04,29.823,43.872z    M49.064,71.013c-3.085,1.815-4.46,2.562-5.137,10.529c-0.073,0.868-2.056,1.766-4.137,2.45c-0.628-1.148-4.194-5.478-5.609-6.833   c0.566-1.926,1.199-4.073,1.434-4.623c0.416-0.969,1.905-4.935,2.044-6.182c0.139-1.247,0.577-3.863,0.275-5.774   c-0.413-2.613,3.3,6.943,5.569,8.317c3.056,1.853,6.567,0.441,7.976,0.825C52.992,70.136,49.771,70.597,49.064,71.013z"></path></g></svg>