<svg xmlns="http://www.w3.org/2000/svg" xmlns:xlink="http://www.w3.org/1999/xlink" version="1.1" x="0px" y="0px" viewBox="0 0 100 100" enable-background="new 0 0 100 100" xml:space="preserve"><ellipse fill-rule="evenodd" clip-rule="evenodd" cx="48.8" cy="23.3" rx="0.5" ry="1.6"></ellipse><ellipse fill-rule="evenodd" clip-rule="evenodd" cx="39.6" cy="23.3" rx="0.5" ry="1.6"></ellipse><path fill-rule="evenodd" clip-rule="evenodd" d="M55.8,26.8c0.2-0.6,0.2-1.2,0.2-1.8c0-4.9-5.3-8.9-11.8-8.9  c-6.5,0-11.8,4-11.8,8.9c0,0.6,0.1,1.2,0.2,1.7c0,0,0,0,0,0c-1.8,2.2-3.3,6.3-2.4,7.3c0.9,0.9,4.9-0.2,7.3-1.7  c1.9,1,4.2,1.6,6.7,1.6c2.5,0,4.8-0.6,6.7-1.6c2.4,1.5,6.4,2.6,7.3,1.7C59,33.1,57.5,29.1,55.8,26.8z M39.6,27.4  c-1.7,0-3.1-1.4-3.1-3.1c0-1.7,1.4-3.1,3.1-3.1c1.7,0,3.1,1.4,3.1,3.1C42.7,26,41.3,27.4,39.6,27.4z M44.2,19.1c1.3,0,2.9,1.4,0,1.5  C41.3,20.6,42.9,19.1,44.2,19.1z M45.6,24.3c0-1.7,1.4-3.1,3.1-3.1c1.7,0,3.1,1.4,3.1,3.1c0,1.7-1.4,3.1-3.1,3.1  C47,27.4,45.6,26,45.6,24.3z"></path><path fill-rule="evenodd" clip-rule="evenodd" d="M53.4,20.6c4,2.4,10.2,2.1,13.2-1.7C62.4,21.2,58,21.5,53.4,20.6z"></path><path fill-rule="evenodd" clip-rule="evenodd" d="M53.6,21.5c2.9,3.1,8.4,3.8,11.6,1.2C61.1,23.6,57.4,23.2,53.6,21.5z"></path><path fill-rule="evenodd" clip-rule="evenodd" d="M52.8,19.6c3.9,1.3,10.4-0.6,11-4.3C60.6,18.3,57.1,19.3,52.8,19.6z"></path><path fill-rule="evenodd" clip-rule="evenodd" d="M35.1,20.6c-4.6,0.9-9,0.6-13.2-1.7C24.9,22.7,31.1,23,35.1,20.6z"></path><path fill-rule="evenodd" clip-rule="evenodd" d="M35,21.5c-3.8,1.7-7.5,2.1-11.6,1.2C26.7,25.3,32.2,24.6,35,21.5z"></path><path fill-rule="evenodd" clip-rule="evenodd" d="M35.8,19.6c-4.3-0.3-7.8-1.3-11-4.3C25.3,19,31.8,20.9,35.8,19.6z"></path><path fill-rule="evenodd" clip-rule="evenodd" d="M38.8,7.9c0-0.8-0.5-1.6-1.3-1.9c0-0.8-0.2-1.4-0.5-1.4c-0.2,0-0.4,0.5-0.4,1.2  c-0.1,0-0.2,0-0.2,0c-0.3,0-0.7,0.1-0.9,0.2C35.1,5.4,34.6,5.1,34,5c0-0.8-0.2-1.5-0.5-1.5c-0.2,0-0.4,0.7-0.5,1.5  c-0.6,0.1-1.1,0.4-1.5,0.8c-0.3-0.1-0.6-0.2-0.9-0.2c-0.1,0-0.2,0-0.2,0C30.4,5,30.2,4.5,30,4.5c-0.2,0-0.4,0.6-0.5,1.4  c-0.8,0.4-1.3,1.1-1.3,1.9c0,0.8,0.5,1.6,1.3,1.9c0,0,0,0,0,0c2.7,1.3,4.4,4.8,5,8.5c0.6-0.5,1.2-0.9,1.9-1.3  c-0.2-2.7,0.2-5.6,1.6-7.6c0,0,0,0,0,0C38.6,9.1,38.8,8.5,38.8,7.9z"></path><path fill-rule="evenodd" clip-rule="evenodd" d="M60.1,7.9c0-0.8-0.5-1.6-1.3-1.9c0-0.8-0.2-1.4-0.5-1.4c-0.2,0-0.4,0.5-0.4,1.2  c-0.1,0-0.2,0-0.2,0c-0.3,0-0.7,0.1-0.9,0.2c-0.4-0.4-0.9-0.7-1.5-0.8c0-0.8-0.2-1.5-0.5-1.5S54.3,4.2,54.3,5  c-0.6,0.1-1.1,0.4-1.5,0.8c-0.3-0.1-0.6-0.2-0.9-0.2c-0.1,0-0.2,0-0.2,0c-0.1-0.7-0.2-1.2-0.4-1.2c-0.2,0-0.4,0.6-0.5,1.4  C50,6.3,49.5,7,49.5,7.9c0,0.7,0.3,1.3,0.8,1.7c0,0,0,0,0,0c1.4,2.1,1.9,4.9,1.6,7.6c0.7,0.4,1.3,0.8,1.8,1.2c0.6-3.7,2.3-7.3,5-8.6  c0,0,0,0,0,0C59.6,9.4,60.1,8.7,60.1,7.9z"></path><path d="M75.4,66.9c-1.5-5.4-5-8.2-8.8-8.9c-1.5-0.3-3.1-0.2-4.5,0.2c-1.5,0.4-2.8,1.2-3.9,2.2c-2.6,2.4-3.9,6.4-2.3,11.5  c1.2,3.6,3.6,5.4,6,5.7c1,0.1,2,0.1,2.9-0.2c0.9-0.3,1.8-0.8,2.5-1.5l0,0l0,0c1.7-1.7,2.6-4.5,1.5-7.9c-0.3-0.8-1.2-1.3-2-1  c-0.8,0.3-1.3,1.2-1,2c0.7,2.1,0.2,3.7-0.7,4.6l0,0c-0.3,0.3-0.8,0.6-1.2,0.7c-0.4,0.1-0.9,0.2-1.4,0.1c-1.3-0.2-2.7-1.3-3.4-3.6  c-1.2-3.7-0.4-6.5,1.4-8.2c0.7-0.7,1.6-1.2,2.6-1.5c1-0.3,2-0.3,3.1-0.2c2.6,0.5,5.2,2.5,6.3,6.6c1,3.8,0.4,7.1-1,9.8  c-1.7,3.2-4.7,5.5-7.7,6.4c-1.3,0.4-2.7,0.6-4.1,0.6c-2.6,0-5.3-0.6-7.6-2.1c-0.1-0.1-0.2-0.1-0.3-0.2c-1.8-6.2-1.7-14.7,1.1-18.2  c0-0.1,0-0.1,0-0.1c2.5-2.6,4.1-6.2,4.1-10.3c0-3.4-1.1-6.4-2.9-8.9c-1.5-3.2-4.3-6.2-5.5-10.3c-1.3,0.3-2.8,0.5-4.3,0.5  c-1.5,0-3-0.2-4.3-0.6c-1.2,4.2-4.1,7.3-5.6,10.6l0,0c-1.7,2.4-2.7,5.4-2.7,8.6c0,4.1,1.6,7.8,4.1,10.3c0,0.1,0,0.1,0,0.2  c4.2,5.2,2.4,21.8-3,24.7c-0.4,0.2-0.5,0.5-0.4,0.8c-0.5,0.3-0.9,0.8-1.1,1.4c-0.2,0.8,0.2,1.7,0.8,2.2c-0.2,0.8-0.1,1.4,0.1,1.5  c0.2,0,0.5-0.4,0.7-1c0.1,0,0.2,0.1,0.2,0.1c0.3,0.1,0.7,0.1,1,0c0.3,0.5,0.7,0.9,1.2,1.2c-0.2,0.8-0.1,1.5,0.1,1.6s0.6-0.6,0.8-1.4  c0.6,0,1.2-0.1,1.6-0.5c0.3,0.2,0.6,0.3,0.9,0.4c0.1,0,0.2,0,0.3,0c-0.1,0.7,0,1.2,0.2,1.2c0.2,0.1,0.6-0.5,0.8-1.3  c0.8-0.2,1.5-0.8,1.7-1.6c0-0.2,0.1-0.3,0-0.5c0.1-0.3,0-0.8-0.4-1.6c-3-4.9-1.4-16.5,1.4-21.2c0.1,2.3,0.4,4.3,0.9,6.1  c1,3.5,2.9,6,5.1,7.9c-0.1,2.9-0.6,5.5-1.6,7.3c-0.4,0.7-0.5,1.2-0.4,1.6c0,0.2,0,0.3,0,0.5c0.2,0.8,0.9,1.4,1.7,1.6  c0.2,0.8,0.5,1.3,0.8,1.3c0.2,0,0.3-0.6,0.2-1.2c0.1,0,0.2,0,0.3,0c0.3-0.1,0.6-0.2,0.9-0.4c0.4,0.3,1,0.5,1.6,0.5  c0.2,0.8,0.6,1.4,0.8,1.4s0.3-0.8,0.1-1.6c0.6-0.2,1-0.7,1.2-1.2c0.3,0,0.6,0,1,0c0.1,0,0.2-0.1,0.2-0.1c0.2,0.6,0.5,1.1,0.7,1  c0.2-0.1,0.3-0.7,0.1-1.5c0.7-0.5,1-1.4,0.8-2.2c-0.1-0.6-0.5-1.1-1.1-1.4c0.1-0.3,0-0.6-0.4-0.8c-0.7-0.4-1.4-1.1-2-1.9  c1.9,0.6,3.9,0.9,5.8,0.9c1.8,0,3.5-0.3,5-0.7c3.8-1.1,7.5-4,9.6-8C75.9,75.7,76.7,71.5,75.4,66.9z M46.6,75.3  c-0.5-1.5-0.7-3.2-0.8-5.1c1.2,2.1,2.1,5.4,2.6,8.8C47.7,78,47.1,76.7,46.6,75.3z"></path></svg>