<svg id="Capa_1" enable-background="new 0 0 512 512" height="512" viewBox="0 0 512 512" width="512" xmlns="http://www.w3.org/2000/svg"><g><path d="m333.333 459.774-17 44.726h-118.666l-19-44.726v-58.774h154.666z" fill="#8ac9fe"/><path d="m247.67 504.5h-50l-19-44.73v-58.77h50v58.77z" fill="#60b7ff"/><path d="m399.276 205.724c0-78.515-63.155-142.279-141.436-143.265-79.208-.997-144.674 63.237-145.115 142.449-.249 44.776 20.045 84.817 52.005 111.255 19.751 16.338 31.27 40.564 31.27 66.196v18.641h120v-18.634c0-25.768 11.754-49.971 31.565-66.449 31.596-26.279 51.711-65.885 51.711-110.193z" fill="#ecf6fe"/><path d="m246 382.36v18.64h-50v-18.64c0-25.63-11.52-49.86-31.27-66.2-31.96-26.44-52.25-66.48-52-111.25.44-79.21 65.9-143.45 145.11-142.45 7.93.1 15.7.84 23.26 2.18-66.68 11.81-117.98 70.18-118.37 140.27-.25 44.77 20.04 84.81 52 111.25 19.75 16.34 31.27 40.57 31.27 66.2z" fill="#dbebfc"/><path d="m264.427 305c33.407-4.146 59.269-32.636 59.269-67.169 0-5.608-.358-11.052-1.02-16.331-2.638-21.088-10.137-39.517-19.204-54.895-13.044-22.137-29.337-37.945-39.045-46.228-5.132-4.382-8.427-6.661-8.427-6.661s-3.295 2.279-8.427 6.661c-9.707 8.283-26 24.092-39.045 46.228-9.067 15.379-16.567 33.808-19.204 54.895-.661 5.279-1.02 10.723-1.02 16.331 0 34.532 25.861 63.023 59.269 67.169" fill="#c6ea7c"/><path d="m271 303.85c-2.15.49-4.34.87-6.57 1.15h-16.86c-33.4-4.15-59.27-32.64-59.27-67.17 0-5.61.36-11.05 1.02-16.33 2.64-21.09 10.14-39.52 19.21-54.89 13.04-22.14 29.34-37.95 39.04-46.23 5.14-4.38 8.43-6.66 8.43-6.66s3.29 2.28 8.43 6.66c1.95 1.66 4.16 3.63 6.57 5.89-9.55 9-22.05 22.65-32.47 40.34-9.07 15.37-16.57 33.8-19.21 54.89-.66 5.28-1.02 10.72-1.02 16.33 0 32.23 22.54 59.2 52.7 66.02z" fill="#b2e254"/><g><g><path d="m256 41.129c-4.143 0-7.5-3.358-7.5-7.5v-26.129c0-4.142 3.357-7.5 7.5-7.5s7.5 3.358 7.5 7.5v26.129c0 4.142-3.357 7.5-7.5 7.5z"/></g><g><path d="m129.08 89.308-18.476-18.476c-2.929-2.929-2.929-7.678 0-10.606 2.931-2.929 7.679-2.929 10.607 0l18.476 18.476c2.929 2.929 2.957 7.706 0 10.606-2.999 2.942-8.624 2.005-10.607 0z"/></g><g><path d="m390.788 351.016-18.476-18.477c-2.929-2.929-2.929-7.678.001-10.606 2.929-2.93 7.678-2.929 10.606 0l18.476 18.477c2.929 2.929 3.03 7.783-.001 10.606-3.269 3.047-8.081 2.297-10.606 0z"/></g><g><path d="m84.009 213.121h-26.129c-4.143 0-7.5-3.358-7.5-7.5s3.357-7.5 7.5-7.5h26.129c4.143 0 7.5 3.358 7.5 7.5s-3.358 7.5-7.5 7.5z"/></g><g><path d="m454.12 213.121h-26.129c-4.143 0-7.5-3.358-7.5-7.5s3.357-7.5 7.5-7.5h26.129c4.143 0 7.5 3.358 7.5 7.5s-3.357 7.5-7.5 7.5z"/></g><g><path d="m110.605 351.016c-2.949-2.91-2.93-7.677-.001-10.606l18.476-18.477c2.93-2.929 7.679-2.93 10.606 0 2.93 2.929 2.93 7.677.001 10.606l-18.476 18.477c-3.461 2.859-7.919 2.651-10.606 0z"/></g><g><path d="m372.313 89.308c-2.834-3.02-2.929-7.677 0-10.606l18.476-18.476c2.93-2.929 7.678-2.929 10.607 0s2.929 7.677 0 10.606l-18.476 18.476c-3.295 3.005-7.67 3.13-10.607 0z"/></g><path d="m363.25 99.744c-28.048-28.38-65.449-44.285-105.315-44.784-40.363-.528-78.502 14.874-107.465 43.316-28.949 28.428-45.016 66.283-45.239 106.592-.104 18.775 3.2 37.115 9.819 54.509 1.474 3.872 5.81 5.815 9.677 4.342 3.872-1.473 5.815-5.806 4.343-9.677-5.958-15.657-8.933-32.174-8.839-49.091.201-36.282 14.673-70.366 40.749-95.973 26.091-25.621 60.445-39.494 96.767-39.02 73.906.925 134.034 61.827 134.034 135.761 0 40.46-17.862 78.525-49.005 104.433-21.782 18.112-34.275 44.434-34.275 72.217v11.13h-45v-81.063c.617.083 1.233.085 1.851.005 37.537-4.659 65.845-36.734 65.845-74.611 0-26.331-7.941-52.438-21.262-75.034-13.175-22.356-29.371-38.511-40.637-48.125-5.36-4.577-8.883-7.023-9.03-7.125-2.502-1.747-6.031-1.747-8.533 0-.147.102-3.67 2.549-9.028 7.124-11.268 9.615-27.464 25.77-40.638 48.125-13.323 22.599-21.263 48.708-21.263 75.035 0 37.877 28.308 69.953 65.845 74.611.629.079 1.248.068 1.851-.007v81.066h-45v-11.14c0-27.873-12.389-54.108-33.988-71.979-8.965-7.416-16.955-15.955-23.748-25.377-2.423-3.36-7.112-4.119-10.47-1.698-3.36 2.422-4.12 7.11-1.698 10.47 7.54 10.458 16.406 19.933 26.354 28.163 18.145 15.011 28.551 37.034 28.551 60.421v11.14h-9.833c-4.143 0-7.5 3.358-7.5 7.5v58.774c0 1.008.203 2.005.597 2.933l19 44.726c1.177 2.769 3.895 4.567 6.903 4.567h118.666c3.114 0 5.904-1.924 7.011-4.835l17-44.726c.319-.842.489-1.765.489-2.665v-58.774c0-4.142-3.357-7.5-7.5-7.5h-9.836v-11.13c0-23.313 10.521-45.431 28.867-60.685 34.58-28.768 54.413-71.036 54.413-115.965 0-39.935-15.459-77.571-43.53-105.976zm-156.79 87.465 42.04 26.302v36.163l-51.044-31.933c1.694-10.317 4.705-20.526 9.004-30.532zm108.084 30.532-51.044 31.934v-36.163l42.04-26.302c4.299 10.004 7.31 20.213 9.004 30.531zm-51.041 79.816c-.001 0-.002 0-.003 0v-30.189l52.642-32.933c.852 30.896-21.202 59.221-52.639 63.122zm-15.003-167.994v18.897c0 4.142 3.357 7.5 7.5 7.5s7.5-3.358 7.5-7.5v-18.897c13.967 12.707 26.179 27.605 35.383 44.12l-35.383 22.136v-14.669c0-4.142-3.357-7.5-7.5-7.5s-7.5 3.358-7.5 7.5v14.669l-35.382-22.137c9.202-16.515 21.415-31.412 35.382-44.119zm-.003 167.994c-31.256-3.879-53.493-32.265-52.639-63.122l52.642 32.933v30.189c-.001 0-.002 0-.003 0zm77.336 154.713h-23.493c-4.143 0-7.5 3.358-7.5 7.5s3.357 7.5 7.5 7.5h20.121l-11.301 29.73h-108.53l-12.63-29.73h79.66c4.143 0 7.5-3.358 7.5-7.5s-3.357-7.5-7.5-7.5h-83.493v-43.77h139.666z"/></g></g></svg>