<svg id="Capa_1" enable-background="new 0 0 512 512" height="512" viewBox="0 0 512 512" width="512" xmlns="http://www.w3.org/2000/svg"><g><path d="m67.765 182.874v-80c22.091 0 40 17.909 40 40 0 22.092-17.909 40-40 40z" fill="#ffe177"/><circle cx="256.995" cy="317.402" fill="#dbebfc" r="40"/><path d="m92.16 252.742c-46.756 0-84.66 37.904-84.66 84.66s37.904 84.66 84.66 84.66 84.66-37.904 84.66-84.66-37.904-84.66-84.66-84.66zm0 139.44c-30.206 0-54.78-24.574-54.78-54.78s24.574-54.78 54.78-54.78 54.78 24.574 54.78 54.78-24.574 54.78-54.78 54.78z" fill="#528fd8"/><path d="m419.84 252.742c-46.756 0-84.66 37.904-84.66 84.66s37.904 84.66 84.66 84.66 84.66-37.904 84.66-84.66-37.904-84.66-84.66-84.66zm0 139.44c-30.206 0-54.78-24.574-54.78-54.78s24.574-54.78 54.78-54.78 54.78 24.574 54.78 54.78-24.574 54.78-54.78 54.78z" fill="#528fd8"/><circle cx="92.16" cy="337.402" fill="#dbebfc" r="19.92"/><path d="m227.711 387.062h58.568v35h-58.568z" fill="#528fd8" transform="matrix(-1 0 0 -1 513.991 809.124)"/><circle cx="419.84" cy="337.402" fill="#dbebfc" r="19.92"/><path d="m370.08 166.708h-59.16c-11.001 0-19.92-8.918-19.92-19.92 0-11.002 8.918-19.92 19.92-19.92h59.16c11.001 0 19.92 8.918 19.92 19.92 0 11.002-8.918 19.92-19.92 19.92z" fill="#ffe177"/><path d="m360.92 166.71h-50c-11 0-19.92-8.92-19.92-19.92 0-5.5 2.23-10.48 5.84-14.09 3.6-3.6 8.58-5.83 14.08-5.83h50c-5.5 0-10.48 2.23-14.08 5.83-3.61 3.61-5.84 8.59-5.84 14.09 0 11 8.92 19.92 19.92 19.92z" fill="#ffd15b"/><path d="m475.882 264.247c-3.29-2.519-7.997-1.895-10.516 1.393s-1.896 7.996 1.393 10.515c19.219 14.722 30.241 37.046 30.241 61.245 0 42.546-34.614 77.16-77.16 77.16-40.015 0-73.006-30.621-76.79-69.66h14.977c3.717 30.816 30.01 54.782 61.813 54.782 34.342 0 62.28-27.938 62.28-62.28s-27.938-62.28-62.28-62.28c-10.926 0-21.197 2.837-30.133 7.799l-8.762-12.118c11.429-6.701 24.716-10.562 38.895-10.562 5.809 0 11.568.643 17.12 1.911 4.03.921 8.059-1.602 8.981-5.641.923-4.038-1.604-8.06-5.642-8.982-6.645-1.518-13.529-2.288-20.46-2.288-17.458 0-33.798 4.88-47.728 13.346l-42.219-58.391 12.235-25.985h27.952c16.71-1.568 25.85-10.708 27.42-27.42 0-15.12-12.301-27.42-27.42-27.42h-16.37c-4.143 0-7.5 3.358-7.5 7.5s3.357 7.5 7.5 7.5h16.37c6.849 0 12.42 5.572 12.42 12.42-.712 7.57-4.852 11.71-12.42 12.42h-59.16c-6.849 0-12.42-5.572-12.42-12.42.712-7.57 4.852-11.71 12.42-12.42h10.11c4.143 0 7.5-3.358 7.5-7.5s-3.357-7.5-7.5-7.5h-10.11c-16.71 1.568-25.85 10.708-27.42 27.42 0 15.12 12.301 27.42 27.42 27.42h14.63l-9.083 19.29h-105.566c-4.143 0-7.5 3.358-7.5 7.5s3.357 7.5 7.5 7.5h98.504l-31.258 66.388c-6.374-3.184-13.554-4.987-21.151-4.987-14.839 0-28.106 6.844-36.823 17.536l-74.466-78.938h32.504c4.143 0 7.5-3.358 7.5-7.5s-3.357-7.5-7.5-7.5h-40.118l21.273-79.393c2.627-9.814 11.565-16.669 21.734-16.669h28.591c4.143 0 7.5-3.358 7.5-7.5s-3.357-7.5-7.5-7.5h-28.59c-16.948 0-31.844 11.428-36.224 27.789l-6.738 25.147h-23.471c-3.607-22.64-23.263-40-46.902-40-4.143 0-7.5 3.358-7.5 7.5v80c0 4.142 3.357 7.5 7.5 7.5 23.639 0 43.295-17.36 46.902-40h19.452l-25.8 96.287c-58.569-11.161-108.319 34.607-108.319 90.741 0 50.817 41.343 92.16 92.16 92.16s92.16-41.343 92.16-92.16c0-40.072-25.71-74.246-61.499-86.91l9.263-34.572 80.31 85.133c-1.875 5.099-2.9 10.606-2.9 16.348 0 23.639 17.36 43.295 40 46.902v15.258h-21.783c-4.143 0-7.5 3.358-7.5 7.5v35c0 4.142 3.357 7.5 7.5 7.5h58.567c4.143 0 7.5-3.358 7.5-7.5v-35c0-4.142-3.357-7.5-7.5-7.5h-21.784v-15.258c12.83-2.044 23.954-9.247 31.194-19.404h32.297c3.83 47.323 43.561 84.66 91.854 84.66 50.817 0 92.16-41.343 92.16-92.16.001-28.904-13.164-55.567-36.117-73.152zm-400.617-89.746v-63.253c14.317 3.394 25 16.286 25 31.626s-10.683 28.233-25 31.627zm94.055 162.901c0 42.546-34.614 77.16-77.16 77.16s-77.16-34.614-77.16-77.16c0-46.808 43.26-83.577 89.417-76.176l-3.879 14.475c-36.688-4.958-70.658 24.55-70.658 61.701 0 34.341 27.938 62.28 62.28 62.28s62.28-27.938 62.28-62.28c0-26.261-16.346-48.761-39.391-57.904l3.875-14.464c29.393 10.906 50.396 39.228 50.396 72.368zm-77.16-12.42c6.849 0 12.42 5.572 12.42 12.42s-5.571 12.42-12.42 12.42-12.42-5.572-12.42-12.42 5.572-12.42 12.42-12.42zm-.813-14.979c-14.744.432-26.607 12.552-26.607 27.399 0 15.12 12.301 27.42 27.42 27.42s27.42-12.3 27.42-27.42c0-10.119-5.514-18.969-13.69-23.72l5.245-19.573c16.648 7.325 28.306 23.969 28.306 43.293 0 26.07-21.21 47.28-47.28 47.28s-47.28-21.209-47.28-47.28c0-26.949 25.039-49.573 51.736-47.064zm187.432 104.559h-43.567v-20h43.567zm107.647-110.579 11.897 16.454c-2.191 2.773-3.857 5.977-4.851 9.463h-20.311c1.608-10.037 6.379-19.032 13.265-25.917zm33.414 20.999c6.849 0 12.42 5.572 12.42 12.42s-5.571 12.42-12.42 12.42-12.42-5.572-12.42-12.42 5.571-12.42 12.42-12.42zm0-34.86c26.07 0 47.28 21.21 47.28 47.28s-21.21 47.28-47.28 47.28c-23.519 0-43.075-17.263-46.679-39.782h20.31c3.271 11.485 13.85 19.922 26.369 19.922 15.119 0 27.42-12.3 27.42-27.42s-12.301-27.42-27.42-27.42c-3.291 0-6.447.584-9.373 1.651l-11.888-16.442c6.396-3.234 13.616-5.069 21.261-5.069zm-42.278 1.602c-10.559 9.78-17.723 23.163-19.535 38.176h-14.977c1.935-19.958 11.509-37.705 25.749-50.295zm-113.067 57.295v-30.95c0-4.142-3.357-7.5-7.5-7.5s-7.5 3.358-7.5 7.5v30.95c-14.315-3.396-25-16.278-25-31.617 0-17.92 14.579-32.5 32.5-32.5s32.5 14.58 32.5 32.5c0 15.339-10.684 28.221-25 31.617zm26.036-65.223 32.062-68.096 37.377 51.695c-17.969 15.39-29.966 37.559-31.984 62.505h-25.172c1.088-3.985 1.68-8.173 1.68-12.498.001-13.114-5.341-25.002-13.963-33.606z"/></g></svg>