<svg id="Capa_1" enable-background="new 0 0 511.865 511.865" height="512" viewBox="0 0 511.865 511.865" width="512" xmlns="http://www.w3.org/2000/svg"><g><path d="m415.892 467.12h-320.072v-200.746l160.036-143.7 160.036 143.7z" fill="#ecf6fe"/><path d="m285.856 149.617-130.04 116.761v200.739h-60v-200.739l160.04-143.7z" fill="#dbebfc"/><path d="m471.043 304.612c-.001 0-.001 0 0 0-8.223.001-16.123-3.026-22.247-8.524l-192.94-173.247-192.94 173.247c-13.665 12.269-34.766 11.133-47.034-2.53-5.944-6.619-8.955-15.157-8.477-24.041s4.387-17.05 11.006-22.993l215.193-193.227c12.685-11.389 31.818-11.389 44.504 0l215.192 193.227c6.62 5.943 10.528 14.109 11.006 22.993s-2.533 17.421-8.477 24.041c-6.307 7.024-15.341 11.053-24.786 11.054z" fill="#d79b7a"/><path d="m280.856 55.768-212.44 190.76c-6.62 5.94-10.53 14.11-11.01 22.99-.48 8.84 2.51 17.35 8.41 23.96l-2.9 2.61c-13.67 12.27-34.77 11.13-47.03-2.53-5.95-6.62-8.96-15.16-8.48-24.04s4.39-17.05 11.01-22.99l215.19-193.23c12.68-11.39 31.82-11.39 44.5 0z" fill="#d08b61"/><path d="m345.425 311.783c-42.291 0-86.142 35.38-76.574 76.574 2.117 9.115 8.512 10.406 15.395 10.314 42.287-.57 73.584-34.389 76.574-76.574.562-7.945-5.396-10.368-15.395-10.314z" fill="#c6ea7c"/><path d="m298.846 388.362c.87 3.71 2.44 6.13 4.47 7.67-6.04 1.64-12.42 2.55-19.07 2.64-6.88.09-13.28-1.2-15.4-10.31-9.56-41.2 34.29-76.58 76.58-76.58 4.99-.02 8.97.57 11.64 2.15-35.54 8.25-66.39 39.21-58.22 74.43z" fill="#b2e254"/><path d="m170.145 290.06c52.863 0 107.677 44.225 95.718 95.718-2.646 11.394-10.64 13.008-19.243 12.892-52.859-.713-91.98-42.987-95.718-95.718-.704-9.931 6.744-12.96 19.243-12.892z" fill="#c6ea7c"/><path d="m258.216 396.672c-3.35 1.7-7.4 2.05-11.6 2-52.86-.71-91.98-42.99-95.71-95.72-.71-9.93 6.74-12.96 19.24-12.89 5.91 0 11.85.55 17.71 1.61-4.83 1.81-7.38 5.29-6.95 11.28 3.28 46.4 33.97 84.71 77.31 93.72z" fill="#b2e254"/><path d="m498.307 240.947-99.48-89.33c-3.084-2.769-7.825-2.512-10.591.57-2.768 3.082-2.513 7.824.569 10.591l99.482 89.332c10.72 11.605 11.373 23.752 1.956 36.439-9.638 10.741-25.989 11.348-36.437 1.958l-192.94-173.41c-2.85-2.56-7.172-2.56-10.021 0l-192.939 173.409c-12.688 9.389-24.836 8.735-36.441-1.962-9.413-12.687-8.759-24.832 1.962-36.436l215.191-193.231c9.828-8.827 24.649-8.828 34.478 0l83.018 74.549c3.082 2.77 7.823 2.515 10.592-.566 2.768-3.081 2.515-7.823-.566-10.591l-83.021-74.551c-15.541-13.96-38.981-13.96-54.522-.001l-215.19 193.228c-16.569 14.868-17.986 41.062-3.103 57.622 14.857 16.552 41.073 17.955 57.622 3.101l20.39-18.309v183.759c0 4.142 3.357 7.5 7.5 7.5h76c4.143 0 7.5-3.358 7.5-7.5s-3.357-7.5-7.5-7.5h-68.5v-189.728l152.54-136.973 152.54 136.973v189.728h-133.374v-54.482c25.001 4.969 52.74-8.686 67.61-23.904 14.958-15.309 24.074-36.121 25.668-58.604.444-6.272-1.922-10.214-3.985-12.417-5.032-5.373-13.166-5.943-18.915-5.928-28.829.009-60.231 15.572-75.731 40.364-15.408-38.144-59.674-62.078-99.502-62.087-12.547-.08-27.894 4.715-26.746 20.922 1.961 27.662 13.168 53.259 31.556 72.078 18.506 18.939 48.88 35.044 85.046 28.503v55.555h-55.526c-4.143 0-7.5 3.358-7.5 7.5s3.357 7.5 7.5 7.5h211.4c4.143 0 7.5-3.358 7.5-7.5v-183.759l20.387 18.306c16.33 14.677 42.995 13.456 57.621-3.094 16.118-18.24 12.451-46.3-3.098-57.624zm-212.207 106.382c13.533-17.037 36.819-28.046 59.324-28.046 1.661-.008 8.075.027 7.913 2.284-2.823 39.829-31.924 69.103-69.194 69.605-6.593.093-7.245-1.318-7.987-4.511-3.229-13.901 1.137-28.247 9.944-39.332zm-27.543 36.753c-1.239 5.333-3.229 7.203-11.836 7.089-47.587-.641-84.738-37.965-88.338-88.749-.382-5.369 8.466-4.802 11.762-4.862 28.681 0 58.365 14.04 75.624 35.767 11.378 14.323 16.956 32.808 12.788 50.755z"/></g></svg>