<svg id="Capa_1" enable-background="new 0 0 511.868 511.868" height="512" viewBox="0 0 511.868 511.868" width="512" xmlns="http://www.w3.org/2000/svg"><g><path d="m165 42.676h7.39c61.508 0 111.37 49.862 111.37 111.37 0 8.284-6.716 15-15 15h-7.39c-61.508 0-111.37-49.862-111.37-111.37 0-8.284 6.716-15 15-15z" fill="#c6ea7c"/><path d="m274.73 167.809c-3.535 1.545-9.437 1.532-13.36 1.24-61.51 0-111.37-49.87-111.37-111.37 0-4.14 1.68-7.9 4.4-10.61 2.71-2.71 6.46-4.39 10.6-4.39h7.39c5.66 0 11.22.42 16.65 1.24-1.74.75-3.32 1.83-4.64 3.15-2.72 2.71-4.4 6.47-4.4 10.61 0 55.84 41.11 102.1 94.73 110.13z" fill="#b2e254"/><path d="m402.481 42.676h-7.39c-61.508 0-111.37 49.862-111.37 111.37 0 3.539 1.226 6.792 3.276 9.357 2.749 3.439 6.979 5.643 11.724 5.643h7.39c61.508 0 111.37-49.862 111.37-111.37 0-8.284-6.715-15-15-15z" fill="#c6ea7c"/><path d="m313.72 154.049c0 1.77.31 3.47.87 5.04.57 1.58 1.39 3.03 2.41 4.31 1.52 1.9 3.49 3.43 5.75 4.41-5.43.82-10.98 1.24-16.64 1.24h-7.39c-4.74 0-8.97-2.21-11.72-5.65-1.02-1.28-1.84-2.73-2.41-4.31-.56-1.57-.87-3.27-.87-5.04 0-61.51 49.86-111.37 111.37-111.37h7.39c2.12 0 4.13.44 5.96 1.24-53.61 8.03-94.72 54.28-94.72 110.13z" fill="#b2e254"/><path d="m413.97 334.459v.01l-.02.16-41.97 35.11c.8-2.67 1.22-5.49 1.22-8.41 0-16.32-13.23-29.55-29.55-29.55h-76.38c-12.56 0-24.89-3.89-34.89-11.49-13.28-10.09-29.84-16.08-47.81-16.08-8.87 0-17.4 1.46-25.36 4.16l-.68-2.77c15.8-54.24 65.89-93.86 125.23-93.86 69.45 0 126.21 54.27 130.21 122.72z" fill="#d79b7a"/><path d="m413.97 334.459v.01l-.02.16-41.97 35.11c.8-2.67 1.22-5.49 1.22-8.41 0-16.32-13.23-29.55-29.55-29.55h-76.38c-12.56 0-24.89-3.89-34.89-11.49-13.28-10.09-29.84-16.08-47.81-16.08-8.87 0-17.4 1.46-25.36 4.16l-.68-2.77c13.77-47.26 53.56-83.42 102.83-91.94-25.17 16.83-44.16 42.18-52.83 71.94l.68 2.77c7.96-2.7 16.49-4.16 25.36-4.16 17.97 0 34.53 5.99 47.81 16.08 10 7.6 22.33 11.49 34.89 11.49h76.38c6.93 0 13.3 2.39 18.34 6.39.99 5.32 1.66 10.76 1.98 16.29z" fill="#d08b61"/><path d="m371.977 369.738 84.14-70.387c12.573-10.518 31.311-8.756 41.703 3.921 10.081 12.298 8.588 30.377-3.375 40.855l-128.552 112.586c-9.217 8.072-21.053 12.522-33.305 12.522h-122.544c-9.927 0-19.802-1.453-29.308-4.312l-56.173-16.895h-43.462v-116.245h43.462c14.51-16.878 36.004-27.576 60.009-27.576 17.967 0 34.527 5.994 47.806 16.086 10.001 7.601 22.334 11.491 34.895 11.491h76.381c16.318 0 29.546 13.228 29.546 29.546 0 16.318-13.228 29.546-29.546 29.546h-96.527" fill="#fff3de"/><path d="m504.5 321.954c0 8.2-3.41 16.36-10.05 22.17l-128.56 112.59c-9.21 8.07-21.05 12.52-33.3 12.52h-122.55c-9.92 0-19.8-1.45-29.3-4.31l-56.18-16.89h-43.46v-116.25h20v71.25c0 8.284 6.716 15 15 15h18.46l56.18 16.89c9.5 2.86 19.38 4.31 29.3 4.31h122.55c12.25 0 24.09-4.45 33.3-12.52l127.74-111.87c.58 2.33.87 4.72.87 7.11z" fill="#ffe5c2"/><path d="m247.12 390.874v-6.14c0-8.284 6.716-15 15-15h109.86c-1.41 4.78-4 9.05-7.44 12.49-5.34 5.34-12.73 8.65-20.89 8.65z" fill="#ffe5c2"/><path d="m7.5 310.402h73.605v158.833h-73.605z" fill="#528fd8"/><path d="m81.1 449.234v20h-73.6v-158.83h30v131.83c0 3.866 3.134 7 7 7z" fill="#0573ce"/><path d="m503.619 298.513c-12.879-15.704-36.734-17.953-52.312-4.917l-31.415 26.281c-1.157-7.177-2.912-14.324-5.216-21.234-3.465-10.428-8.185-20.43-14.027-29.726-2.204-3.508-6.833-4.563-10.341-2.359-3.507 2.204-4.563 6.834-2.358 10.341 5.202 8.279 9.405 17.186 12.494 26.481 2.052 6.153 3.613 12.509 4.645 18.912.49 2.99.866 6.013 1.13 9.025l-26.376 22.066c-3.647-16.624-18.49-29.104-36.192-29.104h-76.381c-11.12 0-21.899-3.538-30.353-9.961-15.161-11.52-33.262-17.608-52.347-17.608-5.28 0-10.503.481-15.612 1.417 18.03-46.915 63.872-78.887 114.802-78.887 28.252 0 54.809 9.316 76.8 26.942 3.233 2.591 7.952 2.071 10.543-1.162 2.59-3.232 2.07-7.952-1.162-10.542-22.377-17.936-50.068-28.452-78.681-30.025v-29.169c4.18 1.464 10.288 1.527 14.852 1.263 65.545 0 118.87-53.325 118.87-118.87 0-12.407-10.13-21.553-22.5-22.5-45.482-3.485-88.776 20.902-111.222 61.058v-53.559c0-4.142-3.357-7.5-7.5-7.5s-7.5 3.358-7.5 7.5v53.63c-20.333-36.431-59.269-61.127-103.87-61.127-14.088-1.315-29.89 5.599-29.89 22.5 0 13.728 2.324 27.184 6.908 39.997 1.396 3.9 5.688 5.93 9.588 4.535s5.931-5.688 4.535-9.588c-4.002-11.187-6.031-22.943-6.031-34.944 0-7.461 9.417-8.688 14.89-7.5 56.772 0 103.044 45.785 103.851 102.369-.099 7.976-7.867 10.343-14.871 9.001-31.425 0-60.827-14.01-80.669-38.438-2.611-3.215-7.335-3.705-10.55-1.093s-3.704 7.335-1.093 10.55c22.702 27.951 56.349 43.981 92.312 43.981 4.595.272 10.679.184 14.89-1.303v29.197c-27.681 1.465-53.813 11.038-75.985 27.918-23.336 17.768-40.692 42.964-48.89 70.964-11.325 4.701-21.636 11.798-30.174 20.954h-32.607v-13.877c0-4.142-3.357-7.5-7.5-7.5h-73.604c-4.143 0-7.5 3.358-7.5 7.5v158.833c0 4.142 3.357 7.5 7.5 7.5h73.604c4.143 0 7.5-3.358 7.5-7.5v-13.707h34.853l55.121 16.572c18.969 5.71 39.854 5.102 59.502 4.638 4.143 0 7.5-3.358 7.5-7.5s-3.357-7.5-7.5-7.5c-18.102.521-37.74 1.248-55.181-4.002l-56.181-16.89c-.7-.21-38.114-.317-38.114-.317v-101.25h35.955c2.185 0 4.261-.953 5.686-2.609 13.645-15.863 33.445-24.96 54.325-24.96 15.779 0 30.743 5.032 43.271 14.551 11.047 8.395 25.049 13.019 39.428 13.019h76.381c12.158 0 22.05 9.892 22.05 22.05 0 11.446-10.098 22.05-22.05 22.05h-96.53c-4.143 0-7.5 3.358-7.5 7.5s3.357 7.5 7.5 7.5h96.53c14.873 0 29.617-10.259 34.768-24.248l82.515-69.031c11.175-7.67 21.538-6.694 31.089 2.927 7.389 10.49 6.551 20.643-2.514 30.459l-128.565 112.585c-7.841 6.879-17.91 10.667-28.354 10.667h-61.82c-4.143 0-7.5 3.358-7.5 7.5s3.357 7.5 7.5 7.5h61.82c14.085 0 27.667-5.111 38.241-14.387l128.563-112.583c14.86-13.024 16.665-36.103 4.226-51.256zm-108.528-248.337c5.472-1.188 14.891.041 14.891 7.5 0 57.274-46.596 103.87-103.87 103.87-5.264 1.095-14.196-.041-14.852-6.745.408-56.558 46.539-104.625 103.831-104.625zm-380.091 411.56v-143.834h58.604v13.78c0 .033-.005.064-.005.097v116.25c0 .033.004.064.005.097v13.61z"/></g></svg>