<svg id="Capa_1" enable-background="new 0 0 511.86 511.86" height="512" viewBox="0 0 511.86 511.86" width="512" xmlns="http://www.w3.org/2000/svg"><g><path d="m366.891 504.36h-221.922c-16.188 0-29.457-12.844-29.984-29.024l-9.055-278.101h300l-9.055 278.101c-.527 16.18-13.796 29.024-29.984 29.024z" fill="#c6ea7c"/><path d="m405.28 217.24h-262.119c-3.955 0-7.125 3.275-6.996 7.228l8.815 270.872c.11 3.16.69 6.19 1.7 9.02h-1.71c-16.19 0-29.46-12.84-29.99-29.02l-9.05-278.1h300z" fill="#b2e254"/><path d="m342.35 306.17h60.04l-3 92.03h-60.04z" fill="#ecf6fe"/><path d="m109.47 306.17h60.04l3 92.03h-60.04z" fill="#ecf6fe"/><path d="m405.93 152.236h-300l9.035-130.773c.543-7.864 7.081-13.966 14.964-13.966h252.001c7.883 0 14.421 6.102 14.964 13.966z" fill="#c6ea7c"/><path d="m405.93 152.24h-300l9.04-130.78c.54-7.86 7.08-13.96 14.96-13.96h14.62l-8.103 117.257c-.28 4.046 2.927 7.483 6.983 7.483h261.12z" fill="#b2e254"/><g fill="#97d729"><path d="m168.789 72.239-15.527-64.739h205.336l-15.527 64.739z"/><path d="m75.93 152.236h360v45h-360z"/><path d="m174.008 444.36-6.093-187.125h176.03l-6.093 187.125z"/></g><path d="m204.01 444.36h-30l-6.09-187.12h30z" fill="#92ce20"/><path d="m435.93 144.74h-23l-8.557-123.794c-.807-11.745-10.666-20.946-22.443-20.946h-59.66c-4.143 0-7.5 3.358-7.5 7.5 0 .203.015.401.03.6-.016.198-.03.397-.03.6 0 4.142 3.357 7.5 7.5 7.5h26.818l-11.932 49.74h-162.452l-11.932-49.74h126.818c4.143 0 7.5-3.358 7.5-7.5 0-.203-.015-.401-.03-.6.016-.198.03-.397.03-.6 0-4.142-3.357-7.5-7.5-7.5h-159.66c-11.777 0-21.636 9.201-22.442 20.943l-8.558 123.797h-23c-4.143 0-7.5 3.358-7.5 7.5v45c0 4.142 3.357 7.5 7.5 7.5h22.74l8.818 270.84c.663 20.344 17.126 36.28 37.48 36.28h221.922c20.354 0 36.817-15.936 37.48-36.28l8.818-270.84h22.74c4.143 0 7.5-3.358 7.5-7.5v-45c.002-4.142-3.355-7.5-7.498-7.5zm-271.17 245.96h-45.027l-2.508-77.03h45.028zm202.131 106.16h-221.922c-12.213 0-22.091-9.562-22.488-21.768l-2.259-69.392h45.026l1.266 38.904c.132 4.045 3.449 7.256 7.496 7.256h99.24c4.143 0 7.5-3.358 7.5-7.5s-3.357-7.5-7.5-7.5h-91.98l-5.602-172.12h160.523l-5.602 172.12h-24.66c-4.143 0-7.5 3.358-7.5 7.5s3.357 7.5 7.5 7.5h31.92c4.047 0 7.364-3.211 7.496-7.256l1.266-38.904h45.026l-2.259 69.392c-.396 12.206-10.274 21.768-22.487 21.768zm25.236-106.16h-45.027l2.507-77.03h45.028zm2.996-92.03h-45.028l1.34-41.186c-.311-4.699-2.81-7.28-7.496-7.744h-176.019c-4.686.464-7.185 3.045-7.496 7.744l1.34 41.186h-45.028l-3.058-93.93h284.504zm33.307-108.93h-345v-30h69.74c4.143 0 7.5-3.358 7.5-7.5s-3.357-7.5-7.5-7.5h-39.204l8.486-122.766c.269-3.911 3.553-6.974 7.478-6.974h17.129l14.439 60.189c.809 3.373 3.825 5.75 7.293 5.75h174.279c3.468 0 6.482-2.376 7.293-5.748l14.438-60.191h17.129c3.925 0 7.209 3.063 7.478 6.977l8.486 122.763h-212.044c-4.143 0-7.5 3.358-7.5 7.5s3.357 7.5 7.5 7.5h242.58z"/></g></svg>