<svg id="Capa_1" enable-background="new 0 0 512 512" height="512" viewBox="0 0 512 512" width="512" xmlns="http://www.w3.org/2000/svg"><g><path d="m226.72 7.52h-70.758c-8.284 0-15 6.716-15 15v27.884h100.758v-27.884c0-8.285-6.715-15-15-15z" fill="#dbebfc"/><path d="m186.077 7.521c-8.302 0-15.039 6.728-15.039 15.039v27.843h-30.079v-27.842c0-8.312 6.738-15.039 15.039-15.039h30.079z" fill="#c9e2fb"/><path d="m426.472 504.48h-340.944c-5.523 0-10-4.477-10-10v-30.131c0-5.523 4.477-10 10-10h340.944c5.523 0 10 4.477 10 10v30.131c0 5.523-4.477 10-10 10z" fill="#ecf6fe"/><path d="m135.686 504.48h-50.132c-5.534 0-10.026-4.492-10.026-10.026v-30.079c0-5.534 4.492-10.026 10.026-10.026h50.131c-5.535 0-10.026 4.492-10.026 10.026v30.079c0 5.535 4.492 10.026 10.027 10.026z" fill="#dbebfc"/><path d="m426.472 100.535h-340.944c-5.523 0-10-4.477-10-10v-30.131c0-5.523 4.477-10 10-10h340.944c5.523 0 10 4.477 10 10v30.131c0 5.523-4.477 10-10 10z" fill="#ecf6fe"/><path d="m135.686 100.534h-50.132c-5.534 0-10.026-4.492-10.026-10.026v-30.078c0-5.534 4.492-10.026 10.026-10.026h50.131c-5.535 0-10.026 4.492-10.026 10.026v30.079c0 5.534 4.492 10.025 10.027 10.025z" fill="#dbebfc"/><path d="m105.607 100.535h300.786v353.814h-300.786z" fill="#d79b7a"/><path d="m406.393 100.534v20.052h-243.637c-3.876 0-7.018 3.142-7.018 7.018v326.744h-50.131v-353.814z" fill="#d08b61"/><path d="m426.446 297.329c5.534 0 10.026-5.615 10.026-12.533v-25.066c0-6.931-4.492-12.533-10.026-12.533h-340.892c-5.534 0-10.026 5.602-10.026 12.533v25.066c0 6.918 4.492 12.533 10.026 12.533z" fill="#ecf6fe"/><path d="m135.686 297.329h-50.132c-5.534 0-10.026-5.615-10.026-12.533v-25.066c0-6.928 4.492-12.533 10.026-12.533h50.131c-5.535 0-10.026 5.605-10.026 12.533v25.066c0 6.918 4.492 12.533 10.027 12.533z" fill="#dbebfc"/><path d="m323.821 291.503c0 37.457-30.365 67.821-67.821 67.821-37.457 0-67.821-30.365-67.821-67.821 0-48.554 67.821-121.142 67.821-121.142s67.821 72.588 67.821 121.142z" fill="#fef48b"/><path d="m271.039 357.647c-4.843 1.093-9.876 1.674-15.039 1.674-37.458 0-67.817-30.359-67.817-67.817 0-48.557 67.817-121.147 67.817-121.147s6.296 6.738 15.039 17.476c-19.982 24.514-52.778 69.903-52.778 103.671 0 32.294 22.559 59.305 52.778 66.143z" fill="#fef056"/><path d="m426.446 108.054c9.675 0 17.546-7.871 17.546-17.546v-30.079c0-9.675-7.871-17.546-17.546-17.546h-53.971c-4.153 0-7.52 3.367-7.52 7.52s3.366 7.52 7.52 7.52h53.971c1.383 0 2.507 1.125 2.507 2.507v30.079c0 1.382-1.124 2.507-2.507 2.507h-340.892c-1.383 0-2.507-1.125-2.507-2.507v-30.08c0-1.382 1.124-2.507 2.507-2.507h254.155c4.153 0 7.52-3.367 7.52-7.52s-3.366-7.52-7.52-7.52h-90.469v-20.323c0-12.439-10.12-22.559-22.559-22.559h-70.68c-12.439 0-22.559 10.12-22.559 22.559v20.325h-47.888c-9.675 0-17.546 7.871-17.546 17.546v30.079c0 9.675 7.871 17.546 17.546 17.546h12.533v58.243c0 4.153 3.366 7.52 7.52 7.52 4.153 0 7.52-3.367 7.52-7.52v-58.243h285.747v131.624h-83.468c-20.004-37.882-51.923-72.398-53.91-74.45-3.307-3.416-7.326-3.182-10.99 0-1.95 2.087-33.906 36.568-53.91 74.45h-83.468v-40.616c0-4.153-3.366-7.52-7.52-7.52-4.153 0-7.52 3.367-7.52 7.52v40.616h-12.534c-9.675 0-17.546 8.996-17.546 20.052v25.066c0 11.057 7.871 20.052 17.546 20.052h12.533v141.981h-12.533c-9.675 0-17.546 7.871-17.546 17.546v30.079c0 9.675 7.871 17.546 17.546 17.546h340.891c9.675 0 17.546-7.871 17.546-17.546v-30.079c0-9.675-7.871-17.546-17.546-17.546h-12.533v-41.238c0-4.153-3.366-7.52-7.52-7.52s-7.52 3.367-7.52 7.52v41.238h-285.745v-141.981h68.741c6.321 35.196 37.145 61.996 74.133 61.996s67.812-26.799 74.133-61.996h68.741v67.968c0 4.153 3.366 7.52 7.52 7.52s7.52-3.367 7.52-7.52v-67.968h12.533c9.675 0 17.546-8.996 17.546-20.052v-25.066c0-11.057-7.871-20.052-17.546-20.052h-12.533v-131.625zm-277.964-85.495c0-4.147 3.373-7.52 7.52-7.52h70.68c4.147 0 7.52 3.373 7.52 7.52v20.325h-85.719v-20.325zm277.964 439.31c1.383 0 2.507 1.125 2.507 2.507v30.079c0 1.382-1.124 2.507-2.507 2.507h-340.892c-1.383 0-2.507-1.125-2.507-2.507v-30.079c0-1.382 1.124-2.507 2.507-2.507zm-343.398-177.073v-25.066c0-3.061 1.646-5.013 2.507-5.013h103.874c-5.076 12.039-8.421 24.035-8.735 35.092h-95.14c-.727 0-2.506-1.756-2.506-5.013zm172.952 67.009c-33.25 0-60.301-27.051-60.301-60.302 0-37.203 44.487-91.663 60.303-109.848 15.819 18.177 60.299 72.607 60.299 109.848 0 33.251-27.051 60.302-60.301 60.302zm172.952-92.074v25.066c0 3.257-1.779 5.013-2.507 5.013h-95.139c-.314-11.057-3.659-23.053-8.735-35.092h103.874c.861 0 2.507 1.952 2.507 5.013z"/></g></svg>