<svg id="Capa_1" enable-background="new 0 0 512 512" height="512" viewBox="0 0 512 512" width="512" xmlns="http://www.w3.org/2000/svg"><g><path d="m477.726 203.884c.897-107.638-86.683-196.169-194.324-196.384-107.728-.214-195.125 87.051-195.125 194.728l-54.142 113.493h54.141v83.742c0 16.569 13.431 30 30 30h76.215c8.284 0 15 6.716 15 15v60.037h187.131v-144.12c48.704-35.051 80.567-92.036 81.104-156.496z" fill="#fff3de"/><g fill="#ffe5c2"><path d="m168.274 429.46h-50c-16.57 0-30-13.43-30-30.069v-83.67h50v83.739c0 16.57 13.43 30 30 30z"/><path d="m259.494 444.46v60.04h-50v-60.04c0-8.28-6.72-15-15-15h50c8.28 0 15 6.72 15 15z"/><path d="m138.274 202.23-53.756 113.491h-50.383l54.139-113.491c0-107.68 87.4-194.94 195.13-194.73 8.31.02 16.5.56 24.53 1.6-95.71 12.31-169.66 94.08-169.66 193.13z"/></g><path d="m426.583 60.12c-37.651-38.043-90.017-60.12-143.57-60.12-53.952 0-104.676 20.978-142.868 59.095-37.881 37.809-58.923 87.974-59.364 141.424l-53.476 112.1c-1.686 6.128.607 9.705 6.88 10.729l46.589-.015v21.997c0 4.143 3.358 7.5 7.5 7.5s7.5-3.357 7.5-7.5v-30.29c-.445-4.624-2.982-7.124-7.612-7.499l-42.07.146 48.952-102.229c.481-1.008.73-2.111.73-3.229 0-50.079 19.521-97.142 54.967-132.519 35.362-35.291 82.318-54.71 132.272-54.71 102.437 0 188.068 86.341 187.211 188.818-.489 59.431-29.641 115.683-77.981 150.475-1.958 1.409-3.119 3.674-3.119 6.087v57.4c0 4.143 3.358 7.5 7.5 7.5s7.5-3.357 7.5-7.5v-53.604c50.131-37.577 80.584-97.539 81.099-160.234.453-54.077-20.373-105.154-58.64-143.822z"/><path d="m396.624 442.97c-4.142 0-7.5 3.357-7.5 7.5v46.53h-172.13v-52.54c0-12.406-10.093-22.5-22.5-22.5h-76.22c-12.407 0-22.5-10.094-22.5-22.5v-21.44c0-4.143-3.358-7.5-7.5-7.5s-7.5 3.357-7.5 7.5v21.44c0 20.678 16.822 37.5 37.5 37.5h76.22c4.136 0 7.5 3.364 7.5 7.5v60.04c0 4.143 3.358 7.5 7.5 7.5h187.13c4.142 0 7.5-3.357 7.5-7.5v-54.03c0-4.143-3.358-7.5-7.5-7.5z"/><g><path d="m259.855 239.281h-46.404c-2.672-.498-3.591-2.04-2.759-4.627l21.27-39.363 3.429 9.478c1.745 4.787 5.782 5.795 9.604 4.501 3.895-1.409 5.91-5.709 4.501-9.604l-9.123-25.217c-1.286-3.577-5.226-5.636-8.902-4.717l-27.269 6.938c-4.014 1.021-6.44 5.104-5.419 9.118 1.021 4.015 5.102 6.439 9.118 5.419l10.687-2.719-21.094 39.037c-7.558 14.884-2.914 26.758 15.956 26.758h46.404c4.143 0 7.5-3.358 7.5-7.5s-3.356-7.502-7.499-7.502z"/><path d="m366.074 226.125-24.538-42.502c-2.07-3.587-6.66-4.817-10.245-2.745-3.587 2.071-4.816 6.658-2.745 10.245l24.538 42.503c.899 2.529.048 4.096-2.551 4.7h-45.044l6.736-7.996c2.668-3.168 2.264-7.899-.904-10.568-3.17-2.67-7.9-2.264-10.568.904l-17.277 20.509c-2.429 2.863-2.304 7.398.366 10.068l19.643 20.147c3.517 2.973 7.052 3.018 10.605.134 2.966-2.892 3.026-7.64.135-10.606l-7.402-7.592h43.845c14.468-.437 23.718-12.687 15.406-27.201z"/><path d="m305.326 151.211-9.924-1.77c-4.07-.725-7.973 1.989-8.7 6.066-.727 4.078 1.989 7.973 6.067 8.7l26.4 4.708c3.514.628 7.869-1.655 8.55-5.4l7.612-27.035c1.122-3.987-1.2-8.129-5.187-9.252-3.988-1.124-8.13 1.199-9.253 5.187l-2.988 10.615-23.26-37.786c-8.758-13.105-21.758-14.855-31.15.439l-23.548 40.785c-2.071 3.587-.842 8.174 2.745 10.245 3.585 2.071 8.174.842 10.245-2.745l23.548-40.785c1.767-2.065 3.562-2.09 5.387-.076z"/></g></g></svg>