<svg id="Capa_1" enable-background="new 0 0 512 512" height="512" viewBox="0 0 512 512" width="512" xmlns="http://www.w3.org/2000/svg"><g><path d="m369 59.183h-226c-3.866 0-7 3.134-7 7v38.833h240v-38.833c0-3.866-3.134-7-7-7z" fill="#dbebfc"/><path d="m193 59.18c-3.87 0-7 3.14-7 7v38.84h-50v-38.84c0-3.86 3.13-7 7-7z" fill="#c9e2fb"/><path d="m474 59.183h-46c-3.866 0-7 3.134-7 7v38.833h60v-38.833c0-3.866-3.134-7-7-7z" fill="#fd8087"/><path d="m84 59.183h-46c-3.866 0-7 3.134-7 7v38.833h60v-38.833c0-3.866-3.134-7-7-7z" fill="#8ac9fe"/><path d="m31 165.016h450v227.808h-450z" fill="#ecf6fe"/><path d="m481 165.02v20h-393c-3.866 0-7 3.134-7 7v200.8h-50v-227.8z" fill="#dbebfc"/><path d="m7.5 392.824h497v60h-497z" fill="#60b7ff"/><path d="m7.5 392.82h50v60h-50z" fill="#26a6fe"/><path d="m7.5 105.016h497v60h-497z" fill="#60b7ff"/><path d="m7.5 105.02h50v60h-50z" fill="#26a6fe"/><g><g><path d="m256 356.587v-58.35h-59.306l59.306-96.984v58.413h59.306z" fill="#ffe177"/></g></g><g><path d="m504.5 172.52c4.142 0 7.5-3.357 7.5-7.5v-60c0-4.143-3.358-7.5-7.5-7.5h-16v-31.337c0-7.995-6.505-14.5-14.5-14.5h-46c-7.995 0-14.5 6.505-14.5 14.5v31.337h-30v-31.34c0-7.995-6.505-14.5-14.5-14.5h-35.01c-4.142 0-7.5 3.357-7.5 7.5s3.358 7.5 7.5 7.5h34.51v30.84h-225v-30.84h157.8c4.142 0 7.5-3.357 7.5-7.5s-3.358-7.5-7.5-7.5h-158.3c-7.995 0-14.5 6.505-14.5 14.5v31.34h-30v-31.337c0-7.995-6.505-14.5-14.5-14.5h-46c-7.995 0-14.5 6.505-14.5 14.5v31.337h-16c-4.142 0-7.5 3.357-7.5 7.5v60c0 4.143 3.358 7.5 7.5 7.5h16v212.8h-16c-4.142 0-7.5 3.357-7.5 7.5v60c0 4.143 3.358 7.5 7.5 7.5h497c4.142 0 7.5-3.357 7.5-7.5v-60c0-4.143-3.358-7.5-7.5-7.5h-16v-212.8zm-76-105.837h45v30.833h-45zm-390 0h45v30.833h-45zm435 318.637h-54.23c-4.142 0-7.5 3.357-7.5 7.5s3.358 7.5 7.5 7.5h77.73v45h-482v-45h371.58c4.142 0 7.5-3.357 7.5-7.5s-3.358-7.5-7.5-7.5h-348.08v-212.8h36.16c4.142 0 7.5-3.357 7.5-7.5s-3.358-7.5-7.5-7.5h-59.66v-45h482v45h-389.66c-4.142 0-7.5 3.357-7.5 7.5s3.358 7.5 7.5 7.5h366.16z"/><g><path d="m315.306 252.166h-51.806v-50.913c0-3.359-2.234-6.309-5.468-7.22-3.231-.909-6.678.441-8.431 3.307l-59.306 96.984c-1.416 2.315-1.47 5.214-.144 7.581 1.327 2.366 3.829 3.832 6.542 3.832h51.807v50.85c0 3.359 2.233 6.309 5.466 7.219.675.19 1.358.282 2.034.282 2.563 0 5.01-1.319 6.397-3.587l59.306-96.92c1.417-2.315 1.472-5.215.145-7.582s-3.828-3.833-6.542-3.833zm-51.806 77.795v-31.724c0-4.143-3.358-7.5-7.5-7.5h-45.929l38.429-62.843v31.771c0 4.143 3.358 7.5 7.5 7.5h45.924z"/><path d="m115.833 271.42h-17.166v-17.167c0-4.143-3.358-7.5-7.5-7.5s-7.5 3.357-7.5 7.5v17.167h-17.167c-4.142 0-7.5 3.357-7.5 7.5s3.358 7.5 7.5 7.5h17.167v17.167c0 4.143 3.358 7.5 7.5 7.5s7.5-3.357 7.5-7.5v-17.167h17.167c4.142 0 7.5-3.357 7.5-7.5s-3.358-7.5-7.501-7.5z"/><path d="m445.5 271.42h-49.333c-4.142 0-7.5 3.357-7.5 7.5s3.358 7.5 7.5 7.5h49.333c4.142 0 7.5-3.357 7.5-7.5s-3.358-7.5-7.5-7.5z"/></g></g></g></svg>