<svg id="Capa_1" enable-background="new 0 0 512.115 512.115" height="512" viewBox="0 0 512.115 512.115" width="512" xmlns="http://www.w3.org/2000/svg"><g><circle cx="268.03" cy="256" fill="#fef48b" r="75"/><path d="m283.03 329.5c-4.84.98-9.86 1.5-15 1.5-41.42 0-75-33.58-75-75s33.58-75 75-75c5.14 0 10.16.52 15 1.5-34.24 6.95-60 37.22-60 73.5s25.76 66.55 60 73.5z" fill="#fef056"/><circle cx="457.505" cy="105.366" fill="#60b7ff" r="30"/><circle cx="50.549" cy="191.031" fill="#fd8087" r="30"/><circle cx="318.208" cy="474.5" fill="#97d729" r="30"/><g><path d="m468.832 245.846c22.475-33.041 43.487-81.406 19.813-119.61 4.014-5.97 6.36-13.151 6.36-20.87 0-20.678-16.822-37.5-37.5-37.5-14.702 0-27.449 8.509-33.592 20.857-17.717-2.855-37.7-2.872-59.1-.285-4.153-9.717-8.698-18.866-13.542-27.235-2.076-3.586-6.665-4.809-10.248-2.734-3.585 2.075-4.809 6.663-2.734 10.248 3.938 6.803 7.671 14.176 11.147 21.985-25.871 4.476-53.422 12.495-81.31 23.723-27.793-11.237-55.341-19.296-81.475-23.783 14.217-31.872 40.993-75.642 81.379-75.642 16.266 0 32.073 7.595 46.985 22.572 2.922 2.935 7.671 2.945 10.606.023 2.936-2.923 2.946-7.672.023-10.607-17.828-17.908-37.213-26.988-57.614-26.988-48.584 0-79.898 49.01-96.765 88.396-51.081-6.108-127.154 3.016-133.77 67.482-14.26 5.313-24.446 19.064-24.446 35.152 0 26.47 21.359 40.415 43.205 37.067 5.177 9.319 11.277 18.659 18.215 27.94-25.398 33.937-52.33 86.058-28.144 127.963 8.222 14.239 29.931 34.752 47.697 34.752 3.148 0 6.081-1.999 7.121-5.152 1.298-3.934-.839-8.174-4.772-9.472-17.298-5.707-29.765-15.003-37.055-27.627-20.181-34.965 4.307-80.017 24.792-108.264 16.852 20.276 37.575 40.092 61.281 58.594 4.168 29.644 10.959 57.491 20.131 82.336-13.476 1.421-26.306 1.715-38.24.805-4.131-.318-7.733 2.779-8.048 6.909-.314 4.13 2.779 7.733 6.909 8.048 14.948 1.139 30.244.44 45.107-1.364 20.328 47.489 66.564 108.989 125.865 81.921 6.014 4.107 13.278 6.515 21.095 6.515 20.678 0 37.5-16.822 37.5-37.5 0-7.634-2.298-14.738-6.231-20.669 5.596-9.282 10.73-19.408 15.38-30.251 10.254 1.218 20.155 1.844 29.605 1.844 42.76 0 76.437-12.537 93.268-38.18 2.273-3.463 1.309-8.112-2.154-10.385-3.463-2.274-8.113-1.309-10.386 2.154-15.646 23.837-50.925 34.728-99.344 30.651-1.743-.146-3.497-.316-5.258-.5 9.135-24.738 15.936-52.594 20.107-82.373 23.587-18.429 44.305-38.23 61.234-58.593 21.567 29.708 32.859 58.429 32.027 81.986-.146 4.14 3.091 7.613 7.23 7.76.09.003.18.005.27.005 4.02 0 7.348-3.186 7.49-7.235.997-28.225-11.893-60.791-37.376-94.722 2.524-3.373 4.956-6.756 7.262-10.147zm-11.327-162.98c12.407 0 22.5 10.094 22.5 22.5s-10.093 22.5-22.5 22.5-22.5-10.094-22.5-22.5 10.093-22.5 22.5-22.5zm-37.441 20.446c-1.125 20.721 16.655 39.554 37.441 39.554 7.378 0 14.259-2.15 20.066-5.844 18.621 34.907-5.377 78.842-25.65 106.784-17.097-20.546-37.781-40.312-61.28-58.666-3.949-28.003-10.336-55.787-20.128-82.346 17.884-1.878 34.586-1.752 49.551.518zm-64.814 1.508c8.32 21.803 14.155 44.531 18.192 67.498-26.88-19.133-55.632-35.733-85.646-49.436 23.265-8.498 46.043-14.603 67.454-18.062zm25.28 151.18c0 21.369-1.373 42.469-3.994 62.777-33.287 25.283-70.016 46.46-108.575 62.588-38.571-16.185-75.304-37.412-108.552-62.788-5.25-41.442-5.245-83.843.016-125.279 33.308-25.314 70.071-46.513 108.65-62.682 38.521 16.17 75.271 37.37 108.532 62.643 2.586 20.275 3.923 41.316 3.923 62.741zm-132.143-133.119c-30.09 13.686-58.886 30.297-85.809 49.477 4.249-24.258 10.365-47.009 18.195-67.493 21.674 3.465 44.457 9.553 67.614 18.016zm-220.338 68.149c0-12.406 10.093-22.5 22.5-22.5s22.5 10.094 22.5 22.5-10.093 22.5-22.5 22.5-22.5-10.093-22.5-22.5zm42.438 31.738c10.54-6.645 17.562-18.383 17.562-31.738 0-19.873-15.541-36.176-35.107-37.416 8.49-50.927 72.331-54.974 112.575-50.772-9.173 24.849-15.963 52.701-20.13 82.349-23.585 18.426-44.303 38.224-61.233 58.583-5.118-7.022-9.682-14.04-13.667-21.006zm23.07 33.176c13.816-17.003 30.446-33.655 49.309-49.446-3.142 32.822-3.146 65.997-.017 98.82-18.879-15.849-35.55-32.537-49.292-49.374zm69.02 83.697c26.882 19.137 55.621 35.748 85.639 49.454-23.203 8.457-45.986 14.547-67.454 18.015-7.825-20.478-13.938-43.221-18.185-67.469zm155.631 157.359c-12.407 0-22.5-10.094-22.5-22.5s10.093-22.5 22.5-22.5 22.5 10.094 22.5 22.5-10.094 22.5-22.5 22.5zm20.245-54.04c-5.845-3.765-12.792-5.96-20.246-5.96-20.678 0-37.5 16.822-37.5 37.5 0 7.045 1.956 13.64 5.349 19.278-48.081 17.151-83.063-35.756-99.434-72.482 25.918-4.496 53.487-12.54 81.293-23.726 28.241 11.412 55.795 19.356 81.479 23.76-3.402 7.672-7.057 14.896-10.941 21.63zm16.768-35.842c-21.647-3.473-44.411-9.564-67.534-18.012 14.798-6.725 29.567-14.305 44.093-22.691 14.498-8.37 28.394-17.3 41.553-26.667-4.286 24.269-10.403 47.049-18.112 67.37zm37.973-101.617c3.138-32.899 3.139-66.134-.021-99.032 18.683 15.649 35.23 32.204 49.158 49.278.071.087.139.174.21.261-13.823 17.019-30.465 33.688-49.347 49.493z"/><path d="m297.171 178.832c-52.637-19.945-111.641 15.168-111.641 77.168 0 44.976 37.856 82.5 82.5 82.5 45.491 0 82.5-37.01 82.5-82.5 0-31.537-21.643-67.979-53.359-77.168zm-96.641 77.168c0-37.22 30.28-67.5 67.5-67.5 4.764 0 9.411.503 13.898 1.446l-48.869 57.645c-1.89 2.229-2.313 5.351-1.084 8.002s3.884 4.348 6.805 4.348h43.278l-43.593 56.726c-22.441-10.982-37.935-34.046-37.935-60.667zm135 0c0 37.22-30.28 67.5-67.5 67.5-5.033 0-9.932-.571-14.653-1.621l49.85-64.869c1.741-2.266 2.043-5.322.781-7.885s-3.871-4.186-6.728-4.186h-42.31l42.224-49.807c22.659 10.902 38.336 34.088 38.336 60.868z"/></g></g></svg>