<svg id="Capa_1" enable-background="new 0 0 511.979 511.979" height="512" viewBox="0 0 511.979 511.979" width="512" xmlns="http://www.w3.org/2000/svg"><g><path d="m86.507 132.16h-.01l-69.97-27.04 60.68-23.23h.01c-.42 3.42-.64 6.9-.64 10.43 0 14.41 3.59 27.97 9.93 39.84z" fill="#fd8087"/><path d="m495.443 491.631c-36.828 23.949-86.098 13.509-110.047-23.319l-56.256-86.508 94.981.001z" fill="#fd8087"/><path d="m245.247 105.151c.635-4.185.966-8.469.966-12.831 0-46.845-37.975-84.82-84.82-84.82s-84.82 37.975-84.82 84.82c0 28.43 14.002 53.574 35.47 68.964v31.45c0 104.42 84.65 189.07 189.07 189.07h123.008z" fill="#ffe177"/><path d="m245.507 105.118c-64.072 71.701-53.18 176.585 25.454 236.349 64.683 49.16 155.381 52.722 223.531 14.311z" fill="#60b7ff"/><path d="m261.888 121.612c-19.173 62.02 1.883 131.189 60.217 175.516 43.803 33.291 99.549 45.666 152.134 38.255z" fill="#8ac9fe"/><g><path d="m133.451 96.68c-4.142 0-7.5-3.358-7.5-7.5 0-4.142 3.358-7.5 7.5-7.5 4.142 0 7.5 3.358 7.5 7.5 0 4.142-3.358 7.5-7.5 7.5z"/><path d="m501.737 487.545-36.12-55.62c-2.257-3.474-6.9-4.461-10.375-2.205-3.474 2.256-4.461 6.901-2.205 10.375l31.829 49.013c-14.676 7.534-31.359 9.785-47.719 6.317-18.826-3.989-34.972-15.07-45.463-31.205l-48.723-74.92h77.083l11.763 18.114c2.256 3.476 6.9 4.462 10.374 2.206 3.475-2.255 4.462-6.9 2.206-10.374l-9.035-13.914c22.111-4.292 43.306-12.016 62.827-23.018 4.449-3.399 4.995-7.339 1.639-11.819l-109.17-109.9c-2.921-2.939-7.668-2.954-10.606-.036-2.939 2.92-2.955 7.668-.036 10.606l77.837 78.359c-47.516 3.067-94.61-10.56-131.199-38.368-50.142-38.102-73.177-97.781-60.828-154.949l81.721 82.27c2.919 2.939 7.668 2.956 10.606.036 2.938-2.919 2.955-7.667.036-10.606l-104.994-105.699c.35-3.271.532-6.582.532-9.887 0-50.905-41.415-92.32-92.32-92.32-45.495 0-83.404 33.08-90.95 76.449l-56.597 21.666c-2.898 1.109-4.813 3.889-4.818 6.992s1.902 5.889 4.796 7.008l67.525 26.095c5.874 10.24 13.706 19.387 23.195 26.818-.344 16.109-.594 32.971 1.144 48.971 1.836 4.826 4.591 7.042 8.266 6.646 4.118-.447 7.093-4.148 6.646-8.266-1.823-16.792-1.327-34.216-1.056-51.101 0-2.418-1.166-4.688-3.13-6.096-20.25-14.516-32.34-38.017-32.34-62.864 0-42.635 34.686-77.32 77.32-77.32s77.32 34.686 77.32 77.32c0 3.325-.226 6.651-.647 9.917-30.755 35.488-45.302 79.646-40.976 124.667 4.534 47.193 29.154 90.001 69.325 120.536 14.591 11.088 30.604 20.083 47.645 26.858h-12.947c-80.153 0-151.828-53.674-174.301-130.525-1.163-3.975-5.33-6.259-9.304-5.093-3.976 1.162-6.256 5.328-5.094 9.304 14.732 50.379 50.151 93.662 96.396 118.371v36.94l-40.987 9.052c-4.045.893-6.6 4.896-5.707 8.94 2.191 4.607 5.171 6.509 8.941 5.706l31.118-6.872-6.593 12.57c-1.924 3.668-.51 8.201 3.159 10.125 3.668 1.923 8.202.511 10.125-3.158l10.083-19.226 32.422 23.207-28.982 6.4c-4.045.893-6.6 4.896-5.707 8.94 2.191 4.607 5.171 6.509 8.941 5.706l31.118-6.872-6.594 12.571c-1.924 3.668-.51 8.201 3.159 10.125 3.668 1.923 8.202.51 10.126-3.158l10.084-19.227 34.267 24.528c3.726 2.333 7.214 1.755 10.464-1.733 2.411-3.368 1.635-8.053-1.733-10.464l-38.138-27.299v-55.156c15.21 1.735 31.329 1.625 46.687 1.295l54.041 83.099c12.675 19.492 32.183 32.881 54.928 37.701 22.521 4.773 46.21.361 65.498-12.183 3.471-2.251 4.457-6.893 2.202-10.366zm-464.315-382.392 31.665-12.123c.069 8.859 1.422 17.566 3.937 25.881zm225.959 328.96c-.408-.498-39.567-28.647-39.567-28.647v-31.901c12.704 5.447 25.946 9.505 39.567 12.138zm-51.356-208.642c-3.763-39.161 8.244-77.672 33.904-109.284l7.52 7.57c-8.687 31.119-7.892 63.731 2.366 94.612 10.988 33.082 32.342 62.381 61.753 84.73 35.817 27.221 80.904 41.854 127.141 41.854 8.918 0 17.879-.545 26.824-1.648l10.518 10.589c-24.634 12.255-52.141 19.202-79.635 20.407-45.198 1.563-90.672-11.255-126.919-38.801-36.802-27.974-59.343-67.05-63.472-110.029z"/></g></g></svg>