<svg id="Capa_1" enable-background="new 0 0 511.95 511.95" height="512" viewBox="0 0 511.95 511.95" width="512" xmlns="http://www.w3.org/2000/svg"><g><path d="m497.551 259.645v-34.41c0-85.46-64.56-155.84-147.57-165.02l-23.05 27.661 22.4 30.979c36.44.99 65.66 30.83 65.66 67.49 0 18.64-7.56 35.52-19.77 47.74-12.22 12.22-29.09 19.78-47.74 19.78h-273.13c-38.23 0-66.76 35.29-58.65 72.65 25.78 118.8 118.99 177.61 237.36 177.61h.01c34.991 0 68.258-7.367 98.355-20.61 30.144 20.856 69.687 27.061 106.581 13.146l-33.686-62.56c45.189-44.362 73.23-106.131 73.23-174.456z" fill="#528fd8"/><path d="m275.991 503.065c-7.55.7-15.19 1.06-22.92 1.06h-.01c-118.37 0-211.58-58.81-237.36-177.61-8.11-37.36 20.42-72.65 58.65-72.65h50c-38.23 0-66.76 35.29-58.65 72.65 23.78 109.58 104.93 168.13 210.29 176.55z" fill="#0573ce"/><path d="m213.561 169.719h66.68c39.947 0 72.331-32.384 72.331-72.331v-8.65h-66.68c-39.947 0-72.331 32.384-72.331 72.331z" fill="#528fd8"/><path d="m213.561 7.756h66.68c39.947 0 72.331 32.384 72.331 72.331v8.65h-66.68c-39.947 0-72.331-32.384-72.331-72.331z" fill="#528fd8"/><path d="m315.891 88.735c-39.95 0-72.33 32.39-72.33 72.33v8.65h-30v-8.65c0-39.94 32.38-72.33 72.33-72.33z" fill="#0573ce"/><path d="m315.891 88.735h-30c-39.95 0-72.33-32.38-72.33-72.33v-8.65h30v8.65c0 39.95 32.38 72.33 72.33 72.33z" fill="#0573ce"/><path d="m351.431 483.525c-30.1 13.25-63.37 20.6-98.36 20.6h-.01c-104.27 0-189.02-45.63-225.35-137.71h187.74c20.56 0 40.09 6.22 56.44 17.19 16.34 10.98 29.48 26.71 37.26 45.74 8.6 22.8 23.65 41.3 42.28 54.18z" fill="#ecf6fe"/><path d="m125.281 310.901c-4.142 0-7.5-3.358-7.5-7.5 0-4.142 3.358-7.5 7.5-7.5 4.142 0 7.5 3.358 7.5 7.5 0 4.142-3.357 7.5-7.5 7.5z"/><path d="m505.051 225.235c0-85.335-65.028-160.215-149.602-171.891-12.493-35.032-48.129-55.916-84.558-53.09-4.143 0-7.5 3.357-7.5 7.5s3.357 7.5 7.5 7.5c40.1-2.292 72.97 25.417 74.18 65.98h-59.18c-35.816 0-65.191-30.278-64.83-65.98h17.14c4.143 0 7.5-3.357 7.5-7.5s-3.357-7.5-7.5-7.5h-24.64c-4.143 0-7.5 3.357-7.5 7.5-1.856 33.83 14.67 66.275 46.077 80.994-30.873 14.467-48.506 47.435-46.078 80.971 0 4.143 3.357 7.5 7.5 7.5h66.681c33.656 0 62.494-20.947 74.216-50.479 30.136 3.432 53.034 28.654 53.034 59.604 0 32.438-27.495 60.021-60.01 60.021h-64.229c-4.143 0-7.5 3.357-7.5 7.5s3.357 7.5 7.5 7.5h64.229c40.55 0 75.01-34.382 75.01-75.021 0-36.379-27.843-68.79-63.815-74.163 2.322-12.337 2.37-30.4.625-43.054 75.223 13.223 130.751 78.609 130.751 156.107v34.409c0 60.773-22.647 117.878-63.964 161.917l-16.734-31.078c-1.963-3.647-6.511-5.014-10.159-3.048-3.647 1.964-5.012 6.512-3.048 10.159l51.032 94.775c-24.666 7.157-50.795 5.323-74.45-5.375-26.603-12.031-45.573-33.869-56.633-60.493-16.783-41.06-56.289-67.59-100.646-67.59h-182.598c-3.956-10.759-7.239-22.087-9.822-33.988-6.926-31.914 18.574-63.559 51.321-63.559h176.21c4.143 0 7.5-3.357 7.5-7.5s-3.357-7.5-7.5-7.5h-132.13v-105.79c0-14.796 12.037-26.834 26.833-26.834s26.834 12.038 26.834 26.834c0 4.143 3.357 7.5 7.5 7.5s7.5-3.357 7.5-7.5c0-23.067-18.767-41.834-41.834-41.834-14.203 0-26.768 7.121-34.333 17.975-7.565-10.853-20.13-17.975-34.333-17.975-23.067 0-41.834 18.767-41.834 41.834 0 4.143 3.357 7.5 7.5 7.5s7.5-3.357 7.5-7.5c0-14.796 12.038-26.834 26.834-26.834s26.833 12.038 26.833 26.834v105.792h-29.08c-41.96 0-74.921 40.552-65.979 81.74 12.031 55.433 42.017 106.58 89.021 139.333 3.737 2.286 7.217 1.664 10.441-1.865 2.368-3.398 1.533-8.073-1.865-10.441-29.475-20.539-51.891-47.746-66.999-81.22h27.884c45.94 87.025 161.558 116.443 251.196 87.519 5.396 7.371 11.597 14.093 18.497 20.069-62.601 23.617-138.664 19.795-199.261-8.405-3.754-1.748-8.216-.12-9.964 3.636-1.748 3.755-.12 8.216 3.636 9.964 67.128 31.239 151.375 34.057 219.66 5.325 32.465 20.813 73.875 25.297 110.036 11.66 4.518-2.327 5.837-5.852 3.957-10.573l-31.044-57.653c46.14-47.298 71.484-109.502 71.484-175.808zm-224.81-63.015h-59.181v-1.15c0-35.748 29.084-64.831 64.832-64.831h59.18v1.15c0 35.748-29.083 64.831-64.831 64.831zm10.664 249.786c-12.324 3.064-25.011 4.619-37.844 4.619-41.515 0-76.961-9.658-102.508-27.932-6.159-4.403-11.805-9.356-16.913-14.781h81.809c30.365 0 58.08 14.431 75.456 38.094zm-37.844 44.619c-49.91 0-93.399-12.237-125.767-35.39-17.6-12.592-32.099-28.483-43.249-47.323h29.969c7.817 10.284 17.147 19.358 27.813 26.983 28.107 20.104 66.57 30.729 111.233 30.729 15.648 0 31.106-2.107 46.041-6.265 1.102 2.188 2.13 4.429 3.072 6.726 2.132 5.638 4.647 11.061 7.512 16.243-18.309 5.504-37.313 8.297-56.624 8.297z"/></g></svg>