<svg id="Capa_1" enable-background="new 0 0 511.368 511.368" height="512" viewBox="0 0 511.368 511.368" width="512" xmlns="http://www.w3.org/2000/svg"><g><path d="m284.869 7.5c-8.56 0-16.47 4.567-20.75 11.98l-21.085 36.52h55.333l7.252-12.56c9.222-15.974-2.305-35.94-20.75-35.94z" fill="#8ac9fe"/><path d="m165.684 56h180v48.5h-180z" fill="#fd8087"/><path d="m165.684 55.998h50v48.5h-50z" fill="#fe646f"/><path d="m345.684 503.868h-180l-35-48.5h250z" fill="#ecf6fe"/><path d="m215.684 503.868h-50l-35-48.5h50z" fill="#dbebfc"/><path d="m380.684 153.805h-250l35-49.305h180z" fill="#ecf6fe"/><path d="m215.684 104.498-35 49.31h-50l35-49.308z" fill="#dbebfc"/><path d="m130.684 153.805h250v301.564h-250z" fill="#fd8087"/><path d="m130.684 153.808h50v301.56h-50z" fill="#fe646f"/><circle cx="255.684" cy="318.478" fill="#fef48b" r="58.11"/><path d="m270.684 374.628c-4.78 1.28-9.81 1.96-15 1.96-32.09 0-58.11-26.02-58.11-58.11s26.02-58.11 58.11-58.11c5.19 0 10.22.68 15 1.96-24.82 6.61-43.11 29.25-43.11 56.15s18.29 49.54 43.11 56.15z" fill="#fef056"/><g><path d="m380.684 286.798c4.143 0 7.5-3.357 7.5-7.5v-125.489c0-1.553-.508-3.133-1.418-4.393l-33.582-46.535v-46.883c0-4.143-3.357-7.5-7.5-7.5h-34.325c5.338-10.052 6.699-22.473.756-32.769-5.687-9.849-15.872-15.729-27.245-15.729-11.205 0-21.645 6.027-27.245 15.729l-18.919 32.769h-16.652c-4.143 0-7.5 3.357-7.5 7.5s3.357 7.5 7.5 7.5h116.13v33.5h-165v-33.5h16.18c4.143 0 7.5-3.357 7.5-7.5s-3.357-7.5-7.5-7.5h-23.68c-4.143 0-7.5 3.357-7.5 7.5v46.883l-33.582 46.535c-.91 1.26-1.418 2.84-1.418 4.393v301.56c0 1.554.508 3.129 1.418 4.389l35 48.5c1.41 1.954 3.673 3.111 6.082 3.111h180c2.409 0 4.672-1.157 6.082-3.111l35-48.5c.91-1.26 1.418-2.835 1.418-4.389v-143.38c0-4.143-3.357-7.5-7.5-7.5s-7.5 3.357-7.5 7.5v135.88h-146.58c-4.143 0-7.5 3.357-7.5 7.5s3.357 7.5 7.5 7.5h139.419l-24.176 33.5h-172.326l-24.176-33.5h48.579c4.143 0 7.5-3.357 7.5-7.5s-3.357-7.5-7.5-7.5h-55.74v-225.872c39.055 25.957 83.266 13.764 124.326-.358 35.458-12.195 72.087-24.79 110.674-10.226v67.885c0 4.142 3.358 7.5 7.5 7.5zm-110.069-263.569c2.93-5.076 8.392-8.229 14.255-8.229 5.95 0 11.279 3.076 14.255 8.229 2.975 5.153 2.975 11.307 0 16.46l-5.086 8.809h-38.013zm-101.094 89.576h172.326l24.176 33.5h-220.678zm88.11 94.649c-43.198 14.857-80.677 27.747-119.447-4.109v-42.036h235v34.21c-41.44-13.539-79.074-.611-115.553 11.935z"/><path d="m190.074 318.479c0 36.178 29.433 65.61 65.61 65.61s65.61-29.433 65.61-65.61-29.433-65.61-65.61-65.61-65.61 29.432-65.61 65.61zm116.22 0c0 27.906-22.704 50.61-50.61 50.61s-50.61-22.704-50.61-50.61 22.704-50.61 50.61-50.61 50.61 22.703 50.61 50.61z"/></g></g></svg>