<svg id="Capa_1" enable-background="new 0 0 512 512" height="512" viewBox="0 0 512 512" width="512" xmlns="http://www.w3.org/2000/svg"><g><path d="m298.5 54.176h-85c-5.523 0-10-4.477-10-10v-26.676c0-5.523 4.477-10 10-10h85c5.523 0 10 4.477 10 10v26.676c0 5.523-4.477 10-10 10z" fill="#8ac9fe"/><path d="m263.5 54.18h-50c-5.52 0-10-4.48-10-10v-26.68c0-5.52 4.48-10 10-10h50c-5.52 0-10 4.48-10 10v26.68c0 5.52 4.48 10 10 10z" fill="#60b7ff"/><path d="m171 376c-11.046 0-20 8.954-20 20v68.133c0 22.294 15.67 40.367 35 40.367 19.33 0 35-18.073 35-40.367 0 22.294 15.67 40.367 35 40.367 19.33 0 35-18.073 35-40.367 0 22.294 15.67 40.367 35 40.367 19.33 0 35-18.073 35-40.367v-68.133c0-11.046-8.954-20-20-20z" fill="#8ac9fe"/><path d="m201 396v68.13c0 11 3.82 20.97 10 28.26-.08.1-.17.19-.25.29-6.33 7.3-15.09 11.82-24.75 11.82-19.33 0-35-18.07-35-40.37v-68.13c0-11.05 8.95-20 20-20h50c-11.05 0-20 8.95-20 20z" fill="#60b7ff"/><path d="m341 376h-170c-11.046 0-20-8.954-20-20v-20c0-11.046 8.954-20 20-20h170c11.046 0 20 8.954 20 20v20c0 11.046-8.954 20-20 20z" fill="#ecf6fe"/><path d="m221 376h-50c-11.05 0-20-8.95-20-20v-20c0-11.05 8.95-20 20-20h50c-11.05 0-20 8.95-20 20v20c0 11.05 8.95 20 20 20z" fill="#dbebfc"/><path d="m341 316h-170c-11.046 0-20-8.954-20-20v-20c0-11.046 8.954-20 20-20h170c11.046 0 20 8.954 20 20v20c0 11.046-8.954 20-20 20z" fill="#ecf6fe"/><path d="m221 316h-50c-11.05 0-20-8.95-20-20v-20c0-11.05 8.95-20 20-20h50c-11.05 0-20 8.95-20 20v20c0 11.05 8.95 20 20 20z" fill="#dbebfc"/><path d="m341 256c11.046 0 20-8.954 20-20v-44.022c0-13.28-4.406-26.185-12.527-36.692l-38.422-36.71c-11.848-11.32-18.551-26.995-18.551-43.382v-21.018h-71v21.019c0 16.387-6.703 32.061-18.551 43.382l-38.422 36.71c-8.121 10.506-12.527 23.411-12.527 36.691v44.022c0 11.046 8.954 20 20 20z" fill="#ecf6fe"/><path d="m270.5 54.18v21.01c0 16.39-6.7 32.07-18.55 43.39l-38.42 36.71c-8.12 10.5-12.53 23.41-12.53 36.69v44.02c0 11.05 8.95 20 20 20h-50c-11.05 0-20-8.95-20-20v-44.02c0-13.28 4.41-26.19 12.53-36.69l38.42-36.71c11.85-11.32 18.55-27 18.55-43.39v-21.01z" fill="#dbebfc"/><path d="m368.5 236v-44.02c0-36.2-29.835-56.432-53.27-78.823-14.281-13.644-17.417-32.815-16.23-51.503 9.417-.268 17-7.994 17-17.475v-26.679c0-9.649-7.851-17.5-17.5-17.5h-11.66c-4.142 0-7.5 3.357-7.5 7.5s3.358 7.5 7.5 7.5h11.66c1.378 0 2.5 1.121 2.5 2.5v26.68c0 1.379-1.122 2.5-2.5 2.5h-85c-1.378 0-2.5-1.121-2.5-2.5v-26.68c0-1.379 1.122-2.5 2.5-2.5h40.66c4.142 0 7.5-3.357 7.5-7.5s-3.358-7.5-7.5-7.5h-40.66c-9.649 0-17.5 7.851-17.5 17.5v26.68c0 9.481 7.583 17.207 17 17.475 1.187 18.687-1.949 37.859-16.231 51.503-23.659 22.605-53.269 37.842-53.269 78.822v44.02c0 7.875 3.332 14.982 8.655 20-5.323 5.018-8.655 12.125-8.655 20v20c0 7.875 3.332 14.982 8.655 20-5.323 5.018-8.655 12.125-8.655 20v20c0 7.875 3.332 14.982 8.655 20-5.323 5.018-8.655 12.125-8.655 20v68.13c0 26.396 19.065 47.87 42.5 47.87 13.781 0 27.918-9.112 35.022-20.706 7.676 12.501 20.492 20.706 34.978 20.706 13.781 0 27.918-9.112 35.022-20.706 7.676 12.501 20.492 20.706 34.978 20.706 25.443 0 42.5-24.198 42.5-47.87v-14.44c0-4.143-3.358-7.5-7.5-7.5s-7.5 3.357-7.5 7.5v14.439c0 14.685-10.158 32.87-27.5 32.87-15.164 0-27.5-14.745-27.5-32.87 0-4.143-3.358-7.5-7.5-7.5s-7.5 3.357-7.5 7.5c0 14.685-10.158 32.87-27.5 32.87-15.164 0-27.5-14.745-27.5-32.87 0-4.143-3.358-7.5-7.5-7.5s-7.5 3.357-7.5 7.5c0 14.685-10.158 32.87-27.5 32.87-15.164 0-27.5-14.745-27.5-32.87v-68.129c0-6.893 5.607-12.5 12.5-12.5h170c6.893 0 12.5 5.607 12.5 12.5v21.01c0 4.143 3.358 7.5 7.5 7.5s7.5-3.357 7.5-7.5v-21.01c0-7.875-3.332-14.982-8.655-20 5.323-5.018 8.655-12.125 8.655-20v-20c0-7.875-3.332-14.982-8.655-20 5.323-5.018 8.655-12.125 8.655-20v-20c0-7.875-3.332-14.982-8.655-20 5.323-5.018 8.655-12.125 8.655-20zm-15 120c0 6.893-5.607 12.5-12.5 12.5h-170c-6.893 0-12.5-5.607-12.5-12.5v-20c0-6.893 5.607-12.5 12.5-12.5h170c6.893 0 12.5 5.607 12.5 12.5zm0-120c0 6.893-5.607 12.5-12.5 12.5h-103.66c-4.142 0-7.5 3.357-7.5 7.5s3.358 7.5 7.5 7.5h103.66c6.893 0 12.5 5.607 12.5 12.5v20c0 6.893-5.607 12.5-12.5 12.5h-170c-6.893 0-12.5-5.607-12.5-12.5v-20c0-6.893 5.607-12.5 12.5-12.5h33.66c4.142 0 7.5-3.357 7.5-7.5s-3.358-7.5-7.5-7.5h-33.66c-6.893 0-12.5-5.607-12.5-12.5v-44.02c0-11.378 3.772-22.603 10.632-31.67l37.999-36.308c16.73-15.982 22.546-39.825 20.869-62.322h56c-1.736 22.456 4.154 46.355 20.869 62.323l37.999 36.308c6.86 9.067 10.632 20.292 10.632 31.67z"/></g></svg>