<svg id="Capa_1" enable-background="new 0 0 512.14 512.14" height="512" viewBox="0 0 512.14 512.14" width="512" xmlns="http://www.w3.org/2000/svg"><g><path d="m188.403 54.639h-90v-25c0-8.284 6.716-15 15-15h60c8.284 0 15 6.716 15 15z" fill="#60b7ff"/><path d="m153.4 14.639c-8.28 0-15 6.72-15 15v25h-40v-25c0-8.28 6.72-15 15-15z" fill="#26a6fe"/><path d="m122.403 54.639h42v50h-42z" fill="#8ac9fe"/><path d="m371.07 7.639h-62.426c-22.461 0-43.041 12.545-53.332 32.509l-33.243 64.491h45.002l21.002-40.745c5.145-9.982 15.435-16.255 26.666-16.255h31.33c8.284 0 15 6.716 15 15v42h40v-67c.001-16.568-13.431-30-29.999-30z" fill="#60b7ff"/><path d="m406.07 504.639h-300c-16.569 0-30-13.431-30-30v-340c0-16.569 13.431-30 30-30h300c16.569 0 30 13.431 30 30v340c0 16.569-13.432 30-30 30z" fill="#8ac9fe"/><path d="m136.07 504.639h-30c-16.57 0-30-13.43-30-30v-340c0-16.57 13.43-30 30-30h30c-16.57 0-30 13.43-30 30v340c0 16.571 13.43 30 30 30z" fill="#60b7ff"/><path d="m106.07 174.639h300v260h-300z" fill="#60b7ff" transform="matrix(0 1 -1 0 560.709 48.57)"/><path d="m126.07 154.639h30v300h-30z" fill="#26a6fe"/><path d="m282.789 304.64 54.692-61.738c7.324-8.268 6.56-20.908-1.708-28.232-8.268-7.323-20.907-6.56-28.233 1.709l-51.47 58.101-51.47-58.101c-7.325-8.269-19.965-9.033-28.233-1.709s-9.033 19.965-1.708 28.232l54.692 61.738-54.692 61.738c-7.324 8.268-6.56 20.908 1.708 28.232 3.807 3.372 8.54 5.029 13.255 5.029 5.525 0 11.026-2.277 14.978-6.738l51.47-58.101 51.47 58.101c3.953 4.462 9.452 6.738 14.978 6.738 4.715 0 9.448-1.657 13.255-5.029 8.268-7.324 9.033-19.965 1.708-28.232z" fill="#dbebfc"/><g><path d="m408.57 97.232v-59.593c0-20.678-16.822-37.5-37.5-37.5-4.883-.72-11.93 1.283-11.93 7.5s7.047 8.22 11.93 7.5c12.407 0 22.5 10.094 22.5 22.5v59.5h-25v-34.5c0-12.406-10.093-22.5-22.5-22.5h-31.33c-14.097 0-26.871 7.782-33.337 20.314l-18.905 36.686h-28.125l27.604-53.555c9.041-17.546 26.92-28.445 46.663-28.445h25.31c4.142 0 7.5-3.357 7.5-7.5s-3.358-7.5-7.5-7.5h-25.31c-25.383 0-48.373 14.015-59.996 36.573l-31.146 60.427h-45.594v-35h16.5c4.142 0 7.5-3.357 7.5-7.5v-25c0-12.406-10.093-22.5-22.5-22.5h-60c-12.407 0-22.5 10.094-22.5 22.5v25c0 4.143 3.358 7.5 7.5 7.5h16.5v35h-8.833c-20.678 0-37.5 16.822-37.5 37.5v69.84c0 4.143 3.358 7.5 7.5 7.5s7.5-3.357 7.5-7.5v-69.84c0-12.406 10.093-22.5 22.5-22.5h300c12.407 0 22.5 10.094 22.5 22.5v340c0 12.406-10.093 22.5-22.5 22.5h-300c-12.407 0-22.5-10.094-22.5-22.5v-237.469c0-4.143-3.358-7.5-7.5-7.5s-7.5 3.357-7.5 7.5v237.47c0 20.678 16.822 37.5 37.5 37.5h300c20.678 0 37.5-16.822 37.5-37.5v-340c-.001-19.837-15.486-36.116-35.001-37.408zm-302.667-67.593c0-4.136 3.364-7.5 7.5-7.5h60c4.136 0 7.5 3.364 7.5 7.5v17.5h-16.5-42-16.5zm24 67.5v-35h27v35zm164.832-29.81c3.879-7.519 11.545-12.189 20.005-12.189h31.33c4.136 0 7.5 3.364 7.5 7.5v34.5h-74.198z"/><path d="m386.07 301.479c4.142 0 7.5-3.357 7.5-7.5v-139.34c0-4.143-3.358-7.5-7.5-7.5h-260c-4.142 0-7.5 3.357-7.5 7.5v300c0 4.143 3.358 7.5 7.5 7.5h260c4.142 0 7.5-3.357 7.5-7.5v-127.969c0-4.143-3.358-7.5-7.5-7.5s-7.5 3.357-7.5 7.5v120.47h-245v-285h245v131.84c0 4.142 3.358 7.499 7.5 7.499z"/><path d="m340.745 209.055c-11.417-9.976-28.765-8.998-38.819 2.35l-45.856 51.764-45.856-51.764c-10.056-11.351-27.47-12.403-38.82-2.35-11.503 12.291-12.286 25.232-2.349 38.82l50.287 56.765-50.287 56.765c-9.937 13.589-9.154 26.529 2.35 38.82 11.208 9.927 29.234 8.469 38.819-2.35l45.856-51.764 45.855 51.764c9.585 10.819 27.612 12.277 38.82 2.35 11.503-12.291 12.286-25.232 2.349-38.82l-50.287-56.765 50.287-56.765c10.976-11.736 6.909-30.731-2.349-38.82zm-8.878 28.873-54.692 61.738c-2.515 2.839-2.515 7.108 0 9.947l54.692 61.738c4.516 6.176 4.16 12.058-1.068 17.645-6.028 4.522-11.91 4.165-17.646-1.068l-51.47-58.101c-3.743-3.368-7.485-3.368-11.228 0l-51.47 58.101c-5.736 5.234-11.618 5.59-17.646 1.068-5.228-5.587-5.584-11.468-1.068-17.645l54.692-61.738c2.515-2.839 2.515-7.108 0-9.947l-54.692-61.738c-4.516-6.176-4.16-12.058 1.068-17.645 5.159-4.572 13.075-4.093 17.646 1.068l51.47 58.101c3.743 3.368 7.485 3.368 11.228 0l51.47-58.101c4.571-5.159 12.486-5.64 17.646-1.068 5.228 5.587 5.584 11.468 1.068 17.645z"/></g></g></svg>