<svg id="Capa_1" enable-background="new 0 0 511.795 511.795" height="512" viewBox="0 0 511.795 511.795" width="512" xmlns="http://www.w3.org/2000/svg"><g><path d="m255.871 125.38c-177.384-39.42-232.04 48.777-224.293 201.863 14.695 136.896 133.029 213.078 224.293 160.291 91.264 52.787 209.598-23.396 224.293-160.291 7.746-153.086-46.91-241.283-224.293-201.863z" fill="#fd8087"/><path d="m218.741 501.812c-83.47 17.42-174.4-55.68-187.16-174.57-6.96-137.55 36.46-222.72 174.04-209.98-98.24 10.84-130.08 90.72-124.04 209.98 10.22 95.25 70.62 161.11 137.16 174.57z" fill="#fe646f"/><g><path d="m234.241 180.022v-89.04c0-21.14-16.53-38.84-37.63-40.27-11.92-.8-20.92-11.13-20.11-23.05.82-11.92 11.17-20.92 23.05-20.11 43.71 2.96 77.95 39.62 77.95 83.43v88.8z" fill="#d79b7a"/></g><path d="m331.513 135.681h-44.988c-4.984 0-9.024-4.04-9.024-9.024 0-44.196 35.828-80.024 80.024-80.024h44.988c4.984 0 9.024 4.04 9.024 9.024 0 44.196-35.828 80.024-80.024 80.024z" fill="#c6ea7c"/><path d="m350.941 70.072c-14.48 14.48-23.44 34.49-23.44 56.58 0 4.56 3.37 8.33 7.76 8.94-1.24.06-2.49.09-3.75.09h-44.99c-4.98 0-9.02-4.04-9.02-9.03 0-22.09 8.96-42.1 23.44-56.58s34.49-23.44 56.58-23.44h44.99c.43 0 .85.03 1.27.09-20.6.94-39.18 9.69-52.84 23.35z" fill="#b2e254"/><g><path d="m479.894 330.535c-4.084-.611-7.915 2.207-8.53 6.303-10.09 67.19-47.02 122.181-98.788 147.102-37.99 18.286-78.104 17.26-112.949-2.899-2.324-1.344-5.188-1.344-7.512 0-35.786 20.701-76.855 21.257-115.644 1.566-53.375-27.094-89.779-85.384-97.411-155.955-5.606-111.483 23.078-175.544 87.689-195.854 3.951-1.242 6.147-5.453 4.906-9.404-1.243-3.952-5.455-6.145-9.404-4.906-89.679 28.19-102.233 130.728-98.161 211.133 3.251 66.874 45.536 137.874 105.591 168.361 41.498 21.064 87.237 21.056 126.187.138 38.686 20.836 83.939 20.241 123.214 1.335 60.642-29.194 97.388-93.609 107.116-158.389.615-4.096-2.207-7.916-6.304-8.531z"/><path d="m464.727 179.707c-15.778-30.238-39.802-51.037-71.531-61.985 16.377-16.296 25.844-38.615 25.844-62.07 0-9.109-7.415-16.521-16.53-16.521h-23.819c-4.143 0-7.5 3.357-7.5 7.5s3.357 7.5 7.5 7.5h23.819c.844 0 1.53.682 1.53 1.53 0 23.494-11.466 45.631-30.677 59.221-12.274 8.7-26.747 13.299-41.854 13.299h-44.989c-.839 0-1.521-.686-1.521-1.529 0-35.409 27.006-66.714 62.069-71.768 4.101-.591 6.944-4.393 6.354-8.492-.591-4.101-4.401-6.951-8.492-6.354-24.784 3.571-47.095 17.922-60.752 38.889-5.655-42.255-40.563-75.91-84.119-78.859-16.002-1.101-29.938 11.056-31.042 27.085-1.089 16.034 11.85 30.018 27.086 31.04 17.18 1.164 30.637 15.566 30.637 32.788v21.321c-25.884-3.884-49.506-4.787-70.312-2.663-4.121.421-7.12 4.103-6.699 8.223s4.09 7.11 8.223 6.699c20.152-2.058 43.269-1.073 68.788 2.912v45.047h-7.194c-4.907 0-9.489-5.868-11.271-10.09-2.157-3.538-6.772-4.656-10.308-2.501-3.537 2.156-4.656 6.771-2.501 10.308 4.329 9.449 13.114 17.283 24.08 17.283h74.639c10.705 0 19.669-7.794 24.444-16.813 2.416-3.364 1.647-8.05-1.718-10.466-3.363-2.416-8.05-1.65-10.466 1.718-2.086 4.111-7.355 10.561-12.261 10.561h-9.184v-29.417c15.223 1.401 31.228.077 46.51.077 17.052 0 33.437-4.86 47.609-14.081 64.435 17.166 95.264 74.81 94.221 176.083-.042 4.142 3.281 7.534 7.423 7.577h.079c4.105 0 7.455-3.308 7.498-7.423.546-53.037-7.178-94.132-23.613-125.629zm-222.986-7.186v-81.539c0-25.082-19.601-46.058-44.628-47.754-8.533-1.39-12.91-6.407-13.13-15.052.534-7.776 7.29-13.648 15.061-13.143 39.788 2.696 70.956 36.056 70.956 75.949v81.539z"/></g></g></svg>