<svg id="Capa_1" enable-background="new 0 0 510.331 510.331" height="512" viewBox="0 0 510.331 510.331" width="512" xmlns="http://www.w3.org/2000/svg"><g><path d="m100.895 369.326 44.224-76.602 33.48 19.33-30.24-106.392-107.258 27.007 33.965 19.61-67.581 117.047z" fill="#97d729"/><path d="m91.106 232.67 33.96 19.61-67.58 117.05h-50l67.58-117.05-33.96-19.61 107.25-27.01 3.34 11.75z" fill="#92ce20"/><path d="m322.176 369.326v-39.008l-77.018 79.385 77.018 79.384v-38.872h133.95l-46.705-80.889z" fill="#97d729"/><path d="m334.456 450.21h-12.28v38.88l-77.02-79.39 77.02-79.38v39.01h12.15l-39.17 40.37z" fill="#92ce20"/><path d="m301.863 21.244h-93.41l-71.186 123.304 70.049 40.442z" fill="#c6ea7c"/><path d="m187.266 144.55 32.55 18.79-12.5 21.65-70.05-40.44 71.19-123.31h50z" fill="#b2e254"/><path d="m369.265 137.991-67.402-116.747-46.705 80.889 44.054 76.304-33.923 19.585 107.259 27.008 30.239-106.393z" fill="#97d729"/><path d="m375.886 213.28-3.34 11.75-107.26-27.01 33.93-19.58-44.06-76.31 46.71-80.89 25 43.3-21.71 37.59 44.06 76.31-33.93 19.58z" fill="#92ce20"/><path d="m431.633 246.018-70.051 40.444 94.544 163.753 46.705-80.889z" fill="#c6ea7c"/><path d="m481.126 406.91-25 43.3-94.54-163.75 70.05-40.44 12.5 21.65-32.55 18.79z" fill="#b2e254"/><path d="m100.895 369.326h-93.41l46.705 80.889h142.384v-80.889z" fill="#c6ea7c"/><path d="m57.486 369.33 46.7 80.88h-50l-46.7-80.88z" fill="#b2e254"/><g><path d="m509.326 365.576-71.198-123.308c-2.071-3.588-6.658-4.816-10.245-2.745l-70.051 40.444c-3.744 2.657-4.659 6.072-2.745 10.245l41.349 71.618h-66.76v-31.51c0-3.054-1.852-5.803-4.682-6.951-2.831-1.147-6.074-.464-8.201 1.728l-77.02 79.38c-2.823 2.909-2.823 7.536 0 10.445l77.02 79.39c2.558 2.264 5.291 2.84 8.201 1.729 2.831-1.147 4.683-3.896 4.683-6.951v-31.38h31.19c4.142 0 7.5-3.358 7.5-7.5s-3.358-7.5-7.5-7.5h-38.69c-4.142 0-7.5 3.358-7.5 7.5v20.377l-59.07-60.887 59.07-60.88v20.51c0 4.142 3.358 7.5 7.5 7.5h82.92l38.037 65.88h-49.577c-4.142 0-7.5 3.358-7.5 7.5s3.358 7.5 7.5 7.5h62.504c.022 0 .044.004.066.004 2.679 0 5.155-1.43 6.495-3.75l46.705-80.889c1.339-2.319 1.339-5.178-.001-7.499zm-53.199 69.638-84.3-146.006 57.061-32.944 65.282 113.063z"/><path d="m407.396 112.725c-2.409-1.878-5.716-2.106-8.361-.58l-27.024 15.601-19.819-34.335c-2.071-3.588-6.66-4.817-10.245-2.746-3.587 2.071-4.817 6.658-2.746 10.245l23.57 40.831c2.071 3.586 6.657 4.815 10.245 2.745l17.498-10.101-23.193 81.595-82.257-20.714 17.901-10.33c3.745-2.657 4.661-6.072 2.747-10.246l-41.893-72.557 38.047-65.895 18.466 31.982c2.071 3.588 6.661 4.816 10.245 2.745 3.587-2.071 4.816-6.658 2.745-10.245l-24.96-43.23c-1.314-2.277-3.866-3.75-6.495-3.75h-93.41c-2.68 0-5.156 1.43-6.495 3.75l-71.19 123.31c-1.914 4.173-.999 7.588 2.746 10.245l70.049 40.44c3.588 2.071 8.174.841 10.245-2.745l41.345-71.61 33.813 58.564-27.432 15.831c-2.646 1.527-4.101 4.505-3.68 7.53s2.635 5.493 5.597 6.239l107.26 27.01c3.722.896 6.737-.844 9.046-5.223l30.239-106.39c.835-2.938-.195-6.089-2.604-7.966zm-202.825 62.02-57.06-32.94 65.275-113.065h76.088z"/><path d="m196.573 361.826h-82.688l33.979-58.857 26.985 15.58c2.646 1.528 5.952 1.298 8.36-.58 2.409-1.877 3.439-5.028 2.604-7.966l-30.24-106.392c-1.108-3.9-5.115-6.213-9.046-5.223l-107.257 27.009c-2.961.746-5.175 3.213-5.597 6.238s1.033 6.003 3.678 7.53l27.469 15.859-63.831 110.552c-1.319 2.283-1.319 5.218 0 7.5l46.705 80.888c1.34 2.321 3.816 3.75 6.495 3.75h142.384c4.142 0 7.5-3.358 7.5-7.5v-80.889c0-4.141-3.357-7.499-7.5-7.499zm-7.5 80.889h-130.553l-38.042-65.885h22.458c4.142 0 7.5-3.358 7.5-7.5s-3.358-7.5-7.5-7.5h-22.463l61.088-105.801c1.914-4.173.999-7.588-2.745-10.245l-17.942-10.359 82.261-20.713 23.192 81.597-17.458-10.079c-4.173-1.914-7.588-.999-10.245 2.745l-42.062 72.855h-20.946c-4.142 0-7.5 3.358-7.5 7.5s3.358 7.5 7.5 7.5l113.458-.004v65.889z"/></g></g></svg>