<svg id="Capa_1" enable-background="new 0 0 512.153 512.153" height="512" viewBox="0 0 512.153 512.153" width="512" xmlns="http://www.w3.org/2000/svg"><g><path d="m323.821 504.657h-135.49v-16.395c0-10.125 8.208-18.333 18.333-18.333h98.823c10.125 0 18.333 8.208 18.333 18.333v16.395z" fill="#528fd8"/><path d="m256.667 469.933c-10.13 0-18.33 8.2-18.33 18.33v16.39h-50v-16.39c0-10.13 8.2-18.33 18.33-18.33z" fill="#0573ce"/><path d="m235.989 410.686h40.176v59.242h-40.176z" fill="#dbebfc"/><circle cx="256.077" cy="155.111" fill="#fef48b" r="92.778"/><path d="m281.077 244.483c-7.95 2.22-16.34 3.41-25 3.41-51.24 0-92.78-41.54-92.78-92.78s41.54-92.78 92.78-92.78c8.66 0 17.05 1.19 25 3.41-39.1 10.91-67.78 46.79-67.78 89.37-.001 42.58 28.68 78.46 67.78 89.37z" fill="#fef056"/><path d="m446.084 410.686h-380.015c-11.74 0-20.793-10.339-19.244-21.975l30.478-228.912c1.284-9.646 9.512-16.851 19.244-16.851h319.06c9.731 0 17.959 7.205 19.243 16.851l30.478 228.912c1.549 11.637-7.504 21.975-19.244 21.975z" fill="#528fd8"/><path d="m116.546 142.943c-9.73 0-17.96 7.21-19.24 16.86l-30.48 228.91c-1.55 11.63 7.5 21.97 19.24 21.97h-20c-11.74 0-20.79-10.34-19.24-21.97l30.48-228.91c1.28-9.65 9.51-16.86 19.24-16.86z" fill="#0573ce"/><path d="m90.556 369.83h331.041l-24.768-186.026h-281.505z" fill="#b3dafe"/><path d="m115.326 183.803-24.77 186.03h30l24.77-186.03z" fill="#8ac9fe"/><g><path d="m358.172 96.167c-2.164-3.532-.842-8.174 2.745-10.245l19.245-11.111c3.587-2.071 8.174-.843 10.245 2.745 2.071 3.587.842 8.174-2.745 10.245l-19.245 11.111c-3.465 2.036-8.09.771-10.245-2.745z"/></g><g><path d="m315.021 53.016c-3.536-2.157-4.816-6.658-2.745-10.245l11.111-19.245c2.071-3.587 6.658-4.817 10.245-2.745 3.587 2.071 4.816 6.658 2.745 10.245l-11.111 19.245c-1.814 3.606-6.564 4.99-10.245 2.745z"/></g><g><path d="m256.077 37.222c-4.142 0-7.5-3.358-7.5-7.5v-22.222c0-4.142 3.358-7.5 7.5-7.5s7.5 3.358 7.5 7.5v22.222c0 4.142-3.358 7.5-7.5 7.5z"/></g><g><path d="m186.887 50.271-11.111-19.245c-2.071-3.587-.842-8.174 2.745-10.245 3.587-2.072 8.174-.842 10.245 2.745l11.111 19.245c2.071 3.587.863 8.21-2.745 10.245-3.868 2.182-7.899 1.338-10.245-2.745z"/></g><g><path d="m143.736 98.912-19.245-11.111c-3.587-2.071-4.816-6.658-2.745-10.245s6.657-4.816 10.245-2.745l19.245 11.111c3.587 2.071 4.686 6.585 2.745 10.245-2.071 3.906-6.363 5.115-10.245 2.745z"/></g><g><path d="m472.761 387.724-22.41-168.291c-.547-4.105-4.316-6.987-8.424-6.444-4.106.547-6.991 4.319-6.445 8.425l22.411 168.291c.14 8.062-3.795 12.555-11.806 13.479h-380.02c-8.012-.924-11.947-5.417-11.806-13.48l30.48-228.914c.782-5.898 5.857-10.346 11.805-10.346h319.06c5.948 0 11.023 4.448 11.806 10.35l3.72 27.93c.547 4.106 4.318 6.992 8.425 6.444 4.106-.547 6.991-4.319 6.444-8.425l-3.72-27.926c-1.768-13.326-13.235-23.374-26.675-23.374h-61.214c-9.228-46.39-50.362-80.61-98.315-80.61s-89.087 34.221-98.315 80.61h-61.215c-13.44 0-24.908 10.048-26.675 23.37l-30.48 228.91c-2.16 16.208 11.355 30.46 26.674 30.46h162.422v44.25h-21.822c-14.243 0-25.83 11.587-25.83 25.83v16.39c0 4.142 3.358 7.5 7.5 7.5h76.4c4.142 0 7.5-3.358 7.5-7.5s-3.358-7.5-7.5-7.5h-68.9v-8.89c0-5.972 4.858-10.83 10.83-10.83h98.82c5.972 0 10.83 4.858 10.83 10.83v8.89h-18.9c-4.142 0-7.5 3.358-7.5 7.5s3.358 7.5 7.5 7.5h26.4c4.142 0 7.5-3.358 7.5-7.5v-16.39c0-14.243-11.587-25.83-25.83-25.83h-21.822v-44.25h162.422c15.319 0 28.834-14.252 26.675-30.459zm-216.684-317.891c39.767 0 74.026 27.663 82.981 65.61h-165.963c8.955-37.947 43.214-65.61 82.982-65.61zm12.587 348.354v44.242h-25.176v-44.242z"/><path d="m429.031 368.843-24.77-186.03c-.497-3.727-3.675-6.51-7.435-6.51h-281.5c-3.76 0-6.938 2.784-7.435 6.51l-24.77 186.03c-.089 5.078 2.389 7.908 7.435 8.49h86.48c4.142 0 7.5-3.358 7.5-7.5s-3.358-7.5-7.5-7.5h-12.896l5.2-47.487h47.803l-1.734 47.487h-5.685c-4.142 0-7.5 3.358-7.5 7.5s3.358 7.5 7.5 7.5h211.87c5.048-.582 7.526-3.412 7.437-8.49zm-321.59-68.997 6.228-46.771h47.347l-5.122 46.771zm114.214-108.543-1.707 46.772h-42.199l5.122-46.772zm107.627 0 5.122 46.772h-42.199l-1.707-46.772zm21.855 61.772h47.347l6.228 46.771h-48.452zm-9.968 46.771h-46.708l-1.707-46.771h43.294zm-63.973-61.771h-42.238l1.707-46.772h38.824zm-101.09 15h43.294l-1.707 46.771h-46.708zm58.304 0h43.334l1.707 46.771h-46.748zm108.402 61.771 5.2 47.487h-51.27l-1.734-47.487zm53.675-76.771h-46.992l-5.122-46.772h45.887zm-228.706-46.772-5.122 46.772h-46.992l6.228-46.772zm-18.73 171.03h-49.93l6.323-47.487h48.807zm83.104-47.487h47.844l1.734 47.487h-51.311zm130.947 47.487-5.2-47.487h48.807l6.323 47.487z"/></g></g></svg>