<svg id="Capa_1" enable-background="new 0 0 512 512" height="512" viewBox="0 0 512 512" width="512" xmlns="http://www.w3.org/2000/svg"><g><path d="m437.046 102.601v356.982c0 24.823-20.123 44.945-44.945 44.945h-272.202c-24.823 0-44.945-20.123-44.945-44.945v-356.982z" fill="#fef48b"/><path d="m169.705 504.529h-49.806c-24.823 0-44.945-20.122-44.945-44.945v-356.983h49.806v356.982c0 24.824 20.122 44.946 44.945 44.946z" fill="#fef056"/><path d="m288.721 383.129v-19.679l-38.854 40.049 38.854 40.048v-19.61h67.576l-23.562-40.808z" fill="#97d729"/><path d="m346.032 324.544-34.843 21.264 45.108 78.129 24.16-39.773z" fill="#c6ea7c"/><path d="m177.088 383.129 22.31-38.644 16.891 9.751-15.256-53.673-54.11 13.625 17.135 9.893-34.094 59.048 23.562 40.808h67.846v-40.808z" fill="#c6ea7c"/><path d="m177.088 383.129 22.31-38.644 16.891 9.751-15.256-53.673-54.11 13.625 17.135 9.893-34.094 59.048z" fill="#97d729"/><path d="m312.477 266.424-34.004-58.897h-47.123l-32.507 56.306 35.308 20.456 20.761-35.955 22.224 38.494-17.113 9.881 54.11 13.625 15.256-53.674z" fill="#c6ea7c"/><path d="m312.477 266.424-34.004-58.897-23.561 40.807 22.224 38.494-17.113 9.881 54.11 13.625 15.256-53.674z" fill="#97d729"/><g fill="#d79b7a"><path d="m344.821 44.66h-177.642l22.877-37.189h131.888z"/><path d="m130.884 80.954h109.778v37.189h-109.778z" transform="matrix(0 -1 1 0 86.225 285.322)"/><path d="m271.338 80.954h109.778v37.189h-109.778z" transform="matrix(0 -1 1 0 226.679 425.776)"/></g><g><path d="m386.952 380.414-34.425-59.62c-2.723-3.806-6.19-4.69-10.402-2.652l-34.844 21.264c-3.475 2.121-4.623 6.626-2.588 10.152l15.053 26.072h-23.524v-12.18c0-3.054-1.852-5.803-4.683-6.951-2.829-1.147-6.074-.464-8.2 1.728l-38.855 40.048c-2.823 2.91-2.823 7.536 0 10.445l38.855 40.048c2.558 2.265 5.291 2.841 8.2 1.728 2.831-1.147 4.683-3.896 4.683-6.951v-12.11h60.075c2.581 0 5.068-1.401 6.41-3.606l24.16-39.773c1.422-2.339 1.455-5.27.085-7.642zm-98.23 36.023c-4.143 0-7.5 3.358-7.5 7.5v1.109l-20.905-21.547 20.905-21.547v1.178c0 4.142 3.357 7.5 7.5 7.5h39.684l13.339 23.102 1.562 2.706h-54.585zm67.739-7.216-35.117-60.825 22.036-13.448 28.36 49.118z"/><path d="m333.999 250.745c-2.408-1.878-5.715-2.106-8.36-.58l-10.416 6.014-30.254-52.402c-1.325-2.288-3.85-3.75-6.495-3.75h-47.124c-2.68 0-5.156 1.43-6.495 3.75l-32.506 56.306c-2.069 3.583-.845 8.166 2.735 10.24l35.308 20.456c4.176 1.922 7.594 1.008 10.255-2.74l14.265-24.706 11.98 20.75-10.619 6.131c-2.645 1.527-4.1 4.505-3.678 7.53s2.635 5.492 5.597 6.238l54.11 13.625c.614.155 1.229.229 1.836.229 3.275 0 6.274-2.161 7.209-5.451l15.256-53.673c.835-2.939-.195-6.089-2.604-7.967zm-102.587 23.289-22.33-12.937 26.597-46.071h29.803l-17.066 29.557c-.001.001-.001.003-.002.004zm77.496 27.25-29.113-7.331c2.129-1.044 3.658-2.772 4.586-5.185.516-1.921.245-3.968-.749-5.691l-20.06-34.745 14.901-25.807 27.509 47.648c.994 1.723 2.633 2.979 4.554 3.495 2.476.413 4.67-.008 6.58-1.263z"/><path d="m221.372 375.629h-31.294l12.065-20.899 10.395 6.001c2.644 1.527 5.951 1.297 8.36-.58s3.439-5.028 2.604-7.966l-15.255-53.673c-1.108-3.899-5.115-6.215-9.046-5.223l-54.11 13.625c-2.961.746-5.175 3.213-5.597 6.238s1.033 6.003 3.678 7.53l10.639 6.143-30.343 52.554c-1.322 2.287-1.322 5.213 0 7.5l23.562 40.808c1.34 2.321 3.816 3.75 6.495 3.75h67.846c4.142 0 7.5-3.358 7.5-7.5v-40.808c.001-4.142-3.357-7.5-7.499-7.5zm-50.07-53.489c-.933-2.419-2.469-4.151-4.606-5.196l29.112-7.331 8.208 28.878c-1.904-1.247-4.091-1.664-6.559-1.25-1.921.515-3.559 1.772-4.554 3.495l-20.146 34.895h-29.803l27.598-47.799c.995-1.724 1.265-3.771.75-5.692zm42.57 94.297h-56.016l-14.901-25.808h70.918v25.808z"/><g><path d="m437.046 95.13h-84.754v-50.47c0-1.363-.392-2.758-1.105-3.918l-22.88-37.186c-1.36-2.21-3.769-3.556-6.363-3.556h-131.888c-2.594 0-5.003 1.346-6.363 3.556l-22.881 37.186c-.713 1.16-1.105 2.557-1.105 3.918v50.47h-84.753c-4.126 0-7.471 3.345-7.471 7.471v356.982c0 28.902 23.514 52.416 52.416 52.416h56.5c4.126 0 7.471-3.345 7.471-7.471s-3.345-7.471-7.471-7.471h-56.5c-20.663 0-37.474-16.811-37.474-37.474v-349.511h77.283v44.365c0 4.126 3.345 7.471 7.471 7.471h37.188c4.126 0 7.471-3.345 7.471-7.471v-44.365h88.323v44.365c0 4.126 3.344 7.471 7.471 7.471h37.189c4.127 0 7.471-3.345 7.471-7.471v-44.365h77.283v81.175c0 4.126 3.344 7.471 7.471 7.471s7.471-3.345 7.471-7.471v-88.646c0-4.126-3.344-7.471-7.471-7.471zm-240.15 51.836h-22.246v-94.835h22.247v94.835zm14.942-51.836v-43.003h15.434c4.126 0 7.471-3.345 7.471-7.471s-3.345-7.471-7.471-7.471h-46.728l13.687-22.244h123.537l13.687 22.244h-71.631c-4.126 0-7.471 3.345-7.471 7.471s3.345 7.471 7.471 7.471h40.336v43.003zm125.513 51.836h-22.247v-94.835h22.247z"/><path d="m437.046 216.339c-4.127 0-7.471 3.345-7.471 7.471v235.773c0 20.663-16.811 37.474-37.474 37.474h-183.148c-4.126 0-7.471 3.345-7.471 7.471s3.345 7.471 7.471 7.471h183.148c28.902 0 52.416-23.514 52.416-52.416v-235.773c0-4.126-3.344-7.471-7.471-7.471z"/></g></g></g></svg>