<?xml version="1.0" encoding="UTF-8" standalone="no"?>
<svg width="234px" height="208px" viewBox="0 0 234 208" version="1.1" xmlns="http://www.w3.org/2000/svg" xmlns:xlink="http://www.w3.org/1999/xlink">
    <!-- Generator: Sketch 39.1 (31720) - http://www.bohemiancoding.com/sketch -->
    <title>Slice 1</title>
    <desc>Created with Sketch.</desc>
    <defs></defs>
    <g id="Page-1" stroke="none" stroke-width="1" fill="none" fill-rule="evenodd">
        <path d="M215.211,170.1 C212.248,170.1 207.208,167.79 203.479,165.64 L202.88,165.29 L203.398,164.83 C206.859,161.75 208.892,157.88 209.986,155.16 L210.323,154.33 L210.854,155.06 C213.682,158.91 215.713,162.54 216.891,165.83 C217.425,167.32 217.826,169.21 216.702,169.8 C216.317,169.99 215.816,170.1 215.212,170.1 C215.212,170.1 215.212,170.1 215.211,170.1 L215.211,170.1 Z M18.465,170.1 C17.857,170.1 17.353,170 16.968,169.79 C15.844,169.21 16.245,167.32 16.78,165.83 C17.956,162.54 19.988,158.91 22.817,155.06 L23.35,154.33 L23.685,155.17 C24.569,157.38 26.602,161.58 30.271,164.83 L30.791,165.29 L30.19,165.64 C26.459,167.79 21.419,170.1 18.465,170.1 L18.465,170.1 Z" id="Fill-69" fill="#F3B130"></path>
        <path d="M32.309,163.93 C27.739,160.29 25.608,154.85 24.904,152.69 L24.821,152.43 L24.991,152.22 C28.993,147.27 33.231,143.18 35.402,141.18 L36.14,140.51 L36.238,141.5 C36.907,148.29 37.969,153.69 39.481,158.02 L39.575,158.28 L39.395,158.5 C38.025,160.16 35.717,162.1 32.896,163.96 L32.592,164.16 L32.309,163.93 L32.309,163.93 Z M200.774,163.96 C197.953,162.1 195.645,160.16 194.274,158.5 L194.096,158.28 L194.188,158.02 C195.71,153.64 196.768,148.24 197.422,141.5 L197.519,140.51 L198.258,141.18 C200.416,143.16 204.639,147.22 208.669,152.22 L208.838,152.43 L208.756,152.69 C208.22,154.36 206.103,160.14 201.362,163.93 L201.079,164.16 L200.774,163.96 L200.774,163.96 Z M83.197,187.2 C78.728,187.2 74.403,186.63 72.223,186.29 L71.841,186.23 L71.802,185.84 C71.602,183.86 71.5,181.84 71.5,179.83 L71.5,179.13 L72.062,179.2 C77.213,179.84 83.41,180.27 91.007,180.52 L91.502,180.54 L91.49,181.03 C91.45,182.75 91.348,184.41 91.187,185.97 L91.152,186.32 L90.815,186.41 C88.781,186.93 86.218,187.2 83.198,187.2 L83.197,187.2 L83.197,187.2 Z M150.473,187.2 C147.452,187.2 144.889,186.93 142.854,186.41 L142.521,186.32 L142.483,185.98 C142.312,184.41 142.21,182.75 142.18,181.03 L142.171,180.54 L142.664,180.52 C150.264,180.27 156.458,179.84 161.598,179.2 L162.16,179.13 L162.16,179.69 C162.167,179.75 162.17,179.79 162.17,179.83 C162.17,181.84 162.068,183.86 161.868,185.84 L161.829,186.23 L161.447,186.29 C159.267,186.63 154.942,187.2 150.473,187.2 L150.473,187.2 Z M81.5,205 C79.482,205 77.412,203.24 75.671,200.05 C75.285,199.35 74.913,198.57 74.567,197.72 L74.243,196.93 L75.091,197.04 C76.732,197.24 79.286,197.48 82.14,197.48 C84.126,197.48 86.054,197.36 87.872,197.11 L88.728,196.99 L88.403,197.79 C88.334,197.96 88.061,198.6 88.061,198.6 C86.197,202.67 83.808,205 81.5,205 L81.5,205 Z M152.17,205 C149.858,205 147.472,202.67 145.625,198.61 C145.502,198.34 145.379,198.07 145.267,197.79 L144.941,196.99 L145.798,197.11 C147.607,197.36 149.535,197.48 151.53,197.48 C154.384,197.48 156.938,197.24 158.579,197.04 L159.434,196.93 L159.102,197.73 C158.628,198.86 158.126,199.87 157.609,200.73 C155.953,203.48 154.021,205 152.17,205 L152.17,205 Z" id="Fill-70" fill="#48A4A3"></path>
        <path d="M74.5,101.913 C72.57,101.913 71,103.483 71,105.413 C71,107.342 72.57,108.91 74.5,108.91 C76.43,108.91 78,107.342 78,105.413 C78,103.483 76.43,101.913 74.5,101.913 L74.5,101.913 Z M74.5,128.83 C68.804,128.83 64.17,124.2 64.17,118.5 L64.17,95.163 C64.17,89.466 68.804,84.833 74.5,84.833 C80.196,84.833 84.83,89.466 84.83,95.163 L84.83,118.5 C84.83,124.2 80.196,128.83 74.5,128.83 L74.5,128.83 Z M159.17,101.913 C157.24,101.913 155.67,103.483 155.67,105.413 C155.67,107.342 157.24,108.91 159.17,108.91 C161.1,108.91 162.67,107.342 162.67,105.413 C162.67,103.483 161.1,101.913 159.17,101.913 L159.17,101.913 Z M159.17,128.83 C153.469,128.83 148.83,124.2 148.83,118.5 L148.83,95.163 C148.83,89.466 153.469,84.833 159.17,84.833 C164.866,84.833 169.5,89.466 169.5,95.163 L169.5,118.5 C169.5,124.2 164.866,128.83 159.17,128.83 L159.17,128.83 Z" id="Fill-71" fill="#FFFFFF"></path>
        <path d="M74.5,68.583 C73.949,68.583 73.5,69.031 73.5,69.583 L73.5,82.867 L73.059,82.918 C66.851,83.65 62.17,88.914 62.17,95.163 L62.17,118.5 C62.17,124.76 66.851,130.02 73.058,130.74 L73.5,130.79 L73.5,144.48 C73.5,145.03 73.949,145.48 74.5,145.48 C75.051,145.48 75.5,145.03 75.5,144.48 L75.5,130.79 L75.942,130.74 C82.149,130.02 86.83,124.76 86.83,118.5 L86.83,95.163 C86.83,88.914 82.149,83.65 75.941,82.918 L75.5,82.867 L75.5,69.583 C75.5,69.031 75.051,68.583 74.5,68.583 L74.5,68.583 Z M159.17,68.583 C158.619,68.583 158.17,69.031 158.17,69.583 L158.17,82.867 L157.729,82.918 C151.515,83.651 146.83,88.915 146.83,95.163 L146.83,118.5 C146.83,124.76 151.515,130.01 157.728,130.74 L158.17,130.79 L158.17,144.48 C158.17,145.03 158.619,145.48 159.17,145.48 C159.721,145.48 160.17,145.03 160.17,144.48 L160.17,130.79 L160.612,130.74 C166.819,130.02 171.5,124.76 171.5,118.5 L171.5,95.163 C171.5,88.914 166.819,83.65 160.611,82.918 L160.17,82.867 L160.17,69.583 C160.17,69.031 159.721,68.583 159.17,68.583 L159.17,68.583 Z M116.83,119.91 C108.928,119.91 102.5,126.35 102.5,134.25 C102.5,141.35 107.857,145.58 116.83,145.58 C125.809,145.58 131.17,141.35 131.17,134.25 C131.17,126.35 124.737,119.91 116.83,119.91 L116.83,119.91 Z M130.56,170.73 C130.374,171.25 130.642,171.83 131.159,172.01 C131.274,172.05 131.387,172.07 131.5,172.07 C131.92,172.07 132.297,171.81 132.44,171.41 L135.691,162.4 L135.987,162.36 C143.209,161.29 149.588,159.66 154.944,157.52 L155.266,157.39 L160.76,163.42 C161.005,163.69 161.298,163.74 161.5,163.74 C161.748,163.74 161.987,163.65 162.175,163.48 C162.372,163.3 162.488,163.05 162.5,162.78 C162.511,162.52 162.419,162.26 162.242,162.07 L157.213,156.57 L157.827,156.28 C162.462,154.1 166.083,151.5 168.59,148.57 C168.951,148.15 168.903,147.51 168.485,147.15 C168.305,147 168.076,146.91 167.839,146.91 C167.543,146.91 167.263,147.04 167.069,147.27 C164.651,150.11 160.955,152.65 156.083,154.82 L155.754,154.97 L150.071,148.74 C149.88,148.53 149.619,148.42 149.335,148.42 C149.083,148.42 148.843,148.51 148.658,148.68 C148.461,148.86 148.348,149.1 148.336,149.36 C148.323,149.63 148.417,149.89 148.598,150.08 L153.785,155.78 L153.097,156.04 C148.478,157.79 143.163,159.17 137.301,160.14 L136.461,160.27 L139.77,151.09 C139.863,150.84 139.853,150.57 139.741,150.33 C139.628,150.09 139.425,149.9 139.171,149.81 C139.055,149.77 138.94,149.75 138.824,149.75 C138.408,149.75 138.033,150.02 137.891,150.41 L134.218,160.6 L133.917,160.64 C128.474,161.37 122.725,161.74 116.83,161.74 C110.932,161.74 105.187,161.37 99.753,160.64 L99.453,160.6 L95.77,150.41 C95.627,150.02 95.252,149.75 94.835,149.75 C94.719,149.75 94.604,149.77 94.494,149.81 C93.974,150 93.705,150.57 93.891,151.09 L97.21,160.27 L96.369,160.14 C90.521,159.17 85.204,157.8 80.563,156.04 L79.874,155.78 L85.071,150.09 C85.254,149.89 85.346,149.63 85.332,149.36 C85.319,149.1 85.204,148.86 85.008,148.69 C84.816,148.51 84.577,148.42 84.326,148.42 C84.049,148.42 83.785,148.53 83.602,148.74 L77.916,154.97 L77.586,154.82 C72.721,152.65 69.021,150.11 66.59,147.27 C66.402,147.04 66.127,146.92 65.834,146.92 C65.595,146.92 65.364,147 65.182,147.16 C64.981,147.33 64.856,147.57 64.835,147.84 C64.813,148.11 64.896,148.36 65.069,148.57 C67.587,151.5 71.212,154.1 75.843,156.28 L76.457,156.57 L71.429,162.07 C71.248,162.27 71.155,162.52 71.167,162.79 C71.18,163.06 71.296,163.3 71.495,163.48 C71.676,163.65 71.92,163.74 72.17,163.74 C72.452,163.74 72.715,163.63 72.895,163.42 L78.404,157.39 L78.726,157.52 C84.082,159.66 90.46,161.29 97.683,162.36 L97.979,162.4 L101.23,171.41 C101.375,171.81 101.744,172.07 102.17,172.07 C102.283,172.07 102.396,172.05 102.515,172.01 C103.026,171.82 103.295,171.25 103.109,170.73 L100.214,162.71 L101.02,162.81 C106.172,163.43 111.491,163.74 116.83,163.74 C122.176,163.74 127.498,163.43 132.65,162.81 L133.456,162.71 L130.56,170.73 L130.56,170.73 Z M116.83,178.83 C94.413,178.83 79.277,178.48 68.248,176.66 C59.269,175.17 53.047,172.67 48.668,168.79 C47.12,167.41 45.8,165.88 44.631,164.1 C43.457,162.3 42.482,160.33 41.65,158.05 C37.884,147.81 37.17,132.39 37.17,107.502 C37.17,105.782 37.17,104.121 37.18,102.49 L37.183,102.093 L37.569,102.005 C44.784,100.354 50.02,93.792 50.02,86.403 C50.02,85.129 49.86,83.833 49.544,82.551 L49.431,82.091 L49.884,81.954 C56.753,79.863 61.55,73.374 61.55,66.172 C61.55,64.475 61.302,62.827 60.813,61.273 L60.573,60.51 L61.363,60.628 C62.277,60.764 63.208,60.833 64.13,60.833 C69.968,60.833 75.352,58.17 78.903,53.529 L79.155,53.199 L79.525,53.386 C82.044,54.66 84.846,55.333 87.63,55.333 C92.563,55.333 97.151,53.38 100.549,49.836 L100.989,49.377 L101.332,49.913 C104.67,55.137 110.571,58.382 116.73,58.382 L116.94,58.382 C123.093,58.382 128.99,55.137 132.329,49.913 L132.67,49.378 L133.11,49.835 C136.518,53.38 141.11,55.333 146.04,55.333 C148.827,55.333 151.625,54.66 154.134,53.386 L154.504,53.199 L154.757,53.528 C158.317,58.17 163.706,60.833 169.54,60.833 C170.462,60.833 171.393,60.764 172.307,60.628 L173.097,60.51 L172.857,61.273 C172.361,62.848 172.11,64.497 172.11,66.172 C172.11,73.372 176.911,79.861 183.786,81.954 L184.242,82.092 L184.125,82.555 C183.81,83.797 183.65,85.091 183.65,86.403 C183.65,93.792 188.887,100.354 196.102,102.005 L196.488,102.093 L196.49,102.49 C196.5,104.121 196.5,105.782 196.5,107.502 C196.5,121.6 196.249,130.8 195.659,138.27 C194.968,146.88 193.809,153.16 192.009,158.06 C190.356,162.56 188.063,166.07 185.001,168.79 C180.623,172.67 174.401,175.17 165.421,176.66 C154.383,178.48 139.246,178.83 116.83,178.83 L116.83,178.83 Z" id="Fill-72" fill="#F9D4B4"></path>
        <path d="M199.66,100.413 C191.935,100.413 185.65,94.127 185.65,86.403 C185.65,84.822 185.925,83.241 186.469,81.706 L186.863,80.616 L185.729,80.381 C178.998,79.026 174.11,73.049 174.11,66.172 C174.11,63.821 174.667,61.566 175.767,59.47 L176.895,57.314 L174.571,58.049 C172.961,58.569 171.268,58.833 169.54,58.833 C163.929,58.833 158.734,56.027 155.642,51.327 L155.115,50.52 L154.289,51.02 C151.781,52.533 148.929,53.333 146.04,53.333 C141.007,53.333 136.361,51.015 133.292,46.975 L132.305,45.667 L131.59,47.149 C128.846,52.844 123.232,56.382 116.94,56.382 L116.73,56.382 C110.432,56.382 104.814,52.844 102.07,47.149 L101.363,45.67 L100.379,46.974 C97.309,51.015 92.663,53.333 87.63,53.333 C84.745,53.333 81.89,52.533 79.373,51.021 L78.551,50.52 L78.017,51.328 C74.936,56.027 69.745,58.833 64.13,58.833 C62.406,58.833 60.71,58.569 59.087,58.049 L56.775,57.316 L57.903,59.471 C58.996,61.552 59.55,63.807 59.55,66.172 C59.55,73.05 54.666,79.027 47.939,80.382 L46.804,80.617 L47.191,81.705 C47.741,83.23 48.02,84.811 48.02,86.403 C48.02,94.127 41.735,100.413 34.01,100.413 C26.285,100.413 20,94.127 20,86.403 C20,82.419 21.716,78.609 24.708,75.949 L25.833,74.95 L24.475,74.303 C20.292,72.3 17.59,68.026 17.59,63.413 C17.59,58.155 20.956,53.535 25.966,51.917 L27.194,51.523 L26.507,50.428 C24.972,48.008 24.16,45.208 24.16,42.333 C24.16,33.929 31.002,27.092 39.41,27.092 C41.147,27.092 42.872,27.395 44.539,27.992 L46.074,28.545 L45.874,26.934 C45.79,26.259 45.75,25.708 45.75,25.203 C45.75,17.554 51.972,11.333 59.62,11.333 C63.55,11.333 67.312,13.019 69.942,15.959 L71.368,17.544 L71.675,15.43 C72.731,8.249 78.997,2.833 86.25,2.833 C92.048,2.833 97.334,6.265 99.716,11.579 L100.529,13.411 L101.502,11.65 C104.583,6.057 110.456,2.583 116.83,2.583 C123.2,2.583 129.077,6.057 132.167,11.65 L133.134,13.411 L133.954,11.579 C136.336,6.265 141.622,2.833 147.42,2.833 C154.673,2.833 160.939,8.249 161.995,15.43 L162.302,17.544 L163.729,15.958 C166.357,13.019 170.116,11.333 174.04,11.333 C181.693,11.333 187.92,17.554 187.92,25.203 C187.92,25.708 187.88,26.259 187.796,26.935 L187.596,28.545 L189.13,27.992 C190.798,27.395 192.523,27.092 194.26,27.092 C202.668,27.092 209.51,33.929 209.51,42.333 C209.51,45.192 208.698,47.992 207.163,50.429 L206.476,51.523 L207.703,51.916 C212.708,53.533 216.07,58.153 216.07,63.413 C216.07,68.024 213.372,72.298 209.196,74.303 L207.836,74.95 L208.962,75.949 C211.954,78.619 213.67,82.428 213.67,86.403 C213.67,94.127 207.385,100.413 199.66,100.413 L199.66,100.413 Z M116.83,143.58 C112.225,143.58 104.5,142.37 104.5,134.25 C104.5,127.45 110.031,121.91 116.83,121.91 C123.634,121.91 129.17,127.45 129.17,134.25 C129.17,142.37 121.438,143.58 116.83,143.58 L116.83,143.58 Z M82.156,195.47 C78.562,195.47 75.406,195.07 73.845,194.84 L73.531,194.79 L73.44,194.48 C72.922,192.74 72.507,190.88 72.206,188.97 L72.101,188.3 L72.773,188.4 C74.811,188.7 78.866,189.2 83.13,189.2 C85.809,189.2 88.178,189 90.173,188.61 L90.883,188.47 L90.763,189.19 C90.436,191.13 90.028,192.92 89.549,194.52 L89.462,194.81 L89.165,194.86 C87.09,195.27 84.732,195.47 82.156,195.47 L82.156,195.47 Z M151.513,195.47 C148.938,195.47 146.577,195.27 144.495,194.86 L144.196,194.81 L144.11,194.51 C143.611,192.81 143.207,191.02 142.906,189.18 L142.791,188.47 L143.497,188.61 C145.483,189 147.849,189.2 150.53,189.2 C154.802,189.2 158.859,188.7 160.897,188.4 L161.573,188.3 L161.464,188.97 C161.14,190.96 160.725,192.82 160.229,194.48 L160.139,194.79 L159.825,194.84 C158.257,195.07 155.093,195.47 151.513,195.47 L151.513,195.47 Z" id="Fill-73" fill="#D95849"></path>
        <path d="M18.5,205 L1.83,205 C1,205 0.33,205.67 0.33,206.5 C0.33,207.32 1,208 1.83,208 L18.5,208 C19.33,208 20,207.32 20,206.5 C20,205.67 19.33,205 18.5,205 L18.5,205 Z M64.67,118.5 C64.67,123.92 69.08,128.33 74.5,128.33 C79.92,128.33 84.33,123.92 84.33,118.5 L84.33,95.163 C84.33,89.743 79.92,85.333 74.5,85.333 C69.08,85.333 64.67,89.743 64.67,95.163 L64.67,118.5 L64.67,118.5 Z M61.67,118.5 L61.67,95.163 C61.67,88.592 66.63,83.172 73,82.422 L73,69.583 C73,68.752 73.67,68.083 74.5,68.083 C75.33,68.083 76,68.752 76,69.583 L76,82.422 C82.37,83.172 87.33,88.592 87.33,95.163 L87.33,118.5 C87.33,125.06 82.37,130.49 76,131.23 L76,144.48 C76,145.31 75.33,145.98 74.5,145.98 C73.67,145.98 73,145.31 73,144.48 L73,131.23 C66.63,130.49 61.67,125.06 61.67,118.5 L61.67,118.5 Z M100.96,163.3 C106.35,163.95 111.76,164.24 116.83,164.24 C121.9,164.24 127.32,163.95 132.71,163.3 L130.09,170.56 C129.81,171.34 130.21,172.2 130.99,172.48 C131.16,172.54 131.33,172.57 131.5,172.57 C132.11,172.57 132.69,172.19 132.91,171.58 L136.06,162.85 C142.81,161.85 149.4,160.27 155.13,157.98 L160.39,163.75 C160.69,164.08 161.09,164.24 161.5,164.24 C161.86,164.24 162.22,164.11 162.51,163.85 C163.12,163.29 163.17,162.34 162.61,161.73 L158.04,156.73 C162.5,154.63 166.28,152.04 168.97,148.89 C169.51,148.26 169.44,147.31 168.81,146.77 C168.18,146.23 167.23,146.31 166.69,146.94 C164.28,149.77 160.57,152.27 155.88,154.36 L150.44,148.4 C149.88,147.79 148.93,147.75 148.32,148.31 C147.71,148.86 147.67,149.81 148.23,150.42 L152.92,155.57 C148.36,157.3 143.05,158.68 137.22,159.64 L140.24,151.26 C140.53,150.48 140.12,149.62 139.34,149.34 C138.56,149.05 137.7,149.46 137.42,150.24 L133.85,160.14 C128.5,160.86 122.78,161.24 116.83,161.24 C110.89,161.24 105.16,160.86 99.82,160.14 L96.24,150.24 C95.96,149.46 95.1,149.05 94.32,149.34 C93.55,149.62 93.14,150.48 93.42,151.26 L96.45,159.64 C90.61,158.68 85.31,157.3 80.74,155.57 L85.44,150.42 C86,149.81 85.96,148.86 85.34,148.31 C84.73,147.75 83.78,147.79 83.23,148.4 L77.79,154.36 C73.1,152.27 69.39,149.77 66.97,146.94 C66.44,146.31 65.49,146.24 64.86,146.77 C64.23,147.31 64.15,148.26 64.69,148.89 C67.39,152.04 71.17,154.63 75.63,156.73 L71.06,161.73 C70.5,162.34 70.54,163.29 71.16,163.85 C71.44,164.11 71.81,164.24 72.17,164.24 C72.57,164.24 72.98,164.08 73.27,163.75 L78.54,157.98 C84.27,160.27 90.86,161.85 97.61,162.85 L100.76,171.58 C100.98,172.19 101.55,172.57 102.17,172.57 C102.34,172.57 102.51,172.54 102.68,172.48 C103.45,172.2 103.86,171.34 103.58,170.56 L100.96,163.3 L100.96,163.3 Z M74.5,109.41 C76.71,109.41 78.5,107.623 78.5,105.413 C78.5,103.203 76.71,101.413 74.5,101.413 C72.29,101.413 70.5,103.203 70.5,105.413 C70.5,107.623 72.29,109.41 74.5,109.41 L74.5,109.41 Z M157.18,200.47 C157.69,199.62 158.18,198.63 158.64,197.53 C156.87,197.75 154.35,197.98 151.53,197.98 C149.68,197.98 147.69,197.87 145.73,197.6 C145.84,197.87 145.96,198.14 146.08,198.4 C147.84,202.27 150.06,204.5 152.17,204.5 C153.86,204.5 155.63,203.05 157.18,200.47 L157.18,200.47 Z M146.89,205 C145.56,203.66 144.36,201.82 143.34,199.59 C142.87,198.57 142.45,197.48 142.06,196.3 C142,196.17 141.95,196.04 141.93,195.89 C140.6,191.71 139.79,186.65 139.68,181.1 C132.91,181.28 125.33,181.33 116.83,181.33 C108.34,181.33 100.76,181.28 93.99,181.1 C93.88,186.65 93.06,191.71 91.74,195.89 C91.71,196.04 91.67,196.17 91.6,196.3 C91.21,197.48 90.79,198.57 90.32,199.59 C89.31,201.82 88.1,203.66 86.77,205 L146.89,205 L146.89,205 Z M87.6,198.4 C87.71,198.14 87.83,197.87 87.94,197.6 C85.97,197.87 83.99,197.98 82.14,197.98 C79.32,197.98 76.8,197.75 75.03,197.53 C75.37,198.36 75.73,199.12 76.11,199.81 C77.74,202.8 79.66,204.5 81.5,204.5 C83.61,204.5 85.83,202.27 87.6,198.4 L87.6,198.4 Z M73.92,194.34 C76.29,194.7 83.06,195.54 89.07,194.37 C89.55,192.77 89.95,191 90.27,189.1 C88.03,189.54 85.56,189.7 83.13,189.7 C78.98,189.7 75.01,189.23 72.7,188.89 C73.01,190.86 73.43,192.69 73.92,194.34 L73.92,194.34 Z M72.3,185.79 C75.43,186.28 84.63,187.49 90.69,185.92 C90.85,184.36 90.95,182.72 90.99,181.02 C83.73,180.78 77.46,180.37 72,179.69 L72,179.83 C72,181.91 72.11,183.91 72.3,185.79 L72.3,185.79 Z M116.83,178.33 C138.5,178.33 154.06,178.02 165.34,176.16 C174.1,174.71 180.26,172.32 184.67,168.41 C187.67,165.75 189.9,162.35 191.54,157.88 C193.39,152.85 194.5,146.46 195.16,138.23 C195.81,130 196,119.92 196,107.502 C196,105.783 196,104.123 195.99,102.493 C188.65,100.813 183.15,94.243 183.15,86.403 C183.15,85.063 183.31,83.733 183.64,82.432 C176.58,80.283 171.61,73.682 171.61,66.172 C171.61,64.443 171.87,62.743 172.38,61.123 C171.44,61.262 170.49,61.333 169.54,61.333 C163.55,61.333 157.98,58.552 154.36,53.833 C151.78,55.142 148.93,55.833 146.04,55.833 C140.96,55.833 136.23,53.802 132.75,50.182 C129.33,55.533 123.35,58.882 116.94,58.882 L116.73,58.882 C110.32,58.882 104.33,55.533 100.91,50.182 C97.44,53.802 92.71,55.833 87.63,55.833 C84.74,55.833 81.89,55.142 79.3,53.833 C75.69,58.552 70.12,61.333 64.13,61.333 C63.18,61.333 62.23,61.262 61.29,61.123 C61.8,62.743 62.05,64.443 62.05,66.172 C62.05,73.682 57.09,80.283 50.03,82.432 C50.35,83.733 50.52,85.063 50.52,86.403 C50.52,94.243 45.02,100.813 37.68,102.493 C37.67,104.123 37.67,105.783 37.67,107.502 C37.67,132.33 38.42,147.82 42.12,157.88 C42.94,160.12 43.91,162.08 45.05,163.82 C46.19,165.56 47.5,167.08 49,168.41 C53.41,172.32 59.57,174.71 68.33,176.16 C79.6,178.02 95.17,178.33 116.83,178.33 L116.83,178.33 Z M39.01,158.18 C37.41,153.61 36.39,148.14 35.74,141.55 C33.62,143.5 29.39,147.57 25.38,152.53 C26,154.44 28.09,159.93 32.62,163.54 C35.26,161.8 37.59,159.9 39.01,158.18 L39.01,158.18 Z M29.94,165.2 C26.36,162.03 24.28,158 23.22,155.35 C20.74,158.73 18.54,162.39 17.25,166 C16.94,166.86 16.32,168.89 17.2,169.35 C19.09,170.34 24.7,168.23 29.94,165.2 L29.94,165.2 Z M47.52,86.403 C47.52,84.873 47.25,83.342 46.72,81.873 L46.14,80.243 L47.84,79.892 C54.34,78.583 59.05,72.813 59.05,66.172 C59.05,63.903 58.52,61.722 57.46,59.703 L55.77,56.472 L59.24,57.573 C60.83,58.083 62.47,58.333 64.13,58.333 C69.57,58.333 74.61,55.613 77.6,51.052 L78.4,49.842 L79.63,50.592 C82.06,52.052 84.82,52.833 87.63,52.833 C92.51,52.833 97.01,50.583 99.98,46.672 L101.46,44.712 L102.52,46.932 C105.18,52.453 110.62,55.882 116.73,55.882 L116.94,55.882 C123.04,55.882 128.48,52.453 131.14,46.932 L132.21,44.712 L133.69,46.672 C136.66,50.583 141.16,52.833 146.04,52.833 C148.84,52.833 151.61,52.052 154.03,50.592 L155.27,49.842 L156.06,51.052 C159.06,55.613 164.1,58.333 169.54,58.333 C171.19,58.333 172.84,58.083 174.42,57.573 L177.9,56.472 L176.21,59.703 C175.15,61.722 174.61,63.903 174.61,66.172 C174.61,72.813 179.33,78.583 185.83,79.892 L187.53,80.243 L186.94,81.873 C186.42,83.342 186.15,84.873 186.15,86.403 C186.15,93.852 192.21,99.913 199.66,99.913 C207.11,99.913 213.17,93.852 213.17,86.403 C213.17,82.573 211.51,78.892 208.63,76.323 L206.94,74.823 L208.98,73.852 C212.98,71.932 215.57,67.833 215.57,63.413 C215.57,58.373 212.35,53.943 207.55,52.392 L205.71,51.802 L206.74,50.163 C208.22,47.813 209.01,45.102 209.01,42.333 C209.01,34.203 202.39,27.592 194.26,27.592 C192.59,27.592 190.92,27.882 189.3,28.462 L187,29.292 L187.3,26.873 C187.38,26.233 187.42,25.703 187.42,25.203 C187.42,17.833 181.42,11.833 174.04,11.833 C170.26,11.833 166.64,13.453 164.1,16.292 L161.96,18.672 L161.5,15.502 C160.48,8.563 154.43,3.333 147.42,3.333 C141.81,3.333 136.71,6.653 134.41,11.783 L133.18,14.533 L131.73,11.892 C128.73,6.462 123.03,3.083 116.83,3.083 C110.64,3.083 104.93,6.462 101.94,11.892 L100.48,14.533 L99.26,11.783 C96.96,6.653 91.86,3.333 86.25,3.333 C79.24,3.333 73.19,8.563 72.17,15.502 L71.71,18.672 L69.57,16.292 C67.03,13.453 63.4,11.833 59.62,11.833 C52.25,11.833 46.25,17.833 46.25,25.203 C46.25,25.703 46.29,26.233 46.37,26.873 L46.67,29.292 L44.37,28.462 C42.75,27.882 41.08,27.592 39.41,27.592 C31.28,27.592 24.66,34.203 24.66,42.333 C24.66,45.102 25.44,47.813 26.93,50.163 L27.96,51.802 L26.12,52.392 C21.32,53.943 18.09,58.373 18.09,63.413 C18.09,67.833 20.68,71.932 24.69,73.852 L26.73,74.823 L25.04,76.323 C22.15,78.892 20.5,82.573 20.5,86.403 C20.5,93.852 26.56,99.913 34.01,99.913 C41.46,99.913 47.52,93.852 47.52,86.403 L47.52,86.403 Z M197.92,141.55 C197.28,148.14 196.25,153.61 194.66,158.18 C196.08,159.9 198.41,161.8 201.05,163.54 C205.57,159.92 207.67,154.44 208.28,152.53 C204.28,147.57 200.05,143.5 197.92,141.55 L197.92,141.55 Z M210.45,155.35 C209.38,158 207.31,162.02 203.73,165.2 C208.97,168.23 214.58,170.33 216.47,169.35 C217.35,168.89 216.73,166.86 216.42,166 C215.13,162.39 212.93,158.73 210.45,155.35 L210.45,155.35 Z M161.67,179.83 C161.67,179.78 161.66,179.74 161.66,179.69 C156.21,180.37 149.94,180.78 142.68,181.02 C142.71,182.72 142.81,184.36 142.98,185.92 C149.04,187.49 158.24,186.28 161.37,185.79 C161.56,183.91 161.67,181.91 161.67,179.83 L161.67,179.83 Z M160.97,188.89 C158.66,189.23 154.68,189.7 150.53,189.7 C148.11,189.7 145.63,189.54 143.4,189.1 C143.71,191 144.12,192.77 144.59,194.37 C150.62,195.54 157.37,194.7 159.75,194.34 C160.24,192.69 160.65,190.86 160.97,188.89 L160.97,188.89 Z M233.33,206.5 C233.33,207.32 232.66,208 231.83,208 L212.27,208 C211.44,208 210.77,207.32 210.77,206.5 C210.77,203.69 208.49,201.41 205.68,201.41 C202.88,201.41 200.6,203.69 200.6,206.5 C200.6,207.32 199.93,208 199.1,208 L28.25,208 C27.42,208 26.75,207.32 26.75,206.5 C26.75,205.67 27.42,205 28.25,205 L76.23,205 C75.26,204.02 74.36,202.79 73.55,201.33 C72.74,199.86 72.02,198.18 71.4,196.31 C71.34,196.19 71.29,196.05 71.27,195.91 C69.84,191.41 69,185.88 69,179.83 C69,179.64 69.01,179.46 69.01,179.28 C68.62,179.22 68.23,179.16 67.85,179.09 C58.49,177.55 51.86,174.96 47,170.66 C44.13,168.11 41.93,165.03 40.23,161.26 C35.34,166.14 24.68,172.57 18.47,172.57 C17.45,172.57 16.55,172.39 15.82,172.01 C14.31,171.23 12.85,169.38 14.42,164.99 C19.17,151.76 34.54,138.58 35.19,138.02 C35.27,137.96 35.35,137.91 35.43,137.86 C34.81,129.52 34.67,119.52 34.67,107.502 C34.67,105.922 34.67,104.392 34.68,102.882 C34.45,102.892 34.23,102.913 34.01,102.913 C24.9,102.913 17.5,95.512 17.5,86.403 C17.5,82.392 18.97,78.533 21.6,75.533 C17.59,72.852 15.09,68.292 15.09,63.413 C15.09,57.672 18.41,52.563 23.51,50.203 C22.3,47.752 21.66,45.073 21.66,42.333 C21.66,32.552 29.62,24.592 39.41,24.592 C40.7,24.592 41.98,24.733 43.25,25.023 C43.35,16.073 50.66,8.833 59.62,8.833 C63.34,8.833 66.93,10.113 69.81,12.413 C72.04,5.363 78.68,0.333 86.25,0.333 C92.15,0.333 97.58,3.363 100.73,8.222 C104.47,3.153 110.43,0.083 116.83,0.083 C123.23,0.083 129.19,3.153 132.94,8.222 C136.08,3.363 141.52,0.333 147.42,0.333 C154.98,0.333 161.63,5.363 163.85,12.413 C166.74,10.113 170.33,8.833 174.04,8.833 C183.01,8.833 190.32,16.073 190.42,25.023 C191.68,24.733 192.97,24.592 194.26,24.592 C204.04,24.592 212.01,32.552 212.01,42.333 C212.01,45.073 211.37,47.752 210.16,50.203 C215.26,52.563 218.57,57.672 218.57,63.413 C218.57,68.292 216.07,72.852 212.06,75.533 C214.69,78.533 216.17,82.392 216.17,86.403 C216.17,95.512 208.76,102.913 199.66,102.913 C199.43,102.913 199.21,102.892 198.99,102.882 C199,104.392 199,105.922 199,107.502 C199,119.52 198.86,129.51 198.24,137.86 C198.32,137.91 198.4,137.96 198.47,138.02 C199.12,138.58 214.5,151.76 219.25,164.99 C220.82,169.38 219.36,171.23 217.85,172.01 C217.12,172.39 216.22,172.57 215.2,172.57 C208.99,172.57 198.32,166.14 193.44,161.26 C191.74,165.03 189.53,168.11 186.66,170.66 C181.81,174.96 175.18,177.55 165.82,179.09 C165.44,179.16 165.05,179.22 164.66,179.28 C164.66,179.46 164.67,179.64 164.67,179.83 C164.67,185.87 163.83,191.41 162.4,195.91 C162.37,196.05 162.33,196.19 162.27,196.31 C161.57,198.41 160.75,200.28 159.81,201.87 C159.08,203.09 158.29,204.14 157.44,205 L197.74,205 C198.44,201.25 201.74,198.41 205.68,198.41 C209.63,198.41 212.92,201.25 213.63,205 L231.83,205 C232.66,205 233.33,205.67 233.33,206.5 L233.33,206.5 Z M105,134.25 C105,141.93 112.41,143.08 116.83,143.08 C121.25,143.08 128.67,141.93 128.67,134.25 C128.67,127.72 123.36,122.41 116.83,122.41 C110.31,122.41 105,127.72 105,134.25 L105,134.25 Z M102,134.25 C102,126.07 108.65,119.41 116.83,119.41 C125.01,119.41 131.67,126.07 131.67,134.25 C131.67,141.66 126.12,146.08 116.83,146.08 C107.55,146.08 102,141.66 102,134.25 L102,134.25 Z M149.33,118.5 C149.33,123.92 153.74,128.33 159.17,128.33 C164.59,128.33 169,123.92 169,118.5 L169,95.163 C169,89.743 164.59,85.333 159.17,85.333 C153.74,85.333 149.33,89.743 149.33,95.163 L149.33,118.5 L149.33,118.5 Z M146.33,118.5 L146.33,95.163 C146.33,88.592 151.3,83.172 157.67,82.422 L157.67,69.583 C157.67,68.752 158.34,68.083 159.17,68.083 C160,68.083 160.67,68.752 160.67,69.583 L160.67,82.422 C167.04,83.172 172,88.592 172,95.163 L172,118.5 C172,125.06 167.04,130.49 160.67,131.23 L160.67,144.48 C160.67,145.31 160,145.98 159.17,145.98 C158.34,145.98 157.67,145.31 157.67,144.48 L157.67,131.23 C151.3,130.49 146.33,125.06 146.33,118.5 L146.33,118.5 Z M155.17,105.413 C155.17,103.203 156.96,101.413 159.17,101.413 C161.38,101.413 163.17,103.203 163.17,105.413 C163.17,107.623 161.38,109.41 159.17,109.41 C156.96,109.41 155.17,107.623 155.17,105.413 L155.17,105.413 Z" id="Fill-74" fill="#3B3B4D"></path>
    </g>
</svg>