<?xml version="1.0" encoding="UTF-8" standalone="no"?>
<svg width="237px" height="218px" viewBox="0 0 237 218" version="1.1" xmlns="http://www.w3.org/2000/svg" xmlns:xlink="http://www.w3.org/1999/xlink">
    <!-- Generator: Sketch 39.1 (31720) - http://www.bohemiancoding.com/sketch -->
    <title>Slice 1</title>
    <desc>Created with Sketch.</desc>
    <defs></defs>
    <g id="Page-1" stroke="none" stroke-width="1" fill="none" fill-rule="evenodd">
        <path d="M126.1,60.553 L134.714,55.004 L141.556,64.801 L126.1,69.854 L126.1,60.553 L126.1,60.553 Z M95.755,64.801 L102.575,55.035 L111.21,60.562 L111.21,69.854 L95.755,64.801 L95.755,64.801 Z M115.929,85.265 L118.65,79.697 L121.371,85.265 L115.929,85.265 L115.929,85.265 Z" id="Fill-37" fill="#D74547"></path>
        <path d="M133.14,87.265 L143.764,87.265 L143.346,88.01 C140.516,93.05 137.346,98.681 134.075,104.451 L133.14,106.101 L133.14,87.265 L133.14,87.265 Z M103.225,104.451 C99.964,98.68 96.785,93.05 93.954,88.01 L93.536,87.265 L104.16,87.265 L104.16,106.106 L103.225,104.451 L103.225,104.451 Z" id="Fill-38" fill="#686177"></path>
        <path d="M118.65,76.415 C118.275,76.415 117.926,76.637 117.761,76.982 L113.429,85.824 C113.365,85.959 113.33,86.116 113.33,86.275 C113.33,86.454 113.385,86.641 113.484,86.801 C113.664,87.087 113.988,87.265 114.33,87.265 L122.98,87.265 C123.316,87.265 123.649,87.082 123.827,86.799 C123.919,86.651 123.97,86.465 123.97,86.275 C123.97,86.117 123.935,85.959 123.868,85.819 L119.551,76.985 C119.381,76.632 119.037,76.415 118.65,76.415 L118.65,76.415 Z M114.126,123.585 L113.158,121.889 L113.187,121.715 L113.708,121.633 L113.21,121.588 L113.21,94.095 C113.21,93.544 112.761,93.095 112.21,93.095 C111.659,93.095 111.21,93.544 111.21,94.095 L111.21,118.476 L110.276,116.844 C108.926,114.483 107.565,112.093 106.206,109.702 L106.124,109.558 L106.144,109.394 C106.154,109.315 106.16,109.273 106.16,109.225 L106.16,87.265 L109.5,87.265 C110.051,87.265 110.5,86.816 110.5,86.265 C110.5,85.714 110.051,85.265 109.5,85.265 L92.417,85.265 L92.274,85.01 C87.773,76.989 84.373,70.888 83.223,68.818 L83.077,68.554 L83.242,68.302 C87.04,62.493 91.377,55.905 94.844,50.678 L95.116,50.268 L100.888,53.965 L93.34,64.762 C93.16,65.022 93.114,65.345 93.214,65.647 C93.314,65.945 93.557,66.187 93.849,66.278 L111.21,71.963 L111.21,75.675 C111.21,76.226 111.659,76.675 112.21,76.675 C112.761,76.675 113.21,76.226 113.21,75.675 L113.21,60.015 C113.21,59.68 113.029,59.354 112.737,59.164 L96.221,48.602 L96.504,48.178 C100.898,41.58 103.287,38.061 104.249,36.767 L104.369,36.605 L104.568,36.572 C108.201,35.968 120.64,33.721 128.157,30.173 L128.543,29.99 L128.934,30.564 L140.927,48.61 L124.561,59.175 C124.275,59.355 124.1,59.676 124.1,60.015 L124.1,75.675 C124.1,76.226 124.549,76.675 125.1,76.675 C125.651,76.675 126.1,76.226 126.1,75.675 L126.1,71.963 L143.454,66.28 C143.753,66.187 143.997,65.945 144.096,65.647 C144.194,65.351 144.145,65.028 143.959,64.76 L136.393,53.915 L142.043,50.278 L154.215,68.581 L154.067,68.847 C152.897,70.958 149.507,77.028 145.036,85.009 L144.893,85.265 L127.81,85.265 C127.259,85.265 126.81,85.714 126.81,86.265 C126.81,86.816 127.259,87.265 127.81,87.265 L131.14,87.265 L131.14,109.225 C131.14,109.261 131.144,109.29 131.155,109.334 L131.204,109.528 L131.104,109.702 C129.745,112.093 128.384,114.483 127.034,116.844 L126.1,118.476 L126.1,94.095 C126.1,93.544 125.651,93.095 125.1,93.095 C124.549,93.095 124.1,93.544 124.1,94.095 L124.1,121.595 C124.1,121.636 124.107,121.676 124.113,121.711 L124.143,121.888 L124.054,122.044 C122.874,124.104 121.713,126.125 120.583,128.076 L119.65,129.685 L119.65,94.095 C119.65,93.544 119.201,93.095 118.65,93.095 C118.099,93.095 117.65,93.544 117.65,94.095 L117.65,129.697 L114.126,123.585 L114.126,123.585 Z M167.175,148.322 L169.281,141.988 L186.287,148.615 L184.47,154.906 L167.175,148.322 L167.175,148.322 Z M164.46,156.462 L166.541,150.222 L183.908,156.831 L182.204,162.754 L164.46,156.462 L164.46,156.462 Z M161.829,164.379 L163.826,158.364 L181.652,164.681 L179.965,170.495 L161.829,164.379 L161.829,164.379 Z M87.857,163.49 L92.723,159.76 L98.16,172.22 L98.16,173.769 L94.477,176.644 L87.857,163.49 L87.857,163.49 Z M80.8,168.895 L86.246,164.72 L92.871,177.907 L87.708,181.947 L80.8,168.895 L80.8,168.895 Z M74.62,173.637 L79.185,170.128 L85.742,182.531 C85.773,182.582 85.826,182.648 85.877,182.706 L86.223,183.103 L81.6,186.726 L74.62,173.637 L74.62,173.637 Z" id="Fill-39" fill="#FCF0D4"></path>
        <path d="M221.999,23.258 C220.101,22.375 217.597,21.226 215.067,20.166 L214.639,19.987 L216.104,15.614 L224.232,18.307 L222.507,23.495 L221.999,23.258 L221.999,23.258 Z M173.744,141.577 L199.554,64.807 L200.075,65.084 C202.621,66.438 204.883,67.698 206.993,68.933 L207.342,69.138 L182.168,144.862 L173.744,141.577 L173.744,141.577 Z M157.963,188.491 L165.006,167.561 L173.651,170.481 L165.661,194.516 L157.963,188.491 L157.963,188.491 Z" id="Fill-40" fill="#A68A78"></path>
        <path d="M18.369,62.889 C41.645,38.623 71.093,21.549 103.53,13.51 L105.024,13.139 L104.032,14.317 C101.666,17.128 99.207,20.256 96.722,23.613 L96.625,23.744 L96.468,23.793 C86.84,26.762 77.447,30.596 68.55,35.189 C68.062,35.443 67.871,36.052 68.125,36.547 C68.3,36.877 68.64,37.085 69.01,37.085 C69.16,37.085 69.325,37.044 69.476,36.968 C76.995,33.075 84.972,29.704 93.181,26.951 L94.638,26.462 L93.748,27.715 C90.629,32.1 87.303,37.062 83.862,42.464 L83.737,42.659 L83.508,42.69 C60.8,45.829 39.084,52.889 18.966,63.676 L18.369,62.889 L18.369,62.889 Z M159.073,16.849 C158.55,16.849 158.123,17.248 158.078,17.777 C158.039,18.324 158.451,18.806 158.997,18.846 C171.914,19.86 184.736,22.381 197.112,26.339 C201.014,27.581 204.804,28.949 208.697,30.521 L209.138,30.699 L200.533,55.648 C200.351,56.181 200.623,56.741 201.152,56.922 C201.253,56.96 201.35,56.975 201.47,56.975 C201.9,56.975 202.281,56.705 202.417,56.305 L211.337,30.462 C211.51,29.963 211.266,29.417 210.78,29.218 C206.524,27.445 202.252,25.88 197.718,24.431 C185.172,20.419 172.2,17.869 159.161,16.853 L159.073,16.849 L159.073,16.849 Z M213.664,70.628 C212.157,69.68 210.641,68.763 209.114,67.855 L208.975,67.785 C205.897,65.958 202.726,64.197 199.55,62.549 L199.4,62.479 C195.889,60.658 192.321,58.943 188.797,57.382 L188.5,57.25 L188.5,49.015 C188.5,48.614 188.256,48.247 187.88,48.083 C187.765,48.036 187.634,48.01 187.501,48.01 C187.237,48.01 186.99,48.113 186.804,48.299 C186.8,48.302 183.699,51.344 181.097,53.855 L180.868,54.076 L180.57,53.961 C179.915,53.708 179.319,53.478 178.723,53.266 C171.351,50.478 163.71,48.123 156.003,46.261 L155.804,46.213 L155.696,46.04 C149.192,35.604 143.028,26.636 137.375,19.382 L136.785,18.624 L137.745,18.575 C140.801,18.421 143.525,18.345 146.07,18.345 C146.622,18.345 147.07,17.896 147.07,17.345 C147.07,16.794 146.622,16.345 146.07,16.345 C142.659,16.345 139.104,16.459 135.501,16.684 L135.244,16.7 L135.082,16.5 C133.139,14.106 131.234,11.901 129.423,9.945 L128.734,9.2 L129.744,9.107 C135.194,8.601 140.687,8.345 146.07,8.345 C168.274,8.345 190.023,12.458 210.713,20.57 C216.382,22.786 222.043,25.357 227.541,28.211 L227.916,28.406 L214.209,70.971 L213.664,70.628 L213.664,70.628 Z" id="Fill-41" fill="#BCE1E1"></path>
        <path d="M65.769,198.185 C65.319,195.729 64.626,191.015 65.033,187.034 L65.1,186.376 L65.715,186.621 C67.979,187.522 72.189,189.302 74.952,191.085 L75.542,191.466 L65.917,198.998 L65.769,198.185 L65.769,198.185 Z M117.65,176.015 C117.65,176.566 118.099,177.015 118.65,177.015 C119.201,177.015 119.65,176.566 119.65,176.015 L119.65,152.634 L124.347,158.006 C124.539,158.224 124.807,158.345 125.1,158.345 C125.346,158.345 125.575,158.259 125.763,158.096 C126.179,157.727 126.221,157.105 125.854,156.683 L119.991,149.979 L125.839,143.519 C126.021,143.319 126.113,143.06 126.099,142.791 C126.085,142.526 125.971,142.283 125.775,142.107 C125.588,141.937 125.349,141.845 125.101,141.845 C124.817,141.845 124.553,141.961 124.358,142.173 L119.65,147.372 L119.65,133.66 L119.718,133.543 C120.558,132.104 121.427,130.604 122.307,129.075 C136.029,105.365 154.292,72.557 155.063,71.172 L155.46,70.457 L156.646,72.227 C156.834,72.513 157.137,72.675 157.48,72.675 C157.675,72.675 157.868,72.617 158.036,72.507 C158.488,72.205 158.613,71.581 158.311,71.118 L156.354,68.182 C156.265,68.006 156.202,67.91 156.123,67.824 L130.313,29.038 L130.74,28.764 C131.681,28.161 132.385,27.586 132.894,27.006 C133.073,26.804 133.161,26.548 133.144,26.283 C133.127,26.015 133.005,25.77 132.801,25.592 C132.62,25.434 132.388,25.347 132.147,25.347 C131.86,25.347 131.586,25.47 131.394,25.687 C127.507,30.098 110.069,33.681 103.678,34.689 C103.441,34.729 103.224,34.85 103.071,35.029 C102.195,36.044 97.531,43.018 94.058,48.24 L93.977,48.371 C88.287,56.941 81.766,66.891 79.623,70.161 L78.988,71.13 C78.691,71.592 78.822,72.216 79.283,72.516 C79.442,72.618 79.638,72.675 79.83,72.675 C80.17,72.675 80.485,72.505 80.672,72.22 L81.835,70.442 L82.237,71.161 C87.563,80.715 101.164,105.044 112.404,124.575 C114.193,127.705 115.932,130.724 117.582,133.543 L117.65,133.66 L117.65,147.374 L112.949,142.17 C112.76,141.964 112.488,141.845 112.205,141.845 C111.957,141.845 111.72,141.936 111.539,142.103 C111.334,142.284 111.219,142.527 111.206,142.793 C111.192,143.061 111.284,143.321 111.464,143.523 L117.319,149.979 L111.457,156.684 C111.086,157.108 111.126,157.73 111.549,158.098 C111.73,158.256 111.964,158.343 112.206,158.343 C112.495,158.343 112.767,158.22 112.953,158.007 L117.65,152.634 L117.65,176.015 L117.65,176.015 Z M138.14,196.845 C137.589,196.845 137.14,197.294 137.14,197.845 L137.14,203.015 C137.14,203.566 137.589,204.015 138.14,204.015 C138.691,204.015 139.14,203.566 139.14,203.015 L139.14,197.845 C139.14,197.294 138.691,196.845 138.14,196.845 L138.14,196.845 Z M103.041,215.345 L94.803,208.571 C94.62,208.422 94.398,208.342 94.165,208.342 C93.9,208.342 93.65,208.445 93.46,208.632 L86.666,215.345 L38.365,215.345 L38.216,215.126 C33.169,207.69 27.982,198.934 27.831,196.587 L27.824,196.476 L27.864,196.373 C28.817,193.934 41.122,185.646 52.151,178.977 L53.369,178.241 L52.88,179.577 C51.729,182.718 48.676,190.581 45.185,195.755 C45.1,195.863 45.055,195.94 45.01,196.023 C43.397,198.372 41.953,199.802 40.569,200.439 C40.075,200.67 39.86,201.264 40.093,201.763 C40.258,202.116 40.615,202.345 41.002,202.345 C41.146,202.345 41.286,202.314 41.418,202.252 C42.726,201.638 44.106,200.428 45.519,198.654 L45.92,198.151 L54.369,209.283 C54.528,209.496 54.77,209.636 55.032,209.669 C55.072,209.675 55.103,209.675 55.131,209.675 L55.16,209.675 C55.387,209.675 55.605,209.602 55.792,209.464 L77.762,192.262 L98.16,176.309 L98.16,188.845 C98.16,189.396 98.609,189.845 99.16,189.845 C99.711,189.845 100.16,189.396 100.16,188.845 L100.16,172.015 C100.16,171.871 100.134,171.738 100.079,171.609 L85.082,137.275 C84.923,136.914 84.561,136.68 84.158,136.68 C84.021,136.68 83.886,136.708 83.759,136.763 C83.258,136.981 83.029,137.57 83.249,138.076 L91.895,157.874 L78.398,168.22 L70.093,144.768 L89.734,109.832 L101.638,129.526 C101.822,129.83 102.143,130.012 102.497,130.012 C102.677,130.012 102.855,129.962 103.011,129.867 C103.484,129.581 103.637,128.965 103.353,128.494 L68.983,71.648 L69.121,71.396 C72.156,65.831 99.323,16.642 118.359,3.068 L118.65,2.861 L118.94,3.068 C137.473,16.283 163.216,62.303 168.188,71.395 L168.327,71.648 L133.958,128.494 C133.671,128.967 133.82,129.583 134.29,129.867 C134.454,129.966 134.625,130.015 134.81,130.015 C135.162,130.015 135.479,129.833 135.66,129.529 L147.638,109.74 L167.56,140.816 L160.489,162.079 L148.95,149.766 L154.062,138.075 C154.28,137.572 154.047,136.983 153.541,136.763 C153.412,136.707 153.276,136.679 153.138,136.679 C152.743,136.679 152.386,136.913 152.229,137.274 L146.899,149.46 L146.858,149.565 L137.228,171.615 C137.17,171.754 137.14,171.887 137.14,172.015 L137.14,192.345 C137.14,192.896 137.589,193.345 138.14,193.345 C138.691,193.345 139.14,192.896 139.14,192.345 L139.14,176.309 L181.528,209.471 C181.695,209.6 181.919,209.675 182.14,209.675 C182.155,209.675 182.237,209.675 182.267,209.67 C182.537,209.636 182.785,209.492 182.94,209.285 L191.38,198.15 L191.781,198.654 C193.196,200.429 194.579,201.64 195.892,202.252 C196.024,202.314 196.164,202.345 196.308,202.345 C196.696,202.345 197.052,202.116 197.217,201.763 C197.449,201.266 197.229,200.672 196.729,200.438 C195.358,199.803 193.916,198.373 192.319,196.07 C192.242,195.918 192.207,195.863 192.167,195.818 C188.618,190.537 185.576,182.703 184.43,179.577 L183.941,178.241 L185.159,178.977 C196.181,185.642 208.48,193.928 209.436,196.373 L209.475,196.473 L209.47,196.58 C209.458,196.808 209.401,197.093 209.291,197.474 C208.298,200.72 203.31,208.898 199.094,215.125 L198.945,215.345 L103.041,215.345 L103.041,215.345 Z" id="Fill-42" fill="#5E5D6D"></path>
        <path d="M126.6,60.825 L126.6,69.165 L140.76,64.535 L134.58,55.685 L126.6,60.825 L126.6,60.825 Z M96.55,64.535 L110.71,69.165 L110.71,60.835 L102.71,55.715 L96.55,64.535 L96.55,64.535 Z M120.15,94.095 L120.15,127.825 C121.28,125.875 122.44,123.855 123.62,121.795 C123.61,121.735 123.6,121.665 123.6,121.595 L123.6,94.095 C123.6,93.265 124.27,92.595 125.1,92.595 C125.93,92.595 126.6,93.265 126.6,94.095 L126.6,116.595 C127.95,114.235 129.31,111.845 130.67,109.455 C130.65,109.375 130.64,109.305 130.64,109.225 L130.64,87.765 L127.81,87.765 C126.98,87.765 126.31,87.095 126.31,86.265 C126.31,85.435 126.98,84.765 127.81,84.765 L144.6,84.765 C149.07,76.785 152.46,70.715 153.63,68.605 L141.9,50.965 L137.1,54.055 L144.37,64.475 C144.64,64.865 144.72,65.355 144.57,65.805 C144.42,66.255 144.06,66.615 143.61,66.755 L126.6,72.325 L126.6,75.675 C126.6,76.505 125.93,77.175 125.1,77.175 C124.27,77.175 123.6,76.505 123.6,75.675 L123.6,60.015 C123.6,59.505 123.86,59.025 124.29,58.755 L140.23,48.465 L128.52,30.845 L128.37,30.625 C120.68,34.255 107.96,36.515 104.65,37.065 C103.55,38.545 100.53,43.035 96.92,48.455 L113.01,58.745 C113.44,59.025 113.71,59.505 113.71,60.015 L113.71,75.675 C113.71,76.505 113.03,77.175 112.21,77.175 C111.38,77.175 110.71,76.505 110.71,75.675 L110.71,72.325 L93.7,66.755 C93.25,66.615 92.89,66.255 92.74,65.805 C92.59,65.355 92.66,64.865 92.93,64.475 L100.18,54.105 L95.26,50.955 C91.3,56.925 86.91,63.605 83.66,68.575 C84.81,70.645 88.21,76.745 92.71,84.765 L109.5,84.765 C110.33,84.765 111,85.435 111,86.265 C111,87.095 110.33,87.765 109.5,87.765 L106.66,87.765 L106.66,109.225 C106.66,109.305 106.65,109.375 106.64,109.455 C108,111.845 109.36,114.235 110.71,116.595 L110.71,94.095 C110.71,93.265 111.38,92.595 112.21,92.595 C113.03,92.595 113.71,93.265 113.71,94.095 L113.71,121.595 C113.71,121.665 113.69,121.735 113.68,121.795 C113.97,122.305 114.27,122.825 114.56,123.335 C115.44,124.865 116.31,126.365 117.15,127.825 L117.15,94.095 C117.15,93.265 117.82,92.595 118.65,92.595 C119.48,92.595 120.15,93.265 120.15,94.095 L120.15,94.095 Z M103.66,87.765 L94.39,87.765 C97.22,92.805 100.4,98.435 103.66,104.205 L103.66,87.765 L103.66,87.765 Z M142.91,87.765 L133.64,87.765 L133.64,104.205 C136.91,98.435 140.08,92.805 142.91,87.765 L142.91,87.765 Z M126.21,143.855 L120.66,149.985 L126.23,156.355 C126.78,156.985 126.71,157.925 126.09,158.475 C125.8,158.725 125.45,158.845 125.1,158.845 C124.68,158.845 124.27,158.675 123.97,158.335 L120.15,153.965 L120.15,176.015 C120.15,176.845 119.48,177.515 118.65,177.515 C117.82,177.515 117.15,176.845 117.15,176.015 L117.15,153.965 L113.33,158.335 C112.79,158.955 111.84,159.015 111.22,158.475 C110.59,157.925 110.53,156.985 111.08,156.355 L116.65,149.985 L111.09,143.855 C110.54,143.235 110.58,142.285 111.2,141.735 C111.81,141.175 112.76,141.225 113.32,141.835 L117.15,146.075 L117.15,133.795 C115.5,130.975 113.76,127.955 111.97,124.825 C100.15,104.285 85.97,78.885 81.8,71.405 C81.55,71.785 81.31,72.155 81.09,72.495 C80.8,72.935 80.32,73.175 79.83,73.175 C79.55,73.175 79.26,73.095 79.01,72.935 C78.32,72.485 78.12,71.555 78.57,70.855 C79.11,70.035 86.94,58.065 93.56,48.095 C93.56,48.095 93.56,48.095 93.56,48.085 C97.99,41.425 101.87,35.655 102.69,34.705 C102.92,34.435 103.24,34.255 103.6,34.195 C109.94,33.195 127.24,29.645 131.02,25.355 C131.57,24.735 132.51,24.675 133.13,25.215 C133.76,25.765 133.82,26.715 133.27,27.335 C132.7,27.985 131.93,28.595 131.01,29.185 L156.49,67.485 C156.61,67.615 156.7,67.755 156.77,67.905 L158.73,70.845 C159.18,71.535 159,72.465 158.31,72.925 C158.05,73.095 157.76,73.175 157.48,73.175 C156.99,73.175 156.52,72.945 156.23,72.505 L155.5,71.415 C151.02,79.465 134.98,108.175 122.74,129.325 C121.86,130.855 120.99,132.355 120.15,133.795 L120.15,146.075 L123.99,141.835 C124.55,141.225 125.49,141.175 126.11,141.735 C126.72,142.285 126.77,143.235 126.21,143.855 L126.21,143.855 Z M158.96,19.345 C171.83,20.355 184.61,22.865 196.96,26.815 C200.98,28.095 204.77,29.475 208.51,30.985 L200.06,55.485 C199.79,56.275 200.2,57.125 200.99,57.395 C201.15,57.455 201.31,57.475 201.47,57.475 C202.1,57.475 202.68,57.085 202.89,56.465 L211.81,30.625 C212.07,29.875 211.7,29.055 210.97,28.755 C206.72,26.985 202.44,25.415 197.87,23.955 C185.3,19.935 172.29,17.375 159.2,16.355 C158.37,16.285 157.65,16.905 157.58,17.735 C157.52,18.565 158.14,19.285 158.96,19.345 L158.96,19.345 Z M120.57,84.765 L118.65,80.835 L116.73,84.765 L120.57,84.765 L120.57,84.765 Z M122.98,87.765 L114.33,87.765 C113.81,87.765 113.33,87.495 113.06,87.065 C112.91,86.825 112.83,86.545 112.83,86.275 C112.83,86.045 112.88,85.815 112.98,85.605 L117.31,76.765 C117.56,76.245 118.08,75.915 118.65,75.915 C119.23,75.915 119.75,76.245 120,76.765 L124.32,85.605 C124.42,85.815 124.47,86.045 124.47,86.275 C124.47,86.545 124.4,86.825 124.25,87.065 C123.98,87.495 123.49,87.765 122.98,87.765 L122.98,87.765 Z M138.14,196.345 C137.31,196.345 136.64,197.015 136.64,197.845 L136.64,203.015 C136.64,203.845 137.31,204.515 138.14,204.515 C138.97,204.515 139.64,203.845 139.64,203.015 L139.64,197.845 C139.64,197.015 138.97,196.345 138.14,196.345 L138.14,196.345 Z M198.68,214.845 C203.27,208.065 207.89,200.345 208.81,197.335 C208.9,197.025 208.96,196.755 208.97,196.555 C208.11,194.355 196.46,186.395 184.9,179.405 C186.68,184.265 189.52,190.985 192.54,195.485 C192.62,195.575 192.68,195.675 192.73,195.785 C194.13,197.805 195.56,199.345 196.94,199.985 C197.69,200.335 198.02,201.225 197.67,201.975 C197.32,202.725 196.43,203.055 195.68,202.705 C194.2,202.015 192.76,200.685 191.39,198.965 L183.34,209.585 C183.1,209.905 182.73,210.115 182.34,210.165 C182.27,210.175 182.21,210.175 182.14,210.175 C181.81,210.175 181.48,210.065 181.22,209.865 L139.64,177.335 L139.64,192.345 C139.64,193.175 138.97,193.845 138.14,193.845 C137.31,193.845 136.64,193.175 136.64,192.345 L136.64,172.015 C136.64,171.805 136.69,171.605 136.77,171.415 L146.4,149.365 C146.4,149.365 146.4,149.365 146.4,149.355 L151.77,137.075 C152.1,136.315 152.98,135.975 153.74,136.305 C154.5,136.635 154.85,137.515 154.52,138.275 L149.54,149.665 L160.28,161.125 L161.3,158.065 L167.01,140.885 L147.65,110.685 L136.09,129.785 C135.81,130.255 135.32,130.515 134.81,130.515 C134.54,130.515 134.28,130.445 134.03,130.295 C133.32,129.865 133.1,128.945 133.53,128.235 L167.75,71.635 C164.14,65.035 137.47,16.895 118.65,3.475 C99.83,16.895 73.16,65.035 69.56,71.635 L103.78,128.235 C104.21,128.945 103.98,129.865 103.27,130.295 C102.56,130.725 101.64,130.495 101.21,129.785 L89.75,110.825 L70.64,144.815 L78.64,167.405 L91.28,157.715 L82.79,138.275 C82.46,137.515 82.8,136.635 83.56,136.305 C84.32,135.975 85.21,136.325 85.54,137.075 L100.54,171.415 C100.62,171.605 100.66,171.805 100.66,172.015 L100.66,188.845 C100.66,189.675 99.99,190.345 99.16,190.345 C98.33,190.345 97.66,189.675 97.66,188.845 L97.66,177.335 L78.07,192.655 L56.09,209.865 C55.82,210.065 55.5,210.175 55.16,210.175 C55.1,210.175 55.04,210.175 54.97,210.165 C54.57,210.115 54.21,209.905 53.97,209.585 L45.91,198.965 C44.54,200.685 43.1,202.015 41.63,202.705 C40.88,203.055 39.99,202.725 39.64,201.975 C39.29,201.225 39.61,200.335 40.36,199.985 C41.75,199.345 43.18,197.805 44.57,195.785 C44.63,195.675 44.69,195.575 44.77,195.475 C47.8,190.985 50.63,184.265 52.41,179.405 C40.85,186.395 29.19,194.355 28.33,196.555 C28.47,198.735 33.56,207.375 38.63,214.845 L86.46,214.845 L93.11,208.275 C93.66,207.735 94.52,207.695 95.12,208.185 L103.22,214.845 L198.68,214.845 L198.68,214.845 Z M66.26,198.095 L74.68,191.505 C71.97,189.755 67.84,188.005 65.53,187.085 C65.14,190.905 65.77,195.415 66.26,198.095 L66.26,198.095 Z M94.65,175.875 L97.66,173.525 L97.66,172.325 L92.52,160.545 L88.49,163.635 L94.65,175.875 L94.65,175.875 Z M86.07,165.485 L81.44,169.035 L87.87,181.185 L92.24,177.765 L86.07,165.485 L86.07,165.485 Z M81.76,185.965 L85.5,183.035 C85.43,182.955 85.36,182.865 85.3,182.765 L79.02,170.885 L75.26,173.775 L81.76,185.965 L81.76,185.965 Z M83.44,42.195 C86.53,37.345 89.87,32.305 93.34,27.425 C85.23,30.145 77.29,33.485 69.7,37.415 C69.48,37.525 69.24,37.585 69.01,37.585 C68.47,37.585 67.95,37.285 67.68,36.775 C67.3,36.035 67.59,35.125 68.32,34.745 C77.27,30.125 86.69,26.285 96.32,23.315 C98.74,20.045 101.2,16.905 103.65,13.995 C71.49,21.965 41.78,39.205 18.73,63.235 C38.93,52.405 60.65,45.345 83.44,42.195 L83.44,42.195 Z M129.79,9.605 C131.67,11.635 133.57,13.845 135.47,16.185 C138.99,15.965 142.54,15.845 146.07,15.845 C146.9,15.845 147.57,16.515 147.57,17.345 C147.57,18.175 146.9,18.845 146.07,18.845 C143.31,18.845 140.53,18.935 137.77,19.075 C144.3,27.455 150.71,37.095 156.12,45.775 C163.82,47.635 171.46,49.985 178.89,52.795 C179.51,53.015 180.13,53.255 180.75,53.495 C183.35,50.985 186.45,47.945 186.45,47.945 C186.88,47.515 187.52,47.395 188.08,47.625 C188.63,47.865 189,48.405 189,49.015 L189,56.925 C192.59,58.515 196.14,60.225 199.63,62.035 C199.68,62.055 199.73,62.075 199.78,62.105 C202.98,63.765 206.13,65.515 209.23,67.355 C209.28,67.375 209.32,67.405 209.37,67.425 C210.9,68.335 212.42,69.255 213.93,70.205 L227.31,28.655 C221.86,25.825 216.26,23.275 210.53,21.035 C190.1,13.025 168.14,8.845 146.07,8.845 C140.64,8.845 135.18,9.105 129.79,9.605 L129.79,9.605 Z M215.26,19.705 C217.6,20.685 219.91,21.735 222.21,22.805 L223.6,18.625 L216.42,16.245 L215.26,19.705 L215.26,19.705 Z M206.74,69.365 C204.47,68.035 202.17,66.765 199.84,65.525 L174.37,141.285 L181.86,144.205 L206.74,69.365 L206.74,69.365 Z M170.76,72.455 L149.37,107.825 L169.66,139.455 L171.57,140.195 L197.15,64.125 C193.78,62.405 190.36,60.785 186.9,59.275 C186.35,59.035 186,58.495 186,57.895 L186,52.575 C184.8,53.745 183.37,55.135 182.14,56.325 C181.72,56.725 181.09,56.855 180.55,56.635 C179.65,56.285 178.74,55.935 177.84,55.585 C171.48,53.195 164.95,51.135 158.37,49.425 C165.4,60.945 170.31,70.055 170.8,70.965 C171.05,71.435 171.03,72.005 170.76,72.455 L170.76,72.455 Z M169.59,142.645 L167.8,148.025 L184.14,154.245 L185.68,148.915 L169.59,142.645 L169.59,142.645 Z M183.3,157.135 L166.85,150.875 L165.09,156.155 L181.87,162.105 L183.3,157.135 L183.3,157.135 Z M181.04,164.995 L164.14,159.005 L162.46,164.065 L164.85,164.875 L179.63,169.855 L181.04,164.995 L181.04,164.995 Z M159.14,164.535 L159.2,164.355 L148.24,152.655 L139.64,172.325 L139.64,173.525 L156.05,186.355 L162.48,167.235 L160.08,166.435 C159.3,166.165 158.88,165.325 159.14,164.535 L159.14,164.535 Z M173.02,170.795 L165.32,168.195 L158.55,188.315 L165.41,193.685 L173.02,170.795 L173.02,170.795 Z M216.98,216.345 C216.98,217.175 216.31,217.845 215.48,217.845 L102.68,217.845 C102.34,217.845 102,217.725 101.73,217.505 L94.26,211.365 L88.13,217.415 C87.85,217.685 87.47,217.845 87.08,217.845 L21.83,217.845 C21,217.845 20.33,217.175 20.33,216.345 C20.33,215.515 21,214.845 21.83,214.845 L35.01,214.845 C31.73,209.885 25.33,199.815 25.33,196.465 C25.33,195.285 25.33,193.285 40.17,183.565 C47.21,178.955 54.33,174.765 54.4,174.715 C54.94,174.405 55.61,174.455 56.1,174.835 C56.58,175.225 56.78,175.875 56.59,176.465 C56.07,178.125 52.49,189.045 47.74,196.415 L55.44,206.555 L63.6,200.175 C63.06,197.575 61.71,190.165 62.86,184.705 C62.95,184.275 63.22,183.915 63.6,183.705 C63.98,183.485 64.44,183.455 64.84,183.605 C65.21,183.735 73.05,186.625 77.16,189.565 L79.36,187.845 L72.01,174.065 C71.66,173.415 71.84,172.615 72.42,172.165 L76.13,169.325 L67.58,145.175 C67.44,144.775 67.48,144.325 67.69,143.945 L68.03,143.345 L87.96,107.875 L66.55,72.455 C66.27,72.005 66.26,71.435 66.51,70.965 C67.05,69.955 73.04,58.845 81.34,45.545 C56.77,49.265 33.48,57.635 12.08,70.445 C11.84,70.595 11.58,70.655 11.31,70.655 C10.88,70.655 10.46,70.475 10.16,70.125 C9.69,69.565 9.7,68.735 10.18,68.185 C35.31,39.015 69.69,18.405 107.05,10.105 C110.77,6.055 114.41,2.675 117.82,0.405 C118.32,0.075 118.98,0.075 119.48,0.405 C121.93,2.035 124.5,4.235 127.12,6.845 C133.38,6.185 139.75,5.845 146.07,5.845 C168.51,5.845 190.83,10.105 211.61,18.265 C211.9,18.365 212.18,18.485 212.47,18.595 L214.05,13.865 C214.32,13.085 215.16,12.665 215.95,12.925 L225.97,16.255 C226.76,16.515 227.18,17.365 226.92,18.155 L224.94,24.095 C226.58,24.905 228.21,25.725 229.83,26.585 C230.47,26.925 230.78,27.675 230.55,28.365 L216.19,72.975 C216.05,73.425 215.7,73.775 215.27,73.925 C215.1,73.985 214.93,74.015 214.76,74.015 C214.48,74.015 214.19,73.935 213.95,73.775 C212.44,72.805 210.91,71.865 209.38,70.935 L184.66,145.295 L188.04,146.615 C188.76,146.895 189.15,147.685 188.94,148.425 L182.08,172.195 C181.97,172.585 181.7,172.915 181.34,173.105 C181.12,173.225 180.88,173.275 180.64,173.275 C180.48,173.275 180.32,173.255 180.16,173.195 L178.68,172.695 L175.86,171.755 L167.92,195.645 L181.87,206.555 L189.57,196.415 C184.81,189.045 181.24,178.125 180.71,176.465 C180.53,175.875 180.72,175.225 181.21,174.835 C181.28,174.785 181.35,174.735 181.42,174.695 C181.88,174.445 182.44,174.445 182.9,174.715 C182.97,174.765 190.1,178.955 197.13,183.565 C211.98,193.285 211.98,195.285 211.98,196.465 C211.98,196.885 211.88,197.405 211.7,198.015 C210.43,202.255 205.17,210.505 202.29,214.845 L215.48,214.845 C216.31,214.845 216.98,215.515 216.98,216.345 L216.98,216.345 Z M235.14,214.845 L224.14,214.845 C223.31,214.845 222.64,215.515 222.64,216.345 C222.64,217.175 223.31,217.845 224.14,217.845 L235.14,217.845 C235.97,217.845 236.64,217.175 236.64,216.345 C236.64,215.515 235.97,214.845 235.14,214.845 L235.14,214.845 Z M54.73,145.465 C53.59,145.465 52.66,146.395 52.66,147.535 C52.66,148.665 53.59,149.595 54.73,149.595 C55.86,149.595 56.79,148.665 56.79,147.535 C56.79,146.395 55.86,145.465 54.73,145.465 L54.73,145.465 Z M54.73,142.465 C57.52,142.465 59.79,144.745 59.79,147.535 C59.79,150.325 57.52,152.595 54.73,152.595 C51.93,152.595 49.66,150.325 49.66,147.535 C49.66,144.745 51.93,142.465 54.73,142.465 L54.73,142.465 Z M45.98,95.035 C46.27,95.325 46.65,95.465 47.04,95.465 C47.42,95.465 47.81,95.325 48.1,95.035 L51.16,91.965 L54.23,95.035 C54.52,95.325 54.9,95.465 55.29,95.465 C55.67,95.465 56.06,95.325 56.35,95.035 C56.93,94.445 56.93,93.495 56.35,92.905 L53.28,89.845 L56.35,86.785 C56.93,86.195 56.93,85.245 56.35,84.655 C55.76,84.075 54.81,84.075 54.23,84.655 L51.16,87.725 L48.1,84.655 C47.51,84.075 46.56,84.075 45.98,84.655 C45.39,85.245 45.39,86.195 45.98,86.785 L49.04,89.845 L45.98,92.905 C45.39,93.495 45.39,94.445 45.98,95.035 L45.98,95.035 Z M28.08,115.845 C27.25,115.845 26.58,116.515 26.58,117.345 L26.58,121.675 L22.25,121.675 C21.42,121.675 20.75,122.345 20.75,123.175 C20.75,124.005 21.42,124.675 22.25,124.675 L26.58,124.675 L26.58,129.015 C26.58,129.845 27.25,130.515 28.08,130.515 C28.91,130.515 29.58,129.845 29.58,129.015 L29.58,124.675 L33.91,124.675 C34.74,124.675 35.41,124.005 35.41,123.175 C35.41,122.345 34.74,121.675 33.91,121.675 L29.58,121.675 L29.58,117.345 C29.58,116.515 28.91,115.845 28.08,115.845 L28.08,115.845 Z M14.66,216.345 C14.66,217.175 13.99,217.845 13.16,217.845 L2.16,217.845 C1.33,217.845 0.66,217.175 0.66,216.345 C0.66,215.515 1.33,214.845 2.16,214.845 L13.16,214.845 C13.99,214.845 14.66,215.515 14.66,216.345 L14.66,216.345 Z" id="Fill-43" fill="#42384B"></path>
    </g>
</svg>