<?xml version="1.0" encoding="UTF-8" standalone="no"?>
<svg width="229px" height="228px" viewBox="0 0 229 228" version="1.1" xmlns="http://www.w3.org/2000/svg" xmlns:xlink="http://www.w3.org/1999/xlink">
    <!-- Generator: Sketch 39.1 (31720) - http://www.bohemiancoding.com/sketch -->
    <title>Slice 1</title>
    <desc>Created with Sketch.</desc>
    <defs></defs>
    <g id="Page-1" stroke="none" stroke-width="1" fill="none" fill-rule="evenodd">
        <polyline id="Fill-64" fill="#E48455" points="114.649 114.433 107.351 100.643 114.649 91.905 121.948 100.643 114.649 114.433"></polyline>
        <path d="M133.399,86.055 C133.399,88.145 135.1,89.845 137.189,89.845 C139.279,89.845 140.979,88.145 140.979,86.055 C140.979,83.965 139.279,82.265 137.189,82.265 C135.1,82.265 133.399,83.965 133.399,86.055 L133.399,86.055 Z M92.109,82.265 C90.02,82.265 88.319,83.965 88.319,86.055 C88.319,88.145 90.02,89.845 92.109,89.845 C94.199,89.845 95.899,88.145 95.899,86.055 C95.899,83.965 94.199,82.265 92.109,82.265 L92.109,82.265 Z M156.299,101.333 L155.988,100.969 C152.311,96.652 146.968,94.175 141.329,94.175 C137.807,94.175 134.353,95.149 131.34,96.991 L130.932,97.241 L130.664,96.844 C128.719,93.956 127.67,90.584 127.634,87.025 C127.641,86.964 127.649,86.905 127.649,86.845 L127.649,86.166 C128.014,76.453 135.906,68.845 145.619,68.845 C155.544,68.845 163.619,76.92 163.619,86.845 C163.619,92.43 161.089,97.604 156.677,101.039 L156.299,101.333 L156.299,101.333 Z M72.622,101.039 C68.21,97.604 65.68,92.43 65.68,86.845 C65.68,76.92 73.755,68.845 83.68,68.845 C93.393,68.845 101.285,76.453 101.649,86.166 L101.649,86.845 C101.649,86.905 101.658,86.964 101.665,87.025 C101.629,90.584 100.58,93.956 98.635,96.844 L98.367,97.241 L97.959,96.991 C94.946,95.149 91.492,94.175 87.97,94.175 C82.331,94.175 76.988,96.652 73.311,100.969 L73,101.333 L72.622,101.039 L72.622,101.039 Z M120.649,178.925 L120.649,168.045 C120.649,166.666 121.771,165.545 123.149,165.545 C124.528,165.545 125.649,166.666 125.649,168.045 L125.649,178.925 C125.649,180.304 124.528,181.425 123.149,181.425 C121.771,181.425 120.649,180.304 120.649,178.925 L120.649,178.925 Z M106.149,181.425 C104.771,181.425 103.649,180.304 103.649,178.925 L103.649,168.045 C103.649,166.666 104.771,165.545 106.149,165.545 C107.528,165.545 108.649,166.666 108.649,168.045 L108.649,178.925 C108.649,180.304 107.528,181.425 106.149,181.425 L106.149,181.425 Z M127.659,179.225 L127.659,168.345 C127.659,166.966 128.78,165.845 130.159,165.845 C130.258,165.845 130.356,165.848 130.408,165.857 C131.691,165.984 132.659,167.053 132.659,168.345 L132.659,179.225 C132.659,180.056 132.248,180.831 131.563,181.297 C131.154,181.577 130.669,181.725 130.159,181.725 C128.78,181.725 127.659,180.604 127.659,179.225 L127.659,179.225 Z M99.14,181.725 C98.63,181.725 98.145,181.577 97.736,181.297 C97.051,180.831 96.64,180.056 96.64,179.225 L96.64,168.345 C96.64,167.053 97.607,165.984 98.891,165.857 C98.942,165.848 99.041,165.845 99.14,165.845 C100.519,165.845 101.64,166.966 101.64,168.345 L101.64,179.225 C101.64,180.604 100.519,181.725 99.14,181.725 L99.14,181.725 Z M134.68,180.285 L134.68,169.405 C134.68,168.026 135.801,166.905 137.18,166.905 C138.559,166.905 139.68,168.026 139.68,169.405 L139.68,180.285 C139.68,181.664 138.559,182.785 137.18,182.785 C135.801,182.785 134.68,181.664 134.68,180.285 L134.68,180.285 Z M92.119,182.785 C90.74,182.785 89.619,181.664 89.619,180.285 L89.619,169.405 C89.619,168.026 90.74,166.905 92.119,166.905 C93.498,166.905 94.619,168.026 94.619,169.405 L94.619,180.285 C94.619,181.664 93.498,182.785 92.119,182.785 L92.119,182.785 Z" id="Fill-65" fill="#FACD5D"></path>
        <path d="M198.859,224.609 C195.185,217.764 190.632,211.351 185.328,205.548 C173.651,192.805 158.789,183.551 142.319,178.754 L141.68,178.569 L141.68,180.285 C141.68,182.767 139.661,184.785 137.18,184.785 C135.753,184.785 134.394,184.088 133.544,182.921 L133.246,182.512 L132.841,182.815 C132.043,183.41 131.116,183.725 130.159,183.725 C128.91,183.725 127.74,183.206 126.865,182.265 L126.526,181.9 L126.16,182.237 C125.328,183.003 124.26,183.425 123.149,183.425 C120.668,183.425 118.649,181.407 118.649,178.925 L118.649,175.069 L118.163,175.055 C117.39,175.034 116.68,175.015 115.979,175.015 L113.319,175.015 C112.619,175.015 111.909,175.034 111.136,175.055 L110.649,175.069 L110.649,178.925 C110.649,181.407 108.631,183.425 106.149,183.425 C105.039,183.425 103.971,183.003 103.139,182.237 L102.772,181.9 L102.434,182.265 C101.559,183.206 100.389,183.725 99.14,183.725 C98.183,183.725 97.256,183.41 96.458,182.815 L96.053,182.512 L95.755,182.921 C94.905,184.088 93.546,184.785 92.119,184.785 C89.638,184.785 87.619,182.767 87.619,180.285 L87.619,178.569 L86.979,178.754 C70.51,183.551 55.647,192.805 43.971,205.548 C38.667,211.351 34.114,217.764 30.439,224.609 L30.044,225.345 L42.697,225.345 L42.844,225.109 C56.871,202.548 80.016,188.345 106.344,186.143 C108.657,185.939 111.065,185.835 113.499,185.835 L115.8,185.835 C118.233,185.835 120.642,185.939 122.955,186.143 C149.283,188.345 172.428,202.548 186.455,225.109 L186.602,225.345 L199.255,225.345 L198.859,224.609" id="Fill-66" fill="#A68A78"></path>
        <path d="M189.391,124.141 C189.292,124.603 188.888,124.925 188.409,124.925 C188.338,124.925 188.262,124.918 188.2,124.906 C187.662,124.792 187.315,124.259 187.429,123.717 C187.917,121.496 188.217,119.17 188.319,116.807 C188.338,116.288 188.784,115.852 189.294,115.852 L189.294,115.352 L189.35,115.854 C189.627,115.865 189.872,115.977 190.051,116.171 C190.231,116.367 190.323,116.623 190.311,116.891 C190.212,119.303 189.902,121.741 189.391,124.141 L189.391,124.141 Z M181.93,94.485 C181.493,94.485 181.067,94.506 180.641,94.547 C174.261,95.162 169.243,100.253 168.711,106.654 L168.709,130.905 C168.709,131.466 168.699,132.018 168.67,132.568 C168.455,138.474 167.095,144.162 164.626,149.485 L165.419,150.062 C172.488,143.511 177.026,134.641 178.195,125.085 C178.257,124.584 178.688,124.206 179.2,124.206 C179.238,124.206 179.276,124.208 179.315,124.212 C179.576,124.243 179.813,124.376 179.978,124.586 C180.143,124.796 180.216,125.059 180.184,125.324 C179.177,133.58 175.813,141.305 170.457,147.662 L171.131,148.391 C177.869,143.569 182.938,136.988 185.788,129.36 C185.933,128.97 186.306,128.709 186.716,128.709 C186.834,128.709 186.951,128.731 187.063,128.773 C187.585,128.967 187.853,129.544 187.661,130.061 C184.18,139.375 177.463,147.274 168.749,152.302 L169.181,153.2 C184.986,147.036 195.199,132.064 195.199,115.055 L195.199,107.755 C195.199,100.438 189.246,94.485 181.93,94.485 L181.93,94.485 Z M41.099,124.906 C41.037,124.918 40.961,124.925 40.89,124.925 C40.411,124.925 40.007,124.603 39.908,124.141 C39.396,121.741 39.087,119.303 38.988,116.891 C38.976,116.623 39.067,116.367 39.248,116.171 C39.427,115.977 39.672,115.865 39.949,115.854 L40.005,115.352 L40.005,115.852 C40.515,115.852 40.961,116.288 40.979,116.807 C41.082,119.17 41.382,121.496 41.87,123.717 C41.983,124.259 41.637,124.792 41.099,124.906 L41.099,124.906 Z M60.59,130.905 L60.588,106.654 C60.056,100.253 55.038,95.162 48.658,94.547 C48.231,94.506 47.806,94.485 47.369,94.485 C40.053,94.485 34.1,100.438 34.1,107.755 L34.1,115.055 C34.1,132.064 44.313,147.036 60.118,153.2 L60.55,152.302 C51.836,147.274 45.119,139.375 41.638,130.061 C41.446,129.544 41.714,128.967 42.236,128.773 C42.348,128.731 42.465,128.709 42.583,128.709 C42.993,128.709 43.366,128.97 43.511,129.36 C46.361,136.988 51.43,143.569 58.168,148.391 L58.842,147.662 C53.485,141.305 50.122,133.58 49.115,125.324 C49.083,125.059 49.156,124.796 49.321,124.586 C49.485,124.376 49.723,124.243 49.983,124.212 C50.022,124.208 50.061,124.206 50.099,124.206 C50.61,124.206 51.042,124.584 51.104,125.085 C52.272,134.641 56.811,143.511 63.88,150.062 L64.673,149.485 C62.204,144.162 60.844,138.474 60.629,132.568 C60.6,132.018 60.59,131.466 60.59,130.905 L60.59,130.905 Z" id="Fill-67" fill="#5E5D6D"></path>
        <path d="M109.189,158.015 C108.638,158.015 108.189,157.567 108.189,157.015 C108.189,156.463 108.638,156.015 109.189,156.015 L120.109,156.015 C120.661,156.015 121.109,156.463 121.109,157.015 C121.109,157.567 120.661,158.015 120.109,158.015 L109.189,158.015 L109.189,158.015 Z M121.159,147.845 C120.607,147.845 120.159,147.397 120.159,146.845 C120.159,146.293 120.607,145.845 121.159,145.845 L132.069,145.845 C132.621,145.845 133.069,146.293 133.069,146.845 C133.069,147.397 132.621,147.845 132.069,147.845 L121.159,147.845 L121.159,147.845 Z M97.229,147.845 C96.678,147.845 96.229,147.397 96.229,146.845 C96.229,146.293 96.678,145.845 97.229,145.845 L108.14,145.845 C108.691,145.845 109.14,146.293 109.14,146.845 C109.14,147.397 108.691,147.845 108.14,147.845 L97.229,147.845 L97.229,147.845 Z M132.899,135.175 C132.348,135.175 131.899,134.727 131.899,134.175 C131.899,133.623 132.348,133.175 132.899,133.175 L143.819,133.175 C144.371,133.175 144.819,133.623 144.819,134.175 C144.819,134.727 144.371,135.175 143.819,135.175 L132.899,135.175 L132.899,135.175 Z M85.479,135.175 C84.928,135.175 84.479,134.727 84.479,134.175 C84.479,133.623 84.928,133.175 85.479,133.175 L96.399,133.175 C96.951,133.175 97.399,133.623 97.399,134.175 C97.399,134.727 96.951,135.175 96.399,135.175 L85.479,135.175 L85.479,135.175 Z M141.329,96.175 C137.722,96.175 134.254,97.297 131.298,99.419 L130.519,99.979 L129.934,99.228 C127.11,95.653 125.619,91.371 125.619,86.845 C125.619,86.711 125.628,86.576 125.636,86.442 L125.648,86.207 L125.649,73.675 C125.649,64.853 132.827,57.675 141.649,57.675 L148.319,57.675 C148.871,57.675 149.319,58.123 149.319,58.675 C149.319,59.227 148.871,59.675 148.319,59.675 L141.649,59.675 C133.93,59.675 127.649,65.955 127.649,73.675 L127.649,77.935 L128.575,76.427 C132.26,70.427 138.631,66.845 145.619,66.845 C151.853,66.845 160.072,76.477 163.743,80.96 C164.052,86.055 164.982,89.178 162.554,97.473 C161.057,99.853 159.052,101.93 156.623,103.538 L155.83,104.065 L155.263,103.289 C152.015,98.835 146.806,96.175 141.329,96.175 L141.329,96.175 Z M74.036,103.289 L73.469,104.065 L72.676,103.538 C70.247,101.93 68.242,99.853 66.745,97.473 C64.316,89.178 65.247,86.055 65.556,80.96 C69.227,76.477 77.446,66.845 83.68,66.845 C90.668,66.845 97.039,70.427 100.724,76.427 L101.649,77.935 L101.649,73.675 C101.649,65.955 95.369,59.675 87.649,59.675 L80.979,59.675 C80.428,59.675 79.979,59.227 79.979,58.675 C79.979,58.123 80.428,57.675 80.979,57.675 L87.649,57.675 C96.472,57.675 103.649,64.853 103.649,73.675 L103.65,86.207 L103.663,86.442 C103.671,86.576 103.68,86.711 103.68,86.845 C103.68,91.371 102.188,95.653 99.365,99.228 L98.78,99.979 L98.001,99.419 C95.045,97.297 91.577,96.175 87.97,96.175 C82.493,96.175 77.284,98.835 74.036,103.289 L74.036,103.289 Z M160.149,58.675 C160.149,59.227 159.701,59.675 159.149,59.675 L153.479,59.675 C152.928,59.675 152.479,59.227 152.479,58.675 C152.479,58.123 152.928,57.675 153.479,57.675 L159.149,57.675 C159.479,57.675 159.793,57.844 159.97,58.117 C160.094,58.285 160.149,58.47 160.149,58.675 L160.149,58.675 Z M69.329,58.117 C69.506,57.844 69.82,57.675 70.149,57.675 L75.819,57.675 C76.371,57.675 76.819,58.123 76.819,58.675 C76.819,59.227 76.371,59.675 75.819,59.675 L70.149,59.675 C69.598,59.675 69.149,59.227 69.149,58.675 C69.149,58.47 69.205,58.285 69.329,58.117 L69.329,58.117 Z M109.189,135.175 C108.638,135.175 108.189,134.727 108.189,134.175 C108.189,133.623 108.638,133.175 109.189,133.175 L120.109,133.175 C120.661,133.175 121.109,133.623 121.109,134.175 C121.109,134.727 120.661,135.175 120.109,135.175 L109.189,135.175 L109.189,135.175 Z M114.649,118.706 L104.948,100.388 L114.649,88.784 L124.351,100.388 L114.649,118.706 L114.649,118.706 Z M76.13,48.675 C73.455,48.675 70.953,50.001 69.437,52.224 L68.423,53.712 C68.389,52.596 68.347,51.502 68.292,50.437 C70.2,48.074 73.064,46.675 76.13,46.675 L83.06,46.675 L83.297,45.735 C76.161,41.89 69.476,37.156 63.426,31.665 L62.59,30.907 L62.59,30.956 C54.829,23.832 51.15,17.011 51.15,17.011 L51.15,93.511 C62.65,97.844 62.483,109.178 62.483,109.178 L62.59,109.178 L62.59,130.905 C62.59,131.441 62.6,131.968 62.619,132.493 C62.907,140.266 65.322,147.766 69.665,154.257 C69.765,154.358 69.841,154.473 69.898,154.609 L69.97,154.737 L70.047,154.809 C70.15,154.906 70.231,155.023 70.288,155.159 L70.31,155.21 L70.343,155.256 C70.495,155.469 70.647,155.682 70.799,155.884 L70.835,155.933 L70.882,155.972 C70.995,156.065 71.085,156.183 71.14,156.311 L71.165,156.369 L71.203,156.419 C75.329,161.784 80.792,166.127 87,168.979 L87.584,169.247 L87.701,168.616 C88.097,166.465 89.955,164.905 92.119,164.905 C93.075,164.905 94.002,165.22 94.801,165.816 L95.205,166.118 L95.504,165.71 C96.286,164.638 97.479,163.968 98.817,163.869 C98.922,163.853 99.026,163.845 99.14,163.845 C100.24,163.845 101.311,164.268 102.152,165.034 L102.519,165.368 L102.855,165.005 C103.73,164.064 104.9,163.545 106.149,163.545 C108.631,163.545 110.649,165.564 110.649,168.045 L110.649,173.058 L111.162,173.045 C112.044,173.023 112.928,173.011 113.801,173.011 L115.498,173.011 C116.371,173.011 117.255,173.023 118.137,173.045 L118.649,173.058 L118.649,168.045 C118.649,165.564 120.668,163.545 123.149,163.545 C124.398,163.545 125.568,164.064 126.443,165.005 L126.78,165.368 L127.146,165.034 C127.988,164.268 129.059,163.845 130.159,163.845 C130.272,163.845 130.377,163.853 130.481,163.869 C131.82,163.968 133.013,164.638 133.795,165.71 L134.094,166.118 L134.498,165.816 C135.297,165.22 136.224,164.905 137.18,164.905 C139.344,164.905 141.202,166.465 141.598,168.616 L141.715,169.247 L142.299,168.979 C148.507,166.127 153.97,161.784 158.096,156.419 L158.134,156.369 L158.159,156.311 C158.214,156.183 158.304,156.065 158.417,155.972 L158.464,155.933 L158.5,155.884 C158.651,155.682 158.804,155.469 158.956,155.256 L158.989,155.21 L159.011,155.159 C159.067,155.023 159.148,154.906 159.252,154.809 L159.329,154.737 L159.4,154.609 C159.458,154.473 159.534,154.358 159.634,154.257 C163.977,147.766 166.392,140.266 166.68,132.493 C166.699,131.968 166.709,131.441 166.709,130.905 L166.709,109.178 L166.815,109.178 C166.815,109.178 166.648,97.844 178.148,93.511 L178.148,17.011 C178.148,17.011 174.47,23.832 166.709,30.956 L166.709,30.907 L165.873,31.665 C159.823,37.156 153.138,41.89 146.002,45.735 L146.239,46.675 L153.169,46.675 C156.234,46.675 159.099,48.074 161.007,50.437 C160.952,51.502 160.91,52.596 160.876,53.712 L159.862,52.224 C158.346,50.001 155.844,48.675 153.169,48.675 L76.13,48.675 L76.13,48.675 Z" id="Fill-68" fill="#9EA979"></path>
        <path d="M132.899,135.675 L143.819,135.675 C144.64,135.675 145.319,135.005 145.319,134.175 C145.319,133.345 144.64,132.675 143.819,132.675 L132.899,132.675 C132.069,132.675 131.399,133.345 131.399,134.175 C131.399,135.005 132.069,135.675 132.899,135.675 L132.899,135.675 Z M97.899,134.175 C97.899,133.345 97.229,132.675 96.399,132.675 L85.479,132.675 C84.659,132.675 83.979,133.345 83.979,134.175 C83.979,135.005 84.659,135.675 85.479,135.675 L96.399,135.675 C97.229,135.675 97.899,135.005 97.899,134.175 L97.899,134.175 Z M160.649,58.675 C160.649,58.365 160.56,58.075 160.39,57.845 C160.13,57.445 159.669,57.175 159.149,57.175 L153.479,57.175 C152.649,57.175 151.979,57.855 151.979,58.675 C151.979,59.505 152.649,60.175 153.479,60.175 L159.149,60.175 C159.979,60.175 160.649,59.505 160.649,58.675 L160.649,58.675 Z M70.149,60.175 L75.819,60.175 C76.649,60.175 77.319,59.505 77.319,58.675 C77.319,57.855 76.649,57.175 75.819,57.175 L70.149,57.175 C69.63,57.175 69.169,57.445 68.909,57.845 C68.739,58.075 68.649,58.365 68.649,58.675 C68.649,59.505 69.319,60.175 70.149,60.175 L70.149,60.175 Z M156.369,100.645 C160.619,97.335 163.119,92.275 163.119,86.845 C163.119,77.195 155.27,69.345 145.619,69.345 C136.189,69.345 128.499,76.845 128.149,86.185 L128.149,86.845 C128.149,86.925 128.14,87.005 128.13,87.085 C128.169,90.505 129.18,93.745 131.079,96.565 C134.169,94.675 137.689,93.675 141.329,93.675 C147.109,93.675 152.63,96.255 156.369,100.645 L156.369,100.645 Z M87.97,93.675 C91.609,93.675 95.13,94.675 98.22,96.565 C100.119,93.745 101.13,90.505 101.169,87.085 C101.159,87.005 101.149,86.925 101.149,86.845 L101.149,86.185 C100.8,76.845 93.109,69.345 83.68,69.345 C74.029,69.345 66.18,77.195 66.18,86.845 C66.18,92.275 68.68,97.335 72.93,100.645 C76.669,96.255 82.189,93.675 87.97,93.675 L87.97,93.675 Z M131.59,99.825 L130.419,100.665 L129.539,99.535 C126.649,95.875 125.119,91.485 125.119,86.845 C125.119,86.625 125.14,86.405 125.149,86.185 L125.149,73.675 C125.149,64.585 132.55,57.175 141.649,57.175 L148.319,57.175 C149.149,57.175 149.819,57.855 149.819,58.675 C149.819,59.505 149.149,60.175 148.319,60.175 L141.649,60.175 C134.209,60.175 128.149,66.235 128.149,73.675 L128.149,76.165 C131.76,70.285 138.229,66.345 145.619,66.345 C156.417,66.345 165.276,74.752 166.044,85.359 C166.051,86.638 166.024,88.036 165.943,89.506 C165.18,95.363 161.919,100.632 156.899,103.955 L155.709,104.745 L154.859,103.585 C151.709,99.265 146.649,96.675 141.329,96.675 C137.829,96.675 134.459,97.765 131.59,99.825 L131.59,99.825 Z M87.97,96.675 C82.649,96.675 77.59,99.265 74.439,103.585 L73.59,104.745 L72.399,103.955 C67.38,100.632 64.119,95.363 63.355,89.506 C63.274,88.036 63.248,86.638 63.255,85.359 C64.022,74.752 72.882,66.345 83.68,66.345 C91.069,66.345 97.539,70.285 101.149,76.165 L101.149,73.675 C101.149,66.235 95.09,60.175 87.649,60.175 L80.979,60.175 C80.149,60.175 79.479,59.505 79.479,58.675 C79.479,57.855 80.149,57.175 80.979,57.175 L87.649,57.175 C96.749,57.175 104.149,64.585 104.149,73.675 L104.149,86.185 C104.159,86.405 104.18,86.625 104.18,86.845 C104.18,91.485 102.649,95.875 99.76,99.535 L98.88,100.665 L97.709,99.825 C94.84,97.765 91.47,96.675 87.97,96.675 L87.97,96.675 Z M114.649,92.685 L107.949,100.705 L114.649,113.365 L121.35,100.705 L114.649,92.685 L114.649,92.685 Z M114.649,119.775 L104.35,100.325 L114.649,88.005 L124.949,100.325 L114.649,119.775 L114.649,119.775 Z M114.649,175.515 L113.319,175.515 C112.6,175.515 111.869,175.535 111.149,175.555 L111.149,178.925 C111.149,181.675 108.909,183.925 106.149,183.925 C104.859,183.925 103.68,183.415 102.8,182.605 C101.88,183.595 100.59,184.225 99.14,184.225 C98.02,184.225 96.989,183.835 96.159,183.215 C95.249,184.465 93.779,185.285 92.119,185.285 C89.369,185.285 87.119,183.035 87.119,180.285 L87.119,179.235 C70.6,184.045 55.84,193.335 44.369,205.855 C44.369,205.855 44.369,205.855 44.359,205.865 C44.35,205.875 44.34,205.885 44.34,205.885 C39.13,211.585 34.59,217.935 30.88,224.845 L42.419,224.845 C56.539,202.135 79.999,187.845 106.3,185.645 C108.68,185.435 111.079,185.335 113.499,185.335 L114.649,185.335 L115.8,185.335 C118.22,185.335 120.619,185.435 122.999,185.645 C149.3,187.845 172.76,202.135 186.88,224.845 L198.419,224.845 C194.709,217.935 190.169,211.585 184.959,205.885 C184.959,205.885 184.949,205.875 184.939,205.865 L184.93,205.855 C173.459,193.335 158.699,184.045 142.18,179.235 L142.18,180.285 C142.18,183.035 139.93,185.285 137.18,185.285 C135.52,185.285 134.05,184.465 133.14,183.215 C132.31,183.835 131.279,184.225 130.159,184.225 C128.709,184.225 127.419,183.595 126.499,182.605 C125.619,183.415 124.439,183.925 123.149,183.925 C120.39,183.925 118.149,181.675 118.149,178.925 L118.149,175.555 C117.43,175.535 116.699,175.515 115.979,175.515 L114.649,175.515 L114.649,175.515 Z M114.649,188.335 L113.499,188.335 C96.64,188.335 80.699,193.435 67.439,202.675 L75.06,210.385 C80.31,206.915 85.989,204.175 91.97,202.235 C92.76,201.975 93.6,202.405 93.859,203.195 C94.109,203.985 93.68,204.835 92.89,205.085 C86.8,207.065 81.02,209.915 75.709,213.555 L74.68,214.265 L64.989,204.455 C57.64,210.005 51.189,216.855 45.97,224.845 L106.14,224.845 L114.649,218.365 L123.159,224.845 L183.329,224.845 C178.109,216.855 171.659,210.005 164.31,204.455 L154.619,214.265 L153.59,213.555 C148.279,209.915 142.499,207.065 136.409,205.085 C135.619,204.835 135.189,203.985 135.439,203.195 C135.699,202.405 136.539,201.975 137.329,202.235 C143.31,204.175 148.989,206.915 154.239,210.385 L161.859,202.675 C148.6,193.435 132.659,188.335 115.8,188.335 L114.649,188.335 L114.649,188.335 Z M135.18,169.405 L135.18,180.285 C135.18,181.385 136.069,182.285 137.18,182.285 C138.279,182.285 139.18,181.385 139.18,180.285 L139.18,169.405 C139.18,168.305 138.279,167.405 137.18,167.405 C136.069,167.405 135.18,168.305 135.18,169.405 L135.18,169.405 Z M92.119,167.405 C91.02,167.405 90.119,168.305 90.119,169.405 L90.119,180.285 C90.119,181.385 91.02,182.285 92.119,182.285 C93.229,182.285 94.119,181.385 94.119,180.285 L94.119,169.405 C94.119,168.305 93.229,167.405 92.119,167.405 L92.119,167.405 Z M128.159,168.345 L128.159,179.225 C128.159,180.325 129.06,181.225 130.159,181.225 C130.569,181.225 130.959,181.105 131.279,180.885 C131.81,180.525 132.159,179.915 132.159,179.225 L132.159,168.345 C132.159,167.315 131.38,166.455 130.359,166.355 C130.3,166.345 130.229,166.345 130.159,166.345 C129.06,166.345 128.159,167.245 128.159,168.345 L128.159,168.345 Z M99.14,166.345 C99.069,166.345 98.999,166.345 98.939,166.355 C97.919,166.455 97.14,167.315 97.14,168.345 L97.14,179.225 C97.14,179.915 97.489,180.525 98.02,180.885 C98.34,181.105 98.729,181.225 99.14,181.225 C100.239,181.225 101.14,180.325 101.14,179.225 L101.14,168.345 C101.14,167.245 100.239,166.345 99.14,166.345 L99.14,166.345 Z M121.149,168.045 L121.149,178.925 C121.149,180.025 122.05,180.925 123.149,180.925 C124.249,180.925 125.149,180.025 125.149,178.925 L125.149,168.045 C125.149,166.945 124.249,166.045 123.149,166.045 C122.05,166.045 121.149,166.945 121.149,168.045 L121.149,168.045 Z M106.149,166.045 C105.05,166.045 104.149,166.945 104.149,168.045 L104.149,178.925 C104.149,180.025 105.05,180.925 106.149,180.925 C107.249,180.925 108.149,180.025 108.149,178.925 L108.149,168.045 C108.149,166.945 107.249,166.045 106.149,166.045 L106.149,166.045 Z M89.399,49.175 C89.39,49.175 89.39,49.185 89.38,49.185 C89.38,49.185 89.369,49.175 89.359,49.175 L76.13,49.175 C73.609,49.175 71.27,50.425 69.85,52.505 L67.069,56.585 L66.43,57.525 C65.959,58.205 65.029,58.385 64.35,57.915 C63.99,57.673 63.78,57.304 63.718,56.909 C63.71,56.819 63.702,56.726 63.695,56.636 C63.702,56.359 63.777,56.083 63.949,55.835 L67.369,50.815 C69.34,47.915 72.619,46.175 76.13,46.175 L83.06,46.175 C70.827,39.583 60.393,30.656 52.199,20.505 L52.199,92.745 C55.399,93.785 58.14,95.815 60.09,98.465 C63.609,104.486 63.128,107.506 63.128,107.506 C63.131,107.589 63.14,107.67 63.14,107.755 C63.14,107.885 63.119,108.015 63.09,108.135 L63.09,130.905 C63.09,131.435 63.1,131.955 63.119,132.475 C63.409,140.315 65.869,147.685 70.02,153.905 C70.169,154.055 70.279,154.225 70.359,154.415 C70.369,154.425 70.38,154.435 70.39,154.445 C70.55,154.595 70.669,154.775 70.749,154.965 C70.899,155.175 71.05,155.385 71.199,155.585 C71.369,155.725 71.51,155.905 71.6,156.115 C75.63,161.355 80.939,165.645 87.209,168.525 C87.64,166.185 89.669,164.405 92.119,164.405 C93.239,164.405 94.27,164.795 95.1,165.415 C95.939,164.265 97.239,163.485 98.739,163.375 C98.869,163.355 98.999,163.345 99.14,163.345 C100.43,163.345 101.6,163.855 102.489,164.665 C103.409,163.675 104.699,163.045 106.149,163.045 C108.909,163.045 111.149,165.285 111.149,168.045 L111.149,172.545 C112.322,172.515 113.496,172.505 114.649,172.515 C115.803,172.505 116.977,172.515 118.149,172.545 L118.149,168.045 C118.149,165.285 120.39,163.045 123.149,163.045 C124.6,163.045 125.89,163.675 126.81,164.665 C127.699,163.855 128.869,163.345 130.159,163.345 C130.3,163.345 130.43,163.355 130.56,163.375 C132.06,163.485 133.359,164.265 134.199,165.415 C135.029,164.795 136.06,164.405 137.18,164.405 C139.63,164.405 141.659,166.185 142.09,168.525 C148.359,165.645 153.669,161.355 157.699,156.115 C157.789,155.905 157.93,155.725 158.1,155.585 C158.249,155.385 158.399,155.175 158.55,154.965 C158.63,154.775 158.749,154.595 158.909,154.445 C158.919,154.435 158.93,154.425 158.939,154.415 C159.02,154.225 159.13,154.055 159.279,153.905 C163.43,147.685 165.89,140.315 166.18,132.475 C166.199,131.955 166.209,131.435 166.209,130.905 L166.209,108.135 C166.18,108.015 166.159,107.885 166.159,107.755 C166.159,107.67 166.168,107.589 166.171,107.506 C166.171,107.506 165.689,104.486 169.209,98.465 C171.159,95.815 173.899,93.785 177.1,92.745 L177.1,20.505 C168.906,30.656 158.472,39.583 146.239,46.175 L153.169,46.175 C156.68,46.175 159.959,47.915 161.93,50.815 L165.35,55.835 C165.521,56.083 165.597,56.359 165.604,56.636 C165.597,56.726 165.589,56.819 165.581,56.909 C165.519,57.304 165.309,57.673 164.949,57.915 C164.27,58.385 163.34,58.205 162.869,57.525 L162.229,56.585 L159.449,52.505 C158.029,50.425 155.689,49.175 153.169,49.175 L139.939,49.175 C139.93,49.175 139.919,49.185 139.919,49.185 C139.909,49.185 139.909,49.175 139.899,49.175 L89.399,49.175 L89.399,49.175 Z M177.699,125.025 C177.8,124.205 178.539,123.625 179.369,123.715 C180.199,123.815 180.779,124.565 180.68,125.385 C179.649,133.835 176.189,141.635 170.84,147.985 C177.35,143.325 182.479,136.785 185.319,129.185 C185.609,128.405 186.47,128.015 187.239,128.305 C188.02,128.595 188.419,129.455 188.13,130.235 C184.579,139.735 177.699,147.715 168.999,152.735 C184.18,146.815 194.699,132.065 194.699,115.055 L194.699,107.755 C194.699,100.715 188.97,94.985 181.93,94.985 C181.51,94.985 181.1,95.005 180.689,95.045 C174.569,95.635 169.72,100.555 169.209,106.695 L169.209,130.905 C169.209,131.475 169.199,132.035 169.169,132.595 C168.949,138.645 167.52,144.435 165.079,149.695 C172.029,143.255 176.529,134.585 177.699,125.025 L177.699,125.025 Z M64.22,149.695 C61.779,144.435 60.35,138.645 60.13,132.595 C60.1,132.035 60.09,131.475 60.09,130.905 L60.09,106.695 C59.579,100.555 54.729,95.635 48.609,95.045 C48.199,95.005 47.789,94.985 47.369,94.985 C40.329,94.985 34.6,100.715 34.6,107.755 L34.6,115.055 C34.6,132.065 45.119,146.815 60.3,152.735 C51.6,147.715 44.72,139.735 41.169,130.235 C40.88,129.455 41.279,128.595 42.06,128.305 C42.829,128.015 43.689,128.405 43.979,129.185 C46.819,136.785 51.949,143.325 58.459,147.985 C53.109,141.635 49.649,133.835 48.619,125.385 C48.52,124.565 49.1,123.815 49.93,123.715 C50.76,123.625 51.499,124.205 51.6,125.025 C52.77,134.585 57.27,143.255 64.22,149.695 L64.22,149.695 Z M114.649,222.135 L107.159,227.845 L18.649,227.845 C17.819,227.845 17.149,227.175 17.149,226.345 C17.149,225.515 17.819,224.845 18.649,224.845 L27.499,224.845 C30.369,219.275 33.76,214.045 37.579,209.195 C37.35,209.215 37.119,209.235 36.89,209.235 C35.169,209.235 33.479,208.735 32.069,207.575 L31.43,207.055 C29.609,205.575 28.47,203.375 28.289,201.035 C28.109,198.695 28.909,196.355 30.489,194.615 C34.399,190.265 40.949,183.935 49.919,178.405 C50.619,177.965 51.55,178.185 51.979,178.895 C52.409,179.595 52.189,180.525 51.489,180.955 C42.829,186.295 36.499,192.425 32.709,196.625 C31.689,197.755 31.169,199.285 31.279,200.805 C31.399,202.335 32.14,203.765 33.329,204.735 L33.959,205.255 C36.3,207.165 40.069,206.085 42.06,203.935 C54.109,190.745 69.68,181.025 87.119,176.115 L87.119,171.755 C79.959,168.725 73.909,163.985 69.359,158.135 C47.789,155.305 31.6,136.925 31.6,115.055 L31.6,107.755 C31.6,99.065 38.68,91.985 47.369,91.985 C47.89,91.985 48.399,92.015 48.899,92.075 C48.999,92.085 49.1,92.095 49.199,92.105 L49.199,16.615 C46.8,13.325 44.59,9.885 42.609,6.315 C42.209,5.595 42.47,4.675 43.189,4.275 C43.909,3.875 44.829,4.135 45.229,4.855 C46.47,7.085 47.789,9.255 49.199,11.375 L49.199,2.345 C49.199,1.515 49.869,0.845 50.699,0.845 C51.529,0.845 52.199,1.515 52.199,2.345 L52.199,15.605 C61.939,28.695 74.919,39.325 89.72,46.175 L139.579,46.175 C154.38,39.325 167.359,28.695 177.1,15.605 L177.1,2.345 C177.1,1.515 177.77,0.845 178.6,0.845 C179.43,0.845 180.1,1.515 180.1,2.345 L180.1,11.375 C181.51,9.255 182.829,7.085 184.069,4.855 C184.47,4.135 185.39,3.875 186.109,4.275 C186.829,4.675 187.09,5.595 186.689,6.315 C184.709,9.885 182.499,13.325 180.1,16.615 L180.1,92.105 C180.199,92.095 180.3,92.085 180.399,92.075 C180.899,92.015 181.409,91.985 181.93,91.985 C190.619,91.985 197.699,99.065 197.699,107.755 L197.699,115.055 C197.699,136.925 181.51,155.305 159.939,158.135 C155.39,163.985 149.34,168.725 142.18,171.755 L142.18,176.115 C159.619,181.025 175.189,190.745 187.239,203.935 C189.229,206.085 192.999,207.165 195.34,205.255 L195.97,204.735 C197.159,203.765 197.899,202.335 198.02,200.805 C198.13,199.285 197.609,197.755 196.59,196.625 C192.8,192.425 186.47,186.295 177.81,180.955 C177.109,180.525 176.89,179.595 177.319,178.895 C177.749,178.185 178.68,177.965 179.38,178.405 C188.35,183.935 194.899,190.265 198.81,194.615 C200.39,196.355 201.189,198.695 201.01,201.035 C200.829,203.375 199.689,205.575 197.869,207.055 L197.229,207.575 C195.819,208.735 194.13,209.235 192.409,209.235 C192.18,209.235 191.949,209.215 191.72,209.195 C195.539,214.045 198.93,219.275 201.8,224.845 L210.649,224.845 C211.479,224.845 212.149,225.515 212.149,226.345 C212.149,227.175 211.479,227.845 210.649,227.845 L122.14,227.845 L114.649,222.135 L114.649,222.135 Z M175.76,177.995 C176.149,177.265 175.88,176.355 175.149,175.955 C173.51,175.075 171.829,174.245 170.149,173.475 C169.39,173.135 168.499,173.475 168.159,174.225 C167.819,174.975 168.149,175.865 168.899,176.215 C170.529,176.945 172.149,177.755 173.72,178.595 C173.949,178.725 174.189,178.775 174.43,178.775 C174.97,178.775 175.479,178.495 175.76,177.995 L175.76,177.995 Z M54.869,178.775 C55.109,178.775 55.35,178.725 55.579,178.595 C57.149,177.755 58.77,176.945 60.399,176.215 C61.149,175.865 61.479,174.975 61.14,174.225 C60.8,173.475 59.909,173.135 59.149,173.475 C57.47,174.245 55.789,175.075 54.149,175.955 C53.419,176.355 53.149,177.265 53.539,177.995 C53.819,178.495 54.329,178.775 54.869,178.775 L54.869,178.775 Z M126.499,201.145 C126.35,201.965 126.89,202.745 127.709,202.895 C129.13,203.155 130.569,203.465 131.979,203.815 C132.109,203.845 132.229,203.865 132.35,203.865 C133.02,203.865 133.63,203.405 133.8,202.725 C134.01,201.925 133.52,201.105 132.709,200.905 C131.239,200.535 129.729,200.215 128.239,199.945 C127.43,199.795 126.649,200.335 126.499,201.145 L126.499,201.145 Z M101.06,199.945 C99.569,200.215 98.06,200.535 96.59,200.905 C95.779,201.105 95.289,201.925 95.499,202.725 C95.669,203.405 96.279,203.865 96.949,203.865 C97.069,203.865 97.189,203.845 97.319,203.815 C98.729,203.465 100.169,203.155 101.59,202.895 C102.409,202.745 102.949,201.965 102.8,201.145 C102.649,200.335 101.869,199.795 101.06,199.945 L101.06,199.945 Z M141.479,86.055 C141.479,83.685 139.56,81.765 137.189,81.765 C134.819,81.765 132.899,83.685 132.899,86.055 C132.899,88.425 134.819,90.345 137.189,90.345 C139.56,90.345 141.479,88.425 141.479,86.055 L141.479,86.055 Z M92.109,90.345 C94.479,90.345 96.399,88.425 96.399,86.055 C96.399,83.685 94.479,81.765 92.109,81.765 C89.739,81.765 87.819,83.685 87.819,86.055 C87.819,88.425 89.739,90.345 92.109,90.345 L92.109,90.345 Z M186.939,123.615 C186.77,124.425 187.289,125.225 188.1,125.395 C188.199,125.415 188.31,125.425 188.409,125.425 C189.109,125.425 189.729,124.945 189.88,124.245 C190.39,121.855 190.709,119.385 190.81,116.915 C190.85,116.085 190.209,115.385 189.38,115.355 C188.569,115.305 187.85,115.965 187.819,116.785 C187.72,119.095 187.43,121.385 186.939,123.615 L186.939,123.615 Z M41.479,116.785 C41.449,115.965 40.729,115.305 39.919,115.355 C39.09,115.385 38.449,116.085 38.489,116.915 C38.59,119.385 38.909,121.855 39.419,124.245 C39.569,124.945 40.189,125.425 40.89,125.425 C40.989,125.425 41.1,125.415 41.199,125.395 C42.01,125.225 42.529,124.425 42.359,123.615 C41.869,121.385 41.579,119.095 41.479,116.785 L41.479,116.785 Z M109.189,132.675 C108.359,132.675 107.689,133.345 107.689,134.175 C107.689,135.005 108.359,135.675 109.189,135.675 L120.109,135.675 C120.939,135.675 121.609,135.005 121.609,134.175 C121.609,133.345 120.939,132.675 120.109,132.675 L109.189,132.675 L109.189,132.675 Z M121.159,148.345 L132.069,148.345 C132.899,148.345 133.569,147.675 133.569,146.845 C133.569,146.015 132.899,145.345 132.069,145.345 L121.159,145.345 C120.329,145.345 119.659,146.015 119.659,146.845 C119.659,147.675 120.329,148.345 121.159,148.345 L121.159,148.345 Z M109.64,146.845 C109.64,146.015 108.97,145.345 108.14,145.345 L97.229,145.345 C96.399,145.345 95.729,146.015 95.729,146.845 C95.729,147.675 96.399,148.345 97.229,148.345 L108.14,148.345 C108.97,148.345 109.64,147.675 109.64,146.845 L109.64,146.845 Z M215.819,226.345 C215.819,227.175 216.489,227.845 217.319,227.845 L227.319,227.845 C228.14,227.845 228.819,227.175 228.819,226.345 C228.819,225.515 228.14,224.845 227.319,224.845 L217.319,224.845 C216.489,224.845 215.819,225.515 215.819,226.345 L215.819,226.345 Z M11.979,224.845 L1.979,224.845 C1.159,224.845 0.479,225.515 0.479,226.345 C0.479,227.175 1.159,227.845 1.979,227.845 L11.979,227.845 C12.81,227.845 13.479,227.175 13.479,226.345 C13.479,225.515 12.81,224.845 11.979,224.845 L11.979,224.845 Z M109.189,158.515 C108.359,158.515 107.689,157.845 107.689,157.015 C107.689,156.185 108.359,155.515 109.189,155.515 L120.109,155.515 C120.939,155.515 121.609,156.185 121.609,157.015 C121.609,157.845 120.939,158.515 120.109,158.515 L109.189,158.515 L109.189,158.515 Z" id="Fill-69" fill="#42384B"></path>
    </g>
</svg>