<?xml version="1.0" encoding="UTF-8" standalone="no"?>
<svg width="231px" height="218px" viewBox="0 0 231 218" version="1.1" xmlns="http://www.w3.org/2000/svg" xmlns:xlink="http://www.w3.org/1999/xlink">
    <!-- Generator: Sketch 39.1 (31720) - http://www.bohemiancoding.com/sketch -->
    <title>Slice 1</title>
    <desc>Created with Sketch.</desc>
    <defs></defs>
    <g id="Page-1" stroke="none" stroke-width="1" fill="none" fill-rule="evenodd">
        <path d="M81.182,58.543 C74.514,52.068 70.689,43.022 70.689,33.725 C70.689,31.48 70.918,29.192 71.369,26.927 L71.48,26.37 L72.019,26.551 C76.693,28.117 88.224,32.776 94.309,42.173 L94.57,42.576 L94.178,42.854 C88.646,46.745 84.434,52.11 81.996,58.366 L81.723,59.069 L81.182,58.543 L81.182,58.543 Z M149.674,58.366 C147.236,52.11 143.023,46.745 137.492,42.854 L137.1,42.576 L137.359,42.173 C143.441,32.766 154.975,28.114 159.65,26.55 L160.189,26.37 L160.3,26.927 C160.751,29.192 160.98,31.479 160.98,33.725 C160.98,43.012 157.156,52.058 150.488,58.543 L149.947,59.07 L149.674,58.366 L149.674,58.366 Z" id="Fill-59" fill="#DC827F"></path>
        <path d="M104.63,58.095 C103.322,58.095 102.26,59.158 102.26,60.465 C102.26,61.778 103.322,62.845 104.63,62.845 C105.942,62.845 107.01,61.778 107.01,60.465 C107.01,59.158 105.942,58.095 104.63,58.095 L104.63,58.095 Z M105.31,68.345 C100.92,68.345 96.656,67.535 92.635,65.94 L92.229,65.779 L92.334,65.354 C94.156,58.037 99.756,52.054 106.946,49.74 L107.422,49.586 L107.576,50.062 C108.693,53.526 109.26,57.141 109.26,60.805 C109.26,63.137 109.018,65.496 108.539,67.816 L108.465,68.18 L108.096,68.213 C107.117,68.302 106.205,68.345 105.31,68.345 L105.31,68.345 Z M127.029,58.095 C125.723,58.095 124.66,59.158 124.66,60.465 C124.66,61.778 125.723,62.845 127.029,62.845 C128.342,62.845 129.41,61.778 129.41,60.465 C129.41,59.158 128.342,58.095 127.029,58.095 L127.029,58.095 Z M126.35,68.345 C125.453,68.345 124.543,68.302 123.564,68.213 L123.195,68.18 L123.12,67.816 C122.648,65.53 122.41,63.171 122.41,60.805 C122.41,57.141 122.977,53.526 124.094,50.062 L124.248,49.586 L124.723,49.74 C131.903,52.051 137.502,58.033 139.334,65.354 L139.441,65.778 L139.034,65.94 C135.014,67.535 130.746,68.345 126.35,68.345 L126.35,68.345 Z" id="Fill-60" fill="#FACD5D"></path>
        <path d="M106.049,83.015 L109.686,83.015 L108.372,86.213 L106.049,83.015 L106.049,83.015 Z M121.984,83.015 L125.621,83.015 L123.298,86.213 L121.984,83.015 L121.984,83.015 Z" id="Fill-61" fill="#E6F5F8"></path>
        <path d="M134.999,41.258 C133.574,40.432 132.187,39.752 130.754,39.179 L130.113,38.923 L130.557,38.394 C136.082,31.791 143.793,27.496 152.27,26.3 L152.555,27.247 C147.329,29.728 140.158,34.144 135.67,41.097 L135.412,41.497 L134.999,41.258 L134.999,41.258 Z M95.989,41.096 C91.516,34.151 84.339,29.732 79.105,27.247 L79.39,26.3 C87.867,27.496 95.578,31.791 101.104,38.394 L101.545,38.922 L100.906,39.179 C99.47,39.757 98.041,40.456 96.66,41.258 L96.248,41.497 L95.989,41.096 L95.989,41.096 Z M13.553,45.85 C17.123,40.44 19.01,34.103 19.01,27.525 C19.01,19.69 16.238,12.059 11.206,6.035 L10.246,4.886 L11.704,5.229 C26.838,8.779 41.438,15.541 53.928,24.783 L54.566,25.256 L14.203,46.568 L13.553,45.85 L13.553,45.85 Z M177.093,25.256 L177.732,24.783 C190.238,15.536 204.842,8.775 219.965,5.229 L221.424,4.886 L220.463,6.035 C215.432,12.059 212.66,19.691 212.66,27.525 C212.66,34.098 214.543,40.435 218.107,45.851 L217.457,46.568 L177.093,25.256 L177.093,25.256 Z M26.502,77.108 C26.865,75.449 27.05,73.797 27.05,72.195 C27.05,62.618 20.984,54.088 11.956,50.968 L10.867,50.591 L53.674,27.985 L53.164,29.251 C49.351,38.708 39.207,62.343 27.385,77.523 L26.502,77.108 L26.502,77.108 Z M204.285,77.523 C192.463,62.343 182.318,38.708 178.506,29.251 L177.995,27.985 L220.791,50.591 L219.703,50.968 C210.676,54.092 204.609,62.622 204.609,72.195 C204.609,73.814 204.797,75.466 205.168,77.105 L204.285,77.523 L204.285,77.523 Z M49.629,102.313 C46.201,92.72 37.488,85.855 27.429,84.823 C26.639,84.735 25.824,84.685 25.004,84.675 L23.866,84.661 L24.646,83.832 C34.905,72.916 44.115,54.923 50.033,41.75 L50.984,42.024 C49.947,49.559 48.936,60.436 50.016,69.465 C51.165,79.045 51.797,86.513 51.399,94.131 C51.256,96.804 50.993,99.449 50.595,102.216 L49.629,102.313 L49.629,102.313 Z M181.074,102.216 C180.676,99.444 180.413,96.799 180.27,94.131 C179.872,86.513 180.504,79.045 181.653,69.465 C182.737,60.406 181.72,49.542 180.675,42.024 L181.626,41.75 C187.564,54.945 196.791,72.955 207.023,83.832 L207.809,84.666 L206.664,84.675 C205.482,84.684 204.255,84.786 203.017,84.979 C193.523,86.412 185.291,93.216 182.041,102.313 L181.074,102.216 L181.074,102.216 Z M178.905,106.722 C174.392,103.254 168.807,101.345 163.18,101.345 C159.609,101.345 155.982,102.118 152.693,103.582 L151.99,103.895 L151.99,94.831 L152.168,94.682 C165.926,83.138 174.777,67.021 177.094,49.3 C177.402,47.078 177.599,44.738 177.68,42.338 L178.675,42.286 C179.703,49.75 180.709,60.482 179.666,69.225 C178.51,78.809 177.879,86.337 178.309,94.247 C178.509,98.108 178.965,102.03 179.703,106.24 L179.924,107.504 L178.905,106.722 L178.905,106.722 Z M51.967,106.24 C52.719,101.95 53.174,98.03 53.36,94.25 C53.778,86.363 53.151,78.826 52.004,69.225 C50.955,60.521 51.964,49.772 52.994,42.286 L53.989,42.337 C54.049,44.035 54.169,45.75 54.347,47.432 C56.275,65.909 65.209,82.69 79.501,94.682 L79.68,94.831 L79.68,103.895 L78.977,103.582 C75.687,102.118 72.057,101.345 68.48,101.345 C62.859,101.345 57.277,103.254 52.765,106.722 L51.746,107.505 L51.967,106.24 L51.967,106.24 Z M90.689,67.297 C95.317,69.32 100.236,70.345 105.31,70.345 C106.561,70.345 107.857,70.267 109.395,70.098 L110.093,70.018 L110.253,69.331 C110.922,66.54 111.26,63.673 111.26,60.805 C111.26,56.428 110.493,52.129 108.98,48.028 L108.675,47.19 L107.802,47.409 C98.783,49.682 91.836,57.057 90.102,66.198 L89.955,66.976 L90.689,67.297 L90.689,67.297 Z M122.276,70.098 C123.812,70.267 125.106,70.345 126.35,70.345 C131.43,70.345 136.352,69.32 140.979,67.297 L141.712,66.977 L141.559,66.201 C139.824,57.058 132.881,49.683 123.867,47.409 L122.992,47.19 L122.678,48.03 C121.174,52.112 120.41,56.41 120.41,60.805 C120.41,63.658 120.745,66.526 121.406,69.329 L121.574,70.018 L122.276,70.098 L122.276,70.098 Z M98.489,77.297 C98.354,77.297 98.22,77.324 98.092,77.377 C97.85,77.479 97.66,77.671 97.561,77.917 C97.459,78.165 97.463,78.44 97.569,78.688 C98.566,81.05 100.773,82.686 103.333,82.958 L103.555,82.982 L108.849,90.305 L111.845,83.015 L119.814,83.015 L122.811,90.305 L128.105,82.982 L128.326,82.958 C130.893,82.685 133.104,81.049 134.099,78.691 C134.203,78.442 134.205,78.166 134.105,77.918 C134.006,77.671 133.814,77.48 133.568,77.377 C133.441,77.324 133.31,77.297 133.176,77.297 C132.774,77.297 132.416,77.536 132.262,77.907 C131.461,79.796 129.62,81.015 127.57,81.015 L104.09,81.015 C102.045,81.015 100.208,79.796 99.409,77.91 C99.254,77.536 98.894,77.297 98.489,77.297 L98.489,77.297 Z M90.68,106.675 C90.129,106.675 89.68,107.123 89.68,107.675 C89.68,109.615 89.914,111.549 90.375,113.426 C90.485,113.872 90.882,114.185 91.34,114.185 C91.435,114.185 91.51,114.177 91.578,114.16 C91.844,114.094 92.064,113.932 92.203,113.701 C92.339,113.476 92.379,113.211 92.314,112.956 C91.893,111.229 91.68,109.453 91.68,107.675 C91.68,107.123 91.23,106.675 90.68,106.675 L90.68,106.675 Z M140.99,106.675 C140.438,106.675 139.99,107.123 139.99,107.675 C139.99,109.452 139.776,111.229 139.355,112.953 C139.223,113.487 139.549,114.027 140.082,114.159 C140.149,114.177 140.225,114.185 140.32,114.185 C140.783,114.185 141.184,113.872 141.295,113.425 C141.756,111.551 141.99,109.616 141.99,107.675 C141.99,107.123 141.541,106.675 140.99,106.675 L140.99,106.675 Z M93.604,117.901 C93.434,117.901 93.266,117.945 93.117,118.03 C92.636,118.304 92.464,118.913 92.734,119.387 C96.984,126.968 105.01,131.675 113.68,131.675 L117.99,131.675 C126.65,131.675 134.675,126.968 138.934,119.39 C139.199,118.911 139.025,118.301 138.545,118.031 C138.392,117.944 138.229,117.901 138.057,117.901 C137.699,117.901 137.364,118.096 137.185,118.412 C133.293,125.359 125.938,129.675 117.99,129.675 L113.68,129.675 C105.736,129.675 98.377,125.359 94.474,118.41 C94.299,118.095 93.966,117.901 93.604,117.901 L93.604,117.901 Z M113.68,139.675 C96.035,139.675 81.68,125.32 81.68,107.675 L81.68,89.061 L82.592,90.381 C84.58,93.264 87.063,94.725 89.97,94.725 C90.521,94.725 90.97,94.277 90.97,93.725 C90.97,93.173 90.521,92.725 89.97,92.725 C84.338,92.725 82.09,85.074 81.695,83.539 L81.68,83.479 L81.68,70.675 C81.68,53.031 96.035,38.675 113.68,38.675 L117.99,38.675 C119.027,38.675 120.123,38.73 121.248,38.837 C134.868,40.231 146.087,50.122 149.167,63.452 C149.713,65.81 149.99,68.241 149.99,70.675 L149.99,83.479 L149.975,83.539 C149.58,85.074 147.33,92.725 141.689,92.725 C141.139,92.725 140.689,93.173 140.689,93.725 C140.689,94.277 141.139,94.725 141.689,94.725 C144.592,94.725 147.077,93.263 149.079,90.38 L149.99,89.069 L149.99,107.675 C149.99,124.303 137.014,138.319 120.447,139.584 C119.634,139.645 118.807,139.675 117.99,139.675 L113.68,139.675 L113.68,139.675 Z" id="Fill-62" fill="#686177"></path>
        <path d="M11.01,214.845 L2.34,214.845 C1.51,214.845 0.84,215.515 0.84,216.345 C0.84,217.175 1.51,217.845 2.34,217.845 L11.01,217.845 C11.84,217.845 12.51,217.175 12.51,216.345 C12.51,215.515 11.84,214.845 11.01,214.845 L11.01,214.845 Z M39.92,161.345 L39.92,125.595 C39.92,124.765 39.25,124.095 38.42,124.095 C37.59,124.095 36.92,124.765 36.92,125.595 L36.92,161.345 C36.92,162.175 37.59,162.845 38.42,162.845 C39.25,162.845 39.92,162.175 39.92,161.345 L39.92,161.345 Z M50.14,168.135 C50.97,168.135 51.64,167.465 51.64,166.635 L51.64,136.475 C51.64,135.645 50.97,134.975 50.14,134.975 C49.31,134.975 48.64,135.645 48.64,136.475 L48.64,166.635 C48.64,167.465 49.31,168.135 50.14,168.135 L50.14,168.135 Z M48.64,178.365 C48.64,179.185 49.31,179.865 50.14,179.865 C50.97,179.865 51.64,179.185 51.64,178.365 L51.64,172.845 C51.64,172.015 50.97,171.345 50.14,171.345 C49.31,171.345 48.64,172.015 48.64,172.845 L48.64,178.365 L48.64,178.365 Z M210.99,214.845 L173.56,214.845 L161.67,199.345 L69.689,199.345 C68.859,199.345 68.189,200.015 68.189,200.845 C68.189,201.675 68.859,202.345 69.689,202.345 L160.189,202.345 L169.779,214.845 L71.449,214.845 L62.65,209.115 L55.01,214.845 L20.68,214.845 C19.85,214.845 19.18,215.515 19.18,216.345 C19.18,217.175 19.85,217.845 20.68,217.845 L56.01,217.845 L62.77,212.775 L70.57,217.845 L210.99,217.845 C211.82,217.845 212.49,217.175 212.49,216.345 C212.49,215.515 211.82,214.845 210.99,214.845 L210.99,214.845 Z M92.8,112.835 C92.39,111.155 92.18,109.425 92.18,107.675 C92.18,106.855 91.51,106.175 90.68,106.175 C89.85,106.175 89.18,106.855 89.18,107.675 C89.18,109.665 89.42,111.635 89.89,113.545 C90.06,114.235 90.67,114.685 91.34,114.685 C91.46,114.685 91.58,114.675 91.699,114.645 C92.51,114.445 93,113.635 92.8,112.835 L92.8,112.835 Z M92.82,65.475 C96.8,67.055 101,67.845 105.31,67.845 C106.17,67.845 107.06,67.805 108.05,67.715 C108.52,65.435 108.76,63.115 108.76,60.805 C108.76,57.175 108.199,53.625 107.1,50.215 C100.05,52.485 94.609,58.285 92.82,65.475 L92.82,65.475 Z M105.31,70.845 C100.17,70.845 95.18,69.805 90.49,67.755 L89.39,67.275 L89.609,66.105 C91.38,56.775 98.47,49.245 107.68,46.925 L108.99,46.595 L109.449,47.855 C110.98,52.005 111.76,56.355 111.76,60.805 C111.76,63.695 111.42,66.605 110.74,69.445 L110.5,70.475 L109.449,70.595 C107.9,70.765 106.58,70.845 105.31,70.845 L105.31,70.845 Z M107.51,60.465 C107.51,58.885 106.22,57.595 104.63,57.595 C103.05,57.595 101.76,58.885 101.76,60.465 C101.76,62.055 103.05,63.345 104.63,63.345 C106.22,63.345 107.51,62.055 107.51,60.465 L107.51,60.465 Z M107.029,83.515 L108.25,85.195 L108.939,83.515 L107.029,83.515 L107.029,83.515 Z M122.73,83.515 L123.42,85.195 L124.64,83.515 L122.73,83.515 L122.73,83.515 Z M104.09,80.515 L127.57,80.515 C129.42,80.515 131.08,79.415 131.8,77.715 C132.119,76.945 133,76.595 133.76,76.915 C134.529,77.235 134.88,78.115 134.56,78.885 C133.48,81.445 131.1,83.165 128.38,83.455 L122.689,91.325 L119.48,83.515 L112.18,83.515 L108.97,91.325 L103.279,83.455 C100.56,83.165 98.189,81.445 97.109,78.885 C96.779,78.115 97.14,77.235 97.9,76.915 C98.67,76.595 99.55,76.945 99.869,77.715 C100.59,79.415 102.25,80.515 104.09,80.515 L104.09,80.515 Z M138.789,117.595 C138.07,117.185 137.16,117.445 136.75,118.165 C132.939,124.965 125.75,129.175 117.99,129.175 L113.68,129.175 C105.92,129.175 98.73,124.965 94.91,118.165 C94.51,117.445 93.59,117.185 92.869,117.595 C92.15,118.005 91.89,118.915 92.3,119.635 C96.64,127.375 104.83,132.175 113.68,132.175 L117.99,132.175 C126.83,132.175 135.02,127.375 139.369,119.635 C139.77,118.915 139.52,118.005 138.789,117.595 L138.789,117.595 Z M138.85,65.475 C137.05,58.285 131.619,52.485 124.57,50.215 C123.47,53.625 122.91,57.175 122.91,60.805 C122.91,63.115 123.14,65.435 123.609,67.715 C124.6,67.805 125.49,67.845 126.35,67.845 C130.67,67.845 134.869,67.055 138.85,65.475 L138.85,65.475 Z M142.05,66.105 L142.279,67.275 L141.18,67.755 C136.49,69.805 131.5,70.845 126.35,70.845 C125.08,70.845 123.77,70.765 122.22,70.595 L121.17,70.475 L120.92,69.445 C120.25,66.605 119.91,63.695 119.91,60.805 C119.91,56.355 120.68,52.005 122.21,47.855 L122.68,46.595 L123.99,46.925 C133.189,49.245 140.279,56.775 142.05,66.105 L142.05,66.105 Z M127.029,57.595 C125.439,57.595 124.16,58.885 124.16,60.465 C124.16,62.055 125.439,63.345 127.029,63.345 C128.619,63.345 129.91,62.055 129.91,60.465 C129.91,58.885 128.619,57.595 127.029,57.595 L127.029,57.595 Z M139.49,107.675 C139.49,109.425 139.279,111.155 138.869,112.835 C138.67,113.635 139.16,114.445 139.96,114.645 C140.08,114.675 140.199,114.685 140.32,114.685 C141,114.685 141.609,114.235 141.779,113.545 C142.25,111.635 142.49,109.665 142.49,107.675 C142.49,106.855 141.82,106.175 140.99,106.175 C140.16,106.175 139.49,106.855 139.49,107.675 L139.49,107.675 Z M219.539,50.495 L178.97,29.065 C182.8,38.565 192.88,62.065 204.68,77.215 C204.31,75.575 204.109,73.895 204.109,72.195 C204.109,62.225 210.41,53.655 219.539,50.495 L219.539,50.495 Z M206.66,84.175 C196.34,73.205 187.08,55.085 181.17,41.955 C182.3,50.085 183.21,60.665 182.15,69.525 C180.97,79.365 180.38,86.645 180.77,94.105 C180.91,96.725 181.17,99.365 181.57,102.145 C184.859,92.935 193.07,85.975 202.939,84.485 C204.16,84.295 205.4,84.185 206.66,84.175 L206.66,84.175 Z M179.21,106.325 C178.46,102.045 178.01,98.135 177.81,94.275 C177.39,86.545 177.98,79.025 179.17,69.165 C180.18,60.695 179.279,50.345 178.18,42.355 C178.1,44.715 177.91,47.055 177.59,49.365 C175.27,67.115 166.42,83.375 152.49,95.065 L152.49,103.125 C155.84,101.635 159.49,100.845 163.18,100.845 C169.01,100.845 174.64,102.815 179.21,106.325 L179.21,106.325 Z M178.029,25.185 L217.689,46.125 C214.09,40.655 212.16,34.255 212.16,27.525 C212.16,19.515 215,11.795 220.08,5.715 C204.939,9.265 190.539,15.935 178.029,25.185 L178.029,25.185 Z M149.49,70.675 C149.49,68.235 149.21,65.855 148.68,63.565 C145.689,50.625 134.689,40.715 121.199,39.335 C120.15,39.235 119.07,39.175 117.99,39.175 L113.68,39.175 C96.31,39.175 82.18,53.305 82.18,70.675 L82.18,83.415 C82.47,84.545 84.63,92.225 89.97,92.225 C90.8,92.225 91.47,92.895 91.47,93.725 C91.47,94.545 90.8,95.225 89.97,95.225 C86.359,95.225 83.85,93.085 82.18,90.665 L82.18,107.675 C82.18,125.045 96.31,139.175 113.68,139.175 L117.99,139.175 C118.8,139.175 119.609,139.145 120.41,139.085 C136.65,137.845 149.49,124.235 149.49,107.675 L149.49,90.665 C147.81,93.085 145.31,95.225 141.689,95.225 C140.859,95.225 140.189,94.545 140.189,93.725 C140.189,92.895 140.859,92.225 141.689,92.225 C147.06,92.225 149.199,84.545 149.49,83.415 L149.49,70.675 L149.49,70.675 Z M81.529,58.185 C84.02,51.795 88.359,46.335 93.89,42.445 C87.789,33.025 76.01,28.415 71.859,27.025 C71.42,29.235 71.189,31.475 71.189,33.725 C71.189,42.975 74.93,51.775 81.529,58.185 L81.529,58.185 Z M79.32,26.795 C84.859,29.425 91.939,33.885 96.41,40.825 C97.789,40.025 99.23,39.315 100.72,38.715 C95.23,32.155 87.68,27.975 79.32,26.795 L79.32,26.795 Z M130.939,38.715 C132.439,39.315 133.869,40.025 135.25,40.825 C139.73,33.885 146.8,29.425 152.34,26.795 C143.98,27.975 136.43,32.155 130.939,38.715 L130.939,38.715 Z M137.779,42.445 C143.31,46.335 147.65,51.795 150.14,58.185 C156.73,51.775 160.48,42.975 160.48,33.725 C160.48,31.475 160.25,29.235 159.81,27.025 C155.65,28.415 143.869,33.025 137.779,42.445 L137.779,42.445 Z M79.18,95.065 C64.76,82.965 55.779,65.975 53.85,47.485 C53.67,45.785 53.55,44.075 53.49,42.355 C52.39,50.345 51.48,60.695 52.5,69.165 C53.68,79.035 54.27,86.545 53.859,94.275 C53.67,98.135 53.21,102.045 52.46,106.325 C57.029,102.815 62.66,100.845 68.48,100.845 C72.18,100.845 75.83,101.635 79.18,103.125 L79.18,95.065 L79.18,95.065 Z M50.9,94.105 C51.289,86.645 50.699,79.365 49.52,69.525 C48.46,60.665 49.369,50.085 50.49,41.955 C44.59,55.085 35.32,73.205 25.01,84.175 C25.84,84.185 26.67,84.235 27.48,84.325 C37.9,85.395 46.67,92.545 50.1,102.145 C50.5,99.365 50.76,96.725 50.9,94.105 L50.9,94.105 Z M27.55,72.195 C27.55,73.895 27.35,75.575 26.99,77.215 C38.789,62.065 48.869,38.565 52.699,29.065 L12.119,50.495 C21.26,53.655 27.55,62.225 27.55,72.195 L27.55,72.195 Z M13.97,46.125 L53.63,25.185 C41.13,15.935 26.72,9.265 11.59,5.715 C16.67,11.795 19.51,19.515 19.51,27.525 C19.51,34.255 17.58,40.655 13.97,46.125 L13.97,46.125 Z M211.72,84.975 L214.21,87.965 L210.35,87.415 C209.199,87.245 208.05,87.165 206.92,87.165 C205.71,87.165 204.529,87.255 203.369,87.435 C192.13,89.145 183.3,98.835 183.029,110.485 L182.939,114.225 L180.42,111.465 C176.01,106.625 169.73,103.845 163.18,103.845 C159.449,103.845 155.779,104.755 152.49,106.455 L152.49,107.675 C152.49,119.805 146.199,130.485 136.71,136.635 C137.05,136.935 137.4,137.235 137.72,137.555 C141.57,141.405 143.689,146.525 143.689,151.965 C143.689,157.405 141.57,162.525 137.72,166.375 L137.52,166.575 L141.88,171.895 C142.41,172.535 142.31,173.475 141.67,174.005 C141.4,174.235 141.06,174.345 140.72,174.345 C140.289,174.345 139.859,174.155 139.56,173.795 L135.39,168.705 L133.99,170.095 L144.32,182.725 C144.84,183.375 144.75,184.315 144.109,184.835 C143.83,185.065 143.49,185.175 143.16,185.175 C142.72,185.175 142.289,184.995 141.99,184.625 L131.859,172.235 L130.48,173.605 L134.83,179.075 C135.35,179.725 135.24,180.675 134.59,181.185 C134.31,181.405 133.98,181.515 133.66,181.515 C133.22,181.515 132.779,181.315 132.48,180.945 L126.47,173.385 L135.6,164.255 C142.369,157.475 142.369,146.455 135.6,139.675 C135.08,139.165 134.529,138.695 133.949,138.245 C129.92,140.365 125.42,141.705 120.64,142.065 C119.77,142.145 118.88,142.175 117.99,142.175 L113.68,142.175 C107.92,142.175 102.49,140.755 97.71,138.245 C97.14,138.695 96.58,139.165 96.07,139.675 C89.289,146.455 89.289,157.475 96.07,164.255 L105.199,173.385 L99.18,180.945 C98.89,181.315 98.449,181.515 98.01,181.515 C97.68,181.515 97.35,181.405 97.08,181.185 C96.43,180.675 96.32,179.725 96.84,179.075 L101.18,173.605 L99.8,172.235 L89.67,184.625 C89.369,184.995 88.939,185.175 88.51,185.175 C88.18,185.175 87.84,185.065 87.56,184.835 C86.92,184.315 86.82,183.375 87.35,182.725 L97.67,170.095 L96.279,168.705 L92.1,173.795 C91.81,174.155 91.38,174.345 90.939,174.345 C90.609,174.345 90.27,174.235 89.99,174.005 C89.35,173.475 89.26,172.535 89.779,171.895 L94.15,166.575 L93.949,166.375 C90.1,162.525 87.98,157.405 87.98,151.965 C87.98,146.525 90.1,141.405 93.949,137.555 C94.27,137.235 94.609,136.935 94.96,136.635 C85.47,130.485 79.18,119.805 79.18,107.675 L79.18,106.455 C75.89,104.755 72.21,103.845 68.48,103.845 C61.939,103.845 55.66,106.625 51.25,111.465 L48.73,114.225 L48.64,110.485 C48.35,98.425 38.92,88.485 27.14,87.285 C26.35,87.205 25.55,87.165 24.75,87.165 C23.619,87.165 22.46,87.245 21.31,87.415 L17.46,87.965 L19.949,84.975 C22.92,81.395 24.55,76.855 24.55,72.195 C24.55,62.335 17.49,54.035 7.75,52.465 L4.779,51.985 L6.949,49.895 C13.119,43.995 16.51,36.045 16.51,27.525 C16.51,18.685 12.72,10.245 6.1,4.355 L2.05,0.755 L7.369,1.765 C25.47,5.185 42.75,12.945 57.34,24.215 L58.09,24.785 L57.9,25.705 C56.92,30.395 56.42,35.175 56.42,39.885 C56.42,42.345 56.55,44.775 56.8,47.185 C58.58,64.055 66.49,79.635 79.18,91.085 L79.18,83.625 C79.18,83.625 79.18,83.625 79.18,83.615 L79.18,70.675 C79.18,67.425 79.64,64.285 80.48,61.305 C72.66,54.255 68.189,44.265 68.189,33.725 C68.189,30.705 68.56,27.685 69.279,24.755 L69.539,23.725 L70.59,23.625 C71.84,23.495 73.119,23.425 74.39,23.425 C85.779,23.425 96.65,28.735 103.71,37.655 C106.869,36.695 110.21,36.175 113.68,36.175 L117.99,36.175 C119.17,36.175 120.33,36.235 121.48,36.365 C123.71,36.575 125.869,37.025 127.96,37.655 C135.02,28.735 145.89,23.425 157.279,23.425 C158.539,23.425 159.82,23.495 161.08,23.625 L162.13,23.725 L162.38,24.755 C163.109,27.685 163.48,30.705 163.48,33.725 C163.48,44.265 159,54.255 151.18,61.305 C151.33,61.835 151.47,62.365 151.59,62.905 C152.18,65.405 152.49,68.005 152.49,70.675 L152.49,83.615 L152.49,83.625 L152.49,91.085 C164.72,80.045 172.52,65.165 174.65,48.995 C175.05,45.995 175.25,42.955 175.25,39.885 C175.25,35.175 174.75,30.395 173.77,25.705 L173.58,24.785 L174.32,24.215 C188.91,12.945 206.189,5.185 224.289,1.765 L229.619,0.755 L225.57,4.355 C218.949,10.245 215.16,18.685 215.16,27.525 C215.16,36.045 218.55,43.995 224.71,49.895 L226.89,51.985 L223.92,52.465 C214.18,54.035 207.109,62.335 207.109,72.195 C207.109,76.855 208.75,81.395 211.72,84.975 L211.72,84.975 Z M181.529,168.135 C182.359,168.135 183.029,167.465 183.029,166.635 L183.029,136.475 C183.029,135.645 182.359,134.975 181.529,134.975 C180.699,134.975 180.029,135.645 180.029,136.475 L180.029,166.635 C180.029,167.465 180.699,168.135 181.529,168.135 L181.529,168.135 Z M180.029,178.365 C180.029,179.185 180.699,179.865 181.529,179.865 C182.359,179.865 183.029,179.185 183.029,178.365 L183.029,172.845 C183.029,172.015 182.359,171.345 181.529,171.345 C180.699,171.345 180.029,172.015 180.029,172.845 L180.029,178.365 L180.029,178.365 Z M194.74,161.345 L194.74,125.595 C194.74,124.765 194.07,124.095 193.24,124.095 C192.41,124.095 191.74,124.765 191.74,125.595 L191.74,161.345 C191.74,162.175 192.41,162.845 193.24,162.845 C194.07,162.845 194.74,162.175 194.74,161.345 L194.74,161.345 Z M230.82,216.345 C230.82,217.175 230.15,217.845 229.32,217.845 L220.66,217.845 C219.83,217.845 219.16,217.175 219.16,216.345 C219.16,215.515 219.83,214.845 220.66,214.845 L229.32,214.845 C230.15,214.845 230.82,215.515 230.82,216.345 L230.82,216.345 Z" id="Fill-63" fill="#42384B"></path>
    </g>
</svg>