<?xml version="1.0" encoding="UTF-8" standalone="no"?>
<svg width="227px" height="230px" viewBox="0 0 227 230" version="1.1" xmlns="http://www.w3.org/2000/svg" xmlns:xlink="http://www.w3.org/1999/xlink">
    <!-- Generator: Sketch 39.1 (31720) - http://www.bohemiancoding.com/sketch -->
    <title>Slice 1</title>
    <desc>Created with Sketch.</desc>
    <defs></defs>
    <g id="Page-1" stroke="none" stroke-width="1" fill="none" fill-rule="evenodd">
        <path d="M76.507,100.345 C75.956,100.345 75.507,100.793 75.507,101.345 C75.507,101.897 75.956,102.345 76.507,102.345 L81.837,102.345 C82.389,102.345 82.837,101.897 82.837,101.345 C82.837,100.793 82.389,100.345 81.837,100.345 L76.507,100.345 L76.507,100.345 Z M144.198,100.345 C143.646,100.345 143.198,100.793 143.198,101.345 C143.198,101.897 143.646,102.345 144.198,102.345 L149.528,102.345 C150.08,102.345 150.528,101.897 150.528,101.345 C150.528,100.793 150.08,100.345 149.528,100.345 L144.198,100.345 L144.198,100.345 Z M106.578,125.015 C103.034,125.015 99.661,126.116 96.824,128.2 L78.582,141.54 C78.322,141.73 78.167,142.03 78.167,142.35 L78.167,180.01 C78.167,180.31 78.302,180.6 78.537,180.79 L93.236,192.9 C96.185,195.33 99.917,196.68 103.748,196.68 L122.278,196.68 C126.114,196.68 129.85,195.33 132.799,192.9 L147.5,180.79 C147.724,180.6 147.857,180.31 147.857,180.01 L147.857,142.35 C147.857,142.03 147.706,141.72 147.451,141.54 L129.212,128.2 C126.365,126.116 122.989,125.015 119.448,125.015 L106.578,125.015 L106.578,125.015 Z M87.946,214.68 L69.617,194.42 C65.968,190.38 63.774,185.39 63.269,179.99 C63.202,179.27 63.168,178.5 63.168,177.68 L63.168,118.445 C63.168,112.839 65.091,107.327 68.585,102.924 L69.497,101.783 C74.26,95.785 81.382,92.345 89.038,92.345 L100.507,92.345 L100.507,100.345 L88.877,100.345 C88.326,100.345 87.877,100.793 87.877,101.345 C87.877,101.897 88.326,102.345 88.877,102.345 L100.507,102.345 L100.507,111.345 C100.507,111.897 100.956,112.345 101.507,112.345 C102.059,112.345 102.507,111.897 102.507,111.345 L102.507,70.015 L123.528,70.015 L123.528,74.015 L114.167,74.015 C113.616,74.015 113.167,74.463 113.167,75.015 C113.167,75.567 113.616,76.015 114.167,76.015 L123.528,76.015 L123.528,111.345 C123.528,111.897 123.976,112.345 124.528,112.345 C125.08,112.345 125.528,111.897 125.528,111.345 L125.528,102.345 L137.158,102.345 C137.709,102.345 138.158,101.897 138.158,101.345 C138.158,100.793 137.709,100.345 137.158,100.345 L125.528,100.345 L125.528,92.345 L136.998,92.345 C144.652,92.345 151.774,95.785 156.539,101.784 L157.448,102.922 C160.936,107.32 162.857,112.831 162.857,118.445 L162.857,177.68 C162.857,178.4 162.824,179.15 162.755,179.99 C162.25,185.41 160.055,190.39 156.408,194.42 L138.079,214.68 L87.946,214.68 L87.946,214.68 Z" id="Fill-83" fill="#FACD5D"></path>
        <path d="M107.667,14.845 C106.565,14.845 105.667,15.742 105.667,16.845 L105.667,21.515 C105.667,22.617 106.565,23.515 107.667,23.515 C108.77,23.515 109.667,22.617 109.667,21.515 L109.667,16.845 C109.667,15.742 108.77,14.845 107.667,14.845 L107.667,14.845 Z M118.357,14.845 C117.254,14.845 116.357,15.742 116.357,16.845 L116.357,21.515 C116.357,22.617 117.254,23.515 118.357,23.515 C119.459,23.515 120.357,22.617 120.357,21.515 L120.357,16.845 C120.357,15.742 119.459,14.845 118.357,14.845 L118.357,14.845 Z M113.868,44.015 L113.868,29.675 C113.868,29.123 113.419,28.675 112.868,28.675 C112.316,28.675 111.868,29.123 111.868,29.675 L111.868,44.015 L107.167,44.015 L107.167,29.675 C107.167,29.123 106.719,28.675 106.167,28.675 L97.507,28.675 C94.932,28.675 92.837,26.584 92.837,24.015 C92.837,21.44 94.932,19.345 97.507,19.345 L100.507,19.345 L100.507,20.015 C100.507,20.567 100.956,21.015 101.507,21.015 C102.059,21.015 102.507,20.567 102.507,20.015 L102.507,14.185 C102.507,6.233 107.949,2.577 113.004,2.545 C118.076,2.577 123.528,6.233 123.528,14.185 L123.528,20.015 C123.528,20.567 123.976,21.015 124.528,21.015 C125.08,21.015 125.528,20.567 125.528,20.015 L125.528,19.345 L128.528,19.345 C131.097,19.345 133.187,21.44 133.187,24.015 C133.187,26.584 131.097,28.675 128.528,28.675 L119.857,28.675 C119.305,28.675 118.857,29.123 118.857,29.675 L118.857,44.015 L113.868,44.015 L113.868,44.015 Z M93.837,146.68 C93.286,146.68 92.837,147.12 92.837,147.68 C92.837,148.23 93.286,148.68 93.837,148.68 L132.198,148.68 C132.75,148.68 133.198,148.23 133.198,147.68 C133.198,147.13 132.74,146.68 132.198,146.68 L93.837,146.68 L93.837,146.68 Z M100.677,161.85 C100.125,161.85 99.677,162.29 99.677,162.85 C99.677,163.4 100.125,163.85 100.677,163.85 L125.347,163.85 C125.899,163.85 126.347,163.4 126.347,162.85 C126.347,162.29 125.899,161.85 125.347,161.85 L100.677,161.85 L100.677,161.85 Z M93.837,177.01 C93.286,177.01 92.837,177.46 92.837,178.01 C92.837,178.57 93.286,179.01 93.837,179.01 L132.198,179.01 C132.75,179.01 133.198,178.57 133.198,178.01 C133.198,177.46 132.75,177.01 132.198,177.01 L93.837,177.01 L93.837,177.01 Z M103.748,194.68 C100.375,194.68 97.09,193.5 94.5,191.36 L80.168,179.54 L80.168,142.85 L98.002,129.81 C100.502,127.98 103.468,127.01 106.578,127.01 L119.448,127.01 C122.564,127.01 125.533,127.98 128.033,129.81 L145.857,142.85 L145.857,179.54 L131.526,191.36 C128.935,193.5 125.65,194.68 122.278,194.68 L103.748,194.68 L103.748,194.68 Z" id="Fill-84" fill="#FCF0D4"></path>
        <path d="M90.167,44.015 L105.167,44.015 L105.167,30.675 L90.167,30.675 L90.167,44.015 Z M120.857,44.015 L135.857,44.015 L135.857,30.675 L120.857,30.675 L120.857,44.015 Z M102.507,68.015 L123.528,68.015 L123.528,46.015 L102.507,46.015 L102.507,68.015 Z M75.837,226.85 L150.198,226.85 L150.198,216.68 L75.837,216.68 L75.837,226.85 Z" id="Fill-85" fill="#BCE1E1"></path>
        <path d="M12.007,227.85 C12.007,228.68 11.337,229.35 10.507,229.35 L1.507,229.35 C0.677,229.35 0.007,228.68 0.007,227.85 C0.007,227.01 0.677,226.35 1.507,226.35 L10.507,226.35 C11.337,226.35 12.007,227.01 12.007,227.85 L12.007,227.85 Z M81.837,102.845 L76.507,102.845 C75.677,102.845 75.007,102.175 75.007,101.345 C75.007,100.515 75.677,99.845 76.507,99.845 L81.837,99.845 C82.667,99.845 83.337,100.515 83.337,101.345 C83.337,102.175 82.667,102.845 81.837,102.845 L81.837,102.845 Z M105.167,21.515 L105.167,16.845 C105.167,15.465 106.288,14.345 107.667,14.345 C109.047,14.345 110.167,15.465 110.167,16.845 L110.167,21.515 C110.167,22.895 109.047,24.015 107.667,24.015 C106.288,24.015 105.167,22.895 105.167,21.515 L105.167,21.515 Z M115.857,21.515 L115.857,16.845 C115.857,15.465 116.977,14.345 118.357,14.345 C119.738,14.345 120.857,15.465 120.857,16.845 L120.857,21.515 C120.857,22.895 119.738,24.015 118.357,24.015 C116.977,24.015 115.857,22.895 115.857,21.515 L115.857,21.515 Z M100.677,164.35 C99.857,164.35 99.177,163.68 99.177,162.85 C99.177,162.01 99.857,161.35 100.677,161.35 L125.347,161.35 C126.177,161.35 126.847,162.01 126.847,162.85 C126.847,163.68 126.177,164.35 125.347,164.35 L100.677,164.35 L100.677,164.35 Z M133.698,178.01 C133.698,178.85 133.017,179.51 132.198,179.51 L93.837,179.51 C93.007,179.51 92.337,178.85 92.337,178.01 C92.337,177.18 93.007,176.51 93.837,176.51 L132.198,176.51 C133.017,176.51 133.698,177.18 133.698,178.01 L133.698,178.01 Z M93.837,146.18 L132.198,146.18 C133.017,146.18 133.698,146.85 133.698,147.68 C133.698,148.51 133.017,149.18 132.198,149.18 L93.837,149.18 C93.007,149.18 92.337,148.51 92.337,147.68 C92.337,146.85 93.007,146.18 93.837,146.18 L93.837,146.18 Z M145.357,179.3 L131.208,190.97 C128.698,193.05 125.528,194.18 122.278,194.18 L103.748,194.18 C100.498,194.18 97.328,193.05 94.818,190.97 L80.668,179.3 L80.668,143.1 L98.297,130.22 C100.717,128.44 103.578,127.51 106.578,127.51 L119.448,127.51 C122.448,127.51 125.318,128.44 127.738,130.22 L145.357,143.1 L145.357,179.3 L145.357,179.3 Z M147.748,141.14 L129.507,127.8 C126.568,125.645 123.087,124.515 119.448,124.515 L106.578,124.515 C102.937,124.515 99.457,125.645 96.528,127.8 L78.288,141.14 C77.897,141.42 77.668,141.86 77.668,142.35 L77.668,180.01 C77.668,180.47 77.868,180.89 78.217,181.18 L92.918,193.29 C95.957,195.8 99.807,197.18 103.748,197.18 L122.278,197.18 C126.227,197.18 130.078,195.8 133.118,193.29 L147.818,181.18 C148.158,180.89 148.357,180.47 148.357,180.01 L148.357,142.35 C148.357,141.86 148.127,141.42 147.748,141.14 L147.748,141.14 Z M151.028,101.345 C151.028,102.175 150.357,102.845 149.528,102.845 L144.198,102.845 C143.368,102.845 142.698,102.175 142.698,101.345 C142.698,100.515 143.368,99.845 144.198,99.845 L149.528,99.845 C150.357,99.845 151.028,100.515 151.028,101.345 L151.028,101.345 Z M226.028,227.85 C226.028,228.68 225.357,229.35 224.528,229.35 L215.528,229.35 C214.698,229.35 214.028,228.68 214.028,227.85 C214.028,227.01 214.698,226.35 215.528,226.35 L224.528,226.35 C225.357,226.35 226.028,227.01 226.028,227.85 L226.028,227.85 Z M162.357,118.445 L162.357,177.68 C162.357,178.44 162.318,179.21 162.257,179.94 C161.767,185.19 159.607,190.14 156.038,194.09 L137.857,214.18 L88.168,214.18 L69.988,194.09 C66.427,190.14 64.257,185.19 63.767,179.94 C63.698,179.21 63.668,178.44 63.668,177.68 L63.668,118.445 C63.668,112.945 65.557,107.545 68.977,103.235 L69.887,102.095 C74.557,96.215 81.528,92.845 89.038,92.845 L100.007,92.845 L100.007,99.845 L88.877,99.845 C88.047,99.845 87.377,100.515 87.377,101.345 C87.377,102.175 88.047,102.845 88.877,102.845 L100.007,102.845 L100.007,111.345 C100.007,112.175 100.677,112.845 101.507,112.845 C102.337,112.845 103.007,112.175 103.007,111.345 L103.007,70.515 L123.028,70.515 L123.028,73.515 L114.167,73.515 C113.347,73.515 112.667,74.185 112.667,75.015 C112.667,75.845 113.347,76.515 114.167,76.515 L123.028,76.515 L123.028,111.345 C123.028,112.175 123.698,112.845 124.528,112.845 C125.357,112.845 126.028,112.175 126.028,111.345 L126.028,102.845 L137.158,102.845 C137.988,102.845 138.658,102.175 138.658,101.345 C138.658,100.515 137.988,99.845 137.158,99.845 L126.028,99.845 L126.028,92.845 L136.998,92.845 C144.498,92.845 151.477,96.215 156.147,102.095 L157.057,103.235 C160.477,107.545 162.357,112.945 162.357,118.445 L162.357,118.445 Z M76.337,226.35 L149.698,226.35 L149.698,217.18 L76.337,217.18 L76.337,226.35 Z M90.668,43.515 L104.668,43.515 L104.668,31.175 L90.668,31.175 L90.668,43.515 Z M97.507,19.845 L100.007,19.845 L100.007,20.015 C100.007,20.845 100.677,21.515 101.507,21.515 C102.337,21.515 103.007,20.845 103.007,20.015 L103.007,14.185 C103.007,6.575 108.198,3.075 113.007,3.045 C117.828,3.075 123.028,6.575 123.028,14.185 L123.028,20.015 C123.028,20.845 123.698,21.515 124.528,21.515 C125.357,21.515 126.028,20.845 126.028,20.015 L126.028,19.845 L128.528,19.845 C130.828,19.845 132.687,21.715 132.687,24.015 C132.687,26.305 130.828,28.175 128.528,28.175 L119.857,28.175 C119.028,28.175 118.357,28.855 118.357,29.675 L118.357,43.515 L114.368,43.515 L114.368,29.675 C114.368,28.855 113.698,28.175 112.868,28.175 C112.038,28.175 111.368,28.855 111.368,29.675 L111.368,43.515 L107.667,43.515 L107.667,29.675 C107.667,28.855 106.998,28.175 106.167,28.175 L97.507,28.175 C95.207,28.175 93.337,26.305 93.337,24.015 C93.337,21.715 95.207,19.845 97.507,19.845 L97.507,19.845 Z M103.007,67.515 L123.028,67.515 L123.028,46.515 L103.007,46.515 L103.007,67.515 Z M121.357,43.515 L135.357,43.515 L135.357,31.175 L121.357,31.175 L121.357,43.515 Z M224.528,83.845 L168.528,83.845 C168.038,83.845 167.568,84.085 167.288,84.495 L157.347,98.885 C155.677,97.025 153.778,95.425 151.717,94.115 L164.618,76.515 L205.198,76.515 C206.017,76.515 206.698,75.845 206.698,75.015 C206.698,74.185 206.017,73.515 205.198,73.515 L163.857,73.515 C163.377,73.515 162.927,73.745 162.647,74.125 L149.087,92.635 C145.377,90.825 141.267,89.845 136.998,89.845 L126.028,89.845 L126.028,46.515 L136.857,46.515 C137.687,46.515 138.357,45.845 138.357,45.015 L138.357,29.675 C138.357,28.855 137.687,28.175 136.857,28.175 L134.347,28.175 C135.187,27.005 135.687,25.565 135.687,24.015 C135.687,20.065 132.477,16.845 128.528,16.845 L126.028,16.845 L126.028,14.185 C126.028,4.955 119.488,0.085 113.007,0.045 C106.547,0.085 100.007,4.955 100.007,14.185 L100.007,16.845 L97.507,16.845 C93.557,16.845 90.337,20.065 90.337,24.015 C90.337,25.565 90.837,27.005 91.687,28.175 L89.168,28.175 C88.347,28.175 87.668,28.855 87.668,29.675 L87.668,45.015 C87.668,45.845 88.347,46.515 89.168,46.515 L100.007,46.515 L100.007,89.845 L89.038,89.845 C84.767,89.845 80.647,90.825 76.948,92.635 L63.377,74.125 C63.097,73.745 62.647,73.515 62.168,73.515 L20.837,73.515 C20.007,73.515 19.337,74.185 19.337,75.015 C19.337,75.845 20.007,76.515 20.837,76.515 L61.408,76.515 L74.307,94.115 C72.248,95.425 70.357,97.025 68.677,98.885 L58.738,84.495 C58.458,84.085 57.998,83.845 57.507,83.845 L1.507,83.845 C0.677,83.845 0.007,84.515 0.007,85.345 L0.007,160.85 C0.007,161.68 0.677,162.35 1.507,162.35 C2.337,162.35 3.007,161.68 3.007,160.85 L3.007,86.845 L13.668,86.845 L13.668,137.68 C13.668,138.51 14.347,139.18 15.168,139.18 C15.998,139.18 16.668,138.51 16.668,137.68 L16.668,86.845 L28.007,86.845 L28.007,115.675 C28.007,116.505 28.677,117.175 29.507,117.175 C30.337,117.175 31.007,116.505 31.007,115.675 L31.007,86.845 L56.717,86.845 L66.698,101.285 L66.627,101.375 C62.788,106.205 60.668,112.275 60.668,118.445 L60.668,177.68 C60.668,178.51 60.708,179.34 60.788,180.15 C61.307,186.08 63.748,191.65 67.767,196.1 L84.127,214.18 L74.837,214.18 C74.007,214.18 73.337,214.85 73.337,215.68 L73.337,226.35 L55.677,226.35 L49.587,221.65 C49.047,221.25 48.297,221.25 47.757,221.65 L41.658,226.35 L19.167,226.35 C18.347,226.35 17.667,227.01 17.667,227.85 C17.667,228.68 18.347,229.35 19.167,229.35 L42.168,229.35 C42.507,229.35 42.828,229.23 43.087,229.04 L48.668,224.73 L54.257,229.04 C54.517,229.23 54.837,229.35 55.167,229.35 L206.857,229.35 C207.687,229.35 208.357,228.68 208.357,227.85 C208.357,227.01 207.687,226.35 206.857,226.35 L152.698,226.35 L152.698,215.68 C152.698,214.85 152.017,214.18 151.198,214.18 L141.908,214.18 L158.267,196.1 C162.278,191.65 164.717,186.08 165.238,180.15 C165.318,179.34 165.357,178.51 165.357,177.68 L165.357,118.445 C165.357,112.275 163.248,106.205 159.408,101.375 L159.337,101.285 L169.318,86.845 L195.028,86.845 L195.028,115.675 C195.028,116.505 195.698,117.175 196.528,117.175 C197.357,117.175 198.028,116.505 198.028,115.675 L198.028,86.845 L209.357,86.845 L209.357,137.68 C209.357,138.51 210.028,139.18 210.857,139.18 C211.687,139.18 212.357,138.51 212.357,137.68 L212.357,86.845 L223.028,86.845 L223.028,160.85 C223.028,161.68 223.698,162.35 224.528,162.35 C225.357,162.35 226.028,161.68 226.028,160.85 L226.028,85.345 C226.028,84.515 225.357,83.845 224.528,83.845 L224.528,83.845 Z" id="Fill-86" fill="#42384B"></path>
    </g>
</svg>