<?xml version="1.0" encoding="UTF-8" standalone="no"?>
<svg width="240px" height="226px" viewBox="0 0 240 226" version="1.1" xmlns="http://www.w3.org/2000/svg" xmlns:xlink="http://www.w3.org/1999/xlink">
    <!-- Generator: Sketch 39.1 (31720) - http://www.bohemiancoding.com/sketch -->
    <title>Slice 1</title>
    <desc>Created with Sketch.</desc>
    <defs></defs>
    <g id="Page-1" stroke="none" stroke-width="1" fill="none" fill-rule="evenodd">
        <path d="M105.443,59.004 C104.509,56.912 104.658,55.198 104.947,54.13 L105.065,53.694 L105.511,53.766 C106.176,53.876 106.831,53.965 107.497,54.054 L108.149,54.142 L107.889,54.747 C107.343,56.02 106.834,57.432 106.378,58.945 L105.991,60.23 L105.443,59.004 L105.443,59.004 Z M133.961,58.945 C133.505,57.432 132.997,56.02 132.451,54.747 L132.191,54.142 L132.843,54.054 C133.509,53.965 134.164,53.876 134.829,53.766 L135.275,53.694 L135.393,54.13 C135.682,55.198 135.831,56.912 134.896,59.004 L134.349,60.23 L133.961,58.945 L133.961,58.945 Z" id="Fill-6" fill="#EEDEC1"></path>
        <path d="M89.811,42.258 C85.133,35.615 82.66,27.794 82.66,19.64 C82.66,16.376 83.066,13.125 83.866,9.977 L83.992,9.48 L84.485,9.618 C95.461,12.688 104.558,20.378 109.442,30.717 L109.696,31.254 L109.123,31.412 C108.203,31.665 107.235,31.971 106.247,32.321 L105.826,32.47 L105.63,32.069 C102.667,25.984 98.064,20.9 92.318,17.365 C92.162,17.271 91.98,17.22 91.795,17.22 C91.445,17.22 91.127,17.396 90.946,17.692 C90.649,18.171 90.793,18.778 91.273,19.075 C96.617,22.35 100.925,27.072 103.728,32.728 L103.96,33.197 L103.481,33.407 C102.674,33.762 101.807,34.183 100.832,34.693 L100.38,34.929 L100.153,34.473 C98.646,31.449 96.657,28.737 94.243,26.41 C94.053,26.227 93.806,26.126 93.547,26.126 C93.275,26.126 93.019,26.234 92.826,26.43 C92.642,26.621 92.542,26.876 92.547,27.143 C92.553,27.408 92.662,27.655 92.854,27.838 C95.136,30.049 97.007,32.643 98.419,35.552 L98.617,35.957 L98.233,36.195 C95.461,37.912 92.885,39.973 90.576,42.321 L90.156,42.748 L89.811,42.258 L89.811,42.258 Z M149.764,42.321 C147.455,39.973 144.878,37.912 142.107,36.195 L141.723,35.957 L141.92,35.552 C143.333,32.643 145.204,30.049 147.482,27.841 C147.678,27.655 147.787,27.408 147.792,27.143 C147.798,26.876 147.698,26.621 147.51,26.427 C147.321,26.234 147.065,26.126 146.793,26.126 C146.534,26.126 146.287,26.227 146.098,26.409 C143.683,28.737 141.694,31.449 140.187,34.473 L139.96,34.929 L139.508,34.693 C138.533,34.183 137.666,33.762 136.859,33.407 L136.379,33.197 L136.612,32.728 C139.415,27.072 143.723,22.35 149.069,19.073 C149.546,18.778 149.69,18.171 149.395,17.693 C149.212,17.396 148.895,17.22 148.544,17.22 C148.36,17.22 148.178,17.271 148.019,17.367 C142.276,20.9 137.672,25.984 134.709,32.069 L134.514,32.47 L134.093,32.321 C133.104,31.971 132.137,31.665 131.217,31.412 L130.644,31.254 L130.898,30.717 C135.782,20.378 144.878,12.688 155.855,9.618 L156.348,9.48 L156.474,9.977 C157.274,13.125 157.68,16.376 157.68,19.64 C157.68,27.794 155.207,35.615 150.529,42.258 L150.184,42.748 L149.764,42.321 L149.764,42.321 Z" id="Fill-7" fill="#D58F82"></path>
        <path d="M104.321,45.16 L104.34,44.757 C104.474,41.904 106.815,39.67 109.67,39.67 C111.536,39.67 113.236,40.635 114.217,42.251 L114.774,43.168 L113.714,43.004 C113.609,42.988 113.504,42.97 113.4,42.97 C112.055,42.97 110.96,44.065 110.96,45.41 C110.96,45.653 111.004,45.899 111.091,46.141 L111.411,47.036 L104.321,45.16 L104.321,45.16 Z M129.249,46.141 C129.336,45.899 129.38,45.653 129.38,45.41 C129.38,44.065 128.285,42.97 126.94,42.97 C126.835,42.97 126.73,42.988 126.626,43.004 L125.565,43.168 L126.123,42.251 C127.104,40.635 128.804,39.67 130.67,39.67 C133.524,39.67 135.866,41.904 136,44.757 L136.019,45.16 L128.929,47.036 L129.249,46.141 L129.249,46.141 Z M120.17,110.93 C115.886,110.93 112.4,107.444 112.4,103.16 C112.4,98.876 115.886,95.39 120.17,95.39 C124.454,95.39 127.94,98.876 127.94,103.16 C127.94,107.444 124.454,110.93 120.17,110.93 L120.17,110.93 Z" id="Fill-8" fill="#F1BB31"></path>
        <path d="M147.29,114.117 C143.6,106.476 136.856,100.715 128.787,98.309 L128.603,98.254 L128.502,98.09 C126.713,95.147 123.598,93.39 120.17,93.39 C116.742,93.39 113.627,95.147 111.837,98.09 L111.737,98.254 L111.553,98.309 C103.484,100.715 96.74,106.476 93.05,114.117 L92.103,113.852 C92.397,110.786 92.847,107.748 93.439,104.821 C95.268,95.84 98.528,87.27 103.127,79.349 L103.296,79.059 L103.628,79.105 C109.123,79.858 114.688,80.24 120.17,80.24 C123.842,80.24 127.538,80.069 131.153,79.732 C132.828,79.589 134.646,79.384 136.713,79.104 L137.044,79.06 L137.212,79.349 C141.812,87.27 145.072,95.84 146.9,104.82 C147.493,107.748 147.943,110.786 148.237,113.852 L147.29,114.117" id="Fill-9" fill="#F5E393"></path>
        <path d="M109.67,37.67 C105.628,37.67 102.34,40.958 102.34,45 C102.34,45.339 102.367,45.692 102.425,46.112 C102.484,46.498 102.771,46.817 103.155,46.916 L114.368,49.897 C114.449,49.921 114.525,49.93 114.63,49.93 C114.937,49.93 115.227,49.793 115.405,49.563 C116.45,48.257 117,46.681 117,45 C117,40.958 113.712,37.67 109.67,37.67 L109.67,37.67 Z M130.67,37.67 C126.628,37.67 123.34,40.958 123.34,45 C123.34,46.681 123.89,48.257 124.931,49.557 C125.113,49.793 125.403,49.93 125.71,49.93 C125.815,49.93 125.891,49.921 125.955,49.902 L137.182,46.917 C137.568,46.817 137.855,46.498 137.916,46.104 C137.973,45.692 138,45.339 138,45 C138,40.958 134.712,37.67 130.67,37.67 L130.67,37.67 Z M101.175,50.958 C100.708,50.958 100.297,51.297 100.199,51.762 C100.145,52.023 100.195,52.289 100.34,52.51 C100.486,52.733 100.711,52.885 100.973,52.941 C101.423,53.034 101.882,53.12 102.336,53.206 L103.077,53.346 L102.956,53.855 C102.536,55.626 102.34,59.18 105.747,63.091 L107.074,64.612 L107.48,62.639 C107.488,62.598 108.348,58.441 110.097,54.708 L110.248,54.386 L110.601,54.422 C113.728,54.746 116.948,54.91 120.17,54.91 C123.392,54.91 126.612,54.746 129.739,54.422 L130.093,54.385 L130.243,54.708 C131.968,58.402 132.852,62.599 132.86,62.64 L133.266,64.612 L134.593,63.091 C138,59.18 137.804,55.626 137.384,53.855 L137.263,53.346 L138.003,53.206 C138.458,53.12 138.917,53.034 139.368,52.94 C139.629,52.885 139.854,52.733 140,52.51 C140.145,52.289 140.195,52.023 140.141,51.762 C140.043,51.298 139.628,50.961 139.154,50.961 C139.089,50.961 139.023,50.968 138.957,50.981 C132.852,52.256 126.529,52.903 120.17,52.903 C113.811,52.903 107.488,52.256 101.378,50.979 C101.311,50.966 101.243,50.958 101.175,50.958 L101.175,50.958 Z M120.17,78.24 C114.374,78.24 108.593,77.821 102.987,76.994 L102.95,76.994 L102.847,76.974 C93.642,75.612 84.59,73.132 75.941,69.603 L75.559,69.447 L75.64,69.042 C77.113,61.656 79.701,54.536 83.331,47.881 L83.547,47.485 L83.963,47.658 C87.57,49.169 91.234,50.444 94.854,51.448 C94.948,51.475 95.04,51.489 95.132,51.489 C95.577,51.489 95.969,51.188 96.088,50.758 C96.235,50.227 95.923,49.673 95.392,49.52 C93.415,48.974 91.411,48.338 89.441,47.631 L88.784,47.395 L89.219,46.848 C95.028,39.549 103.254,34.513 112.381,32.67 C114.929,32.152 117.549,31.89 120.17,31.89 C132.102,31.89 143.672,37.482 151.121,46.849 L151.556,47.395 L150.899,47.631 C148.929,48.338 146.925,48.974 144.943,49.522 C144.417,49.673 144.104,50.227 144.251,50.756 C144.371,51.188 144.763,51.489 145.208,51.489 C145.3,51.489 145.392,51.475 145.482,51.449 C149.105,50.444 152.77,49.169 156.377,47.658 L156.793,47.485 L157.009,47.881 C160.639,54.536 163.227,61.656 164.7,69.042 L164.781,69.447 L164.399,69.603 C155.75,73.132 146.698,75.612 137.493,76.974 L137.305,76.495 L137.375,76.99 C135.302,77.296 133.15,77.552 130.957,77.758 C127.405,78.078 123.776,78.24 120.17,78.24 L120.17,78.24 Z M3.38,90.146 C3.55,70.43 10.411,51.079 22.699,35.658 L23.2,35.029 L23.542,35.757 C25.875,40.719 28.528,45.517 31.43,50.019 L31.67,50.392 L31.329,50.675 C18.721,61.105 9.394,74.809 4.355,90.305 L3.38,90.146 L3.38,90.146 Z M235.984,90.305 C230.946,74.809 221.619,61.105 209.011,50.675 L208.669,50.392 L208.91,50.019 C211.812,45.517 214.465,40.719 216.797,35.757 L217.14,35.029 L217.641,35.658 C229.929,51.079 236.79,70.43 236.96,90.146 L235.984,90.305 L235.984,90.305 Z M34.071,100.625 C34.006,100.41 33.931,100.195 33.847,99.989 C31.273,92.991 24.562,88.3 17.14,88.3 C13.521,88.3 10.033,89.383 7.053,91.432 L5.838,92.267 L6.294,90.865 C11.181,75.853 20.194,62.561 32.36,52.426 L32.783,52.073 L33.093,52.529 C34.379,54.42 35.609,56.119 36.855,57.723 C41.312,63.596 46.323,69.016 51.752,73.836 L52.133,74.175 L51.787,74.549 C44.774,82.135 38.974,91.168 35.011,100.672 L34.476,101.957 L34.071,100.625 L34.071,100.625 Z M205.329,100.672 C201.366,91.168 195.565,82.135 188.553,74.549 L188.207,74.175 L188.588,73.836 C194.003,69.028 199.015,63.612 203.482,57.737 C204.796,56.032 206.062,54.281 207.246,52.53 L207.556,52.072 L207.98,52.426 C220.146,62.561 229.159,75.853 234.045,90.865 L234.502,92.267 L233.287,91.432 C230.307,89.383 226.819,88.3 223.2,88.3 C215.778,88.3 209.066,92.991 206.499,99.972 C206.409,100.195 206.334,100.41 206.269,100.625 L205.864,101.957 L205.329,100.672 L205.329,100.672 Z M66.604,106.866 C66.418,106.455 66.223,106.064 66.017,105.672 C62.757,99.615 56.477,95.85 49.63,95.85 C45.716,95.85 41.975,97.045 38.811,99.307 L37.281,100.4 L38.065,98.692 C41.928,90.278 47.061,82.586 53.323,75.83 L53.647,75.48 L54.012,75.787 C60.282,81.064 67.121,85.602 74.336,89.274 L74.822,89.522 L74.534,89.984 C73.323,91.93 72.226,93.958 71.273,96.01 C69.656,99.475 68.402,103.096 67.547,106.773 L67.213,108.211 L66.604,106.866 L66.604,106.866 Z M172.793,106.773 C171.938,103.096 170.684,99.475 169.067,96.011 C168.114,93.958 167.017,91.93 165.806,89.984 L165.518,89.522 L166.003,89.274 C173.219,85.602 180.058,81.064 186.328,75.787 L186.693,75.48 L187.017,75.83 C193.279,82.586 198.412,90.278 202.274,98.692 L203.06,100.404 L201.529,99.306 C199.351,97.746 196.907,96.698 194.266,96.191 C193.094,95.965 191.898,95.85 190.71,95.85 C183.403,95.85 176.74,100.174 173.736,106.864 L173.128,108.217 L172.793,106.773 L172.793,106.773 Z M170.145,108.222 C167.559,105.764 164.198,104.264 160.682,103.998 C160.277,103.959 159.883,103.94 159.48,103.94 C156.142,103.94 152.815,105.072 150.113,107.128 L149.461,107.624 L149.318,106.817 C149.179,106.033 149.03,105.249 148.861,104.465 C148.369,102.031 147.76,99.579 147.05,97.171 L146.907,96.687 L147.394,96.549 C152.859,95.002 158.212,92.996 163.306,90.588 L163.707,90.398 L163.943,90.774 C165.214,92.795 166.331,94.839 167.264,96.849 C168.898,100.363 170.148,104.031 170.978,107.751 L171.335,109.353 L170.145,108.222 L170.145,108.222 Z M69.362,107.751 C70.191,104.031 71.441,100.363 73.077,96.849 C74.009,94.839 75.125,92.795 76.396,90.774 L76.633,90.398 L77.034,90.588 C82.127,92.996 87.481,95.002 92.946,96.549 L93.433,96.687 L93.29,97.171 C92.58,99.579 91.971,102.031 91.48,104.459 C91.31,105.249 91.161,106.033 91.022,106.817 L90.879,107.624 L90.227,107.128 C87.525,105.072 84.198,103.94 80.86,103.94 C76.883,103.94 73.096,105.461 70.195,108.222 L69.004,109.356 L69.362,107.751 L69.362,107.751 Z M119.836,184.622 C103.416,169.906 93.513,149.692 91.951,127.705 L91.943,127.596 L91.982,127.494 C92.021,127.389 92.04,127.28 92.04,127.16 C92.04,122.887 92.996,118.756 94.88,114.881 C97.984,108.518 103.306,103.591 109.866,101.005 L110.685,100.682 L110.543,101.55 C110.447,102.141 110.4,102.667 110.4,103.16 C110.4,108.547 114.783,112.93 120.17,112.93 C125.557,112.93 129.94,108.547 129.94,103.16 C129.94,102.667 129.893,102.141 129.796,101.55 L129.655,100.682 L130.474,101.005 C137.034,103.591 142.356,108.518 145.459,114.881 C147.344,118.756 148.3,122.887 148.3,127.16 C148.3,127.28 148.319,127.389 148.358,127.494 L148.396,127.596 L148.389,127.705 C146.827,149.692 136.924,169.906 120.503,184.622 L120.17,184.921 L119.836,184.622 L119.836,184.622 Z" id="Fill-10" fill="#9A6E56"></path>
        <path d="M12.61,1.83 C12.48,1.01 13.04,0.24 13.86,0.11 C14.67,-0.02 15.45,0.54 15.58,1.36 C15.99,3.96 16.49,6.59 17.07,9.16 C17.25,9.96 16.74,10.77 15.93,10.95 C15.82,10.97 15.71,10.98 15.6,10.98 C14.91,10.98 14.29,10.51 14.14,9.81 C13.55,7.18 13.04,4.49 12.61,1.83 L12.61,1.83 Z M35.44,224.16 C35.44,224.99 34.77,225.66 33.94,225.66 L28.67,225.66 C27.84,225.66 27.17,224.99 27.17,224.16 C27.17,223.33 27.84,222.66 28.67,222.66 L33.94,222.66 C34.77,222.66 35.44,223.33 35.44,224.16 L35.44,224.16 Z M56.67,123.11 L56.67,116.86 C56.67,116.03 57.34,115.36 58.17,115.36 C59,115.36 59.67,116.03 59.67,116.86 L59.67,123.11 C59.67,123.94 59,124.61 58.17,124.61 C57.34,124.61 56.67,123.94 56.67,123.11 L56.67,123.11 Z M56.67,128.66 C56.67,127.83 57.34,127.16 58.17,127.16 C59,127.16 59.67,127.83 59.67,128.66 L59.67,147.36 C59.67,148.19 59,148.86 58.17,148.86 C57.34,148.86 56.67,148.19 56.67,147.36 L56.67,128.66 L56.67,128.66 Z M62.92,224.16 C62.92,224.99 62.25,225.66 61.42,225.66 L43.8,225.66 C42.98,225.66 42.3,224.99 42.3,224.16 C42.3,223.33 42.98,222.66 43.8,222.66 L61.42,222.66 C62.25,222.66 62.92,223.33 62.92,224.16 L62.92,224.16 Z M68.8,128.66 L68.8,147.36 C68.8,148.19 68.13,148.86 67.3,148.86 C66.47,148.86 65.8,148.19 65.8,147.36 L65.8,128.66 C65.8,127.83 66.47,127.16 67.3,127.16 C68.13,127.16 68.8,127.83 68.8,128.66 L68.8,128.66 Z M68.8,152.91 L68.8,159.16 C68.8,159.99 68.13,160.66 67.3,160.66 C66.47,160.66 65.8,159.99 65.8,159.16 L65.8,152.91 C65.8,152.08 66.47,151.41 67.3,151.41 C68.13,151.41 68.8,152.08 68.8,152.91 L68.8,152.91 Z M98.34,181.16 L98.34,183.83 L101,183.83 C101.83,183.83 102.5,184.5 102.5,185.33 C102.5,186.16 101.83,186.83 101,186.83 L98.34,186.83 L98.34,189.49 C98.34,190.32 97.67,190.99 96.84,190.99 C96.01,190.99 95.34,190.32 95.34,189.49 L95.34,186.83 L92.67,186.83 C91.84,186.83 91.17,186.16 91.17,185.33 C91.17,184.5 91.84,183.83 92.67,183.83 L95.34,183.83 L95.34,181.16 C95.34,180.33 96.01,179.66 96.84,179.66 C97.67,179.66 98.34,180.33 98.34,181.16 L98.34,181.16 Z M109.67,40.17 C111.42,40.17 112.94,41.11 113.79,42.51 C113.66,42.49 113.53,42.47 113.4,42.47 C111.78,42.47 110.46,43.78 110.46,45.41 C110.46,45.73 110.52,46.03 110.62,46.31 L104.84,44.78 C104.96,42.22 107.08,40.17 109.67,40.17 L109.67,40.17 Z M103.03,47.4 L114.24,50.38 C114.37,50.42 114.5,50.43 114.63,50.43 C115.08,50.43 115.52,50.23 115.8,49.87 C116.92,48.47 117.5,46.78 117.5,45 C117.5,40.68 113.99,37.17 109.67,37.17 C105.35,37.17 101.84,40.68 101.84,45 C101.84,45.37 101.87,45.75 101.93,46.18 C102.02,46.77 102.45,47.25 103.03,47.4 L103.03,47.4 Z M105.43,54.26 C106.1,54.37 106.76,54.46 107.43,54.55 C106.79,56.04 106.28,57.54 105.9,58.8 C104.98,56.74 105.2,55.11 105.43,54.26 L105.43,54.26 Z M134.91,54.26 C135.14,55.11 135.36,56.74 134.44,58.8 C134.06,57.54 133.55,56.04 132.91,54.55 C133.58,54.46 134.24,54.37 134.91,54.26 L134.91,54.26 Z M105.37,63.42 L107.36,65.7 L107.97,62.74 C107.98,62.69 108.84,58.57 110.55,54.92 C113.74,55.25 116.95,55.41 120.17,55.41 C123.39,55.41 126.6,55.25 129.79,54.92 C131.49,58.56 132.36,62.69 132.37,62.74 L132.98,65.7 L134.97,63.42 C138.48,59.39 138.34,55.72 137.87,53.74 C138.4,53.64 138.94,53.54 139.47,53.43 C140.28,53.26 140.8,52.47 140.63,51.66 C140.46,50.85 139.67,50.33 138.86,50.49 C126.65,53.04 113.69,53.04 101.48,50.49 C100.67,50.32 99.88,50.85 99.71,51.66 C99.54,52.47 100.06,53.26 100.87,53.43 C101.4,53.54 101.94,53.64 102.47,53.74 C102,55.72 101.86,59.39 105.37,63.42 L105.37,63.42 Z M117.17,207.42 C117.17,205.77 118.52,204.42 120.17,204.42 C121.82,204.42 123.17,205.77 123.17,207.42 C123.17,209.08 121.82,210.42 120.17,210.42 C118.52,210.42 117.17,209.08 117.17,207.42 L117.17,207.42 Z M126.17,207.42 C126.17,204.11 123.48,201.42 120.17,201.42 C116.86,201.42 114.17,204.11 114.17,207.42 C114.17,210.73 116.86,213.42 120.17,213.42 C123.48,213.42 126.17,210.73 126.17,207.42 L126.17,207.42 Z M165.73,224.16 C165.73,224.99 165.06,225.66 164.23,225.66 L146.29,225.66 L146.08,224.41 C145.6,221.51 143.11,219.41 140.17,219.41 C137.23,219.41 134.74,221.51 134.26,224.41 L134.05,225.66 L76.11,225.66 C75.28,225.66 74.61,224.99 74.61,224.16 C74.61,223.33 75.28,222.66 76.11,222.66 L131.6,222.66 C132.77,218.97 136.19,216.41 140.17,216.41 C144.15,216.41 147.57,218.97 148.74,222.66 L164.23,222.66 C165.06,222.66 165.73,223.33 165.73,224.16 L165.73,224.16 Z M130.67,40.17 C133.26,40.17 135.38,42.22 135.5,44.78 L129.72,46.31 C129.82,46.03 129.88,45.73 129.88,45.41 C129.88,43.78 128.56,42.47 126.94,42.47 C126.81,42.47 126.68,42.49 126.55,42.51 C127.4,41.11 128.92,40.17 130.67,40.17 L130.67,40.17 Z M125.71,50.43 C125.84,50.43 125.97,50.42 126.1,50.38 L137.31,47.4 C137.89,47.25 138.32,46.77 138.41,46.18 C138.47,45.75 138.5,45.37 138.5,45 C138.5,40.68 134.99,37.17 130.67,37.17 C126.35,37.17 122.84,40.68 122.84,45 C122.84,46.78 123.42,48.47 124.54,49.87 C124.82,50.23 125.26,50.43 125.71,50.43 L125.71,50.43 Z M138.78,193.05 L140.66,191.16 L138.78,189.27 C138.19,188.69 138.19,187.74 138.78,187.15 C139.36,186.57 140.31,186.57 140.9,187.15 L142.78,189.04 L144.67,187.15 C145.25,186.57 146.2,186.57 146.79,187.15 C147.38,187.74 147.38,188.69 146.79,189.27 L144.9,191.16 L146.79,193.05 C147.38,193.63 147.38,194.58 146.79,195.17 C146.5,195.46 146.11,195.61 145.73,195.61 C145.35,195.61 144.96,195.46 144.67,195.17 L142.78,193.28 L140.9,195.17 C140.6,195.46 140.22,195.61 139.84,195.61 C139.45,195.61 139.07,195.46 138.78,195.17 C138.19,194.58 138.19,193.63 138.78,193.05 L138.78,193.05 Z M174.54,128.66 L174.54,147.36 C174.54,148.19 173.87,148.86 173.04,148.86 C172.21,148.86 171.54,148.19 171.54,147.36 L171.54,128.66 C171.54,127.83 172.21,127.16 173.04,127.16 C173.87,127.16 174.54,127.83 174.54,128.66 L174.54,128.66 Z M174.54,152.91 L174.54,159.16 C174.54,159.99 173.87,160.66 173.04,160.66 C172.21,160.66 171.54,159.99 171.54,159.16 L171.54,152.91 C171.54,152.08 172.21,151.41 173.04,151.41 C173.87,151.41 174.54,152.08 174.54,152.91 L174.54,152.91 Z M180.67,123.11 L180.67,116.86 C180.67,116.03 181.34,115.36 182.17,115.36 C183,115.36 183.67,116.03 183.67,116.86 L183.67,123.11 C183.67,123.94 183,124.61 182.17,124.61 C181.34,124.61 180.67,123.94 180.67,123.11 L180.67,123.11 Z M180.67,128.66 C180.67,127.83 181.34,127.16 182.17,127.16 C183,127.16 183.67,127.83 183.67,128.66 L183.67,147.36 C183.67,148.19 183,148.86 182.17,148.86 C181.34,148.86 180.67,148.19 180.67,147.36 L180.67,128.66 L180.67,128.66 Z M198.04,224.16 C198.04,224.99 197.36,225.66 196.54,225.66 L178.92,225.66 C178.09,225.66 177.42,224.99 177.42,224.16 C177.42,223.33 178.09,222.66 178.92,222.66 L196.54,222.66 C197.36,222.66 198.04,223.33 198.04,224.16 L198.04,224.16 Z M213.17,224.16 C213.17,224.99 212.5,225.66 211.67,225.66 L206.4,225.66 C205.57,225.66 204.9,224.99 204.9,224.16 C204.9,223.33 205.57,222.66 206.4,222.66 L211.67,222.66 C212.5,222.66 213.17,223.33 213.17,224.16 L213.17,224.16 Z M223.27,9.16 C223.85,6.59 224.35,3.96 224.76,1.36 C224.89,0.54 225.66,-0.02 226.48,0.11 C227.3,0.24 227.86,1.01 227.73,1.83 C227.3,4.49 226.79,7.18 226.2,9.81 C226.05,10.51 225.43,10.98 224.74,10.98 C224.63,10.98 224.52,10.97 224.41,10.95 C223.6,10.77 223.09,9.96 223.27,9.16 L223.27,9.16 Z M209.33,50.29 C212.25,45.76 214.9,40.97 217.25,35.97 C229.49,51.33 236.29,70.45 236.46,90.15 C231.42,74.65 222.01,60.78 209.33,50.29 L209.33,50.29 Z M223.2,87.8 C215.32,87.8 208.6,92.81 206.03,99.8 C205.94,100.02 205.86,100.25 205.79,100.48 C201.78,90.86 196.02,81.89 188.92,74.21 C194.36,69.38 199.37,63.97 203.88,58.04 C205.19,56.34 206.45,54.6 207.66,52.81 C219.76,62.89 228.74,76.18 233.57,91.02 C230.56,88.95 226.96,87.8 223.2,87.8 L223.2,87.8 Z M194.36,95.7 C193.17,95.47 191.95,95.35 190.71,95.35 C182.95,95.35 176.27,100 173.28,106.66 C172.41,102.92 171.14,99.27 169.52,95.8 C168.55,93.71 167.45,91.68 166.23,89.72 C173.5,86.02 180.34,81.48 186.65,76.17 C192.86,82.87 198.01,90.6 201.82,98.9 C199.6,97.31 197.07,96.22 194.36,95.7 L194.36,95.7 Z M160.72,103.5 C160.31,103.46 159.9,103.44 159.48,103.44 C155.96,103.44 152.57,104.63 149.81,106.73 C149.67,105.94 149.52,105.15 149.35,104.36 C148.85,101.89 148.24,99.44 147.53,97.03 C153.04,95.47 158.38,93.47 163.52,91.04 C164.74,92.98 165.85,94.99 166.81,97.06 C168.42,100.52 169.66,104.14 170.49,107.86 C167.87,105.37 164.43,103.78 160.72,103.5 L160.72,103.5 Z M120.17,184.25 C103.88,169.65 93.99,149.35 92.45,127.67 C92.51,127.51 92.54,127.34 92.54,127.16 C92.54,122.88 93.54,118.78 95.33,115.1 C98.32,108.97 103.53,104.04 110.05,101.47 C109.96,102.02 109.9,102.58 109.9,103.16 C109.9,108.82 114.51,113.43 120.17,113.43 C125.83,113.43 130.44,108.82 130.44,103.16 C130.44,102.58 130.38,102.02 130.29,101.47 C136.81,104.04 142.02,108.97 145.01,115.1 C146.8,118.78 147.8,122.88 147.8,127.16 C147.8,127.34 147.83,127.51 147.89,127.67 C146.35,149.35 136.46,169.65 120.17,184.25 L120.17,184.25 Z M90.53,106.73 C87.77,104.63 84.38,103.44 80.86,103.44 C76.68,103.44 72.76,105.09 69.85,107.86 C70.68,104.14 71.92,100.52 73.53,97.06 C74.49,94.99 75.6,92.98 76.82,91.04 C81.96,93.47 87.3,95.47 92.81,97.03 C92.1,99.44 91.49,101.89 90.99,104.36 C90.82,105.15 90.67,105.94 90.53,106.73 L90.53,106.73 Z M67.06,106.66 C66.87,106.24 66.67,105.84 66.46,105.44 C63.23,99.44 56.91,95.35 49.63,95.35 C45.56,95.35 41.71,96.62 38.52,98.9 C42.33,90.6 47.48,82.87 53.69,76.17 C60,81.48 66.84,86.02 74.11,89.72 C72.89,91.68 71.79,93.71 70.82,95.8 C69.2,99.27 67.93,102.92 67.06,106.66 L67.06,106.66 Z M34.55,100.48 C34.48,100.25 34.4,100.02 34.31,99.8 C31.74,92.81 25.02,87.8 17.14,87.8 C13.38,87.8 9.78,88.95 6.77,91.02 C11.6,76.18 20.58,62.89 32.68,52.81 C33.89,54.59 35.14,56.33 36.46,58.03 C40.96,63.96 45.98,69.38 51.42,74.21 C44.32,81.89 38.56,90.86 34.55,100.48 L34.55,100.48 Z M3.88,90.15 C4.05,70.45 10.85,51.33 23.09,35.97 C25.44,40.97 28.09,45.76 31.01,50.29 C18.33,60.78 8.92,74.65 3.88,90.15 L3.88,90.15 Z M127.44,103.16 C127.44,107.17 124.18,110.43 120.17,110.43 C116.16,110.43 112.9,107.17 112.9,103.16 C112.9,99.15 116.16,95.89 120.17,95.89 C124.18,95.89 127.44,99.15 127.44,103.16 L127.44,103.16 Z M103.56,79.6 C109.03,80.35 114.57,80.74 120.17,80.74 C123.87,80.74 127.55,80.57 131.2,80.23 C133.07,80.07 134.93,79.85 136.78,79.6 C141.35,87.47 144.6,96.03 146.41,104.92 C147.01,107.88 147.45,110.88 147.74,113.9 C144.07,106.3 137.35,100.34 128.93,97.83 C127.13,94.87 123.88,92.89 120.17,92.89 C116.46,92.89 113.21,94.87 111.41,97.83 C102.99,100.34 96.27,106.3 92.6,113.9 C92.89,110.88 93.33,107.88 93.93,104.92 C95.74,96.03 98.99,87.47 103.56,79.6 L103.56,79.6 Z M76.13,69.14 C77.6,61.77 80.17,54.72 83.77,48.12 C87.33,49.61 91.01,50.9 94.72,51.93 C95.52,52.16 96.35,51.69 96.57,50.89 C96.79,50.1 96.33,49.27 95.53,49.04 C93.54,48.49 91.56,47.86 89.61,47.16 C95.38,39.91 103.52,34.97 112.48,33.16 C114.99,32.65 117.56,32.39 120.17,32.39 C132.08,32.39 143.35,37.88 150.73,47.16 C148.78,47.86 146.8,48.49 144.81,49.04 C144.01,49.27 143.55,50.1 143.77,50.89 C143.99,51.69 144.82,52.16 145.62,51.93 C149.33,50.9 153.01,49.61 156.57,48.12 C160.17,54.72 162.74,61.77 164.21,69.14 C155.56,72.67 146.61,75.12 137.42,76.48 C137.37,76.48 137.33,76.49 137.28,76.5 C135.17,76.81 133.05,77.06 130.91,77.26 C127.36,77.58 123.78,77.74 120.17,77.74 C114.4,77.74 108.69,77.33 103.06,76.5 C103.01,76.49 102.97,76.48 102.92,76.48 C93.73,75.12 84.78,72.67 76.13,69.14 L76.13,69.14 Z M83.16,19.64 C83.16,16.42 83.56,13.21 84.35,10.1 C95.15,13.12 104.19,20.77 108.99,30.93 C108.01,31.2 107.04,31.51 106.08,31.85 C103.08,25.69 98.45,20.55 92.58,16.94 C91.87,16.51 90.95,16.73 90.52,17.43 C90.08,18.14 90.3,19.06 91.01,19.5 C96.33,22.76 100.53,27.4 103.28,32.95 C102.37,33.35 101.48,33.79 100.6,34.25 C99.08,31.2 97.07,28.44 94.59,26.05 C93.99,25.47 93.05,25.49 92.47,26.08 C91.89,26.68 91.91,27.63 92.51,28.2 C94.78,30.4 96.6,32.95 97.97,35.77 C95.16,37.51 92.56,39.59 90.22,41.97 C85.6,35.41 83.16,27.73 83.16,19.64 L83.16,19.64 Z M155.99,10.1 C156.78,13.21 157.18,16.42 157.18,19.64 C157.18,27.73 154.74,35.41 150.12,41.97 C147.78,39.59 145.18,37.51 142.37,35.77 C143.74,32.95 145.56,30.4 147.83,28.2 C148.43,27.63 148.45,26.68 147.87,26.08 C147.29,25.49 146.35,25.47 145.75,26.05 C143.27,28.44 141.26,31.2 139.74,34.25 C138.86,33.79 137.97,33.35 137.06,32.95 C139.81,27.4 144.01,22.76 149.33,19.5 C150.04,19.06 150.26,18.14 149.82,17.43 C149.39,16.73 148.47,16.51 147.76,16.94 C141.89,20.55 137.26,25.69 134.26,31.85 C133.3,31.51 132.33,31.2 131.35,30.93 C136.15,20.77 145.19,13.12 155.99,10.1 L155.99,10.1 Z M218.64,32.91 C220.42,28.83 222.02,24.62 223.36,20.37 C223.61,19.58 223.17,18.73 222.38,18.48 C221.59,18.23 220.75,18.67 220.5,19.46 C219.1,23.91 217.43,28.3 215.54,32.53 C212.85,38.54 209.73,44.23 206.22,49.57 C206.2,49.59 206.17,49.61 206.15,49.64 C206.07,49.74 206.01,49.84 205.96,49.95 C204.53,52.11 203.04,54.21 201.49,56.25 C196.82,62.35 191.63,67.9 185.97,72.8 C185.87,72.86 185.77,72.9 185.69,72.98 C185.64,73.02 185.62,73.08 185.58,73.13 C174.2,82.91 160.99,90.12 146.63,94.17 C144.89,88.96 142.66,83.92 139.96,79.11 C149.05,77.6 157.93,75.04 166.49,71.44 C167.14,71.16 167.51,70.48 167.39,69.78 C165.82,61.22 162.84,53.04 158.53,45.47 C158.15,44.8 157.33,44.53 156.63,44.83 C155.65,45.26 154.66,45.67 153.67,46.06 C153.19,45.43 152.7,44.82 152.19,44.22 C157.42,37.05 160.18,28.58 160.18,19.64 C160.18,15.65 159.61,11.68 158.49,7.86 C158.26,7.09 157.48,6.63 156.7,6.82 C144.19,9.81 133.7,18.52 128.38,30.22 C125.7,29.68 122.95,29.39 120.17,29.39 C117.39,29.39 114.64,29.68 111.96,30.22 C106.64,18.52 96.15,9.81 83.64,6.82 C82.86,6.63 82.07,7.09 81.85,7.86 C80.73,11.68 80.16,15.65 80.16,19.64 C80.16,28.58 82.92,37.05 88.15,44.22 C87.64,44.82 87.15,45.43 86.67,46.06 C85.68,45.67 84.69,45.26 83.71,44.83 C83.01,44.53 82.19,44.8 81.81,45.47 C77.5,53.04 74.52,61.22 72.95,69.78 C72.83,70.48 73.2,71.16 73.85,71.44 C82.41,75.04 91.29,77.6 100.38,79.11 C97.68,83.92 95.45,88.96 93.71,94.17 C79.35,90.12 66.14,82.91 54.76,73.13 C54.72,73.08 54.7,73.02 54.65,72.98 C54.57,72.9 54.47,72.86 54.37,72.8 C48.71,67.9 43.52,62.35 38.85,56.24 C37.3,54.2 35.81,52.1 34.38,49.95 C34.33,49.84 34.27,49.74 34.19,49.64 C34.17,49.61 34.14,49.59 34.12,49.57 C30.61,44.23 27.49,38.54 24.8,32.53 C22.91,28.3 21.24,23.91 19.84,19.46 C19.59,18.67 18.75,18.23 17.96,18.48 C17.17,18.73 16.73,19.58 16.98,20.37 C18.32,24.62 19.92,28.83 21.7,32.91 C8.27,49.2 0.87,69.75 0.87,90.91 C0.87,94.07 1.03,97.11 1.34,100.2 C1.41,100.94 2.02,101.51 2.76,101.55 L2.83,101.55 C3.54,101.55 4.16,101.05 4.3,100.35 C4.56,99.09 4.84,97.84 5.15,96.6 C8.05,92.95 12.44,90.8 17.14,90.8 C23.73,90.8 29.36,94.99 31.51,100.85 C32.11,102.49 32.44,104.26 32.44,106.11 C32.44,106.76 32.87,107.32 33.45,107.52 C33.47,107.53 33.49,107.54 33.51,107.54 C33.53,107.55 33.55,107.55 33.57,107.55 C33.64,107.57 33.71,107.58 33.78,107.59 C33.85,107.6 33.93,107.63 34,107.63 C34.62,107.63 35.2,107.24 35.42,106.61 C35.44,106.54 35.47,106.47 35.49,106.4 C35.67,106.29 35.82,106.14 35.94,105.95 C38.91,101.19 44.02,98.35 49.63,98.35 C55.74,98.35 61.07,101.77 63.8,106.8 C65.04,109.09 65.75,111.7 65.75,114.48 C65.75,115.02 66.05,115.5 66.48,115.76 C66.49,115.77 66.51,115.77 66.52,115.78 C66.59,115.82 66.66,115.85 66.73,115.88 C66.74,115.88 66.75,115.89 66.77,115.9 L66.81,115.9 C66.89,115.93 66.98,115.95 67.07,115.96 C67.1,115.97 67.13,115.98 67.17,115.98 L67.26,115.98 L67.27,115.99 C67.28,115.99 67.28,115.98 67.29,115.98 L67.3,115.99 C67.33,115.99 67.36,115.97 67.39,115.97 C67.41,115.97 67.42,115.96 67.44,115.96 C67.49,115.95 67.55,115.95 67.6,115.94 C67.65,115.92 67.71,115.92 67.76,115.9 C67.86,115.86 67.95,115.81 68.04,115.76 C68.08,115.74 68.12,115.71 68.16,115.69 C68.27,115.61 68.36,115.53 68.44,115.43 C68.45,115.41 68.46,115.4 68.47,115.38 C68.57,115.26 68.64,115.13 68.69,114.98 C70.54,109.87 75.43,106.44 80.86,106.44 C84.29,106.44 87.58,107.83 89.99,110.24 C89.49,114.03 89.23,117.87 89.23,121.72 C89.23,146.91 100.15,170.85 119.19,187.38 C119.47,187.63 119.82,187.75 120.17,187.75 C120.52,187.75 120.87,187.63 121.15,187.38 C140.19,170.85 151.11,146.91 151.11,121.72 C151.11,117.87 150.85,114.03 150.35,110.24 C152.76,107.83 156.05,106.44 159.48,106.44 C159.82,106.44 160.16,106.45 160.49,106.48 C165.51,106.88 169.92,110.19 171.65,114.98 C171.7,115.13 171.77,115.26 171.87,115.38 C171.88,115.4 171.89,115.41 171.9,115.43 C171.98,115.53 172.07,115.61 172.18,115.69 C172.22,115.71 172.26,115.74 172.3,115.76 C172.39,115.81 172.48,115.86 172.58,115.9 C172.63,115.92 172.69,115.92 172.74,115.94 C172.79,115.95 172.85,115.95 172.9,115.96 C172.92,115.96 172.93,115.97 172.95,115.97 C172.98,115.97 173.01,115.99 173.04,115.99 L173.05,115.98 C173.06,115.98 173.06,115.99 173.07,115.99 L173.08,115.98 L173.17,115.98 C173.21,115.98 173.24,115.97 173.27,115.96 C173.36,115.95 173.45,115.93 173.53,115.9 L173.57,115.9 C173.59,115.89 173.6,115.88 173.61,115.88 C173.68,115.85 173.75,115.82 173.82,115.78 C173.83,115.77 173.85,115.77 173.86,115.76 C174.29,115.5 174.59,115.02 174.59,114.48 C174.59,105.59 181.82,98.35 190.71,98.35 C191.76,98.35 192.79,98.45 193.8,98.64 C198.16,99.48 201.99,102.08 204.4,105.95 C204.52,106.14 204.67,106.29 204.85,106.4 C204.87,106.47 204.9,106.54 204.92,106.61 C205.14,107.24 205.72,107.63 206.34,107.63 C206.41,107.63 206.49,107.6 206.56,107.59 C206.63,107.58 206.7,107.57 206.77,107.55 C206.79,107.55 206.81,107.55 206.83,107.54 C206.85,107.54 206.87,107.53 206.89,107.52 C207.47,107.32 207.9,106.76 207.9,106.11 C207.9,104.26 208.23,102.49 208.83,100.85 C210.98,94.99 216.61,90.8 223.2,90.8 C227.9,90.8 232.29,92.95 235.19,96.6 C235.5,97.84 235.78,99.09 236.04,100.35 C236.18,101.05 236.8,101.55 237.51,101.55 L237.58,101.55 C238.32,101.51 238.93,100.94 239,100.2 C239.31,97.11 239.47,94.07 239.47,90.91 C239.47,69.75 232.07,49.2 218.64,32.91 L218.64,32.91 Z" id="Fill-11" fill="#2B2F35"></path>
    </g>
</svg>