<?xml version="1.0" encoding="UTF-8" standalone="no"?>
<svg width="220px" height="233px" viewBox="0 0 220 233" version="1.1" xmlns="http://www.w3.org/2000/svg" xmlns:xlink="http://www.w3.org/1999/xlink">
    <!-- Generator: Sketch 39.1 (31720) - http://www.bohemiancoding.com/sketch -->
    <title>Slice 1</title>
    <desc>Created with Sketch.</desc>
    <defs></defs>
    <g id="Page-1" stroke="none" stroke-width="1" fill="none" fill-rule="evenodd">
        <path d="M72.173,77.489 C71.923,77.489 71.682,77.582 71.496,77.751 C71.3,77.927 71.186,78.17 71.174,78.435 C71.162,78.702 71.253,78.958 71.431,79.155 C73.41,81.331 75.962,83.306 79.015,85.024 C79.172,85.113 79.34,85.16 79.5,85.16 C79.864,85.16 80.198,84.964 80.372,84.649 C80.645,84.168 80.474,83.558 79.992,83.284 C77.117,81.663 74.733,79.823 72.91,77.816 C72.722,77.608 72.454,77.489 72.173,77.489 L72.173,77.489 Z M147.496,77.486 C147.213,77.486 146.953,77.603 146.761,77.815 C144.926,79.834 142.542,81.675 139.675,83.286 C139.196,83.559 139.024,84.168 139.294,84.642 C139.477,84.961 139.813,85.16 140.17,85.16 C140.33,85.16 140.498,85.113 140.653,85.025 C143.708,83.306 146.26,81.331 148.24,79.154 C148.42,78.957 148.512,78.704 148.5,78.439 C148.487,78.173 148.372,77.928 148.175,77.752 C147.985,77.58 147.744,77.486 147.496,77.486 L147.496,77.486 Z M47.115,93.909 C46.867,93.909 46.63,94.001 46.448,94.168 C46.039,94.544 46.007,95.178 46.378,95.581 C48.448,97.849 50.621,99.557 53.021,100.806 C53.165,100.878 53.33,100.92 53.48,100.92 C53.851,100.92 54.198,100.709 54.365,100.383 C54.493,100.14 54.518,99.87 54.438,99.619 C54.358,99.365 54.182,99.158 53.941,99.035 C51.726,97.875 49.737,96.306 47.86,94.236 C47.67,94.029 47.397,93.909 47.115,93.909 L47.115,93.909 Z M172.557,93.909 C172.276,93.909 172.008,94.028 171.821,94.235 C169.929,96.31 167.938,97.878 165.732,99.033 C165.233,99.289 165.047,99.881 165.305,100.382 C165.479,100.711 165.82,100.92 166.19,100.92 C166.34,100.92 166.505,100.878 166.655,100.803 C169.041,99.567 171.213,97.859 173.291,95.583 C173.665,95.175 173.638,94.541 173.231,94.168 C173.048,94.002 172.807,93.909 172.557,93.909 L172.557,93.909 Z M77.42,103.66 C88.948,103.66 90.185,114.042 90.288,115.225 C90.322,115.755 90.757,116.16 91.28,116.16 L91.39,116.16 C91.905,116.121 92.321,115.643 92.281,115.096 C92.271,114.961 91.132,101.66 77.42,101.66 C76.435,101.66 75.468,101.669 74.522,101.678 L73.038,101.691 C71.787,101.705 70.582,101.718 69.417,101.718 C66.755,101.718 63.647,101.655 60.78,101.194 C60.728,101.185 60.677,101.181 60.625,101.181 C60.143,101.181 59.72,101.545 59.644,102.028 C59.602,102.294 59.664,102.56 59.82,102.777 C59.975,102.992 60.205,103.134 60.468,103.176 C63.468,103.652 66.546,103.717 69.427,103.717 C70.602,103.717 71.813,103.704 73.07,103.691 L74.544,103.678 C75.481,103.669 76.439,103.66 77.42,103.66 L77.42,103.66 Z M142.25,101.66 C128.545,101.66 127.399,114.961 127.389,115.095 C127.355,115.641 127.776,116.121 128.326,116.161 L128.39,116.16 C128.912,116.16 129.352,115.748 129.392,115.222 C129.422,114.755 130.293,103.66 142.25,103.66 C143.235,103.66 144.202,103.669 145.144,103.678 L146.603,103.691 C147.861,103.704 149.074,103.717 150.249,103.717 C153.131,103.717 156.209,103.652 159.201,103.176 C159.466,103.134 159.699,102.991 159.857,102.775 C160.015,102.558 160.078,102.293 160.036,102.029 C159.959,101.545 159.534,101.181 159.047,101.181 C158.995,101.181 158.941,101.185 158.888,101.194 C156.031,101.655 152.92,101.718 150.254,101.718 C149.088,101.718 147.881,101.705 146.629,101.691 L145.15,101.678 C144.207,101.669 143.242,101.66 142.25,101.66 L142.25,101.66 Z M68.59,114.16 C55.356,114.16 44.59,124.926 44.59,138.16 C44.59,151.393 55.356,162.16 68.59,162.16 C76.003,162.16 82.884,158.807 87.466,152.961 C87.734,152.627 87.754,152.163 87.52,151.802 C87.34,151.515 87.03,151.347 86.689,151.347 C86.608,151.347 86.527,151.357 86.448,151.376 C85.673,151.564 84.907,151.66 84.17,151.66 C78.932,151.66 74.67,147.398 74.67,142.16 C74.67,136.922 78.932,132.66 84.17,132.66 C86.552,132.66 88.839,133.559 90.609,135.192 C90.788,135.359 91.026,135.45 91.28,135.45 C91.851,135.45 92.3,135.001 92.3,134.45 C92.3,134.342 92.282,134.238 92.246,134.129 C90.242,122.527 80.301,114.16 68.59,114.16 L68.59,114.16 Z M132.991,151.347 C132.649,151.347 132.334,151.517 132.149,151.802 C131.916,152.163 131.936,152.627 132.201,152.957 C136.786,158.807 143.669,162.16 151.09,162.16 C164.323,162.16 175.09,151.393 175.09,138.16 C175.09,124.926 164.323,114.16 151.09,114.16 C139.255,114.16 129.293,122.626 127.404,134.29 C127.337,134.711 127.542,135.129 127.916,135.329 C128.065,135.412 128.229,135.454 128.395,135.454 C128.646,135.454 128.887,135.361 129.073,135.191 C130.83,133.56 133.114,132.66 135.5,132.66 C140.738,132.66 145,136.922 145,142.16 C145,147.398 140.738,151.66 135.5,151.66 C134.759,151.66 133.995,151.564 133.23,151.375 C133.153,151.357 133.072,151.347 132.991,151.347 L132.991,151.347 Z M100.915,168.626 C104.339,169.514 107.091,169.91 109.84,169.91 C112.582,169.91 115.331,169.514 118.754,168.626 L119.875,168.339 L109.84,144.374 L99.805,168.34 L100.915,168.626 L100.915,168.626 Z M45.5,189.16 C44.949,189.16 44.5,189.609 44.5,190.16 C44.5,190.259 44.518,190.364 44.554,190.471 C44.598,190.618 45.54,193.751 47.831,198.554 C48.002,198.909 48.347,199.13 48.73,199.13 C48.877,199.13 49.023,199.096 49.165,199.029 C49.407,198.915 49.587,198.716 49.676,198.464 C49.765,198.211 49.751,197.936 49.637,197.691 C47.661,193.546 46.71,190.672 46.466,189.89 C46.334,189.453 45.939,189.16 45.5,189.16 L45.5,189.16 Z M174.17,189.16 C173.731,189.16 173.335,189.453 173.208,189.874 C173.204,189.893 172.322,192.887 170.042,197.694 C169.924,197.939 169.91,198.213 170,198.467 C170.089,198.717 170.268,198.916 170.503,199.028 C170.647,199.096 170.793,199.13 170.94,199.13 C171.324,199.13 171.676,198.906 171.836,198.56 C174.167,193.684 175.101,190.521 175.11,190.49 C175.152,190.364 175.17,190.259 175.17,190.16 C175.17,189.609 174.721,189.16 174.17,189.16 L174.17,189.16 Z M56.154,168.317 C55.933,168.317 55.715,168.393 55.54,168.532 C55.214,168.79 55.08,169.207 55.198,169.594 C62.238,193.481 84.551,210.16 109.46,210.16 L110.21,210.16 C135.115,210.16 157.432,193.48 164.48,169.598 C164.594,169.206 164.46,168.786 164.14,168.532 C163.964,168.393 163.744,168.317 163.52,168.317 C163.344,168.317 163.172,168.363 163.022,168.451 C156.155,172.381 148.383,175.503 139.917,177.733 C139.476,177.847 139.17,178.244 139.17,178.7 L139.17,186.966 L138.988,187.115 C137.539,188.309 133.449,191.251 126.783,192.797 L126.17,192.939 L126.17,181.57 C126.17,181.28 126.048,181.011 125.836,180.831 C125.645,180.663 125.4,180.57 125.159,180.57 C125.122,180.57 125.085,180.572 125.049,180.576 C120.234,181.169 115.301,181.47 110.39,181.47 L109.28,181.47 C104.365,181.47 99.435,181.169 94.629,180.576 C94.594,180.572 94.556,180.57 94.518,180.57 C94.269,180.57 94.028,180.661 93.839,180.826 C93.624,181.015 93.5,181.286 93.5,181.57 L93.5,192.939 L92.887,192.797 C86.221,191.251 82.131,188.309 80.682,187.115 L80.5,186.966 L80.5,178.7 C80.5,178.242 80.198,177.845 79.766,177.734 C71.312,175.51 63.537,172.388 56.652,168.454 C56.498,168.363 56.327,168.317 56.154,168.317 L56.154,168.317 Z M146.734,230.49 L147.789,229.607 C158.206,220.882 164.886,211.209 168.656,204.632 C168.929,204.152 168.765,203.537 168.29,203.263 C168.141,203.178 167.97,203.133 167.797,203.133 C167.436,203.133 167.102,203.326 166.924,203.637 C162.768,210.879 155.352,221.397 143.624,230.387 L143.489,230.49 L128.78,230.49 L130.015,229.587 C136.529,224.821 140.931,218.809 140.972,218.751 C141.133,218.534 141.196,218.276 141.157,218.016 C141.117,217.749 140.974,217.514 140.755,217.354 C140.584,217.227 140.385,217.161 140.176,217.161 C139.856,217.161 139.553,217.316 139.364,217.575 C139.104,217.924 133.051,225.976 125.012,230.427 L124.899,230.49 L94.771,230.49 L94.658,230.427 C86.463,225.889 80.355,217.625 80.303,217.547 C80.129,217.313 79.825,217.161 79.505,217.161 C79.291,217.161 79.088,217.227 78.915,217.353 C78.471,217.678 78.372,218.302 78.694,218.746 C78.74,218.809 83.141,224.821 89.655,229.587 L90.89,230.49 L76.19,230.49 L76.056,230.387 C64.314,221.386 56.899,210.873 52.746,203.639 C52.568,203.326 52.237,203.133 51.881,203.133 C51.709,203.133 51.539,203.178 51.388,203.264 C51.156,203.396 50.989,203.612 50.918,203.87 C50.848,204.129 50.882,204.4 51.015,204.633 C54.785,211.211 61.468,220.885 71.891,229.607 L72.947,230.49 L55.317,230.49 L55.19,230.404 C31.454,214.382 17.84,185.983 17.84,152.49 C17.84,146.336 18.286,140.318 19.166,134.604 C25.376,94.64 52.982,69.606 94.906,65.922 L95.158,65.9 L95.325,66.09 C99.498,70.836 101.287,75.32 100.644,79.418 C99.845,84.378 95.595,87.463 94.311,88.29 L94.137,88.403 L93.934,88.359 C92.244,87.991 90.646,87.581 89.185,87.138 C89.091,87.11 88.994,87.095 88.896,87.095 C88.459,87.095 88.065,87.387 87.938,87.805 C87.778,88.332 88.078,88.891 88.605,89.051 C90.291,89.565 92.092,90.018 93.96,90.4 C94.112,90.443 94.165,90.45 94.19,90.45 C98.805,91.369 103.475,91.83 108.17,91.83 C108.736,91.83 109.303,91.82 109.79,91.81 C110.376,91.82 110.933,91.83 111.5,91.83 C115.276,91.83 119.129,91.519 122.951,90.906 L123.17,91.382 L123.082,90.89 C125.935,90.412 128.603,89.798 131.065,89.051 C131.592,88.891 131.892,88.332 131.731,87.805 C131.604,87.387 131.21,87.095 130.773,87.095 C130.676,87.095 130.579,87.11 130.485,87.138 C128.995,87.592 127.406,88 125.764,88.349 L124.782,88.558 L125.207,87.648 C127.355,83.055 127.869,78.375 126.734,73.738 C126.096,71.104 125.071,68.787 123.598,66.654 L122.998,65.784 L124.051,65.871 C172.033,69.847 201.84,103.038 201.84,152.49 C201.84,169.98 198.038,186.568 190.844,200.46 C184.433,212.844 175.563,222.919 164.479,230.404 L164.353,230.49 L146.734,230.49 L146.734,230.49 Z" id="Fill-21" fill="#E4792B"></path>
        <path d="M111.5,89.83 C110.986,89.83 110.463,89.821 109.888,89.811 C109.266,89.82 108.723,89.83 108.17,89.83 C104.789,89.83 101.356,89.579 97.968,89.085 L96.911,88.93 L97.707,88.217 C99.591,86.529 101.971,83.691 102.606,79.76 C103.399,74.897 101.301,69.687 96.37,64.277 L96.651,63.839 L96.267,64.163 C96.114,63.988 96.019,63.876 95.907,63.764 C89.127,56.566 87.059,47.713 90.361,40.071 C93.36,33.137 99.989,28.83 107.66,28.83 C113.333,28.83 117.483,30.679 119.356,34.036 C120.753,36.574 120.674,39.791 119.155,42.234 C117.932,44.206 115.952,45.338 113.722,45.338 C113.61,45.338 113.498,45.335 113.385,45.329 C108.257,45.073 106.192,42.508 105.982,40.389 C105.811,38.709 106.704,36.738 109.085,36.126 C109.53,36.013 109.84,35.612 109.84,35.15 C109.833,34.692 109.518,34.293 109.074,34.186 C108.507,34.052 107.913,33.984 107.307,33.984 C104.903,33.984 102.404,35.024 100.271,36.914 C97.344,39.506 95.835,43.116 96.236,46.572 C96.995,53.194 102.6,55.715 108.535,58.384 C114.732,61.164 121.14,64.039 124.038,71.795 L124.246,72.352 L123.662,72.461 C122.626,72.655 121.37,72.877 119.908,73.047 C119.646,73.079 119.409,73.213 119.243,73.424 C119.078,73.634 119.004,73.896 119.036,74.159 C119.096,74.662 119.523,75.04 120.03,75.04 C120.044,75.04 120.111,75.039 120.13,75.036 C121.815,74.834 123.251,74.573 124.316,74.369 L124.798,74.277 L124.899,74.757 C125.268,76.505 125.388,78.242 125.258,79.919 L125.229,80.295 L124.859,80.37 C121.887,80.975 118.993,81.36 116.012,81.549 C114.484,81.642 112.966,81.69 111.5,81.69 C110.949,81.69 110.5,82.138 110.5,82.69 C110.5,83.241 110.949,83.69 111.5,83.69 C113.068,83.69 114.628,83.639 116.137,83.541 C118.837,83.373 121.448,83.052 124.119,82.558 L124.89,82.416 L124.694,83.175 C124.206,85.069 123.407,86.959 122.32,88.795 L122.2,88.998 L121.966,89.034 C118.544,89.562 115.022,89.83 111.5,89.83" id="Fill-22" fill="#47827B"></path>
        <path d="M68.59,160.16 C56.459,160.16 46.59,150.291 46.59,138.16 C46.59,126.029 56.459,116.16 68.59,116.16 C78.002,116.16 86.362,122.115 89.393,130.978 L89.757,132.044 L88.723,131.599 C87.271,130.976 85.74,130.66 84.17,130.66 C77.829,130.66 72.67,135.819 72.67,142.16 C72.67,148.118 77.136,153.037 83.057,153.602 L84.183,153.71 L83.346,154.47 C79.307,158.139 74.066,160.16 68.59,160.16 L68.59,160.16 Z M151.09,160.16 C145.604,160.16 140.363,158.139 136.333,154.469 L135.499,153.71 L136.623,153.602 C142.441,153.046 147,148.02 147,142.16 C147,135.819 141.841,130.66 135.5,130.66 C133.93,130.66 132.398,130.976 130.947,131.599 L129.913,132.044 L130.277,130.978 C133.307,122.115 141.671,116.16 151.09,116.16 C163.221,116.16 173.09,126.029 173.09,138.16 C173.09,150.291 163.221,160.16 151.09,160.16 L151.09,160.16 Z M109.835,167.927 C107.776,167.927 105.706,167.672 103.122,167.098 L102.538,166.968 L109.84,149.556 L117.132,166.968 L116.548,167.098 C113.964,167.672 111.894,167.927 109.835,167.927 L109.835,167.927 Z M109.46,208.16 C86.795,208.16 66.24,193.88 58.311,172.625 L57.86,171.414 L59.008,172.005 C64.846,175.008 71.281,177.485 78.132,179.368 L78.5,179.468 L78.5,187.41 C78.5,187.673 78.612,187.931 78.807,188.12 C78.865,188.178 84.07,193.296 94.328,195.128 C94.389,195.139 94.449,195.144 94.508,195.144 C94.742,195.144 94.968,195.061 95.145,194.909 C95.373,194.722 95.5,194.444 95.5,194.14 L95.5,182.703 L96.053,182.763 C100.419,183.232 104.869,183.47 109.28,183.47 L110.39,183.47 C114.801,183.47 119.251,183.232 123.617,182.763 L124.17,182.703 L124.17,194.14 C124.17,194.438 124.3,194.717 124.528,194.904 C124.714,195.063 124.932,195.144 125.163,195.144 C125.221,195.144 125.281,195.139 125.34,195.128 C135.61,193.296 140.814,188.178 140.866,188.127 C141.062,187.938 141.17,187.679 141.17,187.41 L141.17,179.468 L141.538,179.368 C148.389,177.485 154.824,175.008 160.662,172.005 L161.81,171.414 L161.358,172.625 C153.43,193.88 132.875,208.16 110.21,208.16 L109.46,208.16 L109.46,208.16 Z" id="Fill-23" fill="#F1BB31"></path>
        <path d="M13.17,229.99 L1.84,229.99 C1.01,229.99 0.34,230.66 0.34,231.49 C0.34,232.32 1.01,232.99 1.84,232.99 L13.17,232.99 C14,232.99 14.67,232.32 14.67,231.49 C14.67,230.66 14,229.99 13.17,229.99 L13.17,229.99 Z M46.94,189.73 C46.75,189.1 46.16,188.66 45.5,188.66 C44.67,188.66 44,189.33 44,190.16 C44,190.32 44.03,190.48 44.08,190.63 C44.22,191.1 45.2,194.2 47.38,198.77 C47.64,199.31 48.17,199.63 48.73,199.63 C48.95,199.63 49.17,199.58 49.38,199.48 C50.13,199.13 50.44,198.23 50.09,197.48 C47.95,192.99 47.04,190.05 46.94,189.73 L46.94,189.73 Z M52.79,101.25 C53.01,101.36 53.25,101.42 53.48,101.42 C54.02,101.42 54.55,101.12 54.81,100.61 C55.2,99.87 54.91,98.97 54.17,98.59 C52.03,97.47 50.08,95.94 48.23,93.9 C47.67,93.29 46.72,93.24 46.11,93.8 C45.5,94.36 45.45,95.31 46.01,95.92 C48.11,98.22 50.33,99.97 52.79,101.25 L52.79,101.25 Z M74.46,25.3 C74.46,26.13 75.13,26.8 75.96,26.8 C76.78,26.8 77.46,26.13 77.46,25.3 C77.46,24.47 76.78,23.8 75.96,23.8 C75.13,23.8 74.46,24.47 74.46,25.3 L74.46,25.3 Z M71.46,25.3 C71.46,22.82 73.47,20.8 75.96,20.8 C78.44,20.8 80.46,22.82 80.46,25.3 C80.46,27.78 78.44,29.8 75.96,29.8 C73.47,29.8 71.46,27.78 71.46,25.3 L71.46,25.3 Z M78.77,85.46 C79,85.59 79.25,85.66 79.5,85.66 C80.03,85.66 80.54,85.38 80.81,84.89 C81.22,84.17 80.96,83.26 80.24,82.85 C77.42,81.26 75.07,79.45 73.28,77.48 C72.73,76.87 71.78,76.82 71.16,77.38 C70.55,77.93 70.51,78.88 71.06,79.49 C73.07,81.7 75.66,83.71 78.77,85.46 L78.77,85.46 Z M68.59,159.66 C73.99,159.66 79.08,157.67 83.01,154.1 C76.93,153.52 72.17,148.38 72.17,142.16 C72.17,135.54 77.55,130.16 84.17,130.16 C85.82,130.16 87.43,130.5 88.92,131.14 C85.99,122.57 77.94,116.66 68.59,116.66 C56.73,116.66 47.09,126.31 47.09,138.16 C47.09,150.01 56.73,159.66 68.59,159.66 L68.59,159.66 Z M68.59,162.66 C55.08,162.66 44.09,151.67 44.09,138.16 C44.09,124.65 55.08,113.66 68.59,113.66 C80.58,113.66 90.69,122.18 92.72,133.97 C92.77,134.12 92.8,134.28 92.8,134.45 C92.8,135.28 92.13,135.95 91.3,135.95 L91.28,135.95 C90.91,135.95 90.55,135.82 90.27,135.56 C88.59,134.01 86.43,133.16 84.17,133.16 C79.21,133.16 75.17,137.2 75.17,142.16 C75.17,147.12 79.21,151.16 84.17,151.16 C84.87,151.16 85.59,151.07 86.33,150.89 C86.95,150.74 87.6,150.99 87.94,151.53 C88.29,152.07 88.26,152.77 87.86,153.27 C83.18,159.24 76.15,162.66 68.59,162.66 L68.59,162.66 Z M60.39,103.67 C64.3,104.29 68.43,104.24 73.21,104.19 C74.57,104.18 75.97,104.16 77.42,104.16 C88.83,104.16 89.75,114.81 89.79,115.27 C89.84,116.06 90.5,116.66 91.28,116.66 L91.39,116.66 C92.21,116.6 92.84,115.88 92.78,115.06 C92.77,114.92 91.66,101.16 77.42,101.16 C75.96,101.16 74.54,101.18 73.17,101.19 C68.53,101.24 64.52,101.29 60.86,100.7 C60.05,100.57 59.28,101.13 59.15,101.95 C59.02,102.77 59.57,103.54 60.39,103.67 L60.39,103.67 Z M108.55,9.41 C108.93,9.41 109.31,9.26 109.61,8.97 L111.02,7.56 C111.61,6.97 111.61,6.02 111.02,5.43 C110.43,4.85 109.49,4.85 108.9,5.43 L107.48,6.85 C106.9,7.43 106.9,8.39 107.48,8.97 C107.78,9.26 108.16,9.41 108.55,9.41 L108.55,9.41 Z M108.9,4.2 C109.19,4.49 109.58,4.64 109.96,4.64 C110.34,4.64 110.73,4.49 111.02,4.2 C111.61,3.61 111.61,2.66 111.02,2.08 L109.61,0.66 C109.02,0.08 108.07,0.08 107.48,0.66 C106.9,1.25 106.9,2.2 107.48,2.78 L108.9,4.2 L108.9,4.2 Z M113.67,8.97 C113.97,9.26 114.35,9.41 114.73,9.41 C115.12,9.41 115.5,9.26 115.79,8.97 C116.38,8.39 116.38,7.43 115.79,6.85 L114.38,5.43 C113.79,4.85 112.84,4.85 112.26,5.43 C111.67,6.02 111.67,6.97 112.26,7.56 L113.67,8.97 L113.67,8.97 Z M113.32,4.64 C113.7,4.64 114.09,4.49 114.38,4.2 L115.79,2.78 C116.38,2.2 116.38,1.25 115.79,0.66 C115.21,0.08 114.26,0.08 113.67,0.66 L112.26,2.08 C111.67,2.66 111.67,3.61 112.26,4.2 C112.55,4.49 112.93,4.64 113.32,4.64 L113.32,4.64 Z M103.23,166.61 C108.14,167.7 111.53,167.7 116.44,166.61 L109.84,150.85 L103.23,166.61 L103.23,166.61 Z M100.79,169.11 L99.12,168.68 L109.84,143.08 L120.56,168.68 L118.88,169.11 C115.41,170.01 112.62,170.41 109.84,170.41 C107.05,170.41 104.26,170.01 100.79,169.11 L100.79,169.11 Z M131.25,50.17 C131.54,50.46 131.92,50.61 132.31,50.61 C132.69,50.61 133.08,50.46 133.37,50.17 L135.25,48.28 L137.14,50.17 C137.43,50.46 137.82,50.61 138.2,50.61 C138.58,50.61 138.97,50.46 139.26,50.17 C139.85,49.58 139.85,48.63 139.26,48.05 L137.38,46.16 L139.26,44.27 C139.85,43.69 139.85,42.74 139.26,42.15 C138.67,41.57 137.73,41.57 137.14,42.15 L135.25,44.04 L133.37,42.15 C132.78,41.57 131.83,41.57 131.25,42.15 C130.66,42.74 130.66,43.69 131.25,44.27 L133.13,46.16 L131.25,48.05 C130.66,48.63 130.66,49.58 131.25,50.17 L131.25,50.17 Z M140.17,85.66 C140.42,85.66 140.67,85.59 140.9,85.46 C144.01,83.71 146.6,81.7 148.61,79.49 C149.17,78.88 149.12,77.93 148.51,77.38 C147.89,76.82 146.95,76.86 146.39,77.48 C144.6,79.45 142.26,81.26 139.43,82.85 C138.71,83.26 138.45,84.17 138.86,84.89 C139.14,85.38 139.65,85.66 140.17,85.66 L140.17,85.66 Z M128.29,116.66 L128.39,116.66 C129.17,116.66 129.83,116.05 129.89,115.26 C129.92,114.81 130.78,104.16 142.25,104.16 C143.7,104.16 145.11,104.18 146.46,104.19 C151.25,104.24 155.38,104.29 159.28,103.67 C160.1,103.54 160.66,102.77 160.53,101.95 C160.4,101.13 159.63,100.57 158.81,100.7 C155.16,101.29 151.14,101.24 146.5,101.19 C145.13,101.18 143.72,101.16 142.25,101.16 C128.02,101.16 126.9,114.92 126.89,115.06 C126.84,115.88 127.46,116.6 128.29,116.66 L128.29,116.66 Z M160.89,172.45 C155,175.48 148.55,177.96 141.67,179.85 L141.67,187.41 C141.67,187.81 141.51,188.2 141.22,188.48 C141,188.7 135.69,193.79 125.43,195.62 C124.99,195.7 124.55,195.58 124.21,195.29 C123.87,195.01 123.67,194.59 123.67,194.14 L123.67,183.26 C119.3,183.73 114.84,183.97 110.39,183.97 L109.28,183.97 C104.83,183.97 100.37,183.73 96,183.26 L96,194.14 C96,194.59 95.81,195.01 95.47,195.29 C95.13,195.58 94.68,195.7 94.24,195.62 C83.99,193.79 78.68,188.7 78.46,188.48 C78.17,188.2 78,187.81 78,187.41 L78,179.85 C71.12,177.96 64.67,175.48 58.78,172.45 C66.58,193.36 86.91,207.66 109.46,207.66 L110.21,207.66 C132.77,207.66 153.09,193.36 160.89,172.45 L160.89,172.45 Z M164.45,168.14 C164.93,168.52 165.13,169.15 164.96,169.74 C157.85,193.83 135.34,210.66 110.21,210.66 L109.46,210.66 C84.33,210.66 61.82,193.83 54.72,169.74 C54.54,169.15 54.75,168.52 55.23,168.14 C55.71,167.76 56.37,167.71 56.9,168.02 C63.76,171.94 71.49,175.04 79.89,177.25 C80.55,177.42 81,178.02 81,178.7 L81,186.73 C82.3,187.8 86.36,190.77 93,192.31 L93,181.57 C93,181.14 93.19,180.73 93.51,180.45 C93.83,180.17 94.26,180.03 94.69,180.08 C99.47,180.67 104.38,180.97 109.28,180.97 L110.39,180.97 C115.29,180.97 120.2,180.67 124.99,180.08 C125.41,180.03 125.84,180.17 126.16,180.45 C126.49,180.73 126.67,181.14 126.67,181.57 L126.67,192.31 C133.31,190.77 137.37,187.8 138.67,186.73 L138.67,178.7 C138.67,178.02 139.13,177.42 139.79,177.25 C148.18,175.04 155.92,171.94 162.77,168.02 C163.3,167.71 163.97,167.76 164.45,168.14 L164.45,168.14 Z M172.59,138.16 C172.59,126.31 162.94,116.66 151.09,116.66 C141.73,116.66 133.68,122.57 130.75,131.14 C132.24,130.5 133.85,130.16 135.5,130.16 C142.12,130.16 147.5,135.54 147.5,142.16 C147.5,148.38 142.74,153.52 136.67,154.1 C140.59,157.67 145.68,159.66 151.09,159.66 C162.94,159.66 172.59,150.01 172.59,138.16 L172.59,138.16 Z M175.59,138.16 C175.59,151.67 164.6,162.66 151.09,162.66 C143.52,162.66 136.49,159.24 131.81,153.27 C131.41,152.77 131.38,152.07 131.73,151.53 C132.08,150.99 132.73,150.74 133.35,150.89 C134.08,151.07 134.81,151.16 135.5,151.16 C140.47,151.16 144.5,147.12 144.5,142.16 C144.5,137.2 140.47,133.16 135.5,133.16 C133.24,133.16 131.08,134.01 129.41,135.56 C128.94,135.99 128.24,136.08 127.68,135.77 C127.12,135.47 126.81,134.84 126.91,134.21 C128.84,122.3 139.01,113.66 151.09,113.66 C164.6,113.66 175.59,124.65 175.59,138.16 L175.59,138.16 Z M166.19,101.42 C166.42,101.42 166.66,101.36 166.88,101.25 C169.35,99.97 171.56,98.22 173.66,95.92 C174.22,95.31 174.18,94.36 173.57,93.8 C172.95,93.24 172,93.29 171.45,93.9 C169.59,95.94 167.64,97.47 165.5,98.59 C164.76,98.97 164.48,99.87 164.86,100.61 C165.13,101.12 165.65,101.42 166.19,101.42 L166.19,101.42 Z M174.17,188.66 C173.51,188.66 172.92,189.1 172.73,189.73 C172.64,190.05 171.72,192.99 169.59,197.48 C169.23,198.23 169.55,199.13 170.29,199.48 C170.5,199.58 170.72,199.63 170.94,199.63 C171.5,199.63 172.04,199.31 172.29,198.77 C174.47,194.21 175.45,191.11 175.59,190.63 C175.64,190.48 175.67,190.32 175.67,190.16 C175.67,189.33 175,188.66 174.17,188.66 L174.17,188.66 Z M190.4,200.23 C197.52,186.48 201.34,170.21 201.34,152.49 C201.34,103.04 171.8,70.33 124.01,66.37 C125.39,68.37 126.52,70.73 127.22,73.62 C128.38,78.36 127.83,83.22 125.66,87.86 C127.26,87.52 128.83,87.12 130.34,86.66 C131.13,86.42 131.97,86.87 132.21,87.66 C132.45,88.45 132,89.29 131.21,89.53 C128.67,90.3 125.99,90.91 123.22,91.37 C123.16,91.39 123.09,91.39 123.03,91.4 C119.29,92 115.41,92.33 111.5,92.33 C110.93,92.33 110.37,92.32 109.8,92.31 C109.31,92.32 108.74,92.33 108.17,92.33 C103.4,92.33 98.66,91.85 94.19,90.95 C94.08,90.95 93.96,90.92 93.86,90.89 C92,90.51 90.2,90.06 88.46,89.53 C87.67,89.29 87.22,88.45 87.46,87.66 C87.7,86.87 88.54,86.42 89.33,86.66 C90.85,87.12 92.43,87.52 94.04,87.87 C95.39,87 99.39,84.06 100.15,79.34 C100.77,75.39 99.02,71.05 94.95,66.42 C52.96,70.11 25.8,95.17 19.66,134.68 C18.79,140.33 18.34,146.27 18.34,152.49 C18.34,185.85 31.87,214.06 55.47,229.99 L71.57,229.99 C61.22,221.33 54.5,211.72 50.58,204.88 C50.17,204.16 50.42,203.24 51.14,202.83 C51.86,202.42 52.77,202.67 53.18,203.39 C57.33,210.62 64.71,221.06 76.36,229.99 L89.36,229.99 C82.88,225.25 78.51,219.35 78.29,219.04 C77.81,218.38 77.95,217.44 78.62,216.95 C79.29,216.46 80.23,216.61 80.72,217.27 C80.78,217.36 86.81,225.51 94.9,229.99 L124.77,229.99 C132.88,225.5 138.9,217.36 138.96,217.28 C139.45,216.61 140.39,216.46 141.05,216.95 C141.72,217.44 141.87,218.38 141.38,219.04 C141.16,219.35 136.79,225.25 130.31,229.99 L143.32,229.99 C154.97,221.06 162.34,210.62 166.49,203.39 C166.9,202.67 167.82,202.42 168.54,202.83 C169.25,203.24 169.5,204.16 169.09,204.88 C165.17,211.72 158.45,221.33 148.11,229.99 L164.2,229.99 C175.26,222.52 184.12,212.36 190.4,200.23 L190.4,200.23 Z M96.26,63.41 C96.39,63.54 96.5,63.67 96.62,63.81 C96.66,63.85 96.71,63.89 96.74,63.94 C101.77,69.46 103.92,74.81 103.1,79.84 C102.45,83.86 100.06,86.78 98.04,88.59 C101.33,89.07 104.74,89.33 108.17,89.33 C108.72,89.33 109.26,89.32 109.8,89.31 C110.41,89.32 110.96,89.33 111.5,89.33 C115.02,89.33 118.52,89.06 121.89,88.54 C122.95,86.75 123.73,84.91 124.21,83.05 C121.56,83.54 118.91,83.87 116.17,84.04 C114.64,84.14 113.07,84.19 111.5,84.19 C110.67,84.19 110,83.51 110,82.69 C110,81.86 110.67,81.19 111.5,81.19 C113,81.19 114.51,81.14 115.98,81.05 C118.98,80.86 121.86,80.47 124.76,79.88 C124.89,78.2 124.76,76.52 124.41,74.86 C123.16,75.1 121.79,75.34 120.21,75.53 C120.15,75.54 120.09,75.54 120.03,75.54 C119.28,75.54 118.63,74.98 118.54,74.22 C118.44,73.4 119.03,72.65 119.85,72.55 C121.23,72.39 122.45,72.18 123.57,71.97 C120.76,64.45 114.46,61.59 108.33,58.84 C102.26,56.11 96.53,53.53 95.74,46.63 C95.32,43.01 96.89,39.24 99.94,36.54 C102.75,34.05 106.2,32.99 109.19,33.7 C109.86,33.86 110.33,34.46 110.34,35.15 C110.34,35.84 109.88,36.44 109.21,36.61 C107.11,37.15 106.33,38.87 106.48,40.34 C106.67,42.26 108.6,44.59 113.41,44.83 C115.6,44.94 117.54,43.89 118.73,41.97 C120.16,39.67 120.23,36.66 118.92,34.28 C117.14,31.09 113.15,29.33 107.67,29.33 L107.66,29.33 C100.19,29.33 93.74,33.52 90.82,40.27 C87.6,47.72 89.63,56.37 96.26,63.41 L96.26,63.41 Z M169.35,229.99 L199.17,229.99 C200,229.99 200.67,230.66 200.67,231.49 C200.67,232.32 200,232.99 199.17,232.99 L164.67,232.99 L164.66,232.99 L94.51,232.99 L94.5,232.99 L55.02,232.99 L55,232.99 C55,232.99 55,232.99 54.99,232.99 L20.5,232.99 C19.68,232.99 19,232.32 19,231.49 C19,230.66 19.68,229.99 20.5,229.99 L50.32,229.99 C28.03,213.15 15.34,185.2 15.34,152.49 C15.34,146.16 15.81,140.05 16.74,134.2 C19.43,117.31 25.94,102.62 35.96,91.08 C49.39,75.62 68.9,66.18 92.5,63.66 C86.31,56.06 84.63,47.03 88.06,39.08 C91.41,31.33 99.1,26.33 107.66,26.33 L107.67,26.33 C116.6,26.33 120.19,30.4 121.54,32.83 C123.38,36.14 123.28,40.35 121.28,43.56 C119.49,46.43 116.56,47.99 113.26,47.82 C106.56,47.49 103.81,43.75 103.49,40.64 C103.37,39.47 103.56,38.35 104.01,37.35 C103.29,37.72 102.59,38.2 101.93,38.78 C99.61,40.83 98.41,43.64 98.72,46.29 C99.32,51.49 103.84,53.53 109.56,56.1 C113.39,57.82 117.75,59.79 121.27,63.16 C147,64.64 168.26,73.92 182.78,90.03 C196.88,105.67 204.34,127.27 204.34,152.49 C204.34,170.69 200.41,187.42 193.06,201.58 C187.23,212.87 179.23,222.52 169.35,229.99 L169.35,229.99 Z M219.34,231.49 C219.34,232.32 218.66,232.99 217.84,232.99 L206.5,232.99 C205.67,232.99 205,232.32 205,231.49 C205,230.66 205.67,229.99 206.5,229.99 L217.84,229.99 C218.66,229.99 219.34,230.66 219.34,231.49 L219.34,231.49 Z" id="Fill-24" fill="#2B2F35"></path>
    </g>
</svg>