<?xml version="1.0" encoding="UTF-8" standalone="no"?>
<svg width="234px" height="175px" viewBox="0 0 234 175" version="1.1" xmlns="http://www.w3.org/2000/svg" xmlns:xlink="http://www.w3.org/1999/xlink">
    <!-- Generator: Sketch 39.1 (31720) - http://www.bohemiancoding.com/sketch -->
    <title>Slice 1</title>
    <desc>Created with Sketch.</desc>
    <defs></defs>
    <g id="Page-1" stroke="none" stroke-width="1" fill="none" fill-rule="evenodd">
        <path d="M157.17,75.413 C155.24,75.413 153.67,73.842 153.67,71.913 C153.67,69.983 155.24,68.413 157.17,68.413 C159.1,68.413 160.67,69.983 160.67,71.913 C160.67,73.842 159.1,75.413 157.17,75.413 L157.17,75.413 Z M159.17,51.333 C153.469,51.333 148.83,55.967 148.83,61.663 L148.83,84.993 C148.83,90.694 153.469,95.333 159.17,95.333 C164.866,95.333 169.5,90.694 169.5,84.993 L169.5,61.663 C169.5,55.967 164.866,51.333 159.17,51.333 L159.17,51.333 Z M76.5,75.413 C74.57,75.413 73,73.842 73,71.913 C73,69.983 74.57,68.413 76.5,68.413 C78.43,68.413 80,69.983 80,71.913 C80,73.842 78.43,75.413 76.5,75.413 L76.5,75.413 Z M74.5,51.333 C68.804,51.333 64.17,55.967 64.17,61.663 L64.17,84.993 C64.17,90.694 68.804,95.333 74.5,95.333 C80.196,95.333 84.83,90.694 84.83,84.993 L84.83,61.663 C84.83,55.967 80.196,51.333 74.5,51.333 L74.5,51.333 Z" id="Fill-1" fill="#FFFFFF"></path>
        <path d="M104.36,141.913 L129.3,141.913 L129.3,133.583 L104.36,133.583 L104.36,141.913 Z M98.55,145.204 L99.042,145.212 C103.962,145.294 109.614,145.333 116.83,145.333 C124.053,145.333 129.708,145.294 134.628,145.212 L135.12,145.204 L135.12,130.053 L98.55,130.053 L98.55,145.204 L98.55,145.204 Z" id="Fill-2" fill="#F3B130"></path>
        <path d="M34.458,90.287 C26.695,83.008 13.29,79.043 7.887,77.677 L6.793,77.4 L7.733,76.776 C17.831,70.071 30.897,69.085 34.661,68.943 L35.184,68.923 L35.18,69.446 C35.17,70.935 35.17,72.443 35.17,73.993 C35.17,80.605 35.21,85.515 35.3,89.912 L35.324,91.099 L34.458,90.287 L34.458,90.287 Z M198.37,89.912 C198.46,85.537 198.5,80.627 198.5,73.993 C198.5,72.443 198.5,70.935 198.49,69.446 L198.487,68.923 L199.009,68.943 C202.771,69.085 215.83,70.072 225.926,76.776 L226.867,77.4 L225.773,77.677 C220.371,79.046 206.969,83.014 199.212,90.287 L198.346,91.1 L198.37,89.912 L198.37,89.912 Z M81.5,171.493 C76.671,171.493 71.5,161.383 71.5,146.333 L71.5,145.624 L72.064,145.696 C73.148,145.836 74.273,145.956 75.427,146.065 C79.864,146.515 84.959,146.825 91.006,147.013 L91.499,147.028 L91.49,147.522 C91.358,154.453 90.081,160.815 87.892,165.437 C86.067,169.285 83.738,171.493 81.5,171.493 L81.5,171.493 Z M152.17,171.493 C149.904,171.493 147.631,169.342 145.769,165.438 C143.586,160.829 142.312,154.466 142.18,147.522 L142.171,147.028 L142.665,147.013 C148.72,146.825 153.818,146.515 158.25,146.065 C159.397,145.956 160.511,145.836 161.597,145.696 L162.16,145.624 L162.16,146.192 C162.167,146.245 162.17,146.289 162.17,146.333 C162.17,161.383 156.999,171.493 152.17,171.493 L152.17,171.493 Z" id="Fill-3" fill="#D95849"></path>
        <path d="M74.5,49.333 C67.701,49.333 62.17,54.864 62.17,61.663 L62.17,84.993 C62.17,91.797 67.701,97.333 74.5,97.333 C81.299,97.333 86.83,91.797 86.83,84.993 L86.83,61.663 C86.83,54.864 81.299,49.333 74.5,49.333 L74.5,49.333 Z M159.17,49.333 C152.366,49.333 146.83,54.864 146.83,61.663 L146.83,84.993 C146.83,91.797 152.366,97.333 159.17,97.333 C165.969,97.333 171.5,91.797 171.5,84.993 L171.5,61.663 C171.5,54.864 165.969,49.333 159.17,49.333 L159.17,49.333 Z M125.492,100.583 L125.628,100.689 C129.335,103.593 130.916,108.517 131.195,109.474 L131.61,111.058 L132.822,110.005 C136.394,106.911 137.131,103.359 137.12,100.925 L137.118,100.509 L137.527,100.431 C141.376,99.7 144.17,96.328 144.17,92.413 C144.17,91.861 143.721,91.413 143.17,91.413 C142.619,91.413 142.17,91.861 142.17,92.413 C142.17,95.814 139.402,98.583 136,98.583 L97.67,98.583 C94.268,98.583 91.5,95.814 91.5,92.413 C91.5,91.861 91.051,91.413 90.5,91.413 C89.949,91.413 89.5,91.861 89.5,92.413 C89.5,96.33 92.294,99.702 96.143,100.431 L96.554,100.509 L96.55,100.927 C96.532,102.911 97.065,106.729 100.847,110.004 L102.054,111.051 L102.467,109.503 C102.465,109.5 104.027,103.834 108.042,100.689 L108.178,100.583 L125.492,100.583 L125.492,100.583 Z M43.169,128.053 L43.032,127.774 C42.555,126.81 42.09,125.728 41.652,124.558 L41.62,124.473 L41.62,124.461 C37.88,114.23 37.17,98.817 37.17,73.993 C37.17,61.884 37.393,53.394 37.892,46.466 L38.021,44.832 L38.085,44.729 C47.501,29.59 63.753,20.553 81.56,20.553 C94.409,20.553 106.696,25.33 116.158,34.004 L116.832,34.625 L117.513,34.003 C126.964,25.33 139.248,20.553 152.1,20.553 C169.913,20.553 186.169,29.59 195.585,44.729 L195.649,44.832 L195.659,44.953 C196.241,52.185 196.5,61.142 196.5,73.993 C196.5,98.281 195.767,114.339 192.019,124.545 L191.981,124.648 L191.971,124.658 C191.553,125.789 191.101,126.838 190.626,127.778 L190.488,128.053 L43.169,128.053 L43.169,128.053 Z" id="Fill-4" fill="#FFF4D6"></path>
        <path d="M65.059,20.676 C62.679,15.023 59.198,11.441 56.697,9.432 L56.053,8.916 L56.809,8.584 C61.199,6.661 66.788,5.285 73.896,4.376 L74.158,4.343 L74.332,4.54 C76.016,6.422 79.986,11.509 80.508,18.063 L80.55,18.587 L80.024,18.603 C75.119,18.74 70.289,19.533 65.667,20.96 L65.235,21.094 L65.059,20.676 L65.059,20.676 Z M168.002,20.96 C163.381,19.533 158.551,18.74 153.646,18.603 L153.121,18.587 L153.162,18.063 C153.673,11.521 157.651,6.426 159.337,4.54 L159.513,4.343 L159.773,4.376 C166.891,5.287 172.477,6.663 176.851,8.584 L177.605,8.916 L176.963,9.432 C174.469,11.436 170.995,15.014 168.611,20.676 L168.435,21.094 L168.002,20.96 L168.002,20.96 Z M132.299,106.636 C131.726,105.274 130.72,103.259 129.185,101.401 L128.508,100.583 L135.125,100.583 L135.12,101.086 C135.108,102.494 134.759,104.618 133.159,106.743 L132.636,107.438 L132.299,106.636 L132.299,106.636 Z M100.512,106.744 C98.902,104.619 98.551,102.494 98.54,101.086 L98.536,100.583 L105.162,100.583 L104.485,101.401 C102.918,103.298 101.927,105.293 101.372,106.634 L101.038,107.439 L100.512,106.744 L100.512,106.744 Z" id="Fill-5" fill="#F0F1EF"></path>
        <path d="M195.016,38.789 C193.393,26.073 190.173,18.422 184.252,13.209 C182.972,12.07 181.511,11.027 179.909,10.109 L179.634,9.951 L179.375,10.132 C177.636,11.343 173.295,14.853 170.531,21.265 L170.323,21.747 L170.815,21.931 C180.02,25.372 188.081,31.329 194.124,39.158 L195.249,40.615 L195.016,38.789 L195.016,38.789 Z M116.83,2.663 C98.271,2.663 86.5,3.052 77.47,3.965 L76.573,4.056 L77.125,4.768 C78.959,7.141 82.098,12.029 82.511,18.116 L82.542,18.57 L82.997,18.583 C95.337,18.909 107.236,23.545 116.501,31.639 L116.83,31.926 L117.159,31.64 C126.435,23.545 138.337,18.908 150.673,18.583 L151.129,18.57 L151.159,18.116 C151.56,12.06 154.7,7.153 156.536,4.768 L157.084,4.055 L156.19,3.965 C147.16,3.052 135.389,2.663 116.83,2.663 L116.83,2.663 Z M63.14,21.265 L63.347,21.747 L62.855,21.931 C53.654,25.37 45.59,31.327 39.536,39.158 L38.41,40.615 L38.644,38.789 C40.279,26.062 43.499,18.412 49.41,13.207 C50.705,12.064 52.169,11.021 53.761,10.109 L54.035,9.952 L54.294,10.131 C56.028,11.329 60.361,14.812 63.14,21.265 L63.14,21.265 Z" id="Fill-6" fill="#515163"></path>
        <path d="M106.36,139.913 L127.3,139.913 L127.3,135.583 L106.36,135.583 L106.36,139.913 Z M137.12,145.163 L137.631,145.152 C146.112,144.968 152.6,144.634 158.049,144.1 C162.212,143.691 165.799,143.158 169.015,142.471 C176.123,140.947 181.203,138.664 185.002,135.287 C186.491,133.964 187.758,132.506 188.876,130.83 L189.394,130.053 L137.12,130.053 L137.12,145.163 L137.12,145.163 Z M44.794,130.83 C45.926,132.528 47.194,133.986 48.668,135.287 C52.481,138.667 57.561,140.95 64.655,142.471 C67.875,143.159 71.465,143.692 75.631,144.1 C81.07,144.634 87.555,144.968 96.039,145.152 L96.55,145.163 L96.55,130.053 L44.276,130.053 L44.794,130.83 L44.794,130.83 Z M216.891,132.333 C213.125,121.835 201.676,110.813 198.257,107.684 L197.519,107.008 L197.422,108.004 C196.768,114.742 195.71,120.143 194.188,124.519 L194.096,124.784 L194.274,125 C198.376,129.984 210.315,136.594 215.216,136.595 L215.217,136.595 C215.819,136.595 216.318,136.495 216.702,136.295 C217.836,135.703 217.43,133.813 216.891,132.333 L216.891,132.333 Z M39.481,124.518 L39.575,124.783 L39.395,125.001 C35.284,129.985 23.346,136.595 18.454,136.595 C17.852,136.595 17.352,136.495 16.97,136.296 C15.834,135.703 16.24,133.813 16.78,132.331 C20.55,121.823 31.987,110.809 35.403,107.684 L36.14,107.009 L36.238,108.004 C36.907,114.792 37.968,120.194 39.481,124.518 L39.481,124.518 Z" id="Fill-7" fill="#515163"></path>
        <path d="M168.91,141.982 C175.81,140.502 180.89,138.272 184.67,134.913 C186.1,133.643 187.36,132.203 188.46,130.553 L137.62,130.553 L137.62,144.652 C145.44,144.482 152.18,144.172 158,143.603 C162.07,143.203 165.68,142.672 168.91,141.982 L168.91,141.982 Z M161.67,146.333 C161.67,146.283 161.66,146.232 161.66,146.192 C160.57,146.333 159.45,146.453 158.3,146.563 C153.67,147.033 148.49,147.333 142.68,147.513 C142.82,154.893 144.25,161.063 146.22,165.223 C147.97,168.893 150.12,170.993 152.17,170.993 C156.66,170.993 161.67,160.862 161.67,146.333 L161.67,146.333 Z M146.89,171.493 C145.6,170.192 144.43,168.422 143.43,166.272 C141.22,161.553 139.82,155.002 139.68,147.603 C132.91,147.783 125.33,147.833 116.83,147.833 C108.34,147.833 100.76,147.783 93.99,147.603 C93.85,155.002 92.44,161.553 90.23,166.272 C89.23,168.422 88.06,170.192 86.77,171.493 L146.89,171.493 L146.89,171.493 Z M87.44,165.223 C89.41,161.063 90.85,154.893 90.99,147.513 C85.18,147.333 80.01,147.033 75.38,146.563 C74.22,146.453 73.09,146.333 72,146.192 L72,146.333 C72,160.862 77.01,170.993 81.5,170.993 C83.54,170.993 85.7,168.893 87.44,165.223 L87.44,165.223 Z M75.68,143.603 C81.49,144.172 88.23,144.482 96.05,144.652 L96.05,130.553 L45.21,130.553 C46.31,132.203 47.56,133.643 49,134.913 C52.79,138.272 57.86,140.502 64.76,141.982 C67.99,142.672 71.6,143.203 75.68,143.603 L75.68,143.603 Z M99.05,130.553 L99.05,144.712 C104.47,144.803 110.38,144.833 116.83,144.833 C123.29,144.833 129.2,144.803 134.62,144.712 L134.62,130.553 L99.05,130.553 L99.05,130.553 Z M43.48,127.553 L190.18,127.553 C190.68,126.563 191.13,125.502 191.54,124.382 C191.54,124.382 191.54,124.382 191.55,124.373 C195.24,114.323 196,98.823 196,73.993 C196,62.482 195.8,52.942 195.16,44.993 C185.83,29.993 169.76,21.053 152.1,21.053 C139.38,21.053 127.21,25.783 117.85,34.373 L116.83,35.303 L115.82,34.373 C106.45,25.783 94.29,21.053 81.56,21.053 C63.91,21.053 47.84,29.993 38.51,44.993 C38.47,45.493 38.43,45.993 38.39,46.502 C37.84,54.143 37.67,63.203 37.67,73.993 C37.67,98.823 38.42,114.323 42.12,124.373 L42.12,124.382 C42.54,125.502 42.99,126.563 43.48,127.553 L43.48,127.553 Z M39.01,124.683 C37.41,120.112 36.39,114.643 35.74,108.053 C31.85,111.612 20.92,122.272 17.25,132.502 C16.94,133.353 16.32,135.393 17.2,135.853 C20.42,137.522 34.44,130.223 39.01,124.683 L39.01,124.683 Z M39.14,38.852 C45.31,30.873 53.45,24.913 62.68,21.462 C59.95,15.123 55.66,11.683 54.01,10.542 C52.44,11.442 51.02,12.453 49.74,13.583 C43.8,18.812 40.71,26.632 39.14,38.852 L39.14,38.852 Z M57.01,9.042 C59.35,10.922 63.04,14.592 65.52,20.482 C70.15,19.053 75.01,18.243 80.01,18.103 C79.49,11.583 75.39,6.473 73.96,4.873 C66.99,5.763 61.46,7.092 57.01,9.042 L57.01,9.042 Z M77.52,4.462 C79.6,7.152 82.6,12.042 83.01,18.083 C95.5,18.413 107.42,23.042 116.83,31.263 C126.25,23.042 138.16,18.413 150.66,18.083 C151.06,12.042 154.07,7.152 156.14,4.462 C146.05,3.442 133.24,3.163 116.83,3.163 C100.43,3.163 87.61,3.442 77.52,4.462 L77.52,4.462 Z M159.71,4.873 C158.28,6.473 154.17,11.583 153.66,18.103 C158.66,18.243 163.52,19.053 168.15,20.482 C170.63,14.592 174.31,10.922 176.65,9.042 C172.21,7.092 166.67,5.763 159.71,4.873 L159.71,4.873 Z M170.99,21.462 C180.22,24.913 188.36,30.873 194.52,38.852 C192.96,26.632 189.86,18.812 183.92,13.583 C182.65,12.453 181.23,11.442 179.66,10.542 C178.01,11.692 173.71,15.152 170.99,21.462 L170.99,21.462 Z M197.92,108.053 C197.28,114.643 196.25,120.112 194.66,124.683 C199.22,130.223 213.25,137.522 216.47,135.853 C217.35,135.393 216.73,133.353 216.42,132.502 C212.75,122.272 201.81,111.612 197.92,108.053 L197.92,108.053 Z M34.8,89.922 C34.7,85.042 34.67,79.752 34.67,73.993 C34.67,72.442 34.67,70.933 34.68,69.442 C30.45,69.603 17.86,70.652 8.01,77.192 C14.06,78.723 27.1,82.703 34.8,89.922 L34.8,89.922 Z M198.87,89.922 C206.57,82.703 219.61,78.723 225.65,77.192 C215.8,70.652 203.21,69.603 198.99,69.442 C199,70.933 199,72.442 199,73.993 C199,79.752 198.97,85.042 198.87,89.922 L198.87,89.922 Z M169.53,144.893 C167.99,145.223 166.37,145.522 164.66,145.783 C164.66,145.962 164.67,146.143 164.67,146.333 C164.67,157.643 161.74,167.163 157.44,171.493 L209,171.493 C209.83,171.493 210.5,172.163 210.5,172.993 C210.5,173.823 209.83,174.493 209,174.493 L31.12,174.493 L24.09,170.743 L18.45,174.493 L1.83,174.493 C1,174.493 0.33,173.823 0.33,172.993 C0.33,172.163 1,171.493 1.83,171.493 L17.55,171.493 L23.91,167.252 L31.87,171.493 L76.23,171.493 C71.92,167.163 69,157.643 69,146.333 C69,146.143 69.01,145.962 69.01,145.783 C67.3,145.522 65.68,145.223 64.14,144.893 C56.7,143.303 51.19,140.873 47,137.163 C44.13,134.612 41.93,131.533 40.23,127.763 C35.34,132.643 24.68,139.063 18.47,139.063 C17.45,139.063 16.55,138.893 15.82,138.513 C14.31,137.732 12.85,135.873 14.42,131.493 C19.17,118.263 34.54,105.073 35.19,104.522 C35.27,104.462 35.35,104.402 35.43,104.362 C35.2,101.292 35.04,97.993 34.92,94.462 C26.71,83.982 4.43,79.433 4.21,79.382 L1.09,78.763 L3.55,76.752 C14.57,67.772 29.89,66.583 34.7,66.433 C34.78,58.833 34.98,52.163 35.42,46.283 C35.46,45.632 35.51,44.982 35.56,44.352 C35.57,44.312 35.57,44.272 35.57,44.232 C36.96,27.862 40.29,17.913 47.76,11.333 C58.66,1.712 77.05,0.163 116.83,0.163 C156.61,0.163 175,1.712 185.91,11.333 C193.38,17.913 196.7,27.862 198.09,44.232 C198.1,44.272 198.1,44.312 198.1,44.352 C198.11,44.482 198.12,44.612 198.13,44.743 C198.65,50.993 198.88,58.163 198.96,66.433 C203.78,66.583 219.1,67.772 230.12,76.752 L232.58,78.763 L229.46,79.382 C229.23,79.433 206.96,83.982 198.75,94.462 C198.63,97.993 198.47,101.292 198.24,104.362 C198.32,104.402 198.4,104.462 198.47,104.522 C199.12,105.073 214.5,118.263 219.25,131.493 C220.82,135.873 219.36,137.732 217.85,138.513 C217.12,138.893 216.22,139.063 215.2,139.063 C208.99,139.063 198.32,132.643 193.44,127.763 C191.74,131.533 189.53,134.612 186.66,137.163 C182.48,140.873 176.97,143.303 169.53,144.893 L169.53,144.893 Z M84.33,61.663 C84.33,56.243 79.92,51.833 74.5,51.833 C69.08,51.833 64.67,56.243 64.67,61.663 L64.67,84.993 C64.67,90.413 69.08,94.833 74.5,94.833 C79.92,94.833 84.33,90.413 84.33,84.993 L84.33,61.663 L84.33,61.663 Z M87.33,61.663 L87.33,84.993 C87.33,92.073 81.58,97.833 74.5,97.833 C67.42,97.833 61.67,92.073 61.67,84.993 L61.67,61.663 C61.67,54.583 67.42,48.833 74.5,48.833 C81.58,48.833 87.33,54.583 87.33,61.663 L87.33,61.663 Z M76.5,67.913 C74.29,67.913 72.5,69.703 72.5,71.913 C72.5,74.123 74.29,75.913 76.5,75.913 C78.71,75.913 80.5,74.123 80.5,71.913 C80.5,69.703 78.71,67.913 76.5,67.913 L76.5,67.913 Z M134.62,101.083 L129.57,101.083 C131.09,102.922 132.12,104.922 132.76,106.442 C134.31,104.382 134.61,102.323 134.62,101.083 L134.62,101.083 Z M104.1,101.083 L99.04,101.083 C99.05,102.333 99.35,104.382 100.91,106.442 C101.54,104.922 102.58,102.922 104.1,101.083 L104.1,101.083 Z M144.67,92.413 C144.67,96.643 141.62,100.163 137.62,100.922 C137.63,103.103 137.04,107.013 133.15,110.382 L131.33,111.962 L130.72,109.632 C130.7,109.573 129.2,104.123 125.32,101.083 L108.35,101.083 C104.47,104.123 102.96,109.573 102.95,109.632 L102.33,111.953 L100.52,110.382 C96.63,107.013 96.03,103.103 96.05,100.922 C92.04,100.163 89,96.643 89,92.413 C89,91.583 89.67,90.913 90.5,90.913 C91.33,90.913 92,91.583 92,92.413 C92,95.542 94.54,98.083 97.67,98.083 L136,98.083 C139.12,98.083 141.67,95.542 141.67,92.413 C141.67,91.583 142.34,90.913 143.17,90.913 C144,90.913 144.67,91.583 144.67,92.413 L144.67,92.413 Z M106.86,139.413 L126.8,139.413 L126.8,136.083 L106.86,136.083 L106.86,139.413 Z M103.86,142.413 L129.8,142.413 L129.8,133.083 L103.86,133.083 L103.86,142.413 Z M169,61.663 C169,56.243 164.59,51.833 159.17,51.833 C153.74,51.833 149.33,56.243 149.33,61.663 L149.33,84.993 C149.33,90.413 153.74,94.833 159.17,94.833 C164.59,94.833 169,90.413 169,84.993 L169,61.663 L169,61.663 Z M172,61.663 L172,84.993 C172,92.073 166.24,97.833 159.17,97.833 C152.09,97.833 146.33,92.073 146.33,84.993 L146.33,61.663 C146.33,54.583 152.09,48.833 159.17,48.833 C166.24,48.833 172,54.583 172,61.663 L172,61.663 Z M157.17,67.913 C154.96,67.913 153.17,69.703 153.17,71.913 C153.17,74.123 154.96,75.913 157.17,75.913 C159.38,75.913 161.17,74.123 161.17,71.913 C161.17,69.703 159.38,67.913 157.17,67.913 L157.17,67.913 Z M233.33,172.993 C233.33,173.823 232.66,174.493 231.83,174.493 L218.42,174.493 C217.59,174.493 216.92,173.823 216.92,172.993 C216.92,172.163 217.59,171.493 218.42,171.493 L231.83,171.493 C232.66,171.493 233.33,172.163 233.33,172.993 L233.33,172.993 Z" id="Fill-8" fill="#3B3B4D"></path>
    </g>
</svg>