<?xml version="1.0" encoding="UTF-8" standalone="no"?>
<svg width="234px" height="194px" viewBox="0 0 234 194" version="1.1" xmlns="http://www.w3.org/2000/svg" xmlns:xlink="http://www.w3.org/1999/xlink">
    <!-- Generator: Sketch 39.1 (31720) - http://www.bohemiancoding.com/sketch -->
    <title>Slice 1</title>
    <desc>Created with Sketch.</desc>
    <defs></defs>
    <g id="Page-1" stroke="none" stroke-width="1" fill="none" fill-rule="evenodd">
        <path d="M159.01,13.331 C158.49,13.331 158.03,13.767 158,14.283 C157.97,14.833 158.4,15.307 158.95,15.333 C161.34,15.456 163.62,15.69 165.73,16.029 C165.79,16.042 165.84,16.042 165.89,16.042 C166.38,16.042 166.8,15.689 166.88,15.203 C166.92,14.938 166.86,14.672 166.7,14.456 C166.54,14.24 166.31,14.098 166.05,14.056 C163.88,13.707 161.52,13.463 159.05,13.332 L159.01,12.831 L159.01,13.331 L159.01,13.331 Z M36.68,49.84 C36.758,32.51 38.148,21.11 45.023,14.122 C54.596,4.377 75.795,2.663 116.8,2.663 C119.991,2.663 123.06,2.672 126.02,2.692 C159.57,2.962 179.47,4.863 188.57,14.123 C193.24,18.86 195.6,25.665 196.47,36.874 L195.49,37.067 C193.13,29.785 187.35,20.172 173.26,15.74 C173.16,15.708 173.06,15.692 172.95,15.692 C172.51,15.692 172.13,15.974 172,16.394 C171.84,16.917 172.13,17.481 172.65,17.646 C185.61,21.731 191.07,30.265 193.37,36.705 L192.5,37.167 C187.29,30.043 178.83,25.922 167.36,24.92 L167.26,24.916 C166.75,24.916 166.31,25.315 166.27,25.825 C166.22,26.379 166.63,26.868 167.17,26.915 C186.7,28.624 192.75,39.374 194.63,45.629 L193.74,46.053 C193.47,45.657 193.19,45.262 192.91,44.866 C187.34,37.253 179.39,33.393 169.27,33.393 L80.174,33.393 L71.714,24.426 L63.87,33.398 L63.648,33.402 C48.646,33.664 41.219,42.604 37.63,50.059 L36.68,49.84 L36.68,49.84 Z" id="Fill-24" fill="#515163"></path>
        <path d="M132.94,128.833 C131.66,128.833 130.46,128.212 129.71,127.173 C126.85,123.204 122.22,120.833 117.35,120.833 L117.322,120.833 C117.152,120.833 116.99,120.833 116.827,120.842 C116.604,120.833 116.437,120.833 116.264,120.833 L116.24,120.833 C111.365,120.833 106.742,123.204 103.875,127.175 C103.135,128.212 101.933,128.833 100.66,128.833 L93.62,128.833 C92.859,128.833 92.24,128.218 92.24,127.462 C92.24,123.123 93.441,118.862 95.713,115.142 L96.212,114.324 L96.598,115.201 C97.732,117.788 98.853,119.43 99.751,119.825 C100.026,119.951 100.367,120.013 100.77,120.013 C103.629,120.013 108.326,117.199 108.371,117.17 C110.304,115.928 110.854,113.558 107.259,106.039 L107.024,105.547 L107.533,105.355 C110.205,104.345 113.01,103.833 115.87,103.833 C116.166,103.833 116.462,103.842 116.758,103.853 L116.85,103.853 C117.128,103.842 117.424,103.833 117.72,103.833 C130.75,103.833 141.35,114.433 141.35,127.462 C141.35,128.218 140.73,128.833 139.97,128.833 L132.94,128.833" id="Fill-25" fill="#DB807E"></path>
        <path d="M100.563,118.019 L100.437,117.906 C99.721,117.268 98.539,114.772 97.744,112.724 L97.636,112.445 L97.829,112.218 C99.791,109.915 102.117,108.031 104.744,106.622 L105.206,106.374 L105.432,106.847 C109.016,114.362 107.72,115.212 107.294,115.491 C105.782,116.452 102.151,118.036 100.852,118.036 L100.563,118.019" id="Fill-26" fill="#FFFFFF"></path>
        <path d="M174.46,145.382 L174.45,145.163 L174.42,145.131 C173.85,141.655 170.81,139.053 167.27,139.053 C163.26,139.053 160,142.314 160,146.323 C160,150.326 163.26,153.583 167.27,153.583 C171.27,153.583 174.53,150.326 174.53,146.323 C174.53,145.98 174.5,145.649 174.46,145.382 L174.46,145.382 Z M73.59,146.323 C73.59,150.326 70.333,153.583 66.33,153.583 C62.364,153.583 59.103,150.364 59.06,146.408 C59.06,145.98 59.091,145.649 59.134,145.318 L59.156,145.149 L59.176,145.129 C59.735,141.834 62.366,139.39 65.654,139.084 C65.866,139.063 66.104,139.053 66.33,139.053 C70.333,139.053 73.59,142.314 73.59,146.323 L73.59,146.323 Z" id="Fill-27" fill="#48A4A3"></path>
        <path d="M157.85,96.833 C155.92,96.833 154.35,95.262 154.35,93.333 C154.35,91.403 155.92,89.833 157.85,89.833 C159.78,89.833 161.35,91.403 161.35,93.333 C161.35,95.262 159.78,96.833 157.85,96.833 L157.85,96.833 Z M159.13,69.333 C153.72,69.333 148.8,74.733 148.8,80.663 L148.8,103.993 C148.8,109.694 153.43,114.333 159.13,114.333 C164.83,114.333 169.46,109.694 169.46,103.993 L169.46,80.663 C169.46,74.733 164.54,69.333 159.13,69.333 L159.13,69.333 Z M75.74,96.833 C73.811,96.833 72.24,95.262 72.24,93.333 C72.24,91.403 73.811,89.833 75.74,89.833 C77.67,89.833 79.24,91.403 79.24,93.333 C79.24,95.262 77.67,96.833 75.74,96.833 L75.74,96.833 Z M74.46,69.333 C69.054,69.333 64.13,74.733 64.13,80.663 L64.13,103.993 C64.13,109.694 68.764,114.333 74.46,114.333 C80.161,114.333 84.8,109.694 84.8,103.993 L84.8,80.663 C84.8,74.733 79.871,69.333 74.46,69.333 L74.46,69.333 Z" id="Fill-28" fill="#FFFFFF"></path>
        <path d="M175.36,141.826 C174.43,140.159 173.02,138.83 171.28,137.982 L170.65,137.676 L171.15,137.18 C174.9,133.418 184.75,123.921 195.24,116.985 L196.07,116.439 L196.02,117.428 C195.88,120.126 195.75,122.151 195.6,123.994 L195.58,124.199 L195.42,124.333 C187.56,131.033 179.32,138.879 176.15,141.942 L175.68,142.394 L175.36,141.826 L175.36,141.826 Z M57.453,141.943 C53.437,138.08 45.589,130.656 38.166,124.333 L38.009,124.199 L37.992,123.994 C37.836,122.103 37.701,119.955 37.581,117.426 L37.533,116.441 L38.356,116.985 C48.779,123.884 58.681,133.406 62.453,137.179 L62.95,137.677 L62.317,137.983 C60.566,138.83 59.156,140.158 58.237,141.824 L57.923,142.395 L57.453,141.943 L57.453,141.943 Z M116.8,164.333 C94.385,164.333 79.25,163.977 68.219,162.156 C59.232,160.67 53.008,158.169 48.628,154.287 C46.325,152.24 44.484,149.79 43.002,146.794 L42.645,146.073 L57.068,146.073 L57.08,146.561 C57.202,151.535 61.353,155.583 66.33,155.583 C71.299,155.583 75.448,151.535 75.58,146.56 L75.593,146.073 L158,146.073 L158.01,146.56 C158.14,151.535 162.3,155.583 167.27,155.583 C172.24,155.583 176.39,151.535 176.52,146.56 L176.53,146.073 L190.95,146.073 L190.59,146.794 C189.1,149.806 187.26,152.256 184.96,154.287 C180.6,158.167 174.38,160.667 165.38,162.156 C154.35,163.977 139.21,164.333 116.8,164.333 L116.8,164.333 Z M81.46,190.493 C76.631,190.493 71.46,180.383 71.46,165.333 L71.468,165.204 L71.468,164.638 L72.031,164.696 C77.212,165.343 83.405,165.773 90.966,166.013 L91.459,166.029 L91.45,166.522 C91.183,180.861 86.068,190.493 81.46,190.493 L81.46,190.493 Z M152.13,190.493 C147.53,190.493 142.42,180.861 142.14,166.522 L142.13,166.029 L142.62,166.013 C150.18,165.773 156.38,165.343 161.57,164.696 L162.13,164.626 L162.13,165.333 C162.13,180.383 156.96,190.493 152.13,190.493 L152.13,190.493 Z" id="Fill-29" fill="#6D6F58"></path>
        <path d="M184.89,57.252 L188.84,48.684 C189.07,48.184 188.85,47.589 188.35,47.355 C188.22,47.297 188.08,47.267 187.94,47.267 C187.54,47.267 187.19,47.491 187.02,47.852 L182.68,57.252 L162.68,57.252 L156.51,47.725 C156.32,47.44 156.01,47.269 155.67,47.269 C155.47,47.269 155.29,47.325 155.12,47.432 C154.9,47.577 154.75,47.8 154.69,48.062 C154.64,48.323 154.68,48.588 154.83,48.809 L160.3,57.252 L135.54,57.252 L141.92,48.87 C142.09,48.658 142.16,48.4 142.12,48.138 C142.09,47.87 141.95,47.633 141.74,47.471 C141.56,47.339 141.35,47.269 141.14,47.269 C140.82,47.269 140.53,47.413 140.34,47.665 L133.03,57.252 L100.562,57.252 L93.263,47.665 C93.068,47.414 92.773,47.269 92.455,47.269 C92.235,47.269 92.027,47.339 91.852,47.471 C91.642,47.63 91.506,47.864 91.471,48.128 C91.435,48.395 91.504,48.658 91.666,48.868 L98.049,57.252 L73.29,57.252 L78.76,48.81 C78.907,48.585 78.957,48.317 78.901,48.056 C78.846,47.797 78.692,47.576 78.47,47.434 C78.305,47.325 78.116,47.269 77.923,47.269 C77.584,47.269 77.273,47.439 77.091,47.723 L70.911,57.252 L50.911,57.252 L46.565,47.852 C46.399,47.491 46.051,47.267 45.654,47.267 C45.51,47.267 45.369,47.297 45.236,47.358 C44.74,47.589 44.521,48.184 44.753,48.681 L48.711,57.252 L37.095,57.252 L37.256,56.628 C38.539,51.646 44.283,35.393 64.33,35.393 L64.783,35.393 L71.776,27.399 L79.315,35.393 L169.27,35.393 C178.67,35.393 186.06,38.878 191.22,45.752 C194.39,49.961 195.85,54.372 196.43,56.626 L196.6,57.252 L184.89,57.252 L184.89,57.252 Z M41.813,144.073 L41.691,143.748 C40.186,139.711 39.109,134.667 38.403,128.328 L38.262,127.053 L39.229,127.896 C45.938,133.74 52.546,140 55.887,143.212 L56.781,144.073 L41.813,144.073 L41.813,144.073 Z M74.46,67.333 C67.892,67.333 62.13,73.562 62.13,80.663 L62.13,103.993 C62.13,110.797 67.661,116.333 74.46,116.333 C81.265,116.333 86.8,110.797 86.8,103.993 L86.8,80.663 C86.8,73.562 81.033,67.333 74.46,67.333 L74.46,67.333 Z M159.13,67.333 C152.56,67.333 146.8,73.562 146.8,80.663 L146.8,103.993 C146.8,110.797 152.33,116.333 159.13,116.333 C165.93,116.333 171.46,110.797 171.46,103.993 L171.46,80.663 C171.46,73.562 165.7,67.333 159.13,67.333 L159.13,67.333 Z M117.356,122.833 C121.59,122.833 125.6,124.895 128.09,128.351 C129.21,129.904 131.03,130.833 132.94,130.833 L139.97,130.833 C141.83,130.833 143.35,129.321 143.35,127.462 C143.35,113.33 131.85,101.833 117.72,101.833 C117.416,101.833 117.111,101.842 116.816,101.852 C116.479,101.842 116.174,101.833 115.87,101.833 C112.205,101.833 108.661,102.598 105.337,104.107 L105.218,104.151 C105.222,104.151 105.188,104.173 105.153,104.19 C101.515,105.878 98.286,108.422 95.802,111.553 C95.722,111.638 95.69,111.686 95.657,111.733 C92.109,116.289 90.24,121.723 90.24,127.462 C90.24,129.321 91.757,130.833 93.62,130.833 L100.66,130.833 C102.574,130.833 104.385,129.905 105.505,128.351 C107.992,124.895 111.998,122.831 116.22,122.831 C116.4,122.831 116.58,122.835 116.762,122.843 L116.86,122.842 C117.013,122.836 117.185,122.833 117.356,122.833 L117.356,122.833 Z M75.316,144.073 L75.211,143.714 C74.058,139.792 70.406,137.053 66.33,137.053 C66.048,137.053 65.774,137.072 65.501,137.1 L65.179,137.103 L65.031,136.952 C62.685,134.542 50.335,122.12 37.654,114.166 L37.43,114.025 L37.42,113.76 C37.263,109.27 37.171,104.335 37.14,98.675 L37.13,92.993 C37.13,84.129 36.996,76.02 36.878,68.865 C36.878,68.865 36.76,61.78 36.73,59.76 L36.724,59.252 L49.629,59.252 L52.754,66.002 C52.917,66.361 53.264,66.583 53.66,66.583 C53.812,66.583 53.952,66.552 54.066,66.495 C54.321,66.376 54.506,66.175 54.599,65.925 C54.69,65.675 54.679,65.405 54.566,65.165 L51.839,59.252 L69.609,59.252 L67.22,62.944 C67.075,63.166 67.026,63.43 67.082,63.688 C67.138,63.951 67.294,64.176 67.521,64.322 C67.685,64.427 67.871,64.482 68.06,64.482 C68.399,64.482 68.715,64.313 68.903,64.027 L71.998,59.252 L99.577,59.252 L104.867,66.189 C105.052,66.438 105.347,66.583 105.66,66.583 C105.882,66.583 106.091,66.512 106.264,66.377 C106.481,66.212 106.619,65.978 106.653,65.714 C106.688,65.451 106.618,65.19 106.454,64.979 L102.09,59.252 L131.5,59.252 L127.14,64.976 C126.8,65.416 126.89,66.044 127.32,66.374 C127.5,66.512 127.71,66.583 127.93,66.583 C128.24,66.583 128.54,66.438 128.72,66.194 L134.01,59.252 L161.59,59.252 L164.69,64.031 C164.88,64.313 165.19,64.482 165.53,64.482 C165.72,64.482 165.91,64.427 166.09,64.317 C166.3,64.179 166.45,63.955 166.51,63.693 C166.56,63.432 166.52,63.167 166.37,62.946 L163.98,59.252 L181.75,59.252 L179.02,65.162 C178.91,65.405 178.9,65.675 178.99,65.925 C179.08,66.175 179.27,66.376 179.51,66.489 C179.64,66.553 179.78,66.583 179.93,66.583 C180.33,66.583 180.67,66.361 180.83,66.005 L183.96,59.252 L196.87,59.252 L196.86,59.76 C196.83,61.72 196.8,63.752 196.76,65.855 L196.71,68.873 C196.59,76.025 196.46,84.132 196.46,92.993 C196.46,101.799 196.37,108.204 196.17,113.761 L196.16,114.025 L195.94,114.166 C183.27,122.112 170.91,134.541 168.56,136.952 L168.39,137.123 L168.15,137.1 C167.86,137.072 167.56,137.053 167.27,137.053 C163.19,137.053 159.53,139.792 158.38,143.713 L158.27,144.073 L75.316,144.073 L75.316,144.073 Z M176.81,144.073 L177.7,143.212 C181.04,140 187.65,133.739 194.36,127.896 L195.33,127.053 L195.19,128.328 C194.48,134.705 193.4,139.749 191.9,143.749 L191.78,144.073 L176.81,144.073 L176.81,144.073 Z M18.411,155.595 C17.81,155.595 17.311,155.495 16.93,155.296 C15.795,154.703 16.2,152.813 16.74,151.332 C20.505,140.838 31.953,129.813 35.372,126.684 L36.111,126.008 L36.208,127.004 C36.861,133.74 37.919,139.141 39.442,143.519 L39.534,143.784 L39.355,144 C35.254,148.985 23.313,155.595 18.411,155.595 L18.411,155.595 Z M215.18,155.595 C210.29,155.595 198.35,148.985 194.23,144.001 L194.05,143.783 L194.15,143.518 C195.67,139.178 196.72,133.776 197.38,127.004 L197.48,126.008 L198.22,126.684 C201.64,129.813 213.08,140.838 216.85,151.333 C217.39,152.812 217.8,154.702 216.66,155.295 C216.28,155.495 215.78,155.595 215.18,155.595 L215.18,155.595 Z" id="Fill-30" fill="#91B85E"></path>
        <path d="M75.74,97.333 C77.95,97.333 79.74,95.542 79.74,93.333 C79.74,91.123 77.95,89.333 75.74,89.333 C73.53,89.333 71.74,91.123 71.74,93.333 C71.74,95.542 73.53,97.333 75.74,97.333 L75.74,97.333 Z M64.63,103.993 C64.63,109.413 69.04,113.833 74.46,113.833 C79.88,113.833 84.3,109.413 84.3,103.993 L84.3,80.663 C84.3,74.993 79.61,69.833 74.46,69.833 C69.32,69.833 64.63,74.993 64.63,80.663 L64.63,103.993 L64.63,103.993 Z M61.63,103.993 L61.63,80.663 C61.63,73.292 67.63,66.833 74.46,66.833 C81.3,66.833 87.3,73.292 87.3,80.663 L87.3,103.993 C87.3,111.073 81.54,116.833 74.46,116.833 C67.39,116.833 61.63,111.073 61.63,103.993 L61.63,103.993 Z M92.74,127.462 C92.74,127.942 93.14,128.333 93.62,128.333 L100.66,128.333 C101.77,128.333 102.82,127.792 103.47,126.882 C106.43,122.783 111.2,120.333 116.24,120.333 C116.43,120.333 116.61,120.333 116.8,120.342 C116.98,120.333 117.16,120.333 117.35,120.333 C122.39,120.333 127.16,122.783 130.12,126.882 C130.77,127.792 131.82,128.333 132.94,128.333 L139.97,128.333 C140.46,128.333 140.85,127.942 140.85,127.462 C140.85,114.703 130.47,104.333 117.72,104.333 C117.43,104.333 117.14,104.342 116.85,104.353 L116.74,104.353 C116.45,104.342 116.16,104.333 115.87,104.333 C113,104.333 110.25,104.862 107.71,105.823 C110.99,112.683 111.22,115.933 108.64,117.592 C108.58,117.632 103.77,120.513 100.77,120.513 C100.32,120.513 99.9,120.442 99.55,120.283 C98.3,119.732 97.07,117.522 96.14,115.402 C93.99,118.922 92.74,123.042 92.74,127.462 L92.74,127.462 Z M98.21,112.542 C99.11,114.862 100.22,117.042 100.77,117.533 C101.83,117.612 105.51,116.033 107.02,115.073 C107.89,114.502 107.15,111.612 104.98,107.063 C102.39,108.453 100.1,110.323 98.21,112.542 L98.21,112.542 Z M89.74,127.462 C89.74,121.422 91.8,115.873 95.25,111.442 C95.3,111.373 95.35,111.303 95.41,111.243 C97.94,108.053 101.2,105.473 104.93,103.743 C104.95,103.732 104.97,103.712 104.99,103.703 C105.03,103.683 105.08,103.672 105.13,103.652 C108.41,102.163 112.04,101.333 115.87,101.333 C116.18,101.333 116.49,101.342 116.8,101.353 C117.1,101.342 117.41,101.333 117.72,101.333 C132.13,101.333 143.85,113.053 143.85,127.462 C143.85,129.592 142.11,131.333 139.97,131.333 L132.94,131.333 C130.86,131.333 128.9,130.323 127.68,128.643 C125.19,125.183 121.08,123.172 116.86,123.342 L116.74,123.342 C112.52,123.163 108.4,125.183 105.91,128.643 C104.7,130.323 102.73,131.333 100.66,131.333 L93.62,131.333 C91.48,131.333 89.74,129.592 89.74,127.462 L89.74,127.462 Z M157.85,97.333 C160.06,97.333 161.85,95.542 161.85,93.333 C161.85,91.123 160.06,89.333 157.85,89.333 C155.64,89.333 153.85,91.123 153.85,93.333 C153.85,95.542 155.64,97.333 157.85,97.333 L157.85,97.333 Z M158.93,15.833 C161.26,15.953 163.53,16.183 165.65,16.522 C165.73,16.542 165.81,16.542 165.89,16.542 C166.62,16.542 167.25,16.022 167.37,15.283 C167.5,14.462 166.95,13.692 166.13,13.563 C163.89,13.203 161.52,12.962 159.08,12.833 C158.28,12.792 157.55,13.433 157.5,14.252 C157.46,15.083 158.1,15.792 158.93,15.833 L158.93,15.833 Z M149.3,103.993 C149.3,109.413 153.71,113.833 159.13,113.833 C164.55,113.833 168.96,109.413 168.96,103.993 L168.96,80.663 C168.96,74.993 164.28,69.833 159.13,69.833 C153.98,69.833 149.3,74.993 149.3,80.663 L149.3,103.993 L149.3,103.993 Z M146.3,103.993 L146.3,80.663 C146.3,73.292 152.29,66.833 159.13,66.833 C165.97,66.833 171.96,73.292 171.96,80.663 L171.96,103.993 C171.96,111.073 166.21,116.833 159.13,116.833 C152.05,116.833 146.3,111.073 146.3,103.993 L146.3,103.993 Z M216.38,151.502 C212.71,141.272 201.77,130.612 197.88,127.053 C197.24,133.643 196.22,139.112 194.62,143.683 C199.19,149.223 213.21,156.522 216.43,154.853 C217.31,154.393 216.69,152.353 216.38,151.502 L216.38,151.502 Z M194.69,128.272 C187.87,134.212 181.14,140.603 178.05,143.573 L191.43,143.573 C192.97,139.473 194,134.462 194.69,128.272 L194.69,128.272 Z M190.14,146.573 L177.02,146.573 C176.88,151.842 172.56,156.083 167.27,156.083 C161.97,156.083 157.65,151.842 157.51,146.573 L76.08,146.573 C75.94,151.842 71.62,156.083 66.33,156.083 C61.03,156.083 56.71,151.842 56.58,146.573 L43.45,146.573 C44.91,149.522 46.72,151.922 48.96,153.913 C53.37,157.823 59.53,160.212 68.3,161.663 C79.57,163.522 95.13,163.833 116.8,163.833 C138.46,163.833 154.03,163.522 165.3,161.663 C174.06,160.212 180.23,157.823 184.63,153.913 C186.88,151.922 188.68,149.522 190.14,146.573 L190.14,146.573 Z M161.63,165.192 C156.17,165.873 149.9,166.283 142.64,166.513 C142.91,180.413 147.76,189.993 152.13,189.993 C156.62,189.993 161.63,179.862 161.63,165.333 L161.63,165.192 L161.63,165.192 Z M146.86,190.493 C142.72,186.333 139.85,177.362 139.64,166.603 C132.87,166.783 125.29,166.833 116.8,166.833 C108.3,166.833 100.72,166.783 93.95,166.603 C93.74,177.362 90.88,186.333 86.74,190.493 L146.86,190.493 L146.86,190.493 Z M90.95,166.513 C83.69,166.283 77.42,165.873 71.97,165.192 C71.97,165.232 71.96,165.283 71.96,165.333 C71.96,179.862 76.97,189.993 81.46,189.993 C85.83,189.993 90.69,180.413 90.95,166.513 L90.95,166.513 Z M42.16,143.573 L55.54,143.573 C52.45,140.603 45.72,134.212 38.9,128.272 C39.59,134.462 40.63,139.473 42.16,143.573 L42.16,143.573 Z M38.97,143.683 C37.38,139.112 36.35,133.643 35.71,127.053 C31.82,130.612 20.88,141.272 17.21,151.502 C16.9,152.353 16.28,154.393 17.16,154.853 C20.37,156.522 34.41,149.223 38.97,143.683 L38.97,143.683 Z M59.56,146.402 C59.6,150.092 62.63,153.083 66.33,153.083 C70.06,153.083 73.09,150.053 73.09,146.323 C73.09,142.592 70.06,139.553 66.33,139.553 C66.12,139.553 65.9,139.563 65.7,139.583 C62.58,139.873 60.07,142.283 59.64,145.362 C59.64,145.373 59.64,145.373 59.63,145.382 C59.59,145.692 59.56,146.002 59.56,146.323 L59.56,146.402 L59.56,146.402 Z M62.1,137.533 C58.29,133.723 48.46,124.272 38.08,117.402 C38.19,119.712 38.32,121.893 38.49,123.953 C46.25,130.563 54.42,138.333 57.8,141.583 C58.77,139.823 60.28,138.413 62.1,137.533 L62.1,137.533 Z M173.96,145.382 C173.96,145.373 173.96,145.373 173.95,145.362 C173.49,142.083 170.67,139.553 167.27,139.553 C163.54,139.553 160.5,142.592 160.5,146.323 C160.5,150.053 163.54,153.083 167.27,153.083 C171,153.083 174.03,150.053 174.03,146.323 C174.03,146.002 174,145.692 173.96,145.382 L173.96,145.382 Z M175.8,141.583 C179.17,138.333 187.34,130.563 195.1,123.953 C195.27,121.893 195.4,119.712 195.52,117.402 C185.13,124.272 175.3,133.723 171.5,137.533 C173.31,138.413 174.82,139.823 175.8,141.583 L175.8,141.583 Z M37.64,98.672 C37.67,104.183 37.76,109.183 37.92,113.743 C50.53,121.652 62.73,133.873 65.39,136.603 L65.45,136.603 C65.74,136.573 66.03,136.553 66.33,136.553 C70.76,136.553 74.5,139.522 75.69,143.573 L157.9,143.573 C159.09,139.522 162.83,136.553 167.27,136.553 C167.58,136.553 167.89,136.573 168.2,136.603 C170.86,133.873 183.06,121.652 195.67,113.743 C195.89,107.663 195.96,100.792 195.96,92.993 C195.96,83.933 196.1,75.672 196.22,68.393 C196.27,65.373 196.32,62.493 196.36,59.752 L184.28,59.752 L181.29,66.212 C181.04,66.763 180.5,67.083 179.93,67.083 C179.72,67.083 179.51,67.042 179.3,66.942 C178.55,66.592 178.22,65.703 178.57,64.953 L180.97,59.752 L164.9,59.752 L166.79,62.672 C167.24,63.362 167.04,64.292 166.35,64.743 C166.09,64.902 165.81,64.982 165.53,64.982 C165.04,64.982 164.56,64.743 164.27,64.303 L161.32,59.752 L134.26,59.752 L129.12,66.493 C128.83,66.882 128.38,67.083 127.93,67.083 C127.61,67.083 127.29,66.982 127.02,66.772 C126.36,66.272 126.24,65.333 126.74,64.672 L130.49,59.752 L103.1,59.752 L106.85,64.672 C107.36,65.333 107.23,66.272 106.57,66.772 C106.3,66.982 105.98,67.083 105.66,67.083 C105.21,67.083 104.76,66.882 104.47,66.493 L99.33,59.752 L72.27,59.752 L69.32,64.303 C69.03,64.743 68.55,64.982 68.06,64.982 C67.78,64.982 67.5,64.902 67.25,64.743 C66.55,64.292 66.35,63.362 66.8,62.672 L68.69,59.752 L52.62,59.752 L55.02,64.953 C55.37,65.703 55.04,66.592 54.29,66.942 C54.09,67.042 53.87,67.083 53.66,67.083 C53.09,67.083 52.55,66.763 52.3,66.212 L49.31,59.752 L37.23,59.752 C37.27,62.493 37.32,65.373 37.37,68.393 C37.49,75.672 37.63,83.933 37.63,92.993 C37.63,94.942 37.64,96.833 37.64,98.672 L37.64,98.672 Z M189.29,48.893 L185.67,56.752 L195.95,56.752 C195.34,54.413 193.89,50.132 190.82,46.053 C186.88,40.803 180.25,35.893 169.27,35.893 L79.1,35.893 L71.79,28.143 L65.01,35.893 L64.33,35.893 C44.8,35.893 39.11,51.433 37.74,56.752 L47.93,56.752 L44.3,48.893 C43.95,48.143 44.28,47.252 45.03,46.902 C45.78,46.562 46.67,46.882 47.02,47.643 L51.23,56.752 L70.64,56.752 L76.67,47.453 C77.12,46.752 78.05,46.562 78.74,47.013 C79.44,47.462 79.63,48.393 79.18,49.082 L74.21,56.752 L97.04,56.752 L91.27,49.172 C90.77,48.522 90.89,47.573 91.55,47.073 C92.21,46.573 93.15,46.703 93.66,47.362 L100.81,56.752 L132.78,56.752 L139.94,47.362 C140.44,46.703 141.38,46.573 142.04,47.073 C142.7,47.573 142.83,48.522 142.32,49.172 L136.55,56.752 L159.38,56.752 L154.41,49.082 C153.96,48.393 154.16,47.462 154.85,47.013 C155.54,46.562 156.47,46.752 156.93,47.453 L162.95,56.752 L182.36,56.752 L186.57,47.643 C186.92,46.882 187.81,46.562 188.56,46.902 C189.31,47.252 189.64,48.143 189.29,48.893 L189.29,48.893 Z M37.18,49.842 C40.66,42.612 48.15,33.172 63.64,32.902 L71.7,23.683 L80.39,32.893 L169.27,32.893 C181.55,32.893 188.94,38.592 193.31,44.573 C193.6,44.973 193.88,45.373 194.15,45.772 C192.19,39.232 186.09,29.073 167.13,27.413 C166.31,27.342 165.7,26.612 165.77,25.783 C165.84,24.962 166.57,24.342 167.4,24.422 C181.14,25.623 188.71,31.143 192.9,36.873 C190.48,30.092 184.97,22.053 172.5,18.123 C171.71,17.873 171.28,17.033 171.52,16.243 C171.77,15.453 172.61,15.013 173.41,15.263 C187.52,19.703 193.47,29.223 195.97,36.913 C195.17,26.573 193.09,19.422 188.21,14.473 C179.5,5.603 160.88,3.473 126.02,3.192 C123.06,3.172 119.99,3.163 116.8,3.163 C75.94,3.163 54.83,4.853 45.38,14.473 C38.69,21.272 37.26,32.183 37.18,49.842 L37.18,49.842 Z M217.81,157.513 C217.08,157.893 216.18,158.063 215.16,158.063 C208.95,158.063 198.29,151.643 193.4,146.763 C191.7,150.533 189.5,153.612 186.62,156.163 C181.77,160.462 175.14,163.042 165.78,164.592 C165.4,164.663 165.01,164.723 164.62,164.783 C164.62,164.962 164.63,165.143 164.63,165.333 C164.63,176.643 161.7,186.163 157.4,190.493 L211.49,190.493 C212.32,190.493 212.99,191.163 212.99,191.993 C212.99,192.823 212.32,193.493 211.49,193.493 L30.27,193.493 L23.94,189.092 L18.8,193.493 L1.8,193.493 C0.97,193.493 0.3,192.823 0.3,191.993 C0.3,191.163 0.97,190.493 1.8,190.493 L17.69,190.493 L23.75,185.303 L31.21,190.493 L76.19,190.493 C71.89,186.163 68.96,176.643 68.96,165.333 C68.96,165.143 68.97,164.962 68.97,164.783 C68.58,164.723 68.2,164.663 67.82,164.592 C58.45,163.042 51.82,160.473 46.97,156.163 C44.1,153.612 41.89,150.533 40.19,146.763 C35.31,151.643 24.64,158.063 18.43,158.063 C17.41,158.063 16.51,157.893 15.78,157.513 C14.27,156.732 12.81,154.873 14.38,150.493 C19.13,137.263 34.51,124.073 35.16,123.522 C35.23,123.462 35.31,123.402 35.39,123.362 C34.87,116.362 34.69,108.223 34.65,98.683 C34.63,96.833 34.63,94.942 34.63,92.993 C34.63,83.953 34.49,75.712 34.37,68.442 C33.87,38.612 33.59,22.183 43.24,12.362 C53.51,1.922 74.23,0.163 116.8,0.163 C120.01,0.163 123.09,0.172 126.05,0.203 C162.42,0.473 180.85,2.712 190.35,12.362 C200,22.183 199.73,38.612 199.22,68.442 C199.1,75.712 198.96,83.953 198.96,92.993 C198.96,105.022 198.82,115.013 198.2,123.362 C198.28,123.402 198.36,123.462 198.43,123.522 C199.09,124.073 214.46,137.263 219.21,150.493 C220.78,154.873 219.32,156.732 217.81,157.513 L217.81,157.513 Z M233.3,191.993 C233.3,192.823 232.62,193.493 231.8,193.493 L219.74,193.493 C218.92,193.493 218.24,192.823 218.24,191.993 C218.24,191.163 218.92,190.493 219.74,190.493 L231.8,190.493 C232.62,190.493 233.3,191.163 233.3,191.993 L233.3,191.993 Z" id="Fill-31" fill="#3B3B4D"></path>
    </g>
</svg>