<?xml version="1.0" encoding="UTF-8" standalone="no"?>
<svg width="227px" height="220px" viewBox="0 0 227 220" version="1.1" xmlns="http://www.w3.org/2000/svg" xmlns:xlink="http://www.w3.org/1999/xlink">
    <!-- Generator: Sketch 39.1 (31720) - http://www.bohemiancoding.com/sketch -->
    <title>Slice 1</title>
    <desc>Created with Sketch.</desc>
    <defs></defs>
    <g id="Page-1" stroke="none" stroke-width="1" fill="none" fill-rule="evenodd">
        <path d="M113.202,34.95 C111.468,31.787 108.341,29.549 104.837,28.963 L104.53,28.911 L104.441,28.612 C102.997,23.771 98.465,20.39 93.42,20.39 C91.923,20.39 90.456,20.68 89.06,21.253 L88.556,21.459 L88.393,20.939 C87.178,17.065 84.353,13.874 80.643,12.185 L79.537,11.681 L80.677,11.261 C83.773,10.119 87.007,9.54 90.29,9.54 C95.843,9.54 101.192,11.174 105.76,14.265 L107.173,15.218 L108.014,5.204 L110.52,7.39 L110.869,7.411 C110.866,7.411 112.082,7.474 113.386,7.816 L113.64,7.883 L113.892,7.816 C115.187,7.466 116.43,7.41 116.44,7.41 L116.759,7.39 L119.254,5.202 L120.106,15.219 L121.52,14.265 C126.087,11.174 131.434,9.54 136.98,9.54 C140.269,9.54 143.507,10.119 146.603,11.261 L147.743,11.681 L146.637,12.185 C142.919,13.878 140.091,17.068 138.877,20.939 L138.714,21.46 L138.209,21.252 C136.842,20.688 135.338,20.39 133.86,20.39 C128.805,20.39 124.273,23.771 122.839,28.611 L122.75,28.911 L122.442,28.963 C118.939,29.549 115.812,31.787 114.079,34.95 L113.64,35.75 L113.202,34.95" id="Fill-61" fill="#F1BB31"></path>
        <path d="M98.08,97.66 C95.557,97.66 93.656,96.927 92.429,95.483 C91.032,93.841 90.434,91.249 90.651,87.779 L90.716,86.745 L91.485,87.439 C93.843,89.568 97.734,92.796 102.879,96.078 L103.836,96.689 L102.739,96.983 C101.06,97.432 99.493,97.66 98.08,97.66 L98.08,97.66 Z M129.2,97.66 C127.793,97.66 126.223,97.432 124.532,96.983 L123.43,96.69 L124.392,96.078 C129.478,92.839 133.4,89.592 135.795,87.438 L136.564,86.748 L136.629,87.779 C136.846,91.249 136.248,93.841 134.851,95.484 C133.624,96.927 131.723,97.66 129.2,97.66 L129.2,97.66 Z M188.407,179.55 C187.222,178.3 186.57,176.68 186.57,174.97 C186.57,173.26 187.222,171.64 188.407,170.39 L188.769,170 L189.131,170.38 C190.323,171.63 190.98,173.26 190.98,174.97 C190.98,176.68 190.323,178.31 189.131,179.56 L188.769,179.94 L188.407,179.55 L188.407,179.55 Z M38.137,179.55 C36.952,178.3 36.3,176.68 36.3,174.97 C36.3,173.26 36.952,171.64 38.137,170.39 L38.5,170 L38.863,170.39 C40.047,171.64 40.7,173.26 40.7,174.97 C40.7,176.68 40.047,178.3 38.863,179.55 L38.5,179.94 L38.137,179.55 L38.137,179.55 Z" id="Fill-62" fill="#F1BB31"></path>
        <path d="M86.503,130.12 C85.918,130.12 85.368,130.09 84.883,130.06 L84.42,130.03 L84.42,119.297 L84.893,119.271 C85.238,119.252 85.618,119.241 86.019,119.241 C88.201,119.241 91.182,119.568 92.996,121.13 C94.123,122.1 94.67,123.42 94.67,125.16 C94.67,126.51 94.224,127.56 93.307,128.35 C91.613,129.81 88.672,130.12 86.503,130.12 L86.503,130.12 Z M136.453,130.12 C135.869,130.12 135.318,130.09 134.833,130.06 L134.37,130.03 L134.37,119.297 L134.843,119.271 C135.188,119.252 135.567,119.241 135.969,119.241 C138.151,119.241 141.132,119.568 142.946,121.13 C144.073,122.1 144.62,123.42 144.62,125.16 C144.62,126.51 144.174,127.56 143.256,128.35 C141.563,129.81 138.622,130.12 136.453,130.12 L136.453,130.12 Z M113.916,56.723 C128.743,66.534 142.104,79.319 152.554,93.696 C152.749,93.963 153.039,94.11 153.37,94.11 C153.518,94.11 153.738,94.077 153.952,93.919 C154.407,93.586 154.505,92.974 154.176,92.525 C143.226,77.46 129.772,64.67 114.187,54.508 L113.64,54.148 L113.095,54.508 C97.508,64.67 84.054,77.46 73.104,92.524 C72.775,92.974 72.873,93.586 73.325,93.917 C73.497,94.042 73.7,94.108 73.912,94.108 C74.232,94.108 74.537,93.954 74.726,93.695 C85.176,79.319 98.537,66.534 113.364,56.723 L113.64,56.541 L113.916,56.723 L113.916,56.723 Z M89.014,84.49 C88.108,90.109 88.743,94.246 90.901,96.786 C92.534,98.692 94.95,99.66 98.08,99.66 C101.953,99.66 105.777,98.13 106.504,97.823 L108.317,97.018 L106.637,96.032 C96.893,90.309 90.75,83.983 90.702,83.927 L89.334,82.508 L89.014,84.49 L89.014,84.49 Z M120.744,97.813 C121.824,98.26 125.487,99.66 129.2,99.66 C132.33,99.66 134.746,98.692 136.38,96.785 C138.537,94.246 139.172,90.109 138.266,84.489 L137.946,82.508 L136.55,83.957 C135.89,84.63 129.952,90.567 120.643,96.032 L118.961,97.019 L120.744,97.813 L120.744,97.813 Z M72.67,97.66 C72.119,97.66 71.67,98.108 71.67,98.66 L71.67,111.04 C71.67,111.592 72.119,112.04 72.67,112.04 C73.221,112.04 73.67,111.592 73.67,111.04 L73.67,98.66 C73.67,98.108 73.221,97.66 72.67,97.66 L72.67,97.66 Z M154.61,97.66 C154.059,97.66 153.61,98.108 153.61,98.66 L153.61,111.04 C153.61,111.592 154.059,112.04 154.61,112.04 C155.161,112.04 155.61,111.592 155.61,111.04 L155.61,98.66 C155.61,98.108 155.161,97.66 154.61,97.66 L154.61,97.66 Z M85.81,132.11 L94.782,149.13 C94.956,149.46 95.296,149.66 95.67,149.66 C95.829,149.66 95.994,149.62 96.146,149.54 C96.622,149.29 96.811,148.68 96.557,148.19 L88.054,132.06 L88.786,131.98 C91.336,131.71 93.293,131 94.603,129.87 C95.956,128.71 96.67,127.08 96.67,125.16 C96.67,122.83 95.871,120.96 94.294,119.61 C92.012,117.649 88.571,117.238 86.087,117.238 C84.439,117.238 83.281,117.422 83.269,117.424 C82.783,117.497 82.42,117.921 82.42,118.41 L82.42,148.66 C82.42,149.21 82.869,149.66 83.42,149.66 C83.971,149.66 84.42,149.21 84.42,148.66 L84.42,132.03 L85.81,132.11 L85.81,132.11 Z M105.106,147.68 C104.831,147.68 104.576,147.78 104.407,147.95 C104.214,148.14 104.11,148.39 104.11,148.66 C104.11,148.93 104.214,149.18 104.403,149.37 C104.583,149.55 104.845,149.66 105.11,149.66 C105.369,149.66 105.632,149.55 105.816,149.37 C106.006,149.18 106.11,148.93 106.11,148.66 C106.11,148.39 106.006,148.14 105.817,147.95 C105.643,147.78 105.384,147.68 105.106,147.68 L105.106,147.68 Z M113.64,117.41 C113.089,117.41 112.64,117.858 112.64,118.41 L112.64,148.66 C112.64,149.21 113.089,149.66 113.64,149.66 C114.191,149.66 114.64,149.21 114.64,148.66 L114.64,118.41 C114.64,117.858 114.191,117.41 113.64,117.41 L113.64,117.41 Z M123.606,147.68 C123.331,147.68 123.076,147.78 122.907,147.95 C122.714,148.14 122.61,148.39 122.61,148.66 C122.61,148.93 122.714,149.18 122.903,149.37 C123.093,149.56 123.344,149.66 123.61,149.66 C123.869,149.66 124.132,149.55 124.316,149.37 C124.506,149.18 124.61,148.93 124.61,148.66 C124.61,148.39 124.506,148.14 124.317,147.95 C124.143,147.78 123.884,147.68 123.606,147.68 L123.606,147.68 Z M136.037,117.238 C134.388,117.238 133.231,117.422 133.22,117.424 C132.733,117.497 132.37,117.921 132.37,118.41 L132.37,148.66 C132.37,149.21 132.819,149.66 133.37,149.66 C133.921,149.66 134.37,149.21 134.37,148.66 L134.37,132.03 L134.901,132.06 C135.354,132.09 135.879,132.11 136.45,132.11 C138.958,132.11 142.399,131.72 144.554,129.87 C145.906,128.71 146.62,127.08 146.62,125.16 C146.62,122.83 145.821,120.96 144.244,119.61 C141.961,117.649 138.521,117.238 136.037,117.238 L136.037,117.238 Z M142.11,147.68 C141.835,147.68 141.577,147.78 141.403,147.95 C141.214,148.14 141.11,148.39 141.11,148.66 C141.11,148.93 141.214,149.18 141.403,149.37 C141.593,149.56 141.844,149.66 142.11,149.66 C142.376,149.66 142.627,149.56 142.816,149.37 C143.006,149.18 143.11,148.93 143.11,148.66 C143.11,148.39 143.006,148.14 142.817,147.95 C142.643,147.78 142.385,147.68 142.11,147.68 L142.11,147.68 Z M93.42,160.16 C92.869,160.16 92.42,160.61 92.42,161.16 C92.42,161.71 92.869,162.16 93.42,162.16 L133.86,162.16 C134.411,162.16 134.86,161.71 134.86,161.16 C134.86,160.61 134.411,160.16 133.86,160.16 L93.42,160.16 L93.42,160.16 Z M103.67,175.66 C103.119,175.66 102.67,176.11 102.67,176.66 C102.67,177.21 103.119,177.66 103.67,177.66 L123.61,177.66 C124.161,177.66 124.61,177.21 124.61,176.66 C124.61,176.11 124.161,175.66 123.61,175.66 L103.67,175.66 L103.67,175.66 Z M155.61,198.66 L155.61,117.41 C155.61,116.858 155.161,116.41 154.61,116.41 C154.059,116.41 153.61,116.858 153.61,117.41 L153.61,198.66 L73.67,198.66 L73.67,117.41 C73.67,116.858 73.221,116.41 72.67,116.41 C72.119,116.41 71.67,116.858 71.67,117.41 L71.67,198.66 L59.67,198.66 L59.67,90.808 L59.754,90.681 C71.715,72.795 87.542,57.041 105.523,45.123 C108.158,43.381 110.804,41.734 113.388,40.228 L113.64,40.081 L113.892,40.228 C116.481,41.737 119.127,43.383 121.756,45.123 C139.738,57.041 155.565,72.796 167.525,90.681 L167.61,90.808 L167.61,198.66 L155.61,198.66 L155.61,198.66 Z M89.551,217.49 L83.5,212.16 L77.459,217.49 L47,217.49 L47,203.89 L49.95,200.66 L177.331,200.66 L180.27,203.89 L180.27,217.49 L89.551,217.49 L89.551,217.49 Z" id="Fill-63" fill="#505352"></path>
        <path d="M10.17,216.99 L2.17,216.99 C1.34,216.99 0.67,217.66 0.67,218.49 C0.67,219.32 1.34,219.99 2.17,219.99 L10.17,219.99 C11,219.99 11.67,219.32 11.67,218.49 C11.67,217.66 11,216.99 10.17,216.99 L10.17,216.99 Z M36.8,174.97 C36.8,176.56 37.42,178.07 38.5,179.21 C39.58,178.07 40.2,176.56 40.2,174.97 C40.2,173.38 39.58,171.87 38.5,170.73 C37.42,171.87 36.8,173.38 36.8,174.97 L36.8,174.97 Z M33.8,174.97 C33.8,172.03 35.23,169.25 37.63,167.53 L38.5,166.9 L39.38,167.53 C41.77,169.25 43.2,172.03 43.2,174.97 C43.2,177.91 41.77,180.69 39.38,182.41 L38.5,183.04 L37.63,182.41 C35.23,180.69 33.8,177.91 33.8,174.97 L33.8,174.97 Z M72.67,112.54 C73.5,112.54 74.17,111.86 74.17,111.04 L74.17,98.66 C74.17,97.83 73.5,97.16 72.67,97.16 C71.84,97.16 71.17,97.83 71.17,98.66 L71.17,111.04 C71.17,111.86 71.84,112.54 72.67,112.54 L72.67,112.54 Z M92.98,127.97 C93.78,127.28 94.17,126.36 94.17,125.16 C94.17,123.57 93.68,122.38 92.67,121.51 C90.72,119.83 87.12,119.65 84.92,119.77 L84.92,129.56 C87.24,129.73 91.08,129.61 92.98,127.97 L92.98,127.97 Z M94.34,149.36 L85.5,132.59 C85.31,132.58 85.1,132.57 84.92,132.56 L84.92,148.66 C84.92,149.49 84.25,150.16 83.42,150.16 C82.59,150.16 81.92,149.49 81.92,148.66 L81.92,118.41 C81.92,117.67 82.46,117.04 83.19,116.929 C83.5,116.88 90.66,115.83 94.62,119.23 C96.31,120.679 97.17,122.68 97.17,125.16 C97.17,127.23 96.4,128.99 94.93,130.25 C93.29,131.66 90.98,132.25 88.84,132.48 L97,147.96 C97.38,148.69 97.1,149.6 96.37,149.99 C96.15,150.1 95.91,150.16 95.67,150.16 C95.13,150.16 94.61,149.87 94.34,149.36 L94.34,149.36 Z M104.05,147.6 C103.77,147.88 103.61,148.26 103.61,148.66 C103.61,149.06 103.77,149.44 104.05,149.72 C104.32,150 104.71,150.16 105.11,150.16 C105.5,150.16 105.89,150 106.17,149.72 C106.45,149.44 106.61,149.06 106.61,148.66 C106.61,148.26 106.45,147.88 106.17,147.6 C105.61,147.04 104.6,147.04 104.05,147.6 L104.05,147.6 Z M102.61,96.5 C97.36,93.15 93.42,89.86 91.15,87.81 C90.94,91.16 91.5,93.62 92.81,95.16 C93.94,96.49 95.71,97.16 98.08,97.16 C99.68,97.16 101.3,96.85 102.61,96.5 L102.61,96.5 Z M106.73,98.27 C106.56,98.34 102.4,100.16 98.08,100.16 C94.79,100.16 92.25,99.13 90.52,97.11 C88.26,94.45 87.59,90.179 88.52,84.41 L89,81.44 L91.08,83.6 C91.14,83.67 97.2,89.91 106.89,95.6 L109.41,97.08 L106.73,98.27 L106.73,98.27 Z M115.14,148.66 L115.14,118.41 C115.14,117.58 114.47,116.91 113.64,116.91 C112.81,116.91 112.14,117.58 112.14,118.41 L112.14,148.66 C112.14,149.49 112.81,150.16 113.64,150.16 C114.47,150.16 115.14,149.49 115.14,148.66 L115.14,148.66 Z M123.61,175.16 L103.67,175.16 C102.84,175.16 102.17,175.83 102.17,176.66 C102.17,177.49 102.84,178.16 103.67,178.16 L123.61,178.16 C124.44,178.16 125.11,177.49 125.11,176.66 C125.11,175.83 124.44,175.16 123.61,175.16 L123.61,175.16 Z M122.55,147.6 C122.27,147.88 122.11,148.26 122.11,148.66 C122.11,149.06 122.27,149.44 122.55,149.72 C122.83,150 123.21,150.16 123.61,150.16 C124,150.16 124.39,150 124.67,149.72 C124.95,149.44 125.11,149.06 125.11,148.66 C125.11,148.26 124.95,147.88 124.67,147.6 C124.11,147.04 123.1,147.04 122.55,147.6 L122.55,147.6 Z M133.86,159.66 L93.42,159.66 C92.59,159.66 91.92,160.33 91.92,161.16 C91.92,161.99 92.59,162.66 93.42,162.66 L133.86,162.66 C134.69,162.66 135.36,161.99 135.36,161.16 C135.36,160.33 134.69,159.66 133.86,159.66 L133.86,159.66 Z M124.66,96.5 C125.98,96.85 127.6,97.16 129.2,97.16 C131.57,97.16 133.34,96.49 134.47,95.16 C135.78,93.62 136.34,91.16 136.13,87.81 C133.85,89.86 129.92,93.15 124.66,96.5 L124.66,96.5 Z M129.2,100.16 C124.88,100.16 120.72,98.34 120.54,98.27 L117.87,97.08 L120.39,95.6 C130.1,89.9 136.13,83.67 136.19,83.61 L138.28,81.44 L138.76,84.41 C139.69,90.179 139.02,94.45 136.76,97.11 C135.03,99.13 132.49,100.16 129.2,100.16 L129.2,100.16 Z M141.05,147.6 C140.77,147.88 140.61,148.26 140.61,148.66 C140.61,149.06 140.77,149.44 141.05,149.72 C141.33,150 141.71,150.16 142.11,150.16 C142.51,150.16 142.89,150 143.17,149.72 C143.45,149.44 143.61,149.06 143.61,148.66 C143.61,148.26 143.45,147.88 143.17,147.6 C142.61,147.04 141.61,147.04 141.05,147.6 L141.05,147.6 Z M144.12,125.16 C144.12,123.57 143.63,122.38 142.62,121.51 C140.67,119.83 137.07,119.65 134.87,119.77 L134.87,129.56 C137.19,129.73 141.03,129.61 142.93,127.97 C143.73,127.28 144.12,126.36 144.12,125.16 L144.12,125.16 Z M147.12,125.16 C147.12,127.23 146.35,128.99 144.88,130.25 C142.11,132.63 137.4,132.72 134.87,132.56 L134.87,148.66 C134.87,149.49 134.2,150.16 133.37,150.16 C132.54,150.16 131.87,149.49 131.87,148.66 L131.87,118.41 C131.87,117.67 132.41,117.04 133.14,116.929 C133.45,116.88 140.61,115.83 144.57,119.23 C146.26,120.679 147.12,122.68 147.12,125.16 L147.12,125.16 Z M73.03,94.32 C73.7,94.81 74.64,94.66 75.13,93.99 C85.56,79.64 98.86,66.92 113.64,57.14 C128.42,66.92 141.72,79.64 152.15,93.99 C152.45,94.4 152.9,94.61 153.37,94.61 C153.67,94.61 153.98,94.52 154.25,94.32 C154.92,93.83 155.07,92.9 154.58,92.23 C143.59,77.11 130.09,64.28 114.46,54.09 L113.64,53.55 L112.82,54.09 C97.19,64.28 83.69,77.11 72.7,92.23 C72.21,92.9 72.36,93.83 73.03,94.32 L73.03,94.32 Z M153.11,98.66 L153.11,111.04 C153.11,111.86 153.78,112.54 154.61,112.54 C155.44,112.54 156.11,111.86 156.11,111.04 L156.11,98.66 C156.11,97.83 155.44,97.16 154.61,97.16 C153.78,97.16 153.11,97.83 153.11,98.66 L153.11,98.66 Z M187.07,174.97 C187.07,176.56 187.69,178.07 188.77,179.21 C189.86,178.07 190.48,176.56 190.48,174.97 C190.48,173.38 189.86,171.87 188.77,170.73 C187.69,171.87 187.07,173.38 187.07,174.97 L187.07,174.97 Z M184.07,174.97 C184.07,172.03 185.5,169.25 187.9,167.53 L188.77,166.9 L189.65,167.53 C192.05,169.25 193.48,172.03 193.48,174.97 C193.48,177.91 192.05,180.69 189.65,182.41 L188.77,183.04 L187.9,182.41 C185.5,180.69 184.07,177.91 184.07,174.97 L184.07,174.97 Z M179.77,204.08 L177.11,201.16 L168.62,201.16 L168.61,201.16 L154.62,201.16 L154.61,201.16 L50.17,201.16 L47.5,204.08 L47.5,216.99 L77.27,216.99 L83.5,211.49 L89.74,216.99 L179.77,216.99 L179.77,204.08 L179.77,204.08 Z M60.17,198.16 L71.17,198.16 L71.17,117.41 C71.17,116.58 71.84,115.91 72.67,115.91 C73.5,115.91 74.17,116.58 74.17,117.41 L74.17,198.16 L153.11,198.16 L153.11,117.41 C153.11,116.58 153.78,115.91 154.61,115.91 C155.44,115.91 156.11,116.58 156.11,117.41 L156.11,198.16 L167.11,198.16 L167.11,90.96 C155.1,73 139.45,57.45 121.48,45.54 C118.91,43.84 116.3,42.21 113.64,40.66 C110.98,42.21 108.37,43.84 105.8,45.54 C87.83,57.45 72.18,73 60.17,90.96 L60.17,198.16 L60.17,198.16 Z M113.64,34.71 C115.41,31.48 118.59,29.1 122.36,28.469 C123.85,23.44 128.53,19.89 133.86,19.89 C135.42,19.89 136.97,20.2 138.4,20.79 C139.66,16.77 142.63,13.46 146.43,11.73 C143.42,10.62 140.21,10.04 136.98,10.04 C131.54,10.04 126.29,11.64 121.8,14.679 L119.68,16.11 L118.84,6.23 L116.96,7.88 L116.44,7.91 C116.42,7.91 115.24,7.969 114.02,8.3 L113.64,8.4 L113.26,8.3 C112.04,7.98 110.86,7.91 110.84,7.91 L110.32,7.88 L108.43,6.23 L107.6,16.11 L105.48,14.679 C100.99,11.64 95.74,10.04 90.29,10.04 C87.06,10.04 83.86,10.62 80.85,11.73 C84.65,13.46 87.61,16.77 88.87,20.79 C90.31,20.2 91.86,19.89 93.42,19.89 C98.75,19.89 103.42,23.44 104.92,28.469 C108.69,29.1 111.87,31.48 113.64,34.71 L113.64,34.71 Z M212.61,218.49 C212.61,219.32 211.94,219.99 211.11,219.99 L88.6,219.99 L83.5,215.49 L78.4,219.99 L16.17,219.99 C15.34,219.99 14.67,219.32 14.67,218.49 C14.67,217.66 15.34,216.99 16.17,216.99 L29.5,216.99 L29.5,203.49 C29.5,202.67 30.17,201.99 31,201.99 C31.83,201.99 32.5,202.67 32.5,203.49 L32.5,216.99 L37,216.99 L37,187.49 C37,186.67 37.67,185.99 38.5,185.99 C39.33,185.99 40,186.67 40,187.49 L40,216.99 L44.5,216.99 L44.5,202.91 L48.84,198.16 L57.17,198.16 L57.17,90.06 L57.42,89.679 C69.69,71.219 85.72,55.259 104.16,43.05 C106.68,41.37 109.24,39.78 111.84,38.25 C110.87,34.52 107.6,31.63 103.6,31.32 L102.47,31.23 L102.24,30.12 C101.41,25.929 97.7,22.89 93.42,22.89 C91.74,22.89 90.09,23.37 88.66,24.27 L86.75,25.469 L86.38,23.24 C85.55,18.2 81.43,14.2 76.36,13.53 L71.83,12.92 L75.84,10.73 C80.25,8.31 85.25,7.04 90.29,7.04 C95.5,7.04 100.54,8.36 105.03,10.88 L105.94,0.07 L111.54,4.96 C112.03,5.009 112.8,5.11 113.64,5.3 C114.48,5.11 115.25,5.009 115.74,4.96 L121.33,0.07 L122.25,10.88 C126.74,8.36 131.78,7.04 136.98,7.04 C142.03,7.04 147.03,8.31 151.44,10.73 L155.45,12.92 L150.92,13.53 C145.85,14.2 141.73,18.2 140.9,23.24 L140.53,25.469 L138.62,24.27 C137.19,23.37 135.54,22.89 133.86,22.89 C129.58,22.89 125.87,25.929 125.04,30.12 L124.81,31.23 L123.68,31.32 C119.68,31.63 116.41,34.52 115.44,38.25 C118.04,39.78 120.6,41.37 123.12,43.05 C141.56,55.259 157.59,71.219 169.86,89.679 L170.11,90.06 L170.11,198.16 L178.44,198.16 L182.77,202.91 L182.77,216.99 L187.27,216.99 L187.27,187.49 C187.27,186.67 187.95,185.99 188.77,185.99 C189.6,185.99 190.27,186.67 190.27,187.49 L190.27,216.99 L194.77,216.99 L194.77,203.49 C194.77,202.67 195.45,201.99 196.27,201.99 C197.1,201.99 197.77,202.67 197.77,203.49 L197.77,216.99 L211.11,216.99 C211.94,216.99 212.61,217.66 212.61,218.49 L212.61,218.49 Z M226.61,218.49 C226.61,219.32 225.94,219.99 225.11,219.99 L217.11,219.99 C216.28,219.99 215.61,219.32 215.61,218.49 C215.61,217.66 216.28,216.99 217.11,216.99 L225.11,216.99 C225.94,216.99 226.61,217.66 226.61,218.49 L226.61,218.49 Z" id="Fill-64" fill="#2B2F35"></path>
    </g>
</svg>