<?xml version="1.0" encoding="UTF-8" standalone="no"?>
<svg width="237px" height="212px" viewBox="0 0 237 212" version="1.1" xmlns="http://www.w3.org/2000/svg" xmlns:xlink="http://www.w3.org/1999/xlink">
    <!-- Generator: Sketch 39.1 (31720) - http://www.bohemiancoding.com/sketch -->
    <title>Slice 1</title>
    <desc>Created with Sketch.</desc>
    <defs></defs>
    <g id="Page-1" stroke="none" stroke-width="1" fill="none" fill-rule="evenodd">
        <path d="M60.865,209.5 L70.563,200.41 L88.17,200.41 L88.17,209.5 L60.865,209.5 L60.865,209.5 Z M149.5,209.5 L149.5,186.33 L156.34,186.33 L163.09,195.33 L156.42,195.33 C155.87,195.33 155.42,195.78 155.42,196.33 C155.42,196.88 155.87,197.33 156.42,197.33 L170.89,197.33 L181.77,209.5 L149.5,209.5 L149.5,209.5 Z" id="Fill-74" fill="#9A6E56"></path>
        <path d="M98.84,195.33 C98.288,195.33 97.84,195.78 97.84,196.33 L97.84,202.49 C97.84,203.04 98.288,203.49 98.84,203.49 C99.392,203.49 99.84,203.04 99.84,202.49 L99.84,196.33 C99.84,195.78 99.392,195.33 98.84,195.33 L98.84,195.33 Z M142.24,209.5 L136,203.57 C135.81,203.39 135.56,203.3 135.31,203.3 C135.04,203.3 134.79,203.4 134.6,203.59 L133.57,204.61 L128.59,209.5 L90.17,209.5 L90.17,162.36 L97.84,170.55 L97.84,189.99 C97.84,190.54 98.288,190.99 98.84,190.99 C99.392,190.99 99.84,190.54 99.84,189.99 L99.84,170.16 C99.84,169.91 99.741,169.67 99.569,169.49 L90.17,159.43 L90.17,127.29 L104.199,138.97 C104.377,139.12 104.601,139.2 104.834,139.2 C105.071,139.2 105.3,139.12 105.479,138.97 L118.84,127.73 L132.19,138.97 C132.37,139.12 132.6,139.2 132.84,139.2 C133.07,139.2 133.3,139.12 133.48,138.97 L147.5,127.29 L147.5,153.83 L135.17,153.83 C134.62,153.83 134.17,154.28 134.17,154.83 C134.17,155.38 134.62,155.83 135.17,155.83 L147.5,155.83 L147.5,165.33 L140.24,165.33 C139.69,165.33 139.24,165.78 139.24,166.33 C139.24,166.88 139.69,167.33 140.24,167.33 L147.5,167.33 L147.5,209.5 L142.24,209.5 L142.24,209.5 Z" id="Fill-75" fill="#505352"></path>
        <path d="M86.04,58.321 C85.93,58.246 85.788,58.203 85.618,58.188 L85.16,58.149 L85.16,45.41 C85.16,45.104 85.021,44.816 84.776,44.62 C84.606,44.488 84.383,44.412 84.153,44.412 C84.074,44.412 83.995,44.421 83.918,44.438 L83.917,44.437 C83.717,44.488 83.404,44.503 83.241,44.503 C82.416,44.503 80.841,44.25 79.552,42.552 C78.546,41.246 78.554,38.301 79.944,36.968 C80.365,36.57 80.892,36.37 81.51,36.37 C83.073,36.37 84.907,37.709 85.861,38.507 C86.04,38.66 86.267,38.743 86.501,38.743 C86.737,38.743 86.968,38.659 87.148,38.508 C88.278,37.557 89.936,36.424 91.408,36.424 C92.116,36.424 92.714,36.677 93.185,37.177 C94.532,38.608 94.519,41.419 93.523,42.472 C92.093,44.002 90.981,44.361 90.445,44.439 L90.332,44.543 L90.039,44.422 C89.932,44.378 89.831,44.356 89.731,44.356 C89.563,44.356 89.389,44.419 89.197,44.546 C88.887,44.754 88.84,45.176 88.84,45.41 L88.84,60.114 L86.04,58.321" id="Fill-76" fill="#FFFCE1"></path>
        <path d="M134.23,42.1 C130.52,42.1 127.5,39.081 127.5,35.37 C127.5,31.653 130.52,28.63 134.23,28.63 C137.94,28.63 140.96,31.653 140.96,35.37 C140.96,39.081 137.94,42.1 134.23,42.1 L134.23,42.1 Z M93.05,73.04 C92.498,73.04 92.05,73.488 92.05,74.04 C92.05,74.592 92.498,75.04 93.05,75.04 L99.05,75.04 C99.592,75.04 100.05,74.582 100.05,74.04 C100.05,73.488 99.602,73.04 99.05,73.04 L93.05,73.04 L93.05,73.04 Z M106.17,73.04 C105.618,73.04 105.17,73.488 105.17,74.04 C105.17,74.592 105.618,75.04 106.17,75.04 L131.42,75.04 C131.97,75.04 132.42,74.592 132.42,74.04 C132.42,73.488 131.97,73.04 131.42,73.04 L106.17,73.04 L106.17,73.04 Z M106.17,86.41 C105.618,86.41 105.17,86.858 105.17,87.41 C105.17,87.962 105.618,88.41 106.17,88.41 L131.42,88.41 C131.97,88.41 132.42,87.962 132.42,87.41 C132.42,86.858 131.97,86.41 131.42,86.41 L106.17,86.41 L106.17,86.41 Z M122.42,96.54 C121.868,96.54 121.42,96.988 121.42,97.54 C121.42,98.092 121.868,98.54 122.42,98.54 L131.42,98.54 C131.97,98.54 132.42,98.092 132.42,97.54 C132.42,96.988 131.97,96.54 131.42,96.54 L122.42,96.54 L122.42,96.54 Z M98.43,131.56 L98.43,110.484 L98.982,110.543 C99.721,110.621 100.48,110.66 101.24,110.66 L109.5,110.66 C110.052,110.66 110.5,110.212 110.5,109.66 C110.5,109.108 110.052,108.66 109.5,108.66 L101.24,108.66 C91.756,108.66 83.488,101.919 81.58,92.631 C81.308,91.293 81.17,89.933 81.17,88.59 L81.17,59.243 L82.214,60.287 C82.403,60.476 82.652,60.581 82.915,60.581 C82.97,60.581 83.023,60.576 83.078,60.567 L85.289,60.206 L88.21,62.09 C88.372,62.191 88.563,62.247 88.756,62.247 C89.036,62.247 89.294,62.134 89.482,61.93 L92.343,58.86 L94.84,60.389 L94.84,60.78 C94.84,61.332 95.288,61.78 95.84,61.78 C96.392,61.78 96.84,61.332 96.84,60.78 L96.84,23.08 C96.84,19.402 99.827,16.41 103.5,16.41 C107.178,16.41 110.17,19.402 110.17,23.08 L110.17,60.16 C110.17,60.712 110.618,61.16 111.17,61.16 C111.722,61.16 112.17,60.712 112.17,60.16 L112.17,24.78 L116.7,24.78 C117.252,24.78 117.7,24.332 117.7,23.78 C117.7,23.228 117.252,22.78 116.7,22.78 L112.17,22.78 L112.17,10.08 C112.17,6.402 115.162,3.41 118.84,3.41 C122.268,3.41 125.116,5.984 125.467,9.399 C125.489,9.628 125.5,9.853 125.5,10.08 L125.5,43.91 L121.42,43.91 C120.868,43.91 120.42,44.358 120.42,44.91 C120.42,45.462 120.868,45.91 121.42,45.91 L125.5,45.91 L125.5,56.83 C125.5,57.382 125.948,57.83 126.5,57.83 C127.05,57.83 127.5,57.382 127.5,56.83 L127.5,41.025 L128.34,41.791 C129.97,43.28 132.06,44.1 134.23,44.1 C136.41,44.1 138.5,43.281 140.12,41.792 L140.96,41.02 L140.96,81.66 C140.96,82.212 141.41,82.66 141.96,82.66 C142.51,82.66 142.96,82.212 142.96,81.66 L142.96,65.78 L148.05,65.78 C148.6,65.78 149.05,65.332 149.05,64.78 C149.05,64.238 148.59,63.78 148.05,63.78 L142.96,63.78 L142.96,61.78 C142.96,57.111 144,53.247 146.05,50.295 C149.08,45.942 153.54,44.643 155.92,44.257 L156.5,44.162 L156.5,88.59 C156.5,99.656 147.5,108.66 136.43,108.66 L128.17,108.66 C127.62,108.66 127.17,109.108 127.17,109.66 C127.17,110.212 127.62,110.66 128.17,110.66 L136.43,110.66 C137.19,110.66 137.95,110.621 138.69,110.543 L139.24,110.484 L139.24,131.56 L132.84,136.89 L120.447,126.47 L119.478,125.65 C119.297,125.5 119.069,125.42 118.835,125.42 C118.601,125.42 118.373,125.5 118.192,125.65 L104.832,136.89 L98.43,131.56 L98.43,131.56 Z" id="Fill-77" fill="#47827B"></path>
        <path d="M14.84,209 L2.17,209 C1.34,209 0.67,209.67 0.67,210.5 C0.67,211.32 1.34,212 2.17,212 L14.84,212 C15.67,212 16.34,211.32 16.34,210.5 C16.34,209.67 15.67,209 14.84,209 L14.84,209 Z M99.05,72.54 L93.05,72.54 C92.22,72.54 91.55,73.21 91.55,74.04 C91.55,74.86 92.22,75.54 93.05,75.54 L99.05,75.54 C99.87,75.54 100.55,74.86 100.55,74.04 C100.55,73.21 99.87,72.54 99.05,72.54 L99.05,72.54 Z M98.84,194.83 C98.01,194.83 97.34,195.5 97.34,196.33 L97.34,202.49 C97.34,203.32 98.01,203.99 98.84,203.99 C99.67,203.99 100.34,203.32 100.34,202.49 L100.34,196.33 C100.34,195.5 99.67,194.83 98.84,194.83 L98.84,194.83 Z M131.42,96.04 L122.42,96.04 C121.59,96.04 120.92,96.71 120.92,97.54 C120.92,98.36 121.59,99.04 122.42,99.04 L131.42,99.04 C132.25,99.04 132.92,98.36 132.92,97.54 C132.92,96.71 132.25,96.04 131.42,96.04 L131.42,96.04 Z M106.17,88.91 L131.42,88.91 C132.25,88.91 132.92,88.24 132.92,87.41 C132.92,86.58 132.25,85.91 131.42,85.91 L106.17,85.91 C105.34,85.91 104.67,86.58 104.67,87.41 C104.67,88.24 105.34,88.91 106.17,88.91 L106.17,88.91 Z M106.17,75.54 L131.42,75.54 C132.25,75.54 132.92,74.86 132.92,74.04 C132.92,73.21 132.25,72.54 131.42,72.54 L106.17,72.54 C105.34,72.54 104.67,73.21 104.67,74.04 C104.67,74.86 105.34,75.54 106.17,75.54 L106.17,75.54 Z M180.65,209 L170.67,197.83 L156.42,197.83 C155.59,197.83 154.92,197.16 154.92,196.33 C154.92,195.5 155.59,194.83 156.42,194.83 L162.09,194.83 L156.09,186.83 L150,186.83 L150,209 L180.65,209 L180.65,209 Z M147,128.36 L133.8,139.35 C133.24,139.82 132.43,139.81 131.87,139.35 L118.84,128.38 L105.8,139.35 C105.25,139.81 104.43,139.82 103.88,139.35 L90.67,128.36 L90.67,159.23 L99.93,169.14 C100.189,169.41 100.34,169.78 100.34,170.16 L100.34,189.99 C100.34,190.82 99.67,191.49 98.84,191.49 C98.01,191.49 97.34,190.82 97.34,189.99 L97.34,170.75 L90.67,163.63 L90.67,209 L128.39,209 L133.22,204.25 L134.25,203.23 C134.83,202.66 135.75,202.65 136.34,203.21 L142.44,209 L147,209 L147,167.83 L140.24,167.83 C139.42,167.83 138.74,167.16 138.74,166.33 C138.74,165.5 139.42,164.83 140.24,164.83 L147,164.83 L147,156.33 L135.17,156.33 C134.34,156.33 133.67,155.66 133.67,154.83 C133.67,154 134.34,153.33 135.17,153.33 L147,153.33 L147,128.36 L147,128.36 Z M101.24,108.16 L109.5,108.16 C110.33,108.16 111,108.83 111,109.66 C111,110.49 110.33,111.16 109.5,111.16 L101.24,111.16 C100.46,111.16 99.689,111.12 98.93,111.04 L98.93,131.33 L104.83,136.24 L117.87,125.27 C118.43,124.8 119.24,124.8 119.8,125.27 L120.77,126.09 L132.84,136.24 L138.74,131.33 L138.74,111.04 C137.98,111.12 137.21,111.16 136.43,111.16 L128.17,111.16 C127.34,111.16 126.67,110.49 126.67,109.66 C126.67,108.83 127.34,108.16 128.17,108.16 L136.43,108.16 C147.22,108.16 156,99.38 156,88.59 L156,44.75 C153.72,45.12 149.39,46.38 146.46,50.58 C144.71,53.1 143.46,56.679 143.46,61.78 L143.46,63.28 L148.05,63.28 C148.87,63.28 149.55,63.96 149.55,64.78 C149.55,65.61 148.87,66.28 148.05,66.28 L143.46,66.28 L143.46,81.66 C143.46,82.49 142.79,83.16 141.96,83.16 C141.14,83.16 140.46,82.49 140.46,81.66 L140.46,42.16 C138.82,43.67 136.64,44.6 134.23,44.6 C131.83,44.6 129.65,43.67 128,42.16 L128,56.83 C128,57.66 127.33,58.33 126.5,58.33 C125.67,58.33 125,57.66 125,56.83 L125,46.41 L121.42,46.41 C120.59,46.41 119.92,45.74 119.92,44.91 C119.92,44.08 120.59,43.41 121.42,43.41 L125,43.41 L125,10.08 C125,9.87 124.99,9.66 124.97,9.45 C124.65,6.34 122.03,3.91 118.84,3.91 C115.439,3.91 112.67,6.679 112.67,10.08 L112.67,22.28 L116.7,22.28 C117.53,22.28 118.2,22.96 118.2,23.78 C118.2,24.61 117.53,25.28 116.7,25.28 L112.67,25.28 L112.67,60.16 C112.67,60.99 112,61.66 111.17,61.66 C110.34,61.66 109.67,60.99 109.67,60.16 L109.67,23.08 C109.67,19.679 106.91,16.91 103.5,16.91 C100.1,16.91 97.34,19.679 97.34,23.08 L97.34,59.759 L97.34,59.78 L97.34,60.78 C97.34,61.61 96.67,62.28 95.84,62.28 C95.01,62.28 94.34,61.61 94.34,60.78 L94.34,60.67 L92.43,59.5 L89.85,62.27 C89.36,62.8 88.56,62.9 87.939,62.509 L85.18,60.73 L83.16,61.06 C82.68,61.14 82.2,60.98 81.86,60.64 L81.67,60.45 L81.67,88.59 C81.67,89.94 81.81,91.25 82.07,92.53 C83.9,101.44 91.8,108.16 101.24,108.16 L101.24,108.16 Z M91.34,46.81 L91.34,56.35 C91.82,56.03 92.439,55.99 92.95,56.3 L94.34,57.15 L94.34,45.15 C93.189,46.13 92.16,46.6 91.34,46.81 L91.34,46.81 Z M83.81,43.95 C84.26,43.85 84.729,43.95 85.09,44.23 C85.45,44.52 85.66,44.95 85.66,45.41 L85.66,57.69 C85.89,57.71 86.12,57.77 86.31,57.9 L88.34,59.2 L88.34,45.41 C88.34,44.91 88.5,44.41 88.92,44.13 C89.34,43.85 89.77,43.77 90.229,43.96 C90.24,43.95 91.4,44.009 93.16,42.13 C93.99,41.25 93.95,38.719 92.82,37.52 C91.39,36 88.85,37.73 87.47,38.89 C86.91,39.36 86.09,39.36 85.54,38.89 C84.439,37.969 81.729,35.969 80.29,37.33 C79.09,38.48 79.08,41.12 79.95,42.25 C81.62,44.45 83.79,43.96 83.81,43.95 L83.81,43.95 Z M128,35.37 C128,38.8 130.8,41.6 134.23,41.6 C137.67,41.6 140.46,38.8 140.46,35.37 C140.46,31.929 137.67,29.13 134.23,29.13 C130.8,29.13 128,31.929 128,35.37 L128,35.37 Z M87.67,200.91 L70.76,200.91 L62.13,209 L87.67,209 L87.67,200.91 L87.67,200.91 Z M217,210.5 C217,211.32 216.33,212 215.5,212 L141.84,212 C141.45,212 141.08,211.85 140.81,211.58 L135.32,206.38 L130.06,211.57 C129.78,211.84 129.4,212 129,212 L22.17,212 C21.34,212 20.67,211.32 20.67,210.5 C20.67,209.67 21.34,209 22.17,209 L57.74,209 L69.14,198.32 C69.42,198.05 69.79,197.91 70.17,197.91 L87.67,197.91 L87.67,125.16 C87.67,124.58 88.01,124.05 88.53,123.8 C89.06,123.56 89.68,123.64 90.13,124.01 L95.93,128.83 L95.93,110.52 C87.479,108.48 80.86,101.65 79.13,93.09 C78.82,91.64 78.67,90.13 78.67,88.59 L78.67,56.83 C78.67,56.219 79.04,55.67 79.6,55.44 C80.16,55.21 80.8,55.34 81.229,55.77 L82.66,57.2 L82.66,46.969 C81.229,46.84 79.21,46.23 77.56,44.07 C75.68,41.61 76,37.28 78.22,35.16 C79.21,34.21 81.93,32.5 86.5,35.84 C90.43,32.98 93,33.88 94.34,34.88 L94.34,23.08 C94.34,18.02 98.45,13.91 103.5,13.91 C105.88,13.91 108.04,14.83 109.67,16.32 L109.67,10.08 C109.67,5.02 113.78,0.91 118.84,0.91 C123.59,0.91 127.52,4.55 127.95,9.2 C127.99,9.49 128,9.78 128,10.08 L128,28.57 C129.65,27.07 131.83,26.13 134.23,26.13 C139.32,26.13 143.46,30.28 143.46,35.37 L143.46,49.7 C143.61,49.45 143.77,49.219 143.93,48.99 C148.88,41.83 157.36,41.6 157.49,41.6 L157.5,41.6 C157.9,41.6 158.28,41.75 158.56,42.03 C158.84,42.31 159,42.7 159,43.1 L159,88.59 C159,99.2 151.63,108.13 141.74,110.52 L141.74,128.83 L147.55,124.01 C147.99,123.64 148.61,123.56 149.14,123.8 C149.67,124.05 150,124.58 150,125.16 L150,183.83 L156.84,183.83 C157.31,183.83 157.75,184.05 158.04,184.43 L165.54,194.43 C165.63,194.55 165.69,194.69 165.74,194.83 L171.34,194.83 C171.76,194.83 172.17,195.01 172.46,195.33 L184.67,209 L215.5,209 C216.33,209 217,209.67 217,210.5 L217,210.5 Z M237,210.5 C237,211.32 236.33,212 235.5,212 L222.84,212 C222.01,212 221.34,211.32 221.34,210.5 C221.34,209.67 222.01,209 222.84,209 L235.5,209 C236.33,209 237,209.67 237,210.5 L237,210.5 Z" id="Fill-78" fill="#2B2F35"></path>
    </g>
</svg>