<?xml version="1.0" encoding="UTF-8" standalone="no"?>
<svg width="234px" height="206px" viewBox="0 0 234 206" version="1.1" xmlns="http://www.w3.org/2000/svg" xmlns:xlink="http://www.w3.org/1999/xlink">
    <!-- Generator: Sketch 39.1 (31720) - http://www.bohemiancoding.com/sketch -->
    <title>Slice 1</title>
    <desc>Created with Sketch.</desc>
    <defs></defs>
    <g id="Page-1" stroke="none" stroke-width="1" fill="none" fill-rule="evenodd">
        <path d="M171.6,89.373 C172.24,89.112 173.08,88.522 173.85,87.223 C174.27,86.502 175.19,86.263 175.91,86.692 C176.62,87.112 176.86,88.022 176.44,88.743 C175.02,91.152 173.26,92.063 171.99,92.393 L171.99,92.453 L171.99,115.792 C171.99,122.862 166.23,128.623 159.16,128.623 C152.08,128.623 146.32,122.862 146.32,115.792 L146.32,92.453 C146.32,85.382 152.08,79.623 159.16,79.623 C162.53,79.623 165.59,80.942 167.88,83.073 C169.5,82.192 172.88,79.962 173.68,76.263 C173.86,75.453 174.66,74.942 175.47,75.112 C176.27,75.292 176.79,76.092 176.61,76.902 C175.63,81.393 172.05,84.123 169.87,85.402 C170.66,86.603 171.25,87.942 171.6,89.373 L171.6,89.373 Z M145.41,157.833 C140.17,157.833 135.91,153.573 135.91,148.333 C135.91,147.502 136.58,146.833 137.41,146.833 C138.24,146.833 138.91,147.502 138.91,148.333 C138.91,151.913 141.82,154.833 145.41,154.833 C148.99,154.833 151.91,151.913 151.91,148.333 C151.91,147.502 152.58,146.833 153.41,146.833 C154.24,146.833 154.91,147.502 154.91,148.333 C154.91,153.573 150.65,157.833 145.41,157.833 L145.41,157.833 Z M131.15,171.183 C125.91,171.183 121.65,166.922 121.65,161.683 C121.65,160.853 122.32,160.183 123.15,160.183 C123.98,160.183 124.65,160.853 124.65,161.683 C124.65,165.263 127.56,168.183 131.15,168.183 C134.73,168.183 137.65,165.263 137.65,161.683 C137.65,160.853 138.32,160.183 139.15,160.183 C139.98,160.183 140.65,160.853 140.65,161.683 C140.65,166.922 136.38,171.183 131.15,171.183 L131.15,171.183 Z M107.32,148.333 C107.32,147.502 107.99,146.833 108.82,146.833 C109.65,146.833 110.32,147.502 110.32,148.333 C110.32,151.913 113.24,154.833 116.82,154.833 C120.41,154.833 123.32,151.913 123.32,148.333 C123.32,147.502 123.99,146.833 124.82,146.833 C125.65,146.833 126.32,147.502 126.32,148.333 C126.32,153.573 122.06,157.833 116.82,157.833 C111.58,157.833 107.32,153.573 107.32,148.333 L107.32,148.333 Z M102.5,171.183 C97.26,171.183 93,166.922 93,161.683 C93,160.853 93.67,160.183 94.5,160.183 C95.33,160.183 96,160.853 96,161.683 C96,165.263 98.92,168.183 102.5,168.183 C106.08,168.183 109,165.263 109,161.683 C109,160.853 109.67,160.183 110.5,160.183 C111.33,160.183 112,160.853 112,161.683 C112,166.922 107.74,171.183 102.5,171.183 L102.5,171.183 Z M78.74,148.333 C78.74,147.502 79.41,146.833 80.24,146.833 C81.07,146.833 81.74,147.502 81.74,148.333 C81.74,151.913 84.66,154.833 88.24,154.833 C91.82,154.833 94.74,151.913 94.74,148.333 C94.74,147.502 95.41,146.833 96.24,146.833 C97.07,146.833 97.74,147.502 97.74,148.333 C97.74,153.573 93.48,157.833 88.24,157.833 C83,157.833 78.74,153.573 78.74,148.333 L78.74,148.333 Z M61.66,115.792 L61.66,92.453 L61.66,92.393 C60.39,92.063 58.63,91.152 57.21,88.743 C56.79,88.022 57.03,87.112 57.74,86.692 C58.45,86.263 59.37,86.502 59.79,87.223 C60.56,88.522 61.41,89.112 62.05,89.373 C62.4,87.942 62.99,86.603 63.78,85.402 C61.6,84.123 58.01,81.393 57.03,76.902 C56.86,76.092 57.37,75.292 58.18,75.112 C58.99,74.942 59.79,75.453 59.97,76.263 C60.77,79.962 64.15,82.192 65.76,83.073 C68.05,80.942 71.12,79.623 74.49,79.623 C81.57,79.623 87.32,85.382 87.32,92.453 L87.32,115.792 C87.32,122.862 81.57,128.623 74.49,128.623 C67.41,128.623 61.66,122.862 61.66,115.792 L61.66,115.792 Z M116.82,113.063 L124.86,127.092 L116.82,142.263 L108.79,127.092 L116.82,113.063 L116.82,113.063 Z M194.36,68.442 C194,65.862 193.56,63.482 193.04,61.292 C192.95,61.112 192.9,60.913 192.89,60.703 C191.08,53.413 188.26,48.203 183.91,44.373 C174.66,36.212 158.16,34.263 126.09,33.982 C123.14,33.962 120.05,33.953 116.82,33.953 C78.6,33.953 59.84,35.462 49.73,44.373 C45.39,48.203 42.57,53.413 40.75,60.712 C40.74,60.913 40.69,61.112 40.61,61.292 C39.94,64.112 39.41,67.232 39,70.712 C37.95,79.583 37.66,90.723 37.66,104.792 C37.66,106.893 37.66,108.933 37.67,110.902 C55.21,119.382 66.5,137.303 66.5,156.833 L66.5,173.132 C77.9,175.272 93.97,175.623 116.82,175.623 C139.68,175.623 155.75,175.272 167.15,173.132 L167.15,156.833 C167.15,137.303 178.43,119.382 195.97,110.902 C195.98,108.933 195.99,106.893 195.99,104.792 C195.99,89.493 195.64,77.672 194.36,68.442 L194.36,68.442 Z" id="Fill-38" fill="#EEA2AC"></path>
        <path d="M71.99,177.123 C71.99,191.663 77,201.792 81.49,201.792 C85.86,201.792 90.71,192.203 90.98,178.313 C83.72,178.073 77.45,177.663 71.99,176.982 L71.99,177.123 L71.99,177.123 Z M112.21,127.152 L116.82,135.853 L121.43,127.152 L116.82,119.103 L112.21,127.152 L112.21,127.152 Z M161.66,177.123 C161.66,191.663 156.65,201.792 152.16,201.792 C147.79,201.792 142.93,192.203 142.67,178.313 C149.93,178.073 156.2,177.663 161.65,176.982 C161.65,177.033 161.66,177.073 161.66,177.123 L161.66,177.123 Z" id="Fill-39" fill="#E56E36"></path>
        <path d="M76.24,109.833 C74.03,109.833 72.24,108.042 72.24,105.833 C72.24,103.623 74.03,101.833 76.24,101.833 C78.45,101.833 80.24,103.623 80.24,105.833 C80.24,108.042 78.45,109.833 76.24,109.833 L76.24,109.833 Z M74.49,82.623 C69.07,82.623 64.66,87.033 64.66,92.453 L64.66,115.792 C64.66,121.212 69.07,125.623 74.49,125.623 C79.91,125.623 84.32,121.212 84.32,115.792 L84.32,92.453 C84.32,87.033 79.91,82.623 74.49,82.623 L74.49,82.623 Z M157.41,109.833 C155.2,109.833 153.41,108.042 153.41,105.833 C153.41,103.623 155.2,101.833 157.41,101.833 C159.62,101.833 161.41,103.623 161.41,105.833 C161.41,108.042 159.62,109.833 157.41,109.833 L157.41,109.833 Z M159.16,82.623 C153.73,82.623 149.32,87.033 149.32,92.453 L149.32,115.792 C149.32,121.212 153.73,125.623 159.16,125.623 C164.58,125.623 168.99,121.212 168.99,115.792 L168.99,92.453 C168.99,87.033 164.58,82.623 159.16,82.623 L159.16,82.623 Z" id="Fill-40" fill="#FFF4D6"></path>
        <path d="M52.84,26.502 C49.36,25.643 45.81,24.752 42.73,23.243 C43.53,26.632 43.28,30.993 42.23,38.292 C41.56,43.002 41.19,47.433 40.99,51.083 C42.74,47.522 44.95,44.583 47.75,42.123 C50.52,39.683 53.77,37.763 57.73,36.252 C56.55,35.433 54.95,34.482 53.15,33.882 C52.36,33.612 51.94,32.772 52.2,31.982 C52.46,31.192 53.31,30.772 54.1,31.033 C57.35,32.112 59.96,34.092 61.16,35.103 C62.98,34.573 64.93,34.103 67.03,33.683 C64.42,29.373 58.78,27.973 52.84,26.502 L52.84,26.502 Z M37.7,114.272 C38.02,143.632 40.13,157.862 48.98,165.703 C49.48,166.143 50,166.563 50.54,166.962 C45.95,156.752 44.11,145.373 44.02,144.813 C43.89,144.002 44.45,143.232 45.27,143.103 C46.08,142.973 46.85,143.533 46.98,144.353 C47,144.493 49.39,159.223 55.3,169.752 C56.89,170.493 58.63,171.143 60.54,171.703 C56.59,162.123 53.84,150.303 53.71,149.752 C53.52,148.953 54.03,148.143 54.83,147.953 C55.64,147.772 56.45,148.272 56.63,149.083 C56.66,149.212 59.54,161.542 63.5,171.002 L63.5,156.833 C63.5,138.953 53.45,122.502 37.7,114.272 L37.7,114.272 Z M179.55,31.033 C180.34,30.772 181.18,31.192 181.45,31.982 C181.71,32.772 181.28,33.612 180.5,33.882 C178.68,34.482 177.09,35.433 175.91,36.252 C179.87,37.763 183.13,39.683 185.9,42.123 C188.69,44.583 190.91,47.522 192.66,51.083 C192.45,47.433 192.08,42.993 191.41,38.292 C190.37,30.993 190.12,26.632 190.92,23.243 C187.84,24.752 184.29,25.643 180.8,26.502 C174.86,27.973 169.23,29.373 166.61,33.683 C168.71,34.103 170.67,34.573 172.48,35.103 C173.68,34.092 176.3,32.112 179.55,31.033 L179.55,31.033 Z M195.94,114.272 C195.63,143.632 193.51,157.862 184.66,165.703 C184.17,166.143 183.64,166.563 183.1,166.962 C187.7,156.752 189.54,145.373 189.63,144.813 C189.76,144.002 189.2,143.232 188.38,143.103 C187.56,142.973 186.79,143.533 186.67,144.353 C186.64,144.493 184.25,159.223 178.35,169.752 C176.76,170.493 175.01,171.143 173.11,171.703 C177.05,162.123 179.81,150.303 179.94,149.752 C180.12,148.953 179.62,148.143 178.81,147.953 C178.01,147.772 177.2,148.272 177.01,149.083 C176.98,149.212 174.11,161.533 170.15,171.002 L170.15,156.833 C170.15,138.953 180.2,122.502 195.94,114.272 L195.94,114.272 Z" id="Fill-41" fill="#C14A78"></path>
        <path d="M76.24,101.833 C74.03,101.833 72.24,103.623 72.24,105.833 C72.24,108.042 74.03,109.833 76.24,109.833 C78.45,109.833 80.24,108.042 80.24,105.833 C80.24,103.623 78.45,101.833 76.24,101.833 L76.24,101.833 Z M84.32,115.792 L84.32,92.453 C84.32,87.033 79.91,82.623 74.49,82.623 C69.07,82.623 64.66,87.033 64.66,92.453 L64.66,115.792 C64.66,121.212 69.07,125.623 74.49,125.623 C79.91,125.623 84.32,121.212 84.32,115.792 L84.32,115.792 Z M74.49,128.623 C67.41,128.623 61.66,122.862 61.66,115.792 L61.66,92.453 L61.66,92.393 C60.39,92.063 58.63,91.152 57.21,88.743 C56.79,88.022 57.03,87.112 57.74,86.692 C58.45,86.263 59.37,86.502 59.79,87.223 C60.56,88.522 61.41,89.112 62.05,89.373 C62.4,87.942 62.99,86.603 63.78,85.402 C61.6,84.123 58.01,81.393 57.03,76.902 C56.86,76.092 57.37,75.292 58.18,75.112 C58.99,74.942 59.79,75.453 59.97,76.263 C60.77,79.962 64.15,82.192 65.76,83.073 C68.05,80.942 71.12,79.623 74.49,79.623 C81.57,79.623 87.32,85.382 87.32,92.453 L87.32,115.792 C87.32,122.862 81.57,128.623 74.49,128.623 L74.49,128.623 Z M97.74,148.333 C97.74,147.502 97.07,146.833 96.24,146.833 C95.41,146.833 94.74,147.502 94.74,148.333 C94.74,151.913 91.82,154.833 88.24,154.833 C84.66,154.833 81.74,151.913 81.74,148.333 C81.74,147.502 81.07,146.833 80.24,146.833 C79.41,146.833 78.74,147.502 78.74,148.333 C78.74,153.573 83,157.833 88.24,157.833 C93.48,157.833 97.74,153.573 97.74,148.333 L97.74,148.333 Z M110.5,160.183 C109.67,160.183 109,160.853 109,161.683 C109,165.263 106.08,168.183 102.5,168.183 C98.92,168.183 96,165.263 96,161.683 C96,160.853 95.33,160.183 94.5,160.183 C93.67,160.183 93,160.853 93,161.683 C93,166.922 97.26,171.183 102.5,171.183 C107.74,171.183 112,166.922 112,161.683 C112,160.853 111.33,160.183 110.5,160.183 L110.5,160.183 Z M112.21,127.152 L116.82,135.853 L121.43,127.152 L116.82,119.103 L112.21,127.152 L112.21,127.152 Z M116.82,142.263 L108.79,127.092 L116.82,113.063 L124.86,127.092 L116.82,142.263 L116.82,142.263 Z M116.82,157.833 C122.06,157.833 126.32,153.573 126.32,148.333 C126.32,147.502 125.65,146.833 124.82,146.833 C123.99,146.833 123.32,147.502 123.32,148.333 C123.32,151.913 120.41,154.833 116.82,154.833 C113.24,154.833 110.32,151.913 110.32,148.333 C110.32,147.502 109.65,146.833 108.82,146.833 C107.99,146.833 107.32,147.502 107.32,148.333 C107.32,153.573 111.58,157.833 116.82,157.833 L116.82,157.833 Z M123.15,160.183 C122.32,160.183 121.65,160.853 121.65,161.683 C121.65,166.922 125.91,171.183 131.15,171.183 C136.38,171.183 140.65,166.922 140.65,161.683 C140.65,160.853 139.98,160.183 139.15,160.183 C138.32,160.183 137.65,160.853 137.65,161.683 C137.65,165.263 134.73,168.183 131.15,168.183 C127.56,168.183 124.65,165.263 124.65,161.683 C124.65,160.853 123.98,160.183 123.15,160.183 L123.15,160.183 Z M145.41,157.833 C150.65,157.833 154.91,153.573 154.91,148.333 C154.91,147.502 154.24,146.833 153.41,146.833 C152.58,146.833 151.91,147.502 151.91,148.333 C151.91,151.913 148.99,154.833 145.41,154.833 C141.82,154.833 138.91,151.913 138.91,148.333 C138.91,147.502 138.24,146.833 137.41,146.833 C136.58,146.833 135.91,147.502 135.91,148.333 C135.91,153.573 140.17,157.833 145.41,157.833 L145.41,157.833 Z M157.41,109.833 C159.62,109.833 161.41,108.042 161.41,105.833 C161.41,103.623 159.62,101.833 157.41,101.833 C155.2,101.833 153.41,103.623 153.41,105.833 C153.41,108.042 155.2,109.833 157.41,109.833 L157.41,109.833 Z M149.32,115.792 C149.32,121.212 153.73,125.623 159.16,125.623 C164.58,125.623 168.99,121.212 168.99,115.792 L168.99,92.453 C168.99,87.033 164.58,82.623 159.16,82.623 C153.73,82.623 149.32,87.033 149.32,92.453 L149.32,115.792 L149.32,115.792 Z M146.32,115.792 L146.32,92.453 C146.32,85.382 152.08,79.623 159.16,79.623 C162.53,79.623 165.59,80.942 167.88,83.073 C169.5,82.192 172.88,79.962 173.68,76.263 C173.86,75.453 174.66,74.942 175.47,75.112 C176.27,75.292 176.79,76.092 176.61,76.902 C175.63,81.393 172.05,84.123 169.87,85.402 C170.66,86.603 171.25,87.942 171.6,89.373 C172.24,89.112 173.08,88.522 173.85,87.223 C174.27,86.502 175.19,86.263 175.91,86.692 C176.62,87.112 176.86,88.022 176.44,88.743 C175.02,91.152 173.26,92.063 171.99,92.393 L171.99,92.453 L171.99,115.792 C171.99,122.862 166.23,128.623 159.16,128.623 C152.08,128.623 146.32,122.862 146.32,115.792 L146.32,115.792 Z M161.66,177.123 C161.66,177.073 161.65,177.033 161.65,176.982 C156.2,177.663 149.93,178.073 142.67,178.313 C142.93,192.203 147.79,201.792 152.16,201.792 C156.65,201.792 161.66,191.663 161.66,177.123 L161.66,177.123 Z M146.88,202.292 C142.74,198.123 139.88,189.152 139.67,178.393 C132.9,178.573 125.32,178.623 116.82,178.623 C108.33,178.623 100.75,178.573 93.98,178.393 C93.77,189.152 90.9,198.123 86.76,202.292 L146.88,202.292 L146.88,202.292 Z M90.98,178.313 C83.72,178.073 77.45,177.663 71.99,176.982 L71.99,177.123 C71.99,191.663 77,201.792 81.49,201.792 C85.86,201.792 90.71,192.203 90.98,178.313 L90.98,178.313 Z M116.82,175.623 C139.68,175.623 155.75,175.272 167.15,173.132 L167.15,156.833 C167.15,137.303 178.43,119.382 195.97,110.902 C195.98,108.933 195.99,106.893 195.99,104.792 C195.99,89.493 195.64,77.672 194.36,68.442 C194,65.862 193.56,63.482 193.04,61.292 C192.95,61.112 192.9,60.913 192.89,60.703 C191.08,53.413 188.26,48.203 183.91,44.373 C174.66,36.212 158.16,34.263 126.09,33.982 C123.14,33.962 120.05,33.953 116.82,33.953 C78.6,33.953 59.84,35.462 49.73,44.373 C45.39,48.203 42.57,53.413 40.75,60.712 C40.74,60.913 40.69,61.112 40.61,61.292 C39.94,64.112 39.41,67.232 39,70.712 C37.95,79.583 37.66,90.723 37.66,104.792 C37.66,106.893 37.66,108.933 37.67,110.902 C55.21,119.382 66.5,137.303 66.5,156.833 L66.5,173.132 C77.9,175.272 93.97,175.623 116.82,175.623 L116.82,175.623 Z M63.5,156.833 C63.5,138.953 53.45,122.502 37.7,114.272 C38.02,143.632 40.13,157.862 48.98,165.703 C49.48,166.143 50,166.563 50.54,166.962 C45.95,156.752 44.11,145.373 44.02,144.813 C43.89,144.002 44.45,143.232 45.27,143.103 C46.08,142.973 46.85,143.533 46.98,144.353 C47,144.493 49.39,159.223 55.3,169.752 C56.89,170.493 58.63,171.143 60.54,171.703 C56.59,162.123 53.84,150.303 53.71,149.752 C53.52,148.953 54.03,148.143 54.83,147.953 C55.64,147.772 56.45,148.272 56.63,149.083 C56.66,149.212 59.54,161.542 63.5,171.002 L63.5,156.833 L63.5,156.833 Z M40.99,51.083 C42.74,47.522 44.95,44.583 47.75,42.123 C50.52,39.683 53.77,37.763 57.73,36.252 C56.55,35.433 54.95,34.482 53.15,33.882 C52.36,33.612 51.94,32.772 52.2,31.982 C52.46,31.192 53.31,30.772 54.1,31.033 C57.35,32.112 59.96,34.092 61.16,35.103 C62.98,34.573 64.93,34.103 67.03,33.683 C64.42,29.373 58.78,27.973 52.84,26.502 C49.36,25.643 45.81,24.752 42.73,23.243 C43.53,26.632 43.28,30.993 42.23,38.292 C41.56,43.002 41.19,47.433 40.99,51.083 L40.99,51.083 Z M166.61,33.683 C168.71,34.103 170.67,34.573 172.48,35.103 C173.68,34.092 176.3,32.112 179.55,31.033 C180.34,30.772 181.18,31.192 181.45,31.982 C181.71,32.772 181.28,33.612 180.5,33.882 C178.68,34.482 177.09,35.433 175.91,36.252 C179.87,37.763 183.13,39.683 185.9,42.123 C188.69,44.583 190.91,47.522 192.66,51.083 C192.45,47.433 192.08,42.993 191.41,38.292 C190.37,30.993 190.12,26.632 190.92,23.243 C187.84,24.752 184.29,25.643 180.8,26.502 C174.86,27.973 169.23,29.373 166.61,33.683 L166.61,33.683 Z M195.94,114.272 C180.2,122.502 170.15,138.953 170.15,156.833 L170.15,171.002 C174.11,161.533 176.98,149.212 177.01,149.083 C177.2,148.272 178.01,147.772 178.81,147.953 C179.62,148.143 180.12,148.953 179.94,149.752 C179.81,150.303 177.05,162.123 173.11,171.703 C175.01,171.143 176.76,170.493 178.35,169.752 C184.25,159.223 186.64,144.493 186.67,144.353 C186.79,143.533 187.56,142.973 188.38,143.103 C189.2,143.232 189.76,144.002 189.63,144.813 C189.54,145.373 187.7,156.752 183.1,166.962 C183.64,166.563 184.17,166.143 184.66,165.703 C193.51,157.862 195.63,143.632 195.94,114.272 L195.94,114.272 Z M204.5,203.792 C204.5,204.612 203.83,205.292 203,205.292 L33.35,205.292 L26.74,201.513 L19.89,205.292 L1.82,205.292 C0.99,205.292 0.32,204.612 0.32,203.792 C0.32,202.962 0.99,202.292 1.82,202.292 L19.11,202.292 L26.76,198.073 L34.15,202.292 L76.22,202.292 C71.91,197.962 68.99,188.442 68.99,177.123 C68.99,176.933 69,176.752 69,176.573 C67.96,176.413 66.95,176.243 65.97,176.053 C64.92,175.853 63.9,175.643 62.91,175.413 C62.83,175.402 62.74,175.382 62.66,175.353 C55.96,173.763 50.9,171.413 46.99,167.953 C35.87,158.092 34.66,140.292 34.66,104.792 C34.66,90.683 34.96,79.422 36.04,70.362 C36.47,66.683 37.03,63.362 37.76,60.362 C37.73,58.502 37.69,48.902 39.27,37.873 C40.9,26.422 40.41,23.132 37.54,19.413 C37.32,19.152 37.11,18.893 36.91,18.612 C36.89,18.592 36.87,18.573 36.85,18.553 C36.85,18.542 36.84,18.533 36.84,18.533 C36.82,18.513 36.8,18.493 36.79,18.462 C36.78,18.453 36.78,18.442 36.77,18.433 C34.24,15.342 33.42,10.663 34.75,6.743 C35.85,3.493 38.2,1.323 41.38,0.623 C45.99,-0.397 49.42,2.283 50.32,5.323 C51.08,7.942 50.06,11.243 46.02,12.743 C45.24,13.022 44.38,12.632 44.09,11.853 C43.81,11.073 44.2,10.212 44.98,9.922 C46.99,9.183 47.91,7.772 47.44,6.172 C46.93,4.433 44.86,2.922 42.03,3.542 C39.32,4.143 38.12,6.143 37.59,7.703 C36.58,10.672 37.23,14.333 39.15,16.612 C39.4,16.913 39.63,17.203 39.85,17.493 C42.93,20.953 48.1,22.232 53.56,23.592 C60.27,25.252 67.19,26.962 70.16,33.132 C81.23,31.382 96.13,30.953 116.82,30.953 C120.05,30.953 123.15,30.962 126.11,30.993 C142.08,31.123 154.15,31.652 163.49,33.132 C166.46,26.962 173.38,25.252 180.08,23.592 C185.54,22.232 190.72,20.953 193.79,17.493 C194.02,17.203 194.25,16.913 194.5,16.612 C196.42,14.333 197.06,10.672 196.06,7.703 C195.53,6.143 194.33,4.143 191.62,3.542 C188.79,2.922 186.72,4.433 186.21,6.172 C185.74,7.772 186.66,9.183 188.67,9.922 C189.44,10.212 189.84,11.073 189.55,11.853 C189.27,12.632 188.4,13.022 187.63,12.743 C183.59,11.243 182.56,7.942 183.33,5.323 C184.22,2.283 187.66,-0.397 192.26,0.623 C195.44,1.323 197.8,3.493 198.9,6.743 C200.23,10.663 199.41,15.342 196.88,18.433 C196.87,18.442 196.87,18.453 196.86,18.462 C196.84,18.493 196.82,18.513 196.81,18.533 C196.8,18.533 196.8,18.542 196.79,18.553 C196.77,18.573 196.76,18.592 196.74,18.612 C196.53,18.893 196.32,19.152 196.1,19.413 C193.23,23.132 192.75,26.422 194.38,37.873 C195.96,48.902 195.92,58.502 195.89,60.362 C196.46,62.712 196.93,65.263 197.31,68.033 C198.63,77.473 198.99,89.442 198.99,104.792 C198.99,140.292 197.77,158.092 186.65,167.953 C182.75,171.413 177.69,173.763 170.98,175.353 C170.9,175.382 170.82,175.402 170.74,175.413 C169.75,175.643 168.73,175.853 167.68,176.053 C166.7,176.243 165.69,176.413 164.65,176.573 C164.65,176.752 164.66,176.933 164.66,177.123 C164.66,188.442 161.73,197.962 157.43,202.292 L203,202.292 C203.83,202.292 204.5,202.962 204.5,203.792 L204.5,203.792 Z M233.32,203.792 C233.32,204.612 232.65,205.292 231.82,205.292 L215,205.292 C214.17,205.292 213.5,204.612 213.5,203.792 C213.5,202.962 214.17,202.292 215,202.292 L231.82,202.292 C232.65,202.292 233.32,202.962 233.32,203.792 L233.32,203.792 Z" id="Fill-42" fill="#3B3B4D"></path>
    </g>
</svg>