<?xml version="1.0" encoding="UTF-8" standalone="no"?>
<svg width="234px" height="187px" viewBox="0 0 234 187" version="1.1" xmlns="http://www.w3.org/2000/svg" xmlns:xlink="http://www.w3.org/1999/xlink">
    <!-- Generator: Sketch 39.1 (31720) - http://www.bohemiancoding.com/sketch -->
    <title>Slice 1</title>
    <desc>Created with Sketch.</desc>
    <defs></defs>
    <g id="Page-1" stroke="none" stroke-width="1" fill="none" fill-rule="evenodd">
        <path d="M131.99,119.85 C131.64,118.694 131.01,116.955 130.06,115.234 L129.69,114.564 L130.46,114.495 C131.99,114.355 133.42,114.206 134.73,114.056 L135.39,113.981 L135.28,114.632 C135.04,116.146 134.42,118.314 132.84,120.04 L132.25,120.685 L131.99,119.85 L131.99,119.85 Z M100.761,120.04 C99.187,118.319 98.568,116.148 98.326,114.631 L98.223,113.98 L98.878,114.056 C100.174,114.206 101.609,114.355 103.145,114.495 L103.911,114.564 L103.536,115.236 C102.601,116.914 101.971,118.671 101.607,119.85 L101.351,120.685 L100.761,120.04 L100.761,120.04 Z" id="Fill-47" fill="#FFFFFF"></path>
        <path d="M97.16,69.533 C95.996,69.533 95.05,70.479 95.05,71.643 C95.05,72.801 95.996,73.743 97.16,73.743 C98.323,73.743 99.27,72.801 99.27,71.643 C99.27,70.479 98.323,69.533 97.16,69.533 L97.16,69.533 Z M97.16,83.493 C94.221,83.493 91.83,81.102 91.83,78.163 L91.83,65.123 C91.83,62.184 94.221,59.792 97.16,59.792 C100.1,59.792 102.49,62.184 102.49,65.123 L102.49,78.163 C102.49,81.102 100.1,83.493 97.16,83.493 L97.16,83.493 Z M136.43,69.533 C135.27,69.533 134.33,70.479 134.33,71.643 C134.33,72.801 135.27,73.743 136.43,73.743 C137.59,73.743 138.54,72.801 138.54,71.643 C138.54,70.479 137.59,69.533 136.43,69.533 L136.43,69.533 Z M136.43,83.493 C133.49,83.493 131.1,81.102 131.1,78.163 L131.1,65.123 C131.1,62.184 133.49,59.792 136.43,59.792 C139.37,59.792 141.76,62.184 141.76,65.123 L141.76,78.163 C141.76,81.102 139.37,83.493 136.43,83.493 L136.43,83.493 Z M74.46,82.292 C72.53,82.292 70.96,83.863 70.96,85.792 C70.96,87.722 72.53,89.292 74.46,89.292 C76.39,89.292 77.96,87.722 77.96,85.792 C77.96,83.863 76.39,82.292 74.46,82.292 L74.46,82.292 Z M74.46,107.123 C68.764,107.123 64.13,102.488 64.13,96.792 L64.13,73.453 C64.13,67.757 68.764,63.123 74.46,63.123 C80.161,63.123 84.8,67.757 84.8,73.453 L84.8,96.792 C84.8,102.488 80.161,107.123 74.46,107.123 L74.46,107.123 Z M159.13,82.292 C157.2,82.292 155.63,83.863 155.63,85.792 C155.63,87.722 157.2,89.292 159.13,89.292 C161.06,89.292 162.63,87.722 162.63,85.792 C162.63,83.863 161.06,82.292 159.13,82.292 L159.13,82.292 Z M159.13,107.123 C153.43,107.123 148.8,102.488 148.8,96.792 L148.8,73.453 C148.8,67.757 153.43,63.123 159.13,63.123 C164.83,63.123 169.46,67.757 169.46,73.453 L169.46,96.792 C169.46,102.488 164.83,107.123 159.13,107.123 L159.13,107.123 Z" id="Fill-48" fill="#F3B130"></path>
        <path d="M97.16,57.792 C93.118,57.792 89.83,61.081 89.83,65.123 L89.83,78.163 C89.83,82.205 93.118,85.493 97.16,85.493 C101.202,85.493 104.49,82.205 104.49,78.163 L104.49,65.123 C104.49,61.081 101.202,57.792 97.16,57.792 L97.16,57.792 Z M136.43,57.792 C132.39,57.792 129.1,61.081 129.1,65.123 L129.1,78.163 C129.1,82.205 132.39,85.493 136.43,85.493 C140.47,85.493 143.76,82.205 143.76,78.163 L143.76,65.123 C143.76,61.081 140.47,57.792 136.43,57.792 L136.43,57.792 Z M74.46,61.123 C67.661,61.123 62.13,66.654 62.13,73.453 L62.13,96.792 C62.13,103.591 67.661,109.123 74.46,109.123 C81.265,109.123 86.8,103.591 86.8,96.792 L86.8,73.453 C86.8,66.654 81.265,61.123 74.46,61.123 L74.46,61.123 Z M159.13,61.123 C152.33,61.123 146.8,66.654 146.8,73.453 L146.8,96.792 C146.8,103.591 152.33,109.123 159.13,109.123 C165.93,109.123 171.46,103.591 171.46,96.792 L171.46,73.453 C171.46,66.654 165.93,61.123 159.13,61.123 L159.13,61.123 Z M90.826,110.833 C90.352,110.833 89.941,111.168 89.851,111.629 C89.795,111.898 89.847,112.166 89.994,112.388 C90.142,112.61 90.366,112.761 90.627,112.812 C90.65,112.817 92.544,113.206 95.799,113.657 L96.188,113.711 L96.228,114.103 C96.464,116.463 97.459,120.783 101.477,123.194 L102.705,123.928 L102.979,122.527 C102.97,122.407 103.871,118.055 106.052,114.964 L106.213,114.736 L106.491,114.753 C109.648,114.953 112.577,115.05 115.443,115.05 C115.885,115.05 116.328,115.047 116.774,115.042 L118.15,115.053 C121.02,115.053 124.03,114.952 127.1,114.753 L127.38,114.735 L127.54,114.964 C129.73,118.069 130.61,122.482 130.62,122.526 L130.89,123.926 L132.11,123.194 C136.13,120.784 137.13,116.463 137.36,114.103 L137.4,113.711 L137.79,113.657 C141.03,113.21 142.94,112.817 142.96,112.813 C143.5,112.706 143.86,112.174 143.75,111.628 C143.65,111.171 143.24,110.833 142.76,110.833 C142.7,110.833 142.63,110.84 142.57,110.853 C140.61,111.227 130.44,113.049 118.088,113.049 C117.653,113.049 117.214,113.047 116.775,113.042 C116.319,113.048 115.857,113.05 115.396,113.05 C103.116,113.05 92.979,111.228 91.071,110.862 C90.957,110.84 90.892,110.833 90.826,110.833 L90.826,110.833 Z M88.65,131.583 C83.583,131.583 79.46,127.46 79.46,122.393 C79.46,119.117 76.795,116.453 73.52,116.453 L61.35,116.453 C56.812,116.453 53.12,112.765 53.12,108.232 L53.12,71.902 C53.12,60.284 62.576,50.833 74.2,50.833 L159.39,50.833 C171.01,50.833 180.47,60.284 180.47,71.902 L180.47,108.232 C180.47,112.765 176.78,116.453 172.24,116.453 L160.07,116.453 C156.79,116.453 154.13,119.117 154.13,122.393 C154.13,127.46 150.01,131.583 144.94,131.583 L88.65,131.583 L88.65,131.583 Z" id="Fill-49" fill="#FFF4D6"></path>
        <path d="M18.411,148.385 C17.81,148.385 17.311,148.285 16.93,148.086 C15.805,147.498 16.205,145.606 16.739,144.123 C20.383,133.968 30.983,123.502 35.372,119.474 L36.11,118.796 L36.208,119.794 C36.861,126.529 37.919,131.931 39.442,136.309 L39.534,136.574 L39.355,136.791 C35.254,141.775 23.313,148.385 18.411,148.385 L18.411,148.385 Z M215.18,148.385 C210.29,148.385 198.35,141.775 194.23,136.791 L194.05,136.573 L194.15,136.308 C195.67,131.968 196.72,126.566 197.38,119.794 L197.48,118.796 L198.22,119.474 C202.61,123.502 213.21,133.968 216.85,144.124 C217.39,145.605 217.79,147.497 216.66,148.085 C216.28,148.285 215.78,148.385 215.18,148.385 L215.18,148.385 Z M87.49,24.583 C86.938,24.583 86.49,25.031 86.49,25.583 L86.49,37.083 C86.49,37.634 86.938,38.083 87.49,38.083 C88.042,38.083 88.49,37.634 88.49,37.083 L88.49,25.583 C88.49,25.031 88.042,24.583 87.49,24.583 L87.49,24.583 Z M146.1,24.583 C145.55,24.583 145.1,25.031 145.1,25.583 L145.1,37.083 C145.1,37.634 145.55,38.083 146.1,38.083 C146.65,38.083 147.1,37.634 147.1,37.083 L147.1,25.583 C147.1,25.031 146.65,24.583 146.1,24.583 L146.1,24.583 Z M116.8,26.583 C116.248,26.583 115.8,27.031 115.8,27.583 L115.8,39.083 C115.8,39.634 116.248,40.083 116.8,40.083 C117.352,40.083 117.8,39.634 117.8,39.083 L117.8,27.583 C117.8,27.031 117.352,26.583 116.8,26.583 L116.8,26.583 Z M74.2,48.833 C61.474,48.833 51.12,59.182 51.12,71.902 L51.12,108.232 C51.12,113.868 55.709,118.453 61.35,118.453 L73.52,118.453 C75.692,118.453 77.46,120.22 77.46,122.393 C77.46,128.563 82.479,133.583 88.65,133.583 L144.94,133.583 C151.11,133.583 156.13,128.563 156.13,122.393 C156.13,120.22 157.9,118.453 160.07,118.453 L172.24,118.453 C177.88,118.453 182.47,113.868 182.47,108.232 L182.47,71.902 C182.47,59.182 172.12,48.833 159.39,48.833 L74.2,48.833 L74.2,48.833 Z M116.8,157.123 C89.321,157.123 73.313,156.588 62.074,153.667 C56.355,152.187 51.957,150.034 48.629,147.087 C38.728,138.312 37.13,121.831 37.13,85.792 C37.13,65.77 37.68,51.268 40.417,40.855 C42.286,33.776 45.135,28.737 49.38,24.998 C54.643,20.351 62.291,17.615 74.178,16.126 L74.74,16.056 L74.74,21.333 C74.74,21.884 75.188,22.333 75.74,22.333 C76.292,22.333 76.74,21.884 76.74,21.333 L76.74,15.832 L77.188,15.785 C82.328,15.255 88.365,14.901 95.646,14.703 L96.16,14.689 L96.16,21.333 C96.16,21.884 96.608,22.333 97.16,22.333 C97.712,22.333 98.16,21.884 98.16,21.333 L98.16,14.633 L98.649,14.623 C103.888,14.508 109.825,14.453 116.8,14.453 C123.77,14.453 129.7,14.508 134.94,14.623 L135.43,14.633 L135.43,21.333 C135.43,21.884 135.88,22.333 136.43,22.333 C136.98,22.333 137.43,21.884 137.43,21.333 L137.43,14.689 L137.94,14.703 C145.22,14.901 151.26,15.255 156.4,15.785 L156.85,15.832 L156.85,21.333 C156.85,21.884 157.3,22.333 157.85,22.333 C158.4,22.333 158.85,21.884 158.85,21.333 L158.85,16.056 L159.41,16.126 C171.31,17.616 178.96,20.352 184.22,24.998 C194.69,34.233 196.46,51.216 196.46,85.792 C196.46,121.831 194.86,138.312 184.96,147.086 C181.65,150.029 177.25,152.182 171.53,153.667 C160.28,156.588 144.27,157.123 116.8,157.123 L116.8,157.123 Z M81.46,183.292 C76.631,183.292 71.46,173.179 71.46,158.123 L71.468,157.999 L71.468,157.433 L72.031,157.486 C77.173,158.128 83.366,158.562 90.967,158.813 L91.459,158.829 L91.45,159.322 C91.182,173.661 86.068,183.292 81.46,183.292 L81.46,183.292 Z M152.13,183.292 C147.53,183.292 142.42,173.661 142.14,159.322 L142.13,158.829 L142.62,158.813 C150.22,158.562 156.42,158.128 161.57,157.486 L162.13,157.417 L162.13,158.123 C162.13,173.179 156.96,183.292 152.13,183.292 L152.13,183.292 Z M46.654,183.358 C46.499,183.358 46.349,183.342 46.209,183.31 C44.438,182.917 43.146,181.95 42.263,180.354 C41.174,178.398 40.719,175.552 40.911,171.896 C41.361,163.552 45.107,152.84 46.519,148.808 L46.765,148.104 L47.321,148.598 C50.901,151.769 55.44,153.987 61.605,155.579 C61.992,155.678 63.24,155.984 63.24,155.984 L63.175,156.434 C61.707,166.549 54.747,178.357 49.503,182.157 C48.422,182.943 47.437,183.358 46.654,183.358 L46.654,183.358 Z M186.94,183.358 C186.15,183.358 185.17,182.943 184.09,182.157 C178.84,178.357 171.88,166.549 170.42,156.434 L170.35,155.984 L171.92,155.598 C178.15,153.986 182.69,151.768 186.27,148.598 L186.82,148.105 L187.07,148.807 C189.28,155.09 192.27,164.32 192.68,171.896 C192.87,175.552 192.42,178.398 191.33,180.355 C190.44,181.953 189.15,182.919 187.38,183.311 C187.24,183.342 187.09,183.358 186.94,183.358 L186.94,183.358 Z" id="Fill-50" fill="#8F8271"></path>
        <path d="M14.99,183.292 L1.8,183.292 C0.97,183.292 0.3,183.962 0.3,184.792 C0.3,185.612 0.97,186.292 1.8,186.292 L14.99,186.292 C15.82,186.292 16.49,185.612 16.49,184.792 C16.49,183.962 15.82,183.292 14.99,183.292 L14.99,183.292 Z M192.18,171.922 C191.74,163.783 188.18,153.462 186.6,148.973 C182.93,152.223 178.23,154.482 172.12,156.063 C171.72,156.163 171.32,156.263 170.91,156.362 C172.33,166.152 179.22,178.013 184.38,181.752 C185.55,182.603 186.57,182.982 187.27,182.823 C188.9,182.462 190.08,181.573 190.89,180.112 C192.03,178.063 192.35,175.163 192.18,171.922 L192.18,171.922 Z M181.51,183.292 C175.52,178.112 169.4,166.243 167.96,157.002 C166.89,157.203 165.78,157.393 164.62,157.573 C164.62,157.752 164.63,157.933 164.63,158.123 C164.63,169.442 161.7,178.962 157.4,183.292 L181.51,183.292 L181.51,183.292 Z M161.63,158.123 L161.63,157.982 C156.17,158.663 149.9,159.073 142.64,159.313 C142.91,173.203 147.76,182.792 152.13,182.792 C156.62,182.792 161.63,172.663 161.63,158.123 L161.63,158.123 Z M146.86,183.292 C142.72,179.123 139.85,170.152 139.64,159.393 C132.87,159.573 125.29,159.623 116.8,159.623 C108.3,159.623 100.72,159.573 93.95,159.393 C93.74,170.152 90.88,179.123 86.74,183.292 L146.86,183.292 L146.86,183.292 Z M90.95,159.313 C83.69,159.073 77.42,158.663 71.97,157.982 C71.97,158.033 71.96,158.073 71.96,158.123 C71.96,172.663 76.97,182.792 81.46,182.792 C85.83,182.792 90.69,173.203 90.95,159.313 L90.95,159.313 Z M76.19,183.292 C71.89,178.962 68.96,169.442 68.96,158.123 C68.96,157.933 68.97,157.752 68.97,157.573 C67.82,157.393 66.7,157.203 65.63,157.002 C64.19,166.243 58.07,178.112 52.08,183.292 L76.19,183.292 L76.19,183.292 Z M62.68,156.362 C62.27,156.263 61.87,156.163 61.48,156.063 C55.36,154.482 50.66,152.223 46.99,148.973 C45.42,153.462 41.85,163.783 41.41,171.922 C41.24,175.163 41.56,178.063 42.7,180.112 C43.51,181.573 44.7,182.462 46.32,182.823 C47.02,182.982 48.04,182.603 49.21,181.752 C54.37,178.013 61.26,166.152 62.68,156.362 L62.68,156.362 Z M48.96,146.712 C52.27,149.643 56.56,151.723 62.2,153.183 C73.74,156.183 90.92,156.623 116.8,156.623 C142.67,156.623 159.85,156.183 171.4,153.183 C177.03,151.723 181.33,149.643 184.63,146.712 C194.39,138.063 195.96,121.663 195.96,85.792 C195.96,51.373 194.22,34.482 183.89,25.373 C178.6,20.703 170.93,18.073 159.35,16.623 L159.35,21.333 C159.35,22.163 158.68,22.833 157.85,22.833 C157.02,22.833 156.35,22.163 156.35,21.333 L156.35,16.283 C151.02,15.732 144.92,15.393 137.93,15.203 L137.93,21.333 C137.93,22.163 137.26,22.833 136.43,22.833 C135.6,22.833 134.93,22.163 134.93,21.333 L134.93,15.123 C129.43,15.002 123.41,14.953 116.8,14.953 C110.18,14.953 104.16,15.002 98.66,15.123 L98.66,21.333 C98.66,22.163 97.99,22.833 97.16,22.833 C96.33,22.833 95.66,22.163 95.66,21.333 L95.66,15.203 C88.67,15.393 82.57,15.732 77.24,16.283 L77.24,21.333 C77.24,22.163 76.57,22.833 75.74,22.833 C74.92,22.833 74.24,22.163 74.24,21.333 L74.24,16.623 C62.66,18.073 55,20.703 49.71,25.373 C45.51,29.073 42.73,34.053 40.9,40.982 C38.24,51.103 37.63,65.353 37.63,85.792 C37.63,121.663 39.2,138.063 48.96,146.712 L48.96,146.712 Z M38.97,136.473 C37.38,131.902 36.35,126.433 35.71,119.842 C31.82,123.413 20.88,134.063 17.21,144.292 C16.9,145.152 16.28,147.183 17.16,147.643 C20.37,149.313 34.41,142.013 38.97,136.473 L38.97,136.473 Z M197.88,119.842 C197.24,126.433 196.22,131.902 194.62,136.473 C199.19,142.013 213.21,149.313 216.43,147.643 C217.31,147.183 216.69,145.152 216.38,144.292 C212.71,134.063 201.77,123.413 197.88,119.842 L197.88,119.842 Z M233.3,184.792 C233.3,185.612 232.62,186.292 231.8,186.292 L217.95,186.292 L212,182.563 L206.08,186.292 L29.66,186.292 C28.83,186.292 28.16,185.612 28.16,184.792 C28.16,183.962 28.83,183.292 29.66,183.292 L41.32,183.292 C40.86,182.783 40.44,182.212 40.08,181.573 C38.66,179.013 38.24,175.583 38.45,171.732 C38.85,164.123 41.73,154.893 44.27,147.643 C44.42,147.243 44.54,146.893 44.64,146.592 C42.86,144.563 41.4,142.232 40.19,139.553 C35.31,144.433 24.64,150.862 18.43,150.862 C17.41,150.862 16.51,150.692 15.78,150.303 C14.27,149.522 12.81,147.672 14.38,143.283 C19.13,130.063 34.51,116.873 35.16,116.313 C35.23,116.252 35.31,116.203 35.39,116.152 C34.77,107.813 34.63,97.823 34.63,85.792 C34.63,65.212 35.27,50.712 38.03,40.232 C39.98,32.703 43.04,27.252 47.72,23.123 C53.63,17.913 61.74,15.073 74.24,13.563 L74.24,6.583 C74.24,5.752 74.92,5.083 75.74,5.083 C76.57,5.083 77.24,5.752 77.24,6.583 L77.24,13.232 C82.58,12.703 88.68,12.382 95.66,12.192 L95.66,2.083 C95.66,1.252 96.33,0.583 97.16,0.583 C97.99,0.583 98.66,1.252 98.66,2.083 L98.66,12.112 C104.16,12.002 110.18,11.953 116.8,11.953 C123.42,11.953 129.43,12.002 134.93,12.112 L134.93,2.083 C134.93,1.252 135.6,0.583 136.43,0.583 C137.26,0.583 137.93,1.252 137.93,2.083 L137.93,12.192 C144.92,12.382 151.01,12.703 156.35,13.232 L156.35,6.583 C156.35,5.752 157.02,5.083 157.85,5.083 C158.68,5.083 159.35,5.752 159.35,6.583 L159.35,13.563 C171.85,15.073 179.96,17.913 185.87,23.123 C197.07,33.002 198.96,50.433 198.96,85.792 C198.96,97.823 198.82,107.813 198.2,116.152 C198.28,116.203 198.36,116.252 198.43,116.313 C199.09,116.873 214.46,130.063 219.21,143.283 C220.78,147.672 219.32,149.522 217.81,150.303 C217.08,150.692 216.18,150.862 215.16,150.862 C208.95,150.862 198.29,144.433 193.4,139.553 C192.19,142.232 190.73,144.563 188.95,146.592 C189.05,146.893 189.18,147.243 189.32,147.643 C191.86,154.893 194.74,164.123 195.14,171.732 C195.35,175.583 194.93,179.013 193.51,181.573 C193.15,182.212 192.74,182.783 192.27,183.292 L205.21,183.292 L211.99,179.013 L218.81,183.292 L231.8,183.292 C232.62,183.292 233.3,183.962 233.3,184.792 L233.3,184.792 Z M53.62,108.232 C53.62,112.493 57.09,115.953 61.35,115.953 L73.52,115.953 C77.07,115.953 79.96,118.842 79.96,122.393 C79.96,127.183 83.86,131.083 88.65,131.083 L144.94,131.083 C149.73,131.083 153.63,127.183 153.63,122.393 C153.63,118.842 156.52,115.953 160.07,115.953 L172.24,115.953 C176.5,115.953 179.97,112.493 179.97,108.232 L179.97,71.902 C179.97,60.563 170.74,51.333 159.39,51.333 L74.2,51.333 C62.85,51.333 53.62,60.563 53.62,71.902 L53.62,108.232 L53.62,108.232 Z M50.62,108.232 L50.62,71.902 C50.62,58.902 61.2,48.333 74.2,48.333 L159.39,48.333 C172.39,48.333 182.97,58.902 182.97,71.902 L182.97,108.232 C182.97,114.143 178.16,118.953 172.24,118.953 L160.07,118.953 C158.17,118.953 156.63,120.502 156.63,122.393 C156.63,128.842 151.39,134.083 144.94,134.083 L88.65,134.083 C82.21,134.083 76.96,128.842 76.96,122.393 C76.96,120.502 75.42,118.953 73.52,118.953 L61.35,118.953 C55.44,118.953 50.62,114.143 50.62,108.232 L50.62,108.232 Z M64.63,96.792 C64.63,102.212 69.04,106.623 74.46,106.623 C79.88,106.623 84.3,102.212 84.3,96.792 L84.3,73.453 C84.3,68.033 79.88,63.623 74.46,63.623 C69.04,63.623 64.63,68.033 64.63,73.453 L64.63,96.792 L64.63,96.792 Z M61.63,96.792 L61.63,73.453 C61.63,66.382 67.39,60.623 74.46,60.623 C81.54,60.623 87.3,66.382 87.3,73.453 L87.3,96.792 C87.3,103.862 81.54,109.623 74.46,109.623 C67.39,109.623 61.63,103.862 61.63,96.792 L61.63,96.792 Z M74.46,89.792 C76.67,89.792 78.46,88.002 78.46,85.792 C78.46,83.583 76.67,81.792 74.46,81.792 C72.25,81.792 70.46,83.583 70.46,85.792 C70.46,88.002 72.25,89.792 74.46,89.792 L74.46,89.792 Z M87.49,38.583 C88.32,38.583 88.99,37.913 88.99,37.083 L88.99,25.583 C88.99,24.752 88.32,24.083 87.49,24.083 C86.67,24.083 85.99,24.752 85.99,25.583 L85.99,37.083 C85.99,37.913 86.67,38.583 87.49,38.583 L87.49,38.583 Z M92.33,78.163 C92.33,80.823 94.5,82.993 97.16,82.993 C99.82,82.993 101.99,80.823 101.99,78.163 L101.99,65.123 C101.99,62.453 99.82,60.292 97.16,60.292 C94.5,60.292 92.33,62.453 92.33,65.123 L92.33,78.163 L92.33,78.163 Z M89.33,78.163 L89.33,65.123 C89.33,60.803 92.84,57.292 97.16,57.292 C101.48,57.292 104.99,60.803 104.99,65.123 L104.99,78.163 C104.99,82.482 101.48,85.993 97.16,85.993 C92.84,85.993 89.33,82.482 89.33,78.163 L89.33,78.163 Z M97.16,74.243 C98.6,74.243 99.77,73.083 99.77,71.643 C99.77,70.203 98.6,69.033 97.16,69.033 C95.72,69.033 94.55,70.203 94.55,71.643 C94.55,73.083 95.72,74.243 97.16,74.243 L97.16,74.243 Z M98.82,114.553 C99.05,115.993 99.64,118.073 101.13,119.703 C101.54,118.373 102.18,116.643 103.1,114.993 C101.56,114.853 100.12,114.703 98.82,114.553 L98.82,114.553 Z M130.5,114.993 C131.41,116.643 132.06,118.373 132.47,119.703 C133.97,118.063 134.56,115.982 134.79,114.553 C133.47,114.703 132.04,114.853 130.5,114.993 L130.5,114.993 Z M89.36,111.533 C89.52,110.723 90.31,110.203 91.12,110.362 C91.24,110.382 102.87,112.703 116.78,112.542 C130.73,112.692 142.35,110.382 142.47,110.362 C143.27,110.203 144.07,110.723 144.24,111.533 C144.4,112.353 143.87,113.143 143.06,113.303 C142.87,113.342 140.97,113.723 137.86,114.152 C137.63,116.453 136.62,121.073 132.37,123.623 L130.54,124.723 L130.13,122.623 C130.12,122.573 129.26,118.272 127.13,115.252 C124.35,115.433 121.33,115.553 118.15,115.553 C117.7,115.553 117.24,115.542 116.78,115.542 C113.11,115.583 109.63,115.453 106.46,115.252 C104.33,118.272 103.47,122.573 103.47,122.623 L103.06,124.723 L101.22,123.623 C96.97,121.073 95.96,116.453 95.73,114.152 C92.63,113.723 90.72,113.342 90.53,113.303 C89.72,113.143 89.19,112.353 89.36,111.533 L89.36,111.533 Z M116.8,40.583 C117.62,40.583 118.3,39.913 118.3,39.083 L118.3,27.583 C118.3,26.752 117.62,26.083 116.8,26.083 C115.97,26.083 115.3,26.752 115.3,27.583 L115.3,39.083 C115.3,39.913 115.97,40.583 116.8,40.583 L116.8,40.583 Z M131.6,78.163 C131.6,80.823 133.77,82.993 136.43,82.993 C139.1,82.993 141.26,80.823 141.26,78.163 L141.26,65.123 C141.26,62.453 139.1,60.292 136.43,60.292 C133.77,60.292 131.6,62.453 131.6,65.123 L131.6,78.163 L131.6,78.163 Z M128.6,78.163 L128.6,65.123 C128.6,60.803 132.11,57.292 136.43,57.292 C140.75,57.292 144.26,60.803 144.26,65.123 L144.26,78.163 C144.26,82.482 140.75,85.993 136.43,85.993 C132.11,85.993 128.6,82.482 128.6,78.163 L128.6,78.163 Z M136.43,74.243 C137.87,74.243 139.04,73.083 139.04,71.643 C139.04,70.203 137.87,69.033 136.43,69.033 C134.99,69.033 133.83,70.203 133.83,71.643 C133.83,73.083 134.99,74.243 136.43,74.243 L136.43,74.243 Z M146.1,38.583 C146.93,38.583 147.6,37.913 147.6,37.083 L147.6,25.583 C147.6,24.752 146.93,24.083 146.1,24.083 C145.27,24.083 144.6,24.752 144.6,25.583 L144.6,37.083 C144.6,37.913 145.27,38.583 146.1,38.583 L146.1,38.583 Z M149.3,96.792 C149.3,102.212 153.71,106.623 159.13,106.623 C164.55,106.623 168.96,102.212 168.96,96.792 L168.96,73.453 C168.96,68.033 164.55,63.623 159.13,63.623 C153.71,63.623 149.3,68.033 149.3,73.453 L149.3,96.792 L149.3,96.792 Z M146.3,96.792 L146.3,73.453 C146.3,66.382 152.05,60.623 159.13,60.623 C166.21,60.623 171.96,66.382 171.96,73.453 L171.96,96.792 C171.96,103.862 166.21,109.623 159.13,109.623 C152.05,109.623 146.3,103.862 146.3,96.792 L146.3,96.792 Z M155.13,85.792 C155.13,83.583 156.92,81.792 159.13,81.792 C161.34,81.792 163.13,83.583 163.13,85.792 C163.13,88.002 161.34,89.792 159.13,89.792 C156.92,89.792 155.13,88.002 155.13,85.792 L155.13,85.792 Z" id="Fill-51" fill="#3B3B4D"></path>
    </g>
</svg>