<?xml version="1.0" encoding="iso-8859-1"?>
<!-- Generator: Adobe Illustrator 19.0.0, SVG Export Plug-In . SVG Version: 6.00 Build 0)  -->
<svg version="1.1" id="Capa_1" xmlns="http://www.w3.org/2000/svg" xmlns:xlink="http://www.w3.org/1999/xlink" x="0px" y="0px"
	 viewBox="0 0 59.249 59.249" style="enable-background:new 0 0 59.249 59.249;" xml:space="preserve">
<g>
	
		<rect x="43.862" y="3.671" transform="matrix(-0.707 -0.7073 0.7073 -0.707 74.3066 40.129)" style="fill:#2C3E50;" width="3.21" height="2"/>
	<path style="fill:#2C3E50;" d="M46.453,1.414l2.215,2.215l0.023-0.023l0.613,0.613c0.151-0.151,0.337-0.291,0.584-0.439l1.1-0.658
		L47.867,0L46.453,1.414z"/>
	<path style="fill:#2C3E50;" d="M56.058,8.19l-0.658,1.104c-0.145,0.243-0.284,0.428-0.438,0.582l0.613,0.613l-0.023,0.023
		l2.215,2.215l1.414-1.414L56.058,8.19z"/>
	
		<rect x="52.906" y="12.714" transform="matrix(-0.7071 -0.7071 0.7071 -0.7071 83.3585 61.956)" style="fill:#2C3E50;" width="3.21" height="2"/>
</g>
<path style="fill:#C27037;" d="M38.618,23.391l-7.721,7.721l-2.828-2.828l7.757-7.757c-3.846-2.992-9.301-3.065-13.237-0.004
	l-3.766,3.115c0.939,2.194,0.197,5.209-2.023,7.43c-2.633,2.633-6.379,3.179-8.552,1.317l-3.014,2.493
	C0.111,38.862-0.36,46.434,4.229,51.023l0.55,0.55l2.461-2.461l2.828,2.828l-2.461,2.461l0.55,0.55
	c4.589,4.589,12.161,4.117,16.145-1.005l2.451-3.062c-1.813-2.18-1.254-5.891,1.359-8.504c2.128-2.128,4.984-2.891,7.149-2.124
	l3.139-3.921C41.385,32.499,41.392,27.218,38.618,23.391z"/>
<path style="fill:#9B431C;" d="M15.781,54.112c-2.025,0-0.691-1.536-0.691-1.536c0.351-0.351,0.351-0.919,0-1.27L7.876,44.09
	c-0.351-0.351-0.92-0.351-1.27,0h0c-0.572,0.572-1.535,0.157-1.538-0.652c0-0.154,0.004-0.31,0.014-0.466
	c0.122-1.972,1.049-3.725,2.607-4.938l1.107-0.914c0.826,0.24,1.703,0.363,2.615,0.362c2.941,0,5.936-1.308,8.216-3.588
	c1.525-1.526,2.595-3.353,3.148-5.246l7.752,7.752c-1.913,0.56-3.734,1.643-5.243,3.151c-3.109,3.108-4.256,7.3-3.237,10.811
	l-0.867,1.084C19.85,53.157,17.895,54.112,15.781,54.112z"/>
<rect x="37.008" y="6.703" transform="matrix(0.7071 0.7071 -0.7071 0.7071 25.6897 -21.674)" style="fill:#9B431C;" width="4" height="26.941"/>
<path style="fill:#773A3A;" d="M51.407,13.522l-5.748-5.748c-0.365-0.365-0.365-0.958,0-1.323l2.939-2.939
	c1.549-1.549,4.061-1.549,5.61,0l1.461,1.461c1.549,1.549,1.549,4.061,0,5.61l-2.939,2.939
	C52.365,13.887,51.772,13.887,51.407,13.522z"/>
<g>
	<path style="fill:#35495E;" d="M19.167,36.381c0.391,0.391,1.023,0.391,1.414,0s0.391-1.023,0-1.414
		c-1.134-1.134-3.112-1.132-4.242,0l-4.243,4.242c-0.391,0.391-1.023,0.391-1.414,0s-1.023-0.391-1.414,0s-0.391,1.023,0,1.414
		c0.585,0.585,1.353,0.877,2.121,0.877s1.536-0.292,2.121-0.877l4.244-4.242C18.13,36.002,18.787,36.004,19.167,36.381z"/>
	<path style="fill:#35495E;" d="M24.116,42.745c1.17-1.17,1.17-3.073,0-4.243c-0.391-0.391-1.023-0.391-1.414,0
		s-0.391,1.023,0,1.414c0.39,0.391,0.39,1.024,0,1.415l-4.242,4.242c-0.566,0.566-0.879,1.32-0.879,2.121
		c0,0.802,0.313,1.556,0.879,2.122c0.195,0.194,0.451,0.292,0.707,0.292s0.513-0.098,0.708-0.293c0.39-0.392,0.39-1.024-0.001-1.415
		c-0.189-0.188-0.293-0.438-0.293-0.706c0-0.267,0.104-0.518,0.293-0.707L24.116,42.745z"/>
</g>
<path style="fill:#35495E;" d="M1.068,59.112c-0.256,0-0.512-0.098-0.707-0.293c-0.391-0.391-0.391-1.023,0-1.414l3-3
	c0.391-0.391,1.023-0.391,1.414,0s0.391,1.023,0,1.414l-3,3C1.58,59.015,1.324,59.112,1.068,59.112z"/>
<path style="fill:#9B431C;" d="M4.083,55.098L4.083,55.098c-0.781-0.781-0.781-2.047,0-2.828l3.157-3.157l2.828,2.828l-3.157,3.157
	C6.13,55.879,4.864,55.879,4.083,55.098z"/>
<g>
	<path style="fill:none;stroke:#E4C05C;stroke-width:2;stroke-miterlimit:10;" d="M14.008,21.181
		c-0.034-0.012,29.823,29.902,29.823,29.902c1.562,1.562,4.095,1.562,5.657,0"/>
	<path style="fill:none;stroke:#E4C05C;stroke-width:2;stroke-miterlimit:10;" d="M6.375,7.97c-1.562,1.562-1.562,4.095,0,5.657
		l10.075,10.01"/>
</g>
<path style="fill:#35495E;" d="M56.753,59.249c-0.256,0-0.512-0.098-0.707-0.293L3.596,6.506c-0.391-0.391-0.391-1.023,0-1.414
	s1.023-0.391,1.414,0l52.45,52.45c0.391,0.391,0.391,1.023,0,1.414C57.265,59.151,57.009,59.249,56.753,59.249z"/>
<g>
</g>
<g>
</g>
<g>
</g>
<g>
</g>
<g>
</g>
<g>
</g>
<g>
</g>
<g>
</g>
<g>
</g>
<g>
</g>
<g>
</g>
<g>
</g>
<g>
</g>
<g>
</g>
<g>
</g>
</svg>
