<?xml version="1.0" encoding="iso-8859-1"?>
<!-- Generator: Adobe Illustrator 19.0.0, SVG Export Plug-In . SVG Version: 6.00 Build 0)  -->
<svg version="1.1" id="Capa_1" xmlns="http://www.w3.org/2000/svg" xmlns:xlink="http://www.w3.org/1999/xlink" x="0px" y="0px"
	 viewBox="0 0 58.989 58.989" style="enable-background:new 0 0 58.989 58.989;" xml:space="preserve">
<path style="fill:#7B5428;" d="M34.923,38.379c-1.862,1.218-3.646,1.609-5.262,1.609c-1.362,0-2.946-0.314-4.647-1.249
	c-0.187,5.255-1.133,12.879-5.019,19.249h9h11.062c-3.987-6.534-4.88-14.42-5.033-19.648C34.99,38.356,34.956,38.365,34.923,38.379z
	"/>
<path style="fill:#BD8042;" d="M48.661,8c-5.87,27.409-13.434,31.989-19,31.989c-5.25,0-13.797-4.58-19.667-31.989"/>
<polyline style="fill:none;stroke:#564A3F;stroke-width:2;stroke-linecap:round;stroke-linejoin:round;stroke-miterlimit:10;" points="
	23.994,49.989 29.994,57.989 35.994,49.989 "/>
<path style="fill:#7F5B53;" d="M29.87,40.989c-0.552,0-1-0.447-1-1s0.448-1,1-1c0.534-0.097,2.963-2.073,5.336-6.159
	c0.278-0.479,0.89-0.64,1.367-0.362s0.64,0.889,0.362,1.366C34.921,37.302,31.76,40.989,29.87,40.989z"/>
<path style="fill:#3D3227;" d="M39.62,25.001c-0.1,0-0.201-0.015-0.301-0.046c-0.527-0.167-0.819-0.729-0.653-1.255
	c1.436-4.551,2.328-10.566,2.328-15.7c0-0.553,0.448-1,1-1s1,0.447,1,1c0,5.324-0.928,11.57-2.421,16.302
	C40.439,24.728,40.045,25.001,39.62,25.001z"/>
<path style="fill:#3D3227;" d="M29.87,40.989c-2.224,0-6.416-5.05-8.794-10.595c-0.218-0.508,0.017-1.096,0.525-1.313
	c0.506-0.221,1.095,0.017,1.313,0.524c2.46,5.735,6.061,9.225,6.99,9.386c0.552,0,0.983,0.446,0.983,0.999
	S30.422,40.989,29.87,40.989z"/>
<path style="fill:#3D3227;" d="M18.262,15.001c-0.505,0-0.939-0.381-0.993-0.895C17.091,12.434,16.994,9.711,16.994,8
	c0-0.553,0.448-1,1-1s1,0.447,1,1c0,1.661,0.092,4.291,0.263,5.896c0.059,0.549-0.339,1.041-0.888,1.1
	C18.333,14.999,18.297,15.001,18.262,15.001z"/>
<path style="fill:#3D3227;" d="M29.87,40.989c-0.552,0-1-0.447-1-1c0-0.519,0.394-0.944,0.899-0.995
	c0.451-0.376,1.627-2.971,2.203-11.065c0.04-0.55,0.528-0.971,1.068-0.926c0.551,0.039,0.966,0.518,0.927,1.068
	C33.047,40.989,30.739,40.989,29.87,40.989z"/>
<path style="fill:#3D3227;" d="M33.965,14c-0.005,0-0.011,0-0.016,0c-0.552-0.009-0.993-0.463-0.985-1.016
	c0.02-1.306,0.03-3.633,0.03-4.984c0-0.553,0.448-1,1-1s1,0.447,1,1c0,1.359-0.01,3.702-0.03,5.016
	C34.956,13.562,34.51,14,33.965,14z"/>
<path style="fill:#3D3227;" d="M29.87,40.989c-0.87,0-2.907,0-3.93-10.896c-0.052-0.55,0.352-1.038,0.902-1.09
	c0.555-0.055,1.038,0.353,1.089,0.902c0.705,7.508,1.848,8.901,2.045,9.089c0.502,0.053,0.894,0.478,0.894,0.994
	C30.87,40.542,30.422,40.989,29.87,40.989z"/>
<path style="fill:#3D3227;" d="M26.152,19c-0.536,0-0.979-0.424-0.999-0.964C25.056,15.389,24.994,11.45,24.994,8
	c0-0.553,0.448-1,1-1s1,0.447,1,1c0,3.428,0.062,7.339,0.157,9.964c0.02,0.552-0.411,1.016-0.963,1.035
	C26.176,19,26.164,19,26.152,19z"/>
<line style="fill:none;stroke:#564A3F;stroke-width:2;stroke-linecap:round;stroke-linejoin:round;stroke-miterlimit:10;" x1="16.994" y1="57.989" x2="42.994" y2="57.989"/>
<path style="fill:#3D3227;" d="M48.994,8h-39c-1.105,0-2-0.895-2-2V5.333C7.994,4.229,8.89,3,9.994,3h38.667
	c1.105,0,2.333,1.229,2.333,2.333V6C50.994,7.105,50.099,8,48.994,8z"/>
<path style="fill:#CAD8DB;" d="M47.338,3c0.2-0.344,0.324-0.739,0.324-1.167C47.661,0.545,46.617,0,45.328,0H13.995
	c-1.289,0-2.333,0.545-2.333,1.833c0,0.427,0.123,0.822,0.324,1.167H47.338z"/>
<g>
</g>
<g>
</g>
<g>
</g>
<g>
</g>
<g>
</g>
<g>
</g>
<g>
</g>
<g>
</g>
<g>
</g>
<g>
</g>
<g>
</g>
<g>
</g>
<g>
</g>
<g>
</g>
<g>
</g>
</svg>
