<?xml version="1.0" encoding="iso-8859-1"?>
<!-- Generator: Adobe Illustrator 19.0.0, SVG Export Plug-In . SVG Version: 6.00 Build 0)  -->
<svg version="1.1" id="Capa_1" xmlns="http://www.w3.org/2000/svg" xmlns:xlink="http://www.w3.org/1999/xlink" x="0px" y="0px"
	 viewBox="0 0 60 60" style="enable-background:new 0 0 60 60;" xml:space="preserve">
<rect x="1" style="fill:#ECF0F1;" width="58" height="58"/>
<rect x="1" y="10" style="fill:#D1D4D1;" width="58" height="13"/>
<rect x="1" style="fill:#556080;" width="58" height="10"/>
<polygon style="fill:#556080;" points="5,19 4,18 4,16 5,15 7,15 8,16 8,18 7,19 "/>
<polygon style="fill:#556080;" points="13,19 12,18 12,16 13,15 15,15 16,16 16,18 15,19 "/>
<polygon style="fill:#556080;" points="21,19 20,18 20,16 21,15 23,15 24,16 24,18 23,19 "/>
<polygon style="fill:#556080;" points="29,19 28,18 28,16 29,15 31,15 32,16 32,18 31,19 "/>
<polygon style="fill:#556080;" points="37,19 36,18 36,16 37,15 39,15 40,16 40,18 39,19 "/>
<polygon style="fill:#556080;" points="45,19 44,18 44,16 45,15 47,15 48,16 48,18 47,19 "/>
<polygon style="fill:#556080;" points="53,19 52,18 52,16 53,15 55,15 56,16 56,18 55,19 "/>
<polygon style="fill:#2C2F38;" points="5,17 4,16 4,14 5,13 7,13 8,14 8,16 7,17 "/>
<polygon style="fill:#2C2F38;" points="13,17 12,16 12,14 13,13 15,13 16,14 16,16 15,17 "/>
<polygon style="fill:#2C2F38;" points="21,17 20,16 20,14 21,13 23,13 24,14 24,16 23,17 "/>
<polygon style="fill:#2C2F38;" points="29,17 28,16 28,14 29,13 31,13 32,14 32,16 31,17 "/>
<polygon style="fill:#2C2F38;" points="37,17 36,16 36,14 37,13 39,13 40,14 40,16 39,17 "/>
<polygon style="fill:#2C2F38;" points="45,17 44,16 44,14 45,13 47,13 48,14 48,16 47,17 "/>
<polygon style="fill:#2C2F38;" points="53,17 52,16 52,14 53,13 55,13 56,14 56,16 55,17 "/>
<rect x="4" y="4" style="fill:#2C2F38;" width="4" height="4"/>
<rect x="12" y="4" style="fill:#2C2F38;" width="4" height="4"/>
<rect x="20" y="4" style="fill:#2C2F38;" width="4" height="4"/>
<rect x="28" y="4" style="fill:#2C2F38;" width="4" height="4"/>
<rect x="4" y="2" style="fill:#FFFFFF;" width="4" height="4"/>
<rect x="12" y="2" style="fill:#FFFFFF;" width="4" height="4"/>
<rect x="20" y="2" style="fill:#FFFFFF;" width="4" height="4"/>
<rect x="28" y="2" style="fill:#FFFFFF;" width="4" height="4"/>
<rect x="36" y="3" style="fill:#D1F7EF;" width="20" height="4"/>
<g>
	<path style="fill:#A5A5A4;" d="M8,25c-0.553,0-1,0.448-1,1v21c0,0.552,0.447,1,1,1s1-0.448,1-1V26C9,25.448,8.553,25,8,25z"/>
	<path style="fill:#A5A5A4;" d="M8,49c-0.553,0-1,0.448-1,1v4c0,0.552,0.447,1,1,1s1-0.448,1-1v-4C9,49.448,8.553,49,8,49z"/>
	<path style="fill:#A5A5A4;" d="M19,25c-0.553,0-1,0.448-1,1v15c0,0.552,0.447,1,1,1s1-0.448,1-1V26C20,25.448,19.553,25,19,25z"/>
	<path style="fill:#A5A5A4;" d="M19,43c-0.553,0-1,0.448-1,1v10c0,0.552,0.447,1,1,1s1-0.448,1-1V44C20,43.448,19.553,43,19,43z"/>
	<path style="fill:#A5A5A4;" d="M30,32c-0.553,0-1,0.448-1,1v21c0,0.552,0.447,1,1,1s1-0.448,1-1V33C31,32.448,30.553,32,30,32z"/>
	<path style="fill:#A5A5A4;" d="M30,25c-0.553,0-1,0.448-1,1v4c0,0.552,0.447,1,1,1s1-0.448,1-1v-4C31,25.448,30.553,25,30,25z"/>
	<path style="fill:#A5A5A4;" d="M41,25c-0.553,0-1,0.448-1,1v16c0,0.552,0.447,1,1,1s1-0.448,1-1V26C42,25.448,41.553,25,41,25z"/>
	<path style="fill:#A5A5A4;" d="M41,44c-0.553,0-1,0.448-1,1v9c0,0.552,0.447,1,1,1s1-0.448,1-1v-9C42,44.448,41.553,44,41,44z"/>
	<path style="fill:#A5A5A4;" d="M52,25c-0.553,0-1,0.448-1,1v9c0,0.552,0.447,1,1,1s1-0.448,1-1v-9C53,25.448,52.553,25,52,25z"/>
	<path style="fill:#A5A5A4;" d="M52,37c-0.553,0-1,0.448-1,1v16c0,0.552,0.447,1,1,1s1-0.448,1-1V38C53,37.448,52.553,37,52,37z"/>
</g>
<g>
	<rect x="5" y="48" style="fill:#D1D4D1;" width="6" height="3"/>
	<rect x="16" y="42" style="fill:#D1D4D1;" width="6" height="3"/>
	<rect x="27" y="31" style="fill:#D1D4D1;" width="6" height="3"/>
	<rect x="38" y="43" style="fill:#D1D4D1;" width="6" height="3"/>
	<rect x="49" y="36" style="fill:#D1D4D1;" width="6" height="3"/>
</g>
<g>
	<rect x="5" y="46" style="fill:#FFFFFF;" width="6" height="3"/>
	<rect x="16" y="40" style="fill:#FFFFFF;" width="6" height="3"/>
	<rect x="27" y="29" style="fill:#FFFFFF;" width="6" height="3"/>
	<rect x="38" y="41" style="fill:#FFFFFF;" width="6" height="3"/>
	<rect x="49" y="34" style="fill:#FFFFFF;" width="6" height="3"/>
</g>
<rect x="1" y="58" style="fill:#D1D4D1;" width="58" height="2"/>
<g>
</g>
<g>
</g>
<g>
</g>
<g>
</g>
<g>
</g>
<g>
</g>
<g>
</g>
<g>
</g>
<g>
</g>
<g>
</g>
<g>
</g>
<g>
</g>
<g>
</g>
<g>
</g>
<g>
</g>
</svg>
