<?xml version="1.0" encoding="iso-8859-1"?>
<!-- Generator: Adobe Illustrator 19.0.0, SVG Export Plug-In . SVG Version: 6.00 Build 0)  -->
<svg version="1.1" id="Capa_1" xmlns="http://www.w3.org/2000/svg" xmlns:xlink="http://www.w3.org/1999/xlink" x="0px" y="0px"
	 viewBox="0 0 58 58" style="enable-background:new 0 0 58 58;" xml:space="preserve">
<line style="fill:none;stroke:#CBB292;stroke-width:2;stroke-miterlimit:10;" x1="17" y1="5" x2="23" y2="18"/>
<line style="fill:none;stroke:#CBB292;stroke-width:2;stroke-miterlimit:10;" x1="41" y1="5" x2="35" y2="18"/>
<rect y="54" style="fill:#464F5D;" width="10" height="3"/>
<rect x="48" y="54" style="fill:#464F5D;" width="10" height="3"/>
<polygon style="fill:#556080;" points="57,3 57,3 57,1 55,1 55,1 51,1 51,1 49,1 49,3 9,3 9,1 7,1 7,1 3,1 3,1 1,1 1,3 1,3 1,7 1,7 
	1,9 3,9 3,54 7,54 7,9 9,9 9,7 49,7 49,9 51,9 51,54 55,54 55,9 57,9 57,7 57,7 "/>
<line style="fill:none;stroke:#464F5D;stroke-width:2;stroke-miterlimit:10;" x1="5" y1="4" x2="5" y2="6"/>
<line style="fill:none;stroke:#464F5D;stroke-width:2;stroke-miterlimit:10;" x1="53" y1="4" x2="53" y2="6"/>
<path style="fill:#CBB292;" d="M45,55c-0.272,0-0.543-0.11-0.74-0.327l-10-11c-0.372-0.409-0.342-1.041,0.067-1.413
	c0.41-0.371,1.042-0.341,1.413,0.067l10,11c0.372,0.409,0.342,1.041-0.067,1.413C45.481,54.914,45.24,55,45,55z"/>
<circle style="fill:#AD977F;" cx="32.5" cy="40.5" r="3.5"/>
<g>
	<path style="fill:#E4C05C;" d="M29,16c-7.18,0-13,5.82-13,13s5.82,13,13,13c0.115,0,0.226-0.014,0.34-0.017c0,0,0,0,0,0
		C29.128,41.532,29,41.032,29,40.5c0-1.933,1.567-3.5,3.5-3.5c1.753,0,3.192,1.293,3.447,2.975C39.581,37.67,42,33.622,42,29
		C42,21.82,36.18,16,29,16z"/>
</g>
<circle style="fill:#F9EAB0;" cx="29" cy="29" r="4"/>
<g>
</g>
<g>
</g>
<g>
</g>
<g>
</g>
<g>
</g>
<g>
</g>
<g>
</g>
<g>
</g>
<g>
</g>
<g>
</g>
<g>
</g>
<g>
</g>
<g>
</g>
<g>
</g>
<g>
</g>
</svg>
