<?xml version="1.0" encoding="iso-8859-1"?>
<!-- Generator: Adobe Illustrator 19.0.0, SVG Export Plug-In . SVG Version: 6.00 Build 0)  -->
<svg version="1.1" id="Capa_1" xmlns="http://www.w3.org/2000/svg" xmlns:xlink="http://www.w3.org/1999/xlink" x="0px" y="0px"
	 viewBox="0 0 59 59" style="enable-background:new 0 0 59 59;" xml:space="preserve">
<path style="fill:#ECF0F1;" d="M26,8c-0.552,0-1-0.447-1-1c0-3.309,2.691-6,6-6c0.552,0,1,0.447,1,1s-0.448,1-1,1
	c-2.206,0-4,1.794-4,4C27,7.553,26.552,8,26,8z"/>
<path style="fill:#ECF0F1;" d="M36,8c-0.552,0-1-0.447-1-1c0-2.206-1.794-4-4-4c-0.552,0-1-0.447-1-1s0.448-1,1-1
	c3.309,0,6,2.691,6,6C37,7.553,36.552,8,36,8z"/>
<path style="fill:#ECF0F1;" d="M36,53c-0.552,0-1-0.447-1-1V7c0-0.553,0.448-1,1-1s1,0.447,1,1v45C37,52.553,36.552,53,36,53z"/>
<path style="fill:#ECF0F1;" d="M46,53c-0.552,0-1-0.447-1-1V30c0-0.553,0.448-1,1-1c0.553,0,1,0.447,1,1v22
	C47,52.553,46.553,53,46,53z"/>
<path style="fill:#ECF0F1;" d="M41,58c-0.552,0-1-0.447-1-1s0.448-1,1-1c2.206,0,4-1.794,4-4c0-0.553,0.448-1,1-1
	c0.553,0,1,0.447,1,1C47,55.309,44.309,58,41,58z"/>
<path style="fill:#ECF0F1;" d="M41,58c-3.309,0-6-2.691-6-6c0-0.553,0.448-1,1-1s1,0.447,1,1c0,2.206,1.794,4,4,4
	c0.552,0,1,0.447,1,1S41.552,58,41,58z"/>
<path style="fill:#ECF0F1;" d="M46,31c-0.552,0-1-0.447-1-1c0-2.757,2.243-5,5-5c0.553,0,1,0.447,1,1s-0.447,1-1,1
	c-1.654,0-3,1.346-3,3C47,30.553,46.553,31,46,31z"/>
<path style="fill:#ECF0F1;" d="M46,31c-0.552,0-1-0.447-1-1V13c0-0.553,0.448-1,1-1c0.553,0,1,0.447,1,1v17
	C47,30.553,46.553,31,46,31z"/>
<path style="fill:#ECF0F1;" d="M54,27h-4c-0.553,0-1-0.447-1-1s0.447-1,1-1h4c0.553,0,1,0.447,1,1S54.553,27,54,27z"/>
<path style="fill:#ECF0F1;" d="M49,14h-3c-0.552,0-1-0.447-1-1s0.448-1,1-1h3c0.553,0,1,0.447,1,1S49.553,14,49,14z"/>
<path style="fill:#ECF0F1;" d="M54,30c-0.553,0-1-0.447-1-1v-3c0-0.553,0.447-1,1-1s1,0.447,1,1v3C55,29.553,54.553,30,54,30z"/>
<rect y="7" style="fill:#ECF0F1;" width="32" height="51"/>
<rect x="3" y="10" style="fill:#95D3F4;" width="26" height="18"/>
<circle style="fill:#FFFFFF;" cx="16" cy="43" r="11"/>
<circle style="fill:#BDC3C7;" cx="16" cy="43" r="5"/>
<path style="fill:#86A0C0;" d="M7,19c-0.256,0-0.512-0.098-0.707-0.293c-0.391-0.391-0.391-1.023,0-1.414l4-4
	c0.391-0.391,1.023-0.391,1.414,0s0.391,1.023,0,1.414l-4,4C7.512,18.902,7.256,19,7,19z"/>
<path style="fill:#86A0C0;" d="M7,24c-0.256,0-0.512-0.098-0.707-0.293c-0.391-0.391-0.391-1.023,0-1.414l2-2
	c0.391-0.391,1.023-0.391,1.414,0s0.391,1.023,0,1.414l-2,2C7.512,23.902,7.256,24,7,24z"/>
<path style="fill:#86A0C0;" d="M11,20c-0.26,0-0.52-0.11-0.71-0.3C10.11,19.52,10,19.27,10,19c0-0.26,0.11-0.521,0.29-0.71
	c0.37-0.37,1.04-0.37,1.42,0C11.89,18.479,12,18.74,12,19s-0.11,0.52-0.29,0.71C11.52,19.89,11.27,20,11,20z"/>
<path style="fill:#86A0C0;" d="M13,18c-0.256,0-0.512-0.098-0.707-0.293c-0.391-0.391-0.391-1.023,0-1.414l3-3
	c0.391-0.391,1.023-0.391,1.414,0s0.391,1.023,0,1.414l-3,3C13.512,17.902,13.256,18,13,18z"/>
<path style="fill:#E6E7E8;stroke:#ECF0F1;stroke-width:2;stroke-linecap:round;stroke-miterlimit:10;" d="M51,17L51,17
	c-1.1,0-2-0.9-2-2v-4c0-1.1,0.9-2,2-2h0c1.1,0,2,0.9,2,2v4C53,16.1,52.1,17,51,17z"/>
<path style="fill:#E6E7E8;stroke:#ECF0F1;stroke-width:2;stroke-linecap:round;stroke-miterlimit:10;" d="M50,31L50,31
	c0-1.1,0.9-2,2-2h4c1.1,0,2,0.9,2,2v0c0,1.1-0.9,2-2,2h-4C50.9,33,50,32.1,50,31z"/>
<g>
</g>
<g>
</g>
<g>
</g>
<g>
</g>
<g>
</g>
<g>
</g>
<g>
</g>
<g>
</g>
<g>
</g>
<g>
</g>
<g>
</g>
<g>
</g>
<g>
</g>
<g>
</g>
<g>
</g>
</svg>
