<?xml version="1.0" encoding="iso-8859-1"?>
<!-- Generator: Adobe Illustrator 19.0.0, SVG Export Plug-In . SVG Version: 6.00 Build 0)  -->
<svg version="1.1" id="Capa_1" xmlns="http://www.w3.org/2000/svg" xmlns:xlink="http://www.w3.org/1999/xlink" x="0px" y="0px"
	 viewBox="0 0 57 57" style="enable-background:new 0 0 57 57;" xml:space="preserve">
<path style="fill:#4FBA6F;" d="M24.8,14.249c-0.088,0.806-0.354,1.776-0.907,2.965c-1.07,2.302-2.958,4.868-5.316,7.226
	c-3.22,3.22-7.141,5.795-10.059,6.107c5.318,3.123,11.607,2.952,15.423-0.864C27.76,25.864,27.929,19.569,24.8,14.249z"/>
<path style="fill:#D75A4A;" d="M6.971,28.268c1.006,1.003,5.48-0.532,10.192-5.242c2.196-2.196,3.942-4.56,4.917-6.654
	c0.96-2.064,0.86-3.237,0.483-3.614c-0.391-0.391-0.391-1.023,0-1.414c0.014-0.014,0.034-0.019,0.049-0.032
	c-0.189-0.207-0.37-0.419-0.57-0.62C16.273,4.923,7.771,4.073,3.051,8.792c-4.72,4.72-3.87,13.222,1.899,18.991
	c0.187,0.187,0.384,0.354,0.576,0.531c0.013-0.014,0.017-0.032,0.03-0.046C5.947,27.878,6.58,27.878,6.971,28.268z"/>
<path style="fill:#F0C419;" d="M23.893,17.215c0.553-1.189,0.819-2.159,0.907-2.965c-0.604-1.026-1.341-2.01-2.188-2.938
	c-0.015,0.013-0.034,0.018-0.049,0.032c-0.391,0.391-0.391,1.023,0,1.414c0.377,0.377,0.477,1.55-0.483,3.614
	c-0.975,2.095-2.721,4.458-4.917,6.654c-4.712,4.71-9.186,6.245-10.192,5.242c-0.391-0.391-1.023-0.391-1.414,0
	c-0.013,0.013-0.018,0.032-0.03,0.046c0.944,0.866,1.946,1.619,2.991,2.233c2.918-0.312,6.839-2.887,10.059-6.107
	C20.935,22.083,22.823,19.516,23.893,17.215z"/>
<path style="fill:#CBB292;" d="M20.223,45.47c0.141-0.225,0.31-0.424,0.508-0.601l14.194-13.044
	c0.127-0.114,0.235-0.241,0.337-0.371c-0.795-0.445-1.539-0.986-2.202-1.65c-0.706-0.706-1.273-1.505-1.732-2.359
	c-0.145,0.11-0.284,0.231-0.41,0.372L17.873,42.011c-0.177,0.198-0.376,0.367-0.601,0.508c-1.178,0.739-4.908,2.999-4.908,2.999
	c-1.013,0.607-1.185,2.005-0.35,2.84l2.369,2.369c0.835,0.835,2.232,0.663,2.84-0.35C17.224,50.377,19.483,46.648,20.223,45.47z"/>
<path style="fill:#4FBA6F;" d="M46.907,30.112l1.939-5.399l-5.653,1.743c-0.35,0.109-0.728,0.017-0.99-0.236
	c-0.262-0.254-0.365-0.63-0.27-0.981l1.661-6.091l-6.09,1.661c-0.351,0.095-0.728-0.007-0.982-0.27
	c-0.253-0.262-0.344-0.642-0.237-0.99l1.744-5.652l-5.4,1.939c-0.39,0.138-0.81,0.021-1.074-0.265
	c-2.441,5.041-2.031,10.698,1.504,14.233c3.545,3.545,9.225,3.947,14.277,1.482C46.941,31.044,46.744,30.565,46.907,30.112z"/>
<path style="fill:#D75A4A;" d="M53.949,8.914c-4.72-4.72-13.222-3.87-18.991,1.899c-0.906,0.906-1.676,1.884-2.337,2.9l6.615-2.376
	c0.355-0.127,0.754-0.044,1.029,0.219c0.274,0.262,0.376,0.655,0.265,1.018L38.732,18.4l6.023-1.643
	c0.345-0.094,0.716,0.003,0.97,0.258c0.254,0.254,0.352,0.624,0.258,0.97l-1.643,6.023l5.828-1.797
	c0.363-0.112,0.756-0.01,1.018,0.265c0.262,0.273,0.346,0.672,0.218,1.028l-2.47,6.878c1.094-0.689,2.145-1.507,3.116-2.477
	C57.819,22.136,58.669,13.634,53.949,8.914z"/>
<path style="fill:#F0C419;" d="M51.187,22.476c-0.262-0.274-0.655-0.377-1.018-0.265l-5.828,1.797l1.643-6.023
	c0.094-0.346-0.004-0.716-0.258-0.97c-0.254-0.255-0.625-0.352-0.97-0.258L38.732,18.4l1.797-5.827
	c0.112-0.362,0.009-0.756-0.265-1.018c-0.274-0.263-0.674-0.346-1.029-0.219l-6.615,2.376c-0.395,0.608-0.76,1.225-1.066,1.858
	c0.264,0.286,0.684,0.403,1.074,0.265l5.4-1.939l-1.744,5.652c-0.107,0.349-0.017,0.729,0.237,0.99
	c0.254,0.263,0.631,0.364,0.982,0.27l6.09-1.661l-1.661,6.091c-0.096,0.352,0.007,0.728,0.27,0.981
	c0.263,0.253,0.64,0.346,0.99,0.236l5.653-1.743l-1.939,5.399c-0.163,0.453,0.034,0.932,0.429,1.174
	c0.542-0.265,1.074-0.574,1.598-0.904l2.47-6.878C51.533,23.148,51.449,22.75,51.187,22.476z"/>
<g>
	<path style="fill:#AD977F;" d="M24.817,34.455l3.623-3.942l-2.478-2.696c-0.114-0.127-0.241-0.235-0.371-0.336
		c-0.445,0.795-0.986,1.539-1.65,2.202c-0.706,0.706-1.505,1.273-2.359,1.732c0.11,0.145,0.231,0.284,0.372,0.41L24.817,34.455z"/>
	<path style="fill:#AD977F;" d="M44.514,45.518c0,0-3.729-2.26-4.908-2.999c-0.225-0.141-0.424-0.31-0.601-0.508l-6.944-7.556
		l-3.623,3.329l7.709,7.084c0.198,0.177,0.367,0.376,0.508,0.601c0.739,1.178,2.999,4.908,2.999,4.908
		c0.608,1.013,2.005,1.185,2.84,0.35l2.369-2.369C45.699,47.523,45.527,46.125,44.514,45.518z"/>
</g>
<g>
</g>
<g>
</g>
<g>
</g>
<g>
</g>
<g>
</g>
<g>
</g>
<g>
</g>
<g>
</g>
<g>
</g>
<g>
</g>
<g>
</g>
<g>
</g>
<g>
</g>
<g>
</g>
<g>
</g>
</svg>
