<?xml version="1.0" encoding="iso-8859-1"?>
<!-- Generator: Adobe Illustrator 19.0.0, SVG Export Plug-In . SVG Version: 6.00 Build 0)  -->
<svg version="1.1" id="Capa_1" xmlns="http://www.w3.org/2000/svg" xmlns:xlink="http://www.w3.org/1999/xlink" x="0px" y="0px"
	 viewBox="0 0 56.006 56.006" style="enable-background:new 0 0 56.006 56.006;" xml:space="preserve">
<path style="fill:#464F5D;" d="M55.017,48.22l-27-29.663c-0.665,2.159-1.846,4.195-3.555,5.904c-1.967,1.967-4.366,3.227-6.89,3.811
	L48.217,55.02c1.643,1.397,4.084,1.298,5.609-0.227l0.964-0.964C56.315,52.304,56.414,49.863,55.017,48.22z"/>
<g>
	<path style="fill:#D1D4D1;" d="M25.381,5.213c0.201,5.182-1.655,10.428-5.611,14.384c-4.053,4.053-9.461,5.903-14.765,5.592
		c5.629,4.843,14.121,4.608,19.458-0.728C29.732,19.191,30.036,10.841,25.381,5.213z"/>
</g>
<path style="fill:#ECF0F1;" d="M25.381,5.212c-0.288-0.349-0.592-0.689-0.918-1.016c-5.596-5.596-14.668-5.596-20.263,0
	c-5.596,5.596-5.596,14.668,0,20.263c0.259,0.259,0.533,0.493,0.806,0.728c5.305,0.311,10.712-1.539,14.765-5.592
	C23.727,15.64,25.583,10.394,25.381,5.212z"/>
<g>
	<circle style="fill:#A5A5A4;" cx="6.003" cy="6.006" r="1"/>
	<circle style="fill:#A5A5A4;" cx="9.003" cy="3.006" r="1"/>
	<circle style="fill:#A5A5A4;" cx="3.003" cy="9.006" r="1"/>
	<circle style="fill:#A5A5A4;" cx="10.003" cy="7.006" r="1"/>
	<circle style="fill:#A5A5A4;" cx="13.003" cy="4.006" r="1"/>
	<circle style="fill:#A5A5A4;" cx="16.003" cy="1.006" r="1"/>
	<circle style="fill:#A5A5A4;" cx="16.003" cy="7.006" r="1"/>
	<circle style="fill:#A5A5A4;" cx="19.003" cy="4.006" r="1"/>
	<circle style="fill:#A5A5A4;" cx="22.003" cy="7.006" r="1"/>
	<circle style="fill:#A5A5A4;" cx="7.003" cy="10.006" r="1"/>
	<circle style="fill:#A5A5A4;" cx="13.003" cy="10.006" r="1"/>
	<circle style="fill:#A5A5A4;" cx="19.003" cy="10.006" r="1"/>
	<circle style="fill:#A5A5A4;" cx="4.003" cy="13.006" r="1"/>
	<circle style="fill:#A5A5A4;" cx="4.003" cy="19.006" r="1"/>
	<circle style="fill:#A5A5A4;" cx="7.003" cy="16.006" r="1"/>
	<circle style="fill:#A5A5A4;" cx="10.003" cy="13.006" r="1"/>
	<circle style="fill:#A5A5A4;" cx="10.003" cy="19.006" r="1"/>
	<circle style="fill:#A5A5A4;" cx="13.003" cy="16.006" r="1"/>
	<circle style="fill:#A5A5A4;" cx="16.003" cy="13.006" r="1"/>
	<circle style="fill:#A5A5A4;" cx="16.003" cy="19.006" r="1"/>
	<circle style="fill:#A5A5A4;" cx="19.003" cy="16.006" r="1"/>
	<circle style="fill:#A5A5A4;" cx="22.003" cy="13.006" r="1"/>
	<circle style="fill:#A5A5A4;" cx="7.003" cy="22.006" r="1"/>
	<circle style="fill:#A5A5A4;" cx="13.003" cy="22.006" r="1"/>
</g>
<polygon style="fill:#BDC3C7;" points="28.003,31.006 27.003,30.006 27.003,28.006 28.003,27.006 30.003,27.006 31.003,28.006 
	31.003,30.006 30.003,31.006 "/>
<polygon style="fill:#BDC3C7;" points="35.003,38.006 34.003,37.006 34.003,35.006 35.003,34.006 37.003,34.006 38.003,35.006 
	38.003,37.006 37.003,38.006 "/>
<polygon style="fill:#BDC3C7;" points="42.003,45.006 41.003,44.006 41.003,42.006 42.003,41.006 44.003,41.006 45.003,42.006 
	45.003,44.006 44.003,45.006 "/>
<path style="fill:#8697CB;" d="M54.79,53.829c1.525-1.525,1.624-3.966,0.227-5.609l-2.005-2.203l-7.042,7.042l2.246,1.961
	c1.643,1.397,4.084,1.298,5.609-0.227L54.79,53.829z"/>
<g>
</g>
<g>
</g>
<g>
</g>
<g>
</g>
<g>
</g>
<g>
</g>
<g>
</g>
<g>
</g>
<g>
</g>
<g>
</g>
<g>
</g>
<g>
</g>
<g>
</g>
<g>
</g>
<g>
</g>
</svg>
