<?xml version="1.0" encoding="iso-8859-1"?>
<!-- Generator: Adobe Illustrator 19.0.0, SVG Export Plug-In . SVG Version: 6.00 Build 0)  -->
<svg version="1.1" id="Capa_1" xmlns="http://www.w3.org/2000/svg" xmlns:xlink="http://www.w3.org/1999/xlink" x="0px" y="0px"
	 viewBox="0 0 59.991 59.991" style="enable-background:new 0 0 59.991 59.991;" xml:space="preserve">
<path style="fill:#26B99A;" d="M38.43,14.848c4.736-3.024,5.529-7.111,4.693-9.927c-0.891-2.996-3.57-4.921-6.83-4.921
	c-1.748-0.021-3.438,0.635-4.579,1.791c-1.003,1.014-1.546,2.368-1.529,3.803v13.641c-3.811,3.322-7.844,6.889-8.6,7.559
	c-2.903,2.175-4.718,5.507-4.977,9.142c-0.235,3.289,0.811,6.356,2.869,8.415c3.313,3.313,8.667,3.027,10.707,2.77v4.467
	c0,0.718-0.066,1.276-0.21,1.758c-0.668,2.252-2.774,4.646-5.361,4.646c-2.846,0-5.16-2.314-5.16-5.16c0-0.553-0.447-1-1-1
	s-1,0.447-1,1c0,3.948,3.212,7.16,7.16,7.16c3.595,0,6.383-3.058,7.279-6.077c0.199-0.671,0.292-1.41,0.292-2.327v-4.903
	c4.028-1.249,6.661-4.402,6.661-8.148c0-3.963-2.884-7.256-6.661-7.913V20.147C35.382,17.365,37.996,15.126,38.43,14.848z
	 M32.185,5.583c-0.011-0.92,0.318-1.745,0.952-2.385c0.764-0.772,1.88-1.221,3.146-1.197c2.362,0,4.292,1.365,4.923,3.49
	c0.63,2.118-0.052,5.245-3.852,7.672c-0.473,0.302-2.608,2.117-5.169,4.334V5.583z M20.892,42.936
	c-1.624-1.624-2.479-4.188-2.289-6.858c0.219-3.057,1.742-5.856,4.244-7.734c2.142-1.894,4.813-4.245,7.338-6.452v8.631
	c-4.151,0.273-7,3.262-7,7.465c0,0.553,0.447,1,1,1s1-0.447,1-1c0-3.074,1.991-5.179,5-5.44V45.1
	C28.7,45.306,23.703,45.747,20.892,42.936z M36.846,38.536c0,2.991-2.155,5.049-4.661,6.028V32.661
	C34.852,33.287,36.846,35.681,36.846,38.536z"/>
<g>
</g>
<g>
</g>
<g>
</g>
<g>
</g>
<g>
</g>
<g>
</g>
<g>
</g>
<g>
</g>
<g>
</g>
<g>
</g>
<g>
</g>
<g>
</g>
<g>
</g>
<g>
</g>
<g>
</g>
</svg>
