<?xml version="1.0" encoding="iso-8859-1"?>
<!-- Generator: Adobe Illustrator 19.0.0, SVG Export Plug-In . SVG Version: 6.00 Build 0)  -->
<svg version="1.1" id="Capa_1" xmlns="http://www.w3.org/2000/svg" xmlns:xlink="http://www.w3.org/1999/xlink" x="0px" y="0px"
	 viewBox="0 0 57.439 57.439" style="enable-background:new 0 0 57.439 57.439;" xml:space="preserve">
<path style="fill:#35495E;" d="M9.322,55.996L9.322,55.996c-0.584,0.584-1.529,0.586-2.116,0.006l-5.855-5.794
	c-0.591-0.585-0.594-1.539-0.006-2.127h0c0.584-0.584,1.529-0.586,2.116-0.006l5.855,5.794C9.907,54.454,9.91,55.408,9.322,55.996z"
	/>
<path style="fill:#556080;" d="M3.241,52.077l-2.801,2.801c-0.586,0.586-0.586,1.536,0,2.121h0c0.586,0.586,1.536,0.586,2.121,0
	l2.812-2.812L3.241,52.077z"/>
<path style="fill:#556080;" d="M55.638,2.198l-0.397-0.397C54.087,0.648,52.523,0,50.891,0c-0.955,0-1.897,0.222-2.751,0.649
	l-0.769,0.385c-1.251,0.625-2.251,1.658-2.836,2.928l-4.222,9.164l-2.874,2.856V17l-1,1h-1.032l-2.968,2.949V22l-1,1h-1.065
	l-2.935,2.916V27l-1,1h-1.097l-2.903,2.884V32l-1,1h-1.13l-2.87,2.852V37l-1,1h-1.163l-2.837,2.819V42l-1,1h-1.195L4.3,48.905
	l4.265,4.22l36-36l8.948-4.218c1.248-0.588,2.262-1.579,2.879-2.813l0.398-0.796c0.427-0.854,0.649-1.796,0.649-2.751
	C57.439,4.917,56.791,3.352,55.638,2.198z"/>
<path style="fill:#E4C05C;" d="M20.682,46.728c-0.256,0-0.512-0.098-0.707-0.293l-4.242-4.242c-0.391-0.391-0.391-1.023,0-1.414
	s1.023-0.391,1.414,0l3.535,3.535l7.071-7.071l-3.535-3.535c-0.391-0.391-0.391-1.023,0-1.414s1.023-0.391,1.414,0l4.242,4.242
	c0.391,0.391,0.391,1.023,0,1.414l-8.485,8.485C21.193,46.63,20.937,46.728,20.682,46.728z"/>
<path style="fill:#E4C05C;" d="M25.046,42.364L25.046,42.364c-0.266,0-0.52-0.105-0.707-0.293l-4.242-4.243
	c-0.391-0.391-0.391-1.023,0-1.414s1.023-0.391,1.414,0l3.535,3.536l7.071-7.071l-3.535-3.536c-0.391-0.391-0.391-1.023,0-1.414
	s1.023-0.391,1.414,0l4.242,4.243c0.391,0.391,0.391,1.023,0,1.414l-8.485,8.485C25.565,42.259,25.311,42.364,25.046,42.364z"/>
<polygon style="fill:#E4C05C;stroke:#E4C05C;stroke-width:2;stroke-linecap:round;stroke-linejoin:round;stroke-miterlimit:10;" points="
	36.439,18 37.439,17 37.439,15 36.439,14 34.439,14 33.439,15 33.439,17 34.439,18 "/>
<polygon style="fill:#E4C05C;stroke:#E4C05C;stroke-width:2;stroke-linecap:round;stroke-linejoin:round;stroke-miterlimit:10;" points="
	31.439,23 32.439,22 32.439,20 31.439,19 29.439,19 28.439,20 28.439,22 29.439,23 "/>
<polygon style="fill:#E4C05C;stroke:#E4C05C;stroke-width:2;stroke-linecap:round;stroke-linejoin:round;stroke-miterlimit:10;" points="
	26.439,28 27.439,27 27.439,25 26.439,24 24.439,24 23.439,25 23.439,27 24.439,28 "/>
<polygon style="fill:#E4C05C;stroke:#E4C05C;stroke-width:2;stroke-linecap:round;stroke-linejoin:round;stroke-miterlimit:10;" points="
	21.439,33 22.439,32 22.439,30 21.439,29 19.439,29 18.439,30 18.439,32 19.439,33 "/>
<polygon style="fill:#E4C05C;stroke:#E4C05C;stroke-width:2;stroke-linecap:round;stroke-linejoin:round;stroke-miterlimit:10;" points="
	16.439,38 17.439,37 17.439,35 16.439,34 14.439,34 13.439,35 13.439,37 14.439,38 "/>
<polygon style="fill:#E4C05C;stroke:#E4C05C;stroke-width:2;stroke-linecap:round;stroke-linejoin:round;stroke-miterlimit:10;" points="
	11.439,43 12.439,42 12.439,40 11.439,39 9.439,39 8.439,40 8.439,42 9.439,43 "/>
<g>
</g>
<g>
</g>
<g>
</g>
<g>
</g>
<g>
</g>
<g>
</g>
<g>
</g>
<g>
</g>
<g>
</g>
<g>
</g>
<g>
</g>
<g>
</g>
<g>
</g>
<g>
</g>
<g>
</g>
</svg>
