<?xml version="1.0" encoding="iso-8859-1"?>
<!-- Generator: Adobe Illustrator 19.0.0, SVG Export Plug-In . SVG Version: 6.00 Build 0)  -->
<svg version="1.1" id="Capa_1" xmlns="http://www.w3.org/2000/svg" xmlns:xlink="http://www.w3.org/1999/xlink" x="0px" y="0px"
	 viewBox="0 0 59 59" style="enable-background:new 0 0 59 59;" xml:space="preserve">
<g>
	<polygon style="fill:#556080;" points="57.5,13 50.5,13 50.5,6 8.5,6 8.5,13 1.5,13 1.5,51 8.5,51 8.5,58 50.5,58 50.5,51 57.5,51 
			"/>
</g>
<polygon style="fill:#343B4C;" points="50.5,13 50.5,10 8.5,10 8.5,13 1.5,13 1.5,24 57.5,24 57.5,13 "/>
<g>
	<circle style="fill:#16181E;" cx="10.5" cy="11" r="1"/>
	<circle style="fill:#16181E;" cx="16.5" cy="11" r="1"/>
	<circle style="fill:#16181E;" cx="22.5" cy="11" r="1"/>
	<circle style="fill:#16181E;" cx="28.5" cy="11" r="1"/>
	<circle style="fill:#16181E;" cx="34.5" cy="11" r="1"/>
	<circle style="fill:#16181E;" cx="40.5" cy="11" r="1"/>
	<circle style="fill:#16181E;" cx="46.5" cy="11" r="1"/>
	<circle style="fill:#16181E;" cx="4.5" cy="17" r="1"/>
	<circle style="fill:#16181E;" cx="7.5" cy="14" r="1"/>
	<circle style="fill:#16181E;" cx="7.5" cy="20" r="1"/>
	<circle style="fill:#16181E;" cx="10.5" cy="17" r="1"/>
	<circle style="fill:#16181E;" cx="13.5" cy="14" r="1"/>
	<circle style="fill:#16181E;" cx="13.5" cy="20" r="1"/>
	<circle style="fill:#16181E;" cx="16.5" cy="17" r="1"/>
	<circle style="fill:#16181E;" cx="19.5" cy="14" r="1"/>
	<circle style="fill:#16181E;" cx="19.5" cy="20" r="1"/>
	<circle style="fill:#16181E;" cx="22.5" cy="17" r="1"/>
	<circle style="fill:#16181E;" cx="25.5" cy="14" r="1"/>
	<circle style="fill:#16181E;" cx="25.5" cy="20" r="1"/>
	<circle style="fill:#16181E;" cx="28.5" cy="17" r="1"/>
	<circle style="fill:#16181E;" cx="31.5" cy="14" r="1"/>
	<circle style="fill:#16181E;" cx="31.5" cy="20" r="1"/>
	<circle style="fill:#16181E;" cx="34.5" cy="17" r="1"/>
	<circle style="fill:#16181E;" cx="37.5" cy="14" r="1"/>
	<circle style="fill:#16181E;" cx="37.5" cy="20" r="1"/>
	<circle style="fill:#16181E;" cx="40.5" cy="17" r="1"/>
	<circle style="fill:#16181E;" cx="43.5" cy="14" r="1"/>
	<circle style="fill:#16181E;" cx="43.5" cy="20" r="1"/>
	<circle style="fill:#16181E;" cx="46.5" cy="17" r="1"/>
	<circle style="fill:#16181E;" cx="49.5" cy="14" r="1"/>
	<circle style="fill:#16181E;" cx="49.5" cy="20" r="1"/>
	<circle style="fill:#16181E;" cx="52.5" cy="17" r="1"/>
	<circle style="fill:#16181E;" cx="55.5" cy="14" r="1"/>
	<circle style="fill:#16181E;" cx="55.5" cy="20" r="1"/>
	<circle style="fill:#16181E;" cx="4.5" cy="23" r="1"/>
	<circle style="fill:#16181E;" cx="10.5" cy="23" r="1"/>
	<circle style="fill:#16181E;" cx="16.5" cy="23" r="1"/>
	<circle style="fill:#16181E;" cx="22.5" cy="23" r="1"/>
	<circle style="fill:#16181E;" cx="28.5" cy="23" r="1"/>
	<circle style="fill:#16181E;" cx="34.5" cy="23" r="1"/>
	<circle style="fill:#16181E;" cx="40.5" cy="23" r="1"/>
	<circle style="fill:#16181E;" cx="46.5" cy="23" r="1"/>
	<circle style="fill:#16181E;" cx="52.5" cy="23" r="1"/>
</g>
<path style="fill:#E4C05C;" d="M50.5,13V5h2.841C56.19,5,58.5,7.31,58.5,10.159V13H50.5z"/>
<path style="fill:#E4C05C;" d="M8.5,13h-8v-2.841C0.5,7.31,2.81,5,5.659,5H8.5V13z"/>
<path style="fill:#E4C05C;" d="M8.5,51v8H5.659C2.81,59,0.5,56.69,0.5,53.841V51H8.5z"/>
<path style="fill:#E4C05C;" d="M50.5,51h8v2.841C58.5,56.69,56.19,59,53.341,59H50.5V51z"/>
<circle style="fill:#343B4C;" cx="42.5" cy="39" r="11"/>
<rect x="23.5" y="52" style="fill:#ECF0F1;" width="12" height="3"/>
<path style="fill:#343B4C;" d="M37.5,7c-0.552,0-1-0.448-1-1V2.837C36.5,2.375,36.125,2,35.663,2H23.337
	C22.875,2,22.5,2.375,22.5,2.837V6c0,0.552-0.448,1-1,1s-1-0.448-1-1V2.837C20.5,1.273,21.773,0,23.337,0h12.325
	C37.227,0,38.5,1.273,38.5,2.837V6C38.5,6.552,38.052,7,37.5,7z"/>
<path style="fill:#232833;" d="M42.5,32c-3.866,0-7,3.134-7,7c0,3.866,3.134,7,7,7s7-3.134,7-7C49.5,35.134,46.366,32,42.5,32z
	 M44.5,40l-1,1h-2l-1-1v-2l1-1h2l1,1V40z"/>
<circle style="fill:#F3D55B;" cx="42.5" cy="39" r="3"/>
<circle style="fill:#343B4C;" cx="16.5" cy="39" r="11"/>
<path style="fill:#232833;" d="M16.5,32c-3.866,0-7,3.134-7,7c0,3.866,3.134,7,7,7s7-3.134,7-7C23.5,35.134,20.366,32,16.5,32z
	 M18.5,40l-1,1h-2l-1-1v-2l1-1h2l1,1V40z"/>
<circle style="fill:#F3D55B;" cx="16.5" cy="39" r="3"/>
<g>
</g>
<g>
</g>
<g>
</g>
<g>
</g>
<g>
</g>
<g>
</g>
<g>
</g>
<g>
</g>
<g>
</g>
<g>
</g>
<g>
</g>
<g>
</g>
<g>
</g>
<g>
</g>
<g>
</g>
</svg>
