<?xml version="1.0" encoding="iso-8859-1"?>
<!-- Generator: Adobe Illustrator 19.0.0, SVG Export Plug-In . SVG Version: 6.00 Build 0)  -->
<svg version="1.1" id="Capa_1" xmlns="http://www.w3.org/2000/svg" xmlns:xlink="http://www.w3.org/1999/xlink" x="0px" y="0px"
	 viewBox="0 0 54 54" style="enable-background:new 0 0 54 54;" xml:space="preserve">
<path style="fill:#0096E6;" d="M52.16,0.249c-0.217-0.19-0.503-0.275-0.788-0.241l-31,4C19.873,4.072,19.5,4.497,19.5,5v6v28.623
	C17.674,37.428,14.773,36,11.5,36c-5.514,0-10,4.037-10,9s4.486,9,10,9s10-4.037,10-9v-33.12l29-3.742v22.485
	C48.674,28.428,45.773,27,42.5,27c-5.514,0-10,4.037-10,9s4.486,9,10,9s10-4.037,10-9V7V1C52.5,0.712,52.376,0.438,52.16,0.249z"/>
<g>
</g>
<g>
</g>
<g>
</g>
<g>
</g>
<g>
</g>
<g>
</g>
<g>
</g>
<g>
</g>
<g>
</g>
<g>
</g>
<g>
</g>
<g>
</g>
<g>
</g>
<g>
</g>
<g>
</g>
</svg>
