<?xml version="1.0" encoding="iso-8859-1"?>
<!-- Generator: Adobe Illustrator 19.0.0, SVG Export Plug-In . SVG Version: 6.00 Build 0)  -->
<svg version="1.1" id="Capa_1" xmlns="http://www.w3.org/2000/svg" xmlns:xlink="http://www.w3.org/1999/xlink" x="0px" y="0px"
	 viewBox="0 0 60 60" style="enable-background:new 0 0 60 60;" xml:space="preserve">
<path style="fill:#F3D55B;" d="M40.408,11.097c-6.663-3.17-8.194-9.087-8.414-10.114c-0.003-0.184-0.067-0.347-0.157-0.494
	c-0.005-0.008-0.011-0.016-0.016-0.024c-0.058-0.088-0.123-0.166-0.205-0.232c-0.029-0.025-0.062-0.042-0.093-0.063
	c-0.065-0.041-0.129-0.079-0.203-0.105c-0.063-0.023-0.13-0.03-0.198-0.04C31.08,0.019,31.042,0,30.998,0
	c-0.016,0-0.03,0.008-0.046,0.009c-0.02,0.001-0.038-0.007-0.058-0.005c-0.078,0.007-0.147,0.038-0.219,0.061
	c-0.026,0.009-0.054,0.011-0.079,0.022c-0.362,0.152-0.617,0.5-0.617,0.913v16c0,0.034,0.016,0.063,0.02,0.097V40h-8
	c-5.514,0-10,4.486-10,10s4.486,10,10,10s10-4.486,10-10v-9V18.067c7.414,0.685,14.148,8.497,14.218,8.579
	C46.409,26.875,46.691,27,46.979,27c0.104,0,0.208-0.017,0.311-0.05c0.386-0.126,0.657-0.473,0.687-0.878
	C48.009,25.624,48.681,15.033,40.408,11.097z"/>
<g>
</g>
<g>
</g>
<g>
</g>
<g>
</g>
<g>
</g>
<g>
</g>
<g>
</g>
<g>
</g>
<g>
</g>
<g>
</g>
<g>
</g>
<g>
</g>
<g>
</g>
<g>
</g>
<g>
</g>
</svg>
