<?xml version="1.0" encoding="iso-8859-1"?>
<!-- Generator: Adobe Illustrator 19.0.0, SVG Export Plug-In . SVG Version: 6.00 Build 0)  -->
<svg version="1.1" id="Capa_1" xmlns="http://www.w3.org/2000/svg" xmlns:xlink="http://www.w3.org/1999/xlink" x="0px" y="0px"
	 viewBox="0 0 59 59" style="enable-background:new 0 0 59 59;" xml:space="preserve">
<path style="fill:#E4C05C;" d="M30,12.5c-12.15,0-22,9.85-22,22s9.85,22,22,22s22-9.85,22-22S42.15,12.5,30,12.5z M30,52.5
	c-9.941,0-18-8.059-18-18s8.059-18,18-18s18,8.059,18,18S39.941,52.5,30,52.5z"/>
<rect x="51" y="48.5" style="fill:#F9EAB0;" width="3" height="10"/>
<rect x="54" y="51.5" style="fill:#F0C419;" width="5" height="4"/>
<line style="fill:none;stroke:#B19046;stroke-width:2;stroke-linecap:round;stroke-linejoin:round;stroke-miterlimit:10;" x1="20" y1="34.5" x2="12" y2="34.5"/>
<line style="fill:none;stroke:#B19046;stroke-width:2;stroke-linecap:round;stroke-linejoin:round;stroke-miterlimit:10;" x1="28" y1="34.5" x2="24" y2="34.5"/>
<line style="fill:none;stroke:#B19046;stroke-width:2;stroke-linecap:round;stroke-linejoin:round;stroke-miterlimit:10;" x1="36" y1="34.5" x2="32" y2="34.5"/>
<line style="fill:none;stroke:#B19046;stroke-width:2;stroke-linecap:round;stroke-linejoin:round;stroke-miterlimit:10;" x1="48" y1="34.5" x2="40" y2="34.5"/>
<path style="fill:none;stroke:#B19046;stroke-width:2;stroke-linecap:round;stroke-linejoin:round;stroke-miterlimit:10;" d="
	M17,22.071L17,22.071c0,2.446,1.983,4.429,4.429,4.429h17.143c2.446,0,4.429-1.983,4.429-4.429v0"/>
<path style="fill:#F0C419;" d="M12.275,21.472c2.295-3.117,5.391-5.605,8.985-7.163c1.283-3.904,3.475-9.458,7.233-9.809H3.96
	C10.095,5.073,11.802,16.067,12.275,21.472z"/>
<path style="fill:#F0C419;" d="M35.452,55.818C34.04,56.246,32.553,56.5,31,56.5h20v-6h-5.909
	C42.42,53.02,39.122,54.882,35.452,55.818z"/>
<path style="fill:#F9EAB0;" d="M18.454,15.782C18.667,12.23,18.91,8.427,19.185,4.5h-5.306c0.284,4.491,0.549,9.239,0.793,14.24
	C15.82,17.623,17.085,16.628,18.454,15.782z"/>
<path style="fill:#F9EAB0;" d="M16,0.5c-6.075,0-11,1.791-11,4h22C27,2.291,22.075,0.5,16,0.5z"/>
<line style="fill:none;stroke:#E4C05C;stroke-width:2;stroke-linecap:round;stroke-linejoin:round;stroke-miterlimit:10;" x1="1" y1="4.5" x2="32" y2="4.5"/>
<polygon style="fill:#F0C419;" points="36,26.5 36,41.5 37,40.5 39,40.5 40,41.5 40,26.5 "/>
<polygon style="fill:#F0C419;" points="28,41.5 29,40.5 31,40.5 32,41.5 32,26.5 28,26.5 "/>
<polygon style="fill:#F0C419;" points="20,41.5 21,40.5 23,40.5 24,41.5 24,26.5 20,26.5 "/>
<polygon style="fill:#F9EAB0;" points="21,44.5 20,43.5 20,41.5 21,40.5 23,40.5 24,41.5 24,43.5 23,44.5 "/>
<polygon style="fill:#F9EAB0;" points="29,44.5 28,43.5 28,41.5 29,40.5 31,40.5 32,41.5 32,43.5 31,44.5 "/>
<polygon style="fill:#F9EAB0;" points="37,44.5 36,43.5 36,41.5 37,40.5 39,40.5 40,41.5 40,43.5 39,44.5 "/>
<g>
</g>
<g>
</g>
<g>
</g>
<g>
</g>
<g>
</g>
<g>
</g>
<g>
</g>
<g>
</g>
<g>
</g>
<g>
</g>
<g>
</g>
<g>
</g>
<g>
</g>
<g>
</g>
<g>
</g>
</svg>
