<?xml version="1.0" encoding="iso-8859-1"?>
<!-- Generator: Adobe Illustrator 19.0.0, SVG Export Plug-In . SVG Version: 6.00 Build 0)  -->
<svg version="1.1" id="Capa_1" xmlns="http://www.w3.org/2000/svg" xmlns:xlink="http://www.w3.org/1999/xlink" x="0px" y="0px"
	 viewBox="0 0 58.746 58.746" style="enable-background:new 0 0 58.746 58.746;" xml:space="preserve">
<rect x="45.372" y="1.268" transform="matrix(0.7071 0.7071 -0.7071 0.7071 15.539 -32.9793)" style="fill:#B9A46D;" width="4.414" height="2"/>
<rect x="53.668" y="9.917" transform="matrix(0.7071 0.7071 -0.7071 0.7071 24.1884 -36.562)" style="fill:#B9A46D;" width="5.121" height="2"/>
<rect x="50.84" y="15.574" transform="matrix(0.7071 0.7071 -0.7071 0.7071 27.3604 -32.9053)" style="fill:#B9A46D;" width="5.121" height="2"/>
<rect x="39.611" y="4.346" transform="matrix(0.7071 0.7071 -0.7071 0.7071 16.1318 -28.2543)" style="fill:#B9A46D;" width="5.121" height="2"/>
<path style="fill:#805333;" d="M28.682,36.428l-6.364-6.364l8.844-8.844c-4.457-2.123-9.833-1.666-13.892,1.38
	c-0.12,1.743-0.839,3.453-2.172,4.785c-2.263,2.263-5.61,2.77-8.367,1.535c-0.698,0.549-1.343,1.104-1.897,1.658
	c-6.444,6.444-6.444,16.891,0,23.335c6.444,6.444,16.891,6.444,23.335,0c0.554-0.554,1.109-1.199,1.658-1.897
	c-1.234-2.757-0.728-6.104,1.535-8.367c1.333-1.333,3.042-2.052,4.785-2.172c3.045-4.059,3.503-9.436,1.38-13.892L28.682,36.428z"/>
<circle style="fill:#42241E;" cx="16.5" cy="41.246" r="7.5"/>
<path style="fill:#42241E;" d="M42.836,15.91L42.836,15.91c-0.163-0.163-0.316-0.331-0.461-0.504
	c-3.036-3.639-1.48-9.232,2.844-11.171l7.87-3.528l4.95,4.95l-3.528,7.87c-1.939,4.324-7.532,5.881-11.171,2.844
	C43.167,16.226,42.999,16.072,42.836,15.91z"/>
<path style="fill:#7F5B53;" d="M43.341,16.371c-0.173-0.145-0.342-0.298-0.504-0.461c-0.163-0.163-0.316-0.331-0.461-0.504
	c-0.956-1.145-1.455-2.484-1.557-3.841L22,29.746l6.682,6.682l18.5-18.5C45.825,17.825,44.486,17.326,43.341,16.371z"/>
<path style="fill:#42241E;" d="M13.929,51.889c-0.256,0-0.512-0.098-0.707-0.293L6.15,44.524c-0.391-0.391-0.391-1.023,0-1.414
	s1.023-0.391,1.414,0l7.071,7.071c0.391,0.391,0.391,1.023,0,1.414C14.44,51.791,14.185,51.889,13.929,51.889z"/>
<g>
	<path style="fill:#CBB292;" d="M39.414,15.09c-0.391-0.391-1.023-0.391-1.414,0L6.15,45.938c-0.391,0.391-0.391,1.023,0,1.414
		c0.195,0.195,0.451,0.293,0.707,0.293s0.512-0.098,0.707-0.293l31.85-30.849C39.805,16.113,39.805,15.48,39.414,15.09z"/>
	<path style="fill:#CBB292;" d="M42.414,16.332c-0.391-0.391-1.023-0.391-1.414,0L8.272,48.06c-0.391,0.391-0.391,1.023,0,1.414
		c0.195,0.195,0.451,0.293,0.707,0.293s0.512-0.098,0.707-0.293l32.728-31.728C42.805,17.355,42.805,16.723,42.414,16.332z"/>
	<path style="fill:#CBB292;" d="M43.656,19.332c-0.391-0.391-1.023-0.391-1.414,0l-31.849,30.85c-0.391,0.391-0.391,1.023,0,1.414
		c0.195,0.195,0.451,0.293,0.707,0.293s0.512-0.098,0.707-0.293l31.849-30.85C44.047,20.355,44.047,19.723,43.656,19.332z"/>
</g>
<rect x="47.494" y="2.631" transform="matrix(0.7071 0.7071 -0.7071 0.7071 19.9532 -31.9086)" style="fill:#CBB292;" width="2" height="11"/>
<rect x="49.615" y="4.752" transform="matrix(0.7071 0.7071 -0.7071 0.7071 22.0743 -32.7872)" style="fill:#CBB292;" width="2" height="11"/>
<g>
</g>
<g>
</g>
<g>
</g>
<g>
</g>
<g>
</g>
<g>
</g>
<g>
</g>
<g>
</g>
<g>
</g>
<g>
</g>
<g>
</g>
<g>
</g>
<g>
</g>
<g>
</g>
<g>
</g>
</svg>
