<?xml version="1.0" encoding="iso-8859-1"?>
<!-- Generator: Adobe Illustrator 19.0.0, SVG Export Plug-In . SVG Version: 6.00 Build 0)  -->
<svg version="1.1" id="Capa_1" xmlns="http://www.w3.org/2000/svg" xmlns:xlink="http://www.w3.org/1999/xlink" x="0px" y="0px"
	 viewBox="0 0 57.968 57.968" style="enable-background:new 0 0 57.968 57.968;" xml:space="preserve">
<path style="fill:#F0C419;" d="M51.456,57.484H6.512c-0.306,0-0.567-0.219-0.62-0.52L0.001,15.582
	c-0.009-0.051,0.03-0.098,0.082-0.098h57.801c0.052,0,0.091,0.047,0.082,0.098l-5.891,41.381
	C52.023,57.265,51.761,57.484,51.456,57.484z"/>
<path style="fill:#65DDB9;" d="M55.384,15.484l0.544-4.44c0.03-0.3-0.205-0.56-0.507-0.56H2.547c-0.301,0-0.537,0.26-0.507,0.56
	l0.544,4.44H55.384z"/>
<g>
	<path style="fill:#FB7B76;" d="M51.984,10.484v-4.51c0-0.271-0.22-0.49-0.49-0.49H6.474c-0.271,0-0.49,0.219-0.49,0.49v4.51H51.984
		z"/>
</g>
<g>
	<path style="fill:#2FA8CC;" d="M47.984,5.484v-4.51c0-0.271-0.22-0.49-0.49-0.49H10.474c-0.271,0-0.49,0.219-0.49,0.49v4.51H47.984
		z"/>
</g>
<ellipse style="fill:#556080;" cx="28.484" cy="36.484" rx="19.5" ry="16"/>
<path style="fill:#8697CB;" d="M18.125,28.733c-0.311,0-0.616-0.144-0.812-0.414c-0.323-0.448-0.223-1.073,0.225-1.396
	c3.168-2.289,6.953-3.499,10.946-3.499c0.553,0,1,0.447,1,1s-0.447,1-1,1c-3.57,0-6.95,1.079-9.774,3.12
	C18.532,28.671,18.328,28.733,18.125,28.733z"/>
<path style="fill:#8697CB;" d="M20.56,31.708c-0.311,0-0.615-0.144-0.812-0.414c-0.323-0.447-0.223-1.072,0.225-1.396
	c2.463-1.781,5.406-2.723,8.512-2.723c0.553,0,1,0.447,1,1s-0.447,1-1,1c-2.682,0-5.22,0.811-7.34,2.344
	C20.968,31.646,20.763,31.708,20.56,31.708z"/>
<path style="fill:#8697CB;" d="M22.971,34.699c-0.309,0-0.613-0.143-0.809-0.411c-0.326-0.446-0.228-1.071,0.219-1.396
	c1.765-1.287,3.875-1.967,6.104-1.967c0.553,0,1,0.447,1,1c0,0.553-0.447,1-1,1c-1.802,0-3.506,0.547-4.926,1.582
	C23.381,34.636,23.175,34.699,22.971,34.699z"/>
<path style="fill:#8697CB;" d="M28.574,49.733c-0.553,0-1-0.447-1-1s0.447-1,1-1c3.57,0,6.95-1.079,9.774-3.121
	c0.446-0.324,1.073-0.224,1.396,0.225c0.323,0.447,0.223,1.072-0.225,1.396C36.354,48.523,32.568,49.733,28.574,49.733z"/>
<path style="fill:#8697CB;" d="M28.574,45.982c-0.553,0-1-0.447-1-1s0.447-1,1-1c2.683,0,5.221-0.811,7.34-2.345
	c0.446-0.323,1.071-0.224,1.396,0.225c0.323,0.447,0.224,1.072-0.225,1.396C34.624,45.04,31.681,45.982,28.574,45.982z"/>
<path style="fill:#8697CB;" d="M28.574,42.231c-0.553,0-1-0.447-1-1s0.447-1,1-1c1.804,0,3.507-0.547,4.925-1.582
	c0.448-0.326,1.073-0.227,1.397,0.218c0.326,0.446,0.228,1.072-0.218,1.397C32.915,41.551,30.805,42.231,28.574,42.231z"/>
<ellipse style="fill:#8697CB;" cx="28.88" cy="36.468" rx="2.327" ry="1.689"/>
<g>
</g>
<g>
</g>
<g>
</g>
<g>
</g>
<g>
</g>
<g>
</g>
<g>
</g>
<g>
</g>
<g>
</g>
<g>
</g>
<g>
</g>
<g>
</g>
<g>
</g>
<g>
</g>
<g>
</g>
</svg>
