<?xml version="1.0" encoding="iso-8859-1"?>
<!-- Generator: Adobe Illustrator 19.0.0, SVG Export Plug-In . SVG Version: 6.00 Build 0)  -->
<svg version="1.1" id="Capa_1" xmlns="http://www.w3.org/2000/svg" xmlns:xlink="http://www.w3.org/1999/xlink" x="0px" y="0px"
	 viewBox="0 0 60 60" style="enable-background:new 0 0 60 60;" xml:space="preserve">
<rect x="2" style="fill:#556080;" width="56" height="32"/>
<rect x="17.999" y="2" style="fill:#464F5D;" width="38.001" height="14"/>
<rect x="2" y="18" style="fill:#8697CB;" width="56" height="14"/>
<rect x="2" y="32" style="fill:#556080;" width="16" height="24"/>
<circle style="fill:#3D324C;" cx="10" cy="10" r="4"/>
<circle style="fill:#FFFFFF;" cx="10" cy="8" r="4"/>
<path style="fill:#BDC3C7;" d="M11,8c0,0.256-0.098,0.512-0.293,0.707c-0.391,0.391-1.023,0.391-1.414,0L6.464,5.878
	c-0.391-0.391-0.391-1.023,0-1.414s1.023-0.391,1.414,0l2.829,2.829C10.902,7.488,11,7.744,11,8z"/>
<g>
	<path style="fill:#E86721;" d="M43,5h-2c-0.553,0-1,0.448-1,1s0.447,1,1,1h2c0.553,0,1-0.448,1-1S43.553,5,43,5z"/>
	<path style="fill:#E86721;" d="M28,5h-2c-0.553,0-1,0.448-1,1s0.447,1,1,1h2c0.553,0,1-0.448,1-1S28.553,5,28,5z"/>
</g>
<g>
	<path style="fill:#FFD52F;" d="M43,8h-2c-0.553,0-1,0.448-1,1s0.447,1,1,1h2c0.553,0,1-0.448,1-1S43.553,8,43,8z"/>
	<path style="fill:#FFD52F;" d="M48,8h-2c-0.553,0-1,0.448-1,1s0.447,1,1,1h2c0.553,0,1-0.448,1-1S48.553,8,48,8z"/>
	<path style="fill:#FFD52F;" d="M23,8h-2c-0.553,0-1,0.448-1,1s0.447,1,1,1h2c0.553,0,1-0.448,1-1S23.553,8,23,8z"/>
	<path style="fill:#FFD52F;" d="M28,8h-2c-0.553,0-1,0.448-1,1s0.447,1,1,1h2c0.553,0,1-0.448,1-1S28.553,8,28,8z"/>
	<path style="fill:#FFD52F;" d="M33,8h-2c-0.553,0-1,0.448-1,1s0.447,1,1,1h2c0.553,0,1-0.448,1-1S33.553,8,33,8z"/>
	<path style="fill:#FFD52F;" d="M38,8h-2c-0.553,0-1,0.448-1,1s0.447,1,1,1h2c0.553,0,1-0.448,1-1S38.553,8,38,8z"/>
</g>
<g>
	<path style="fill:#97DE32;" d="M38,11h-2c-0.553,0-1,0.448-1,1s0.447,1,1,1h2c0.553,0,1-0.448,1-1S38.553,11,38,11z"/>
	<path style="fill:#97DE32;" d="M43,11h-2c-0.553,0-1,0.448-1,1s0.447,1,1,1h2c0.553,0,1-0.448,1-1S43.553,11,43,11z"/>
	<path style="fill:#97DE32;" d="M48,11h-2c-0.553,0-1,0.448-1,1s0.447,1,1,1h2c0.553,0,1-0.448,1-1S48.553,11,48,11z"/>
	<path style="fill:#97DE32;" d="M53,11h-2c-0.553,0-1,0.448-1,1s0.447,1,1,1h2c0.553,0,1-0.448,1-1S53.553,11,53,11z"/>
	<path style="fill:#97DE32;" d="M23,11h-2c-0.553,0-1,0.448-1,1s0.447,1,1,1h2c0.553,0,1-0.448,1-1S23.553,11,23,11z"/>
	<path style="fill:#97DE32;" d="M28,11h-2c-0.553,0-1,0.448-1,1s0.447,1,1,1h2c0.553,0,1-0.448,1-1S28.553,11,28,11z"/>
	<path style="fill:#97DE32;" d="M33,11h-2c-0.553,0-1,0.448-1,1s0.447,1,1,1h2c0.553,0,1-0.448,1-1S33.553,11,33,11z"/>
</g>
<polygon style="fill:#ECF0F1;" points="40,48 40,32 36,32 36,48 34,48 34,56 42,56 42,48 "/>
<polygon style="fill:#D7DCE0;" points="48,48 48,32 44,32 44,48 42,48 42,56 50,56 50,48 "/>
<polygon style="fill:#ECF0F1;" points="52,32 52,48 50,48 50,56 58,56 58,32 "/>
<rect x="6" y="36" style="fill:#ECF0F1;" width="8" height="16"/>
<path style="fill:#D1D4D1;" d="M14,35H6c-0.553,0-1,0.448-1,1v16c0,0.552,0.447,1,1,1h8c0.553,0,1-0.448,1-1V36
	C15,35.448,14.553,35,14,35z M13,45v2H7v-2H13z M7,43v-2h6v2H7z M13,37v2H7v-2H13z M7,51v-2h6v2H7z"/>
<polygon style="fill:#556080;" points="50,28 49,27 49,25 50,24 52,24 53,25 53,27 52,28 "/>
<polygon style="fill:#556080;" points="43,28 42,27 42,25 43,24 45,24 46,25 46,27 45,28 "/>
<polygon style="fill:#556080;" points="36,28 35,27 35,25 36,24 38,24 39,25 39,27 38,28 "/>
<polygon style="fill:#556080;" points="29,28 28,27 28,25 29,24 31,24 32,25 32,27 31,28 "/>
<polygon style="fill:#556080;" points="22,28 21,27 21,25 22,24 24,24 25,25 25,27 24,28 "/>
<polygon style="fill:#556080;" points="15,28 14,27 14,25 15,24 17,24 18,25 18,27 17,28 "/>
<polygon style="fill:#556080;" points="8,28 7,27 7,25 8,24 10,24 11,25 11,27 10,28 "/>
<polygon style="fill:#ECF0F1;" points="24,32 18,32 18,48 18,56 26,56 26,48 24,48 "/>
<polygon style="fill:#D7DCE0;" points="32,48 32,32 28,32 28,48 26,48 26,56 34,56 34,48 "/>
<g>
	<rect x="31" y="32" style="fill:#464F5D;" width="6" height="17"/>
	<rect x="39" y="32" style="fill:#464F5D;" width="6" height="17"/>
	<rect x="47" y="32" style="fill:#464F5D;" width="6" height="17"/>
	<rect x="23" y="32" style="fill:#464F5D;" width="6" height="17"/>
</g>
<polygon style="fill:#ECF0F1;" points="50,26 49,25 49,23 50,22 52,22 53,23 53,25 52,26 "/>
<polygon style="fill:#ECF0F1;" points="43,26 42,25 42,23 43,22 45,22 46,23 46,25 45,26 "/>
<polygon style="fill:#ECF0F1;" points="36,26 35,25 35,23 36,22 38,22 39,23 39,25 38,26 "/>
<polygon style="fill:#ECF0F1;" points="29,26 28,25 28,23 29,22 31,22 32,23 32,25 31,26 "/>
<polygon style="fill:#ECF0F1;" points="22,26 21,25 21,23 22,22 24,22 25,23 25,25 24,26 "/>
<polygon style="fill:#ECF0F1;" points="15,26 14,25 14,23 15,22 17,22 18,23 18,25 17,26 "/>
<polygon style="fill:#ECF0F1;" points="8,26 7,25 7,23 8,22 10,22 11,23 11,25 10,26 "/>
<rect x="2" y="56" style="fill:#464F5D;" width="16" height="4"/>
<rect x="18" y="56" style="fill:#BFCAD1;" width="8" height="4"/>
<rect x="26" y="56" style="fill:#ACB7C1;" width="8" height="4"/>
<rect x="34" y="56" style="fill:#BFCAD1;" width="8" height="4"/>
<rect x="50" y="56" style="fill:#BFCAD1;" width="8" height="4"/>
<rect x="42" y="56" style="fill:#ACB7C1;" width="8" height="4"/>
<rect x="47" y="46" style="fill:#2C2F38;" width="6" height="3"/>
<rect x="39" y="46" style="fill:#2C2F38;" width="6" height="3"/>
<rect x="31" y="46" style="fill:#2C2F38;" width="6" height="3"/>
<rect x="23" y="46" style="fill:#2C2F38;" width="6" height="3"/>
<g>
</g>
<g>
</g>
<g>
</g>
<g>
</g>
<g>
</g>
<g>
</g>
<g>
</g>
<g>
</g>
<g>
</g>
<g>
</g>
<g>
</g>
<g>
</g>
<g>
</g>
<g>
</g>
<g>
</g>
</svg>
