<?xml version="1.0" encoding="iso-8859-1"?>
<!-- Generator: Adobe Illustrator 19.0.0, SVG Export Plug-In . SVG Version: 6.00 Build 0)  -->
<svg version="1.1" id="Capa_1" xmlns="http://www.w3.org/2000/svg" xmlns:xlink="http://www.w3.org/1999/xlink" x="0px" y="0px"
	 viewBox="0 0 60 60" style="enable-background:new 0 0 60 60;" xml:space="preserve">
<path style="fill:#556080;" d="M0,0v60h60V0H0z M57,2v13H3V2H57z"/>
<rect y="18" style="fill:#45506D;" width="60" height="16"/>
<polygon style="fill:#ECF0F1;" points="32,50 32,34 26,34 26,54 34,54 34,50 "/>
<polygon style="fill:#D7DCE0;" points="40,50 40,34 36,34 36,50 34,50 34,54 42,54 42,50 "/>
<polygon style="fill:#ECF0F1;" points="48,50 48,34 44,34 44,50 42,50 42,54 50,54 50,50 "/>
<polygon style="fill:#D7DCE0;" points="52,34 52,50 50,50 50,54 58,54 58,34 "/>
<polygon style="fill:#D7DCE0;" points="8,50 8,34 2,34 2,54 10,54 10,50 "/>
<polygon style="fill:#ECF0F1;" points="16,50 16,34 12,34 12,50 10,50 10,54 18,54 18,50 "/>
<polygon style="fill:#D7DCE0;" points="20,34 20,50 18,50 18,54 26,54 26,34 "/>
<rect x="2" y="2" style="fill:#FFB200;" width="56" height="14"/>
<path style="fill:#2C2F38;" d="M8,25c-0.553,0-1-0.448-1-1v-3c0-0.552,0.447-1,1-1s1,0.448,1,1v3C9,24.552,8.553,25,8,25z"/>
<path style="fill:#2C2F38;" d="M8,30c-0.553,0-1-0.448-1-1v-2c0-0.552,0.447-1,1-1s1,0.448,1,1v2C9,29.552,8.553,30,8,30z"/>
<path style="fill:#2C2F38;" d="M16,26c-0.553,0-1-0.448-1-1v-4c0-0.552,0.447-1,1-1s1,0.448,1,1v4C17,25.552,16.553,26,16,26z"/>
<path style="fill:#2C2F38;" d="M16,30c-0.553,0-1-0.448-1-1v-1c0-0.552,0.447-1,1-1s1,0.448,1,1v1C17,29.552,16.553,30,16,30z"/>
<path style="fill:#2C2F38;" d="M24,24c-0.553,0-1-0.448-1-1v-2c0-0.552,0.447-1,1-1s1,0.448,1,1v2C25,23.552,24.553,24,24,24z"/>
<path style="fill:#2C2F38;" d="M24,30c-0.553,0-1-0.448-1-1v-3c0-0.552,0.447-1,1-1s1,0.448,1,1v3C25,29.552,24.553,30,24,30z"/>
<path style="fill:#2C2F38;" d="M32,26c-0.553,0-1-0.448-1-1v-4c0-0.552,0.447-1,1-1s1,0.448,1,1v4C33,25.552,32.553,26,32,26z"/>
<path style="fill:#2C2F38;" d="M32,30c-0.553,0-1-0.448-1-1v-1c0-0.552,0.447-1,1-1s1,0.448,1,1v1C33,29.552,32.553,30,32,30z"/>
<path style="fill:#2C2F38;" d="M40,23c-0.553,0-1-0.448-1-1v-1c0-0.552,0.447-1,1-1s1,0.448,1,1v1C41,22.552,40.553,23,40,23z"/>
<path style="fill:#2C2F38;" d="M40,30c-0.553,0-1-0.448-1-1v-4c0-0.552,0.447-1,1-1s1,0.448,1,1v4C41,29.552,40.553,30,40,30z"/>
<g>
	<path style="fill:#8D4700;" d="M9,5H6C5.447,5,5,5.448,5,6v6c0,0.552,0.447,1,1,1h3c0.553,0,1-0.448,1-1V6C10,5.448,9.553,5,9,5z
		 M8,11H7V7h1V11z"/>
	<path style="fill:#8D4700;" d="M15,5h-3c-0.553,0-1,0.448-1,1v6c0,0.552,0.447,1,1,1h3c0.553,0,1-0.448,1-1V6
		C16,5.448,15.553,5,15,5z M14,11h-1V7h1V11z"/>
	<path style="fill:#8D4700;" d="M24,5h-3c-0.553,0-1,0.448-1,1v6c0,0.552,0.447,1,1,1h3c0.553,0,1-0.448,1-1V6
		C25,5.448,24.553,5,24,5z M23,11h-1V7h1V11z"/>
	<path style="fill:#8D4700;" d="M30,7c0.553,0,1-0.448,1-1s-0.447-1-1-1h-3c-0.553,0-1,0.448-1,1v3c0,0.552,0.447,1,1,1h2v1h-2
		c-0.553,0-1,0.448-1,1s0.447,1,1,1h3c0.553,0,1-0.448,1-1V9c0-0.552-0.447-1-1-1h-2V7H30z"/>
	<circle style="fill:#8D4700;" cx="18" cy="7" r="1"/>
	<circle style="fill:#8D4700;" cx="18" cy="11" r="1"/>
	<path style="fill:#8D4700;" d="M38,11h-2c-0.553,0-1,0.448-1,1s0.447,1,1,1h2c0.553,0,1-0.448,1-1S38.553,11,38,11z"/>
	<path style="fill:#8D4700;" d="M43,11h-2c-0.553,0-1,0.448-1,1s0.447,1,1,1h2c0.553,0,1-0.448,1-1S43.553,11,43,11z"/>
	<path style="fill:#8D4700;" d="M43,8h-2c-0.553,0-1,0.448-1,1s0.447,1,1,1h2c0.553,0,1-0.448,1-1S43.553,8,43,8z"/>
	<path style="fill:#8D4700;" d="M43,5h-2c-0.553,0-1,0.448-1,1s0.447,1,1,1h2c0.553,0,1-0.448,1-1S43.553,5,43,5z"/>
	<path style="fill:#8D4700;" d="M48,11h-2c-0.553,0-1,0.448-1,1s0.447,1,1,1h2c0.553,0,1-0.448,1-1S48.553,11,48,11z"/>
	<path style="fill:#8D4700;" d="M48,8h-2c-0.553,0-1,0.448-1,1s0.447,1,1,1h2c0.553,0,1-0.448,1-1S48.553,8,48,8z"/>
	<path style="fill:#8D4700;" d="M53,11h-2c-0.553,0-1,0.448-1,1s0.447,1,1,1h2c0.553,0,1-0.448,1-1S53.553,11,53,11z"/>
</g>
<g>
	<rect x="7" y="33" style="fill:#464F5D;" width="6" height="18"/>
	<rect x="15" y="33" style="fill:#464F5D;" width="6" height="18"/>
	<rect x="31" y="33" style="fill:#464F5D;" width="6" height="18"/>
	<rect x="39" y="33" style="fill:#464F5D;" width="6" height="18"/>
	<rect x="47" y="33" style="fill:#464F5D;" width="6" height="18"/>
</g>
<rect x="2" y="54" style="fill:#ACB7C1;" width="8.073" height="3"/>
<rect x="50" y="54" style="fill:#ACB7C1;" width="8" height="3"/>
<rect x="10" y="54" style="fill:#BFCAD1;" width="8" height="3"/>
<rect x="26" y="54" style="fill:#BFCAD1;" width="8" height="3"/>
<rect x="42" y="54" style="fill:#BFCAD1;" width="8" height="3"/>
<rect x="18" y="54" style="fill:#ACB7C1;" width="8" height="3"/>
<rect x="34" y="54" style="fill:#ACB7C1;" width="8" height="3"/>
<rect x="7" y="48" style="fill:#2C2F38;" width="6" height="3"/>
<rect x="15" y="48" style="fill:#2C2F38;" width="6" height="3"/>
<rect x="31" y="48" style="fill:#2C2F38;" width="6" height="3"/>
<rect x="39" y="48" style="fill:#2C2F38;" width="6" height="3"/>
<rect x="47" y="48" style="fill:#2C2F38;" width="6" height="3"/>
<rect x="6" y="24" style="fill:#FFFFFF;" width="4" height="3"/>
<rect x="14" y="25" style="fill:#FFFFFF;" width="4" height="3"/>
<rect x="22" y="23" style="fill:#FFFFFF;" width="4" height="3"/>
<rect x="30" y="25" style="fill:#FFFFFF;" width="4" height="3"/>
<rect x="38" y="22" style="fill:#FFFFFF;" width="4" height="3"/>
<circle style="fill:#3D324C;" cx="52" cy="26" r="4"/>
<circle style="fill:#FFFFFF;" cx="52" cy="24" r="4"/>
<path style="fill:#BDC3C7;" d="M53,24c0,0.256-0.098,0.512-0.293,0.707c-0.391,0.391-1.023,0.391-1.414,0l-2.829-2.829
	c-0.391-0.391-0.391-1.023,0-1.414s1.023-0.391,1.414,0l2.829,2.829C52.902,23.488,53,23.744,53,24z"/>
<g>
</g>
<g>
</g>
<g>
</g>
<g>
</g>
<g>
</g>
<g>
</g>
<g>
</g>
<g>
</g>
<g>
</g>
<g>
</g>
<g>
</g>
<g>
</g>
<g>
</g>
<g>
</g>
<g>
</g>
</svg>
