<?xml version="1.0" encoding="iso-8859-1"?>
<!-- Generator: Adobe Illustrator 19.0.0, SVG Export Plug-In . SVG Version: 6.00 Build 0)  -->
<svg version="1.1" id="Capa_1" xmlns="http://www.w3.org/2000/svg" xmlns:xlink="http://www.w3.org/1999/xlink" x="0px" y="0px"
	 viewBox="0 0 60.057 60.057" style="enable-background:new 0 0 60.057 60.057;" xml:space="preserve">
<circle style="fill:#ECF0F1;stroke:#BDC3C7;stroke-width:2;stroke-linecap:round;stroke-miterlimit:10;" cx="18" cy="41.889" r="15"/>
<path style="fill:#556080;" d="M18,27.889c-0.552,0-1-0.447-1-1v-2c0-0.553,0.448-1,1-1s1,0.447,1,1v2
	C19,27.442,18.552,27.889,18,27.889z"/>
<path style="fill:#556080;" d="M18,59.889c-0.552,0-1-0.447-1-1v-2c0-0.553,0.448-1,1-1s1,0.447,1,1v2
	C19,59.442,18.552,59.889,18,59.889z"/>
<path style="fill:#556080;" d="M35,42.889h-2c-0.552,0-1-0.447-1-1s0.448-1,1-1h2c0.552,0,1,0.447,1,1S35.552,42.889,35,42.889z"/>
<path style="fill:#556080;" d="M3,42.889H1c-0.552,0-1-0.447-1-1s0.448-1,1-1h2c0.552,0,1,0.447,1,1S3.552,42.889,3,42.889z"/>
<path style="fill:#556080;" d="M5.979,54.91c-0.256,0-0.512-0.098-0.707-0.293c-0.391-0.391-0.391-1.023,0-1.414l1.415-1.414
	c0.391-0.391,1.023-0.391,1.414,0s0.391,1.023,0,1.414l-1.415,1.414C6.491,54.812,6.235,54.91,5.979,54.91z"/>
<path style="fill:#556080;" d="M30.021,54.91c-0.256,0-0.512-0.098-0.707-0.293l-1.415-1.414c-0.391-0.391-0.391-1.023,0-1.414
	c0.39-0.391,1.023-0.391,1.414,0l1.415,1.414c0.391,0.391,0.391,1.023,0,1.414C30.533,54.812,30.277,54.91,30.021,54.91z"/>
<path style="fill:#556080;" d="M7.394,32.283c-0.256,0-0.512-0.098-0.707-0.293l-1.415-1.414c-0.391-0.391-0.391-1.023,0-1.414
	c0.39-0.391,1.023-0.391,1.414,0l1.415,1.414c0.391,0.391,0.391,1.023,0,1.414C7.906,32.185,7.649,32.283,7.394,32.283z"/>
<circle style="fill:#556080;" cx="18.369" cy="42.104" r="7.298"/>
<path style="fill:#B9A46D;" d="M49.157,3.582c-0.256,0-0.512-0.098-0.707-0.293l-1.414-1.414c-0.391-0.391-0.391-1.023,0-1.414
	s1.023-0.391,1.414,0l1.414,1.414c0.391,0.391,0.391,1.023,0,1.414C49.669,3.484,49.413,3.582,49.157,3.582z"/>
<path style="fill:#B9A46D;" d="M46.329,6.411c-0.256,0-0.512-0.098-0.708-0.293l-1.414-1.415c-0.39-0.391-0.39-1.024,0-1.414
	c0.391-0.391,1.024-0.391,1.415,0l1.414,1.415c0.391,0.391,0.39,1.024,0,1.414C46.841,6.313,46.585,6.411,46.329,6.411z"/>
<path style="fill:#B9A46D;" d="M56.229,16.31c-0.256,0-0.512-0.098-0.707-0.293l-1.415-1.414c-0.391-0.39-0.391-1.023,0-1.414
	s1.023-0.391,1.414,0l1.415,1.414c0.391,0.39,0.391,1.023,0,1.414C56.74,16.213,56.485,16.31,56.229,16.31z"/>
<path style="fill:#B9A46D;" d="M59.057,13.481c-0.256,0-0.512-0.098-0.707-0.293l-1.414-1.414c-0.391-0.391-0.391-1.023,0-1.414
	s1.023-0.391,1.414,0l1.414,1.414c0.391,0.391,0.391,1.023,0,1.414C59.569,13.383,59.313,13.481,59.057,13.481z"/>
<path style="fill:#9B431C;" d="M57.735,4.089l-1.6-1.6c-1.901-1.901-4.984-1.901-6.886,0l-3.633,3.633
	c-0.582,0.582-0.666,1.568-0.07,2.135c0.614,0.583,0.623,1.554,0.028,2.149L27.767,28.215c-0.63,0.63-0.572,1.653,0.107,2.23
	c0.678,0.577,1.304,1.214,1.87,1.902c0.573,0.697,1.61,0.766,2.248,0.128l17.826-17.826c0.586-0.586,1.536-0.586,2.121,0v0
	c0.586,0.586,1.536,0.586,2.121,0l3.674-3.674C59.637,9.073,59.637,5.99,57.735,4.089z"/>
<g>
	<path style="fill:#CBB292;" d="M45.857,9.8c-0.391-0.391-1.023-0.391-1.414,0L8.182,46.441c-0.391,0.391-0.391,1.023,0,1.414
		c0.195,0.195,0.451,0.293,0.707,0.293s0.512-0.098,0.707-0.293l36.261-36.641C46.247,10.823,46.247,10.19,45.857,9.8z"/>
	<path style="fill:#CBB292;" d="M48.857,11.042c-0.391-0.391-1.023-0.391-1.414,0l-37.139,37.52c-0.391,0.391-0.391,1.023,0,1.414
		c0.195,0.195,0.451,0.293,0.707,0.293s0.512-0.098,0.707-0.293l37.139-37.52C49.247,12.065,49.247,11.433,48.857,11.042z"/>
	<path style="fill:#CBB292;" d="M50.099,14.042c-0.391-0.391-1.023-0.391-1.414,0l-36.26,36.642c-0.391,0.391-0.391,1.023,0,1.414
		c0.195,0.195,0.451,0.293,0.707,0.293s0.512-0.098,0.707-0.293l36.26-36.642C50.489,15.065,50.489,14.433,50.099,14.042z"/>
</g>
<g>
</g>
<g>
</g>
<g>
</g>
<g>
</g>
<g>
</g>
<g>
</g>
<g>
</g>
<g>
</g>
<g>
</g>
<g>
</g>
<g>
</g>
<g>
</g>
<g>
</g>
<g>
</g>
<g>
</g>
</svg>
