<?xml version="1.0" encoding="iso-8859-1"?>
<!-- Generator: Adobe Illustrator 19.0.0, SVG Export Plug-In . SVG Version: 6.00 Build 0)  -->
<svg version="1.1" id="Capa_1" xmlns="http://www.w3.org/2000/svg" xmlns:xlink="http://www.w3.org/1999/xlink" x="0px" y="0px"
	 viewBox="0 0 59.009 59.009" style="enable-background:new 0 0 59.009 59.009;" xml:space="preserve">
<path style="fill:#35495E;" d="M48.477,10.411l7.131,7.131c0,0-1.02,0.148-2.493,0.421c-5.469,1.014-9.838,3.424-13.771,7.357
	l-2.828-2.828l-2.828-2.828c3.933-3.933,6.224-8.421,7.238-13.89C41.198,4.3,41.346,3.28,41.346,3.28L48.477,10.411z"/>
<path style="fill:#556080;" d="M0.233,55.505l3.269,3.269c0.279,0.279,0.722,0.311,1.038,0.074l8.616-7.523
	c0.387-0.29,0.427-0.855,0.085-1.197l-4.362-4.362c-0.342-0.342-0.907-0.302-1.197,0.085l-7.523,8.616
	C-0.078,54.783-0.047,55.225,0.233,55.505z"/>
<line style="fill:none;stroke:#BDC3C7;stroke-width:2;stroke-linecap:round;stroke-miterlimit:10;" x1="39.009" y1="1.003" x2="58.009" y2="20.003"/>
<polygon style="fill:#556080;" points="33.687,19.662 39.344,25.319 38.334,26.328 38.009,26.003 36.009,26.003 35.009,27.003 
	35.009,29.003 35.334,29.328 33.334,31.328 33.009,31.003 31.009,31.003 30.009,32.003 30.009,34.003 30.334,34.328 28.334,36.328 
	28.009,36.003 26.009,36.003 25.009,37.003 25.009,39.003 25.334,39.328 23.334,41.328 23.009,41.003 21.009,41.003 20.009,42.003 
	20.009,44.003 20.334,44.328 18.334,46.328 18.009,46.003 16.009,46.003 15.009,47.003 15.009,49.003 15.334,49.328 13.888,50.775 
	8.231,45.118 "/>
<path style="fill:#35495E;" d="M0.159,54.467l1.011-1.158c1.222-1.399,3.372-1.472,4.686-0.159l0,0
	c1.313,1.313,1.241,3.464-0.159,4.686l-1.158,1.011c-0.316,0.237-0.759,0.206-1.038-0.074l-3.269-3.269
	C-0.047,55.225-0.078,54.783,0.159,54.467z"/>
<polygon style="fill:#D1D4D1;" points="38.009,30.003 39.009,29.003 39.009,27.003 38.009,26.003 36.009,26.003 35.009,27.003 
	35.009,29.003 36.009,30.003 "/>
<polygon style="fill:#D1D4D1;" points="33.009,35.003 34.009,34.003 34.009,32.003 33.009,31.003 31.009,31.003 30.009,32.003 
	30.009,34.003 31.009,35.003 "/>
<polygon style="fill:#D1D4D1;" points="28.009,40.003 29.009,39.003 29.009,37.003 28.009,36.003 26.009,36.003 25.009,37.003 
	25.009,39.003 26.009,40.003 "/>
<polygon style="fill:#D1D4D1;" points="23.009,45.003 24.009,44.003 24.009,42.003 23.009,41.003 21.009,41.003 20.009,42.003 
	20.009,44.003 21.009,45.003 "/>
<polygon style="fill:#D1D4D1;" points="18.009,50.003 19.009,49.003 19.009,47.003 18.009,46.003 16.009,46.003 15.009,47.003 
	15.009,49.003 16.009,50.003 "/>
<path style="fill:#BDC3C7;" d="M15.009,53.003c-0.256,0-0.512-0.098-0.707-0.293l-8-8c-0.391-0.391-0.391-1.023,0-1.414
	s1.023-0.391,1.414,0l8,8c0.391,0.391,0.391,1.023,0,1.414C15.521,52.905,15.265,53.003,15.009,53.003z"/>
<path style="fill:#D1D4D1;" d="M31.497,25.739l-4.242-4.242c-0.391-0.391-1.023-0.391-1.414,0l-14.64,14.64
	c-0.391,0.391-0.391,1.023,0,1.414l4.242,4.242c0.195,0.195,0.451,0.293,0.707,0.293c0.256,0,0.512-0.098,0.707-0.293
	c0.391-0.391,0.391-1.023,0-1.414l-3.535-3.535l3.548-3.548l4.414,4.414c0.195,0.195,0.451,0.293,0.707,0.293
	s0.512-0.098,0.707-0.293c0.391-0.391,0.391-1.023,0-1.414l-4.414-4.414l3.086-3.086l4.414,4.414
	c0.195,0.195,0.451,0.293,0.707,0.293s0.512-0.098,0.707-0.293c0.391-0.391,0.391-1.023,0-1.414l-4.414-4.414l3.764-3.764
	l3.535,3.535c0.391,0.391,1.023,0.391,1.414,0S31.888,26.13,31.497,25.739z"/>
<g>
</g>
<g>
</g>
<g>
</g>
<g>
</g>
<g>
</g>
<g>
</g>
<g>
</g>
<g>
</g>
<g>
</g>
<g>
</g>
<g>
</g>
<g>
</g>
<g>
</g>
<g>
</g>
<g>
</g>
</svg>
