<?xml version="1.0" encoding="iso-8859-1"?>
<!-- Generator: Adobe Illustrator 19.0.0, SVG Export Plug-In . SVG Version: 6.00 Build 0)  -->
<svg version="1.1" id="Capa_1" xmlns="http://www.w3.org/2000/svg" xmlns:xlink="http://www.w3.org/1999/xlink" x="0px" y="0px"
	 viewBox="0 0 59 59" style="enable-background:new 0 0 59 59;" xml:space="preserve">
<path style="fill:#E4C05C;" d="M58.707,53.757l-1.768-1.768c-0.188-0.188-0.441-0.293-0.707-0.293h-1L36.633,33.098
	c2.069-3.627,1.568-8.331-1.524-11.423L17.881,4.446C17.952,4.307,18,4.159,18,4V2c0-0.265-0.105-0.52-0.293-0.707l-1-1
	C16.52,0.105,16.266,0,16,0h-2c-0.266,0-0.52,0.105-0.707,0.293l-1,1C12.105,1.48,12,1.735,12,2v2c0,0.265,0.105,0.52,0.293,0.707
	l1,1C13.48,5.895,13.734,6,14,6h2c0.169,0,0.326-0.056,0.471-0.135l17.224,17.224c2.602,2.603,2.882,6.655,0.852,9.577
	c-0.002,0.002-0.004,0.003-0.006,0.005c-0.133,0.192-0.268,0.369-0.405,0.535c-0.14,0.167-0.285,0.332-0.442,0.489
	c-0.157,0.157-0.322,0.302-0.49,0.443c-0.167,0.137-0.343,0.271-0.534,0.404c-0.002,0.001-0.003,0.004-0.004,0.005
	c-2.923,2.031-6.977,1.751-9.579-0.851L5.865,16.471C5.944,16.326,6,16.169,6,16v-2c0-0.265-0.105-0.52-0.293-0.707l-1-1
	C4.52,12.105,4.266,12,4,12H2c-0.266,0-0.52,0.105-0.707,0.293l-1,1C0.105,13.48,0,13.735,0,14v2c0,0.265,0.105,0.52,0.293,0.707
	l1,1C1.48,17.895,1.734,18,2,18h2c0.159,0,0.307-0.048,0.446-0.119l17.229,17.228c1.852,1.852,4.284,2.778,6.717,2.778
	c1.629,0,3.253-0.425,4.707-1.254l18.598,18.599v1c0,0.265,0.105,0.52,0.293,0.708l1.769,1.768C53.945,58.895,54.2,59,54.465,59
	h1.768c0.266,0,0.52-0.105,0.707-0.293l1.768-1.768C58.895,56.752,59,56.498,59,56.232v-1.768
	C59,54.199,58.895,53.945,58.707,53.757z"/>
<g>
</g>
<g>
</g>
<g>
</g>
<g>
</g>
<g>
</g>
<g>
</g>
<g>
</g>
<g>
</g>
<g>
</g>
<g>
</g>
<g>
</g>
<g>
</g>
<g>
</g>
<g>
</g>
<g>
</g>
</svg>
