<svg id="Capa_1" enable-background="new 0 0 510 510" height="512" viewBox="0 0 510 510" width="512" xmlns="http://www.w3.org/2000/svg" xmlns:xlink="http://www.w3.org/1999/xlink"><linearGradient id="SVGID_1_" gradientTransform="matrix(.707 -.707 .707 .707 -105.625 255)" gradientUnits="userSpaceOnUse" x1="145.225" x2="365.844" y1="255" y2="255"><stop offset="0" stop-color="#f8f6f7"/><stop offset=".1788" stop-color="#f8f6f7"/><stop offset="1" stop-color="#e7e6f5"/></linearGradient><linearGradient id="SVGID_2_" gradientTransform="matrix(.707 -.707 .707 .707 -105.625 255)" gradientUnits="userSpaceOnUse" x1="127" x2="179.039" y1="255" y2="255"><stop offset="0" stop-color="#f8f6f7"/><stop offset="1" stop-color="#d1ceeb"/></linearGradient><linearGradient id="lg1"><stop offset="0" stop-color="#a79ba7"/><stop offset=".7487" stop-color="#7a6d79"/><stop offset="1" stop-color="#685e68"/></linearGradient><linearGradient id="SVGID_3_" gradientTransform="matrix(.707 -.707 .707 .707 -261.444 -121.181)" gradientUnits="userSpaceOnUse" x1="-174.914" x2="-104.008" xlink:href="#lg1" y1="631.181" y2="631.181"/><linearGradient id="SVGID_4_" gradientTransform="matrix(.707 -.707 .707 .707 -105.625 255)" gradientUnits="userSpaceOnUse" x1="-42" x2="42.054" xlink:href="#lg1" y1="255" y2="255"/><linearGradient id="SVGID_5_" gradientTransform="matrix(.707 -.707 .707 .707 -261.444 -121.181)" gradientUnits="userSpaceOnUse" x1="-123.921" x2="18.933" xlink:href="#lg1" y1="631.181" y2="631.181"/><linearGradient id="SVGID_6_" gradientTransform="matrix(.707 -.707 .707 .707 -105.625 255)" gradientUnits="userSpaceOnUse" x1="-61.35" x2="158.687" xlink:href="#lg1" y1="255" y2="255"/><linearGradient id="SVGID_7_" gradientTransform="matrix(.707 -.707 .707 .707 -261.444 -121.181)" gradientUnits="userSpaceOnUse" x1="304.96" x2="376.544" xlink:href="#lg1" y1="631.181" y2="631.181"/><linearGradient id="SVGID_8_" gradientTransform="matrix(.707 -.707 .707 .707 -105.625 255)" gradientUnits="userSpaceOnUse" x1="301.035" x2="508.464" xlink:href="#lg1" y1="255" y2="255"/><linearGradient id="SVGID_9_" gradientTransform="matrix(.707 -.707 .707 .707 -332.221 -50.403)" gradientUnits="userSpaceOnUse" x1="279.523" x2="422.377" xlink:href="#lg1" y1="631.181" y2="631.181"/><linearGradient id="SVGID_10_" gradientTransform="matrix(.707 -.707 .707 .707 -105.625 255)" gradientUnits="userSpaceOnUse" x1="242" x2="462.036" xlink:href="#lg1" y1="255" y2="255"/><g><path d="m308.826 161.885-146.941 146.941c-10.849 10.849-10.849 28.44 0 39.289 10.85 10.849 28.44 10.849 39.289 0l146.941-146.941c10.849-10.849 10.849-28.44 0-39.289-10.849-10.85-28.44-10.85-39.289 0z" fill="url(#SVGID_1_)"/><path d="m196.297 274.414-34.412 34.412c-10.849 10.849-10.849 28.44 0 39.289 10.85 10.849 28.44 10.849 39.289 0l34.412-34.412z" fill="url(#SVGID_2_)"/><g><path d="m179.907 467.259-37.51 37.51c-6.974 6.974-18.282 6.974-25.256 0l-111.91-111.91c-6.974-6.974-6.974-18.282 0-25.256l37.51-37.51z" fill="url(#SVGID_3_)"/><path d="m148.141 499.025 17.685-17.685-137.166-137.166-17.685 17.685z" fill="url(#SVGID_4_)"/><path d="m279.594 437.085-57.009 57.009c-12.151 12.151-31.853 12.151-44.004 0l-162.676-162.675c-12.151-12.151-12.151-31.853 0-44.004l57.009-57.009c12.151-12.151 31.853-12.151 44.004 0l162.676 162.676c12.152 12.151 12.152 31.852 0 44.003z" fill="url(#SVGID_5_)"/><path d="m72.915 230.406-28.298 28.298c12.151-12.151 31.853-12.151 44.004 0l162.675 162.676c12.151 12.151 12.151 31.853 0 44.004l28.298-28.298c12.151-12.151 12.151-31.853 0-44.004l-162.676-162.676c-12.151-12.152-31.852-12.151-44.003 0z" fill="url(#SVGID_6_)"/></g><g><path d="m467.259 179.907 37.51-37.51c6.974-6.974 6.974-18.282 0-25.256l-111.91-111.91c-6.974-6.974-18.282-6.974-25.256 0l-37.51 37.51z" fill="url(#SVGID_7_)"/><path d="m367.603 5.231-17.686 17.686c6.974-6.974 18.282-6.974 25.256 0l111.91 111.91c6.974 6.974 6.974 18.282 0 25.256l17.686-17.686c6.974-6.974 6.974-18.282 0-25.256l-111.91-111.91c-6.974-6.974-18.281-6.974-25.256 0z" fill="url(#SVGID_8_)"/><path d="m494.095 222.585-57.009 57.009c-12.151 12.151-31.853 12.151-44.004 0l-162.676-162.676c-12.151-12.151-12.151-31.853 0-44.004l57.009-57.009c12.151-12.151 31.853-12.151 44.004 0l162.676 162.676c12.151 12.151 12.151 31.853 0 44.004z" fill="url(#SVGID_9_)"/><path d="m287.415 15.905-28.298 28.298c12.151-12.151 31.853-12.151 44.004 0l162.675 162.677c12.151 12.151 12.151 31.853 0 44.004l28.298-28.298c12.151-12.151 12.151-31.853 0-44.004l-162.675-162.677c-12.151-12.151-31.853-12.151-44.004 0z" fill="url(#SVGID_10_)"/></g></g></svg>