<svg id="Capa_1" enable-background="new 0 0 510 510" height="512" viewBox="0 0 510 510" width="512" xmlns="http://www.w3.org/2000/svg" xmlns:xlink="http://www.w3.org/1999/xlink"><linearGradient id="lg1"><stop offset="0" stop-color="#685e68"/><stop offset="1" stop-color="#433f43"/></linearGradient><linearGradient id="SVGID_1_" gradientUnits="userSpaceOnUse" x1="354" x2="406.017" xlink:href="#lg1" y1="233.557" y2="233.557"/><linearGradient id="lg2"><stop offset="0" stop-color="#a79ba7"/><stop offset=".7487" stop-color="#7a6d79"/><stop offset="1" stop-color="#685e68"/></linearGradient><linearGradient id="SVGID_2_" gradientUnits="userSpaceOnUse" x1="326.276" x2="433.38" xlink:href="#lg2" y1="149.833" y2="149.833"/><linearGradient id="SVGID_3_" gradientUnits="userSpaceOnUse" x1="347.333" x2="412.67" xlink:href="#lg2" y1="149.833" y2="149.833"/><linearGradient id="SVGID_4_" gradientUnits="userSpaceOnUse" x1="96.004" x2="209.077" xlink:href="#lg2" y1="148.667" y2="148.667"/><linearGradient id="SVGID_5_" gradientUnits="userSpaceOnUse" x1="83.693" x2="137.213" xlink:href="#lg2" y1="224.243" y2="224.243"/><linearGradient id="lg3"><stop offset="0" stop-color="#f8f6f7"/><stop offset=".1788" stop-color="#f8f6f7"/><stop offset="1" stop-color="#e7e6f5"/></linearGradient><linearGradient id="SVGID_6_" gradientUnits="userSpaceOnUse" x1="61.422" x2="163.869" xlink:href="#lg3" y1="263.458" y2="263.458"/><linearGradient id="lg4"><stop offset="0" stop-color="#f8f6f7"/><stop offset="1" stop-color="#d1ceeb"/></linearGradient><linearGradient id="SVGID_7_" gradientUnits="userSpaceOnUse" x1="86" x2="141.658" xlink:href="#lg4" y1="357.856" y2="357.856"/><linearGradient id="SVGID_8_" gradientUnits="userSpaceOnUse" x1="33.333" x2="106.779" xlink:href="#lg4" y1="169.868" y2="169.868"/><linearGradient id="SVGID_9_" gradientTransform="matrix(.933 -.292 .202 .909 80.078 507.162)" gradientUnits="userSpaceOnUse" x1="24.298" x2="145.172" xlink:href="#lg2" y1="-401.71" y2="-401.71"/><linearGradient id="SVGID_10_" gradientUnits="userSpaceOnUse" x1="-48.663" x2="131.609" xlink:href="#lg2" y1="115.77" y2="115.77"/><linearGradient id="SVGID_11_" gradientUnits="userSpaceOnUse" x1="129.736" x2="445.811" xlink:href="#lg3" y1="332.649" y2="332.649"/><linearGradient id="SVGID_12_" gradientUnits="userSpaceOnUse" x1="200" x2="301.944" xlink:href="#lg4" y1="308.436" y2="308.436"/><linearGradient id="SVGID_13_" gradientUnits="userSpaceOnUse" x1="248" x2="464.002" xlink:href="#lg4" y1="332.651" y2="332.651"/><linearGradient id="lg5"><stop offset="0" stop-color="#fe99a0"/><stop offset=".593" stop-color="#fe646f"/><stop offset="1" stop-color="#e41f2d"/></linearGradient><linearGradient id="SVGID_14_" gradientUnits="userSpaceOnUse" x1="272.978" x2="440.156" xlink:href="#lg5" y1="338.256" y2="338.256"/><linearGradient id="SVGID_15_" gradientUnits="userSpaceOnUse" x1="254" x2="348.69" xlink:href="#lg5" y1="330.186" y2="330.186"/><linearGradient id="SVGID_16_" gradientUnits="userSpaceOnUse" x1="339.652" x2="438.062" y1="338.256" y2="338.256"><stop offset="0" stop-color="#fe646f"/><stop offset=".7043" stop-color="#e41f2d"/><stop offset="1" stop-color="#c41926"/></linearGradient><linearGradient id="SVGID_17_" gradientUnits="userSpaceOnUse" x1="333.443" x2="394.828" xlink:href="#lg3" y1="338.256" y2="338.256"/><linearGradient id="SVGID_18_" gradientUnits="userSpaceOnUse" x1="263.5" x2="370.198" xlink:href="#lg4" y1="344.219" y2="344.219"/><linearGradient id="SVGID_19_" gradientUnits="userSpaceOnUse" x1="-7.483" x2="566.244" xlink:href="#lg2" y1="449.698" y2="449.698"/><linearGradient id="SVGID_20_" gradientUnits="userSpaceOnUse" x1="333.869" x2="459.841" xlink:href="#lg2" y1="449.698" y2="449.698"/><linearGradient id="SVGID_21_" gradientUnits="userSpaceOnUse" x1="288" x2="352.67" xlink:href="#lg1" y1="294.162" y2="294.162"/><linearGradient id="SVGID_22_" gradientUnits="userSpaceOnUse" x1="248.667" x2="314.122" xlink:href="#lg2" y1="253.955" y2="253.955"/><linearGradient id="SVGID_23_" gradientUnits="userSpaceOnUse" x1="223.333" x2="308.442" xlink:href="#lg2" y1="253.958" y2="253.958"/><g><path d="m373.083 155.857-12.454 12.454c-16.99 16.99-26.347 39.58-26.347 63.607v59.338c0 5.524 2.238 10.523 5.858 14.142 3.675 3.675 8.774 5.926 14.397 5.856 11.032-.138 19.745-9.483 19.745-20.516v-58.82c0-13.344 5.196-25.888 14.631-35.324l23.39-23.39c6.402-6.402 1.868-17.348-7.186-17.348h-32.034z" fill="url(#SVGID_1_)"/><path d="m401.544 126.283c-7.454 4.111-15.828 6.267-24.341 6.267h-20.729c-9.211 0-17.694 5.558-20.851 14.211-.871 2.387-1.342 4.955-1.342 7.616 0 12.28 9.955 22.235 22.235 22.235h56.168c14.887 0 26.954-12.068 26.954-26.954v-1.378c0-.444-.011-.886-.032-1.324-.896-18.742-21.632-29.734-38.062-20.673z" fill="url(#SVGID_2_)"/><path d="m439.607 146.955c-.897-18.741-21.633-29.733-38.063-20.672 7.27 3.979 12.606 11.369 13.052 20.672.021.438.031.88.031 1.324v1.378c0 14.887-12.068 26.954-26.954 26.954h25.011c14.886 0 26.954-12.068 26.954-26.954v-1.378c.001-.444-.01-.885-.031-1.324z" fill="url(#SVGID_3_)"/><path d="m85.131 257.162c-6.903 0-12.5-5.597-12.5-12.5v-6.645c0-24.522 19.95-44.472 44.472-44.472 5.201 0 10.09-2.025 13.767-5.702l19.125-19.125c6.906-6.906 10.71-16.087 10.71-25.854 0-9.766-3.804-18.948-10.71-25.854l-55.499-55.5c-4.882-4.882-4.882-12.796 0-17.678s12.796-4.88 17.678 0l55.499 55.5c11.628 11.627 18.032 27.087 18.032 43.531s-6.404 31.904-18.032 43.532l-19.124 19.124c-8.398 8.399-19.565 13.025-31.445 13.025-10.736 0-19.472 8.735-19.472 19.472v6.645c-.001 6.904-5.598 12.501-12.501 12.501z" fill="url(#SVGID_4_)"/><path d="m126.15 191.328v26.3c-2.94.61-5.97.92-9.05.92-6.6 0-12.44 3.3-15.96 8.34-2.21 3.15-3.51 6.99-3.51 11.13v6.64c0 6.91-5.6 12.5-12.5 12.5s-12.5-5.59-12.5-12.5v-6.64c0-18.9 11.85-35.08 28.51-41.51 4.96-1.91 10.34-2.96 15.96-2.96 3.2 0 6.29-.77 9.05-2.22z" fill="url(#SVGID_5_)"/><path d="m143.869 393.556c-5.119 0-10.236-1.952-14.143-5.858l-41.958-41.958c-16.989-16.99-26.347-39.58-26.347-63.607v-128.773c0-11.046 8.954-20 20-20s20 8.954 20 20v128.771c0 13.343 5.196 25.888 14.632 35.323l41.958 41.958c7.811 7.811 7.81 20.474-.001 28.284-3.903 3.907-9.023 5.86-14.141 5.86z" fill="url(#SVGID_6_)"/><path d="m100.585 358.556 29.141 29.142c3.906 3.906 9.023 5.858 14.143 5.858 5.118 0 10.237-1.953 14.142-5.858 7.811-7.81 7.812-20.474.001-28.284l-37.257-37.258c-8.66 10.855-15.512 23.147-20.17 36.4z" fill="url(#SVGID_7_)"/><path d="m101.42 153.358v53.02c-10.56-.27-21.04-4.44-29.1-12.49l-10.9-10.9v-29.63c0-11.04 8.96-20 20-20 11.05 0 20 8.96 20 20z" fill="url(#SVGID_8_)"/><path d="m62.074 60.261 80.341 80.341c2.945 2.945 2.945 7.719 0 10.664l-9.724 9.724c-16.672 16.672-43.702 16.672-60.374 0l-30.631-30.631c-16.672-16.672-16.672-43.702 0-60.374l9.724-9.724c2.945-2.945 7.72-2.945 10.664 0z" fill="url(#SVGID_9_)"/><path d="m142.416 140.602-80.342-80.341c-2.945-2.945-7.719-2.945-10.664 0l-7.174 7.174 73.168 73.168c2.945 2.945 2.945 7.719 0 10.664l-9.724 9.724c-5.117 5.117-11.212 8.656-17.682 10.632 14.609 4.462 31.138.922 42.693-10.632l9.724-9.724c2.946-2.946 2.946-7.72.001-10.665z" fill="url(#SVGID_10_)"/><path d="m431.785 436.649h-276.1c-20.328 0-36.806-16.479-36.806-36.806 0-57.457 39.296-107.462 95.124-121.047l129.49-44.334c19.083-6.533 39.707-7.743 59.234-2.689 44.037 11.396 78.091 51.309 78.091 100.824v55.02c0 27.08-21.953 49.032-49.033 49.032z" fill="url(#SVGID_11_)"/><path d="m249.261 288.381c4.506-.733 9.052-1.125 13.602-1.215l72.964 72.965c5.074 5.074 12.894 4.638 17.551.114l.011.017 16.781-16.781c-12.794-2.594-24.54-8.901-33.771-18.132l-41.175-41.175c3.836-3.321 6.304-8.227 6.304-13.791 0-8.15-5.292-14.889-12.428-17.298l-60.747 20.798c1.835 9.474 10.963 16.115 20.908 14.498z" fill="url(#SVGID_12_)"/><path d="m402.727 231.772c-14.751-3.817-30.126-4.056-44.992-1.13 1.663.338 3.323.704 4.972 1.13 44.038 11.396 78.091 51.309 78.091 100.824v55.02c0 27.08-21.953 49.033-49.033 49.033h40.02c27.08 0 49.033-21.953 49.033-49.033v-55.02c0-49.515-34.054-89.428-78.091-100.824z" fill="url(#SVGID_13_)"/><circle cx="364.533" cy="338.256" fill="url(#SVGID_14_)" r="70.532"/><path d="m336.4 325.348-28.763-28.764c-5.206 7.096-9.125 15.196-11.392 23.963l39.583 39.583c5.074 5.074 12.894 4.638 17.551.114l.011.017 16.781-16.781c-12.794-2.594-24.54-8.901-33.771-18.132z" fill="url(#SVGID_15_)"/><path d="m364.533 267.724c-4.27 0-8.444.401-12.505 1.128 32.985 5.905 58.026 34.721 58.026 69.404s-25.042 63.499-58.026 69.404c4.061.727 8.235 1.128 12.505 1.128 38.954 0 70.532-31.578 70.532-70.532s-31.578-70.532-70.532-70.532z" fill="url(#SVGID_16_)"/><circle cx="364.533" cy="338.256" fill="url(#SVGID_17_)" r="31.818"/><path d="m336.4 325.348-.654-.654c-1.942 4.115-3.032 8.71-3.032 13.561 0 10.428 5.017 19.685 12.769 25.488 2.918-.206 5.744-1.41 7.895-3.499l.011.017 16.781-16.781c-12.793-2.594-24.539-8.901-33.77-18.132z" fill="url(#SVGID_18_)"/><g><path d="m489.87 469.828h-469.74c-11.118 0-20.13-9.013-20.13-20.13 0-11.118 9.013-20.13 20.13-20.13h469.74c11.118 0 20.13 9.013 20.13 20.13 0 11.118-9.013 20.13-20.13 20.13z" fill="url(#SVGID_19_)"/><path d="m489.87 429.568h-40.469c11.118 0 20.13 9.013 20.13 20.13 0 11.118-9.013 20.13-20.13 20.13h40.469c11.118 0 20.13-9.013 20.13-20.13 0-11.118-9.013-20.13-20.13-20.13z" fill="url(#SVGID_20_)"/></g><path d="m270.68 244.78c-4.778 4.954-4.411 12.937.456 17.804l81.119 81.12c6.549 6.549 17.698 3.95 20.676-4.821 1.53-4.507.368-9.491-2.998-12.857l-81.412-81.412c-4.937-4.935-12.974-4.881-17.841.166z" fill="url(#SVGID_21_)"/><g><path d="m296.769 235.947c-10.312 1.684-20.828 1.684-31.14 0-11.104-1.813-21.188 6.757-21.188 18.008 0 11.251 10.084 19.822 21.188 18.008 10.312-1.684 20.828-1.684 31.14 0 11.104 1.813 21.188-6.757 21.188-18.008 0-11.251-10.084-19.822-21.188-18.008z" fill="url(#SVGID_22_)"/><path d="m317.96 253.958c0 10.24-8.35 18.25-18.22 18.25-.98 0-1.97-.08-2.97-.24-4.9-.81-9.86-1.23-14.82-1.26 6.4-2.78 11-9.15 11-16.75s-4.61-13.98-11.02-16.76c4.97-.03 9.93-.45 14.84-1.25 1-.16 1.99-.24 2.97-.24 9.87 0 18.22 8.01 18.22 18.25z" fill="url(#SVGID_23_)"/></g></g></svg>