<svg id="Capa_1" enable-background="new 0 0 510 510" height="512" viewBox="0 0 510 510" width="512" xmlns="http://www.w3.org/2000/svg" xmlns:xlink="http://www.w3.org/1999/xlink"><linearGradient id="lg1"><stop offset="0" stop-color="#fff9df"/><stop offset=".593" stop-color="#ffe177"/><stop offset="1" stop-color="#feb137"/></linearGradient><linearGradient id="SVGID_1_" gradientUnits="userSpaceOnUse" x1="100.41" x2="202.152" xlink:href="#lg1" y1="140.06" y2="140.06"/><linearGradient id="SVGID_2_" gradientUnits="userSpaceOnUse" x1="31.112" x2="210.154" xlink:href="#lg1" y1="140.06" y2="140.06"/><linearGradient id="SVGID_3_" gradientUnits="userSpaceOnUse" x1="307.848" x2="409.59" xlink:href="#lg1" y1="140.06" y2="140.06"/><linearGradient id="SVGID_4_" gradientUnits="userSpaceOnUse" x1="238.55" x2="417.592" xlink:href="#lg1" y1="140.06" y2="140.06"/><linearGradient id="lg2"><stop offset="0" stop-color="#fe646f"/><stop offset=".7043" stop-color="#e41f2d"/><stop offset="1" stop-color="#c41926"/></linearGradient><linearGradient id="SVGID_5_" gradientTransform="matrix(1 0 -.45 1 213.168 0)" gradientUnits="userSpaceOnUse" x1="25.988" x2="111.027" xlink:href="#lg2" y1="340.69" y2="340.69"/><linearGradient id="lg3"><stop offset="0" stop-color="#c41926"/><stop offset="1" stop-color="#c41926"/></linearGradient><linearGradient id="SVGID_6_" gradientUnits="userSpaceOnUse" x1="123.333" x2="192.158" xlink:href="#lg3" y1="271.382" y2="271.382"/><linearGradient id="SVGID_7_" gradientUnits="userSpaceOnUse" x1="354.867" x2="450.203" xlink:href="#lg2" y1="340.69" y2="340.69"/><linearGradient id="SVGID_8_" gradientUnits="userSpaceOnUse" x1="337.534" x2="411.561" xlink:href="#lg3" y1="271.382" y2="271.382"/><linearGradient id="SVGID_9_" gradientUnits="userSpaceOnUse" x1="1.602" x2="502.582" y1="225.192" y2="225.192"><stop offset="0" stop-color="#fe99a0"/><stop offset=".593" stop-color="#fe646f"/><stop offset="1" stop-color="#e41f2d"/></linearGradient><linearGradient id="SVGID_10_" gradientUnits="userSpaceOnUse" x1="308" x2="505.649" xlink:href="#lg2" y1="225.192" y2="225.192"/><g><g><g><g><g><path d="m202.152 213.583h-101.742v-99.505c0-26.214 21.327-47.541 47.541-47.541h6.661c26.214 0 47.541 21.327 47.541 47.541v99.505zm-76.742-25h51.743v-74.505c0-12.429-10.112-22.541-22.541-22.541h-6.661c-12.429 0-22.541 10.112-22.541 22.541z" fill="url(#SVGID_1_)"/></g></g><path d="m154.611 66.537h-6.661c-3.139 0-6.205.314-9.175.897 21.401 4.202 37.688 22.807 38.331 45.269.028.455.046.913.046 1.375v74.505h-.011v25h25.011v-99.505c0-26.214-21.326-47.541-47.541-47.541z" fill="url(#SVGID_2_)"/></g><g><g><g><path d="m409.59 213.583h-101.742v-99.505c0-26.214 21.327-47.541 47.541-47.541h6.661c26.214 0 47.541 21.327 47.541 47.541v99.505zm-76.742-25h51.743v-74.505c0-12.429-10.112-22.541-22.541-22.541h-6.661c-12.429 0-22.541 10.112-22.541 22.541z" fill="url(#SVGID_3_)"/></g></g><path d="m362.049 66.537h-6.661c-3.139 0-6.205.314-9.175.897 21.401 4.202 37.688 22.807 38.331 45.269.028.455.046.913.046 1.375v74.505h-.011v25h25.011v-99.505c0-26.214-21.326-47.541-47.541-47.541z" fill="url(#SVGID_4_)"/></g></g><g><g><path d="m69.273 443.463c-13.01 0-21.686-13.424-16.343-25.286l81.192-180.261h68.031l-117.489 196.81c-3.235 5.419-9.081 8.737-15.391 8.737z" fill="url(#SVGID_5_)"/><path d="m202.15 237.912-25.03 41.93-14.93 25.01h-58.22l11.26-25.01 18.89-41.93z" fill="url(#SVGID_6_)"/></g><g><path d="m440.727 443.463c13.01 0 21.686-13.424 16.343-25.286l-81.192-180.261h-68.031l117.489 196.81c3.235 5.419 9.081 8.737 15.391 8.737z" fill="url(#SVGID_7_)"/><path d="m307.85 237.912 25.03 41.93 14.93 25.01h58.22l-11.26-25.01-18.89-41.93z" fill="url(#SVGID_8_)"/></g></g><g><path d="m478.077 279.794h-446.154c-17.631 0-31.923-14.292-31.923-31.922v-45.359c0-17.63 14.292-31.923 31.923-31.923h446.154c17.63 0 31.923 14.292 31.923 31.923v45.359c0 17.63-14.292 31.922-31.923 31.922z" fill="url(#SVGID_9_)"/><path d="m478.077 170.59h-41.025c17.63 0 31.923 14.292 31.923 31.923v45.359c0 17.63-14.292 31.923-31.923 31.923h41.025c17.63 0 31.923-14.292 31.923-31.923v-45.359c0-17.63-14.292-31.923-31.923-31.923z" fill="url(#SVGID_10_)"/></g></g></svg>