<svg id="Capa_1" enable-background="new 0 0 510 510" height="512" viewBox="0 0 510 510" width="512" xmlns="http://www.w3.org/2000/svg" xmlns:xlink="http://www.w3.org/1999/xlink"><linearGradient id="SVGID_1_" gradientUnits="userSpaceOnUse" x1="-2.516" x2="508.783" y1="255" y2="255"><stop offset="0" stop-color="#fe99a0"/><stop offset=".593" stop-color="#fe646f"/><stop offset="1" stop-color="#e41f2d"/></linearGradient><linearGradient id="SVGID_2_" gradientUnits="userSpaceOnUse" x1="73.132" x2="510" y1="254.999" y2="254.999"><stop offset="0" stop-color="#fe646f"/><stop offset=".7043" stop-color="#e41f2d"/><stop offset="1" stop-color="#c41926"/></linearGradient><linearGradient id="SVGID_3_" gradientUnits="userSpaceOnUse" x1="66.132" x2="443.868" y1="244.313" y2="244.313"><stop offset="0" stop-color="#fff9df"/><stop offset=".593" stop-color="#ffe177"/><stop offset="1" stop-color="#feb137"/></linearGradient><g><path d="m284.119 84.056-21.371 21.371c-4.279 4.279-11.217 4.279-15.496 0l-21.371-21.371c-51.673-51.673-135.452-51.673-187.126 0-51.673 51.673-51.673 135.452 0 187.126l177.448 177.448c21.427 21.427 56.168 21.427 77.595 0l177.448-177.448c51.673-51.673 51.673-135.452 0-187.126-51.675-51.674-135.454-51.674-187.127 0z" fill="url(#SVGID_1_)"/><path d="m471.245 84.056c-30.942-30.942-73.394-43.348-113.573-37.234 26.921 4.096 52.821 16.502 73.553 37.234 47.372 47.372 51.307 121.722 11.823 173.586-2.553-1.599-5.562-2.537-8.796-2.537h-16.993c-11.031 0-20.755 6.919-24.772 17.627l-12.8 34.122c-2.049 5.462-5.872 8.496-10.458 8.333-4.721-.17-8.557-3.717-10.259-9.489l-36.746-124.548c-3.456-11.711-13.674-19.58-25.426-19.58s-21.97 7.869-25.425 19.58l-44.17 149.709-30.231-102.466c-5.773-19.568-21.867-32.657-41.001-33.346-18.97-.683-35.764 11.06-42.837 29.917l-7.065 18.834c-2.552 6.802-9.055 11.308-16.319 11.308-9.177 0-16.617 7.44-16.617 16.617v.068c0 9.177 7.44 16.617 16.617 16.617h16.993c11.031 0 20.755-6.918 24.772-17.626l12.8-34.122c2.048-5.461 5.85-8.521 10.458-8.333 4.721.17 8.556 3.717 10.259 9.489l36.746 124.547c3.455 11.711 13.673 19.581 25.426 19.581s21.97-7.869 25.426-19.581l44.17-149.708 30.231 102.465c4.521 15.323 15.371 26.672 29.053 31.206l-102.307 102.303c-5.528 5.528-11.945 9.617-18.787 12.293 19.682 7.696 42.908 3.607 58.807-12.293l177.448-177.448c51.673-51.673 51.673-135.452 0-187.125z" fill="url(#SVGID_2_)"/><path d="m443.868 244.278c0-9.177-7.44-16.617-16.617-16.617h-16.992c-11.031 0-20.755 6.919-24.772 17.626l-12.8 34.122c-2.049 5.462-5.872 8.496-10.458 8.333-4.721-.17-8.557-3.717-10.259-9.489l-36.746-124.548c-3.456-11.711-13.674-19.58-25.426-19.58s-21.97 7.869-25.425 19.58l-44.17 149.709-30.231-102.466c-5.773-19.568-21.867-32.657-41.001-33.346-18.97-.683-35.764 11.06-42.837 29.917l-7.065 18.834c-2.552 6.802-9.055 11.308-16.319 11.308-9.177 0-16.617 7.44-16.617 16.617v.068c0 9.177 7.44 16.617 16.617 16.617h16.993c11.031 0 20.755-6.918 24.772-17.626l12.8-34.122c2.048-5.461 5.85-8.521 10.458-8.333 4.721.17 8.556 3.717 10.259 9.489l36.746 124.547c3.455 11.711 13.673 19.581 25.426 19.581s21.97-7.869 25.426-19.581l44.17-149.708 30.231 102.466c5.773 19.568 21.867 32.657 41.002 33.346 18.923.687 35.763-11.06 42.836-29.916l7.066-18.835c2.552-6.802 9.055-11.308 16.319-11.308 9.177 0 16.617-7.439 16.617-16.617v-.068z" fill="url(#SVGID_3_)"/></g></svg>