<svg id="Capa_1" enable-background="new 0 0 510 510" height="512" viewBox="0 0 510 510" width="512" xmlns="http://www.w3.org/2000/svg" xmlns:xlink="http://www.w3.org/1999/xlink"><linearGradient id="lg1"><stop offset="0" stop-color="#a79ba7"/><stop offset=".7487" stop-color="#7a6d79"/><stop offset="1" stop-color="#685e68"/></linearGradient><linearGradient id="SVGID_1_" gradientUnits="userSpaceOnUse" x1="-61.086" x2="264.307" xlink:href="#lg1" y1="45.221" y2="45.221"/><linearGradient id="lg2"><stop offset="0" stop-color="#685e68"/><stop offset="1" stop-color="#433f43"/></linearGradient><linearGradient id="SVGID_2_" gradientUnits="userSpaceOnUse" x1="112.914" x2="441.92" xlink:href="#lg2" y1="45.221" y2="45.221"/><linearGradient id="SVGID_3_" gradientTransform="matrix(1 0 0 -1 0 90.442)" gradientUnits="userSpaceOnUse" x1="-61.086" x2="264.307" xlink:href="#lg1" y1="-374.338" y2="-374.338"/><linearGradient id="SVGID_4_" gradientUnits="userSpaceOnUse" x1="112.914" x2="441.92" xlink:href="#lg2" y1="464.78" y2="464.78"/><linearGradient id="SVGID_5_" gradientUnits="userSpaceOnUse" x1="405.728" x2="433.746" xlink:href="#lg1" y1="255" y2="255"/><linearGradient id="SVGID_6_" gradientUnits="userSpaceOnUse" x1="73.353" x2="410.475" xlink:href="#lg1" y1="255" y2="255"/><linearGradient id="SVGID_7_" gradientUnits="userSpaceOnUse" x1="98.914" x2="329.053" xlink:href="#lg1" y1="255" y2="255"/><linearGradient id="SVGID_8_" gradientUnits="userSpaceOnUse" x1="101.508" x2="382.32" y1="255" y2="255"><stop offset="0" stop-color="#f8f6f7"/><stop offset=".1788" stop-color="#f8f6f7"/><stop offset="1" stop-color="#e7e6f5"/></linearGradient><linearGradient id="SVGID_9_" gradientUnits="userSpaceOnUse" x1="115.531" x2="246.807" y1="184.849" y2="184.849"><stop offset="0" stop-color="#fe99a0"/><stop offset=".593" stop-color="#fe646f"/><stop offset="1" stop-color="#e41f2d"/></linearGradient><linearGradient id="SVGID_10_" gradientUnits="userSpaceOnUse" x1="118.298" x2="365.53" y1="306.873" y2="306.873"><stop offset="0" stop-color="#fff9df"/><stop offset=".593" stop-color="#ffe177"/><stop offset="1" stop-color="#feb137"/></linearGradient><linearGradient id="lg3"><stop offset="0" stop-color="#f8f6f7"/><stop offset="1" stop-color="#d1ceeb"/></linearGradient><linearGradient id="SVGID_11_" gradientUnits="userSpaceOnUse" x1="76.914" x2="222.969" xlink:href="#lg3" y1="169.684" y2="169.684"/><linearGradient id="SVGID_12_" gradientUnits="userSpaceOnUse" x1="76.914" x2="222.969" xlink:href="#lg3" y1="200.015" y2="200.015"/><linearGradient id="SVGID_13_" gradientUnits="userSpaceOnUse" x1="269.914" x2="392.061" xlink:href="#lg3" y1="255" y2="255"/><g><g><path d="m365.53 90.442h-247.232l14.37-65.643c3.169-14.48 15.992-24.799 30.813-24.799h156.865c14.822 0 27.644 10.319 30.814 24.798z" fill="url(#SVGID_1_)"/><path d="m351.16 24.798c-3.17-14.479-15.992-24.798-30.814-24.798h-57.128c14.822 0 27.644 10.319 30.814 24.798l14.37 65.643h57.128z" fill="url(#SVGID_2_)"/><path d="m365.53 419.558h-247.232l14.37 65.643c3.169 14.48 15.992 24.799 30.813 24.799h156.865c14.822 0 27.644-10.319 30.814-24.798z" fill="url(#SVGID_3_)"/><path d="m365.534 419.56-2.53 11.56-5.48 25.01-6.36 29.07c-3.17 14.48-16 24.8-30.82 24.8h-40.02c14.82 0 27.65-10.32 30.82-24.8 3.268-14.937-8.107-29.07-23.398-29.07h-161.442l-5.48-25.01-2.53-11.56z" fill="url(#SVGID_4_)"/></g><g><path d="m401.94 292.114h17.173c9.684 0 17.534-7.85 17.534-17.534v-39.16c0-9.684-7.85-17.534-17.534-17.534h-17.173z" fill="url(#SVGID_5_)"/><path d="m348.421 431.116h-213.015c-34.271 0-62.053-27.782-62.053-62.053v-228.126c0-34.271 27.782-62.053 62.053-62.053h213.015c34.271 0 62.053 27.782 62.053 62.053v228.125c.001 34.272-27.781 62.054-62.053 62.054z" fill="url(#SVGID_6_)"/><path d="m348.421 78.884h-40.02c34.271 0 62.053 27.782 62.053 62.053v228.125c0 34.271-27.782 62.053-62.053 62.053h40.02c34.271 0 62.053-27.782 62.053-62.053v-228.125c.001-34.271-27.781-62.053-62.053-62.053z" fill="url(#SVGID_7_)"/><path d="m344.117 397.512h-204.407c-21.099 0-38.203-17.104-38.203-38.203v-208.619c0-21.099 17.104-38.203 38.203-38.203h204.407c21.099 0 38.203 17.104 38.203 38.203v208.62c0 21.098-17.104 38.202-38.203 38.202z" fill="url(#SVGID_8_)"/><path d="m189.125 140.959-5.487 5.487c-1.099 1.099-2.88 1.099-3.979 0l-5.487-5.487c-13.267-13.267-34.777-13.267-48.044 0-13.267 13.267-13.267 34.777 0 48.044l45.559 45.559c5.501 5.501 14.421 5.501 19.922 0l45.559-45.559c13.267-13.267 13.267-34.777 0-48.044-13.266-13.267-34.776-13.267-48.043 0z" fill="url(#SVGID_9_)"/><g><path d="m365.53 306.85c0-6.007-4.869-10.876-10.876-10.876h-11.122c-7.22 0-13.584 4.528-16.213 11.537l-8.378 22.333c-1.341 3.575-3.844 5.561-6.845 5.454-3.09-.111-5.6-2.433-6.715-6.211l-24.051-81.518c-2.262-7.665-8.95-12.815-16.642-12.815s-14.38 5.15-16.641 12.815l-28.91 97.985-19.787-67.065c-3.778-12.807-14.312-21.374-26.835-21.825-12.416-.447-23.408 7.239-28.037 19.581l-4.624 12.327c-1.67 4.452-5.926 7.401-10.681 7.401-6.007 0-10.876 4.869-10.876 10.876v.045c0 6.007 4.869 10.876 10.876 10.876h11.122c7.22 0 13.584-4.528 16.214-11.536l8.378-22.333c1.341-3.574 3.829-5.577 6.845-5.454 3.09.111 5.6 2.433 6.715 6.211l24.051 81.517c2.261 7.665 8.949 12.816 16.641 12.816s14.38-5.15 16.641-12.816l28.91-97.985 19.786 67.064c3.778 12.807 14.312 21.374 26.836 21.825 12.385.45 23.407-7.239 28.036-19.58l4.625-12.328c1.67-4.452 5.926-7.401 10.681-7.401 6.006 0 10.876-4.869 10.876-10.876z" fill="url(#SVGID_10_)"/></g><g><path d="m350.247 177.183h-86.606c-4.142 0-7.5-3.358-7.5-7.5s3.358-7.5 7.5-7.5h86.606c4.142 0 7.5 3.358 7.5 7.5s-3.358 7.5-7.5 7.5z" fill="url(#SVGID_11_)"/><path d="m316.914 207.515h-53.272c-4.142 0-7.5-3.358-7.5-7.5s3.358-7.5 7.5-7.5h53.272c4.142 0 7.5 3.358 7.5 7.5s-3.358 7.5-7.5 7.5z" fill="url(#SVGID_12_)"/></g><path d="m366.811 119.961c2.354 6.553 3.644 13.613 3.644 20.976v228.125c0 7.363-1.29 14.423-3.644 20.976 9.407-6.959 15.509-18.13 15.509-30.729v-208.619c0-12.599-6.102-23.77-15.509-30.729z" fill="url(#SVGID_13_)"/></g></g></svg>