<svg id="Capa_1" enable-background="new 0 0 510 510" height="512" viewBox="0 0 510 510" width="512" xmlns="http://www.w3.org/2000/svg" xmlns:xlink="http://www.w3.org/1999/xlink"><linearGradient id="SVGID_1_" gradientUnits="userSpaceOnUse" x1="55.127" x2="449.753" y1="255" y2="255"><stop offset="0" stop-color="#ffdcbd"/><stop offset=".0028" stop-color="#ffdcbd"/><stop offset="1" stop-color="#ffa9b1"/></linearGradient><linearGradient id="lg1"><stop offset="0" stop-color="#ffc2b5"/><stop offset=".2441" stop-color="#ffbbb3"/><stop offset=".6097" stop-color="#ffa6af"/><stop offset="1" stop-color="#ff89a8"/></linearGradient><linearGradient id="SVGID_2_" gradientUnits="userSpaceOnUse" x1="60.958" x2="449.446" xlink:href="#lg1" y1="255" y2="255"/><linearGradient id="lg2"><stop offset="0" stop-color="#a79ba7"/><stop offset=".7487" stop-color="#7a6d79"/><stop offset="1" stop-color="#685e68"/></linearGradient><linearGradient id="SVGID_3_" gradientUnits="userSpaceOnUse" x1="34.569" x2="469.784" xlink:href="#lg2" y1="441" y2="441"/><linearGradient id="SVGID_4_" gradientUnits="userSpaceOnUse" x1="187" x2="393.073" xlink:href="#lg2" y1="441" y2="441"/><linearGradient id="lg3"><stop offset="0" stop-color="#01d0fb"/><stop offset=".6075" stop-color="#26a6fe"/><stop offset="1" stop-color="#0182fc"/></linearGradient><linearGradient id="SVGID_5_" gradientUnits="userSpaceOnUse" x1="55.127" x2="449.753" xlink:href="#lg3" y1="46" y2="46"/><linearGradient id="SVGID_6_" gradientUnits="userSpaceOnUse" x1="99.098" x2="385.606" xlink:href="#lg3" y1="46" y2="46"/><linearGradient id="SVGID_7_" gradientUnits="userSpaceOnUse" x1="225" x2="277.345" xlink:href="#lg1" y1="306.5" y2="306.5"/><linearGradient id="SVGID_8_" gradientUnits="userSpaceOnUse" x1="129.097" x2="290.991" xlink:href="#lg2" y1="485.27" y2="485.27"/><linearGradient id="lg4"><stop offset="0" stop-color="#a2e62e"/><stop offset=".7542" stop-color="#09a76d"/><stop offset="1" stop-color="#017b4e"/></linearGradient><linearGradient id="SVGID_9_" gradientUnits="userSpaceOnUse" x1="424.2" x2="524.422" xlink:href="#lg4" y1="238.076" y2="238.076"/><linearGradient id="SVGID_10_" gradientUnits="userSpaceOnUse" x1="-18" x2="122.428" xlink:href="#lg4" y1="238.076" y2="238.076"/><g><g><path d="m406.764 363.743c-21.238-41.19-28.182-88.271-19.739-133.838l37.047-199.944c3.069-15.512-8.801-29.961-24.613-29.961h-288.918c-15.812 0-27.682 14.449-24.613 29.961l37.047 199.944c8.443 45.567 1.499 92.648-19.739 133.838-15.269 29.613-23.236 62.449-23.236 95.767v28.986c0 11.876 9.628 21.504 21.504 21.504h306.992c11.876 0 21.504-9.628 21.504-21.504v-28.986c0-33.318-7.967-66.154-23.236-95.767z" fill="url(#SVGID_1_)"/><path d="m430 459.51v28.99c0 11.874-9.626 21.5-21.5 21.5h-40.02c11.87 0 21.5-9.63 21.5-21.5v-28.99c0-33.32-7.97-66.15-23.24-95.77-21.23-41.19-28.18-88.27-19.74-133.84l15.407-83.141c2.867-15.471-9.008-29.749-24.742-29.749h-235.605l-4.64-25.01-11.49-62.04c-3.07-15.51 8.8-29.96 24.61-29.96h288.92c15.81 0 27.68 14.45 24.61 29.96l-11.49 62.04-4.64 25.01-20.91 112.89c-8.45 45.57-1.5 92.65 19.73 133.84 15.27 29.62 23.24 62.45 23.24 95.77z" fill="url(#SVGID_2_)"/><path d="m99.283 372c-3.562 0-6.974 2.049-8.736 5.283-13.454 24.694-28.547 54.023-28.547 82.227v28.986c0 11.876 10.618 21.504 23.716 21.504h338.569c13.098 0 23.716-9.628 23.716-21.504v-28.986c0-28.204-15.093-57.533-28.547-82.227-1.762-3.234-5.174-5.283-8.736-5.283z" fill="url(#SVGID_3_)"/><path d="m419.453 377.283c-1.762-3.234-5.174-5.283-8.736-5.283h-40.02c3.562 0 6.974 2.049 8.736 5.283 13.455 24.694 28.547 54.023 28.547 82.227v28.986c0 11.876-10.618 21.504-23.716 21.504h40.02c13.098 0 23.716-9.628 23.716-21.504v-28.986c0-28.204-15.093-57.533-28.547-82.227z" fill="url(#SVGID_4_)"/><path d="m103.939 92h302.121c6.717 0 12.487-4.771 13.748-11.368l9.69-50.671c3.168-15.512-9.083-29.961-25.403-29.961h-298.19c-16.32 0-28.571 14.449-25.404 29.961l9.69 50.671c1.262 6.597 7.032 11.368 13.748 11.368z" fill="url(#SVGID_5_)"/><path d="m404.095 0h-40.02c16.32 0 28.571 14.449 25.404 29.961l-9.69 50.671c-1.262 6.597-7.032 11.368-13.748 11.368h40.02c6.717 0 12.487-4.771 13.748-11.368l9.69-50.671c3.167-15.512-9.084-29.961-25.404-29.961z" fill="url(#SVGID_6_)"/><ellipse cx="255" cy="306.5" fill="url(#SVGID_7_)" rx="10" ry="18.5"/><path d="m267.506 510v-36.954c0-6.907-5.599-12.505-12.506-12.505-6.907 0-12.505 5.599-12.505 12.505v36.954z" fill="url(#SVGID_8_)"/></g><path d="m497.04 278.598-17.678 5.84c-5.982-19.56-9.329-43.598-9.329-68.927 0-29.555 4.58-57.671 12.896-79.169 2.49-6.438-.71-13.677-7.148-16.168-6.437-2.489-13.678.709-16.168 7.148-9.402 24.305-14.58 55.624-14.58 88.188 0 27.794 3.823 54.525 10.667 76.743l-15.87 5.242c-7.207 2.381-9.134 11.67-3.469 16.722l44.971 40.097c5.665 5.051 14.674 2.075 16.216-5.357l12.239-58.995c1.541-7.431-5.54-13.745-12.747-11.364z" fill="url(#SVGID_9_)"/><path d="m12.96 278.598 17.678 5.84c5.982-19.56 9.329-43.598 9.329-68.927 0-29.555-4.58-57.671-12.896-79.169-2.49-6.438.71-13.677 7.148-16.168 6.437-2.489 13.678.709 16.168 7.148 9.402 24.305 14.58 55.624 14.58 88.188 0 27.794-3.823 54.525-10.667 76.743l15.87 5.242c7.207 2.381 9.134 11.67 3.469 16.722l-44.971 40.097c-5.665 5.051-14.674 2.075-16.216-5.357l-12.239-58.994c-1.542-7.432 5.54-13.746 12.747-11.365z" fill="url(#SVGID_10_)"/></g></svg>