<svg id="Capa_1" enable-background="new 0 0 510 510" height="512" viewBox="0 0 510 510" width="512" xmlns="http://www.w3.org/2000/svg" xmlns:xlink="http://www.w3.org/1999/xlink"><linearGradient id="lg1"><stop offset="0" stop-color="#f8f6f7"/><stop offset=".1788" stop-color="#f8f6f7"/><stop offset="1" stop-color="#e7e6f5"/></linearGradient><linearGradient id="SVGID_1_" gradientUnits="userSpaceOnUse" x1="3.99" x2="628.19" xlink:href="#lg1" y1="288.269" y2="288.269"/><linearGradient id="lg2"><stop offset="0" stop-color="#f8f6f7"/><stop offset="1" stop-color="#d1ceeb"/></linearGradient><linearGradient id="SVGID_2_" gradientUnits="userSpaceOnUse" x1="44.168" x2="608.941" xlink:href="#lg2" y1="288.27" y2="288.27"/><linearGradient id="lg3"><stop offset="0" stop-color="#01d0fb"/><stop offset=".6075" stop-color="#26a6fe"/><stop offset="1" stop-color="#0182fc"/></linearGradient><linearGradient id="SVGID_3_" gradientUnits="userSpaceOnUse" x1="94.112" x2="412.195" xlink:href="#lg3" y1="49.23" y2="49.23"/><linearGradient id="SVGID_4_" gradientUnits="userSpaceOnUse" x1="-144" x2="389.788" xlink:href="#lg3" y1="62.714" y2="62.714"/><linearGradient id="SVGID_7_" gradientUnits="userSpaceOnUse" x1="-144" x2="389.788" xlink:href="#lg3" y1="49.23" y2="49.23"/><linearGradient id="lg4"><stop offset="0" stop-color="#fff9df"/><stop offset=".593" stop-color="#ffe177"/><stop offset="1" stop-color="#feb137"/></linearGradient><linearGradient id="SVGID_8_" gradientUnits="userSpaceOnUse" x1="71.626" x2="416.55" xlink:href="#lg4" y1="339.538" y2="339.538"/><linearGradient id="SVGID_9_" gradientUnits="userSpaceOnUse" x1="32" x2="285.955" xlink:href="#lg4" y1="361.823" y2="361.823"/><linearGradient id="SVGID_10_" gradientUnits="userSpaceOnUse" x1="189.333" x2="297.998" xlink:href="#lg1" y1="339.538" y2="339.538"/><linearGradient id="SVGID_11_" gradientUnits="userSpaceOnUse" x1="211.832" x2="298.055" xlink:href="#lg2" y1="339.538" y2="339.538"/><linearGradient id="SVGID_12_" gradientUnits="userSpaceOnUse" x1="137.333" x2="254.373" y1="360.735" y2="360.735"><stop offset="0" stop-color="#fe99a0"/><stop offset=".593" stop-color="#fe646f"/><stop offset="1" stop-color="#e41f2d"/></linearGradient><linearGradient id="SVGID_13_" gradientUnits="userSpaceOnUse" x1="170.66" x2="254.796" y1="388.206" y2="388.206"><stop offset="0" stop-color="#fe646f"/><stop offset=".7043" stop-color="#e41f2d"/><stop offset="1" stop-color="#c41926"/></linearGradient><g><path d="m390.465 93.073v-26.536h-270.93v26.535c0 24.324-6.089 48.301-17.767 69.966-11.679 21.666-17.768 45.644-17.768 69.968v231.437c0 25.16 21.543 45.557 48.117 45.557h245.766c26.574 0 48.117-20.397 48.117-45.558v-231.436c0-24.324-6.089-48.301-17.767-69.966-11.679-21.666-17.768-45.644-17.768-69.967z" fill="url(#SVGID_1_)"/><path d="m426 233.01v231.43c0 25.16-21.54 45.56-48.12 45.56h-40.02c26.58 0 48.12-20.4 48.12-45.56v-231.43c0-24.33-6.09-48.31-17.77-69.97-.888-1.647-1.832-3.665-2.798-5.909-8.789-20.42-28.88-33.661-51.111-33.661h-189.281c-2.93 0-5.77-.39-8.46-1.13 1.97-9.61 2.97-19.41 2.97-29.27v-26.53h270.94v26.53c0 9.86 1 19.66 2.97 29.27.45 2.25.97 4.49 1.53 6.71 2.98 11.75 7.42 23.15 13.26 33.99 11.68 21.66 17.77 45.64 17.77 69.97z" fill="url(#SVGID_2_)"/><g><path d="m384.982 98.46h-259.964c-17.63 0-31.923-14.292-31.923-31.923v-34.614c0-17.631 14.293-31.923 31.923-31.923h259.964c17.63 0 31.923 14.292 31.923 31.923v34.614c0 17.63-14.293 31.923-31.923 31.923z" fill="url(#SVGID_3_)"/><g><g fill="url(#SVGID_4_)"><path d="m142.506 26.968c-5.531 0-10.015 4.484-10.015 10.015v61.477h20.029v-61.478c0-5.531-4.483-10.014-10.014-10.014z"/><path d="m217.502 26.968c-5.531 0-10.015 4.484-10.015 10.015v61.477h20.029v-61.478c.001-5.531-4.483-10.014-10.014-10.014z"/><path d="m292.498 26.968c-5.531 0-10.015 4.484-10.015 10.015v61.477h20.029v-61.478c.001-5.531-4.483-10.014-10.014-10.014z"/></g><path d="m384.982 0h-41.025c17.488 0 31.684 14.065 31.912 31.499-1.839-2.803-5.043-4.631-8.67-4.527-5.469.158-9.719 4.863-9.719 10.334v47.47c0 7.438-5.939 13.65-13.378 13.683-.048 0-.097 0-.145 0h41.025c17.63 0 31.923-14.292 31.923-31.923v-34.613c0-17.631-14.293-31.923-31.923-31.923z" fill="url(#SVGID_7_)"/></g></g><path d="m333.609 441h-249.609v-202.924h249.609c10.601 0 19.195 8.594 19.195 19.195v164.534c0 10.601-8.594 19.195-19.195 19.195z" fill="url(#SVGID_8_)"/><path d="m167.055 426.17c-20.698-20.698-20.698-54.256 0-74.953l53.74-53.74c20.698-20.698 54.255-20.698 74.953 0 20.698 20.698 20.698 54.255 0 74.953l-53.74 53.74c-20.697 20.697-54.255 20.697-74.953 0z" fill="url(#SVGID_9_)"/><g><g><path d="m154.055 403.885c-20.698-20.698-20.698-54.256 0-74.953l53.74-53.74c20.698-20.698 54.255-20.698 74.953 0 20.698 20.698 20.698 54.255 0 74.953l-53.74 53.74c-20.697 20.697-54.255 20.697-74.953 0z" fill="url(#SVGID_10_)"/><path d="m282.749 275.191c-15.541-15.541-38.333-19.412-57.487-11.614 6.355 2.587 12.31 6.457 17.467 11.614 20.698 20.698 20.698 54.255 0 74.953l-53.74 53.74c-5.156 5.156-11.112 9.027-17.467 11.614 19.154 7.798 41.945 3.927 57.487-11.614l53.74-53.74c20.697-20.697 20.697-54.255 0-74.953z" fill="url(#SVGID_11_)"/><path d="m180.925 302.061-26.87 26.87c-20.698 20.698-20.698 54.256 0 74.953 20.698 20.698 54.255 20.698 74.953 0l26.87-26.87z" fill="url(#SVGID_12_)"/></g><path d="m235.869 357.005-46.88 46.88c-5.156 5.156-11.112 9.027-17.467 11.614 19.154 7.798 41.945 3.927 57.487-11.614l26.87-26.87z" fill="url(#SVGID_13_)"/></g></g></svg>