<svg id="Capa_1" enable-background="new 0 0 510 510" height="512" viewBox="0 0 510 510" width="512" xmlns="http://www.w3.org/2000/svg" xmlns:xlink="http://www.w3.org/1999/xlink"><linearGradient id="lg1"><stop offset="0" stop-color="#a2e62e"/><stop offset=".7542" stop-color="#09a76d"/><stop offset="1" stop-color="#017b4e"/></linearGradient><linearGradient id="SVGID_1_" gradientTransform="matrix(.707 -.707 .707 .707 -132.284 266.043)" gradientUnits="userSpaceOnUse" x1="-193.706" x2="557.763" xlink:href="#lg1" y1="192.306" y2="192.306"/><linearGradient id="SVGID_2_" gradientTransform="matrix(.707 -.707 .707 .707 -132.284 266.043)" gradientUnits="userSpaceOnUse" x1="15.641" x2="248.033" xlink:href="#lg1" y1="192.306" y2="192.306"/><linearGradient id="SVGID_4_" gradientTransform="matrix(.707 -.707 .707 .707 -132.284 266.043)" gradientUnits="userSpaceOnUse" x1="263.827" x2="462.384" xlink:href="#lg1" y1="192.307" y2="192.307"/><linearGradient id="lg2"><stop offset="0" stop-color="#fe99a0"/><stop offset=".593" stop-color="#fe646f"/><stop offset="1" stop-color="#e41f2d"/></linearGradient><linearGradient id="SVGID_5_" gradientTransform="matrix(.707 -.707 .707 .707 -132.284 266.043)" gradientUnits="userSpaceOnUse" x1="-104.648" x2="544.478" xlink:href="#lg2" y1="376.986" y2="376.986"/><linearGradient id="SVGID_6_" gradientTransform="matrix(.707 -.707 .707 .707 -132.284 266.043)" gradientUnits="userSpaceOnUse" x1="88.404" x2="289.146" xlink:href="#lg2" y1="376.986" y2="376.986"/><linearGradient id="SVGID_8_" gradientTransform="matrix(.707 -.707 .707 .707 -132.284 266.043)" gradientUnits="userSpaceOnUse" x1="319.892" x2="491.408" y1="376.986" y2="376.986"><stop offset="0" stop-color="#fe646f"/><stop offset=".7043" stop-color="#e41f2d"/><stop offset="1" stop-color="#c41926"/></linearGradient><g><g><circle cx="94.989" cy="310.732" fill="url(#SVGID_1_)" r="94.989"/><path d="m27.822 243.565c-4.855 4.855-9.067 10.107-12.651 15.647 36.798-23.803 86.446-19.59 118.687 12.651s36.454 81.89 12.651 118.687c5.541-3.584 10.793-7.797 15.647-12.651 37.095-37.095 37.096-97.239 0-134.334s-97.239-37.095-134.334 0z" fill="url(#SVGID_2_)"/><g><path d="m358.551 45.247c-37.456-36.423-98.012-35.504-134.4 2.001-23.398 24.119-31.459 57.58-24.204 88.141 3.705 15.641-.933 32.074-12.297 43.438l-60.374 60.375c-10.837 10.837-10.837 28.407 0 39.244 10.837 10.837 28.407 10.837 39.244 0l60.367-60.367c11.406-11.406 27.895-15.959 43.586-12.261 30.971 7.297 64.891-1.124 89.046-25.279 37.413-37.414 37.095-98.275-.968-135.292z" fill="url(#SVGID_1_)"/><path d="m358.554 45.25c-37.461-36.43-98.019-35.506-134.402 2.001-4.44 4.577-8.324 9.491-11.66 14.657 36.308-23.387 85.567-19.671 117.764 11.641 33.116 32.206 37.654 82.466 13.625 119.627 5.537-3.582 10.787-7.788 15.639-12.639 37.414-37.415 37.092-98.276-.966-135.287z" fill="url(#SVGID_4_)"/></g></g><g><circle cx="257.463" cy="409.434" fill="url(#SVGID_5_)" r="82.052"/><path d="m199.444 351.415c-4.193 4.193-7.832 8.73-10.928 13.516 31.786-20.561 74.673-16.922 102.523 10.928s31.489 70.737 10.928 102.523c4.786-3.096 9.323-6.735 13.516-10.928 32.043-32.043 32.044-83.996 0-116.039s-83.996-32.044-116.039 0z" fill="url(#SVGID_6_)"/><g><path d="m485.131 180.106c-32.354-31.463-84.664-30.669-116.096 1.729-20.212 20.835-27.175 49.738-20.908 76.137 3.201 13.511-.806 27.706-10.622 37.522l-52.152 52.152c-9.361 9.361-9.361 24.539 0 33.9 9.361 9.361 24.539 9.361 33.9 0l52.146-52.146c9.852-9.852 24.096-13.786 37.65-10.591 26.753 6.304 56.054-.971 76.919-21.836 32.317-32.319 32.042-84.892-.837-116.867z" fill="url(#SVGID_5_)"/><path d="m485.134 180.108c-32.359-31.469-84.669-30.67-116.098 1.728-3.835 3.953-7.191 8.198-10.072 12.661 31.363-20.202 73.914-16.992 101.726 10.055 28.606 27.819 32.526 71.235 11.769 103.335 4.783-3.094 9.318-6.727 13.509-10.918 32.318-32.318 32.041-84.89-.834-116.861z" fill="url(#SVGID_8_)"/></g></g></g></svg>