<svg id="Capa_1" enable-background="new 0 0 510 510" height="512" viewBox="0 0 510 510" width="512" xmlns="http://www.w3.org/2000/svg" xmlns:xlink="http://www.w3.org/1999/xlink"><linearGradient id="lg1"><stop offset="0" stop-color="#f8f6f7"/><stop offset=".1788" stop-color="#f8f6f7"/><stop offset="1" stop-color="#e7e6f5"/></linearGradient><linearGradient id="SVGID_1_" gradientUnits="userSpaceOnUse" x1="87.331" x2="431.001" xlink:href="#lg1" y1="401.835" y2="401.835"/><linearGradient id="lg2"><stop offset="0" stop-color="#f8f6f7"/><stop offset="1" stop-color="#d1ceeb"/></linearGradient><linearGradient id="SVGID_2_" gradientUnits="userSpaceOnUse" x1="338.5" x2="388.023" xlink:href="#lg2" y1="401.835" y2="401.835"/><linearGradient id="lg3"><stop offset="0" stop-color="#a79ba7"/><stop offset=".7487" stop-color="#7a6d79"/><stop offset="1" stop-color="#685e68"/></linearGradient><linearGradient id="SVGID_3_" gradientUnits="userSpaceOnUse" x1="214" x2="308.34" xlink:href="#lg3" y1="260.926" y2="260.926"/><linearGradient id="SVGID_4_" gradientUnits="userSpaceOnUse" x1="200" x2="281.721" xlink:href="#lg3" y1="135.498" y2="135.498"/><linearGradient id="SVGID_5_" gradientUnits="userSpaceOnUse" x1="186.667" x2="269.358" xlink:href="#lg3" y1="44.165" y2="44.165"/><linearGradient id="SVGID_6_" gradientUnits="userSpaceOnUse" x1="-7.483" x2="566.244" xlink:href="#lg3" y1="489.87" y2="489.87"/><linearGradient id="SVGID_7_" gradientUnits="userSpaceOnUse" x1="333.869" x2="459.841" xlink:href="#lg3" y1="489.87" y2="489.87"/><linearGradient id="SVGID_8_" gradientUnits="userSpaceOnUse" x1="178.823" x2="310.529" xlink:href="#lg3" y1="409.846" y2="409.846"/><linearGradient id="SVGID_9_" gradientUnits="userSpaceOnUse" x1="163" x2="275.285" xlink:href="#lg3" y1="425.939" y2="425.939"/><linearGradient id="SVGID_10_" gradientUnits="userSpaceOnUse" x1="163" x2="275.285" xlink:href="#lg3" y1="392.749" y2="392.749"/><linearGradient id="SVGID_11_" gradientUnits="userSpaceOnUse" x1="145.374" x2="302.513" xlink:href="#lg3" y1="409.346" y2="409.346"/><linearGradient id="SVGID_12_" gradientUnits="userSpaceOnUse" x1="178.823" x2="345.328" xlink:href="#lg3" y1="369.083" y2="369.083"/><linearGradient id="SVGID_13_" gradientUnits="userSpaceOnUse" x1="163" x2="275.285" xlink:href="#lg3" y1="385.676" y2="385.676"/><linearGradient id="SVGID_14_" gradientUnits="userSpaceOnUse" x1="163" x2="275.285" xlink:href="#lg3" y1="352.486" y2="352.486"/><linearGradient id="SVGID_15_" gradientUnits="userSpaceOnUse" x1="157.374" x2="314.513" xlink:href="#lg3" y1="369.083" y2="369.083"/><linearGradient id="SVGID_16_" gradientUnits="userSpaceOnUse" x1="178.823" x2="345.328" xlink:href="#lg3" y1="449.609" y2="449.609"/><linearGradient id="SVGID_17_" gradientUnits="userSpaceOnUse" x1="163" x2="275.285" xlink:href="#lg3" y1="466.202" y2="466.202"/><linearGradient id="SVGID_18_" gradientUnits="userSpaceOnUse" x1="163" x2="275.285" xlink:href="#lg3" y1="433.012" y2="433.012"/><linearGradient id="SVGID_19_" gradientUnits="userSpaceOnUse" x1="157.374" x2="314.513" xlink:href="#lg3" y1="449.609" y2="449.609"/><linearGradient id="SVGID_20_" gradientUnits="userSpaceOnUse" x1="128.892" x2="172.751" xlink:href="#lg1" y1="173.492" y2="173.492"/><linearGradient id="SVGID_21_" gradientUnits="userSpaceOnUse" x1="89.556" x2="166.556" xlink:href="#lg2" y1="154.221" y2="154.221"/><linearGradient id="lg4"><stop offset="0" stop-color="#fe99a0"/><stop offset=".593" stop-color="#fe646f"/><stop offset="1" stop-color="#e41f2d"/></linearGradient><linearGradient id="SVGID_22_" gradientUnits="userSpaceOnUse" x1="92.556" x2="228.688" xlink:href="#lg4" y1="255.005" y2="255.005"/><linearGradient id="lg5"><stop offset="0" stop-color="#fe646f"/><stop offset=".7043" stop-color="#e41f2d"/><stop offset="1" stop-color="#c41926"/></linearGradient><linearGradient id="SVGID_23_" gradientUnits="userSpaceOnUse" x1="140.213" x2="235.577" xlink:href="#lg5" y1="255.006" y2="255.006"/><linearGradient id="lg6"><stop offset="0" stop-color="#fff9df"/><stop offset=".593" stop-color="#ffe177"/><stop offset="1" stop-color="#feb137"/></linearGradient><linearGradient id="SVGID_24_" gradientUnits="userSpaceOnUse" x1="113.808" x2="259.435" xlink:href="#lg6" y1="113.925" y2="113.925"/><linearGradient id="SVGID_25_" gradientUnits="userSpaceOnUse" x1="92" x2="250.256" xlink:href="#lg6" y1="113.925" y2="113.925"/><linearGradient id="SVGID_26_" gradientUnits="userSpaceOnUse" x1="166.478" x2="219.95" xlink:href="#lg1" y1="113.925" y2="113.925"/><linearGradient id="SVGID_27_" gradientUnits="userSpaceOnUse" x1="338.772" x2="382.631" xlink:href="#lg1" y1="173.492" y2="173.492"/><linearGradient id="SVGID_28_" gradientUnits="userSpaceOnUse" x1="322.5" x2="378.723" xlink:href="#lg2" y1="154.221" y2="154.221"/><linearGradient id="SVGID_29_" gradientUnits="userSpaceOnUse" x1="302.436" x2="438.568" xlink:href="#lg4" y1="255.005" y2="255.005"/><linearGradient id="SVGID_30_" gradientUnits="userSpaceOnUse" x1="350.093" x2="445.457" xlink:href="#lg5" y1="255.006" y2="255.006"/><linearGradient id="SVGID_31_" gradientUnits="userSpaceOnUse" x1="236.687" x2="382.315" xlink:href="#lg6" y1="113.925" y2="113.925"/><linearGradient id="SVGID_32_" gradientUnits="userSpaceOnUse" x1="257" x2="363.005" xlink:href="#lg6" y1="113.925" y2="113.925"/><linearGradient id="SVGID_33_" gradientUnits="userSpaceOnUse" x1="289.358" x2="342.83" xlink:href="#lg1" y1="113.925" y2="113.925"/><linearGradient id="SVGID_34_" gradientUnits="userSpaceOnUse" x1="158.453" x2="369.482" xlink:href="#lg3" y1="20.13" y2="20.13"/><linearGradient id="SVGID_35_" gradientUnits="userSpaceOnUse" x1="172.663" x2="298.635" xlink:href="#lg3" y1="20.13" y2="20.13"/><g><g><path d="m394.254 417.573h-278.508c-4.569 0-8.273-3.704-8.273-8.273v-14.93c0-4.569 3.704-8.273 8.273-8.273h278.508c4.569 0 8.273 3.704 8.273 8.273v14.93c0 4.569-3.704 8.273-8.273 8.273z" fill="url(#SVGID_1_)"/><path d="m394.254 386.097h-40.02c4.569 0 8.273 3.704 8.273 8.273v14.93c0 4.569-3.704 8.273-8.273 8.273h40.02c4.569 0 8.273-3.704 8.273-8.273v-14.93c0-4.569-3.704-8.273-8.273-8.273z" fill="url(#SVGID_2_)"/></g><path d="m255 20.301c-11.118 0-20.13 9.013-20.13 20.13v440.99c0 11.118 9.013 20.13 20.13 20.13s20.13-9.013 20.13-20.13v-440.99c0-11.117-9.012-20.13-20.13-20.13z" fill="url(#SVGID_3_)"/><path d="m275.13 84.743c-8.476 5.796-15.43 13.656-20.13 22.861-4.701-9.205-11.654-17.065-20.13-22.861v101.511c8.476-5.796 15.43-13.656 20.13-22.861 4.701 9.205 11.654 17.065 20.13 22.861z" fill="url(#SVGID_4_)"/><path d="m275.13 40.43v27.6h-40.26v-27.6c0-3.82 1.06-7.39 2.9-10.43 3.54-5.82 9.93-9.7 17.23-9.7s13.69 3.88 17.23 9.7c1.84 3.04 2.9 6.61 2.9 10.43z" fill="url(#SVGID_5_)"/><g><path d="m489.87 510h-469.74c-11.117 0-20.13-9.013-20.13-20.13 0-11.118 9.013-20.13 20.13-20.13h469.74c11.118 0 20.13 9.013 20.13 20.13 0 11.117-9.013 20.13-20.13 20.13z" fill="url(#SVGID_6_)"/><path d="m489.87 469.739h-40.469c11.118 0 20.13 9.013 20.13 20.13 0 11.118-9.013 20.13-20.13 20.13h40.469c11.118 0 20.13-9.013 20.13-20.13 0-11.117-9.013-20.13-20.13-20.13z" fill="url(#SVGID_7_)"/></g><g><g><path d="m308.875 429.477-52.843 7-54.906-7c-11.118 0-20.13-9.013-20.13-20.13 0-11.118 9.013-20.13 20.13-20.13l54.358-6 53.391 6c11.118 0 20.13 9.013 20.13 20.13 0 11.117-9.013 20.13-20.13 20.13z" fill="url(#SVGID_8_)"/><g><path d="m262 429.404v.07h-14v-.07c0-3.86 3.13-7 7-7s7 3.14 7 7z" fill="url(#SVGID_9_)"/><path d="m262 389.214v.07c0 3.87-3.13 7-7 7s-7-3.13-7-7v-.07z" fill="url(#SVGID_10_)"/></g><path d="m308.875 389.216h-40.469c11.118 0 20.13 9.013 20.13 20.13 0 11.118-9.013 20.13-20.13 20.13h40.469c11.118 0 20.13-9.013 20.13-20.13 0-11.117-9.013-20.13-20.13-20.13z" fill="url(#SVGID_11_)"/></g><g><path d="m308.875 389.214h-107.75c-11.118 0-20.13-9.013-20.13-20.13 0-11.118 9.013-20.13 20.13-20.13h107.75c11.118 0 20.13 9.013 20.13 20.13 0 11.117-9.013 20.13-20.13 20.13z" fill="url(#SVGID_12_)"/><g><path d="m262 389.141v.07h-14v-.07c0-3.86 3.13-7 7-7s7 3.14 7 7z" fill="url(#SVGID_13_)"/><path d="m262 348.951v.07c0 3.87-3.13 7-7 7s-7-3.13-7-7v-.07z" fill="url(#SVGID_14_)"/></g><path d="m308.875 348.953h-40.469c11.118 0 20.13 9.013 20.13 20.13 0 11.118-9.013 20.13-20.13 20.13h40.469c11.118 0 20.13-9.013 20.13-20.13 0-11.117-9.013-20.13-20.13-20.13z" fill="url(#SVGID_15_)"/></g><g><path d="m308.875 469.739h-107.75c-11.118 0-20.13-9.013-20.13-20.13 0-11.118 9.013-20.13 20.13-20.13h107.75c11.118 0 20.13 9.013 20.13 20.13 0 11.118-9.013 20.13-20.13 20.13z" fill="url(#SVGID_16_)"/><g><path d="m262 469.667v.07h-14v-.07c0-3.86 3.13-7 7-7s7 3.14 7 7z" fill="url(#SVGID_17_)"/><path d="m262 429.477v.07c0 3.87-3.13 7-7 7s-7-3.13-7-7v-.07z" fill="url(#SVGID_18_)"/></g><path d="m308.875 429.479h-40.469c11.118 0 20.13 9.013 20.13 20.13 0 11.118-9.013 20.13-20.13 20.13h40.469c11.118 0 20.13-9.013 20.13-20.13 0-11.117-9.013-20.13-20.13-20.13z" fill="url(#SVGID_19_)"/></g></g><g><g><path d="m132.676 114.534h35v117.916h-35z" fill="url(#SVGID_20_)"/></g><path d="m132.676 177.342c9.344 8.93 21.494 14.937 35 16.567v-79.374h-35z" fill="url(#SVGID_21_)"/><g><path d="m175.104 313.072h-48.942c-14.568 0-28.132-8.21-34.172-21.467-4.876-10.703-4.322-22.893 1.661-33.259l24.471-42.385c7.285-12.617 21.179-20.258 35.68-18.859 11.706 1.129 21.984 7.704 27.968 18.067l24.471 42.385c7.285 12.617 6.955 28.471-1.507 40.33-6.83 9.574-17.663 15.188-29.63 15.188zm-24.928-81.143c-.856 0-1.135.482-1.285.741l-24.928 43.177c-.149.259-.428.742 0 1.484.428.741.985.741 1.284.741h49.856c.299 0 .856 0 1.285-.742.428-.741.149-1.224 0-1.483l-24.928-43.177c-.149-.259-.428-.741-1.284-.741z" fill="url(#SVGID_22_)"/><path d="m206.242 257.555-24.471-42.385c-5.984-10.364-16.262-16.938-27.968-18.067-5.496-.53-10.902.243-15.897 2.089 7.827 2.884 14.486 8.416 18.853 15.979l24.471 42.385c7.285 12.617 6.955 28.471-1.507 40.33-6.831 9.573-17.664 15.187-29.631 15.187h25.011c11.967 0 22.8-5.614 29.631-15.187 8.464-11.86 8.793-27.714 1.508-40.331z" fill="url(#SVGID_23_)"/></g></g><g><circle cx="193.56" cy="113.925" fill="url(#SVGID_24_)" r="61.44"/><path d="m193.56 52.485c-4.286 0-8.467.442-12.505 1.277 27.935 5.777 48.934 30.516 48.934 60.163s-20.999 54.386-48.934 60.163c4.038.835 8.22 1.277 12.505 1.277 33.932 0 61.44-27.508 61.44-61.44s-27.508-61.44-61.44-61.44z" fill="url(#SVGID_25_)"/><circle cx="193.56" cy="113.925" fill="url(#SVGID_26_)" r="27.717"/></g><g><g><path d="m342.556 114.534h35v117.916h-35z" fill="url(#SVGID_27_)"/></g><path d="m377.556 177.342c-9.344 8.93-21.494 14.937-35 16.567v-79.374h35z" fill="url(#SVGID_28_)"/><g><path d="m384.984 313.072h-48.942c-14.568 0-28.132-8.21-34.172-21.467-4.876-10.703-4.322-22.893 1.661-33.259l24.471-42.385c7.285-12.617 21.179-20.258 35.68-18.859 11.706 1.129 21.984 7.704 27.968 18.067l24.471 42.385c7.285 12.617 6.955 28.471-1.507 40.33-6.83 9.574-17.663 15.188-29.63 15.188zm-24.928-81.143c-.856 0-1.135.482-1.285.741l-24.928 43.177c-.149.259-.428.742 0 1.484.428.741.985.741 1.284.741h49.856c.299 0 .856 0 1.285-.742.428-.741.149-1.224 0-1.483l-24.928-43.177c-.15-.259-.428-.741-1.284-.741z" fill="url(#SVGID_29_)"/><path d="m416.122 257.555-24.471-42.385c-5.984-10.364-16.262-16.938-27.968-18.067-5.496-.53-10.902.243-15.897 2.089 7.827 2.884 14.486 8.416 18.853 15.979l24.471 42.385c7.285 12.617 6.955 28.471-1.507 40.33-6.831 9.573-17.664 15.187-29.631 15.187h25.011c11.967 0 22.8-5.614 29.631-15.187 8.463-11.86 8.793-27.714 1.508-40.331z" fill="url(#SVGID_30_)"/></g></g><g><circle cx="316.44" cy="113.925" fill="url(#SVGID_31_)" r="61.44"/><path d="m316.44 52.485c-4.286 0-8.467.442-12.505 1.277 27.935 5.777 48.934 30.516 48.934 60.163s-20.999 54.386-48.934 60.163c4.038.835 8.22 1.277 12.505 1.277 33.932 0 61.44-27.508 61.44-61.44s-27.508-61.44-61.44-61.44z" fill="url(#SVGID_32_)"/><circle cx="316.44" cy="113.925" fill="url(#SVGID_33_)" r="27.717"/></g><g><path d="m328.664 40.261h-147.328c-11.118 0-20.13-9.013-20.13-20.13 0-11.118 9.013-20.13 20.13-20.13h147.328c11.118 0 20.13 9.013 20.13 20.13 0 11.117-9.012 20.13-20.13 20.13z" fill="url(#SVGID_34_)"/><path d="m328.664 0h-40.469c11.118 0 20.13 9.013 20.13 20.13 0 11.118-9.013 20.13-20.13 20.13h40.469c11.118 0 20.13-9.013 20.13-20.13 0-11.117-9.012-20.13-20.13-20.13z" fill="url(#SVGID_35_)"/></g></g></svg>