<svg id="Capa_1" enable-background="new 0 0 510 510" height="512" viewBox="0 0 510 510" width="512" xmlns="http://www.w3.org/2000/svg" xmlns:xlink="http://www.w3.org/1999/xlink"><linearGradient id="lg1"><stop offset="0" stop-color="#f8f6f7"/><stop offset=".1788" stop-color="#f8f6f7"/><stop offset="1" stop-color="#e7e6f5"/></linearGradient><linearGradient id="SVGID_1_" gradientUnits="userSpaceOnUse" x1="233.716" x2="277.575" xlink:href="#lg1" y1="386.189" y2="386.189"/><linearGradient id="lg2"><stop offset="0" stop-color="#f8f6f7"/><stop offset="1" stop-color="#d1ceeb"/></linearGradient><linearGradient id="SVGID_2_" gradientUnits="userSpaceOnUse" x1="187.12" x2="275.667" xlink:href="#lg2" y1="301.641" y2="301.641"/><linearGradient id="lg3"><stop offset="0" stop-color="#fe99a0"/><stop offset=".593" stop-color="#fe646f"/><stop offset="1" stop-color="#e41f2d"/></linearGradient><linearGradient id="SVGID_3_" gradientUnits="userSpaceOnUse" x1="102.098" x2="417.314" xlink:href="#lg3" y1="145.971" y2="145.971"/><linearGradient id="SVGID_4_" gradientUnits="userSpaceOnUse" x1="73" x2="384.015" xlink:href="#lg3" y1="153.256" y2="153.256"/><linearGradient id="SVGID_5_" gradientUnits="userSpaceOnUse" x1="207" x2="338.034" y1="156.756" y2="156.756"><stop offset="0" stop-color="#fe646f"/><stop offset=".7043" stop-color="#e41f2d"/><stop offset="1" stop-color="#c41926"/></linearGradient><linearGradient id="SVGID_6_" gradientUnits="userSpaceOnUse" x1="180.5" x2="322.725" xlink:href="#lg1" y1="288.505" y2="288.505"/><linearGradient id="lg4"><stop offset="0" stop-color="#a79ba7"/><stop offset=".7487" stop-color="#7a6d79"/><stop offset="1" stop-color="#685e68"/></linearGradient><linearGradient id="SVGID_7_" gradientUnits="userSpaceOnUse" x1="98" x2="419.801" xlink:href="#lg4" y1="483" y2="483"/><linearGradient id="SVGID_8_" gradientUnits="userSpaceOnUse" x1="183.094" x2="365.204" xlink:href="#lg4" y1="483" y2="483"/><linearGradient id="SVGID_9_" gradientUnits="userSpaceOnUse" x1="192" x2="330.521" xlink:href="#lg2" y1="289.905" y2="289.905"/><g><g><path d="m237.5 263.497h35v245.383h-35z" fill="url(#SVGID_1_)"/><path d="m237.5 263.501h35v76.28h-35z" fill="url(#SVGID_2_)"/></g><path d="m387.013 132.013c0 44.813-22.329 103.106-56.468 141.378-32.635 16.31-47.45 18.55-75.546 18.55s-43.541-4.255-75.546-18.551c-34.138-38.272-56.467-96.565-56.467-141.377.001-72.909 59.105-132.013 132.014-132.013s132.013 59.104 132.013 132.013z" fill="url(#SVGID_3_)"/><path d="m255 0c-6.803 0-13.485.516-20.01 1.508 63.413 9.643 112.003 64.399 112.003 130.505 0 44.813-22.329 103.106-56.468 141.378-16.221 18.185-35.11 27.824-55.536 31.428 6.526 1.152 13.207 1.692 20.01 1.692 28.096 0 49.201-14.362 75.546-33.121 34.139-38.272 56.468-96.565 56.468-141.378 0-72.908-59.104-132.012-132.013-132.012z" fill="url(#SVGID_4_)"/><path d="m310.588 132.013c0 72.909-24.887 181.499-55.588 181.499s-55.588-108.59-55.588-181.499 24.888-132.013 55.588-132.013 55.588 59.104 55.588 132.013z" fill="url(#SVGID_5_)"/><path d="m255 263.497c-27.934 0-53.904 3.642-75.538 9.888 21.403 23.994 47.443 40.127 75.538 40.127s54.135-16.133 75.538-40.127c-21.634-6.246-47.604-9.888-75.538-9.888z" fill="url(#SVGID_6_)"/><g><path d="m379.604 510h-249.208c-7.475 0-13.536-6.06-13.536-13.536 0-22.348 18.117-40.464 40.464-40.464h195.351c22.348 0 40.464 18.117 40.464 40.464.001 7.476-6.059 13.536-13.535 13.536z" fill="url(#SVGID_7_)"/><path d="m352.675 456h-40.02c22.348 0 40.464 18.117 40.464 40.464v13.536h26.484c7.475 0 13.536-6.06 13.536-13.536.001-22.347-18.116-40.464-40.464-40.464z" fill="url(#SVGID_8_)"/></g><path d="m290.526 273.391c-19.499 21.86-42.851 31.375-68.096 32.896 10.418 4.636 21.329 7.225 32.57 7.225 28.095 0 54.135-16.133 75.538-40.127-10.416-3.007-21.845-5.403-34.007-7.087-1.959 2.43-3.959 4.8-6.005 7.093z" fill="url(#SVGID_9_)"/></g></svg>