<svg id="Capa_1" enable-background="new 0 0 510 510" height="512" viewBox="0 0 510 510" width="512" xmlns="http://www.w3.org/2000/svg" xmlns:xlink="http://www.w3.org/1999/xlink"><linearGradient id="lg1"><stop offset="0" stop-color="#a79ba7"/><stop offset=".7487" stop-color="#7a6d79"/><stop offset="1" stop-color="#685e68"/></linearGradient><linearGradient id="SVGID_1_" gradientUnits="userSpaceOnUse" x1="-4.638" x2="364.33" xlink:href="#lg1" y1="479.808" y2="479.808"/><linearGradient id="lg2"><stop offset="0" stop-color="#685e68"/><stop offset="1" stop-color="#433f43"/></linearGradient><linearGradient id="SVGID_2_" gradientUnits="userSpaceOnUse" x1="273.342" x2="486.098" xlink:href="#lg2" y1="479.81" y2="479.81"/><linearGradient id="lg3"><stop offset="0" stop-color="#fff9df"/><stop offset=".593" stop-color="#ffe177"/><stop offset="1" stop-color="#feb137"/></linearGradient><linearGradient id="SVGID_3_" gradientUnits="userSpaceOnUse" x1="152.904" x2="362.169" xlink:href="#lg3" y1="30.192" y2="30.192"/><linearGradient id="SVGID_4_" gradientUnits="userSpaceOnUse" x1="111.625" x2="321.748" xlink:href="#lg3" y1="30.192" y2="30.192"/><linearGradient id="SVGID_5_" gradientUnits="userSpaceOnUse" x1="-12.835" x2="73.508" xlink:href="#lg3" y1="146.88" y2="146.88"/><linearGradient id="SVGID_6_" gradientUnits="userSpaceOnUse" x1="345.435" x2="498.149" xlink:href="#lg3" y1="146.88" y2="146.88"/><linearGradient id="SVGID_7_" gradientUnits="userSpaceOnUse" x1="34.418" x2="469.58" xlink:href="#lg1" y1="247.6" y2="247.6"/><linearGradient id="SVGID_8_" gradientUnits="userSpaceOnUse" x1="-92.165" x2="359.133" xlink:href="#lg1" y1="247.6" y2="247.6"/><linearGradient id="SVGID_9_" gradientUnits="userSpaceOnUse" x1="361.613" x2="528.347" xlink:href="#lg2" y1="247.6" y2="247.6"/><linearGradient id="SVGID_10_" gradientUnits="userSpaceOnUse" x1="-52.984" x2="350.872" y1="254.606" y2="254.606"><stop offset="0" stop-color="#f8f6f7"/><stop offset=".1788" stop-color="#f8f6f7"/><stop offset="1" stop-color="#e7e6f5"/></linearGradient><linearGradient id="lg4"><stop offset="0" stop-color="#f8f6f7"/><stop offset="1" stop-color="#d1ceeb"/></linearGradient><linearGradient id="SVGID_11_" gradientUnits="userSpaceOnUse" x1="177.289" x2="252.395" xlink:href="#lg4" y1="231.61" y2="231.61"/><linearGradient id="SVGID_12_" gradientUnits="userSpaceOnUse" x1="177.289" x2="252.395" xlink:href="#lg4" y1="277.601" y2="277.601"/><linearGradient id="SVGID_13_" gradientUnits="userSpaceOnUse" x1="-51" x2="291.987" xlink:href="#lg4" y1="254.606" y2="254.606"/><linearGradient id="SVGID_17_" gradientUnits="userSpaceOnUse" x1="87.626" x2="427.086" xlink:href="#lg1" y1="247.6" y2="247.6"/><linearGradient id="SVGID_18_" gradientUnits="userSpaceOnUse" x1="322.5" x2="388.008" xlink:href="#lg4" y1="255.327" y2="255.327"/><g><g><path d="m77.994 449.615v15.136c0 24.99 20.258 45.249 45.249 45.249h263.515c24.99 0 45.249-20.259 45.249-45.249v-15.136z" fill="url(#SVGID_1_)"/><g><path d="m432.01 449.62v15.13c0 6.57-1.4 12.81-3.92 18.44-7.06 15.8-22.91 26.81-41.33 26.81h-40.02c8.059 0 15.626-2.107 22.18-5.801 10.016-5.645 5.784-21.009-5.713-21.009h-281.297c-2.52-5.63-3.92-11.87-3.92-18.44v-15.13z" fill="url(#SVGID_2_)"/></g><g><path d="m344.832 60.385h-179.664v-15.136c0-24.991 20.259-45.249 45.249-45.249h89.166c24.99 0 45.249 20.258 45.249 45.249z" fill="url(#SVGID_3_)"/></g><path d="m299.583 0h-25.011c24.99 0 45.249 20.259 45.249 45.249v15.136h25.011v-15.136c0-24.99-20.259-45.249-45.249-45.249z" fill="url(#SVGID_4_)"/><g><path d="m94.903 70.224c-22.792-10.248-49.577-.078-59.824 22.715l-30.823 68.556c-10.247 22.792-.078 49.577 22.715 59.824l13.805 6.207 67.932-151.095z" fill="url(#SVGID_5_)"/><path d="m415.097 70.224c22.792-10.248 49.577-.078 59.824 22.715l30.823 68.556c10.247 22.792.078 49.577-22.715 59.824l-13.805 6.207-67.932-151.095z" fill="url(#SVGID_6_)"/></g><path d="m412.888 458.181h-321.778c-31.31 0-56.692-25.382-56.692-56.692v-202.184c0-89.628 72.658-162.286 162.286-162.286h110.59c89.628 0 162.286 72.658 162.286 162.286v202.184c0 31.31-25.382 56.692-56.692 56.692z" fill="url(#SVGID_7_)"/><g><path d="m388.152 410.649h-272.306c-24.243 0-43.896-19.653-43.896-43.896v-156.547c0-69.397 56.257-125.655 125.655-125.655h108.788c69.397 0 125.655 56.257 125.655 125.655v156.547c-.001 24.243-19.653 43.896-43.896 43.896z" fill="url(#SVGID_8_)"/><path d="m306.393 84.552h-25.011c69.397 0 125.655 56.257 125.655 125.655v156.547c0 24.243-19.653 43.896-43.896 43.896h25.011c24.243 0 43.896-19.653 43.896-43.896v-156.548c-.001-69.397-56.258-125.654-125.655-125.654z" fill="url(#SVGID_9_)"/></g><path d="m385.947 319.18h-261.894c-16.665 0-30.174-13.509-30.174-30.174v-68.801c0-16.665 13.509-30.174 30.174-30.174h261.894c16.665 0 30.174 13.509 30.174 30.174v68.801c0 16.665-13.509 30.174-30.174 30.174z" fill="url(#SVGID_10_)"/><g><path d="m255 221.596c-5.531 0-10.015 4.484-10.015 10.015 0 5.531 4.484 10.015 10.015 10.015s10.015-4.483 10.015-10.015c0-5.532-4.484-10.015-10.015-10.015z" fill="url(#SVGID_11_)"/><path d="m255 267.586c-5.531 0-10.015 4.484-10.015 10.015 0 5.531 4.484 10.015 10.015 10.015s10.015-4.483 10.015-10.015c0-5.531-4.484-10.015-10.015-10.015z" fill="url(#SVGID_12_)"/></g><g fill="url(#SVGID_13_)"><path d="m138.554 206.251c-18.109 0-32.149 8.398-32.149 30.968v34.773c0 22.57 14.041 30.968 32.149 30.968s32.28-8.398 32.28-30.968v-34.773c0-22.57-14.172-30.968-32.28-30.968zm11.81 65.741c0 9.055-4.462 13.122-11.81 13.122s-11.679-4.067-11.679-13.122v-34.773c0-9.055 4.33-13.122 11.679-13.122s11.81 4.068 11.81 13.122z"/><path d="m208.718 206.251c-18.109 0-32.149 8.398-32.149 30.968v34.773c0 22.57 14.041 30.968 32.149 30.968s32.28-8.398 32.28-30.968v-34.773c.001-22.57-14.171-30.968-32.28-30.968zm11.81 65.741c0 9.055-4.462 13.122-11.81 13.122s-11.679-4.067-11.679-13.122v-34.773c0-9.055 4.33-13.122 11.679-13.122s11.81 4.068 11.81 13.122z"/><path d="m304.503 206.251c-18.109 0-32.149 8.398-32.149 30.968v34.773c0 22.57 14.041 30.968 32.149 30.968 18.109 0 32.28-8.398 32.28-30.968v-34.773c0-22.57-14.172-30.968-32.28-30.968zm11.81 65.741c0 9.055-4.462 13.122-11.81 13.122s-11.679-4.067-11.679-13.122v-34.773c0-9.055 4.33-13.122 11.679-13.122 7.348 0 11.81 4.068 11.81 13.122z"/><path d="m374.667 206.251c-18.109 0-32.149 8.398-32.149 30.968v34.773c0 22.57 14.041 30.968 32.149 30.968 18.109 0 32.28-8.398 32.28-30.968v-34.773c.001-22.57-14.171-30.968-32.28-30.968zm11.81 65.741c0 9.055-4.462 13.122-11.81 13.122s-11.679-4.067-11.679-13.122v-34.773c0-9.055 4.33-13.122 11.679-13.122 7.348 0 11.81 4.068 11.81 13.122z"/></g><path d="m307.294 37.019h-40.02c89.628 0 162.286 72.658 162.286 162.286v202.184c0 31.31-25.382 56.692-56.692 56.692h40.02c31.31 0 56.692-25.382 56.692-56.692v-202.184c0-89.628-72.658-162.286-162.286-162.286z" fill="url(#SVGID_17_)"/></g><path d="m406.451 199.075c.383 3.993.585 8.038.585 12.131v100.372c5.603-5.478 9.085-13.117 9.085-21.572v-68.801c0-8.746-3.725-16.619-9.67-22.13z" fill="url(#SVGID_18_)"/></g></svg>