<svg id="Capa_1" enable-background="new 0 0 510 510" height="512" viewBox="0 0 510 510" width="512" xmlns="http://www.w3.org/2000/svg" xmlns:xlink="http://www.w3.org/1999/xlink"><linearGradient id="lg1"><stop offset="0" stop-color="#ffdcbd"/><stop offset=".0028" stop-color="#ffdcbd"/><stop offset="1" stop-color="#ffa9b1"/></linearGradient><linearGradient id="SVGID_1_" gradientUnits="userSpaceOnUse" x1="0" x2="510" xlink:href="#lg1" y1="230.685" y2="230.685"/><linearGradient id="SVGID_2_" gradientUnits="userSpaceOnUse" x1="125.333" x2="250.361" xlink:href="#lg1" y1="294.309" y2="294.309"/><linearGradient id="SVGID_3_" gradientUnits="userSpaceOnUse" x1="191.333" x2="370.003" xlink:href="#lg1" y1="294.309" y2="294.309"/><linearGradient id="SVGID_4_" gradientUnits="userSpaceOnUse" x1="120" x2="255.655" xlink:href="#lg1" y1="358.58" y2="358.58"/><linearGradient id="SVGID_5_" gradientUnits="userSpaceOnUse" x1="211.333" x2="364.001" xlink:href="#lg1" y1="358.58" y2="358.58"/><linearGradient id="SVGID_6_" gradientUnits="userSpaceOnUse" x1="129.333" x2="271.02" xlink:href="#lg1" y1="419.043" y2="419.043"/><linearGradient id="SVGID_7_" gradientUnits="userSpaceOnUse" x1="206.667" x2="349.641" xlink:href="#lg1" y1="419.043" y2="419.043"/><linearGradient id="lg2"><stop offset="0" stop-color="#ffc2b5"/><stop offset=".2441" stop-color="#ffbbb3"/><stop offset=".6097" stop-color="#ffa6af"/><stop offset="1" stop-color="#ff89a8"/></linearGradient><linearGradient id="SVGID_8_" gradientUnits="userSpaceOnUse" x1="308.127" x2="365.274" xlink:href="#lg2" y1="358.58" y2="358.58"/><linearGradient id="SVGID_9_" gradientUnits="userSpaceOnUse" x1="312.127" x2="369.274" xlink:href="#lg2" y1="294.309" y2="294.309"/><linearGradient id="SVGID_10_" gradientUnits="userSpaceOnUse" x1="26" x2="252.716" xlink:href="#lg1" y1="358.58" y2="358.58"/><linearGradient id="SVGID_11_" gradientUnits="userSpaceOnUse" x1="26" x2="252.716" xlink:href="#lg1" y1="294.309" y2="294.309"/><linearGradient id="SVGID_12_" gradientUnits="userSpaceOnUse" x1="299.094" x2="352.433" xlink:href="#lg2" y1="419.043" y2="419.043"/><linearGradient id="SVGID_13_" gradientUnits="userSpaceOnUse" x1="26" x2="252.716" xlink:href="#lg1" y1="419.043" y2="419.043"/><linearGradient id="SVGID_14_" gradientUnits="userSpaceOnUse" x1="252.882" x2="443.214" xlink:href="#lg2" y1="173.025" y2="173.025"/><linearGradient id="SVGID_15_" gradientUnits="userSpaceOnUse" x1="19" x2="264.017" xlink:href="#lg1" y1="217.087" y2="217.087"/><linearGradient id="SVGID_16_" gradientUnits="userSpaceOnUse" x1="240.957" x2="496.501" xlink:href="#lg2" y1="230.685" y2="230.685"/><linearGradient id="lg3"><stop offset="0" stop-color="#01d0fb"/><stop offset=".6075" stop-color="#26a6fe"/><stop offset="1" stop-color="#0182fc"/></linearGradient><linearGradient id="SVGID_17_" gradientTransform="matrix(1 0 0 -1 0 92)" gradientUnits="userSpaceOnUse" x1="55.127" x2="449.753" xlink:href="#lg3" y1="-384.649" y2="-384.649"/><linearGradient id="SVGID_18_" gradientTransform="matrix(1 0 0 -1 0 92)" gradientUnits="userSpaceOnUse" x1="99.098" x2="385.606" xlink:href="#lg3" y1="-384.649" y2="-384.649"/><linearGradient id="SVGID_19_" gradientUnits="userSpaceOnUse" x1="246.293" x2="373.942" xlink:href="#lg2" y1="84.876" y2="84.876"/><linearGradient id="SVGID_20_" gradientUnits="userSpaceOnUse" x1="100.639" x2="266.308" xlink:href="#lg1" y1="84.876" y2="84.876"/><g><g><path d="m465.389 85.55c-1.253.356-2.591.255-3.776-.285l-90.849-41.403c-14.431-6.577-30.106-9.98-45.965-9.98-3.753 0-6.796-3.043-6.796-6.796v-3.56c0-12.993-10.533-23.526-23.527-23.526h-78.953c-12.993 0-23.526 10.533-23.526 23.526v3.56c0 3.739-3.018 6.797-6.757 6.796-15.872-.006-31.561 3.398-46.004 9.98l-90.849 41.403c-1.185.54-2.524.641-3.776.285-22.368-6.361-44.611 10.439-44.611 33.694v113.842c0 24.108 23.785 41.01 46.551 33.081s8.45 56.596 24.612 87.099l14.322 27.031c9.332 17.612 14.211 37.241 14.211 57.173 0 13.2 10.701 23.901 23.901 23.901h262.805c13.2 0 23.901-10.701 23.901-23.901 0-19.932 4.879-39.561 14.211-57.173l14.322-27.031c16.162-30.503 24.612-87.099 24.612-87.099 22.766 7.929 46.551-8.973 46.551-33.081v-113.842c.001-23.255-22.242-40.055-44.61-33.694z" fill="url(#SVGID_1_)"/><g><path d="m222.864 326.444h-55.336c-17.748 0-32.136-14.388-32.136-32.136 0-17.748 14.388-32.136 32.136-32.136h55.336c17.748 0 32.136 14.388 32.136 32.136 0 17.749-14.388 32.136-32.136 32.136z" fill="url(#SVGID_2_)"/><path d="m342.472 326.444h-55.336c-17.748 0-32.136-14.388-32.136-32.136 0-17.748 14.388-32.136 32.136-32.136h55.336c17.748 0 32.136 14.388 32.136 32.136-.001 17.749-14.388 32.136-32.136 32.136z" fill="url(#SVGID_3_)"/><path d="m222.864 390.716h-55.336c-17.748 0-32.136-14.388-32.136-32.136 0-17.748 14.388-32.136 32.136-32.136h55.336c17.748 0 32.136 14.388 32.136 32.136 0 17.748-14.388 32.136-32.136 32.136z" fill="url(#SVGID_4_)"/><path d="m342.472 390.716h-55.336c-17.748 0-32.136-14.388-32.136-32.136 0-17.748 14.388-32.136 32.136-32.136h55.336c17.748 0 32.136 14.388 32.136 32.136-.001 17.748-14.388 32.136-32.136 32.136z" fill="url(#SVGID_5_)"/><path d="m226.673 447.371h-48.778c-15.645 0-28.327-12.683-28.327-28.327 0-15.645 12.683-28.327 28.327-28.327h48.778c15.645 0 28.327 12.683 28.327 28.327 0 15.644-12.683 28.327-28.327 28.327z" fill="url(#SVGID_6_)"/><path d="m332.105 447.371h-48.778c-15.645 0-28.327-12.683-28.327-28.327 0-15.645 12.683-28.327 28.327-28.327h48.778c15.645 0 28.327 12.683 28.327 28.327.001 15.644-12.682 28.327-28.327 28.327z" fill="url(#SVGID_7_)"/><path d="m342.472 326.444h-25.011c17.748 0 32.136 14.388 32.136 32.136 0 17.748-14.388 32.136-32.136 32.136h25.011c17.748 0 32.136-14.388 32.136-32.136-.001-17.748-14.388-32.136-32.136-32.136z" fill="url(#SVGID_8_)"/><path d="m342.472 262.173h-25.011c17.748 0 32.136 14.388 32.136 32.136 0 17.748-14.388 32.136-32.136 32.136h25.011c17.748 0 32.136-14.388 32.136-32.136-.001-17.749-14.388-32.136-32.136-32.136z" fill="url(#SVGID_9_)"/><path d="m222.864 326.444h-25.011c17.748 0 32.136 14.388 32.136 32.136 0 17.748-14.388 32.136-32.136 32.136h25.011c17.748 0 32.136-14.388 32.136-32.136 0-17.748-14.388-32.136-32.136-32.136z" fill="url(#SVGID_10_)"/><path d="m222.864 262.173h-25.011c17.748 0 32.136 14.388 32.136 32.136 0 17.748-14.388 32.136-32.136 32.136h25.011c17.748 0 32.136-14.388 32.136-32.136 0-17.749-14.388-32.136-32.136-32.136z" fill="url(#SVGID_11_)"/><path d="m332.105 390.716h-25.011c15.645 0 28.327 12.683 28.327 28.327 0 15.645-12.683 28.327-28.327 28.327h25.011c15.645 0 28.327-12.682 28.327-28.327.001-15.645-12.682-28.327-28.327-28.327z" fill="url(#SVGID_12_)"/><path d="m226.673 390.716h-25.011c15.645 0 28.327 12.683 28.327 28.327 0 15.645-12.683 28.327-28.327 28.327h25.011c15.645 0 28.327-12.682 28.327-28.327 0-15.645-12.682-28.327-28.327-28.327z" fill="url(#SVGID_13_)"/><path d="m422.936 83.876h-3.248c2.056 5.364 2.932 11.271 2.305 17.401l-8.53 83.343c-3.053 29.831-28.627 52.542-59.165 52.542h-73.148c-3.147 0-6.24-.256-9.268-.723 10.779 15.671 29 25.734 49.288 25.734h73.147c30.538 0 56.112-22.71 59.165-52.541l8.53-83.344c2.325-22.704-15.833-42.412-39.076-42.412z" fill="url(#SVGID_14_)"/><path d="m226.934 172.001c-10.062 0-18.615 7.351-20.127 17.299-5.055 27.852-29.724 48.137-58.541 48.137h-73.147c-2.863 0-5.683-.2-8.445-.586 10.773 15.372 28.8 25.322 49.008 25.322h73.147c28.817 0 53.486-20.285 58.541-48.137l7.63-42.035z" fill="url(#SVGID_15_)"/></g><path d="m465.389 85.55c-1.253.356-2.591.255-3.776-.285l-90.849-41.403c-14.431-6.577-30.106-9.98-45.965-9.98-3.754 0-6.796-3.043-6.796-6.796v-3.56c0-12.993-10.533-23.526-23.527-23.526h-40.02c12.993 0 23.526 10.533 23.526 23.527v3.56c0 3.753 3.043 6.796 6.796 6.796 15.859 0 31.534 3.403 45.965 9.98l61.258 26.988c15.441 6.803 31.797 11.114 48.459 13.775 16.302 2.603 29.519 16.693 29.519 34.619v113.842c0 9.643-7.448 16.865-16.386 22.059-19.456 11.307-33.083 30.41-38.605 52.225-4.007 15.831-9.416 33.144-16.173 45.896l-14.322 27.031c-9.332 17.612-14.211 37.241-14.211 57.173 0 13.2-10.701 23.901-23.901 23.901h40.02c13.2 0 23.901-10.701 23.901-23.901 0-19.932 4.879-39.561 14.211-57.173l14.322-27.031c16.162-30.503 24.612-87.099 24.612-87.099 22.766 7.929 46.552-8.973 46.552-33.081v-113.843c.001-23.255-22.242-40.055-44.61-33.694z" fill="url(#SVGID_16_)"/></g><g><path d="m103.939 443.298h302.121c6.717 0 12.487 4.771 13.748 11.368l9.69 25.373c3.167 15.512-9.084 29.961-25.404 29.961h-298.19c-16.32 0-28.571-14.449-25.404-29.961l9.69-25.373c1.263-6.596 7.033-11.368 13.749-11.368z" fill="url(#SVGID_17_)"/><path d="m404.095 510h-40.02c16.32 0 28.571-14.449 25.404-29.961l-9.69-25.373c-1.262-6.597-7.031-11.368-13.748-11.368h40.02c6.717 0 12.487 4.771 13.748 11.368l9.69 25.373c3.167 15.512-9.084 29.961-25.404 29.961z" fill="url(#SVGID_18_)"/></g><g><path d="m281.993 109.191c4.141 0 7.713-2.873 8.638-6.91 3.147-13.727 15.461-23.998 30.129-23.998h36.822c4.879 0 9.064-3.817 9.154-8.695.091-4.97-3.911-9.027-8.86-9.027h-37.116c-23.107 0-42.502 16.2-47.423 37.84-1.258 5.53 2.985 10.79 8.656 10.79z" fill="url(#SVGID_19_)"/><path d="m228.007 109.191c-4.141 0-7.713-2.873-8.638-6.91-3.147-13.727-15.461-23.998-30.129-23.998h-36.822c-4.879 0-9.064-3.817-9.154-8.695-.091-4.97 3.911-9.027 8.86-9.027h37.116c23.107 0 42.502 16.2 47.423 37.84 1.258 5.53-2.985 10.79-8.656 10.79z" fill="url(#SVGID_20_)"/></g></g></svg>