<svg id="Capa_1" enable-background="new 0 0 510 510" height="512" viewBox="0 0 510 510" width="512" xmlns="http://www.w3.org/2000/svg" xmlns:xlink="http://www.w3.org/1999/xlink"><linearGradient id="SVGID_1_" gradientUnits="userSpaceOnUse" x1="145.165" x2="503.328" y1="141.605" y2="141.605"><stop offset="0" stop-color="#ffdcbd"/><stop offset=".0028" stop-color="#ffdcbd"/><stop offset="1" stop-color="#ffa9b1"/></linearGradient><linearGradient id="SVGID_2_" gradientUnits="userSpaceOnUse" x1="247.014" x2="503.835" y1="141.605" y2="141.605"><stop offset="0" stop-color="#ffc2b5"/><stop offset=".2441" stop-color="#ffbbb3"/><stop offset=".6097" stop-color="#ffa6af"/><stop offset="1" stop-color="#ff89a8"/></linearGradient><linearGradient id="lg1"><stop offset="0" stop-color="#fe99a0"/><stop offset=".593" stop-color="#fe646f"/><stop offset="1" stop-color="#e41f2d"/></linearGradient><linearGradient id="SVGID_3_" gradientUnits="userSpaceOnUse" x1="29.427" x2="492.871" xlink:href="#lg1" y1="300.379" y2="300.379"/><linearGradient id="SVGID_4_" gradientUnits="userSpaceOnUse" x1="84.667" x2="213.359" xlink:href="#lg1" y1="367.209" y2="367.209"/><linearGradient id="SVGID_5_" gradientUnits="userSpaceOnUse" x1="142" x2="285.358" xlink:href="#lg1" y1="423.754" y2="423.754"/><linearGradient id="SVGID_6_" gradientUnits="userSpaceOnUse" x1="229.789" x2="471.581" y1="362.599" y2="362.599"><stop offset="0" stop-color="#fe646f"/><stop offset=".7043" stop-color="#e41f2d"/><stop offset="1" stop-color="#c41926"/></linearGradient><linearGradient id="SVGID_7_" gradientUnits="userSpaceOnUse" x1="33.102" x2="279.089" xlink:href="#lg1" y1="166.177" y2="166.177"/><linearGradient id="lg2"><stop offset="0" stop-color="#f8f6f7"/><stop offset=".1788" stop-color="#f8f6f7"/><stop offset="1" stop-color="#e7e6f5"/></linearGradient><linearGradient id="SVGID_8_" gradientUnits="userSpaceOnUse" x1="19.333" x2="139.749" xlink:href="#lg2" y1="265.111" y2="265.111"/><linearGradient id="SVGID_9_" gradientUnits="userSpaceOnUse" x1="0" x2="510" xlink:href="#lg2" y1="370.396" y2="370.396"/><linearGradient id="lg3"><stop offset="0" stop-color="#f8f6f7"/><stop offset="1" stop-color="#d1ceeb"/></linearGradient><linearGradient id="SVGID_10_" gradientUnits="userSpaceOnUse" x1="363.085" x2="496.106" xlink:href="#lg3" y1="483.985" y2="483.985"/><linearGradient id="lg4"><stop offset="0" stop-color="#fff9df"/><stop offset=".593" stop-color="#ffe177"/><stop offset="1" stop-color="#feb137"/></linearGradient><linearGradient id="SVGID_11_" gradientUnits="userSpaceOnUse" x1="262" x2="422.449" xlink:href="#lg4" y1="297.036" y2="297.036"/><linearGradient id="SVGID_12_" gradientUnits="userSpaceOnUse" x1="-22.396" x2="241.715" xlink:href="#lg3" y1="344.832" y2="344.832"/><linearGradient id="SVGID_13_" gradientUnits="userSpaceOnUse" x1="211.093" x2="394.826" xlink:href="#lg4" y1="297.036" y2="297.036"/><linearGradient id="lg5"><stop offset="0" stop-color="#a79ba7"/><stop offset=".7487" stop-color="#7a6d79"/><stop offset="1" stop-color="#685e68"/></linearGradient><linearGradient id="SVGID_14_" gradientUnits="userSpaceOnUse" x1="332" x2="372.528" xlink:href="#lg5" y1="331.281" y2="331.281"/><linearGradient id="SVGID_15_" gradientUnits="userSpaceOnUse" x1="332" x2="372.528" xlink:href="#lg5" y1="294.962" y2="294.962"/><linearGradient id="SVGID_16_" gradientUnits="userSpaceOnUse" x1="332" x2="372.528" xlink:href="#lg5" y1="258.642" y2="258.642"/><g><path d="m497.443 44.889-237.873 237.872-124.8-124.8 144.317-144.317c8.449-8.449 19.908-13.196 31.857-13.196h168.091c23.192.001 34.807 28.041 18.408 44.441z" fill="url(#SVGID_1_)"/><path d="m479.035.449h-40.02c23.192 0 34.807 28.04 18.407 44.44l-217.862 217.862 20.01 20.01 237.873-237.872c16.399-16.4 4.784-44.44-18.408-44.44z" fill="url(#SVGID_2_)"/><g><path d="m466.694 500.357h-194.259c-19.779 0-38.746-7.862-52.735-21.851l-190.273-190.272 61.139-107.386 74.287-74.287c12.173-12.173 33.017-5.286 35.542 11.743 4.548 30.669 18.839 59.063 40.763 80.986l17.584 17.583c15.047 15.046 37.797 19.291 57.257 10.682 11.996-5.307 26.02-2.69 35.295 6.585 5.954 5.954 9.299 14.03 9.299 22.45v71.414c0 23.327 18.911 42.227 42.226 42.227 33.61 0 63.469 21.411 74.271 53.219l14.372 42.339c5.756 16.964-6.848 34.568-24.768 34.568z" fill="url(#SVGID_3_)"/><path d="m196.47 296.976-21.14-21.14c-5.35-5.35-14.49-1.56-14.49 6.01v137.8l41.44 41.44v-150.08c0-5.26-2.09-10.31-5.81-14.03z" fill="url(#SVGID_4_)"/><path d="m270.3 370.806-21.14-21.15c-5.35-5.35-14.5-1.56-14.5 6.01v134.4c11.35 6.68 24.38 10.29 37.77 10.29h3.68v-115.53c0-5.26-2.09-10.31-5.81-14.02z" fill="url(#SVGID_5_)"/><path d="m491.462 465.79-14.372-42.339c-10.802-31.808-40.661-53.219-74.271-53.219-23.315 0-42.226-18.9-42.226-42.227v-71.415c0-8.42-3.345-16.496-9.299-22.45-9.275-9.275-23.299-11.892-35.295-6.585l-4.725 6.585c5.954 5.954 9.299 14.03 9.299 22.45v71.415c0 23.327 18.911 42.227 42.226 42.227 33.61 0 63.469 21.411 74.271 53.219l14.372 42.339c5.756 16.963-6.848 34.567-24.768 34.567h40.02c17.921.001 30.524-17.604 24.768-34.567z" fill="url(#SVGID_6_)"/><path d="m258.743 216.874-17.583-17.583c-21.924-21.924-36.215-50.317-40.763-80.987-2.525-17.029-23.37-23.915-35.542-11.742l-6.117 6.117c.773 1.723 1.34 3.6 1.64 5.625 4.548 30.669 18.839 59.063 40.763 80.987l17.583 17.583c14.833 14.833 37.15 19.159 56.423 11.032-6.015-2.535-11.603-6.231-16.404-11.032z" fill="url(#SVGID_7_)"/><path d="m90.576 349.383-84.272-84.272 84.272-84.272 14.825 14.825c38.355 38.355 38.355 100.54 0 138.894z" fill="url(#SVGID_8_)"/><path d="m240.849 434.424-195.696-195.696c-9.984-9.984-26.172-9.984-36.156 0l-1.508 1.508c-9.984 9.984-9.984 26.172 0 36.156l209.164 209.163c15.363 15.363 36.201 23.994 57.928 23.994h209.834c17.51 0 29.838-17.205 24.209-33.785-3.521-10.371-13.257-17.348-24.209-17.348h-185.639c-21.727.002-42.564-8.629-57.927-23.992z" fill="url(#SVGID_9_)"/><path d="m508.623 475.766c-3.521-10.371-13.257-17.348-24.209-17.348h-40.02c10.953 0 20.688 6.977 24.209 17.348 5.629 16.581-6.699 33.785-24.209 33.785h40.02c17.51 0 29.838-17.204 24.209-33.785z" fill="url(#SVGID_10_)"/><path d="m361.593 328.005v-72.415c0-8.42-3.345-16.496-9.299-22.45-9.275-9.275-23.299-11.892-35.295-6.585-.08.035-.16.071-.24.106-14.866 6.486-24.671 20.928-24.671 37.147v39.827c0 36.228 29.369 66.597 65.597 66.597h46.134c-23.314 0-42.226-18.9-42.226-42.227z" fill="url(#SVGID_11_)"/><path d="m240.849 434.424-195.696-195.695c-8.287-8.287-20.844-9.689-30.584-4.22 1.995 1.12 3.875 2.522 5.573 4.22l195.695 195.695c15.363 15.363 36.201 23.994 57.928 23.994h25.011c-21.727 0-42.564-8.631-57.927-23.994z" fill="url(#SVGID_12_)"/><path d="m361.593 328.005v-72.415c0-8.42-3.345-16.496-9.299-22.45-9.275-9.275-23.299-11.892-35.295-6.585-.08.035-.16.071-.24.105-2.573 1.123-4.99 2.489-7.235 4.056.954.749 1.877 1.55 2.75 2.423 5.954 5.954 9.299 14.03 9.299 22.45v72.415c0 23.327 18.911 42.227 42.226 42.227h40.02c-23.314.001-42.226-18.899-42.226-42.226z" fill="url(#SVGID_13_)"/><g><path d="m372.015 331.28c0-5.531-4.484-10.015-10.015-10.015h-21.582c-5.531 0-10.015 4.484-10.015 10.015s4.483 10.015 10.015 10.015h21.582c5.531 0 10.015-4.484 10.015-10.015z" fill="url(#SVGID_14_)"/><path d="m372.015 294.962c0-5.531-4.484-10.015-10.015-10.015h-21.582c-5.531 0-10.015 4.484-10.015 10.015s4.483 10.015 10.015 10.015h21.582c5.531-.001 10.015-4.484 10.015-10.015z" fill="url(#SVGID_15_)"/><path d="m372.015 258.643c0-5.531-4.484-10.015-10.015-10.015h-21.582c-5.531 0-10.015 4.484-10.015 10.015s4.483 10.015 10.015 10.015h21.582c5.531-.001 10.015-4.484 10.015-10.015z" fill="url(#SVGID_16_)"/></g></g></g></svg>