<svg id="Capa_1" enable-background="new 0 0 510 510" height="512" viewBox="0 0 510 510" width="512" xmlns="http://www.w3.org/2000/svg" xmlns:xlink="http://www.w3.org/1999/xlink"><linearGradient id="lg1"><stop offset="0" stop-color="#f8f6f7"/><stop offset="1" stop-color="#d1ceeb"/></linearGradient><linearGradient id="SVGID_1_" gradientUnits="userSpaceOnUse" x1="272.662" x2="422.316" xlink:href="#lg1" y1="13.013" y2="13.013"/><linearGradient id="lg2"><stop offset="0" stop-color="#fe99a0"/><stop offset=".593" stop-color="#fe646f"/><stop offset="1" stop-color="#e41f2d"/></linearGradient><linearGradient id="SVGID_2_" gradientUnits="userSpaceOnUse" x1="52.693" x2="494.562" xlink:href="#lg2" y1="264.669" y2="264.669"/><linearGradient id="SVGID_3_" gradientUnits="userSpaceOnUse" x1="-92.419" x2="423.235" xlink:href="#lg2" y1="264.669" y2="264.669"/><linearGradient id="lg3"><stop offset="0" stop-color="#f8f6f7"/><stop offset=".1788" stop-color="#f8f6f7"/><stop offset="1" stop-color="#e7e6f5"/></linearGradient><linearGradient id="SVGID_4_" gradientUnits="userSpaceOnUse" x1="42.193" x2="507.339" xlink:href="#lg3" y1="39.245" y2="39.245"/><linearGradient id="SVGID_5_" gradientUnits="userSpaceOnUse" x1="334.74" x2="452.757" xlink:href="#lg1" y1="39.245" y2="39.245"/><linearGradient id="SVGID_6_" gradientUnits="userSpaceOnUse" x1="42.193" x2="507.339" xlink:href="#lg3" y1="490.093" y2="490.093"/><linearGradient id="SVGID_7_" gradientUnits="userSpaceOnUse" x1="334.74" x2="452.757" xlink:href="#lg1" y1="490.093" y2="490.093"/><linearGradient id="SVGID_8_" gradientUnits="userSpaceOnUse" x1="145.238" x2="435.091" y1="264.669" y2="264.669"><stop offset="0" stop-color="#fe646f"/><stop offset=".7043" stop-color="#e41f2d"/><stop offset="1" stop-color="#c41926"/></linearGradient><linearGradient id="SVGID_9_" gradientUnits="userSpaceOnUse" x1="246.775" x2="407.126" y1="264.669" y2="264.669"><stop offset="0" stop-color="#c41926"/><stop offset="1" stop-color="#c41926"/></linearGradient><linearGradient id="SVGID_10_" gradientUnits="userSpaceOnUse" x1="173.754" x2="310.011" y1="264.669" y2="264.669"><stop offset="0" stop-color="#fff9df"/><stop offset=".593" stop-color="#ffe177"/><stop offset="1" stop-color="#feb137"/></linearGradient><linearGradient id="SVGID_11_" gradientUnits="userSpaceOnUse" x1="223.648" x2="330.757" y1="313.167" y2="313.167"><stop offset="0" stop-color="#ffe177"/><stop offset="1" stop-color="#feb137"/></linearGradient><g><path d="m268.667 26.026 106.931-25.697c7.342-1.765 14.402 3.8 14.402 11.351v14.346z" fill="url(#SVGID_1_)"/><g><g><path d="m391.09 490.868h-272.18c-22.102 0-40.02-17.918-40.02-40.02v-372.358c0-22.102 17.918-40.02 40.02-40.02h272.18c22.102 0 40.02 17.918 40.02 40.02v372.359c0 22.102-17.918 40.019-40.02 40.019z" fill="url(#SVGID_2_)"/><path d="m78.89 78.49v5.673h260.841c28.364 0 51.358 22.994 51.358 51.358v355.347c22.102 0 40.02-17.918 40.02-40.02v-372.358c0-22.102-17.918-40.02-40.02-40.02h-272.179c-22.102 0-40.02 17.917-40.02 40.02z" fill="url(#SVGID_3_)"/></g><g><path d="m441.833 59.152h-373.666c-10.994 0-19.907-8.913-19.907-19.907 0-10.994 8.913-19.907 19.907-19.907h373.666c10.994 0 19.907 8.913 19.907 19.907 0 10.995-8.913 19.907-19.907 19.907z" fill="url(#SVGID_4_)"/><path d="m441.833 19.338h-40.02c10.994 0 19.907 8.913 19.907 19.907 0 10.994-8.913 19.907-19.907 19.907h40.02c10.994 0 19.907-8.913 19.907-19.907 0-10.994-8.913-19.907-19.907-19.907z" fill="url(#SVGID_5_)"/></g><g><path d="m441.833 510h-373.666c-10.994 0-19.907-8.913-19.907-19.907 0-10.994 8.913-19.907 19.907-19.907h373.666c10.994 0 19.907 8.913 19.907 19.907 0 10.994-8.913 19.907-19.907 19.907z" fill="url(#SVGID_6_)"/><path d="m441.833 470.186h-40.02c10.994 0 19.907 8.913 19.907 19.907 0 10.994-8.913 19.907-19.907 19.907h40.02c10.994 0 19.907-8.913 19.907-19.907 0-10.994-8.913-19.907-19.907-19.907z" fill="url(#SVGID_7_)"/></g></g><ellipse cx="255" cy="264.669" fill="url(#SVGID_8_)" rx="117.5" ry="164.268"/><path d="m255 100.401c-4.225 0-8.396.319-12.505.927 59.013 8.729 104.995 78.525 104.995 163.341s-45.981 154.612-104.995 163.341c4.109.608 8.281.927 12.505.927 64.893 0 117.5-73.545 117.5-164.268 0-90.722-52.607-164.268-117.5-164.268z" fill="url(#SVGID_9_)"/><g><path d="m327.558 229.599h-41.05c-10.733 0-18.477-10.281-15.515-20.597l18.135-63.144c3.177-11.062-11.374-18.261-18.24-9.025l-101.618 136.702c-8.049 10.828-.321 26.204 13.172 26.204h41.05c10.733 0 18.477 10.281 15.515 20.598l-18.135 63.144c-3.177 11.062 11.374 18.261 18.24 9.025l101.618-136.702c8.049-10.829.32-26.205-13.172-26.205z" fill="url(#SVGID_10_)"/><path d="m327.558 229.599h-32.1c-19.524 37.12-58.459 62.438-103.314 62.438-8.569 0-16.919-.932-24.962-2.686 2.331 5.864 7.944 10.387 15.259 10.387h41.05c10.733 0 18.477 10.281 15.515 20.598l-18.135 63.144c-3.177 11.062 11.374 18.261 18.24 9.024l101.619-136.7c8.049-10.829.32-26.205-13.172-26.205z" fill="url(#SVGID_11_)"/></g></g></svg>