<svg id="Capa_1" enable-background="new 0 0 510 510" height="512" viewBox="0 0 510 510" width="512" xmlns="http://www.w3.org/2000/svg" xmlns:xlink="http://www.w3.org/1999/xlink"><linearGradient id="SVGID_1_" gradientUnits="userSpaceOnUse" x1="-7.483" x2="566.244" y1="85.286" y2="85.286"><stop offset="0" stop-color="#f8f6f7"/><stop offset=".1788" stop-color="#f8f6f7"/><stop offset="1" stop-color="#e7e6f5"/></linearGradient><linearGradient id="lg1"><stop offset="0" stop-color="#f8f6f7"/><stop offset="1" stop-color="#d1ceeb"/></linearGradient><linearGradient id="SVGID_2_" gradientUnits="userSpaceOnUse" x1="33.333" x2="109.406" xlink:href="#lg1" y1="85.286" y2="85.286"/><linearGradient id="SVGID_3_" gradientUnits="userSpaceOnUse" x1="351" x2="440.09" xlink:href="#lg1" y1="85.286" y2="85.286"/><linearGradient id="lg2"><stop offset="0" stop-color="#a79ba7"/><stop offset=".7487" stop-color="#7a6d79"/><stop offset="1" stop-color="#685e68"/></linearGradient><linearGradient id="SVGID_4_" gradientUnits="userSpaceOnUse" x1="-12" x2="81.263" xlink:href="#lg2" y1="85.286" y2="85.286"/><linearGradient id="SVGID_5_" gradientUnits="userSpaceOnUse" x1="-52" x2="78.648" xlink:href="#lg2" y1="85.286" y2="85.286"/><linearGradient id="SVGID_6_" gradientUnits="userSpaceOnUse" x1="433.03" x2="526.293" xlink:href="#lg2" y1="85.286" y2="85.286"/><linearGradient id="SVGID_7_" gradientUnits="userSpaceOnUse" x1="393.03" x2="523.678" xlink:href="#lg2" y1="85.286" y2="85.286"/><linearGradient id="lg3"><stop offset="0" stop-color="#01d0fb"/><stop offset=".6075" stop-color="#26a6fe"/><stop offset="1" stop-color="#0182fc"/></linearGradient><linearGradient id="SVGID_8_" gradientUnits="userSpaceOnUse" x1="102" x2="420.61" xlink:href="#lg3" y1="255" y2="255"/><linearGradient id="SVGID_9_" gradientUnits="userSpaceOnUse" x1="11.156" x2="383.213" xlink:href="#lg3" y1="255" y2="255"/><linearGradient id="SVGID_10_" gradientUnits="userSpaceOnUse" x1="132" x2="238.921" xlink:href="#lg3" y1="322.252" y2="322.252"/><linearGradient id="SVGID_11_" gradientUnits="userSpaceOnUse" x1="203" x2="294.198" xlink:href="#lg3" y1="347.263" y2="347.263"/><linearGradient id="lg4"><stop offset="0" stop-color="#fe99a0"/><stop offset=".593" stop-color="#fe646f"/><stop offset="1" stop-color="#e41f2d"/></linearGradient><linearGradient id="SVGID_12_" gradientUnits="userSpaceOnUse" x1="95.434" x2="410.493" xlink:href="#lg4" y1="350.353" y2="350.353"/><linearGradient id="SVGID_13_" gradientUnits="userSpaceOnUse" x1="95.434" x2="410.493" xlink:href="#lg4" y1="264.113" y2="264.113"/><linearGradient id="SVGID_14_" gradientUnits="userSpaceOnUse" x1="145.333" x2="319" xlink:href="#lg4" y1="358.001" y2="358.001"/><linearGradient id="SVGID_15_" gradientUnits="userSpaceOnUse" x1="145.333" x2="319" xlink:href="#lg4" y1="271.761" y2="271.761"/><linearGradient id="SVGID_16_" gradientUnits="userSpaceOnUse" x1="154.667" x2="303.203" xlink:href="#lg4" y1="357.43" y2="357.43"/><linearGradient id="SVGID_17_" gradientUnits="userSpaceOnUse" x1="154.667" x2="303.203" xlink:href="#lg4" y1="271.19" y2="271.19"/><linearGradient id="SVGID_18_" gradientUnits="userSpaceOnUse" x1="122" x2="232.653" xlink:href="#lg4" y1="337.368" y2="337.368"/><linearGradient id="SVGID_19_" gradientUnits="userSpaceOnUse" x1="122" x2="232.653" xlink:href="#lg4" y1="251.128" y2="251.128"/><g><g><g><path d="m489.87 105.416h-469.74c-11.117 0-20.13-9.013-20.13-20.13 0-11.118 9.013-20.13 20.13-20.13h469.74c11.118 0 20.13 9.013 20.13 20.13 0 11.117-9.013 20.13-20.13 20.13z" fill="url(#SVGID_1_)"/></g><path d="m73.905 65.155h28.613v40.26h-28.613z" fill="url(#SVGID_2_)"/><g><path d="m510 85.281v.01c0 11.11-9.01 20.13-20.13 20.13h-69.85v-40.27h69.85c11.12 0 20.13 9.02 20.13 20.13z" fill="url(#SVGID_3_)"/></g><g><path d="m41.779 137.06h-18.588c-12.808 0-23.191-10.383-23.191-23.191v-57.167c0-12.808 10.383-23.191 23.191-23.191h18.587c12.808 0 23.191 10.383 23.191 23.191v57.167c.001 12.808-10.382 23.191-23.19 23.191z" fill="url(#SVGID_4_)"/><path d="m41.779 33.511h-18.588c-1.09 0-2.161.081-3.212.227 11.287 1.565 19.979 11.247 19.979 22.965v57.167c0 11.718-8.692 21.4-19.979 22.965 1.05.146 2.121.227 3.212.227h18.587c12.808 0 23.191-10.383 23.191-23.191v-57.169c.001-12.808-10.382-23.191-23.19-23.191z" fill="url(#SVGID_5_)"/></g><g><path d="m486.809 137.06h-18.587c-12.808 0-23.191-10.383-23.191-23.191v-57.167c0-12.808 10.383-23.191 23.191-23.191h18.587c12.808 0 23.191 10.383 23.191 23.191v57.167c0 12.808-10.383 23.191-23.191 23.191z" fill="url(#SVGID_6_)"/><path d="m486.809 33.511h-18.587c-1.09 0-2.161.081-3.212.227 11.287 1.565 19.979 11.247 19.979 22.965v57.167c0 11.718-8.692 21.4-19.979 22.965 1.05.146 2.121.227 3.212.227h18.587c12.808 0 23.191-10.383 23.191-23.191v-57.169c0-12.808-10.383-23.191-23.191-23.191z" fill="url(#SVGID_7_)"/></g></g><path d="m99.008 63.708v350.254c0 6.907 5.599 12.505 12.505 12.505h56.35c6.907 0 12.505 5.599 12.505 12.505 0 6.907 5.599 12.505 12.505 12.505h56.35c6.907 0 12.505 5.599 12.505 12.505 0 6.907 5.599 12.505 12.505 12.505h124.25c6.907 0 12.505-5.599 12.505-12.505v-400.274c0-16.677-13.52-30.197-30.197-30.197h-251.586c-16.678 0-30.197 13.52-30.197 30.197z" fill="url(#SVGID_8_)"/><path d="m380.795 33.511h-40.02c16.677 0 30.197 13.52 30.197 30.197v400.276c0 6.906-5.599 12.505-12.505 12.505h40.02c6.907 0 12.505-5.599 12.505-12.505v-400.276c0-16.677-13.519-30.197-30.197-30.197z" fill="url(#SVGID_9_)"/><path d="m192.851 193.026c-6.907 0-12.506 5.599-12.506 12.506v232.965c.005.138.02.274.023.413.184 6.912 5.364 12.569 12.279 12.569h12.709v-245.948c0-6.906-5.599-12.505-12.505-12.505z" fill="url(#SVGID_10_)"/><path d="m261.731 230.542v233.442c0 6.907 5.599 12.505 12.505 12.505h12.506v-245.947c0-6.907-5.599-12.506-12.506-12.506-6.906.001-12.505 5.6-12.505 12.506z" fill="url(#SVGID_11_)"/><path d="m410.99 331.745v49c-23.37 7.39-48.85 3.07-69.37-12.43l-17.83-13.47c-1.02-.76-2.43-.76-3.44 0l-35.66 26.93c-8.48 6.41-18.66 9.61-28.83 9.61s-20.35-3.2-28.84-9.61l-35.65-26.93c-1.01-.76-2.42-.76-3.44 0l-17.82 13.46c-21.03 15.89-47.26 20.03-71.1 11.86v-49.04c3.19 1.09 6.26 2.45 9.18 4.08 11.38 6.32 24.06 5.3 34.8-2.81l17.83-13.46c16.97-12.82 40.69-12.82 57.67 0l35.65 26.93c1.01.76 2.43.76 3.44 0l35.65-26.93c16.98-12.82 40.69-12.82 57.67 0l17.84 13.47c10.74 8.1 23.41 9.12 34.79 2.8 2.39-1.33 4.88-2.48 7.46-3.46z" fill="url(#SVGID_12_)"/><path d="m410.99 245.505v49c-23.37 7.39-48.85 3.07-69.37-12.43l-17.83-13.47c-1.02-.76-2.43-.76-3.44 0l-35.66 26.93c-8.48 6.41-18.66 9.61-28.83 9.61s-20.35-3.2-28.84-9.61l-35.65-26.93c-1.01-.76-2.42-.76-3.44 0l-17.82 13.46c-21.03 15.89-47.26 20.03-71.1 11.86v-49.04c3.19 1.09 6.26 2.45 9.18 4.08 11.38 6.32 24.06 5.3 34.8-2.81l17.83-13.46c16.97-12.82 40.69-12.82 57.67 0l35.65 26.93c1.01.76 2.43.76 3.44 0l35.65-26.93c16.98-12.82 40.69-12.82 57.67 0l17.84 13.46c10.74 8.11 23.41 9.13 34.79 2.81 2.39-1.33 4.88-2.48 7.46-3.46z" fill="url(#SVGID_13_)"/><path d="m410.99 331.745v49c-13.09 4.14-26.84 4.6-40.02 1.48v-48.26c10.24 6.65 21.96 7.13 32.56 1.24 2.39-1.33 4.88-2.48 7.46-3.46z" fill="url(#SVGID_14_)"/><path d="m410.99 245.505v49c-13.09 4.14-26.84 4.6-40.02 1.48v-48.27c10.24 6.66 21.96 7.14 32.56 1.25 2.39-1.33 4.88-2.48 7.46-3.46z" fill="url(#SVGID_15_)"/><path d="m286.74 323.835v56.39l-2.05 1.55c-6.85 5.17-14.8 8.26-22.96 9.25v-48.29z" fill="url(#SVGID_16_)"/><path d="m286.74 237.595v56.39l-2.05 1.55c-6.85 5.17-14.8 8.26-22.96 9.25v-48.29z" fill="url(#SVGID_17_)"/><path d="m205.36 311.955v53.46l-13.99-10.57c-1.01-.76-2.42-.76-3.44 0l-7.58 5.73v-50.35c8.31-1.63 16.96-1.06 25.01 1.73z" fill="url(#SVGID_18_)"/><path d="m205.36 225.715v53.46l-13.99-10.57c-1.01-.76-2.42-.76-3.44 0l-7.58 5.73v-50.35c8.31-1.63 16.96-1.06 25.01 1.73z" fill="url(#SVGID_19_)"/></g></svg>