<svg id="Capa_1" enable-background="new 0 0 510 510" height="512" viewBox="0 0 510 510" width="512" xmlns="http://www.w3.org/2000/svg" xmlns:xlink="http://www.w3.org/1999/xlink"><linearGradient id="lg1"><stop offset="0" stop-color="#a79ba7"/><stop offset=".7487" stop-color="#7a6d79"/><stop offset="1" stop-color="#685e68"/></linearGradient><linearGradient id="SVGID_1_" gradientUnits="userSpaceOnUse" x1="87.32" x2="422.68" xlink:href="#lg1" y1="125.142" y2="125.142"/><linearGradient id="SVGID_2_" gradientUnits="userSpaceOnUse" x1="66" x2="180.004" xlink:href="#lg1" y1="186.516" y2="186.516"/><linearGradient id="lg2"><stop offset="0" stop-color="#685e68"/><stop offset="1" stop-color="#433f43"/></linearGradient><linearGradient id="SVGID_3_" gradientUnits="userSpaceOnUse" x1="366" x2="433.268" xlink:href="#lg2" y1="186.516" y2="186.516"/><linearGradient id="SVGID_4_" gradientUnits="userSpaceOnUse" x1=".476" x2="531.5" xlink:href="#lg1" y1="311.625" y2="311.625"/><linearGradient id="SVGID_5_" gradientUnits="userSpaceOnUse" x1="136.034" x2="424.398" xlink:href="#lg1" y1="311.625" y2="311.625"/><linearGradient id="SVGID_6_" gradientUnits="userSpaceOnUse" x1="-79.946" x2="314.623" xlink:href="#lg1" y1="329.833" y2="329.833"/><linearGradient id="SVGID_7_" gradientUnits="userSpaceOnUse" x1="272" x2="422.213" xlink:href="#lg2" y1="329.833" y2="329.833"/><linearGradient id="SVGID_8_" gradientUnits="userSpaceOnUse" x1="178.403" x2="347.744" xlink:href="#lg2" y1="311.51" y2="311.51"/><linearGradient id="SVGID_9_" gradientUnits="userSpaceOnUse" x1="178.403" x2="347.744" xlink:href="#lg2" y1="347.461" y2="347.461"/><g><path d="m394.737 250.284-34.088-7.938 24.853-106.73c5.709-24.515.007-49.882-15.644-69.596-15.651-19.713-39.063-31.02-64.235-31.02h-101.246c-25.172 0-48.584 11.307-64.235 31.021-15.65 19.714-21.353 45.081-15.644 69.595l24.853 106.73-34.088 7.938-24.853-106.73c-8.146-34.977-.01-71.168 22.319-99.295 22.331-28.127 55.735-44.259 91.648-44.259h101.246c35.913 0 69.317 16.132 91.647 44.259 22.329 28.127 30.465 64.318 22.319 99.295z" fill="url(#SVGID_1_)"/><path d="m115.263 250.284 34.088-7.938-24.853-106.73c-.996-4.275-1.636-8.576-1.945-12.868-11.068 7.686-21.438 16.304-30.992 25.748z" fill="url(#SVGID_2_)"/><path d="m418.439 148.497c-9.554-9.445-19.924-18.063-30.991-25.748-.309 4.292-.95 8.593-1.946 12.868l-24.853 106.73 34.088 7.938z" fill="url(#SVGID_3_)"/><path d="m487.5 345.751c0 128.406-104.094 164.249-232.5 164.249s-232.5-35.843-232.5-164.249 104.094-232.5 232.5-232.5 232.5 104.094 232.5 232.5z" fill="url(#SVGID_4_)"/><path d="m255 113.251c-6.742 0-13.413.304-20.01.866 119.036 10.149 212.49 109.97 212.49 231.634s-93.454 160.223-212.49 163.938c6.597.206 13.268.311 20.01.311 128.406 0 232.5-35.843 232.5-164.249s-104.094-232.5-232.5-232.5z" fill="url(#SVGID_5_)"/><circle cx="255" cy="329.833" fill="url(#SVGID_6_)" r="125.415"/><path d="m255 204.418c-4.221 0-8.392.212-12.505.619 63.393 6.276 112.91 59.752 112.91 124.796s-49.517 118.52-112.91 124.796c4.114.407 8.285.619 12.505.619 69.265 0 125.415-56.15 125.415-125.415s-56.15-125.415-125.415-125.415z" fill="url(#SVGID_7_)"/><g><path d="m222.521 302.392 28.483-35.778c1.39-1.91 1.737-3.821 1.737-5.21 0-6.774-9.031-13.894-15.978-13.894-2.78 0-5.211 1.042-7.121 3.821l-32.478 46.025v-41.683c0-5.732-6.774-8.163-13.546-8.163-6.774 0-13.547 2.431-13.547 8.163v110.459c0 5.558 6.773 8.337 13.547 8.337 6.773 0 13.546-2.779 13.546-8.337v-31.435l7.295-9.379 29.699 45.156c2.257 3.648 5.731 5.037 9.378 5.037 7.816 0 16.326-6.773 16.326-13.546 0-1.563-.521-3.127-1.389-4.516z" fill="url(#SVGID_8_)"/><path d="m288.521 352.237c0-.695.173-1.389.694-2.258 3.126.695 6.6 1.042 10.421 1.042 21.189 0 36.124-12.331 36.124-29.004v-2.606c0-6.6-2.257-12.504-6.6-17.194 2.432-2.431 5.385-4.342 7.469-6.253 1.736-1.563 2.779-3.3 2.779-5.21 0-3.127-3.821-7.99-10.247-7.99-2.953 0-5.731 2.084-9.9 12.157-5.384-2.605-12.157-4.168-19.625-4.168-21.363 0-35.605 11.81-35.605 28.657v2.606c0 9.031 4.169 16.846 11.289 22.057-5.211 3.821-8.858 7.642-8.858 14.068 0 5.21 2.432 8.51 6.253 10.768-6.774 3.821-11.637 9.726-11.637 18.063 0 16.152 18.932 25.183 39.6 25.183 19.278 0 39.251-7.816 39.251-28.31.001-32.823-51.408-22.055-51.408-31.608zm1.563-32.825c0-7.121 3.474-13.025 9.726-13.025 6.427 0 9.9 5.905 9.9 13.025v2.606c0 7.816-3.648 13.373-9.727 13.373-6.425 0-9.899-5.906-9.899-13.547zm10.074 75.724c-6.948 0-13.721-3.821-13.721-10.941 0-4.169 2.258-7.99 6.947-10.421 10.769 1.216 20.495 2.779 20.495 10.768-.001 6.599-6.775 10.594-13.721 10.594z" fill="url(#SVGID_9_)"/></g></g></svg>