<svg id="Capa_1" enable-background="new 0 0 510 510" height="512" viewBox="0 0 510 510" width="512" xmlns="http://www.w3.org/2000/svg" xmlns:xlink="http://www.w3.org/1999/xlink"><linearGradient id="SVGID_1_" gradientUnits="userSpaceOnUse" x1="55.127" x2="449.753" y1="255" y2="255"><stop offset="0" stop-color="#01d0fb"/><stop offset=".6075" stop-color="#26a6fe"/><stop offset="1" stop-color="#0182fc"/></linearGradient><linearGradient id="lg1"><stop offset="0" stop-color="#01bffa"/><stop offset=".2393" stop-color="#19a4fb"/><stop offset=".75" stop-color="#4970fe"/><stop offset="1" stop-color="#5b5cff"/></linearGradient><linearGradient id="SVGID_2_" gradientUnits="userSpaceOnUse" x1="118" x2="344.535" xlink:href="#lg1" y1="63.588" y2="63.588"/><linearGradient id="SVGID_3_" gradientUnits="userSpaceOnUse" x1="199.12" x2="431.686" xlink:href="#lg1" y1="255" y2="255"/><linearGradient id="SVGID_4_" gradientUnits="userSpaceOnUse" x1="80.388" x2="425.139" y1="258.928" y2="258.928"><stop offset="0" stop-color="#f8f6f7"/><stop offset=".1788" stop-color="#f8f6f7"/><stop offset="1" stop-color="#e7e6f5"/></linearGradient><linearGradient id="lg2"><stop offset="0" stop-color="#f8f6f7"/><stop offset="1" stop-color="#d1ceeb"/></linearGradient><linearGradient id="SVGID_5_" gradientUnits="userSpaceOnUse" x1="118" x2="344.535" xlink:href="#lg2" y1="66.6" y2="66.6"/><linearGradient id="SVGID_6_" gradientUnits="userSpaceOnUse" x1="204" x2="337.06" y1="59.658" y2="59.658"><stop offset="0" stop-color="#ffd15b"/><stop offset="1" stop-color="#eca026"/></linearGradient><linearGradient id="lg3"><stop offset="0" stop-color="#fff9df"/><stop offset=".593" stop-color="#ffe177"/><stop offset="1" stop-color="#feb137"/></linearGradient><linearGradient id="SVGID_7_" gradientUnits="userSpaceOnUse" x1="165.997" x2="360.537" xlink:href="#lg3" y1="31.816" y2="31.816"/><linearGradient id="SVGID_8_" gradientUnits="userSpaceOnUse" x1="147.789" x2="316.114" xlink:href="#lg3" y1="31.816" y2="31.816"/><linearGradient id="SVGID_9_" gradientUnits="userSpaceOnUse" x1="190.12" x2="394.132" xlink:href="#lg2" y1="259.049" y2="259.049"/><linearGradient id="SVGID_10_" gradientUnits="userSpaceOnUse" x1="131.384" x2="378.616" xlink:href="#lg3" y1="354.225" y2="354.225"/><linearGradient id="SVGID_11_" gradientUnits="userSpaceOnUse" x1="130.738" x2="262.014" y1="220.966" y2="220.966"><stop offset="0" stop-color="#fe99a0"/><stop offset=".593" stop-color="#fe646f"/><stop offset="1" stop-color="#e41f2d"/></linearGradient><linearGradient id="SVGID_12_" gradientUnits="userSpaceOnUse" x1="97.782" x2="243.837" xlink:href="#lg2" y1="205.8" y2="205.8"/><linearGradient id="SVGID_13_" gradientUnits="userSpaceOnUse" x1="97.782" x2="243.837" xlink:href="#lg2" y1="236.131" y2="236.131"/><g><path d="m80 478.077v-446.154c0-17.631 14.292-31.923 31.923-31.923h286.154c17.631 0 31.923 14.292 31.923 31.923v446.154c0 17.63-14.292 31.923-31.923 31.923h-286.154c-17.631 0-31.923-14.292-31.923-31.923z" fill="url(#SVGID_1_)"/><path d="m332.524 25.793h-133.117c-10.994 0-19.907 8.913-19.907 19.907 0 7.775 4.467 14.491 10.966 17.768v9.011c0 15.938 12.966 28.904 28.904 28.904h93.191c15.938 0 28.904-12.966 28.904-28.904v-9.011c6.498-3.277 10.966-9.993 10.966-17.768 0-10.994-8.912-19.907-19.907-19.907zm-26.835 60.591h-86.319c-7.679 0-13.904-6.225-13.904-13.904v-6.873h121c0 11.475-9.302 20.777-20.777 20.777z" fill="url(#SVGID_2_)"/><path d="m398.077 0h-40.02c17.63 0 31.923 14.292 31.923 31.923v446.155c0 17.63-14.292 31.923-31.923 31.923h40.02c17.63 0 31.923-14.292 31.923-31.923v-446.155c0-17.631-14.292-31.923-31.923-31.923z" fill="url(#SVGID_3_)"/><path d="m102.117 457.881v-397.906c0-15.552 12.607-28.159 28.159-28.159h249.449c15.552 0 28.159 12.607 28.159 28.159v397.906c0 15.552-12.607 28.159-28.159 28.159h-249.449c-15.552-.001-28.159-12.608-28.159-28.159z" fill="url(#SVGID_4_)"/><path d="m179.5 45.7c0 7.775 4.467 14.491 10.966 17.768v9.011c0 15.938 12.966 28.904 28.904 28.904h93.191c15.938 0 28.904-12.966 28.904-28.904v-9.011c6.498-3.277 10.966-9.993 10.966-17.768 0-5.404-2.161-10.297-5.656-13.884h-161.62c-3.494 3.587-5.655 8.48-5.655 13.884zm25.966 19.907h121c0 11.475-9.302 20.777-20.777 20.777h-86.319c-7.679 0-13.904-6.225-13.904-13.904z" fill="url(#SVGID_5_)"/><g><path d="m301.596 87.5h-93.191c-15.938 0-28.904-12.966-28.904-28.904v-26.78h15v26.779c0 7.667 6.237 13.904 13.904 13.904h93.191c7.667 0 13.904-6.237 13.904-13.904v-26.779h15v26.779c0 15.939-12.966 28.905-28.904 28.905z" fill="url(#SVGID_6_)"/><g><path d="m321.559 51.723h-133.118c-10.994 0-19.907-8.913-19.907-19.907 0-10.994 8.913-19.907 19.907-19.907h133.117c10.994 0 19.907 8.913 19.907 19.907.001 10.995-8.912 19.907-19.906 19.907z" fill="url(#SVGID_7_)"/><path d="m321.559 11.909h-40.02c10.994 0 19.907 8.913 19.907 19.907 0 10.994-8.913 19.907-19.907 19.907h40.02c10.994 0 19.907-8.913 19.907-19.907 0-10.994-8.913-19.907-19.907-19.907z" fill="url(#SVGID_8_)"/></g></g><path d="m389.98 33.751v444.326c0 2.146-.215 4.241-.619 6.268 10.805-3.936 18.522-14.299 18.522-26.465v-397.905c0-11.932-7.425-22.123-17.903-26.224z" fill="url(#SVGID_9_)"/><g><g><path d="m378.616 354.203c0-6.007-4.869-10.876-10.876-10.876h-11.122c-7.22 0-13.584 4.528-16.213 11.537l-8.378 22.333c-1.341 3.575-3.844 5.561-6.845 5.454-3.09-.111-5.6-2.433-6.715-6.211l-24.051-81.518c-2.262-7.665-8.95-12.815-16.642-12.815s-14.38 5.15-16.641 12.815l-28.91 97.985-19.787-67.065c-3.778-12.807-14.312-21.374-26.835-21.825-12.416-.447-23.408 7.239-28.037 19.581l-4.624 12.327c-1.67 4.452-5.926 7.401-10.681 7.401-6.007 0-10.876 4.869-10.876 10.876v.045c0 6.007 4.869 10.876 10.876 10.876h11.122c7.22 0 13.584-4.528 16.214-11.536l8.378-22.333c1.341-3.574 3.829-5.577 6.845-5.454 3.09.111 5.6 2.433 6.715 6.211l24.051 81.517c2.261 7.665 8.949 12.816 16.641 12.816s14.38-5.15 16.641-12.816l28.91-97.985 19.786 67.064c3.778 12.807 14.312 21.374 26.836 21.825 12.385.45 23.407-7.239 28.036-19.58l4.625-12.328c1.67-4.452 5.926-7.401 10.681-7.401 6.007 0 10.876-4.869 10.876-10.876z" fill="url(#SVGID_10_)"/></g><g><path d="m204.331 177.076-5.487 5.487c-1.099 1.099-2.88 1.099-3.979 0l-5.487-5.487c-13.267-13.267-34.777-13.267-48.044 0-13.267 13.267-13.267 34.777 0 48.044l45.559 45.559c5.501 5.501 14.421 5.501 19.922 0l45.559-45.559c13.267-13.267 13.267-34.777 0-48.044-13.265-13.267-34.776-13.267-48.043 0z" fill="url(#SVGID_11_)"/><g><path d="m371.116 213.3h-86.606c-4.142 0-7.5-3.358-7.5-7.5s3.358-7.5 7.5-7.5h86.606c4.142 0 7.5 3.358 7.5 7.5s-3.358 7.5-7.5 7.5z" fill="url(#SVGID_12_)"/><path d="m337.782 243.631h-53.272c-4.142 0-7.5-3.358-7.5-7.5s3.358-7.5 7.5-7.5h53.272c4.142 0 7.5 3.358 7.5 7.5s-3.358 7.5-7.5 7.5z" fill="url(#SVGID_13_)"/></g></g></g></g></svg>