<svg id="Capa_1" enable-background="new 0 0 510.005 510.005" height="512" viewBox="0 0 510.005 510.005" width="512" xmlns="http://www.w3.org/2000/svg" xmlns:xlink="http://www.w3.org/1999/xlink"><linearGradient id="lg1"><stop offset="0" stop-color="#fe646f"/><stop offset=".7043" stop-color="#e41f2d"/><stop offset="1" stop-color="#c41926"/></linearGradient><linearGradient id="SVGID_1_" gradientUnits="userSpaceOnUse" x1="-21.498" x2="208.916" xlink:href="#lg1" y1="157.812" y2="157.812"/><linearGradient id="SVGID_2_" gradientUnits="userSpaceOnUse" x1="154.002" x2="171.221" y1="208.943" y2="208.943"><stop offset="0" stop-color="#c41926"/><stop offset="1" stop-color="#c41926"/></linearGradient><linearGradient id="lg2"><stop offset="0" stop-color="#fe99a0"/><stop offset=".593" stop-color="#fe646f"/><stop offset="1" stop-color="#e41f2d"/></linearGradient><linearGradient id="SVGID_3_" gradientUnits="userSpaceOnUse" x1="-105.956" x2="353.31" xlink:href="#lg2" y1="100.007" y2="100.007"/><linearGradient id="SVGID_4_" gradientUnits="userSpaceOnUse" x1="113.366" x2="344.459" xlink:href="#lg1" y1="100.007" y2="100.007"/><linearGradient id="SVGID_5_" gradientUnits="userSpaceOnUse" x1="-46.497" x2="197.669" xlink:href="#lg2" y1="196.011" y2="196.011"/><linearGradient id="SVGID_6_" gradientUnits="userSpaceOnUse" x1="61.375" x2="245.062" xlink:href="#lg1" y1="232.341" y2="232.341"/><linearGradient id="SVGID_7_" gradientUnits="userSpaceOnUse" x1="95.002" x2="204.556" xlink:href="#lg1" y1="112.729" y2="112.729"/><linearGradient id="lg3"><stop offset="0" stop-color="#fff9df"/><stop offset=".593" stop-color="#ffe177"/><stop offset="1" stop-color="#feb137"/></linearGradient><linearGradient id="SVGID_8_" gradientUnits="userSpaceOnUse" x1="-82.14" x2="308.822" xlink:href="#lg3" y1="346.53" y2="346.53"/><linearGradient id="SVGID_9_" gradientUnits="userSpaceOnUse" x1="14.002" x2="174.255" xlink:href="#lg3" y1="346.53" y2="346.53"/><linearGradient id="SVGID_10_" gradientUnits="userSpaceOnUse" x1="97.002" x2="232.343" xlink:href="#lg2" y1="290.013" y2="290.013"/><linearGradient id="SVGID_11_" gradientUnits="userSpaceOnUse" x1="52.179" x2="533.73" xlink:href="#lg2" y1="281.296" y2="281.296"/><linearGradient id="SVGID_12_" gradientUnits="userSpaceOnUse" x1="300.031" x2="520.886" xlink:href="#lg1" y1="281.296" y2="281.296"/><linearGradient id="SVGID_13_" gradientUnits="userSpaceOnUse" x1="239.067" x2="479.285" xlink:href="#lg3" y1="470.014" y2="470.014"/><linearGradient id="SVGID_14_" gradientUnits="userSpaceOnUse" x1="282.002" x2="439.082" xlink:href="#lg3" y1="470.014" y2="470.014"/><g><g><path d="m222.871.002h-104.256c-52.036 0-94.22 42.184-94.22 94.22v104.256c0 27.709 11.968 52.614 31.012 69.848 13.309 12.044 21.222 28.923 21.222 46.872v.423h188.228v-.423c0-17.95 7.913-34.828 21.222-46.872 19.044-17.235 31.012-42.139 31.012-69.848v-104.256c0-52.036-42.184-94.22-94.22-94.22z" fill="url(#SVGID_1_)"/><path d="m178.956 200.011v17.991h45.046v-18.119z" fill="url(#SVGID_2_)"/><path d="m335.494 114.1v-19.878c0-52.036-44.836-94.22-100.144-94.22h-110.811c-55.308 0-100.144 42.184-100.144 94.22v19.878c0 47.447 40.882 85.911 91.312 85.911h128.474c50.431 0 91.313-38.464 91.313-85.911z" fill="url(#SVGID_3_)"/><path d="m235.35.002h-40.02c55.308 0 100.144 42.184 100.144 94.22 0 0-.016 2.28-.049 5.574-.129 13.117-10.798 23.69-23.916 23.69-45.987 0-84.272 32.948-92.553 76.525h65.226c50.43 0 91.312-38.464 91.312-85.911v-19.878c0-52.036-44.836-94.22-100.144-94.22z" fill="url(#SVGID_4_)"/><path d="m77.225 155.58c-3.901-.777-3.335-6.521.643-6.521h48.624c24.439 0 44.251-19.812 44.251-44.251 0-15.69-12.719-28.409-28.409-28.409h-97.834-8.339c-19.971 0-36.161 16.19-36.161 36.161v49.463c0 58.704 51.589 102.872 55.636 106.511 13.183 11.853 20.993 28.54 20.993 46.268v.821h96.114v-46.051c0-55.437-41.15-103.158-95.518-113.992z" fill="url(#SVGID_5_)"/><g><path d="m77.225 155.58c-3.901-.777-3.335-6.521.643-6.521h-38.736c-3.978 0-4.545 5.744-.643 6.521 54.368 10.834 93.518 58.555 93.518 113.992v46.051h40.736v-46.051c0-55.437-41.15-103.158-95.518-113.992z" fill="url(#SVGID_6_)"/><path d="m142.334 76.399h-38.736c15.69 0 28.409 12.719 28.409 28.409 0 24.439-19.812 44.251-44.251 44.251h38.736c24.439 0 44.251-19.812 44.251-44.251 0-15.69-12.719-28.409-28.409-28.409z" fill="url(#SVGID_7_)"/></g><path d="m267.865 386.519h-194.244c-11.982 0-21.695-9.713-21.695-21.695v-36.587c0-11.982 9.713-21.695 21.695-21.695h194.244c11.982 0 21.695 9.713 21.695 21.695v36.587c0 11.982-9.713 21.695-21.695 21.695z" fill="url(#SVGID_8_)"/><path d="m289.56 364.824v-36.587c0-11.982-9.713-21.695-21.695-21.695h-135.858c3.05 8.405 7.915 16.13 14.359 22.573l51.028 51.028v-.033c1.745 2.22 3.593 4.354 5.525 6.408h64.946c11.982.001 21.695-9.712 21.695-21.694z" fill="url(#SVGID_9_)"/></g><g><path d="m237.414 380.143-51.028-51.028c-11.566-11.566-18.063-27.252-18.063-43.609v-49.463c0-19.971 16.19-36.161 36.161-36.161h32.931v180.261z" fill="url(#SVGID_10_)"/><path d="m415.785 123.486h-104.256c-52.036 0-94.22 42.184-94.22 94.22v104.256c0 27.709 11.968 52.614 31.012 69.848 13.309 12.044 21.222 28.923 21.222 46.872v.423h188.228v-.423c0-17.95 7.913-34.828 21.222-46.872 19.044-17.235 31.012-42.139 31.012-69.848v-104.256c0-52.036-42.184-94.22-94.22-94.22z" fill="url(#SVGID_11_)"/><path d="m415.785 123.486h-40.02c52.036 0 94.22 42.184 94.22 94.22v104.256c0 27.709-11.968 52.614-31.012 69.848-13.309 12.044-21.222 28.922-21.222 46.872v.423h40.02v-.423c0-17.95 7.913-34.828 21.222-46.872 19.044-17.235 31.012-42.139 31.012-69.848v-104.256c0-52.036-42.184-94.22-94.22-94.22z" fill="url(#SVGID_12_)"/><path d="m460.779 510.002h-194.244c-11.982 0-21.695-9.713-21.695-21.695v-36.587c0-11.982 9.713-21.695 21.695-21.695h194.244c11.982 0 21.695 9.713 21.695 21.695v36.587c0 11.982-9.713 21.695-21.695 21.695z" fill="url(#SVGID_13_)"/><path d="m460.779 430.025h-40.02c11.982 0 21.695 9.713 21.695 21.695v36.587c0 11.982-9.713 21.695-21.695 21.695h40.02c11.982 0 21.695-9.713 21.695-21.695v-36.587c0-11.981-9.713-21.695-21.695-21.695z" fill="url(#SVGID_14_)"/></g></g></svg>