<svg id="Capa_1" enable-background="new 0 0 510 510" height="512" viewBox="0 0 510 510" width="512" xmlns="http://www.w3.org/2000/svg" xmlns:xlink="http://www.w3.org/1999/xlink"><linearGradient id="lg1"><stop offset="0" stop-color="#01d0fb"/><stop offset=".6075" stop-color="#26a6fe"/><stop offset="1" stop-color="#0182fc"/></linearGradient><linearGradient id="SVGID_1_" gradientUnits="userSpaceOnUse" x1="66" x2="518.159" xlink:href="#lg1" y1="309.262" y2="309.262"/><linearGradient id="SVGID_2_" gradientUnits="userSpaceOnUse" x1="-137.89" x2="405.085" xlink:href="#lg1" y1="309.262" y2="309.262"/><linearGradient id="lg2"><stop offset="0" stop-color="#01bffa"/><stop offset=".2393" stop-color="#19a4fb"/><stop offset=".75" stop-color="#4970fe"/><stop offset="1" stop-color="#5b5cff"/></linearGradient><linearGradient id="SVGID_3_" gradientUnits="userSpaceOnUse" x1="267.09" x2="581.091" xlink:href="#lg2" y1="309.262" y2="309.262"/><linearGradient id="SVGID_4_" gradientUnits="userSpaceOnUse" x1="-21.005" x2="192.034" xlink:href="#lg1" y1="255" y2="255"/><linearGradient id="SVGID_5_" gradientUnits="userSpaceOnUse" x1="-73.393" x2="153.14" xlink:href="#lg1" y1="255" y2="255"/><linearGradient id="SVGID_6_" gradientUnits="userSpaceOnUse" x1="-185.042" x2="143.11" xlink:href="#lg1" y1="422.363" y2="422.363"/><linearGradient id="SVGID_7_" gradientUnits="userSpaceOnUse" x1="-11.999" x2="187.607" xlink:href="#lg2" y1="422.363" y2="422.363"/><linearGradient id="SVGID_8_" gradientUnits="userSpaceOnUse" x1="-15.338" x2="106.667" xlink:href="#lg2" y1="422.363" y2="422.363"/><g><path d="m478.602 510h-395.533v-401.476h395.533c17.341 0 31.398 14.058 31.398 31.398v338.679c0 17.341-14.058 31.399-31.398 31.399z" fill="url(#SVGID_1_)"/><path d="m215.295 422.363v-313.839h-132.226v389.294c13.063 7.736 28.305 12.182 44.588 12.182 48.401 0 87.638-39.237 87.638-87.637z" fill="url(#SVGID_2_)"/><path d="m478.602 108.524h-40.02c17.341 0 31.398 14.058 31.398 31.398v338.679c0 17.341-14.058 31.398-31.398 31.398h40.02c17.34.001 31.398-14.057 31.398-31.397v-338.68c0-17.34-14.058-31.398-31.398-31.398z" fill="url(#SVGID_3_)"/><g><path d="m87.638 510c-48.401 0-87.638-39.237-87.638-87.637v-334.726c0-48.4 39.237-87.637 87.637-87.637 48.401 0 87.637 39.237 87.637 87.637v334.725c.001 48.401-39.236 87.638-87.636 87.638z" fill="url(#SVGID_4_)"/><path d="m87.638 0c-6.885 0-13.583.796-20.01 2.297 38.758 9.052 67.627 43.824 67.627 85.34v334.725c0 41.516-28.869 76.288-67.627 85.34 6.427 1.501 13.125 2.297 20.01 2.297 48.401 0 87.637-39.237 87.637-87.637v-334.725c0-48.4-39.237-87.637-87.637-87.637z" fill="url(#SVGID_5_)"/><path d="m87.638 510c-48.401 0-87.638-39.237-87.638-87.637 0-48.401 39.237-87.637 87.637-87.637 48.401 0 87.637 39.237 87.637 87.637.001 48.4-39.236 87.637-87.636 87.637z" fill="url(#SVGID_6_)"/><path d="m87.638 334.725c-6.885 0-13.583.796-20.01 2.297 38.758 9.052 67.627 43.824 67.627 85.34s-28.869 76.288-67.627 85.34c6.427 1.501 13.125 2.297 20.01 2.297 48.401 0 87.637-39.237 87.637-87.637s-39.237-87.637-87.637-87.637z" fill="url(#SVGID_7_)"/></g><path d="m87.638 470.058c-26.342 0-47.696-21.354-47.696-47.696 0-26.342 21.354-47.696 47.696-47.696 26.342 0 47.696 21.354 47.696 47.696-.001 26.342-21.355 47.696-47.696 47.696z" fill="url(#SVGID_8_)"/></g></svg>