<svg xmlns="http://www.w3.org/2000/svg" xmlns:xlink="http://www.w3.org/1999/xlink" version="1.1" x="0px" y="0px" viewBox="0 0 100 100" enable-background="new 0 0 100 100" xml:space="preserve"><g display="none"><g display="inline"><path d="M29.366,55.336V32.555h4.729v8.686h8.856v-8.686h4.729v22.781h-4.729V45.167h-8.856v10.169H29.366z"></path><path d="M65.605,33.049c1.598,0.525,2.892,1.489,3.883,2.891c0.793,1.133,1.334,2.359,1.624,3.678    c0.288,1.319,0.433,2.576,0.433,3.771c0,3.03-0.607,5.595-1.824,7.696c-1.653,2.834-4.198,4.251-7.643,4.251h-9.821V32.555h9.821    C63.49,32.575,64.665,32.74,65.605,33.049z M56.876,36.511v14.868h4.396c2.252,0,3.82-1.107,4.708-3.322    c0.484-1.215,0.728-2.664,0.728-4.343c0-2.318-0.365-4.099-1.092-5.34c-0.728-1.241-2.174-1.862-4.344-1.862H56.876z"></path></g><rect x="2" y="16" display="inline" fill="none" stroke="#000000" stroke-width="4" stroke-miterlimit="10" width="96" height="55"></rect><rect x="43" y="73" display="inline" width="14" height="6"></rect><rect x="32" y="79" display="inline" width="36" height="5"></rect></g><g><g><path d="M25.45,35.378c-3.162,0-5.941,1.624-7.559,4.081c0.312-0.162,0.66-0.262,1.035-0.262c1.25,0,2.265,1.015,2.265,2.265    c0,1.25-1.014,2.265-2.265,2.265c-1.06,0-1.943-0.731-2.189-1.715c-0.213,0.771-0.336,1.578-0.336,2.416    c0,4.997,4.052,9.049,9.049,9.049c4.998,0,9.049-4.052,9.049-9.049C34.5,39.429,30.448,35.378,25.45,35.378z"></path></g><g><path d="M83.196,42.012c-0.247,0.983-1.129,1.714-2.188,1.714c-1.251,0-2.265-1.014-2.265-2.265c0-1.25,1.014-2.265,2.265-2.265    c0.375,0,0.723,0.1,1.033,0.261c-1.618-2.456-4.396-4.08-7.558-4.08c-4.997,0-9.05,4.051-9.05,9.049    c0,4.997,4.053,9.049,9.05,9.049s9.049-4.052,9.049-9.049C83.532,43.589,83.409,42.782,83.196,42.012z"></path><path fill="#000000" d="M83.196,42.012c0.045-0.177,0.075-0.359,0.075-0.55"></path><path fill="#000000" d="M82.041,39.458"></path></g><path fill="#000000" d="M49.967,82.666c-5.319,0-8.09-5.439-13.048-5.22C12.197,78.545,0.934,65.38,0.934,47.642   c0-13.047,12.636-22.937,12.636-22.937S3.956,11.52,9.449,7.674c3.685-2.524,16.402,8.09,22.8,8.516   c8.404,0.558,10.902-1.373,17.718-1.373 M24.9,32.34c-6.978,0-12.635,5.657-12.635,12.636c0,6.979,5.657,12.635,12.635,12.635   c6.979,0,12.637-5.656,12.637-12.635C27.367,34.309,31.013,37.891,24.9,32.34z M49.967,14.816c6.816,0,9.314,1.931,17.718,1.373   c6.398-0.426,19.114-11.04,22.801-8.516c5.494,3.846-4.121,17.031-4.121,17.031S99,34.594,99,47.642   c0,17.738-11.262,30.903-35.984,29.805c-4.959-0.22-7.73,5.22-13.049,5.22 M62.396,44.976c0,6.979,5.657,12.635,12.637,12.635   c6.979,0,12.635-5.656,12.635-12.635c0-6.979-5.656-12.636-12.635-12.636C68.921,37.891,72.566,34.309,62.396,44.976z    M56.193,48.97c-2.892,2.891-3.939,3.988-6.227,3.988c-2.287,0-3.335-1.097-6.227-3.988c-0.96-0.96-1.919,6.608-0.229,10.894   c0.468,1.19,6.455,8.699,6.455,8.699s5.986-7.509,6.456-8.699C58.112,55.578,57.154,48.01,56.193,48.97z"></path></g></svg>