<svg xmlns="http://www.w3.org/2000/svg" xmlns:xlink="http://www.w3.org/1999/xlink" version="1.1" x="0px" y="0px" viewBox="0 0 100 100" enable-background="new 0 0 100 100" xml:space="preserve"><path d="M56.669,61.758c0.477,0.336,1.242,0.846,2.459,1.617c3.271,2.072,4.072-0.699,4.072-0.699  c2.16,1.617,3.455-0.078,3.455-0.078c2.717,0.434,2.842-1.111,2.842-1.111c2.344,0.369,2.592-1.729,2.592-1.729  c2.037,0.064,1.912-1.973,1.912-1.973c1.852-0.188,1.914-2.039,1.914-2.039c2.037-0.432,2.1-2.344,2.1-2.344  c1.482-0.125,2.035-1.791,2.035-1.791c2.531,0.371,2.84-1.729,2.84-1.729c2.654,0.125,3.023-1.48,3.023-1.48  c3.271-0.556,2.717-2.407,2.717-2.407c2.531-0.247,2.982-0.556,3.723-1.584c0.74-1.028-2.881-2.386-2.881-2.386  s5.555,1.068,5.516-0.741c-0.043-1.811-5.307-3.128-5.307-3.128s5.141-0.287,5.1-1.646c-0.041-1.358-6.334-1.852-6.334-1.852  s6.541,0.576,6.541-1.605c0-2.003-7.357-1.541-8.547-1.454c1.1-0.085,7.416-0.665,7.229-2.619c-0.205-2.14-9.422,0.328-9.422,0.328  s7.365-2.386,5.965-3.744c-1.398-1.358-10.254,3.147-10.254,3.147s5.123-3.425,3.734-4.566c-1.391-1.142-10.846,8.067-12.838,10.06  c-1.266,1.265,0.586-2.994,0.586-2.994c-4.906,4.683-10.859,11.122-13.785,14.334c0.189,0.543,0.293,1.12,0.293,1.721  c0,0.079,0,0.231,0,0.231c0,0.463-0.021,0.903-0.059,1.322l0.242,3.042c0.078,0.969,0.088,1.838,0.088,1.838v0.293l-0.119,0.188  c0.287,1.621-0.033,3.951-0.076,4.238l-0.213,1.469l-0.35-0.211c-0.23,1.016-0.615,1.766-0.639,1.807  C56.806,61.52,56.753,61.619,56.669,61.758z M83.163,32.601c-5.555,3.085-14.564,9.916-14.564,9.916  C73.905,35.15,83.163,32.601,83.163,32.601z M75.017,42.517c3.703-2.552,8.889-3.373,8.889-3.373  C80.077,41.119,75.017,42.517,75.017,42.517z M77.485,45.893c2.305-1.071,4.773-0.33,4.773-0.33  C81.024,45.645,77.485,45.893,77.485,45.893z M68.599,51.57c4.318-3.499,11.355-2.788,11.355-2.788  C75.14,49.289,68.599,51.57,68.599,51.57z M65.47,54.615c0,0,3.623-0.904,6.01,2.141C71.479,56.756,68.351,54.861,65.47,54.615z   M63.085,56.756c0.109,0,0.219,0.006,0.33,0.016c2.203,0.213,4.441,2.453,4.441,2.453C66.128,58.236,63.085,56.756,63.085,56.756z"></path><path d="M86.44,31.6c-0.104,0.008-0.176,0.013-0.176,0.013S86.337,31.607,86.44,31.6z"></path><path fill="none" d="M86.44,31.6c-0.104,0.008-0.176,0.013-0.176,0.013S86.337,31.607,86.44,31.6z"></path><path d="M86.44,31.6c-0.104,0.008-0.176,0.013-0.176,0.013S86.337,31.607,86.44,31.6z"></path><path fill="none" d="M86.44,31.6c-0.104,0.008-0.176,0.013-0.176,0.013S86.337,31.607,86.44,31.6z"></path><path d="M47.722,48.783c0.453,0,0.82-0.365,0.82-0.817l-0.82-0.819c-0.451,0-0.818,0.367-0.818,0.819S47.271,48.783,47.722,48.783z"></path><path d="M49.968,55.809c0,0,0.021,0.002,0.031,0.002s0.031-0.002,0.031-0.002s6.844,0.434,6.844-8.072c0,0,0-0.132,0-0.2  c0-2.669-2.053-5.019-4.582-5.019c-0.84,0-1.533-0.025-2.293,0.268c-0.762-0.293-1.453-0.268-2.293-0.268  c-2.529,0-4.582,2.35-4.582,5.019c0,0.068,0,0.2,0,0.2C43.124,56.242,49.968,55.809,49.968,55.809z M44.81,48.722  c0-1.677,1.549-3.037,3.459-3.037c0.633,0,1.219,0.162,1.73,0.422c0.512-0.26,1.096-0.422,1.732-0.422  c1.908,0,3.457,1.36,3.457,3.037c0,0.043-0.012,0.082-0.014,0.125h0.014c0,5.344-5.166,5.069-5.166,5.069s-0.016,0.002-0.023,0.002  s-0.023-0.002-0.023-0.002s-5.166,0.275-5.166-5.069h0.014C44.821,48.804,44.81,48.765,44.81,48.722z"></path><polygon points="49.999,51.494 50.03,51.57 50.479,50.492 50.03,50.212 49.999,50.233 49.966,50.212 49.519,50.492 49.968,51.57 "></polygon><path d="M52.276,48.783c0.451,0,0.816-0.365,0.816-0.817s-0.365-0.819-0.816-0.819l-0.82,0.819  C51.456,48.417,51.823,48.783,52.276,48.783z"></path><g><path d="M42.95,58.277l0.41-0.248c-0.082,1.523,0.693,3.006,0.693,3.006s0.609,1.193,1.803,1.811c0,0-0.166,1.973,0.822,4.156   c0,0-0.393,1.141-0.256,1.646c-0.445,0.811,0.258,2.01,0.258,2.01c-0.066-0.748,0.125-1.357,0.303-1.752   c0.109,0.006,0.227,0.012,0.35,0.018c-0.043,0.352,0.008,0.889,0.377,1.646c0,0,0.074-0.934,0.291-1.654   c0.127-0.01,0.256-0.031,0.379-0.059c-0.074,0.416-0.072,1.014,0.359,1.623c0,0,0.039-1.547,0.627-2.242l-0.01,0.002   c0.174-0.275,0.195-0.621,0.133-0.998c-0.115-0.68,0.51-2.287,0.51-2.873c0,0.586,0.625,2.193,0.51,2.873   c-0.063,0.377-0.041,0.723,0.133,0.998l-0.01-0.002c0.586,0.695,0.625,2.242,0.625,2.242c0.434-0.609,0.438-1.207,0.361-1.623   c0.125,0.027,0.25,0.049,0.379,0.059c0.217,0.721,0.293,1.654,0.293,1.654c0.369-0.758,0.418-1.295,0.377-1.646   c0.119-0.006,0.238-0.012,0.348-0.018c0.178,0.395,0.367,1.004,0.303,1.752c0,0,0.703-1.199,0.26-2.01   c0.135-0.506-0.258-1.646-0.258-1.646c0.988-2.184,0.824-4.156,0.824-4.156c1.191-0.617,1.801-1.811,1.801-1.811   s0.775-1.482,0.693-3.006l0.41,0.248c0,0,0.41-2.84,0-4.281l0.182-0.287c0,0-0.008-0.836-0.082-1.766   c-1.336,3.172-3.197,4.605-7.148,4.688c-3.951-0.082-5.813-1.516-7.148-4.688c-0.074,0.93-0.084,1.766-0.084,1.766l0.184,0.287   C42.54,55.438,42.95,58.277,42.95,58.277z"></path><path d="M55.796,62.623c-0.35,0.391-0.762,0.637-0.762,0.637c0.061,2.676-0.92,3.783-0.92,3.783s0.309,0.967,0.309,1.83   c0,0.32-0.059,0.514-0.211,0.637c-0.076,0.727-0.445,1.357-0.471,1.402l-1.1,1.85l0.186-2.146c0.002-0.021,0-0.039,0.002-0.059   c-0.037,0.078-0.057,0.148-0.096,0.229l-0.793,1.631l-0.145-1.809c-0.002-0.021-0.004-0.045-0.006-0.068   c-0.045,0.076-0.074,0.152-0.129,0.227l-0.857,1.213l-0.041-1.484c-0.008-0.309-0.764-1.941-0.764-1.941s-0.758,1.633-0.766,1.941   l-0.039,1.484l-0.857-1.213c-0.055-0.074-0.084-0.15-0.129-0.227c-0.002,0.023-0.004,0.047-0.006,0.068l-0.143,1.809l-0.795-1.631   c-0.039-0.08-0.061-0.15-0.094-0.229c0.002,0.02,0,0.037,0.002,0.059l0.184,2.146l-1.1-1.85c-0.025-0.045-0.395-0.676-0.471-1.402   c-0.15-0.123-0.211-0.316-0.211-0.637c0-0.863,0.309-1.83,0.309-1.83s-0.982-1.107-0.92-3.783c0,0-0.412-0.246-0.762-0.637   c0,0-3.42,4.172-2.803,8.553c0,0,0.295,1.031,1.361,0.617c0,0-0.086,1.564,1.23,1.482c0,0,0.205,1.193,1.605,0.824   c0,0,0.576,1.441,1.852,0.576c0,0,0.328,1.234,1.605,0.451c0,0-0.043,0.824,0.945,0.824s0.945-0.824,0.945-0.824   c1.279,0.783,1.605-0.451,1.605-0.451c1.275,0.865,1.852-0.576,1.852-0.576c1.4,0.369,1.605-0.824,1.605-0.824   c1.316,0.082,1.229-1.482,1.229-1.482c1.068,0.414,1.363-0.617,1.363-0.617C59.216,66.795,55.796,62.623,55.796,62.623z"></path></g><path d="M43.175,61.484c-0.023-0.041-0.408-0.791-0.639-1.807l-0.35,0.211l-0.215-1.469c-0.039-0.287-0.363-2.617-0.074-4.238  l-0.121-0.188l0.002-0.293c0,0,0.012-0.869,0.088-1.838l0.242-3.042c-0.037-0.419-0.059-0.859-0.059-1.322c0,0,0-0.152,0-0.231  c0-0.601,0.104-1.178,0.293-1.721c-2.926-3.212-8.879-9.651-13.785-14.334c0,0,1.854,4.258,0.588,2.994  c-1.994-1.992-11.449-11.202-12.839-10.06c-1.388,1.141,3.735,4.566,3.735,4.566s-8.856-4.506-10.258-3.147  c-1.398,1.358,5.967,3.744,5.967,3.744s-9.217-2.468-9.422-0.328c-0.188,1.954,6.129,2.534,7.229,2.619  c-1.189-0.086-8.545-0.549-8.545,1.454c0,2.181,6.542,1.605,6.542,1.605s-6.296,0.494-6.337,1.852  c-0.041,1.358,5.103,1.646,5.103,1.646s-5.267,1.317-5.308,3.128c-0.041,1.809,5.513,0.741,5.513,0.741s-3.62,1.357-2.88,2.386  c0.74,1.028,1.193,1.337,3.724,1.584c0,0-0.556,1.852,2.716,2.407c0,0,0.371,1.605,3.025,1.48c0,0,0.308,2.1,2.838,1.729  c0,0,0.557,1.666,2.037,1.791c0,0,0.063,1.912,2.099,2.344c0,0,0.062,1.852,1.913,2.039c0,0-0.123,2.037,1.914,1.973  c0,0,0.246,2.098,2.592,1.729c0,0,0.123,1.545,2.838,1.111c0,0,1.297,1.695,3.457,0.078c0,0,0.803,2.771,4.074,0.699  c1.217-0.771,1.98-1.281,2.459-1.617C43.245,61.619,43.19,61.52,43.175,61.484z M31.401,42.517c0,0-9.012-6.83-14.566-9.916  C16.835,32.601,26.093,35.15,31.401,42.517z M16.094,39.144c0,0,5.185,0.821,8.889,3.373C24.982,42.517,19.921,41.119,16.094,39.144  z M17.739,45.563c0,0,2.469-0.741,4.773,0.33C22.513,45.893,18.974,45.645,17.739,45.563z M20.044,48.783  c0,0,7.037-0.711,11.357,2.788C31.401,51.57,24.858,49.289,20.044,48.783z M28.521,56.756c2.387-3.045,6.006-2.141,6.006-2.141  C31.647,54.861,28.521,56.756,28.521,56.756z M32.142,59.225c0,0,2.238-2.24,4.441-2.453c0.111-0.01,0.221-0.016,0.332-0.016  C36.915,56.756,33.87,58.236,32.142,59.225z"></path></svg>