<svg xmlns="http://www.w3.org/2000/svg" xmlns:xlink="http://www.w3.org/1999/xlink" version="1.1" x="0px" y="0px" viewBox="0 0 90 90" style="enable-background:new 0 0 90 90;" xml:space="preserve"><style type="text/css">
	.st0{clip-path:url(#SVGID_2_);}
	.st1{fill:none;}
	.st2{fill:#754C29;}
	.st3{fill:#B9E5FB;}
	.st4{fill:#F386A1;}
	.st5{clip-path:url(#SVGID_4_);}
	.st6{clip-path:url(#SVGID_6_);}
	.st7{fill:#AB794F;}
	.st8{fill:#DEC292;}
	.st9{fill:#FFFFFF;}
	.st10{fill:#231F20;}
	.st11{clip-path:url(#SVGID_8_);}
	.st12{clip-path:url(#SVGID_10_);}
	.st13{fill:#684A3C;}
	.st14{fill:#E6CFA1;}
	.st15{fill:#B5061B;}
	.st16{clip-path:url(#SVGID_12_);}
	.st17{clip-path:url(#SVGID_14_);}
	.st18{clip-path:url(#SVGID_16_);}
	.st19{fill:#F6C9C3;}
	.st20{clip-path:url(#SVGID_18_);}
	.st21{clip-path:url(#SVGID_20_);}
	.st22{clip-path:url(#SVGID_22_);}
	.st23{fill:#5D5D5D;}
	.st24{fill:#48AAA3;}
	.st25{fill:#CAE2AA;}
	.st26{fill:#E26E05;}
	.st27{fill:#444344;}
	.st28{fill:#8DD9DB;}
	.st29{fill:#69352A;}
	.st30{fill:#F7EA79;}
	.st31{fill:#8C493E;}
	.st32{fill:#F7941E;}
	.st33{fill:#FF818B;}
	.st34{fill:#70695B;}
	.st35{fill:#E25059;}
	.st36{fill:#BFD63B;}
	.st37{fill:#589332;}
	.st38{fill:#FCB065;}
	.st39{fill:#726356;}
	.st40{fill:#F7A1A0;}
	.st41{fill:#8E8075;}
	.st42{fill:#FF7B00;}
	.st43{fill:#FEBF02;}
	.st44{fill:#B8D608;}
	.st45{fill:#4BC1A9;}
	.st46{fill:#FDFF1F;}
	.st47{fill:#F9139C;}
	.st48{fill:#79649B;}
	.st49{fill:#FCCDD2;}
	.st50{fill:#8E0654;}
	.st51{fill:#C14266;}
	.st52{fill:#F2728C;}
	.st53{fill:#FABCA8;}
	.st54{fill:#FFEB94;}
	.st55{fill:#F68A50;}
	.st56{fill:#D11E0B;}
	.st57{fill:#F9E280;}
	.st58{fill:#F2270C;}
	.st59{fill:#F15B5D;}
	.st60{fill:#00BBCE;}
	.st61{fill:#D9EEE7;}
	.st62{fill:#858726;}
	.st63{fill:#BAD532;}
	.st64{fill:#FFE800;}
	.st65{fill:#9E1913;}
	.st66{fill:#FFC20E;}
	.st67{fill:#036E7F;}
	.st68{fill:#AFDFE2;}
	.st69{fill:#9B5B36;}
	.st70{fill:#D3AF71;}
	.st71{fill:#952E1F;}
	.st72{fill:#EF4129;}
	.st73{fill:#FBBC9E;}
	.st74{fill:#AF1308;}
	.st75{fill:#E8D9A9;}
	.st76{fill:#6B4B39;}
</style><g><path d="M41.3,38.6c3.7-3.7,3.7-9.7,0-13.4c-3.7-3.7-9.7-3.7-13.4,0c-3.7,3.7-3.7,9.7,0,13.4C31.5,42.3,37.6,42.3,41.3,38.6z    M39.4,36.5c-0.3,0.3-0.7,0.6-1.1,0.9c0.3-0.8,0.2-1.8-0.5-2.4c-0.9-0.9-2.3-0.9-3.1,0c-0.9,0.9-0.9,2.3,0,3.1   c0.1,0.1,0.1,0.1,0.2,0.2c-1.4-0.1-2.8-0.7-3.8-1.7c-2.3-2.3-2.3-6.1,0-8.4c2.3-2.3,6.1-2.3,8.4,0C41.7,30.4,41.7,34.2,39.4,36.5z"></path><path d="M62.1,38.6c3.7-3.7,3.7-9.7,0-13.4c-3.7-3.7-9.7-3.7-13.4,0c-3.7,3.7-3.7,9.7,0,13.4C52.3,42.3,58.3,42.3,62.1,38.6z    M59.6,35.9c-0.3,0.3-0.7,0.6-1.1,0.9c0.3-0.8,0.2-1.8-0.5-2.4c-0.9-0.9-2.3-0.9-3.1,0c-0.9,0.9-0.9,2.3,0,3.1   c0.1,0.1,0.1,0.1,0.2,0.2c-1.4-0.1-2.8-0.7-3.8-1.7c-2.3-2.3-2.3-6.1,0-8.4c2.3-2.3,6.1-2.3,8.4,0C61.9,29.8,61.9,33.6,59.6,35.9z"></path><path d="M74.7,46.9c-0.1-0.3-0.1-0.5-0.2-0.8c-0.1-0.3-0.2-0.6-0.3-0.9c-0.2-0.5-0.4-0.9-0.6-1.4c-0.8-1.4-1.8-2.6-3.2-3.1   c1.4-11.6,0.9-22.9,0.6-28.4C74.1,5.9,75.8,0,75.8,0c-3.3,7.3-18.9,10.9-19,11c0,0,0,0,0,0c-0.3,0.1-0.5,0.1-0.8,0.2   c-0.8,0.2-1.7,0.5-2.5,0.7c-0.3,0.1-0.6,0.2-0.8,0.3c-2.8,1-5.2,2.9-6.8,5.4c-0.2,0.3-0.3,0.5-0.5,0.8c-0.1,0.2-0.2,0.3-0.3,0.5   c-0.1-0.2-0.2-0.3-0.3-0.5c-0.2-0.3-0.3-0.5-0.5-0.8c-1.7-2.4-4.1-4.3-6.8-5.4c-0.3-0.1-0.6-0.2-0.8-0.3c-0.8-0.3-1.7-0.5-2.5-0.7   c-0.3-0.1-0.5-0.1-0.8-0.2c0,0,0,0,0,0c-0.1,0-15.7-3.7-19-11c0,0,1.8,6,5.1,12.6c-0.9,11.3-0.8,20.7,0.1,28.4   c-1,0.6-1.8,1.5-2.4,2.6c-0.2,0.4-0.5,0.9-0.7,1.4c-0.1,0.3-0.2,0.6-0.3,0.9c-0.1,0.2-0.2,0.5-0.2,0.7c-0.4,1.3-0.6,2.7-0.6,4.2   l0,0c-0.5,11,14.4,25.4,14.4,25.4c-1.8-2.3-2.3-5.8-2.2-9.3c2.7,4.1,5.8,6.5,8.5,8c-3.3,1.6-2.3,11.3,3,8c-6.4,4,6.4,11.6,6.3,3.7   c0.1,7.8,12.7,0,6.2-3.9c5.5,3.2,6.2-7.2,2.5-8.2c3.6-2,6.4-5,8.7-8.6c0.1,3.8-0.4,7.8-2.4,10.2c0,0,15.3-14,15-25.1l0,0   C75.2,49.6,75,48.2,74.7,46.9z M21.6,17.3l0.1-4.2l3.6,2.2l3.6,2.2l-3.7,2l-3.7,2L21.6,17.3z M34.5,58c-0.2,0.2-0.3,0.3-0.5,0.4   c-0.2,0.1-0.4,0.2-0.6,0.2c-0.2,0-0.4,0-0.6-0.1c-0.4-0.1-0.7-0.5-0.9-0.8c-0.1-0.2-0.2-0.4-0.2-0.6c0-0.2-0.1-0.4,0-0.7   c0.2,0.3,0.5,0.6,0.7,0.8c0.2,0.2,0.5,0.4,0.7,0.5c0.3,0.1,0.5,0.1,0.9,0.1c0.3,0,0.7-0.2,1-0.3C34.8,57.7,34.6,57.9,34.5,58z    M38.5,63.8c-0.2,0.2-0.3,0.3-0.5,0.4c-0.2,0.1-0.4,0.2-0.6,0.2c-0.2,0-0.4,0-0.6-0.1c-0.4-0.1-0.7-0.5-0.9-0.8   c-0.1-0.2-0.2-0.4-0.2-0.6c0-0.2-0.1-0.4,0-0.7c0.2,0.3,0.5,0.6,0.7,0.8c0.2,0.2,0.5,0.4,0.7,0.5c0.3,0.1,0.5,0.1,0.9,0.1   c0.3,0,0.7-0.2,1-0.3C38.8,63.5,38.6,63.7,38.5,63.8z M43.2,68.9c-0.1,0.2-0.2,0.4-0.4,0.5c-0.2,0.2-0.3,0.3-0.5,0.4   c-0.2,0.1-0.4,0.1-0.6,0.1c-0.4,0-0.8-0.2-1.1-0.5c-0.2-0.2-0.3-0.3-0.4-0.5c-0.1-0.2-0.2-0.4-0.3-0.6c0.3,0.2,0.6,0.4,0.9,0.6   c0.3,0.1,0.6,0.2,0.8,0.2c0.3,0,0.5-0.1,0.8-0.2c0.3-0.1,0.6-0.4,0.9-0.6C43.4,68.5,43.3,68.7,43.2,68.9z M39.8,58.3   c0.3,0.2,0.6,0.4,0.9,0.6c0.3,0.1,0.6,0.2,0.8,0.2c0.3,0,0.5-0.1,0.8-0.2c0.3-0.1,0.6-0.4,0.9-0.6c-0.1,0.2-0.1,0.4-0.2,0.6   c-0.1,0.2-0.2,0.4-0.4,0.5c-0.2,0.2-0.3,0.3-0.5,0.4c-0.2,0.1-0.4,0.1-0.6,0.1c-0.4,0-0.8-0.2-1.1-0.5c-0.1-0.2-0.3-0.3-0.4-0.5   C39.9,58.7,39.8,58.5,39.8,58.3z M46.3,64c-0.1,0.2-0.2,0.4-0.4,0.5c-0.2,0.2-0.3,0.3-0.5,0.4C45.2,65,45,65,44.8,65   c-0.4,0-0.8-0.2-1.1-0.5c-0.2-0.2-0.3-0.3-0.4-0.5c-0.1-0.2-0.2-0.4-0.3-0.6c0.3,0.2,0.6,0.4,0.9,0.6c0.3,0.1,0.6,0.2,0.8,0.2   c0.3,0,0.5-0.1,0.8-0.2c0.3-0.1,0.6-0.4,0.9-0.6C46.5,63.6,46.4,63.8,46.3,64z M49.9,68.9c-0.1,0.2-0.2,0.4-0.4,0.6   c-0.2,0.2-0.3,0.3-0.5,0.4c-0.2,0.1-0.4,0.1-0.6,0.1c-0.4,0-0.8-0.2-1.1-0.6c-0.2-0.2-0.3-0.4-0.4-0.6c-0.1-0.2-0.2-0.4-0.3-0.7   c0.3,0.2,0.6,0.4,0.9,0.6c0.3,0.2,0.6,0.3,0.8,0.3c0.3,0,0.5-0.1,0.8-0.2c0.3-0.2,0.6-0.4,0.9-0.6C50.1,68.5,50,68.7,49.9,68.9z    M49.4,59.5c-0.1-0.2-0.3-0.4-0.4-0.6c-0.1-0.2-0.2-0.4-0.3-0.7c0.3,0.2,0.6,0.4,0.9,0.6c0.3,0.2,0.6,0.3,0.8,0.3   c0.3,0,0.5-0.1,0.8-0.2c0.3-0.2,0.6-0.4,0.9-0.6c-0.1,0.3-0.1,0.5-0.2,0.7c-0.1,0.2-0.2,0.4-0.4,0.6c-0.2,0.2-0.3,0.3-0.5,0.4   c-0.2,0.1-0.4,0.1-0.6,0.1C50.1,60,49.7,59.8,49.4,59.5z M54.3,63.4c-0.1,0.2-0.2,0.4-0.3,0.6c-0.1,0.2-0.3,0.3-0.5,0.5   c-0.2,0.1-0.4,0.2-0.6,0.2c-0.4,0-0.8-0.2-1.2-0.5c-0.2-0.2-0.3-0.3-0.4-0.5c-0.1-0.2-0.2-0.4-0.3-0.7c0.4,0.2,0.7,0.4,1,0.5   c0.3,0.1,0.6,0.2,0.9,0.2c0.3,0,0.5-0.1,0.8-0.3c0.3-0.2,0.5-0.5,0.8-0.7C54.5,62.9,54.4,63.2,54.3,63.4z M59.6,57.8   c-0.1,0.2-0.1,0.5-0.3,0.7c-0.1,0.2-0.3,0.4-0.4,0.5c-0.2,0.1-0.4,0.2-0.6,0.3c-0.4,0.1-0.8-0.1-1.2-0.3c-0.2-0.1-0.3-0.3-0.5-0.5   c-0.1-0.2-0.3-0.4-0.4-0.6c0.4,0.2,0.7,0.3,1,0.4c0.3,0.1,0.6,0.1,0.9,0.1c0.3,0,0.5-0.2,0.8-0.4c0.2-0.2,0.5-0.5,0.8-0.8   C59.7,57.3,59.7,57.6,59.6,57.8z M54,44.8c-2.3,0-4.4-0.5-6.4-1.4L47,44.4l-1.9,3.3l-1.9-3.3l-0.6-1.1c-1.9,0.9-4.1,1.5-6.4,1.5   c-7.7,0-13.9-5.8-13.9-12.9c0-7.1,6.2-12.9,13.9-12.9c3.4,0,6.5,1.1,8.9,3c2.4-1.9,5.5-3,8.9-3c7.7,0,13.9,5.8,13.9,12.9   C67.8,39,61.6,44.8,54,44.8z M64.8,20.3l-3.7-2l3.6-2.2l3.6-2.2l0.1,4.2l0.1,4.2L64.8,20.3z"></path></g></svg>