<?xml version="1.0" encoding="iso-8859-1"?>
<!-- Generator: Adobe Illustrator 19.0.0, SVG Export Plug-In . SVG Version: 6.00 Build 0)  -->
<svg version="1.1" id="Layer_1" xmlns="http://www.w3.org/2000/svg" xmlns:xlink="http://www.w3.org/1999/xlink" x="0px" y="0px"
	 viewBox="0 0 127.667 127.667" style="enable-background:new 0 0 127.667 127.667;" xml:space="preserve">
<g>
	<g>
		<g>
			<circle style="fill:#FFFFFF;" cx="63.833" cy="63.833" r="62.333"/>
		</g>
		<g>
			<path style="fill:#D8E5EA;" d="M63.832,1.5c34.428,0,62.334,27.907,62.334,62.333c0,34.425-27.906,62.334-62.334,62.334"/>
		</g>
		<g>
			<path style="fill:#33363A;" d="M63.833,127.667C28.635,127.667,0,99.031,0,63.833C0,28.635,28.635,0,63.833,0
				c35.198,0,63.834,28.635,63.834,63.833C127.667,99.031,99.031,127.667,63.833,127.667z M63.833,3C30.29,3,3,30.29,3,63.833
				c0,33.544,27.289,60.834,60.832,60.834c33.544,0,60.834-27.29,60.834-60.834C124.667,30.29,97.376,3,63.833,3z"/>
		</g>
	</g>
	<g>
		<path style="fill:#33363A;" d="M59.037,111.449c-0.051,0-0.103-0.002-0.155-0.008c-3.325-0.342-6.618-1.035-9.789-2.06
			c-0.789-0.255-1.221-1.101-0.966-1.889c0.255-0.789,1.104-1.22,1.889-0.966c2.971,0.96,6.057,1.61,9.172,1.93
			c0.824,0.085,1.423,0.821,1.339,1.646C60.447,110.875,59.796,111.449,59.037,111.449z M68.719,111.44
			c-0.758,0-1.409-0.573-1.49-1.344c-0.086-0.824,0.511-1.562,1.335-1.648c3.115-0.327,6.199-0.982,9.167-1.948
			c0.79-0.255,1.635,0.175,1.891,0.962c0.256,0.788-0.174,1.634-0.962,1.891c-3.167,1.031-6.459,1.73-9.783,2.079
			C68.824,111.438,68.771,111.44,68.719,111.44z M40.699,105.521c-0.254,0-0.512-0.065-0.748-0.201
			c-2.886-1.665-5.61-3.641-8.095-5.874c-0.616-0.553-0.667-1.502-0.113-2.118c0.554-0.616,1.502-0.666,2.118-0.113
			c2.33,2.093,4.883,3.945,7.589,5.506c0.718,0.414,0.964,1.331,0.55,2.049C41.722,105.251,41.217,105.521,40.699,105.521z
			 M87.043,105.477c-0.518,0-1.021-0.269-1.299-0.749c-0.416-0.717-0.171-1.635,0.546-2.05c2.702-1.565,5.251-3.422,7.577-5.519
			c0.616-0.555,1.564-0.505,2.118,0.109c0.555,0.615,0.506,1.563-0.109,2.118c-2.481,2.237-5.2,4.218-8.082,5.887
			C87.557,105.411,87.298,105.477,87.043,105.477z M26.365,92.642c-0.462,0-0.919-0.213-1.212-0.615
			c-1.971-2.699-3.66-5.608-5.021-8.648c-0.338-0.756,0-1.643,0.756-1.982c0.756-0.337,1.644,0,1.982,0.756
			c1.275,2.848,2.858,5.575,4.705,8.104c0.489,0.669,0.342,1.608-0.327,2.096C26.981,92.548,26.672,92.642,26.365,92.642z
			 M101.352,92.572c-0.306,0-0.614-0.093-0.881-0.287c-0.67-0.487-0.818-1.425-0.331-2.095c1.842-2.532,3.42-5.263,4.692-8.116
			c0.337-0.757,1.224-1.096,1.981-0.759c0.756,0.337,1.097,1.224,0.759,1.981c-1.357,3.044-3.041,5.958-5.006,8.659
			C102.273,92.358,101.816,92.572,101.352,92.572z M18.491,75.058c-0.693,0-1.315-0.483-1.465-1.188
			c-0.694-3.249-1.048-6.594-1.054-9.943c-0.001-0.828,0.669-1.501,1.498-1.502c0,0,0.001,0,0.002,0c0.827,0,1.499,0.67,1.5,1.498
			c0.005,3.14,0.338,6.276,0.988,9.322c0.173,0.81-0.344,1.607-1.154,1.78C18.7,75.047,18.594,75.058,18.491,75.058z M109.195,74.97
			c-0.103,0-0.207-0.011-0.312-0.033c-0.811-0.171-1.329-0.967-1.158-1.778c0.644-3.046,0.97-6.183,0.97-9.324v-0.179
			c-0.006-0.829,0.66-1.505,1.488-1.512c0.855-0.044,1.505,0.661,1.512,1.488v0.214c0,3.338-0.348,6.684-1.035,9.933
			C110.512,74.485,109.889,74.97,109.195,74.97z M18.456,55.79c-0.102,0-0.205-0.011-0.309-0.032
			c-0.811-0.17-1.331-0.965-1.161-1.775c0.684-3.267,1.716-6.471,3.068-9.522c0.336-0.756,1.221-1.099,1.979-0.764
			c0.757,0.336,1.099,1.222,0.764,1.979c-1.267,2.859-2.234,5.86-2.875,8.921C19.775,55.304,19.151,55.79,18.456,55.79z
			 M109.152,55.514c-0.691,0-1.313-0.481-1.465-1.184c-0.659-3.057-1.645-6.052-2.929-8.902c-0.34-0.755-0.004-1.644,0.751-1.984
			c0.755-0.34,1.644-0.004,1.984,0.751c1.371,3.042,2.422,6.239,3.126,9.501c0.175,0.81-0.34,1.608-1.15,1.783
			C109.363,55.503,109.257,55.514,109.152,55.514z M26.256,38.17c-0.305,0-0.612-0.093-0.878-0.285
			c-0.671-0.486-0.821-1.424-0.335-2.095c1.956-2.701,4.202-5.206,6.675-7.446c0.614-0.557,1.563-0.509,2.119,0.105
			c0.556,0.614,0.509,1.563-0.105,2.119c-2.319,2.1-4.425,4.449-6.259,6.982C27.179,37.955,26.721,38.17,26.256,38.17z
			 M101.247,37.946c-0.461,0-0.917-0.212-1.21-0.613c-1.849-2.521-3.969-4.858-6.301-6.944c-0.617-0.552-0.67-1.5-0.117-2.118
			c0.553-0.617,1.5-0.67,2.118-0.117c2.486,2.225,4.747,4.716,6.719,7.405c0.49,0.668,0.346,1.607-0.322,2.097
			C101.866,37.852,101.555,37.946,101.247,37.946z M40.544,25.236c-0.517,0-1.019-0.267-1.298-0.745
			c-0.417-0.716-0.174-1.634,0.542-2.051c2.888-1.681,5.958-3.06,9.125-4.098c0.785-0.257,1.634,0.17,1.893,0.958
			c0.258,0.787-0.171,1.634-0.958,1.893c-2.968,0.973-5.844,2.265-8.55,3.84C41.06,25.171,40.8,25.236,40.544,25.236z
			 M86.882,25.098c-0.253,0-0.51-0.064-0.746-0.2c-2.716-1.559-5.6-2.834-8.573-3.789c-0.789-0.253-1.223-1.098-0.97-1.887
			s1.102-1.221,1.887-0.97c3.173,1.019,6.252,2.379,9.15,4.043c0.718,0.413,0.966,1.329,0.554,2.048
			C87.907,24.827,87.401,25.098,86.882,25.098z M58.849,19.234c-0.757,0-1.407-0.571-1.49-1.341
			c-0.088-0.824,0.509-1.563,1.333-1.651c3.298-0.352,6.692-0.361,9.995-0.03c0.824,0.083,1.425,0.819,1.342,1.643
			c-0.083,0.824-0.815,1.418-1.643,1.342c-3.098-0.313-6.283-0.303-9.376,0.028C58.956,19.231,58.902,19.234,58.849,19.234z"/>
	</g>
	<g>
		<path style="fill:#33363A;" d="M59.102,98.51c-0.07,0-0.141-0.005-0.212-0.015c-3.309-0.468-6.527-1.407-9.564-2.792
			c-0.753-0.344-1.086-1.233-0.742-1.987c0.344-0.753,1.233-1.087,1.987-0.742c2.775,1.265,5.715,2.124,8.739,2.551
			c0.82,0.116,1.391,0.875,1.275,1.695C60.479,97.969,59.837,98.51,59.102,98.51z M68.631,98.5c-0.734,0-1.375-0.539-1.483-1.287
			c-0.118-0.82,0.452-1.58,1.272-1.698c3.022-0.434,5.96-1.298,8.733-2.568c0.752-0.345,1.643-0.014,1.988,0.739
			c0.345,0.753,0.014,1.643-0.739,1.988c-3.034,1.39-6.25,2.335-9.557,2.81C68.773,98.496,68.702,98.5,68.631,98.5z M41.925,90.689
			c-0.348,0-0.697-0.12-0.98-0.365c-2.527-2.185-4.726-4.713-6.536-7.514c-0.45-0.696-0.25-1.624,0.446-2.074
			c0.694-0.45,1.623-0.251,2.074,0.446c1.655,2.562,3.667,4.874,5.978,6.873c0.627,0.542,0.695,1.489,0.154,2.116
			C42.764,90.513,42.346,90.689,41.925,90.689z M85.791,90.646c-0.419,0-0.837-0.175-1.133-0.517
			c-0.543-0.626-0.476-1.573,0.149-2.116c2.308-2.003,4.314-4.319,5.965-6.884c0.448-0.697,1.376-0.897,2.073-0.45
			c0.697,0.448,0.898,1.376,0.45,2.073c-1.805,2.805-3.999,5.337-6.521,7.527C86.49,90.526,86.14,90.646,85.791,90.646z
			 M31.689,74.833c-0.648,0-1.246-0.423-1.438-1.076c-0.941-3.188-1.421-6.503-1.427-9.855c-0.001-0.828,0.669-1.501,1.498-1.502
			c0,0,0.001,0,0.002,0c0.827,0,1.499,0.67,1.5,1.498c0.005,3.066,0.444,6.098,1.304,9.012c0.235,0.794-0.219,1.628-1.014,1.863
			C31.973,74.813,31.83,74.833,31.689,74.833z M95.996,74.77c-0.14,0-0.281-0.02-0.422-0.061c-0.795-0.233-1.251-1.066-1.018-1.861
			c0.854-2.915,1.286-5.947,1.286-9.014l0-0.136c0-0.829,0.671-1.5,1.5-1.5s1.5,0.671,1.5,1.5l0,0.12
			c0,3.369-0.474,6.685-1.407,9.873C97.244,74.345,96.645,74.77,95.996,74.77z M31.654,55.96c-0.139,0-0.279-0.02-0.419-0.06
			c-0.796-0.231-1.253-1.063-1.022-1.859c0.931-3.202,2.317-6.253,4.122-9.07c0.447-0.699,1.374-0.901,2.072-0.454
			c0.698,0.447,0.901,1.375,0.454,2.072c-1.649,2.575-2.917,5.363-3.767,8.289C32.903,55.534,32.304,55.96,31.654,55.96z
			 M95.957,55.768c-0.647,0-1.244-0.421-1.438-1.073c-0.868-2.92-2.152-5.701-3.817-8.266c-0.451-0.695-0.253-1.624,0.442-2.075
			c0.694-0.45,1.624-0.253,2.075,0.442c1.821,2.806,3.226,5.848,4.176,9.044c0.236,0.794-0.216,1.629-1.011,1.865
			C96.242,55.748,96.099,55.768,95.957,55.768z M41.826,40.063c-0.418,0-0.834-0.174-1.131-0.514
			c-0.544-0.625-0.479-1.572,0.145-2.117c2.521-2.198,5.334-4.019,8.36-5.413c0.751-0.347,1.643-0.018,1.99,0.735
			c0.347,0.752,0.018,1.643-0.735,1.99c-2.767,1.274-5.338,2.94-7.644,4.95C42.527,39.941,42.176,40.063,41.826,40.063z
			 M85.689,39.931c-0.347,0-0.695-0.12-0.979-0.364c-2.316-1.996-4.898-3.646-7.674-4.904c-0.754-0.342-1.088-1.231-0.747-1.986
			c0.342-0.754,1.23-1.088,1.986-0.747c3.036,1.377,5.859,3.181,8.393,5.364c0.627,0.541,0.698,1.488,0.157,2.115
			C86.529,39.754,86.11,39.931,85.689,39.931z M58.965,32.173c-0.733,0-1.374-0.538-1.482-1.284c-0.119-0.82,0.449-1.581,1.269-1.7
			c3.273-0.477,6.679-0.486,9.955-0.03c0.82,0.114,1.393,0.872,1.279,1.693c-0.114,0.82-0.868,1.39-1.693,1.279
			c-2.997-0.418-6.115-0.408-9.109,0.027C59.11,32.168,59.037,32.173,58.965,32.173z"/>
	</g>
	<g>
		<path style="fill:#D60909;" d="M73.385,53.032L30.276,26.097c-1.198-0.748-2.752-0.57-3.752,0.428
			c-0.997,0.997-1.176,2.553-0.426,3.751l26.934,43.109c0.555,0.887,1.527,1.425,2.574,1.425l16.172-0.002
			c0.836,0,1.596-0.338,2.145-0.887c0.549-0.549,0.887-1.309,0.887-2.144l0.002-16.172C74.809,54.558,74.272,53.587,73.385,53.032z"
			/>
	</g>
	<g>
		<path style="fill:#FF1A1A;" d="M26.098,30.275l26.934,43.109c0.555,0.887,1.527,1.425,2.574,1.425l16.172-0.002
			c0.836,0,1.596-0.338,2.145-0.887L26.524,26.524C25.527,27.521,25.348,29.077,26.098,30.275z"/>
	</g>
	<g>
		<path style="fill:#AAC8D1;" d="M53.702,74.157c0.172,0.18,0.365,0.34,0.58,0.477l43.109,26.935
			c1.199,0.749,2.752,0.57,3.752-0.428c0.998-0.998,1.176-2.553,0.426-3.751L74.633,54.281c-0.135-0.216-0.295-0.409-0.477-0.581
			L53.702,74.157z"/>
	</g>
	<g>
		<path style="fill:#D8E5EA;" d="M63.928,63.929l37.215,37.213c0.998-0.998,1.176-2.553,0.426-3.751L74.633,54.281
			c-0.135-0.216-0.295-0.409-0.477-0.581L63.928,63.929z"/>
	</g>
	<path style="fill:#33363A;" d="M102.841,96.596L75.905,53.486c-0.007-0.011-0.017-0.019-0.024-0.03
		c0.065-0.452-0.05-0.924-0.398-1.272c-0.348-0.348-0.82-0.463-1.271-0.398c-0.011-0.008-0.02-0.018-0.031-0.025L31.07,24.824
		c-1.8-1.123-4.104-0.861-5.607,0.64c-1.501,1.501-1.763,3.807-0.637,5.606L51.76,74.18c0.007,0.012,0.018,0.021,0.026,0.032
		c-0.064,0.451,0.052,0.922,0.399,1.27c0.293,0.293,0.677,0.439,1.061,0.439c0.071,0,0.139-0.031,0.21-0.041
		c0.012,0.008,0.02,0.018,0.032,0.026l43.11,26.936c0.745,0.465,1.578,0.693,2.404,0.693c1.167,0,2.323-0.454,3.203-1.333
		C103.705,100.701,103.967,98.395,102.841,96.596z M27.37,29.479c-0.381-0.608-0.292-1.387,0.214-1.894
		c0.509-0.507,1.29-0.597,1.897-0.217L71.76,53.785L53.785,71.76L27.37,29.479z M100.083,100.08
		c-0.509,0.507-1.288,0.597-1.897,0.217L55.906,73.88L73.88,55.907l26.417,42.279C100.678,98.794,100.59,99.574,100.083,100.08z"/>
	<g>
		<circle style="fill:#FFFFFF;" cx="63.832" cy="63.832" r="8.83"/>
	</g>
	<g>
		<path style="fill:#D8E5EA;" d="M55.004,63.833c0-4.875,3.953-8.831,8.828-8.831s8.828,3.956,8.828,8.831"/>
	</g>
	<g>
		<path style="fill:#33363A;" d="M63.833,74.161c-5.695,0-10.328-4.633-10.328-10.328c0-5.697,4.633-10.331,10.328-10.331
			s10.328,4.634,10.328,10.331C74.161,69.528,69.527,74.161,63.833,74.161z M63.833,56.502c-4.041,0-7.328,3.289-7.328,7.331
			c0,4.041,3.288,7.328,7.328,7.328s7.328-3.288,7.328-7.328C71.161,59.791,67.873,56.502,63.833,56.502z"/>
	</g>
</g>
<g>
</g>
<g>
</g>
<g>
</g>
<g>
</g>
<g>
</g>
<g>
</g>
<g>
</g>
<g>
</g>
<g>
</g>
<g>
</g>
<g>
</g>
<g>
</g>
<g>
</g>
<g>
</g>
<g>
</g>
</svg>
