<?xml version="1.0" encoding="iso-8859-1"?>
<!-- Generator: Adobe Illustrator 19.0.0, SVG Export Plug-In . SVG Version: 6.00 Build 0)  -->
<svg version="1.1" id="Layer_1" xmlns="http://www.w3.org/2000/svg" xmlns:xlink="http://www.w3.org/1999/xlink" x="0px" y="0px"
	 viewBox="0 0 126.482 126.482" style="enable-background:new 0 0 126.482 126.482;" xml:space="preserve">
<g>
	<g>
		<g>
			<path style="fill:#00AAFF;" d="M96.118,124.982l27.973-103.688L73.513,51.309v0.002c0.049,7.236-3.611,14.318-10.273,18.271
				s-14.628,3.771-20.956,0.26l-26.658,15.82c15.752,17.014,41.815,21.377,62.544,9.076c0.193-0.115,0.379-0.24,0.57-0.355
				l0.199,1.646L96.118,124.982z"/>
		</g>
		<g>
			<g>
				<g>
					<g>
						<g>
							<path style="fill:#0086FF;" d="M63.239,69.582c-6.662,3.953-14.628,3.771-20.956,0.26L19.398,83.424
								c15.467,9.73,35.728,10.691,52.495,0.74c16.77-9.953,25.635-28.193,24.502-46.432L73.513,51.311
								C73.561,58.547,69.901,65.629,63.239,69.582z"/>
						</g>
					</g>
					<g>
						<g>
							<path style="fill:#00AAFF;" d="M31.635,51.902c-0.049-7.238,3.609-14.318,10.271-18.271
								c6.662-3.953,14.632-3.773,20.958-0.262l26.658-15.822C73.772,0.535,47.707-3.828,26.979,8.475
								C6.252,20.775-2.409,45.742,4.977,67.719L31.635,51.902z"/>
						</g>
						<g>
							<path style="fill:#0086FF;" d="M41.906,33.631c6.662-3.953,14.632-3.773,20.958-0.262l22.885-13.582
								C70.28,10.051,50.021,9.094,33.254,19.045C16.483,28.998,7.616,47.238,8.751,65.479l22.884-13.576
								C31.586,44.664,35.244,37.584,41.906,33.631z"/>
						</g>
						<g>
							<path style="fill:#33363A;" d="M4.977,69.219c-0.176,0-0.353-0.031-0.522-0.094c-0.425-0.158-0.755-0.499-0.899-0.929
								C-4.168,45.219,5.362,19.56,26.214,7.185C47.066-5.19,74.153-1.263,90.623,16.527c0.308,0.333,0.449,0.787,0.384,1.235
								s-0.329,0.843-0.719,1.074L63.63,34.659c-0.458,0.272-1.027,0.28-1.493,0.021c-6.075-3.372-13.534-3.28-19.465,0.24
								c-5.93,3.519-9.584,10.021-9.537,16.972c0.004,0.533-0.276,1.027-0.734,1.3L5.742,69.009
								C5.508,69.148,5.243,69.219,4.977,69.219z M52.529,2.996c-8.527,0-17.104,2.21-24.784,6.769
								C8.637,21.105-0.379,44.284,5.839,65.463l24.307-14.421c0.245-7.682,4.401-14.788,10.995-18.701
								c6.598-3.915,14.827-4.159,21.682-0.691l24.307-14.427C77.793,7.89,65.217,2.996,52.529,2.996z"/>
						</g>
					</g>
				</g>
				<g>
					<g>
						<path style="fill:#00AAFF;" d="M61.997,46.012c3.092,5.207,1.377,11.93-3.832,15.018c-5.202,3.09-11.928,1.377-15.019-3.832
							c-3.088-5.203-1.372-11.932,3.834-15.019C52.185,39.088,58.909,40.807,61.997,46.012z"/>
					</g>
					<g>
						<path style="fill:#0086FF;" d="M43.146,57.197c-3.088-5.203-1.372-11.932,3.834-15.019c5.205-3.09,11.929-1.371,15.017,3.834"
							/>
					</g>
					<g>
						<path style="fill:#33363A;" d="M52.594,64.07c-1.033,0-2.073-0.13-3.101-0.392c-3.226-0.822-5.938-2.853-7.637-5.716
							c-1.698-2.861-2.18-6.214-1.356-9.439c0.823-3.227,2.853-5.938,5.715-7.636c2.861-1.7,6.211-2.181,9.439-1.356
							c3.224,0.823,5.935,2.853,7.633,5.715l0,0c1.7,2.863,2.183,6.216,1.36,9.439c-0.823,3.226-2.854,5.937-5.718,7.634
							C56.981,63.478,54.804,64.07,52.594,64.07z M52.555,42.14c-1.677,0-3.329,0.449-4.809,1.328
							c-2.174,1.289-3.714,3.348-4.34,5.798c-0.625,2.449-0.259,4.994,1.03,7.166c1.29,2.175,3.35,3.716,5.798,4.34
							c2.451,0.627,4.993,0.259,7.165-1.032c2.175-1.289,3.717-3.347,4.341-5.795c0.625-2.448,0.258-4.993-1.033-7.167l0,0
							c-1.289-2.174-3.348-3.715-5.796-4.34C54.131,42.238,53.34,42.14,52.555,42.14z"/>
					</g>
				</g>
			</g>
			<g>
				<g>
					<g>
						<path style="fill:#33363A;" d="M21.278,71.678c-0.512,0-1.011-0.262-1.291-0.734c-0.423-0.713-0.188-1.633,0.524-2.056
							l13.318-7.904c0.713-0.422,1.633-0.188,2.056,0.524s0.188,1.633-0.524,2.056l-13.318,7.904
							C21.803,71.61,21.539,71.678,21.278,71.678z"/>
					</g>
					<g>
						<path style="fill:#33363A;" d="M13.604,76.225c-0.391,0-0.771-0.16-1.061-0.44c-0.279-0.27-0.439-0.659-0.439-1.06
							c0-0.39,0.16-0.78,0.439-1.06c0.57-0.561,1.561-0.561,2.12,0c0.28,0.279,0.44,0.67,0.44,1.06c0,0.4-0.16,0.78-0.44,1.06
							C14.383,76.065,14.003,76.225,13.604,76.225z"/>
					</g>
					<g>
						<path style="fill:#33363A;" d="M6.613,80.375c-0.39,0-0.78-0.16-1.061-0.44c-0.279-0.28-0.439-0.66-0.439-1.06
							c0-0.4,0.16-0.78,0.439-1.061c0.57-0.56,1.561-0.56,2.12,0c0.28,0.28,0.44,0.67,0.44,1.061c0,0.39-0.16,0.779-0.44,1.06
							C7.394,80.215,7.014,80.375,6.613,80.375z"/>
					</g>
				</g>
				<g>
					<g>
						<path style="fill:#33363A;" d="M70.551,42.436c-0.512,0-1.011-0.263-1.291-0.734c-0.423-0.713-0.188-1.633,0.524-2.056
							l13.318-7.9c0.713-0.421,1.633-0.188,2.056,0.524c0.423,0.713,0.188,1.633-0.524,2.056l-13.318,7.9
							C71.075,42.368,70.812,42.436,70.551,42.436z"/>
					</g>
					<g>
						<path style="fill:#33363A;" d="M91.543,29.984c-0.399,0-0.79-0.16-1.069-0.439c-0.271-0.28-0.431-0.67-0.431-1.061
							c0-0.399,0.16-0.79,0.431-1.069c0.56-0.551,1.56-0.551,2.13,0c0.279,0.279,0.439,0.67,0.439,1.069
							c0,0.391-0.16,0.771-0.439,1.061C92.323,29.824,91.934,29.984,91.543,29.984z"/>
					</g>
					<g>
						<path style="fill:#33363A;" d="M98.529,25.834c-0.512,0-1.011-0.262-1.291-0.734c-0.423-0.713-0.188-1.633,0.524-2.056
							l20.238-12.012c0.713-0.422,1.634-0.188,2.056,0.524c0.423,0.713,0.188,1.633-0.524,2.056L99.294,25.624
							C99.054,25.767,98.79,25.834,98.529,25.834z"/>
					</g>
				</g>
			</g>
		</g>
		<g>
			<path style="fill:#33363A;" d="M96.118,126.482c-0.524,0-1.018-0.275-1.29-0.734l-17.18-28.953
				c-0.004-0.007-0.009-0.015-0.013-0.021c-20.666,11.459-46.982,7.329-63.111-10.092c-0.308-0.333-0.449-0.787-0.384-1.235
				s0.329-0.843,0.719-1.074l26.658-15.82c0.458-0.271,1.027-0.28,1.493-0.021c6.077,3.371,13.534,3.281,19.463-0.238
				c5.931-3.52,9.586-10.022,9.539-16.972c-0.004-0.532,0.276-1.027,0.734-1.3l50.578-30.016c0.525-0.312,1.187-0.274,1.673,0.096
				c0.486,0.369,0.7,0.996,0.541,1.585L97.566,125.373c-0.157,0.582-0.647,1.014-1.245,1.096
				C96.253,126.478,96.186,126.482,96.118,126.482z M80.39,95.535l15.206,25.627l26.085-96.692L75.002,52.169
				c-0.245,7.682-4.401,14.789-10.997,18.703c-6.594,3.914-14.822,4.156-21.68,0.689L18.019,85.986
				c15.61,15.605,40.277,18.8,59.385,7.462l0.563-0.351c0.436-0.262,0.975-0.286,1.432-0.063c0.457,0.223,0.77,0.662,0.831,1.167
				L80.39,95.535z"/>
		</g>
	</g>
	<g>
		<path style="fill:#33363A;" d="M91.54,91.688c-0.448,0-0.874-0.201-1.158-0.547l-8.064-9.807
			c-0.221-0.269-0.342-0.605-0.342-0.953v-7.83c0-0.536,0.286-1.031,0.75-1.299l8.064-4.656c0.465-0.268,1.035-0.268,1.5,0
			l8.063,4.656c0.464,0.268,0.75,0.763,0.75,1.299v7.83c0,0.348-0.121,0.685-0.342,0.952l-8.063,9.807
			C92.414,91.486,91.988,91.688,91.54,91.688z M84.976,79.844l6.564,7.982l6.563-7.982v-6.427l-6.563-3.79l-6.564,3.79V79.844z"/>
	</g>
</g>
<g>
</g>
<g>
</g>
<g>
</g>
<g>
</g>
<g>
</g>
<g>
</g>
<g>
</g>
<g>
</g>
<g>
</g>
<g>
</g>
<g>
</g>
<g>
</g>
<g>
</g>
<g>
</g>
<g>
</g>
</svg>
