<?xml version="1.0" encoding="iso-8859-1"?>
<!-- Generator: Adobe Illustrator 19.0.0, SVG Export Plug-In . SVG Version: 6.00 Build 0)  -->
<svg version="1.1" id="Layer_1" xmlns="http://www.w3.org/2000/svg" xmlns:xlink="http://www.w3.org/1999/xlink" x="0px" y="0px"
	 viewBox="0 0 126.953 126.953" style="enable-background:new 0 0 126.953 126.953;" xml:space="preserve">
<g>
	<g>
		<circle style="fill:#FFD00B;" cx="63.477" cy="63.476" r="61.977"/>
	</g>
	<g>
		<path style="fill:#FFBE08;" d="M63.477,1.5v123.953c34.229,0,61.977-27.748,61.977-61.978C125.453,29.247,97.705,1.5,63.477,1.5z"
			/>
	</g>
	<g>
		<path style="fill:#33363A;" d="M63.477,126.953C28.476,126.953,0,98.477,0,63.476C0,28.475,28.476,0,63.477,0
			s63.477,28.475,63.477,63.476C126.953,98.477,98.478,126.953,63.477,126.953z M63.477,3C30.13,3,3,30.129,3,63.476
			c0,33.348,27.13,60.478,60.477,60.478s60.477-27.13,60.477-60.478C123.953,30.129,96.823,3,63.477,3z"/>
	</g>
	<g>
		<circle style="fill:#FFD00B;" cx="63.477" cy="63.477" r="47.978"/>
	</g>
	<g>
		<path style="fill:#FFBE08;" d="M29.553,29.552l67.85,67.851c18.736-18.736,18.736-49.114,0-67.852
			C78.666,10.815,48.289,10.814,29.553,29.552z"/>
	</g>
	<g>
		<g>
			<g>
				<path style="fill:#33363A;" d="M63.477,11.781c-0.828,0-1.5-0.671-1.5-1.5V6.759c0-0.829,0.672-1.5,1.5-1.5s1.5,0.671,1.5,1.5
					v3.522C64.977,11.11,64.305,11.781,63.477,11.781z"/>
			</g>
			<g>
				<path style="fill:#33363A;" d="M63.477,121.695c-0.828,0-1.5-0.671-1.5-1.5v-3.522c0-0.829,0.672-1.5,1.5-1.5s1.5,0.671,1.5,1.5
					v3.522C64.977,121.024,64.305,121.695,63.477,121.695z"/>
			</g>
		</g>
		<g>
			<g>
				<path style="fill:#33363A;" d="M101.092,27.361c-0.384,0-0.768-0.146-1.061-0.439c-0.586-0.585-0.586-1.536,0-2.121l2.49-2.49
					c0.586-0.586,1.535-0.586,2.121,0c0.586,0.585,0.586,1.536,0,2.121l-2.49,2.49C101.859,27.215,101.476,27.361,101.092,27.361z"
					/>
			</g>
			<g>
				<path style="fill:#33363A;" d="M23.371,105.082c-0.384,0-0.768-0.146-1.061-0.439c-0.586-0.585-0.586-1.536,0-2.121l2.49-2.49
					c0.586-0.586,1.535-0.586,2.121,0c0.586,0.585,0.586,1.536,0,2.121l-2.49,2.49C24.139,104.936,23.755,105.082,23.371,105.082z"
					/>
			</g>
		</g>
		<g>
			<g>
				<path style="fill:#33363A;" d="M120.195,64.977h-3.523c-0.828,0-1.5-0.671-1.5-1.5s0.672-1.5,1.5-1.5h3.523
					c0.828,0,1.5,0.671,1.5,1.5S121.023,64.977,120.195,64.977z"/>
			</g>
			<g>
				<path style="fill:#33363A;" d="M10.281,64.977H6.758c-0.828,0-1.5-0.671-1.5-1.5s0.672-1.5,1.5-1.5h3.523
					c0.828,0,1.5,0.671,1.5,1.5S11.109,64.977,10.281,64.977z"/>
			</g>
		</g>
		<g>
			<g>
				<path style="fill:#33363A;" d="M103.582,105.082c-0.384,0-0.768-0.146-1.061-0.439l-2.49-2.49c-0.586-0.585-0.586-1.536,0-2.121
					c0.586-0.586,1.535-0.586,2.121,0l2.49,2.49c0.586,0.585,0.586,1.536,0,2.121C104.35,104.936,103.966,105.082,103.582,105.082z"
					/>
			</g>
			<g>
				<path style="fill:#33363A;" d="M25.861,27.361c-0.384,0-0.768-0.146-1.061-0.439l-2.49-2.49c-0.586-0.585-0.586-1.536,0-2.121
					c0.586-0.586,1.535-0.586,2.121,0l2.49,2.49c0.586,0.585,0.586,1.536,0,2.121C26.629,27.215,26.245,27.361,25.861,27.361z"/>
			</g>
		</g>
	</g>
	<g>
		<g>
			<g>
				<path style="fill:#33363A;" d="M36.88,18.909c-0.518,0-1.022-0.269-1.3-0.75l-1.762-3.051c-0.414-0.717-0.169-1.635,0.549-2.049
					c0.716-0.414,1.636-0.169,2.049,0.549l1.762,3.051c0.414,0.717,0.169,1.635-0.549,2.049
					C37.393,18.844,37.135,18.909,36.88,18.909z"/>
			</g>
			<g>
				<path style="fill:#33363A;" d="M91.837,114.096c-0.519,0-1.022-0.27-1.301-0.751l-1.76-3.051
					c-0.413-0.718-0.167-1.635,0.551-2.049c0.713-0.414,1.633-0.169,2.049,0.55l1.76,3.051c0.413,0.718,0.167,1.635-0.551,2.049
					C92.35,114.031,92.092,114.096,91.837,114.096z"/>
			</g>
		</g>
		<g>
			<g>
				<path style="fill:#33363A;" d="M77.247,13.594c-0.128,0-0.259-0.017-0.389-0.051c-0.8-0.214-1.275-1.037-1.062-1.837l0.91-3.402
					c0.214-0.8,1.035-1.277,1.837-1.062c0.8,0.214,1.275,1.037,1.062,1.837l-0.91,3.402C78.516,13.152,77.909,13.594,77.247,13.594z
					"/>
			</g>
			<g>
				<path style="fill:#33363A;" d="M48.8,119.762c-0.128,0-0.259-0.017-0.389-0.051c-0.8-0.214-1.275-1.037-1.062-1.837l0.91-3.402
					c0.214-0.8,1.035-1.276,1.837-1.062c0.8,0.214,1.275,1.037,1.062,1.837l-0.91,3.402C50.068,119.32,49.462,119.762,48.8,119.762z
					"/>
			</g>
		</g>
		<g>
			<g>
				<path style="fill:#33363A;" d="M109.546,38.379c-0.518,0-1.022-0.269-1.3-0.75c-0.414-0.717-0.169-1.635,0.549-2.049
					l3.051-1.762c0.716-0.415,1.635-0.17,2.049,0.549c0.414,0.717,0.169,1.635-0.549,2.049l-3.051,1.762
					C110.059,38.314,109.801,38.379,109.546,38.379z"/>
			</g>
			<g>
				<path style="fill:#33363A;" d="M14.358,93.336c-0.519,0-1.022-0.27-1.3-0.75c-0.414-0.718-0.169-1.635,0.549-2.049l3.051-1.761
					c0.716-0.414,1.635-0.168,2.049,0.549s0.169,1.635-0.549,2.049l-3.051,1.761C14.871,93.271,14.613,93.336,14.358,93.336z"/>
			</g>
		</g>
		<g>
			<g>
				<path style="fill:#33363A;" d="M118.263,79.657c-0.129,0-0.26-0.017-0.39-0.052l-3.402-0.912
					c-0.8-0.214-1.274-1.037-1.061-1.837c0.215-0.801,1.044-1.275,1.838-1.061l3.402,0.912c0.8,0.214,1.274,1.037,1.061,1.837
					C119.531,79.215,118.925,79.657,118.263,79.657z"/>
			</g>
			<g>
				<path style="fill:#33363A;" d="M12.095,51.208c-0.129,0-0.259-0.017-0.389-0.052l-3.402-0.911
					c-0.801-0.214-1.275-1.037-1.062-1.837c0.215-0.8,1.042-1.274,1.837-1.061l3.402,0.911c0.801,0.214,1.275,1.037,1.062,1.837
					C13.363,50.766,12.757,51.208,12.095,51.208z"/>
			</g>
		</g>
	</g>
	<g>
		<g>
			<g>
				<path style="fill:#33363A;" d="M17.407,38.379c-0.255,0-0.513-0.065-0.749-0.202l-3.051-1.762
					c-0.718-0.414-0.963-1.332-0.549-2.049c0.414-0.719,1.333-0.964,2.049-0.549l3.051,1.762c0.718,0.414,0.963,1.332,0.549,2.049
					C18.43,38.11,17.925,38.379,17.407,38.379z"/>
			</g>
			<g>
				<path style="fill:#33363A;" d="M112.595,93.336c-0.255,0-0.513-0.065-0.749-0.202l-3.049-1.762
					c-0.718-0.415-0.963-1.332-0.549-2.049c0.415-0.718,1.332-0.963,2.049-0.548l3.049,1.762c0.718,0.415,0.963,1.332,0.549,2.049
					C113.616,93.067,113.112,93.336,112.595,93.336z"/>
			</g>
		</g>
		<g>
			<g>
				<path style="fill:#33363A;" d="M49.708,13.594c-0.662,0-1.269-0.442-1.448-1.112l-0.912-3.401
					c-0.214-0.8,0.261-1.623,1.061-1.837c0.798-0.215,1.623,0.26,1.838,1.06l0.912,3.401c0.214,0.8-0.261,1.623-1.061,1.837
					C49.968,13.578,49.837,13.594,49.708,13.594z"/>
			</g>
			<g>
				<path style="fill:#33363A;" d="M78.157,119.762c-0.662,0-1.269-0.442-1.448-1.112l-0.912-3.402
					c-0.214-0.8,0.261-1.623,1.061-1.837c0.799-0.215,1.623,0.26,1.838,1.061l0.912,3.402c0.214,0.8-0.261,1.623-1.061,1.837
					C78.417,119.746,78.286,119.762,78.157,119.762z"/>
			</g>
		</g>
		<g>
			<g>
				<path style="fill:#33363A;" d="M90.073,18.908c-0.255,0-0.513-0.065-0.749-0.202c-0.718-0.415-0.963-1.332-0.549-2.049
					l1.762-3.05c0.415-0.718,1.333-0.962,2.049-0.548c0.718,0.415,0.963,1.332,0.549,2.049l-1.762,3.05
					C91.095,18.639,90.591,18.908,90.073,18.908z"/>
			</g>
			<g>
				<path style="fill:#33363A;" d="M35.116,114.096c-0.255,0-0.513-0.065-0.749-0.202c-0.718-0.415-0.963-1.332-0.549-2.049
					l1.762-3.049c0.415-0.718,1.332-0.963,2.049-0.548c0.718,0.415,0.963,1.332,0.549,2.049l-1.762,3.049
					C36.138,113.827,35.634,114.096,35.116,114.096z"/>
			</g>
		</g>
		<g>
			<g>
				<path style="fill:#33363A;" d="M114.858,51.208c-0.662,0-1.269-0.442-1.448-1.112c-0.214-0.8,0.261-1.623,1.062-1.837
					l3.402-0.911c0.798-0.214,1.622,0.261,1.837,1.061c0.214,0.8-0.261,1.623-1.062,1.837l-3.402,0.911
					C115.117,51.192,114.987,51.208,114.858,51.208z"/>
			</g>
			<g>
				<path style="fill:#33363A;" d="M8.69,79.658c-0.662,0-1.268-0.442-1.448-1.112c-0.214-0.8,0.261-1.623,1.061-1.837l3.402-0.913
					c0.797-0.215,1.622,0.26,1.838,1.06c0.214,0.8-0.261,1.623-1.061,1.837L9.08,79.606C8.95,79.641,8.819,79.658,8.69,79.658z"/>
			</g>
		</g>
	</g>
	<g>
		<path style="fill:#33363A;" d="M83.557,72.418c-0.828,0-1.5-0.671-1.5-1.5c0-0.25-0.202-0.453-0.451-0.453
			s-0.451,0.203-0.451,0.453c0,0.829-0.672,1.5-1.5,1.5s-1.5-0.671-1.5-1.5c0-1.904,1.548-3.453,3.451-3.453
			s3.451,1.549,3.451,3.453C85.057,71.747,84.385,72.418,83.557,72.418z"/>
	</g>
	<g>
		<circle style="fill:#E04038;" cx="79.354" cy="81.692" r="5.238"/>
	</g>
	<g>
		<path style="fill:#FF6155;" d="M79.354,76.455c2.893,0,5.238,2.345,5.238,5.237c0,2.894-2.346,5.239-5.238,5.239"/>
	</g>
	<g>
		<path style="fill:#33363A;" d="M79.354,88.432c-3.716,0-6.738-3.023-6.738-6.739c0-3.715,3.022-6.737,6.738-6.737
			s6.738,3.022,6.738,6.737C86.092,85.408,83.069,88.432,79.354,88.432z M79.354,77.955c-2.062,0-3.738,1.677-3.738,3.737
			c0,2.062,1.677,3.739,3.738,3.739s3.738-1.677,3.738-3.739C83.092,79.632,81.415,77.955,79.354,77.955z"/>
	</g>
	<path style="fill:#33363A;" d="M98.463,28.49C79.172,9.199,47.783,9.199,28.492,28.491c-18.263,18.263-19.225,47.362-2.91,66.781
		c0.047,0.064,0.099,0.125,0.156,0.182c0.873,1.029,1.781,2.038,2.752,3.008c9.646,9.646,22.316,14.468,34.987,14.468
		c12.67,0,25.34-4.823,34.985-14.468C117.754,79.172,117.754,47.782,98.463,28.49z M85.919,104.167
		c-17.661,9.73-40.352,7.129-55.308-7.825c-0.651-0.652-1.273-1.322-1.877-2.002c5.145-6.625,8.946-12.537,12.304-17.775
		c4.016-6.263,7.187-11.209,11.167-15.106c0.351-0.343,0.512-0.836,0.431-1.319c-0.081-0.484-0.394-0.897-0.836-1.107
		c-2.489-1.181-4.775-2.698-6.841-4.496c-0.006-0.005-0.009-0.014-0.015-0.019c-0.472-0.411-0.925-0.82-1.36-1.245
		c-0.057-0.056-0.119-0.105-0.175-0.161c-0.516-0.515-1.007-1.052-1.481-1.602c-0.13-0.151-0.253-0.308-0.38-0.461
		c-0.344-0.414-0.679-0.835-1-1.266c-0.128-0.172-0.252-0.347-0.376-0.522c-0.317-0.446-0.623-0.901-0.915-1.363
		c-0.095-0.151-0.192-0.301-0.285-0.453c-0.878-1.446-1.628-2.967-2.254-4.539l4.384-4.383c3.8,1.51,7.291,3.768,10.208,6.686
		c2.824,2.824,5.033,6.159,6.566,9.911c0.156,0.382,0.464,0.684,0.849,0.832c0.387,0.149,0.814,0.132,1.188-0.047
		c2.669-1.279,5.491-1.455,8.143-1.455c7.165,0,19.879,5.717,25.116,16.451c4.701,9.635,2.247,21.051-7.096,33.015
		C86.015,103.996,85.963,104.08,85.919,104.167z M47.371,60.017c0.431,0.265,0.858,0.535,1.301,0.78
		c-0.287,0.312-0.567,0.64-0.848,0.963C47.692,61.174,47.543,60.593,47.371,60.017z M45.084,63.286
		c-4.753-0.89-9.171-3.206-12.602-6.638c-1.941-1.94-3.509-4.203-4.679-6.656l3.993-3.992c1.568,0.752,3.062,1.667,4.448,2.754
		c0.095,0.159,0.201,0.31,0.298,0.467c0.186,0.302,0.377,0.6,0.573,0.896c0.133,0.2,0.265,0.401,0.403,0.598
		c0.319,0.46,0.647,0.913,0.99,1.357c0.086,0.111,0.177,0.219,0.265,0.329c0.298,0.375,0.604,0.745,0.918,1.107
		c0.118,0.136,0.236,0.271,0.355,0.405c0.401,0.448,0.81,0.889,1.237,1.315c0.001,0.001,0.001,0.002,0.002,0.002c0,0,0,0,0,0
		s0,0,0.001,0.001c0.001,0.001,0.001,0.001,0.002,0.002c0.37,0.371,0.746,0.713,1.125,1.05c0.122,0.111,0.239,0.229,0.363,0.339
		C43.879,58.747,44.653,60.98,45.084,63.286z M96.342,96.342c-1.171,1.171-2.39,2.262-3.649,3.281
		c6.817-11.295,6.642-20.354,4.488-26.822c1.44-1.214,1.834-3.325,0.826-4.985c-0.896-1.472-2.619-2.12-4.213-1.747
		c-6.254-9.113-17.616-14.62-25.737-14.62c-2.559,0-5.274,0.154-8.006,1.147c-1.643-3.562-3.864-6.755-6.619-9.51
		c-3.438-3.44-7.598-6.062-12.13-7.711c-0.018-0.007-0.033-0.02-0.052-0.026c-0.106-0.038-0.214-0.068-0.32-0.105
		c-0.449-0.158-0.902-0.306-1.359-0.444c-0.126-0.038-0.251-0.078-0.377-0.115c-0.583-0.169-1.172-0.324-1.765-0.461
		c-0.089-0.021-0.178-0.037-0.267-0.057c-0.505-0.113-1.014-0.212-1.525-0.301c-0.153-0.027-0.306-0.053-0.459-0.078
		c-0.592-0.094-1.186-0.179-1.785-0.241c-0.449-0.049-0.896,0.112-1.215,0.432c-0.318,0.318-0.477,0.764-0.432,1.212
		c0,0.001,0,0.002,0,0.003v0c0.001,0.008,0.002,0.015,0.003,0.023c0.072,0.688,0.168,1.374,0.284,2.059
		c0.037,0.222,0.089,0.44,0.131,0.661c0.09,0.471,0.18,0.941,0.291,1.409c0.056,0.238,0.124,0.472,0.185,0.708
		c0.117,0.453,0.237,0.906,0.373,1.355c0.063,0.208,0.135,0.413,0.203,0.62c0.11,0.34,0.211,0.682,0.333,1.018
		c0.016,0.045,0.044,0.082,0.064,0.125c0.056,0.152,0.101,0.309,0.16,0.46c-0.551-0.283-1.113-0.541-1.68-0.786
		c-0.012-0.005-0.021-0.014-0.033-0.019c-0.037-0.016-0.075-0.027-0.112-0.043c-0.587-0.249-1.181-0.481-1.784-0.688
		c-0.015-0.005-0.03-0.009-0.045-0.015c-0.594-0.203-1.195-0.383-1.803-0.544c-0.056-0.015-0.111-0.031-0.168-0.046
		c-0.586-0.151-1.178-0.281-1.775-0.393c-0.113-0.021-0.226-0.04-0.339-0.06c-0.598-0.104-1.198-0.195-1.805-0.258
		c-0.448-0.046-0.896,0.112-1.216,0.431c-0.318,0.319-0.477,0.764-0.432,1.212c0,0.001,0,0.002,0,0.003c0,0,0,0,0,0
		c0,0.005,0.002,0.009,0.002,0.014c0.073,0.703,0.18,1.405,0.31,2.103c0.063,0.34,0.148,0.675,0.224,1.012
		c0.078,0.342,0.151,0.684,0.242,1.024c0.116,0.437,0.253,0.866,0.391,1.296c0.074,0.228,0.144,0.456,0.224,0.683
		c0.163,0.466,0.342,0.924,0.53,1.379c0.043,0.104,0.076,0.211,0.121,0.315c0.013,0.03,0.034,0.055,0.049,0.084
		c1.348,3.124,3.257,6.001,5.686,8.429c3.812,3.814,8.707,6.399,13.979,7.426c-1.921,2.668-3.805,5.595-5.828,8.751
		c-3.233,5.043-6.883,10.718-11.74,17.026c-14.161-18.218-12.89-44.629,3.841-61.359c9.062-9.062,20.961-13.591,32.864-13.591
		c11.9,0,23.805,4.531,32.864,13.59C114.463,48.734,114.463,78.22,96.342,96.342z"/>
	<g>
		<path style="fill:#33363A;" d="M44.938,90.231c-0.549,0-1.077-0.303-1.341-0.826c-0.118-0.232-2.906-5.584-8.223-4.063
			c-0.796,0.225-1.627-0.233-1.854-1.03c-0.228-0.796,0.233-1.627,1.03-1.854c6.18-1.766,10.374,2.893,11.729,5.603
			c0.37,0.741,0.069,1.642-0.672,2.012C45.393,90.18,45.164,90.231,44.938,90.231z"/>
	</g>
	<g>
		<path style="fill:#33363A;" d="M40.987,95.919c-0.549,0-1.077-0.303-1.341-0.826c-0.118-0.232-2.916-5.581-8.225-4.064
			c-0.797,0.224-1.627-0.234-1.854-1.031c-0.228-0.796,0.234-1.626,1.03-1.854c6.19-1.765,10.377,2.894,11.73,5.604
			c0.37,0.741,0.069,1.642-0.672,2.012C41.441,95.868,41.213,95.919,40.987,95.919z"/>
	</g>
	<g>
		<g>
			<g>
				<path style="fill:#33363A;" d="M82.662,39.006c-0.16,0-0.323-0.026-0.483-0.081c-0.784-0.267-1.203-1.119-0.937-1.903
					l0.242-0.712c0.267-0.785,1.116-1.207,1.903-0.937c0.784,0.267,1.203,1.119,0.937,1.903l-0.242,0.712
					C83.87,38.613,83.287,39.006,82.662,39.006z"/>
			</g>
			<g>
				<path style="fill:#33363A;" d="M79.023,49.672c-0.16,0-0.324-0.026-0.484-0.081c-0.784-0.267-1.203-1.12-0.936-1.904l1.426-4.18
					c0.268-0.784,1.121-1.206,1.904-0.935c0.784,0.267,1.203,1.12,0.936,1.904l-1.426,4.18C80.23,49.28,79.647,49.672,79.023,49.672
					z"/>
			</g>
		</g>
		<g>
			<g>
				<g>
					<path style="fill:#33363A;" d="M61.729,36.139c-0.552,0-1.083-0.306-1.345-0.834l-0.336-0.678
						c-0.368-0.742-0.064-1.642,0.678-2.01c0.741-0.368,1.642-0.065,2.01,0.678l0.336,0.678c0.368,0.742,0.064,1.642-0.678,2.01
						C62.181,36.089,61.953,36.139,61.729,36.139z"/>
				</g>
				<g>
					<path style="fill:#33363A;" d="M66.698,46.254c-0.554,0-1.087-0.309-1.348-0.839l-1.949-3.971
						c-0.365-0.744-0.058-1.643,0.686-2.008c0.745-0.365,1.643-0.058,2.008,0.686l1.949,3.971c0.365,0.744,0.058,1.643-0.686,2.008
						C67.146,46.205,66.92,46.254,66.698,46.254z"/>
				</g>
			</g>
			<g>
				<g>
					<path style="fill:#33363A;" d="M100.983,49.532c-0.555,0-1.088-0.309-1.348-0.84c-0.365-0.744-0.058-1.643,0.687-2.007
						L101,46.352c0.747-0.363,1.644-0.056,2.007,0.687c0.365,0.744,0.058,1.643-0.687,2.007l-0.678,0.332
						C101.43,49.482,101.205,49.532,100.983,49.532z"/>
				</g>
				<g>
					<path style="fill:#33363A;" d="M90.872,54.5c-0.554,0-1.086-0.308-1.347-0.838c-0.366-0.744-0.06-1.643,0.684-2.008
						l3.963-1.949c0.743-0.364,1.643-0.06,2.008,0.684c0.366,0.744,0.06,1.643-0.684,2.008l-3.963,1.949
						C91.32,54.451,91.095,54.5,90.872,54.5z"/>
				</g>
			</g>
		</g>
	</g>
</g>
<g>
</g>
<g>
</g>
<g>
</g>
<g>
</g>
<g>
</g>
<g>
</g>
<g>
</g>
<g>
</g>
<g>
</g>
<g>
</g>
<g>
</g>
<g>
</g>
<g>
</g>
<g>
</g>
<g>
</g>
</svg>
