<?xml version="1.0" encoding="iso-8859-1"?>
<!-- Generator: Adobe Illustrator 19.0.0, SVG Export Plug-In . SVG Version: 6.00 Build 0)  -->
<svg version="1.1" id="Layer_1" xmlns="http://www.w3.org/2000/svg" xmlns:xlink="http://www.w3.org/1999/xlink" x="0px" y="0px"
	 viewBox="0 0 127.938 127.938" style="enable-background:new 0 0 127.938 127.938;" xml:space="preserve">
<g>
	<g>
		<g>
			<g>
				<path style="fill:#7BC7FF;" d="M63.969,126.438c-2.246,0-4.355-1.076-5.671-2.896L22.432,73.972
					c-0.864-1.194-1.329-2.63-1.329-4.104V29.206c0-2.501,1.334-4.812,3.5-6.063L60.468,2.434c2.166-1.25,4.835-1.25,7.001,0
					l35.866,20.709c2.166,1.251,3.5,3.562,3.5,6.063v40.663c0,1.474-0.465,2.909-1.329,4.104L69.64,123.541
					C68.324,125.362,66.215,126.438,63.969,126.438z M35.103,67.602l28.866,39.894l28.866-39.894V33.247L63.969,16.58L35.103,33.247
					V67.602z"/>
			</g>
		</g>
		<g>
			<path style="fill:#0086FF;" d="M103.335,32.143L67.469,11.434c-2.166-1.25-4.835-1.25-7.001,0L24.603,32.143
				c-2.166,1.251-3.5,3.562-3.5,6.063v31.663c0,1.474,0.465,2.909,1.329,4.104l35.866,49.569c1.316,1.82,3.426,2.896,5.671,2.896
				c2.246,0,4.355-1.076,5.671-2.896l35.866-49.569c0.864-1.194,1.329-2.63,1.329-4.104V38.206
				C106.835,35.705,105.501,33.394,103.335,32.143z M92.835,42.247v25.356v9l-28.866,39.894L35.103,76.602v-9V42.247v-9
				L63.969,16.58l28.866,16.667V42.247z"/>
		</g>
		<g>
			<g>
				<path style="fill:#33363A;" d="M63.969,127.938c-2.72,0-5.294-1.315-6.887-3.518L21.217,74.851
					c-1.056-1.459-1.613-3.182-1.613-4.982V29.206c0-3.026,1.628-5.848,4.249-7.361L59.719,1.135c2.622-1.514,5.879-1.514,8.5,0
					l35.866,20.709c2.621,1.514,4.25,4.335,4.25,7.361v40.663c0,1.801-0.558,3.523-1.613,4.982L70.856,124.42
					C69.263,126.623,66.689,127.938,63.969,127.938z M63.969,2.999c-0.951,0-1.902,0.245-2.751,0.734L25.353,24.442
					c-1.696,0.979-2.75,2.806-2.75,4.764v40.663c0,1.165,0.361,2.28,1.044,3.225l35.866,49.569c1.031,1.425,2.696,2.275,4.456,2.275
					s3.425-0.851,4.456-2.275l35.866-49.569c0.683-0.944,1.044-2.06,1.044-3.225V29.206c0-1.958-1.054-3.784-2.75-4.764
					L66.719,3.733C65.871,3.244,64.92,2.999,63.969,2.999z M63.969,108.997c-0.481,0-0.933-0.23-1.215-0.621L33.888,68.481
					c-0.185-0.256-0.285-0.563-0.285-0.879V33.247c0-0.536,0.286-1.031,0.75-1.299l28.866-16.667c0.464-0.268,1.036-0.268,1.5,0
					l28.866,16.667c0.464,0.268,0.75,0.763,0.75,1.299v34.355c0,0.315-0.1,0.623-0.285,0.879l-28.866,39.895
					C64.902,108.766,64.45,108.997,63.969,108.997z M36.603,67.117l27.366,37.821l27.366-37.821V34.113L63.969,18.312L36.603,34.113
					V67.117z"/>
			</g>
		</g>
	</g>
	<g>
		<g>
			<circle style="fill:#7BC7FF;" cx="63.969" cy="53.847" r="15.736"/>
		</g>
		<g>
			<path style="fill:#0086FF;" d="M79.705,53.847c0,6.658-7.046,12.054-15.736,12.054c-8.689,0-15.735-5.396-15.735-12.054
				c0-6.651,7.046-12.054,15.735-12.054C72.659,41.793,79.705,47.196,79.705,53.847z"/>
		</g>
		<g>
			<path style="fill:#FFFFFF;" d="M48.233,53.847c0,8.691,7.046,15.737,15.735,15.737c8.69,0,15.736-7.046,15.736-15.737H48.233z"/>
		</g>
		<g>
			<path style="fill:#DCE6EA;" d="M63.968,65.901c8.69,0,15.736-5.396,15.736-12.054H48.233
				C48.233,60.505,55.279,65.901,63.968,65.901z"/>
		</g>
		<path style="fill:#33363A;" d="M63.969,36.612c-9.503,0-17.235,7.731-17.235,17.235c0,9.505,7.732,17.237,17.235,17.237
			c9.504,0,17.236-7.732,17.236-17.237C81.205,44.343,73.472,36.612,63.969,36.612z M63.969,39.612
			c7.343,0,13.403,5.589,14.156,12.735h-28.31C50.566,45.2,56.626,39.612,63.969,39.612z M63.969,68.084
			c-7.343,0-13.403-5.589-14.155-12.737h28.31C77.372,62.495,71.312,68.084,63.969,68.084z"/>
		<g>
			<g>
				<circle style="fill:#A7BBC1;" cx="63.968" cy="55.651" r="5.202"/>
			</g>
			<g>
				<circle style="fill:#FFFFFF;" cx="63.968" cy="53.881" r="5.202"/>
			</g>
			<g>
				<path style="fill:#D8E5EA;" d="M60.29,57.559c-2.031-2.029-2.031-5.326,0-7.356c2.032-2.031,5.327-2.031,7.357,0"/>
			</g>
			<g>
				<path style="fill:#33363A;" d="M63.969,60.584c-1.791,0-3.474-0.698-4.74-1.965c-1.265-1.265-1.962-2.947-1.962-4.738
					s0.697-3.475,1.963-4.739c1.266-1.266,2.95-1.963,4.74-1.963c1.791,0,3.474,0.697,4.739,1.963
					c1.266,1.266,1.963,2.949,1.963,4.74c0,1.791-0.698,3.474-1.964,4.738C67.443,59.886,65.76,60.584,63.969,60.584z
					 M63.969,50.179c-0.989,0-1.919,0.385-2.619,1.084s-1.084,1.629-1.084,2.618s0.385,1.919,1.083,2.616
					c1.4,1.403,3.839,1.399,5.236,0.002c0.701-0.7,1.085-1.629,1.085-2.618c0-0.989-0.385-1.919-1.084-2.617
					c0-0.001,0-0.001-0.001-0.001C65.888,50.564,64.958,50.179,63.969,50.179z"/>
			</g>
		</g>
	</g>
</g>
<g>
</g>
<g>
</g>
<g>
</g>
<g>
</g>
<g>
</g>
<g>
</g>
<g>
</g>
<g>
</g>
<g>
</g>
<g>
</g>
<g>
</g>
<g>
</g>
<g>
</g>
<g>
</g>
<g>
</g>
</svg>
