<?xml version="1.0" encoding="iso-8859-1"?>
<!-- Generator: Adobe Illustrator 19.0.0, SVG Export Plug-In . SVG Version: 6.00 Build 0)  -->
<svg version="1.1" id="Layer_1" xmlns="http://www.w3.org/2000/svg" xmlns:xlink="http://www.w3.org/1999/xlink" x="0px" y="0px"
	 viewBox="0 0 127.559 127.559" style="enable-background:new 0 0 127.559 127.559;" xml:space="preserve">
<g>
	<path style="fill:#FF1A1A;" d="M90.334,72.899c0,14.666-11.889,24.336-26.555,24.336s-26.555-9.67-26.555-24.336
		S49.114,46.344,63.78,46.344S90.334,58.233,90.334,72.899z"/>
	<path style="fill:#D8E5EA;" d="M90.334,72.899H76.26H51.298H37.225c0,3.455,1.128,7.295,3.112,10.961l-0.484,0.484l23.927,41.715
		l23.927-41.715l-0.484-0.484C89.206,80.194,90.334,76.354,90.334,72.899z"/>
	<path style="fill:#FFFFFF;" d="M51.298,72.899H37.225c0,3.455,1.128,7.295,3.112,10.961l-0.484,0.484l18.956,33.049h4.971V72.899
		H51.298z"/>
	<path style="fill:#A7BBC1;" d="M87.711,72.899c-0.159,0.32-0.317,0.641-0.489,0.961l0.484,0.484L63.78,116.059L39.853,74.344
		l0.484-0.484c-0.172-0.32-0.33-0.641-0.489-0.961h-2.623c0,3.455,1.128,7.295,3.112,10.961l-0.484,0.484l23.927,41.715
		l23.927-41.715l-0.484-0.484c1.984-3.666,3.112-7.506,3.112-10.961H87.711z"/>
	<path style="fill:#D60909;" d="M63.78,52.559c-14.666,0-26.555,9.107-26.555,20.34h53.109
		C90.334,61.667,78.446,52.559,63.78,52.559z"/>
	<path style="fill:#B50B0B;" d="M63.78,52.559v20.34h26.555C90.334,61.667,78.446,52.559,63.78,52.559L63.78,52.559z"/>
	<g>
		<circle style="fill:#A7BBC1;" cx="63.78" cy="75.354" r="7.22"/>
	</g>
	<g>
		<path style="fill:#33363A;" d="M68.085,45.175c0.991-1.057,1.604-2.474,1.604-4.034c0-2.74-1.876-5.043-4.409-5.71v-3.866
			c0-0.829-0.671-1.5-1.5-1.5s-1.5,0.671-1.5,1.5v3.866c-2.533,0.667-4.409,2.97-4.409,5.71c0,1.56,0.612,2.977,1.604,4.034
			c-13.433,2.078-23.749,13.718-23.749,27.724c0,4.354,0.985,8.401,2.927,12.032c0.04,0.074,0.085,0.145,0.137,0.211L62.475,126.8
			c0.267,0.469,0.765,0.759,1.304,0.759s1.038-0.29,1.304-0.759l23.658-41.622l0.028-0.037c0.051-0.066,0.097-0.137,0.137-0.211
			c1.942-3.63,2.927-7.678,2.927-12.032C91.834,58.894,81.518,47.253,68.085,45.175z M63.78,38.231c1.604,0,2.909,1.306,2.909,2.91
			c0,1.604-1.305,2.908-2.909,2.908s-2.909-1.305-2.909-2.908C60.87,39.537,62.176,38.231,63.78,38.231z M63.78,47.844
			c13.311,0,24.227,10.435,25.006,23.555H38.774C39.553,58.28,50.468,47.844,63.78,47.844z M86.32,83.406l-0.015,0.02
			c-0.043,0.056-0.083,0.116-0.118,0.177l-22.407,39.42l-22.407-39.42c-0.035-0.062-0.075-0.121-0.118-0.177l-0.015-0.02
			c-1.448-2.743-2.274-5.767-2.468-9.007h50.016C88.593,77.639,87.767,80.663,86.32,83.406z"/>
		<path style="fill:#33363A;" d="M63.78,26.315c0.829,0,1.5-0.671,1.5-1.5v-5.168c0-0.829-0.671-1.5-1.5-1.5s-1.5,0.671-1.5,1.5
			v5.168C62.28,25.644,62.951,26.315,63.78,26.315z"/>
		<path style="fill:#33363A;" d="M63.78,14.397c0.829,0,1.5-0.671,1.5-1.5V7.731c0-0.829-0.671-1.5-1.5-1.5s-1.5,0.671-1.5,1.5
			v5.166C62.28,13.726,62.951,14.397,63.78,14.397z"/>
		<path style="fill:#33363A;" d="M63.78,2.98c0.39,0,0.78-0.16,1.06-0.44c0.28-0.28,0.44-0.67,0.44-1.06c0-0.39-0.16-0.78-0.44-1.06
			c-0.56-0.56-1.56-0.56-2.12,0c-0.28,0.28-0.44,0.67-0.44,1.06c0,0.39,0.16,0.78,0.44,1.06C62.999,2.82,63.389,2.98,63.78,2.98z"/>
	</g>
	<g>
		<g>
			<circle style="fill:#FFFFFF;" cx="63.78" cy="72.9" r="7.219"/>
		</g>
		<g>
			<path style="fill:#D8E5EA;" d="M58.675,78.005c-2.819-2.82-2.818-7.391,0-10.209c2.819-2.82,7.391-2.82,10.209,0"/>
		</g>
		<g>
			<path style="fill:#33363A;" d="M63.78,81.614c-2.233,0-4.465-0.85-6.166-2.549c-3.399-3.4-3.399-8.932,0-12.331
				c1.646-1.647,3.836-2.555,6.166-2.555c2.329,0,4.518,0.907,6.165,2.554l0,0c0,0,0,0,0,0.001c1.646,1.646,2.553,3.835,2.553,6.164
				c0,2.329-0.907,4.519-2.553,6.166C68.245,80.765,66.013,81.614,63.78,81.614z M63.78,67.18c-1.528,0-2.964,0.595-4.044,1.676
				c-2.23,2.229-2.229,5.858,0,8.088c2.23,2.229,5.858,2.229,8.087,0c1.08-1.081,1.675-2.517,1.675-4.045
				c0-1.527-0.595-2.963-1.675-4.042c0,0,0,0,0-0.001C66.743,67.776,65.307,67.18,63.78,67.18z"/>
		</g>
	</g>
</g>
<g>
</g>
<g>
</g>
<g>
</g>
<g>
</g>
<g>
</g>
<g>
</g>
<g>
</g>
<g>
</g>
<g>
</g>
<g>
</g>
<g>
</g>
<g>
</g>
<g>
</g>
<g>
</g>
<g>
</g>
</svg>
