<?xml version="1.0" encoding="UTF-8" standalone="no"?>
<svg width="234px" height="214px" viewBox="0 0 234 214" version="1.1" xmlns="http://www.w3.org/2000/svg" xmlns:xlink="http://www.w3.org/1999/xlink">
    <!-- Generator: Sketch 39.1 (31720) - http://www.bohemiancoding.com/sketch -->
    <title>Slice 1</title>
    <desc>Created with Sketch.</desc>
    <defs></defs>
    <g id="Page-1" stroke="none" stroke-width="1" fill="none" fill-rule="evenodd">
        <path d="M75.25,110.333 C73.32,110.333 71.75,111.903 71.75,113.833 C71.75,115.762 73.32,117.333 75.25,117.333 C77.18,117.333 78.75,115.762 78.75,113.833 C78.75,111.903 77.18,110.333 75.25,110.333 L75.25,110.333 Z M74.49,133.913 C68.794,133.913 64.16,129.279 64.16,123.583 L64.16,100.252 C64.16,94.551 68.794,89.913 74.49,89.913 C80.186,89.913 84.82,94.551 84.82,100.252 L84.82,123.583 C84.82,129.279 80.186,133.913 74.49,133.913 L74.49,133.913 Z M158.4,110.333 C156.47,110.333 154.9,111.903 154.9,113.833 C154.9,115.762 156.47,117.333 158.4,117.333 C160.33,117.333 161.9,115.762 161.9,113.833 C161.9,111.903 160.33,110.333 158.4,110.333 L158.4,110.333 Z M159.16,133.913 C153.458,133.913 148.82,129.279 148.82,123.583 L148.82,100.252 C148.82,94.551 153.458,89.913 159.16,89.913 C164.856,89.913 169.49,94.551 169.49,100.252 L169.49,123.583 C169.49,129.279 164.856,133.913 159.16,133.913 L159.16,133.913 Z M109.488,152.083 L116.819,133.993 L124.163,152.083 L109.488,152.083 L109.488,152.083 Z" id="Fill-56" fill="#F3B130"></path>
        <path d="M18.446,175.185 C17.843,175.185 17.343,175.085 16.96,174.887 C16.064,174.418 15.997,173.086 16.758,170.926 C20.431,160.708 31.013,150.282 35.393,146.273 L36.129,145.598 L36.228,146.593 C36.897,153.382 37.958,158.785 39.472,163.108 L39.565,163.374 L39.386,163.591 C35.274,168.576 23.337,175.185 18.446,175.185 C18.445,175.185 18.446,175.185 18.446,175.185 L18.446,175.185 Z M215.207,175.185 C210.305,175.185 198.366,168.575 194.264,163.59 L194.085,163.374 L194.178,163.109 C195.7,158.734 196.758,153.332 197.413,146.594 L197.509,145.597 L198.248,146.273 C202.632,150.287 213.225,160.723 216.881,170.923 C217.42,172.403 217.826,174.293 216.691,174.886 C216.308,175.085 215.809,175.185 215.207,175.185 L215.207,175.185 Z M90.974,183.613 C84.923,183.415 79.826,183.106 75.391,182.67 C72.989,182.432 70.688,182.138 68.551,181.796 C59.393,180.309 53.069,177.792 48.648,173.876 C45.599,171.172 43.307,167.659 41.641,163.135 C38,153.225 37.227,137.757 37.16,116.014 L37.155,114.379 L38.074,115.731 C38.583,116.48 39.142,117.18 39.734,117.81 L45.833,124.249 C48.188,126.725 49.937,129.751 50.89,133.001 C51.461,134.974 51.75,137.017 51.75,139.073 L51.75,150.313 C51.75,156.318 56.635,161.203 62.64,161.203 L82.6,161.203 C87.502,161.203 91.49,165.191 91.49,170.092 L91.49,183.629 L90.974,183.613 L90.974,183.613 Z M142.16,170.092 C142.16,165.191 146.148,161.203 151.05,161.203 L171.01,161.203 C177.015,161.203 181.9,156.318 181.9,150.313 L181.9,139.073 C181.9,133.528 183.998,128.262 187.807,124.249 L193.917,117.809 C194.492,117.198 195.032,116.518 195.566,115.731 L196.485,114.379 L196.48,116.014 C196.412,138.341 195.657,153.209 191.999,163.135 C190.349,167.645 188.056,171.16 184.992,173.876 C180.571,177.792 174.251,180.308 165.1,181.795 C163.103,182.116 160.866,182.402 158.261,182.669 C153.824,183.106 148.727,183.415 142.677,183.613 L142.16,183.629 L142.16,170.092 L142.16,170.092 Z M81.49,210.083 C76.661,210.083 71.49,199.968 71.49,184.913 L71.49,184.215 L72.053,184.287 C73.067,184.416 74.122,184.536 75.196,184.634 C79.6,185.076 84.767,185.392 90.997,185.602 L91.49,185.619 L91.48,186.113 C91.393,190.316 90.904,194.255 90.025,197.822 C88.191,205.27 84.841,210.083 81.49,210.083 L81.49,210.083 Z M152.16,210.083 C149.897,210.083 147.624,207.928 145.759,204.017 C143.576,199.42 142.302,193.061 142.17,186.112 L142.161,185.619 L142.653,185.602 C148.883,185.392 154.05,185.076 158.45,184.635 C159.528,184.536 160.572,184.416 161.587,184.287 L162.15,184.215 L162.15,184.783 C162.157,184.833 162.16,184.875 162.16,184.913 C162.16,199.968 156.989,210.083 152.16,210.083 L152.16,210.083 Z" id="Fill-57" fill="#788294"></path>
        <path d="M74.49,87.913 C67.691,87.913 62.16,93.448 62.16,100.252 L62.16,123.583 C62.16,130.381 67.691,135.913 74.49,135.913 C81.289,135.913 86.82,130.381 86.82,123.583 L86.82,100.252 C86.82,93.448 81.289,87.913 74.49,87.913 L74.49,87.913 Z M159.16,87.913 C152.355,87.913 146.82,93.448 146.82,100.252 L146.82,123.583 C146.82,130.381 152.355,135.913 159.16,135.913 C165.959,135.913 171.49,130.381 171.49,123.583 L171.49,100.252 C171.49,93.448 165.959,87.913 159.16,87.913 L159.16,87.913 Z M127.128,154.083 L116.82,128.672 L106.512,154.083 L127.128,154.083 L127.128,154.083 Z M117.82,183.913 L117.82,163.833 C117.82,163.281 117.371,162.833 116.82,162.833 C116.269,162.833 115.82,163.281 115.82,163.833 L115.82,183.913 L115.32,183.913 C112.438,183.913 109.667,183.903 106.996,183.882 L106.5,183.878 L106.5,163.833 C106.5,163.281 106.051,162.833 105.5,162.833 C104.949,162.833 104.5,163.281 104.5,163.833 L104.5,183.867 L103.996,183.863 C100.659,183.834 97.288,183.777 93.978,183.693 L93.49,183.68 L93.49,170.092 C93.49,164.087 88.605,159.203 82.6,159.203 L62.64,159.203 C57.738,159.203 53.75,155.214 53.75,150.313 L53.75,139.073 C53.75,136.845 53.434,134.631 52.81,132.492 C51.781,128.923 49.871,125.595 47.287,122.867 L41.187,116.426 C38.707,113.824 37.284,110.393 37.18,106.767 C37.304,88.512 38.119,77.724 39.993,69.511 C41.829,61.449 44.818,55.817 49.4,51.788 C59.037,43.296 76.188,41.591 106.495,41.292 L107,41.288 L107,50.833 C107,51.384 107.449,51.833 108,51.833 C108.551,51.833 109,51.384 109,50.833 L109,41.277 L109.496,41.273 C111.857,41.252 114.298,41.252 116.82,41.252 C118.771,41.252 120.652,41.252 122.502,41.262 L123,41.265 L123,49.583 C123,50.134 123.449,50.583 124,50.583 C124.551,50.583 125,50.134 125,49.583 L125,41.279 L125.504,41.283 C156.833,41.524 174.52,43.215 184.241,51.788 C194.32,60.675 196.267,77.27 196.47,106.749 C196.366,110.381 194.943,113.812 192.463,116.426 L186.363,122.867 C182.195,127.259 179.9,133.014 179.9,139.073 L179.9,150.313 C179.9,155.214 175.912,159.203 171.01,159.203 L151.05,159.203 C145.045,159.203 140.16,164.087 140.16,170.092 L140.16,183.68 L139.673,183.693 C136.362,183.777 132.991,183.834 129.654,183.863 L129.15,183.867 L129.15,163.833 C129.15,163.281 128.701,162.833 128.15,162.833 C127.599,162.833 127.15,163.281 127.15,163.833 L127.15,183.878 L126.654,183.882 C123.982,183.903 121.202,183.913 118.32,183.913 L117.82,183.913 L117.82,183.913 Z" id="Fill-58" fill="#FFF4D6"></path>
        <path d="M15.5,210.083 L1.82,210.083 C0.99,210.083 0.32,210.752 0.32,211.583 C0.32,212.413 0.99,213.083 1.82,213.083 L15.5,213.083 C16.33,213.083 17,212.413 17,211.583 C17,210.752 16.33,210.083 15.5,210.083 L15.5,210.083 Z M161.66,184.913 C161.66,184.873 161.65,184.823 161.65,184.783 C160.63,184.913 159.58,185.033 158.5,185.132 C153.81,185.602 148.57,185.903 142.67,186.102 C142.81,193.483 144.24,199.653 146.21,203.802 C147.96,207.472 150.12,209.583 152.16,209.583 C156.65,209.583 161.66,199.453 161.66,184.913 L161.66,184.913 Z M146.88,210.083 C145.59,208.783 144.42,207.012 143.42,204.863 C141.21,200.132 139.81,193.583 139.67,186.193 C132.9,186.363 125.32,186.413 116.82,186.413 C108.33,186.413 100.75,186.363 93.98,186.193 C93.9,190.632 93.35,194.773 92.44,198.403 C91.18,203.542 89.19,207.642 86.76,210.083 L146.88,210.083 L146.88,210.083 Z M89.54,197.703 C90.36,194.373 90.89,190.443 90.98,186.102 C85.08,185.903 79.84,185.602 75.15,185.132 C74.07,185.033 73.01,184.913 71.99,184.783 L71.99,184.913 C71.99,199.453 77,209.583 81.49,209.583 C84.49,209.583 87.73,205.052 89.54,197.703 L89.54,197.703 Z M75.44,182.172 C80.02,182.623 85.18,182.922 90.99,183.113 L90.99,170.092 C90.99,165.472 87.23,161.703 82.6,161.703 L62.64,161.703 C56.36,161.703 51.25,156.592 51.25,150.313 L51.25,139.073 C51.25,137.042 50.96,135.042 50.41,133.142 C49.48,129.972 47.8,127.042 45.47,124.592 L39.37,118.153 C38.74,117.483 38.17,116.762 37.66,116.012 C37.73,138.852 38.59,153.382 42.11,162.962 C43.76,167.443 45.98,170.842 48.98,173.502 C53.44,177.453 59.7,179.852 68.63,181.302 C70.75,181.642 73.01,181.932 75.44,182.172 L75.44,182.172 Z M39,163.273 C37.4,158.703 36.38,153.233 35.73,146.642 C31.84,150.203 20.91,160.852 17.23,171.092 C16.93,171.943 16.31,173.983 17.19,174.443 C20.42,176.113 34.43,168.813 39,163.273 L39,163.273 Z M40.48,69.623 C38.44,78.563 37.79,90.542 37.68,106.752 C37.78,110.243 39.13,113.542 41.55,116.083 L47.65,122.523 C50.32,125.342 52.24,128.712 53.29,132.352 C53.92,134.512 54.25,136.773 54.25,139.073 L54.25,150.313 C54.25,154.943 58.01,158.703 62.64,158.703 L82.6,158.703 C88.88,158.703 93.99,163.813 93.99,170.092 L93.99,183.193 C97.14,183.273 100.48,183.333 104,183.363 L104,163.833 C104,163.002 104.67,162.333 105.5,162.333 C106.33,162.333 107,163.002 107,163.833 L107,183.382 C109.67,183.403 112.44,183.413 115.32,183.413 L115.32,163.833 C115.32,163.002 115.99,162.333 116.82,162.333 C117.65,162.333 118.32,163.002 118.32,163.833 L118.32,183.413 C121.2,183.413 123.98,183.403 126.65,183.382 L126.65,163.833 C126.65,163.002 127.32,162.333 128.15,162.333 C128.98,162.333 129.65,163.002 129.65,163.833 L129.65,183.363 C133.17,183.333 136.51,183.273 139.66,183.193 L139.66,170.092 C139.66,163.813 144.77,158.703 151.05,158.703 L171.01,158.703 C175.63,158.703 179.4,154.943 179.4,150.313 L179.4,139.073 C179.4,132.892 181.74,127.012 186,122.523 L192.1,116.083 C194.51,113.542 195.87,110.243 195.97,106.752 C195.76,76.233 193.64,60.743 183.91,52.163 C174.6,43.953 157.94,42.033 125.5,41.783 L125.5,49.583 C125.5,50.413 124.83,51.083 124,51.083 C123.17,51.083 122.5,50.413 122.5,49.583 L122.5,41.762 C120.65,41.752 118.77,41.752 116.82,41.752 C114.3,41.752 111.86,41.752 109.5,41.773 L109.5,50.833 C109.5,51.663 108.83,52.333 108,52.333 C107.17,52.333 106.5,51.663 106.5,50.833 L106.5,41.792 C75.13,42.102 58.89,44.092 49.73,52.163 C45.16,56.182 42.28,61.722 40.48,69.623 L40.48,69.623 Z M195.98,116.012 C195.47,116.762 194.91,117.483 194.28,118.153 L188.17,124.592 C184.45,128.512 182.4,133.663 182.4,139.073 L182.4,150.313 C182.4,156.592 177.29,161.703 171.01,161.703 L151.05,161.703 C146.42,161.703 142.66,165.472 142.66,170.092 L142.66,183.113 C148.47,182.922 153.63,182.623 158.21,182.172 C160.64,181.922 162.9,181.642 165.02,181.302 C173.94,179.852 180.2,177.453 184.66,173.502 C187.66,170.842 189.89,167.443 191.53,162.962 C195.06,153.382 195.91,138.852 195.98,116.012 L195.98,116.012 Z M197.91,146.642 C197.27,153.233 196.24,158.703 194.65,163.273 C199.21,168.813 213.24,176.113 216.46,174.443 C217.34,173.983 216.72,171.943 216.41,171.092 C212.74,160.852 201.8,150.203 197.91,146.642 L197.91,146.642 Z M233.32,211.583 C233.32,212.413 232.65,213.083 231.82,213.083 L212.51,213.083 L206.17,208.443 L199.82,213.083 L28.33,213.083 C27.5,213.083 26.83,212.413 26.83,211.583 C26.83,210.752 27.5,210.083 28.33,210.083 L46.67,210.083 C45.8,208.382 44.01,205.542 40.88,203.302 C40.2,202.823 40.05,201.882 40.53,201.212 C41.01,200.542 41.95,200.382 42.62,200.863 C47.29,204.193 49.37,208.583 49.97,210.083 L51.49,210.083 C52.17,208.573 53.66,205.802 56.03,204.512 C56.76,204.123 57.67,204.382 58.07,205.113 C58.46,205.842 58.2,206.752 57.47,207.153 C56.4,207.733 55.5,208.953 54.86,210.083 L76.22,210.083 C71.91,205.752 68.99,196.233 68.99,184.913 C68.99,184.733 69,184.552 69,184.373 C68.71,184.333 68.43,184.283 68.15,184.233 C58.62,182.693 51.91,180.092 46.99,175.743 C44.12,173.203 41.92,170.123 40.22,166.352 C35.33,171.233 24.67,177.653 18.46,177.653 C17.44,177.653 16.54,177.483 15.81,177.102 C14.3,176.323 12.84,174.462 14.41,170.073 C19.16,156.852 34.53,143.663 35.18,143.102 C35.26,143.042 35.33,142.993 35.42,142.953 C34.8,134.602 34.66,124.613 34.66,112.583 C34.66,110.583 34.66,108.653 34.68,106.762 C34.67,106.623 34.66,106.472 34.66,106.333 C34.66,106.243 34.67,106.163 34.68,106.083 C34.81,90.063 35.49,78.083 37.58,68.962 C39.51,60.413 42.67,54.392 47.75,49.913 C57.66,41.172 73.77,39.102 106.5,38.792 L106.5,21.203 C106.5,18.932 108.35,17.083 110.62,17.083 L123.02,17.083 C123.64,17.083 124.15,16.583 124.15,15.962 L124.15,1.833 C124.15,1.002 124.82,0.333 125.65,0.333 C126.48,0.333 127.15,1.002 127.15,1.833 L127.15,15.962 C127.15,18.233 125.3,20.083 123.02,20.083 L110.62,20.083 C110,20.083 109.5,20.583 109.5,21.203 L109.5,38.773 C111.86,38.752 114.3,38.752 116.82,38.752 C118.77,38.752 120.65,38.752 122.5,38.762 L122.5,33.203 C122.5,30.932 124.35,29.083 126.62,29.083 L135.38,29.083 C136,29.083 136.5,28.583 136.5,27.962 L136.5,16.583 C136.5,15.752 137.17,15.083 138,15.083 C138.83,15.083 139.5,15.752 139.5,16.583 L139.5,27.962 C139.5,30.233 137.65,32.083 135.38,32.083 L126.62,32.083 C126,32.083 125.5,32.583 125.5,33.203 L125.5,38.783 C159.34,39.033 175.82,41.033 185.9,49.913 C196.39,59.163 198.71,75.052 198.97,106.083 C198.98,106.163 198.99,106.243 198.99,106.333 C198.99,106.472 198.97,106.623 198.97,106.762 C198.98,108.653 198.99,110.583 198.99,112.583 C198.99,124.613 198.85,134.602 198.23,142.953 C198.31,142.993 198.39,143.042 198.46,143.102 C199.11,143.663 214.49,156.852 219.23,170.073 C220.81,174.462 219.35,176.323 217.84,177.102 C217.11,177.483 216.21,177.653 215.19,177.653 C208.98,177.653 198.31,171.233 193.43,166.352 C191.73,170.123 189.52,173.203 186.65,175.743 C181.74,180.092 175.03,182.693 165.5,184.233 C165.22,184.283 164.94,184.333 164.65,184.373 C164.65,184.552 164.66,184.733 164.66,184.913 C164.66,196.233 161.73,205.752 157.43,210.083 L198.84,210.083 L206.17,204.722 L213.49,210.083 L231.82,210.083 C232.65,210.083 233.32,210.752 233.32,211.583 L233.32,211.583 Z M64.66,123.583 C64.66,129.002 69.07,133.413 74.49,133.413 C79.91,133.413 84.32,129.002 84.32,123.583 L84.32,100.252 C84.32,94.833 79.91,90.413 74.49,90.413 C69.07,90.413 64.66,94.833 64.66,100.252 L64.66,123.583 L64.66,123.583 Z M61.66,123.583 L61.66,100.252 C61.66,93.172 67.41,87.413 74.49,87.413 C81.57,87.413 87.32,93.172 87.32,100.252 L87.32,123.583 C87.32,130.663 81.57,136.413 74.49,136.413 C67.41,136.413 61.66,130.663 61.66,123.583 L61.66,123.583 Z M75.25,117.833 C77.46,117.833 79.25,116.042 79.25,113.833 C79.25,111.623 77.46,109.833 75.25,109.833 C73.04,109.833 71.25,111.623 71.25,113.833 C71.25,116.042 73.04,117.833 75.25,117.833 L75.25,117.833 Z M110.23,151.583 L123.42,151.583 L116.82,135.323 L110.23,151.583 L110.23,151.583 Z M127.87,154.583 L105.77,154.583 L116.82,127.342 L127.87,154.583 L127.87,154.583 Z M149.32,123.583 C149.32,129.002 153.73,133.413 159.16,133.413 C164.58,133.413 168.99,129.002 168.99,123.583 L168.99,100.252 C168.99,94.833 164.58,90.413 159.16,90.413 C153.73,90.413 149.32,94.833 149.32,100.252 L149.32,123.583 L149.32,123.583 Z M146.32,123.583 L146.32,100.252 C146.32,93.172 152.08,87.413 159.16,87.413 C166.23,87.413 171.99,93.172 171.99,100.252 L171.99,123.583 C171.99,130.663 166.23,136.413 159.16,136.413 C152.08,136.413 146.32,130.663 146.32,123.583 L146.32,123.583 Z M154.4,113.833 C154.4,111.623 156.19,109.833 158.4,109.833 C160.61,109.833 162.4,111.623 162.4,113.833 C162.4,116.042 160.61,117.833 158.4,117.833 C156.19,117.833 154.4,116.042 154.4,113.833 L154.4,113.833 Z" id="Fill-59" fill="#3B3B4D"></path>
    </g>
</svg>