<?xml version="1.0" encoding="UTF-8" standalone="no"?>
<svg width="234px" height="220px" viewBox="0 0 234 220" version="1.1" xmlns="http://www.w3.org/2000/svg" xmlns:xlink="http://www.w3.org/1999/xlink">
    <!-- Generator: Sketch 39.1 (31720) - http://www.bohemiancoding.com/sketch -->
    <title>Slice 1</title>
    <desc>Created with Sketch.</desc>
    <defs></defs>
    <g id="Page-1" stroke="none" stroke-width="1" fill="none" fill-rule="evenodd">
        <path d="M107.695,160.326 C106.527,158.439 105.542,156.722 105.186,155.953 L105.03,155.616 L105.308,155.37 C106.2,154.574 108.552,153.349 109.612,152.972 L109.956,152.849 L110.178,153.139 C110.811,153.967 111.822,155.864 112.559,157.362 L112.793,157.838 L112.304,158.043 C110.94,158.615 109.642,159.422 108.444,160.444 L108.001,160.821 L107.695,160.326" id="Fill-60" fill="#FFF4D6"></path>
        <path d="M74.88,139.913 C69.179,139.913 64.54,135.279 64.54,129.583 L64.54,106.252 C64.54,100.551 69.179,95.913 74.88,95.913 C79.991,95.913 84.383,99.735 85.095,104.803 L85.226,105.733 L84.381,105.322 C84.054,105.164 83.718,105.083 83.38,105.083 C82.09,105.083 81.04,106.132 81.04,107.422 L81.04,113.413 C81.04,114.703 82.09,115.752 83.38,115.752 C83.755,115.752 84.121,115.656 84.47,115.464 L85.21,115.058 L85.21,129.583 C85.21,135.279 80.576,139.913 74.88,139.913 L74.88,139.913 Z M159.54,139.913 C153.844,139.913 149.21,135.279 149.21,129.583 L149.21,115.058 L149.95,115.464 C150.299,115.656 150.665,115.752 151.04,115.752 C152.33,115.752 153.38,114.703 153.38,113.413 L153.38,107.422 C153.38,106.132 152.33,105.083 151.04,105.083 C150.703,105.083 150.366,105.164 150.039,105.323 L149.194,105.732 L149.325,104.803 C150.037,99.735 154.429,95.913 159.54,95.913 C165.241,95.913 169.88,100.551 169.88,106.252 L169.88,129.583 C169.88,135.279 165.241,139.913 159.54,139.913 L159.54,139.913 Z M130.801,167.11 C128.175,161 122.947,157.105 117.156,156.943 C116.537,156.96 115.855,157.036 115.1,157.174 L114.723,157.243 L114.559,156.897 C111.67,150.833 110.682,150.833 110.15,150.833 C108.827,150.833 104.775,152.963 103.581,154.288 C103.155,154.763 102.974,155.224 103.027,155.696 C103.077,156.15 103.582,157.574 106.393,162.015 L106.586,162.322 L106.355,162.601 C105.251,163.941 104.33,165.458 103.619,167.11 L103.264,167.936 L102.75,167.199 C99.609,162.694 97.88,156.911 97.88,150.913 C97.88,137.428 106.545,126.366 117.195,126.252 C127.866,126.366 136.54,137.428 136.54,150.913 C136.54,156.911 134.811,162.694 131.67,167.199 L131.155,167.936 L130.801,167.11 L130.801,167.11 Z" id="Fill-61" fill="#F3B130"></path>
        <path d="M18.831,181.186 C18.229,181.186 17.73,181.085 17.349,180.886 C16.454,180.418 16.387,179.086 17.148,176.926 C20.815,166.72 31.45,156.237 35.853,152.204 L36.587,151.532 L36.688,152.522 C37.38,159.3 38.438,164.7 39.923,169.031 L40.013,169.292 L39.839,169.507 C35.768,174.528 23.791,181.186 18.831,181.186 L18.831,181.186 Z M215.587,181.186 C210.622,181.185 198.652,174.528 194.592,169.507 L194.418,169.292 L194.507,169.032 C196.001,164.643 197.057,159.244 197.733,152.523 L197.833,151.53 L198.568,152.205 C202.973,156.24 213.611,166.728 217.271,176.923 C217.712,178.132 218.273,180.257 217.071,180.886 C216.688,181.085 216.189,181.186 215.588,181.186 L215.587,181.186 L215.587,181.186 Z M74.88,93.913 C68.075,93.913 62.54,99.448 62.54,106.252 L62.54,129.583 C62.54,136.381 68.075,141.913 74.88,141.913 C81.679,141.913 87.21,136.381 87.21,129.583 L87.21,106.252 C87.21,99.448 81.679,93.913 74.88,93.913 L74.88,93.913 Z M159.54,93.913 C152.741,93.913 147.21,99.448 147.21,106.252 L147.21,129.583 C147.21,136.381 152.741,141.913 159.54,141.913 C166.345,141.913 171.88,136.381 171.88,129.583 L171.88,106.252 C171.88,99.448 166.345,93.913 159.54,93.913 L159.54,93.913 Z M117.185,158.943 C122.887,159.109 127.953,163.656 129.791,170.258 L130.285,172.025 L131.506,170.651 C135.976,165.6 138.54,158.406 138.54,150.913 C138.54,136.339 128.965,124.379 117.194,124.252 C105.446,124.379 95.88,136.339 95.88,150.913 C95.88,158.406 98.444,165.6 102.914,170.652 L104.135,172.025 L104.629,170.257 C106.12,164.905 109.837,160.75 114.327,159.413 L114.372,159.389 L114.467,159.371 C115.388,159.116 116.291,158.972 117.153,158.943 L117.185,158.943 L117.185,158.943 Z M123.189,206.403 C118.059,206.403 113.745,205.404 110.368,203.434 C106.323,201.078 103.807,197.379 102.889,192.444 L102.777,191.845 L103.386,191.852 C105.175,191.873 107.004,191.892 108.893,191.903 C109.444,191.903 109.894,191.452 109.9,190.896 C109.9,190.351 109.456,189.903 108.91,189.903 C74.111,189.732 57.049,188.09 47.924,178.813 C46.056,176.925 44.536,174.745 43.28,172.15 C42.871,171.301 42.489,170.413 42.113,169.431 C42.059,169.205 42.016,169.088 41.949,168.977 C38.236,158.749 37.54,143.385 37.54,118.583 C37.54,86.729 39.032,69.851 47.512,60.084 C55.259,51.17 69.242,48.72 87.854,47.784 C91.763,47.586 96.132,47.449 101.241,47.363 C101.793,47.349 102.233,46.892 102.22,46.345 C102.213,45.792 101.774,45.363 101.22,45.363 C96.719,45.436 92.801,45.55 89.232,45.711 L88.759,45.733 L88.712,45.261 C88.701,45.145 88.69,45.029 88.69,44.913 L88.69,38.583 C88.69,34.171 92.279,30.583 96.69,30.583 L109.57,30.583 C110.122,30.583 110.57,30.134 110.57,29.583 C110.57,29.031 110.122,28.583 109.57,28.583 L102.9,28.583 L102.9,24.613 C102.89,21.115 102.881,18.356 105.035,16.19 C108.179,13.046 115.691,11.583 128.68,11.583 C150.068,11.583 156.911,10.687 161.04,4.756 L161.614,3.932 L161.926,4.887 C163.388,9.37 164.934,17.729 158.859,23.359 C153.612,28.232 147.796,28.64 142.756,28.64 C141.908,28.64 141.063,28.626 140.221,28.613 C139.362,28.592 138.536,28.583 137.73,28.583 L130.9,28.583 C130.349,28.583 129.9,29.031 129.9,29.583 C129.9,30.134 130.349,30.583 130.9,30.583 L137.73,30.583 C142.142,30.583 145.73,34.171 145.73,38.583 L145.73,44.913 L145.72,45.212 L145.72,45.736 L145.197,45.711 C141.617,45.55 137.697,45.436 133.212,45.363 C132.646,45.363 132.207,45.792 132.2,46.338 C132.187,46.892 132.627,47.349 133.183,47.363 C138.288,47.449 142.656,47.586 146.535,47.784 C165.182,48.72 179.162,51.17 186.907,60.084 C195.388,69.851 196.88,86.729 196.88,118.583 C196.88,143.385 196.184,158.749 192.51,168.892 C192.404,169.088 192.364,169.202 192.344,169.332 L192.335,169.382 L192.316,169.431 C191.932,170.438 191.547,171.329 191.139,172.154 C189.883,174.746 188.363,176.925 186.495,178.814 C177.371,188.09 160.312,189.732 125.522,189.903 C124.968,189.903 124.52,190.351 124.52,190.903 C124.526,191.452 124.976,191.903 125.52,191.903 L131.326,191.86 L131.368,192.317 C131.94,198.587 136.347,201.557 138.923,202.77 L140.053,203.301 L138.868,203.697 C133.559,205.466 128.137,206.402 123.189,206.403 L123.189,206.403 Z" id="Fill-62" fill="#DFF2F6"></path>
        <path d="M216.8,177.092 C213.1,166.783 202.05,156.073 198.23,152.573 C197.57,159.132 196.54,164.613 194.98,169.193 C199.47,174.743 213.61,182.123 216.84,180.443 C217.72,179.983 217.11,177.943 216.8,177.092 L216.8,177.092 Z M196.38,118.583 C196.38,86.852 194.9,70.052 186.53,60.413 C179.37,52.172 166.61,49.292 146.55,48.283 L146.54,48.283 L146.51,48.283 C142.38,48.073 137.94,47.943 133.17,47.863 C132.34,47.842 131.68,47.163 131.7,46.333 C131.71,45.512 132.38,44.863 133.2,44.863 L133.22,44.863 C137.47,44.932 141.46,45.042 145.22,45.212 C145.22,45.113 145.23,45.012 145.23,44.913 L145.23,38.583 C145.23,34.453 141.87,31.083 137.73,31.083 L130.9,31.083 C130.07,31.083 129.4,30.413 129.4,29.583 C129.4,28.752 130.07,28.083 130.9,28.083 L137.73,28.083 C138.54,28.083 139.37,28.092 140.2,28.113 C146.39,28.212 152.78,28.323 158.52,22.993 C164.42,17.523 162.84,9.302 161.45,5.042 C157.07,11.333 149.58,12.083 128.68,12.083 C115.83,12.083 108.43,13.502 105.39,16.542 C103.38,18.563 103.39,21.233 103.4,24.613 L103.4,28.083 L109.57,28.083 C110.39,28.083 111.07,28.752 111.07,29.583 C111.07,30.413 110.39,31.083 109.57,31.083 L96.69,31.083 C92.55,31.083 89.19,34.453 89.19,38.583 L89.19,44.913 C89.19,45.012 89.2,45.113 89.21,45.212 C92.96,45.042 96.95,44.932 101.2,44.863 L101.22,44.863 C102.04,44.863 102.71,45.512 102.72,46.333 C102.74,47.163 102.08,47.842 101.25,47.863 C96.48,47.943 92.04,48.073 87.91,48.283 L87.88,48.283 C67.81,49.292 55.05,52.172 47.89,60.413 C39.52,70.052 38.04,86.852 38.04,118.583 C38.04,143.462 38.77,158.752 42.38,168.722 C42.48,168.892 42.54,169.063 42.58,169.252 C42.94,170.193 43.32,171.083 43.73,171.932 C44.96,174.472 46.46,176.623 48.28,178.462 C57.28,187.613 74.26,189.233 108.91,189.403 C109.73,189.403 110.4,190.073 110.4,190.903 C110.39,191.733 109.72,192.403 108.9,192.403 L108.89,192.403 C107,192.392 105.17,192.373 103.38,192.352 C104.27,197.132 106.69,200.712 110.62,203.002 C118.01,207.313 129.38,206.333 138.71,203.222 C135.12,201.533 131.4,198.172 130.87,192.363 C129.13,192.373 127.36,192.392 125.53,192.403 C125.53,192.403 125.53,192.403 125.52,192.403 C124.7,192.403 124.03,191.733 124.02,190.903 C124.02,190.073 124.69,189.403 125.52,189.403 C160.16,189.233 177.14,187.613 186.14,178.462 C187.96,176.623 189.46,174.472 190.69,171.932 C191.11,171.083 191.49,170.193 191.85,169.252 C191.88,169.063 191.94,168.892 192.04,168.722 C195.65,158.752 196.38,143.462 196.38,118.583 L196.38,118.583 Z M39.45,169.193 C37.88,164.613 36.86,159.132 36.19,152.573 C32.37,156.073 21.32,166.792 17.62,177.092 C17.32,177.943 16.7,179.983 17.58,180.443 C20.8,182.123 34.95,174.743 39.45,169.193 L39.45,169.193 Z M218.23,183.102 C217.49,183.483 216.59,183.653 215.57,183.653 C209.34,183.653 198.63,177.182 193.77,172.302 C193.66,172.563 193.54,172.813 193.42,173.063 C186.03,188.873 169.65,191.833 133.89,192.323 C134.79,200.252 143.13,201.552 143.5,201.602 C144.17,201.703 144.69,202.222 144.78,202.892 C144.87,203.563 144.5,204.203 143.89,204.472 C138.11,206.943 130.5,208.932 123.18,208.932 C118.13,208.932 113.2,207.983 109.1,205.592 C104.22,202.743 101.3,198.273 100.34,192.323 C64.72,191.823 48.38,188.852 41,173.063 C40.88,172.813 40.76,172.563 40.65,172.302 C35.79,177.182 25.08,183.653 18.85,183.653 C17.83,183.653 16.93,183.483 16.19,183.102 C14.69,182.323 13.22,180.462 14.8,176.073 C19.55,162.852 34.92,149.663 35.57,149.102 C35.67,149.033 35.76,148.962 35.87,148.913 C35.22,140.523 35.04,130.523 35.04,118.583 C35.04,86.092 36.63,68.802 45.62,58.443 C53.25,49.672 66.17,46.502 86.21,45.363 C86.21,45.212 86.19,45.063 86.19,44.913 L86.19,38.583 C86.19,32.792 90.9,28.083 96.69,28.083 L100.4,28.083 L100.4,24.623 C100.39,21.033 100.38,17.323 103.27,14.422 C106.95,10.733 114.79,9.083 128.68,9.083 C152.58,9.083 157.02,7.943 160.35,0.943 C160.59,0.422 161.11,0.092 161.69,0.083 L161.7,0.083 C162.27,0.083 162.79,0.403 163.04,0.913 C163.35,1.533 170.42,16.042 160.56,25.193 C155.58,29.823 150.2,30.903 145.08,31.102 C147.02,33.002 148.23,35.653 148.23,38.583 L148.23,44.913 C148.23,45.063 148.22,45.212 148.21,45.363 C168.26,46.502 181.18,49.672 188.8,58.443 C197.79,68.802 199.38,86.092 199.38,118.583 C199.38,130.523 199.21,140.523 198.55,148.913 C198.66,148.962 198.76,149.033 198.85,149.102 C199.5,149.663 214.88,162.852 219.62,176.073 C221.2,180.462 219.73,182.323 218.23,183.102 L218.23,183.102 Z M209.9,216.083 L40.07,216.083 L40.07,213.583 C40.07,212.203 38.94,211.083 37.57,211.083 L19.15,211.083 C17.78,211.083 16.65,212.203 16.65,213.583 L16.65,216.083 L2.21,216.083 C1.38,216.083 0.71,216.752 0.71,217.583 C0.71,218.413 1.38,219.083 2.21,219.083 L17.47,219.083 C18.18,219.083 19.65,219.083 19.65,217.583 L19.65,214.083 L37.07,214.083 L37.07,217.583 C37.07,218.413 37.74,219.083 38.57,219.083 L209.9,219.083 C210.73,219.083 211.4,218.413 211.4,217.583 C211.4,216.752 210.73,216.083 209.9,216.083 L209.9,216.083 Z M80.54,113.413 L80.54,107.422 C80.54,105.852 81.81,104.583 83.38,104.583 C83.82,104.583 84.23,104.693 84.6,104.873 C83.93,100.102 79.83,96.413 74.88,96.413 C69.46,96.413 65.04,100.833 65.04,106.252 L65.04,129.583 C65.04,135.002 69.46,139.413 74.88,139.413 C80.3,139.413 84.71,135.002 84.71,129.583 L84.71,115.903 C84.31,116.123 83.86,116.252 83.38,116.252 C81.81,116.252 80.54,114.983 80.54,113.413 L80.54,113.413 Z M87.71,106.252 L87.71,129.583 C87.71,136.663 81.95,142.413 74.88,142.413 C67.8,142.413 62.04,136.663 62.04,129.583 L62.04,106.252 C62.04,99.172 67.8,93.413 74.88,93.413 C81.95,93.413 87.71,99.172 87.71,106.252 L87.71,106.252 Z M136.04,150.913 C136.04,137.703 127.59,126.863 117.2,126.752 C106.83,126.863 98.38,137.703 98.38,150.913 C98.38,156.833 100.1,162.523 103.16,166.913 C103.9,165.193 104.85,163.642 105.97,162.283 C104.35,159.722 102.65,156.833 102.53,155.752 C102.46,155.132 102.69,154.533 103.21,153.953 C104.49,152.533 108.7,150.333 110.15,150.333 C110.89,150.333 111.99,150.342 115.01,156.682 C115.72,156.552 116.44,156.462 117.17,156.443 C123.23,156.613 128.6,160.722 131.26,166.913 C134.32,162.523 136.04,156.833 136.04,150.913 L136.04,150.913 Z M112.11,157.583 C111.26,155.852 110.33,154.163 109.78,153.443 C108.74,153.813 106.46,155.012 105.64,155.743 C106.01,156.542 107.03,158.302 108.12,160.063 C109.34,159.023 110.68,158.182 112.11,157.583 L112.11,157.583 Z M139.04,150.913 C139.04,158.533 136.43,165.842 131.88,170.983 L130.05,173.042 L129.31,170.392 C127.53,164.002 122.65,159.602 117.17,159.443 C116.29,159.472 115.43,159.623 114.6,159.852 C114.56,159.873 114.51,159.882 114.47,159.892 C110.2,161.163 106.59,165.083 105.11,170.392 L104.37,173.042 L102.54,170.983 C97.99,165.842 95.38,158.533 95.38,150.913 C95.38,136.063 105.17,123.882 117.2,123.752 C129.26,123.882 139.04,136.063 139.04,150.913 L139.04,150.913 Z M169.38,106.252 C169.38,100.833 164.97,96.413 159.54,96.413 C154.59,96.413 150.49,100.102 149.82,104.873 C150.19,104.693 150.6,104.583 151.04,104.583 C152.61,104.583 153.88,105.852 153.88,107.422 L153.88,113.413 C153.88,114.983 152.61,116.252 151.04,116.252 C150.56,116.252 150.11,116.123 149.71,115.903 L149.71,129.583 C149.71,135.002 154.12,139.413 159.54,139.413 C164.97,139.413 169.38,135.002 169.38,129.583 L169.38,106.252 L169.38,106.252 Z M172.38,106.252 L172.38,129.583 C172.38,136.663 166.62,142.413 159.54,142.413 C152.47,142.413 146.71,136.663 146.71,129.583 L146.71,106.252 C146.71,99.172 152.47,93.413 159.54,93.413 C166.62,93.413 172.38,99.172 172.38,106.252 L172.38,106.252 Z M233.71,217.583 C233.71,218.413 233.04,219.083 232.21,219.083 L220.57,219.083 C219.74,219.083 219.07,218.413 219.07,217.583 C219.07,216.752 219.74,216.083 220.57,216.083 L232.21,216.083 C233.04,216.083 233.71,216.752 233.71,217.583 L233.71,217.583 Z" id="Fill-63" fill="#3B3B4D"></path>
    </g>
</svg>