<?xml version="1.0" encoding="UTF-8" standalone="no"?>
<svg width="234px" height="221px" viewBox="0 0 234 221" version="1.1" xmlns="http://www.w3.org/2000/svg" xmlns:xlink="http://www.w3.org/1999/xlink">
    <!-- Generator: Sketch 39.1 (31720) - http://www.bohemiancoding.com/sketch -->
    <title>Slice 1</title>
    <desc>Created with Sketch.</desc>
    <defs></defs>
    <g id="Page-1" stroke="none" stroke-width="1" fill="none" fill-rule="evenodd">
        <path d="M74.46,94.913 C67.661,94.913 62.13,100.448 62.13,107.252 L62.13,130.583 C62.13,137.381 67.661,142.913 74.46,142.913 C81.265,142.913 86.8,137.381 86.8,130.583 L86.8,107.252 C86.8,100.448 81.265,94.913 74.46,94.913 L74.46,94.913 Z M159.13,94.913 C152.33,94.913 146.8,100.448 146.8,107.252 L146.8,130.583 C146.8,137.381 152.33,142.913 159.13,142.913 C165.93,142.913 171.46,137.381 171.46,130.583 L171.46,107.252 C171.46,100.448 165.93,94.913 159.13,94.913 L159.13,94.913 Z M116.8,127.373 C116.399,127.373 116.037,127.608 115.878,127.973 L107.078,148.014 C106.944,148.321 106.974,148.682 107.156,148.956 C107.344,149.244 107.654,149.413 107.99,149.413 L125.6,149.413 C125.94,149.413 126.25,149.242 126.43,148.967 C126.62,148.682 126.65,148.321 126.51,148.012 L117.712,127.974 C117.553,127.608 117.194,127.373 116.8,127.373 L116.8,127.373 Z M117.8,162.583 C117.8,162.031 117.352,161.583 116.8,161.583 C116.248,161.583 115.8,162.031 115.8,162.583 L115.8,183.68 L115.166,183.504 C112.081,182.649 108.597,181.48 104.812,180.03 L104.49,179.907 L104.49,161.583 C104.49,161.031 104.042,160.583 103.49,160.583 C102.938,160.583 102.49,161.031 102.49,161.583 L102.49,179.114 L101.803,178.836 C98.672,177.572 95.312,176.106 91.53,174.357 L91.24,174.222 L91.24,162.583 C91.24,162.273 91.094,161.977 90.848,161.791 C90.673,161.654 90.458,161.581 90.235,161.581 C90.145,161.581 90.056,161.592 89.969,161.616 L74.591,165.868 L74.414,165.773 C69.547,163.164 66.31,161.302 65.71,160.956 L65.568,160.875 L65.503,160.725 C55.691,138.589 47.918,107.017 47.063,103.49 L47.028,103.344 L47.08,103.203 C51.287,91.587 61.271,69.367 80.858,51.047 L80.971,50.942 L81.123,50.918 C89.278,49.647 102.611,48.882 116.79,48.873 C127.29,48.882 137.46,49.302 145.43,50.054 C148.18,50.32 150.48,50.599 152.46,50.909 L152.61,50.933 L152.72,51.038 C172.31,69.37 182.3,91.589 186.51,103.203 L186.56,103.344 L186.53,103.491 C185.13,109.247 177.68,139.061 168.09,160.725 L168.02,160.875 L167.88,160.956 C167.28,161.303 164.03,163.17 159.18,165.773 L159,165.868 L143.62,161.614 C143.53,161.592 143.45,161.581 143.35,161.581 C143.13,161.581 142.92,161.653 142.75,161.786 C142.5,161.977 142.35,162.273 142.35,162.583 L142.35,174.222 L142.06,174.357 C138.28,176.106 134.92,177.572 131.79,178.836 L131.1,179.114 L131.1,161.583 C131.1,161.031 130.65,160.583 130.1,160.583 C129.55,160.583 129.1,161.031 129.1,161.583 L129.1,179.907 L128.78,180.03 C125,181.477 121.52,182.646 118.434,183.504 L117.8,183.681 L117.8,162.583 L117.8,162.583 Z" id="Fill-64" fill="#FFF4D6"></path>
        <path d="M148.34,48.349 C147.47,48.25 146.56,48.16 145.62,48.071 C137.55,47.298 127.31,46.873 116.79,46.873 C105.063,46.873 93.562,47.411 85.235,48.349 L83.606,48.533 L84.855,47.471 C88.272,44.568 91.839,41.894 95.456,39.525 C102.087,35.181 109.21,31.6 116.628,28.882 L116.8,28.82 L116.972,28.882 C128.5,33.107 139.18,39.361 148.72,47.471 L149.97,48.534 L148.34,48.349 L148.34,48.349 Z M88.524,172.934 C85.197,171.343 81.753,169.621 78.288,167.816 L77.161,167.229 L89.24,163.896 L89.24,173.276 L88.524,172.934 L88.524,172.934 Z M144.35,163.896 L156.43,167.229 L155.3,167.816 C151.85,169.615 148.41,171.336 145.07,172.934 L144.35,173.276 L144.35,163.896 L144.35,163.896 Z" id="Fill-65" fill="#788294"></path>
        <path d="M76.49,121.913 C74.561,121.913 72.99,123.483 72.99,125.413 C72.99,127.342 74.561,128.913 76.49,128.913 C78.42,128.913 79.99,127.342 79.99,125.413 C79.99,123.483 78.42,121.913 76.49,121.913 L76.49,121.913 Z M74.46,140.913 C68.764,140.913 64.13,136.279 64.13,130.583 L64.13,107.252 C64.13,101.551 68.764,96.913 74.46,96.913 C80.161,96.913 84.8,101.551 84.8,107.252 L84.8,130.583 C84.8,136.279 80.161,140.913 74.46,140.913 L74.46,140.913 Z M157.1,121.913 C155.17,121.913 153.6,123.483 153.6,125.413 C153.6,127.342 155.17,128.913 157.1,128.913 C159.03,128.913 160.6,127.342 160.6,125.413 C160.6,123.483 159.03,121.913 157.1,121.913 L157.1,121.913 Z M159.13,140.913 C153.43,140.913 148.8,136.279 148.8,130.583 L148.8,107.252 C148.8,101.551 153.43,96.913 159.13,96.913 C164.83,96.913 169.46,101.551 169.46,107.252 L169.46,130.583 C169.46,136.279 164.83,140.913 159.13,140.913 L159.13,140.913 Z M109.524,147.413 L116.8,130.859 L124.07,147.413 L109.524,147.413 L109.524,147.413 Z" id="Fill-66" fill="#D95849"></path>
        <path d="M18.411,182.185 C17.81,182.185 17.311,182.084 16.93,181.886 C15.796,181.293 16.201,179.403 16.74,177.921 C20.395,167.723 30.987,157.287 35.372,153.273 L36.111,152.597 L36.208,153.594 C36.861,160.33 37.919,165.731 39.442,170.109 L39.534,170.374 L39.355,170.59 C35.254,175.575 23.313,182.185 18.411,182.185 L18.411,182.185 L18.411,182.185 Z M215.18,182.185 C210.29,182.185 198.35,175.576 194.23,170.591 L194.05,170.374 L194.15,170.108 C195.67,165.768 196.72,160.367 197.38,153.594 L197.48,152.597 L198.22,153.273 C202.6,157.287 213.2,167.723 216.85,177.923 C217.39,179.402 217.8,181.292 216.66,181.886 C216.28,182.085 215.78,182.185 215.18,182.185 L215.18,182.185 Z M117.8,185.738 L118.171,185.639 C134.85,181.203 156.63,169.564 165.22,164.766 L166.61,163.985 L165.91,165.423 C163.98,169.353 162.09,172.663 160.28,175.257 C160.12,175.479 160.07,175.745 160.11,176.007 C160.16,176.271 160.31,176.5 160.52,176.652 C160.7,176.77 160.89,176.833 161.1,176.833 C161.43,176.833 161.74,176.674 161.92,176.409 C173.51,159.728 183.55,123.403 187.34,108.559 L187.78,106.814 L188.3,108.539 C188.63,109.646 188.86,110.494 188.88,110.613 C188.99,111.023 189.39,111.337 189.85,111.337 C189.93,111.337 190.01,111.328 190.09,111.307 C190.62,111.173 190.95,110.629 190.81,110.093 C190.78,109.936 187,94.583 175.82,76.324 C169.63,66.208 162.31,57.193 154.08,49.529 C153.92,49.327 153.8,49.216 153.68,49.145 L153.63,49.118 L153.59,49.081 C142.76,39.118 130.5,31.625 117.131,26.813 L116.798,26.693 L116.456,26.814 C108.727,29.601 101.299,33.314 94.385,37.85 C89.374,41.131 84.538,44.91 80.009,49.081 L79.964,49.122 L79.911,49.15 C79.786,49.219 79.669,49.325 79.575,49.456 C71.281,57.193 63.965,66.208 57.767,76.325 C46.831,94.193 42.936,109.453 42.775,110.093 C42.642,110.629 42.967,111.173 43.501,111.307 C43.569,111.325 43.646,111.333 43.74,111.333 C44.202,111.333 44.604,111.02 44.715,110.572 C44.727,110.488 44.963,109.632 45.302,108.526 L45.825,106.818 L46.265,108.549 C50.031,123.378 60.046,159.676 71.67,176.408 C71.854,176.674 72.161,176.833 72.49,176.833 C72.695,176.833 72.895,176.77 73.065,176.652 C73.284,176.5 73.432,176.271 73.478,176.007 C73.524,175.745 73.466,175.479 73.312,175.26 C71.49,172.643 69.6,169.334 67.69,165.422 L66.99,163.987 L68.384,164.766 C76.756,169.447 98.023,180.829 114.643,185.42 C114.889,185.494 115.117,185.555 115.345,185.617 L115.714,185.716 L115.8,186.123 L115.8,190.913 L115.3,190.913 C98.47,190.903 85.146,190.677 74.828,189.61 C70.054,189.112 66.073,188.457 62.659,187.608 C56.565,186.097 52.106,183.958 48.628,180.876 C38.728,172.101 37.13,155.621 37.13,119.583 C37.13,70.951 58.823,41.874 77.021,26.045 C95.543,9.935 114.548,3.819 116.653,3.174 L116.8,3.13 L116.946,3.175 C119.055,3.822 138.08,9.959 156.57,26.045 C174.77,41.873 196.46,70.949 196.46,119.583 C196.46,155.621 194.86,172.101 184.96,180.876 C181.48,183.958 177.02,186.097 170.93,187.608 C167.52,188.457 163.54,189.112 158.76,189.61 C148.44,190.677 135.12,190.903 118.3,190.913 L117.8,190.913 L117.8,185.738 L117.8,185.738 Z M81.46,217.083 C76.631,217.083 71.46,206.968 71.46,191.913 L71.468,191.793 L71.468,191.225 L72.033,191.287 C72.878,191.395 73.742,191.496 74.625,191.575 C79.188,192.057 84.531,192.393 90.967,192.602 L91.46,192.619 L91.45,193.112 C91.317,200.062 90.043,206.421 87.862,211.017 C85.996,214.928 83.723,217.083 81.46,217.083 L81.46,217.083 Z M152.13,217.083 C148.78,217.083 145.43,212.27 143.59,204.822 C142.72,201.261 142.23,197.321 142.14,193.113 L142.13,192.619 L142.62,192.602 C149.06,192.393 154.4,192.057 158.96,191.576 C159.85,191.496 160.72,191.395 161.57,191.287 L162.13,191.214 L162.13,191.913 C162.13,206.968 156.96,217.083 152.13,217.083 L152.13,217.083 Z" id="Fill-67" fill="#515163"></path>
        <path d="M15.83,218.583 C15.83,219.413 15.16,220.083 14.33,220.083 L1.8,220.083 C0.97,220.083 0.3,219.413 0.3,218.583 C0.3,217.752 0.97,217.083 1.8,217.083 L14.33,217.083 C15.16,217.083 15.83,217.752 15.83,218.583 L15.83,218.583 Z M80.49,125.413 C80.49,127.623 78.7,129.413 76.49,129.413 C74.28,129.413 72.49,127.623 72.49,125.413 C72.49,123.203 74.28,121.413 76.49,121.413 C78.7,121.413 80.49,123.203 80.49,125.413 L80.49,125.413 Z M84.3,130.583 C84.3,136.002 79.88,140.413 74.46,140.413 C69.04,140.413 64.63,136.002 64.63,130.583 L64.63,107.252 C64.63,101.833 69.04,97.413 74.46,97.413 C79.88,97.413 84.3,101.833 84.3,107.252 L84.3,130.583 L84.3,130.583 Z M74.46,94.413 C67.39,94.413 61.63,100.172 61.63,107.252 L61.63,130.583 C61.63,137.663 67.39,143.413 74.46,143.413 C81.54,143.413 87.3,137.663 87.3,130.583 L87.3,107.252 C87.3,100.172 81.54,94.413 74.46,94.413 L74.46,94.413 Z M116.8,132.102 L123.3,146.913 L110.29,146.913 L116.8,132.102 L116.8,132.102 Z M107.99,149.913 L125.6,149.913 C126.1,149.913 126.58,149.663 126.85,149.233 C127.13,148.813 127.17,148.273 126.97,147.813 L118.17,127.773 C117.93,127.222 117.39,126.873 116.8,126.873 C116.2,126.873 115.66,127.222 115.42,127.773 L106.62,147.813 C106.42,148.273 106.46,148.813 106.74,149.233 C107.02,149.663 107.49,149.913 107.99,149.913 L107.99,149.913 Z M153.1,125.413 C153.1,123.203 154.89,121.413 157.1,121.413 C159.31,121.413 161.1,123.203 161.1,125.413 C161.1,127.623 159.31,129.413 157.1,129.413 C154.89,129.413 153.1,127.623 153.1,125.413 L153.1,125.413 Z M149.3,107.252 C149.3,101.833 153.71,97.413 159.13,97.413 C164.55,97.413 168.96,101.833 168.96,107.252 L168.96,130.583 C168.96,136.002 164.55,140.413 159.13,140.413 C153.71,140.413 149.3,136.002 149.3,130.583 L149.3,107.252 L149.3,107.252 Z M159.13,143.413 C166.21,143.413 171.96,137.663 171.96,130.583 L171.96,107.252 C171.96,100.172 166.21,94.413 159.13,94.413 C152.05,94.413 146.3,100.172 146.3,107.252 L146.3,130.583 C146.3,137.663 152.05,143.413 159.13,143.413 L159.13,143.413 Z M152.13,216.583 C149.13,216.583 145.89,212.052 144.08,204.703 C143.26,201.373 142.73,197.443 142.64,193.102 C148.77,192.903 154.19,192.583 159.01,192.073 C159.9,191.993 160.78,191.892 161.63,191.783 L161.63,191.913 C161.63,206.453 156.62,216.583 152.13,216.583 L152.13,216.583 Z M86.74,217.083 C88.03,215.783 89.2,214.012 90.2,211.863 C92.41,207.132 93.81,200.583 93.95,193.193 C100.72,193.363 108.3,193.413 116.8,193.413 C125.29,193.413 132.87,193.363 139.64,193.193 C139.72,197.632 140.27,201.773 141.18,205.403 C142.44,210.542 144.43,214.642 146.86,217.083 L86.74,217.083 L86.74,217.083 Z M81.46,216.583 C76.97,216.583 71.96,206.453 71.96,191.913 C71.96,191.873 71.97,191.823 71.97,191.783 C72.82,191.892 73.69,191.993 74.58,192.073 C79.4,192.583 84.82,192.903 90.95,193.102 C90.81,200.483 89.38,206.653 87.41,210.802 C85.66,214.472 83.5,216.583 81.46,216.583 L81.46,216.583 Z M155.07,167.373 C151.98,168.983 148.51,170.733 144.85,172.483 L144.85,164.552 L155.07,167.373 L155.07,167.373 Z M85.18,47.852 C88.45,45.073 91.96,42.413 95.73,39.943 C102.02,35.823 109.02,32.203 116.8,29.352 C129.24,33.913 139.68,40.443 148.4,47.852 C147.52,47.752 146.61,47.663 145.67,47.573 C137.73,46.813 127.53,46.373 116.79,46.373 C104.78,46.373 93.43,46.922 85.18,47.852 L85.18,47.852 Z M88.74,164.552 L88.74,172.483 C85.08,170.733 81.61,168.983 78.52,167.373 L88.74,164.552 L88.74,164.552 Z M103.49,160.083 C102.67,160.083 101.99,160.752 101.99,161.583 L101.99,178.373 C98.55,176.983 95.09,175.453 91.74,173.903 L91.74,162.583 C91.74,162.113 91.52,161.672 91.15,161.392 C90.78,161.102 90.29,161.012 89.84,161.132 L74.65,165.333 C70.23,162.962 67.05,161.153 65.96,160.523 C56.2,138.502 48.56,107.542 47.55,103.373 C51.65,92.052 61.61,69.733 81.2,51.413 C89.35,50.142 102.58,49.382 116.79,49.373 C127.45,49.382 137.55,49.813 145.38,50.552 C147.98,50.802 150.34,51.083 152.38,51.403 C171.97,69.733 181.94,92.063 186.04,103.373 C185.02,107.583 177.38,138.512 167.63,160.523 C166.54,161.153 163.36,162.962 158.94,165.333 L143.75,161.132 C143.3,161.012 142.81,161.102 142.44,161.392 C142.07,161.672 141.85,162.113 141.85,162.583 L141.85,173.903 C138.5,175.453 135.04,176.983 131.6,178.373 L131.6,161.583 C131.6,160.752 130.93,160.083 130.1,160.083 C129.27,160.083 128.6,160.752 128.6,161.583 L128.6,179.563 C125.05,180.922 121.57,182.113 118.3,183.023 L118.3,162.583 C118.3,161.752 117.62,161.083 116.8,161.083 C115.97,161.083 115.3,161.752 115.3,162.583 L115.3,183.023 C112.02,182.113 108.54,180.922 104.99,179.563 L104.99,161.583 C104.99,160.752 104.32,160.083 103.49,160.083 L103.49,160.083 Z M62.78,187.123 C56.85,185.653 52.38,183.533 48.96,180.502 C39.2,171.852 37.63,155.462 37.63,119.583 C37.63,71.132 59.23,42.182 77.35,26.422 C95.48,10.653 113.86,4.552 116.8,3.653 C119.73,4.552 138.11,10.653 156.24,26.422 C174.36,42.182 195.96,71.132 195.96,119.583 C195.96,155.462 194.39,171.852 184.63,180.502 C181.21,183.533 176.74,185.653 170.81,187.123 C167.31,187.993 163.31,188.632 158.71,189.113 C148.47,190.172 135.29,190.403 118.3,190.413 L118.3,186.123 C134.88,181.712 156.51,170.203 165.46,165.203 C163.64,168.913 161.77,172.243 159.87,174.972 C159.39,175.653 159.56,176.592 160.24,177.063 C160.5,177.243 160.8,177.333 161.1,177.333 C161.57,177.333 162.04,177.113 162.33,176.693 C174.1,159.752 184.33,122.382 187.82,108.682 C188.19,109.913 188.38,110.632 188.39,110.693 C188.59,111.502 189.41,111.993 190.21,111.792 C191.01,111.592 191.5,110.773 191.3,109.972 C191.15,109.333 187.29,94.102 176.25,76.063 C171.17,67.773 164.03,58.113 154.42,49.163 C154.29,48.983 154.12,48.823 153.93,48.712 C144.3,39.852 132.24,31.722 117.3,26.342 L116.8,26.163 L116.29,26.342 C108.05,29.313 100.68,33.123 94.11,37.432 C88.78,40.922 83.98,44.743 79.67,48.712 C79.47,48.823 79.3,48.983 79.17,49.163 C69.56,58.113 62.42,67.773 57.34,76.063 C46.3,94.102 42.45,109.333 42.29,109.972 C42.09,110.773 42.58,111.592 43.38,111.792 C43.5,111.823 43.62,111.833 43.74,111.833 C44.42,111.833 45.03,111.373 45.2,110.693 C45.21,110.632 45.4,109.913 45.78,108.672 C49.26,122.373 59.49,159.752 71.26,176.693 C71.55,177.113 72.02,177.333 72.49,177.333 C72.79,177.333 73.09,177.243 73.35,177.063 C74.03,176.592 74.2,175.653 73.72,174.972 C71.82,172.243 69.95,168.913 68.14,165.203 C76.94,170.123 98.04,181.352 114.51,185.903 C114.78,185.983 115.04,186.052 115.3,186.123 L115.3,190.413 C98.3,190.403 85.12,190.172 74.88,189.113 C70.28,188.632 66.28,187.993 62.78,187.123 L62.78,187.123 Z M17.16,181.443 C16.28,180.983 16.9,178.943 17.21,178.092 C20.88,167.852 31.82,157.203 35.71,153.642 C36.35,160.233 37.38,165.703 38.97,170.273 C34.41,175.813 20.37,183.113 17.16,181.443 L17.16,181.443 Z M216.38,178.092 C216.69,178.943 217.31,180.983 216.43,181.443 C213.21,183.113 199.19,175.813 194.62,170.273 C196.22,165.703 197.24,160.233 197.88,153.642 C201.77,157.203 212.71,167.852 216.38,178.092 L216.38,178.092 Z M231.8,217.083 L212.09,217.083 L204.57,212.422 L196.91,217.083 L157.4,217.083 C161.7,212.752 164.63,203.233 164.63,191.913 C164.63,191.733 164.62,191.552 164.62,191.373 C167.09,190.993 169.38,190.542 171.5,190.012 C177.94,188.432 182.82,186.113 186.62,182.743 C189.5,180.203 191.7,177.123 193.4,173.352 C198.29,178.233 208.95,184.653 215.16,184.653 C216.18,184.653 217.08,184.483 217.81,184.102 C219.32,183.323 220.78,181.462 219.21,177.073 C214.46,163.852 199.09,150.663 198.43,150.102 C198.36,150.042 198.28,149.993 198.2,149.953 C198.82,141.602 198.96,131.613 198.96,119.583 C198.96,69.943 176.75,40.243 158.11,24.073 C137.92,6.552 118.04,0.873 117.2,0.632 L116.8,0.523 L116.39,0.632 C115.56,0.873 95.67,6.552 75.48,24.073 C56.84,40.243 34.63,69.943 34.63,119.583 C34.63,131.613 34.77,141.602 35.39,149.953 C35.31,149.993 35.23,150.042 35.16,150.102 C34.51,150.663 19.13,163.852 14.38,177.073 C12.81,181.462 14.27,183.323 15.78,184.102 C16.51,184.483 17.41,184.653 18.43,184.653 C24.64,184.653 35.31,178.233 40.19,173.352 C41.89,177.123 44.1,180.203 46.97,182.743 C50.77,186.113 55.65,188.432 62.09,190.012 C64.21,190.542 66.5,190.993 68.97,191.373 C68.97,191.552 68.96,191.733 68.96,191.913 C68.96,203.233 71.89,212.752 76.19,217.083 L27.66,217.083 C26.83,217.083 26.16,217.752 26.16,218.583 C26.16,219.413 26.83,220.083 27.66,220.083 L197.75,220.083 L204.55,215.943 L211.23,220.083 L231.8,220.083 C232.62,220.083 233.3,219.413 233.3,218.583 C233.3,217.752 232.62,217.083 231.8,217.083 L231.8,217.083 Z" id="Fill-68" fill="#3B3B4D"></path>
    </g>
</svg>