<?xml version="1.0" encoding="UTF-8" standalone="no"?>
<svg width="234px" height="186px" viewBox="0 0 234 186" version="1.1" xmlns="http://www.w3.org/2000/svg" xmlns:xlink="http://www.w3.org/1999/xlink">
    <!-- Generator: Sketch 39.1 (31720) - http://www.bohemiancoding.com/sketch -->
    <title>Slice 1</title>
    <desc>Created with Sketch.</desc>
    <defs></defs>
    <g id="Page-1" stroke="none" stroke-width="1" fill="none" fill-rule="evenodd">
        <path d="M113.487,107.93 C112.978,107.93 112.577,107.89 112.297,107.81 L112.03,107.74 L111.951,107.48 C111.656,106.49 111.563,103.7 111.6,101.36 L111.607,100.95 L112.015,100.88 C113.612,100.6 115.229,100.46 116.82,100.46 C117.175,100.46 117.521,100.47 117.866,100.48 L118.282,100.5 L118.344,100.91 C118.628,102.78 118.88,105.98 118.412,107.1 L118.307,107.36 L118.039,107.4 C116.109,107.75 114.578,107.93 113.488,107.93 L113.487,107.93 L113.487,107.93 Z M133.793,113.3 C132.423,112.78 129.903,111.29 129.224,110.6 L129.075,110.45 L129.08,110.24 C129.104,109.27 129.746,106.68 130.338,104.58 L130.512,103.96 L131.066,104.28 C132.905,105.32 134.645,106.55 136.238,107.94 L136.487,108.15 L136.386,108.47 C135.729,110.51 134.921,112.38 134.374,113.13 L134.149,113.44 L133.793,113.3 L133.793,113.3 Z M97.554,114.67 C96.94,113.97 96.301,111.56 95.986,109.54 L95.946,109.28 L96.134,109.1 C97.895,107.41 99.822,105.93 101.861,104.69 L102.355,104.4 L102.581,104.93 C103.487,107.07 104.521,109.82 104.705,111.13 L104.755,111.49 L104.438,111.65 C104.012,111.86 103.465,112.17 102.716,112.62 C100.772,113.75 98.853,114.8 97.952,114.84 L97.712,114.85 L97.554,114.67 L97.554,114.67 Z M127.259,130.36 C125.802,129.56 123.56,128.42 120.918,127.82 L120.389,127.7 L120.553,127.18 C120.837,126.28 121.826,123.25 122.593,121.99 L122.758,121.72 L123.074,121.76 C124.153,121.87 126.421,123.1 129.634,125.32 L129.85,125.47 L129.85,125.78 L129.841,125.84 C129.684,126.64 129.027,128.13 127.941,130.16 L127.702,130.6 L127.259,130.36 L127.259,130.36 Z" id="Fill-75" fill="#FFF4D6"></path>
        <path d="M77.49,71.313 C75.561,71.313 73.99,72.883 73.99,74.813 C73.99,76.743 75.561,78.313 77.49,78.313 C79.42,78.313 80.99,76.743 80.99,74.813 C80.99,72.883 79.42,71.313 77.49,71.313 L77.49,71.313 Z M74.49,106.83 C68.794,106.83 64.16,102.2 64.16,96.5 L64.16,73.163 C64.16,67.466 68.794,62.833 74.49,62.833 C80.186,62.833 84.82,67.466 84.82,73.163 L84.82,96.5 C84.82,102.2 80.186,106.83 74.49,106.83 L74.49,106.83 Z M156.16,91.96 C154.23,91.96 152.66,93.53 152.66,95.46 C152.66,97.39 154.23,98.96 156.16,98.96 C158.09,98.96 159.66,97.39 159.66,95.46 C159.66,93.53 158.09,91.96 156.16,91.96 L156.16,91.96 Z M159.16,106.83 C153.458,106.83 148.82,102.2 148.82,96.5 L148.82,73.163 C148.82,67.466 153.458,62.833 159.16,62.833 C164.856,62.833 169.49,67.466 169.49,73.163 L169.49,96.5 C169.49,102.2 164.856,106.83 159.16,106.83 L159.16,106.83 Z" id="Fill-76" fill="#F3B130"></path>
        <path d="M136.65,134.58 C134.408,134.58 132.191,133.26 129.844,131.86 L129.433,131.62 L129.66,131.19 C132.042,126.77 132.453,124.81 131.173,123.96 L130.776,123.68 C127.959,121.73 124.809,119.74 122.791,119.74 C122.094,119.74 121.591,119.97 121.206,120.47 C120.195,121.78 119.076,125.15 118.498,127.04 L118.384,127.41 L117.995,127.39 C117.595,127.37 117.212,127.35 116.82,127.35 C111.36,127.35 107.278,129.78 103.999,131.74 C101.441,133.27 99.25,134.58 97,134.58 C94.58,134.58 92.212,132.6 90.821,129.4 C89.014,125.25 88.646,118.17 93.557,111.9 L94.196,111.09 L94.437,112.1 C95.017,114.53 95.826,116.08 96.777,116.59 C97.096,116.76 97.445,116.84 97.84,116.84 C99.314,116.84 101.375,115.71 103.719,114.35 C104.703,113.78 105.402,113.37 105.722,113.27 C106.104,113.14 106.394,112.87 106.561,112.48 C106.844,111.83 106.928,109.85 104.313,103.9 L104.116,103.46 L104.558,103.25 C106.003,102.57 107.48,102.01 108.95,101.58 L109.597,101.39 L109.59,102.07 C109.539,107.01 110.116,108.5 110.465,108.95 C110.985,109.62 111.962,109.93 113.54,109.93 C114.804,109.93 116.487,109.73 118.687,109.31 C119.043,109.25 119.545,109.05 119.943,108.45 C120.699,107.33 120.869,104.8 120.424,101.34 L120.34,100.68 L120.992,100.78 C123.479,101.14 125.936,101.85 128.291,102.88 L128.693,103.06 L128.569,103.48 C126.646,110.03 127.107,110.97 127.258,111.28 C127.993,112.74 132.446,115.07 133.851,115.42 C133.99,115.46 134.136,115.49 134.3,115.49 C135.42,115.48 136.68,113.69 137.839,110.44 L138.105,109.7 L138.902,110.5 C145.019,117.07 144.838,124.78 142.829,129.4 C141.438,132.6 139.07,134.58 136.65,134.58" id="Fill-77" fill="#DB807E"></path>
        <path d="M126.188,13.158 C125.826,12.12 125.332,11.143 124.719,10.256 C123.792,8.904 122.646,7.828 121.31,7.055 L120.71,6.708 L121.228,6.249 C122.447,5.167 124.644,3.805 128.182,3.464 C128.656,3.418 129.104,3.397 129.53,3.397 C132.835,3.397 134.75,4.687 135.773,5.769 L136.198,6.218 L135.67,6.54 C133.086,8.112 132.119,10.457 131.772,11.715 L131.652,12.151 L131.207,12.076 C130.957,12.034 130.7,12.012 130.443,12.012 C129.835,12.012 129.341,12.129 129.032,12.229 C128.336,12.449 127.626,12.846 126.978,13.379 L126.424,13.833 L126.188,13.158 L126.188,13.158 Z M165.136,32.226 C162.969,32.226 160.665,32.12 158.286,31.911 C149.327,31.125 143.755,29.307 142.348,28.345 L142.063,28.151 L142.144,27.815 C142.489,26.379 142.248,25.234 142.128,24.807 C142.01,24.381 141.617,24.083 141.172,24.083 C141.08,24.083 140.988,24.097 140.897,24.123 C140.365,24.27 140.055,24.825 140.202,25.36 C140.575,26.646 140.381,29.144 137.276,30.31 C135.456,31 133.572,31.349 131.678,31.349 C128.58,31.349 125.995,30.41 124.372,29.623 L123.368,29.135 L124.399,28.71 C125.615,28.208 126.7,27.589 127.623,26.869 C127.83,26.706 127.962,26.468 127.994,26.202 C128.025,25.934 127.952,25.671 127.787,25.461 C127.597,25.221 127.309,25.083 126.999,25.083 C126.831,25.083 126.663,25.125 126.514,25.204 C126.485,25.221 126.44,25.244 126.396,25.282 C125.008,26.378 123.165,27.191 120.902,27.709 C120.764,27.727 120.712,27.738 120.666,27.756 C118.663,28.19 116.418,28.398 113.913,28.398 C109.828,28.398 104.986,27.851 99.523,26.773 C91.839,25.258 88.425,20.904 86.914,17.517 C86.197,15.928 85.949,14.638 85.876,14.158 L85.851,13.996 L85.927,13.85 C86.673,12.426 89.658,7.73 96.764,7.075 C96.916,7.061 97.066,7.054 97.216,7.054 C100.754,7.054 103.692,10.629 104.116,13.837 C104.559,17.17 102.329,19.513 97.996,20.265 C97.732,20.31 97.504,20.454 97.352,20.67 C97.197,20.889 97.137,21.154 97.183,21.417 C97.269,21.9 97.684,22.252 98.17,22.252 C98.212,22.252 98.261,22.247 98.296,22.238 C100.996,21.776 103.03,20.792 104.38,19.306 L104.841,18.798 L105.183,19.392 C105.509,19.958 105.859,20.425 106.253,20.819 C107.737,22.322 109.838,23.083 112.5,23.083 C113.051,23.083 113.5,22.634 113.5,22.083 C113.5,21.531 113.051,21.083 112.5,21.083 C110.405,21.083 108.792,20.532 107.707,19.446 C106.178,17.917 106.16,15.792 106.16,15.703 C106.16,15.616 106.153,15.551 106.138,15.495 L106.114,15.408 L106.136,15.191 C106.143,15.138 106.15,15.085 106.15,15.033 L106.15,14.913 L106.204,14.806 C106.716,13.799 109.594,8.737 115.956,7.907 C116.291,7.867 116.607,7.847 116.913,7.847 C117.25,7.847 117.589,7.871 117.919,7.917 C118.276,7.976 118.555,8.04 118.799,8.116 L118.877,8.135 C120.93,8.766 122.291,10.248 123.072,11.378 C125.063,14.288 125.503,18.238 124.119,20.772 C123.989,21.008 123.96,21.279 124.036,21.535 C124.111,21.789 124.282,21.997 124.516,22.123 C124.672,22.21 124.829,22.252 124.99,22.252 C125.357,22.252 125.694,22.05 125.87,21.725 C126.555,20.489 126.91,18.914 126.9,17.166 C126.926,16.966 126.926,16.897 126.922,16.86 L126.915,16.784 L126.931,16.709 C127.091,15.95 128.421,14.319 130.024,14.041 C130.168,14.014 130.314,14.001 130.458,14.001 C131.649,14.001 132.713,14.861 133.621,16.556 C133.794,16.88 134.13,17.082 134.5,17.082 C134.667,17.082 134.826,17.041 134.975,16.961 C135.458,16.703 135.64,16.096 135.379,15.608 C134.88,14.682 134.331,13.95 133.702,13.371 L133.503,13.188 L133.546,12.922 C133.655,12.251 133.924,11.24 134.594,10.235 C135.409,9.032 136.569,8.141 138.043,7.584 L138.129,7.552 L138.14,7.552 C138.772,7.32 139.451,7.151 140.158,7.047 C140.984,6.92 141.821,6.856 142.643,6.856 C145.745,6.856 148.521,7.752 150.461,9.379 C152.095,10.768 153.03,12.596 153.169,14.669 L153.178,14.813 L153.11,14.94 C152.323,16.395 151.838,17.988 151.667,19.673 C151.615,20.214 152.021,20.706 152.574,20.765 C152.61,20.769 152.646,20.771 152.681,20.771 C153.182,20.771 153.613,20.373 153.663,19.865 C153.957,16.881 155.345,14.374 157.572,12.804 C158.974,11.824 160.592,11.306 162.252,11.306 C162.922,11.306 163.599,11.391 164.262,11.557 C168.106,12.513 169.838,16.434 170.528,18.686 L170.662,19.123 L170.239,19.295 C169.655,19.534 168.958,19.827 168.221,20.191 C167.982,20.307 167.806,20.508 167.721,20.76 C167.636,21.013 167.653,21.284 167.77,21.524 C167.938,21.867 168.281,22.081 168.663,22.081 C168.817,22.081 168.966,22.045 169.106,21.975 C170.76,21.158 172.344,20.57 173.816,20.225 C174.877,19.975 175.895,19.848 176.838,19.848 C179.317,19.848 181.343,20.75 182.396,22.324 C183.699,24.268 183.265,26.807 181.34,28.499 C178.599,30.903 172.844,32.226 165.136,32.226 L165.136,32.226 Z" id="Fill-78" fill="#EEA2AC"></path>
        <path d="M18.45,148.1 C17.844,148.1 17.342,148 16.958,147.8 C16.072,147.33 16.004,146 16.758,143.84 C20.419,133.66 31.009,123.21 35.392,119.18 L36.129,118.51 L36.228,119.5 C36.897,126.29 37.958,131.69 39.472,136.02 L39.565,136.28 L39.386,136.5 C35.273,141.49 23.338,148.1 18.45,148.1 L18.45,148.1 Z M215.2,148.1 C210.303,148.1 198.368,141.49 194.264,136.5 L194.085,136.28 L194.178,136.02 C195.7,131.65 196.758,126.24 197.413,119.5 L197.509,118.51 L198.248,119.18 C202.637,123.21 213.237,133.68 216.881,143.83 C217.415,145.32 217.816,147.21 216.691,147.8 C216.308,148 215.806,148.1 215.2,148.1 L215.2,148.1 Z M74.49,60.833 C67.691,60.833 62.16,66.364 62.16,73.163 L62.16,96.5 C62.16,103.3 67.691,108.83 74.49,108.83 C81.289,108.83 86.82,103.3 86.82,96.5 L86.82,73.163 C86.82,66.364 81.289,60.833 74.49,60.833 L74.49,60.833 Z M159.16,60.833 C152.355,60.833 146.82,66.364 146.82,73.163 L146.82,96.5 C146.82,103.3 152.355,108.83 159.16,108.83 C165.959,108.83 171.49,103.3 171.49,96.5 L171.49,73.163 C171.49,66.364 165.959,60.833 159.16,60.833 L159.16,60.833 Z M116.82,129.35 C121.74,129.35 125.246,131.45 128.636,133.47 C131.309,135.07 133.832,136.58 136.65,136.58 C139.929,136.58 142.923,134.19 144.662,130.19 C146.913,125.03 147.141,116.42 140.375,109.15 C139.782,108.51 139.137,107.87 138.343,107.14 C138.299,107.1 138.272,107.07 138.238,107.04 C135.835,104.85 133.213,103.05 130.419,101.67 C126.821,99.91 123.087,98.87 119.25,98.57 L119.071,98.55 C118.323,98.49 117.566,98.46 116.82,98.46 C114.745,98.46 112.644,98.68 110.573,99.11 L110.444,99.14 C107.707,99.72 105.012,100.71 102.434,102.07 L102.324,102.13 L102.313,102.13 C98.984,103.91 95.94,106.28 93.266,109.15 C86.508,116.42 86.738,125.03 88.988,130.19 C90.727,134.19 93.721,136.58 97,136.58 C99.809,136.58 102.332,135.07 105.003,133.47 C108.424,131.44 111.92,129.35 116.82,129.35 L116.82,129.35 Z M70.734,137 C72.685,138.85 74.361,140.36 75.859,141.6 C76.087,141.79 76.333,141.83 76.5,141.83 C76.802,141.83 77.08,141.7 77.26,141.48 C77.44,141.26 77.521,141 77.495,140.73 C77.469,140.47 77.345,140.23 77.145,140.07 C75.556,138.75 73.797,137.16 71.764,135.21 L71.443,134.91 L71.71,134.55 C73.226,132.54 74.527,131.27 74.67,131.13 C74.87,130.94 74.981,130.69 74.989,130.42 C74.997,130.15 74.9,129.9 74.718,129.71 C74.525,129.5 74.266,129.39 73.987,129.39 C73.731,129.39 73.489,129.49 73.304,129.66 C72.729,130.23 71.622,131.38 70.346,133.03 L69.999,133.48 L69.597,133.08 C67.278,130.76 64.918,128.29 62.582,125.74 L62.37,125.51 L62.485,125.22 C63.396,122.92 64.499,120.41 65.59,118.14 L65.634,118.05 C65.763,117.78 65.782,117.51 65.693,117.25 C65.608,117.01 65.431,116.81 65.194,116.69 C65.046,116.62 64.896,116.58 64.741,116.58 C64.362,116.58 64.024,116.79 63.86,117.13 C63.845,117.16 62.581,119.71 61.162,123.13 L60.859,123.87 L60.329,123.28 C58.283,121.01 56.1,118.53 53.842,115.92 L53.641,115.69 L53.758,115.4 C55.38,111.45 57.062,108.4 57.17,108.26 C57.392,107.85 57.222,107.23 56.743,106.96 C56.597,106.88 56.427,106.83 56.255,106.83 C55.89,106.83 55.553,107.03 55.375,107.34 C54.914,108.17 53.753,110.34 52.488,113.24 L52.168,113.98 L51.649,113.37 C48.149,109.26 45.831,106.39 45.77,106.31 C45.592,106.09 45.308,105.96 45.002,105.96 C44.771,105.96 44.554,106.04 44.375,106.18 C43.936,106.53 43.869,107.15 44.221,107.59 L44.457,107.88 C45.267,108.87 47.733,111.88 51.13,115.86 L51.323,116.08 L51.217,116.36 C49.683,120.38 48.727,124.03 48.377,127.23 C48.317,127.77 48.715,128.27 49.265,128.33 L49.38,128.33 C49.886,128.33 50.313,127.95 50.374,127.43 C50.65,124.86 51.375,121.9 52.528,118.63 L52.814,117.82 L53.377,118.46 C55.441,120.84 57.616,123.29 59.84,125.74 L60.045,125.96 L59.938,126.25 C58.545,129.96 57.687,133.06 57.386,135.45 C57.351,135.72 57.419,135.98 57.579,136.19 C57.743,136.4 57.983,136.54 58.256,136.58 L58.38,136.58 C58.882,136.58 59.305,136.21 59.363,135.71 C59.606,133.81 60.253,131.35 61.288,128.4 L61.561,127.62 L62.125,128.22 C64.423,130.68 66.583,132.92 68.542,134.87 L68.828,135.15 L68.611,135.49 C67.559,137.14 66.702,138.79 66.065,140.41 C65.965,140.66 65.968,140.93 66.073,141.17 C66.179,141.41 66.374,141.6 66.622,141.7 C66.75,141.75 66.877,141.77 66.99,141.77 C67.402,141.77 67.764,141.52 67.914,141.14 C68.436,139.83 69.105,138.51 69.963,137.1 L70.285,136.57 L70.734,137 L70.734,137 Z M116.82,156.83 C94.402,156.83 79.267,156.48 68.238,154.66 C59.252,153.17 53.028,150.67 48.648,146.79 C47.117,145.43 45.8,143.9 44.622,142.1 C43.472,140.34 42.497,138.37 41.641,136.06 C37.874,125.81 37.16,110.39 37.16,85.502 C37.16,57.167 38.291,40.91 44.472,30.696 C50.52,20.703 61.119,16.427 83.577,14.923 L83.996,14.895 L84.096,15.304 C84.316,16.209 84.623,17.118 85.008,18.003 C86.701,21.959 90.525,27.029 99.137,28.732 C104.723,29.833 109.679,30.391 113.868,30.391 C116.319,30.391 118.556,30.2 120.515,29.822 L120.724,29.782 L120.898,29.904 C122.369,30.941 126.368,33.352 131.7,33.352 C133.815,33.352 135.929,32.959 137.984,32.185 C139.176,31.739 140.147,31.092 140.874,30.263 L141.148,29.95 L141.505,30.163 C142.62,30.825 144.342,31.457 146.624,32.039 C150.5,33.037 157.653,34.203 165.06,34.203 C170.908,34.203 178.708,33.473 182.66,29.998 C183.794,29 184.582,27.758 184.937,26.406 L185.164,25.54 L185.782,26.188 C194.888,35.74 196.49,52.925 196.49,85.502 C196.49,109.79 195.755,125.84 191.999,136.06 C190.346,140.56 188.054,144.07 184.992,146.79 C174.782,155.84 155.46,156.83 116.82,156.83 L116.82,156.83 Z M81.49,183 C76.661,183 71.49,172.89 71.49,157.83 L71.49,157.13 L72.052,157.2 C77.203,157.84 83.4,158.27 90.997,158.52 L91.489,158.54 L91.48,159.03 C91.201,173.37 86.089,183 81.49,183 L81.49,183 Z M152.16,183 C147.553,183 142.438,173.37 142.17,159.03 L142.161,158.54 L142.653,158.52 C150.254,158.27 156.447,157.84 161.588,157.2 L162.15,157.13 L162.15,157.69 C162.156,157.75 162.16,157.79 162.16,157.83 C162.16,172.89 156.989,183 152.16,183 L152.16,183 Z" id="Fill-79" fill="#48A4A3"></path>
        <path d="M72.11,134.85 C73.67,132.78 75,131.5 75.02,131.48 C75.62,130.91 75.65,129.96 75.08,129.36 C74.51,128.76 73.56,128.73 72.96,129.3 C72.86,129.4 71.54,130.66 69.95,132.72 C67.63,130.4 65.25,127.91 62.95,125.4 C64.51,121.47 66.07,118.3 66.09,118.25 C66.46,117.5 66.16,116.6 65.41,116.24 C64.67,115.87 63.77,116.17 63.41,116.91 C63.3,117.13 62.07,119.63 60.7,122.94 C58.38,120.37 56.18,117.86 54.22,115.59 C55.88,111.55 57.52,108.62 57.56,108.57 C57.96,107.85 57.71,106.93 56.99,106.52 C56.27,106.12 55.35,106.37 54.94,107.09 C54.83,107.29 53.51,109.64 52.03,113.04 C48.54,108.94 46.23,106.09 46.17,106.01 C45.65,105.37 44.7,105.27 44.06,105.79 C43.41,106.31 43.31,107.25 43.83,107.9 C44.12,108.25 46.83,111.59 50.75,116.18 C49.47,119.53 48.29,123.43 47.88,127.17 C47.79,127.99 48.39,128.73 49.21,128.82 C49.27,128.83 49.32,128.83 49.38,128.83 C50.13,128.83 50.78,128.26 50.87,127.49 C51.18,124.61 52.02,121.57 53,118.79 C54.98,121.07 57.18,123.55 59.47,126.07 C58.3,129.19 57.24,132.6 56.89,135.39 C56.78,136.21 57.36,136.96 58.19,137.07 C58.25,137.08 58.31,137.08 58.38,137.08 C59.12,137.08 59.77,136.53 59.86,135.77 C60.13,133.65 60.88,131.07 61.76,128.56 C63.89,130.84 66.06,133.1 68.19,135.22 C67.25,136.69 66.33,138.37 65.6,140.22 C65.29,140.99 65.67,141.86 66.44,142.16 C66.62,142.23 66.81,142.27 66.99,142.27 C67.59,142.27 68.15,141.91 68.38,141.32 C68.95,139.89 69.66,138.56 70.39,137.36 C72.18,139.06 73.91,140.63 75.54,141.98 C75.82,142.22 76.16,142.33 76.5,142.33 C76.93,142.33 77.36,142.15 77.65,141.79 C78.18,141.15 78.1,140.2 77.46,139.68 C75.78,138.28 73.98,136.64 72.11,134.85 L72.11,134.85 Z M77.49,70.813 C75.28,70.813 73.49,72.602 73.49,74.813 C73.49,77.023 75.28,78.813 77.49,78.813 C79.7,78.813 81.49,77.023 81.49,74.813 C81.49,72.602 79.7,70.813 77.49,70.813 L77.49,70.813 Z M84.32,73.163 C84.32,67.743 79.91,63.333 74.49,63.333 C69.07,63.333 64.66,67.743 64.66,73.163 L64.66,96.5 C64.66,101.92 69.07,106.33 74.49,106.33 C79.91,106.33 84.32,101.92 84.32,96.5 L84.32,73.163 L84.32,73.163 Z M87.32,96.5 C87.32,103.57 81.57,109.33 74.49,109.33 C67.41,109.33 61.66,103.57 61.66,96.5 L61.66,73.163 C61.66,66.092 67.41,60.333 74.49,60.333 C81.57,60.333 87.32,66.092 87.32,73.163 L87.32,96.5 L87.32,96.5 Z M138.55,110.85 C138.47,110.77 138.39,110.69 138.31,110.61 C136.64,115.28 135.18,115.98 134.3,115.99 C134.07,115.99 133.87,115.94 133.73,115.9 C132.25,115.53 127.65,113.17 126.81,111.5 C126.6,111.07 126.11,110.08 128.09,103.34 C125.79,102.33 123.38,101.63 120.92,101.27 C121.21,103.53 121.46,107.09 120.36,108.72 C119.87,109.46 119.23,109.72 118.78,109.8 C116.57,110.22 114.86,110.43 113.54,110.43 C111.75,110.43 110.68,110.04 110.07,109.25 C109.38,108.36 109.05,105.94 109.09,102.06 C107.62,102.49 106.18,103.04 104.77,103.7 C106.82,108.36 107.58,111.39 107.02,112.68 C106.8,113.19 106.4,113.57 105.88,113.74 C105.58,113.84 104.69,114.36 103.97,114.78 C101.46,116.24 99.43,117.34 97.84,117.34 C97.37,117.34 96.94,117.24 96.54,117.03 C95.24,116.33 94.44,114.26 93.95,112.21 C89.2,118.27 89.47,125.04 91.28,129.2 C92.59,132.21 94.78,134.08 97,134.08 C99.11,134.08 101.25,132.8 103.72,131.32 C107.06,129.33 111.21,126.85 116.82,126.85 C117.23,126.85 117.63,126.87 118.02,126.89 C118.61,124.96 119.75,121.54 120.81,120.16 C122.47,118.01 126.11,119.84 131.06,123.27 L131.45,123.54 C133.18,124.69 132.41,127.14 130.1,131.43 C132.5,132.86 134.59,134.08 136.65,134.08 C138.86,134.08 141.06,132.21 142.37,129.2 C144.32,124.72 144.49,117.23 138.55,110.85 L138.55,110.85 Z M129.35,125.73 C125.16,122.84 123.58,122.31 123.02,122.25 C122.44,123.2 121.64,125.4 121.03,127.33 C123.48,127.89 125.61,128.88 127.5,129.92 C128.85,127.4 129.25,126.25 129.35,125.74 C129.35,125.74 129.35,125.74 129.35,125.73 L129.35,125.73 Z M96.48,109.46 C96.82,111.64 97.45,113.79 97.93,114.34 C98.83,114.3 101.36,112.83 102.46,112.19 C103.13,111.79 103.72,111.45 104.21,111.2 C104.05,110.06 103.14,107.53 102.12,105.12 C100.12,106.33 98.23,107.78 96.48,109.46 L96.48,109.46 Z M112.43,107.33 C112.83,107.44 114.14,107.6 117.95,106.91 C118.32,106.02 118.18,103.16 117.85,100.98 C117.51,100.97 117.17,100.96 116.82,100.96 C115.23,100.96 113.66,101.1 112.1,101.37 C112.06,103.84 112.17,106.46 112.43,107.33 L112.43,107.33 Z M129.58,110.25 C130.17,110.85 132.57,112.3 133.97,112.83 C134.49,112.12 135.28,110.27 135.91,108.31 C134.31,106.92 132.6,105.72 130.82,104.71 C130.16,107.05 129.6,109.42 129.58,110.25 L129.58,110.25 Z M140.74,108.81 C147.67,116.25 147.43,125.09 145.12,130.39 C143.3,134.58 140.13,137.08 136.65,137.08 C133.71,137.08 131.12,135.54 128.38,133.9 C125.05,131.91 121.6,129.85 116.82,129.85 C112.04,129.85 108.6,131.91 105.26,133.9 C102.52,135.54 99.94,137.08 97,137.08 C93.52,137.08 90.35,134.58 88.53,130.39 C86.22,125.09 85.98,116.25 92.9,108.81 C95.67,105.83 98.8,103.43 102.17,101.64 C102.18,101.64 102.19,101.63 102.2,101.63 C104.79,100.26 107.52,99.25 110.34,98.65 C110.36,98.64 110.39,98.64 110.41,98.63 C112.51,98.19 114.65,97.96 116.82,97.96 C117.59,97.96 118.35,97.99 119.11,98.05 C119.17,98.05 119.23,98.06 119.29,98.07 C123.21,98.38 127.01,99.44 130.57,101.19 C130.59,101.2 130.62,101.21 130.64,101.22 C133.46,102.61 136.12,104.43 138.55,106.65 C138.6,106.69 138.64,106.73 138.68,106.77 C139.39,107.42 140.08,108.09 140.74,108.81 L140.74,108.81 Z M156.16,91.46 C153.95,91.46 152.16,93.25 152.16,95.46 C152.16,97.66 153.95,99.46 156.16,99.46 C158.37,99.46 160.16,97.66 160.16,95.46 C160.16,93.25 158.37,91.46 156.16,91.46 L156.16,91.46 Z M168.99,73.163 C168.99,67.743 164.58,63.333 159.16,63.333 C153.73,63.333 149.32,67.743 149.32,73.163 L149.32,96.5 C149.32,101.92 153.73,106.33 159.16,106.33 C164.58,106.33 168.99,101.92 168.99,96.5 L168.99,73.163 L168.99,73.163 Z M171.99,73.163 L171.99,96.5 C171.99,103.57 166.23,109.33 159.16,109.33 C152.08,109.33 146.32,103.57 146.32,96.5 L146.32,73.163 C146.32,66.092 152.08,60.333 159.16,60.333 C166.23,60.333 171.99,66.092 171.99,73.163 L171.99,73.163 Z M216.41,144 C212.74,133.77 201.8,123.12 197.91,119.55 C197.27,126.14 196.24,131.61 194.65,136.18 C199.21,141.72 213.24,149.03 216.46,147.35 C217.34,146.89 216.72,144.86 216.41,144 L216.41,144 Z M195.99,85.502 C195.99,52.983 194.4,35.953 185.42,26.533 C185.05,27.943 184.23,29.283 182.99,30.373 C179.33,33.592 172.29,34.703 165.06,34.703 C158.12,34.703 151,33.682 146.5,32.523 C143.87,31.852 142.26,31.193 141.25,30.592 C140.54,31.403 139.55,32.132 138.16,32.653 C135.88,33.512 133.7,33.852 131.7,33.852 C126.25,33.852 122.1,31.363 120.61,30.313 C115.22,31.352 108.02,30.993 99.04,29.222 C90.09,27.453 86.21,22.083 84.55,18.203 C84.08,17.123 83.79,16.163 83.61,15.422 C41.65,18.233 37.66,30.672 37.66,85.502 C37.66,110.33 38.41,125.82 42.11,135.88 C42.94,138.12 43.9,140.08 45.04,141.82 C46.18,143.56 47.48,145.08 48.98,146.41 C53.39,150.32 59.55,152.71 68.32,154.16 C79.59,156.02 95.16,156.33 116.82,156.33 C155.34,156.33 174.58,155.35 184.66,146.41 C187.66,143.75 189.89,140.35 191.53,135.88 C195.23,125.82 195.99,110.33 195.99,85.502 L195.99,85.502 Z M161.66,157.83 C161.66,157.78 161.65,157.74 161.65,157.69 C156.2,158.37 149.93,158.78 142.67,159.02 C142.93,172.91 147.79,182.5 152.16,182.5 C156.65,182.5 161.66,172.37 161.66,157.83 L161.66,157.83 Z M146.88,183 C142.74,178.83 139.88,169.86 139.67,159.1 C132.9,159.28 125.32,159.33 116.82,159.33 C108.33,159.33 100.75,159.28 93.98,159.1 C93.77,169.86 90.9,178.83 86.76,183 L146.88,183 L146.88,183 Z M90.98,159.02 C83.72,158.78 77.45,158.37 71.99,157.69 L71.99,157.83 C71.99,172.37 77,182.5 81.49,182.5 C85.86,182.5 90.71,172.91 90.98,159.02 L90.98,159.02 Z M39,136.18 C37.4,131.61 36.38,126.14 35.73,119.55 C31.84,123.12 20.91,133.77 17.23,144 C16.93,144.86 16.31,146.89 17.19,147.35 C20.41,149.03 34.43,141.72 39,136.18 L39,136.18 Z M86.37,14.083 C86.46,14.672 86.72,15.873 87.37,17.313 C88.78,20.472 92.06,24.792 99.62,26.283 C108.44,28.023 115.5,28.352 120.48,27.292 C120.58,27.252 120.68,27.233 120.79,27.222 C122.97,26.722 124.74,25.953 126.07,24.903 C126.14,24.842 126.21,24.802 126.28,24.762 C126.92,24.422 127.72,24.573 128.18,25.153 C128.69,25.802 128.58,26.752 127.93,27.262 C126.97,28.012 125.85,28.653 124.59,29.172 C127.31,30.493 131.87,31.823 137.1,29.842 C140.48,28.573 139.81,25.802 139.72,25.493 C139.5,24.693 139.96,23.863 140.76,23.642 C141.56,23.413 142.39,23.882 142.61,24.672 C142.84,25.493 142.93,26.682 142.63,27.932 C144.05,28.903 149.77,30.663 158.33,31.413 C169.12,32.363 177.59,31.123 181.01,28.123 C182.74,26.602 183.14,24.333 181.98,22.602 C180.85,20.913 178.17,19.712 173.93,20.712 C172.56,21.033 171.03,21.583 169.33,22.422 C168.59,22.792 167.69,22.493 167.32,21.743 C166.96,21.002 167.26,20.102 168,19.743 C168.71,19.392 169.39,19.102 170.05,18.833 C169.44,16.842 167.8,12.953 164.14,12.042 C161.95,11.493 159.72,11.913 157.86,13.212 C155.76,14.693 154.44,17.073 154.16,19.913 C154.08,20.743 153.34,21.352 152.52,21.262 C151.69,21.172 151.09,20.443 151.17,19.623 C151.35,17.842 151.87,16.182 152.67,14.703 C152.54,12.762 151.67,11.063 150.14,9.762 C147.78,7.783 144.07,6.953 140.23,7.542 C139.47,7.653 138.81,7.833 138.23,8.052 C138.23,8.052 138.23,8.052 138.22,8.052 C136.63,8.653 135.64,9.583 135.01,10.512 C134.39,11.443 134.14,12.382 134.04,13.002 C134.66,13.573 135.26,14.333 135.82,15.373 C136.21,16.102 135.94,17.012 135.21,17.403 C134.48,17.792 133.57,17.523 133.18,16.792 C132.27,15.092 131.23,14.333 130.11,14.533 C128.67,14.783 127.53,16.292 127.42,16.813 C127.43,16.922 127.42,17.042 127.4,17.163 C127.41,18.892 127.08,20.573 126.31,21.962 C126.04,22.462 125.53,22.752 124.99,22.752 C124.75,22.752 124.51,22.693 124.28,22.563 C123.55,22.172 123.28,21.262 123.68,20.533 C124.98,18.153 124.55,14.422 122.66,11.663 C121.97,10.663 120.68,9.212 118.73,8.613 L118.71,8.613 C118.44,8.523 118.15,8.462 117.85,8.413 C117.28,8.333 116.68,8.323 116.02,8.403 C109.96,9.193 107.21,13.932 106.65,15.033 C106.65,15.142 106.63,15.252 106.62,15.363 C106.65,15.472 106.66,15.583 106.66,15.703 C106.66,15.762 106.69,17.722 108.06,19.092 C109.05,20.083 110.54,20.583 112.5,20.583 C113.33,20.583 114,21.252 114,22.083 C114,22.913 113.33,23.583 112.5,23.583 C109.69,23.583 107.48,22.773 105.9,21.172 C105.42,20.693 105.05,20.163 104.75,19.642 C103.45,21.073 101.41,22.212 98.42,22.722 C98.34,22.743 98.25,22.752 98.17,22.752 C97.45,22.752 96.82,22.233 96.69,21.502 C96.55,20.693 97.09,19.913 97.91,19.773 C102,19.063 104.03,16.983 103.62,13.903 C103.2,10.722 100.13,7.273 96.81,7.573 C89.87,8.212 87.03,12.823 86.37,14.083 L86.37,14.083 Z M121.56,6.623 C122.91,7.403 124.13,8.512 125.13,9.972 C125.78,10.913 126.29,11.932 126.66,12.993 C127.33,12.443 128.09,12.002 128.88,11.752 C129.41,11.583 130.28,11.413 131.29,11.583 C131.8,9.733 133.01,7.573 135.41,6.113 C134.36,5.002 132.21,3.573 128.23,3.962 C124.8,4.292 122.71,5.602 121.56,6.623 L121.56,6.623 Z M217.84,150.01 C217.11,150.39 216.21,150.57 215.19,150.57 C208.98,150.57 198.31,144.14 193.43,139.26 C191.73,143.03 189.52,146.11 186.65,148.66 C181.6,153.14 174.63,155.76 164.65,157.28 C164.65,157.46 164.66,157.64 164.66,157.83 C164.66,169.15 161.73,178.67 157.43,183 L174.5,183 L178.55,177.59 C179.05,176.93 179.99,176.8 180.65,177.29 C181.31,177.79 181.45,178.73 180.95,179.4 L178.25,183 L183.01,183 L189.79,173.7 C190.28,173.03 191.21,172.88 191.88,173.37 C192.55,173.86 192.7,174.79 192.21,175.46 L186.73,183 L209,183 C209.83,183 210.5,183.67 210.5,184.5 C210.5,185.32 209.83,186 209,186 L51.33,186 L43.93,180.44 L37.92,186 L1.82,186 C0.99,186 0.32,185.32 0.32,184.5 C0.32,183.67 0.99,183 1.82,183 L36.75,183 L43.73,176.55 L52.33,183 L76.22,183 C71.91,178.67 68.99,169.15 68.99,157.83 C68.99,157.64 69,157.46 69,157.28 C68.61,157.22 68.22,157.16 67.84,157.09 C58.48,155.55 51.85,152.96 46.99,148.66 C44.12,146.11 41.92,143.03 40.22,139.26 C35.33,144.14 24.67,150.57 18.46,150.57 C17.44,150.57 16.54,150.39 15.81,150.01 C14.3,149.23 12.84,147.38 14.41,142.99 C19.16,129.76 34.53,116.58 35.18,116.02 C35.26,115.96 35.33,115.91 35.42,115.86 C34.8,107.52 34.66,97.52 34.66,85.502 C34.66,56.333 35.9,39.552 42.7,28.783 C49.26,18.392 60.47,13.922 83.88,12.403 C85.02,10.342 88.61,5.323 96.53,4.592 C100.59,4.203 104.27,7.273 105.85,10.892 C107.67,8.693 110.8,6.052 115.63,5.432 C116.51,5.313 117.37,5.333 118.21,5.462 C118.3,5.462 118.4,5.472 118.49,5.493 C119.69,4.073 122.56,1.502 127.94,0.972 C134.04,0.382 137.05,3.203 138.29,4.892 C138.76,4.773 139.25,4.653 139.77,4.573 C144.54,3.852 149.02,4.903 152.07,7.472 C153.46,8.642 154.46,10.052 155.05,11.642 C155.4,11.323 155.76,11.033 156.14,10.762 C158.68,8.972 161.87,8.373 164.86,9.123 C169.96,10.403 172.11,15.313 172.91,17.903 C173.04,17.873 173.16,17.842 173.29,17.823 C178.99,16.493 182.78,18.422 184.47,20.932 C184.75,21.342 184.97,21.773 185.15,22.212 C185.2,22.252 185.25,22.273 185.3,22.313 C197.01,32.052 198.99,49.672 198.99,85.502 C198.99,97.52 198.85,107.52 198.23,115.86 C198.31,115.91 198.39,115.96 198.46,116.02 C199.11,116.58 214.49,129.76 219.23,142.99 C220.81,147.38 219.35,149.23 217.84,150.01 L217.84,150.01 Z M233.32,184.5 C233.32,185.32 232.65,186 231.82,186 L220,186 C219.17,186 218.5,185.32 218.5,184.5 C218.5,183.67 219.17,183 220,183 L231.82,183 C232.65,183 233.32,183.67 233.32,184.5 L233.32,184.5 Z" id="Fill-80" fill="#3B3B4D"></path>
    </g>
</svg>