<?xml version="1.0" encoding="UTF-8" standalone="no"?>
<svg width="238px" height="212px" viewBox="0 0 238 212" version="1.1" xmlns="http://www.w3.org/2000/svg" xmlns:xlink="http://www.w3.org/1999/xlink">
    <!-- Generator: Sketch 39.1 (31720) - http://www.bohemiancoding.com/sketch -->
    <title>Slice 1</title>
    <desc>Created with Sketch.</desc>
    <defs></defs>
    <g id="Page-1" stroke="none" stroke-width="1" fill="none" fill-rule="evenodd">
        <path d="M78.49,132.83 C72.794,132.83 68.16,128.2 68.16,122.5 L68.16,119.83 L88.82,119.83 L88.82,122.5 C88.82,128.2 84.187,132.83 78.49,132.83 L78.49,132.83 Z M163.16,132.83 C157.46,132.83 152.82,128.2 152.82,122.5 L152.82,119.83 L173.49,119.83 L173.49,122.5 C173.49,128.2 168.86,132.83 163.16,132.83 L163.16,132.83 Z" id="Fill-86" fill="#F3B130"></path>
        <path d="M81.07,98.083 C79.924,98.083 78.99,99.016 78.99,100.163 L78.99,104.252 C78.99,105.399 79.924,106.333 81.07,106.333 C82.217,106.333 83.15,105.399 83.15,104.252 L83.15,100.163 C83.15,99.016 82.217,98.083 81.07,98.083 L81.07,98.083 Z M68.16,117.83 L68.16,99.163 C68.16,93.466 72.794,88.833 78.49,88.833 C84.187,88.833 88.82,93.466 88.82,99.163 L88.82,117.83 L68.16,117.83 L68.16,117.83 Z M160.58,98.083 C159.43,98.083 158.5,99.016 158.5,100.163 L158.5,104.252 C158.5,105.399 159.43,106.333 160.58,106.333 C161.73,106.333 162.66,105.399 162.66,104.252 L162.66,100.163 C162.66,99.016 161.73,98.083 160.58,98.083 L160.58,98.083 Z M152.82,117.83 L152.82,99.163 C152.82,93.466 157.46,88.833 163.16,88.833 C168.86,88.833 173.49,93.466 173.49,99.163 L173.49,117.83 L152.82,117.83 L152.82,117.83 Z M97.813,144.7 C95.455,142.43 94.024,140.11 93.382,138.93 L93.188,138.58 L93.495,138.31 C95.129,136.91 97.07,135.67 99.265,134.62 L100.231,134.16 L99.965,135.2 C99.021,138.87 98.733,142.21 98.66,144.36 L98.621,145.48 L97.813,144.7 L97.813,144.7 Z M142.99,144.36 C142.92,142.21 142.63,138.88 141.69,135.2 L141.42,134.16 L142.39,134.62 C144.58,135.67 146.52,136.92 148.16,138.31 L148.46,138.58 L148.27,138.93 C147.63,140.11 146.2,142.42 143.84,144.7 L143.03,145.48 L142.99,144.36 L142.99,144.36 Z" id="Fill-87" fill="#FFFFFF"></path>
        <path d="M190.94,30.251 C190.37,30.272 189.94,30.735 189.96,31.284 C190.01,32.719 189.99,34.143 189.9,35.516 C189.88,35.781 189.97,36.039 190.15,36.24 C190.33,36.439 190.57,36.558 190.83,36.574 L190.85,36.574 C191.43,36.574 191.86,36.161 191.9,35.634 C191.99,34.21 192.01,32.722 191.96,31.219 C191.94,30.695 191.49,30.25 190.98,30.25 L190.98,29.75 L190.94,30.251 L190.94,30.251 Z M186.9,52.05 C188.34,49.83 190.27,46.029 191.29,40.542 C191.34,40.278 191.29,40.015 191.14,39.795 C190.99,39.573 190.76,39.423 190.49,39.375 C190.43,39.363 190.37,39.358 190.31,39.358 C189.83,39.358 189.42,39.704 189.32,40.179 C188.07,46.915 185.35,50.942 184.23,52.361 L184.05,52.596 L183.75,52.545 C177.78,51.515 172.64,47.633 170,42.16 L169.82,41.795 L170.14,41.548 C178.59,34.993 183.63,24.725 183.63,14.083 C183.63,12.272 183.48,10.435 183.2,8.621 L182.97,7.178 L184.03,8.178 C191.51,15.198 195.63,24.752 195.63,35.083 C195.63,40.977 194.19,46.866 191.46,52.113 L191.36,52.32 L191.13,52.371 C189.88,52.65 188.6,52.802 187.33,52.823 L186.39,52.838 L186.9,52.05 L186.9,52.05 Z M50.655,30.25 C50.15,30.25 49.709,30.694 49.69,31.22 C49.64,32.712 49.66,34.2 49.749,35.641 C49.782,36.169 50.222,36.583 50.75,36.583 C51.366,36.541 51.784,36.065 51.751,35.513 C51.66,34.133 51.64,32.709 51.69,31.285 C51.704,30.728 51.278,30.272 50.722,30.252 L50.655,29.75 L50.655,30.25 L50.655,30.25 Z M54.313,52.823 C53.046,52.801 51.77,52.65 50.521,52.371 L50.294,52.32 L50.187,52.113 C47.46,46.864 46.02,40.975 46.02,35.083 C46.02,24.752 50.139,15.197 57.618,8.178 L58.683,7.179 L58.454,8.621 C58.166,10.439 58.02,12.277 58.02,14.083 C58.02,24.722 63.058,34.99 71.497,41.548 L71.816,41.795 L71.641,42.16 C69.011,47.632 63.871,51.514 57.895,52.545 L57.601,52.595 L57.416,52.361 C56.3,50.937 53.568,46.9 52.318,40.174 C52.23,39.701 51.816,39.358 51.333,39.358 C51.272,39.358 51.211,39.363 51.149,39.375 C50.609,39.474 50.251,39.998 50.352,40.541 C51.373,46.012 53.303,49.821 54.74,52.052 L55.247,52.838 L54.313,52.823 L54.313,52.823 Z M120.82,182.83 C108.424,182.83 95.543,182.74 85.316,182.06 L84.768,182.03 L84.856,181.48 C86.106,173.84 92.896,168.08 100.65,168.08 L141,168.08 C148.75,168.08 155.54,173.84 156.79,181.48 L156.88,182.03 L156.33,182.06 C146.11,182.74 133.22,182.83 120.82,182.83 L120.82,182.83 Z" id="Fill-88" fill="#FFFAED"></path>
        <path d="M22.448,174.1 C21.843,174.1 21.342,174 20.958,173.8 C19.833,173.21 20.234,171.32 20.77,169.83 C24.415,159.67 35.015,149.21 39.402,145.18 L40.141,144.51 L40.238,145.5 C40.896,152.28 41.953,157.68 43.472,162.02 L43.565,162.28 L43.386,162.5 C39.272,167.49 27.336,174.1 22.448,174.1 L22.448,174.1 Z M219.2,174.1 C214.3,174.1 202.37,167.48 198.26,162.5 L198.09,162.28 L198.18,162.02 C199.7,157.65 200.76,152.24 201.41,145.5 L201.51,144.51 L202.25,145.18 C206.64,149.21 217.24,159.68 220.88,169.83 C221.41,171.32 221.81,173.21 220.69,173.8 C220.31,174 219.81,174.1 219.2,174.1 L219.2,174.1 Z M78.49,86.833 C71.691,86.833 66.16,92.364 66.16,99.163 L66.16,122.5 C66.16,129.3 71.691,134.83 78.49,134.83 C85.289,134.83 90.82,129.3 90.82,122.5 L90.82,99.163 C90.82,92.364 85.289,86.833 78.49,86.833 L78.49,86.833 Z M163.16,86.833 C156.36,86.833 150.82,92.364 150.82,99.163 L150.82,122.5 C150.82,129.3 156.36,134.83 163.16,134.83 C169.96,134.83 175.49,129.3 175.49,122.5 L175.49,99.163 C175.49,92.364 169.96,86.833 163.16,86.833 L163.16,86.833 Z M150.4,140.59 C152.63,143.25 153.76,146.18 153.76,149.31 C153.76,149.86 154.21,150.31 154.76,150.31 C155.31,150.31 155.76,149.86 155.76,149.31 C155.76,145.15 153.95,141.18 150.51,137.83 C150.39,137.68 150.3,137.6 150.21,137.53 C147.59,135.1 144.29,133.12 140.34,131.62 C140.21,131.55 140.15,131.53 140.07,131.51 C134.87,129.59 128.84,128.58 122.59,128.58 C122.006,128.58 121.422,128.59 120.838,128.61 C120.229,128.59 119.645,128.58 119.06,128.58 C112.793,128.58 106.764,129.59 101.624,131.5 C101.492,131.53 101.448,131.55 101.397,131.58 C97.39,133.11 94.087,135.08 91.501,137.49 C91.332,137.61 91.249,137.69 91.188,137.77 C87.701,141.18 85.89,145.15 85.89,149.31 C85.89,149.86 86.338,150.31 86.89,150.31 C87.441,150.31 87.89,149.86 87.89,149.31 C87.89,146.19 89.016,143.25 91.236,140.59 L91.688,140.05 L92.05,140.66 C93.298,142.76 95.534,145.8 99.104,148.39 L100.848,149.66 L100.682,147.5 C100.613,146.28 100.394,140.06 102.555,133.46 L102.632,133.22 L102.864,133.14 C107.627,131.47 113.227,130.58 119.06,130.58 C119.636,130.58 120.223,130.59 120.788,130.61 C121.429,130.59 122.004,130.58 122.59,130.58 C128.42,130.58 134.02,131.47 138.79,133.14 L139.02,133.22 L139.1,133.46 C141.45,140.64 140.96,147.49 140.95,147.54 L140.8,149.66 L142.54,148.39 C146.1,145.81 148.34,142.76 149.59,140.66 L149.95,140.05 L150.4,140.59 L150.4,140.59 Z M158.8,181.42 C157.5,172.67 149.85,166.08 141,166.08 L100.65,166.08 C91.805,166.08 84.154,172.67 82.854,181.42 L82.786,181.88 L82.321,181.84 C80.617,181.71 78.885,181.54 77.173,181.34 C73.888,180.96 70.876,180.47 68.223,179.88 C61.347,178.36 56.401,176.11 52.658,172.79 C42.758,164.01 41.16,147.53 41.16,111.502 C41.16,97.93 41.46,88.581 42.132,81.188 C43.288,68.495 45.674,60.288 49.866,54.577 L50.057,54.318 L50.371,54.383 C51.805,54.681 53.244,54.833 54.65,54.833 C62.759,54.833 70.191,50.076 73.586,42.713 L73.696,42.473 L73.957,42.429 C85.211,40.542 100.232,40.163 120.82,40.163 C141.41,40.163 156.44,40.542 167.69,42.429 L167.95,42.473 L168.06,42.713 C171.51,50.189 178.77,54.833 187,54.833 C188.41,54.833 189.85,54.681 191.28,54.383 L191.59,54.318 L191.78,54.577 C199.14,64.594 200.49,81.606 200.49,111.502 C200.49,147.53 198.89,164.01 188.99,172.79 C183.74,177.45 175.8,180.13 163.24,181.48 C161.98,181.61 160.67,181.73 159.33,181.84 L158.86,181.88 L158.8,181.42 L158.8,181.42 Z M85.49,209 C80.661,209 75.49,198.89 75.49,183.83 L75.49,183.12 L76.057,183.2 C76.326,183.23 76.597,183.26 76.866,183.29 C79.028,183.54 81.171,183.75 83.318,183.91 C83.475,183.94 83.552,183.96 83.629,183.96 L83.77,183.96 C87.263,184.2 91.008,184.39 94.997,184.52 L95.49,184.54 L95.48,185.03 C95.349,191.55 94.193,197.64 92.229,202.17 C90.348,206.51 87.892,209 85.49,209 L85.49,209 Z M156.16,209 C153.76,209 151.3,206.51 149.41,202.17 C147.44,197.63 146.29,191.54 146.17,185.03 L146.16,184.54 L146.65,184.52 C150.64,184.39 154.38,184.2 157.79,183.95 L157.84,183.95 L157.96,183.96 C158.1,183.96 158.17,183.94 158.25,183.93 C160.1,183.78 161.82,183.61 163.45,183.44 C164.18,183.37 164.89,183.29 165.59,183.2 L166.15,183.12 L166.15,183.69 C166.16,183.75 166.16,183.79 166.16,183.83 C166.16,198.89 160.99,209 156.16,209 L156.16,209 Z" id="Fill-89" fill="#D95849"></path>
        <path d="M199.99,111.502 C199.99,81.863 198.64,64.752 191.38,54.873 C189.94,55.172 188.48,55.333 187,55.333 C178.6,55.333 171.1,50.493 167.61,42.922 C156.46,41.052 141.4,40.663 120.82,40.663 C100.25,40.663 85.19,41.052 74.04,42.922 C70.55,50.493 63.04,55.333 54.65,55.333 C53.17,55.333 51.71,55.172 50.27,54.873 C45.96,60.743 43.73,69.153 42.63,81.233 C41.88,89.483 41.66,99.462 41.66,111.502 C41.66,147.37 43.23,163.76 52.99,172.41 C56.7,175.7 61.64,177.91 68.33,179.39 C71.01,179.98 73.97,180.46 77.23,180.84 C78.86,181.03 80.57,181.2 82.36,181.34 C83.69,172.39 91.44,165.58 100.65,165.58 L141,165.58 C150.21,165.58 157.96,172.39 159.29,181.34 C160.63,181.23 161.93,181.11 163.19,180.98 C175.3,179.68 183.29,177.18 188.66,172.41 C198.42,163.76 199.99,147.37 199.99,111.502 L199.99,111.502 Z M165.66,183.83 C165.66,183.78 165.65,183.74 165.65,183.69 C164.95,183.78 164.23,183.86 163.5,183.93 C161.86,184.11 160.15,184.27 158.37,184.41 C158.27,184.43 158.17,184.45 158.06,184.46 L157.96,184.46 C157.92,184.46 157.88,184.45 157.83,184.45 C154.39,184.7 150.68,184.89 146.67,185.02 C146.8,191.96 148.08,197.84 149.87,201.97 C151.67,206.1 153.98,208.5 156.16,208.5 C160.65,208.5 165.66,198.37 165.66,183.83 L165.66,183.83 Z M150.88,209 C149.46,207.57 148.18,205.57 147.12,203.12 C145.09,198.45 143.81,192.16 143.67,185.1 C136.9,185.28 129.32,185.33 120.82,185.33 C112.33,185.33 104.75,185.28 97.98,185.1 C97.84,192.16 96.56,198.45 94.52,203.12 C93.46,205.57 92.18,207.57 90.76,209 L150.88,209 L150.88,209 Z M120.82,182.33 C135.14,182.33 146.79,182.19 156.3,181.56 C155.09,174.17 148.64,168.58 141,168.58 L100.65,168.58 C93.01,168.58 86.56,174.17 85.35,181.56 C94.86,182.19 106.51,182.33 120.82,182.33 L120.82,182.33 Z M91.77,201.97 C93.56,197.84 94.84,191.96 94.98,185.02 C90.97,184.89 87.26,184.7 83.83,184.45 C83.75,184.46 83.67,184.46 83.58,184.46 C83.48,184.45 83.38,184.43 83.28,184.41 C81.04,184.24 78.91,184.03 76.89,183.79 C76.59,183.76 76.29,183.73 75.99,183.69 L75.99,183.83 C75.99,198.37 81,208.5 85.49,208.5 C87.68,208.5 89.98,206.1 91.77,201.97 L91.77,201.97 Z M43,162.18 C41.4,157.61 40.38,152.14 39.74,145.55 C35.85,149.12 24.91,159.77 21.24,170 C20.93,170.86 20.31,172.89 21.19,173.35 C24.4,175.03 38.43,167.72 43,162.18 L43,162.18 Z M50.63,51.882 C51.84,52.153 53.08,52.302 54.32,52.323 C52.87,50.073 50.9,46.203 49.86,40.632 C49.71,39.823 50.25,39.033 51.06,38.882 C51.88,38.733 52.66,39.273 52.81,40.083 C54.04,46.703 56.72,50.663 57.81,52.052 C63.61,51.052 68.6,47.333 71.19,41.943 C62.62,35.283 57.52,24.962 57.52,14.083 C57.52,12.222 57.67,10.373 57.96,8.542 C50.64,15.413 46.52,24.873 46.52,35.083 C46.52,40.943 47.95,46.722 50.63,51.882 L50.63,51.882 Z M170.45,41.943 C173.05,47.333 178.04,51.052 183.84,52.052 C184.93,50.663 187.6,46.703 188.83,40.083 C188.99,39.273 189.77,38.733 190.58,38.882 C191.4,39.033 191.94,39.823 191.78,40.632 C190.75,46.203 188.78,50.073 187.32,52.323 C188.57,52.302 189.81,52.153 191.02,51.882 C193.7,46.722 195.13,40.943 195.13,35.083 C195.13,24.873 191.01,15.413 183.69,8.542 C183.98,10.373 184.13,12.222 184.13,14.083 C184.13,24.962 179.03,35.283 170.45,41.943 L170.45,41.943 Z M201.91,145.55 C201.27,152.14 200.24,157.61 198.65,162.18 C203.21,167.72 217.24,175.03 220.46,173.35 C221.34,172.89 220.72,170.86 220.41,170 C216.74,159.77 205.8,149.12 201.91,145.55 L201.91,145.55 Z M190.65,174.66 C185.6,179.14 178.63,181.76 168.65,183.28 C168.65,183.46 168.66,183.64 168.66,183.83 C168.66,195.15 165.73,204.67 161.43,209 L212.77,209 C213.6,209 214.27,209.67 214.27,210.5 C214.27,211.32 213.6,212 212.77,212 L5.82,212 C5,212 4.32,211.32 4.32,210.5 C4.32,209.67 5,209 5.82,209 L14.02,209 L14.02,206.2 C14.02,205.37 14.69,204.7 15.52,204.7 C16.35,204.7 17.02,205.37 17.02,206.2 L17.02,209 L30.47,209 L30.47,199.83 C30.47,199 31.14,198.33 31.97,198.33 C32.8,198.33 33.47,199 33.47,199.83 L33.47,209 L37.52,209 L37.52,206.2 C37.52,205.37 38.19,204.7 39.02,204.7 C39.85,204.7 40.52,205.37 40.52,206.2 L40.52,209 L80.22,209 C75.92,204.67 72.99,195.15 72.99,183.83 C72.99,183.64 73,183.46 73,183.28 C71.13,183 69.37,182.67 67.71,182.3 C60.48,180.71 55.1,178.3 51,174.66 C48.12,172.11 45.92,169.03 44.22,165.26 C39.33,170.14 28.67,176.57 22.46,176.57 C21.44,176.57 20.54,176.39 19.81,176.01 C18.3,175.23 16.84,173.38 18.41,168.99 C21.04,161.67 26.92,154.37 31.76,149.2 L25.26,149.2 C16.31,149.2 9.02,141.92 9.02,132.97 L9.02,91.523 L3.03,100.953 C2.59,101.653 1.66,101.852 0.96,101.413 C0.26,100.972 0.06,100.042 0.5,99.342 L10.52,83.563 L20.54,99.342 C20.99,100.042 20.78,100.972 20.08,101.413 C19.83,101.573 19.55,101.642 19.28,101.642 C18.78,101.642 18.29,101.403 18.01,100.953 L12.02,91.523 L12.02,132.97 C12.02,140.27 17.96,146.2 25.26,146.2 L34.68,146.2 C37.17,143.75 38.97,142.2 39.19,142.02 C39.26,141.96 39.34,141.91 39.42,141.86 C38.8,133.52 38.66,123.52 38.66,111.502 C38.66,99.422 38.89,89.363 39.67,80.962 C40.82,68.302 43.2,59.413 47.87,53.073 C45.03,47.542 43.52,41.352 43.52,35.083 C43.52,22.642 49.5,10.783 59.5,3.352 L63.1,0.682 L61.83,4.972 C60.96,7.943 60.52,11.002 60.52,14.083 C60.52,24.252 65.38,33.892 73.54,39.962 C84.9,38.052 100.1,37.663 120.82,37.663 C141.55,37.663 156.75,38.052 168.1,39.962 C176.26,33.892 181.13,24.252 181.13,14.083 C181.13,11.002 180.69,7.943 179.81,4.972 L178.55,0.682 L182.15,3.352 C192.15,10.783 198.13,22.642 198.13,35.083 C198.13,41.352 196.61,47.542 193.78,53.073 C201.54,63.623 202.99,81.203 202.99,111.502 C202.99,123.52 202.85,133.52 202.23,141.86 C202.31,141.91 202.39,141.96 202.46,142.02 C203.11,142.58 218.49,155.76 223.24,168.99 C224.81,173.38 223.35,175.23 221.84,176.01 C221.11,176.39 220.21,176.57 219.19,176.57 C212.98,176.57 202.31,170.14 197.43,165.26 C195.73,169.03 193.52,172.11 190.65,174.66 L190.65,174.66 Z M50.85,37.073 C51.67,37.023 52.3,36.313 52.25,35.483 C52.16,34.123 52.14,32.712 52.19,31.302 C52.21,30.472 51.57,29.783 50.74,29.752 C49.93,29.703 49.22,30.373 49.19,31.203 C49.14,32.712 49.16,34.222 49.25,35.672 C49.3,36.472 49.96,37.083 50.75,37.083 C50.78,37.083 50.81,37.083 50.85,37.073 L50.85,37.073 Z M88.32,122.5 L88.32,120.33 L68.66,120.33 L68.66,122.5 C68.66,127.92 73.07,132.33 78.49,132.33 C83.91,132.33 88.32,127.92 88.32,122.5 L88.32,122.5 Z M68.66,117.33 L88.32,117.33 L88.32,99.163 C88.32,93.743 83.91,89.333 78.49,89.333 C73.07,89.333 68.66,93.743 68.66,99.163 L68.66,117.33 L68.66,117.33 Z M78.49,135.33 C71.42,135.33 65.66,129.57 65.66,122.5 L65.66,99.163 C65.66,92.092 71.42,86.333 78.49,86.333 C85.57,86.333 91.32,92.092 91.32,99.163 L91.32,122.5 C91.32,129.57 85.57,135.33 78.49,135.33 L78.49,135.33 Z M81.07,97.583 C79.64,97.583 78.49,98.733 78.49,100.163 L78.49,104.252 C78.49,105.682 79.64,106.833 81.07,106.833 C82.49,106.833 83.65,105.682 83.65,104.252 L83.65,100.163 C83.65,98.733 82.49,97.583 81.07,97.583 L81.07,97.583 Z M147.83,138.69 C146.24,137.33 144.34,136.11 142.17,135.07 C143.1,138.69 143.41,142.01 143.49,144.34 C145.77,142.14 147.17,139.9 147.83,138.69 L147.83,138.69 Z M99.48,135.07 C97.31,136.11 95.41,137.33 93.82,138.69 C94.48,139.9 95.88,142.14 98.16,144.34 C98.24,142.01 98.55,138.69 99.48,135.07 L99.48,135.07 Z M150.86,137.47 C154.29,140.81 156.26,144.86 156.26,149.31 C156.26,150.14 155.58,150.81 154.76,150.81 C153.93,150.81 153.26,150.14 153.26,149.31 C153.26,146.24 152.1,143.39 150.02,140.91 C148.83,142.91 146.55,146.1 142.84,148.79 L140.22,150.7 L140.46,147.46 C140.47,147.4 140.94,140.7 138.62,133.61 C134.01,131.99 128.55,131.08 122.59,131.08 C122.01,131.08 121.44,131.09 120.87,131.11 L120.77,131.11 C120.21,131.09 119.63,131.08 119.06,131.08 C113.1,131.08 107.64,131.99 103.03,133.61 C100.71,140.7 101.18,147.4 101.18,147.46 L101.43,150.7 L98.81,148.79 C95.1,146.1 92.81,142.91 91.62,140.91 C89.55,143.39 88.39,146.24 88.39,149.31 C88.39,150.14 87.72,150.81 86.89,150.81 C86.06,150.81 85.39,150.14 85.39,149.31 C85.39,144.86 87.35,140.82 90.78,137.48 C90.88,137.34 91.01,137.22 91.16,137.12 C93.76,134.7 97.15,132.66 101.14,131.15 C101.24,131.09 101.34,131.05 101.45,131.03 C106.51,129.15 112.51,128.08 119.06,128.08 C119.65,128.08 120.24,128.09 120.82,128.11 C121.41,128.09 122,128.08 122.59,128.08 C129.14,128.08 135.13,129.15 140.19,131.02 C140.31,131.05 140.42,131.09 140.52,131.15 C144.51,132.67 147.9,134.7 150.5,137.12 C150.64,137.22 150.76,137.34 150.86,137.47 L150.86,137.47 Z M172.99,99.163 C172.99,93.743 168.58,89.333 163.16,89.333 C157.74,89.333 153.32,93.743 153.32,99.163 L153.32,117.33 L172.99,117.33 L172.99,99.163 L172.99,99.163 Z M172.99,120.33 L153.32,120.33 L153.32,122.5 C153.32,127.92 157.74,132.33 163.16,132.33 C168.58,132.33 172.99,127.92 172.99,122.5 L172.99,120.33 L172.99,120.33 Z M175.99,99.163 L175.99,122.5 C175.99,129.57 170.23,135.33 163.16,135.33 C156.08,135.33 150.32,129.57 150.32,122.5 L150.32,99.163 C150.32,92.092 156.08,86.333 163.16,86.333 C170.23,86.333 175.99,92.092 175.99,99.163 L175.99,99.163 Z M160.58,97.583 C159.16,97.583 158,98.733 158,100.163 L158,104.252 C158,105.682 159.16,106.833 160.58,106.833 C162,106.833 163.16,105.682 163.16,104.252 L163.16,100.163 C163.16,98.733 162,97.583 160.58,97.583 L160.58,97.583 Z M190.8,37.073 C190.84,37.083 190.87,37.083 190.9,37.083 C191.68,37.083 192.34,36.472 192.4,35.672 C192.49,34.222 192.51,32.712 192.46,31.203 C192.43,30.373 191.7,29.712 190.91,29.752 C190.08,29.783 189.43,30.472 189.46,31.302 C189.51,32.712 189.49,34.123 189.4,35.483 C189.35,36.313 189.98,37.023 190.8,37.073 L190.8,37.073 Z M237.32,210.5 C237.32,211.32 236.65,212 235.82,212 L221.02,212 C220.19,212 219.52,211.32 219.52,210.5 C219.52,209.67 220.19,209 221.02,209 L235.82,209 C236.65,209 237.32,209.67 237.32,210.5 L237.32,210.5 Z" id="Fill-90" fill="#3B3B4D"></path>
    </g>
</svg>