<?xml version="1.0" encoding="UTF-8" standalone="no"?>
<svg width="229px" height="219px" viewBox="0 0 229 219" version="1.1" xmlns="http://www.w3.org/2000/svg" xmlns:xlink="http://www.w3.org/1999/xlink">
    <!-- Generator: Sketch 39.1 (31720) - http://www.bohemiancoding.com/sketch -->
    <title>Slice 1</title>
    <desc>Created with Sketch.</desc>
    <defs></defs>
    <g id="Page-1" stroke="none" stroke-width="1" fill="none" fill-rule="evenodd">
        <path d="M114.08,97.095 C107.502,97.095 101.954,92.177 101.173,85.655 L101.106,85.095 L103.627,85.095 L108,91.644 L112.362,85.095 L116.238,85.095 L120.601,91.644 L124.973,85.095 L127.495,85.095 L127.427,85.655 C126.636,92.177 121.088,97.095 114.52,97.095 L114.08,97.095" id="Fill-1" fill="#DC827F"></path>
        <path d="M99.03,60.595 C97.376,60.595 96.03,61.941 96.03,63.595 C96.03,65.249 97.376,66.595 99.03,66.595 C100.685,66.595 102.03,65.249 102.03,63.595 C102.03,61.941 100.685,60.595 99.03,60.595 L99.03,60.595 Z M96.53,73.595 C90.812,73.595 86.16,68.943 86.16,63.225 C86.16,57.501 90.812,52.845 96.53,52.845 C102.254,52.845 106.91,57.501 106.91,63.225 C106.91,68.943 102.254,73.595 96.53,73.595 L96.53,73.595 Z M129.56,60.595 C127.906,60.595 126.56,61.941 126.56,63.595 C126.56,65.249 127.906,66.595 129.56,66.595 C131.214,66.595 132.56,65.249 132.56,63.595 C132.56,61.941 131.214,60.595 129.56,60.595 L129.56,60.595 Z M132.06,73.595 C126.342,73.595 121.69,68.943 121.69,63.225 C121.69,57.501 126.342,52.845 132.06,52.845 C137.784,52.845 142.44,57.501 142.44,63.225 C142.44,68.943 137.784,73.595 132.06,73.595 L132.06,73.595 Z M106.038,85.095 L109.963,85.095 L108,88.048 L106.038,85.095 L106.038,85.095 Z M118.638,85.095 L122.563,85.095 L120.6,88.048 L118.638,85.095 L118.638,85.095 Z M114.148,124.381 C112.446,123.837 110.538,123.194 108.913,122.616 L108.245,122.378 L112.093,117.658 L112.423,117.772 C113.045,117.987 113.677,118.095 114.3,118.095 C114.923,118.095 115.555,117.987 116.177,117.772 L116.507,117.658 L120.355,122.378 L119.688,122.616 C118.063,123.194 116.155,123.837 114.453,124.381 L114.3,124.43 L114.148,124.381 L114.148,124.381 Z M114.043,136.274 C110.922,134.405 109.638,132.757 109.151,131.941 L109.001,131.691 L112.297,125.884 L113.132,126.157 C113.417,126.251 113.705,126.346 113.998,126.437 L114.3,126.531 L116.304,125.884 L119.587,131.679 L119.441,131.928 C118.962,132.745 117.69,134.396 114.557,136.274 L114.3,136.428 L114.043,136.274 L114.043,136.274 Z M101.813,149.235 L114.3,138.886 L126.787,149.235 L101.813,149.235 L101.813,149.235 Z" id="Fill-2" fill="#E6F5F8"></path>
        <path d="M83.096,40.21 C80.891,38.842 75.285,34.73 70.885,26.133 L70.777,25.923 L70.871,25.707 C72.561,21.799 75.126,18.266 78.494,15.205 L79.041,14.708 L79.299,15.401 C82.814,24.858 89.475,31.166 93.132,34.084 L93.909,34.704 L92.948,34.958 C89.571,35.852 86.374,37.648 83.702,40.15 L83.422,40.412 L83.096,40.21 L83.096,40.21 Z M144.898,40.15 C142.23,37.651 139.033,35.856 135.652,34.958 L134.692,34.703 L135.468,34.084 C139.126,31.165 145.787,24.857 149.301,15.401 L149.559,14.708 L150.106,15.205 C153.458,18.251 156.023,21.784 157.729,25.706 L157.823,25.922 L157.715,26.133 C153.315,34.73 147.709,38.842 145.504,40.21 L145.178,40.412 L144.898,40.15 L144.898,40.15 Z" id="Fill-3" fill="#CCC7BA"></path>
        <path d="M164.521,136.812 C157.776,129 149.817,122.609 140.864,117.816 L140.654,117.703 L140.609,117.469 C140.149,115.068 139.465,112.735 138.576,110.532 L138.122,109.405 L139.238,109.886 C143.728,111.82 159.305,119.242 171.224,133.565 L171.649,134.076 L164.763,137.091 L164.521,136.812 L164.521,136.812 Z M56.951,134.076 L57.376,133.565 C69.295,119.242 84.872,111.82 89.362,109.886 L90.478,109.405 L90.024,110.532 C89.135,112.735 88.451,115.068 87.991,117.469 L87.946,117.703 L87.736,117.816 C78.764,122.619 70.805,129.011 64.079,136.812 L63.838,137.091 L56.951,134.076 L56.951,134.076 Z M98.814,148.506 C97.739,147.352 96.702,146.07 95.731,144.693 C91.543,138.682 89.33,131.689 89.33,124.465 C89.33,123.859 89.35,123.254 89.371,122.658 C89.593,118.429 90.555,114.327 92.231,110.456 L92.407,110.051 L92.831,110.175 C94.58,110.688 96.374,110.991 98.164,111.075 C98.556,111.105 98.943,111.115 99.33,111.115 L108.666,111.115 L108.596,111.677 C108.569,111.896 108.55,112.125 108.55,112.345 C108.55,113.803 109.099,115.19 110.095,116.253 L110.394,116.572 L104.918,123.299 L106.234,123.786 C106.308,123.815 107.719,124.331 109.792,125.042 L110.361,125.237 L106.852,131.442 L106.938,131.812 C106.961,131.919 107.563,134.396 112.007,137.348 L112.567,137.72 L99.136,148.851 L98.814,148.506 L98.814,148.506 Z M116.033,137.72 L116.593,137.348 C121.038,134.396 121.639,131.919 121.662,131.815 L121.749,131.442 L118.239,125.237 L118.808,125.042 C120.881,124.331 122.292,123.815 122.354,123.791 L123.682,123.299 L118.207,116.572 L118.505,116.253 C119.501,115.19 120.05,113.802 120.05,112.345 C120.05,112.125 120.032,111.897 120.004,111.678 L119.933,111.115 L129.27,111.115 C129.657,111.115 130.045,111.105 130.422,111.076 C132.216,110.991 134.011,110.687 135.771,110.175 L136.194,110.052 L136.369,110.456 C138.045,114.327 139.007,118.429 139.229,122.649 C139.25,123.254 139.27,123.859 139.27,124.465 C139.27,133.35 135.902,141.887 129.787,148.504 L129.466,148.852 L116.033,137.72 L116.033,137.72 Z M114.152,158.242 C110.003,156.952 106.146,154.894 102.688,152.125 L101.575,151.235 L127.011,151.235 L125.903,152.125 C122.457,154.892 118.604,156.95 114.449,158.242 L114.3,158.288 L114.152,158.242 L114.152,158.242 Z M84.58,216.345 C81.41,216.345 78.83,213.765 78.83,210.595 C78.83,207.425 81.41,204.845 84.58,204.845 L102.33,204.845 L102.33,216.345 L84.58,216.345 L84.58,216.345 Z M104.33,216.345 L104.33,155.797 L105.093,156.27 C107.595,157.819 110.241,159.057 112.957,159.95 L113.3,160.063 L113.3,216.345 L104.33,216.345 L104.33,216.345 Z M115.3,216.345 L115.3,160.063 L115.644,159.95 C118.361,159.057 121.006,157.819 123.507,156.27 L124.27,155.797 L124.27,216.345 L115.3,216.345 L115.3,216.345 Z M126.27,216.345 L126.27,204.845 L144.02,204.845 C147.19,204.845 149.77,207.425 149.77,210.595 C149.77,213.765 147.19,216.345 144.02,216.345 L126.27,216.345 L126.27,216.345 Z" id="Fill-4" fill="#827275"></path>
        <path d="M113.908,42.585 C109.677,37.233 104.048,34.285 98.06,34.285 C97.71,34.285 97.35,34.295 97.008,34.314 L96.839,34.324 L96.699,34.229 C94.761,32.914 84.885,25.746 80.807,13.695 L80.691,13.354 L80.978,13.137 C89.44,6.711 101.585,3.025 114.3,3.025 C115.027,3.025 115.754,3.035 116.491,3.066 C128.366,3.469 139.711,7.14 147.612,13.136 L147.899,13.354 L147.784,13.695 C143.699,25.757 133.836,32.916 131.901,34.229 L131.761,34.324 L131.592,34.314 C131.242,34.295 130.891,34.285 130.54,34.285 C130.028,34.285 129.567,34.307 129.132,34.352 C123.613,34.764 118.625,37.611 114.692,42.585 L114.3,43.081 L113.908,42.585 L113.908,42.585 Z M75.581,64.539 C74.472,63.903 73.053,63.518 71.363,63.393 L70.993,63.366 L70.912,63.004 C69.806,58.069 66.435,41.076 69.517,29.586 L69.826,28.434 L70.431,29.461 C74.533,36.428 79.152,40.053 81.541,41.595 L82.013,41.899 L81.656,42.332 C78.222,46.511 76.33,51.754 76.33,57.095 L76.33,64.967 L75.581,64.539 L75.581,64.539 Z M152.27,57.095 C152.27,51.754 150.378,46.511 146.944,42.332 L146.587,41.899 L147.059,41.595 C149.448,40.053 154.067,36.428 158.169,29.461 L158.774,28.434 L159.083,29.586 C162.184,41.148 158.792,58.089 157.678,63.005 L157.596,63.366 L157.227,63.393 C155.544,63.518 154.128,63.904 153.019,64.539 L152.27,64.967 L152.27,57.095 L152.27,57.095 Z" id="Fill-5" fill="#454654"></path>
        <path d="M151.467,114.02 C149.179,112.608 146.874,111.317 144.615,110.182 L142.995,109.367 L144.804,109.237 C150.976,108.789 153.927,107.388 154.243,107.23 C154.719,106.975 154.909,106.37 154.657,105.886 C154.484,105.554 154.142,105.348 153.764,105.348 C153.604,105.348 153.452,105.385 153.311,105.458 C153.179,105.525 150.175,106.991 143.514,107.304 L141.908,107.38 L143.188,106.407 C147.755,102.934 150.841,97.932 151.878,92.324 L152.021,91.553 L152.66,92.008 C156.583,94.798 163.952,100.601 169.239,108.107 L169.547,108.544 L169.09,108.822 C166.52,110.384 159.685,114.023 151.734,114.095 L151.59,114.096 L151.467,114.02 L151.467,114.02 Z M76.865,114.095 C68.895,114.012 62.073,110.373 59.51,108.812 L59.053,108.534 L59.361,108.097 C64.649,100.598 72.019,94.798 75.94,92.008 L76.579,91.553 L76.722,92.324 C77.759,97.932 80.845,102.934 85.413,106.407 L86.693,107.381 L85.086,107.304 C78.419,106.988 75.421,105.524 75.296,105.462 C75.145,105.384 74.991,105.345 74.83,105.345 C74.458,105.345 74.117,105.551 73.941,105.881 C73.689,106.365 73.878,106.974 74.366,107.234 C74.673,107.388 77.625,108.789 83.796,109.237 L85.605,109.367 L83.985,110.182 C81.727,111.317 79.421,112.608 77.133,114.02 L77.01,114.096 L76.865,114.095 L76.865,114.095 Z M114.3,116.095 C112.232,116.095 110.55,114.413 110.55,112.345 C110.55,112.04 110.59,111.748 110.67,111.475 L110.775,111.115 L117.84,111.115 L117.935,111.493 C118.012,111.799 118.05,112.085 118.05,112.345 C118.05,114.413 116.368,116.095 114.3,116.095 L114.3,116.095 Z M159.91,141.392 L163.019,140.027 L177.179,133.836 L179.009,136.358 L175.398,137.828 C174.886,138.034 174.638,138.617 174.844,139.129 C174.993,139.504 175.365,139.755 175.77,139.755 C175.892,139.755 176.019,139.73 176.148,139.679 L180.216,138.034 L185.07,144.762 L167.258,151.866 L159.91,141.392 L159.91,141.392 Z M43.519,144.762 L48.384,138.034 L52.457,139.681 C52.581,139.73 52.709,139.755 52.83,139.755 C53.228,139.755 53.602,139.501 53.758,139.124 C53.962,138.617 53.714,138.034 53.204,137.829 L49.591,136.358 L51.422,133.835 L68.68,141.391 L61.343,151.866 L43.519,144.762 L43.519,144.762 Z M92.828,155.093 C92.35,155.093 91.948,155.42 91.849,155.888 C91.53,157.426 91.209,159.306 90.895,161.477 C90.856,161.742 90.923,162.005 91.084,162.218 C91.243,162.429 91.475,162.564 91.736,162.599 C91.787,162.607 91.842,162.615 91.89,162.615 C92.38,162.615 92.803,162.244 92.875,161.753 C93.182,159.639 93.497,157.805 93.811,156.303 C93.924,155.761 93.578,155.228 93.037,155.114 C92.969,155.1 92.898,155.093 92.828,155.093 L92.828,155.093 Z M90.721,185.515 L90.751,184.987 C90.901,182.311 91.33,175.327 92.073,168.292 C92.102,168.028 92.025,167.768 91.857,167.56 C91.689,167.352 91.451,167.221 91.186,167.192 C91.149,167.188 91.113,167.186 91.077,167.186 C90.571,167.186 90.136,167.576 90.087,168.074 C89.413,174.357 88.982,180.769 88.739,185.043 L88.712,185.515 L81.525,185.515 L81.54,185.001 C81.596,183.07 81.697,180.948 81.851,178.513 C82.831,163.432 85.484,145.858 87.537,133.771 L88.514,133.729 C89.646,138.103 91.562,142.224 94.209,145.977 C95.403,147.669 96.728,149.257 98.146,150.694 L98.187,150.735 L98.217,150.784 C98.285,150.895 98.38,150.992 98.493,151.066 L98.536,151.094 L98.572,151.13 C99.676,152.223 100.874,153.265 102.133,154.227 L102.33,154.378 L102.33,185.515 L90.721,185.515 L90.721,185.515 Z M135.761,155.095 C135.693,155.095 135.625,155.102 135.556,155.116 C135.022,155.228 134.676,155.761 134.79,156.302 C135.104,157.807 135.419,159.641 135.725,161.753 C135.797,162.244 136.22,162.615 136.71,162.615 C136.75,162.615 136.79,162.609 136.833,162.603 C137.125,162.564 137.357,162.428 137.517,162.218 C137.677,162.005 137.744,161.742 137.706,161.477 C137.39,159.299 137.069,157.418 136.75,155.887 C136.653,155.421 136.246,155.095 135.761,155.095 L135.761,155.095 Z M139.888,185.515 L139.861,185.043 C139.617,180.764 139.185,174.348 138.513,168.078 C138.464,167.576 138.029,167.186 137.523,167.186 C137.487,167.186 137.451,167.188 137.415,167.192 C137.149,167.221 136.911,167.352 136.743,167.56 C136.575,167.768 136.499,168.028 136.527,168.29 C137.27,175.329 137.699,182.311 137.849,184.987 L137.879,185.515 L126.27,185.515 L126.27,154.378 L126.467,154.227 C127.726,153.265 128.924,152.223 130.028,151.13 L130.064,151.094 L130.108,151.065 C130.211,150.999 130.305,150.901 130.395,150.767 C135.101,145.968 138.432,140.101 140.086,133.729 L141.063,133.771 C143.085,145.659 146.554,168.122 147.06,185 L147.075,185.515 L139.888,185.515 L139.888,185.515 Z" id="Fill-6" fill="#D74547"></path>
        <path d="M71.08,81.595 C66.697,81.595 64.08,77.763 64.08,71.345 L64.08,63.638 L64.793,63.972 C66.732,64.883 68.555,65.345 70.21,65.345 C74.157,65.345 76.33,66.765 76.33,69.345 L76.33,81.595 L71.08,81.595 L71.08,81.595 Z M152.27,81.595 L152.27,69.345 C152.27,66.803 154.5,65.345 158.39,65.345 C160.049,65.345 161.869,64.883 163.808,63.972 L164.52,63.638 L164.52,71.345 C164.52,77.763 161.903,81.595 157.52,81.595 L152.27,81.595 L152.27,81.595 Z M96.53,50.845 C89.71,50.845 84.16,56.399 84.16,63.225 C84.16,70.046 89.71,75.595 96.53,75.595 C103.356,75.595 108.91,70.046 108.91,63.225 C108.91,56.399 103.356,50.845 96.53,50.845 L96.53,50.845 Z M132.06,50.845 C125.239,50.845 119.69,56.399 119.69,63.225 C119.69,70.046 125.239,75.595 132.06,75.595 C138.886,75.595 144.44,70.046 144.44,63.225 C144.44,56.399 138.886,50.845 132.06,50.845 L132.06,50.845 Z M99.08,84.095 C99.08,92.366 105.809,99.095 114.08,99.095 L114.52,99.095 C122.791,99.095 129.52,92.366 129.52,84.095 L129.52,83.095 L99.08,83.095 L99.08,84.095 L99.08,84.095 Z M99.33,109.115 C98.971,109.115 98.611,109.104 98.252,109.084 C87.082,108.516 78.33,99.305 78.33,88.115 L78.33,57.095 C78.33,46.009 87.55,36.285 98.06,36.285 C102.269,36.285 108.36,37.861 113.473,45.374 L114.3,46.587 L115.127,45.373 C119.849,38.422 125.442,36.616 129.302,36.326 C129.737,36.296 130.149,36.285 130.54,36.285 C141.05,36.285 150.27,46.009 150.27,57.095 L150.27,88.115 C150.27,99.305 141.518,108.516 130.346,109.085 C129.989,109.104 129.629,109.115 129.27,109.115 L99.33,109.115 L99.33,109.115 Z M51.978,154.418 C50.38,153.868 48.513,153.26 46.717,152.681 L46.214,152.519 L46.403,152.026 C46.812,150.963 47.214,149.995 47.634,149.069 L47.832,148.634 L54.113,151.137 L53.852,151.629 C53.383,152.514 52.96,153.364 52.594,154.155 L52.404,154.565 L51.978,154.418 L51.978,154.418 Z M176.006,154.155 C175.64,153.365 175.217,152.514 174.748,151.629 L174.487,151.137 L180.772,148.633 L180.967,149.073 C181.457,150.177 181.847,151.115 182.197,152.026 L182.386,152.519 L181.883,152.681 C180.087,153.26 178.22,153.868 176.623,154.418 L176.196,154.565 L176.006,154.155 L176.006,154.155 Z M45.438,170.994 C43.994,170.565 42.585,170.08 41.128,169.511 L40.621,169.313 L40.861,168.824 C41.556,167.413 42.894,165.174 45.321,162.517 C45.501,162.322 45.592,162.067 45.58,161.801 C45.566,161.533 45.45,161.285 45.252,161.104 C45.07,160.936 44.833,160.845 44.585,160.845 C44.302,160.845 44.03,160.964 43.839,161.173 C41.198,164.075 39.75,166.533 39,168.083 L38.784,168.53 L38.335,168.317 C37.145,167.75 36.033,167.153 35.03,166.542 L34.606,166.284 L34.861,165.858 C35.657,164.527 37.654,161.299 39.004,160.074 C39.2,159.895 39.316,159.647 39.33,159.379 C39.342,159.113 39.251,158.858 39.072,158.663 C38.88,158.454 38.607,158.334 38.325,158.334 C38.077,158.334 37.84,158.426 37.659,158.593 C36.166,159.956 34.262,162.968 33.259,164.642 L32.964,165.135 L32.517,164.775 C31.54,163.99 30.917,163.325 30.567,162.906 L30.337,162.632 L30.523,162.326 C33.392,157.593 37.868,153.707 39.171,152.63 L39.38,152.457 L39.638,152.537 C42.545,153.437 52.225,156.461 54.743,157.578 C56.737,158.463 58.059,159.647 58.466,160.912 C58.794,161.931 58.579,163.05 57.809,164.332 C56.563,166.405 55.79,167.802 55.361,168.609 L55.206,168.903 L54.875,168.873 C54.208,168.812 53.296,168.592 52.738,167.885 C52.06,167.016 51.968,165.57 52.465,163.584 C52.578,163.146 52.369,162.678 51.968,162.468 C51.817,162.385 51.656,162.344 51.493,162.344 C51.213,162.344 50.941,162.464 50.748,162.674 C48.446,165.226 46.813,168.8 46.043,170.702 L45.874,171.124 L45.438,170.994 L45.438,170.994 Z M182.557,170.702 C181.787,168.799 180.152,165.225 177.839,162.671 C177.652,162.464 177.382,162.345 177.1,162.345 C176.939,162.345 176.784,162.385 176.639,162.464 C176.231,162.678 176.022,163.146 176.134,163.58 C176.622,165.531 176.529,167.016 175.867,167.879 C175.304,168.592 174.392,168.812 173.725,168.873 L173.395,168.903 L173.239,168.61 C172.81,167.802 172.037,166.404 170.792,164.332 C170.021,163.049 169.806,161.93 170.134,160.912 C170.527,159.655 171.85,158.469 173.857,157.578 C176.371,156.463 186.054,153.438 188.962,152.537 L189.221,152.457 L189.43,152.631 C191.108,154.027 195.311,157.767 198.077,162.326 L198.263,162.632 L198.033,162.906 C197.682,163.325 197.059,163.99 196.083,164.775 L195.636,165.135 L195.341,164.642 C194.338,162.968 192.434,159.956 190.943,158.594 C190.76,158.427 190.523,158.334 190.275,158.334 C189.993,158.334 189.72,158.454 189.528,158.663 C189.349,158.858 189.258,159.113 189.271,159.379 C189.284,159.647 189.4,159.895 189.598,160.077 C190.881,161.24 192.743,164.192 193.739,165.847 L193.993,166.27 L193.574,166.53 C192.589,167.14 191.473,167.741 190.253,168.317 L189.803,168.53 L189.589,168.08 C188.855,166.544 187.423,164.098 184.76,161.172 C184.57,160.964 184.298,160.845 184.015,160.845 C183.767,160.845 183.53,160.936 183.349,161.103 C183.15,161.285 183.034,161.533 183.021,161.801 C183.008,162.067 183.099,162.322 183.278,162.516 C185.73,165.2 187.053,167.429 187.73,168.827 L187.966,169.314 L187.462,169.511 C185.982,170.089 184.576,170.574 183.163,170.994 L182.727,171.124 L182.557,170.702 L182.557,170.702 Z" id="Fill-7" fill="#F7CAA4"></path>
        <path d="M11.83,215.845 L1.5,215.845 C0.67,215.845 0,216.515 0,217.345 C0,218.175 0.67,218.845 1.5,218.845 L11.83,218.845 C12.66,218.845 13.33,218.175 13.33,217.345 C13.33,216.515 12.66,215.845 11.83,215.845 L11.83,215.845 Z M93.14,154.625 C92.32,154.455 91.53,154.975 91.36,155.785 C91.03,157.375 90.71,159.265 90.4,161.405 C90.28,162.225 90.85,162.985 91.67,163.095 C91.74,163.105 91.82,163.115 91.89,163.115 C92.62,163.115 93.26,162.575 93.37,161.825 C93.67,159.755 93.98,157.935 94.3,156.405 C94.47,155.595 93.95,154.795 93.14,154.625 L93.14,154.625 Z M99.03,67.095 C100.97,67.095 102.53,65.525 102.53,63.595 C102.53,61.665 100.97,60.095 99.03,60.095 C97.1,60.095 95.53,61.665 95.53,63.595 C95.53,65.525 97.1,67.095 99.03,67.095 L99.03,67.095 Z M86.66,63.225 C86.66,68.665 91.09,73.095 96.53,73.095 C101.98,73.095 106.41,68.665 106.41,63.225 C106.41,57.775 101.98,53.345 96.53,53.345 C91.09,53.345 86.66,57.775 86.66,63.225 L86.66,63.225 Z M83.66,63.225 C83.66,56.125 89.43,50.345 96.53,50.345 C103.63,50.345 109.41,56.125 109.41,63.225 C109.41,70.315 103.63,76.095 96.53,76.095 C89.43,76.095 83.66,70.315 83.66,63.225 L83.66,63.225 Z M101.67,85.595 C102.41,91.785 107.7,96.595 114.08,96.595 L114.52,96.595 C120.9,96.595 126.18,91.785 126.93,85.595 L125.24,85.595 L120.6,92.545 L115.97,85.595 L112.63,85.595 L108,92.545 L103.36,85.595 L101.67,85.595 L101.67,85.595 Z M106.97,85.595 L108,87.145 L109.03,85.595 L106.97,85.595 L106.97,85.595 Z M119.57,85.595 L120.6,87.145 L121.63,85.595 L119.57,85.595 L119.57,85.595 Z M98.58,82.595 L130.02,82.595 L130.02,84.095 C130.02,92.645 123.06,99.595 114.52,99.595 L114.08,99.595 C105.53,99.595 98.58,92.645 98.58,84.095 L98.58,82.595 L98.58,82.595 Z M129.56,67.095 C131.5,67.095 133.06,65.525 133.06,63.595 C133.06,61.665 131.5,60.095 129.56,60.095 C127.63,60.095 126.06,61.665 126.06,63.595 C126.06,65.525 127.63,67.095 129.56,67.095 L129.56,67.095 Z M137.24,155.785 C137.07,154.975 136.28,154.465 135.46,154.625 C134.65,154.795 134.13,155.595 134.3,156.405 C134.62,157.935 134.93,159.755 135.23,161.825 C135.34,162.575 135.98,163.115 136.71,163.115 C136.78,163.115 136.85,163.105 136.93,163.095 C137.75,162.985 138.32,162.225 138.2,161.405 C137.89,159.265 137.57,157.375 137.24,155.785 L137.24,155.785 Z M122.19,63.225 C122.19,68.665 126.62,73.095 132.06,73.095 C137.51,73.095 141.94,68.665 141.94,63.225 C141.94,57.775 137.51,53.345 132.06,53.345 C126.62,53.345 122.19,57.775 122.19,63.225 L122.19,63.225 Z M119.19,63.225 C119.19,56.125 124.97,50.345 132.06,50.345 C139.16,50.345 144.94,56.125 144.94,63.225 C144.94,70.315 139.16,76.095 132.06,76.095 C124.97,76.095 119.19,70.315 119.19,63.225 L119.19,63.225 Z M149.27,210.595 C149.27,207.695 146.91,205.345 144.02,205.345 L126.77,205.345 L126.77,215.845 L144.02,215.845 C146.91,215.845 149.27,213.495 149.27,210.595 L149.27,210.595 Z M125.59,151.735 L103,151.735 C106.31,154.385 110.12,156.465 114.3,157.765 C118.48,156.465 122.29,154.385 125.59,151.735 L125.59,151.735 Z M123.77,156.695 C121.3,158.225 118.63,159.495 115.8,160.425 L115.8,215.845 L123.77,215.845 L123.77,156.695 L123.77,156.695 Z M112.8,160.425 C109.97,159.495 107.3,158.225 104.83,156.695 L104.83,215.845 L112.8,215.845 L112.8,160.425 L112.8,160.425 Z M101.83,154.625 C100.56,153.655 99.35,152.605 98.22,151.485 C98.05,151.375 97.9,151.225 97.79,151.045 C96.33,149.565 95,147.965 93.8,146.265 C91.17,142.535 89.19,138.335 88.03,133.855 C86.17,144.805 83.36,162.995 82.35,178.545 C82.21,180.765 82.1,182.925 82.04,185.015 L88.24,185.015 C88.41,182.025 88.84,175.015 89.59,168.025 C89.67,167.205 90.42,166.605 91.24,166.695 C92.06,166.785 92.66,167.525 92.57,168.345 C91.85,175.165 91.42,181.985 91.25,185.015 L101.83,185.015 L101.83,154.625 L101.83,154.625 Z M89.87,122.675 C89.85,123.265 89.83,123.865 89.83,124.465 C89.83,131.745 92.14,138.665 96.14,144.405 C97.07,145.725 98.08,146.985 99.18,148.165 L111.73,137.765 C107.23,134.775 106.52,132.235 106.45,131.925 L106.32,131.365 L109.63,125.515 C107.56,124.805 106.08,124.265 106.06,124.255 L104.09,123.525 L109.73,116.595 C108.69,115.485 108.05,113.985 108.05,112.345 C108.05,112.105 108.07,111.855 108.1,111.615 L99.33,111.615 C98.93,111.615 98.53,111.605 98.14,111.575 C96.25,111.485 94.43,111.165 92.69,110.655 C91.04,114.465 90.09,118.495 89.87,122.675 L89.87,122.675 Z M87.5,117.375 C87.96,114.975 88.64,112.625 89.56,110.345 C84.73,112.425 69.51,119.765 57.76,133.885 L63.7,136.485 C70.46,128.645 78.46,122.215 87.5,117.375 L87.5,117.375 Z M51.59,134.455 L50.37,136.135 L53.39,137.365 C54.16,137.675 54.53,138.545 54.22,139.315 C53.98,139.895 53.42,140.255 52.83,140.255 C52.64,140.255 52.45,140.215 52.27,140.145 L48.56,138.645 L44.3,144.535 L61.16,151.255 L67.92,141.605 L51.59,134.455 L51.59,134.455 Z M52.14,153.945 C52.45,153.275 52.87,152.415 53.41,151.395 L48.09,149.275 C47.65,150.245 47.25,151.215 46.87,152.205 C48.67,152.785 50.54,153.395 52.14,153.945 L52.14,153.945 Z M54.54,158.035 C52.06,156.935 42.3,153.885 39.49,153.015 C37.93,154.305 33.69,158.065 30.95,162.585 C31.31,163.015 31.91,163.645 32.83,164.385 C33.92,162.565 35.82,159.595 37.32,158.225 C37.93,157.665 38.88,157.715 39.44,158.325 C40,158.935 39.95,159.885 39.34,160.445 C38.16,161.515 36.39,164.275 35.29,166.115 C36.21,166.675 37.29,167.265 38.55,167.865 C39.29,166.335 40.75,163.825 43.47,160.835 C44.03,160.225 44.98,160.175 45.59,160.735 C46.2,161.295 46.25,162.245 45.69,162.855 C43.25,165.525 41.95,167.745 41.31,169.045 C42.59,169.545 44,170.045 45.58,170.515 C46.36,168.585 48,164.975 50.38,162.335 C50.85,161.825 51.6,161.695 52.2,162.025 C52.81,162.345 53.12,163.045 52.95,163.705 C52.5,165.505 52.56,166.845 53.13,167.575 C53.58,168.145 54.37,168.325 54.92,168.375 C55.35,167.565 56.13,166.155 57.38,164.075 C58.07,162.925 58.27,161.935 57.99,161.065 C57.63,159.945 56.41,158.865 54.54,158.035 L54.54,158.035 Z M76.87,113.595 C79.43,112.015 81.77,110.735 83.76,109.735 C77.27,109.265 74.29,107.755 74.13,107.675 C73.4,107.285 73.12,106.375 73.5,105.645 C73.89,104.915 74.79,104.635 75.52,105.015 C75.6,105.055 78.57,106.495 85.11,106.805 C80.56,103.345 77.31,98.255 76.23,92.415 C72.73,94.905 65.13,100.785 59.77,108.385 C62.43,110.005 69.12,113.515 76.87,113.595 L76.87,113.595 Z M78.83,84.095 L78.83,88.115 C78.83,99.075 87.46,108.035 98.28,108.585 C98.63,108.605 98.98,108.615 99.33,108.615 L129.27,108.615 C129.62,108.615 129.97,108.605 130.32,108.585 C141.14,108.035 149.77,99.075 149.77,88.115 L149.77,57.095 C149.77,46.275 140.78,36.785 130.54,36.785 C130.16,36.785 129.76,36.795 129.34,36.825 C125.35,37.125 120.05,39.015 115.54,45.655 L114.3,47.475 L113.06,45.655 C108.07,38.325 102.15,36.785 98.06,36.785 C87.81,36.785 78.83,46.275 78.83,57.095 L78.83,84.095 L78.83,84.095 Z M75.83,81.095 L75.83,69.345 C75.83,66.295 72.31,65.845 70.21,65.845 C68.1,65.845 66.07,65.125 64.58,64.425 L64.58,71.345 C64.58,77.445 67.01,81.095 71.08,81.095 L75.83,81.095 L75.83,81.095 Z M71.4,62.895 C73.17,63.025 74.66,63.435 75.83,64.105 L75.83,57.095 C75.83,51.405 77.9,46.115 81.27,42.015 C78.79,40.415 74.11,36.695 70,29.715 C66.91,41.235 70.4,58.435 71.4,62.895 L71.4,62.895 Z M71.33,25.905 C75.68,34.405 81.2,38.445 83.36,39.785 C86.04,37.275 89.27,35.415 92.82,34.475 C88.96,31.395 82.35,25.045 78.83,15.575 C75.65,18.465 73.06,21.905 71.33,25.905 L71.33,25.905 Z M81.28,13.535 C85.3,25.415 94.93,32.425 96.98,33.815 C97.33,33.795 97.7,33.785 98.06,33.785 C104.26,33.785 109.96,36.785 114.3,42.275 C118.3,37.215 123.45,34.275 129.08,33.855 C129.56,33.805 130.05,33.785 130.54,33.785 C130.9,33.785 131.26,33.795 131.62,33.815 C133.67,32.425 143.3,25.375 147.31,13.535 C138.89,7.145 127.35,3.935 116.47,3.565 C115.74,3.535 115.02,3.525 114.3,3.525 C102.8,3.525 90.26,6.715 81.28,13.535 L81.28,13.535 Z M149.77,15.575 C146.25,25.045 139.64,31.395 135.78,34.475 C139.32,35.415 142.56,37.275 145.24,39.785 C147.4,38.445 152.92,34.405 157.27,25.905 C155.53,21.905 152.95,18.465 149.77,15.575 L149.77,15.575 Z M158.6,29.715 C154.49,36.695 149.81,40.415 147.33,42.015 C150.7,46.115 152.77,51.405 152.77,57.095 L152.77,64.105 C153.94,63.435 155.43,63.025 157.19,62.895 C158.2,58.435 161.69,41.235 158.6,29.715 L158.6,29.715 Z M158.4,65.845 C158.4,65.845 158.4,65.845 158.39,65.845 C156.29,65.845 152.77,66.305 152.77,69.345 L152.77,81.095 L157.52,81.095 C161.59,81.095 164.02,77.445 164.02,71.345 L164.02,64.425 C162.53,65.125 160.5,65.845 158.4,65.845 L158.4,65.845 Z M152.37,92.415 C151.29,98.255 148.04,103.345 143.49,106.805 C150.08,106.495 153.04,105.035 153.08,105.015 C153.81,104.635 154.72,104.925 155.1,105.655 C155.48,106.385 155.2,107.285 154.47,107.675 C154.31,107.755 151.33,109.265 144.84,109.735 C146.83,110.735 149.17,112.015 151.73,113.595 C159.49,113.525 166.18,110.005 168.83,108.395 C163.47,100.785 155.87,94.905 152.37,92.415 L152.37,92.415 Z M139.04,110.345 C139.96,112.625 140.64,114.975 141.1,117.375 C150.14,122.215 158.13,128.645 164.9,136.485 L170.84,133.885 C159.09,119.765 143.87,112.425 139.04,110.345 L139.04,110.345 Z M163.22,140.485 L160.67,141.605 L167.44,151.255 L184.29,144.535 L180.04,138.645 L176.33,140.145 C176.15,140.215 175.96,140.255 175.77,140.255 C175.18,140.255 174.61,139.895 174.38,139.315 C174.07,138.545 174.44,137.675 175.21,137.365 L178.23,136.135 L177.01,134.455 L163.22,140.485 L163.22,140.485 Z M176.46,153.945 C178.06,153.395 179.93,152.785 181.73,152.205 C181.35,151.215 180.94,150.245 180.51,149.275 L175.19,151.395 C175.73,152.415 176.15,153.275 176.46,153.945 L176.46,153.945 Z M174.06,158.035 C172.19,158.865 170.96,159.945 170.61,161.065 C170.33,161.935 170.53,162.925 171.22,164.075 C172.47,166.155 173.25,167.565 173.68,168.375 C174.23,168.325 175.02,168.145 175.47,167.575 C176.03,166.845 176.1,165.505 175.65,163.705 C175.48,163.045 175.79,162.345 176.4,162.025 C176.62,161.905 176.86,161.845 177.1,161.845 C177.51,161.845 177.92,162.015 178.21,162.335 C180.6,164.975 182.24,168.585 183.02,170.515 C184.6,170.045 186,169.545 187.28,169.045 C186.65,167.745 185.35,165.525 182.91,162.855 C182.35,162.245 182.4,161.295 183.01,160.735 C183.62,160.175 184.57,160.225 185.13,160.835 C187.85,163.825 189.31,166.335 190.04,167.865 C191.31,167.265 192.39,166.675 193.31,166.105 C192.21,164.275 190.44,161.515 189.26,160.445 C188.65,159.885 188.6,158.935 189.16,158.325 C189.72,157.715 190.67,157.665 191.28,158.225 C192.78,159.595 194.68,162.565 195.77,164.385 C196.69,163.645 197.29,163.015 197.65,162.585 C194.9,158.055 190.66,154.305 189.11,153.015 C186.3,153.885 176.54,156.935 174.06,158.035 L174.06,158.035 Z M114.3,139.535 L103.2,148.735 L125.4,148.735 L114.3,139.535 L114.3,139.535 Z M112.53,126.485 L109.58,131.685 C110.01,132.405 111.21,133.995 114.3,135.845 C117.37,134.005 118.57,132.425 119.01,131.675 L116.07,126.485 C115.64,126.625 115.19,126.775 114.75,126.915 L114.3,127.055 L113.85,126.915 C113.4,126.775 112.96,126.625 112.53,126.485 L112.53,126.485 Z M114.3,115.595 C116.09,115.595 117.55,114.135 117.55,112.345 C117.55,112.105 117.51,111.855 117.45,111.615 L111.15,111.615 C111.08,111.855 111.05,112.105 111.05,112.345 C111.05,114.135 112.51,115.595 114.3,115.595 L114.3,115.595 Z M109.08,122.145 C110.43,122.625 112.33,123.275 114.3,123.905 C116.27,123.275 118.17,122.625 119.52,122.145 L116.34,118.245 C115.7,118.465 115.01,118.595 114.3,118.595 C113.58,118.595 112.9,118.465 112.26,118.245 L109.08,122.145 L109.08,122.145 Z M138.73,122.675 C138.51,118.495 137.56,114.465 135.91,110.655 C134.16,111.165 132.34,111.485 130.46,111.575 C130.07,111.605 129.67,111.615 129.27,111.615 L120.5,111.615 C120.53,111.855 120.55,112.105 120.55,112.345 C120.55,113.985 119.91,115.485 118.87,116.595 L124.51,123.525 L122.54,124.255 C122.52,124.265 121.04,124.805 118.97,125.515 L122.28,131.365 L122.15,131.925 C122.08,132.235 121.37,134.775 116.87,137.765 L129.42,148.165 C135.26,141.845 138.77,133.425 138.77,124.465 C138.77,123.865 138.75,123.265 138.73,122.675 L138.73,122.675 Z M140.57,133.855 C138.88,140.365 135.47,146.305 130.81,151.045 C130.69,151.225 130.55,151.375 130.38,151.485 C129.25,152.605 128.04,153.655 126.77,154.625 L126.77,185.015 L137.35,185.015 C137.18,181.985 136.75,175.165 136.03,168.345 C135.94,167.525 136.54,166.785 137.36,166.695 C138.18,166.605 138.93,167.205 139.01,168.025 C139.76,175.025 140.19,182.035 140.36,185.015 L146.56,185.015 C146.06,168.335 142.7,146.375 140.57,133.855 L140.57,133.855 Z M101.83,205.345 L84.58,205.345 C81.68,205.345 79.33,207.695 79.33,210.595 C79.33,213.495 81.68,215.845 84.58,215.845 L101.83,215.845 L101.83,205.345 L101.83,205.345 Z M210.6,217.345 C210.6,218.175 209.93,218.845 209.1,218.845 L51.75,218.845 L46.41,211.725 L40.18,218.845 L19.5,218.845 C18.67,218.845 18,218.175 18,217.345 C18,216.515 18.67,215.845 19.5,215.845 L38.82,215.845 L46.59,206.965 L53.25,215.845 L78.22,215.845 C77.04,214.415 76.33,212.585 76.33,210.595 C76.33,206.045 80.03,202.345 84.58,202.345 L101.83,202.345 L101.83,188.015 L80.5,188.015 C80.09,188.015 79.71,187.845 79.43,187.565 C79.14,187.275 78.99,186.885 79,186.485 C79.05,183.895 79.18,181.165 79.37,178.345 C80.93,154.155 86.79,123.735 86.86,123.395 L86.86,123.385 C86.87,123.105 86.88,122.825 86.9,122.545 C86.91,122.055 86.95,121.575 86.99,121.095 C79.33,125.465 72.48,131.055 66.58,137.745 L70.81,139.595 C71.22,139.775 71.53,140.135 71.65,140.565 C71.77,140.995 71.69,141.465 71.43,141.835 L62.93,153.955 C62.65,154.365 62.18,154.585 61.7,154.585 C61.52,154.585 61.33,154.555 61.15,154.485 L56.21,152.515 C55.7,153.485 55.28,154.315 54.97,154.975 C55.27,155.095 55.54,155.195 55.75,155.295 C58.46,156.495 60.22,158.185 60.85,160.165 C61.39,161.875 61.09,163.705 59.95,165.615 C57.96,168.945 57.18,170.515 57.18,170.525 C56.96,170.975 56.52,171.285 56.03,171.355 C56.03,171.355 52.64,171.815 50.77,169.415 C50.46,169.025 50.21,168.575 50.03,168.095 C48.69,170.545 47.93,172.785 47.92,172.815 C47.71,173.445 47.13,173.845 46.5,173.845 C46.36,173.845 46.23,173.825 46.09,173.785 C43.2,172.985 40.75,172.105 38.68,171.205 C38.66,171.205 38.65,171.195 38.63,171.185 C36.07,170.085 34.08,168.955 32.55,167.915 C32.55,167.905 32.54,167.905 32.54,167.905 C32.44,167.845 32.35,167.785 32.27,167.715 C28.95,165.385 27.91,163.515 27.84,163.385 C27.6,162.935 27.61,162.395 27.85,161.955 C31.46,155.425 37.97,150.365 38.25,150.155 C38.63,149.865 39.14,149.765 39.6,149.915 C39.8,149.975 41.63,150.535 44.01,151.285 C44.41,150.235 44.84,149.195 45.3,148.165 L41.41,146.615 C40.98,146.445 40.65,146.085 40.52,145.635 C40.39,145.195 40.48,144.715 40.75,144.345 L49.86,131.715 C50.28,131.145 51.04,130.935 51.68,131.225 L54.9,132.625 C60.55,125.665 66.96,120.285 72.75,116.285 C63.78,115.005 57.11,110.265 56.79,110.035 C56.14,109.565 55.97,108.665 56.41,107.995 C62.93,98.035 73.12,90.835 75.85,89.015 C75.84,88.715 75.83,88.415 75.83,88.115 L75.83,84.095 L71.08,84.095 C65.22,84.095 61.58,79.205 61.58,71.345 L61.58,58.935 L63.95,60.625 C63.97,60.645 65.93,62.005 68.26,62.585 C66.96,56.615 63.8,39.535 67.4,27.905 C73.64,7.705 96.56,0.535 114.3,0.525 C115.05,0.525 115.82,0.535 116.59,0.575 C133.95,1.165 155.22,8.565 161.2,27.905 C164.8,39.535 161.64,56.615 160.34,62.585 C162.26,62.105 164,61.085 164.65,60.625 L167.02,58.935 L167.02,71.345 C167.02,79.205 163.38,84.095 157.52,84.095 L152.77,84.095 L152.77,88.115 C152.77,88.415 152.76,88.715 152.75,89.015 C155.47,90.835 165.66,98.035 172.19,107.995 C172.63,108.665 172.46,109.565 171.81,110.035 C171.49,110.265 164.82,115.005 155.85,116.285 C161.63,120.285 168.04,125.665 173.7,132.625 L176.92,131.225 C177.56,130.935 178.32,131.145 178.73,131.715 L186.72,142.785 L187.85,144.345 C188.12,144.715 188.21,145.195 188.08,145.635 C187.95,146.085 187.62,146.445 187.19,146.615 L183.3,148.165 C183.76,149.195 184.19,150.235 184.59,151.285 C186.97,150.535 188.8,149.975 188.99,149.915 C189.46,149.765 189.96,149.865 190.35,150.155 C190.62,150.365 197.14,155.425 200.75,161.955 C200.99,162.395 201,162.935 200.76,163.385 C200.69,163.515 199.65,165.385 196.32,167.715 C196.25,167.785 196.16,167.855 196.06,167.905 C196.06,167.905 196.05,167.905 196.05,167.915 C194.52,168.955 192.52,170.085 189.96,171.185 C189.95,171.195 189.94,171.205 189.92,171.205 C187.85,172.105 185.4,172.985 182.5,173.785 C182.37,173.825 182.23,173.845 182.1,173.845 C181.47,173.845 180.89,173.445 180.68,172.825 C180.67,172.785 179.91,170.545 178.57,168.095 C178.39,168.575 178.14,169.025 177.83,169.415 C175.96,171.815 172.57,171.355 172.57,171.355 C172.08,171.285 171.64,170.975 171.42,170.525 C171.41,170.515 170.64,168.945 168.65,165.615 C167.51,163.705 167.21,161.875 167.75,160.165 C168.38,158.185 170.14,156.495 172.84,155.295 C173.06,155.195 173.33,155.095 173.63,154.975 C173.32,154.315 172.9,153.485 172.38,152.515 L167.45,154.485 C167.27,154.555 167.08,154.585 166.89,154.585 C166.42,154.585 165.95,154.365 165.67,153.955 L157.17,141.835 C156.91,141.465 156.83,140.995 156.95,140.565 C157.07,140.135 157.38,139.775 157.79,139.595 L162.02,137.745 C156.12,131.055 149.27,125.465 141.61,121.095 C141.65,121.575 141.68,122.055 141.7,122.545 C141.72,122.825 141.73,123.105 141.74,123.385 L141.74,123.395 C141.81,123.775 149.1,161.645 149.6,186.485 C149.61,186.885 149.45,187.275 149.17,187.565 C148.89,187.845 148.5,188.015 148.1,188.015 L126.77,188.015 L126.77,202.345 L144.02,202.345 C148.57,202.345 152.27,206.045 152.27,210.595 C152.27,212.585 151.56,214.415 150.38,215.845 L209.1,215.845 C209.93,215.845 210.6,216.515 210.6,217.345 L210.6,217.345 Z M228.6,217.345 C228.6,218.175 227.93,218.845 227.1,218.845 L216.77,218.845 C215.94,218.845 215.27,218.175 215.27,217.345 C215.27,216.515 215.94,215.845 216.77,215.845 L227.1,215.845 C227.93,215.845 228.6,216.515 228.6,217.345 L228.6,217.345 Z" id="Fill-8" fill="#42384B"></path>
    </g>
</svg>