<?xml version="1.0" encoding="UTF-8" standalone="no"?>
<svg width="234px" height="231px" viewBox="0 0 234 231" version="1.1" xmlns="http://www.w3.org/2000/svg" xmlns:xlink="http://www.w3.org/1999/xlink">
    <!-- Generator: Sketch 39.1 (31720) - http://www.bohemiancoding.com/sketch -->
    <title>Slice 1</title>
    <desc>Created with Sketch.</desc>
    <defs></defs>
    <g id="Page-1" stroke="none" stroke-width="1" fill="none" fill-rule="evenodd">
        <path d="M94.464,39.978 C95.699,37.228 106.703,12.974 112.613,8.368 C113.625,7.586 114.664,6.884 116.24,6.884 C118.107,6.884 120.637,7.879 124.443,10.111 C131.146,14.05 138.164,17.483 139.503,18.131 C139.681,18.217 139.825,18.25 139.974,18.25 C140.26,18.25 140.536,18.127 140.732,17.914 L140.933,17.685 C145.077,12.991 147.851,9.595 149.447,7.572 L150.332,7.972 C149.382,13.187 147.526,20.598 144.078,26.292 L143.98,26.452 L143.803,26.509 C143.31,26.667 142.248,26.933 140.683,26.933 C140.438,26.933 140.182,26.926 139.914,26.912 C137.536,26.772 134.963,26.081 132.264,24.858 L132.131,24.797 L132.051,24.675 C130.09,21.657 128.2,18.956 126.433,16.646 C126.241,16.393 125.95,16.249 125.634,16.249 C125.416,16.249 125.207,16.319 125.032,16.451 C124.599,16.786 124.515,17.419 124.849,17.861 C130.72,25.562 136.615,35.846 138.877,39.909 L139.349,40.757 L138.384,40.649 C133.953,40.154 129.729,39.785 125.83,39.552 C122.771,39.359 119.738,39.252 116.816,39.232 C110.45,39.267 103.1,39.754 94.977,40.679 L94.104,40.779 L94.464,39.978 L94.464,39.978 Z M19.585,75.554 C27.827,68.88 48.568,57.152 94.892,53.584 C101.827,53.049 109.195,52.719 116.792,52.603 C179.894,53.59 205.795,68.974 214.002,75.542 L213.602,76.425 C207.45,75.324 200.996,74.292 194.42,73.357 C192.91,73.138 191.331,72.917 189.712,72.698 C189.549,72.655 189.468,72.643 189.38,72.643 C175.216,70.741 161.342,69.355 148.079,68.521 C138.009,67.878 128.199,67.553 118.92,67.553 L115.442,67.549 C114.187,67.549 112.932,67.558 111.676,67.573 C101.397,67.655 90.447,68.129 79.127,68.981 C67.738,69.836 56.046,71.067 44.377,72.638 C44.178,72.643 44.06,72.659 43.958,72.69 C41.229,73.068 38.712,73.427 36.364,73.777 C28.875,74.879 23.325,75.83 19.989,76.435 L19.585,75.554 L19.585,75.554 Z M81.49,227.493 C76.661,227.493 71.49,217.383 71.49,202.333 L71.49,201.626 L72.052,201.696 C77.243,202.343 83.439,202.773 90.996,203.013 L91.489,203.029 L91.48,203.522 C91.348,210.452 90.071,216.814 87.882,221.437 C86.03,225.342 83.76,227.493 81.49,227.493 L81.49,227.493 Z M152.16,227.493 C149.894,227.493 147.621,225.342 145.759,221.438 C143.576,216.828 142.302,210.466 142.17,203.522 L142.161,203.029 L142.654,203.013 C147.513,202.856 151.686,202.63 155.409,202.324 C157.557,202.147 159.636,201.936 161.589,201.696 L162.15,201.627 L162.15,202.192 C162.156,202.244 162.16,202.288 162.16,202.333 C162.16,217.383 156.989,227.493 152.16,227.493 L152.16,227.493 Z" id="Fill-9" fill="#515163"></path>
        <path d="M154.854,53.248 C143.275,51.708 130.469,50.818 116.792,50.603 C109.05,50.729 101.625,51.065 94.739,51.601 C89.145,52.024 83.781,52.575 78.796,53.238 L78.23,53.313 L78.23,45.092 L78.644,45.02 C82.206,44.4 100.783,41.305 116.817,41.232 C119.586,41.242 122.577,41.344 125.71,41.534 C138.74,42.323 151.427,44.402 155.005,45.02 L155.42,45.092 L155.42,53.323 L154.854,53.248 L154.854,53.248 Z M18.443,192.595 C17.841,192.595 17.342,192.495 16.96,192.296 C16.064,191.828 15.997,190.496 16.758,188.336 C20.541,177.821 31.978,166.809 35.393,163.684 L36.129,163.009 L36.228,164.003 C36.897,170.792 37.958,176.194 39.472,180.518 L39.565,180.783 L39.386,181.001 C35.274,185.985 23.335,192.595 18.443,192.595 L18.443,192.595 L18.443,192.595 Z M215.207,192.595 C210.305,192.594 198.366,185.984 194.264,181 L194.085,180.784 L194.178,180.518 C195.7,176.144 196.758,170.742 197.413,164.004 L197.509,163.008 L198.248,163.684 C201.667,166.813 213.116,177.838 216.881,188.333 C217.42,189.813 217.826,191.703 216.691,192.295 C216.308,192.495 215.809,192.595 215.207,192.595 L215.207,192.595 Z M110.498,201.313 C96.847,201.262 82.767,201.034 72.269,199.729 C69.582,199.394 67.233,199.013 65.087,198.562 C57.77,197.042 52.546,194.731 48.649,191.287 C47.174,189.978 45.911,188.521 44.784,186.83 L44.266,186.053 L111.513,186.053 L110.592,186.917 C108.994,188.417 107.987,190.434 107.757,192.595 C107.719,192.921 107.7,193.242 107.7,193.573 C107.7,196.202 108.84,198.704 110.829,200.436 L111.841,201.317 L110.498,201.313 L110.498,201.313 Z M122.811,200.436 C123.67,199.685 124.365,198.808 124.877,197.831 C125.58,196.532 125.95,195.062 125.95,193.573 C125.95,191.033 124.919,188.669 123.048,186.918 L122.125,186.053 L189.384,186.053 L188.866,186.83 C187.749,188.505 186.482,189.963 184.992,191.287 C181.095,194.73 175.875,197.042 168.562,198.563 C164.837,199.338 160.477,199.923 155.23,200.351 C145.668,201.126 133.644,201.272 123.142,201.313 L121.804,201.318 L122.811,200.436 L122.811,200.436 Z" id="Fill-10" fill="#48A4A3"></path>
        <path d="M76.65,128.353 C74.72,128.353 73.15,129.923 73.15,131.853 C73.15,133.782 74.72,135.353 76.65,135.353 C78.58,135.353 80.15,133.782 80.15,131.853 C80.15,129.923 78.58,128.353 76.65,128.353 L76.65,128.353 Z M74.49,151.333 C68.794,151.333 64.16,146.694 64.16,140.993 L64.16,117.663 C64.16,111.967 68.794,107.333 74.49,107.333 C80.186,107.333 84.82,111.967 84.82,117.663 L84.82,140.993 C84.82,146.694 80.186,151.333 74.49,151.333 L74.49,151.333 Z M157,128.353 C155.07,128.353 153.5,129.923 153.5,131.853 C153.5,133.782 155.07,135.353 157,135.353 C158.93,135.353 160.5,133.782 160.5,131.853 C160.5,129.923 158.93,128.353 157,128.353 L157,128.353 Z M159.16,151.333 C153.458,151.333 148.82,146.694 148.82,140.993 L148.82,117.663 C148.82,111.967 153.458,107.333 159.16,107.333 C164.856,107.333 169.49,111.967 169.49,117.663 L169.49,140.993 C169.49,146.694 164.856,151.333 159.16,151.333 L159.16,151.333 Z" id="Fill-11" fill="#FFFFFF"></path>
        <path d="M116.82,167.982 C104.273,167.982 99.08,167.982 95.182,155.229 L94.984,154.583 L138.666,154.583 L138.468,155.229 C134.57,167.982 129.374,167.982 116.82,167.982" id="Fill-12" fill="#DB807E"></path>
        <path d="M192.167,84.029 C178.469,82.279 168.38,76.146 163.585,72.646 L162.122,71.579 L163.926,71.745 C172.103,72.499 180.393,73.438 188.566,74.537 L188.8,74.568 L188.924,74.769 C190.47,77.249 191.708,80.069 192.708,83.388 L192.931,84.126 L192.167,84.029 L192.167,84.029 Z M40.941,83.388 C41.946,80.065 43.181,77.252 44.716,74.789 L44.84,74.588 L45.074,74.557 C53.266,73.456 61.55,72.517 69.694,71.765 L71.499,71.598 L70.035,72.667 C65.253,76.157 55.186,82.275 41.483,84.029 L40.718,84.126 L40.941,83.388 L40.941,83.388 Z M194.627,96.709 C188.498,96.052 182.465,95.025 176.695,93.659 C176.298,93.546 175.517,93.324 174.439,93.102 C149.4,86.716 134.412,75.209 129.129,70.558 L128.098,69.65 L129.472,69.683 C135.526,69.827 141.743,70.1 147.952,70.494 C151.559,70.724 155.122,70.987 158.542,71.274 L158.712,71.289 L158.837,71.404 C161.122,73.495 173.511,84.034 193.114,86.155 L193.466,86.193 L193.547,86.538 C193.97,88.341 194.346,90.284 194.664,92.315 C194.855,93.552 195.027,94.844 195.177,96.156 L195.248,96.776 L194.627,96.709 L194.627,96.709 Z M38.474,96.156 C38.622,94.848 38.794,93.556 38.986,92.316 C39.328,90.136 39.693,88.245 40.104,86.536 L40.186,86.193 L40.536,86.155 C60.217,84.019 72.516,73.501 74.781,71.415 L74.908,71.298 L79.261,70.954 C87.703,70.318 96.083,69.891 104.167,69.683 L105.539,69.647 L104.512,70.557 C99.271,75.196 84.375,86.679 59.304,93.087 C58.205,93.308 57.406,93.526 56.924,93.671 C51.185,95.028 45.172,96.048 39.024,96.709 L38.403,96.776 L38.474,96.156 L38.474,96.156 Z M19.21,156.881 C17.507,153.38 16.782,149.835 16.475,147.478 L16.315,146.257 L17.28,147.021 C19.601,148.855 21.504,149.944 22.432,150.43 L22.781,150.612 L22.685,150.995 C22.114,153.259 21.334,155.037 20.077,156.938 L19.594,157.669 L19.21,156.881 L19.21,156.881 Z M213.573,156.948 C212.299,155.021 211.519,153.241 210.965,150.992 L210.871,150.611 L211.218,150.43 C212.149,149.942 214.055,148.85 216.369,147.011 L217.331,146.247 L217.176,147.465 C216.878,149.818 216.162,153.363 214.439,156.892 L214.056,157.678 L213.573,156.948 L213.573,156.948 Z M28.972,166.667 C25.695,165.168 22.981,162.862 20.906,159.814 L20.708,159.523 L20.916,159.238 C24.473,154.36 25.524,151.056 26.141,137.11 C26.34,132.933 26.492,127.737 26.67,121.378 C27.25,100.52 33.477,87.899 38.598,80.985 L39.474,81.441 C38.441,84.531 37.64,87.994 37.024,92.028 C36.525,95.271 36.15,98.761 35.879,102.697 C35.382,109.63 35.16,118.048 35.16,129.993 C35.16,140.443 35.252,151.351 35.918,160.325 L35.945,160.676 L35.624,160.819 C35.603,160.828 35.563,160.859 35.525,160.888 C35.477,160.926 32.947,163.069 29.538,166.562 L29.292,166.813 L28.972,166.667 L28.972,166.667 Z M204.112,166.562 C200.979,163.352 198.476,161.178 198.146,160.912 C198.063,160.841 198.021,160.817 198.006,160.81 L197.707,160.66 L197.731,160.325 C198.398,151.345 198.49,140.439 198.49,129.993 C198.49,116.471 198.195,107.131 197.532,99.707 C197.284,96.851 196.984,94.333 196.616,92.011 C196.004,88.009 195.206,84.552 194.175,81.44 L195.052,80.985 C200.173,87.899 206.4,100.52 206.98,121.379 C207.05,123.958 207.12,126.327 207.189,128.517 C207.83,149.716 208.503,153.449 212.734,159.248 L212.942,159.533 L212.743,159.825 C210.664,162.868 207.95,165.17 204.678,166.667 L204.358,166.813 L204.112,166.562 L204.112,166.562 Z M116.82,200.703 C112.894,200.703 109.7,197.504 109.7,193.573 C109.7,193.328 109.71,193.094 109.732,192.849 C110.105,189.193 113.152,186.442 116.82,186.442 C120.751,186.442 123.95,189.641 123.95,193.573 C123.95,194.763 123.652,195.935 123.088,196.963 C121.84,199.269 119.438,200.703 116.82,200.703 L116.82,200.703 Z" id="Fill-13" fill="#F3B130"></path>
        <g id="Group-17">
            <path d="M55.336,110.794 C55.188,110.794 55.042,110.828 54.906,110.893 C54.662,111.007 54.48,111.207 54.391,111.458 C54.3,111.711 54.314,111.983 54.431,112.226 C56.04,115.621 59.763,117.467 61.84,118.266 L62.16,118.389 L62.16,140.993 C62.16,147.797 67.691,153.333 74.49,153.333 C81.289,153.333 86.82,147.797 86.82,140.993 L86.82,117.663 C86.82,110.864 81.289,105.333 74.49,105.333 C70.796,105.333 67.324,106.972 64.966,109.831 L64.604,110.269 L64.216,109.855 C62.617,108.153 59.986,104.682 60.332,100.56 C60.378,100.012 59.968,99.528 59.417,99.48 L59.409,99.48 C58.806,99.48 58.383,99.874 58.338,100.396 C57.883,105.825 61.643,110.156 63.281,111.766 L63.535,112.016 L63.381,112.338 C62.872,113.406 62.52,114.518 62.333,115.644 L62.227,116.288 L61.633,116.018 C60.11,115.325 57.386,113.799 56.238,111.366 C56.069,111.015 55.723,110.794 55.336,110.794 L55.336,110.794 Z M159.16,105.333 C152.355,105.333 146.82,110.864 146.82,117.663 L146.82,140.993 C146.82,147.797 152.355,153.333 159.16,153.333 C165.959,153.333 171.49,147.797 171.49,140.993 L171.49,118.389 L171.811,118.266 C173.888,117.467 177.611,115.62 179.218,112.229 C179.452,111.728 179.241,111.128 178.746,110.895 C178.607,110.828 178.462,110.794 178.313,110.794 C177.927,110.794 177.575,111.018 177.413,111.364 C176.306,113.694 173.861,115.175 172.004,116.009 L171.412,116.275 L171.307,115.634 C171.118,114.488 170.766,113.38 170.26,112.341 L170.103,112.017 L170.36,111.765 C172.001,110.161 175.768,105.841 175.312,100.394 C175.268,99.871 174.848,99.476 174.334,99.476 L174.232,99.48 C173.673,99.528 173.271,100.002 173.318,100.56 C173.666,104.696 171.027,108.16 169.423,109.856 L169.034,110.269 L168.674,109.83 C166.325,106.972 162.858,105.333 159.16,105.333 L159.16,105.333 Z M93.67,152.583 C93.36,152.583 93.064,152.729 92.878,152.974 C92.684,153.223 92.622,153.538 92.703,153.844 C96.896,169.364 102.767,169.982 116.82,169.982 C130.873,169.982 136.744,169.364 140.948,153.842 C141.025,153.548 140.96,153.223 140.771,152.974 C140.585,152.729 140.29,152.583 139.98,152.583 L93.67,152.583 L93.67,152.583 Z M43.16,184.053 L43.022,183.774 C42.539,182.797 42.087,181.745 41.642,180.558 L41.61,180.473 L41.61,180.461 C37.871,170.23 37.16,154.817 37.16,129.993 C37.16,118.029 37.374,109.651 37.851,102.827 C37.941,101.592 38.042,100.389 38.152,99.225 L38.191,98.817 L38.598,98.775 C45.98,98.007 53.204,96.733 60.067,94.988 C62.012,94.627 63.963,94.447 65.899,94.447 C68.806,94.447 71.595,94.857 74.189,95.665 C84.167,98.788 89.357,102.848 91.543,109.241 C91.677,109.637 92.066,109.913 92.49,109.913 C92.613,109.913 92.712,109.896 92.813,109.861 C93.069,109.772 93.272,109.593 93.39,109.354 C93.507,109.115 93.524,108.846 93.438,108.596 C91.056,101.626 85.305,97.051 74.791,93.76 C73.501,93.354 72.154,93.045 70.674,92.817 L70.587,91.85 C93.973,83.783 106.105,72.03 108.3,69.755 L108.444,69.607 L108.65,69.603 C109.614,69.583 110.579,69.574 111.543,69.564 L114.72,69.553 L118.775,69.549 C120.852,69.549 122.92,69.562 124.987,69.592 L125.195,69.595 L125.34,69.745 C127.538,72.023 139.685,83.793 163.063,91.85 L162.976,92.817 C161.496,93.045 160.149,93.354 158.86,93.76 C148.346,97.047 142.596,101.623 140.213,108.594 C140.034,109.113 140.313,109.68 140.833,109.86 C140.931,109.896 141.037,109.913 141.16,109.913 C141.583,109.913 141.965,109.64 142.109,109.235 C144.292,102.849 149.479,98.789 159.451,95.665 C162.049,94.857 164.843,94.447 167.754,94.447 C169.694,94.447 171.645,94.627 173.551,94.981 C180.447,96.733 187.67,98.007 195.052,98.775 L195.461,98.818 L195.558,99.877 C196.211,107.286 196.49,116.292 196.49,129.993 C196.49,154.28 195.757,170.338 192.009,180.545 L191.969,180.654 L191.959,180.664 C191.543,181.79 191.092,182.836 190.616,183.778 L190.478,184.053 L43.16,184.053 L43.16,184.053 Z" id="Fill-14" fill="#F9D4B4"></path>
            <path d="M168.46,198.073 C175.58,196.592 180.79,194.333 184.66,190.913 C186.09,189.643 187.35,188.203 188.45,186.553 L123.39,186.553 C125.27,188.313 126.45,190.803 126.45,193.573 C126.45,195.203 126.04,196.732 125.32,198.063 C124.77,199.112 124.02,200.042 123.14,200.813 C136.01,200.763 146.55,200.553 155.19,199.853 C160.22,199.442 164.62,198.873 168.46,198.073 L168.46,198.073 Z M161.66,202.333 C161.66,202.283 161.65,202.232 161.65,202.192 C159.69,202.433 157.63,202.643 155.45,202.823 C151.56,203.143 147.32,203.362 142.67,203.513 C142.81,210.893 144.24,217.063 146.21,221.223 C147.96,224.893 150.12,226.993 152.16,226.993 C156.65,226.993 161.66,216.862 161.66,202.333 L161.66,202.333 Z M146.88,227.493 C145.59,226.192 144.42,224.422 143.42,222.272 C141.21,217.553 139.81,211.002 139.67,203.603 C132.9,203.783 125.32,203.833 116.82,203.833 C108.33,203.833 100.75,203.783 93.98,203.603 C93.84,211.002 92.43,217.553 90.22,222.272 C89.22,224.422 88.05,226.192 86.76,227.493 L146.88,227.493 L146.88,227.493 Z M87.43,221.223 C89.4,217.063 90.84,210.893 90.98,203.513 C83.72,203.283 77.45,202.873 71.99,202.192 L71.99,202.333 C71.99,216.862 77,226.993 81.49,226.993 C83.54,226.993 85.69,224.893 87.43,221.223 L87.43,221.223 Z M72.33,199.232 C81.98,200.433 94.41,200.752 110.5,200.813 C108.48,199.053 107.2,196.462 107.2,193.573 C107.2,193.223 107.22,192.882 107.26,192.542 C107.51,190.192 108.61,188.092 110.25,186.553 L45.2,186.553 C46.3,188.203 47.55,189.643 48.98,190.913 C52.85,194.333 58.06,196.592 65.19,198.073 C67.38,198.533 69.76,198.913 72.33,199.232 L72.33,199.232 Z M123.45,193.573 C123.45,189.922 120.48,186.942 116.82,186.942 C113.4,186.942 110.57,189.563 110.23,192.893 C110.21,193.123 110.2,193.342 110.2,193.573 C110.2,197.223 113.17,200.203 116.82,200.203 C119.34,200.203 121.53,198.792 122.65,196.723 C123.16,195.792 123.45,194.712 123.45,193.573 L123.45,193.573 Z M43.47,183.553 L190.17,183.553 C190.67,182.563 191.12,181.502 191.53,180.382 C191.53,180.382 191.53,180.382 191.54,180.373 C195.23,170.323 195.99,154.823 195.99,129.993 C195.99,117.962 195.78,108.083 195.06,99.922 C195.04,99.703 195.02,99.493 195,99.272 C187.12,98.453 179.95,97.123 173.46,95.473 C170.39,94.902 165.13,94.422 159.6,96.143 C149.8,99.212 144.71,103.172 142.58,109.402 C142.36,110.022 141.78,110.413 141.16,110.413 C141,110.413 140.83,110.393 140.67,110.333 C139.89,110.063 139.47,109.212 139.74,108.433 C142.18,101.292 148.03,96.623 158.71,93.283 C160.14,92.832 161.54,92.533 162.9,92.323 C139.6,84.292 127.45,72.652 124.98,70.092 C122.27,70.053 119.56,70.042 116.83,70.053 L114.72,70.053 C113.71,70.053 112.7,70.062 111.69,70.062 C110.68,70.073 109.67,70.083 108.66,70.103 C106.18,72.672 94.03,84.292 70.75,92.323 C72.11,92.533 73.51,92.832 74.94,93.283 C85.61,96.623 91.47,101.292 93.91,108.433 C94.18,109.212 93.76,110.063 92.98,110.333 C92.81,110.393 92.65,110.413 92.49,110.413 C91.87,110.413 91.28,110.022 91.07,109.402 C88.94,103.172 83.85,99.212 74.04,96.143 C68.52,94.422 63.27,94.902 60.19,95.473 C53.7,97.123 46.53,98.453 38.65,99.272 C38.54,100.433 38.44,101.632 38.35,102.862 C37.82,110.433 37.66,119.373 37.66,129.993 C37.66,154.823 38.41,170.323 42.11,180.373 L42.11,180.382 C42.53,181.502 42.98,182.563 43.47,183.553 L43.47,183.553 Z M39,180.683 C37.4,176.112 36.38,170.643 35.73,164.053 C31.84,167.612 20.91,178.272 17.23,188.502 C16.93,189.353 16.31,191.393 17.19,191.853 C20.41,193.522 34.43,186.223 39,180.683 L39,180.683 Z M29.18,166.212 C32.42,162.893 34.93,160.732 35.18,160.522 C35.26,160.462 35.33,160.402 35.42,160.362 C34.8,152.013 34.66,142.022 34.66,129.993 C34.66,119.342 34.83,110.333 35.38,102.663 C35.65,98.752 36.03,95.203 36.53,91.953 C37.14,87.953 37.95,84.422 39,81.283 C34.03,87.993 27.75,100.522 27.17,121.393 C26.99,127.803 26.84,132.942 26.64,137.132 C26.03,150.942 25.01,154.473 21.32,159.533 C23.13,162.192 25.66,164.603 29.18,166.212 L29.18,166.212 Z M19.66,156.663 C20.81,154.922 21.61,153.212 22.2,150.873 C21.15,150.323 19.26,149.223 16.97,147.413 C17.29,149.862 18.02,153.292 19.66,156.663 L19.66,156.663 Z M39.48,92.393 C39.29,93.623 39.12,94.893 38.97,96.212 C45.38,95.522 51.32,94.482 56.78,93.192 C57.21,93.062 58.03,92.832 59.18,92.602 C83.79,86.312 98.51,75.203 104.18,70.183 C95.64,70.402 87.27,70.853 79.3,71.453 C77.89,71.562 76.5,71.672 75.12,71.783 C72.71,74.002 60.3,84.513 40.59,86.652 C40.16,88.442 39.8,90.352 39.48,92.393 L39.48,92.393 Z M45.14,75.053 C43.62,77.493 42.4,80.292 41.42,83.533 C54.86,81.813 64.74,75.913 69.74,72.263 C60.75,73.092 52.43,74.073 45.14,75.053 L45.14,75.053 Z M43.81,72.212 C43.97,72.163 44.14,72.143 44.31,72.143 C54.26,70.803 66.17,69.453 79.09,68.482 C89.45,67.703 100.47,67.163 111.67,67.073 C113.39,67.053 115.11,67.042 116.83,67.053 L118.92,67.053 C128.87,67.053 138.71,67.422 148.11,68.022 C163.54,68.993 177.79,70.583 189.38,72.143 C189.52,72.143 189.65,72.163 189.78,72.203 C191.4,72.422 192.98,72.643 194.49,72.862 C202.87,74.053 209.5,75.183 213.69,75.933 C205.18,69.123 179.4,54.083 116.8,53.103 C108.94,53.223 101.67,53.562 94.93,54.083 C47.8,57.712 27.26,69.982 19.9,75.942 C23.6,75.272 29.22,74.323 36.29,73.283 C38.64,72.933 41.16,72.573 43.81,72.212 L43.81,72.212 Z M78.73,52.743 C83.69,52.083 89.01,51.533 94.7,51.103 C101.51,50.573 108.86,50.232 116.8,50.103 C131.4,50.333 144.02,51.303 154.92,52.752 L154.92,45.513 C151.04,44.842 138.55,42.812 125.68,42.033 C122.71,41.853 119.73,41.743 116.82,41.732 C101.32,41.803 83.5,44.683 78.73,45.513 L78.73,52.743 L78.73,52.743 Z M94.92,40.183 C101.68,39.413 109.5,38.772 116.82,38.732 C119.79,38.752 122.83,38.862 125.86,39.053 C130.2,39.313 134.5,39.712 138.44,40.152 C135.88,35.553 130.13,25.612 124.45,18.163 C123.95,17.502 124.07,16.562 124.73,16.053 C125.39,15.553 126.33,15.683 126.83,16.342 C128.75,18.853 130.67,21.632 132.47,24.402 C135.56,25.803 138.07,26.303 139.94,26.413 C141.83,26.513 143.09,26.212 143.65,26.033 C147.09,20.353 148.92,12.933 149.84,7.882 C145.93,12.833 141.35,17.962 141.1,18.252 C140.65,18.743 139.93,18.893 139.33,18.603 C139.25,18.562 131.54,14.862 124.19,10.542 C116.84,6.232 115.12,7.062 112.92,8.763 C107.98,12.612 99.07,30.942 94.92,40.183 L94.92,40.183 Z M192.23,83.533 C191.25,80.283 190.02,77.473 188.5,75.033 C181.21,74.053 172.88,73.073 163.88,72.243 C168.88,75.893 178.76,81.813 192.23,83.533 L192.23,83.533 Z M193.06,86.652 C173.29,84.513 160.86,73.933 158.5,71.772 C155.05,71.482 151.52,71.223 147.92,70.993 C141.92,70.612 135.74,70.333 129.46,70.183 C135.15,75.192 149.92,86.333 174.54,92.612 C175.61,92.832 176.39,93.053 176.81,93.172 C182.3,94.473 188.25,95.522 194.68,96.212 C194.53,94.893 194.36,93.623 194.17,92.393 C193.85,90.352 193.48,88.442 193.06,86.652 L193.06,86.652 Z M194.65,81.283 C195.69,84.422 196.5,87.942 197.11,91.933 C197.49,94.332 197.79,96.902 198.03,99.663 C198.77,107.953 198.99,117.922 198.99,129.993 C198.99,142.022 198.85,152.013 198.23,160.362 C198.31,160.402 198.39,160.462 198.46,160.522 C198.72,160.732 201.23,162.893 204.47,166.212 C207.99,164.603 210.52,162.192 212.33,159.542 C207.96,153.553 207.33,149.732 206.69,128.533 C206.62,126.342 206.55,123.973 206.48,121.393 C205.9,100.522 199.62,87.993 194.65,81.283 L194.65,81.283 Z M211.45,150.873 C212.03,153.223 212.84,154.933 213.99,156.672 C215.64,153.292 216.37,149.853 216.68,147.402 C214.39,149.223 212.5,150.323 211.45,150.873 L211.45,150.873 Z M197.91,164.053 C197.27,170.643 196.24,176.112 194.65,180.683 C199.21,186.223 213.24,193.522 216.46,191.853 C217.34,191.393 216.72,189.353 216.41,188.502 C212.74,178.272 201.8,167.612 197.91,164.053 L197.91,164.053 Z M169.08,200.982 C167.67,201.283 166.2,201.542 164.65,201.783 C164.65,201.962 164.66,202.143 164.66,202.333 C164.66,213.643 161.73,223.163 157.43,227.493 L205.33,227.493 C206.16,227.493 206.83,228.163 206.83,228.993 C206.83,229.823 206.16,230.493 205.33,230.493 L31,230.493 C30.17,230.493 29.5,229.823 29.5,228.993 C29.5,226.692 27.63,224.833 25.33,224.833 C23.04,224.833 21.17,226.692 21.17,228.993 C21.17,229.823 20.5,230.493 19.67,230.493 L1.82,230.493 C0.99,230.493 0.32,229.823 0.32,228.993 C0.32,228.163 0.99,227.493 1.82,227.493 L18.32,227.493 C19.02,224.263 21.9,221.833 25.33,221.833 C28.77,221.833 31.65,224.263 32.34,227.493 L76.22,227.493 C71.91,223.163 68.99,213.643 68.99,202.333 C68.99,202.143 69,201.962 69,201.783 C67.45,201.542 65.98,201.283 64.57,200.982 C56.9,199.402 51.27,196.953 46.99,193.163 C44.12,190.612 41.92,187.533 40.22,183.763 C35.33,188.643 24.67,195.063 18.46,195.063 C17.44,195.063 16.54,194.893 15.81,194.513 C14.3,193.732 12.84,191.873 14.41,187.493 C16.9,180.542 22.33,173.612 27.01,168.513 C13.43,161.542 13.73,144.063 13.73,143.873 L13.83,140.513 L16.27,142.833 C18.92,145.342 21.33,146.922 22.8,147.772 C23.19,145.092 23.45,141.672 23.66,136.993 C23.84,132.862 23.99,127.752 24.17,121.313 C24.89,95.123 34.14,81.562 39.56,75.823 C38.59,75.962 37.65,76.103 36.73,76.232 C23.8,78.152 15.73,79.772 15.53,79.823 C14.92,79.942 14.3,79.683 13.97,79.152 C13.64,78.632 13.66,77.953 14.03,77.453 C14.67,76.603 27.47,60.163 75.73,53.163 L75.73,43.002 L76.95,42.772 C77.07,42.752 83.1,41.652 91.46,40.602 C93.55,35.853 104.51,11.502 111.08,6.402 C115.02,3.333 118.44,3.692 125.71,7.953 C131.39,11.292 137.3,14.263 139.61,15.402 C141.74,12.982 147.84,5.942 150.92,1.413 C151.3,0.842 152.01,0.612 152.66,0.833 C153.3,1.062 153.71,1.692 153.65,2.373 C153.6,3.013 152.27,17.973 145.94,28.042 C145.79,28.283 145.59,28.462 145.34,28.592 C145.21,28.663 143.28,29.583 139.8,29.393 C138.46,29.323 136.9,29.092 135.12,28.583 C138.51,34.053 141.17,38.862 142.11,40.592 C150.51,41.643 156.58,42.752 156.69,42.772 L157.92,43.002 L157.92,53.163 C204.15,59.873 217.84,75.232 219.47,77.272 C219.75,77.542 219.93,77.922 219.93,78.352 C219.93,79.183 219.26,79.852 218.43,79.852 L218.41,79.852 C218.31,79.852 218.21,79.842 218.11,79.823 C217.9,79.772 208.65,77.902 194.08,75.813 C199.5,81.542 208.75,95.102 209.48,121.313 C209.55,123.893 209.62,126.252 209.68,128.422 C209.97,137.833 210.25,143.683 210.85,147.772 C212.32,146.922 214.73,145.342 217.38,142.833 L219.82,140.513 L219.91,143.873 C219.92,144.063 220.22,161.542 206.64,168.513 C211.32,173.612 216.74,180.542 219.23,187.493 C220.81,191.873 219.35,193.732 217.84,194.513 C217.11,194.893 216.21,195.063 215.19,195.063 C208.98,195.063 198.31,188.643 193.43,183.763 C191.73,187.533 189.52,190.612 186.65,193.163 C182.38,196.953 176.75,199.402 169.08,200.982 L169.08,200.982 Z M84.32,117.663 C84.32,112.243 79.91,107.833 74.49,107.833 C69.07,107.833 64.66,112.243 64.66,117.663 L64.66,140.993 C64.66,146.413 69.07,150.833 74.49,150.833 C79.91,150.833 84.32,146.413 84.32,140.993 L84.32,117.663 L84.32,117.663 Z M87.32,117.663 L87.32,140.993 C87.32,148.073 81.57,153.833 74.49,153.833 C67.41,153.833 61.66,148.073 61.66,140.993 L61.66,118.732 C59.71,117.982 55.7,116.073 53.98,112.442 C53.62,111.692 53.94,110.792 54.69,110.442 C55.44,110.083 56.33,110.402 56.69,111.152 C57.69,113.272 60.06,114.752 61.84,115.563 C62.04,114.353 62.42,113.192 62.93,112.123 C61.13,110.353 57.37,105.962 57.84,100.352 C57.91,99.533 58.62,98.913 59.46,98.982 C60.28,99.053 60.9,99.772 60.83,100.602 C60.5,104.533 63.03,107.862 64.58,109.513 C66.94,106.652 70.51,104.833 74.49,104.833 C81.57,104.833 87.32,110.583 87.32,117.663 L87.32,117.663 Z M76.65,127.853 C74.44,127.853 72.65,129.643 72.65,131.853 C72.65,134.053 74.44,135.853 76.65,135.853 C78.86,135.853 80.65,134.053 80.65,131.853 C80.65,129.643 78.86,127.853 76.65,127.853 L76.65,127.853 Z M137.99,155.083 L95.66,155.083 C99.45,167.482 104.44,167.482 116.82,167.482 C129.21,167.482 134.2,167.482 137.99,155.083 L137.99,155.083 Z M141.17,152.672 C141.45,153.042 141.55,153.522 141.43,153.973 C137.14,169.813 130.79,170.482 116.82,170.482 C102.86,170.482 96.5,169.813 92.22,153.973 C92.1,153.522 92.19,153.042 92.48,152.672 C92.76,152.303 93.2,152.083 93.67,152.083 L139.98,152.083 C140.45,152.083 140.89,152.303 141.17,152.672 L141.17,152.672 Z M168.99,117.663 C168.99,112.243 164.58,107.833 159.16,107.833 C153.73,107.833 149.32,112.243 149.32,117.663 L149.32,140.993 C149.32,146.413 153.73,150.833 159.16,150.833 C164.58,150.833 168.99,146.413 168.99,140.993 L168.99,117.663 L168.99,117.663 Z M179.67,112.442 C177.95,116.073 173.94,117.982 171.99,118.732 L171.99,140.993 C171.99,148.073 166.23,153.833 159.16,153.833 C152.08,153.833 146.32,148.073 146.32,140.993 L146.32,117.663 C146.32,110.583 152.08,104.833 159.16,104.833 C163.14,104.833 166.71,106.652 169.06,109.513 C170.62,107.862 173.15,104.533 172.82,100.602 C172.75,99.772 173.36,99.053 174.19,98.982 C175.02,98.902 175.74,99.522 175.81,100.352 C176.28,105.962 172.52,110.353 170.71,112.123 C171.23,113.192 171.6,114.342 171.8,115.553 C173.47,114.803 175.9,113.382 176.96,111.152 C177.31,110.402 178.21,110.083 178.96,110.442 C179.7,110.792 180.02,111.692 179.67,112.442 L179.67,112.442 Z M157,127.853 C154.79,127.853 153,129.643 153,131.853 C153,134.053 154.79,135.853 157,135.853 C159.21,135.853 161,134.053 161,131.853 C161,129.643 159.21,127.853 157,127.853 L157,127.853 Z M233.32,228.993 C233.32,229.823 232.65,230.493 231.82,230.493 L217.67,230.493 C216.84,230.493 216.17,229.823 216.17,228.993 C216.17,228.163 216.84,227.493 217.67,227.493 L231.82,227.493 C232.65,227.493 233.32,228.163 233.32,228.993 L233.32,228.993 Z" id="Fill-16" fill="#3B3B4D"></path>
        </g>
    </g>
</svg>