<?xml version="1.0" encoding="UTF-8" standalone="no"?>
<svg width="230px" height="214px" viewBox="0 0 230 214" version="1.1" xmlns="http://www.w3.org/2000/svg" xmlns:xlink="http://www.w3.org/1999/xlink">
    <!-- Generator: Sketch 39.1 (31720) - http://www.bohemiancoding.com/sketch -->
    <title>Slice 1</title>
    <desc>Created with Sketch.</desc>
    <defs></defs>
    <g id="Page-1" stroke="none" stroke-width="1" fill="none" fill-rule="evenodd">
        <polygon id="Fill-22" fill="#686177" points="105.05 191.845 114.021 191.845 114.021 153.595 105.05 153.595"></polygon>
        <path d="M124.71,142.085 C124.71,144.291 122.916,146.085 120.71,146.085 L109.324,146.091 L109.27,146.076 L109.213,146.075 C107.071,146.022 105.33,144.232 105.33,142.085 L105.33,137.345 L90.58,137.345 L90.58,144.595 C90.58,144.831 90.591,145.066 90.613,145.307 C90.985,148.892 93.98,151.595 97.58,151.595 L132.46,151.595 C135.53,151.595 138.22,149.618 139.15,146.674 C139.35,146.009 139.46,145.309 139.46,144.595 L139.46,137.345 L124.71,137.345 L124.71,142.085" id="Fill-23" fill="#686177"></path>
        <polygon id="Fill-24" fill="#686177" points="116.021 191.845 124.99 191.845 124.99 153.595 116.021 153.595"></polygon>
        <path d="M154.21,12.845 C154.21,12.294 153.76,11.845 153.21,11.845 C152.66,11.845 152.21,12.294 152.21,12.845 L152.21,15.545 L152.1,15.683 C151.37,16.559 149.09,18.595 143.55,18.595 L86.49,18.595 C80.945,18.595 78.667,16.559 77.944,15.683 L77.83,15.545 L77.83,12.845 C77.83,12.294 77.382,11.845 76.83,11.845 C76.278,11.845 75.83,12.294 75.83,12.845 L75.83,59.643 L75.196,59.467 C74.308,59.22 73.421,59.095 72.561,59.095 C72.334,59.095 72.108,59.114 71.882,59.133 L71.34,59.178 L71.34,12.845 C71.34,6.07 74.967,2.845 95.58,2.845 L134.46,2.845 C155.08,2.845 158.71,6.07 158.71,12.845 L158.71,59.178 L158.17,59.133 C157.94,59.114 157.71,59.095 157.48,59.095 C156.62,59.095 155.73,59.22 154.84,59.467 L154.21,59.643 L154.21,12.845" id="Fill-25" fill="#454654"></path>
        <path d="M135.72,91.19 C134.92,88.743 133.06,84.205 129.57,81.31 L129.11,80.93 L128.82,81.447 C128.09,82.717 126.36,84.845 122.87,84.845 L107.18,84.845 C103.676,84.845 101.951,82.718 101.235,81.449 L100.941,80.929 L100.481,81.309 C96.958,84.22 95.117,88.751 94.334,91.192 L94.125,91.845 L135.93,91.845 L135.72,91.19" id="Fill-26" fill="#DC827F"></path>
        <path d="M90.58,110.345 L90.58,135.345 L105.33,135.345 L105.33,132.345 C105.33,130.139 107.124,128.345 109.33,128.345 L114.021,128.345 L114.021,121.845 L110,121.845 C109.448,121.845 109,121.396 109,120.845 C109,120.294 109.448,119.845 110,119.845 L114.021,119.845 L114.021,113.675 L106.33,113.675 C105.778,113.675 105.33,113.226 105.33,112.675 C105.33,112.124 105.778,111.675 106.33,111.675 L114.021,111.675 L114.021,103.345 L97.58,103.345 C93.721,103.345 90.58,106.485 90.58,110.345 L90.58,110.345 Z M132.46,103.345 L116.021,103.345 L116.021,111.675 L123.71,111.675 C124.26,111.675 124.71,112.124 124.71,112.675 C124.71,113.226 124.26,113.675 123.71,113.675 L116.021,113.675 L116.021,119.845 L120.05,119.845 C120.602,119.845 121.05,120.294 121.05,120.845 C121.05,121.396 120.602,121.845 120.05,121.845 L116.021,121.845 L116.021,128.345 L120.71,128.345 C122.856,128.345 124.65,130.087 124.7,132.228 L124.7,132.293 L124.71,132.345 L124.71,135.345 L139.46,135.345 L139.46,110.345 C139.46,106.485 136.32,103.345 132.46,103.345 L132.46,103.345 Z M166.47,120.584 C163.38,118.288 160.13,116.144 156.8,114.212 L156.43,113.995 L148.64,123.859 L148.93,124.173 C150.92,126.347 152.96,128.684 155.17,131.316 L155.51,131.722 L166.95,120.94 L166.47,120.584 L166.47,120.584 Z M184.36,138.202 C181.86,134.928 179.04,131.737 175.97,128.719 L175.67,128.421 L161.25,138.962 L161.55,139.367 C163.61,142.091 165.55,144.795 167.3,147.404 L167.56,147.778 L184.71,138.671 L184.36,138.202 L184.36,138.202 Z M141.73,107.144 L140.8,106.813 L141.08,107.76 C141.33,108.59 141.46,109.46 141.46,110.345 L141.46,116.423 L143.05,118.002 L147.46,109.451 L146.97,109.238 C145.15,108.437 143.39,107.733 141.73,107.144 L141.73,107.144 Z M54.08,128.718 C51.053,131.682 48.228,134.872 45.683,138.201 L45.324,138.67 L62.495,147.779 L62.746,147.402 C63.888,145.689 65.812,142.905 68.488,139.367 L68.795,138.962 L54.383,128.421 L54.08,128.718 L54.08,128.718 Z M83.069,109.238 L82.582,109.451 L86.989,118.002 L88.58,116.423 L88.58,110.345 C88.58,109.459 88.708,108.589 88.959,107.76 L89.247,106.81 L88.313,107.144 C86.599,107.757 84.834,108.461 83.069,109.238 L83.069,109.238 Z M73.614,113.995 L81.406,123.859 L81.119,124.173 C79.021,126.465 76.924,128.867 74.884,131.315 L74.544,131.723 L63.093,120.94 L63.571,120.584 C66.657,118.288 69.91,116.144 73.239,114.212 L73.614,113.995 L73.614,113.995 Z" id="Fill-27" fill="#E48455"></path>
        <path d="M107.18,82.845 C104.567,82.845 103.367,81.258 102.885,80.312 L102.648,79.849 L103.12,79.631 C104.607,78.943 106.192,78.595 107.83,78.595 L122.21,78.595 C123.848,78.595 125.43,78.943 126.92,79.631 L127.39,79.849 L127.16,80.312 C126.67,81.258 125.47,82.845 122.87,82.845 L107.18,82.845" id="Fill-28" fill="#E6F5F8"></path>
        <path d="M120.71,130.345 L109.33,130.345 C108.228,130.345 107.33,131.242 107.33,132.345 L107.33,142.085 C107.33,143.188 108.228,144.085 109.33,144.085 L120.71,144.085 C121.813,144.085 122.71,143.188 122.71,142.085 L122.71,132.345 C122.71,131.242 121.813,130.345 120.71,130.345 L120.71,130.345 Z M149.73,110.484 L149.29,110.274 L144.53,119.493 L144.78,119.751 C145.49,120.489 146.19,121.218 146.87,121.946 L147.26,122.371 L154.66,113.007 L154.14,112.724 C152.71,111.953 151.22,111.199 149.73,110.484 L149.73,110.484 Z M173.74,126.607 C172.17,125.168 170.54,123.77 168.88,122.453 L168.54,122.184 L156.77,133.27 L157.06,133.631 C158.01,134.797 158.9,135.913 159.72,136.99 L160.02,137.377 L174.19,127.019 L173.74,126.607 L173.74,126.607 Z M61.158,122.453 C59.503,123.77 57.869,125.167 56.302,126.607 L55.853,127.019 L70.019,137.377 L70.316,136.99 C71.144,135.913 72.03,134.797 72.978,133.631 L73.271,133.27 L61.497,122.184 L61.158,122.453 L61.158,122.453 Z M80.762,110.274 L85.52,119.496 L85.269,119.754 C84.552,120.491 83.854,121.218 83.177,121.946 L82.779,122.372 L75.378,113.007 L75.902,112.724 C77.303,111.97 78.749,111.238 80.324,110.484 L80.762,110.274 L80.762,110.274 Z" id="Fill-29" fill="#FACD5D"></path>
        <path d="M131.74,61.615 C130.27,61.615 129.07,60.417 129.07,58.945 C129.07,57.473 130.27,56.275 131.74,56.275 C133.21,56.275 134.41,57.473 134.41,58.945 C134.41,60.417 133.21,61.615 131.74,61.615 L131.74,61.615 Z M133.24,51.345 C128.07,51.345 123.87,55.553 123.87,60.725 C123.87,62.109 124.18,63.459 124.78,64.738 L124.96,65.114 L125.36,65.009 C127.82,64.363 131.01,64.036 134.84,64.036 C136.92,64.036 139.16,64.133 141.51,64.323 L141.89,64.354 L142.02,64 C142.42,62.932 142.62,61.83 142.62,60.725 C142.62,55.553 138.41,51.345 133.24,51.345 L133.24,51.345 Z M98.3,61.615 C96.833,61.615 95.64,60.417 95.64,58.945 C95.64,57.473 96.833,56.275 98.3,56.275 C99.772,56.275 100.97,57.473 100.97,58.945 C100.97,60.417 99.772,61.615 98.3,61.615 L98.3,61.615 Z M96.8,51.345 C91.633,51.345 87.43,55.553 87.43,60.725 C87.43,61.847 87.629,62.949 88.021,64 L88.154,64.354 L88.531,64.323 C90.877,64.133 93.12,64.036 95.199,64.036 C99.029,64.036 102.221,64.363 104.684,65.009 L105.086,65.114 L105.263,64.738 C105.871,63.444 106.18,62.094 106.18,60.725 C106.18,55.553 101.972,51.345 96.8,51.345 L96.8,51.345 Z" id="Fill-30" fill="#FACD5D"></path>
        <path d="M141.46,34.845 L141.46,29.095 C141.46,28.544 141.01,28.095 140.46,28.095 C139.91,28.095 139.46,28.544 139.46,29.095 L139.46,34.845 L126.99,34.845 L126.99,29.095 C126.99,28.544 126.54,28.095 125.99,28.095 C125.44,28.095 124.99,28.544 124.99,29.095 L124.99,34.845 L105.05,34.845 L105.05,29.095 C105.05,28.544 104.602,28.095 104.05,28.095 C103.498,28.095 103.05,28.544 103.05,29.095 L103.05,34.845 L90.58,34.845 L90.58,29.095 C90.58,28.544 90.132,28.095 89.58,28.095 C89.028,28.095 88.58,28.544 88.58,29.095 L88.58,34.845 L77.83,34.845 L77.83,18.286 L78.586,18.735 C80.662,19.969 83.322,20.595 86.49,20.595 L143.55,20.595 C146.72,20.595 149.38,19.969 151.45,18.735 L152.21,18.286 L152.21,34.845 L141.46,34.845 L141.46,34.845 Z M72.561,76.595 C68.287,76.595 64.811,73.118 64.811,68.845 C64.811,64.571 68.287,61.095 72.561,61.095 C73.582,61.095 74.578,61.293 75.521,61.683 L75.83,61.81 L75.83,73.595 L75.84,75.865 L75.535,75.995 C74.613,76.387 73.584,76.595 72.561,76.595 L72.561,76.595 Z M157.48,76.595 C156.45,76.595 155.45,76.393 154.51,75.996 L154.2,75.865 L154.2,75.527 C154.21,74.9 154.21,74.262 154.21,73.595 L154.21,61.81 L154.52,61.683 C155.45,61.298 156.47,61.095 157.48,61.095 C161.75,61.095 165.23,64.571 165.23,68.845 C165.23,73.118 161.75,76.595 157.48,76.595 L157.48,76.595 Z M105.501,67.345 C105.659,67.404 105.815,67.462 105.966,67.53 C106.067,67.568 106.206,67.595 106.33,67.595 C106.738,67.595 107.102,67.351 107.258,66.974 C107.385,66.663 107.345,66.31 107.15,66.031 L106.985,65.795 L107.107,65.534 C107.818,64.003 108.18,62.385 108.18,60.725 C108.18,54.45 103.074,49.345 96.8,49.345 C90.53,49.345 85.43,54.45 85.43,60.725 C85.43,61.813 85.595,62.908 85.919,63.98 L86.093,64.552 L85.498,64.621 C84.479,64.74 83.825,64.839 83.696,64.859 C83.151,64.939 82.775,65.447 82.855,65.993 C82.927,66.484 83.341,66.841 83.839,66.841 C83.888,66.841 83.938,66.838 83.988,66.83 C84.59,66.746 89.839,66.032 95.334,66.032 C99.517,66.032 102.833,66.437 105.193,67.235 L105.229,67.235 L105.314,67.276 L105.501,67.345 L105.501,67.345 Z M133.24,49.345 C126.97,49.345 121.87,54.45 121.87,60.725 C121.87,62.399 122.228,64.017 122.934,65.534 L123.056,65.796 L122.89,66.032 C122.695,66.31 122.657,66.66 122.79,66.968 C122.948,67.351 123.309,67.595 123.71,67.595 C123.835,67.595 123.977,67.568 124.12,67.516 C124.23,67.461 124.39,67.4 124.56,67.339 L124.72,67.279 L124.8,67.24 L124.84,67.239 C127.19,66.438 130.51,66.032 134.7,66.032 C140.4,66.032 145.82,66.797 146.05,66.829 C146.1,66.838 146.15,66.841 146.2,66.841 C146.69,66.841 147.11,66.477 147.18,65.993 C147.26,65.447 146.89,64.939 146.35,64.859 C146.21,64.839 145.56,64.74 144.54,64.621 L143.95,64.552 L144.12,63.98 C144.45,62.886 144.62,61.791 144.62,60.725 C144.62,54.45 139.51,49.345 133.24,49.345 L133.24,49.345 Z M107.83,76.595 C95.338,76.595 91.986,91.982 91.85,92.637 C91.79,92.938 91.864,93.246 92.055,93.476 C92.242,93.709 92.53,93.845 92.83,93.845 L137.21,93.845 C137.78,93.845 138.23,93.396 138.23,92.845 C138.23,92.716 138.21,92.592 138.16,92.476 C137.76,90.78 134.13,76.595 122.21,76.595 L107.83,76.595 L107.83,76.595 Z M95.957,101.422 C95.841,101.37 95.718,101.345 95.58,101.345 L88.08,101.345 C87.527,101.345 86.901,101.345 86.223,101.239 C82.617,100.645 77.83,97.135 77.83,73.595 L77.83,61.315 C77.839,61.214 77.839,61.165 77.834,61.126 L77.83,36.845 L88.58,36.845 L88.58,42.595 C88.58,43.146 89.028,43.595 89.58,43.595 C90.132,43.595 90.58,43.146 90.58,42.595 L90.58,36.845 L103.05,36.845 L103.05,42.595 C103.05,43.146 103.498,43.595 104.05,43.595 C104.602,43.595 105.05,43.146 105.05,42.595 L105.05,36.845 L124.99,36.845 L124.99,42.595 C124.99,43.146 125.44,43.595 125.99,43.595 C126.54,43.595 126.99,43.146 126.99,42.595 L126.99,36.845 L139.46,36.845 L139.46,42.595 C139.46,43.146 139.91,43.595 140.46,43.595 C141.01,43.595 141.46,43.146 141.46,42.595 L141.46,36.845 L152.21,36.845 L152.21,73.595 C152.21,97.135 147.42,100.645 143.82,101.238 C143.14,101.345 142.51,101.345 141.96,101.345 L134.46,101.345 C134.33,101.345 134.2,101.372 134.08,101.422 L133.95,101.48 L133.81,101.46 C133.43,101.406 133.01,101.355 132.58,101.355 L132.52,101.355 L132.46,101.341 L97.58,101.345 C97.185,101.345 96.757,101.382 96.234,101.46 L96.09,101.481 L95.957,101.422 L95.957,101.422 Z M52.697,149.418 C51.16,148.888 49.384,148.3 47.646,147.741 L47.063,147.553 L47.364,147.019 C47.718,146.394 48.091,145.769 48.474,145.144 L48.584,144.961 C48.846,144.525 49.111,144.082 49.363,143.631 L49.602,143.203 L54.896,146.018 L54.661,146.46 C54.061,147.589 53.604,148.541 53.313,149.158 L53.121,149.564 L52.697,149.418 L52.697,149.418 Z M176.72,149.153 C176.38,148.405 175.92,147.474 175.38,146.46 L175.14,146.018 L180.44,143.203 L180.68,143.631 C180.96,144.144 181.27,144.648 181.58,145.141 C181.95,145.772 182.32,146.395 182.68,147.019 L182.98,147.552 L182.39,147.741 C180.67,148.3 178.88,148.888 177.34,149.418 L176.91,149.566 L176.72,149.153 L176.72,149.153 Z M46.157,165.994 C44.745,165.574 43.339,165.089 41.858,164.511 L41.354,164.314 L41.59,163.827 C42.134,162.704 43.436,160.392 46.04,157.519 C46.412,157.113 46.381,156.479 45.973,156.103 C45.79,155.936 45.554,155.845 45.305,155.845 C45.022,155.845 44.75,155.964 44.559,156.173 C41.896,159.099 40.464,161.545 39.731,163.08 L39.518,163.53 L39.066,163.317 C37.879,162.756 36.763,162.158 35.75,161.542 L35.326,161.284 L35.581,160.858 C36.57,159.204 38.425,156.253 39.725,155.074 C39.924,154.894 40.04,154.649 40.053,154.382 C40.065,154.116 39.973,153.86 39.792,153.663 C39.6,153.454 39.327,153.334 39.045,153.334 C38.797,153.334 38.56,153.427 38.378,153.594 C36.886,154.956 34.981,157.968 33.979,159.642 L33.684,160.135 L33.236,159.775 C32.263,158.991 31.639,158.326 31.287,157.907 L31.057,157.632 L31.242,157.326 C34.001,152.776 38.209,149.03 39.89,147.631 L40.099,147.457 L40.357,147.537 C43.272,148.44 52.974,151.47 55.463,152.578 C57.471,153.47 58.794,154.655 59.188,155.916 C59.514,156.93 59.299,158.049 58.528,159.332 C57.291,161.391 56.515,162.795 56.081,163.61 L55.925,163.903 L55.595,163.873 C54.936,163.813 54.031,163.594 53.461,162.889 C52.791,162.015 52.698,160.53 53.185,158.584 C53.298,158.146 53.088,157.678 52.688,157.468 C52.537,157.385 52.376,157.344 52.214,157.344 C51.936,157.344 51.669,157.463 51.481,157.67 C49.286,160.095 47.704,163.376 46.764,165.702 L46.593,166.124 L46.157,165.994 L46.157,165.994 Z M183.28,165.702 C182.51,163.799 180.87,160.224 178.57,157.67 C178.38,157.463 178.11,157.345 177.82,157.345 C177.66,157.345 177.5,157.386 177.36,157.464 C176.95,157.678 176.74,158.146 176.85,158.58 C177.35,160.569 177.26,162.016 176.58,162.883 C176.02,163.592 175.11,163.812 174.45,163.873 L174.12,163.903 L173.96,163.61 C173.53,162.795 172.75,161.391 171.51,159.332 C170.74,158.049 170.53,156.93 170.85,155.912 C171.26,154.645 172.59,153.461 174.59,152.577 C177.28,151.379 188.43,147.927 189.69,147.537 L189.95,147.457 L190.16,147.631 C191.83,149.023 196.02,152.756 198.8,157.326 L198.98,157.632 L198.75,157.907 C198.4,158.326 197.78,158.991 196.8,159.775 L196.36,160.135 L196.06,159.642 C195.06,157.968 193.15,154.956 191.66,153.594 C191.48,153.427 191.24,153.334 191,153.334 C190.71,153.334 190.44,153.454 190.25,153.663 C189.88,154.067 189.91,154.701 190.32,155.077 C191.6,156.238 193.46,159.191 194.46,160.847 L194.71,161.27 L194.29,161.53 C193.32,162.134 192.21,162.735 190.99,163.316 L190.54,163.53 L190.32,163.083 C189.56,161.52 188.11,159.053 185.48,156.173 C185.29,155.964 185.02,155.845 184.74,155.845 C184.49,155.845 184.25,155.936 184.07,156.103 C183.66,156.479 183.63,157.113 184,157.517 C186.43,160.175 187.76,162.414 188.46,163.824 L188.7,164.313 L188.19,164.511 C186.74,165.079 185.33,165.565 183.88,165.994 L183.45,166.124 L183.28,165.702 L183.28,165.702 Z M85.3,211.345 C82.129,211.345 79.55,208.765 79.55,205.595 C79.55,202.425 82.129,199.845 85.3,199.845 L90.3,199.845 L90.3,202.595 C90.3,203.146 90.748,203.595 91.3,203.595 C91.852,203.595 92.3,203.146 92.3,202.595 L92.3,199.845 L95.8,199.845 L95.8,204.345 C95.8,204.896 96.248,205.345 96.8,205.345 C97.352,205.345 97.8,204.896 97.8,204.345 L97.8,199.845 L103.05,199.845 L103.05,211.345 L85.3,211.345 L85.3,211.345 Z M105.05,211.345 L114.021,211.345 L114.021,193.845 L105.05,193.845 L105.05,211.345 Z M116.021,211.345 L124.99,211.345 L124.99,193.845 L116.021,193.845 L116.021,211.345 Z M126.99,211.345 L126.99,199.845 L132.24,199.845 L132.24,204.345 C132.24,204.896 132.69,205.345 133.24,205.345 C133.79,205.345 134.24,204.896 134.24,204.345 L134.24,199.845 L137.74,199.845 L137.74,202.595 C137.74,203.146 138.19,203.595 138.74,203.595 C139.29,203.595 139.74,203.146 139.74,202.595 L139.74,199.845 L144.74,199.845 C147.91,199.845 150.49,202.425 150.49,205.595 C150.49,208.765 147.91,211.345 144.74,211.345 L126.99,211.345 L126.99,211.345 Z" id="Fill-31" fill="#9EA979"></path>
        <path d="M12.55,210.845 L2.22,210.845 C1.39,210.845 0.72,211.515 0.72,212.345 C0.72,213.175 1.39,213.845 2.22,213.845 L12.55,213.845 C13.38,213.845 14.05,213.175 14.05,212.345 C14.05,211.515 13.38,210.845 12.55,210.845 L12.55,210.845 Z M98.3,55.775 C96.55,55.775 95.14,57.195 95.14,58.945 C95.14,60.695 96.55,62.115 98.3,62.115 C100.05,62.115 101.47,60.695 101.47,58.945 C101.47,57.195 100.05,55.775 98.3,55.775 L98.3,55.775 Z M104.811,64.525 C105.37,63.335 105.68,62.045 105.68,60.725 C105.68,55.825 101.7,51.845 96.8,51.845 C91.91,51.845 87.93,55.825 87.93,60.725 C87.93,61.795 88.12,62.835 88.49,63.825 C93.04,63.455 99.85,63.225 104.811,64.525 L104.811,64.525 Z M84.061,67.325 C83.24,67.445 82.48,66.885 82.36,66.065 C82.24,65.245 82.8,64.485 83.62,64.365 C83.75,64.345 84.41,64.245 85.44,64.125 C85.11,63.035 84.93,61.895 84.93,60.725 C84.93,54.175 90.25,48.845 96.8,48.845 C103.35,48.845 108.68,54.175 108.68,60.725 C108.68,62.465 108.29,64.175 107.561,65.745 C107.84,66.145 107.92,66.675 107.72,67.165 C107.48,67.745 106.92,68.095 106.33,68.095 C106.14,68.095 105.94,68.055 105.76,67.985 C105.561,67.895 105.35,67.825 105.14,67.745 C105.13,67.745 105.12,67.735 105.11,67.735 C98.07,65.305 84.21,67.305 84.061,67.325 L84.061,67.325 Z M131.74,62.115 C133.49,62.115 134.91,60.695 134.91,58.945 C134.91,57.195 133.49,55.775 131.74,55.775 C129.99,55.775 128.57,57.195 128.57,58.945 C128.57,60.695 129.99,62.115 131.74,62.115 L131.74,62.115 Z M135.24,91.345 C134.44,88.885 132.63,84.495 129.25,81.695 C128.23,83.485 126.24,85.345 122.87,85.345 L107.18,85.345 C103.8,85.345 101.811,83.485 100.8,81.695 C97.41,84.495 95.6,88.885 94.811,91.345 L135.24,91.345 L135.24,91.345 Z M103.33,80.085 C103.83,81.065 104.92,82.345 107.18,82.345 L122.87,82.345 C125.12,82.345 126.21,81.065 126.71,80.085 C125.39,79.475 123.9,79.095 122.21,79.095 L107.83,79.095 C106.14,79.095 104.65,79.475 103.33,80.085 L103.33,80.085 Z M137.21,94.345 L92.83,94.345 C92.38,94.345 91.95,94.145 91.67,93.795 C91.38,93.445 91.271,92.985 91.36,92.535 C91.5,91.865 94.93,76.095 107.83,76.095 L122.21,76.095 C134.38,76.095 138.12,90.125 138.62,92.285 C138.69,92.455 138.73,92.645 138.73,92.845 C138.73,93.675 138.06,94.345 137.23,94.345 L137.21,94.345 L137.21,94.345 Z M124.37,60.725 C124.37,62.045 124.67,63.335 125.23,64.525 C130.19,63.225 137,63.455 141.55,63.825 C141.92,62.835 142.12,61.795 142.12,60.725 C142.12,55.825 138.13,51.845 133.24,51.845 C128.35,51.845 124.37,55.825 124.37,60.725 L124.37,60.725 Z M122.48,65.745 C121.75,64.175 121.37,62.465 121.37,60.725 C121.37,54.175 126.69,48.845 133.24,48.845 C139.79,48.845 145.12,54.175 145.12,60.725 C145.12,61.895 144.93,63.035 144.6,64.125 C145.63,64.245 146.29,64.345 146.42,64.365 C147.24,64.485 147.8,65.245 147.68,66.065 C147.56,66.885 146.79,67.445 145.98,67.325 C145.84,67.305 131.96,65.305 124.93,67.735 C124.92,67.735 124.91,67.745 124.9,67.745 C124.69,67.825 124.48,67.895 124.29,67.985 C124.1,68.055 123.9,68.095 123.71,68.095 C123.12,68.095 122.57,67.745 122.33,67.165 C122.12,66.675 122.2,66.145 122.48,65.745 L122.48,65.745 Z M149.99,205.595 C149.99,202.695 147.63,200.345 144.74,200.345 L140.24,200.345 L140.24,202.595 C140.24,203.425 139.57,204.095 138.74,204.095 C137.91,204.095 137.24,203.425 137.24,202.595 L137.24,200.345 L134.74,200.345 L134.74,204.345 C134.74,205.175 134.07,205.845 133.24,205.845 C132.41,205.845 131.74,205.175 131.74,204.345 L131.74,200.345 L127.49,200.345 L127.49,210.845 L144.74,210.845 C147.63,210.845 149.99,208.495 149.99,205.595 L149.99,205.595 Z M116.521,191.345 L124.49,191.345 L124.49,154.095 L116.521,154.095 L116.521,191.345 Z M116.521,210.845 L124.49,210.845 L124.49,194.345 L116.521,194.345 L116.521,210.845 Z M105.55,191.345 L113.521,191.345 L113.521,154.095 L105.55,154.095 L105.55,191.345 Z M105.55,210.845 L113.521,210.845 L113.521,194.345 L105.55,194.345 L105.55,210.845 Z M132.46,151.095 C135.38,151.095 137.84,149.165 138.67,146.525 C138.86,145.915 138.96,145.265 138.96,144.595 L138.96,137.845 L125.21,137.845 L125.21,142.085 C125.21,144.565 123.19,146.585 120.71,146.585 L109.33,146.585 C109.29,146.585 109.24,146.585 109.2,146.575 C106.78,146.515 104.83,144.525 104.83,142.085 L104.83,137.845 L91.08,137.845 L91.08,144.595 C91.08,144.815 91.09,145.035 91.11,145.255 C91.45,148.525 94.22,151.095 97.58,151.095 L132.46,151.095 L132.46,151.095 Z M88.48,107.615 C87.11,108.105 85.34,108.785 83.271,109.695 L87.12,117.165 C87.44,116.845 87.76,116.535 88.08,116.215 L88.08,110.345 C88.08,109.395 88.22,108.475 88.48,107.615 L88.48,107.615 Z M84.91,119.405 L80.54,110.935 C79.16,111.595 77.68,112.335 76.14,113.165 L82.811,121.605 C83.49,120.875 84.19,120.145 84.91,119.405 L84.91,119.405 Z M80.75,123.835 L73.49,114.645 C70.44,116.415 67.19,118.515 63.87,120.985 L74.5,130.995 C76.4,128.715 78.49,126.305 80.75,123.835 L80.75,123.835 Z M72.59,133.315 L61.47,122.845 C59.86,124.125 58.24,125.505 56.64,126.975 L69.92,136.685 C70.75,135.605 71.64,134.485 72.59,133.315 L72.59,133.315 Z M68.09,139.065 L54.43,129.075 C51.55,131.895 48.74,135.025 46.08,138.505 L62.33,147.125 C63.33,145.625 65.29,142.765 68.09,139.065 L68.09,139.065 Z M52.86,148.945 C53.19,148.245 53.64,147.315 54.22,146.225 L49.8,143.875 C49.51,144.395 49.2,144.905 48.9,145.405 C48.521,146.025 48.15,146.645 47.8,147.265 C49.54,147.825 51.32,148.415 52.86,148.945 L52.86,148.945 Z M55.26,153.035 C52.79,151.935 43.021,148.885 40.21,148.015 C38.66,149.305 34.41,153.065 31.67,157.585 C32.03,158.015 32.63,158.645 33.55,159.385 C34.64,157.565 36.54,154.595 38.04,153.225 C38.65,152.665 39.6,152.715 40.16,153.325 C40.72,153.935 40.68,154.885 40.061,155.445 C38.88,156.515 37.11,159.275 36.01,161.115 C36.93,161.675 38.01,162.265 39.28,162.865 C40.01,161.335 41.47,158.825 44.19,155.835 C44.75,155.225 45.7,155.175 46.311,155.735 C46.92,156.295 46.97,157.245 46.41,157.855 C43.98,160.535 42.67,162.745 42.04,164.045 C43.32,164.545 44.72,165.045 46.3,165.515 C47.08,163.585 48.72,159.975 51.11,157.335 C51.57,156.825 52.32,156.695 52.92,157.025 C53.53,157.345 53.84,158.045 53.67,158.705 C53.22,160.505 53.29,161.845 53.85,162.575 C54.311,163.145 55.09,163.325 55.64,163.375 C56.07,162.565 56.85,161.155 58.1,159.075 C58.79,157.925 58.99,156.935 58.71,156.065 C58.36,154.945 57.13,153.865 55.26,153.035 L55.26,153.035 Z M95.58,100.845 C95.79,100.845 95.98,100.885 96.16,100.965 C96.63,100.895 97.1,100.845 97.58,100.845 L132.46,100.845 C132.5,100.845 132.54,100.845 132.58,100.855 C133.03,100.855 133.46,100.905 133.88,100.965 C134.06,100.885 134.26,100.845 134.46,100.845 L141.96,100.845 C142.49,100.845 143.1,100.845 143.74,100.745 C147.2,100.175 151.71,96.585 151.71,73.595 L151.71,61.315 L151.71,61.065 L151.71,37.345 L141.96,37.345 L141.96,42.595 C141.96,43.425 141.29,44.095 140.46,44.095 C139.63,44.095 138.96,43.425 138.96,42.595 L138.96,37.345 L127.49,37.345 L127.49,42.595 C127.49,43.425 126.82,44.095 125.99,44.095 C125.16,44.095 124.49,43.425 124.49,42.595 L124.49,37.345 L105.55,37.345 L105.55,42.595 C105.55,43.425 104.88,44.095 104.05,44.095 C103.22,44.095 102.55,43.425 102.55,42.595 L102.55,37.345 L91.08,37.345 L91.08,42.595 C91.08,43.425 90.41,44.095 89.58,44.095 C88.75,44.095 88.08,43.425 88.08,42.595 L88.08,37.345 L78.33,37.345 L78.33,61.065 C78.34,61.145 78.34,61.235 78.33,61.315 L78.33,73.595 C78.33,96.585 82.84,100.175 86.3,100.745 C86.94,100.845 87.55,100.845 88.08,100.845 L95.58,100.845 L95.58,100.845 Z M78.33,12.845 L78.33,15.365 C78.94,16.105 81.09,18.095 86.49,18.095 L143.55,18.095 C148.95,18.095 151.1,16.105 151.71,15.365 L151.71,12.845 C151.71,12.015 152.38,11.345 153.21,11.345 C154.04,11.345 154.71,12.015 154.71,12.845 L154.71,58.985 C155.61,58.735 156.54,58.595 157.48,58.595 C157.72,58.595 157.97,58.615 158.21,58.635 L158.21,12.845 C158.21,6.405 154.65,3.345 134.46,3.345 L95.58,3.345 C75.39,3.345 71.84,6.405 71.84,12.845 L71.84,58.635 C72.08,58.615 72.32,58.595 72.561,58.595 C73.5,58.595 74.43,58.735 75.33,58.985 L75.33,12.845 C75.33,12.015 76,11.345 76.83,11.345 C77.66,11.345 78.33,12.015 78.33,12.845 L78.33,12.845 Z M75.34,75.535 C75.34,74.905 75.33,74.265 75.33,73.595 L75.33,62.145 C74.46,61.785 73.521,61.595 72.561,61.595 C68.57,61.595 65.311,64.845 65.311,68.845 C65.311,72.845 68.57,76.095 72.561,76.095 C73.521,76.095 74.47,75.905 75.34,75.535 L75.34,75.535 Z M157.48,61.595 C156.53,61.595 155.58,61.785 154.71,62.145 L154.71,73.595 C154.71,74.265 154.71,74.905 154.7,75.535 C155.58,75.905 156.52,76.095 157.48,76.095 C161.48,76.095 164.73,72.845 164.73,68.845 C164.73,64.845 161.48,61.595 157.48,61.595 L157.48,61.595 Z M151.71,19.165 C150.01,20.175 147.41,21.095 143.55,21.095 L86.49,21.095 C82.63,21.095 80.03,20.175 78.33,19.165 L78.33,34.345 L88.08,34.345 L88.08,29.095 C88.08,28.265 88.75,27.595 89.58,27.595 C90.41,27.595 91.08,28.265 91.08,29.095 L91.08,34.345 L102.55,34.345 L102.55,29.095 C102.55,28.265 103.22,27.595 104.05,27.595 C104.88,27.595 105.55,28.265 105.55,29.095 L105.55,34.345 L124.49,34.345 L124.49,29.095 C124.49,28.265 125.16,27.595 125.99,27.595 C126.82,27.595 127.49,28.265 127.49,29.095 L127.49,34.345 L138.96,34.345 L138.96,29.095 C138.96,28.265 139.63,27.595 140.46,27.595 C141.29,27.595 141.96,28.265 141.96,29.095 L141.96,34.345 L151.71,34.345 L151.71,19.165 L151.71,19.165 Z M107.83,142.085 C107.83,142.915 108.5,143.585 109.33,143.585 L120.71,143.585 C121.54,143.585 122.21,142.915 122.21,142.085 L122.21,132.345 C122.21,131.515 121.54,130.845 120.71,130.845 L109.33,130.845 C108.5,130.845 107.83,131.515 107.83,132.345 L107.83,142.085 L107.83,142.085 Z M104.83,112.675 C104.83,111.845 105.5,111.175 106.33,111.175 L113.521,111.175 L113.521,103.845 L97.58,103.845 C94,103.845 91.08,106.765 91.08,110.345 L91.08,134.845 L104.83,134.845 L104.83,132.345 C104.83,129.865 106.85,127.845 109.33,127.845 L113.521,127.845 L113.521,122.345 L110,122.345 C109.17,122.345 108.5,121.675 108.5,120.845 C108.5,120.015 109.17,119.345 110,119.345 L113.521,119.345 L113.521,114.175 L106.33,114.175 C105.5,114.175 104.83,113.505 104.83,112.675 L104.83,112.675 Z M125.21,132.345 L125.21,134.845 L138.96,134.845 L138.96,110.345 C138.96,106.765 136.05,103.845 132.46,103.845 L116.521,103.845 L116.521,111.175 L123.71,111.175 C124.54,111.175 125.21,111.845 125.21,112.675 C125.21,113.505 124.54,114.175 123.71,114.175 L116.521,114.175 L116.521,119.345 L120.05,119.345 C120.87,119.345 121.55,120.015 121.55,120.845 C121.55,121.675 120.87,122.345 120.05,122.345 L116.521,122.345 L116.521,127.845 L120.71,127.845 C123.15,127.845 125.14,129.795 125.2,132.215 C125.21,132.255 125.21,132.305 125.21,132.345 L125.21,132.345 Z M102.55,200.345 L98.3,200.345 L98.3,204.345 C98.3,205.175 97.63,205.845 96.8,205.845 C95.97,205.845 95.3,205.175 95.3,204.345 L95.3,200.345 L92.8,200.345 L92.8,202.595 C92.8,203.425 92.13,204.095 91.3,204.095 C90.47,204.095 89.8,203.425 89.8,202.595 L89.8,200.345 L85.3,200.345 C82.41,200.345 80.05,202.695 80.05,205.595 C80.05,208.495 82.41,210.845 85.3,210.845 L102.55,210.845 L102.55,200.345 L102.55,200.345 Z M141.56,107.615 C141.82,108.475 141.96,109.395 141.96,110.345 L141.96,116.215 C142.28,116.535 142.6,116.845 142.92,117.165 L146.77,109.695 C144.7,108.785 142.94,108.105 141.56,107.615 L141.56,107.615 Z M149.51,110.935 L145.14,119.405 C145.85,120.145 146.55,120.875 147.23,121.605 L153.9,113.165 C152.36,112.335 150.89,111.595 149.51,110.935 L149.51,110.935 Z M156.55,114.645 L149.3,123.835 C151.56,126.305 153.64,128.715 155.55,130.995 L166.17,120.985 C162.85,118.515 159.6,116.415 156.55,114.645 L156.55,114.645 Z M168.57,122.845 L157.45,133.315 C158.4,134.485 159.29,135.605 160.12,136.685 L173.4,126.975 C171.8,125.505 170.18,124.125 168.57,122.845 L168.57,122.845 Z M175.62,129.075 L161.95,139.065 C164.75,142.765 166.71,145.625 167.72,147.125 L183.96,138.505 C181.31,135.025 178.49,131.895 175.62,129.075 L175.62,129.075 Z M177.18,148.945 C178.72,148.415 180.51,147.825 182.24,147.265 C181.89,146.645 181.52,146.025 181.15,145.405 C180.84,144.905 180.53,144.395 180.24,143.875 L175.82,146.225 C176.4,147.315 176.86,148.245 177.18,148.945 L177.18,148.945 Z M174.79,153.035 C172.91,153.865 171.69,154.945 171.33,156.065 C171.05,156.935 171.25,157.925 171.94,159.075 C173.19,161.155 173.97,162.565 174.4,163.375 C174.95,163.325 175.74,163.145 176.19,162.575 C176.76,161.845 176.82,160.505 176.37,158.705 C176.2,158.045 176.51,157.345 177.12,157.025 C177.34,156.905 177.58,156.845 177.82,156.845 C178.24,156.845 178.64,157.015 178.94,157.335 C181.32,159.975 182.96,163.585 183.74,165.515 C185.32,165.045 186.73,164.545 188.01,164.045 C187.37,162.745 186.07,160.525 183.63,157.855 C183.07,157.245 183.12,156.295 183.73,155.735 C184.34,155.175 185.29,155.225 185.85,155.835 C188.58,158.825 190.03,161.335 190.77,162.865 C192.03,162.265 193.11,161.675 194.03,161.105 C192.93,159.275 191.16,156.515 189.98,155.445 C189.37,154.885 189.32,153.935 189.88,153.325 C190.44,152.715 191.39,152.665 192,153.225 C193.5,154.595 195.4,157.565 196.49,159.385 C197.41,158.645 198.01,158.015 198.37,157.585 C195.62,153.055 191.39,149.305 189.84,148.015 C187.02,148.885 177.26,151.935 174.79,153.035 L174.79,153.035 Z M211.32,212.345 C211.32,213.175 210.65,213.845 209.82,213.845 L189.14,213.845 L182.91,206.725 L177.57,213.845 L20.22,213.845 C19.39,213.845 18.72,213.175 18.72,212.345 C18.72,211.515 19.39,210.845 20.22,210.845 L78.94,210.845 C77.76,209.415 77.05,207.585 77.05,205.595 C77.05,201.045 80.75,197.345 85.3,197.345 L102.55,197.345 L102.55,154.095 L97.58,154.095 C92.67,154.095 88.62,150.355 88.13,145.565 C88.1,145.245 88.08,144.925 88.08,144.595 L88.08,120.455 C73.311,135.435 64.19,149.745 64.1,149.895 C63.811,150.345 63.33,150.595 62.83,150.595 C62.59,150.595 62.35,150.535 62.13,150.425 L56.87,147.635 C56.39,148.545 55.99,149.345 55.69,149.975 C56,150.095 56.26,150.195 56.48,150.295 C59.18,151.495 60.95,153.185 61.57,155.165 C62.12,156.875 61.811,158.705 60.67,160.615 C58.68,163.945 57.91,165.515 57.9,165.525 C57.68,165.975 57.24,166.285 56.75,166.355 C56.75,166.355 53.36,166.815 51.49,164.415 C51.18,164.025 50.93,163.575 50.75,163.095 C49.41,165.545 48.65,167.785 48.64,167.815 C48.43,168.445 47.85,168.845 47.22,168.845 C47.09,168.845 46.95,168.825 46.82,168.785 C43.92,167.985 41.47,167.105 39.39,166.205 C39.38,166.195 39.37,166.195 39.36,166.185 C36.8,165.085 34.811,163.955 33.28,162.915 C33.271,162.905 33.26,162.905 33.26,162.905 C33.16,162.845 33.08,162.785 33,162.715 C29.67,160.385 28.63,158.515 28.561,158.385 C28.32,157.935 28.33,157.395 28.57,156.955 C32.18,150.425 38.7,145.365 38.97,145.155 C39.36,144.865 39.86,144.765 40.33,144.915 C40.53,144.975 42.43,145.555 44.89,146.335 C45.34,145.485 45.84,144.665 46.33,143.845 C46.62,143.375 46.9,142.915 47.15,142.475 L43.13,140.335 C42.74,140.135 42.47,139.775 42.37,139.345 C42.271,138.925 42.36,138.475 42.62,138.125 C60.69,113.385 85.92,105.125 90.29,103.845 L88.08,103.845 C87.34,103.845 86.61,103.795 85.89,103.675 C80.61,102.815 76.07,98.025 75.41,78.675 C74.49,78.945 73.53,79.095 72.561,79.095 C66.91,79.095 62.311,74.495 62.311,68.845 C62.311,64.505 65.021,60.805 68.84,59.305 L68.84,12.845 C68.84,2.275 77.84,0.345 95.58,0.345 L134.46,0.345 C152.2,0.345 161.21,2.275 161.21,12.845 L161.21,59.305 C165.02,60.805 167.73,64.505 167.73,68.845 C167.73,74.495 163.13,79.095 157.48,79.095 C156.51,79.095 155.55,78.945 154.63,78.675 C153.97,98.025 149.44,102.815 144.15,103.675 C143.43,103.795 142.7,103.845 141.96,103.845 L139.75,103.845 C144.12,105.125 169.35,113.385 187.42,138.125 C187.68,138.475 187.77,138.925 187.67,139.345 C187.58,139.775 187.3,140.135 186.92,140.335 L182.89,142.475 C183.15,142.915 183.42,143.375 183.71,143.845 C184.21,144.665 184.7,145.485 185.15,146.335 C187.61,145.555 189.52,144.975 189.72,144.915 C190.18,144.765 190.69,144.865 191.07,145.155 C191.35,145.365 197.86,150.425 201.47,156.955 C201.71,157.395 201.72,157.935 201.48,158.385 C201.41,158.515 200.37,160.385 197.05,162.715 C196.97,162.785 196.88,162.845 196.79,162.905 C196.78,162.905 196.77,162.905 196.77,162.915 C195.24,163.955 193.25,165.085 190.69,166.185 C190.67,166.195 190.66,166.195 190.65,166.205 C188.57,167.105 186.12,167.985 183.23,168.785 C183.09,168.825 182.96,168.845 182.82,168.845 C182.19,168.845 181.61,168.445 181.4,167.825 C181.39,167.785 180.63,165.545 179.29,163.095 C179.11,163.575 178.86,164.025 178.55,164.415 C176.68,166.815 173.29,166.355 173.29,166.355 C172.8,166.285 172.36,165.975 172.14,165.525 C172.14,165.515 171.36,163.945 169.37,160.615 C168.23,158.705 167.93,156.875 168.47,155.165 C169.1,153.185 170.86,151.495 173.57,150.295 C173.78,150.195 174.05,150.095 174.35,149.975 C174.05,149.345 173.66,148.545 173.17,147.635 L167.92,150.425 C167.69,150.535 167.45,150.595 167.21,150.595 C166.71,150.595 166.23,150.345 165.95,149.895 C165.85,149.745 156.72,135.425 141.96,120.455 L141.96,144.595 C141.96,145.575 141.81,146.525 141.53,147.415 C140.33,151.285 136.72,154.095 132.46,154.095 L127.49,154.095 L127.49,197.345 L144.74,197.345 C149.29,197.345 152.99,201.045 152.99,205.595 C152.99,207.585 152.28,209.415 151.1,210.845 L176.07,210.845 L182.73,201.965 L190.5,210.845 L209.82,210.845 C210.65,210.845 211.32,211.515 211.32,212.345 L211.32,212.345 Z M229.32,212.345 C229.32,213.175 228.65,213.845 227.82,213.845 L217.49,213.845 C216.66,213.845 215.99,213.175 215.99,212.345 C215.99,211.515 216.66,210.845 217.49,210.845 L227.82,210.845 C228.65,210.845 229.32,211.515 229.32,212.345 L229.32,212.345 Z" id="Fill-32" fill="#42384B"></path>
    </g>
</svg>