<?xml version="1.0" encoding="UTF-8" standalone="no"?>
<svg width="232px" height="200px" viewBox="0 0 232 200" version="1.1" xmlns="http://www.w3.org/2000/svg" xmlns:xlink="http://www.w3.org/1999/xlink">
    <!-- Generator: Sketch 39.1 (31720) - http://www.bohemiancoding.com/sketch -->
    <title>Slice 1</title>
    <desc>Created with Sketch.</desc>
    <defs></defs>
    <g id="Page-1" stroke="none" stroke-width="1" fill="none" fill-rule="evenodd">
        <path d="M82,98.845 C79.519,98.845 77.5,100.864 77.5,103.345 C77.5,105.826 79.519,107.845 82,107.845 C84.481,107.845 86.5,105.826 86.5,103.345 C86.5,100.864 84.481,98.845 82,98.845 L82,98.845 Z M62.5,114.515 C60.294,114.515 58.5,112.72 58.5,110.515 L58.5,92.175 L92.57,92.175 L92.57,110.515 C92.57,112.72 90.776,114.515 88.57,114.515 L62.5,114.515 L62.5,114.515 Z M150.6,98.845 C148.119,98.845 146.1,100.864 146.1,103.345 C146.1,105.826 148.119,107.845 150.6,107.845 C153.082,107.845 155.1,105.826 155.1,103.345 C155.1,100.864 153.082,98.845 150.6,98.845 L150.6,98.845 Z M144.03,114.515 C141.825,114.515 140.03,112.72 140.03,110.515 L140.03,92.175 L174.1,92.175 L174.1,110.515 C174.1,112.72 172.306,114.515 170.1,114.515 L144.03,114.515 L144.03,114.515 Z M116.3,107.298 L128.156,128.031 L116.753,122.22 C116.609,122.145 116.45,122.105 116.3,122.105 C116.15,122.105 115.991,122.145 115.853,122.218 L104.444,128.031 L116.3,107.298 L116.3,107.298 Z" id="Fill-33" fill="#FACD5D"></path>
        <path d="M87.999,62.518 C87.696,62.518 87.415,62.65 87.228,62.881 C86.874,63.307 86.935,63.938 87.359,64.29 C89.162,65.774 91.079,67.125 93.057,68.306 C93.218,68.396 93.395,68.445 93.57,68.445 C93.922,68.445 94.252,68.259 94.43,67.959 C94.71,67.481 94.556,66.864 94.085,66.586 C92.164,65.441 90.33,64.147 88.631,62.74 C88.456,62.598 88.23,62.518 87.999,62.518 L87.999,62.518 Z M144.602,62.518 C144.37,62.518 144.144,62.598 143.965,62.743 C142.271,64.147 140.436,65.441 138.516,66.585 C138.285,66.721 138.123,66.938 138.057,67.197 C137.991,67.456 138.031,67.727 138.169,67.959 C138.348,68.259 138.678,68.445 139.03,68.445 C139.206,68.445 139.376,68.397 139.539,68.303 C141.51,67.132 143.43,65.781 145.242,64.289 C145.666,63.938 145.726,63.307 145.375,62.884 C145.185,62.65 144.904,62.518 144.602,62.518 L144.602,62.518 Z M51.16,76.675 C50.609,76.675 50.16,77.124 50.16,77.675 L50.16,86.175 C50.16,89.401 52.786,92.093 56.013,92.175 L56.5,92.188 L56.5,110.515 C56.5,113.824 59.191,116.515 62.5,116.515 L88.57,116.515 C91.879,116.515 94.57,113.824 94.57,110.515 L94.57,92.038 L94.932,91.934 C97.486,91.199 99.27,88.831 99.27,86.175 L99.27,81.675 C99.27,81.124 98.821,80.675 98.27,80.675 C97.719,80.675 97.27,81.124 97.27,81.675 L97.27,86.175 C97.27,88.381 95.476,90.175 93.27,90.175 L56.16,90.175 C53.955,90.175 52.16,88.381 52.16,86.175 L52.16,77.675 C52.16,77.124 51.711,76.675 51.16,76.675 L51.16,76.675 Z M134.33,80.675 C133.779,80.675 133.33,81.124 133.33,81.675 L133.33,86.175 C133.33,88.831 135.114,91.199 137.668,91.934 L138.03,92.038 L138.03,110.515 C138.03,113.824 140.722,116.515 144.03,116.515 L170.1,116.515 C173.409,116.515 176.1,113.824 176.1,110.515 L176.1,92.188 L176.587,92.175 C179.809,92.093 182.43,89.401 182.43,86.175 L182.43,77.675 C182.43,77.124 181.981,76.675 181.43,76.675 C180.879,76.675 180.43,77.124 180.43,77.675 L180.43,86.175 C180.43,88.381 178.636,90.175 176.43,90.175 L139.33,90.175 C137.125,90.175 135.33,88.381 135.33,86.175 L135.33,81.675 C135.33,81.124 134.881,80.675 134.33,80.675 L134.33,80.675 Z M116.3,104.285 C115.94,104.285 115.608,104.475 115.435,104.781 L101.044,129.953 C100.821,130.339 100.878,130.816 101.185,131.143 C101.37,131.336 101.634,131.449 101.908,131.449 C102.065,131.449 102.223,131.411 102.363,131.339 L116.3,124.234 L130.237,131.34 C130.376,131.409 130.53,131.445 130.69,131.445 C130.965,131.445 131.232,131.333 131.421,131.137 C131.718,130.813 131.777,130.334 131.558,129.955 L117.166,104.783 C116.987,104.478 116.654,104.285 116.3,104.285 L116.3,104.285 Z M45.5,140.015 C44.949,140.015 44.5,140.464 44.5,141.015 L44.5,147.015 C44.5,147.566 44.949,148.015 45.5,148.015 C46.051,148.015 46.5,147.566 46.5,147.015 L46.5,141.015 C46.5,140.464 46.051,140.015 45.5,140.015 L45.5,140.015 Z M187.1,140.015 C186.549,140.015 186.1,140.464 186.1,141.015 L186.1,147.015 C186.1,147.566 186.549,148.015 187.1,148.015 C187.651,148.015 188.1,147.566 188.1,147.015 L188.1,141.015 C188.1,140.464 187.651,140.015 187.1,140.015 L187.1,140.015 Z M47.232,164.694 C46.896,164.694 46.583,164.862 46.396,165.142 L42.998,170.29 C42.691,170.75 42.817,171.372 43.277,171.679 C43.447,171.79 43.629,171.845 43.83,171.845 C44.163,171.845 44.476,171.677 44.665,171.395 L48.073,166.249 C48.372,165.791 48.242,165.167 47.783,164.861 C47.619,164.752 47.428,164.694 47.232,164.694 L47.232,164.694 Z M185.367,164.694 C185.172,164.694 184.981,164.752 184.817,164.861 C184.587,165.012 184.433,165.239 184.379,165.502 C184.326,165.762 184.378,166.027 184.526,166.248 L187.937,171.399 C188.125,171.677 188.437,171.845 188.77,171.845 C188.965,171.845 189.158,171.787 189.327,171.677 C189.783,171.372 189.909,170.75 189.604,170.292 L186.193,165.141 C186.01,164.86 185.702,164.694 185.367,164.694 L185.367,164.694 Z M76.978,171.366 C77.147,171.648 77.488,171.831 77.869,171.845 C78.204,171.838 78.522,171.651 78.692,171.343 L94.624,143.485 L115.501,171.446 C115.686,171.697 115.984,171.845 116.3,171.845 C116.617,171.845 116.915,171.697 117.097,171.449 L137.965,143.485 L153.904,171.337 C154.078,171.651 154.396,171.838 154.759,171.845 C155.039,171.839 155.438,171.673 155.622,171.367 L171.052,145.881 L180.207,159.719 C180.393,159.998 180.706,160.166 181.042,160.166 C181.238,160.166 181.429,160.108 181.593,159.999 C182.053,159.692 182.179,159.07 181.874,158.613 L171.853,143.461 C171.67,143.18 171.369,143.014 171.046,143.014 C170.652,143.022 170.342,143.199 170.171,143.49 L154.798,168.87 L138.946,141.174 C138.776,140.874 138.475,140.684 138.14,140.664 L138.134,140.664 C137.761,140.664 137.471,140.81 137.28,141.065 L116.3,169.171 L95.319,141.064 C95.131,140.813 94.831,140.662 94.517,140.662 C94.125,140.684 93.825,140.874 93.655,141.172 L77.802,168.87 L62.432,143.494 C62.261,143.203 61.943,143.022 61.6,143.015 L61.597,143.015 C61.234,143.015 60.927,143.185 60.749,143.458 L50.727,158.611 C50.421,159.07 50.547,159.692 51.007,159.999 C51.171,160.108 51.362,160.166 51.558,160.166 C51.894,160.166 52.207,159.998 52.394,159.718 L61.539,145.881 L76.978,171.366 L76.978,171.366 Z M65.33,174.345 C64.779,174.345 64.33,174.794 64.33,175.345 L64.33,181.595 C64.33,182.146 64.779,182.595 65.33,182.595 C65.881,182.595 66.33,182.146 66.33,181.595 L66.33,175.345 C66.33,174.794 65.881,174.345 65.33,174.345 L65.33,174.345 Z M167.27,174.345 C166.719,174.345 166.27,174.794 166.27,175.345 L166.27,181.595 C166.27,182.146 166.719,182.595 167.27,182.595 C167.821,182.595 168.27,182.146 168.27,181.595 L168.27,175.345 C168.27,174.794 167.821,174.345 167.27,174.345 L167.27,174.345 Z M165.023,197.345 L165.816,196.502 C167.398,194.821 168.27,192.634 168.27,190.345 L168.27,188.095 C168.27,187.544 167.821,187.095 167.27,187.095 C166.719,187.095 166.27,187.544 166.27,188.095 L166.27,190.345 C166.27,194.205 163.13,197.345 159.27,197.345 L132.023,197.345 L132.816,196.502 C134.398,194.821 135.27,192.634 135.27,190.345 C135.27,189.794 134.821,189.345 134.27,189.345 C133.719,189.345 133.27,189.794 133.27,190.345 C133.27,194.205 130.13,197.345 126.27,197.345 L106.33,197.345 C102.47,197.345 99.33,194.205 99.33,190.345 C99.33,189.794 98.881,189.345 98.33,189.345 C97.779,189.345 97.33,189.794 97.33,190.345 C97.33,192.634 98.202,194.821 99.784,196.502 L100.577,197.345 L73.33,197.345 C69.47,197.345 66.33,194.205 66.33,190.345 L66.33,188.095 C66.33,187.544 65.881,187.095 65.33,187.095 C64.779,187.095 64.33,187.544 64.33,188.095 L64.33,190.345 C64.33,192.634 65.202,194.821 66.784,196.502 L67.577,197.345 L62.83,197.345 C46.839,197.345 33.83,184.336 33.83,168.345 L33.83,106.65 L34.719,107.751 C35.792,109.079 37.091,110.172 38.582,110.997 L38.781,111.107 C42.309,113.054 44.5,116.766 44.5,120.795 L44.5,134.015 C44.5,134.566 44.949,135.015 45.5,135.015 C46.051,135.015 46.5,134.566 46.5,134.015 L46.5,120.795 C46.5,116.038 43.913,111.657 39.749,109.363 L39.533,109.234 C36.021,107.296 33.83,103.584 33.83,99.555 L33.83,87.345 C33.83,84.418 34.268,81.518 35.132,78.727 C38.94,66.535 50.071,58.345 62.83,58.345 L101.91,58.345 L101.91,70.248 L101.234,69.993 C100.417,69.685 99.543,69.348 98.676,68.962 C98.544,68.903 98.407,68.873 98.265,68.873 C97.871,68.873 97.515,69.105 97.358,69.464 C97.247,69.714 97.239,69.986 97.334,70.233 C97.43,70.481 97.618,70.678 97.864,70.788 C103.674,73.367 109.877,74.675 116.3,74.675 C122.723,74.675 128.926,73.367 134.737,70.788 C135.238,70.561 135.467,69.969 135.244,69.469 C135.082,69.107 134.724,68.873 134.333,68.873 C134.193,68.873 134.056,68.903 133.925,68.962 C133.057,69.347 132.183,69.685 131.366,69.993 L130.69,70.248 L130.69,58.345 L169.77,58.345 C182.529,58.345 193.66,66.535 197.467,78.726 C198.332,81.517 198.77,84.416 198.77,87.345 L198.77,99.555 C198.77,103.584 196.579,107.296 193.052,109.243 L192.867,109.354 C188.687,111.657 186.1,116.038 186.1,120.795 L186.1,134.015 C186.1,134.566 186.549,135.015 187.1,135.015 C187.651,135.015 188.1,134.566 188.1,134.015 L188.1,120.795 C188.1,116.766 190.291,113.054 193.818,111.107 L194.019,110.997 C195.509,110.172 196.808,109.079 197.881,107.751 L198.77,106.65 L198.77,168.345 C198.77,184.336 185.761,197.345 169.77,197.345 L165.023,197.345 L165.023,197.345 Z" id="Fill-34" fill="#E48455"></path>
        <path d="M163.83,21.465 C159.884,21.465 156.186,19.515 153.938,16.249 L153.743,15.965 L153.938,15.681 C156.193,12.415 159.891,10.465 163.83,10.465 C167.763,10.465 171.457,12.415 173.712,15.681 L173.908,15.965 L173.712,16.249 C171.464,19.515 167.77,21.465 163.83,21.465 L163.83,21.465 Z M116.3,72.675 C112.233,72.675 108.187,72.107 104.272,70.986 L103.91,70.882 L103.91,52.965 L109.08,52.965 C109.631,52.965 110.08,52.516 110.08,51.965 C110.08,51.414 109.631,50.965 109.08,50.965 L103.91,50.965 L103.91,46.965 L112.08,46.965 C112.631,46.965 113.08,46.516 113.08,45.965 C113.08,45.414 112.631,44.965 112.08,44.965 L103.91,44.965 L103.91,33.725 C103.91,29.38 107.445,25.845 111.79,25.845 L138,25.845 C138.551,25.845 139,25.396 139,24.845 C139,24.294 138.551,23.845 138,23.845 L135.33,23.845 L135.33,10.345 C135.33,9.794 134.881,9.345 134.33,9.345 L127.56,9.345 C125.961,9.345 124.66,8.049 124.66,6.455 L124.66,5.405 C124.66,3.811 125.961,2.515 127.56,2.515 L141.71,2.515 C143.304,2.515 144.6,3.811 144.6,5.405 L144.6,34.455 C144.6,36.049 143.304,37.345 141.71,37.345 L122.16,37.345 C121.609,37.345 121.16,37.794 121.16,38.345 C121.16,38.896 121.609,39.345 122.16,39.345 L128.69,39.345 L128.69,59.515 L121.05,59.515 C120.499,59.515 120.05,59.964 120.05,60.515 C120.05,61.066 120.499,61.515 121.05,61.515 L128.69,61.515 L128.69,65.515 L124.05,65.515 C123.499,65.515 123.05,65.964 123.05,66.515 C123.05,67.066 123.499,67.515 124.05,67.515 L128.69,67.515 L128.69,70.882 L128.328,70.986 C124.414,72.107 120.367,72.675 116.3,72.675 L116.3,72.675 Z" id="Fill-35" fill="#9EA979"></path>
        <path d="M12.16,196.845 L2.16,196.845 C1.33,196.845 0.66,197.515 0.66,198.345 C0.66,199.175 1.33,199.845 2.16,199.845 L12.16,199.845 C12.99,199.845 13.66,199.175 13.66,198.345 C13.66,197.515 12.99,196.845 12.16,196.845 L12.16,196.845 Z M45.5,148.515 C46.33,148.515 47,147.845 47,147.015 L47,141.015 C47,140.185 46.33,139.515 45.5,139.515 C44.67,139.515 44,140.185 44,141.015 L44,147.015 C44,147.845 44.67,148.515 45.5,148.515 L45.5,148.515 Z M48.06,164.445 C47.37,163.985 46.44,164.175 45.98,164.865 L42.58,170.015 C42.12,170.705 42.31,171.635 43,172.095 C43.26,172.265 43.54,172.345 43.83,172.345 C44.32,172.345 44.79,172.105 45.08,171.675 L48.49,166.525 C48.94,165.835 48.75,164.905 48.06,164.445 L48.06,164.445 Z M65.33,173.845 C64.5,173.845 63.83,174.515 63.83,175.345 L63.83,181.595 C63.83,182.425 64.5,183.095 65.33,183.095 C66.16,183.095 66.83,182.425 66.83,181.595 L66.83,175.345 C66.83,174.515 66.16,173.845 65.33,173.845 L65.33,173.845 Z M82,108.345 C84.76,108.345 87,106.105 87,103.345 C87,100.585 84.76,98.345 82,98.345 C79.24,98.345 77,100.585 77,103.345 C77,106.105 79.24,108.345 82,108.345 L82,108.345 Z M92.8,68.735 C93.05,68.875 93.31,68.945 93.57,68.945 C94.08,68.945 94.58,68.685 94.86,68.215 C95.28,67.495 95.05,66.575 94.34,66.155 C92.46,65.035 90.64,63.755 88.95,62.355 C88.31,61.835 87.36,61.925 86.84,62.565 C86.31,63.205 86.4,64.145 87.04,64.675 C88.85,66.165 90.79,67.535 92.8,68.735 L92.8,68.735 Z M59,110.515 C59,112.445 60.57,114.015 62.5,114.015 L88.57,114.015 C90.5,114.015 92.07,112.445 92.07,110.515 L92.07,92.675 L59,92.675 L59,110.515 L59,110.515 Z M49.66,86.175 L49.66,77.675 C49.66,76.845 50.33,76.175 51.16,76.175 C51.99,76.175 52.66,76.845 52.66,77.675 L52.66,86.175 C52.66,88.105 54.23,89.675 56.16,89.675 L93.27,89.675 C95.2,89.675 96.77,88.105 96.77,86.175 L96.77,81.675 C96.77,80.845 97.44,80.175 98.27,80.175 C99.1,80.175 99.77,80.845 99.77,81.675 L99.77,86.175 C99.77,89.135 97.78,91.635 95.07,92.415 L95.07,110.515 C95.07,114.095 92.16,117.015 88.57,117.015 L62.5,117.015 C58.91,117.015 56,114.095 56,110.515 L56,92.675 C52.49,92.585 49.66,89.705 49.66,86.175 L49.66,86.175 Z M105.71,126.825 L115.62,121.775 C115.83,121.665 116.07,121.605 116.3,121.605 C116.53,121.605 116.77,121.665 116.98,121.775 L126.89,126.825 L116.3,108.305 L105.71,126.825 L105.71,126.825 Z M100.82,131.485 C100.36,130.995 100.28,130.275 100.61,129.705 L115,104.535 C115.26,104.075 115.76,103.785 116.3,103.785 C116.84,103.785 117.33,104.075 117.6,104.535 L131.99,129.705 C132.32,130.275 132.23,130.995 131.78,131.485 C131.49,131.785 131.09,131.945 130.69,131.945 C130.46,131.945 130.23,131.895 130.01,131.785 L116.3,124.795 L102.59,131.785 C102,132.085 101.28,131.965 100.82,131.485 L100.82,131.485 Z M139.03,68.945 C139.29,68.945 139.55,68.875 139.79,68.735 C141.81,67.535 143.75,66.165 145.56,64.675 C146.2,64.145 146.29,63.205 145.76,62.565 C145.24,61.925 144.29,61.835 143.65,62.355 C141.96,63.755 140.14,65.035 138.26,66.155 C137.55,66.575 137.31,67.495 137.74,68.215 C138.02,68.685 138.52,68.945 139.03,68.945 L139.03,68.945 Z M150.6,108.345 C153.36,108.345 155.6,106.105 155.6,103.345 C155.6,100.585 153.36,98.345 150.6,98.345 C147.84,98.345 145.6,100.585 145.6,103.345 C145.6,106.105 147.84,108.345 150.6,108.345 L150.6,108.345 Z M167.27,173.845 C166.44,173.845 165.77,174.515 165.77,175.345 L165.77,181.595 C165.77,182.425 166.44,183.095 167.27,183.095 C168.1,183.095 168.77,182.425 168.77,181.595 L168.77,175.345 C168.77,174.515 168.1,173.845 167.27,173.845 L167.27,173.845 Z M172.27,143.185 C171.99,142.755 171.51,142.495 170.99,142.515 C170.47,142.525 170,142.795 169.74,143.235 L154.81,167.885 L139.38,140.925 C139.13,140.485 138.68,140.195 138.17,140.165 C137.66,140.135 137.18,140.365 136.88,140.765 L116.3,168.335 L95.72,140.765 C95.42,140.365 94.93,140.135 94.43,140.165 C93.92,140.195 93.47,140.485 93.22,140.925 L77.79,167.885 L62.86,143.235 C62.6,142.795 62.12,142.525 61.61,142.515 C61.1,142.495 60.61,142.755 60.33,143.185 L50.31,158.335 C49.85,159.025 50.04,159.955 50.73,160.415 C51.42,160.875 52.35,160.685 52.81,159.995 L61.52,146.815 L76.55,171.625 C76.82,172.075 77.33,172.325 77.85,172.345 C78.38,172.335 78.87,172.055 79.13,171.585 L94.68,144.395 L115.1,171.745 C115.38,172.125 115.83,172.345 116.3,172.345 C116.77,172.345 117.22,172.125 117.5,171.745 L137.91,144.395 L153.47,171.585 C153.73,172.055 154.22,172.335 154.75,172.345 C155.23,172.335 155.78,172.075 156.05,171.625 L171.07,146.815 L179.79,159.995 C180.25,160.685 181.18,160.875 181.87,160.415 C182.56,159.955 182.75,159.025 182.29,158.335 L172.27,143.185 L172.27,143.185 Z M173.6,92.675 L140.53,92.675 L140.53,110.515 C140.53,112.445 142.1,114.015 144.03,114.015 L170.1,114.015 C172.03,114.015 173.6,112.445 173.6,110.515 L173.6,92.675 L173.6,92.675 Z M182.93,77.675 L182.93,86.175 C182.93,89.705 180.11,92.585 176.6,92.675 L176.6,110.515 C176.6,114.095 173.69,117.015 170.1,117.015 L144.03,117.015 C140.44,117.015 137.53,114.095 137.53,110.515 L137.53,92.415 C134.82,91.635 132.83,89.135 132.83,86.175 L132.83,81.675 C132.83,80.845 133.5,80.175 134.33,80.175 C135.16,80.175 135.83,80.845 135.83,81.675 L135.83,86.175 C135.83,88.105 137.4,89.675 139.33,89.675 L176.43,89.675 C178.36,89.675 179.93,88.105 179.93,86.175 L179.93,77.675 C179.93,76.845 180.61,76.175 181.43,76.175 C182.26,76.175 182.93,76.845 182.93,77.675 L182.93,77.675 Z M187.1,148.515 C187.93,148.515 188.6,147.845 188.6,147.015 L188.6,141.015 C188.6,140.185 187.93,139.515 187.1,139.515 C186.27,139.515 185.6,140.185 185.6,141.015 L185.6,147.015 C185.6,147.845 186.27,148.515 187.1,148.515 L187.1,148.515 Z M190.02,170.015 L186.61,164.865 C186.16,164.175 185.23,163.985 184.54,164.445 C183.84,164.905 183.65,165.835 184.11,166.525 L187.52,171.675 C187.81,172.105 188.28,172.345 188.77,172.345 C189.05,172.345 189.34,172.265 189.6,172.095 C190.29,171.635 190.48,170.705 190.02,170.015 L190.02,170.015 Z M169.77,196.845 C185.48,196.845 198.27,184.055 198.27,168.345 L198.27,108.065 C197.18,109.415 195.83,110.565 194.26,111.435 L194.06,111.545 C190.69,113.405 188.6,116.955 188.6,120.795 L188.6,134.015 C188.6,134.835 187.93,135.515 187.1,135.515 C186.27,135.515 185.6,134.835 185.6,134.015 L185.6,120.795 C185.6,115.865 188.29,111.305 192.61,108.925 L192.81,108.805 C196.18,106.945 198.27,103.405 198.27,99.555 L198.27,87.345 C198.27,84.395 197.82,81.555 196.99,78.875 C193.37,67.285 182.53,58.845 169.77,58.845 L131.19,58.845 L131.19,69.525 C132.04,69.205 132.89,68.875 133.72,68.505 C134.48,68.165 135.36,68.505 135.7,69.265 C136.04,70.025 135.69,70.905 134.94,71.245 C129.06,73.855 122.79,75.175 116.3,75.175 C109.81,75.175 103.54,73.855 97.66,71.245 C96.9,70.905 96.56,70.025 96.9,69.265 C97.23,68.505 98.12,68.165 98.88,68.505 C99.71,68.875 100.56,69.205 101.41,69.525 L101.41,58.845 L62.83,58.845 C50.07,58.845 39.23,67.285 35.61,78.875 C34.78,81.555 34.33,84.395 34.33,87.345 L34.33,99.555 C34.33,103.405 36.42,106.945 39.79,108.805 L39.99,108.925 C44.31,111.305 47,115.865 47,120.795 L47,134.015 C47,134.835 46.33,135.515 45.5,135.515 C44.67,135.515 44,134.835 44,134.015 L44,120.795 C44,116.955 41.91,113.405 38.54,111.545 L38.34,111.435 C36.77,110.565 35.42,109.415 34.33,108.065 L34.33,168.345 C34.33,184.055 47.12,196.845 62.83,196.845 L66.42,196.845 C64.82,195.145 63.83,192.865 63.83,190.345 L63.83,188.095 C63.83,187.265 64.5,186.595 65.33,186.595 C66.16,186.595 66.83,187.265 66.83,188.095 L66.83,190.345 C66.83,193.925 69.75,196.845 73.33,196.845 L99.42,196.845 C97.82,195.145 96.83,192.865 96.83,190.345 C96.83,189.515 97.5,188.845 98.33,188.845 C99.16,188.845 99.83,189.515 99.83,190.345 C99.83,193.925 102.75,196.845 106.33,196.845 L126.27,196.845 C129.85,196.845 132.77,193.925 132.77,190.345 C132.77,189.515 133.44,188.845 134.27,188.845 C135.1,188.845 135.77,189.515 135.77,190.345 C135.77,192.865 134.78,195.145 133.18,196.845 L159.27,196.845 C162.85,196.845 165.77,193.925 165.77,190.345 L165.77,188.095 C165.77,187.265 166.44,186.595 167.27,186.595 C168.1,186.595 168.77,187.265 168.77,188.095 L168.77,190.345 C168.77,192.865 167.78,195.145 166.18,196.845 L169.77,196.845 L169.77,196.845 Z M104.41,70.505 C108.25,71.605 112.23,72.175 116.3,72.175 C120.37,72.175 124.35,71.605 128.19,70.505 L128.19,68.015 L124.05,68.015 C123.22,68.015 122.55,67.345 122.55,66.515 C122.55,65.685 123.22,65.015 124.05,65.015 L128.19,65.015 L128.19,62.015 L121.05,62.015 C120.22,62.015 119.55,61.345 119.55,60.515 C119.55,59.685 120.22,59.015 121.05,59.015 L128.19,59.015 L128.19,39.845 L122.16,39.845 C121.33,39.845 120.66,39.175 120.66,38.345 C120.66,37.515 121.33,36.845 122.16,36.845 L141.71,36.845 C143.03,36.845 144.1,35.775 144.1,34.455 L144.1,5.405 C144.1,4.085 143.03,3.015 141.71,3.015 L127.56,3.015 C126.24,3.015 125.16,4.085 125.16,5.405 L125.16,6.455 C125.16,7.775 126.24,8.845 127.56,8.845 L134.33,8.845 C135.16,8.845 135.83,9.515 135.83,10.345 L135.83,23.345 L138,23.345 C138.83,23.345 139.5,24.015 139.5,24.845 C139.5,25.675 138.83,26.345 138,26.345 L111.79,26.345 C107.72,26.345 104.41,29.655 104.41,33.725 L104.41,44.465 L112.08,44.465 C112.91,44.465 113.58,45.145 113.58,45.965 C113.58,46.795 112.91,47.465 112.08,47.465 L104.41,47.465 L104.41,50.465 L109.08,50.465 C109.91,50.465 110.58,51.145 110.58,51.965 C110.58,52.795 109.91,53.465 109.08,53.465 L104.41,53.465 L104.41,70.505 L104.41,70.505 Z M154.35,15.965 C156.49,19.075 160.04,20.965 163.83,20.965 C167.61,20.965 171.16,19.075 173.3,15.965 C171.16,12.865 167.61,10.965 163.83,10.965 C160.04,10.965 156.49,12.865 154.35,15.965 L154.35,15.965 Z M214.27,198.345 C214.27,199.175 213.6,199.845 212.77,199.845 L19.83,199.845 C19,199.845 18.33,199.175 18.33,198.345 C18.33,197.515 19,196.845 19.83,196.845 L49.43,196.845 C38.74,191.805 31.33,180.925 31.33,168.345 L31.33,87.345 C31.33,84.085 31.83,80.945 32.75,77.995 C36.74,65.175 48.72,55.845 62.83,55.845 L101.41,55.845 L101.41,33.725 C101.41,28.005 106.06,23.345 111.79,23.345 L132.83,23.345 L132.83,11.845 L127.56,11.845 C124.58,11.845 122.16,9.425 122.16,6.455 L122.16,5.405 C122.16,2.435 124.58,0.015 127.56,0.015 L141.71,0.015 C144.68,0.015 147.1,2.435 147.1,5.405 L147.1,14.465 L151.75,14.465 C154.42,10.445 158.97,7.965 163.83,7.965 C168.97,7.965 173.78,10.745 176.37,15.215 C176.64,15.685 176.64,16.255 176.37,16.725 C173.78,21.195 168.97,23.965 163.83,23.965 C158.97,23.965 154.42,21.495 151.75,17.465 L147.1,17.465 L147.1,34.455 C147.1,37.425 144.68,39.845 141.71,39.845 L131.19,39.845 L131.19,55.845 L169.77,55.845 C183.88,55.845 195.86,65.175 199.85,77.995 C200.77,80.945 201.27,84.085 201.27,87.345 L201.27,168.345 C201.27,180.925 193.85,191.805 183.17,196.845 L212.77,196.845 C213.6,196.845 214.27,197.515 214.27,198.345 L214.27,198.345 Z M231.93,198.345 C231.93,199.175 231.26,199.845 230.43,199.845 L220.43,199.845 C219.61,199.845 218.93,199.175 218.93,198.345 C218.93,197.515 219.61,196.845 220.43,196.845 L230.43,196.845 C231.26,196.845 231.93,197.515 231.93,198.345 L231.93,198.345 Z" id="Fill-36" fill="#42384B"></path>
    </g>
</svg>