<?xml version="1.0" encoding="UTF-8" standalone="no"?>
<svg width="219px" height="227px" viewBox="0 0 219 227" version="1.1" xmlns="http://www.w3.org/2000/svg" xmlns:xlink="http://www.w3.org/1999/xlink">
    <!-- Generator: Sketch 39.1 (31720) - http://www.bohemiancoding.com/sketch -->
    <title>Slice 1</title>
    <desc>Created with Sketch.</desc>
    <defs></defs>
    <g id="Page-1" stroke="none" stroke-width="1" fill="none" fill-rule="evenodd">
        <path d="M92.75,43.015 C91.691,43.015 90.83,43.872 90.83,44.925 L90.83,48.765 C90.83,49.818 91.691,50.675 92.75,50.675 C93.804,50.675 94.66,49.818 94.66,48.765 L94.66,44.925 C94.66,43.872 93.804,43.015 92.75,43.015 L92.75,43.015 Z M81.83,42.635 C81.83,37.948 85.644,34.135 90.33,34.135 C95.017,34.135 98.83,37.948 98.83,42.635 L98.83,54.125 L98.439,54.213 C92.803,55.481 87.474,57.699 82.599,60.807 L81.83,61.297 L81.83,42.635 L81.83,42.635 Z M126.25,43.015 C125.191,43.015 124.33,43.872 124.33,44.925 L124.33,48.765 C124.33,49.818 125.191,50.675 126.25,50.675 C127.304,50.675 128.16,49.818 128.16,48.765 L128.16,44.925 C128.16,43.872 127.304,43.015 126.25,43.015 L126.25,43.015 Z M136.392,60.807 C131.518,57.699 126.188,55.481 120.551,54.213 L120.16,54.125 L120.16,42.635 C120.16,37.948 123.974,34.135 128.66,34.135 C133.347,34.135 137.16,37.948 137.16,42.635 L137.16,61.297 L136.392,60.807 L136.392,60.807 Z M118.712,99.114 C116.27,96.602 113.028,95.05 109.585,94.743 L109.5,94.235 L109.455,94.736 C105.962,95.05 102.721,96.602 100.278,99.114 L99.555,99.858 L99.424,98.828 C99.36,98.33 99.33,97.845 99.33,97.345 L99.33,78.765 C99.33,72.954 103.678,68.076 109.443,67.418 L109.5,67.411 L109.557,67.418 C115.316,68.076 119.66,72.954 119.66,78.765 L119.66,97.345 C119.66,97.845 119.63,98.33 119.566,98.828 L119.436,99.858 L118.712,99.114 L118.712,99.114 Z" id="Fill-44" fill="#FACD5D"></path>
        <path d="M90.33,32.135 C84.54,32.135 79.83,36.845 79.83,42.635 L79.83,62.706 L79.629,62.856 C78.605,63.619 77.571,64.449 76.557,65.324 C76.145,65.689 76.104,66.313 76.47,66.74 C76.658,66.954 76.927,67.075 77.22,67.075 C77.465,67.075 77.694,66.989 77.884,66.826 C78.939,65.904 80.08,64.998 81.365,64.061 L81.497,63.965 L81.509,63.965 C87.052,59.996 93.23,57.302 99.88,55.953 L99.923,55.91 L100.14,55.905 C101.007,55.722 101.979,55.558 102.933,55.429 C103.479,55.35 103.867,54.844 103.795,54.302 C103.723,53.808 103.294,53.432 102.8,53.432 C102.755,53.432 102.711,53.435 102.666,53.441 C102.244,53.5 101.83,53.569 101.415,53.637 L100.833,53.734 L100.83,42.635 C100.83,36.845 96.12,32.135 90.33,32.135 L90.33,32.135 Z M137.623,64.06 C138.817,64.923 139.993,65.854 141.117,66.827 C141.349,67.033 141.6,67.075 141.771,67.075 C142.065,67.075 142.339,66.953 142.521,66.741 C142.892,66.315 142.85,65.693 142.428,65.319 C141.486,64.5 140.453,63.67 139.361,62.856 L139.16,62.706 L139.16,42.635 C139.16,36.845 134.45,32.135 128.66,32.135 C122.87,32.135 118.16,36.845 118.16,42.635 L118.16,53.735 L117.578,53.638 C117.16,53.569 116.745,53.499 116.33,53.44 C116.289,53.435 116.243,53.432 116.198,53.432 C115.699,53.432 115.272,53.806 115.205,54.302 C115.166,54.568 115.234,54.828 115.396,55.039 C115.558,55.252 115.795,55.391 116.063,55.43 C117.042,55.563 118.015,55.726 118.948,55.915 L119.097,55.945 L119.104,55.952 C125.767,57.3 131.947,59.995 137.481,63.965 L137.623,64.06 L137.623,64.06 Z M109.397,65.412 C102.519,66.096 97.33,71.837 97.33,78.765 L97.33,97.345 C97.33,99.076 97.664,100.78 98.324,102.408 C98.462,102.751 98.792,102.994 99.165,103.027 L99.172,103.027 C99.587,103.027 99.916,102.847 100.097,102.559 C102.145,99.305 105.642,97.133 109.45,96.747 L109.5,96.742 L109.551,96.747 C113.349,97.133 116.845,99.304 118.903,102.557 C119.081,102.848 119.4,103.025 119.74,103.025 L119.88,103.025 C120.207,102.994 120.525,102.757 120.666,102.408 C121.326,100.802 121.66,99.099 121.66,97.345 L121.66,78.765 C121.66,71.837 116.476,66.097 109.601,65.412 L109.5,65.408 L109.397,65.412 L109.397,65.412 Z M65.83,106.595 C65.278,106.595 64.83,107.044 64.83,107.595 L64.83,112.845 C64.83,113.396 65.278,113.845 65.83,113.845 C66.382,113.845 66.83,113.396 66.83,112.845 L66.83,107.595 C66.83,107.044 66.382,106.595 65.83,106.595 L65.83,106.595 Z M153.16,106.595 C152.608,106.595 152.16,107.044 152.16,107.595 L152.16,112.845 C152.16,113.396 152.608,113.845 153.16,113.845 C153.712,113.845 154.16,113.396 154.16,112.845 L154.16,107.595 C154.16,107.044 153.712,106.595 153.16,106.595 L153.16,106.595 Z M109.58,153.385 C112.831,153.385 115.733,155.453 116.803,158.531 C116.939,158.935 117.315,159.205 117.74,159.205 C117.85,159.205 117.949,159.186 118.055,159.147 C118.322,159.055 118.526,158.876 118.643,158.638 C118.759,158.401 118.774,158.131 118.688,157.879 C117.349,153.994 113.688,151.385 109.58,151.385 L109.41,151.385 C105.311,151.385 101.65,153.995 100.303,157.879 C100.124,158.395 100.402,158.962 100.924,159.142 C101.03,159.179 101.143,159.198 101.256,159.198 C101.682,159.198 102.06,158.93 102.197,158.532 C103.256,155.454 106.179,153.385 109.47,153.385 L109.58,153.385 L109.58,153.385 Z M109.456,210.963 C103.498,210.441 98.83,205.338 98.83,199.345 L98.83,190.585 C98.83,190.061 98.433,189.631 97.905,189.583 L97.899,189.583 C97.324,189.583 96.921,189.932 96.844,190.431 C95.936,196.177 91.061,200.345 85.25,200.345 C78.771,200.345 73.5,195.074 73.5,188.595 L73.5,172.925 C73.5,172.374 73.052,171.925 72.5,171.925 C71.948,171.925 71.5,172.374 71.5,172.925 C71.5,178.07 67.311,182.255 62.16,182.255 C57.016,182.255 52.83,178.07 52.83,172.925 L52.83,152.377 L53.104,152.239 C54.766,151.398 56.325,150.342 57.74,149.099 C58.152,148.734 58.194,148.098 57.833,147.683 C57.645,147.47 57.368,147.347 57.077,147.347 C56.834,147.347 56.6,147.434 56.418,147.592 C53.781,149.907 50.696,151.471 47.499,152.115 C46.453,152.324 45.402,152.429 44.375,152.429 C42.346,152.429 40.427,152.026 38.673,151.231 C34.643,149.404 32.33,145.891 32.33,141.595 C32.33,129.536 38.646,115.702 51.104,100.479 C56.97,93.315 61.27,87.06 63.884,81.889 L64.83,82.115 L64.83,102.095 C64.83,102.646 65.278,103.095 65.83,103.095 C66.382,103.095 66.83,102.646 66.83,102.095 L66.83,56.785 C66.83,36.934 82.979,20.785 102.83,20.785 C103.382,20.785 103.83,20.336 103.83,19.785 C103.83,19.234 103.382,18.785 102.83,18.785 C100.011,18.785 97.128,19.117 94.262,19.772 L93.669,19.908 L93.65,19.3 C93.496,14.092 94.506,10.102 96.65,7.441 C99.136,4.357 102.212,2.858 106.057,2.858 C109.995,2.858 114.377,4.393 119.015,6.019 C122.379,7.207 126.178,8.548 129.795,9.101 C131.391,9.346 132.937,9.47 134.392,9.47 C139.305,9.47 143.412,8.107 146.949,5.303 L147.804,4.626 L147.76,5.715 C147.711,6.902 147.538,8.094 147.244,9.257 C146.082,13.807 142.537,19.754 132.248,22.251 L132.08,22.292 L131.923,22.22 C126.922,19.941 121.618,18.785 116.16,18.785 C115.618,18.785 115.16,19.243 115.16,19.785 C115.16,20.336 115.608,20.785 116.16,20.785 C136.011,20.785 152.16,36.934 152.16,56.785 L152.16,102.095 C152.16,102.646 152.608,103.095 153.16,103.095 C153.712,103.095 154.16,102.646 154.16,102.095 L154.16,82.115 L155.106,81.888 C157.735,87.067 162.035,93.322 167.887,100.479 C180.344,115.691 186.66,129.524 186.66,141.595 C186.66,145.896 184.348,149.408 180.316,151.231 C178.563,152.024 176.645,152.426 174.615,152.426 C173.332,152.426 172.019,152.262 170.711,151.94 C167.814,151.222 165,149.718 162.571,147.591 C162.391,147.434 162.156,147.347 161.914,147.347 C161.626,147.347 161.354,147.47 161.167,147.683 C160.987,147.886 160.898,148.143 160.915,148.41 C160.932,148.678 161.051,148.923 161.252,149.101 C162.665,150.342 164.225,151.398 165.886,152.239 L166.16,152.377 L166.16,172.925 C166.16,178.07 161.975,182.255 156.83,182.255 C151.686,182.255 147.5,178.07 147.5,172.925 C147.5,172.374 147.052,171.925 146.5,171.925 C145.948,171.925 145.5,172.374 145.5,172.925 L145.5,188.595 C145.5,195.074 140.229,200.345 133.75,200.345 C127.93,200.345 123.054,196.176 122.156,190.432 C122.074,189.941 121.658,189.581 121.167,189.581 C120.57,189.63 120.16,190.07 120.16,190.585 L120.16,199.345 C120.16,199.881 120.121,200.438 120.045,201.002 C119.265,206.314 114.849,210.501 109.543,210.963 L109.5,210.967 L109.456,210.963 L109.456,210.963 Z" id="Fill-45" fill="#BCE1E1"></path>
        <path d="M12.16,223.845 L1.83,223.845 C1,223.845 0.33,224.515 0.33,225.345 C0.33,226.175 1,226.845 1.83,226.845 L12.16,226.845 C12.99,226.845 13.66,226.175 13.66,225.345 C13.66,224.515 12.99,223.845 12.16,223.845 L12.16,223.845 Z M32.83,141.595 C32.83,145.685 35.04,149.035 38.88,150.775 C41.48,151.955 44.44,152.215 47.4,151.625 C50.43,151.015 53.47,149.515 56.09,147.215 C56.71,146.675 57.66,146.735 58.21,147.355 C58.75,147.975 58.69,148.925 58.07,149.475 C56.59,150.775 54.99,151.845 53.33,152.685 L53.33,172.925 C53.33,177.795 57.29,181.755 62.16,181.755 C67.03,181.755 71,177.795 71,172.925 C71,172.095 71.67,171.425 72.5,171.425 C73.32,171.425 74,172.095 74,172.925 L74,188.595 C74,194.795 79.04,199.845 85.25,199.845 C90.811,199.845 95.48,195.855 96.35,190.355 C96.47,189.575 97.15,189.025 97.95,189.085 C98.73,189.155 99.33,189.805 99.33,190.585 L99.33,199.345 C99.33,205.095 103.79,209.965 109.5,210.465 C114.67,210.015 118.811,205.965 119.55,200.935 C119.62,200.415 119.66,199.885 119.66,199.345 L119.66,190.585 C119.66,189.805 120.271,189.155 121.05,189.085 C121.84,189.025 122.521,189.575 122.65,190.355 C123.51,195.855 128.18,199.845 133.75,199.845 C139.95,199.845 145,194.795 145,188.595 L145,172.925 C145,172.095 145.67,171.425 146.5,171.425 C147.33,171.425 148,172.095 148,172.925 C148,177.795 151.96,181.755 156.83,181.755 C161.7,181.755 165.66,177.795 165.66,172.925 L165.66,152.685 C164,151.845 162.4,150.775 160.92,149.475 C160.3,148.925 160.24,147.975 160.79,147.355 C161.33,146.735 162.28,146.675 162.9,147.215 C165.311,149.325 168.05,150.765 170.83,151.455 C174.04,152.245 177.28,152.055 180.11,150.775 C183.96,149.035 186.16,145.685 186.16,141.595 C186.16,129.655 179.89,115.925 167.5,100.795 C160.95,92.785 156.99,86.705 154.66,82.115 L154.66,102.095 C154.66,102.925 153.99,103.595 153.16,103.595 C152.34,103.595 151.66,102.925 151.66,102.095 L151.66,56.785 C151.66,37.215 135.74,21.285 116.16,21.285 C115.34,21.285 114.66,20.615 114.66,19.785 C114.66,18.965 115.34,18.285 116.16,18.285 C121.86,18.285 127.26,19.545 132.13,21.765 C142.1,19.345 145.6,13.675 146.76,9.135 C147.08,7.865 147.22,6.685 147.26,5.695 C142.58,9.405 136.811,10.685 129.72,9.595 C126.12,9.045 122.43,7.755 118.86,6.495 C110.16,3.445 102.64,0.805 97.04,7.755 C94.96,10.335 94,14.215 94.15,19.285 C96.95,18.645 99.85,18.285 102.83,18.285 C103.66,18.285 104.33,18.965 104.33,19.785 C104.33,20.615 103.66,21.285 102.83,21.285 C83.25,21.285 67.33,37.215 67.33,56.785 L67.33,102.095 C67.33,102.925 66.66,103.595 65.83,103.595 C65,103.595 64.33,102.925 64.33,102.095 L64.33,82.115 C62.01,86.705 58.05,92.785 51.49,100.795 C39.11,115.925 32.83,129.655 32.83,141.595 L32.83,141.595 Z M29.83,141.595 C29.83,128.945 36.34,114.575 49.17,98.895 C62.85,82.175 64.33,74.775 64.33,72.375 L64.33,56.785 C64.33,39.615 75.64,25.035 91.19,20.095 C90.9,13.935 92.07,9.145 94.71,5.865 C101.63,-2.725 110.89,0.525 119.86,3.665 C123.3,4.875 126.85,6.125 130.17,6.635 C137.49,7.755 143.15,6.045 147.48,1.405 C147.87,0.995 148.46,0.835 149,0.995 C149.54,1.145 149.95,1.595 150.05,2.155 C150.07,2.225 150.65,5.555 149.64,9.695 C148.46,14.585 145.061,20.605 135.95,23.775 C147.15,30.515 154.66,42.795 154.66,56.785 L154.66,72.375 C154.66,74.775 156.14,82.175 169.83,98.895 C182.66,114.575 189.16,128.945 189.16,141.595 C189.16,146.835 186.24,151.295 181.35,153.505 C179.25,154.455 176.96,154.925 174.62,154.925 C173.15,154.925 171.64,154.725 170.16,154.355 C169.65,154.235 169.16,154.085 168.66,153.925 L168.66,172.925 C168.66,179.445 163.35,184.755 156.83,184.755 C153.32,184.755 150.17,183.225 148,180.785 L148,188.595 C148,196.455 141.6,202.845 133.75,202.845 C129.29,202.845 125.28,200.825 122.66,197.575 L122.66,199.345 C122.66,200.005 122.61,200.645 122.521,201.285 C121.62,207.755 116.28,212.945 109.61,213.465 C109.58,213.475 109.54,213.475 109.5,213.475 C109.46,213.475 109.42,213.475 109.38,213.465 C102.061,212.895 96.33,206.695 96.33,199.345 L96.33,197.575 C93.71,200.825 89.71,202.845 85.25,202.845 C77.39,202.845 71,196.455 71,188.595 L71,180.785 C68.83,183.225 65.67,184.755 62.16,184.755 C55.64,184.755 50.33,179.445 50.33,172.925 L50.33,153.925 C49.54,154.185 48.75,154.395 47.95,154.555 C46.76,154.795 45.561,154.925 44.37,154.925 C42.03,154.925 39.75,154.455 37.65,153.505 C32.75,151.295 29.83,146.835 29.83,141.595 L29.83,141.595 Z M44,169.665 C44,168.835 43.33,168.165 42.5,168.165 C41.67,168.165 41,168.835 41,169.665 L41,186.575 C41,187.395 41.67,188.075 42.5,188.075 C43.33,188.075 44,187.395 44,186.575 L44,169.665 L44,169.665 Z M42.5,190.515 C41.67,190.515 41,191.185 41,192.015 L41,196.345 C41,197.175 41.67,197.845 42.5,197.845 C43.33,197.845 44,197.175 44,196.345 L44,192.015 C44,191.185 43.33,190.515 42.5,190.515 L42.5,190.515 Z M199.16,223.845 L59.061,223.845 L53.71,219.215 C53.17,218.735 52.36,218.725 51.79,219.175 L45.97,223.845 L19.83,223.845 C19,223.845 18.33,224.515 18.33,225.345 C18.33,226.175 19,226.845 19.83,226.845 L46.5,226.845 C46.84,226.845 47.17,226.725 47.44,226.515 L52.69,222.295 L57.51,226.475 C57.79,226.715 58.14,226.845 58.5,226.845 L199.16,226.845 C199.99,226.845 200.66,226.175 200.66,225.345 C200.66,224.515 199.99,223.845 199.16,223.845 L199.16,223.845 Z M62.66,189.345 C62.66,188.515 61.99,187.845 61.16,187.845 C60.33,187.845 59.66,188.515 59.66,189.345 L59.66,200.465 C59.66,201.295 60.33,201.965 61.16,201.965 C61.99,201.965 62.66,201.295 62.66,200.465 L62.66,189.345 L62.66,189.345 Z M61.16,204.675 C60.33,204.675 59.66,205.345 59.66,206.175 L59.66,210.425 C59.66,211.255 60.33,211.925 61.16,211.925 C61.99,211.925 62.66,211.255 62.66,210.425 L62.66,206.175 C62.66,205.345 61.99,204.675 61.16,204.675 L61.16,204.675 Z M65.83,114.345 C66.66,114.345 67.33,113.675 67.33,112.845 L67.33,107.595 C67.33,106.765 66.66,106.095 65.83,106.095 C65,106.095 64.33,106.765 64.33,107.595 L64.33,112.845 C64.33,113.675 65,114.345 65.83,114.345 L65.83,114.345 Z M82.33,60.385 C87.24,57.255 92.64,55.005 98.33,53.725 L98.33,42.635 C98.33,38.225 94.74,34.635 90.33,34.635 C85.92,34.635 82.33,38.225 82.33,42.635 L82.33,60.385 L82.33,60.385 Z M76.09,67.065 C75.55,66.435 75.61,65.495 76.23,64.945 C77.24,64.075 78.271,63.245 79.33,62.455 L79.33,42.635 C79.33,36.575 84.26,31.635 90.33,31.635 C96.4,31.635 101.33,36.575 101.33,42.635 L101.33,53.145 C101.75,53.075 102.17,53.005 102.6,52.945 C103.42,52.835 104.17,53.415 104.29,54.235 C104.4,55.055 103.82,55.805 103,55.925 C102.04,56.055 101.09,56.215 100.14,56.405 C100.13,56.405 100.13,56.415 100.12,56.415 C93.46,57.745 87.19,60.485 81.67,64.465 C81.67,64.465 81.67,64.465 81.66,64.465 C80.48,65.325 79.32,66.235 78.21,67.205 C77.92,67.455 77.57,67.575 77.22,67.575 C76.8,67.575 76.39,67.405 76.09,67.065 L76.09,67.065 Z M92.75,42.515 C91.41,42.515 90.33,43.595 90.33,44.925 L90.33,48.765 C90.33,50.095 91.41,51.175 92.75,51.175 C94.08,51.175 95.16,50.095 95.16,48.765 L95.16,44.925 C95.16,43.595 94.08,42.515 92.75,42.515 L92.75,42.515 Z M109.58,150.885 L109.521,150.885 L109.41,150.885 C105.1,150.885 101.25,153.625 99.83,157.715 C99.561,158.495 99.98,159.345 100.76,159.615 C101.55,159.885 102.4,159.475 102.67,158.695 C103.66,155.815 106.37,153.885 109.47,153.885 L109.58,153.885 C112.62,153.885 115.33,155.815 116.33,158.695 C116.54,159.315 117.12,159.705 117.74,159.705 C117.91,159.705 118.07,159.675 118.23,159.615 C119.021,159.345 119.43,158.495 119.16,157.715 C117.75,153.625 113.9,150.885 109.58,150.885 L109.58,150.885 Z M99.83,78.765 L99.83,97.345 C99.83,97.825 99.86,98.295 99.92,98.765 C102.41,96.205 105.771,94.565 109.36,94.245 C109.41,94.235 109.45,94.235 109.5,94.235 C109.54,94.235 109.59,94.235 109.63,94.245 C113.22,94.565 116.58,96.205 119.07,98.765 C119.13,98.295 119.16,97.825 119.16,97.345 L119.16,78.765 C119.16,73.175 115.021,68.545 109.5,67.915 C103.98,68.545 99.83,73.175 99.83,78.765 L99.83,78.765 Z M109.35,64.915 C109.45,64.905 109.55,64.905 109.65,64.915 C116.78,65.625 122.16,71.585 122.16,78.765 L122.16,97.345 C122.16,99.145 121.82,100.915 121.13,102.595 C120.92,103.115 120.44,103.475 119.88,103.525 L119.74,103.525 C119.23,103.525 118.75,103.265 118.48,102.825 C116.5,99.695 113.15,97.615 109.5,97.245 C105.84,97.615 102.49,99.695 100.521,102.825 C100.22,103.305 99.67,103.565 99.12,103.525 C98.561,103.475 98.07,103.115 97.86,102.595 C97.18,100.915 96.83,99.145 96.83,97.345 L96.83,78.765 C96.83,71.585 102.21,65.625 109.35,64.915 L109.35,64.915 Z M120.66,53.725 C126.35,55.005 131.75,57.255 136.66,60.385 L136.66,42.635 C136.66,38.225 133.08,34.635 128.66,34.635 C124.25,34.635 120.66,38.225 120.66,42.635 L120.66,53.725 L120.66,53.725 Z M114.71,54.235 C114.82,53.415 115.57,52.835 116.4,52.945 C116.82,53.005 117.24,53.075 117.66,53.145 L117.66,42.635 C117.66,36.575 122.6,31.635 128.66,31.635 C134.73,31.635 139.66,36.575 139.66,42.635 L139.66,62.455 C140.72,63.245 141.76,64.075 142.76,64.945 C143.38,65.495 143.45,66.435 142.9,67.065 C142.61,67.405 142.19,67.575 141.771,67.575 C141.42,67.575 141.07,67.455 140.79,67.205 C139.67,66.235 138.521,65.325 137.33,64.465 L137.32,64.465 C131.811,60.485 125.54,57.745 118.87,56.415 C118.87,56.415 118.86,56.405 118.85,56.405 C117.91,56.215 116.95,56.055 115.99,55.925 C115.17,55.805 114.59,55.055 114.71,54.235 L114.71,54.235 Z M126.25,42.515 C124.91,42.515 123.83,43.595 123.83,44.925 L123.83,48.765 C123.83,50.095 124.91,51.175 126.25,51.175 C127.58,51.175 128.66,50.095 128.66,48.765 L128.66,44.925 C128.66,43.595 127.58,42.515 126.25,42.515 L126.25,42.515 Z M153.16,114.345 C153.99,114.345 154.66,113.675 154.66,112.845 L154.66,107.595 C154.66,106.765 153.99,106.095 153.16,106.095 C152.34,106.095 151.66,106.765 151.66,107.595 L151.66,112.845 C151.66,113.675 152.34,114.345 153.16,114.345 L153.16,114.345 Z M159.33,189.345 C159.33,188.515 158.66,187.845 157.83,187.845 C157,187.845 156.33,188.515 156.33,189.345 L156.33,200.465 C156.33,201.295 157,201.965 157.83,201.965 C158.66,201.965 159.33,201.295 159.33,200.465 L159.33,189.345 L159.33,189.345 Z M157.83,204.675 C157,204.675 156.33,205.345 156.33,206.175 L156.33,210.425 C156.33,211.255 157,211.925 157.83,211.925 C158.66,211.925 159.33,211.255 159.33,210.425 L159.33,206.175 C159.33,205.345 158.66,204.675 157.83,204.675 L157.83,204.675 Z M178,169.665 C178,168.835 177.33,168.165 176.5,168.165 C175.67,168.165 175,168.835 175,169.665 L175,186.575 C175,187.395 175.67,188.075 176.5,188.075 C177.33,188.075 178,187.395 178,186.575 L178,169.665 L178,169.665 Z M176.5,190.515 C175.67,190.515 175,191.185 175,192.015 L175,196.345 C175,197.175 175.67,197.845 176.5,197.845 C177.33,197.845 178,197.175 178,196.345 L178,192.015 C178,191.185 177.33,190.515 176.5,190.515 L176.5,190.515 Z M218.66,225.345 C218.66,226.175 217.99,226.845 217.16,226.845 L206.83,226.845 C206,226.845 205.33,226.175 205.33,225.345 C205.33,224.515 206,223.845 206.83,223.845 L217.16,223.845 C217.99,223.845 218.66,224.515 218.66,225.345 L218.66,225.345 Z" id="Fill-46" fill="#42384B"></path>
    </g>
</svg>