<?xml version="1.0" encoding="UTF-8" standalone="no"?>
<svg width="233px" height="189px" viewBox="0 0 233 189" version="1.1" xmlns="http://www.w3.org/2000/svg" xmlns:xlink="http://www.w3.org/1999/xlink">
    <!-- Generator: Sketch 39.1 (31720) - http://www.bohemiancoding.com/sketch -->
    <title>Slice 1</title>
    <desc>Created with Sketch.</desc>
    <defs></defs>
    <g id="Page-1" stroke="none" stroke-width="1" fill="none" fill-rule="evenodd">
        <path d="M52.869,86.14 C51.179,84.647 49.924,83.049 48.673,80.798 L48.211,79.966 L49.158,80.057 C51.145,80.248 53.064,80.345 54.86,80.345 C55.096,80.345 55.314,80.336 55.547,80.327 L56.192,80.304 L56.109,80.932 C55.577,83.381 54.301,85.209 53.587,86.081 L53.258,86.484 L52.869,86.14 L52.869,86.14 Z M85.399,86.077 C84.529,84.989 83.386,83.211 82.891,80.932 L82.754,80.301 L83.4,80.325 C83.644,80.335 83.887,80.345 84.13,80.345 C85.948,80.345 87.817,80.251 89.843,80.057 L90.793,79.966 L90.327,80.799 C89.065,83.053 87.808,84.65 86.121,86.14 L85.727,86.488 L85.399,86.077 L85.399,86.077 Z" id="Fill-52" fill="#E6F5F8"></path>
        <path d="M69.491,97.725 C68.31,97.703 67.248,97.647 66.243,97.553 C63.094,97.257 59.92,96.569 56.809,95.509 L56.06,95.253 L56.612,94.687 C57.935,93.327 60.153,91.708 63.206,91.708 C65.071,91.708 67.012,92.324 68.973,93.54 C69.126,93.632 69.309,93.683 69.497,93.683 C69.685,93.683 69.872,93.631 70.035,93.534 C72.01,92.31 73.968,91.686 75.847,91.686 C76.395,91.686 76.943,91.74 77.477,91.845 C79.719,92.303 81.391,93.638 82.399,94.676 L82.948,95.241 L82.202,95.497 C78.07,96.916 73.798,97.665 69.507,97.725 L69.491,97.725" id="Fill-53" fill="#774B76"></path>
        <path d="M35.87,25.375 C33.599,25.375 31.342,25.129 29.161,24.643 C27.185,24.205 25.688,23.67 24.78,23.298 L24.19,23.056 L24.566,22.54 C27.222,18.905 30.366,15.59 33.914,12.689 L34.437,12.26 L34.693,12.887 C36.344,16.939 38.58,20.732 41.34,24.161 L41.884,24.838 L41.026,24.969 C39.262,25.239 37.527,25.375 35.87,25.375 L35.87,25.375 Z M103.13,25.375 C101.473,25.375 99.738,25.239 97.975,24.969 L97.118,24.838 L97.66,24.162 C100.417,20.724 102.649,16.93 104.297,12.887 L104.552,12.261 L105.076,12.688 C108.609,15.571 111.754,18.885 114.424,22.54 L114.801,23.056 L114.209,23.298 C112.312,24.074 108.35,25.375 103.13,25.375 L103.13,25.375 Z M84.608,94.176 C83.778,93.13 81.453,90.621 77.802,89.895 C77.14,89.761 76.461,89.694 75.783,89.694 C73.809,89.694 71.776,90.262 69.741,91.382 L69.5,91.515 L69.259,91.383 C67.223,90.263 65.188,89.695 63.211,89.695 C58.344,89.695 55.222,93.125 54.381,94.177 L54.142,94.475 L53.792,94.324 C46.186,91.028 39.337,85.383 33.985,77.998 L33.135,76.826 L34.528,77.225 C37.062,77.95 41.036,78.954 45.573,79.619 L45.835,79.658 L45.95,79.897 C48.311,84.787 50.489,86.813 52.696,88.618 C52.88,88.769 53.093,88.845 53.33,88.845 C53.578,88.845 53.814,88.755 53.997,88.592 C54.036,88.558 57.467,85.449 58.206,80.61 L58.266,80.218 L58.66,80.187 C62.699,79.862 66.275,78.986 69.289,77.582 L69.5,77.484 L69.711,77.582 C72.618,78.936 76.034,79.795 79.865,80.137 C80.056,80.16 80.193,80.177 80.331,80.186 L80.734,80.21 L80.795,80.611 C81.523,85.449 84.954,88.558 84.989,88.588 C85.18,88.753 85.419,88.845 85.66,88.845 C85.896,88.845 86.119,88.767 86.286,88.624 C88.504,86.819 90.684,84.798 93.05,79.897 L93.165,79.658 L93.427,79.619 C97.957,78.954 101.928,77.95 104.462,77.225 L105.853,76.826 L105.005,77.998 C99.668,85.376 92.819,91.021 85.199,94.324 L84.847,94.476 L84.608,94.176 L84.608,94.176 Z" id="Fill-54" fill="#DC827F"></path>
        <path d="M44.21,66.225 C43.565,66.225 42.873,66.179 42.032,66.082 L41.382,66.006 L41.407,66.043 L40.183,65.774 C33.173,64.233 27.626,58.706 26.052,51.695 L25.972,51.338 L26.287,51.154 C29.143,49.48 32.401,48.595 35.71,48.595 C37.327,48.595 38.955,48.809 40.548,49.232 L41.242,49.416 L40.829,50.003 C39.247,52.25 38.41,54.875 38.41,57.595 C38.41,60.227 39.204,62.788 40.704,65.005 L41.281,65.857 L41.683,65.294 C43.304,63.031 44.16,60.367 44.16,57.595 C44.16,55.18 43.497,52.815 42.243,50.755 L41.446,49.448 L42.861,50.033 C48.432,52.34 52.542,57.231 53.858,63.116 L53.937,63.471 L53.624,63.656 C50.774,65.336 47.519,66.225 44.21,66.225 L44.21,66.225 Z M94.79,66.225 C91.471,66.225 88.215,65.336 85.375,63.656 L85.062,63.47 L85.142,63.116 C86.458,57.228 90.565,52.337 96.129,50.033 L97.544,49.448 L96.748,50.755 C95.493,52.815 94.83,55.18 94.83,57.595 C94.83,60.372 95.69,63.034 97.316,65.293 L97.72,65.855 L98.296,65.005 C99.79,62.799 100.58,60.237 100.58,57.595 C100.58,54.866 99.747,52.241 98.171,50.003 L97.759,49.417 L98.451,49.232 C100.035,48.809 101.663,48.595 103.29,48.595 C106.592,48.595 109.848,49.48 112.703,51.154 L113.018,51.338 L112.938,51.694 C111.375,58.703 105.832,64.23 98.817,65.774 L97.593,66.043 L97.617,66.008 L96.967,66.082 C96.103,66.181 95.432,66.225 94.79,66.225 L94.79,66.225 Z M69.388,70.332 C65.435,69.423 63.36,66.048 62.984,65.38 L62.572,64.649 L63.412,64.635 C64.714,64.615 66.807,64.595 69.5,64.595 C72.193,64.595 74.287,64.615 75.578,64.635 L76.414,64.649 L76.007,65.378 C74.982,67.219 72.693,69.621 69.612,70.332 L69.5,70.358 L69.388,70.332 L69.388,70.332 Z M55.649,122.808 L88.31,117.734 L88.31,117.665 L88.82,117.655 L95.437,116.624 L96.934,126.29 L95.459,126.282 C94.522,126.282 93.586,126.295 92.656,126.325 C83.4,126.636 69.958,128.637 58.49,136.409 L57.837,136.852 L55.649,122.808 L55.649,122.808 Z" id="Fill-55" fill="#FACD5D"></path>
        <path d="M150.83,85.275 L160.432,85.275 L150.83,92.911 L150.83,85.275 L150.83,85.275 Z M152.751,93.931 L162.83,85.93 L162.83,95.288 L159.668,98.532 L152.751,93.931 L152.751,93.931 Z M154.335,106.875 L162.83,98.156 L162.83,106.875 L154.335,106.875 L154.335,106.875 Z M150.83,95.065 L158.26,99.981 L150.83,107.605 L150.83,95.065 L150.83,95.065 Z" id="Fill-56" fill="#FCF0D4"></path>
        <path d="M150.882,83.275 L150.954,82.711 C151.787,76.192 157.374,71.275 163.95,71.275 L193.58,71.275 C196.889,71.275 199.58,73.966 199.58,77.275 C199.58,80.583 196.889,83.275 193.58,83.275 L150.882,83.275 L150.882,83.275 Z M22.221,24.302 C22.276,24.335 27.516,27.375 35.87,27.375 C38.544,27.375 41.272,27.06 43.978,26.438 L45.624,26.051 L44.488,24.789 C40.665,20.532 37.758,15.654 35.849,10.293 L35.389,9.006 L34.303,9.832 C29.422,13.535 25.248,17.923 21.894,22.875 L21.288,23.762 L22.221,24.302 L22.221,24.302 Z M95.024,26.438 C97.719,27.06 100.446,27.375 103.13,27.375 C111.473,27.375 116.724,24.334 116.776,24.304 L117.706,23.762 L117.106,22.875 C113.742,17.923 109.566,13.534 104.697,9.833 L103.611,9.006 L103.151,10.293 C101.247,15.642 98.336,20.519 94.502,24.789 L93.367,26.051 L95.024,26.438 L95.024,26.438 Z M48.215,28.811 C47.919,28.811 47.641,28.938 47.45,29.16 C47.096,29.58 47.147,30.217 47.565,30.575 C49.064,31.843 50.633,33.019 52.225,34.067 C52.386,34.177 52.578,34.235 52.77,34.235 C53.114,34.235 53.424,34.071 53.598,33.796 C53.752,33.566 53.804,33.299 53.751,33.038 C53.698,32.776 53.546,32.549 53.323,32.401 C51.713,31.328 50.213,30.199 48.865,29.045 C48.686,28.895 48.455,28.811 48.215,28.811 L48.215,28.811 Z M90.78,28.811 C90.544,28.811 90.314,28.895 90.132,29.048 C88.728,30.241 87.225,31.369 85.666,32.402 C85.444,32.549 85.292,32.776 85.239,33.038 C85.186,33.299 85.238,33.566 85.386,33.787 C85.574,34.073 85.877,34.235 86.22,34.235 C86.421,34.235 86.603,34.18 86.777,34.066 C88.415,32.98 89.981,31.805 91.426,30.574 C91.847,30.213 91.899,29.578 91.54,29.16 C91.35,28.938 91.073,28.811 90.78,28.811 L90.78,28.811 Z M23.883,51.023 C25.562,60.99 34.111,68.225 44.21,68.225 C48.265,68.225 52.202,67.036 55.594,64.788 L56.134,64.429 L56.027,63.787 C54.347,53.825 45.803,46.595 35.71,46.595 C31.648,46.595 27.708,47.783 24.316,50.032 L23.777,50.384 L23.883,51.023 L23.883,51.023 Z M83.407,64.789 C86.798,67.036 90.735,68.225 94.79,68.225 C104.893,68.225 113.438,60.991 115.107,51.022 L115.213,50.384 L114.676,50.033 C111.282,47.783 107.345,46.595 103.29,46.595 C93.187,46.595 84.643,53.825 82.973,63.788 L82.867,64.429 L83.407,64.789 L83.407,64.789 Z M69.5,62.595 C62.784,62.595 61.693,62.692 61.456,62.764 C61.282,62.814 60.461,63.107 60.52,64.249 C60.612,66.234 64.03,71.35 69.314,72.354 L69.5,72.387 L69.693,72.353 C74.953,71.351 78.38,66.233 78.48,64.249 C78.539,63.105 77.711,62.814 77.545,62.767 C77.304,62.69 76.227,62.595 69.5,62.595 L69.5,62.595 Z M30.77,73.983 C30.466,73.983 30.186,74.116 30,74.348 C29.728,74.681 29.699,75.142 29.923,75.498 C38.517,89.42 51.686,98.176 66.057,99.527 C67.136,99.64 68.257,99.704 69.488,99.725 C85.284,99.498 99.704,90.669 109.075,75.502 C109.296,75.139 109.268,74.676 109.003,74.352 C108.809,74.115 108.527,73.979 108.231,73.979 C108.115,73.979 108,74 107.889,74.042 C106.595,74.498 95.342,78.345 84.13,78.345 C82.718,78.345 81.35,78.283 80.063,78.163 C76.168,77.808 72.766,76.903 69.953,75.47 C69.818,75.405 69.658,75.367 69.5,75.367 C69.342,75.367 69.183,75.405 69.04,75.474 C65.293,77.378 60.52,78.345 54.86,78.345 C43.262,78.345 31.617,74.224 31.127,74.048 C31.005,74.003 30.888,73.983 30.77,73.983 L30.77,73.983 Z M69.504,109.735 C36.606,109.352 9.84,83.58 9.84,52.285 C9.84,33.087 19.852,15.246 36.622,4.563 L37.217,4.183 L37.377,4.871 C40.075,16.493 47.935,26.469 58.942,32.242 C59.091,32.322 59.247,32.361 59.41,32.361 C59.783,32.361 60.123,32.155 60.298,31.822 C60.42,31.587 60.443,31.316 60.362,31.061 C60.281,30.807 60.107,30.601 59.872,30.48 C58.75,29.886 57.682,29.233 56.875,28.729 L55.83,28.076 L57.035,27.816 C61.008,26.959 65.18,26.458 69.435,26.325 C73.772,26.457 77.977,26.958 81.965,27.816 L83.179,28.077 L82.123,28.73 C81.191,29.306 80.183,29.916 79.124,30.477 C78.884,30.602 78.71,30.812 78.631,31.068 C78.553,31.322 78.578,31.588 78.701,31.82 C78.874,32.157 79.21,32.361 79.58,32.361 C79.743,32.361 79.899,32.322 80.044,32.244 C91.065,26.464 98.926,16.488 101.613,4.872 L101.772,4.183 L102.369,4.563 C119.145,15.25 129.16,33.091 129.16,52.285 C129.16,83.579 102.404,109.352 69.516,109.735 L69.504,109.735 L69.504,109.735 Z M61.235,111.105 L61.893,111.189 C64.565,111.529 67.059,111.707 69.516,111.735 C74.998,111.677 80.506,110.903 85.878,109.433 L86.419,109.285 L87.43,115.842 L62.562,119.706 L61.235,111.105 L61.235,111.105 Z M197.492,174.645 L197.49,174.146 C197.48,170.387 196.666,166.757 195.067,163.358 L194.732,162.645 L213.96,162.645 C214.578,162.645 215.08,162.142 215.08,161.525 L215.08,121.995 C215.08,121.378 214.578,120.875 213.96,120.875 L163.95,120.875 C157.372,120.875 151.785,115.958 150.954,109.439 L150.882,108.875 L213.96,108.875 C221.194,108.875 227.08,114.761 227.08,121.995 L227.08,161.525 C227.08,168.759 221.194,174.645 213.96,174.645 L197.492,174.645 L197.492,174.645 Z M99.087,136.343 C98.563,136.343 98.115,136.772 98.089,137.299 C98.063,137.849 98.491,138.319 99.044,138.346 C101.873,138.477 104.71,138.762 107.477,139.191 C107.534,139.198 107.587,139.205 107.64,139.205 C108.124,139.205 108.548,138.84 108.626,138.355 C108.707,137.809 108.336,137.307 107.782,137.219 C104.977,136.781 102.068,136.486 99.136,136.344 L99.087,135.843 L99.087,136.343 L99.087,136.343 Z M112.911,138.209 C112.443,138.209 112.029,138.535 111.928,138.986 C111.809,139.52 112.149,140.061 112.686,140.189 C121.585,142.199 126.864,145.153 128.58,146.58 L128.692,146.674 L128.737,146.814 C131.305,154.881 139.005,160.515 147.46,160.515 C148.011,160.515 148.46,160.067 148.46,159.515 C148.46,158.963 148.011,158.515 147.46,158.515 C139.694,158.515 132.74,153.334 130.551,145.916 L130.479,145.624 L130.283,145.436 C128.792,143.945 123.298,140.53 113.13,138.233 C113.059,138.217 112.985,138.209 112.911,138.209 L112.911,138.209 Z M82.08,167.845 C81.529,167.845 81.08,168.293 81.08,168.845 C81.08,169.397 81.529,169.845 82.08,169.845 L89.58,169.845 C90.131,169.845 90.58,169.397 90.58,168.845 C90.58,168.293 90.131,167.845 89.58,167.845 L82.08,167.845 L82.08,167.845 Z M133.58,186.345 C130.271,186.345 127.58,183.654 127.58,180.345 L127.58,175.845 C127.58,172.536 130.271,169.845 133.58,169.845 L171.83,169.845 C172.381,169.845 172.83,169.397 172.83,168.845 C172.83,168.293 172.381,167.845 171.83,167.845 L133.58,167.845 C129.169,167.845 125.58,171.434 125.58,175.845 L125.58,180.345 C125.58,182.235 126.259,184.074 127.491,185.521 L128.192,186.345 L53.982,186.345 L46.784,181.293 L40.639,186.345 L29.58,186.345 C26.271,186.345 23.58,183.654 23.58,180.345 L23.58,175.845 C23.58,172.536 26.271,169.845 29.58,169.845 L73.83,169.845 C74.381,169.845 74.83,169.397 74.83,168.845 C74.83,168.293 74.381,167.845 73.83,167.845 L39.937,167.845 L40.095,167.222 C43.071,155.493 48.915,146.223 57.466,139.668 C57.657,139.562 57.756,139.489 57.833,139.406 C69.31,130.818 83.135,128.646 92.724,128.325 C93.664,128.294 94.602,128.28 95.531,128.28 C116.667,128.28 136.041,136.241 137.99,142.833 L138.21,143.596 C139.41,147.668 143.213,150.515 147.46,150.515 L171.75,150.515 C184.846,150.515 195.5,161.169 195.5,174.265 L195.5,186.345 L133.58,186.345 L133.58,186.345 Z" id="Fill-57" fill="#5E5D6D"></path>
        <path d="M10.16,185.845 L1.5,185.845 C0.67,185.845 0,186.515 0,187.345 C0,188.175 0.67,188.845 1.5,188.845 L10.16,188.845 C10.99,188.845 11.66,188.175 11.66,187.345 C11.66,186.515 10.99,185.845 10.16,185.845 L10.16,185.845 Z M197.99,174.145 L213.96,174.145 C220.92,174.145 226.58,168.485 226.58,161.525 L226.58,121.995 C226.58,115.035 220.92,109.375 213.96,109.375 L163.95,109.375 L163.89,109.375 L163.83,109.375 L151.45,109.375 C152.24,115.575 157.54,120.375 163.95,120.375 L213.96,120.375 C214.85,120.375 215.58,121.105 215.58,121.995 L215.58,161.525 C215.58,162.415 214.85,163.145 213.96,163.145 L195.52,163.145 C197.09,166.485 197.98,170.215 197.99,174.145 L197.99,174.145 Z M195,174.265 C195,161.445 184.57,151.015 171.75,151.015 L147.46,151.015 C142.99,151.015 138.99,148.015 137.73,143.735 L137.51,142.975 C135.71,136.885 115.69,128.065 92.74,128.825 C83.18,129.145 69.48,131.315 58.2,139.745 C58.08,139.875 57.93,139.985 57.77,140.065 C50.23,145.845 43.84,154.495 40.58,167.345 L73.83,167.345 C74.66,167.345 75.33,168.015 75.33,168.845 C75.33,169.675 74.66,170.345 73.83,170.345 L38.64,170.345 C38.64,170.345 38.64,170.345 38.63,170.345 L29.58,170.345 C26.55,170.345 24.08,172.815 24.08,175.845 L24.08,180.345 C24.08,183.375 26.55,185.845 29.58,185.845 L40.46,185.845 L46.76,180.665 L54.14,185.845 L127.11,185.845 C125.85,184.365 125.08,182.445 125.08,180.345 L125.08,175.845 C125.08,171.155 128.89,167.345 133.58,167.345 L171.83,167.345 C172.66,167.345 173.33,168.015 173.33,168.845 C173.33,169.675 172.66,170.345 171.83,170.345 L133.58,170.345 C130.55,170.345 128.08,172.815 128.08,175.845 L128.08,180.345 C128.08,183.375 130.55,185.845 133.58,185.845 L195,185.845 L195,174.265 L195,174.265 Z M56.22,123.225 L58.21,135.995 C69.69,128.215 83.12,126.145 92.64,125.825 C93.87,125.785 95.11,125.775 96.35,125.785 L95.02,117.195 L88.82,118.155 C88.81,118.155 88.81,118.155 88.81,118.165 L88.79,118.165 L56.22,123.225 L56.22,123.225 Z M86.01,109.915 C80.75,111.355 75.22,112.175 69.51,112.235 C66.91,112.205 64.35,112.005 61.83,111.685 L62.98,119.135 L86.86,115.425 L86.01,109.915 L86.01,109.915 Z M69.51,109.235 C102.11,108.855 128.66,83.315 128.66,52.285 C128.66,33.145 118.77,15.605 102.1,4.985 C99.37,16.785 91.51,26.795 80.28,32.685 C79.55,33.075 78.64,32.795 78.26,32.055 C77.87,31.325 78.16,30.415 78.89,30.035 C79.91,29.495 80.89,28.905 81.86,28.305 C77.86,27.445 73.71,26.955 69.45,26.825 C65.27,26.955 61.13,27.445 57.14,28.305 C58.1,28.905 59.08,29.495 60.1,30.035 C60.84,30.415 61.12,31.325 60.74,32.055 C60.35,32.795 59.44,33.075 58.71,32.685 C47.48,26.795 39.63,16.785 36.89,4.985 C20.22,15.605 10.34,33.145 10.34,52.285 C10.34,83.315 36.88,108.855 69.51,109.235 L69.51,109.235 Z M151.33,106.375 L157.48,100.065 L151.33,95.995 L151.33,106.375 L151.33,106.375 Z M151.33,92.385 L151.56,92.545 L151.33,92.245 L151.33,92.385 L151.33,92.385 Z M151.33,91.875 L159,85.775 L151.33,85.775 L151.33,91.875 L151.33,91.875 Z M155.52,106.375 L162.33,106.375 L162.33,99.385 L155.52,106.375 L155.52,106.375 Z M162.33,95.085 L162.33,86.965 L153.6,93.895 L159.6,97.885 L162.33,95.085 L162.33,95.085 Z M151.45,82.775 L193.58,82.775 C196.61,82.775 199.08,80.315 199.08,77.275 C199.08,74.245 196.61,71.775 193.58,71.775 L163.95,71.775 C157.54,71.775 152.24,76.585 151.45,82.775 L151.45,82.775 Z M214.33,187.345 C214.33,188.175 213.66,188.845 212.83,188.845 L53.19,188.845 L46.9,184.425 L41.53,188.845 L19.5,188.845 C18.67,188.845 18,188.175 18,187.345 C18,186.515 18.67,185.845 19.5,185.845 L23.11,185.845 C21.85,184.365 21.08,182.445 21.08,180.345 L21.08,175.845 C21.08,171.155 24.89,167.345 29.58,167.345 L37.49,167.345 C40.83,153.515 47.53,144.195 55.48,137.965 L52.8,120.715 L60.02,119.595 L58.71,111.205 C29.55,105.975 7.34,81.435 7.34,52.285 C7.34,31.385 18.49,12.325 37.17,1.295 L39.03,0.195 L39.41,2.325 C41.07,11.745 46.22,20.065 53.85,25.995 C58.82,24.715 64.07,23.985 69.45,23.825 C74.92,23.985 80.17,24.715 85.15,25.995 C92.78,20.065 97.92,11.745 99.59,2.325 L99.96,0.195 L101.83,1.295 C120.51,12.325 131.66,31.385 131.66,52.285 C131.66,78.495 113.7,100.975 88.91,109.045 L89.83,114.965 L97.52,113.765 L99.4,125.865 C119.06,126.725 137.97,133.955 140.39,142.135 L140.61,142.885 C141.5,145.905 144.31,148.015 147.46,148.015 L171.75,148.015 C181.03,148.015 189.19,152.855 193.86,160.145 L212.58,160.145 L212.58,123.375 L163.95,123.375 C155.42,123.375 148.47,116.495 148.34,107.995 C148.34,107.955 148.33,107.915 148.33,107.875 L148.33,107.835 L148.33,107.765 L148.33,84.395 L148.33,84.315 L148.33,84.275 C148.33,84.235 148.34,84.195 148.34,84.165 C148.47,75.655 155.42,68.775 163.95,68.775 L193.58,68.775 C198.27,68.775 202.08,72.595 202.08,77.275 C202.08,81.965 198.27,85.775 193.58,85.775 L165.33,85.775 L165.33,106.375 L213.96,106.375 C222.57,106.375 229.58,113.385 229.58,121.995 L229.58,161.525 C229.58,170.135 222.57,177.145 213.96,177.145 L198,177.145 L198,185.845 L212.83,185.845 C213.66,185.845 214.33,186.515 214.33,187.345 L214.33,187.345 Z M44.66,57.595 C44.66,60.575 43.7,63.335 42.09,65.585 C42.78,65.665 43.49,65.725 44.21,65.725 C47.44,65.725 50.59,64.865 53.37,63.225 C52.06,57.365 47.98,52.695 42.67,50.495 C43.93,52.565 44.66,54.995 44.66,57.595 L44.66,57.595 Z M37.91,57.595 C37.91,54.655 38.85,51.945 40.42,49.715 C38.91,49.315 37.33,49.095 35.71,49.095 C32.47,49.095 29.32,49.955 26.54,51.585 C28.1,58.535 33.51,63.795 40.29,65.285 C38.8,63.085 37.91,60.445 37.91,57.595 L37.91,57.595 Z M44.21,68.725 C33.86,68.725 25.11,61.315 23.39,51.105 L23.23,50.145 L24.04,49.615 C27.51,47.315 31.54,46.095 35.71,46.095 C46.05,46.095 54.8,53.505 56.52,63.705 L56.68,64.665 L55.87,65.205 C52.4,67.505 48.37,68.725 44.21,68.725 L44.21,68.725 Z M29.27,24.155 C31.11,24.565 33.33,24.875 35.87,24.875 C37.55,24.875 39.25,24.735 40.95,24.475 C38.15,20.995 35.9,17.175 34.23,13.075 C30.71,15.955 27.6,19.235 24.97,22.835 C25.97,23.245 27.42,23.745 29.27,24.155 L29.27,24.155 Z M35.87,27.875 C27.48,27.875 22.19,24.865 21.97,24.735 L20.57,23.925 L21.48,22.595 C24.86,17.605 29.07,13.175 34,9.435 L35.63,8.195 L36.32,10.125 C38.2,15.405 41.07,20.235 44.86,24.455 L46.56,26.345 L44.09,26.925 C41.35,27.555 38.58,27.875 35.87,27.875 L35.87,27.875 Z M51.95,34.485 C52.2,34.655 52.49,34.735 52.77,34.735 C53.26,34.735 53.74,34.505 54.02,34.065 C54.48,33.375 54.29,32.445 53.6,31.985 C52.07,30.965 50.58,29.855 49.19,28.665 C48.56,28.135 47.61,28.205 47.07,28.835 C46.54,29.465 46.61,30.415 47.24,30.955 C48.73,32.215 50.31,33.405 51.95,34.485 L51.95,34.485 Z M63.42,65.135 C64.27,66.645 66.37,69.125 69.5,69.845 C72.62,69.125 74.73,66.645 75.57,65.135 C74.28,65.115 72.19,65.095 69.5,65.095 C66.81,65.095 64.72,65.115 63.42,65.135 L63.42,65.135 Z M60.02,64.275 C59.96,63.095 60.68,62.465 61.31,62.285 C61.54,62.215 61.96,62.095 69.5,62.095 C77.03,62.095 77.46,62.215 77.68,62.285 C78.32,62.465 79.04,63.095 78.98,64.275 C78.86,66.635 75.19,71.815 69.78,72.845 L69.5,72.895 L69.22,72.845 C63.8,71.815 60.13,66.635 60.02,64.275 L60.02,64.275 Z M69.5,97.225 C73.81,97.165 78.02,96.405 82.04,95.025 C81.05,94.005 79.48,92.765 77.38,92.335 C75.45,91.955 73.08,92.235 70.29,93.965 C69.8,94.255 69.19,94.255 68.71,93.965 C62.9,90.365 58.85,93.105 56.97,95.035 C59.99,96.065 63.1,96.755 66.29,97.055 C67.35,97.155 68.42,97.205 69.5,97.225 L69.5,97.225 Z M69.5,90.945 C72.64,89.215 75.48,88.915 77.9,89.405 C81.07,90.035 83.53,92.015 85,93.865 C92.5,90.615 99.24,85.115 104.6,77.705 C101.84,78.495 97.92,79.465 93.5,80.115 C91.1,85.085 88.87,87.165 86.61,89.005 C86.34,89.235 86,89.345 85.66,89.345 C85.31,89.345 84.95,89.215 84.66,88.965 C84.5,88.825 81.05,85.665 80.3,80.685 C80.14,80.675 79.98,80.655 79.82,80.635 C75.9,80.285 72.44,79.405 69.5,78.035 C66.43,79.465 62.81,80.355 58.7,80.685 C57.94,85.665 54.49,88.825 54.33,88.965 C54.05,89.215 53.69,89.345 53.33,89.345 C52.99,89.345 52.66,89.235 52.38,89.005 C50.13,87.165 47.9,85.085 45.5,80.115 C41.07,79.465 37.15,78.495 34.39,77.705 C39.76,85.115 46.49,90.615 53.99,93.865 C56.59,90.615 62.23,86.945 69.5,90.945 L69.5,90.945 Z M49.11,80.555 C50.51,83.075 51.83,84.555 53.2,85.765 C54.01,84.775 55.14,83.035 55.62,80.825 C55.36,80.835 55.12,80.845 54.86,80.845 C52.92,80.845 50.98,80.735 49.11,80.555 L49.11,80.555 Z M83.38,80.825 C83.86,83.035 84.99,84.765 85.79,85.765 C87.16,84.555 88.48,83.075 89.89,80.555 C88.01,80.735 86.08,80.845 84.13,80.845 C83.88,80.845 83.63,80.835 83.38,80.825 L83.38,80.825 Z M69.52,100.225 L69.5,100.225 L69.48,100.225 C68.32,100.205 67.16,100.145 66.01,100.025 C51.43,98.655 38.26,89.955 29.5,75.765 C29.16,75.225 29.21,74.525 29.61,74.035 C30.01,73.535 30.69,73.355 31.29,73.575 C31.4,73.615 43.12,77.845 54.86,77.845 C60.44,77.845 65.14,76.895 68.82,75.025 C69.25,74.815 69.75,74.815 70.18,75.025 C72.93,76.425 76.26,77.315 80.11,77.665 C81.39,77.785 82.73,77.845 84.13,77.845 C95.9,77.845 107.59,73.615 107.71,73.575 C108.31,73.345 108.98,73.535 109.39,74.035 C109.79,74.525 109.83,75.225 109.5,75.765 C100.04,91.075 85.47,99.995 69.52,100.225 L69.52,100.225 Z M89.58,167.345 L82.08,167.345 C81.25,167.345 80.58,168.015 80.58,168.845 C80.58,169.675 81.25,170.345 82.08,170.345 L89.58,170.345 C90.41,170.345 91.08,169.675 91.08,168.845 C91.08,168.015 90.41,167.345 89.58,167.345 L89.58,167.345 Z M86.22,34.735 C86.51,34.735 86.79,34.655 87.05,34.485 C88.68,33.405 90.27,32.215 91.75,30.955 C92.38,30.415 92.46,29.465 91.92,28.835 C91.38,28.205 90.44,28.135 89.81,28.665 C88.41,29.855 86.93,30.965 85.39,31.985 C84.7,32.445 84.51,33.375 84.97,34.065 C85.26,34.505 85.73,34.735 86.22,34.735 L86.22,34.735 Z M85.63,63.225 C88.4,64.865 91.55,65.725 94.79,65.725 C95.51,65.725 96.21,65.665 96.91,65.585 C95.29,63.335 94.33,60.575 94.33,57.595 C94.33,54.995 95.06,52.565 96.32,50.495 C91.01,52.695 86.94,57.365 85.63,63.225 L85.63,63.225 Z M98.58,49.715 C100.15,51.945 101.08,54.655 101.08,57.595 C101.08,60.445 100.2,63.085 98.71,65.285 C105.48,63.795 110.9,58.535 112.45,51.585 C109.67,49.955 106.53,49.095 103.29,49.095 C101.66,49.095 100.08,49.315 98.58,49.715 L98.58,49.715 Z M83.13,65.205 L82.32,64.665 L82.48,63.705 C84.19,53.505 92.94,46.095 103.29,46.095 C107.45,46.095 111.48,47.315 114.95,49.615 L115.76,50.145 L115.6,51.105 C113.89,61.315 105.13,68.725 94.79,68.725 C90.63,68.725 86.6,67.505 83.13,65.205 L83.13,65.205 Z M98.05,24.475 C99.75,24.735 101.45,24.875 103.13,24.875 C108.2,24.875 112.04,23.645 114.02,22.835 C111.39,19.235 108.29,15.955 104.76,13.075 C103.09,17.175 100.84,20.995 98.05,24.475 L98.05,24.475 Z M94.91,26.925 L92.43,26.345 L94.13,24.455 C97.92,20.235 100.8,15.405 102.68,10.125 L103.37,8.195 L105,9.435 C109.92,13.175 114.13,17.605 117.52,22.595 L118.42,23.925 L117.03,24.735 C116.81,24.865 111.52,27.875 103.13,27.875 C100.41,27.875 97.64,27.555 94.91,26.925 L94.91,26.925 Z M107.86,136.725 C104.98,136.275 102.05,135.985 99.16,135.845 C98.33,135.805 97.63,136.455 97.59,137.275 C97.55,138.105 98.19,138.805 99.02,138.845 C101.81,138.975 104.63,139.255 107.4,139.685 C107.48,139.695 107.56,139.705 107.64,139.705 C108.36,139.705 109,139.175 109.12,138.435 C109.24,137.615 108.68,136.855 107.86,136.725 L107.86,136.725 Z M147.46,158.015 C139.91,158.015 133.15,152.955 131.03,145.775 L130.93,145.365 L130.63,145.075 C129.11,143.555 123.51,140.065 113.24,137.745 C112.43,137.565 111.62,138.075 111.44,138.875 C111.26,139.685 111.77,140.485 112.57,140.675 C121.82,142.765 126.83,145.775 128.26,146.965 C130.9,155.255 138.73,161.015 147.46,161.015 C148.29,161.015 148.96,160.335 148.96,159.515 C148.96,158.685 148.29,158.015 147.46,158.015 L147.46,158.015 Z M232.33,187.345 C232.33,188.175 231.66,188.845 230.83,188.845 L222.16,188.845 C221.33,188.845 220.66,188.175 220.66,187.345 C220.66,186.515 221.33,185.845 222.16,185.845 L230.83,185.845 C231.66,185.845 232.33,186.515 232.33,187.345 L232.33,187.345 Z" id="Fill-58" fill="#42384B"></path>
    </g>
</svg>