<?xml version="1.0" encoding="UTF-8" standalone="no"?>
<svg width="236px" height="206px" viewBox="0 0 236 206" version="1.1" xmlns="http://www.w3.org/2000/svg" xmlns:xlink="http://www.w3.org/1999/xlink">
    <!-- Generator: Sketch 39.1 (31720) - http://www.bohemiancoding.com/sketch -->
    <title>Slice 1</title>
    <desc>Created with Sketch.</desc>
    <defs></defs>
    <g id="Page-1" stroke="none" stroke-width="1" fill="none" fill-rule="evenodd">
        <path d="M111.45,69.845 C109.729,69.845 108.33,71.244 108.33,72.965 L108.33,77.725 C108.33,79.446 109.729,80.845 111.45,80.845 C113.176,80.845 114.58,79.446 114.58,77.725 L114.58,72.965 C114.58,71.244 113.176,69.845 111.45,69.845 L111.45,69.845 Z M124.87,69.845 C123.149,69.845 121.75,71.244 121.75,72.965 L121.75,77.725 C121.75,79.446 123.149,80.845 124.87,80.845 C126.596,80.845 128,79.446 128,77.725 L128,72.965 C128,71.244 126.596,69.845 124.87,69.845 L124.87,69.845 Z M118.16,82.175 C117.223,82.175 116.46,82.933 116.46,83.865 L116.46,84.895 C116.46,85.832 117.223,86.595 118.16,86.595 C119.098,86.595 119.86,85.832 119.86,84.895 L119.86,83.865 C119.86,82.933 119.098,82.175 118.16,82.175 L118.16,82.175 Z M116.58,90.345 C108.585,90.345 102.08,83.84 102.08,75.845 C102.08,67.85 108.585,61.345 116.58,61.345 L119.75,61.345 C127.745,61.345 134.25,67.85 134.25,75.845 C134.25,83.84 127.745,90.345 119.75,90.345 L116.58,90.345 L116.58,90.345 Z" id="Fill-70" fill="#FCF0D4"></path>
        <path d="M104.12,144.015 C102.582,144.015 101.33,145.262 101.33,146.795 C101.33,148.333 102.582,149.585 104.12,149.585 C105.653,149.585 106.9,148.333 106.9,146.795 C106.9,145.262 105.653,144.015 104.12,144.015 L104.12,144.015 Z M104.12,155.085 C99.549,155.085 95.83,151.366 95.83,146.795 C95.83,142.23 99.549,138.515 104.12,138.515 C108.686,138.515 112.4,142.23 112.4,146.795 C112.4,151.366 108.686,155.085 104.12,155.085 L104.12,155.085 Z M132.21,144.015 C130.677,144.015 129.43,145.262 129.43,146.795 C129.43,148.333 130.677,149.585 132.21,149.585 C133.75,149.585 135,148.333 135,146.795 C135,145.262 133.75,144.015 132.21,144.015 L132.21,144.015 Z M132.21,155.085 C127.645,155.085 123.93,151.366 123.93,146.795 C123.93,142.23 127.645,138.515 132.21,138.515 C136.78,138.515 140.5,142.23 140.5,146.795 C140.5,151.366 136.78,155.085 132.21,155.085 L132.21,155.085 Z M84.07,148.615 C83.127,148.615 82.36,149.382 82.36,150.325 C82.36,151.262 83.127,152.025 84.07,152.025 C85.008,152.025 85.771,151.262 85.771,150.325 C85.771,149.382 85.008,148.615 84.07,148.615 L84.07,148.615 Z M84.07,155.555 C81.181,155.555 78.83,153.209 78.83,150.325 C78.83,147.436 81.181,145.085 84.07,145.085 C86.954,145.085 89.3,147.436 89.3,150.325 C89.3,153.209 86.954,155.555 84.07,155.555 L84.07,155.555 Z M152.26,148.615 C151.32,148.615 150.55,149.382 150.55,150.325 C150.55,151.262 151.32,152.025 152.26,152.025 C153.2,152.025 153.97,151.262 153.97,150.325 C153.97,149.382 153.2,148.615 152.26,148.615 L152.26,148.615 Z M152.26,155.555 C149.37,155.555 147.02,153.209 147.02,150.325 C147.02,147.436 149.37,145.085 152.26,145.085 C155.15,145.085 157.5,147.436 157.5,150.325 C157.5,153.209 155.15,155.555 152.26,155.555 L152.26,155.555 Z" id="Fill-71" fill="#FACD5D"></path>
        <path d="M74.95,36.845 C74.398,36.845 73.95,37.293 73.95,37.845 L73.95,55.595 C73.95,56.147 74.398,56.595 74.95,56.595 C75.502,56.595 75.95,56.147 75.95,55.595 L75.95,37.845 C75.95,37.293 75.502,36.845 74.95,36.845 L74.95,36.845 Z M161.38,36.845 C160.83,36.845 160.38,37.293 160.38,37.845 L160.38,55.595 C160.38,56.147 160.83,56.595 161.38,56.595 C161.93,56.595 162.38,56.147 162.38,55.595 L162.38,37.845 C162.38,37.293 161.93,36.845 161.38,36.845 L161.38,36.845 Z M96.33,43.225 C95.778,43.225 95.33,43.673 95.33,44.225 L95.33,61.965 C95.33,62.517 95.778,62.965 96.33,62.965 C96.882,62.965 97.33,62.517 97.33,61.965 L97.33,44.225 C97.33,43.673 96.882,43.225 96.33,43.225 L96.33,43.225 Z M140,43.225 C139.45,43.225 139,43.673 139,44.225 L139,61.965 C139,62.517 139.45,62.965 140,62.965 C140.55,62.965 141,62.517 141,61.965 L141,44.225 C141,43.673 140.55,43.225 140,43.225 L140,43.225 Z M82.58,75.595 C82.028,75.595 81.58,76.043 81.58,76.595 L81.58,90.175 C81.58,90.727 82.028,91.175 82.58,91.175 C83.132,91.175 83.58,90.727 83.58,90.175 L83.58,76.595 C83.58,76.043 83.132,75.595 82.58,75.595 L82.58,75.595 Z M153.75,75.595 C153.2,75.595 152.75,76.043 152.75,76.595 L152.75,90.175 C152.75,90.727 153.2,91.175 153.75,91.175 C154.29,91.175 154.75,90.717 154.75,90.175 L154.75,76.595 C154.75,76.043 154.3,75.595 153.75,75.595 L153.75,75.595 Z M113.059,91.956 C114.216,92.214 115.4,92.345 116.58,92.345 L117.08,92.345 L117.16,92.845 L117.16,110.095 C117.16,110.647 117.608,111.095 118.16,111.095 C118.712,111.095 119.16,110.647 119.16,110.095 L119.16,92.345 L119.66,92.345 C120.924,92.345 122.105,92.214 123.262,91.956 L123.87,91.821 L123.87,103.845 C123.87,104.397 124.318,104.845 124.87,104.845 C125.422,104.845 125.87,104.397 125.87,103.845 L125.87,91.174 L126.175,91.045 C132.295,88.442 136.25,82.476 136.25,75.845 C136.25,66.746 128.849,59.345 119.75,59.345 L116.58,59.345 C107.481,59.345 100.08,66.746 100.08,75.845 C100.08,82.478 104.031,88.445 110.146,91.045 L110.45,91.174 L110.45,103.845 C110.45,104.397 110.898,104.845 111.45,104.845 C112.002,104.845 112.45,104.397 112.45,103.845 L112.45,91.821 L113.059,91.956 L113.059,91.956 Z M96.33,105.845 C95.778,105.845 95.33,106.293 95.33,106.845 L95.33,120.425 C95.33,120.977 95.778,121.425 96.33,121.425 C96.882,121.425 97.33,120.977 97.33,120.425 L97.33,106.845 C97.33,106.293 96.882,105.845 96.33,105.845 L96.33,105.845 Z M140,105.845 C139.45,105.845 139,106.293 139,106.845 L139,120.425 C139,120.977 139.45,121.425 140,121.425 C140.54,121.425 141,120.967 141,120.425 L141,106.845 C141,106.293 140.55,105.845 140,105.845 L140,105.845 Z M61.83,52.095 C61.278,52.095 60.83,52.543 60.83,53.095 L60.83,136.805 C60.83,143.295 64.627,149.284 70.504,152.063 C70.647,152.131 70.794,152.165 70.94,152.165 C71.324,152.165 71.676,151.942 71.836,151.595 C72.077,151.094 71.863,150.496 71.363,150.255 C66.181,147.804 62.83,142.524 62.83,136.805 L62.83,53.095 C62.83,52.543 62.382,52.095 61.83,52.095 L61.83,52.095 Z M174.5,52.095 C173.95,52.095 173.5,52.543 173.5,53.095 L173.5,136.805 C173.5,142.524 170.15,147.804 164.96,150.257 C164.47,150.495 164.25,151.096 164.48,151.593 C164.65,151.939 165.01,152.165 165.39,152.165 C165.53,152.165 165.67,152.133 165.82,152.063 C171.7,149.282 175.5,143.292 175.5,136.805 L175.5,53.095 C175.5,52.543 175.05,52.095 174.5,52.095 L174.5,52.095 Z M155.91,161.675 L155.91,156.561 L156.14,156.413 C158.24,155.074 159.5,152.798 159.5,150.325 C159.5,147.833 158.23,145.546 156.11,144.208 L155.89,144.069 L155.88,143.806 C155.86,143.34 155.82,142.875 155.76,142.418 C154.81,134.965 148.43,129.345 140.91,129.345 L95.41,129.345 C87.31,129.345 80.733,135.696 80.44,143.804 L80.431,144.067 L80.208,144.207 C78.093,145.548 76.83,147.835 76.83,150.325 C76.83,152.802 78.082,155.077 80.179,156.413 L80.41,156.561 L80.41,161.675 L77.7,161.675 C63.986,161.675 52.83,150.519 52.83,136.805 L52.83,43.535 C52.83,36.907 55.418,30.661 60.116,25.951 C64.825,21.253 71.07,18.665 77.7,18.665 L87.33,18.665 L87.33,26.595 C87.33,27.147 87.778,27.595 88.33,27.595 C88.882,27.595 89.33,27.147 89.33,26.595 L89.33,18.665 L106.83,18.665 L106.83,26.595 C106.83,27.147 107.278,27.595 107.83,27.595 C108.382,27.595 108.83,27.147 108.83,26.595 L108.83,18.665 L127.5,18.665 L127.5,26.595 C127.5,27.147 127.948,27.595 128.5,27.595 C129.052,27.595 129.5,27.147 129.5,26.595 L129.5,18.665 L147,18.665 L147,26.595 C147,27.147 147.45,27.595 148,27.595 C148.55,27.595 149,27.147 149,26.595 L149,18.665 L158.62,18.665 C172.34,18.665 183.5,29.822 183.5,43.535 L183.5,136.805 C183.5,150.519 172.34,161.675 158.62,161.675 L155.91,161.675 L155.91,161.675 Z M104.12,136.515 C98.446,136.515 93.83,141.126 93.83,146.795 C93.83,152.469 98.446,157.085 104.12,157.085 C109.789,157.085 114.4,152.469 114.4,146.795 C114.4,141.126 109.789,136.515 104.12,136.515 L104.12,136.515 Z M132.21,136.515 C126.541,136.515 121.93,141.126 121.93,146.795 C121.93,152.469 126.541,157.085 132.21,157.085 C137.88,157.085 142.5,152.469 142.5,146.795 C142.5,141.126 137.88,136.515 132.21,136.515 L132.21,136.515 Z M93.16,159.425 C92.618,159.425 92.16,159.883 92.16,160.425 C92.16,163.871 94.964,166.675 98.41,166.675 L137.91,166.675 C141.36,166.675 144.16,163.871 144.16,160.425 C144.16,159.873 143.71,159.425 143.16,159.425 C142.61,159.425 142.16,159.873 142.16,160.425 C142.16,162.769 140.25,164.675 137.91,164.675 L98.41,164.675 C96.066,164.675 94.16,162.769 94.16,160.425 C94.16,159.873 93.712,159.425 93.16,159.425 L93.16,159.425 Z M135.11,175.225 L135.14,174.692 C135.27,172.739 135.21,171.18 135.16,170.425 C135.12,169.887 134.67,169.485 134.15,169.485 L134.04,169.485 C133.82,169.502 133.58,169.625 133.4,169.828 C133.23,170.032 133.15,170.289 133.17,170.552 C133.21,171.209 133.27,172.815 133.13,174.762 L133.09,175.225 L126.538,175.225 L126.582,174.685 C126.712,173.066 126.675,171.959 126.662,171.809 C126.635,171.259 126.187,170.844 125.639,170.844 C125.05,170.877 124.633,171.342 124.659,171.901 C124.673,172.293 124.688,173.3 124.568,174.766 L124.531,175.225 L111.799,175.225 L111.762,174.766 C111.637,173.235 111.652,172.202 111.66,171.922 C111.693,171.349 111.271,170.877 110.72,170.844 C110.153,170.844 109.694,171.268 109.669,171.789 C109.655,171.958 109.617,173.059 109.739,174.688 L109.779,175.225 L103.224,175.225 L103.191,174.759 C103.057,172.817 103.124,171.21 103.158,170.61 C103.201,170.005 102.79,169.523 102.244,169.484 L102.226,169.484 C101.644,169.484 101.207,169.892 101.168,170.394 C101.079,171.752 101.084,173.262 101.179,174.692 L101.214,175.225 L95.41,175.225 C88.242,175.225 82.41,169.393 82.41,162.225 L82.41,157.396 L82.976,157.469 C83.314,157.514 83.682,157.555 84.07,157.555 C88.057,157.555 91.3,154.312 91.3,150.325 C91.3,146.333 88.057,143.085 84.07,143.085 C83.763,143.085 83.45,143.11 83.114,143.159 L82.455,143.258 L82.545,142.598 C83.418,136.183 88.948,131.345 95.41,131.345 L140.91,131.345 C147.38,131.345 152.91,136.183 153.79,142.598 L153.88,143.258 L153.22,143.159 C152.88,143.11 152.57,143.085 152.26,143.085 C148.27,143.085 145.02,146.333 145.02,150.325 C145.02,154.312 148.27,157.555 152.26,157.555 C152.57,157.555 152.9,157.529 153.34,157.47 L153.91,157.394 L153.91,162.225 C153.91,163.529 153.71,164.826 153.33,166.082 C151.62,171.551 146.63,175.225 140.91,175.225 L135.11,175.225 L135.11,175.225 Z M9.58,203.345 L9.58,198.175 L12.66,198.175 C13.212,198.175 13.66,197.727 13.66,197.175 C13.66,196.623 13.212,196.175 12.66,196.175 L9.58,196.175 L9.58,155.949 L50.822,136.205 L50.83,136.991 C50.859,139.89 51.342,142.738 52.264,145.453 L52.361,145.742 L50.887,147.267 L19.58,162.241 L19.58,203.345 L9.58,203.345 L9.58,203.345 Z M35.08,203.345 L35.08,198.175 L38,198.175 C38.552,198.175 39,197.727 39,197.175 C39,196.623 38.552,196.175 38,196.175 L35.08,196.175 L35.08,166.311 L53.171,147.785 L53.48,148.428 C54.793,151.15 56.54,153.617 58.675,155.762 L59.022,156.112 L45.08,170.379 L45.08,203.345 L35.08,203.345 L35.08,203.345 Z M57.83,203.345 L57.83,198.175 L60.45,198.175 C61.002,198.175 61.45,197.727 61.45,197.175 C61.45,196.633 60.992,196.175 60.45,196.175 L57.83,196.175 L57.83,176.244 L68.096,161.905 L68.453,162.035 C71.413,163.123 74.524,163.675 77.7,163.675 L79.123,163.675 L67.83,179.446 L67.83,203.345 L57.83,203.345 L57.83,203.345 Z M168.5,203.345 L168.5,179.446 L157.21,163.675 L158.62,163.675 C161.8,163.675 164.92,163.123 167.88,162.035 L168.23,161.905 L178.5,176.244 L178.5,196.175 L175.88,196.175 C175.33,196.175 174.88,196.623 174.88,197.175 C174.88,197.727 175.33,198.175 175.88,198.175 L178.5,198.175 L178.5,203.345 L168.5,203.345 L168.5,203.345 Z M191.25,203.345 L191.25,170.379 L177.31,156.113 L177.65,155.763 C179.8,153.599 181.55,151.131 182.85,148.428 L183.16,147.793 L183.95,148.591 L201.25,166.312 L201.25,196.175 L198.33,196.175 C197.78,196.175 197.33,196.623 197.33,197.175 C197.33,197.727 197.78,198.175 198.33,198.175 L201.25,198.175 L201.25,203.345 L191.25,203.345 L191.25,203.345 Z M216.75,203.345 L216.75,162.241 L192.91,150.846 L185.44,147.268 L183.96,145.743 L184.06,145.452 C184.99,142.739 185.47,139.892 185.49,136.992 L185.5,136.204 L226.75,155.949 L226.75,196.175 L223.66,196.175 C223.11,196.175 222.66,196.623 222.66,197.175 C222.66,197.727 223.11,198.175 223.66,198.175 L226.75,198.175 L226.75,203.345 L216.75,203.345 L216.75,203.345 Z" id="Fill-72" fill="#A68A78"></path>
        <path d="M70.29,152.515 C70.5,152.615 70.72,152.665 70.94,152.665 C71.5,152.665 72.04,152.345 72.29,151.805 C72.65,151.055 72.33,150.165 71.58,149.805 C66.57,147.435 63.33,142.335 63.33,136.805 L63.33,53.095 C63.33,52.265 62.66,51.595 61.83,51.595 C61,51.595 60.33,52.265 60.33,53.095 L60.33,136.805 C60.33,143.485 64.24,149.655 70.29,152.515 L70.29,152.515 Z M226.25,156.265 L185.99,136.995 C185.97,140.015 185.46,142.905 184.53,145.615 L185.74,146.855 L193.13,150.395 L217.25,161.925 L217.25,202.845 L226.25,202.845 L226.25,198.675 L223.66,198.675 C222.83,198.675 222.16,198.005 222.16,197.175 C222.16,196.355 222.83,195.675 223.66,195.675 L226.25,195.675 L226.25,156.265 L226.25,156.265 Z M214.25,163.825 L191.84,153.095 L203.75,165.285 L203.75,202.845 L214.25,202.845 L214.25,163.825 L214.25,163.825 Z M200.75,198.675 L198.33,198.675 C197.5,198.675 196.83,198.005 196.83,197.175 C196.83,196.355 197.5,195.675 198.33,195.675 L200.75,195.675 L200.75,166.515 L183.6,148.945 L183.3,148.645 C181.96,151.425 180.16,153.945 178.01,156.115 L191.75,170.175 L191.75,202.845 L200.75,202.845 L200.75,198.675 L200.75,198.675 Z M188.75,171.405 L175.77,158.115 C174.26,159.335 172.61,160.395 170.86,161.275 L181,175.435 L181,202.845 L188.75,202.845 L188.75,171.405 L188.75,171.405 Z M178,176.405 L168.05,162.505 C165.11,163.585 161.93,164.175 158.62,164.175 L158.18,164.175 L169,179.285 L169,202.845 L178,202.845 L178,198.675 L175.88,198.675 C175.05,198.675 174.38,198.005 174.38,197.175 C174.38,196.355 175.05,195.675 175.88,195.675 L178,195.675 L178,176.405 L178,176.405 Z M166,180.255 L155.89,166.135 C155.84,166.345 155.78,166.545 155.71,166.755 C153.77,173.085 147.88,177.725 140.91,177.725 L135.3,177.725 C134.92,180.015 134.2,182.435 132.9,184.355 C132.61,184.785 132.14,185.015 131.66,185.015 C131.37,185.015 131.08,184.925 130.82,184.755 C130.13,184.285 129.96,183.355 130.42,182.665 C131.36,181.285 131.92,179.495 132.25,177.725 L126.72,177.725 C126.35,179.955 125.71,182.625 124.55,185.415 C124.311,185.995 123.75,186.345 123.16,186.345 C122.97,186.345 122.78,186.305 122.59,186.235 C121.82,185.915 121.46,185.035 121.78,184.275 C122.75,181.925 123.33,179.655 123.67,177.725 L112.66,177.725 C113,179.665 113.58,181.925 114.55,184.275 C114.87,185.035 114.5,185.915 113.74,186.235 C113.55,186.305 113.36,186.345 113.16,186.345 C112.58,186.345 112.021,185.995 111.78,185.415 C110.62,182.625 109.97,179.955 109.61,177.725 L104.07,177.725 C104.41,179.495 104.96,181.285 105.91,182.665 C106.37,183.355 106.19,184.285 105.51,184.755 C105.25,184.925 104.96,185.015 104.66,185.015 C104.19,185.015 103.71,184.785 103.42,184.355 C102.12,182.435 101.41,180.015 101.03,177.725 L95.41,177.725 C88.22,177.725 82.18,172.785 80.43,166.135 L70.33,180.255 L70.33,202.845 L128.46,202.845 L133.19,199.555 L134.87,200.595 L138.51,202.845 L166,202.845 L166,180.255 L166,180.255 Z M67.33,179.285 L78.15,164.175 L77.7,164.175 C74.39,164.175 71.22,163.585 68.28,162.505 L58.33,176.405 L58.33,195.675 L60.45,195.675 C61.271,195.675 61.95,196.355 61.95,197.175 C61.95,198.005 61.271,198.675 60.45,198.675 L58.33,198.675 L58.33,202.845 L67.33,202.845 L67.33,179.285 L67.33,179.285 Z M55.33,175.435 L65.46,161.275 C63.71,160.395 62.07,159.335 60.55,158.115 L47.58,171.405 L47.58,202.845 L55.33,202.845 L55.33,175.435 L55.33,175.435 Z M44.58,170.175 L58.32,156.115 C56.16,153.945 54.37,151.425 53.03,148.645 L35.58,166.515 L35.58,195.675 L38,195.675 C38.83,195.675 39.5,196.355 39.5,197.175 C39.5,198.005 38.83,198.675 38,198.675 L35.58,198.675 L35.58,202.845 L44.58,202.845 L44.58,170.175 L44.58,170.175 Z M32.58,165.285 L44.49,153.095 L22.08,163.825 L22.08,202.845 L32.58,202.845 L32.58,165.285 L32.58,165.285 Z M19.08,161.925 L50.59,146.855 L51.79,145.615 C50.87,142.905 50.36,140.015 50.33,136.995 L10.08,156.265 L10.08,195.675 L12.66,195.675 C13.49,195.675 14.16,196.355 14.16,197.175 C14.16,198.005 13.49,198.675 12.66,198.675 L10.08,198.675 L10.08,202.845 L19.08,202.845 L19.08,161.925 L19.08,161.925 Z M157,150.325 C157,147.705 154.87,145.585 152.26,145.585 C149.65,145.585 147.52,147.705 147.52,150.325 C147.52,152.935 149.65,155.055 152.26,155.055 C154.87,155.055 157,152.935 157,150.325 L157,150.325 Z M84.07,155.055 C86.68,155.055 88.8,152.935 88.8,150.325 C88.8,147.705 86.68,145.585 84.07,145.585 C81.45,145.585 79.33,147.705 79.33,150.325 C79.33,152.935 81.45,155.055 84.07,155.055 L84.07,155.055 Z M135.64,174.725 L140.91,174.725 C146.51,174.725 151.26,171.025 152.85,165.935 C153.21,164.765 153.41,163.515 153.41,162.225 L153.41,157.965 C153.04,158.015 152.65,158.055 152.26,158.055 C147.99,158.055 144.52,154.585 144.52,150.325 C144.52,146.055 147.99,142.585 152.26,142.585 C152.61,142.585 152.95,142.615 153.29,142.665 C152.46,136.565 147.23,131.845 140.91,131.845 L95.41,131.845 C89.09,131.845 83.87,136.565 83.04,142.665 C83.38,142.615 83.72,142.585 84.07,142.585 C88.33,142.585 91.8,146.055 91.8,150.325 C91.8,154.585 88.33,158.055 84.07,158.055 C83.67,158.055 83.29,158.015 82.91,157.965 L82.91,162.225 C82.91,169.115 88.521,174.725 95.41,174.725 L100.68,174.725 C100.521,172.325 100.66,170.525 100.67,170.355 C100.73,169.575 101.4,168.975 102.16,168.975 C102.2,168.975 102.24,168.985 102.28,168.985 C103.11,169.045 103.72,169.775 103.66,170.595 C103.66,170.635 103.53,172.415 103.69,174.725 L109.24,174.725 C109.11,172.985 109.16,171.875 109.17,171.765 C109.21,170.935 109.94,170.315 110.75,170.345 C111.57,170.395 112.21,171.095 112.16,171.925 C112.16,171.945 112.12,173.015 112.26,174.725 L124.07,174.725 C124.21,173.015 124.16,171.955 124.16,171.925 C124.12,171.095 124.75,170.395 125.58,170.345 C126.41,170.315 127.12,170.935 127.16,171.765 C127.17,171.875 127.22,172.985 127.08,174.725 L132.63,174.725 C132.8,172.415 132.67,170.635 132.67,170.595 C132.6,169.775 133.22,169.045 134.04,168.985 L134.15,168.985 C134.93,168.985 135.59,169.575 135.66,170.355 C135.67,170.525 135.8,172.325 135.64,174.725 L135.64,174.725 Z M53.33,136.805 C53.33,150.245 64.26,161.175 77.7,161.175 L79.91,161.175 L79.91,156.835 C77.76,155.465 76.33,153.055 76.33,150.325 C76.33,147.575 77.78,145.155 79.94,143.785 C80.24,135.505 87.061,128.845 95.41,128.845 L140.91,128.845 C148.78,128.845 155.29,134.745 156.26,142.355 C156.32,142.825 156.36,143.305 156.38,143.785 C158.55,145.155 160,147.575 160,150.325 C160,153.055 158.56,155.465 156.41,156.835 L156.41,161.175 L158.62,161.175 C172.06,161.175 183,150.245 183,136.805 L183,43.535 C183,30.095 172.06,19.165 158.62,19.165 L149.5,19.165 L149.5,26.595 C149.5,27.425 148.82,28.095 148,28.095 C147.17,28.095 146.5,27.425 146.5,26.595 L146.5,19.165 L130,19.165 L130,26.595 C130,27.425 129.32,28.095 128.5,28.095 C127.67,28.095 127,27.425 127,26.595 L127,19.165 L109.33,19.165 L109.33,26.595 C109.33,27.425 108.66,28.095 107.83,28.095 C107,28.095 106.33,27.425 106.33,26.595 L106.33,19.165 L89.83,19.165 L89.83,26.595 C89.83,27.425 89.16,28.095 88.33,28.095 C87.5,28.095 86.83,27.425 86.83,26.595 L86.83,19.165 L77.7,19.165 C70.98,19.165 64.89,21.895 60.47,26.305 C56.061,30.725 53.33,36.815 53.33,43.535 L53.33,136.805 L53.33,136.805 Z M235.66,204.345 C235.66,205.175 234.99,205.845 234.16,205.845 L137.65,205.845 L133.29,203.145 L129.4,205.845 L2.16,205.845 C1.33,205.845 0.66,205.175 0.66,204.345 C0.66,203.515 1.33,202.845 2.16,202.845 L7.08,202.845 L7.08,154.365 L50.33,133.675 L50.33,43.535 C50.33,35.985 53.4,29.145 58.36,24.195 C63.311,19.235 70.15,16.165 77.7,16.165 L86.83,16.165 L86.83,8.845 C86.83,8.015 87.5,7.345 88.33,7.345 C89.16,7.345 89.83,8.015 89.83,8.845 L89.83,16.165 L106.33,16.165 L106.33,2.095 C106.33,1.265 107,0.595 107.83,0.595 C108.66,0.595 109.33,1.265 109.33,2.095 L109.33,16.165 L127,16.165 L127,2.095 C127,1.265 127.67,0.595 128.5,0.595 C129.32,0.595 130,1.265 130,2.095 L130,16.165 L146.5,16.165 L146.5,8.845 C146.5,8.015 147.17,7.345 148,7.345 C148.82,7.345 149.5,8.015 149.5,8.845 L149.5,16.165 L158.62,16.165 C173.72,16.165 186,28.445 186,43.535 L186,133.675 L229.25,154.365 L229.25,202.845 L234.16,202.845 C234.99,202.845 235.66,203.515 235.66,204.345 L235.66,204.345 Z M74.95,57.095 C75.78,57.095 76.45,56.425 76.45,55.595 L76.45,37.845 C76.45,37.015 75.78,36.345 74.95,36.345 C74.12,36.345 73.45,37.015 73.45,37.845 L73.45,55.595 C73.45,56.425 74.12,57.095 74.95,57.095 L74.95,57.095 Z M82.58,91.675 C83.41,91.675 84.08,90.995 84.08,90.175 L84.08,76.595 C84.08,75.765 83.41,75.095 82.58,75.095 C81.75,75.095 81.08,75.765 81.08,76.595 L81.08,90.175 C81.08,90.995 81.75,91.675 82.58,91.675 L82.58,91.675 Z M86.271,150.325 C86.271,149.105 85.29,148.115 84.07,148.115 C82.85,148.115 81.86,149.105 81.86,150.325 C81.86,151.535 82.85,152.525 84.07,152.525 C85.29,152.525 86.271,151.535 86.271,150.325 L86.271,150.325 Z M96.33,146.795 C96.33,151.085 99.82,154.585 104.12,154.585 C108.41,154.585 111.9,151.085 111.9,146.795 C111.9,142.505 108.41,139.015 104.12,139.015 C99.82,139.015 96.33,142.505 96.33,146.795 L96.33,146.795 Z M93.33,146.795 C93.33,140.845 98.17,136.015 104.12,136.015 C110.061,136.015 114.9,140.845 114.9,146.795 C114.9,152.745 110.061,157.585 104.12,157.585 C98.17,157.585 93.33,152.745 93.33,146.795 L93.33,146.795 Z M96.33,63.465 C97.16,63.465 97.83,62.795 97.83,61.965 L97.83,44.225 C97.83,43.395 97.16,42.725 96.33,42.725 C95.5,42.725 94.83,43.395 94.83,44.225 L94.83,61.965 C94.83,62.795 95.5,63.465 96.33,63.465 L96.33,63.465 Z M96.33,121.925 C97.16,121.925 97.83,121.245 97.83,120.425 L97.83,106.845 C97.83,106.015 97.16,105.345 96.33,105.345 C95.5,105.345 94.83,106.015 94.83,106.845 L94.83,120.425 C94.83,121.245 95.5,121.925 96.33,121.925 L96.33,121.925 Z M144.66,160.425 C144.66,159.605 143.99,158.925 143.16,158.925 C142.33,158.925 141.66,159.605 141.66,160.425 C141.66,162.495 139.98,164.175 137.91,164.175 L98.41,164.175 C96.35,164.175 94.66,162.495 94.66,160.425 C94.66,159.605 93.99,158.925 93.16,158.925 C92.34,158.925 91.66,159.605 91.66,160.425 C91.66,164.155 94.69,167.175 98.41,167.175 L137.91,167.175 C141.63,167.175 144.66,164.155 144.66,160.425 L144.66,160.425 Z M104.12,150.085 C105.93,150.085 107.4,148.615 107.4,146.795 C107.4,144.985 105.93,143.515 104.12,143.515 C102.3,143.515 100.83,144.985 100.83,146.795 C100.83,148.615 102.3,150.085 104.12,150.085 L104.12,150.085 Z M102.58,75.845 C102.58,83.565 108.86,89.845 116.58,89.845 L119.75,89.845 C127.47,89.845 133.75,83.565 133.75,75.845 C133.75,68.125 127.47,61.845 119.75,61.845 L116.58,61.845 C108.86,61.845 102.58,68.125 102.58,75.845 L102.58,75.845 Z M99.58,75.845 C99.58,66.475 107.21,58.845 116.58,58.845 L119.75,58.845 C129.12,58.845 136.75,66.475 136.75,75.845 C136.75,82.875 132.46,88.915 126.37,91.505 L126.37,103.845 C126.37,104.675 125.7,105.345 124.87,105.345 C124.04,105.345 123.37,104.675 123.37,103.845 L123.37,92.445 C122.2,92.705 120.99,92.845 119.75,92.845 L119.66,92.845 L119.66,110.095 C119.66,110.925 118.99,111.595 118.16,111.595 C117.33,111.595 116.66,110.925 116.66,110.095 L116.66,92.845 L116.58,92.845 C115.33,92.845 114.12,92.705 112.95,92.445 L112.95,103.845 C112.95,104.675 112.28,105.345 111.45,105.345 C110.63,105.345 109.95,104.675 109.95,103.845 L109.95,91.505 C103.86,88.915 99.58,82.875 99.58,75.845 L99.58,75.845 Z M111.45,81.345 C113.46,81.345 115.08,79.725 115.08,77.725 L115.08,72.965 C115.08,70.965 113.46,69.345 111.45,69.345 C109.45,69.345 107.83,70.965 107.83,72.965 L107.83,77.725 C107.83,79.725 109.45,81.345 111.45,81.345 L111.45,81.345 Z M118.16,87.095 C119.38,87.095 120.36,86.115 120.36,84.895 L120.36,83.865 C120.36,82.655 119.38,81.675 118.16,81.675 C116.95,81.675 115.96,82.655 115.96,83.865 L115.96,84.895 C115.96,86.115 116.95,87.095 118.16,87.095 L118.16,87.095 Z M124.43,146.795 C124.43,151.085 127.92,154.585 132.21,154.585 C136.5,154.585 140,151.085 140,146.795 C140,142.505 136.5,139.015 132.21,139.015 C127.92,139.015 124.43,142.505 124.43,146.795 L124.43,146.795 Z M121.43,146.795 C121.43,140.845 126.26,136.015 132.21,136.015 C138.16,136.015 143,140.845 143,146.795 C143,152.745 138.16,157.585 132.21,157.585 C126.26,157.585 121.43,152.745 121.43,146.795 L121.43,146.795 Z M124.87,81.345 C126.87,81.345 128.5,79.725 128.5,77.725 L128.5,72.965 C128.5,70.965 126.87,69.345 124.87,69.345 C122.87,69.345 121.25,70.965 121.25,72.965 L121.25,77.725 C121.25,79.725 122.87,81.345 124.87,81.345 L124.87,81.345 Z M132.21,150.085 C134.02,150.085 135.5,148.615 135.5,146.795 C135.5,144.985 134.02,143.515 132.21,143.515 C130.4,143.515 128.93,144.985 128.93,146.795 C128.93,148.615 130.4,150.085 132.21,150.085 L132.21,150.085 Z M140,63.465 C140.82,63.465 141.5,62.795 141.5,61.965 L141.5,44.225 C141.5,43.395 140.82,42.725 140,42.725 C139.17,42.725 138.5,43.395 138.5,44.225 L138.5,61.965 C138.5,62.795 139.17,63.465 140,63.465 L140,63.465 Z M140,121.925 C140.82,121.925 141.5,121.245 141.5,120.425 L141.5,106.845 C141.5,106.015 140.82,105.345 140,105.345 C139.17,105.345 138.5,106.015 138.5,106.845 L138.5,120.425 C138.5,121.245 139.17,121.925 140,121.925 L140,121.925 Z M152.26,148.115 C151.04,148.115 150.05,149.105 150.05,150.325 C150.05,151.535 151.04,152.525 152.26,152.525 C153.48,152.525 154.47,151.535 154.47,150.325 C154.47,149.105 153.48,148.115 152.26,148.115 L152.26,148.115 Z M153.75,91.675 C154.57,91.675 155.25,90.995 155.25,90.175 L155.25,76.595 C155.25,75.765 154.57,75.095 153.75,75.095 C152.92,75.095 152.25,75.765 152.25,76.595 L152.25,90.175 C152.25,90.995 152.92,91.675 153.75,91.675 L153.75,91.675 Z M161.38,57.095 C162.21,57.095 162.88,56.425 162.88,55.595 L162.88,37.845 C162.88,37.015 162.21,36.345 161.38,36.345 C160.55,36.345 159.88,37.015 159.88,37.845 L159.88,55.595 C159.88,56.425 160.55,57.095 161.38,57.095 L161.38,57.095 Z M164.03,151.805 C163.68,151.055 164,150.165 164.75,149.805 C169.76,147.435 173,142.335 173,136.805 L173,53.095 C173,52.265 173.67,51.595 174.5,51.595 C175.33,51.595 176,52.265 176,53.095 L176,136.805 C176,143.485 172.08,149.655 166.03,152.515 C165.82,152.615 165.61,152.665 165.39,152.665 C164.83,152.665 164.29,152.345 164.03,151.805 L164.03,151.805 Z" id="Fill-73" fill="#42384B"></path>
    </g>
</svg>