<?xml version="1.0" encoding="UTF-8" standalone="no"?>
<svg width="234px" height="219px" viewBox="0 0 234 219" version="1.1" xmlns="http://www.w3.org/2000/svg" xmlns:xlink="http://www.w3.org/1999/xlink">
    <!-- Generator: Sketch 39.1 (31720) - http://www.bohemiancoding.com/sketch -->
    <title>Slice 1</title>
    <desc>Created with Sketch.</desc>
    <defs></defs>
    <g id="Page-1" stroke="none" stroke-width="1" fill="none" fill-rule="evenodd">
        <path d="M117.21,148.813 C111.195,148.813 105.834,146.493 103.221,142.759 C102.351,141.525 101.774,139.786 101.641,137.99 C101.54,136.474 101.77,135.095 102.287,134.102 C102.815,133.08 103.589,132.583 104.65,132.583 L105.65,132.583 L105.65,138.333 C105.65,138.884 106.099,139.333 106.65,139.333 L114.15,139.333 C114.702,139.333 115.15,138.884 115.15,138.333 L115.15,132.583 L129.77,132.583 C130.831,132.583 131.604,133.08 132.135,134.103 C132.65,135.094 132.88,136.473 132.779,137.986 C132.646,139.786 132.069,141.525 131.198,142.761 C128.586,146.493 123.225,148.813 117.21,148.813" id="Fill-18" fill="#DB807E"></path>
        <polygon id="Fill-19" fill="#FFFFFF" points="107.65 137.333 113.15 137.333 113.15 132.583 107.65 132.583"></polygon>
        <path d="M78.88,114.493 C76.95,114.493 75.38,116.063 75.38,117.993 C75.38,119.922 76.95,121.493 78.88,121.493 C80.81,121.493 82.38,119.922 82.38,117.993 C82.38,116.063 80.81,114.493 78.88,114.493 L78.88,114.493 Z M74.88,139.333 C69.179,139.333 64.54,134.694 64.54,128.993 L64.54,106.55 L64.884,106.438 C70.945,104.45 77.181,102.491 83.415,100.613 L83.811,100.495 L84.002,100.86 C84.804,102.387 85.21,104.002 85.21,105.663 L85.21,128.993 C85.21,134.694 80.576,139.333 74.88,139.333 L74.88,139.333 Z M155.54,114.493 C153.61,114.493 152.04,116.063 152.04,117.993 C152.04,119.922 153.61,121.493 155.54,121.493 C157.47,121.493 159.04,119.922 159.04,117.993 C159.04,116.063 157.47,114.493 155.54,114.493 L155.54,114.493 Z M159.54,139.333 C153.844,139.333 149.21,134.694 149.21,128.993 L149.21,105.663 C149.21,99.967 153.844,95.333 159.54,95.333 C165.241,95.333 169.88,99.967 169.88,105.663 L169.88,128.993 C169.88,134.694 165.241,139.333 159.54,139.333 L159.54,139.333 Z" id="Fill-20" fill="#F3B130"></path>
        <path d="M63.238,62.184 C56.886,61 51.954,59.835 48.937,59.067 L48.098,58.854 L48.701,58.234 C49.052,57.874 49.412,57.534 49.793,57.204 C56.422,51.356 66.756,48.504 85.46,47.363 L85.688,48.322 C74.728,53.026 66.63,59.504 63.657,62.071 L63.475,62.228 L63.238,62.184 L63.238,62.184 Z M159.54,93.333 C152.741,93.333 147.21,98.864 147.21,105.663 L147.21,128.993 C147.21,135.797 152.741,141.333 159.54,141.333 C166.345,141.333 171.88,135.797 171.88,128.993 L171.88,105.663 C171.88,98.864 166.345,93.333 159.54,93.333 L159.54,93.333 Z M128.17,148.09 C130.114,146.964 131.686,145.556 132.84,143.906 C133.932,142.348 134.631,140.204 134.761,138.023 C134.88,136.173 134.58,134.456 133.917,133.184 C133.024,131.482 131.59,130.583 129.77,130.583 L104.65,130.583 C102.854,130.583 101.384,131.506 100.514,133.183 C99.843,134.452 99.54,136.168 99.659,138.021 C99.788,140.203 100.488,142.347 101.579,143.906 C102.533,145.27 103.774,146.472 105.27,147.478 L106.808,148.513 L104.957,148.392 C94.3,147.691 83.583,146.414 73.104,144.595 L71.809,144.364 C53.532,141.093 41.369,137.131 38.077,135.995 L37.75,135.882 L37.74,135.536 C37.605,130.493 37.54,124.755 37.54,117.993 L37.55,116.255 L37.862,116.128 C40.71,114.979 48.749,111.832 61.882,107.438 L62.54,107.218 L62.54,128.993 C62.54,134.826 66.687,139.911 72.4,141.083 C73.209,141.249 74.044,141.333 74.88,141.333 C81.679,141.333 87.21,135.797 87.21,128.993 L87.21,105.663 C87.21,103.844 86.818,102.085 86.047,100.435 L85.801,99.908 L86.357,99.743 C104.972,94.223 124.825,89.042 145.369,84.345 C148.681,83.595 152.063,82.834 155.514,82.084 L155.603,82.065 L155.692,82.078 C157.919,82.405 177.968,85.58 196.264,96.372 L196.497,96.51 L196.51,96.781 C196.762,102.585 196.88,109.325 196.88,117.993 C196.88,126.625 196.775,133.67 196.56,139.531 L196.546,139.902 L196.187,139.997 C182.111,143.688 167.449,146.287 152.607,147.72 C144.707,148.479 136.571,148.917 128.427,149.022 L126.516,149.047 L128.17,148.09 L128.17,148.09 Z M144.105,203.636 C143.332,200.606 142.843,197.323 142.651,193.88 L142.582,192.646 L151.801,201.175 L151.118,201.487 C149.107,202.407 146.965,203.249 144.748,203.987 L144.238,204.157 L144.105,203.636 L144.105,203.636 Z" id="Fill-21" fill="#48A4A3"></path>
        <path d="M109.105,44.613 C99.914,39.171 94.303,30.832 92.427,19.827 C91.916,16.792 91.705,13.643 91.8,10.468 L92.75,10.266 C95.346,15.657 99.517,19.285 99.983,19.681 C100.162,19.831 100.391,19.914 100.626,19.914 C100.755,19.914 100.881,19.889 101,19.84 C101.341,19.707 101.583,19.385 101.623,19.018 C101.823,17.095 102.851,14.618 104.674,11.66 L105.599,11.948 C105.267,18.405 106.709,24.525 109.886,30.136 C110.437,31.111 111.017,32.037 111.61,32.886 L112.159,33.672 L107.73,33.672 C107.179,33.672 106.73,34.121 106.73,34.672 C106.73,35.224 107.179,35.672 107.73,35.672 L113.74,35.672 L113.89,35.848 C115.508,37.741 116.971,39.085 117.912,39.88 L118.248,40.164 L118.011,40.533 C117.252,41.714 116.478,42.983 115.642,44.415 L115.497,44.663 L115.21,44.663 C113.211,44.663 111.262,44.672 109.363,44.683 L109.225,44.683 L109.105,44.613 L109.105,44.613 Z M137.848,44.882 C132.503,44.743 126.415,44.673 118.689,44.663 L117.808,44.662 L118.262,43.905 C127.28,28.874 136.439,22.46 148.889,22.46 C153.87,22.46 159.039,23.413 164.511,24.421 C169.45,25.327 174.559,26.265 180.01,26.583 C180.377,26.604 180.741,26.615 181.104,26.615 C188.08,26.615 194.049,22.811 197.828,19.621 L199.093,18.552 L198.631,20.142 C197.859,22.792 196.736,24.692 195.293,25.791 C194.993,26.017 194.848,26.403 194.921,26.777 C194.995,27.154 195.268,27.451 195.632,27.55 C198.111,28.225 203.625,30.068 206.734,32.221 L207.26,32.585 L206.781,33.007 C205.518,34.121 202.833,35.767 197.211,37.286 C195.326,37.791 193.423,38.036 191.39,38.036 C184.555,38.036 177.331,35.153 168.967,31.815 C167.854,31.367 166.745,30.927 165.606,30.478 C161.859,28.997 158.72,28.277 156.007,28.277 C151.712,28.277 148.461,30.024 145.139,34.118 L144.988,34.303 L139.73,34.303 C139.179,34.303 138.73,34.751 138.73,35.303 C138.73,35.854 139.179,36.303 139.73,36.303 L143.488,36.303 L142.965,37.082 C142.578,37.656 142.182,38.261 141.795,38.886 L141.648,39.123 L133.79,39.123 C133.238,39.123 132.79,39.571 132.79,40.123 C132.79,40.674 133.238,41.123 133.79,41.123 L140.413,41.123 L139.945,41.884 C139.627,42.403 139.308,42.931 138.979,43.48 L138.141,44.89 L137.848,44.882 L137.848,44.882 Z M102.563,66.622 C91.079,66.214 79.156,64.958 67.125,62.885 L66.025,62.696 L66.898,62.001 C72.118,57.852 82.806,50.376 95.741,46.93 L95.798,46.915 L95.855,46.913 C101.789,46.745 108.773,46.663 117.21,46.663 C137.204,46.663 149.183,47.101 158.557,48.176 L158.612,49.16 C142.471,52.889 123.678,58.753 102.756,66.591 L102.662,66.626 L102.563,66.622 L102.563,66.622 Z M195.585,93.668 C183.535,86.886 171.259,83.275 163.081,81.44 L163.087,80.463 C166.698,79.703 170.381,78.943 174.121,78.192 C180.342,76.948 186.845,75.706 193.45,74.501 L193.921,74.415 L194.027,74.881 C194.736,77.982 195.292,81.481 195.728,85.58 C195.957,87.764 196.154,90.258 196.329,93.203 L196.384,94.118 L195.585,93.668 L195.585,93.668 Z M38.081,93.434 C38.589,84.668 39.484,78.131 40.896,72.863 C42.214,67.921 44.031,63.975 46.452,60.799 L46.655,60.533 L46.979,60.62 C52.239,62.023 71.296,66.724 95.652,68.284 L95.801,69.249 C90.16,71.433 84.596,73.665 79.263,75.884 C59.617,84.006 44.42,91.198 38.798,93.913 L38.031,94.283 L38.081,93.434 L38.081,93.434 Z M158.903,58.394 C158.812,58.394 158.72,58.407 158.63,58.433 C155.734,59.26 149.754,61.633 149.695,61.657 C149.185,61.856 148.936,62.436 149.136,62.951 C149.283,63.329 149.659,63.583 150.07,63.583 C150.201,63.583 150.317,63.56 150.417,63.516 L150.614,63.438 C154.529,61.912 157.568,60.816 159.171,60.352 C159.432,60.28 159.643,60.114 159.772,59.882 C159.903,59.647 159.935,59.378 159.859,59.123 C159.736,58.692 159.344,58.394 158.903,58.394 L158.903,58.394 Z M59.563,98.288 C59.444,98.288 59.327,98.309 59.214,98.351 C55.877,99.586 53.178,100.841 51.865,101.48 L51.769,101.527 C51.291,101.766 51.092,102.372 51.338,102.871 C51.505,103.204 51.848,103.413 52.23,103.413 C52.391,103.413 52.538,103.378 52.669,103.31 L52.763,103.264 C53.798,102.763 56.567,101.464 59.916,100.224 C60.165,100.133 60.361,99.951 60.473,99.709 C60.584,99.466 60.595,99.196 60.502,98.949 C60.354,98.553 59.978,98.288 59.563,98.288 L59.563,98.288 Z M37.56,113.35 C37.593,106.755 37.704,101.512 37.911,96.851 L37.924,96.554 L38.19,96.423 C41.282,94.911 57.829,86.902 80.019,77.721 C103.394,68.041 137.409,55.281 166.712,49.462 L166.811,49.443 L166.908,49.462 C174.832,51.063 180.463,53.524 184.631,57.208 C188.662,60.762 191.407,65.445 193.271,71.945 L193.423,72.475 L192.88,72.574 C186.693,73.705 180.249,74.939 173.728,76.243 C164.137,78.157 154.448,80.232 144.932,82.41 C85.24,96.035 48.18,109.895 38.243,113.817 L37.556,114.089 L37.56,113.35 L37.56,113.35 Z M20.575,169.409 C22.688,165.993 25.459,162.385 28.81,158.687 L29.59,157.825 L29.679,158.984 C29.839,161.092 30.03,164.317 30.03,167.712 L30.03,168.039 L29.731,168.17 C26.851,169.433 23.418,169.955 21.045,170.17 L20.048,170.261 L20.575,169.409 L20.575,169.409 Z M213.374,170.17 C211.007,169.954 207.578,169.432 204.689,168.17 L204.39,168.04 L204.39,167.712 C204.39,164.317 204.581,161.092 204.741,158.984 L204.83,157.825 L205.61,158.687 C208.99,162.418 211.761,166.026 213.846,169.41 L214.37,170.261 L213.374,170.17 L213.374,170.17 Z M181.904,157.326 C181.832,157.326 181.76,157.334 181.689,157.35 C178.167,158.115 172.386,159.252 170.88,159.252 C170.328,159.252 169.88,159.701 169.88,160.252 C169.88,160.804 170.328,161.252 170.88,161.252 C172.491,161.252 177.739,160.246 182.112,159.304 C182.649,159.185 182.994,158.647 182.881,158.105 C182.781,157.656 182.37,157.326 181.904,157.326 L181.904,157.326 Z M138.564,171.92 C129.979,171.92 120.991,171.537 111.849,170.781 C74.755,167.686 45.222,159.301 39.678,157.651 L39.373,157.561 L39.326,157.246 C38.591,152.325 38.102,146.272 37.83,138.741 L37.805,138.021 L38.488,138.248 C42.931,139.726 55.164,143.492 72.766,146.55 C89.824,149.531 107.324,151.042 124.78,151.042 C134.2,151.042 143.624,150.589 152.791,149.695 C167.331,148.311 181.799,145.775 195.795,142.159 L196.453,141.988 L196.419,142.667 C195.925,152.696 194.959,159.951 193.381,165.499 L193.302,165.778 L193.021,165.848 C178.605,169.41 162.541,171.427 145.271,171.842 C143.067,171.894 140.812,171.92 138.564,171.92 L138.564,171.92 Z M31.752,174.466 C32.469,166.791 31.62,157.856 31.443,156.144 L31.419,155.91 L31.584,155.742 C33.38,153.913 34.859,152.525 35.783,151.683 L36.52,151.012 L36.618,152.004 C37.285,158.779 38.344,164.181 39.853,168.519 L39.944,168.784 L39.766,169 C38.285,170.796 35.711,172.904 32.519,174.935 L31.657,175.482 L31.752,174.466 L31.752,174.466 Z M201.901,174.935 C198.707,172.902 196.134,170.795 194.654,169 L194.476,168.784 L194.567,168.519 C196.076,164.181 197.135,158.779 197.802,152.004 L197.9,151.012 L198.637,151.683 C199.56,152.524 201.037,153.911 202.837,155.742 L203.001,155.909 L202.978,156.142 C202.664,159.291 202.007,167.378 202.668,174.466 L202.763,175.482 L201.901,174.935 L201.901,174.935 Z M18.828,180.595 C18.228,180.595 17.73,180.494 17.35,180.296 C16.454,179.828 16.387,178.496 17.148,176.336 C17.593,175.123 18.149,173.856 18.804,172.566 L18.938,172.304 L19.231,172.293 C20.932,172.229 25.317,171.927 29.3,170.492 L29.997,170.241 L29.97,170.981 C29.894,173.031 29.737,174.886 29.505,176.494 L29.469,176.743 L29.248,176.862 C24.931,179.199 21.035,180.595 18.828,180.595 L18.828,180.595 Z M215.592,180.595 C213.385,180.595 209.489,179.199 205.172,176.862 L204.951,176.743 L204.915,176.494 C204.683,174.895 204.526,173.04 204.45,170.981 L204.423,170.241 L205.12,170.492 C209.103,171.927 213.488,172.229 215.188,172.293 L215.482,172.304 L215.616,172.566 C216.316,173.945 216.857,175.178 217.271,176.334 C217.712,177.542 218.274,179.667 217.071,180.295 C216.689,180.494 216.192,180.595 215.592,180.595 L215.592,180.595 Z M63.544,177.081 C63.059,177.081 62.646,177.432 62.563,177.917 C62.518,178.181 62.577,178.446 62.731,178.665 C62.884,178.881 63.112,179.025 63.374,179.07 L63.562,179.102 C67.313,179.741 69.874,180.147 70.774,180.246 L70.867,180.752 L70.882,180.252 C71.393,180.252 71.82,179.869 71.873,179.361 C71.902,179.093 71.826,178.833 71.66,178.627 C71.493,178.419 71.254,178.289 70.986,178.26 C69.756,178.125 65.569,177.414 63.826,177.114 L63.719,177.096 C63.658,177.085 63.601,177.081 63.544,177.081 L63.544,177.081 Z M86.167,188.812 C77.488,188.398 70.943,187.69 65.569,186.582 C58.188,185.061 52.937,182.743 49.038,179.287 C44.401,175.177 41.576,169.401 39.879,160.557 L39.726,159.757 L40.508,159.982 C48.388,162.245 76.805,169.853 111.671,172.754 C119.021,173.368 126.251,173.74 133.159,173.862 L133.355,174.818 C110.455,185.13 87.241,188.662 86.264,188.807 L86.216,188.814 L86.167,188.812 L86.167,188.812 Z M117.21,189.333 C110.015,189.333 104.371,189.294 99.451,189.212 L99.346,188.226 C109.727,185.785 125.177,181.331 139.825,173.966 L139.93,173.913 L140.047,173.913 C141.793,173.902 143.549,173.873 145.316,173.823 C161.992,173.443 177.589,171.564 191.675,168.236 L192.591,168.02 L192.258,168.9 C190.609,173.247 188.36,176.645 185.382,179.287 C181.002,183.169 174.777,185.67 165.792,187.156 C154.761,188.977 139.625,189.333 117.21,189.333 L117.21,189.333 Z M80.399,200.066 C76.077,197.828 73.231,195.696 72.209,194.884 L72.035,194.747 L72.021,194.526 C71.928,193.132 71.88,191.722 71.88,190.333 L71.88,189.626 L72.441,189.696 C77.152,190.284 82.725,190.692 89.479,190.943 L90.687,190.988 L80.712,200.228 L80.399,200.066 L80.399,200.066 Z M143.733,190.988 L144.941,190.943 C151.69,190.692 157.264,190.285 161.979,189.696 L162.54,189.626 L162.54,190.333 C162.54,191.722 162.492,193.132 162.399,194.526 L162.385,194.746 L162.213,194.883 C161.213,195.685 158.412,197.796 154.03,200.076 L153.719,200.238 L143.733,190.988 L143.733,190.988 Z M89.672,203.987 C87.441,203.244 85.301,202.402 83.311,201.487 L82.631,201.174 L91.838,192.645 L91.769,193.88 C91.574,197.375 91.085,200.658 90.314,203.638 L90.18,204.156 L89.672,203.987 L89.672,203.987 Z M81.88,215.493 C79.412,215.493 76.9,212.884 74.989,208.336 C73.839,205.568 72.963,202.206 72.455,198.612 L72.295,197.481 L73.234,198.131 C76.415,200.333 81.755,203.47 89.127,205.908 L89.606,206.066 L89.442,206.544 C88.857,208.25 88.185,209.757 87.441,211.025 C85.731,213.948 83.808,215.493 81.88,215.493 L81.88,215.493 Z M152.54,215.493 C150.259,215.493 147.982,213.328 146.128,209.396 C145.718,208.525 145.331,207.566 144.978,206.546 L144.812,206.067 L145.293,205.908 C152.703,203.458 158.025,200.327 161.185,198.132 L162.125,197.479 L161.965,198.612 C161.458,202.203 160.582,205.564 159.432,208.334 C157.52,212.884 155.008,215.493 152.54,215.493 L152.54,215.493 Z" id="Fill-22" fill="#FFF4D6"></path>
        <path d="M18.4,216.993 C18.4,217.823 17.73,218.493 16.9,218.493 L2.21,218.493 C1.38,218.493 0.71,217.823 0.71,216.993 C0.71,216.163 1.38,215.493 2.21,215.493 L16.9,215.493 C17.73,215.493 18.4,216.163 18.4,216.993 L18.4,216.993 Z M60.97,98.772 C61.26,99.542 60.86,100.413 60.09,100.692 C56.04,102.192 52.93,103.743 52.9,103.752 C52.69,103.862 52.46,103.913 52.23,103.913 C51.68,103.913 51.15,103.612 50.89,103.092 C50.52,102.342 50.82,101.442 51.56,101.073 C51.69,101.013 54.85,99.433 59.04,97.882 C59.82,97.592 60.68,97.993 60.97,98.772 L60.97,98.772 Z M72.37,179.413 C72.29,180.183 71.64,180.752 70.88,180.752 C70.83,180.752 70.77,180.743 70.72,180.743 C69.17,180.573 63.53,179.603 63.29,179.563 C62.47,179.422 61.93,178.643 62.07,177.833 C62.21,177.013 62.98,176.462 63.8,176.603 C63.86,176.612 69.58,177.603 71.04,177.763 C71.87,177.853 72.46,178.592 72.37,179.413 L72.37,179.413 Z M74.88,117.993 C74.88,115.783 76.67,113.993 78.88,113.993 C81.09,113.993 82.88,115.783 82.88,117.993 C82.88,120.203 81.09,121.993 78.88,121.993 C76.67,121.993 74.88,120.203 74.88,117.993 L74.88,117.993 Z M151.54,117.993 C151.54,115.783 153.33,113.993 155.54,113.993 C157.75,113.993 159.54,115.783 159.54,117.993 C159.54,120.203 157.75,121.993 155.54,121.993 C153.33,121.993 151.54,120.203 151.54,117.993 L151.54,117.993 Z M148.67,63.132 C148.37,62.362 148.74,61.493 149.51,61.192 C149.76,61.092 155.62,58.772 158.49,57.953 C159.28,57.723 160.11,58.183 160.34,58.982 C160.57,59.772 160.11,60.612 159.31,60.833 C156.58,61.623 150.68,63.953 150.62,63.973 C150.44,64.053 150.25,64.083 150.07,64.083 C149.47,64.083 148.9,63.723 148.67,63.132 L148.67,63.132 Z M149.71,105.663 C149.71,100.243 154.12,95.833 159.54,95.833 C164.97,95.833 169.38,100.243 169.38,105.663 L169.38,128.993 C169.38,134.413 164.97,138.833 159.54,138.833 C154.12,138.833 149.71,134.413 149.71,128.993 L149.71,105.663 L149.71,105.663 Z M159.54,141.833 C166.62,141.833 172.38,136.073 172.38,128.993 L172.38,105.663 C172.38,98.583 166.62,92.833 159.54,92.833 C152.47,92.833 146.71,98.583 146.71,105.663 L146.71,128.993 C146.71,136.073 152.47,141.833 159.54,141.833 L159.54,141.833 Z M169.38,160.252 C169.38,159.422 170.05,158.752 170.88,158.752 C172.33,158.752 178.08,157.623 181.58,156.862 C182.38,156.683 183.19,157.192 183.37,158.002 C183.54,158.813 183.03,159.612 182.22,159.792 C181.29,159.993 173.12,161.752 170.88,161.752 C170.05,161.752 169.38,161.083 169.38,160.252 L169.38,160.252 Z M152.54,214.993 C150.48,214.993 148.32,212.873 146.58,209.183 C146.18,208.333 145.8,207.393 145.45,206.382 C152.92,203.913 158.36,200.703 161.47,198.542 C160.94,202.292 160.05,205.542 158.97,208.143 C157.15,212.473 154.78,214.993 152.54,214.993 L152.54,214.993 Z M87.15,215.493 C88.06,214.583 88.9,213.442 89.67,212.103 C92.41,207.323 94.2,200.013 94.36,191.603 C101.14,191.783 108.71,191.833 117.21,191.833 C125.71,191.833 133.29,191.783 140.06,191.603 C140.2,199.002 141.6,205.553 143.81,210.272 C144.81,212.422 145.98,214.192 147.27,215.493 L87.15,215.493 L87.15,215.493 Z M81.88,214.993 C79.64,214.993 77.27,212.473 75.45,208.143 C74.37,205.542 73.48,202.292 72.95,198.542 C76.07,200.703 81.5,203.913 88.97,206.382 C88.39,208.073 87.73,209.542 87.01,210.772 C85.43,213.473 83.62,214.993 81.88,214.993 L81.88,214.993 Z M91.27,193.853 C91.07,197.433 90.56,200.692 89.83,203.513 C87.52,202.743 85.41,201.902 83.52,201.033 L91.27,193.853 L91.27,193.853 Z M72.52,194.493 C72.43,193.152 72.38,191.763 72.38,190.333 L72.38,190.192 C77.35,190.813 83.01,191.203 89.46,191.442 L80.63,199.623 C76.46,197.462 73.69,195.422 72.52,194.493 L72.52,194.493 Z M65.67,186.092 C58.49,184.612 53.25,182.353 49.37,178.913 C44.8,174.862 42.03,169.112 40.37,160.462 C48.52,162.803 76.78,170.353 111.63,173.252 C118.58,173.833 125.79,174.232 133.15,174.362 C110.92,184.373 88.41,187.982 86.19,188.313 C78,187.922 71.25,187.243 65.67,186.092 L65.67,186.092 Z M38.33,138.723 C42.99,140.272 55.18,144.002 72.68,147.042 C86.93,149.533 104.69,151.542 124.78,151.542 C133.71,151.542 143.1,151.143 152.84,150.192 C166.6,148.882 181.06,146.482 195.92,142.643 C195.45,152.163 194.55,159.563 192.9,165.362 C177.28,169.223 161.06,170.962 145.26,171.342 C133.78,171.612 122.53,171.163 111.89,170.283 C74.85,167.192 45.3,158.803 39.82,157.172 C39.05,152.013 38.59,145.933 38.33,138.723 L38.33,138.723 Z M32.25,174.513 C32.94,167.112 32.2,158.603 31.94,156.092 C33.64,154.362 35.11,152.973 36.12,152.053 C36.77,158.643 37.79,164.112 39.38,168.683 C37.83,170.563 35.19,172.643 32.25,174.513 L32.25,174.513 Z M108.15,136.833 L112.65,136.833 L112.65,133.083 L108.15,133.083 L108.15,136.833 Z M102.73,134.333 C103.31,133.212 104.1,133.083 104.65,133.083 L105.15,133.083 L105.15,138.333 C105.15,139.152 105.82,139.833 106.65,139.833 L114.15,139.833 C114.98,139.833 115.65,139.152 115.65,138.333 L115.65,133.083 L129.77,133.083 C130.32,133.083 131.11,133.212 131.69,134.333 C132.19,135.292 132.37,136.603 132.28,137.953 C132.16,139.573 131.65,141.252 130.79,142.473 C128.27,146.073 123.07,148.313 117.21,148.313 C111.35,148.313 106.15,146.073 103.63,142.473 C102.77,141.252 102.26,139.573 102.14,137.953 C102.05,136.603 102.23,135.292 102.73,134.333 L102.73,134.333 Z M38.05,116.592 C40.65,115.542 48.8,112.342 62.04,107.913 L62.04,128.993 C62.04,135.183 66.45,140.373 72.3,141.573 C73.13,141.743 74,141.833 74.88,141.833 C81.95,141.833 87.71,136.073 87.71,128.993 L87.71,105.663 C87.71,103.763 87.29,101.913 86.5,100.223 C102.55,95.462 122.3,90.132 145.48,84.833 C148.79,84.083 152.17,83.323 155.62,82.573 C158.14,82.942 177.92,86.132 196.01,96.803 C196.28,103.013 196.38,110.033 196.38,117.993 C196.38,126.123 196.29,133.252 196.06,139.513 C181.04,143.453 166.44,145.882 152.56,147.223 C144.23,148.022 136.16,148.422 128.42,148.522 C130.39,147.382 132.04,145.922 133.25,144.192 C134.44,142.493 135.13,140.243 135.26,138.053 C135.38,136.183 135.09,134.353 134.36,132.953 C133.39,131.103 131.77,130.083 129.77,130.083 L104.65,130.083 C102.66,130.083 101.03,131.103 100.07,132.953 C99.33,134.353 99.04,136.183 99.16,138.053 C99.29,140.243 99.98,142.493 101.17,144.192 C102.17,145.623 103.46,146.862 104.99,147.893 C93.12,147.112 82.41,145.703 73.19,144.103 C72.75,144.022 72.33,143.953 71.9,143.873 C53.74,140.623 41.63,136.692 38.24,135.522 C38.1,130.263 38.04,124.442 38.04,117.993 C38.04,117.522 38.05,117.063 38.05,116.592 L38.05,116.592 Z M84.71,105.663 L84.71,128.993 C84.71,134.413 80.3,138.833 74.88,138.833 C69.46,138.833 65.04,134.413 65.04,128.993 L65.04,106.913 C70.47,105.132 76.65,103.172 83.56,101.092 C84.3,102.502 84.71,104.053 84.71,105.663 L84.71,105.663 Z M38.41,96.873 C42.09,95.073 58.46,87.183 80.21,78.183 C105.64,67.652 138.41,55.592 166.81,49.953 C174.58,51.522 180.17,53.933 184.3,57.583 C188.27,61.083 190.97,65.732 192.79,72.083 C186.22,73.283 179.83,74.513 173.63,75.752 C163.51,77.772 153.91,79.842 144.82,81.922 C84.32,95.732 47,109.823 38.06,113.353 C38.09,107.303 38.19,101.833 38.41,96.873 L38.41,96.873 Z M46.85,61.103 C51.31,62.292 70.79,67.192 95.62,68.783 C89.86,71.013 84.31,73.243 79.07,75.422 C59.43,83.542 44.15,90.772 38.58,93.462 C39.06,85.192 39.91,78.473 41.38,72.993 C42.67,68.152 44.44,64.263 46.85,61.103 L46.85,61.103 Z M50.12,57.583 C56.91,51.592 67.62,48.953 85.49,47.862 C74.19,52.712 65.89,59.482 63.33,61.692 C56.73,60.462 51.77,59.272 49.06,58.583 C49.4,58.232 49.75,57.902 50.12,57.583 L50.12,57.583 Z M117.21,47.163 C134.71,47.163 148.12,47.482 158.5,48.672 C140.19,52.902 120.6,59.373 102.58,66.123 C89.06,65.643 76.79,64.042 67.21,62.393 C71.99,58.592 82.81,50.893 95.87,47.413 C102.22,47.232 109.29,47.163 117.21,47.163 L117.21,47.163 Z M92.92,19.743 C92.35,16.353 92.22,13.172 92.3,10.482 C95,16.092 99.4,19.842 99.66,20.062 C100.09,20.422 100.68,20.513 101.19,20.303 C101.7,20.103 102.06,19.623 102.12,19.073 C102.35,16.873 103.7,14.192 105.1,11.922 C104.71,19.502 106.79,25.683 109.45,30.382 C110.01,31.373 110.6,32.312 111.2,33.172 L107.73,33.172 C106.9,33.172 106.23,33.842 106.23,34.672 C106.23,35.502 106.9,36.172 107.73,36.172 L113.51,36.172 C115.1,38.033 116.57,39.402 117.59,40.263 C116.8,41.493 116.01,42.792 115.21,44.163 C113.21,44.163 111.26,44.172 109.36,44.183 C98.55,37.783 94.35,28.132 92.92,19.743 L92.92,19.743 Z M164.42,24.913 C169.38,25.823 174.51,26.763 179.98,27.083 C187.75,27.533 194.36,23.203 198.15,20.002 C197.56,22.033 196.58,24.183 194.99,25.393 C194.54,25.732 194.32,26.312 194.43,26.873 C194.54,27.433 194.95,27.882 195.5,28.033 C197.67,28.623 203.33,30.473 206.45,32.632 C205.35,33.603 202.78,35.263 197.08,36.803 C188.54,39.092 179.98,35.672 169.13,31.342 C168.04,30.902 166.93,30.462 165.79,30.013 C154.91,25.712 149.49,27.962 144.75,33.803 L139.73,33.803 C138.9,33.803 138.23,34.473 138.23,35.303 C138.23,36.132 138.9,36.803 139.73,36.803 L142.55,36.803 C142.16,37.382 141.76,37.993 141.37,38.623 L133.79,38.623 C132.96,38.623 132.29,39.292 132.29,40.123 C132.29,40.953 132.96,41.623 133.79,41.623 L139.52,41.623 C139.2,42.143 138.88,42.672 138.55,43.223 L137.86,44.382 C132.1,44.232 125.73,44.172 118.69,44.163 C133.63,19.263 147.27,21.752 164.42,24.913 L164.42,24.913 Z M195.23,85.632 C195.48,88.013 195.67,90.542 195.83,93.232 C183.5,86.292 170.9,82.683 163.19,80.953 C166.8,80.192 170.48,79.433 174.22,78.683 C180.47,77.433 186.91,76.203 193.54,74.993 C194.26,78.143 194.81,81.672 195.23,85.632 L195.23,85.632 Z M198.3,152.053 C199.31,152.973 200.78,154.362 202.48,156.092 C202.23,158.603 201.48,167.123 202.17,174.513 C199.23,172.643 196.59,170.563 195.04,168.683 C196.63,164.112 197.65,158.643 198.3,152.053 L198.3,152.053 Z M185.05,178.913 C180.64,182.823 174.48,185.212 165.71,186.663 C154.44,188.522 138.87,188.833 117.21,188.833 C110.77,188.833 104.88,188.803 99.46,188.712 C110.01,186.232 125.45,181.752 140.05,174.413 C141.8,174.402 143.56,174.373 145.33,174.323 C160.72,173.973 176.51,172.333 191.79,168.723 C190.16,173.022 187.97,176.323 185.05,178.913 L185.05,178.913 Z M150.91,201.033 C149.01,201.902 146.9,202.743 144.59,203.513 C143.87,200.692 143.35,197.433 143.15,193.853 L150.91,201.033 L150.91,201.033 Z M162.04,190.333 C162.04,191.763 161.99,193.152 161.9,194.493 C160.74,195.422 157.97,197.462 153.8,199.632 L144.96,191.442 C151.42,191.203 157.07,190.813 162.04,190.192 L162.04,190.333 L162.04,190.333 Z M21,169.672 C23.4,165.792 26.39,162.103 29.18,159.022 C29.35,161.252 29.53,164.393 29.53,167.712 C26.7,168.953 23.31,169.462 21,169.672 L21,169.672 Z M29.01,176.422 C24.17,179.042 19.31,180.752 17.58,179.853 C16.7,179.393 17.32,177.353 17.62,176.502 C18.07,175.272 18.62,174.033 19.25,172.792 C21.12,172.723 25.5,172.393 29.47,170.962 C29.4,172.833 29.26,174.692 29.01,176.422 L29.01,176.422 Z M205.24,159.022 C208.03,162.103 211.03,165.792 213.42,169.672 C211.12,169.462 207.73,168.953 204.89,167.712 C204.89,164.393 205.07,161.252 205.24,159.022 L205.24,159.022 Z M216.8,176.502 C217.11,177.353 217.72,179.393 216.84,179.853 C215.11,180.752 210.25,179.042 205.41,176.422 C205.16,174.703 205.02,172.842 204.95,170.962 C208.92,172.393 213.3,172.723 215.17,172.792 C215.8,174.033 216.36,175.272 216.8,176.502 L216.8,176.502 Z M232.21,215.493 L208.43,215.493 L202,210.252 L195.61,215.493 L157.82,215.493 C159.3,214.002 160.62,211.902 161.7,209.323 C163.78,204.402 165.04,197.752 165.04,190.333 L165.04,189.783 C165.43,189.723 165.81,189.663 166.19,189.592 C175.55,188.053 182.19,185.473 187.04,181.163 C189.91,178.612 192.12,175.533 193.82,171.763 C198.7,176.643 209.36,183.063 215.57,183.063 C216.59,183.063 217.49,182.893 218.23,182.513 C219.73,181.732 221.2,179.873 219.62,175.493 C216.8,167.643 210.18,159.752 205.12,154.513 C201.63,150.893 198.96,148.612 198.85,148.522 C198.78,148.462 198.7,148.402 198.62,148.362 C199.24,140.013 199.38,130.022 199.38,117.993 C199.38,104.743 199.12,94.002 198.19,85.232 C196.65,70.623 193.29,61.502 186.29,55.333 C177.87,47.913 165,45.292 141.29,44.482 C148.26,32.873 151.55,27.612 164.69,32.803 C165.82,33.243 166.93,33.692 168.02,34.123 C179.38,38.672 188.36,42.252 197.86,39.692 C207.99,36.973 209.72,33.592 209.97,32.942 C210.18,32.382 210.04,31.743 209.6,31.333 C207,28.853 201.75,26.873 198.67,25.862 C201.6,21.922 201.89,16.103 201.9,15.812 C201.93,15.172 201.55,14.592 200.95,14.353 C200.36,14.123 199.68,14.283 199.26,14.772 C199.18,14.873 190.57,24.692 180.15,24.083 C174.87,23.783 169.83,22.853 164.96,21.953 C149.21,19.062 134.26,16.323 119.27,37.763 C117.53,36.272 114.47,33.272 111.99,28.833 C108.98,23.442 106.81,15.933 108.87,6.402 C109.01,5.723 108.68,5.033 108.05,4.732 C107.43,4.433 106.68,4.592 106.24,5.123 C106.02,5.393 101.53,10.862 99.78,15.993 C97.35,13.402 93.34,8.212 93.23,2.223 C93.22,1.462 92.64,0.833 91.89,0.752 C91.12,0.672 90.44,1.172 90.27,1.913 C90.23,2.073 88.41,10.303 90.1,20.203 C91.46,28.272 95.17,37.442 104.07,44.243 C73.23,44.643 57.76,46.842 48.14,55.333 C43.5,59.422 40.45,64.812 38.49,72.243 C35.69,82.743 35.04,97.292 35.04,117.993 C35.04,130.022 35.19,140.013 35.8,148.362 C35.72,148.402 35.65,148.462 35.57,148.522 C35.46,148.612 32.79,150.893 29.3,154.513 C24.24,159.752 17.62,167.643 14.8,175.493 C13.22,179.873 14.69,181.732 16.19,182.513 C16.93,182.893 17.83,183.063 18.85,183.063 C25.06,183.063 35.72,176.643 40.61,171.763 C42.31,175.533 44.51,178.612 47.38,181.163 C51.66,184.962 57.34,187.422 65.05,189.002 C66.43,189.292 67.88,189.553 69.39,189.783 C69.39,189.962 69.38,190.143 69.38,190.333 C69.38,197.752 70.64,204.402 72.72,209.323 C73.8,211.902 75.12,214.002 76.6,215.493 L27.9,215.493 C27.07,215.493 26.4,216.163 26.4,216.993 C26.4,217.823 27.07,218.493 27.9,218.493 L196.68,218.493 L202,214.132 L207.36,218.493 L232.21,218.493 C233.04,218.493 233.71,217.823 233.71,216.993 C233.71,216.163 233.04,215.493 232.21,215.493 L232.21,215.493 Z" id="Fill-23" fill="#3B3B4D"></path>
    </g>
</svg>