<?xml version="1.0" encoding="UTF-8" standalone="no"?>
<svg width="233px" height="207px" viewBox="0 0 233 207" version="1.1" xmlns="http://www.w3.org/2000/svg" xmlns:xlink="http://www.w3.org/1999/xlink">
    <!-- Generator: Sketch 39.1 (31720) - http://www.bohemiancoding.com/sketch -->
    <title>Slice 1</title>
    <desc>Created with Sketch.</desc>
    <defs>
        <polygon id="path-1" points="0.019 206.94 232.078 206.94 232.078 0.996 0.019 0.996 0.019 206.94"></polygon>
    </defs>
    <g id="Page-1" stroke="none" stroke-width="1" fill="none" fill-rule="evenodd">
        <path d="M95.729,50.996 C94.19,50.996 92.938,52.247 92.938,53.786 L92.938,59.956 C92.938,61.495 94.19,62.746 95.729,62.746 C97.267,62.746 98.519,61.495 98.519,59.956 L98.519,53.786 C98.519,52.247 97.267,50.996 95.729,50.996 L95.729,50.996 Z M93.188,74.166 C87.487,74.166 82.849,69.528 82.849,63.826 L82.849,44.826 C82.849,39.13 87.487,34.496 93.188,34.496 L93.688,34.496 C99.385,34.496 104.019,39.13 104.019,44.826 L104.019,64.157 C104.019,67.667 102.968,71.054 100.98,73.949 L100.832,74.166 L93.188,74.166 L93.188,74.166 Z M136.368,50.996 C134.83,50.996 133.578,52.247 133.578,53.786 L133.578,59.956 C133.578,61.495 134.83,62.746 136.368,62.746 C137.912,62.746 139.169,61.495 139.169,59.956 L139.169,53.786 C139.169,52.247 137.912,50.996 136.368,50.996 L136.368,50.996 Z M131.275,74.166 L131.127,73.95 C129.132,71.059 128.078,67.672 128.078,64.157 L128.078,44.826 C128.078,39.13 132.717,34.496 138.419,34.496 L138.919,34.496 C144.615,34.496 149.249,39.13 149.249,44.826 L149.249,63.826 C149.249,69.528 144.615,74.166 138.919,74.166 L131.275,74.166 L131.275,74.166 Z M108.088,89.572 L116.049,73.267 L124.01,89.572 L116.049,93.803 L108.088,89.572 L108.088,89.572 Z M116.049,165.73 C113.534,165.73 111.488,163.68 111.488,161.17 C111.488,158.65 113.534,156.61 116.049,156.61 C118.563,156.61 120.608,158.65 120.608,161.17 C120.608,163.68 118.563,165.73 116.049,165.73 L116.049,165.73 Z M104.188,204.5 L104.188,199.54 L116.049,192.43 L127.919,199.54 L127.919,204.5 L104.188,204.5 L104.188,204.5 Z" id="Fill-47" fill="#FACD5D"></path>
        <g id="Group-51">
            <mask id="mask-2" fill="white">
                <use xlink:href="#path-1"></use>
            </mask>
            <g id="Clip-49"></g>
            <path d="M44.766,68.216 L44.333,69.302 C44.04,69.98 42.486,73.288 39.57,74.289 C39.03,74.472 38.462,74.564 37.879,74.564 C36.645,74.564 35.321,74.155 33.945,73.347 C29.778,70.909 29.348,66.607 31.076,63.616 C32.191,61.671 34.143,60.509 36.293,60.509 C37.584,60.509 38.943,60.906 40.334,61.691 C40.487,61.779 40.659,61.824 40.832,61.824 C41.192,61.824 41.527,61.63 41.704,61.319 C41.97,60.839 41.8,60.224 41.321,59.95 C40.598,59.551 39.879,59.23 39.19,59 L38.957,58.923 L38.876,58.691 C38.409,57.348 37.444,53.95 38.571,51.404 C39.12,50.161 40.084,49.305 41.519,48.786 C42.512,48.429 43.554,48.248 44.616,48.248 C46.995,48.248 49.178,49.175 50.454,50.729 C52.298,52.962 52.146,56.154 50.028,59.712 L49.522,60.572 L62.868,68.523 L62.868,74.576 C62.868,75.92 63.174,77.23 63.777,78.467 L64.512,79.973 L44.766,68.216 L44.766,68.216 Z M168.331,78.462 C168.401,78.322 168.464,78.191 168.517,78.04 C168.992,76.906 169.229,75.749 169.229,74.576 L169.229,68.523 L182.583,60.573 L182.069,59.712 C179.95,56.153 179.799,52.962 181.643,50.728 C182.928,49.175 185.11,48.248 187.482,48.248 C188.544,48.248 189.585,48.429 190.577,48.785 C192.013,49.304 192.977,50.161 193.525,51.404 C194.653,53.95 193.688,57.349 193.222,58.691 L193.141,58.923 L192.907,59 C192.219,59.23 191.5,59.551 190.771,59.954 C190.296,60.224 190.129,60.837 190.403,61.319 C190.58,61.63 190.912,61.824 191.268,61.824 C191.439,61.824 191.61,61.779 191.762,61.692 C193.151,60.908 194.509,60.511 195.798,60.511 C197.948,60.511 199.9,61.671 201.022,63.616 C201.562,64.564 201.884,65.616 201.958,66.661 C202.139,69.388 200.751,71.824 198.151,73.348 C196.775,74.155 195.453,74.564 194.223,74.564 C194.222,74.564 194.223,74.564 194.222,74.564 C193.64,74.564 193.07,74.472 192.529,74.29 C189.625,73.292 188.062,69.986 187.777,69.332 L187.331,68.216 L167.568,79.99 L168.331,78.462 L168.331,78.462 Z M81.849,81.476 C81.297,81.476 80.849,81.925 80.849,82.476 C80.849,83.028 81.297,83.476 81.849,83.476 L86.698,83.476 C92.677,83.476 98.227,80.765 101.925,76.038 L101.961,75.992 L102.006,75.956 C102.137,75.851 102.247,75.701 102.316,75.534 L102.339,75.482 L102.373,75.434 C104.758,72.126 106.019,68.227 106.019,64.157 L106.019,44.826 C106.019,38.028 100.487,32.496 93.688,32.496 L93.188,32.496 C86.384,32.496 80.849,38.028 80.849,44.826 L80.849,63.826 C80.849,70.63 86.384,76.166 93.188,76.166 L99.232,76.166 L98.263,77.038 C95.08,79.9 90.974,81.476 86.698,81.476 L81.849,81.476 L81.849,81.476 Z M138.419,32.496 C131.614,32.496 126.078,38.028 126.078,44.826 L126.078,64.157 C126.078,68.226 127.339,72.124 129.724,75.434 L129.758,75.48 L129.779,75.533 C129.852,75.704 129.959,75.848 130.092,75.949 L130.143,75.988 L130.182,76.038 C133.881,80.765 139.427,83.476 145.398,83.476 L150.249,83.476 C150.801,83.476 151.249,83.028 151.249,82.476 C151.249,81.925 150.801,81.476 150.249,81.476 L145.398,81.476 C141.123,81.476 137.017,79.9 133.835,77.038 L132.865,76.166 L138.919,76.166 C145.718,76.166 151.249,70.63 151.249,63.826 L151.249,44.826 C151.249,38.028 145.718,32.496 138.919,32.496 L138.419,32.496 L138.419,32.496 Z M116.049,96.07 L126.657,90.422 L116.049,68.716 L105.449,90.422 L116.049,96.07 L116.049,96.07 Z M117.049,112.25 C117.049,111.69 116.601,111.25 116.049,111.25 C115.497,111.25 115.049,111.69 115.049,112.25 L115.049,147.5 L103.368,139.74 L103.368,109.13 C103.368,108.58 102.92,108.13 102.368,108.13 C101.816,108.13 101.368,108.58 101.368,109.13 L101.368,138.43 L88.849,130.12 L88.849,99.326 C88.849,98.775 88.4,98.326 87.849,98.326 C87.297,98.326 86.849,98.775 86.849,99.326 L86.849,106 L63.868,106 C63.669,106 63.48,106 63.291,105.99 C57.302,105.68 52.608,100.739 52.608,94.737 C52.608,88.528 57.659,83.476 63.868,83.476 L75.349,83.476 C75.9,83.476 76.349,83.028 76.349,82.476 C76.349,81.925 75.9,81.476 75.349,81.476 L71.769,81.476 C67.964,81.476 64.868,78.381 64.868,74.576 L64.868,41.396 C64.868,31.433 72.975,23.326 82.938,23.326 L90.349,23.326 C90.9,23.326 91.349,22.878 91.349,22.326 C91.349,21.775 90.9,21.326 90.349,21.326 L82.938,21.326 C76.539,21.326 70.463,24.445 66.684,29.669 L65.792,29.26 C69.423,14.091 82.848,3.496 98.438,3.496 L115.049,3.496 L115.049,17.252 L121.802,22.187 L108.29,29.273 L115.049,32.616 L115.049,43.496 C115.049,44.048 115.497,44.496 116.049,44.496 C116.601,44.496 117.049,44.048 117.049,43.496 L117.049,31.376 L112.698,29.218 L125.575,22.466 L117.049,16.241 L117.049,3.496 L133.658,3.496 C134.155,3.496 134.643,3.506 135.129,3.527 C150.016,4.174 162.836,14.756 166.305,29.26 L165.413,29.669 C161.634,24.445 155.558,21.326 149.158,21.326 L141.749,21.326 C141.197,21.326 140.749,21.775 140.749,22.326 C140.749,22.878 141.197,23.326 141.749,23.326 L149.158,23.326 C159.122,23.326 167.229,31.433 167.229,41.396 L167.229,74.576 C167.229,75.501 167.047,76.402 166.689,77.251 C165.601,79.818 163.108,81.476 160.339,81.476 L156.749,81.476 C156.197,81.476 155.749,81.925 155.749,82.476 C155.749,83.028 156.197,83.476 156.749,83.476 L168.229,83.476 C174.438,83.476 179.488,88.528 179.488,94.737 C179.488,100.945 174.438,106 168.229,106 L145.249,106 L145.249,99.326 C145.249,98.775 144.801,98.326 144.249,98.326 C143.697,98.326 143.249,98.775 143.249,99.326 L143.249,130.12 L130.729,138.43 L130.729,109.13 C130.729,108.58 130.28,108.13 129.729,108.13 C129.177,108.13 128.729,108.58 128.729,109.13 L128.729,139.74 L117.049,147.5 L117.049,112.25 L117.049,112.25 Z M44.626,161.24 C43.561,161.24 42.516,161.05 41.52,160.7 C40.08,160.18 39.116,159.32 38.571,158.09 C37.444,155.53 38.409,152.13 38.876,150.79 L38.957,150.56 L39.19,150.48 C39.929,150.24 40.626,149.93 41.322,149.53 C41.8,149.26 41.97,148.64 41.701,148.16 C41.527,147.85 41.192,147.66 40.831,147.66 C40.658,147.66 40.487,147.7 40.336,147.79 C38.943,148.58 37.583,148.98 36.291,148.98 C34.145,148.98 32.195,147.82 31.075,145.88 C29.353,142.88 29.785,138.58 33.945,136.14 C35.316,135.33 36.637,134.92 37.868,134.92 C38.456,134.92 39.029,135.02 39.571,135.2 C42.361,136.15 43.905,139.22 44.313,140.14 L44.767,141.28 L86.849,116.22 L86.849,126.69 L49.522,148.92 L50.029,149.78 C52.145,153.34 52.296,156.52 50.454,158.76 C49.183,160.31 47.003,161.24 44.626,161.24 L44.626,161.24 Z M187.473,161.24 C185.102,161.24 182.922,160.31 181.643,158.75 C179.801,156.52 179.953,153.34 182.069,149.78 L182.583,148.92 L145.249,126.69 L145.249,116.22 L186.324,140.68 L187.33,141.27 L187.784,140.13 L187.814,140.09 C188.195,139.21 189.745,136.15 192.527,135.2 C193.071,135.02 193.646,134.92 194.232,134.92 C195.462,134.92 196.78,135.33 198.153,136.15 C202.312,138.58 202.744,142.88 201.022,145.88 C199.903,147.82 197.953,148.97 195.807,148.97 L195.806,148.97 C194.515,148.97 193.154,148.58 191.763,147.79 C191.61,147.7 191.439,147.66 191.269,147.66 C190.912,147.66 190.58,147.85 190.403,148.16 C190.129,148.64 190.296,149.26 190.776,149.53 C191.472,149.93 192.169,150.24 192.907,150.48 L193.139,150.56 L193.221,150.79 C193.589,151.83 194.699,155.44 193.525,158.09 C192.98,159.32 192.016,160.18 190.578,160.7 C189.581,161.05 188.537,161.24 187.473,161.24 L187.473,161.24 Z M129.919,204.5 L129.919,198.41 L116.049,190.1 L102.188,198.41 L102.188,204.5 L90.519,204.5 L90.519,194.07 L116.049,179.09 L141.578,194.07 L141.578,204.5 L129.919,204.5 L129.919,204.5 Z" id="Fill-48" fill="#FCF0D4" mask="url(#mask-2)"></path>
            <path d="M10.519,204 L1.519,204 C0.688,204 0.019,204.67 0.019,205.5 C0.019,206.33 0.688,207 1.519,207 L10.519,207 C11.349,207 12.019,206.33 12.019,205.5 C12.019,204.67 11.349,204 10.519,204 L10.519,204 Z M86.349,105.5 L86.349,99.326 C86.349,98.496 87.019,97.826 87.849,97.826 C88.679,97.826 89.349,98.496 89.349,99.326 L89.349,129.86 L100.868,137.5 L100.868,109.13 C100.868,108.3 101.538,107.63 102.368,107.63 C103.198,107.63 103.868,108.3 103.868,109.13 L103.868,139.48 L114.549,146.57 L114.549,112.25 C114.549,111.42 115.219,110.75 116.049,110.75 C116.879,110.75 117.549,111.42 117.549,112.25 L117.549,146.57 L128.229,139.48 L128.229,109.13 C128.229,108.3 128.908,107.63 129.729,107.63 C130.559,107.63 131.229,108.3 131.229,109.13 L131.229,137.5 L142.749,129.86 L142.749,99.326 C142.749,98.496 143.419,97.826 144.249,97.826 C145.078,97.826 145.749,98.496 145.749,99.326 L145.749,105.5 L168.229,105.5 C174.169,105.5 178.988,100.666 178.988,94.737 C178.988,88.796 174.169,83.976 168.229,83.976 L165.349,83.976 L165.339,83.976 L156.749,83.976 C155.919,83.976 155.249,83.306 155.249,82.476 C155.249,81.646 155.919,80.976 156.749,80.976 L160.339,80.976 C162.979,80.976 165.249,79.366 166.229,77.056 C166.549,76.296 166.729,75.456 166.729,74.576 L166.729,41.396 C166.729,31.706 158.849,23.826 149.158,23.826 L141.749,23.826 C140.919,23.826 140.249,23.157 140.249,22.326 C140.249,21.496 140.919,20.826 141.749,20.826 L149.158,20.826 C156.019,20.826 162.078,24.206 165.818,29.376 C162.448,15.286 150.059,4.677 135.108,4.027 C134.629,4.006 134.148,3.996 133.658,3.996 L117.549,3.996 L117.549,15.987 L126.519,22.536 L113.799,29.206 L117.549,31.066 L117.549,43.496 C117.549,44.326 116.879,44.996 116.049,44.996 C115.219,44.996 114.549,44.326 114.549,43.496 L114.549,32.927 L107.188,29.286 L120.858,22.116 L114.549,17.506 L114.549,3.996 L98.438,3.996 C82.858,3.996 69.759,14.836 66.278,29.376 C70.019,24.206 76.089,20.826 82.938,20.826 L90.349,20.826 C91.179,20.826 91.849,21.496 91.849,22.326 C91.849,23.157 91.179,23.826 90.349,23.826 L82.938,23.826 C73.249,23.826 65.368,31.706 65.368,41.396 L65.368,74.576 C65.368,78.107 68.238,80.976 71.769,80.976 L75.349,80.976 C76.179,80.976 76.849,81.646 76.849,82.476 C76.849,83.306 76.179,83.976 75.349,83.976 L66.769,83.976 C66.769,83.976 66.769,83.976 66.759,83.976 L63.868,83.976 C57.938,83.976 53.108,88.796 53.108,94.737 C53.108,100.476 57.639,105.2 63.318,105.49 C63.499,105.5 63.679,105.5 63.868,105.5 L86.349,105.5 L86.349,105.5 Z M63.328,78.687 C62.719,77.437 62.368,76.046 62.368,74.576 L62.368,68.806 L48.839,60.746 L49.599,59.456 C51.599,56.097 51.769,53.107 50.068,51.046 C48.309,48.907 44.778,48.146 41.688,49.256 C40.389,49.726 39.519,50.496 39.028,51.607 C37.948,54.046 38.959,57.407 39.349,58.527 C40.068,58.767 40.809,59.097 41.568,59.517 C42.288,59.927 42.538,60.847 42.139,61.566 C41.729,62.286 40.809,62.536 40.089,62.126 C35.868,59.746 32.828,61.566 31.509,63.866 C29.908,66.636 30.318,70.646 34.198,72.916 C36.108,74.036 37.868,74.336 39.408,73.816 C42.349,72.806 43.849,69.157 43.868,69.116 L44.519,67.487 L46.028,68.386 L63.328,78.687 L63.328,78.687 Z M168.988,78.206 C168.929,78.376 168.858,78.527 168.778,78.687 L187.578,67.487 L188.229,69.116 C188.249,69.157 189.749,72.806 192.688,73.816 C194.238,74.336 195.988,74.036 197.898,72.916 C200.578,71.347 201.608,68.947 201.459,66.697 C201.389,65.697 201.078,64.726 200.589,63.866 C199.269,61.576 196.229,59.746 192.009,62.126 C191.288,62.536 190.379,62.286 189.969,61.566 C189.559,60.847 189.809,59.927 190.528,59.517 C191.288,59.097 192.028,58.767 192.749,58.527 C193.139,57.407 194.148,54.046 193.068,51.607 C192.578,50.496 191.709,49.726 190.408,49.256 C187.318,48.146 183.799,48.907 182.028,51.046 C180.328,53.107 180.499,56.097 182.499,59.456 L183.269,60.746 L169.729,68.806 L169.729,74.576 C169.729,75.866 169.459,77.086 168.988,78.206 L168.988,78.206 Z M145.749,117.1 L145.749,126.41 L183.269,148.75 L182.499,150.04 C180.499,153.4 180.328,156.38 182.028,158.44 C183.799,160.59 187.318,161.34 190.408,160.23 C191.709,159.76 192.578,159 193.068,157.89 C194.148,155.45 193.148,152.09 192.749,150.96 C192.028,150.72 191.288,150.4 190.528,149.97 C189.809,149.56 189.559,148.64 189.969,147.92 C190.379,147.2 191.288,146.95 192.009,147.36 C196.229,149.74 199.269,147.92 200.589,145.63 C202.188,142.85 201.778,138.85 197.898,136.58 C195.988,135.45 194.238,135.15 192.688,135.68 C189.749,136.68 188.249,140.34 188.229,140.37 L187.578,142 L186.068,141.11 L145.749,117.1 L145.749,117.1 Z M86.349,117.1 L44.519,142.01 L43.868,140.37 C43.849,140.34 42.349,136.68 39.408,135.68 C37.868,135.15 36.108,135.45 34.198,136.58 C30.318,138.85 29.908,142.85 31.509,145.63 C32.828,147.92 35.868,149.75 40.089,147.36 C40.809,146.95 41.729,147.2 42.139,147.92 C42.538,148.64 42.288,149.56 41.568,149.97 C40.809,150.4 40.068,150.72 39.349,150.96 C38.959,152.08 37.948,155.44 39.028,157.89 C39.519,159 40.389,159.76 41.688,160.23 C44.778,161.34 48.309,160.59 50.068,158.44 C51.769,156.38 51.599,153.4 49.599,150.04 L48.839,148.75 L86.349,126.41 L86.349,117.1 L86.349,117.1 Z M86.349,113.6 L86.349,108.5 L63.868,108.5 C63.658,108.5 63.448,108.5 63.238,108.48 C55.938,108.16 50.108,102.116 50.108,94.737 C50.108,87.907 55.108,82.237 61.639,81.166 L45.868,71.777 C44.938,73.357 43.158,75.697 40.398,76.646 C37.988,77.476 35.389,77.086 32.679,75.496 C27.179,72.277 26.629,66.326 28.908,62.366 C30.288,59.976 32.858,58.116 36.068,58.027 C35.568,56.056 35.139,52.996 36.278,50.396 C37.108,48.517 38.589,47.187 40.679,46.437 C44.988,44.886 49.799,45.996 52.389,49.136 C54.658,51.896 54.828,55.677 52.889,59.666 L62.368,65.306 L62.368,37.076 C62.368,17.177 78.549,0.996 98.438,0.996 L133.658,0.996 C134.188,0.996 134.719,1.006 135.238,1.036 C154.398,1.866 169.729,17.706 169.729,37.076 L169.729,65.306 L179.209,59.666 C177.269,55.677 177.438,51.896 179.719,49.136 C182.299,46.006 187.108,44.886 191.419,46.437 C193.509,47.187 194.988,48.517 195.818,50.396 C196.969,52.996 196.538,56.056 196.028,58.027 C199.249,58.116 201.809,59.976 203.188,62.366 C203.919,63.626 204.349,65.097 204.429,66.607 C204.618,69.847 203.169,73.306 199.419,75.496 C196.709,77.086 194.108,77.476 191.698,76.646 C188.938,75.697 187.158,73.357 186.229,71.777 L170.459,81.166 C176.988,82.237 181.988,87.907 181.988,94.737 C181.988,102.326 175.818,108.5 168.229,108.5 L145.749,108.5 L145.749,113.6 L186.229,137.71 C187.158,136.13 188.938,133.79 191.698,132.84 C194.108,132.01 196.709,132.4 199.419,133.99 C204.919,137.21 205.469,143.16 203.188,147.12 C201.809,149.51 199.249,151.37 196.028,151.46 C196.538,153.43 196.969,156.49 195.818,159.09 C194.988,160.97 193.509,162.3 191.419,163.05 C190.118,163.52 188.778,163.74 187.459,163.74 C184.408,163.74 181.519,162.54 179.719,160.35 C177.438,157.59 177.269,153.81 179.209,149.82 L145.749,129.9 L145.749,131.47 L116.889,150.6 L116.889,150.61 L116.049,151.16 L115.209,150.61 L86.349,131.47 L86.349,129.9 L52.889,149.82 C54.828,153.81 54.658,157.59 52.389,160.35 C50.578,162.54 47.688,163.74 44.639,163.74 C43.328,163.74 41.979,163.52 40.679,163.05 C38.589,162.3 37.108,160.97 36.278,159.09 C35.139,156.49 35.568,153.43 36.068,151.46 C32.858,151.37 30.288,149.51 28.908,147.12 C26.629,143.16 27.179,137.21 32.679,133.99 C35.389,132.4 37.988,132.01 40.398,132.84 C43.158,133.79 44.938,136.13 45.868,137.71 L86.349,113.6 L86.349,113.6 Z M141.078,194.36 L116.049,179.67 L91.019,194.36 L91.019,204 L101.688,204 L101.688,198.13 L116.049,189.52 L130.419,198.13 L130.419,204 L141.078,204 L141.078,194.36 L141.078,194.36 Z M127.419,199.83 L116.049,193.02 L104.688,199.83 L104.688,204 L127.419,204 L127.419,199.83 L127.419,199.83 Z M215.749,205.5 C215.749,206.33 215.078,207 214.249,207 L168.019,207 L162.839,202.43 L156.749,207 L75.349,207 L69.269,202.43 L64.089,207 L17.849,207 C17.019,207 16.349,206.33 16.349,205.5 C16.349,204.67 17.019,204 17.849,204 L31.839,204 L46.839,186.96 L64.188,186.96 C65.019,186.96 65.688,187.63 65.688,188.46 C65.688,189.29 65.019,189.96 64.188,189.96 L48.198,189.96 L35.839,204 L62.948,204 L69.108,198.57 L76.349,204 L88.019,204 L88.019,192.64 L106.318,181.9 L102.358,175.59 L93.849,175.59 C93.028,175.59 92.349,174.92 92.349,174.09 C92.349,173.26 93.028,172.59 93.849,172.59 L100.479,172.59 L90.688,157 L75.188,157 C74.358,157 73.688,156.33 73.688,155.5 C73.688,154.67 74.358,154 75.188,154 L92.349,154 L108.908,180.39 L116.049,176.19 L123.188,180.39 L139.749,154 L156.908,154 C157.738,154 158.408,154.67 158.408,155.5 C158.408,156.33 157.738,157 156.908,157 L141.408,157 L131.629,172.59 L138.249,172.59 C139.078,172.59 139.749,173.26 139.749,174.09 C139.749,174.92 139.078,175.59 138.249,175.59 L129.738,175.59 L125.778,181.9 L144.078,192.64 L144.078,204 L155.749,204 L162.988,198.57 L169.148,204 L196.259,204 L183.898,189.96 L167.908,189.96 C167.089,189.96 166.408,189.29 166.408,188.46 C166.408,187.63 167.089,186.96 167.908,186.96 L185.259,186.96 L200.259,204 L214.249,204 C215.078,204 215.749,204.67 215.749,205.5 L215.749,205.5 Z M75.188,186.96 C74.358,186.96 73.688,187.63 73.688,188.46 C73.688,189.29 74.358,189.96 75.188,189.96 L80.519,189.96 C81.349,189.96 82.019,189.29 82.019,188.46 C82.019,187.63 81.349,186.96 80.519,186.96 L75.188,186.96 L75.188,186.96 Z M87.688,174.09 C87.688,173.26 87.019,172.59 86.188,172.59 L58.519,172.59 C57.688,172.59 57.019,173.26 57.019,174.09 C57.019,174.92 57.688,175.59 58.519,175.59 L86.188,175.59 C87.019,175.59 87.688,174.92 87.688,174.09 L87.688,174.09 Z M100.568,73.666 C102.429,70.956 103.519,67.677 103.519,64.157 L103.519,44.826 C103.519,39.407 99.108,34.996 93.688,34.996 L93.188,34.996 C87.759,34.996 83.349,39.407 83.349,44.826 L83.349,63.826 C83.349,69.256 87.759,73.666 93.188,73.666 L100.568,73.666 L100.568,73.666 Z M86.698,83.976 L81.849,83.976 C81.019,83.976 80.349,83.306 80.349,82.476 C80.349,81.646 81.019,80.976 81.849,80.976 L86.698,80.976 C91.009,80.976 94.948,79.347 97.929,76.666 L93.188,76.666 C86.108,76.666 80.349,70.907 80.349,63.826 L80.349,44.826 C80.349,37.756 86.108,31.996 93.188,31.996 L93.688,31.996 C100.759,31.996 106.519,37.756 106.519,44.826 L106.519,64.157 C106.519,68.466 105.129,72.466 102.778,75.726 C102.679,75.966 102.519,76.187 102.318,76.347 C98.688,80.987 93.028,83.976 86.698,83.976 L86.698,83.976 Z M95.729,50.496 C93.908,50.496 92.438,51.966 92.438,53.786 L92.438,59.956 C92.438,61.777 93.908,63.246 95.729,63.246 C97.549,63.246 99.019,61.777 99.019,59.956 L99.019,53.786 C99.019,51.966 97.549,50.496 95.729,50.496 L95.729,50.496 Z M116.049,157.11 C113.809,157.11 111.988,158.93 111.988,161.17 C111.988,163.4 113.809,165.23 116.049,165.23 C118.288,165.23 120.108,163.4 120.108,161.17 C120.108,158.93 118.288,157.11 116.049,157.11 L116.049,157.11 Z M116.049,154.11 C119.938,154.11 123.108,157.27 123.108,161.17 C123.108,165.06 119.938,168.23 116.049,168.23 C112.158,168.23 108.988,165.06 108.988,161.17 C108.988,157.27 112.158,154.11 116.049,154.11 L116.049,154.11 Z M116.049,74.407 L108.749,89.357 L116.049,93.237 L123.349,89.357 L116.049,74.407 L116.049,74.407 Z M104.788,90.636 L116.049,67.576 L127.318,90.636 L116.049,96.636 L104.788,90.636 L104.788,90.636 Z M128.578,64.157 C128.578,67.677 129.669,70.956 131.538,73.666 L138.919,73.666 C144.339,73.666 148.749,69.256 148.749,63.826 L148.749,44.826 C148.749,39.407 144.339,34.996 138.919,34.996 L138.419,34.996 C132.988,34.996 128.578,39.407 128.578,44.826 L128.578,64.157 L128.578,64.157 Z M129.318,75.726 C126.969,72.466 125.578,68.466 125.578,64.157 L125.578,44.826 C125.578,37.756 131.339,31.996 138.419,31.996 L138.919,31.996 C145.988,31.996 151.749,37.756 151.749,44.826 L151.749,63.826 C151.749,70.907 145.988,76.666 138.919,76.666 L134.169,76.666 C137.148,79.347 141.089,80.976 145.398,80.976 L150.249,80.976 C151.078,80.976 151.749,81.646 151.749,82.476 C151.749,83.306 151.078,83.976 150.249,83.976 L145.398,83.976 C139.068,83.976 133.419,80.987 129.788,76.347 C129.578,76.187 129.419,75.966 129.318,75.726 L129.318,75.726 Z M136.368,63.246 C138.188,63.246 139.669,61.777 139.669,59.956 L139.669,53.786 C139.669,51.966 138.188,50.496 136.368,50.496 C134.559,50.496 133.078,51.966 133.078,53.786 L133.078,59.956 C133.078,61.777 134.559,63.246 136.368,63.246 L136.368,63.246 Z M151.578,186.96 C150.749,186.96 150.078,187.63 150.078,188.46 C150.078,189.29 150.749,189.96 151.578,189.96 L156.908,189.96 C157.738,189.96 158.408,189.29 158.408,188.46 C158.408,187.63 157.738,186.96 156.908,186.96 L151.578,186.96 L151.578,186.96 Z M175.078,174.09 C175.078,173.26 174.408,172.59 173.578,172.59 L145.908,172.59 C145.089,172.59 144.408,173.26 144.408,174.09 C144.408,174.92 145.089,175.59 145.908,175.59 L173.578,175.59 C174.408,175.59 175.078,174.92 175.078,174.09 L175.078,174.09 Z M232.078,205.5 C232.078,206.33 231.408,207 230.578,207 L221.578,207 C220.759,207 220.078,206.33 220.078,205.5 C220.078,204.67 220.759,204 221.578,204 L230.578,204 C231.408,204 232.078,204.67 232.078,205.5 L232.078,205.5 Z" id="Fill-50" fill="#42384B" mask="url(#mask-2)"></path>
        </g>
    </g>
</svg>