<?xml version="1.0" encoding="UTF-8" standalone="no"?>
<svg width="223px" height="230px" viewBox="0 0 223 230" version="1.1" xmlns="http://www.w3.org/2000/svg" xmlns:xlink="http://www.w3.org/1999/xlink">
    <!-- Generator: Sketch 39.1 (31720) - http://www.bohemiancoding.com/sketch -->
    <title>Slice 1</title>
    <desc>Created with Sketch.</desc>
    <defs></defs>
    <g id="Page-1" stroke="none" stroke-width="1" fill="none" fill-rule="evenodd">
        <path d="M66.617,137.24 L70.017,131.32 L72.867,133.44 L70.158,140.2 L66.617,137.24 L66.617,137.24 Z M155.83,171.1 L155.83,164.67 L156.09,164.53 C157.66,163.65 161.3,161.58 164.08,160 L165.24,159.34 L161.13,171.1 L155.83,171.1 L155.83,171.1 Z M43.651,171.51 L39.772,156.42 L50.33,164.59 L50.33,173.09 L43.651,171.51 L43.651,171.51 Z M64.002,226.85 L58.348,212.8 L79.241,220.41 C79.353,220.45 79.466,220.47 79.582,220.47 C79.786,220.47 79.983,220.4 80.153,220.29 L104.103,203.47 L117.522,221.69 C117.715,221.94 118.012,222.09 118.333,222.09 C118.468,222.09 118.6,222.07 118.726,222.01 L151.94,207.68 L150.17,226.85 L64.002,226.85 L64.002,226.85 Z" id="Fill-87" fill="#FACD5D"></path>
        <path d="M123.259,24.286 C122.5,24.146 121.767,23.957 121.014,23.709 C120.213,23.452 118.992,23.074 117.675,22.761 L117.253,22.661 L118.072,13.64 C118.105,13.296 117.956,12.96 117.672,12.739 C117.508,12.621 117.299,12.553 117.085,12.553 C116.956,12.553 116.831,12.577 116.713,12.626 C116.559,12.688 115.779,12.976 114.763,12.976 C113.518,12.976 111.779,12.541 110.568,10.467 C109.604,8.808 109.645,7.004 110.68,5.519 C111.623,4.151 113.166,3.365 114.91,3.365 C115.24,3.365 115.575,3.394 115.906,3.452 C118.946,3.984 119.809,5.261 119.839,5.933 C119.798,6.453 120.056,6.867 120.478,7.029 C120.592,7.072 120.711,7.093 120.832,7.093 C121.148,7.093 121.449,6.942 121.639,6.687 C121.948,6.284 124.69,2.878 128.52,2.878 C129.31,2.878 130.09,3.022 130.85,3.306 C133.81,4.398 134.34,6.863 134.4,8.235 C134.5,10.564 133.39,12.807 131.77,13.568 C131.24,13.822 130.64,13.951 130.01,13.951 C128.04,13.951 126.39,12.719 126.38,12.707 C126.25,12.622 126.05,12.554 125.83,12.554 C125.69,12.554 125.55,12.583 125.42,12.641 C125.1,12.788 124.87,13.103 124.84,13.461 L123.796,24.387 L123.259,24.286 L123.259,24.286 Z M126.01,47.114 C122.33,47.114 120.624,46.348 119.934,45.892 L119.192,45.401 L119.997,45.023 C121.384,44.37 123.431,43.908 126.4,43.276 C127.78,42.992 129.43,42.642 131.23,42.19 C132.19,41.951 133.09,41.703 133.94,41.454 L134.37,41.331 L134.54,41.739 C135.18,43.239 135.27,44.32 134.81,45.042 C134.04,46.275 131.5,46.947 127.05,47.095 C126.68,47.108 126.34,47.114 126.01,47.114 L126.01,47.114 Z" id="Fill-88" fill="#FCF0D4"></path>
        <path d="M92.37,26.375 C90.498,26.375 88.357,25.452 86.675,18.604 C86.404,17.505 86.176,16.357 85.996,15.191 C85.241,10.38 85.37,5.133 87.359,4.257 C89.937,3.134 92.19,2.565 94.061,2.565 C99.379,2.565 101.208,7.084 102.296,11.506 L102.506,12.36 L101.665,12.104 C100.675,11.802 99.559,11.649 98.35,11.649 C94.257,11.649 90.349,13.365 89.916,13.56 C89.491,13.753 89.257,14.223 89.358,14.676 C89.375,14.76 89.405,14.838 89.434,14.908 C89.585,15.241 89.941,15.469 90.333,15.469 C90.475,15.469 90.613,15.439 90.744,15.38 C92.151,14.741 95.334,13.658 98.332,13.658 C100.207,13.658 101.735,14.075 102.873,14.9 L103.034,15.017 L103.271,16.344 L103.343,16.774 C103.707,18.825 103.333,20.552 102.198,22.048 C99.974,24.963 95.286,26.125 92.867,26.353 C92.634,26.367 92.506,26.375 92.37,26.375 L92.37,26.375 Z M64.972,40.535 C64.103,40.511 63.339,40.144 62.631,39.412 L62.149,38.914 L62.773,38.615 C64.818,37.629 67.513,35.926 68.729,33.408 C68.97,32.907 68.762,32.304 68.264,32.065 C68.129,31.999 67.986,31.967 67.838,31.967 C67.454,31.967 67.098,32.189 66.93,32.533 C65.816,34.831 62.872,36.373 61.658,36.929 L61.181,37.149 L60.985,36.66 C59.566,33.103 58.996,27.286 60.736,23.515 C61.615,21.606 63.523,20.108 65.973,19.405 C66.927,19.129 67.903,18.99 68.875,18.99 C70.64,18.99 72.265,19.446 73.574,20.307 C74.796,21.114 76.165,22.566 77.646,24.623 L77.793,24.827 L77.717,25.068 C77.171,26.776 76.49,28.229 75.692,29.388 L75.011,30.378 L74.789,29.198 C74.292,26.553 73.383,24.469 73.373,24.449 C73.214,24.08 72.853,23.845 72.452,23.845 C72.315,23.845 72.182,23.872 72.055,23.926 C71.556,24.149 71.32,24.742 71.539,25.245 C72.109,26.544 73.088,29.468 73.13,32.177 C73.119,32.312 73.12,32.393 73.12,32.465 C73.108,34.258 72.645,35.618 71.741,36.51 C68.426,39.837 66.261,40.535 65.029,40.535 L64.972,40.535 L64.972,40.535 Z M75.094,50.665 C73.224,47.603 71.111,42.818 70.29,40.903 L70.136,40.542 L70.449,40.306 C71.344,39.632 72.233,38.855 73.169,37.93 C74.297,36.792 74.941,35.18 75.081,33.141 L75.097,32.914 L75.277,32.778 C76.043,32.194 77.521,30.777 78.813,27.834 L79.2,26.951 L79.698,27.777 C82.202,31.924 84.979,37.639 87.951,44.763 L88.161,45.265 L87.643,45.432 C83.296,46.824 79.307,48.641 75.784,50.829 L75.356,51.095 L75.094,50.665 L75.094,50.665 Z M51.956,60.602 C51.508,60.602 51.216,60.472 51.018,60.335 L50.969,60.335 L50.79,60.151 L50.663,60.032 C50.437,59.816 50.214,59.602 50.004,59.375 L49.646,58.991 L50.049,58.653 C51.312,57.594 53.056,55.922 54.198,53.972 C54.472,53.5 54.309,52.886 53.835,52.606 C53.683,52.516 53.507,52.468 53.329,52.468 C52.969,52.468 52.645,52.655 52.462,52.967 C51.48,54.654 49.908,56.156 48.762,57.117 L48.345,57.468 L48.031,57.023 C46.31,54.577 45.547,52.086 45.701,49.407 C45.791,47.852 46.401,46.749 47.517,46.128 C48.285,45.702 49.291,45.487 50.507,45.487 C52.881,45.487 55.739,46.303 58.35,47.727 C58.857,48 59.347,48.286 59.816,48.582 C60.391,49.032 60.576,49.466 60.678,49.797 C61.144,51.526 59.821,53.932 58.631,55.65 C56.855,58.219 54.127,60.339 52.285,60.581 C52.161,60.596 52.055,60.602 51.956,60.602 L51.956,60.602 Z M82.358,60.598 C81.929,60.598 81.55,60.873 81.415,61.282 C81.328,61.533 81.345,61.798 81.459,62.034 C81.578,62.28 81.785,62.463 82.043,62.552 C82.187,62.594 98.629,68.193 105.197,85.386 C105.349,85.781 105.718,86.035 106.14,86.035 C106.242,86.035 106.374,86.009 106.502,85.964 C107.006,85.77 107.267,85.189 107.072,84.672 C100.189,66.677 83.384,60.887 82.672,60.65 C82.57,60.616 82.465,60.598 82.358,60.598 L82.358,60.598 Z M107.747,89.285 C107.67,89.285 107.592,89.294 107.515,89.312 C107.251,89.374 107.028,89.533 106.889,89.759 C106.749,89.984 106.706,90.25 106.767,90.511 C107.415,93.324 107.789,96.305 107.88,99.37 C107.894,99.908 108.338,100.345 108.87,100.345 C109.168,100.339 109.419,100.227 109.604,100.032 C109.785,99.838 109.88,99.587 109.87,99.324 C109.792,96.144 109.402,93.028 108.713,90.058 C108.606,89.604 108.209,89.285 107.747,89.285 L107.747,89.285 Z M105.677,111.094 C105.183,111.094 104.757,111.49 104.708,111.993 C104.682,112.261 104.761,112.523 104.93,112.729 C105.1,112.934 105.34,113.062 105.608,113.087 C106.999,113.226 108.389,113.295 109.74,113.295 L110.09,113.295 C110.354,113.292 110.606,113.186 110.795,112.995 C110.981,112.807 111.083,112.557 111.08,112.291 C111.073,111.742 110.625,111.295 110.08,111.295 L109.779,111.296 C108.448,111.296 107.109,111.231 105.801,111.103 C105.751,111.097 105.714,111.094 105.677,111.094 L105.677,111.094 Z M96.108,147.31 C95.63,147.31 95.219,147.66 95.132,148.14 C94.619,151.01 94.013,153.96 93.327,156.91 C93.266,157.17 93.31,157.44 93.45,157.67 C93.592,157.9 93.813,158.06 94.074,158.12 C94.132,158.13 94.22,158.14 94.3,158.14 C94.769,158.14 95.168,157.82 95.272,157.37 C95.966,154.37 96.58,151.38 97.098,148.49 C97.146,148.22 97.09,147.95 96.937,147.73 C96.785,147.52 96.558,147.37 96.296,147.33 C96.228,147.32 96.168,147.31 96.108,147.31 L96.108,147.31 Z M105.138,201.5 C104.944,201.24 104.649,201.09 104.329,201.09 C104.125,201.09 103.927,201.15 103.757,201.27 L83.771,215.3 L83.988,214.1 C86.484,200.39 90.153,180.82 93.462,165.48 C93.516,165.22 93.467,164.95 93.322,164.73 C93.179,164.5 92.956,164.35 92.697,164.29 C92.621,164.28 92.549,164.27 92.478,164.27 C92.013,164.27 91.605,164.6 91.51,165.06 C87.998,181.3 84.119,202.12 81.482,216.73 L81.446,216.93 L79.435,218.35 L72.804,215.94 L72.878,215.53 C73.613,211.4 80.205,174.59 85.053,153.82 C89.185,136.14 89.771,120.447 89.83,114.52 L89.835,114.025 L90.33,114.025 C93.279,114.025 95.585,113.339 96.441,113.044 C96.979,112.843 97.244,112.265 97.052,111.75 C96.91,111.356 96.533,111.094 96.112,111.094 C95.996,111.094 95.881,111.115 95.771,111.155 C95.756,111.16 93.45,112.01 90.391,112.01 C86.935,112.01 84.031,110.951 81.761,108.864 C75.516,103.124 71.066,98.075 70.7,85.32 C70.661,83.973 70.573,82.772 70.434,81.647 C69.441,73.19 65.842,70.913 61.673,68.278 L61.558,68.204 C60.624,67.612 59.659,66.999 58.667,66.281 L57.711,65.603 C56.494,64.729 55.271,63.845 54.087,62.943 L53.404,62.423 L54.193,62.085 C56.738,60.996 59.063,58.553 60.279,56.791 C61.638,54.824 62.447,53.04 62.686,51.489 L62.817,50.631 L63.493,51.175 C65.928,53.133 67.65,55.02 68.461,55.971 L68.755,56.317 L68.439,56.643 C67.496,57.617 67.053,58.224 67.034,58.249 C66.869,58.467 66.803,58.727 66.841,58.988 C66.879,59.251 67.02,59.484 67.235,59.642 C67.416,59.776 67.62,59.845 67.83,59.845 C68.149,59.845 68.439,59.698 68.625,59.442 C69.598,58.204 78.563,47.507 99.957,44.779 C100.5,44.706 100.891,44.202 100.824,43.656 C100.757,43.153 100.337,42.783 99.826,42.783 C99.785,42.783 99.742,42.786 99.7,42.791 C97.383,43.087 95.102,43.491 92.923,43.992 L92.456,44.1 L92.329,43.639 C91.374,40.195 89.624,33.593 88.618,28.085 L88.419,26.99 L89.37,27.569 C90.263,28.112 91.244,28.375 92.37,28.375 C92.59,28.375 92.81,28.366 93.029,28.339 C93.748,28.275 100.009,27.609 103.403,23.716 L104.079,22.943 L104.271,23.951 C105.237,29.01 106.623,36.692 107.215,39.972 C107.366,40.813 107.459,41.329 107.47,41.384 L107.516,41.499 L107.565,41.653 L107.517,41.807 C107.223,42.728 106.827,43.931 106.609,44.434 L106.571,44.521 L106.504,44.588 C106.391,44.701 106.248,44.896 106.217,45.171 C106.181,45.441 106.251,45.699 106.412,45.908 C106.577,46.121 106.814,46.256 107.081,46.289 C107.159,46.303 107.217,46.305 107.27,46.305 L107.32,46.305 C108.12,46.305 108.416,45.503 109.423,42.438 C109.885,41.007 110.368,39.534 110.884,38.204 C111.826,35.801 112.335,30.871 112.706,27.271 L112.723,27.114 C112.813,26.231 112.914,25.266 112.994,24.623 L113.05,24.176 L113.5,24.185 C114.735,24.21 116.935,24.478 120.396,25.61 C121.771,26.063 123.178,26.358 124.58,26.487 L124.77,26.504 L124.78,26.515 C125.37,26.563 125.92,26.586 126.46,26.586 C127.07,26.585 127.66,26.556 128.22,26.498 L128.8,26.438 L128.77,27.024 C128.6,29.999 128.04,35.778 126.13,41.045 L126.04,41.307 L125.76,41.365 C119.157,42.768 115.131,43.914 115.578,49.545 C116.103,56.106 118.91,60.101 124.16,61.758 L125.25,62.101 L124.26,62.668 C112.69,69.324 112.78,80.197 112.829,81.414 C112.868,81.938 113.308,82.345 113.83,82.345 L113.94,82.345 C114.452,82.3 114.871,81.818 114.831,81.271 C114.821,81.15 113.981,68.64 128.92,62.651 L129.03,62.61 L129.14,62.616 C129.65,62.644 130.15,62.658 130.63,62.658 C138.58,62.657 142.4,59.071 142.81,58.661 C143.18,58.28 143.17,57.647 142.78,57.258 C142.59,57.076 142.34,56.975 142.08,56.975 C141.81,56.975 141.55,57.079 141.36,57.269 C141.34,57.29 138.11,60.664 130.64,60.664 C130.09,60.664 129.5,60.645 128.9,60.604 C121.646,60.099 118.157,56.642 117.582,49.395 C117.518,48.702 117.551,48.108 117.686,47.581 L117.876,46.838 L118.479,47.312 C119.525,48.134 121.69,49.115 126.06,49.115 C126.39,49.115 126.73,49.106 127.09,49.096 C132.5,48.911 135.31,48.015 136.51,46.1 C137.3,44.846 137.29,43.251 136.49,41.22 L136.29,40.73 L136.79,40.562 C138.29,40.054 139.61,39.559 140.76,39.122 L140.96,39.047 C143.71,38.012 145.47,37.345 147.33,37.345 C147.92,37.345 148.63,37.813 149.26,38.627 C150.53,40.27 151.4,42.945 151.8,46.367 C152.25,50.393 152.22,57.362 149.48,67.713 C142.46,94.434 131.07,108.577 114.682,110.95 C114.417,110.989 114.183,111.128 114.022,111.342 C113.862,111.556 113.796,111.819 113.835,112.082 C113.907,112.574 114.331,112.945 114.82,112.945 C114.875,112.945 114.922,112.937 114.969,112.93 C117.288,112.594 119.583,112.014 121.788,111.205 L122.341,111.003 L122.451,111.581 C123.804,118.658 127.23,137.54 129.84,159.96 C132.58,183.55 136.53,205.17 137.67,211.23 L137.75,211.63 L118.663,219.86 L105.138,201.5 L105.138,201.5 Z" id="Fill-89" fill="#9EA979"></path>
        <path d="M12.16,226.35 L1.83,226.35 C1,226.35 0.33,227.01 0.33,227.85 C0.33,228.68 1,229.35 1.83,229.35 L12.16,229.35 C12.99,229.35 13.66,228.68 13.66,227.85 C13.66,227.01 12.99,226.35 12.16,226.35 L12.16,226.35 Z M38.08,86.845 L43.58,86.845 L43.58,92.345 C43.58,93.175 44.25,93.845 45.08,93.845 C45.91,93.845 46.58,93.175 46.58,92.345 L46.58,86.845 L52.08,86.845 C52.91,86.845 53.58,86.175 53.58,85.345 C53.58,84.515 52.91,83.845 52.08,83.845 L46.58,83.845 L46.58,78.345 C46.58,77.515 45.91,76.845 45.08,76.845 C44.25,76.845 43.58,77.515 43.58,78.345 L43.58,83.845 L38.08,83.845 C37.25,83.845 36.58,84.515 36.58,85.345 C36.58,86.175 37.25,86.845 38.08,86.845 L38.08,86.845 Z M49.83,164.84 L40.62,157.71 L44.061,171.1 L49.83,172.46 L49.83,164.84 L49.83,164.84 Z M52.25,162.9 C52.62,163.19 52.83,163.64 52.83,164.1 L52.83,174.35 C52.83,174.8 52.62,175.23 52.26,175.52 C51.99,175.73 51.66,175.85 51.33,175.85 C51.22,175.85 51.1,175.84 50.99,175.8 L42.49,173.8 C41.94,173.68 41.521,173.26 41.38,172.72 L36.63,154.22 C36.47,153.6 36.72,152.94 37.26,152.6 C37.79,152.23 38.49,152.26 39,152.65 L52.25,162.9 L52.25,162.9 Z M67.26,137.13 L69.95,139.38 L72.26,133.61 L70.17,132.05 L67.26,137.13 L67.26,137.13 Z M69.62,143 L64.37,138.63 C63.811,138.15 63.67,137.35 64.03,136.72 L68.4,129.1 C68.62,128.72 68.98,128.47 69.4,128.38 C69.82,128.3 70.26,128.39 70.6,128.64 L74.97,131.89 C75.521,132.3 75.73,133.01 75.47,133.65 L71.97,142.4 C71.79,142.85 71.41,143.18 70.95,143.3 C70.83,143.34 70.7,143.35 70.58,143.35 C70.23,143.35 69.89,143.22 69.62,143 L69.62,143 Z M93.96,158.6 C94.07,158.63 94.19,158.64 94.3,158.64 C94.98,158.64 95.6,158.18 95.76,157.48 C96.43,154.59 97.05,151.6 97.59,148.58 C97.74,147.76 97.2,146.97 96.38,146.84 C95.57,146.68 94.79,147.22 94.64,148.05 C94.11,151.01 93.5,153.96 92.84,156.8 C92.65,157.6 93.15,158.42 93.96,158.6 L93.96,158.6 Z M106.14,86.535 C106.311,86.535 106.5,86.495 106.67,86.435 C107.45,86.135 107.83,85.265 107.54,84.495 C100.57,66.275 83.55,60.415 82.83,60.175 C82.05,59.915 81.2,60.335 80.94,61.125 C80.67,61.905 81.1,62.755 81.88,63.025 C82.05,63.075 98.29,68.705 104.73,85.565 C104.96,86.165 105.53,86.535 106.14,86.535 L106.14,86.535 Z M106.28,90.625 C106.92,93.405 107.29,96.355 107.38,99.385 C107.4,100.195 108.061,100.845 108.87,100.845 L108.91,100.845 C109.74,100.825 110.4,100.135 110.37,99.305 C110.29,96.065 109.89,92.915 109.2,89.945 C109.01,89.135 108.21,88.635 107.4,88.825 C106.59,89.015 106.09,89.815 106.28,90.625 L106.28,90.625 Z M110.07,110.795 C108.69,110.805 107.28,110.745 105.85,110.605 C105.03,110.505 104.29,111.125 104.21,111.945 C104.13,112.775 104.73,113.505 105.561,113.585 C106.97,113.725 108.37,113.795 109.74,113.795 L110.09,113.795 C110.92,113.785 111.59,113.115 111.58,112.285 C111.57,111.465 110.9,110.795 110.08,110.795 L110.07,110.795 L110.07,110.795 Z M150.58,109.595 C150.58,108.765 149.91,108.095 149.08,108.095 C148.25,108.095 147.58,108.765 147.58,109.595 L147.58,115.095 L142.08,115.095 C141.25,115.095 140.58,115.765 140.58,116.595 C140.58,117.425 141.25,118.095 142.08,118.095 L147.58,118.095 L147.58,123.595 C147.58,124.425 148.25,125.095 149.08,125.095 C149.91,125.095 150.58,124.425 150.58,123.595 L150.58,118.095 L156.08,118.095 C156.91,118.095 157.58,117.425 157.58,116.595 C157.58,115.765 156.91,115.095 156.08,115.095 L150.58,115.095 L150.58,109.595 L150.58,109.595 Z M156.33,170.6 L160.77,170.6 L164.33,160.43 C161.55,162.01 157.9,164.09 156.33,164.97 L156.33,170.6 L156.33,170.6 Z M154.09,162.79 C157.29,160.98 165.7,156.22 166.3,155.85 C166.84,155.52 167.53,155.58 168.03,155.97 C168.52,156.38 168.71,157.04 168.5,157.64 L163.25,172.6 C163.03,173.19 162.47,173.6 161.83,173.6 L154.83,173.6 C154,173.6 153.33,172.93 153.33,172.1 L153.33,164.1 C153.33,163.55 153.62,163.05 154.09,162.79 L154.09,162.79 Z M151.36,208.47 L118.92,222.47 C118.28,222.75 117.54,222.55 117.12,221.98 L103.99,204.17 L80.44,220.69 C80.04,220.97 79.53,221.05 79.07,220.88 L59.23,213.65 L64.34,226.35 L149.71,226.35 L151.36,208.47 L151.36,208.47 Z M73.37,215.61 L79.36,217.8 L80.99,216.64 C82.78,206.72 87.09,183.14 91.021,164.96 C91.19,164.14 91.99,163.63 92.8,163.8 C93.61,163.97 94.12,164.77 93.95,165.59 C90.39,182.1 86.5,203.1 84.48,214.19 L103.47,200.86 C104.14,200.39 105.05,200.55 105.54,201.21 L118.83,219.25 L137.18,211.33 C136.19,206.09 132.16,184.29 129.34,160.01 C126.65,136.88 123.07,117.485 121.96,111.675 C119.75,112.485 117.45,113.075 115.04,113.425 C114.97,113.435 114.9,113.445 114.82,113.445 C114.09,113.445 113.45,112.905 113.34,112.155 C113.22,111.335 113.79,110.575 114.61,110.455 C130.78,108.115 142.03,94.095 149,67.585 C151.41,58.455 151.86,51.405 151.3,46.425 C150.89,42.865 149.97,40.365 148.87,38.935 C148.34,38.255 147.76,37.845 147.33,37.845 C145.55,37.845 143.79,38.515 141.14,39.515 C139.92,39.975 138.55,40.495 136.95,41.035 C137.81,43.205 137.82,44.955 136.93,46.365 C135.63,48.445 132.7,49.405 127.13,49.595 C126.76,49.605 126.4,49.615 126.06,49.615 C121.561,49.615 119.29,48.585 118.17,47.705 C118.05,48.175 118.021,48.715 118.08,49.355 C118.64,56.405 121.89,59.615 128.93,60.105 C137.16,60.665 140.86,57.075 141.01,56.915 C141.59,56.335 142.54,56.325 143.13,56.905 C143.71,57.485 143.73,58.425 143.16,59.015 C142.97,59.205 138.55,63.635 129.11,63.115 C114.59,68.935 115.32,81.115 115.33,81.235 C115.39,82.055 114.771,82.775 113.94,82.845 L113.83,82.845 C113.05,82.845 112.39,82.245 112.33,81.455 C112.33,81.325 111.6,69.375 124.01,62.235 C118.561,60.515 115.62,56.345 115.08,49.585 C114.58,43.295 119.45,42.195 125.66,40.875 C127.56,35.625 128.11,29.845 128.27,26.995 C127.31,27.095 126.04,27.135 124.57,26.995 L124.55,26.995 C124.54,26.985 124.54,26.985 124.53,26.985 C123.23,26.865 121.79,26.595 120.24,26.085 C116.63,24.905 114.49,24.705 113.49,24.685 C113.41,25.325 113.311,26.285 113.22,27.165 C112.84,30.845 112.33,35.885 111.35,38.385 C110.83,39.725 110.34,41.225 109.91,42.555 C108.88,45.695 108.521,46.805 107.32,46.805 C107.22,46.805 107.12,46.805 107.021,46.785 C106.2,46.685 105.61,45.935 105.72,45.115 C105.76,44.765 105.92,44.465 106.15,44.235 C106.35,43.775 106.73,42.625 107.04,41.655 C107.021,41.595 106.99,41.545 106.98,41.485 C106.95,41.345 105.01,30.485 103.78,24.045 C100.37,27.955 94.32,28.725 93.09,28.835 C92.85,28.865 92.61,28.875 92.37,28.875 C91.1,28.875 90.03,28.555 89.11,27.995 C90.15,33.695 92.01,40.615 92.811,43.505 C94.94,43.015 97.21,42.605 99.64,42.295 C100.47,42.195 101.21,42.775 101.32,43.595 C101.42,44.415 100.84,45.165 100.021,45.275 C77.91,48.095 69.12,59.625 69.03,59.735 C68.74,60.135 68.29,60.345 67.83,60.345 C67.521,60.345 67.21,60.245 66.94,60.045 C66.271,59.555 66.13,58.615 66.63,57.955 C66.71,57.845 67.18,57.225 68.08,56.295 C67.33,55.415 65.63,53.535 63.18,51.565 C62.93,53.195 62.1,55.035 60.69,57.075 C59.24,59.175 56.82,61.505 54.39,62.545 C55.57,63.445 56.79,64.325 58,65.195 L58.96,65.875 C59.98,66.615 60.98,67.245 61.94,67.855 C66.18,70.535 69.91,72.895 70.93,81.585 C71.07,82.715 71.16,83.945 71.2,85.305 C71.561,97.855 75.94,102.835 82.1,108.495 C87.61,113.565 95.521,110.715 95.6,110.685 C96.37,110.405 97.24,110.795 97.521,111.575 C97.811,112.355 97.41,113.215 96.64,113.505 C96.43,113.575 93.811,114.525 90.37,114.525 L90.33,114.525 C90.271,120.415 89.69,136.18 85.54,153.93 C80.87,173.94 74.61,208.65 73.37,215.61 L73.37,215.61 Z M52.22,60.085 C53.9,59.865 56.54,57.795 58.22,55.365 C59.82,53.055 60.521,51.135 60.2,49.945 C60.12,49.685 59.98,49.345 59.55,49.005 C59.09,48.715 58.61,48.435 58.11,48.165 C54.24,46.055 49.89,45.385 47.76,46.565 C46.79,47.105 46.28,48.045 46.2,49.435 C46.04,52.225 46.94,54.605 48.44,56.735 C49.5,55.845 51.07,54.365 52.03,52.715 C52.45,51.995 53.37,51.755 54.09,52.175 C54.8,52.595 55.04,53.515 54.63,54.225 C53.44,56.255 51.61,57.995 50.37,59.035 C50.62,59.305 50.89,59.555 51.16,59.815 C51.17,59.825 51.18,59.835 51.19,59.835 C51.37,59.995 51.64,60.155 52.22,60.085 L52.22,60.085 Z M75.521,50.405 C78.61,48.485 82.561,46.535 87.49,44.955 C84.23,37.145 81.51,31.745 79.271,28.035 C77.98,30.975 76.5,32.475 75.58,33.175 C75.45,35.065 74.89,36.905 73.521,38.285 C72.55,39.245 71.64,40.035 70.75,40.705 C71.65,42.805 73.72,47.455 75.521,50.405 L75.521,50.405 Z M71.39,36.155 C72.28,35.275 72.61,33.925 72.62,32.465 C72.62,32.375 72.62,32.275 72.63,32.185 C72.59,29.615 71.66,26.765 71.08,25.445 C70.75,24.685 71.1,23.805 71.86,23.465 C72.62,23.145 73.5,23.485 73.83,24.245 C73.91,24.425 74.79,26.495 75.28,29.105 C75.92,28.175 76.63,26.825 77.24,24.915 C75.6,22.635 74.3,21.385 73.3,20.725 C71.37,19.455 68.68,19.145 66.11,19.885 C63.811,20.545 62.01,21.945 61.19,23.725 C59.58,27.215 60.01,32.865 61.45,36.475 C63.13,35.705 65.55,34.235 66.48,32.315 C66.84,31.575 67.74,31.255 68.48,31.615 C69.23,31.975 69.54,32.875 69.18,33.625 C67.86,36.355 64.92,38.135 62.99,39.065 C63.6,39.695 64.24,40.015 64.98,40.035 C66.09,40.055 68.14,39.415 71.39,36.155 L71.39,36.155 Z M92.37,25.875 C92.521,25.875 92.66,25.865 92.82,25.855 C95.16,25.635 99.68,24.525 101.8,21.745 C102.84,20.375 103.19,18.775 102.85,16.855 L102.78,16.435 C102.71,16.055 102.65,15.675 102.58,15.305 C99.28,12.915 93.13,14.845 90.95,15.835 C90.2,16.175 89.311,15.845 88.97,15.095 C88.93,14.995 88.89,14.885 88.87,14.785 C88.72,14.115 89.05,13.405 89.71,13.105 C90.04,12.955 96.561,10.025 101.811,11.625 C100.561,6.545 98.65,3.065 94.061,3.065 C92.25,3.065 90.061,3.625 87.561,4.715 C86.061,5.375 85.67,9.885 86.49,15.115 C86.66,16.215 86.88,17.345 87.16,18.485 C88.76,24.995 90.69,25.875 92.37,25.875 L92.37,25.875 Z M116.521,12.165 C117,11.965 117.55,12.035 117.98,12.345 C118.39,12.665 118.62,13.165 118.57,13.685 L117.79,22.275 C119.1,22.585 120.33,22.965 121.17,23.235 C121.93,23.485 122.65,23.665 123.35,23.795 L124.34,13.415 C124.39,12.875 124.73,12.405 125.22,12.185 C125.71,11.965 126.29,12.025 126.72,12.345 C126.74,12.365 129.3,14.185 131.56,13.115 C132.99,12.445 133.99,10.355 133.9,8.255 C133.85,7.005 133.36,4.765 130.68,3.775 C125.81,1.965 122.08,6.935 122.04,6.985 C121.64,7.525 120.93,7.735 120.3,7.495 C119.67,7.255 119.28,6.635 119.34,5.955 C119.32,5.525 118.57,4.425 115.82,3.945 C113.93,3.615 112.11,4.325 111.09,5.805 C110.17,7.125 110.14,8.735 111,10.215 C112.95,13.555 116.37,12.225 116.521,12.165 L116.521,12.165 Z M126.5,43.765 C123.59,44.385 121.55,44.845 120.21,45.475 C120.92,45.945 122.771,46.745 127.03,46.595 C131.24,46.455 133.72,45.845 134.39,44.775 C134.75,44.205 134.64,43.245 134.08,41.935 C133.22,42.185 132.32,42.435 131.35,42.675 C129.6,43.115 127.96,43.465 126.5,43.765 L126.5,43.765 Z M202.72,227.85 C202.72,228.68 202.05,229.35 201.22,229.35 L185.33,229.35 C184.99,229.35 184.66,229.22 184.39,229.01 L179.03,224.72 L172.95,229.06 C172.7,229.25 172.39,229.35 172.08,229.35 L21.5,229.35 C20.67,229.35 20,228.68 20,227.85 C20,227.01 20.67,226.35 21.5,226.35 L61.11,226.35 L55.19,211.65 C54.97,211.1 55.09,210.47 55.5,210.05 C55.91,209.63 56.54,209.48 57.09,209.68 L70.51,214.58 C71.95,206.54 78.04,172.88 82.62,153.26 C86.771,135.47 87.29,119.775 87.34,114.245 C84.92,113.815 82.35,112.805 80.061,110.695 C73.58,104.735 68.59,99.085 68.21,85.385 C68.17,84.105 68.1,82.965 67.98,81.935 C67.14,74.695 64.33,72.915 60.34,70.395 C59.34,69.755 58.3,69.105 57.2,68.315 L56.26,67.635 C53.97,65.995 51.48,64.215 49.29,62.155 C49.271,62.135 49.25,62.125 49.23,62.105 C49.15,62.045 49.08,61.965 49.021,61.895 C48.39,61.285 47.771,60.645 47.21,59.985 C47.11,59.905 47.03,59.815 46.95,59.705 C46.93,59.665 46.91,59.635 46.89,59.595 C44.54,56.725 42.97,53.365 43.21,49.255 C43.38,46.195 44.99,44.675 46.311,43.945 C49.84,41.975 55.5,43.325 59.55,45.525 C59.76,45.645 59.95,45.765 60.16,45.875 C60.55,46.065 60.88,46.265 61.18,46.485 C65.82,49.345 69,52.745 70.271,54.235 C71.05,53.565 71.97,52.835 73.03,52.075 C71.19,49.085 69.17,44.615 68.16,42.285 C67.03,42.795 65.94,43.055 64.9,43.035 C63.29,42.995 61.86,42.305 60.66,40.975 C57.2,37.155 56.08,27.645 58.47,22.465 C59.66,19.895 62.14,17.895 65.28,16.995 C68.68,16.015 72.29,16.475 74.94,18.215 C76.5,19.235 78.18,21.055 79.98,23.645 C80.07,23.745 80.15,23.855 80.22,23.985 C82.88,27.895 85.8,33.495 88.95,40.745 C87.66,35.825 85.86,28.355 85.46,23.595 C85.45,23.455 85.46,23.315 85.49,23.175 C84.97,21.895 84.57,20.515 84.25,19.205 C83.88,17.695 80.8,4.405 86.35,1.975 C89.23,0.705 91.83,0.065 94.061,0.065 C102.98,0.065 104.64,9.605 105.74,15.925 L105.811,16.335 C105.99,17.405 106.021,18.425 105.9,19.395 C105.91,19.435 105.93,19.475 105.94,19.525 C106.521,22.155 108.01,30.315 109,35.785 C109.58,33.315 109.96,29.535 110.23,26.865 C110.58,23.515 110.63,23.065 111,22.565 C111.44,21.975 112.34,21.735 113.42,21.705 C113.86,21.685 114.33,21.705 114.82,21.755 L115.4,15.445 C113.16,15.615 110.271,14.915 108.41,11.725 C106.95,9.225 107.03,6.375 108.63,4.085 C110.3,1.685 113.33,0.465 116.34,0.995 C118.98,1.455 120.46,2.425 121.29,3.405 C123.62,1.335 127.43,-0.635 131.73,0.965 C134.82,2.115 136.76,4.785 136.9,8.125 C137.04,11.465 135.38,14.625 132.85,15.825 C130.72,16.835 128.62,16.465 127.11,15.895 L126.33,24.085 C128.21,24.095 129.41,23.775 129.43,23.775 C129.88,23.645 130.37,23.745 130.74,24.025 C131.11,24.315 131.33,24.755 131.33,25.225 C131.33,25.565 131.29,32.895 129.07,40.135 C129.58,40.015 130.09,39.895 130.62,39.765 C134.75,38.725 137.7,37.615 140.07,36.715 C142.93,35.625 145,34.845 147.33,34.845 C148.32,34.845 149.8,35.235 151.24,37.105 C152.63,38.915 153.77,41.885 154.25,46.055 C154.88,51.475 154.39,58.905 151.91,68.355 C146.04,90.655 137.11,104.545 124.78,110.475 C125.75,115.435 129.52,135.54 132.32,159.68 C135.02,182.94 138.84,203.93 140.01,210.1 L152.49,204.72 C152.97,204.51 153.53,204.56 153.96,204.89 C154.39,205.19 154.62,205.71 154.57,206.23 L152.72,226.35 L171.6,226.35 L178.21,221.63 C178.75,221.23 179.49,221.26 180.02,221.68 L185.86,226.35 L201.22,226.35 C202.05,226.35 202.72,227.01 202.72,227.85 L202.72,227.85 Z M222.39,227.85 C222.39,228.68 221.72,229.35 220.89,229.35 L210.56,229.35 C209.73,229.35 209.06,228.68 209.06,227.85 C209.06,227.01 209.73,226.35 210.56,226.35 L220.89,226.35 C221.72,226.35 222.39,227.01 222.39,227.85 L222.39,227.85 Z" id="Fill-90" fill="#42384B"></path>
    </g>
</svg>