<?xml version="1.0" encoding="UTF-8" standalone="no"?>
<svg width="231px" height="228px" viewBox="0 0 231 228" version="1.1" xmlns="http://www.w3.org/2000/svg" xmlns:xlink="http://www.w3.org/1999/xlink">
    <!-- Generator: Sketch 39.1 (31720) - http://www.bohemiancoding.com/sketch -->
    <title>Slice 1</title>
    <desc>Created with Sketch.</desc>
    <defs></defs>
    <g id="Page-1" stroke="none" stroke-width="1" fill="none" fill-rule="evenodd">
        <path d="M85.78,87.91 C74.277,87.91 64.92,78.556 64.92,67.06 C64.92,62.095 66.714,57.274 69.971,53.484 L70.254,53.154 L78.437,58.404 L77.974,58.843 C75.683,61.017 74.42,63.935 74.42,67.06 C74.42,73.318 79.517,78.41 85.78,78.41 C90.596,78.41 94.903,75.334 96.497,70.755 L96.706,70.156 L104.866,75.406 L104.683,75.801 C101.264,83.157 93.845,87.91 85.78,87.91 L85.78,87.91 Z M145.229,87.91 C137.155,87.91 129.735,83.156 126.326,75.801 L126.144,75.405 L134.305,70.155 L134.513,70.756 C136.098,75.334 140.404,78.41 145.229,78.41 C151.493,78.41 156.59,73.318 156.59,67.06 C156.59,63.935 155.327,61.017 153.036,58.843 L152.573,58.404 L160.756,53.154 L161.039,53.484 C164.296,57.274 166.09,62.095 166.09,67.06 C166.09,78.556 156.732,87.91 145.229,87.91 L145.229,87.91 Z" id="Fill-12" fill="#FFFCE1"></path>
        <path d="M71.686,51.698 L72.193,51.261 C75.989,47.997 80.814,46.2 85.78,46.2 C97.276,46.2 106.63,55.558 106.63,67.06 C106.63,69.015 106.347,70.968 105.789,72.861 L105.601,73.502 L71.686,51.698 L71.686,51.698 Z M125.221,72.861 C124.663,70.968 124.38,69.015 124.38,67.06 C124.38,55.558 133.733,46.2 145.229,46.2 C150.2,46.2 155.021,47.997 158.806,51.261 L159.313,51.698 L125.409,73.502 L125.221,72.861 L125.221,72.861 Z M69.666,162.659 C67.77,161.133 65.942,159.489 64.235,157.772 L63.98,157.516 L64.144,157.194 C68.021,149.55 70.07,141.007 70.07,132.49 C70.07,129.704 69.854,126.883 69.426,124.106 C69.354,123.623 68.933,123.261 68.444,123.261 C68.393,123.261 68.341,123.265 68.288,123.274 C67.742,123.36 67.368,123.871 67.454,124.412 C67.863,127.035 68.07,129.753 68.07,132.49 C68.07,140.317 66.262,148.21 62.84,155.317 L62.517,155.989 L62.018,155.434 C60.229,153.444 58.562,151.345 57.06,149.196 L56.906,148.977 L57.004,148.727 C59.039,143.536 60.07,138.073 60.07,132.49 C60.07,131.531 60.04,130.567 59.98,129.621 C59.948,129.092 59.503,128.678 58.965,128.678 C58.37,128.719 57.945,129.199 57.979,129.75 C58.039,130.653 58.07,131.576 58.07,132.49 C58.07,137.078 57.335,141.606 55.885,145.948 L55.546,146.961 L54.984,146.052 C48.563,135.66 45.17,123.708 45.17,111.49 L45.17,77.329 L45.913,77.743 C65.748,88.796 78.07,109.774 78.07,132.49 C78.07,142.974 75.424,153.355 70.418,162.509 L70.132,163.034 L69.666,162.659 L69.666,162.659 Z M160.592,162.509 C155.586,153.355 152.939,142.974 152.939,132.49 C152.939,109.774 165.262,88.796 185.097,77.743 L185.84,77.329 L185.84,111.49 C185.84,123.708 182.446,135.66 176.025,146.052 L175.464,146.961 L175.125,145.948 C173.675,141.606 172.939,137.078 172.939,132.49 C172.939,131.643 172.967,130.721 173.021,129.752 C173.04,129.478 172.954,129.221 172.778,129.021 C172.602,128.82 172.354,128.698 172.084,128.678 L172.083,128.678 C171.525,128.678 171.06,129.11 171.029,129.62 C170.97,130.567 170.939,131.531 170.939,132.49 C170.939,138.073 171.971,143.536 174.006,148.727 L174.104,148.977 L173.95,149.196 C172.483,151.295 170.815,153.393 168.993,155.433 L168.494,155.991 L168.17,155.317 C164.748,148.21 162.939,140.317 162.939,132.49 C162.939,129.753 163.146,127.035 163.556,124.413 C163.642,123.871 163.268,123.36 162.722,123.274 C162.669,123.266 162.616,123.261 162.563,123.261 C162.076,123.261 161.655,123.623 161.584,124.103 C161.156,126.822 160.939,129.642 160.939,132.49 C160.939,141.007 162.988,149.55 166.866,157.194 L167.029,157.516 L166.774,157.772 C165.067,159.489 163.24,161.133 161.344,162.659 L160.878,163.034 L160.592,162.509 L160.592,162.509 Z" id="Fill-13" fill="#F5E393"></path>
        <path d="M51.249,19.237 C51.01,19.237 50.777,19.323 50.595,19.48 C50.176,19.839 50.129,20.473 50.49,20.895 C53.199,24.038 55.718,27.366 57.977,30.784 C58.161,31.057 58.481,31.23 58.81,31.23 C59.011,31.23 59.193,31.175 59.365,31.062 C59.586,30.918 59.736,30.698 59.79,30.441 C59.845,30.176 59.792,29.904 59.642,29.675 C57.284,26.114 54.714,22.719 52.002,19.587 C51.813,19.363 51.54,19.237 51.249,19.237 L51.249,19.237 Z M179.76,19.237 C179.467,19.237 179.189,19.364 179,19.586 C176.296,22.72 173.725,26.115 171.355,29.677 C171.059,30.139 171.186,30.763 171.643,31.061 C171.806,31.172 171.997,31.23 172.189,31.23 C172.529,31.23 172.846,31.062 173.035,30.781 C175.313,27.334 177.829,24.006 180.511,20.894 C180.69,20.688 180.778,20.428 180.759,20.161 C180.739,19.895 180.617,19.653 180.415,19.479 C180.232,19.323 180,19.237 179.76,19.237 L179.76,19.237 Z M54.08,48.45 C53.734,48.45 53.418,48.627 53.234,48.924 C51.984,50.937 50.923,53.101 50.079,55.355 C49.891,55.87 50.157,56.449 50.674,56.641 C50.78,56.678 50.903,56.7 51.02,56.7 C51.442,56.7 51.812,56.443 51.962,56.044 C52.736,53.953 53.736,51.911 54.936,49.977 C55.077,49.75 55.121,49.483 55.061,49.223 C55,48.963 54.843,48.744 54.618,48.606 C54.453,48.504 54.268,48.45 54.08,48.45 L54.08,48.45 Z M176.925,48.45 C176.738,48.45 176.555,48.503 176.396,48.603 C176.167,48.744 176.01,48.963 175.949,49.223 C175.889,49.483 175.933,49.75 176.073,49.974 C177.273,51.913 178.274,53.955 179.049,56.046 C179.198,56.443 179.567,56.7 179.99,56.7 C180.106,56.7 180.229,56.678 180.345,56.638 C180.586,56.549 180.784,56.364 180.895,56.12 C181.006,55.876 181.016,55.605 180.922,55.356 C180.106,53.152 179.048,50.988 177.774,48.922 C177.592,48.627 177.273,48.45 176.925,48.45 L176.925,48.45 Z M85.78,44.2 C79.598,44.2 73.805,46.64 69.468,51.07 C69.384,51.144 69.342,51.187 69.312,51.228 C65.176,55.544 62.92,61.15 62.92,67.06 C62.92,79.659 73.175,89.91 85.78,89.91 C95.162,89.91 103.49,84.263 106.996,75.524 C107.049,75.421 107.067,75.365 107.092,75.285 C108.116,72.617 108.63,69.862 108.63,67.06 C108.63,54.455 98.38,44.2 85.78,44.2 L85.78,44.2 Z M145.229,44.2 C132.63,44.2 122.38,54.455 122.38,67.06 C122.38,69.887 122.894,72.642 123.905,75.249 C123.937,75.366 123.955,75.409 123.987,75.468 C127.52,84.263 135.848,89.91 145.229,89.91 C157.835,89.91 168.09,79.659 168.09,67.06 C168.09,61.16 165.834,55.554 161.738,51.276 C161.668,51.188 161.626,51.144 161.573,51.098 C157.205,46.64 151.411,44.2 145.229,44.2 L145.229,44.2 Z M115.5,116.562 L126.479,94.613 L115.5,76.476 L104.53,94.613 L115.5,116.562 L115.5,116.562 Z M85.707,133.413 C85.599,133.413 85.49,133.43 85.386,133.465 C85.136,133.549 84.931,133.727 84.813,133.967 C84.694,134.205 84.677,134.476 84.763,134.728 C85.977,138.349 89.354,140.78 93.17,140.78 C96.985,140.78 100.363,138.349 101.576,134.731 C101.663,134.476 101.646,134.205 101.527,133.967 C101.409,133.727 101.204,133.549 100.952,133.464 C100.85,133.43 100.741,133.413 100.633,133.413 C100.2,133.413 99.818,133.684 99.685,134.088 C98.749,136.894 96.131,138.78 93.17,138.78 C90.209,138.78 87.591,136.894 86.655,134.088 C86.521,133.684 86.14,133.413 85.707,133.413 L85.707,133.413 Z M108.043,133.413 C107.937,133.413 107.831,133.43 107.729,133.464 C107.205,133.636 106.922,134.206 107.095,134.734 C108.307,138.349 111.685,140.78 115.5,140.78 C119.322,140.78 122.704,138.349 123.916,134.731 C124,134.475 123.98,134.2 123.859,133.96 C123.74,133.724 123.535,133.548 123.283,133.465 C123.179,133.43 123.073,133.413 122.967,133.413 C122.537,133.413 122.153,133.686 122.013,134.093 C121.079,136.894 118.461,138.78 115.5,138.78 C112.55,138.78 109.932,136.895 108.986,134.09 C108.852,133.684 108.473,133.413 108.043,133.413 L108.043,133.413 Z M130.373,133.413 C130.267,133.413 130.161,133.43 130.059,133.464 C129.805,133.548 129.6,133.724 129.48,133.96 C129.359,134.2 129.34,134.475 129.425,134.733 C130.636,138.349 134.018,140.78 137.84,140.78 C141.655,140.78 145.033,138.349 146.246,134.731 C146.418,134.206 146.139,133.636 145.622,133.464 C145.52,133.43 145.411,133.413 145.303,133.413 C144.87,133.413 144.488,133.684 144.354,134.088 C143.408,136.895 140.79,138.78 137.84,138.78 C134.879,138.78 132.261,136.894 131.325,134.088 C131.187,133.686 130.803,133.413 130.373,133.413 L130.373,133.413 Z M99.763,146.283 C99.656,146.283 99.551,146.3 99.448,146.334 C99.192,146.419 98.987,146.595 98.869,146.834 C98.75,147.073 98.73,147.347 98.814,147.604 C99.676,150.178 102.081,151.91 104.8,151.91 C107.519,151.91 109.924,150.178 110.785,147.601 C110.958,147.076 110.675,146.507 110.153,146.335 C110.05,146.3 109.943,146.283 109.838,146.283 C109.408,146.283 109.029,146.557 108.895,146.966 C108.292,148.729 106.646,149.91 104.8,149.91 C102.953,149.91 101.308,148.729 100.707,146.971 C100.57,146.557 100.191,146.283 99.763,146.283 L99.763,146.283 Z M121.167,146.283 C121.059,146.283 120.95,146.3 120.846,146.335 C120.331,146.507 120.052,147.076 120.225,147.604 C121.086,150.178 123.491,151.91 126.21,151.91 C128.929,151.91 131.334,150.178 132.195,147.601 C132.279,147.347 132.26,147.073 132.141,146.834 C132.022,146.595 131.817,146.419 131.563,146.335 C131.459,146.3 131.354,146.283 131.247,146.283 C130.817,146.283 130.434,146.56 130.294,146.971 C129.704,148.728 128.063,149.91 126.21,149.91 C124.363,149.91 122.718,148.729 122.117,146.971 C121.98,146.557 121.6,146.283 121.167,146.283 L121.167,146.283 Z M110.84,177.16 L110.84,170.33 C110.84,167.479 108.521,165.16 105.67,165.16 C104.215,165.16 102.864,165.756 101.868,166.839 L101.498,167.24 L101.131,166.837 C100.159,165.771 98.777,165.16 97.34,165.16 C95.885,165.16 94.534,165.756 93.538,166.839 L93.17,167.238 L92.802,166.839 C91.806,165.756 90.455,165.16 89,165.16 C86.154,165.16 83.84,167.479 83.84,170.33 L83.84,171.363 L83.129,171.033 C79.264,169.239 75.548,167.05 72.085,164.524 L71.728,164.263 L71.943,163.877 C77.26,154.325 80.07,143.471 80.07,132.49 C80.07,108.378 66.8,86.434 45.438,75.223 L45.17,75.082 L45.17,4.381 L45.998,5.103 C55.523,13.404 63.397,23.241 69.399,34.342 L69.656,34.817 L69.164,35.036 C64.615,37.065 60.617,39.945 57.279,43.598 C57.098,43.795 57.004,44.051 57.016,44.318 C57.026,44.585 57.142,44.831 57.338,45.012 C57.52,45.178 57.757,45.27 58.005,45.27 C58.288,45.27 58.56,45.151 58.752,44.942 C65.171,37.925 74.315,33.9 83.84,33.9 L147.17,33.9 C156.685,33.9 165.829,37.925 172.259,44.942 C172.443,45.153 172.708,45.27 172.99,45.27 C173.247,45.27 173.484,45.179 173.676,45.008 C173.868,44.831 173.983,44.585 173.994,44.318 C174.006,44.051 173.912,43.795 173.731,43.598 C170.382,39.945 166.384,37.064 161.846,35.036 L161.354,34.816 L161.61,34.342 C167.612,23.241 175.486,13.404 185.012,5.103 L185.84,4.381 L185.84,75.082 L185.572,75.223 C164.21,86.434 150.939,108.378 150.939,132.49 C150.939,143.471 153.75,154.325 159.066,163.877 L159.282,164.263 L158.925,164.524 C155.462,167.05 151.746,169.239 147.881,171.033 L147.17,171.363 L147.17,170.33 C147.17,167.479 144.851,165.16 142,165.16 C140.563,165.16 139.181,165.771 138.209,166.837 L137.842,167.24 L137.472,166.839 C136.476,165.756 135.125,165.16 133.67,165.16 C132.215,165.16 130.864,165.756 129.868,166.839 L129.498,167.24 L129.131,166.837 C128.159,165.771 126.777,165.16 125.34,165.16 C122.888,165.16 120.76,166.896 120.28,169.288 C120.206,169.629 120.17,169.977 120.17,170.33 L120.17,177.16 L110.84,177.16 L110.84,177.16 Z" id="Fill-14" fill="#47827B"></path>
        <path d="M85.78,76.41 C80.619,76.41 76.42,72.216 76.42,67.06 C76.42,64.203 77.694,61.545 79.917,59.769 L80.197,59.546 L84.394,62.236 L83.602,62.628 C81.898,63.47 80.84,65.169 80.84,67.06 C80.84,69.779 83.056,71.99 85.78,71.99 C88.462,71.99 90.628,69.884 90.71,67.195 L90.737,66.308 L93.151,67.87 L94.924,69.003 L94.834,69.354 C93.772,73.508 90.049,76.41 85.78,76.41 L85.78,76.41 Z M145.229,76.41 C140.95,76.41 137.228,73.508 136.176,69.352 L136.087,69.003 L137.86,67.868 L140.272,66.308 L140.3,67.195 C140.382,69.884 142.548,71.99 145.229,71.99 C147.954,71.99 150.17,69.779 150.17,67.06 C150.17,65.169 149.111,63.47 147.408,62.628 L146.616,62.236 L150.813,59.546 L151.093,59.769 C153.315,61.545 154.59,64.203 154.59,67.06 C154.59,72.216 150.391,76.41 145.229,76.41 L145.229,76.41 Z M106.81,94.707 L115.5,80.344 L124.2,94.707 L115.5,112.088 L106.81,94.707 L106.81,94.707 Z M89,189.16 C87.258,189.16 85.84,187.738 85.84,185.99 L85.84,170.33 C85.84,168.582 87.258,167.16 89,167.16 C90.748,167.16 92.17,168.582 92.17,170.33 L92.17,185.99 C92.17,187.738 90.748,189.16 89,189.16 L89,189.16 Z M97.34,189.16 C95.592,189.16 94.17,187.738 94.17,185.99 L94.17,170.33 C94.17,168.582 95.592,167.16 97.34,167.16 C99.082,167.16 100.5,168.582 100.5,170.33 L100.5,185.99 C100.5,187.738 99.082,189.16 97.34,189.16 L97.34,189.16 Z M105.67,189.16 C103.922,189.16 102.5,187.738 102.5,185.99 L102.5,170.33 C102.5,168.582 103.922,167.16 105.67,167.16 C107.418,167.16 108.84,168.582 108.84,170.33 L108.84,185.99 C108.84,187.738 107.418,189.16 105.67,189.16 L105.67,189.16 Z M125.34,189.16 C123.839,189.16 122.531,188.092 122.229,186.62 C122.192,186.409 122.17,186.199 122.17,185.99 L122.17,170.33 C122.17,170.12 122.192,169.91 122.228,169.712 C122.531,168.228 123.839,167.16 125.34,167.16 C127.082,167.16 128.5,168.582 128.5,170.33 L128.5,185.99 C128.5,187.738 127.082,189.16 125.34,189.16 L125.34,189.16 Z M133.67,189.16 C131.922,189.16 130.5,187.738 130.5,185.99 L130.5,170.33 C130.5,168.582 131.922,167.16 133.67,167.16 C135.418,167.16 136.84,168.582 136.84,170.33 L136.84,185.99 C136.84,187.738 135.418,189.16 133.67,189.16 L133.67,189.16 Z M142,189.16 C140.258,189.16 138.84,187.738 138.84,185.99 L138.84,170.33 C138.84,169.493 139.168,168.697 139.763,168.09 C140.354,167.498 141.169,167.16 142,167.16 C143.748,167.16 145.17,168.582 145.17,170.33 L145.17,185.99 C145.17,186.199 145.147,186.409 145.112,186.608 C144.809,188.092 143.501,189.16 142,189.16 L142,189.16 Z" id="Fill-15" fill="#F1BB31"></path>
        <path d="M26.645,225.16 L31.751,216.3 L44.17,216.3 C44.722,216.3 45.17,215.851 45.17,215.3 C45.17,214.749 44.722,214.3 44.17,214.3 L32.895,214.3 L35.551,209.69 L44.17,209.69 C44.722,209.69 45.17,209.241 45.17,208.69 C45.17,208.138 44.722,207.69 44.17,207.69 L36.705,207.69 L53.131,179.16 L83.84,179.16 L83.84,185.99 C83.84,188.841 86.154,191.16 89,191.16 C90.455,191.16 91.806,190.564 92.802,189.482 L93.17,189.082 L93.538,189.482 C94.534,190.564 95.885,191.16 97.34,191.16 C98.777,191.16 100.159,190.549 101.131,189.483 L101.498,189.08 L101.868,189.482 C102.864,190.564 104.215,191.16 105.67,191.16 C108.521,191.16 110.84,188.841 110.84,185.99 L110.84,179.16 L120.17,179.16 L120.17,185.99 C120.17,186.342 120.206,186.691 120.278,187.024 C120.76,189.424 122.888,191.16 125.34,191.16 C126.777,191.16 128.159,190.549 129.131,189.483 L129.498,189.08 L129.868,189.482 C130.864,190.564 132.215,191.16 133.67,191.16 C135.125,191.16 136.476,190.564 137.472,189.482 L137.842,189.08 L138.209,189.483 C139.181,190.549 140.563,191.16 142,191.16 C144.452,191.16 146.58,189.424 147.06,187.032 C147.133,186.691 147.17,186.342 147.17,185.99 L147.17,179.15 L221.277,179.15 L213.762,186.41 L179.99,186.41 C179.438,186.41 178.99,186.859 178.99,187.41 C178.99,187.961 179.438,188.41 179.99,188.41 L192.507,188.41 L187.007,193.91 L162.847,193.91 L174.688,207.16 L167.448,207.16 L151.038,193.41 L63.325,193.41 L45.825,225.16 L26.645,225.16" id="Fill-16" fill="#9A6E56"></path>
        <path d="M11.17,224.66 L2.17,224.66 C1.34,224.66 0.67,225.33 0.67,226.16 C0.67,226.99 1.34,227.66 2.17,227.66 L11.17,227.66 C12,227.66 12.67,226.99 12.67,226.16 C12.67,225.33 12,224.66 11.17,224.66 L11.17,224.66 Z M220.04,179.65 L147.67,179.65 L147.67,185.99 C147.67,186.38 147.63,186.76 147.55,187.13 C147.03,189.72 144.74,191.66 142,191.66 C140.36,191.66 138.87,190.95 137.84,189.82 C136.8,190.95 135.32,191.66 133.67,191.66 C132.02,191.66 130.54,190.95 129.5,189.82 C128.47,190.95 126.99,191.66 125.34,191.66 C122.6,191.66 120.31,189.72 119.79,187.13 C119.71,186.76 119.67,186.38 119.67,185.99 L119.67,179.66 L111.34,179.66 L111.34,185.99 C111.34,189.12 108.79,191.66 105.67,191.66 C104.02,191.66 102.54,190.95 101.5,189.82 C100.47,190.95 98.99,191.66 97.34,191.66 C95.689,191.66 94.21,190.95 93.17,189.82 C92.13,190.95 90.65,191.66 89,191.66 C85.88,191.66 83.34,189.12 83.34,185.99 L83.34,179.66 L53.42,179.66 L37.57,207.19 L44.17,207.19 C45,207.19 45.67,207.86 45.67,208.69 C45.67,209.52 45,210.19 44.17,210.19 L35.84,210.19 L33.76,213.8 L44.17,213.8 C45,213.8 45.67,214.47 45.67,215.3 C45.67,216.13 45,216.8 44.17,216.8 L32.04,216.8 L27.51,224.66 L45.53,224.66 L63.03,192.91 L151.22,192.91 L167.63,206.66 L173.57,206.66 L161.729,193.41 L186.8,193.41 L191.3,188.91 L179.99,188.91 C179.16,188.91 178.49,188.24 178.49,187.41 C178.49,186.58 179.16,185.91 179.99,185.91 L213.56,185.91 L220.04,179.65 L220.04,179.65 Z M89,167.66 C87.53,167.66 86.34,168.86 86.34,170.33 L86.34,185.99 C86.34,187.46 87.53,188.66 89,188.66 C90.47,188.66 91.67,187.46 91.67,185.99 L91.67,170.33 C91.67,168.86 90.47,167.66 89,167.66 L89,167.66 Z M97.34,167.66 C95.87,167.66 94.67,168.86 94.67,170.33 L94.67,185.99 C94.67,187.46 95.87,188.66 97.34,188.66 C98.81,188.66 100,187.46 100,185.99 L100,170.33 C100,168.86 98.81,167.66 97.34,167.66 L97.34,167.66 Z M105.67,167.66 C104.2,167.66 103,168.86 103,170.33 L103,185.99 C103,187.46 104.2,188.66 105.67,188.66 C107.14,188.66 108.34,187.46 108.34,185.99 L108.34,170.33 C108.34,168.86 107.14,167.66 105.67,167.66 L105.67,167.66 Z M122.72,186.52 C122.97,187.74 124.05,188.66 125.34,188.66 C126.81,188.66 128,187.46 128,185.99 L128,170.33 C128,168.86 126.81,167.66 125.34,167.66 C124.05,167.66 122.97,168.58 122.72,169.8 C122.689,169.97 122.67,170.15 122.67,170.33 L122.67,185.99 C122.67,186.17 122.689,186.35 122.72,186.52 L122.72,186.52 Z M133.67,167.66 C132.2,167.66 131,168.86 131,170.33 L131,185.99 C131,187.46 132.2,188.66 133.67,188.66 C135.14,188.66 136.34,187.46 136.34,185.99 L136.34,170.33 C136.34,168.86 135.14,167.66 133.67,167.66 L133.67,167.66 Z M139.34,185.99 C139.34,187.46 140.53,188.66 142,188.66 C143.29,188.66 144.37,187.74 144.62,186.52 C144.65,186.35 144.67,186.17 144.67,185.99 L144.67,170.33 C144.67,168.86 143.47,167.66 142,167.66 C141.27,167.66 140.6,167.96 140.12,168.44 C139.64,168.93 139.34,169.6 139.34,170.33 L139.34,185.99 L139.34,185.99 Z M83.34,170.58 L83.34,170.33 C83.34,167.2 85.88,164.66 89,164.66 C90.65,164.66 92.13,165.37 93.17,166.5 C94.21,165.37 95.689,164.66 97.34,164.66 C98.99,164.66 100.47,165.37 101.5,166.5 C102.54,165.37 104.02,164.66 105.67,164.66 C108.79,164.66 111.34,167.2 111.34,170.33 L111.34,176.66 L119.67,176.66 L119.67,170.33 C119.67,169.94 119.71,169.56 119.79,169.19 C120.31,166.6 122.6,164.66 125.34,164.66 C126.99,164.66 128.47,165.37 129.5,166.5 C130.54,165.37 132.02,164.66 133.67,164.66 C135.32,164.66 136.8,165.37 137.84,166.5 C138.87,165.37 140.36,164.66 142,164.66 C145.13,164.66 147.67,167.2 147.67,170.33 L147.67,170.58 C151.57,168.77 155.229,166.6 158.63,164.12 C153.27,154.49 150.439,143.59 150.439,132.49 C150.439,108.11 163.79,86.09 185.34,74.78 L185.34,5.48 C175.85,13.75 168.03,23.52 162.05,34.58 C166.57,36.6 170.689,39.54 174.1,43.26 C174.66,43.87 174.62,44.82 174.01,45.38 C173.72,45.64 173.36,45.77 172.99,45.77 C172.59,45.77 172.18,45.61 171.89,45.28 C165.55,38.36 156.55,34.4 147.17,34.4 L83.84,34.4 C74.46,34.4 65.45,38.36 59.12,45.28 C58.56,45.89 57.61,45.94 57,45.38 C56.39,44.82 56.35,43.87 56.91,43.26 C60.31,39.54 64.43,36.6 68.96,34.58 C62.979,23.52 55.16,13.75 45.67,5.48 L45.67,74.78 C67.22,86.09 80.57,108.11 80.57,132.49 C80.57,143.59 77.74,154.49 72.38,164.12 C75.78,166.6 79.439,168.77 83.34,170.58 L83.34,170.58 Z M69.979,162.27 C74.95,153.18 77.57,142.93 77.57,132.49 C77.57,109.76 65.41,89.18 45.67,78.18 L45.67,111.49 C45.67,123.89 49.17,135.69 55.41,145.79 C56.84,141.51 57.57,137.06 57.57,132.49 C57.57,131.59 57.54,130.68 57.479,129.78 C57.43,128.95 58.06,128.24 58.89,128.18 C59.71,128.14 60.43,128.76 60.479,129.59 C60.54,130.55 60.57,131.53 60.57,132.49 C60.57,138.16 59.52,143.68 57.47,148.91 C58.979,151.07 60.62,153.13 62.39,155.1 C65.77,148.08 67.57,140.32 67.57,132.49 C67.57,129.82 67.37,127.12 66.96,124.49 C66.83,123.67 67.39,122.91 68.21,122.78 C69.03,122.65 69.8,123.22 69.92,124.03 C70.35,126.82 70.57,129.66 70.57,132.49 C70.57,141.15 68.49,149.73 64.59,157.42 C66.29,159.13 68.09,160.75 69.979,162.27 L69.979,162.27 Z M185.34,78.18 C165.6,89.18 153.439,109.76 153.439,132.49 C153.439,142.93 156.06,153.18 161.03,162.27 C162.92,160.75 164.72,159.13 166.42,157.42 C162.52,149.73 160.439,141.15 160.439,132.49 C160.439,129.66 160.65,126.82 161.09,124.03 C161.21,123.22 161.97,122.65 162.8,122.78 C163.62,122.91 164.18,123.67 164.05,124.49 C163.64,127.12 163.439,129.82 163.439,132.49 C163.439,140.32 165.24,148.08 168.62,155.1 C170.38,153.13 172.03,151.07 173.54,148.91 C171.49,143.68 170.439,138.16 170.439,132.49 C170.439,131.53 170.47,130.55 170.53,129.59 C170.58,128.76 171.33,128.14 172.12,128.18 C172.95,128.24 173.58,128.95 173.52,129.78 C173.47,130.68 173.439,131.59 173.439,132.49 C173.439,137.06 174.17,141.51 175.6,145.79 C181.84,135.69 185.34,123.89 185.34,111.49 L185.34,78.18 L185.34,78.18 Z M227.47,176.65 L214.78,188.91 L195.54,188.91 L188.04,196.41 L168.439,196.41 L180.27,209.66 L166.54,209.66 L150.13,195.91 L64.81,195.91 L48.96,224.66 L144.51,224.66 L150.25,218.36 L156.78,224.66 L187.92,224.66 C188.75,224.66 189.42,225.33 189.42,226.16 C189.42,226.99 188.75,227.66 187.92,227.66 L155.56,227.66 L150.39,222.66 L145.83,227.66 L17.67,227.66 C16.84,227.66 16.17,226.99 16.17,226.16 C16.17,225.33 16.84,224.66 17.67,224.66 L24.05,224.66 L51.689,176.66 L83.34,176.66 L83.34,173.88 C58.61,162.97 42.67,138.55 42.67,111.49 L42.67,2.2 L42.67,2.16 C42.67,2.09 42.68,2.01 42.7,1.94 C42.7,1.91 42.71,1.89 42.71,1.86 C42.729,1.8 42.75,1.73 42.77,1.66 C42.78,1.64 42.79,1.61 42.81,1.58 C42.83,1.52 42.86,1.47 42.9,1.41 C42.92,1.38 42.939,1.35 42.96,1.32 C42.97,1.3 42.99,1.27 43.01,1.25 C43.03,1.22 43.05,1.2 43.07,1.18 C43.1,1.15 43.13,1.13 43.15,1.1 C43.2,1.06 43.24,1.02 43.29,0.99 C43.32,0.97 43.36,0.94 43.39,0.92 C43.439,0.89 43.49,0.87 43.54,0.84 C43.58,0.83 43.62,0.81 43.66,0.79 C43.71,0.78 43.75,0.76 43.8,0.75 C43.85,0.74 43.9,0.73 43.939,0.72 C43.99,0.71 44.04,0.71 44.09,0.71 C44.12,0.71 44.14,0.7 44.17,0.7 C44.189,0.7 44.22,0.7 44.24,0.71 C44.29,0.71 44.34,0.71 44.38,0.72 C44.439,0.73 44.49,0.74 44.54,0.75 C44.58,0.76 44.62,0.77 44.66,0.79 C44.71,0.81 44.77,0.83 44.82,0.85 C44.85,0.87 44.88,0.89 44.92,0.91 C44.97,0.94 45.03,0.97 45.08,1.01 C45.09,1.02 45.11,1.03 45.12,1.04 C56.13,10.06 65.08,20.98 71.77,33.47 C75.62,32.12 79.689,31.4 83.84,31.4 L147.17,31.4 C151.32,31.4 155.39,32.12 159.24,33.47 C165.93,20.98 174.88,10.06 185.89,1.04 C185.9,1.03 185.92,1.02 185.93,1.01 C185.979,0.97 186.04,0.94 186.09,0.91 C186.12,0.89 186.16,0.87 186.189,0.85 C186.24,0.83 186.29,0.81 186.35,0.79 C186.39,0.77 186.43,0.76 186.47,0.75 C186.52,0.74 186.57,0.73 186.62,0.72 C186.67,0.71 186.72,0.71 186.77,0.71 C186.79,0.7 186.82,0.7 186.84,0.7 C186.86,0.7 186.88,0.7 186.91,0.71 C186.96,0.71 187.02,0.71 187.07,0.72 C187.11,0.73 187.16,0.74 187.2,0.75 C187.25,0.76 187.3,0.78 187.36,0.8 C187.39,0.81 187.43,0.83 187.47,0.84 C187.52,0.87 187.57,0.89 187.62,0.93 C187.65,0.95 187.68,0.97 187.71,0.99 C187.76,1.02 187.81,1.06 187.85,1.1 C187.88,1.13 187.91,1.15 187.93,1.18 C187.96,1.2 187.979,1.22 188,1.25 C188.02,1.27 188.03,1.3 188.05,1.32 C188.07,1.35 188.09,1.38 188.11,1.41 C188.14,1.47 188.18,1.52 188.2,1.58 C188.21,1.61 188.22,1.64 188.229,1.66 C188.26,1.73 188.28,1.8 188.3,1.86 C188.3,1.89 188.31,1.91 188.31,1.94 C188.33,2.01 188.33,2.09 188.33,2.16 C188.34,2.18 188.34,2.19 188.34,2.2 L188.34,111.49 C188.34,138.55 172.39,162.97 147.67,173.88 L147.67,176.65 L227.47,176.65 L227.47,176.65 Z M54.88,48.18 C54.17,47.74 53.25,47.95 52.81,48.66 C51.53,50.72 50.46,52.91 49.61,55.18 C49.33,55.95 49.72,56.82 50.5,57.11 C50.67,57.17 50.85,57.2 51.02,57.2 C51.63,57.2 52.2,56.83 52.43,56.22 C53.2,54.14 54.189,52.13 55.36,50.24 C55.8,49.54 55.58,48.61 54.88,48.18 L54.88,48.18 Z M57.56,31.06 C57.85,31.49 58.33,31.73 58.81,31.73 C59.1,31.73 59.38,31.65 59.64,31.48 C60.33,31.03 60.52,30.1 60.06,29.4 C57.729,25.88 55.15,22.46 52.38,19.26 C51.85,18.63 50.9,18.56 50.27,19.1 C49.64,19.64 49.57,20.59 50.11,21.22 C52.79,24.33 55.3,27.64 57.56,31.06 L57.56,31.06 Z M85.78,87.41 C93.95,87.41 100.99,82.56 104.229,75.59 L96.97,70.92 C95.34,75.6 90.87,78.91 85.78,78.91 C79.24,78.91 73.92,73.59 73.92,67.06 C73.92,63.76 75.29,60.7 77.63,58.48 L70.35,53.81 C67.29,57.37 65.42,62 65.42,67.06 C65.42,78.28 74.55,87.41 85.78,87.41 L85.78,87.41 Z M80.34,67.06 C80.34,64.91 81.58,63.07 83.38,62.18 L80.229,60.16 C78.14,61.83 76.92,64.35 76.92,67.06 C76.92,71.94 80.89,75.91 85.78,75.91 C89.83,75.91 93.36,73.1 94.35,69.23 L92.88,68.29 L91.21,67.21 C91.12,70.14 88.72,72.49 85.78,72.49 C82.77,72.49 80.34,70.06 80.34,67.06 L80.34,67.06 Z M72.52,51.64 L105.31,72.72 C105.84,70.92 106.13,69.02 106.13,67.06 C106.13,55.83 97,46.7 85.78,46.7 C80.71,46.7 76.09,48.57 72.52,51.64 L72.52,51.64 Z M85.78,90.41 C72.9,90.41 62.42,79.93 62.42,67.06 C62.42,60.8 64.89,55.12 68.91,50.93 C68.97,50.85 69.04,50.78 69.11,50.72 C73.35,46.39 79.25,43.7 85.78,43.7 C98.65,43.7 109.13,54.18 109.13,67.06 C109.13,70.01 108.57,72.83 107.57,75.43 C107.54,75.53 107.51,75.62 107.46,75.71 C104.01,84.31 95.6,90.41 85.78,90.41 L85.78,90.41 Z M102.05,134.89 C102.32,134.1 101.89,133.25 101.11,132.99 C100.32,132.73 99.47,133.15 99.21,133.93 C98.34,136.54 95.91,138.28 93.17,138.28 C90.43,138.28 88,136.54 87.13,133.93 C86.87,133.15 86.02,132.73 85.229,132.99 C84.45,133.25 84.02,134.1 84.29,134.89 C85.57,138.71 89.14,141.28 93.17,141.28 C97.2,141.28 100.77,138.71 102.05,134.89 L102.05,134.89 Z M110.31,145.86 C109.53,145.6 108.68,146.02 108.42,146.81 C107.89,148.36 106.439,149.41 104.8,149.41 C103.16,149.41 101.71,148.36 101.18,146.81 C100.92,146.02 100.07,145.6 99.29,145.86 C98.5,146.12 98.08,146.97 98.34,147.76 C99.27,150.54 101.87,152.41 104.8,152.41 C107.729,152.41 110.33,150.54 111.26,147.76 C111.52,146.97 111.1,146.12 110.31,145.86 L110.31,145.86 Z M124.39,134.89 C124.65,134.1 124.229,133.25 123.439,132.99 C122.66,132.73 121.81,133.15 121.54,133.93 C120.67,136.54 118.24,138.28 115.5,138.28 C112.76,138.28 110.34,136.54 109.46,133.93 C109.2,133.15 108.35,132.73 107.57,132.99 C106.78,133.25 106.36,134.1 106.62,134.89 C107.9,138.71 111.47,141.28 115.5,141.28 C119.54,141.28 123.11,138.71 124.39,134.89 L124.39,134.89 Z M115.5,81.31 L107.38,94.73 L115.5,110.97 L123.63,94.73 L115.5,81.31 L115.5,81.31 Z M103.96,94.59 L115.5,75.51 L127.05,94.59 L115.5,117.68 L103.96,94.59 L103.96,94.59 Z M131.72,145.86 C130.939,145.6 130.09,146.02 129.82,146.81 C129.3,148.36 127.85,149.41 126.21,149.41 C124.57,149.41 123.12,148.36 122.59,146.81 C122.33,146.02 121.479,145.6 120.689,145.86 C119.91,146.12 119.49,146.97 119.75,147.76 C120.68,150.54 123.28,152.41 126.21,152.41 C129.14,152.41 131.74,150.54 132.67,147.76 C132.93,146.97 132.51,146.12 131.72,145.86 L131.72,145.86 Z M145.78,132.99 C144.99,132.73 144.14,133.15 143.88,133.93 C143,136.54 140.58,138.28 137.84,138.28 C135.1,138.28 132.67,136.54 131.8,133.93 C131.53,133.15 130.68,132.73 129.9,132.99 C129.11,133.25 128.689,134.1 128.95,134.89 C130.229,138.71 133.8,141.28 137.84,141.28 C141.87,141.28 145.439,138.71 146.72,134.89 C146.979,134.1 146.56,133.25 145.78,132.99 L145.78,132.99 Z M124.88,67.06 C124.88,69.02 125.17,70.92 125.7,72.72 L158.479,51.64 C154.92,48.57 150.29,46.7 145.229,46.7 C134.01,46.7 124.88,55.83 124.88,67.06 L124.88,67.06 Z M150.67,67.06 C150.67,70.06 148.24,72.49 145.229,72.49 C142.28,72.49 139.89,70.14 139.8,67.21 L138.13,68.29 L136.66,69.23 C137.64,73.1 141.17,75.91 145.229,75.91 C150.12,75.91 154.09,71.94 154.09,67.06 C154.09,64.35 152.87,61.83 150.78,60.16 L147.63,62.18 C149.43,63.07 150.67,64.91 150.67,67.06 L150.67,67.06 Z M160.66,53.81 L153.38,58.48 C155.72,60.7 157.09,63.76 157.09,67.06 C157.09,73.59 151.77,78.91 145.229,78.91 C140.14,78.91 135.66,75.6 134.04,70.92 L126.78,75.59 C130.01,82.56 137.06,87.41 145.229,87.41 C156.46,87.41 165.59,78.28 165.59,67.06 C165.59,62 163.72,57.37 160.66,53.81 L160.66,53.81 Z M123.439,75.43 C122.43,72.83 121.88,70.01 121.88,67.06 C121.88,54.18 132.35,43.7 145.229,43.7 C151.76,43.7 157.66,46.39 161.9,50.72 C161.97,50.78 162.04,50.85 162.1,50.93 C166.11,55.12 168.59,60.8 168.59,67.06 C168.59,79.93 158.11,90.41 145.229,90.41 C135.41,90.41 127,84.31 123.55,75.71 C123.5,75.62 123.46,75.53 123.439,75.43 L123.439,75.43 Z M180.74,19.1 C180.11,18.56 179.16,18.63 178.62,19.26 C175.86,22.46 173.28,25.88 170.939,29.4 C170.49,30.1 170.68,31.03 171.37,31.48 C171.62,31.65 171.91,31.73 172.189,31.73 C172.68,31.73 173.16,31.49 173.45,31.06 C175.71,27.64 178.21,24.33 180.89,21.22 C181.439,20.59 181.37,19.64 180.74,19.1 L180.74,19.1 Z M176.13,48.18 C175.43,48.61 175.21,49.54 175.65,50.24 C176.82,52.13 177.81,54.14 178.58,56.22 C178.81,56.83 179.38,57.2 179.99,57.2 C180.16,57.2 180.34,57.17 180.51,57.11 C181.29,56.82 181.68,55.95 181.39,55.18 C180.55,52.91 179.47,50.72 178.2,48.66 C177.76,47.95 176.83,47.74 176.13,48.18 L176.13,48.18 Z M213.17,224.66 L194.92,224.66 C194.09,224.66 193.42,225.33 193.42,226.16 C193.42,226.99 194.09,227.66 194.92,227.66 L213.17,227.66 C214,227.66 214.67,226.99 214.67,226.16 C214.67,225.33 214,224.66 213.17,224.66 L213.17,224.66 Z M230.34,226.16 C230.34,226.99 229.67,227.66 228.84,227.66 L218.67,227.66 C217.84,227.66 217.17,226.99 217.17,226.16 C217.17,225.33 217.84,224.66 218.67,224.66 L228.84,224.66 C229.67,224.66 230.34,225.33 230.34,226.16 L230.34,226.16 Z" id="Fill-17" fill="#2B2F35"></path>
    </g>
</svg>