<?xml version="1.0" encoding="UTF-8" standalone="no"?>
<svg width="210px" height="224px" viewBox="0 0 210 224" version="1.1" xmlns="http://www.w3.org/2000/svg" xmlns:xlink="http://www.w3.org/1999/xlink">
    <!-- Generator: Sketch 39.1 (31720) - http://www.bohemiancoding.com/sketch -->
    <title>Slice 1</title>
    <desc>Created with Sketch.</desc>
    <defs></defs>
    <g id="Page-1" stroke="none" stroke-width="1" fill="none" fill-rule="evenodd">
        <path d="M93.17,91.42 C91.24,91.42 89.67,92.99 89.67,94.92 C89.67,96.849 91.24,98.42 93.17,98.42 C95.1,98.42 96.67,96.849 96.67,94.92 C96.67,92.99 95.1,91.42 93.17,91.42 L93.17,91.42 Z M88.79,107.16 C82.206,107.16 76.85,101.799 76.85,95.21 C76.85,88.626 82.206,83.27 88.79,83.27 C95.38,83.27 100.74,88.626 100.74,95.21 C100.74,101.799 95.38,107.16 88.79,107.16 L88.79,107.16 Z M116.23,91.42 C114.3,91.42 112.729,92.99 112.729,94.92 C112.729,96.849 114.3,98.42 116.23,98.42 C118.16,98.42 119.73,96.849 119.73,94.92 C119.73,92.99 118.16,91.42 116.23,91.42 L116.23,91.42 Z M120.61,107.16 C114.021,107.16 108.66,101.799 108.66,95.21 C108.66,88.626 114.021,83.27 120.61,83.27 C127.19,83.27 132.55,88.626 132.55,95.21 C132.55,101.799 127.19,107.16 120.61,107.16 L120.61,107.16 Z" id="Fill-18" fill="#F1BB31"></path>
        <path d="M88.79,81.27 C83.956,81.27 79.392,83.844 76.878,87.989 C75.551,90.164 74.85,92.661 74.85,95.21 C74.85,102.902 81.104,109.16 88.79,109.16 C96.482,109.16 102.74,102.902 102.74,95.21 C102.74,87.523 96.482,81.27 88.79,81.27 L88.79,81.27 Z M120.61,81.27 C112.918,81.27 106.66,87.523 106.66,95.21 C106.66,102.902 112.918,109.16 120.61,109.16 C128.3,109.16 134.55,102.902 134.55,95.21 C134.55,92.888 133.97,90.592 132.86,88.57 C130.42,84.066 125.73,81.27 120.61,81.27 L120.61,81.27 Z M90.417,114.659 C89.988,114.659 89.609,114.932 89.475,115.338 C89.387,115.594 89.404,115.864 89.522,116.103 C89.641,116.343 89.846,116.521 90.098,116.606 C93.537,117.758 98.859,118.42 104.7,118.42 C110.54,118.42 115.86,117.758 119.3,116.606 C119.82,116.431 120.11,115.862 119.94,115.336 C119.8,114.934 119.42,114.659 118.99,114.659 C118.88,114.659 118.78,114.677 118.67,114.713 C115.46,115.782 110.243,116.42 104.7,116.42 C99.164,116.42 93.945,115.782 90.742,114.714 C90.634,114.677 90.525,114.659 90.417,114.659 L90.417,114.659 Z M105.729,128.17 C105.396,128.17 105.063,128.17 104.648,128.16 C104.34,128.17 104.005,128.17 103.67,128.17 C91.182,128.17 82.354,125.888 76.682,121.195 L76.641,121.161 L76.607,121.119 C76.53,121.021 76.447,120.947 76.354,120.895 L76.31,120.87 L76.271,120.837 C71.725,116.87 69.42,111.175 69.42,103.91 C69.42,97.928 70.992,92.036 73.967,86.87 C80.076,76.255 91.457,69.66 103.67,69.66 C104.004,69.66 104.338,69.66 104.752,69.67 C105.061,69.66 105.396,69.66 105.729,69.66 C118.28,69.66 129.82,76.534 135.84,87.601 C138.55,92.581 139.98,98.22 139.98,103.91 C139.98,111.175 137.67,116.87 133.13,120.837 L133.09,120.87 L133.05,120.895 C132.95,120.947 132.87,121.02 132.79,121.117 L132.76,121.16 L132.72,121.195 C127.05,125.888 118.22,128.17 105.729,128.17 L105.729,128.17 Z" id="Fill-19" fill="#9A6E56"></path>
        <path d="M13.17,220.66 L1.67,220.66 C0.84,220.66 0.17,221.33 0.17,222.16 C0.17,222.99 0.84,223.66 1.67,223.66 L13.17,223.66 C14,223.66 14.67,222.99 14.67,222.16 C14.67,221.33 14,220.66 13.17,220.66 L13.17,220.66 Z M188.48,220.66 L55.35,220.66 L62.88,214.91 L149.17,214.91 C150,214.91 150.67,214.24 150.67,213.41 C150.67,212.58 150,211.91 149.17,211.91 L139.15,211.91 L129.38,201.66 L80.67,201.66 C79.84,201.66 79.17,202.33 79.17,203.16 C79.17,203.99 79.84,204.66 80.67,204.66 L128.09,204.66 L135,211.91 L61.87,211.91 L50.41,220.66 L20.92,220.66 C20.09,220.66 19.42,221.33 19.42,222.16 C19.42,222.99 20.09,223.66 20.92,223.66 L188.48,223.66 C189.31,223.66 189.98,222.99 189.98,222.16 C189.98,221.33 189.31,220.66 188.48,220.66 L188.48,220.66 Z M69.92,103.91 C69.92,111.06 72.13,116.56 76.6,120.46 C76.76,120.55 76.89,120.67 77,120.81 C82.56,125.41 91.41,127.67 103.67,127.67 C104,127.67 104.33,127.67 104.66,127.66 C105.07,127.67 105.4,127.67 105.729,127.67 C117.99,127.67 126.84,125.41 132.4,120.81 C132.51,120.67 132.64,120.55 132.8,120.46 C137.27,116.56 139.48,111.06 139.48,103.91 C139.48,98.09 138,92.62 135.4,87.84 C129.68,77.32 118.52,70.16 105.729,70.16 C105.4,70.16 105.07,70.16 104.74,70.17 C104.33,70.16 104,70.16 103.67,70.16 C91.17,70.16 80.229,76.99 74.4,87.12 C71.55,92.07 69.92,97.8 69.92,103.91 L69.92,103.91 Z M79.57,76.2 C85.92,70.67 94.17,67.29 103.2,67.17 L103.2,64.16 C103.2,63.33 103.87,62.66 104.7,62.66 C105.53,62.66 106.2,63.33 106.2,64.16 L106.2,67.17 C115.23,67.29 123.49,70.67 129.83,76.2 L135.43,62.82 L106.2,36.92 L106.2,39.41 C106.2,40.24 105.53,40.91 104.7,40.91 C103.87,40.91 103.2,40.24 103.2,39.41 L103.2,36.92 L73.97,62.82 L79.57,76.2 L79.57,76.2 Z M55.71,175.73 L26.72,156.58 L36.66,114.46 L66.97,105.76 C66.939,105.16 66.92,104.54 66.92,103.91 C66.92,99.45 67.72,95.17 69.18,91.22 L38.29,55.02 L64.91,15.48 C65.37,14.79 66.3,14.61 66.99,15.07 C67.67,15.53 67.86,16.47 67.39,17.15 L42.05,54.8 L70.49,88.13 C72.21,84.53 74.5,81.25 77.24,78.41 L70.37,62 L103.2,32.91 L103.2,31.16 C103.2,30.33 103.87,29.66 104.7,29.66 C105.53,29.66 106.2,30.33 106.2,31.16 L106.2,32.91 L139.03,62 L132.16,78.41 C134.9,81.25 137.19,84.53 138.91,88.13 L167.35,54.8 L142.01,17.15 C141.55,16.47 141.73,15.53 142.41,15.07 C143.1,14.61 144.03,14.79 144.5,15.48 L171.11,55.02 L140.22,91.22 C141.68,95.17 142.48,99.45 142.48,103.91 C142.48,104.54 142.46,105.16 142.43,105.76 L172.74,114.46 L182.68,156.58 L153.69,175.73 C153.44,175.9 153.15,175.98 152.86,175.98 C152.38,175.98 151.9,175.75 151.61,175.31 C151.16,174.62 151.35,173.69 152.04,173.23 L179.28,155.24 L170.22,116.86 L142.13,108.8 C141.32,114.3 139.07,118.76 135.38,122.2 L147.05,149.07 L115.53,176.61 C115.24,176.86 114.89,176.98 114.54,176.98 C114.13,176.98 113.71,176.8 113.41,176.46 C112.87,175.84 112.93,174.89 113.55,174.35 L143.42,148.25 L132.96,124.15 C126.82,128.49 117.74,130.67 105.729,130.67 C105.37,130.67 105.02,130.67 104.66,130.66 C104.39,130.67 104.03,130.67 103.67,130.67 C91.66,130.67 82.58,128.49 76.439,124.15 L65.979,148.25 L95.85,174.35 C96.47,174.89 96.54,175.84 95.99,176.46 C95.689,176.8 95.28,176.98 94.86,176.98 C94.51,176.98 94.16,176.86 93.87,176.61 L62.36,149.07 L74.02,122.2 C70.34,118.76 68.08,114.3 67.27,108.8 L39.18,116.86 L30.12,155.24 L57.37,173.23 C58.06,173.69 58.25,174.62 57.79,175.31 C57.5,175.75 57.02,175.98 56.54,175.98 C56.25,175.98 55.97,175.9 55.71,175.73 L55.71,175.73 Z M63.2,177.09 C62.51,176.63 61.58,176.82 61.12,177.51 C60.67,178.2 60.86,179.13 61.55,179.59 L71.88,186.41 C72.13,186.58 72.42,186.66 72.7,186.66 C73.189,186.66 73.67,186.42 73.96,185.99 C74.41,185.3 74.22,184.37 73.53,183.91 L63.2,177.09 L63.2,177.09 Z M53.92,3.41 L73.03,3.41 L68.31,10.42 C67.85,11.1 68.03,12.04 68.72,12.5 C68.979,12.67 69.27,12.75 69.56,12.75 C70.04,12.75 70.51,12.52 70.8,12.09 L76.65,3.41 L103.2,3.41 L103.2,6.41 C103.2,7.24 103.87,7.91 104.7,7.91 C105.53,7.91 106.2,7.24 106.2,6.41 L106.2,3.41 L132.76,3.41 L138.6,12.09 C138.89,12.52 139.36,12.75 139.84,12.75 C140.13,12.75 140.42,12.67 140.68,12.5 C141.37,12.04 141.55,11.1 141.09,10.42 L136.37,3.41 L155.48,3.41 C156.31,3.41 156.98,2.74 156.98,1.91 C156.98,1.08 156.31,0.41 155.48,0.41 L53.92,0.41 C53.09,0.41 52.42,1.08 52.42,1.91 C52.42,2.74 53.09,3.41 53.92,3.41 L53.92,3.41 Z M77.35,95.21 C77.35,101.53 82.479,106.66 88.79,106.66 C95.11,106.66 100.24,101.53 100.24,95.21 C100.24,88.9 95.11,83.77 88.79,83.77 C82.479,83.77 77.35,88.9 77.35,95.21 L77.35,95.21 Z M74.35,95.21 C74.35,92.47 75.12,89.91 76.45,87.73 C78.979,83.56 83.57,80.77 88.79,80.77 C96.76,80.77 103.24,87.25 103.24,95.21 C103.24,103.18 96.76,109.66 88.79,109.66 C80.83,109.66 74.35,103.18 74.35,95.21 L74.35,95.21 Z M89,115.18 C88.729,115.97 89.16,116.82 89.939,117.08 C93.43,118.25 98.81,118.92 104.7,118.92 C110.59,118.92 115.97,118.25 119.46,117.08 C120.24,116.82 120.67,115.97 120.41,115.18 C120.14,114.4 119.3,113.97 118.51,114.24 C115.36,115.29 110.2,115.92 104.7,115.92 C99.21,115.92 94.05,115.29 90.9,114.24 C90.11,113.97 89.26,114.4 89,115.18 L89,115.18 Z M93.17,98.92 C95.38,98.92 97.17,97.13 97.17,94.92 C97.17,92.71 95.38,90.92 93.17,90.92 C90.96,90.92 89.17,92.71 89.17,94.92 C89.17,97.13 90.96,98.92 93.17,98.92 L93.17,98.92 Z M108.51,178.76 L104.7,182.09 L100.89,178.76 C100.27,178.21 99.32,178.28 98.77,178.9 C98.229,179.52 98.29,180.47 98.92,181.01 L104.7,186.07 L110.49,181.01 C111.11,180.47 111.17,179.52 110.63,178.9 C110.08,178.27 109.14,178.21 108.51,178.76 L108.51,178.76 Z M104.7,13.16 C103.87,13.16 103.2,13.83 103.2,14.66 L103.2,22.91 C103.2,23.74 103.87,24.41 104.7,24.41 C105.53,24.41 106.2,23.74 106.2,22.91 L106.2,14.66 C106.2,13.83 105.53,13.16 104.7,13.16 L104.7,13.16 Z M104.7,57.41 C105.53,57.41 106.2,56.74 106.2,55.91 L106.2,47.66 C106.2,46.83 105.53,46.16 104.7,46.16 C103.87,46.16 103.2,46.83 103.2,47.66 L103.2,55.91 C103.2,56.74 103.87,57.41 104.7,57.41 L104.7,57.41 Z M109.16,95.21 C109.16,101.53 114.3,106.66 120.61,106.66 C126.92,106.66 132.05,101.53 132.05,95.21 C132.05,88.9 126.92,83.77 120.61,83.77 C114.3,83.77 109.16,88.9 109.16,95.21 L109.16,95.21 Z M106.16,95.21 C106.16,87.25 112.64,80.77 120.61,80.77 C126.08,80.77 130.86,83.83 133.3,88.33 C134.42,90.38 135.05,92.72 135.05,95.21 C135.05,103.18 128.57,109.66 120.61,109.66 C112.64,109.66 106.16,103.18 106.16,95.21 L106.16,95.21 Z M116.23,98.92 C118.44,98.92 120.23,97.13 120.23,94.92 C120.23,92.71 118.44,90.92 116.23,90.92 C114.02,90.92 112.229,92.71 112.229,94.92 C112.229,97.13 114.02,98.92 116.23,98.92 L116.23,98.92 Z M146.2,177.09 L135.87,183.91 C135.18,184.37 134.99,185.3 135.45,185.99 C135.74,186.42 136.21,186.66 136.7,186.66 C136.98,186.66 137.27,186.58 137.53,186.41 L147.85,179.59 C148.54,179.13 148.73,178.2 148.28,177.51 C147.82,176.82 146.89,176.63 146.2,177.09 L146.2,177.09 Z M157.17,211.91 C156.34,211.91 155.67,212.58 155.67,213.41 C155.67,214.24 156.34,214.91 157.17,214.91 L169.23,214.91 C170.06,214.91 170.73,214.24 170.73,213.41 C170.73,212.58 170.06,211.91 169.23,211.91 L157.17,211.91 L157.17,211.91 Z M209.23,222.16 C209.23,222.99 208.56,223.66 207.73,223.66 L196.23,223.66 C195.41,223.66 194.73,222.99 194.73,222.16 C194.73,221.33 195.41,220.66 196.23,220.66 L207.73,220.66 C208.56,220.66 209.23,221.33 209.23,222.16 L209.23,222.16 Z" id="Fill-20" fill="#2B2F35"></path>
    </g>
</svg>