<?xml version="1.0" encoding="UTF-8" standalone="no"?>
<svg width="185px" height="240px" viewBox="0 0 185 240" version="1.1" xmlns="http://www.w3.org/2000/svg" xmlns:xlink="http://www.w3.org/1999/xlink">
    <!-- Generator: Sketch 39.1 (31720) - http://www.bohemiancoding.com/sketch -->
    <title>Slice 1</title>
    <desc>Created with Sketch.</desc>
    <defs></defs>
    <g id="Page-1" stroke="none" stroke-width="1" fill="none" fill-rule="evenodd">
        <path d="M91.8,158.49 C86.089,158.49 80.541,156.47 76.179,152.802 L75.888,152.558 L76.045,152.213 C77.928,148.08 82.078,145.41 86.62,145.41 C88.464,145.41 90.239,145.835 91.896,146.674 L92.35,146.907 L92.802,146.675 C94.449,145.835 96.225,145.41 98.08,145.41 C102.622,145.41 106.772,148.08 108.655,152.213 L108.813,152.558 L108.521,152.803 C104.148,156.47 98.597,158.49 92.89,158.49 L91.8,158.49" id="Fill-30" fill="#E6728F"></path>
        <path d="M74.17,79.91 C72.103,79.91 70.42,81.592 70.42,83.66 C70.42,85.728 72.103,87.41 74.17,87.41 C76.237,87.41 77.92,85.728 77.92,83.66 C77.92,81.592 76.237,79.91 74.17,79.91 L74.17,79.91 Z M66.55,100.66 C57.307,100.66 53.17,93.131 53.17,85.67 C53.17,77.341 58.453,68.91 68.55,68.91 C77.027,68.91 83.42,75.733 83.42,84.78 C83.42,93.239 75.537,100.66 66.55,100.66 L66.55,100.66 Z M110.53,79.91 C108.463,79.91 106.78,81.592 106.78,83.66 C106.78,85.728 108.463,87.41 110.53,87.41 C112.598,87.41 114.28,85.728 114.28,83.66 C114.28,81.592 112.598,79.91 110.53,79.91 L110.53,79.91 Z M118.15,100.66 C109.163,100.66 101.28,93.239 101.28,84.78 C101.28,75.733 107.673,68.91 116.15,68.91 C126.247,68.91 131.53,77.341 131.53,85.67 C131.53,89.68 130.333,93.382 128.159,96.093 C125.757,99.081 122.296,100.66 118.15,100.66 L118.15,100.66 Z M81.822,135.265 C81.667,135.265 81.515,135.242 81.37,135.197 L77.73,134.14 C77.006,133.927 76.5,133.253 76.5,132.5 L76.5,125.748 L77.083,125.847 C79.196,126.204 81.121,126.467 82.97,126.653 L83.42,126.697 L83.42,133.67 C83.42,134.171 83.181,134.65 82.779,134.95 C82.505,135.154 82.165,135.265 81.822,135.265 L81.822,135.265 Z" id="Fill-31" fill="#FFFCE1"></path>
        <path d="M73.861,150.588 C69.72,146.074 67.439,140.23 67.439,134.13 L67.439,123.639 L68.075,123.819 C70.007,124.365 72.033,124.857 74.101,125.28 L74.5,125.362 L74.5,132.5 C74.5,134.136 75.598,135.6 77.171,136.06 L80.819,137.12 C81.138,137.215 81.465,137.26 81.82,137.26 C82.6,137.26 83.367,137.008 83.981,136.549 C84.882,135.875 85.42,134.799 85.42,133.67 L85.42,126.873 L85.955,126.911 C88.333,127.078 90.425,127.16 92.35,127.16 C100.736,127.15 108.902,126.026 116.622,123.819 L117.26,123.637 L117.26,134.13 C117.26,140.231 114.979,146.075 110.838,150.588 L110.366,151.102 L110.031,150.49 C107.638,146.123 103.058,143.41 98.08,143.41 C96.155,143.41 94.296,143.802 92.553,144.577 L92.351,144.667 L92.147,144.577 C90.396,143.802 88.535,143.41 86.62,143.41 C81.642,143.41 77.062,146.123 74.668,150.49 L74.333,151.102 L73.861,150.588" id="Fill-32" fill="#C8393C"></path>
        <path d="M11.167,165.366 C9.05,165.366 7.263,164.784 5.854,163.637 C2.299,160.744 1.762,154.309 4.578,148.337 C8.952,139.034 20.048,121.93 26.273,112.563 L27.189,111.184 L27.189,158.393 L26.985,158.543 C20.892,163.007 15.421,165.366 11.167,165.366 L11.167,165.366 Z M173.529,165.366 C169.277,165.366 163.805,163.007 157.705,158.543 L157.5,158.394 L157.5,111.187 L158.416,112.563 C163.415,120.07 175.536,138.583 180.122,148.337 C182.929,154.313 182.388,160.748 178.835,163.637 C177.43,164.784 175.645,165.366 173.529,165.366 L173.529,165.366 Z M97.926,29.773 C97.412,29.773 96.987,30.166 96.938,30.688 C96.885,31.232 97.289,31.718 97.839,31.772 C101.001,32.065 104.155,32.601 107.211,33.365 C107.279,33.382 107.355,33.39 107.45,33.39 C107.912,33.39 108.313,33.077 108.425,32.629 C108.489,32.371 108.449,32.103 108.311,31.874 C108.172,31.643 107.951,31.48 107.689,31.415 C104.504,30.634 101.251,30.083 98.023,29.778 L97.926,29.773 L97.926,29.773 Z M59.321,55.09 C59.221,55.09 59.119,55.106 59.021,55.136 C56.558,55.905 54.25,57.043 52.158,58.519 C51.937,58.675 51.789,58.905 51.742,59.168 C51.695,59.429 51.754,59.693 51.908,59.911 C52.095,60.181 52.4,60.34 52.729,60.34 C52.935,60.34 53.134,60.278 53.306,60.159 C55.241,58.797 57.363,57.747 59.61,57.043 C60.135,56.877 60.432,56.313 60.271,55.785 C60.141,55.371 59.758,55.09 59.321,55.09 L59.321,55.09 Z M125.379,55.09 C124.942,55.09 124.56,55.371 124.427,55.791 C124.347,56.045 124.37,56.315 124.493,56.551 C124.616,56.787 124.825,56.962 125.08,57.043 C127.319,57.745 129.444,58.794 131.397,60.16 C131.566,60.278 131.765,60.34 131.97,60.34 C132.298,60.34 132.598,60.183 132.793,59.909 C133.107,59.455 132.998,58.841 132.542,58.518 C130.432,57.037 128.123,55.899 125.682,55.137 C125.581,55.106 125.479,55.09 125.379,55.09 L125.379,55.09 Z M66.5,55.99 C73.588,55.99 80.175,59.187 84.572,64.76 C84.763,65.002 85.05,65.14 85.36,65.14 C85.592,65.14 85.801,65.068 85.981,64.926 C86.411,64.589 86.484,63.956 86.145,63.515 C81.367,57.463 74.206,53.99 66.5,53.99 C65.78,53.99 65.015,54.026 64.225,54.098 C63.956,54.12 63.717,54.245 63.547,54.449 C63.377,54.654 63.296,54.917 63.318,55.188 C63.362,55.704 63.799,56.094 64.335,56.094 C65.058,56.025 65.765,55.99 66.5,55.99 L66.5,55.99 Z M118.189,53.99 C110.49,53.99 103.333,57.463 98.553,63.519 C98.216,63.956 98.289,64.589 98.719,64.926 C98.937,65.104 99.176,65.14 99.34,65.14 C99.649,65.14 99.932,65.004 100.112,64.767 C104.515,59.187 111.102,55.99 118.189,55.99 C118.932,55.99 119.643,56.025 120.302,56.092 L120.305,56.092 C120.895,56.093 121.331,55.701 121.382,55.181 C121.429,54.633 121.022,54.144 120.478,54.098 C119.686,54.026 118.917,53.99 118.189,53.99 L118.189,53.99 Z M68.55,66.91 C57.14,66.91 51.17,76.347 51.17,85.67 C51.17,93.853 55.982,102.66 66.55,102.66 C76.778,102.66 85.42,94.472 85.42,84.78 C85.42,74.592 78.167,66.91 68.55,66.91 L68.55,66.91 Z M116.15,66.91 C106.533,66.91 99.28,74.592 99.28,84.78 C99.28,94.472 107.922,102.66 118.15,102.66 C128.718,102.66 133.53,93.853 133.53,85.67 C133.53,76.347 127.561,66.91 116.15,66.91 L116.15,66.91 Z M47.01,111.604 C46.688,111.604 46.397,111.747 46.211,111.998 C46.046,112.219 45.977,112.488 46.018,112.756 C46.056,113.014 46.194,113.242 46.405,113.396 C48.838,115.228 51.561,116.936 54.502,118.477 C54.647,118.55 54.809,118.59 54.96,118.59 C55.331,118.59 55.679,118.379 55.845,118.053 C55.973,117.81 55.998,117.54 55.919,117.287 C55.839,117.034 55.666,116.826 55.43,116.703 C52.575,115.215 49.944,113.565 47.608,111.799 C47.438,111.672 47.229,111.604 47.01,111.604 L47.01,111.604 Z M137.688,111.604 C137.47,111.604 137.263,111.672 137.088,111.801 C134.721,113.584 132.09,115.234 129.271,116.703 C129.032,116.826 128.858,117.03 128.778,117.28 C128.696,117.535 128.72,117.809 128.845,118.051 C129.02,118.382 129.359,118.59 129.729,118.59 C129.886,118.59 130.044,118.55 130.213,118.469 C133.107,116.953 135.83,115.245 138.29,113.4 C138.504,113.241 138.642,113.01 138.68,112.748 C138.719,112.482 138.651,112.216 138.489,111.999 C138.3,111.749 138.007,111.604 137.688,111.604 L137.688,111.604 Z M60.437,119.125 C60.033,119.125 59.67,119.371 59.512,119.752 C59.412,119.996 59.414,120.269 59.519,120.517 C59.622,120.76 59.813,120.948 60.057,121.046 C61.486,121.638 63.086,122.222 65.096,122.885 L65.439,122.998 L65.439,134.13 C65.439,141.42 68.52,148.459 73.89,153.443 C73.985,153.554 74.041,153.607 74.132,153.679 C79.013,158.078 85.279,160.49 91.8,160.49 L92.89,160.49 C99.421,160.49 105.688,158.078 110.535,153.699 C110.659,153.605 110.715,153.554 110.76,153.497 C116.18,148.459 119.26,141.419 119.26,134.13 L119.26,122.999 L119.603,122.885 C121.616,122.218 123.217,121.634 124.64,121.048 C124.886,120.947 125.077,120.756 125.18,120.509 C125.281,120.263 125.28,119.995 125.179,119.754 C125.025,119.371 124.663,119.129 124.255,119.129 C124.122,119.129 123.991,119.154 123.864,119.205 C114.444,123.08 103.545,125.14 92.351,125.16 C81.158,125.14 70.256,123.08 60.819,119.202 C60.695,119.151 60.566,119.125 60.437,119.125 L60.437,119.125 Z M43.17,168.66 C42.618,168.66 42.17,169.109 42.17,169.66 L42.17,173.33 C42.17,173.881 42.618,174.33 43.17,174.33 C43.722,174.33 44.17,173.881 44.17,173.33 L44.17,169.66 C44.17,169.109 43.722,168.66 43.17,168.66 L43.17,168.66 Z M141.53,168.66 C140.979,168.66 140.53,169.109 140.53,169.66 L140.53,173.33 C140.53,173.881 140.979,174.33 141.53,174.33 C142.082,174.33 142.53,173.881 142.53,173.33 L142.53,169.66 C142.53,169.109 142.082,168.66 141.53,168.66 L141.53,168.66 Z M92.34,214.18 C88.182,214.18 84.312,212.749 81.444,210.151 C78.21,207.226 76.5,203.021 76.5,197.99 L76.5,191.16 C76.5,190.609 76.052,190.16 75.5,190.16 C74.948,190.16 74.5,190.609 74.5,191.16 C74.5,199.613 67.699,206.49 59.34,206.49 C50.976,206.49 44.17,199.613 44.17,191.16 L44.17,180.66 C44.17,180.109 43.722,179.66 43.17,179.66 C42.618,179.66 42.17,180.109 42.17,180.66 L42.17,191.288 L39.299,188.755 C36.663,186.437 33.275,185.16 29.76,185.16 L29.26,185.16 L29.189,184.59 L29.189,95.16 C29.189,63.167 53.087,36.015 84.777,32.004 C85.32,31.931 85.71,31.427 85.644,30.881 C85.583,30.383 85.153,30.008 84.645,30.008 C84.604,30.008 84.563,30.011 84.521,30.016 C78.229,30.811 72.082,32.528 66.253,35.117 L65.144,35.61 L65.584,34.479 C66.186,32.931 66.955,31.43 67.87,30.018 C70.913,25.327 76.908,19.678 88.198,19.41 C106.542,18.969 119.201,17.892 127.681,7.356 L128.31,6.575 L128.555,7.547 C130.045,13.449 131.973,24.364 128.146,31.146 C126.628,33.824 124.405,35.524 121.35,36.343 L121.168,36.392 L120.999,36.309 C118.163,34.911 115.265,33.722 112.384,32.775 C112.281,32.741 112.175,32.724 112.068,32.724 C111.635,32.724 111.251,32.999 111.114,33.408 C111.03,33.662 111.051,33.936 111.174,34.175 C111.294,34.41 111.499,34.584 111.75,34.663 C137.921,43.282 155.5,67.593 155.5,95.16 L155.5,185.09 L154.93,185.16 C151.415,185.16 148.027,186.437 145.39,188.756 L142.53,191.292 L142.53,180.66 C142.53,180.109 142.082,179.66 141.53,179.66 C140.979,179.66 140.53,180.109 140.53,180.66 L140.53,191.16 C140.53,199.613 133.725,206.49 125.36,206.49 C120.537,206.49 116.107,204.244 113.208,200.327 C111.233,197.677 110.189,194.507 110.189,191.16 C110.189,190.609 109.741,190.16 109.189,190.16 C108.638,190.16 108.189,190.609 108.189,191.16 L108.189,197.99 C108.189,203.018 106.483,207.223 103.256,210.15 C100.377,212.749 96.504,214.18 92.35,214.18 L92.34,214.18 L92.34,214.18 Z" id="Fill-33" fill="#D6EBF1"></path>
        <path d="M10.17,236.99 L1.5,236.99 C0.67,236.99 0,237.66 0,238.49 C0,239.32 0.67,239.99 1.5,239.99 L10.17,239.99 C11,239.99 11.67,239.32 11.67,238.49 C11.67,237.66 11,236.99 10.17,236.99 L10.17,236.99 Z M43.17,174.83 C44,174.83 44.67,174.16 44.67,173.33 L44.67,169.66 C44.67,168.83 44,168.16 43.17,168.16 C42.34,168.16 41.67,168.83 41.67,169.66 L41.67,173.33 C41.67,174.16 42.34,174.83 43.17,174.83 L43.17,174.83 Z M46.11,113.8 C48.58,115.66 51.33,117.38 54.27,118.92 C54.49,119.03 54.729,119.09 54.96,119.09 C55.5,119.09 56.03,118.79 56.29,118.28 C56.68,117.54 56.39,116.64 55.66,116.26 C52.86,114.8 50.25,113.17 47.91,111.4 C47.25,110.91 46.3,111.04 45.81,111.7 C45.31,112.37 45.439,113.31 46.11,113.8 L46.11,113.8 Z M52.729,60.84 C53.03,60.84 53.33,60.75 53.59,60.57 C55.479,59.24 57.56,58.21 59.76,57.52 C60.55,57.27 60.99,56.43 60.75,55.64 C60.5,54.85 59.66,54.41 58.87,54.66 C56.37,55.44 54.01,56.6 51.87,58.11 C51.189,58.59 51.02,59.52 51.5,60.2 C51.79,60.62 52.26,60.84 52.729,60.84 L52.729,60.84 Z M74.17,87.91 C76.52,87.91 78.42,86.01 78.42,83.66 C78.42,81.31 76.52,79.41 74.17,79.41 C71.82,79.41 69.92,81.31 69.92,83.66 C69.92,86.01 71.82,87.91 74.17,87.91 L74.17,87.91 Z M53.67,85.67 C53.67,92.88 57.65,100.16 66.55,100.16 C75.27,100.16 82.92,92.98 82.92,84.78 C82.92,76.02 76.74,69.41 68.55,69.41 C58.78,69.41 53.67,77.59 53.67,85.67 L53.67,85.67 Z M50.67,85.67 C50.67,76.1 56.81,66.41 68.55,66.41 C78.45,66.41 85.92,74.31 85.92,84.78 C85.92,94.75 77.05,103.16 66.55,103.16 C55.63,103.16 50.67,94.09 50.67,85.67 L50.67,85.67 Z M64.45,56.59 C65.13,56.52 65.82,56.49 66.5,56.49 C73.439,56.49 79.88,59.62 84.18,65.07 C84.479,65.45 84.92,65.64 85.36,65.64 C85.689,65.64 86.01,65.54 86.29,65.32 C86.939,64.81 87.05,63.87 86.54,63.21 C81.67,57.04 74.36,53.49 66.5,53.49 C65.729,53.49 64.95,53.53 64.18,53.6 C63.35,53.67 62.75,54.4 62.82,55.23 C62.89,56.05 63.61,56.65 64.45,56.59 L64.45,56.59 Z M97.79,32.27 C100.92,32.56 104.05,33.09 107.09,33.85 C107.21,33.88 107.33,33.89 107.45,33.89 C108.13,33.89 108.74,33.43 108.91,32.75 C109.11,31.95 108.62,31.13 107.81,30.93 C104.63,30.15 101.35,29.59 98.07,29.28 C97.25,29.2 96.52,29.81 96.439,30.64 C96.36,31.46 96.97,32.19 97.79,32.27 L97.79,32.27 Z M6.17,163.25 C10.26,166.58 17.72,164.71 26.689,158.14 L26.689,112.84 C21.32,120.92 9.53,138.98 5.03,148.55 C2.31,154.32 2.79,160.5 6.17,163.25 L6.17,163.25 Z M29.689,184.59 C29.689,184.63 29.72,184.66 29.76,184.66 C33.4,184.66 36.9,185.98 39.63,188.38 L41.67,190.18 L41.67,180.66 C41.67,179.83 42.34,179.16 43.17,179.16 C44,179.16 44.67,179.83 44.67,180.66 L44.67,191.16 C44.67,199.34 51.25,205.99 59.34,205.99 C67.42,205.99 74,199.34 74,191.16 C74,190.33 74.68,189.66 75.5,189.66 C76.33,189.66 77,190.33 77,191.16 L77,197.99 C77,202.87 78.65,206.95 81.78,209.78 C84.55,212.29 88.3,213.68 92.34,213.68 L92.35,213.68 C96.39,213.68 100.14,212.29 102.92,209.78 C106.04,206.95 107.689,202.87 107.689,197.99 L107.689,191.16 C107.689,190.33 108.36,189.66 109.189,189.66 C110.02,189.66 110.689,190.33 110.689,191.16 C110.689,194.48 111.77,197.56 113.61,200.03 C116.29,203.65 120.56,205.99 125.36,205.99 C133.45,205.99 140.03,199.34 140.03,191.16 L140.03,180.66 C140.03,179.83 140.7,179.16 141.53,179.16 C142.35,179.16 143.03,179.83 143.03,180.66 L143.03,190.18 L145.06,188.38 C147.79,185.98 151.3,184.66 154.93,184.66 C154.97,184.66 155,184.63 155,184.59 L155,95.16 C155,67.81 137.56,43.69 111.6,35.14 C110.81,34.89 110.38,34.04 110.64,33.25 C110.9,32.47 111.75,32.04 112.54,32.3 C115.55,33.29 118.439,34.49 121.22,35.86 C124.13,35.08 126.26,33.46 127.71,30.9 C131.53,24.13 129.4,12.94 128.07,7.67 C119.49,18.33 106.51,19.47 88.21,19.91 C77.28,20.17 71.39,25.51 68.29,30.29 C67.26,31.88 66.54,33.4 66.05,34.66 C71.79,32.11 77.97,30.34 84.46,29.52 C85.28,29.42 86.04,30 86.14,30.82 C86.24,31.64 85.66,32.39 84.84,32.5 C53.4,36.48 29.689,63.42 29.689,95.16 L29.689,184.59 L29.689,184.59 Z M158,158.14 C166.979,164.71 174.439,166.58 178.52,163.25 C181.9,160.5 182.38,154.32 179.67,148.55 C175.17,138.98 163.38,120.92 158,112.84 L158,158.14 L158,158.14 Z M2.31,147.27 C7.99,135.21 24.37,110.88 26.689,107.45 L26.689,95.16 C26.689,69.91 41.02,47.58 62.33,36.46 C62.689,35.13 63.66,32.12 65.76,28.84 C69.26,23.38 75.91,17.2 88.13,16.91 C109.99,16.39 120.28,14.41 127.42,3.47 L129.12,0.86 L130.1,3.81 C130.34,4.56 136.07,22.18 130.32,32.37 C128.97,34.76 127.1,36.54 124.74,37.72 C145.06,49.33 158,71.04 158,95.16 L158,107.45 C160.32,110.88 176.71,135.21 182.38,147.27 C185.729,154.38 184.92,161.91 180.42,165.58 C179.03,166.71 176.79,167.87 173.49,167.87 C169.78,167.87 164.729,166.41 158,161.82 L158,184.59 C158,186.28 156.63,187.66 154.93,187.66 C152.03,187.66 149.22,188.72 147.04,190.64 L142.71,194.45 C141.18,202.71 133.99,208.99 125.36,208.99 C119.52,208.99 114.34,206.11 111.13,201.68 C110.91,201.39 110.71,201.09 110.51,200.78 C109.96,205.31 108.07,209.15 104.939,212 C101.61,215.02 97.14,216.68 92.35,216.68 L92.34,216.68 C87.56,216.68 83.09,215.02 79.76,212 C76.62,209.15 74.74,205.31 74.189,200.78 C71.04,205.71 65.57,208.99 59.34,208.99 C50.71,208.99 43.52,202.71 41.979,194.45 L37.65,190.64 C35.47,188.72 32.67,187.66 29.76,187.66 C28.07,187.66 26.689,186.28 26.689,184.59 L26.689,161.82 C19.97,166.4 14.91,167.87 11.21,167.87 C7.9,167.87 5.67,166.71 4.28,165.58 C-0.23,161.91 -1.03,154.38 2.31,147.27 L2.31,147.27 Z M110.53,79.41 C108.18,79.41 106.28,81.31 106.28,83.66 C106.28,86.01 108.18,87.91 110.53,87.91 C112.87,87.91 114.78,86.01 114.78,83.66 C114.78,81.31 112.87,79.41 110.53,79.41 L110.53,79.41 Z M98.16,63.21 C97.65,63.87 97.76,64.81 98.41,65.32 C98.68,65.54 99.01,65.64 99.34,65.64 C99.78,65.64 100.22,65.45 100.51,65.07 C104.81,59.62 111.26,56.49 118.189,56.49 C118.88,56.49 119.57,56.52 120.25,56.59 C121.07,56.65 121.8,56.05 121.88,55.23 C121.95,54.4 121.34,53.67 120.52,53.6 C119.75,53.53 118.96,53.49 118.189,53.49 C110.33,53.49 103.03,57.04 98.16,63.21 L98.16,63.21 Z M67.939,134.13 C67.939,140.34 70.33,146 74.229,150.25 C76.68,145.78 81.4,142.91 86.62,142.91 C88.62,142.91 90.54,143.32 92.35,144.12 C94.15,143.32 96.08,142.91 98.08,142.91 C103.29,142.91 108.02,145.78 110.47,150.25 C114.37,146 116.76,140.34 116.76,134.13 L116.76,124.3 C109.1,126.49 100.8,127.65 92.35,127.66 C90.189,127.66 88.05,127.56 85.92,127.41 L85.92,133.67 C85.92,134.95 85.31,136.18 84.28,136.95 C83.57,137.48 82.7,137.76 81.82,137.76 C81.43,137.76 81.05,137.71 80.68,137.6 L77.03,136.54 C75.25,136.02 74,134.36 74,132.5 L74,125.77 C71.95,125.35 69.92,124.86 67.939,124.3 L67.939,134.13 L67.939,134.13 Z M77,132.5 C77,133.04 77.36,133.51 77.87,133.66 L81.52,134.72 C81.84,134.82 82.21,134.75 82.479,134.55 C82.76,134.34 82.92,134.01 82.92,133.67 L82.92,127.15 C80.92,126.95 78.95,126.67 77,126.34 L77,132.5 L77,132.5 Z M108.2,152.42 C106.41,148.49 102.46,145.91 98.08,145.91 C96.3,145.91 94.6,146.32 93.03,147.12 L92.35,147.47 L91.67,147.12 C90.09,146.32 88.4,145.91 86.62,145.91 C82.24,145.91 78.29,148.49 76.5,152.42 C80.64,155.9 85.979,157.99 91.8,157.99 L92.32,157.99 L92.89,157.99 C98.71,157.99 104.05,155.9 108.2,152.42 L108.2,152.42 Z M61.01,118.74 C70.38,122.59 81.21,124.64 92.35,124.66 C103.479,124.64 114.32,122.59 123.68,118.74 C124.46,118.43 125.33,118.79 125.64,119.56 C125.96,120.32 125.59,121.2 124.83,121.51 C123.18,122.19 121.479,122.79 119.76,123.36 L119.76,134.13 C119.76,141.9 116.439,148.9 111.15,153.81 C111.07,153.91 110.979,153.99 110.87,154.07 C106.11,158.37 99.8,160.99 92.89,160.99 L92.32,160.99 L91.8,160.99 C84.89,160.99 78.59,158.37 73.82,154.07 C73.72,153.99 73.63,153.91 73.55,153.81 C68.26,148.9 64.939,141.9 64.939,134.13 L64.939,123.36 C63.21,122.79 61.51,122.19 59.87,121.51 C59.1,121.2 58.74,120.32 59.05,119.56 C59.37,118.79 60.24,118.42 61.01,118.74 L61.01,118.74 Z M131.03,85.67 C131.03,77.59 125.92,69.41 116.15,69.41 C107.96,69.41 101.78,76.02 101.78,84.78 C101.78,92.98 109.43,100.16 118.15,100.16 C122.14,100.16 125.47,98.64 127.77,95.78 C129.87,93.16 131.03,89.57 131.03,85.67 L131.03,85.67 Z M134.03,85.67 C134.03,94.09 129.06,103.16 118.15,103.16 C107.65,103.16 98.78,94.75 98.78,84.78 C98.78,74.31 106.25,66.41 116.15,66.41 C127.89,66.41 134.03,76.1 134.03,85.67 L134.03,85.67 Z M124.93,57.52 C127.13,58.21 129.21,59.24 131.11,60.57 C131.37,60.75 131.67,60.84 131.97,60.84 C132.439,60.84 132.9,60.62 133.2,60.2 C133.67,59.52 133.51,58.59 132.83,58.11 C130.68,56.6 128.33,55.44 125.83,54.66 C125.04,54.41 124.2,54.85 123.95,55.64 C123.7,56.43 124.14,57.27 124.93,57.52 L124.93,57.52 Z M128.4,118.28 C128.67,118.79 129.189,119.09 129.729,119.09 C129.97,119.09 130.2,119.03 130.43,118.92 C133.37,117.38 136.11,115.66 138.59,113.8 C139.25,113.31 139.39,112.37 138.89,111.7 C138.39,111.04 137.45,110.91 136.79,111.4 C134.439,113.17 131.84,114.8 129.04,116.26 C128.3,116.64 128.02,117.54 128.4,118.28 L128.4,118.28 Z M141.53,174.83 C142.35,174.83 143.03,174.16 143.03,173.33 L143.03,169.66 C143.03,168.83 142.35,168.16 141.53,168.16 C140.7,168.16 140.03,168.83 140.03,169.66 L140.03,173.33 C140.03,174.16 140.7,174.83 141.53,174.83 L141.53,174.83 Z M163.53,236.99 L148.14,236.99 L142.11,232.75 L136.189,236.99 L21.17,236.99 C20.34,236.99 19.67,237.66 19.67,238.49 C19.67,239.32 20.34,239.99 21.17,239.99 L137.15,239.99 L142.13,236.43 L147.189,239.99 L163.53,239.99 C164.35,239.99 165.03,239.32 165.03,238.49 C165.03,237.66 164.35,236.99 163.53,236.99 L163.53,236.99 Z M184.689,238.49 C184.689,239.32 184.02,239.99 183.189,239.99 L174.53,239.99 C173.7,239.99 173.03,239.32 173.03,238.49 C173.03,237.66 173.7,236.99 174.53,236.99 L183.189,236.99 C184.02,236.99 184.689,237.66 184.689,238.49 L184.689,238.49 Z" id="Fill-34" fill="#2B2F35"></path>
    </g>
</svg>