<?xml version="1.0" encoding="UTF-8" standalone="no"?>
<svg width="231px" height="234px" viewBox="0 0 231 234" version="1.1" xmlns="http://www.w3.org/2000/svg" xmlns:xlink="http://www.w3.org/1999/xlink">
    <!-- Generator: Sketch 39.1 (31720) - http://www.bohemiancoding.com/sketch -->
    <title>Slice 1</title>
    <desc>Created with Sketch.</desc>
    <defs></defs>
    <g id="Page-1" stroke="none" stroke-width="1" fill="none" fill-rule="evenodd">
        <path d="M95.17,61.41 C92.688,61.41 90.67,63.428 90.67,65.91 C90.67,68.391 92.688,70.41 95.17,70.41 C97.651,70.41 99.67,68.391 99.67,65.91 C99.67,63.428 97.651,61.41 95.17,61.41 L95.17,61.41 Z M96.687,79.721 C92.721,74.986 86.938,72.27 80.82,72.27 C77.46,72.27 74.097,73.117 71.096,74.721 L70.697,74.934 L70.445,74.559 C68.303,71.371 67.17,67.661 67.17,63.83 C67.17,53.166 75.842,44.49 86.5,44.49 C97.164,44.49 105.84,53.166 105.84,63.83 C105.84,70.222 102.667,76.197 97.352,79.814 L96.978,80.068 L96.687,79.721 L96.687,79.721 Z M135.84,61.41 C133.36,61.41 131.34,63.428 131.34,65.91 C131.34,68.391 133.36,70.41 135.84,70.41 C138.32,70.41 140.34,68.391 140.34,65.91 C140.34,63.428 138.32,61.41 135.84,61.41 L135.84,61.41 Z M133.66,79.814 C128.34,76.197 125.17,70.222 125.17,63.83 C125.17,53.166 133.84,44.49 144.5,44.49 C155.16,44.49 163.84,53.166 163.84,63.83 C163.84,67.66 162.71,71.371 160.57,74.559 L160.31,74.934 L159.92,74.721 C156.91,73.117 153.55,72.27 150.19,72.27 C144.06,72.27 138.28,74.986 134.32,79.721 L134.03,80.068 L133.66,79.814 L133.66,79.814 Z M105.726,104.16 L115.5,87.156 L125.27,104.16 L105.726,104.16 L105.726,104.16 Z" id="Fill-35" fill="#F1BB31"></path>
        <path d="M47.418,231.49 L48.747,230.578 C55.72,225.792 74.8,214.616 101.332,214.21 L101.84,214.202 L101.84,219.83 C101.84,224.058 103.767,227.982 107.127,230.595 L108.277,231.49 L47.418,231.49 L47.418,231.49 Z M122.732,231.49 L123.883,230.595 C127.24,227.982 129.17,224.058 129.17,219.83 L129.17,214.202 L129.68,214.21 C156.21,214.616 175.29,225.792 182.26,230.578 L183.59,231.49 L122.732,231.49 L122.732,231.49 Z" id="Fill-36" fill="#9A6E56"></path>
        <path d="M116.705,13.381 C124.71,13.381 132.41,15.113 139.58,18.529 C139.71,18.595 139.86,18.63 140,18.63 C140.39,18.63 140.74,18.409 140.91,18.052 C141.15,17.558 140.93,16.961 140.43,16.72 C133,13.177 125.02,11.38 116.71,11.38 L116.691,11.38 C116.354,11.38 116.015,11.38 115.705,11.39 L115.35,11.39 C114.972,11.383 114.604,11.379 114.235,11.379 C105.977,11.379 98.016,13.176 90.575,16.721 C90.077,16.961 89.863,17.559 90.101,18.053 C90.265,18.404 90.618,18.628 91.003,18.628 C91.152,18.628 91.298,18.594 91.434,18.529 C98.621,15.112 106.313,13.38 114.3,13.38 C114.634,13.38 114.969,13.38 115.334,13.39 C115.334,13.39 116.371,13.381 116.705,13.381 L116.705,13.381 Z M83.833,20.738 C83.632,20.738 83.438,20.798 83.274,20.911 C80.596,22.73 78.078,24.778 75.787,26.999 C75.391,27.383 75.378,28.017 75.76,28.412 C75.951,28.611 76.207,28.72 76.479,28.72 C76.743,28.72 76.986,28.62 77.184,28.43 C79.401,26.281 81.826,24.309 84.389,22.566 C84.612,22.414 84.764,22.185 84.814,21.923 C84.864,21.661 84.809,21.394 84.657,21.171 C84.473,20.899 84.165,20.738 83.833,20.738 L83.833,20.738 Z M147.18,20.738 C146.84,20.738 146.54,20.899 146.35,21.17 C146.04,21.628 146.16,22.254 146.62,22.567 C149.18,24.309 151.61,26.281 153.83,28.43 C154.02,28.619 154.26,28.72 154.53,28.72 C154.8,28.72 155.05,28.613 155.23,28.418 C155.43,28.219 155.53,27.968 155.53,27.702 C155.52,27.436 155.42,27.186 155.22,26.999 C152.93,24.778 150.41,22.73 147.74,20.913 C147.57,20.798 147.38,20.738 147.18,20.738 L147.18,20.738 Z M80.82,74.27 C86.743,74.27 92.386,77.15 95.913,81.975 L96.439,82.707 L97.216,82.249 C103.77,78.434 107.84,71.377 107.84,63.83 C107.84,52.063 98.267,42.49 86.5,42.49 C74.738,42.49 65.17,52.063 65.17,63.83 C65.17,68.59 66.718,73.096 69.645,76.863 L70.2,77.578 L70.967,77.105 C73.944,75.25 77.352,74.27 80.82,74.27 L80.82,74.27 Z M144.5,42.49 C132.74,42.49 123.17,52.063 123.17,63.83 C123.17,71.381 127.24,78.438 133.78,82.248 L134.56,82.708 L135.1,81.976 C138.61,77.15 144.26,74.27 150.19,74.27 C153.65,74.27 157.06,75.25 160.04,77.105 L160.81,77.578 L161.36,76.863 C164.29,73.084 165.84,68.577 165.84,63.83 C165.84,52.063 156.27,42.49 144.5,42.49 L144.5,42.49 Z M128.74,106.16 L115.5,83.143 L102.274,106.16 L128.74,106.16 L128.74,106.16 Z M147.17,132.83 C144.23,132.83 141.84,130.982 141.84,128.71 L141.84,126.92 C141.84,122.872 138.55,119.58 134.5,119.58 C132.47,119.58 130.52,120.444 129.13,121.949 L128.62,122.496 L128.31,121.822 C127.1,119.245 124.5,117.58 121.67,117.58 C119.4,117.58 117.295,118.6 115.893,120.38 L115.499,120.88 L115.106,120.378 C113.714,118.6 111.612,117.58 109.34,117.58 C106.515,117.58 103.909,119.245 102.703,121.822 L102.389,122.494 L101.884,121.95 C100.463,120.422 98.552,119.58 96.5,119.58 C92.458,119.58 89.17,122.872 89.17,126.92 L89.17,128.71 C89.17,130.982 86.779,132.83 83.84,132.83 C80.896,132.83 78.5,130.982 78.5,128.71 L78.5,107.49 L86.17,107.49 C86.722,107.49 87.17,107.041 87.17,106.49 C87.17,105.939 86.722,105.49 86.17,105.49 L68.29,105.49 C58.712,105.49 50.92,97.698 50.92,88.12 L50.92,66.76 C50.92,31.812 79.352,3.38 114.3,3.38 C114.693,3.38 115.087,3.38 115.541,3.39 C115.911,3.38 116.316,3.38 116.71,3.38 C151.66,3.38 180.09,31.812 180.09,66.76 L180.09,88.12 C180.09,97.698 172.29,105.49 162.71,105.49 L144.84,105.49 C144.29,105.49 143.84,105.939 143.84,106.49 C143.84,107.041 144.29,107.49 144.84,107.49 L152.51,107.49 L152.51,128.71 C152.51,130.982 150.11,132.83 147.17,132.83 L147.17,132.83 Z M96.5,152.66 C93.561,152.66 91.17,150.269 91.17,147.33 L91.17,126.92 C91.17,123.975 93.561,121.58 96.5,121.58 C99.444,121.58 101.84,123.975 101.84,126.92 L101.84,147.33 C101.84,150.269 99.444,152.66 96.5,152.66 L96.5,152.66 Z M109.34,152.66 C106.396,152.66 104,150.269 104,147.33 L104,124.92 C104,121.975 106.396,119.58 109.34,119.58 C111.75,119.58 113.865,121.213 114.483,123.552 L114.5,123.615 L114.5,148.625 L114.483,148.688 C113.865,151.027 111.75,152.66 109.34,152.66 L109.34,152.66 Z M121.67,152.66 C119.253,152.66 117.134,151.026 116.517,148.687 L116.5,148.625 L116.5,123.615 L116.517,123.552 C117.134,121.214 119.253,119.58 121.67,119.58 C124.61,119.58 127,121.975 127,124.92 L127,147.33 C127,150.269 124.61,152.66 121.67,152.66 L121.67,152.66 Z M134.5,152.66 C131.56,152.66 129.17,150.269 129.17,147.33 L129.17,126.92 C129.17,123.975 131.56,121.58 134.5,121.58 C137.44,121.58 139.84,123.975 139.84,126.92 L139.84,147.33 C139.84,150.269 137.44,152.66 134.5,152.66 L134.5,152.66 Z M109.84,163.49 L109.84,154.649 L110.277,154.594 C112.214,154.35 113.929,153.381 115.104,151.863 L115.498,151.356 L115.894,151.862 C117.081,153.382 118.8,154.352 120.732,154.594 L121.17,154.649 L121.17,163.49 L109.84,163.49 L109.84,163.49 Z M109.84,175.33 L121.17,175.33 L121.17,165.49 L109.84,165.49 L109.84,175.33 Z M109.84,187.813 L109.84,177.33 L121.17,177.33 L121.17,187.811 L120.875,188.335 L115.499,197.727 L109.84,187.813 L109.84,187.813 Z M59.754,207.334 C58.246,207.334 56.842,206.803 55.46,205.713 C53.211,203.937 52.271,201.775 52.739,199.461 C53.286,196.763 55.769,194.295 58.776,193.458 C59.305,193.311 59.615,192.757 59.468,192.222 C59.35,191.794 58.954,191.495 58.505,191.495 C58.413,191.495 58.321,191.508 58.232,191.532 C57.648,191.695 57.035,191.936 56.36,192.269 L55.99,192.451 L55.741,192.122 C54.779,190.852 53.197,188.328 53.412,185.699 C53.564,183.878 54.532,182.328 56.371,180.959 C57.855,179.848 59.246,179.308 60.624,179.308 C60.749,179.308 60.873,179.312 60.997,179.321 C61.396,179.356 61.77,179.427 62.115,179.531 C66.008,180.691 68.81,186.341 69.561,188.42 L69.807,189.08 L108.26,189.08 L114.782,200.49 L69.645,200.49 L69.343,200.932 C68.294,202.485 64.705,206.654 60.765,207.254 C60.426,207.307 60.085,207.334 59.754,207.334 L59.754,207.334 Z M171.24,207.339 C170.92,207.339 170.59,207.314 170.26,207.264 C165.5,206.533 161.69,200.966 161.65,200.91 L161.37,200.49 L116.229,200.49 L122.75,189.08 L161.2,189.08 L161.44,188.419 C161.47,188.342 164.25,180.921 168.89,179.531 C169.38,179.385 169.88,179.311 170.38,179.311 C171.76,179.311 173.15,179.85 174.64,180.959 C176.48,182.336 177.45,183.886 177.6,185.698 C177.8,188.17 176.44,190.554 175.27,192.12 L175.02,192.452 L174.65,192.269 C173.97,191.936 173.36,191.695 172.78,191.531 C172.69,191.508 172.6,191.495 172.5,191.495 C172.06,191.495 171.66,191.794 171.54,192.223 C171.47,192.483 171.5,192.755 171.63,192.988 C171.76,193.22 171.98,193.387 172.23,193.458 C175.24,194.295 177.72,196.763 178.27,199.461 C178.73,201.783 177.79,203.944 175.55,205.713 C174.16,206.807 172.75,207.339 171.24,207.339 L171.24,207.339 Z M152.05,215.036 C148.5,214.178 144.93,213.511 141.44,213.055 L141,212.999 L141,202.49 L152.67,202.49 L152.67,215.185 L152.05,215.036 L152.05,215.036 Z M78.34,202.49 L90,202.49 L90,212.999 L89.564,213.055 C86.061,213.512 82.491,214.179 78.958,215.036 L78.34,215.186 L78.34,202.49 L78.34,202.49 Z M112.5,207.66 C111.948,207.66 111.5,208.109 111.5,208.66 C111.5,209.211 111.948,209.66 112.5,209.66 L118.5,209.66 C119.052,209.66 119.5,209.211 119.5,208.66 C119.5,208.109 119.052,207.66 118.5,207.66 L112.5,207.66 L112.5,207.66 Z M112.5,213.51 C111.948,213.51 111.5,213.959 111.5,214.51 C111.5,215.061 111.948,215.51 112.5,215.51 L118.5,215.51 C119.052,215.51 119.5,215.061 119.5,214.51 C119.5,213.959 119.052,213.51 118.5,213.51 L112.5,213.51 L112.5,213.51 Z M109.34,218.83 C108.788,218.83 108.34,219.279 108.34,219.83 C108.34,223.778 111.552,226.99 115.5,226.99 C119.453,226.99 122.67,223.778 122.67,219.83 C122.67,219.279 122.222,218.83 121.67,218.83 C121.118,218.83 120.67,219.279 120.67,219.83 C120.67,222.675 118.351,224.99 115.5,224.99 C112.654,224.99 110.34,222.675 110.34,219.83 C110.34,219.279 109.892,218.83 109.34,218.83 L109.34,218.83 Z M115.5,231.49 C109.07,231.49 103.84,226.259 103.84,219.83 L103.84,202.49 L127.17,202.49 L127.17,219.83 C127.17,226.259 121.935,231.49 115.5,231.49 L115.5,231.49 Z" id="Fill-37" fill="#FFFCE1"></path>
        <path d="M14.5,230.99 L1.5,230.99 C0.68,230.99 0,231.66 0,232.49 C0,233.32 0.68,233.99 1.5,233.99 L14.5,233.99 C15.33,233.99 16,233.32 16,232.49 C16,231.66 15.33,230.99 14.5,230.99 L14.5,230.99 Z M39.92,75.66 C40.75,75.66 41.42,74.99 41.42,74.16 L41.42,66.76 C41.42,65.93 40.75,65.26 39.92,65.26 C39.09,65.26 38.42,65.93 38.42,66.76 L38.42,74.16 C38.42,74.99 39.09,75.66 39.92,75.66 L39.92,75.66 Z M66.88,117.96 L66.95,117.96 C67.75,117.96 68.41,117.34 68.45,116.53 C68.49,115.7 67.85,115 67.02,114.96 C52.67,114.29 41.42,102.5 41.42,88.12 L41.42,80.41 C41.42,79.58 40.75,78.91 39.92,78.91 C39.09,78.91 38.42,79.58 38.42,80.41 L38.42,88.12 C38.42,104.1 50.92,117.21 66.88,117.96 L66.88,117.96 Z M181.98,230.99 C174.55,225.89 155.81,215.11 129.67,214.71 L129.67,219.83 C129.67,224.36 127.52,228.4 124.19,230.99 L181.98,230.99 L181.98,230.99 Z M126.67,219.83 L126.67,202.99 L104.34,202.99 L104.34,219.83 C104.34,225.98 109.35,230.99 115.5,230.99 C121.66,230.99 126.67,225.98 126.67,219.83 L126.67,219.83 Z M106.82,230.99 C103.49,228.4 101.34,224.36 101.34,219.83 L101.34,214.71 C75.2,215.11 56.46,225.89 49.03,230.99 L106.82,230.99 L106.82,230.99 Z M78.84,202.99 L78.84,214.55 C82.18,213.74 85.74,213.05 89.5,212.56 L89.5,202.99 L78.84,202.99 L78.84,202.99 Z M92.5,202.99 L92.5,212.21 C95.34,211.92 98.29,211.75 101.34,211.71 L101.34,202.99 L92.5,202.99 L92.5,202.99 Z M113.92,199.99 L112.9,198.21 L107.97,189.58 L69.46,189.58 L69.09,188.59 C68.36,186.57 65.63,181.1 61.97,180.01 C61.64,179.91 61.3,179.85 60.96,179.82 C59.6,179.72 58.18,180.23 56.67,181.36 C54.95,182.64 54.05,184.07 53.91,185.74 C53.71,188.19 55.2,190.58 56.14,191.82 C56.77,191.51 57.42,191.24 58.1,191.05 C58.9,190.83 59.729,191.29 59.95,192.09 C60.17,192.89 59.7,193.72 58.91,193.94 C56.07,194.73 53.74,197.04 53.229,199.56 C52.8,201.68 53.68,203.67 55.77,205.32 C57.34,206.56 58.95,207.03 60.689,206.76 C64.43,206.19 67.91,202.16 68.93,200.65 L69.38,199.99 L113.92,199.99 L113.92,199.99 Z M109.34,152.16 C111.55,152.16 113.439,150.68 114,148.56 L114,123.68 C113.439,121.56 111.55,120.08 109.34,120.08 C106.67,120.08 104.5,122.25 104.5,124.92 L104.5,147.33 C104.5,149.99 106.67,152.16 109.34,152.16 L109.34,152.16 Z M109.34,117.08 C111.82,117.08 114.06,118.23 115.5,120.07 C116.95,118.23 119.189,117.08 121.67,117.08 C124.81,117.08 127.51,118.94 128.76,121.61 C130.19,120.06 132.23,119.08 134.5,119.08 C138.82,119.08 142.34,122.6 142.34,126.92 L142.34,128.71 C142.34,130.71 144.51,132.33 147.17,132.33 C149.84,132.33 152.01,130.71 152.01,128.71 L152.01,107.99 L144.84,107.99 C144.01,107.99 143.34,107.32 143.34,106.49 C143.34,105.66 144.01,104.99 144.84,104.99 L162.71,104.99 C172.02,104.99 179.59,97.42 179.59,88.12 L179.59,66.76 C179.59,32.09 151.38,3.88 116.71,3.88 C116.32,3.88 115.92,3.88 115.53,3.89 C115.08,3.88 114.689,3.88 114.3,3.88 C79.63,3.88 51.42,32.09 51.42,66.76 L51.42,88.12 C51.42,97.42 58.99,104.99 68.29,104.99 L86.17,104.99 C87,104.99 87.67,105.66 87.67,106.49 C87.67,107.32 87,107.99 86.17,107.99 L79,107.99 L79,128.71 C79,130.71 81.17,132.33 83.84,132.33 C86.5,132.33 88.67,130.71 88.67,128.71 L88.67,126.92 C88.67,122.6 92.18,119.08 96.5,119.08 C98.77,119.08 100.81,120.06 102.25,121.61 C103.5,118.94 106.2,117.08 109.34,117.08 L109.34,117.08 Z M101.34,126.92 C101.34,124.25 99.17,122.08 96.5,122.08 C93.84,122.08 91.67,124.25 91.67,126.92 L91.67,147.33 C91.67,149.99 93.84,152.16 96.5,152.16 C99.17,152.16 101.34,149.99 101.34,147.33 L101.34,126.92 L101.34,126.92 Z M139.34,126.92 C139.34,124.25 137.17,122.08 134.5,122.08 C131.84,122.08 129.67,124.25 129.67,126.92 L129.67,147.33 C129.67,149.99 131.84,152.16 134.5,152.16 C137.17,152.16 139.34,149.99 139.34,147.33 L139.34,126.92 L139.34,126.92 Z M126.5,124.92 C126.5,122.25 124.34,120.08 121.67,120.08 C119.46,120.08 117.56,121.56 117,123.68 L117,148.56 C117.56,150.68 119.46,152.16 121.67,152.16 C124.34,152.16 126.5,149.99 126.5,147.33 L126.5,124.92 L126.5,124.92 Z M110.34,177.83 L110.34,187.68 L115.5,196.72 L120.439,188.09 L120.67,187.68 L120.67,177.83 L110.34,177.83 L110.34,177.83 Z M110.34,174.83 L120.67,174.83 L120.67,165.99 L110.34,165.99 L110.34,174.83 Z M120.67,155.09 C118.59,154.83 116.75,153.77 115.5,152.17 C114.26,153.77 112.41,154.83 110.34,155.09 L110.34,162.99 L120.67,162.99 L120.67,155.09 L120.67,155.09 Z M129.67,202.99 L129.67,211.71 C132.72,211.75 135.67,211.92 138.5,212.21 L138.5,202.99 L129.67,202.99 L129.67,202.99 Z M141.5,202.99 L141.5,212.56 C145.26,213.05 148.82,213.74 152.17,214.55 L152.17,202.99 L141.5,202.99 L141.5,202.99 Z M123.04,189.58 L117.09,199.99 L161.63,199.99 L162.08,200.65 C162.11,200.7 165.84,206.08 170.33,206.77 C172.06,207.03 173.67,206.56 175.24,205.32 C177.33,203.67 178.2,201.68 177.78,199.56 C177.27,197.04 174.94,194.73 172.1,193.94 C171.3,193.72 170.84,192.89 171.06,192.09 C171.28,191.29 172.11,190.83 172.91,191.05 C173.59,191.24 174.24,191.51 174.87,191.82 C175.8,190.58 177.3,188.19 177.1,185.74 C176.96,184.07 176.05,182.64 174.34,181.36 C172.45,179.95 170.71,179.51 169.03,180.01 C165.36,181.11 162.65,186.58 161.91,188.59 L161.55,189.58 L123.04,189.58 L123.04,189.58 Z M209.34,232.49 C209.34,233.32 208.67,233.99 207.84,233.99 L23.17,233.99 C22.34,233.99 21.67,233.32 21.67,232.49 C21.67,231.66 22.34,230.99 23.17,230.99 L43.96,230.99 C46.33,229.06 57.65,220.37 75.84,215.33 L75.84,202.99 L70.93,202.99 C69.64,204.67 65.89,209 61.14,209.73 C58.57,210.12 56.14,209.43 53.91,207.67 C50.92,205.31 49.63,202.22 50.29,198.97 C50.71,196.88 51.939,194.96 53.63,193.48 C52.42,191.85 50.65,188.83 50.92,185.5 C51.13,182.96 52.46,180.76 54.87,178.96 C56.939,177.41 59.02,176.7 61.07,176.83 C61.66,176.86 62.25,176.97 62.83,177.14 C67.56,178.55 70.49,184.25 71.51,186.58 L107.34,186.58 L107.34,154.89 C105.53,154.41 103.97,153.3 102.92,151.81 C101.5,153.83 99.16,155.16 96.5,155.16 C92.18,155.16 88.67,151.65 88.67,147.33 L88.67,133.91 C87.34,134.8 85.66,135.33 83.84,135.33 C79.51,135.33 76,132.36 76,128.71 L76,107.99 L68.29,107.99 C57.34,107.99 48.42,99.08 48.42,88.12 L48.42,66.76 C48.42,30.43 77.97,0.88 114.3,0.88 C114.71,0.88 115.12,0.88 115.53,0.89 C115.89,0.88 116.3,0.88 116.71,0.88 C153.04,0.88 182.59,30.43 182.59,66.76 L182.59,88.12 C182.59,99.08 173.67,107.99 162.71,107.99 L155.01,107.99 L155.01,128.71 C155.01,132.36 151.49,135.33 147.17,135.33 C145.35,135.33 143.67,134.8 142.34,133.91 L142.34,147.33 C142.34,151.65 138.82,155.16 134.5,155.16 C131.85,155.16 129.5,153.83 128.09,151.81 C127.04,153.3 125.48,154.41 123.67,154.89 L123.67,186.58 L159.5,186.58 C160.52,184.25 163.44,178.55 168.17,177.14 C170.79,176.35 173.47,176.97 176.13,178.96 C178.55,180.76 179.88,182.96 180.09,185.5 C180.36,188.83 178.58,191.85 177.37,193.48 C179.07,194.96 180.3,196.88 180.72,198.97 C181.37,202.22 180.09,205.31 177.1,207.67 C175.27,209.11 173.31,209.84 171.25,209.84 C170.84,209.84 170.41,209.81 169.99,209.74 C169.95,209.74 169.91,209.74 169.87,209.73 C165.12,209 161.37,204.67 160.08,202.99 L155.17,202.99 L155.17,215.33 C173.36,220.37 184.68,229.06 187.05,230.99 L207.84,230.99 C208.67,230.99 209.34,231.66 209.34,232.49 L209.34,232.49 Z M105.34,63.83 C105.34,53.44 96.89,44.99 86.5,44.99 C76.12,44.99 67.67,53.44 67.67,63.83 C67.67,67.59 68.77,71.17 70.86,74.28 C73.93,72.64 77.34,71.77 80.82,71.77 C87.08,71.77 93.05,74.6 97.07,79.4 C102.2,75.91 105.34,70.05 105.34,63.83 L105.34,63.83 Z M97.47,82.68 L96.3,83.37 L95.51,82.27 C92.08,77.58 86.59,74.77 80.82,74.77 C77.439,74.77 74.12,75.73 71.229,77.53 L70.08,78.24 L69.25,77.17 C66.25,73.31 64.67,68.69 64.67,63.83 C64.67,51.79 74.46,41.99 86.5,41.99 C98.54,41.99 108.34,51.79 108.34,63.83 C108.34,71.55 104.17,78.78 97.47,82.68 L97.47,82.68 Z M67.26,149.91 C68.689,150.78 69.89,151.98 70.76,153.41 C71.63,151.98 72.83,150.78 74.26,149.91 C72.83,149.04 71.63,147.84 70.76,146.41 C69.89,147.84 68.689,149.04 67.26,149.91 L67.26,149.91 Z M69.26,141.57 C69.26,140.75 69.93,140.08 70.76,140.08 L70.78,140.08 C71.59,140.09 72.24,140.74 72.26,141.54 C72.53,145.2 75.45,148.13 79.1,148.41 C79.18,148.41 79.25,148.41 79.33,148.43 C80.05,148.53 80.61,149.15 80.61,149.91 C80.61,150.7 79.99,151.35 79.21,151.41 L79.13,151.41 C75.46,151.68 72.53,154.62 72.26,158.28 C72.24,159.09 71.58,159.74 70.76,159.74 C69.93,159.74 69.26,159.07 69.26,158.25 C68.979,154.6 66.05,151.68 62.39,151.41 C61.58,151.39 60.93,150.73 60.93,149.91 C60.93,149.08 61.6,148.41 62.42,148.41 C66.06,148.13 68.979,145.21 69.26,141.57 L69.26,141.57 Z M76.479,29.22 C76.86,29.22 77.229,29.08 77.53,28.79 C79.729,26.66 82.14,24.7 84.67,22.98 C85.36,22.51 85.54,21.58 85.07,20.89 C84.61,20.21 83.67,20.03 82.99,20.5 C80.31,22.32 77.77,24.38 75.439,26.64 C74.84,27.22 74.83,28.17 75.4,28.76 C75.7,29.07 76.09,29.22 76.479,29.22 L76.479,29.22 Z M89,173.33 C90.75,173.33 92.17,171.91 92.17,170.16 C92.17,168.41 90.75,166.99 89,166.99 C87.26,166.99 85.84,168.41 85.84,170.16 C85.84,171.91 87.26,173.33 89,173.33 L89,173.33 Z M89,176.33 C85.6,176.33 82.84,173.56 82.84,170.16 C82.84,166.76 85.6,163.99 89,163.99 C92.4,163.99 95.17,166.76 95.17,170.16 C95.17,173.56 92.4,176.33 89,176.33 L89,176.33 Z M95.17,60.91 C92.41,60.91 90.17,63.15 90.17,65.91 C90.17,68.67 92.41,70.91 95.17,70.91 C97.93,70.91 100.17,68.67 100.17,65.91 C100.17,63.15 97.93,60.91 95.17,60.91 L95.17,60.91 Z M91.65,18.98 C98.76,15.6 106.38,13.88 114.3,13.88 C114.63,13.88 114.96,13.88 115.32,13.89 L115.71,13.89 C123.95,13.74 131.95,15.45 139.36,18.98 C139.57,19.08 139.79,19.13 140,19.13 C140.57,19.13 141.1,18.81 141.36,18.27 C141.72,17.52 141.4,16.63 140.65,16.27 C133.14,12.69 125.08,10.88 116.71,10.88 C116.36,10.88 116.01,10.88 115.689,10.89 L115.35,10.89 C106.65,10.72 98.189,12.54 90.36,16.27 C89.61,16.63 89.29,17.52 89.65,18.27 C90,19.02 90.9,19.34 91.65,18.98 L91.65,18.98 Z M121.67,218.33 C120.84,218.33 120.17,219 120.17,219.83 C120.17,222.4 118.08,224.49 115.5,224.49 C112.93,224.49 110.84,222.4 110.84,219.83 C110.84,219 110.17,218.33 109.34,218.33 C108.51,218.33 107.84,219 107.84,219.83 C107.84,224.05 111.28,227.49 115.5,227.49 C119.729,227.49 123.17,224.05 123.17,219.83 C123.17,219 122.5,218.33 121.67,218.33 L121.67,218.33 Z M106.59,103.66 L124.41,103.66 L115.5,88.16 L106.59,103.66 L106.59,103.66 Z M129.6,106.66 L101.41,106.66 L115.5,82.14 L129.6,106.66 L129.6,106.66 Z M112.5,216.01 L118.5,216.01 C119.33,216.01 120,215.34 120,214.51 C120,213.68 119.33,213.01 118.5,213.01 L112.5,213.01 C111.67,213.01 111,213.68 111,214.51 C111,215.34 111.67,216.01 112.5,216.01 L112.5,216.01 Z M112.5,210.16 L118.5,210.16 C119.33,210.16 120,209.49 120,208.66 C120,207.83 119.33,207.16 118.5,207.16 L112.5,207.16 C111.67,207.16 111,207.83 111,208.66 C111,209.49 111.67,210.16 112.5,210.16 L112.5,210.16 Z M125.67,63.83 C125.67,70.05 128.81,75.91 133.94,79.4 C137.95,74.6 143.93,71.77 150.19,71.77 C153.67,71.77 157.08,72.64 160.15,74.28 C162.24,71.17 163.34,67.59 163.34,63.83 C163.34,53.44 154.89,44.99 144.5,44.99 C134.12,44.99 125.67,53.44 125.67,63.83 L125.67,63.83 Z M144.5,41.99 C156.54,41.99 166.34,51.79 166.34,63.83 C166.34,68.69 164.75,73.31 161.76,77.17 L160.93,78.24 L159.78,77.53 C156.88,75.73 153.57,74.77 150.19,74.77 C144.42,74.77 138.92,77.58 135.5,82.27 L134.7,83.37 L133.53,82.68 C126.83,78.78 122.67,71.55 122.67,63.83 C122.67,51.79 132.46,41.99 144.5,41.99 L144.5,41.99 Z M135.84,70.91 C138.6,70.91 140.84,68.67 140.84,65.91 C140.84,63.15 138.6,60.91 135.84,60.91 C133.08,60.91 130.84,63.15 130.84,65.91 C130.84,68.67 133.08,70.91 135.84,70.91 L135.84,70.91 Z M151.84,168 C150.41,167.13 149.21,165.92 148.34,164.5 C147.47,165.92 146.26,167.13 144.83,168 C146.26,168.87 147.47,170.07 148.34,171.5 C149.21,170.07 150.41,168.87 151.84,168 L151.84,168 Z M156.9,166.51 C157.63,166.62 158.19,167.24 158.19,168 C158.19,168.79 157.57,169.44 156.79,169.49 C156.76,169.5 156.73,169.5 156.7,169.5 C153.04,169.77 150.1,172.7 149.84,176.37 C149.82,177.18 149.15,177.83 148.34,177.83 L148.33,177.83 C147.51,177.83 146.84,177.16 146.83,176.33 C146.55,172.69 143.62,169.77 139.97,169.5 C139.16,169.48 138.51,168.82 138.51,168 L138.51,167.99 C138.51,167.17 139.17,166.5 140,166.49 C143.63,166.21 146.55,163.3 146.83,159.66 C146.84,158.83 147.51,158.17 148.33,158.17 L148.34,158.17 L148.35,158.17 L148.36,158.17 C149.16,158.18 149.82,158.83 149.84,159.63 C150.1,163.28 153.03,166.21 156.68,166.49 C156.75,166.49 156.83,166.5 156.9,166.51 L156.9,166.51 Z M146.34,22.98 C148.87,24.7 151.28,26.66 153.48,28.79 C153.77,29.08 154.15,29.22 154.53,29.22 C154.92,29.22 155.31,29.07 155.6,28.76 C156.18,28.17 156.17,27.22 155.57,26.64 C153.24,24.38 150.7,22.32 148.02,20.5 C147.34,20.03 146.4,20.21 145.94,20.89 C145.47,21.58 145.65,22.51 146.34,22.98 L146.34,22.98 Z M166,143.08 C166.83,143.08 167.5,142.41 167.5,141.58 L167.5,137.95 L171.13,137.95 C171.96,137.95 172.63,137.28 172.63,136.45 C172.63,135.62 171.96,134.95 171.13,134.95 L167.5,134.95 L167.5,131.33 C167.5,130.5 166.83,129.83 166,129.83 C165.18,129.83 164.5,130.5 164.5,131.33 L164.5,134.95 L160.88,134.95 C160.05,134.95 159.38,135.62 159.38,136.45 C159.38,137.28 160.05,137.95 160.88,137.95 L164.5,137.95 L164.5,141.58 C164.5,142.41 165.18,143.08 166,143.08 L166,143.08 Z M163.99,114.96 C163.16,115 162.52,115.7 162.56,116.53 C162.6,117.34 163.26,117.96 164.06,117.96 L164.13,117.96 C180.09,117.21 192.59,104.1 192.59,88.12 L192.59,80.41 C192.59,79.58 191.92,78.91 191.09,78.91 C190.26,78.91 189.59,79.58 189.59,80.41 L189.59,88.12 C189.59,102.5 178.34,114.29 163.99,114.96 L163.99,114.96 Z M191.09,75.66 C191.92,75.66 192.59,74.99 192.59,74.16 L192.59,66.76 C192.59,65.93 191.92,65.26 191.09,65.26 C190.26,65.26 189.59,65.93 189.59,66.76 L189.59,74.16 C189.59,74.99 190.26,75.66 191.09,75.66 L191.09,75.66 Z M231,232.49 C231,233.32 230.33,233.99 229.5,233.99 L216.5,233.99 C215.68,233.99 215,233.32 215,232.49 C215,231.66 215.68,230.99 216.5,230.99 L229.5,230.99 C230.33,230.99 231,231.66 231,232.49 L231,232.49 Z" id="Fill-38" fill="#2B2F35"></path>
    </g>
</svg>