<?xml version="1.0" encoding="UTF-8" standalone="no"?>
<svg width="241px" height="208px" viewBox="0 0 241 208" version="1.1" xmlns="http://www.w3.org/2000/svg" xmlns:xlink="http://www.w3.org/1999/xlink">
    <!-- Generator: Sketch 39.1 (31720) - http://www.bohemiancoding.com/sketch -->
    <title>Slice 1</title>
    <desc>Created with Sketch.</desc>
    <defs></defs>
    <g id="Page-1" stroke="none" stroke-width="1" fill="none" fill-rule="evenodd">
        <path d="M92.318,137.243 C85.475,132.576 78.063,128.175 70.29,124.164 C65.305,121.583 60.102,119.141 55.246,117.101 L54.204,116.664 L55.229,116.187 C58.134,114.836 61.234,113.535 64.443,112.322 C71.354,109.73 78.602,107.628 85.987,106.071 L86.287,106.008 L86.479,106.246 C91.204,112.096 97.554,116.607 104.843,119.291 L105.17,119.411 L105.17,132.791 L92.53,137.387 L92.318,137.243 L92.318,137.243 Z M135.17,132.791 L135.17,119.411 L135.497,119.291 C142.786,116.607 149.136,112.096 153.861,106.246 L154.053,106.008 L154.353,106.071 C161.738,107.628 168.986,109.73 175.896,112.322 C179.105,113.535 182.206,114.836 185.111,116.187 L186.136,116.664 L185.094,117.101 C180.237,119.141 175.035,121.583 170.05,124.164 C162.276,128.175 154.865,132.576 148.021,137.243 L147.81,137.387 L135.17,132.791 L135.17,132.791 Z M207.727,165.784 C202.623,160.7 193.368,154.64 178.26,154.64 C177.785,154.64 177.3,154.65 176.814,154.66 C154.265,155.225 134.738,163.03 129.29,165.408 L128.871,165.591 L128.651,165.19 C127.641,163.348 126.02,161.859 124.086,160.997 L123.451,160.713 L123.922,160.201 C124.363,159.722 124.816,159.249 125.267,158.777 L125.698,158.325 C140.162,143.415 158.295,132.476 170.96,125.925 C174.358,124.175 177.801,122.508 181.194,120.974 L181.771,121.763 C178.807,125.06 174.82,130.423 172.667,137.251 L172.549,137.623 L172.16,137.599 C171.221,137.543 170.209,137.49 169.17,137.49 L164.5,137.49 C163.949,137.49 163.5,137.938 163.5,138.49 C163.5,139.042 163.949,139.49 164.5,139.49 L169.17,139.49 C171.353,139.49 173.528,139.653 175.636,139.975 C190.036,142.156 202.643,151.833 208.538,165.228 L207.727,165.784 L207.727,165.784 Z M31.802,165.228 C37.697,151.833 50.304,142.156 64.705,139.975 C66.812,139.653 68.987,139.49 71.17,139.49 L75.84,139.49 C76.391,139.49 76.84,139.042 76.84,138.49 C76.84,137.938 76.391,137.49 75.84,137.49 L71.17,137.49 C70.131,137.49 69.119,137.543 68.18,137.599 L67.79,137.623 L67.673,137.251 C65.947,131.778 62.884,126.564 58.568,121.754 L59.146,120.965 C62.539,122.499 65.981,124.165 69.379,125.916 C80.045,131.435 95.589,140.602 109.077,152.93 C111.644,155.274 114.113,157.719 116.416,160.2 L116.892,160.712 L116.253,160.997 C114.32,161.859 112.699,163.348 111.688,165.19 L111.469,165.591 L111.05,165.408 C105.602,163.03 86.075,155.225 63.527,154.66 C63.098,154.65 62.669,154.645 62.244,154.645 C61.819,154.645 61.397,154.65 60.981,154.66 C46.494,154.948 37.558,160.868 32.612,165.784 L31.802,165.228 L31.802,165.228 Z" id="Fill-39" fill="#C8393C"></path>
        <path d="M152.103,34.214 C150.132,31.631 147.323,29.693 143.756,28.453 C143.613,28.401 143.481,28.359 143.351,28.318 L142.333,27.984 L142.934,27.409 C145.367,25.081 148.383,21.227 148.943,16.087 L149.06,15.011 L149.803,15.797 C152.862,19.029 155.338,22.688 157.165,26.672 L157.218,26.788 L157.208,26.916 C156.893,31.26 154.283,33.432 152.755,34.34 L152.373,34.567 L152.103,34.214 L152.103,34.214 Z M87.583,34.339 C86.056,33.425 83.447,31.245 83.131,26.906 L83.122,26.778 L83.175,26.662 C85.004,22.672 87.481,19.015 90.537,15.797 L91.28,15.013 L91.397,16.087 C91.956,21.227 94.973,25.081 97.406,27.409 L98.007,27.984 L96.989,28.318 C96.859,28.359 96.727,28.401 96.591,28.45 C93.017,29.693 90.208,31.631 88.237,34.214 L87.966,34.568 L87.583,34.339 L87.583,34.339 Z M107.243,102.464 C105.693,100.44 104.785,98.288 104.296,96.84 L104.015,96.005 L104.875,96.191 C106.625,96.568 108.53,96.892 110.535,97.154 L111.216,97.243 L110.921,97.864 C110.071,99.658 108.884,101.355 108.038,102.464 L107.641,102.983 L107.243,102.464 L107.243,102.464 Z M132.302,102.464 C131.456,101.355 130.269,99.658 129.418,97.864 L129.124,97.244 L129.805,97.154 C131.825,96.889 133.729,96.565 135.464,96.191 L136.325,96.005 L136.043,96.84 C135.555,98.288 134.646,100.44 133.097,102.464 L132.699,102.983 L132.302,102.464 L132.302,102.464 Z" id="Fill-40" fill="#FFFFFF"></path>
        <path d="M108.664,73.816 C105.793,73.816 103.348,73.023 101.397,71.461 C96.741,67.723 95.636,60.401 95.391,56.37 L95.33,55.361 L106.041,62.556 L105.433,62.972 C104.504,63.609 103.95,64.651 103.95,65.759 C103.95,67.618 105.461,69.13 107.32,69.13 C108.906,69.13 110.294,68.009 110.621,66.467 L110.774,65.743 L113.43,67.523 L113.43,73.199 L113.04,73.287 C111.491,73.638 110.019,73.816 108.664,73.816 L108.664,73.816 Z M131.672,73.816 C130.316,73.816 128.845,73.638 127.299,73.287 L126.91,73.199 L126.91,67.523 L129.566,65.743 L129.719,66.467 C130.045,68.009 131.434,69.13 133.02,69.13 C134.878,69.13 136.39,67.618 136.39,65.759 C136.39,64.651 135.836,63.609 134.907,62.972 L134.299,62.556 L145.01,55.361 L144.949,56.37 C144.704,60.401 143.599,67.723 138.943,71.46 C136.992,73.023 134.545,73.816 131.672,73.816 L131.672,73.816 Z M120.17,177.49 C115.941,177.49 112.5,174.053 112.5,169.83 C112.5,165.6 115.941,162.16 120.17,162.16 C124.399,162.16 127.84,165.6 127.84,169.83 C127.84,174.053 124.399,177.49 120.17,177.49 L120.17,177.49 Z" id="Fill-41" fill="#F1BB31"></path>
        <path d="M119.777,36.528 C114.84,30.244 109.532,27.188 103.549,27.188 C102.631,27.188 101.685,27.26 100.735,27.404 L100.522,27.436 L100.353,27.304 C98.564,25.913 92.774,20.786 93.381,13.259 L93.398,13.054 L93.554,12.921 C100.855,6.643 110.292,3.063 120.129,2.84 C130.021,3.063 139.48,6.647 146.786,12.931 L146.942,13.065 L146.958,13.27 C147.559,20.792 141.774,25.914 139.987,27.304 L139.817,27.436 L139.605,27.404 C138.655,27.26 137.708,27.188 136.791,27.188 C130.808,27.188 125.5,30.244 120.563,36.528 L120.17,37.029 L119.777,36.528 L119.777,36.528 Z M79.5,43.49 C79.5,39.403 80.11,35.359 81.312,31.472 L81.687,30.26 L82.24,31.402 C83.413,33.823 85.217,35.255 86.525,36.03 L86.934,36.272 L86.604,36.892 C86.542,37.004 86.479,37.116 86.425,37.236 C83.296,44.169 85.432,52.425 86.495,55.654 L86.637,56.087 L86.22,56.268 C84.213,57.144 82.222,58.329 80.303,59.789 L79.5,60.399 L79.5,43.49 L79.5,43.49 Z M160.037,59.789 C158.118,58.329 156.126,57.144 154.12,56.268 L153.703,56.087 L153.845,55.654 C154.908,52.425 157.043,44.169 153.915,37.236 C153.86,37.116 153.798,37.004 153.736,36.892 L153.406,36.272 L153.815,36.03 C155.124,35.255 156.927,33.823 158.089,31.403 L158.639,30.258 L159.018,31.471 C159.761,33.855 160.286,36.336 160.577,38.842 C160.751,40.394 160.84,41.958 160.84,43.49 L160.84,60.399 L160.037,59.789 L160.037,59.789 Z M104.353,146.226 C101.541,143.923 98.501,141.604 95.32,139.337 L94.546,138.785 L105.17,134.916 L105.17,146.895 L104.353,146.226 L104.353,146.226 Z M135.17,134.916 L145.794,138.785 L145.02,139.337 C141.839,141.604 138.799,143.923 135.987,146.226 L135.17,146.895 L135.17,134.916 L135.17,134.916 Z M35.55,182.66 C34.998,182.66 34.55,183.108 34.55,183.66 L34.55,185.35 C34.55,185.902 34.998,186.35 35.55,186.35 C36.101,186.35 36.55,185.902 36.55,185.35 L36.55,183.66 C36.55,183.108 36.101,182.66 35.55,182.66 L35.55,182.66 Z M76.496,205.49 L68.44,199.544 L61.791,205.49 L44.05,205.49 L44.05,198.58 C44.05,198.028 43.601,197.58 43.05,197.58 C42.498,197.58 42.05,198.028 42.05,198.58 L42.05,205.49 L36.55,205.49 L36.55,190.66 C36.55,190.108 36.101,189.66 35.55,189.66 C34.998,189.66 34.55,190.108 34.55,190.66 L34.55,205.49 L28.17,205.49 L28.17,182.49 C28.17,180.64 28.289,178.775 28.524,176.946 C28.665,175.863 28.849,174.777 29.071,173.717 L29.085,173.647 L29.12,173.584 C30.023,171.899 38.6,157.114 60.999,156.65 C61.341,156.646 61.679,156.643 62.019,156.643 C62.5,156.643 62.985,156.648 63.481,156.66 C85.891,157.228 105.068,164.958 110.412,167.313 L110.778,167.474 L110.701,167.867 C110.567,168.542 110.5,169.203 110.5,169.83 C110.5,174.572 114.044,178.675 118.744,179.376 L119.17,179.439 L119.17,184.043 L112.326,189.798 L119.17,196.101 L119.17,205.49 L76.496,205.49 L76.496,205.49 Z M204.79,182.66 C204.239,182.66 203.79,183.108 203.79,183.66 L203.79,185.35 C203.79,185.902 204.239,186.35 204.79,186.35 C205.341,186.35 205.79,185.902 205.79,185.35 L205.79,183.66 C205.79,183.108 205.341,182.66 204.79,182.66 L204.79,182.66 Z M205.79,205.49 L205.79,190.66 C205.79,190.108 205.341,189.66 204.79,189.66 C204.239,189.66 203.79,190.108 203.79,190.66 L203.79,205.49 L198.29,205.49 L198.29,198.58 C198.29,198.028 197.841,197.58 197.29,197.58 C196.739,197.58 196.29,198.028 196.29,198.58 L196.29,205.49 L178.549,205.49 L171.899,199.544 L163.844,205.49 L121.17,205.49 L121.17,195.219 L115.354,189.863 L121.17,184.967 L121.17,179.439 L121.596,179.376 C126.296,178.675 129.84,174.572 129.84,169.83 C129.84,169.203 129.772,168.542 129.639,167.867 L129.562,167.474 L129.928,167.313 C135.272,164.958 154.449,157.228 176.857,156.66 C177.308,156.649 177.755,156.644 178.194,156.644 C201.703,156.644 210.318,171.854 211.223,173.589 L211.255,173.65 L211.27,173.718 C211.867,176.602 212.17,179.553 212.17,182.49 L212.17,205.49 L205.79,205.49 L205.79,205.49 Z" id="Fill-42" fill="#505352"></path>
        <path d="M76.752,82.612 C69.081,76.937 64.5,67.889 64.5,58.41 C64.5,55.752 64.859,53.077 65.567,50.459 L65.696,49.982 L66.175,50.105 C70.39,51.195 74.257,53.458 77.359,56.651 L77.5,56.797 L77.5,67.666 L76.581,66.264 C75.978,65.342 75.304,64.465 74.577,63.654 C74.391,63.447 74.121,63.328 73.836,63.328 C73.587,63.328 73.348,63.419 73.162,63.584 C72.756,63.957 72.724,64.58 73.094,64.998 C75.615,67.794 77.175,71.404 77.462,72.099 L77.5,72.19 L77.5,80.49 C77.5,81.061 77.52,81.623 77.549,82.183 L77.604,83.242 L76.752,82.612 L76.752,82.612 Z M162.791,82.183 C162.82,81.623 162.84,81.061 162.84,80.49 L162.84,72.19 L162.878,72.099 C163.165,71.404 164.725,67.794 167.249,64.995 C167.616,64.58 167.583,63.957 167.171,63.578 C166.992,63.419 166.752,63.328 166.503,63.328 C166.219,63.328 165.949,63.447 165.762,63.655 C165.036,64.465 164.361,65.342 163.758,66.264 L162.84,67.666 L162.84,56.797 L162.981,56.651 C166.083,53.458 169.95,51.195 174.165,50.105 L174.644,49.982 L174.772,50.459 C175.481,53.077 175.84,55.752 175.84,58.41 C175.84,67.889 171.259,76.937 163.587,82.612 L162.735,83.242 L162.791,82.183 L162.791,82.183 Z M95.34,39.827 C94.995,39.827 94.677,40.001 94.49,40.291 C94.35,40.513 94.303,40.783 94.361,41.045 C94.418,41.305 94.573,41.526 94.796,41.666 L99.749,44.828 C99.904,44.927 100.088,44.98 100.28,44.98 C100.632,44.98 100.948,44.81 101.125,44.526 C101.274,44.295 101.321,44.027 101.263,43.767 C101.206,43.507 101.049,43.285 100.824,43.142 L95.871,39.982 C95.712,39.881 95.529,39.827 95.34,39.827 L95.34,39.827 Z M145.004,39.827 C144.814,39.827 144.628,39.882 144.466,39.983 L139.519,43.141 C139.291,43.285 139.134,43.507 139.077,43.767 C139.019,44.027 139.066,44.295 139.21,44.519 C139.392,44.81 139.708,44.98 140.06,44.98 C140.252,44.98 140.436,44.927 140.59,44.829 L145.541,41.668 C145.767,41.526 145.922,41.305 145.979,41.045 C146.037,40.783 145.99,40.513 145.847,40.287 C145.663,40.001 145.347,39.827 145.004,39.827 L145.004,39.827 Z M113.43,79.91 C113.43,80.462 113.878,80.91 114.43,80.91 C114.981,80.91 115.43,80.462 115.43,79.91 L115.43,64.84 C115.43,57.086 111.52,49.962 104.971,45.782 C104.811,45.681 104.625,45.627 104.436,45.627 C104.093,45.627 103.777,45.8 103.59,46.091 C103.298,46.556 103.434,47.176 103.896,47.467 C109.629,51.123 113.185,57.356 113.41,64.143 L113.442,65.12 L93.426,51.678 L93.339,53.444 C93.332,53.582 92.707,67.034 100.133,73.01 C102.47,74.887 105.342,75.84 108.67,75.84 C109.947,75.84 111.347,75.688 112.831,75.389 L113.43,75.269 L113.43,79.91 L113.43,79.91 Z M135.903,45.623 C135.715,45.623 135.531,45.677 135.371,45.781 C128.82,49.962 124.91,57.086 124.91,64.84 L124.91,79.91 C124.91,80.462 125.359,80.91 125.91,80.91 C126.461,80.91 126.91,80.462 126.91,79.91 L126.91,75.269 L127.509,75.389 C128.993,75.688 130.393,75.84 131.67,75.84 C134.998,75.84 137.87,74.887 140.207,73.01 C147.633,67.034 147.008,53.582 147,53.446 L146.914,51.678 L126.897,65.12 L126.93,64.143 C127.155,57.356 130.71,51.123 136.441,47.468 C136.906,47.176 137.042,46.556 136.747,46.086 C136.561,45.798 136.245,45.623 135.903,45.623 L135.903,45.623 Z M114.422,87.467 C113.995,87.467 113.618,87.741 113.485,88.146 C113.396,88.401 113.413,88.668 113.528,88.905 C113.646,89.147 113.854,89.329 114.112,89.418 C115.741,89.966 117.908,90.301 120.212,90.36 C122.455,90.3 124.601,89.966 126.23,89.417 C126.486,89.329 126.694,89.147 126.812,88.905 C126.927,88.668 126.943,88.401 126.857,88.153 C126.722,87.743 126.343,87.471 125.912,87.471 C125.802,87.471 125.692,87.49 125.586,87.524 C124.161,88.01 122.25,88.307 120.212,88.36 C118.112,88.308 116.181,88.011 114.749,87.523 C114.642,87.486 114.532,87.467 114.422,87.467 L114.422,87.467 Z M99.296,92.668 C98.872,92.668 98.493,92.943 98.353,93.352 C98.181,93.868 98.463,94.437 98.983,94.617 C99.814,94.901 100.699,95.154 101.535,95.388 L101.816,95.467 L101.886,95.751 C102.297,97.433 103.614,101.719 106.95,105.183 L107.697,105.964 L108.417,105.157 C108.956,104.542 111.687,101.325 113.127,97.81 L113.268,97.467 L113.636,97.502 C115.896,97.713 118.107,97.843 120.211,97.89 C122.273,97.843 124.465,97.713 126.703,97.502 L127.072,97.467 L127.213,97.81 C128.653,101.325 131.384,104.542 131.917,105.151 L132.643,105.964 L133.389,105.184 C136.726,101.719 138.043,97.433 138.454,95.751 L138.523,95.467 L138.805,95.388 C139.641,95.154 140.526,94.901 141.358,94.616 C141.877,94.437 142.159,93.868 141.986,93.348 C141.847,92.943 141.468,92.668 141.043,92.668 C140.935,92.668 140.827,92.686 140.724,92.722 C135.172,94.593 127.889,95.718 120.211,95.89 C112.474,95.718 105.169,94.593 99.62,92.723 C99.513,92.686 99.405,92.668 99.296,92.668 L99.296,92.668 Z M120.158,120.15 C115.495,120.042 110.933,119.242 106.599,117.773 L106.488,117.743 C91.956,112.759 81.743,100.479 79.834,85.694 C79.612,84.003 79.5,82.252 79.5,80.49 L79.5,63.079 L79.664,62.929 C80.876,61.826 84.142,59.096 88.259,57.6 L89.241,57.246 L88.847,56.278 C88.677,55.854 84.736,45.859 88.254,38.054 C89.886,34.437 92.911,31.841 97.247,30.338 C99.405,29.587 101.508,29.206 103.496,29.206 C111.071,29.206 115.956,34.598 119.365,39.296 L120.17,40.415 L120.974,39.298 C124.384,34.598 129.269,29.206 136.844,29.206 C138.832,29.206 140.935,29.587 143.094,30.338 C147.154,31.749 150.071,34.118 151.764,37.38 C151.877,37.596 151.981,37.814 152.085,38.043 C155.612,45.838 151.664,55.853 151.494,56.276 L151.099,57.246 L152.08,57.599 C156.198,59.096 159.463,61.826 160.676,62.929 L160.84,63.079 L160.84,80.49 C160.84,82.252 160.728,84.003 160.505,85.695 C158.597,100.479 148.384,112.759 133.852,117.743 L133.736,117.775 C131.042,118.686 128.259,119.342 125.468,119.725 C123.754,119.967 121.975,120.11 120.181,120.15 L120.158,120.15 L120.158,120.15 Z M120.962,160.199 C120.705,160.178 120.437,160.16 120.17,160.16 C119.903,160.16 119.635,160.178 119.378,160.199 L119.133,160.217 L118.969,160.035 C116.374,157.167 113.478,154.264 110.362,151.408 C109.366,150.503 108.36,149.616 107.343,148.739 L107.17,148.59 L107.17,120.074 L107.81,120.259 C111.792,121.418 115.944,122.053 120.152,122.15 C122.014,122.112 123.882,121.959 125.74,121.695 C127.97,121.401 130.253,120.919 132.531,120.259 L133.17,120.075 L133.17,148.59 L132.997,148.739 C129.871,151.434 126.897,154.233 124.159,157.057 C123.164,158.085 122.226,159.087 121.372,160.035 L121.207,160.217 L120.962,160.199 L120.962,160.199 Z" id="Fill-43" fill="#FFFCE1"></path>
        <path d="M7.5,204.99 L1.5,204.99 C0.67,204.99 0,205.66 0,206.49 C0,207.32 0.67,207.99 1.5,207.99 L7.5,207.99 C8.33,207.99 9,207.32 9,206.49 C9,205.66 8.33,204.99 7.5,204.99 L7.5,204.99 Z M211.67,182.49 C211.67,179.52 211.36,176.62 210.78,173.82 C209.82,171.98 201.06,156.58 176.87,157.16 C154.38,157.73 134.94,165.65 130.13,167.77 C130.26,168.429 130.34,169.12 130.34,169.83 C130.34,174.92 126.57,179.14 121.67,179.87 L121.67,185.2 L116.11,189.88 L121.67,195 L121.67,204.99 L163.68,204.99 L171.93,198.9 L178.74,204.99 L195.79,204.99 L195.79,198.58 C195.79,197.75 196.47,197.08 197.29,197.08 C198.12,197.08 198.79,197.75 198.79,198.58 L198.79,204.99 L203.29,204.99 L203.29,190.66 C203.29,189.83 203.97,189.16 204.79,189.16 C205.62,189.16 206.29,189.83 206.29,190.66 L206.29,204.99 L211.67,204.99 L211.67,182.49 L211.67,182.49 Z M118.67,196.32 L111.57,189.78 L118.67,183.81 L118.67,179.87 C113.77,179.14 110,174.92 110,169.83 C110,169.12 110.08,168.429 110.21,167.77 C105.4,165.65 85.96,157.73 63.47,157.16 C62.63,157.14 61.82,157.14 61.01,157.15 C38.81,157.61 30.43,172.2 29.56,173.82 C29.34,174.87 29.16,175.929 29.02,177.009 C28.79,178.8 28.67,180.63 28.67,182.49 L28.67,204.99 L34.05,204.99 L34.05,190.66 C34.05,189.83 34.72,189.16 35.55,189.16 C36.37,189.16 37.05,189.83 37.05,190.66 L37.05,204.99 L41.55,204.99 L41.55,198.58 C41.55,197.75 42.22,197.08 43.05,197.08 C43.87,197.08 44.55,197.75 44.55,198.58 L44.55,204.99 L61.6,204.99 L68.41,198.9 L76.66,204.99 L118.67,204.99 L118.67,196.32 L118.67,196.32 Z M32.26,165.429 C37.36,160.36 46.39,154.45 60.97,154.16 C61.81,154.14 62.67,154.14 63.54,154.16 C86.28,154.73 105.96,162.64 111.25,164.95 C112.32,163 114.01,161.45 116.05,160.54 C113.71,158.02 111.26,155.6 108.74,153.3 C95.59,141.28 80.55,132.259 69.15,126.36 C65.25,124.35 61.77,122.7 58.94,121.42 C62.26,125.12 66.05,130.44 68.15,137.1 C69.15,137.04 70.15,136.99 71.17,136.99 L75.84,136.99 C76.67,136.99 77.34,137.66 77.34,138.49 C77.34,139.32 76.67,139.99 75.84,139.99 L71.17,139.99 C69,139.99 66.87,140.15 64.78,140.469 C50.19,142.679 38.02,152.34 32.26,165.429 L32.26,165.429 Z M95.61,138.929 C98.64,141.09 101.68,143.39 104.67,145.84 L104.67,135.63 L95.61,138.929 L95.61,138.929 Z M55.44,116.64 C58.63,117.98 63.99,120.34 70.52,123.719 C77.05,127.09 84.74,131.469 92.6,136.83 L104.67,132.44 L104.67,119.759 C97.2,117.009 90.83,112.429 86.09,106.56 C78.69,108.12 71.5,110.21 64.62,112.79 C61.5,113.969 58.43,115.25 55.44,116.64 L55.44,116.64 Z M106.65,117.27 C106.69,117.28 106.73,117.29 106.76,117.3 C110.92,118.71 115.42,119.54 120.17,119.65 C121.95,119.61 123.7,119.469 125.4,119.23 C128.25,118.84 130.98,118.179 133.58,117.3 C133.61,117.29 133.65,117.28 133.69,117.27 C147.92,112.39 158.09,100.5 160.01,85.63 C160.23,83.95 160.34,82.24 160.34,80.49 L160.34,63.3 C159.22,62.28 156.01,59.56 151.91,58.07 L150.44,57.54 L151.03,56.09 C151.07,55.99 155.1,45.92 151.63,38.25 C151.53,38.03 151.43,37.82 151.32,37.61 C149.69,34.469 146.87,32.179 142.93,30.81 C132.18,27.07 125.77,33.54 121.38,39.59 L120.17,41.27 L118.96,39.59 C114.57,33.54 108.16,27.07 97.41,30.81 C93.2,32.27 90.28,34.78 88.71,38.259 C85.24,45.96 89.27,55.99 89.31,56.09 L89.9,57.54 L88.43,58.07 C84.33,59.56 81.12,62.28 80,63.3 L80,80.49 C80,82.24 80.11,83.95 80.33,85.63 C82.25,100.5 92.42,112.39 106.65,117.27 L106.65,117.27 Z M80,59.39 C81.5,58.25 83.57,56.88 86.02,55.81 C84.93,52.5 82.77,44.12 85.97,37.03 C86.06,36.83 86.17,36.65 86.27,36.46 C84.92,35.66 83.02,34.16 81.79,31.62 C80.63,35.37 80,39.35 80,43.49 L80,59.39 L80,59.39 Z M83.63,26.87 C83.93,30.99 86.42,33.06 87.84,33.91 C89.87,31.25 92.74,29.259 96.42,27.98 C96.64,27.9 96.85,27.84 97.06,27.77 C94.74,25.55 91.49,21.56 90.9,16.14 C87.92,19.28 85.45,22.9 83.63,26.87 L83.63,26.87 Z M100.66,26.91 C109.94,25.509 116.07,31 120.17,36.219 C124.27,31 130.4,25.509 139.68,26.91 C141.35,25.61 147.04,20.58 146.46,13.31 C139.46,7.29 130.3,3.57 120.14,3.34 C110.01,3.57 100.87,7.29 93.88,13.3 C93.29,20.61 98.99,25.61 100.66,26.91 L100.66,26.91 Z M143.28,27.77 C143.49,27.84 143.7,27.9 143.92,27.98 C147.6,29.259 150.47,31.25 152.5,33.91 C153.93,33.06 156.41,31 156.71,26.88 C154.89,22.91 152.42,19.29 149.44,16.14 C148.85,21.56 145.6,25.55 143.28,27.77 L143.28,27.77 Z M158.54,31.62 C157.32,34.16 155.42,35.66 154.07,36.46 C154.17,36.65 154.28,36.83 154.37,37.03 C157.57,44.12 155.41,52.5 154.32,55.81 C156.77,56.88 158.84,58.25 160.34,59.39 L160.34,43.49 C160.34,41.94 160.25,40.41 160.08,38.9 C159.79,36.4 159.27,33.96 158.54,31.62 L158.54,31.62 Z M154.25,106.56 C149.51,112.429 143.14,117.009 135.67,119.759 L135.67,132.44 L147.74,136.83 C155.6,131.469 163.29,127.09 169.82,123.719 C176.35,120.34 181.71,117.98 184.9,116.64 C181.91,115.25 178.84,113.969 175.72,112.79 C168.84,110.21 161.65,108.12 154.25,106.56 L154.25,106.56 Z M144.73,138.929 L135.67,135.63 L135.67,145.84 C138.66,143.39 141.7,141.09 144.73,138.929 L144.73,138.929 Z M113,169.83 C113,173.78 116.22,176.99 120.17,176.99 C124.12,176.99 127.34,173.78 127.34,169.83 C127.34,165.87 124.12,162.66 120.17,162.66 C116.22,162.66 113,165.87 113,169.83 L113,169.83 Z M132.67,148.36 L132.67,120.74 C130.46,121.38 128.17,121.88 125.81,122.19 C123.98,122.45 122.11,122.61 120.2,122.65 L120.14,122.65 C115.76,122.55 111.59,121.88 107.67,120.74 L107.67,148.36 C108.69,149.24 109.7,150.13 110.7,151.04 C113.69,153.78 116.59,156.66 119.34,159.7 C119.61,159.679 119.89,159.66 120.17,159.66 C120.45,159.66 120.73,159.679 121,159.7 C121.91,158.69 122.85,157.69 123.8,156.71 C126.64,153.78 129.62,150.99 132.67,148.36 L132.67,148.36 Z M181.4,121.429 C178.57,122.71 175.09,124.36 171.19,126.37 C158.14,133.12 140.34,143.95 126.06,158.67 C125.47,159.29 124.87,159.91 124.29,160.54 C126.33,161.45 128.02,163 129.09,164.95 C134.38,162.64 154.06,154.73 176.8,154.16 C177.29,154.15 177.78,154.14 178.26,154.14 C193.5,154.14 202.86,160.23 208.08,165.429 C202.32,152.34 190.15,142.679 175.56,140.469 C173.47,140.15 171.34,139.99 169.17,139.99 L164.5,139.99 C163.67,139.99 163,139.32 163,138.49 C163,137.66 163.67,136.99 164.5,136.99 L169.17,136.99 C170.19,136.99 171.19,137.04 172.19,137.1 C174.29,130.44 178.08,125.12 181.4,121.429 L181.4,121.429 Z M77.05,82.21 C77.02,81.64 77,81.07 77,80.49 L77,72.29 C76.62,71.37 75.11,67.98 72.72,65.33 C72.17,64.71 72.22,63.77 72.83,63.21 C73.45,62.66 74.4,62.71 74.95,63.32 C75.72,64.179 76.41,65.09 77,65.99 L77,57 C73.97,53.88 70.23,51.67 66.05,50.59 C65.36,53.14 65,55.759 65,58.41 C65,67.8 69.56,76.67 77.05,82.21 L77.05,82.21 Z M163.29,82.21 C170.78,76.67 175.34,67.8 175.34,58.41 C175.34,55.759 174.98,53.14 174.29,50.59 C170.11,51.67 166.37,53.88 163.34,57 L163.34,65.99 C163.93,65.09 164.62,64.179 165.39,63.32 C165.94,62.71 166.89,62.66 167.51,63.21 C168.12,63.77 168.17,64.71 167.62,65.33 C165.23,67.98 163.72,71.37 163.34,72.29 L163.34,80.49 C163.34,81.07 163.32,81.64 163.29,82.21 L163.29,82.21 Z M228.67,206.49 C228.67,207.32 228,207.99 227.17,207.99 L177.6,207.99 L171.75,202.759 L164.66,207.99 L75.68,207.99 L68.59,202.759 L62.74,207.99 L13.17,207.99 C12.34,207.99 11.67,207.32 11.67,206.49 C11.67,205.66 12.34,204.99 13.17,204.99 L25.67,204.99 L25.67,182.49 C25.67,180.52 25.8,178.57 26.06,176.66 C26.21,175.44 26.41,174.24 26.66,173.05 C26.67,173 26.68,172.95 26.7,172.9 C30.64,154.59 45.63,140.36 64.33,137.53 C64.58,137.48 64.83,137.44 65.09,137.41 C61.33,126.24 52.28,119.06 50.99,118.09 L47.92,116.95 L51.05,115.41 C55.1,113.42 59.28,111.61 63.58,110 C70.17,107.509 77.04,105.48 84.12,103.92 C80.57,98.719 78.22,92.66 77.37,86.05 C67.88,80.13 62,69.61 62,58.41 C62,54.99 62.54,51.6 63.59,48.35 L64.01,47.08 L65.31,47.34 C69.65,48.21 73.63,50.13 77,52.92 L77,43.49 C77,37.34 78.3,31.5 80.63,26.219 C80.67,26 80.76,25.8 80.9,25.62 C83.35,20.28 86.88,15.52 91.24,11.62 C91.36,11.46 91.52,11.32 91.7,11.219 C99.25,4.65 109.15,0.59 120.14,0.34 C131.14,0.59 141.05,4.64 148.59,11.19 C148.8,11.29 148.98,11.45 149.12,11.65 C153.47,15.54 156.99,20.29 159.44,25.62 C159.58,25.8 159.67,26 159.72,26.23 C161.41,30.07 162.56,34.21 163.05,38.55 C163.24,40.17 163.34,41.82 163.34,43.49 L163.34,52.92 C166.71,50.13 170.69,48.21 175.03,47.34 L176.33,47.08 L176.75,48.35 C177.8,51.6 178.34,54.99 178.34,58.41 C178.34,69.61 172.46,80.13 162.97,86.05 C162.12,92.66 159.77,98.719 156.22,103.92 C163.3,105.48 170.17,107.509 176.76,110 C181.06,111.61 185.24,113.42 189.29,115.41 L192.41,116.95 L189.35,118.08 C188.07,119.06 179,126.27 175.25,137.41 C175.51,137.44 175.76,137.48 176.01,137.53 C194.71,140.36 209.7,154.59 213.64,172.9 C213.66,172.95 213.67,173 213.68,173.05 C214.32,176.1 214.67,179.259 214.67,182.49 L214.67,204.99 L227.17,204.99 C228,204.99 228.67,205.66 228.67,206.49 L228.67,206.49 Z M35.55,182.16 C34.72,182.16 34.05,182.83 34.05,183.66 L34.05,185.35 C34.05,186.179 34.72,186.85 35.55,186.85 C36.37,186.85 37.05,186.179 37.05,185.35 L37.05,183.66 C37.05,182.83 36.37,182.16 35.55,182.16 L35.55,182.16 Z M94.53,42.09 L99.48,45.25 C99.73,45.41 100.01,45.48 100.28,45.48 C100.78,45.48 101.27,45.24 101.55,44.79 C102,44.09 101.79,43.16 101.09,42.719 L96.14,39.56 C95.45,39.12 94.52,39.32 94.07,40.02 C93.63,40.719 93.83,41.65 94.53,42.09 L94.53,42.09 Z M135.57,96.679 C133.76,97.07 131.85,97.39 129.87,97.65 C130.7,99.4 131.86,101.06 132.7,102.16 C134.17,100.24 135.06,98.19 135.57,96.679 L135.57,96.679 Z M110.47,97.65 C108.48,97.39 106.58,97.07 104.77,96.679 C105.28,98.19 106.17,100.24 107.64,102.16 C108.48,101.06 109.64,99.4 110.47,97.65 L110.47,97.65 Z M142.46,93.19 C142.72,93.969 142.3,94.82 141.52,95.09 C140.7,95.37 139.83,95.62 138.94,95.87 C138.48,97.75 137.12,102.03 133.75,105.53 L132.63,106.7 L131.55,105.49 C131.41,105.33 128.32,101.83 126.75,98 C124.62,98.2 122.43,98.34 120.2,98.39 C117.95,98.34 115.74,98.2 113.59,98 C112.02,101.83 108.93,105.33 108.79,105.49 L107.71,106.7 L106.59,105.53 C103.22,102.03 101.86,97.75 101.4,95.87 C100.51,95.62 99.64,95.37 98.82,95.09 C98.04,94.82 97.62,93.969 97.88,93.19 C98.15,92.4 99,91.98 99.78,92.25 C105.27,94.1 112.52,95.219 120.2,95.39 C127.82,95.219 135.07,94.1 140.56,92.25 C141.34,91.98 142.19,92.4 142.46,93.19 L142.46,93.19 Z M95.89,56.34 C96.13,60.29 97.2,67.45 101.71,71.07 C104.48,73.29 108.25,73.86 112.93,72.8 L112.93,67.79 L111.11,66.57 C110.74,68.32 109.19,69.63 107.32,69.63 C105.19,69.63 103.45,67.9 103.45,65.759 C103.45,64.429 104.13,63.259 105.15,62.56 L95.89,56.34 L95.89,56.34 Z M92.84,53.42 L92.97,50.77 L112.91,64.16 C112.69,57.52 109.26,51.48 103.63,47.89 C102.93,47.45 102.73,46.52 103.17,45.82 C103.62,45.12 104.54,44.92 105.24,45.36 C111.93,49.63 115.93,56.91 115.93,64.84 L115.93,66.98 L115.93,66.99 L115.93,79.91 C115.93,80.74 115.26,81.41 114.43,81.41 C113.6,81.41 112.93,80.74 112.93,79.91 L112.93,75.88 C111.44,76.179 110.01,76.34 108.67,76.34 C105.22,76.34 102.26,75.36 99.82,73.4 C92.24,67.3 92.81,53.98 92.84,53.42 L92.84,53.42 Z M113.01,87.99 C112.74,88.77 113.16,89.62 113.95,89.89 C115.64,90.46 117.84,90.8 120.2,90.86 C122.5,90.8 124.7,90.46 126.39,89.89 C127.18,89.62 127.6,88.77 127.33,87.99 C127.07,87.2 126.22,86.79 125.43,87.05 C124.02,87.53 122.14,87.81 120.2,87.86 C118.2,87.81 116.32,87.53 114.91,87.05 C114.12,86.78 113.27,87.2 113.01,87.99 L113.01,87.99 Z M127.41,72.8 C132.08,73.86 135.86,73.29 138.63,71.07 C143.14,67.45 144.21,60.29 144.45,56.34 L135.19,62.56 C136.21,63.259 136.89,64.429 136.89,65.759 C136.89,67.9 135.15,69.63 133.02,69.63 C131.15,69.63 129.6,68.32 129.23,66.57 L127.41,67.79 L127.41,72.8 L127.41,72.8 Z M124.41,79.91 L124.41,66.99 C124.41,66.99 124.41,66.99 124.41,66.98 L124.41,64.84 C124.41,56.91 128.41,49.63 135.1,45.36 C135.8,44.91 136.72,45.12 137.17,45.82 C137.61,46.52 137.41,47.45 136.71,47.89 C131.08,51.48 127.65,57.52 127.43,64.16 L147.37,50.77 L147.5,53.42 C147.53,53.98 148.1,67.3 140.52,73.4 C138.08,75.36 135.12,76.34 131.67,76.34 C130.33,76.34 128.9,76.179 127.41,75.88 L127.41,79.91 C127.41,80.74 126.74,81.41 125.91,81.41 C125.08,81.41 124.41,80.74 124.41,79.91 L124.41,79.91 Z M140.06,45.48 C140.33,45.48 140.61,45.41 140.86,45.25 L145.81,42.09 C146.51,41.65 146.71,40.719 146.27,40.02 C145.82,39.32 144.9,39.12 144.2,39.56 L139.25,42.719 C138.55,43.16 138.34,44.09 138.79,44.79 C139.07,45.24 139.56,45.48 140.06,45.48 L140.06,45.48 Z M204.79,182.16 C203.97,182.16 203.29,182.83 203.29,183.66 L203.29,185.35 C203.29,186.179 203.97,186.85 204.79,186.85 C205.62,186.85 206.29,186.179 206.29,185.35 L206.29,183.66 C206.29,182.83 205.62,182.16 204.79,182.16 L204.79,182.16 Z M240.34,206.49 C240.34,207.32 239.67,207.99 238.84,207.99 L232.84,207.99 C232.01,207.99 231.34,207.32 231.34,206.49 C231.34,205.66 232.01,204.99 232.84,204.99 L238.84,204.99 C239.67,204.99 240.34,205.66 240.34,206.49 L240.34,206.49 Z" id="Fill-44" fill="#2B2F35"></path>
    </g>
</svg>