<?xml version="1.0" encoding="UTF-8" standalone="no"?>
<svg width="236px" height="210px" viewBox="0 0 236 210" version="1.1" xmlns="http://www.w3.org/2000/svg" xmlns:xlink="http://www.w3.org/1999/xlink">
    <!-- Generator: Sketch 39.1 (31720) - http://www.bohemiancoding.com/sketch -->
    <title>Slice 1</title>
    <desc>Created with Sketch.</desc>
    <defs></defs>
    <g id="Page-1" stroke="none" stroke-width="1" fill="none" fill-rule="evenodd">
        <path d="M97.81,65.66 C95.395,65.66 93.43,63.695 93.43,61.28 C93.43,58.87 95.395,56.91 97.81,56.91 C100.22,56.91 102.18,58.87 102.18,61.28 C102.18,63.695 100.22,65.66 97.81,65.66 L97.81,65.66 Z M132.822,70.995 C129.152,69.318 126.78,65.638 126.78,61.62 C126.78,57.608 129.136,53.936 132.782,52.265 L132.854,52.231 L132.935,52.222 C134.719,52.022 136.598,51.764 138.521,51.456 L138.6,51.444 L138.678,51.456 C143.628,52.243 147.36,56.612 147.36,61.62 C147.36,63.046 147.057,64.453 146.457,65.803 L146.38,65.976 L146.208,66.055 C142.157,67.903 137.774,69.572 133.181,71.016 L132.997,71.074 L132.822,70.995 L132.822,70.995 Z" id="Fill-52" fill="#F1BB31"></path>
        <path d="M149.147,63.742 C149.293,62.926 149.36,62.252 149.36,61.62 C149.36,57.496 147.283,53.659 143.804,51.357 L142.807,50.697 L143.978,50.451 C148.244,49.553 152.307,48.423 156.052,47.09 L156.72,46.851 L156.72,60.354 L156.488,60.502 C154.372,61.847 152.145,63.117 149.866,64.275 L148.972,64.731 L149.147,63.742 L149.147,63.742 Z M97.81,54.91 C94.292,54.91 91.43,57.767 91.43,61.28 C91.43,64.798 94.292,67.66 97.81,67.66 C101.322,67.66 104.18,64.798 104.18,61.28 C104.18,57.767 101.322,54.91 97.81,54.91 L97.81,54.91 Z M107.966,76.363 C105.7,75.576 103.416,74.754 101.175,73.919 C89.434,69.52 81.914,65.746 79.89,64.693 L79.62,64.553 L79.62,50.123 L80.208,50.227 C85.253,51.127 98.724,53.219 114.81,53.219 C118.032,53.219 120.993,53.138 123.86,52.97 C125.022,52.921 126.188,52.841 127.362,52.751 L128.572,52.659 L127.778,53.577 C125.845,55.812 124.78,58.669 124.78,61.62 C124.78,65.342 126.544,68.956 129.499,71.287 L130.27,71.894 L129.325,72.161 C118.932,75.091 110.516,76.136 108.184,76.387 L108.072,76.399 L107.966,76.363 L107.966,76.363 Z M118.17,130.9 C113.653,130.9 109.177,129.975 104.864,128.151 L104.56,128.021 L104.56,127.69 C104.56,126.415 104.58,125.331 104.6,124.508 L104.615,123.847 L105.247,124.043 C109.43,125.335 113.777,125.99 118.17,125.99 C120.006,125.99 121.821,125.874 123.564,125.644 C126.111,125.336 128.643,124.797 131.093,124.043 L131.725,123.848 L131.74,124.508 C131.76,125.331 131.78,126.415 131.78,127.69 L131.78,128.021 L131.476,128.15 C127.715,129.746 123.812,130.657 119.875,130.859 C119.308,130.89 118.738,130.9 118.17,130.9 L118.17,130.9 Z M118.13,158.65 C115.813,158.65 113.415,158.413 110.581,157.902 L110.301,157.851 L110.201,157.585 C108.96,154.257 108.058,151.622 107.36,149.294 C107.099,148.417 106.848,147.559 106.636,146.734 L106.563,146.441 L106.362,145.566 L107.212,145.857 C109.368,146.594 113.009,147.509 118.106,147.679 L118.164,147.681 L118.22,147.696 C123.356,147.529 126.987,146.604 129.125,145.858 L130.055,145.533 L129.769,146.475 C129.745,146.55 129.73,146.62 129.715,146.688 C128.923,149.717 127.756,153.266 126.138,157.586 L126.038,157.851 L125.759,157.902 C122.925,158.413 120.526,158.65 118.21,158.65 L118.13,158.65 L118.13,158.65 Z M57.112,159.546 C55.825,156.118 54.839,152.779 54.181,149.622 C53.934,148.413 53.739,147.298 53.585,146.211 L53.531,145.835 L53.88,145.682 C58.58,143.626 63.405,142.041 68.222,140.971 L68.282,140.958 L68.344,140.96 C69.432,140.99 70.541,141.02 71.648,141.04 L76.852,141.17 L78.808,141.21 L78.972,142.179 C66.188,146.871 60.36,155.108 58.023,159.6 L57.506,160.595 L57.112,159.546 L57.112,159.546 Z M148.921,182.83 L149.788,181.973 C160.66,171.251 167.218,157.81 169.532,152.529 L169.818,151.876 L170.335,152.369 C175.108,156.922 177.055,161.362 177.67,163.06 L177.737,163.246 L177.659,163.427 C173.542,172.993 168.412,180.535 166.938,182.619 L166.789,182.83 L148.921,182.83 L148.921,182.83 Z M31.24,191.14 L31.184,190.705 C30.322,184.09 29.426,178.578 28.521,174.324 L28.353,173.535 L67.644,183.601 C67.644,183.601 67.885,183.947 67.938,184.018 L68.04,184.152 L68.04,191.14 L31.24,191.14 L31.24,191.14 Z" id="Fill-53" fill="#47827B"></path>
        <path d="M96.825,23.199 C93.089,20.177 90.64,17.408 89.513,16.026 L89.239,15.689 L89.533,15.371 C96.586,7.718 107.024,3.33 118.17,3.33 C121.212,3.33 124.283,3.674 127.299,4.351 L128.161,4.546 L127.552,5.184 C117.238,16.001 100.545,22.158 97.304,23.283 L97.041,23.374 L96.825,23.199 L96.825,23.199 Z M112.791,32.211 C108.175,30.552 103.774,28.254 99.711,25.378 L98.939,24.831 L99.825,24.501 C105.813,22.271 120.745,15.946 130.086,5.388 L130.301,5.145 L130.61,5.243 C136.312,7.034 141.478,10.088 145.55,14.072 L145.932,14.446 L145.533,14.801 C137.359,22.119 126.451,27.978 113.111,32.217 L112.95,32.267 L112.791,32.211 L112.791,32.211 Z M79.872,38.001 C80.646,30.17 83.224,23.355 87.533,17.745 L87.915,17.248 L88.314,17.73 C90.694,20.6 97.426,27.801 108.521,32.662 L109.808,33.225 L108.454,33.601 C95.731,37.138 84.602,38.239 80.407,38.549 L79.814,38.592 L79.872,38.001 L79.872,38.001 Z M114.837,51.229 C97.97,51.229 83.931,48.881 80.029,48.162 L79.62,48.086 L79.62,43.14 L79.63,42.1 C79.64,41.74 79.651,41.396 79.671,41.051 L79.696,40.608 L80.139,40.581 C87.258,40.138 123.936,36.886 146.916,16.248 L147.296,15.906 L147.63,16.295 C153.456,23.083 156.511,31.756 156.71,42.07 C156.72,42.42 156.72,42.775 156.72,43.14 L156.72,44.717 L156.395,44.839 C147.229,48.258 136.254,50.331 123.776,50.999 C120.881,51.152 117.874,51.229 114.84,51.229 L114.837,51.229 L114.837,51.229 Z M172.214,69.599 C171.43,69.599 170.657,69.537 169.917,69.413 L169.801,69.393 L169.706,69.324 C165.334,66.139 161.258,65.649 159.218,65.64 L158.72,65.638 L158.72,61.739 L159.112,61.652 C162.782,60.842 172.097,58.252 179.314,51.69 L180.438,50.669 L180.141,52.158 C179.523,55.256 178.413,57.525 176.84,58.906 L175.058,60.481 L177.428,60.661 C177.453,60.661 182.457,61.028 186.429,63.306 L187.101,63.691 L186.473,64.145 C183.654,66.182 178.055,69.599 172.215,69.599 L172.214,69.599 L172.214,69.599 Z M155.99,88.433 C143.427,86.396 130.869,83.502 118.665,79.829 C117.222,79.387 115.819,78.957 114.446,78.515 L114.519,77.547 C123.585,76.058 141.024,72.216 155.961,63.192 L156.72,62.733 L156.72,84.179 C156.72,84.505 156.72,84.83 156.71,85.156 C156.69,86.053 156.645,86.978 156.569,87.977 L156.528,88.521 L155.99,88.433 L155.99,88.433 Z M141.775,100.28 C107.747,99.86 84.228,86.459 79.858,83.776 L79.62,83.63 L79.62,66.813 L80.343,67.173 C83.614,68.799 90.579,72.081 100.466,75.781 C106.048,77.885 111.972,79.883 118.074,81.721 C130.486,85.467 143.195,88.399 155.849,90.435 L156.33,90.513 L156.265,90.996 C155.861,93.998 155.177,96.874 154.231,99.547 L154.123,99.853 L153.799,99.878 C150.306,100.15 146.743,100.288 143.213,100.288 C143.212,100.288 142.252,100.285 141.775,100.28 L141.775,100.28 Z M195.141,108.315 C178.729,108.315 175.308,100.219 171.684,91.649 C169.137,85.617 166.518,79.415 159.053,76.771 L158.72,76.653 L158.72,67.638 L159.222,67.64 C161.299,67.649 166.695,68.287 171.929,74.002 C177.192,79.74 184.182,85.607 196.102,85.607 C198.138,85.607 200.291,85.431 202.503,85.086 L203.635,84.909 L202.995,85.859 C200.842,89.054 197.008,93.36 190.973,95.725 L189.369,96.36 L190.704,97.441 C190.714,97.445 195.977,101.694 198.401,107.549 L198.672,108.203 L197.965,108.239 C196.996,108.29 196.047,108.315 195.143,108.315 L195.141,108.315 L195.141,108.315 Z M93.691,115.794 C85.155,109.092 80.313,99.102 79.69,86.905 L79.644,85.992 L80.438,86.445 C87.658,90.57 107.455,100.346 135.271,102.041 L136.937,102.142 L135.489,102.973 C115.6,114.397 97.457,115.745 94.022,115.899 L93.837,115.908 L93.691,115.794 L93.691,115.794 Z M118.17,123.99 C110.869,123.99 103.797,122.102 97.717,118.531 L96.409,117.764 L97.917,117.603 C106.214,116.717 122.766,113.557 140.401,102.338 L140.531,102.256 L140.685,102.259 C141.04,102.27 141.395,102.27 141.75,102.27 C142.321,102.29 142.876,102.29 143.43,102.29 C146.407,102.29 149.444,102.186 152.456,101.981 L153.296,101.925 L152.944,102.689 C147.596,114.344 136.795,121.994 123.312,123.675 C121.641,123.884 119.91,123.99 118.17,123.99 L118.17,123.99 Z M87.544,139.312 C83.789,139.312 79.883,139.241 76.899,139.179 L71.424,139.042 L73.095,138.148 C78.476,135.272 87.429,131.536 99.521,130.074 C100.342,129.972 101.185,129.893 102.037,129.813 L102.569,129.762 L102.59,130.298 C102.661,133.031 102.828,135.641 103.087,138.057 L103.14,138.549 L101.356,138.757 C98.561,139.049 95.21,139.223 91.107,139.29 C89.912,139.305 88.736,139.312 87.544,139.312 L87.544,139.312 Z M148.903,139.316 C147.666,139.316 146.447,139.308 145.252,139.29 C140.524,139.211 136.748,138.987 133.688,138.606 L133.2,138.546 L133.253,138.057 C133.512,135.641 133.679,133.031 133.75,130.298 L133.764,129.761 L135.556,129.931 C148.216,131.273 157.595,135.14 163.235,138.148 L164.902,139.037 L163.014,139.09 C161.346,139.135 159.677,139.172 158.016,139.208 L157.501,139.219 C153.979,139.287 151.327,139.316 148.903,139.316 L148.903,139.316 Z M118.204,145.69 C111.542,145.478 107.506,143.915 106.079,143.253 L105.846,143.144 L105.799,142.89 C105.747,142.615 105.695,142.328 105.655,142.051 L105.63,141.925 C105.095,138.649 104.756,134.967 104.62,130.967 L104.595,130.214 L105.299,130.483 C109.486,132.087 113.816,132.9 118.17,132.9 C118.799,132.9 119.418,132.88 120.039,132.841 C123.748,132.656 127.447,131.863 131.041,130.483 L131.742,130.214 L131.72,130.966 C131.601,134.82 131.253,138.605 130.713,141.91 L130.679,142.084 C130.645,142.328 130.593,142.615 130.541,142.89 L130.494,143.144 L130.261,143.253 C128.834,143.916 124.807,145.478 118.235,145.69 L118.204,145.69 L118.204,145.69 Z M29.271,157.936 C30.204,155.421 31.42,153.059 32.888,150.918 C36.605,145.472 41.558,141.972 46.474,141.315 C49.102,140.963 52.636,140.799 57.598,140.799 L58.101,140.8 L58.268,141.77 C44.631,146.633 34.749,154.33 30.072,158.484 L29.271,157.936 L29.271,157.936 Z M206.268,158.484 C200.552,153.406 191.022,146.384 178.082,141.77 L178.249,140.8 L178.751,140.799 C183.706,140.799 187.238,140.963 189.866,141.315 C194.782,141.972 199.734,145.472 203.453,150.918 C204.92,153.059 206.136,155.421 207.068,157.936 L206.268,158.484 L206.268,158.484 Z M91.699,159.335 C85.029,153.113 80.004,147.488 78.153,145.358 L77.692,144.829 L78.344,144.566 C82.157,143.03 86.427,141.929 91.031,141.295 C95.202,141.225 98.615,141.046 101.528,140.743 C101.999,140.703 102.461,140.653 102.903,140.594 L103.399,140.527 L103.614,142.055 L103.556,142.184 C102.546,144.438 101.121,147.001 99.321,149.8 C96.524,154.133 93.569,157.876 92.429,159.284 L92.091,159.701 L91.699,159.335 L91.699,159.335 Z M143.911,159.284 C142.095,157.038 135.925,149.168 132.784,142.185 L132.726,142.055 L132.874,141.023 L132.939,140.533 L133.431,140.593 C136.621,140.985 140.486,141.213 145.248,141.29 C149.913,141.929 154.183,143.03 157.996,144.566 L158.647,144.829 L158.187,145.358 C155.87,148.024 151.029,153.384 144.641,159.336 L144.248,159.701 L143.911,159.284 L143.911,159.284 Z M178.316,159.6 C175.979,155.108 170.151,146.871 157.368,142.179 L157.529,141.21 C159.909,141.16 162.309,141.1 164.688,141.04 C165.799,141.02 166.908,140.99 167.996,140.96 L168.058,140.958 L168.118,140.971 C172.935,142.042 177.76,143.626 182.46,145.682 L182.809,145.835 L182.755,146.211 C182.601,147.298 182.406,148.413 182.16,149.62 C181.501,152.779 180.515,156.118 179.228,159.546 L178.834,160.595 L178.316,159.6 L178.316,159.6 Z M49.137,163.412 C41.527,163.412 34.845,162.569 30.578,161.863 L29.569,161.696 L30.321,161.003 C33.711,157.876 40.908,151.898 51.022,147 L51.631,146.705 L51.734,147.374 C51.887,148.353 52.048,149.218 52.229,150.02 C53.03,153.952 54.33,158.148 56.094,162.503 L56.352,163.14 L55.665,163.189 C53.564,163.337 51.368,163.412 49.137,163.412 L49.137,163.412 Z M187.203,163.412 C184.972,163.412 182.775,163.337 180.675,163.189 L179.988,163.14 L180.246,162.503 C182.01,158.148 183.31,153.952 184.109,150.03 C184.292,149.218 184.453,148.353 184.605,147.374 L184.709,146.705 L185.317,147 C195.432,151.898 202.629,157.876 206.019,161.003 L206.771,161.696 L205.762,161.863 C201.495,162.569 194.813,163.412 187.204,163.412 L187.203,163.412 L187.203,163.412 Z M117.708,175.941 C117.297,174.947 116.84,173.871 116.355,172.73 L115.92,171.698 C114.529,168.397 112.952,164.656 111.454,160.842 L111.14,160.04 L111.992,160.165 C114.248,160.496 116.198,160.65 118.13,160.65 C120.142,160.65 122.092,160.496 124.348,160.165 L125.2,160.04 L124.886,160.842 C123.388,164.656 121.811,168.397 120.42,171.698 L119.986,172.724 C119.501,173.868 119.043,174.945 118.632,175.941 L118.17,177.059 L117.708,175.941 L117.708,175.941 Z M114.985,176.926 C108.365,173.215 101.28,167.981 93.926,161.372 L93.571,161.053 L93.872,160.683 C95.346,158.877 98.229,155.205 100.979,150.91 C101.912,149.475 102.801,147.992 103.621,146.499 L104.242,145.369 L104.546,146.623 C104.604,146.864 104.648,147.049 104.701,147.233 C104.927,148.107 105.177,148.984 105.447,149.851 C107.728,157.455 111.613,166.645 114.451,173.355 C114.451,173.355 115.387,175.568 115.691,176.298 L116.249,177.635 L114.985,176.926 L114.985,176.926 Z M120.648,176.298 C120.955,175.564 121.889,173.355 121.889,173.355 C125.147,165.642 129.563,155.19 131.637,147.244 C131.691,147.049 131.736,146.864 131.78,146.679 L132.084,145.424 L132.719,146.5 C136.045,152.562 140.645,158.439 142.468,160.684 L142.768,161.053 L142.414,161.372 C135.06,167.981 127.975,173.215 121.354,176.926 L120.091,177.635 L120.648,176.298 L120.648,176.298 Z M27.846,171.345 L27.788,171.029 C27.736,170.743 27.686,170.457 27.645,170.172 C27.392,168.228 27.422,166.128 27.734,163.92 L27.808,163.4 L28.323,163.499 C31.35,164.076 39.427,165.42 49.03,165.42 C51.369,165.42 53.651,165.34 55.813,165.18 C56.13,165.163 56.439,165.135 56.748,165.109 L57.104,165.078 L57.327,165.397 C60.063,171.57 63.142,176.756 65.241,180.019 L65.93,181.09 L27.846,171.345 L27.846,171.345 Z M171.099,180.019 C173.198,176.756 176.276,171.57 179.013,165.397 L179.157,165.072 L179.513,165.102 C179.9,165.135 180.21,165.163 180.519,165.18 C182.688,165.34 184.971,165.42 187.31,165.42 C196.913,165.42 204.99,164.076 208.017,163.499 L208.532,163.4 L208.605,163.92 C208.918,166.128 208.948,168.228 208.696,170.165 C208.654,170.457 208.604,170.743 208.552,171.029 L208.494,171.345 L170.41,181.09 L171.099,180.019 L171.099,180.019 Z M69.551,182.83 L69.401,182.619 C67.928,180.535 62.798,172.993 58.681,163.427 L58.603,163.246 L58.67,163.06 C59.285,161.362 61.231,156.922 66.005,152.369 L66.521,151.876 L66.808,152.529 C69.122,157.81 75.68,171.251 86.552,181.973 L87.419,182.83 L69.551,182.83 L69.551,182.83 Z M90.389,182.83 L90.246,182.702 C77.326,171.126 69.673,154.143 68.27,150.856 L68.12,150.506 L68.419,150.268 C70.521,148.602 72.886,147.12 75.449,145.861 L75.799,145.69 L76.051,145.987 C79.514,150.064 97.795,170.899 117.729,180.64 L118.17,180.854 L118.612,180.639 C138.545,170.899 156.826,150.064 160.289,145.987 L160.541,145.69 L160.891,145.861 C163.454,147.12 165.819,148.602 167.921,150.268 L168.22,150.506 L168.07,150.856 C166.667,154.143 159.014,171.126 146.094,182.702 L145.951,182.83 L90.389,182.83 L90.389,182.83 Z M168.3,191.14 L168.3,184.152 C168.3,184.152 168.517,183.858 168.58,183.768 L168.686,183.616 L168.876,183.555 L207.987,173.535 L207.819,174.324 C206.914,178.578 206.018,184.09 205.156,190.705 L205.1,191.14 L168.3,191.14 L168.3,191.14 Z M70.04,194.49 L166.3,194.49 L166.3,184.83 L70.04,184.83 L70.04,194.49 Z M33.087,207.49 L33.042,207.039 C32.586,202.359 32.092,197.873 31.574,193.702 L31.505,193.14 L68.04,193.14 L68.04,203.006 L63.898,207.49 L33.087,207.49 L33.087,207.49 Z M75.058,207.49 L70.04,202.952 L70.04,196.49 L166.3,196.49 L166.3,202.952 L161.282,207.49 L75.058,207.49 L75.058,207.49 Z M172.441,207.49 L168.3,203.006 L168.3,193.14 L204.835,193.14 L204.766,193.702 C204.248,197.873 203.754,202.359 203.298,207.039 L203.253,207.49 L172.441,207.49 L172.441,207.49 Z" id="Fill-54" fill="#FFFCE1"></path>
        <path d="M9.17,206.99 L2.17,206.99 C1.34,206.99 0.67,207.66 0.67,208.49 C0.67,209.32 1.34,209.99 2.17,209.99 L9.17,209.99 C10,209.99 10.67,209.32 10.67,208.49 C10.67,207.66 10,206.99 9.17,206.99 L9.17,206.99 Z M101.68,61.28 C101.68,59.15 99.95,57.41 97.81,57.41 C95.67,57.41 93.93,59.15 93.93,61.28 C93.93,63.42 95.67,65.16 97.81,65.16 C99.95,65.16 101.68,63.42 101.68,61.28 L101.68,61.28 Z M104.68,61.28 C104.68,65.08 101.6,68.16 97.81,68.16 C94.02,68.16 90.93,65.08 90.93,61.28 C90.93,57.49 94.02,54.41 97.81,54.41 C101.6,54.41 104.68,57.49 104.68,61.28 L104.68,61.28 Z M204.66,190.64 C205.39,185.04 206.3,179.06 207.33,174.219 L169,184.04 C168.93,184.14 168.86,184.24 168.8,184.32 L168.8,190.64 L204.66,190.64 L204.66,190.64 Z M204.27,193.64 L168.8,193.64 L168.8,202.81 L172.66,206.99 L202.8,206.99 C203.03,204.63 203.54,199.52 204.27,193.64 L204.27,193.64 Z M177.2,163.23 C176.66,161.74 174.75,157.27 169.99,152.73 C167.79,157.75 161.15,171.469 150.14,182.33 L166.53,182.33 C168.03,180.21 173.12,172.71 177.2,163.23 L177.2,163.23 Z M70.54,193.99 L165.8,193.99 L165.8,185.33 L70.54,185.33 L70.54,193.99 Z M165.8,196.99 L70.54,196.99 L70.54,202.73 L75.25,206.99 L161.09,206.99 L165.8,202.73 L165.8,196.99 L165.8,196.99 Z M69.81,182.33 L86.2,182.33 C75.189,171.469 68.55,157.75 66.35,152.73 C61.59,157.27 59.68,161.74 59.14,163.23 C63.22,172.71 68.31,180.21 69.81,182.33 L69.81,182.33 Z M67.54,184.32 C67.479,184.24 67.41,184.14 67.34,184.04 L29.01,174.219 C30.04,179.06 30.95,185.04 31.68,190.64 L67.54,190.64 L67.54,184.32 L67.54,184.32 Z M67.54,193.64 L32.07,193.64 C32.8,199.52 33.31,204.63 33.54,206.99 L63.68,206.99 L67.54,202.81 L67.54,193.64 L67.54,193.64 Z M28.28,170.94 L64.82,180.29 C62.62,176.87 59.57,171.69 56.87,165.6 C56.53,165.63 56.189,165.66 55.85,165.679 C53.52,165.85 51.229,165.92 49.03,165.92 C39.47,165.92 31.479,164.61 28.229,163.99 C27.93,166.11 27.89,168.179 28.14,170.1 C28.18,170.38 28.229,170.66 28.28,170.94 L28.28,170.94 Z M29.74,158.11 C34.84,153.58 44.61,146.11 58.1,141.3 C53.54,141.29 49.53,141.41 46.54,141.81 C41.76,142.45 36.939,145.87 33.3,151.2 C31.82,153.36 30.63,155.71 29.74,158.11 L29.74,158.11 Z M51.74,150.13 C51.54,149.24 51.38,148.35 51.24,147.45 C41.37,152.23 34.26,158.05 30.66,161.37 C35.55,162.179 45.25,163.42 55.63,162.69 C54.03,158.74 52.63,154.49 51.74,150.13 L51.74,150.13 Z M54.08,146.14 C54.24,147.27 54.439,148.39 54.67,149.52 C55.37,152.88 56.39,156.2 57.58,159.37 C60.02,154.679 65.939,146.429 78.8,141.71 C78.15,141.7 77.5,141.679 76.84,141.67 C75.11,141.63 73.37,141.58 71.64,141.54 C70.53,141.52 69.42,141.49 68.33,141.46 C63.15,142.61 58.38,144.259 54.08,146.14 L54.08,146.14 Z M73.33,138.59 C74.53,138.62 75.72,138.65 76.91,138.679 C81.76,138.78 86.57,138.85 91.06,138.79 L91.1,138.79 C94.78,138.73 98.24,138.58 101.3,138.259 C101.74,138.21 102.17,138.16 102.59,138.11 C102.29,135.31 102.15,132.63 102.09,130.31 C101.24,130.39 100.4,130.469 99.58,130.57 C87.26,132.06 78.25,135.96 73.33,138.59 L73.33,138.59 Z M118.17,123.49 C119.86,123.49 121.56,123.39 123.25,123.179 C135.11,121.7 146.74,115.009 152.49,102.48 C149.4,102.69 146.37,102.79 143.43,102.79 C142.87,102.79 142.31,102.79 141.75,102.77 C141.39,102.77 141.03,102.77 140.67,102.759 C122.72,114.179 105.75,117.27 97.97,118.1 C104.15,121.73 111.26,123.49 118.17,123.49 L118.17,123.49 Z M94,115.4 C97.13,115.259 115.34,113.969 135.24,102.54 C107.01,100.82 86.86,90.69 80.189,86.88 C80.86,100.009 86.37,109.41 94,115.4 L94,115.4 Z M80.12,83.35 C84.24,85.88 107.729,99.36 141.78,99.78 C145.64,99.82 149.64,99.7 153.76,99.38 C154.68,96.78 155.36,93.969 155.77,90.929 C141.55,88.64 128.8,85.48 117.93,82.2 C111.32,80.21 105.41,78.179 100.29,76.25 C90.38,72.54 83.439,69.27 80.12,67.62 L80.12,83.35 L80.12,83.35 Z M80.13,42.1 C80.13,42.44 80.12,42.79 80.12,43.14 L80.12,47.67 C84.89,48.55 103.3,51.58 123.75,50.5 C134.58,49.92 145.979,48.19 156.22,44.37 L156.22,43.14 C156.22,42.78 156.22,42.429 156.21,42.08 C156,31.179 152.52,22.759 147.25,16.62 C124.29,37.24 88.06,40.59 80.17,41.08 C80.15,41.42 80.14,41.759 80.13,42.1 L80.13,42.1 Z M80.37,38.05 C84.57,37.74 95.62,36.65 108.32,33.12 C97.25,28.27 90.5,21.15 87.93,18.05 C83.95,23.23 81.18,29.86 80.37,38.05 L80.37,38.05 Z M89.9,15.71 C91.01,17.07 93.43,19.81 97.14,22.81 C100.83,21.53 117.11,15.41 127.189,4.84 C124.21,4.17 121.17,3.83 118.17,3.83 C107.96,3.83 97.32,7.66 89.9,15.71 L89.9,15.71 Z M100,24.969 C103.49,27.44 107.81,29.89 112.96,31.74 C124.04,28.219 135.86,22.79 145.2,14.429 C140.979,10.3 135.87,7.42 130.46,5.719 C121.1,16.3 106.12,22.69 100,24.969 L100,24.969 Z M127.4,53.25 C126.22,53.34 125.05,53.42 123.89,53.469 C120.8,53.65 117.77,53.719 114.81,53.719 C98.56,53.719 84.89,51.57 80.12,50.719 L80.12,64.25 C82.43,65.45 89.87,69.15 101.35,73.45 C103.47,74.24 105.74,75.06 108.13,75.89 C109.99,75.69 118.58,74.67 129.189,71.679 C126.16,69.29 124.28,65.58 124.28,61.62 C124.28,58.49 125.42,55.54 127.4,53.25 L127.4,53.25 Z M138.6,51.95 C136.729,52.25 134.86,52.509 132.99,52.719 C129.52,54.31 127.28,57.79 127.28,61.62 C127.28,65.45 129.57,68.96 133.03,70.54 C137.229,69.219 141.64,67.59 146,65.6 C146.56,64.34 146.86,63.009 146.86,61.62 C146.86,56.83 143.32,52.7 138.6,51.95 L138.6,51.95 Z M149.86,61.62 C149.86,62.36 149.77,63.1 149.64,63.83 C151.88,62.69 154.08,61.44 156.22,60.08 L156.22,47.56 C152.29,48.96 148.22,50.07 144.08,50.94 C147.57,53.25 149.86,57.219 149.86,61.62 L149.86,61.62 Z M156.21,85.14 C156.22,84.82 156.22,84.5 156.22,84.179 L156.22,63.62 C141.24,72.67 123.86,76.52 114.6,78.04 C115.97,78.48 117.37,78.91 118.81,79.35 C129.51,82.57 142.07,85.67 156.07,87.94 C156.14,87.02 156.189,86.09 156.21,85.14 L156.21,85.14 Z M133.75,138.11 C137.12,138.53 141.03,138.719 145.24,138.79 L145.26,138.79 C149.15,138.85 153.29,138.8 157.49,138.719 C159.32,138.679 161.16,138.64 163,138.59 C157.9,135.87 148.439,131.8 135.51,130.429 C135.09,130.39 134.67,130.35 134.25,130.31 C134.189,132.63 134.05,135.31 133.75,138.11 L133.75,138.11 Z M75.67,146.31 C72.96,147.64 70.66,149.13 68.729,150.66 C70.479,154.759 77.979,171.04 90.58,182.33 L145.76,182.33 C158.36,171.04 165.86,154.759 167.61,150.66 C165.68,149.13 163.38,147.64 160.67,146.31 C156.79,150.88 138.7,171.38 118.83,181.09 L118.17,181.41 L117.51,181.09 C97.64,171.38 79.55,150.88 75.67,146.31 L75.67,146.31 Z M103.1,141.98 C103.06,141.679 103.01,141.39 102.97,141.09 C102.52,141.15 102.05,141.2 101.58,141.24 C98.41,141.57 94.87,141.73 91.1,141.79 C86.24,142.46 82.08,143.6 78.53,145.03 C80.729,147.56 85.62,152.98 92.04,158.969 C93.49,157.179 96.28,153.59 98.9,149.53 C100.47,147.09 101.979,144.48 103.1,141.98 L103.1,141.98 Z M104.97,150 C104.689,149.1 104.439,148.219 104.22,147.37 C104.16,147.16 104.11,146.95 104.06,146.74 C103.229,148.25 102.33,149.75 101.4,151.179 C98.64,155.49 95.72,159.21 94.26,161 C100.38,166.5 107.65,172.24 115.229,176.49 C114.85,175.58 114.43,174.59 113.99,173.55 C111.09,166.69 107.24,157.57 104.97,150 L104.97,150 Z M107.84,149.15 C108.62,151.759 109.61,154.57 110.67,157.41 C113.5,157.92 115.84,158.15 118.13,158.15 L118.21,158.15 C120.5,158.15 122.84,157.92 125.67,157.41 C127.09,153.62 128.36,149.89 129.22,146.61 C129.24,146.52 129.26,146.429 129.29,146.33 C127,147.13 123.32,148.03 118.22,148.19 C118.18,148.19 118.13,148.19 118.09,148.179 C112.99,148.009 109.33,147.11 107.05,146.33 C107.07,146.42 107.1,146.52 107.12,146.61 C107.33,147.429 107.58,148.28 107.84,149.15 L107.84,149.15 Z M131.28,127.69 C131.28,126.42 131.26,125.34 131.24,124.52 C128.74,125.29 126.189,125.83 123.63,126.14 C121.81,126.38 119.99,126.49 118.17,126.49 C113.8,126.49 109.37,125.84 105.1,124.52 C105.08,125.34 105.06,126.42 105.06,127.69 C109.29,129.48 113.7,130.4 118.17,130.4 C118.729,130.4 119.29,130.39 119.85,130.36 C123.74,130.16 127.58,129.259 131.28,127.69 L131.28,127.69 Z M130.189,141.98 C130.2,141.929 130.21,141.88 130.22,141.83 C130.84,138.03 131.12,134.179 131.22,130.95 C127.6,132.34 123.87,133.15 120.07,133.34 C119.439,133.38 118.81,133.4 118.17,133.4 C113.72,133.4 109.35,132.57 105.12,130.95 C105.229,134.179 105.5,138.03 106.12,141.83 C106.13,141.88 106.14,141.929 106.15,141.98 C106.189,142.25 106.24,142.53 106.29,142.8 C107.67,143.44 111.62,144.98 118.22,145.19 C124.74,144.98 128.67,143.44 130.05,142.8 C130.1,142.53 130.15,142.25 130.189,141.98 L130.189,141.98 Z M124.42,160.66 C122.17,160.99 120.18,161.15 118.21,161.15 L118.13,161.15 C116.15,161.15 114.17,160.99 111.92,160.66 C113.55,164.81 115.28,168.89 116.75,172.38 C117.26,173.58 117.74,174.71 118.17,175.75 C118.6,174.71 119.08,173.58 119.59,172.38 C121.06,168.89 122.79,164.81 124.42,160.66 L124.42,160.66 Z M144.3,158.969 C150.729,152.98 155.61,147.56 157.81,145.03 C154.26,143.6 150.1,142.46 145.24,141.79 C140.91,141.719 136.88,141.52 133.37,141.09 C133.33,141.39 133.28,141.679 133.24,141.98 C136.24,148.65 141.979,156.1 144.3,158.969 L144.3,158.969 Z M132.28,146.74 C132.229,146.95 132.18,147.16 132.12,147.37 C130.03,155.38 125.59,165.88 122.35,173.55 C121.91,174.59 121.49,175.58 121.11,176.49 C128.689,172.24 135.96,166.5 142.08,161 C140.14,158.61 135.6,152.79 132.28,146.74 L132.28,146.74 Z M164.7,141.54 C162.32,141.6 159.92,141.66 157.54,141.71 C170.4,146.429 176.32,154.679 178.76,159.37 C179.95,156.2 180.97,152.88 181.67,149.52 C181.9,148.39 182.1,147.27 182.26,146.14 C177.96,144.259 173.189,142.61 168.01,141.46 C166.92,141.49 165.81,141.52 164.7,141.54 L164.7,141.54 Z M178.25,141.3 C191.74,146.11 201.5,153.58 206.6,158.11 C205.71,155.71 204.52,153.36 203.04,151.2 C199.4,145.87 194.58,142.45 189.8,141.81 C186.81,141.41 182.8,141.29 178.25,141.3 L178.25,141.3 Z M205.68,161.37 C202.08,158.05 194.97,152.23 185.1,147.45 C184.96,148.35 184.8,149.24 184.6,150.13 C183.71,154.49 182.31,158.74 180.71,162.69 C191.09,163.42 200.79,162.179 205.68,161.37 L205.68,161.37 Z M208.11,163.99 C204.86,164.61 196.87,165.92 187.31,165.92 C185.11,165.92 182.82,165.85 180.49,165.679 C180.15,165.66 179.81,165.63 179.47,165.6 C176.77,171.69 173.72,176.87 171.52,180.29 L208.06,170.94 C208.11,170.66 208.16,170.38 208.2,170.1 C208.45,168.179 208.41,166.11 208.11,163.99 L208.11,163.99 Z M159.22,76.3 C166.87,79.009 169.55,85.31 172.13,91.42 C175.88,100.29 179.41,108.7 197.939,107.74 C195.6,102.09 190.45,97.87 190.39,97.83 L188.39,96.21 L190.79,95.259 C196.89,92.87 200.66,88.429 202.58,85.58 C186.71,88.06 178,81.36 171.56,74.34 C166.56,68.88 161.479,68.15 159.22,68.14 L159.22,76.3 L159.22,76.3 Z M159.22,65.14 C161.47,65.15 165.58,65.7 170,68.92 C176.51,70.009 183.22,65.88 186.18,63.74 C182.36,61.55 177.45,61.16 177.39,61.16 L173.84,60.89 L176.51,58.53 C178.3,56.96 179.2,54.32 179.65,52.06 C172.27,58.77 162.62,61.39 159.22,62.14 L159.22,65.14 L159.22,65.14 Z M219.92,208.49 C219.92,209.32 219.25,209.99 218.42,209.99 L171.34,209.99 L167.21,205.5 L162.25,209.99 L74.09,209.99 L69.13,205.5 L65,209.99 L17.92,209.99 C17.09,209.99 16.42,209.32 16.42,208.49 C16.42,207.66 17.09,206.99 17.92,206.99 L30.52,206.99 C29.97,201.4 28.04,182.75 25.55,172.509 C25.39,171.86 25.27,171.2 25.18,170.52 C24.25,163.92 26.33,156.07 30.82,149.5 C34.939,143.48 40.53,139.59 46.14,138.84 C51.31,138.15 59.15,138.24 67.71,138.45 C70.01,136.86 81.13,129.78 99.229,127.6 C100.15,127.48 101.09,127.38 102.05,127.3 C102.05,125.61 102.09,124.28 102.13,123.469 C88.38,118.08 77.12,105.33 77.12,84.19 C77.12,84.19 77.12,84.19 77.12,84.179 L77.12,48.91 C77.12,48.91 77.12,48.91 77.12,48.9 L77.12,43.14 C77.12,42.77 77.13,42.4 77.14,42.04 C77.15,41.4 77.18,40.77 77.21,40.14 C77.16,40 77.13,39.86 77.12,39.71 C77.11,39.45 77.18,39.21 77.29,38.99 C79.22,12.82 99.37,0.83 118.17,0.83 C137.689,0.83 158.68,13.74 159.2,42.04 C159.22,42.4 159.22,42.77 159.22,43.14 L159.22,59.05 C163.38,58.03 174.01,54.77 180.45,46.88 L183.08,43.65 L183.11,47.82 C183.11,48.12 183.12,54.21 180.37,58.56 C182.939,59.06 186.79,60.16 189.66,62.5 L191.04,63.62 L189.7,64.79 C189.35,65.1 182,71.44 173.54,72.06 C173.62,72.15 173.7,72.23 173.78,72.31 C180.38,79.52 188.76,85.679 205.18,82.03 L208.06,81.39 L206.88,84.09 C206.72,84.46 203.08,92.6 194.04,97.1 C196.27,99.29 199.979,103.54 201.45,108.7 L201.939,110.45 L200.13,110.6 C198.4,110.74 196.79,110.81 195.27,110.81 C177.06,110.81 172.99,101.17 169.37,92.58 C166.97,86.91 164.86,81.95 159.22,79.52 L159.22,84.179 C159.22,84.52 159.22,84.86 159.2,85.19 C158.86,105.73 147.74,118.17 134.21,123.469 C134.25,124.28 134.29,125.61 134.29,127.3 C134.8,127.34 135.3,127.39 135.8,127.45 C154.67,129.44 166.27,136.82 168.63,138.45 C177.189,138.24 185.03,138.15 190.2,138.84 C195.81,139.59 201.4,143.48 205.52,149.5 C210.01,156.07 212.09,163.92 211.16,170.52 C211.07,171.2 210.95,171.86 210.79,172.509 C208.3,182.75 206.37,201.4 205.82,206.99 L218.42,206.99 C219.25,206.99 219.92,207.66 219.92,208.49 L219.92,208.49 Z M235.67,208.49 C235.67,209.32 235,209.99 234.17,209.99 L227.17,209.99 C226.34,209.99 225.67,209.32 225.67,208.49 C225.67,207.66 226.34,206.99 227.17,206.99 L234.17,206.99 C235,206.99 235.67,207.66 235.67,208.49 L235.67,208.49 Z" id="Fill-55" fill="#2B2F35"></path>
    </g>
</svg>