<?xml version="1.0" encoding="UTF-8" standalone="no"?>
<svg width="229px" height="210px" viewBox="0 0 229 210" version="1.1" xmlns="http://www.w3.org/2000/svg" xmlns:xlink="http://www.w3.org/1999/xlink">
    <!-- Generator: Sketch 39.1 (31720) - http://www.bohemiancoding.com/sketch -->
    <title>Slice 1</title>
    <desc>Created with Sketch.</desc>
    <defs></defs>
    <g id="Page-1" stroke="none" stroke-width="1" fill="none" fill-rule="evenodd">
        <path d="M60.55,150.66 C59.998,150.66 59.55,151.108 59.55,151.66 C59.55,152.212 59.998,152.66 60.55,152.66 L67.42,152.66 C67.972,152.66 68.42,152.212 68.42,151.66 C68.42,151.108 67.972,150.66 67.42,150.66 L60.55,150.66 L60.55,150.66 Z M54.565,151.45 C54.479,151.45 54.392,151.461 54.307,151.483 C43.924,154.295 36.67,163.776 36.67,174.54 L36.67,180.08 C36.67,180.632 37.118,181.08 37.67,181.08 C38.222,181.08 38.67,180.632 38.67,180.08 L38.67,174.54 C38.67,164.673 45.319,155.987 54.84,153.418 C55.096,153.346 55.312,153.18 55.443,152.949 C55.575,152.718 55.608,152.45 55.537,152.193 C55.417,151.756 55.018,151.45 54.565,151.45 L54.565,151.45 Z M69.67,207.49 L69.67,185.16 C69.67,184.608 69.222,184.16 68.67,184.16 C68.118,184.16 67.67,184.608 67.67,185.16 L67.67,195.964 L59.591,190.906 L46.141,202.078 L38.783,195.596 L28.67,201.631 L28.67,174.54 C28.67,158.537 40.633,144.94 56.496,142.914 C57.876,142.745 59.239,142.66 60.55,142.66 L81.833,142.66 L81.918,143.054 C81.967,143.278 82.016,143.491 82.074,143.714 C85.434,158.243 98.165,169.175 113.038,170.311 L113.5,170.347 L113.5,180.33 L106.79,180.33 C106.238,180.33 105.79,180.778 105.79,181.33 C105.79,181.882 106.238,182.33 106.79,182.33 L113.5,182.33 L113.5,191.14 L106.79,191.14 C106.238,191.14 105.79,191.589 105.79,192.14 C105.79,192.682 106.248,193.14 106.79,193.14 L113.5,193.14 L113.5,207.49 L69.67,207.49 L69.67,207.49 Z M161.59,150.66 C161.04,150.66 160.59,151.108 160.59,151.66 C160.59,152.212 161.04,152.66 161.59,152.66 L168.46,152.66 C169.01,152.66 169.46,152.212 169.46,151.66 C169.46,151.108 169.01,150.66 168.46,150.66 L161.59,150.66 L161.59,150.66 Z M174.44,151.45 C173.99,151.45 173.59,151.753 173.47,152.187 C173.4,152.45 173.43,152.718 173.57,152.949 C173.7,153.18 173.91,153.346 174.17,153.418 C183.69,155.987 190.34,164.673 190.34,174.54 L190.34,180.08 C190.34,180.632 190.79,181.08 191.34,181.08 C191.89,181.08 192.34,180.632 192.34,180.08 L192.34,174.54 C192.34,163.776 185.09,154.295 174.7,151.482 C174.62,151.461 174.53,151.45 174.44,151.45 L174.44,151.45 Z M115.5,207.49 L115.5,193.14 L122.21,193.14 C122.762,193.14 123.21,192.692 123.21,192.14 C123.21,191.589 122.762,191.14 122.21,191.14 L115.5,191.14 L115.5,182.33 L122.21,182.33 C122.762,182.33 123.21,181.882 123.21,181.33 C123.21,180.778 122.762,180.33 122.21,180.33 L115.5,180.33 L115.5,170.347 L115.962,170.311 C131.15,169.149 143.95,157.941 147.09,143.056 L147.17,142.66 L168.46,142.66 C186.04,142.66 200.34,156.961 200.34,174.54 L200.34,201.631 L190.23,195.596 L182.87,202.078 L169.42,190.905 L161.34,195.964 L161.34,185.16 C161.34,184.608 160.89,184.16 160.34,184.16 C159.79,184.16 159.34,184.608 159.34,185.16 L159.34,207.49 L115.5,207.49 L115.5,207.49 Z" id="Fill-56" fill="#9A6E56"></path>
        <path d="M139.96,13.91 L139.9,13.475 C139.66,11.591 138.97,8.667 137.14,5.437 L136.39,4.123 L137.77,4.733 C140.4,5.889 142.28,7.386 143.36,9.182 L143.85,9.992 L144.69,9.531 C145.03,9.352 145.89,8.92 147.03,8.43 L148.55,7.784 L147.65,9.164 C146.59,10.783 145.88,12.256 145.53,13.54 L145.43,13.91 L139.96,13.91 L139.96,13.91 Z M70.84,25.91 C70.84,20.584 75.006,16.196 80.323,15.921 C80.489,15.91 80.67,15.91 80.84,15.91 L148.17,15.91 C153.5,15.91 157.88,20.076 158.16,25.393 C158.17,25.559 158.17,25.74 158.17,25.91 L158.17,33.596 L149.65,31.805 L148.48,27.245 C148.41,27.005 148.26,26.798 148.05,26.654 L144.52,24.328 C144.35,24.219 144.16,24.163 143.96,24.163 C143.79,24.163 143.62,24.209 143.47,24.294 L139.26,26.706 L135.74,22.364 C135.55,22.137 135.29,22.003 134.99,21.99 C134.7,21.99 134.42,22.112 134.22,22.317 L123.395,33.976 L114.282,26.875 C114.108,26.734 113.894,26.66 113.67,26.66 L94.05,26.66 C93.741,26.66 93.462,26.791 93.265,27.029 L87.882,33.619 L80.938,28.358 C80.766,28.226 80.559,28.157 80.341,28.157 C80.107,28.157 79.878,28.239 79.695,28.387 L70.84,35.702 L70.84,25.91 L70.84,25.91 Z" id="Fill-57" fill="#505352"></path>
        <path d="M97.42,71.28 C95.837,71.28 94.55,72.572 94.55,74.16 C94.55,75.748 95.837,77.04 97.42,77.04 C99.003,77.04 100.29,75.748 100.29,74.16 C100.29,72.572 99.003,71.28 97.42,71.28 L97.42,71.28 Z M97.42,82.54 C92.805,82.54 89.05,78.781 89.05,74.16 C89.05,69.539 92.805,65.78 97.42,65.78 C102.035,65.78 105.79,69.539 105.79,74.16 C105.79,78.781 102.035,82.54 97.42,82.54 L97.42,82.54 Z M131.59,71.28 C130,71.28 128.71,72.572 128.71,74.16 C128.71,75.748 130,77.04 131.59,77.04 C133.17,77.04 134.46,75.748 134.46,74.16 C134.46,72.572 133.17,71.28 131.59,71.28 L131.59,71.28 Z M131.59,85.54 C125.315,85.54 120.21,80.434 120.21,74.16 C120.21,67.885 125.315,62.78 131.59,62.78 C137.86,62.78 142.96,67.885 142.96,74.16 C142.96,80.434 137.86,85.54 131.59,85.54 L131.59,85.54 Z" id="Fill-58" fill="#F1BB31"></path>
        <path d="M145.21,46.28 L145.21,41.41 C145.21,40.858 144.76,40.41 144.21,40.41 C143.66,40.41 143.21,40.858 143.21,41.41 L143.21,46.28 L132.59,46.28 L132.59,38.78 C132.59,38.228 132.14,37.78 131.59,37.78 C131.04,37.78 130.59,38.228 130.59,38.78 L130.59,46.28 L121.21,46.28 L121.21,40.04 C121.21,39.639 120.966,39.271 120.602,39.123 C120.469,39.064 120.35,39.04 120.21,39.04 C119.658,39.04 119.21,39.488 119.21,40.04 L119.21,46.28 L109.79,46.28 L109.79,40.04 C109.79,39.488 109.342,39.04 108.79,39.04 C108.238,39.04 107.79,39.488 107.79,40.04 L107.79,46.28 L98.42,46.28 L98.42,38.78 C98.42,38.228 97.972,37.78 97.42,37.78 C96.868,37.78 96.42,38.228 96.42,38.78 L96.42,46.28 L85.79,46.28 L85.79,41.41 C85.79,40.858 85.342,40.41 84.79,40.41 C84.238,40.41 83.79,40.858 83.79,41.41 L83.79,46.28 L76.979,46.28 L76.979,33.91 C76.979,33.821 76.968,33.74 76.941,33.656 L76.844,33.337 L80.367,30.433 L87.441,35.792 C87.617,35.925 87.824,35.996 88.044,35.996 C88.348,35.996 88.631,35.861 88.821,35.626 L94.522,28.66 L113.322,28.66 L122.825,36.062 L122.903,36.128 C123.065,36.256 123.276,36.328 123.501,36.328 C123.778,36.328 124.045,36.213 124.233,36.009 L134.92,24.518 L138.25,28.625 C138.44,28.857 138.72,28.992 139.02,28.992 C139.19,28.992 139.37,28.945 139.52,28.857 L143.93,26.333 L146.64,28.118 L147.86,32.916 C147.96,33.28 148.26,33.56 148.63,33.64 L152.03,34.353 L152.03,46.28 L145.21,46.28 L145.21,46.28 Z M68.251,88.757 C66.695,88.757 65.164,88.524 63.824,88.086 C61.81,87.427 59.229,86.016 58.38,83.027 C57.638,80.405 57.844,77.687 58.96,75.373 C60.065,73.097 61.917,71.495 64.174,70.858 C64.837,70.67 65.52,70.574 66.202,70.574 C67.768,70.574 69.328,71.08 70.714,72.039 C72.68,73.408 74.187,75.588 74.959,78.177 L74.979,78.247 L74.979,82.883 L74.199,82.354 C73.402,81.815 72.603,81.409 71.755,81.112 C71.649,81.076 71.539,81.057 71.427,81.057 C70.999,81.057 70.615,81.327 70.471,81.729 C70.385,81.977 70.4,82.251 70.519,82.494 C70.635,82.732 70.835,82.911 71.083,82.997 C73.06,83.687 74.297,84.889 74.859,85.545 L74.979,85.684 L74.979,86.657 L74.821,86.805 C74.135,87.446 73.221,87.923 72.026,88.261 C70.878,88.586 69.573,88.757 68.251,88.757 L68.251,88.757 Z M160.76,88.757 C159.44,88.757 158.13,88.586 156.98,88.261 C155.79,87.923 154.88,87.446 154.19,86.805 L154.03,86.657 L154.03,85.685 L154.15,85.545 C154.6,85.021 155.87,83.724 157.92,82.998 C158.18,82.911 158.38,82.731 158.49,82.492 C158.61,82.252 158.62,81.98 158.53,81.729 C158.39,81.325 158.01,81.057 157.58,81.057 C157.47,81.057 157.36,81.076 157.25,81.113 C156.42,81.403 155.62,81.809 154.81,82.354 L154.03,82.883 L154.03,78.247 L154.05,78.177 C154.82,75.588 156.33,73.408 158.29,72.04 C159.68,71.08 161.24,70.574 162.81,70.574 C163.49,70.574 164.17,70.67 164.84,70.859 C167.09,71.498 168.95,73.1 170.05,75.371 C171.17,77.693 171.37,80.412 170.62,83.028 C169.78,86.014 167.2,87.426 165.19,88.086 C163.85,88.524 162.31,88.757 160.76,88.757 L160.76,88.757 Z M97.42,63.78 C91.702,63.78 87.05,68.436 87.05,74.16 C87.05,79.883 91.702,84.54 97.42,84.54 C103.138,84.54 107.79,79.883 107.79,74.16 C107.79,68.436 103.138,63.78 97.42,63.78 L97.42,63.78 Z M131.59,60.78 C124.212,60.78 118.21,66.782 118.21,74.16 C118.21,81.538 124.212,87.54 131.59,87.54 C138.96,87.54 144.96,81.538 144.96,74.16 C144.96,66.782 138.96,60.78 131.59,60.78 L131.59,60.78 Z M114.5,87.66 C111.409,87.66 108.612,89.596 107.02,92.841 C106.901,93.086 106.886,93.364 106.976,93.62 C107.063,93.867 107.24,94.066 107.476,94.178 C107.621,94.252 107.769,94.286 107.921,94.286 L107.922,94.286 C108.299,94.286 108.652,94.067 108.822,93.727 C110.068,91.181 112.191,89.66 114.5,89.66 C116.814,89.66 118.941,91.181 120.189,93.73 C120.353,94.064 120.706,94.28 121.09,94.28 C121.256,94.28 121.4,94.249 121.518,94.187 C121.769,94.065 121.946,93.863 122.032,93.613 C122.119,93.358 122.102,93.084 121.981,92.842 C120.388,89.596 117.591,87.66 114.5,87.66 L114.5,87.66 Z M83.92,101.41 C83.368,101.41 82.92,101.858 82.92,102.41 C82.92,102.962 83.368,103.41 83.92,103.41 L88.979,103.41 L88.979,105.41 C88.979,114.784 96.605,122.41 105.979,122.41 L123.03,122.41 C132.4,122.41 140.03,114.784 140.03,105.41 L140.03,103.41 L145.09,103.41 C145.64,103.41 146.09,102.962 146.09,102.41 C146.09,101.858 145.64,101.41 145.09,101.41 L133.84,101.41 C133.29,101.41 132.84,101.858 132.84,102.41 C132.84,102.962 133.29,103.41 133.84,103.41 L138.03,103.41 L138.03,105.41 C138.03,113.681 131.3,120.41 123.03,120.41 L105.979,120.41 C97.708,120.41 90.979,113.681 90.979,105.41 L90.979,103.41 L95.17,103.41 C95.722,103.41 96.17,102.962 96.17,102.41 C96.17,101.858 95.722,101.41 95.17,101.41 L83.92,101.41 L83.92,101.41 Z M105.979,134.41 C89.989,134.41 76.979,121.4 76.979,105.41 L76.979,48.28 L83.79,48.28 L83.79,52.54 C83.79,53.082 84.248,53.54 84.79,53.54 C85.342,53.54 85.79,53.092 85.79,52.54 L85.79,48.28 L96.42,48.28 L96.42,55.66 C96.42,56.212 96.868,56.66 97.42,56.66 C97.972,56.66 98.42,56.212 98.42,55.66 L98.42,48.28 L107.79,48.28 L107.79,53.04 C107.79,53.582 108.248,54.04 108.79,54.04 C109.342,54.04 109.79,53.592 109.79,53.04 L109.79,48.28 L119.21,48.28 L119.21,53.04 C119.21,53.592 119.658,54.04 120.21,54.04 C120.762,54.04 121.21,53.592 121.21,53.04 L121.21,48.28 L130.59,48.28 L130.59,55.66 C130.59,56.212 131.04,56.66 131.59,56.66 C132.14,56.66 132.59,56.212 132.59,55.66 L132.59,48.28 L143.21,48.28 L143.21,52.54 C143.21,53.092 143.66,53.54 144.21,53.54 C144.76,53.54 145.21,53.092 145.21,52.54 L145.21,48.28 L152.03,48.28 L152.03,105.41 C152.03,114.077 148.18,122.229 141.47,127.776 C138.56,130.178 135.26,131.971 131.65,133.106 C128.86,133.971 125.958,134.41 123.03,134.41 L105.979,134.41 L105.979,134.41 Z M114.482,168.39 C99.849,167.862 87.319,157.534 84.013,143.273 L83.871,142.66 L94.17,142.66 L94.17,148.41 C94.17,148.962 94.618,149.41 95.17,149.41 C95.722,149.41 96.17,148.962 96.17,148.41 L96.17,134.819 L96.819,135.022 C99.762,135.943 102.844,136.41 105.979,136.41 L123.03,136.41 C126.15,136.41 129.23,135.943 132.18,135.022 L132.25,135 L132.83,135 L132.84,135.5 L132.84,148.41 C132.84,148.962 133.29,149.41 133.84,149.41 C134.39,149.41 134.84,148.962 134.84,148.41 L134.84,142.66 L145.14,142.66 L145,143.273 C141.69,157.534 129.16,167.862 114.518,168.39 L114.482,168.39 L114.482,168.39 Z M28.67,207.49 L28.67,203.967 L38.557,198.053 L46.1,204.712 L59.749,193.364 L67.67,198.323 L67.67,207.49 L28.67,207.49 L28.67,207.49 Z M161.34,207.49 L161.34,198.324 L169.25,193.364 L182.9,204.712 L190.45,198.053 L200.34,203.967 L200.34,207.49 L161.34,207.49 L161.34,207.49 Z" id="Fill-59" fill="#47827B"></path>
        <path d="M9.67,206.99 L1.92,206.99 C1.09,206.99 0.42,207.66 0.42,208.49 C0.42,209.32 1.09,209.99 1.92,209.99 L9.67,209.99 C10.5,209.99 11.17,209.32 11.17,208.49 C11.17,207.66 10.5,206.99 9.67,206.99 L9.67,206.99 Z M199.84,174.54 C199.84,157.24 185.76,143.16 168.46,143.16 L147.58,143.16 C144.39,158.29 131.42,169.63 116,170.81 L116,179.83 L122.21,179.83 C123.04,179.83 123.71,180.5 123.71,181.33 C123.71,182.16 123.04,182.83 122.21,182.83 L116,182.83 L116,190.64 L122.21,190.64 C123.04,190.64 123.71,191.31 123.71,192.14 C123.71,192.96 123.04,193.64 122.21,193.64 L116,193.64 L116,206.99 L158.84,206.99 L158.84,185.16 C158.84,184.33 159.51,183.66 160.34,183.66 C161.17,183.66 161.84,184.33 161.84,185.16 L161.84,195.06 L169.46,190.29 L182.86,201.42 L190.17,194.98 L199.84,200.75 L199.84,174.54 L199.84,174.54 Z M199.84,204.25 L190.51,198.67 L182.91,205.37 L169.21,193.98 L161.84,198.6 L161.84,206.99 L199.84,206.99 L199.84,204.25 L199.84,204.25 Z M114.5,167.89 C128.94,167.37 141.28,157.09 144.51,143.16 L135.34,143.16 L135.34,148.41 C135.34,149.24 134.67,149.91 133.84,149.91 C133.01,149.91 132.34,149.24 132.34,148.41 L132.34,135.5 L132.33,135.5 C129.38,136.42 126.27,136.91 123.03,136.91 L105.979,136.91 C102.74,136.91 99.61,136.42 96.67,135.5 L96.67,148.41 C96.67,149.24 96,149.91 95.17,149.91 C94.34,149.91 93.67,149.24 93.67,148.41 L93.67,143.16 L84.5,143.16 C87.729,157.09 100.07,167.37 114.5,167.89 L114.5,167.89 Z M113,170.81 C97.82,169.65 85.01,158.63 81.59,143.84 C81.53,143.61 81.479,143.39 81.43,143.16 L60.55,143.16 C59.2,143.16 57.87,143.25 56.56,143.41 C41.14,145.38 29.17,158.59 29.17,174.54 L29.17,200.75 L38.84,194.98 L46.15,201.42 L59.55,190.29 L67.17,195.06 L67.17,185.16 C67.17,184.33 67.84,183.66 68.67,183.66 C69.5,183.66 70.17,184.33 70.17,185.16 L70.17,206.99 L113,206.99 L113,193.64 L106.79,193.64 C105.97,193.64 105.29,192.96 105.29,192.14 C105.29,191.31 105.97,190.64 106.79,190.64 L113,190.64 L113,182.83 L106.79,182.83 C105.97,182.83 105.29,182.16 105.29,181.33 C105.29,180.5 105.97,179.83 106.79,179.83 L113,179.83 L113,170.81 L113,170.81 Z M67.17,198.6 L59.79,193.98 L46.09,205.37 L38.5,198.67 L29.17,204.25 L29.17,206.99 L67.17,206.99 L67.17,198.6 L67.17,198.6 Z M105.979,133.91 L123.03,133.91 C125.979,133.91 128.82,133.46 131.5,132.63 C135.06,131.509 138.33,129.719 141.15,127.39 C147.48,122.16 151.53,114.25 151.53,105.41 L151.53,78.04 C151.53,78.02 151.52,78 151.53,77.98 L151.53,48.78 L145.71,48.78 L145.71,52.54 C145.71,53.36 145.04,54.04 144.21,54.04 C143.38,54.04 142.71,53.36 142.71,52.54 L142.71,48.78 L133.09,48.78 L133.09,55.66 C133.09,56.49 132.42,57.16 131.59,57.16 C130.76,57.16 130.09,56.49 130.09,55.66 L130.09,48.78 L121.71,48.78 L121.71,53.04 C121.71,53.86 121.04,54.54 120.21,54.54 C119.38,54.54 118.71,53.86 118.71,53.04 L118.71,48.78 L110.29,48.78 L110.29,53.04 C110.29,53.86 109.62,54.54 108.79,54.54 C107.97,54.54 107.29,53.86 107.29,53.04 L107.29,48.78 L98.92,48.78 L98.92,55.66 C98.92,56.49 98.25,57.16 97.42,57.16 C96.59,57.16 95.92,56.49 95.92,55.66 L95.92,48.78 L86.29,48.78 L86.29,52.54 C86.29,53.36 85.62,54.04 84.79,54.04 C83.97,54.04 83.29,53.36 83.29,52.54 L83.29,48.78 L77.479,48.78 L77.479,77.98 L77.479,78.04 L77.479,105.41 C77.479,121.12 90.27,133.91 105.979,133.91 L105.979,133.91 Z M77.42,33.509 C77.46,33.64 77.479,33.77 77.479,33.91 L77.479,45.78 L83.29,45.78 L83.29,41.41 C83.29,40.58 83.97,39.91 84.79,39.91 C85.62,39.91 86.29,40.58 86.29,41.41 L86.29,45.78 L95.92,45.78 L95.92,38.78 C95.92,37.96 96.59,37.28 97.42,37.28 C98.25,37.28 98.92,37.96 98.92,38.78 L98.92,45.78 L107.29,45.78 L107.29,40.04 C107.29,39.21 107.97,38.54 108.79,38.54 C109.62,38.54 110.29,39.21 110.29,40.04 L110.29,45.78 L118.71,45.78 L118.71,40.04 C118.71,39.21 119.38,38.54 120.21,38.54 C120.42,38.54 120.61,38.58 120.79,38.66 C121.33,38.88 121.71,39.42 121.71,40.04 L121.71,45.78 L130.09,45.78 L130.09,38.78 C130.09,37.96 130.76,37.28 131.59,37.28 C132.42,37.28 133.09,37.96 133.09,38.78 L133.09,45.78 L142.71,45.78 L142.71,41.41 C142.71,40.58 143.38,39.91 144.21,39.91 C145.04,39.91 145.71,40.58 145.71,41.41 L145.71,45.78 L151.53,45.78 L151.53,34.759 L148.53,34.13 C147.97,34.009 147.53,33.59 147.38,33.04 L146.2,28.429 L143.91,26.92 L139.77,29.29 C139.13,29.66 138.33,29.509 137.86,28.94 L134.89,25.28 L124.6,36.35 C124.07,36.92 123.189,36.99 122.58,36.509 L122.51,36.45 L113.15,29.16 L94.76,29.16 L89.21,35.94 C88.7,36.57 87.78,36.679 87.14,36.19 L80.38,31.07 L77.42,33.509 L77.42,33.509 Z M79.38,28 C79.92,27.56 80.689,27.54 81.24,27.96 L87.8,32.929 L92.88,26.71 C93.17,26.36 93.59,26.16 94.05,26.16 L113.67,26.16 C114,26.16 114.33,26.27 114.59,26.48 L123.34,33.3 L133.86,21.969 C134.16,21.66 134.59,21.48 135.01,21.49 C135.45,21.509 135.85,21.71 136.13,22.05 L139.38,26.06 L143.22,23.86 C143.71,23.58 144.32,23.6 144.79,23.91 L148.33,26.24 C148.64,26.45 148.86,26.759 148.96,27.12 L150.06,31.38 L157.67,32.98 L157.67,25.91 C157.67,25.75 157.67,25.58 157.66,25.42 C157.4,20.41 153.25,16.41 148.17,16.41 L80.84,16.41 C80.68,16.41 80.51,16.41 80.35,16.42 C75.34,16.679 71.34,20.83 71.34,25.91 L71.34,34.64 L79.38,28 L79.38,28 Z M137.57,5.19 C139.51,8.6 140.17,11.67 140.4,13.41 L145.05,13.41 C145.46,11.88 146.32,10.28 147.23,8.89 C145.87,9.469 144.95,9.96 144.93,9.969 L143.67,10.66 L142.93,9.44 C141.7,7.4 139.52,6.05 137.57,5.19 L137.57,5.19 Z M154.53,78.32 L154.53,81.94 C155.24,81.46 156.08,80.99 157.09,80.64 C157.87,80.37 158.73,80.78 159,81.56 C159.28,82.34 158.87,83.2 158.09,83.469 C156.19,84.14 155.01,85.31 154.53,85.87 L154.53,86.44 C155.14,87.009 155.99,87.46 157.12,87.78 C159.56,88.469 162.59,88.41 165.03,87.61 C166.93,86.99 169.36,85.67 170.14,82.89 C170.86,80.38 170.66,77.79 169.6,75.59 C168.56,73.45 166.82,71.94 164.7,71.34 C162.63,70.75 160.46,71.15 158.58,72.45 C156.7,73.759 155.27,75.84 154.53,78.32 L154.53,78.32 Z M74.479,78.32 C73.74,75.84 72.31,73.759 70.43,72.45 C68.55,71.15 66.38,70.75 64.31,71.34 C62.18,71.94 60.45,73.45 59.41,75.59 C58.35,77.79 58.15,80.38 58.86,82.89 C59.65,85.67 62.08,86.99 63.979,87.61 C66.42,88.41 69.45,88.469 71.89,87.78 C73.02,87.46 73.87,87.009 74.479,86.44 L74.479,85.87 C73.99,85.3 72.81,84.13 70.92,83.469 C70.14,83.2 69.729,82.34 70,81.56 C70.28,80.78 71.14,80.37 71.92,80.64 C72.92,80.99 73.77,81.46 74.479,81.94 L74.479,78.32 L74.479,78.32 Z M215.34,208.49 C215.34,209.32 214.67,209.99 213.84,209.99 L15.17,209.99 C14.34,209.99 13.67,209.32 13.67,208.49 C13.67,207.66 14.34,206.99 15.17,206.99 L26.17,206.99 L26.17,174.54 C26.17,157.05 39.29,142.57 56.21,140.44 C57.63,140.25 59.08,140.16 60.55,140.16 L93.67,140.16 L93.67,134.4 C82.4,129.6 74.479,118.41 74.479,105.41 L74.479,89.99 C73.939,90.25 73.36,90.48 72.7,90.67 C71.31,91.06 69.79,91.259 68.26,91.259 C66.47,91.259 64.68,90.99 63.05,90.46 C59.39,89.27 56.88,86.87 55.979,83.71 C55.07,80.49 55.33,77.15 56.71,74.29 C58.12,71.36 60.53,69.29 63.49,68.45 C66.439,67.62 69.51,68.16 72.14,69.99 C73,70.59 73.78,71.31 74.479,72.13 L74.479,35.94 L70.79,38.98 C70.52,39.21 70.18,39.33 69.84,39.33 C69.62,39.33 69.4,39.28 69.2,39.179 C68.67,38.94 68.34,38.41 68.34,37.83 L68.34,25.91 C68.34,19.21 73.64,13.73 80.26,13.429 C80.45,13.41 80.64,13.41 80.84,13.41 L137.37,13.41 C137.03,11.31 135.97,7.33 132.68,3.37 L130.04,0.179 L134.11,0.94 C134.42,0.99 141.11,2.28 144.69,6.74 C146.09,6.08 148.51,5.05 151.03,4.53 L155.54,3.59 L152.45,7 C151.45,8.11 149.14,10.99 148.2,13.41 C154.89,13.42 160.35,18.71 160.65,25.33 C160.67,25.52 160.67,25.71 160.67,25.91 L160.67,34.83 C160.67,35.28 160.47,35.71 160.12,35.99 C159.76,36.28 159.3,36.39 158.86,36.29 L154.53,35.39 L154.53,72.13 C155.23,71.31 156.01,70.59 156.87,69.99 C159.5,68.16 162.57,67.62 165.52,68.45 C168.48,69.29 170.89,71.36 172.3,74.29 C173.68,77.15 173.94,80.49 173.03,83.71 C172.13,86.87 169.62,89.27 165.96,90.46 C164.33,90.99 162.53,91.259 160.75,91.259 C159.22,91.259 157.7,91.06 156.3,90.67 C155.65,90.48 155.07,90.25 154.53,89.99 L154.53,105.41 C154.53,115.16 150.07,123.89 143.09,129.67 C140.76,131.6 138.15,133.2 135.34,134.4 L135.34,140.16 L168.46,140.16 C187.42,140.16 202.84,155.58 202.84,174.54 L202.84,206.99 L213.84,206.99 C214.67,206.99 215.34,207.66 215.34,208.49 L215.34,208.49 Z M54.18,151 C43.58,153.87 36.17,163.55 36.17,174.54 L36.17,180.08 C36.17,180.9 36.84,181.58 37.67,181.58 C38.5,181.58 39.17,180.9 39.17,180.08 L39.17,174.54 C39.17,164.9 45.67,156.41 54.97,153.9 C55.77,153.679 56.24,152.86 56.02,152.06 C55.8,151.259 54.979,150.79 54.18,151 L54.18,151 Z M67.42,150.16 L60.55,150.16 C59.72,150.16 59.05,150.83 59.05,151.66 C59.05,152.49 59.72,153.16 60.55,153.16 L67.42,153.16 C68.25,153.16 68.92,152.49 68.92,151.66 C68.92,150.83 68.25,150.16 67.42,150.16 L67.42,150.16 Z M123.03,122.91 C132.67,122.91 140.53,115.06 140.53,105.41 L140.53,103.91 L145.09,103.91 C145.92,103.91 146.59,103.24 146.59,102.41 C146.59,101.58 145.92,100.91 145.09,100.91 L133.84,100.91 C133.01,100.91 132.34,101.58 132.34,102.41 C132.34,103.24 133.01,103.91 133.84,103.91 L137.53,103.91 L137.53,105.41 C137.53,113.41 131.02,119.91 123.03,119.91 L105.979,119.91 C97.99,119.91 91.479,113.41 91.479,105.41 L91.479,103.91 L95.17,103.91 C96,103.91 96.67,103.24 96.67,102.41 C96.67,101.58 96,100.91 95.17,100.91 L83.92,100.91 C83.09,100.91 82.42,101.58 82.42,102.41 C82.42,103.24 83.09,103.91 83.92,103.91 L88.479,103.91 L88.479,105.41 C88.479,115.06 96.33,122.91 105.979,122.91 L123.03,122.91 L123.03,122.91 Z M89.55,74.16 C89.55,78.5 93.08,82.04 97.42,82.04 C101.76,82.04 105.29,78.5 105.29,74.16 C105.29,69.82 101.76,66.28 97.42,66.28 C93.08,66.28 89.55,69.82 89.55,74.16 L89.55,74.16 Z M86.55,74.16 C86.55,68.16 91.42,63.28 97.42,63.28 C103.42,63.28 108.29,68.16 108.29,74.16 C108.29,80.16 103.42,85.04 97.42,85.04 C91.42,85.04 86.55,80.16 86.55,74.16 L86.55,74.16 Z M97.42,77.54 C99.28,77.54 100.79,76.02 100.79,74.16 C100.79,72.3 99.28,70.78 97.42,70.78 C95.56,70.78 94.05,72.3 94.05,74.16 C94.05,76.02 95.56,77.54 97.42,77.54 L97.42,77.54 Z M120.71,74.16 C120.71,80.16 125.59,85.04 131.59,85.04 C137.58,85.04 142.46,80.16 142.46,74.16 C142.46,68.16 137.58,63.28 131.59,63.28 C125.59,63.28 120.71,68.16 120.71,74.16 L120.71,74.16 Z M117.71,74.16 C117.71,66.509 123.939,60.28 131.59,60.28 C139.24,60.28 145.46,66.509 145.46,74.16 C145.46,81.81 139.24,88.04 131.59,88.04 C123.939,88.04 117.71,81.81 117.71,74.16 L117.71,74.16 Z M107.26,94.63 C108,95 108.9,94.69 109.27,93.95 C110.43,91.58 112.39,90.16 114.5,90.16 C116.62,90.16 118.58,91.58 119.74,93.95 C120,94.48 120.54,94.78 121.09,94.78 C121.31,94.78 121.54,94.74 121.75,94.63 C122.49,94.27 122.8,93.37 122.43,92.62 C120.75,89.2 117.79,87.16 114.5,87.16 C111.22,87.16 108.25,89.2 106.57,92.62 C106.21,93.37 106.51,94.27 107.26,94.63 L107.26,94.63 Z M131.59,77.54 C133.45,77.54 134.96,76.02 134.96,74.16 C134.96,72.3 133.45,70.78 131.59,70.78 C129.72,70.78 128.21,72.3 128.21,74.16 C128.21,76.02 129.72,77.54 131.59,77.54 L131.59,77.54 Z M168.46,150.16 L161.59,150.16 C160.76,150.16 160.09,150.83 160.09,151.66 C160.09,152.49 160.76,153.16 161.59,153.16 L168.46,153.16 C169.29,153.16 169.96,152.49 169.96,151.66 C169.96,150.83 169.29,150.16 168.46,150.16 L168.46,150.16 Z M174.83,151 C174.03,150.79 173.2,151.259 172.99,152.06 C172.77,152.86 173.24,153.679 174.04,153.9 C183.34,156.41 189.84,164.9 189.84,174.54 L189.84,180.08 C189.84,180.9 190.51,181.58 191.34,181.58 C192.17,181.58 192.84,180.9 192.84,180.08 L192.84,174.54 C192.84,163.55 185.43,153.87 174.83,151 L174.83,151 Z M228.59,208.49 C228.59,209.32 227.92,209.99 227.09,209.99 L219.34,209.99 C218.51,209.99 217.84,209.32 217.84,208.49 C217.84,207.66 218.51,206.99 219.34,206.99 L227.09,206.99 C227.92,206.99 228.59,207.66 228.59,208.49 L228.59,208.49 Z" id="Fill-60" fill="#2B2F35"></path>
    </g>
</svg>