<?xml version="1.0" encoding="UTF-8" standalone="no"?>
<svg width="66px" height="55px" viewBox="0 0 66 55" version="1.1" xmlns="http://www.w3.org/2000/svg" xmlns:xlink="http://www.w3.org/1999/xlink">
    <!-- Generator: Sketch 39.1 (31720) - http://www.bohemiancoding.com/sketch -->
    <title>Slice 1</title>
    <desc>Created with Sketch.</desc>
    <defs></defs>
    <g id="Page-1" stroke="none" stroke-width="1" fill="none" fill-rule="evenodd">
        <path d="M60.665,54.178 L60.663,54.178 L6.028,54.178 C4.643,54.178 3.339,53.638 2.358,52.656 C1.376,51.674 0.834,50.37 0.835,48.985 L0.835,10.953 C0.835,9.098 2.092,7.499 3.892,7.063 C4.169,6.996 4.453,6.958 4.739,6.951 C5.09,5.362 6.324,4.067 7.943,3.674 C8.277,3.593 8.62,3.553 8.964,3.552 L15.436,3.553 L15.439,3.553 C16.593,3.553 17.677,4.003 18.494,4.819 C19.085,5.41 19.486,6.147 19.662,6.95 L32,6.95 L32,6.674 C32.001,4.919 33.191,3.405 34.894,2.992 C35.184,2.921 35.484,2.885 35.785,2.885 L35.788,2.885 L44.597,2.885 C46.687,2.885 48.385,4.585 48.385,6.675 L48.385,6.95 L48.629,6.95 C49.108,5.998 49.976,5.303 51.04,5.045 C51.323,4.976 51.614,4.941 51.903,4.941 L51.91,4.941 L59.675,4.941 C60.658,4.94 61.581,5.324 62.275,6.018 C62.596,6.339 62.855,6.716 63.037,7.127 C63.656,7.317 64.218,7.656 64.684,8.122 C65.44,8.877 65.857,9.883 65.856,10.954 L65.855,48.985 C65.857,51.39 64.226,53.465 61.889,54.032 C61.489,54.129 61.077,54.178 60.665,54.178" id="Fill-462" fill="#A0A19D"></path>
        <path d="M61.367,51.881 C60.966,51.979 60.554,52.028 60.141,52.028 L5.506,52.028 C4.121,52.028 2.818,51.488 1.836,50.506 C0.854,49.524 0.313,48.22 0.314,46.835 L0.313,8.802 C0.314,6.948 1.571,5.349 3.37,4.912 C3.647,4.845 3.932,4.807 4.218,4.801 C4.569,3.212 5.803,1.917 7.422,1.524 C7.755,1.443 8.099,1.402 8.443,1.402 L14.914,1.402 C16.07,1.402 17.155,1.852 17.973,2.669 C18.563,3.259 18.965,3.997 19.14,4.8 L31.478,4.8 L31.479,4.523 C31.479,2.768 32.669,1.254 34.373,0.841 C34.663,0.771 34.964,0.735 35.267,0.735 L44.076,0.735 C46.165,0.735 47.864,2.435 47.863,4.524 L47.864,4.8 L48.107,4.8 C48.587,3.847 49.455,3.152 50.519,2.894 C50.804,2.825 51.097,2.79 51.389,2.791 L59.154,2.79 C60.137,2.79 61.059,3.173 61.754,3.868 C62.075,4.189 62.333,4.566 62.515,4.977 C63.134,5.167 63.697,5.506 64.162,5.972 C64.919,6.727 65.335,7.733 65.334,8.803 L65.334,46.835 C65.336,49.24 63.704,51.315 61.367,51.881" id="Fill-463" fill="#FFFFFF"></path>
        <path d="M16.849,9.923 L6.508,9.923 L6.508,5.728 C6.508,4.66 7.375,3.793 8.443,3.793 L14.914,3.793 C15.983,3.793 16.849,4.66 16.849,5.728 L16.849,9.923" id="Fill-464" fill="#3973AC"></path>
        <path d="M60.439,9.923 L50.102,9.923 L50.102,6.467 C50.102,5.757 50.677,5.182 51.387,5.182 L59.154,5.182 C59.864,5.182 60.439,5.757 60.439,6.467 L60.439,9.923" id="Fill-465" fill="#E996B7"></path>
        <path d="M61.333,7.191 L4.315,7.191 C3.425,7.191 2.704,7.912 2.704,8.802 L2.704,14.325 L62.943,14.325 L62.943,8.802 C62.943,7.912 62.222,7.191 61.333,7.191" id="Fill-466" fill="#271821"></path>
        <path d="M61.333,7.191 L4.315,7.191 C3.425,7.191 2.704,7.912 2.704,8.802 L2.704,11.248 L62.943,11.249 L62.943,8.802 C62.943,7.912 62.222,7.191 61.333,7.191" id="Fill-467" fill="#BE8BB2"></path>
        <polyline id="Fill-468" fill="#6BBE9C" points="62.943 13.601 2.704 13.6 2.704 45.12 62.943 45.12 62.943 13.601"></polyline>
        <path d="M6.354,33.722 L6.355,19.118 C6.355,18.697 6.013,18.355 5.592,18.355 C5.17,18.355 4.829,18.697 4.829,19.118 L4.829,33.722 C4.829,34.143 5.17,34.485 5.592,34.485 C6.013,34.485 6.354,34.143 6.354,33.722" id="Fill-469" fill="#FFFFFF"></path>
        <path d="M6.354,40.727 L6.354,37.208 C6.354,36.787 6.013,36.445 5.592,36.445 C5.17,36.445 4.829,36.787 4.829,37.208 L4.829,40.727 C4.829,41.149 5.17,41.49 5.592,41.49 C6.013,41.49 6.354,41.149 6.354,40.727" id="Fill-470" fill="#FFFFFF"></path>
        <path d="M2.704,44.611 L2.704,46.835 C2.704,48.382 3.959,49.637 5.506,49.637 L60.141,49.637 C61.689,49.637 62.943,48.382 62.943,46.835 L62.943,44.611 L2.704,44.611" id="Fill-471" fill="#3973AC"></path>
        <path d="M44.075,11.945 L35.267,11.945 C34.495,11.945 33.87,11.32 33.87,10.548 L33.87,4.523 C33.87,3.752 34.495,3.126 35.267,3.126 L44.075,3.126 C44.847,3.126 45.472,3.752 45.472,4.523 L45.472,10.548 C45.472,11.32 44.847,11.945 44.075,11.945" id="Fill-472" fill="#271821"></path>
        <path d="M41.97,10.092 L37.27,10.092 C36.801,10.092 36.422,9.713 36.422,9.244 L36.422,6.264 C36.422,5.796 36.801,5.416 37.27,5.416 L41.97,5.416 C42.439,5.416 42.818,5.796 42.818,6.264 L42.818,9.244 C42.818,9.713 42.439,10.092 41.97,10.092" id="Fill-473" fill="#FFFFFF"></path>
        <path d="M53.46,28.861 C53.46,36.503 47.269,42.691 39.629,42.691 C31.994,42.691 25.794,36.503 25.794,28.86 C25.794,21.22 31.994,15.022 39.629,15.022 C47.269,15.022 53.46,21.22 53.46,28.861" id="Fill-474" fill="#E996B7"></path>
        <path d="M50.121,28.86 C50.121,34.65 45.421,39.345 39.629,39.345 C33.841,39.345 29.146,34.65 29.146,28.86 C29.146,23.068 33.841,18.371 39.629,18.371 C45.421,18.371 50.121,23.068 50.121,28.86" id="Fill-475" fill="#271821"></path>
        <path d="M36.064,37.093 C34.352,36.27 33.067,34.929 32.247,33.384 C31.956,32.833 32.166,32.138 32.72,31.846 C33.279,31.548 33.963,31.761 34.259,32.322 C34.883,33.48 35.812,34.446 37.05,35.041 C37.617,35.318 37.851,35.996 37.583,36.561 C37.392,36.966 36.979,37.208 36.561,37.208 C36.388,37.208 36.219,37.168 36.064,37.093" id="Fill-476" fill="#FFFFFF"></path>
        <path d="M31.136,29.428 C31.121,29.195 31.112,28.961 31.112,28.75 C31.064,24.794 33.574,20.659 38.508,20.102 C39.142,20.019 39.704,20.469 39.774,21.098 C39.844,21.722 39.404,22.287 38.776,22.357 C35.108,22.807 33.439,25.617 33.386,28.75 C33.386,28.919 33.396,29.085 33.41,29.251 C33.452,29.882 32.987,30.429 32.359,30.473 L32.27,30.476 C31.679,30.476 31.182,30.021 31.136,29.428" id="Fill-477" fill="#FFFFFF"></path>
    </g>
</svg>