<?xml version="1.0" encoding="UTF-8" standalone="no"?>
<svg width="64px" height="51px" viewBox="0 0 64 51" version="1.1" xmlns="http://www.w3.org/2000/svg" xmlns:xlink="http://www.w3.org/1999/xlink">
    <!-- Generator: Sketch 39.1 (31720) - http://www.bohemiancoding.com/sketch -->
    <title>Slice 1</title>
    <desc>Created with Sketch.</desc>
    <defs></defs>
    <g id="Page-1" stroke="none" stroke-width="1" fill="none" fill-rule="evenodd">
        <path d="M29.996,50.34 C28.374,50.34 26.756,50.251 25.149,50.074 C22.429,49.773 19.728,49.22 17.119,48.426 C11.387,46.682 6.127,43.827 1.486,39.94 C-0.018,38.684 -0.227,36.424 1.021,34.903 L27.115,2.944 C27.778,2.131 28.759,1.671 29.794,1.671 C29.922,1.671 30.051,1.678 30.18,1.692 C30.391,1.715 30.601,1.758 30.805,1.82 C31.349,1.986 31.849,2.285 32.25,2.687 L58.305,28.742 L59.88,30.31 L61.639,32.073 C63.033,33.476 63.044,35.749 61.664,37.143 C54.735,44.15 45.911,48.567 36.144,49.915 C34.102,50.198 32.046,50.34 29.996,50.34" id="Fill-562" fill="#A0A19D"></path>
        <path d="M17.44,47.373 C11.707,45.629 6.447,42.773 1.806,38.887 C0.302,37.631 0.093,35.371 1.341,33.849 L27.435,1.891 C28.181,0.977 29.327,0.509 30.5,0.639 C30.711,0.661 30.921,0.705 31.125,0.767 C31.669,0.933 32.169,1.232 32.57,1.634 L58.625,27.689 L60.201,29.257 L61.959,31.02 C63.353,32.423 63.365,34.696 61.985,36.09 C55.056,43.097 46.231,47.514 36.464,48.862 C32.806,49.369 29.107,49.422 25.469,49.02 C22.75,48.72 20.048,48.166 17.44,47.373" id="Fill-563" fill="#FFFFFF"></path>
        <path d="M60.341,34.463 C54.05,40.826 45.696,45.254 36.148,46.571 C23.871,48.274 12.103,44.494 3.291,37.115 C2.752,36.664 2.685,35.856 3.128,35.317 L4.748,33.334 L6.186,31.57 C14.553,37.336 25.006,40.132 35.866,38.631 C43.935,37.51 51.153,34.176 56.99,29.323 L58.57,30.896 L60.322,32.653 C60.818,33.15 60.831,33.968 60.341,34.463" id="Fill-564" fill="#35AC56"></path>
        <path d="M58.57,30.896 C52.492,36.448 44.731,40.279 35.967,41.485 C24.436,43.085 13.354,39.849 4.748,33.334 L6.186,31.57 C14.553,37.336 25.006,40.132 35.866,38.631 C43.935,37.51 51.153,34.176 56.99,29.323 L58.57,30.896" id="Fill-565" fill="#6BBE9C"></path>
        <path d="M35.865,38.628 C43.938,37.512 51.154,34.175 56.993,29.326 L30.934,3.267 C30.452,2.785 29.657,2.825 29.226,3.353 L6.185,31.573 C14.553,37.339 25.006,40.131 35.865,38.628" id="Fill-566" fill="#DA2D31"></path>
        <path d="M6.051,36.392 L7.601,34.288 C7.822,33.989 7.758,33.568 7.459,33.348 C7.16,33.127 6.739,33.191 6.519,33.49 L4.968,35.595 C4.748,35.894 4.812,36.315 5.11,36.535 C5.409,36.755 5.83,36.691 6.051,36.392" id="Fill-567" fill="#FFFFFF"></path>
        <path d="M16.366,23.761 L26.028,11.927 C26.262,11.64 26.22,11.216 25.932,10.981 C25.644,10.746 25.221,10.789 24.986,11.077 L15.324,22.911 C15.089,23.198 15.132,23.622 15.42,23.857 C15.707,24.091 16.131,24.049 16.366,23.761" id="Fill-568" fill="#FFFFFF"></path>
        <path d="M11.13,30.173 L13.754,26.96 C13.989,26.672 13.946,26.248 13.658,26.014 C13.371,25.779 12.947,25.822 12.712,26.109 L10.088,29.323 C9.854,29.611 9.896,30.034 10.184,30.269 C10.472,30.504 10.895,30.461 11.13,30.173" id="Fill-569" fill="#FFFFFF"></path>
        <path d="M41.278,18.612 C41.61,19.716 41.388,20.758 40.782,20.941 C40.176,21.123 39.415,20.376 39.083,19.273 C38.751,18.169 38.973,17.127 39.579,16.944 C40.186,16.762 40.946,17.509 41.278,18.612" id="Fill-570" fill="#1B1A18"></path>
        <path d="M26.155,33.106 C26.487,34.209 26.265,35.252 25.659,35.434 C25.052,35.617 24.292,34.87 23.96,33.767 C23.628,32.663 23.85,31.62 24.456,31.438 C25.062,31.256 25.823,32.002 26.155,33.106" id="Fill-571" fill="#1B1A18"></path>
        <path d="M51.145,26.654 C52.041,27.379 52.445,28.365 52.047,28.858 C51.649,29.35 50.6,29.162 49.703,28.437 C48.807,27.713 48.403,26.726 48.801,26.234 C49.199,25.742 50.248,25.93 51.145,26.654" id="Fill-572" fill="#1B1A18"></path>
        <path d="M41.81,33.049 C41.641,34.189 40.995,35.038 40.369,34.944 C39.743,34.851 39.373,33.851 39.543,32.711 C39.713,31.571 40.358,30.723 40.984,30.816 C41.611,30.91 41.98,31.91 41.81,33.049" id="Fill-573" fill="#1B1A18"></path>
        <path d="M31.064,11.459 C30.605,12.516 29.762,13.169 29.181,12.916 C28.601,12.664 28.502,11.603 28.961,10.546 C29.419,9.489 30.262,8.836 30.843,9.088 C31.424,9.34 31.523,10.402 31.064,11.459" id="Fill-574" fill="#1B1A18"></path>
        <path d="M32.867,25.557 C32.624,26.683 31.925,27.488 31.306,27.355 C30.687,27.221 30.383,26.2 30.626,25.073 C30.869,23.947 31.568,23.142 32.186,23.275 C32.805,23.409 33.11,24.43 32.867,25.557" id="Fill-575" fill="#1B1A18"></path>
        <path d="M15.703,30.268 C15.46,31.395 14.761,32.2 14.142,32.066 C13.523,31.933 13.219,30.911 13.462,29.785 C13.705,28.658 14.404,27.853 15.022,27.987 C15.641,28.12 15.946,29.142 15.703,30.268" id="Fill-576" fill="#1B1A18"></path>
        <path d="M23.829,20.855 C24.23,21.935 24.074,22.99 23.481,23.21 C22.887,23.43 22.081,22.733 21.68,21.653 C21.279,20.572 21.435,19.518 22.028,19.297 C22.622,19.077 23.428,19.774 23.829,20.855" id="Fill-577" fill="#1B1A18"></path>
    </g>
</svg>