<?xml version="1.0" encoding="UTF-8" standalone="no"?>
<svg width="77px" height="56px" viewBox="0 0 77 56" version="1.1" xmlns="http://www.w3.org/2000/svg" xmlns:xlink="http://www.w3.org/1999/xlink">
    <!-- Generator: Sketch 39.1 (31720) - http://www.bohemiancoding.com/sketch -->
    <title>Slice 1</title>
    <desc>Created with Sketch.</desc>
    <defs></defs>
    <g id="Page-1" stroke="none" stroke-width="1" fill="none" fill-rule="evenodd">
        <path d="M36.833,55.868 C30.419,55.868 24.254,53.894 19.738,50.424 L15.605,50.424 C8.211,50.424 2.195,44.408 2.195,37.014 C2.195,32.56 4.415,28.444 8.006,25.969 C7.911,25.422 7.864,24.866 7.864,24.303 C7.864,18.881 12.275,14.469 17.698,14.469 C17.852,14.469 18.008,14.473 18.163,14.481 C20.853,7.22 27.893,2.184 35.81,2.184 C41.265,2.184 46.428,4.561 49.982,8.628 C51.221,8.321 52.487,8.167 53.768,8.167 C62.575,8.167 69.74,15.334 69.74,24.144 C69.74,24.457 69.731,24.771 69.712,25.084 C74.14,27.344 76.983,31.889 76.983,37.014 C76.983,44.408 70.97,50.424 63.579,50.424 L53.928,50.424 C49.413,53.894 43.247,55.868 36.833,55.868" id="Fill-135" fill="#A0A19D"></path>
        <path d="M35.612,54.26 C29.199,54.26 23.034,52.286 18.518,48.816 L14.385,48.816 C6.99,48.816 0.975,42.8 0.975,35.406 C0.975,30.952 3.194,26.836 6.786,24.361 C6.691,23.814 6.644,23.258 6.644,22.695 C6.644,17.273 11.055,12.862 16.477,12.862 C16.632,12.862 16.788,12.865 16.942,12.873 C19.633,5.612 26.673,0.576 34.59,0.576 C40.045,0.576 45.207,2.953 48.762,7.02 C50.001,6.714 51.267,6.559 52.547,6.559 C61.355,6.559 68.52,13.727 68.52,22.536 C68.52,22.85 68.511,23.163 68.492,23.476 C72.92,25.737 75.763,30.282 75.763,35.406 C75.763,42.8 69.75,48.816 62.359,48.816 L52.707,48.816 C48.193,52.286 42.027,54.26 35.612,54.26" id="Fill-136" fill="#FFFFFF"></path>
        <path d="M10.049,25.664 C9.628,24.762 9.389,23.758 9.389,22.695 C9.389,18.778 12.561,15.607 16.477,15.607 C17.321,15.607 18.127,15.762 18.878,16.031 C20.422,8.77 26.866,3.322 34.589,3.322 C40.052,3.322 44.869,6.047 47.775,10.207 C49.251,9.633 50.86,9.305 52.547,9.305 C59.85,9.305 65.774,15.228 65.774,22.536 C65.774,23.453 65.681,24.345 65.502,25.215 C69.857,26.557 73.018,30.611 73.018,35.406 C73.018,41.295 68.247,46.07 62.359,46.07 L51.739,46.07 C47.8,49.409 42.037,51.514 35.612,51.514 C29.189,51.514 23.427,49.409 19.486,46.07 L14.385,46.07 C8.494,46.07 3.721,41.295 3.721,35.406 C3.721,31.06 6.322,27.328 10.049,25.664" id="Fill-137" fill="#60C1C8"></path>
        <path d="M22.797,16.865 C23.966,11.347 28.939,7.324 34.589,7.328 C35.142,7.328 35.591,6.88 35.591,6.327 C35.591,5.774 35.142,5.325 34.589,5.325 C27.983,5.329 22.214,9.994 20.838,16.448 C20.723,16.989 21.068,17.521 21.609,17.636 C22.15,17.751 22.682,17.406 22.797,16.865" id="Fill-138" fill="#FFFFFF"></path>
        <path d="M8.334,32.634 C8.999,31.189 10.173,29.996 11.683,29.322 L12.657,28.887 C13.162,28.661 13.389,28.069 13.163,27.564 C12.938,27.059 12.345,26.832 11.84,27.058 L10.866,27.493 C8.904,28.369 7.378,29.92 6.515,31.797 C6.284,32.3 6.504,32.895 7.006,33.126 C7.509,33.357 8.103,33.137 8.335,32.634" id="Fill-139" fill="#FFFFFF"></path>
        <path d="M51.229,25.067 C51.459,25.209 51.762,25.047 51.762,24.777 L51.762,24.77 C51.762,23.151 50.45,21.839 48.831,21.839 C47.212,21.839 45.9,23.151 45.9,24.77 L45.9,24.777 C45.9,25.047 46.203,25.209 46.433,25.067 C47.131,24.636 47.951,24.387 48.831,24.387 C49.711,24.387 50.532,24.636 51.229,25.067" id="Fill-140" fill="#2D2E2B"></path>
        <path d="M30.305,25.067 C30.535,25.209 30.838,25.047 30.839,24.777 L30.839,24.77 C30.839,23.151 29.526,21.839 27.908,21.839 C26.289,21.839 24.976,23.151 24.976,24.77 L24.976,24.777 C24.977,25.047 25.28,25.209 25.51,25.067 C26.207,24.636 27.028,24.387 27.908,24.387 C28.787,24.387 29.608,24.636 30.305,25.067" id="Fill-141" fill="#2D2E2B"></path>
        <path d="M38.491,38.035 C34.777,38.035 31.101,36.6 28.408,34.096 C27.969,33.688 27.944,33.002 28.352,32.563 C28.762,32.122 29.45,32.1 29.885,32.506 C32.182,34.64 35.319,35.865 38.491,35.865 C41.548,35.865 44.604,34.714 46.873,32.708 C47.321,32.312 48.007,32.351 48.405,32.802 C48.802,33.251 48.76,33.937 48.31,34.334 C45.611,36.72 42.123,38.035 38.491,38.035" id="Fill-142" fill="#2D2E2B"></path>
    </g>
</svg>