<svg id="Capa_1" enable-background="new 0 0 510 510" height="512" viewBox="0 0 510 510" width="512" xmlns="http://www.w3.org/2000/svg" xmlns:xlink="http://www.w3.org/1999/xlink"><linearGradient id="lg1"><stop offset="0" stop-color="#e19974"/><stop offset="1" stop-color="#8c3d27"/></linearGradient><linearGradient id="SVGID_1_" gradientUnits="userSpaceOnUse" x1="70.959" x2="439.041" xlink:href="#lg1" y1="255" y2="255"/><linearGradient id="SVGID_2_" gradientUnits="userSpaceOnUse" x1="-7" x2="394.36" xlink:href="#lg1" y1="474.504" y2="474.504"/><linearGradient id="SVGID_3_" gradientUnits="userSpaceOnUse" x1="-7" x2="394.36" xlink:href="#lg1" y1="93.756" y2="93.756"/><linearGradient id="SVGID_4_" gradientUnits="userSpaceOnUse" x1="-7" x2="394.36" xlink:href="#lg1" y1="344.496" y2="344.496"/><linearGradient id="lg2"><stop offset="0" stop-color="#766e6e"/><stop offset=".1978" stop-color="#676464"/><stop offset=".4488" stop-color="#5a5a5a"/><stop offset=".482" stop-color="#575858"/><stop offset=".799" stop-color="#404d4d"/><stop offset="1" stop-color="#384949"/></linearGradient><linearGradient id="SVGID_5_" gradientUnits="userSpaceOnUse" x1="180.214" x2="247.281" xlink:href="#lg2" y1="110.667" y2="110.667"/><linearGradient id="SVGID_6_" gradientUnits="userSpaceOnUse" x1="284.047" x2="351.114" xlink:href="#lg2" y1="110.667" y2="110.667"/><linearGradient id="SVGID_7_" gradientUnits="userSpaceOnUse" x1="196" x2="269.482" y1="180.638" y2="180.638"><stop offset="0" stop-color="#ffc2b5"/><stop offset=".2441" stop-color="#ffbbb3"/><stop offset=".6097" stop-color="#ffa6af"/><stop offset="1" stop-color="#ff89a8"/></linearGradient><linearGradient id="SVGID_8_" gradientUnits="userSpaceOnUse" x1="232.13" x2="299.197" y1="245.333" y2="245.333"><stop offset="0" stop-color="#fe646f"/><stop offset=".5213" stop-color="#e41f2d"/><stop offset="1" stop-color="#c41926"/></linearGradient><linearGradient id="SVGID_9_" gradientUnits="userSpaceOnUse" x1="232.13" x2="299.197" y1="322.872" y2="322.872"><stop offset="0" stop-color="#fef056"/><stop offset=".5213" stop-color="#f4d902"/><stop offset="1" stop-color="#fe9738"/></linearGradient><linearGradient id="SVGID_10_" gradientUnits="userSpaceOnUse" x1="232.13" x2="299.197" y1="400.41" y2="400.41"><stop offset="0" stop-color="#97d729"/><stop offset=".5652" stop-color="#02905d"/><stop offset=".9955" stop-color="#026841"/></linearGradient><linearGradient id="lg3"><stop offset="0" stop-color="#ffdcbd"/><stop offset=".0028" stop-color="#ffdcbd"/><stop offset="1" stop-color="#ffa9b1"/></linearGradient><linearGradient id="SVGID_11_" gradientUnits="userSpaceOnUse" x1="84.572" x2="449.843" xlink:href="#lg3" y1="450.761" y2="450.761"/><linearGradient id="SVGID_12_" gradientUnits="userSpaceOnUse" x1="84.572" x2="449.843" xlink:href="#lg3" y1="230.247" y2="230.247"/><linearGradient id="SVGID_13_" gradientUnits="userSpaceOnUse" x1="84.572" x2="449.843" xlink:href="#lg3" y1="450.764" y2="450.764"/><linearGradient id="SVGID_14_" gradientUnits="userSpaceOnUse" x1="84.572" x2="449.843" xlink:href="#lg3" y1="230.246" y2="230.246"/><linearGradient id="lg4"><stop offset="0" stop-color="#ffc2b5"/><stop offset="1" stop-color="#ff89a8"/></linearGradient><linearGradient id="SVGID_15_" gradientUnits="userSpaceOnUse" x1="293.468" x2="376.684" xlink:href="#lg4" y1="184.2" y2="184.2"/><linearGradient id="SVGID_16_" gradientUnits="userSpaceOnUse" x1="242.229" x2="440.035" xlink:href="#lg4" y1="239.075" y2="239.075"/><linearGradient id="SVGID_17_" gradientUnits="userSpaceOnUse" x1="294.055" x2="403.224" xlink:href="#lg4" y1="438.345" y2="438.345"/><linearGradient id="SVGID_18_" gradientUnits="userSpaceOnUse" x1="181.03" x2="316.615" xlink:href="#lg4" y1="474.25" y2="474.25"/><g><path d="m354.844 186.57c12.727-19.05 20.153-41.943 20.153-66.573 0-66.273-53.725-119.997-119.997-119.997s-119.997 53.724-119.997 119.997c0 24.636 7.429 47.535 20.162 66.588l-.271-.137-8.038-.893-5.924-4.76c-4.568-1.193-9.283-1.807-14-1.807-17.723 0-34.52 8.561-44.937 22.908l-.439.606c-9.518 13.109-12.833 29.672-9.095 45.443 1.716 7.237 4.506 14.21 9.097 19.828l8.21 3.013 3.586 8.913c2.391 1.777 4.939 3.371 7.626 4.76 17.823 9.215 36.462 16.844 55.495 22.747.115.043.24.086.381.129 6.308 1.948 10.546 7.665 10.546 14.227v2.006c0 .716-.043 1.388-.127 1.997-4.337 31.168-15.169 60.617-32.239 87.687l-1.536 8.248-6.854 4.574c-12.901 22.24-9.091 50.233 9.828 68.153l.539.513c10.387 9.843 23.965 15.26 38.242 15.26h.001c1.179 0 2.353-.041 3.52-.116 1.049.059 2.102.098 3.16.098 17.307 0 33.58-8.062 44.037-21.691l2.152-8.167 9.856-9.929c6.228-10.118 11.91-20.532 17.019-31.189 5.109 10.656 10.791 21.069 17.018 31.187l11.732 10.431.285 7.677c10.458 13.622 26.726 21.681 44.029 21.681 1.058 0 2.111-.039 3.16-.098 1.168.074 2.341.115 3.52.116h.001c14.277 0 27.855-5.417 38.241-15.261l.539-.513c18.811-17.818 22.685-45.593 10.049-67.77l-6.574-4.956-2.038-8.253c-17.068-27.069-27.9-56.516-32.236-87.682-.084-.609-.127-1.28-.127-1.997v-2.006c0-6.562 4.238-12.279 10.546-14.227 19.195-5.927 38.052-13.656 56.048-22.976 2.626-1.36 5.119-2.918 7.461-4.652l6.012-9.662 5.798-2.256c4.254-5.858 7.366-12.565 9.077-19.792 3.737-15.787.416-32.366-9.111-45.488l-.46-.634c-10.41-14.329-27.207-22.885-44.93-22.885-4.707 0-9.413.611-13.971 1.799l-7.006 4.553-6.96 1.096z" fill="url(#SVGID_1_)"/><g><path d="m187.485 486.195c-7.098 10.209-17.335 17.595-28.926 21.234 5.346 1.683 10.962 2.571 16.695 2.571h.001c1.179 0 2.353-.041 3.52-.116 1.049.059 2.102.098 3.16.098 17.307 0 33.58-8.062 44.037-21.691l2.152-8.167 9.856-9.929c6.228-10.118 11.91-20.532 17.019-31.189h-.652c-23.212 0-44.616 12.173-56.833 31.911-3.2 5.174-6.545 10.268-10.029 15.278z" fill="url(#SVGID_2_)"/><path d="m255 0c-6.819 0-13.502.578-20.01 1.67 56.746 9.527 99.987 58.873 99.987 118.327 0 12.589-1.94 28.035-5.536 42.672-3.722 15.15 10.501 28.558 25.391 23.905l.012-.004c12.727-19.05 20.153-41.943 20.153-66.573 0-66.273-53.725-119.997-119.997-119.997z" fill="url(#SVGID_3_)"/><path d="m428.43 202.51-.46-.634c-10.41-14.329-27.207-22.885-44.93-22.885-4.707 0-9.413.611-13.971 1.799l-10.845 4.504-3.121 1.147c-.086.043-.172.086-.258.129 36.932-5.757 54.968 39.098 46.823 64.096-5 15.343-18.196 26.288-32.494 33.693-17.996 9.319-36.853 17.049-56.048 22.976-6.308 1.948-10.546 7.665-10.546 14.227v2.006c0 .716.043 1.388.127 1.997 4.814 34.597 17.632 67.077 38.1 96.535 15.835 22.786 12.764 53.121-7.301 72.127l-.539.513c-6.215 5.891-13.579 10.182-21.546 12.69 5.32 1.67 10.925 2.554 16.644 2.554 1.058 0 2.111-.039 3.16-.098 1.168.074 2.341.115 3.52.116h.001c14.277 0 27.855-5.417 38.241-15.261l.539-.513c18.81-17.817 22.685-45.589 10.051-67.766l-4.993-3.044-3.625-10.175c-17.066-27.067-27.896-56.512-32.232-87.676-.084-.609-.127-1.28-.127-1.997v-2.006c0-6.562 4.238-12.279 10.546-14.227 19.195-5.927 38.052-13.656 56.048-22.976 2.626-1.36 5.119-2.918 7.461-4.652l6.012-7.875 5.798-4.044c4.254-5.858 7.366-12.565 9.077-19.792 3.736-15.787.416-32.366-9.112-45.488z" fill="url(#SVGID_4_)"/></g><g><circle cx="203.083" cy="110.667" fill="url(#SVGID_5_)" r="24.713"/><circle cx="306.917" cy="110.667" fill="url(#SVGID_6_)" r="24.713"/></g><path d="m255 197.783c-16.543 0-32.568-7.74-45.121-21.794-2.76-3.089-2.492-7.83.597-10.589 3.088-2.759 7.83-2.493 10.589.597 9.81 10.981 21.544 16.786 33.935 16.786s24.125-5.805 33.935-16.786c2.759-3.09 7.501-3.356 10.589-.597 3.089 2.759 3.357 7.5.597 10.589-12.553 14.054-28.578 21.794-45.121 21.794z" fill="url(#SVGID_7_)"/><g><circle cx="255" cy="245.333" fill="url(#SVGID_8_)" r="24.713"/><circle cx="255" cy="322.872" fill="url(#SVGID_9_)" r="24.713"/><circle cx="255" cy="400.41" fill="url(#SVGID_10_)" r="24.713"/></g><g><path d="m210.462 465.264c-7.715-9.978-20.281-15.183-32.846-13.582-10.164 1.299-19.861-5.156-22.601-15.023l-.038-.142c-2.821-10.41-10.254-18.935-19.963-23.276-1.879 2.98-3.811 5.939-5.841 8.86-.905 1.302-1.739 2.631-2.521 3.978 6.685 2.086 11.934 7.467 13.813 14.24l.038.143c4.244 15.659 18.627 26.381 34.557 26.38 1.491 0 2.999-.094 4.509-.287 7.264-.929 14.55 2.095 19.05 7.916 6.735 8.711 16.91 13.515 27.339 13.811.526-.686 1.051-1.372 1.547-2.086 3.646-5.243 7.129-10.584 10.465-16.004-.253.137-.511.26-.761.404-8.932 5.128-20.423 2.849-26.747-5.332z" fill="url(#SVGID_11_)"/><path d="m418.177 255.011-.087-.068c-5.789-4.476-8.811-11.766-7.878-19.081 2.245-17.599-8.976-34.37-26.1-39.01l-.075-.02c-7.016-1.921-12.56-7.448-14.503-14.454l-.038-.143c-.13-.481-.278-.974-.428-1.445-3.991 1.04-7.87 2.522-11.539 4.422-.805.417-1.616.822-2.427 1.228 3.373 12.078 12.949 21.602 25.065 24.885l.075.02c9.906 2.712 16.391 12.427 15.084 22.675-1.597 12.511 3.611 25.076 13.534 32.747l.086.068c4.215 3.258 6.844 7.907 7.706 12.869 4.541-3.361 8.506-7.393 11.798-11.925-2.328-4.887-5.778-9.292-10.273-12.768z" fill="url(#SVGID_12_)"/><path d="m374.984 413.238c-9.702 4.337-17.14 12.868-19.967 23.299-2.692 9.935-12.415 16.439-22.689 15.137-12.51-1.6-25.074 3.611-32.814 13.621-6.301 8.15-17.789 10.427-26.724 5.299-.25-.143-.508-.267-.761-.404 3.336 5.42 6.819 10.762 10.465 16.004.498.716 1.025 1.406 1.554 2.095 10.43-.3 20.608-5.122 27.357-13.852 4.476-5.789 11.77-8.814 19.08-7.877 1.504.191 2.999.285 4.483.285 15.892-.001 30.285-10.727 34.533-26.407 1.848-6.824 7.112-12.253 13.846-14.36-.781-1.348-1.617-2.677-2.521-3.978-2.03-2.922-3.963-5.881-5.842-8.862z" fill="url(#SVGID_13_)"/><path d="m129.831 211.326c12.107-3.28 21.677-12.792 25.063-24.878-.816-.409-1.633-.817-2.443-1.236-3.664-1.897-7.535-3.377-11.519-4.417-.151.477-.302.976-.434 1.463-1.918 7.081-7.509 12.671-14.609 14.595-17.125 4.64-28.347 21.41-26.094 39.065.925 7.259-2.097 14.55-7.917 19.05-4.511 3.488-7.972 7.901-10.308 12.792 3.29 4.531 7.247 8.568 11.782 11.937.866-4.964 3.503-9.617 7.733-12.887 9.977-7.714 15.184-20.278 13.581-32.845-1.302-10.212 5.209-19.942 15.165-22.639z" fill="url(#SVGID_14_)"/></g><g><path d="m369.5 182.24c-.13-.48-.28-.98-.43-1.45-3.99 1.04-7.87 2.52-11.54 4.42-.81.42-1.62.82-2.43 1.23.01.03.02.06.03.09 6.09-.91 11.66-.44 16.68 1.08-.99-1.61-1.76-3.37-2.28-5.23z" fill="url(#SVGID_15_)"/><path d="m418.18 255.01-.09-.07c-5.79-4.47-8.81-11.76-7.88-19.08 2.04-15.96-7-31.24-21.48-37.41 13.07 14.01 17.94 36.86 12.94 52.22-.59 1.81-1.29 3.56-2.11 5.25 2.31 4.16 5.45 7.88 9.3 10.85l.09.06c4.21 3.26 6.84 7.91 7.7 12.87.01 0 .01-.01.02-.01 4.52-3.35 8.47-7.36 11.75-11.87.01-.01.02-.03.03-.04-2.33-4.89-5.78-9.29-10.27-12.77z" fill="url(#SVGID_16_)"/></g><path d="m383.35 426.08c-.08.03-.17.05-.25.09-6.62 2.16-11.77 7.54-13.6 14.27-2.83 10.44-10.15 18.68-19.42 23.01 1.05-6.01 1.09-12.18.11-18.25 2.24-2.39 3.93-5.33 4.83-8.66 2.82-10.42 10.25-18.95 19.94-23.29.01 0 .01-.01.02-.01 1.88 2.98 3.82 5.94 5.85 8.86.9 1.3 1.74 2.63 2.52 3.98z" fill="url(#SVGID_17_)"/><path d="m237.97 470.19c-.01.02-.02.03-.03.05-3.33 5.4-6.8 10.73-10.43 15.96-.49.7-1.01 1.38-1.53 2.05 0 .01-.01.02-.02.03-10.43-.29-20.61-5.1-27.34-13.81-.61-.79-1.27-1.52-1.97-2.19.3-.45.58-.9.86-1.36 2.4-3.87 5.14-7.45 8.2-10.7 1.73 1.51 3.32 3.19 4.75 5.04 6.33 8.19 17.82 10.46 26.75 5.33.25-.14.51-.26.76-.4z" fill="url(#SVGID_18_)"/></g></svg>