<svg id="Capa_1" enable-background="new 0 0 510 510" height="512" viewBox="0 0 510 510" width="512" xmlns="http://www.w3.org/2000/svg" xmlns:xlink="http://www.w3.org/1999/xlink"><linearGradient id="lg1"><stop offset="0" stop-color="#97d729"/><stop offset=".5652" stop-color="#02905d"/><stop offset=".9955" stop-color="#026841"/></linearGradient><linearGradient id="SVGID_1_" gradientUnits="userSpaceOnUse" x1="-59.335" x2="429.507" xlink:href="#lg1" y1="371.057" y2="371.057"/><linearGradient id="SVGID_2_" gradientUnits="userSpaceOnUse" x1="-266.335" x2="382.776" xlink:href="#lg1" y1="371.055" y2="371.055"/><linearGradient id="SVGID_3_" gradientUnits="userSpaceOnUse" x1="32.665" x2="447.344" xlink:href="#lg1" y1="271.815" y2="271.815"/><linearGradient id="SVGID_4_" gradientUnits="userSpaceOnUse" x1="-20.001" x2="402.028" xlink:href="#lg1" y1="271.815" y2="271.815"/><linearGradient id="SVGID_5_" gradientUnits="userSpaceOnUse" x1="150.155" x2="392.881" xlink:href="#lg1" y1="162.979" y2="162.979"/><linearGradient id="SVGID_6_" gradientUnits="userSpaceOnUse" x1="43.999" x2="410.011" xlink:href="#lg1" y1="162.98" y2="162.98"/><linearGradient id="lg2"><stop offset="0" stop-color="#62dbfb"/><stop offset=".4361" stop-color="#01d0fb"/><stop offset=".5962" stop-color="#01b9fb"/><stop offset=".9305" stop-color="#017ffb"/><stop offset="1" stop-color="#0172fb"/></linearGradient><linearGradient id="SVGID_7_" gradientUnits="userSpaceOnUse" x1="168" x2="263.159" xlink:href="#lg2" y1="216.169" y2="216.169"/><linearGradient id="SVGID_8_" gradientUnits="userSpaceOnUse" x1="154.5" x2="255.02" xlink:href="#lg2" y1="216.169" y2="216.169"/><linearGradient id="lg3"><stop offset="0" stop-color="#fe646f"/><stop offset=".5213" stop-color="#e41f2d"/><stop offset="1" stop-color="#c41926"/></linearGradient><linearGradient id="SVGID_9_" gradientUnits="userSpaceOnUse" x1="278.367" x2="368.223" xlink:href="#lg3" y1="336.816" y2="336.816"/><linearGradient id="SVGID_10_" gradientUnits="userSpaceOnUse" x1="242.351" x2="348.847" xlink:href="#lg3" y1="336.816" y2="336.816"/><linearGradient id="lg4"><stop offset="0" stop-color="#fef056"/><stop offset=".5213" stop-color="#f4d902"/><stop offset="1" stop-color="#fe9738"/></linearGradient><linearGradient id="SVGID_11_" gradientUnits="userSpaceOnUse" x1="142.148" x2="232.005" xlink:href="#lg4" y1="452.931" y2="452.931"/><linearGradient id="SVGID_12_" gradientUnits="userSpaceOnUse" x1="106.133" x2="234.1" xlink:href="#lg4" y1="452.931" y2="452.931"/><linearGradient id="lg5"><stop offset="0" stop-color="#eaf6ff"/><stop offset=".5213" stop-color="#d8ecfe"/><stop offset="1" stop-color="#b3dafe"/></linearGradient><linearGradient id="SVGID_13_" gradientUnits="userSpaceOnUse" x1="175.632" x2="242.699" xlink:href="#lg5" y1="339.478" y2="339.478"/><linearGradient id="SVGID_14_" gradientUnits="userSpaceOnUse" x1="290.97" x2="358.037" xlink:href="#lg5" y1="452.931" y2="452.931"/><linearGradient id="SVGID_15_" gradientUnits="userSpaceOnUse" x1="241.544" x2="308.612" xlink:href="#lg5" y1="162.979" y2="162.979"/><linearGradient id="SVGID_16_" gradientUnits="userSpaceOnUse" x1="189.499" x2="317.034" xlink:href="#lg4" y1="66.617" y2="66.617"/><linearGradient id="SVGID_17_" gradientUnits="userSpaceOnUse" x1="160.249" x2="317.363" xlink:href="#lg4" y1="66.617" y2="66.617"/><g><path d="m435.836 438.163c-60.056-49.426-108.415-111.389-141.76-181.417-7.142-14.999-22.186-24.631-38.799-24.632h-.555c-16.613 0-31.657 9.632-38.8 24.632-33.345 70.027-81.704 131.99-141.76 181.416-16.229 13.356-17.412 37.792-2.55 52.655l11.261 11.261c10.562 10.562 27.688 10.562 38.25 0 10.563-10.562 27.688-10.562 38.25 0 10.562 10.562 27.688 10.562 38.25 0 10.562-10.562 27.688-10.562 38.25 0 10.562 10.562 27.688 10.562 38.25 0 10.562-10.562 27.688-10.562 38.25 0 10.562 10.562 27.688 10.562 38.25 0 10.562-10.562 27.688-10.562 38.25 0 10.562 10.562 27.688 10.562 38.25 0l11.261-11.261c14.864-14.862 13.68-39.297-2.548-52.654z" fill="url(#SVGID_1_)"/><path d="m435.839 438.16c-11.71-9.63-22.97-19.74-33.76-30.3-44.58-43.58-81.16-94.74-108-151.11-7.15-15-22.19-24.63-38.8-24.64h-.56c-7.01 0-13.76 1.72-19.74 4.84-8.17 4.26-14.93 11.14-19.06 19.8-26.84 56.37-63.42 107.53-108 151.11l.52.52c9 9 23.58 9 32.57 0 4.5-4.5 10.39-6.74 16.29-6.74 5.89 0 11.78 2.24 16.28 6.74s10.39 6.75 16.28 6.75c5.9 0 11.79-2.25 16.29-6.75 4.49-4.5 10.39-6.74 16.28-6.74s11.79 2.24 16.29 6.74 10.39 6.75 16.28 6.75 11.78-2.25 16.28-6.75 10.4-6.74 16.29-6.74 11.79 2.24 16.28 6.74c4.5 4.5 10.39 6.75 16.29 6.75 5.89 0 11.78-2.25 16.28-6.75s10.39-6.74 16.28-6.74h.034c2.025.003 3.946.88 5.378 2.311 11.978 11.968 24.561 23.388 37.708 34.209 16.23 13.36 17.41 37.79 2.55 52.66l-10.4 10.4c.31.27.61.56.91.86 5.28 5.28 12.2 7.92 19.12 7.92s13.84-2.64 19.13-7.92l11.26-11.26c14.86-14.87 13.68-39.3-2.55-52.66z" fill="url(#SVGID_2_)"/><path d="m408.972 328.952c-51.135-42.084-92.309-94.842-120.701-154.466-6.081-12.771-18.89-20.972-33.035-20.972h-.473c-14.145 0-26.954 8.201-33.036 20.972-28.392 59.624-69.566 112.382-120.701 154.466-13.818 11.372-14.826 32.178-2.171 44.832l9.588 9.588c8.993 8.993 23.575 8.993 32.568 0 8.993-8.993 23.575-8.993 32.568 0 8.993 8.993 23.575 8.993 32.568 0 8.993-8.993 23.575-8.993 32.568 0 8.993 8.993 23.575 8.993 32.568 0 8.993-8.993 23.575-8.993 32.568 0 8.993 8.993 23.575 8.993 32.568 0 8.993-8.993 23.575-8.993 32.568 0 8.993 8.993 23.575 8.993 32.568 0l9.588-9.588c12.654-12.654 11.646-33.46-2.171-44.832z" fill="url(#SVGID_3_)"/><path d="m408.969 328.95c-15.12-12.44-29.36-25.81-42.65-40.02-31.71-33.85-58.05-72.44-78.05-114.44-6.08-12.78-18.89-20.98-33.03-20.98h-.48c-7.17 0-13.99 2.11-19.77 5.85-5.63 3.64-10.26 8.83-13.26 15.13-20 42-46.34 80.59-78.05 114.44l2.9 2.91c6.65 6.65 17.44 6.65 24.09 0 3.33-3.33 7.69-5 12.05-5s8.72 1.67 12.05 5c3.33 3.32 7.69 4.99 12.05 4.99s8.72-1.67 12.04-4.99c3.32-3.33 7.68-5 12.04-5s8.72 1.67 12.05 5c3.33 3.32 7.69 4.99 12.05 4.99s8.72-1.67 12.05-4.99c3.33-3.33 7.69-5 12.05-5s8.72 1.67 12.04 5c3.32 3.32 7.68 4.99 12.04 4.99s8.72-1.67 12.05-4.99l.079-.079c3.893-3.844 10.252-3.572 14.028.387 12.413 13.016 25.641 25.308 39.613 36.801 13.82 11.37 14.83 32.18 2.17 44.83l-6.29 6.3c1.48.91 2.88 2.01 4.16 3.29 4.49 4.5 10.39 6.75 16.28 6.75s11.79-2.25 16.29-6.75l9.58-9.59c12.66-12.649 11.65-33.459-2.17-44.829z" fill="url(#SVGID_4_)"/><path d="m368.904 226.567c-42.206-34.736-75.24-79.302-96.201-129.785l-17.704-42.64-17.704 42.639c-20.961 50.483-53.995 95.049-96.201 129.785-10.222 8.413-10.968 23.805-1.606 33.166l7.093 7.093c6.653 6.653 17.44 6.653 24.093 0 6.653-6.653 17.44-6.653 24.093 0 6.653 6.653 17.44 6.653 24.093 0 6.653-6.653 17.44-6.653 24.093 0 6.653 6.653 17.44 6.653 24.093 0 6.653-6.653 17.44-6.653 24.093 0 6.653 6.653 17.44 6.653 24.093 0 6.653-6.653 17.44-6.653 24.093 0 6.653 6.653 17.44 6.653 24.093 0l7.093-7.093c9.36-9.361 8.615-24.752-1.607-33.165z" fill="url(#SVGID_5_)"/><path d="m370.509 259.73-7.09 7.1c-3.32 3.33-7.68 4.99-12.04 4.99s-8.72-1.66-12.05-4.99c-3.06-3.06-6.99-4.71-10.99-4.95l2.15-2.15c9.36-9.36 8.62-24.75-1.6-33.16-11.907-9.799-23.083-20.382-33.465-31.659-13.627-14.802-29.617-27.016-46.193-38.418-2.057-1.415-3.604-3.689-4.022-6.823l-.33-2.48c-1.55-11.6-10.76-19.89-21.42-21.2 4.16-7.76 8-15.7 11.53-23.79.79-1.8 1.56-3.61 2.31-5.42l17.7-42.64 17.7 42.64c4.14 9.98 8.76 19.73 13.84 29.21 20.55 38.51 48.5 72.71 82.37 100.58 10.22 8.41 10.96 23.8 1.6 33.16z" fill="url(#SVGID_6_)"/><g><circle cx="223.214" cy="216.169" fill="url(#SVGID_7_)" r="35.473"/><path d="m223.214 180.697c-3.296 0-6.483.459-9.511 1.3 14.97 4.158 25.962 17.877 25.962 34.172s-10.992 30.014-25.962 34.173c3.028.841 6.215 1.3 9.511 1.3 19.591 0 35.473-15.882 35.473-35.473-.001-19.591-15.882-35.472-35.473-35.472z" fill="url(#SVGID_8_)"/></g><g><circle cx="313.839" cy="336.816" fill="url(#SVGID_9_)" r="35.473"/><path d="m313.839 301.343c-3.296 0-6.483.459-9.511 1.3 14.97 4.158 25.962 17.877 25.962 34.172s-10.992 30.014-25.962 34.173c3.028.841 6.215 1.3 9.511 1.3 19.591 0 35.473-15.882 35.473-35.473 0-19.59-15.882-35.472-35.473-35.472z" fill="url(#SVGID_10_)"/></g><g><circle cx="177.62" cy="452.931" fill="url(#SVGID_11_)" r="35.473"/><path d="m177.62 417.459c-3.296 0-6.483.459-9.511 1.3 14.97 4.158 25.962 17.877 25.962 34.172s-10.992 30.014-25.962 34.173c3.028.841 6.215 1.3 9.511 1.3 19.591 0 35.473-15.882 35.473-35.473s-15.882-35.472-35.473-35.472z" fill="url(#SVGID_12_)"/></g><circle cx="198.501" cy="339.478" fill="url(#SVGID_13_)" r="24.713"/><circle cx="313.839" cy="452.931" fill="url(#SVGID_14_)" r="24.713"/><circle cx="264.414" cy="162.979" fill="url(#SVGID_15_)" r="24.713"/><path d="m310.456 46.885c9.24-6.902 1.182-21.343-9.544-17.104l-2.325.919c-14.89 5.886-31.349-3.778-33.465-19.648l-.33-2.478c-1.524-11.432-18.062-11.432-19.586 0l-.33 2.478c-2.116 15.87-18.575 25.534-33.465 19.648l-2.325-.919c-10.726-4.24-18.784 10.202-9.544 17.104 13.187 9.849 13.187 29.613 0 39.462-9.24 6.902-1.182 21.343 9.544 17.104l2.325-.919c14.89-5.886 31.349 3.778 33.465 19.648l.33 2.478c1.524 11.432 18.062 11.432 19.586 0l.33-2.478c2.116-15.87 18.575-25.534 33.465-19.648l2.325.919c10.726 4.24 18.784-10.202 9.544-17.104-13.187-9.848-13.187-29.612 0-39.462z" fill="url(#SVGID_16_)"/><path d="m310.456 86.348c-13.187-9.849-13.187-29.613 0-39.462.264-.197.514-.401.751-.61 8.027-7.102.124-20.612-10.295-16.494l-2.325.919c-14.89 5.885-31.348-3.778-33.465-19.649l-.33-2.478c-1.524-11.432-18.062-11.432-19.586 0l-.33 2.478c-.152 1.14-.378 2.247-.672 3.319-2.945 10.727 7.586 20.405 17.977 16.436.092-.035.183-.071.275-.107l2.325-.919c5.081-2.009 9.564.176 11.893 3.765 2.586 3.987 2.514 9.707-2.348 13.339-13.187 9.849-13.187 29.613 0 39.462 9.24 6.902 1.182 21.344-9.544 17.104l-2.325-.919c-.091-.036-.183-.072-.275-.107-10.392-3.97-20.923 5.709-17.978 16.436.294 1.072.52 2.179.672 3.319l.33 2.478c1.524 11.432 18.062 11.432 19.586 0l.33-2.478c2.116-15.87 18.575-25.534 33.464-19.649l2.325.919c10.727 4.241 18.786-10.2 9.545-17.102z" fill="url(#SVGID_17_)"/></g></svg>