<svg id="Capa_1" enable-background="new 0 0 510 510" height="512" viewBox="0 0 510 510" width="512" xmlns="http://www.w3.org/2000/svg" xmlns:xlink="http://www.w3.org/1999/xlink"><linearGradient id="lg1"><stop offset="0" stop-color="#97d729"/><stop offset=".5652" stop-color="#02905d"/><stop offset=".9955" stop-color="#026841"/></linearGradient><linearGradient id="SVGID_1_" gradientUnits="userSpaceOnUse" x1="32.842" x2="601.475" xlink:href="#lg1" y1="255" y2="255"/><linearGradient id="SVGID_2_" gradientUnits="userSpaceOnUse" x1="-31" x2="448.818" xlink:href="#lg1" y1="255" y2="255"/><linearGradient id="lg2"><stop offset="0" stop-color="#fef056"/><stop offset=".5213" stop-color="#f4d902"/><stop offset="1" stop-color="#fe9738"/></linearGradient><linearGradient id="SVGID_3_" gradientUnits="userSpaceOnUse" x1="100" x2="406.713" xlink:href="#lg2" y1="297.599" y2="297.599"/><linearGradient id="SVGID_4_" gradientUnits="userSpaceOnUse" x1="-59" x2="367.011" xlink:href="#lg2" y1="332.418" y2="332.418"/><g><path d="m496.92 468.69-43.57-105.8c-3.79-9.21-5.74-19.08-5.74-29.04v-311.72c0-9.84-8.89-17.28-18.59-15.58-3.42.6-6.94.91-10.53.91-7.59 0-14.85-1.39-21.54-3.92-12.46-4.72-26.21-4.72-38.67 0-6.69 2.53-13.95 3.92-21.54 3.92-7.58 0-14.84-1.39-21.54-3.92-12.45-4.72-26.21-4.72-38.66 0-6.7 2.53-13.96 3.92-21.54 3.92s-14.84-1.39-21.54-3.92c-12.45-4.72-26.21-4.72-38.66 0-6.7 2.53-13.96 3.92-21.54 3.92-7.59 0-14.85-1.39-21.54-3.92-12.46-4.72-26.21-4.72-38.67 0-6.69 2.53-13.95 3.92-21.54 3.92-3.59 0-7.11-.31-10.53-.91-9.7-1.7-18.59 5.74-18.59 15.58v311.72c0 9.96-1.95 19.83-5.74 29.04l-43.57 105.8c-8.11 19.69 6.37 41.31 27.67 41.31h428.5c21.3 0 35.78-21.62 27.67-41.31zm-162.25-376.24c0 8.08-6.55 14.63-14.64 14.63h-130.06c-8.09 0-14.64-6.55-14.64-14.63v-31.26c0-7.97 6.38-14.61 14.35-14.63h.16c5.01 0 9.85.76 14.4 2.17 11.87 3.69 24.48 3.69 36.35 0 4.56-1.41 9.39-2.17 14.41-2.17s9.86.76 14.41 2.17c11.87 3.69 24.48 3.69 36.35 0 4.55-1.41 9.39-2.17 14.4-2.17h.16c7.97.02 14.35 6.66 14.35 14.63z" fill="url(#SVGID_1_)"/><g><path d="m496.92 468.69-43.57-105.8c-3.79-9.21-5.74-19.08-5.74-29.04v-311.72c0-9.85-8.893-17.28-18.595-15.579-3.418.599-6.937.909-10.525.909-7.59 0-14.85-1.39-21.54-3.92-12.46-4.72-26.21-4.72-38.67 0-.223.084-.451.157-.675.238 6.504 2.372 13.528 3.682 20.865 3.682 3.588 0 7.106-.31 10.525-.909 9.702-1.701 18.595 5.729 18.595 15.579v314.935h-55.205c6.949-7.828 10.903-17.939 10.959-28.797l.002-.669-.002-.634c-.081-15.667-8.224-29.761-21.78-37.702-2.433-1.425-4.957-2.591-7.534-3.521l13.979-7.745 36.041 10.344c.691.198 1.388.293 2.073.293 3.379 0 6.48-2.303 7.301-5.799.923-3.936-1.609-7.871-5.495-8.986l-21.363-6.131 25.346-14.042c3.337-1.849 4.981-5.894 3.565-9.436-1.713-4.282-6.711-5.968-10.613-3.807l-25.566 14.164 6.119-21.322c1.132-3.945-.919-8.258-4.828-9.51-4.047-1.296-8.339 1.015-9.504 5.072l-10.344 36.041-13.962 7.735c.578-2.667.929-5.412 1.015-8.217.477-15.658-7.098-30.009-20.263-38.39-2.052-1.306-4.171-2.566-6.298-3.745-13.883-7.691-30.326-7.48-43.983.568-2.433 1.433-4.682 3.072-6.749 4.875v-15.995l26.292-26.292c2.904-2.904 3.198-7.673.383-10.662-2.913-3.094-7.784-3.15-10.769-.166l-15.907 15.905v-28.914c0-4.107-3.164-7.688-7.269-7.811-4.247-.128-7.731 3.278-7.731 7.497v29.229l-15.684-15.684c-2.904-2.904-7.674-3.199-10.664-.384-3.094 2.913-3.149 7.784-.166 10.767l26.514 26.514v15.996c-2.067-1.803-4.316-3.442-6.749-4.875-13.659-8.048-30.101-8.259-43.984-.568-2.13 1.181-4.249 2.44-6.296 3.744-13.166 8.381-20.741 22.732-20.263 38.39.086 2.806.437 5.551 1.014 8.218l-13.962-7.735-10.257-35.738c-1.133-3.947-5.162-6.517-9.142-5.503-4.118 1.049-6.526 5.283-5.363 9.338l6.206 21.623-25.292-14.012c-3.592-1.99-8.258-.957-10.355 2.574-2.17 3.654-.879 8.351 2.811 10.395l25.567 14.164-21.364 6.131c-3.886 1.115-6.419 5.051-5.495 8.988.821 3.496 3.921 5.798 7.301 5.798.685 0 1.381-.095 2.072-.293l21.194-6.083c9.507-2.728 19.707-1.568 28.359 3.224l.468.259c-2.578.93-5.101 2.096-7.534 3.521-13.558 7.941-21.7 22.035-21.781 37.703l-.001.632.001.634c.081 15.667 8.223 29.761 21.781 37.702 2.435 1.426 4.96 2.588 7.539 3.518l-13.985 7.748-36.042-10.344c-4.055-1.163-8.289 1.245-9.338 5.362-1.014 3.98 1.555 8.01 5.503 9.142l21.321 6.119-25.344 14.041c-3.418 1.894-5.036 6.084-3.471 9.665 1.258 2.878 4.027 4.52 6.89 4.52 1.229 0 2.476-.303 3.628-.941l25.567-14.164-6.135 21.376c-1.096 3.82.81 7.989 4.543 9.353.863.315 1.74.465 2.599.465 3.26 0 6.261-2.143 7.206-5.433l10.344-36.041 13.962-7.735c-.578 2.667-.929 5.412-1.014 8.218-.478 15.658 7.098 30.009 20.262 38.39 2.048 1.304 4.167 2.563 6.298 3.745 6.771 3.751 14.147 5.622 21.515 5.622 7.741 0 15.472-2.066 22.469-6.189 2.432-1.433 4.681-3.072 6.749-4.875v7.052c0 5.727-2.275 11.219-6.324 15.268l-19.962 19.962c-2.99 2.99-3.155 8.048-.093 10.964 1.446 1.377 3.308 2.066 5.169 2.066 1.919 0 3.839-.732 5.303-2.197l15.907-15.907v28.914c0 4.107 3.165 7.688 7.27 7.811 4.247.127 7.73-3.278 7.73-7.497v-29.229l15.907 15.907c2.984 2.983 7.853 2.928 10.768-.165 2.816-2.989 2.523-7.759-.381-10.662l-26.296-26.294v-15.995c2.067 1.803 4.316 3.442 6.749 4.875 6.998 4.124 14.728 6.189 22.469 6.189 7.367 0 14.745-1.871 21.515-5.622 2.127-1.179 4.246-2.438 6.297-3.744 13.166-8.381 20.74-22.732 20.264-38.39-.086-2.806-.437-5.551-1.015-8.217l1.317.73c8.096 4.485 14.079 12.003 16.633 20.9l6.356 22.146c.944 3.291 3.944 5.433 7.205 5.433.862 0 1.741-.15 2.606-.467 3.73-1.367 5.631-5.537 4.535-9.355l-6.134-21.371 25.566 14.164c1.152.638 2.398.941 3.628.941 2.864 0 5.634-1.644 6.891-4.523 1.563-3.581-.056-7.77-3.473-9.664l-25.343-14.04c23.65-8.614 49.885 2.959 59.467 26.234l30.867 74.976c8.11 19.69-6.37 41.31-27.67 41.31h40.02c21.3 0 35.78-21.62 27.67-41.31zm-310.394-250.033c1.792-1.141 3.646-2.244 5.511-3.277 9.188-5.091 20.066-4.953 29.1.371 3.425 2.018 6.32 4.633 8.597 7.672-10.426-4.885-22.385-4.528-32.634 1.15h-.001c-1.677.93-3.346 1.922-4.962 2.951-9.683 6.164-15.627 16.305-16.386 27.605-1.545-3.452-2.43-7.236-2.551-11.193-.314-10.317 4.667-19.767 13.326-25.279zm-34.508 114.334c-8.94-5.236-14.309-14.521-14.362-24.834l-.001-.558.001-.557c.053-10.315 5.422-19.6 14.362-24.836 3.422-2.004 7.105-3.264 10.857-3.786-9.217 6.668-14.669 17.143-14.729 28.694l-.001.484.001.499c.06 11.538 5.512 22.013 14.731 28.681-3.753-.521-7.437-1.782-10.859-3.787zm11.128-24.956-.001-.437.001-.422c.038-7.381 3.881-14.025 10.28-17.773 3.313-1.94 6.967-2.913 10.623-2.913 3.48 0 6.962.882 10.153 2.647l4.847 2.685c-1.775 4.93-2.748 10.24-2.748 15.775 0 5.534.973 10.844 2.748 15.775l-4.849 2.686c-.001 0-.001.001-.002.001-6.543 3.619-14.307 3.52-20.772-.267-6.399-3.746-10.242-10.39-10.28-17.757zm57.991 91.412c-9.035 5.322-19.913 5.46-29.1.371-1.865-1.034-3.719-2.136-5.511-3.277 0 0 0 0-.001 0-8.658-5.511-13.64-14.961-13.325-25.278.12-3.957 1.006-7.742 2.551-11.193.758 11.301 6.702 21.442 16.386 27.605 1.616 1.028 3.286 2.021 4.963 2.951 5.499 3.046 11.492 4.566 17.476 4.566 5.169 0 10.326-1.154 15.158-3.417-2.277 3.038-5.172 5.653-8.597 7.672zm14.363-40.212c0 7.48-3.845 14.21-10.284 18.005-6.471 3.811-14.264 3.911-20.845.265-1.413-.783-2.818-1.619-4.18-2.485-6.193-3.942-9.756-10.704-9.531-18.088.228-7.487 4.263-14.118 10.794-17.743l4.889-2.709c7.088 8.976 17.388 15.299 29.156 17.208v5.547zm-24.2-51.636c0-2.895.398-5.697 1.128-8.363l15.095 8.363-15.095 8.363c-.73-2.666-1.128-5.469-1.128-8.363zm24.2 30.796c-6.161-1.501-11.621-4.802-15.79-9.319l15.79-8.747zm0-43.525-15.79-8.747c4.168-4.516 9.629-7.818 15.79-9.319zm0-33.361c-11.768 1.908-22.069 8.231-29.156 17.208l-4.864-2.695-.015-.008c-6.536-3.624-10.575-10.258-10.803-17.748-.225-7.384 3.338-14.146 9.531-18.087 1.361-.866 2.767-1.702 4.179-2.484 6.581-3.647 14.374-3.548 20.846.265 6.439 3.794 10.284 10.525 10.284 18.005v5.544zm29.363-45.758c4.627-2.727 9.737-4.093 14.858-4.093 4.875 0 9.76 1.239 14.241 3.722 1.862 1.031 3.716 2.134 5.511 3.277h.001c8.658 5.511 13.64 14.961 13.325 25.278-.121 3.957-1.006 7.742-2.552 11.193-.759-11.301-6.703-21.442-16.386-27.606-1.611-1.025-3.28-2.018-4.963-2.951-10.247-5.677-22.209-6.035-32.633-1.15 2.278-3.037 5.173-5.652 8.598-7.67zm-14.363 40.212c0-7.48 3.845-14.21 10.284-18.005 3.314-1.953 6.976-2.931 10.644-2.931 3.492 0 6.991.887 10.2 2.666 1.417.785 2.823 1.622 4.179 2.485h.001c6.193 3.942 9.757 10.704 9.531 18.087-.227 7.491-4.266 14.125-10.803 17.749l-4.879 2.703c-7.088-8.977-17.388-15.299-29.156-17.208v-5.546zm24.199 51.636c0 2.895-.398 5.697-1.128 8.363l-15.095-8.363 15.095-8.363c.731 2.666 1.128 5.468 1.128 8.363zm-24.199-30.796c6.16 1.501 11.621 4.802 15.789 9.319l-15.789 8.748zm0 43.525 15.789 8.747c-4.168 4.516-9.629 7.818-15.789 9.319zm0 33.36c11.768-1.908 22.068-8.231 29.156-17.208l4.879 2.703c6.537 3.624 10.576 10.258 10.803 17.749.226 7.383-3.338 14.145-9.532 18.087-1.355.863-2.762 1.699-4.178 2.485-6.584 3.646-14.378 3.545-20.845-.266-6.439-3.794-10.284-10.525-10.284-18.005v-5.545zm48.974 42.852c-1.795 1.143-3.648 2.246-5.511 3.277-9.188 5.091-20.066 4.953-29.1-.371-3.425-2.018-6.321-4.634-8.598-7.672 4.832 2.264 9.988 3.418 15.158 3.418 5.984 0 11.979-1.521 17.477-4.566.001 0 .001-.001.002-.001 1.681-.932 3.351-1.925 4.961-2.95 9.683-6.164 15.627-16.305 16.386-27.606 1.545 3.452 2.431 7.236 2.552 11.193.313 10.317-4.668 19.767-13.327 25.278zm23.38-88.519c-.038 7.381-3.881 14.025-10.279 17.773-6.47 3.789-14.238 3.887-20.783.261l-3.078-1.705-1.763-.977c1.775-4.93 2.748-10.24 2.748-15.775s-.973-10.844-2.748-15.775l1.763-.977 3.078-1.705c6.545-3.626 14.314-3.527 20.783.261 6.398 3.748 10.241 10.392 10.279 17.782l.002.413zm.269 28.758c9.218-6.668 14.67-17.142 14.73-28.672l.002-.508-.002-.499c-.06-11.538-5.512-22.013-14.73-28.681 3.752.522 7.436 1.783 10.859 3.787 8.939 5.236 14.309 14.521 14.361 24.871l.002.521-.002.557c-.053 10.315-5.422 19.6-14.361 24.836-3.422 2.005-7.106 3.266-10.859 3.788zm24.886 20.421-9.268-5.135h27.159z" fill="url(#SVGID_2_)"/></g><path d="m404.132 371.644-25.567-14.164 21.624-6.206c3.981-1.143 6.282-5.296 5.14-9.278-1.144-3.982-5.299-6.281-9.278-5.14l-36.042 10.344-13.985-7.748c2.579-.93 5.105-2.092 7.54-3.518 13.557-7.941 21.699-22.035 21.78-37.667l.002-.669-.002-.634c-.081-15.667-8.224-29.761-21.78-37.702-2.433-1.425-4.957-2.591-7.534-3.52l13.979-7.745 36.041 10.344c.691.198 1.388.293 2.073.293 3.26 0 6.261-2.143 7.205-5.433 1.143-3.981-1.158-8.135-5.14-9.278l-21.624-6.206 25.567-14.164c3.623-2.007 4.933-6.572 2.926-10.195s-6.573-4.932-10.195-2.926l-25.566 14.164 6.206-21.623c1.143-3.981-1.158-8.135-5.14-9.278-3.979-1.141-8.135 1.159-9.278 5.14l-10.344 36.041-13.962 7.735c.578-2.667.929-5.412 1.015-8.217.477-15.658-7.098-30.009-20.263-38.39-2.052-1.306-4.171-2.566-6.298-3.745-13.883-7.691-30.326-7.48-43.983.568-2.433 1.433-4.682 3.072-6.749 4.875v-15.995l26.515-26.514c2.929-2.929 2.929-7.678 0-10.606s-7.677-2.93-10.607 0l-15.908 15.907v-29.229c0-4.142-3.357-7.5-7.5-7.5-4.142 0-7.5 3.358-7.5 7.5v29.229l-15.907-15.907c-2.929-2.929-7.678-2.929-10.606 0-2.929 2.929-2.929 7.678 0 10.606l26.514 26.514v15.996c-2.067-1.803-4.316-3.442-6.749-4.875-13.659-8.048-30.101-8.259-43.984-.568-2.13 1.181-4.249 2.44-6.296 3.744-13.166 8.381-20.741 22.732-20.263 38.39.086 2.806.437 5.551 1.014 8.218l-13.962-7.735-10.344-36.041c-1.143-3.981-5.296-6.284-9.278-5.14-3.981 1.143-6.283 5.296-5.14 9.278l6.206 21.623-25.567-14.164c-3.624-2.007-8.188-.697-10.195 2.926-2.007 3.624-.697 8.188 2.926 10.195l25.567 14.164-21.623 6.206c-3.981 1.143-6.283 5.296-5.14 9.278.944 3.291 3.945 5.433 7.206 5.433.685 0 1.381-.095 2.072-.293l36.042-10.344 13.979 7.745c-2.578.93-5.101 2.096-7.534 3.521-13.558 7.941-21.7 22.035-21.781 37.703l-.001.632.001.634c.081 15.667 8.223 29.761 21.781 37.702 2.435 1.426 4.96 2.588 7.539 3.518l-13.985 7.748-36.042-10.344c-3.981-1.142-8.135 1.159-9.278 5.14s1.159 8.135 5.14 9.278l21.623 6.206-25.567 14.164c-3.623 2.007-4.933 6.572-2.926 10.195 1.37 2.472 3.929 3.867 6.567 3.867 1.229 0 2.476-.303 3.628-.941l25.567-14.164-6.206 21.623c-1.143 3.981 1.159 8.135 5.14 9.278.691.198 1.387.293 2.072.293 3.26 0 6.261-2.143 7.206-5.433l10.344-36.041 13.962-7.735c-.578 2.667-.929 5.412-1.014 8.218-.478 15.658 7.098 30.009 20.262 38.39 2.048 1.304 4.167 2.563 6.298 3.745 6.771 3.751 14.147 5.622 21.515 5.622 7.741 0 15.472-2.066 22.469-6.189 2.432-1.433 4.681-3.072 6.749-4.875v15.996l-26.514 26.514c-2.929 2.929-2.929 7.678 0 10.606 1.464 1.464 3.384 2.197 5.303 2.197s3.839-.732 5.303-2.197l15.907-15.907v29.229c0 4.142 3.358 7.5 7.5 7.5 4.143 0 7.5-3.358 7.5-7.5v-29.229l15.907 15.907c2.93 2.929 7.678 2.929 10.607 0s2.929-7.678 0-10.606l-26.514-26.518v-15.995c2.067 1.803 4.316 3.442 6.749 4.875 6.998 4.124 14.728 6.189 22.469 6.189 7.367 0 14.745-1.871 21.515-5.622 2.127-1.179 4.246-2.438 6.297-3.744 13.166-8.381 20.74-22.732 20.264-38.39-.086-2.806-.437-5.551-1.015-8.217l13.962 7.735 10.344 36.041c.944 3.291 3.944 5.433 7.205 5.433.686 0 1.382-.095 2.073-.293 3.981-1.143 6.282-5.296 5.14-9.278l-6.206-21.623 25.566 14.164c1.152.638 2.398.941 3.628.941 2.639 0 5.198-1.396 6.567-3.867 2.006-3.623.697-8.187-2.926-10.195zm-96.793-24.711c.226 7.383-3.338 14.145-9.532 18.087-1.355.863-2.762 1.699-4.178 2.485-6.584 3.646-14.378 3.545-20.845-.266-6.439-3.794-10.284-10.525-10.284-18.005v-5.546c11.768-1.908 22.068-8.231 29.156-17.208l4.879 2.703c6.537 3.625 10.576 10.259 10.804 17.75zm-95.147 18.087c-6.193-3.942-9.756-10.704-9.531-18.088.228-7.487 4.263-14.118 10.794-17.743l4.889-2.709c7.088 8.976 17.388 15.299 29.156 17.208v5.546c0 7.48-3.845 14.21-10.284 18.005-6.471 3.811-14.264 3.911-20.845.265-1.413-.782-2.818-1.618-4.179-2.484zm-9.531-116.755c-.225-7.384 3.338-14.146 9.531-18.087 1.361-.866 2.767-1.702 4.179-2.484 6.581-3.647 14.374-3.548 20.846.265 6.439 3.794 10.284 10.525 10.284 18.005v5.546c-11.768 1.908-22.069 8.231-29.156 17.208l-4.864-2.695-.015-.008c-6.538-3.625-10.577-10.259-10.805-17.75zm132.193 49.756c-.038 7.381-3.881 14.025-10.279 17.773-6.47 3.789-14.238 3.887-20.783.261l-3.078-1.705-1.763-.977c1.775-4.93 2.748-10.24 2.748-15.775s-.973-10.844-2.748-15.775l1.763-.977 3.078-1.705c6.545-3.626 14.314-3.527 20.783.261 6.398 3.748 10.241 10.392 10.279 17.782l.002.413zm-38.319-32.007-4.879 2.703c-7.088-8.977-17.388-15.299-29.156-17.208v-5.546c0-7.48 3.845-14.21 10.284-18.005 3.314-1.953 6.976-2.931 10.644-2.931 3.492 0 6.991.887 10.2 2.666 1.417.785 2.823 1.622 4.179 2.485h.001c6.193 3.942 9.757 10.704 9.531 18.087-.228 7.491-4.267 14.125-10.804 17.749zm-121.389 31.163c.038-7.381 3.881-14.025 10.28-17.773 3.313-1.94 6.967-2.913 10.623-2.913 3.48 0 6.962.882 10.153 2.647l4.847 2.685c-1.775 4.93-2.748 10.24-2.748 15.775 0 5.534.973 10.844 2.748 15.775l-4.849 2.686c-.001 0-.001.001-.002.001-6.543 3.619-14.307 3.52-20.772-.267-6.399-3.748-10.242-10.392-10.28-17.758l-.001-.437zm185.198-.1.002.521-.002.557c-.053 10.315-5.422 19.6-14.361 24.836-3.423 2.005-7.107 3.266-10.859 3.788 9.218-6.668 14.67-17.142 14.73-28.672l.002-.508-.002-.499c-.06-11.538-5.512-22.013-14.73-28.681 3.752.522 7.436 1.783 10.859 3.787 8.939 5.237 14.308 14.521 14.361 24.871zm-83.481-91.326c4.627-2.727 9.737-4.093 14.858-4.093 4.875 0 9.76 1.239 14.241 3.722 1.862 1.031 3.716 2.134 5.511 3.277h.001c8.658 5.511 13.64 14.961 13.325 25.278-.121 3.957-1.006 7.742-2.552 11.193-.759-11.301-6.703-21.442-16.386-27.606-1.611-1.025-3.28-2.018-4.963-2.951-10.247-5.677-22.209-6.035-32.633-1.15 2.278-3.037 5.173-5.652 8.598-7.67zm-78.337 2.906c1.792-1.141 3.646-2.244 5.511-3.277 9.188-5.091 20.066-4.953 29.1.371 3.425 2.018 6.32 4.633 8.597 7.672-10.426-4.885-22.385-4.528-32.634 1.15h-.001c-1.677.93-3.346 1.922-4.962 2.951-9.683 6.164-15.627 16.305-16.386 27.605-1.545-3.452-2.43-7.236-2.551-11.193-.314-10.317 4.667-19.767 13.326-25.279zm-48.87 89.5-.001-.558.001-.557c.053-10.315 5.422-19.6 14.362-24.836 3.422-2.004 7.105-3.264 10.857-3.786-9.217 6.668-14.669 17.143-14.729 28.694l-.001.484.001.499c.06 11.538 5.512 22.013 14.731 28.681-3.753-.522-7.436-1.782-10.859-3.787-8.94-5.236-14.309-14.521-14.362-24.834zm83.481 91.29c-9.035 5.322-19.913 5.46-29.1.371-1.865-1.034-3.719-2.136-5.511-3.277 0 0 0 0-.001 0-8.658-5.511-13.64-14.961-13.325-25.278.12-3.957 1.006-7.742 2.551-11.193.758 11.301 6.702 21.442 16.386 27.605 1.616 1.028 3.286 2.021 4.963 2.951 5.499 3.046 11.492 4.566 17.476 4.566 5.169 0 10.326-1.154 15.158-3.417-2.277 3.038-5.172 5.653-8.597 7.672zm78.337-2.907c-1.795 1.143-3.648 2.246-5.511 3.277-9.188 5.091-20.066 4.953-29.1-.371-3.425-2.018-6.321-4.634-8.598-7.672 4.832 2.264 9.988 3.418 15.158 3.418 5.984 0 11.979-1.521 17.477-4.566.001 0 .001-.001.002-.001 1.681-.932 3.351-1.925 4.961-2.95 9.683-6.164 15.627-16.305 16.386-27.606 1.545 3.452 2.431 7.236 2.552 11.193.313 10.317-4.668 19.767-13.327 25.278z" fill="url(#SVGID_3_)"/><path d="m404.132 371.644-25.567-14.164 21.624-6.206c3.981-1.143 6.282-5.296 5.14-9.278-1.144-3.982-5.299-6.281-9.278-5.14l-36.042 10.344-13.985-7.748c2.579-.93 5.105-2.092 7.54-3.518 13.557-7.941 21.699-22.035 21.78-37.667l.002-.669-.002-.634c-.081-15.667-8.224-29.761-21.78-37.702-2.433-1.425-4.957-2.591-7.534-3.521l13.979-7.745 36.041 10.344c.691.198 1.388.293 2.073.293 3.26 0 6.261-2.143 7.205-5.433 1.143-3.981-1.158-8.135-5.14-9.278l-21.624-6.206 25.567-14.164c3.623-2.007 4.933-6.572 2.926-10.195s-6.573-4.932-10.195-2.926l-25.566 14.164 6.206-21.623c1.143-3.981-1.158-8.135-5.14-9.278-3.979-1.141-8.135 1.159-9.278 5.14l-10.344 36.041-12.783 7.082c-.43 9.106-1.573 18.025-3.377 26.703 3.247.621 6.424 1.801 9.402 3.545 8.939 5.236 14.309 14.521 14.361 24.871l.002.521-.002.557c-.053 10.315-5.422 19.6-14.361 24.836-3.423 2.005-7.107 3.266-10.859 3.788 9.218-6.668 14.67-17.142 14.73-28.672l.002-.508-.002-.499c-.057-10.984-5.01-20.997-13.437-27.687-1.236 5.813-2.769 11.516-4.581 17.094 1.926 3.151 2.997 6.81 3.017 10.679l.002.413-.002.422c-.038 7.381-3.881 14.025-10.279 17.773-2.162 1.266-4.47 2.11-6.828 2.551-3.852 6.735-8.156 13.176-12.86 19.295 1.493 2.803 2.352 5.962 2.453 9.293.226 7.383-3.338 14.145-9.532 18.087-1.355.863-2.762 1.699-4.178 2.485-5.977 3.31-12.947 3.521-19.02.684-22.449 17.567-49.409 29.633-78.855 34.167.339.192.674.394 1.014.582 6.771 3.751 14.147 5.622 21.515 5.622 7.741 0 15.472-2.066 22.469-6.189 2.432-1.433 4.681-3.072 6.749-4.875v15.996l-26.514 26.514c-2.929 2.929-2.929 7.678 0 10.606 1.464 1.464 3.384 2.197 5.303 2.197s3.839-.732 5.303-2.197l15.907-15.907v29.229c0 4.142 3.358 7.5 7.5 7.5 4.143 0 7.5-3.358 7.5-7.5v-29.229l15.907 15.907c2.93 2.929 7.678 2.929 10.607 0s2.929-7.678 0-10.606l-26.513-26.515v-15.995c2.067 1.803 4.316 3.442 6.749 4.875 6.998 4.124 14.728 6.189 22.469 6.189 7.367 0 14.745-1.871 21.515-5.622 2.127-1.179 4.246-2.438 6.297-3.744 13.166-8.381 20.74-22.732 20.264-38.39-.086-2.806-.437-5.551-1.015-8.217l13.962 7.735 10.344 36.041c.944 3.291 3.944 5.433 7.205 5.433.686 0 1.382-.095 2.073-.293 3.981-1.143 6.282-5.296 5.14-9.278l-6.206-21.623 25.566 14.164c1.152.638 2.398.941 3.628.941 2.639 0 5.198-1.396 6.567-3.867 2.006-3.623.697-8.187-2.926-10.195zm-92.658 14.896c-1.795 1.143-3.648 2.246-5.511 3.277-9.188 5.091-20.066 4.953-29.1-.371-3.425-2.018-6.321-4.634-8.598-7.672 4.832 2.264 9.988 3.418 15.158 3.418 5.984 0 11.979-1.521 17.477-4.566.001 0 .001-.001.002-.001 1.681-.932 3.351-1.925 4.961-2.95 9.683-6.164 15.627-16.305 16.386-27.606 1.545 3.452 2.431 7.236 2.552 11.193.313 10.317-4.668 19.767-13.327 25.278z" fill="url(#SVGID_4_)"/></g></svg>