<svg id="Capa_1" enable-background="new 0 0 510 510" height="512" viewBox="0 0 510 510" width="512" xmlns="http://www.w3.org/2000/svg" xmlns:xlink="http://www.w3.org/1999/xlink"><linearGradient id="lg1"><stop offset="0" stop-color="#e19974"/><stop offset=".9518" stop-color="#8c3d27"/></linearGradient><linearGradient id="SVGID_1_" gradientUnits="userSpaceOnUse" x1="31.852" x2="532.023" xlink:href="#lg1" y1="299.602" y2="299.602"/><linearGradient id="SVGID_2_" gradientUnits="userSpaceOnUse" x1="-141.985" x2="492.363" xlink:href="#lg1" y1="280.789" y2="280.789"/><linearGradient id="SVGID_3_" gradientUnits="userSpaceOnUse" x1="-197.441" x2="430.959" xlink:href="#lg1" y1="299.6" y2="299.6"/><linearGradient id="SVGID_4_" gradientUnits="userSpaceOnUse" x1="42.015" x2="494.6" y1="357.328" y2="357.328"><stop offset="0" stop-color="#fbc56d"/><stop offset=".4576" stop-color="#fe9738"/><stop offset=".9984" stop-color="#fb2b3a"/></linearGradient><linearGradient id="lg2"><stop offset="0" stop-color="#fbc56d"/><stop offset=".5841" stop-color="#fe9738"/><stop offset=".9984" stop-color="#fb2b3a"/></linearGradient><linearGradient id="SVGID_5_" gradientUnits="userSpaceOnUse" x1="16.015" x2="405.097" xlink:href="#lg2" y1="357.328" y2="357.328"/><linearGradient id="SVGID_6_" gradientUnits="userSpaceOnUse" x1="-111.203" x2="529.967" xlink:href="#lg1" y1="62.189" y2="62.189"/><linearGradient id="SVGID_7_" gradientUnits="userSpaceOnUse" x1="-184.652" x2="346.702" xlink:href="#lg1" y1="70.22" y2="70.22"/><linearGradient id="SVGID_8_" gradientUnits="userSpaceOnUse" x1="-184.652" x2="346.702" xlink:href="#lg1" y1="36.252" y2="36.252"/><linearGradient id="SVGID_9_" gradientUnits="userSpaceOnUse" x1="-184.652" x2="346.702" xlink:href="#lg1" y1="62.189" y2="62.189"/><linearGradient id="lg3"><stop offset="0" stop-color="#fe646f"/><stop offset=".5213" stop-color="#e41f2d"/><stop offset="1" stop-color="#c41926"/></linearGradient><linearGradient id="SVGID_10_" gradientUnits="userSpaceOnUse" x1="29.745" x2="190.253" xlink:href="#lg3" y1="100.854" y2="100.854"/><linearGradient id="SVGID_11_" gradientUnits="userSpaceOnUse" x1="-37.985" x2="155.357" xlink:href="#lg3" y1="100.855" y2="100.855"/><linearGradient id="lg4"><stop offset="0" stop-color="#eaf6ff"/><stop offset=".5213" stop-color="#d8ecfe"/><stop offset="1" stop-color="#b3dafe"/></linearGradient><linearGradient id="SVGID_12_" gradientUnits="userSpaceOnUse" x1="6.729" x2="121.976" xlink:href="#lg4" y1="49.457" y2="49.457"/><linearGradient id="lg5"><stop offset="0" stop-color="#fef056"/><stop offset=".5213" stop-color="#f4d902"/><stop offset="1" stop-color="#fe9738"/></linearGradient><linearGradient id="SVGID_13_" gradientUnits="userSpaceOnUse" x1="349.745" x2="510.253" xlink:href="#lg5" y1="100.854" y2="100.854"/><linearGradient id="SVGID_14_" gradientUnits="userSpaceOnUse" x1="282.014" x2="475.357" xlink:href="#lg5" y1="100.855" y2="100.855"/><linearGradient id="SVGID_15_" gradientUnits="userSpaceOnUse" x1="326.729" x2="441.975" xlink:href="#lg4" y1="49.457" y2="49.457"/><linearGradient id="lg6"><stop offset="0" stop-color="#97d729"/><stop offset=".5652" stop-color="#02905d"/><stop offset=".9955" stop-color="#026841"/></linearGradient><linearGradient id="SVGID_16_" gradientUnits="userSpaceOnUse" x1="189.745" x2="350.253" xlink:href="#lg6" y1="100.854" y2="100.854"/><linearGradient id="SVGID_17_" gradientUnits="userSpaceOnUse" x1="122.014" x2="315.357" xlink:href="#lg6" y1="100.855" y2="100.855"/><linearGradient id="SVGID_18_" gradientUnits="userSpaceOnUse" x1="166.729" x2="281.975" xlink:href="#lg4" y1="49.457" y2="49.457"/><linearGradient id="SVGID_19_" gradientUnits="userSpaceOnUse" x1="105.583" x2="345.669" xlink:href="#lg5" y1="357.328" y2="357.328"/><linearGradient id="SVGID_20_" gradientUnits="userSpaceOnUse" x1="76.015" x2="332.557" xlink:href="#lg5" y1="357.328" y2="357.328"/><linearGradient id="SVGID_21_" gradientUnits="userSpaceOnUse" x1="91.515" x2="294.173" xlink:href="#lg5" y1="378.32" y2="378.32"/><linearGradient id="SVGID_22_" gradientUnits="userSpaceOnUse" x1="100.682" x2="390.719" xlink:href="#lg2" y1="378.32" y2="378.32"/><linearGradient id="SVGID_23_" gradientUnits="userSpaceOnUse" x1="-91.87" x2="549.3" xlink:href="#lg6" y1="489.809" y2="489.809"/><linearGradient id="SVGID_24_" gradientUnits="userSpaceOnUse" x1="120" x2="483.31" xlink:href="#lg6" y1="489.809" y2="489.809"/><g><g><path d="m25.135 94.204h459.759v410.796h-459.759z" fill="url(#SVGID_1_)"/><g><path d="m153.843 273.045h-29.781v-16.44c0-7.37-5.975-13.345-13.345-13.345h-50.75c-7.37 0-13.345 5.975-13.345 13.345v18.583c0 7.37 5.975 13.345 13.345 13.345h29.781v16.44c0 7.37 5.975 13.345 13.345 13.345h50.75c7.37 0 13.345-5.975 13.345-13.345v-18.583c0-7.37-5.975-13.345-13.345-13.345z" fill="url(#SVGID_2_)"/><path d="m25.135 94.2v55.19h1.841c16.183 0 31.246 8.262 39.945 21.908l4.246 6.661c6.762 10.608 17.461 18.096 29.743 20.815l25.738 5.699c14.989 3.319 29.881-1.092 40.54-10.568v16.933c0 7.37 5.975 13.345 13.345 13.345h50.75c7.37 0 13.345-5.975 13.345-13.345v-18.583c0-.172-.019-.339-.026-.509 4.901 3.314 10.419 5.724 16.307 7.028l25.738 5.699c24.809 5.493 49.374-10.165 54.868-34.974l.028-.126c1.399-6.362 8.278-9.901 14.235-7.266 16.435 7.272 31.315 17.42 44.002 29.803h-9.023c-7.37 0-13.345 5.975-13.345 13.345v18.583c0 7.382 5.991 13.341 13.374 13.345 27.68.014 51.117 21.004 53.519 48.582.377 4.33.57 8.713.57 13.141v98.004h-20.346c-7.37 0-13.345 5.975-13.345 13.345v18.23c0 7.335 5.996 13.703 13.331 13.698 11.243-.008 20.36 9.104 20.36 20.346v42.471h40.02v-410.8zm206.148 84.711h-50.75c-.787 0-1.553.081-2.302.212 1.416-3.019 2.534-6.232 3.285-9.624 1.518-6.855 1.414-13.689-.045-20.109h2.713c17.922 0 34.603 9.149 44.236 24.261l2.746 4.308c.212.333.439.653.659.979-.181-.007-.359-.027-.542-.027z" fill="url(#SVGID_3_)"/></g></g><path d="m400.346 510h-290.662v-160.013c0-80.264 65.067-145.331 145.331-145.331 80.264 0 145.331 65.067 145.331 145.331z" fill="url(#SVGID_4_)"/><path d="m255.015 204.657c-6.79 0-13.468.477-20.01 1.378 70.794 9.751 125.321 70.479 125.321 143.953v160.012h40.02v-160.012c0-80.265-65.067-145.331-145.331-145.331z" fill="url(#SVGID_5_)"/><g><path d="m489.924 124.379h-469.848c-11.088 0-20.076-8.989-20.076-20.077v-84.226c0-11.088 8.988-20.076 20.076-20.076h469.848c11.088 0 20.076 8.988 20.076 20.076v84.226c0 11.088-8.988 20.077-20.076 20.077z" fill="url(#SVGID_6_)"/><g><path d="m208.51 62.476h-29.78v-16.44c0-7.37-5.975-13.345-13.345-13.345h-50.75c-7.37 0-13.345 5.975-13.345 13.345v18.583c0 7.37 5.975 13.345 13.345 13.345h29.781v16.44c0 7.37 5.975 13.345 13.345 13.345h50.75c7.37 0 13.345-5.975 13.345-13.345v-18.583c-.001-7.37-5.975-13.345-13.346-13.345z" fill="url(#SVGID_7_)"/><path d="m332.314 13.615h-50.75c-7.37 0-13.345 5.975-13.345 13.345v18.583c0 7.37 5.975 13.345 13.345 13.345h50.75c7.37 0 13.345-5.975 13.345-13.345v-18.583c0-7.37-5.975-13.345-13.345-13.345z" fill="url(#SVGID_8_)"/><path d="m489.924 0h-40.02c11.088 0 20.076 8.988 20.076 20.076v38.812h-45.451c-7.37 0-13.345 5.975-13.345 13.345v18.583c0 7.37 5.975 13.345 13.345 13.345h24.889c11.695 0 14.258 16.936 2.943 19.893-.805.21-1.625.324-2.456.324h40.02c11.088 0 20.076-8.988 20.076-20.076v-84.226c-.001-11.088-8.989-20.076-20.077-20.076z" fill="url(#SVGID_9_)"/></g></g><g><path d="m134.591 79.608-36.213-56.812-77.595 49.461 50.383 79.042c6.762 10.608 17.461 18.095 29.743 20.815l25.738 5.699c24.809 5.493 49.374-10.165 54.868-34.974 5.493-24.809-10.165-49.374-34.974-54.868-4.934-1.092-9.233-4.101-11.95-8.363z" fill="url(#SVGID_10_)"/><path d="m182.615 132.85c0 3.29-.36 6.64-1.1 9.99-5.49 24.81-30.06 40.47-54.87 34.97l-2.68-.59c15.82-4.44 28.74-17.22 32.54-34.38.74-3.35 1.1-6.69 1.1-9.99 0-21.1-14.62-40.13-36.07-44.88-2.47-.55-4.78-1.57-6.81-2.99s-3.79-3.24-5.14-5.37l-3.78-5.934c-.973-1.528-2.801-2.218-4.571-1.832-.01.002-.019.004-.029.006-3.51.73-6.63 2.71-8.77 5.58-1.15 1.54-2.59 2.91-4.31 4-1.72 1.1-3.57 1.83-5.45 2.22-3.5.74-6.62 2.72-8.76 5.59-1.15 1.54-2.6 2.91-4.32 4-1.72 1.1-3.56 1.83-5.45 2.22-3.5.73-6.62 2.72-8.76 5.59-1.15 1.54-2.59 2.9-4.31 4s-3.57 1.83-5.45 2.22c-.73.15-1.44.36-2.13.62l-15.8-24.78-6.91-10.85 59.81-38.12 17.78-11.34 36.22 56.81c1.36 2.13 3.11 3.95 5.14 5.37s4.34 2.44 6.81 2.99c21.46 4.75 36.07 23.77 36.07 44.88z" fill="url(#SVGID_11_)"/><path d="m89.411 11.819c-1.879 1.134-3.446 2.582-4.677 4.234-2.16 2.9-5.363 4.828-8.896 5.6-1.833.4-3.627 1.124-5.301 2.191-1.719 1.096-3.164 2.459-4.315 4-2.142 2.868-5.259 4.855-8.763 5.586-1.884.393-3.729 1.127-5.448 2.223s-3.164 2.459-4.315 4c-2.142 2.868-5.259 4.855-8.763 5.586-1.884.393-3.729 1.127-5.448 2.223-1.674 1.067-3.088 2.388-4.225 3.881-2.191 2.877-5.291 4.967-8.832 5.701-2.017.418-3.991 1.227-5.812 2.452-7.35 4.942-9.411 14.993-4.61 22.436 4.874 7.559 14.946 9.767 22.539 4.927 1.719-1.096 3.163-2.459 4.315-4 2.142-2.868 5.259-4.855 8.763-5.586 1.884-.393 3.729-1.127 5.448-2.223s3.164-2.459 4.315-4c2.142-2.868 5.259-4.855 8.763-5.586 1.884-.393 3.729-1.127 5.448-2.223s3.164-2.459 4.315-4c2.142-2.868 5.259-4.855 8.763-5.586 1.884-.393 3.729-1.127 5.448-2.223s3.163-2.459 4.315-4c2.142-2.868 5.259-4.855 8.763-5.586 1.884-.393 3.729-1.127 5.448-2.223 7.594-4.84 9.843-14.903 5.049-22.513-4.722-7.493-14.704-9.868-22.287-5.291z" fill="url(#SVGID_12_)"/></g><g><path d="m454.591 79.608-36.214-56.812-77.595 49.461 50.383 79.042c6.762 10.608 17.461 18.095 29.743 20.815l25.738 5.699c24.809 5.493 49.374-10.165 54.868-34.974 5.493-24.809-10.165-49.374-34.974-54.868-4.934-1.092-9.232-4.101-11.949-8.363z" fill="url(#SVGID_13_)"/><path d="m502.614 132.85c0 3.29-.36 6.64-1.1 9.99-5.49 24.81-30.06 40.47-54.87 34.97l-2.68-.59c15.82-4.44 28.74-17.22 32.54-34.38.74-3.35 1.1-6.69 1.1-9.99 0-21.1-14.62-40.13-36.07-44.88-2.47-.55-4.78-1.57-6.81-2.99s-3.79-3.24-5.14-5.37l-3.78-5.934c-.973-1.528-2.801-2.218-4.571-1.832-.01.002-.019.004-.029.006-3.51.73-6.63 2.71-8.77 5.58-1.15 1.54-2.59 2.91-4.31 4-1.72 1.1-3.57 1.83-5.45 2.22-3.5.74-6.62 2.72-8.76 5.59-1.15 1.54-2.6 2.91-4.32 4-1.72 1.1-3.56 1.83-5.45 2.22-3.5.73-6.62 2.72-8.76 5.59-1.15 1.54-2.59 2.9-4.31 4s-3.57 1.83-5.45 2.22c-.73.15-1.44.36-2.13.62l-15.8-24.78-6.91-10.85 59.81-38.12 17.78-11.34 36.22 56.81c1.36 2.13 3.11 3.95 5.14 5.37s4.34 2.44 6.81 2.99c21.46 4.75 36.07 23.77 36.07 44.88z" fill="url(#SVGID_14_)"/><path d="m409.411 11.819c-1.879 1.134-3.446 2.582-4.677 4.234-2.16 2.9-5.363 4.828-8.896 5.6-1.833.4-3.627 1.124-5.301 2.191-1.719 1.096-3.164 2.459-4.315 4-2.142 2.868-5.259 4.855-8.763 5.586-1.884.393-3.729 1.127-5.448 2.223s-3.164 2.459-4.315 4c-2.142 2.868-5.259 4.855-8.763 5.586-1.884.393-3.729 1.127-5.448 2.223-1.674 1.067-3.088 2.388-4.225 3.881-2.191 2.877-5.291 4.967-8.832 5.701-2.017.418-3.991 1.227-5.812 2.452-7.35 4.942-9.411 14.993-4.61 22.436 4.874 7.559 14.946 9.767 22.539 4.927 1.719-1.096 3.163-2.459 4.315-4 2.142-2.868 5.259-4.855 8.763-5.586 1.884-.393 3.729-1.127 5.448-2.223s3.164-2.459 4.315-4c2.142-2.868 5.259-4.855 8.763-5.586 1.884-.393 3.729-1.127 5.448-2.223s3.164-2.459 4.315-4c2.142-2.868 5.259-4.855 8.763-5.586 1.884-.393 3.729-1.127 5.448-2.223s3.163-2.459 4.315-4c2.142-2.868 5.259-4.855 8.763-5.586 1.884-.393 3.729-1.127 5.448-2.223 7.594-4.84 9.843-14.903 5.049-22.513-4.723-7.493-14.704-9.868-22.287-5.291z" fill="url(#SVGID_15_)"/></g><g><path d="m294.591 79.608-36.214-56.812-77.595 49.461 50.383 79.042c6.762 10.608 17.461 18.095 29.743 20.815l25.738 5.699c24.809 5.493 49.374-10.165 54.868-34.974 5.493-24.809-10.165-49.374-34.974-54.868-4.934-1.092-9.232-4.101-11.949-8.363z" fill="url(#SVGID_16_)"/><path d="m342.614 132.85c0 3.29-.36 6.64-1.1 9.99-5.49 24.81-30.06 40.47-54.87 34.97l-2.68-.59c15.82-4.44 28.74-17.22 32.54-34.38.74-3.35 1.1-6.69 1.1-9.99 0-21.1-14.62-40.13-36.07-44.88-2.47-.55-4.78-1.57-6.81-2.99s-3.79-3.24-5.14-5.37l-3.78-5.934c-.973-1.528-2.801-2.218-4.571-1.832-.01.002-.019.004-.029.006-3.51.73-6.63 2.71-8.77 5.58-1.15 1.54-2.59 2.91-4.31 4-1.72 1.1-3.57 1.83-5.45 2.22-3.5.74-6.62 2.72-8.76 5.59-1.15 1.54-2.6 2.91-4.32 4-1.72 1.1-3.56 1.83-5.45 2.22-3.5.73-6.62 2.72-8.76 5.59-1.15 1.54-2.59 2.9-4.31 4s-3.57 1.83-5.45 2.22c-.73.15-1.44.36-2.13.62l-15.8-24.78-6.91-10.85 59.81-38.12 17.78-11.34 36.22 56.81c1.36 2.13 3.11 3.95 5.14 5.37s4.34 2.44 6.81 2.99c21.46 4.75 36.07 23.77 36.07 44.88z" fill="url(#SVGID_17_)"/><path d="m249.411 11.819c-1.879 1.134-3.446 2.582-4.677 4.234-2.16 2.9-5.363 4.828-8.896 5.6-1.833.4-3.627 1.124-5.301 2.191-1.719 1.096-3.163 2.459-4.315 4-2.142 2.868-5.259 4.855-8.763 5.586-1.884.393-3.729 1.127-5.448 2.223s-3.163 2.459-4.315 4c-2.142 2.868-5.259 4.855-8.763 5.586-1.884.393-3.729 1.127-5.448 2.223-1.674 1.067-3.088 2.388-4.225 3.881-2.191 2.877-5.291 4.967-8.832 5.701-2.017.418-3.991 1.227-5.812 2.452-7.35 4.942-9.411 14.993-4.61 22.436 4.874 7.559 14.946 9.767 22.539 4.927 1.719-1.096 3.163-2.459 4.315-4 2.142-2.868 5.259-4.855 8.763-5.586 1.884-.393 3.729-1.127 5.448-2.223s3.164-2.459 4.315-4c2.142-2.868 5.259-4.855 8.763-5.586 1.884-.393 3.729-1.127 5.448-2.223s3.164-2.459 4.315-4c2.142-2.868 5.259-4.855 8.763-5.586 1.884-.393 3.729-1.127 5.448-2.223s3.163-2.459 4.315-4c2.142-2.868 5.259-4.855 8.763-5.586 1.884-.393 3.729-1.127 5.448-2.223 7.594-4.84 9.843-14.903 5.049-22.513-4.723-7.493-14.704-9.868-22.287-5.291z" fill="url(#SVGID_18_)"/></g><g><path d="m326.702 329.876c-.014.195-.028.39-.043.585-.361 4.749-7.196 5.105-8.078.425-7.774-41.254-33.29-71.512-63.567-71.512s-55.793 30.259-63.567 71.512c-.882 4.68-7.716 4.324-8.078-.425-.015-.198-.03-.396-.043-.595-.265-3.809-5.337-4.805-7.034-1.384-5.797 11.683-9.072 24.84-9.105 38.759-.116 48.357 38.247 87.374 86.6 88.034 49.068.67 89.055-38.905 89.055-87.819 0-14.005-3.281-27.241-9.112-38.989-1.692-3.408-6.762-2.387-7.028 1.409z" fill="url(#SVGID_19_)"/><path d="m333.73 328.467c-1.692-3.408-6.762-2.386-7.028 1.409-.014.195-.028.391-.043.585-.361 4.749-7.196 5.105-8.078.425-7.774-41.254-33.29-71.512-63.567-71.512-6.978 0-13.697 1.625-20.01 4.603 21.08 9.945 37.575 35.163 43.557 66.909.882 4.68 7.716 4.324 8.078-.425.015-.194.029-.389.043-.585.265-3.796 5.336-4.817 7.028-1.409 5.832 11.747 9.112 24.984 9.112 38.989 0 41.633-28.971 76.494-67.851 85.538 6.05 1.395 12.339 2.192 18.815 2.281 49.068.67 89.055-38.905 89.055-87.819.002-14.005-3.279-27.242-9.111-38.989z" fill="url(#SVGID_20_)"/><path d="m306.939 391.859c0 28.677-23.247 51.924-51.924 51.924s-51.924-23.247-51.924-51.924 23.247-79.003 51.924-79.003 51.924 50.326 51.924 79.003z" fill="url(#SVGID_21_)"/><path d="m255.015 312.856c-4.312 0-8.5 1.145-12.505 3.176 22.635 11.476 39.418 51.462 39.418 75.827 0 24.364-16.784 44.8-39.418 50.398 4.006.991 8.193 1.526 12.505 1.526 28.677 0 51.924-23.247 51.924-51.924s-23.247-79.003-51.924-79.003z" fill="url(#SVGID_22_)"/></g><g><path d="m489.924 510h-469.848c-11.088 0-20.076-8.988-20.076-20.076v-.23c0-11.088 8.988-20.076 20.076-20.076h469.848c11.088 0 20.076 8.988 20.076 20.076v.23c0 11.088-8.988 20.076-20.076 20.076z" fill="url(#SVGID_23_)"/><path d="m489.924 469.618h-40.02c11.088 0 20.076 8.988 20.076 20.076v.23c0 11.088-8.988 20.076-20.076 20.076h40.02c11.088 0 20.076-8.988 20.076-20.076v-.23c0-11.088-8.988-20.076-20.076-20.076z" fill="url(#SVGID_24_)"/></g></g></svg>