<svg id="Capa_1" enable-background="new 0 0 510 510" height="512" viewBox="0 0 510 510" width="512" xmlns="http://www.w3.org/2000/svg" xmlns:xlink="http://www.w3.org/1999/xlink"><linearGradient id="lg1"><stop offset="0" stop-color="#e19974"/><stop offset="1" stop-color="#8c3d27"/></linearGradient><linearGradient id="SVGID_1_" gradientUnits="userSpaceOnUse" x1="239.333" x2="561.333" xlink:href="#lg1" y1="310.934" y2="310.934"/><linearGradient id="SVGID_2_" gradientUnits="userSpaceOnUse" x1="173.333" x2="538" xlink:href="#lg1" y1="310.937" y2="310.937"/><linearGradient id="lg2"><stop offset="0" stop-color="#766e6e"/><stop offset=".1978" stop-color="#676464"/><stop offset=".4488" stop-color="#5a5a5a"/><stop offset=".482" stop-color="#575858"/><stop offset=".799" stop-color="#404d4d"/><stop offset="1" stop-color="#384949"/></linearGradient><linearGradient id="SVGID_3_" gradientUnits="userSpaceOnUse" x1="280.523" x2="462.825" xlink:href="#lg2" y1="260.251" y2="260.251"/><linearGradient id="SVGID_4_" gradientUnits="userSpaceOnUse" x1="280.523" x2="462.825" xlink:href="#lg2" y1="278.507" y2="278.507"/><linearGradient id="SVGID_5_" gradientUnits="userSpaceOnUse" x1="280.523" x2="462.825" xlink:href="#lg2" y1="375.94" y2="375.94"/><linearGradient id="SVGID_6_" gradientUnits="userSpaceOnUse" x1="280.523" x2="462.825" xlink:href="#lg2" y1="336.054" y2="336.054"/><linearGradient id="SVGID_7_" gradientUnits="userSpaceOnUse" x1="290.5" x2="403.359" xlink:href="#lg2" y1="339.955" y2="339.955"/><linearGradient id="lg3"><stop offset="0" stop-color="#eaf6ff"/><stop offset=".5213" stop-color="#d8ecfe"/><stop offset="1" stop-color="#b3dafe"/></linearGradient><linearGradient id="SVGID_8_" gradientUnits="userSpaceOnUse" x1="33.684" x2="339.026" xlink:href="#lg3" y1="238.122" y2="238.122"/><linearGradient id="lg4"><stop offset="0" stop-color="#d8ecfe"/><stop offset=".5667" stop-color="#b3dafe"/><stop offset=".9955" stop-color="#8ac9fe"/></linearGradient><linearGradient id="SVGID_9_" gradientUnits="userSpaceOnUse" x1="27" x2="345.628" xlink:href="#lg4" y1="238.122" y2="238.122"/><linearGradient id="lg5"><stop offset=".006" stop-color="#fff"/><stop offset=".5475" stop-color="#eaf6ff"/><stop offset="1" stop-color="#d8ecfe"/></linearGradient><linearGradient id="SVGID_10_" gradientUnits="userSpaceOnUse" x1="28.153" x2="355.66" xlink:href="#lg5" y1="259.026" y2="259.026"/><linearGradient id="SVGID_11_" gradientUnits="userSpaceOnUse" x1="-61.333" x2="211.353" xlink:href="#lg5" y1="259.025" y2="259.025"/><linearGradient id="SVGID_12_" gradientUnits="userSpaceOnUse" x1="123.333" x2="441.336" xlink:href="#lg1" y1="411.064" y2="411.064"/><linearGradient id="SVGID_13_" gradientUnits="userSpaceOnUse" x1="50.667" x2="397.519" xlink:href="#lg1" y1="411.067" y2="411.067"/><linearGradient id="SVGID_14_" gradientUnits="userSpaceOnUse" x1="123.333" x2="441.336" y1="349.136" y2="349.136"><stop offset="0" stop-color="#e19974"/><stop offset=".9518" stop-color="#8c3d27"/></linearGradient><linearGradient id="SVGID_15_" gradientUnits="userSpaceOnUse" x1="50.667" x2="397.519" xlink:href="#lg1" y1="349.136" y2="349.136"/><linearGradient id="SVGID_16_" gradientUnits="userSpaceOnUse" x1="173.273" x2="283.286" xlink:href="#lg2" y1="318.172" y2="318.172"/><linearGradient id="SVGID_17_" gradientUnits="userSpaceOnUse" x1="292.484" x2="364.027" xlink:href="#lg2" y1="318.172" y2="318.172"/><linearGradient id="SVGID_18_" gradientUnits="userSpaceOnUse" x1="-171" x2="287.132" xlink:href="#lg3" y1="453.531" y2="453.531"/><linearGradient id="SVGID_19_" gradientUnits="userSpaceOnUse" x1="53.154" x2="506.193" xlink:href="#lg4" y1="453.531" y2="453.531"/><g><g><g><circle cx="378.907" cy="310.934" fill="url(#SVGID_1_)" r="131.093"/><path d="m510 310.932c0 60.6-41.12 111.61-96.99 126.62-10.87 2.92-22.3 4.48-34.1 4.48-6.8 0-13.49-.52-20.01-1.52-56.62-8.67-101.31-53.57-109.68-110.29-.58-3.96-.99-7.98-1.21-12.05-.13-2.4-.2-4.81-.2-7.24 0-41.89 19.65-79.19 50.24-103.19v98.847c0 6.397 5.186 11.583 11.583 11.583h2.078c3.398 0 6.55-1.558 8.826-4.081 4.314-4.785 11.941-7.969 20.633-7.969 10.98 0 20.26 5.08 23.31 12.05h5.24c26.173 0 47.382 21.222 47.36 47.4-.006 6.593-4.412 12.155-10.434 13.934-6.152 1.817-8.153 9.603-3.688 14.209.082.085.167.17.252.256.389.389.771.784 1.146 1.186 9.738 10.437 26.364 10.403 35.479-.583 18.83-22.698 30.146-51.849 30.146-83.643 0-65.6-48.18-119.94-111.08-129.57 6.52-1 13.21-1.52 20.01-1.52 72.399.001 131.089 58.691 131.089 131.091z" fill="url(#SVGID_2_)"/><g><circle cx="330.879" cy="260.251" fill="url(#SVGID_3_)" r="29.21"/><circle cx="441.257" cy="278.507" fill="url(#SVGID_4_)" r="14.887"/><circle cx="330.879" cy="375.94" fill="url(#SVGID_5_)" r="14.887"/><circle cx="404.467" cy="336.054" fill="url(#SVGID_6_)" r="22.189"/><path d="m404.467 358.243c4.185 0 8.099-1.16 11.439-3.174-3.429-15.204-14.16-27.63-28.325-33.402-3.304 3.874-5.304 8.896-5.304 14.387.001 12.255 9.935 22.189 22.19 22.189z" fill="url(#SVGID_7_)"/></g></g><g><path d="m211.567 442.027h-150.093c-33.951 0-61.474-27.523-61.474-61.474v-324.526c0-12.046 9.765-21.811 21.811-21.811h229.42c12.046 0 21.811 9.765 21.811 21.811v324.526c0 33.951-27.523 61.474-61.475 61.474z" fill="url(#SVGID_8_)"/><path d="m251.23 34.212h-40.02c12.05 0 21.81 9.77 21.81 21.82v262.14h-12.832c-4.695-6.975-18.966-12.048-35.848-12.048s-31.153 5.073-35.848 12.048h-5.492c-26.15 0-47.36 21.2-47.36 47.36 0 4.03 1.63 7.67 4.27 10.3 2.63 2.64 6.27 4.27 10.3 4.27h32.79c-26.15 0-47.36 21.2-47.36 47.36 0 4.02 1.63 7.66 4.27 10.3 2.63 2.64 6.27 4.27 10.3 4.27h101.36c33.95 0 61.47-27.53 61.47-61.48v-324.52c0-12.05-9.76-21.82-21.81-21.82z" fill="url(#SVGID_9_)"/><path d="m101.761 153.268c-14.962-14.962-39.221-14.962-54.184 0-14.503 14.503-22.651 34.173-22.651 54.684v155.886c0 29.767 24.131 53.899 53.899 53.899h115.391c29.767 0 53.899-24.131 53.899-53.899v-235.698c0-24.74-29.912-37.13-47.406-19.636l-44.764 44.764c-14.962 14.962-39.221 14.962-54.184 0z" fill="url(#SVGID_10_)"/><path d="m248.11 128.142v235.7c0 29.76-24.13 53.89-53.89 53.89h-97.58c4.49-21.49 23.54-37.63 46.36-37.63h-32.79c-4.03 0-7.67-1.63-10.3-4.27-2.64-2.63-4.27-6.27-4.27-10.3 0-26.16 21.21-47.36 47.36-47.36h5.49c4.7-6.97 18.97-12.05 35.85-12.05 9.01 0 17.28 1.45 23.75 3.86v-181.84c0-7.87-3.03-14.5-7.72-19.3l.34-.34c9.37-9.37 22.32-10.16 32.31-5.07 8.65 4.41 15.09 13.23 15.09 24.71z" fill="url(#SVGID_11_)"/></g><path d="m377.502 442.027h-242.28c-8.046 0-14.568-6.522-14.568-14.568 0-26.156 21.203-47.359 47.359-47.359h176.699c26.156 0 47.359 21.203 47.359 47.359-.001 8.046-6.523 14.568-14.569 14.568z" fill="url(#SVGID_12_)"/><path d="m392.07 427.462c0 4.02-1.63 7.66-4.27 10.3-2.63 2.64-6.28 4.27-10.3 4.27h-40.02c4.02 0 7.67-1.63 10.3-4.27 2.64-2.64 4.27-6.28 4.27-10.3 0-.081 0-.162-.001-.242-.061-12.275-10.235-22.108-22.51-22.108h-203.289c2.2-4.11 5-7.87 8.27-11.14 8.58-8.57 20.42-13.87 33.49-13.87h176.7c18.08 0 33.79 10.12 41.76 25.01 3.58 6.66 5.6 14.27 5.6 22.35z" fill="url(#SVGID_13_)"/><g><path d="m377.502 380.1h-242.28c-8.046 0-14.568-6.523-14.568-14.568 0-26.156 21.203-47.359 47.359-47.359h176.699c26.156 0 47.359 21.203 47.359 47.359-.001 8.045-6.523 14.568-14.569 14.568z" fill="url(#SVGID_14_)"/><path d="m344.711 318.172h-40.02c26.156 0 47.359 21.203 47.359 47.359 0 8.046-6.522 14.568-14.568 14.568h40.02c8.046 0 14.568-6.523 14.568-14.568 0-26.155-21.203-47.359-47.359-47.359z" fill="url(#SVGID_15_)"/><g><path d="m247.161 323.163c0 9.41-74.971 9.41-74.971 0s16.783-17.039 37.486-17.039 37.485 7.629 37.485 17.039z" fill="url(#SVGID_16_)"/><path d="m340.534 323.163c0 9.41-48.755 9.41-48.755 0s10.914-17.039 24.378-17.039 24.377 7.629 24.377 17.039z" fill="url(#SVGID_17_)"/></g></g></g><g><path d="m478.223 475.788h-446.446c-17.55 0-31.777-14.227-31.777-31.777 0-7.035 5.703-12.738 12.738-12.738h484.523c7.035 0 12.738 5.703 12.738 12.738.001 17.55-14.226 31.777-31.776 31.777z" fill="url(#SVGID_18_)"/><path d="m406.425 475.788h71.797c17.55 0 31.777-14.227 31.777-31.777 0-.319-.025-.632-.048-.945-.047-.547-.132-1.146-.254-1.788-1.252-5.721-6.341-10.006-12.437-10.006h-52.758c14.07 0 25.477 5.703 25.477 12.738.001 17.551-28.453 31.778-63.554 31.778z" fill="url(#SVGID_19_)"/></g></g></svg>