<svg id="Capa_1" enable-background="new 0 0 510 510" height="512" viewBox="0 0 510 510" width="512" xmlns="http://www.w3.org/2000/svg" xmlns:xlink="http://www.w3.org/1999/xlink"><linearGradient id="lg1"><stop offset="0" stop-color="#eaf6ff"/><stop offset=".5213" stop-color="#d8ecfe"/><stop offset="1" stop-color="#b3dafe"/></linearGradient><linearGradient id="SVGID_1_" gradientUnits="userSpaceOnUse" x1="368.652" x2="536.822" xlink:href="#lg1" y1="197.519" y2="197.519"/><linearGradient id="lg2"><stop offset="0" stop-color="#d8ecfe"/><stop offset=".5667" stop-color="#b3dafe"/><stop offset=".9955" stop-color="#8ac9fe"/></linearGradient><linearGradient id="SVGID_2_" gradientUnits="userSpaceOnUse" x1="374.5" x2="519.169" xlink:href="#lg2" y1="197.518" y2="197.518"/><linearGradient id="lg3"><stop offset="0" stop-color="#fe646f"/><stop offset=".5213" stop-color="#e41f2d"/><stop offset="1" stop-color="#c41926"/></linearGradient><linearGradient id="SVGID_3_" gradientUnits="userSpaceOnUse" x1="55.127" x2="608.009" xlink:href="#lg3" y1="225.029" y2="225.029"/><linearGradient id="SVGID_4_" gradientUnits="userSpaceOnUse" x1="-49" x2="457.194" xlink:href="#lg3" y1="308.19" y2="308.19"/><linearGradient id="SVGID_5_" gradientUnits="userSpaceOnUse" x1="-49" x2="457.194" xlink:href="#lg3" y1="119.503" y2="119.503"/><linearGradient id="SVGID_6_" gradientUnits="userSpaceOnUse" x1="-2.699" x2="438.123" xlink:href="#lg1" y1="413.717" y2="413.717"/><linearGradient id="SVGID_7_" gradientUnits="userSpaceOnUse" x1="152" x2="437" xlink:href="#lg2" y1="413.718" y2="413.718"/><g><g><circle cx="447.25" cy="197.519" fill="url(#SVGID_1_)" r="62.75"/></g><g><path d="m509.896 201.182c-1.921 33.797-29.867 59.639-63.714 59.076-6.616-.11-12.972-1.239-18.942-3.251 24.85-8.35 42.74-31.83 42.74-59.49 0-.031 0-.063 0-.094-.002-1.343-1.92-1.614-2.3-.326-4.96 16.831-20.028 30.58-40.76 30.58h-12.102c-16.555 0-30.232-13.278-30.317-29.832-.001-.109-.001-.218-.001-.328 0-27.66 17.89-51.14 42.74-59.49 3.23-1.09 6.58-1.92 10.02-2.47 3.25-.52 6.59-.79 9.99-.79 35.874.001 64.71 30.104 62.646 66.415z" fill="url(#SVGID_2_)"/></g><path d="m456.93 130.215-29.541-29.541c-41.191-41.191-97.058-64.332-155.312-64.332-110.493 0-203.786 82.082-217.856 191.675l-23.84 185.699h381.122l-27.095-211.053h42.511c37.811.001 56.746-45.712 30.011-72.448z" fill="url(#SVGID_3_)"/><g><path d="m383.702 202.664c-20.851 0-36.962 18.311-34.307 38.993l22.089 172.06h40.02l-27.095-211.053z" fill="url(#SVGID_4_)"/><path d="m456.93 130.215-29.541-29.541c-41.191-41.191-97.058-64.332-155.312-64.332-6.777 0-13.487.313-20.12.918 50.955 4.634 98.938 26.941 135.412 63.414l29.541 29.541c26.735 26.735 7.8 72.449-30.009 72.449h40.02c37.809 0 56.744-45.713 30.009-72.449z" fill="url(#SVGID_5_)"/></g><path d="m383.448 353.794c-8.041-.197-15.734 1.19-22.789 3.872-12.387 4.708-26.082 4.356-38.518-.22-6.451-2.374-13.422-3.67-20.697-3.67-7.468 0-14.617 1.366-21.211 3.862-12.265 4.642-25.813 4.642-38.078 0-6.594-2.496-13.743-3.862-21.211-3.862s-14.617 1.366-21.211 3.862c-12.265 4.642-25.813 4.642-38.078 0-6.594-2.496-13.743-3.862-21.211-3.862-7.274 0-14.246 1.296-20.697 3.67-12.436 4.576-26.131 4.928-38.518.22-7.056-2.681-14.749-4.069-22.789-3.872-32.445.795-58.608 27.792-58.437 60.246.174 32.956 26.944 59.618 59.94 59.618 7.468 0 14.617-1.366 21.211-3.862 12.265-4.642 25.813-4.642 38.078 0 6.594 2.496 13.743 3.862 21.211 3.862s14.618-1.366 21.212-3.862c12.265-4.642 25.813-4.642 38.078 0 6.594 2.496 13.743 3.862 21.211 3.862s14.618-1.366 21.212-3.862c12.265-4.642 25.813-4.642 38.078 0 6.594 2.496 13.743 3.862 21.211 3.862s14.617-1.366 21.211-3.862c12.265-4.642 25.813-4.642 38.078 0 6.594 2.496 13.743 3.862 21.211 3.862 32.997 0 59.766-26.662 59.94-59.618.171-32.454-25.992-59.452-58.437-60.246z" fill="url(#SVGID_6_)"/><path d="m441.89 414.038c-.18 32.96-26.95 59.62-59.95 59.62-7.02 0-13.76-1.21-20.03-3.42 23.18-8.19 39.82-30.24 39.96-56.2.14-26-16.63-48.5-39.99-56.82 6.72-2.38 13.99-3.61 21.57-3.42 32.44.79 58.61 27.79 58.44 60.24z" fill="url(#SVGID_7_)"/></g></svg>