<svg id="Capa_1" enable-background="new 0 0 510 510" height="512" viewBox="0 0 510 510" width="512" xmlns="http://www.w3.org/2000/svg" xmlns:xlink="http://www.w3.org/1999/xlink"><linearGradient id="lg1"><stop offset="0" stop-color="#97d729"/><stop offset=".5652" stop-color="#02905d"/><stop offset=".9955" stop-color="#026841"/></linearGradient><linearGradient id="SVGID_1_" gradientUnits="userSpaceOnUse" x1="-2.897" x2="557.548" xlink:href="#lg1" y1="107.156" y2="107.156"/><linearGradient id="SVGID_2_" gradientUnits="userSpaceOnUse" x1="-27.5" x2="300.924" xlink:href="#lg1" y1="107.155" y2="107.155"/><linearGradient id="SVGID_3_" gradientUnits="userSpaceOnUse" x1="62" x2="391.439" xlink:href="#lg1" y1="99.162" y2="99.162"/><linearGradient id="lg2"><stop offset="0" stop-color="#fe646f"/><stop offset=".5213" stop-color="#e41f2d"/><stop offset="1" stop-color="#c41926"/></linearGradient><linearGradient id="SVGID_4_" gradientUnits="userSpaceOnUse" x1="148" x2="395.008" xlink:href="#lg2" y1="289.767" y2="289.767"/><linearGradient id="SVGID_5_" gradientUnits="userSpaceOnUse" x1="-28.052" x2="427.726" xlink:href="#lg2" y1="289.767" y2="289.767"/><linearGradient id="SVGID_6_" gradientTransform="matrix(1 0 0 -1 0 -645.382)" gradientUnits="userSpaceOnUse" x1="122.5" x2="318.663" xlink:href="#lg2" y1="-912.59" y2="-912.59"/><linearGradient id="SVGID_7_" gradientUnits="userSpaceOnUse" x1="127.333" x2="242.748" xlink:href="#lg2" y1="255.016" y2="255.016"/><linearGradient id="lg3"><stop offset="0" stop-color="#fbc56d"/><stop offset=".5841" stop-color="#fe9738"/><stop offset=".9984" stop-color="#fb2b3a"/></linearGradient><linearGradient id="SVGID_8_" gradientUnits="userSpaceOnUse" x1="11.788" x2="389.225" xlink:href="#lg3" y1="174.806" y2="174.806"/><linearGradient id="SVGID_9_" gradientUnits="userSpaceOnUse" x1="63" x2="334.223" xlink:href="#lg3" y1="174.806" y2="174.806"/><linearGradient id="SVGID_10_" gradientUnits="userSpaceOnUse" x1="-26.123" x2="220.885" xlink:href="#lg1" y1="245.867" y2="245.867"/><linearGradient id="SVGID_11_" gradientUnits="userSpaceOnUse" x1="-202.175" x2="253.603" xlink:href="#lg1" y1="245.867" y2="245.867"/><linearGradient id="SVGID_12_" gradientTransform="matrix(1 0 0 -1 0 -645.382)" gradientUnits="userSpaceOnUse" x1="-51.623" x2="144.54" xlink:href="#lg1" y1="-868.69" y2="-868.69"/><linearGradient id="SVGID_13_" gradientUnits="userSpaceOnUse" x1="-46.79" x2="68.625" xlink:href="#lg1" y1="211.117" y2="211.117"/><linearGradient id="SVGID_14_" gradientUnits="userSpaceOnUse" x1="-162.335" x2="215.102" xlink:href="#lg3" y1="130.907" y2="130.907"/><linearGradient id="SVGID_15_" gradientUnits="userSpaceOnUse" x1="-111.123" x2="160.1" xlink:href="#lg3" y1="130.907" y2="130.907"/><linearGradient id="lg4"><stop offset="0" stop-color="#fef056"/><stop offset=".5213" stop-color="#f4d902"/><stop offset="1" stop-color="#fe9738"/></linearGradient><linearGradient id="SVGID_16_" gradientUnits="userSpaceOnUse" x1="322.123" x2="569.131" xlink:href="#lg4" y1="245.867" y2="245.867"/><linearGradient id="SVGID_17_" gradientUnits="userSpaceOnUse" x1="146.071" x2="601.849" xlink:href="#lg4" y1="245.867" y2="245.867"/><linearGradient id="SVGID_18_" gradientTransform="matrix(1 0 0 -1 0 -645.382)" gradientUnits="userSpaceOnUse" x1="296.623" x2="492.786" xlink:href="#lg4" y1="-868.69" y2="-868.69"/><linearGradient id="SVGID_19_" gradientUnits="userSpaceOnUse" x1="301.456" x2="416.871" xlink:href="#lg4" y1="211.117" y2="211.117"/><linearGradient id="SVGID_20_" gradientUnits="userSpaceOnUse" x1="185.911" x2="563.348" xlink:href="#lg3" y1="130.907" y2="130.907"/><linearGradient id="SVGID_21_" gradientUnits="userSpaceOnUse" x1="237.123" x2="508.346" xlink:href="#lg3" y1="130.907" y2="130.907"/><linearGradient id="SVGID_22_" gradientUnits="userSpaceOnUse" x1="52.601" x2="390.114" xlink:href="#lg4" y1="451.979" y2="451.979"/><linearGradient id="SVGID_23_" gradientUnits="userSpaceOnUse" x1="52.601" x2="390.114" xlink:href="#lg4" y1="405.24" y2="405.24"/><g><g><path d="m488.661 38.278-32.247 32.247c-53.384 53.384-125.622 84.12-201.118 84.197-75.699.077-146.88-29.366-200.399-82.885l-33.558-33.559c-7.875-7.875-21.339-2.298-21.339 8.839 0 3.315 1.317 6.495 3.661 8.839l33.559 33.558c58.171 58.171 135.514 90.207 217.78 90.207s159.608-32.036 217.78-90.207l33.559-33.559c2.344-2.344 3.661-5.524 3.661-8.839 0-11.136-13.464-16.713-21.339-8.838z" fill="url(#SVGID_1_)"/><path d="m285.14 153.087c3.34 4.6 5.31 10.25 5.31 16.37v8.26c-11.68 1.33-23.51 2-35.45 2-4.18 0-8.35-.08-12.51-.25-23.36-.92-46.26-4.44-68.36-10.42.024-1.683.196-3.329.504-4.927 1.506-7.795-3.511-15.384-11.231-17.237-16.174-3.881-31.915-9.179-47.073-15.827v15.85c-20.23-10.218-39.388-22.724-57.139-37.394.191-7.322-3.026-14.303-8.681-18.958-7.127-5.865-14.011-12.11-20.62-18.719l-29.12-29.118c2.95-8.05 13.81-11.19 20.57-4.44l33.56 33.56c9.35 9.35 19.25 17.97 29.61 25.82 9.85 7.47 20.12 14.25 30.76 20.31 22.28 12.68 46.16 22.23 71.08 28.41 18.18 4.52 36.92 7.23 56 8.06 4.3.19 8.62.28 12.95.28 10.02-.01 19.98-.56 29.84-1.63z" fill="url(#SVGID_2_)"/><path d="m497.41 34.597c-3.07 0-6.2 1.13-8.75 3.68l-4.44 4.44c.5 1.34.77 2.81.77 4.4 0 3.31-1.32 6.49-3.66 8.84l-33.56 33.56c-2.81 2.81-5.67 5.57-8.58 8.26-.83-.08-1.67-.12-2.52-.12h-11.56c-23.47 17.57-49.41 31.43-76.86 41.09v17.72c0 3.36 2.16 6.22 5.16 7.26h.01c37.32-12.53 72.02-32.25 102.4-58.45 5.82-5.02 11.47-10.27 16.96-15.76l33.56-33.56c2.34-2.35 3.66-5.53 3.66-8.84 0-7.54-6.16-12.52-12.59-12.52z" fill="url(#SVGID_3_)"/><g><g><path d="m335.877 268.678c0-44.667-36.21-80.877-80.877-80.877s-80.877 36.21-80.877 80.877 36.21 123.055 80.877 123.055 80.877-78.388 80.877-123.055z" fill="url(#SVGID_4_)"/><path d="m255 187.801c-6.907 0-13.61.87-20.01 2.5 12.616 3.211 24.036 9.4 33.498 17.756h-63.966l-1.592-1.389-1.47 1.367c-.614.543-1.224 1.116-1.822 1.677-8.911 8.363-2.788 23.355 9.433 23.355h51.037c19.54 0 35.658 15.687 35.748 35.227.001.128.001.255.001.383 0 37.76-25.879 99.615-60.867 117.842 6.4 3.334 13.103 5.212 20.01 5.212 44.667 0 80.877-78.387 80.877-123.055 0-44.665-36.21-80.875-80.877-80.875z" fill="url(#SVGID_5_)"/><path d="m306.924 253.669c0-28.677-23.247-51.924-51.924-51.924s-51.924 23.247-51.924 51.924 23.247 79.003 51.924 79.003 51.924-50.327 51.924-79.003z" fill="url(#SVGID_6_)"/><path d="m295.86 268.676v-.38c-.09-19.54-16.21-35.23-35.75-35.23h-52.78c4.62-10.67 12.71-19.49 22.85-25.01 7.37-4.03 15.83-6.31 24.82-6.31 1.98 0 3.93.11 5.85.33 25.93 2.9 46.07 24.9 46.07 51.59 0 15.66-6.93 37.77-17.89 54.62 4.39-14.17 6.83-28.02 6.83-39.61z" fill="url(#SVGID_7_)"/></g><path d="m305.478 208.056h-100.956c-4.244 0-7.684-3.44-7.684-7.684v-30.912c0-15.411 12.493-27.904 27.904-27.904h60.518c15.411 0 27.904 12.493 27.904 27.904v30.912c-.001 4.244-3.442 7.684-7.686 7.684z" fill="url(#SVGID_8_)"/><path d="m285.259 141.556h-40.02c15.411 0 27.904 12.493 27.904 27.904v30.912c0 4.244-3.44 7.684-7.684 7.684h40.02c4.244 0 7.684-3.44 7.684-7.684v-30.912c0-15.411-12.493-27.904-27.904-27.904z" fill="url(#SVGID_9_)"/></g><g><g><path d="m161.754 224.778c0-44.667-36.21-80.877-80.877-80.877s-80.877 36.21-80.877 80.877 36.21 123.055 80.877 123.055 80.877-78.388 80.877-123.055z" fill="url(#SVGID_10_)"/><path d="m80.877 143.901c-6.907 0-13.61.87-20.01 2.5 12.616 3.211 24.036 9.4 33.498 17.756h-63.966l-1.592-1.389-1.47 1.367c-.614.543-1.224 1.116-1.822 1.677-8.911 8.363-2.788 23.355 9.433 23.355h51.037c19.54 0 35.658 15.687 35.748 35.227.001.128.001.255.001.383 0 37.76-25.879 99.615-60.867 117.842 6.4 3.334 13.103 5.212 20.01 5.212 44.667 0 80.877-78.387 80.877-123.055 0-44.665-36.21-80.875-80.877-80.875z" fill="url(#SVGID_11_)"/><path d="m132.801 209.769c0-28.677-23.247-51.924-51.924-51.924s-51.924 23.247-51.924 51.924 23.247 79.003 51.924 79.003 51.924-50.326 51.924-79.003z" fill="url(#SVGID_12_)"/><path d="m121.737 224.777v-.38c-.09-19.54-16.21-35.23-35.75-35.23h-52.78c4.62-10.67 12.71-19.49 22.85-25.01 7.37-4.03 15.83-6.31 24.82-6.31 1.98 0 3.93.11 5.85.33 25.93 2.9 46.07 24.9 46.07 51.59 0 15.66-6.93 37.77-17.89 54.62 4.39-14.17 6.83-28.02 6.83-39.61z" fill="url(#SVGID_13_)"/></g><path d="m131.355 164.157h-100.956c-4.244 0-7.684-3.44-7.684-7.684v-30.913c0-15.411 12.493-27.904 27.904-27.904h60.518c15.411 0 27.904 12.493 27.904 27.904v30.912c-.001 4.244-3.442 7.685-7.686 7.685z" fill="url(#SVGID_14_)"/><path d="m111.136 97.657h-40.02c15.411 0 27.904 12.493 27.904 27.904v30.912c0 4.244-3.44 7.684-7.684 7.684h40.02c4.244 0 7.684-3.44 7.684-7.684v-30.913c0-15.41-12.493-27.903-27.904-27.903z" fill="url(#SVGID_15_)"/></g><g><g><path d="m510 224.778c0-44.667-36.21-80.877-80.877-80.877s-80.877 36.21-80.877 80.877 36.21 123.055 80.877 123.055 80.877-78.388 80.877-123.055z" fill="url(#SVGID_16_)"/><path d="m429.123 143.901c-6.907 0-13.61.87-20.01 2.5 12.616 3.211 24.036 9.4 33.498 17.756h-63.966l-1.592-1.389-1.47 1.367c-.615.543-1.224 1.116-1.822 1.677-8.911 8.363-2.788 23.355 9.433 23.355h51.037c19.54 0 35.658 15.687 35.748 35.227.001.128.001.255.001.383 0 37.76-25.879 99.615-60.867 117.842 6.4 3.334 13.103 5.212 20.01 5.212 44.667 0 80.877-78.387 80.877-123.055 0-44.665-36.21-80.875-80.877-80.875z" fill="url(#SVGID_17_)"/><path d="m481.047 209.769c0-28.677-23.247-51.924-51.924-51.924s-51.924 23.247-51.924 51.924 23.247 79.003 51.924 79.003c28.677-.001 51.924-50.326 51.924-79.003z" fill="url(#SVGID_18_)"/><path d="m469.983 224.777v-.38c-.09-19.54-16.21-35.23-35.75-35.23h-52.78c4.62-10.67 12.71-19.49 22.85-25.01 7.37-4.03 15.83-6.31 24.82-6.31 1.98 0 3.93.11 5.85.33 25.93 2.9 46.07 24.9 46.07 51.59 0 15.66-6.93 37.77-17.89 54.62 4.39-14.17 6.83-28.02 6.83-39.61z" fill="url(#SVGID_19_)"/></g><path d="m479.601 164.157h-100.956c-4.244 0-7.684-3.44-7.684-7.684v-30.913c0-15.411 12.493-27.904 27.904-27.904h60.518c15.411 0 27.904 12.493 27.904 27.904v30.912c-.001 4.244-3.442 7.685-7.686 7.685z" fill="url(#SVGID_20_)"/><path d="m459.382 97.657h-40.02c15.411 0 27.904 12.493 27.904 27.904v30.912c0 4.244-3.44 7.684-7.684 7.684h40.02c4.244 0 7.684-3.44 7.684-7.684v-30.913c0-15.41-12.493-27.903-27.904-27.903z" fill="url(#SVGID_21_)"/></g></g><g><path d="m255 428.55c-4.161 0-7.534 3.373-7.534 7.534v31.789c0 4.161 3.373 7.534 7.534 7.534s7.534-3.373 7.534-7.534v-31.789c.001-4.161-3.373-7.534-7.534-7.534z" fill="url(#SVGID_22_)"/><g fill="url(#SVGID_23_)"><path d="m129.607 386.539c-3.321-2.507-8.046-1.846-10.553 1.474l-19.151 25.373c-2.507 3.321-1.846 8.045 1.475 10.553 3.321 2.507 8.046 1.846 10.553-1.474l19.151-25.373c1.026-1.359 1.521-2.952 1.521-4.533 0-2.283-1.034-4.538-2.996-6.02z"/><path d="m410.097 413.387-19.151-25.373c-2.507-3.321-7.232-3.981-10.553-1.474s-3.982 7.231-1.475 10.553l19.151 25.373c2.507 3.321 7.232 3.981 10.553 1.474 1.963-1.481 2.996-3.737 2.996-6.02 0-1.58-.496-3.174-1.521-4.533z"/></g></g></g></svg>