<svg id="Capa_1" enable-background="new 0 0 510 510" height="512" viewBox="0 0 510 510" width="512" xmlns="http://www.w3.org/2000/svg" xmlns:xlink="http://www.w3.org/1999/xlink"><linearGradient id="lg1"><stop offset="0" stop-color="#97d729"/><stop offset=".5652" stop-color="#02905d"/><stop offset=".9955" stop-color="#026841"/></linearGradient><linearGradient id="SVGID_1_" gradientUnits="userSpaceOnUse" x1="26" x2="636.839" xlink:href="#lg1" y1="254.999" y2="254.999"/><linearGradient id="SVGID_2_" gradientUnits="userSpaceOnUse" x1="67.324" x2="567.934" y1="236.044" y2="236.044"><stop offset="0" stop-color="#eaf6ff"/><stop offset=".5213" stop-color="#d8ecfe"/><stop offset="1" stop-color="#b3dafe"/></linearGradient><linearGradient id="SVGID_3_" gradientUnits="userSpaceOnUse" x1="67.328" x2="567.928" y1="236.044" y2="236.044"><stop offset="0" stop-color="#d8ecfe"/><stop offset=".5667" stop-color="#b3dafe"/><stop offset=".9955" stop-color="#8ac9fe"/></linearGradient><linearGradient id="SVGID_4_" gradientUnits="userSpaceOnUse" x1="179.466" x2="330.534" xlink:href="#lg1" y1="159.166" y2="159.166"/><linearGradient id="SVGID_5_" gradientUnits="userSpaceOnUse" x1="227.523" x2="432.686" xlink:href="#lg1" y1="303.376" y2="303.376"/><linearGradient id="SVGID_6_" gradientUnits="userSpaceOnUse" x1="98.072" x2="404.189" xlink:href="#lg1" y1="323.972" y2="323.972"/><linearGradient id="SVGID_7_" gradientUnits="userSpaceOnUse" x1="59" x2="276.431" xlink:href="#lg1" y1="303.376" y2="303.376"/><linearGradient id="lg2"><stop offset="0" stop-color="#fe646f"/><stop offset=".5213" stop-color="#e41f2d"/><stop offset="1" stop-color="#c41926"/></linearGradient><linearGradient id="SVGID_8_" gradientUnits="userSpaceOnUse" x1="179.466" x2="287.367" xlink:href="#lg2" y1="231.749" y2="231.749"/><linearGradient id="SVGID_9_" gradientUnits="userSpaceOnUse" x1="246.363" x2="350.866" xlink:href="#lg2" y1="231.749" y2="231.749"/><linearGradient id="SVGID_10_" gradientUnits="userSpaceOnUse" x1="212.915" x2="318.504" xlink:href="#lg2" y1="286.406" y2="286.406"/><linearGradient id="SVGID_11_" gradientUnits="userSpaceOnUse" x1="26" x2="636.839" xlink:href="#lg2" y1="349.539" y2="349.539"/><linearGradient id="SVGID_12_" gradientUnits="userSpaceOnUse" x1="-68.42" x2="422.056" xlink:href="#lg2" y1="349.539" y2="349.539"/><linearGradient id="SVGID_13_" gradientUnits="userSpaceOnUse" x1="-11.423" x2="540.577" xlink:href="#lg2" y1="408.517" y2="408.517"/><linearGradient id="SVGID_14_" gradientUnits="userSpaceOnUse" x1="-75.92" x2="311.073" xlink:href="#lg2" y1="408.518" y2="408.518"/><g><path d="m231.417 13.125-220.873 170.518c-6.65 5.134-10.544 13.06-10.544 21.461v281.33c0 10.209 8.276 18.484 18.484 18.484h473.031c10.209 0 18.484-8.276 18.484-18.484v-281.33c0-8.401-3.894-16.327-10.544-21.461l-220.872-170.518c-13.893-10.726-33.273-10.726-47.166 0z" fill="url(#SVGID_1_)"/><path d="m446.099 427.135h-382.198c-9.877 0-17.884-8.007-17.884-17.884v-346.413c0-9.877 8.007-17.884 17.884-17.884h382.199c9.877 0 17.884 8.007 17.884 17.884v346.412c0 9.878-8.007 17.885-17.885 17.885z" fill="url(#SVGID_2_)"/><path d="m446.1 44.949h-40.02c9.88 0 17.88 8.01 17.88 17.89v125.06c0 25.233-11.697 49.041-31.67 64.461l-39.309 30.348c-5.122-11.797-5.218-25.254-.283-37.11 1.348-3.239-1.467-6.668-4.899-5.942-14.788 3.131-30.775-.887-42.478-12.012-1.137-11.745-7.105-22.069-15.888-28.979 3.642-5.684 8.463-10.541 14.12-14.221 2.941-1.913 2.506-6.329-.737-7.666-17.213-7.096-29.332-24.042-29.332-43.818 0-8.362 2.168-16.217 5.972-23.037 1.147-2.056-.315-4.551-2.67-4.545-.04 0-.079 0-.119 0-19.484 0-36.222-11.762-43.499-28.571-1.193-2.756-5.161-2.756-6.354 0-7.277 16.809-24.015 28.571-43.499 28.571-.04 0-.079 0-.119 0-2.354-.006-3.817 2.488-2.67 4.545 3.804 6.82 5.972 14.675 5.972 23.037 0 19.775-12.119 36.722-29.332 43.818-3.243 1.337-3.678 5.753-.737 7.666 5.656 3.68 10.477 8.537 14.12 14.221-8.783 6.911-14.751 17.234-15.889 28.979-11.703 11.124-27.691 15.142-42.478 12.012-3.432-.727-6.247 2.703-4.899 5.942 7.154 17.189 3.74 37.741-10.243 51.724-.165.165-.34.313-.507.475l-50.51-38.998v150.46c0 9.875 8.005 17.88 17.88 17.88h382.19c9.88 0 17.89-8.01 17.89-17.89v-346.42c-.003-9.874-8.008-17.88-17.883-17.88z" fill="url(#SVGID_3_)"/><g><path d="m181.437 184.443c12.989 8.45 21.582 23.098 21.582 39.747 0 .151-.001.301-.002.452-.026 2.792 2.507 4.885 5.245 4.342 2.993-.593 6.087-.904 9.255-.904 13.069 0 24.907 5.294 33.478 13.852 2.216 2.213 5.793 2.213 8.009 0 8.571-8.558 20.409-13.852 33.478-13.852 3.168 0 6.262.311 9.255.904 2.739.543 5.271-1.55 5.245-4.342-.001-.15-.002-.301-.002-.452 0-16.649 8.593-31.297 21.582-39.747 2.941-1.913 2.506-6.329-.737-7.666-17.213-7.096-29.331-24.042-29.331-43.818 0-8.362 2.168-16.217 5.972-23.037 1.147-2.056-.316-4.551-2.67-4.545-.04 0-.079 0-.119 0-19.484 0-36.222-11.762-43.499-28.571-1.193-2.756-5.161-2.756-6.354 0-7.277 16.809-24.015 28.571-43.499 28.571-.04 0-.079 0-.119 0-2.355-.006-3.817 2.488-2.67 4.545 3.804 6.82 5.972 14.675 5.972 23.037 0 19.775-12.119 36.722-29.332 43.818-3.245 1.338-3.679 5.753-.739 7.666z" fill="url(#SVGID_4_)"/><path d="m372.81 239.655c-15.16 3.209-31.594-1.072-43.366-12.844-.107-.107-.213-.214-.318-.321-1.956-1.993-5.226-1.681-6.779.639-1.697 2.536-3.665 4.943-5.905 7.183-9.241 9.241-21.355 13.868-33.467 13.877-3.132.002-5.661 2.532-5.663 5.663-.009 12.112-4.636 24.226-13.877 33.467-2.24 2.24-4.648 4.208-7.183 5.905-2.32 1.553-2.632 4.823-.639 6.779.107.105.214.211.321.318 11.772 11.772 16.054 28.207 12.844 43.366-.727 3.432 2.703 6.247 5.942 4.899 17.189-7.153 37.741-3.74 51.724 10.243 5.913 5.913 9.934 13 12.067 20.512.643 2.265 3.441 2.995 5.102 1.325l.084-.084c13.777-13.777 33.93-17.296 50.961-10.556 2.792 1.105 5.598-1.701 4.493-4.493-6.74-17.031-3.221-37.184 10.556-50.961l.084-.084c1.669-1.661.94-4.459-1.325-5.102-7.512-2.133-14.599-6.154-20.512-12.067-13.983-13.983-17.397-34.535-10.243-51.725 1.346-3.236-1.469-6.665-4.901-5.939z" fill="url(#SVGID_5_)"/><path d="m274.718 348.588c17.189-7.153 37.741-3.74 51.724 10.244 5.913 5.913 9.934 13 12.067 20.512.643 2.265 3.441 2.995 5.102 1.325l.084-.084c13.777-13.777 33.93-17.296 50.961-10.556 2.792 1.105 5.598-1.701 4.493-4.493-6.74-17.031-3.221-37.184 10.556-50.961l.084-.084c1.669-1.661.94-4.459-1.325-5.102-7.512-2.133-14.599-6.154-20.512-12.067-8.604-8.604-13.199-19.695-13.801-30.958l-104.634 80.781c1.121 1.514 3.196 2.277 5.201 1.443z" fill="url(#SVGID_6_)"/><path d="m137.19 239.655c15.16 3.209 31.594-1.072 43.366-12.844.107-.107.213-.214.318-.321 1.956-1.993 5.226-1.681 6.779.639 1.697 2.536 3.665 4.943 5.905 7.183 9.241 9.241 21.355 13.868 33.467 13.877 3.132.002 5.661 2.532 5.663 5.663.009 12.112 4.636 24.226 13.877 33.467 2.24 2.24 4.648 4.208 7.183 5.905 2.32 1.553 2.632 4.823.639 6.779-.107.105-.214.211-.321.318-11.772 11.772-16.054 28.207-12.844 43.366.727 3.432-2.703 6.247-5.942 4.899-17.189-7.153-37.741-3.74-51.724 10.243-5.913 5.913-9.934 13-12.067 20.512-.643 2.265-3.441 2.995-5.102 1.325-.028-.028-.056-.056-.084-.084-13.777-13.777-33.93-17.296-50.961-10.556-2.792 1.105-5.598-1.701-4.493-4.493 6.74-17.031 3.221-37.184-10.556-50.961-.028-.028-.056-.056-.084-.084-1.669-1.661-.94-4.459 1.325-5.102 7.512-2.133 14.599-6.154 20.512-12.067 13.983-13.983 17.397-34.535 10.243-51.725-1.346-3.236 1.469-6.665 4.901-5.939z" fill="url(#SVGID_7_)"/><circle cx="221.552" cy="231.749" fill="url(#SVGID_8_)" r="42.085"/><circle cx="288.448" cy="231.749" fill="url(#SVGID_9_)" r="42.085"/><circle cx="255" cy="286.406" fill="url(#SVGID_10_)" r="42.085"/></g><path d="m510 205.099v281.33c0 10.21-8.28 18.49-18.48 18.49h-473.04c-10.2 0-18.48-8.28-18.48-18.49v-281.33c0-3.82.8-7.54 2.31-10.94l252.69 195.09 252.69-195.09c1.51 3.4 2.31 7.12 2.31 10.94z" fill="url(#SVGID_11_)"/><path d="m510 205.099v281.33c0 10.21-8.28 18.49-18.48 18.49h-473.04c-10.2 0-18.48-8.28-18.48-18.49v-8.03l127.535-98.459c19.064-14.718 19.065-43.485.001-58.204l-127.536-98.467v-18.17c0-3.82.8-7.54 2.31-10.94l230.315 177.815c13.181 10.177 31.57 10.177 44.751 0 13.181-10.177 31.569-10.177 44.75-.001l147.854 114.146v-262.85l37.71-29.11c1.51 3.4 2.31 7.12 2.31 10.94z" fill="url(#SVGID_12_)"/><path d="m507.46 495.753-226.311-174.717c-15.404-11.892-36.893-11.892-52.297 0l-226.312 174.717c3.208 5.477 9.139 9.165 15.945 9.165h473.031c6.805 0 12.736-3.688 15.944-9.165z" fill="url(#SVGID_13_)"/><path d="m281.149 321.036c-13.448-10.382-31.533-11.698-46.159-3.953 2.127 1.126 4.182 2.443 6.139 3.953l216.099 166.833c7.072 5.46 3.406 16.952-5.528 17.049-.068.001-.136.001-.204.001h40.02c6.806 0 12.736-3.689 15.945-9.165z" fill="url(#SVGID_14_)"/></g></svg>