<svg id="Capa_1" enable-background="new 0 0 510 510" height="512" viewBox="0 0 510 510" width="512" xmlns="http://www.w3.org/2000/svg" xmlns:xlink="http://www.w3.org/1999/xlink"><linearGradient id="lg1"><stop offset="0" stop-color="#97d729"/><stop offset=".5652" stop-color="#02905d"/><stop offset=".9955" stop-color="#026841"/></linearGradient><linearGradient id="SVGID_1_" gradientUnits="userSpaceOnUse" x1="237.891" x2="529.862" xlink:href="#lg1" y1="102.171" y2="102.171"/><linearGradient id="SVGID_2_" gradientUnits="userSpaceOnUse" x1="191.969" x2="492.107" xlink:href="#lg1" y1="102.171" y2="102.171"/><linearGradient id="lg2"><stop offset="0" stop-color="#fbc56d"/><stop offset=".4576" stop-color="#fe9738"/><stop offset=".9984" stop-color="#fb2b3a"/></linearGradient><linearGradient id="SVGID_3_" gradientUnits="userSpaceOnUse" x1="359.711" x2="480.242" xlink:href="#lg2" y1="150.492" y2="150.492"/><linearGradient id="SVGID_4_" gradientUnits="userSpaceOnUse" x1="295.605" x2="477.986" xlink:href="#lg2" y1="150.492" y2="150.492"/><linearGradient id="lg3"><stop offset="0" stop-color="#fe646f"/><stop offset=".5213" stop-color="#e41f2d"/><stop offset="1" stop-color="#c41926"/></linearGradient><linearGradient id="SVGID_5_" gradientUnits="userSpaceOnUse" x1="298.902" x2="507.277" xlink:href="#lg3" y1="403.552" y2="403.552"/><linearGradient id="SVGID_6_" gradientUnits="userSpaceOnUse" x1="289.989" x2="517.494" xlink:href="#lg1" y1="335.482" y2="335.482"/><linearGradient id="SVGID_7_" gradientUnits="userSpaceOnUse" x1="290.668" x2="522.419" xlink:href="#lg3" y1="264.547" y2="264.547"/><linearGradient id="SVGID_8_" gradientUnits="userSpaceOnUse" x1="303.065" x2="509.493" xlink:href="#lg1" y1="202.548" y2="202.548"/><linearGradient id="SVGID_9_" gradientUnits="userSpaceOnUse" x1="308.192" x2="499.109" xlink:href="#lg1" y1="472.034" y2="472.034"/><linearGradient id="SVGID_10_" gradientUnits="userSpaceOnUse" x1="240" x2="473.815" xlink:href="#lg3" y1="264.548" y2="264.548"/><linearGradient id="SVGID_11_" gradientUnits="userSpaceOnUse" x1="244" x2="484.502" xlink:href="#lg1" y1="202.548" y2="202.548"/><linearGradient id="SVGID_12_" gradientUnits="userSpaceOnUse" x1="287" x2="447.344" xlink:href="#lg1" y1="472.029" y2="472.029"/><linearGradient id="SVGID_13_" gradientUnits="userSpaceOnUse" x1="241" x2="474.091" xlink:href="#lg1" y1="335.484" y2="335.484"/><linearGradient id="SVGID_14_" gradientUnits="userSpaceOnUse" x1="216.5" x2="427.768" xlink:href="#lg3" y1="403.552" y2="403.552"/><linearGradient id="SVGID_15_" gradientUnits="userSpaceOnUse" x1="-1.333" x2="254.314" xlink:href="#lg1" y1="102.168" y2="102.168"/><linearGradient id="SVGID_16_" gradientUnits="userSpaceOnUse" x1="-32.667" x2="212.67" xlink:href="#lg1" y1="124.051" y2="124.051"/><linearGradient id="SVGID_17_" gradientUnits="userSpaceOnUse" x1="-32.667" x2="212.67" xlink:href="#lg1" y1="102.168" y2="102.168"/><linearGradient id="SVGID_18_" gradientUnits="userSpaceOnUse" x1="57.641" x2="178.172" xlink:href="#lg2" y1="150.489" y2="150.489"/><linearGradient id="SVGID_19_" gradientUnits="userSpaceOnUse" x1="-6.466" x2="175.916" xlink:href="#lg2" y1="150.489" y2="150.489"/><linearGradient id="SVGID_20_" gradientUnits="userSpaceOnUse" x1="9.333" x2="219.994" xlink:href="#lg3" y1="334.795" y2="334.795"/><linearGradient id="SVGID_21_" gradientUnits="userSpaceOnUse" x1="-90" x2="166.087" xlink:href="#lg3" y1="334.799" y2="334.799"/><linearGradient id="lg4"><stop offset="0" stop-color="#fef056"/><stop offset=".5213" stop-color="#f4d902"/><stop offset="1" stop-color="#fe9738"/></linearGradient><linearGradient id="SVGID_22_" gradientUnits="userSpaceOnUse" x1="41.9" x2="188.02" xlink:href="#lg4" y1="211.927" y2="211.927"/><linearGradient id="SVGID_23_" gradientUnits="userSpaceOnUse" x1="16.2" x2="194.08" xlink:href="#lg4" y1="279.165" y2="279.165"/><linearGradient id="SVGID_24_" gradientUnits="userSpaceOnUse" x1="15.42" x2="177.881" xlink:href="#lg4" y1="356.322" y2="356.322"/><linearGradient id="SVGID_25_" gradientUnits="userSpaceOnUse" x1="41.929" x2="151.032" xlink:href="#lg4" y1="443.478" y2="443.478"/><linearGradient id="SVGID_26_" gradientUnits="userSpaceOnUse" x1="-94.667" x2="172.72" xlink:href="#lg4" y1="202.047" y2="202.047"/><linearGradient id="SVGID_27_" gradientUnits="userSpaceOnUse" x1="-94.667" x2="172.72" xlink:href="#lg4" y1="232.412" y2="232.412"/><linearGradient id="SVGID_28_" gradientUnits="userSpaceOnUse" x1="-94.667" x2="172.72" xlink:href="#lg4" y1="269.247" y2="269.247"/><linearGradient id="SVGID_29_" gradientUnits="userSpaceOnUse" x1="-94.667" x2="172.72" xlink:href="#lg4" y1="310.852" y2="310.852"/><linearGradient id="SVGID_30_" gradientUnits="userSpaceOnUse" x1="-94.667" x2="172.72" xlink:href="#lg4" y1="346.752" y2="346.752"/><linearGradient id="SVGID_31_" gradientUnits="userSpaceOnUse" x1="-94.667" x2="172.72" xlink:href="#lg4" y1="387.017" y2="387.017"/><linearGradient id="SVGID_32_" gradientUnits="userSpaceOnUse" x1="-94.667" x2="172.72" xlink:href="#lg4" y1="443.477" y2="443.477"/><linearGradient id="SVGID_33_" gradientUnits="userSpaceOnUse" x1="87.099" x2="448.78" xlink:href="#lg1" y1="47" y2="47"/><linearGradient id="SVGID_34_" gradientUnits="userSpaceOnUse" x1="30" x2="402" xlink:href="#lg1" y1="47.001" y2="47.001"/><linearGradient id="SVGID_35_" gradientUnits="userSpaceOnUse" x1="208.676" x2="329.207" xlink:href="#lg2" y1="95.319" y2="95.319"/><linearGradient id="SVGID_36_" gradientUnits="userSpaceOnUse" x1="144.569" x2="326.951" xlink:href="#lg2" y1="95.319" y2="95.319"/><linearGradient id="SVGID_37_" gradientUnits="userSpaceOnUse" x1="140.74" x2="367.016" y1="279.626" y2="279.626"><stop offset="0" stop-color="#eaf6ff"/><stop offset=".5213" stop-color="#d8ecfe"/><stop offset="1" stop-color="#b3dafe"/></linearGradient><linearGradient id="SVGID_38_" gradientUnits="userSpaceOnUse" x1="19.913" x2="373.825" y1="279.621" y2="279.621"><stop offset="0" stop-color="#d8ecfe"/><stop offset=".5667" stop-color="#b3dafe"/><stop offset=".9955" stop-color="#8ac9fe"/></linearGradient><linearGradient id="SVGID_39_" gradientUnits="userSpaceOnUse" x1="169.989" x2="391.181" xlink:href="#lg3" y1="300.495" y2="300.495"/><linearGradient id="SVGID_40_" gradientUnits="userSpaceOnUse" x1="110.63" x2="380.417" xlink:href="#lg4" y1="296.323" y2="296.323"/><linearGradient id="SVGID_41_" gradientUnits="userSpaceOnUse" x1="58" x2="331.046" xlink:href="#lg3" y1="300.495" y2="300.495"/><g><g><path d="m510 116.011c0 4.823-2.773 9.216-7.126 11.293-1.548.739-3.107 1.461-4.674 2.167-29.05 13.07-60.06 19.7-92.16 19.7-32.11 0-63.12-6.63-92.17-19.7-28.06-12.621-52.87-30.571-73.73-53.361-4.66-5.09-4.31-12.99.78-17.66 5.09-4.66 13-4.31 17.66.78 18.55 20.26 40.61 36.22 65.55 47.44 25.8 11.61 53.36 17.5 81.91 17.5 28.54 0 56.1-5.89 81.9-17.5 1.387-.623 2.765-1.262 4.134-1.915 8.316-3.967 17.926 2.041 17.926 11.256z" fill="url(#SVGID_1_)"/><path d="m406.04 149.17c32.1 0 63.11-6.63 92.16-19.7 1.567-.705 3.125-1.427 4.673-2.166 4.353-2.076 7.127-6.47 7.127-11.294 0-2.344-.624-4.478-1.688-6.296-11.042 7.596-22.761 14.198-35.122 19.755-.041.018-.082.037-.122.055-6.649 2.978-13.531 5.399-20.544 7.375-4.736 1.334-10.051 2.873-11.733 3.52v-19.259c-11.381 1.991-22.98 3.009-34.75 3.009-28.55 0-56.11-5.89-81.91-17.5-24.94-11.22-47-27.18-65.55-47.44-4.66-5.09-12.57-5.44-17.66-.78-1.561 1.433-2.672 3.17-3.333 5.036 14.158 14.597 30.216 26.805 47.934 36.443 8.52 4.63 14.38 12.99 15.59 22.62l.061.708c4.158 2.19 8.385 4.272 12.699 6.212 29.048 13.072 60.058 19.702 92.168 19.702z" fill="url(#SVGID_2_)"/><path d="m451.931 190.605h-91.791v-55.515c0-13.648 11.064-24.713 24.713-24.713h42.366c13.648 0 24.713 11.064 24.713 24.713v55.515z" fill="url(#SVGID_3_)"/><path d="m427.219 110.378h-40.02c13.648 0 24.713 11.064 24.713 24.713v55.515h40.02v-55.516c-.001-13.648-11.065-24.712-24.713-24.712z" fill="url(#SVGID_4_)"/><g><path d="m335.81 375.202c2.203 8.146 4.595 16.219 7.123 24.161 4.726 14.847 15.365 27.066 29.407 33.818 5.331 2.563 10.786 7.088 16.352 9.561 9.596 4.265 19.085 6.186 28.374 9.749 15.874 6.09 33.639-1.833 39.683-17.725.085-.224.17-.447.255-.671 7.43-19.594-2.79-41.509-22.599-48.348-14.682-5.068-30.056-13.114-45.713-20.073-9.564-4.25-18.804-6.651-27.647-11.141-13.791-7.001-29.272 5.739-25.235 20.669z" fill="url(#SVGID_5_)"/><path d="m388.691 292.608c-6.071-2.698-12.012-3.457-17.803-6.261-22.321-10.806-47.926 6.56-46.019 31.286.023.292.045.583.068.872.847 10.698 6.994 20.232 16.352 25.485 14.512 8.146 30.449 16.151 47.402 23.686 15.944 7.086 31.595 13.226 46.52 18.351 19.221 6.6 39.862-4.958 44.603-24.72.056-.233.112-.467.167-.7 4.238-17.782-6.207-35.825-23.752-40.956-3.426-1.002-6.907-2.065-10.437-3.189-18.033-5.745-37.341-15.072-57.101-23.854z" fill="url(#SVGID_6_)"/><path d="m488.72 283.018c.002-.297.003-.593.005-.888.075-15.669-10.358-29.421-25.472-33.557-22.763-6.231-48.262-15.343-74.562-27.031-4.911-2.183-9.737-4.405-14.467-6.659-17.782-8.473-39.132.509-45.019 19.306-.065.209-.13.418-.195.627-4.516 14.632 1.986 30.436 15.391 37.839 13.667 7.548 28.539 14.954 44.29 21.954 18.896 8.398 37.379 15.466 54.731 21.091 22.281 7.222 45.155-9.26 45.298-32.682z" fill="url(#SVGID_7_)"/><path d="m449.251 244.48c18.058 5.599 34.03-12.887 25.939-29.975-15.217-32.135-40.515-54.91-69.154-54.91-17.056 0-32.926 8.078-46.189 21.4-8.766 8.805-6.439 23.604 4.677 29.154 7.779 3.884 15.851 9.694 24.168 13.391 21.027 9.346 41.544 15.045 60.559 20.94z" fill="url(#SVGID_8_)"/><path d="m376.549 435.185c-9.346-4.404-19.22 4.983-15.348 14.562 6.562 16.231 13.211 31.14 19.31 44.063 10.188 21.587 40.862 21.587 51.049 0 .551-1.167 1.106-2.351 1.665-3.55 6.776-14.529-.276-31.705-15.254-37.421-9.577-3.655-19.372-7.692-29.28-12.096-4.109-1.827-8.159-3.681-12.142-5.558z" fill="url(#SVGID_9_)"/></g><g><path d="m463.253 248.572c-22.763-6.231-48.262-15.343-74.562-27.031-4.911-2.183-9.737-4.405-14.467-6.659-11.331-5.399-24.104-3.702-33.408 3.097 2.594 1.197 5.21 2.386 7.855 3.562 26.3 11.688 51.799 20.8 74.562 27.031 15.113 4.137 25.547 17.889 25.472 33.558-.001.295-.003.592-.005.888-.076 12.501-6.63 23.022-16.111 29.02 3.651 1.275 7.272 2.506 10.834 3.661 22.281 7.223 45.154-9.26 45.297-32.681.002-.297.003-.593.005-.888.075-15.669-10.359-29.421-25.472-33.558z" fill="url(#SVGID_10_)"/><path d="m475.189 214.506c-15.217-32.135-40.514-54.91-69.154-54.91-6.892 0-13.586 1.339-19.998 3.791 20.22 7.74 37.582 26.727 49.132 51.119 4.178 8.823 1.931 18.01-3.696 24.07 6.042 2.126 11.986 4.109 17.777 5.904 18.059 5.6 34.031-12.887 25.939-29.974z" fill="url(#SVGID_11_)"/><path d="m417.972 452.839c-9.577-3.655-19.372-7.692-29.28-12.096-4.11-1.826-8.159-3.681-12.143-5.558-8.038-3.787-16.457 2.627-16.197 10.589 5.928 2.487 11.807 4.854 17.599 7.065 14.978 5.716 22.03 22.892 15.254 37.421-.56 1.199-1.115 2.383-1.666 3.55-1.456 3.085-3.341 5.714-5.515 7.918 13.033 13.213 36.803 10.584 45.535-7.918.551-1.167 1.106-2.351 1.666-3.55 6.776-14.529-.276-31.705-15.253-37.421z" fill="url(#SVGID_12_)"/><path d="m456.23 319.65c-20.931-6.121-43.912-14.542-67.539-25.042-6.071-2.698-12.012-5.457-17.803-8.261-11.67-5.65-24.23-3.589-33.294 3.188 3.646 1.709 7.327 3.406 11.077 5.072 23.627 10.5 46.607 18.921 67.539 25.042 17.545 5.131 27.99 23.174 23.752 40.956-.056.233-.112.467-.167.7-2.176 9.067-7.704 16.4-14.901 21.051 3.472 1.273 6.916 2.5 10.318 3.668 19.221 6.6 39.862-4.958 44.604-24.719.056-.233.112-.467.167-.7 4.237-17.78-6.208-35.824-23.753-40.955z" fill="url(#SVGID_13_)"/><path d="m434.404 385.748c-14.682-5.068-30.056-11.114-45.713-18.073-9.564-4.25-18.804-8.651-27.647-13.141-9.478-4.813-19.754-.3-23.944 7.84 3.805 1.787 7.653 3.559 11.571 5.301 15.657 6.958 31.031 13.004 45.713 18.073 19.808 6.838 30.029 28.754 22.599 48.348-.085.224-.17.448-.255.671-2.13 5.601-5.72 10.206-10.167 13.563 3.523 1.431 7.031 2.83 10.504 4.162 15.875 6.09 33.639-1.833 39.683-17.725.085-.224.17-.447.255-.671 7.43-19.594-2.791-41.51-22.599-48.348z" fill="url(#SVGID_14_)"/></g></g><g><path d="m0 116.008c0 4.823 2.773 9.216 7.126 11.293 1.548.739 3.107 1.461 4.674 2.167 29.05 13.07 60.06 19.7 92.16 19.7 32.11 0 63.12-6.63 92.17-19.7 28.06-12.62 52.87-30.57 73.73-53.36 4.66-5.09 4.31-12.99-.78-17.66-5.09-4.66-13-4.31-17.66.78-18.55 20.26-40.61 36.22-65.55 47.44-25.8 11.61-53.36 17.5-81.91 17.5-28.54 0-56.1-5.89-81.9-17.5-1.387-.623-2.765-1.262-4.134-1.915-8.316-3.968-17.926 2.041-17.926 11.255z" fill="url(#SVGID_15_)"/><g><path d="m58.51 118.997c-8.49-1.98-16.83-4.51-25.02-7.61-3.85-1.45-7.66-3.02-11.43-4.72-1.39-.62-2.76-1.26-4.13-1.91-5.88-2.8-12.4-.63-15.72 4.14 5.656 2.361 11.391 4.451 17.201 6.265 8.417 2.629 14.079 10.519 14.079 19.336v3.408c8.21 2.72 16.56 4.95 25.02 6.68v-4.839c0-8.789 7.239-15.815 16.026-15.628 1.469.031 2.94.047 4.414.047 4.19 0 8.36-.13 12.51-.38-11.17-.679-22.17-2.279-32.95-4.789z" fill="url(#SVGID_16_)"/><path d="m269.08 58.447c-5.09-4.66-13-4.31-17.66.78-1.32 1.44-2.66 2.86-4.01 4.26-11.29 11.64-23.79 21.76-37.38 30.26-7.71 4.83-15.77 9.15-24.16 12.92-.28.13-.57.25-.85.38v.877c0 9.231-5.343 17.683-13.758 21.479-.047.021-.095.043-.142.064-25.26 11.36-52 17.86-79.66 19.36 4.15.23 8.31.34 12.5.34 28.05 0 55.27-5.06 81.06-15.05 3.74-1.45 7.44-3 11.11-4.65 4.73-2.13 9.36-4.4 13.9-6.83 22.41-11.98 42.48-27.58 59.83-46.53 4.66-5.09 4.31-12.99-.78-17.66z" fill="url(#SVGID_17_)"/></g><path d="m149.86 190.602h-91.791v-55.515c0-13.648 11.064-24.713 24.713-24.713h42.366c13.648 0 24.713 11.064 24.713 24.713v55.515z" fill="url(#SVGID_18_)"/><path d="m125.148 110.375h-40.02c13.648 0 24.713 11.064 24.713 24.713v55.515h40.02v-55.515c-.001-13.649-11.065-24.713-24.713-24.713z" fill="url(#SVGID_19_)"/><path d="m103.965 159.593c-46.519 0-84.23 60.087-84.23 122.773 0 73.597 33.916 158.913 58.705 211.44 10.188 21.587 40.862 21.587 51.049 0 24.789-52.527 58.705-137.843 58.705-211.44.001-62.686-37.71-122.773-84.229-122.773z" fill="url(#SVGID_20_)"/><path d="m188.19 282.367c0 9.98-.62 20.18-1.77 30.48-.55 4.98-1.22 9.98-2 15-.05.34-.1.68-.16 1.03-.79 4.98-1.68 9.97-2.67 14.96-3.08 15.53-7.08 31.06-11.63 46.2-1.48 4.91-3.01 9.79-4.6 14.61-.09.3-.19.59-.29.89-1.61 4.89-3.27 9.72-4.97 14.48-5.48 15.42-11.32 30.12-17.08 43.64-2.05 4.83-4.1 9.5-6.11 14.01-.08.18-.16.36-.24.54-2.17 4.83-4.3 9.46-6.37 13.87-.27.58-.54 1.16-.81 1.73-8.73 18.5-32.49 21.15-45.53 7.94 2.18-2.21 4.05-4.85 5.51-7.94.019-.041.039-.082.058-.123 3.216-6.817.141-14.947-6.77-17.957-.096-.042-.192-.084-.288-.126-9.954-4.348-17.833-12.387-21.949-22.439-.755-1.843-1.509-3.705-2.261-5.585-.25-.6-.48-1.2-.72-1.8-2.56-6.42-5.09-13.03-7.57-19.79 1.23.09 2.46.49 3.57 1.21 14.96 9.81 33.49 18.82 53.6 26.04.06.02.13.05.19.07 2.651-6.471 5.297-13.166 7.895-20.041 4.249-11.246-1.618-23.722-12.937-27.775-.069-.025-.139-.05-.208-.075-19.669-7.073-37.73-15.715-52.712-25.04-11.19-6.965-19.162-18.111-21.892-31.005-.093-.438-.185-.876-.276-1.314-.41-1.96-.81-3.91-1.19-5.87-1.08-5.57-2.04-11.14-2.87-16.69 2.08.06 4.13.98 5.56 2.71 13.7 16.56 43.76 34.59 78.45 47.06 8.33 2.99 16.66 5.59 24.85 7.75 1.666-5.816 3.244-11.678 4.714-17.568 3.507-14.052-4.545-28.484-18.414-32.655-5.381-1.618-10.799-3.406-16.22-5.357-28.942-10.398-54.559-24.307-71.878-38.75-6.879-5.737-10.501-14.537-9.547-23.444.005-.045.01-.091.015-.136.05-.4.09-.79.14-1.19.6-5.23 1.46-10.39 2.56-15.46 2.22-.11 4.46.77 6.02 2.59 14.22 16.57 43.29 33.86 77.76 46.24 13.32 4.79 26.81 8.58 39.7 11.22.86-8.82 1.32-17.56 1.32-26.14 0-.08 0-.16 0-.24-.02-13.167-9.37-24.425-22.217-27.316-11.969-2.693-24.304-6.288-36.543-10.694-16-5.743-31.069-12.57-44.315-20.044-6.72-3.791-9.202-12.312-5.372-19.01.022-.039.045-.078.067-.117.23-.41.46-.82.7-1.22 2.34-3.99 4.85-7.78 7.5-11.34 13.53 8.06 29.43 15.46 46.49 21.59 14.69 5.28 29.47 9.33 43.46 11.97-11.2-29.82-30.7-53.67-53.99-62.58 6.41-2.45 13.12-3.77 20.01-3.77 46.52.001 84.23 60.081 84.23 122.771z" fill="url(#SVGID_21_)"/><g><path d="m180.524 240.818c-.082 0-.163-.001-.245-.004-23.128-.742-50.902-6.556-78.206-16.369-21.263-7.641-40.901-17.198-56.791-27.64-3.462-2.274-4.425-6.924-2.149-10.386s6.923-4.427 10.386-2.149c14.917 9.801 33.461 18.812 53.628 26.06 25.868 9.297 52.011 14.799 73.613 15.492 4.141.133 7.389 3.597 7.256 7.736-.13 4.058-3.461 7.26-7.492 7.26z" fill="url(#SVGID_22_)"/><path d="m185.21 318.874c-24.101 0-53.55-5.82-83.135-16.448-36.807-13.223-68.233-32.133-84.066-50.585-2.697-3.144-2.336-7.878.808-10.575 3.143-2.699 7.879-2.336 10.575.808 14.218 16.568 43.284 33.853 77.755 46.235 27.608 9.918 55.984 15.565 78.11 15.565.419 0 .835-.002 1.25-.007h.075c4.107 0 7.457 3.31 7.498 7.427.04 4.142-3.284 7.532-7.427 7.573-.478.004-.96.007-1.443.007z" fill="url(#SVGID_23_)"/><path d="m170.389 396.138c-.227 0-.455-.011-.686-.031-20.916-1.896-44.302-7.324-67.628-15.701-37.631-13.524-69.382-32.82-84.934-51.617-2.641-3.191-2.194-7.919.997-10.56s7.919-2.194 10.56.997c13.705 16.564 43.765 34.598 78.448 47.063 22.144 7.951 44.244 13.097 63.91 14.878 4.125.374 7.166 4.021 6.793 8.146-.353 3.895-3.624 6.825-7.46 6.825z" fill="url(#SVGID_24_)"/><path d="m143.538 469.969c-.516 0-1.039-.054-1.563-.165-13.105-2.778-26.53-6.624-39.9-11.428-21.206-7.615-40.833-17.165-56.76-27.618-3.463-2.273-4.428-6.923-2.155-10.386 2.274-3.464 6.924-4.426 10.386-2.155 14.954 9.815 33.488 18.82 53.6 26.042 12.734 4.576 25.499 8.233 37.941 10.871 4.052.859 6.641 4.841 5.781 8.893-.749 3.527-3.863 5.946-7.33 5.946z" fill="url(#SVGID_25_)"/></g><g><path d="m144.43 221.057c-12.13-2.6-24.74-6.22-37.28-10.73-20.17-7.25-38.71-16.26-53.63-26.06-3.46-2.27-8.11-1.31-10.39 2.15-.43.65-.74 1.35-.95 2.06 12.01 6.61 25.57 12.68 39.96 17.85 21.49 7.73 43.18 12.83 62.29 14.73z" fill="url(#SVGID_26_)"/><path d="m155.51 236.817h-.24c-4.23-.14-8.61-.45-13.12-.91 13.46 2.85 26.39 4.53 38.13 4.91h.24c4.03 0 7.37-3.2 7.5-7.26.13-4.14-3.12-7.6-7.26-7.74-6.3-.2-13-.81-19.96-1.81 1.42 1.41 2.27 3.39 2.2 5.55-.13 4.06-3.46 7.26-7.49 7.26z" fill="url(#SVGID_27_)"/><path d="m29.39 242.077c-2.69-3.15-7.43-3.51-10.57-.81-2.53 2.17-3.26 5.65-2.04 8.56 15.82 12.69 39.01 25.02 65.36 34.48 21.41 7.69 43.28 12.82 62.34 14.73-12.17-2.62-24.83-6.24-37.33-10.73-34.47-12.38-63.54-29.67-77.76-46.23z" fill="url(#SVGID_28_)"/><path d="m186.58 303.867h-.07c-.42.01-.83.01-1.25.01-5.55 0-11.5-.36-17.73-1.05.95 1.24 1.52 2.79 1.54 4.47.04 4.14-3.29 7.53-7.43 7.57-.48 0-.96.01-1.44.01-5.77 0-11.84-.33-18.15-.99 15.41 3.27 30.07 4.99 43.16 4.99.48 0 .96-.01 1.44-.01 4.15-.04 7.47-3.43 7.43-7.57-.04-4.12-3.39-7.43-7.5-7.43z" fill="url(#SVGID_29_)"/><path d="m28.7 319.227c-2.64-3.19-7.37-3.64-10.56-1-2.71 2.25-3.44 6.01-1.97 9.04 15.86 12.83 39.58 25.54 65.97 35.02 21.49 7.72 42.95 12.8 62.18 14.71-12.09-2.6-24.62-6.2-37.17-10.71-34.69-12.46-64.75-30.5-78.45-47.06z" fill="url(#SVGID_30_)"/><path d="m171.06 381.167c-7.18-.65-14.68-1.75-22.39-3.27 2.71 1.33 4.46 4.23 4.17 7.42-.35 3.89-3.63 6.82-7.46 6.82-.23 0-.46-.01-.69-.03-.89-.08-1.79-.17-2.69-.27 9.55 2.03 18.84 3.47 27.7 4.27.23.02.46.03.69.03 3.83 0 7.11-2.93 7.46-6.82.37-4.13-2.67-7.78-6.79-8.15z" fill="url(#SVGID_31_)"/><path d="m145.09 455.127c-12.45-2.63-25.21-6.29-37.95-10.87-20.11-7.22-38.64-16.22-53.6-26.04-3.46-2.27-8.11-1.31-10.38 2.16-.43.65-.74 1.35-.94 2.06 12.02 6.61 25.56 12.67 39.91 17.82 12.74 4.58 25.5 8.24 37.94 10.87 4.06.86 6.65 4.84 5.79 8.9-.45 2.13-1.77 3.86-3.52 4.88 6.6 1.89 13.15 3.53 19.63 4.9.53.11 1.05.16 1.57.16 3.46 0 6.58-2.42 7.33-5.94.86-4.06-1.73-8.04-5.78-8.9z" fill="url(#SVGID_32_)"/></g></g><g><path d="m255 94c-32.102 0-63.111-6.627-92.166-19.699-28.059-12.624-52.865-30.576-73.729-53.359-4.662-5.091-4.314-12.998.777-17.661 5.092-4.662 12.998-4.314 17.661.777 18.555 20.261 40.608 36.224 65.549 47.444 25.807 11.611 53.366 17.498 81.908 17.498s56.101-5.887 81.909-17.498c24.939-11.22 46.993-27.183 65.548-47.444 4.664-5.092 12.571-5.437 17.661-.777 5.091 4.663 5.438 12.569.776 17.661-20.864 22.783-45.67 40.736-73.729 53.359-29.054 13.071-60.062 19.699-92.165 19.699z" fill="url(#SVGID_33_)"/><path d="m420.89 20.94c-20.86 22.78-45.67 40.74-73.72 53.36-12.13 5.46-24.61 9.79-37.36 12.99-17.78 4.46-36.11 6.71-54.81 6.71-4.19 0-8.35-.11-12.5-.34-27.65-1.5-54.4-7.99-79.67-19.36-4.3-1.93-8.53-3.99-12.67-6.18l-.09-.74c-1.21-9.63-7.07-17.99-15.59-22.62-17.72-9.64-33.78-21.85-47.94-36.45.66-1.87 1.78-3.6 3.34-5.03 5.09-4.66 13-4.31 17.66.78 14.24 15.54 30.53 28.56 48.61 38.83 5.48 3.13 11.13 6 16.94 8.61 22.02 9.9 45.31 15.65 69.4 17.12 4.15.25 8.32.38 12.51.38 11.77 0 23.37-1 34.75-2.99v19.24c3.25-1.25 20.06-5.83 20.06-5.83 4.15-1.58 8.26-3.29 12.34-5.12 28.06-12.62 52.87-30.58 73.73-53.36 3.24-3.53 4.06-8.41 2.57-12.63 1.28-1.31 2.54-2.65 3.79-4.01 4.62-5.03 12.54-5.71 17.68-1.2 5.28 4.64 5.7 12.68.97 17.84z" fill="url(#SVGID_34_)"/><g><path d="m300.896 135.433h-91.791v-55.515c0-13.648 11.064-24.713 24.713-24.713h42.366c13.648 0 24.713 11.064 24.713 24.713v55.515z" fill="url(#SVGID_35_)"/><path d="m276.183 55.206h-40.02c13.648 0 24.713 11.064 24.713 24.713v55.515h40.02v-55.516c0-13.648-11.064-24.712-24.713-24.712z" fill="url(#SVGID_36_)"/><g><path d="m255 104.424c-35.895 0-66.547 35.777-78.674 80.918-3.589 13.36 3.703 28.358 3.703 42.674 0 62.6 15.279 132.861 37.867 185.029 3.968 9.164 7.876 17.745 11.58 25.593 10.188 21.587 40.862 21.587 51.049 0 3.801-8.054 7.816-16.878 11.891-26.313 22.501-52.101 25.038-125.1 25.038-187.413 0-14.302 19.814-26.184 16.232-39.532-12.122-45.159-42.78-80.956-78.686-80.956z" fill="url(#SVGID_37_)"/><path d="m255 104.424c-6.896 0-13.595 1.33-20.01 3.783 36.858 14.097 64.22 65.596 64.22 118.99 0 73.597-33.917 158.913-58.706 211.44-1.456 3.085-3.341 5.714-5.515 7.918 13.033 13.213 36.803 10.584 45.535-7.918 3.677-7.792 7.555-16.305 11.493-25.394 22.612-52.186 43.212-123.366 43.212-186.046 0-14.371 2.018-28.606-1.598-42.011-12.155-45.068-42.777-80.762-78.631-80.762z" fill="url(#SVGID_38_)"/><path d="m339.225 227.193c0 20.056-2.515 40.976-6.681 61.857-8.866 44.469-25.188 88.798-40.569 124.312-11.762 1.689-24.159 2.591-36.975 2.591s-25.213-.902-36.975-2.591c-15.382-35.514-31.704-79.843-40.569-124.312-4.166-20.882-6.681-41.801-6.681-61.857 0-14.429 1.994-28.719 5.64-42.157 22.215 8.002 49.321 12.714 78.586 12.714s56.37-4.712 78.586-12.714c3.644 13.439 5.638 27.728 5.638 42.157z" fill="url(#SVGID_39_)"/></g><path d="m288.629 293.13c-12.439-10.874-22.764-28.408-29.574-50.055-1.254-3.986-6.857-3.986-8.111 0-6.81 21.647-17.135 39.181-29.574 50.055-1.938 1.695-1.939 4.69 0 6.385 12.438 10.874 22.764 28.408 29.574 50.055 1.254 3.986 6.857 3.986 8.111 0 6.81-21.647 17.135-39.181 29.574-50.055 1.939-1.694 1.939-4.69 0-6.385z" fill="url(#SVGID_40_)"/><path d="m255 415.954c12.816 0 25.213-.902 36.975-2.591 15.382-35.514 31.704-79.843 40.569-124.312 4.166-20.882 6.681-41.801 6.681-61.857 0-14.429-1.994-28.719-5.64-42.157-11.416 4.112-24.13 7.347-37.759 9.529 2.192 10.587 3.383 21.566 3.383 32.632 0 63.764-25.457 136.309-48.381 188.72 1.387.021 2.776.036 4.172.036z" fill="url(#SVGID_41_)"/></g></g></g></svg>