<svg id="Capa_1" enable-background="new 0 0 510 510" height="512" viewBox="0 0 510 510" width="512" xmlns="http://www.w3.org/2000/svg" xmlns:xlink="http://www.w3.org/1999/xlink"><linearGradient id="lg1"><stop offset="0" stop-color="#97d729"/><stop offset=".5652" stop-color="#02905d"/><stop offset=".9955" stop-color="#026841"/></linearGradient><linearGradient id="SVGID_1_" gradientUnits="userSpaceOnUse" x1="138.834" x2="323.421" xlink:href="#lg1" y1="194.1" y2="194.1"/><linearGradient id="lg2"><stop offset="0" stop-color="#e19974"/><stop offset=".9518" stop-color="#8c3d27"/></linearGradient><linearGradient id="SVGID_2_" gradientUnits="userSpaceOnUse" x1="125" x2="520" xlink:href="#lg2" y1="324.272" y2="324.272"/><linearGradient id="SVGID_3_" gradientUnits="userSpaceOnUse" x1="93" x2="478.157" xlink:href="#lg2" y1="310.522" y2="310.522"/><linearGradient id="SVGID_4_" gradientUnits="userSpaceOnUse" x1="93" x2="478.157" xlink:href="#lg2" y1="324.359" y2="324.359"/><linearGradient id="SVGID_5_" gradientUnits="userSpaceOnUse" x1="0" x2="356.504" xlink:href="#lg2" y1="324.424" y2="324.424"/><linearGradient id="SVGID_6_" gradientUnits="userSpaceOnUse" x1="-146.748" x2="344.375" xlink:href="#lg2" y1="324.424" y2="324.424"/><linearGradient id="SVGID_7_" gradientUnits="userSpaceOnUse" x1="-146.748" x2="344.375" xlink:href="#lg2" y1="390.397" y2="390.397"/><linearGradient id="SVGID_8_" gradientUnits="userSpaceOnUse" x1="-146.748" x2="344.375" xlink:href="#lg2" y1="369.328" y2="369.328"/><linearGradient id="SVGID_9_" gradientUnits="userSpaceOnUse" x1="-146.748" x2="344.375" xlink:href="#lg2" y1="355.36" y2="355.36"/><linearGradient id="SVGID_10_" gradientUnits="userSpaceOnUse" x1="28.946" x2="326.874" y1="347.155" y2="347.155"><stop offset="0" stop-color="#ffdcbd"/><stop offset=".0028" stop-color="#ffdcbd"/><stop offset="1" stop-color="#ffa9b1"/></linearGradient><linearGradient id="SVGID_11_" gradientUnits="userSpaceOnUse" x1="241.103" x2="369.352" xlink:href="#lg1" y1="71.727" y2="71.727"/><linearGradient id="SVGID_12_" gradientUnits="userSpaceOnUse" x1="184.462" x2="365.07" xlink:href="#lg1" y1="71.69" y2="71.69"/><linearGradient id="SVGID_13_" gradientUnits="userSpaceOnUse" x1="281.901" x2="456.074" xlink:href="#lg1" y1="194.154" y2="194.154"/><linearGradient id="SVGID_14_" gradientUnits="userSpaceOnUse" x1="263.5" x2="423.528" xlink:href="#lg1" y1="189.356" y2="189.356"/><linearGradient id="lg3"><stop offset="0" stop-color="#fe646f"/><stop offset=".5213" stop-color="#e41f2d"/><stop offset="1" stop-color="#c41926"/></linearGradient><linearGradient id="SVGID_15_" gradientUnits="userSpaceOnUse" x1="241.104" x2="332.705" xlink:href="#lg3" y1="133.347" y2="133.347"/><linearGradient id="SVGID_16_" gradientUnits="userSpaceOnUse" x1="297.895" x2="386.613" xlink:href="#lg3" y1="133.347" y2="133.347"/><linearGradient id="SVGID_17_" gradientUnits="userSpaceOnUse" x1="269.499" x2="359.14" xlink:href="#lg3" y1="174.247" y2="174.247"/><linearGradient id="SVGID_18_" gradientUnits="userSpaceOnUse" x1="0" x2="574.001" y1="487.742" y2="487.742"><stop offset="0" stop-color="#eaf6ff"/><stop offset=".5213" stop-color="#d8ecfe"/><stop offset="1" stop-color="#b3dafe"/></linearGradient><linearGradient id="SVGID_19_" gradientUnits="userSpaceOnUse" x1="53.154" x2="506.193" y1="487.742" y2="487.742"><stop offset="0" stop-color="#d8ecfe"/><stop offset=".5667" stop-color="#b3dafe"/><stop offset=".9955" stop-color="#8ac9fe"/></linearGradient><g><path d="m205.213 140.004c12.87 2.725 26.822-.91 36.816-10.904.091-.091.18-.181.27-.272 1.66-1.692 4.437-1.427 5.755.542 1.441 2.153 3.111 4.197 5.013 6.098 7.845 7.845 18.129 11.773 28.412 11.781 2.659.002 4.806 2.149 4.808 4.808.008 10.283 3.936 20.567 11.781 28.412 1.902 1.902 3.946 3.573 6.098 5.013 1.97 1.318 2.234 4.095.543 5.755-.091.089-.182.179-.273.27-9.994 9.994-13.629 23.946-10.904 36.816.617 2.914-2.295 5.303-5.044 4.159-14.593-6.073-32.04-3.175-43.911 8.696-5.02 5.02-8.434 11.037-10.244 17.414-.546 1.923-2.921 2.542-4.331 1.125-.024-.024-.048-.048-.072-.072-11.696-11.696-28.805-14.683-43.264-8.961-2.37.938-4.752-1.444-3.814-3.814 5.722-14.459 2.735-31.568-8.961-43.264-.024-.024-.048-.048-.072-.071-1.417-1.41-.798-3.785 1.125-4.331 6.377-1.81 12.394-5.224 17.414-10.244 11.871-11.871 14.769-29.319 8.696-43.911-1.144-2.75 1.246-5.661 4.159-5.045z" fill="url(#SVGID_1_)"/><g><path d="m425.859 480.522c16.622 0 32.434-7.332 43.057-20.117 25.364-30.526 40.733-69.65 41.078-112.359.793-98.106-78.861-179.029-176.968-179.717-99.032-.694-161.026 0-161.026 0v312.193z" fill="url(#SVGID_2_)"/><g><path d="m409.959 310.522c0-4.143-3.357-7.5-7.5-7.5h-63.117c-4.143 0-7.5 3.357-7.5 7.5s3.357 7.5 7.5 7.5h63.117c4.143 0 7.5-3.357 7.5-7.5z" fill="url(#SVGID_3_)"/><path d="m331.325 168.318c-40.979-.28-38.319.012-38.319.012 49.731.349 94.712 21.323 126.885 54.693h-44.46c-4.107 0-7.688 3.165-7.811 7.27-.127 4.247 3.278 7.73 7.497 7.73h37.312c13.608 0 26.28 7.129 33.16 18.869 2.935 5.007 5.632 10.167 8.079 15.464h-85.851c-4.107 0-7.688 3.165-7.811 7.27-.127 4.247 3.278 7.73 7.497 7.73h57.325c22.427 0 41.451 16.739 44.001 39.021.814 7.11 1.204 14.342 1.145 21.67-.126 15.549-2.251 30.619-6.117 44.976h-56.868c-4.107 0-7.688 3.165-7.811 7.27-.127 4.247 3.278 7.73 7.497 7.73h27.748c12.032 0 19.81 12.865 14.07 23.44-.041.076-.082.152-.124.227h-88.552c-4.107 0-7.688 3.165-7.811 7.27-.127 4.247 3.278 7.73 7.497 7.73h63.044c7.015 0 10.935 8.184 6.457 13.585-.036.044-.073.088-.11.132-10.623 12.785-26.435 20.116-43.057 20.116h40.02c16.581 0 32.376-7.279 42.981-20.024 25.379-30.503 40.773-69.606 41.154-112.298.877-98.252-80.414-179.212-178.667-179.883z" fill="url(#SVGID_4_)"/></g><g><path d="m84.143 480.522h188.22c16.622 0 32.434-7.332 43.057-20.117 25.364-30.526 40.733-69.65 41.078-112.359.793-98.106-78.861-179.029-176.968-179.717-99.032-.694-179.53 79.376-179.53 178.248 0 43.249 15.407 82.895 41.028 113.761 10.636 12.814 26.461 20.184 43.115 20.184z" fill="url(#SVGID_5_)"/><g><path d="m179.53 168.329c-7.21-.051-14.317.34-21.306 1.121 89.321 10.071 158.996 86.81 158.254 178.596-.345 42.709-15.715 81.833-41.078 112.359-10.623 12.785-26.435 20.116-43.057 20.116h40.02c16.622 0 32.434-7.332 43.057-20.116 25.364-30.526 40.733-69.651 41.078-112.359.792-98.106-78.861-179.029-176.968-179.717z" fill="url(#SVGID_6_)"/><path d="m121.189 324.093c12.464-12.464 27.996-20.019 44.186-22.709-25.104-4.172-51.796 3.382-71.122 22.709-38.032 38.032-38.032 99.916 0 137.949 7.312 7.312 15.342 13.467 23.856 18.48h26.94c-8.516-5.013-16.548-11.168-23.86-18.48-38.032-38.033-38.032-99.917 0-137.949z" fill="url(#SVGID_7_)"/><path d="m181.452 399.016c4.621 3.332 10.304 4.878 16.188 4.274 5.193-.532 12.169-4.433 15.614-8.354 11.625-13.233 11.124-33.467-1.504-46.095-12.53-12.53-30.486-16.402-46.374-11.626 7.119 2.14 13.824 6.012 19.438 11.626 12.628 12.628 13.13 32.862 1.504 46.095-1.244 1.416-2.952 2.827-4.866 4.08z" fill="url(#SVGID_8_)"/><path d="m294.861 362.77c.421-28.348-10.131-55.754-29.712-77.169-20.371-22.278-52.47-36.024-85.866-36.771-5.518-.123-10.981.11-16.367.68 29.503 3.088 57.087 16.176 75.297 36.091 19.581 21.415 30.133 48.821 29.712 77.169-.421 28.377-11.847 55.198-32.171 75.523-12.38 12.381-27.843 19.868-44.026 22.528 25.203 4.129 51.778-3.344 70.962-22.528 20.325-20.325 31.75-47.146 32.171-75.523z" fill="url(#SVGID_9_)"/></g><path d="m284.439 463.042c26.798-26.797 41.862-62.224 42.419-99.752.554-37.304-13.253-73.282-38.878-101.307-26.691-29.19-68.154-47.188-110.914-48.144-44.107-.983-89.101 12.29-116.47 46.579-16.749 20.984-33.975 65.316-31.391 95.214.792 9.166 13.779 10.073 15.944 1.131 6.555-27.068 20.193-51.593 40.195-71.595 24.201-24.202 56.527-37.104 90.939-36.336 33.396.747 65.495 14.493 85.866 36.771 19.581 21.415 30.133 48.821 29.712 77.169-.421 28.377-11.847 55.198-32.171 75.523-31.912 31.914-84.286 31.465-116.753-1-24.386-24.387-24.386-64.066 0-88.452 18.145-18.144 47.668-18.144 65.812 0 12.628 12.628 13.13 32.862 1.504 46.095-3.445 3.922-10.422 7.822-15.615 8.354-7.189.737-14.079-1.73-19.098-6.749-4.87-4.87-12.102-6.789-18.463-4.149-12.706 5.272-14.803 20.38-6.287 28.897 11.046 11.046 25.732 17.129 41.354 17.129s30.308-6.083 41.354-17.129c26.798-26.797 26.797-70.4 0-97.197-31.791-31.79-83.518-31.791-115.309 0-38.032 38.032-38.032 99.916 0 137.949 7.309 7.31 15.336 13.467 23.847 18.48h119.98c8.003-4.782 15.545-10.604 22.423-17.481z" fill="url(#SVGID_10_)"/></g></g><g><path d="m242.777 93.186c11.027 7.174 18.322 19.609 18.322 33.743 0 .128-.001.256-.002.383-.022 2.37 2.128 4.147 4.453 3.686 2.541-.503 5.168-.767 7.857-.767 11.095 0 21.144 4.495 28.421 11.76 1.882 1.879 4.918 1.879 6.8 0 7.276-7.265 17.326-11.76 28.421-11.76 2.689 0 5.316.264 7.857.767 2.325.461 4.475-1.316 4.453-3.686-.001-.128-.002-.256-.002-.384 0-14.134 7.295-26.569 18.322-33.743 2.496-1.624 2.128-5.373-.626-6.508-14.613-6.024-24.901-20.411-24.901-37.199 0-7.099 1.841-13.768 5.07-19.557.974-1.746-.268-3.863-2.267-3.858-.034 0-.067 0-.101 0-16.541 0-30.751-9.986-36.928-24.255-1.013-2.34-4.381-2.34-5.394 0-6.178 14.27-20.388 24.255-36.929 24.255-.034 0-.067 0-.101 0-1.999-.005-3.241 2.112-2.267 3.858 3.229 5.789 5.07 12.458 5.07 19.557 0 16.788-10.288 31.175-24.901 37.199-2.755 1.137-3.124 4.885-.627 6.509z" fill="url(#SVGID_11_)"/><path d="m367.097 86.697c-14.636-6.014-24.945-20.412-24.945-37.218 0-7.098 1.84-13.765 5.068-19.554.965-1.731-.237-3.862-2.219-3.862h-.147c-16.545 0-30.758-9.99-36.933-24.266-1.027-2.375-4.346-2.41-5.371-.034-.13.302-.265.603-.402.901-4.567 9.903 1.447 21.57 12.253 23.033 1.779.241 3.596.365 5.441.365h.147c1.982 0 3.184 2.131 2.219 3.862-3.228 5.789-5.068 12.456-5.068 19.554 0 16.806 10.309 31.204 24.945 37.218 2.765 1.136 3.087 4.859.581 6.49-11.027 7.174-18.322 19.609-18.322 33.743 0 .128.001.257.002.385.022 2.343-2.098 4.155-4.395 3.696-2.559-.511-5.205-.779-7.915-.779-7 0-13.581 1.792-19.315 4.938 3.354 1.84 6.42 4.141 9.106 6.822 1.887 1.884 4.958 1.832 6.848-.049 7.272-7.237 17.302-11.711 28.372-11.711 2.693 0 5.324.265 7.868.769 2.313.459 4.463-1.329 4.442-3.688-.001-.128-.002-.256-.002-.384 0-14.134 7.295-26.569 18.322-33.743 2.507-1.629 2.185-5.352-.58-6.488z" fill="url(#SVGID_12_)"/><path d="m405.242 140.059c-12.87 2.725-26.822-.91-36.816-10.904-.091-.091-.18-.181-.27-.272-1.66-1.692-4.437-1.427-5.755.542-1.441 2.153-3.112 4.197-5.013 6.098-7.845 7.845-18.129 11.773-28.412 11.781-2.659.002-4.806 2.149-4.808 4.808-.008 10.283-3.936 20.567-11.781 28.412-1.902 1.902-3.946 3.573-6.098 5.013-1.97 1.318-2.234 4.095-.543 5.755.091.089.182.179.273.27 9.994 9.994 13.629 23.946 10.904 36.816-.617 2.914 2.295 5.303 5.044 4.159 14.593-6.073 32.04-3.175 43.911 8.696 5.02 5.02 8.434 11.037 10.244 17.414.546 1.923 2.921 2.542 4.331 1.125l.072-.072c11.696-11.696 28.805-14.683 43.264-8.961 2.37.938 4.752-1.444 3.814-3.814-5.722-14.459-2.735-31.568 8.961-43.264.024-.024.048-.048.072-.071 1.417-1.41.798-3.785-1.125-4.331-6.377-1.81-12.394-5.224-17.414-10.244-11.871-11.871-14.769-29.319-8.696-43.911 1.144-2.751-1.245-5.662-4.159-5.045z" fill="url(#SVGID_13_)"/><path d="m435.511 199.258c-6.377-1.81-12.394-5.224-17.414-10.244-11.871-11.871-14.769-29.319-8.696-43.911 1.144-2.75-1.245-5.661-4.159-5.044-12.87 2.725-26.822-.91-36.816-10.904-.09-.091-.181-.181-.27-.272-1.66-1.692-4.437-1.427-5.755.542-1.441 2.153-3.112 4.197-5.013 6.098-.654.654-1.331 1.271-2.018 1.871 7.84 3.521 16.572 4.42 24.861 2.665 2.914-.617 5.303 2.295 4.159 5.044-6.073 14.593-3.175 32.04 8.696 43.911 5.02 5.02 11.037 8.434 17.414 10.244 1.923.546 2.542 2.921 1.125 4.331-.024.024-.048.048-.072.072-11.696 11.696-14.683 28.805-8.961 43.264.202.511.243 1.02.17 1.499 7.044-1.094 14.319-.339 21.027 2.315 2.37.938 4.752-1.444 3.814-3.814-5.722-14.458-2.735-31.568 8.961-43.264.024-.024.048-.048.072-.072 1.417-1.409.798-3.785-1.125-4.331z" fill="url(#SVGID_14_)"/><circle cx="276.832" cy="133.347" fill="url(#SVGID_15_)" r="35.728"/><circle cx="333.624" cy="133.347" fill="url(#SVGID_16_)" r="35.728"/><circle cx="305.228" cy="174.247" fill="url(#SVGID_17_)" r="35.728"/></g><g><path d="m478.223 510h-446.446c-17.55 0-31.777-14.227-31.777-31.777 0-7.035 5.703-12.738 12.738-12.738h484.523c7.035 0 12.738 5.703 12.738 12.738.001 17.55-14.226 31.777-31.776 31.777z" fill="url(#SVGID_18_)"/><path d="m406.425 510h71.797c17.55 0 31.777-14.227 31.777-31.777 0-.319-.025-.632-.048-.945-.047-.547-.132-1.146-.254-1.788-1.252-5.721-6.341-10.006-12.437-10.006h-52.758c14.07 0 25.477 5.703 25.477 12.738.001 17.551-28.453 31.778-63.554 31.778z" fill="url(#SVGID_19_)"/></g></g></svg>