<svg id="Capa_1" enable-background="new 0 0 510 510" height="512" viewBox="0 0 510 510" width="512" xmlns="http://www.w3.org/2000/svg" xmlns:xlink="http://www.w3.org/1999/xlink"><linearGradient id="lg1"><stop offset="0" stop-color="#97d729"/><stop offset=".5652" stop-color="#02905d"/><stop offset=".9955" stop-color="#026841"/></linearGradient><linearGradient id="SVGID_1_" gradientUnits="userSpaceOnUse" x1="34.492" x2="632.305" xlink:href="#lg1" y1="282.908" y2="282.908"/><linearGradient id="SVGID_2_" gradientUnits="userSpaceOnUse" x1="-48" x2="427.269" xlink:href="#lg1" y1="204.362" y2="204.362"/><linearGradient id="SVGID_3_" gradientUnits="userSpaceOnUse" x1="-48" x2="427.269" xlink:href="#lg1" y1="386.528" y2="386.528"/><linearGradient id="lg2"><stop offset="0" stop-color="#fe646f"/><stop offset=".5213" stop-color="#e41f2d"/><stop offset="1" stop-color="#c41926"/></linearGradient><linearGradient id="SVGID_4_" gradientUnits="userSpaceOnUse" x1="23.844" x2="648.174" xlink:href="#lg2" y1="451.399" y2="451.399"/><linearGradient id="SVGID_5_" gradientUnits="userSpaceOnUse" x1="-107.333" x2="292.125" xlink:href="#lg2" y1="479.567" y2="479.567"/><linearGradient id="SVGID_6_" gradientUnits="userSpaceOnUse" x1="-107.333" x2="292.125" xlink:href="#lg2" y1="471.505" y2="471.505"/><linearGradient id="SVGID_7_" gradientUnits="userSpaceOnUse" x1="-2.412" x2="391.527" y1="70.19" y2="70.19"><stop offset="0" stop-color="#eaf6ff"/><stop offset=".5213" stop-color="#d8ecfe"/><stop offset="1" stop-color="#b3dafe"/></linearGradient><linearGradient id="SVGID_8_" gradientUnits="userSpaceOnUse" x1="132.65" x2="416.278" y1="70.189" y2="70.189"><stop offset="0" stop-color="#d8ecfe"/><stop offset=".5667" stop-color="#b3dafe"/><stop offset=".9955" stop-color="#8ac9fe"/></linearGradient><linearGradient id="lg3"><stop offset="0" stop-color="#fef056"/><stop offset=".5213" stop-color="#f4d902"/><stop offset="1" stop-color="#fe9738"/></linearGradient><linearGradient id="SVGID_9_" gradientUnits="userSpaceOnUse" x1="262" x2="328.527" xlink:href="#lg3" y1="195.955" y2="195.955"/><linearGradient id="SVGID_10_" gradientUnits="userSpaceOnUse" x1="262" x2="328.527" xlink:href="#lg3" y1="279.092" y2="279.092"/><linearGradient id="lg4"><stop offset="0" stop-color="#e19974"/><stop offset=".9518" stop-color="#8c3d27"/></linearGradient><linearGradient id="SVGID_11_" gradientUnits="userSpaceOnUse" x1="275.736" x2="372.943" xlink:href="#lg4" y1="195.955" y2="195.955"/><linearGradient id="SVGID_12_" gradientUnits="userSpaceOnUse" x1="275.736" x2="372.943" xlink:href="#lg4" y1="279.092" y2="279.092"/><g><g><path d="m376.271 302.635-31.97 12.724v-226.448h-295.184v347.78h143.049c28.451 0 56.677 5.035 83.373 14.873l28.401 10.466c26.696 9.838 54.922 14.873 83.373 14.873h112.687v-90.344c0-63.837-64.418-107.53-123.729-83.924z" fill="url(#SVGID_1_)"/><g><path d="m49.12 154.928c1.47.14 2.95.21 4.45.21 6.67 0 13.06-1.36 18.95-3.86 10.96-4.64 23.07-4.64 34.03 0 5.89 2.5 12.28 3.86 18.96 3.86 6.67 0 13.06-1.36 18.95-3.86 10.96-4.64 23.07-4.64 34.03 0 5.89 2.5 12.28 3.86 18.95 3.86 6.68 0 13.07-1.36 18.96-3.86 10.96-4.64 23.07-4.64 34.03 0 5.89 2.5 12.28 3.86 18.95 3.86 6.68 0 13.07-1.36 18.96-3.86.051-.022.103-.043.154-.065 7.514-3.14 15.786 2.563 15.786 10.707v134.531c0 16.495 16.644 27.785 31.97 21.688 2.68-1.06 5.36-1.99 8.05-2.78v-226.451h-295.18z" fill="url(#SVGID_2_)"/><path d="m389.74 298.438c39 8.98 70.24 43.66 70.24 88.12v90.344h40.02v-90.344c0-59.029-55.07-100.83-110.26-88.12z" fill="url(#SVGID_3_)"/></g></g><g><path d="m492.234 443.258h-104.92c-28.45 0-56.676-5.035-83.372-14.873l-28.405-10.467c-26.695-9.838-54.921-14.873-83.372-14.873h-135.282c-9.812 0-17.766 7.954-17.766 17.766v64.943c0 7.73 6.267 13.997 13.997 13.997h123.259c7.73 0 13.997-6.267 13.997-13.997v-26.216h1.796c28.451 0 56.678 5.035 83.375 14.874l28.4 10.466c26.696 9.838 54.922 14.873 83.373 14.873h104.92c9.812 0 17.766-7.954 17.766-17.766v-20.961c0-9.812-7.954-17.766-17.766-17.766z" fill="url(#SVGID_4_)"/><g><path d="m167.678 459.391c-9.583.034-17.329 7.819-17.329 17.402v8.962c0 7.73-6.267 13.997-13.997 13.997h40.02c7.73 0 13.997-6.267 13.997-13.997v-26.147c-5.803-.214-14.736-.245-22.691-.217z" fill="url(#SVGID_5_)"/><path d="m492.234 443.258h-40.02c9.812 0 17.766 7.954 17.766 17.766v20.961c0 9.812-7.954 17.766-17.766 17.766h40.02c9.812 0 17.766-7.954 17.766-17.766v-20.961c0-9.812-7.954-17.766-17.766-17.766z" fill="url(#SVGID_6_)"/></g></g><path d="m342.667 10.267c-7.186-.197-14.061 1.19-20.366 3.872-11.07 4.708-23.308 4.356-34.422-.22-5.765-2.374-11.995-3.67-18.496-3.67-6.674 0-13.063 1.366-18.955 3.862-10.961 4.642-23.068 4.642-34.028 0-5.893-2.496-12.281-3.862-18.956-3.862-6.674 0-13.063 1.366-18.955 3.862-10.961 4.642-23.068 4.642-34.028 0-5.893-2.496-12.281-3.862-18.956-3.862-6.501 0-12.731 1.296-18.496 3.67-11.114 4.576-23.352 4.928-34.422.22-6.305-2.681-13.18-4.069-20.366-3.872-28.992.794-52.373 27.792-52.22 60.246.156 32.956 24.078 59.618 53.566 59.618 6.674 0 13.063-1.366 18.955-3.862 10.961-4.642 23.068-4.642 34.028 0 5.893 2.496 12.281 3.862 18.955 3.862s13.063-1.366 18.956-3.862c10.961-4.642 23.067-4.642 34.028 0 5.893 2.496 12.281 3.862 18.956 3.862 6.674 0 13.063-1.366 18.956-3.862 10.961-4.642 23.067-4.642 34.028 0 5.893 2.496 12.281 3.862 18.956 3.862 6.674 0 13.063-1.366 18.955-3.862 10.961-4.642 23.068-4.642 34.028 0 5.893 2.496 12.281 3.862 18.955 3.862 29.488 0 53.41-26.662 53.566-59.618.153-32.454-23.228-59.452-52.222-60.246z" fill="url(#SVGID_7_)"/><path d="m342.67 10.269c-7.19-.2-14.06 1.19-20.37 3.87-.36.15-.72.3-1.08.44 19.78 8.95 33.77 30.81 33.65 55.93-.12 25.07-13.99 46.49-33.6 55.31.37.15.73.3 1.1.45 5.89 2.5 12.28 3.86 18.95 3.86 29.49 0 53.41-26.66 53.57-59.62.15-32.45-23.23-59.45-52.22-60.24z" fill="url(#SVGID_8_)"/><g><circle cx="295.264" cy="195.955" fill="url(#SVGID_9_)" r="33.264"/><circle cx="295.264" cy="279.091" fill="url(#SVGID_10_)" r="33.264"/><path d="m352.383 183.449h-60.11c-6.907 0-12.505 5.599-12.505 12.505 0 6.907 5.599 12.505 12.505 12.505h60.11c6.907 0 12.505-5.599 12.505-12.505 0-6.906-5.599-12.505-12.505-12.505z" fill="url(#SVGID_11_)"/><path d="m352.383 266.586h-60.11c-6.907 0-12.505 5.599-12.505 12.505 0 6.907 5.599 12.505 12.505 12.505h60.11c6.907 0 12.505-5.599 12.505-12.505 0-6.906-5.599-12.505-12.505-12.505z" fill="url(#SVGID_12_)"/></g></g></svg>