<svg id="Capa_1" enable-background="new 0 0 510.015 510.015" height="512" viewBox="0 0 510.015 510.015" width="512" xmlns="http://www.w3.org/2000/svg" xmlns:xlink="http://www.w3.org/1999/xlink"><linearGradient id="lg1"><stop offset="0" stop-color="#97d729"/><stop offset=".5652" stop-color="#02905d"/><stop offset=".9955" stop-color="#026841"/></linearGradient><linearGradient id="SVGID_1_" gradientUnits="userSpaceOnUse" x1="25.617" x2="519.129" xlink:href="#lg1" y1="336.539" y2="336.539"/><linearGradient id="SVGID_2_" gradientUnits="userSpaceOnUse" x1="-152.652" x2="458.987" xlink:href="#lg1" y1="336.538" y2="336.538"/><linearGradient id="lg2"><stop offset="0" stop-color="#fe646f"/><stop offset=".5213" stop-color="#e41f2d"/><stop offset="1" stop-color="#c41926"/></linearGradient><linearGradient id="SVGID_3_" gradientUnits="userSpaceOnUse" x1="60.933" x2="510.221" xlink:href="#lg2" y1="260.343" y2="260.343"/><linearGradient id="SVGID_4_" gradientUnits="userSpaceOnUse" x1="-169.985" x2="393.015" xlink:href="#lg2" y1="255.432" y2="255.432"/><linearGradient id="lg3"><stop offset="0" stop-color="#fef056"/><stop offset=".5213" stop-color="#f4d902"/><stop offset="1" stop-color="#fe9738"/></linearGradient><linearGradient id="SVGID_5_" gradientUnits="userSpaceOnUse" x1="-73.378" x2="646.611" xlink:href="#lg3" y1="476.394" y2="476.394"/><linearGradient id="SVGID_6_" gradientUnits="userSpaceOnUse" x1="120" x2="483.31" xlink:href="#lg3" y1="476.394" y2="476.394"/><linearGradient id="SVGID_7_" gradientUnits="userSpaceOnUse" x1="-73.378" x2="646.611" xlink:href="#lg3" y1="196.684" y2="196.684"/><linearGradient id="SVGID_8_" gradientUnits="userSpaceOnUse" x1="120" x2="483.31" xlink:href="#lg3" y1="196.684" y2="196.684"/><linearGradient id="SVGID_9_" gradientUnits="userSpaceOnUse" x1="24.117" x2="454.598" y1="366.921" y2="366.921"><stop offset="0" stop-color="#eaf6ff"/><stop offset=".5213" stop-color="#d8ecfe"/><stop offset="1" stop-color="#b3dafe"/></linearGradient><linearGradient id="lg4"><stop offset="0" stop-color="#e19974"/><stop offset=".9518" stop-color="#8c3d27"/></linearGradient><linearGradient id="SVGID_12_" gradientUnits="userSpaceOnUse" x1="-14.881" x2="279.46" xlink:href="#lg4" y1="84.971" y2="84.971"/><linearGradient id="SVGID_13_" gradientUnits="userSpaceOnUse" x1="-64.985" x2="221.52" xlink:href="#lg4" y1="84.967" y2="84.967"/><linearGradient id="SVGID_14_" gradientUnits="userSpaceOnUse" x1="245.015" x2="548.096" xlink:href="#lg4" y1="84.971" y2="84.971"/><linearGradient id="SVGID_15_" gradientUnits="userSpaceOnUse" x1="177.015" x2="489.073" xlink:href="#lg4" y1="84.969" y2="84.969"/><linearGradient id="SVGID_16_" gradientUnits="userSpaceOnUse" x1="-73.506" x2="360.662" xlink:href="#lg3" y1="23.437" y2="23.437"/><linearGradient id="SVGID_17_" gradientUnits="userSpaceOnUse" x1="-421.633" x2="564.327" xlink:href="#lg3" y1="59.623" y2="59.623"/><linearGradient id="SVGID_18_" gradientUnits="userSpaceOnUse" x1="-560.428" x2="425.533" xlink:href="#lg3" y1="59.623" y2="59.623"/><g><path d="m29.031 201.039h451.937v271h-451.937z" fill="url(#SVGID_1_)"/><path d="m480.965 201.038v271h-40.02v-131.007c0-47.343-38.379-85.723-85.723-85.723h-326.187v-54.27z" fill="url(#SVGID_2_)"/><path d="m480.969 201.039h-451.938v29.272l48.506 84.016c4.096 7.095 14.337 7.095 18.433 0l37.649-65.211c4.096-7.095 14.337-7.095 18.433 0l37.649 65.211c4.096 7.095 14.337 7.095 18.433 0l37.649-65.211c4.096-7.095 14.337-7.095 18.433 0l37.649 65.211c4.096 7.095 14.337 7.095 18.433 0l37.649-65.211c4.096-7.095 14.337-7.095 18.433 0l37.649 65.211c4.096 7.095 14.337 7.095 18.433 0l48.506-84.016v-29.272z" fill="url(#SVGID_3_)"/><path d="m480.965 201.039h-451.93v29.278l14.428 24.991h86.581l3.575-6.192c4.096-7.095 14.337-7.095 18.433 0l3.575 6.192h86.581l3.575-6.192c4.096-7.095 14.337-7.095 18.433 0l3.575 6.192h86.581l3.575-6.192c4.096-7.095 14.337-7.095 18.433 0l6.156 10.663c24.052 8.083 43.326 26.531 52.525 50.047l45.904-79.509z" fill="url(#SVGID_4_)"/><g><g><path d="m489.924 510.008h-469.848c-11.088 0-20.076-8.989-20.076-20.077v-27.075c0-11.088 8.988-20.076 20.076-20.076h469.848c11.088 0 20.076 8.988 20.076 20.076v27.075c0 11.088-8.988 20.077-20.076 20.077z" fill="url(#SVGID_5_)"/><path d="m489.924 442.78h-40.02c11.088 0 20.076 8.988 20.076 20.076v27.075c0 11.088-8.988 20.076-20.076 20.076h40.02c11.088 0 20.076-8.988 20.076-20.076v-27.075c0-11.087-8.988-20.076-20.076-20.076z" fill="url(#SVGID_6_)"/></g><g><path d="m489.924 230.298h-469.848c-11.088 0-20.076-8.989-20.076-20.077v-27.075c0-11.088 8.988-20.076 20.076-20.076h469.848c11.088 0 20.076 8.988 20.076 20.076v27.075c0 11.088-8.988 20.077-20.076 20.077z" fill="url(#SVGID_7_)"/><path d="m489.924 163.07h-40.02c11.088 0 20.076 8.988 20.076 20.076v27.075c0 11.088-8.988 20.076-20.076 20.076h40.02c11.088 0 20.076-8.988 20.076-20.076v-27.075c0-11.087-8.988-20.076-20.076-20.076z" fill="url(#SVGID_8_)"/></g></g><g fill="url(#SVGID_9_)"><path d="m186.875 359.599c-15.784-9.39-28.995-22.645-38.332-38.464-3.303-5.596-11.385-5.596-14.688 0-9.338 15.819-22.548 29.075-38.332 38.464-5.552 3.303-5.552 11.341 0 14.644 15.784 9.39 28.995 22.646 38.332 38.465 3.303 5.596 11.385 5.596 14.688 0 9.338-15.819 22.548-29.074 38.332-38.465 5.552-3.303 5.552-11.342 0-14.644z"/><path d="m300.692 359.599c-15.784-9.39-28.995-22.645-38.333-38.464-3.303-5.596-11.385-5.596-14.688 0-9.338 15.819-22.548 29.075-38.333 38.464-5.552 3.303-5.552 11.341 0 14.644 15.784 9.39 28.995 22.646 38.333 38.465 3.303 5.596 11.385 5.596 14.688 0 9.338-15.819 22.548-29.074 38.333-38.465 5.552-3.303 5.552-11.342 0-14.644z"/><path d="m414.508 359.599c-15.784-9.39-28.995-22.645-38.332-38.464-3.303-5.596-11.385-5.596-14.688 0-9.338 15.819-22.548 29.075-38.333 38.464-5.552 3.303-5.552 11.341 0 14.644 15.784 9.39 28.995 22.646 38.333 38.465 3.303 5.596 11.385 5.596 14.688 0 9.338-15.819 22.548-29.074 38.332-38.465 5.552-3.303 5.552-11.342 0-14.644z"/></g><g><path d="m222.574 88.741c-10.804-5.967-23.148-5.95-33.411-1.198-4.157 1.925-8.971 1.814-13.087-.196l-150.583-73.54c-8.786-4.291-19.388-.647-23.679 8.14s-.647 19.388 8.14 23.679l150.58 73.538c4.089 1.997 7.164 5.68 8.184 10.114 2.411 10.479 9.358 19.819 19.773 24.905 18.657 9.111 41.239 1.058 49.844-18.005 7.846-17.382.933-38.217-15.761-47.437z" fill="url(#SVGID_12_)"/><path d="m222.574 88.741c-10.804-5.967-23.148-5.95-33.411-1.198-4.157 1.925-8.971 1.814-13.087-.196l-150.583-73.54c-8.786-4.291-19.388-.647-23.679 8.14-.265.542-.498 1.091-.703 1.645l138.445 67.611c4.116 2.01 8.93 2.121 13.087.196 10.262-4.752 22.606-4.769 33.411 1.198 16.694 9.22 23.607 30.055 15.761 47.438-2.762 6.119-6.969 11.097-12.02 14.743 18.393 8.128 40.135.021 48.54-18.6 7.846-17.382.933-38.217-15.761-47.437z" fill="url(#SVGID_13_)"/></g><g><path d="m287.456 88.741c10.804-5.967 23.148-5.95 33.411-1.198 4.157 1.925 8.971 1.814 13.087-.196l150.583-73.539c8.786-4.291 19.388-.647 23.679 8.14s.647 19.388-8.14 23.679l-150.58 73.538c-4.089 1.997-7.164 5.68-8.184 10.114-2.411 10.479-9.358 19.819-19.773 24.905-18.657 9.111-41.239 1.058-49.844-18.005-7.846-17.383-.933-38.218 15.761-47.438z" fill="url(#SVGID_14_)"/><g><path d="m508.215 21.947c-4.291-8.786-14.892-12.431-23.679-8.14l-16.411 8.014c.021.043.048.082.069.125 4.291 8.786.647 19.388-8.14 23.679l-150.58 73.538c-4.089 1.997-7.164 5.68-8.184 10.115-2.103 9.139-7.658 17.41-15.953 22.75 10.497 6.758 24.163 8.033 36.2 2.155 10.415-5.086 17.362-14.426 19.773-24.905 1.02-4.434 4.095-8.118 8.184-10.115l150.58-73.538c8.788-4.29 12.432-14.892 8.141-23.678z" fill="url(#SVGID_15_)"/></g></g><g><path d="m255.015.007c-4.161 0-7.534 3.373-7.535 7.534v31.79c0 4.161 3.373 7.534 7.534 7.534s7.534-3.373 7.534-7.534v-31.79c.001-4.16-3.372-7.534-7.533-7.534z" fill="url(#SVGID_16_)"/><path d="m338.526 40.923c-3.321-2.507-8.045-1.846-10.552 1.475l-19.151 25.373c-1.026 1.359-1.521 2.952-1.521 4.533 0 2.283 1.034 4.538 2.996 6.02 3.321 2.507 8.046 1.846 10.553-1.474l19.151-25.374c2.506-3.321 1.845-8.046-1.476-10.553z" fill="url(#SVGID_17_)"/><path d="m182.057 42.397c-2.507-3.321-7.232-3.981-10.553-1.475-1.962 1.481-2.996 3.737-2.996 6.02 0 1.581.496 3.174 1.521 4.533l19.151 25.374c2.507 3.321 7.232 3.981 10.553 1.474s3.982-7.231 1.475-10.553z" fill="url(#SVGID_18_)"/></g></g></svg>