<svg id="Capa_1" enable-background="new 0 0 512 512" height="512" viewBox="0 0 512 512" width="512" xmlns="http://www.w3.org/2000/svg" xmlns:xlink="http://www.w3.org/1999/xlink"><linearGradient id="lg1"><stop offset="0" stop-color="#eaf6ff"/><stop offset=".5213" stop-color="#d8ecfe"/><stop offset="1" stop-color="#b3dafe"/></linearGradient><linearGradient id="SVGID_1_" gradientTransform="matrix(.71 .71 -.71 .71 228.541 -359.115)" gradientUnits="userSpaceOnUse" x1="310.855" x2="586.493" xlink:href="#lg1" y1="607.874" y2="607.874"/><linearGradient id="lg2"><stop offset="0" stop-color="#d8ecfe"/><stop offset=".5667" stop-color="#b3dafe"/><stop offset=".9955" stop-color="#8ac9fe"/></linearGradient><linearGradient id="SVGID_2_" gradientTransform="matrix(.71 .71 -.71 .71 228.541 -359.115)" gradientUnits="userSpaceOnUse" x1="316.687" x2="588.99" xlink:href="#lg2" y1="607.874" y2="607.874"/><linearGradient id="lg3"><stop offset="0" stop-color="#fe646f"/><stop offset=".5213" stop-color="#e41f2d"/><stop offset="1" stop-color="#c41926"/></linearGradient><linearGradient id="SVGID_3_" gradientUnits="userSpaceOnUse" x1="-46.18428" x2="608.430748" xlink:href="#lg3" y1="235.792092" y2="235.792092"/><linearGradient id="SVGID_4_" gradientTransform="matrix(.71 .71 -.71 .71 232.229 -377.846)" gradientUnits="userSpaceOnUse" x1="314.005" x2="552.542" xlink:href="#lg1" y1="306.764" y2="306.764"/><linearGradient id="SVGID_5_" gradientTransform="matrix(.71 .71 -.71 .71 232.229 -377.846)" gradientUnits="userSpaceOnUse" x1="335.056" x2="573.593" xlink:href="#lg1" y1="304.471" y2="304.471"/><linearGradient id="SVGID_6_" gradientTransform="matrix(.71 .71 -.71 .71 232.229 -377.846)" gradientUnits="userSpaceOnUse" x1="335.056" x2="573.593" xlink:href="#lg1" y1="497.535" y2="497.535"/><linearGradient id="SVGID_7_" gradientTransform="matrix(.71 .71 -.71 .71 232.229 -377.846)" gradientUnits="userSpaceOnUse" x1="314.005" x2="552.542" xlink:href="#lg1" y1="251.538" y2="251.538"/><linearGradient id="SVGID_8_" gradientTransform="matrix(.71 .71 -.71 .71 232.229 -377.846)" gradientUnits="userSpaceOnUse" x1="335.056" x2="573.593" xlink:href="#lg1" y1="531.244" y2="531.244"/><linearGradient id="SVGID_9_" gradientUnits="userSpaceOnUse" x1="57.560044" x2="210.189128" xlink:href="#lg3" y1="103.489992" y2="103.489992"/><linearGradient id="SVGID_10_" gradientUnits="userSpaceOnUse" x1="-160.64028" x2="397.761428" xlink:href="#lg3" y1="235.78908" y2="235.78908"/><linearGradient id="SVGID_11_" gradientUnits="userSpaceOnUse" x1="107.763056" x2="449.006592" xlink:href="#lg1" y1="228.879552" y2="228.879552"/><linearGradient id="SVGID_12_" gradientUnits="userSpaceOnUse" x1="107.763056" x2="449.006592" xlink:href="#lg1" y1="258.266632" y2="258.266632"/><linearGradient id="SVGID_13_" gradientUnits="userSpaceOnUse" x1="135.875056" x2="398.445152" xlink:href="#lg2" y1="324.30674" y2="324.30674"/><linearGradient id="SVGID_14_" gradientUnits="userSpaceOnUse" x1="135.875056" x2="398.445152" xlink:href="#lg2" y1="353.694824" y2="353.694824"/><path d="m170.524 499.884-163.954-163.956c-8.759-8.759-8.759-22.961 0-31.72l38.096-38.096 195.675 195.675-38.096 38.096c-8.76 8.76-22.962 8.76-31.721.001z" fill="url(#SVGID_1_)"/><path d="m240.338 461.785-38.098 38.098c-8.758 8.758-22.959 8.758-31.717 0l-28.371-28.371c1.815 1.815 3.864 3.254 6.049 4.316 4.406 2.142 9.556.639 12.702-3.117.143-.171.294-.336.454-.496 5.556-5.556 5.556-14.564 0-20.12l-13.746-13.746-10.059 10.059c-2.985 2.985-7.854 2.941-10.782-.153-2.835-2.995-2.548-7.786.368-10.702 5.434-5.434 5.434-14.245 0-19.679l-13.967-13.967-10.059 10.059c-2.985 2.985-7.854 2.941-10.782-.152-2.835-2.995-2.548-7.786.368-10.702 5.434-5.434 5.434-14.245 0-19.679l-13.96-13.96-9.839 9.839c-2.916 2.916-7.707 3.204-10.702.368-3.094-2.928-3.137-7.797-.153-10.782l.22-.22c5.434-5.434 5.434-14.245 0-19.679l-13.286-13.286c-.227-.227-.454-.454-.674-.688l-9.888 9.888c-2.704 2.704-7.055 3.171-10.075.829-3.654-2.833-3.9-8.121-.738-11.283l10.867-10.867c-.831-1.109-1.64-2.234-2.428-3.371-9.815-14.175-8.161-33.325 4.031-45.517l8.592-8.592z" fill="url(#SVGID_2_)"/><path d="m469.128 48.42c-57.163-57.163-149.843-57.163-207.006 0l-67.8 67.8-6.087 14.792-12.282 3.576-11.017 11.017-7.823 13.266-10.546 5.103-2.318 2.318c4.055-22.232 9.131-43.116 15.079-62.293 9.897-31.916-14.157-64.236-47.562-64.236l-.007-.007c-20.099.007-38.282 12.066-45.931 30.661-17.586 42.76-30.192 97.725-35.502 159.248-2.827 32.76 9.135 65.074 32.385 88.326l130.96 130.964c22.623 22.623 59.303 22.624 81.926.001l78.139-78.139 4.162-13.419 14.143-4.884 11.081-11.081 4.893-13.65 13.411-4.654 67.701-67.701c57.164-57.166 57.164-149.846.001-207.008z" fill="url(#SVGID_3_)"/><g><path d="m424.207 245.713c-1.731-6.813-1.719-13.975.036-20.782.62-2.408-1.566-4.595-3.975-3.975-6.808 1.754-13.97 1.766-20.782.036-2.396-.608-4.571 1.567-3.962 3.962 1.731 6.813 1.718 13.975-.036 20.782-.62 2.408 1.566 4.595 3.975 3.975 6.808-1.754 13.97-1.766 20.782-.036 2.395.609 4.57-1.566 3.962-3.962z" fill="url(#SVGID_4_)"/><path d="m293.822 119.996c2.396.608 4.572-1.566 3.962-3.962-1.731-6.813-1.719-13.975.036-20.782.62-2.408-1.566-4.595-3.975-3.975-6.808 1.754-13.97 1.766-20.782.036-2.396-.608-4.571 1.567-3.962 3.962 1.731 6.813 1.718 13.975-.036 20.782-.62 2.408 1.566 4.595 3.975 3.975 6.808-1.754 13.97-1.767 20.782-.036z" fill="url(#SVGID_5_)"/><path d="m178.783 271.146c-1.731-6.813-1.719-13.975.036-20.782.62-2.408-1.566-4.595-3.975-3.975-6.808 1.754-13.97 1.766-20.782.036-2.396-.608-4.571 1.567-3.962 3.962 1.731 6.813 1.718 13.975-.036 20.782-.62 2.408 1.566 4.595 3.975 3.975 6.808-1.754 13.97-1.766 20.782-.036 2.396.609 4.572-1.566 3.962-3.962z" fill="url(#SVGID_6_)"/><path d="m427.19 167.779c-2.825-11.121-2.805-22.815.058-33.93 1.013-3.932-2.557-7.502-6.489-6.489-11.114 2.863-22.807 2.883-33.93.058-3.912-.994-7.463 2.558-6.47 6.469 2.825 11.122 2.805 22.815-.058 33.93-1.013 3.932 2.557 7.502 6.489 6.489 11.114-2.863 22.807-2.883 33.93-.058 3.913.995 7.464-2.557 6.47-6.469z" fill="url(#SVGID_7_)"/><path d="m206.979 344.695c-2.825-11.122-2.805-22.815.058-33.93 1.013-3.932-2.558-7.502-6.489-6.489-11.114 2.863-22.807 2.883-33.93.058-3.912-.994-7.463 2.558-6.469 6.469 2.825 11.122 2.805 22.815-.058 33.93-1.013 3.932 2.558 7.502 6.489 6.489 11.114-2.863 22.807-2.883 33.93-.058 3.911.996 7.462-2.556 6.469-6.469z" fill="url(#SVGID_8_)"/></g><path d="m137.522 167.137c-8.318 0-16.06-3.838-21.239-10.53-5.119-6.612-6.846-15.073-4.74-23.211l7.61-29.401c7.429-24.07-4.372-49.836-27.449-60.022 6.363-2.796 13.111-4.215 20.057-4.217h.669l.52.021c15.758.281 29.7 7.738 38.929 20.262 9.429 12.796 12.145 28.818 7.451 43.958-1.004 3.235-14.934 61.682-15.079 62.293-2.226.561-4.489.847-6.729.847z" fill="url(#SVGID_9_)"/><path d="m469.128 48.419c-33.704-33.704-79.754-47.527-123.592-41.487 30.513 4.204 59.955 18.027 83.415 41.487 57.163 57.163 57.163 149.843 0 207.006l-193.529 193.53c-6.115 6.115-13.261 10.562-20.875 13.371 20.554 7.585 44.543 3.137 61.051-13.371l78.139-78.139 4.16-13.419 14.143-4.884 11.08-11.081 4.894-13.65 13.411-4.654 67.701-67.701c57.165-57.165 57.165-149.845.002-207.008z" fill="url(#SVGID_10_)"/><g><path d="m391.304 317.569c-9.01-4.048-16.44-11.605-20.914-21.282-3.587-7.77-8.493-14.788-14.583-20.878-6.252-6.252-13.484-11.258-21.488-14.866-9.202-4.154-16.561-11.513-20.722-20.722-3.608-8.004-8.607-15.227-14.859-21.481s-13.484-11.258-21.488-14.866c-9.202-4.154-16.561-11.513-20.722-20.722-3.608-8.004-8.607-15.227-14.859-21.481-6.097-6.097-13.115-11.003-20.885-14.59-9.677-4.473-17.234-11.902-21.282-20.914-1.496-3.325-3.226-6.515-5.182-9.549l-18.368 18.368c.241.482.468.964.688 1.454 6.529 14.526 18.474 26.386 33.638 33.397 5.076 2.339 9.67 5.558 13.668 9.556 4.098 4.098 7.38 8.826 9.734 14.058 6.664 14.788 18.482 26.606 33.27 33.27 5.231 2.353 9.961 5.636 14.065 9.74 4.098 4.098 7.38 8.826 9.734 14.058 3.339 7.394 7.961 14.044 13.597 19.68s12.286 10.258 19.673 13.59c5.231 2.353 9.96 5.636 14.065 9.741 3.992 3.992 7.217 8.593 9.556 13.668 7.011 15.163 18.872 27.109 33.39 33.631.702.319 1.403.653 2.091 1l18.305-18.305c-3.203-2.11-6.592-3.967-10.122-5.555z" fill="url(#SVGID_11_)"/><path d="m341.012 325.664c-3.587-7.755-8.493-14.788-14.583-20.878-6.259-6.259-13.491-11.251-21.494-14.859-9.202-4.154-16.561-11.513-20.722-20.722-3.601-7.996-8.6-15.234-14.852-21.488-6.259-6.259-13.491-11.251-21.495-14.859-9.202-4.154-16.561-11.513-20.722-20.722-3.608-8.004-8.6-15.235-14.852-21.488-6.097-6.097-13.122-10.996-20.885-14.59-9.684-4.466-17.241-11.895-21.289-20.907-1.496-3.325-3.226-6.515-5.182-9.549l-18.368 18.369c.241.482.468.964.688 1.454 6.53 14.526 18.475 26.386 33.645 33.39 5.069 2.346 9.67 5.558 13.668 9.556 4.098 4.098 7.373 8.833 9.727 14.065 6.671 14.782 18.489 26.599 33.27 33.27 5.231 2.353 9.967 5.629 14.072 9.733s7.373 8.834 9.726 14.065c3.339 7.394 7.961 14.044 13.597 19.68s12.286 10.258 19.673 13.59c5.231 2.353 9.967 5.629 14.072 9.733 3.999 3.999 7.21 8.6 9.556 13.668 7.004 15.171 18.865 27.116 33.383 33.638.702.319 1.404.653 2.091 1l18.305-18.305c-3.204-2.112-6.593-3.97-10.124-5.558-9.009-4.045-16.431-11.609-20.905-21.286z" fill="url(#SVGID_12_)"/></g><g><path d="m391.299 317.57c-5.301-2.379-10.059-5.983-13.965-10.521l-17.759 17.759c6.064 6.646 13.342 11.977 21.454 15.621.703.321 1.405.653 2.098 1.004l18.302-18.312c-3.203-2.107-6.597-3.964-10.13-5.551z" fill="url(#SVGID_13_)"/><path d="m347.949 336.434-17.759 17.759c6.064 6.646 13.342 11.987 21.454 15.621.703.321 1.405.653 2.098 1.004l18.301-18.312c-3.203-2.108-6.596-3.965-10.13-5.552-5.3-2.378-10.049-5.982-13.964-10.52z" fill="url(#SVGID_14_)"/></g></svg>