<svg id="Capa_1" enable-background="new 0 0 510 510" height="512" viewBox="0 0 510 510" width="512" xmlns="http://www.w3.org/2000/svg" xmlns:xlink="http://www.w3.org/1999/xlink"><linearGradient id="lg1"><stop offset="0" stop-color="#97d729"/><stop offset=".5652" stop-color="#02905d"/><stop offset=".9955" stop-color="#026841"/></linearGradient><linearGradient id="SVGID_1_" gradientUnits="userSpaceOnUse" x1="131.295" x2="378.705" xlink:href="#lg1" y1="142.004" y2="142.004"/><linearGradient id="SVGID_2_" gradientUnits="userSpaceOnUse" x1="-16" x2="393.122" xlink:href="#lg1" y1="142.004" y2="142.004"/><linearGradient id="SVGID_3_" gradientUnits="userSpaceOnUse" x1="210" x2="546.006" xlink:href="#lg1" y1="378.184" y2="378.184"/><linearGradient id="SVGID_4_" gradientUnits="userSpaceOnUse" x1="170.667" x2="488.309" xlink:href="#lg1" y1="368.924" y2="368.924"/><linearGradient id="SVGID_5_" gradientUnits="userSpaceOnUse" x1="-66" x2="290.099" xlink:href="#lg1" y1="378.184" y2="378.184"/><linearGradient id="SVGID_6_" gradientUnits="userSpaceOnUse" x1="-167.333" x2="221.628" xlink:href="#lg1" y1="476.273" y2="476.273"/><linearGradient id="SVGID_7_" gradientUnits="userSpaceOnUse" x1="-167.333" x2="221.628" xlink:href="#lg1" y1="351.451" y2="351.451"/><linearGradient id="lg2"><stop offset="0" stop-color="#fe646f"/><stop offset=".5213" stop-color="#e41f2d"/><stop offset="1" stop-color="#c41926"/></linearGradient><linearGradient id="SVGID_8_" gradientUnits="userSpaceOnUse" x1="131.295" x2="308.009" xlink:href="#lg2" y1="260.877" y2="260.877"/><linearGradient id="SVGID_9_" gradientUnits="userSpaceOnUse" x1="1" x2="267.511" xlink:href="#lg2" y1="260.879" y2="260.879"/><linearGradient id="SVGID_10_" gradientUnits="userSpaceOnUse" x1="240.854" x2="412.005" xlink:href="#lg2" y1="260.877" y2="260.877"/><linearGradient id="SVGID_11_" gradientUnits="userSpaceOnUse" x1="121" x2="366.018" xlink:href="#lg2" y1="260.877" y2="260.877"/><linearGradient id="SVGID_12_" gradientUnits="userSpaceOnUse" x1="186.075" x2="359.005" xlink:href="#lg2" y1="350.39" y2="350.39"/><linearGradient id="SVGID_13_" gradientUnits="userSpaceOnUse" x1="66.22" x2="311.238" xlink:href="#lg2" y1="350.39" y2="350.39"/><g><g><path d="m134.523 183.401c21.273 13.839 35.346 37.83 35.346 65.096 0 .247-.001.494-.003.74-.043 4.573 4.105 8 8.591 7.111 4.901-.971 9.969-1.48 15.157-1.48 21.404 0 40.791 8.671 54.828 22.687 3.63 3.624 9.488 3.624 13.117 0 14.037-14.016 33.424-22.687 54.828-22.687 5.188 0 10.256.509 15.157 1.48 4.486.889 8.633-2.538 8.591-7.11-.002-.246-.003-.493-.003-.74 0-27.266 14.074-51.256 35.346-65.096 4.816-3.133 4.104-10.365-1.208-12.555-28.19-11.622-48.038-39.376-48.038-71.763 0-13.695 3.551-26.56 9.78-37.729 1.879-3.368-.517-7.453-4.373-7.443-.065 0-.13 0-.195 0-31.91 0-59.323-19.264-71.241-46.792-1.954-4.513-8.452-4.513-10.406 0-11.918 27.529-39.331 46.792-71.241 46.792-.065 0-.13 0-.195 0-3.856-.01-6.252 4.075-4.373 7.443 6.23 11.169 9.78 24.034 9.78 37.729 0 32.387-19.847 60.141-48.038 71.763-5.312 2.19-6.023 9.421-1.207 12.554z" fill="url(#SVGID_1_)"/><path d="m374.27 170.847c-28.19-11.622-48.038-39.375-48.038-71.763 0-13.695 3.551-26.56 9.78-37.729 1.879-3.368-.517-7.453-4.373-7.443-.065 0-.13 0-.195 0-31.91 0-59.323-19.264-71.241-46.792-1.954-4.513-8.452-4.513-10.406 0-5.018 11.591-12.791 21.707-22.481 29.546 13.972 20.452 37.469 33.883 64.108 33.883h.195c3.856-.01 6.252 4.075 4.373 7.443-5.234 9.383-8.567 19.967-9.502 31.23-1.052.565-2.043 1.287-2.931 2.175l-16.059 16.06v-36.323c0-6.904-5.596-12.5-12.5-12.5s-12.5 5.596-12.5 12.5v36.323l-16.059-16.059c-4.882-4.882-12.796-4.882-17.678 0-4.882 4.882-4.882 12.796 0 17.678l33.737 33.737v35.829l-16.059-16.059c-4.882-4.882-12.796-4.882-17.678 0-4.882 4.882-4.882 12.796 0 17.678l33.737 33.737v38.219c2.069 1.681 4.057 3.457 5.941 5.339 3.63 3.624 9.488 3.624 13.117 0 1.884-1.882 3.872-3.658 5.942-5.339v-38.218l33.737-33.736c4.882-4.882 4.882-12.796 0-17.678s-12.796-4.882-17.678 0l-16.059 16.056v-35.829l22.653-22.653c7.118 21.459 23.34 38.767 44.096 47.325 5.312 2.19 6.024 9.421 1.208 12.555-18.99 12.354-32.233 32.8-34.859 56.441 5.099-1.054 10.378-1.612 15.789-1.612 5.188 0 10.256.509 15.157 1.48 4.486.889 8.634-2.538 8.591-7.11-.002-.246-.003-.493-.003-.74 0-27.266 14.074-51.256 35.346-65.096 4.815-3.134 4.104-10.365-1.208-12.555z" fill="url(#SVGID_2_)"/></g><path d="m447.943 273.825c-24.828 5.256-51.743-1.756-71.023-21.036-.175-.175-.348-.35-.521-.526-3.203-3.264-8.559-2.754-11.103 1.047-2.779 4.153-6.003 8.096-9.671 11.764-15.135 15.135-34.975 22.712-54.811 22.728-5.129.004-9.271 4.146-9.275 9.275-.015 19.837-7.593 39.676-22.728 54.811-3.668 3.668-7.612 6.892-11.764 9.671-3.8 2.543-4.31 7.899-1.047 11.102.176.173.351.346.526.521 19.28 19.28 26.292 46.195 21.036 71.023-1.19 5.621 4.427 10.231 9.731 8.024 28.152-11.716 61.811-6.125 84.712 16.776 9.684 9.684 16.27 21.291 19.762 33.594 1.053 3.71 5.635 4.904 8.355 2.171.046-.046.092-.092.138-.138 22.563-22.563 55.569-28.326 83.462-17.288 4.573 1.81 9.168-2.785 7.358-7.358-11.039-27.893-5.276-60.899 17.288-83.462.046-.046.092-.092.138-.138 2.734-2.72 1.539-7.302-2.171-8.355-12.303-3.493-23.91-10.079-33.594-19.762-22.901-22.901-28.492-56.56-16.776-84.712 2.209-5.305-2.401-10.922-8.022-9.732z" fill="url(#SVGID_3_)"/><path d="m506.322 388.027c-12.297-3.494-23.899-10.078-33.58-19.758-22.901-22.901-28.492-56.56-16.776-84.711 2.208-5.305-2.403-10.922-8.024-9.732-24.828 5.256-51.743-1.756-71.023-21.036-.175-.175-.349-.351-.521-.527-3.207-3.27-8.574-2.724-11.124 1.081-2.774 4.14-5.99 8.073-9.649 11.731-.336.336-.688.649-1.029.978 16.414 8.962 35.383 11.559 53.273 7.784 5.593-1.18 10.325 4.34 8.121 9.614-11.002 26.326-6.85 57.489 12.45 80.171h-43.405l-25.335-25.335h22.711c6.904 0 12.5-5.596 12.5-12.5 0-6.904-5.597-12.5-12.5-12.5h-47.711l-25.911-25.911c-2.652.275-5.313.424-7.976.426-5.093.004-9.272 4.182-9.275 9.275-.002 2.663-.152 5.325-.426 7.977l25.911 25.911v47.711c0 6.982 5.723 12.626 12.734 12.498 6.881-.126 12.266-6.03 12.266-12.913v-22.296l25.335 25.335v47.711c0 6.982 5.723 12.626 12.734 12.498 6.882-.126 12.266-6.03 12.266-12.913v-22.296l25.391 25.391c4.867 4.867 12.849 5.234 17.804.457 5.048-4.867 5.104-12.905.167-17.842l-25.684-25.684h22.71c1.515 0 2.967-.27 4.309-.764 8.971-3.302 18.819-2.977 27.968-.206.436.132.872.26 1.31.384 3.673 1.042 4.859 5.658 2.153 8.35-.046.046-.092.092-.138.138-22.563 22.563-28.326 55.569-17.288 83.462.269.678.381 1.354.389 2.012 10.913-.515 21.913 1.255 32.217 5.324 4.604 1.818 9.241-2.721 7.419-7.324-11.045-27.895-5.284-60.908 17.283-83.474l.138-.138c2.718-2.702 1.502-7.312-2.184-8.359z" fill="url(#SVGID_4_)"/><path d="m62.057 273.825c24.828 5.256 51.743-1.756 71.023-21.036.175-.175.348-.35.521-.526 3.203-3.264 8.559-2.754 11.103 1.047 2.779 4.153 6.003 8.096 9.671 11.764 15.135 15.135 34.975 22.712 54.811 22.728 5.129.004 9.271 4.146 9.275 9.275.015 19.837 7.593 39.676 22.727 54.811 3.668 3.668 7.612 6.892 11.764 9.671 3.8 2.543 4.31 7.899 1.047 11.102-.176.173-.351.346-.526.521-19.28 19.28-26.292 46.195-21.036 71.023 1.19 5.621-4.427 10.231-9.731 8.024-28.152-11.716-61.811-6.125-84.712 16.776-9.684 9.684-16.27 21.291-19.762 33.594-1.053 3.71-5.635 4.904-8.355 2.171-.046-.046-.092-.092-.138-.138-22.563-22.563-55.569-28.326-83.462-17.288-4.573 1.81-9.168-2.785-7.358-7.358 11.039-27.893 5.276-60.899-17.288-83.462-.046-.046-.092-.092-.138-.138-2.734-2.72-1.539-7.302 2.171-8.355 12.303-3.493 23.91-10.079 33.594-19.762 22.901-22.901 28.492-56.56 16.776-84.712-2.208-5.305 2.402-10.922 8.023-9.732z" fill="url(#SVGID_5_)"/><g><path d="m97.97 469.004c-5.64 5.64-10.23 11.93-13.76 18.64 9.29 3.79 17.99 9.45 25.53 16.99.04.04.09.09.14.14 2.72 2.73 7.3 1.54 8.35-2.17 3.49-12.31 10.08-23.91 19.76-33.6 10.01-10.01 22.08-16.71 34.85-20.11-25.86-6.88-54.58-.17-74.87 20.11z" fill="url(#SVGID_6_)"/><path d="m252.95 361.564c-4.15-2.78-8.09-6.01-11.76-9.68-13.1-13.1-20.54-29.72-22.31-46.82-.28-2.65-.42-5.32-.42-7.99 0-5.12-4.15-9.27-9.27-9.27-2.67 0-5.34-.14-7.99-.42-17.1-1.77-33.73-9.21-46.83-22.31-3.66-3.67-6.89-7.61-9.67-11.76-2.54-3.8-7.9-4.31-11.1-1.05-.17.18-.34.35-.52.53-5.38 5.38-11.36 9.81-17.72 13.27-2.76 1.51-5.58 2.83-8.47 3.98 2.29 17.27 10.98 32.52 23.61 43.29h-2.543c-6.88 0-12.784 5.379-12.915 12.258-.133 7.011 5.517 12.742 12.498 12.742h22.71l-25.33 25.33h-47.335c-6.868 0-12.865 5.614-12.875 12.481-.005 3.457 1.396 6.594 3.66 8.859 2.27 2.26 5.39 3.66 8.84 3.66h22.71l-25.68 25.69c-4.89 4.88-4.89 12.79 0 17.67 4.88 4.89 12.79 4.89 17.67 0l25.69-25.68v22.336c0 6.868 5.614 12.865 12.482 12.874 3.457.005 6.594-1.396 8.858-3.66 2.26-2.26 3.66-5.39 3.66-8.84v-47.71l19.42-19.43c1.12 6.64 3.19 12.97 6.07 18.82.5 3.05 2.09 5.73 4.37 7.62.769 1.164 1.572 2.304 2.408 3.417 9.085 12.098 15.034 26.349 16.034 41.445.244 3.687.75 7.36 1.518 10.988.15.71.19 1.41.13 2.08 10.26-.04 20.53 1.94 30.16 5.95 5.3 2.2 10.92-2.41 9.73-8.03-1.73-8.19-2.13-16.6-1.2-24.9 1.9-16.85 9.31-33.2 22.23-46.12.18-.18.35-.35.53-.52 3.26-3.21 2.75-8.56-1.05-11.1z" fill="url(#SVGID_7_)"/></g><circle cx="200.22" cy="260.877" fill="url(#SVGID_8_)" r="68.926"/><path d="m269.15 260.874c0 3.61-.28 7.16-.81 10.62-2.75 17.75-12.27 33.27-25.84 43.83-11.67 9.08-26.34 14.48-42.28 14.48-6.96 0-13.68-1.03-20.01-2.95-3.58-1.08-7.03-2.44-10.33-4.07 3.97-25.74 22.18-46.77 46.33-54.8-.25-2.34-.37-4.71-.37-7.11 0-10.58 2.38-20.59 6.65-29.55-8.26-17.38-23.59-30.76-42.28-36.41 6.33-1.93 13.05-2.96 20.01-2.96 15.94 0 30.61 5.41 42.28 14.48 16.22 12.61 26.65 32.31 26.65 54.44z" fill="url(#SVGID_9_)"/><circle cx="309.78" cy="260.877" fill="url(#SVGID_10_)" r="68.926"/><path d="m309.78 191.951c-6.961 0-13.676 1.042-20.01 2.961 28.306 8.576 48.916 34.859 48.916 65.965s-20.61 57.389-48.916 65.965c6.334 1.919 13.049 2.961 20.01 2.961 38.066 0 68.926-30.859 68.926-68.926s-30.86-68.926-68.926-68.926z" fill="url(#SVGID_11_)"/><circle cx="255" cy="350.39" fill="url(#SVGID_12_)" r="68.926"/><path d="m255 281.465c-6.961 0-13.676 1.042-20.01 2.961 28.306 8.576 48.916 34.859 48.916 65.965s-20.61 57.389-48.916 65.965c6.334 1.919 13.049 2.961 20.01 2.961 38.066 0 68.926-30.859 68.926-68.926s-30.86-68.926-68.926-68.926z" fill="url(#SVGID_13_)"/></g></svg>