<svg id="Capa_1" enable-background="new 0 0 510 510" height="512" viewBox="0 0 510 510" width="512" xmlns="http://www.w3.org/2000/svg" xmlns:xlink="http://www.w3.org/1999/xlink"><linearGradient id="lg1"><stop offset="0" stop-color="#fe646f"/><stop offset=".5213" stop-color="#e41f2d"/><stop offset="1" stop-color="#c41926"/></linearGradient><linearGradient id="SVGID_1_" gradientUnits="userSpaceOnUse" x1="-972.314" x2="1623.113" xlink:href="#lg1" y1="61.679" y2="61.679"/><linearGradient id="SVGID_2_" gradientUnits="userSpaceOnUse" x1="-170" x2="292.822" xlink:href="#lg1" y1="61.68" y2="61.68"/><linearGradient id="SVGID_3_" gradientUnits="userSpaceOnUse" x1="213.333" x2="522.831" xlink:href="#lg1" y1="61.679" y2="61.679"/><linearGradient id="SVGID_4_" gradientUnits="userSpaceOnUse" x1="74.626" x2="445.156" xlink:href="#lg1" y1="61.683" y2="61.683"/><linearGradient id="SVGID_5_" gradientUnits="userSpaceOnUse" x1="208.357" x2="326.51" xlink:href="#lg1" y1="117.63" y2="117.63"/><linearGradient id="SVGID_6_" gradientUnits="userSpaceOnUse" x1="153.667" x2="293.699" xlink:href="#lg1" y1="117.63" y2="117.63"/><linearGradient id="lg2"><stop offset="0" stop-color="#97d729"/><stop offset=".5652" stop-color="#02905d"/><stop offset=".9955" stop-color="#026841"/></linearGradient><linearGradient id="SVGID_7_" gradientUnits="userSpaceOnUse" x1="34.128" x2="649.143" xlink:href="#lg2" y1="345" y2="345"/><linearGradient id="SVGID_8_" gradientUnits="userSpaceOnUse" x1="-84.369" x2="530.654" xlink:href="#lg2" y1="345" y2="345"/><linearGradient id="SVGID_9_" gradientUnits="userSpaceOnUse" x1="78" x2="232.263" xlink:href="#lg1" y1="345" y2="345"/><linearGradient id="SVGID_10_" gradientUnits="userSpaceOnUse" x1="-78" x2="166.1" xlink:href="#lg1" y1="225.098" y2="225.098"/><linearGradient id="SVGID_11_" gradientUnits="userSpaceOnUse" x1="-177.361" x2="496.588" xlink:href="#lg2" y1="345" y2="345"/><linearGradient id="SVGID_12_" gradientUnits="userSpaceOnUse" x1="-223.863" x2="450.094" xlink:href="#lg2" y1="345" y2="345"/><linearGradient id="SVGID_13_" gradientUnits="userSpaceOnUse" x1="224" x2="449.08" xlink:href="#lg1" y1="345" y2="345"/><linearGradient id="SVGID_14_" gradientUnits="userSpaceOnUse" x1="-21" x2="336.013" xlink:href="#lg1" y1="509.216" y2="509.216"/><linearGradient id="SVGID_15_" gradientUnits="userSpaceOnUse" x1="-21" x2="336.013" xlink:href="#lg1" y1="230.657" y2="230.657"/><linearGradient id="SVGID_16_" gradientUnits="userSpaceOnUse" x1="-91.87" x2="549.3" xlink:href="#lg2" y1="182.098" y2="182.098"/><linearGradient id="SVGID_17_" gradientUnits="userSpaceOnUse" x1="22" x2="603.003" xlink:href="#lg2" y1="182.097" y2="182.097"/><linearGradient id="SVGID_18_" gradientUnits="userSpaceOnUse" x1="18" x2="511.739" xlink:href="#lg2" y1="182.1" y2="182.1"/><linearGradient id="SVGID_19_" gradientUnits="userSpaceOnUse" x1="120" x2="483.31" xlink:href="#lg2" y1="182.097" y2="182.097"/><linearGradient id="SVGID_20_" gradientUnits="userSpaceOnUse" x1="-13.685" x2="153.831" xlink:href="#lg1" y1="182.097" y2="182.097"/><linearGradient id="SVGID_21_" gradientUnits="userSpaceOnUse" x1="299.716" x2="467.232" xlink:href="#lg1" y1="182.097" y2="182.097"/><g><path d="m273.52 123.357-105.187-105.186c-38.816-38.817-105.186-11.325-105.186 43.569 0 34.03 27.587 61.617 61.617 61.617z" fill="url(#SVGID_1_)"/><path d="m273.52 123.36h-89.82c-.23-1.88-.35-3.79-.35-5.73 0-7.884 1.953-15.309 5.404-21.817 3.562-6.718 2.209-14.99-3.168-20.367l-57.276-57.276c-7.04-7.04-14.98-11.89-23.27-14.8 20.67-7.05 45.03-3.46 63.29 14.8l53.53 53.53z" fill="url(#SVGID_2_)"/><path d="m236.48 123.357 105.187-105.186c38.816-38.816 105.186-11.325 105.186 43.57 0 34.03-27.587 61.617-61.617 61.617h-148.756z" fill="url(#SVGID_3_)"/><path d="m364.954 3.37c23.271 7.926 41.878 29.305 41.878 58.37 0 34.03-27.587 61.617-61.617 61.617h40.02c34.03 0 61.617-27.587 61.617-61.617.001-44.936-44.47-71.499-81.898-58.37z" fill="url(#SVGID_4_)"/><g><circle cx="255" cy="117.63" fill="url(#SVGID_5_)" r="46.643"/><path d="m255 70.987c-4.334 0-8.524.604-12.505 1.709 19.685 5.468 34.138 23.507 34.138 44.934s-14.453 39.466-34.138 44.934c3.981 1.106 8.172 1.709 12.505 1.709 25.76 0 46.643-20.883 46.643-46.643s-20.883-46.643-46.643-46.643z" fill="url(#SVGID_6_)"/></g><g><path d="m416.849 510h-323.698c-10.334 0-19.152-7.472-20.849-17.665l-47.908-287.727c-2.145-12.882 7.79-24.608 20.85-24.608h419.513c13.06 0 22.994 11.726 20.849 24.608l-47.908 287.727c-1.697 10.193-10.516 17.665-20.849 17.665z" fill="url(#SVGID_7_)"/><path d="m485.61 204.61-10.77 64.69-37.14 223.04c-1.7 10.19-10.52 17.66-20.85 17.66h-201.87v-166.697c0-40.871-33.132-74.003-74.003-74.003h-105.817l-10.77-64.69c-2.14-12.88 7.79-24.61 20.85-24.61h419.52c13.06 0 22.99 11.73 20.85 24.61z" fill="url(#SVGID_8_)"/><path d="m125.343 510h45.126l-24.743-330h-45.127z" fill="url(#SVGID_9_)"/><path d="m140.977 269.3c3.916 0 7.76.31 11.512.896l-6.763-90.196h-45.126l6.696 89.3z" fill="url(#SVGID_10_)"/><path d="m464.757 180h-209.757v330h161.849c10.334 0 19.152-7.472 20.849-17.665l47.908-287.727c2.145-12.882-7.79-24.608-20.849-24.608z" fill="url(#SVGID_11_)"/><path d="m485.61 204.61-47.91 287.73c-1.7 10.19-10.52 17.66-20.85 17.66h-40.02c10.33 0 19.15-7.47 20.85-17.66l25.914-155.623c5.877-35.293-21.34-67.417-57.119-67.417h-111.475v-89.3h209.76c13.06 0 22.99 11.73 20.85 24.61z" fill="url(#SVGID_12_)"/><path d="m409.401 180h-45.127l-24.743 330h45.127z" fill="url(#SVGID_13_)"/><g><path d="m384.658 510 .117-1.567c-2.466 1.002-5.146 1.567-7.945 1.567z" fill="url(#SVGID_14_)"/><path d="m364.274 180-6.696 89.3h8.896c13.41 0 25.616 4.513 35.329 12.013l7.598-101.313z" fill="url(#SVGID_15_)"/></g><path d="m489.924 244.287h-469.848c-11.088 0-20.076-8.989-20.076-20.076v-84.226c0-11.088 8.988-20.076 20.076-20.076h46.26l32.96 16 30.277-16h256.416l27.205 13.939 24.113-13.939h52.617c11.088 0 20.076 8.988 20.076 20.076v84.226c0 11.087-8.988 20.076-20.076 20.076z" fill="url(#SVGID_16_)"/><path d="m20.076 119.908c-11.088 0-20.076 8.988-20.076 20.076v84.226c0 11.088 8.988 20.076 20.076 20.076h234.924v-124.378h-131.177l-23.762 16.914-27.211-16.914z" fill="url(#SVGID_17_)"/><path d="m214.98 119.91h40.02v124.38h-40.02z" fill="url(#SVGID_18_)"/><path d="m489.924 119.908h-40.02c11.088 0 20.076 8.988 20.076 20.076v84.226c0 11.088-8.988 20.076-20.076 20.076h40.02c11.088 0 20.076-8.988 20.076-20.076v-84.226c0-11.088-8.988-20.076-20.076-20.076z" fill="url(#SVGID_19_)"/><g><path d="m72.3 119.908h52v124.378h-52z" fill="url(#SVGID_20_)"/><path d="m385.7 119.908h52v124.378h-52z" fill="url(#SVGID_21_)"/></g></g></g></svg>