<svg id="Capa_1" enable-background="new 0 0 510.003 510.003" height="512" viewBox="0 0 510.003 510.003" width="512" xmlns="http://www.w3.org/2000/svg" xmlns:xlink="http://www.w3.org/1999/xlink"><linearGradient id="lg1"><stop offset="0" stop-color="#97d729"/><stop offset=".5652" stop-color="#02905d"/><stop offset=".9955" stop-color="#026841"/></linearGradient><linearGradient id="SVGID_1_" gradientUnits="userSpaceOnUse" x1="157.115" x2="310.471" xlink:href="#lg1" y1="390.567" y2="390.567"/><linearGradient id="SVGID_2_" gradientUnits="userSpaceOnUse" x1="157.115" x2="310.471" xlink:href="#lg1" y1="389.547" y2="389.547"/><linearGradient id="lg2"><stop offset="0" stop-color="#fbc56d"/><stop offset=".5841" stop-color="#fe9738"/><stop offset=".9984" stop-color="#fb2b3a"/></linearGradient><linearGradient id="SVGID_3_" gradientUnits="userSpaceOnUse" x1="142" x2="387.033" xlink:href="#lg2" y1="293.287" y2="293.287"/><linearGradient id="SVGID_4_" gradientUnits="userSpaceOnUse" x1="70" x2="367.242" xlink:href="#lg2" y1="293.291" y2="293.291"/><linearGradient id="SVGID_5_" gradientUnits="userSpaceOnUse" x1="250" x2="481" xlink:href="#lg1" y1="448.301" y2="448.301"/><linearGradient id="SVGID_6_" gradientUnits="userSpaceOnUse" x1="250" x2="481" xlink:href="#lg1" y1="447.281" y2="447.281"/><linearGradient id="SVGID_7_" gradientUnits="userSpaceOnUse" x1="250" x2="481" xlink:href="#lg1" y1="434.421" y2="434.421"/><linearGradient id="SVGID_8_" gradientUnits="userSpaceOnUse" x1="250" x2="481" xlink:href="#lg1" y1="419.596" y2="419.596"/><linearGradient id="SVGID_9_" gradientUnits="userSpaceOnUse" x1="250" x2="481" xlink:href="#lg1" y1="417.371" y2="417.371"/><linearGradient id="lg3"><stop offset="0" stop-color="#fef056"/><stop offset=".5213" stop-color="#f4d902"/><stop offset="1" stop-color="#fe9738"/></linearGradient><linearGradient id="SVGID_10_" gradientUnits="userSpaceOnUse" x1="225" x2="518.384" xlink:href="#lg3" y1="307.885" y2="307.885"/><linearGradient id="SVGID_11_" gradientUnits="userSpaceOnUse" x1="110" x2="506.006" xlink:href="#lg3" y1="307.886" y2="307.886"/><linearGradient id="lg4"><stop offset="0" stop-color="#fe646f"/><stop offset=".5213" stop-color="#e41f2d"/><stop offset="1" stop-color="#c41926"/></linearGradient><linearGradient id="SVGID_12_" gradientUnits="userSpaceOnUse" x1="305" x2="575.267" xlink:href="#lg4" y1="363.561" y2="363.561"/><linearGradient id="SVGID_13_" gradientUnits="userSpaceOnUse" x1="305" x2="575.267" xlink:href="#lg4" y1="306.335" y2="306.335"/><linearGradient id="SVGID_14_" gradientUnits="userSpaceOnUse" x1="-74.893" x2="514.579" xlink:href="#lg3" y1="112.591" y2="112.591"/><linearGradient id="SVGID_15_" gradientUnits="userSpaceOnUse" x1="-262" x2="409.717" xlink:href="#lg3" y1="112.589" y2="112.589"/><linearGradient id="SVGID_16_" gradientUnits="userSpaceOnUse" x1="-262" x2="409.717" xlink:href="#lg3" y1="118.829" y2="118.829"/><linearGradient id="SVGID_17_" gradientUnits="userSpaceOnUse" x1="-26.667" x2="600.702" xlink:href="#lg1" y1="104.856" y2="104.856"/><linearGradient id="SVGID_18_" gradientUnits="userSpaceOnUse" x1="-26.667" x2="600.702" xlink:href="#lg1" y1="105.046" y2="105.046"/><linearGradient id="SVGID_19_" gradientUnits="userSpaceOnUse" x1="-26.667" x2="600.702" xlink:href="#lg1" y1="131.354" y2="131.354"/><linearGradient id="SVGID_20_" gradientUnits="userSpaceOnUse" x1="-26.667" x2="600.702" xlink:href="#lg1" y1="131.463" y2="131.463"/><linearGradient id="SVGID_21_" gradientUnits="userSpaceOnUse" x1="-50" x2="382.432" xlink:href="#lg1" y1="114.507" y2="114.507"/><linearGradient id="SVGID_22_" gradientUnits="userSpaceOnUse" x1="-50" x2="382.432" xlink:href="#lg1" y1="139.747" y2="139.747"/><linearGradient id="SVGID_23_" gradientUnits="userSpaceOnUse" x1="-50" x2="382.432" xlink:href="#lg1" y1="143.929" y2="143.929"/><linearGradient id="SVGID_24_" gradientUnits="userSpaceOnUse" x1="-50" x2="382.432" xlink:href="#lg1" y1="215.447" y2="215.447"/><linearGradient id="SVGID_25_" gradientUnits="userSpaceOnUse" x1="270" x2="494.064" xlink:href="#lg4" y1="333.491" y2="333.491"/><linearGradient id="SVGID_26_" gradientUnits="userSpaceOnUse" x1="270" x2="494.064" xlink:href="#lg4" y1="276.266" y2="276.266"/><g><g><path d="m260.761 328.866c-4.142 0-7.5 3.358-7.5 7.5v108.4c0 4.142 3.358 7.5 7.5 7.5s7.5-3.358 7.5-7.5v-108.4c0-4.142-3.358-7.5-7.5-7.5z" fill="url(#SVGID_1_)"/><path d="m297.231 328.866c-4.142 0-7.5 3.358-7.5 7.5v106.36c0 4.142 3.358 7.5 7.5 7.5s7.5-3.358 7.5-7.5v-106.36c0-4.142-3.358-7.5-7.5-7.5z" fill="url(#SVGID_2_)"/></g><path d="m332.93 405.307h-62.816c-15.527 0-28.114-12.587-28.114-28.114v-195.926h90.93z" fill="url(#SVGID_3_)"/><path d="m332.93 181.271v224.04h-43.25v-138.589c0-9.498-7.853-17.16-17.345-16.824-5.489.194-11.015.293-16.575.293-4.61 0-9.2-.07-13.76-.21v-68.71z" fill="url(#SVGID_4_)"/><g><path d="m325.43 386.601c-4.142 0-7.5 3.358-7.5 7.5v108.4c0 4.142 3.358 7.5 7.5 7.5s7.5-3.358 7.5-7.5v-108.4c0-4.142-3.358-7.5-7.5-7.5z" fill="url(#SVGID_5_)"/><path d="m361.9 386.601c-4.142 0-7.5 3.358-7.5 7.5v106.36c0 4.142 3.358 7.5 7.5 7.5s7.5-3.358 7.5-7.5v-106.36c0-4.142-3.358-7.5-7.5-7.5z" fill="url(#SVGID_6_)"/><path d="m398.38 386.601c-4.142 0-7.5 3.358-7.5 7.5v80.64c0 4.142 3.358 7.5 7.5 7.5s7.5-3.358 7.5-7.5v-80.64c0-4.142-3.358-7.5-7.5-7.5z" fill="url(#SVGID_7_)"/><path d="m434.86 386.601c-4.142 0-7.5 3.358-7.5 7.5v50.99c0 4.142 3.358 7.5 7.5 7.5s7.5-3.358 7.5-7.5v-50.99c0-4.142-3.358-7.5-7.5-7.5z" fill="url(#SVGID_8_)"/><path d="m471.33 386.601c-4.142 0-7.5 3.358-7.5 7.5v46.54c0 4.142 3.358 7.5 7.5 7.5s7.5-3.358 7.5-7.5v-46.54c0-4.142-3.358-7.5-7.5-7.5z" fill="url(#SVGID_9_)"/></g><path d="m314.687 145.589v307.6c0 9.384 6.479 16.992 14.472 16.992h14.813c21.757 0 42.394-11.329 56.345-30.932 13.951-19.603 34.587-30.932 56.345-30.932h10.938c7.993 0 14.472-7.608 14.472-16.992v-245.736z" fill="url(#SVGID_10_)"/><path d="m482.07 145.591v245.73c0 9.39-6.48 17-14.47 17h-10.94c-10.88 0-21.48 2.83-31.1 8.12-9.62 5.28-18.26 13.01-25.24 22.81-13.95 19.6-34.59 30.93-56.35 30.93h-14.81c-2.79 0-5.39-.92-7.59-2.52 15.01-4.35 28.63-14.21 38.73-28.41 6.98-9.8 15.62-17.53 25.24-22.81 9.62-5.29 20.22-8.12 31.1-8.12h10.94c7.99 0 14.47-7.61 14.47-17v-95.048c0-40.035-37.694-69.328-76.503-59.493-16.362 4.147-33.357 7.393-50.857 9.65v-100.84h167.38z" fill="url(#SVGID_11_)"/><path d="m467.6 313.879h-10.939c-21.757 0-42.394 11.329-56.345 30.932-13.951 19.603-34.587 30.932-56.345 30.932h-14.813c-7.993 0-14.472-7.608-14.472-16.992v54.492c0 9.384 6.479 16.992 14.472 16.992h14.813c21.757 0 42.394-11.329 56.345-30.932 13.951-19.603 34.587-30.932 56.345-30.932h10.939c7.993 0 14.472-7.608 14.472-16.992v-54.492c0 9.385-6.479 16.992-14.472 16.992z" fill="url(#SVGID_12_)"/><path d="m467.6 272.749h-10.939c-21.757 0-42.394 11.329-56.345 30.932-13.951 19.603-34.587 30.932-56.345 30.932h-14.813c-7.993 0-14.472-7.608-14.472-16.992v22.3c0 9.384 6.479 16.992 14.472 16.992h14.813c21.757 0 42.394-11.329 56.345-30.932 13.951-19.603 34.587-30.932 56.345-30.932h10.939c7.993 0 14.472-7.608 14.472-16.992v-22.3c0 9.385-6.479 16.992-14.472 16.992z" fill="url(#SVGID_13_)"/><g><path d="m490.849 78.616c14.113-16.412 15.72-40.366 3.447-58.195-12.33-17.912-29.751-25.651-47.05-16.644-53.245 27.725-119.571 44.173-191.49 44.173s-138.245-16.448-191.491-44.173c-17.275-8.995-34.672-1.289-47 16.569-4.749 6.879-5.135 15.879-1.196 23.252 4.486 8.397 1.358 18.84-7.004 23.39-5.518 3.002-8.982 8.752-9.055 15.033-.007.552-.01 1.104-.01 1.659 0 33.763 12.07 64.316 30.666 77.16 57.534 39.74 137.134 64.337 225.09 64.337s167.556-24.597 225.09-64.337c14.574-10.066 25.134-31.011 29.02-55.853 1.103-7.049-4.8-13.231-11.904-12.578-7.492.689-12.018-8.088-7.113-13.793z" fill="url(#SVGID_14_)"/><g><path d="m497.96 92.406c-.28.03-.56.04-.83.04-.34 0-.67-.02-.99-.06-6.36-.74-9.79-8.54-5.29-13.77 14.11-16.41 15.72-40.37 3.45-58.19-5.67-8.24-12.41-14.32-19.72-17.61-8.59-3.89-17.98-3.91-27.33.96-1.95 1.02-3.92 2.02-5.91 3 4.71 3.41 9.07 8.03 12.94 13.65 12.27 17.82 10.66 41.78-3.45 58.19-.166.192-.321.388-.465.586-5.972 8.216-13.493 15.159-22.69 19.469-50.184 23.519-109.558 36.165-171.915 36.165-7.08 0-14.121-.167-21.113-.492-8.508-.396-15.647 6.332-15.647 14.85v.251c0 7.927 6.215 14.484 14.133 14.858 7.497.354 15.043.534 22.627.534 60.695 0 118.955-11.289 169.781-32.444 17.832-7.422 31.534 16.881 15.8 28.086-.17.121-.34.24-.511.358-53.14 36.7-125.11 60.49-205.08 63.91 6.62.29 13.29.43 20.01.43 87.95 0 167.55-24.6 225.09-64.34 14.57-10.06 25.13-31.01 29.02-55.85 1.1-7.051-4.8-13.231-11.91-12.581z" fill="url(#SVGID_15_)"/><path d="m129.517 116.289c-19.617-6.1-38.293-13.649-55.748-22.566-9.958-5.088-21.769 2.172-21.769 13.355v.031c0 5.608 3.116 10.773 8.111 13.323 18.973 9.687 39.241 17.871 60.496 24.477 9.627 2.992 19.393-4.25 19.393-14.331 0-6.542-4.238-12.347-10.483-14.289z" fill="url(#SVGID_16_)"/></g><g><path d="m96.5 111.327c0-.693.002-1.383.006-2.066.017-2.613.507-4.451.808-5.251 9.172-10.089 15.963-30.307 9.73-52.174-1.5-5.264-1.364-12.41.323-16.991 1.841-4.999 3.517-8.309 4.807-10.45-14.584-5.096-28.515-10.949-41.697-17.474-1.906 3.768-3.686 7.891-5.335 12.37-5 13.575-5.513 30.351-1.373 44.878 1.072 3.763.477 8.278-.197 10.039-7.593 8.271-11.977 20.864-12.063 34.777-.005.778-.007 1.559-.007 2.342 0 20.71 1.896 44.603 6.472 66.313 17.759 9.734 37.068 18.183 57.63 25.151-.677-.853-1.359-1.697-2.029-2.564-6.865-8.885-17.075-39.893-17.075-88.9z" fill="url(#SVGID_17_)"/><path d="m446.808 107.768c-.337-.309-.68-.609-1.028-.899 9.777-26.61 10.005-60.746.194-87.459-1.637-4.456-3.401-8.562-5.29-12.316-13.188 6.509-27.123 12.345-41.711 17.425 1.286 2.157 2.944 5.462 4.76 10.406 6.56 17.861 5.796 43.778-1.777 60.285-5.777 12.592-4.198 29.236 3.755 39.574 2.136 2.777 4.655 5.056 7.433 6.788-2.929 30.286-9.869 51.18-15.644 58.656-.724.937-1.46 1.85-2.193 2.772 20.623-6.951 39.992-15.39 57.808-25.121 2.877-13.595 4.407-26.685 5.212-36.331 1.129-13.511-3.178-26.138-11.519-33.78z" fill="url(#SVGID_18_)"/><path d="m206.5 111.327.003-2.153c.015-6.423.729-10.896 1.095-12.17 4.176-11.053 4.61-29.226 3.237-41.502-.34-3.037-.534-6.395-.588-9.784-15.362-1.517-30.371-3.786-44.94-6.759-.212 7.253.051 14.783.806 21.543.977 8.734.085 18.176-.659 20.723-3.399 8.985-3.936 21.283-3.951 27.835l-.003 2.267c0 35.874 2.275 81.574 8.565 105.793 15.997 3.077 32.506 5.306 49.415 6.629-1.825-5.027-3.635-10.438-5.409-16.293-3.646-12.035-7.571-47.252-7.571-96.129z" fill="url(#SVGID_19_)"/><path d="m342.812 108.575c3.597-19.991 4.548-46.299 2.736-69.487-14.48 2.931-29.39 5.17-44.649 6.664 1.177 18.564.353 39.69-2.375 54.853-1.236 6.866-.969 13.563-.701 16.945.45 5.656 1.553 12.428 5.643 18.12.038.969.048 2.072.009 3.267-1.218 37.199-4.479 59.786-7.125 68.52-1.784 5.889-3.605 11.331-5.441 16.382 16.9-1.28 33.399-3.472 49.394-6.504 5.567-21.209 7.492-56.905 8.148-76.925.498-15.184-2.286-23.971-5.846-29.369.021-.911.086-1.791.207-2.466z" fill="url(#SVGID_20_)"/></g><g><path d="m96.506 109.261c.014-2.164.352-3.785.639-4.737-8.002-3.344-15.81-6.936-23.376-10.801-9.958-5.088-21.769 2.172-21.769 13.355v.031c0 5.608 3.116 10.773 8.111 13.323 11.968 6.111 24.454 11.62 37.375 16.516-.628-7.89-.986-16.439-.986-25.62 0-.694.002-1.385.006-2.067z" fill="url(#SVGID_21_)"/><path d="m446.808 107.768c-.337-.309-.68-.609-1.028-.899 3.455-9.404 5.712-19.749 6.76-30.374-.551.718-1.115 1.428-1.71 2.121-.166.192-.321.388-.465.586-5.972 8.216-13.493 15.159-22.69 19.469-9.412 4.411-19.148 8.44-29.166 12.074-.204 8.791 2.27 17.626 7.202 24.037 1.112 1.445 2.331 2.748 3.633 3.917 5.475-1.996 10.879-4.094 16.197-6.308 17.832-7.422 31.534 16.881 15.8 28.086-.17.121-.34.24-.511.358-10.939 7.555-22.687 14.552-35.128 20.948-2.645 8.722-5.547 15.005-8.203 18.443-.724.937-1.46 1.85-2.193 2.772 20.623-6.951 39.992-15.39 57.807-25.121 2.877-13.595 4.407-26.685 5.212-36.331 1.131-13.509-3.176-26.136-11.517-33.778z" fill="url(#SVGID_22_)"/><path d="m301.548 132.524c.554 1.075 1.186 2.128 1.918 3.146.038.969.048 2.072.009 3.267-.284 8.678-.681 16.55-1.153 23.647 15.442-1.502 30.628-3.751 45.471-6.719.3-5.71.511-10.977.658-15.455.196-5.981-.123-10.957-.792-15.137-14.994 3.218-30.398 5.648-46.111 7.251z" fill="url(#SVGID_23_)"/><path d="m290.909 223.839c16.9-1.28 33.399-3.472 49.394-6.504.824-3.14 1.567-6.602 2.239-10.279-15.969 4.789-32.621 8.698-49.825 11.646-.601 1.75-1.204 3.473-1.808 5.137z" fill="url(#SVGID_24_)"/></g></g><g><path d="m467.6 313.881h-10.94c-4.95 0-9.84.59-14.61 1.73v54.48c4.77-1.13 9.66-1.72 14.61-1.72h10.94c7.99 0 14.47-7.61 14.47-16.99v-54.49c0 9.38-6.48 16.99-14.47 16.99z" fill="url(#SVGID_25_)"/><path d="m467.6 272.751h-10.94c-6.21 0-12.33.92-18.22 2.7 2.34 6.46 3.61 13.46 3.61 20.82v.5c4.77-1.13 9.66-1.72 14.61-1.72h10.94c7.99 0 14.47-7.61 14.47-16.99v-22.3c0 9.38-6.48 16.99-14.47 16.99z" fill="url(#SVGID_26_)"/></g></g></svg>