<svg id="Capa_1" enable-background="new 0 0 510 510" height="512" viewBox="0 0 510 510" width="512" xmlns="http://www.w3.org/2000/svg" xmlns:xlink="http://www.w3.org/1999/xlink"><linearGradient id="lg1"><stop offset="0" stop-color="#fe646f"/><stop offset=".5213" stop-color="#e41f2d"/><stop offset="1" stop-color="#c41926"/></linearGradient><linearGradient id="SVGID_1_" gradientUnits="userSpaceOnUse" x1="10.009" x2="678.011" xlink:href="#lg1" y1="439.686" y2="439.686"/><linearGradient id="SVGID_2_" gradientUnits="userSpaceOnUse" x1="-94.5" x2="414.52" xlink:href="#lg1" y1="439.686" y2="439.686"/><linearGradient id="SVGID_3_" gradientUnits="userSpaceOnUse" x1="29.627" x2="364.678" xlink:href="#lg1" y1="459.158" y2="459.158"/><linearGradient id="lg2"><stop offset="0" stop-color="#eaf6ff"/><stop offset=".5213" stop-color="#d8ecfe"/><stop offset="1" stop-color="#b3dafe"/></linearGradient><linearGradient id="SVGID_4_" gradientUnits="userSpaceOnUse" x1="95.333" x2="418.056" xlink:href="#lg2" y1="298.637" y2="298.637"/><linearGradient id="lg3"><stop offset="0" stop-color="#d8ecfe"/><stop offset=".5667" stop-color="#b3dafe"/><stop offset=".9955" stop-color="#8ac9fe"/></linearGradient><linearGradient id="SVGID_5_" gradientUnits="userSpaceOnUse" x1="86.563" x2="427.28" xlink:href="#lg3" y1="228.545" y2="228.545"/><linearGradient id="SVGID_6_" gradientUnits="userSpaceOnUse" x1="125.881" x2="384.12" y1="269.936" y2="269.936"><stop offset="0" stop-color="#ffdcbd"/><stop offset=".0028" stop-color="#ffdcbd"/><stop offset="1" stop-color="#ffa9b1"/></linearGradient><linearGradient id="SVGID_7_" gradientUnits="userSpaceOnUse" x1="93.156" x2="475.283" y1="269.934" y2="269.934"><stop offset="0" stop-color="#ffc2b5"/><stop offset="1" stop-color="#ff89a8"/></linearGradient><linearGradient id="lg4"><stop offset="0" stop-color="#766e6e"/><stop offset=".1978" stop-color="#676464"/><stop offset=".4488" stop-color="#5a5a5a"/><stop offset=".482" stop-color="#575858"/><stop offset=".799" stop-color="#404d4d"/><stop offset="1" stop-color="#384949"/></linearGradient><linearGradient id="SVGID_8_" gradientUnits="userSpaceOnUse" x1="145" x2="230.006" xlink:href="#lg4" y1="287.054" y2="287.054"/><linearGradient id="SVGID_9_" gradientUnits="userSpaceOnUse" x1="258.667" x2="341.067" xlink:href="#lg4" y1="287.054" y2="287.054"/><linearGradient id="SVGID_10_" gradientUnits="userSpaceOnUse" x1="156.604" x2="345.098" xlink:href="#lg2" y1="405.306" y2="405.306"/><linearGradient id="SVGID_11_" gradientUnits="userSpaceOnUse" x1="118" x2="443.377" xlink:href="#lg3" y1="405.306" y2="405.306"/><linearGradient id="SVGID_12_" gradientUnits="userSpaceOnUse" x1="196" x2="269.482" y1="367.228" y2="367.228"><stop offset="0" stop-color="#ffc2b5"/><stop offset=".2441" stop-color="#ffbbb3"/><stop offset=".6097" stop-color="#ffa6af"/><stop offset="1" stop-color="#ff89a8"/></linearGradient><linearGradient id="SVGID_13_" gradientUnits="userSpaceOnUse" x1="386.667" x2="471.001" xlink:href="#lg2" y1="130.47" y2="130.47"/><linearGradient id="SVGID_14_" gradientUnits="userSpaceOnUse" x1="339" x2="511.003" xlink:href="#lg3" y1="130.47" y2="130.47"/><linearGradient id="SVGID_15_" gradientUnits="userSpaceOnUse" x1="120.612" x2="568.161" xlink:href="#lg1" y1="101.767" y2="101.767"/><linearGradient id="SVGID_16_" gradientUnits="userSpaceOnUse" x1="-4" x2="423.001" xlink:href="#lg1" y1="101.767" y2="101.767"/><linearGradient id="SVGID_17_" gradientUnits="userSpaceOnUse" x1="73.966" x2="440.167" xlink:href="#lg2" y1="203.534" y2="203.534"/><linearGradient id="SVGID_18_" gradientUnits="userSpaceOnUse" x1="204.667" x2="466.031" xlink:href="#lg3" y1="203.538" y2="203.538"/><g><g><path d="m483.247 510c28.016 0 37.138-54.973 12.223-73.685-54.017-40.569-141.601-66.942-240.47-66.942s-186.454 26.373-240.47 66.942c-24.915 18.712-15.794 73.685 12.223 73.685z" fill="url(#SVGID_1_)"/><path d="m255 369.373c-53.439 0-103.567 7.717-146.894 21.203.555 2.876.67 5.859.289 8.85l-.007.055c-1.76 13.866 6.964 26.91 20.452 30.577l.043.012c9.597 2.61 17.092 10.109 19.697 19.707l.006.021c2.257 8.329 8.091 14.841 15.488 18.191 11.171 5.059 21.933 10.987 31.627 18.499 14.399 11.158 30.115 19.865 44.927 23.512h28.744c14.813-3.648 30.531-12.356 44.932-23.516 9.691-7.51 20.449-13.437 31.617-18.495 7.398-3.35 13.233-9.862 15.49-18.192l.006-.021c2.579-9.586 10.052-17.082 19.631-19.689l.114-.031c13.505-3.676 22.229-16.75 20.44-30.631-.381-2.991-.266-5.974.289-8.85-43.327-13.486-93.453-21.202-146.891-21.202z" fill="url(#SVGID_2_)"/><path d="m495.47 436.315c-13.741-10.32-29.665-19.716-47.384-27.998 2.511 2.232 4.982 4.487 7.364 6.791 24.915 24.097 15.794 94.892-12.223 94.892h40.02c28.017 0 37.138-54.973 12.223-73.685z" fill="url(#SVGID_3_)"/></g><path d="m419.444 312.582c-4.958-8.636-4.958-19.255 0-27.891 6.965-12.134 3.909-27.547-7.159-36.105l-.032-.025c-7.856-6.074-11.909-15.853-10.652-25.703l.007-.055c1.769-13.871-6.963-26.923-20.46-30.58l-.021-.006c-9.605-2.602-17.108-10.106-19.711-19.711l-.006-.021c-3.657-13.497-16.708-22.23-30.58-20.46l-.055.007c-9.85 1.256-19.629-2.796-25.703-10.652l-.024-.031c-8.558-11.069-23.971-14.125-36.105-7.159-8.636 4.958-19.254 4.958-27.89 0-12.134-6.966-27.547-3.909-36.105 7.159l-.025.032c-6.074 7.856-15.853 11.909-25.703 10.652l-.055-.007c-13.871-1.769-26.923 6.963-30.58 20.46l-.006.021c-2.602 9.605-10.106 17.108-19.711 19.711l-.021.006c-13.497 3.657-22.23 16.708-20.46 30.58l.007.055c1.256 9.85-2.796 19.629-10.652 25.703l-.031.024c-11.068 8.558-14.125 23.971-7.159 36.105 4.958 8.636 4.958 19.254 0 27.89-6.965 12.134-3.909 27.547 7.159 36.105l.032.025c7.856 6.074 11.909 15.853 10.652 25.703l-.007.055c-1.769 13.871 6.963 26.923 20.46 30.58l.021.006c9.605 2.602 17.108 10.106 19.711 19.711l.006.021c3.657 13.497 16.708 22.229 30.58 20.46l.055-.007c9.85-1.256 19.629 2.796 25.703 10.652l.024.031c8.558 11.069 23.971 14.125 36.105 7.159 8.636-4.958 19.255-4.958 27.891 0 12.134 6.966 27.547 3.909 36.105-7.159l.025-.032c6.074-7.856 15.853-11.909 25.703-10.652l.055.007c13.871 1.769 26.923-6.963 30.58-20.46l.006-.021c2.602-9.605 10.106-17.108 19.711-19.711l.021-.006c13.497-3.657 22.23-16.708 20.46-30.58l-.007-.055c-1.256-9.85 2.797-19.63 10.652-25.703l.031-.024c11.068-8.557 14.124-23.97 7.158-36.104z" fill="url(#SVGID_4_)"/><path d="m412.285 248.586-.032-.025c-7.856-6.074-11.909-15.853-10.652-25.703l.007-.055c1.769-13.871-6.963-26.923-20.46-30.58l-.021-.006c-5.489-1.487-10.286-4.58-13.88-8.745-9.802 3.48-20.545 3.122-30.329-.478-5.222-1.922-10.865-2.971-16.754-2.971-6.045 0-11.833 1.106-17.17 3.126-9.928 3.758-20.895 3.758-30.824 0-5.338-2.02-11.125-3.126-17.17-3.126s-11.833 1.106-17.17 3.126c-9.928 3.758-20.895 3.758-30.824 0-5.338-2.02-11.125-3.126-17.17-3.126-5.889 0-11.532 1.049-16.754 2.971-9.785 3.601-20.53 3.958-30.332.477-3.594 4.167-8.392 7.259-13.881 8.747l-.021.006c-13.497 3.657-22.23 16.708-20.46 30.58l.007.055c1.256 9.85-2.796 19.629-10.652 25.703l-.031.024c-4.273 3.304-7.346 7.632-9.116 12.396 8.882 9.872 21.751 16.084 36.076 16.084 6.046 0 11.833-1.106 17.17-3.126 9.928-3.758 20.895-3.758 30.824 0 5.338 2.02 11.125 3.126 17.17 3.126s11.833-1.106 17.17-3.126c9.928-3.758 20.895-3.758 30.823 0 5.338 2.02 11.125 3.126 17.17 3.126 6.046 0 11.833-1.106 17.17-3.126 9.928-3.758 20.895-3.758 30.823 0 5.338 2.02 11.125 3.126 17.17 3.126 6.046 0 11.833-1.106 17.17-3.126 9.928-3.758 20.895-3.758 30.823 0 5.338 2.02 11.125 3.126 17.17 3.126 14.323 0 27.192-6.211 36.074-16.081-1.766-4.765-4.84-9.094-9.114-12.399z" fill="url(#SVGID_5_)"/><g><g><path d="m255 417.728c-71.311 0-129.12-57.809-129.12-129.119v-37.345c0-71.311 57.809-129.119 129.119-129.119 71.311 0 129.119 57.809 129.119 129.119v37.345c.002 71.311-57.807 129.119-129.118 129.119z" fill="url(#SVGID_6_)"/><path d="m384.12 251.26c0-24.59-6.87-47.58-18.8-67.14-5.37-8.8-11.77-16.91-19.02-24.16-23.36-23.37-55.64-37.82-91.3-37.82-46.72 0-87.65 24.82-110.32 61.98-11.93 19.56-18.8 42.55-18.8 67.14v25.8c5.61-.14 10.98-1.24 15.96-3.12 9.93-3.76 20.9-3.76 30.83 0 5.33 2.02 11.12 3.13 17.17 3.13 6.04 0 11.83-1.11 17.17-3.13 9.92-3.76 20.89-3.76 30.82 0 5.34 2.02 11.12 3.13 17.17 3.13s11.83-1.11 17.17-3.13c9.93-3.76 20.9-3.76 30.82 0 5.34 2.02 11.13 3.13 17.17 3.13 6.05 0 11.84-1.11 17.17-3.13.022-.008.044-.017.066-.025 3.247-1.223 6.703 1.267 6.703 4.737v9.957c0 64.505-47.302 117.958-109.109 127.574 6.522 1.015 13.204 1.545 20.01 1.545 71.311 0 129.119-57.809 129.119-129.119v-11.549-25.8z" fill="url(#SVGID_7_)"/><g><path d="m198.634 304.171c-14.741 0-26.734-11.993-26.734-26.733 0-4.142 3.358-7.5 7.5-7.5s7.5 3.358 7.5 7.5c0 6.47 5.264 11.733 11.734 11.733s11.733-5.264 11.733-11.733c0-4.142 3.358-7.5 7.5-7.5s7.5 3.358 7.5 7.5c0 14.74-11.992 26.733-26.733 26.733z" fill="url(#SVGID_8_)"/><path d="m311.366 304.171c-14.741 0-26.733-11.993-26.733-26.733 0-4.142 3.358-7.5 7.5-7.5s7.5 3.358 7.5 7.5c0 6.47 5.264 11.733 11.733 11.733 6.47 0 11.734-5.264 11.734-11.733 0-4.142 3.358-7.5 7.5-7.5s7.5 3.358 7.5 7.5c0 14.74-11.993 26.733-26.734 26.733z" fill="url(#SVGID_9_)"/></g><path d="m307.332 323.8c-13.343-.488-25.789 3.234-36.117 9.942-9.816 6.375-22.613 6.375-32.429 0-10.329-6.708-22.775-10.43-36.118-9.942-32.82 1.201-59.28 28.254-59.798 61.092-.549 34.777 65.102 101.962 112.13 101.962s112.678-67.185 112.13-101.962c-.518-32.838-26.978-59.89-59.798-61.092z" fill="url(#SVGID_10_)"/><path d="m307.332 323.8c-7.848-.287-15.382.892-22.361 3.269 24.17 8.279 41.718 31.141 42.139 57.822.474 30.047-48.467 84.278-92.12 98.476 6.872 2.235 13.614 3.486 20.01 3.486 47.028 0 112.678-67.185 112.13-101.962-.518-32.837-26.978-59.889-59.798-61.091z" fill="url(#SVGID_11_)"/><path d="m255 384.373c-16.543 0-32.568-7.74-45.121-21.794-2.76-3.089-2.492-7.83.597-10.589 3.088-2.759 7.83-2.493 10.589.597 9.81 10.981 21.544 16.786 33.935 16.786s24.125-5.805 33.935-16.786c2.759-3.09 7.501-3.356 10.589-.597 3.089 2.759 3.357 7.5.597 10.589-12.553 14.054-28.578 21.794-45.121 21.794z" fill="url(#SVGID_12_)"/></g></g><g><circle cx="438.029" cy="130.47" fill="url(#SVGID_13_)" r="50.795"/><path d="m438.029 79.675c-4.316 0-8.505.542-12.505 1.556 22.005 5.572 38.29 25.502 38.29 49.24 0 23.737-16.284 43.668-38.29 49.24 4.001 1.013 8.19 1.556 12.505 1.556 28.053 0 50.795-22.742 50.795-50.795 0-28.055-22.741-50.797-50.795-50.797z" fill="url(#SVGID_14_)"/><path d="m445.865 75.989-23.913-23.913c-33.343-33.344-78.567-52.076-125.722-52.076-89.442 0-164.962 66.444-176.351 155.158l-19.298 48.376h308.512l-21.933-68.9h34.412c30.607.001 45.935-37.003 24.293-58.645z" fill="url(#SVGID_15_)"/><path d="m445.865 75.989-23.913-23.913c-33.344-33.344-78.567-52.076-125.722-52.076-6.784 0-13.487.388-20.09 1.133 39.82 4.491 77.181 22.331 105.792 50.943l23.913 23.913c21.642 21.642 6.314 58.646-24.292 58.646h-9.874c-12.143 0-20.778 11.811-17.095 23.382l14.49 45.518h40.02l-21.933-68.9h34.412c30.606 0 45.934-37.005 24.292-58.646z" fill="url(#SVGID_16_)"/><path d="m386.545 155.028c-6.509-.159-12.736.964-18.448 3.134-10.027 3.811-21.113 3.526-31.18-.178-5.222-1.921-10.865-2.971-16.754-2.971-6.046 0-11.833 1.106-17.17 3.126-9.928 3.758-20.895 3.758-30.824 0-5.338-2.02-11.125-3.126-17.17-3.126s-11.833 1.106-17.17 3.126c-9.928 3.758-20.895 3.758-30.824 0-5.338-2.02-11.125-3.126-17.17-3.126-5.889 0-11.532 1.049-16.754 2.971-10.067 3.704-21.153 3.989-31.18.178-5.711-2.171-11.939-3.294-18.448-3.134-26.263.643-47.442 22.497-47.304 48.768.141 26.677 21.81 48.26 48.521 48.26 6.046 0 11.833-1.106 17.17-3.126 9.928-3.758 20.895-3.758 30.824 0 5.338 2.02 11.125 3.126 17.17 3.126 6.046 0 11.833-1.106 17.17-3.126 9.928-3.758 20.895-3.758 30.823 0 5.338 2.02 11.125 3.126 17.17 3.126 6.046 0 11.833-1.106 17.17-3.126 9.928-3.758 20.895-3.758 30.823 0 5.338 2.02 11.125 3.126 17.17 3.126 6.046 0 11.833-1.106 17.17-3.126 9.928-3.758 20.895-3.758 30.824 0 5.338 2.02 11.125 3.126 17.17 3.126 26.71 0 48.38-21.583 48.521-48.26.143-26.271-21.036-48.125-47.3-48.768z" fill="url(#SVGID_17_)"/></g><path d="m386.55 155.03c-6.51-.16-12.74.96-18.45 3.13-1.03.39-2.08.74-3.13 1.05 17.06 7.63 28.97 24.87 28.86 44.59-.1 19.66-11.9 36.56-28.8 44.08 1.06.31 2.1.66 3.13 1.05 5.34 2.02 11.12 3.13 17.17 3.13 26.71 0 48.38-21.59 48.52-48.26.14-26.27-21.04-48.13-47.3-48.77z" fill="url(#SVGID_18_)"/></g></svg>