<svg id="Capa_1" enable-background="new 0 0 510.03 510.03" height="512" viewBox="0 0 510.03 510.03" width="512" xmlns="http://www.w3.org/2000/svg" xmlns:xlink="http://www.w3.org/1999/xlink"><linearGradient id="lg1"><stop offset="0" stop-color="#fe646f"/><stop offset=".5213" stop-color="#e41f2d"/><stop offset="1" stop-color="#c41926"/></linearGradient><linearGradient id="SVGID_1_" gradientUnits="userSpaceOnUse" x1="41.35" x2="558.457" xlink:href="#lg1" y1="301.938" y2="301.938"/><linearGradient id="SVGID_2_" gradientUnits="userSpaceOnUse" x1="-133" x2="434.032" xlink:href="#lg1" y1="317.086" y2="317.086"/><linearGradient id="SVGID_3_" gradientUnits="userSpaceOnUse" x1="-133" x2="434.032" xlink:href="#lg1" y1="344.511" y2="344.511"/><linearGradient id="SVGID_4_" gradientUnits="userSpaceOnUse" x1="-133" x2="434.032" xlink:href="#lg1" y1="237.845" y2="237.845"/><linearGradient id="SVGID_5_" gradientUnits="userSpaceOnUse" x1="-133" x2="434.032" xlink:href="#lg1" y1="301.94" y2="301.94"/><linearGradient id="lg2"><stop offset="0" stop-color="#97d729"/><stop offset=".5652" stop-color="#02905d"/><stop offset=".9955" stop-color="#026841"/></linearGradient><linearGradient id="SVGID_6_" gradientUnits="userSpaceOnUse" x1="-91.87" x2="549.3" xlink:href="#lg2" y1="85.957" y2="85.957"/><linearGradient id="SVGID_7_" gradientUnits="userSpaceOnUse" x1="120" x2="483.31" xlink:href="#lg2" y1="85.957" y2="85.957"/><linearGradient id="lg3"><stop offset="0" stop-color="#eaf6ff"/><stop offset=".5213" stop-color="#d8ecfe"/><stop offset="1" stop-color="#b3dafe"/></linearGradient><linearGradient id="SVGID_8_" gradientUnits="userSpaceOnUse" x1="150.87" x2="305.931" xlink:href="#lg3" y1="164.499" y2="164.499"/><linearGradient id="lg4"><stop offset="0" stop-color="#d8ecfe"/><stop offset=".5667" stop-color="#b3dafe"/><stop offset=".9955" stop-color="#8ac9fe"/></linearGradient><linearGradient id="SVGID_9_" gradientUnits="userSpaceOnUse" x1="-16" x2="356.676" xlink:href="#lg4" y1="233.088" y2="233.088"/><linearGradient id="SVGID_10_" gradientUnits="userSpaceOnUse" x1="-16" x2="356.676" xlink:href="#lg4" y1="244.25" y2="244.25"/><linearGradient id="SVGID_11_" gradientUnits="userSpaceOnUse" x1="-16" x2="356.676" xlink:href="#lg4" y1="120.946" y2="120.946"/><linearGradient id="SVGID_12_" gradientUnits="userSpaceOnUse" x1="103" x2="507.041" xlink:href="#lg3" y1="434.116" y2="434.116"/><linearGradient id="SVGID_13_" gradientUnits="userSpaceOnUse" x1="172.401" x2="507.575" xlink:href="#lg4" y1="434.116" y2="434.116"/><g><path d="m459.135 469.77h-390.1c-11.497 0-20.817-9.32-20.817-20.817v-314.847h431.735v314.846c-.001 11.497-9.321 20.818-20.818 20.818z" fill="url(#SVGID_1_)"/><g><path d="m331.084 309.342h-29.781v-16.44c0-7.37-5.975-13.345-13.345-13.345h-50.75c-7.37 0-13.345 5.975-13.345 13.345v18.583c0 7.37 5.975 13.345 13.345 13.345h29.781v16.44c0 7.37 5.975 13.345 13.345 13.345h50.75c7.37 0 13.345-5.975 13.345-13.345v-18.583c0-7.37-5.974-13.345-13.345-13.345z" fill="url(#SVGID_2_)"/><path d="m187.605 321.874h-50.75c-7.37 0-13.345 5.975-13.345 13.345v18.583c0 7.37 5.975 13.345 13.345 13.345h50.75c7.37 0 13.345-5.975 13.345-13.345v-18.583c0-7.37-5.975-13.345-13.345-13.345z" fill="url(#SVGID_3_)"/><path d="m421.87 247.136v-18.583c0-7.37-5.975-13.345-13.345-13.345h-50.75c-7.37 0-13.345 5.975-13.345 13.345v18.583c0 7.37 5.975 13.345 13.345 13.345h50.75c7.37 0 13.345-5.975 13.345-13.345z" fill="url(#SVGID_4_)"/><path d="m48.22 134.11v211.23c7.95 5.45 17.57 8.65 27.93 8.65 13.63 0 25.98-5.53 34.92-14.46 8.93-8.94 14.46-21.29 14.46-34.92v-100.914c0-10.282 8.101-19.003 18.382-19.164 5.267-.082 10.063 2.023 13.508 5.468 3.38 3.38 5.47 8.05 5.47 13.21v45.969c0 22.132 18.106 40.844 40.238 40.721 10.95-.061 20.872-4.529 28.062-11.719 7.24-7.24 11.72-17.24 11.72-28.29v-5.458c0-9.782 7.748-18.054 17.53-18.141 4.953-.044 9.445 1.944 12.68 5.189 3.2 3.2 5.18 7.62 5.18 12.51 0 6.32 2.56 12.04 6.7 16.19 4.15 4.14 9.87 6.7 16.19 6.7 6.33 0 12.05-2.56 16.19-6.7 4.15-4.15 6.71-9.87 6.71-16.19v-70.83h39.301c42.271 0 76.539 34.268 76.539 76.539v157.25h-40.076c-7.37 0-13.345 5.975-13.345 13.345v18.583c0 7.37 5.975 13.345 13.345 13.345h19.674c11.247 0 11.918 16.929.687 17.518-.366.019-.735.029-1.105.029h40.02c11.499 0 20.82-9.321 20.82-20.82v-314.84z" fill="url(#SVGID_5_)"/></g><g><path d="m489.924 148.147h-469.848c-11.088 0-20.076-8.989-20.076-20.077v-84.226c0-11.088 8.988-20.076 20.076-20.076h469.848c11.088 0 20.076 8.988 20.076 20.076v84.226c0 11.088-8.988 20.077-20.076 20.077z" fill="url(#SVGID_6_)"/><path d="m489.924 23.768h-40.02c11.088 0 20.076 8.988 20.076 20.076v84.226c0 11.088-8.988 20.076-20.076 20.076h40.02c11.088 0 20.076-8.988 20.076-20.076v-84.226c0-11.088-8.988-20.076-20.076-20.076z" fill="url(#SVGID_7_)"/></g><path d="m26.769 48.335v231.266c0 27.272 22.109 49.381 49.381 49.381 27.272 0 49.381-22.109 49.381-49.381v-101.406c0-10.315 8.362-18.677 18.677-18.677 10.315 0 18.677 8.362 18.677 18.677v46.687c0 22.097 17.914 40.011 40.011 40.011 22.097 0 40.011-17.914 40.011-40.011v-5.903c0-9.774 7.923-17.697 17.697-17.697 9.774 0 17.697 7.923 17.697 17.697 0 12.644 10.25 22.893 22.893 22.893 12.643 0 22.893-10.25 22.893-22.893v-170.644c0-14.423-9.853-26.98-23.862-30.411l-22.936-5.617c-66.919-16.389-136.804-16.389-203.723 0l-22.936 5.617c-14.008 3.431-23.861 15.988-23.861 30.411z" fill="url(#SVGID_8_)"/><g><path d="m202.887 224.882c0 14.805-8.048 27.723-20.001 34.642 5.862 3.393 12.659 5.352 19.915 5.369 22.061.051 40.106-18.748 40.106-40.81v-5.104c0-9.774 7.923-17.697 17.697-17.697h-34.117c-13.034 0-23.6 10.566-23.6 23.6z" fill="url(#SVGID_9_)"/><path d="m85.511 279.601c0 20.147-12.072 37.464-29.371 45.144 6.118 2.716 12.885 4.237 20.01 4.237 27.272 0 49.381-22.109 49.381-49.381v-101.406c0-10.315 8.362-18.677 18.677-18.677h-4.75c-29.794 0-53.946 24.153-53.946 53.946v66.137z" fill="url(#SVGID_10_)"/><path d="m300.225 17.924-22.936-5.617c-39.986-9.793-81.032-13.73-121.871-11.819 27.506 1.287 54.919 5.223 81.851 11.819l22.936 5.617c14.009 3.431 23.862 15.988 23.862 30.411v170.644c0 4.037-1.049 7.828-2.883 11.121 3.91 7.021 11.404 11.772 20.01 11.772 12.644 0 22.893-10.25 22.893-22.893v-170.644c0-14.423-9.853-26.98-23.862-30.411z" fill="url(#SVGID_11_)"/></g><path d="m411.822 427.611c-6.396 0-12.658.521-18.765 1.494-.548-34.025-37.962-61.486-84.06-61.486-23.553 0-44.832 7.177-60.098 18.726-22.468-17.462-52.411-28.128-85.301-28.128-67.546 0-122.704 44.95-126.091 101.478-9.006.929-17.527 3.513-25.234 7.427-21.186 10.761-13.186 42.894 10.576 42.894h464.359c18.818 0 29.495-21.542 18.114-36.528-21.13-27.826-55.139-45.877-93.5-45.877z" fill="url(#SVGID_12_)"/><path d="m505.4 473.589c-21.124-27.882-55.17-45.978-93.578-45.978-6.396 0-12.657.521-18.765 1.494-.548-34.025-37.962-61.486-84.06-61.486-23.553 0-44.832 7.177-60.098 18.726-22.468-17.462-52.411-28.128-85.301-28.128-28.825 0-55.389 8.191-76.641 21.969 11.591-2.972 23.885-4.572 36.621-4.572 25.451 0 49.138 6.387 68.962 17.368 10.113 5.602 22.259 5.822 32.799 1.072 12.72-5.733 27.655-9.038 43.638-9.038 38.548 0 71.024 19.203 80.948 45.389 3.389 8.942 12.123 14.619 21.685 14.604h.192c38.361 0 72.37 18.052 93.5 45.876 4.505 5.932 5.543 12.888 3.999 19.132h17.907c18.76-.002 29.52-21.475 18.192-36.428z" fill="url(#SVGID_13_)"/></g></svg>