<svg id="Capa_1" enable-background="new 0 0 510 510" height="512" viewBox="0 0 510 510" width="512" xmlns="http://www.w3.org/2000/svg" xmlns:xlink="http://www.w3.org/1999/xlink"><linearGradient id="lg1"><stop offset="0" stop-color="#eaf6ff"/><stop offset=".5213" stop-color="#d8ecfe"/><stop offset="1" stop-color="#b3dafe"/></linearGradient><linearGradient id="SVGID_1_" gradientUnits="userSpaceOnUse" x1="194.667" x2="310.858" xlink:href="#lg1" y1="298.012" y2="298.012"/><linearGradient id="lg2"><stop offset="0" stop-color="#d8ecfe"/><stop offset=".5667" stop-color="#b3dafe"/><stop offset=".9955" stop-color="#8ac9fe"/></linearGradient><linearGradient id="SVGID_2_" gradientUnits="userSpaceOnUse" x1="223.658" x2="306.97" xlink:href="#lg2" y1="298.015" y2="298.015"/><linearGradient id="lg3"><stop offset="0" stop-color="#fe646f"/><stop offset=".5213" stop-color="#e41f2d"/><stop offset="1" stop-color="#c41926"/></linearGradient><linearGradient id="SVGID_3_" gradientUnits="userSpaceOnUse" x1="200.892" x2="325.847" xlink:href="#lg3" y1="172.735" y2="172.735"/><linearGradient id="SVGID_4_" gradientUnits="userSpaceOnUse" x1="200.892" x2="325.847" xlink:href="#lg3" y1="278.88" y2="278.88"/><linearGradient id="SVGID_5_" gradientUnits="userSpaceOnUse" x1="200.892" x2="325.847" xlink:href="#lg3" y1="404.16" y2="404.16"/><linearGradient id="SVGID_6_" gradientUnits="userSpaceOnUse" x1="114.667" x2="273.535" xlink:href="#lg3" y1="155.095" y2="155.095"/><linearGradient id="SVGID_7_" gradientUnits="userSpaceOnUse" x1="114.667" x2="273.535" xlink:href="#lg3" y1="246.31" y2="246.31"/><linearGradient id="SVGID_8_" gradientUnits="userSpaceOnUse" x1="114.667" x2="273.535" xlink:href="#lg3" y1="374.105" y2="374.105"/><linearGradient id="lg4"><stop offset="0" stop-color="#fef056"/><stop offset=".5213" stop-color="#f4d902"/><stop offset="1" stop-color="#fe9738"/></linearGradient><linearGradient id="SVGID_9_" gradientUnits="userSpaceOnUse" x1="206.114" x2="336.062" xlink:href="#lg4" y1="82.013" y2="82.013"/><linearGradient id="SVGID_10_" gradientUnits="userSpaceOnUse" x1="57" x2="380.006" xlink:href="#lg4" y1="82.013" y2="82.013"/><linearGradient id="lg5"><stop offset="0" stop-color="#97d729"/><stop offset=".5652" stop-color="#02905d"/><stop offset=".9955" stop-color="#026841"/></linearGradient><linearGradient id="SVGID_11_" gradientUnits="userSpaceOnUse" x1="186" x2="345.346" xlink:href="#lg5" y1="152.174" y2="152.174"/><linearGradient id="SVGID_12_" gradientUnits="userSpaceOnUse" x1="156" x2="331.026" xlink:href="#lg5" y1="152.174" y2="152.174"/><linearGradient id="SVGID_13_" gradientUnits="userSpaceOnUse" x1="124.667" x2="355.177" xlink:href="#lg1" y1="462.213" y2="462.213"/><linearGradient id="SVGID_14_" gradientUnits="userSpaceOnUse" x1="147.334" x2="459.443" xlink:href="#lg2" y1="425.718" y2="425.718"/><linearGradient id="SVGID_15_" gradientUnits="userSpaceOnUse" x1="147.334" x2="459.443" xlink:href="#lg2" y1="465.173" y2="465.173"/><g><path d="m202.422 108.887h105.156v378.25h-105.156z" fill="url(#SVGID_1_)"/><path d="m307.58 108.89v378.25h-40.02v-236.612c0-30.645-24.843-55.488-55.488-55.488h-9.652v-86.15z" fill="url(#SVGID_2_)"/><g><path d="m307.58 108.89v22.53l-105.16 105.16v-65.82l61.87-61.87z" fill="url(#SVGID_3_)"/><path d="m307.58 193.39v65.82l-105.16 105.16v-65.82z" fill="url(#SVGID_4_)"/><path d="m307.58 321.18v65.83l-100.14 100.13h-5.02v-60.8z" fill="url(#SVGID_5_)"/></g><g><path d="m264.29 108.89-61.87 60.87v25.28h9.65c9.25 0 17.97 2.26 25.63 6.26l69.88-69.88v-22.53z" fill="url(#SVGID_6_)"/><path d="m267.56 250.53v48.7l40.02-40.02v-65.82l-42.08 42.08c1.34 4.79 2.06 9.84 2.06 15.06z" fill="url(#SVGID_7_)"/><path d="m267.56 427.03 40.02-40.02v-65.83l-40.02 40.02z" fill="url(#SVGID_8_)"/></g><circle cx="255" cy="82.013" fill="url(#SVGID_9_)" r="82.013"/><path d="m255 0c-6.904 0-13.604.863-20.01 2.47 35.621 8.933 62.003 41.153 62.003 79.544s-26.382 70.611-62.003 79.544c6.406 1.606 13.106 2.47 20.01 2.47 45.295 0 82.013-36.719 82.013-82.013.001-45.296-36.718-82.015-82.013-82.015z" fill="url(#SVGID_10_)"/><path d="m311.407 170.031h-112.813c-5.879 0-10.645-4.766-10.645-10.645v-14.423c0-5.879 4.766-10.645 10.645-10.645h112.813c5.879 0 10.645 4.766 10.645 10.645v14.423c0 5.879-4.766 10.645-10.645 10.645z" fill="url(#SVGID_11_)"/><path d="m311.407 134.318h-40.02c5.879 0 10.645 4.766 10.645 10.645v14.423c0 5.879-4.766 10.645-10.645 10.645h40.02c5.879 0 10.645-4.766 10.645-10.645v-14.423c0-5.88-4.766-10.645-10.645-10.645z" fill="url(#SVGID_12_)"/><path d="m382.804 498.531c0-22.042-17.659-40.257-39.701-40.412-.151-.001-.301-.002-.452-.002-3.681 0-7.286.328-10.801.941-.316-21.423-21.851-38.713-48.385-38.713-13.557 0-25.805 4.519-34.592 11.79-12.933-10.995-30.168-17.71-49.099-17.71-36.45 0-66.632 24.874-71.868 57.309-.53 3.281-.709 6.609-.709 9.933v16.863c0 6.334 5.135 11.469 11.469 11.469h232.668c6.335.001 11.47-5.134 11.47-11.468z" fill="url(#SVGID_13_)"/><g><path d="m199.774 414.426c-16.916 0-32.476 5.364-44.826 14.348 9.975-4.774 21.286-7.484 33.286-7.484 15.445 0 30.246 5.551 42.197 13.566 4.557 3.056 10.531 2.827 14.908-.48 1.147-.867 2.327-1.643 3.533-2.24l-.141-.115c-12.916-10.924-30.093-17.595-48.957-17.595z" fill="url(#SVGID_14_)"/><path d="m343.103 458.119c-.15-.001-.301-.002-.452-.002-3.682 0-7.286.328-10.801.941-.316-21.423-21.851-38.713-48.385-38.713-7.132 0-13.895 1.261-19.989 3.505 12.94 4.772 22.827 14.024 26.643 25.309 1.859 5.497 6.98 9.203 12.778 8.967.109-.004.173-.007.186-.007 22.042.155 39.701 18.37 39.701 40.412 0 6.334-5.135 11.469-11.469 11.469h40.02c6.253 0 11.437-5.01 11.469-11.262.11-22.135-17.59-40.463-39.701-40.619z" fill="url(#SVGID_15_)"/></g></g></svg>