<?xml version="1.0" encoding="iso-8859-1"?>
<!-- Generator: Adobe Illustrator 19.0.0, SVG Export Plug-In . SVG Version: 6.00 Build 0)  -->
<svg version="1.1" id="Layer_1" xmlns="http://www.w3.org/2000/svg" xmlns:xlink="http://www.w3.org/1999/xlink" x="0px" y="0px"
	 viewBox="0 0 127.019 127.019" style="enable-background:new 0 0 127.019 127.019;" xml:space="preserve">
<g>
	<g>
		<g>
			<polygon style="fill:#F93585;" points="46.008,114.236 46.008,114.238 65.552,125.519 85.093,114.238 85.093,114.236 
				65.552,102.955 			"/>
		</g>
		<g>
			<polyline style="fill:#FC70B0;" points="65.552,125.519 85.093,114.238 85.093,114.236 65.552,102.955 			"/>
		</g>
		<g>
			<path style="fill:#33363A;" d="M65.552,127.019c-0.259,0-0.518-0.067-0.75-0.201l-19.544-11.281
				c-0.464-0.268-0.75-0.764-0.75-1.3s0.286-1.032,0.75-1.3l19.544-11.281c0.465-0.268,1.035-0.268,1.5,0l19.541,11.281
				c0.464,0.268,0.75,0.763,0.75,1.299c0,0.536-0.286,1.031-0.75,1.299l-19.541,11.283C66.07,126.952,65.811,127.019,65.552,127.019
				z M49.008,114.236l16.544,9.551l16.541-9.549l-16.541-9.551L49.008,114.236z"/>
		</g>
	</g>
	<g>
		<g>
			<path style="fill:#FC70B0;" d="M77.421,55.711c-2.385,4.084-6.807,6.844-11.869,6.844c-5.064,0-9.484-2.76-11.871-6.844H33.414
				c3.181,14.82,16.38,25.968,32.138,25.968c15.756,0,28.955-11.147,32.135-25.968H77.421z"/>
		</g>
		<g>
			<path style="fill:#F93585;" d="M65.552,62.554c-5.064,0-9.484-2.76-11.871-6.844H36.283
				c5.449,10.633,16.521,17.932,29.269,17.932c12.748,0,23.818-7.299,29.266-17.932H77.421
				C75.036,59.795,70.615,62.554,65.552,62.554z"/>
		</g>
		<g>
			<path style="fill:#FC70B0;" d="M53.681,42.071c2.387-4.085,6.807-6.845,11.871-6.845c5.063,0,9.484,2.76,11.869,6.845h20.266
				c-3.18-14.821-16.379-25.969-32.135-25.969c-15.758,0-28.957,11.147-32.138,25.969H53.681z"/>
		</g>
		<g>
			<path style="fill:#F93585;" d="M65.552,35.226c5.063,0,9.484,2.76,11.869,6.845h17.396C89.37,31.437,78.3,24.139,65.552,24.139
				c-12.748,0-23.819,7.298-29.269,17.932h17.398C56.068,37.986,60.488,35.226,65.552,35.226z"/>
		</g>
		<g>
			<g>
				<circle style="fill:#F93585;" cx="65.551" cy="48.89" r="7.165"/>
			</g>
			<g>
				<path style="fill:#FC70B0;" d="M65.552,41.724c3.957,0,7.164,3.209,7.164,7.166c0,3.959-3.207,7.166-7.164,7.166"/>
			</g>
			<g>
				<path style="fill:#33363A;" d="M65.552,57.556c-4.778,0-8.666-3.888-8.666-8.666s3.888-8.666,8.666-8.666
					c4.777,0,8.664,3.888,8.664,8.666S70.329,57.556,65.552,57.556z M65.552,43.224c-3.124,0-5.666,2.542-5.666,5.666
					s2.542,5.666,5.666,5.666c3.123,0,5.664-2.542,5.664-5.666S68.675,43.224,65.552,43.224z"/>
			</g>
		</g>
		<g>
			<g>
				<g>
					<path style="fill:#33363A;" d="M51.884,50.39H41.76c-0.828,0-1.5-0.671-1.5-1.5s0.672-1.5,1.5-1.5h10.124
						c0.828,0,1.5,0.671,1.5,1.5S52.712,50.39,51.884,50.39z"/>
				</g>
				<g>
					<path style="fill:#33363A;" d="M35.929,50.39c-0.4,0-0.78-0.16-1.061-0.44c-0.279-0.28-0.439-0.66-0.439-1.06
						c0-0.39,0.16-0.78,0.439-1.06c0.551-0.56,1.561-0.56,2.12,0c0.28,0.28,0.44,0.67,0.44,1.06c0,0.39-0.16,0.78-0.44,1.06
						C36.709,50.23,36.319,50.39,35.929,50.39z"/>
				</g>
				<g>
					<path style="fill:#33363A;" d="M30.618,50.39c-0.399,0-0.779-0.16-1.06-0.44c-0.28-0.28-0.44-0.66-0.44-1.06
						c0-0.39,0.16-0.78,0.431-1.06c0.569-0.56,1.56-0.56,2.13,0c0.28,0.28,0.439,0.67,0.439,1.06c0,0.39-0.159,0.78-0.439,1.06
						C31.389,50.23,31.009,50.39,30.618,50.39z"/>
				</g>
			</g>
			<g>
				<g>
					<path style="fill:#33363A;" d="M89.341,50.39H79.218c-0.828,0-1.5-0.671-1.5-1.5s0.672-1.5,1.5-1.5h10.123
						c0.828,0,1.5,0.671,1.5,1.5S90.169,50.39,89.341,50.39z"/>
				</g>
				<g>
					<path style="fill:#33363A;" d="M95.169,50.39c-0.391,0-0.78-0.16-1.061-0.44c-0.28-0.28-0.439-0.67-0.439-1.06
						c0-0.39,0.159-0.78,0.439-1.06c0.561-0.56,1.57-0.56,2.12,0c0.28,0.28,0.44,0.66,0.44,1.06c0,0.4-0.16,0.78-0.44,1.06
						C95.949,50.23,95.569,50.39,95.169,50.39z"/>
				</g>
				<g>
					<path style="fill:#33363A;" d="M100.489,50.39c-0.399,0-0.779-0.16-1.06-0.44c-0.28-0.28-0.44-0.66-0.44-1.06
						c0-0.39,0.16-0.78,0.44-1.06c0.56-0.56,1.56-0.56,2.12,0c0.279,0.28,0.439,0.67,0.439,1.06c0,0.39-0.16,0.78-0.439,1.06
						C101.269,50.23,100.879,50.39,100.489,50.39z"/>
				</g>
			</g>
		</g>
		<g>
			<path style="fill:#33363A;" d="M64.489,96.63c-0.279,0.28-0.439,0.66-0.439,1.06c0,0.39,0.16,0.78,0.439,1.06
				c0.28,0.28,0.67,0.44,1.061,0.44c0.399,0,0.779-0.16,1.06-0.44c0.28-0.28,0.44-0.67,0.44-1.06c0-0.4-0.16-0.78-0.44-1.06
				C66.049,96.07,65.049,96.07,64.489,96.63z"/>
			<path style="fill:#33363A;" d="M109.947,48.89c0-0.829-0.672-1.5-1.5-1.5s-1.5,0.671-1.5,1.5
				c0,22.323-17.763,40.565-39.895,41.358v-7.104c15.466-0.683,28.831-11.877,32.102-27.12c0.095-0.443-0.016-0.905-0.3-1.257
				c-0.285-0.353-0.714-0.557-1.167-0.557H77.421c-0.533,0-1.026,0.283-1.295,0.744c-2.197,3.763-6.249,6.1-10.574,6.1
				c-4.324,0-8.377-2.337-10.576-6.101c-0.269-0.46-0.762-0.743-1.295-0.743H33.414c-0.453,0-0.882,0.205-1.167,0.557
				c-0.284,0.353-0.395,0.814-0.3,1.258c3.271,15.243,16.639,26.436,32.104,27.12v10.103c0,0.829,0.672,1.5,1.5,1.5
				c0.828,0,1.499-0.671,1.5-1.499C90.838,92.453,109.947,72.868,109.947,48.89z M35.328,57.211h17.521
				c2.818,4.242,7.608,6.844,12.703,6.844c5.096,0,9.885-2.601,12.701-6.844h17.52c-3.737,13.415-16.158,22.968-30.221,22.968
				C51.489,80.178,39.067,70.625,35.328,57.211z"/>
			<path style="fill:#33363A;" d="M64.052,7.532v7.104c-15.466,0.683-28.833,11.877-32.104,27.121
				c-0.095,0.443,0.016,0.905,0.3,1.258c0.285,0.353,0.714,0.557,1.167,0.557h20.267c0.533,0,1.026-0.283,1.295-0.743
				c2.199-3.764,6.252-6.102,10.576-6.102c4.325,0,8.377,2.338,10.573,6.101c0.27,0.46,0.763,0.744,1.296,0.744h20.266
				c0.453,0,0.882-0.205,1.167-0.557c0.284-0.353,0.395-0.814,0.3-1.257c-3.271-15.244-16.636-26.438-32.102-27.121V5.923
				c0-0.829-0.672-1.5-1.5-1.5c-0.165,0-0.321,0.033-0.469,0.082C40.819,4.759,21.155,24.567,21.155,48.89
				c0,0.829,0.672,1.5,1.5,1.5s1.5-0.671,1.5-1.5C24.155,26.567,41.919,8.325,64.052,7.532z M95.774,40.571H78.253
				c-2.815-4.243-7.604-6.845-12.701-6.845c-5.096,0-9.885,2.602-12.703,6.845H35.328c3.738-13.415,16.16-22.969,30.224-22.969
				S92.036,27.155,95.774,40.571z"/>
			<path style="fill:#33363A;" d="M65.549,2.98c0.399,0,0.779-0.16,1.06-0.44c0.28-0.28,0.44-0.66,0.44-1.06
				c0-0.39-0.16-0.78-0.44-1.06c-0.56-0.56-1.55-0.56-2.12,0c-0.279,0.28-0.439,0.67-0.439,1.06c0,0.4,0.16,0.78,0.439,1.06
				C64.769,2.82,65.159,2.98,65.549,2.98z"/>
		</g>
	</g>
	<g>
		<g>
			<path style="fill:#FC70B0;" d="M110.591,95.028c-2.826,0-5.307,1.586-6.178,3.941c-0.014,0.035-0.029,0.066-0.049,0.096
				c-0.02-0.029-0.035-0.061-0.049-0.096c-0.871-2.355-3.352-3.941-6.18-3.941c-3.576,0-6.488,2.564-6.488,5.713
				c0,1.146,0.379,2.253,1.105,3.195c0.006,0.006,0.012,0.017,0.012,0.017c0.023,0.026,0.043,0.043,0.061,0.06l11.539,13.65
				l11.539-13.65c0.018-0.017,0.039-0.033,0.063-0.06c0,0,0.002-0.011,0.01-0.017c0.727-0.942,1.106-2.049,1.106-3.195
				C117.081,97.592,114.169,95.028,110.591,95.028z"/>
		</g>
		<g>
			<path style="fill:#F93585;" d="M104.316,98.969c-0.871-2.355-3.352-3.941-6.18-3.941c-3.576,0-6.488,2.564-6.488,5.713
				c0,1.146,0.379,2.253,1.105,3.195c0.006,0.006,0.012,0.017,0.012,0.017c0.023,0.026,0.043,0.043,0.061,0.06l11.539,13.65V99.065
				C104.345,99.036,104.329,99.005,104.316,98.969z"/>
		</g>
		<g>
			<path style="fill:#33363A;" d="M104.365,119.163c-0.441,0-0.86-0.194-1.146-0.532L91.722,105.03
				c-0.031-0.032-0.063-0.064-0.078-0.081c-0.035-0.04-0.067-0.081-0.099-0.123c-0.914-1.197-1.397-2.609-1.397-4.085
				c0-3.977,3.584-7.213,7.988-7.213c2.473,0,4.74,1.017,6.227,2.676c1.482-1.656,3.752-2.676,6.229-2.676
				c4.406,0,7.99,3.236,7.99,7.213c0,1.463-0.475,2.863-1.374,4.054c-0.036,0.054-0.076,0.105-0.12,0.154
				c-0.021,0.024-0.056,0.06-0.091,0.093l-11.486,13.588C105.225,118.968,104.806,119.163,104.365,119.163z M93.909,102.977
				c0.023,0.022,0.034,0.033,0.063,0.067l10.394,12.295l10.394-12.295c0.023-0.027,0.047-0.054,0.072-0.079
				c0.491-0.661,0.751-1.429,0.751-2.224c0-2.323-2.238-4.213-4.99-4.213c-2.198,0-4.116,1.19-4.771,2.962
				c-0.063,0.162-0.128,0.288-0.208,0.407c-0.557,0.835-1.939,0.835-2.496,0c-0.08-0.12-0.145-0.245-0.199-0.384
				c-0.663-1.794-2.582-2.985-4.781-2.985c-2.751,0-4.988,1.89-4.988,4.213C93.148,101.542,93.41,102.314,93.909,102.977z"/>
		</g>
	</g>
	<g>
		<g>
			<path style="fill:#FC70B0;" d="M28.881,88.077c-2.826,0-5.307,1.586-6.179,3.942c-0.013,0.034-0.028,0.066-0.048,0.095
				c-0.02-0.029-0.036-0.061-0.049-0.095c-0.871-2.356-3.353-3.942-6.181-3.942c-3.575,0-6.487,2.564-6.487,5.713
				c0,1.146,0.379,2.253,1.105,3.195c0.006,0.006,0.011,0.017,0.011,0.017c0.024,0.026,0.043,0.043,0.061,0.059l11.54,13.65
				l11.539-13.65c0.017-0.017,0.038-0.033,0.062-0.059c0,0,0.003-0.011,0.011-0.017c0.727-0.942,1.105-2.049,1.105-3.195
				C35.371,90.641,32.459,88.077,28.881,88.077z"/>
		</g>
		<g>
			<path style="fill:#F93585;" d="M22.606,92.019c-0.871-2.356-3.353-3.942-6.181-3.942c-3.575,0-6.487,2.564-6.487,5.713
				c0,1.146,0.379,2.253,1.105,3.195c0.006,0.006,0.011,0.017,0.011,0.017c0.024,0.026,0.043,0.043,0.061,0.059l11.54,13.65V92.114
				C22.635,92.085,22.618,92.053,22.606,92.019z"/>
		</g>
		<g>
			<path style="fill:#33363A;" d="M22.655,112.212c-0.441,0-0.86-0.194-1.146-0.532L10.011,98.079
				c-0.031-0.032-0.063-0.064-0.078-0.081c-0.04-0.045-0.077-0.092-0.11-0.141c-0.906-1.193-1.385-2.599-1.385-4.068
				c0-3.977,3.583-7.213,7.987-7.213c2.475,0,4.742,1.018,6.229,2.679c1.486-1.662,3.753-2.679,6.227-2.679
				c4.406,0,7.99,3.236,7.99,7.213c0,1.469-0.479,2.875-1.385,4.068c-0.033,0.049-0.07,0.096-0.11,0.141
				c-0.02,0.022-0.053,0.057-0.086,0.089L23.8,111.68C23.515,112.017,23.096,112.212,22.655,112.212z M12.201,96.029
				c0.021,0.02,0.032,0.031,0.06,0.063l10.395,12.295l10.394-12.295c0.023-0.027,0.047-0.054,0.072-0.079
				c0.491-0.661,0.751-1.429,0.751-2.224c0-2.323-2.238-4.213-4.99-4.213c-2.198,0-4.116,1.191-4.771,2.963
				c-0.055,0.145-0.124,0.281-0.207,0.406c-0.557,0.835-1.939,0.835-2.496,0c-0.085-0.127-0.154-0.263-0.207-0.404
				c-0.655-1.774-2.574-2.965-4.774-2.965c-2.75,0-4.987,1.89-4.987,4.213C11.438,94.591,11.701,95.365,12.201,96.029z"/>
		</g>
	</g>
	<g>
		<g>
			<path style="fill:#FC70B0;" d="M26.498,63.354c-1.744,0-3.275,0.978-3.814,2.433c-0.008,0.021-0.018,0.041-0.029,0.059
				c-0.012-0.018-0.021-0.037-0.029-0.059c-0.538-1.454-2.07-2.433-3.814-2.433c-2.207,0-4.004,1.583-4.004,3.525
				c0,0.708,0.234,1.391,0.682,1.972c0.004,0.004,0.007,0.011,0.007,0.011c0.015,0.017,0.026,0.026,0.038,0.037l7.121,8.424
				l7.121-8.424c0.012-0.011,0.023-0.021,0.038-0.037c0,0,0.003-0.007,0.007-0.011c0.448-0.581,0.682-1.264,0.682-1.972
				C30.502,64.937,28.705,63.354,26.498,63.354z"/>
		</g>
		<g>
			<path style="fill:#F93585;" d="M22.625,65.787c-0.538-1.454-2.07-2.433-3.814-2.433c-2.207,0-4.004,1.583-4.004,3.525
				c0,0.708,0.234,1.391,0.682,1.972c0.004,0.004,0.007,0.011,0.007,0.011c0.015,0.017,0.026,0.026,0.038,0.037l7.121,8.424V65.845
				C22.643,65.828,22.633,65.808,22.625,65.787z"/>
		</g>
		<g>
			<path style="fill:#33363A;" d="M22.655,78.823c-0.441,0-0.86-0.194-1.146-0.532l-7.079-8.374
				c-0.023-0.023-0.045-0.046-0.06-0.063c-0.036-0.042-0.07-0.085-0.103-0.13c-0.629-0.835-0.961-1.818-0.961-2.845
				c0-2.771,2.469-5.025,5.504-5.025c1.472,0,2.839,0.53,3.845,1.421c1.007-0.892,2.373-1.421,3.843-1.421
				c3.035,0,5.504,2.254,5.504,5.025c0,1.029-0.332,2.012-0.962,2.846c-0.031,0.044-0.065,0.087-0.102,0.129
				c-0.017,0.018-0.038,0.041-0.062,0.065L23.8,78.291C23.515,78.629,23.096,78.823,22.655,78.823z M16.641,67.888
				c0.014,0.015,0.026,0.029,0.038,0.043L22.655,75l5.976-7.069c0.013-0.016,0.026-0.03,0.04-0.045
				c0.221-0.305,0.332-0.643,0.332-1.006c0-1.098-1.146-2.025-2.504-2.025c-1.118,0-2.086,0.584-2.408,1.454
				c-0.04,0.109-0.123,0.272-0.188,0.369c-0.557,0.835-1.939,0.835-2.496,0c-0.066-0.1-0.15-0.266-0.191-0.378
				c-0.318-0.861-1.286-1.445-2.404-1.445c-1.357,0-2.504,0.928-2.504,2.025C16.307,67.237,16.422,67.585,16.641,67.888z"/>
		</g>
	</g>
	<g>
		<g>
			<path style="fill:#FC70B0;" d="M112.29,26.121c-1.744,0-3.275,0.979-3.813,2.433c-0.008,0.021-0.018,0.041-0.031,0.059
				c-0.012-0.018-0.021-0.037-0.029-0.059c-0.537-1.454-2.068-2.433-3.814-2.433c-2.207,0-4.004,1.583-4.004,3.525
				c0,0.708,0.234,1.391,0.682,1.972c0.006,0.004,0.008,0.011,0.008,0.011c0.014,0.017,0.027,0.026,0.037,0.037l7.121,8.424
				l7.121-8.424c0.012-0.011,0.025-0.021,0.039-0.037c0,0,0.002-0.007,0.006-0.011c0.449-0.581,0.684-1.264,0.684-1.972
				C116.296,27.704,114.499,26.121,112.29,26.121z"/>
		</g>
		<g>
			<path style="fill:#F93585;" d="M108.417,28.553c-0.537-1.454-2.068-2.433-3.814-2.433c-2.207,0-4.004,1.583-4.004,3.525
				c0,0.708,0.234,1.391,0.682,1.972c0.006,0.004,0.008,0.011,0.008,0.011c0.014,0.017,0.027,0.026,0.037,0.037l7.121,8.424V28.612
				C108.435,28.594,108.425,28.575,108.417,28.553z"/>
		</g>
		<g>
			<path style="fill:#33363A;" d="M108.447,41.589c-0.441,0-0.86-0.194-1.146-0.532l-7.082-8.378
				c-0.033-0.034-0.064-0.069-0.089-0.098c-0.018-0.022-0.035-0.044-0.052-0.067c-0.641-0.84-0.979-1.832-0.979-2.869
				c0-2.771,2.469-5.025,5.504-5.025c1.473,0,2.84,0.53,3.846,1.42c1.005-0.892,2.371-1.42,3.842-1.42
				c3.036,0,5.506,2.254,5.506,5.025c0,1.022-0.329,1.999-0.952,2.83c-0.024,0.037-0.052,0.072-0.079,0.106
				c-0.027,0.033-0.063,0.072-0.101,0.109l-7.072,8.366C109.307,41.395,108.888,41.589,108.447,41.589z M102.432,30.653
				c0.001,0.001,0.002,0.002,0.004,0.004l6.011,7.109l5.976-7.069c0.013-0.016,0.026-0.031,0.04-0.046
				c0.222-0.305,0.334-0.643,0.334-1.005c0-1.098-1.147-2.025-2.506-2.025c-1.118,0-2.085,0.583-2.405,1.452
				c-0.054,0.145-0.16,0.338-0.255,0.46c-0.295,0.381-0.744,0.592-1.238,0.578c-0.481-0.018-0.926-0.266-1.193-0.667
				c-0.066-0.1-0.15-0.266-0.191-0.378c-0.317-0.862-1.285-1.445-2.404-1.445c-1.357,0-2.504,0.928-2.504,2.025
				C102.099,30.003,102.214,30.35,102.432,30.653z"/>
		</g>
	</g>
</g>
<g>
</g>
<g>
</g>
<g>
</g>
<g>
</g>
<g>
</g>
<g>
</g>
<g>
</g>
<g>
</g>
<g>
</g>
<g>
</g>
<g>
</g>
<g>
</g>
<g>
</g>
<g>
</g>
<g>
</g>
</svg>
