<?xml version="1.0" encoding="iso-8859-1"?>
<!-- Generator: Adobe Illustrator 19.0.0, SVG Export Plug-In . SVG Version: 6.00 Build 0)  -->
<svg version="1.1" id="Layer_1" xmlns="http://www.w3.org/2000/svg" xmlns:xlink="http://www.w3.org/1999/xlink" x="0px" y="0px"
	 viewBox="0 0 128.115 128.115" style="enable-background:new 0 0 128.115 128.115;" xml:space="preserve">
<g>
	<g>
		<g>
			<g>
				<path style="fill:#FFFFFF;" d="M26.109,40.17c0,28.913,14.693,55.994,37.945,74.074c23.271-18.08,37.951-45.161,37.951-74.074
					c0-7.21-0.91-12.111-2.654-15.676C95.145,11.258,80.967,1.5,64.055,1.5c-16.889,0-31.08,9.758-35.283,22.994
					C27.025,28.059,26.109,32.96,26.109,40.17z"/>
			</g>
			<g>
				<path style="fill:#CED9DD;" d="M64.055,1.5c-16.889,0-31.08,9.758-35.283,22.994c-1.746,3.564-2.662,8.466-2.662,15.676
					c0,28.913,14.693,55.994,37.945,74.074"/>
			</g>
			<g>
				<path style="fill:#33363A;" d="M64.055,115.744c-0.325,0-0.65-0.105-0.921-0.316C38.651,96.391,24.609,68.96,24.609,40.17
					c0-7.163,0.879-12.326,2.766-16.235C31.912,9.837,46.976,0,64.055,0c17.083,0,32.153,9.836,36.693,23.935
					c1.881,3.902,2.758,9.066,2.758,16.235c0,28.804-14.044,56.234-38.531,75.259C64.704,115.639,64.379,115.744,64.055,115.744z
					 M64.055,3c-15.829,0-29.75,9.025-33.854,21.948c-0.022,0.07-0.05,0.139-0.083,0.206c-1.712,3.495-2.509,8.266-2.509,15.016
					c0,27.496,13.268,53.735,36.446,72.167c23.181-18.419,36.451-44.658,36.451-72.167c0-6.757-0.795-11.528-2.501-15.017
					c-0.033-0.066-0.06-0.135-0.083-0.205C93.814,12.025,79.888,3,64.055,3z"/>
			</g>
		</g>
	</g>
	<g>
		<circle style="fill:#FF8F8F;" cx="64.058" cy="37.686" r="22.796"/>
	</g>
	<g>
		<path style="fill:#FF1A1A;" d="M86.854,37.686c0,9.645-10.205,17.463-22.795,17.463c-12.59,0-22.797-7.818-22.797-17.463
			c0-9.641,10.207-17.459,22.797-17.459C76.648,20.227,86.854,28.045,86.854,37.686z"/>
	</g>
	<g>
		<path style="fill:#FFFFFF;" d="M41.262,37.686c0,12.592,10.207,22.799,22.797,22.799c12.59,0,22.795-10.207,22.795-22.799H41.262z
			"/>
	</g>
	<g>
		<path style="fill:#D8E5EA;" d="M64.059,55.148c12.59,0,22.795-7.818,22.795-17.463H41.262
			C41.262,47.33,51.469,55.148,64.059,55.148z"/>
	</g>
	<path style="fill:#33363A;" d="M88.354,37.686c0-13.396-10.898-24.295-24.295-24.295c-13.397,0-24.297,10.898-24.297,24.295
		c0,12.894,10.095,23.469,22.796,24.248c0,0.009-0.003,0.017-0.003,0.027v18.054c0,0.829,0.671,1.5,1.5,1.5s1.5-0.671,1.5-1.5V61.96
		c0-0.009-0.002-0.017-0.003-0.026C78.255,61.159,88.354,50.582,88.354,37.686z M64.059,16.391c11.236,0,20.444,8.753,21.219,19.795
		h-42.44C43.613,25.143,52.822,16.391,64.059,16.391z M64.059,58.984c-11.237,0-20.446-8.755-21.221-19.799h42.44
		C84.502,50.23,75.295,58.984,64.059,58.984z"/>
	<g>
		<path style="fill:#33363A;" d="M73.084,128.115H55.031c-0.829,0-1.5-0.671-1.5-1.5s0.671-1.5,1.5-1.5h18.053
			c0.829,0,1.5,0.671,1.5,1.5S73.913,128.115,73.084,128.115z"/>
	</g>
	<g>
		<path style="fill:#33363A;" d="M64.055,87.669c-0.829,0-1.5-0.671-1.5-1.5v-0.266c0-0.829,0.671-1.5,1.5-1.5s1.5,0.671,1.5,1.5
			v0.266C65.555,86.998,64.883,87.669,64.055,87.669z"/>
	</g>
	<g>
		<path style="fill:#33363A;" d="M64.055,93.813c-0.829,0-1.5-0.671-1.5-1.5v-0.266c0-0.829,0.671-1.5,1.5-1.5s1.5,0.671,1.5,1.5
			v0.266C65.555,93.141,64.883,93.813,64.055,93.813z"/>
	</g>
	<g>
		<path style="fill:#33363A;" d="M64.055,99.957c-0.829,0-1.5-0.671-1.5-1.5v-0.266c0-0.829,0.671-1.5,1.5-1.5s1.5,0.671,1.5,1.5
			v0.266C65.555,99.286,64.883,99.957,64.055,99.957z"/>
	</g>
	<g>
		<path style="fill:#33363A;" d="M64.055,106.103c-0.829,0-1.5-0.671-1.5-1.5v-0.266c0-0.829,0.671-1.5,1.5-1.5s1.5,0.671,1.5,1.5
			v0.266C65.555,105.431,64.883,106.103,64.055,106.103z"/>
	</g>
	<g>
		<g>
			<circle style="fill:#A7BBC1;" cx="64.058" cy="40.298" r="7.537"/>
		</g>
		<g>
			<circle style="fill:#FFFFFF;" cx="64.058" cy="37.736" r="7.537"/>
		</g>
		<g>
			<path style="fill:#D8E5EA;" d="M58.729,43.066c-2.943-2.944-2.943-7.717,0-10.66c2.943-2.944,7.715-2.944,10.658,0"/>
		</g>
		<g>
			<path style="fill:#33363A;" d="M64.058,46.768c-2.314,0-4.628-0.88-6.39-2.641c-3.523-3.525-3.523-9.259,0-12.782
				c1.707-1.708,3.976-2.648,6.39-2.648s4.683,0.94,6.39,2.647l0,0v0c0,0,0,0,0,0c1.708,1.707,2.648,3.977,2.648,6.39
				c0,2.414-0.94,4.684-2.648,6.392C68.686,45.888,66.372,46.768,64.058,46.768z M64.058,31.698c-1.612,0-3.128,0.628-4.268,1.769
				c-2.354,2.354-2.354,6.185,0,8.539c2.353,2.352,6.183,2.352,8.537,0c1.141-1.141,1.77-2.657,1.77-4.27
				c0-1.612-0.628-3.128-1.77-4.269c0,0,0,0,0,0C67.186,32.326,65.67,31.698,64.058,31.698z"/>
		</g>
	</g>
</g>
<g>
</g>
<g>
</g>
<g>
</g>
<g>
</g>
<g>
</g>
<g>
</g>
<g>
</g>
<g>
</g>
<g>
</g>
<g>
</g>
<g>
</g>
<g>
</g>
<g>
</g>
<g>
</g>
<g>
</g>
</svg>
