<svg xmlns="http://www.w3.org/2000/svg" xmlns:xlink="http://www.w3.org/1999/xlink" version="1.1" x="0px" y="0px" viewBox="0 0 70 56.767" enable-background="new 0 0 70 56.767" xml:space="preserve"><g><path fill="#000000" d="M49.726,37.783c-0.357,0-0.647-0.291-0.647-0.648c0-0.211,0.103-0.398,0.26-0.516   c-0.28-0.168-0.607-0.267-0.959-0.267c-1.027,0-1.862,0.834-1.862,1.863c0,1.028,0.835,1.863,1.862,1.863   c1.03,0,1.864-0.834,1.864-1.863c0-0.207-0.035-0.405-0.098-0.59C50.032,37.722,49.887,37.783,49.726,37.783z"></path><path fill="#000000" d="M51.172,0c-7.194,9.489-13.146,18.294-16.327,26.188C30.945,16.836,23.811,6.276,18.828,0   C8.017,14.261,0,26.979,0,37.377c0,10.399,8.43,18.828,18.828,18.828c6.874,0,12.885-3.685,16.172-9.186   c3.287,5.5,9.298,9.186,16.172,9.186C61.57,56.206,70,47.775,70,37.377C70,26.979,58.349,9.041,51.172,0z M18.491,46.745   c-5.148,0-9.321-4.174-9.321-9.321c0-5.148,4.173-9.321,9.321-9.321c5.147,0,9.321,4.173,9.321,9.321   C27.812,42.571,23.639,46.745,18.491,46.745z M50.836,46.745c-5.148,0-9.322-4.174-9.322-9.321c0-5.148,4.173-9.321,9.322-9.321   c5.146,0,9.32,4.173,9.32,9.321C60.156,42.571,55.982,46.745,50.836,46.745z"></path><path fill="#000000" d="M21.956,37.783c-0.358,0-0.648-0.291-0.648-0.648c0-0.176,0.071-0.335,0.186-0.452   c-0.301-0.208-0.666-0.331-1.06-0.331c-1.028,0-1.863,0.834-1.863,1.863c0,1.028,0.835,1.863,1.863,1.863   c1.029,0,1.863-0.834,1.863-1.863c0-0.171-0.024-0.336-0.068-0.494C22.146,37.76,22.054,37.783,21.956,37.783z"></path><path fill="#000000" d="M38.221,56.123c-0.121,0.016-0.24,0.034-0.359,0.044c-0.12,0.013-0.239,0.02-0.358,0.024   c-0.118,0.003-0.236,0.005-0.353,0.002c-0.117-0.005-0.232-0.011-0.346-0.025c-0.058-0.004-0.113-0.014-0.168-0.024   c-0.056-0.009-0.111-0.018-0.164-0.034c-0.106-0.024-0.209-0.058-0.307-0.097c-0.048-0.023-0.097-0.042-0.142-0.066l-0.13-0.078   l-0.119-0.09l-0.104-0.103c-0.062-0.075-0.122-0.151-0.168-0.239c-0.027-0.04-0.045-0.088-0.064-0.135   c-0.02-0.047-0.041-0.092-0.053-0.144l-0.043-0.15l-0.028-0.159c-0.018-0.086-0.02-0.18-0.027-0.271   c0.587-0.292,1.593-1.307,2.04-2.771c-1.306,0-3.855,0-4.656,0c0.448,1.437,1.362,2.394,1.95,2.728l-0.004,0   c-0.008,0.111-0.004,0.226-0.019,0.334l-0.021,0.163c-0.007,0.055-0.024,0.103-0.035,0.155c-0.01,0.052-0.022,0.104-0.043,0.15   c-0.02,0.047-0.03,0.099-0.055,0.143l-0.068,0.132c-0.028,0.039-0.056,0.078-0.083,0.119c-0.029,0.039-0.065,0.071-0.097,0.108   c-0.032,0.036-0.074,0.062-0.11,0.095c-0.08,0.058-0.165,0.11-0.26,0.151c-0.046,0.025-0.099,0.039-0.147,0.057   c-0.049,0.021-0.103,0.031-0.156,0.045c-0.052,0.015-0.106,0.026-0.161,0.034c-0.056,0.009-0.11,0.019-0.168,0.023   c-0.113,0.013-0.229,0.018-0.346,0.02c-0.117,0-0.234-0.003-0.354-0.01c-0.119-0.007-0.238-0.017-0.358-0.033   c-0.12-0.013-0.239-0.034-0.359-0.054c-0.241-0.037-0.481-0.09-0.722-0.146c-0.24-0.057-0.48-0.12-0.722-0.19   c0.211,0.137,0.434,0.254,0.66,0.364c0.228,0.109,0.463,0.202,0.702,0.288c0.12,0.041,0.241,0.079,0.365,0.112   c0.124,0.035,0.249,0.064,0.376,0.091c0.063,0.012,0.127,0.025,0.191,0.035l0.195,0.024c0.131,0.012,0.264,0.023,0.398,0.02   c0.066,0.002,0.135-0.003,0.203-0.009c0.068-0.003,0.137-0.01,0.205-0.022c0.068-0.01,0.137-0.021,0.206-0.042   c0.068-0.019,0.138-0.033,0.205-0.062c0.137-0.048,0.271-0.114,0.396-0.197c0.06-0.045,0.125-0.085,0.18-0.137   c0.054-0.053,0.111-0.104,0.16-0.161c0.048-0.059,0.094-0.119,0.139-0.18l0.071-0.126c0.066,0.102,0.145,0.197,0.229,0.285   l0.168,0.148l0.184,0.125c0.063,0.036,0.129,0.068,0.194,0.1c0.065,0.03,0.133,0.051,0.2,0.077   c0.135,0.042,0.271,0.077,0.405,0.095c0.067,0.012,0.136,0.017,0.202,0.021c0.067,0.006,0.134,0.011,0.2,0.01   c0.134,0.004,0.265-0.005,0.395-0.015c0.13-0.013,0.259-0.028,0.385-0.052c0.127-0.024,0.252-0.049,0.375-0.081   c0.124-0.03,0.246-0.064,0.367-0.102c0.24-0.079,0.477-0.165,0.705-0.268c0.229-0.102,0.453-0.212,0.667-0.342   c-0.241,0.062-0.482,0.118-0.724,0.167C38.701,56.047,38.461,56.093,38.221,56.123z"></path></g></svg>