<svg xmlns="http://www.w3.org/2000/svg" xmlns:xlink="http://www.w3.org/1999/xlink" version="1.1" x="0px" y="0px" viewBox="0 0 100 100" enable-background="new 0 0 100 100" xml:space="preserve"><path d="M85.29,28.556c0,0-3.006,1.588-4.111,1.634c-1.389,0.057-2.722-0.613-4.14-0.613c-0.496,0-0.978,0.025-1.46,0.075  c-0.581-5.49-4.819-20.208-18.474-20.704c-2.19-0.078-7.173,1.914-7.372,2.027c-0.198-0.113-5.181-2.027-7.371-2.027  c-8.704,0-18.01,6.248-18.471,20.704c-5.11,0.301-9.718-1.095-9.718-1.095c-6.69,6.567-6.79,18.684-3.494,26.746  c2.006,4.897,5.288,8.491,9.292,10.384C18.803,71.384,20,76.842,23.375,81.108c6.599,8.335,21.674,9.568,26.359,9.568  c4.777,0,19.764-1.233,26.356-9.568c3.374-4.267,4.564-9.725,3.402-15.423c4.012-1.893,7.286-5.486,9.299-10.38  C92.08,47.24,91.98,35.126,85.29,28.556z M52.696,20.692c0.879-1.956,3.211-3.547,6.34-2.052c3.091,1.57,11.213,9.99,6.025,17.62  c-1.928,2.849-9.474,4.143-11.947-0.061C50.953,34.039,50.875,24.045,52.696,20.692z M41.491,18.254  c2.19-1.254,4.401,0.482,5.28,2.438c1.814,3.353,1.737,13.346-0.425,15.508c-2.466,4.203-10.008,2.91-11.943,0.061  C29.222,28.631,37.692,21.022,41.491,18.254z M20.965,38.993c7.534-2.297,18.825,14.785,8.796,18.445  C18.101,61.702,16.28,40.999,20.965,38.993z M49.734,81.477c-11.078,0.143-23.212-3.558-20.668-14.324  c1.326-4.486,6.478-1.949,6.783-5.039c0.368-7.945,7.3-12.12,13.743-11.985c0.042-0.003,0.099,0,0.142,0s0.092-0.003,0.135,0  c6.45-0.135,13.378,4.04,13.747,11.985c0.298,3.09,5.458,0.553,6.776,5.039C72.942,77.919,60.809,81.619,49.734,81.477z   M69.696,57.438C59.349,54.827,71.78,36.356,78.5,38.993C82.639,40.439,81.434,60.398,69.696,57.438z"></path></svg>