<svg xmlns="http://www.w3.org/2000/svg" xmlns:xlink="http://www.w3.org/1999/xlink" version="1.1" x="0px" y="0px" viewBox="0 0 100 100" enable-background="new 0 0 100 100" xml:space="preserve"><g><path fill="#000000" d="M40.709,20.417c0,0-0.523,1.729-0.523,3.041s0.523,3.042,0.523,3.042c0.069,0.233,0.184,0.233,0.253,0   c0,0,0.524-1.73,0.524-3.042s-0.524-3.041-0.524-3.041C40.893,20.184,40.778,20.184,40.709,20.417z"></path><path fill="#000000" d="M55.972,26.5c0,0,0.523-1.73,0.523-3.042s-0.523-3.041-0.523-3.041c-0.07-0.233-0.185-0.233-0.257,0   c0,0-0.521,1.729-0.521,3.041s0.521,3.042,0.521,3.042C55.787,26.732,55.901,26.732,55.972,26.5z"></path><path fill="#000000" d="M79.554,58.012c-0.527-2.169-1.521-4.519-2.482-6.791c-1.744-4.129-3.551-8.401-2.392-10.979   c0.521-1.152,1.685-2.021,3.564-2.655c1.063-0.357,1.635-1.514,1.276-2.575c-0.276-0.828-1.052-1.385-1.924-1.385   c-0.22,0-0.441,0.037-0.65,0.108c-2.969,1-4.979,2.627-5.972,4.839c-1.889,4.196,0.269,9.296,2.355,14.233   c1.569,3.716,3.351,7.926,2.191,9.887c-0.609,1.027-2.3,1.262-5.012,1.545c-0.416-1.352-0.942-2.749-1.579-4.188   c-2.175-4.907-4.929-8.654-4.956-8.689c-2.227-3.021-4.247-5.703-4.265-5.73l-0.044,0.033c-0.165-0.428-0.265-0.683-0.285-0.736   c-0.74-2.074-0.837-5.499-0.849-6.554c0.016-0.009,0.033-0.018,0.05-0.027c0.827,0.694,1.574,1.488,2.097,2.339   c0.104,0.167,0.281,0.259,0.463,0.259c0.097,0,0.196-0.027,0.284-0.081c0.254-0.157,0.334-0.49,0.179-0.745   c-0.513-0.832-1.238-1.637-2.063-2.364c0.385-0.254,0.758-0.522,1.113-0.802c0.31-0.244,0.606-0.493,0.888-0.749   c1.849,0.821,3.701,1.903,5.365,3.265c0.102,0.083,0.225,0.123,0.345,0.123c0.156,0,0.31-0.067,0.42-0.2   c0.189-0.233,0.156-0.573-0.077-0.762c-1.695-1.385-3.477-2.447-5.214-3.251c2.219-2.359,3.417-5.209,3.417-8.211   c0-0.401-0.023-0.8-0.063-1.194c-0.259-6.354-3.233-11.311-5.038-13.754c-2.673-3.619-6.018-6.145-8.133-6.145   c-1.771,0-2.896,3.721-2.993,7.349c-0.386-0.02-0.773-0.031-1.163-0.031c-0.404,0-0.808,0.011-1.208,0.033   c-0.097-3.627-1.223-7.351-2.993-7.351c-2.116,0-5.459,2.526-8.132,6.145c-1.888,2.558-5.058,7.858-5.058,14.638h0.005   c-0.004,0.103-0.005,0.207-0.005,0.311c0,2.932,1.146,5.721,3.265,8.046c-1.847,0.824-3.76,1.935-5.573,3.417   c-0.232,0.189-0.266,0.529-0.076,0.762c0.107,0.133,0.263,0.2,0.419,0.2c0.121,0,0.242-0.04,0.343-0.123   c1.77-1.447,3.751-2.578,5.715-3.417c0.332,0.309,0.68,0.612,1.049,0.901c0.269,0.211,0.545,0.413,0.827,0.609   c-0.915,0.776-1.729,1.65-2.286,2.558c-0.156,0.255-0.077,0.588,0.178,0.745c0.088,0.054,0.187,0.081,0.284,0.081   c0.182,0,0.36-0.093,0.462-0.259c0.567-0.925,1.398-1.779,2.309-2.515c0.112,0.067,0.228,0.133,0.342,0.2   c-0.012,1.048-0.108,4.479-0.848,6.558c-0.021,0.053-0.125,0.313-0.291,0.748l-0.058-0.044c-0.02,0.027-2.038,2.708-4.266,5.73   c-0.027,0.035-2.781,3.782-4.954,8.689c-1.283,2.896-2.121,5.627-2.487,8.121c-0.417,2.828-0.229,5.36,0.559,7.539   c-1.913,0.08-4.91,0.655-4.91,4.966c0,1.777,1.752,3.144,4.152,3.314c0.081,0.592,0.308,1.013,0.688,1.284   c0.256,0.183,0.569,0.281,0.939,0.293c-0.678,1.077-1.021,2.484-1.021,4.193c0,0.997,0.49,1.88,1.38,2.486   c0.7,0.479,1.627,0.769,2.643,0.83c0.172,0.365,0.568,0.744,1.395,1.018c0.71,0.237,1.656,0.366,2.662,0.366   c1.513,0,3.105-0.284,3.716-1.034c1.102,0.358,2.15,0.279,2.935-0.234c0.603-0.393,1.323-1.221,1.326-2.928   c0.064-1.374-0.143-2.719-0.503-4.104c1.838,1.837,4.222,2.769,7.096,2.769c2.891,0,5.288-1.02,7.121-3.034   c-0.403,1.478-0.642,2.908-0.575,4.369c0.003,1.707,0.725,2.535,1.327,2.928c0.783,0.514,1.833,0.593,2.935,0.234   c0.611,0.75,2.204,1.034,3.717,1.034c1.008,0,1.952-0.129,2.661-0.366c0.826-0.273,1.222-0.652,1.395-1.018   c1.017-0.062,1.942-0.351,2.645-0.83c0.888-0.606,1.379-1.489,1.379-2.486c0-1.709-0.344-3.116-1.022-4.193   c0.362-0.018,0.667-0.113,0.922-0.293c0.38-0.271,0.608-0.692,0.688-1.284c2.4-0.171,4.151-1.537,4.151-3.314   c0-4.311-2.998-4.886-4.912-4.966c0.722-1.987,0.938-4.269,0.656-6.803c3.629-0.535,6.219-1.965,7.51-4.146   C80.059,63.007,80.234,60.799,79.554,58.012z M61.317,34.911c-3.315-1.361-6.345-1.805-8.086-1.805   c-0.299,0-0.542,0.242-0.542,0.542c0,0.298,0.243,0.542,0.542,0.542c1.908,0,4.504,0.499,7.192,1.546   c-0.545,0.464-1.135,0.896-1.764,1.292c-1.992-1.524-4.27-2.569-5.429-2.569c-0.299,0-0.542,0.242-0.542,0.542   c0,0.298,0.243,0.542,0.542,0.542c0.746,0,2.638,0.803,4.416,2.074c-0.983,0.53-2.045,0.975-3.167,1.327v-0.014   c-1.439,0-2.814-0.634-3.867-1.787c-1.03-1.127-1.613-2.605-1.659-4.179l2.941-3.394c1.713,1.847,4.323,3.028,7.237,3.028   c1.632,0,3.189-0.361,4.579-1.052C63.134,32.768,62.322,33.899,61.317,34.911z M49.813,37.878c0.67,0.733,1.454,1.288,2.303,1.651   c-1.192,0.216-2.433,0.332-3.708,0.332c-1.305,0-2.572-0.122-3.789-0.347c1.679-0.718,3.053-2.147,3.776-3.923   C48.725,36.432,49.201,37.208,49.813,37.878z M46.004,29.291h4.703l-2.308,2.66L46.004,29.291z M64.667,26.855h0.042   c0.002,0.103,0.007,0.207,0.007,0.311c0,0.958-0.139,1.89-0.398,2.788L64.31,29.94c-1.48,1.032-3.271,1.576-5.177,1.576   c-3.49,0-6.482-1.88-7.69-4.529c1.03,1.22,2.568,1.997,4.288,1.997c3.093,0,5.607-2.514,5.607-5.606c0-3.02-2.4-5.487-5.392-5.601   c0.807-0.306,1.669-0.5,2.556-0.572c3.435,2.113,5.752,5.277,6.152,8.861C64.663,26.328,64.667,26.589,64.667,26.855z    M51.208,23.377c0-0.854,0.238-1.653,0.65-2.334c0.007-0.011,0.014-0.021,0.021-0.031c0.032-0.053,0.066-0.104,0.099-0.157   c0.005-0.005,0.01-0.011,0.014-0.017c0.815-1.194,2.186-1.982,3.739-1.982c2.495,0,4.524,2.028,4.524,4.521   c0,2.494-2.029,4.523-4.524,4.523C53.238,27.901,51.208,25.871,51.208,23.377z M59.823,12.86c1.179,1.596,2.876,4.304,3.917,7.786   c-0.806-1.188-1.841-2.287-3.086-3.263c-2.163-1.702-4.797-2.897-7.666-3.513c0.142-1.513,0.928-4.762,1.782-5.911   C56.262,8.859,58.085,10.506,59.823,12.86z M52.563,7.157c0.345,0,0.767,0.103,1.244,0.304c-1.037,1.552-1.709,4.698-1.882,6.209   c-0.421-0.067-0.846-0.122-1.273-0.166C50.738,9.544,51.998,7.157,52.563,7.157z M48.408,14.473c3.124,0,6.043,0.688,8.527,1.878   c-1.727,0.392-3.312,1.215-4.569,2.391c-1.66,1.554-2.574,3.556-2.574,5.641c0,1.38,0.389,2.681,1.074,3.822h-5.051   c0.686-1.142,1.075-2.442,1.075-3.822c0-2.085-0.914-4.087-2.574-5.641c-1.235-1.156-2.786-1.97-4.477-2.37   C42.331,15.169,45.267,14.473,48.408,14.473z M45.472,23.377c0,2.494-2.029,4.523-4.523,4.523c-2.494,0-4.523-2.03-4.523-4.523   c0-2.493,2.029-4.521,4.523-4.521c1.552,0,2.923,0.785,3.737,1.98c0.005,0.007,0.01,0.013,0.015,0.021   c0.035,0.049,0.066,0.101,0.098,0.152c0.008,0.012,0.015,0.023,0.021,0.036C45.233,21.727,45.472,22.526,45.472,23.377z    M46.118,13.507c-0.375,0.041-0.749,0.088-1.118,0.146c-0.179-1.535-0.861-4.716-1.914-6.244c0.427-0.167,0.806-0.253,1.122-0.253   C44.772,7.157,46.033,9.546,46.118,13.507z M36.947,12.86c1.781-2.411,3.649-4.08,5.159-4.965c0.871,1.085,1.679,4.399,1.831,5.953   c-2.914,0.608-5.586,1.812-7.778,3.535c-1.287,1.009-2.348,2.153-3.167,3.388C34.03,17.23,35.754,14.475,36.947,12.86z    M32.102,27.166c0-4.027,2.423-7.624,6.194-9.95c0.845,0.079,1.667,0.267,2.439,0.561c-2.993,0.114-5.392,2.582-5.392,5.601   c0,3.093,2.515,5.606,5.606,5.606c1.717,0,3.257-0.777,4.286-1.997c-1.206,2.649-4.198,4.529-7.689,4.529   c-1.84,0-3.572-0.509-5.023-1.473C32.247,29.118,32.102,28.156,32.102,27.166z M37.88,36.852c-0.585-0.387-1.136-0.805-1.646-1.25   c2.561-0.956,5.015-1.411,6.838-1.411c0.299,0,0.542-0.244,0.542-0.542c0-0.3-0.243-0.542-0.542-0.542   c-1.677,0-4.548,0.41-7.721,1.656c-0.913-0.949-1.66-2-2.206-3.127c1.343,0.634,2.838,0.965,4.401,0.965   c2.92,0,5.531-1.185,7.246-3.036l3.069,3.406c-0.102,3.221-2.605,5.909-5.578,5.958c-1.213-0.382-2.353-0.877-3.401-1.467   c1.71-1.181,3.475-1.917,4.19-1.917c0.299,0,0.542-0.244,0.542-0.542c0-0.3-0.243-0.542-0.542-0.542   C41.958,34.46,39.813,35.424,37.88,36.852z M26.487,84.393c-0.18-0.129-0.243-0.442-0.26-0.735c0.05-0.247,0.093-0.682,0.093-1.449   c0-1.261-0.251-1.917-0.251-1.917c-0.034-0.135-0.089-0.135-0.123,0c0,0-0.251,0.663-0.251,1.917c0,0.281,0.006,0.518,0.016,0.717   H25.68c-1.733,0-3.577-0.789-3.577-2.248c0-3.594,2.284-3.895,4.623-3.895h0.833l-0.337-0.761   c-2.167-4.898-0.316-11.139,1.619-15.513c2.125-4.803,4.817-8.468,4.844-8.505c0.79-1.069,1.552-2.096,2.208-2.978   c-1.051,2.927-2.474,7.132-3.733,11.659c-2.991,10.764-3.74,18.411-2.232,22.762c-0.738,0.12-1.421,0.418-2.007,0.872l-0.017-0.046   C26.978,84.594,26.619,84.485,26.487,84.393z M40.751,90.226l0,0.025c0,0.975-0.289,1.679-0.835,2.036   c-0.514,0.336-1.245,0.366-2.045,0.098c0.039-0.355,0.067-0.866,0.067-1.593c0-1.721-0.343-2.617-0.343-2.617   c-0.045-0.182-0.121-0.182-0.166,0c0,0-0.343,0.906-0.343,2.617c0,0.991,0.051,1.575,0.114,1.92h-0.453l0,0   c-0.067,0.295-1.72,0.856-3.969,0.609c-1.118-0.126-1.75-0.411-1.946-0.633c0.061-0.348,0.111-0.929,0.111-1.896   c0-1.721-0.343-2.617-0.343-2.617c-0.046-0.182-0.122-0.182-0.167,0c0,0-0.342,0.906-0.342,2.617c0,0.502,0.014,0.899,0.035,1.214   c-2.242-0.032-3.264-1.178-3.264-2.244c0-3.903,1.98-5.295,3.835-5.295h0.833l-0.337-0.76c-4.215-9.524,7.129-38.099,7.244-38.387   l0.008-0.019c0.7-1.963,0.866-4.901,0.904-6.367c1.214,0.589,2.51,1.053,3.865,1.387c-0.874,3.551-5.567,22.78-6.047,27.421   c-0.022,0.187-0.364,3.087-0.099,6.726c0.264,3.621,1.015,6.604,2.24,8.912C40.182,85.841,40.855,88.04,40.751,90.226z    M54.764,85.146c-1.623,1.792-3.755,2.698-6.337,2.698c-2.776,0-5.035-0.959-6.71-2.854c-0.551-0.624-1.021-1.325-1.423-2.079   c-0.126-0.355-0.257-0.717-0.391-1.086c-0.312-0.866-0.636-1.762-0.948-2.696l-0.064,0.022c-1.344-5.345-0.655-11.198-0.645-11.281   l0.001-0.011c0.464-4.513,5.193-23.909,6.027-27.306c1.337,0.256,2.723,0.39,4.134,0.39c1.408,0,2.791-0.134,4.125-0.388   c0.834,3.395,5.561,22.738,6.026,27.302C58.571,67.977,59.673,79.725,54.764,85.146z M66.694,92.006   c0.03-0.346,0.051-0.813,0.051-1.448c0-1.721-0.341-2.616-0.341-2.616c-0.048-0.184-0.12-0.184-0.167,0   c0,0-0.343,0.905-0.343,2.616c0,1.111,0.064,1.712,0.139,2.035c-0.074,0.228-0.718,0.584-2.008,0.729   c-2.246,0.248-3.901-0.314-3.968-0.609h-0.207c0.073-0.329,0.135-0.928,0.135-2.016c0-1.722-0.343-2.618-0.343-2.618   c-0.047-0.184-0.121-0.184-0.167,0c0,0-0.343,0.907-0.343,2.618c0,0.726,0.027,1.233,0.067,1.589   c-0.901,0.37-1.738,0.373-2.308,0.002c-0.547-0.357-0.836-1.062-0.836-2.036v-0.025c-0.121-2.531,0.798-5.079,1.866-8.03   c0.316-0.872,0.642-1.775,0.957-2.723l-0.104-0.033c0.383-1.461,0.655-3.082,0.819-4.854c0.341-3.729,0.056-6.71,0.042-6.836   c-0.478-4.687-5.172-23.873-6.044-27.425c1.353-0.333,2.649-0.797,3.863-1.383c0.037,1.466,0.204,4.401,0.904,6.361l0.007,0.019   c0.114,0.288,11.46,28.861,7.245,38.387l-0.337,0.76h0.832c2.829,0,3.837,2.735,3.837,5.295   C69.945,90.827,68.926,91.971,66.694,92.006z M74.685,80.677c0,1.459-1.843,2.248-3.577,2.248h-0.011   c0.011-0.199,0.013-0.436,0.013-0.717c0-1.261-0.248-1.917-0.248-1.917c-0.033-0.135-0.089-0.135-0.124,0   c0,0-0.25,0.663-0.25,1.917c0,0.687,0.033,1.108,0.076,1.367c-0.011,0.314-0.065,0.676-0.263,0.817   c-0.132,0.093-0.491,0.201-1.417-0.119l-0.013,0.033c-0.582-0.446-1.261-0.74-1.994-0.859c1.511-4.351,0.76-11.998-2.231-22.762   c-1.249-4.503-2.665-8.687-3.715-11.612c0.649,0.871,1.399,1.881,2.173,2.933c0.026,0.035,2.708,3.685,4.834,8.484   c0.587,1.322,1.164,2.812,1.625,4.387l0.519,2.043c0.652,3.074,0.723,6.307-0.514,9.102l-0.336,0.761h0.83   C72.4,76.782,74.685,77.083,74.685,80.677z M78.088,64.211c-1.091,1.848-3.445,3.122-6.658,3.614l-0.25-0.98   c-0.104-0.509-0.225-1.024-0.367-1.55c2.938-0.309,4.792-0.607,5.645-2.05c1.437-2.43-0.378-6.717-2.131-10.862   c-1.993-4.719-4.059-9.601-2.365-13.363c0.868-1.926,2.659-3.357,5.331-4.258c0.099-0.033,0.201-0.049,0.305-0.049   c0.406,0,0.769,0.26,0.896,0.646c0.17,0.495-0.098,1.033-0.595,1.202c-2.179,0.734-3.556,1.794-4.205,3.237   c-1.355,3.008,0.546,7.501,2.382,11.848c0.942,2.231,1.92,4.54,2.427,6.623C79.11,60.766,78.977,62.709,78.088,64.211z"></path></g></svg>