<svg xmlns="http://www.w3.org/2000/svg" xmlns:xlink="http://www.w3.org/1999/xlink" version="1.1" x="0px" y="0px" viewBox="0 0 100 100" enable-background="new 0 0 100 100" xml:space="preserve"><path d="M92.195,5.944l-0.02,0C88.707,6.224,82.01,8.803,81.493,16.564c-0.054,0.794-0.082,1.702-0.105,2.564l-0.004,0.16  c-0.129,4.468-0.306,10.587-3.435,14.538l-0.175,0.221l-0.15-0.235c-7.275-11.35-19.628-18.125-33.044-18.125  c-21.632,0-39.23,17.599-39.23,39.231c0,21.632,17.599,39.23,39.23,39.23s39.23-17.599,39.23-39.23  c0-6.407-1.591-12.773-4.601-18.413l-0.068-0.125l0.098-0.104c4.368-4.627,4.578-12.024,4.717-16.919l0.009-0.272  c0.022-0.754,0.05-1.62,0.097-2.345c0.496-7.467,8.016-8.225,8.342-8.255c0.592-0.126,1.021-0.653,1.021-1.252  C93.425,6.544,92.885,5.978,92.195,5.944z M49.8,18.647c3.783,0.544,7.417,1.657,10.799,3.309l0.167,0.082l-0.065,0.17  c-0.78,2.005-1.763,4.119-3.002,6.462l-0.132,0.25l-0.193-0.208c-2.854-3.076-5.468-6.358-7.767-9.754l-0.256-0.374L49.8,18.647z   M38.036,18.858L38.036,18.858c2.183-0.396,4.384-0.598,6.544-0.598c0.241,0,0.482,0.014,0.719,0.027l0.175,0.011  c0.165,0.012,0.331,0.023,0.501,0.032l0.1,0.003l0.058,0.089c2.816,4.429,6.191,8.723,10.029,12.76l0.104,0.109l-0.077,0.131  c-1.211,2.059-2.614,4.166-4.288,6.439l-0.142,0.191l-0.163-0.167c-5.584-5.689-10.336-12.166-13.741-18.73l-0.126-0.243  L38.036,18.858z M28.453,22.009c2.063-1.013,4.239-1.836,6.467-2.446l0.158-0.043l0.074,0.146  c3.569,7.067,8.719,14.094,14.893,20.322l0.126,0.127l-0.11,0.14c-1.725,2.167-3.349,4.044-4.967,5.738l-0.138,0.145l-0.258-0.248  c-7.141-7.141-12.791-15.31-16.342-23.624l-0.074-0.175L28.453,22.009z M20.199,27.575c1.685-1.504,3.563-2.883,5.585-4.096  l0.198-0.118l0.09,0.209c3.637,8.433,9.445,16.779,16.801,24.134l0.258,0.254l-0.148,0.143c-1.874,1.83-3.771,3.53-5.637,5.053  l-0.142,0.115l-0.128-0.13c-7.538-7.582-13.551-16.583-16.93-25.345l-0.05-0.129L20.199,27.575z M13.152,36.13  c1.332-2.22,2.914-4.315,4.702-6.228l0.214-0.228l0.118,0.291c3.524,8.605,9.341,17.159,16.819,24.737l0.161,0.163l-0.184,0.14  c-2.059,1.554-4.191,3.007-6.342,4.319l-0.137,0.084l-0.111-0.117c-6.713-7.046-11.988-14.994-15.256-22.984L13.1,36.216  L13.152,36.13z M8.349,49.338c0.506-3.301,1.507-6.581,2.973-9.747l0.184-0.395l0.182,0.397c3.29,7.227,8.251,14.476,14.346,20.964  l0.177,0.188l-0.226,0.124c-2.25,1.243-4.585,2.345-7.136,3.37l-0.132,0.052l-0.095-0.11c-4.105-4.678-7.554-9.631-10.25-14.721  l-0.032-0.06L8.349,49.338z M9.972,66.964l-0.057-0.166c-1.32-3.837-1.99-7.834-1.99-11.879l0.014-0.896l0.362,0.591  c2.181,3.547,4.749,7.052,7.635,10.416l0.193,0.224l-0.28,0.095c-2.119,0.715-3.985,1.233-5.705,1.582L9.972,66.964z M13.898,74.938  l-0.067-0.103c-1.054-1.623-1.995-3.369-2.797-5.19l-0.101-0.227l0.243-0.05c11.604-2.436,23.793-9.575,34.319-20.102  c7.847-7.846,13.885-16.76,17.461-25.778l0.089-0.22l0.202,0.121c1.936,1.152,3.808,2.523,5.562,4.073l0.1,0.089l-0.045,0.125  c-3.276,9.462-9.414,18.871-17.749,27.209c-11.27,11.266-25.137,18.758-37.094,20.041L13.898,74.938z M20.451,82.455l-0.063-0.058  c-1.631-1.435-3.16-3.049-4.545-4.798l-0.215-0.272l0.344-0.051c12.203-1.785,25.677-9.282,36.964-20.571  c8.191-8.189,14.38-17.497,17.896-26.917l0.112-0.3l0.221,0.233c1.776,1.872,3.375,3.969,4.753,6.233l0.051,0.084l-0.035,0.092  c-3.365,9.135-9.374,18.193-17.377,26.195C46.942,73.939,32.729,81.462,20.536,82.448L20.451,82.455z M40.21,91.308  c-5.888-0.704-11.591-2.878-16.494-6.289l-0.41-0.285l0.494-0.078c2.554-0.401,5.233-1.071,7.962-1.993l0.126-0.042l0.089,0.099  c1.182,1.324,2.312,2.524,3.457,3.67c1.535,1.538,3.193,3.073,4.931,4.562l0.5,0.433L40.21,91.308z M55.583,89.855  c-3.398,1.07-6.882,1.644-10.356,1.705l-0.07,0.002L45.1,91.516c-2.906-2.261-5.473-4.514-7.847-6.885  c-0.334-0.334-0.677-0.7-0.985-1.03l-0.072-0.079c-0.513-0.549-0.998-1.069-1.488-1.51l-0.197-0.177l0.226-0.14  c1.359-0.849,2.72-1.431,4.034-1.994l0.058-0.025c1.014-0.436,2.062-0.887,3.085-1.45l0.132-0.074l0.107,0.11  c0.113,0.117,0.224,0.227,0.335,0.336l0.387,0.38c3.947,3.949,8.241,7.487,12.763,10.516l0.347,0.233L55.583,89.855z M66.301,84.42  c-2.19,1.619-4.617,3.009-7.213,4.133l-0.095,0.042l-0.09-0.054c-5.013-3.155-9.794-6.994-14.209-11.407l-0.338-0.349l6.705-4.542  l0.117,0.113c4.739,4.611,9.821,8.557,15.106,11.73l0.258,0.155L66.301,84.42z M73.841,76.968c-1.49,1.967-3.191,3.798-5.057,5.442  l-0.107,0.096l-0.125-0.072C63.2,79.331,58.06,75.419,53.272,70.808l-0.162-0.16l0.177-0.143c1.935-1.558,3.842-3.236,5.671-4.987  l0.136-0.132l0.139,0.133c4.553,4.345,9.448,8.098,14.55,11.154l0.193,0.115L73.841,76.968z M78.824,67.925  c-0.884,2.327-1.988,4.539-3.284,6.576l-0.104,0.165l-0.169-0.098c-4.974-2.965-9.748-6.616-14.191-10.85l-0.14-0.133l5.314-5.915  l0.148,0.142c3.886,3.739,8.039,7.061,12.347,9.873l0.137,0.089L78.824,67.925z M81.188,56.813  c-0.141,2.712-0.606,5.463-1.386,8.175l-0.076,0.265l-0.228-0.152c-4.01-2.679-7.885-5.823-11.515-9.343l-0.129-0.125l0.107-0.14  c1.578-2.067,3.041-4.178,4.349-6.275l0.132-0.215l0.194,0.196c2.646,2.649,5.497,5.152,8.473,7.44l0.083,0.065L81.188,56.813z   M81.175,52.723l0.002,0.022c0.011,0.063,0.011,0.16,0.011,0.273c0.001,0.114-0.023,0.199-0.069,0.246h-0.001  c-0.03,0.031-0.071,0.046-0.131,0.046c-0.107,0-0.167-0.05-0.192-0.163l-0.012-0.05l-0.04-0.032  c-2.194-1.797-4.312-3.713-6.29-5.694c-0.068-0.07-0.137-0.141-0.205-0.212l-0.445-0.457l0.073-0.131  c1.354-2.387,2.544-4.797,3.535-7.163l0.173-0.416l0.191,0.408C80.05,44.244,81.139,47.473,81.175,52.723z"></path></svg>