<svg xmlns="http://www.w3.org/2000/svg" xmlns:xlink="http://www.w3.org/1999/xlink" version="1.1" x="0px" y="0px" viewBox="0 0 100 100" enable-background="new 0 0 100 100" xml:space="preserve"><g><path fill="#000000" d="M76.359,70.531c-0.047,0.024-0.092,0.053-0.139,0.079c0,0,0,0,0,0c-0.074,0.043-0.147,0.089-0.218,0.138   c-0.006,0.004-0.013,0.009-0.019,0.014c-0.065,0.046-0.129,0.093-0.191,0.144c-0.023,0.018-0.044,0.039-0.067,0.058   c-0.047,0.041-0.094,0.08-0.139,0.124c-0.07,0.067-0.138,0.138-0.204,0.213c-0.098-0.039-0.2-0.074-0.304-0.105   c-0.034-0.01-0.069-0.016-0.104-0.025c-0.071-0.018-0.142-0.037-0.215-0.051c-0.043-0.008-0.087-0.012-0.131-0.019   c-0.066-0.01-0.132-0.021-0.2-0.027c-0.047-0.004-0.095-0.005-0.143-0.007c-0.056-0.003-0.111-0.008-0.167-0.008   c-0.009,0-0.018,0.001-0.027,0.001c-0.067,0.001-0.134,0.006-0.202,0.011c-0.051,0.003-0.102,0.005-0.153,0.011   c-0.071,0.008-0.141,0.022-0.211,0.035c-0.048,0.009-0.096,0.015-0.144,0.026c-0.078,0.018-0.154,0.043-0.231,0.067   c-0.039,0.012-0.079,0.021-0.119,0.035c-0.115,0.041-0.229,0.09-0.34,0.146c-0.761,0.387-1.325,1.023-1.572,1.785   c-0.035,0.109-0.064,0.22-0.086,0.334c-0.109,0.01-0.216,0.024-0.32,0.043c-0.313,0.057-0.606,0.154-0.877,0.292   c-0.101,0.052-0.198,0.108-0.292,0.168c-0.031,0.02-0.06,0.042-0.09,0.063c-0.061,0.042-0.121,0.085-0.178,0.13   c-0.033,0.026-0.064,0.054-0.096,0.082c-0.05,0.043-0.1,0.087-0.147,0.133c-0.031,0.03-0.061,0.062-0.091,0.093   c-0.044,0.046-0.086,0.093-0.127,0.142c-0.028,0.033-0.055,0.067-0.082,0.101c-0.039,0.05-0.075,0.101-0.11,0.152   c-0.024,0.035-0.048,0.07-0.07,0.105c-0.034,0.055-0.065,0.111-0.096,0.167c-0.019,0.034-0.038,0.068-0.055,0.103   c-0.031,0.063-0.059,0.127-0.085,0.192c-0.012,0.03-0.026,0.059-0.038,0.089c-0.035,0.094-0.067,0.19-0.092,0.286   c0,0.001-0.001,0.002-0.001,0.002l0,0c-0.17,0.641-0.121,1.322,0.186,1.925c0.37,0.906,1.173,1.41,2.155,1.549   c1.388,0.936,3.751,0.92,5.997-0.221c2.247-1.142,3.652-3.042,3.714-4.715c0.504-0.803,0.606-1.858,0.164-2.728   C79.702,70.29,77.881,69.757,76.359,70.531z"></path><path fill="#000000" d="M95.158,75.107c-0.073-0.905-0.712-1.765-1.645-2.031c-0.795-0.306-1.531-0.775-2.205-1.369   c-0.606-13.168-11.306-34.083-13.975-39.111c-0.02-0.066-0.042-0.133-0.068-0.198c-0.111-0.278-2.801-6.886-9.108-12.725   C62.28,14.23,52.066,8.47,36.783,11.936c-8.095,1.836-14.498,6.076-18.029,11.939c-2.716,4.51-3.552,9.768-2.294,14.425   c1.169,4.328,3.647,7.564,7.168,9.357c1.892,0.964,4.015,1.449,6.193,1.449c1.828,0,3.695-0.342,5.497-1.03   c2.986-1.139,5.208-3.236,6.424-6.064c1.614-3.752,1.337-8.627-0.781-13.727c-0.481-1.158-1.809-1.706-2.967-1.225   c-1.157,0.481-1.706,1.809-1.225,2.967c1.644,3.957,1.929,7.576,0.804,10.192c-0.731,1.698-2.034,2.915-3.873,3.617   c-2.751,1.05-5.671,0.969-8.011-0.223c-2.346-1.195-4.021-3.442-4.847-6.497c-0.937-3.47-0.281-7.443,1.801-10.9   c2.887-4.795,8.265-8.294,15.144-9.854c10.66-2.417,19.799-0.222,27.165,6.527c2.372,2.173,4.18,4.498,5.481,6.464   c-3.675-1.046-7.811-0.467-11.087,1.216c-0.411,0.192-0.802,0.397-0.802,0.397c-4.348,1.674-7.546,4.877-9.79,9.674   c-1.86,3.978-2.215,8.09-1.477,12c0.001,0.721,0.046,1.322,0.119,1.844C42.96,55.751,31.448,58.2,15.574,55.41   c-0.226-0.409-0.422-0.827-0.574-1.255c0.21-0.687-0.213-1.267-0.768-1.662c-0.74-0.527-1.809-0.592-2.613-0.049   c-0.74-0.527-1.426-0.737-1.624-0.46c-0.132,0.185,0.199,0.699,0.846,1.16c-0.066,0.092-0.132,0.185-0.132,0.185   c-0.198,0.277-0.369,0.713-0.408,0.964c-0.818-0.025-1.425,0.239-1.913,0.728c-0.74-0.527-1.519-0.803-1.716-0.526   c-0.132,0.185,0.384,0.831,1.058,1.45c-0.303,0.621-0.355,1.281-0.248,1.914c-0.29,0.212-0.58,0.423-0.778,0.7   c-0.066,0.092-0.132,0.185-0.132,0.185c-0.555-0.395-1.149-0.54-1.281-0.355s0.291,0.765,0.965,1.385   c-0.157,1.003,0.161,1.927,0.901,2.454s1.809,0.592,2.613,0.05c0.246-0.135,0.504-0.248,0.767-0.352   c3.084,1.709,15.02,4.348,26.258,4.79c-0.984,1.593-1.467,3.372-1.289,5.198c0.067,0.684,0.247,1.357,0.417,1.915   c-1.807,2.707-3.062,7.547-1.925,8.586c1.126,0.926,5.563-0.772,8.132-2.747c2.276,0.929,4.964,1.358,7.814,1.08   c2.849-0.277,5.404-1.216,7.459-2.567c2.902,1.443,7.583,2.253,8.509,1.128c0.812-1.115-1.341-5.507-3.534-7.94   c0.161-0.706,0.095-1.39,0.028-2.074c-0.029-0.302-0.079-0.599-0.143-0.891c0.108-0.097,0.215-0.191,0.321-0.281l5.103,7.043   c0.344-0.802,0.973-1.506,1.834-1.944c0.299-0.152,0.621-0.264,0.96-0.335c0.313-0.899,0.984-1.656,1.896-2.119   c0.525-0.267,1.128-0.408,1.742-0.408c0.36,0,0.723,0.048,1.07,0.141c0.249-0.227,0.521-0.416,0.81-0.567   c-0.929-2.464-2.229-7.181-2.665-8.789c1.477-1.263,2.788-2.775,3.858-4.498c5.218,3.94,7.103,10.713,7.782,14.874   c-0.217,1.007-0.555,1.953-1.043,2.786c-0.661,0.281-0.832,0.979-0.777,1.658c0.073,0.905,0.712,1.765,1.645,2.031   c0.073,0.905,0.354,1.566,0.694,1.539c0.226-0.018,0.407-0.602,0.343-1.395c0.113-0.009,0.226-0.018,0.226-0.018   c0.339-0.027,0.783-0.177,1-0.309c0.508,0.642,1.101,0.936,1.789,0.994c0.073,0.905,0.364,1.679,0.703,1.652   c0.226-0.018,0.389-0.829,0.429-1.743c0.67-0.168,1.208-0.553,1.624-1.043c0.349,0.086,0.697,0.171,1.037,0.144   c0.113-0.009,0.226-0.018,0.226-0.018c0.055,0.679,0.327,1.226,0.553,1.208c0.226-0.018,0.398-0.716,0.438-1.63   C94.73,76.85,95.231,76.012,95.158,75.107z M43.98,73.851c-1.938,0.189-3.689-1.252-3.877-3.189   c-0.189-1.938,1.252-3.689,3.189-3.877c1.938-0.189,3.689,1.252,3.877,3.189C47.357,71.911,45.917,73.662,43.98,73.851z    M48.468,65.59c-3.305,0.322-1.648-1.565-0.166-1.71C49.783,63.736,51.762,65.155,48.468,65.59z M54.351,72.841   c-1.938,0.189-3.689-1.252-3.877-3.189c-0.189-1.938,1.252-3.689,3.189-3.877c1.938-0.189,3.689,1.252,3.877,3.189   C57.729,70.902,56.289,72.653,54.351,72.841z M58.243,47.369c-0.224,0.889-0.765,1.577-1.633,1.828   c-1.333,0.508-2.91-0.256-3.471-1.73c-0.134-0.351-0.197-0.728-0.191-1.132c-0.819-0.25-1.463-0.888-1.784-1.73   c-0.321-0.842-0.194-1.774,0.18-2.479c-0.274-0.297-0.478-0.621-0.612-0.972c-0.562-1.473,0.106-3.094,1.439-3.602   c0.842-0.321,1.801-0.124,2.489,0.417c1.53,0.22,3.137,1.696,3.966,3.871C59.455,44.015,59.238,46.186,58.243,47.369z"></path><ellipse transform="matrix(-0.0969 -0.9953 0.9953 -0.0969 -8.5934 128.5169)" fill="#000000" cx="54.01" cy="68.157" rx="1.832" ry="0.573"></ellipse><ellipse transform="matrix(-0.0969 -0.9953 0.9953 -0.0969 -21.1109 119.2001)" fill="#000000" cx="43.525" cy="69.178" rx="1.832" ry="0.573"></ellipse></g></svg>