<svg xmlns="http://www.w3.org/2000/svg" xmlns:xlink="http://www.w3.org/1999/xlink" version="1.1" x="0px" y="0px" viewBox="0 0 100 100" enable-background="new 0 0 100 100" xml:space="preserve"><path d="M31.575,78.346v1.416h5.668v-1.416H31.575z M67.01,79.762h-4.253v-2.834h-1.418v2.834H37.243v1.419h31.184v-2.835H67.01  V79.762z M61.339,67.007h-1.417v5.67h1.417V67.007z M58.505,65.589v1.418h1.417v-1.418H58.505z M67.01,65.589h-1.418v1.418h1.418  V65.589z M57.088,64.173v1.416h1.417v-1.416H57.088z M38.662,59.92h-1.418v4.253h1.418V59.92z M40.079,57.085h-1.417v2.835h1.417  V57.085z M65.592,76.928v1.418h1.418v-1.418H65.592z M64.175,67.007v9.921h1.417v-9.921H64.175z M59.922,75.512v-2.835h-1.417v2.835  h-1.417v1.416h4.251v-1.416H59.922z M52.835,62.755v1.418h4.253v-1.418H52.835z M48.583,61.339v1.416h4.251v-1.416H48.583z   M45.748,64.173h2.835v-1.418h-2.835V64.173z M41.497,55.667h1.417v-1.416h-1.417L41.497,55.667h-1.417v1.418h1.417V55.667z   M45.748,52.837h2.835V51.42h-2.835v1.413h-2.835v1.418h2.835V52.837z M51.418,50.002h-2.834v1.417h2.834V50.002z M54.253,47.167  h-1.416v-2.835h-1.418v2.835h1.417v1.417h-1.418v1.417h2.835V47.167z M55.67,51.42v-1.417h-1.417v1.417H55.67z M52.836,35.829v-5.67  h-1.418v5.67h-1.416v8.503h1.417v-8.503H52.836z M54.252,35.829h1.417v-1.417h1.418v-1.418h-1.418v-2.834h-1.416v-2.835h1.416  v-2.834h-1.417v2.834h-1.416v2.835h1.416V35.829z M58.504,32.993h1.418v-1.417h-1.418V32.993z M61.339,30.159h-1.417v1.417h1.417  V30.159z M62.757,25.906H61.34v4.252h1.417v-1.417h1.418v-1.417h-1.418V25.906z M71.261,27.324v-2.834h-1.417v1.417h-1.418v-2.834  h-1.415v2.834h-2.836v1.417h4.251v1.417h4.253v-1.417H71.261z M71.261,24.489h1.418v-2.835h-1.418V24.489z M75.514,25.906v-4.252  h-1.417v4.252H75.514z M74.097,21.654v-1.417h-1.418v1.417H74.097z M72.679,18.819h-1.418v1.418h1.418V18.819z M71.261,20.237  h-1.417v1.417h1.417V20.237z M69.844,21.654h-1.418v1.417h1.418V21.654z M75.514,25.906v2.835h-2.835v1.417h2.835v1.417h1.417v-5.67  H75.514z M78.349,34.411v4.252h-1.418v1.417h2.835v-5.67H78.349z M74.097,38.664h-1.418v5.668h1.418v-1.417h1.417v1.417h1.417  v-4.251h-2.834V38.664z M59.925,45.75h1.417v-1.417h1.418v1.417h1.418v-4.251h-2.836v-1.417h-1.417V45.75z M67.013,42.915v-2.834  h-1.418v2.834H67.013z M76.931,37.246h-2.834v1.418h2.834V37.246z M75.513,51.416h-2.834v1.417h2.834V51.42h2.834v-1.417h-2.834  V51.416z M59.922,52.833v1.418h7.086v11.337h1.417V54.251h4.254v-1.417L59.922,52.833z M78.347,50.002h1.418v-2.834h-1.418V50.002z   M61.342,38.664v1.417h4.253v-1.417H61.342z M72.836,50.002v-1.417h-1.417v1.417H72.836z M74.253,47.167h-1.417v1.417h1.417V47.167z   M67.166,47.167v1.417h1.417v-1.417H67.166z M71.419,47.167h-1.418v1.417h1.418V47.167z M70.001,50.002v-1.417h-1.418v1.417H70.001z   M79.766,40.081v7.086h1.418v-7.086H79.766z M76.931,31.576v2.835h1.418v-2.835H76.931z M55.669,30.159h1.418v-2.835h-1.418V30.159z   M57.087,27.324h1.417v-2.834h-1.417V27.324z M58.504,23.072v1.417h1.418v1.417h1.417v-4.252h-1.417v1.417H58.504z M58.504,21.654  h-1.417v1.417h1.417V21.654z M59.922,20.237h-1.418v1.417h1.418V20.237z M57.087,23.072h-1.418v1.417h1.418V23.072z M52.835,78.346  h4.253v-1.418h-4.253V78.346z M34.409,75.512v1.416h2.834V64.173h-1.417v11.339H34.409l0.001-1.418h-2.834v1.418H34.409z   M27.323,76.928v-1.416h-1.417v1.416H27.323l-0.001,1.418h4.253v-1.418H27.323z M27.323,71.259h1.417v-5.67h-1.417V71.259z   M21.653,65.589v5.67h1.417v-5.67H21.653z M24.488,61.339H23.07v4.25h1.418V61.339z M25.905,57.085h-1.417v4.254h1.417V57.085z   M18.819,49.998v4.253h1.417v-4.253H18.819z M31.576,51.416v-1.418h-1.418v1.418H31.576z M21.653,48.581h-1.417v1.417h1.417V48.581z   M30.158,49.998v-1.417H28.74v1.417H30.158z M28.74,47.164h-7.087v1.417h7.087V47.164z M32.993,61.339v-9.923h-1.417v9.923H32.993z   M21.653,55.667v1.418h2.835v-1.418H21.653z M20.236,54.251v1.416h1.417v-1.416H20.236z M28.74,65.589h1.417v-2.834H28.74V65.589z   M23.07,71.259v2.835h1.418v-2.835H23.07z M31.576,74.094v-1.417h-1.418v1.417H31.576z M30.158,72.677v-1.418H28.74v1.418H30.158z   M24.488,74.094v1.418h1.417v-1.418H24.488z M30.158,62.755h1.418v-1.416h-1.418V62.755z"></path></svg>