<svg xmlns="http://www.w3.org/2000/svg" xmlns:xlink="http://www.w3.org/1999/xlink" version="1.1" x="0px" y="0px" viewBox="0 0 100 100" style="enable-background:new 0 0 100 100;" xml:space="preserve"><style type="text/css">
	.st0{fill-rule:evenodd;clip-rule:evenodd;}
</style><g><path d="M55.4,75.5c-2,0-3.7-1.7-3.7-3.7c0,0,0,0,0,0c0,0,0,0,0,0v-0.4c0.8-0.3,1.5-0.9,1.7-1.7c1.7-0.5,2.8-2.1,2.6-3.8   c-0.2-1.8-1.8-3.3-3.7-3.3H49c-2.2,0-3.9,1.3-4.1,3.3c-0.2,1.8,0.9,3.4,2.6,3.8c0.3,0.8,0.9,1.5,1.8,1.7v0.4c0,0,0,0,0,0   c0,0,0,0,0,0c0,2-1.7,3.7-3.7,3.7c-0.7,0-1.2,0.5-1.2,1.2s0.5,1.2,1.2,1.2c2,0,3.8-1,4.9-2.5c1.1,1.5,2.9,2.5,4.9,2.5   c0.7,0,1.2-0.5,1.2-1.2S56.1,75.5,55.4,75.5z M48.3,67.4c-0.6-0.1-1-0.7-1-1.3c0.1-0.7,0.7-1.1,1.7-1.1h3.4c0.7,0,1.2,0.5,1.3,1.1   c0.1,0.6-0.4,1.2-1,1.3h0c-0.4,0.1-0.7,0.3-1,0.5v-0.9c0-0.7-0.5-1.2-1.2-1.2c-0.7,0-1.2,0.5-1.2,1.2V68   C49.1,67.7,48.7,67.5,48.3,67.4z M94.4,69.9c-3.9-3.9-8.9-6.5-14.2-7.5c2-4.2,3-8.9,3-13.7c0-1.5-0.1-3.1-0.3-4.7   c3.5-4.7,8.3-13.4,11.4-28.1l0.3-1.2l-1.2-0.2c-9.6-1.5-20.1,1.9-27.4,5.2c-4.9-2.6-10.4-3.9-16-3.9c-5,0.1-9.9,1.3-14.3,3.6   c-7.2-3.1-17.4-6.4-26.8-4.9l-1.2,0.2l0.3,1.2c2.9,13.6,7.2,22,10.4,26.7c-0.3,1.7-0.5,3.4-0.6,5.1c-0.1,5.1,0.9,10,3,14.5   c-5.7,0.9-10.9,3.5-15,7.7c-0.5,0.5-0.5,1.2,0,1.7c0.2,0.2,0.5,0.4,0.8,0.4s0.6-0.1,0.8-0.4c3.9-3.9,9-6.4,14.4-7.1   c0.5,0.9,1,1.7,1.6,2.6c-5.5,1.3-10.4,4.4-13.8,9c-0.4,0.5-0.3,1.3,0.3,1.7C10,78,10.2,78,10.5,78c0.4,0,0.7-0.2,1-0.5   c3.3-4.4,8-7.4,13.4-8.3c3,3.7,6.8,6.8,11.3,9c1,0.5,1.9,1.2,2.7,2.2c2.9,3.5,7.1,5.4,11.6,5.4c4.5,0,8.7-2,11.6-5.4   c0.8-1,1.7-1.7,2.7-2.2c4.4-2.1,8.1-5.2,11.1-8.9c5.1,1.1,9.6,4,12.7,8.2c0.2,0.3,0.6,0.5,1,0.5c0.2,0,0.5-0.1,0.7-0.2   c0.5-0.4,0.6-1.1,0.3-1.7c-3.3-4.4-7.9-7.5-13.1-8.9c0.6-0.9,1.1-1.7,1.6-2.6c5.2,0.8,9.9,3.2,13.7,7c0.2,0.2,0.5,0.4,0.8,0.4   s0.6-0.1,0.8-0.4C94.9,71.1,94.9,70.4,94.4,69.9z M24.3,64.3c0.2,0,0.4,0,0.6,0c5.5,0,10.8,1.8,15.1,5.1c-4.3-2.4-9.3-3.3-14.2-2.8   C25.3,65.9,24.8,65.1,24.3,64.3z M63.7,76.1c-1.3,0.6-2.4,1.6-3.5,2.8c-2.4,2.9-6,4.6-9.7,4.6c-3.8,0-7.3-1.7-9.7-4.6   c-1.1-1.3-2.2-2.2-3.5-2.8c-3.7-1.8-6.8-4.2-9.4-7.2c4.4-0.2,8.7,0.9,12.4,3.3c0.6,0.4,1.3,0.2,1.7-0.4c0.2-0.4,0.2-0.8,0-1.2   c0.4,0.1,0.9,0,1.2-0.4c0.4-0.5,0.4-1.3-0.1-1.7c-5-4.3-11.4-6.7-18-6.7c-0.6,0-1.3,0-1.9,0.1c-2.1-4.3-3.2-9.2-3.1-14.1   c0-1.7,0.3-3.5,0.6-5.2l0.1-0.5l-0.3-0.4c-3-4.3-7.1-12.1-10-24.9c12.7-1,25.6,13.2,25.7,13.3c0.2,0.3,0.6,0.4,0.9,0.4   c0.3,0,0.6-0.1,0.8-0.3c0.5-0.4,0.5-1.2,0.1-1.7c-0.4-0.4-5.6-6.2-12.9-10.2c3.7,1,7.2,2.4,10.1,3.7l0.5,0.2l0.5-0.3   c4.3-2.3,8.9-3.5,13.7-3.6c5.3-0.1,10.6,1.2,15.3,3.8l0.5,0.3l0.6-0.3c3.1-1.4,6.8-2.9,10.8-3.9c-7.3,4.1-12.5,9.8-12.9,10.2   c-0.4,0.5-0.4,1.3,0.1,1.7c0.2,0.2,0.5,0.3,0.8,0.3c0.3,0,0.7-0.1,0.9-0.4c0.1-0.1,13-14.3,25.7-13.3C88.5,30.6,84,38.6,80.7,43   l-0.3,0.4l0.1,0.5c0.3,1.6,0.4,3.2,0.4,4.8c0,4.7-1.1,9.3-3.1,13.3c-0.9-0.1-1.8-0.1-2.7-0.1c-6.6,0-13,2.4-18,6.7   c-0.5,0.4-0.6,1.2-0.1,1.7c0.3,0.4,0.8,0.5,1.2,0.4c-0.2,0.4-0.2,0.8,0,1.2c0.4,0.6,1.1,0.7,1.7,0.4c4-2.5,8.6-3.6,13.2-3.2   C70.5,71.8,67.3,74.3,63.7,76.1z M74.9,66.7C74.9,66.7,74.9,66.7,74.9,66.7c-5.2-0.8-10.5,0.2-15,2.7c4.3-3.3,9.6-5.1,15.1-5.1   c0.5,0,1,0,1.5,0.1C76,65.2,75.5,66,74.9,66.7z M42.8,53.1c0,1.4-1.1,2.5-2.5,2.5s-2.5-1.1-2.5-2.5c0-1.4,1.1-2.5,2.5-2.5   S42.8,51.8,42.8,53.1z M57,53.1c0-1.4,1.1-2.5,2.5-2.5s2.5,1.1,2.5,2.5c0,1.4-1.1,2.5-2.5,2.5S57,54.5,57,53.1z"></path></g></svg>