<svg xmlns="http://www.w3.org/2000/svg" xmlns:xlink="http://www.w3.org/1999/xlink" version="1.1" x="0px" y="0px" viewBox="0 0 100 100" enable-background="new 0 0 100 100" xml:space="preserve"><path fill="#000000" d="M99.349,44.486c-0.356-0.866-1.287-1.276-2.146-1.478c-1.298-0.305-2.678-0.272-3.997-0.173  c-1.674,0.132-3.334,0.406-4.977,0.744c-0.885,0.183-1.766,0.375-2.637,0.598c-0.407,0.11-0.818,0.21-1.213,0.351  c-0.241,0.082-1.061,0.329-1.235,0.337c-0.06,0,0.146-2.782,0.178-3.023c0.096-0.789,0.275-1.569,0.355-2.358  c0.132-1.354,0.429-2.554,1.031-3.781c1.208-2.463,3.396-4.565,6.129-5.181c0.694-0.155,1.774-0.342,2.186-1.008  c0.207-0.329,0.255-0.757,0.438-1.104c0.207-0.401,0.499-0.762,0.665-1.186c0.528-1.382-0.036-2.996-1.122-3.941  c-1.035-0.898-2.095-1.172-2.256-2.731c-0.115-1.149-1.543-1.807-2.446-2.263c-0.514-0.26-1.048-0.483-1.59-0.674  c0.208-0.913,0.322-1.839,0.565-2.747c0.107-0.388,0.145-2.216-0.433-2.375c-0.842-0.234-2.06,1.66-2.442,2.161  c-0.512,0.675-1.018,1.382-1.51,2.085c-0.218-0.079-0.429-0.173-0.625-0.315c-1.211-0.89-1.376-2.642-1.605-4.009  c-0.174-1.045-0.349-2.641-1.424-3.179c-1.249-0.621-1.847,0.853-2.302,1.814c-0.77,1.624-1.306,3.262-1.88,4.967  c-0.349,1.035-0.421,2.13-0.789,3.16c-1.295,3.626-3.702,6.682-5.13,10.234c-1.13,2.81-1.866,6.523-4.493,8.375  c-2.365,1.67-5.556,1.181-8.114,2.421c-7.554,3.667-13.783,8.944-17.835,16.36c-3.246,5.938-4.158,14.417-5.057,21.053  c-0.268,2.003-0.049,4.083-1.57,5.669c-1.528,1.593-6.19,2.239-8.289,2.317c-9.535,0.342-18.92-7.064-19.104-16.865  c-0.028-1.46,0.343-3.873-1.308-4.607c-1.514-0.67-2.445,1.428-2.672,2.581c-0.311,1.569-0.201,3.293-0.024,4.871  c0.385,3.485,1.543,7.156,3.6,10.021c1.596,2.226,3.749,4.421,6.07,5.88c9.163,5.77,21.053,2.472,31.134,2.612  c7.679,0.11,15.351,0.415,23.029,0.434c1.617,0.006,4.929,0.725,5.17-1.709c0.349-3.467-4.657-4.192-7.056-4.164  c-2.338,0.031-3.37-0.59-2.313-2.796c1.298-2.701,1.652-4.639,1.45-7.7c-0.063-0.953,0.628-3.616,1.716-5.56l1.031-1.491  c1.005-1.318,2.07-2.586,3.19-3.803c0.157,1.258,0.604,2.466,0.741,3.712c0.351,3.237,0.647,6.518,1.201,9.733  c0.687,3.999,2.469,8.14,5.079,11.236c1.264,1.501,2.887,2.701,4.931,2.478c1.83-0.201,2.308-1.404,1.824-3.17  c-0.632-2.299-2.391-4.178-3.462-6.258c-1.063-2.075-1.761-4.428-2.133-6.723c-0.745-4.579-0.152-9.41,1.837-13.609  c1.002-2.121,2.366-4.032,3.534-6.058c0.161-0.278,0.579-0.885,0.873-1.463l-0.003,0.008c0,0,0.006-0.008,0.006-0.014  c0.123-0.236,0.228-0.474,0.277-0.679c4.312-1.966,8.898-3.27,13.546-4.124c1.745-0.324,3.164-0.539,3.508-2.532  C99.531,45.395,99.521,44.92,99.349,44.486z M86.552,20.574c1.115,0.164,1.923,1.139,1.982,2.294  c-0.607-0.232-1.245-0.451-1.935-0.639c-0.834-0.219-1.636-0.37-2.398-0.47C84.687,20.93,85.598,20.433,86.552,20.574z"></path></svg>