<svg xmlns="http://www.w3.org/2000/svg" xmlns:xlink="http://www.w3.org/1999/xlink" version="1.1" x="0px" y="0px" viewBox="0 0 100 100" enable-background="new 0 0 100 100" xml:space="preserve"><path d="M79.98,56.587c-1.765-0.135-3.743,0.237-5.19,1.282c-1.539,1.113-2.723,2.747-3.512,4.458  c-0.56,1.214-0.983,2.521-1.315,3.815C67.67,75.07,59.802,80.19,48.375,80.19c-5.983,0-10.939-1.361-14.622-3.979  c2.474,0.253,5.46,0.475,8.463,0.475c14.219,0,17.44-5.056,17.639-9.297c0.17-3.616-1.34-6.35-3.083-8.282  c14.31-1.833,23.662-13.591,23.662-30.421c0.083-10.618-1.608-15.547-4.56-20.414c-0.549-0.905-1.752-1.314-2.704-0.799  c-4.553,2.356-8.384,5.964-10.934,10.265c-3.072-0.773-6.244-1.165-9.453-1.165s-6.382,0.391-9.453,1.165  c-2.555-4.31-6.397-7.923-10.969-10.283c-0.941-0.482-2.129-0.13-2.652,0.789c-2.962,4.876-4.66,9.804-4.577,20.458  c0,6.835,1.546,12.834,4.34,17.672c-6.185,3.671-11.966,11.489-11.966,19.828c0,14.433,15.829,26.174,35.285,26.174  c18.796,0,34.278-11.041,35.246-25.134C88.378,62.266,86.019,57.041,79.98,56.587z M28.13,28.68  c-0.073-9.424,1.232-13.843,3.685-18.108c4.139,2.341,7.537,5.851,9.632,9.968c0.22,0.432,0.734,0.644,1.194,0.499  c6.532-1.94,13.727-1.942,20.261-0.007c0.452,0.134,0.98-0.029,1.216-0.492c2.094-4.116,5.492-7.626,9.63-9.967  c2.452,4.265,3.759,8.683,3.686,18.115c0,16.556-9.906,27.68-24.651,27.68S28.13,45.243,28.13,28.68z M85.042,67.037  c-0.86,12.527-15.027,22.34-32.253,22.34c-17.802,0-32.285-10.396-32.285-23.174c0-7.199,5.235-14.181,10.603-17.32  c4.832,6.581,12.331,10.437,21.518,10.48c1.842,1.324,4.419,3.898,4.232,7.887c-0.249,5.321-8.1,6.438-14.642,6.438  c-5.314,0-10.633-0.728-12.904-1.039c-0.399-0.055-0.719-0.098-0.946-0.126c-0.399-0.045-0.778,0.142-0.98,0.482  c-0.203,0.341-0.185,0.769,0.046,1.092c4.247,5.95,11.489,9.095,20.944,9.095c12.716,0,21.872-6.094,24.494-16.302  c1.334-5.194,3.583-7.558,6.886-7.311C85.247,59.991,85.123,65.864,85.042,67.037z"></path><path d="M55.679,47.133c0,1.597-1.295,2.892-2.892,2.892s-2.892-1.295-2.892-2.892S55.679,45.536,55.679,47.133z"></path><circle cx="42.012" cy="40.937" r="3.333"></circle><circle cx="64.012" cy="40.937" r="3.333"></circle></svg>