<svg xmlns:xlink="http://www.w3.org/1999/xlink" xmlns="http://www.w3.org/2000/svg" stroke-width="0.501" stroke-linejoin="bevel" fill-rule="evenodd" version="1.1" overflow="visible" viewBox="0 0 232.5 232.5" x="0px" y="0px"><g fill="none" stroke="black" font-family="Times New Roman" font-size="16" transform="scale(1 -1)"><g transform="translate(0 -232.5)"><g><path d="M 101.283,11.618 L 96.514,14.92 L 91.434,17.113 C 80.398,22.173 71.02,28.373 63.166,35.609 C 55.484,32.413 48.049,28.432 40.832,23.741 C 39.444,22.839 37.585,23.233 36.682,24.622 C 35.78,26.01 36.174,27.869 37.563,28.772 C 44.339,33.177 51.329,36.997 58.55,40.161 C 56.456,42.375 54.487,44.672 52.639,47.052 C 41.795,45 31.324,42.017 21.251,38.039 C 19.711,37.431 17.967,38.187 17.359,39.728 C 16.751,41.268 17.507,43.012 19.048,43.62 C 28.636,47.406 38.554,50.316 48.778,52.407 C 47.171,54.809 45.675,57.284 44.285,59.832 C 32.907,59.945 21.481,60.806 10.029,62.946 C 8.401,63.25 7.326,64.818 7.631,66.445 C 7.935,68.073 9.503,69.148 11.13,68.843 C 21.141,66.973 31.174,66.109 41.246,65.882 C 29.248,91.902 27.281,124.646 32.571,161.992 C 32.612,162.279 32.694,162.558 32.814,162.821 C 34.554,166.619 37.592,168.966 41.351,170.228 L 43.265,170.668 L 44.145,174.266 C 47.711,186.996 54.577,199.389 69.094,210.735 C 70.271,211.655 71.948,211.568 73.023,210.532 C 84.175,199.783 92.328,188.261 95.216,175.72 L 95.683,172.925 L 118.658,172.507 L 141.633,172.925 L 142.1,175.72 C 144.988,188.261 153.141,199.783 164.294,210.532 C 165.369,211.568 167.046,211.655 168.223,210.735 C 182.739,199.389 189.605,186.996 193.171,174.266 L 194.051,170.668 L 195.965,170.228 C 199.724,168.966 202.763,166.619 204.503,162.821 C 204.623,162.558 204.705,162.279 204.746,161.992 C 210.123,124.019 208.025,90.847 195.524,64.649 C 206.188,64.811 216.809,65.664 227.406,67.643 C 229.033,67.948 230.601,66.873 230.905,65.245 C 231.21,63.618 230.135,62.05 228.507,61.746 C 216.43,59.489 204.383,58.655 192.392,58.62 C 191.026,56.199 189.562,53.845 187.996,51.559 C 198.842,49.447 209.349,46.423 219.488,42.42 C 221.029,41.812 221.785,40.068 221.177,38.528 C 220.569,36.987 218.825,36.231 217.285,36.839 C 206.636,41.044 195.542,44.138 184.033,46.195 C 182.243,43.946 180.342,41.771 178.328,39.674 C 186.139,36.376 193.679,32.313 200.973,27.572 C 202.362,26.669 202.756,24.81 201.854,23.422 C 200.951,22.033 199.092,21.639 197.704,22.541 C 189.944,27.584 181.932,31.808 173.633,35.116 C 165.884,28.094 156.679,22.062 145.886,17.115 L 140.802,14.92 L 136.033,11.618 C 130.735,8.552 125.17,7.144 118.867,7.373 C 118.796,7.375 118.727,7.38 118.658,7.387 C 118.589,7.38 118.52,7.375 118.45,7.373 C 112.147,7.144 106.581,8.552 101.283,11.618 Z M 119.084,13.37 C 125.88,13.123 131.587,15.143 137.492,19.906 C 137.72,20.091 137.975,20.241 138.247,20.351 C 149.523,24.928 159.128,30.663 167.19,37.479 C 165.703,37.977 164.206,38.447 162.7,38.887 C 161.11,39.351 160.197,41.018 160.661,42.607 C 161.125,44.197 162.792,45.11 164.381,44.646 C 167.026,43.873 169.641,43.015 172.227,42.073 C 173.94,43.758 175.572,45.501 177.122,47.299 C 175.878,47.474 174.63,47.638 173.378,47.791 C 171.734,47.991 170.562,49.488 170.762,51.132 C 170.962,52.776 172.459,53.948 174.103,53.748 C 176.563,53.448 179.007,53.105 181.436,52.719 C 182.852,54.651 184.189,56.64 185.447,58.685 C 183.051,58.735 180.657,58.813 178.266,58.913 C 176.611,58.982 175.324,60.381 175.393,62.035 C 175.462,63.69 176.861,64.977 178.515,64.908 C 181.95,64.764 185.38,64.668 188.806,64.634 C 200.383,87.032 203.601,115.366 200.329,148.518 L 198.871,160.598 L 197.91,162.104 C 196.525,163.705 194.364,164.755 191.163,165.2 C 189.911,165.374 188.902,166.314 188.641,167.55 C 186.137,179.373 181.26,190.801 169.836,201.478 L 166.553,204.28 L 164.064,201.755 C 154.335,191.333 148.31,180.717 147.159,169.661 C 147.002,168.154 145.745,167 144.23,166.972 L 127.44,166.666 C 127.031,166.469 126.571,166.363 126.087,166.372 L 118.658,166.507 L 111.23,166.372 C 110.745,166.363 110.285,166.469 109.877,166.666 L 93.087,166.972 C 91.572,167 90.315,168.154 90.158,169.661 C 89.006,180.717 82.981,191.333 73.252,201.755 L 70.763,204.28 L 67.48,201.478 C 56.056,190.801 51.179,179.373 48.676,167.55 C 48.415,166.314 47.406,165.374 46.154,165.2 C 42.952,164.755 40.791,163.705 39.406,162.104 L 38.445,160.598 L 36.989,148.531 C 33.78,115.982 36.843,88.045 47.939,65.821 C 51.959,65.836 55.986,65.939 60.021,66.108 C 61.675,66.177 63.074,64.89 63.143,63.235 C 63.212,61.581 61.925,60.182 60.27,60.113 C 57.249,59.987 54.224,59.896 51.196,59.851 C 52.467,57.713 53.822,55.634 55.261,53.617 C 58.293,54.129 61.35,54.572 64.433,54.948 C 66.077,55.148 67.574,53.976 67.774,52.332 C 67.974,50.688 66.802,49.191 65.158,48.991 C 63.243,48.758 61.339,48.498 59.446,48.211 C 61.06,46.286 62.764,44.423 64.56,42.622 C 67.714,43.822 70.911,44.899 74.155,45.846 C 75.744,46.31 77.411,45.397 77.875,43.807 C 78.339,42.218 77.426,40.551 75.836,40.087 C 73.701,39.463 71.586,38.781 69.489,38.04 C 77.681,30.974 87.495,25.049 99.07,20.351 C 99.342,20.241 99.597,20.091 99.825,19.906 C 105.73,15.143 111.437,13.123 118.233,13.37 C 118.377,13.375 118.519,13.37 118.658,13.355 C 118.797,13.37 118.939,13.375 119.084,13.37 Z M 109.884,38.893 C 108.328,39.46 107.525,41.183 108.091,42.739 C 108.658,44.295 110.381,45.098 111.937,44.532 C 114.094,43.746 116.301,43.346 118.568,43.292 C 120.84,43.238 123.196,43.53 125.641,44.151 C 127.246,44.559 128.879,43.587 129.287,41.982 C 129.695,40.377 128.723,38.744 127.118,38.336 C 124.217,37.599 121.314,37.225 118.425,37.294 C 115.532,37.363 112.677,37.877 109.884,38.893 Z M 112.899,55.263 L 112.689,55.52 C 112.595,55.629 112.21,56.006 111.435,56.68 C 110.714,57.307 109.774,58.092 108.67,58.996 C 106.465,60.801 103.67,63.024 100.796,65.303 C 98.945,66.769 99.444,69.712 101.674,70.487 C 105.814,71.926 111.64,72.46 117.494,72.364 C 123.417,72.267 129.714,71.519 134.928,70.19 C 137.611,69.506 138.005,65.838 135.53,64.6 C 130.279,61.973 126.853,59.691 123.471,55.44 C 122.691,54.46 121.383,54.068 120.193,54.457 C 119.836,54.573 119.095,54.692 118.165,54.697 C 117.244,54.702 116.443,54.594 115.97,54.448 C 114.862,54.107 113.672,54.437 112.899,55.263 Z M 119.245,60.659 L 119.959,60.586 L 120.334,61.015 C 121.905,62.749 123.516,64.185 125.235,65.455 L 125.712,65.787 L 123.675,66.01 C 121.593,66.21 119.475,66.33 117.396,66.365 C 114.592,66.411 111.941,66.298 109.598,66.037 L 109.518,66.026 L 109.725,65.861 C 110.703,65.076 111.628,64.328 112.471,63.639 C 113.593,62.72 114.586,61.891 115.374,61.206 C 115.554,61.049 115.733,60.891 115.908,60.734 L 116.09,60.573 C 117.123,60.704 118.211,60.73 119.245,60.659 Z M 46.295,115.933 L 45.731,119.924 L 49.716,119.318 C 75.24,115.442 89.761,102.495 101.213,87.541 L 101.744,86.847 L 101.82,85.977 C 102.173,81.921 100.195,79.323 97.768,77.668 L 97.157,77.252 L 96.423,77.166 C 62.7,73.258 49.214,95.269 46.295,115.933 Z M 143.921,79.036 L 143.187,79.122 L 142.576,79.538 C 140.129,81.207 138.173,83.81 138.524,87.847 L 138.6,88.717 L 139.131,89.411 C 150.59,104.373 165.099,117.311 190.628,121.188 L 194.613,121.794 L 194.049,117.803 C 191.141,97.217 177.704,75.121 143.921,79.036 Z M 93,82.868 L 94.925,83.05 L 95.096,83.186 C 95.491,83.567 95.732,83.979 95.821,84.525 L 95.825,84.664 L 92.252,89.08 C 90.128,91.551 87.89,93.917 85.489,96.142 C 85.311,94.388 84.952,92.644 84.421,90.913 L 84.241,90.326 L 83.844,89.856 C 83.674,89.655 83.481,89.447 83.266,89.248 C 82.961,88.964 82.561,88.652 82.063,88.41 C 81.55,88.162 80.904,87.974 80.164,88.002 C 79.413,88.031 78.739,88.276 78.181,88.635 C 77.646,88.98 77.24,89.411 76.933,89.82 C 76.455,90.456 76.087,91.212 75.786,91.987 L 75.697,92.218 L 75.647,92.459 C 74.882,96.129 74.486,99.941 74.928,103.832 L 74.966,104.168 C 68.831,107.93 61.693,110.858 53.105,112.622 L 52.966,112.647 C 56.488,96.267 67.461,81.004 93,82.868 Z M 186.716,111.791 L 187.357,114.514 L 187.237,114.492 C 178.647,112.728 171.51,109.801 165.377,106.041 L 165.416,105.702 C 165.858,101.811 165.462,97.999 164.697,94.329 L 164.647,94.088 L 164.558,93.857 C 164.257,93.08 163.89,92.327 163.411,91.69 C 163.104,91.281 162.698,90.85 162.163,90.505 C 161.604,90.146 160.93,89.901 160.18,89.872 C 159.44,89.844 158.794,90.032 158.281,90.28 C 157.783,90.522 157.383,90.834 157.078,91.118 C 156.863,91.317 156.67,91.525 156.5,91.726 L 156.103,92.196 L 155.923,92.783 C 155.391,94.514 155.032,96.259 154.854,98.014 C 152.454,95.789 150.216,93.423 148.093,90.952 L 144.517,86.532 L 144.519,86.408 C 144.605,85.867 144.84,85.453 145.238,85.066 L 145.42,84.92 L 144.612,84.997 C 144.888,84.964 145.163,84.934 145.438,84.906 C 170.913,82.274 182.488,96.134 186.716,111.791 Z M 52.986,112.644 L 52.826,113.323 C 52.871,113.097 52.918,112.872 52.966,112.647 L 52.986,112.644 Z M 114.941,120.72 L 114.941,147.746 C 114.941,149.401 116.285,150.746 117.941,150.746 C 119.596,150.746 120.941,149.401 120.941,147.746 L 120.941,120.72 C 120.941,119.064 119.596,117.72 117.941,117.72 C 116.285,117.72 114.941,119.064 114.941,120.72 Z M 103.841,129.368 L 103.841,150.581 C 103.841,152.236 105.185,153.581 106.841,153.581 C 108.496,153.581 109.841,152.236 109.841,150.581 L 109.841,129.368 C 109.841,127.712 108.496,126.368 106.841,126.368 C 105.185,126.368 103.841,127.712 103.841,129.368 Z M 126.041,130.181 L 126.041,150.581 C 126.041,152.236 127.385,153.581 129.041,153.581 C 130.696,153.581 132.041,152.236 132.041,150.581 L 132.041,130.181 C 132.041,128.525 130.696,127.181 129.041,127.181 C 127.385,127.181 126.041,128.525 126.041,130.181 Z M 157.477,165.87 L 157.203,165.953 C 156.129,166.347 155.497,167.218 155.224,167.944 C 154.96,168.646 154.958,169.316 154.978,169.713 C 155.047,171.084 155.651,172.913 156.258,174.484 C 156.933,176.235 157.834,178.226 158.808,180.158 C 159.782,182.089 160.855,184.012 161.888,185.615 C 162.829,187.076 163.975,188.666 165.165,189.563 C 165.843,190.073 166.878,190.609 168.065,190.468 L 168.592,190.355 L 168.637,190.352 C 169.435,190.19 170.039,189.799 170.356,189.574 C 172.4,188.114 174.809,184.199 176.384,181.199 C 177.838,178.429 179.866,173.998 179.796,171.24 C 179.775,170.4 179.546,168.673 177.868,167.715 L 177.704,167.622 L 177.53,167.55 C 168.563,163.834 162.463,164.464 157.477,165.87 Z M 60.074,167.592 L 59.9,167.664 L 59.736,167.757 C 58.045,168.722 57.829,170.468 57.808,171.282 C 57.738,174.024 59.743,178.428 61.22,181.241 C 62.779,184.211 65.193,188.149 67.248,189.616 C 67.564,189.841 68.168,190.232 68.966,190.394 L 69.008,190.397 L 69.548,190.512 C 70.744,190.649 71.778,190.102 72.439,189.605 C 73.62,188.714 74.791,187.093 75.716,185.657 C 76.749,184.054 77.822,182.131 78.796,180.2 C 79.77,178.268 80.671,176.277 81.346,174.526 C 81.963,172.927 82.557,171.136 82.626,169.755 C 82.646,169.358 82.644,168.688 82.38,167.986 C 82.1,167.245 81.462,166.383 80.395,165.993 L 80.126,165.91 C 75.141,164.506 69.035,163.878 60.074,167.592 Z M 172.52,172.084 L 173.593,172.459 L 173.579,172.511 C 173.475,172.887 173.325,173.357 173.115,173.924 C 172.613,175.273 171.892,176.847 171.072,178.41 C 170.252,179.97 169.365,181.46 168.548,182.646 C 168.323,182.971 168.117,183.254 167.931,183.496 L 167.813,183.647 L 167.615,183.376 C 167.41,183.089 167.182,182.753 166.932,182.365 C 166.041,180.984 165.071,179.253 164.165,177.457 C 163.26,175.662 162.446,173.853 161.855,172.323 C 161.765,172.09 161.684,171.873 161.611,171.672 L 161.415,171.112 L 160.585,171.266 C 160.855,171.205 161.13,171.149 161.41,171.097 C 164.313,170.563 167.803,170.542 172.52,172.084 Z M 75.427,171.014 L 76.187,171.155 C 76.071,171.5 75.927,171.902 75.749,172.365 C 75.158,173.895 74.344,175.704 73.439,177.499 C 72.533,179.295 71.563,181.026 70.672,182.407 C 70.427,182.787 70.202,183.118 69.999,183.403 L 69.789,183.69 L 69.678,183.548 C 69.492,183.304 69.284,183.019 69.056,182.688 C 68.239,181.502 67.352,180.012 66.532,178.452 C 65.712,176.889 64.991,175.315 64.489,173.966 C 64.282,173.409 64.133,172.943 64.028,172.568 L 64.01,172.501 L 63.758,172.589 C 63.842,172.557 63.926,172.526 64.009,172.496 C 68.85,170.738 72.452,170.581 75.427,171.014 Z" fill="#000000" fill-rule="evenodd" stroke-width="0.5" stroke="none" marker-start="none" marker-end="none" stroke-miterlimit="79.8403193612775"></path></g></g></g></svg>