<?xml version="1.0" encoding="iso-8859-1"?>
<!-- Generator: Adobe Illustrator 19.0.0, SVG Export Plug-In . SVG Version: 6.00 Build 0)  -->
<svg version="1.1" id="Layer_1" xmlns="http://www.w3.org/2000/svg" xmlns:xlink="http://www.w3.org/1999/xlink" x="0px" y="0px"
	 viewBox="0 0 512 512" style="enable-background:new 0 0 512 512;" xml:space="preserve">
<path style="fill:#606ED5;" d="M353.987,137.169l-32.569-52.924c-4.436,1.526-8.955,2.308-13.004,1.834
	c-1.677-0.196-3.277-0.266-4.965-0.276c-1.893-0.012-3.671-0.348-5.485-0.585l11.002,82.515l19.137,4.783
	c9.699,2.425,19.875-1.509,25.421-9.827C358.647,155.003,358.828,145.037,353.987,137.169z"/>
<path style="fill:#6C91E8;" d="M307.133,101.484l40.453,25.284l-48.519-78.844c-4.82-7.832-13.358-12.603-22.554-12.603h-27.96
	c-16.337,0-30.542,11.208-34.341,27.098l-90.623,378.966h264.824L307.133,101.484z"/>
<path style="fill:#86ABFF;" d="M353.103,423.73L284.585,81.139c-1.087-5.437,3.071-10.508,8.615-10.508l0,0
	c4.068,0,7.604,2.793,8.546,6.75l86.667,364.004L353.103,423.73z"/>
<path style="fill:#606ED5;" d="M246.142,50.141c1.389-8.544,8.769-14.82,17.425-14.82h-15.016
	c-16.337,0-30.542,11.208-34.342,27.098l-90.621,378.966h36.571l25.221-17.655L246.142,50.141z"/>
<path style="fill:#FFC83C;" d="M377.185,378.813c-0.221-0.882-0.93-1.555-1.821-1.733c-0.006-0.001-0.01-0.002-0.015-0.003
	c-35.439-7.091-75.611-15.125-119.347-15.125s-83.908,8.034-119.347,15.125c-0.006,0.001-0.01,0.002-0.015,0.003
	c-0.89,0.179-1.6,0.852-1.821,1.733l-17.85,71.399h37.423c32.142-6.356,65.438-12.289,101.61-12.289s69.468,5.933,101.61,12.289
	h37.423L377.185,378.813z"/>
<path style="fill:#FFB432;" d="M136.654,377.077c-0.006,0.001-0.01,0.002-0.015,0.003c-0.89,0.179-1.6,0.852-1.821,1.733
	l-16.678,66.714l42.021-4.142l25.221-17.655l9.281-57.063C174.196,369.587,154.796,373.447,136.654,377.077z"/>
<path style="fill:#425ABC;" d="M456.804,476.673c-28.275,0-57.767-5.901-88.378-12.022c-35.491-7.099-72.184-14.44-112.426-14.44
	s-76.935,7.34-112.426,14.44c-46.202,9.246-89.853,17.987-130.628,6.677C3.55,468.729-1.959,459,0.646,449.603
	c2.599-9.397,12.328-14.918,21.724-12.301c32.664,9.043,70.486,1.479,114.283-7.276c35.439-7.091,75.611-15.125,119.347-15.125
	s83.908,8.034,119.347,15.125c43.793,8.759,81.62,16.323,114.283,7.276c9.413-2.616,19.125,2.905,21.724,12.301
	c2.603,9.397-2.905,19.125-12.301,21.724C485.296,475.139,471.205,476.673,456.804,476.673z"/>
<path style="fill:#606ED5;" d="M489.631,437.302c-32.664,9.047-70.491,1.483-114.283-7.276
	c-35.439-7.091-75.611-15.125-119.347-15.125s-83.908,8.034-119.347,15.125c-43.796,8.755-81.62,16.319-114.283,7.276
	c-7.924-2.207-16.033,1.416-19.953,8.227c2.237,3.845,5.906,6.863,10.531,8.143c40.775,11.31,84.426,2.569,130.628-6.677
	c35.491-7.099,72.184-14.44,112.426-14.44c40.241,0,76.935,7.34,112.426,14.44c30.611,6.121,60.103,12.022,88.378,12.022
	c14.401,0,28.491-1.535,42.249-5.345c4.627-1.28,8.296-4.298,10.532-8.143C505.667,438.719,497.57,435.096,489.631,437.302z"/>
<g>
</g>
<g>
</g>
<g>
</g>
<g>
</g>
<g>
</g>
<g>
</g>
<g>
</g>
<g>
</g>
<g>
</g>
<g>
</g>
<g>
</g>
<g>
</g>
<g>
</g>
<g>
</g>
<g>
</g>
</svg>
