<?xml version="1.0" encoding="iso-8859-1"?>
<!-- Generator: Adobe Illustrator 19.0.0, SVG Export Plug-In . SVG Version: 6.00 Build 0)  -->
<svg version="1.1" id="Layer_1" xmlns="http://www.w3.org/2000/svg" xmlns:xlink="http://www.w3.org/1999/xlink" x="0px" y="0px"
	 viewBox="0 0 512 512" style="enable-background:new 0 0 512 512;" xml:space="preserve">
<path style="fill:#FFB432;" d="M194.207,485.517c9.564-11.034,35.31-37.517,35.31-167.724H256v167.724H194.207z"/>
<g>
	<path style="fill:#FFC83C;" d="M317.793,485.517c-9.564-11.034-35.31-37.517-35.31-167.724H256v167.724H317.793z"/>
	<rect x="167.724" y="17.655" style="fill:#FFC83C;" width="176.552" height="35.31"/>
</g>
<path style="fill:#FFB432;" d="M97.103,52.966L97.103,52.966c0-14.626-3.31-20.598-8.828-26.483V8.828h79.448v44.138H97.103z"/>
<path style="fill:#FFE159;" d="M414.897,52.966L414.897,52.966c0-14.626,3.31-20.598,8.828-26.483V8.828h-79.448v44.138H414.897z"/>
<path style="fill:#FFC83C;" d="M97.103,114.759v52.966c0,87.756,71.14,158.897,158.897,158.897s158.897-71.14,158.897-158.897
	v-52.966H97.103z"/>
<rect x="97.103" y="70.621" style="fill:#EBB459;" width="317.793" height="52.966"/>
<rect x="344.276" y="70.621" style="fill:#F3BE69;" width="70.621" height="52.966"/>
<g>
	<rect x="97.103" y="70.621" style="fill:#E6AB47;" width="70.621" height="52.966"/>
	<path style="fill:#E6AB47;" d="M414.897,70.621H97.103c-4.875,0-8.828-3.953-8.828-8.828l0,0c0-4.875,3.953-8.828,8.828-8.828
		h317.793c4.875,0,8.828,3.953,8.828,8.828l0,0C423.724,66.668,419.772,70.621,414.897,70.621z"/>
	<path style="fill:#E6AB47;" d="M414.897,141.241H97.103c-4.875,0-8.828-3.953-8.828-8.828l0,0c0-4.875,3.953-8.828,8.828-8.828
		h317.793c4.875,0,8.828,3.953,8.828,8.828l0,0C423.724,137.289,419.772,141.241,414.897,141.241z"/>
</g>
<g>
	<circle style="fill:#FF5A4E;" cx="256" cy="97.103" r="8.828"/>
	<circle style="fill:#FF5A4E;" cx="291.31" cy="97.103" r="8.828"/>
	<circle style="fill:#FF5A4E;" cx="220.69" cy="97.103" r="8.828"/>
</g>
<g>
	<circle style="fill:#FF7973;" cx="361.931" cy="97.103" r="8.828"/>
	<circle style="fill:#FF7973;" cx="397.241" cy="97.103" r="8.828"/>
</g>
<circle style="fill:#FF5A4E;" cx="326.621" cy="97.103" r="8.828"/>
<circle style="fill:#F8392E;" cx="150.069" cy="97.103" r="8.828"/>
<circle style="fill:#FF5A4E;" cx="185.379" cy="97.103" r="8.828"/>
<circle style="fill:#F8392E;" cx="114.759" cy="97.103" r="8.828"/>
<path style="fill:#DB8C45;" d="M203.034,70.621H97.103c-4.875,0-8.828-3.953-8.828-8.828l0,0c0-4.875,3.953-8.828,8.828-8.828
	h105.931c4.875,0,8.828,3.953,8.828,8.828l0,0C211.862,66.668,207.91,70.621,203.034,70.621z"/>
<path style="fill:#EBB459;" d="M379.586,70.621h-35.31c-4.875,0-8.828-3.953-8.828-8.828l0,0c0-4.875,3.953-8.828,8.828-8.828h35.31
	c4.875,0,8.828,3.953,8.828,8.828l0,0C388.414,66.668,384.461,70.621,379.586,70.621z"/>
<path style="fill:#FFE159;" d="M428.138,26.483H83.862c-7.313,0-13.241-5.929-13.241-13.241l0,0C70.621,5.929,76.55,0,83.862,0
	h344.276c7.313,0,13.241,5.929,13.241,13.241l0,0C441.379,20.554,435.451,26.483,428.138,26.483z"/>
<path style="fill:#FFC83C;" d="M207.448,26.483H83.862c-7.313,0-13.241-5.929-13.241-13.241l0,0C70.621,5.929,76.55,0,83.862,0
	h123.586c7.313,0,13.241,5.929,13.241,13.241l0,0C220.69,20.554,214.761,26.483,207.448,26.483z"/>
<path style="fill:#FFFF95;" d="M401.655,26.483H348.69c-7.313,0-13.241-5.929-13.241-13.241l0,0C335.448,5.929,341.377,0,348.69,0
	h52.966c7.313,0,13.241,5.929,13.241,13.241l0,0C414.897,20.554,408.968,26.483,401.655,26.483z"/>
<path style="fill:#EBB459;" d="M379.586,141.241h-35.31c-4.875,0-8.828-3.953-8.828-8.828l0,0c0-4.875,3.953-8.828,8.828-8.828
	h35.31c4.875,0,8.828,3.953,8.828,8.828l0,0C388.414,137.289,384.461,141.241,379.586,141.241z"/>
<path style="fill:#FFB432;" d="M256,326.621c-80.919-33.839-88.276-155.219-88.276-185.379l-70.621-17.655v44.138
	C97.103,255.48,168.244,326.621,256,326.621z"/>
<path style="fill:#DB8C45;" d="M203.034,141.241H97.103c-4.875,0-8.828-3.953-8.828-8.828l0,0c0-4.875,3.953-8.828,8.828-8.828
	h105.931c4.875,0,8.828,3.953,8.828,8.828l0,0C211.862,137.289,207.91,141.241,203.034,141.241z"/>
<path style="fill:#FFE159;" d="M331.034,512H180.966c-7.313,0-13.241-5.929-13.241-13.241l0,0c0-7.313,5.929-13.241,13.241-13.241
	h150.069c7.313,0,13.241,5.929,13.241,13.241l0,0C344.276,506.071,338.347,512,331.034,512z"/>
<path style="fill:#FFC83C;" d="M251.586,512h-70.621c-7.313,0-13.241-5.929-13.241-13.241l0,0c0-7.313,5.929-13.241,13.241-13.241
	h70.621c7.313,0,13.241,5.929,13.241,13.241l0,0C264.828,506.071,258.899,512,251.586,512z"/>
<path style="fill:#E6AB47;" d="M278.069,370.759h-44.138c-7.313,0-13.241-5.929-13.241-13.241l0,0
	c0-7.313,5.929-13.241,13.241-13.241h44.138c7.313,0,13.241,5.929,13.241,13.241l0,0C291.31,364.83,285.382,370.759,278.069,370.759
	z"/>
<path style="fill:#DB8C45;" d="M251.586,370.759h-17.655c-7.313,0-13.241-5.929-13.241-13.241l0,0
	c0-7.313,5.929-13.241,13.241-13.241h17.655c7.313,0,13.241,5.929,13.241,13.241l0,0
	C264.828,364.83,258.899,370.759,251.586,370.759z"/>
<path style="fill:#FFE159;" d="M273.642,298.879c-4.319,0-8.095-3.172-8.724-7.569c-0.694-4.828,2.655-9.302,7.482-9.999
	c34.406-4.94,65.418-25.956,82.962-56.224c2.444-4.207,7.858-5.646,12.065-3.207c4.22,2.449,5.655,7.844,3.211,12.07
	c-20.233,34.897-56.018,59.138-95.729,64.845C274.483,298.854,274.06,298.879,273.642,298.879z"/>
<path style="fill:#FFFF95;" d="M376.742,203.034c-0.625,0-1.259-0.07-1.897-0.207c-4.759-1.035-7.776-5.741-6.737-10.508
	c1.758-8.034,2.65-16.31,2.65-24.595c0-4.879,3.953-8.828,8.828-8.828s8.828,3.948,8.828,8.828c0,9.551-1.031,19.095-3.057,28.371
	C384.452,200.224,380.802,203.034,376.742,203.034z"/>
<g>
</g>
<g>
</g>
<g>
</g>
<g>
</g>
<g>
</g>
<g>
</g>
<g>
</g>
<g>
</g>
<g>
</g>
<g>
</g>
<g>
</g>
<g>
</g>
<g>
</g>
<g>
</g>
<g>
</g>
</svg>
