<?xml version="1.0" encoding="iso-8859-1"?>
<!-- Generator: Adobe Illustrator 19.0.0, SVG Export Plug-In . SVG Version: 6.00 Build 0)  -->
<svg version="1.1" id="Layer_1" xmlns="http://www.w3.org/2000/svg" xmlns:xlink="http://www.w3.org/1999/xlink" x="0px" y="0px"
	 viewBox="0 0 512 512" style="enable-background:new 0 0 512 512;" xml:space="preserve">
<polygon style="fill:#EB443F;" points="282.483,52.966 229.517,52.966 222.896,6.621 242.758,31.38 256,6.621 269.241,31.172 
	289.103,6.621 "/>
<ellipse style="fill:#FF5A4E;" cx="256" cy="189.793" rx="123.586" ry="145.655"/>
<rect x="238.345" y="308.966" style="fill:#EB443F;" width="35.31" height="176.552"/>
<rect x="238.345" y="344.276" style="fill:#CF392E;" width="17.655" height="123.586"/>
<g>
	<circle style="fill:#FF5A4E;" cx="256" cy="326.621" r="26.483"/>
	<circle style="fill:#FF5A4E;" cx="256" cy="6.621" r="6.621"/>
	<circle style="fill:#FF5A4E;" cx="222.896" cy="6.621" r="6.621"/>
	<circle style="fill:#FF5A4E;" cx="289.103" cy="6.621" r="6.621"/>
</g>
<path style="fill:#EB443F;" d="M256,335.448c-4.875,0-8.828-3.953-8.828-8.828v-35.31c0-4.875,3.953-8.828,8.828-8.828
	s8.828,3.953,8.828,8.828v35.31C264.827,331.496,260.875,335.448,256,335.448z"/>
<ellipse style="fill:#78EFE5;" cx="256" cy="189.793" rx="97.103" ry="119.172"/>
<path style="fill:#EB443F;" d="M256,317.793c-58.41,0-105.931-57.422-105.931-128s47.521-128,105.931-128
	s105.931,57.422,105.931,128S314.41,317.793,256,317.793z M256,79.448c-48.676,0-88.276,49.5-88.276,110.345
	S207.323,300.138,256,300.138s88.276-49.5,88.276-110.345S304.676,79.448,256,79.448z"/>
<path style="fill:#FF5A4E;" d="M234.814,469.779c-4.324,5.768-6.414,13.291-4.694,21.4c2.19,10.324,10.816,18.65,21.22,20.423
	c16.682,2.844,31.143-9.932,31.143-26.084c0-5.931-2.004-11.358-5.312-15.759c-0.932-1.241-2.464-1.896-4.017-1.896h-34.282
	C237.304,467.862,235.754,468.524,234.814,469.779z"/>
<path style="fill:#EB443F;" d="M247.775,491.179c-1.72-8.11,0.369-15.634,4.694-21.401c0.94-1.255,2.49-1.916,4.058-1.916h-17.655
	c-1.567,0-3.118,0.662-4.058,1.916c-4.324,5.768-6.414,13.291-4.694,21.401c2.19,10.323,10.816,18.649,21.22,20.423
	c4.734,0.807,9.233,0.246,13.33-1.182C256.27,507.373,249.652,500.025,247.775,491.179z"/>
<path style="fill:#E6FBF9;" d="M280.957,132.431c-1.858,0-3.733-0.586-5.327-1.793c-6.164-4.682-12.767-7.052-19.629-7.052
	c-4.875,0-8.828-3.948-8.828-8.828c0-4.879,3.953-8.828,8.828-8.828c10.65,0,21.129,3.681,30.302,10.638
	c3.884,2.948,4.642,8.491,1.694,12.371C286.259,131.224,283.625,132.431,280.957,132.431z"/>
<path style="fill:#C1F7F2;" d="M290.121,256.009c-2.001,0-4.009-0.672-5.66-2.06c-3.742-3.129-4.233-8.69-1.108-12.431
	c10.668-12.75,16.785-31.595,16.785-51.724c0-9.87-1.44-19.371-4.276-28.233c-1.483-4.647,1.078-9.612,5.72-11.095
	c4.647-1.492,9.612,1.078,11.1,5.716c3.391,10.603,5.111,21.913,5.111,33.612c0,24.199-7.616,47.181-20.897,63.052
	C295.15,254.931,292.642,256.009,290.121,256.009z"/>
<g>
</g>
<g>
</g>
<g>
</g>
<g>
</g>
<g>
</g>
<g>
</g>
<g>
</g>
<g>
</g>
<g>
</g>
<g>
</g>
<g>
</g>
<g>
</g>
<g>
</g>
<g>
</g>
<g>
</g>
</svg>
