<?xml version="1.0" encoding="iso-8859-1"?>
<!-- Generator: Adobe Illustrator 19.0.0, SVG Export Plug-In . SVG Version: 6.00 Build 0)  -->
<svg version="1.1" id="Layer_1" xmlns="http://www.w3.org/2000/svg" xmlns:xlink="http://www.w3.org/1999/xlink" x="0px" y="0px"
	 viewBox="0 0 512 512" style="enable-background:new 0 0 512 512;" xml:space="preserve">
<g>
	<path style="fill:#90543E;" d="M414.897,35.31H97.103c-9.751,0-17.655-7.904-17.655-17.655l0,0C79.448,7.904,87.352,0,97.103,0
		h317.793c9.751,0,17.655,7.904,17.655,17.655l0,0C432.552,27.406,424.648,35.31,414.897,35.31z"/>
	<path style="fill:#90543E;" d="M97.103,476.69h317.793c9.751,0,17.655,7.904,17.655,17.655l0,0c0,9.751-7.904,17.655-17.655,17.655
		H97.103c-9.751,0-17.655-7.904-17.655-17.655l0,0C79.448,484.595,87.353,476.69,97.103,476.69z"/>
</g>
<path style="fill:#78EFE5;" d="M279.886,240.941l70.188-70.188c13.244-13.244,20.684-31.207,20.684-49.937V35.31H141.241v85.506
	c0,18.73,7.441,36.693,20.684,49.937l70.188,70.188c3.99,3.99,6.231,9.401,6.231,15.043v0.031c0,5.642-2.241,11.053-6.231,15.043
	l-70.188,70.188c-13.244,13.244-20.684,31.207-20.684,49.937v85.506h229.517v-85.506c0-18.73-7.441-36.693-20.684-49.937
	l-70.188-70.188c-3.99-3.99-6.231-9.401-6.231-15.043v-0.031C273.655,250.343,275.896,244.931,279.886,240.941z"/>
<path style="fill:#53DCDC;" d="M248.226,222.797l-26.112-52.225c-6.742-13.484-10.252-28.352-10.252-43.428V35.31h-70.621v85.506
	c0,18.73,7.441,36.692,20.684,49.937l70.188,70.188c3.99,3.99,6.231,9.401,6.231,15.043v0.031c0,5.643-2.241,11.054-6.231,15.043
	l-70.188,70.188c-13.244,13.244-20.684,31.207-20.684,49.937v85.506h70.621v-91.835c0-15.075,3.51-29.944,10.252-43.428
	l26.112-52.225C258.677,268.301,258.677,243.699,248.226,222.797z"/>
<g>
	<path style="fill:#FFC83C;" d="M256,255.985c0,0.006-0.001,0.01-0.001,0.015h0.003c0.004-10.423,4.052-20.194,11.401-27.542
		l51.906-51.906H192.693l51.906,51.906C251.95,235.81,256,245.587,256,255.985z"/>
	<path style="fill:#FFC83C;" d="M310.481,326.621h-108.96l-27.11,27.109c-10.005,10.005-15.514,23.306-15.514,37.453v67.851h194.207
		v-67.851c0-14.147-5.51-27.448-15.513-37.452L310.481,326.621z"/>
</g>
<g>
	<path style="fill:#FFB432;" d="M244.598,228.458C251.95,235.81,256,245.587,256,255.985c0,0.006-0.001,0.01-0.001,0.015h0.003
		c0-0.138,0.039-0.268,0.04-0.406c-0.062-11.241-2.652-22.47-7.816-32.797l-23.123-46.246h-32.412L244.598,228.458z"/>
	<path style="fill:#FFB432;" d="M211.862,384.855c0-15.075,3.51-29.944,10.252-43.427l7.403-14.807h-27.998l-27.11,27.109
		c-10.004,10.005-15.513,23.306-15.513,37.453v67.851h52.966V384.855z"/>
</g>
<path style="fill:#6C392C;" d="M211.862,35.31H97.103c-9.751,0-17.655-7.904-17.655-17.655l0,0C79.448,7.904,87.352,0,97.103,0
	h114.759c9.751,0,17.655,7.904,17.655,17.655l0,0C229.517,27.406,221.613,35.31,211.862,35.31z"/>
<g>
	<path style="fill:#AF744D;" d="M379.586,35.31h-52.966c-9.751,0-17.655-7.904-17.655-17.655l0,0C308.966,7.904,316.87,0,326.621,0
		h52.966c9.751,0,17.655,7.904,17.655,17.655l0,0C397.241,27.406,389.337,35.31,379.586,35.31z"/>
	<path style="fill:#AF744D;" d="M379.586,512h-52.966c-9.751,0-17.655-7.904-17.655-17.655l0,0c0-9.751,7.904-17.655,17.655-17.655
		h52.966c9.751,0,17.655,7.904,17.655,17.655l0,0C397.241,504.096,389.337,512,379.586,512z"/>
</g>
<path style="fill:#6C392C;" d="M211.862,512H97.103c-9.751,0-17.655-7.904-17.655-17.655l0,0c0-9.751,7.904-17.655,17.655-17.655
	h114.759c9.751,0,17.655,7.904,17.655,17.655l0,0C229.517,504.096,221.613,512,211.862,512z"/>
<rect x="97.103" y="35.31" style="fill:#90543E;" width="17.655" height="441.379"/>
<circle style="fill:#FFC83C;" cx="105.931" cy="256" r="17.655"/>
<g>
	<path style="fill:#6C392C;" d="M114.759,229.517H97.103c-4.855,0-8.828-3.972-8.828-8.828l0,0c0-4.855,3.972-8.828,8.828-8.828
		h17.655c4.855,0,8.828,3.972,8.828,8.828l0,0C123.586,225.545,119.614,229.517,114.759,229.517z"/>
	<path style="fill:#6C392C;" d="M114.759,300.138H97.103c-4.855,0-8.828-3.972-8.828-8.828l0,0c0-4.855,3.972-8.828,8.828-8.828
		h17.655c4.855,0,8.828,3.972,8.828,8.828l0,0C123.586,296.165,119.614,300.138,114.759,300.138z"/>
</g>
<rect x="388.414" y="35.31" style="fill:#90543E;" width="17.655" height="441.379"/>
<circle style="fill:#FFC83C;" cx="397.241" cy="256" r="17.655"/>
<g>
	<path style="fill:#6C392C;" d="M406.069,229.517h-17.655c-4.855,0-8.828-3.972-8.828-8.828l0,0c0-4.855,3.972-8.828,8.828-8.828
		h17.655c4.855,0,8.828,3.972,8.828,8.828l0,0C414.897,225.545,410.924,229.517,406.069,229.517z"/>
	<path style="fill:#6C392C;" d="M406.069,300.138h-17.655c-4.855,0-8.828-3.972-8.828-8.828l0,0c0-4.855,3.972-8.828,8.828-8.828
		h17.655c4.855,0,8.828,3.972,8.828,8.828l0,0C414.897,296.165,410.924,300.138,406.069,300.138z"/>
</g>
<path style="fill:#E6FBF9;" d="M335.448,97.103c-4.875,0-8.828-3.948-8.828-8.828V70.621c0-4.879,3.953-8.828,8.828-8.828
	s8.828,3.948,8.828,8.828v17.655C344.276,93.155,340.323,97.103,335.448,97.103z"/>
<path style="fill:#C1F7F2;" d="M311.996,167.724c-2.259,0-4.517-0.862-6.241-2.586c-3.448-3.448-3.448-9.035,0-12.483l13.112-13.112
	c5-5,7.754-11.656,7.754-18.724c0-4.879,3.953-8.828,8.828-8.828s8.828,3.948,8.828,8.828c0,11.785-4.59,22.862-12.922,31.207
	l-13.117,13.112C316.513,166.862,314.254,167.724,311.996,167.724z"/>
<path style="fill:#FFF4B6;" d="M335.448,441.379c-4.875,0-8.828-3.948-8.828-8.828v-17.655c0-4.879,3.953-8.828,8.828-8.828
	s8.828,3.948,8.828,8.828v17.655C344.276,437.431,340.323,441.379,335.448,441.379z"/>
<path style="fill:#C1F7F2;" d="M333.513,388.423c-3.659,0-7.078-2.293-8.341-5.94c-1.306-3.776-3.426-7.147-6.306-10.026
	l-48.423-48.423c-3.448-3.448-3.448-9.035,0-12.483s9.035-3.448,12.483,0l48.423,48.423c4.785,4.785,8.319,10.414,10.505,16.733
	c1.594,4.612-0.845,9.638-5.452,11.233C335.444,388.267,334.47,388.423,333.513,388.423z"/>
<path style="fill:#FFE38C;" d="M331.349,359.975l-33.353-33.354h-24.966l45.836,45.836c2.879,2.879,5,6.25,6.306,10.026
	c1.263,3.647,4.681,5.94,8.341,5.94c0.957,0,1.931-0.156,2.888-0.483c4.608-1.595,7.048-6.621,5.452-11.233
	C339.668,370.388,336.134,364.759,331.349,359.975z"/>
<g>
</g>
<g>
</g>
<g>
</g>
<g>
</g>
<g>
</g>
<g>
</g>
<g>
</g>
<g>
</g>
<g>
</g>
<g>
</g>
<g>
</g>
<g>
</g>
<g>
</g>
<g>
</g>
<g>
</g>
</svg>
