<?xml version="1.0" encoding="iso-8859-1"?>
<!-- Generator: Adobe Illustrator 19.0.0, SVG Export Plug-In . SVG Version: 6.00 Build 0)  -->
<svg version="1.1" id="Layer_1" xmlns="http://www.w3.org/2000/svg" xmlns:xlink="http://www.w3.org/1999/xlink" x="0px" y="0px"
	 viewBox="0 0 512 512" style="enable-background:new 0 0 512 512;" xml:space="preserve">
<path style="fill:#895438;" d="M309.947,150.069c102.498,109.241,140.26,228.414,140.26,273.655S316.69,512,256,512
	S61.793,468.966,61.793,423.724s37.762-164.414,140.26-273.655"/>
<path style="fill:#9D6E48;" d="M287.741,150.069c47.708,55.172,126.1,216.903,118.328,264.828
	c-5.244,32.334-35.972,62.522-72.662,84.23c57.517-16.107,116.8-45.255,116.8-75.402c0-45.241-37.762-164.414-140.26-273.655
	H287.741z"/>
<path style="fill:#6C392C;" d="M150.069,414.897c-14.712-44.138,92.69-264.828,92.69-264.828h-40.705
	C99.555,259.31,61.793,378.483,61.793,423.724c0,41.663,113.19,81.425,178.499,87.459
	C204.004,503.411,167.421,466.954,150.069,414.897z"/>
<path style="fill:#FFE159;" d="M313.379,150.069H198.621c-7.313,0-13.241-5.929-13.241-13.241l0,0
	c0-7.313,5.929-13.241,13.241-13.241h114.759c7.313,0,13.241,5.929,13.241,13.241l0,0
	C326.621,144.14,320.692,150.069,313.379,150.069z"/>
<path style="fill:#895438;" d="M308.966,123.586l26.483-105.931c0,0-20.598-17.655-35.31-17.655S277.333,17.655,256,17.655
	S226.574,0,211.862,0s-35.31,17.655-35.31,17.655l26.483,105.931"/>
<path style="fill:#9D6E48;" d="M335.448,17.655c0,0-18.351-15.593-32.792-17.322l-29.001,123.253h35.31L335.448,17.655z"/>
<path style="fill:#FFC83C;" d="M203.027,291.311c-1.821,0-3.659-0.563-5.237-1.728c-3.922-2.897-4.753-8.424-1.856-12.345
	c15.594-21.113,19.388-50.879,22.735-77.142c3.622-28.416,6.749-52.957,23.04-65.789c3.829-3.016,9.38-2.359,12.396,1.472
	c3.017,3.83,2.358,9.38-1.472,12.396c-10.615,8.362-13.45,30.604-16.451,54.152c-3.619,28.401-7.722,60.589-26.048,85.4
	C208.404,290.071,205.732,291.311,203.027,291.311z"/>
<path style="fill:#FFE159;" d="M300.136,247.172c-2.153,0-4.311-0.783-6.012-2.367c-19.095-17.771-23.51-41.588-27.058-60.725
	c-3.425-18.476-5.995-30.054-15.27-35.078c-4.287-2.322-5.88-7.679-3.559-11.966c2.321-4.288,7.68-5.88,11.966-3.559
	c17.161,9.293,20.75,28.657,24.222,47.382c3.392,18.3,6.901,37.22,21.726,51.021c3.569,3.321,3.769,8.907,0.447,12.476
	C304.861,246.228,302.5,247.172,300.136,247.172z"/>
<path style="fill:#FFC83C;" d="M242.759,150.069h-44.138c-7.313,0-13.241-5.929-13.241-13.241l0,0
	c0-7.313,5.929-13.241,13.241-13.241h44.138c7.313,0,13.241,5.929,13.241,13.241l0,0C256,144.14,250.071,150.069,242.759,150.069z"
	/>
<g>
	<path style="fill:#6C392C;" d="M176.552,17.655l26.483,105.931h39.724L211.862,0C197.149,0,176.552,17.655,176.552,17.655z"/>
	<path style="fill:#6C392C;" d="M256,123.586L270.071,67.3c1.933-7.732,10.04-12.182,17.601-9.662l0.036,0.012
		c6.95,2.316,10.842,9.696,8.83,16.739l-14.056,49.196H256z"/>
</g>
<circle style="fill:#FFC83C;" cx="317.793" cy="353.103" r="44.138"/>
<path style="fill:#FFE159;" d="M361.931,353.103c0-24.376-19.762-44.138-44.138-44.138v88.276
	C342.169,397.241,361.931,377.48,361.931,353.103z"/>
<circle style="fill:#FFB432;" cx="317.793" cy="353.103" r="30.897"/>
<circle style="fill:#FFC83C;" cx="211.862" cy="361.931" r="44.138"/>
<path style="fill:#FFE159;" d="M256,361.931c0-24.376-19.762-44.138-44.138-44.138v88.276C236.238,406.069,256,386.307,256,361.931z
	"/>
<circle style="fill:#FFB432;" cx="211.862" cy="361.931" r="30.897"/>
<circle style="fill:#FFC83C;" cx="264.828" cy="388.414" r="44.138"/>
<path style="fill:#FFE159;" d="M308.966,388.414c0-24.376-19.762-44.138-44.138-44.138v88.276
	C289.204,432.552,308.966,412.79,308.966,388.414z"/>
<circle style="fill:#FFB432;" cx="264.828" cy="388.414" r="30.897"/>
<g>
</g>
<g>
</g>
<g>
</g>
<g>
</g>
<g>
</g>
<g>
</g>
<g>
</g>
<g>
</g>
<g>
</g>
<g>
</g>
<g>
</g>
<g>
</g>
<g>
</g>
<g>
</g>
<g>
</g>
</svg>
