<?xml version="1.0" encoding="iso-8859-1"?>
<!-- Generator: Adobe Illustrator 19.0.0, SVG Export Plug-In . SVG Version: 6.00 Build 0)  -->
<svg version="1.1" id="Layer_1" xmlns="http://www.w3.org/2000/svg" xmlns:xlink="http://www.w3.org/1999/xlink" x="0px" y="0px"
	 viewBox="0 0 512 512" style="enable-background:new 0 0 512 512;" xml:space="preserve">
<path style="fill:#6C392C;" d="M469.966,247.364l39.385-19.693l-7.922-15.845l-31.463,15.732l-70.849-35.424l-9.557,4.778
	l13.171-19.758l55.121,18.37l8.688-26.058l35.558,14.227l6.581-16.449l-16.894-6.757l12.669-25.338l-15.845-7.922l-13.329,26.659
	l-19.604-7.84l-9.024,27.079l-51.151-17.055l-37.871,56.805l-42.634,21.317l-6.589-15.371l32.34-58.211l15.836,7.922l48.795-48.795
	l-12.524-12.524l-14.867,14.867l-4.134-20.67l63.798-23.92l-6.218-16.587l-41.171,15.439v-20.3l29.036-20.741l65.271,24.477
	l6.218-16.587l-54.123-20.296l11.879-8.486L438.252,0l-50.552,36.105l-16.638-24.957l-14.738,9.825l16.955,25.434l-0.731,0.521
	v36.057l-19.018,7.132l9.405,47.018l-9.847,9.847l-9.362-4.679l-16.393-32.786l-15.845,7.922l15.624,31.25l-1.71,3.079
	l-32.016,32.015l-0.708-1.652l-7.183-79.013l50.184-27.053l10.036-40.147l-17.184-4.29l-7.676,30.702l-46.642,15.55l16.688-20.86
	l-13.829-11.07l-27.469,34.337l-0.984-1.638l7.965-39.825l32.718-24.536L278.674,0.121l-38.131,28.601l-5.469,27.349l-9.705-16.174
	l-14.82,7.411l1.104-0.735l-23.707-35.554l-34.204,34.204l12.524,12.524l18.932-18.932l11.158,16.74l-9.518,38.066l17.184,4.29
	l7.865-31.472l6.737-3.364l15.535,58.317l-12.055,53.602l0.244-2.187l-77.348-96.69l-13.2,5.657L116.178,58.34l8.28-49.685
	l-17.471-2.905l-5.174,31.046l-9.973-14.96L73.924,32.585L51.136,9.799L38.614,22.322L58.27,41.978L40.317,52.747l9.115,15.187
	l37.037-22.227l28.772,43.16L76.81,105.338l6.98,16.276l55.795-23.914l12.573,20.864l-21.071,7.02l11.658,34.975l16.804-5.605
	l-6.054-18.162l8.032-2.681l39.934,66.262l-3.944,35.507l-78.128-78.125H55.824l-20.441-10.222L4.539,168.101l9.825,14.738
	l22.292-14.858l3.114,1.556l-37.12,44.539l13.604,11.347l41.626-49.954h32.595l-27.082,21.664l-9.487,47.445l17.367,3.477
	l8.225-41.115l35.574-28.46l13.493,13.493l39.055,50.215l-45.809-5.092L65.776,283.79l11.338,13.613l24.686-20.573l5.523,16.569
	l16.804-5.605l-7.714-23.141l10.939-9.117l20.142,2.237l43.105,21.552l-21.737,188.393l-66.045-8.256
	c-2.993-0.374-5.971,0.8-7.902,3.118l-41.182,49.418h35.424l26.568-26.568l48.352,24.176c3.146,1.573,6.617,2.392,10.135,2.392
	h83.212h83.212c3.518,0,6.987-0.819,10.135-2.392l48.352-24.176l26.568,26.568h35.424l-41.182-49.418
	c-1.931-2.317-4.908-3.493-7.902-3.118l-66.045,8.256l-21.928-190.041l75.064-65.739l24.592,12.296l-5.466,16.399l-24.043,16.028
	l9.825,14.738l19.2-12.8l12.8,19.2l14.738-9.825l-15.309-22.964l4.258-12.772L469.966,247.364z"/>
<path style="fill:#59291D;" d="M257.42,122.333l-9.029-42.542l0.536-0.632l-0.307-0.511l7.965-39.825l32.718-24.536L278.674,0.121
	l-38.131,28.601l-5.469,27.349l-9.705-16.174l-14.82,7.411l1.104-0.735l-23.707-35.554l-34.204,34.204l12.524,12.524l18.932-18.932
	l11.158,16.74l-9.518,38.066l17.184,4.29l7.865-31.472l6.737-3.364l15.535,58.317l-12.055,53.602l0.244-2.187l-77.348-96.69
	l-13.2,5.657L116.178,58.34l8.28-49.685l-17.471-2.905l-5.174,31.046l-9.973-14.96L73.924,32.585L51.136,9.799L38.614,22.322
	L58.27,41.978L40.317,52.747l9.115,15.187l37.037-22.227l28.772,43.16L76.81,105.338l6.98,16.276l55.795-23.914l12.573,20.864
	l-21.071,7.02l11.658,34.975l16.804-5.605l-6.054-18.162l8.032-2.681l39.934,66.262l-3.944,35.507l-78.128-78.125H55.824
	l-20.441-10.222L4.539,168.101l9.825,14.738l22.292-14.858l3.114,1.556l-37.12,44.539l13.604,11.347l41.626-49.954h32.595
	l-27.082,21.664l-9.487,47.445l17.367,3.477l8.225-41.115l35.574-28.46l13.493,13.493l39.055,50.215l-45.809-5.092L65.776,283.79
	l11.338,13.613l24.686-20.573l5.523,16.569l16.804-5.605l-7.714-23.141l10.939-9.117l20.142,2.237l43.105,21.552l-21.737,188.393
	l-66.045-8.256c-2.993-0.374-5.971,0.8-7.902,3.118l-41.182,49.418h35.424l26.568-26.568l48.352,24.176
	c3.146,1.573,6.617,2.392,10.135,2.392h57.716l7.782-256.826l17.712,26.568V122.333H257.42z"/>
<g>
	<path style="fill:#FFC83C;" d="M186.572,512l13.538-13.538c2.71-2.71,4.468-6.226,5.009-10.02l16.877-118.14l17.712,26.568
		l26.568-26.568l17.712,26.568l17.712-26.568l16.877,118.14c0.542,3.794,2.3,7.31,5.009,10.02L337.125,512H186.572z"/>
	<path style="fill:#FFC83C;" d="M241.84,332.637l-18.33-6.111c-0.904-0.301-1.514-1.147-1.514-2.1v-18.33
		c0-2.128,2.709-3.031,3.985-1.328l18.33,24.441C245.614,330.944,243.899,333.323,241.84,332.637z"/>
	<path style="fill:#FFC83C;" d="M273,332.637l18.33-6.111c0.904-0.301,1.514-1.147,1.514-2.1v-18.33
		c0-2.128-2.709-3.031-3.985-1.328l-18.33,24.441C269.227,330.944,270.941,333.323,273,332.637z"/>
</g>
<g>
</g>
<g>
</g>
<g>
</g>
<g>
</g>
<g>
</g>
<g>
</g>
<g>
</g>
<g>
</g>
<g>
</g>
<g>
</g>
<g>
</g>
<g>
</g>
<g>
</g>
<g>
</g>
<g>
</g>
</svg>
