<?xml version="1.0" encoding="iso-8859-1"?>
<!-- Generator: Adobe Illustrator 19.0.0, SVG Export Plug-In . SVG Version: 6.00 Build 0)  -->
<svg version="1.1" id="Layer_1" xmlns="http://www.w3.org/2000/svg" xmlns:xlink="http://www.w3.org/1999/xlink" x="0px" y="0px"
	 viewBox="0 0 512 512" style="enable-background:new 0 0 512 512;" xml:space="preserve">
<rect x="159.003" y="27.61" style="fill:#4B2E2E;" width="17.635" height="404.453"/>
<g>
	<polygon style="fill:#FFB432;" points="141.371,18.793 141.371,1.158 167.824,27.611 167.824,45.246 	"/>
	<polygon style="fill:#FFB432;" points="141.371,45.246 141.371,27.611 167.824,54.064 167.824,71.699 	"/>
	<polygon style="fill:#FFB432;" points="141.371,71.699 141.371,54.064 167.824,80.517 167.824,98.152 	"/>
</g>
<g>
	<polygon style="fill:#FFC83C;" points="194.277,18.793 194.277,1.158 167.824,27.611 167.824,45.246 	"/>
	<polygon style="fill:#FFC83C;" points="194.277,45.246 194.277,27.611 167.824,54.064 167.824,71.699 	"/>
	<polygon style="fill:#FFC83C;" points="194.277,71.699 194.277,54.064 167.824,80.517 167.824,98.152 	"/>
</g>
<polygon style="fill:#FFB432;" points="141.371,98.152 141.371,80.517 167.824,106.969 167.824,124.605 "/>
<polygon style="fill:#FFC83C;" points="194.277,98.152 194.277,80.517 167.824,106.969 167.824,124.605 "/>
<rect x="211.908" y="27.61" style="fill:#4B2E2E;" width="17.635" height="404.453"/>
<g>
	<polygon style="fill:#FFB432;" points="194.277,18.793 194.277,1.158 220.729,27.611 220.729,45.246 	"/>
	<polygon style="fill:#FFB432;" points="194.277,45.246 194.277,27.611 220.729,54.064 220.729,71.699 	"/>
	<polygon style="fill:#FFB432;" points="194.277,71.699 194.277,54.064 220.729,80.517 220.729,98.152 	"/>
</g>
<g>
	<polygon style="fill:#FFC83C;" points="247.182,18.793 247.182,1.158 220.729,27.611 220.729,45.246 	"/>
	<polygon style="fill:#FFC83C;" points="247.182,45.246 247.182,27.611 220.729,54.064 220.729,71.699 	"/>
	<polygon style="fill:#FFC83C;" points="247.182,71.699 247.182,54.064 220.729,80.517 220.729,98.152 	"/>
</g>
<polygon style="fill:#FFB432;" points="194.277,98.152 194.277,80.517 220.729,106.969 220.729,124.605 "/>
<polygon style="fill:#FFC83C;" points="247.182,98.152 247.182,80.517 220.729,106.969 220.729,124.605 "/>
<path style="fill:#FFD29E;" d="M211.912,512L211.912,512c-48.699,0-88.176-39.478-88.176-88.176V168.113h176.352v255.711
	C300.088,472.522,260.609,512,211.912,512z"/>
<path style="fill:#FFE6B7;" d="M282.453,168.113v255.711c0,45.721-34.801,83.305-79.358,87.731c2.901,0.288,5.841,0.445,8.818,0.445
	c48.699,0,88.176-39.478,88.176-88.176V168.113H282.453z"/>
<path style="fill:#FFC38F;" d="M167.824,423.824V176.93h-44.088v246.893c0,48.699,39.478,88.176,88.176,88.176
	C187.562,512,167.824,472.522,167.824,423.824z"/>
<path style="fill:#FFD29E;" d="M308.905,185.169H114.918c-4.87,0-8.818-3.948-8.818-8.818l0,0c0-4.87,3.948-8.818,8.818-8.818
	h193.987c4.87,0,8.818,3.948,8.818,8.818l0,0C317.723,181.221,313.775,185.169,308.905,185.169z"/>
<path style="fill:#895438;" d="M123.736,423.245v0.579c0,48.699,39.478,88.176,88.176,88.176s88.176-39.478,88.176-88.176v-0.579
	H123.736z"/>
<path style="fill:#6C392C;" d="M167.824,423.824v-0.579h-44.088v0.579c0,48.699,39.478,88.176,88.176,88.176
	C187.562,512,167.824,472.522,167.824,423.824z"/>
<rect x="123.732" y="185.169" style="fill:#FFB432;" width="44.088" height="17.635"/>
<rect x="167.82" y="185.169" style="fill:#FFC83C;" width="132.264" height="17.635"/>
<rect x="282.449" y="185.169" style="fill:#FFE159;" width="17.635" height="17.635"/>
<rect x="123.732" y="405.61" style="fill:#FFB432;" width="44.088" height="17.635"/>
<rect x="167.82" y="405.61" style="fill:#FFC83C;" width="132.264" height="17.635"/>
<rect x="247.179" y="17.635" style="fill:#895438;" width="17.635" height="476.151"/>
<g>
	<path style="fill:#FFC83C;" d="M388.264,290.982h-4.409c-2.39,0-4.409-2.019-4.409-4.409v-30.861v-30.862
		c0-2.39,2.019-4.409,4.409-4.409h4.409c9.739,0,17.635-7.896,17.635-17.635c0-47.55-39.081-86.726-73.559-121.29
		c-23.318-23.379-47.429-47.55-50.06-66.326c-1.348-9.649-10.268-16.373-19.909-15.017c-9.644,1.348-16.37,10.265-15.017,19.909
		c4.262,30.448,31.344,57.599,60.014,86.342c26.496,26.561,53.758,53.892,61.254,81.787c-14.342,5.985-24.447,20.154-24.447,36.639
		v30.862v30.861c0,16.486,10.105,30.654,24.447,36.639c-7.496,27.895-34.758,55.226-61.254,81.786
		c-28.67,28.743-55.752,55.893-60.014,86.341c-1.352,9.644,5.373,18.561,15.018,19.909c9.64,1.356,18.561-5.369,19.909-15.018
		c2.631-18.776,26.742-42.946,50.06-66.325c34.478-34.564,73.559-73.74,73.559-121.288
		C405.899,298.878,398.003,290.982,388.264,290.982z"/>
	<circle style="fill:#FFC83C;" cx="207.5" cy="357.113" r="30.862"/>
</g>
<circle style="fill:#FF5A4E;" cx="207.5" cy="357.113" r="13.226"/>
<path style="fill:#FFB432;" d="M123.736,387.53c1.452,0.209,2.899,0.444,4.409,0.444c17.044,0,30.862-13.817,30.862-30.862
	s-13.817-30.862-30.862-30.862c-1.51,0-2.957,0.235-4.409,0.444V387.53z"/>
<path style="fill:#DA4439;" d="M128.144,343.886c-1.554,0-3.023,0.317-4.409,0.809v24.834c1.385,0.493,2.855,0.809,4.409,0.809
	c7.304,0,13.226-5.922,13.226-13.226S135.449,343.886,128.144,343.886z"/>
<path style="fill:#FFE159;" d="M300.088,387.53v-60.834c-1.452-0.209-2.899-0.444-4.409-0.444
	c-17.044,0-30.862,13.817-30.862,30.862c0,17.044,13.817,30.862,30.862,30.862C297.189,387.974,298.635,387.74,300.088,387.53z"/>
<path style="fill:#FF8278;" d="M300.088,369.53v-24.834c-1.385-0.493-2.855-0.809-4.409-0.809c-7.304,0-13.226,5.922-13.226,13.226
	c0,7.304,5.922,13.226,13.226,13.226C297.233,370.339,298.702,370.022,300.088,369.53z"/>
<rect x="282.449" y="405.61" style="fill:#FFE159;" width="17.635" height="17.635"/>
<path style="fill:#FFB432;" d="M379.446,308.617c-9.739,0-17.635-7.896-17.635-17.635v-35.27v-35.27
	c0-9.74,7.896-17.635,17.635-17.635h8.818c0-77.889-123.447-136.122-123.447-185.17V0.078c-0.811,0-1.619-0.021-2.446,0.096
	c-9.644,1.348-16.37,10.265-15.017,19.909c4.262,30.448,31.344,57.599,60.014,86.342c26.496,26.561,53.758,53.892,61.254,81.787
	c-14.342,5.985-24.447,20.154-24.447,36.639v30.862v30.861c0,16.486,10.105,30.654,24.447,36.639
	c-7.496,27.895-34.758,55.226-61.254,81.786c-28.67,28.743-55.752,55.893-60.014,86.341c-1.352,9.644,5.373,18.561,15.017,19.909
	c0.827,0.116,1.635,0.095,2.446,0.096v-17.556c0-49.048,123.447-107.281,123.447-185.17h-8.818V308.617z"/>
<path style="fill:#FFC83C;" d="M282.453,384.89v-55.555c-10.398,4.964-17.635,15.488-17.635,27.778
	C264.817,369.402,272.054,379.926,282.453,384.89z"/>
<path style="fill:#FFC38F;" d="M167.824,185.169h-52.906c-4.87,0-8.818-3.948-8.818-8.818l0,0c0-4.87,3.948-8.818,8.818-8.818
	h52.906c4.87,0,8.818,3.948,8.818,8.818l0,0C176.641,181.221,172.693,185.169,167.824,185.169z"/>
<path style="fill:#FFE6B7;" d="M308.905,185.169h-26.453c-4.87,0-8.818-3.948-8.818-8.818l0,0c0-4.87,3.948-8.818,8.818-8.818
	h26.453c4.87,0,8.818,3.948,8.818,8.818l0,0C317.723,181.221,313.775,185.169,308.905,185.169z"/>
<g>
</g>
<g>
</g>
<g>
</g>
<g>
</g>
<g>
</g>
<g>
</g>
<g>
</g>
<g>
</g>
<g>
</g>
<g>
</g>
<g>
</g>
<g>
</g>
<g>
</g>
<g>
</g>
<g>
</g>
</svg>
