<?xml version="1.0" encoding="iso-8859-1"?>
<!-- Generator: Adobe Illustrator 19.0.0, SVG Export Plug-In . SVG Version: 6.00 Build 0)  -->
<svg version="1.1" id="Layer_1" xmlns="http://www.w3.org/2000/svg" xmlns:xlink="http://www.w3.org/1999/xlink" x="0px" y="0px"
	 viewBox="0 0 512 512" style="enable-background:new 0 0 512 512;" xml:space="preserve">
<path style="fill:#FFC83C;" d="M317.793,0H194.207c0,24.377-19.762,44.138-44.138,44.138v344.276h211.862V44.138
	C337.555,44.138,317.793,24.377,317.793,0z"/>
<path style="fill:#FF5A4E;" d="M296.492,26.483h-80.984c-7.165,17.686-21.27,31.791-38.956,38.957v305.319h158.897V65.44
	C317.762,58.274,303.657,44.169,296.492,26.483z"/>
<path style="fill:#EB443F;" d="M344.276,406.069H167.724c-4.875,0-8.828-3.953-8.828-8.828v-35.31c0-4.875,3.953-8.828,8.828-8.828
	h176.552c4.875,0,8.828,3.953,8.828,8.828v35.31C353.103,402.116,349.151,406.069,344.276,406.069z"/>
<g>
	<circle style="fill:#FFB432;" cx="132.414" cy="300.138" r="26.483"/>
	<circle style="fill:#FFB432;" cx="379.586" cy="300.138" r="26.483"/>
	<path style="fill:#FFB432;" d="M353.103,300.138v97.103c0,4.875-3.953,8.828-8.828,8.828H167.724c-4.875,0-8.828-3.953-8.828-8.828
		v-97.103h-26.483V512h26.483v-79.448h194.207V512h26.483V300.138H353.103z"/>
</g>
<rect x="158.897" y="423.724" style="fill:#FF9B36;" width="194.207" height="17.655"/>
<g>
	<circle style="fill:#EB443F;" cx="256" cy="317.793" r="8.828"/>
	<circle style="fill:#EB443F;" cx="308.966" cy="317.793" r="8.828"/>
	<circle style="fill:#EB443F;" cx="229.517" cy="282.483" r="8.828"/>
	<circle style="fill:#EB443F;" cx="282.483" cy="282.483" r="8.828"/>
	<circle style="fill:#EB443F;" cx="203.034" cy="317.793" r="8.828"/>
	<circle style="fill:#EB443F;" cx="256" cy="247.172" r="8.828"/>
	<circle style="fill:#EB443F;" cx="308.966" cy="247.172" r="8.828"/>
	<circle style="fill:#EB443F;" cx="229.517" cy="211.862" r="8.828"/>
	<circle style="fill:#EB443F;" cx="282.483" cy="211.862" r="8.828"/>
	<circle style="fill:#EB443F;" cx="203.034" cy="247.172" r="8.828"/>
	<circle style="fill:#EB443F;" cx="256" cy="176.552" r="8.828"/>
	<circle style="fill:#EB443F;" cx="308.966" cy="176.552" r="8.828"/>
	<circle style="fill:#EB443F;" cx="229.517" cy="141.241" r="8.828"/>
	<circle style="fill:#EB443F;" cx="282.483" cy="141.241" r="8.828"/>
	<circle style="fill:#EB443F;" cx="203.034" cy="176.552" r="8.828"/>
	<circle style="fill:#EB443F;" cx="256" cy="105.931" r="8.828"/>
	<circle style="fill:#EB443F;" cx="308.966" cy="105.931" r="8.828"/>
	<circle style="fill:#EB443F;" cx="229.517" cy="70.621" r="8.828"/>
	<circle style="fill:#EB443F;" cx="282.483" cy="70.621" r="8.828"/>
	<circle style="fill:#EB443F;" cx="203.034" cy="105.931" r="8.828"/>
	<circle style="fill:#EB443F;" cx="132.414" cy="300.138" r="8.828"/>
	<circle style="fill:#EB443F;" cx="379.586" cy="300.138" r="8.828"/>
</g>
<path style="fill:#BF2E29;" d="M344.276,406.069H167.724c-4.875,0-8.828-3.953-8.828-8.828v-8.828c0-4.875,3.953-8.828,8.828-8.828
	h176.552c4.875,0,8.828,3.953,8.828,8.828v8.828C353.103,402.116,349.151,406.069,344.276,406.069z"/>
<g>
</g>
<g>
</g>
<g>
</g>
<g>
</g>
<g>
</g>
<g>
</g>
<g>
</g>
<g>
</g>
<g>
</g>
<g>
</g>
<g>
</g>
<g>
</g>
<g>
</g>
<g>
</g>
<g>
</g>
</svg>
