<?xml version="1.0" encoding="iso-8859-1"?>
<!-- Generator: Adobe Illustrator 19.0.0, SVG Export Plug-In . SVG Version: 6.00 Build 0)  -->
<svg version="1.1" id="Layer_1" xmlns="http://www.w3.org/2000/svg" xmlns:xlink="http://www.w3.org/1999/xlink" x="0px" y="0px"
	 viewBox="0 0 512 512" style="enable-background:new 0 0 512 512;" xml:space="preserve">
<path style="fill:#895438;" d="M492.138,286.897H19.862c-1.219,0-2.207-0.988-2.207-2.207V22.069
	c0-9.751,7.904-17.655,17.655-17.655H476.69c9.751,0,17.655,7.904,17.655,17.655V284.69
	C494.345,285.909,493.357,286.897,492.138,286.897z"/>
<g>
	<path style="fill:#FFB432;" d="M414.897,207.448h44.138c4.875,0,8.828,3.953,8.828,8.828l0,0c0,4.875-3.953,8.828-8.828,8.828
		h-44.138c-4.875,0-8.828-3.953-8.828-8.828l0,0C406.069,211.401,410.022,207.448,414.897,207.448z"/>
	<path style="fill:#FFB432;" d="M397.241,198.621h44.138c4.875,0,8.828,3.953,8.828,8.828l0,0c0,4.875-3.953,8.828-8.828,8.828
		h-44.138c-4.875,0-8.828-3.953-8.828-8.828l0,0C388.414,202.573,392.366,198.621,397.241,198.621z"/>
	<path style="fill:#FFB432;" d="M371.862,189.793h59.586c0.609,0,1.103,0.494,1.103,1.103v15.448c0,0.609-0.494,1.103-1.103,1.103
		h-59.586c-0.609,0-1.103-0.494-1.103-1.103v-15.448C370.759,190.287,371.253,189.793,371.862,189.793z"/>
	<path style="fill:#FFB432;" d="M361.931,207.448h-44.138c-4.875,0-8.828,3.953-8.828,8.828l0,0c0,4.875,3.953,8.828,8.828,8.828
		h44.138c4.875,0,8.828-3.953,8.828-8.828l0,0C370.759,211.401,366.806,207.448,361.931,207.448z"/>
	<path style="fill:#FFB432;" d="M379.586,198.621h-44.138c-4.875,0-8.828,3.953-8.828,8.828l0,0c0,4.875,3.953,8.828,8.828,8.828
		h44.138c4.875,0,8.828-3.953,8.828-8.828l0,0C388.414,202.573,384.461,198.621,379.586,198.621z"/>
	<path style="fill:#FFB432;" d="M397.241,189.793h-44.138c-4.875,0-8.828,3.953-8.828,8.828l0,0c0,4.875,3.953,8.828,8.828,8.828
		h44.138c4.875,0,8.828-3.953,8.828-8.828l0,0C406.069,193.746,402.116,189.793,397.241,189.793z"/>
	<path style="fill:#FFB432;" d="M273.655,207.448h-44.138c-4.875,0-8.828,3.953-8.828,8.828l0,0c0,4.875,3.953,8.828,8.828,8.828
		h44.138c4.875,0,8.828-3.953,8.828-8.828l0,0C282.483,211.401,278.53,207.448,273.655,207.448z"/>
	<path style="fill:#FFB432;" d="M299.034,198.621h-59.586c-0.609,0-1.103,0.494-1.103,1.103v15.448c0,0.609,0.494,1.103,1.103,1.103
		h59.586c0.609,0,1.103-0.494,1.103-1.103v-15.448C300.138,199.115,299.644,198.621,299.034,198.621z"/>
	<path style="fill:#FFB432;" d="M308.966,189.793h-44.138c-4.875,0-8.828,3.953-8.828,8.828l0,0c0,4.875,3.953,8.828,8.828,8.828
		h44.138c4.875,0,8.828-3.953,8.828-8.828l0,0C317.793,193.746,313.841,189.793,308.966,189.793z"/>
	<path style="fill:#FFB432;" d="M308.966,172.138h-44.138c-4.875,0-8.828,3.953-8.828,8.828l0,0c0,4.875,3.953,8.828,8.828,8.828
		h44.138c4.875,0,8.828-3.953,8.828-8.828l0,0C317.793,176.09,313.841,172.138,308.966,172.138z"/>
	<path style="fill:#FFB432;" d="M397.241,172.138h-44.138c-4.875,0-8.828,3.953-8.828,8.828l0,0c0,4.875,3.953,8.828,8.828,8.828
		h44.138c4.875,0,8.828-3.953,8.828-8.828l0,0C406.069,176.09,402.116,172.138,397.241,172.138z"/>
	<path style="fill:#FFB432;" d="M220.69,172.138h-44.138c-4.875,0-8.828,3.953-8.828,8.828l0,0c0,4.875,3.953,8.828,8.828,8.828
		h44.138c4.875,0,8.828-3.953,8.828-8.828l0,0C229.517,176.09,225.565,172.138,220.69,172.138z"/>
</g>
<g>
	<path style="fill:#FFC83C;" d="M335.448,198.621H291.31c-4.875,0-8.828,3.953-8.828,8.828l0,0c0,4.875,3.953,8.828,8.828,8.828
		h44.138c4.875,0,8.828-3.953,8.828-8.828l0,0C344.276,202.573,340.323,198.621,335.448,198.621z"/>
	<path style="fill:#FFC83C;" d="M353.103,180.966h-44.138c-4.875,0-8.828,3.953-8.828,8.828l0,0c0,4.875,3.953,8.828,8.828,8.828
		h44.138c4.875,0,8.828-3.953,8.828-8.828l0,0C361.931,184.918,357.978,180.966,353.103,180.966z"/>
</g>
<path style="fill:#FFFFFF;" d="M353.103,180.966h-8.828c-4.875,0-8.828,3.953-8.828,8.828l0,0c0,4.875,3.953,8.828,8.828,8.828
	h8.828c4.875,0,8.828-3.953,8.828-8.828l0,0C361.931,184.918,357.978,180.966,353.103,180.966z"/>
<g>
	<path style="fill:#FFC83C;" d="M317.793,216.276h-44.138c-4.875,0-8.828,3.953-8.828,8.828l0,0c0,4.875,3.953,8.828,8.828,8.828
		h44.138c4.875,0,8.828-3.953,8.828-8.828l0,0C326.621,220.228,322.668,216.276,317.793,216.276z"/>
	<path style="fill:#FFC83C;" d="M423.724,198.621h-44.138c-4.875,0-8.828,3.953-8.828,8.828l0,0c0,4.875,3.953,8.828,8.828,8.828
		h44.138c4.875,0,8.828-3.953,8.828-8.828l0,0C432.552,202.573,428.599,198.621,423.724,198.621z"/>
	<path style="fill:#FFC83C;" d="M441.379,180.966h-44.138c-4.875,0-8.828,3.953-8.828,8.828l0,0c0,4.875,3.953,8.828,8.828,8.828
		h44.138c4.875,0,8.828-3.953,8.828-8.828l0,0C450.207,184.918,446.254,180.966,441.379,180.966z"/>
	<path style="fill:#FFC83C;" d="M406.069,216.276h-44.138c-4.875,0-8.828,3.953-8.828,8.828l0,0c0,4.875,3.953,8.828,8.828,8.828
		h44.138c4.875,0,8.828-3.953,8.828-8.828l0,0C414.897,220.228,410.944,216.276,406.069,216.276z"/>
</g>
<path style="fill:#FFB432;" d="M273.655,136.828h-35.31c-4.875,0-8.828-3.953-8.828-8.828v-25.379c0-0.609,0.494-1.103,1.103-1.103
	h50.759c0.609,0,1.103,0.494,1.103,1.103V128C282.483,132.875,278.53,136.828,273.655,136.828z"/>
<path style="fill:#FFC83C;" d="M494.345,507.586H17.655C7.904,507.586,0,499.682,0,489.931V242.759
	c0-9.751,7.904-17.655,17.655-17.655h476.69c9.751,0,17.655,7.904,17.655,17.655v247.172
	C512,499.682,504.096,507.586,494.345,507.586z"/>
<rect x="35.31" y="260.414" style="fill:#895438;" width="441.379" height="211.862"/>
<path style="fill:#FFB432;" d="M494.345,489.931H17.655V242.759h476.69V489.931z M35.31,472.276H476.69V260.414H35.31V472.276z"/>
<g>
	<rect x="35.31" y="313.379" style="fill:#6C392C;" width="441.379" height="17.655"/>
	<rect x="35.31" y="401.655" style="fill:#6C392C;" width="441.379" height="17.655"/>
</g>
<path style="fill:#FFC83C;" d="M476.69,4.414v97.103H35.31V4.414c-9.75,0-17.655,7.904-17.655,17.655v79.448v17.655H35.31H476.69
	h17.655v-17.655V22.069C494.345,12.318,486.44,4.414,476.69,4.414z"/>
<g>
	<rect x="35.31" y="4.414" style="fill:#FFB432;" width="17.655" height="97.103"/>
	<rect x="459.034" y="4.414" style="fill:#FFB432;" width="17.655" height="97.103"/>
	<rect x="35.31" y="83.862" style="fill:#FFB432;" width="441.379" height="17.655"/>
	<path style="fill:#FFB432;" d="M256,331.034L256,331.034c-19.501,0-35.31-15.809-35.31-35.31v-52.966h70.621v52.966
		C291.31,315.225,275.501,331.034,256,331.034z"/>
</g>
<g>
	<circle style="fill:#6C392C;" cx="256" cy="278.069" r="8.828"/>
	<path style="fill:#6C392C;" d="M256,304.552L256,304.552c-2.438,0-4.414-1.976-4.414-4.414v-21.517
		c0-0.305,0.247-0.552,0.552-0.552h7.724c0.305,0,0.552,0.247,0.552,0.552v21.517C260.414,302.575,258.438,304.552,256,304.552z"/>
	<rect x="52.966" y="30.897" style="fill:#6C392C;" width="406.069" height="17.655"/>
</g>
<g>
	<path style="fill:#FFB432;" d="M97.103,207.448H52.966c-4.875,0-8.828,3.953-8.828,8.828l0,0c0,4.875,3.953,8.828,8.828,8.828
		h44.138c4.875,0,8.828-3.953,8.828-8.828l0,0C105.931,211.401,101.978,207.448,97.103,207.448z"/>
	<path style="fill:#FFB432;" d="M114.759,198.621H70.621c-4.875,0-8.828,3.953-8.828,8.828l0,0c0,4.875,3.953,8.828,8.828,8.828
		h44.138c4.875,0,8.828-3.953,8.828-8.828l0,0C123.586,202.573,119.634,198.621,114.759,198.621z"/>
	<path style="fill:#FFB432;" d="M132.414,189.793H88.276c-4.875,0-8.828,3.953-8.828,8.828l0,0c0,4.875,3.953,8.828,8.828,8.828
		h44.138c4.875,0,8.828-3.953,8.828-8.828l0,0C141.241,193.746,137.289,189.793,132.414,189.793z"/>
	<path style="fill:#FFB432;" d="M185.379,207.448h-44.138c-4.875,0-8.828,3.953-8.828,8.828l0,0c0,4.875,3.953,8.828,8.828,8.828
		h44.138c4.875,0,8.828-3.953,8.828-8.828l0,0C194.207,211.401,190.254,207.448,185.379,207.448z"/>
	<path style="fill:#FFB432;" d="M203.034,198.621h-44.138c-4.875,0-8.828,3.953-8.828,8.828l0,0c0,4.875,3.953,8.828,8.828,8.828
		h44.138c4.875,0,8.828-3.953,8.828-8.828l0,0C211.862,202.573,207.91,198.621,203.034,198.621z"/>
	<path style="fill:#FFB432;" d="M220.69,189.793h-44.138c-4.875,0-8.828,3.953-8.828,8.828l0,0c0,4.875,3.953,8.828,8.828,8.828
		h44.138c4.875,0,8.828-3.953,8.828-8.828l0,0C229.517,193.746,225.565,189.793,220.69,189.793z"/>
</g>
<g>
	<path style="fill:#FFC83C;" d="M158.897,198.621h-44.138c-4.875,0-8.828,3.953-8.828,8.828l0,0c0,4.875,3.953,8.828,8.828,8.828
		h44.138c4.875,0,8.828-3.953,8.828-8.828l0,0C167.724,202.573,163.772,198.621,158.897,198.621z"/>
	<path style="fill:#FFC83C;" d="M176.552,180.966h-44.138c-4.875,0-8.828,3.953-8.828,8.828l0,0c0,4.875,3.953,8.828,8.828,8.828
		h44.138c4.875,0,8.828-3.953,8.828-8.828l0,0C185.379,184.918,181.427,180.966,176.552,180.966z"/>
	<path style="fill:#FFC83C;" d="M141.241,216.276H97.103c-4.875,0-8.828,3.953-8.828,8.828l0,0c0,4.875,3.953,8.828,8.828,8.828
		h44.138c4.875,0,8.828-3.953,8.828-8.828l0,0C150.069,220.228,146.116,216.276,141.241,216.276z"/>
	<path style="fill:#FFC83C;" d="M247.172,198.621h-44.138c-4.875,0-8.828,3.953-8.828,8.828l0,0c0,4.875,3.953,8.828,8.828,8.828
		h44.138c4.875,0,8.828-3.953,8.828-8.828l0,0C256,202.573,252.047,198.621,247.172,198.621z"/>
	<path style="fill:#FFC83C;" d="M264.828,180.966H220.69c-4.875,0-8.828,3.953-8.828,8.828l0,0c0,4.875,3.953,8.828,8.828,8.828
		h44.138c4.875,0,8.828-3.953,8.828-8.828l0,0C273.655,184.918,269.703,180.966,264.828,180.966z"/>
	<path style="fill:#FFC83C;" d="M229.517,216.276h-44.138c-4.875,0-8.828,3.953-8.828,8.828l0,0c0,4.875,3.953,8.828,8.828,8.828
		h44.138c4.875,0,8.828-3.953,8.828-8.828l0,0C238.345,220.228,234.392,216.276,229.517,216.276z"/>
</g>
<g>
	<path style="fill:#FFFFFF;" d="M247.172,198.621h-8.828c-4.875,0-8.828,3.953-8.828,8.828l0,0c0,4.875,3.953,8.828,8.828,8.828
		h8.828c4.875,0,8.828-3.953,8.828-8.828l0,0C256,202.573,252.047,198.621,247.172,198.621z"/>
	<path style="fill:#FFFFFF;" d="M176.552,180.966h-8.828c-4.875,0-8.828,3.953-8.828,8.828l0,0c0,4.875,3.953,8.828,8.828,8.828
		h8.828c4.875,0,8.828-3.953,8.828-8.828l0,0C185.379,184.918,181.427,180.966,176.552,180.966z"/>
	<path style="fill:#FFFFFF;" d="M423.724,198.621h-8.828c-4.875,0-8.828,3.953-8.828,8.828l0,0c0,4.875,3.953,8.828,8.828,8.828
		h8.828c4.875,0,8.828-3.953,8.828-8.828l0,0C432.552,202.573,428.599,198.621,423.724,198.621z"/>
</g>
<g>
</g>
<g>
</g>
<g>
</g>
<g>
</g>
<g>
</g>
<g>
</g>
<g>
</g>
<g>
</g>
<g>
</g>
<g>
</g>
<g>
</g>
<g>
</g>
<g>
</g>
<g>
</g>
<g>
</g>
</svg>
