<?xml version="1.0" encoding="iso-8859-1"?>
<!-- Generator: Adobe Illustrator 19.0.0, SVG Export Plug-In . SVG Version: 6.00 Build 0)  -->
<svg version="1.1" id="Layer_1" xmlns="http://www.w3.org/2000/svg" xmlns:xlink="http://www.w3.org/1999/xlink" x="0px" y="0px"
	 viewBox="0 0 511.999 511.999" style="enable-background:new 0 0 511.999 511.999;" xml:space="preserve">
<path style="fill:#EBB459;" d="M176.421,203.013c-92.925-8.534-143.497-80.601-155.91-100.754c-2.017-3.275-5.551-5.218-9.397-5.218
	l0,0c-6.209,0-11.333,5.126-11.106,11.332C5.392,255.43,114.604,308.986,114.604,308.986S292.884,213.709,176.421,203.013z"/>
<g>
	<path style="fill:#E8A049;" d="M177.304,269.382c-7.513-4.885-19.092-9.432-36.207-13.382
		C35.857,231.713,13.879,128.407,9.605,97.196c-5.502,0.755-9.807,5.487-9.598,11.178C5.392,255.43,114.604,308.986,114.604,308.986
		S148.68,290.773,177.304,269.382z"/>
	<path style="fill:#E8A049;" d="M176.503,203.023c-0.03-0.002-0.052-0.008-0.082-0.01c-15.497-1.423-29.708-4.731-42.868-9.152
		c-27.297,22.856-46.195,55.262-51.884,92.054c18.558,15.983,32.936,23.07,32.936,23.07s11.975-6.411,27.66-16.058
		C145.227,257.922,157.773,226.607,176.503,203.023z"/>
</g>
<path style="fill:#DB8C45;" d="M148.766,257.924c-2.437-0.654-4.96-1.299-7.669-1.924c-16.666-3.846-31.031-9.836-43.782-17.044
	c-7.611,14.443-13.058,30.211-15.647,46.96c0.004,0.003,0.008,0.007,0.012,0.01c16.205,13.954,29.214,21.122,32.249,22.712
	c0.019,0.01,0.043,0.023,0.061,0.032c0.382,0.199,0.616,0.316,0.616,0.316s11.975-6.411,27.66-16.058
	C143.295,280.743,145.556,269.044,148.766,257.924z"/>
<path style="fill:#E8A049;" d="M335.578,203.013c92.925-8.534,143.497-80.601,155.91-100.754c2.017-3.275,5.551-5.218,9.397-5.218
	l0,0c6.209,0,11.334,5.126,11.106,11.332c-5.385,147.056-114.597,200.612-114.597,200.612S219.115,213.709,335.578,203.013z"/>
<path style="fill:#EBB459;" d="M334.695,269.382c7.513-4.885,19.092-9.432,36.207-13.382
	c105.24-24.286,127.218-127.593,131.492-158.804c5.502,0.755,9.807,5.487,9.598,11.178
	c-5.385,147.056-114.597,200.612-114.597,200.612S363.32,290.773,334.695,269.382z"/>
<path style="fill:#DB8C45;" d="M335.496,203.023c0.03-0.002,0.052-0.008,0.082-0.01c15.497-1.423,29.708-4.731,42.868-9.152
	c27.297,22.856,46.195,55.262,51.884,92.054c-18.557,15.983-32.935,23.07-32.935,23.07s-11.975-6.411-27.66-16.058
	C366.772,257.922,354.227,226.607,335.496,203.023z"/>
<path style="fill:#E8A049;" d="M363.233,257.924c2.437-0.654,4.96-1.299,7.669-1.924c16.666-3.846,31.031-9.836,43.782-17.044
	c7.611,14.443,13.058,30.211,15.647,46.96c0,0-0.008,0.007-0.012,0.01c-16.205,13.954-29.214,21.122-32.249,22.712
	c-0.019,0.01-0.043,0.023-0.061,0.032c-0.382,0.199-0.616,0.316-0.616,0.316s-11.975-6.411-27.66-16.058
	C368.704,280.743,366.443,269.044,363.233,257.924z"/>
<rect x="96.942" y="344.31" style="fill:#EBB459;" width="317.916" height="52.986"/>
<rect x="344.21" y="344.31" style="fill:#F2C369;" width="70.648" height="52.986"/>
<g>
	<rect x="96.942" y="344.31" style="fill:#E8A049;" width="70.648" height="52.986"/>
	<path style="fill:#E8A049;" d="M414.858,344.31H96.942c-4.877,0-8.831-3.954-8.831-8.831l0,0c0-4.877,3.954-8.831,8.831-8.831
		h317.916c4.877,0,8.831,3.954,8.831,8.831l0,0C423.689,340.356,419.735,344.31,414.858,344.31z"/>
	<path style="fill:#E8A049;" d="M414.858,414.958H96.942c-4.877,0-8.831-3.954-8.831-8.831l0,0c0-4.877,3.954-8.831,8.831-8.831
		h317.916c4.877,0,8.831,3.954,8.831,8.831l0,0C423.689,411.004,419.735,414.958,414.858,414.958z"/>
	<circle style="fill:#E8A049;" cx="255.9" cy="370.803" r="8.831"/>
	<circle style="fill:#E8A049;" cx="291.224" cy="370.803" r="8.831"/>
	<circle style="fill:#E8A049;" cx="220.576" cy="370.803" r="8.831"/>
</g>
<g>
	<circle style="fill:#EBB459;" cx="361.872" cy="370.803" r="8.831"/>
	<circle style="fill:#EBB459;" cx="397.196" cy="370.803" r="8.831"/>
</g>
<circle style="fill:#E8A049;" cx="326.548" cy="370.803" r="8.831"/>
<circle style="fill:#DB8C45;" cx="149.928" cy="370.803" r="8.831"/>
<circle style="fill:#E8A049;" cx="185.252" cy="370.803" r="8.831"/>
<g>
	<circle style="fill:#DB8C45;" cx="114.604" cy="370.803" r="8.831"/>
	<path style="fill:#DB8C45;" d="M202.914,344.31H96.942c-4.877,0-8.831-3.954-8.831-8.831l0,0c0-4.877,3.954-8.831,8.831-8.831
		h105.972c4.877,0,8.831,3.954,8.831,8.831l0,0C211.745,340.356,207.791,344.31,202.914,344.31z"/>
	<path style="fill:#DB8C45;" d="M202.914,414.958H96.942c-4.877,0-8.831-3.954-8.831-8.831l0,0c0-4.877,3.954-8.831,8.831-8.831
		h105.972c4.877,0,8.831,3.954,8.831,8.831l0,0C211.745,411.004,207.791,414.958,202.914,414.958z"/>
</g>
<g>
	<path style="fill:#EBB459;" d="M379.534,344.31H344.21c-4.877,0-8.831-3.954-8.831-8.831l0,0c0-4.877,3.954-8.831,8.831-8.831
		h35.324c4.877,0,8.831,3.954,8.831,8.831l0,0C388.365,340.356,384.411,344.31,379.534,344.31z"/>
	<path style="fill:#EBB459;" d="M379.534,414.958H344.21c-4.877,0-8.831-3.954-8.831-8.831l0,0c0-4.877,3.954-8.831,8.831-8.831
		h35.324c4.877,0,8.831,3.954,8.831,8.831l0,0C388.365,411.004,384.411,414.958,379.534,414.958z"/>
</g>
<path style="fill:#895438;" d="M105.773,326.648c0-82.913,67.214-150.127,150.127-150.127s150.127,67.214,150.127,150.127"/>
<path style="fill:#6C392C;" d="M273.128,177.582c-5.662-0.648-11.393-1.062-17.227-1.062c-82.913,0-150.127,67.214-150.127,150.127
	h61.817C167.59,249.569,213.738,186.14,273.128,177.582z"/>
<path style="fill:#DB8C45;" d="M273.562,326.648h-35.324V176.52c0-4.877,3.954-8.831,8.831-8.831h17.662
	c4.877,0,8.831,3.954,8.831,8.831V326.648z"/>
<g>
</g>
<g>
</g>
<g>
</g>
<g>
</g>
<g>
</g>
<g>
</g>
<g>
</g>
<g>
</g>
<g>
</g>
<g>
</g>
<g>
</g>
<g>
</g>
<g>
</g>
<g>
</g>
<g>
</g>
</svg>
