<?xml version="1.0" encoding="iso-8859-1"?>
<!-- Generator: Adobe Illustrator 19.0.0, SVG Export Plug-In . SVG Version: 6.00 Build 0)  -->
<svg version="1.1" id="Layer_1" xmlns="http://www.w3.org/2000/svg" xmlns:xlink="http://www.w3.org/1999/xlink" x="0px" y="0px"
	 viewBox="0 0 512 512" style="enable-background:new 0 0 512 512;" xml:space="preserve">
<path style="fill:#59291D;" d="M255.271,97.107c-3.132-0.093-11.132-1.428-13.846,0.236c6.199-0.995,6.874-1.014,2.027-0.055
	c-2.008,0.488-3.968,1.127-5.879,1.917c-1.05,0.388-2.104,0.661-3.157,0.942c-0.218,1.588-0.484,3.164-0.484,4.812v8.828
	c0,29.425-23.172,34.759-26.483,97.103c0,0,34.574,28.69,61.793,26.483V97.868C264.588,97.556,259.934,97.245,255.271,97.107z"/>
<path style="fill:#6C392C;" d="M304.552,104.959c0-1.7-0.268-3.328-0.5-4.963c-0.064-0.023-0.137-0.032-0.2-0.056
	c-5.197-1.97-10.492-3.875-15.921-5.129c-6.374-0.679-12.585-1.411-18.69-2.89v163.107c30.161-67.678,44.138-70.621,44.138-70.621
	c0-18.023-8.828-28.321-8.828-70.621V104.959z"/>
<g>
	<polygon style="fill:#8044C2;" points="189.793,229.517 189.793,326.621 216.276,370.759 216.276,256 198.621,220.69 	"/>
	<path style="fill:#8044C2;" d="M234.483,196.966c-7.828-0.099-14.537-1.902-20.209-4.86L198.621,512h141.241l-15.763-322.185
		C294.249,192.715,264.572,197.345,234.483,196.966z"/>
</g>
<path style="fill:#9044C2;" d="M301.436,512l-8.828-216.276c0-2.438-1.976-4.414-4.414-4.414l0,0c-2.438,0-4.414,1.976-4.414,4.414
	V512H301.436z"/>
<path style="fill:#9F44C2;" d="M309.783,181.526c-1.242,0.095-2.486,0.073-3.73,0.086L322.207,512h17.655l-16.234-332.075
	C319.011,180.434,314.415,181.169,309.783,181.526z"/>
<path style="fill:#7939B5;" d="M260.414,512V375.172c0-2.438-1.976-4.414-4.414-4.414c-2.438,0-4.414,1.976-4.414,4.414L245.875,512
	H260.414z"/>
<path style="fill:#895438;" d="M185.379,511.979L185.379,511.979c-2.438,0-4.414-1.976-4.414-4.414V61.772h8.828v445.793
	C189.793,510.003,187.817,511.979,185.379,511.979z"/>
<path style="fill:#8044C2;" d="M348.69,326.621c0-41.126-4.046-79.081-10.159-122.745l-5.406-32.436
	c-1.248-7.491-7.148-13.345-14.649-14.535l-49.234-7.808l-49.235,7.808c-7.501,1.19-13.401,7.043-14.649,14.535l-15.564,93.388
	h132.414v105.931L348.69,326.621z"/>
<path style="fill:#722EA8;" d="M233.931,512V185.379l-18.323-13.742c-0.227,1.202-0.473,2.399-0.533,3.655L198.621,512H233.931z"/>
<path style="fill:#9F44C2;" d="M335.967,430.204l-8.748-174.87l-3.811-80.042c-0.37-7.779-4.14-14.557-9.752-19.151l-44.414-7.043
	l-44.414,7.043c-5.612,4.595-9.383,11.373-9.752,19.151l-1.671,35.079c0.899,3.403,1.935,7.158,3.059,11.115
	c0.098,0.345,0.212,0.718,0.312,1.068c1.098,3.844,2.313,7.932,3.628,12.217c0.001,0.004,0.003,0.009,0.004,0.013
	c2.81,9.167,6.146,19.267,10.006,30.025c0.002,0.007,0.004,0.012,0.007,0.019l0,0C249.927,319.196,283.274,381.158,335.967,430.204z
	"/>
<path style="fill:#BA5ACB;" d="M323.407,175.292c-0.37-7.779-4.14-14.557-9.752-19.151l-8.621-1.366
	c0.33,9.425,0.711,20.337,0.718,20.519l11.644,235.694c5.937,6.66,12.055,13.153,18.571,19.218l-8.748-174.87L323.407,175.292z"/>
<path style="fill:#FFC69F;" d="M269.241,175.445c9.044,0,16.387-10.461,17.418-23.61l-17.418-2.738l-17.418,2.738
	C252.854,164.984,260.198,175.445,269.241,175.445z"/>
<path style="fill:#FFB98F;" d="M269.241,157.924L269.241,157.924c-4.875,0-8.828-3.953-8.828-8.828v-26.483h17.655v26.483
	C278.069,153.973,274.116,157.924,269.241,157.924z"/>
<path style="fill:#FFD5B2;" d="M287.862,136.683l-8.828,5.885c-5.93,3.954-13.656,3.954-19.586,0l-8.828-5.885
	c-4.911-3.274-7.862-8.787-7.862-14.69V87.304h52.966v34.689C295.724,127.896,292.773,133.409,287.862,136.683z"/>
<path style="fill:#FFC69F;" d="M251.586,117.269v-12.31l-8.828,8.828v8.206c0,5.903,2.951,11.415,7.862,14.69l8.828,5.886
	c2.102,1.401,4.45,2.125,6.844,2.534C258.857,138.851,251.586,129.361,251.586,117.269z"/>
<path style="fill:#895438;" d="M283.99,95.159c-1.934-0.584-12.481-2.019-10.318-2.198c-3.325-0.092-6.618-0.131-9.975-0.159
	c-1.429-0.012-2.323-0.06-2.906-0.121c-0.482,0.174-1.199,0.397-2.25,0.683c-1.976,0.535-17.011,6.098-8.585,2.127
	c-5.142,2.423-10.369,3.935-15.545,4.719c-0.213,1.567-0.479,3.121-0.479,4.748v8.828c13.418,0,41.512-2.679,60.562-17.07
	C290.942,96.655,287.406,96.19,283.99,95.159z"/>
<path style="fill:#8044C2;" d="M292.893,24.221l-7.861-12.586c-1.07,0.363-2.162,0.55-3.139,0.436
	c-0.405-0.046-0.791-0.063-1.198-0.065c-0.457-0.003-0.886-0.083-1.324-0.139l2.656,19.623l4.619,1.138
	c2.342,0.577,4.798-0.359,6.136-2.337C294.018,28.461,294.061,26.091,292.893,24.221z"/>
<path style="fill:#9F44C2;" d="M281.583,15.734l9.764,6.013l-11.711-18.75C278.473,1.134,276.413,0,274.193,0h-6.749
	c-3.944,0-7.372,2.666-8.289,6.444L237.28,96.566h63.923L281.583,15.734z"/>
<path style="fill:#BA5ACB;" d="M292.68,92.367l-16.538-81.472c-0.263-1.293,0.742-2.499,2.079-2.499l0,0
	c0.982,0,1.835,0.664,2.062,1.606l20.92,86.563L292.68,92.367z"/>
<path style="fill:#8044C2;" d="M266.861,3.524C267.197,1.493,268.979,0,271.068,0h-3.625c-3.944,0-7.372,2.665-8.289,6.444
	l-21.875,90.122h8.828l6.088-4.199L266.861,3.524z"/>
<path style="fill:#FFC83C;" d="M298.406,81.343c-0.12-0.023-0.235-0.045-0.356-0.07c-8.554-1.686-18.251-3.597-28.808-3.597
	c-10.557,0-20.254,1.911-28.808,3.597c-0.12,0.024-0.236,0.046-0.355,0.07l-4.396,17.323h9.033
	c7.758-1.512,15.796-2.922,24.526-2.922s16.768,1.411,24.526,2.922h9.033L298.406,81.343z"/>
<path style="fill:#FFB432;" d="M240.434,81.273c-0.12,0.024-0.236,0.046-0.355,0.07l-4.113,16.209l10.143-0.985l6.088-4.199
	l2.24-13.57C249.495,79.491,244.812,80.409,240.434,81.273z"/>
<path style="fill:#722EA8;" d="M317.711,104.958c-6.825,0-13.943-1.404-21.333-2.859c-8.567-1.688-17.423-3.434-27.137-3.434
	s-18.57,1.746-27.137,3.434c-11.153,2.199-21.688,4.277-31.531,1.588c-2.268-0.618-3.597-2.932-2.969-5.166s2.976-3.548,5.244-2.925
	c7.884,2.151,17.014,0.352,27.585-1.73c8.554-1.686,18.251-3.597,28.808-3.597s20.254,1.911,28.808,3.597
	c10.571,2.083,19.701,3.882,27.585,1.73c2.272-0.622,4.617,0.691,5.244,2.925c0.628,2.234-0.702,4.548-2.969,5.166
	C324.588,104.593,321.187,104.958,317.711,104.958z"/>
<path style="fill:#B1ABB5;" d="M185.379,105.931L185.379,105.931c-4.875,0-8.828-3.953-8.828-8.828V62.897
	c0-0.609,0.494-1.103,1.103-1.103h15.448c0.609,0,1.103,0.494,1.103,1.103v34.207C194.207,101.978,190.254,105.931,185.379,105.931z
	"/>
<path style="fill:#FFB432;" d="M185.379,79.448L185.379,79.448c-7.313,0-11.77-4.966-13.241-13.241V0h35.31l-8.828,66.207
	C197.15,74.298,192.692,79.448,185.379,79.448z"/>
<path style="fill:#FFA01F;" d="M180.966,78.638V0H163.31l8.828,66.207C173.057,72.46,175.834,76.814,180.966,78.638z"/>
<path style="fill:#FFD5B2;" d="M189.793,229.496h-8.828c-4.875,0-8.828-3.953-8.828-8.828v-17.655c0-4.875,3.953-8.828,8.828-8.828
	h8.828c4.875,0,8.828,3.953,8.828,8.828v17.655C198.621,225.545,194.668,229.496,189.793,229.496z"/>
<g>
</g>
<g>
</g>
<g>
</g>
<g>
</g>
<g>
</g>
<g>
</g>
<g>
</g>
<g>
</g>
<g>
</g>
<g>
</g>
<g>
</g>
<g>
</g>
<g>
</g>
<g>
</g>
<g>
</g>
</svg>
