<?xml version="1.0" encoding="iso-8859-1"?>
<!-- Generator: Adobe Illustrator 19.0.0, SVG Export Plug-In . SVG Version: 6.00 Build 0)  -->
<svg version="1.1" id="Layer_1" xmlns="http://www.w3.org/2000/svg" xmlns:xlink="http://www.w3.org/1999/xlink" x="0px" y="0px"
	 viewBox="0 0 512 512" style="enable-background:new 0 0 512 512;" xml:space="preserve">
<rect x="66.207" y="317.793" style="fill:#DBC589;" width="35.31" height="97.103"/>
<rect x="66.207" y="317.793" style="fill:#CBB076;" width="17.655" height="88.276"/>
<path style="fill:#813F0D;" d="M83.862,335.448L83.862,335.448c-4.875,0-8.828,3.953-8.828,8.828v44.138H92.69v-44.138
	C92.69,339.401,88.737,335.448,83.862,335.448z"/>
<polygon style="fill:#FF5A4E;" points="83.862,229.517 57.379,317.793 110.345,317.793 "/>
<polygon style="fill:#EB443F;" points="83.862,229.517 57.379,317.793 77.241,317.793 "/>
<g>
	<rect x="136.828" y="211.862" style="fill:#DBC589;" width="35.31" height="97.103"/>
	<rect x="128" y="317.793" style="fill:#DBC589;" width="52.966" height="194.207"/>
</g>
<g>
	<rect x="128" y="317.793" style="fill:#CBB076;" width="17.655" height="194.207"/>
	<rect x="136.828" y="211.862" style="fill:#CBB076;" width="17.655" height="88.276"/>
</g>
<polygon style="fill:#FF5A4E;" points="136.828,282.483 119.172,326.621 189.793,326.621 172.138,282.483 "/>
<g>
	<path style="fill:#813F0D;" d="M154.483,344.276L154.483,344.276c-4.875,0-8.828,3.953-8.828,8.828v17.655h17.655v-17.655
		C163.31,348.228,159.358,344.276,154.483,344.276z"/>
	<path style="fill:#813F0D;" d="M154.483,229.517L154.483,229.517c-4.875,0-8.828,3.953-8.828,8.828v44.138h17.655v-44.138
		C163.31,233.47,159.358,229.517,154.483,229.517z"/>
</g>
<polygon style="fill:#FF5A4E;" points="154.483,123.586 128,211.862 180.966,211.862 "/>
<polygon style="fill:#EB443F;" points="154.483,123.586 128,211.862 147.862,211.862 "/>
<g>
	<rect x="128" y="361.931" style="fill:#825A39;" width="52.966" height="17.655"/>
	<rect x="66.207" y="397.241" style="fill:#825A39;" width="61.793" height="17.655"/>
</g>
<path style="fill:#813F0D;" d="M154.483,397.241L154.483,397.241c-4.875,0-8.828,3.953-8.828,8.828v88.276h17.655v-88.276
	C163.31,401.194,159.358,397.241,154.483,397.241z"/>
<g>
	<rect x="401.655" y="211.862" style="fill:#DBC589;" width="35.31" height="97.103"/>
	<rect x="392.828" y="317.793" style="fill:#DBC589;" width="52.966" height="194.207"/>
</g>
<g>
	<rect x="392.828" y="317.793" style="fill:#CBB076;" width="17.655" height="194.207"/>
	<rect x="401.655" y="211.862" style="fill:#CBB076;" width="17.655" height="88.276"/>
</g>
<polygon style="fill:#FF5A4E;" points="401.655,282.483 384,326.621 454.621,326.621 436.966,282.483 "/>
<g>
	<path style="fill:#813F0D;" d="M419.31,344.276L419.31,344.276c-4.875,0-8.828,3.953-8.828,8.828v17.655h17.655v-17.655
		C428.138,348.228,424.185,344.276,419.31,344.276z"/>
	<path style="fill:#813F0D;" d="M419.31,229.517L419.31,229.517c-4.875,0-8.828,3.953-8.828,8.828v44.138h17.655v-44.138
		C428.138,233.47,424.185,229.517,419.31,229.517z"/>
</g>
<polygon style="fill:#FF5A4E;" points="419.31,123.586 392.828,211.862 445.793,211.862 "/>
<polygon style="fill:#EB443F;" points="419.31,123.586 392.828,211.862 412.69,211.862 "/>
<rect x="189.793" y="88.276" style="fill:#DBC589;" width="35.31" height="97.103"/>
<polygon style="fill:#EBD798;" points="392.828,256 313.379,141.241 233.931,256 233.931,512 392.828,512 "/>
<path style="fill:#9D6D48;" d="M313.379,388.414L313.379,388.414c-14.626,0-26.483,11.857-26.483,26.483V512h52.966v-97.103
	C339.862,400.27,328.006,388.414,313.379,388.414z"/>
<polygon style="fill:#FF5A4E;" points="397.793,278.681 313.379,158.897 228.966,278.681 214.449,268.629 313.379,123.586 
	412.31,268.629 "/>
<g>
	<rect x="233.931" y="344.276" style="fill:#9D6D48;" width="158.897" height="17.655"/>
	<rect x="233.931" y="291.31" style="fill:#9D6D48;" width="158.897" height="17.655"/>
</g>
<g>
	<path style="fill:#813F0D;" d="M331.034,317.793L331.034,317.793c-4.875,0-8.828,3.953-8.828,8.828v17.655h17.655v-17.655
		C339.862,321.746,335.91,317.793,331.034,317.793z"/>
	<path style="fill:#813F0D;" d="M366.345,317.793L366.345,317.793c-4.875,0-8.828,3.953-8.828,8.828v17.655h17.655v-17.655
		C375.172,321.746,371.22,317.793,366.345,317.793z"/>
	<path style="fill:#813F0D;" d="M295.724,317.793L295.724,317.793c-4.875,0-8.828,3.953-8.828,8.828v17.655h17.655v-17.655
		C304.552,321.746,300.599,317.793,295.724,317.793z"/>
	<path style="fill:#813F0D;" d="M331.034,229.517L331.034,229.517c-4.875,0-8.828,3.953-8.828,8.828v52.965h17.655v-52.965
		C339.862,233.47,335.91,229.517,331.034,229.517z"/>
	<path style="fill:#813F0D;" d="M295.724,229.517L295.724,229.517c-4.875,0-8.828,3.953-8.828,8.828v52.965h17.655v-52.965
		C304.552,233.47,300.599,229.517,295.724,229.517z"/>
	<path style="fill:#813F0D;" d="M260.414,317.793L260.414,317.793c-4.875,0-8.828,3.953-8.828,8.828v17.655h17.655v-17.655
		C269.241,321.746,265.289,317.793,260.414,317.793z"/>
</g>
<rect x="180.966" y="194.207" style="fill:#DBC589;" width="52.966" height="317.793"/>
<g>
	<rect x="180.966" y="194.207" style="fill:#CBB076;" width="17.655" height="317.793"/>
	<rect x="189.793" y="88.276" style="fill:#CBB076;" width="17.655" height="88.276"/>
</g>
<polygon style="fill:#FF5A4E;" points="189.793,158.897 172.138,203.034 242.759,203.034 225.103,158.897 "/>
<g>
	<rect x="180.966" y="273.655" style="fill:#9D6D48;" width="52.966" height="17.655"/>
	<rect x="180.966" y="361.931" style="fill:#9D6D48;" width="52.966" height="17.655"/>
</g>
<rect x="392.828" y="361.931" style="fill:#825A39;" width="52.966" height="17.655"/>
<path style="fill:#813F0D;" d="M207.448,220.69L207.448,220.69c-4.875,0-8.828,3.953-8.828,8.828v44.138h17.655v-44.138
	C216.276,224.642,212.323,220.69,207.448,220.69z"/>
<path style="fill:#A63F0D;" d="M215.172,105.931h-15.448c-0.609,0-1.103,0.494-1.103,1.103v51.862h17.655v-51.862
	C216.276,106.425,215.782,105.931,215.172,105.931z"/>
<g>
	<path style="fill:#813F0D;" d="M207.448,308.966L207.448,308.966c-4.875,0-8.828,3.953-8.828,8.828v44.138h17.655v-44.138
		C216.276,312.918,212.323,308.966,207.448,308.966z"/>
	<path style="fill:#813F0D;" d="M207.448,397.241L207.448,397.241c-4.875,0-8.828,3.953-8.828,8.828v88.276h17.655v-88.276
		C216.276,401.194,212.323,397.241,207.448,397.241z"/>
	<path style="fill:#813F0D;" d="M419.31,397.241L419.31,397.241c-4.875,0-8.828,3.953-8.828,8.828v88.276h17.655v-88.276
		C428.138,401.194,424.185,397.241,419.31,397.241z"/>
	<path style="fill:#813F0D;" d="M260.414,397.241L260.414,397.241c-4.875,0-8.828,3.953-8.828,8.828v88.276h17.655v-88.276
		C269.241,401.194,265.289,397.241,260.414,397.241z"/>
	<path style="fill:#813F0D;" d="M366.345,397.241L366.345,397.241c-4.875,0-8.828,3.953-8.828,8.828v88.276h17.655v-88.276
		C375.172,401.194,371.22,397.241,366.345,397.241z"/>
</g>
<polygon style="fill:#FF5A4E;" points="207.448,0 180.966,88.276 233.931,88.276 "/>
<polygon style="fill:#EB443F;" points="207.448,0 180.966,88.276 200.828,88.276 "/>
<g>
	<rect x="83.862" y="414.897" style="fill:#CBB076;" width="44.138" height="97.103"/>
	<rect x="101.517" y="379.586" style="fill:#CBB076;" width="26.483" height="17.655"/>
</g>
<g>
</g>
<g>
</g>
<g>
</g>
<g>
</g>
<g>
</g>
<g>
</g>
<g>
</g>
<g>
</g>
<g>
</g>
<g>
</g>
<g>
</g>
<g>
</g>
<g>
</g>
<g>
</g>
<g>
</g>
</svg>
