<?xml version="1.0" encoding="UTF-8" standalone="no"?>
<svg width="214px" height="152px" viewBox="0 0 214 152" version="1.1" xmlns="http://www.w3.org/2000/svg" xmlns:xlink="http://www.w3.org/1999/xlink">
    <!-- Generator: Sketch 39.1 (31720) - http://www.bohemiancoding.com/sketch -->
    <title>Slice 1</title>
    <desc>Created with Sketch.</desc>
    <defs>
        <linearGradient x1="0.000153993968%" y1="49.9990112%" x2="100%" y2="49.9990112%" id="linearGradient-1">
            <stop stop-color="#FFEE27" offset="0%"></stop>
            <stop stop-color="#FFE612" offset="14.25%"></stop>
            <stop stop-color="#FFD600" offset="45.75%"></stop>
            <stop stop-color="#FECC00" offset="75.11%"></stop>
            <stop stop-color="#FDC800" offset="100%"></stop>
        </linearGradient>
        <linearGradient x1="49.9993484%" y1="-8.29925435e-14%" x2="49.9993484%" y2="100%" id="linearGradient-2">
            <stop stop-color="#3E3D40" offset="0%"></stop>
            <stop stop-color="#000000" offset="100%"></stop>
        </linearGradient>
        <linearGradient x1="50%" y1="0%" x2="50%" y2="100%" id="linearGradient-3">
            <stop stop-color="#FFEE27" offset="0%"></stop>
            <stop stop-color="#FFE612" offset="14.25%"></stop>
            <stop stop-color="#FFD600" offset="45.75%"></stop>
            <stop stop-color="#FECC00" offset="75.11%"></stop>
            <stop stop-color="#FDC800" offset="100%"></stop>
        </linearGradient>
        <linearGradient x1="49.9998542%" y1="0%" x2="49.9998542%" y2="100%" id="linearGradient-4">
            <stop stop-color="#3E3D40" offset="0%"></stop>
            <stop stop-color="#000000" offset="100%"></stop>
        </linearGradient>
        <linearGradient x1="50.000124%" y1="-3.42353514e-14%" x2="50.000124%" y2="100%" id="linearGradient-5">
            <stop stop-color="#FFEE27" offset="0%"></stop>
            <stop stop-color="#FFE612" offset="14.25%"></stop>
            <stop stop-color="#FFD600" offset="45.75%"></stop>
            <stop stop-color="#FECC00" offset="75.11%"></stop>
            <stop stop-color="#FDC800" offset="100%"></stop>
        </linearGradient>
        <linearGradient x1="49.9998317%" y1="0%" x2="49.9998317%" y2="100%" id="linearGradient-6">
            <stop stop-color="#FFEE27" offset="0%"></stop>
            <stop stop-color="#FFE612" offset="14.25%"></stop>
            <stop stop-color="#FFD600" offset="45.75%"></stop>
            <stop stop-color="#FECC00" offset="75.11%"></stop>
            <stop stop-color="#FDC800" offset="100%"></stop>
        </linearGradient>
        <linearGradient x1="49.9999716%" y1="0%" x2="49.9999716%" y2="100%" id="linearGradient-7">
            <stop stop-color="#3E3D40" offset="0%"></stop>
            <stop stop-color="#000000" offset="100%"></stop>
        </linearGradient>
        <radialGradient cx="38.1264256%" cy="39.4049449%" fx="38.1264256%" fy="39.4049449%" r="43.5983172%" id="radialGradient-8">
            <stop stop-color="#FFEE27" offset="0%"></stop>
            <stop stop-color="#FFE91C" offset="13.17%"></stop>
            <stop stop-color="#FDC800" offset="100%"></stop>
        </radialGradient>
        <linearGradient x1="0.00010098657%" y1="50.0001033%" x2="100%" y2="50.0001033%" id="linearGradient-9">
            <stop stop-color="#FFEE27" offset="0%"></stop>
            <stop stop-color="#FFE612" offset="14.25%"></stop>
            <stop stop-color="#FFD600" offset="45.75%"></stop>
            <stop stop-color="#FECC00" offset="75.11%"></stop>
            <stop stop-color="#FDC800" offset="100%"></stop>
        </linearGradient>
    </defs>
    <g id="Page-1" stroke="none" stroke-width="1" fill="none" fill-rule="evenodd">
        <path d="M76.9829,125.0358 C76.9829,125.0358 71.3491,131.3561 63.1123,131.3561 C62.1206,131.7584 61.1338,132.1344 60.0312,132.0202 C59.061,131.9196 59.0928,131.1247 59.9336,130.7975 C59.0308,130.9108 57.3276,130.6032 58.3008,128.8424 C59.0386,127.5084 63.1885,129.5397 63.1885,129.5397 C63.1885,129.5397 67.5498,130.6559 75.7519,124.0524" id="Shape" stroke="#000000" stroke-width="0.4243" fill="url(#linearGradient-1)"></path>
        <g id="Group" transform="translate(80.000000, 8.000000)">
            <g id="Shape">
                <path d="M25.4839,74.0744 C25.4839,74.0744 -22.1138,-2.8734 16.7573,1.0929 C55.6284,5.0587 27.0708,35.9967 39.7627,68.5216" fill="#F6F6F6"></path>
                <path d="M24.9471,74.4054 C24.9471,74.4054 24.6396,73.8119 24.0632,72.699 C23.4734,71.5975 22.6001,69.9899 21.4572,67.9631 C19.1613,63.9161 15.9151,58.1097 12.428,50.9269 C10.6915,47.3331 8.8644,43.4094 7.1263,39.1699 C5.3945,34.9302 3.7101,30.3842 2.4367,25.52 C1.8037,23.0883 1.2738,20.5766 0.9576,17.9857 C0.676,15.3972 0.5413,12.7097 1.0508,10.0111 C1.3105,8.6703 1.6996,7.3201 2.3655,6.0656 C3.0236,4.8131 3.9397,3.6632 5.0672,2.7675 C6.1923,1.8695 7.498,1.2193 8.8494,0.8081 C10.2062,0.4268 11.5934,0.1983 12.973,0.1478 C13.6636,0.0997 14.3482,0.1406 15.0359,0.1348 C15.7244,0.1895 16.3817,0.2158 17.0952,0.2956 C18.4165,0.483 19.7139,0.5889 21.0459,0.872 C23.7226,1.3511 26.3131,2.0993 28.7977,3.1569 C31.2542,4.2637 33.5515,5.8552 35.2282,7.9759 C36.9307,10.0846 37.8469,12.6641 38.2717,15.1703 C38.6983,17.694 38.7006,20.1886 38.592,22.5989 C38.4831,25.0133 38.2117,27.3503 37.9536,29.6212 C37.4126,34.159 36.8303,38.431 36.537,42.4011 C36.2587,46.3703 36.2407,50.0262 36.4648,53.2529 C36.7183,56.4759 37.1222,59.2744 37.6498,61.5381 C38.1533,63.8065 38.7961,65.5292 39.3931,66.6298 C39.9587,67.7442 40.3503,68.2925 40.3503,68.2925 L39.1753,68.751 C39.1753,68.751 39.1256,68.0467 38.8639,66.8128 C38.7279,66.2008 38.5603,65.446 38.3632,64.5586 C38.1961,63.6666 37.861,62.6828 37.6387,61.5408 C37.0829,59.283 36.6438,56.4877 36.3499,53.2617 C36.0795,50.0318 36.071,46.368 36.2744,42.3853 C36.4397,38.3988 36.8852,34.0958 37.2783,29.5531 C37.4638,27.282 37.6557,24.9482 37.681,22.5702 C37.7084,20.1963 37.6185,17.7649 37.1323,15.3875 C36.6584,13.0122 35.6933,10.7214 34.1493,8.8433 C32.608,6.9607 30.5055,5.5409 28.187,4.54 C25.844,3.5888 23.3339,2.9056 20.7942,2.4941 C20.1715,2.358 19.5061,2.2913 18.849,2.2101 L16.877,1.95 C16.2726,1.8813 15.6023,1.85 14.9678,1.7971 C14.3286,1.8031 13.6831,1.7607 13.0488,1.8047 C11.7722,1.847 10.524,2.0565 9.3263,2.3861 C8.1387,2.745 7.0339,3.2994 6.09,4.0474 C4.1752,5.5361 3.0786,7.8717 2.6403,10.3149 C2.1472,12.761 2.217,15.3257 2.4548,17.82 C2.7217,20.3222 3.2003,22.7833 3.7853,25.1785 C4.9689,29.97 6.542,34.5083 8.1876,38.7459 C9.8416,42.9828 11.5673,46.9312 13.2739,50.522 C16.6811,57.7079 19.8335,63.5489 22.1174,67.5885 C24.4144,71.6244 26.0207,73.7436 26.0207,73.7436 L24.9471,74.4054 L24.9471,74.4054 Z" fill="#000000"></path>
            </g>
            <path d="M25.2523,66.1349 C25.2523,66.1349 24.4366,65.1046 23.4713,63.4388 C22.9808,62.608 22.4554,61.6129 21.9473,60.5225 C21.4418,59.4311 20.948,58.2461 20.5369,57.0327 C20.3099,56.4337 20.1458,55.8134 19.9587,55.2124 C19.7651,54.613 19.647,54.0023 19.4939,53.4234 C19.3359,52.8451 19.2608,52.2682 19.1481,51.7314 C19.0336,51.1944 18.9716,50.6788 18.9111,50.2039 C18.7672,49.2569 18.7195,48.4607 18.6852,47.9039 C18.6469,47.3478 18.6251,47.03 18.6251,47.03 C18.6251,47.03 18.6586,47.3468 18.7173,47.9013 C18.772,48.4559 18.8488,49.2479 19.0269,50.1863 C19.1046,50.6569 19.1849,51.1671 19.3186,51.6975 C19.4506,52.2276 19.5456,52.7965 19.7239,53.3656 C19.8974,53.9353 20.036,54.5352 20.2501,55.1227 C20.4577,55.7118 20.6421,56.3189 20.8888,56.9036 C21.3394,58.0884 21.8703,59.2406 22.4078,60.2975 C22.948,61.3535 23.5006,62.3128 24.0115,63.1096 C25.0255,64.7171 25.8336,65.6614 25.8336,65.6614 L25.2523,66.1349 L25.2523,66.1349 Z" id="Shape" fill="#000000"></path>
            <path d="M28.3395,64.7788 C28.3395,64.7788 27.94,63.7062 27.6833,62.0776 C27.563,61.2602 27.4438,60.3033 27.421,59.2745 C27.3734,58.2466 27.4251,57.1508 27.5062,56.0612 C27.5716,55.519 27.637,54.9768 27.7015,54.4431 C27.7954,53.9145 27.8879,53.3944 27.9774,52.891 C28.2066,51.8944 28.4272,50.9685 28.6819,50.1922 C28.8983,49.4054 29.1586,48.7759 29.3159,48.3279 C29.4791,47.8819 29.5723,47.6271 29.5723,47.6271 C29.5723,47.6271 29.4901,47.8858 29.3463,48.3385 C29.2085,48.7928 28.9763,49.4306 28.7947,50.2239 C28.5747,51.0068 28.3952,51.9375 28.2108,52.934 C28.1438,53.436 28.0745,53.9547 28.0041,54.4818 C27.9633,55.0112 27.9219,55.5489 27.8804,56.0867 C27.8472,57.1642 27.8427,58.2417 27.933,59.2454 C27.9985,60.2507 28.1556,61.1776 28.306,61.9642 C28.467,62.7498 28.6508,63.3895 28.7904,63.8304 C28.8666,64.0448 28.9265,64.2132 28.9673,64.328 C29.0125,64.4414 29.0366,64.5018 29.0366,64.5018 L28.3395,64.7788 L28.3395,64.7788 Z" id="Shape" fill="#000000"></path>
        </g>
        <path d="M195.0127,109.0749 C195.0127,109.0749 206.542,110.0827 209.6611,108.6071 C210.2139,109.6295 203.29,114.487 195.3183,113.6305" id="Shape" fill="#000000"></path>
        <g id="Group" transform="translate(60.000000, 68.000000)" stroke="#000000" stroke-width="0.6941">
            <path d="M137.3164,41.5397 C137.3164,36.1989 135.6406,31.1002 132.6201,26.4108 C132.5459,37.777 131.5566,49.2584 129.6435,60.6569 C134.5351,54.9342 137.3164,48.4362 137.3164,41.5397 L137.3164,41.5397 Z" id="Shape" fill="url(#linearGradient-2)"></path>
            <path d="M109.8975,8.2731 C111.3594,24.5836 110.665,41.5036 107.7432,58.2448 C106.6094,64.7399 105.1416,71.1432 103.3789,77.4186 C114.5332,73.4645 123.6709,67.6442 129.6435,60.6569 C131.5566,49.2584 132.5459,37.777 132.6201,26.4108 C127.9424,19.1461 120.0127,12.8737 109.8975,8.2731 L109.8975,8.2731 Z" id="Shape" fill="url(#linearGradient-3)"></path>
            <path d="M86.9492,1.4791 C89.4424,18.4801 89.1973,36.5475 86.0703,54.4625 C84.3779,64.1569 81.8662,73.6012 78.6494,82.6344 C87.5625,81.8727 95.918,80.0641 103.3789,77.4186 C105.1416,71.1432 106.6094,64.7399 107.7432,58.2448 C110.665,41.5036 111.3594,24.5836 109.8975,8.2731 C103.1142,5.1891 95.3506,2.8629 86.9492,1.4791 Z" id="Shape" fill="url(#linearGradient-4)"></path>
            <path d="M64.4541,0.1364 C67.3808,16.0846 67.4111,33.4157 64.3979,50.6793 C62.4746,61.6959 59.3779,72.317 55.2759,82.1989 C59.7334,82.7565 64.3486,83.0495 69.0771,83.0495 C72.3271,83.0495 75.5195,82.902 78.6494,82.6344 C81.8662,73.6012 84.3779,64.1569 86.0703,54.4625 C89.1973,36.5475 89.4424,18.4801 86.9492,1.4791 C81.251,0.5407 75.2637,0.0309 69.0771,0.0309 C67.5215,0.0309 65.9834,0.0739 64.4541,0.1364 L64.4541,0.1364 Z" id="Shape" fill="url(#linearGradient-5)"></path>
            <path d="M64.4541,0.1364 C57.5044,0.4196 50.8428,1.3336 44.6172,2.7887 C47.3008,16.65 47.3701,31.9196 44.6958,47.2399 C42.7803,58.2116 39.6167,68.444 35.479,77.6647 C41.5605,79.7624 48.2143,81.317 55.2759,82.1989 C59.3779,72.317 62.4746,61.6959 64.3979,50.6793 C67.4111,33.4157 67.3808,16.0846 64.4541,0.1364 L64.4541,0.1364 Z" id="Shape" fill="url(#linearGradient-4)"></path>
            <path d="M25.979,43.9723 C24.3813,53.1247 21.7549,61.6618 18.375,69.3161 C23.2822,72.6286 29.0591,75.4508 35.479,77.6647 C39.6167,68.444 42.7803,58.2116 44.6958,47.2399 C47.3701,31.9196 47.3008,16.65 44.6172,2.7887 C38.0019,4.3346 31.8857,6.4879 26.4482,9.1383 C28.1611,19.7653 28.1279,31.6637 25.979,43.9723 L25.979,43.9723 Z" id="Shape" fill="url(#linearGradient-6)"></path>
            <path d="M26.4482,9.1383 C10.8423,16.7457 0.8389,28.4284 0.8389,41.5397 C0.8389,52.2223 7.477,61.9596 18.375,69.3161 C21.7549,61.6618 24.3813,53.1247 25.979,43.9723 C28.1279,31.6637 28.1611,19.7653 26.4482,9.1383 L26.4482,9.1383 Z" id="Shape" fill="url(#linearGradient-7)"></path>
        </g>
        <path d="M198.1484,106.1784 C197.3486,104.359 196.3291,102.5988 195.1191,100.8786 C189.9785,93.6085 181.2588,87.3385 170.1289,82.7384 C162.6689,79.6588 154.1387,77.3288 144.8984,75.9484 C138.6289,75.0084 132.0488,74.4987 125.2388,74.4987 C123.5288,74.4987 121.8389,74.5387 120.1587,74.5988 C112.5185,74.8888 105.1885,75.7985 98.3389,77.2584 C91.0688,78.7985 84.3389,80.9586 78.3589,83.6085 C77.3188,84.0685 76.2886,84.5485 75.2988,85.0387 C78.8086,82.1486 82.9287,79.5587 87.5288,77.3185 C92.9687,74.6686 99.0786,72.5084 105.6987,70.9684 C111.9287,69.5084 118.5889,68.5988 125.5386,68.3087 C127.0688,68.2487 128.5986,68.2086 130.1587,68.2086 C136.3486,68.2086 142.3291,68.7184 148.0283,69.6588 C156.4287,71.0387 164.1982,73.3688 170.9785,76.4484 C181.0986,81.0485 189.0185,87.3185 193.6982,94.5885 C196.0488,98.2287 197.5791,102.1188 198.1484,106.1784 L198.1484,106.1784 Z" id="Shape" fill="#F6F6F6" opacity="0.1"></path>
        <g id="Group" transform="translate(5.000000, 50.000000)">
            <ellipse id="Oval" fill="url(#radialGradient-8)" cx="43.3686" cy="38.4347" rx="43.0957" ry="36.8823"></ellipse>
            <path d="M0.5413,38.4188 C0.5413,38.4188 0.5917,39.4002 0.6863,41.2405 C0.6766,42.1729 0.9351,43.2641 1.1422,44.5705 C1.2817,45.8908 1.8286,47.3311 2.3002,48.9705 C2.5585,49.7842 2.9722,50.5902 3.3273,51.4637 C3.5186,51.8949 3.6939,52.3461 3.9102,52.789 C4.1534,53.2187 4.4019,53.6577 4.6556,54.1058 C5.1733,54.9958 5.6678,55.9492 6.362,56.8225 C6.6885,57.2718 7.0209,57.7292 7.359,58.1945 C7.5284,58.4266 7.6993,58.6606 7.8716,58.8965 C8.0666,59.1145 8.2631,59.3344 8.4613,59.556 C11.5222,63.1849 15.7241,66.6674 20.9137,69.3381 C26.0909,72.0155 32.2441,73.8748 38.8901,74.4286 C39.7213,74.4779 40.5612,74.4878 41.4042,74.52 C42.2371,74.5246 43.1194,74.6247 43.9256,74.5522 C44.791,74.5052 45.6616,74.458 46.5373,74.4104 C46.9735,74.3823 47.4177,74.3724 47.851,74.3292 L49.1338,74.1449 C49.9903,74.0231 50.8514,73.9006 51.7169,73.7776 C52.5783,73.6127 53.4386,73.3872 54.3053,73.1943 C56.0563,72.8625 57.7346,72.2064 59.459,71.6717 C66.2104,69.1643 72.7077,65.0272 77.463,59.1907 C78.1044,58.5021 78.6279,57.7219 79.1586,56.9462 C79.6818,56.1667 80.2741,55.4286 80.6869,54.5797 C81.1306,53.7509 81.6174,52.943 82.0447,52.105 L83.1452,49.5024 C83.3503,49.0759 83.4764,48.6214 83.6062,48.1682 L84.0075,46.8123 C84.1351,46.3588 84.2911,45.9119 84.3966,45.4531 L84.6378,44.0591 C84.7709,43.1265 85.0355,42.2095 85.0314,41.2605 L85.1909,38.5095 C85.0964,34.4637 84.3928,30.9825 83.0634,27.3973 L81.9464,24.8112 C81.5135,23.9793 81.0221,23.1778 80.5767,22.3543 C80.1606,21.5117 79.5648,20.7801 79.0389,20.0073 C78.5055,19.2384 77.9795,18.4654 77.3361,17.7839 C72.5648,12.0051 66.0762,7.937 59.3557,5.4882 C52.5697,3.0863 45.562,2.2429 38.8758,2.7516 C32.3556,3.2977 26.1777,5.1316 21.0487,7.7851 C15.8886,10.4306 11.7097,13.8835 8.6649,17.482 C5.5973,21.0815 3.6946,24.7978 2.4831,27.9629 C2.003,29.5892 1.4351,31.0115 1.2643,32.3275 C1.0311,33.6269 0.7502,34.7244 0.7426,35.6412 C0.6118,37.4631 0.542,38.4347 0.542,38.4347 L0.5413,38.4188 L0.5413,38.4188 Z M0.004,38.4347 C0.004,38.4347 0.05,37.4444 0.1362,35.5875 C0.1224,34.6513 0.3778,33.5278 0.5837,32.1934 C0.7274,30.8423 1.2663,29.3768 1.7199,27.6957 C2.878,24.423 4.7367,20.5542 7.8032,16.7679 C10.8465,12.9833 15.0663,9.3114 20.334,6.4414 C25.6075,3.5665 31.8394,1.494 38.7814,0.767 C45.5498,0.0992 53.0051,0.7955 60.1716,3.1736 C67.2729,5.6965 74.1804,9.942 79.3463,16.0952 C81.8904,19.1683 84.1411,22.6084 85.5269,26.4525 C86.9393,30.2037 87.7038,34.5337 87.7377,38.3589 L87.5501,41.4934 C87.5398,42.5189 87.2573,43.5119 87.1029,44.5191 L86.8272,46.0239 C86.7094,46.5189 86.5405,47.0012 86.3992,47.49 L85.9544,48.9503 C85.8093,49.438 85.6671,49.9264 85.4459,50.3849 C84.035,54.2078 81.7738,57.6236 79.2206,60.6675 C74.0386,66.7631 67.1397,70.9394 60.0693,73.4036 C58.2645,73.9235 56.5086,74.5597 54.6872,74.8665 C53.7835,75.0473 52.8933,75.2585 51.9924,75.4101 C51.0808,75.5191 50.1739,75.6276 49.2718,75.7354 L47.924,75.8947 C47.4796,75.9287 47.0427,75.9285 46.6037,75.947 C45.7272,75.9752 44.8557,76.0032 43.9895,76.031 C43.0641,76.0872 42.2253,75.9658 41.3483,75.942 C40.4822,75.89 39.6202,75.8599 38.768,75.7899 C31.9517,75.0708 25.695,73.024 20.4695,70.1734 C15.2311,67.3289 11.0341,63.6869 8.0068,59.9328 C4.9679,56.1699 3.097,52.3483 1.9026,49.1097 C1.4405,47.4418 0.8806,45.9942 0.7056,44.6474 C0.4736,43.32 0.1958,42.1902 0.1923,41.2697 C0.0698,39.4311 0.0045,38.4506 0.0045,38.4506 L0.004,38.4347 L0.004,38.4347 Z" id="Shape" fill="#000000"></path>
        </g>
        <g id="Group" transform="translate(0.000000, 52.000000)">
            <ellipse id="Oval" fill="#FFFFFF" transform="translate(15.665119, 19.461077) rotate(9.892805) translate(-15.665119, -19.461077) " cx="15.6655259" cy="19.4616061" rx="12.9584" ry="16.872"></ellipse>
            <path d="M28.7023,21.7442 C28.7023,21.7442 28.6251,22.1035 28.4804,22.7773 C28.4122,23.1143 28.3245,23.5298 28.1661,24.0174 C28.0164,24.5032 27.8738,25.0742 27.6208,25.674 C27.197,26.9062 26.4779,28.3303 25.488,29.8507 C24.4817,31.3573 23.1117,32.9361 21.2663,34.2243 C21.0343,34.3827 20.7998,34.5426 20.5631,34.7042 C20.3111,34.8416 20.0565,34.9803 19.7995,35.1203 C19.2977,35.4253 18.7245,35.6101 18.1669,35.8494 C17.0122,36.208 15.7715,36.531 14.4684,36.4794 C14.1438,36.5035 13.8197,36.4616 13.4932,36.4246 C13.1638,36.3758 12.8444,36.3848 12.5012,36.2867 C12.1862,36.2101 11.8694,36.1331 11.5507,36.0556 C11.2321,35.9691 10.9123,35.8215 10.5908,35.7049 C9.3326,35.1736 8.1292,34.4418 7.1275,33.4453 C5.0792,31.5035 3.6705,28.8451 2.9523,26.007 C2.1924,23.1657 2.1788,20.1221 2.6482,17.1918 C3.1926,14.2912 4.2412,11.4058 5.9145,8.9976 C7.5502,6.5689 9.775,4.5423 12.3605,3.4066 C14.9254,2.2461 17.877,2.1442 20.2881,3.0309 C21.5569,3.4314 22.5982,4.1499 23.5695,4.8802 C24.0134,5.2944 24.4907,5.6624 24.8596,6.1196 C25.054,6.3385 25.2467,6.5553 25.4374,6.7701 C25.6055,7.0024 25.772,7.2325 25.9367,7.4601 C27.2372,9.2981 27.9914,11.2481 28.428,13.0068 C28.8444,14.773 29.0386,16.3566 29.0199,17.6596 C29.0546,18.3113 28.9956,18.8913 28.9722,19.3964 C28.9568,19.9027 28.8982,20.3289 28.8475,20.6741 C28.7541,21.3653 28.7043,21.7339 28.7043,21.7339 L28.7023,21.7442 L28.7023,21.7442 Z M28.1775,21.6422 C28.1775,21.6422 28.2258,21.2823 28.3165,20.6075 C28.366,20.2705 28.4234,19.8545 28.4377,19.3606 C28.46,18.8679 28.5182,18.3019 28.4835,17.6668 C28.5022,16.3962 28.3106,14.8543 27.906,13.1382 C27.4817,11.4297 26.7478,9.5401 25.4952,7.7724 C25.3368,7.5533 25.1768,7.332 25.0152,7.1084 C24.8321,6.9027 24.6471,6.695 24.4605,6.4853 C24.1069,6.0455 23.6501,5.6967 23.227,5.2991 C22.3105,4.6077 21.288,3.9097 20.1321,3.5475 C17.7981,2.6915 15.0418,2.7937 12.5759,3.898 C10.102,4.9826 7.9454,6.9369 6.3554,9.2973 C4.7227,11.6548 3.7116,14.4195 3.1699,17.2829 C2.7111,20.1441 2.7232,23.1144 3.4618,25.8762 C4.1583,28.6361 5.5255,31.2065 7.487,33.0659 C8.442,34.0198 9.6048,34.7187 10.7786,35.2155 C11.0803,35.3237 11.3613,35.4604 11.6747,35.5459 C11.9934,35.6233 12.3103,35.7002 12.6253,35.7766 C12.9069,35.8614 13.2424,35.857 13.5451,35.9018 C13.855,35.937 14.1626,35.978 14.4709,35.9537 C15.7076,36.0046 16.8883,35.6932 17.991,35.3525 C18.5241,35.1215 19.0722,34.9477 19.5539,34.6531 C19.8006,34.5188 20.045,34.3857 20.2869,34.254 C20.5147,34.0982 20.7402,33.9439 20.9634,33.7912 C22.7405,32.5503 24.0701,31.0196 25.0471,29.5547 C26.0081,28.076 26.7095,26.6896 27.1215,25.4873 C27.3694,24.8998 27.504,24.3527 27.6492,23.8841 C27.8014,23.4205 27.8895,23.0043 27.9579,22.6654 C28.1023,21.9915 28.1794,21.6322 28.1794,21.6322 L28.1775,21.6422 L28.1775,21.6422 Z" id="Shape" fill="#000000"></path>
        </g>
        <path d="M20.7241,66.1281 C20.7241,66.1281 20.0772,63.3709 19.4554,59.2003 C18.8367,55.0334 18.2491,49.4201 18.4371,43.788 C18.4992,42.3815 18.5889,40.9756 18.7625,39.5988 C18.9318,38.2226 19.151,36.8716 19.4725,35.5871 C19.7672,34.2969 20.1826,33.0812 20.6269,31.9513 C20.8786,31.398 21.1249,30.8593 21.3869,30.3518 C21.689,29.8647 21.9365,29.368 22.2539,28.9412 C22.8615,28.0684 23.5224,27.3465 24.1618,26.7698 C24.4974,26.4994 24.8115,26.2464 25.1019,26.0125 C25.4216,25.8212 25.7153,25.6455 25.9806,25.4868 C26.2396,25.317 26.4856,25.1948 26.7128,25.1141 C26.9339,25.0222 27.1219,24.944 27.2743,24.8805 C27.5787,24.7541 27.7411,24.6866 27.7411,24.6866 L27.7912,24.8285 C27.7912,24.8285 27.6334,24.9004 27.3375,25.0351 C27.1898,25.1023 27.0076,25.1851 26.7934,25.2826 C26.5734,25.3685 26.3361,25.4963 26.0878,25.6715 C25.8338,25.8348 25.5526,26.0156 25.2465,26.2125 C24.971,26.4499 24.673,26.7066 24.3547,26.9809 C23.7507,27.5632 23.132,28.2853 22.5696,29.1524 C22.275,29.5758 22.0497,30.0703 21.7718,30.551 C21.5329,31.0539 21.3104,31.587 21.083,32.1326 C20.686,33.2502 20.3195,34.448 20.0725,35.7214 C19.7991,36.9875 19.6277,38.3203 19.5059,39.6768 C19.3797,41.0336 19.3371,42.42 19.3213,43.8053 C19.3182,49.3559 20.0798,54.8817 20.8257,58.9739 C21.1999,61.0221 21.5687,62.7172 21.8426,63.8974 C22.1178,65.0825 22.2947,65.7384 22.2947,65.7384 L20.7241,66.1281 L20.7241,66.1281 Z" id="Shape" fill="#000000"></path>
        <path d="M23.8627,64.7491 C23.8627,64.7491 24.0221,63.8322 24.3676,62.2788 C24.7128,60.7194 25.2507,58.505 26.0202,55.8833 C26.7919,53.2632 27.7772,50.2288 29.0518,47.0586 C29.6951,45.4765 30.3778,43.8478 31.1638,42.2338 C31.925,40.6088 32.7924,39.0022 33.6931,37.4162 C34.6269,35.8483 35.5997,34.3013 36.6713,32.8557 C37.201,32.1287 37.737,31.4157 38.3132,30.7462 C38.8603,30.054 39.4552,29.4158 40.0439,28.7917 C41.2153,27.5379 42.4677,26.4419 43.7015,25.4649 C44.3262,24.9865 44.9715,24.5694 45.5748,24.1408 C46.205,23.7513 46.835,23.4078 47.4279,23.0612 C48.6602,22.4508 49.8101,21.9317 50.8806,21.605 C51.1444,21.514 51.3997,21.4259 51.6461,21.3408 C51.8996,21.2799 52.1441,21.2211 52.3789,21.1647 C52.8488,21.0543 53.2805,20.9528 53.6704,20.8612 C54.4572,20.7178 55.0865,20.6681 55.5098,20.6047 C55.9347,20.5506 56.1614,20.5218 56.1614,20.5218 L56.201,20.9871 C56.201,20.9871 55.9797,21.0199 55.5647,21.0815 C55.1516,21.1522 54.5376,21.2123 53.7723,21.3675 C53.3937,21.4646 52.9744,21.572 52.5181,21.689 C52.2904,21.7484 52.0534,21.8101 51.8076,21.8742 C51.569,21.9621 51.3219,22.0531 51.0666,22.1472 C50.0309,22.4851 48.9212,23.0143 47.7349,23.6306 C47.1642,23.9806 46.5583,24.3261 45.9529,24.7168 C45.3732,25.1473 44.7539,25.5643 44.1547,26.0423 C42.9713,27.019 41.772,28.1104 40.6519,29.3586 C40.0891,29.9798 39.5204,30.6138 38.9983,31.3029 C38.448,31.968 37.9369,32.6772 37.432,33.3999 C36.4105,34.8362 35.4858,36.3744 34.5994,37.9317 C33.7453,39.5086 32.924,41.1039 32.2064,42.7191 C31.4645,44.3222 30.8236,45.9412 30.2207,47.5125 C29.0267,50.6614 28.1141,53.675 27.4045,56.2735 C26.6971,58.8737 26.2104,61.0665 25.9022,62.6038 C25.5915,64.1472 25.4587,65.016 25.4587,65.016 L23.8627,64.7491 L23.8627,64.7491 Z" id="Shape" fill="#000000"></path>
        <ellipse id="Oval" stroke="#000000" stroke-width="0.4745" fill="#000000" cx="13.5215" cy="74.7003" rx="5.5493" ry="8.2124"></ellipse>
        <g id="Group" transform="translate(14.000000, 92.000000)" fill="#000000">
            <path d="M1.4036,7.4623 C1.4036,7.4623 1.8007,7.8371 2.5907,8.4133 C3.3742,8.9873 4.529,9.7721 6.0222,10.4955 C7.5155,11.2033 9.3317,11.8971 11.35,12.2104 C12.3553,12.3832 13.4094,12.4395 14.4712,12.3966 C15.5363,12.3772 16.6017,12.1713 17.6502,11.9352 C18.692,11.661 19.7212,11.3259 20.6856,10.8691 C21.1685,10.643 21.6501,10.425 22.0982,10.1493 C22.5554,9.8928 23.0063,9.6389 23.4225,9.3391 C24.2839,8.79 25.0532,8.1581 25.7823,7.5648 C26.4855,6.9352 27.1566,6.3483 27.7202,5.7406 C28.3067,5.1594 28.8121,4.5934 29.2803,4.1068 C29.772,3.6366 30.2006,3.2267 30.5536,2.8891 C31.281,2.2237 31.7955,1.906 31.7955,1.906 L31.8077,1.8985 C31.9469,1.8126 32.1294,1.8557 32.2153,1.9949 C32.2628,2.0718 32.2704,2.1631 32.2447,2.2429 C32.2447,2.2429 32.0579,2.8118 31.5581,3.698 C31.3206,4.1504 30.9796,4.6619 30.5374,5.2112 C30.3118,5.4817 30.0718,5.7695 29.8188,6.073 C29.5541,6.3664 29.2465,6.6499 28.9415,6.9591 C28.3412,7.5874 27.6221,8.2025 26.8678,8.8578 C26.0838,9.4799 25.2559,10.1393 24.3214,10.719 C23.8712,11.0324 23.3804,11.3021 22.8823,11.5727 C22.3951,11.8617 21.8681,12.0942 21.3396,12.3324 C20.2844,12.8135 19.1516,13.1686 18.004,13.4517 C16.8412,13.6693 15.6646,13.8405 14.4996,13.8168 C13.3382,13.8163 12.1962,13.7064 11.1203,13.4768 C8.9553,13.0598 7.0639,12.2283 5.5613,11.3675 C4.0548,10.5027 2.9075,9.625 2.1517,8.9597 C1.3967,8.2989 1.0057,7.8585 1.0057,7.8585 L1.0009,7.8531 C0.8979,7.7371 0.9085,7.5596 1.0245,7.4566 C1.1338,7.3593 1.2989,7.3641 1.4036,7.4623 L1.4036,7.4623 Z" id="Shape"></path>
            <path d="M28.0639,0.4475 C28.0639,0.4475 28.5995,0.3768 29.333,0.5204 C29.7022,0.5901 30.1211,0.7127 30.5588,0.8898 C30.9939,1.0697 31.439,1.3181 31.8578,1.6232 C32.2761,1.9258 32.6594,2.3042 32.9601,2.7115 C33.2565,3.1317 33.4468,3.5913 33.5518,3.9966 C33.6305,4.4219 33.6503,4.7663 33.5903,5.0191 C33.5519,5.264 33.5027,5.395 33.5027,5.395 C33.4404,5.561 33.2552,5.6451 33.0892,5.5827 C33.0525,5.5689 33.0199,5.5492 32.9919,5.525 L32.9487,5.4873 C32.9487,5.4873 32.8428,5.3949 32.705,5.249 C32.6259,5.1787 32.5704,5.088 32.4654,5.0002 C32.3586,4.914 32.2668,4.8122 32.1639,4.7096 C32.0379,4.6158 31.9319,4.5017 31.8109,4.3933 C31.6802,4.288 31.5434,4.1762 31.4209,4.0522 C31.1388,3.8217 30.8597,3.5561 30.5456,3.2978 C29.8893,2.7478 29.233,2.1978 28.7408,1.7853 C28.2207,1.3444 27.8813,0.9784 27.8813,0.9784 L27.875,0.9716 C27.7572,0.8446 27.7647,0.6461 27.8917,0.5283 C27.9413,0.4825 28.0016,0.4556 28.0639,0.4475 L28.0639,0.4475 Z" id="Shape"></path>
        </g>
        <g id="Group" transform="translate(110.000000, 0.000000)">
            <path d="M0.3901,79.0104 C0.3901,79.0104 40.1973,-22.328 90.5117,7.2316 C140.8262,36.7912 18.1846,80.8165 11.8955,81.4455" id="Shape" fill="#F6F6F6"></path>
            <path d="M0.3456,78.9928 C0.3456,78.9928 0.7168,78.0354 1.413,76.2404 C2.1289,74.4534 3.1968,71.8377 4.6823,68.5635 C6.164,65.288 8.0254,61.336 10.324,56.8815 C12.6111,52.4214 15.3614,47.4711 18.6437,42.2357 C21.9234,37.0013 25.7132,31.4606 30.1974,25.9475 C34.6653,20.4317 39.9164,14.9773 46.1846,10.294 C49.3091,7.9477 52.7401,5.868 56.431,4.1854 C60.1279,2.5313 64.1304,1.3167 68.2872,0.8817 C70.3621,0.6235 72.4701,0.6558 74.5707,0.7686 C76.6637,0.9755 78.765,1.2653 80.8006,1.8376 C84.9017,2.8891 88.7422,4.7617 92.2972,6.9832 C95.8232,9.2039 99.2541,11.9652 101.5322,15.7113 C102.665,17.5726 103.4373,19.7144 103.6313,21.9216 C103.8345,24.127 103.4898,26.3427 102.7796,28.3596 C102.072,30.3846 101.0472,32.2369 99.892,33.9536 C98.7422,35.6798 97.4216,37.2471 96.0432,38.7245 C93.2843,41.6844 90.2499,44.2528 87.1608,46.6079 C80.9533,51.2912 74.4989,55.1027 68.2853,58.4868 C62.0587,61.8559 56.031,64.7537 50.4132,67.2976 C44.7963,69.8455 39.5532,71.9607 34.8904,73.784 C30.2242,75.6008 26.1201,77.0873 22.7222,78.2579 C19.3244,79.4291 16.6221,80.2536 14.7692,80.7769 C13.8427,81.0386 13.1265,81.2188 12.6394,81.3214 C12.1538,81.4313 11.8961,81.4498 11.8961,81.4498 C11.8937,81.45 11.8916,81.4482 11.8913,81.4458 C11.8911,81.4434 11.8929,81.4413 11.8952,81.441 C11.8952,81.441 12.1507,81.4124 12.6306,81.2836 C13.1117,81.1622 13.8189,80.9541 14.7328,80.6563 C16.5634,80.0695 19.2166,79.1121 22.5741,77.8474 C25.9302,76.5786 29.9815,74.9737 34.5815,73.0237 C39.1875,71.0881 44.3198,68.7572 49.8811,66.1472 C55.4299,63.5116 61.3763,60.5175 67.4954,57.0606 C73.6059,53.5993 79.9104,49.6757 85.936,45.0114 C88.948,42.6861 91.8885,40.1603 94.5134,37.307 C97.138,34.4764 99.4696,31.2563 100.7347,27.6617 C101.3538,25.8679 101.6236,23.9777 101.4423,22.1277 C101.2663,20.2762 100.6134,18.4825 99.6153,16.8643 C98.6145,15.2455 97.3225,13.7767 95.8616,12.4631 C95.1085,11.8347 94.3589,11.1738 93.5558,10.6145 C92.7611,10.046 91.9691,9.4741 91.0687,8.9441 C84.3092,4.6892 76.3246,2.2899 68.5257,3.1644 C64.64,3.5439 60.8623,4.6577 57.3319,6.2085 C53.8073,7.7877 50.4937,9.76 47.4523,12.0132 C41.3439,16.504 36.1898,21.8394 31.643,27.1506 C27.1106,32.49 23.24,37.8992 19.8773,43.025 C16.5187,48.157 13.6805,53.0207 11.2262,57.3661 C8.7856,61.7205 6.7946,65.595 5.2046,68.8099 C2.0332,75.2456 0.4348,79.0278 0.4348,79.0278 C0.4249,79.0523 0.3971,79.0641 0.3726,79.0543 C0.3483,79.0448 0.3368,79.017 0.3456,78.9928 L0.3456,78.9928 Z" id="Shape" fill="#000000"></path>
        </g>
        <g id="Group" transform="translate(113.000000, 50.000000)">
            <path d="M1.1973,28.9582 C1.1973,28.9582 13.2065,19.7116 27.6728,0.8439" id="Shape" fill="#F6F6F6"></path>
            <path d="M0.8094,28.461 C0.8094,28.461 2.7101,27.0195 5.4233,24.6241 C6.7706,23.4204 8.3367,22.0061 9.9613,20.432 C11.5968,18.8693 13.2953,17.1537 14.9751,15.4186 C16.644,13.673 18.2803,11.8956 19.7949,10.2104 C21.2924,8.5104 22.6855,6.9184 23.8426,5.522 C25.0224,4.1442 25.9571,2.9563 26.6265,2.1366 C27.2924,1.314 27.6729,0.8439 27.6729,0.8439 C27.6729,0.8439 27.3079,1.3261 26.6692,2.1699 C26.0269,3.011 25.1305,4.2298 23.9955,5.6462 C22.8832,7.0811 21.5414,8.7195 20.0969,10.4712 C18.6353,12.2081 17.0537,14.0427 15.437,15.8479 C13.8094,17.6428 12.1606,19.4204 10.5686,21.0441 C8.9879,22.6788 7.4588,24.1532 6.1406,25.4104 C3.4927,27.9072 1.5853,29.4554 1.5853,29.4554 C1.3148,29.6749 0.9176,29.6337 0.698,29.3632 C0.4785,29.0927 0.5197,28.6955 0.7902,28.4759 C0.7949,28.4722 0.8046,28.4646 0.8094,28.461 L0.8094,28.461 Z" id="Shape" fill="#000000"></path>
        </g>
        <g id="Group" transform="translate(117.000000, 58.000000)">
            <path d="M1.229,21.8996 C1.229,21.8996 23.4687,12.6598 34.1611,0.7101" id="Shape" fill="#F6F6F6"></path>
            <path d="M0.9843,21.3184 C0.9843,21.3184 3.2522,20.413 6.5956,18.8566 C8.2598,18.0694 10.2008,17.1447 12.2401,16.0748 C13.2674,15.5538 14.3107,14.982 15.3717,14.4015 C16.4404,13.8341 17.4888,13.194 18.5583,12.5882 C19.6067,11.9475 20.6552,11.3068 21.6872,10.6761 C22.6932,10.0058 23.6974,9.3643 24.6455,8.7098 C25.5776,8.0338 26.4981,7.4036 27.3379,6.7631 C28.1676,6.1087 28.952,5.4899 29.676,4.9187 C30.3692,4.3099 31.0046,3.7519 31.5678,3.2573 C32.1468,2.7781 32.5744,2.2805 32.965,1.9096 C33.7262,1.1464 34.1611,0.7102 34.1611,0.7102 C34.1611,0.7102 33.7403,1.1601 33.0039,1.9473 C32.6253,2.3306 32.2114,2.8442 31.6478,3.342 C31.099,3.8559 30.4799,4.4358 29.8044,5.0683 C29.0964,5.6645 28.3294,6.3104 27.5181,6.9936 C26.6957,7.6635 25.7932,8.3249 24.8777,9.0344 C23.9467,9.7221 22.9598,10.3981 21.9695,11.1045 C20.9529,11.7713 19.9202,12.4487 18.8875,13.1262 C17.8334,13.7688 16.7985,14.4467 15.7435,15.051 C14.6959,15.6685 13.6649,16.2772 12.6492,16.8339 C10.6327,17.9755 8.7107,18.9679 7.0605,19.814 C3.7538,21.4846 1.4737,22.4809 1.4737,22.4809 C1.1552,22.622 0.7826,22.4782 0.6415,22.1597 C0.5004,21.8412 0.6441,21.4686 0.9626,21.3275 C0.968,21.3251 0.9789,21.3206 0.9843,21.3184 L0.9843,21.3184 Z" id="Shape" fill="#000000"></path>
        </g>
        <ellipse id="Oval" fill="#FFFFFF" cx="16.2359" cy="70.9464" rx="1.9433" ry="2.6343"></ellipse>
        <g id="Group" transform="translate(13.000000, 43.000000)">
            <ellipse id="Oval" fill="#FFFFFF" transform="translate(20.352967, 24.417316) rotate(9.892805) translate(-20.352967, -24.417316) " cx="20.3534866" cy="24.4179923" rx="16.5579" ry="21.5573"></ellipse>
            <path d="M37.2206,27.3784 C37.2206,27.3784 37.1184,27.8368 36.9267,28.6963 C36.8362,29.1253 36.7202,29.6555 36.5108,30.286 C36.3132,30.9118 36.1226,31.6477 35.7918,32.416 C35.6381,32.8055 35.4763,33.2159 35.3065,33.6463 C35.1035,34.0623 34.891,34.4976 34.6695,34.9513 C34.4619,35.412 34.1948,35.8649 33.9122,36.3316 C33.6295,36.7977 33.3645,37.2975 33.0094,37.763 C31.7021,39.6886 29.9266,41.7007 27.5481,43.3365 C27.2498,43.5384 26.9484,43.7424 26.644,43.9485 C26.3201,44.1235 25.9929,44.3002 25.6626,44.4786 C25.0178,44.867 24.2815,45.1018 23.5656,45.4057 C23.2008,45.5412 22.8133,45.623 22.4335,45.7349 C22.0522,45.8447 21.6673,45.9521 21.2643,45.9931 C20.8655,46.0517 20.4636,46.1108 20.0588,46.1703 C19.6494,46.1786 19.2371,46.187 18.822,46.1954 C18.4061,46.2247 17.991,46.1694 17.5731,46.1205 C17.151,46.0563 16.7437,46.0665 16.3026,45.9389 C15.9006,45.8395 15.4961,45.7396 15.0892,45.639 C14.6822,45.5267 14.2726,45.3363 13.8619,45.1856 C12.2514,44.5025 10.7263,43.5521 9.439,42.287 C6.8089,39.8178 4.9889,36.4243 4.0517,32.7937 C3.061,29.159 3.0241,25.2585 3.6084,21.4967 C3.8296,20.5415 3.9456,19.6517 4.2384,18.7191 L4.6429,17.3345 C4.792,16.8796 4.9751,16.4405 5.1398,15.9933 C5.4463,15.0897 5.9048,14.2516 6.2963,13.3876 C6.5187,12.9687 6.7644,12.5625 6.9972,12.1504 C7.2231,11.7337 7.4728,11.3325 7.7518,10.9504 C9.8391,7.8138 12.6913,5.1807 16.0355,3.6889 C19.3459,2.1631 23.2137,2.0105 26.3428,3.1431 C26.7481,3.297 27.1507,3.4499 27.5504,3.6017 C27.9186,3.7977 28.2841,3.9922 28.6469,4.1853 C29.0196,4.3637 29.3522,4.5982 29.6803,4.8342 C30.0063,5.0716 30.3498,5.2838 30.6531,5.5385 C31.2328,6.0774 31.852,6.5616 32.3318,7.1564 C32.5842,7.4419 32.8342,7.7247 33.0818,8.0047 C33.2998,8.307 33.5156,8.6064 33.7292,8.9026 C35.4131,11.2946 36.3864,13.821 36.9428,16.0976 C37.112,16.662 37.1848,17.227 37.2856,17.7658 C37.3861,18.305 37.4769,18.8254 37.5091,19.3323 C37.5567,19.837 37.6023,20.3212 37.646,20.7838 C37.6533,21.248 37.6602,21.6906 37.6668,22.1107 C37.7055,22.9513 37.6248,23.6984 37.5902,24.3491 C37.5658,25.0013 37.4867,25.5497 37.4184,25.9938 C37.2921,26.8828 37.2247,27.357 37.2247,27.357 L37.2206,27.3784 L37.2206,27.3784 Z M36.1268,27.1657 C36.1268,27.1657 36.1848,26.709 36.2935,25.8527 C36.3533,25.4252 36.4223,24.8976 36.4358,24.2717 C36.4595,23.6473 36.5285,22.9302 36.4785,22.1267 C36.4667,21.7252 36.4543,21.3021 36.4413,20.8585 C36.3931,20.4177 36.3427,19.9565 36.2901,19.4757 C36.2535,18.9926 36.1591,18.4987 36.0559,17.9876 C35.9524,17.477 35.8775,16.9403 35.708,16.4087 C35.1644,14.2552 34.2362,11.8756 32.6581,9.6605 C32.4589,9.386 32.2576,9.1086 32.0542,8.8284 C31.8241,8.5713 31.5918,8.3116 31.3572,8.0495 C30.9138,7.4981 30.3397,7.0663 29.8115,6.5681 C29.5371,6.3313 29.2259,6.1377 28.9316,5.9166 C28.6355,5.6971 28.3354,5.4778 27.9987,5.3146 C27.6716,5.1347 27.342,4.9534 27.0101,4.7708 C26.6674,4.6356 26.3222,4.4994 25.9747,4.3623 C23.041,3.268 19.6156,3.376 16.498,4.744 C13.3775,6.0892 10.6314,8.5424 8.5971,11.5249 C8.325,11.887 8.081,12.2688 7.8599,12.6668 C7.632,13.06 7.3906,13.4469 7.1718,13.8471 C6.7865,14.6743 6.3333,15.4753 6.0306,16.3451 C5.308,18.0335 4.8824,19.8278 4.4958,21.6517 C3.8943,25.2899 3.8904,29.0735 4.8145,32.598 C5.685,36.1202 7.4119,39.4075 9.9053,41.7952 C11.1183,43.0223 12.6165,43.9 14.1133,44.5305 C14.4989,44.667 14.857,44.8397 15.2575,44.9474 C15.6651,45.0447 16.0704,45.1413 16.4733,45.2375 C16.8304,45.3438 17.26,45.3367 17.6455,45.3923 C18.0406,45.4356 18.4328,45.4864 18.8256,45.4538 C19.2174,45.4431 19.6066,45.4325 19.993,45.4219 C20.3752,45.3621 20.7546,45.3028 21.1312,45.244 C21.5114,45.2038 21.8752,45.098 22.2356,44.9905 C22.5946,44.8809 22.9605,44.8025 23.3056,44.6708 C23.9832,44.3738 24.6797,44.1503 25.2916,43.7726 C25.6049,43.6005 25.9152,43.4299 26.2225,43.2611 C26.5117,43.0616 26.7979,42.8641 27.0813,42.6686 C29.3315,41.0729 31.0053,39.1119 32.2324,37.241 C32.5669,36.7897 32.8135,36.3028 33.0783,35.8505 C33.343,35.3977 33.5932,34.9588 33.7854,34.5112 C33.9916,34.0715 34.1895,33.6496 34.3785,33.2466 C34.5351,32.8295 34.6844,32.4319 34.8261,32.0545 C35.1352,31.3056 35.2992,30.6131 35.4783,30.0194 C35.6658,29.4345 35.7744,28.9019 35.8585,28.4674 C36.0364,27.6049 36.1312,27.145 36.1312,27.145 L36.1268,27.1657 L36.1268,27.1657 Z" id="Shape" fill="#000000"></path>
        </g>
        <ellipse id="Oval" stroke="#000000" stroke-width="0.5615" fill="#000000" cx="32.4561" cy="73.0392" rx="6.5673" ry="9.7183"></ellipse>
        <ellipse id="Oval" fill="#FFFFFF" cx="36.6507" cy="67.8629" rx="3.0545" ry="4.1402"></ellipse>
        <path d="M87.5752,125.3219 C87.5752,125.3219 77.8613,142.8551 64.7104,142.8551 C63.1269,142.1813 61.5508,141.5514 59.791,141.7428 C58.2412,141.9118 58.292,143.2438 59.6348,143.7916 C58.1933,143.6012 55.4741,144.1178 57.0278,147.067 C58.2056,149.3024 64.8315,145.8991 64.8315,145.8991 C64.8315,145.8991 81.917,144.3532 90.271,126.5036" id="Shape" stroke="#000000" stroke-width="0.6941" fill="url(#linearGradient-9)"></path>
        <g id="Group" transform="translate(47.000000, 15.000000)">
            <ellipse id="Oval" fill="#F29400" cx="5.7195" cy="6.0177" rx="5.2531" ry="4.9903"></ellipse>
            <path d="M11.3297,6.0367 C11.3297,6.0367 11.3219,6.1622 11.3071,6.3974 C11.2921,6.6213 11.237,7.0417 11.0995,7.479 C10.8368,8.3693 10.1367,9.6314 8.7487,10.4607 C8.0661,10.8723 7.2376,11.1762 6.3305,11.2712 C6.0994,11.2867 5.8832,11.3017 5.63,11.2979 C5.4059,11.2822 5.1929,11.2868 4.9433,11.2412 C4.4511,11.1861 3.9931,11.0394 3.5275,10.8613 C2.614,10.4745 1.76,9.8482 1.1395,8.998 C0.5211,8.1421 0.1626,7.1085 0.1544,6.001 C0.158,5.5219 0.2398,4.9353 0.3961,4.4354 C0.5669,3.9282 0.8091,3.45 1.1092,3.0154 C1.7234,2.1532 2.5749,1.5002 3.5014,1.1101 C4.4239,0.7268 5.4386,0.5996 6.3224,0.6854 C7.2742,0.7827 8.0939,1.0832 8.7925,1.5046 C10.1899,2.3635 10.8806,3.6481 11.1256,4.5489 C11.2566,5.0048 11.3001,5.378 11.3139,5.6299 C11.3247,5.883 11.3304,6.018 11.3304,6.018 L11.3297,6.0367 L11.3297,6.0367 Z M10.615,6.0177 C10.615,6.0177 10.6074,5.9016 10.5931,5.684 C10.5773,5.4676 10.533,5.1486 10.4131,4.7612 C10.1824,3.9993 9.5896,2.9046 8.3782,2.172 C7.7945,1.8024 7.0452,1.5257 6.2773,1.4328 C5.4438,1.3405 4.5974,1.4429 3.7702,1.7641 C2.9531,2.0938 2.1972,2.6552 1.6473,3.4019 C1.3805,3.7794 1.1638,4.1945 1.008,4.6355 C0.8667,5.0936 0.7942,5.507 0.7784,6.0343 C0.7859,6.4717 0.8539,6.9635 0.9899,7.4057 C1.1403,7.8505 1.3526,8.2712 1.6164,8.6554 C2.1599,9.414 2.9134,10.002 3.7437,10.3349 C4.1575,10.4892 4.5923,10.6222 5.0044,10.6629 C5.2019,10.7021 5.44,10.698 5.6581,10.711 C5.8475,10.7112 6.0698,10.6963 6.2688,10.681 C7.0814,10.5859 7.822,10.313 8.4218,9.9337 C9.6428,9.1718 10.2263,8.0545 10.4391,7.2821 C10.5525,6.876 10.5851,6.6042 10.5997,6.3599 C10.61,6.1244 10.6154,5.9988 10.6154,5.9988 L10.615,6.0177 L10.615,6.0177 Z" id="Shape" fill="#000000"></path>
        </g>
        <g id="Group" transform="translate(23.000000, 21.000000)">
            <ellipse id="Oval" fill="#F29400" cx="4.5496" cy="3.5768" rx="3.3498" ry="2.8711"></ellipse>
            <path d="M1.4657,3.5611 C1.4657,3.5611 1.4699,3.6374 1.4777,3.7805 C1.4891,3.9251 1.5151,4.0762 1.5898,4.3151 C1.7421,4.7607 2.1411,5.3939 2.9078,5.7863 C3.2831,5.9838 3.7324,6.1235 4.2205,6.1676 C4.3391,6.1721 4.4755,6.181 4.5841,6.1792 C4.7146,6.1698 4.8654,6.1736 4.9804,6.1508 C5.2221,6.1269 5.4857,6.0577 5.7344,5.9744 C6.2309,5.7926 6.7077,5.4912 7.0544,5.069 C7.4081,4.6605 7.6088,4.1013 7.6117,3.5933 C7.6002,3.0014 7.399,2.5214 7.0417,2.0941 C6.6918,1.6799 6.2208,1.379 5.7269,1.1987 C5.2234,1.0258 4.7196,0.9656 4.2101,1.0076 C3.7488,1.0499 3.2851,1.1899 2.9176,1.3858 C2.1587,1.7776 1.7518,2.3958 1.5968,2.8409 C1.5212,3.0677 1.489,3.2537 1.4792,3.381 C1.4708,3.5087 1.4664,3.5768 1.4664,3.5768 L1.4657,3.5611 L1.4657,3.5611 Z M0.9333,3.5768 C0.9333,3.5768 0.9378,3.4923 0.9463,3.3339 C0.9576,3.1762 0.9945,2.9441 1.0866,2.6627 C1.2723,2.1077 1.7682,1.3578 2.6541,0.8917 C3.0954,0.6568 3.5968,0.4924 4.1826,0.4353 C4.7195,0.3853 5.3408,0.4453 5.9224,0.6447 C6.5034,0.8517 7.0737,1.1987 7.4958,1.7135 C7.9236,2.2002 8.1902,2.9248 8.1871,3.5594 C8.1822,4.2779 7.9151,4.9234 7.4838,5.429 C7.0585,5.9359 6.4942,6.2824 5.9158,6.4881 C5.6207,6.5837 5.3353,6.6575 5.027,6.6862 C4.8694,6.7106 4.7456,6.7038 4.6072,6.7126 C4.4465,6.7143 4.3166,6.7028 4.173,6.6958 C3.614,6.6407 3.098,6.476 2.6646,6.2428 C1.7864,5.7777 1.2823,5.0429 1.0937,4.4885 C1.0006,4.2191 0.9574,3.9522 0.9477,3.8118 C0.9386,3.6688 0.9338,3.5925 0.9338,3.5925 L0.9333,3.5768 L0.9333,3.5768 Z" id="Shape" fill="#000000"></path>
        </g>
    </g>
</svg>