<?xml version="1.0" encoding="iso-8859-1"?>
<!-- Generator: Adobe Illustrator 19.0.0, SVG Export Plug-In . SVG Version: 6.00 Build 0)  -->
<svg version="1.1" id="Layer_1" xmlns="http://www.w3.org/2000/svg" xmlns:xlink="http://www.w3.org/1999/xlink" x="0px" y="0px"
	 viewBox="0 0 511.432 511.432" style="enable-background:new 0 0 511.432 511.432;" xml:space="preserve">
<path style="fill:#663333;" d="M502.718,232.834c11.543,11.543,11.622,31.78,0.216,56.978
	c-9.863,21.792-27.467,45.957-49.555,68.044c-13.983,13.983-28.67,25.992-42.949,35.412h19.386c6.265,0,11.35,5.085,11.35,11.35
	s-5.085,11.35-11.35,11.35h-85.818l11.52,11.52c5.119-0.726,10.499,0.863,14.426,4.801c6.651,6.64,6.651,17.422,0,24.074
	s-17.422,6.651-24.074,0c-3.939-3.938-5.528-9.318-4.801-14.426l-8.047-8.047v11.373c4.131,3.11,6.81,8.036,6.81,13.597
	c0,9.409-7.616,17.025-17.025,17.025c-9.398,0-17.025-7.616-17.025-17.025c0-5.562,2.679-10.487,6.81-13.597V433.89l-8.047,8.047
	c0.726,5.108-0.863,10.488-4.801,14.426c-6.64,6.651-17.422,6.651-24.074,0c-6.651-6.651-6.651-17.434,0-24.074
	c3.939-3.939,9.318-5.528,14.437-4.801l13.177-13.177c-7.854-5.618-13.2-14.505-14.017-24.664
	c-10.817,2.554-21.906,3.848-33.154,3.848c-11.475,0-22.814-1.351-33.857-4.018c-0.783,10.226-6.14,19.182-14.04,24.834
	l13.178,13.177c5.119-0.726,10.499,0.863,14.437,4.801c6.651,6.64,6.651,17.422,0,24.074s-17.434,6.651-24.074,0
	c-3.938-3.938-5.528-9.318-4.801-14.426l-8.047-8.047v11.373c4.131,3.11,6.81,8.036,6.81,13.597c0,9.409-7.627,17.025-17.025,17.025
	c-9.409,0-17.025-7.616-17.025-17.025c0-5.562,2.679-10.487,6.81-13.597V433.89l-8.047,8.047c0.726,5.108-0.863,10.488-4.801,14.426
	c-6.651,6.651-17.422,6.651-24.074,0c-6.651-6.651-6.651-17.434,0-24.074c3.927-3.939,9.307-5.528,14.426-4.801l13.189-13.189
	c-0.113-0.068-4.29,1.668-6.606,1.668H82.411c-6.265,0-11.35-5.085-11.35-11.35s5.085-11.35,11.35-11.35h18.592
	c-14.278-9.421-28.966-21.429-42.949-35.412c-22.087-22.087-39.691-46.252-49.555-68.044c-11.407-25.197-11.327-45.435,0.216-56.978
	c11.543-11.543,31.78-11.611,56.966-0.204c14.823,6.697,30.736,16.991,46.331,29.817l-4.12-23.54
	c-12.179-14.244-19.874-31.485-22.292-50.054c-0.545-4.165-0.817-8.399-0.817-12.599c0-34.118,18.399-65.91,47.466-83.162
	c-0.023-0.692-0.045-1.385-0.045-2.077c0-30.589,24.88-55.468,55.457-55.468c26.696,0,49.044,18.955,54.299,44.118h27.581
	c5.255-25.163,27.604-44.118,54.299-44.118c30.577,0,55.457,24.879,55.457,55.468c0,0.692-0.023,1.385-0.045,2.077
	c29.068,17.252,47.466,49.044,47.466,83.162c0,22.564-7.866,44.266-22.19,61.563l-4.188,23.881
	c15.311-12.485,30.884-22.496,45.412-29.068C470.949,221.223,491.175,221.291,502.718,232.834z M482.253,280.448
	c7.741-17.105,7.798-28.182,4.415-31.565c-7.4-7.4-46.887,3.326-92.912,49.339c-1.044,1.056-2.134,2.168-3.246,3.303
	c-7.48,19.284-19.159,36.877-34.039,51.28v34.107c0,2.077-0.193,4.097-0.556,6.072c17.434-2.247,48.703-18.467,81.415-51.178
	C457.533,321.604,473.491,299.811,482.253,280.448z M107.483,176.038h296.534c-0.091-28.103-16.48-54.14-41.814-66.364v-0.023
	c-4.529-2.191-7.219-7.219-6.197-12.394c0.386-2.009,0.59-4.109,0.59-6.243c0-18.069-14.698-32.768-32.757-32.768
	c-18.069,0-32.768,14.698-32.768,32.768c0,3.133-1.271,5.97-3.326,8.025c-2.054,2.054-4.892,3.326-8.025,3.326h-47.943
	c-6.265,0-11.35-5.085-11.35-11.35c0-18.069-14.698-32.768-32.768-32.768c-18.058,0-32.756,14.698-32.756,32.768
	c0,2.134,0.204,4.234,0.59,6.243c1.022,5.176-1.668,10.204-6.197,12.394v0.023C123.964,121.898,107.574,147.935,107.483,176.038z
	 M400.51,198.738H110.979c3.144,9.909,8.376,19.046,15.459,26.923c14.006,15.55,34.028,24.471,54.935,24.471h148.755
	c20.759,0,40.668-8.808,54.685-24.187c0.079-0.091,0.159-0.182,0.238-0.272C392.133,217.807,397.354,208.624,400.51,198.738z
	 M375.8,270.256l1.737-9.886c-14.347,8.07-30.668,12.462-47.41,12.462H181.373c-16.435,0-32.45-4.222-46.592-12.008l1.646,9.432
	c1.317,7.536,3.348,14.948,6.038,22.042c0.045,0.113,0.102,0.238,0.148,0.352c6.674,17.547,17.547,33.528,31.429,46.229
	c0.114,0.102,0.193,0.182,0.272,0.261c2.1,2.066,3.416,4.937,3.416,8.115v39.657c0,6.038,4.915,10.964,10.964,10.964
	s10.964-4.926,10.964-10.964v-27.263c0-6.277,5.085-11.35,11.35-11.35c6.265,0,11.35,5.074,11.35,11.35v6.345
	c10.942,3.167,22.258,4.801,33.755,4.801c11.259,0,22.326-1.555,33.029-4.585v-6.56c0-6.277,5.085-11.35,11.35-11.35
	s11.35,5.074,11.35,11.35v27.263c0,6.038,4.915,10.964,10.964,10.964c1.385,0,2.713-0.272,3.927-0.749h0.011
	c4.109-1.589,7.026-5.562,7.026-10.215v-39.01c0-2.872,1.067-5.482,2.826-7.48c0.17-0.227,0.465-0.533,0.931-0.953
	c14.551-13.121,25.822-29.749,32.586-48.102C372.634,284.534,374.552,277.429,375.8,270.256z M155.585,392.996
	c-0.352-1.975-0.556-4.007-0.556-6.084v-34.799c-14.165-13.915-25.413-30.793-32.768-49.203c-1.441-1.498-2.94-3.053-4.585-4.688
	c-46.013-46.013-85.512-56.728-92.912-49.339c-7.4,7.4,3.314,46.899,49.339,92.924C106.859,374.563,138.174,390.783,155.585,392.996
	z"/>
<g>
	<path style="fill:#6A973A;" d="M486.669,248.883c3.382,3.382,3.326,14.46-4.415,31.565c-8.762,19.363-24.721,41.156-44.924,61.359
		c-32.711,32.711-63.981,48.93-81.415,51.178c0.363-1.975,0.556-3.995,0.556-6.072v-34.107c14.88-14.403,26.559-31.996,34.039-51.28
		c1.112-1.135,2.202-2.247,3.246-3.303C439.781,252.209,479.268,241.483,486.669,248.883z"/>
	<path style="fill:#6A973A;" d="M404.017,176.038H107.483c0.091-28.103,16.48-54.14,41.814-66.364v-0.023
		c4.529-2.191,7.219-7.219,6.197-12.394c-0.386-2.009-0.59-4.109-0.59-6.243c0-18.069,14.698-32.768,32.756-32.768
		c18.069,0,32.768,14.698,32.768,32.768c0,6.265,5.085,11.35,11.35,11.35h47.943c3.133,0,5.97-1.271,8.025-3.326
		c2.054-2.054,3.326-4.892,3.326-8.025c0-18.069,14.698-32.768,32.768-32.768c18.058,0,32.756,14.698,32.756,32.768
		c0,2.134-0.204,4.234-0.59,6.243c-1.022,5.176,1.668,10.204,6.197,12.394v0.023C387.536,121.898,403.926,147.935,404.017,176.038z
		 M341.478,91.014c0-6.277-5.085-11.35-11.35-11.35h-14.801c-6.265,0-11.35,5.074-11.35,11.35c0,6.265,5.085,11.35,11.35,11.35
		h14.801C336.393,102.364,341.478,97.28,341.478,91.014z M207.523,91.014c0-6.277-5.085-11.35-11.35-11.35h-14.801
		c-6.265,0-11.35,5.074-11.35,11.35c0,6.265,5.085,11.35,11.35,11.35h14.801C202.439,102.364,207.523,97.28,207.523,91.014z"/>
</g>
<path style="fill:#9ACE57;" d="M110.979,198.738H400.51c-3.155,9.886-8.376,19.068-15.459,26.934
	c-0.079,0.091-0.159,0.182-0.238,0.272c-14.017,15.379-33.926,24.187-54.685,24.187H181.373c-20.907,0-40.929-8.921-54.935-24.471
	C119.356,217.784,114.123,208.647,110.979,198.738z"/>
<path style="fill:#6A973A;" d="M377.537,260.37l-1.737,9.886c-1.249,7.173-3.167,14.278-5.686,21.111
	c-6.765,18.353-18.035,34.981-32.586,48.102c-0.465,0.42-0.76,0.726-0.931,0.953c-1.759,1.998-2.826,4.608-2.826,7.48v39.01
	c0,4.654-2.917,8.626-7.026,10.215h-0.011c-1.214,0.477-2.542,0.749-3.927,0.749c-6.05,0-10.964-4.926-10.964-10.964v-27.263
	c0-6.277-5.085-11.35-11.35-11.35c-6.265,0-11.35,5.074-11.35,11.35v6.56c-10.703,3.03-21.77,4.585-33.029,4.585
	c-11.498,0-22.814-1.634-33.755-4.801v-6.345c0-6.277-5.085-11.35-11.35-11.35s-11.35,5.074-11.35,11.35v27.263
	c0,6.038-4.915,10.964-10.964,10.964s-10.964-4.926-10.964-10.964v-39.657c0-3.178-1.317-6.05-3.416-8.115
	c-0.079-0.079-0.159-0.159-0.272-0.261c-13.881-12.701-24.755-28.682-31.429-46.229c-0.045-0.113-0.102-0.238-0.148-0.352
	c-2.69-7.094-4.722-14.505-6.038-22.042l-1.646-9.432c14.142,7.786,30.157,12.008,46.592,12.008h148.755
	C346.869,272.832,363.19,268.44,377.537,260.37z"/>
<g>
	<path style="fill:#663333;" d="M330.128,79.664c6.265,0,11.35,5.074,11.35,11.35c0,6.265-5.085,11.35-11.35,11.35h-14.801
		c-6.265,0-11.35-5.085-11.35-11.35c0-6.277,5.085-11.35,11.35-11.35H330.128z"/>
	<path style="fill:#663333;" d="M196.173,79.664c6.265,0,11.35,5.074,11.35,11.35c0,6.265-5.085,11.35-11.35,11.35h-14.801
		c-6.265,0-11.35-5.085-11.35-11.35c0-6.277,5.085-11.35,11.35-11.35H196.173z"/>
</g>
<path style="fill:#6A973A;" d="M155.029,386.912c0,2.077,0.204,4.109,0.556,6.084c-17.411-2.213-48.726-18.433-81.483-51.189
	c-46.025-46.025-56.739-85.523-49.339-92.924c7.4-7.389,46.899,3.326,92.912,49.339c1.646,1.634,3.144,3.189,4.585,4.688
	c7.355,18.41,18.603,35.288,32.768,49.203V386.912z"/>
<g>
</g>
<g>
</g>
<g>
</g>
<g>
</g>
<g>
</g>
<g>
</g>
<g>
</g>
<g>
</g>
<g>
</g>
<g>
</g>
<g>
</g>
<g>
</g>
<g>
</g>
<g>
</g>
<g>
</g>
</svg>
