<?xml version="1.0" encoding="utf-8"?>
<!DOCTYPE svg PUBLIC "-//W3C//DTD SVG 1.1//EN" "http://www.w3.org/Graphics/SVG/1.1/DTD/svg11.dtd">
<svg version="1.1" id="Layer_1" xmlns="http://www.w3.org/2000/svg" xmlns:xlink="http://www.w3.org/1999/xlink" x="0px" y="0px"
	 viewBox="318.1167 -114.3174 1283.7666 2148.6348" enable-background="new 318.1167 -114.3174 1283.7666 2148.6348"
	 xml:space="preserve">
<g>
	<g id="_x23_000000ff">
		<path stroke="#000000" stroke-width="0.0938" d="M1005.7207,67.4017c25.6801-3.87,51.88,0.18,76.63,7.29
			c46.8301,13.85,89.66,39.01,127.79,69.19c6.61,5.33,13.3199,10.63,18.9399,17.04c13.8401,15.41,23.86,33.78,32.55,52.47
			c16.42,36.2,27.48,74.57,36.6801,113.16c11.74,50.38,19.8099,101.58,25.2899,153c5.47,53.84,8.67,108.07,5.86,162.17
			c-1.4199,21.18-3.1899,42.62-9.6599,62.96c-2.78,7.84-6.29,16.32-13.6801,20.87c-5.3099,3.43-12.29,2.8-17.65-0.16
			c-7.77-4.18-13.63-11.01-18.99-17.86c-11.47-15.06-20.71-31.63-29.75-48.21c-19.02-35.57-36.14-72.11-53.85-108.35
			c-18.1801-37.36-36.59-74.65-57.0699-110.83c-5.26-8.95-10.17-18.15-16.0601-26.7c-5.39,15.58-12.35,30.59-20.48,44.93
			c27.62,21.36,51.1,50.06,60.2,84.29c6.61,24.34,4.9301,50.69-4.26,74.14c-11.72,30.14-34.11,55.01-59.7799,74.14
			c-7.9701,6.01-16.3601,11.46-24.9701,16.5c7.9601,11.43,12.8,25.2,12.7101,39.21c54.23,64.53,83.2699,148.18,86.7899,231.97
			c0.9301,25.32,0.23,50.6901,0.4501,76.03c0.02,51.29-0.05,102.5801,0.0299,153.88c14.76,2.65,28.9601,9.6801,38.9801,20.99
			c12.6899,14.02,18.71,32.64,22.08,50.92c3.5699,19.9399,4.22,40.25,4.25,60.45c26.03-26.72,49.64-55.7699,71.21-86.2
			c1.4301,0.8199,2.8401,1.72,4.29,2.55c-1.37,0.3099-2.72,0.6499-4.05,1c1.55,0.6799,3.16,1.3199,4.5801,2.2999
			c0.5699,1.4301,0.7899,2.9601,1.2,4.49c-22.04,30.65-46.14,59.87-72.66,86.75c-2.09,2.28-5.4199,4.27-4.8899,7.85
			c-0.92,32.8301-3.3201,65.6001-4.76,98.41c3.9399-3.6699,7.39-7.83,11.09-11.74c0.79,0.04,2.37,0.12,3.16,0.16
			c1.09-1.0701,2.2-2.12,3.33-3.16c0.33,0.08,0.99,0.24,1.3101,0.3201c1.7999-0.1001,3.5699,0.3099,5.1899,1.12
			c-0.23,0.51-0.6899,1.5299-0.92,2.0399c0.0601,0.48,0.1901,1.4501,0.25,1.9401l0.02,0.13
			c-7.84,8.7999-15.96,17.34-24.1699,25.7799c-0.7301,16.3501-1.2301,32.7101-1.2201,49.0701c-0.45,24.24,2.79,48.46,8.63,71.97
			c8.7201,36.17,23.9501,70.24,36.55,105.13c6.36,18.49,12.51,38.11,9.42,57.88c-2.2101,14.08-11.2301,26.35-22.92,34.2
			c-11.5,7.9601-24.78,12.8301-38.12,16.7201c-19.97,5.59-40.53,8.74-61.1,11.13c-7.9401,0.84-15.92,2.0399-23.91,1.37
			c-12.59-1.04-24.84-4.79-36.3201-9.9501c-9.74,11.6801-22.2899,20.8201-35.98,27.37c-20.4299,9.8-43.1699,14.3201-65.76,14.5701
			c-22.4299,0.1699-45.0299-3.9-65.5599-13.05c-0.73-1.95-1.46-3.9-2.12-5.84c0.78,0.17,1.58,0.41,2.39,0.64
			c1.3099-1.62,2.9-2.98,4.99-3.4601c0.37,0.6101,1.11,1.8201,1.49,2.4301c-0.8101,0.1901-1.6,0.41-2.38,0.65
			c0.37,2.12,1.23,4.11,2.4,5.9399c4.84-4.58,11.76-0.73,17.34-3.2799c22.27,5.84,45.84,6.73,68.48,2.5399
			c23.85-4.52,47.59-14.6599,64.14-32.9099c1.23-1.53,3.52-3.2001,2.26-5.3701c-16.3-40.6899-23.78-84.8999-21.49-128.6799
			c1.92-34.63,9.4299-69.1,23.08-101c3.48,0.9399,6.72,2.5599,10.02,4.02c-15.8,37.8199-23.55,79-22.49,119.98
			c0.85,36.03,8.7,71.79,22.39,105.09c9.97,4.36,20.42,7.92,31.27,9.24c6.25,0.73,12.5599,0.3101,18.7999-0.4399
			c21.9401-2.38,43.9-5.5,65.1901-11.47c13.78-4.02,27.7-9.13,38.9399-18.3301c7.66-6.21,13.13-15.2,14.4301-25.03
			c2.0499-14.5-1.96-28.96-6.21-42.7c-7.1201-21.9-16.3201-43.03-24.13-64.6801c-13.9601-37.6899-24.3601-77.2999-24.5601-117.72
			c-0.29-55.0699,4.48-109.98,6.5601-164.98c0.71-26.49,1.11-53.17-2.9601-79.4299c-2.85-17.2201-7.72-34.9801-19.2899-48.51
			c-8.0701-9.6101-19.7101-15.6801-31.9-18.17c-3.5701-0.74-7.1801-1.21-10.76-1.8101c0.1-55.7,0.02-111.3999,0.04-167.09
			c-0.3601-34.02,1.4099-68.1801-2.89-102.03c-8-67.13-32.75-132.96-74.8401-186.21c-3.5,16.79-12.25,32.4-24.76,44.14
			c-11.08,10.57-24.4199,18.57-38.48,24.5c-20.5299,8.68-42.4299,13.63-64.4299,16.84c-24.92,3.5601-50.13,4.8101-75.28,4.91
			c-0.02,14.42,0.06,28.83-0.08,43.25c18.14,0.35,35.96,8.59,47.7401,22.41c10.0699,11.57,15.7999,26.86,15.61,42.23
			c0.16,17.96-7.8301,35.75-21.2101,47.71c-13.53,12.35-32.5399,18.47-50.7299,16.18c-16.73-1.87-32.53-10.69-42.94-23.9
			c-12.07-14.9-16.62-35.33-12.49-54c3.37-15.24,12.41-29.23,25.15-38.3c9.19-6.77,20.27-10.84,31.61-11.95
			c0.1-14.62,0.08-29.23,0.03-43.84c-23.55-0.07-47.07-2.51-70.21-6.83c-20.31-4-40.41-9.53-59.42-17.78
			c-17.44-7.72-34.29-17.6-47.53-31.5c-8.6-8.93-15.0699-19.84-18.85-31.64c-43.15,56.22-67.85,125.49-74.04,195.83
			c-2.21,22.93-1.61,45.98-1.69,68.98c0,62.61-0.01,125.22,0.01,187.8301c-9.08-0.25-18.23-0.04-27.1201,1.9299
			c-3.12-1.0599-6.36-0.42-9.49,0.14c0.57-1.9,1.16-3.78,1.76-5.65c1.18-0.03,2.38-0.03,3.58-0.03c-0.92-0.5599-1.82-1.08-2.73-1.6
			c1.0099-1,2.0099-2,3.04-2.96c6.55-1.89,13.37-2.29,20.13-2.8101c-0.07-56.9299-0.01-113.86-0.03-170.7899
			c0.11-27.3501-0.72-54.7801,2.33-82.0201c7.52-73.52,34.81-145.76,81.84-203.19c-0.67-13.19,2.63-26.54,9.4-37.89
			c-26.74-14.3-51.62-32.77-70.84-56.38c-18.07-22.16-30.5-49.7-31.34-78.56c-0.47-6.46,0.32-12.9,0.57-19.34
			c-13.76,36.14-27.29,72.38-41.84,108.21c-8.18,19.69-16.54,39.38-26.93,58.04c-5.27,9.07-10.79,18.27-18.68,25.33
			c-5.08,4.68-12.42,7.96-19.33,5.7c-7.81-2.55-12.5099-9.94-16.05-16.89c-7.39-15.57-11.01-32.59-14.18-49.44
			c-8.17-47.07-10.47-94.94-11.08-142.64c-0.38-53.72,2.16-107.49,8.2401-160.87c5.49-46.44,13.27-92.86,27.79-137.41
			c6.95-20.72,15.37-41.21,27.87-59.25c7.58-11.19,17.84-20.11,27.61-29.31c30.58-27.68,64.83-51.71,102.64-68.44
			c22.57-9.81,46.55-17.23,71.26-18.57c22.02-1.33,45.69,3.03,63,17.54c21.98-8.41,45.4-13.29,68.97-13.38c25.34,0.01,50.67,0,76,0
			c7.65,0.06,15.3201-0.21,22.97,0.31c14.4301,0.79,28.66,3.56,42.6001,7.32C976.3707,75.0117,991.0007,69.7317,1005.7207,67.4017
			 M763.0208,98.6917c7.81,9.55,13.29,20.95,15.89,33.01c4.26,18.75,2.75,38.31-1.22,56.96c-4.46,20.53-12.13,40.25-21.42,59.05
			c-17.53,34.71-40.75,66.38-67.36,94.67c-6.24,6.76-13.0699,12.98-18.89,20.12c-12.88,15.67-23.25,33.18-32.98,50.91
			c-0.58,1.3-1.88,2.73-1,4.21c4.13,10.65,8.96,21.03,14.43,31.07c41.84-27.81,90.33-44.43,139.7-52.61
			c63.78-10.28,129.8801-7.63,192.28,9.42c35.8101,9.9,70.4801,24.84,101.01,46.18c9.12-15.98,16.6801-32.96,21.75-50.65
			c-13.4099-19.93-27.5599-39.68-45.5299-55.81c-27.39-22.75-52.4501-48.51-73.2401-77.46c8.8301,24.86,9.38,52.71,0.67,77.69
			c-5.36,15-14.3199,29.33-27.71,38.38c-10.4501,7.15-23.91,10.09-36.27,6.91c-15.26-3.73-27.46-15.27-35.32-28.48
			c-13.58-22.98-16.84-51.16-11.91-77.15c3.19-16.24,10-32.11,21.3199-44.37c8.54-9.25,20.25-16.09,32.98-17
			c13.24-1.07,26.7101,4.31,36.03,13.69c-1.33-3.96-3.84-7.36-5.61-11.11c-11.97-23.52-21.23-49.03-22.4399-75.62
			c-0.8101-17.09,2.45-34.82,11.7-49.43c1.65-2.76,3.88-5.12,5.45-7.93c-17.01-4.28-34.5699-5.99-52.09-5.51
			c-25.65-0.01-51.3,0-76.95-0.01C804.7708,87.5717,783.2808,91.4917,763.0208,98.6917 M906.7507,246.5017
			c-9.41,9.47-15.44,21.85-18.81,34.67c-4.24,16.45-4.58,33.98-0.62,50.51c1.81-13.17,8.59-25.71,19.39-33.62
			c4.3301-4.74,10.77-5.98,16.67-7.69c13.01-3.11,27.34,0.05,37.84,8.36c10.39,7.95,16.87,20.3,18.5701,33.19
			c4.2-18.35,3.64-37.86-2.15-55.8c-3.8101-11.83-10.05-23.14-19.38-31.5c-7.77-7.05-18.5-11.49-29.08-9.87
			C920.6007,235.8517,912.8507,240.5317,906.7507,246.5017 M914.6808,295.3117c-6.52,2.18-10.52,9.93-8.17,16.47
			c1.85,6.5,9.23,10.7,15.76,8.92c6.91-1.54,11.74-9.23,9.75-16.11C930.3907,297.2617,921.7307,292.4317,914.6808,295.3117
			 M853.4907,401.0517c-27.02,0.61-54,3.71-80.45,9.3c-36.73,7.89-72.68,20.66-104.93,40.1c-26.4,15.97-50.64,36.72-66.78,63.3
			c-10.73,17.71-17.2,38.18-17.29,58.96c-0.07,18.87,5.06,37.6,14.04,54.15c7.15,13.25,16.48,25.28,27.13,35.9
			c20.14,20.18,44.56,35.68,70.31,47.71c20.95,9.77,42.95,17.23,65.4,22.74c49.01,11.98,100.09,14.92,150.2501,9.91
			c45.26-4.72,90.1499-16.12,130.98-36.47c29.4-14.84,57.03-34.52,77.2-60.85c11.65-15.18,20.41-32.76,24.2001-51.58
			c3.8899-19.14,2.26-39.27-4.3201-57.63c-6.5-18.38-17.58-34.87-30.88-49.02c-25.83-27.36-59.1699-46.54-93.98-60.15
			C963.2708,407.7617,908.1007,399.7417,853.4907,401.0517 M628.8107,429.4617c-11.45,22.97-21.86,46.46-31.46,70.26
			c12.23-17.22,27.53-32.05,44.35-44.76C636.6907,446.8317,633.1508,437.9217,628.8107,429.4617 M881.3107,756.0317
			c-48.3,1.53-97.07-3.75-143.36-17.94c-2.86,2.47-5.53,5.22-7.33,8.59c3.52,6.52,9.85,10.82,15.97,14.68
			c15.55,9.28,33.05,14.69,50.5699,18.87c27.55,6.17,55.88,8.35,84.07,7.7401c25.4-0.47,50.91-2.25,75.8-7.55
			c14.87-3.4,29.9399-7.68,42.77-16.2c5.9199-3.9901,11.8999-9.94,11.6599-17.61c-2.27-4.87-6.58-8.53-11.0699-11.3
			C962.0608,748.2317,921.6708,754.4717,881.3107,756.0317 M881.1607,939.0817c0.04,4.38-0.08,8.77,0.28,13.16
			c-3.56-3.88-10.39-4.26-13.85-0.09c-4.16,4.98-4.57,12.83-1.23,18.34c3.28,5.28,11.87,4.56,14.77-0.79
			c0.09,1.27,0.19,2.55,0.31,3.84c1.39-0.02,2.8-0.03,4.22-0.03c0.06-11.5,0.01-23,0.03-34.51
			C884.5507,939.0217,882.2907,939.0617,881.1607,939.0817 M829.0308,941.2117c0.08,10.76,0,21.51,0.04,32.27
			c1.57,0,3.15,0.01,4.74,0.02c-0.02-4.86,0.01-9.72-0.04-14.58c3.85-0.05,7.71-0.03,11.58-0.04c0-0.87,0-2.61,0.01-3.48
			c-3.87,0-7.73,0-11.58-0.02c0.03-3.54,0.03-7.07-0.02-10.59c4.61-0.45,9.25,0.07,13.87-0.31c-0.05-1.13-0.08-2.25-0.1-3.36
			C841.3607,941.1617,835.1907,941.0017,829.0308,941.2117 M853.1207,941.1417c-0.03,1.42-0.04,2.85-0.04,4.3
			c1.5,0.01,3.01,0.01,4.54,0.02c-0.03-1.46-0.03-2.9-0.02-4.34C856.0908,941.1117,854.6007,941.1117,853.1207,941.1417
			 M853.1007,949.8517c0.02,7.8701-0.03,15.75,0.03,23.6201c1.47,0.0099,2.95,0.02,4.44,0.04c0.05-7.89-0.02-15.79,0.04-23.68
			C856.0908,949.8217,854.5908,949.8317,853.1007,949.8517 M899.4207,949.8717c-7.19,2.42-8.55,12.03-5.74,18.2
			c2.74,6.9,12.95,7.93,18.0099,3.11c4.1001-4.62,4.39-11.96,1.39-17.22C910.4807,949.2717,904.1307,948.2717,899.4207,949.8717z"/>
		<path stroke="#000000" stroke-width="0.0938" d="M797.3907,224.0017c10.82-1.52,22.03,1.34,31.07,7.39
			c12.69,8.25,21.49,21.35,27.03,35.23c8.06,20.63,9.52,43.62,5.11,65.26c-3.72,17.56-11.69,34.79-25.16,46.98
			c-9.93,9.11-23.64,14.55-37.19,12.86c-13.1-1.44-24.81-9.09-33.2-18.99c-12.2-14.23-18.61-32.63-20.85-51.06
			c-2.38-22,0.73-45.03,11.27-64.69C763.8907,240.8417,778.7207,226.5017,797.3907,224.0017 M787.1007,238.6117
			c-12.09,6.44-20.25,18.33-25.48,30.68c-7.99,19.61-9.38,41.78-4.61,62.35c1.95-14.61,10.27-28.47,23.08-36.01
			c11.06-6.73,25.08-8.3,37.34-4.11c3.11,1.13,6.57,1.64,9.26,3.72c4.56,3.77,9.36,7.37,12.87,12.21c5.46,6.98,8.56,15.5,9.88,24.21
			c5.1-21.85,3.24-45.56-6.2-66c-5.71-11.98-14.56-23.27-27.06-28.56C806.9307,233.0017,795.9008,233.7317,787.1007,238.6117
			 M812.7507,295.4417c-5.23,2.07-8.93,7.65-8.34,13.32c0.27,7.72,8.41,13.86,15.91,12.06c7.49-1.38,12.61-10.03,9.88-17.23
			C828.0507,296.5817,819.5208,292.4917,812.7507,295.4417z"/>
		<path stroke="#000000" stroke-width="0.0938" d="M806.3007,492.0017c28.89-8.39,59.64-9.85,89.36-5.55
			c21.41,3.24,42.7601,9.65,60.96,21.66c10.52,7.11,20.22,16.62,24.23,28.96c3.3,9.82,1.8301,20.91-3.36,29.8
			c-7.35,12.85-19.91,21.74-32.89,28.27c-21.21,10.51-44.8199,15.26-68.31,16.78c-1.63,0.01-3.29,0.31-4.86-0.13
			c-0.38-0.11-1.14-0.3199-1.52-0.43c-0.36,0.11-1.08,0.32-1.44,0.43c-8.35,1.03-16.91,0.05-25.3-0.52
			c-18.58-1.76-37.06-5.8-54.22-13.23c-12.55-5.48-24.61-12.83-33.62-23.3c-6.42-7.5-10.83-17.1-10.62-27.12
			c0.07-11.57,6.28-22.22,14.42-30.08C772.1007,504.8517,789.1207,497.1917,806.3007,492.0017 M845.7808,496.4717
			c-9.76,1.39-19.92,3.09-28.4,8.45c-3.31,2.01-6.4,6.04-4.4,10.03c3.5,5.6,10.27,7.71,16.22,9.66c17.32,4.78,35.62,5.27,53.39,3.17
			c9.49-1.41,19.34-3.21,27.56-8.46c3.1799-1.97,6.15-5.93,4.23-9.77c-2.83-5.05-8.75-7.14-13.89-9.04
			C882.8707,495.0217,864.0208,494.5217,845.7808,496.4717z"/>
		<path stroke="#000000" stroke-width="0.0938" d="M901.4308,952.9317c3.3199-1.47,7.3999,0.69,8.3199,4.14
			c1.23,4.15,1.17,9.7-2.48,12.64c-3.54,2.58-8.89,0.33-9.75-3.87C896.4008,961.4517,896.5707,954.9517,901.4308,952.9317z"/>
		<path stroke="#000000" stroke-width="0.0938" d="M1237.7307,1736.2518c3.5701-0.91,7.47,0.24,10.13,2.7899
			c5.46,4.91,7.1901,12.59,7.52,19.65c-0.02,6.39-1.17,13.05-4.8101,18.4399c-2.5199,3.6101-6.72,6.4-11.2699,5.9901
			c-5.2101-0.41-9.1901-4.65-11.25-9.16c-3.91-8.71-4.02-19.03-0.4301-27.86
			C1229.4108,1741.6517,1232.9507,1737.5117,1237.7307,1736.2518z"/>
		<path stroke="#000000" stroke-width="0.0938" d="M508.5607,1739.1818c3.33-1.39,7.3-1.13,10.31,0.9301
			c5.15,3.3099,7.55,9.38,8.59,15.1899c1.19,7.75,0.55,16.14-3.51,23.03c-2.27,3.7-6.03,7.0499-10.59,7.12
			c-4.68,0.3199-8.92-2.79-11.25-6.64c-4.59-7.41-5.24-16.71-3.5-25.09C499.9207,1747.9017,502.9107,1741.8118,508.5607,1739.1818z"
			/>
		<path stroke="#000000" stroke-width="0.0938" d="M626.5707,1745.1818c4.93-1.42,10.12,1.27,12.95,5.29
			c3.9,5.5399,5.17,12.52,5.03,19.1899c-0.3,6.4-1.81,13.1801-6.23,18.0701c-3.01,3.47-8.16,5.35-12.57,3.58
			c-6.08-2.21-9.11-8.65-10.57-14.52c-1.53-7.88-1.16-16.41,2.48-23.6699C619.5407,1749.5317,622.5807,1746.2917,626.5707,1745.1818
			z"/>
		<path stroke="#000000" stroke-width="0.0938" d="M1197.8907,1749.5018c3.79-1.3,8.1899-0.3,11.12,2.4299
			c4.6799,4.23,6.64,10.66,7.3,16.77c0.7,6.67-0.3601,13.64-3.51,19.61c-2.4501,4.46-7.16,8.3101-12.52,7.77
			c-5.1901-0.5701-9.12-4.78-11.15-9.33c-3.52-7.8501-3.75-16.9801-1.3101-25.16
			C1189.3907,1756.4718,1192.6508,1751.3917,1197.8907,1749.5018z"/>
		<path stroke="#000000" stroke-width="0.0938" d="M547.5308,1750.0117c4.7-2.1899,10.5099-0.12,13.54,3.89
			c4.5,5.49,5.92,12.86,5.79,19.8101c-0.19,6.27-1.68,12.8199-5.76,17.76c-2.92,3.74-8.24,5.95-12.84,4.2
			c-4.57-1.47-7.54-5.6799-9.31-9.91c-2.81-7.09-3-15.08-1.22-22.4399C539.1407,1757.9218,542.1207,1752.2518,547.5308,1750.0117z"
			/>
		<path stroke="#000000" stroke-width="0.0938" d="M586.5208,1752.0918c3.98-1.73,8.86-0.65,11.87,2.4299
			c4.54,4.1001,6.46,10.27,7.12,16.1901c0.68,7.4-0.37,15.2999-4.53,21.63c-2.34,3.5399-6.36,6.24-10.72,6.0699
			c-4.57-0.08-8.52-3.27-10.72-7.08c-4.22-7.13-4.8-15.84-3.42-23.85C577.4207,1761.3618,580.3107,1754.5518,586.5208,1752.0918z"/>
		<path stroke="#000000" stroke-width="0.0938" d="M1119.4907,1751.9318c4.77-2.15,10.45-0.01,13.59,3.92
			c4,5.01,5.54,11.5499,5.7301,17.85c0.0499,8.1799-1.8601,17.67-8.9901,22.66c-4.85,3.5199-11.9199,1.7899-15.45-2.78
			c-5.67-7.02-6.62-16.74-5.3199-25.37C1110.2708,1761.8318,1113.0707,1754.6118,1119.4907,1751.9318z"/>
		<path stroke="#000000" stroke-width="0.0938" d="M1157.6907,1752.2118c4.17-2.22,9.4801-0.99,12.8201,2.1799
			c3.67,3.4501,5.52,8.3601,6.49,13.2101c1.48,7.89,0.58,16.4199-3.39,23.49c-2.2999,3.62-5.91,6.97-10.4299,7.13
			c-4.8501,0.3199-9.2001-2.8401-11.5701-6.86c-4.34-7.17-4.96-16-3.53-24.0901
			C1149.3108,1761.3817,1152.0208,1755.0317,1157.6907,1752.2118z"/>
		<path stroke="#000000" stroke-width="0.0938" d="M695.6307,1775.1918c4.64-1.26,9.62,0.88,12.44,4.64
			c4.69,6.15,6.01,14.27,5.44,21.83c-0.64,6.8401-2.89,14.3201-8.82,18.41c-3.94,2.8099-9.59,2.41-13.29-0.62
			c-4.32-3.47-6.47-8.9401-7.46-14.23c-1.16-7.5801-0.66-15.72,3.07-22.54
			C688.9107,1779.3318,691.8007,1776.2018,695.6307,1775.1918z"/>
		<path stroke="#000000" stroke-width="0.0938" d="M923.7007,1775.4218c4.3401-1.59,9.3601,0.1,12.3401,3.52
			c4.8199,5.3199,6.2799,12.77,6.37,19.74c-0.13,6.25-1.4501,12.77-5.23,17.89c-2.5,3.42-6.6801,5.8099-10.9901,5.41
			c-4.0699-0.49-7.6299-3.2101-9.6799-6.67c-4.85-7.91-5.4301-17.88-3.1-26.7
			C914.9308,1783.1517,918.1107,1777.4718,923.7007,1775.4218z"/>
		<path stroke="#000000" stroke-width="0.0938" d="M825.5107,1778.0018c4.02-1.92,9.16-1.04,12.36,2.0599
			c4.08,3.7,6.08,9.12,6.94,14.46c1.1,8.8501,0.16,18.8501-6.08,25.74c-3.69,4.14-10.36,5.17-14.93,1.87
			c-6.97-5.0299-8.8-14.3199-8.82-22.3999C815.2507,1791.5918,817.7507,1782.0718,825.5107,1778.0018z"/>
		<path stroke="#000000" stroke-width="0.0938" d="M1039.6808,1784.2717c3.6799-1.6,8.08-0.7799,11.1599,1.7201
			c4.63,3.6599,6.75,9.5599,7.6901,15.22c1.0399,7.76,0.2,16.11-4.02,22.87c-2.41,3.78-6.59,6.86-11.27,6.47
			c-4.58-0.16-8.4299-3.4399-10.6-7.27c-4.2001-7.2999-4.74-16.23-3.12-24.34
			C1030.7808,1793.0317,1033.8807,1786.8118,1039.6808,1784.2717z"/>
		<path stroke="#000000" stroke-width="0.0938" d="M740.6307,1788.2518c3.43-1.01,7.37-0.3601,10.14,1.97
			c4.86,3.78,6.94,9.98,7.84,15.86c0.87,7.6899,0.06,16.04-4.33,22.63c-2.75,4.13-7.9,7.38-12.98,5.9199
			c-5.22-1.3199-8.78-6.0299-10.5-10.8899c-2.83-7.8101-2.86-16.62-0.13-24.4601
			C732.3307,1794.4918,735.6207,1789.8618,740.6307,1788.2518z"/>
		<path stroke="#000000" stroke-width="0.0938" d="M785.7307,1788.3218c2.95-0.88,6.3-0.7,8.94,1.01c5.18,2.95,7.65,8.89,8.86,14.48
			c1.4399,8.67,0.84,18.34-4.47,25.7c-2.89,4.15-8.56,6.7101-13.47,4.8c-4.21-1.38-7.07-5.15-8.85-9.02
			c-3.34-7.86-3.62-16.91-1.09-25.03C777.3408,1795.2518,780.4608,1790.0818,785.7307,1788.3218z"/>
		<path stroke="#000000" stroke-width="0.0938" d="M1001.6307,1788.2817c3.22-0.9,6.87-0.5,9.63,1.5
			c5.14,3.48,7.4299,9.79,8.39,15.6901c1.0499,7.9,0.24,16.5-4.24,23.2999c-2.74,4.2001-8.05,7.3201-13.12,5.78
			c-5.1801-1.2999-8.55-6.0499-10.3401-10.79c-2.85-7.88-2.86-16.7899-0.0699-24.6799
			C993.6007,1794.4518,996.7908,1789.9318,1001.6307,1788.2817z"/>
	</g>
	<g id="_x23_ffffffff">
		<path fill="#FFFFFF" stroke="#FFFFFF" stroke-width="0.0938" d="M787.1007,238.6117c8.8-4.88,19.83-5.61,29.08-1.51
			c12.5,5.29,21.35,16.58,27.06,28.56c9.44,20.44,11.3,44.15,6.2,66c-1.32-8.71-4.42-17.23-9.88-24.21
			c-3.51-4.84-8.31-8.44-12.87-12.21c-2.69-2.08-6.15-2.59-9.26-3.72c-12.26-4.19-26.28-2.62-37.34,4.11
			c-12.81,7.54-21.13,21.4-23.08,36.01c-4.77-20.57-3.38-42.74,4.61-62.35C766.8507,256.9417,775.0107,245.0517,787.1007,238.6117z"
			/>
		<path fill="#FFFFFF" stroke="#FFFFFF" stroke-width="0.0938" d="M906.7507,246.5017c6.1-5.97,13.85-10.65,22.4301-11.75
			c10.58-1.62,21.3099,2.82,29.08,9.87c9.33,8.36,15.5699,19.67,19.38,31.5c5.79,17.94,6.35,37.45,2.15,55.8
			c-1.7001-12.89-8.1801-25.24-18.5701-33.19c-10.5-8.31-24.83-11.47-37.84-8.36c-5.9,1.71-12.34,2.95-16.67,7.69
			c-10.8,7.91-17.58,20.45-19.39,33.62c-3.96-16.53-3.62-34.06,0.62-50.51C891.3107,268.3517,897.3408,255.9717,906.7507,246.5017z"
			/>
		<path fill="#FFFFFF" stroke="#FFFFFF" stroke-width="0.0938" d="M812.7507,295.4417c6.77-2.95,15.3,1.14,17.45,8.15
			c2.73,7.2-2.39,15.85-9.88,17.23c-7.5,1.8-15.64-4.34-15.91-12.06C803.8207,303.0917,807.5208,297.5117,812.7507,295.4417z"/>
		<path fill="#FFFFFF" stroke="#FFFFFF" stroke-width="0.0938" d="M914.6808,295.3117c7.0499-2.88,15.71,1.95,17.34,9.28
			c1.99,6.88-2.84,14.57-9.75,16.11c-6.53,1.78-13.91-2.42-15.76-8.92C904.1608,305.2417,908.1608,297.4917,914.6808,295.3117z"/>
		<path fill="#FFFFFF" stroke="#FFFFFF" stroke-width="0.0938" d="M845.7808,496.4717c18.24-1.95,37.09-1.45,54.71,4.04
			c5.14,1.9,11.0601,3.99,13.89,9.04c1.92,3.84-1.05,7.8-4.23,9.77c-8.22,5.25-18.07,7.05-27.56,8.46
			c-17.77,2.1-36.07,1.61-53.39-3.17c-5.95-1.95-12.72-4.06-16.22-9.66c-2-3.99,1.09-8.02,4.4-10.03
			C825.8607,499.5617,836.0208,497.8617,845.7808,496.4717z"/>
	</g>
	<g id="_x23_a77c52ff">
		<path fill="#A77C52" stroke="#A77C52" stroke-width="0.0938" d="M763.0208,98.6917c20.26-7.2,41.75-11.12,63.27-10.87
			c25.65,0.01,51.3,0,76.95,0.01c17.52-0.48,35.08,1.23,52.09,5.51c-1.5699,2.81-3.7999,5.17-5.45,7.93
			c-9.25,14.61-12.51,32.34-11.7,49.43c1.21,26.59,10.47,52.1,22.4399,75.62c1.77,3.75,4.28,7.15,5.61,11.11
			c-9.3199-9.38-22.79-14.76-36.03-13.69c-12.73,0.91-24.4399,7.75-32.98,17c-11.3199,12.26-18.1299,28.13-21.3199,44.37
			c-4.9301,25.99-1.67,54.17,11.91,77.15c7.86,13.21,20.06,24.75,35.32,28.48c12.36,3.18,25.8199,0.24,36.27-6.91
			c13.39-9.05,22.35-23.38,27.71-38.38c8.71-24.98,8.16-52.83-0.67-77.69c20.79,28.95,45.8501,54.71,73.2401,77.46
			c17.97,16.13,32.12,35.88,45.5299,55.81c-5.0699,17.69-12.63,34.67-21.75,50.65c-30.5299-21.34-65.2-36.28-101.01-46.18
			c-62.3999-17.05-128.4999-19.7-192.28-9.42c-49.37,8.18-97.86,24.8-139.7,52.61c-5.47-10.04-10.3-20.42-14.43-31.07
			c-0.88-1.48,0.42-2.91,1-4.21c9.73-17.73,20.1-35.24,32.98-50.91c5.82-7.14,12.65-13.36,18.89-20.12
			c26.61-28.29,49.83-59.96,67.36-94.67c9.29-18.8,16.96-38.52,21.42-59.05c3.97-18.65,5.48-38.21,1.22-56.96
			C776.3107,119.6417,770.8307,108.2417,763.0208,98.6917 M797.3907,224.0017c-18.67,2.5-33.5,16.84-41.92,32.98
			c-10.54,19.66-13.65,42.69-11.27,64.69c2.24,18.43,8.65,36.83,20.85,51.06c8.39,9.9,20.1,17.55,33.2,18.99
			c13.55,1.69,27.26-3.75,37.19-12.86c13.47-12.19,21.44-29.42,25.16-46.98c4.41-21.64,2.95-44.63-5.11-65.26
			c-5.54-13.88-14.34-26.98-27.03-35.23C819.4207,225.3417,808.2108,222.4817,797.3907,224.0017z"/>
		<path fill="#A77C52" stroke="#A77C52" stroke-width="0.0938" d="M1475.1708,718.0317c0.99-4.03-0.41-8.81,2.71-12.05
			c1.26,8.19,1.84,16.48,2.65,24.73c8.2,97.02-1.72,195.1-24.75,289.55c-20.2001,82.8201-50.5,163.2001-90.41,238.54
			c-35.73,67.46-79.11,131.0601-130.61,187.5c-3.7,3.91-7.15,8.0701-11.09,11.74c1.4399-32.8099,3.84-65.58,4.76-98.41
			c-0.53-3.58,2.7999-5.5699,4.8899-7.85c26.52-26.88,50.62-56.1,72.66-86.75c56.84-79.5499,99.3301-168.95,128.16-262.25
			C1462.5608,910.8017,1477.4607,814.3717,1475.1708,718.0317z"/>
		<path fill="#A77C52" stroke="#A77C52" stroke-width="0.0938" d="M881.3107,756.0317c40.36-1.56,80.7501-7.8,119.08-20.72
			c4.49,2.77,8.7999,6.43,11.0699,11.3c0.24,7.67-5.74,13.62-11.6599,17.61c-12.8301,8.52-27.9,12.8-42.77,16.2
			c-24.89,5.3-50.4,7.08-75.8,7.55c-28.19,0.61-56.52-1.57-84.07-7.7401c-17.52-4.18-35.02-9.59-50.5699-18.87
			c-6.1201-3.86-12.45-8.16-15.97-14.68c1.8-3.37,4.47-6.12,7.33-8.59C784.2407,752.2817,833.0107,757.5617,881.3107,756.0317z"/>
		<path fill="#A77C52" stroke="#A77C52" stroke-width="0.0938" d="M1074.8307,762.4317c42.0901,53.25,66.8401,119.08,74.8401,186.21
			c4.2999,33.85,2.5299,68.01,2.89,102.03c-0.02,55.6901,0.0599,111.39-0.04,167.09c3.58,0.6001,7.1899,1.0701,10.76,1.8101
			c12.1899,2.49,23.83,8.5599,31.9,18.17c11.5699,13.5299,16.4399,31.2899,19.2899,48.51
			c4.0701,26.2599,3.67,52.9399,2.9601,79.4299c-2.0801,55-6.8501,109.91-6.5601,164.98c0.2,40.42,10.6,80.03,24.5601,117.72
			c7.8099,21.65,17.0099,42.78,24.13,64.6801c4.25,13.74,8.2599,28.2,6.21,42.7c-1.3,9.8301-6.77,18.8201-14.4301,25.03
			c-11.24,9.2001-25.1599,14.3101-38.9399,18.3301c-21.29,5.97-43.25,9.09-65.1901,11.47c-6.24,0.75-12.5499,1.1699-18.7999,0.4399
			c-10.85-1.3199-21.3-4.88-31.27-9.24c-13.6901-33.2999-21.54-69.0599-22.39-105.09c-1.0601-40.98,6.6899-82.16,22.49-119.98
			c-3.3-1.4601-6.54-3.0801-10.02-4.02c-13.65,31.9-21.1599,66.37-23.08,101c-2.29,43.78,5.1899,87.99,21.49,128.6799
			c1.26,2.17-1.03,3.8401-2.26,5.3701c-16.55,18.25-40.29,28.3899-64.14,32.9099c-22.64,4.1901-46.21,3.3-68.48-2.5399
			c-17.6801-4.92-34.86-12.9801-48.27-25.7301c-12.41-11.5699-21.17-28.3099-19.44-45.6399c0.4901-8.2401,4.06-15.75,7.23-23.2201
			c-2.71-0.22-5.55,0.13-8.15-0.75c-0.24-79.09-0.03-158.1899-0.1-237.2799c-3.6-0.1001-7.19-0.1201-10.78-0.0901
			c-0.28,79.1801-0.09,158.36-0.09,237.54c-2.34,0.02-4.67,0.04-6.98,0.1c3.42,7.9,7.21,15.9,7.58,24.66
			c1.35,17.1-7.41,33.41-19.62,44.83c-12.35,11.5701-27.8,19.39-43.89,24.3201c-21.96,6.6-45.4,8-68.05,4.59
			c-18.48-2.87-36.69-8.99-52.3-19.45c-11.11-7.4401-20.89-17.3-26.75-29.42c16.08-41.13,23.58-85.72,20.79-129.84
			c-1.38-23.74-5.61-47.3101-12.53-70.0601c-3.09-9.77-6.16-19.62-10.58-28.88c-3.18,1.4301-6.37,2.8101-9.61,4.08
			c5.78,15.4301,11.32,31.01,14.85,47.15c13.68,58.3201,8.59,120.92-14.37,176.23c-13.61,9.29-29.27,15.9801-45.56,18.79
			c-12.22,2.22-24.67,0.8201-36.92-0.3099c-16.5-1.87-33.17-4.77-48.34-11.79c-10.37-4.8201-19.9001-12.3201-25.22-22.62
			c-6.8-13.12-6.9-28.4501-5.51-42.8101c2.8-24.5299,9.67-48.33,15.89-72.1499c12.05-44.51,23.1-89.77,24.66-136.0701
			c0.97-48.26-2.6-96.46-5.47-144.61c-1.49-25.61-2.96-51.29-2.09-76.95c0.89-18.0901,2.51-36.6001,9.66-53.4401
			c3.53-8.17,8.77-15.7999,15.95-21.1899c5.56-4.3,12.25-6.8501,18.98-8.6801c8.89-1.97,18.04-2.1799,27.1201-1.9299
			c-0.02-62.6101-0.01-125.2201-0.01-187.8301c0.08-23.0001-0.52-46.05,1.69-68.98c6.19-70.34,30.89-139.61,74.04-195.83
			c3.78,11.8,10.25,22.71,18.85,31.64c13.2401,13.9,30.09,23.78,47.53,31.5c19.01,8.25,39.11,13.78,59.42,17.78
			c23.14,4.3199,46.66,6.7599,70.21,6.83c0.05,14.61,0.07,29.22-0.03,43.84c-11.34,1.11-22.42,5.18-31.61,11.95
			c-12.74,9.07-21.78,23.06-25.15,38.3c-4.13,18.67,0.42,39.1,12.49,54c10.41,13.21,26.21,22.03,42.94,23.9
			c18.19,2.29,37.2-3.83,50.7299-16.18c13.38-11.96,21.3701-29.75,21.2101-47.71c0.1899-15.37-5.54-30.66-15.61-42.23
			c-11.78-13.82-29.6-22.06-47.7401-22.41c0.14-14.42,0.06-28.83,0.08-43.25c25.15-0.1,50.36-1.35,75.28-4.91
			c22-3.21,43.9-8.16,64.4299-16.84c14.0601-5.93,27.4-13.93,38.48-24.5C1062.5807,794.8317,1071.3307,779.2217,1074.8307,762.4317
			 M1237.7307,1736.2518c-4.78,1.2599-8.3199,5.3999-10.11,9.85c-3.59,8.83-3.48,19.15,0.4301,27.86
			c2.0599,4.51,6.0399,8.75,11.25,9.16c4.5499,0.4099,8.75-2.38,11.2699-5.9901c3.64-5.3899,4.79-12.0499,4.8101-18.4399
			c-0.33-7.0601-2.0601-14.74-7.52-19.65C1245.2007,1736.4918,1241.3008,1735.3418,1237.7307,1736.2518 M508.5607,1739.1818
			c-5.65,2.63-8.64,8.72-9.95,14.54c-1.74,8.38-1.09,17.6799,3.5,25.09c2.33,3.85,6.57,6.96,11.25,6.64
			c4.56-0.0701,8.32-3.42,10.59-7.12c4.06-6.89,4.7-15.28,3.51-23.03c-1.04-5.8099-3.44-11.88-8.59-15.1899
			C515.8607,1738.0518,511.8907,1737.7917,508.5607,1739.1818 M626.5707,1745.1818c-3.99,1.11-7.03,4.35-8.91,7.9401
			c-3.64,7.2599-4.0099,15.7899-2.48,23.6699c1.46,5.87,4.49,12.3101,10.57,14.52c4.41,1.77,9.56-0.11,12.57-3.58
			c4.42-4.89,5.93-11.67,6.23-18.0701c0.14-6.6699-1.13-13.65-5.03-19.1899
			C636.6907,1746.4518,631.5007,1743.7617,626.5707,1745.1818 M1197.8907,1749.5018c-5.24,1.8899-8.5,6.97-10.0701,12.09
			c-2.4399,8.1799-2.21,17.3099,1.3101,25.16c2.03,4.5499,5.96,8.7599,11.15,9.33c5.36,0.54,10.0699-3.3101,12.52-7.77
			c3.1499-5.97,4.21-12.9399,3.51-19.61c-0.66-6.11-2.6201-12.54-7.3-16.77
			C1206.0807,1749.2018,1201.6808,1748.2018,1197.8907,1749.5018 M547.5308,1750.0117c-5.41,2.2401-8.39,7.91-9.8,13.3101
			c-1.78,7.36-1.59,15.35,1.22,22.4399c1.77,4.2301,4.74,8.4401,9.31,9.91c4.6,1.75,9.92-0.46,12.84-4.2
			c4.08-4.9401,5.57-11.49,5.76-17.76c0.13-6.9501-1.29-14.3201-5.79-19.8101
			C558.0407,1749.8917,552.2307,1747.8218,547.5308,1750.0117 M586.5208,1752.0918c-6.21,2.46-9.1,9.27-10.4,15.39
			c-1.38,8.01-0.8,16.72,3.42,23.85c2.2,3.8099,6.15,7,10.72,7.08c4.36,0.17,8.38-2.53,10.72-6.0699
			c4.16-6.3301,5.21-14.23,4.53-21.63c-0.66-5.92-2.58-12.09-7.12-16.1901
			C595.3807,1751.4418,590.5007,1750.3618,586.5208,1752.0918 M1119.4907,1751.9318c-6.42,2.6801-9.22,9.9-10.4399,16.28
			c-1.3,8.63-0.3501,18.35,5.3199,25.37c3.53,4.5699,10.6,6.2999,15.45,2.78c7.13-4.99,9.04-14.4801,8.9901-22.66
			c-0.1901-6.3-1.7301-12.84-5.7301-17.85C1129.9407,1751.9218,1124.2607,1749.7817,1119.4907,1751.9318 M1157.6907,1752.2118
			c-5.6699,2.8199-8.3799,9.1699-9.61,15.0599c-1.4299,8.0901-0.8099,16.92,3.53,24.0901c2.37,4.0199,6.72,7.1799,11.5701,6.86
			c4.5199-0.16,8.13-3.51,10.4299-7.13c3.97-7.0701,4.87-15.6,3.39-23.49c-0.97-4.85-2.8199-9.76-6.49-13.2101
			C1167.1708,1751.2218,1161.8607,1749.9918,1157.6907,1752.2118 M695.6307,1775.1918c-3.83,1.01-6.72,4.14-8.62,7.49
			c-3.73,6.8201-4.23,14.96-3.07,22.54c0.99,5.2899,3.14,10.76,7.46,14.23c3.7,3.03,9.35,3.4299,13.29,0.62
			c5.93-4.09,8.18-11.5699,8.82-18.41c0.57-7.5599-0.75-15.6799-5.44-21.83
			C705.2507,1776.0718,700.2708,1773.9318,695.6307,1775.1918 M923.7007,1775.4218c-5.59,2.05-8.7699,7.73-10.2899,13.1901
			c-2.3301,8.8199-1.75,18.7899,3.1,26.7c2.05,3.46,5.61,6.1801,9.6799,6.67c4.3101,0.3999,8.4901-1.99,10.9901-5.41
			c3.7799-5.12,5.1-11.64,5.23-17.89c-0.0901-6.97-1.55-14.42-6.37-19.74C933.0608,1775.5217,928.0408,1773.8318,923.7007,1775.4218
			 M825.5107,1778.0018c-7.76,4.0699-10.26,13.59-10.53,21.73c0.02,8.08,1.85,17.37,8.82,22.3999c4.57,3.3,11.24,2.27,14.93-1.87
			c6.24-6.8899,7.18-16.8899,6.08-25.74c-0.86-5.34-2.86-10.76-6.94-14.46
			C834.6707,1776.9618,829.5308,1776.0818,825.5107,1778.0018 M1039.6808,1784.2717c-5.8,2.54-8.9,8.76-10.16,14.67
			c-1.62,8.11-1.0801,17.04,3.12,24.34c2.17,3.8301,6.02,7.11,10.6,7.27c4.6801,0.39,8.86-2.6899,11.27-6.47
			c4.22-6.76,5.0599-15.11,4.02-22.87c-0.9401-5.66-3.0601-11.5601-7.6901-15.22
			C1047.7607,1783.4918,1043.3607,1782.6718,1039.6808,1784.2717 M740.6307,1788.2518c-5.01,1.61-8.3,6.24-9.96,11.0299
			c-2.73,7.8401-2.7,16.65,0.13,24.4601c1.72,4.86,5.28,9.5699,10.5,10.8899c5.08,1.4601,10.23-1.7899,12.98-5.9199
			c4.39-6.59,5.2-14.9401,4.33-22.63c-0.9-5.88-2.98-12.08-7.84-15.86C748.0007,1787.8917,744.0607,1787.2418,740.6307,1788.2518
			 M785.7307,1788.3218c-5.27,1.76-8.39,6.9301-10.08,11.9399c-2.53,8.12-2.25,17.17,1.09,25.03c1.78,3.87,4.64,7.64,8.85,9.02
			c4.91,1.91,10.58-0.65,13.47-4.8c5.31-7.36,5.91-17.0299,4.47-25.7c-1.21-5.59-3.6801-11.53-8.86-14.48
			C792.0308,1787.6218,788.6807,1787.4418,785.7307,1788.3218 M962.7207,1788.3018c-5.01,1.6801-8.1,6.4401-9.8199,11.1801
			c-2.64,7.5599-2.5701,16.01-0.0701,23.61c1.74,4.75,4.79,9.6699,9.9,11.27c4.88,1.7799,10.4301-0.75,13.3201-4.8301
			c4.1399-5.6799,5.37-12.97,5.09-19.85c-0.1801-6.54-2.03-13.4399-6.67-18.24
			C971.5308,1788.3218,966.8207,1786.9918,962.7207,1788.3018 M1001.6307,1788.2817c-4.84,1.65-8.03,6.17-9.75,10.8
			c-2.79,7.89-2.78,16.7999,0.0699,24.6799c1.79,4.7401,5.16,9.4901,10.3401,10.79c5.0699,1.54,10.38-1.58,13.12-5.78
			c4.48-6.7999,5.2899-15.3999,4.24-23.2999c-0.9601-5.9-3.25-12.2101-8.39-15.6901
			C1008.5007,1787.7817,1004.8507,1787.3817,1001.6307,1788.2817z"/>
	</g>
	<g id="_x23_c69c6cff">
		<path fill="#C69C6C" stroke="#C69C6C" stroke-width="0.0938" d="M853.4907,401.0517c54.61-1.31,109.78,6.71,160.88,26.37
			c34.8101,13.61,68.15,32.79,93.98,60.15c13.3,14.15,24.38,30.64,30.88,49.02c6.5801,18.36,8.21,38.49,4.3201,57.63
			c-3.79,18.8199-12.55,36.4-24.2001,51.58c-20.1699,26.33-47.7999,46.01-77.2,60.85c-40.8301,20.35-85.72,31.75-130.98,36.47
			c-50.16,5.01-101.2401,2.07-150.2501-9.91c-22.45-5.51-44.45-12.97-65.4-22.74c-25.75-12.03-50.17-27.53-70.31-47.71
			c-10.65-10.62-19.98-22.65-27.13-35.9c-8.98-16.55-14.11-35.28-14.04-54.15c0.09-20.78,6.56-41.25,17.29-58.96
			c16.14-26.58,40.38-47.33,66.78-63.3c32.25-19.44,68.2-32.21,104.93-40.1C799.4907,404.7617,826.4707,401.6617,853.4907,401.0517
			 M806.3007,492.0017c-17.18,5.19-34.2,12.85-47.17,25.54c-8.14,7.86-14.35,18.51-14.42,30.08c-0.21,10.02,4.2,19.62,10.62,27.12
			c9.01,10.47,21.07,17.82,33.62,23.3c17.16,7.4301,35.64,11.47,54.22,13.23c8.39,0.57,16.95,1.55,25.3,0.52
			c0.2,24.42-0.11,48.85,0.16,73.28c-1.71,0.93-3.5,1.73-5.41,2.08c-20.39,4.39-41.77,4.77-62.14,0.08
			c-28.69-6.44-55.49-22.84-72.47-47.1c-1.67,1.17-3.35,2.33-5.03,3.47c17.87,26.7401,47.61,44.03,78.75,50.4301
			c22.06,4.71,44.99,3.37,66.87-1.6201c15.38,3.51,31.25,5.39,47.04,4.2401c21.9401-1.4,43.63-7.93,62.45-19.36
			c13.9801-8.61,26.75-19.7599,35.63-33.66c-1.5499-1.41-3.36-2.45-5.1-3.55c-14.97,22.27-38.83,37.55-64.3099,45.1
			c-23.8101,7.07-49.4,6.92-73.47,1.23c-0.13-24.87-0.11-49.75-0.01-74.62c1.57,0.44,3.23,0.14,4.86,0.13
			c23.4901-1.52,47.1-6.27,68.31-16.78c12.98-6.53,25.54-15.42,32.89-28.27c5.1901-8.89,6.66-19.98,3.36-29.8
			c-4.01-12.34-13.71-21.85-24.23-28.96c-18.2-12.01-39.55-18.42-60.96-21.66
			C865.9407,482.1517,835.1907,483.6117,806.3007,492.0017z"/>
		<path fill="#C69C6C" stroke="#C69C6C" stroke-width="0.0938" d="M1471.8807,665.8517c2.58,13.28,4.22,26.72,6,40.13
			c-3.12,3.2401-1.72,8.02-2.71,12.05C1474.8108,700.6017,1473.8008,683.1817,1471.8807,665.8517z"/>
	</g>
	<g id="_x23_010000ff">
		<path fill="#010000" stroke="#010000" stroke-width="0.0938" d="M1441.5508,557.9717c3.1-2.6,6.13-5.3,9.21-7.9301
			c16.3199,41.38,27.49,84.71,34.41,128.63c8.37,52.86,10.45,106.58,8.13,160.01c-4.39,93.84-23.42,186.7401-53.67,275.58
			c-26.73,78.0901-62.62,153.0901-107.27,222.52c-25.52,39.4-53.6899,77.1901-85.28,111.9401
			c-0.0599-0.49-0.1899-1.4601-0.25-1.9401c0.2301-0.51,0.6901-1.5299,0.92-2.0399c-1.62-0.8101-3.39-1.2201-5.1899-1.12
			c-0.3201-0.0801-0.9801-0.2401-1.3101-0.3201c-1.13,1.04-2.24,2.09-3.33,3.16c-0.79-0.04-2.37-0.12-3.16-0.16
			c51.5-56.4399,94.88-120.04,130.61-187.5c39.91-75.34,70.21-155.72,90.41-238.54c23.03-94.45,32.95-192.53,24.75-289.55
			c-0.8101-8.25-1.39-16.54-2.65-24.73c-1.78-13.41-3.42-26.85-6-40.13c1.92,17.33,2.9301,34.75,3.29,52.1801
			c2.2899,96.34-12.61,192.77-41.03,284.75c-28.83,93.3-71.3201,182.7001-128.16,262.25c-0.41-1.5299-0.63-3.0599-1.2-4.49
			c-1.42-0.98-3.03-1.62-4.5801-2.2999c1.3301-0.3501,2.6801-0.6901,4.05-1c-1.45-0.8301-2.86-1.7301-4.29-2.55
			c47.87-67.74,85.16-142.6899,112.5601-220.91c29.64-84.96,47.88-174.14,51.39-264.14
			C1466.7407,698.5217,1460.0208,626.8017,1441.5508,557.9717z"/>
		<path fill="#010000" stroke="#010000" stroke-width="0.0938" d="M962.7207,1788.3018c4.1-1.3099,8.8101,0.02,11.75,3.14
			c4.64,4.8,6.49,11.7,6.67,18.24c0.28,6.88-0.9501,14.17-5.09,19.85c-2.89,4.0801-8.4401,6.61-13.3201,4.8301
			c-5.11-1.6001-8.16-6.52-9.9-11.27c-2.5-7.6-2.5699-16.05,0.0701-23.61C954.6207,1794.7418,957.7107,1789.9818,962.7207,1788.3018
			z"/>
	</g>
	<g id="_x23_030101ff">
		<path fill="#030101" stroke="#030101" stroke-width="0.0938" d="M868.4707,611.7917c0.36-0.11,1.08-0.3199,1.44-0.43
			c0.38,0.11,1.14,0.32,1.52,0.43c-0.1,24.87-0.12,49.75,0.01,74.62c24.07,5.69,49.66,5.84,73.47-1.23
			c25.48-7.55,49.34-22.83,64.3099-45.1c1.74,1.1,3.55,2.14,5.1,3.55c-8.88,13.9-21.6499,25.05-35.63,33.66
			c-18.8199,11.4301-40.5099,17.96-62.45,19.36c-15.79,1.15-31.66-0.73-47.04-4.2401c-21.88,4.9901-44.81,6.33-66.87,1.6201
			c-31.14-6.4-60.88-23.69-78.75-50.4301c1.68-1.14,3.36-2.3,5.03-3.47c16.98,24.26,43.78,40.66,72.47,47.1
			c20.37,4.69,41.75,4.31,62.14-0.08c1.91-0.35,3.7-1.15,5.41-2.08C868.3607,660.6417,868.6707,636.2117,868.4707,611.7917z"/>
	</g>
	<g id="_x23_fefefeff">
		<path fill="#FEFEFE" stroke="#FEFEFE" stroke-width="0.0938" d="M881.1607,939.0817c1.13-0.02,3.39-0.06,4.53-0.08
			c-0.02,11.51,0.03,23.01-0.03,34.51c-1.42,0-2.83,0.01-4.22,0.03c-0.12-1.29-0.22-2.5699-0.31-3.84
			c-2.9,5.35-11.49,6.07-14.77,0.79c-3.34-5.51-2.93-13.36,1.23-18.34c3.46-4.17,10.29-3.79,13.85,0.09
			C881.0807,947.8517,881.2007,943.4617,881.1607,939.0817 M872.5007,953.0617c-4.33,3.06-4.28,9.64-2.69,14.19
			c2.14,5.11,9.77,2.77,11.47-1.46c0.1299-3.35,0.17-6.72-0.04-10.06C879.4107,953.0417,875.5107,951.6217,872.5007,953.0617z"/>
		<path fill="#FEFEFE" stroke="#FEFEFE" stroke-width="0.0938" d="M829.0308,941.2117c6.16-0.21,12.33-0.05,18.5-0.09
			c0.02,1.11,0.05,2.23,0.1,3.36c-4.62,0.38-9.26-0.14-13.87,0.31c0.05,3.52,0.05,7.05,0.02,10.59c3.85,0.02,7.71,0.02,11.58,0.02
			c-0.01,0.87-0.01,2.61-0.01,3.48c-3.87,0.01-7.73-0.01-11.58,0.04c0.05,4.86,0.02,9.72,0.04,14.58c-1.59-0.01-3.17-0.02-4.74-0.02
			C829.0308,962.7217,829.1107,951.9717,829.0308,941.2117z"/>
		<path fill="#FEFEFE" stroke="#FEFEFE" stroke-width="0.0938" d="M853.1207,941.1417c1.48-0.03,2.97-0.03,4.48-0.02
			c-0.0099,1.44-0.0099,2.88,0.02,4.34c-1.53-0.01-3.04-0.01-4.54-0.02C853.0807,943.9917,853.0908,942.5617,853.1207,941.1417z"/>
		<path fill="#FEFEFE" stroke="#FEFEFE" stroke-width="0.0938" d="M853.1007,949.8517c1.4901-0.02,2.9901-0.03,4.51-0.02
			c-0.06,7.89,0.01,15.79-0.04,23.68c-1.49-0.02-2.97-0.03-4.44-0.04C853.0707,965.6017,853.1207,957.7217,853.1007,949.8517z"/>
		<path fill="#FEFEFE" stroke="#FEFEFE" stroke-width="0.0938" d="M899.4207,949.8717c4.71-1.6,11.06-0.6,13.66,4.09
			c3,5.26,2.7101,12.6-1.39,17.22c-5.0599,4.82-15.27,3.79-18.0099-3.11C890.8707,961.9017,892.2307,952.2917,899.4207,949.8717
			 M901.4308,952.9317c-4.86,2.02-5.03,8.52-3.91,12.91c0.86,4.2,6.21,6.45,9.75,3.87c3.65-2.94,3.71-8.49,2.48-12.64
			C908.8307,953.6217,904.7507,951.4617,901.4308,952.9317z"/>
	</g>
	<g id="_x23_010101ff">
		<path fill="#010101" stroke="#010101" stroke-width="0.0938" d="M872.5007,953.0617c3.01-1.44,6.91-0.02,8.74,2.67
			c0.21,3.34,0.17,6.71,0.04,10.06c-1.7,4.23-9.33,6.57-11.47,1.46C868.2207,962.7017,868.1707,956.1217,872.5007,953.0617z"/>
	</g>
	<g id="_x23_010001ff">
		<path fill="#010001" stroke="#010001" stroke-width="0.0938" d="M543.7108,1217.0018c5.59-3.52,11.75-6.14,18.17-7.67
			c-1.03,0.96-2.03,1.96-3.04,2.96c0.91,0.52,1.81,1.04,2.73,1.6c-1.2,0-2.4,0-3.58,0.03c-0.6,1.87-1.19,3.75-1.76,5.65
			c3.13-0.5601,6.37-1.2,9.49-0.14c-6.73,1.83-13.42,4.38-18.98,8.6801c-7.18,5.39-12.42,13.0199-15.95,21.1899
			c-7.15,16.84-8.77,35.35-9.66,53.4401c-0.87,25.6599,0.6,51.34,2.09,76.95c2.8701,48.15,6.44,96.35,5.47,144.61
			c-1.56,46.3-12.61,91.5601-24.66,136.0701c-6.22,23.8199-13.09,47.62-15.89,72.1499c-1.39,14.36-1.29,29.6901,5.51,42.8101
			c5.3199,10.2999,14.85,17.7999,25.22,22.62c15.17,7.02,31.84,9.92,48.34,11.79c12.25,1.13,24.7,2.5299,36.92,0.3099
			c16.29-2.8099,31.95-9.5,45.56-18.79c22.96-55.3099,28.05-117.9099,14.37-176.23c-3.53-16.14-9.07-31.72-14.85-47.15
			c3.24-1.2699,6.43-2.6499,9.61-4.08c4.42,9.26,7.49,19.11,10.58,28.88c6.92,22.75,11.15,46.3201,12.53,70.0601
			c2.79,44.12-4.71,88.71-20.79,129.84c5.86,12.12,15.64,21.98,26.75,29.42c15.61,10.46,33.82,16.58,52.3,19.45
			c22.65,3.41,46.09,2.01,68.05-4.59c16.09-4.9301,31.54-12.75,43.89-24.3201c12.21-11.4199,20.97-27.73,19.62-44.83
			c-0.37-8.76-4.16-16.76-7.58-24.66c2.31-0.0599,4.64-0.08,6.98-0.1c0-79.1801-0.19-158.36,0.09-237.54
			c3.59-0.03,7.18-0.01,10.78,0.0901c0.07,79.09-0.14,158.1899,0.1,237.2799c2.6,0.88,5.44,0.53,8.15,0.75
			c-3.17,7.4701-6.74,14.98-7.23,23.2201c-1.73,17.33,7.03,34.0699,19.44,45.6399c13.41,12.75,30.59,20.8101,48.27,25.7301
			c-5.58,2.5499-12.5-1.3-17.34,3.2799c-1.17-1.83-2.03-3.8199-2.4-5.9399c0.78-0.24,1.5699-0.46,2.38-0.65
			c-0.38-0.61-1.12-1.8199-1.49-2.4301c-2.09,0.4801-3.6801,1.8401-4.99,3.4601c-0.8101-0.23-1.61-0.47-2.39-0.64
			c0.66,1.9399,1.39,3.89,2.12,5.84c-20.59-9.23-39.83-24.14-49.26-45.15c-6.57,14.42-17.87,26.3101-30.98,35.03
			c-17,11.42-36.8,18.1901-56.96,21.28c-25.78,3.8199-52.54,1.9399-77.28-6.41c-23.43-7.9199-45.8-22.26-58.5099-44
			c-15.07,9.52-31.88,16.67-49.6,19.26c-14.37,2.22-28.92,0.35-43.26-1.12c-20.87-2.78-42.44-7.4299-59.81-20
			c-12.48-9.01-20.85-23.12-23.13-38.3099c-3.77-23.89,1.75-47.9401,7.15-71.13c11.05-44.0601,24.57-87.7101,30.08-132.9401
			c3.4-24.79,3.26-49.85,2.58-74.8099c-1.17-51.4-6.26-102.63-7.6-154.03c-0.18-24.78,0.03-50.0701,7.17-74.02
			C521.6907,1239.7717,530.2607,1225.4017,543.7108,1217.0018z"/>
	</g>
</g>
</svg>
