<?xml version="1.0" encoding="utf-8"?>
<!DOCTYPE svg PUBLIC "-//W3C//DTD SVG 1.1//EN" "http://www.w3.org/Graphics/SVG/1.1/DTD/svg11.dtd">
<svg version="1.1" id="Layer_1" xmlns="http://www.w3.org/2000/svg" xmlns:xlink="http://www.w3.org/1999/xlink" x="0px" y="0px"
	 viewBox="0 0 1110 1132" enable-background="new 0 0 1110 1132" xml:space="preserve">
<g>
	<g id="_x23_d38002e2">
		<path opacity="0.89" fill="#D38002" stroke="#D38002" stroke-width="0.0938" enable-background="new    " d="M314.2,58.24
			c1.61-1.56,4.87-1.71,5.72,0.75l-0.81,0.36c-6.76,1.92-9.98,8.42-13.35,13.95c-1.34,1.56-2.78,3.04-4.05,4.66
			C304.13,70.52,308.06,63.24,314.2,58.24z"/>
	</g>
	<g id="_x23_fd9f02ff">
		<path fill="#FD9F02" stroke="#FD9F02" stroke-width="0.0938" d="M305.76,73.3c3.37-5.53,6.59-12.03,13.35-13.95
			c3.92,5.98,3.88,13.48,5.73,20.21c2.01,9.43,5.21,18.56,8.81,27.5c-1.21,2.78-2.25,5.91-4.87,7.71
			c-5.36,3.94-12.48,3.78-18.8,3.22c-5.9-0.42-11.7-4.96-11.87-11.19C297.55,95.16,301.42,83.92,305.76,73.3z"/>
	</g>
	<g id="_x23_b31f03ff">
		<path fill="#B31F03" stroke="#B31F03" stroke-width="0.0938" d="M352.59,67.54c5.22-1.89,11.14-2.43,16.58-1.22
			c-3.61,0.81-7.27,1.7-10.34,3.86c1.34,5.84,7.88,7.79,13.15,8.08c2.79,0.09,6.99,0.08,7.66-3.4c-1.02-3.22-4.02-5.25-6.34-7.51
			c5.59,1.83,11.55,5.31,13.22,11.36c0.76,2.93,1.44,6.63-0.85,9.07c-2.93,3.85-7.61,5.58-11.83,7.6
			c-6.49-1.33-12.97-2.65-19.17-5.04c-2.26-1.69-3.61-4.5-5.34-6.74C345.56,78.65,346.37,70.14,352.59,67.54z"/>
	</g>
	<g id="_x23_dd5905ff">
		<path fill="#DD5905" stroke="#DD5905" stroke-width="0.0938" d="M358.83,70.18c3.07-2.16,6.73-3.05,10.34-3.86
			c1.43-0.02,2.9,0.25,4.13,1.03c2.32,2.26,5.32,4.29,6.34,7.51c-0.67,3.48-4.87,3.49-7.66,3.4
			C366.71,77.97,360.17,76.02,358.83,70.18z"/>
	</g>
	<g id="_x23_f45d04ff">
		<path fill="#F45D04" stroke="#F45D04" stroke-width="0.0938" d="M301.71,77.96c1.27-1.62,2.71-3.1,4.05-4.66
			c-4.34,10.62-8.21,21.86-7.65,33.5c0.17,6.23,5.97,10.77,11.87,11.19c6.32,0.56,13.44,0.72,18.8-3.22
			c2.62-1.8,3.66-4.93,4.87-7.71c1.23,2.6,2.69,5.09,4.35,7.45c-5.86,3.44-12.74,4.09-19.03,6.42c-6.94,2.23-13.48,6.29-21.01,6
			c-0.05-6.05-2.13-11.85-2.13-17.9C295.38,98.4,297.69,87.76,301.71,77.96z"/>
	</g>
	<g id="_x23_b31d03ff">
		<path fill="#B31D03" stroke="#B31D03" stroke-width="0.0938" d="M420.66,105.64c2.23-3.33,6.78-3.44,10.38-3.25
			c5.74,1.54,11.56,4.79,14.45,10.21c-2.84-1.46-5.63-3.1-8.71-3.97c-1.97-0.53-3.89,1.37-3.56,3.36c0.36,5.24,3.99,9.74,8.16,12.67
			c1.79,1.45,4.12,1.24,6.28,1.23c0.4-2.98,0.76-5.97,0.86-8.97c3.03,4.99,3.95,11.28,2.19,16.88c-0.71,2.3-2.55,4.32-4.88,5.01
			c-6.56,2.03-13.48-2.09-19.89,1.03c1.88-1.1,3.9-1.94,5.92-2.77c-6.69-3.62-10.94-10.2-13.84-17.01
			C417.89,115.21,417.89,109.86,420.66,105.64z"/>
	</g>
	<g id="_x23_e15804ff">
		<path fill="#E15804" stroke="#E15804" stroke-width="0.0938" d="M433.22,111.99c-0.33-1.99,1.59-3.89,3.56-3.36
			c3.08,0.87,5.87,2.51,8.71,3.97c1.39,1.12,2.27,2.73,3.03,4.32c-0.1,3-0.46,5.99-0.86,8.97c-2.16,0.01-4.49,0.22-6.28-1.23
			C437.21,121.73,433.58,117.23,433.22,111.99z"/>
	</g>
	<g id="_x23_fde201ff">
		<path fill="#FDE201" stroke="#FDE201" stroke-width="0.0938" d="M348,121.87c6.17-0.66,12.56-1.31,18.58,0.66
			c10.78,3.41,21.22,8,30.72,14.15c6.23,4.76,12.07,10.37,15.57,17.48c6.21,11.9,6.75,25.7,7.03,38.84
			c0.43,16.73-1.4,33.38-3.2,49.98c-0.4,5.77-1.56,11.43-2.68,17.09c-3.03,18.46-6.83,37.09-14.99,54.06
			c-1.52,2.95-3.28,5.91-5.84,8.09c-1.72,1.35-4.09,0.35-5.64-0.79c-4.19-3.08-7.54-7.12-11.28-10.71
			c-11.58-11.42-22.66-23.37-34.98-34c-6.19-6.57-13.74-11.59-20.48-17.53c-3.94-3.48-8.53-6.1-12.63-9.37
			c-8-6.24-16.75-11.41-25.51-16.5c-18.79-10.87-39.46-18.53-60.91-22.03c-7.36-1.75-14.96-1-22.41-1.77
			c-2.22-0.03-3.62-1.64-4.48-3.5c1.53-2.16,3.26-4.18,5.38-5.78c7.25-5.73,14.39-11.59,21.66-17.3
			c15.09-10.79,30.46-21.19,46.47-30.57c2.04-1.28,4.31-2.14,6.72-2.36c-1.28,2.44-2.38,4.97-3.3,7.57
			c-4.34,10.95,4.7,23.71,16.15,24.4c10.42,1.25,20.53-7.57,21.12-17.96c1.2-10.69-8.34-21.51-19.39-20.17
			c-1.26-0.05-2.51-0.04-3.76,0.02c10.04-6.76,21.59-10.74,32.81-15.06C328.26,125.71,337.94,122.61,348,121.87 M375.97,224.97
			c-1.33,9.52,6.05,18.81,15.34,20.5c3.36,0.5,7.46,1.08,10.01-1.73l0.78,0.14c3.16-1.97,6.46-4.1,8.38-7.4
			c2.54-4.22,2.67-9.4,2.01-14.14c-0.52-2.3-1.2-4.99-3.36-6.28c-0.53-1.17-0.75-2.58-1.92-3.31c-3.78-2.86-8.44-4.88-13.23-4.88
			C385.03,208.46,376.63,215.81,375.97,224.97z"/>
	</g>
	<g id="_x23_fbfb6fff">
		<path fill="#FBFB6F" stroke="#FBFB6F" stroke-width="0.0938" d="M275.1,150.01c2.97-2.93,6.74-5.17,10.82-6.14
			c1.25-0.06,2.5-0.07,3.76-0.02c4.98,2.02,10.39,4.42,12.99,9.45c2.67,5.43,3.28,12.61-0.74,17.57c-1.1,1.95-3.26,2.59-5.3,3.04
			c3.53-3.01,7.09-6.88,6.6-11.9c0.7-8.3-8.16-15.09-16.07-12.91c-7.3,1.45-12.14,10.16-9.4,17.11c1.08,3.35,3.73,5.84,6.47,7.9
			c-1.96-0.29-4.33,0.04-5.73-1.7c-4-3.95-4.71-9.81-6.7-14.83C272.72,154.98,273.82,152.45,275.1,150.01z"/>
	</g>
	<g id="_x23_fcfc55ff">
		<path fill="#FCFC55" stroke="#FCFC55" stroke-width="0.0938" d="M289.68,143.85c11.05-1.34,20.59,9.48,19.39,20.17
			c-0.59,10.39-10.7,19.21-21.12,17.96c-11.45-0.69-20.49-13.45-16.15-24.4c1.99,5.02,2.7,10.88,6.7,14.83
			c1.4,1.74,3.77,1.41,5.73,1.7c4.07,1.12,8.39,1.18,12.4-0.2c2.04-0.45,4.2-1.09,5.3-3.04c4.02-4.96,3.41-12.14,0.74-17.57
			C300.07,148.27,294.66,145.87,289.68,143.85z"/>
	</g>
	<g id="_x23_020204ff">
		<path fill="#020204" stroke="#020204" stroke-width="0.0938" d="M277.76,166.21c-2.74-6.95,2.1-15.66,9.4-17.11
			c7.91-2.18,16.77,4.61,16.07,12.91c0.49,5.02-3.07,8.89-6.6,11.9c-4.01,1.38-8.33,1.32-12.4,0.2
			C281.49,172.05,278.84,169.56,277.76,166.21 M293.91,158.17c0.05,1.55,0.07,3.09,0.09,4.64c1.02,0.4,2.01,0.85,2.99,1.35
			c0.96-0.54,1.95-1.04,2.96-1.49c0.02-1.5,0.04-3,0.12-4.49C298.17,156.69,295.83,156.75,293.91,158.17z"/>
		<path fill="#020204" stroke="#020204" stroke-width="0.0938" d="M390.32,215.25c4.85-1.13,10.57-0.58,13.96,3.48
			c6.1,6.12,3.15,17.77-4.95,20.55c-7.73,3.34-17.1-3.03-17.37-11.29C381.6,222.46,385.46,217.47,390.32,215.25 M398.88,224.14
			c0.06,1.49,0.11,2.99,0.14,4.49c1.04,0.45,2.08,0.93,3.11,1.43c1.19-1.21,3.46-1.99,2.92-4.07
			C404.83,222.93,400.93,222.23,398.88,224.14z"/>
	</g>
	<g id="_x23_f25f05ff">
		<path fill="#F25F05" stroke="#F25F05" stroke-width="0.0938" d="M418.18,153.68c5.22,1.42,10.56,2.35,15.94,2.93
			c12.54,2.21,25.35,1.36,37.93-0.01c3.61-0.25,7.29-0.62,10.88,0.07c1.93,0.98,1.86,3.42,1.32,5.21
			c-4.13,8.51-11.57,14.78-19.18,20.12c-11.43,7.87-24.95,13.86-39.12,12.89C425.14,180.92,423.65,166.69,418.18,153.68
			 M425.69,163.59c-1.85,8.08-0.1,17.08,5.27,23.49c2.79,3.16,7.38,4.83,11.47,3.39c11.57-3.39,22.3-9.67,31.06-17.95
			c3.97-3.79,8.31-8.74,6.64-14.69c-5.49-0.78-10.69,1.63-16.11,1.83c-6.02,0.24-12.06,0.34-18.07,0.11
			c-4.72-0.15-9.22-1.95-13.93-2.04C428.78,157.73,426.36,160.63,425.69,163.59z"/>
	</g>
	<g id="_x23_f6fda8ff">
		<path fill="#F6FDA8" stroke="#F6FDA8" stroke-width="0.0938" d="M293.91,158.17c1.92-1.42,4.26-1.48,6.16,0.01
			c-0.08,1.49-0.1,2.99-0.12,4.49c-1.01,0.45-2,0.95-2.96,1.49c-0.98-0.5-1.97-0.95-2.99-1.35
			C293.98,161.26,293.96,159.72,293.91,158.17z"/>
	</g>
	<g id="_x23_fe9f01ff">
		<path fill="#FE9F01" stroke="#FE9F01" stroke-width="0.0938" d="M425.69,163.59c0.67-2.96,3.09-5.86,6.33-5.86
			c4.71,0.09,9.21,1.89,13.93,2.04c6.01,0.23,12.05,0.13,18.07-0.11c5.42-0.2,10.62-2.61,16.11-1.83c1.67,5.95-2.67,10.9-6.64,14.69
			c-8.76,8.28-19.49,14.56-31.06,17.95c-4.09,1.44-8.68-0.23-11.47-3.39C425.59,180.67,423.84,171.67,425.69,163.59z"/>
	</g>
	<g id="_x23_fdfd45ff">
		<path fill="#FDFD45" stroke="#FDFD45" stroke-width="0.0938" d="M375.97,224.97c0.66-9.16,9.06-16.51,18.01-17.1
			c4.79,0,9.45,2.02,13.23,4.88c1.17,0.73,1.39,2.14,1.92,3.31c-4.77-2.31-9.36-6.67-15.08-5.18c-6.05,0.29-9.8,5.79-12.93,10.27
			c-1.06,4.29-1.12,8.92-0.33,13.27c2.63,4.6,7.58,8.45,13.08,8.48c2.5,0.14,4.99,0.38,7.45,0.84c-2.55,2.81-6.65,2.23-10.01,1.73
			C382.02,243.78,374.64,234.49,375.97,224.97z"/>
	</g>
	<g id="_x23_fafb69ff">
		<path fill="#FAFB69" stroke="#FAFB69" stroke-width="0.0938" d="M394.05,210.88c5.72-1.49,10.31,2.87,15.08,5.18
			c2.16,1.29,2.84,3.98,3.36,6.28c0.66,4.74,0.53,9.92-2.01,14.14c-1.92,3.3-5.22,5.43-8.38,7.4l-0.78-0.14
			c-2.46-0.46-4.95-0.7-7.45-0.84c-5.5-0.03-10.45-3.88-13.08-8.48c-0.79-4.35-0.73-8.98,0.33-13.27
			C384.25,216.67,388,211.17,394.05,210.88 M390.32,215.25c-4.86,2.22-8.72,7.21-8.36,12.74c0.27,8.26,9.64,14.63,17.37,11.29
			c8.1-2.78,11.05-14.43,4.95-20.55C400.89,214.67,395.17,214.12,390.32,215.25z"/>
	</g>
	<g id="_x23_fc6602ff">
		<path fill="#FC6602" stroke="#FC6602" stroke-width="0.0938" d="M185.45,216.6c8.78-1.91,17.92-2.67,26.8-0.94
			c-10.43,0.26-22.89-0.59-30.73,7.65c3.73-1.59,7.76-2.23,11.75-1.34c-5.24,2.07-10.61,3.94-15.47,6.85
			c-9.4,5.67-16.79,14.12-22.75,23.22c-6.8,9.86-9.2,22.39-7.32,34.14c1.36,8.67,4.42,17.02,8.23,24.89
			c8.96,17.14,22.25,31.61,36.88,44.08c14.59,12.13,30.98,22.11,48.45,29.51c15.16,6.85,31.5,10.85,47.97,12.87
			c16.07,1.24,33.14,0.36,47.64-7.34c11.38-4.34,18.65-14.58,25-24.42c-2.31,6.65-4.38,14.04-10.07,18.64
			c1.31,1.02,2.41,2.67,4.2,2.83c2.19-0.37,3.97-1.86,5.83-3c-0.56,1.76-1.73,3.54-1.49,5.44c0.8,0.91,1.67,1.76,2.53,2.63
			c1.05-2.8,1.96-5.66,2.84-8.52c1.72-0.3,3.49-0.5,5.14-1.13c2.95-2.52,2.94-7.86,7.32-8.81l-0.21,0.99l-0.19,0.91
			c-4.26,6.98-8.36,14.16-14.14,20.04c-0.6,0.57-1.22,1.13-1.86,1.66c-16.15,14.07-38.51,19.3-59.52,16.9
			c-25.69-1.61-50.91-8.93-73.77-20.67c-24.64-12.31-47.21-29.03-65.34-49.83c-13.06-15.57-24.3-33.57-27.79-53.89
			c-2.2-11.13-0.78-22.96,4.26-33.14c4.77-9.7,11.35-18.53,19.36-25.81c5.27-4.73,9.48-10.53,14.98-15c-1.36,2-2.57,4.1-3.79,6.19
			C175.34,220.5,180.17,217.9,185.45,216.6z"/>
	</g>
	<g id="_x23_f85301ff">
		<path fill="#F85301" stroke="#F85301" stroke-width="0.0938" d="M181.52,223.31c7.84-8.24,20.3-7.39,30.73-7.65
			c7.43,0.63,14.69,2.46,21.7,4.96c-2.27,0.63-4.42,1.62-6.3,3.06c-8.85-1.77-17.91-3.54-26.95-2.12c-2.47,0.16-4.95,0.32-7.43,0.41
			C189.28,221.08,185.25,221.72,181.52,223.31z"/>
	</g>
	<g id="_x23_f72c02ff">
		<path fill="#F72C02" stroke="#F72C02" stroke-width="0.0938" d="M227.65,223.68c1.88-1.44,4.03-2.43,6.3-3.06
			c15.2,5.35,29.66,12.64,43.32,21.16c12.1,7.36,23.41,15.91,35.17,23.78c14.77,10.07,29.63,20.12,43.18,31.82
			c6.83,6.13,13.59,12.5,18.63,20.24c-0.34,4.09,0.88,8.05,1.53,12.05c-4.87,0.38-6.92-4.88-9.56-8.01
			c-3.6-5.61-6.89-11.49-11.53-16.34c-16.37-17.78-37.33-30.28-56.95-44.06C275.93,246.18,253.55,230.74,227.65,223.68z"/>
	</g>
	<g id="_x23_f7fdb5ff">
		<path fill="#F7FDB5" stroke="#F7FDB5" stroke-width="0.0938" d="M398.88,224.14c2.05-1.91,5.95-1.21,6.17,1.85
			c0.54,2.08-1.73,2.86-2.92,4.07c-1.03-0.5-2.07-0.98-3.11-1.43C398.99,227.13,398.94,225.63,398.88,224.14z"/>
	</g>
	<g id="_x23_fb4801ff">
		<path fill="#FB4801" stroke="#FB4801" stroke-width="0.0938" d="M185.59,245.99c6.54-0.72,13.34-1.33,19.7,0.81
			c5.69,1.88,11.46,5.71,13.12,11.8c2.92,9.7-0.65,20.15-5.91,28.38c-1.57-9.34-3.81-19.03-10.24-26.33
			c-3.19-4.93-7.69-9.21-13.52-10.69C187.65,248.67,186.63,247.32,185.59,245.99z"/>
	</g>
	<path fill="#FE9A08" stroke="#FE9A08" stroke-width="0.0938" d="M366.22,321.6599c-3.6-5.6099-6.8899-11.49-11.53-16.3398
		c-16.3699-17.78-37.33-30.28-56.95-44.0601c-21.81-15.0801-44.19-30.52-70.09-37.5801c-8.85-1.77-17.91-3.5399-26.95-2.1199
		c-2.47,0.1599-4.95,0.3199-7.43,0.4099c-5.24,2.0701-10.61,3.9399-15.47,6.8501c-9.4,5.6699-16.79,14.1199-22.75,23.22
		c-6.8,9.8599-9.2,22.3899-7.32,34.1399c1.36,8.67,4.42,17.02,8.23,24.8901c8.96,17.1399,22.25,31.6099,36.88,44.0799
		c14.59,12.13,30.98,22.11,48.45,29.51c15.16,6.85,31.5001,10.85,47.97,12.87c16.0701,1.24,33.14,0.36,47.64-7.34
		c11.38-4.34,18.65-14.58,25-24.42c2.5699-5.96,5.23-11.97,6.27-18.42C370.42,338.78,368.23,330.03,366.22,321.6599z M288.23,329.24
		c6.44-3.04,13.68-3.8201,20.7199-4.14c8.3901-0.1901,17.49,0.23,24.51,5.41c6.3601,4.05,9.6801,12.8,6.8901,19.88
		c-4.25-3.7-8.1301-8.01-13.3601-10.35c-6.95-3.1801-14.36-5.47-21.98-6.22c-6.36-0.8101-12.78-1.0701-19.1-2.1901
		C286.62,330.77,287.08,329.62,288.23,329.24z M185.59,245.99c6.54-0.72,13.34-1.3301,19.7,0.8101
		c5.69,1.8799,11.46,5.71,13.1201,11.7999c2.92,9.7001-0.65,20.15-5.91,28.38c-1.57-9.34-3.81-19.03-10.24-26.3301
		c-3.19-4.9299-7.69-9.21-13.52-10.6899C187.65,248.6699,186.63,247.3201,185.59,245.99z"/>
	<g id="_x23_e6b944fd">
		<path fill="#E6B944" stroke="#E6B944" stroke-width="0.0938" d="M419.96,253.72c0.3,0.62,0.91,1.86,1.21,2.48
			c-0.14,4.58-0.16,9.18-0.06,13.77c-0.15,1.75-0.38,3.49-0.61,5.24C419.27,268.11,419.63,260.87,419.96,253.72z"/>
	</g>
	<g id="_x23_b91603ff">
		<path fill="#B91603" stroke="#B91603" stroke-width="0.0938" d="M408.28,308.92c2.03,0.7,4.56,1.06,5.63,3.21
			c2.23,3.8,1.91,8.39,2.25,12.63c-1.48,9.69-3.25,19.52-7.73,28.34c-0.07-0.62-0.22-1.86-0.29-2.48c-1.14,0.68-2.28,1.37-3.41,2.05
			c-1.31-11.08,3.09-22.25,0.23-33.23C405.78,315.84,406.97,312.35,408.28,308.92z"/>
	</g>
	<g id="_x23_fd4c01ff">
		<path fill="#FD4C01" stroke="#FD4C01" stroke-width="0.0938" d="M374.25,317.62c6.22,8.1,9.95,18.16,10.18,28.4
			c0.58,9.7-2.48,19.04-6.23,27.83c-4.38,0.95-4.37,6.29-7.32,8.81c-1.65,0.63-3.42,0.83-5.14,1.13c-0.88,2.86-1.79,5.72-2.84,8.52
			c-0.86-0.87-1.73-1.72-2.53-2.63c-0.24-1.9,0.93-3.68,1.49-5.44c-1.86,1.14-3.64,2.63-5.83,3c-1.79-0.16-2.89-1.81-4.2-2.83
			c5.69-4.6,7.76-11.99,10.07-18.64c2.57-5.96,5.23-11.97,6.27-18.42c2.25-8.57,0.06-17.32-1.95-25.69
			c2.64,3.13,4.69,8.39,9.56,8.01C375.13,325.67,373.91,321.71,374.25,317.62z"/>
	</g>
	<g id="_x23_ab0e05ff">
		<path fill="#AB0E05" stroke="#AB0E05" stroke-width="0.0938" d="M391.33,352.34c5.33-10.63,9.22-21.89,13.63-32.9
			c2.86,10.98-1.54,22.15-0.23,33.23c1.13-0.68,2.27-1.37,3.41-2.05c0.07,0.62,0.22,1.86,0.29,2.48c-2.15,4.08-4.64,8.96-9.5,10.18
			c-3.53-0.12-6.47-2.54-9.6-3.92C389.41,356.88,390.16,354.5,391.33,352.34z"/>
	</g>
	<g id="_x23_fb4202ff">
		<path fill="#FB4202" stroke="#FB4202" stroke-width="0.0938" d="M288.23,329.24c6.44-3.04,13.68-3.82,20.72-4.14
			c8.39-0.19,17.49,0.23,24.51,5.41c6.36,4.05,9.68,12.8,6.89,19.88c-4.25-3.7-8.13-8.01-13.36-10.35
			c-6.95-3.18-14.36-5.47-21.98-6.22c-6.36-0.81-12.78-1.07-19.1-2.19C286.62,330.77,287.08,329.62,288.23,329.24z"/>
	</g>
	<g id="_x23_fee101ff">
		<path fill="#FEE101" stroke="#FEE101" stroke-width="0.0938" d="M416.16,324.76c1.34,3.97,2.39,8.05,2.8,12.23
			c2.15,16.95,6.32,33.52,9.73,50.23c4.83,19.69,10.07,39.31,16.57,58.52c3.89,9.33,6.38,19.18,10.5,28.43
			c4.55,10.49,8.15,21.39,13.5,31.52c3.92,7.53,6.81,15.57,11.15,22.9c9.18,17.16,18.64,34.24,29.61,50.34
			c3.1,5.13,6.41,10.13,10.24,14.74c5.75,6.95,9.96,15.29,17.3,20.8c13.69,12.08,30.12,20.54,47.1,27
			c9.42,4.39,19.39,7.35,29.2,10.71c36.39,11.7,73.58,20.64,110.46,30.62c15.78,4.69,31.86,8.35,47.56,13.33
			c30,8.82,60.13,18.27,87.68,33.32c8.17,4.75,16.87,8.73,24.21,14.78c10.2,7.9,18.2,18.34,24.43,29.57
			c9.56,16.42,15.49,34.63,20.04,52.99c4.68,18.43,6.84,37.35,8.67,56.23c1.53,12.27,1.19,24.65,1.38,36.98
			c-0.09,14.59,0.09,29.23-1.66,43.75c-1.15,8.2-1.7,16.66-4.97,24.37c-5.45-0.58-9.95-4.86-15.64-4.06
			c-16.69,1.16-34.94,0.89-49.36-8.72c-6.42-4.19-11.9-10.03-14.71-17.2401c-1.9-4.49-3.61-9.34-7.45-12.59
			c-6.97-6.16-15.07-11.08-23.87-14.14c-29.52-10.49-60.88-13.97-91.89-16.94c-17.57-1.2-35.13-2.7-52.75-2.55
			c-33.69-1.78-67.53-0.9-101.06,2.94c-15,1.23-29.88,4.17-44.97,4.11c-11.58-0.65-22.61-4.95-32.96-9.93
			c-6.01-2.74-11.1-7.02-16.82-10.26c-5.84-5.46-12.06-10.56-17.11-16.8c-9.81-10.89-17.5-23.41-24.95-35.96
			c-2.38-6.12-5.24-12.02-8.15-17.89c-4.29-9.38-7.99-19.01-11.41-28.73c-4.24-10.57-6.85-21.68-10.37-32.49
			c-2.42-8.82-4.1-17.82-6.36-26.67c-2.1-11.83-4.94-23.52-6.62-35.42c-4.27-22.53-7.16-45.28-9.75-68.05
			c-1.07-14.89-3.21-29.67-3.74-44.59c-0.73-14.71-1.72-29.4-2.5-44.11c0.13-13.04-1.49-26.01-1.16-39.05
			c-1.53-25.3-0.71-50.65-0.88-75.98c0.44-19.07,1.49-38.18,0.62-57.25l0.19-0.91c5.28-4.1,5.66-11.82,11.34-15.48
			c3.13,1.38,6.07,3.8,9.6,3.92c4.86-1.22,7.35-6.1,9.5-10.18C412.91,344.28,414.68,334.45,416.16,324.76 M406.9,381.49
			c-6.08,2.05-10.64,6.99-14.69,11.76c-4.24,5.5-9.4,11.36-9.19,18.76c0.19,10.4,6.49,19.37,12.93,27.04
			c4.78,5.32,10.49,11.19,18.06,11.74c5.96,0.2,9.64-5.47,11.31-10.49c4.01-12.41,3.48-25.87,0.92-38.52
			c-1.5-6.37-3.35-13.16-8.12-17.92C415.33,380.94,410.58,379.57,406.9,381.49 M433.39,456.16c-4.53,4-6.94,10.63-4.92,16.49
			c1.47,4.02,4.13,7.64,7.48,10.3c2.17,1.76,6,2.24,7.92-0.12c3.03-3.5,3.11-8.49,2.58-12.85c-0.58-5.6-3.98-10.83-8.89-13.6
			C436.33,455.84,434.5,454.97,433.39,456.16 M400.04,484.1c-1.42,4.1-3.43,8.11-3.93,12.47c-1.65,3.16-2.51,6.65-3.35,10.1
			l0.45,0.55c-1.85,3.32-2.44,7.11-3.28,10.77c-2.54,11.82-4.58,23.89-4.03,36.03c0.39,6.36,1.49,13.23,5.93,18.14
			c2,2.41,5.03,3.54,8.06,3.96c10.47-0.41,21.03-1.2,31.15-4.08c7.5-2.22,15.37-5.3,20.17-11.81c3.75-4.89,4.15-11.46,2.99-17.31
			c-1.97-10.16-6.39-19.65-11.35-28.67c-1.04-1.99-2.31-3.86-3.89-5.44c-1.38-4.38-4.72-7.79-7.23-11.55
			c-4.53-6.05-9.58-11.78-15.5-16.5c-3.18-2.36-6.98-4.87-11.13-4.01C402.09,477.95,401.25,481.42,400.04,484.1 M466.86,563.93
			c-0.38,1.13-1.37,2.27-1.11,3.52c-2.18,3.18-3.5,6.83-4.92,10.4c-5.43,14.37-10.32,29.6-9.05,45.17
			c0.44,6.33,3.35,12.9,8.93,16.28c6.07,3.29,13.02,4.38,19.77,5.4c-0.43,0.2-1.28,0.59-1.7,0.79c6.42,0.93,13.09,1.27,19.46-0.22
			l-0.87-0.58c6.57-1.1,13.22-2.65,18.96-6.19c5.29-3.08,9.7-8.37,9.47-14.81c-0.58-2.75-1.1-5.54-2.38-8.06
			c-8.54-16.95-17.09-34.12-29.1-48.93c-3.5-4.41-7.78-8.19-12.67-10.98c-2.41-0.6899-5.02-1.5699-7.5-0.6299
			C470.22,556.38,468.64,560.58,466.86,563.93 M431.38,579.35c-10.35,3.66-18.93,10.84-27.54,17.44c-2.68,2.31-6.01,4.22-7.6,7.51
			c-1.56,3.98,0.91,8.04,3.5,10.94c6.27,6.7,14.43,11.14,22.17,15.9c1.9,1.21,4.21,2.33,6.47,1.34c3.57-1.6,5.82-5.12,7.64-8.44
			c4.46-8.68,6.82-18.33,7.97-27.98c0.2-4.75,0.78-10-1.67-14.29C440.08,577.99,435.06,577.99,431.38,579.35 M547.86,647.6
			c-3.83,0.37-7.52,1.56-11.03,3.1c-3.47,1.68-7.05,3.96-8.29,7.84c-2.02,6.35,0.59,12.96,3.17,18.7401
			c6.48,13.14,16.03,24.41,25.5,35.46c2.83,3.85,8.14,2.9,12.07,1.62c10.15-3.55,18.83-10.21,26.79-17.28
			c2.96-2.76,6.2-5.42,8.01-9.13c1.38-0.46,2.18-1.83,3.09-2.87c3.66-5.06,7.24-10.69,7.31-17.15c-0.42-2.65-1.05-5.41-3.11-7.27
			c-6.77-6.77-16.34-9.49-25.37-11.72C573.5,646.48,560.46,645.17,547.86,647.6 M434.58,657.44c-8.33,2.03-16.65,4.74-23.82,9.56
			c-3.39,2.26-5.98,5.57-7.31,9.43c-3.15,8.98-2.26,18.77-0.94,28.02c1.91,10.41,4.33,20.87,8.33,30.7
			c2.81,8.63,6.24,17.14,10.63,25.1c2.48,6.73,9.85,11.66,17.05,9.3c13.55-3.98,23.71-14.68,33.01-24.77
			c7.01-7.8701,13.39-16.29,19.13-25.1201c7.89-12.0699,15.13-24.8,19.4-38.64c1.77-6.07,2.98-13.99-2.47-18.59
			c-9.56-8.11-22.85-8.53-34.76-9.27C459.98,653.18,447.08,654.38,434.58,657.44 M655.32,676.37c-10.98,2.24-22.2,8.89-26.3,19.8
			c-1.61,3.79,1.14,7.7,4.65,9.1c10.45,4.54,22.15,4.48,33.34,4.26c5.11,0.03,9.37-3.97,10.85-8.66c2.29-7.52-0.09-16.46-6.37-21.37
			C666.95,675.99,660.81,675.47,655.32,676.37 M502.63,709.67c-4.5,6.92-4.84,15.47-5.51,23.45c-0.23,5.33-0.91,10.85,0.76,16.03
			c1.24,6.7599,7.76,11.16,14.3,11.79c-0.87,0.09-2.61,0.26-3.48,0.35c3.67,1.57,7.74,0.94,11.54,0.29
			c-0.42-0.19-1.26-0.57-1.69-0.76c9.8-1.76,19.54-6.7,25.17-15.14c2.29-3.6,3.94-8.81,1.41-12.63c-0.39-4.95-3.35-9.13-6.29-12.93
			c-6.1201-7.32-14.33-13.42-23.9-15.03C510.42,704.19,505.2,705.63,502.63,709.67 M707.4,710.2c-6.64,0.33-13.03,2.56-19.14,5.01
			c-5,2.19-10.56,5.36-11.92,11.09c-1.71,7.59,1.03,15.27,4.21,22.08c5.48,11.35,12.81,21.76,20.93,31.37
			c6.96,8.69,16,16.93,27.5,18.35c10.91,1.4901,21.51-3.58,29.66-10.48c9.34-8.04,16.78-18.3,21.79-29.54
			c2.56-4.79,4.14-10.03,5.5-15.26c1.59-6.72,2.37-14.32-1.36-20.51c-3.11-5.05-8.56-7.92-13.94-9.95
			c-12.32-4.57-25.63-5.16-38.63-4.89C723.79,707.75,715.25,707.55,707.4,710.2 M595.33,726.95l0.13,0.59
			c-10.56,3.33-20.36,8.75-30.01,14.11c-3.52,1.78-6.97,3.96-9.13,7.37l0.15,0.73c-3.08,4.07-2.47,9.51-2.34,14.31
			c1.43,14.15,6.65,27.58,12.29,40.54c3.33,7.87,12.48,10.15,19.95,12.21c24.15,5.32,49.06,4.8,73.64,4.85
			c3.18,0.4,5.72-2,6.98-4.68c1.95-4.03,3.16-8.46,3.44-12.93c0.47-1.92,0.99-3.9,0.73-5.88c0.97-9.05,0.35-18.16,0.25-27.22
			c0.02-1.71-0.15-3.4-0.69-5c-1.15-12.84-3.25-25.73-7.8199-37.83c-1.53-3.82-3.29-7.92-6.83-10.27c-5.05-3.23-11.3-3.52-17.1-3.08
			C623.81,716.19,609.44,721.55,595.33,726.95 M812.24,732.24c-6.92,7.96-9.85,18.36-14.37,27.7c-0.71,1.84-2.24,3.7-1.66,5.78
			c2.15,3.73,6.54,5.26,10.36,6.69c4.38,1.72,10.2,1.38,13.26-2.6c3.37-4.5,3.75-10.4,3.79-15.82c-0.05-8.24-0.8-16.57-3.1-24.51
			C817.4,728.57,814.22,729.73,812.24,732.24 M852.05,751.03c-4.9,4.96-6.25,12.21-7.48,18.81c-0.71,4.74-1.09,9.53-1.39,14.31
			c-0.07-1.45-0.23-2.89-0.46-4.31c-1.5,3.47-0.12,7.6299-2.47,10.84c-2.94-4.45-8.34-5.98-13.3-6.84
			c-12.98-2.19-26.27-1.14-39.2,0.85c-3.53,0.86-8.21,1.27-9.84,5.08c-1.18,4.41-0.41,9.11,0.65,13.48
			c1.99,6.65,3.98,14.01,9.66,18.54c5.58,4.37,13.29,4.12,19.69,1.9l0.77,0.51l1.01-0.42l0.17-0.9c5.13-1.73,9.66-4.88,14-8.06
			c6.99-5.59,14-12.31,16.48-21.19c0.5,2.32,1.54,4.47,2.48,6.65c0.1-0.89,0.28-2.69,0.38-3.58c0.74,9.41,0.81,19.36,5.04,28.01
			c3.04,5.28,10.08,4.35,14.95,2.61c8.28-3.14,16.41-7.36,23-13.33c3.83-1.46,6.38-4.9,9.11-7.79c5.65-6.84,6.96-16.72,3.31-24.8
			c-5.78-13.35-17.78-23.13-30.62-29.35C863.12,750.09,856.68,747.01,852.05,751.03 M460.57,769.58c-3.09,5.08-5.62,10.6-6.91,16.43
			c-1.75,3.21-2.39,6.95-3.14,10.51c-0.62,2.42,0.97,5.21,3.57,5.48c7.13,1.11,14.19-1.43,20.58-4.37c4.18-2.18,9.1-4.81,10.32-9.77
			c1.5-6.51-1.39-13.26-5.57-18.18c-2.27-3.16-5.55-5.91-9.47-6.58C465.71,762.76,462.66,766.37,460.57,769.58 M681.48,795.58
			c-2.92,5.31-2.85,11.6-2.88,17.5c0.25,4.83,0.01,9.72,1,14.48c0.17,1.69,2.02,2.08,3.35,2.55c5.82,1.7,12.11,0.6,17.65-1.57
			c3.81-1.78,8.33-4.16,9.12-8.72c0.67-4.71-1.27-9.55-4.43-13c0.03-1.07-0.86-1.85-1.42-2.64c-4.25-4.99-9.49-9.6-15.96-11.29
			C685.43,792.02,682.63,793.26,681.48,795.58 M755.25,816.22c-1.66,1.6801-3.93,3.14-4.58,5.53c-2.77,2.23-4.88,5.13-6.94,8
			c-2.4,3.2-4.39,7.35-3.01,11.4c1.91,6.52,8.09,10.23,13.41,13.75c5.14,3.05,10.98,6.46,17.21,5.36
			c4.48-0.74,6.8799-5.33,7.56-9.42c0.79-4.95,0.91-10.14-0.2-15.04c-0.62-6.69-2.57-13.2-5.12-19.39
			c-1.29-2.8-2.97-6.5099-6.61-6.42C762.32,810.02,758.62,813.4,755.25,816.22z"/>
	</g>
	<path fill="#B31206" stroke="#B31206" stroke-width="0.0938" d="M426.24,401.78c-1.5-6.37-3.35-13.16-8.12-17.92
		c-2.7899-2.92-7.5399-4.29-11.22-2.37c-6.08,2.05-10.64,6.99-14.6901,11.76c-4.24,5.5-9.3999,11.36-9.1899,18.76
		c0.1899,10.4,6.49,19.37,12.9299,27.04c4.78,5.32,10.49,11.19,18.0601,11.74c5.96,0.2,9.64-5.47,11.3101-10.49
		C429.3301,427.89,428.8,414.43,426.24,401.78z"/>
	<g id="_x23_e2ad1bee">
		<path opacity="0.93" fill="#E2AD1B" stroke="#E2AD1B" stroke-width="0.0938" enable-background="new    " d="M361.8,397.45
			c0.64-0.53,1.26-1.09,1.86-1.66c-1.4,14.02-0.55,28.14-0.73,42.21c-0.27,10.96,0.47,21.9,0.22,32.85
			c1.61,16.34,1.42,32.79,1.66,49.2c0.14,7.9,2.93,15.85,0.65,23.68c-1.38-13.19-1.31-26.47-2.27-39.7c-0.2-4.97-0.24-9.94-0.3-14.9
			c0.13-5.16-0.25-10.3-0.74-15.42C361.67,448.3,362.34,422.86,361.8,397.45z"/>
	</g>
	<g id="_x23_bb1305ff">
		<path fill="#BB1305" stroke="#BB1305" stroke-width="0.0938" d="M433.39,456.16c1.11-1.19,2.94-0.32,4.17,0.22
			c4.91,2.77,8.31,8,8.89,13.6c0.53,4.36,0.45,9.35-2.58,12.85c-1.92,2.36-5.75,1.88-7.92,0.12c-3.35-2.66-6.01-6.28-7.48-10.3
			C426.45,466.79,428.86,460.16,433.39,456.16z"/>
	</g>
	<g id="_x23_82550084">
		<path opacity="0.52" fill="#825500" stroke="#825500" stroke-width="0.0938" enable-background="new    " d="M362.15,473.71
			c0.49,5.12,0.87,10.26,0.74,15.42C362.14,484.03,361.87,478.86,362.15,473.71z"/>
	</g>
	<path fill="#BB2103" stroke="#BB2103" stroke-width="0.0938" d="M454.2,542.92c-1.97-10.16-6.3899-19.65-11.3499-28.67
		c-1.04-1.99-2.3101-3.86-3.8901-5.44c-1.3799-4.38-4.72-7.79-7.23-11.55c-4.53-6.05-9.58-11.78-15.5-16.5
		c-3.1799-2.36-6.98-4.87-11.1299-4.01c-3.01,1.2-3.8501,4.67-5.0601,7.35c-1.42,4.1-3.4301,8.11-3.9301,12.47
		c-1.65,3.16-2.5099,6.65-3.35,10.1l0.45,0.55c-1.85,3.32-2.4399,7.11-3.28,10.77c-2.5399,11.82-4.5798,23.89-4.0299,36.03
		c0.39,6.36,1.49,13.23,5.9301,18.14c2,2.41,5.0299,3.54,8.0599,3.96c10.47-0.41,21.03-1.2,31.15-4.08
		c7.5-2.22,15.37-5.3,20.1699-11.81C454.96,555.34,455.36,548.77,454.2,542.92z"/>
	<path fill="#AC1E09" stroke="#AC1E09" stroke-width="0.0938" d="M523.4199,615.63c-8.5399-16.95-17.0898-34.12-29.0999-48.93
		c-3.5-4.41-7.78-8.19-12.67-10.98c-2.41-0.6899-5.02-1.5699-7.5-0.6299c-3.9301,1.29-5.51,5.49-7.29,8.84
		c-0.38,1.13-1.37,2.27-1.11,3.52c-2.1799,3.18-3.5,6.83-4.9199,10.4c-5.4301,14.37-10.3201,29.6-9.05,45.17
		c0.4399,6.33,3.35,12.9,8.9299,16.28c6.0701,3.29,13.02,4.38,19.77,5.4c5.6201,0.34,11.26,0.26,16.89-0.01
		c6.5699-1.1,13.2201-2.65,18.9601-6.19c5.2899-3.08,9.7-8.37,9.47-14.81C525.22,620.94,524.7,618.15,523.4199,615.63z"/>
	<g id="_x23_a80f09ff">
		<path fill="#A80F09" stroke="#A80F09" stroke-width="0.0938" d="M431.38,579.35c3.68-1.36,8.7-1.36,10.94,2.42
			c2.45,4.29,1.87,9.54,1.67,14.29c-1.15,9.65-3.51,19.3-7.97,27.98c-1.82,3.32-4.07,6.84-7.64,8.44c-2.26,0.99-4.57-0.13-6.47-1.34
			c-7.74-4.76-15.9-9.2-22.17-15.9c-2.59-2.9-5.06-6.96-3.5-10.94c1.59-3.29,4.92-5.2,7.6-7.51
			C412.45,590.19,421.03,583.01,431.38,579.35z"/>
	</g>
	<g id="_x23_ffbf4aff">
		<path fill="#FFBF4A" stroke="#FFBF4A" stroke-width="0.0938" d="M478.78,645.49c0.42-0.2,1.27-0.59,1.7-0.79
			c5.62,0.34,11.26,0.26,16.89-0.01l0.87,0.58C491.87,646.76,485.2,646.42,478.78,645.49z"/>
	</g>
	<path fill="#A81509" stroke="#A81509" stroke-width="0.0938" d="M611.37,660.66c-6.77-6.77-16.34-9.49-25.37-11.72
		c-12.5-2.46-25.54-3.77-38.14-1.34c-3.83,0.37-7.5199,1.56-11.0299,3.1c-3.4701,1.68-7.05,3.96-8.29,7.84
		c-2.02,6.35,0.59,12.96,3.1699,18.7401c6.48,13.14,16.03,24.41,25.5,35.46c2.8301,3.85,8.14,2.9,12.0701,1.62
		c10.1499-3.55,18.83-10.21,26.79-17.28c2.96-2.76,6.2-5.42,8.01-9.13c1.3799-0.46,2.1799-1.83,3.0898-2.87
		c3.6602-5.06,7.24-10.69,7.3101-17.15C614.0601,665.28,613.4299,662.52,611.37,660.66z"/>
	<g id="_x23_b71a06ff">
		<path fill="#B71A06" stroke="#B71A06" stroke-width="0.0938" d="M655.32,676.37c5.49-0.9,11.63-0.38,16.17,3.13
			c6.28,4.91,8.66,13.85,6.37,21.37c-1.48,4.69-5.74,8.69-10.85,8.66c-11.19,0.22-22.89,0.28-33.34-4.26
			c-3.51-1.4-6.26-5.31-4.65-9.1C633.12,685.26,644.34,678.61,655.32,676.37z"/>
	</g>
	<g id="_x23_ffa000ff">
		<path fill="#FFA000" stroke="#FFA000" stroke-width="0.0938" d="M378.14,693.74c1.76,13.05,3.85,26.05,4.98,39.18
			c4.42,37.65,9.93,75.15,15.36,112.67c1.34,8.28,3.06,16.5099,4.13,24.84c1.16,9.26,3.37,18.34,4.38,27.63
			c4.78,27.55,9.2,55.17,14.34,82.67c0.85,5.18,2.22,10.33,2.34,15.61c-0.95,4.19-2.07,8.3799-1.64,12.73
			c-0.54,9-1.99,17.95-2.09,26.98c-0.19,6.25-0.26,12.6499-2.18,18.6599c-0.8,0.6001-1.62,1.17-2.46,1.73l-0.71-0.33
			c-2.95-1.78-6.4-0.38-9.58-0.51c-9.51-0.46-19.12,1.26-28.51-0.95c-0.66-7.23-1.15-14.51-0.74-21.76
			c0.68-9.77-0.71-19.52-0.08-29.29c0.62-8.39-0.92-16.77-0.11-25.14c0.34-4.16,0.98-8.29,0.95-12.45
			c-0.38-12.34,0.63-24.67,0.59-37.01c-0.3-23.33,0.23-46.66,0.68-69.99c0.42-8.67-0.17-17.33-0.71-25.98
			c-0.49-6.7,0.74-13.3701,0.38-20.0601c-0.13-3.29-0.24-6.59,0.05-9.87c1.6-13.65,0.53-27.43,0.82-41.14
			c-0.34-13.68,0.58-27.39-0.4-41.05C378.01,711.86,377.98,702.8,378.14,693.74z"/>
	</g>
	<g id="_x23_a21409ff">
		<path fill="#A21409" stroke="#A21409" stroke-width="0.0938" d="M502.63,709.67c2.57-4.04,7.79-5.48,12.31-4.58
			c9.57,1.61,17.78,7.71,23.9,15.03c2.94,3.8,5.9,7.98,6.29,12.93c-2.16-2.43-3.65-5.31-5.13-8.17c-1.8-3.43-5.2-5.51-8.36-7.51
			c-3.97,1.75-8.85,0.71-12.2,3.84c-7.09,3.98-14.07,8.15-21.16,12.12c-0.42,5.26-0.38,10.54-0.4,15.82
			c-1.67-5.1801-0.99-10.7-0.76-16.03C497.79,725.14,498.13,716.59,502.63,709.67z"/>
	</g>
	<g id="_x23_9b0309ff">
		<path fill="#9B0309" stroke="#9B0309" stroke-width="0.0938" d="M519.44,721.21c3.35-3.13,8.23-2.09,12.2-3.84
			c3.16,2,6.56,4.08,8.36,7.51c1.48,2.86,2.97,5.74,5.13,8.17c2.53,3.82,0.88,9.03-1.41,12.63c-5.6299,8.44-15.37,13.38-25.17,15.14
			c-2.12,0.04-4.25,0.09-6.37,0.12c-6.54-0.63-13.06-5.03-14.3-11.79c0.02-5.28-0.02-10.56,0.4-15.82
			C505.37,729.36,512.35,725.19,519.44,721.21z"/>
	</g>
	<g id="_x23_f0a015fe">
		<path fill="#F0A015" stroke="#F0A015" stroke-width="0.0938" d="M376.86,794.52c0.5-24.53-0.28-49.1,1.07-73.61
			c0.98,13.66,0.06,27.3701,0.4,41.05c-0.29,13.71,0.78,27.49-0.82,41.14c-0.29,3.28-0.18,6.58-0.05,9.87
			c0.36,6.69-0.87,13.36-0.38,20.0601c0.54,8.65,1.13,17.31,0.71,25.98c-0.45,23.33-0.98,46.66-0.68,69.99
			c0.04,12.34-0.97,24.67-0.59,37.01c0.03,4.16-0.61,8.29-0.95,12.45c-0.81,8.37,0.73,16.75,0.11,25.14
			c-0.63,9.77,0.76,19.52,0.08,29.29c-0.41,7.25,0.08,14.53,0.74,21.76c9.39,2.21,19,0.49,28.51,0.95c3.18,0.13,6.63-1.27,9.58,0.51
			c-6.57,2.47-13.72,1.77-20.59,1.92c-6.56-0.14-13.26,0.61-19.65-1.2101c-1.33-5.85-0.79-11.88-0.83-17.8099
			c0.77-21,0.33-42.02,0.62-63.02c1.27-34.65,0.45-69.33,1.82-103.98C376.09,846.18,375.76,820.34,376.86,794.52z"/>
	</g>
	<g id="_x23_a90807ff">
		<path fill="#A90807" stroke="#A90807" stroke-width="0.0938" d="M812.24,732.24c1.98-2.51,5.16-3.67,8.28-2.76
			c2.3,7.94,3.05,16.27,3.1,24.51c-0.04,5.42-0.42,11.32-3.79,15.82c-3.06,3.98-8.88,4.32-13.26,2.6
			c-3.82-1.43-8.21-2.96-10.36-6.69c-0.58-2.08,0.95-3.9399,1.66-5.78C802.39,750.6,805.32,740.2,812.24,732.24z"/>
	</g>
	<path fill="#A00809" stroke="#A00809" stroke-width="0.0938" d="M507.5901,662.43c-9.5601-8.11-22.8501-8.53-34.76-9.27
		c-12.8501,0.02-25.75,1.22-38.25,4.28c-8.3301,2.03-16.6501,4.74-23.8201,9.56c-3.39,2.26-5.98,5.57-7.3101,9.43
		c-3.1499,8.98-2.26,18.77-0.9399,28.02c1.91,10.41,4.3301,20.87,8.3301,30.7c2.8099,8.63,6.24,17.14,10.6299,25.1
		c2.48,6.73,9.8501,11.66,17.05,9.3c13.55-3.98,23.71-14.68,33.01-24.77c7.01-7.8701,13.39-16.29,19.13-25.1201
		c7.89-12.0699,15.13-24.8,19.4-38.64C511.8301,674.95,513.04,667.03,507.5901,662.43z"/>
	<path fill="#940109" stroke="#940109" stroke-width="0.0938" d="M671.4099,770.95c0.02-1.71-0.1499-3.4-0.6899-5
		c-1.1499-12.84-3.25-25.73-7.8199-37.83c-1.53-3.82-3.29-7.92-6.83-10.27c-5.05-3.23-11.3-3.52-17.1001-3.08
		c-15.1599,1.42-29.53,6.78-43.6399,12.18l0.1299,0.59c-10.5599,3.33-20.36,8.75-30.01,14.11c-3.52,1.78-6.97,3.96-9.1299,7.37
		l0.1499,0.73c-3.08,4.07-2.47,9.51-2.34,14.31c1.4301,14.15,6.65,27.58,12.2899,40.54c3.3301,7.87,12.4801,10.15,19.9501,12.21
		c24.15,5.32,49.0599,4.8,73.64,4.85c3.1799,0.4,5.72-2,6.98-4.68c1.95-4.03,3.16-8.46,3.4399-12.93c0.4701-1.92,0.99-3.9,0.73-5.88
		C672.13,789.12,671.51,780.01,671.4099,770.95z"/>
	<path fill="#A10F09" stroke="#A10F09" stroke-width="0.0938" d="M784.5701,722.31c-3.1101-5.05-8.5601-7.92-13.9401-9.95
		c-12.3199-4.57-25.63-5.16-38.63-4.89c-8.21,0.28-16.75,0.08-24.6,2.73c-6.64,0.33-13.03,2.56-19.14,5.01
		c-5,2.19-10.5601,5.36-11.9199,11.09c-1.7101,7.59,1.0299,15.27,4.21,22.08c5.48,11.35,12.8099,21.76,20.9299,31.37
		c6.96,8.69,16,16.93,27.5,18.35c10.91,1.4901,21.51-3.58,29.66-10.48c9.34-8.04,16.7799-18.3,21.7899-29.54
		c2.5601-4.79,4.1401-10.03,5.5-15.26C787.52,736.1,788.3,728.5,784.5701,722.31z"/>
	<g id="_x23_ffc856ff">
		<path fill="#FFC856" stroke="#FFC856" stroke-width="0.0938" d="M508.7,761.29c0.87-0.09,2.61-0.2599,3.48-0.35
			c2.12-0.03,4.25-0.08,6.37-0.12c0.43,0.19,1.27,0.57,1.69,0.76C516.44,762.23,512.37,762.86,508.7,761.29z"/>
	</g>
	<g id="_x23_880109ff">
		<path fill="#880109" stroke="#880109" stroke-width="0.0938" d="M460.57,769.58c2.09-3.21,5.14-6.82,9.38-6.48
			c3.92,0.67,7.2,3.42,9.47,6.58c0.33,3.34,1.26,7.55-1.64,10.07c-1.91,0.97-4.15,0.86-6.22,1.21c-6.25,0.54-11.99,3.19-17.9,5.05
			C454.95,780.18,457.48,774.66,460.57,769.58z"/>
	</g>
	<g id="_x23_7a0109ff">
		<path fill="#7A0109" stroke="#7A0109" stroke-width="0.0938" d="M479.42,769.68c4.18,4.92,7.07,11.67,5.57,18.18
			c-1.22,4.96-6.14,7.59-10.32,9.77c-6.39,2.94-13.45,5.48-20.58,4.37c-2.6-0.27-4.19-3.06-3.57-5.48c0.75-3.56,1.39-7.3,3.14-10.51
			c5.91-1.86,11.65-4.51,17.9-5.05c2.07-0.35,4.31-0.2401,6.22-1.21C480.68,777.23,479.75,773.02,479.42,769.68z"/>
	</g>
	<g id="_x23_feca3dff">
		<path fill="#FECA3D" stroke="#FECA3D" stroke-width="0.0938" d="M840.25,790.68c2.35-3.21,0.97-7.37,2.47-10.84
			c0.23,1.42,0.39,2.86,0.46,4.31c-0.11,3.19-0.23,6.39-0.07,9.59c0.03,0.74,0.07,2.22,0.09,2.96c-0.1,0.89-0.28,2.69-0.38,3.58
			c-0.94-2.1801-1.98-4.33-2.48-6.65C840.29,792.64,840.26,791.66,840.25,790.68z"/>
	</g>
	<g id="_x23_960109ff">
		<path fill="#960109" stroke="#960109" stroke-width="0.0938" d="M787.75,784.69c12.93-1.99,26.22-3.04,39.2-0.85
			c4.96,0.86,10.36,2.39,13.3,6.84c0.01,0.98,0.04,1.96,0.09,2.95c-2.48,8.88-9.4901,15.6-16.48,21.19c-4.34,3.18-8.87,6.33-14,8.06
			c-0.49,0.21-1.46,0.61-1.95,0.81c-6.4,2.22-14.11,2.47-19.69-1.9c-5.68-4.53-7.67-11.89-9.66-18.54
			c-1.06-4.37-1.83-9.07-0.65-13.48C779.54,785.96,784.22,785.55,787.75,784.69z"/>
	</g>
	<g id="_x23_930109ff">
		<path fill="#930109" stroke="#930109" stroke-width="0.0938" d="M681.48,795.58c1.15-2.32,3.95-3.56,6.43-2.69
			c6.47,1.69,11.71,6.3,15.96,11.29c0.56,0.79,1.45,1.57,1.42,2.64c-0.53,4.04,2.62,7.28,2.38,11.25c-2.11-1.18-4.24-2.29-6.31-3.5
			c-5.09,3.44-11.5,2.73-17.29,2.26c-2.38-0.17-3.8-2.35-5.47-3.75C678.63,807.18,678.56,800.89,681.48,795.58z"/>
	</g>
	<path fill="#8F0109" stroke="#8F0109" stroke-width="0.0938" d="M898.61,781.4c-5.7799-13.35-17.7799-23.13-30.62-29.35
		c-4.87-1.96-11.3101-5.04-15.9399-1.02c-4.9,4.96-6.25,12.21-7.48,18.81c-0.7101,4.74-1.0901,9.53-1.3901,14.31
		c-0.1099,3.19-0.23,6.39-0.0699,9.59c0.03,0.74,0.0699,2.22,0.09,2.96c0.74,9.41,0.8101,19.36,5.04,28.01
		c3.04,5.28,10.0801,4.35,14.95,2.61c8.28-3.14,16.41-7.36,23-13.33c3.8301-1.46,6.3801-4.9,9.1101-7.79
		C900.95,799.36,902.26,789.48,898.61,781.4z"/>
	<g id="_x23_85010aff">
		<path fill="#85010A" stroke="#85010A" stroke-width="0.0938" d="M707.67,818.07c0.24-3.97-2.91-7.21-2.38-11.25
			c3.16,3.45,5.1,8.29,4.43,13c-0.79,4.56-5.31,6.94-9.12,8.72c-5.54,2.17-11.83,3.27-17.65,1.57c-1.33-0.47-3.18-0.86-3.35-2.55
			c-0.99-4.76-0.75-9.65-1-14.48c1.67,1.4,3.09,3.58,5.47,3.75c5.79,0.47,12.2,1.18,17.29-2.26
			C703.43,815.78,705.56,816.89,707.67,818.07z"/>
	</g>
	<g id="_x23_890109ff">
		<path fill="#890109" stroke="#890109" stroke-width="0.0938" d="M755.25,816.22c3.37-2.8199,7.07-6.2,11.72-6.23
			c3.64-0.09,5.32,3.62,6.61,6.42c2.55,6.19,4.5,12.7,5.12,19.39c-1.6-1.31-3.33-2.44-4.96-3.7c-1.61,2.13-3.29,4.22-4.94,6.33
			c-0.94-2.05-1.89-4.09-2.73-6.16c-1.29,0.84-2.51,1.84-3.97,2.36c-2.46-0.86-4.29-2.88-6.29-4.45c-1.89,0.93-3.76,1.97-5.78,2.57
			c-1.3701-0.09-2.35-1.26-3.55-1.76c1.67-2.95,3.52-5.87,4.19-9.24C751.32,819.36,753.59,817.9,755.25,816.22z"/>
	</g>
	<g id="_x23_7b0108ff">
		<path fill="#7B0108" stroke="#7B0108" stroke-width="0.0938" d="M743.73,829.75c2.06-2.87,4.17-5.77,6.94-8
			c-0.67,3.37-2.52,6.29-4.19,9.24c1.2,0.5,2.18,1.67,3.55,1.76c2.02-0.6,3.89-1.64,5.78-2.57c2,1.57,3.83,3.59,6.29,4.45
			c1.46-0.52,2.6801-1.52,3.97-2.36c0.84,2.07,1.79,4.11,2.73,6.16c1.65-2.11,3.33-4.2,4.94-6.33c1.63,1.26,3.36,2.39,4.96,3.7
			c1.11,4.9,0.99,10.09,0.2,15.04c-0.6801,4.09-3.08,8.68-7.56,9.42c-6.23,1.1-12.07-2.31-17.21-5.36
			c-5.32-3.52-11.5-7.23-13.41-13.75C739.34,837.1,741.33,832.95,743.73,829.75z"/>
	</g>
	<g id="_x23_f08f6cff">
		<path fill="#F08F6C" stroke="#F08F6C" stroke-width="0.0938" d="M807.91,823.69c0.4901-0.2,1.46-0.6,1.95-0.81l-0.17,0.9
			l-1.01,0.42L807.91,823.69z"/>
	</g>
	<path fill="#FEBF02" stroke="#FEBF02" stroke-width="0.0938" d="M970.1899,1059c-0.08-11.34-0.26-22.67-0.3199-34
		c-1.27-28.59-2.98-57.17-6.22-85.62c-4.9901-42.15-12.14-84.37-26.4-124.48c-6.6799-18.5-15.0601-36.52-26.5801-52.53
		c-2.8199-3.4-2.8398-8.36-0.0199-11.76c6.2999-8.4,12.7-16.76,18.3099-25.65c3.16-5.46,7.1301-10.6,9.47-16.45
		c2.76-3.25,4.24-7.31,6.23-11.03C954.61,677.8,962,656.83,966.88,635.34c0.85-2.84,0.39-5.78-1-8.35
		c-1.2001,0.13-2.39,0.24-3.58,0.32c-3.6901,4.47-5.3301,10.13-7.91,15.23c-6.41,13.39-14.11,26.14-22.65,38.27
		c-3.85,5.86-8.84,10.94-12.26,17.05c-3.83,3.05-6.36,7.43-9.74,10.95c-7.3301,7.94-14.25,16.39-22.6799,23.21
		c-3.02,2.87-7.67,1.75-10.8401-0.23c-27.5601-15.97-57.6899-26.77-87.98-36.27c-30.53-9.39-61.4399-17.48-92.3301-25.56
		c-32.6299-8.72-65.46-17.05-97.1599-28.81c-16.89-6.46-33.8401-13.6-48.37-24.55c-7.65-5.63-13.52-13.19-19.14-20.74
		c-7.48-10.29-14.72-20.76-21.3999-31.59C463.48,490.36,436.98,405.25,425.89,319.0601c-2.15-16.3101-3.36-32.7201-4.78-49.0901
		c-0.15,1.75-0.38,3.49-0.61,5.24c-1.23-7.1-0.87-14.34-0.54-21.49c0.3,0.62,0.91,1.8601,1.2101,2.48
		c3.46-20.23,5.5599-40.76,4.7799-61.3099c-0.8099-13.9701-2.2999-28.2001-7.77-41.2101c-0.6099-1.2899-1.2899-2.5399-1.95-3.7899
		c2.02-4.33,6.15-7.08,9.71-10.05c1.8801-1.1,3.9001-1.9401,5.92-2.7699c-6.6899-3.6201-10.9399-10.2001-13.84-17.01
		c-0.23,4.99-4.8101,7.84-8.4299,10.51c-3.77,2.98-9.2301,2.4099-13.01-0.2301c-6.5-4.15-13.3901-7.65-20.5901-10.42
		c-2.11-1-5.04-1.74-5.59-4.3899c-1.6901-6.8501,1.4401-13.7,3.4401-20.15c-6.49-1.33-12.9701-2.65-19.17-5.04
		c0.46,7.3101-1.12,14.66-3.9801,21.34C347.87,115.86,342.21,114.61,338,114.51c-5.86,3.4399-12.74,4.09-19.03,6.4199
		c-6.9399,2.23-13.48,6.29-21.0099,6c-0.88,3.67-4.79,4.6401-7.69,6.26c-40.42,20.71-77.21,47.9-111.23,77.8501
		c-1.75,1.59-3.5699,3.1299-5.06,4.97c-1.36,2-2.5699,4.1-3.79,6.1899c5.15-1.7,9.98-4.3,15.26-5.6
		c8.78-1.91,17.92-2.67,26.8-0.9401c7.43,0.6301,14.69,2.4601,21.7,4.9601c15.2,5.35,29.66,12.64,43.32,21.16
		c12.1,7.36,23.4099,15.9099,35.1699,23.78c14.77,10.0699,29.6301,20.1199,43.1801,31.8199c6.83,6.13,13.59,12.5,18.63,20.24
		c6.22,8.1,9.95,18.16,10.1799,28.4c0.5801,9.7-2.48,19.04-6.23,27.83l-0.21,0.99c5.28-4.1,5.66-11.82,11.3401-15.48
		c0.08-2.48,0.83-4.86,2-7.02c5.33-10.63,9.22-21.89,13.6299-32.9c0.8201-3.6,2.01-7.09,3.3201-10.52
		c2.03,0.7001,4.5601,1.0601,5.63,3.2101c2.23,3.7999,1.91,8.39,2.25,12.63c1.34,3.97,2.39,8.05,2.7999,12.23
		c2.15,16.95,6.3201,33.52,9.73,50.23c4.8301,19.69,10.0701,39.31,16.5701,58.52c3.89,9.33,6.38,19.18,10.5,28.43
		c4.55,10.49,8.15,21.39,13.5,31.52c3.9199,7.53,6.8101,15.57,11.15,22.9c9.1801,17.16,18.64,34.24,29.61,50.34
		c3.1,5.13,6.4099,10.13,10.24,14.74c5.75,6.95,9.96,15.29,17.3,20.8c13.6899,12.08,30.1199,20.54,47.0999,27
		c9.4202,4.39,19.3901,7.35,29.2001,10.71c36.39,11.7,73.58,20.64,110.4601,30.62c15.7799,4.69,31.8599,8.35,47.5599,13.33
		c30,8.82,60.13,18.27,87.6801,33.32c8.1699,4.75,16.8699,8.73,24.21,14.78c10.2,7.9,18.2,18.34,24.4299,29.57
		c9.5601,16.42,15.49,34.63,20.04,52.99c4.6799,18.43,6.8401,37.35,8.6699,56.23c1.53,12.27,1.1901,24.65,1.3801,36.98
		c-0.0901,14.59,0.09,29.23-1.66,43.75c-1.15,8.2-1.7001,16.66-4.9701,24.37c-5.45-0.58-9.95-4.86-15.6399-4.06
		c-16.6899,1.16-34.9399,0.89-49.3601-8.72c-6.4199-4.19-11.8999-10.03-14.71-17.2401c-1.8999-4.49-3.6099-9.34-7.45-12.59
		c-6.97-6.16-15.0701-11.08-23.87-14.14c-29.52-10.49-60.88-13.97-91.89-16.94c-17.5701-1.2-35.13-2.7-52.75-2.55
		c-33.6899-1.78-67.53-0.9-101.0601,2.94c-15,1.23-29.8799,4.17-44.97,4.11c-11.58-0.65-22.6099-4.95-32.96-9.93
		c-6.01-2.74-11.1-7.02-16.8201-10.26c-5.8398-5.46-12.0599-10.56-17.1099-16.8c-9.8101-10.89-17.5-23.41-24.9501-35.96
		c-2.38-6.12-5.24-12.02-8.15-17.89c-4.29-9.38-7.99-19.01-11.4099-28.73c-4.24-10.57-6.8501-21.68-10.3701-32.49
		c-2.4199-8.82-4.0999-17.82-6.3599-26.67c-2.1001-11.83-4.9401-23.52-6.6201-35.42c-4.27-22.53-7.1599-45.28-9.75-68.05
		c-1.0699-14.89-3.21-29.67-3.74-44.59c-0.73-14.71-1.72-29.4-2.5-44.11c0.1301-13.04-1.49-26.01-1.1599-39.05
		c-1.53-25.3-0.71-50.65-0.8801-75.98c0.4401-19.07,1.4901-38.18,0.6201-57.25c-4.26,6.98-8.3601,14.16-14.14,20.04
		c-1.4,14.02-0.55,28.14-0.7301,42.21c-0.2699,10.96,0.4701,21.9,0.2201,32.85c1.61,16.34,1.42,32.79,1.66,49.2
		c0.1399,7.9,2.9299,15.85,0.6499,23.68c2.3601,50.12,7.72,100.09,12.6801,150.01c1.76,13.05,3.85,26.05,4.98,39.18
		c4.42,37.65,9.9301,75.15,15.36,112.67c1.3401,8.28,3.0601,16.5099,4.13,24.84c1.16,9.26,3.37,18.34,4.38,27.63
		c4.78,27.55,9.2,55.17,14.3401,82.67c0.8499,5.18,2.22,10.33,2.34,15.61c0.42,0.46,1.24,1.37,1.66,1.83
		c1.0599,0.9,0.9399,2.41,0.77,3.67c-0.7201,5.99,1.3499,11.75,2.2899,17.58c2.5499,13.5101,4.89,27.05,7.7899,40.4901
		c0.78,4.51,3.9501,8.99,8.8601,9.36c12.7,1.9,25.6799,0.16,38.04-3c3.3199-1.09,7.1199-2.02,9.5299-4.6801
		c1.5601-6.09,1.12-12.4399,1.4601-18.65c1.24-18.2599,3.0699-36.52,6.51-54.5099c2.6899-13.27,5.98-26.6,12.1599-38.73
		c3.45-6.4,7.8301-13,14.76-15.99c4.8201-2.25,10.25-1.5,15.38-1.97c-0.85-1.81-3.02-1.27-4.6-1.28c3.59-0.47,7.12,0.56,10.71,0.49
		c6.3201-0.03,12.65,0,18.96-0.49c11.3-0.94,22.67-0.09,33.97-0.97c9.6801-0.72,19.3901-0.54,29.0901-0.67
		c12.6599,0.13,25.3101-0.7,37.97-0.14c14.72,0.15,29.46-0.02,44.15,1.14c14.36-0.11,28.65,1.5,42.9501,2.55
		c20.3699,2.19,40.8999,4.74,60.4099,11.25c9.27,3.29,19.13,7.61,24.5901,16.26c3.8199,6.86,5.4099,14.66,7.5399,22.16
		c6.5,25.23,10.1,51.11,12.9,76.9901c0.55,5.12,0.51,10.39,2.23,15.3199c2.3,1.8,5.51,1.17,8.26,1.42
		c8.11-0.29,16.4199-0.25,24.3101-2.29c2.27-7.66,2.6099-15.6899,3.8899-23.53c2.0701-13.4099,4.27-26.97,9.1901-39.6799
		c1.7-3.66,3.17-8.06,7.1-9.9c3.4199-1.95,7.77,0.48,9.24,3.82c3.55,7.77,4.25,16.43,5.12,24.82c0.4801,11.33,1.51,22.67,0.79,34.02
		c0.08,2.75-0.75,6.8099,2.25,8.3099c4.9401,1.1,10.0599,0.5801,15.1,0.7101c6.6-0.14,13.36,0.61,19.8201-1.1901
		C970.01,1067.02,970.26,1062.98,970.1899,1059z M416.7,242.98c-0.3999,5.77-1.5599,11.4299-2.6799,17.0901
		c-3.03,18.46-6.8301,37.0898-14.99,54.0599c-1.52,2.95-3.28,5.91-5.8401,8.09c-1.72,1.3501-4.0898,0.3501-5.6399-0.79
		c-4.1901-3.08-7.54-7.1199-11.28-10.71c-11.5801-11.4199-22.66-23.37-34.98-34c-6.1899-6.5701-13.74-11.59-20.48-17.53
		c-3.9401-3.48-8.53-6.1-12.6301-9.3699c-8-6.24-16.7499-11.4102-25.5099-16.5c-18.79-10.8701-39.46-18.53-60.91-22.03
		c-7.36-1.75-14.96-1-22.41-1.77c-2.22-0.03-3.6201-1.64-4.48-3.5c1.53-2.16,3.26-4.1801,5.38-5.78
		c7.25-5.73,14.39-11.5901,21.66-17.3c15.09-10.79,30.46-21.1899,46.47-30.5699c2.04-1.28,4.31-2.14,6.72-2.36
		c2.97-2.9299,6.74-5.17,10.82-6.14c10.04-6.76,21.59-10.74,32.8099-15.0599c9.53-3.1001,19.21-6.2001,29.27-6.9401
		c6.17-0.66,12.5601-1.3099,18.5801,0.66c10.7799,3.4099,21.22,8,30.72,14.1499c6.23,4.76,12.0699,10.3701,15.5699,17.48
		c6.2101,11.9001,6.75,25.7001,7.03,38.8401C420.3301,209.73,418.5,226.38,416.7,242.98z"/>
	<g id="_x23_ddbb6bff">
		<path fill="#DDBB6B" stroke="#DDBB6B" stroke-width="0.0938" d="M425.33,998.17c1.06,0.9,0.94,2.41,0.77,3.67
			C424.43,1002,424.36,999.02,425.33,998.17z"/>
	</g>
</g>
</svg>
