<?xml version="1.0" encoding="iso-8859-1"?>
<!-- Generator: Adobe Illustrator 19.0.0, SVG Export Plug-In . SVG Version: 6.00 Build 0)  -->
<svg version="1.1" id="Layer_1" xmlns="http://www.w3.org/2000/svg" xmlns:xlink="http://www.w3.org/1999/xlink" x="0px" y="0px"
	 viewBox="0 0 511.488 511.488" style="enable-background:new 0 0 511.488 511.488;" xml:space="preserve">
<path style="fill:#663333;" d="M511.488,232.227c0,13.399-3.178,26.377-9.452,38.648c1.128,6.284,1.917,12.712,2.296,19.191
	c1.281,21.62-1.661,42.585-8.488,60.658c-6.981,18.463-17.499,32.61-30.426,40.903c-6.376,4.101-13.757,6.171-21.313,6.171
	c-6.1,0-12.322-1.353-18.227-4.06c-5.331-2.45-8.785-7.822-8.785-13.696c0-4.746,2.173-9.093,5.977-11.943
	c6.807-5.085,13.235-20.544,14.752-42.154c-0.728,0.277-1.466,0.533-2.194,0.8c-6.858,29.083-21.456,51.606-40.585,62.329
	c-5.884,3.321-12.496,4.982-19.221,4.982c-6.858,0-13.85-1.722-20.349-5.177c-0.082-0.041-0.164-0.092-0.246-0.133
	c-4.798-2.717-7.771-7.791-7.771-13.235c0-4.992,2.491-9.636,6.663-12.414c4.705-3.096,10.867-12.117,14.793-27.966
	c-5.167-0.472-10.292-1.179-15.357-2.143c-12.332,1.845-25.167,2.788-38.197,2.788c-14.957,0-29.606-1.271-43.312-3.65
	c-2.963,21.856-11.184,39.888-23.712,51.483c-7.422,6.807-17.14,10.415-27.341,10.415c-3.711,0-7.473-0.472-11.225-1.445
	c-3.116-0.789-5.802-2.553-7.771-4.9c-2.46,1.927-5.013,3.65-7.648,5.126c-5.905,3.332-12.527,4.992-19.262,4.992
	c-6.899,0-13.921-1.743-20.452-5.228c-4.921-2.583-7.996-7.699-7.996-13.317c0-5.064,2.522-9.729,6.735-12.496
	c8.744-5.772,18.053-27.986,18.463-58.074c-11.984-3.957-24.634-12.138-35.788-23.302c-4.408-4.408-8.365-9.083-11.799-13.901
	c-4.685,5.331-10.354,9.944-16.771,13.563c-10.631,5.997-23.004,9.175-35.778,9.175c-43.446,0-61.652-35.696-61.673-35.737
	c-13.05-26.059-13.286-51.298-1.158-65.855c4.172-4.992,9.513-8.375,15.879-10.057c1.169-0.308,8.017,0.769,15.418-0.144
	c6.479-0.81,12.814-2.204,18.237-4.675c6.212-2.788,11.646-6.571,15.398-11.266c5.115-6.387,6.704-13.614,6.899-14.167
	c1.876-4.716,5.351-9.165,10.385-13.235c8.755-7.104,22.307-12.784,39.304-16.505c11.748-9.934,27.669-11.656,38.996-4.582
	c2.276-0.062,4.613-0.103,6.981-0.103c24.224,0,47.034,3.568,64.553,10.036h136.816c35.214,0,68.439,10.528,93.534,29.647
	C497.207,177.32,511.488,203.83,511.488,232.227z M482.373,264.191c5.71-10.149,8.611-20.903,8.611-31.964
	c0-46.203-50.806-83.795-113.248-83.795c0,0-103.97,0-138.63,0c-1.415,0-3.629-0.646-3.752-0.697
	c-13.901-5.423-33.061-8.724-53.266-9.257c1.189,10.087-2.532,21.21-10.918,29.596c-2.009,1.999-4.634,3.004-7.258,3.004
	c-2.624,0-5.238-1.005-7.248-3.004c-3.998-4.008-3.998-10.497,0-14.496c5.505-5.505,6.889-13.409,3.024-17.274
	c-1.476-1.476-3.557-2.184-5.864-2.184c-3.701,0-8.006,1.825-11.4,5.208c-1.374,1.353-3.137,2.337-5.167,2.747
	c-14.649,2.963-26.777,7.678-33.266,12.937c-2.45,1.979-3.752,3.721-4.213,4.787c-1.763,7.156-5.208,13.85-10.303,19.908
	c-5.874,6.93-13.686,12.702-22.635,16.72c-7.555,3.444-15.972,5.249-24.829,6.417c-4.183,0.543-12.866,0.082-13.46,0.031
	c-1.558,0.636-2.86,1.589-3.937,2.881c-5.331,6.387-6.335,22.727,4.049,43.487c0.123,0.246,17.192,26.008,43.036,24.47
	c9.237-0.554,18.135-2.255,25.711-6.54c8.16-4.593,14.506-11.441,17.868-19.283c2.225-5.197,8.252-7.607,13.46-5.382
	c2.43,1.046,4.234,2.911,5.259,5.136c0.021,0.031,0.041,0.062,0.051,0.092c3.547,7.894,9.247,15.9,16.495,23.148
	c10.385,10.385,22.82,17.848,32.6,19.57c4.972,0.554,8.908,4.664,9.093,9.811c0.082,2.204,0.123,4.275,0.123,6.335
	c0,30.047-7.648,56.229-20.052,70.458c4.265,0.554,8.488-0.154,12.004-2.122c17.704-9.923,31.021-36.68,33.943-68.172
	c0.523-5.638,5.526-9.78,11.164-9.257c1.353,0.133,2.635,0.523,3.773,1.117v-0.01c20.37,10.59,50.314,16.659,82.165,16.659
	c12.599,0,24.983-0.953,36.813-2.819c1.21-0.195,2.44-0.164,3.639,0.082c8.95,1.815,18.176,2.737,27.412,2.737
	c2.799,0,5.556-0.082,8.191-0.236c13.921-0.81,27.207-3.639,39.519-8.406c4.336-1.661,8.55-3.578,12.527-5.7
	c5.003-2.655,11.215-0.759,13.87,4.234c0.656,1.23,1.025,2.532,1.148,3.834l0.041-0.01c1.199,28.509-4.9,53.82-15.91,68.203
	c4.244,0.287,8.375-0.656,11.738-2.819c19.529-12.538,31.667-46.706,29.524-83.088c-0.41-6.786-1.281-13.522-2.614-20.011h0.01
	C480.795,268.937,481.113,266.425,482.373,264.191z M384.995,371.206c11.635-6.52,21.405-20.277,27.505-38.146
	c-7.412,1.558-19.683,2.532-22.686,2.563c-3.383,16.023-9.196,29.104-16.679,37.715C377.348,373.871,381.53,373.153,384.995,371.206
	z M234.432,368.54c9.175-8.498,15.387-23.148,17.52-40.913c-5.32-1.486-10.405-3.147-15.203-5.003
	c-1.507,8.16-3.629,15.931-6.294,23.178c-0.882,10.959-3.28,20.288-7.073,27.546C227.605,372.887,231.5,371.236,234.432,368.54z"/>
<path style="fill:#D2CDCE;" d="M490.985,232.227c0,11.061-2.901,21.815-8.611,31.964c-1.261,2.235-1.579,4.746-1.107,7.084h-0.01
	c1.333,6.489,2.204,13.224,2.614,20.011c2.143,36.382-9.995,70.55-29.524,83.088c-3.362,2.163-7.494,3.106-11.738,2.819
	c11.01-14.383,17.11-39.694,15.91-68.203l-0.041,0.01c-0.123-1.302-0.492-2.604-1.148-3.834c-2.655-4.992-8.867-6.889-13.87-4.234
	c-3.978,2.122-8.191,4.039-12.527,5.7c-12.312,4.767-25.598,7.596-39.519,8.406c-2.635,0.154-5.392,0.236-8.191,0.236
	c-9.237,0-18.463-0.923-27.412-2.737c-1.199-0.246-2.43-0.277-3.639-0.082c-11.83,1.866-24.214,2.819-36.813,2.819
	c-31.851,0-61.796-6.069-82.165-16.659v0.01c-1.138-0.595-2.419-0.984-3.773-1.117c-5.638-0.523-10.641,3.619-11.164,9.257
	c-2.922,31.492-16.238,58.249-33.943,68.172c-3.516,1.968-7.74,2.676-12.004,2.122c12.404-14.229,20.052-40.411,20.052-70.458
	c0-2.061-0.041-4.131-0.123-6.335c-0.185-5.146-4.121-9.257-9.093-9.811c-9.78-1.722-22.215-9.185-32.6-19.57
	c-7.248-7.248-12.948-15.254-16.495-23.148c-0.01-0.031-0.031-0.062-0.051-0.092c-1.025-2.225-2.829-4.09-5.259-5.136
	c-5.208-2.225-11.236,0.185-13.46,5.382c-3.362,7.842-9.708,14.69-17.868,19.283c-7.576,4.285-16.474,5.987-25.711,6.54
	c-25.844,1.538-42.913-24.224-43.036-24.47c-10.385-20.759-9.38-37.1-4.049-43.487c1.076-1.292,2.378-2.245,3.937-2.881
	c0.595,0.051,9.278,0.513,13.46-0.031c8.857-1.169,17.274-2.973,24.829-6.417c8.95-4.019,16.761-9.79,22.635-16.72
	c5.095-6.059,8.539-12.753,10.303-19.908c0.461-1.066,1.763-2.809,4.213-4.787c6.489-5.259,18.617-9.975,33.266-12.937
	c2.03-0.41,3.793-1.394,5.167-2.747c3.393-3.383,7.699-5.208,11.4-5.208c2.307,0,4.388,0.707,5.864,2.184
	c3.865,3.865,2.481,11.769-3.024,17.274c-3.998,3.998-3.998,10.487,0,14.496c2.009,1.999,4.623,3.004,7.248,3.004
	c2.624,0,5.249-1.005,7.258-3.004c8.386-8.386,12.107-19.508,10.918-29.596c20.206,0.533,39.366,3.834,53.266,9.257
	c0.123,0.051,2.337,0.697,3.752,0.697c34.66,0,138.63,0,138.63,0C440.179,148.431,490.985,186.023,490.985,232.227z
	 M444.033,210.268c3.424-4.5,2.553-10.938-1.948-14.362c-16.515-12.579-39.97-19.796-64.348-19.796h-94.241
	c-5.659,0-10.251,4.593-10.251,10.251s4.593,10.251,10.251,10.251h94.241c19.98,0,38.904,5.69,51.924,15.603
	c1.856,1.415,4.039,2.091,6.202,2.091C438.959,214.307,442.014,212.923,444.033,210.268z M129.55,176.428
	c0-5.454-4.418-9.872-9.872-9.872c-5.454,0-9.872,4.418-9.872,9.872c0,5.454,4.418,9.872,9.872,9.872
	C125.131,186.3,129.55,181.882,129.55,176.428z"/>
<path style="fill:#663333;" d="M442.085,195.906c4.5,3.424,5.372,9.862,1.948,14.362c-2.02,2.655-5.074,4.039-8.17,4.039
	c-2.163,0-4.347-0.677-6.202-2.091c-13.019-9.913-31.943-15.603-51.924-15.603h-94.241c-5.659,0-10.251-4.593-10.251-10.251
	s4.593-10.251,10.251-10.251h94.241C402.115,176.11,425.57,183.327,442.085,195.906z"/>
<g>
	<path style="fill:#D2CDCE;" d="M412.5,333.06c-6.1,17.868-15.869,31.626-27.505,38.146c-3.465,1.948-7.648,2.665-11.861,2.132
		c7.484-8.611,13.296-21.692,16.679-37.715C392.817,335.592,405.088,334.618,412.5,333.06z"/>
	<path style="fill:#D2CDCE;" d="M251.952,327.627c-2.132,17.766-8.345,32.415-17.52,40.913c-2.932,2.696-6.827,4.347-11.051,4.808
		c3.793-7.258,6.192-16.587,7.073-27.546c2.665-7.248,4.787-15.018,6.294-23.179C241.547,324.479,246.631,326.14,251.952,327.627z"
		/>
</g>
<circle style="fill:#663333;" cx="119.675" cy="176.427" r="9.872"/>
<g>
</g>
<g>
</g>
<g>
</g>
<g>
</g>
<g>
</g>
<g>
</g>
<g>
</g>
<g>
</g>
<g>
</g>
<g>
</g>
<g>
</g>
<g>
</g>
<g>
</g>
<g>
</g>
<g>
</g>
</svg>
