<?xml version="1.0" encoding="iso-8859-1"?>
<!-- Generator: Adobe Illustrator 19.0.0, SVG Export Plug-In . SVG Version: 6.00 Build 0)  -->
<svg version="1.1" id="Layer_1" xmlns="http://www.w3.org/2000/svg" xmlns:xlink="http://www.w3.org/1999/xlink" x="0px" y="0px"
	 viewBox="0 0 511.465 511.465" style="enable-background:new 0 0 511.465 511.465;" xml:space="preserve">
<path style="fill:#663333;" d="M511.218,130.645c0.161,3.106,0.246,6.276,0.246,9.403c0,42.463-15.325,84.059-44.316,120.289
	c-10.452,13.055-22.565,25.296-36.123,36.552c0.064,0.792,0.054,1.596-0.064,2.42c-3.566,24.6-16.932,46.576-36.98,61.151v72.129
	c19.074,5.922,32.514,23.572,32.514,44.391c0,10.602-8.632,19.234-19.234,19.234l-113.242-0.021
	c-22.308,0-40.461-18.142-40.461-40.45v-77.687h-5.954c-12.07,21.869-35.074,35.641-60.444,35.641h-0.364v19.288
	c18.431,6.319,31.411,23.818,31.411,43.995c0,10.602-8.632,19.234-19.234,19.234l-114.313-0.021
	c-22.308,0-40.461-18.142-40.461-40.45v-75.652c0-10.142,3.202-19.738,8.889-27.62c2.977-4.134,6.64-7.786,10.892-10.795v-55.357
	c0-13.612,3.352-26.452,9.232-37.762c-20.498,7.186-35.266,26.677-35.384,49.585c9.574,3.663,16.396,12.948,16.396,23.786v15.432
	c0,4.83-1.349,9.349-3.695,13.194c-4.466,7.357-12.562,12.273-21.772,12.273h-3.288C11.427,362.827,0,351.411,0,337.36v-15.432
	c0-10.849,6.833-20.134,16.407-23.797c0.161-40.803,33.392-73.96,74.228-73.96h1.874c14.394-12.434,33.124-19.984,53.59-19.984
	h52.037c-7.861-20.744-11.92-42.324-11.92-64.139c0-3.116,0.086-6.286,0.246-9.403C190.64,51.363,273.574,15.25,348.841,15.25
	C424.118,15.25,507.042,51.363,511.218,130.645z M492.187,140.048c0-2.795-0.075-5.612-0.225-8.386
	c-3.513-66.742-76.659-97.135-143.122-97.135s-139.609,30.394-143.122,97.125c-0.15,2.784-0.225,5.612-0.225,8.396
	c0,38.04,13.869,75.47,40.096,108.241c25.071,31.336,60.712,57.703,103.25,76.444c42.538-18.742,78.179-45.108,103.25-76.444
	C478.319,215.518,492.187,178.088,492.187,140.048z M366.94,474.795h38.04c-1.017-12.059-10.431-21.687-22.683-22.801
	c-5.515-0.503-9.735-5.13-9.735-10.667v-69.269c-10.378,3.941-21.451,5.997-32.718,5.997h-5.365v54.533
	C352.889,438.308,366.029,454.929,366.94,474.795z M377.542,345.746c11.159-7.047,19.952-16.932,25.649-28.423
	c-15.604,10.11-32.535,19.106-50.57,26.784c-1.21,0.514-2.495,0.771-3.78,0.771c-1.285,0-2.57-0.257-3.77-0.771
	c-47.133-20.07-86.736-49.039-114.538-83.77c-8.889-11.116-16.493-22.736-22.768-34.731h-61.665
	c-33.467,0-60.701,27.234-60.701,60.712v61.355c0,4.005-2.238,7.679-5.805,9.521c-8.621,4.434-13.976,13.205-13.976,22.897v75.652
	c0,10.495,8.546,19.031,19.042,19.031h51.448c-1.017-11.673-10.099-21.248-21.912-22.693c-5.365-0.664-9.403-5.226-9.403-10.635
	v-53.933c0-5.912,4.798-10.71,10.71-10.71h11.084c13.815,0,26.934-5.997,36.005-16.461c2.035-2.356,4.991-3.705,8.096-3.705h93.58
	c5.912,0,10.71,4.798,10.71,10.71v88.396c0,10.495,8.546,19.031,19.042,19.031h51.459c-1.028-12.048-10.431-21.665-22.683-22.779
	c-5.515-0.503-9.735-5.13-9.735-10.667v-73.981c0-5.912,4.798-10.71,10.71-10.71h16.075
	C353.264,356.637,366.297,352.878,377.542,345.746z M221.13,378.056h-45.794c-12.905,12.884-30.404,20.166-48.75,20.166h-0.375
	v34.763c17.767,6.094,30.458,22.565,31.357,41.81h39.122c-1.017-11.684-10.099-21.258-21.912-22.715
	c-5.376-0.653-9.403-5.216-9.403-10.624v-38.469c0-5.912,4.787-10.71,10.71-10.71h11.074
	C200.203,392.278,212.348,386.999,221.13,378.056z M32.803,337.36v-15.432c0-2.228-1.81-4.048-4.048-4.048h-3.288
	c-2.228,0-4.048,1.821-4.048,4.048v15.432c0,2.238,1.821,4.048,4.048,4.048h3.288C30.993,341.408,32.803,339.598,32.803,337.36z"/>
<path style="fill:#C85E4C;" d="M491.963,131.663c0.15,2.774,0.225,5.59,0.225,8.386c0,38.04-13.869,75.47-40.096,108.241
	c-25.071,31.336-60.712,57.703-103.25,76.444c-42.538-18.742-78.179-45.108-103.25-76.444
	c-26.228-32.771-40.096-70.201-40.096-108.241c0-2.784,0.075-5.612,0.225-8.396c3.513-66.731,76.659-97.125,143.122-97.125
	S488.45,64.921,491.963,131.663z M449.96,137.842c6.404-6.865,9.574-15.818,8.921-25.21c-1.146-16.568-14.501-29.933-31.068-31.068
	c-9.392-0.653-18.345,2.517-25.21,8.921c-4.648,4.337-7.936,9.906-9.531,15.968h-88.45c-1.606-6.062-4.894-11.631-9.542-15.968
	c-6.854-6.404-15.797-9.574-25.21-8.921c-16.568,1.135-29.922,14.501-31.068,31.068c-0.643,9.392,2.527,18.345,8.932,25.21
	c4.07,4.359,9.221,7.518,14.854,9.221v37.783c0,6.747,2.099,13.183,6.072,18.635l34.924,47.871
	c5.922,8.129,15.475,12.98,25.531,12.98h39.454c10.067,0,19.609-4.851,25.531-12.98l34.924-47.871
	c3.973-5.451,6.072-11.888,6.072-18.635v-37.783C440.728,145.36,445.88,142.201,449.96,137.842z"/>
<path style="fill:#663333;" d="M458.881,112.632c0.653,9.392-2.517,18.345-8.921,25.21c-4.08,4.359-9.232,7.518-14.865,9.221v37.783
	c0,6.747-2.099,13.183-6.072,18.635l-34.924,47.871c-5.922,8.129-15.465,12.98-25.531,12.98h-39.454
	c-10.056,0-19.609-4.851-25.531-12.98l-34.924-47.871c-3.973-5.451-6.072-11.888-6.072-18.635v-37.783
	c-5.633-1.703-10.785-4.862-14.854-9.221c-6.404-6.865-9.574-15.818-8.932-25.21c1.146-16.568,14.501-29.933,31.068-31.068
	c9.414-0.653,18.356,2.517,25.21,8.921c4.648,4.337,7.936,9.906,9.542,15.968h88.45c1.596-6.062,4.884-11.631,9.531-15.968
	c6.865-6.404,15.818-9.574,25.21-8.921C444.38,82.699,457.735,96.064,458.881,112.632z M435.866,124.691
	c2.72-2.913,4.059-6.726,3.78-10.731c-0.482-7.025-6.137-12.68-13.162-13.162c-4.005-0.289-7.904,0.975-10.731,3.78
	c-4.466,4.434-4.509,10.849-4.509,11.074c0.129,2.635-0.835,5.194-2.656,7.1c-1.821,1.896-4.337,2.977-6.972,2.977H296.064
	c-2.635,0-5.151-1.082-6.972-2.977c-1.821-1.906-2.774-4.466-2.656-7.1c0.011-0.225-0.428-7.497-4.509-11.074
	c-4.83-4.23-10.388-3.813-10.731-3.78c-7.025,0.482-12.68,6.137-13.162,13.151c-0.278,4.016,1.071,7.829,3.78,10.742
	c2.731,2.913,6.426,4.519,10.41,4.519c5.323,0,9.639,4.316,9.639,9.639v45.997c0,2.635,0.814,5.141,2.367,7.272l34.924,47.871
	c2.313,3.17,6.04,5.066,9.96,5.066h10.088v-17.821c-4.359-1.446-8.46-3.898-11.93-7.357c-3.759-3.77-3.759-9.874,0-13.633
	c3.77-3.77,9.863-3.77,13.633,0c4.38,4.38,11.502,4.38,15.871,0c3.77-3.77,9.874-3.77,13.633,0c3.77,3.759,3.77,9.863,0,13.633
	c-3.459,3.459-7.561,5.912-11.93,7.357v17.821h10.088c3.93,0,7.647-1.896,9.96-5.066l34.924-47.871
	c1.553-2.12,2.367-4.637,2.367-7.272v-45.997c0-5.323,4.316-9.639,9.639-9.639C429.451,129.21,433.146,127.604,435.866,124.691z"/>
<g>
	<path style="fill:#F9DCB2;" d="M439.647,113.96c0.278,4.005-1.06,7.818-3.78,10.731c-2.72,2.913-6.415,4.519-10.41,4.519
		c-5.323,0-9.639,4.316-9.639,9.639v45.997c0,2.635-0.814,5.151-2.367,7.272l-34.924,47.871c-2.313,3.17-6.029,5.066-9.96,5.066
		h-10.088v-17.821c4.369-1.446,8.471-3.898,11.93-7.357c3.77-3.77,3.77-9.874,0-13.633c-3.759-3.77-9.863-3.77-13.633,0
		c-4.369,4.38-11.491,4.38-15.871,0c-3.77-3.77-9.863-3.77-13.633,0c-3.759,3.759-3.759,9.863,0,13.633
		c3.47,3.459,7.572,5.912,11.93,7.357v17.821h-10.088c-3.92,0-7.647-1.896-9.96-5.066l-34.924-47.871
		c-1.553-2.131-2.367-4.637-2.367-7.272v-45.997c0-5.323-4.316-9.639-9.639-9.639c-3.984,0-7.679-1.606-10.41-4.519
		c-2.71-2.913-4.059-6.726-3.78-10.742c0.482-7.015,6.137-12.669,13.162-13.151c0.343-0.032,5.901-0.45,10.731,3.78
		c4.08,3.577,4.519,10.849,4.509,11.074c-0.118,2.635,0.835,5.194,2.656,7.1c1.821,1.896,4.337,2.977,6.972,2.977h105.553
		c2.635,0,5.151-1.082,6.972-2.977c1.821-1.906,2.784-4.466,2.656-7.1c0-0.225,0.043-6.64,4.509-11.074
		c2.827-2.806,6.726-4.07,10.731-3.78C433.51,101.28,439.165,106.934,439.647,113.96z M393.403,161.199
		c0-5.912-4.787-10.71-10.71-10.71c-5.912,0-10.71,4.798-10.71,10.71s4.798,10.71,10.71,10.71
		C388.616,171.909,393.403,167.111,393.403,161.199z M325.697,161.199c0-5.912-4.798-10.71-10.71-10.71
		c-5.912,0-10.71,4.798-10.71,10.71s4.798,10.71,10.71,10.71C320.9,171.909,325.697,167.111,325.697,161.199z"/>
	<path style="fill:#F9DCB2;" d="M404.98,474.795h-38.04c-0.91-19.866-14.051-36.487-32.461-42.206v-54.533h5.365
		c11.266,0,22.34-2.056,32.718-5.997v69.269c0,5.537,4.22,10.163,9.735,10.667C394.549,453.108,403.963,462.736,404.98,474.795z"/>
	<path style="fill:#F9DCB2;" d="M403.191,317.323c-5.697,11.491-14.49,21.376-25.649,28.423
		c-11.245,7.133-24.278,10.892-37.697,10.892H323.77c-5.912,0-10.71,4.798-10.71,10.71v73.981c0,5.537,4.22,10.163,9.735,10.667
		c12.252,1.114,21.655,10.731,22.683,22.779h-51.459c-10.495,0-19.041-8.535-19.041-19.031v-88.396c0-5.912-4.798-10.71-10.71-10.71
		h-93.58c-3.106,0-6.062,1.349-8.096,3.705c-9.071,10.463-22.19,16.461-36.005,16.461h-11.084c-5.912,0-10.71,4.798-10.71,10.71
		v53.933c0,5.408,4.037,9.971,9.403,10.635c11.813,1.446,20.894,11.02,21.912,22.693H84.659c-10.495,0-19.041-8.535-19.041-19.031
		v-75.652c0-9.692,5.355-18.463,13.976-22.897c3.566-1.842,5.805-5.515,5.805-9.521v-61.355c0-33.478,27.234-60.712,60.701-60.712
		h61.665c6.276,11.995,13.88,23.614,22.768,34.731c27.802,34.731,67.406,63.7,114.538,83.77c1.199,0.514,2.485,0.771,3.77,0.771
		c1.285,0,2.57-0.257,3.78-0.771C370.656,336.428,387.588,327.432,403.191,317.323z M156.809,265.232
		c0-5.912-4.798-10.709-10.71-10.709c-17.521,0-31.786,14.265-31.786,31.797c0,5.912,4.798,10.71,10.71,10.71
		c5.912,0,10.71-4.798,10.71-10.71c0-5.719,4.648-10.378,10.367-10.378C152.011,275.941,156.809,271.154,156.809,265.232z"/>
</g>
<g>
	<path style="fill:#663333;" d="M382.693,150.49c5.922,0,10.71,4.798,10.71,10.71s-4.787,10.71-10.71,10.71
		c-5.912,0-10.71-4.798-10.71-10.71S376.782,150.49,382.693,150.49z"/>
	<path style="fill:#663333;" d="M314.988,150.49c5.912,0,10.71,4.798,10.71,10.71s-4.798,10.71-10.71,10.71
		c-5.912,0-10.71-4.798-10.71-10.71S309.076,150.49,314.988,150.49z"/>
</g>
<path style="fill:#F9DCB2;" d="M175.336,378.056h45.794c-8.782,8.942-20.926,14.222-33.971,14.222h-11.074
	c-5.922,0-10.71,4.798-10.71,10.71v38.469c0,5.408,4.027,9.971,9.403,10.624c11.813,1.456,20.894,11.031,21.912,22.715h-39.122
	c-0.9-19.245-13.59-35.716-31.357-41.81v-34.763h0.375C144.932,398.222,162.431,390.94,175.336,378.056z"/>
<path style="fill:#663333;" d="M146.099,254.522c5.912,0,10.71,4.798,10.71,10.709c0,5.922-4.798,10.71-10.71,10.71
	c-5.719,0-10.367,4.659-10.367,10.378c0,5.912-4.798,10.71-10.71,10.71c-5.912,0-10.71-4.798-10.71-10.71
	C114.313,268.787,128.578,254.522,146.099,254.522z"/>
<path style="fill:#C85E4C;" d="M32.803,321.928v15.432c0,2.238-1.81,4.048-4.048,4.048h-3.288c-2.228,0-4.048-1.81-4.048-4.048
	v-15.432c0-2.228,1.821-4.048,4.048-4.048h3.288C30.993,317.88,32.803,319.7,32.803,321.928z"/>
<g>
</g>
<g>
</g>
<g>
</g>
<g>
</g>
<g>
</g>
<g>
</g>
<g>
</g>
<g>
</g>
<g>
</g>
<g>
</g>
<g>
</g>
<g>
</g>
<g>
</g>
<g>
</g>
<g>
</g>
</svg>
