<?xml version="1.0" encoding="UTF-8" standalone="no"?>
<svg width="360px" height="263px" viewBox="0 0 360 263" version="1.1" xmlns="http://www.w3.org/2000/svg" xmlns:xlink="http://www.w3.org/1999/xlink">
    <!-- Generator: Sketch 39.1 (31720) - http://www.bohemiancoding.com/sketch -->
    <title>Slice 1</title>
    <desc>Created with Sketch.</desc>
    <defs>
        <radialGradient cx="49.999956%" cy="50.0000094%" fx="49.999956%" fy="50.0000094%" r="44.7252175%" id="radialGradient-1">
            <stop stop-color="#CA9E64" offset="0%"></stop>
            <stop stop-color="#7C4D25" offset="100%"></stop>
        </radialGradient>
    </defs>
    <g id="Page-1" stroke="none" stroke-width="1" fill="none" fill-rule="evenodd">
        <g id="24">
            <g id="Group">
                <g transform="translate(0.000000, 45.000000)" id="Shape">
                    <path d="M45.8369,78.2109 C45.5166,117.9316 39.3667,81.0811 39.3667,81.0811 C39.3667,81.0811 37.0967,38.2412 25.3467,19.6108 C16.8369,23.3711 7.3066,21.3311 3.0469,14.3911 C1.2969,11.541 0.6768,8.2612 1.0767,4.981 C9.477,2.2813 23.4268,-0.8389 37.4971,2.0811 C37.0366,7.7412 34.0967,14.0313 30.2768,17.9111 C37.917,31.771 46.0469,51.311 45.8369,78.2109 L45.8369,78.2109 Z" fill="#CBBB9D"></path>
                    <path d="M46.916,78.2207 C46.8931,81.1582 46.8491,84.1206 46.7163,87.0747 C46.6489,88.5542 46.5625,90.0356 46.4243,91.5264 C46.354,92.2725 46.2734,93.0195 46.1567,93.7778 C46.0356,94.5396 45.9092,95.293 45.625,96.1328 C45.5405,96.3521 45.458,96.5703 45.3047,96.8296 C45.2451,96.9463 45.1074,97.1172 44.9927,97.251 C44.8071,97.4224 44.623,97.5918 44.2402,97.7002 C43.897,97.8003 43.4639,97.7295 43.2319,97.6055 C43.0762,97.5396 43.0073,97.4814 42.918,97.4175 C42.833,97.3545 42.7402,97.2803 42.6948,97.2275 C42.4541,96.9854 42.313,96.7715 42.1929,96.5728 C41.7256,95.7759 41.4785,95.061 41.2212,94.3281 C40.7314,92.874 40.3589,91.4316 40.0088,89.9834 C39.3203,87.0864 38.7505,84.1963 38.2402,81.269 L38.2305,81.2139 L38.2261,81.1416 C38.0693,78.5332 37.8535,75.8936 37.606,73.2729 C37.3579,70.6484 37.0742,68.0264 36.749,65.4106 C36.5771,64.104 36.4311,62.7935 36.2383,61.4902 L35.6719,57.5776 L35.0259,53.6797 C34.8247,52.3774 34.5518,51.0903 34.3115,49.7959 C34.0669,48.5024 33.8247,47.2085 33.5259,45.9287 L32.6797,42.0762 L31.7368,38.2505 C31.4443,36.9678 31.0215,35.7275 30.6704,34.4629 L30.1255,32.5718 L29.5024,30.7104 L28.8755,28.8481 L28.562,27.916 L28.187,27.0117 C27.6689,25.8154 27.2251,24.5776 26.687,23.3877 L24.9277,19.8848 L24.9238,19.8774 L25.5488,20.0684 C24.8555,20.3276 24.1836,20.647 23.4717,20.855 C22.7661,21.082 22.0581,21.2998 21.3296,21.4429 C20.6113,21.6313 19.8721,21.7119 19.1387,21.8237 C18.4018,21.894 17.6597,21.96 16.9175,21.9595 C16.1743,21.958 15.4316,21.9434 14.6924,21.8486 C13.9482,21.8057 13.2222,21.6216 12.4883,21.5 C11.7729,21.291 11.0395,21.1401 10.3491,20.8496 C9.6396,20.6133 8.9717,20.2749 8.3008,19.9453 C7.9668,19.7778 7.6577,19.563 7.335,19.3735 C7.0093,19.188 6.6997,18.9785 6.4077,18.7417 C6.1138,18.5098 5.8013,18.3003 5.5225,18.0493 L4.7012,17.2803 C4.4185,17.0327 4.1997,16.7231 3.9463,16.4468 C3.6987,16.1646 3.4512,15.8823 3.25,15.5645 L2.6016,14.6187 L2.0742,13.6685 C1.7466,12.9966 1.4282,12.2842 1.2085,11.5752 C1.0747,11.2236 0.9912,10.8579 0.9014,10.4937 C0.8008,10.1318 0.7256,9.7651 0.6763,9.3931 C0.54,8.6558 0.4917,7.9053 0.4712,7.1587 C0.4517,6.4097 0.5088,5.6646 0.5806,4.9204 L0.6118,4.5942 L0.9238,4.5049 C2.4111,4.0796 3.8755,3.5732 5.3813,3.2148 L7.6304,2.6416 C8.376,2.4331 9.1421,2.313 9.8975,2.147 L12.1719,1.6812 C12.9311,1.5317 13.7012,1.4424 14.4653,1.3203 L16.7622,0.9775 C17.5283,0.8691 18.3037,0.832 19.0742,0.7559 L21.3892,0.5552 C22.1592,0.4619 22.9375,0.5063 23.7114,0.4761 L26.0361,0.439 C26.8115,0.4038 27.5854,0.4453 28.3594,0.5059 L30.6816,0.6553 C31.4541,0.7183 32.2334,0.7178 32.9971,0.8701 L37.5986,1.5913 L38.0571,1.6636 L37.9956,2.1216 L37.6919,4.3652 L37.1826,6.5645 L36.4922,8.7095 L35.6348,10.7915 C35.3076,11.4663 34.9595,12.1318 34.6221,12.8018 C34.2505,13.4541 33.8442,14.0869 33.456,14.73 C33.2573,15.0488 33.0176,15.3413 32.8003,15.6479 L32.1313,16.5576 C31.6494,17.1372 31.1343,17.6914 30.6357,18.2588 L30.6333,18.2622 L30.7148,17.6699 L32.727,21.0762 L33.7261,22.7871 C34.0464,23.3643 34.3281,23.9619 34.6313,24.5483 L36.4219,28.0879 C37.0591,29.251 37.4956,30.5049 38.0322,31.7144 L39.5752,35.3755 C40.0386,36.6157 40.4668,37.8706 40.8989,39.1235 L42.1655,42.8931 L43.1811,46.7393 L44.1816,50.5894 L44.8935,54.5029 L45.5957,58.4175 C45.8496,59.7192 45.8979,61.0498 46.0591,62.3643 L46.4614,66.3184 L46.6621,68.2949 L46.7192,70.2803 L46.916,78.2207 L46.916,78.2207 Z M44.7578,78.2012 L44.4785,70.4019 L44.4023,68.4531 L44.1831,66.5156 L43.7461,62.6411 C43.5737,61.3535 43.5146,60.0498 43.2505,58.7769 L42.5293,54.9473 L41.8022,51.1206 L40.8276,47.3496 L39.8682,43.5732 L38.6592,39.8696 C38.2515,38.6362 37.8916,37.3857 37.4717,36.1558 L36.0752,32.5127 C35.5908,31.3057 35.1846,30.0654 34.6455,28.8789 L33.102,25.2856 C32.0957,22.8765 30.897,20.5532 29.8389,18.1528 L29.6826,17.7983 L29.9204,17.5601 L29.9233,17.5571 C30.397,17.0146 30.8887,16.4878 31.3496,15.9341 L31.9912,15.0601 C32.2002,14.7651 32.4307,14.4858 32.6221,14.1782 C32.9951,13.5576 33.3877,12.9482 33.7466,12.3193 C34.0713,11.6709 34.4082,11.0288 34.7246,10.3765 L35.5532,8.3652 L36.2192,6.2964 L36.709,4.1836 L36.9985,2.0405 L37.3955,2.5708 L32.8765,1.8628 C32.1274,1.7124 31.3599,1.7139 30.6001,1.6523 L28.3159,1.5049 C27.5552,1.4448 26.7935,1.4033 26.0293,1.439 L23.7388,1.4756 C22.9761,1.5054 22.2104,1.4604 21.4502,1.5532 L19.1665,1.7515 C18.4062,1.8267 17.6416,1.8628 16.8852,1.9702 L14.6167,2.3091 C13.8618,2.4297 13.1016,2.5171 12.3511,2.6646 L10.1035,3.1255 C9.3569,3.29 8.5996,3.4077 7.8623,3.6143 L5.6382,4.1812 C4.1494,4.5352 2.7007,5.0366 1.23,5.457 L1.5727,5.0415 C1.5068,5.7407 1.4526,6.4399 1.4707,7.1416 C1.4907,7.8403 1.5347,8.542 1.6626,9.23 C1.708,9.5771 1.7783,9.9194 1.8726,10.2563 C1.9565,10.5957 2.0332,10.937 2.1592,11.2637 C2.3696,11.9399 2.6455,12.5522 2.9487,13.1836 L3.4761,14.1338 L4.0596,14.978 C4.2456,15.2749 4.477,15.5366 4.708,15.7988 C4.9448,16.0552 5.1455,16.3452 5.4101,16.5752 L6.1753,17.2915 C6.4341,17.5259 6.7275,17.7202 7.0015,17.937 C7.2729,18.1587 7.5625,18.3545 7.8677,18.5273 C8.1699,18.7041 8.4575,18.9063 8.771,19.0625 C9.4014,19.3701 10.0259,19.6899 10.6948,19.9111 C11.3428,20.1865 12.0371,20.3257 12.7109,20.5249 C13.4058,20.6377 14.0908,20.8149 14.7969,20.8545 C15.4976,20.9448 16.2031,20.9575 16.9092,20.9595 C17.6143,20.96 18.3213,20.897 19.0229,20.8301 C19.7217,20.7227 20.4263,20.6479 21.1123,20.4668 C21.8076,20.3311 22.4839,20.1221 23.1582,19.9053 C23.8389,19.708 24.481,19.3999 25.1445,19.1533 L25.5742,18.9941 L25.7695,19.3442 L25.7739,19.3516 L27.8774,22.7871 C28.5195,23.9639 29.0771,25.1821 29.6582,26.3926 L30.0893,27.3027 L30.4575,28.2354 L31.1929,30.1025 L31.9253,31.9736 L32.5415,33.8794 C32.9307,35.1558 33.3931,36.416 33.7212,37.7075 L34.7739,41.5688 C35.1064,42.8599 35.3804,44.1636 35.6753,45.4629 C35.9819,46.7603 36.2305,48.0679 36.481,49.375 C36.7275,50.6826 37.0068,51.9854 37.2134,53.2993 L37.8755,57.2344 L38.458,61.1802 C38.6558,62.4946 38.8066,63.8154 38.9829,65.1328 C39.3184,67.7695 39.6108,70.4111 39.8677,73.0571 C40.1206,75.7065 40.3569,78.3433 40.5068,81.0205 L40.4932,80.8931 C40.9814,83.7573 41.5391,86.6387 42.2002,89.4619 C42.5351,90.8711 42.8955,92.2778 43.3398,93.6108 C43.5596,94.2646 43.8169,94.9414 44.0957,95.4126 C44.1606,95.5303 44.2358,95.6177 44.2534,95.6367 C44.2656,95.6563 44.251,95.6323 44.2388,95.625 C44.2231,95.6157 44.2226,95.6206 44.1572,95.5811 C44.0879,95.5405 43.8491,95.4946 43.6802,95.5469 C43.4819,95.6123 43.4346,95.6563 43.3901,95.709 C43.3828,95.6953 43.3774,95.7329 43.3994,95.6846 C43.4355,95.6279 43.4868,95.5029 43.5356,95.3804 C43.7261,94.8281 43.8618,94.1289 43.9692,93.4404 C44.0791,92.7471 44.1587,92.0327 44.229,91.3164 C44.3672,89.8813 44.458,88.4287 44.5288,86.9727 C44.6704,84.0562 44.7246,81.1406 44.7578,78.2012 L44.7578,78.2012 Z" fill="#000000"></path>
                </g>
                <ellipse id="Oval" fill="#FFFFFF" transform="translate(14.356450, 51.986407) rotate(-5.019622) translate(-14.356450, -51.986407) " cx="14.3560024" cy="51.9861352" rx="12.6565" ry="7.6899"></ellipse>
                <ellipse id="Oval" fill="#000000" transform="translate(10.121162, 50.983331) rotate(-5.019622) translate(-10.121162, -50.983331) " cx="10.1209304" cy="50.9831901" rx="6.5544" ry="3.9828"></ellipse>
                <g transform="translate(0.000000, 32.000000)" id="Shape">
                    <path d="M37.4971,15.0811 C23.4268,12.1611 9.477,15.2813 1.0767,17.981 C1.7168,12.4312 5.2368,6.8711 10.9668,3.3511 C20.0566,-2.229 31.2568,-0.519 35.977,7.1709 C37.3066,9.3413 37.7471,12.1211 37.4971,15.0811 L37.4971,15.0811 Z" fill="#673B15"></path>
                    <path d="M37.4194,15.5752 C35.8501,15.6504 34.3027,15.5835 32.7583,15.4995 C31.9824,15.4004 31.2388,15.4785 30.4902,15.4585 C29.7446,15.4434 29.0005,15.4443 28.2598,15.4141 L27.1494,15.3594 C26.7778,15.3501 26.3979,15.3779 26.0225,15.3853 L23.7642,15.4072 C23.0117,15.4312 22.2573,15.3804 21.5059,15.4673 L19.248,15.6323 C18.4956,15.6909 17.7383,15.7095 16.9878,15.7998 L14.7349,16.0791 C13.9834,16.1724 13.2256,16.2319 12.4766,16.3521 L10.2285,16.7192 C9.4795,16.8462 8.7187,16.9263 7.977,17.0957 L5.7305,17.5273 C4.2236,17.791 2.7446,18.1733 1.23,18.457 L0.394,18.6133 L0.5801,17.9233 L0.5801,17.9229 C0.7329,17.3535 0.8804,16.7886 1.0142,16.2246 C1.123,15.6543 1.3979,15.1294 1.581,14.5845 L1.873,13.7729 L2.2519,12.998 C2.52,12.4907 2.7207,11.9507 3.043,11.4756 C3.3481,10.9912 3.6655,10.5166 3.959,10.0293 C4.2744,9.5562 4.6489,9.1235 4.9907,8.6694 C5.167,8.4468 5.335,8.2173 5.5185,8.001 L6.1035,7.3813 C6.5029,6.978 6.8638,6.5352 7.2935,6.1641 C8.1592,5.4302 8.9844,4.645 9.9497,4.0381 C10.8603,3.3555 11.8618,2.812 12.8643,2.2827 L14.4175,1.5767 L16.0244,1.0039 C17.1128,0.6772 18.2183,0.3975 19.3462,0.2383 C20.4707,0.0728 21.6118,-0.0156 22.7505,0.021 C23.3213,0.0059 23.8872,0.0757 24.4556,0.1265 C25.0268,0.1567 25.5859,0.2715 26.1475,0.3794 C26.7143,0.4629 27.2607,0.6318 27.8096,0.7939 C28.3672,0.9316 28.8931,1.1597 29.4243,1.3755 C30.4844,1.8081 31.4927,2.3765 32.4272,3.0464 C33.3672,3.7104 34.2163,4.5015 34.9751,5.373 C35.7143,6.25 36.4214,7.1978 36.8945,8.2603 C37.8882,10.4224 38.0918,12.8037 37.9951,15.123 L37.9775,15.5483 L37.4194,15.5752 L37.4194,15.5752 Z M37.0386,14.4243 C37.1074,13.5264 37.1343,12.625 37.0513,11.7295 C36.9604,10.6328 36.6968,9.5391 36.2993,8.5371 C35.895,7.5029 35.2656,6.5806 34.5879,5.6963 C33.8818,4.8345 33.0791,4.0469 32.1841,3.3765 C31.2935,2.7007 30.3247,2.1182 29.2974,1.666 C28.7822,1.4409 28.272,1.2017 27.7275,1.0522 C27.1919,0.8779 26.6572,0.6963 26.1006,0.5986 C25.5498,0.4771 24.999,0.3486 24.4351,0.3032 C23.8745,0.2344 23.313,0.1563 22.7466,0.1689 C21.6167,0.1226 20.4824,0.2002 19.3633,0.3545 C18.2397,0.5024 17.1377,0.771 16.0503,1.0869 L14.4438,1.6431 L12.8906,2.332 C11.8833,2.8525 10.8789,3.3857 9.9639,4.0591 C8.998,4.6611 8.1538,5.4238 7.2988,6.1699 C6.8745,6.5464 6.519,6.9937 6.126,7.4019 L5.5503,8.0278 C5.3711,8.2471 5.2158,8.4858 5.0478,8.7139 C4.7251,9.1797 4.3706,9.623 4.0762,10.1055 C3.7949,10.5972 3.5376,11.1016 3.2681,11.5962 C2.9878,12.0859 2.831,12.6362 2.6079,13.1504 L2.2969,13.9321 L2.0854,14.7471 C1.7744,15.8257 1.6616,16.9399 1.5737,18.0376 L1.5732,18.0381 L0.9238,17.5049 C2.3672,16.9429 3.8013,16.3174 5.2895,15.8687 L7.5156,15.1602 C8.2563,14.9146 9.0195,14.7568 9.7729,14.5532 L12.0464,13.9937 C12.8071,13.8169 13.5801,13.6997 14.3472,13.5498 L16.6597,13.1479 C17.4316,13.0225 18.2148,12.9683 18.9927,12.875 L21.3335,12.6416 C22.1123,12.542 22.9018,12.5806 23.686,12.5449 L26.043,12.4927 C26.4365,12.4976 26.8267,12.4814 27.2231,12.5034 L28.416,12.5967 C29.2109,12.6655 30.0019,12.7651 30.7915,12.8491 C31.5757,12.9531 32.3789,13.0298 33.1152,13.2334 C34.4331,13.5786 35.7388,13.9668 37.0386,14.4243 L37.0386,14.4243 Z" fill="#000000"></path>
                </g>
                <g transform="translate(8.000000, 108.000000)" id="Shape">
                    <path d="M40.4062,59.9414 C40.4062,59.9414 33.1875,81.4004 21.9873,86.2002 C10.7871,91 -10.6699,46.0654 11.5874,26.2002 C38.1269,2.5127 57.9868,-4.2002 78.7871,5.3999 C99.5874,15 92.3867,61.4004 105.187,71 C117.9873,80.5996 149.25,98.4063 192.2925,96.5654 C242.9028,94.4004 255.647,97.6211 278.9468,100.6982 C300.5708,103.5537 322.7349,102.1963 350.2632,99.3809 C327.7407,120.3398 296.146,137.8564 256.106,139.1084 C183.2143,141.3877 154.4419,154.5049 114.7871,153.4004 C95.561,152.8652 65.0078,148.5947 49.9873,118.2002 C38.1269,94.2002 32.7529,75.7578 32.7529,75.7578" fill="#CBBB9D"></path>
                    <path d="M40.8789,60.1035 C39.2969,65.1572 37.1802,70.0215 34.5107,74.6279 C33.2134,76.9521 31.6411,79.1338 29.9043,81.1934 C28.186,83.2637 26.0972,85.1064 23.666,86.4805 L22.7378,86.9766 L22.5054,87.0996 C22.439,87.1299 22.4897,87.1172 22.3267,87.1836 L22.2109,87.2246 C22.0469,87.2793 21.9238,87.335 21.7256,87.3887 C20.8276,87.6445 20.0806,87.625 19.2905,87.5137 C17.7436,87.2656 16.4321,86.542 15.2939,85.7207 C13.0102,84.0488 11.2842,81.9121 9.7524,79.6992 C6.7339,75.2285 4.6035,70.2744 3.0967,65.1592 C1.6108,60.0381 0.7861,54.7021 0.8877,49.335 C0.9922,43.9863 2.0737,38.5566 4.563,33.7173 C5.7949,31.3013 7.3818,29.0552 9.2593,27.0928 C10.1772,26.0991 11.2373,25.1987 12.2134,24.3564 L15.1885,21.7842 C19.2441,18.4116 23.3784,15.1035 27.7866,12.1831 C29.9438,10.6543 32.2495,9.3374 34.52,7.9756 L38.0405,6.1152 C39.2158,5.498 40.459,5.0093 41.665,4.4512 C46.5552,2.3687 51.7578,0.874 57.1084,0.4302 C62.4521,-0.0332 67.8852,0.6128 72.9878,2.2104 L74.9009,2.8169 C75.5381,3.02 76.1396,3.313 76.7612,3.5566 L78.6108,4.3232 L79.0732,4.5151 C79.3315,4.625 79.3931,4.6797 79.563,4.7646 L80.4287,5.231 C81.0039,5.5044 81.5864,5.9268 82.1645,6.3369 C82.4497,6.5435 82.7515,6.7383 83.021,6.9565 L83.791,7.6416 L84.5591,8.3286 L85.2529,9.0845 C85.7163,9.5879 86.1816,10.0903 86.5698,10.6489 C89.9072,14.9912 91.7217,20.1328 93.1621,25.2129 C94.5454,30.335 95.4658,35.5332 96.3169,40.7148 C97.1694,45.8945 97.9268,51.0801 99.0532,56.1514 C99.6167,58.6836 100.2832,61.1914 101.2134,63.5674 C102.1348,65.9307 103.3491,68.2168 105.1533,69.8096 C105.3823,70.002 105.5918,70.2188 105.8345,70.3936 L106.6309,70.9697 L108.2241,72.123 L111.4502,74.291 L114.7622,76.3584 L118.145,78.3115 C122.6997,80.8418 127.4038,83.0967 132.2031,85.1309 C141.8462,89.0879 151.9097,92.0293 162.1802,93.8311 C172.4634,95.626 182.9136,96.1582 193.3628,95.7314 L209.0864,95.2246 C214.3384,95.1709 219.5952,95.1035 224.8481,95.1104 C235.354,95.2422 245.8726,95.7402 256.3208,96.9561 C258.9263,97.29 261.5405,97.5811 264.1382,97.9492 L271.9311,99.0479 C274.52,99.4014 277.1323,99.7979 279.7026,100.1172 C282.3081,100.3975 284.9155,100.708 287.521,100.9619 C297.9087,101.8652 308.4165,101.8027 318.8657,101.3203 C329.3257,100.8262 339.77,99.9111 350.2017,98.8848 L350.2124,98.8828 L351.6587,98.6768 L350.604,99.7471 C345.1655,105.2666 339.2456,110.3398 332.9311,114.8877 C331.3608,116.0361 329.7212,117.0859 328.1177,118.1914 C326.5102,119.2891 324.8198,120.2607 323.1724,121.3018 C321.5288,122.3516 319.7817,123.2217 318.0874,124.1846 C316.397,125.1582 314.6352,125.9951 312.8882,126.8643 C305.8657,130.2598 298.561,133.0879 291.0591,135.2549 C283.5571,137.4287 275.8589,138.8809 268.1118,139.7793 L265.2026,140.0918 C264.2329,140.207 263.2622,140.2979 262.2876,140.334 L256.4448,140.6592 L244.8921,141.1299 C237.2007,141.5166 229.5415,142.0127 221.8677,142.6895 C218.0308,142.9883 214.2095,143.4453 210.3794,143.8154 C206.5532,144.2285 202.7349,144.7178 198.9136,145.1758 C191.2817,146.1973 183.6606,147.29 176.0464,148.5166 C168.4292,149.7168 160.813,150.9775 153.145,152.0459 C145.48,153.1064 137.772,154.0371 130.0098,154.4463 C126.1284,154.5957 122.2436,154.7783 118.3564,154.6777 C114.459,154.6904 110.6055,154.4795 106.6987,154.1543 C98.9517,153.3906 91.186,152.0352 83.8227,149.3174 C76.4624,146.6553 69.4761,142.7783 63.5727,137.584 C57.647,132.4209 52.8794,125.9912 49.4658,118.9668 C48.5835,117.2119 47.8144,115.4688 46.9834,113.7197 C46.1821,111.9619 45.3164,110.2441 44.5698,108.4531 C43.0317,104.8984 41.4624,101.3574 40.0561,97.7568 C37.1719,90.5791 34.5093,83.3232 32.2729,75.8975 L33.2329,75.6182 C35.5522,82.9404 38.314,90.1533 41.2856,97.2529 C42.7378,100.8213 44.3467,104.3145 45.9224,107.8213 C46.6851,109.582 47.5815,111.3008 48.4058,113.043 C49.2544,114.7656 50.0713,116.5439 50.9463,118.2227 C54.375,125.0293 59.0845,131.1826 64.8745,136.084 C70.6548,141.001 77.4145,144.6826 84.5703,147.2148 C91.728,149.7939 99.313,151.0586 106.9072,151.7471 C110.6924,152.0322 114.5522,152.2139 118.3735,152.1689 C122.2041,152.2383 126.0332,152.0264 129.8594,151.8496 C137.5122,151.3848 145.1348,150.4033 152.7466,149.2881 C160.3569,148.1641 167.9585,146.8359 175.5874,145.6299 C183.2075,144.3818 190.8628,143.2637 198.5268,142.2168 C202.3657,141.7461 206.2026,141.2441 210.0483,140.8193 C213.8979,140.4365 217.7397,139.9678 221.5962,139.6572 C229.2964,138.9561 237.0395,138.4346 244.7622,138.0264 L256.3413,137.5244 L262.0561,137.1914 C263.0102,137.1533 263.9595,137.0625 264.9067,136.9453 L267.7505,136.6318 C275.3237,135.7334 282.8413,134.2969 290.1645,132.1533 C297.478,129.9912 304.6323,127.292 311.5337,124.0332 C313.2593,123.2188 315.0024,122.4365 316.6763,121.5166 C318.355,120.6074 320.0864,119.791 321.7183,118.7959 C323.3657,117.8311 325.0591,116.9355 326.6733,115.9121 C328.2876,114.8877 329.9233,113.8926 331.5229,112.8418 C337.9292,108.6475 344.062,104.0107 349.9224,99.0146 L350.314,99.8789 L350.3042,99.8789 C339.8677,100.9541 329.4116,101.917 318.9204,102.46 C308.4282,102.9902 297.9097,103.1045 287.3862,102.2373 C284.7729,101.9941 282.1694,101.6953 279.561,101.4268 C276.9263,101.1113 274.3511,100.7324 271.7436,100.3877 L263.9526,99.3252 C261.3569,98.9688 258.7573,98.6914 256.1597,98.3701 C245.7622,97.2002 235.3032,96.7744 224.8364,96.6592 C219.603,96.6602 214.3716,96.7354 209.1372,96.7969 L193.4136,97.3281 C182.9087,97.7744 172.2954,97.2529 161.9014,95.4531 C151.5073,93.6465 141.3198,90.6865 131.5532,86.6963 C126.6924,84.6445 121.9263,82.3691 117.3071,79.8125 L113.8745,77.8379 L110.5107,75.7451 L107.2056,73.5303 L105.6108,72.3799 L104.8135,71.8047 C104.5234,71.5967 104.27,71.3447 103.998,71.1152 C101.8525,69.209 100.563,66.6982 99.5796,64.209 C98.5942,61.7002 97.9087,59.1221 97.3286,56.54 C96.1733,51.3721 95.4077,46.1709 94.5488,41.0059 C93.6934,35.8428 92.771,30.6997 91.4106,25.6934 C90.0019,20.7334 88.2143,15.7808 85.1128,11.7734 C84.7519,11.252 84.3227,10.7949 83.8975,10.334 L83.2622,9.6406 L82.562,9.02 L81.8633,8.397 C81.624,8.2041 81.3706,8.0459 81.1255,7.8672 C80.6348,7.5186 80.1641,7.1553 79.5508,6.8628 L78.6846,6.3975 C78.5615,6.3359 78.3481,6.2065 78.2993,6.2012 L77.853,6.0171 L76.0679,5.2813 C75.4692,5.0474 74.8872,4.7637 74.2749,4.5703 L72.4375,3.9927 C67.5371,2.4678 62.3696,1.8638 57.2666,2.3125 C52.1587,2.7441 47.1592,4.1826 42.4175,6.2104 C41.2461,6.7559 40.0425,7.2285 38.8975,7.833 L35.4663,9.6528 C33.2451,10.9917 30.9912,12.2803 28.8701,13.7896 C24.5361,16.6704 20.4722,19.9331 16.4722,23.2681 L13.501,25.8452 C12.4946,26.7168 11.5522,27.5186 10.6899,28.4536 C8.9468,30.2813 7.4761,32.3677 6.3306,34.6235 C4.0166,39.1377 2.9893,44.2617 2.8979,49.374 C2.8081,54.5 3.6069,59.6475 5.0498,64.5889 C6.5083,69.5205 8.5874,74.3125 11.4526,78.5371 C12.8935,80.623 14.5391,82.6143 16.5059,84.041 C17.4795,84.749 18.5527,85.2998 19.6069,85.46 C20.1074,85.5469 20.7031,85.5186 21.0698,85.4141 C21.1894,85.3867 21.3691,85.3125 21.5156,85.2637 L21.6313,85.2227 C21.543,85.2549 21.665,85.2002 21.6714,85.1943 L21.8735,85.0879 L22.6836,84.6641 C24.8184,83.4893 26.7729,81.8408 28.4194,79.8965 C30.082,77.9707 31.604,75.8906 32.9658,73.6943 C34.3359,71.5049 35.5937,69.2314 36.7373,66.8965 C37.9048,64.5752 38.9653,62.1875 39.9336,59.7793 L40.8789,60.1035 L40.8789,60.1035 Z" fill="#000000"></path>
                </g>
                <g transform="translate(5.000000, 14.000000)" id="Shape">
                    <path d="M55.8174,110.2002 C56.0771,99.1602 56.3271,70.98 52.5771,60.3501 C46.8774,44.1802 34.2871,25.0698 25.0571,25.5098 C14.3672,27.5801 4.5474,24.2002 1.5273,16.71 C0.477,14.1001 0.3574,11.27 1.0474,8.4502 C12.0273,4.6899 32.687,-1.0098 49.5073,2.3198 L49.5073,2.4902 C49.5073,4.8901 48.8672,7.3501 47.687,9.7402 C46.9473,11.2402 45.9971,12.71 44.8472,14.1099 C42.9673,17.5 41.0474,22.2598 42.2173,26.1099 C44.2871,32.8999 47.4072,32.73 55.667,51.5298 C63.897,70.27 65.5771,83.8599 65.5474,109.5" fill="#CBBB9D"></path>
                    <path d="M55.8174,110.2002 C55.7412,106.1831 55.6938,102.1694 55.5605,98.1587 C55.4243,94.1479 55.3218,90.1396 55.0923,86.1392 C54.8818,82.1377 54.5581,78.1465 54.1797,74.1733 C53.9805,72.1875 53.7397,70.208 53.4321,68.2461 C53.1221,66.2866 52.7563,64.335 52.231,62.4585 C51.7148,60.6118 50.9526,58.7485 50.2041,56.918 C49.4316,55.0889 48.626,53.2729 47.7666,51.4819 C46.0405,47.9033 44.1089,44.4204 41.9497,41.0947 C39.7861,37.7773 37.4004,34.5903 34.6475,31.8101 C33.2685,30.4302 31.7856,29.1592 30.186,28.1455 C28.5967,27.1406 26.8247,26.4087 25.103,26.4683 L25.2393,26.4517 C22.2446,27.001 19.1694,27.1782 16.124,26.8594 C13.0893,26.5283 10.0483,25.7344 7.352,24.1812 C4.665,22.6538 2.3393,20.3164 1.1108,17.4258 C1.0332,17.2354 0.9629,17.0908 0.8804,16.8618 L0.7026,16.3354 C0.5757,15.9995 0.4824,15.6021 0.3872,15.2148 C0.2007,14.4409 0.1006,13.6802 0.0576,12.9033 C0.0185,12.1294 0.0537,11.3564 0.1323,10.5913 L0.3052,9.4526 L0.561,8.3335 L0.5615,8.3315 L0.6167,8.0688 L0.8852,7.9771 C8.6938,5.3159 16.7041,3.2036 24.8711,1.9312 C28.9536,1.2993 33.0796,0.9019 37.2202,0.8301 C39.29,0.7959 41.3633,0.8467 43.4316,1.0039 C44.4658,1.082 45.4976,1.1934 46.5273,1.3247 C47.5561,1.4634 48.5806,1.6353 49.602,1.8291 L49.6045,1.8291 L50.0039,1.8872 L50.0073,2.3198 L50.0142,3.145 C50.0225,3.4082 49.9946,3.7002 49.978,3.9834 C49.9438,4.5566 49.8706,5.103 49.7681,5.6563 C49.5635,6.7563 49.2505,7.8364 48.8384,8.874 C48.7461,9.1382 48.6265,9.3901 48.5176,9.647 C48.417,9.8896 48.2827,10.1821 48.1616,10.4136 C47.9287,10.8945 47.6826,11.3779 47.3848,11.873 C47.1103,12.376 46.7964,12.8311 46.4917,13.2998 C46.1865,13.7671 45.8389,14.2031 45.5063,14.6514 L45.5933,14.5239 C44.6343,16.3315 43.8159,18.2163 43.3188,20.1479 C42.8271,22.0674 42.666,24.0737 43.2226,25.8042 C43.3823,26.2266 43.5576,26.8086 43.7456,27.229 C43.9253,27.6719 44.1118,28.1187 44.3393,28.5625 C44.7773,29.4497 45.2905,30.3037 45.8623,31.166 C46.9985,32.8833 48.2178,34.6499 49.3208,36.4663 C50.4302,38.2832 51.4609,40.1421 52.4512,42.0176 L53.8906,44.8501 L55.2422,47.7197 C56.104,49.6348 56.9761,51.5923 57.771,53.5264 C58.187,54.4839 58.5635,55.4854 58.9507,56.4746 C59.3462,57.4629 59.7168,58.4575 60.0601,59.4595 C60.771,61.4561 61.4004,63.4844 61.9805,65.5244 C62.5635,67.5645 63.0649,69.627 63.5161,71.6992 C63.9521,73.7754 64.2988,75.8662 64.6123,77.96 L65.0146,81.1074 L65.3271,84.2617 C65.499,86.3657 65.6543,88.4702 65.7388,90.5757 C65.8545,92.6802 65.8857,94.7856 65.9336,96.8892 C65.9653,98.9927 65.9824,101.0957 65.9233,103.1978 C65.8979,105.2998 65.7485,107.4014 65.5474,109.5 C65.1089,105.3022 65.0205,101.1113 64.8081,96.9268 C64.687,94.8364 64.5825,92.7441 64.3945,90.6616 C64.2378,88.5762 64.0112,86.499 63.7685,84.4263 L63.352,81.3257 L62.8472,78.2422 L62.251,75.1787 C62.0435,74.1602 61.7861,73.1523 61.563,72.1382 C61.0776,70.1187 60.5444,68.1113 59.9311,66.127 C59.3208,64.1426 58.6631,62.1719 57.9243,60.229 C57.5776,59.2485 57.2114,58.2778 56.8193,57.3198 C56.4351,56.3569 56.0684,55.395 55.6416,54.4297 C54.8276,52.4854 53.978,50.6147 53.1055,48.7065 C52.2109,46.8237 51.3174,44.9434 50.3769,43.0898 C49.4258,41.2432 48.4385,39.4189 47.3789,37.6416 C46.3203,35.8579 45.1709,34.1563 44.0098,32.3608 C43.4307,31.4678 42.8677,30.5146 42.3872,29.5142 C42.1431,29.02 41.9224,28.4995 41.7236,27.9634 C41.5088,27.4141 41.4009,26.9824 41.2119,26.415 C40.5571,24.0889 40.8809,21.7485 41.4824,19.645 C42.1016,17.5249 43.0366,15.5615 44.1011,13.6963 L44.1348,13.6372 L44.188,13.5684 C44.5059,13.1572 44.854,12.7681 45.1606,12.3481 C45.4653,11.9277 45.7861,11.5107 46.0498,11.0786 C46.333,10.6646 46.6011,10.2017 46.8633,9.7246 C47.0039,9.4849 47.103,9.292 47.2231,9.0425 C47.3364,8.8091 47.4614,8.5791 47.5591,8.3389 C47.9922,7.394 48.3325,6.4087 48.5742,5.4014 C48.6997,4.9023 48.8076,4.3823 48.8711,3.8833 C48.9028,3.6299 48.9477,3.3867 48.9585,3.1104 L49.0073,2.3198 L49.4101,2.8105 L49.4082,2.8101 C48.4082,2.6206 47.4048,2.4521 46.395,2.3159 C45.3848,2.1875 44.3716,2.0781 43.355,2.001 C41.3218,1.8462 39.2788,1.7964 37.2368,1.8301 C33.1514,1.9004 29.0688,2.293 25.0234,2.9194 C16.9297,4.1802 8.9687,6.2783 1.2095,8.9233 L1.5332,8.5693 L1.5327,8.5708 L1.3393,9.6284 L1.2251,10.6929 C1.1846,11.4043 1.1836,12.1157 1.25,12.8198 C1.3213,13.519 1.4311,14.2305 1.6152,14.8911 C1.7075,15.2207 1.7866,15.5449 1.9321,15.8994 L2.1255,16.4204 L2.332,16.8774 C3.5146,19.4316 5.646,21.4521 8.1362,22.771 C10.6294,24.1079 13.4468,24.8354 16.2969,25.0908 C19.1528,25.3438 22.0522,25.1318 24.8745,24.5679 L24.9409,24.5547 L25.0117,24.5513 C27.3423,24.4458 29.4492,25.3462 31.2466,26.4321 C33.064,27.5347 34.6265,28.9233 36.0893,30.3721 C38.9897,33.3022 41.438,36.582 43.6587,39.9829 C45.8726,43.3916 47.8428,46.9438 49.6055,50.5962 C50.4853,52.4233 51.313,54.2764 52.0552,56.165 C52.7895,58.062 53.5244,59.9355 54.0561,61.9668 C54.5771,63.9673 54.9141,65.9761 55.1958,67.9858 C55.4741,69.9956 55.6816,72.0073 55.8476,74.0195 C56.1963,78.042 56.3125,82.0713 56.3799,86.0938 C56.4321,90.1177 56.4497,94.1382 56.332,98.1567 C56.2163,102.1748 56.0796,106.1904 55.8174,110.2002 L55.8174,110.2002 Z" fill="#000000"></path>
                </g>
                <ellipse id="Oval" fill="#FFFFFF" transform="translate(25.219707, 25.180738) rotate(-5.019622) translate(-25.219707, -25.180738) " cx="25.2190842" cy="25.1803598" rx="17.6122" ry="10.7015"></ellipse>
                <ellipse id="Oval" fill="#000000" transform="translate(19.221596, 23.978271) rotate(-5.019622) translate(-19.221596, -23.978271) " cx="19.2212442" cy="23.9780576" rx="9.9525" ry="6.0473"></ellipse>
                <g transform="translate(5.000000, 0.000000)" id="Shape">
                    <path d="M49.5073,16.3198 C32.687,12.9902 12.0273,18.6899 1.0474,22.4502 C2.7373,15.52 9.2373,8.6099 18.477,4.8999 C31.477,-0.3398 44.957,2.7202 48.5972,11.7402 C49.187,13.21 49.4873,14.75 49.5073,16.3198 L49.5073,16.3198 Z" fill="#7C4D25"></path>
                    <path d="M49.4263,16.8135 C48.3628,16.9453 47.3188,16.9565 46.2739,16.9751 C45.2505,17.0103 44.2554,17.0796 43.2681,17.0732 C42.2744,17.0952 41.2602,17.1484 40.2642,17.145 C39.2651,17.1431 38.2602,17.208 37.2598,17.2056 C36.2588,17.1831 35.2534,17.2666 34.2495,17.2964 C33.2456,17.3213 32.2412,17.418 31.2368,17.4985 C30.2314,17.562 29.23,17.6865 28.2246,17.7915 C27.2192,17.8867 26.2143,17.9976 25.2119,18.144 C24.2085,18.2778 23.2036,18.4067 22.2041,18.5825 C21.2041,18.7495 20.1953,18.8745 19.1968,19.0654 C18.1968,19.2461 17.1914,19.4043 16.1953,19.6152 C15.1997,19.8242 14.1904,19.981 13.1953,20.2031 C11.1992,20.6211 9.1992,21.0479 7.2051,21.5122 L1.2095,22.9233 L0.2495,23.1494 L0.5615,22.3315 L0.562,22.3306 C0.7202,20.9473 1.0488,19.5649 1.5542,18.2461 C2.0757,16.9395 2.6987,15.6533 3.481,14.4766 C4.2256,13.2686 5.1299,12.1758 6.0693,11.1191 C6.5469,10.5981 7.0366,10.085 7.5649,9.6172 C8.0762,9.1274 8.6128,8.6699 9.1616,8.2251 C10.2412,7.3105 11.4316,6.5479 12.623,5.7959 C13.2329,5.4453 13.8418,5.0894 14.4614,4.7554 C15.0933,4.4458 15.7197,4.1221 16.3662,3.8472 L17.3369,3.4351 L17.8789,3.209 L18.352,3.0405 L20.2466,2.3652 C21.6186,1.9712 23.0176,1.5464 24.3926,1.3101 L25.4297,1.1118 L26.48,0.9829 C27.1821,0.9121 27.876,0.7861 28.5854,0.7778 C29.292,0.7544 29.9956,0.6978 30.7026,0.7046 L32.8247,0.7734 L34.939,1.0293 C35.6406,1.1382 36.3359,1.3096 37.0317,1.4492 C38.4145,1.7959 39.7793,2.2354 41.0864,2.8345 C41.7461,3.1108 42.3594,3.5112 42.9922,3.8452 C43.6143,4.2056 44.1841,4.666 44.7754,5.0728 C45.3335,5.5327 45.8623,6.0352 46.3833,6.5317 C46.8389,7.1011 47.3374,7.6289 47.7397,8.23 C48.5449,9.4326 49.1841,10.7476 49.561,12.1172 L49.6968,12.6021 L49.8008,13.1411 C49.8672,13.4995 49.9434,13.8599 49.9575,14.2104 C50.0366,14.9136 50.0259,15.6172 50.0073,16.3135 L49.9961,16.7427 L49.4263,16.8135 L49.4263,16.8135 Z M48.8691,15.5435 C48.8115,15.1709 48.771,14.793 48.6728,14.4302 C48.6147,14.1128 48.4951,13.8291 48.4082,13.5352 L48.2705,13.0986 L48.0757,12.6343 C47.5801,11.4668 46.8999,10.4194 46.1216,9.4614 C45.7285,8.9863 45.2476,8.5835 44.8252,8.1426 C44.3257,7.7725 43.8525,7.3784 43.3481,7.0264 C42.8042,6.7222 42.2993,6.3677 41.7368,6.1025 C41.1597,5.8618 40.6211,5.5576 40.0239,5.3667 C38.852,4.9385 37.6431,4.6069 36.4082,4.3779 C35.7827,4.2935 35.1665,4.1753 34.5391,4.1157 L32.6499,3.9922 L30.751,3.9985 C30.1186,4.0146 29.4853,4.0913 28.8535,4.1328 C28.2202,4.1587 27.5937,4.3008 26.9653,4.3848 L26.0244,4.5322 L25.0933,4.7466 C23.8262,4.9849 22.6621,5.3613 21.4595,5.71 L19.5732,6.4067 L19.102,6.5811 L18.7197,6.7515 L17.8437,7.1353 C16.6865,7.6699 15.5542,8.251 14.4434,8.8721 C13.3476,9.5181 12.2856,10.2158 11.25,10.9507 C10.2021,11.6724 9.2412,12.5024 8.2861,13.3389 C7.8047,13.7544 7.3633,14.209 6.9043,14.6509 C6.4863,15.1245 6.0215,15.5679 5.6201,16.0586 C4.7642,17.0073 4.0444,18.0562 3.3281,19.1235 C2.6543,20.2139 2.0537,21.3555 1.5337,22.5674 L1.5332,22.5684 L0.8852,21.9771 C1.8369,21.5723 2.7778,21.1284 3.7436,20.7559 C4.7051,20.3711 5.6655,19.9761 6.6426,19.6313 C8.5859,18.9067 10.5537,18.2437 12.5425,17.644 C14.5264,17.0244 16.5366,16.4893 18.561,16.0005 C20.5835,15.499 22.6265,15.0737 24.687,14.7275 C25.7134,14.5337 26.7471,14.3755 27.7847,14.2329 C28.8188,14.0698 29.8599,13.9561 30.9058,13.8652 C31.9502,13.7666 32.9927,13.6528 34.0449,13.6113 C35.0962,13.5649 36.1426,13.4639 37.1992,13.4741 C38.2549,13.4868 39.3081,13.458 40.3633,13.5605 C41.4204,13.6646 42.4653,13.7524 43.5205,13.9419 C44.5786,14.1484 45.6333,14.3945 46.6514,14.6714 C47.3979,14.9365 48.1309,15.2314 48.8691,15.5435 L48.8691,15.5435 Z" fill="#000000"></path>
                </g>
                <g transform="translate(43.000000, 164.000000)" id="Shape">
                    <path d="M0.9443,3.1338 C0.9443,3.1338 4.9482,0.8887 9.2212,3.1338" fill="#CBBB9D"></path>
                    <path d="M0.706,2.6943 C0.7056,2.6943 1.1948,2.3379 1.9722,1.9756 C2.7534,1.5996 3.8711,1.2119 5.0757,1.0625 C5.6753,0.9775 6.2925,0.9629 6.8745,0.9922 C7.1685,0.9932 7.4458,1.0459 7.7153,1.0752 C7.9863,1.1016 8.2353,1.1572 8.4663,1.2109 C8.936,1.3027 9.3115,1.4316 9.5757,1.5225 C9.8418,1.6123 9.9936,1.6631 9.9936,1.6631 C10.873,1.9609 11.3452,2.9141 11.0483,3.7939 C10.751,4.6729 9.7974,5.1455 8.918,4.8486 C8.7749,4.7998 8.6431,4.7344 8.5229,4.6543 L8.4487,4.6045 C8.4487,4.6045 8.3569,4.542 8.1968,4.4346 C8.0371,4.3223 7.8071,4.1592 7.5059,4.0098 C7.3579,3.9268 7.1958,3.8359 7.0142,3.7686 C6.8335,3.6973 6.6455,3.5977 6.4375,3.542 C6.0278,3.4043 5.5708,3.2842 5.0967,3.2236 C4.1489,3.0781 3.1406,3.1348 2.396,3.2705 C1.6372,3.4014 1.1831,3.5732 1.1826,3.5732 C0.9224,3.6729 0.6309,3.542 0.5317,3.2813 C0.4492,3.0645 0.5273,2.8252 0.706,2.6943 L0.706,2.6943 Z" fill="#000000"></path>
                </g>
                <g transform="translate(19.000000, 137.000000)" id="Shape">
                    <path d="M6.4663,3.2061 C6.4663,3.2061 1.9917,-0.96 0.9116,4.2861 C-0.1685,9.5322 2.9175,7.0635 3.689,7.0635" fill="#CBBB9D"></path>
                    <path d="M6.4663,3.2061 C6.4663,3.2061 6.2583,3.1309 5.894,2.999 C5.5366,2.8755 5.0425,2.6826 4.4761,2.5469 C4.1982,2.4712 3.8994,2.4175 3.6177,2.4019 C3.3306,2.3779 3.0806,2.4282 2.8716,2.501 C2.6816,2.6118 2.4878,2.7056 2.3252,2.958 C2.2363,3.0659 2.1445,3.1812 2.0845,3.3486 C2.0229,3.5088 1.915,3.6309 1.8755,3.8213 C1.7656,4.1924 1.647,4.4863 1.5679,4.9219 C1.4556,5.3472 1.4165,5.6704 1.3535,6.0195 C1.3144,6.3535 1.3057,6.6973 1.3599,6.8848 C1.4028,7.0801 1.4434,7.165 1.6738,7.2227 C1.8931,7.2852 2.1831,7.2393 2.4219,7.209 C2.6772,7.165 2.8994,7.127 3.0825,7.0947 C3.4629,7.0244 3.689,7.0625 3.689,7.0625 L3.6899,7.0635 C3.6899,7.0645 3.6894,7.0645 3.6894,7.0645 C3.6894,7.0645 3.4868,7.1318 3.1846,7.3564 C3.0283,7.4561 2.8384,7.5869 2.602,7.7236 C2.3525,7.8408 2.0845,8.0049 1.665,8.0557 C1.459,8.0674 1.206,8.0645 0.9526,7.9297 C0.8159,7.8799 0.7178,7.7852 0.6147,7.6846 C0.4995,7.584 0.4253,7.4756 0.3696,7.3633 C0.0981,6.8936 0.0767,6.4453 0.0288,5.9951 C0.0059,5.5552 0.0293,5.0591 0.0786,4.6685 C0.1108,4.2778 0.2197,3.7578 0.3413,3.3164 C0.3818,3.0879 0.5137,2.8491 0.6079,2.6196 C0.6943,2.3877 0.8433,2.1616 1.0137,1.9419 C1.3096,1.4951 1.8433,1.1299 2.3857,0.9644 C2.938,0.8223 3.4722,0.8643 3.894,0.998 C4.3247,1.124 4.6728,1.3164 4.9643,1.5151 C5.5415,1.9268 5.9155,2.3481 6.144,2.6733 C6.3769,2.9922 6.4663,3.2061 6.4663,3.2061 L6.4663,3.2061 Z" fill="#000000"></path>
                </g>
                <g transform="translate(111.000000, 114.000000)" id="Shape">
                    <g>
                        <path d="M101.0142,4.6738 C66.314,-3.1968 31.771,13.5273 15.6216,43.3535 C13.1606,47.8984 12.4726,53.3682 9.5864,57.8613 C8.8022,59.082 5.2305,61.6953 5.2305,61.6953 C3.123,61.1289 1.3711,61.5059 1.0957,64.1211 C0.4268,70.4688 25.4609,78.5205 32.5581,80.6602 C41.5669,83.377 56.8354,93.1182 63.6968,98.9941 C72.3755,106.4258 76.1138,113.5947 88.4058,116.3828 C115.1528,122.4492 141.7524,105.6855 147.8188,78.9395 C155.4008,45.5059 134.4458,12.2568 101.0142,4.6738 L101.0142,4.6738 Z" fill="url(#radialGradient-1)"></path>
                        <path d="M100.6271,6.7887 L96.8676,6.1191 L94.9879,5.7843 C94.6756,5.7315 94.3591,5.666 94.0503,5.6237 L93.1391,5.5425 L89.4973,5.2105 C88.8885,5.1636 88.2889,5.0762 87.6729,5.0613 L85.8183,5.0466 L82.1106,5.013 C80.876,5.0353 79.6451,5.1789 78.4126,5.2544 L76.5647,5.3907 C75.9476,5.425 75.3328,5.4805 74.7248,5.5961 L71.0628,6.1618 C70.4543,6.265 69.8369,6.3222 69.2355,6.4625 L67.4327,6.89 L63.8261,7.7408 C62.6411,8.0868 61.4744,8.4973 60.2943,8.8618 C59.121,9.2469 57.9175,9.5512 56.7879,10.0586 C54.5034,11.0005 52.1684,11.8376 49.992,13.0243 C48.8892,13.5844 47.7693,14.1151 46.6779,14.6979 L43.4814,16.5913 L41.8802,17.5377 C41.358,17.8709 40.8634,18.2455 40.3532,18.5974 L37.3095,20.7406 C36.2933,21.4547 35.3846,22.3058 34.4149,23.0817 L32.9805,24.2723 C32.4978,24.6647 32.0189,25.0615 31.5879,25.51 L28.9176,28.1153 C28.4803,28.5573 28.0071,28.9669 27.5985,29.4358 L26.372,30.8429 L23.8952,33.6444 C23.1229,34.6213 22.3919,35.6321 21.636,36.6257 C20.0593,38.572 18.8088,40.7384 17.4591,42.8477 C16.7589,43.902 16.1818,44.9657 15.6974,46.0633 C15.1969,47.1799 14.758,48.3481 14.3102,49.5323 C13.4222,51.9003 12.557,54.3727 11.2621,56.6875 C10.9281,57.2787 10.6091,57.7982 10.1863,58.4073 C9.7245,58.9998 9.1989,59.4476 8.7024,59.8618 C7.6857,60.6939 6.6481,61.4394 5.5792,62.1719 L5.3348,62.3393 L5.0772,62.2656 L5.0725,62.2642 C4.378,62.2033 3.6973,62.2075 3.2018,62.3767 C2.7045,62.5428 2.4835,62.8195 2.293,63.2859 C2.1174,63.7602 2.0214,64.4707 2.1824,64.8663 C2.3027,65.2445 2.6271,65.8498 3.0789,66.3065 C3.9447,67.2885 5.1207,68.1316 6.318,68.9026 C7.5254,69.6749 8.8065,70.367 10.1086,71.0219 C15.3416,73.6201 20.9034,75.6611 26.4931,77.5376 C27.8932,78.0038 29.2986,78.4553 30.7081,78.892 L32.8248,79.5354 C33.5954,79.7921 34.2443,79.987 34.9763,80.2596 C37.8867,81.3444 40.5627,82.6342 43.2355,84.0263 C48.5441,86.8253 53.6248,89.9834 58.5349,93.4207 C60.975,95.1452 63.4045,96.9699 65.6553,98.9773 C67.9268,100.979 70.0364,103.1274 72.1341,105.1853 C74.2403,107.2369 76.3537,109.2184 78.7169,110.7806 C81.0661,112.361 83.6351,113.5619 86.3605,114.3695 C87.0393,114.5766 87.7386,114.7292 88.426,114.913 L88.6848,114.9793 C88.7696,114.9977 88.6414,114.9733 88.6802,114.9796 L88.7487,114.9913 L88.8858,115.0146 L89.4343,115.1079 L90.5313,115.2945 L92.7252,115.6677 C93.0886,115.7221 93.4615,115.8094 93.8172,115.8369 L94.8793,115.9046 L97.0018,116.0448 C97.7104,116.0839 98.4104,116.1753 99.1353,116.1179 C100.573,116.057 102.0141,116.0493 103.4477,115.9504 C109.1874,115.4675 114.8102,113.8585 119.985,111.3712 C125.1606,108.8759 129.8821,105.4553 133.8552,101.3208 C137.8324,97.1896 141.0531,92.3451 143.329,87.089 C143.8363,85.7495 144.3854,84.4253 144.8638,83.0772 L146.0065,78.9351 L146.0783,78.6764 C146.086,78.6525 146.1119,78.5472 146.1046,78.5902 L146.1314,78.4537 L146.2384,77.9077 L146.4525,76.8158 C146.5959,76.0876 146.7496,75.3531 146.832,74.6598 L147.135,72.5505 L147.3383,70.3998 C147.5717,67.529 147.6354,64.6407 147.4341,61.7676 C147.3837,60.3278 147.1779,58.9003 147.033,57.469 C146.7991,56.0487 146.6151,54.6202 146.2891,53.2172 C146.0258,51.8015 145.6291,50.4169 145.2734,49.0232 C144.839,47.652 144.4536,46.2641 143.929,44.9235 C142.9644,42.2133 141.7731,39.5858 140.4099,37.0552 C139.0704,34.5107 137.5159,32.0822 135.8099,29.7711 C134.1242,27.4434 132.2393,25.2641 130.2247,23.2196 C128.2277,21.1556 126.0483,19.2742 123.7666,17.5372 C121.499,15.778 119.0663,14.242 116.5655,12.8441 C111.554,10.05 106.1255,8.0502 100.5386,6.7706 L100.6271,6.7887 L100.6271,6.7887 Z M101.4898,2.577 C107.4589,3.9929 113.2541,6.1855 118.5912,9.2177 C121.2549,10.7344 123.8403,12.4003 126.2487,14.2981 C128.6712,16.1736 130.9797,18.2025 133.0928,20.4204 C135.2236,22.6189 137.2121,24.9589 138.9883,27.452 C140.7849,29.9285 142.4169,32.5274 143.821,35.2455 C145.2487,37.9497 146.4913,40.7541 147.4942,43.6428 C148.0378,45.0726 148.4391,46.5502 148.886,48.0112 C149.2542,49.4948 149.6601,50.9694 149.9293,52.475 C150.2611,53.9678 150.4478,55.4863 150.6809,56.9959 C150.8251,58.5167 151.0269,60.0331 151.0701,61.5612 C151.2571,64.6109 151.166,67.6729 150.8934,70.7114 L150.6581,72.9896 L150.3086,75.2831 C150.2041,76.0627 150.0469,76.7795 149.8979,77.5058 L149.6748,78.5959 L149.5633,79.141 L149.5354,79.2773 L149.4874,79.4591 L149.409,79.7361 L148.1473,84.1648 C147.625,85.6068 147.0275,87.0235 146.4683,88.452 C143.9842,94.0663 140.4918,99.224 136.2069,103.6019 C131.9259,107.9837 126.8612,111.5873 121.3282,114.1984 C115.7962,116.8017 109.8005,118.4593 103.698,118.9237 C102.174,119.018 100.643,119.017 99.1166,119.0651 C98.3571,119.1164 97.5791,119.0171 96.8075,118.9674 L94.4905,118.7893 L93.3329,118.6978 C92.9499,118.6625 92.5977,118.5757 92.2286,118.5172 L90.0378,118.126 L88.9424,117.9304 L88.3947,117.8326 L88.0491,117.7659 L87.7694,117.6924 C87.0251,117.4888 86.2744,117.3161 85.5365,117.0848 C82.5784,116.1841 79.7223,114.8231 77.1634,113.0674 C74.5838,111.3272 72.3666,109.2016 70.2441,107.1015 C68.124,104.9862 66.0886,102.881 63.9222,100.94 C61.759,98.9781 59.449,97.2142 57.0591,95.4943 C52.2761,92.0863 47.2812,88.9248 42.1123,86.1459 C39.5369,84.7727 36.861,83.4695 34.2175,82.458 C33.5627,82.2046 32.7917,81.9638 32.1576,81.7442 L30.0212,81.0756 C28.6,80.6225 27.1841,80.1547 25.7728,79.6719 C20.1341,77.7255 14.5363,75.6255 9.1541,72.8997 C7.8119,72.2105 6.4839,71.4802 5.1974,70.643 C3.917,69.7966 2.6468,68.898 1.5488,67.6459 L1.1458,67.1641 L0.7821,66.6173 C0.6541,66.446 0.5657,66.2191 0.4656,66.0122 L0.322,65.6949 C0.2795,65.5713 0.2453,65.425 0.2118,65.289 C0.1485,65.0196 0.081,64.6935 0.098,64.549 L0.0939,64.2709 L0.0929,64.2014 C0.0954,64.1235 0.0858,64.2775 0.0983,64.0092 L0.1242,63.8462 C0.1826,63.4162 0.299,62.9672 0.4864,62.5197 C0.6944,62.0752 1.0031,61.6319 1.4275,61.2932 C1.8526,60.9567 2.3711,60.7589 2.8486,60.6942 C3.8179,60.5726 4.644,60.8144 5.3778,61.124 L5.3834,61.1252 L4.8818,61.2188 C5.8554,60.4326 6.8265,59.6099 7.7166,58.7547 C8.1625,58.3174 8.5871,57.9023 8.8773,57.4652 C9.1479,57.0074 9.4659,56.4236 9.7205,55.8861 C10.7762,53.6737 11.4531,51.2671 12.1912,48.8171 C12.5576,47.5898 12.9564,46.352 13.437,45.1191 C13.9192,43.8605 14.5053,42.6531 15.1598,41.5504 C16.4419,39.3026 17.6348,36.9889 19.165,34.8881 C19.8977,33.8172 20.6083,32.7271 21.3632,31.6695 L23.808,28.6311 L25.0423,27.1183 C25.4541,26.614 25.9311,26.1691 26.3728,25.6914 L29.0771,22.8709 C29.5151,22.3863 30.0014,21.9534 30.4922,21.5249 L31.9529,20.2255 C32.9414,19.3769 33.8715,18.4529 34.9115,17.6661 L38.0347,15.3043 C38.5595,14.9161 39.0693,14.5051 39.6074,14.1356 L41.2582,13.0805 L44.5658,10.9711 C45.6993,10.3207 46.8767,9.747 48.0313,9.132 C50.3146,7.8416 52.7642,6.9049 55.1698,5.8686 C56.3598,5.314 57.6259,4.9637 58.8633,4.534 C60.1094,4.1298 61.3512,3.7077 62.6071,3.3374 L66.4323,2.4291 L68.3454,1.977 C68.9836,1.829 69.6381,1.7644 70.2838,1.6544 L74.1719,1.0702 C74.818,0.9562 75.4708,0.9028 76.1259,0.871 L78.0874,0.7437 C79.3954,0.6751 80.7014,0.5405 82.0103,0.5288 L85.9391,0.6 L87.9027,0.6376 C88.5583,0.6607 89.2221,0.7586 89.8813,0.8161 L93.8407,1.2251 L94.8298,1.3291 C95.1504,1.3767 95.4574,1.4437 95.7719,1.5 L97.6483,1.8531 L101.4011,2.5592 L101.4898,2.577 L101.4898,2.577 Z" fill="#000000"></path>
                    </g>
                    <path d="M63.2231,99.3496 C63.2231,99.3496 63.0845,99.1904 62.814,98.8828 C62.5532,98.5566 62.1265,98.1592 61.6411,97.4814 C60.5923,96.1807 59.311,94.1563 58.1138,91.3203 C56.9458,88.4883 55.9966,84.8301 55.7075,80.5635 C55.5337,78.4316 55.5688,76.1523 55.7817,73.7676 C55.8735,72.5723 56.0474,71.3555 56.2407,70.1133 C56.2954,69.8037 56.3501,69.4922 56.4058,69.1797 L56.4897,68.708 L56.5317,68.4707 L56.6089,68.1475 C56.7602,67.5469 56.9126,66.9404 57.0669,66.3271 C57.314,65.1387 57.9018,63.7588 58.3872,62.418 C58.6177,61.7188 58.981,61.1299 59.2808,60.4746 C59.6108,59.8398 59.8862,59.168 60.272,58.5508 C61.7388,56.0342 63.5561,53.5957 65.7798,51.4238 C66.3042,50.8496 66.937,50.3848 67.519,49.8555 C68.1108,49.3369 68.7056,48.8125 69.3716,48.373 C70.022,47.9131 70.6704,47.4395 71.3384,46.9873 C72.0376,46.584 72.7407,46.1787 73.4477,45.7715 C76.3442,44.2852 79.478,43.0332 82.8257,42.4189 C89.4751,41.1543 96.7856,41.6406 103.3472,44.8984 C109.8716,48.1133 115.0024,54.1689 117.1958,61.1846 C118.3101,64.6836 118.7095,68.4082 118.3677,72.042 C118.3315,72.957 118.1382,73.8496 117.98,74.7441 L117.8579,75.416 L117.7964,75.75 C117.8159,75.6826 117.7524,75.9375 117.7505,75.9385 L117.729,76.0137 L117.6851,76.1641 L117.3393,77.3691 C117.2768,77.5742 117.2339,77.7627 117.1558,77.9805 L116.8931,78.6582 L116.355,80.0068 C115.9341,80.8359 115.5347,81.6621 115.0386,82.4355 C113.0767,85.5313 110.4321,88.168 107.3267,89.9414 C104.2349,91.7227 100.7808,92.792 97.3267,92.9688 C95.603,93.0293 93.8813,92.9707 92.2231,92.6426 L90.9819,92.4082 C90.9175,92.3926 91.0171,92.4219 90.8179,92.3711 L90.7485,92.3496 L90.6099,92.3086 L90.3325,92.2266 L89.7788,92.0645 L89.2261,91.9004 L88.604,91.6553 C88.1948,91.4883 87.7729,91.3281 87.3804,91.1475 C85.8677,90.4023 84.4614,89.4902 83.2251,88.4082 C82.0249,87.2959 80.9038,86.1074 80.0649,84.748 C78.2983,82.0928 77.3784,79.0313 77.1733,76.0654 C77.1265,74.5781 77.1655,73.1035 77.4712,71.7012 C77.5513,71.3271 77.5708,71.0498 77.7036,70.6016 L77.979,69.6699 C78.2163,69.0283 78.4878,68.251 78.8218,67.6631 C80.0825,65.1504 82.0522,63.1895 84.2104,61.876 C86.395,60.5928 88.772,59.9004 91.02,59.875 C91.5815,59.8652 92.1333,59.8555 92.6714,59.9258 C92.9409,59.9521 93.2075,59.9785 93.4722,60.0039 C93.7319,60.0576 93.9897,60.1094 94.2456,60.1621 C94.5181,60.2266 94.7134,60.2451 95.0415,60.3477 C95.2651,60.4199 95.4878,60.4912 95.7085,60.5625 C96.146,60.7051 96.6763,60.9473 97.1157,61.1504 C98.8647,62.0371 100.1733,63.3145 101.0972,64.5938 C102.936,67.2305 103.105,69.8311 102.9751,71.4141 C102.9028,72.2236 102.7729,72.8281 102.644,73.2227 C102.5288,73.6172 102.4692,73.8213 102.4692,73.8213 C102.4692,73.8213 102.4819,73.6094 102.5063,73.2002 C102.5405,72.7949 102.5327,72.1875 102.4614,71.4189 C102.2886,69.9082 101.7417,67.6074 99.8794,65.5527 C98.9751,64.5234 97.7368,63.626 96.2651,62.9902 C95.8843,62.8574 95.5815,62.7256 95.1333,62.6123 C94.9077,62.5586 94.6811,62.5039 94.4517,62.4482 C94.3276,62.416 94.0444,62.3926 93.8472,62.3623 C93.6304,62.332 93.4106,62.3008 93.1899,62.2695 C92.9673,62.2598 92.7427,62.248 92.5161,62.2373 C92.0649,62.1953 91.605,62.2285 91.1392,62.2559 C89.2778,62.3711 87.3462,63.0068 85.5825,64.0967 C83.8472,65.2246 82.2944,66.8594 81.3393,68.9072 C81.2017,69.1602 81.1011,69.4121 81.0151,69.6602 C80.9253,69.9248 80.8159,70.1279 80.7329,70.4424 L80.4829,71.3828 C80.4282,71.5596 80.3892,71.9395 80.3403,72.209 C80.1099,73.3887 80.1235,74.6172 80.189,75.8477 C80.4321,78.2979 81.2554,80.8008 82.7661,82.9346 C83.477,84.0332 84.4302,84.9688 85.4224,85.8486 C86.4507,86.6992 87.6079,87.3994 88.8384,87.9697 C89.1401,88.0977 89.438,88.1953 89.7368,88.3145 L90.1841,88.4893 L90.7397,88.6367 L91.2983,88.7852 L91.5776,88.8594 L91.7173,88.8965 L91.7876,88.916 C91.6352,88.877 91.7827,88.9102 91.7651,88.9043 L92.813,89.0693 C94.2095,89.3115 95.644,89.3105 97.0727,89.2275 C99.9331,89.0039 102.7573,88.0332 105.2563,86.5039 C107.771,84.9824 109.856,82.7598 111.3755,80.2217 C111.7632,79.5918 112.0532,78.8955 112.3882,78.2451 L112.7651,77.2656 L112.9604,76.7793 C113.0229,76.6035 113.0727,76.3828 113.1294,76.1875 L113.4614,74.9785 L113.5024,74.8262 L113.5229,74.751 C113.5376,74.7021 113.4839,74.9063 113.5122,74.7861 L113.5581,74.502 L113.6518,73.9355 C113.7729,73.1797 113.936,72.4277 113.9487,71.6582 C114.1968,68.6055 113.8227,65.5 112.855,62.5898 C110.9429,56.7441 106.6011,51.8027 101.227,49.1094 C95.8647,46.4102 89.438,45.9248 83.7388,47.0225 C77.9907,48.1719 72.8423,51.0039 68.9292,54.6855 C68.4575,55.165 67.9888,55.6406 67.5229,56.1133 C67.0425,56.5742 66.6753,57.1279 66.2495,57.623 C65.3706,58.5996 64.7095,59.7109 63.9839,60.7549 C63.6245,61.2793 63.3716,61.8594 63.061,62.4023 C62.7856,62.9541 62.4204,63.4922 62.228,64.043 C61.7915,65.1641 61.27,66.1309 60.9458,67.416 C60.7593,68.0195 60.5737,68.6172 60.3901,69.209 L60.356,69.3193 L60.3384,69.375 C60.3813,69.2012 60.3433,69.3574 60.3491,69.333 L60.2993,69.5488 L60.1977,69.9795 L59.9966,70.834 C59.7544,71.9707 59.5288,73.0879 59.3843,74.1855 C59.0786,76.3779 58.8921,78.4805 58.8979,80.4551 C58.9009,82.4277 59.0161,84.2793 59.2778,85.9668 C59.3667,86.8203 59.5669,87.6133 59.7017,88.3887 C59.8901,89.1465 60.062,89.877 60.269,90.5557 C61.0835,93.2695 62.1011,95.3203 62.8628,96.6055 C63.2095,97.2734 63.6118,97.7734 63.8179,98.1162 C64.0435,98.457 64.1606,98.6328 64.1606,98.6328 L63.2231,99.3496 L63.2231,99.3496 Z" fill="#000000"></path>
                    <path d="M4.75,61.001 C4.75,61.001 6.2202,61.791 7.5576,62.7461 C8.228,63.2285 8.8662,63.7539 9.3247,64.1699 C9.7607,64.6113 10.0513,64.9063 10.0513,64.9063 L9.8003,65.1563 C9.8003,65.1563 9.4878,64.9111 9.0185,64.543 C8.5273,64.2012 7.8535,63.7773 7.1523,63.3975 C5.7373,62.6387 4.2598,62.0742 4.2598,62.0742 L4.75,61.001 L4.75,61.001 Z" fill="#000000"></path>
                </g>
                <g opacity="0.2" transform="translate(131.000000, 123.000000)" id="Shape" fill="#FFFFFF">
                    <path d="M0.1318,42.9248 C0.1318,42.9258 0.6133,41.332 1.8008,38.7178 C2.4018,37.4121 3.1733,35.8428 4.1484,34.0859 C5.1611,32.3564 6.3057,30.3887 7.7393,28.3613 C8.4351,27.3311 9.2422,26.3213 10.041,25.2402 C10.895,24.207 11.729,23.0889 12.6904,22.0273 C14.5591,19.855 16.7358,17.7402 19.0737,15.6353 C20.2866,14.6343 21.4819,13.561 22.8081,12.6196 C23.4614,12.1353 24.1191,11.6479 24.7803,11.1587 C25.4687,10.7065 26.1611,10.252 26.856,9.7959 L27.9038,9.1138 L28.9917,8.4854 C29.7197,8.0674 30.4502,7.6479 31.1816,7.228 C32.7002,6.4922 34.1977,5.6851 35.7671,5.0356 C37.333,4.3779 38.8994,3.7148 40.52,3.2173 C41.3242,2.9521 42.1265,2.6875 42.9268,2.4238 C43.7417,2.2124 44.5552,2.0015 45.3647,1.7915 C48.606,0.958 51.8735,0.4844 55.0356,0.2275 C58.1987,0.0054 61.2651,-0.0093 64.1421,0.2368 C64.8599,0.2915 65.5688,0.3457 66.2671,0.3989 C66.9595,0.4985 67.6411,0.5967 68.311,0.6929 C69.645,0.9238 70.9448,1.0361 72.1597,1.3457 C74.5923,1.9258 76.8227,2.3838 78.7222,3.0942 C80.6343,3.7407 82.3032,4.2437 83.6128,4.8735 C84.9409,5.4346 85.9673,5.9077 86.6645,6.2324 C87.3638,6.5503 87.728,6.7383 87.728,6.7383 L87.4331,7.6934 C87.4331,7.6934 87.0268,7.6538 86.2642,7.5791 C85.5063,7.499 84.397,7.3794 83.0083,7.1855 C81.6216,6.9746 79.9185,6.8579 77.9936,6.6646 C76.0727,6.4351 73.8931,6.3833 71.5503,6.2227 C70.3774,6.1392 69.1518,6.1826 67.894,6.1548 C67.2651,6.1431 66.6265,6.1318 65.977,6.1201 C65.3306,6.1475 64.6733,6.1758 64.0073,6.2046 C62.6792,6.2734 61.314,6.2422 59.9331,6.4268 C59.2427,6.4873 58.5444,6.5483 57.8393,6.6104 L56.7788,6.7021 L55.7183,6.8672 C54.3022,7.104 52.8423,7.2046 51.4097,7.5596 C49.9683,7.8618 48.4946,8.0923 47.0561,8.5244 C46.3306,8.7109 45.6011,8.8979 44.8696,9.0854 C44.1509,9.3159 43.4302,9.5474 42.708,9.7788 C41.249,10.2031 39.8476,10.8057 38.4199,11.3418 C36.9936,11.8813 35.6299,12.5757 34.2402,13.1948 C33.5635,13.5449 32.8882,13.8945 32.2148,14.2427 L31.2036,14.7622 L30.2261,15.3374 C27.581,16.8003 25.1352,18.5186 22.7749,20.2031 C20.48,21.9746 18.2602,23.7217 16.3076,25.5645 C15.2827,26.4365 14.3755,27.3799 13.4463,28.2471 C12.5708,29.1631 11.6836,30.0186 10.9043,30.9053 C9.2749,32.6201 7.8667,34.2803 6.6382,35.7754 C5.4287,37.2832 4.3657,38.6074 3.5557,39.7441 C2.728,40.8691 2.0864,41.7666 1.6748,42.3926 C1.2602,43.0146 1.0391,43.3467 1.0391,43.3467 L0.1318,42.9248 L0.1318,42.9248 Z"></path>
                </g>
            </g>
        </g>
    </g>
</svg>