<?xml version="1.0" encoding="iso-8859-1"?>
<!-- Generator: Adobe Illustrator 19.0.0, SVG Export Plug-In . SVG Version: 6.00 Build 0)  -->
<svg version="1.1" id="Layer_1" xmlns="http://www.w3.org/2000/svg" xmlns:xlink="http://www.w3.org/1999/xlink" x="0px" y="0px"
	 viewBox="0 0 511.463 511.463" style="enable-background:new 0 0 511.463 511.463;" xml:space="preserve">
<path style="fill:#663333;" d="M506.647,265.101c4.986,7.135,6.178,16.236,3.213,24.348c-10.971,29.968-39.09,49.491-70.723,49.491
	c-1.203,0-2.428-0.032-3.643-0.086c-20.437-0.967-38.617-10.1-51.554-24.198v46.977c0,11.562,8.725,21.275,19.846,22.102
	c9.617,0.731,18.385-4.824,21.812-13.839c4.083-10.745,13.99-17.686,25.261-17.686c8.822,0,17.084,4.309,22.135,11.54
	c4.986,7.135,6.178,16.225,3.213,24.348c-10.96,29.957-39.09,49.48-70.712,49.48c-1.214,0-2.418-0.032-3.643-0.075
	c-40.197-1.913-71.69-35.362-71.69-76.182v-102.7c0-3.793-3.084-6.887-6.887-6.887c-3.793,0-6.877,3.095-6.877,6.887V477.41
	c0,14.839-12.067,26.884-26.895,26.884c-14.817,0-26.884-12.045-26.884-26.884V258.622c0-3.793-3.095-6.888-6.887-6.888
	s-6.887,3.095-6.887,6.888V477.41c0,14.839-12.067,26.884-26.895,26.884c-14.817,0-26.884-12.045-26.884-26.884V258.622
	c0-3.793-3.095-6.888-6.888-6.888c-3.793,0-6.887,3.095-6.887,6.888v102.7c0,40.82-31.483,74.269-71.679,76.182
	c-1.225,0.043-2.428,0.075-3.643,0.075c-31.633,0-59.753-19.513-70.723-49.48c-2.966-8.123-1.762-17.213,3.213-24.348
	c5.061-7.231,13.324-11.54,22.124-11.54c11.282,0,21.2,6.941,25.272,17.686c3.428,9.015,12.195,14.581,21.823,13.839
	c11.121-0.827,19.835-10.541,19.835-22.102v-46.977c-12.937,14.097-31.117,23.231-51.543,24.198
	c-1.214,0.054-2.439,0.086-3.643,0.086c-31.633,0-59.753-19.524-70.723-49.491c-2.966-8.112-1.773-17.213,3.213-24.348
	c5.05-7.21,13.324-11.529,22.124-11.529c11.282,0,21.2,6.941,25.272,17.686c3.428,9.004,12.195,14.57,21.812,13.85
	c11.132-0.849,19.846-10.562,19.846-22.102c0,0,0.043-73.85,0.075-74.538c1.139-23.95,13.625-45.548,33.696-58.807
	c2.998-68.048,59.301-122.492,128.09-122.492c68.768,0,125.071,54.434,128.079,122.492c20.082,13.259,32.568,34.857,33.707,58.861
	c0.043,0.634,0.075,74.484,0.075,74.484c0,11.54,8.714,21.253,19.846,22.102c9.638,0.72,18.385-4.846,21.812-13.85
	c4.072-10.745,13.99-17.686,25.251-17.686C493.323,253.572,501.597,257.891,506.647,265.101z M490.949,282.54
	c0.989-2.718-0.086-4.857-0.806-5.899c-0.612-0.881-2.396-2.933-5.62-2.933c-2.837,0-5.372,1.848-6.447,4.696
	c-6.63,17.428-23.553,28.173-42.163,26.776c-21.565-1.633-38.456-20.158-38.456-42.174c0,0-0.021-73.098-0.043-73.474
	c-0.903-19.008-11.54-35.942-28.442-45.354c-0.215-0.118-0.344-0.204-0.441-0.269c-2.837-1.784-4.728-4.932-4.728-8.531
	c0-59.591-48.481-108.072-108.072-108.072c-59.602,0-108.083,48.481-108.083,108.072c0,3.589-1.891,6.737-4.717,8.521
	c-0.107,0.075-0.247,0.172-0.451,0.29c-16.891,9.413-27.529,26.336-28.42,45.29c-0.032,0.441-0.054,73.528-0.054,73.528
	c0,22.016-16.891,40.541-38.456,42.174c-1.096,0.086-2.181,0.118-3.245,0.118c-17.299,0-32.675-10.487-38.918-26.895
	c-1.074-2.847-3.61-4.696-6.425-4.696c-3.245,0-5.029,2.052-5.641,2.933c-0.72,1.042-1.794,3.18-0.806,5.899
	c4.255,11.594,12.013,21.049,21.801,27.389c2.783-2.246,6.673-2.89,10.175-1.354c3.492,1.526,5.641,4.857,5.867,8.424
	c5.329,1.397,10.928,2.009,16.655,1.741c3.395-0.161,6.683-0.645,9.875-1.386c0.301-3.567,2.525-6.834,6.049-8.295
	c3.524-1.461,7.414-0.72,10.143,1.59c7.607-4.717,13.968-11.239,18.546-18.986c-2.353-2.708-3.17-6.576-1.762-10.143
	c1.408-3.557,4.663-5.835,8.231-6.178c0.913-4.072,1.418-8.306,1.418-12.658v-9.144c-3.567-1.494-6.071-5.007-6.071-9.101
	c0-4.115,2.504-7.64,6.071-9.122v-22.726c-3.567-1.494-6.071-5.007-6.071-9.122c0-4.094,2.504-7.607,6.071-9.101v-3.696
	c0-5.555,4.513-10.068,10.068-10.068c5.555,0,10.068,4.513,10.068,10.068v170.963c0,22.038-16.891,40.562-38.467,42.195
	c-1.085,0.075-2.16,0.118-3.234,0.118c-17.299,0-32.675-10.498-38.907-26.895c-1.096-2.858-3.621-4.696-6.436-4.696
	c-3.234,0-5.018,2.052-5.641,2.933c-0.72,1.042-1.794,3.181-0.806,5.877c4.255,11.605,12.013,21.06,21.801,27.41
	c2.783-2.256,6.673-2.912,10.165-1.354c3.514,1.526,5.652,4.846,5.877,8.413c5.319,1.386,10.928,2.02,16.665,1.741
	c3.385-0.161,6.673-0.645,9.864-1.386c0.301-3.557,2.525-6.823,6.049-8.295c3.524-1.451,7.414-0.72,10.143,1.59
	c7.597-4.717,13.979-11.239,18.546-18.997c-2.353-2.686-3.17-6.565-1.762-10.132c1.418-3.557,4.674-5.835,8.241-6.178
	c0.913-4.062,1.408-8.306,1.408-12.658v-9.133c-3.567-1.494-6.071-5.007-6.071-9.122c0-4.105,2.504-7.618,6.071-9.112v-22.736
	c-3.567-1.472-6.071-4.996-6.071-9.101c0-4.105,2.504-7.618,6.071-9.112v-34.384c0-14.903,12.12-27.023,27.023-27.023
	c14.903,0,27.023,12.12,27.023,27.023v31.848c3.567,1.483,6.071,5.007,6.071,9.101c0,4.105-2.504,7.618-6.071,9.101v22.736
	c3.567,1.494,6.071,5.007,6.071,9.112c0,4.105-2.504,7.629-6.071,9.101v22.736l0.011,0.075c3.567,1.494,6.071,5.007,6.071,9.112
	c0,4.105-2.504,7.618-6.071,9.112l-0.011-0.075v22.736c3.567,1.472,6.071,4.996,6.071,9.112c0,4.094-2.504,7.607-6.071,9.101v22.736
	c3.567,1.494,6.071,5.007,6.071,9.101s-2.504,7.618-6.071,9.101v4.943c0,3.728,3.03,6.748,6.748,6.748
	c3.729,0,6.759-3.019,6.759-6.748V258.622c0-14.903,12.12-27.023,27.023-27.023c14.903,0,27.023,12.12,27.023,27.023V477.41
	c0,3.728,3.019,6.748,6.748,6.748s6.759-3.019,6.759-6.748v-4.932c-3.578-1.494-6.071-5.007-6.071-9.112
	c0-4.094,2.493-7.618,6.071-9.101v-22.736c-3.578-1.483-6.071-5.007-6.071-9.101c0-4.115,2.493-7.629,6.071-9.112v-22.822
	c-3.578-1.494-6.071-5.007-6.071-9.112c0-4.105,2.493-7.618,6.071-9.101v-22.65c-3.578-1.483-6.071-4.996-6.071-9.112
	c0-4.105,2.493-7.618,6.071-9.101v-22.747c-3.578-1.472-6.071-4.996-6.071-9.101c0-4.105,2.493-7.618,6.071-9.112v-31.837
	c0-14.903,12.12-27.023,27.013-27.023c14.903,0,27.023,12.12,27.023,27.023v34.384c3.578,1.494,6.082,5.007,6.082,9.112
	c0,4.105-2.504,7.629-6.082,9.101v22.736c3.578,1.494,6.082,5.007,6.082,9.112c0,4.115-2.504,7.629-6.082,9.122v9.133
	c0,4.352,0.505,8.596,1.418,12.658c3.567,0.344,6.823,2.622,8.231,6.178c1.408,3.567,0.602,7.446-1.762,10.132
	c4.577,7.758,10.949,14.28,18.546,18.997c2.729-2.31,6.619-3.041,10.154-1.59c3.524,1.472,5.738,4.739,6.039,8.295
	c3.191,0.741,6.49,1.225,9.875,1.386c5.738,0.279,11.336-0.355,16.655-1.741c0.226-3.567,2.375-6.888,5.877-8.413
	c3.492-1.558,7.382-0.903,10.165,1.343c9.799-6.339,17.557-15.795,21.801-27.4c0.989-2.697-0.086-4.835-0.806-5.878
	c-0.612-0.881-2.396-2.933-5.609-2.933c-2.847,0-5.372,1.837-6.458,4.696c-6.619,17.407-23.553,28.184-42.152,26.776
	c-21.576-1.633-38.467-20.158-38.467-42.195V258.622c0-0.064,0.011-0.129,0.011-0.193v-67.757c0-5.555,4.513-10.068,10.068-10.068
	s10.068,4.513,10.068,10.068v3.696c3.567,1.494,6.071,5.007,6.071,9.101c0,4.115-2.504,7.629-6.071,9.122v22.726
	c3.567,1.483,6.071,5.007,6.071,9.122c0,4.094-2.504,7.607-6.071,9.101v9.144c0,4.352,0.505,8.585,1.418,12.658
	c3.567,0.344,6.823,2.622,8.231,6.178c1.408,3.567,0.591,7.435-1.762,10.143c4.577,7.747,10.938,14.269,18.546,18.986
	c2.729-2.31,6.619-3.052,10.143-1.59c3.524,1.461,5.749,4.728,6.049,8.295c3.191,0.741,6.479,1.225,9.875,1.386
	c5.727,0.269,11.325-0.344,16.655-1.741c0.226-3.567,2.375-6.898,5.867-8.424c3.503-1.537,7.393-0.892,10.175,1.354
	C478.936,303.579,486.694,294.134,490.949,282.54z"/>
<path style="fill:#4EC8D8;" d="M490.143,276.641c0.72,1.042,1.794,3.18,0.806,5.899c-4.255,11.594-12.013,21.039-21.801,27.389
	c-2.783-2.246-6.673-2.89-10.175-1.354c-3.492,1.526-5.641,4.857-5.867,8.424c-5.329,1.397-10.928,2.009-16.655,1.741
	c-3.395-0.161-6.683-0.645-9.875-1.386c-0.301-3.567-2.525-6.834-6.049-8.295c-3.524-1.461-7.414-0.72-10.143,1.59
	c-7.607-4.717-13.968-11.239-18.546-18.986c2.353-2.708,3.17-6.576,1.762-10.143c-1.408-3.557-4.663-5.835-8.231-6.178
	c-0.913-4.072-1.418-8.306-1.418-12.658v-9.144c3.567-1.494,6.071-5.007,6.071-9.101c0-4.115-2.504-7.64-6.071-9.122v-22.726
	c3.567-1.494,6.071-5.007,6.071-9.122c0-4.094-2.504-7.607-6.071-9.101v-3.696c0-5.555-4.513-10.068-10.068-10.068
	c-5.555,0-10.068,4.513-10.068,10.068v67.758c0,0.064-0.011,0.129-0.011,0.193v103.012c0,22.038,16.891,40.562,38.467,42.195
	c18.599,1.408,35.533-9.37,42.152-26.776c1.085-2.858,3.61-4.696,6.458-4.696c3.213,0,4.996,2.052,5.609,2.933
	c0.72,1.042,1.794,3.181,0.806,5.877c-4.244,11.605-12.002,21.06-21.801,27.4c-2.783-2.246-6.673-2.901-10.165-1.343
	c-3.503,1.526-5.652,4.846-5.877,8.413c-5.319,1.386-10.917,2.02-16.655,1.741c-3.385-0.161-6.683-0.645-9.875-1.386
	c-0.301-3.557-2.514-6.823-6.039-8.295c-3.535-1.451-7.425-0.72-10.154,1.59c-7.597-4.717-13.968-11.239-18.546-18.997
	c2.364-2.686,3.17-6.565,1.762-10.132c-1.408-3.557-4.663-5.835-8.231-6.178c-0.913-4.062-1.418-8.306-1.418-12.658v-9.133
	c3.578-1.494,6.082-5.007,6.082-9.122c0-4.105-2.504-7.618-6.082-9.112v-22.736c3.578-1.472,6.082-4.996,6.082-9.101
	s-2.504-7.618-6.082-9.112v-34.384c0-14.903-12.12-27.023-27.023-27.023c-14.892,0-27.013,12.12-27.013,27.023v31.837
	c-3.578,1.494-6.071,5.007-6.071,9.112c0,4.105,2.493,7.629,6.071,9.101v22.747c-3.578,1.483-6.071,4.996-6.071,9.101
	c0,4.115,2.493,7.629,6.071,9.112v22.65c-3.578,1.483-6.071,4.996-6.071,9.101c0,4.105,2.493,7.618,6.071,9.112v22.822
	c-3.578,1.483-6.071,4.996-6.071,9.112c0,4.094,2.493,7.618,6.071,9.101v22.736c-3.578,1.483-6.071,5.007-6.071,9.101
	c0,4.105,2.493,7.618,6.071,9.112v4.932c0,3.729-3.03,6.748-6.759,6.748s-6.748-3.019-6.748-6.748V258.622
	c0-14.903-12.12-27.023-27.023-27.023s-27.023,12.12-27.023,27.023V477.41c0,3.729-3.03,6.748-6.759,6.748
	c-3.718,0-6.748-3.019-6.748-6.748v-4.943c3.567-1.483,6.071-5.007,6.071-9.101s-2.504-7.607-6.071-9.101v-22.736
	c3.567-1.494,6.071-5.007,6.071-9.101c0-4.115-2.504-7.64-6.071-9.112V390.58l0.011,0.075c3.567-1.494,6.071-5.007,6.071-9.112
	c0-4.105-2.504-7.618-6.071-9.112l-0.011-0.075v-22.736c3.567-1.472,6.071-4.996,6.071-9.101c0-4.105-2.504-7.618-6.071-9.112
	v-22.736c3.567-1.483,6.071-4.996,6.071-9.101c0-4.094-2.504-7.618-6.071-9.101v-31.848c0-14.903-12.12-27.023-27.023-27.023
	c-14.903,0-27.023,12.12-27.023,27.023v34.384c-3.567,1.494-6.071,5.007-6.071,9.112c0,4.105,2.504,7.629,6.071,9.101v22.736
	c-3.567,1.494-6.071,5.007-6.071,9.112c0,4.115,2.504,7.629,6.071,9.122v9.133c0,4.352-0.494,8.596-1.408,12.658
	c-3.567,0.344-6.823,2.622-8.241,6.178c-1.408,3.567-0.591,7.446,1.762,10.132c-4.567,7.758-10.949,14.28-18.546,18.997
	c-2.729-2.31-6.619-3.041-10.143-1.59c-3.524,1.472-5.749,4.739-6.049,8.295c-3.191,0.741-6.479,1.225-9.864,1.386
	c-5.738,0.279-11.347-0.355-16.665-1.741c-0.226-3.567-2.364-6.888-5.877-8.413c-3.492-1.558-7.382-0.903-10.165,1.354
	c-9.789-6.35-17.546-15.806-21.801-27.41c-0.989-2.697,0.086-4.835,0.806-5.877c0.623-0.881,2.407-2.933,5.641-2.933
	c2.815,0,5.34,1.837,6.436,4.696c6.232,16.397,21.608,26.895,38.907,26.895c1.074,0,2.149-0.043,3.234-0.118
	c21.576-1.633,38.467-20.157,38.467-42.195V190.671c0-5.555-4.513-10.068-10.068-10.068s-10.068,4.513-10.068,10.068v3.696
	c-3.567,1.494-6.071,5.007-6.071,9.101c0,4.115,2.504,7.629,6.071,9.122v22.726c-3.567,1.483-6.071,5.007-6.071,9.122
	c0,4.094,2.504,7.607,6.071,9.101v9.144c0,4.352-0.505,8.585-1.418,12.658c-3.567,0.344-6.823,2.622-8.231,6.178
	c-1.408,3.567-0.591,7.435,1.762,10.143c-4.577,7.747-10.938,14.269-18.546,18.986c-2.729-2.31-6.619-3.052-10.143-1.59
	c-3.524,1.461-5.749,4.728-6.049,8.295c-3.191,0.741-6.479,1.225-9.875,1.386c-5.727,0.269-11.325-0.344-16.655-1.741
	c-0.226-3.567-2.375-6.898-5.867-8.424c-3.503-1.536-7.393-0.892-10.175,1.354c-9.789-6.34-17.546-15.795-21.801-27.389
	c-0.989-2.718,0.086-4.857,0.806-5.899c0.612-0.881,2.396-2.933,5.641-2.933c2.815,0,5.351,1.848,6.425,4.696
	c6.243,16.408,21.619,26.895,38.918,26.895c1.064,0,2.149-0.032,3.245-0.118c21.565-1.633,38.456-20.158,38.456-42.174
	c0,0,0.021-73.087,0.054-73.528c0.892-18.954,11.529-35.877,28.42-45.29c0.204-0.118,0.344-0.215,0.451-0.29
	c2.826-1.784,4.717-4.932,4.717-8.521c0-59.591,48.481-108.072,108.083-108.072c59.591,0,108.072,48.481,108.072,108.072
	c0,3.6,1.891,6.748,4.728,8.531c0.097,0.064,0.226,0.15,0.441,0.269c16.902,9.413,27.539,26.347,28.442,45.354
	c0.021,0.376,0.043,73.474,0.043,73.474c0,22.016,16.891,40.541,38.456,42.174c18.61,1.397,35.533-9.348,42.163-26.776
	c1.074-2.847,3.61-4.696,6.447-4.696C487.747,273.708,489.53,275.76,490.143,276.641z M340.917,165.485
	c0-5.448-4.416-9.864-9.864-9.864c-5.448,0-9.864,4.416-9.864,9.864c0,5.458,4.416,9.864,9.864,9.864
	C336.501,175.349,340.917,170.943,340.917,165.485z M265.8,63.591c0-5.566-4.513-10.068-10.068-10.068
	c-28.657,0-54.756,14.624-69.799,39.122c-2.912,4.728-1.429,10.928,3.299,13.839c1.655,1.021,3.471,1.504,5.265,1.504
	c3.385,0,6.694-1.708,8.596-4.803c11.357-18.492,31.031-29.527,52.639-29.527C261.287,73.659,265.8,69.146,265.8,63.591z
	 M190.263,165.485c0-5.448-4.405-9.864-9.853-9.864s-9.875,4.416-9.875,9.864c0,5.458,4.427,9.864,9.875,9.864
	C185.857,175.349,190.263,170.943,190.263,165.485z"/>
<g>
	<path style="fill:#663333;" d="M331.053,155.621c5.448,0,9.864,4.416,9.864,9.864c0,5.458-4.416,9.864-9.864,9.864
		c-5.448,0-9.864-4.405-9.864-9.864C321.19,160.037,325.606,155.621,331.053,155.621z"/>
	<path style="fill:#663333;" d="M255.732,53.523c5.555,0,10.068,4.502,10.068,10.068c0,5.555-4.513,10.068-10.068,10.068
		c-21.608,0-41.282,11.035-52.639,29.527c-1.902,3.095-5.211,4.803-8.596,4.803c-1.794,0-3.61-0.484-5.265-1.504
		c-4.728-2.912-6.211-9.112-3.299-13.839C200.975,68.147,227.075,53.523,255.732,53.523z"/>
	<path style="fill:#663333;" d="M180.41,155.621c5.448,0,9.853,4.416,9.853,9.864c0,5.458-4.405,9.864-9.853,9.864
		s-9.875-4.405-9.875-9.864C170.535,160.037,174.962,155.621,180.41,155.621z"/>
</g>
<g>
</g>
<g>
</g>
<g>
</g>
<g>
</g>
<g>
</g>
<g>
</g>
<g>
</g>
<g>
</g>
<g>
</g>
<g>
</g>
<g>
</g>
<g>
</g>
<g>
</g>
<g>
</g>
<g>
</g>
</svg>
