<?xml version="1.0" encoding="iso-8859-1"?>
<!-- Generator: Adobe Illustrator 19.0.0, SVG Export Plug-In . SVG Version: 6.00 Build 0)  -->
<svg version="1.1" id="Layer_1" xmlns="http://www.w3.org/2000/svg" xmlns:xlink="http://www.w3.org/1999/xlink" x="0px" y="0px"
	 viewBox="0 0 511.418 511.418" style="enable-background:new 0 0 511.418 511.418;" xml:space="preserve">
<path style="fill:#663333;" d="M476.89,379.862v53.328c0,6.426-5.204,11.641-11.641,11.641h-96.237
	c-3.993,2.619-8.754,4.156-13.876,4.156c-2.06,0-4.063-0.256-5.995-0.733c-31.454,35.214-67.03,59.626-91.907,62.804
	c-1.863,0.233-3.679,0.361-5.378,0.361c-1.711,0-3.516-0.128-5.39-0.361c-23.899-3.038-59.288-26.914-90.137-60.825
	c0,0-0.815-0.908-1.222-1.362c-0.757,0.07-1.525,0.116-2.293,0.116c-5.122,0-9.883-1.537-13.876-4.156H46.169
	c-6.438,0-11.641-5.215-11.641-11.641v-53.328c0-6.438,5.204-11.641,11.641-11.641h56.296
	c-12.829-29.231-19.359-58.415-19.359-86.982c0-44.772,10.174-87.658,29.394-124.351c-0.652-5.495-0.989-11.036-0.989-16.53
	c0-29.394,8.882-57.286,25.75-81.034l-30.768-16.332c-3.248-1.723-5.273-5.11-5.25-8.801c0.023-3.679,2.084-7.043,5.367-8.731
	c24.144-12.433,51.838-15.064,77.483-7.974c0.279-0.186,0.559-0.361,0.861-0.524C205.349,5.867,228.48,0,251.856,0
	c23.352,0,46.495,5.867,66.913,16.949c0.303,0.175,0.594,0.349,0.873,0.535c25.645-7.089,53.34-4.459,77.483,7.974
	c3.283,1.688,5.343,5.052,5.367,8.731c0.023,3.69-2.002,7.078-5.25,8.801l-30.779,16.332c16.856,23.76,25.739,51.652,25.739,81.034
	c0,5.495-0.338,11.047-0.99,16.554c19.208,36.681,29.371,79.567,29.371,124.327c0,28.567-6.519,57.752-19.348,86.982h64.015
	C471.687,368.22,476.89,373.424,476.89,379.862z M453.608,421.548v-30.046h-73.141v30.046H453.608z M397.3,281.238
	c0-28.544-4.482-56.203-13.085-81.628c-0.081,0.047-0.151,0.081-0.221,0.128c-49.428,28.812-75.912,85.504-65.912,141.09
	c1.374,7.695,2.293,15.564,2.759,23.48c1.129-0.151,2.282-0.233,3.446-0.233c5.11,0,9.872,1.525,13.865,4.144h3.131
	c3.981-2.619,8.742-4.144,13.853-4.144c5.122,0,9.883,1.525,13.865,4.144h6.589C390.001,338.792,397.3,309.561,397.3,281.238z
	 M372.248,179.634c1.083-0.64,2.2-1.246,3.318-1.851c-2.06-4.482-4.249-8.871-6.589-13.154c-1.199-2.212-1.606-4.633-1.327-6.961
	c0.012-0.081,0.023-0.163,0.035-0.268c0.815-5.646,1.234-11.385,1.234-17.043c0-11.967-1.781-23.62-5.227-34.737
	c0.128,1.478,0.186,2.968,0.186,4.47c0,24.307-15.553,45.575-38.718,52.921c-5.378,1.723-11.036,2.596-16.798,2.596
	c-5.774,0-11.432-0.873-16.845-2.608c-3.772-1.199-7.415-2.84-10.873-4.819l-12.177,24.307c-1.583,3.166-3.958,5.727-6.833,7.497
	s-6.228,2.759-9.767,2.759c-7.078,0-13.434-3.935-16.6-10.256l-12.223-24.411c-3.504,2.049-7.217,3.725-11.059,4.936
	c-5.367,1.711-11.036,2.584-16.81,2.584c-5.797,0-11.467-0.873-16.856-2.584c-23.131-7.38-38.672-28.649-38.672-52.932
	c0-1.246,0.047-2.48,0.128-3.702c-3.283,10.884-4.982,22.281-4.982,33.98c0,5.634,1.304,17.66,1.304,17.904
	c0.151,2.142-0.279,4.342-1.374,6.368c-2.34,4.284-4.528,8.661-6.577,13.131c59.544,32.875,92.407,100.393,80.405,167.19
	c-1.211,6.764-2.026,13.655-2.433,20.558c2.631-0.931,5.46-1.432,8.405-1.432c5.11,0,9.883,1.525,13.865,4.144h51.174
	c3.993-2.619,8.754-4.144,13.865-4.144c1.397,0,2.759,0.116,4.098,0.326c-0.442-6.566-1.222-13.085-2.363-19.464
	C283.45,279.771,314.427,213.335,372.248,179.634z M266.628,89.904L368.57,35.808c-6.705-1.606-13.539-2.41-20.384-2.41
	c-14.039,0-28.067,3.388-40.814,10.151C288.397,53.619,274.02,70.219,266.628,89.904z M360.677,423.655v-34.26
	c0-3.05-2.48-5.53-5.541-5.53c-3.05,0-5.53,2.48-5.53,5.53v34.26c0,3.05,2.48,5.541,5.53,5.541
	C358.197,429.197,360.677,426.705,360.677,423.655z M342.924,110.09c0-12.049-6.403-23.247-16.554-29.487l-29.068,15.424
	c0.57-0.105,1.164-0.175,1.758-0.175c5.343,0,9.674,4.331,9.674,9.674c0,5.343-4.331,9.674-9.674,9.674s-9.662-4.33-9.662-9.674
	c0-2.643,1.059-5.029,2.771-6.775l-18.311,9.72c-0.023,0.535-0.058,1.071-0.058,1.618c0,7.485,2.352,14.61,6.81,20.605
	c0.978,1.315,2.072,2.596,3.26,3.795c3.911,3.923,8.754,6.88,14.004,8.545c6.74,2.154,14.249,2.142,20.931,0.012
	C333.25,138.471,342.924,125.224,342.924,110.09z M329.816,423.655v-34.26c0-3.05-2.48-5.53-5.53-5.53
	c-3.05,0-5.541,2.48-5.541,5.53v34.26c0,3.05,2.491,5.541,5.541,5.541C327.337,429.197,329.816,426.705,329.816,423.655z
	 M317.151,447.951c-2.41-0.71-4.68-1.769-6.74-3.12h-1.455c-2.27,5.972-4.796,11.711-7.59,17.171
	C306.522,457.787,311.808,453.096,317.151,447.951z M298.956,423.655v-34.26c0-3.05-2.48-5.53-5.53-5.53
	c-3.05,0-5.53,2.48-5.53,5.53v34.26c0,3.05,2.48,5.541,5.53,5.541C296.476,429.197,298.956,426.705,298.956,423.655z
	 M282.914,446.682c-1.164-0.535-2.293-1.152-3.353-1.851h-51.163c-2.13,1.397-4.47,2.48-6.973,3.19
	c7.846,16.356,18.207,29.941,30.43,39.789C264.288,477.74,275.01,463.503,282.914,446.682z M291.191,30.081
	c-12.561-4.47-25.902-6.798-39.335-6.798s-26.775,2.328-39.324,6.787c17.136,10.803,30.698,26.146,39.335,44.085
	C260.505,56.215,274.067,40.872,291.191,30.081z M268.107,421.548v-30.046h-28.265v30.046H268.107z M251.867,168.843l12.479-24.924
	c-0.186-0.244-9.476-16.391-10.85-25.238c-0.535,0.081-2.852,0.07-3.446-0.035c-1.385,9.01-10.675,25.04-10.745,25.122
	L251.867,168.843z M135.177,35.808l101.93,54.096c-7.392-19.685-21.769-36.285-40.744-46.355
	C177.411,33.492,155.607,30.896,135.177,35.808z M229.749,110.078c0-0.57-0.035-1.141-0.07-1.711l-18.114-9.616
	c1.711,1.746,2.782,4.133,2.782,6.775c0,5.343-4.331,9.674-9.674,9.674c-5.343,0-9.662-4.33-9.662-9.674
	c0-5.343,4.319-9.674,9.662-9.674c0.605,0,1.187,0.07,1.758,0.175l-29.184-15.483c-10.209,6.228-16.647,17.45-16.647,29.534
	c0,15.122,9.685,28.369,24.085,32.968c6.647,2.119,14.284,2.13,20.954,0c5.297-1.676,10.186-4.68,14.156-8.684
	c0.99-1.013,1.874-2.026,2.689-3.085c0.058-0.07,0.116-0.151,0.163-0.221C227.293,125.014,229.749,117.762,229.749,110.078z
	 M220.052,423.655v-34.26c0-3.05-2.48-5.53-5.53-5.53c-3.05,0-5.53,2.48-5.53,5.53v34.26c0,3.05,2.48,5.541,5.53,5.541
	C217.573,429.197,220.052,426.705,220.052,423.655z M202.416,462.083c-2.538-4.936-4.878-10.07-6.973-15.424
	c-0.07-0.163-0.128-0.326-0.198-0.489c-2.433,1.257-5.099,2.13-7.916,2.549C192.463,453.631,197.515,458.09,202.416,462.083z
	 M189.203,423.655v-34.26c0-3.05-2.48-5.53-5.53-5.53c-3.062,0-5.541,2.48-5.541,5.53v34.26c0,3.05,2.48,5.541,5.541,5.541
	C186.724,429.197,189.203,426.705,189.203,423.655z M185.862,340.841c10.07-56.005-16.915-112.628-66.145-141.218
	c-8.603,25.424-13.096,53.072-13.096,81.616c0,28.311,7.311,57.542,21.722,86.982h10.838c3.981-2.619,8.754-4.144,13.865-4.144
	c5.11,0,9.872,1.525,13.865,4.144h3.131c3.772-2.48,8.254-3.981,13.061-4.133C183.569,356.288,184.5,348.489,185.862,340.841z
	 M158.343,423.655v-34.26c0-3.05-2.48-5.53-5.53-5.53s-5.53,2.48-5.53,5.53v34.26c0,3.05,2.48,5.541,5.53,5.541
	S158.343,426.705,158.343,423.655z M127.494,421.548v-30.046H57.81v30.046H127.494z"/>
<rect x="380.467" y="391.503" style="fill:#CA5F38;" width="73.141" height="30.046"/>
<path style="fill:#B88D5B;" d="M384.215,199.61c8.603,25.424,13.085,53.084,13.085,81.628c0,28.323-7.299,57.554-21.711,86.982H369
	c-3.981-2.619-8.742-4.144-13.865-4.144c-5.11,0-9.872,1.525-13.853,4.144h-3.131c-3.993-2.619-8.754-4.144-13.865-4.144
	c-1.164,0-2.317,0.082-3.446,0.233c-0.466-7.916-1.385-15.785-2.759-23.48c-10-55.586,16.484-112.279,65.912-141.09
	C384.064,199.692,384.134,199.657,384.215,199.61z"/>
<path style="fill:#F2EBDC;" d="M375.566,177.783c-1.118,0.605-2.235,1.211-3.318,1.851
	c-57.821,33.701-88.798,100.137-77.088,165.304c1.141,6.379,1.921,12.898,2.363,19.464c-1.339-0.21-2.701-0.326-4.098-0.326
	c-5.11,0-9.872,1.525-13.865,4.144h-51.174c-3.981-2.619-8.754-4.144-13.865-4.144c-2.945,0-5.774,0.501-8.405,1.432
	c0.407-6.903,1.222-13.795,2.433-20.558c12.002-66.797-20.861-134.315-80.405-167.19c2.049-4.47,4.237-8.847,6.577-13.131
	c1.094-2.026,1.525-4.226,1.374-6.368c0-0.244-1.304-12.27-1.304-17.904c0-11.699,1.7-23.096,4.982-33.98
	c-0.081,1.222-0.128,2.456-0.128,3.702c0,24.283,15.541,45.552,38.672,52.932c5.39,1.711,11.059,2.584,16.856,2.584
	c5.774,0,11.443-0.873,16.81-2.584c3.842-1.211,7.555-2.887,11.059-4.936l12.223,24.411c3.166,6.321,9.522,10.256,16.6,10.256
	c3.539,0,6.892-0.99,9.767-2.759s5.25-4.331,6.833-7.497l12.177-24.307c3.457,1.979,7.101,3.62,10.873,4.819
	c5.413,1.735,11.071,2.608,16.845,2.608c5.762,0,11.42-0.873,16.798-2.596c23.166-7.346,38.718-28.614,38.718-52.921
	c0-1.502-0.058-2.992-0.186-4.47c3.446,11.117,5.227,22.77,5.227,34.737c0,5.658-0.419,11.397-1.234,17.043
	c-0.012,0.105-0.023,0.186-0.035,0.268c-0.279,2.328,0.128,4.75,1.327,6.961C371.317,168.913,373.506,173.301,375.566,177.783z"/>
<path style="fill:#B88D5B;" d="M368.57,35.808L266.628,89.904c7.392-19.685,21.769-36.285,40.744-46.355
	c12.747-6.763,26.775-10.151,40.814-10.151C355.031,33.398,361.864,34.202,368.57,35.808z"/>
<path style="fill:#FDCB81;" d="M360.677,389.396v34.26c0,3.05-2.48,5.541-5.541,5.541c-3.05,0-5.53-2.491-5.53-5.541v-34.26
	c0-3.05,2.48-5.53,5.53-5.53C358.197,383.866,360.677,386.346,360.677,389.396z"/>
<path style="fill:#FFFFFF;" d="M326.371,80.603c10.151,6.24,16.554,17.438,16.554,29.487c0,15.133-9.674,28.381-24.12,32.956
	c-6.682,2.13-14.191,2.142-20.931-0.012c-5.25-1.665-10.093-4.622-14.004-8.545c-1.187-1.199-2.282-2.48-3.26-3.795
	c-4.459-5.995-6.81-13.12-6.81-20.605c0-0.547,0.035-1.083,0.058-1.618l18.311-9.72c-1.711,1.746-2.771,4.133-2.771,6.775
	c0,5.343,4.319,9.674,9.662,9.674c5.343,0,9.674-4.33,9.674-9.674c0-5.343-4.331-9.674-9.674-9.674c-0.594,0-1.187,0.07-1.758,0.175
	L326.371,80.603z"/>
<path style="fill:#FDCB81;" d="M329.816,389.396v34.26c0,3.05-2.48,5.541-5.53,5.541c-3.05,0-5.541-2.491-5.541-5.541v-34.26
	c0-3.05,2.491-5.53,5.541-5.53C327.337,383.866,329.816,386.346,329.816,389.396z"/>
<path style="fill:#B88D5B;" d="M310.411,444.831c2.06,1.35,4.331,2.41,6.74,3.12c-5.343,5.145-10.628,9.837-15.785,14.051
	c2.794-5.46,5.32-11.199,7.59-17.171H310.411z"/>
<path style="fill:#FDCB81;" d="M298.956,389.396v34.26c0,3.05-2.48,5.541-5.53,5.541c-3.05,0-5.53-2.491-5.53-5.541v-34.26
	c0-3.05,2.48-5.53,5.53-5.53C296.476,383.866,298.956,386.346,298.956,389.396z"/>
<path style="fill:#F2EBDC;" d="M279.562,444.831c1.059,0.698,2.189,1.315,3.353,1.851c-7.904,16.821-18.626,31.059-31.059,41.128
	c-12.223-9.848-22.584-23.434-30.43-39.789c2.503-0.71,4.843-1.793,6.973-3.19H279.562z"/>
<path style="fill:#B88D5B;" d="M251.856,23.282c13.434,0,26.775,2.328,39.335,6.798c-17.124,10.791-30.686,26.134-39.324,44.073
	c-8.638-17.939-22.2-33.282-39.335-44.085C225.081,25.61,238.422,23.282,251.856,23.282z"/>
<rect x="239.842" y="391.503" style="fill:#CA5F38;" width="28.265" height="30.046"/>
<path style="fill:#FDCB81;" d="M264.347,143.919l-12.479,24.924l-12.561-25.075c0.07-0.081,9.359-16.111,10.745-25.122
	c0.594,0.105,2.91,0.116,3.446,0.035C254.871,127.529,264.16,143.675,264.347,143.919z"/>
<path style="fill:#B88D5B;" d="M237.106,89.904l-101.93-54.096c20.43-4.913,42.234-2.317,61.186,7.741
	C215.338,53.619,229.714,70.219,237.106,89.904z"/>
<path style="fill:#FFFFFF;" d="M229.679,108.367c0.035,0.57,0.07,1.141,0.07,1.711c0,7.683-2.456,14.936-7.101,20.977
	c-0.047,0.07-0.105,0.151-0.163,0.221c-0.815,1.059-1.7,2.072-2.689,3.085c-3.97,4.005-8.859,7.008-14.156,8.684
	c-6.67,2.13-14.307,2.119-20.954,0c-14.4-4.598-24.085-17.846-24.085-32.968c0-12.083,6.438-23.306,16.647-29.534l29.184,15.483
	c-0.57-0.105-1.152-0.175-1.758-0.175c-5.343,0-9.662,4.33-9.662,9.674c0,5.343,4.319,9.674,9.662,9.674
	c5.343,0,9.674-4.33,9.674-9.674c0-2.643-1.071-5.029-2.782-6.775L229.679,108.367z"/>
<path style="fill:#FDCB81;" d="M220.052,389.396v34.26c0,3.05-2.48,5.541-5.53,5.541c-3.05,0-5.53-2.491-5.53-5.541v-34.26
	c0-3.05,2.48-5.53,5.53-5.53C217.573,383.866,220.052,386.346,220.052,389.396z"/>
<path style="fill:#B88D5B;" d="M195.443,446.658c2.095,5.355,4.435,10.489,6.973,15.424c-4.901-3.993-9.953-8.451-15.087-13.364
	c2.817-0.419,5.483-1.292,7.916-2.549C195.315,446.332,195.373,446.495,195.443,446.658z"/>
<path style="fill:#FDCB81;" d="M189.203,389.396v34.26c0,3.05-2.48,5.541-5.53,5.541c-3.062,0-5.541-2.491-5.541-5.541v-34.26
	c0-3.05,2.48-5.53,5.541-5.53C186.724,383.866,189.203,386.346,189.203,389.396z"/>
<path style="fill:#B88D5B;" d="M119.717,199.622c49.23,28.591,76.214,85.213,66.145,141.218c-1.362,7.648-2.293,15.448-2.759,23.247
	c-4.808,0.151-9.29,1.653-13.061,4.133h-3.131c-3.993-2.619-8.754-4.144-13.865-4.144s-9.883,1.525-13.865,4.144h-10.838
	c-14.412-29.44-21.722-58.671-21.722-86.982C106.621,252.694,111.115,225.046,119.717,199.622z"/>
<path style="fill:#FDCB81;" d="M158.343,389.396v34.26c0,3.05-2.48,5.541-5.53,5.541s-5.53-2.491-5.53-5.541v-34.26
	c0-3.05,2.48-5.53,5.53-5.53S158.343,386.346,158.343,389.396z"/>
<rect x="57.81" y="391.503" style="fill:#CA5F38;" width="69.684" height="30.046"/>
<g>
</g>
<g>
</g>
<g>
</g>
<g>
</g>
<g>
</g>
<g>
</g>
<g>
</g>
<g>
</g>
<g>
</g>
<g>
</g>
<g>
</g>
<g>
</g>
<g>
</g>
<g>
</g>
<g>
</g>
</svg>
