<?xml version="1.0" encoding="UTF-8" standalone="no"?>
<!-- Created with Inkscape (http://www.inkscape.org/) -->
<svg xmlns:inkscape="http://www.inkscape.org/namespaces/inkscape" xmlns:rdf="http://www.w3.org/1999/02/22-rdf-syntax-ns#" xmlns="http://www.w3.org/2000/svg" xmlns:xlink="http://www.w3.org/1999/xlink" xmlns:ns1="http://sozi.baierouge.fr" xmlns:cc="http://creativecommons.org/ns#" xmlns:sodipodi="http://sodipodi.sourceforge.net/DTD/sodipodi-0.dtd" xmlns:dc="http://purl.org/dc/elements/1.1/" id="svg2" xml:space="preserve" viewBox="0 0 36.032 40.958" version="1.1" inkscape:version="0.91 r13725">
  <g id="g10" transform="matrix(1.25 0 0 -1.25 0 40.958)">
    <g id="g12">
      <path id="path14" style="fill-rule:evenodd;fill:#ba7763" d="m20.508 4.001c0.051 0.183 0.117 0.359 0.199 0.519 0.16 0.371 0.305 0.559 0.438 0.559 0.347 0.027 0.734 0.105 1.16 0.242 0.347 0.133 0.535 0.184 0.562 0.16 0.16-0.109-0.027-0.308-0.562-0.601l0.761 0.039c-0.242-0.614-0.507-1.028-0.8-1.239-0.321-0.214-0.653-0.281-1-0.199l-0.758 0.52z" inkscape:connector-curvature="0"/>
      <path id="path16" style="fill-rule:evenodd;fill:#9e6554" d="m20.625 4.719 0.883-0.359c0.637-0.133 1.156 0.055 1.558 0.559-0.242-0.614-0.507-1.028-0.8-1.239-0.321-0.214-0.653-0.281-1-0.199l-0.719 0.598 0.078 0.64z" inkscape:connector-curvature="0"/>
      <path id="path18" style="fill-rule:evenodd;fill:#e8a09b" d="m14.027 9.2c-0.453 0.851-0.695 1.359-0.722 1.519-0.051 0.508 0.359 0.786 1.242 0.84 1.387 0.082 2.504-0.347 3.359-1.281 0.719-0.797 0.985-1.613 0.801-2.437-0.16-0.774-0.32-1.227-0.48-1.36l0.519-0.32c0.481-0.215 1.066-0.402 1.762-0.563l1.637-0.398c-0.161 0-0.321-0.016-0.481-0.039-0.371-0.055-0.613-0.188-0.719-0.402-0.187-0.344-0.211-0.653-0.078-0.918-0.961 0.132-2.094 0.359-3.402 0.679-2.559 0.614-3.774 1.332-3.641 2.16 0.188 0.348 0.336 0.641 0.442 0.879 0.16 0.453 0.082 1-0.239 1.641z" inkscape:connector-curvature="0"/>
      <path id="path20" style="fill-rule:evenodd;fill:#ba7763" d="m18.426 5.118 0.601 0.121c0.453 0.055 0.774 0.039 0.957-0.039 0.297-0.133 0.723-0.453 1.282-0.961 0.586-0.559 0.839-0.918 0.761-1.078-0.16-0.242-0.586-0.082-1.281 0.48l0.602-0.961c-0.801-0.265-1.43-0.293-1.883-0.082-0.293 0.11-0.531 0.321-0.719 0.641l-0.238 0.441-0.082 1.438z" inkscape:connector-curvature="0"/>
      <path id="path22" style="fill-rule:evenodd;fill:#9e6554" d="m19.305 4.399 0.281-0.801c0.348-0.558 0.934-0.863 1.762-0.918-0.801-0.265-1.43-0.293-1.883-0.082-0.293 0.11-0.531 0.321-0.719 0.641l-0.238 0.441v0.438l0.797 0.281z" inkscape:connector-curvature="0"/>
      <path id="path24" style="fill-rule:evenodd;fill:#ffbdba" d="m14.547 9.641-0.242 1.16c0.64 1.543 1.429 2.09 2.363 1.637 0.797-0.344 1.332-1.039 1.598-2.078 0.535-2.082 1.519-4.055 2.961-5.922 0.027-0.023-0.149-0.133-0.52-0.32-0.773-0.453-1.496-0.477-2.16-0.078-0.055 0.293-0.176 0.64-0.359 1.039-0.403 0.828-0.973 1.519-1.723 2.082-0.957 0.719-1.598 1.547-1.918 2.48z" inkscape:connector-curvature="0"/>
      <path id="path26" style="fill-rule:evenodd;fill:#e8a09b" d="m15.266 8.321-0.239 1.48c0 0.106 0.239 0.383 0.719 0.84 0.481 0.426 1.027 0.852 1.641 1.278 0.453-0.504 0.746-1.028 0.879-1.559 0.214-0.934 0.625-2 1.242-3.199-0.375 0.051-0.641-0.094-0.801-0.442-0.133-0.347-0.121-0.773 0.039-1.281 0.238-0.637 0.719-1.16 1.442-1.558-0.376-0.106-0.762-0.106-1.161 0l-0.48 0.16c-0.055 0.293-0.176 0.64-0.359 1.039-0.403 0.828-0.973 1.519-1.723 2.082-0.344 0.265-0.746 0.652-1.199 1.16z" inkscape:connector-curvature="0"/>
      <path id="path28" style="fill-rule:evenodd;fill:#e8a09b" d="m18.266 29.598c0.082-0.371 0.039-0.797-0.121-1.277-0.372-0.961-1.211-1.723-2.52-2.281-1.039-0.453-2.332 0.133-3.879 1.761l-2 2.559 0.602 0.68c0.636 0.453 1.543 0.719 2.718 0.801 1.758 0.105 3.161-0.227 4.2-1 0.507-0.403 0.839-0.813 1-1.243z" inkscape:connector-curvature="0"/>
      <path id="path30" style="fill-rule:evenodd;fill:#ffbdba" d="m1.145 7.001c0.535-0.188 0.679-0.36 0.441-0.52-0.348-0.297-0.762-0.297-1.238 0-0.297 0.16-0.403 0.465-0.321 0.918 0.024-0.211 0.145-0.359 0.36-0.437 0.265-0.11 0.519-0.094 0.758 0.039z" inkscape:connector-curvature="0"/>
      <path id="path32" style="fill-rule:evenodd;fill:#ffbdba" d="m2.227 7.438c-0.028-0.012-0.055-0.027-0.082-0.039l-0.2-0.078c0.243 0.32 0.215 0.531-0.078 0.641-0.16 0.078-0.297 0.05-0.402-0.082-0.078-0.133-0.094-0.266-0.039-0.399 0.183-0.277 0.453-0.293 0.801-0.043zm-1.282 0.922c0.215 0.266 0.481 0.387 0.801 0.359 0.641-0.023 0.906-0.359 0.801-1v-0.019c0.078 0.101 0.183 0.242 0.32 0.418 0.184 0.242 0.36 0.375 0.52 0.402 0.211 0.028 0.425-0.094 0.64-0.359 0.211-0.266 0.293-0.563 0.239-0.883-0.106-0.719-0.786-1.078-2.039-1.078-1.016 0.027-1.547 0.453-1.602 1.281-0.027 0.348 0.082 0.637 0.32 0.879z" inkscape:connector-curvature="0"/>
      <path id="path34" style="fill-rule:evenodd;fill:#e8a09b" d="m3.387 8.52c0.211 0.028 0.425-0.094 0.64-0.359 0.211-0.266 0.293-0.563 0.239-0.883-0.106-0.719-0.786-1.078-2.039-1.078-0.614 0.027-1.067 0.215-1.36 0.559l0.199-0.118c0.372-0.269 0.813-0.375 1.321-0.32 0.48 0.051 0.746 0.254 0.801 0.598 0.05 0.265 0 0.535-0.161 0.8l-0.242 0.321c0.215 0.32 0.414 0.48 0.602 0.48z" inkscape:connector-curvature="0"/>
      <path id="path36" style="fill-rule:evenodd;fill:#ffbdba" d="m18.387 16.919c-0.989-0.34-1.629-0.953-1.922-1.84-0.293-0.879-0.266-2.426 0.082-4.641 0.183-2.16-0.227-3.746-1.242-4.758-0.985-0.988-2.16-1.718-3.52-2.199-1.519-0.535-3-0.629-4.437-0.281 1.382-0.613 2.863-0.856 4.437-0.719 1.266 0.11 2.379 0.453 3.34 1.039-2.199-1.414-4.711-1.562-7.539-0.441-3.305 1.359-4.852 3.988-4.641 7.883 0.16 2.558 1.309 4.984 3.442 7.277 1.093 1.148 2.16 2.039 3.199 2.68 7.027 5.965 9.961 4.629 8.801-4z" inkscape:connector-curvature="0"/>
      <path id="path38" style="fill-rule:evenodd;fill:#e8a09b" d="m18.387 16.919c0.367 0.14 0.668 0.113 0.898-0.078 0.235-0.188 0.32-0.282 0.262-0.282-0.215-0.332-0.402-0.57-0.563-0.718-0.265-0.243-0.543-0.813-0.839-1.723-0.161-0.531-0.012-1.957 0.441-4.277 0.078-2.403-0.867-4.36-2.84-5.879-0.07-0.059-0.144-0.11-0.219-0.161l-0.402-0.281c-0.961-0.586-2.074-0.933-3.34-1.039-1.574-0.137-3.051 0.106-4.437 0.719 1.437-0.348 2.918-0.254 4.437 0.281 1.36 0.481 2.535 1.211 3.52 2.199 1.015 1.012 1.429 2.598 1.242 4.758-0.348 2.215-0.375 3.762-0.082 4.641 0.293 0.887 0.933 1.5 1.922 1.84z" inkscape:connector-curvature="0"/>
      <path id="path40" style="fill-rule:evenodd;fill:#ffbdba" d="m25.367 18.38-0.101 0.058c-1.332-0.476-2.239-0.785-2.719-0.918-0.883-0.242-1.774-0.375-2.68-0.398-0.738-0.02-1.551-0.262-2.441-0.723-3.844-0.191-6.453 1.332-7.84 4.563-0.426 1.863-0.387 3.73 0.121 5.597 1.012 3.762 3.824 5.641 8.438 5.641 3.121-0.027 5.308-1.051 6.562-3.078 0.184-0.297 0.559-1.055 1.117-2.281 0.348-0.801 0.707-1.293 1.082-1.481 0.828-0.426 1.332-0.547 1.52-0.359l0.359-1.082c0.133-0.934-0.066-1.879-0.597-2.84-0.614-1.094-1.364-1.891-2.243-2.399-0.16-0.097-0.355-0.195-0.578-0.3z" inkscape:connector-curvature="0"/>
      <path id="path42" style="fill-rule:evenodd;fill:#e8a09b" d="m25.367 18.38 0.02-0.02c-0.25-0.113-0.61-0.254-1.082-0.422l-0.418-0.137c-0.602-0.214-1.305-0.441-2.102-0.679-0.984-0.293-1.676-0.547-2.078-0.762s-0.809-0.406-1.223-0.582c-0.406-0.168-0.761 0.039-1.058 0.621 0.89 0.461 1.703 0.703 2.441 0.723 0.906 0.023 1.797 0.156 2.68 0.398 0.48 0.133 1.387 0.442 2.719 0.918l0.101-0.058z" inkscape:connector-curvature="0"/>
      <path id="path44" style="fill-rule:evenodd;fill:#ba7763" d="m14.145 3.239 0.761 0.121c0.535 0.027 0.906-0.016 1.121-0.121 0.321-0.133 0.801-0.531 1.438-1.199 0.668-0.692 0.949-1.133 0.84-1.321-0.184-0.265-0.68-0.039-1.477 0.68l0.68-1.199c-0.988-0.266-1.75-0.266-2.281 0-0.321 0.16-0.586 0.426-0.801 0.801l-0.238 0.519-0.043 1.719z" inkscape:connector-curvature="0"/>
      <path id="path46" style="fill-rule:evenodd;fill:#9e6554" d="m15.145 2.36 0.32-0.961c0.402-0.691 1.082-1.094 2.043-1.199-0.988-0.266-1.75-0.266-2.281 0-0.321 0.16-0.586 0.426-0.801 0.801l-0.238 0.519v0.559l0.957 0.281z" inkscape:connector-curvature="0"/>
      <path id="path48" style="fill-rule:evenodd;fill:#e8a09b" d="m10.586 7.759c-0.32 0.851-0.414 1.652-0.281 2.402l0.281 0.84 3.441-2.801 0.118-5.68c-0.051 0.715-0.579 1.555-1.579 2.52-1.004 0.965-1.664 1.871-1.98 2.719z" inkscape:connector-curvature="0"/>
      <path id="path50" style="fill-rule:evenodd;fill:#e8a09b" d="m16.145 6.7c-0.188-0.543-0.387-0.953-0.598-1.219-0.399 1.305-0.746 2.653-1.039 4.039l-0.801 2.16c0.344-0.027 0.867-0.425 1.559-1.199 0.422-0.492 0.722-1.109 0.902-1.863 0.18-0.738 0.172-1.379-0.023-1.918z" inkscape:connector-curvature="0"/>
      <path id="path52" style="fill-rule:evenodd;fill:#ffbdba" d="m10.586 11.001c1.066 1.652 2.226 1.812 3.48 0.48 1.122-1.203 1.641-2.43 1.559-3.68-0.051-1.015 0.203-2.253 0.762-3.722 0.265-0.719 0.547-1.344 0.84-1.879l-0.641-0.281c-0.453-0.184-1.254-0.321-2.398-0.399-0.028 0.481-0.122 1.039-0.282 1.68-0.347 1.281-0.879 2.32-1.601 3.121-0.957 1.039-1.532 2.133-1.719 3.277v1.403z" inkscape:connector-curvature="0"/>
      <path id="path54" style="fill-rule:evenodd;fill:#e8a09b" d="m4.465 8.899c0.347 0.438 1.105 0.774 2.281 1 1.176 0.223 2.149-0.344 2.918-1.699 0.777-1.352 0.883-2.449 0.32-3.301-0.566-0.851-0.558-1.437 0.024-1.758 0.578-0.324 1.039-0.531 1.379-0.621l-0.481-0.039c-1.492 0-2.867 0.332-4.121 1-1.387 0.746-2.414 1.797-3.078 3.16l0.039 0.239c0.133 0.91 0.371 1.582 0.719 2.019z" inkscape:connector-curvature="0"/>
      <path id="path56" style="fill-rule:evenodd;fill:#ba7763" d="m13.664 2.481c0.215-0.137-0.023-0.347-0.719-0.64l1.082-0.082c-0.269-0.747-0.601-1.227-1-1.438-0.402-0.215-0.828-0.254-1.281-0.121l-1.121 0.762c0.055 0.211 0.121 0.425 0.199 0.636 0.16 0.453 0.336 0.668 0.524 0.641 0.453-0.027 0.972 0.016 1.558 0.121 0.481 0.106 0.735 0.145 0.758 0.121z" inkscape:connector-curvature="0"/>
      <path id="path58" style="fill-rule:evenodd;fill:#9e6554" d="m10.664 1.841 1.242-0.563c0.906-0.238 1.614-0.078 2.121 0.481-0.269-0.747-0.601-1.227-1-1.438-0.402-0.215-0.828-0.254-1.281-0.121l-1.082 0.84c0.055 0.187 0.066 0.375 0.043 0.558l-0.043 0.243z" inkscape:connector-curvature="0"/>
      <path id="path60" style="fill-rule:evenodd;fill:#ffbdba" d="m8.867 3.481c0.504-0.297 1.106-0.519 1.797-0.68 0.535-0.136 1.094-0.308 1.684-0.523-0.16 0.027-0.321 0.016-0.481-0.039-0.375-0.055-0.629-0.211-0.762-0.48-0.187-0.426-0.214-0.797-0.078-1.118-0.988 0.133-2.148 0.399-3.48 0.797-2.613 0.774-3.856 1.656-3.723 2.641 0.215 0.453 0.364 0.828 0.442 1.121 0.187 0.535 0.105 1.199-0.239 2-0.297 0.668-0.281 1.305 0.039 1.918 0.375 0.641 1.055 1 2.039 1.082 1.387 0.078 2.403-0.453 3.04-1.602 0.535-0.933 0.707-1.933 0.519-3-0.156-0.957-0.613-1.547-1.359-1.757l0.562-0.36z" inkscape:connector-curvature="0"/>
      <path id="path62" style="fill-rule:evenodd;fill:#ffbdba" d="m14.066 28.68c0.321-0.425 0.493-0.988 0.52-1.679 0.055-1.414-0.625-2.84-2.039-4.282-1.121-1.148-3.106-1.066-5.961 0.243-1.414 0.636-2.719 1.398-3.918 2.277 0 0.32 0.144 0.707 0.437 1.16 0.563 0.906 1.575 1.719 3.04 2.442 2.242 1.093 4.226 1.386 5.96 0.878 0.879-0.238 1.536-0.585 1.961-1.039z" inkscape:connector-curvature="0"/>
      <path id="path64" style="fill-rule:evenodd;fill:#e39c8c" d="m14.547 27.399c0.16-1.094-0.149-2.215-0.922-3.359-0.371-0.266-0.801-0.442-1.277-0.52-1.95-0.347-3.614-0.094-5 0.758l-1.524 1.402c0.055 0.266 0.242 0.575 0.563 0.918 0.691 0.696 1.785 1.231 3.281 1.602 2.184 0.535 3.812 0.266 4.879-0.801z" inkscape:connector-curvature="0"/>
      <path id="path66" style="fill-rule:evenodd;fill:#ba7763" d="m9.668 28.2c2.184 0.535 3.812 0.266 4.879-0.801l0.039-0.64c-1.281 0.8-2.867 1.054-4.762 0.761-1.945-0.293-3.277-0.894-4-1.801 0 0.243 0.215 0.559 0.641 0.961 0.695 0.641 1.762 1.145 3.203 1.52z" inkscape:connector-curvature="0"/>
      <path id="path68" style="fill-rule:evenodd;fill:#ffbdba" d="m12.027 25.801-0.281-0.242 0.442 0.602c0.265 0.371 0.785 0.664 1.558 0.879h-0.398l-1.282-0.199 0.84 0.359c0.453 0.215 1 0.281 1.641 0.199 0.187-0.16 0.265-0.398 0.238-0.719 0-0.32-0.117-0.613-0.359-0.879l-0.321 0.04c-0.238 0-0.48-0.106-0.718-0.321l-0.282-0.32-0.078 0.441c-0.027 0.184 0.024 0.36 0.161 0.52l0.199 0.199c-0.106 0-0.336-0.066-0.68-0.199-0.215-0.082-0.441-0.199-0.68-0.36z" inkscape:connector-curvature="0"/>
      <path id="path70" style="fill-rule:evenodd;fill:#ba7763" d="m21.945 18.68c-0.64 0.293-1.16 0.586-1.558 0.879l-0.442 0.321 0.442-0.282c0.425-0.211 1.011-0.437 1.758-0.679 1.043-0.348 2-0.493 2.882-0.438 0.453 0.024 0.797 0.094 1.039 0.199l0.161 0.121-0.403-0.32-0.758-0.32c-1.148-0.082-2.187 0.094-3.121 0.519z" inkscape:connector-curvature="0"/>
      <path id="path72" style="fill-rule:evenodd;fill:#fff5f5" d="m23.188 23.641c-0.055-0.746-0.387-1.375-1-1.882-0.614-0.481-1.309-0.692-2.083-0.637-0.773 0.051-1.414 0.371-1.917 0.957-0.508 0.59-0.735 1.265-0.68 2.043 0.051 0.769 0.383 1.41 1 1.918 0.613 0.48 1.304 0.695 2.078 0.64 0.773-0.082 1.426-0.414 1.961-1 0.504-0.613 0.719-1.293 0.641-2.039z" inkscape:connector-curvature="0"/>
      <path id="path74" style="fill-rule:evenodd;fill:#292727" d="m23.027 23.919c0-0.532-0.203-1-0.601-1.399-0.399-0.375-0.895-0.558-1.481-0.558-0.558 0-1.039 0.183-1.437 0.558-0.403 0.399-0.602 0.867-0.602 1.399 0 0.535 0.199 1 0.602 1.402 0.398 0.371 0.879 0.559 1.437 0.559 0.586 0 1.082-0.188 1.481-0.559 0.398-0.402 0.601-0.867 0.601-1.402z" inkscape:connector-curvature="0"/>
      <path id="path76" style="fill-rule:evenodd;fill:#fff5f5" d="m21.547 24.759c0-0.293-0.106-0.559-0.32-0.797-0.243-0.215-0.508-0.321-0.801-0.321-0.321 0-0.586 0.106-0.801 0.321-0.211 0.238-0.32 0.504-0.32 0.797 0 0.292 0.109 0.562 0.32 0.8 0.215 0.215 0.48 0.321 0.801 0.321 0.293 0 0.558-0.106 0.801-0.321 0.214-0.238 0.32-0.508 0.32-0.8z" inkscape:connector-curvature="0"/>
      <path id="path78" style="fill-rule:evenodd;fill:#8f5b59" d="m20.066 22.641h0.399c0.347 0 0.68 0.078 1 0.239 0.695 0.32 1.094 0.746 1.203 1.281 0.133-0.695-0.176-1.254-0.922-1.68-0.398-0.215-0.801-0.254-1.199-0.121l-0.481 0.281z" inkscape:connector-curvature="0"/>
      <path id="path80" style="fill-rule:evenodd;fill:#e8a09b" d="m18.746 32.759c0.027-0.106 0.012-0.184-0.039-0.239-0.109-0.105-0.254-0.176-0.441-0.199h-0.2l1-0.402c0.321-0.16 0.653-0.371 1-0.641 0.055-0.105-0.281-0.144-1-0.117l-1.242 0.16 0.321-0.48c0.082-0.243 0.082-0.415 0-0.52-0.133 0-0.372 0.094-0.719 0.277l-0.68 0.481-1.16 0.121-0.16 0.199-0.039 0.082c0.051 0.078 0.277 0.172 0.679 0.278l0.239 0.242c0.215 0.183 0.402 0.304 0.562 0.359 0.293 0.106 0.918 0.238 1.879 0.399z" inkscape:connector-curvature="0"/>
      <path id="path82" style="fill-rule:evenodd;fill:#ffbdba" d="m18.625 31.321c-0.371 0.051-0.68 0.117-0.918 0.199l-0.199 0.078c0.371-0.531 0.543-0.839 0.519-0.918l-0.043-0.16c-0.425 0.215-0.718 0.387-0.879 0.52l-0.281 0.238-2.476-0.199c-0.215 0-0.387 0.039-0.524 0.121l-0.117 0.121 0.801 0.559c0.664 0.398 1.383 0.64 2.156 0.718 1.203 0.137 1.895 0.188 2.082 0.161-0.055-0.184-0.266-0.293-0.641-0.321l-0.519-0.039 0.68-0.238c0.48-0.188 0.824-0.36 1.039-0.52l0.558-0.32c-0.211-0.082-0.625-0.082-1.238 0z" inkscape:connector-curvature="0"/>
      <path id="path84" style="fill-rule:evenodd;fill:#ffcdca" d="m28.426 24.962 0.359-1.082c0.133-0.934-0.066-1.879-0.597-2.84-0.508-0.856-1.094-1.574-1.762-2.16-0.668 0.265-0.934 1.082-0.801 2.441 0.133 1.414 0.641 2.426 1.52 3.039 0.507 0.293 0.855 0.465 1.043 0.52l0.238 0.082z" inkscape:connector-curvature="0"/>
      <path id="path86" style="fill-rule:evenodd;fill:#e3a496" d="m27.984 22.88c-0.105-0.239-0.183-0.493-0.238-0.762 0.106-0.371 0.145-0.613 0.121-0.719-0.109-0.426-0.281-0.746-0.519-0.961-0.243-0.211-0.387-0.172-0.442 0.121-0.054 0.453 0.106 0.973 0.481 1.559 0.183 0.297 0.386 0.547 0.597 0.762z" inkscape:connector-curvature="0"/>
    </g>
  </g>
<metadata><rdf:RDF><cc:Work><dc:format>image/svg+xml</dc:format><dc:type rdf:resource="http://purl.org/dc/dcmitype/StillImage"/><cc:license rdf:resource="http://creativecommons.org/licenses/publicdomain/"/><dc:publisher><cc:Agent rdf:about="http://openclipart.org/"><dc:title>Openclipart</dc:title></cc:Agent></dc:publisher></cc:Work><cc:License rdf:about="http://creativecommons.org/licenses/publicdomain/"><cc:permits rdf:resource="http://creativecommons.org/ns#Reproduction"/><cc:permits rdf:resource="http://creativecommons.org/ns#Distribution"/><cc:permits rdf:resource="http://creativecommons.org/ns#DerivativeWorks"/></cc:License></rdf:RDF></metadata></svg>
