<?xml version="1.0" encoding="iso-8859-1"?>
<!-- Generator: Adobe Illustrator 19.0.0, SVG Export Plug-In . SVG Version: 6.00 Build 0)  -->
<svg version="1.1" id="Layer_1" xmlns="http://www.w3.org/2000/svg" xmlns:xlink="http://www.w3.org/1999/xlink" x="0px" y="0px"
	 viewBox="0 0 511.469 511.469" style="enable-background:new 0 0 511.469 511.469;" xml:space="preserve">
<path style="fill:#FE6865;" d="M366.59,303.465c6.091,0,11.227,3.693,11.227,8.065s-5.136,8.065-11.227,8.065
	c-6.08,0-11.216-3.693-11.216-8.065S360.51,303.465,366.59,303.465z"/>
<path style="fill:#663333;" d="M509.016,291.177c3.512,3.863,3.215,9.837-0.647,13.338c-1.815,1.645-4.085,2.451-6.346,2.451
	c-0.944,0-2.801-0.403-2.801-0.403c-4.934-1.528-10.134,0.138-13.752,4.107c4.796,10.898,7.311,22.931,7.311,35.134l-0.011,0.011
	c0,2.568-1.04,5.125-3.088,6.982c-1.815,1.645-4.085,2.451-6.346,2.451c-2.568,0-5.136-1.051-7.003-3.099
	c-8.585-9.487-19.918-14.697-31.908-14.697c-11.991,0-23.324,5.21-31.919,14.697c-0.032,0.032-0.064,0.064-0.095,0.095
	c-12.214,13.413-28.47,20.809-45.809,20.809c-7.47,0-14.739-1.379-21.562-4.011c-7.608,5.709-16.437,9.518-25.764,11.163v38.127
	h1.284c14.75,0,26.762,12.012,26.762,26.772v8.118c0,10.272-8.351,18.634-18.634,18.634h-34.264
	c-0.584,9.752-8.68,17.509-18.58,17.509h-56.569c-14.739,0-26.751-12.001-26.751-26.762v-81.474h-65.769v37.203h1.273
	c14.76,0,26.772,12.012,26.772,26.772v8.118c0,10.272-8.362,18.634-18.623,18.634H101.89c-0.573,9.752-8.669,17.509-18.559,17.509
	h-56.58C12.001,489.365,0,477.363,0,462.603V345.401c0-0.106,0.011-0.223,0.011-0.329V86.176c0-35.336,28.746-64.071,64.071-64.071
	s64.071,28.736,64.071,64.071v96.022c22.613-8.563,46.711-12.999,71.393-12.999c16.214,0,32.301,1.942,47.942,5.751
	c-21.297-24.852-26.635-52.929-11.938-67.626c5.38-5.401,12.861-8.256,21.637-8.266h0.032c16.437,0,36.089,9.837,52.558,26.316
	c2.748,2.738,5.306,5.582,7.672,8.5c15.174-6.038,31.654-9.105,49.152-9.105c17.488,0,33.967,3.067,49.141,9.105
	c2.366-2.918,4.924-5.762,7.661-8.5c16.479-16.479,36.132-26.316,52.569-26.316h0.032c8.776,0.011,16.257,2.865,21.647,8.277
	c16.002,16.002,8.245,47.91-18.061,74.216c-1.199,1.199-2.419,2.356-3.65,3.481c14.898,23.939,23.037,53.11,23.037,83.235
	c0,3.799-0.626,12.033-0.775,12.617C502.002,283.982,505.62,287.42,509.016,291.177z M464.745,166.716
	c19.111-19.111,23.451-39.156,18.05-44.557c-1.73-1.74-4.658-2.101-6.813-2.112h-0.011c-10.664,0-25.467,7.916-37.723,20.172
	c-1.114,1.114-2.175,2.239-3.215,3.385c10.569,6.558,20.066,14.707,28.407,24.374C463.875,167.554,464.321,167.14,464.745,166.716z
	 M477.893,263.078c-0.69-19.376-5.21-38.095-13.052-54.648c-10.962-4.977-22.687-7.704-34.89-8.107
	c-0.265-0.011-0.52-0.011-0.785-0.011c-12.426,0-22.751,9.89-23.165,22.411c-0.202,6.197,2.006,12.097,6.239,16.628
	c4.234,4.52,9.975,7.12,16.161,7.332c0.361,0.011,0.7,0.042,1.051,0.096C447.078,247.596,463.727,253.262,477.893,263.078z
	 M466.231,305.513c3.321-6.399,8.203-11.333,13.901-14.474c-11.566-7.64-24.788-11.715-38.551-11.715
	c-17.859,0-34.816,6.887-48.43,19.504c2.271,3.788,3.555,8.107,3.555,12.702c0,14.856-13.508,26.953-30.115,26.953
	c-16.596,0-30.104-12.097-30.104-26.953c0-4.425,1.199-8.606,3.321-12.288c-13.604-12.787-30.603-19.769-48.536-19.769
	c-13.625,0-26.719,4.032-38.19,11.566c5.698,3.152,10.58,8.086,13.89,14.474c1.475,2.854,1.358,6.102-0.032,8.744h0.011
	c-1.73,3.279-3.162,6.728-4.319,10.304c8.128-3.926,16.978-6.006,26.136-6.006c8.691,0,17.116,1.868,24.894,5.401
	c3.894,1.772,7.619,3.958,11.142,6.547c3.512,2.589,6.823,5.582,9.879,8.956c8.585,9.476,19.918,14.697,31.919,14.697
	c11.98,0,23.303-5.221,31.898-14.686c0.011,0,0.011-0.011,0.011-0.011c12.214-13.476,28.523-20.904,45.915-20.904
	c9.158,0,18.018,2.08,26.136,6.006c-1.146-3.565-2.589-7.025-4.308-10.304C464.873,311.614,464.756,308.367,466.231,305.513z
	 M449.168,183.62c-9.678-11.747-21.276-20.926-34.572-27.335c-0.117-0.064-0.244-0.127-0.371-0.191
	c-14.336-6.855-30.359-10.335-47.624-10.335c-17.275,0-33.298,3.481-47.634,10.335c-0.127,0.064-0.255,0.127-0.382,0.191
	c-13.307,6.42-24.926,15.62-34.614,27.388c6.165-1.263,12.468-2.016,18.878-2.239c23.196-0.732,42.689,17.466,43.464,40.663
	c0.371,11.237-3.65,21.944-11.333,30.157c-5.337,5.709-12.012,9.731-19.355,11.779c14.272,4.138,27.473,11.906,38.668,22.899
	c3.756-1.507,7.916-2.366,12.299-2.366c4.202,0,8.203,0.785,11.842,2.175c11.237-10.983,24.48-18.75,38.795-22.878
	c-7.12-2.09-13.583-6.048-18.782-11.609c-7.683-8.213-11.704-18.92-11.322-30.157c0.775-23.196,20.299-41.416,43.453-40.663
	C436.891,181.646,443.098,182.378,449.168,183.62z M377.817,311.529c0-4.372-5.136-8.065-11.227-8.065
	c-6.08,0-11.216,3.693-11.216,8.065s5.136,8.065,11.216,8.065C372.681,319.594,377.817,315.901,377.817,311.529z M321.184,239.351
	c4.234-4.531,6.452-10.431,6.24-16.628c-0.424-12.776-11.195-22.846-23.95-22.401c-12.32,0.403-24.141,3.183-35.187,8.245
	c-7.831,16.564-12.33,35.293-12.988,54.68c14.219-9.922,30.943-15.652,48.685-16.469c0.34-0.053,0.69-0.085,1.04-0.096
	C311.22,246.471,316.951,243.871,321.184,239.351z M326.331,450.867v-5.762c0-3.183-2.589-5.773-5.773-5.773H308.78
	c-5.794,0-10.495-4.711-10.495-10.505v-47.698H266.43v54.723h1.295c10.431,0,19.62,6.112,24.013,15.015H326.331z M325.121,356.596
	c-1.528-1.401-3.014-2.886-4.436-4.446v-0.011c-8.585-9.476-19.928-14.686-31.919-14.686c-11.906,0-23.154,5.147-31.728,14.495
	c-0.064,0.064-0.127,0.127-0.18,0.202c-1.73,1.899-4.213,3.099-6.993,3.099c-5.21,0-9.433-4.223-9.444-9.444h-0.011v-0.011
	c0-0.117,0.011-0.233,0.021-0.361c0.053-12.076,2.557-23.971,7.29-34.763c-3.608-3.969-8.818-5.635-13.742-4.107l-0.021-0.032
	c-3.077,0.955-6.568,0.308-9.136-2.016c-3.863-3.502-4.16-9.476-0.658-13.338c0,0,0,0,0.011,0
	c3.396-3.746,7.004-7.173,10.802-10.272c-0.149-0.584-0.265-1.178-0.318-1.804c-0.297-3.544-0.446-7.195-0.446-10.834
	c0-25.106,5.645-49.544,16.14-70.852c-0.17-0.042-0.34-0.064-0.509-0.117c-16.278-4.711-33.203-7.11-50.298-7.11
	c-37.087,0-72.709,11.163-103.004,32.28c-12.988,9.03-24.767,19.78-35.007,31.919c-3.491,4.138-6.823,8.489-9.932,12.925
	c-10.516,15.015-18.623,31.463-24.141,48.876c-2.833,8.945-6.452,28.492-6.462,28.884l-0.011,117.531
	c0,3.183,2.589,5.773,5.762,5.773h54.213v-5.773c0-0.149-0.011-0.286-0.021-0.435c-0.233-2.992-2.759-5.327-5.741-5.327H63.424
	c-5.794,0-10.495-4.69-10.495-10.495v-20.183c0-3.512,1.761-6.802,4.69-8.744c17.541-11.641,30.115-29.202,35.399-49.438
	c1.22-4.616,5.38-7.842,10.155-7.842h99.842c5.804,0,10.495,4.701,10.495,10.495v91.969c0,3.183,2.6,5.773,5.762,5.773h54.213
	v-5.773c0-0.149-0.011-0.286-0.021-0.435c-0.233-2.992-2.748-5.327-5.741-5.327h-11.789c-5.794,0-10.495-4.69-10.495-10.495v-75.712
	c0-5.794,4.701-10.495,10.495-10.495h52.855C314.478,360.14,320.038,358.909,325.121,356.596z M298.158,143.604
	c-1.04-1.146-2.101-2.271-3.215-3.385c-12.256-12.256-27.059-20.172-37.723-20.172h-0.011c-2.154,0.011-5.083,0.371-6.812,2.101
	c-5.412,5.412-1.061,25.457,18.05,44.568c0.424,0.424,0.87,0.838,1.305,1.263C278.092,158.312,287.589,150.162,298.158,143.604z
	 M133.799,450.867v-5.762c0-3.183-2.579-5.773-5.773-5.773h-11.768c-5.794,0-10.495-4.711-10.495-10.505v-35.336
	c-7.417,14.951-18.283,28.025-31.845,38.127v4.234h1.284c10.431,0,19.631,6.112,24.013,15.015H133.799z M107.164,171.406V151.33
	c-0.838,0.244-1.687,0.488-2.579,0.711c-10.951,2.812-25.34,4.361-40.504,4.361s-29.553-1.549-40.504-4.361
	c-0.881-0.233-1.74-0.467-2.579-0.711v20.077c5.062,2.621,20.225,6.367,43.082,6.367
	C86.949,177.773,102.102,174.027,107.164,171.406z M107.164,129.046v-20.087c-0.838,0.244-1.698,0.488-2.579,0.711
	c-10.951,2.812-25.34,4.372-40.504,4.372s-29.553-1.56-40.504-4.372c-0.881-0.223-1.74-0.467-2.579-0.711v20.087
	c5.083,2.621,20.236,6.356,43.082,6.356C86.949,135.402,102.102,131.667,107.164,129.046z M107.164,86.685v-0.509
	c0-23.759-19.323-43.082-43.082-43.082C40.334,43.094,21,62.417,21,86.176v0.509c5.062,2.61,20.225,6.367,43.082,6.367
	C86.949,93.052,102.102,89.296,107.164,86.685z M84.551,205.235c5.03-3.512,10.208-6.77,15.493-9.784
	c-10.251,2.144-22.814,3.311-35.962,3.311c-15.164,0-29.553-1.549-40.504-4.361c-0.881-0.223-1.74-0.467-2.579-0.711v20.087
	c5.083,2.61,20.236,6.356,43.082,6.356c0.541,0,1.082,0,1.624-0.011C71.69,214.796,77.972,209.809,84.551,205.235z M45.501,240.868
	c0.138-0.18,0.297-0.34,0.435-0.52c-8.16-0.711-15.705-1.889-22.093-3.512c-0.753-0.191-1.73-0.446-2.844-0.753v41.236
	c3.979-7.608,8.457-14.962,13.402-22.04C37.872,250.333,41.607,245.473,45.501,240.868z"/>
<path style="fill:#B2ABAC;" d="M482.795,122.159c5.401,5.401,1.061,25.446-18.05,44.557c-0.424,0.424-0.87,0.838-1.305,1.263
	c-8.341-9.667-17.838-17.816-28.407-24.374c1.04-1.146,2.101-2.271,3.215-3.385c12.256-12.256,27.059-20.172,37.723-20.172h0.011
	C478.137,120.058,481.066,120.419,482.795,122.159z"/>
<g>
	<path style="fill:#FFFFFF;" d="M464.841,208.429c7.842,16.554,12.362,35.272,13.052,54.648
		c-14.166-9.815-30.815-15.482-48.441-16.299c-0.35-0.053-0.69-0.085-1.051-0.096c-6.186-0.212-11.927-2.812-16.161-7.332
		c-4.234-4.531-6.441-10.431-6.239-16.628c0.414-12.521,10.739-22.411,23.165-22.411c0.265,0,0.52,0,0.785,0.011
		C442.154,200.725,453.879,203.453,464.841,208.429z M439.671,223.858c0.191-5.794-4.351-10.654-10.144-10.845
		c-5.783-0.191-10.643,4.351-10.834,10.144c-0.191,5.783,4.34,10.643,10.134,10.834C434.62,234.183,439.48,229.641,439.671,223.858z
		"/>
	<path style="fill:#FFFFFF;" d="M480.132,291.039c-5.698,3.141-10.579,8.075-13.901,14.474c-1.475,2.854-1.358,6.102,0.021,8.744
		c1.719,3.279,3.162,6.738,4.308,10.304c-8.118-3.926-16.978-6.006-26.136-6.006c-17.392,0-33.702,7.428-45.915,20.904
		c0,0,0,0.011-0.011,0.011c-8.595,9.465-19.918,14.686-31.898,14.686c-12.001,0-23.334-5.221-31.919-14.697
		c-3.056-3.374-6.367-6.367-9.879-8.956c-3.523-2.589-7.248-4.775-11.142-6.547c-7.778-3.534-16.204-5.401-24.894-5.401
		c-9.158,0-18.007,2.08-26.136,6.006c1.157-3.576,2.589-7.025,4.319-10.304h-0.011c1.39-2.642,1.507-5.889,0.032-8.744
		c-3.311-6.388-8.192-11.322-13.89-14.474c11.471-7.534,24.565-11.566,38.19-11.566c17.933,0,34.933,6.982,48.536,19.769
		c-2.122,3.682-3.321,7.863-3.321,12.288c0,14.856,13.508,26.953,30.104,26.953c16.607,0,30.115-12.097,30.115-26.953
		c0-4.595-1.284-8.914-3.555-12.702c13.614-12.617,30.571-19.504,48.43-19.504C455.344,279.324,468.566,283.398,480.132,291.039z"/>
</g>
<path style="fill:#663333;" d="M429.526,213.013c5.794,0.191,10.335,5.051,10.144,10.845c-0.191,5.783-5.051,10.325-10.845,10.134
	s-10.325-5.051-10.134-10.834C418.883,217.364,423.743,212.822,429.526,213.013z"/>
<path style="fill:#B2ABAC;" d="M414.596,156.285c13.296,6.409,24.894,15.588,34.572,27.335c-6.07-1.242-12.277-1.974-18.591-2.186
	c-23.154-0.753-42.679,17.466-43.454,40.663c-0.382,11.237,3.64,21.944,11.322,30.157c5.2,5.56,11.662,9.518,18.782,11.609
	c-14.315,4.128-27.558,11.895-38.795,22.878c-3.64-1.39-7.64-2.175-11.842-2.175c-4.383,0-8.542,0.859-12.299,2.366
	c-11.195-10.993-24.396-18.761-38.668-22.899c7.343-2.048,14.018-6.07,19.355-11.779c7.683-8.213,11.704-18.92,11.333-30.157
	c-0.775-23.196-20.268-41.395-43.464-40.663c-6.409,0.223-12.712,0.976-18.878,2.239c9.688-11.768,21.308-20.968,34.614-27.388
	c0.127-0.064,0.255-0.127,0.382-0.191c14.336-6.855,30.359-10.335,47.634-10.335c17.265,0,33.288,3.481,47.624,10.335
	C414.352,156.158,414.479,156.221,414.596,156.285z"/>
<path style="fill:#FFFFFF;" d="M327.424,222.723c0.212,6.197-2.006,12.097-6.24,16.628c-4.234,4.52-9.964,7.12-16.161,7.332
	c-0.35,0.011-0.7,0.042-1.04,0.096c-17.742,0.817-34.466,6.547-48.685,16.469c0.658-19.387,5.157-38.116,12.988-54.68
	c11.046-5.062,22.867-7.842,35.187-8.245C316.229,199.877,326.999,209.947,327.424,222.723z M304.599,233.992
	c5.794-0.191,10.335-5.051,10.134-10.834c-0.191-5.794-5.04-10.335-10.834-10.144c-5.794,0.191-10.335,5.051-10.144,10.845
	C293.956,229.641,298.805,234.183,304.599,233.992z"/>
<g>
	<path style="fill:#B2ABAC;" d="M326.331,445.105v5.762h-34.593c-4.393-8.903-13.583-15.015-24.013-15.015h-1.295v-54.723h31.855
		v47.698c0,5.794,4.701,10.505,10.495,10.505h11.779C323.742,439.332,326.331,441.922,326.331,445.105z"/>
	<path style="fill:#B2ABAC;" d="M320.686,352.149c1.422,1.56,2.908,3.045,4.436,4.446c-5.083,2.313-10.643,3.544-16.331,3.544
		h-52.855c-5.794,0-10.495,4.701-10.495,10.495v75.712c0,5.804,4.701,10.495,10.495,10.495h11.789c2.992,0,5.507,2.335,5.741,5.327
		c0.011,0.149,0.021,0.286,0.021,0.435v5.773h-54.213c-3.162,0-5.762-2.589-5.762-5.773v-91.969c0-5.794-4.69-10.495-10.495-10.495
		h-99.842c-4.775,0-8.935,3.226-10.155,7.842c-5.284,20.236-17.859,37.798-35.399,49.438c-2.929,1.942-4.69,5.231-4.69,8.744v20.183
		c0,5.804,4.701,10.495,10.495,10.495h11.779c2.982,0,5.507,2.335,5.741,5.327c0.011,0.149,0.021,0.286,0.021,0.435v5.773H26.751
		c-3.173,0-5.762-2.589-5.762-5.773L21,345.072c0.011-0.393,3.629-19.939,6.462-28.884c5.518-17.413,13.625-33.861,24.141-48.876
		c3.109-4.436,6.441-8.786,9.932-12.925c10.24-12.139,22.019-22.889,35.007-31.919c30.295-21.117,65.918-32.28,103.004-32.28
		c17.095,0,34.02,2.398,50.298,7.11c0.17,0.053,0.34,0.074,0.509,0.117c-10.495,21.308-16.14,45.746-16.14,70.852
		c0,3.64,0.149,7.29,0.446,10.834c0.053,0.626,0.17,1.22,0.318,1.804c-3.799,3.099-7.407,6.526-10.802,10.272
		c-0.011,0-0.011,0-0.011,0c-3.502,3.863-3.205,9.837,0.658,13.338c2.568,2.324,6.059,2.971,9.136,2.016l0.021,0.032
		c4.924-1.528,10.134,0.138,13.742,4.107c-4.733,10.792-7.237,22.687-7.29,34.763c-0.011,0.127-0.021,0.244-0.021,0.361v0.011h0.011
		c0.011,5.221,4.234,9.444,9.444,9.444c2.78,0,5.263-1.199,6.993-3.099c0.053-0.074,0.117-0.138,0.18-0.202
		c8.574-9.349,19.822-14.495,31.728-14.495c11.991,0,23.334,5.21,31.919,14.686L320.686,352.149L320.686,352.149z M122.232,249.676
		c4.881-3.12,6.303-9.614,3.183-14.495s-9.614-6.303-14.495-3.183c-6.77,4.329-13.275,9.2-19.334,14.474
		c-19.992,17.392-35.644,39.58-45.289,64.167c-0.86,2.207-1.687,4.467-2.462,6.706c-1.878,5.486,1.04,11.46,6.526,13.338
		c1.125,0.382,2.281,0.562,3.406,0.562c4.361,0,8.436-2.738,9.922-7.088c0.679-1.963,1.401-3.937,2.154-5.847
		c8.404-21.456,22.072-40.822,39.527-56.007C110.645,257.708,116.322,253.453,122.232,249.676z"/>
</g>
<path style="fill:#663333;" d="M314.733,223.158c0.202,5.783-4.34,10.643-10.134,10.834c-5.794,0.191-10.643-4.351-10.845-10.134
	c-0.191-5.794,4.351-10.654,10.144-10.845C309.692,212.822,314.542,217.364,314.733,223.158z"/>
<g>
	<path style="fill:#B2ABAC;" d="M294.943,140.219c1.114,1.114,2.175,2.239,3.215,3.385c-10.569,6.558-20.066,14.707-28.407,24.374
		c-0.435-0.424-0.881-0.838-1.305-1.263c-19.111-19.111-23.462-39.156-18.05-44.568c1.73-1.73,4.658-2.09,6.812-2.101h0.011
		C267.884,120.047,282.686,127.963,294.943,140.219z"/>
	<path style="fill:#B2ABAC;" d="M133.799,445.105v5.762H99.216c-4.382-8.903-13.583-15.015-24.013-15.015h-1.284v-4.234
		c13.561-10.102,24.427-23.175,31.845-38.127v35.336c0,5.794,4.701,10.505,10.495,10.505h11.768
		C131.22,439.332,133.799,441.922,133.799,445.105z"/>
</g>
<path style="fill:#663333;" d="M125.416,235.18c3.12,4.881,1.698,11.375-3.183,14.495c-5.911,3.778-11.588,8.033-16.861,12.628
	c-17.456,15.185-31.123,34.551-39.527,56.007c-0.753,1.91-1.475,3.884-2.154,5.847c-1.486,4.351-5.56,7.088-9.922,7.088
	c-1.125,0-2.281-0.18-3.406-0.562c-5.486-1.878-8.404-7.852-6.526-13.338c0.775-2.239,1.602-4.499,2.462-6.706
	c9.646-24.587,25.297-46.775,45.289-64.167c6.059-5.274,12.564-10.144,19.334-14.474
	C115.802,228.877,122.296,230.299,125.416,235.18z"/>
<path style="fill:#B2ABAC;" d="M107.164,151.33v20.077c-5.062,2.621-20.215,6.367-43.082,6.367c-22.857,0-38.02-3.746-43.082-6.367
	V151.33c0.838,0.244,1.698,0.478,2.579,0.711c10.951,2.812,25.34,4.361,40.504,4.361s29.553-1.549,40.504-4.361
	C105.477,151.818,106.326,151.574,107.164,151.33z"/>
<path style="fill:#FFFFFF;" d="M107.164,108.958v20.087c-5.062,2.621-20.215,6.356-43.082,6.356
	c-22.846,0-37.999-3.735-43.082-6.356v-20.087c0.838,0.244,1.698,0.488,2.579,0.711c10.951,2.812,25.34,4.372,40.504,4.372
	s29.553-1.56,40.504-4.372C105.466,109.447,106.326,109.202,107.164,108.958z"/>
<path style="fill:#B2ABAC;" d="M107.164,86.176v0.509c-5.062,2.61-20.215,6.367-43.082,6.367c-22.857,0-38.02-3.756-43.082-6.367
	v-0.509c0-23.759,19.334-43.082,43.082-43.082C87.841,43.094,107.164,62.417,107.164,86.176z"/>
<path style="fill:#FFFFFF;" d="M100.044,195.452c-5.284,3.014-10.463,6.271-15.493,9.784c-6.579,4.573-12.861,9.561-18.846,14.888
	c-0.541,0.011-1.082,0.011-1.624,0.011c-22.846,0-37.999-3.746-43.082-6.356V193.69c0.838,0.244,1.698,0.488,2.579,0.711
	c10.951,2.812,25.34,4.361,40.504,4.361C77.229,198.762,89.793,197.595,100.044,195.452z"/>
<path style="fill:#B2ABAC;" d="M45.937,240.348c-0.138,0.18-0.297,0.34-0.435,0.52c-3.894,4.605-7.63,9.465-11.099,14.41
	c-4.945,7.078-9.423,14.431-13.402,22.04v-41.236c1.114,0.308,2.09,0.562,2.844,0.753C30.232,238.459,37.776,239.637,45.937,240.348
	z"/>
<g>
</g>
<g>
</g>
<g>
</g>
<g>
</g>
<g>
</g>
<g>
</g>
<g>
</g>
<g>
</g>
<g>
</g>
<g>
</g>
<g>
</g>
<g>
</g>
<g>
</g>
<g>
</g>
<g>
</g>
</svg>
