<?xml version="1.0" encoding="iso-8859-1"?>
<!-- Generator: Adobe Illustrator 19.0.0, SVG Export Plug-In . SVG Version: 6.00 Build 0)  -->
<svg version="1.1" id="Layer_1" xmlns="http://www.w3.org/2000/svg" xmlns:xlink="http://www.w3.org/1999/xlink" x="0px" y="0px"
	 viewBox="0 0 511.449 511.449" style="enable-background:new 0 0 511.449 511.449;" xml:space="preserve">
<path style="fill:#663333;" d="M500.43,71.843c6.082,0,11.019,4.936,11.019,11.019c0,31.624-8.705,62.532-25.134,89.396
	c-27.172,44.417-73.165,74.068-124.358,80.68c-0.286,2.138-0.628,4.264-1.08,6.358c-7.702,35.47-39.69,61.221-76.041,61.221
	c-4.363,0-8.815-0.386-13.256-1.146c-4.011-0.683-7.316-3.515-8.606-7.383c-1.289-3.857-0.342-8.11,2.457-11.063
	c9.884-10.413,15.327-24.043,15.327-38.39c0-2.755-0.198-5.487-0.595-8.176h-64.89c-3.03,18.875-12.947,35.976-28.175,47.987
	c-3.284,2.556-6.909,4.936-10.831,7.14c-1.686,0.948-3.537,1.41-5.399,1.41c-2.094,0-4.187-0.595-6.016-1.785
	c-3.438-2.237-4.705-6.193-4.947-10.281c-0.727-11.878-3.537-22.864-4.275-24.682c-1.917,1.609-3.14,2.733-4.914,4.507
	c-0.011,0.022-0.022,0.033-0.044,0.044c-17.399,17.41-26.004,41.254-24.01,65.408c38.092-5.256,76.944,6.446,105.748,32.329
	c3.085,2.777,5.939,5.598,8.705,8.628c3.361,3.669,3.846,9.135,1.179,13.333c-2.667,4.209-7.812,6.104-12.572,4.628
	c-26.445-8.198-55.568-5.829-80.514,6.413c-9.52,26.115-8.76,55.325,2.204,80.746c1.972,4.573,0.639,9.895-3.251,12.991
	c-2.005,1.587-4.43,2.391-6.865,2.391c-6.27,0-12.947-7.107-16.032-9.873c-29.883-26.853-45.75-66.069-43.216-106.012
	C31.271,358.607,0,303.194,0,243.328C0,148.787,76.911,71.854,171.475,71.843h37.442c-7.625-16.98-18.291-32.693-31.349-46.048
	c-4.253-4.341-4.187-11.327,0.165-15.581c1.807-1.763,4.066-2.777,6.391-3.052l-0.011-0.011c6.964-0.837,14.214-1.267,21.553-1.267
	c54.587,0,105.097,23.955,139.575,65.959H500.43z M488.993,93.88l-148.644,0.507c-3.317,0-6.589-1.488-8.76-4.308
	C301.86,51.293,257.08,28.77,208.399,27.955c11.735,15.581,20.969,33.023,27.106,51.425c1.928,5.763-1.521,11.217-6.964,13.928
	c-2.722,1.366-57.066,0.573-57.066,0.573C89.065,93.891,22.038,160.93,22.038,243.328c0,54.268,29.464,104.359,76.889,130.716
	c3.79,2.094,5.84,6.082,5.653,10.137c0,0.452-0.011,0.926-0.066,1.388c-2.876,25.167,3.118,50.29,16.396,71.182
	c-1.465-20.043,1.631-40.428,9.289-59.281c0.342-0.837,1.785-3.879,5.08-5.653c17.917-9.641,37.861-14.875,57.948-15.559
	c-22.082-10.92-47.546-14.214-72.151-8.782c-0.43,0.154-2.865,0.628-3.636,0.628c-5.08,0-9.652-3.548-10.765-8.727
	c-7.471-35.007,3.151-70.994,28.418-96.26c0,0,0.011,0,0.011-0.011c0,0,0,0,0.011,0c5.631-5.653,11.922-10.666,18.677-14.875h0.011
	c5.003-3.471,11.867-2.226,15.338,2.777c0.65,0.948,6.038,14.986,9.179,30.335c8.496-9.597,15.647-25.002,15.922-38.147
	c0.121-5.851,4.793-10.512,10.567-10.765c0.099,0,84.173-0.11,84.173-0.11h0.011c4.738,0,9.124,3.074,10.545,7.856
	c2.171,7.217,3.262,14.743,3.262,22.357c0,12.352-2.887,24.319-8.341,35.095c21.916-3.89,40.053-20.781,44.88-43.017
	c0.837-3.835,1.267-7.779,1.289-11.746c0.022-6.06,4.936-10.953,10.975-10.975v-0.022c38.962-3.008,75.005-21.332,100.536-50.29
	h-46.918c-6.325,0-11.404-5.333-10.997-11.746c0.386-5.862,5.509-10.292,11.371-10.292h62.642
	C480.189,139.575,487.296,117.108,488.993,93.88z"/>
<path style="fill:#4EC8D8;" d="M340.349,94.387l148.644-0.507c-1.697,23.228-8.804,45.695-20.759,65.661h-62.642
	c-5.862,0-10.986,4.43-11.371,10.292c-0.408,6.413,4.672,11.746,10.997,11.746h46.918c-25.531,28.957-61.573,47.282-100.536,50.29
	v0.022c-6.038,0.022-10.953,4.914-10.975,10.975c-0.022,3.967-0.452,7.911-1.289,11.746c-4.826,22.236-22.963,39.128-44.88,43.017
	c5.454-10.776,8.341-22.743,8.341-35.095c0-7.614-1.091-15.14-3.262-22.357c-1.421-4.782-5.807-7.856-10.545-7.856h-0.011
	c0,0-84.074,0.11-84.173,0.11c-5.774,0.253-10.446,4.914-10.567,10.765c-0.275,13.145-7.427,28.55-15.922,38.147
	c-3.14-15.349-8.529-29.387-9.179-30.335c-3.471-5.003-10.336-6.248-15.338-2.777h-0.011c-6.755,4.209-13.046,9.223-18.677,14.875
	c-0.011,0-0.011,0-0.011,0c0,0.011-0.011,0.011-0.011,0.011c-25.266,25.266-35.888,61.254-28.418,96.26
	c1.113,5.179,5.686,8.727,10.765,8.727c0.771,0,3.206-0.474,3.636-0.628c24.605-5.432,50.069-2.138,72.151,8.782
	c-20.087,0.683-40.031,5.917-57.948,15.559c-3.295,1.774-4.738,4.815-5.08,5.653c-7.658,18.853-10.754,39.238-9.289,59.281
	c-13.278-20.892-19.272-46.015-16.396-71.182c0.055-0.463,0.066-0.937,0.066-1.388c0.187-4.055-1.862-8.044-5.653-10.137
	c-47.425-26.357-76.889-76.449-76.889-130.716c0-82.399,67.027-149.437,149.437-149.448c0,0,54.345,0.793,57.066-0.573
	c5.443-2.711,8.892-8.165,6.964-13.928c-6.137-18.401-15.371-35.844-27.106-51.425c48.681,0.815,93.462,23.338,123.19,62.124
	C333.76,92.9,337.032,94.387,340.349,94.387z M440.896,125.03c0-5.719-4.639-10.347-10.358-10.347
	c-5.719,0-10.358,4.628-10.358,10.347s4.639,10.358,10.358,10.358C436.257,135.388,440.896,130.749,440.896,125.03z
	 M352.238,137.504c3.173-5.179,1.554-11.966-3.636-15.151c-5.19-3.173-11.977-1.543-15.162,3.647
	c-9.697,15.834-9.697,35.514,0,51.359c2.083,3.394,5.708,5.267,9.41,5.267c1.961,0,3.956-0.529,5.752-1.631
	c5.19-3.173,6.81-9.961,3.636-15.151C346.96,157.238,346.96,146.12,352.238,137.504z M310.268,137.504
	c3.173-5.179,1.543-11.966-3.647-15.151c-5.179-3.173-11.966-1.543-15.151,3.647c-9.697,15.834-9.697,35.514,0,51.359
	c2.083,3.394,5.708,5.267,9.41,5.267c1.961,0,3.945-0.529,5.741-1.631c5.19-3.173,6.821-9.961,3.647-15.151
	C304.99,157.238,304.99,146.12,310.268,137.504z M143.884,146.396c5.862-1.664,9.245-7.768,7.581-13.619
	c-1.675-5.851-7.768-9.245-13.619-7.57c-42.125,12.01-74.895,45.86-85.517,88.327c-1.477,5.906,2.116,11.889,8.022,13.366
	c0.893,0.231,10.809,1.829,13.355-8.011C82.707,184.102,109.318,156.258,143.884,146.396z"/>
<g>
	<path style="fill:#663333;" d="M430.538,114.684c5.719,0,10.358,4.628,10.358,10.347s-4.639,10.358-10.358,10.358
		c-5.719,0-10.358-4.639-10.358-10.358S424.819,114.684,430.538,114.684z"/>
	<path style="fill:#663333;" d="M348.602,122.353c5.19,3.184,6.81,9.972,3.636,15.151c-5.278,8.617-5.278,19.735,0,28.34
		c3.173,5.19,1.554,11.977-3.636,15.151c-1.796,1.102-3.79,1.631-5.752,1.631c-3.702,0-7.328-1.873-9.41-5.267
		c-9.697-15.845-9.697-35.525,0-51.359C336.625,120.81,343.412,119.179,348.602,122.353z"/>
	<path style="fill:#663333;" d="M306.62,122.353c5.19,3.184,6.821,9.972,3.647,15.151c-5.278,8.617-5.278,19.735,0,28.34
		c3.173,5.19,1.543,11.977-3.647,15.151c-1.796,1.102-3.779,1.631-5.741,1.631c-3.702,0-7.328-1.873-9.41-5.267
		c-9.697-15.845-9.697-35.525,0-51.359C294.654,120.81,301.442,119.179,306.62,122.353z"/>
	<path style="fill:#663333;" d="M151.465,132.777c1.664,5.851-1.719,11.955-7.581,13.619c-34.566,9.862-61.176,37.706-70.179,72.493
		c-2.545,9.84-12.462,8.242-13.355,8.011c-5.906-1.477-9.498-7.46-8.022-13.366c10.622-42.466,43.392-76.316,85.517-88.327
		C143.696,123.532,149.79,126.926,151.465,132.777z"/>
</g>
<g>
</g>
<g>
</g>
<g>
</g>
<g>
</g>
<g>
</g>
<g>
</g>
<g>
</g>
<g>
</g>
<g>
</g>
<g>
</g>
<g>
</g>
<g>
</g>
<g>
</g>
<g>
</g>
<g>
</g>
</svg>
