<?xml version="1.0" encoding="UTF-8" standalone="no"?>
<!-- Created with Inkscape (http://www.inkscape.org/) -->
<svg xmlns:rdf="http://www.w3.org/1999/02/22-rdf-syntax-ns#" xmlns="http://www.w3.org/2000/svg" xmlns:cc="http://web.resource.org/cc/" xmlns:dc="http://purl.org/dc/elements/1.1/" xmlns:svg="http://www.w3.org/2000/svg" xmlns:inkscape="http://www.inkscape.org/namespaces/inkscape" xmlns:sodipodi="http://sodipodi.sourceforge.net/DTD/sodipodi-0.dtd" xmlns:ns1="http://sozi.baierouge.fr" xmlns:xlink="http://www.w3.org/1999/xlink" id="svg2" viewBox="0 0 269.8 257.64" version="1.0" inkscape:version="0.91 r13725">
  <path id="path2383" style="stroke-linejoin:round;stroke:#000000;stroke-linecap:round;stroke-width:4;fill:#939dac" d="m243.77 129.57c0.01 60.51-49.03 109.57-109.54 109.57-60.509 0-109.56-49.06-109.54-109.57-0.016-60.509 49.031-109.57 109.54-109.57 60.51 0 109.55 49.061 109.54 109.57z"/>
  <path id="path3353" style="fill:#000000;fill-opacity:.31373" d="m243.34 139.16c-20.83 45.69-66.93 77.46-120.43 77.46-30.331 0-58.255-10.21-80.566-27.37 19.534 30.03 53.378 49.87 91.876 49.87 57.28 0 104.28-43.94 109.12-99.96z"/>
  <path id="path3245" style="stroke-linejoin:round;stroke:#000000;stroke-linecap:round;stroke-width:4;fill:#939dac" d="m50.172 230.07c-0.006 22.68 18.377 25.57 41.057 25.57 22.681 0 41.061-2.89 41.061-25.57s-19.15-35.2-41.061-41.07c-34.081-9.13-41.063 18.39-41.057 41.07z"/>
  <path id="path3239" style="stroke-linejoin:round;stroke:#000000;stroke-linecap:round;stroke-width:4;fill:#ffffff" d="m123.19 242.86c1.64 6.13-3.25 8.27-9.55 9.96-6.29 1.69-11.61 2.27-13.25-3.85-1.641-6.13 2.13-12.47 8.43-14.15 6.29-1.69 12.73 1.91 14.37 8.04z"/>
  <path id="path3307" style="fill:#000000;fill-opacity:.31373" d="m225.27 104.57c0.02 47.81-38.73 86.57-86.54 86.57-47.808 0-86.559-38.76-86.544-86.57-0.015-47.807 38.736-86.57 86.544-86.57 47.81 0 86.56 38.763 86.54 86.57z"/>
  <path id="path2400" style="stroke-linejoin:round;stroke:#000000;stroke-linecap:round;stroke-width:4;fill:#939dac" d="m265.51 90.103c-8.95 33.437-36.06 55.237-60.55 48.677-24.48-6.56-37.06-38.991-28.09-72.429 8.95-33.441 29.98-32.537 54.46-25.977 24.49 6.56 43.15 16.292 34.18 49.729z"/>
  <path id="path3218" style="stroke-linejoin:round;stroke:#000000;stroke-linecap:round;stroke-width:4;fill:#939dac" d="m4.2862 90.103c8.9528 33.437 36.063 55.237 60.547 48.677 24.483-6.56 37.067-38.991 28.096-72.429-8.953-33.441-29.981-32.537-54.464-25.977s-43.146 16.292-34.179 49.729z"/>
  <path id="path3309" style="fill:#000000;fill-opacity:.31373" d="m198.94 38.179c-9.74 2.974-17.48 11.084-22.06 28.188-8.97 33.437 3.61 65.843 28.09 72.403 2.67 0.72 5.36 1.06 8.07 1.13 6.68-12.28 10.47-26.38 10.46-41.346 0.01-23.492-9.37-44.777-24.56-60.375z"/>
  <path id="path3314" style="fill:#000000;fill-opacity:.31373" d="m205.16 43.242c-14.77-0.154-26.63 6.634-32.78 29.625-4.97 18.526-3.34 36.723 3.28 50.403 4.97-23.475 27.2-52.561 60.06-53.997 13.33-0.582 28.81 8.047 24.32-2.469-4.5-10.515-18.42-15.97-33.22-19.937-7.65-2.05-14.95-3.555-21.66-3.625z"/>
  <path id="path3321" style="fill:#000000;fill-opacity:.31373" d="m65.15 43.242c14.769-0.154 26.627 6.634 32.782 29.625 4.968 18.526 3.338 36.723-3.282 50.403-4.964-23.475-27.197-52.561-60.062-53.997-13.328-0.582-28.809 8.047-24.313-2.469 4.496-10.515 18.412-15.97 33.219-19.937 7.651-2.05 14.943-3.555 21.656-3.625z"/>
  <path id="path2398" style="stroke-linejoin:round;stroke:#000000;stroke-linecap:round;stroke-width:4;fill:#939dac" d="m220.77 88.569c0.02 47.811-38.73 86.571-86.54 86.571-47.808 0-86.559-38.76-86.544-86.571-0.015-47.806 16.077-86.569 86.544-86.569 71.88 0 86.56 38.763 86.54 86.569z"/>
  <path id="path3157" style="stroke-linejoin:round;stroke:#000000;stroke-linecap:round;stroke-width:4;fill:#ffffff" d="m130.6 72.099c0 12.519-10.14 22.67-22.66 22.67-12.522 0-22.67-10.151-22.666-22.67-0.004-12.519 10.144-22.669 22.666-22.669 12.52 0 22.66 10.15 22.66 22.669z"/>
  <path id="path3159" style="stroke-linejoin:round;stroke:#000000;stroke-linecap:round;stroke-width:4;fill:#ffffff" d="m183.33 72.099c0.01 12.519-10.14 22.67-22.66 22.67s-22.67-10.151-22.66-22.67c-0.01-12.519 10.14-22.669 22.66-22.669s22.67 10.15 22.66 22.669z"/>
  <path id="path3161" style="fill:#000000" d="m163.19 76.099c0 4.173-3.38 7.557-7.56 7.557-4.17 0-7.55-3.384-7.55-7.557s3.38-7.556 7.55-7.556c4.18 0 7.56 3.383 7.56 7.556z"/>
  <path id="path3163" style="fill:#000000" d="m121.16 76.099c0 4.173-3.38 7.557-7.56 7.557-4.17 0-7.55-3.384-7.55-7.557s3.38-7.556 7.55-7.556c4.18 0 7.56 3.383 7.56 7.556z"/>
  <path id="path3220" style="stroke-linejoin:round;stroke:#000000;stroke-linecap:round;stroke-width:4;fill:#939dac" d="m224.29 230.07c0 22.68-18.38 25.57-41.06 25.57s-41.06-2.89-41.06-25.57 19.15-35.2 41.06-41.07c34.08-9.13 41.06 18.39 41.06 41.07z"/>
  <path id="path3297" style="fill:#000000;fill-opacity:.31373" d="m104.22 193.49c5.62 7.36 9.07 16.56 9.07 27.91 0 26.82-18.387 30.25-41.066 30.25-3.51 0-6.905-0.11-10.157-0.35 7.44 3.61 17.752 4.35 29.157 4.35 22.676 0 41.066-2.92 41.066-25.6 0-18.02-12.1-29.61-28.07-36.56z"/>
  <path id="path2404" style="stroke-linejoin:round;stroke:#000000;stroke-linecap:round;stroke-width:4;fill:#939dac" d="m157.46 220.5c0 15.78-12.8 28.58-28.58 28.58-15.79 0-28.59-12.8-28.58-28.58-0.01-15.79 12.79-28.59 28.58-28.59 15.78 0 28.58 12.8 28.58 28.59z"/>
  <path id="path3241" style="stroke-linejoin:round;stroke:#000000;stroke-linecap:round;stroke-width:4;fill:#ffffff" d="m81.746 249.5c-1.64 6.13-6.952 5.54-13.248 3.85s-11.19-3.83-9.546-9.96c1.64-6.13 8.074-9.73 14.37-8.04s10.068 8.02 8.424 14.15z"/>
  <path id="path3302" style="fill:#000000;fill-opacity:.31373" d="m219.25 72.461c-4.93 47.579-45.14 84.689-94.03 84.689-26.647 0-50.717-11.04-67.903-28.78 14.4 27.79 43.443 46.78 76.903 46.78 47.81 0 86.58-38.79 86.57-86.596 0-5.504-0.55-10.875-1.54-16.093z"/>
  <path id="path3188" style="fill-rule:evenodd;fill:#939dac" d="m157.39 218.99h-45.68c7.66-63.28-7.36-94.75-7.36-94.75h60.4s-15.02 32.17-7.36 94.75z"/>
  <path id="path3183" style="stroke:#000000;stroke-linecap:round;stroke-width:4;fill:none" d="m164.75 124.24s-15.02 32.17-7.36 94.75m-45.68 0c7.66-63.28-7.36-94.75-7.36-94.75"/>
  <path id="path3190" style="stroke-linejoin:round;fill-rule:evenodd;stroke:#000000;stroke-width:4;fill:#ffffff" d="m187.44 131.78c6.52 5.2 6.05 33.51 2.19 38.21-3.87 4.69-26.86-23.58-22.93-32.29 4.13-9.16 14.61-10.82 20.74-5.92z"/>
  <path id="path3192" style="stroke:#000000;stroke-linecap:round;stroke-width:4;fill:none" d="m118.69 113.03c14.5-14.499 31-0.5 31-0.5"/>
  <path id="path3194" style="stroke:#000000;stroke-linecap:round;stroke-width:4;fill:none" d="m123.66 135.53c9.85-7.89 21.07-0.27 21.07-0.27"/>
  <path id="path3196" style="stroke:#000000;stroke-linecap:round;stroke-width:4;fill:none" d="m125.31 158.03c8.31-5.68 17.76-0.2 17.76-0.2"/>
  <path id="path3214" style="stroke-linejoin:round;fill-rule:evenodd;stroke:#000000;stroke-width:4;fill:#ffffff" d="m80.765 131.78c-6.52 5.2-6.053 33.51-2.187 38.21 3.866 4.69 26.852-23.58 22.922-32.29-4.129-9.16-14.602-10.82-20.735-5.92z"/>
  <path id="path3235" style="stroke-linejoin:round;stroke:#000000;stroke-linecap:round;stroke-width:4;fill:#ffffff" d="m216.19 242.86c1.64 6.13-3.25 8.27-9.55 9.96-6.29 1.69-11.61 2.27-13.25-3.85-1.64-6.13 2.13-12.47 8.43-14.15 6.29-1.69 12.73 1.91 14.37 8.04z"/>
  <path id="path3237" style="stroke-linejoin:round;stroke:#000000;stroke-linecap:round;stroke-width:4;fill:#ffffff" d="m174.75 249.5c-1.64 6.13-6.96 5.54-13.25 3.85-6.3-1.69-11.19-3.83-9.55-9.96s8.08-9.73 14.37-8.04c6.3 1.69 10.07 8.02 8.43 14.15z"/>
  <path id="path3224" style="stroke-linejoin:round;stroke:#000000;stroke-linecap:round;stroke-width:4;fill:#ffffff" d="m195.03 248.49c0 6.34-5.28 7.15-11.8 7.15s-11.8-0.81-11.8-7.15c0-6.35 5.28-11.49 11.8-11.49s11.8 5.14 11.8 11.49z"/>
  <path id="path3243" style="stroke-linejoin:round;stroke:#000000;stroke-linecap:round;stroke-width:4;fill:#ffffff" d="m102.03 248.49c0 6.34-5.283 7.15-11.801 7.15s-11.801-0.81-11.799-7.15c-0.002-6.35 5.281-11.49 11.799-11.49s11.801 5.14 11.801 11.49z"/>
  <path id="path3287" style="fill:#000000;fill-opacity:.31373" d="m155.32 209.62c-0.41 15.42-13.04 27.81-28.57 27.81-11.94 0-22.16-7.35-26.43-17.75-0.01 0.27-0.03 0.54-0.03 0.81-0.01 15.79 12.8 28.6 28.59 28.6s28.57-12.81 28.56-28.6c0-3.85-0.74-7.52-2.12-10.87z"/>
  <path id="path3358" style="fill:#000000;fill-opacity:.31373" d="m201.75 187.81c10.56 8.16 13.35 24.67 13.34 39.25 0.01 23.47-19 26.47-42.47 26.47-5.09 0-9.94-0.16-14.46-0.62 6.93 2.22 15.62 2.71 25.06 2.71 22.68 0 41.07-2.88 41.06-25.56 0.01-17.77-4.28-38.49-22.53-42.25z"/>
  <path id="path3363" style="fill-rule:evenodd;fill:#000000;fill-opacity:.31373" d="m94.656 130.47c0.777 0.84 1.503 1.81 2.125 2.91 4.549 7.97-13.959 36.28-19.219 34.65 0.306 0.85 0.629 1.52 1 1.97 3.867 4.7 26.868-23.61 22.938-32.31-1.567-3.47-4.037-5.85-6.844-7.22z"/>
  <metadata>
    <rdf:RDF>
      <cc:Work>
        <dc:format>image/svg+xml</dc:format>
        <dc:type rdf:resource="http://purl.org/dc/dcmitype/StillImage"/>
        <cc:license rdf:resource="http://creativecommons.org/licenses/publicdomain/"/>
        <dc:publisher>
          <cc:Agent rdf:about="http://openclipart.org/">
            <dc:title>Openclipart</dc:title>
          </cc:Agent>
        </dc:publisher>
        <dc:title>Cartoon elephant</dc:title>
        <dc:date>2006-12-26T00:00:00</dc:date>
        <dc:description/>
        <dc:source>https://openclipart.org/detail/17810/-by--17810</dc:source>
        <dc:creator>
          <cc:Agent>
            <dc:title>lemmling</dc:title>
          </cc:Agent>
        </dc:creator>
      </cc:Work>
      <cc:License rdf:about="http://creativecommons.org/licenses/publicdomain/">
        <cc:permits rdf:resource="http://creativecommons.org/ns#Reproduction"/>
        <cc:permits rdf:resource="http://creativecommons.org/ns#Distribution"/>
        <cc:permits rdf:resource="http://creativecommons.org/ns#DerivativeWorks"/>
      </cc:License>
    </rdf:RDF>
  </metadata>
</svg>
