<?xml version="1.0" encoding="iso-8859-1"?>
<!-- Generator: Adobe Illustrator 19.0.0, SVG Export Plug-In . SVG Version: 6.00 Build 0)  -->
<svg version="1.1" id="Layer_1" xmlns="http://www.w3.org/2000/svg" xmlns:xlink="http://www.w3.org/1999/xlink" x="0px" y="0px"
	 viewBox="0 0 511.446 511.446" style="enable-background:new 0 0 511.446 511.446;" xml:space="preserve">
<path style="fill:#663333;" d="M511.441,409.976c0.255,25.873-9.658,50.284-27.9,68.714c-18.264,18.441-42.575,28.587-68.46,28.587
	H11.313c-3.489,0-6.778-1.65-8.872-4.441c-2.093-2.802-2.736-6.424-1.75-9.78c5.793-19.504,17.954-37.06,34.257-49.431
	c16.868-12.793,36.971-19.56,58.148-19.56h321.985c3.6,0,6.956-1.429,9.459-4.032c2.514-2.603,3.81-6.025,3.677-9.636
	c-0.266-6.956-6.413-12.626-13.723-12.626H97.45c-53.23,0-96.935-42.808-97.445-95.418c-0.255-25.884,9.658-50.284,27.9-68.714
	c18.264-18.441,42.575-28.598,68.46-28.598h173.79c7.244,0,13.136-5.903,13.136-13.147v-34.335
	c-7.875-13.047-12.183-29.451-12.183-46.629c0-18.785,5.128-36.594,14.454-50.14c3.81-5.538,8.163-10.157,12.903-13.756
	c4.729-3.6,9.869-6.191,15.262-7.687V15.245c0-6.114,4.962-11.076,11.076-11.076s11.076,4.962,11.076,11.076v24.068
	c10.832,2.968,20.623,10.345,28.299,21.476c9.315,13.546,14.454,31.356,14.454,50.14c0,17.112-4.286,33.471-12.117,46.496v34.468
	c0,53.131-43.229,96.359-96.359,96.359H96.951c-7.31,0-13.457,5.671-13.723,12.637c-0.133,3.611,1.163,7.022,3.677,9.625
	c2.503,2.603,5.859,4.043,9.459,4.043h317.632C467.226,314.558,510.932,357.354,511.441,409.976z M467.791,463.095
	c14.066-14.188,21.697-32.984,21.498-52.909c-0.388-40.515-34.158-73.477-75.293-73.477h-13.745
	c-4.907,19.205-22.362,33.449-43.085,33.449c-6.945,0-13.512-1.595-19.372-4.441c-5.859-2.846-11.009-6.944-15.085-11.951
	c-8.163,10.024-20.59,16.436-34.501,16.436s-26.349-6.424-34.512-16.448c-8.163,10.024-20.601,16.448-34.512,16.448
	c-6.945,0-13.524-1.595-19.383-4.441c-5.859-2.846-10.998-6.944-15.085-11.951c-8.163,10.024-20.59,16.436-34.501,16.436
	c-20.756,0-38.223-14.288-43.107-33.538H96.364c-9.669,0-18.696-3.843-25.419-10.821c-6.723-6.978-10.223-16.16-9.857-25.829
	c0.72-19.039,16.47-33.958,35.863-33.958h173.203c40.914,0,74.208-33.294,74.208-74.208v-37.68c0-2.204,0.653-4.353,1.872-6.18
	c2.902-4.331,5.239-9.293,6.933-14.698c1.706-5.405,2.769-11.253,3.157-17.334c-0.354,0.033-0.72,0.055-1.085,0.055
	c-6.634,0-12.017-5.383-12.017-12.017c0-3.134,1.196-5.981,3.168-8.119c1.96-2.138,4.685-3.566,7.742-3.843
	c-4.74-18.607-16.237-32.098-29.262-32.098h-0.066c-6.501,0.022-12.615,3.4-17.699,9.104c-5.084,5.693-9.138,13.701-11.497,22.993
	c6.125,0.554,10.921,5.693,10.921,11.962c0,6.634-5.383,12.017-12.017,12.017c-0.377,0-0.731-0.022-1.096-0.055
	c0.764,12.206,4.297,23.47,10.145,32.131c1.229,1.828,1.883,3.987,1.883,6.191v37.569c0,19.46-15.827,35.299-35.288,35.299h-7.875
	c-4.918,19.205-22.373,33.438-43.085,33.438c-13.889,0-26.305-6.402-34.457-16.414c-8.163,10.035-20.601,16.448-34.501,16.448
	c-20.734,0-38.189-14.255-43.096-33.471H96.364c-19.925,0-38.643,7.831-52.71,22.03c-14.066,14.199-21.697,32.995-21.498,52.92
	c0.388,40.515,34.158,73.477,75.293,73.477h317.045c19.394,0,35.144,14.908,35.863,33.947c0.365,9.68-3.134,18.851-9.857,25.829
	c-6.723,6.978-15.75,10.821-25.419,10.821h-14.786c-4.862,19.283-22.351,33.593-43.118,33.593c-13.889,0-26.305-6.402-34.468-16.403
	c-8.163,10.024-20.59,16.448-34.501,16.448c-13.9,0-26.338-6.424-34.501-16.459c-8.152,10.046-20.59,16.47-34.501,16.47
	c-13.889,0-26.305-6.402-34.468-16.414c-8.163,10.035-20.59,16.448-34.501,16.448c-20.8,0-38.3-14.354-43.14-33.682h-14
	c-27.413,0-52.444,15.429-65.248,38.909h387.232C435.007,485.125,453.725,477.305,467.791,463.095z M379.152,446.216h-43.96
	c4.021,8.085,12.361,13.656,21.985,13.656C366.802,459.872,375.142,454.301,379.152,446.216z M379.074,336.709h-43.816
	c4.043,8.008,12.35,13.512,21.908,13.512C366.736,350.222,375.031,344.717,379.074,336.709z M310.216,446.216h-44.004
	c4.009,8.107,12.361,13.701,21.997,13.701C297.855,459.916,306.206,454.323,310.216,446.216z M310.116,336.709h-43.838
	c4.043,8.03,12.35,13.557,21.93,13.557C297.789,350.266,306.073,344.739,310.116,336.709z M241.214,446.216h-44.015
	c3.998,8.119,12.361,13.712,22.008,13.712C228.842,459.927,237.204,454.334,241.214,446.216z M241.114,336.709h-43.838
	c4.032,8.03,12.327,13.557,21.908,13.557S237.082,344.739,241.114,336.709z M241.103,227.192h-43.805
	c4.043,7.997,12.338,13.501,21.897,13.501S237.049,235.188,241.103,227.192z M172.267,446.216h-44.06
	c3.998,8.141,12.372,13.745,22.03,13.745S168.268,454.356,172.267,446.216z M172.156,227.192h-43.838
	c4.032,8.019,12.338,13.535,21.919,13.535C159.806,240.726,168.113,235.211,172.156,227.192z M172.145,336.709h-43.882
	c4.032,8.052,12.35,13.601,21.952,13.601C159.818,350.31,168.113,344.761,172.145,336.709z"/>
<path style="fill:#6A973A;" d="M489.289,410.186c0.199,19.925-7.432,38.721-21.498,52.909c-14.066,14.21-32.784,22.03-52.71,22.03
	H27.849c12.804-23.481,37.835-38.909,65.248-38.909h14c4.84,19.327,22.34,33.682,43.14,33.682c13.911,0,26.338-6.413,34.501-16.448
	c8.163,10.013,20.579,16.414,34.468,16.414c13.911,0,26.349-6.424,34.501-16.47c8.163,10.035,20.601,16.459,34.501,16.459
	c13.911,0,26.338-6.424,34.501-16.448c8.163,10.001,20.579,16.403,34.468,16.403c20.767,0,38.256-14.31,43.118-33.593h14.786
	c9.669,0,18.696-3.843,25.419-10.821c6.723-6.978,10.223-16.148,9.857-25.829c-0.72-19.039-16.47-33.947-35.863-33.947H97.45
	c-41.136,0-74.906-32.962-75.293-73.477c-0.199-19.925,7.432-38.721,21.498-52.92s32.784-22.03,52.71-22.03h10.777
	c4.907,19.217,22.362,33.471,43.096,33.471c13.9,0,26.338-6.413,34.501-16.448c8.152,10.013,20.568,16.414,34.457,16.414
	c20.712,0,38.167-14.232,43.085-33.438h7.875c19.46,0,35.288-15.838,35.288-35.299v-37.569c0-2.204-0.653-4.364-1.883-6.191
	c-5.848-8.661-9.381-19.925-10.145-32.131c0.366,0.033,0.72,0.055,1.096,0.055c6.634,0,12.017-5.383,12.017-12.017
	c0-6.269-4.796-11.408-10.921-11.962c2.359-9.293,6.413-17.3,11.497-22.993c5.084-5.704,11.198-9.082,17.699-9.104h0.066
	c13.025,0,24.522,13.49,29.262,32.098c-3.057,0.277-5.782,1.706-7.742,3.843c-1.971,2.138-3.168,4.984-3.168,8.119
	c0,6.634,5.383,12.017,12.017,12.017c0.365,0,0.731-0.022,1.085-0.055c-0.388,6.081-1.451,11.929-3.157,17.334
	c-1.695,5.405-4.032,10.367-6.933,14.698c-1.218,1.827-1.872,3.976-1.872,6.18v37.68c0,40.914-33.294,74.208-74.208,74.208H96.951
	c-19.394,0-35.144,14.919-35.863,33.958c-0.366,9.669,3.134,18.851,9.857,25.829c6.723,6.978,15.75,10.821,25.419,10.821h10.744
	c4.884,19.25,22.351,33.538,43.107,33.538c13.911,0,26.338-6.413,34.501-16.436c4.087,5.006,9.226,9.104,15.085,11.951
	c5.859,2.846,12.438,4.441,19.383,4.441c13.911,0,26.349-6.424,34.512-16.448c8.163,10.024,20.601,16.448,34.512,16.448
	s26.338-6.413,34.501-16.436c4.076,5.006,9.226,9.104,15.085,11.951c5.859,2.846,12.427,4.441,19.372,4.441
	c20.723,0,38.178-14.243,43.085-33.449h13.745C455.132,336.709,488.902,369.671,489.289,410.186z"/>
<g>
	<path style="fill:#9ACE57;" d="M335.192,446.216h43.96c-4.009,8.085-12.35,13.656-21.974,13.656
		C347.552,459.872,339.212,454.301,335.192,446.216z"/>
	<path style="fill:#9ACE57;" d="M335.258,336.709h43.816c-4.043,8.008-12.338,13.512-21.908,13.512
		C347.608,350.222,339.301,344.717,335.258,336.709z"/>
	<path style="fill:#9ACE57;" d="M266.212,446.216h44.004c-4.009,8.107-12.361,13.701-22.008,13.701
		C278.572,459.916,270.221,454.323,266.212,446.216z"/>
	<path style="fill:#9ACE57;" d="M266.278,336.709h43.838c-4.043,8.03-12.327,13.557-21.908,13.557S270.321,344.739,266.278,336.709z
		"/>
	<path style="fill:#9ACE57;" d="M197.198,446.216h44.015c-4.009,8.119-12.372,13.712-22.008,13.712
		C209.559,459.927,201.197,454.334,197.198,446.216z"/>
	<path style="fill:#9ACE57;" d="M197.276,336.709h43.838c-4.032,8.03-12.35,13.557-21.93,13.557S201.307,344.739,197.276,336.709z"
		/>
	<path style="fill:#9ACE57;" d="M197.298,227.192h43.805c-4.054,7.997-12.35,13.501-21.908,13.501S201.341,235.188,197.298,227.192z
		"/>
	<path style="fill:#9ACE57;" d="M128.207,446.216h44.06c-3.998,8.141-12.372,13.745-22.03,13.745S132.206,454.356,128.207,446.216z"
		/>
	<path style="fill:#9ACE57;" d="M128.318,227.192h43.838c-4.043,8.019-12.35,13.535-21.919,13.535
		C140.656,240.726,132.35,235.211,128.318,227.192z"/>
	<path style="fill:#9ACE57;" d="M128.263,336.709h43.882c-4.032,8.052-12.327,13.601-21.93,13.601S132.294,344.761,128.263,336.709z
		"/>
</g>
<g>
</g>
<g>
</g>
<g>
</g>
<g>
</g>
<g>
</g>
<g>
</g>
<g>
</g>
<g>
</g>
<g>
</g>
<g>
</g>
<g>
</g>
<g>
</g>
<g>
</g>
<g>
</g>
<g>
</g>
</svg>
