<?xml version="1.0" encoding="iso-8859-1"?>
<!-- Generator: Adobe Illustrator 19.0.0, SVG Export Plug-In . SVG Version: 6.00 Build 0)  -->
<svg version="1.1" id="Layer_1" xmlns="http://www.w3.org/2000/svg" xmlns:xlink="http://www.w3.org/1999/xlink" x="0px" y="0px"
	 viewBox="0 0 511.413 511.413" style="enable-background:new 0 0 511.413 511.413;" xml:space="preserve">
<path style="fill:#663333;" d="M505.037,289.391c5.765,2.959,8.043,10.038,5.072,15.803c-2.078,4.051-6.187,6.375-10.449,6.375
	c-1.808,0-3.64-0.411-5.366-1.303l-79.615-40.952l-77.15,9.815v1.82c4.274,5.307,8.136,11.036,11.518,17.118c0,0,0,0,0,0.012
	l89.278,29.822c4.79,1.597,8.019,6.082,8.019,11.13v105.199c0,6.481-5.26,11.741-11.741,11.741c-6.493,0-11.741-5.26-11.741-11.741
	v-96.745l-62.25-20.793c2.959,10.896,4.532,22.437,4.532,34.377c0,29.493-9.721,57.883-27.38,79.944
	c-20.758,25.936-50.639,40.8-81.987,40.8s-61.229-14.864-81.987-40.8c-17.658-22.061-27.38-50.451-27.38-79.944
	c0-11.811,1.55-23.235,4.438-34.037l-61.241,20.453v96.745c0,6.481-5.26,11.741-11.741,11.741s-11.741-5.26-11.741-11.741V339.032
	c0-5.049,3.229-9.534,8.019-11.142l88.139-29.435c3.44-6.223,7.373-12.081,11.741-17.506v-1.808l-77.291-9.827l-79.615,40.952
	c-1.726,0.892-3.558,1.303-5.366,1.303c-4.262,0-8.371-2.325-10.449-6.375c-2.97-5.765-0.693-12.845,5.072-15.803l82.856-42.62
	c2.102-1.08,4.497-1.503,6.845-1.209l77.948,9.909v-10.907l-53.75-35.34H11.742c-6.481,0-11.741-5.26-11.741-11.741
	s5.26-11.741,11.741-11.741h112.056c2.289,0,4.532,0.669,6.446,1.926l43.782,28.789V202.79c0-3.781,0.364-7.479,1.033-11.072
	l-68.344-67.593c-2.219-2.207-3.475-5.213-3.475-8.348V41.341c0-6.481,5.248-11.741,11.741-11.741
	c6.481,0,11.741,5.26,11.741,11.741v69.542l58.141,57.507c4.826-6.892,11.036-12.739,18.245-17.107v-16.062
	c0-16.461,9.087-30.832,22.507-38.381V80.685c0-6.481,5.26-11.741,11.741-11.741s11.741,5.26,11.741,11.741v10.52h13.361v-10.52
	c0-6.481,5.26-11.741,11.741-11.741c6.481,0,11.741,5.26,11.741,11.741V96.84c13.42,7.549,22.507,21.92,22.507,38.381v16.062
	c7.256,4.403,13.502,10.297,18.339,17.247l58.294-57.648V41.341c0-6.481,5.248-11.741,11.741-11.741
	c6.481,0,11.741,5.26,11.741,11.741v74.438c0,3.135-1.256,6.141-3.487,8.348l-68.544,67.804c0.646,3.522,0.998,7.15,0.998,10.86
	v13.573l43.641-28.695c1.914-1.256,4.156-1.926,6.446-1.926h112.056c6.481,0,11.741,5.26,11.741,11.741s-5.26,11.741-11.741,11.741
	H391.138l-53.609,35.246v10.978l77.807-9.886c2.348-0.294,4.743,0.129,6.845,1.209L505.037,289.391z M329.287,411.38
	c8.054-15.075,12.375-32.417,12.375-50.31c0-53.633-38.522-97.262-85.885-97.262c-47.351,0-85.885,43.629-85.885,97.262
	c0,17.893,4.321,35.235,12.387,50.298c16.895-23.13,44.029-37.289,73.498-37.289C285.235,374.079,312.38,388.25,329.287,411.38z
	 M314.047,258.935V202.79c0-20.241-16.473-36.702-36.702-36.702h-43.136c-20.241,0-36.702,16.461-36.702,36.702v56.145
	c16.883-11.788,36.867-18.609,58.27-18.609S297.164,247.147,314.047,258.935z M314.611,431.891
	c-11.894-21.063-34.272-34.33-58.834-34.33s-46.94,13.267-58.834,34.319c16.273,16.273,35.422,26.452,58.763,26.452
	S298.338,448.164,314.611,431.891z M284.965,143.111v-7.89c0-11.318-9.217-20.535-20.547-20.535h-17.283
	c-11.33,0-20.547,9.217-20.547,20.535v7.89C229.09,142.782,282.464,142.782,284.965,143.111z"/>
<g>
	<path style="fill:#B2ABAC;" d="M341.662,361.07c0,17.893-4.321,35.235-12.375,50.31c-16.907-23.13-44.052-37.301-73.51-37.301
		c-29.47,0-56.603,14.16-73.498,37.289c-8.066-15.064-12.387-32.405-12.387-50.298c0-53.633,38.534-97.262,85.885-97.262
		C303.14,263.808,341.662,307.437,341.662,361.07z"/>
	<path style="fill:#B2ABAC;" d="M314.047,202.79v56.145c-16.883-11.788-36.867-18.609-58.27-18.609s-41.387,6.821-58.27,18.609
		V202.79c0-20.241,16.461-36.702,36.702-36.702h43.136C297.575,166.088,314.047,182.549,314.047,202.79z"/>
	<path style="fill:#B2ABAC;" d="M255.777,397.561c24.562,0,46.94,13.267,58.834,34.33c-16.273,16.273-35.563,26.441-58.904,26.441
		s-42.49-10.179-58.763-26.452C208.837,410.828,231.215,397.561,255.777,397.561z"/>
	<path style="fill:#B2ABAC;" d="M284.965,135.221v7.89c-2.501-0.329-55.875-0.329-58.376,0v-7.89
		c0-11.318,9.217-20.535,20.547-20.535h17.283C275.748,114.686,284.965,123.903,284.965,135.221z"/>
</g>
<path style="fill:#663333;" d="M255.779,282.59c-5.836,0-10.567,4.73-10.567,10.567c0,5.836,4.73,10.567,10.567,10.567
	c15.989,0,31.095,10.719,39.425,27.975c1.822,3.776,5.595,5.976,9.523,5.976c1.54,0,3.105-0.338,4.586-1.053
	c5.255-2.537,7.459-8.854,4.922-14.11C302.349,297.887,279.951,282.59,255.779,282.59z"/>
<g>
</g>
<g>
</g>
<g>
</g>
<g>
</g>
<g>
</g>
<g>
</g>
<g>
</g>
<g>
</g>
<g>
</g>
<g>
</g>
<g>
</g>
<g>
</g>
<g>
</g>
<g>
</g>
<g>
</g>
</svg>
