<?xml version="1.0" encoding="iso-8859-1"?>
<!-- Generator: Adobe Illustrator 19.0.0, SVG Export Plug-In . SVG Version: 6.00 Build 0)  -->
<svg version="1.1" id="Layer_1" xmlns="http://www.w3.org/2000/svg" xmlns:xlink="http://www.w3.org/1999/xlink" x="0px" y="0px"
	 viewBox="0 0 511.416 511.416" style="enable-background:new 0 0 511.416 511.416;" xml:space="preserve">
<path style="fill:#663333;" d="M489.512,145.682v227.173c0,0.233-0.023,0.467-0.035,0.689c0.689,28.413-6.432,57.257-22.156,83.464
	c-0.082,0.14-0.163,0.268-0.233,0.397c-0.035,0.047-0.058,0.093-0.093,0.14c-1.903,3.268-3.969,6.42-6.152,9.385
	c0,0,0,0.012-0.012,0.012c-20.358,27.841-53.113,44.475-87.596,44.475H239.74c-12.724,0-23.078-10.366-23.078-23.09v-0.257h-12.21
	c-4.821,13.588-17.802,23.346-33.012,23.346h-60.421c-12.35,0-22.413-10.062-22.413-22.424V475.93
	c0-19.564,15.922-35.475,35.487-35.475h0.444v-66.292c-16.599-29.93-25.868-63.771-26.79-98.184c-0.21-7.681,0-15.362,0.619-22.926
	c-12.595-7.389-24.327-16.891-34.821-28.366c-26.463-28.938-41.65-67.378-41.65-105.468V24.245C21.894,10.879,32.773,0,46.139,0
	c6.152,0,12.023,2.311,16.518,6.502c0.105,0.093,0.198,0.187,0.304,0.292l41.358,41.358c18.572-10.424,39.467-15.899,60.981-15.899
	s42.397,5.475,60.981,15.899l41.358-41.358c0.105-0.105,0.198-0.198,0.303-0.292C272.437,2.311,278.308,0,284.46,0
	c13.366,0,24.245,10.879,24.245,24.245v94.973c0,17.206-3.105,34.471-8.942,50.907l101.149,63.888v-88.331
	c0-24.432,19.868-44.3,44.3-44.3c11.825,0,22.938,4.611,31.319,12.969C484.901,122.697,489.512,133.834,489.512,145.682z
	 M466.166,295.076V145.682c0-5.603-2.183-10.868-6.128-14.813c-3.969-3.957-9.234-6.14-14.825-6.14
	c-11.556,0-20.953,9.397-20.953,20.953v103.682C441.523,262.216,455.578,277.811,466.166,295.076z M447.36,444.902
	c37.518-62.662,17.16-143.137-46.424-183.27l-110.674-69.899c-6.28,11.848-14.066,22.961-23.206,32.954
	c-27.619,30.187-63.748,46.81-101.756,46.81c-15.152,0-30.012-2.65-44.16-7.751c-0.128,3.852-0.152,7.728-0.047,11.603
	c0.84,31.81,9.665,63.094,25.518,90.468c1.541,2.661,1.903,5.673,1.272,8.451v77.861c0,6.444-5.23,11.673-11.673,11.673h-12.117
	c-6.689,0-12.14,5.44-12.14,12.129v12.14h59.487c6.432,0,11.673-5.241,11.673-11.673v-86.3c0-6.455,5.218-11.673,11.673-11.673
	c6.444,0,11.673,5.218,11.673,11.673v74.627h11.51c4.284-15.665,18.631-27.222,35.638-27.222h16.763
	c-3.724-11.113-5.65-22.821-5.65-34.611c0-59.849,48.677-108.526,108.514-108.526c6.444,0,11.673,5.218,11.673,11.673
	c0,6.444-5.23,11.673-11.673,11.673c-46.961,0-85.168,38.207-85.168,85.18c0,14.218,3.572,28.296,10.331,40.693
	c1.973,3.619,1.891,8.008-0.21,11.545c-2.113,3.549-5.918,5.72-10.039,5.72h-34.541c-7.506,0-13.599,6.105-13.599,13.611v13.611
	h133.227c26.965,0,52.588-12.969,68.592-34.693L447.36,444.902z M285.359,119.219V24.245c0-0.49-0.409-0.899-0.899-0.899
	c-0.082,0-0.303,0-0.537,0.175l-47.639,47.65c-3.946,3.934-10.109,4.541-14.743,1.447C204.872,61.483,185.413,55.6,165.3,55.6
	c-20.125,0-39.572,5.883-56.242,17.02c-4.634,3.093-10.798,2.486-14.743-1.447l-47.638-47.65c-0.233-0.175-0.455-0.175-0.537-0.175
	c-0.49,0-0.899,0.409-0.899,0.899v94.973c0,7.366,0.689,14.743,1.984,22.039l35.615,4.728c6.397,0.84,10.891,6.712,10.039,13.109
	c-0.77,5.872-5.79,10.132-11.557,10.132c-0.514,0-1.027-0.023-1.541-0.093l-25.704-3.409c1.669,4.331,3.549,8.592,5.662,12.747
	l20.58-1.739c6.432-0.549,12.082,4.214,12.619,10.646c0.549,6.42-4.226,12.07-10.646,12.619l-8.44,0.712
	c2.195,2.825,4.494,5.568,6.911,8.218c23.148,25.296,53.172,39.222,84.538,39.222s61.39-13.926,84.538-39.222
	c2.416-2.65,4.716-5.393,6.911-8.218l-8.451-0.712c-6.42-0.549-11.183-6.198-10.646-12.619c0.549-6.432,6.187-11.195,12.619-10.646
	l20.592,1.739c2.113-4.156,4.004-8.416,5.662-12.747l-25.704,3.409c-0.525,0.058-1.039,0.093-1.553,0.093
	c-5.767,0-10.774-4.261-11.557-10.132c-0.84-6.397,3.654-12.269,10.039-13.109l35.627-4.728
	C284.682,133.962,285.359,126.585,285.359,119.219z"/>
<g>
	<path style="fill:#B2ABAC;" d="M466.166,145.682v149.394c-10.588-17.265-24.642-32.86-41.907-45.712V145.682
		c0-11.557,9.397-20.953,20.953-20.953c5.591,0,10.856,2.183,14.825,6.14C463.983,134.814,466.166,140.079,466.166,145.682z"/>
	<path style="fill:#B2ABAC;" d="M400.936,261.632c63.584,40.133,83.942,120.608,46.424,183.27l-5.533,8.475
		c-16.004,21.724-41.627,34.693-68.592,34.693H240.008v-13.611c0-7.506,6.093-13.611,13.599-13.611h34.541
		c4.121,0,7.926-2.171,10.039-5.72c2.101-3.537,2.183-7.926,0.21-11.545c-6.759-12.397-10.331-26.475-10.331-40.693
		c0-46.973,38.207-85.18,85.168-85.18c6.444,0,11.673-5.23,11.673-11.673c0-6.455-5.23-11.673-11.673-11.673
		c-59.837,0-108.514,48.677-108.514,108.526c0,11.79,1.926,23.498,5.65,34.611h-16.763c-17.008,0-31.354,11.556-35.638,27.222
		h-11.51v-74.627c0-6.455-5.23-11.673-11.673-11.673c-6.455,0-11.673,5.218-11.673,11.673v86.3c0,6.432-5.241,11.673-11.673,11.673
		h-59.487v-12.14c0-6.689,5.451-12.129,12.14-12.129h12.117c6.444,0,11.673-5.23,11.673-11.673v-77.861
		c0.63-2.778,0.268-5.79-1.272-8.451c-15.852-27.374-24.677-58.658-25.518-90.468c-0.105-3.876-0.082-7.751,0.047-11.603
		c14.148,5.101,29.008,7.751,44.16,7.751c38.008,0,74.137-16.623,101.756-46.81c9.14-9.992,16.926-21.105,23.206-32.954
		L400.936,261.632z M420.745,427.988c13.366-22.751,17.253-49.366,10.95-74.942c-1.541-6.257-7.868-10.086-14.125-8.545
		c-6.257,1.541-10.086,7.868-8.545,14.125c4.844,19.634,1.856,40.074-8.405,57.537c-3.268,5.556-1.412,12.712,4.156,15.969
		c1.856,1.097,3.887,1.611,5.895,1.611C414.675,433.743,418.574,431.688,420.745,427.988z"/>
</g>
<path style="fill:#663333;" d="M431.695,353.046c6.304,25.576,2.416,52.191-10.95,74.942c-2.171,3.7-6.07,5.755-10.074,5.755
	c-2.008,0-4.039-0.514-5.895-1.611c-5.568-3.257-7.424-10.413-4.156-15.969c10.261-17.463,13.249-37.903,8.405-57.537
	c-1.541-6.257,2.288-12.584,8.545-14.125C423.827,342.96,430.154,346.789,431.695,353.046z"/>
<path style="fill:#B2ABAC;" d="M285.359,24.245v94.973c0,7.366-0.677,14.743-1.984,22.039l-35.627,4.728
	c-6.385,0.84-10.879,6.712-10.039,13.109c0.782,5.872,5.79,10.132,11.557,10.132c0.514,0,1.027-0.035,1.553-0.093l25.704-3.409
	c-1.658,4.331-3.549,8.592-5.662,12.747l-20.592-1.739c-6.432-0.549-12.07,4.214-12.619,10.646
	c-0.537,6.42,4.226,12.07,10.646,12.619l8.451,0.712c-2.195,2.825-4.494,5.568-6.911,8.218
	c-23.148,25.296-53.172,39.222-84.538,39.222s-61.39-13.926-84.538-39.222c-2.416-2.65-4.716-5.393-6.911-8.218l8.44-0.712
	c6.42-0.549,11.195-6.198,10.646-12.619c-0.537-6.432-6.187-11.195-12.619-10.646l-20.58,1.739
	c-2.113-4.156-3.992-8.416-5.662-12.747l25.704,3.409c0.514,0.07,1.027,0.093,1.541,0.093c5.767,0,10.786-4.261,11.557-10.132
	c0.852-6.397-3.642-12.269-10.039-13.109l-35.615-4.728c-1.296-7.296-1.984-14.673-1.984-22.039V24.245
	c0-0.49,0.409-0.899,0.899-0.899c0.082,0,0.304,0,0.537,0.175l47.638,47.65c3.946,3.934,10.109,4.541,14.743,1.447
	C125.727,61.483,145.175,55.6,165.3,55.6c20.113,0,39.572,5.883,56.242,17.02c4.634,3.093,10.798,2.486,14.743-1.447l47.639-47.65
	c0.233-0.175,0.455-0.175,0.537-0.175C284.95,23.346,285.359,23.755,285.359,24.245z M249.125,121.927
	c0-6.304-5.113-11.416-11.416-11.416s-11.416,5.113-11.416,11.416s5.113,11.416,11.416,11.416S249.125,128.231,249.125,121.927z
	 M195.533,181.087c5.043-2.872,6.817-9.28,3.946-14.323c-2.86-5.055-9.28-6.817-14.323-3.946c-1.016,0.572-2.673,1.179-4.774,0.735
	c-2.381-0.502-4.342-2.253-5.09-4.564l-0.012,0.012c-1.016-3.082-3.409-5.65-6.712-6.735c-5.521-1.798-11.451,1.214-13.249,6.724
	c-0.759,2.311-2.708,4.062-5.101,4.564c-2.09,0.444-3.747-0.163-4.774-0.735c-5.043-2.872-11.451-1.109-14.323,3.946
	c-2.86,5.043-1.097,11.451,3.946,14.323c4.214,2.393,8.953,3.63,13.739,3.63c1.903,0,3.829-0.198,5.732-0.595
	c3.946-0.829,7.599-2.51,10.751-4.833c3.163,2.323,6.829,4.004,10.786,4.833c1.891,0.397,3.817,0.595,5.732,0.595
	C186.58,184.717,191.319,183.48,195.533,181.087z M104.307,121.927c0-6.304-5.113-11.416-11.416-11.416
	c-6.304,0-11.416,5.113-11.416,11.416s5.113,11.416,11.416,11.416C99.194,133.343,104.307,128.231,104.307,121.927z"/>
<g>
	<circle style="fill:#663333;" cx="237.713" cy="121.927" r="11.416"/>
	<path style="fill:#663333;" d="M199.479,166.764c2.872,5.043,1.097,11.451-3.946,14.323c-4.214,2.393-8.953,3.63-13.728,3.63
		c-1.914,0-3.84-0.198-5.732-0.595c-3.957-0.829-7.623-2.51-10.786-4.833c-3.152,2.323-6.805,4.004-10.751,4.833
		c-1.903,0.397-3.829,0.595-5.732,0.595c-4.786,0-9.525-1.237-13.739-3.63c-5.043-2.872-6.806-9.28-3.946-14.323
		c2.872-5.055,9.28-6.817,14.323-3.946c1.027,0.572,2.685,1.179,4.774,0.735c2.393-0.502,4.342-2.253,5.101-4.564
		c1.798-5.51,7.728-8.521,13.249-6.724c3.304,1.086,5.697,3.654,6.712,6.735l0.012-0.012c0.747,2.311,2.708,4.062,5.09,4.564
		c2.101,0.444,3.759-0.163,4.774-0.735C190.199,159.947,196.619,161.709,199.479,166.764z"/>
	<circle style="fill:#663333;" cx="92.895" cy="121.927" r="11.416"/>
</g>
<g>
</g>
<g>
</g>
<g>
</g>
<g>
</g>
<g>
</g>
<g>
</g>
<g>
</g>
<g>
</g>
<g>
</g>
<g>
</g>
<g>
</g>
<g>
</g>
<g>
</g>
<g>
</g>
<g>
</g>
</svg>
