<?xml version="1.0" encoding="iso-8859-1"?>
<!-- Generator: Adobe Illustrator 19.0.0, SVG Export Plug-In . SVG Version: 6.00 Build 0)  -->
<svg version="1.1" id="Layer_1" xmlns="http://www.w3.org/2000/svg" xmlns:xlink="http://www.w3.org/1999/xlink" x="0px" y="0px"
	 viewBox="0 0 511.376 511.376" style="enable-background:new 0 0 511.376 511.376;" xml:space="preserve">
<path style="fill:#663333;" d="M408.351,431.774c11.299,7.919,18.707,21.026,18.707,35.842c0,24.132-19.629,43.761-43.761,43.761
	H130.383c-24.132,0-43.761-19.629-43.761-43.761s19.629-43.761,43.761-43.761h72.681c-0.661-4.677-1.01-9.441-1.01-14.292v-66.034
	c-5.649-56.057-36.066-108.785-83.531-144.764l-0.087-0.05c-0.175-0.137-0.362-0.274-0.549-0.412
	c-0.237-0.175-0.449-0.349-0.661-0.524c-18.407-14.254-30.242-35.667-32.5-58.851c-2.195-22.56,4.527-44.634,18.931-62.143
	s34.757-28.372,57.33-30.567c2.769-0.262,12.234-0.399,12.234-0.399v-4.515c0-0.062,0.012-0.125,0.012-0.2
	C173.333,18.42,191.816,0,214.525,0h62.567c22.772,0,41.292,18.532,41.292,41.304v4.515c0,0,9.478,0.137,12.234,0.399
	c22.573,2.195,42.925,13.057,57.33,30.567c14.404,17.509,21.126,39.583,18.919,62.156c-2.257,23.184-14.08,44.584-32.5,58.839
	c-0.2,0.187-0.412,0.349-0.636,0.511c-0.187,0.15-0.374,0.287-0.561,0.412l-0.075,0.062
	c-47.477,35.967-77.882,88.694-83.531,144.764v66.034c0,7.882,6.41,14.304,14.304,14.304h47.365
	c2.931-4.901,4.515-10.526,4.515-16.337v-16.125c0-15.09,12.272-27.374,27.362-27.374c15.078,0,27.349,12.284,27.349,27.374v16.125
	C410.459,415.698,409.748,423.817,408.351,431.774z M402.115,467.615c0-10.376-8.443-18.806-18.819-18.806h-79.428
	c-4.926,0-9.628-0.923-13.98-2.582c-0.125-0.025-0.262-0.062-0.387-0.112v8.131c0,17.709,14.379,32.125,32.076,32.188h61.719
	C393.672,486.434,402.115,477.991,402.115,467.615z M388.011,407.53v-16.125c0-2.719-2.195-4.926-4.901-4.926
	s-4.914,2.207-4.914,4.926v16.125c0,5.599-0.873,11.099-2.519,16.337c0,0,10.002,0.062,11.174,0.162
	C387.612,418.592,388.011,413.079,388.011,407.53z M382.049,136.521c1.559-15.938-3.193-31.527-13.357-43.898
	c-10.176-12.359-24.556-20.029-40.494-21.575c-1.958-0.187-3.941-0.287-5.861-0.287H317.3c-3.218,18.445-13.394,34.52-27.736,45.395
	v143.143c16.212-30.866,39.533-58.527,68.566-80.501c0.05-0.025,0.087-0.062,0.125-0.087l0.15-0.112c0.1-0.075,0.2-0.15,0.299-0.224
	C371.923,168.31,380.441,153.058,382.049,136.521z M293.442,58.29c0-3.292,0-13.693,0-16.986c0-9.017-7.333-16.362-16.35-16.362
	h-62.567c-9.017,0-16.362,7.345-16.362,16.362c0,3.292,0,13.693,0,16.986c0,26.264,21.375,47.64,47.64,47.64
	C272.079,105.929,293.442,84.554,293.442,58.29z M270.022,478.565c-3.492-7.395-5.462-15.626-5.462-24.319v-44.584h-37.563
	C227.034,439.867,244.593,466.032,270.022,478.565z M264.622,384.72v-31.365h-37.625v31.365H264.622z M264.622,328.413v-31.365
	h-37.625v31.365H264.622z M264.622,272.106v-31.377h-37.625v31.377H264.622z M264.622,215.787v-31.365h-37.625v31.365H264.622z
	 M264.622,159.48v-31.103c-5.999,1.621-12.309,2.494-18.819,2.494c-6.497,0-12.808-0.873-18.806-2.494v31.103H264.622z
	 M130.383,486.434h106.802c-11.76-10.214-21.163-23.072-27.262-37.638h-79.541c-10.376,0-18.819,8.443-18.819,18.819
	C111.564,477.991,120.007,486.434,130.383,486.434z M202.054,259.299V116.156c-14.342-10.875-24.518-26.95-27.736-45.395h-5.051
	c-1.908-0.012-3.891,0.1-5.861,0.287c-15.938,1.546-30.317,9.216-40.494,21.575c-10.164,12.371-14.915,27.96-13.357,43.886
	c1.609,16.549,10.114,31.801,23.346,41.865c0.1,0.075,0.2,0.15,0.299,0.224l0.125,0.1c0.05,0.037,0.1,0.062,0.15,0.1
	C162.509,200.772,185.842,228.445,202.054,259.299z"/>
<g>
	<path style="fill:#9ACE57;" d="M383.297,448.809c10.376,0,18.819,8.43,18.819,18.806c0,10.376-8.443,18.819-18.819,18.819h-61.719
		c-17.696-0.062-32.076-14.479-32.076-32.188v-8.131c0.125,0.05,0.262,0.087,0.387,0.112c4.352,1.659,9.054,2.582,13.98,2.582
		H383.297z"/>
	<path style="fill:#9ACE57;" d="M388.011,391.405v16.125c0,5.55-0.399,11.062-1.16,16.499c-1.172-0.1-11.174-0.162-11.174-0.162
		c1.646-5.238,2.519-10.738,2.519-16.337v-16.125c0-2.719,2.207-4.926,4.914-4.926S388.011,388.686,388.011,391.405z"/>
</g>
<path style="fill:#6A973A;" d="M368.693,92.623c10.164,12.371,14.915,27.96,13.357,43.898
	c-1.609,16.537-10.127,31.789-23.346,41.853c-0.1,0.075-0.2,0.15-0.299,0.224l-0.15,0.112c-0.037,0.025-0.075,0.062-0.125,0.087
	c-29.033,21.974-52.354,49.635-68.566,80.501V116.156c14.342-10.875,24.518-26.95,27.736-45.395h5.038
	c1.921,0,3.903,0.1,5.861,0.287C344.137,72.594,358.517,80.264,368.693,92.623z"/>
<path style="fill:#9ACE57;" d="M293.442,41.304c0,3.292,0,13.693,0,16.986c0,26.264-21.363,47.64-47.64,47.64
	c-26.264,0-47.64-21.375-47.64-47.64c0-3.292,0-13.693,0-16.986c0-9.017,7.345-16.362,16.362-16.362h62.567
	C286.109,24.942,293.442,32.288,293.442,41.304z M284.713,49.797c0-6.884-5.587-12.471-12.471-12.471s-12.471,5.587-12.471,12.471
	s5.587,12.471,12.471,12.471S284.713,56.681,284.713,49.797z M231.848,49.797c0-6.884-5.587-12.471-12.471-12.471
	c-6.897,0-12.471,5.587-12.471,12.471s5.575,12.471,12.471,12.471C226.261,62.268,231.848,56.681,231.848,49.797z"/>
<path style="fill:#663333;" d="M272.242,37.326c6.884,0,12.471,5.587,12.471,12.471s-5.587,12.471-12.471,12.471
	s-12.471-5.587-12.471-12.471S265.358,37.326,272.242,37.326z"/>
<g>
	<path style="fill:#FFCC66;" d="M264.559,454.246c0,8.692,1.97,16.923,5.462,24.319c-25.429-12.533-42.988-38.698-43.025-68.903
		h37.563V454.246z"/>
	<rect x="226.999" y="353.355" style="fill:#FFCC66;" width="37.625" height="31.365"/>
	<rect x="226.999" y="297.049" style="fill:#FFCC66;" width="37.625" height="31.365"/>
	<rect x="226.999" y="240.729" style="fill:#FFCC66;" width="37.625" height="31.377"/>
	<rect x="226.999" y="184.422" style="fill:#FFCC66;" width="37.625" height="31.365"/>
	<path style="fill:#FFCC66;" d="M264.622,128.377v31.103h-37.625v-31.103c5.999,1.621,12.309,2.494,18.806,2.494
		C252.313,130.871,258.623,129.999,264.622,128.377z"/>
</g>
<path style="fill:#9ACE57;" d="M237.185,486.434H130.383c-10.376,0-18.819-8.443-18.819-18.819s8.443-18.819,18.819-18.819h79.541
	C216.022,463.363,225.425,476.221,237.185,486.434z"/>
<path style="fill:#663333;" d="M219.377,37.326c6.884,0,12.471,5.587,12.471,12.471s-5.587,12.471-12.471,12.471
	c-6.897,0-12.471-5.587-12.471-12.471S212.48,37.326,219.377,37.326z"/>
<path style="fill:#6A973A;" d="M202.054,116.156v143.143c-16.212-30.853-39.546-58.527-68.578-80.501
	c-0.05-0.037-0.1-0.062-0.15-0.1l-0.125-0.1c-0.1-0.075-0.2-0.15-0.299-0.224c-13.232-10.064-21.737-25.316-23.346-41.865
	c-1.559-15.926,3.193-31.514,13.357-43.886c10.176-12.359,24.556-20.029,40.494-21.575c1.97-0.187,3.953-0.299,5.861-0.287h5.051
	C177.536,89.206,187.713,105.281,202.054,116.156z"/>
<g>
</g>
<g>
</g>
<g>
</g>
<g>
</g>
<g>
</g>
<g>
</g>
<g>
</g>
<g>
</g>
<g>
</g>
<g>
</g>
<g>
</g>
<g>
</g>
<g>
</g>
<g>
</g>
<g>
</g>
</svg>
