<?xml version="1.0" encoding="iso-8859-1"?>
<!-- Generator: Adobe Illustrator 19.1.0, SVG Export Plug-In . SVG Version: 6.00 Build 0)  -->
<svg version="1.1" id="Capa_1" xmlns="http://www.w3.org/2000/svg" xmlns:xlink="http://www.w3.org/1999/xlink" x="0px" y="0px"
	 viewBox="0 0 462.316 462.316" style="enable-background:new 0 0 462.316 462.316;" xml:space="preserve">
<g>
	<path d="M150.337,114.41h161.642V85.138l23.515-7V34.682l-23.515-7V0H150.337v27.682l-23.515,7v43.457l23.515,7V114.41z
		 M325.493,42.139v28.543l-13.515,4.023v-36.59L325.493,42.139z M160.337,10h141.642v94.41H160.337V10z M136.822,70.682V42.139
		l13.515-4.023v36.59L136.822,70.682z"/>
	<path d="M198.433,393.78h-66.641v29.356h-7.161v39.18h80.959v-39.18h-7.157V393.78z M141.792,403.78h46.641v19.356h-46.641
		L141.792,403.78L141.792,403.78z M195.59,452.316h-60.959v-19.18h60.959V452.316z"/>
	<rect x="136.79" y="345.141" width="56.641" height="10"/>
	<rect x="136.79" y="361.64" width="56.641" height="10"/>
	<rect x="136.79" y="378.139" width="56.641" height="10"/>
	<path d="M73.637,228.448l33.737,12.442l-3.46,9.382L70.177,237.83L73.637,228.448z"/>
	<path d="M67.926,243.927l33.737,12.442l-3.46,9.382l-33.737-12.442L67.926,243.927z"/>
	<path d="M62.218,259.406l33.738,12.442l-3.46,9.382l-33.738-12.442L62.218,259.406z"/>
	<path d="M94.95,289.067l-0.126-0.047l-4.565-1.683l0,0l-38.43-14.17l-14.423,39.117v31.857h10V320.35l6.464,2.383v27.849h10V326.42
		l7.274,2.682v27.479h10V326.51l10.346-28.06l13.647,5.032l3.459-9.383L94.95,289.067L94.95,289.067z M73.183,319.196l-24.356-8.981
		l8.926-24.206l24.355,8.981L73.183,319.196z"/>
	<path d="M330.523,393.78h-66.64v29.356h-7.157v39.18h80.958v-39.18h-7.161L330.523,393.78L330.523,393.78z M273.884,403.78h46.64
		v19.356h-46.64L273.884,403.78L273.884,403.78z M327.685,452.316h-60.958v-19.18h60.958V452.316z"/>
	<rect x="268.886" y="345.141" width="56.641" height="10"/>
	<rect x="268.886" y="361.64" width="56.641" height="10"/>
	<rect x="268.886" y="378.139" width="56.641" height="10"/>
	<path d="M364.217,147.692l-0.005,0.027c-5.046-14.49-18.008-25.293-33.686-27.211H131.79
		c-15.685,1.919-28.652,12.732-33.692,27.231L71.2,220.632l43.124,15.899l13.094-35.517c1.43,0.336,2.889,0.597,4.372,0.779v48.941
		c0,7.477,6.083,13.559,13.56,13.559h58.458v18.318h-5.377v-11.629h-53.39c-7.307,0-13.251,5.945-13.251,13.251v41.856
		c0,7.307,5.944,13.251,13.251,13.251h53.39v-26.126h5.377v4.239c0,3.95,3.214,7.164,7.164,7.164h40.373
		c3.95,0,7.164-3.214,7.164-7.164v-4.239h5.377v26.126h53.389c7.308,0,13.252-5.945,13.252-13.251v-41.856
		c0-7.307-5.944-13.251-13.252-13.251h-53.389v11.629h-5.377v-18.318h58.458c7.477,0,13.56-6.083,13.56-13.559v-48.941
		c1.483-0.181,2.942-0.442,4.372-0.779l13.093,35.517l43.124-15.899L364.217,147.692z M108.4,223.689l-24.356-8.98l14.426-39.111
		c3.594,9.501,10.625,17.321,19.568,21.948L108.4,223.689z M105.831,161.15c0-15.369,11.258-28.152,25.959-30.55v61.1
		C117.089,189.302,105.831,176.519,105.831,161.15z M188.431,329.342h-43.39c-1.793,0-3.251-1.458-3.251-3.251v-41.856
		c0-1.793,1.458-3.251,3.251-3.251h43.39V329.342z M198.431,303.216v-10.604h5.377v10.604H198.431z M273.886,280.982h43.389
		c1.793,0,3.252,1.458,3.252,3.251v41.856c0,1.793-1.459,3.251-3.252,3.251h-43.389V280.982z M263.886,292.611v10.604h-5.377
		v-10.604H263.886z M248.509,314.619h-34.701v-50.326h34.701V314.619z M320.526,250.734c0,1.962-1.597,3.559-3.56,3.559h-58.458
		h-54.701H145.35c-1.963,0-3.56-1.597-3.56-3.559V130.191h178.736V250.734z M330.526,130.601
		c14.701,2.398,25.959,15.181,25.959,30.55c0,15.368-11.258,28.151-25.959,30.549V130.601z M344.278,197.546
		c8.946-4.628,15.977-12.45,19.571-21.954l14.423,39.117l-24.356,8.98L344.278,197.546z"/>
	<path d="M358.395,250.268l-3.459-9.383l33.74-12.438l3.459,9.383L358.395,250.268z"/>
	<path d="M397.846,253.345l-33.737,12.442l-3.46-9.382l33.737-12.442L397.846,253.345z"/>
	<path d="M403.556,268.82l-33.737,12.442l-3.46-9.382l33.737-12.442L403.556,268.82z"/>
	<path d="M410.485,273.167l-38.429,14.17l0,0l-4.514,1.665l-0.177,0.065l0,0l-13.646,5.032l3.459,9.383l13.647-5.032l10.347,28.06
		v30.072h10v-27.479l7.274-2.682v24.161h10v-27.849l6.464-2.383v23.792h10v-31.857L410.485,273.167z M380.207,294.99l24.356-8.981
		l8.926,24.206l-24.356,8.981L380.207,294.99z"/>
	<path d="M187.401,82.205c13.785,0,25-11.215,25-25s-11.215-25-25-25s-25,11.215-25,25S173.616,82.205,187.401,82.205z
		 M187.401,42.205c8.271,0,15,6.729,15,15s-6.729,15-15,15s-15-6.729-15-15S179.13,42.205,187.401,42.205z"/>
	<path d="M274.915,82.205c13.785,0,25-11.215,25-25s-11.215-25-25-25s-25,11.215-25,25S261.13,82.205,274.915,82.205z
		 M274.915,42.205c8.271,0,15,6.729,15,15s-6.729,15-15,15s-15-6.729-15-15S266.644,42.205,274.915,42.205z"/>
	<path d="M202.89,236.602c7.775,7.245,17.702,11.142,28.224,11.142c1.009,0,2.022-0.036,3.041-0.108
		c20.591-1.458,37.106-18.096,38.418-38.702c0.95-14.925-5.956-28.77-17.976-36.947l12.232-11.811
		c4.018-3.879,5.263-9.732,3.171-14.91c-2.092-5.178-7.052-8.523-12.637-8.523h-67.705v31.5h25v-6.5h14.558l-18.08,17.456
		c-1.808,1.745-2.368,4.378-1.427,6.708s3.174,3.836,5.687,3.836h15.763c4.681,0,9.162,2.01,12.297,5.514
		c3.174,3.547,4.628,8.125,4.097,12.891c-0.843,7.554-6.938,13.647-14.491,14.489c-4.77,0.534-9.344-0.924-12.89-4.097
		c-3.503-3.135-5.513-7.617-5.513-12.297v-5h-25v5C189.658,217.702,194.48,228.768,202.89,236.602z M205.137,211.242
		c1.091,5.647,4.008,10.85,8.366,14.749c5.612,5.022,13.146,7.421,20.665,6.583c12.157-1.355,21.965-11.162,23.321-23.318
		c0.84-7.521-1.559-15.054-6.581-20.667c-5.029-5.622-12.228-8.846-19.75-8.846h-6.188l29-28h-49.312v6.5h-5v-11.5h57.705
		c2.209,0,3.089,1.587,3.364,2.27c0.275,0.682,0.745,2.435-0.844,3.97l-22.318,21.549l6.663,3.052
		c11.993,5.495,19.202,17.551,18.363,30.715c-0.994,15.633-13.523,28.256-29.145,29.362c-8.833,0.624-17.272-2.349-23.741-8.376
		c-5.149-4.798-8.528-11.188-9.643-18.043L205.137,211.242L205.137,211.242z"/>
</g>
<g>
</g>
<g>
</g>
<g>
</g>
<g>
</g>
<g>
</g>
<g>
</g>
<g>
</g>
<g>
</g>
<g>
</g>
<g>
</g>
<g>
</g>
<g>
</g>
<g>
</g>
<g>
</g>
<g>
</g>
</svg>
