<?xml version="1.0" encoding="iso-8859-1"?>
<!-- Generator: Adobe Illustrator 18.0.0, SVG Export Plug-In . SVG Version: 6.00 Build 0)  -->
<!DOCTYPE svg PUBLIC "-//W3C//DTD SVG 1.1//EN" "http://www.w3.org/Graphics/SVG/1.1/DTD/svg11.dtd">
<svg version="1.1" id="Capa_1" xmlns="http://www.w3.org/2000/svg" xmlns:xlink="http://www.w3.org/1999/xlink" x="0px" y="0px"
	 viewBox="0 0 432.983 432.983" style="enable-background:new 0 0 432.983 432.983;" xml:space="preserve">
<g>
	<path d="M321.278,56.272L312.581,20H120.459l-8.697,36.272L216.52,76.713L321.278,56.272z M215.357,66.298L236.696,30h49.02
		l-15.287,26.006L216.52,66.525L215.357,66.298z M204.951,64.267l-12.954-2.528L210.653,30h14.442L204.951,64.267z M309.12,48.456
		l-25.589,4.993L297.316,30h7.379L309.12,48.456z M128.345,30h70.708L181.59,59.709L123.92,48.456L128.345,30z"/>
	<path d="M367.04,400.484h-20.81v-74.912c3.318-1.587,6.119-4.088,8.083-7.3c2.683-4.386,3.498-9.555,2.293-14.553
		c-1.204-4.999-4.283-9.229-8.669-11.913c-2.924-1.789-6.197-2.726-9.534-2.81l-13.3-55.204c5.224-5.17,7.703-12.869,5.859-20.52
		l-5.53-22.96c-2.8-11.619-14.541-18.802-26.173-16.009l-16.77,4.045c-8.333-16.763-22.749-29.771-40.543-36.277V92.129
		l103.647-20.224L328.352,0H104.688l-17.24,71.905l103.647,20.224v49.943c-17.801,6.507-32.22,19.521-40.551,36.289l-16.826-4.059
		c-11.629-2.794-23.367,4.393-26.167,16.011l-5.53,22.959c-1.844,7.651,0.635,15.35,5.859,20.52l-13.3,55.205
		c-3.337,0.083-6.61,1.021-9.534,2.809c-4.386,2.683-7.465,6.914-8.669,11.913v0c-1.205,4.999-0.39,10.167,2.293,14.553
		c1.965,3.212,4.765,5.713,8.083,7.3v74.912h-20.81c-15.163,0-27.499,12.336-27.499,27.499v5h78.496v-10H96.753v-95.579
		c8.016-0.702,15.065-6.425,17.051-14.669c2.081-8.635-2.056-17.321-9.504-21.388l12.58-52.215c0.379,0.113,0.762,0.219,1.151,0.313
		l14.118,3.401c-4.936,22.115-7.97,41.438-9.438,59.625c-3.118,38.75,24.415,73.546,62.684,79.217
		c10.327,1.524,20.725,2.286,31.125,2.286c10.399,0,20.801-0.762,31.128-2.286c38.266-5.67,65.798-40.466,62.681-79.218
		c-1.468-18.189-4.504-37.517-9.441-59.636l14.064-3.388c0.389-0.094,0.772-0.199,1.151-0.313l12.58,52.215
		c-7.448,4.067-11.585,12.753-9.504,21.388c1.986,8.244,9.035,13.968,17.051,14.669v95.579h-20.188v10h78.496v-5
		C394.539,412.82,382.203,400.484,367.04,400.484z M86.753,422.983H49.172c2.157-7.22,8.859-12.499,16.771-12.499h20.81V422.983z
		 M104.083,310.394c-0.579,2.402-2.058,4.435-4.166,5.724c-2.108,1.289-4.591,1.68-6.993,1.102
		c-2.402-0.579-4.435-2.058-5.724-4.166c-1.29-2.107-1.681-4.591-1.102-6.992v0c0.579-2.402,2.058-4.435,4.166-5.724
		c1.472-0.9,3.126-1.363,4.809-1.363c0.727,0,1.459,0.086,2.184,0.261c2.402,0.579,4.435,2.058,5.724,4.166
		C104.27,305.508,104.661,307.992,104.083,310.394z M112.574,10h207.893l12.969,54.089L216.52,86.901L99.605,64.089L112.574,10z
		 M216.52,97.09l15.425-3.01v55.506c0,8.505-6.92,15.425-15.425,15.425s-15.425-6.92-15.425-15.425V94.08L216.52,97.09z
		 M191.299,152.745c1.561,12.533,12.272,22.267,25.222,22.267c12.949,0,23.661-9.733,25.222-22.267
		c17.39,7.456,30.609,22.29,35.971,40.761c11.431,39.359,18.198,70.011,21.405,97.285c-4.835,22.406-21.324,40.344-42.606,47.301
		v-62.308c0-22.056-17.944-40-40-40s-40,17.944-40,40v62.305c-21.266-6.955-37.744-24.875-42.594-47.262
		c3.205-27.283,9.973-57.945,21.409-97.322C160.686,175.035,173.906,160.201,191.299,152.745z M246.512,340.482
		c-0.111,0.017-0.219,0.039-0.33,0.056c-19.684,2.904-39.646,2.904-59.327,0c-0.115-0.017-0.228-0.04-0.343-0.058v-64.697
		c0-16.542,13.458-30,30-30s30,13.458,30,30V340.482z M120.374,229.723c-6.27-1.511-10.142-7.84-8.631-14.108l5.53-22.959
		c1.51-6.263,7.839-10.133,14.106-8.631l15.293,3.689c-0.334,0.993-0.656,1.991-0.949,3.004
		c-4.448,15.315-8.197,29.338-11.319,42.386L120.374,229.723z M246.185,371.795c-19.684,2.905-39.646,2.904-59.327,0
		c-29.163-4.322-51.102-28.233-54.04-56.804c11.148,18.771,30.299,32.138,52.574,35.439c10.326,1.524,20.724,2.286,31.124,2.286
		c10.399,0,20.801-0.762,31.129-2.286c22.28-3.302,41.434-16.678,52.578-35.456C297.292,343.554,275.352,367.473,246.185,371.795z
		 M298.633,233.09c-3.121-13.044-6.87-27.062-11.316-42.372c-0.295-1.017-0.618-2.02-0.954-3.017l15.235-3.675
		c6.271-1.502,12.602,2.367,14.112,8.629l5.53,22.96c1.511,6.268-2.361,12.596-8.63,14.107L298.633,233.09z M328.901,310.394
		c-0.579-2.402-0.188-4.886,1.102-6.993c1.289-2.107,3.322-3.587,5.724-4.166c0.724-0.174,1.456-0.261,2.183-0.261
		c1.682,0,3.337,0.462,4.809,1.363c2.108,1.289,3.587,3.322,4.166,5.724v0c0.579,2.401,0.188,4.885-1.102,6.992
		c-1.289,2.108-3.322,3.587-5.724,4.166c-2.401,0.578-4.886,0.188-6.993-1.102C330.959,314.829,329.479,312.796,328.901,310.394z
		 M346.23,422.983v-12.499h20.81c7.912,0,14.614,5.279,16.771,12.499H346.23z"/>
	<rect x="160.512" y="293.784" width="10" height="24"/>
	<rect x="262.512" y="293.784" width="10" height="24"/>
	<path d="M184.385,184.721c1.32,0,2.61-0.53,3.54-1.46c0.93-0.94,1.47-2.22,1.47-3.54c0-1.31-0.54-2.6-1.47-3.53
		c-0.93-0.94-2.22-1.47-3.54-1.47c-1.31,0-2.6,0.53-3.53,1.47c-0.93,0.93-1.46,2.21-1.46,3.53c0,1.32,0.53,2.61,1.46,3.54
		C181.785,184.19,183.075,184.721,184.385,184.721z"/>
	<path d="M216.505,198.25c2.76,0,5-2.24,5.01-5c0-2.76-2.24-5-5-5c-2.77,0-5.01,2.24-5.01,5
		C211.505,196.011,213.745,198.25,216.505,198.25z"/>
	<path d="M233.935,194.75c0.65,0,1.31-0.13,1.94-0.39c2.55-1.08,3.74-4.01,2.67-6.55c-1.07-2.55-4-3.74-6.55-2.67
		c-2.54,1.07-3.74,4-2.67,6.55C230.135,193.601,231.985,194.75,233.935,194.75z"/>
	<path d="M197.145,194.351c0.63,0.27,1.29,0.39,1.94,0.39c1.95,0,3.8-1.15,4.61-3.06c1.07-2.54-0.12-5.47-2.67-6.55
		c-2.54-1.07-5.48,0.12-6.55,2.67C193.405,190.341,194.594,193.281,197.145,194.351z"/>
	<path d="M248.645,184.721c1.32,0,2.61-0.53,3.54-1.46c0.93-0.93,1.46-2.22,1.46-3.54c0-1.31-0.53-2.6-1.46-3.53
		c-0.93-0.93-2.22-1.47-3.54-1.47s-2.61,0.54-3.53,1.47c-0.94,0.93-1.47,2.22-1.47,3.53c0,1.32,0.53,2.61,1.47,3.54
		C246.035,184.19,247.325,184.721,248.645,184.721z"/>
</g>
<g>
</g>
<g>
</g>
<g>
</g>
<g>
</g>
<g>
</g>
<g>
</g>
<g>
</g>
<g>
</g>
<g>
</g>
<g>
</g>
<g>
</g>
<g>
</g>
<g>
</g>
<g>
</g>
<g>
</g>
</svg>
