<?xml version="1.0" encoding="iso-8859-1"?>
<!-- Generator: Adobe Illustrator 19.0.0, SVG Export Plug-In . SVG Version: 6.00 Build 0)  -->
<svg version="1.1" id="Capa_1" xmlns="http://www.w3.org/2000/svg" xmlns:xlink="http://www.w3.org/1999/xlink" x="0px" y="0px"
	 viewBox="0 0 463 463" style="enable-background:new 0 0 463 463;" xml:space="preserve">
<g>
	<path d="M455.5,87c4.142,0,7.5-3.358,7.5-7.5v-48C463,14.131,448.869,0,431.5,0S400,14.131,400,31.5V40h-18.313l1.211-7.267
		c0.362-2.174-0.25-4.398-1.675-6.081S377.705,24,375.5,24h-43.986L320.115,6.902C317.234,2.58,312.413,0,307.219,0H155.781
		c-5.194,0-10.015,2.58-12.896,6.902L131.486,24H87.5c-2.205,0-4.298,0.97-5.723,2.652s-2.038,3.906-1.675,6.081L81.313,40H63v-8.5
		C63,14.131,48.869,0,31.5,0S0,14.131,0,31.5v48C0,83.642,3.358,87,7.5,87H24v17.909C10.241,108.284,0,120.715,0,135.5v24
		c0,4.142,3.358,7.5,7.5,7.5h48c4.142,0,7.5-3.358,7.5-7.5v-24c0-14.785-10.241-27.216-24-30.591V87h16.5c4.142,0,7.5-3.358,7.5-7.5
		V55h20.813l2.061,12.364C87.771,78.742,97.52,87,109.054,87h2.446h5.167c3.496,0,6.594,2.097,7.892,5.343l7.954,19.884
		c2.225,5.561,6.362,9.899,11.486,12.397V151.5c0,10.336,6.71,19.128,16,22.266V184h-24.5c-4.142,0-7.5,3.358-7.5,7.5v8.5H86.091
		c-3.374-13.759-15.806-24-30.591-24C38.131,176,24,190.131,24,207.5v56c0,4.142,3.358,7.5,7.5,7.5H48v9H31.5
		c-4.142,0-7.5,3.358-7.5,7.5v32c0,1.989,0.79,3.897,2.197,5.303L32,330.606V368h-0.5c-3.667,0-6.795,2.65-7.398,6.267
		l-7.109,42.657C7.191,419.753,0,428.8,0,439.5v16c0,4.142,3.358,7.5,7.5,7.5h96c4.142,0,7.5-3.358,7.5-7.5v-16
		c0-10.7-7.191-19.747-16.993-22.576l-7.109-42.657C86.295,370.65,83.167,368,79.5,368H79v-37.394l5.803-5.803
		C86.21,323.397,87,321.489,87,319.5v-32c0-4.142-3.358-7.5-7.5-7.5H63v-9h16.5c4.142,0,7.5-3.358,7.5-7.5V247h42.234
		c3.138,9.29,11.93,16,22.266,16h38.98l0.508,3.049c1.251,7.504,7.681,12.951,15.289,12.951h50.446
		c7.608,0,14.038-5.447,15.289-12.952L272.52,263h38.98c10.336,0,19.128-6.71,22.266-16H376v16.5c0,4.142,3.358,7.5,7.5,7.5H400v9
		h-16.5c-4.142,0-7.5,3.358-7.5,7.5v32c0,1.989,0.79,3.897,2.197,5.303l5.803,5.803V368h-0.5c-3.667,0-6.795,2.65-7.398,6.267
		l-7.109,42.657C359.191,419.753,352,428.8,352,439.5v16c0,4.142,3.358,7.5,7.5,7.5h96c4.142,0,7.5-3.358,7.5-7.5v-16
		c0-10.7-7.191-19.747-16.993-22.576l-7.109-42.657c-0.603-3.617-3.731-6.267-7.398-6.267H431v-37.394l5.803-5.803
		c1.407-1.406,2.197-3.314,2.197-5.303v-32c0-4.142-3.358-7.5-7.5-7.5H415v-9h16.5c4.142,0,7.5-3.358,7.5-7.5v-56
		c0-17.369-14.131-31.5-31.5-31.5c-14.785,0-27.216,10.241-30.591,24H335v-8.5c0-4.142-3.358-7.5-7.5-7.5H303v-10.234
		c9.29-3.138,16-11.93,16-22.266v-26.875c5.124-2.498,9.261-6.835,11.486-12.396l7.955-19.886c1.298-3.246,4.396-5.343,7.892-5.343
		h7.613c11.535,0,21.283-8.258,23.18-19.637L379.187,55H400v24.5c0,4.142,3.358,7.5,7.5,7.5H424v17.909
		c-13.759,3.374-24,15.806-24,30.591v24c0,4.142,3.358,7.5,7.5,7.5h48c4.142,0,7.5-3.358,7.5-7.5v-24
		c0-14.785-10.241-27.216-24-30.591V87H455.5z M15,152v-9h33v9H15z M46.179,128H16.821c2.737-5.334,8.282-9,14.679-9
		S43.442,122.666,46.179,128z M48,72h-9v-8.5c0-4.142-3.358-7.5-7.5-7.5S24,59.358,24,63.5V72h-9V31.5C15,22.402,22.402,15,31.5,15
		S48,22.402,48,31.5V72z M73.146,383l5.5,33H32.353l5.5-33H73.146z M96,448H15v-8.5c0-4.687,3.813-8.5,8.5-8.5h63.969
		c0.007,0,0.014,0.001,0.022,0.001c0.004,0,0.007-0.001,0.011-0.001c4.686,0.001,8.498,3.813,8.498,8.5V448z M72,295v21.394
		l-5.803,5.803C64.79,323.603,64,325.511,64,327.5V368H47v-40.5c0-1.989-0.79-3.897-2.197-5.303L39,316.394V295h9v8.5
		c0,4.142,3.358,7.5,7.5,7.5s7.5-3.358,7.5-7.5V295H72z M425.146,383l5.5,33h-46.293l5.5-33H425.146z M448,448h-81v-8.5
		c0-4.687,3.813-8.5,8.5-8.5h63.969c0.007,0,0.014,0.001,0.022,0.001c0.004,0,0.007-0.001,0.011-0.001
		c4.686,0.001,8.498,3.813,8.498,8.5V448z M424,295v21.394l-5.803,5.803c-1.407,1.406-2.197,3.314-2.197,5.303V368h-17v-40.5
		c0-1.989-0.79-3.897-2.197-5.303L391,316.394V295h9v8.5c0,4.142,3.358,7.5,7.5,7.5s7.5-3.358,7.5-7.5V295H424z M155.365,15.223
		c0.093-0.14,0.249-0.223,0.416-0.223h151.438c0.167,0,0.323,0.083,0.416,0.223L313.486,24H279.5c-2.361,0-4.583,1.111-6,3
		l-19.2,25.6c-1.597,2.129-4.139,3.4-6.8,3.4h-32c-2.661,0-5.203-1.271-6.8-3.4L189.5,27c-1.417-1.889-3.639-3-6-3h-33.986
		L155.365,15.223z M159,127h33v33h-24.5c-4.687,0-8.5-3.813-8.5-8.5V127z M224,127v33h-17v-33H224z M256,127v33h-17v-33H256z
		 M72,256H39v-48.5c0-9.098,7.402-16.5,16.5-16.5S72,198.402,72,207.5V256z M87,215h41v17H87V215z M151.5,248
		c-4.687,0-8.5-3.813-8.5-8.5V199h57v17h-8.5c-2.205,0-4.298,0.97-5.723,2.652s-2.038,3.906-1.675,6.081L187.98,248H151.5z M248,199
		v17h-33v-17H248z M257.216,263.582c-0.041,0.242-0.248,0.418-0.493,0.418h-50.446c-0.246,0-0.453-0.176-0.493-0.417L200.354,231
		h62.293L257.216,263.582z M407.5,191c9.098,0,16.5,7.402,16.5,16.5V256h-33v-48.5C391,198.402,398.402,191,407.5,191z M376,215v17
		h-41v-17H376z M320,239.5c0,4.687-3.813,8.5-8.5,8.5h-36.48l3.878-23.267c0.362-2.175-0.25-4.398-1.675-6.081
		S273.705,216,271.5,216H263v-17h57V239.5z M175,184v-9h113v9H175z M295.5,160H271v-33h33v24.5C304,156.187,300.187,160,295.5,160z
		 M362.33,64.897c-0.686,4.116-4.212,7.103-8.384,7.103h-7.613c-0.62,0-1.235,0.026-1.844,0.073C344.164,72.03,343.836,72,343.5,72
		h-48c-4.142,0-7.5,3.358-7.5,7.5s3.358,7.5,7.5,7.5h28.922l-7.863,19.657c-1.298,3.246-4.396,5.343-7.892,5.343H154.333
		c-3.496,0-6.594-2.098-7.893-5.344L138.578,87H159.5c4.142,0,7.5-3.358,7.5-7.5s-3.358-7.5-7.5-7.5h-42.833H111.5h-2.446
		c-4.172,0-7.698-2.987-8.384-7.103L96.354,39h39.177c0.005,0,0.01,0,0.015,0h44.204l16.95,22.6c4.414,5.886,11.442,9.4,18.8,9.4h32
		c7.357,0,14.386-3.514,18.8-9.4L283.25,39h44.241c0.005,0,0.011,0.001,0.016,0.001c0.005,0,0.009-0.001,0.014-0.001h39.126
		L362.33,64.897z M415,152v-9h33v9H415z M446.179,128h-29.357c2.737-5.334,8.282-9,14.679-9S443.442,122.666,446.179,128z M415,72
		V31.5c0-9.098,7.402-16.5,16.5-16.5S448,22.402,448,31.5V72h-9v-8.5c0-4.142-3.358-7.5-7.5-7.5s-7.5,3.358-7.5,7.5V72H415z"/>
	<path d="M223.5,47h16c4.142,0,7.5-3.358,7.5-7.5s-3.358-7.5-7.5-7.5h-16c-4.142,0-7.5,3.358-7.5,7.5S219.358,47,223.5,47z"/>
</g>
<g>
</g>
<g>
</g>
<g>
</g>
<g>
</g>
<g>
</g>
<g>
</g>
<g>
</g>
<g>
</g>
<g>
</g>
<g>
</g>
<g>
</g>
<g>
</g>
<g>
</g>
<g>
</g>
<g>
</g>
</svg>
