<?xml version="1.0" encoding="iso-8859-1"?>
<!-- Generator: Adobe Illustrator 18.0.0, SVG Export Plug-In . SVG Version: 6.00 Build 0)  -->
<!DOCTYPE svg PUBLIC "-//W3C//DTD SVG 1.1//EN" "http://www.w3.org/Graphics/SVG/1.1/DTD/svg11.dtd">
<svg version="1.1" id="Capa_1" xmlns="http://www.w3.org/2000/svg" xmlns:xlink="http://www.w3.org/1999/xlink" x="0px" y="0px"
	 viewBox="0 0 482.439 482.439" style="enable-background:new 0 0 482.439 482.439;" xml:space="preserve">
<g>
	<path d="M219.998,93.681c0-9.562-7.779-17.341-17.341-17.341s-17.341,7.779-17.341,17.341s7.779,17.341,17.341,17.341
		S219.998,103.243,219.998,93.681z M195.316,93.681c0-4.048,3.293-7.341,7.341-7.341s7.341,3.293,7.341,7.341
		s-3.293,7.341-7.341,7.341S195.316,97.729,195.316,93.681z"/>
	<path d="M262.531,93.681c0,9.562,7.779,17.341,17.341,17.341s17.341-7.779,17.341-17.341s-7.779-17.341-17.341-17.341
		S262.531,84.119,262.531,93.681z M287.213,93.681c0,4.048-3.293,7.341-7.341,7.341s-7.341-3.293-7.341-7.341
		s3.293-7.341,7.341-7.341S287.213,89.633,287.213,93.681z"/>
	<path d="M278.094,200.919c-1.76-1.818-4.228-2.861-6.771-2.861h-60.118c-2.544,0-5.012,1.043-6.77,2.861
		c-8.378,8.654-16.595,23.045-21.979,38.495c-1.247,3.58-0.68,7.563,1.518,10.657c2.205,3.103,5.792,4.955,9.598,4.955h95.385
		c3.806,0,7.394-1.853,9.599-4.955c2.198-3.094,2.765-7.077,1.518-10.657C294.688,223.963,286.471,209.572,278.094,200.919z
		 M192.126,244.278c-0.194-0.273-0.482-0.841-0.227-1.574c4.891-14.033,12.184-26.958,19.544-34.646h23.031l-16,20.942h22.575
		l-11.084,16.025h-36.393C192.776,245.025,192.324,244.557,192.126,244.278z M290.404,244.278c-0.198,0.279-0.65,0.747-1.447,0.747
		h-46.832l18-26.025h-21.425l8.36-10.942h24.027c7.358,7.686,14.652,20.612,19.544,34.646
		C290.885,243.436,290.597,244.004,290.404,244.278z"/>
	<path d="M193.763,267.059c-1.31,0-2.6,0.53-3.53,1.46c-0.93,0.93-1.47,2.22-1.47,3.54s0.54,2.61,1.47,3.53
		c0.93,0.93,2.21,1.47,3.53,1.47c1.32,0,2.61-0.54,3.54-1.47c0.93-0.92,1.46-2.21,1.46-3.53s-0.53-2.61-1.46-3.54
		C196.373,267.589,195.083,267.059,193.763,267.059z"/>
	<circle cx="225.433" cy="272.059" r="5"/>
	<path d="M209.593,277.059c2.77,0,5.01-2.24,5.01-5c0-2.76-2.24-5-5.01-5c-2.76,0-4.99,2.24-4.99,5
		C204.603,274.819,206.833,277.059,209.593,277.059z"/>
	<path d="M257.103,267.059c-2.77,0-5.01,2.24-5.01,5c0,2.76,2.24,5,5.01,5c2.76,0,4.99-2.24,4.99-5
		C262.093,269.299,259.863,267.059,257.103,267.059z"/>
	<circle cx="241.263" cy="272.059" r="5"/>
	<circle cx="272.933" cy="272.059" r="5"/>
	<path d="M288.763,267.059c-1.32,0-2.6,0.53-3.53,1.46c-0.93,0.93-1.47,2.22-1.47,3.54s0.54,2.6,1.47,3.53
		c0.93,0.94,2.22,1.47,3.53,1.47c1.32,0,2.61-0.53,3.54-1.47c0.93-0.93,1.46-2.22,1.46-3.53c0-1.32-0.53-2.61-1.46-3.54
		C291.373,267.589,290.083,267.059,288.763,267.059z"/>
	<path d="M209.763,294.059c-1.32,0-2.6,0.53-3.53,1.46c-0.93,0.93-1.47,2.22-1.47,3.54s0.54,2.6,1.47,3.53
		c0.93,0.94,2.22,1.47,3.53,1.47c1.32,0,2.61-0.53,3.54-1.47c0.93-0.92,1.46-2.21,1.46-3.53s-0.53-2.61-1.46-3.54
		C212.373,294.589,211.083,294.059,209.763,294.059z"/>
	<circle cx="257.013" cy="299.059" r="5"/>
	<circle cx="241.263" cy="299.059" r="5"/>
	<circle cx="225.513" cy="299.059" r="5"/>
	<path d="M272.763,294.059c-1.31,0-2.6,0.53-3.53,1.46c-0.93,0.93-1.47,2.22-1.47,3.54s0.54,2.6,1.47,3.53
		c0.93,0.94,2.21,1.47,3.53,1.47c1.32,0,2.61-0.53,3.54-1.47c0.93-0.93,1.46-2.21,1.46-3.53s-0.53-2.61-1.46-3.54
		C275.373,294.589,274.083,294.059,272.763,294.059z"/>
	<path d="M371.853,250.439c0-8.547-6.953-15.5-15.5-15.5c-0.5,0-0.992,0.029-1.48,0.075c-9.791-16.599-27.398-27.353-46.769-28.384
		c-4.262-7.397-9.251-14.461-14.922-20.319c-5.693-5.881-13.66-9.254-21.858-9.254h-25.059v-6.283
		c12.812-0.406,25.614-2.368,38.337-5.899l3.268-0.907l0.366-3.372c1.145-10.553,1.652-21.634,1.519-32.991
		c14.691-4.287,25.459-17.868,25.459-33.925c0-18.794-14.748-34.204-33.278-35.276c-2.736-6.992-9.04-12.162-16.721-13.339
		c-6.291-0.964-12.617-1.541-18.95-1.742V30.157c6.098-2.086,10.5-7.861,10.5-14.657c0-8.547-6.953-15.5-15.5-15.5
		s-15.5,6.953-15.5,15.5c0,6.796,4.402,12.57,10.5,14.657v13.167c-6.333,0.201-12.658,0.777-18.949,1.742
		c-7.669,1.175-13.964,6.329-16.714,13.338c-18.534,1.068-33.286,16.48-33.286,35.277c0,16.057,10.768,29.638,25.459,33.925
		c-0.133,11.353,0.373,22.434,1.519,32.991l0.366,3.372l3.268,0.907c12.723,3.531,25.525,5.492,38.337,5.899v6.283h-25.059
		c-8.198,0-16.166,3.373-21.858,9.254c-5.67,5.857-10.658,12.918-14.919,20.314c-19.407,1.001-37.055,11.763-46.861,28.389
		c-0.488-0.046-0.981-0.075-1.48-0.075c-8.547,0-15.5,6.953-15.5,15.5c0,5.53,2.921,10.38,7.291,13.124
		c0.57,17.897,9.456,34.407,23.619,44.81c-3.008,2.745-4.91,6.683-4.91,11.067v22h3.5v10h10v-10h3v10h10v-10h3.5v-22
		c0-7.113-4.982-13.073-11.636-14.606c-15.264-7.337-25.483-22.285-26.922-39.03c7.632-0.96,13.558-7.477,13.558-15.365
		c0-4.427-1.875-8.415-4.861-11.242c7.133-11.507,18.869-19.466,32.128-21.884c-3.795,8.057-6.719,16.036-8.666,22.876
		c-1.689,5.934-1.862,12.22-0.5,18.18c2.823,12.35,13.242,54.374,28.825,76.633c1.339,1.913,2.896,3.628,4.621,5.127
		c-12.78,37.994-13.044,79.44-0.783,117.553c-4.836,2.834-8.1,8.073-8.1,14.072v10.685h50.121v-10.685
		c0-7.458-5.035-13.748-11.88-15.686c-13.233-35.152-13.61-73.622-1.073-109.01h39.69c12.538,35.389,12.16,73.858-1.074,109.011
		c-6.845,1.938-11.88,8.229-11.88,15.686v10.685h50.121v-10.685c0-5.999-3.264-11.238-8.099-14.072
		c12.262-38.113,11.997-79.559-0.783-117.553c1.725-1.498,3.282-3.214,4.621-5.127c15.583-22.26,26.002-64.284,28.825-76.633
		c1.362-5.96,1.189-12.247-0.5-18.18c-1.945-6.835-4.867-14.807-8.658-22.858c13.219,2.439,24.915,10.387,32.031,21.867
		c-2.986,2.827-4.861,6.815-4.861,11.242c0,7.888,5.926,14.405,13.558,15.365c-1.439,16.744-11.658,31.693-26.922,39.03
		c-6.654,1.533-11.636,7.493-11.636,14.606v22h3.5v10h10v-10h3v10h10v-10h3.5v-22c0-4.383-1.901-8.321-4.909-11.066
		c14.163-10.403,23.048-26.913,23.619-44.811C368.932,260.819,371.853,255.97,371.853,250.439z M305.214,93.681
		c0,13.973-11.368,25.341-25.341,25.341s-25.341-11.368-25.341-25.341s11.368-25.341,25.341-25.341S305.214,79.708,305.214,93.681z
		 M241.264,10c3.033,0,5.5,2.467,5.5,5.5s-2.467,5.5-5.5,5.5s-5.5-2.467-5.5-5.5S238.232,10,241.264,10z M218.831,54.95
		c14.886-2.282,29.982-2.282,44.868,0c3.06,0.469,5.711,2.114,7.471,4.476c-15.292,3.887-26.638,17.77-26.638,34.254
		c0,19.452,15.797,35.281,35.235,35.339c0.019,2.67,0.003,5.323-0.051,7.954c-25.031-7.559-51.869-7.562-76.9-0.009
		c-0.054-2.629-0.071-5.279-0.051-7.946c19.438-0.058,35.235-15.887,35.235-35.339c0-16.488-11.35-30.372-26.647-34.256
		C213.107,57.072,215.764,55.42,218.831,54.95z M177.316,93.681c0-13.973,11.368-25.341,25.341-25.341s25.341,11.368,25.341,25.341
		s-11.368,25.341-25.341,25.341S177.316,107.654,177.316,93.681z M203.225,147.333c24.677-8.024,51.402-8.021,76.078,0.01
		c-0.175,2.958-0.393,5.887-0.665,8.772c-24.819,6.321-49.929,6.321-74.748,0C203.618,153.226,203.4,150.294,203.225,147.333z
		 M156.587,331.439h-10v-12c0-2.757,2.243-5,5-5s5,2.243,5,5V331.439z M126.087,255.939c-3.033,0-5.5-2.467-5.5-5.5
		s2.467-5.5,5.5-5.5s5.5,2.467,5.5,5.5S129.119,255.939,126.087,255.939z M210.862,347.034c-11.694,35.3-11.425,73.28,0.768,108.406
		h-9.5c-11.66-35.639-11.714-74.417-0.182-110.113C204.777,346.364,207.783,346.948,210.862,347.034z M224.373,472.439h-30.121
		v-0.685c0-3.482,2.833-6.315,6.315-6.315h17.492c3.482,0,6.314,2.833,6.314,6.315V472.439z M288.277,472.439h-30.121v-0.685
		c0-3.482,2.833-6.315,6.315-6.315h17.492c3.482,0,6.314,2.833,6.314,6.315V472.439z M280.399,455.439h-9.5
		c12.193-35.125,12.462-73.106,0.769-108.406c3.078-0.086,6.085-0.669,8.914-1.707C292.113,381.023,292.059,419.8,280.399,455.439z
		 M313.092,256.142c-5.605,24.528-15.712,56.619-27.268,73.126c-3.415,4.877-9,7.79-14.943,7.79h-59.233
		c-5.942,0-11.528-2.912-14.943-7.79c-11.556-16.507-21.663-48.598-27.268-73.126c-0.988-4.325-0.861-8.895,0.369-13.215
		c5.399-18.973,15.889-38.465,26.725-49.659c3.82-3.946,9.168-6.209,14.674-6.209h60.118c5.505,0,10.854,2.263,14.674,6.209
		c10.835,11.194,21.326,30.687,26.726,49.659C313.953,247.247,314.08,251.817,313.092,256.142z M325.853,319.439
		c0-2.757,2.243-5,5-5s5,2.243,5,5v12h-10V319.439z M350.853,250.439c0-3.033,2.467-5.5,5.5-5.5s5.5,2.467,5.5,5.5
		s-2.467,5.5-5.5,5.5S350.853,253.472,350.853,250.439z"/>
</g>
<g>
</g>
<g>
</g>
<g>
</g>
<g>
</g>
<g>
</g>
<g>
</g>
<g>
</g>
<g>
</g>
<g>
</g>
<g>
</g>
<g>
</g>
<g>
</g>
<g>
</g>
<g>
</g>
<g>
</g>
</svg>
