<?xml version="1.0" encoding="iso-8859-1"?>
<!-- Generator: Adobe Illustrator 18.0.0, SVG Export Plug-In . SVG Version: 6.00 Build 0)  -->
<!DOCTYPE svg PUBLIC "-//W3C//DTD SVG 1.1//EN" "http://www.w3.org/Graphics/SVG/1.1/DTD/svg11.dtd">
<svg version="1.1" id="Capa_1" xmlns="http://www.w3.org/2000/svg" xmlns:xlink="http://www.w3.org/1999/xlink" x="0px" y="0px"
	 viewBox="0 0 472.342 472.342" style="enable-background:new 0 0 472.342 472.342;" xml:space="preserve">
<g>
	<path d="M217.737,185c0,10.165,8.27,18.434,18.434,18.434s18.434-8.27,18.434-18.434s-8.269-18.434-18.434-18.434
		S217.737,174.835,217.737,185z M244.605,185c0,4.65-3.783,8.434-8.434,8.434s-8.434-3.784-8.434-8.434s3.784-8.434,8.434-8.434
		S244.605,180.35,244.605,185z"/>
	<path d="M254.674,153.01c-2.39-1.38-5.45-0.57-6.83,1.82c-1.39,2.39-0.57,5.45,1.82,6.83c0.78,0.46,1.65,0.68,2.5,0.68
		c1.72,0,3.4-0.89,4.33-2.49C257.874,157.46,257.064,154.4,254.674,153.01z"/>
	<path d="M266.304,196.76c-2.39-1.39-5.45-0.58-6.84,1.8c-1.39,2.39-0.59,5.45,1.8,6.84c0.79,0.46,1.66,0.68,2.51,0.68
		c1.72,0,3.4-0.88,4.33-2.48C269.494,201.22,268.684,198.16,266.304,196.76z"/>
	<path d="M261.344,164.7c-2.39,1.39-3.21,4.45-1.82,6.83c0.92,1.61,2.6,2.5,4.33,2.5c0.85,0,1.71-0.21,2.5-0.67
		c2.39-1.38,3.21-4.44,1.82-6.83C266.794,164.14,263.734,163.32,261.344,164.7z"/>
	<path d="M263.124,185c-0.01,0-0.01,0-0.01,0c0,0.02,0,0.05,0.01,0.07c0,0.01-0.01,0.03-0.01,0.04c-0.01,2.76,2.22,5.01,4.98,5.03
		c0.01,0,0.02,0,0.02,0c2.76,0,4.99-2.23,5-4.98c0-0.01,0-0.02,0-0.02c0.01-0.05,0.01-0.1,0.01-0.14h-0.01c0-2.76-2.23-5-4.99-5
		C265.354,180,263.124,182.24,263.124,185z"/>
	<path d="M249.564,208.39c-2.4,1.38-3.22,4.43-1.85,6.83c0.92,1.61,2.61,2.51,4.34,2.51c0.85,0,1.7-0.21,2.49-0.66v-0.01
		c2.39-1.37,3.22-4.43,1.84-6.82C255.014,207.85,251.954,207.02,249.564,208.39z"/>
	<path d="M222.634,208.31c-2.39-1.39-5.45-0.59-6.84,1.8c-1.39,2.39-0.58,5.45,1.81,6.84c0.79,0.46,1.65,0.68,2.51,0.68
		c1.72,0,3.4-0.89,4.32-2.49C225.824,212.76,225.024,209.7,222.634,208.31z"/>
	<path d="M220.234,162.31c0.85,0,1.71-0.22,2.5-0.67c2.39-1.38,3.21-4.44,1.83-6.83c-1.38-2.4-4.44-3.22-6.83-1.84
		c-2.39,1.38-3.21,4.44-1.83,6.83C216.824,161.41,218.504,162.31,220.234,162.31z"/>
	<path d="M236.204,158.05c2.76,0,5-2.23,5-4.99c0-2.77-2.23-5.01-4.99-5.01c-2.77,0-5.01,2.24-5.01,5
		C231.204,155.81,233.434,158.05,236.204,158.05z"/>
	<path d="M204.224,189.93c2.75,0,4.99-2.23,5-4.99c0-2.76-2.23-5-4.99-5.01c-2.76,0-5.01,2.23-5.01,4.99
		c-0.01,2.76,2.23,5.01,4.99,5.01H204.224z"/>
	<path d="M205.964,196.57c-2.39,1.38-3.22,4.44-1.84,6.83c0.93,1.61,2.61,2.51,4.34,2.51c0.85,0,1.7-0.22,2.49-0.67
		c2.39-1.37,3.22-4.43,1.84-6.82C211.414,196.02,208.364,195.2,205.964,196.57z"/>
	<path d="M211.034,164.65c-2.39-1.39-5.45-0.57-6.83,1.81c-1.39,2.39-0.58,5.45,1.81,6.84c0.79,0.46,1.65,0.68,2.51,0.68
		c1.72,0,3.4-0.9,4.33-2.49C214.234,169.1,213.424,166.04,211.034,164.65z"/>
	<path d="M236.084,211.95c-2.76-0.01-5.01,2.22-5.01,4.98c-0.01,2.76,2.22,5.01,4.98,5.02c0.01,0,0.01,0,0.01,0
		c2.76,0,5-2.23,5.01-4.99C241.074,214.2,238.844,211.96,236.084,211.95z"/>
	<path d="M376.964,189h-2.922c-2.209-11.851-12.11-21.024-24.311-22.123l-32.914-40.129c-0.691-0.99-1.46-1.933-2.331-2.804
		c-7.993-7.992-20.999-7.994-28.992,0c-0.001,0.001-0.002,0.002-0.002,0.003l-17.478,17.478
		c-7.669-5.619-16.865-9.264-26.843-10.184V121h31.596V54.804c0-9.005-5.283-17.264-13.459-21.04
		c-4.648-2.146-7.651-6.841-7.651-11.961v-6.318C251.657,6.947,244.71,0,236.171,0s-15.486,6.947-15.486,15.486v6.318
		c0,5.12-3.003,9.815-7.651,11.961c-8.176,3.776-13.459,12.034-13.459,21.04V121h31.596v10.24
		c-9.978,0.921-19.175,4.566-26.843,10.185l-17.478-17.478c-0.001-0.001-0.002-0.002-0.002-0.003
		c-7.993-7.992-20.999-7.994-28.992,0c-0.871,0.871-1.641,1.815-2.331,2.804l-32.914,40.129
		c-12.2,1.098-22.102,10.272-24.311,22.123h-2.922v10h2.454v67.931h11.37V273h-11.37v26.931v5V328h10v-23.069h4.827V328h10v-23.069
		h4.827V328h10v-23.069h4.827V328h10v-23.069v-5V273h-11.37v-6.069h11.37V199h2.451v-10h-2.913
		c-0.991-5.367-3.57-10.312-7.517-14.269c-2.882-2.875-6.293-5.026-10.011-6.365l18.784-22.902c1.01,2.772,2.601,5.323,4.749,7.471
		c3.872,3.872,9.02,6.004,14.496,6.004c5.476,0,10.624-2.132,14.496-6.004h0c2.66-2.659,4.475-5.927,5.366-9.483l4.616,4.616
		c-8.006,8.524-13.282,19.634-14.417,31.932h-5.099c-10.477,0-19,8.523-19,19v18c0,10.477,8.523,19,19,19c4.962,0,9,4.038,9,9v3
		h-9.197v13.117c-10.551,1.102-18.803,10.046-18.803,20.883c0,11.58,9.42,21,21,21h5.738c6.065,0,11,4.935,11,11v19.753h-7.683
		v19.318c-7.233,3.823-12.544,10.804-14.089,19.097h-2.92v10h2.452v57.933h-2.452v10h2.92c2.356,12.639,13.46,22.24,26.772,22.24
		s24.417-9.601,26.772-22.24h2.92v-10h-2.452v-57.933h2.452v-10h-2.92c-1.546-8.293-6.856-15.274-14.089-19.097v-19.318h-7.683V314
		c0-11.58-9.42-21-21-21h-5.738c-6.065,0-11-4.935-11-11c0-5.313,3.787-9.758,8.803-10.779V284h33.056v20h52v-20h33.056v-13h0.439
		c6.065,0,11,4.935,11,11s-4.935,11-11,11h-5.738c-11.58,0-21,9.42-21,21v19.753h-7.683v19.318
		c-7.233,3.823-12.544,10.804-14.089,19.097h-2.92v10h2.452v57.933h-2.452v10h2.92c2.356,12.639,13.46,22.24,26.772,22.24
		c13.312,0,24.416-9.601,26.772-22.24h2.921v-10h-2.453v-57.933h2.453v-10h-2.921c-1.545-8.293-6.856-15.274-14.089-19.097v-19.318
		h-7.683V314c0-6.065,4.935-11,11-11h5.738c11.58,0,21-9.42,21-21s-9.42-21-21-21h-0.439v-13h-9.197v-3c0-4.962,4.038-9,9-9
		c10.477,0,19-8.523,19-19v-18c0-10.477-8.523-19-19-19h-5.099c-1.135-12.298-6.411-23.408-14.418-31.932l4.616-4.616
		c0.891,3.556,2.706,6.824,5.365,9.483c3.872,3.872,9.02,6.004,14.496,6.004c5.476,0,10.624-2.132,14.496-6.004
		c2.149-2.148,3.739-4.698,4.75-7.471l18.785,22.902c-3.719,1.34-7.132,3.493-10.02,6.373c-3.94,3.95-6.517,8.894-7.508,14.26
		h-2.913v10h2.451v67.931h11.372V273H320.03v26.931v5V328h10v-23.069h4.827V328h10v-23.069h4.827V328h10v-23.069h4.827V328h10
		v-23.069v-5V273h-11.369v-6.069h11.369V199h2.454V189z M217.226,42.843c8.176-3.775,13.458-12.034,13.458-21.04v-6.318
		c0-3.025,2.461-5.486,5.486-5.486c3.025,0,5.486,2.461,5.486,5.486v6.318c0,9.006,5.283,17.264,13.458,21.04
		c4.648,2.147,7.651,6.842,7.651,11.961V90h-12.096V61h-10v29h-9V61h-10v29h-12.096V54.804
		C209.575,49.685,212.578,44.99,217.226,42.843z M209.575,100h53.192v11h-53.192V100z M142.312,294.931h-34.48V283h34.48V294.931z
		 M130.942,273h-11.74v-6.069h11.74V273z M142.312,256.931h-34.48V199h34.48V256.931z M141.578,189h-33
		c2.149-7.074,8.728-12.239,16.494-12.239c4.602,0,8.934,1.793,12.19,5.042C139.302,183.848,140.767,186.313,141.578,189z
		 M179.777,145.864L179.777,145.864c-4.094,4.095-10.755,4.094-14.85,0c-1.983-1.983-3.075-4.62-3.075-7.424
		s1.092-5.441,3.076-7.425c1.983-1.983,4.62-3.075,7.424-3.075c2.805,0,5.442,1.092,7.425,3.075c1.983,1.983,3.076,4.62,3.076,7.425
		S181.76,143.881,179.777,145.864z M201.05,462.342c-7.768,0-14.346-5.166-16.495-12.24h32.99
		C215.396,457.176,208.818,462.342,201.05,462.342z M218.29,440.102h-34.48v-57.933h34.48V440.102z M184.555,372.168
		c2.149-7.075,8.728-12.24,16.495-12.24s14.346,5.166,16.495,12.24H184.555z M201.05,349.928c-0.905,0-1.8,0.047-2.683,0.133v-6.308
		h5.366v6.308C202.85,349.975,201.956,349.928,201.05,349.928z M273.927,462.342c-7.768,0-14.346-5.166-16.495-12.24h32.99
		C288.273,457.176,281.695,462.342,273.927,462.342z M291.167,440.102h-34.48v-57.933h34.48V440.102z M257.432,372.168
		c2.149-7.075,8.728-12.24,16.495-12.24c7.767,0,14.346,5.166,16.495,12.24H257.432z M273.927,349.928
		c-0.905,0-1.8,0.047-2.683,0.133v-6.308h5.366v6.308C275.727,349.975,274.833,349.928,273.927,349.928z M177.312,226
		c-4.962,0-9-4.038-9-9v-18c0-4.962,4.038-9,9-9h5.099c2.38,25.792,22.968,46.38,48.76,48.76V248h-34.859v-3
		C196.312,234.523,187.788,226,177.312,226z M252.171,294h-32v-10h32V294z M285.227,274h-23.056h-52h-23.056v-16h98.112V274z
		 M304.03,199v18c0,4.962-4.038,9-9,9c-10.477,0-19,8.523-19,19v3h-34.859v-9.24c25.792-2.38,46.38-22.968,48.76-48.76h5.099
		C299.992,190,304.03,194.038,304.03,199z M236.171,229c-24.262,0-44-19.738-44-44s19.738-44,44-44s44,19.738,44,44
		S260.433,229,236.171,229z M307.415,145.864c-4.094,4.095-10.755,4.094-14.849,0h0c-1.983-1.983-3.075-4.62-3.075-7.424
		s1.092-5.441,3.076-7.425c1.983-1.983,4.62-3.075,7.424-3.075c2.805,0,5.442,1.092,7.425,3.075c1.983,1.983,3.076,4.62,3.076,7.425
		S309.398,143.881,307.415,145.864z M335.072,181.811c3.265-3.257,7.597-5.05,12.199-5.05c7.767,0,14.345,5.165,16.494,12.239
		h-33.001C331.574,186.313,333.037,183.851,335.072,181.811z M364.51,294.931h-34.48V283h34.48V294.931z M353.141,273h-11.74v-6.069
		h11.74V273z M364.51,256.931h-34.48V199h34.48V256.931z"/>
	<path d="M203.034,271c1.31,0,2.6-0.53,3.53-1.46c0.93-0.94,1.47-2.22,1.47-3.54c0-1.32-0.54-2.6-1.47-3.54
		c-0.93-0.93-2.22-1.46-3.53-1.46c-1.32,0-2.61,0.53-3.54,1.46c-0.93,0.93-1.46,2.22-1.46,3.54c0,1.32,0.53,2.61,1.46,3.54
		C200.424,270.47,201.714,271,203.034,271z"/>
	<circle cx="252.744" cy="266" r="5"/>
	<circle cx="236.174" cy="266" r="5"/>
	<circle cx="219.604" cy="266" r="5"/>
	<path d="M269.314,271c1.32,0,2.6-0.53,3.53-1.46c0.93-0.93,1.47-2.22,1.47-3.54c0-1.32-0.54-2.61-1.47-3.53
		c-0.93-0.94-2.22-1.47-3.53-1.47c-1.32,0-2.61,0.53-3.54,1.47c-0.93,0.92-1.46,2.21-1.46,3.53c0,1.32,0.53,2.61,1.46,3.54
		C266.704,270.47,267.994,271,269.314,271z"/>
</g>
<g>
</g>
<g>
</g>
<g>
</g>
<g>
</g>
<g>
</g>
<g>
</g>
<g>
</g>
<g>
</g>
<g>
</g>
<g>
</g>
<g>
</g>
<g>
</g>
<g>
</g>
<g>
</g>
<g>
</g>
</svg>
