<?xml version="1.0" encoding="iso-8859-1"?>
<!-- Generator: Adobe Illustrator 19.0.0, SVG Export Plug-In . SVG Version: 6.00 Build 0)  -->
<svg version="1.1" id="Capa_1" xmlns="http://www.w3.org/2000/svg" xmlns:xlink="http://www.w3.org/1999/xlink" x="0px" y="0px"
	 viewBox="0 0 463 463" style="enable-background:new 0 0 463 463;" xml:space="preserve">
<g>
	<path d="M151.5,40h-32c-4.143,0-7.5,3.358-7.5,7.5s3.357,7.5,7.5,7.5h32c4.143,0,7.5-3.358,7.5-7.5S155.643,40,151.5,40z"/>
	<path d="M311.5,55h32c4.143,0,7.5-3.358,7.5-7.5s-3.357-7.5-7.5-7.5h-32c-4.143,0-7.5,3.358-7.5,7.5S307.357,55,311.5,55z"/>
	<path d="M431,374.283V351.5c0-10.336-6.71-19.128-16-22.266v-27.469c9.29-3.138,16-11.93,16-22.266s-6.71-19.128-16-22.266V223h0.5
		c12.958,0,23.5-10.542,23.5-23.5S428.458,176,415.5,176H415v-8.5c0-4.142-3.357-7.5-7.5-7.5s-7.5,3.358-7.5,7.5v8.5h-25v-17h8.5
		c4.143,0,7.5-3.358,7.5-7.5s-3.357-7.5-7.5-7.5h-40.002c-1.989,0-3.897,0.791-5.304,2.197L324.394,160h-44.919
		c-0.008,0-0.016,0-0.023,0H255v-32.5c0-10.336-6.71-19.128-16-22.266V55h2.234c3.138,9.29,11.93,16,22.266,16h6.747
		c8.19,14.321,23.608,24,41.253,24H328v17h-40.5c-4.143,0-7.5,3.358-7.5,7.5s3.357,7.5,7.5,7.5h73.373
		c6.276,0,12.178-2.444,16.617-6.883l11.313-11.313c2.929-2.929,2.929-7.678,0-10.606c-2.93-2.929-7.678-2.929-10.607,0
		l-11.313,11.313c-1.605,1.605-3.739,2.49-6.01,2.49H343V95h0.5c26.191,0,47.5-21.309,47.5-47.5S369.691,0,343.5,0h-32
		c-17.646,0-33.063,9.679-41.253,24H263.5c-10.336,0-19.128,6.71-22.266,16h-19.469c-3.138-9.29-11.93-16-22.266-16h-6.747
		C184.563,9.679,169.146,0,151.5,0h-32C93.309,0,72,21.309,72,47.5S93.309,95,119.5,95h0.5v17h-17.873
		c-2.271,0-4.404-0.884-6.01-2.49L84.804,98.197c-2.93-2.929-7.678-2.929-10.607,0c-2.929,2.929-2.929,7.678,0,10.606l11.313,11.313
		c4.439,4.439,10.341,6.883,16.617,6.883H175.5c4.143,0,7.5-3.358,7.5-7.5s-3.357-7.5-7.5-7.5H135V95h16.5
		c17.646,0,33.063-9.679,41.253-24h6.747c10.336,0,19.128-6.71,22.266-16H224v50.234c-9.29,3.138-16,11.93-16,22.266V160h-24.454
		c-0.005,0-0.01,0-0.015,0h-44.925l-13.803-13.803c-1.407-1.407-3.314-2.197-5.304-2.197h-40c-4.143,0-7.5,3.358-7.5,7.5
		s3.357,7.5,7.5,7.5H88v17H63v-8.5c0-4.142-3.357-7.5-7.5-7.5s-7.5,3.358-7.5,7.5v8.5h-0.5C34.542,176,24,186.542,24,199.5
		S34.542,223,47.5,223H48v34.234c-9.29,3.138-16,11.93-16,22.266s6.71,19.128,16,22.266v27.469c-9.29,3.138-16,11.93-16,22.266
		v22.783l-7.615,22.846c-0.629,1.887-0.482,3.947,0.407,5.726l8,16c1.852,3.706,6.356,5.208,10.063,3.354
		c3.704-1.852,5.206-6.357,3.354-10.062l-6.61-13.222L44.905,383h21.189l5.308,15.924l-6.61,13.222
		c-1.853,3.705-0.351,8.21,3.354,10.062c1.077,0.539,2.222,0.793,3.349,0.793c2.751,0,5.4-1.52,6.714-4.147l8-16
		c0.89-1.779,1.036-3.839,0.407-5.726L79,374.283V351.5c0-10.336-6.71-19.128-16-22.266v-27.469c9.29-3.138,16-11.93,16-22.266
		s-6.71-19.128-16-22.266V223h25v72.503c0,14.783,10.239,27.213,24,30.587v25.41c0,4.142,3.357,7.5,7.5,7.5h8.5v0.5
		c0,12.958,10.542,23.5,23.5,23.5h8.5v10.234c-9.29,3.138-16,11.93-16,22.266c0,12.958,10.542,23.5,23.5,23.5
		c2.829,0,5.543-0.503,8.057-1.423L183.896,448H79.5c-4.143,0-7.5,3.358-7.5,7.5s3.357,7.5,7.5,7.5h120
		c2.508,0,4.85-1.253,6.24-3.34l16-24c2.298-3.446,1.366-8.103-2.08-10.4c-3.445-2.298-8.103-1.366-10.4,2.08l-10.311,15.466
		l-11.689-14.611c2.362-3.664,3.74-8.02,3.74-12.695c0-10.336-6.71-19.128-16-22.266V383h8.5c12.958,0,23.5-10.542,23.5-23.5V359
		h8.5c4.143,0,7.5-3.358,7.5-7.5V327h17v24.5c0,4.142,3.357,7.5,7.5,7.5h8.5v0.5c0,12.958,10.542,23.5,23.5,23.5h8.5v10.234
		c-9.29,3.138-16,11.93-16,22.266c0,4.674,1.377,9.031,3.74,12.695l-11.689,14.611L253.74,427.34
		c-2.297-3.446-6.955-4.377-10.4-2.08c-3.446,2.297-4.378,6.954-2.08,10.4l16,24c1.391,2.086,3.732,3.34,6.24,3.34h120
		c4.143,0,7.5-3.358,7.5-7.5s-3.357-7.5-7.5-7.5H279.104l8.339-10.423c2.514,0.92,5.228,1.423,8.057,1.423
		c12.958,0,23.5-10.542,23.5-23.5c0-10.336-6.71-19.128-16-22.266V383h8.5c12.958,0,23.5-10.542,23.5-23.5V359h8.5
		c4.143,0,7.5-3.358,7.5-7.5v-25.409c13.759-3.373,24-15.804,24-30.588V223h25v34.234c-9.29,3.138-16,11.93-16,22.266
		s6.71,19.128,16,22.266v27.469c-9.29,3.138-16,11.93-16,22.266v22.783l-7.615,22.846c-0.629,1.887-0.482,3.947,0.407,5.726l8,16
		c1.852,3.706,6.356,5.208,10.063,3.354c3.704-1.852,5.206-6.357,3.354-10.062l-6.61-13.222L396.905,383h21.189l5.308,15.924
		l-6.61,13.222c-1.853,3.705-0.351,8.21,3.354,10.062c1.077,0.539,2.222,0.793,3.349,0.793c2.751,0,5.4-1.52,6.714-4.147l8-16
		c0.89-1.779,1.036-3.839,0.407-5.726L431,374.283z M311.5,15h32c17.921,0,32.5,14.58,32.5,32.5S361.421,80,343.5,80h-32
		C293.579,80,279,65.42,279,47.5S293.579,15,311.5,15z M263.5,39h1.277c-0.501,2.76-0.777,5.598-0.777,8.5s0.276,5.74,0.777,8.5
		H263.5c-4.687,0-8.5-3.813-8.5-8.5S258.813,39,263.5,39z M151.5,80h-32C101.579,80,87,65.42,87,47.5S101.579,15,119.5,15h32
		c17.921,0,32.5,14.58,32.5,32.5S169.421,80,151.5,80z M199.5,56h-1.277c0.501-2.76,0.777-5.598,0.777-8.5s-0.276-5.74-0.777-8.5
		h1.277c4.687,0,8.5,3.813,8.5,8.5S204.187,56,199.5,56z M64,368H47v-16.5c0-4.687,3.813-8.5,8.5-8.5s8.5,3.813,8.5,8.5V368z
		 M55.5,288c-4.687,0-8.5-3.813-8.5-8.5s3.813-8.5,8.5-8.5s8.5,3.813,8.5,8.5S60.187,288,55.5,288z M167.5,424
		c-4.687,0-8.5-3.813-8.5-8.5s3.813-8.5,8.5-8.5s8.5,3.813,8.5,8.5S172.187,424,167.5,424z M295.5,424c-4.687,0-8.5-3.813-8.5-8.5
		s3.813-8.5,8.5-8.5s8.5,3.813,8.5,8.5S300.187,424,295.5,424z M265.486,175l-6,9h-55.973l-6-9H265.486z M223,127.5
		c0-4.687,3.813-8.5,8.5-8.5s8.5,3.813,8.5,8.5V160h-17V127.5z M47.5,208c-4.687,0-8.5-3.813-8.5-8.5s3.813-8.5,8.5-8.5H88v17H47.5z
		 M192,359.5c0,4.687-3.813,8.5-8.5,8.5h-32c-4.687,0-8.5-3.813-8.5-8.5V359h49V359.5z M208,344h-33v-65h0.5
		c4.143,0,7.5-3.358,7.5-7.5s-3.357-7.5-7.5-7.5h-16c-4.143,0-7.5,3.358-7.5,7.5s3.357,7.5,7.5,7.5h0.5v65h-33v-72.5
		c0-22.332,18.168-40.5,40.5-40.5s40.5,18.168,40.5,40.5V344z M320,359.5c0,4.687-3.813,8.5-8.5,8.5h-32c-4.687,0-8.5-3.813-8.5-8.5
		V359h49V359.5z M336,344h-33v-65h0.5c4.143,0,7.5-3.358,7.5-7.5s-3.357-7.5-7.5-7.5h-16c-4.143,0-7.5,3.358-7.5,7.5
		s3.357,7.5,7.5,7.5h0.5v65h-33v-72.5c0-22.332,18.168-40.5,40.5-40.5s40.5,18.168,40.5,40.5V344z M360,295.503
		c0,6.396-3.666,11.941-9,14.677V271.5c0-30.603-24.897-55.5-55.5-55.5S240,240.897,240,271.5V312h-17v-40.5
		c0-30.603-24.897-55.5-55.5-55.5S112,240.897,112,271.5v38.68c-5.334-2.736-9-8.281-9-14.677V159h13.394l13.803,13.803
		c1.407,1.407,3.314,2.197,5.304,2.197h43.986l13.773,20.66c1.391,2.086,3.732,3.34,6.24,3.34h64c2.508,0,4.85-1.253,6.24-3.34
		L283.514,175h43.987c1.989,0,3.897-0.791,5.304-2.197L346.605,159H360V295.503z M375,191h40.5c4.687,0,8.5,3.813,8.5,8.5
		s-3.813,8.5-8.5,8.5H375V191z M407.5,271c4.687,0,8.5,3.813,8.5,8.5s-3.813,8.5-8.5,8.5s-8.5-3.813-8.5-8.5S402.813,271,407.5,271z
		 M407.5,343c4.687,0,8.5,3.813,8.5,8.5V368h-17v-16.5C399,346.813,402.813,343,407.5,343z"/>
</g>
<g>
</g>
<g>
</g>
<g>
</g>
<g>
</g>
<g>
</g>
<g>
</g>
<g>
</g>
<g>
</g>
<g>
</g>
<g>
</g>
<g>
</g>
<g>
</g>
<g>
</g>
<g>
</g>
<g>
</g>
</svg>
