<?xml version="1.0" encoding="iso-8859-1"?>
<!-- Generator: Adobe Illustrator 18.0.0, SVG Export Plug-In . SVG Version: 6.00 Build 0)  -->
<!DOCTYPE svg PUBLIC "-//W3C//DTD SVG 1.1//EN" "http://www.w3.org/Graphics/SVG/1.1/DTD/svg11.dtd">
<svg version="1.1" id="Capa_1" xmlns="http://www.w3.org/2000/svg" xmlns:xlink="http://www.w3.org/1999/xlink" x="0px" y="0px"
	 viewBox="0 0 477.464 477.464" style="enable-background:new 0 0 477.464 477.464;" xml:space="preserve">
<g>
	<rect x="251.233" y="47.464" width="10" height="26"/>
	<rect x="216.233" y="47.464" width="10" height="26"/>
	<rect x="203.733" y="208.464" width="70" height="10"/>
	<rect x="203.733" y="226.131" width="70" height="10"/>
	<rect x="203.733" y="243.798" width="70" height="10"/>
	<rect x="203.733" y="261.464" width="70" height="10"/>
	<path d="M210.236,197.461c1.31,0,2.6-0.53,3.53-1.46c0.93-0.93,1.47-2.22,1.47-3.54c0-1.31-0.54-2.6-1.47-3.53
		c-0.931-0.93-2.221-1.47-3.53-1.47c-1.32,0-2.61,0.54-3.54,1.47s-1.46,2.22-1.46,3.53c0,1.32,0.53,2.61,1.46,3.54
		C207.625,196.931,208.915,197.461,210.236,197.461z"/>
	<path d="M248.226,197.461c2.77,0,5.01-2.24,5.01-5s-2.24-5-5.01-5c-2.761,0-4.99,2.24-4.99,5S245.465,197.461,248.226,197.461z"/>
	<path d="M229.236,197.461c2.76,0,5-2.24,5-5s-2.24-5-5-5c-2.771,0-5,2.24-5,5S226.465,197.461,229.236,197.461z"/>
	<path d="M267.236,197.461c1.31,0,2.6-0.53,3.53-1.46c0.93-0.93,1.47-2.22,1.47-3.54c0-1.31-0.54-2.6-1.47-3.53
		c-0.931-0.93-2.221-1.47-3.53-1.47c-1.32,0-2.601,0.54-3.54,1.47c-0.93,0.92-1.46,2.21-1.46,3.53s0.53,2.61,1.46,3.54
		C264.625,196.931,265.915,197.461,267.236,197.461z"/>
	<path d="M210.236,179.461c1.31,0,2.6-0.53,3.53-1.46c0.93-0.93,1.47-2.22,1.47-3.54c0-1.31-0.54-2.6-1.47-3.53
		c-0.931-0.93-2.221-1.47-3.53-1.47c-1.32,0-2.61,0.54-3.54,1.47s-1.46,2.22-1.46,3.53c0,1.32,0.53,2.61,1.46,3.54
		C207.625,178.931,208.915,179.461,210.236,179.461z"/>
	<path d="M248.226,179.461c2.77,0,5.01-2.24,5.01-5s-2.24-5-5.01-5c-2.761,0-4.99,2.24-4.99,5S245.465,179.461,248.226,179.461z"/>
	<path d="M229.236,179.461c2.76,0,5-2.24,5-5s-2.24-5-5-5c-2.771,0-5,2.24-5,5S226.465,179.461,229.236,179.461z"/>
	<path d="M267.236,179.461c1.31,0,2.6-0.53,3.53-1.46c0.93-0.93,1.47-2.22,1.47-3.54c0-1.31-0.54-2.6-1.47-3.53
		c-0.931-0.93-2.221-1.47-3.53-1.47c-1.32,0-2.601,0.54-3.54,1.47c-0.93,0.92-1.46,2.21-1.46,3.53s0.53,2.61,1.46,3.54
		C264.625,178.931,265.915,179.461,267.236,179.461z"/>
	<path d="M397.101,255.703c-3.137-3.137-6.711-5.574-10.528-7.319c-0.195-4.984-0.709-9.934-1.569-14.758
		c-0.03-0.186-0.063-0.369-0.094-0.551l-0.085-0.488c-0.626-3.323-1.409-6.63-2.321-9.815c-1.193-4.215-2.688-8.443-4.433-12.546
		c-1.425-3.389-3.057-6.757-4.846-9.997c-2.11-3.848-4.498-7.629-7.097-11.238c-2.151-2.987-4.478-5.895-6.909-8.638
		c-2.93-3.315-6.095-6.48-9.394-9.395c-2.743-2.44-5.654-4.773-8.652-6.932c-3.616-2.604-7.403-4.998-11.257-7.116
		c-3.267-1.793-6.623-3.422-9.968-4.838c-4.046-1.721-8.277-3.214-12.565-4.434c-3.388-0.974-6.895-1.792-10.43-2.434l-0.406-0.075
		c-4.081-0.717-8.243-1.193-12.406-1.448c-7.25-9.349-17.31-16.407-28.909-19.892v-6.619h23.236V39.737
		C278.469,17.826,260.644,0,238.733,0s-39.736,17.826-39.736,39.737v77.435h23.236v6.619c-11.599,3.485-21.659,10.543-28.909,19.892
		c-4.163,0.255-8.326,0.731-12.406,1.448l-0.407,0.062l-0.087,0.029c-3.505,0.639-6.982,1.452-10.33,2.415
		c-4.301,1.224-8.532,2.718-12.568,4.434c-3.348,1.417-6.705,3.045-9.98,4.843c-3.85,2.116-7.636,4.51-11.255,7.115
		c-3.002,2.163-5.912,4.495-8.637,6.919c-3.315,2.928-6.48,6.093-9.402,9.401c-2.441,2.755-4.769,5.664-6.914,8.644
		c-2.599,3.606-4.986,7.387-7.091,11.226c-1.796,3.252-3.428,6.62-4.845,9.99c-1.754,4.125-3.247,8.353-4.435,12.549
		c-0.916,3.197-1.699,6.504-2.327,9.829l-0.085,0.493c-0.031,0.18-0.063,0.362-0.093,0.546c-0.861,4.822-1.375,9.773-1.57,14.758
		c-3.817,1.745-7.391,4.183-10.529,7.32c-6.851,6.851-10.623,15.96-10.623,25.648S73.512,300.148,80.363,307l3.536,3.536
		l19.799-19.8l-3.536-3.535c-1.562-1.562-2.422-3.639-2.422-5.849c0-2.209,0.86-4.287,2.423-5.849c3.225-3.225,8.472-3.225,11.698,0
		c1.562,1.562,2.422,3.639,2.422,5.849s-0.86,4.287-2.422,5.849l-3.536,3.535l19.799,19.8l3.536-3.536
		c6.851-6.851,10.623-15.96,10.623-25.648c0-9.688-3.772-18.797-10.624-25.648c-2.378-2.377-5.01-4.345-7.804-5.923
		c0.154-4.07,0.613-8.12,1.403-12.078l0.073-0.352c5.906-28.76,27.678-51.395,55.951-58.552c0,0.006,0,0.012,0,0.018v114.376h5.226
		v81.056c-7.388,2.166-12.914,8.625-13.639,16.693l-7.754,86.523h72.738l-7.755-86.523c-0.723-8.068-6.25-14.527-13.639-16.693
		v-81.055h44.548v81.056c-7.388,2.166-12.914,8.625-13.639,16.693l-7.754,86.523h72.738l-7.755-86.523
		c-0.723-8.068-6.25-14.527-13.639-16.693v-81.055h5.227V178.816c0-0.006,0-0.013,0-0.019c28.265,7.151,50.043,29.788,55.951,58.553
		l0.057,0.276v0c0.8,3.984,1.264,8.06,1.419,12.153c-2.795,1.578-5.427,3.546-7.805,5.924c-6.852,6.851-10.624,15.959-10.624,25.648
		c0,9.688,3.772,18.797,10.623,25.648l3.536,3.536l19.799-19.8l-3.536-3.535c-1.562-1.562-2.422-3.639-2.422-5.849
		s0.86-4.287,2.422-5.848c3.227-3.226,8.474-3.225,11.698,0c1.563,1.562,2.423,3.639,2.423,5.849c0,2.21-0.86,4.287-2.422,5.849
		l-3.536,3.535l19.799,19.8l3.536-3.536c6.851-6.851,10.623-15.96,10.623-25.648S403.952,262.555,397.101,255.703z M360.391,229.057
		c-0.965-3.393-2.134-6.695-3.484-9.9l11.948-5.051c0.002,0.005,0.004,0.01,0.006,0.014c1.588,3.735,2.94,7.56,4.023,11.385
		L360.391,229.057z M358.013,194.834c0,0.001,0.001,0.002,0.002,0.002c2.359,3.277,4.526,6.708,6.448,10.211l-11.349,6.228
		c-1.686-3.084-3.564-6.045-5.6-8.882L358.013,194.834z M351.726,186.976l-9.674,8.565c-2.324-2.627-4.807-5.108-7.434-7.433
		l8.568-9.671c0.002,0.002,0.004,0.003,0.006,0.005C346.196,181.095,349.065,183.964,351.726,186.976z M335.329,172.141
		l-7.559,10.503c-2.839-2.039-5.804-3.915-8.89-5.603l6.233-11.359C328.607,167.602,332.043,169.775,335.329,172.141z
		 M316.043,161.279c0.001,0,0.002,0.001,0.004,0.002l-5.056,11.961c-3.207-1.351-6.51-2.526-9.906-3.491l3.553-12.495
		C308.539,158.365,312.373,159.718,316.043,161.279z M294.545,154.931l0.269,0.049l-1.203,6.816
		c-0.797-2.564-1.776-5.047-2.909-7.444C291.989,154.523,293.272,154.711,294.545,154.931z M265.157,139.423
		c-7.771,5.216-16.954,8.042-26.424,8.042s-18.653-2.826-26.424-8.042c7.558-5.086,16.65-8.059,26.424-8.059
		S257.599,134.337,265.157,139.423z M238.733,10c16.396,0,29.736,13.34,29.736,29.737v37.728h-59.473V39.737
		C208.996,23.34,222.336,10,238.733,10z M208.996,87.464h59.473v19.707h-59.473V87.464z M232.233,117.172h13v4.571
		c-2.135-0.242-4.301-0.378-6.5-0.378s-4.365,0.136-6.5,0.378V117.172z M183.002,154.917c1.246-0.214,2.502-0.398,3.762-0.566
		c-1.133,2.397-2.113,4.881-2.909,7.446l-1.203-6.814l0.279-0.042L183.002,154.917z M172.826,157.255l3.553,12.496
		c-3.396,0.965-6.698,2.141-9.905,3.492l-5.056-11.962c0.004-0.002,0.008-0.004,0.012-0.005
		C165.087,159.72,168.917,158.368,172.826,157.255z M152.351,165.681l6.235,11.361c-3.086,1.688-6.051,3.564-8.89,5.603
		l-7.56-10.504C145.423,169.774,148.861,167.6,152.351,165.681z M134.279,178.437l8.569,9.673c-2.626,2.325-5.11,4.805-7.434,7.432
		l-9.675-8.566c0-0.001,0.001-0.001,0.001-0.002C128.392,183.971,131.261,181.103,134.279,178.437z M119.45,194.836
		c0-0.001,0.001-0.001,0.002-0.002l10.5,7.559c-2.036,2.837-3.914,5.798-5.601,8.882l-11.35-6.229
		c0.001-0.003,0.003-0.005,0.004-0.008C114.922,201.545,117.09,198.113,119.45,194.836z M117.075,229.058l-12.493-3.551
		c0.001-0.004,0.002-0.007,0.003-0.011c1.077-3.807,2.428-7.632,4.025-11.389l11.949,5.051
		C119.208,222.362,118.04,225.664,117.075,229.058z M132.282,281.352c0,5.32-1.57,10.399-4.493,14.708l-5.81-5.81
		c1.503-2.689,2.303-5.731,2.303-8.897c0-4.881-1.9-9.469-5.352-12.92c-7.125-7.124-18.718-7.123-25.839,0
		c-3.451,3.451-5.353,8.04-5.353,12.921c0,3.166,0.8,6.208,2.303,8.897l-5.81,5.81c-2.923-4.308-4.493-9.387-4.493-14.708
		c0-7.017,2.732-13.615,7.694-18.577c10.244-10.242,26.91-10.242,37.154,0C129.55,267.737,132.282,274.334,132.282,281.352z
		 M101.073,245.438c0.248-3.41,0.648-6.792,1.242-10.101l0.002-0.011l12.813,2.262c-0.492,2.779-0.847,5.589-1.065,8.418
		C109.799,245.041,105.394,244.849,101.073,245.438z M206.458,373.464h-9.952v-12.349h9.952V373.464z M206.458,350.824h-9.952
		v-12.349h9.952V350.824z M206.458,328.183h-9.952v-12.35h9.952V328.183z M206.458,305.542h-9.952v-12.35h9.952V305.542z
		 M187.926,467.464l2.611-9h21.891l2.61,9H187.926z M220.136,391.833l6.78,75.631h-1.466l-5.511-19h-36.914l-5.511,19h-1.465
		l6.779-75.63c0.428-4.771,4.362-8.37,9.152-8.37h19.003C215.775,383.464,219.709,387.062,220.136,391.833z M191.281,283.193
		V178.816c0-12.682,5.011-24.209,13.145-32.731c9.876,7.362,21.888,11.379,34.308,11.379s24.432-4.017,34.308-11.379
		c8.134,8.522,13.145,20.048,13.145,32.731v104.376H191.281z M280.958,373.464h-9.952v-12.349h9.952V373.464z M280.958,350.824
		h-9.952v-12.349h9.952V350.824z M280.958,328.183h-9.952v-12.35h9.952V328.183z M280.958,305.542h-9.952v-12.35h9.952V305.542z
		 M262.426,467.464l2.611-9h21.891l2.61,9H262.426z M294.636,391.833l6.78,75.631h-1.466l-5.511-19h-36.914l-5.511,19h-1.465
		l6.779-75.63c0.428-4.771,4.362-8.37,9.152-8.37h19.003C290.275,383.464,294.209,387.062,294.636,391.833z M362.334,237.587
		l12.814-2.262l0.002,0.01c0.593,3.31,0.993,6.692,1.241,10.102c-4.321-0.589-8.726-0.397-12.991,0.568
		C363.182,243.177,362.826,240.367,362.334,237.587z M393.232,296.059l-5.81-5.81c1.503-2.689,2.303-5.731,2.303-8.897
		c0-4.881-1.901-9.47-5.353-12.92c-7.123-7.122-18.714-7.124-25.839,0c-3.451,3.451-5.352,8.039-5.352,12.92
		c0,3.166,0.8,6.208,2.303,8.897l-5.81,5.81c-2.923-4.308-4.493-9.387-4.493-14.708c0-7.017,2.732-13.615,7.694-18.577
		c10.244-10.242,26.911-10.243,37.153-0.001c4.963,4.962,7.695,11.56,7.695,18.577C397.725,286.672,396.155,291.751,393.232,296.059
		z"/>
	<rect x="190.983" y="389.464" width="21" height="10"/>
	<rect x="188.006" y="406.464" width="26.952" height="10"/>
	<rect x="265.483" y="389.464" width="21" height="10"/>
	<rect x="262.506" y="406.464" width="26.952" height="10"/>
</g>
<g>
</g>
<g>
</g>
<g>
</g>
<g>
</g>
<g>
</g>
<g>
</g>
<g>
</g>
<g>
</g>
<g>
</g>
<g>
</g>
<g>
</g>
<g>
</g>
<g>
</g>
<g>
</g>
<g>
</g>
</svg>
