<?xml version="1.0" encoding="iso-8859-1"?>
<!-- Generator: Adobe Illustrator 18.0.0, SVG Export Plug-In . SVG Version: 6.00 Build 0)  -->
<!DOCTYPE svg PUBLIC "-//W3C//DTD SVG 1.1//EN" "http://www.w3.org/Graphics/SVG/1.1/DTD/svg11.dtd">
<svg version="1.1" id="Capa_1" xmlns="http://www.w3.org/2000/svg" xmlns:xlink="http://www.w3.org/1999/xlink" x="0px" y="0px"
	 viewBox="0 0 448.917 448.917" style="enable-background:new 0 0 448.917 448.917;" xml:space="preserve">
<g>
	<path d="M224.51,331.919c-9.956,0-19.315,3.877-26.355,10.917c-11.638,11.638-14.287,29.232-6.593,43.782l32.948,62.299
		l32.949-62.299c7.694-14.549,5.045-32.144-6.593-43.781C243.826,335.796,234.466,331.919,224.51,331.919z M248.619,381.943
		l-24.109,45.584l-24.108-45.584c-5.63-10.646-3.691-23.521,4.823-32.036c5.151-5.151,12.001-7.988,19.285-7.988
		c7.285,0,14.134,2.837,19.285,7.988C252.31,358.423,254.249,371.297,248.619,381.943z"/>
	<path d="M208.549,56.665c7.786,0,14.121-6.334,14.121-14.121s-6.335-14.121-14.121-14.121s-14.121,6.334-14.121,14.121
		S200.762,56.665,208.549,56.665z M208.549,38.422c2.272,0,4.121,1.849,4.121,4.121s-1.849,4.121-4.121,4.121
		s-4.121-1.849-4.121-4.121S206.276,38.422,208.549,38.422z"/>
	<path d="M240.471,28.422c-7.786,0-14.12,6.334-14.12,14.121s6.334,14.121,14.12,14.121s14.121-6.334,14.121-14.121
		S248.258,28.422,240.471,28.422z M240.471,46.665c-2.271,0-4.12-1.849-4.12-4.121s1.849-4.121,4.12-4.121
		c2.272,0,4.121,1.849,4.121,4.121S242.744,46.665,240.471,46.665z"/>
	<rect x="194.427" y="60.346" width="60.165" height="10"/>
	<path d="M173.033,276.869l-18.392,47.003h139.736l-18.392-47.003H173.033z M169.292,313.873l10.567-27.003h89.301l10.567,27.003
		H169.292z"/>
	<path d="M338.154,138.374h19.501v-33.99h-19.501V90.888h-23.639l1.921-15.008h-42.678V52h25.744V42h-26.282
		c-3.516-23.73-24.018-42-48.71-42s-45.194,18.269-48.71,42h-26.288v10h25.75v23.88h-42.679l1.921,15.008h-23.742v13.496h-19.5
		v33.99h19.5l0.003,118.02c-10.927,2.31-19.153,12.026-19.153,23.63c0,13.318,10.835,24.154,24.153,24.154v-10
		c-7.804,0-14.153-6.35-14.153-14.154s6.35-14.154,14.153-14.154c7.805,0,14.154,6.35,14.154,14.154h10
		c0-11.604-8.227-21.321-19.154-23.63V151.877h21.546l11.52,90h141.358l11.52-90h21.442v104.517
		c-10.927,2.31-19.153,12.026-19.153,23.63h10c0-7.804,6.35-14.154,14.153-14.154c7.805,0,14.154,6.35,14.154,14.154
		s-6.35,14.154-14.154,14.154v10c13.318,0,24.154-10.835,24.154-24.154c0-11.604-8.227-21.321-19.154-23.63L338.154,138.374z
		 M347.655,114.384v13.99h-9.501v-13.99H347.655z M185.262,49.248C185.262,27.606,202.869,10,224.51,10s39.248,17.606,39.248,39.248
		V75.88h-78.496V49.248z M101.262,128.374v-13.99h9.5v13.99H101.262z M120.762,141.877v-40.99h15.022l5.247,40.99H120.762z
		 M286.388,231.877H162.632L143.945,85.88h161.13L286.388,231.877z M313.235,100.888h14.919v40.99h-20.165L313.235,100.888z"/>
	<path d="M224.51,101.307c-28.881,0-52.378,23.497-52.378,52.378s23.497,52.378,52.378,52.378s52.378-23.497,52.378-52.378
		S253.391,101.307,224.51,101.307z M182.133,153.685c0-23.367,19.011-42.378,42.378-42.378c5.027,0,9.851,0.885,14.329,2.499
		l-44.88,44.879h36.958l-30.111,30.112C189.547,181.171,182.133,168.278,182.133,153.685z M224.51,196.063
		c-5.027,0-9.851-0.885-14.329-2.499l44.879-44.879h-36.958l30.112-30.112c11.26,7.625,18.674,20.519,18.674,35.112
		C266.888,177.052,247.878,196.063,224.51,196.063z"/>
	<rect x="172.762" y="246.376" width="103.495" height="10"/>
	<rect x="172.762" y="261.476" width="103.495" height="10"/>
</g>
<g>
</g>
<g>
</g>
<g>
</g>
<g>
</g>
<g>
</g>
<g>
</g>
<g>
</g>
<g>
</g>
<g>
</g>
<g>
</g>
<g>
</g>
<g>
</g>
<g>
</g>
<g>
</g>
<g>
</g>
</svg>
