<?xml version="1.0" encoding="iso-8859-1"?>
<!-- Generator: Adobe Illustrator 19.0.0, SVG Export Plug-In . SVG Version: 6.00 Build 0)  -->
<svg version="1.1" id="Capa_1" xmlns="http://www.w3.org/2000/svg" xmlns:xlink="http://www.w3.org/1999/xlink" x="0px" y="0px"
	 viewBox="0 0 463.001 463.001" style="enable-background:new 0 0 463.001 463.001;" xml:space="preserve">
<path d="M462.208,308.146L455,293.73v-6.23c0-10.336-6.71-19.128-16-22.266v-27.469c9.29-3.138,16-11.93,16-22.266
	c0-12.958-10.542-23.5-23.5-23.5c-4.391,0-8.502,1.213-12.021,3.318L383,164.051V159.5c0-8.547-6.953-15.5-15.5-15.5H261.649
	l-5.508-27.54c-1.444-7.22-7.837-12.46-15.199-12.46H239V79h8.5C264.87,79,279,64.869,279,47.5V39h9.909
	c3.374,13.759,15.806,24,30.591,24C336.87,63,351,48.869,351,31.5S336.87,0,319.5,0c-14.785,0-27.216,10.241-30.591,24H279v-8.5
	C279,6.953,272.047,0,263.5,0h-64C190.954,0,184,6.953,184,15.5V24h-9.909C170.717,10.241,158.285,0,143.5,0
	C126.131,0,112,14.131,112,31.5S126.131,63,143.5,63c14.785,0,27.216-10.241,30.591-24H184v8.5c0,17.369,14.131,31.5,31.5,31.5h8.5
	v25h-1.941c-7.362,0-13.755,5.24-15.199,12.46L201.352,144H95.5c-8.547,0-15.5,6.953-15.5,15.5v4.551l-36.479,31.267
	C40.002,193.213,35.891,192,31.5,192C18.542,192,8,202.542,8,215.5c0,10.336,6.71,19.128,16,22.266v27.469
	c-9.29,3.138-16,11.93-16,22.266v6.23l-7.208,14.416C0.272,309.188,0,310.335,0,311.5v16c0,4.142,3.357,7.5,7.5,7.5
	s7.5-3.358,7.5-7.5v-14.229L20.135,303h22.73L48,313.271V327.5c0,4.142,3.357,7.5,7.5,7.5s7.5-3.358,7.5-7.5v-16
	c0-1.165-0.271-2.313-0.792-3.354L55,293.73v-6.23c0-10.336-6.71-19.128-16-22.266v-27.469c9.29-3.138,16-11.93,16-22.266
	c0-3.109-0.613-6.077-1.714-8.796L81.641,182.4c2.544,5.089,7.793,8.6,13.859,8.6H96v40.5c0,8.547,6.953,15.5,15.5,15.5H152v8.5
	c0,8.547,6.953,15.5,15.5,15.5h7.927l5.311,15.931c0.932,2.796,2.363,5.314,4.156,7.495L78.031,328.352
	c-1.854,0.588-3.406,1.874-4.33,3.585l-64.8,120c-1.735,3.214-0.903,7.211,1.972,9.465C12.235,462.471,13.869,463,15.5,463
	c1.808,0,3.611-0.651,5.034-1.94l95.861-86.788l5.717-1.54l-25.755,80.482c-1.144,3.574,0.53,7.442,3.918,9.057
	c1.036,0.494,2.136,0.73,3.222,0.73c2.462,0,4.854-1.215,6.279-3.394l56.408-86.18l65.316-29.689l65.316,29.689l56.408,86.18
	c1.427,2.179,3.817,3.394,6.279,3.394c1.086,0,2.186-0.236,3.222-0.73c3.388-1.614,5.062-5.482,3.918-9.056l-25.755-80.482
	l5.717,1.54l95.861,86.788c1.424,1.289,3.227,1.94,5.034,1.94c1.63,0,3.265-0.53,4.628-1.599c2.874-2.254,3.706-6.251,1.971-9.465
	l-64.8-120c-0.924-1.711-2.477-2.997-4.33-3.585l-106.864-33.925c1.793-2.181,3.224-4.699,4.156-7.495L287.573,271h7.927
	c8.547,0,15.5-6.953,15.5-15.5V247h40.5c8.547,0,15.5-6.953,15.5-15.5V191h0.5c6.066,0,11.315-3.511,13.859-8.6l28.355,24.304
	c-1.102,2.719-1.714,5.686-1.714,8.796c0,10.336,6.71,19.128,16,22.266v27.469c-9.29,3.138-16,11.93-16,22.266v6.23l-7.208,14.416
	c-0.521,1.042-0.792,2.189-0.792,3.354v16c0,4.142,3.357,7.5,7.5,7.5s7.5-3.358,7.5-7.5v-14.229L420.135,303h22.73L448,313.271
	V327.5c0,4.142,3.357,7.5,7.5,7.5s7.5-3.358,7.5-7.5v-16C463,310.335,462.729,309.188,462.208,308.146z M312,16.822V31.5
	c0,4.142,3.357,7.5,7.5,7.5s7.5-3.358,7.5-7.5V16.822c5.334,2.737,9,8.282,9,14.678c0,9.098-7.402,16.5-16.5,16.5
	S303,40.598,303,31.5C303,25.104,306.666,19.559,312,16.822z M143.5,48c-9.098,0-16.5-7.402-16.5-16.5
	c0-6.396,3.666-11.941,9-14.678V31.5c0,4.142,3.357,7.5,7.5,7.5s7.5-3.358,7.5-7.5V16.822c5.334,2.737,9,8.282,9,14.678
	C160,40.598,152.598,48,143.5,48z M199,15.5c0-0.276,0.225-0.5,0.5-0.5h64c0.275,0,0.5,0.224,0.5,0.5V40h-65V15.5z M200.822,55
	h61.357c-2.737,5.334-8.282,9-14.678,9h-32C209.104,64,203.559,60.334,200.822,55z M221.569,119.402
	c0.047-0.233,0.253-0.402,0.49-0.402h18.883c0.237,0,0.443,0.169,0.49,0.402l4.92,24.598h-29.703L221.569,119.402z M40,288H23v-0.5
	c0-4.687,3.813-8.5,8.5-8.5s8.5,3.813,8.5,8.5V288z M31.5,224c-4.687,0-8.5-3.813-8.5-8.5s3.813-8.5,8.5-8.5s8.5,3.813,8.5,8.5
	S36.187,224,31.5,224z M244.55,303l65.319,34.992l-10.141,20.282L239,330.671V303H244.55z M224,330.671l-60.728,27.603
	l-10.141-20.282L218.451,303H224V330.671z M81.835,348.442l19.359,19.359l-58.328,52.807L81.835,348.442z M113.992,359.385
	L93.717,339.11l62.746-19.919l-18.104,9.698c-1.716,0.92-3.008,2.471-3.602,4.326l-7.206,22.518L113.992,359.385z M144.054,353.378
	l7.503,15.006l-24.076,36.782L144.054,353.378z M311.443,368.384l7.503-15.006l16.573,51.789L311.443,368.384z M328.244,333.214
	c-0.594-1.855-1.886-3.406-3.602-4.326l-18.103-9.698l62.745,19.919l-20.275,20.275l-13.559-3.652L328.244,333.214z
	 M420.135,420.607l-58.328-52.807l19.359-19.359L420.135,420.607z M268.032,282.188c-1.158,3.477-4.399,5.812-8.063,5.812h-56.936
	c-3.664,0-6.905-2.335-8.063-5.813L191.24,271h80.522L268.032,282.188z M296,255.5c0,0.276-0.225,0.5-0.5,0.5H181.19
	c-0.239-0.012-0.479-0.012-0.721,0H167.5c-0.275,0-0.5-0.224-0.5-0.5V247h129V255.5z M352,231.5c0,0.276-0.225,0.5-0.5,0.5h-240
	c-0.275,0-0.5-0.224-0.5-0.5V191h17v16.5c0,4.142,3.357,7.5,7.5,7.5s7.5-3.358,7.5-7.5V191h17v16.5c0,4.142,3.357,7.5,7.5,7.5
	s7.5-3.358,7.5-7.5V191h17v16.5c0,4.142,3.357,7.5,7.5,7.5s7.5-3.358,7.5-7.5V191h17v16.5c0,4.142,3.357,7.5,7.5,7.5
	s7.5-3.358,7.5-7.5V191h17v16.5c0,4.142,3.357,7.5,7.5,7.5s7.5-3.358,7.5-7.5V191h17v16.5c0,4.142,3.357,7.5,7.5,7.5
	s7.5-3.358,7.5-7.5V191h17v16.5c0,4.142,3.357,7.5,7.5,7.5s7.5-3.358,7.5-7.5V191h17V231.5z M368,175.5c0,0.276-0.225,0.5-0.5,0.5
	h-272c-0.275,0-0.5-0.224-0.5-0.5v-16c0-0.276,0.225-0.5,0.5-0.5h112.002c0.025,0,0.049,0,0.073,0h47.883
	c0.011,0,0.022,0.001,0.033,0.001c0.01,0,0.02-0.001,0.03-0.001H367.5c0.275,0,0.5,0.224,0.5,0.5V175.5z M431.5,207
	c4.687,0,8.5,3.813,8.5,8.5s-3.813,8.5-8.5,8.5s-8.5-3.813-8.5-8.5S426.814,207,431.5,207z M431.5,279c4.687,0,8.5,3.813,8.5,8.5
	v0.5h-17v-0.5C423,282.813,426.814,279,431.5,279z"/>
<g>
</g>
<g>
</g>
<g>
</g>
<g>
</g>
<g>
</g>
<g>
</g>
<g>
</g>
<g>
</g>
<g>
</g>
<g>
</g>
<g>
</g>
<g>
</g>
<g>
</g>
<g>
</g>
<g>
</g>
</svg>
