<?xml version="1.0" encoding="iso-8859-1"?>
<!-- Generator: Adobe Illustrator 19.0.0, SVG Export Plug-In . SVG Version: 6.00 Build 0)  -->
<svg version="1.1" id="Capa_1" xmlns="http://www.w3.org/2000/svg" xmlns:xlink="http://www.w3.org/1999/xlink" x="0px" y="0px"
	 viewBox="0 0 463 463" style="enable-background:new 0 0 463 463;" xml:space="preserve">
<path d="M367,207.5v-19.054c4.971-5.571,8-12.91,8-20.946c0-11.329-6.014-21.277-15.015-26.828l-15.299-50.995l9.185-3.062
	c2.287-0.763,4.068-2.578,4.787-4.879c0.719-2.301,0.288-4.808-1.159-6.736l-14.4-19.2c-7.42-9.894-19.233-15.8-31.6-15.8h-32
	c-2.361,0-4.583,1.111-6,3l-21.75,29H239V54.35c13.926-2.449,24-11.608,24-22.85V15h0.5c4.142,0,7.5-3.358,7.5-7.5
	S267.642,0,263.5,0h-64c-4.142,0-7.5,3.358-7.5,7.5s3.358,7.5,7.5,7.5h0.5v16.5c0,11.242,10.074,20.401,24,22.85V72h-12.75L189.5,43
	c-1.417-1.889-3.639-3-6-3h-32c-12.367,0-24.18,5.906-31.6,15.8L105.5,75c-1.446,1.929-1.878,4.435-1.159,6.736
	c0.719,2.301,2.5,4.116,4.787,4.879l9.185,3.062l-15.299,50.995C94.014,146.223,88,156.171,88,167.5c0,8.036,3.029,15.375,8,20.946
	V207.5c0,10.336,6.71,19.128,16,22.266v11.461c-9.292,3.137-16,11.936-16,22.273v8c0,12.958,10.542,23.5,23.5,23.5
	s23.5-10.542,23.5-23.5c0-4.142-3.358-7.5-7.5-7.5s-7.5,3.358-7.5,7.5c0,4.687-3.813,8.5-8.5,8.5s-8.5-3.813-8.5-8.5v-8
	c0-4.687,3.813-8.5,8.5-8.5c4.142,0,7.5-3.358,7.5-7.5v-17.734c9.29-3.138,16-11.93,16-22.266v-19.054c4.971-5.571,8-12.91,8-20.946
	c0-4.762-1.068-9.277-2.967-13.327l9.03-30.101l1.811,15.793c1.084,9.45,7.603,17.223,16.633,19.883l7.56,64.261
	c-10.357,0.199-19.738,7.281-22.366,17.793l-15.999,63.995C139.317,311.452,136,319.094,136,327.5
	c0,8.116,3.086,15.523,8.145,21.114l7.122,68.255C133.426,420.668,120,436.543,120,455.5c0,4.142,3.358,7.5,7.5,7.5h80
	c4.142,0,7.5-3.358,7.5-7.5s-3.358-7.5-7.5-7.5H199v-24.5c0-4.142-3.358-7.5-7.5-7.5H191v-67.554c4.971-5.571,8-12.91,8-20.946
	c0-7.189-2.426-13.819-6.495-19.126l13.794-55.178c0.287-1.15,0.482-2.301,0.593-3.447c7.705,3.448,16.058,5.25,24.608,5.25
	c8.55,0,16.902-1.803,24.608-5.25c0.111,1.146,0.306,2.298,0.593,3.448l13.794,55.177C266.426,313.681,264,320.311,264,327.5
	c0,8.036,3.029,15.375,8,20.946V416h-0.5c-4.142,0-7.5,3.358-7.5,7.5V448h-8.5c-4.142,0-7.5,3.358-7.5,7.5s3.358,7.5,7.5,7.5h80
	c4.142,0,7.5-3.358,7.5-7.5c0-18.957-13.426-34.832-31.267-38.631l7.122-68.255c5.059-5.591,8.145-12.998,8.145-21.114
	c0-8.406-3.317-16.048-8.702-21.703l-15.999-63.995c-2.628-10.511-12.006-17.594-22.366-17.793l7.56-64.261
	c9.03-2.66,15.549-10.434,16.633-19.883l1.811-15.793l9.03,30.101c-1.9,4.051-2.967,8.566-2.967,13.327
	c0,8.036,3.029,15.375,8,20.946V207.5c0,10.336,6.71,19.128,16,22.266V247.5c0,4.142,3.358,7.5,7.5,7.5c4.687,0,8.5,3.813,8.5,8.5v8
	c0,4.687-3.813,8.5-8.5,8.5s-8.5-3.813-8.5-8.5c0-4.142-3.358-7.5-7.5-7.5s-7.5,3.358-7.5,7.5c0,12.958,10.542,23.5,23.5,23.5
	s23.5-10.542,23.5-23.5v-8c0-10.337-6.708-19.136-16-22.273v-11.461C360.29,226.628,367,217.836,367,207.5z M215,31.5V15h33v16.5
	c0,3.466-6.428,8.5-16.5,8.5S215,34.966,215,31.5z M327,167.5c0-9.098,7.402-16.5,16.5-16.5s16.5,7.402,16.5,16.5
	s-7.402,16.5-16.5,16.5S327,176.598,327,167.5z M342.928,136.015c-5.979,0.107-11.553,1.887-16.279,4.893L314.316,99.8l16.134-5.378
	L342.928,136.015z M283.25,55h28.25c7.67,0,14.998,3.664,19.6,9.8l8.157,10.875L310.384,85.3l0.567-4.945
	c0.244-2.124-0.431-4.251-1.854-5.847C307.674,72.913,305.638,72,303.5,72h-33L283.25,55z M131.9,64.8
	c4.603-6.136,11.93-9.8,19.6-9.8h28.25l12.75,17h-33c-2.138,0-4.174,0.913-5.597,2.508c-1.423,1.596-2.098,3.723-1.854,5.847
	l0.567,4.945l-28.873-9.624L131.9,64.8z M148.684,99.8l-12.332,41.107c-4.726-3.006-10.301-4.785-16.279-4.893l12.478-41.592
	L148.684,99.8z M103,167.5c0-9.098,7.402-16.5,16.5-16.5s16.5,7.402,16.5,16.5s-7.402,16.5-16.5,16.5S103,176.598,103,167.5z
	 M119.5,216c-4.687,0-8.5-3.813-8.5-8.5v-9.675c2.706,0.76,5.555,1.175,8.5,1.175s5.794-0.415,8.5-1.175v9.675
	C128,212.187,124.187,216,119.5,216z M175.252,245.44c1.136-4.544,5.763-7.318,10.307-6.188c4.548,1.138,7.324,5.762,6.188,10.308
	l-12.209,48.836c-3.711-1.541-7.776-2.396-12.039-2.396c-1.697,0-3.362,0.139-4.987,0.399L175.252,245.44z M151,327.5
	c0-9.098,7.402-16.5,16.5-16.5s16.5,7.402,16.5,16.5s-7.402,16.5-16.5,16.5S151,336.598,151,327.5z M184,448h-47.826
	c3.174-9.849,12.426-16.995,23.316-17c0,0,0.001,0,0.001,0c0.003,0,0.006,0,0.009,0H184V448z M166.258,416l-6.037-57.858
	c2.338,0.556,4.773,0.858,7.279,0.858c2.945,0,5.794-0.415,8.5-1.175V416H166.258z M206.351,232.386l-7.807-5.204l-7.506-63.799
	c10.422,1.951,21.541,3.138,32.962,3.498V215.5c0,4.142,3.358,7.5,7.5,7.5s7.5-3.358,7.5-7.5v-48.619
	c11.421-0.36,22.54-1.547,32.962-3.498l-7.505,63.799l-7.808,5.205C249.176,237.367,240.48,240,231.5,240
	C222.519,240,213.823,237.367,206.351,232.386z M312,327.5c0,9.098-7.402,16.5-16.5,16.5s-16.5-7.402-16.5-16.5
	s7.402-16.5,16.5-16.5S312,318.402,312,327.5z M287,357.825c2.706,0.76,5.555,1.175,8.5,1.175c2.506,0,4.941-0.303,7.279-0.858
	L296.742,416H287V357.825z M326.826,448H279v-17h24.5c0.003,0,0.006,0,0.009,0c0,0,0.001,0,0.001,0
	C314.4,431.005,323.652,438.151,326.826,448z M287.748,245.44l12.74,50.959c-1.625-0.26-3.29-0.399-4.987-0.399
	c-4.262,0-8.327,0.855-12.039,2.396l-12.208-48.834c-1.136-4.547,1.64-9.171,6.181-10.307
	C281.985,238.118,286.611,240.896,287.748,245.44z M289.224,138.156c-0.397,3.467-2.774,6.308-6.054,7.236
	C267.905,149.715,250.038,152,231.5,152s-36.405-2.285-51.67-6.607c-3.28-0.929-5.656-3.769-6.054-7.236L167.909,87h127.182
	L289.224,138.156z M335,197.825c2.706,0.76,5.555,1.175,8.5,1.175s5.794-0.415,8.5-1.175v9.675c0,4.687-3.813,8.5-8.5,8.5
	s-8.5-3.813-8.5-8.5V197.825z"/>
<g>
</g>
<g>
</g>
<g>
</g>
<g>
</g>
<g>
</g>
<g>
</g>
<g>
</g>
<g>
</g>
<g>
</g>
<g>
</g>
<g>
</g>
<g>
</g>
<g>
</g>
<g>
</g>
<g>
</g>
</svg>
