<?xml version="1.0" encoding="iso-8859-1"?>
<!-- Generator: Adobe Illustrator 18.0.0, SVG Export Plug-In . SVG Version: 6.00 Build 0)  -->
<!DOCTYPE svg PUBLIC "-//W3C//DTD SVG 1.1//EN" "http://www.w3.org/Graphics/SVG/1.1/DTD/svg11.dtd">
<svg version="1.1" id="Capa_1" xmlns="http://www.w3.org/2000/svg" xmlns:xlink="http://www.w3.org/1999/xlink" x="0px" y="0px"
	 viewBox="0 0 449.887 449.887" style="enable-background:new 0 0 449.887 449.887;" xml:space="preserve">
<g>
	<path d="M207.12,29.626c-10.141-10.14-26.639-10.14-36.779,0c-10.139,10.14-10.139,26.639,0,36.779
		c4.912,4.912,11.443,7.617,18.39,7.617s13.478-2.705,18.39-7.617v0C217.26,56.265,217.26,39.766,207.12,29.626z M177.412,36.697
		c3.121-3.121,7.219-4.681,11.318-4.681c2.476,0,4.949,0.58,7.209,1.719l-21.49,21.49C171.426,49.222,172.407,41.702,177.412,36.697
		z M200.049,59.333c-5.005,5.006-12.525,5.987-18.528,2.962l21.49-21.49C206.035,46.808,205.054,54.328,200.049,59.333z"/>
	<path d="M242.767,66.404c4.912,4.912,11.443,7.617,18.39,7.617s13.478-2.705,18.389-7.617c4.912-4.912,7.618-11.443,7.618-18.389
		c0-6.947-2.706-13.477-7.618-18.389c-4.911-4.912-11.442-7.617-18.389-7.617s-13.478,2.705-18.389,7.617
		c-4.912,4.912-7.618,11.443-7.618,18.389C235.15,54.962,237.856,61.493,242.767,66.404z M272.475,59.333L272.475,59.333
		c-3.023,3.023-7.043,4.688-11.318,4.688c-2.549,0-5.002-0.604-7.213-1.723l21.496-21.496c1.119,2.21,1.724,4.663,1.724,7.213
		C277.163,52.291,275.498,56.31,272.475,59.333z M249.838,36.697c3.023-3.023,7.043-4.688,11.318-4.688
		c2.549,0,5.002,0.604,7.212,1.723l-21.496,21.496c-1.119-2.21-1.724-4.663-1.724-7.213C245.15,43.74,246.815,39.72,249.838,36.697z
		"/>
	<path d="M294.872,344.148v50.788H279.31v-25.78l50.633-136.813l-79.091-38.232V96.031h10.305c26.476,0,48.016-21.54,48.016-48.015
		C309.172,21.54,287.632,0,261.156,0H188.73c-26.476,0-48.015,21.54-48.015,48.015c0,26.476,21.54,48.015,48.015,48.015h10.305
		v98.082l-79.09,38.232l50.632,136.812v25.781h-15.563v-50.788h-49.616v105.739h49.616v-44.951h15.563v7.105h10v-7.105h21.195
		c2.302,10.679,11.815,18.708,23.172,18.708s20.87-8.029,23.172-18.708h21.194v7.105h10v-7.105h15.563v44.951h49.616V344.148
		H294.872z M145.014,381.396h-29.616v-11.244h29.616V381.396z M145.014,391.396v11.244h-29.616v-11.244H145.014z M145.014,412.639
		v11.244h-29.616v-11.244H145.014z M145.014,354.148v6.004h-29.616v-6.004H145.014z M115.398,439.887v-6.004h29.616v6.004H115.398z
		 M179.058,363.26l-45.666-123.391h183.104L270.828,363.26H179.058z M209.035,117.274h31.817v11.243h-31.817V117.274z
		 M209.035,138.518h31.817v11.244h-31.817V138.518z M209.035,159.761h31.817v11.244h-31.817V159.761z M209.035,181.005h31.817
		v11.244h-31.817V181.005z M244.706,202.249l57.138,27.62H148.042l57.137-27.62H244.706z M299.172,48.015
		c0,20.962-17.054,38.015-38.016,38.015h-31.213V10h31.213C282.118,10,299.172,27.054,299.172,48.015z M188.73,86.031
		c-20.961,0-38.015-17.054-38.015-38.015S167.769,10,188.73,10h31.213v76.031H188.73z M240.852,96.031v11.244h-31.817V96.031
		H240.852z M224.944,413.644c-7.559,0-13.708-6.149-13.708-13.708s6.149-13.708,13.708-13.708c7.558,0,13.707,6.149,13.707,13.708
		S232.501,413.644,224.944,413.644z M248.115,394.936c-2.302-10.679-11.815-18.708-23.172-18.708s-20.87,8.029-23.172,18.708
		h-21.195V373.26h88.733v21.676H248.115z M334.489,354.148v6.004h-29.616v-6.004H334.489z M304.872,412.639h29.616v11.244h-29.616
		V412.639z M304.872,402.639v-11.244h29.616v11.244H304.872z M304.872,381.396v-11.244h29.616v11.244H304.872z M304.872,439.887
		v-6.004h29.616v6.004H304.872z"/>
	<path d="M166.759,257.38l29.853,80.665h56.664l29.853-80.665H166.759z M246.313,328.045h-42.739l-22.452-60.665h87.643
		L246.313,328.045z"/>
</g>
<g>
</g>
<g>
</g>
<g>
</g>
<g>
</g>
<g>
</g>
<g>
</g>
<g>
</g>
<g>
</g>
<g>
</g>
<g>
</g>
<g>
</g>
<g>
</g>
<g>
</g>
<g>
</g>
<g>
</g>
</svg>
