<?xml version="1.0" encoding="iso-8859-1"?>
<!-- Generator: Adobe Illustrator 18.0.0, SVG Export Plug-In . SVG Version: 6.00 Build 0)  -->
<!DOCTYPE svg PUBLIC "-//W3C//DTD SVG 1.1//EN" "http://www.w3.org/Graphics/SVG/1.1/DTD/svg11.dtd">
<svg version="1.1" id="Capa_1" xmlns="http://www.w3.org/2000/svg" xmlns:xlink="http://www.w3.org/1999/xlink" x="0px" y="0px"
	 viewBox="0 0 443.526 443.526" style="enable-background:new 0 0 443.526 443.526;" xml:space="preserve">
<g>
	<path d="M221.763,18.059c-22.026,0-39.946,17.92-39.946,39.947s17.92,39.947,39.946,39.947s39.946-17.92,39.946-39.947
		S243.79,18.059,221.763,18.059z M221.763,87.952c-16.513,0-29.946-13.434-29.946-29.947s13.434-29.947,29.946-29.947
		s29.946,13.434,29.946,29.947S238.276,87.952,221.763,87.952z"/>
	<path d="M221.763,161.725c-14.323,0-25.977,11.653-25.977,25.976s11.653,25.976,25.977,25.976s25.976-11.653,25.976-25.976
		S236.086,161.725,221.763,161.725z M221.763,203.677c-8.81,0-15.977-7.167-15.977-15.976s7.167-15.976,15.977-15.976
		c8.809,0,15.976,7.167,15.976,15.976S230.572,203.677,221.763,203.677z"/>
	<path d="M221.763,38.743c-10.621,0-19.263,8.641-19.263,19.262s8.642,19.262,19.263,19.262s19.263-8.641,19.263-19.262
		S232.384,38.743,221.763,38.743z M221.763,67.268c-5.107,0-9.263-4.155-9.263-9.262s4.155-9.262,9.263-9.262
		s9.263,4.155,9.263,9.262S226.871,67.268,221.763,67.268z"/>
	<path d="M221.763,298.393c5.305,0,9.621-4.316,9.621-9.622s-4.316-9.621-9.621-9.621c-5.306,0-9.622,4.316-9.622,9.621
		S216.458,298.393,221.763,298.393z M221.763,288.393c0.208,0,0.378,0.17,0.378,0.378c0,0.209-0.17,0.379-0.378,0.379
		c-0.209,0-0.379-0.17-0.379-0.379C221.384,288.563,221.554,288.393,221.763,288.393z"/>
	<rect x="153.516" y="144.599" width="50.998" height="10"/>
	<rect x="239.012" y="144.599" width="50.997" height="10"/>
	<path d="M378.76,188.539v-5c0-32.661-26.571-59.232-59.232-59.232h-56.767v-11.842h17.007V58.005
		C279.768,26.021,253.748,0,221.763,0s-58.006,26.021-58.006,58.005v54.459h17.008v11.842h-56.767
		c-32.661,0-59.232,26.572-59.232,59.232v5h25.566v85.265c-8.01,5.293-13.308,14.374-13.308,24.672v44.056h10v-14.499h6.371v14.499
		h10v-14.499h6.371v14.499h10v-14.499h6.371v14.499h10v-28.178c3.094,1.751,5.191,5.068,5.191,8.871h10
		c0-9.405-6.473-17.306-15.191-19.539v-5.209c0-10.298-5.297-19.377-13.306-24.671v-85.266h13.431v-19.969
		c2.485,2.913,5.356,5.487,8.543,7.629l13.054,86.335h-7.423v35.499h19.075v53.594c0,16.78,11.52,31.032,27.441,34.83v57.068h49.616
		v-57.068c15.922-3.798,27.442-18.05,27.442-34.831v-53.594h19.074v-35.499h-7.422l13.052-86.334c3.188-2.142,6.06-4.716,8.545-7.63
		v19.969h13.43v85.266c-8.009,5.293-13.306,14.373-13.306,24.671v5.209c-8.719,2.234-15.191,10.134-15.191,19.539h10
		c0-3.802,2.097-7.119,5.191-8.871v28.178h10v-14.499h6.371v14.499h10v-14.499h6.371v14.499h10v-14.499h6.371v14.499h10v-44.056
		c0-10.298-5.298-19.379-13.308-24.672v-85.265H378.76z M353.193,178.539l-19.323-0.001l30.64-14.986
		c2.08,4.662,3.463,9.701,3.999,14.988H353.193z M359.511,154.863L325.62,171.44l18.77-30.369
		C350.341,144.57,355.495,149.279,359.511,154.863z M173.757,102.464V58.005c0-26.47,21.535-48.005,48.006-48.005
		c26.47,0,48.005,21.535,48.005,48.005v44.459H173.757z M190.765,112.464h61.996v11.842h-61.996V112.464z M99.137,141.072
		l18.77,30.369l-33.892-16.577C88.031,149.279,93.185,144.57,99.137,141.072z M75.018,178.539
		c0.536-5.287,1.919-10.326,3.999-14.988l30.64,14.986L75.018,178.539z M126.138,318.032H87.025v-19.557
		c0-10.784,8.773-19.557,19.557-19.557s19.557,8.773,19.557,19.557V318.032z M112.833,269.59c-2.016-0.436-4.106-0.671-6.251-0.671
		c-2.144,0-4.233,0.235-6.249,0.671v-81.051h12.5V269.59z M126.263,165.94L108.3,136.878c4.933-1.664,10.211-2.571,15.698-2.571
		h2.265V165.94z M172.961,195.338h-15.147l-2.104-13.918c3.905,1.21,8.052,1.863,12.349,1.863c1.143,0,2.224,0.452,3.042,1.271
		c0.819,0.82,1.27,1.901,1.269,3.044v0.103C172.369,190.298,172.573,192.848,172.961,195.338z M267.889,205.338H284.2l-1.776,11.75
		h-20.988C264.092,213.511,266.269,209.562,267.889,205.338z M251.528,227.088h29.384l-1.776,11.75H164.391l-1.777-11.75h29.383
		c8.284,6.275,18.595,10.007,29.765,10.007C232.933,237.095,243.244,233.363,251.528,227.088z M161.102,217.088l-1.777-11.75h16.31
		c1.621,4.224,3.797,8.173,6.454,11.75H161.102z M183.763,298.033v22.464c0,3.258-1.697,6.122-4.25,7.771v-30.235H183.763z
		 M206.955,399.752h29.616v14.97h-29.616V399.752z M206.955,389.752v-14.97h29.616v14.97H206.955z M236.571,339.822h-29.616v-8.813
		h29.616V339.822z M206.955,349.822h29.616v14.96h-29.616V349.822z M206.955,433.526v-8.804h29.616v8.804H206.955z M246.571,376.062
		v-55.053h-49.616v55.053c-10.248-3.494-17.441-13.174-17.441-24.434v-12.562c8.194-2.21,14.25-9.686,14.25-18.568v-22.464h3.845
		c3.859,9.736,13.446,16.454,24.155,16.454s20.296-6.718,24.155-16.454h3.845v22.464c0,8.882,6.056,16.358,14.25,18.568v12.562
		C264.013,362.888,256.819,372.568,246.571,376.062z M264.013,328.268c-2.553-1.648-4.25-4.512-4.25-7.771v-22.464h4.25V328.268z
		 M283.087,288.033h-44.87l-0.863,3.926c-1.597,7.259-8.153,12.528-15.591,12.528s-13.994-5.269-15.591-12.528l-0.863-3.926h-44.871
		v-15.499h122.649V288.033z M167.974,262.535l-2.071-13.697h111.72l-2.071,13.697H167.974z M285.712,195.338h-15.148
		c0.388-2.49,0.593-5.04,0.593-7.637v-0.103c-0.001-1.143,0.449-2.224,1.269-3.043c0.818-0.82,1.899-1.272,3.043-1.272
		c4.297,0,8.444-0.653,12.348-1.863L285.712,195.338z M275.468,173.283c-3.816,0-7.41,1.493-10.118,4.205
		c-2.709,2.711-4.197,6.306-4.193,10.213c0,21.722-17.672,39.394-39.394,39.394c-21.723,0-39.395-17.672-39.395-39.485
		c0.004-3.816-1.484-7.411-4.193-10.123c-2.708-2.711-6.301-4.205-10.117-4.205c-17.532,0-31.795-14.263-31.795-31.795v-7.181h171
		v7.181C307.263,159.02,293,173.283,275.468,173.283z M317.263,134.307h2.265c5.487,0,10.765,0.907,15.698,2.571l-17.963,29.062
		V134.307z M356.5,318.032h-39.113v-19.557c0-10.784,8.773-19.557,19.557-19.557s19.557,8.773,19.557,19.557V318.032z
		 M343.193,269.59c-2.016-0.436-4.105-0.671-6.249-0.671c-2.145,0-4.235,0.235-6.251,0.671v-81.051h12.5V269.59z"/>
</g>
<g>
</g>
<g>
</g>
<g>
</g>
<g>
</g>
<g>
</g>
<g>
</g>
<g>
</g>
<g>
</g>
<g>
</g>
<g>
</g>
<g>
</g>
<g>
</g>
<g>
</g>
<g>
</g>
<g>
</g>
</svg>
