<?xml version="1.0" encoding="iso-8859-1"?>
<!-- Generator: Adobe Illustrator 18.0.0, SVG Export Plug-In . SVG Version: 6.00 Build 0)  -->
<!DOCTYPE svg PUBLIC "-//W3C//DTD SVG 1.1//EN" "http://www.w3.org/Graphics/SVG/1.1/DTD/svg11.dtd">
<svg version="1.1" id="Capa_1" xmlns="http://www.w3.org/2000/svg" xmlns:xlink="http://www.w3.org/1999/xlink" x="0px" y="0px"
	 viewBox="0 0 462.043 462.043" style="enable-background:new 0 0 462.043 462.043;" xml:space="preserve">
<g>
	<path d="M209.173,108.034v26h44v-26H209.173z M243.173,124.034h-24v-6h24V124.034z"/>
	<path d="M261.616,193.828H200.73c-4.166,0-7.555,3.389-7.555,7.555v90.885c0,4.166,3.389,7.555,7.555,7.555h60.887
		c4.166,0,7.555-3.389,7.555-7.555v-90.885C269.171,197.218,265.782,193.828,261.616,193.828z M259.171,289.823h-55.996v-85.995
		h55.996V289.823z"/>
	<path d="M211.145,250.04c1.31,0,2.6-0.54,3.529-1.47c0.931-0.93,1.46-2.21,1.46-3.53c0-1.32-0.529-2.61-1.46-3.54
		c-0.93-0.93-2.22-1.46-3.529-1.46c-1.32,0-2.61,0.53-3.54,1.46c-0.931,0.93-1.46,2.22-1.46,3.54c0,1.32,0.529,2.6,1.46,3.53
		C208.534,249.5,209.824,250.04,211.145,250.04z"/>
	<path d="M384.67,283.473c5.328-17.508,6.145-36.052,2.389-53.996c0.283-0.612,0.548-1.237,0.777-1.885
		c4.056-11.433-1.946-24.034-13.379-28.089c-1.718-0.609-3.462-0.987-5.2-1.158c-8.938-8.169-19.007-14.752-29.982-19.539
		c-10.3-4.501-21.121-7.333-32.184-8.463c-2.447-2.606-5.281-4.84-8.413-6.612c-0.184-9.245-6.225-17.063-14.563-19.907
		l2.646-27.785h5.079c5.793,0,11.234-2.259,15.31-6.348c4.079-4.064,6.335-9.467,6.361-15.222
		c0.053-11.976-10.261-21.77-22.237-21.77h-0.385l0.605-6.359c1.614-16.956-4.031-33.908-15.489-46.509
		C264.546,7.228,248.205,0,231.173,0S197.8,7.228,186.341,19.829c-11.458,12.602-17.104,29.554-15.489,46.509l0.605,6.359h-0.946
		c-5.786,0-11.229,2.257-15.319,6.348c-4.067,4.053-6.32,9.447-6.351,15.201c-0.065,11.987,10.244,21.791,22.231,21.791h4.513
		l2.646,27.785c-8.337,2.844-14.377,10.661-14.562,19.906c-3.118,1.764-5.94,3.986-8.38,6.576
		c-11.181,1.107-22.118,3.953-32.517,8.499c-10.977,4.789-21.047,11.371-29.986,19.54c-1.738,0.171-3.482,0.549-5.201,1.158
		c-11.433,4.055-17.435,16.656-13.379,28.089c0.23,0.648,0.495,1.274,0.778,1.886c-3.756,17.942-2.938,36.486,2.388,53.996
		c-1.361,1.185-2.472,2.652-3.245,4.348c-1.426,3.13-1.432,6.726-0.282,9.968l3.621,10.209c-1.956,5.265-2.011,10.99-0.114,16.342
		c2.143,6.039,6.512,10.884,12.303,13.643l4.301-9.028c-3.38-1.61-5.93-4.436-7.179-7.958c-1.032-2.909-1.06-6.006-0.136-8.902
		l33.678-11.946c2.542,1.667,4.472,4.089,5.504,6.998c1.249,3.521,1.05,7.322-0.56,10.702l9.027,4.301
		c2.759-5.791,3.099-12.307,0.957-18.346c-1.898-5.35-5.55-9.756-10.383-12.611l-3.757-10.591c-1.93-5.441-7.184-8.764-12.674-8.511
		c-0.879-3.152-1.572-6.367-2.041-9.611l-0.037-0.268c-1.085-7.818-0.936-15.688,0.415-23.433c6.141-3.918,9.9-10.641,10.15-17.802
		c8.381-7.157,18.196-12.407,28.739-15.394v98.511c0,9.363,6.617,17.202,15.418,19.107c-1.187,36.87,3.794,73.318,14.848,108.514
		c-10.473,1.813-18.466,10.959-18.466,21.943v8.385h55.128l-2.153-11.253c-1.869-9.77-4.018-19.489-6.69-29.07
		c-8.752-31.382-9.797-66.247-2.794-98.068H261.4c7.005,31.834,5.956,66.715-2.805,98.108c-2.668,9.561-4.812,19.261-6.678,29.01
		l-2.159,11.274h55.128v-8.385c0-10.982-7.991-20.127-18.462-21.942c11.054-35.196,16.036-71.645,14.848-108.516
		c8.798-1.907,15.413-9.745,15.413-19.106v-98.421c10.426,3.001,20.135,8.216,28.435,15.304c0.25,7.161,4.01,13.885,10.151,17.803
		c1.35,7.748,1.5,15.618,0.414,23.432l-0.048,0.348c-0.467,3.216-1.157,6.403-2.03,9.531c-5.488-0.254-10.743,3.071-12.674,8.511
		l-3.756,10.587c-10.556,6.25-14.803,19.675-9.428,30.96l9.027-4.3c-3.038-6.379-0.796-13.92,4.946-17.7l33.677,11.945
		c0.924,2.896,0.896,5.992-0.136,8.902c-1.249,3.521-3.799,6.348-7.179,7.958l4.301,9.028c5.791-2.759,10.16-7.604,12.303-13.643
		c1.898-5.353,1.843-11.078-0.114-16.342l3.618-10.202c1.15-3.243,1.146-6.842-0.28-9.974
		C387.143,286.125,386.031,284.658,384.67,283.473z M365.638,263.738v-0.498c0.946-7.013,1.014-14.064,0.226-21.054
		c0.407,0.023,0.814,0.051,1.219,0.051c4.079,0,8.041-1.153,11.462-3.234c1.759,13.48,0.721,27.171-3.066,40.258l-12.274-4.353
		c0.993-3.542,1.778-7.152,2.313-10.794L365.638,263.738z M378.412,224.248c-1.072,3.021-3.256,5.443-6.149,6.822
		c-2.895,1.379-6.15,1.548-9.172,0.476c-6.236-2.212-9.511-9.085-7.299-15.321c1.072-3.021,3.256-5.443,6.149-6.822
		c2.895-1.379,6.15-1.548,9.172-0.476C377.35,211.139,380.624,218.012,378.412,224.248z M291.84,82.697
		c6.436,0,11.671,5.235,11.671,11.67c0,3.115-1.215,6.041-3.433,8.25c-2.197,2.205-5.123,3.42-8.238,3.42h-4.126l2.223-23.34H291.84
		z M268.607,26.557c9.567,10.522,14.281,24.676,12.933,38.833l-7.359,77.27h-6.792l2.39-68.5c0.27-7.789-2.563-15.167-7.979-20.772
		c-5.414-5.604-12.687-8.691-20.479-8.691h-5.147V10.256C248.555,11.492,260.167,17.275,268.607,26.557z M204.238,142.66
		l-1.632-46.613h17.165v-10h-17.515l-0.428-12.233c-0.175-5.052,1.664-9.838,5.179-13.476c3.514-3.638,8.231-5.641,13.284-5.641
		h21.03c5.056,0,9.773,2.002,13.286,5.638c3.514,3.638,5.352,8.425,5.177,13.478l-0.427,12.234H242.58v10h16.427l-1.626,46.613
		H204.238z M193.739,26.557c8.44-9.281,20.052-15.064,32.434-16.301v34.441h-5.883c-7.79,0-15.062,3.087-20.477,8.693
		c-5.416,5.607-8.25,12.983-7.98,20.772l2.399,68.498h-6.066l-7.359-77.27C179.458,51.233,184.172,37.079,193.739,26.557z
		 M170.511,106.037c-6.436,0-11.671-5.235-11.671-11.67c0-3.121,1.211-6.047,3.417-8.245c2.208-2.209,5.14-3.425,8.254-3.425h1.899
		l2.223,23.34H170.511z M174.791,159.159c1.863-3.843,5.805-6.499,10.354-6.499H277.2c4.551,0,8.491,2.656,10.355,6.499h-6.232
		H181.023H174.791z M90.928,208.927c1.322-0.469,2.672-0.691,4.001-0.691c4.939,0,9.578,3.075,11.321,7.989
		c2.212,6.236-1.063,13.109-7.299,15.321c-3.021,1.072-6.277,0.903-9.172-0.476c-2.894-1.378-5.077-3.801-6.149-6.822
		C81.418,218.012,84.692,211.139,90.928,208.927z M96.418,263.338l0.023,0.638l0.105,0.276c0.534,3.597,1.312,7.16,2.292,10.656
		l-12.274,4.354c-3.787-13.088-4.825-26.779-3.066-40.257c3.42,2.08,7.382,3.233,11.461,3.233c0.405,0,0.812-0.029,1.219-0.051
		C95.388,249.206,95.461,256.292,96.418,263.338z M111.685,283.946l2.727,7.689l-28.547,10.126l-2.729-7.69
		c-0.251-0.708-0.211-1.47,0.111-2.148c0.323-0.678,0.891-1.189,1.6-1.44l23.247-8.247c0.31-0.11,0.626-0.162,0.938-0.162
		C110.189,282.074,111.275,282.795,111.685,283.946z M114.475,210.129c-2.096-4.058-5.344-7.247-9.192-9.296
		c6.616-5.197,13.811-9.514,21.49-12.864c6.917-3.024,14.093-5.209,21.42-6.566c-1.628,4.06-2.534,8.485-2.534,13.119v0.718
		C134.375,198.039,123.762,203.115,114.475,210.129z M190.141,407.305l-10.014,2.328c-1.075-4.352-2.058-8.72-2.945-13.104
		l10.953-1.908C188.678,398.879,189.349,403.11,190.141,407.305z M175.143,385.523c-0.734-4.427-1.364-8.87-1.908-13.323
		l13.175-1.036c0.086,4.275,0.3,8.547,0.633,12.807L175.143,385.523z M186.457,360.512l-14.388,0.497
		c-0.388-4.507-0.687-9.024-0.882-13.551l15.994,0.379C186.816,352.044,186.578,356.274,186.457,360.512z M167.566,452.043
		c0.794-6.008,5.948-10.66,12.17-10.66h19.21l1.807,10.66H167.566z M186.327,431.383c-1.172-3.622-2.297-7.255-3.336-10.904
		l9.4-2.723c1.117,4.609,2.385,9.158,3.81,13.627H186.327z M188.356,337.421l-17.443-1.378c-0.029-4.124,0.023-8.255,0.155-12.391
		h19.662C189.784,328.191,188.993,332.786,188.356,337.421z M291.283,323.652c0.132,4.135,0.184,8.265,0.155,12.389l-17.444,1.378
		c-0.637-4.634-1.428-9.228-2.373-13.767H291.283z M274.216,394.618l10.952,1.914c-0.888,4.385-1.871,8.754-2.946,13.106
		l-10.013-2.328C273.002,403.113,273.672,398.879,274.216,394.618z M275.309,383.971c0.333-4.262,0.548-8.538,0.633-12.815
		l13.175,1.04c-0.544,4.454-1.175,8.896-1.909,13.324L275.309,383.971z M275.893,360.508c-0.12-4.239-0.358-8.469-0.726-12.678
		l15.995-0.375c-0.194,4.526-0.493,9.041-0.881,13.545L275.893,360.508z M269.958,417.761l9.4,2.723
		c-1.039,3.648-2.163,7.278-3.335,10.899h-9.874C267.574,426.915,268.841,422.368,269.958,417.761z M294.78,452.043h-33.187
		l1.807-10.66h19.21C288.832,441.383,293.986,446.034,294.78,452.043z M306.686,304.094c0,5.27-4.287,9.557-9.557,9.557H165.217
		c-5.27,0-9.557-4.287-9.557-9.557V194.522c0-13.985,11.378-25.362,25.362-25.362h100.301c13.984,0,25.362,11.377,25.362,25.362
		V304.094z M314.177,181.466c7.213,1.361,14.28,3.525,21.097,6.504c7.678,3.349,14.871,7.667,21.486,12.863
		c-3.848,2.049-7.097,5.238-9.193,9.296c-9.204-6.95-19.71-11.996-30.881-14.81v-0.797
		C316.686,189.911,315.789,185.508,314.177,181.466z M350.358,283.947c0.519-1.462,2.133-2.229,3.589-1.71l23.25,8.247
		c0.707,0.251,1.274,0.762,1.598,1.44c0.322,0.678,0.362,1.44,0.11,2.148l-2.727,7.689l-28.548-10.126L350.358,283.947z"/>
</g>
<g>
</g>
<g>
</g>
<g>
</g>
<g>
</g>
<g>
</g>
<g>
</g>
<g>
</g>
<g>
</g>
<g>
</g>
<g>
</g>
<g>
</g>
<g>
</g>
<g>
</g>
<g>
</g>
<g>
</g>
</svg>
