<?xml version="1.0" encoding="iso-8859-1"?>
<!-- Generator: Adobe Illustrator 19.0.0, SVG Export Plug-In . SVG Version: 6.00 Build 0)  -->
<svg version="1.1" id="Capa_1" xmlns="http://www.w3.org/2000/svg" xmlns:xlink="http://www.w3.org/1999/xlink" x="0px" y="0px"
	 viewBox="0 0 463 463" style="enable-background:new 0 0 463 463;" xml:space="preserve">
<g>
	<path d="M439.5,88c-10.336,0-19.128,6.71-22.266,16h-10.526C404.776,78.555,393.08,56.141,375,43.449V39.5
		C375,17.72,357.28,0,335.5,0h-208C105.72,0,88,17.72,88,39.5v3.949C69.92,56.141,58.224,78.555,56.292,104H45.766
		c-3.138-9.29-11.93-16-22.266-16C10.542,88,0,98.542,0,111.5S10.542,135,23.5,135c10.336,0,19.128-6.71,22.266-16h10.526
		C58.224,144.445,69.92,166.859,88,179.551v3.949c0,21.78,17.72,39.5,39.5,39.5H208v17h-40.5c-11.38,0-20.895,8.132-23.043,18.89
		c-20.806,12.364-35.728,31.894-43.259,56.747c-4.026,13.287-4.992,24.909-5.186,31.222l-11.865,5.932
		C81.605,354.062,80,356.659,80,359.5v24c0,2.841,1.605,5.438,4.146,6.708l16,8c1.077,0.539,2.221,0.793,3.348,0.793
		c2.751,0,5.4-1.52,6.714-4.147c1.853-3.705,0.351-8.21-3.354-10.062L95,378.865v-14.729l8.5-4.25l8.5,4.25V375.5
		c0,4.142,3.358,7.5,7.5,7.5s7.5-3.358,7.5-7.5v-16c0-2.841-1.605-5.438-4.146-6.708l-11.831-5.915
		c0.466-12.524,4.575-49.786,36.021-71.831c4.04,7.13,11.693,11.955,20.456,11.955H184v40.5c0,16.981,8.963,31.9,22.4,40.3
		c-4.566,7.789-12.675,24.675-14.156,48.2H175.5c-17.369,0-31.5,14.131-31.5,31.5v8c0,4.142,3.358,7.5,7.5,7.5h56
		c4.142,0,7.5-3.358,7.5-7.5v-32c0-4.142-3.358-7.5-7.5-7.5h-0.218c1.629-22.226,10.054-37.465,13.108-42.325
		c3.566,0.858,7.283,1.325,11.109,1.325c3.825,0,7.542-0.467,11.108-1.325c3.069,4.885,11.482,20.118,13.11,42.325H255.5
		c-4.142,0-7.5,3.358-7.5,7.5v32c0,4.142,3.358,7.5,7.5,7.5h56c4.142,0,7.5-3.358,7.5-7.5v-8c0-17.369-14.131-31.5-31.5-31.5
		h-16.743c-1.482-23.525-9.591-40.411-14.156-48.2c13.437-8.4,22.4-23.319,22.4-40.3V287h16.5c8.761,0,16.412-4.822,20.452-11.948
		c14.907,10.398,25.444,25.304,31.35,44.462c3.571,11.584,4.468,21.858,4.672,27.364l-11.829,5.914
		c-2.541,1.27-4.146,3.867-4.146,6.708v16c0,4.142,3.358,7.5,7.5,7.5s7.5-3.358,7.5-7.5v-11.365l8.5-4.25l8.5,4.25v14.729
		l-11.854,5.927c-3.705,1.852-5.207,6.357-3.354,10.062c1.314,2.628,3.962,4.148,6.714,4.147c1.127,0,2.271-0.255,3.348-0.793l16-8
		c2.541-1.27,4.146-3.867,4.146-6.708v-24c0-2.841-1.605-5.438-4.146-6.708l-11.865-5.932c-0.195-6.313-1.16-17.935-5.186-31.222
		c-7.531-24.853-22.454-44.383-43.259-56.747C316.395,248.132,306.88,240,295.5,240H255v-17h80.5c21.78,0,39.5-17.72,39.5-39.5
		v-3.949c18.08-12.692,29.776-35.106,31.708-60.551h10.526c3.138,9.29,11.93,16,22.266,16c12.958,0,23.5-10.542,23.5-23.5
		S452.458,88,439.5,88z M200,448h-41v-0.5c0-9.098,7.402-16.5,16.5-16.5H200V448z M304,447.5v0.5h-41v-17h24.5
		C296.598,431,304,438.402,304,447.5z M23.5,120c-4.687,0-8.5-3.813-8.5-8.5s3.813-8.5,8.5-8.5s8.5,3.813,8.5,8.5
		S28.187,120,23.5,120z M71,111.5c0-18.637,6.4-36.124,17-48.024v96.047C77.4,147.624,71,130.137,71,111.5z M159.001,263.523
		c0-0.01-0.001-0.02-0.001-0.03c0.004-4.684,3.815-8.493,8.5-8.493H224v17h-56.5C162.821,272,159.014,268.199,159.001,263.523z
		 M264,327.5c0,17.92-14.58,32.5-32.5,32.5S199,345.42,199,327.5V287h65V327.5z M304,263.493c0,0.01-0.001,0.02-0.001,0.03
		c-0.013,4.676-3.82,8.477-8.499,8.477H239v-17h56.5C300.185,255,303.996,258.809,304,263.493z M240,240h-17v-17h17V240z M360,183.5
		c0,13.509-10.991,24.5-24.5,24.5h-208c-13.509,0-24.5-10.991-24.5-24.5v-144c0-13.509,10.991-24.5,24.5-24.5h208
		c13.509,0,24.5,10.991,24.5,24.5V183.5z M375,159.524V63.476c10.6,11.899,17,29.387,17,48.024S385.6,147.624,375,159.524z
		 M439.5,120c-4.687,0-8.5-3.813-8.5-8.5s3.813-8.5,8.5-8.5s8.5,3.813,8.5,8.5S444.187,120,439.5,120z"/>
	<path d="M335.5,32h-208c-4.142,0-7.5,3.358-7.5,7.5v144c0,4.142,3.358,7.5,7.5,7.5h208c4.142,0,7.5-3.358,7.5-7.5v-144
		C343,35.358,339.642,32,335.5,32z M328,176H135V47h193V176z"/>
	<path d="M191.5,159c12.958,0,23.5-10.542,23.5-23.5v-48c0-12.958-10.542-23.5-23.5-23.5S168,74.542,168,87.5v48
		C168,148.458,178.542,159,191.5,159z M183,87.5c0-4.687,3.813-8.5,8.5-8.5s8.5,3.813,8.5,8.5v48c0,4.687-3.813,8.5-8.5,8.5
		s-8.5-3.813-8.5-8.5V87.5z"/>
	<path d="M271.5,159c12.958,0,23.5-10.542,23.5-23.5v-48c0-12.958-10.542-23.5-23.5-23.5S248,74.542,248,87.5v48
		C248,148.458,258.542,159,271.5,159z M263,87.5c0-4.687,3.813-8.5,8.5-8.5s8.5,3.813,8.5,8.5v48c0,4.687-3.813,8.5-8.5,8.5
		s-8.5-3.813-8.5-8.5V87.5z"/>
</g>
<g>
</g>
<g>
</g>
<g>
</g>
<g>
</g>
<g>
</g>
<g>
</g>
<g>
</g>
<g>
</g>
<g>
</g>
<g>
</g>
<g>
</g>
<g>
</g>
<g>
</g>
<g>
</g>
<g>
</g>
</svg>
