<?xml version="1.0" encoding="iso-8859-1"?>
<!-- Generator: Adobe Illustrator 19.0.0, SVG Export Plug-In . SVG Version: 6.00 Build 0)  -->
<svg version="1.1" id="Capa_1" xmlns="http://www.w3.org/2000/svg" xmlns:xlink="http://www.w3.org/1999/xlink" x="0px" y="0px"
	 viewBox="0 0 463 463" style="enable-background:new 0 0 463 463;" xml:space="preserve">
<g>
	<path d="M191.5,135c4.142,0,7.5-3.358,7.5-7.5v-24c0-4.142-3.358-7.5-7.5-7.5s-7.5,3.358-7.5,7.5v24
		C184,131.642,187.358,135,191.5,135z"/>
	<path d="M271.5,135c4.142,0,7.5-3.358,7.5-7.5v-24c0-4.142-3.358-7.5-7.5-7.5s-7.5,3.358-7.5,7.5v24
		C264,131.642,267.358,135,271.5,135z"/>
	<path d="M462.208,420.146L455,405.73v-6.23c0-10.336-6.71-19.128-16-22.266v-27.469c9.29-3.138,16-11.93,16-22.266
		s-6.71-19.128-16-22.266V295.5c0-19.585-14.33-35.878-33.054-38.965C402.971,246.967,394.034,240,383.5,240h-16
		c-0.064,0-0.125,0.008-0.188,0.01c-6.626-5.023-14.875-8.01-23.812-8.01H279v-33h72.5c12.958,0,23.5-10.542,23.5-23.5
		c0-10.394-6.785-19.228-16.157-22.319c-1.766-36.004-18.536-68.13-44.175-90.243l18.393-18.393C336.208,46.113,339.752,47,343.5,47
		c12.958,0,23.5-10.542,23.5-23.5S356.458,0,343.5,0S320,10.542,320,23.5c0,3.748,0.887,7.292,2.454,10.439l-19.807,19.807
		C282.313,40.021,257.826,32,231.5,32s-50.813,8.021-71.148,21.746l-19.807-19.807C142.113,30.792,143,27.249,143,23.5
		C143,10.542,132.458,0,119.5,0S96,10.542,96,23.5S106.542,47,119.5,47c3.748,0,7.292-0.887,10.439-2.454l18.393,18.393
		c-25.639,22.113-42.409,54.238-44.175,90.243C94.786,156.272,88,165.106,88,175.5c0,12.958,10.542,23.5,23.5,23.5H184v33h-64.5
		c-8.936,0-17.186,2.987-23.812,8.01c-0.063-0.002-0.125-0.01-0.188-0.01h-16c-10.534,0-19.471,6.967-22.446,16.535
		C38.33,259.622,24,275.915,24,295.5v9.734c-9.29,3.138-16,11.93-16,22.266s6.71,19.128,16,22.266v27.469
		c-9.29,3.138-16,11.93-16,22.266v6.23l-7.208,14.416c-1.056,2.111-1.056,4.597,0,6.708l8,16c1.852,3.705,6.356,5.208,10.062,3.354
		c3.705-1.852,5.207-6.357,3.354-10.062L15.885,423.5l4.25-8.5h22.729l4.25,8.5l-6.323,12.646c-1.853,3.705-0.351,8.21,3.354,10.062
		c1.077,0.539,2.221,0.793,3.348,0.793c2.751,0,5.4-1.52,6.714-4.147l8-16c1.056-2.111,1.056-4.597,0-6.708L55,405.73v-6.23
		c0-10.336-6.71-19.128-16-22.266v-27.469c9.29-3.138,16-11.93,16-22.266s-6.71-19.128-16-22.266V295.5
		c0-11.439,7.881-21.069,18.497-23.753C60.845,280.648,69.443,287,79.5,287H80v38.859c-4.899,4.31-8,10.619-8,17.641
		c0,7.496,3.532,14.178,9.014,18.484C86.046,388.14,108.756,407,135.5,407H160v17.332c-9.085,1.656-16,9.612-16,19.168
		c0,10.752,8.748,19.5,19.5,19.5h136c10.752,0,19.5-8.748,19.5-19.5c0-9.556-6.915-17.512-16-19.168V407h24.5
		c26.745,0,49.454-18.859,54.486-45.017c5.482-4.306,9.014-10.988,9.014-18.483c0-7.023-3.101-13.332-8-17.641V287h0.5
		c10.057,0,18.655-6.352,22.003-15.253C416.119,274.431,424,284.061,424,295.5v9.734c-9.29,3.138-16,11.93-16,22.266
		s6.71,19.128,16,22.266v27.469c-9.29,3.138-16,11.93-16,22.266v6.23l-7.208,14.416c-1.056,2.111-1.056,4.597,0,6.708l8,16
		c1.853,3.705,6.356,5.208,10.062,3.354c3.705-1.852,5.207-6.357,3.354-10.062l-6.323-12.646l4.25-8.5h22.729l4.25,8.5
		l-6.323,12.646c-1.853,3.705-0.351,8.21,3.354,10.062c1.077,0.539,2.221,0.793,3.348,0.793c2.751,0,5.4-1.52,6.714-4.147l8-16
		C463.264,424.743,463.264,422.257,462.208,420.146z M343.5,15c4.687,0,8.5,3.813,8.5,8.5s-3.813,8.5-8.5,8.5s-8.5-3.813-8.5-8.5
		S338.813,15,343.5,15z M111,23.5c0-4.687,3.813-8.5,8.5-8.5s8.5,3.813,8.5,8.5s-3.813,8.5-8.5,8.5S111,28.187,111,23.5z M40,400H23
		v-0.5c0-4.687,3.813-8.5,8.5-8.5s8.5,3.813,8.5,8.5V400z M31.5,336c-4.687,0-8.5-3.813-8.5-8.5s3.813-8.5,8.5-8.5
		s8.5,3.813,8.5,8.5S36.187,336,31.5,336z M231.5,47c59.512,0,108.371,46.451,112.244,105H119.256
		C123.129,93.452,171.988,47,231.5,47z M103,175.5c0-4.687,3.813-8.5,8.5-8.5h240c4.687,0,8.5,3.813,8.5,8.5s-3.813,8.5-8.5,8.5
		h-240C106.813,184,103,180.187,103,175.5z M264,199v9h-65v-9H264z M199,223h65v9h-65V223z M79.5,272c-4.687,0-8.5-3.813-8.5-8.5
		s3.813-8.5,8.5-8.5h4.125C81.305,260.025,80,265.612,80,271.5v0.5H79.5z M376,343.5c0,4.687-3.813,8.5-8.5,8.5h-272
		c-4.687,0-8.5-3.813-8.5-8.5s3.813-8.5,8.5-8.5h272C372.187,335,376,338.813,376,343.5z M299.5,448h-136
		c-2.439,0-4.5-2.061-4.5-4.5s2.061-4.5,4.5-4.5h136c2.439,0,4.5,2.061,4.5,4.5S301.94,448,299.5,448z M288,424H175v-17h113V424z
		 M327.5,392h-192c-16.41,0-31.167-10.277-37.378-25h266.756C358.667,381.724,343.912,392,327.5,392z M367.5,320h-272
		c-0.168,0-0.333,0.009-0.5,0.013V271.5c0-13.509,10.991-24.5,24.5-24.5h224c13.509,0,24.5,10.991,24.5,24.5v48.513
		C367.833,320.009,367.668,320,367.5,320z M383.5,272H383v-0.5c0-5.888-1.305-11.475-3.625-16.5h4.125c4.687,0,8.5,3.813,8.5,8.5
		S388.187,272,383.5,272z M431.5,319c4.687,0,8.5,3.813,8.5,8.5s-3.813,8.5-8.5,8.5s-8.5-3.813-8.5-8.5S426.813,319,431.5,319z
		 M431.5,391c4.687,0,8.5,3.813,8.5,8.5v0.5h-17v-0.5C423,394.813,426.813,391,431.5,391z"/>
	<path d="M267.5,256h-72c-15.164,0-27.5,12.336-27.5,27.5s12.336,27.5,27.5,27.5h72c15.164,0,27.5-12.336,27.5-27.5
		S282.664,256,267.5,256z M183,283.5c0-6.893,5.607-12.5,12.5-12.5s12.5,5.607,12.5,12.5s-5.607,12.5-12.5,12.5
		S183,290.393,183,283.5z M267.5,296h-47.518c1.924-3.753,3.018-8,3.018-12.5s-1.093-8.747-3.018-12.5H267.5
		c6.893,0,12.5,5.607,12.5,12.5S274.393,296,267.5,296z"/>
	<path d="M143.5,272c-4.142,0-7.5,3.358-7.5,7.5v8c0,4.142,3.358,7.5,7.5,7.5s7.5-3.358,7.5-7.5v-8
		C151,275.358,147.642,272,143.5,272z"/>
	<path d="M319.5,272c-4.142,0-7.5,3.358-7.5,7.5v8c0,4.142,3.358,7.5,7.5,7.5s7.5-3.358,7.5-7.5v-8
		C327,275.358,323.642,272,319.5,272z"/>
</g>
<g>
</g>
<g>
</g>
<g>
</g>
<g>
</g>
<g>
</g>
<g>
</g>
<g>
</g>
<g>
</g>
<g>
</g>
<g>
</g>
<g>
</g>
<g>
</g>
<g>
</g>
<g>
</g>
<g>
</g>
</svg>
