<?xml version="1.0" encoding="iso-8859-1"?>
<!-- Generator: Adobe Illustrator 19.0.0, SVG Export Plug-In . SVG Version: 6.00 Build 0)  -->
<svg version="1.1" id="Capa_1" xmlns="http://www.w3.org/2000/svg" xmlns:xlink="http://www.w3.org/1999/xlink" x="0px" y="0px"
	 viewBox="0 0 463 463" style="enable-background:new 0 0 463 463;" xml:space="preserve">
<g>
	<path d="M298.384,40.491c0.286-2.143-0.367-4.305-1.791-5.932c-1.424-1.626-3.481-2.56-5.643-2.56h-118.9
		c-2.162,0-4.219,0.933-5.643,2.56c-1.424,1.626-2.077,3.789-1.791,5.932l7.467,56c0.497,3.726,3.675,6.509,7.434,6.509h103.967
		c3.759,0,6.938-2.783,7.434-6.509L298.384,40.491z M276.917,88h-90.834l-5.467-41h101.768L276.917,88z"/>
	<path d="M207.5,79c4.142,0,7.5-3.358,7.5-7.5v-8c0-4.142-3.358-7.5-7.5-7.5s-7.5,3.358-7.5,7.5v8C200,75.642,203.358,79,207.5,79z"
		/>
	<path d="M255.5,79c4.142,0,7.5-3.358,7.5-7.5v-8c0-4.142-3.358-7.5-7.5-7.5s-7.5,3.358-7.5,7.5v8C248,75.642,251.358,79,255.5,79z"
		/>
	<path d="M385.276,160.133c-4.467-5.168-10.948-8.133-17.779-8.133h-12.003l0.746-5.097c0.989-6.76-1.005-13.601-5.473-18.77
		C346.3,122.964,339.82,120,332.988,120h-15.695c2.27-3.668,3.818-7.841,4.417-12.337l9.6-72c1.2-9-1.542-18.081-7.523-24.913
		C317.806,3.918,309.168,0,300.087,0H162.913c-9.081,0-17.719,3.918-23.7,10.75c-5.981,6.832-8.724,15.912-7.523,24.913l9.6,72
		c0.599,4.496,2.147,8.669,4.418,12.337h-15.695c-6.832,0-13.312,2.964-17.779,8.133c-4.467,5.169-6.462,12.01-5.473,18.77
		l0.746,5.097H95.503c-6.832,0-13.312,2.964-17.779,8.133c-4.467,5.169-6.462,12.01-5.473,18.77L88.98,293.219
		C91.798,312.478,108.6,327,128.063,327h5.052l8.541,58.365c3.155,21.563,13.973,41.286,30.461,55.537
		C188.605,455.152,209.687,463,231.521,463c21.792,0,42.875-7.848,59.362-22.099c16.488-14.25,27.306-33.974,30.461-55.537
		L329.884,327h5.052c19.463,0,36.266-14.522,39.083-33.781l16.729-114.317C391.738,172.143,389.744,165.302,385.276,160.133z
		 M367.497,167c2.507,0,4.791,1.045,6.431,2.941c1.64,1.897,2.342,4.308,1.979,6.789l-1.064,7.27h-24.032l2.488-17H367.497z
		 M363.136,264h-24.032l9.512-65h24.032L363.136,264z M90.352,199h24.032l9.512,65H99.864L90.352,199z M151.787,351h159.425
		l-2.488,17h-154.45L151.787,351z M156.157,105.681l-9.6-72c-0.628-4.715,0.808-9.471,3.941-13.05S158.156,15,162.913,15h137.175
		c4.756,0,9.281,2.052,12.415,5.631s4.569,8.335,3.941,13.05l-9.6,72c-1.088,8.163-8.119,14.319-16.355,14.319H172.512
		C164.276,120,157.246,113.844,156.157,105.681z M123.581,137.941c1.64-1.897,3.923-2.941,6.431-2.941h202.977
		c2.507,0,4.791,1.044,6.431,2.941s2.342,4.308,1.979,6.79L313.408,336H149.592l-27.991-191.269
		C121.239,142.25,121.941,139.838,123.581,137.941z M89.072,169.941c1.64-1.896,3.923-2.941,6.431-2.941h14.198l2.488,17H88.157
		l-1.064-7.27C86.73,174.25,87.433,171.838,89.072,169.941z M128.063,312c-12.072,0-22.494-9.008-24.242-20.953L102.059,279h24.032
		l4.829,33H128.063z M281.074,429.553C267.311,441.449,249.712,448,231.479,448c-18.192,0-35.79-6.551-49.553-18.447
		c-13.763-11.896-22.793-28.36-25.428-46.36L156.47,383H306.53l-0.028,0.193C303.867,401.193,294.837,417.657,281.074,429.553z
		 M334.937,312h-2.857l4.829-33h24.032l-1.763,12.047C357.43,302.992,347.009,312,334.937,312z"/>
	<path d="M175.5,215h24.273c5.781,7.785,14.355,13.371,24.227,15.277V255.5c0,4.142,3.358,7.5,7.5,7.5s7.5-3.358,7.5-7.5v-25.223
		c9.871-1.906,18.446-7.492,24.227-15.277H287.5c12.958,0,23.5-10.542,23.5-23.5S300.458,168,287.5,168h-24.273
		c-7.204-9.701-18.743-16-31.727-16s-24.523,6.299-31.727,16H175.5c-12.958,0-23.5,10.542-23.5,23.5S162.542,215,175.5,215z
		 M287.5,183c4.687,0,8.5,3.813,8.5,8.5s-3.813,8.5-8.5,8.5h-17.431c0.603-2.74,0.931-5.582,0.931-8.5s-0.328-5.76-0.931-8.5H287.5z
		 M231.5,167c13.509,0,24.5,10.991,24.5,24.5S245.009,216,231.5,216S207,205.009,207,191.5S217.991,167,231.5,167z M175.5,183
		h17.431c-0.603,2.74-0.931,5.582-0.931,8.5s0.328,5.76,0.931,8.5H175.5c-4.687,0-8.5-3.813-8.5-8.5S170.813,183,175.5,183z"/>
</g>
<g>
</g>
<g>
</g>
<g>
</g>
<g>
</g>
<g>
</g>
<g>
</g>
<g>
</g>
<g>
</g>
<g>
</g>
<g>
</g>
<g>
</g>
<g>
</g>
<g>
</g>
<g>
</g>
<g>
</g>
</svg>
