<?xml version="1.0" encoding="iso-8859-1"?>
<!-- Generator: Adobe Illustrator 19.0.0, SVG Export Plug-In . SVG Version: 6.00 Build 0)  -->
<svg version="1.1" id="Capa_1" xmlns="http://www.w3.org/2000/svg" xmlns:xlink="http://www.w3.org/1999/xlink" x="0px" y="0px"
	 viewBox="0 0 463 463" style="enable-background:new 0 0 463 463;" xml:space="preserve">
<g>
	<path d="M399.5,335.5H375V335c0-17.369-14.131-31.5-31.5-31.5H303v-33h26.946c11.535,0,21.284-8.258,23.18-19.637l4.727-28.363
		h1.647c7.023,0,13.332-3.101,17.641-8h6.359c3.44,0,6.75-0.562,9.852-1.586l11.991,19.185C402.006,236.157,400,241.348,400,247
		c0,6.177,2.399,11.801,6.31,16c-3.911,4.199-6.31,9.823-6.31,16c0,4.142,3.358,7.5,7.5,7.5s7.5-3.358,7.5-7.5
		c0-4.687,3.813-8.5,8.5-8.5s8.5,3.813,8.5,8.5v24.5h-8.5c-4.142,0-7.5,3.358-7.5,7.5s3.358,7.5,7.5,7.5h16
		c4.142,0,7.5-3.358,7.5-7.5v-32c0-6.177-2.399-11.801-6.31-16c3.911-4.199,6.31-9.823,6.31-16c0-12.958-10.542-23.5-23.5-23.5
		c-1.873,0-3.694,0.227-5.441,0.643l-11.996-19.193C411.587,199.272,415,191.529,415,183c0-17.369-14.131-31.5-31.5-31.5H383V151
		c0-4.142-3.358-7.5-7.5-7.5H303v-17h8.5c4.142,0,7.5-3.358,7.5-7.5V47c0-17.369-14.131-31.5-31.5-31.5h-112
		C158.131,15.5,144,29.631,144,47v72c0,4.142,3.358,7.5,7.5,7.5h8.5v17h-25V135c0-10.336-6.71-19.128-16-22.266V27.386
		c4.188-2.545,7-7.138,7-12.386c0-7.995-6.505-14.5-14.5-14.5S97,7.005,97,15c0,5.248,2.812,9.84,7,12.386v85.349
		c-9.29,3.138-16,11.93-16,22.266v8.5h-0.5c-4.142,0-7.5,3.358-7.5,7.5v0.5h-0.5C62.131,151.5,48,165.631,48,183
		c0,8.529,3.413,16.272,8.937,21.95l-11.996,19.193c-1.748-0.416-3.568-0.643-5.441-0.643C26.542,223.5,16,234.042,16,247
		c0,6.177,2.399,11.801,6.31,16c-3.911,4.199-6.31,9.823-6.31,16v32c0,4.142,3.358,7.5,7.5,7.5h16c4.142,0,7.5-3.358,7.5-7.5
		s-3.358-7.5-7.5-7.5H31V279c0-4.687,3.813-8.5,8.5-8.5s8.5,3.813,8.5,8.5c0,4.142,3.358,7.5,7.5,7.5s7.5-3.358,7.5-7.5
		c0-6.177-2.399-11.801-6.31-16c3.911-4.199,6.31-9.823,6.31-16c0-5.652-2.006-10.843-5.343-14.901l11.991-19.185
		c3.102,1.024,6.411,1.586,9.852,1.586h6.359c4.31,4.899,10.619,8,17.641,8h1.647l4.727,28.363
		c1.896,11.378,11.645,19.637,23.18,19.637H160v33h-40.5c-17.369,0-31.5,14.131-31.5,31.5v0.5H63.5C28.486,335.5,0,363.986,0,399
		s28.486,63.5,63.5,63.5h336c35.014,0,63.5-28.486,63.5-63.5S434.514,335.5,399.5,335.5z M288,303.5h-17v-33h17V303.5z M239,303.5
		v-33h17v33H239z M207,303.5v-33h17v33H207z M432,247c0,4.687-3.813,8.5-8.5,8.5s-8.5-3.813-8.5-8.5s3.813-8.5,8.5-8.5
		S432,242.313,432,247z M383.5,166.5c9.098,0,16.5,7.402,16.5,16.5s-7.402,16.5-16.5,16.5h-0.513c0.004-0.167,0.013-0.332,0.013-0.5
		v-32.5H383.5z M288,143.5h-17v-17h17V143.5z M239,143.5v-17h17v17H239z M207,143.5v-17h17v17H207z M159,47
		c0-9.098,7.402-16.5,16.5-16.5h112c9.098,0,16.5,7.402,16.5,16.5v64.5H159V47z M175,126.5h17v17h-17V126.5z M103,135
		c0-4.687,3.813-8.5,8.5-8.5s8.5,3.813,8.5,8.5v8.5h-17V135z M39.5,238.5c4.687,0,8.5,3.813,8.5,8.5s-3.813,8.5-8.5,8.5
		S31,251.687,31,247S34.813,238.5,39.5,238.5z M79.5,199.5c-9.098,0-16.5-7.402-16.5-16.5s7.402-16.5,16.5-16.5H80V199
		c0,0.168,0.009,0.333,0.013,0.5H79.5z M95,199v-40.5h273V199c0,4.687-3.813,8.5-8.5,8.5h-57.734c-3.138-9.29-11.93-16-22.266-16
		h-96c-10.336,0-19.128,6.71-22.266,16H103.5C98.813,207.5,95,203.687,95,199z M288,215.01c-0.005,4.683-3.816,8.49-8.5,8.49h-96
		c-4.687,0-8.5-3.813-8.5-8.5s3.813-8.5,8.5-8.5h96c4.684,0,8.494,3.808,8.5,8.49c0,0.003,0,0.006,0,0.01S288,215.006,288,215.01z
		 M124.67,248.397l-4.316-25.897h40.881c3.138,9.29,11.93,16,22.266,16h96c10.336,0,19.128-6.71,22.266-16h40.881l-4.316,25.897
		c-0.686,4.116-4.212,7.103-8.384,7.103H133.054C128.882,255.5,125.356,252.513,124.67,248.397z M175,270.5h17v33h-17V270.5z
		 M103,335c0-9.098,7.402-16.5,16.5-16.5h224c9.098,0,16.5,7.402,16.5,16.5v0.5H103V335z M399.5,447.5h-336
		C36.757,447.5,15,425.743,15,399s21.757-48.5,48.5-48.5h336c26.743,0,48.5,21.757,48.5,48.5S426.243,447.5,399.5,447.5z"/>
	<path d="M399.5,359.5c-19.216,0-35.262,13.795-38.777,32h-11.321c1.027-2.638,1.597-5.503,1.597-8.5
		c0-12.958-10.542-23.5-23.5-23.5S304,370.042,304,383c0,2.997,0.57,5.862,1.597,8.5h-20.195c1.027-2.638,1.597-5.503,1.597-8.5
		c0-12.958-10.542-23.5-23.5-23.5S240,370.042,240,383c0,2.997,0.57,5.862,1.597,8.5h-20.195c1.027-2.638,1.597-5.503,1.597-8.5
		c0-12.958-10.542-23.5-23.5-23.5S176,370.042,176,383c0,2.997,0.57,5.862,1.597,8.5h-20.195c1.027-2.638,1.597-5.503,1.597-8.5
		c0-12.958-10.542-23.5-23.5-23.5S112,370.042,112,383c0,2.997,0.57,5.862,1.597,8.5h-11.321c-3.515-18.205-19.561-32-38.777-32
		C41.72,359.5,24,377.22,24,399s17.72,39.5,39.5,39.5c19.216,0,35.262-13.795,38.777-32h258.447c3.515,18.205,19.561,32,38.777,32
		c21.78,0,39.5-17.72,39.5-39.5S421.28,359.5,399.5,359.5z M319,383c0-4.687,3.813-8.5,8.5-8.5s8.5,3.813,8.5,8.5
		s-3.813,8.5-8.5,8.5S319,387.687,319,383z M255,383c0-4.687,3.813-8.5,8.5-8.5s8.5,3.813,8.5,8.5s-3.813,8.5-8.5,8.5
		S255,387.687,255,383z M191,383c0-4.687,3.813-8.5,8.5-8.5s8.5,3.813,8.5,8.5s-3.813,8.5-8.5,8.5S191,387.687,191,383z M127,383
		c0-4.687,3.813-8.5,8.5-8.5s8.5,3.813,8.5,8.5s-3.813,8.5-8.5,8.5S127,387.687,127,383z M63.5,423.5
		C49.991,423.5,39,412.509,39,399s10.991-24.5,24.5-24.5c10.894,0,20.145,7.149,23.321,17H63.5c-4.142,0-7.5,3.358-7.5,7.5
		s3.358,7.5,7.5,7.5h23.321C83.645,416.351,74.394,423.5,63.5,423.5z M399.5,423.5c-10.894,0-20.145-7.149-23.321-17H399.5
		c4.142,0,7.5-3.358,7.5-7.5s-3.358-7.5-7.5-7.5h-23.321c3.176-9.851,12.427-17,23.321-17c13.509,0,24.5,10.991,24.5,24.5
		S413.009,423.5,399.5,423.5z"/>
	<path d="M143.5,415.5h-16c-4.142,0-7.5,3.358-7.5,7.5s3.358,7.5,7.5,7.5h16c4.142,0,7.5-3.358,7.5-7.5S147.642,415.5,143.5,415.5z"
		/>
	<path d="M207.5,415.5h-16c-4.142,0-7.5,3.358-7.5,7.5s3.358,7.5,7.5,7.5h16c4.142,0,7.5-3.358,7.5-7.5S211.642,415.5,207.5,415.5z"
		/>
	<path d="M271.5,415.5h-16c-4.142,0-7.5,3.358-7.5,7.5s3.358,7.5,7.5,7.5h16c4.142,0,7.5-3.358,7.5-7.5S275.642,415.5,271.5,415.5z"
		/>
	<path d="M335.5,415.5h-16c-4.142,0-7.5,3.358-7.5,7.5s3.358,7.5,7.5,7.5h16c4.142,0,7.5-3.358,7.5-7.5S339.642,415.5,335.5,415.5z"
		/>
	<path d="M199.5,94.5c12.958,0,23.5-10.542,23.5-23.5s-10.542-23.5-23.5-23.5S176,58.042,176,71S186.542,94.5,199.5,94.5z
		 M199.5,62.5c4.687,0,8.5,3.813,8.5,8.5s-3.813,8.5-8.5,8.5S191,75.687,191,71S194.813,62.5,199.5,62.5z"/>
	<path d="M239.5,62.5h40c4.142,0,7.5-3.358,7.5-7.5s-3.358-7.5-7.5-7.5h-40c-4.142,0-7.5,3.358-7.5,7.5S235.358,62.5,239.5,62.5z"/>
	<path d="M239.5,94.5h40c4.142,0,7.5-3.358,7.5-7.5s-3.358-7.5-7.5-7.5h-40c-4.142,0-7.5,3.358-7.5,7.5S235.358,94.5,239.5,94.5z"/>
	<path d="M143.5,175.5h-16c-4.142,0-7.5,3.358-7.5,7.5s3.358,7.5,7.5,7.5h16c4.142,0,7.5-3.358,7.5-7.5S147.642,175.5,143.5,175.5z"
		/>
	<path d="M319.5,190.5h16c4.142,0,7.5-3.358,7.5-7.5s-3.358-7.5-7.5-7.5h-16c-4.142,0-7.5,3.358-7.5,7.5S315.358,190.5,319.5,190.5z
		"/>
</g>
<g>
</g>
<g>
</g>
<g>
</g>
<g>
</g>
<g>
</g>
<g>
</g>
<g>
</g>
<g>
</g>
<g>
</g>
<g>
</g>
<g>
</g>
<g>
</g>
<g>
</g>
<g>
</g>
<g>
</g>
</svg>
