<svg xmlns="http://www.w3.org/2000/svg" xmlns:xlink="http://www.w3.org/1999/xlink" version="1.1" x="0px" y="0px" viewBox="0 0 100 100" enable-background="new 0 0 100 100" xml:space="preserve"><g display="none"><path display="inline" d="M81,56c0,18.226-13.88,33-31,33S19,74.226,19,56c0-16,13.88-26,31-26S81,40,81,56z"></path><path display="inline" d="M69,30.293c0,10.492-8.505,19.002-19,19.002s-19-8.51-19-19.002c0-10.488,8.505-18.998,19-18.998   S69,19.805,69,30.293z"></path><path display="inline" fill="#000000" stroke="#FFFFFF" stroke-width="2" stroke-linecap="round" stroke-miterlimit="10" d="   M71.231,57c4.776,7.901-1.485,19.53-2.87,23.047C66.145,85.679,60.144,102,50,102c-10.145,0-16.146-16.321-18.36-21.953   C30.255,76.53,23.991,64.901,28.768,57"></path><path display="inline" d="M66.428,85c-1.896,5.17-7.356,6-16.439,6c-9.082,0-14.456-0.872-16.438-6c-1.935-5-14.505-30,16.438-30   C80.932,55,67.895,81,66.428,85z"></path><path display="inline" fill="#000000" d="M50,29c-2,2-2,7,0,9C52,36,52,31,50,29z"></path><g display="inline"><circle fill="#000000" cx="57" cy="27" r="4"></circle><circle cx="57" cy="27" r="2"></circle><circle fill="#000000" cx="58" cy="26" r="1"></circle></g><g display="inline"><circle fill="#000000" cx="44" cy="27" r="4"></circle><circle cx="44" cy="27" r="2"></circle><circle fill="#000000" cx="45" cy="26.001" r="1"></circle></g><rect x="48" y="28" display="inline" width="4" height="4"></rect><path display="inline" d="M32,18l-2-8c0,0,18,4.046,18,14C38,18,32,18,32,18z"></path><path display="inline" d="M68,18l2-8c0,0-18,4.046-18,14C62,18,68,18,68,18z"></path><polygon display="inline" fill="#000000" points="29,12 35,15 27,14  "></polygon><polygon display="inline" fill="#000000" points="71,12 65,15 73,14  "></polygon><g display="inline"><defs><path id="b" d="M82,57c0,18.226-14.327,33-32,33S18,75.226,18,57c0-16,14.327-26,32-26S82,41,82,57z"></path></defs><clipPath id="a"><use xlink:href="#b" overflow="visible"></use></clipPath><path clip-path="url(#a)" fill="#000000" d="M40,90c0,0.553-0.447,1-1,1l0,0c-0.553,0-1-0.447-1-1v-4c0-0.553,0.447-1,1-1    l0,0c0.553,0,1,0.447,1,1V90z"></path><path clip-path="url(#a)" fill="#000000" d="M43,90c0,0.553-0.447,1-1,1l0,0c-0.553,0-1-0.447-1-1v-4c0-0.553,0.447-1,1-1    l0,0c0.553,0,1,0.447,1,1V90z"></path><path clip-path="url(#a)" fill="#000000" d="M46,90c0,0.553-0.447,1-1,1l0,0c-0.553,0-1-0.447-1-1v-4c0-0.553,0.447-1,1-1    l0,0c0.553,0,1,0.447,1,1V90z"></path><path clip-path="url(#a)" fill="#000000" d="M56,90c0,0.553-0.447,1-1,1l0,0c-0.553,0-1-0.447-1-1v-4c0-0.553,0.447-1,1-1    l0,0c0.553,0,1,0.447,1,1V90z"></path><path clip-path="url(#a)" fill="#000000" d="M59,90c0,0.553-0.447,1-1,1l0,0c-0.553,0-1-0.447-1-1v-4c0-0.553,0.447-1,1-1    l0,0c0.553,0,1,0.447,1,1V90z"></path><path clip-path="url(#a)" fill="#000000" d="M62,90c0,0.553-0.447,1-1,1l0,0c-0.553,0-1-0.447-1-1v-4c0-0.553,0.447-1,1-1    l0,0c0.553,0,1,0.447,1,1V90z"></path></g></g><g><path d="M59.42,22.331c-0.647,0-1.174-0.528-1.174-1.176c0-0.477,0.285-0.878,0.683-1.064c-0.219-0.067-0.445-0.113-0.683-0.113   c-1.308,0-2.354,1.051-2.354,2.354c0,1.299,1.047,2.354,2.354,2.354c1.297,0,2.354-1.056,2.354-2.354   c0-0.242-0.051-0.468-0.118-0.691C60.291,22.047,59.896,22.331,59.42,22.331z"></path><path d="M44.113,22.332c-0.648,0-1.177-0.528-1.177-1.176c0-0.478,0.284-0.88,0.686-1.065c-0.218-0.068-0.444-0.113-0.686-0.113   c-1.304,0-2.354,1.051-2.354,2.354c0,1.299,1.051,2.354,2.354,2.354c1.298,0,2.354-1.056,2.354-2.354   c0-0.242-0.045-0.468-0.113-0.69C44.987,22.048,44.585,22.332,44.113,22.332z"></path><path d="M71.756,31.331c0.394-1.647,0.617-3.357,0.617-5.12c0-5.267-1.835-10.101-4.884-13.921c2.403-0.55,3.701-0.559,3.701-0.559   l0.747-2.96l-5.456,0.605l6.278-3.924l0.785-3.14c0,0-6.379,1.443-12.143,4.673C58.06,5.004,54.176,3.84,50,3.84   c-4.17,0-8.059,1.164-11.402,3.146C32.835,3.757,26.45,2.313,26.45,2.313l0.785,3.14l6.284,3.924l-5.45-0.605l0.736,2.96   c0,0,1.304,0.009,3.701,0.559c-3.043,3.82-4.878,8.654-4.878,13.921c0,1.763,0.229,3.473,0.617,5.12   C19.299,36.549,13.5,45.258,13.5,56.478c0,12.912,5.926,24.338,15.036,31.401c-0.355-0.896-0.675-1.734-0.958-2.471l-0.292-0.771   c-0.198-0.506-0.479-1.155-0.809-1.927c-2.506-5.836-7.729-17.972-2.491-26.839c0.334-0.55,1.056-0.741,1.611-0.405   c0.562,0.323,0.746,1.044,0.417,1.605c-4.63,7.831,0.273,19.229,2.628,24.709c0.341,0.8,0.638,1.484,0.838,2.01l0.299,0.774   c0.568,1.486,2.538,5.997,2.562,6.058c2.331,6.041,6.954,7.063,17.647,7.063c10.694,0,15.435-0.98,17.675-7.063   c0.018-0.059,1.991-4.562,2.559-6.045l0.299-0.787c0.206-0.524,0.496-1.209,0.843-2.008c2.354-5.479,7.247-16.879,2.616-24.711   c-0.324-0.562-0.146-1.282,0.416-1.605c0.561-0.336,1.282-0.145,1.616,0.405c5.234,8.868,0.018,21.005-2.488,26.841   c-0.335,0.771-0.615,1.42-0.803,1.926l-0.309,0.783c-0.271,0.732-0.595,1.565-0.948,2.456C80.574,80.814,86.5,69.39,86.5,56.478   C86.5,45.258,80.707,36.549,71.756,31.331z M40,93.707c-1-0.23-2-0.487-2-0.769v-2.315c0-0.649,0.347-1.183,1-1.183   c0.649,0,1,0.533,1,1.183V93.707z M43,94.563c-1-0.152-1-0.337-2-0.526v-3.414c0-0.649,0.351-1.183,1-1.183s1,0.533,1,1.183V94.563   z M46,95.077c-1-0.081-1-0.184-2-0.312v-4.143c0-0.649,0.351-1.183,1-1.183s1,0.533,1,1.183V95.077z M42.936,27.041   c-2.602,0-4.709-2.108-4.709-4.709s2.107-4.709,4.709-4.709s4.709,2.108,4.709,4.709S45.538,27.041,42.936,27.041z M50,39.064   C48.479,37.546,47.946,34,48.389,32h3.227C52.054,34,51.516,37.546,50,39.064z M56,94.766c-1,0.128-1,0.23-2,0.312v-4.454   c0-0.649,0.345-1.183,1-1.183c0.649,0,1,0.533,1,1.183V94.766z M59,94.037c-1,0.189-1,0.374-2,0.526v-3.94   c0-0.649,0.347-1.183,1-1.183c0.647,0,1,0.533,1,1.183V94.037z M58.246,27.041c-2.607,0-4.709-2.108-4.709-4.709   s2.102-4.709,4.709-4.709c2.596,0,4.709,2.108,4.709,4.709S60.842,27.041,58.246,27.041z M62,92.938c0,0.281-1,0.538-2,0.768   v-3.083c0-0.649,0.352-1.183,1-1.183c0.652,0,1,0.533,1,1.183V92.938z"></path></g></svg>