<svg xmlns="http://www.w3.org/2000/svg" xmlns:xlink="http://www.w3.org/1999/xlink" version="1.1" x="0px" y="0px" viewBox="0 0 100 100" enable-background="new 0 0 100 100" xml:space="preserve"><path d="M52.508,97.847c0-4.802-1.304-9.296-3.568-13.16c-6.748,2.922-14.182,4.55-21.99,4.55c-0.202,0-0.402-0.003-0.603-0.007  l-0.133-0.002c-0.041-0.002-0.08-0.012-0.12-0.015v8.634H52.508z"></path><path d="M71.362,15.171c-4.71-4.666-11.19-7.549-18.344-7.549c-0.114,0-0.228,0.003-0.341,0.005  c-0.113-0.001-0.227-0.005-0.342-0.005c-7.133,0-13.593,2.867-18.301,7.509v0.075c-0.026,0-0.049-0.003-0.075-0.003  c-4.751,4.722-7.694,11.262-7.694,18.49v12.506h26.066h3.368l0.035,3.368l0.001,0.108l0.003,0.27  c0,16.25-13.221,29.473-29.474,29.473v6.408c0.228,0.004,0.454,0.008,0.683,0.008c28.796,0,52.141-23.343,52.141-52.14h-0.002  c0-7.227-2.94-13.766-7.69-18.487c-0.012,0-0.023,0.001-0.035,0.001V15.171z M31.659,25.83c0-5.616,4.553-10.169,10.169-10.169  c5.616,0,10.169,4.553,10.169,10.169s-4.553,10.169-10.169,10.169C36.212,35.999,31.659,31.446,31.659,25.83z M52.658,41.65  l-4.669-4.67c2.546-2.546,6.672-2.545,9.217,0c0.021,0.02,0.04,0.041,0.061,0.062L52.658,41.65z M73.696,25.83  c0,5.616-4.554,10.169-10.17,10.169S53.357,31.446,53.357,25.83S57.91,15.66,63.526,15.66S73.696,20.213,73.696,25.83z"></path><path d="M26.267,76.014c14.399,0,26.071-11.672,26.071-26.07c0-0.115-0.004-0.229-0.005-0.342H26.267V76.014z"></path><circle cx="41.829" cy="25.829" r="4.152"></circle><circle cx="63.526" cy="25.829" r="4.152"></circle><path d="M33.96,15.203c0.025,0,0.049,0.003,0.075,0.003v-0.075v-4.515V2H21.002C21.002,2.058,21,2.114,21,2.171  c0,5.773,3.757,10.662,8.957,12.375C31.218,14.961,32.562,15.195,33.96,15.203z"></path><path d="M71.362,15.171v0.035c0.012,0,0.023-0.001,0.035-0.001c1.4-0.005,2.747-0.235,4.011-0.647  c5.217-1.703,8.989-6.602,8.989-12.387c0-0.058-0.002-0.114-0.002-0.171H71.362v8.649V15.171z"></path></svg>