<svg xmlns="http://www.w3.org/2000/svg" xmlns:xlink="http://www.w3.org/1999/xlink" version="1.1" x="0px" y="0px" viewBox="0 0 100 100" enable-background="new 0 0 100 100" xml:space="preserve"><path d="M30.487,51.552c-1.02,0-1.984,0.229-2.854,0.634c0.463,0.43,0.756,1.036,0.756,1.716c0,1.299-1.053,2.352-2.351,2.352  c-0.68,0-1.286-0.292-1.718-0.754c-0.4,0.868-0.632,1.832-0.632,2.853c0,3.756,3.044,6.799,6.799,6.799s6.8-3.043,6.8-6.799  C37.287,54.595,34.242,51.552,30.487,51.552z"></path><path d="M81.67,38.557c4.09-4.834,7.106-10.607,8.67-16.953c-8.578,9.088-23.557,15.115-40.615,15.115  c-17.059,0-32.039-6.027-40.617-15.115c1.589,6.446,4.679,12.299,8.868,17.18C11.533,42.914,7.259,50.131,7.259,58.352  c0,12.829,10.4,23.229,23.229,23.229c8.184,0,15.376-4.236,19.513-10.63c4.138,6.394,11.328,10.63,19.514,10.63  c12.829,0,23.228-10.399,23.228-23.229C92.741,49.98,88.312,42.646,81.67,38.557z M30.487,74.001  c-8.643,0-15.649-7.006-15.649-15.649c0-8.643,7.006-15.651,15.649-15.651s15.651,7.009,15.651,15.651  C46.139,66.995,39.13,74.001,30.487,74.001z M69.514,74.001c-8.645,0-15.65-7.006-15.65-15.649c0-8.643,7.006-15.651,15.65-15.651  c8.643,0,15.649,7.009,15.649,15.651C85.163,66.995,78.156,74.001,69.514,74.001z"></path><path d="M73.961,56.253c-1.298,0-2.351-1.053-2.351-2.352c0-0.68,0.293-1.286,0.754-1.716c-0.867-0.404-1.832-0.634-2.851-0.634  c-3.757,0-6.802,3.043-6.802,6.8c0,3.756,3.045,6.799,6.802,6.799c3.754,0,6.799-3.043,6.799-6.799c0-1.021-0.231-1.984-0.635-2.853  C75.249,55.961,74.641,56.253,73.961,56.253z"></path><polygon points="50,94.311 43.093,82.586 50,75.164 56.907,82.586 "></polygon><path d="M48.004,28.341l-15.899-6.125v9.812c5.498,1.509,11.461,2.315,17.62,2.315c4.895,0,9.666-0.511,14.177-1.476V22.217  L48.004,28.341z"></path><polygon points="48.004,26.198 19.375,15.169 48.004,5.689 76.635,15.169 "></polygon></svg>