<svg xmlns="http://www.w3.org/2000/svg" xmlns:xlink="http://www.w3.org/1999/xlink" version="1.1" x="0px" y="0px" viewBox="0 0 100 100" style="enable-background:new 0 0 100 100;" xml:space="preserve"><style type="text/css">
	.st0{fill:#FFFFFF;}
	.st1{fill:#726456;}
	.st2{fill:#666666;}
	.st3{fill:#840000;}
	.st4{fill:#187A7F;}
	.st5{fill:#FBB03B;}
	.st6{fill:#FFFFFF;stroke:#000000;stroke-width:4;stroke-miterlimit:10;}
	.st7{fill:none;stroke:#FFFFFF;stroke-width:5;stroke-miterlimit:10;}
	.st8{fill:#C1272D;}
	.st9{fill:none;stroke:#000000;stroke-width:5;stroke-miterlimit:10;}
</style><path d="M64.2,73.6c0.4,0,2.2-3.7-0.1-5.7c0,0-1.5-0.5-2.1-0.4c0,0,15.5-15.4,9.9-37c0,0,8.3-10.7-3-20.8c0,0,1.9-1.5,2.4-2.1  c0.5-0.6-4.8,0.2-4.8,0.2S59.1,2.2,47.7,8c0,0-4.3-0.7-4.6-0.6c-0.3,0.1,1.8,2.5,1.8,2.5s-9.7,6.4-4.6,19c0,0-12.9,9.5-13.7,19.4  c0,0-1.5,29.9-6.8,36.7c0,0,8.7-3.9,10.6-5.4c0,0-4.2,13.5-4.8,14.1c0,0,22.1,4.8,39.4-7.1c0,0-2.9-5.9-10.4-11.6l7.2-2.7  c0,0-0.4,1.3-0.6,1.6c-0.1,0.3,1.2,0,1.7-0.4c0.4-0.4,1.4-3.3,0.1-4.4c0,0-1-0.4-1.8-0.3c0,0-0.4-0.5,0.1-0.5c0.4,0,1.8,0,1.9,0.1  c0.1,0.1,2.1,1.4,0.7,4.4C63.8,72.8,63.9,73.6,64.2,73.6z M65.9,58.8c0,0,2.6-5.7-1.8-14.4c2-2.5,6.9-4.7,6.9-4.7  C72.9,47.1,65.9,58.8,65.9,58.8z M60.6,28.3c0,0,5.3,3.3,9.3,2.9c0,0-2.1,1.7-2.6,1.9C66.5,33.5,61.8,30.7,60.6,28.3z M71.1,29.6  c0,0-5.9,0.2-8.2-1.7c0,0,7.7,0.4,9.4-0.3C72.3,27.6,72.3,29.1,71.1,29.6z M73.4,25.4c0,0-3.9,2-7.5,1.7c0,0,4.9-2,7.8-4.3  C73.7,22.8,74,24.6,73.4,25.4z M60.4,25.8c0,0,0.8-1.3-0.3-6.4c0.5,1.3,1.7,2.2,3.2,2.2c1.9,0,3.4-1.5,3.4-3.4  c0-0.8-0.3-1.6-0.8-2.2l0,0c0,0,2.5-1.2,2.9-1.4C68.9,14.6,75.8,25.3,60.4,25.8z M61.2,18.5c0-1.3,1-2.3,2.3-2.3s2.3,1,2.3,2.3  s-1,2.3-2.3,2.3S61.2,19.8,61.2,18.5z M63.5,15.2c0,0-1.2-0.2-2.9,1.7c0,0,1.5-4.9,7.1-5.7C67.7,11.2,64.2,13.1,63.5,15.2z   M67.2,10.1c0,0-7.5,1.8-8.5,9.3C58.7,19.4,54.9,10.4,67.2,10.1z M59.3,23.3c0,0-1.6,1.5-2.2,3.4h-0.3c-0.6-1.9-2.2-3.4-2.2-3.4  c0.9-3.5,2.3-3.1,2.3-3.1S58.4,19.8,59.3,23.3z M57,11.8c0.6-1.8,5.4-3.9,4.9-3.3c-0.5,0.6-0.5,1.6-0.5,1.6  c-3.7,1.7-4.4,3.8-4.4,3.8s-0.7-2.1-4.4-3.8c0,0,0-1-0.5-1.6C51.7,7.9,56.4,10,57,11.8z M55.3,19.4c-1-7.5-8.5-9.3-8.5-9.3  C59.2,10.4,55.3,19.4,55.3,19.4z M53.5,16.8c-1.7-1.9-2.9-1.7-2.9-1.7c-0.7-2.1-4.2-4-4.2-4C52,11.9,53.5,16.8,53.5,16.8z   M52.9,18.5c0,1.3-1,2.3-2.3,2.3c-1.3,0-2.3-1-2.3-2.3s1-2.3,2.3-2.3C51.8,16.1,52.9,17.2,52.9,18.5z M45.2,14.6  c0.4,0.2,2.9,1.4,2.9,1.4l0,0c-0.5,0.6-0.8,1.3-0.8,2.2c0,1.9,1.5,3.4,3.4,3.4c1.4,0,2.7-0.9,3.2-2.2c-1.1,5.1-0.3,6.4-0.3,6.4  C38.3,25.3,45.2,14.6,45.2,14.6z M53.3,28.3c-1.2,2.5-5.9,5.2-6.7,4.8c-0.4-0.2-2.6-1.9-2.6-1.9C48,31.6,53.3,28.3,53.3,28.3z   M42.8,29.6c-1.2-0.5-1.2-2-1.2-2c1.8,0.7,9.4,0.3,9.4,0.3C48.7,29.8,42.8,29.6,42.8,29.6z M40.2,22.8c3,2.3,7.8,4.3,7.8,4.3  c-3.7,0.3-7.5-1.7-7.5-1.7C39.9,24.6,40.2,22.8,40.2,22.8z M48,34.9c-9.7,1.3-13.7,10.1-13.7,10.1s-2.5,1.2-5.7,0.9  C33.7,32.5,48,34.9,48,34.9z M41.6,52.7c-4.5,4.2-8.4,4.2-8.4,4.2c-0.6-7.1,1.3-10.8,1.3-10.8c5.6-1.6,8.7-3.7,8.7-3.7  C40.3,46.2,41.6,52.7,41.6,52.7z M27.3,60.7C48,57.7,48.9,39.2,48.9,39.2c0.4,19.2-22,27.1-22,27.1L27.3,60.7z M26.6,68.1  C52,57.5,50,38.2,50,38.2c3.7,20.7-24,34.4-24,34.4L26.6,68.1z M23.2,81.8l1.8-5.9C57.1,57.8,50.7,37,50.7,37  C60.5,57.9,23.2,81.8,23.2,81.8z M46.2,73.2l1.1,0.1c0,0,1.5,1.1,1.2,3.7c0,0-0.2,0.8-1,1.4C47.5,78.5,47.8,74.3,46.2,73.2z   M43.1,74c0.2-0.2,1-0.6,1-0.6s2.2,0.1,2.6,1.6c0.5,1.5,0.8,2.9-1,4.5C46.9,73.1,43.1,74,43.1,74z M44.1,76.8  c-0.6-0.8-2.4-0.9-3.6-0.6c0,0,0.7-0.9,1.7-1.3c0,0,4.1-1.7,2.9,3.6c0,0-0.8,1.5-1.6,1.4C43.5,79.9,44.8,77.7,44.1,76.8z M40.4,80.1  l1.3-0.3l0.2,1.1l-1.3,0.3l0.4,1.6l1.3-0.3l0.2,1.3l-2.5,0.7l-0.2-2.5l-0.6,0.1L39,84.8l-2-2.3l-0.7,0.4L38,85l-2.9,1.1l-0.5-1.3  l1.3-0.5l-0.3-1.1l-1.3,0.4l-0.5-1.3l1.3-0.5l-0.3-1.1L32,81.6l-0.4-1.5l11.3-3.3l0.3,1.3l-3,1L40.4,80.1z M48,72.2  c0,0-0.6-9.4,4.7-12.5C52.7,59.7,56,67.5,48,72.2z M27.3,92.7c0.2-0.3,1.5-5,1.5-5c11.9,5.4,17.6-3.8,17.6-3.8  C42.5,95.9,27.3,92.7,27.3,92.7z M47.9,81.8c2-1.5,3.5-4.9,3.5-4.9C52.1,91.3,39,93.6,39,93.6C48.9,87.5,47.9,81.8,47.9,81.8z   M59.9,81.3c-4.4,8.1-14.5,11.4-14.5,11.4c8.1-6.2,8.7-16.8,8.7-16.8C55.1,76,59.9,81.3,59.9,81.3z M51.2,72.4  c8.6-11.3-0.6-16.1-0.6-16.1c3.1-4.7,3.2-9.5,3.2-9.5C68.7,59.8,51.2,72.4,51.2,72.4z M61,70.8c-0.7,0.4-5.1,1.5-5.1,1.5  c0.7-0.1,3-1.9,3-1.9S61.7,70.3,61,70.8z M57.8,67.7c9.4-13.7-3.6-22.2-3.6-22.2c1-4.6-2.7-9.3-2.7-9.3  C78.5,49.6,57.8,67.7,57.8,67.7z M63.5,19.9c-0.8,0-1.4-0.6-1.4-1.4c0-0.8,0.6-1.4,1.4-1.4c0.8,0,1.4,0.6,1.4,1.4  C64.9,19.3,64.3,19.9,63.5,19.9z M80.1,64.5l-0.5-1.3l-1.3,0.5c0,0-1.3-4.1-7-3.6c0,0-5.9,1.2-4.5,7.7L66.1,68c0,0-0.9-1-1.6-0.6  c0,0,1.8,1.8,1.2,4.8c0,0,0,0.3,0.2,0.3c0.1,0,0.8-0.8,0.7-2.6c0,0,0.8-0.4,1-0.3c0.2,0.1,2.5,3,5.2,2.8c2.8-0.2,6.3-1.2,5.8-7.4  L80.1,64.5z M75.6,70.2c-3.7,2.3-5-0.7-5-0.7c-0.3-0.6,0-2.7,1.8-2.5c1.7,0.2,1.9,2.5,1.9,2.5s0.8-0.2,1.2-0.7c0.4-0.4-1-2.8-1.7-3  c0,0,0.1-3-1-3.3l-1.2,0.6c0,0,1.7,3-1.3,2.9c-3,0-1.8-3.9,0.3-4.3c2.1-0.5,4.7-0.6,6.2,2.5l-1.1,0.4l0.2,0.7l0.3,0.7l1.3-0.4  C78,68.7,75.6,70.2,75.6,70.2z M50.6,17.1c0.8,0,1.4,0.6,1.4,1.4c0,0.8-0.6,1.4-1.4,1.4c-0.8,0-1.4-0.6-1.4-1.4  C49.1,17.7,49.8,17.1,50.6,17.1z"></path></svg>