<svg xmlns="http://www.w3.org/2000/svg" xmlns:xlink="http://www.w3.org/1999/xlink" version="1.1" x="0px" y="0px" viewBox="0 0 48 48" style="enable-background:new 0 0 48 48;" xml:space="preserve"><g><g><path d="M16,30.5c-3.859,0-7-3.14-7-7s3.141-7,7-7s7,3.14,7,7S19.86,30.5,16,30.5z M16,18.5c-2.757,0-5,2.243-5,5    c0,2.757,2.243,5,5,5s5-2.242,5-5C21,20.744,18.757,18.5,16,18.5z"></path><path d="M16.03,25.5c-1.104,0-2.004-0.896-2.004-2s0.89-2,1.994-2h0.01c1.104,0,2,0.896,2,2S17.135,25.5,16.03,25.5z"></path><path d="M32,30.5c-3.859,0-7-3.14-7-7s3.141-7,7-7s7,3.14,7,7S35.859,30.5,32,30.5z M32,18.5c-2.756,0-5,2.243-5,5    c0,2.757,2.244,5,5,5c2.758,0,5-2.242,5-5C37,20.744,34.758,18.5,32,18.5z"></path><path d="M32.029,25.5c-1.104,0-2.004-0.896-2.004-2s0.891-2,1.994-2h0.01c1.105,0,2,0.896,2,2S33.135,25.5,32.029,25.5z"></path></g><path d="M24,42.5c-13.542,0-21-6.748-21-19c0-2.123,0.355-4.218,0.7-6.244c0.634-3.732,1.231-7.258-0.558-10.242   C3.045,6.854,3,6.676,3,6.501c0-0.34,0.173-0.671,0.485-0.859c0.475-0.285,1.088-0.131,1.371,0.343   C7.378,10.188,14.177,12.5,24,12.5c9.824,0,16.623-2.313,19.142-6.515c0.285-0.474,0.898-0.628,1.373-0.343   C44.828,5.831,45,6.162,45,6.501c0,0.175-0.045,0.352-0.143,0.513c-1.791,2.984-1.191,6.509-0.559,10.242   C44.645,19.283,45,21.377,45,23.5C45,35.752,37.543,42.5,24,42.5z M6.255,10.306c0.249,2.39-0.172,4.863-0.583,7.287   C5.342,19.537,5,21.546,5,23.5c0,7.755,3.296,17,19,17c15.705,0,19-9.244,19-17c0-1.954-0.342-3.964-0.672-5.909   c-0.41-2.423-0.832-4.897-0.582-7.287C37.938,13.036,31.836,14.5,24,14.5C16.165,14.5,10.063,13.036,6.255,10.306z"></path><path d="M24,34.5c-0.553,0-1-0.447-1-1c0-0.543-1.736-1.383-2.572-1.785C19.071,31.06,18,30.543,18,29.5c0-0.551,0.447-1,1-1   c0.445,0,0.822,0.291,0.952,0.693c0.243,0.188,0.897,0.503,1.346,0.721C22.948,30.709,25,31.701,25,33.5   C25,34.053,24.553,34.5,24,34.5z"></path><path d="M24,34.5c-0.553,0-1-0.447-1-1c0-1.799,2.052-2.791,3.703-3.586c0.447-0.217,1.102-0.533,1.346-0.721   C28.178,28.791,28.555,28.5,29,28.5c0.553,0,1,0.449,1,1c0,1.043-1.07,1.56-2.428,2.215C26.736,32.117,25,32.957,25,33.5   C25,34.053,24.553,34.5,24,34.5z"></path><path d="M29.002,30.5c-0.367,0-0.721-0.201-0.896-0.553C27.352,28.438,25.777,27.5,24,27.5c-1.777,0-3.352,0.938-4.105,2.447   c-0.246,0.494-0.848,0.694-1.342,0.447s-0.693-0.848-0.447-1.342C19.202,26.861,21.46,25.5,24,25.5   c2.541,0,4.798,1.361,5.894,3.553c0.248,0.494,0.047,1.096-0.445,1.343C29.305,30.467,29.15,30.5,29.002,30.5z"></path><path d="M5,29.5c-0.256,0-0.512-0.098-0.707-0.293c-0.391-0.391-0.391-1.022,0-1.414C4.848,27.238,6.147,26.5,11,26.5   c0.553,0,1,0.449,1,1c0,0.553-0.447,1-1,1c-4.533,0-5.264,0.678-5.293,0.707C5.512,29.402,5.256,29.5,5,29.5z"></path><path d="M43,29.5c-0.256,0-0.512-0.098-0.707-0.293C42.264,29.178,41.533,28.5,37,28.5c-0.553,0-1-0.447-1-1c0-0.551,0.447-1,1-1   c4.854,0,6.152,0.738,6.707,1.293c0.391,0.392,0.391,1.023,0,1.414C43.512,29.402,43.256,29.5,43,29.5z"></path></g></svg>