<svg xmlns="http://www.w3.org/2000/svg" xmlns:xlink="http://www.w3.org/1999/xlink" version="1.1" x="0px" y="0px" viewBox="0 0 100 100" enable-background="new 0 0 100 100" xml:space="preserve"><path fill-rule="evenodd" clip-rule="evenodd" d="M63.5,46.5c-3.654,0-6.921-1.639-9.121-4.215C53.729,47.509,50.5,51.5,50.5,51.5  s-3.229-3.991-3.878-9.215C44.421,44.861,41.154,46.5,37.5,46.5c-6.627,0-12-5.373-12-12s5.373-12,12-12l0,0c0,0,9.667-0.583,13,2  c0-0.005,0-0.013,0-0.017c2.826-2.161,10.316-2.017,12.217-1.943c0.26-0.017,0.519-0.04,0.783-0.04c6.628,0,12,5.373,12,12  S70.128,46.5,63.5,46.5z M45.429,28.412c-0.004-0.005-0.008-0.011-0.013-0.017c-0.152-0.197-0.312-0.388-0.479-0.573  c-0.026-0.029-0.052-0.058-0.078-0.086c-0.16-0.175-0.326-0.344-0.498-0.507c-0.031-0.029-0.063-0.058-0.096-0.086  c-0.715-0.66-1.528-1.213-2.413-1.643c-0.093-0.045-0.185-0.092-0.278-0.134c-0.162-0.072-0.328-0.137-0.494-0.202  c-0.116-0.044-0.232-0.088-0.351-0.128c-0.161-0.055-0.324-0.106-0.489-0.153c-0.129-0.037-0.26-0.069-0.392-0.101  c-0.162-0.04-0.325-0.079-0.49-0.11c-0.142-0.026-0.285-0.045-0.428-0.065c-0.163-0.023-0.323-0.051-0.488-0.066  c-0.287-0.027-0.578-0.042-0.872-0.044l0,0l0,0c-0.023,0-0.047-0.004-0.07-0.004c-5.526,0-10.006,4.48-10.006,10.007  S31.974,44.506,37.5,44.506c3.791,0,7.088-2.108,8.786-5.215l0,0c0.082-0.15,0.145-0.311,0.219-0.466  c0.017-2.702,0.114-5.082,0.691-6.759C46.858,30.719,46.249,29.48,45.429,28.412z M63.5,24.493c-0.136,0-0.268,0.015-0.402,0.021  c-4.505,0.18-8.235,3.333-9.293,7.552c0.576,1.678,0.675,4.057,0.691,6.758c0.039,0.082,0.069,0.169,0.11,0.25l0,0  c1.662,3.224,5.017,5.433,8.894,5.433c5.526,0,10.007-4.48,10.007-10.006S69.026,24.493,63.5,24.493z M60.5,40.5  c-2.209,0-4-1.791-4-4c0-2.209,1.791-4,4-4s4,1.791,4,4C64.5,38.709,62.709,40.5,60.5,40.5z M40.5,40.5c-2.209,0-4-1.791-4-4  c0-2.209,1.791-4,4-4s4,1.791,4,4C44.5,38.709,42.709,40.5,40.5,40.5z M73.5,13.5v10.992c-2.559-2.442-6.086-3.984-10.001-4.105  L73.5,13.5z M27.5,13.5l10.001,6.887c-3.915,0.121-7.442,1.663-10.001,4.105V13.5z M29.809,46.185  c0.416,0.274,1.306,0.734,1.306,0.734s2.701,1.575,6.386,1.575c1.816,0,3.547-0.357,5.14-0.987c3.645,3.913,3.81,10.795,1.86,15.994  c-1.79,4.773-4.434,9.383-6.683,12.872c6.061,4.873,12.683,8.077,12.683,8.077s6.687-3.234,12.77-8.147  c-2.215-3.474-4.805-8.041-6.563-12.771c-1.977-5.317-1.755-12.4,2.115-16.249c1.736,0.773,3.655,1.211,5.679,1.211  c1.312,0,3.778-0.527,3.778-0.527l2.608-1.059c0,0,0.458-0.213,0.675-0.34c2.925,3.11,4.938,9.528,4.938,16.964  c0,10.477-8.907,18.969-8.907,18.969s-1.422-1.801-3.321-4.655C57.628,83.086,50.5,86.5,50.5,86.5s-7.07-3.386-13.691-8.591  C34.913,80.728,33.5,82.5,33.5,82.5s-9-8.507-9-19C24.5,55.787,26.681,49.162,29.809,46.185z M38.5,82.5c2,0,4,2,4,4c-2-1-2-1-2-1  s-1,1-2,2c-1-1-2-2-2-2s0,0-2,1C34.5,84.5,36.5,82.5,38.5,82.5z M62.5,82.5c2,0,4,2,4,4c-2-1-2-1-2-1s-1,1-2,2c-1-1-2-2-2-2s0,0-2,1  C58.5,84.5,60.5,82.5,62.5,82.5z"></path></svg>