<svg xmlns="http://www.w3.org/2000/svg" xmlns:xlink="http://www.w3.org/1999/xlink" version="1.1" x="0px" y="0px" viewBox="0 0 100 100" enable-background="new 0 0 100 100" xml:space="preserve"><path fill="#000000" d="M97.5,31.1h-9.6c0.4-3.5,0.7-7,0.7-10.5V6.4h-0.7h-0.7c0,4.7-2.5,9.2-6.4,11.6c-1.2,0.7-2.5,1.2-3.9,1.6  c-2.4-1.1-5.1-1.7-8-1.7c-2.8,0-5.5,0.6-7.9,1.7l-0.5-0.1c-3.4-0.5-7-0.9-10.5-1c-3.5,0.1-7.1,0.6-10.5,1L39,19.6  c-2.4-1.1-5.1-1.7-7.9-1.7c-2.8,0-5.5,0.6-8,1.7c-1.4-0.4-2.7-0.9-3.9-1.6c-3.9-2.4-6.4-6.9-6.4-11.6h-0.7h-0.7v14.3  c0,3.5,0.3,7,0.7,10.5H2.5v0.7c0,3.1,0.3,6.1,0.8,9.1h0l0.1,0.8l0.1,0.6h0c0.6,2.9,1.4,5.7,2.4,8.4H5.8l0.4,0.9c0,0,0,0,0,0L6.4,52  h0c1.2,2.9,2.7,5.7,4.4,8.4h-0.1l0.7,1.1l0.2,0.3h0c6.5,9.5,14.2,16.5,21.1,21.3v5.4c0,0.9,0.4,1.6,1,2.1h-0.1l1.9,3.2l1.9-3.2h-0.1  c0.1-0.1,0.2-0.2,0.3-0.3c0.1,0.1,0.2,0.2,0.3,0.3h-0.1l1.9,3.2l1.9-3.2h-0.1c0.1-0.1,0.2-0.2,0.3-0.3c0.1,0.1,0.2,0.2,0.3,0.3H42  l1.9,3.2l1.9-3.2h-0.1c0,0,0.1,0,0.1-0.1c2.4,1,3.9,1.5,4.3,1.5c0,0,0,0,0,0s0,0,0,0c0,0,0,0,0,0c0.3,0,1.9-0.5,4.3-1.5  c0,0,0.1,0.1,0.1,0.1h-0.1l1.9,3.2l1.9-3.2h-0.1c0.1-0.1,0.2-0.2,0.3-0.3c0.1,0.1,0.2,0.2,0.3,0.3h-0.1l1.9,3.2l1.9-3.2h-0.1  c0.1-0.1,0.2-0.2,0.3-0.3c0.1,0.1,0.2,0.2,0.3,0.3h-0.1l1.9,3.2l1.9-3.2h-0.1c0.6-0.5,1-1.2,1-2.1V83c6.8-4.8,14.6-11.7,21.1-21.2h0  l0.2-0.3l0.7-1.1h-0.1c1.7-2.7,3.2-5.5,4.4-8.4h0l0.2-0.4c0,0,0,0,0,0l0.4-0.9h-0.1c1-2.7,1.8-5.5,2.4-8.4h0l0.1-0.6l0.1-0.8h0  c0.5-3,0.8-6,0.8-9.1V31.1z M66,88.4c0,0.8-0.6,1.4-1.4,1.4c-0.8,0-1.4-0.6-1.4-1.4v-2.7V85v-0.8v-1.4c0-0.8,0.6-1.4,1.4-1.4  c0.6,0,1.2,0.4,1.3,1c0,0.1,0.1,0.3,0.1,0.4v0.3v0.8V88.4z M61.8,88.4c0,0.8-0.6,1.4-1.4,1.4c-0.8,0-1.4-0.6-1.4-1.4v-0.3v-0.8v-0.8  v-1.2v-1v-0.9v-0.8c0-0.8,0.6-1.4,1.4-1.4c0.2,0,0.5,0.1,0.7,0.2c0.2,0.1,0.3,0.3,0.5,0.4c0.2,0.2,0.3,0.5,0.3,0.7c0,0,0,0,0,0.1V85  v0.8v0.8V88.4z M55.1,89.3c-0.1-0.1-0.2-0.3-0.3-0.4c0-0.1,0-0.1,0-0.2c0-0.1-0.1-0.2-0.1-0.3V88v-0.8v-4.4c0-0.8,0.6-1.4,1.4-1.4  c0.8,0,1.4,0.6,1.4,1.4v2v0.9v0.9v0.7v0.8v0.3c0,0.2,0,0.3-0.1,0.5c-0.2,0.5-0.7,0.9-1.3,0.9c-0.1,0-0.3,0-0.4-0.1  C55.5,89.6,55.3,89.5,55.1,89.3z M44.3,89.7c-0.1,0-0.3,0.1-0.4,0.1c-0.6,0-1.1-0.4-1.3-0.9c-0.1-0.2-0.1-0.3-0.1-0.5v-0.3v-0.8  v-0.7v-0.9v-0.9v-2c0-0.8,0.6-1.4,1.4-1.4c0.8,0,1.4,0.6,1.4,1.4v4.4V88v0.4c0,0.1,0,0.2-0.1,0.3c0,0.1,0,0.1,0,0.2  c-0.1,0.2-0.1,0.3-0.3,0.4C44.7,89.5,44.5,89.6,44.3,89.7z M41.1,88.4c0,0.8-0.6,1.4-1.4,1.4c-0.8,0-1.4-0.6-1.4-1.4v-1.9v-0.8V85  v-2.2c0,0,0,0,0-0.1c0-0.3,0.1-0.5,0.3-0.7c0.1-0.2,0.3-0.3,0.5-0.4c0.2-0.1,0.4-0.2,0.7-0.2c0.8,0,1.4,0.6,1.4,1.4v0.8v0.9v1v1.2  v0.8v0.8V88.4z M36.9,88.4c0,0.8-0.6,1.4-1.4,1.4S34,89.2,34,88.4v-4.5v-0.8v-0.3c0-0.2,0-0.3,0.1-0.4c0.2-0.6,0.7-1,1.3-1  c0.8,0,1.4,0.6,1.4,1.4v1.4V85v0.7V88.4z M12.2,32.5c-0.4,1.6-0.7,3.2-0.7,5c0,1.2,0.1,2.3,0.3,3.4H4.6c-0.5-2.7-0.7-5.6-0.7-8.4  H12.2z M13.3,29.4c-0.3-2.9-0.5-5.9-0.5-8.8v-8.1c1.2,2.7,3.2,5.1,5.8,6.6c0.9,0.5,1.8,1,2.8,1.3c-0.1,0.1-0.2,0.2-0.4,0.2  c-0.6,0.3-1.1,0.7-1.6,1.1c-0.2,0.1-0.4,0.3-0.5,0.4c-0.6,0.5-1.2,1-1.8,1.6C17,23.9,17,23.9,16.9,24c-0.1,0.1-0.1,0.2-0.2,0.3  c-0.7,0.7-1.3,1.5-1.8,2.3c0,0,0,0.1-0.1,0.1c-0.5,0.8-1,1.7-1.4,2.5C13.4,29.2,13.3,29.3,13.3,29.4z M41.2,20.6  c2.9-0.4,5.9-0.7,8.8-0.8c3,0.1,5.9,0.4,8.9,0.8c-0.2,0.1-0.3,0.2-0.5,0.3c-0.2,0.2-0.5,0.3-0.7,0.5c-0.3,0.2-0.6,0.4-0.8,0.6  c-0.2,0.2-0.5,0.4-0.7,0.5c-0.2,0.2-0.5,0.4-0.7,0.7c-0.2,0.2-0.4,0.4-0.7,0.7c-0.2,0.2-0.4,0.4-0.6,0.7c-0.2,0.3-0.5,0.5-0.7,0.8  c-0.2,0.2-0.3,0.4-0.5,0.6c-0.2,0.3-0.5,0.6-0.7,1c-0.1,0.2-0.2,0.4-0.3,0.5c-0.2,0.4-0.4,0.7-0.6,1.1c-0.1,0.2-0.2,0.3-0.2,0.5  c-0.2,0.4-0.4,0.8-0.5,1.2c-0.1,0.2-0.1,0.4-0.2,0.5c0,0.1,0,0.2-0.1,0.2c-0.1,0.2-0.1,0.4-0.2,0.7c0,0.1-0.1,0.2-0.1,0.3  c0,0.1-0.1,0.2-0.1,0.2c0-0.1-0.1-0.2-0.1-0.3c0-0.1-0.1-0.2-0.1-0.3c-0.1-0.2-0.1-0.5-0.2-0.7c0-0.1,0-0.1-0.1-0.2  c-0.1-0.2-0.1-0.4-0.2-0.6c-0.2-0.4-0.3-0.8-0.5-1.2c-0.1-0.2-0.2-0.4-0.3-0.5c-0.2-0.4-0.4-0.7-0.6-1.1c-0.1-0.2-0.2-0.4-0.3-0.6  c-0.2-0.3-0.4-0.7-0.7-1c-0.1-0.2-0.3-0.4-0.5-0.6c-0.2-0.3-0.4-0.5-0.7-0.8c-0.2-0.2-0.4-0.4-0.6-0.6c-0.2-0.2-0.4-0.5-0.7-0.7  c-0.2-0.2-0.5-0.4-0.7-0.6c-0.2-0.2-0.5-0.4-0.7-0.6c-0.3-0.2-0.5-0.4-0.8-0.6c-0.2-0.2-0.5-0.3-0.7-0.5  C41.5,20.8,41.3,20.7,41.2,20.6z M78.6,20.4c1-0.4,2-0.8,2.8-1.3c2.5-1.5,4.5-3.9,5.8-6.6v8.1c0,2.9-0.2,5.9-0.5,8.8  c0-0.1-0.1-0.1-0.1-0.2c-0.4-0.9-0.9-1.8-1.4-2.6c0,0,0-0.1,0-0.1c-0.5-0.8-1.2-1.6-1.8-2.3c-0.1-0.1-0.1-0.2-0.2-0.3  c-0.1-0.1-0.1-0.1-0.2-0.2c-0.6-0.6-1.1-1.1-1.8-1.6c-0.2-0.1-0.4-0.3-0.6-0.4c-0.5-0.4-1.1-0.8-1.6-1.1  C78.9,20.6,78.7,20.5,78.6,20.4z M46.6,88.3v-5.5c0-1.5-1.2-2.8-2.8-2.8c-0.9,0-1.6,0.4-2.1,1c-0.5-0.6-1.2-1-2.1-1  c-0.6,0-1.2,0.2-1.6,0.6c-4.6-4.7-9.8-11-14.3-18.9c-0.1-0.2-0.2-0.5-0.4-0.7c-0.1-0.2-0.2-0.5-0.4-0.7c-1.2-2.3-2.4-4.6-3.5-7.1  c0.1,0.1,0.2,0.1,0.3,0.2c0.7,0.5,1.4,0.9,2.1,1.3c0.2,0.1,0.4,0.2,0.6,0.3c0.6,0.3,1.3,0.6,2,0.8c0.2,0.1,0.4,0.1,0.6,0.2  c0.8,0.3,1.7,0.5,2.5,0.6c0.2,0,0.4,0.1,0.7,0.1c0.9,0.1,1.8,0.2,2.8,0.2c1,0,2-0.1,2.9-0.2c0.2,0,0.4-0.1,0.7-0.1  c0.9-0.2,1.7-0.4,2.5-0.6c0.3-0.1,0.6-0.2,0.9-0.3c0.6-0.2,1.1-0.5,1.7-0.7c0.5-0.2,1-0.5,1.5-0.8c0.4-0.2,0.8-0.5,1.2-0.8  c0.4-0.3,0.8-0.5,1.1-0.8c0.2-0.2,0.4-0.4,0.7-0.6c0.1,0,0.1-0.1,0.2-0.1l0,0l0.1,0.1l4.2,8.4l0.3,0.7l0.3,0.7l0.8,1.6l0.8-1.6  l0.3-0.7l0.3-0.7l4.2-8.4l0.1-0.1l0,0c0.1,0,0.1,0.1,0.2,0.1c0.2,0.2,0.4,0.4,0.7,0.6c0.4,0.3,0.7,0.6,1.1,0.8  c0.4,0.3,0.8,0.5,1.2,0.8c0.5,0.3,1,0.5,1.5,0.8c0.5,0.3,1.1,0.5,1.7,0.7c0.3,0.1,0.6,0.2,0.9,0.3c0.8,0.3,1.7,0.5,2.5,0.6  c0.2,0,0.4,0.1,0.7,0.1c1,0.1,1.9,0.2,2.9,0.2c0.9,0,1.9-0.1,2.8-0.2c0.2,0,0.4-0.1,0.7-0.1c0.9-0.2,1.7-0.4,2.5-0.6  c0.2-0.1,0.4-0.1,0.6-0.2c0.7-0.2,1.3-0.5,2-0.8c0.2-0.1,0.4-0.2,0.6-0.3c0.7-0.4,1.4-0.8,2.1-1.3c0.1-0.1,0.2-0.1,0.3-0.2  c-1.1,2.5-2.3,4.9-3.5,7.1c-0.1,0.2-0.2,0.5-0.4,0.7c-0.1,0.2-0.2,0.5-0.4,0.7c-4.5,7.9-9.7,14.2-14.3,18.9c-0.5-0.3-1-0.6-1.6-0.6  c-0.9,0-1.6,0.4-2.1,1c-0.5-0.6-1.2-1-2.1-1c-1.5,0-2.8,1.2-2.8,2.8v5.5c-1.7,1.3-2.9,2.1-3.4,2.3C49.5,90.3,48.3,89.5,46.6,88.3z   M48.4,43.1l0.7-0.2l0.1,0l0.7-0.2l0,0l0.1,0l0.1,0l0,0l0.7,0.2l0.1,0l0.7,0.2l0.1,0l6.2,1.4l-2.5,5l0,0L55,50.2l0,0l-0.2,0.4  l-0.1,0.2l0,0l-0.2,0.4L54.1,52L50,60.2L45.9,52l-0.3-0.7l-0.2-0.4l0,0l-0.1-0.2L45,50.2l0,0l-0.3-0.6l0,0l-2.5-5L48.4,43.1  L48.4,43.1z M50,37.4C50,37.4,50,37.4,50,37.4C50,37.4,50,37.4,50,37.4C50,37.4,50,37.4,50,37.4C50,37.4,50,37.4,50,37.4  C50,37.4,50,37.4,50,37.4C50,37.4,50,37.4,50,37.4C50,37.5,50,37.4,50,37.4C50,37.4,50,37.4,50,37.4z M76.8,21  c0.9,0.4,1.7,0.9,2.5,1.5c0.1,0.1,0.3,0.2,0.4,0.3c0.8,0.6,1.5,1.2,2.2,1.9c0.2,0.2,0.3,0.3,0.5,0.5c0.3,0.3,0.6,0.6,0.8,1  c0.2,0.2,0.3,0.4,0.4,0.6c0.3,0.4,0.5,0.8,0.8,1.2c0.1,0.2,0.2,0.3,0.3,0.5c0.5,0.8,0.8,1.7,1.2,2.6c0.1,0.2,0.2,0.4,0.2,0.7  c0.1,0.2,0.1,0.3,0.2,0.5c0,0.1,0,0.1,0,0.2c0.4,1.6,0.7,3.2,0.7,5c0,1.2-0.1,2.3-0.3,3.4c0,0.2-0.1,0.4-0.1,0.7  c-0.1,0.2-0.1,0.5-0.2,0.7c-0.9,3.3-2.6,6.1-5,8.4c-0.2,0.2-0.5,0.5-0.7,0.7c0,0-0.1,0.1-0.1,0.1c0,0-0.1,0.1-0.1,0.1  c-0.2,0.2-0.4,0.3-0.6,0.5c-1.2,0.9-2.5,1.7-3.9,2.3c0,0,0,0,0,0c-0.5,0.2-1,0.4-1.6,0.6c0,0-0.1,0-0.1,0c-0.5,0.1-1,0.3-1.5,0.4  c-0.1,0-0.2,0.1-0.3,0.1c-0.5,0.1-0.9,0.2-1.4,0.2c-0.1,0-0.3,0-0.4,0.1c-0.6,0.1-1.2,0.1-1.8,0.1c-0.9,0-1.9-0.1-2.8-0.2  c-0.2,0-0.4-0.1-0.6-0.1c-0.8-0.2-1.6-0.4-2.4-0.6c-0.3-0.1-0.6-0.2-0.8-0.3c-0.6-0.2-1.2-0.5-1.8-0.8c-0.4-0.2-0.8-0.4-1.2-0.7  c-0.4-0.2-0.7-0.5-1.1-0.7C58.1,52.1,58,52,57.9,52c-0.3-0.2-0.6-0.4-0.9-0.7c-0.1-0.1-0.1-0.1-0.2-0.2c-0.2-0.2-0.3-0.3-0.5-0.5  c0,0,0,0-0.1,0l3.2-6.4c2.1,2.9,5.5,4.9,9.4,4.9c4.7,0,8.7-2.8,10.5-6.8c0.1-0.2,0.2-0.4,0.3-0.7c0.1-0.2,0.1-0.4,0.2-0.7  c0.3-1.1,0.6-2.2,0.6-3.4c0-1.8-0.4-3.5-1.2-5c-0.1-0.2-0.2-0.5-0.4-0.7c-0.1-0.2-0.2-0.5-0.4-0.7c-2.1-3.1-5.6-5.2-9.6-5.2  s-7.6,2.1-9.6,5.2c-0.1,0.2-0.2,0.5-0.4,0.7c-0.1,0.2-0.3,0.4-0.4,0.7c-0.7,1.5-1.2,3.2-1.2,5c0,1.2,0.2,2.3,0.6,3.4  c0.1,0.2,0.1,0.5,0.2,0.7c0.1,0.2,0.2,0.5,0.3,0.7c0.2,0.4,0.4,0.8,0.7,1.2l-5.3-1.2l-2.6-0.6c0,0,0-0.1,0-0.1  c-0.1-0.2-0.1-0.4-0.1-0.7c-0.2-1.1-0.3-2.3-0.3-3.4c0,0,0,0,0,0c0,0,0,0,0,0c0,0,0,0,0,0h0c0-0.8,0.1-1.6,0.2-2.4  c0-0.2,0.1-0.3,0.1-0.5c0.1-0.7,0.3-1.4,0.5-2c0-0.1,0-0.1,0-0.2c0,0,0-0.1,0-0.1c0-0.1,0.1-0.3,0.2-0.4c0.1-0.2,0.2-0.4,0.3-0.7  c0.1-0.4,0.3-0.8,0.4-1.2c0-0.1,0.1-0.2,0.1-0.3c0.3-0.7,0.7-1.3,1.1-1.9c0-0.1,0.1-0.1,0.1-0.2c0.4-0.7,0.9-1.3,1.4-1.9  c0.1-0.1,0.2-0.2,0.3-0.3c0.4-0.5,0.9-0.9,1.4-1.4c0.1-0.1,0.3-0.2,0.4-0.4c0.6-0.5,1.2-0.9,1.8-1.4c0.1-0.1,0.3-0.2,0.4-0.3  c0.6-0.3,1.1-0.7,1.7-0.9c2.4-1.1,5-1.8,7.9-1.8C71.7,19.2,74.4,19.9,76.8,21z M59.6,41.5c-0.1-0.2-0.2-0.4-0.2-0.7  c-0.4-1.1-0.6-2.2-0.6-3.4c0-1.8,0.5-3.5,1.4-5c0.1-0.2,0.2-0.5,0.4-0.7c0.2-0.2,0.4-0.4,0.5-0.7c1.9-2.3,4.7-3.9,7.9-3.9  c3.2,0,6.1,1.5,7.9,3.9c0.2,0.2,0.4,0.4,0.5,0.7c0.1,0.2,0.2,0.5,0.4,0.7c0.8,1.5,1.4,3.2,1.4,5c0,1.2-0.2,2.3-0.6,3.4  c-0.1,0.2-0.1,0.5-0.2,0.7c-0.1,0.2-0.2,0.4-0.4,0.7c-1.7,3.2-5.1,5.4-9,5.4s-7.2-2.2-9-5.4C59.8,42,59.7,41.8,59.6,41.5z M39,21  c0.6,0.3,1.2,0.6,1.7,0.9c0.1,0.1,0.3,0.2,0.4,0.3c0.6,0.4,1.2,0.9,1.8,1.4c0.1,0.1,0.3,0.2,0.4,0.4c0.5,0.4,0.9,0.9,1.4,1.4  c0.1,0.1,0.2,0.2,0.3,0.3c0.5,0.6,1,1.2,1.4,1.9c0,0.1,0.1,0.2,0.1,0.2c0.4,0.6,0.7,1.3,1.1,1.9c0,0.1,0.1,0.2,0.1,0.3  c0.2,0.4,0.3,0.8,0.4,1.2c0.1,0.2,0.2,0.4,0.3,0.7c0,0.1,0.1,0.3,0.2,0.4c0,0,0,0.1,0,0.1c0,0,0,0.1,0,0.1c0.2,0.7,0.3,1.3,0.5,2  c0,0.2,0.1,0.4,0.1,0.5c0.1,0.8,0.2,1.5,0.2,2.3c0,0,0,0,0,0.1c0,0,0,0,0,0c0,0,0,0,0,0c0,1.2-0.1,2.3-0.3,3.4  c0,0.2-0.1,0.4-0.1,0.7c0,0,0,0.1,0,0.1l-2.6,0.6l-5.4,1.2c0.2-0.4,0.5-0.8,0.7-1.2c0.1-0.2,0.2-0.4,0.3-0.7  c0.1-0.2,0.1-0.4,0.2-0.7c0.3-1.1,0.6-2.2,0.6-3.5c0-1.8-0.4-3.4-1.2-4.9c-0.1-0.2-0.2-0.5-0.4-0.7c-0.1-0.2-0.2-0.5-0.4-0.7  c-2.1-3.1-5.6-5.2-9.6-5.2c-4,0-7.6,2.1-9.6,5.2c-0.1,0.2-0.2,0.5-0.4,0.7c-0.1,0.2-0.3,0.4-0.4,0.7c-0.7,1.5-1.2,3.2-1.2,4.9  c0,1.2,0.2,2.4,0.6,3.5c0.1,0.2,0.1,0.5,0.2,0.7c0.1,0.2,0.2,0.5,0.3,0.7c1.8,3.9,5.8,6.7,10.4,6.7c3.9,0,7.3-1.9,9.3-4.8l3.2,6.5  c0,0,0,0-0.1,0c-0.2,0.1-0.3,0.3-0.5,0.4c-0.1,0.1-0.2,0.2-0.3,0.2c-0.3,0.2-0.6,0.5-0.9,0.7c-0.1,0.1-0.2,0.2-0.3,0.2  c-0.4,0.3-0.7,0.5-1.1,0.7c-0.4,0.2-0.8,0.5-1.2,0.7c-0.6,0.3-1.2,0.6-1.8,0.8c-0.3,0.1-0.6,0.2-0.8,0.3c-0.8,0.3-1.6,0.5-2.4,0.6  c-0.2,0-0.4,0.1-0.6,0.1c-0.9,0.1-1.8,0.2-2.8,0.2c-0.6,0-1.2,0-1.8-0.1c-0.1,0-0.3,0-0.4-0.1c-0.5-0.1-0.9-0.1-1.4-0.2  c-0.1,0-0.2-0.1-0.3-0.1c-0.5-0.1-1-0.2-1.4-0.4c-0.1,0-0.1,0-0.2-0.1c-0.5-0.2-1-0.3-1.5-0.6c0,0,0,0,0,0c-0.5-0.2-1-0.5-1.5-0.7  c0,0,0,0,0,0c-0.5-0.3-1-0.6-1.5-0.9c0,0,0,0,0,0c-0.3-0.2-0.5-0.4-0.8-0.6c-0.2-0.2-0.4-0.3-0.6-0.5c0,0,0,0,0,0  c-0.1-0.1-0.1-0.1-0.2-0.2c-0.3-0.2-0.5-0.4-0.7-0.7c-2.4-2.3-4.1-5.1-5-8.4c-0.1-0.2-0.1-0.4-0.2-0.7c-0.1-0.2-0.1-0.4-0.1-0.7  c-0.2-1.1-0.3-2.3-0.3-3.4c0-1.7,0.3-3.4,0.7-5c0-0.1,0-0.1,0.1-0.2c0-0.2,0.1-0.3,0.2-0.5c0.1-0.2,0.2-0.5,0.2-0.7  c0.1-0.2,0.1-0.5,0.2-0.7c0,0,0,0,0-0.1c0.3-0.6,0.6-1.2,0.9-1.8c0.1-0.2,0.2-0.3,0.3-0.5c0.2-0.4,0.5-0.8,0.8-1.2  c0.1-0.2,0.3-0.4,0.5-0.6c0.3-0.3,0.5-0.7,0.8-1c0.2-0.2,0.3-0.3,0.5-0.5c0.7-0.7,1.4-1.4,2.2-1.9c0.1-0.1,0.3-0.2,0.4-0.3  c0.8-0.6,1.7-1.1,2.5-1.5c2.4-1.2,5.1-1.8,7.9-1.8C33.9,19.2,36.6,19.9,39,21z M40,42.2c-1.7,3.2-5,5.3-8.9,5.3s-7.2-2.2-8.9-5.3  c-0.1-0.2-0.3-0.4-0.4-0.7c-0.1-0.2-0.2-0.4-0.3-0.7c-0.4-1.1-0.6-2.2-0.6-3.5c0-1.8,0.5-3.5,1.3-4.9c0.1-0.2,0.2-0.5,0.4-0.7  c0.2-0.2,0.4-0.4,0.5-0.7c1.9-2.3,4.7-3.9,7.9-3.9s6,1.5,7.9,3.9c0.2,0.2,0.4,0.4,0.5,0.7c0.1,0.2,0.2,0.5,0.4,0.7  c0.8,1.5,1.3,3.1,1.3,4.9c0,1.2-0.3,2.4-0.6,3.5c-0.1,0.2-0.2,0.5-0.3,0.7C40.3,41.8,40.1,42,40,42.2z M12.2,42.2  c0.8,3.2,2.4,6,4.5,8.4H7.3c-1-2.7-1.9-5.5-2.4-8.4H12.2z M17.6,52c1.2,2.9,2.5,5.8,3.9,8.4h-9.1C10.6,57.7,9,54.8,7.8,52H17.6z   M22.3,61.7c4.2,7.4,9,13.6,13.4,18.4c-0.1,0-0.1,0-0.2,0c-1.1,0-2,0.6-2.5,1.5c-6.3-4.5-13.5-10.9-19.8-19.9H22.3z M67,81.6  c-0.5-0.9-1.4-1.5-2.5-1.5c-0.1,0-0.1,0-0.2,0c4.5-4.8,9.3-10.9,13.4-18.4h9C80.5,70.7,73.3,77.1,67,81.6z M78.5,60.4  c1.4-2.6,2.7-5.5,3.9-8.4h9.7c-1.2,2.9-2.7,5.7-4.5,8.4H78.5z M83.3,50.6c2.1-2.3,3.7-5.2,4.5-8.4h7.3c-0.6,2.9-1.4,5.7-2.4,8.4  H83.3z M88.1,40.9c0.2-1.1,0.3-2.3,0.3-3.4c0-1.7-0.2-3.4-0.7-5h8.3c0,2.8-0.3,5.7-0.7,8.4H88.1z M35.1,37.4c0,1.5-0.8,2.8-2,3.5  c-0.6,0.4-1.3,0.6-2,0.6s-1.4-0.2-2-0.6c-1.2-0.7-2-2-2-3.5c0-2.2,1.8-4,4-4S35.1,35.2,35.1,37.4z M64.9,37.5c0-2.2,1.8-4,4-4  s4,1.8,4,4c0,1.4-0.8,2.7-1.9,3.4c-0.6,0.4-1.4,0.6-2.1,0.6c-0.8,0-1.5-0.2-2.1-0.6C65.6,40.2,64.9,38.9,64.9,37.5z M52.4,47.9  C52.4,47.9,52.4,47.9,52.4,47.9c0-0.3,0.2-0.5,0.4-0.7c0,0,0,0,0,0c0.1-0.1,0.2-0.1,0.4-0.1c0.2,0,0.3,0.1,0.4,0.2c0,0,0,0,0.1,0  c0.1,0.1,0.2,0.2,0.2,0.3c0,0,0,0,0,0c0,0.1,0.1,0.1,0.1,0.2c0,0.2-0.1,0.4-0.3,0.6c0,0,0,0,0,0c-0.1,0.1-0.3,0.2-0.4,0.2  c-0.2,0-0.3-0.1-0.4-0.2c0,0,0,0,0,0C52.6,48.3,52.5,48.1,52.4,47.9C52.4,47.9,52.4,47.9,52.4,47.9z M46.4,48.4  c-0.2-0.1-0.3-0.3-0.3-0.6c0-0.1,0.1-0.1,0.1-0.2c0,0,0,0,0,0c0.1-0.1,0.1-0.2,0.2-0.3c0,0,0,0,0.1,0c0.1-0.1,0.2-0.2,0.4-0.2  c0.1,0,0.2,0.1,0.4,0.1c0,0,0,0,0,0c0.2,0.1,0.4,0.3,0.4,0.6c0,0,0,0,0,0c0,0,0,0,0,0c-0.1,0.2-0.2,0.4-0.3,0.5c0,0,0,0,0,0  c-0.1,0.1-0.2,0.2-0.4,0.2C46.7,48.6,46.6,48.5,46.4,48.4C46.4,48.4,46.4,48.4,46.4,48.4z"></path></svg>