<svg xmlns="http://www.w3.org/2000/svg" xmlns:xlink="http://www.w3.org/1999/xlink" version="1.1" x="0px" y="0px" viewBox="0 0 100 100" enable-background="new 0 0 100 100" xml:space="preserve"><g><path fill="#000000" d="M23,21.1c4.8,3,3.4,3.1,3.4,3.1c-3.7-1.2-5,0.5-5.5,1c-0.4,0.5-2.3,0.5-2.3,0.5c1.1,0.1,2.1,0.9,2.1,0.9   c1.3,4.6,5.1,3.2,6.1,2.9c1-0.3,3.2,0.7,3.2,0.7c-0.4-0.7-0.5-2.4-1.1-4.5C28.3,23.6,23,21,23,21.1z M24.1,29   c-0.8-0.1-2.1-0.5-2.5-2.3c0,0-0.4-1.1,1-2c1.3-0.8,4.7-0.1,5,1.8C28.1,28.8,24.9,29,24.1,29z"></path><circle fill="#000000" cx="24.6" cy="26.2" r="1.7"></circle><path fill="#000000" d="M43.2,18.9c0,0-1.8,0.7-2.3,0.4c-0.6-0.3-2.4-1.4-5.4,1.2c0,0-1.3,0.5,2-4.1c0,0-3.9,4.4-3.7,6.5   c0.2,2.1,2,4.2,1.9,5c0,0,0.4-2.2,1.5-2.3c1.1-0.1,5.1-0.2,4.6-5C41.6,20.5,42.2,19.4,43.2,18.9z M39.4,24.1   c-0.7,0.4-3.7,1.3-4.2-1c-0.4-1.8,2.5-3.7,4-3.5c1.6,0.2,1.7,1.4,1.7,1.4C41.1,22.8,40.1,23.7,39.4,24.1z"></path><circle fill="#000000" cx="37.8" cy="21.7" r="1.7"></circle><path fill="#000000" d="M34.5,31.9c0,0,0.2-1.3-0.4-2.2l-0.5,0.8c0,0-0.7-0.9-1.2-1.9c0.1,1.1,0,2.3,0,2.3l-0.7-0.3   c0,0.2-0.1,0.3-0.1,0.5c0,0,0,0,0,0c0.7,0.6,2.5,2.3,3.4,3.9c0-0.9,0-2.2-0.2-3.3C34.7,31.7,34.6,31.8,34.5,31.9z"></path><path fill="#000000" d="M59.7,57.1c1.8-1.3,5.4-3.4,7.4-4.7c0.3-0.2,3.9-1.6,3.9-1.6s0.9-2.6,2.8-3.4s4-4.4,5.8-5.3   c1.8-0.9,4.8-1.9,4.8-1.9s-3.2,0-4.7,0.8c-1.5,0.8-4.7,4.5-4.7,4.5c-2,0.9-4.4,3.2-5.4,4.6c-0.4,0.5-0.8,0.8-1.2,1.1   c-1.4-2.3-8.9-15-13-18.2c-4.5-3.6-5.9-3.3-6.6-9.5c-0.7-6.2-1.1-9.6-8.5-14.1c0,0-5.1-3.4-12.6-1.3c0,0,1.6-1.8,0-2.9   c0,0,0.4,2.5-2.7,3.8C22,10,17,10.5,12.6,18.8c0,0-0.7,0.9-1.3,1.2L12,20c0,0-1.7,5.5,1.6,13.6l1.4,2.5c0,0-0.3,19.2,12.6,24.8   c0,0-6.1-5.6-7.2-11.6c0,0,9.4,17.2,17,19.4c-1.2,1.1-2.9,2.8-3.1,3.5c-0.3,1.1-0.8,2.5-2.1,3.9c-1.3,1.3-1.1,3.5-2.2,5.7   c-1.1,2.2-1.5,3.6-1.5,3.6c-1.5,1.4-0.6,7.9-0.6,7.9c-0.1-5.5,1-4.6,1.5-7.5c0.5-2.9,4.2-7.9,4.3-9.2c0.1-1.2,2.1-3.8,2.5-5.4   c0.4-1.6,3.5-3.2,3.8-3.3l-1.2-0.3c0,0-0.8-1,0-1.8c0,0,0.1-3.2,3.6-2.4c0,0,0.2-0.3,0.6-0.6c-1.5-2.2-1.6-3.4-1.4-4   c0.2-0.7-2-2.3-2-2.3l0.5,5.7l-2.8-2.4l-0.1-2.7l1,1.9c0.5,0.1,0.6-1.7,0.6-1.7c-0.2-0.8-1.5-2.3-1.5-2.3l0.7,1.9   c-0.4-0.7-2.7-3.1-2.4-3.2c0.3-0.1,0.1-4.7,0.1-4.7s0.2,3.1,0.7,3.9c0.5,0.8,0.4-1.1,0.4-1.1l1.9,4v-1.1l3.1,3l-0.7-2.2   c-0.7-2.2-3.6-4.8-3.6-4.8l1.2,0.3c-0.6-0.7-1.2-2-1.2-2l1.2,0.8c-1.1-3.5-2-3.6-2-3.6v1.4L35,45.8c0,0.5-0.6,1.4-0.6,1.4   c0.3-1-0.5-4.8-0.5-4.8s1.2,2.2,1.6,2.6c0.4,0.4,0.6-1.7,0.6-1.7c0.5,1.9,3.4,3.5,3.4,3.5v-0.7l-1.3-2.2l2.3,2.5l-1-1.4l4.2,4   c-2.1-1.5-3.7-2.3-3.7-2.3c0.3,0.5,0.8,1.3,1.1,1.6c0.1,0.1,0.2,0.1,0.2,0.1c0,0-0.1-0.1-0.2-0.1c-0.6-0.4-2.2-1.3-2.2-1.3   s-0.7-1.6,0.5,1.4c1.2,3,4.1,6,4.1,6s0.1-1.2,0.3-1.2c0.2,0,1.3,2.4,1.6,3.1c0.2,0.5-0.1,4.6-0.3,6.2c0.6,0.1,1.2,0.3,2,0.7   c0,0,0.8,0.8,1.2,1.4c0,0,6.7-3.3,7.4-3.9C56.4,60.2,57.1,58.9,59.7,57.1z M60.1,47.9C60,48.3,59.4,48,59,48.6   c-0.4,0.6-0.9-0.1-1.6-0.5c-0.7-0.4-0.8-1.6-0.3-1.8c0.4-0.2,0.6-1.9,0.6-1.9C59.5,46.1,60.2,47.5,60.1,47.9z M55.3,34.3   c2,0.9,3.1,3.8,1.9,4.1C56.1,38.7,54.9,34.1,55.3,34.3z M55.2,40.2c0.5-0.5,1.3,1,1.7,1.7c0.4,0.7-0.1,1.4-1,0.7   C55,41.9,55.2,40.2,55.2,40.2z M51,33.4c0,0,2.2,2.8,0.9,3.6c-1.3,0.7-4.7-4.8-3.7-5.3C49.2,31.1,51,33.4,51,33.4z M51.1,45.7   c-0.9,0.5-1.8-1.3-2.1-1.9c-0.3-0.6,0.7-0.8,0.7-0.8C51,43.8,52,45.2,51.1,45.7z M31.1,15.7c0,0,0.7,1.2,0.5,2   c-0.2,0.8-0.7,0.4-0.8-0.3C30.8,16.8,30.7,15.4,31.1,15.7z M29.9,15.2c0,0,0.7,1.2,0.5,2c-0.2,0.8-0.7,0.4-0.8-0.3   C29.6,16.3,29.4,15,29.9,15.2z M36.1,29.6c0,0-0.2,0.8-0.7,1.5c0.5,2.3,0.2,5,0.2,5.2c0,0.1-0.1,0.3-0.3,0.3c0,0,0,0,0,0   c-0.1,0-0.3-0.1-0.3-0.2c-0.3-1.1-1.6-2.6-2.7-3.7c-1.3,0-2.5-1.1-2.5-1.1s-8.4,11.6-14.1,0c-5.7-11.6,2.2-14.6,3.9-14.6   c1.5,0,3.1,0.6,4.7,1.4C24,17.6,23.9,17,23.9,17c0.2-0.5,0.9,0.7,1.3,1.2c0.1,0.2,0.2,0.4,0.2,0.6c0.7,0.4,1.4,0.8,2,1.1   c-0.1-0.6,0-1.2,0-1.2c0.5-0.5,1.3,1,1.7,1.7c0.1,0.1,0.1,0.3,0.1,0.4c0.4,0.2,0.8,0.3,1,0.3C30,21.1,30,21,29.9,20.8   c-0.3-0.8-1-2.3-0.3-2.4c0,0,1.3,0.8,1.4,1.8c1.4-2.2,3.5-7.4,6.1-8.5c1.6-0.7,9.7-2.4,10.9,10.5C49.3,35,36.1,29.6,36.1,29.6z    M46,47.3c-2.3-0.7-4.7-3-4.7-3l0.7,1.4c-2.1-1-3.2-4.3-3.2-4.3h1.2v-1.4c1,1.9,3.7,2.8,3.7,2.8l-1.5-2l1.2,0.6l-1.6-2.1   c0.8-0.2,0.5-2.4,0.5-2.4l1.5,0.5l1.9,2.5h-1.1l0.6,0.5h-1.1c0.5,0.9,2,1.5,2,1.5l-1.5-0.2c0.7,0.6,1.4,1,1.4,1l-1,0.4   c0.9,1,3,1.6,3,1.6s-3-0.2-2.1-0.1c0.8,0.1,8,7.5,8,7.5l0.3-0.6l1.5,2.8C54.6,54.8,48.3,48,46,47.3z"></path><path fill="#000000" d="M44.9,63c-1.2,0.1-2.3,1-2.3,1s1.3,0.3,0.6,1l-0.6,1.3l5.2-1.3C47.8,64.9,46.1,62.9,44.9,63z"></path><path fill="#000000" d="M42,64.2c-3.3,2.7-0.3,4.8-0.3,4.8c-1-2.3,0.2-2.7,0.5-3.8C42.6,64.3,42,64.2,42,64.2z"></path><path fill="#000000" d="M80.5,71c-4.8,4.1-16.2,10-16.2,10s-4,4.6-6,6.6c-2,2-2.9,7.8-2.8,7.4c1.4-6.6,8.7-11.3,10.5-13   c0.7-0.7,2.2-1.8,3.9-2.9c0.5,0.2,1.4,1.4,2.8,1.8c0,0,3.3,4.7,5.7,3.3c2.4-1.4,2.3-2.4,1.9-3.1l-1.4-2l1.6,1.3c0,0,0.2-1-0.5-2.2   c-0.6-1-1-2.6-1.7-4c2.1-1.4,4.6-3.6,5.1-4.3c0.7-0.9,5.3-4,5.3-4S85.3,66.9,80.5,71z"></path></g></svg>