<svg xmlns="http://www.w3.org/2000/svg" xmlns:xlink="http://www.w3.org/1999/xlink" version="1.1" x="0px" y="0px" viewBox="0 0 128 128" enable-background="new 0 0 128 128" xml:space="preserve"><g><ellipse fill="#000000" cx="72.9" cy="51.8" rx="4.5" ry="5.2"></ellipse><path fill="#000000" d="M64,76.5c19.8,0,35.8-12.9,35.8-28.7c0-14.1-12.7-25.9-29.4-28.3c7.5-6.4,13-5,13.3-4.9   c1.3,0.4,2.7-0.3,3.1-1.6c0.4-1.3-0.3-2.7-1.6-3.1c-0.4-0.1-9.1-2.7-19.7,7.3c0.2-4.8,1.7-10.6,2.5-13.1c0.4-1.3-0.3-2.7-1.6-3.1   c-1.3-0.4-2.7,0.3-3.1,1.6C63,3.7,61.1,10,60.7,16l-4-4c-2.3-2.3-5.4-3.1-8.2-2.3c-5.4,1.6-6,7.5-5.5,10.5c0.2,1.3,1.5,2.3,2.8,2   c1.3-0.2,2.3-1.5,2-2.8c0,0-0.6-4.2,2-5c1.1-0.3,2.4,0.1,3.4,1.1l4.1,4c-16.6,2.5-29.1,14.2-29.1,28.2C28.2,63.7,44.2,76.5,64,76.5   z M52.2,35.1C58.7,35.1,64,42,64,50.4c0-8.5,5.3-15.4,11.8-15.4c6.5,0,11.8,6.9,11.8,15.4c0,8.5-5.3,15.4-11.8,15.4   c-2.4,0-4.6-0.9-6.5-2.5c0,0,0,0,0.1,0.1L64,75.6l-5.4-12.2c0,0,0,0,0.1-0.1c-1.9,1.6-4.1,2.5-6.5,2.5c-6.5,0-11.8-6.9-11.8-15.4   C40.3,42,45.6,35.1,52.2,35.1z"></path><ellipse fill="#000000" cx="55.1" cy="51.8" rx="4.6" ry="5.3"></ellipse><path fill="#000000" d="M85.3,94.5c5.3,0,10.6,0,15.9,0c1.9-5.4-1.5-16.4-7-24.2C86.8,77.2,76,81.5,64,81.5   c-12,0-22.8-4.3-30.2-11.1c-5.5,7.8-8.8,18.8-7,24.2c5.3,0,10.6,0,15.9,0c0.6,4.3,2.5,8.2,5.2,11.3v7.8l-7.7,9.4   c-0.9,1.1-0.7,2.6,0.3,3.5c1.1,0.9,2.6,0.7,3.5-0.3l3.9-4.7v0.9c0,1.4,1.1,2.5,2.5,2.5s2.5-1.1,2.5-2.5v-0.9l3.9,4.7   c0.5,0.6,1.2,0.9,1.9,0.9c0.5,0,1.1-0.2,1.6-0.6c1.1-0.9,1.2-2.4,0.3-3.5l-7.7-9.4v-3.6c3.3,2,7.1,3.2,11.2,3.2   c4.1,0,7.9-1.2,11.2-3.2v3.6l-7.7,9.4c-0.9,1.1-0.7,2.6,0.3,3.5c1.1,0.9,2.6,0.7,3.5-0.3l3.9-4.7v0.9c0,1.4,1.1,2.5,2.5,2.5   s2.5-1.1,2.5-2.5v-0.9l3.9,4.7c0.5,0.6,1.2,0.9,1.9,0.9c0.5,0,1.1-0.2,1.6-0.6c1.1-0.9,1.2-2.4,0.3-3.5l-7.7-9.4v-7.8   C82.8,102.7,84.7,98.8,85.3,94.5z"></path></g></svg>