<svg xmlns="http://www.w3.org/2000/svg" xmlns:xlink="http://www.w3.org/1999/xlink" version="1.1" x="0px" y="0px" viewBox="0 0 841.89 595.28" enable-background="new 0 0 841.89 595.28" xml:space="preserve"><g><circle cx="299.766" cy="242.914" r="24.718"></circle><path d="M679.644,259.148c-2.771-11.105-6.041-21.46-9.738-31.125l0.001,0.001c0.019-3.12,0.114-6.231,0.282-9.333   c-52.872-34.706-90.963-37.245-90.963-37.245c-0.012,0.023-0.023,0.045-0.034,0.07c37.678,12.912,53.059,49.21,52.512,49.988   c-8.851-10.519-19.481-18.053-29.696-23.435c7.989,10.856,13.101,23.161,13.101,34.843c0,32.088-26.733,58.102-59.715,58.102   c-18.941,0-35.812-8.592-46.752-21.976c9.152,7.97,21.746,12.896,35.652,12.896c27.973,0,50.646-19.92,50.646-44.491   c0-11.842-5.276-22.597-13.865-30.569c-0.044-0.015-0.089-0.028-0.133-0.044c5.462,7.33,8.69,16.337,8.69,26.082   c0,24.571-20.472,44.491-45.728,44.491c-25.255,0-45.728-19.92-45.728-44.491c0-3.523,0.439-6.944,1.236-10.231   c-2.238,0.989-4.545,1.947-6.911,2.875c-26.427,17.644-45.05,42.203-55.072,57.663c-0.071,0.75-7.722,83.121,75.463,83.121H488.3   c0,0-0.031-0.006-0.077-0.018c-32.152-3.696-58.402,14.68-64.429,19.304L421,417.397l-2.898-22.585   c-7.629-5.624-32.814-21.999-63.338-18.49c-0.046,0.012-0.08,0.018-0.08,0.018h-24.591c70.507,0,75.752-59.192,75.67-77.687   l-0.685-5.332c-10.011-15.455-28.677-40.093-55.147-57.766c-2.366-0.927-4.673-1.885-6.911-2.875   c0.796,3.288,1.235,6.708,1.235,10.233c0,24.569-20.472,44.491-45.728,44.491c-25.255,0-45.727-19.921-45.727-44.491   c0-9.746,3.229-18.753,8.69-26.083c-0.044,0.016-0.088,0.029-0.133,0.044c-8.589,7.972-13.866,18.727-13.866,30.57   c0,24.569,22.674,44.491,50.646,44.491c13.907,0,26.5-4.927,35.652-12.897c-10.939,13.383-27.81,21.976-46.752,21.976   c-32.981,0-59.715-26.014-59.715-58.101c0-11.684,5.112-23.988,13.102-34.843c-10.215,5.38-20.846,12.915-29.697,23.433   c-0.546-0.778,14.834-37.077,52.512-49.988c-0.011-0.024-0.022-0.047-0.034-0.069c0,0-37.833,2.523-90.428,36.896   c0.181,3.217,0.288,6.445,0.307,9.682l0.001-0.001c-3.696,9.665-6.966,20.02-9.737,31.125c-18.621,99.295-3.104,166.34,0,187.759   l2.303,0.818l-2.363-0.654c0,0,38.308,76.657,170.147,81.678c87.653,10.04,87.653,23.015,87.653,42.17h0.799   c0-19.155,0-32.13,87.656-42.17c131.846-5.021,170.155-81.678,170.155-81.678l-2.354,0.652l2.296-0.816   C682.745,425.488,698.262,358.443,679.644,259.148z"></path><path d="M417.737,391.963l-10.597-82.574c-1.418,42.78-30.906,59.19-45.033,64.613C387.58,373.464,408.945,385.938,417.737,391.963   z"></path><path d="M436.813,294.161l-0.838,6.533l1.45-7.47C437.226,293.531,437.007,293.859,436.813,294.161z"></path><path d="M424.167,392.713c8.012-5.662,30.111-19.273,56.693-18.718c-15-5.764-47.264-23.893-44.955-72.753L424.167,392.713z"></path><path d="M770.899,51.314c0.069-5.966-12.387-11.108-29.203-12.637c-33.209-14.927-87.336,4.219-133.804,34.469   c-21.168,18.226-53.468,26.471-85.266,29.716c-31.225-6.679-59.894-6.585-78.68-5.288l-9.048,34.673h10.396l-23.584,90.364   l-23.582-90.364h9.507l-9.057-34.705c-18.791-1.267-47.252-1.305-78.222,5.32c-31.798-3.245-64.097-11.49-85.264-29.716   c-46.465-30.25-100.587-49.396-133.793-34.469c-16.817,1.529-29.272,6.67-29.205,12.637c0.037,3.112,3.481,5.92,9.154,8.058   c-0.586,0.895-0.902,1.82-0.891,2.768c0.035,3.112,3.48,5.92,9.154,8.058c-0.587,0.895-0.901,1.82-0.89,2.767   c0.035,3.112,3.48,5.92,9.154,8.059c-0.588,0.895-0.902,1.82-0.892,2.767c0.036,3.112,3.48,5.92,9.153,8.058   c-0.587,0.894-0.902,1.819-0.891,2.767c0.037,3.112,3.481,5.921,9.154,8.059c-0.587,0.894-0.902,1.819-0.891,2.766   c0.035,3.112,3.48,5.92,9.154,8.058c-0.588,0.895-0.902,1.82-0.892,2.767c0.036,3.113,3.48,5.92,9.153,8.059   c-0.587,0.895-0.902,1.819-0.891,2.766c0.037,3.112,3.481,5.921,9.154,8.059c-0.586,0.895-0.902,1.82-0.891,2.767   c0.035,3.112,3.48,5.92,9.154,8.059c-0.588,0.894-0.902,1.819-0.891,2.766c0.035,3.112,3.479,5.92,9.152,8.058   c-0.586,0.895-0.902,1.82-0.891,2.767c0.034,2.939,3.111,5.606,8.23,7.695c-1.924,1.537-2.979,3.213-2.958,4.961   c0.032,2.729,2.83,6.134,7.423,8.905c0.102,0.447,0.198,0.895,0.297,1.343c-1.686,1.472-2.449,3.05-2.017,4.668   c0.53,1.986,1.873,3.257,3.768,3.965c0.691,3.76,1.284,7.549,1.791,11.359c22.658-14.782,58.117-35.434,86.779-40.958   c0.462-0.491,1.078-0.878,1.884-1.13c6.471-1.05,12.835-0.807,18.688,0.247c1.518,0.237,2.989,0.553,4.405,0.962   c11.93,3.093,21.008,9.387,23.162,14.259c48.71,67.074,107.429,73.127,107.429,73.127c-16.491-0.98-31.222-3.502-44.359-7.058   c12.038,10.633,25.133,26.757,36.972,50.026h0.522c2.839-4.848,10-17.492,10.531-22.612c0.664-6.392,3.936-27.962,3.936-27.962   h0.12c0,0,3.275,21.571,3.936,27.962c0.531,5.12,7.691,17.762,10.532,22.612h0.416c11.841-23.269,24.935-39.394,36.973-50.026   c-13.138,3.555-27.868,6.078-44.358,7.058c0,0,58.719-6.055,107.429-73.127c2.154-4.873,11.231-11.166,23.161-14.259   c1.416-0.41,2.888-0.726,4.405-0.963c5.854-1.053,12.218-1.296,18.688-0.246c0.807,0.252,1.422,0.639,1.884,1.13   c28.88,5.567,64.659,26.492,87.293,41.294c0.516-3.921,1.123-7.824,1.835-11.693c1.896-0.709,3.239-1.98,3.769-3.966   c0.433-1.62-0.331-3.201-2.021-4.674c0.1-0.448,0.203-0.893,0.305-1.339c4.594-2.771,7.39-6.175,7.422-8.903   c0.021-1.748-1.035-3.425-2.959-4.961c5.12-2.088,8.195-4.756,8.229-7.695c0.011-0.947-0.303-1.872-0.891-2.766   c5.674-2.138,9.119-4.947,9.154-8.059c0.011-0.947-0.303-1.872-0.891-2.766c5.674-2.138,9.119-4.946,9.154-8.059   c0.011-0.947-0.304-1.872-0.891-2.767c5.673-2.138,9.117-4.947,9.154-8.059c0.011-0.947-0.304-1.872-0.891-2.766   c5.673-2.138,9.117-4.946,9.154-8.059c0.011-0.947-0.305-1.872-0.892-2.767c5.674-2.138,9.118-4.946,9.155-8.058   c0.011-0.947-0.305-1.872-0.892-2.767c5.674-2.138,9.118-4.946,9.155-8.058c0.011-0.947-0.305-1.873-0.892-2.767   c5.674-2.138,9.117-4.946,9.152-8.058c0.012-0.947-0.303-1.872-0.891-2.767c5.674-2.138,9.119-4.946,9.154-8.059   c0.011-0.947-0.303-1.872-0.891-2.767c5.674-2.138,9.119-4.946,9.154-8.058c0.011-0.947-0.304-1.873-0.892-2.768   C767.418,57.235,770.863,54.426,770.899,51.314z"></path><circle cx="542.667" cy="242.913" r="24.718"></circle></g></svg>