<svg xmlns="http://www.w3.org/2000/svg" xmlns:xlink="http://www.w3.org/1999/xlink" version="1.1" x="0px" y="0px" viewBox="0 0 512 512" enable-background="new 0 0 512 512" xml:space="preserve"><g><path d="M442.8,286.1c-4.6-40.8-31.9-76.4-69.6-92.3c11.3-13.2,20.4-27.2,28.6-39.9c12.4-19.3,23-35.9,35.2-38.8l-2.9-16.8   c-3.3,0.4-79.8,8.8-113.6,42.6h-129C157.7,107.2,81.3,98.7,77.9,98.4l-2.9,16.8c12.2,2.9,22.8,19.5,35.2,38.8   c8.2,12.7,17.3,26.7,28.6,39.9c-37.7,15.9-65.1,51.5-69.6,92.3c-3.7,32.9,6.4,64.6,28.3,89.1c21.8,24.4,53.2,38.4,86,38.4   c12.3,0,24.5-1.9,36.1-5.8c23.5-7.7,49.3-7.7,72.8,0c11.6,3.8,23.7,5.8,36.1,5.8c32.8,0,64.2-14,86-38.4   C436.4,350.7,446.4,319,442.8,286.1z M108.6,121.1c24.6,5.6,56.9,16.1,72.9,34.1l2.5,2.8h144l2.5-2.8c16-18,48.3-28.4,72.9-34.1   c-5.4,7-10.6,15.1-16.1,23.7c-9.7,15.2-20.8,32.4-35.1,46.8C318,226,269.6,251.8,256,258.7c-13.6-6.9-61.9-32.6-96.2-67.1   c-14.4-14.5-25.4-31.6-35.1-46.8C119.2,136.2,114,128.1,108.6,121.1z M256.3,282.2l18.3,23.9l-18.3,46.2l-18.3-46.2L256.3,282.2z    M401.7,363.9c-18.6,20.8-45.3,32.7-73.3,32.7c-10.5,0-20.8-1.7-30.7-4.9c-26.9-8.9-56.5-8.9-83.4,0c-9.9,3.3-20.2,4.9-30.7,4.9   c-28,0-54.7-11.9-73.3-32.7C91.6,343,83,316,86.2,288c4.1-36.8,30.1-68.7,65.3-80.8c32.5,31.3,73.6,54.6,91.7,64l-21.7,28.3   c-1.8,2.4-2.3,5.5-1.2,8.3l28,70.6c1.3,3.2,4.4,5.4,7.9,5.4c3.5,0,6.6-2.1,7.9-5.4l28-70.6c1.1-2.8,0.7-6-1.2-8.3L269.2,271   c18.3-9.6,59.1-32.8,91.3-63.8c35.2,12.1,61.2,44,65.3,80.8C429,316,420.4,343,401.7,363.9z"></path><path d="M170.8,234.7c-23.5,0-42.6,19.1-42.6,42.6s19.1,42.6,42.6,42.6s42.6-19.1,42.6-42.6S194.3,234.7,170.8,234.7z M170.8,302.9   c-14.1,0-25.6-11.5-25.6-25.6c0-14.1,11.5-25.6,25.6-25.6c14.1,0,25.6,11.5,25.6,25.6C196.3,291.4,184.9,302.9,170.8,302.9z"></path><path d="M341.2,234.7c-23.5,0-42.6,19.1-42.6,42.6s19.1,42.6,42.6,42.6s42.6-19.1,42.6-42.6S364.7,234.7,341.2,234.7z M341.2,302.9   c-14.1,0-25.6-11.5-25.6-25.6c0-14.1,11.5-25.6,25.6-25.6c14.1,0,25.6,11.5,25.6,25.6C366.8,291.4,355.3,302.9,341.2,302.9z"></path></g></svg>