<svg xmlns="http://www.w3.org/2000/svg" xmlns:xlink="http://www.w3.org/1999/xlink" version="1.1" x="0px" y="0px" viewBox="0 0 100 100" enable-background="new 0 0 100 100" xml:space="preserve"><path d="M50.852,93c7.22,0,13.717-3.089,18.247-8.014c-3.53-6.449-10.377-10.823-18.247-10.823  s-14.718,4.374-18.247,10.823C37.135,89.911,43.632,93,50.852,93z"></path><circle fill="none" stroke="#000000" stroke-width="2" stroke-miterlimit="10" cx="38.035" cy="33.959" r="10.191"></circle><circle fill="none" stroke="#000000" stroke-width="2" stroke-miterlimit="10" cx="63.233" cy="33.959" r="10.191"></circle><path fill="none" stroke="#000000" stroke-width="2" stroke-miterlimit="10" d="M75.173,22.816l1.35-12.914  l-9.104,4.06c-4.688-3.431-10.576-5.474-16.971-5.474c-6.515,0-12.504,2.121-17.235,5.67l-9.542-4.255l1.47,14.063  c-1.538,3.248-2.394,6.845-2.394,10.631c0,14.42,12.402,26.109,27.7,26.109s27.7-11.689,27.7-26.109  C78.147,30.358,77.075,26.355,75.173,22.816z"></path><path fill="none" stroke="#000000" stroke-width="2" stroke-miterlimit="10" d="M50.358,64.296  c-8.271,0-15.648-2.247-20.724-7.665c-2.24,3.726-3.573,6.914-3.573,11.579C26.061,81.901,37.16,93,50.852,93  s24.791-11.099,24.791-24.791c0-4.934-1.336-7.977-3.821-11.84C66.741,62.158,58.951,64.296,50.358,64.296z"></path><path d="M35.191,58.845c-2.223-3.013-6.001-5.667-12.042-3.417c-2.648,0.987-4.61,4.581-4.353,7.917l1.611,20.953  l13.539-15.267C36.517,66.133,37.093,61.424,35.191,58.845z"></path><path d="M66.164,58.845c2.223-3.013,6.001-5.667,12.042-3.417c2.648,0.987,4.61,4.581,4.353,7.917l-1.611,20.953  L67.409,69.031C64.839,66.133,64.263,61.424,66.164,58.845z"></path><polygon points="54.468,43.015 50.852,49.279 47.236,43.015 "></polygon><g><path fill="#000000" d="M45.349,38.233c2.375-3.96,1.09-9.095-2.87-11.47s-9.095-1.09-11.47,2.87   s-1.09,9.095,2.87,11.47S42.974,42.193,45.349,38.233z M38.146,29.937c0.919-1.532,2.905-2.029,4.436-1.11   c1.532,0.919,2.029,2.905,1.11,4.436c-0.919,1.532-2.905,2.029-4.436,1.11C37.724,33.455,37.227,31.469,38.146,29.937z    M32.789,35.706c0.539-0.899,1.705-1.191,2.604-0.652c0.899,0.539,1.191,1.705,0.652,2.604c-0.539,0.899-1.705,1.191-2.604,0.652   C32.541,37.771,32.25,36.605,32.789,35.706z"></path></g><g><path fill="#000000" d="M70.694,38.439c2.375-3.96,1.09-9.095-2.87-11.47s-9.095-1.09-11.47,2.87   s-1.09,9.095,2.87,11.47C63.185,43.683,68.32,42.398,70.694,38.439z M63.491,30.143c0.919-1.532,2.905-2.029,4.436-1.11   c1.532,0.919,2.029,2.905,1.11,4.436c-0.919,1.532-2.905,2.029-4.436,1.11C63.07,33.661,62.573,31.675,63.491,30.143z    M58.134,35.912c0.539-0.899,1.705-1.191,2.604-0.652c0.899,0.539,1.191,1.705,0.652,2.604c-0.539,0.899-1.705,1.191-2.604,0.652   C57.887,37.977,57.595,36.811,58.134,35.912z"></path></g></svg>