<svg xmlns="http://www.w3.org/2000/svg" xmlns:xlink="http://www.w3.org/1999/xlink" version="1.1" x="0px" y="0px" viewBox="0 0 100 100" enable-background="new 0 0 100 100" xml:space="preserve"><g><path d="M50.527,93c5.876,0,11.164-2.514,14.851-6.523c-2.873-5.249-8.446-8.809-14.851-8.809s-11.979,3.56-14.851,8.809   C39.363,90.486,44.651,93,50.527,93z"></path></g><g><path d="M33.306,84.161c-3.821-0.719-6.229-2.416-7.158-5.046c-2.363-6.689,6.216-16.866,6.582-17.296l1.522,1.297   c-2.287,2.688-7.864,10.682-6.218,15.334c0.674,1.908,2.573,3.168,5.642,3.746L33.306,84.161z"></path></g><g><path d="M67.969,84.444L67.6,82.479c3.085-0.581,4.998-1.852,5.688-3.777c2.007-5.612-5.966-15.212-6.046-15.309l1.531-1.285   c0.36,0.429,8.789,10.576,6.398,17.266C74.227,82.018,71.803,83.724,67.969,84.444z"></path></g><g><path d="M40.096,52.741c-4.849,0-8.794-3.945-8.794-8.794s3.945-8.794,8.794-8.794s8.794,3.945,8.794,8.794   S44.945,52.741,40.096,52.741z M40.096,36.152c-4.298,0-7.794,3.497-7.794,7.794s3.497,7.794,7.794,7.794   c4.297,0,7.794-3.497,7.794-7.794S44.393,36.152,40.096,36.152z"></path></g><g><path d="M60.604,52.741c-4.85,0-8.795-3.945-8.795-8.794s3.945-8.794,8.795-8.794c4.849,0,8.794,3.945,8.794,8.794   S65.453,52.741,60.604,52.741z M60.604,36.152c-4.298,0-7.795,3.497-7.795,7.794s3.497,7.794,7.795,7.794s7.794-3.497,7.794-7.794   S64.902,36.152,60.604,36.152z"></path></g><g><path d="M50.198,66.716c-12.983,0-23.545-9.981-23.545-22.25c0-3.066,0.647-6.033,1.925-8.824L27.23,22.749l8.819,3.932   c4.102-2.923,8.981-4.465,14.149-4.465c5.067,0,9.87,1.488,13.928,4.31l8.47-3.777L71.348,34.68   c1.59,3.058,2.396,6.349,2.396,9.786C73.743,56.734,63.181,66.716,50.198,66.716z M29.58,25.986l1.046,10.002l-0.12,0.253   c-1.229,2.595-1.853,5.363-1.853,8.225c0,11.166,9.665,20.25,21.545,20.25c11.88,0,21.545-9.084,21.545-20.25   c0-3.207-0.774-6.273-2.303-9.114l-0.146-0.271l0.951-9.094l-6.357,2.835l-0.469-0.342c-3.811-2.789-8.383-4.263-13.222-4.263   c-4.934,0-9.577,1.526-13.427,4.414l-0.47,0.353L29.58,25.986z"></path></g><g><path d="M50.527,94C38.85,94,29.35,84.5,29.35,72.823c0-3.845,1.043-7.612,3.017-10.896l0.682-1.134l0.905,0.966   c4.095,4.371,9.989,6.878,16.172,6.878c6.454,0,12.513-2.688,16.626-7.373l0.876-0.996l0.717,1.115   c2.198,3.417,3.359,7.373,3.359,11.439C71.704,84.5,62.204,94,50.527,94z M33.452,64.091c-1.378,2.691-2.102,5.686-2.102,8.732   C31.35,83.397,39.953,92,50.527,92c10.575,0,19.177-8.603,19.177-19.177c0-3.247-0.818-6.417-2.377-9.243   c-4.449,4.501-10.643,7.058-17.202,7.058C43.858,70.638,37.858,68.267,33.452,64.091z"></path></g><g><g><path fill="#000000" d="M46.048,47.651c1.933-3.223,0.887-7.402-2.336-9.335c-3.223-1.933-7.402-0.887-9.335,2.336    s-0.887,7.402,2.336,9.335C39.936,51.92,44.116,50.874,46.048,47.651z M40.186,40.9c0.748-1.247,2.364-1.651,3.611-0.903    c1.247,0.748,1.651,2.364,0.903,3.611c-0.748,1.247-2.364,1.651-3.611,0.903C39.842,43.763,39.438,42.146,40.186,40.9z     M35.826,45.595c0.439-0.732,1.388-0.969,2.119-0.53c0.732,0.439,0.969,1.388,0.53,2.119c-0.439,0.732-1.388,0.969-2.119,0.53    C35.624,47.276,35.387,46.327,35.826,45.595z"></path></g></g><g><g><path fill="#000000" d="M66.677,47.819c1.933-3.223,0.887-7.402-2.336-9.335c-3.223-1.933-7.402-0.887-9.335,2.336    c-1.933,3.223-0.887,7.402,2.336,9.335C60.565,52.087,64.744,51.042,66.677,47.819z M60.814,41.067    c0.748-1.247,2.364-1.651,3.611-0.903c1.247,0.748,1.651,2.364,0.903,3.611c-0.748,1.247-2.364,1.651-3.611,0.903    C60.471,43.93,60.066,42.314,60.814,41.067z M56.454,45.763c0.439-0.732,1.388-0.969,2.119-0.53    c0.732,0.439,0.969,1.388,0.53,2.119c-0.439,0.732-1.388,0.969-2.119,0.53C56.253,47.443,56.015,46.494,56.454,45.763z"></path></g></g><g><g><path fill="#000000" d="M59.9,7.947c0-1.093-0.842-1.979-1.88-1.979c-0.751,0-1.397,0.465-1.698,1.135    c-0.301-0.67-0.947-1.135-1.698-1.135c-1.038,0-1.88,0.886-1.88,1.979c0,0.759,0.406,1.417,1.002,1.749l2.654,2.574l2.491-2.57    C59.49,9.37,59.9,8.709,59.9,7.947z"></path></g></g><g><g><path fill="#000000" d="M70.899,16.823c0-1.999-1.54-3.62-3.439-3.62c-1.374,0-2.557,0.85-3.107,2.077    c-0.551-1.226-1.733-2.077-3.107-2.077c-1.899,0-3.439,1.621-3.439,3.62c0,1.388,0.743,2.593,1.833,3.2l4.856,4.709l4.558-4.703    C70.15,19.425,70.899,18.217,70.899,16.823z"></path></g></g><g><path d="M52.65,51.525l-2.129,3.688l-2.114-3.662c-0.271-0.47,0.068-1.058,0.611-1.058h3.037   C52.584,50.493,52.915,51.066,52.65,51.525z"></path></g></svg>