<svg id="icons" enable-background="new 0 0 64 64" height="512" viewBox="0 0 64 64" width="512" xmlns="http://www.w3.org/2000/svg"><g><path d="m58.999 54.02c.553 0 1-.447 1-1v-1c.553 0 1-.447 1-1s-.447-1-1-1v-1c0-.553-.447-1-1-1s-1 .447-1 1v1c-.553 0-1 .447-1 1s.447 1 1 1v1c0 .552.447 1 1 1z"/><path d="m8.995 9.021c.553 0 1-.447 1-1v-1c.553 0 1-.447 1-1s-.447-1-1-1v-1c0-.553-.447-1-1-1s-1 .447-1 1v1c-.553 0-1 .447-1 1s.447 1 1 1v1c0 .553.447 1 1 1z"/><path d="m2.031 24.988c.552 0 1-.447 1-1s-.448-1-1-1h-.01c-.552 0-.994.447-.994 1s.452 1 1.004 1z"/><path d="m62.029 27.016c.552 0 1-.447 1-1s-.448-1-1-1h-.011c-.552 0-.994.447-.994 1s.453 1 1.005 1z"/><path d="m34.018 60.021c-.552 0-.994.447-.994 1s.452 1 1.005 1c.552 0 1-.447 1-1s-.448-1-1-1z"/><path d="m34.028 3.979c.552 0 1-.447 1-1s-.448-1-1-1h-.011c-.552 0-.994.447-.994 1s.453 1 1.005 1z"/><path d="m55.484 6.689c1.527.88 2.51 2.517 2.51 4.328 0 .553.447 1 1 1s1-.447 1-1c0-2.732-1.6-5.178-4.032-6.32-.164-1.501-1.424-2.678-2.968-2.678-1.654 0-3 1.346-3 3s1.346 3 3 3c1.036.001 1.951-.528 2.49-1.33zm-2.49-.669c-.552 0-1-.448-1-1s.448-1 1-1 1 .448 1 1-.448 1-1 1z"/><path d="m7.994 61.021c2.206 0 4-1.794 4-4s-1.794-4-4-4-4 1.794-4 4 1.794 4 4 4zm0-6c1.103 0 2 .897 2 2s-.897 2-2 2-2-.897-2-2 .898-2 2-2z"/><path d="m53.221 40.85c.012-.03.026-.059.035-.09 1.117-2.701 1.737-5.659 1.737-8.76 0-12.683-10.317-23-23-23s-23 10.317-23 23 10.317 23 23 23h.006.001.001c9.545-.004 17.746-5.851 21.22-14.15zm-42.228-8.85c0-11.579 9.421-21 21-21s21 9.421 21 21c0 2.426-.435 4.746-1.194 6.916-1.073-.646-2.273-1.059-3.523-1.196-.473-4.335-4.153-7.72-8.608-7.72-4.779 0-8.668 3.889-8.668 8.668v14.281c-11.116-.523-20.007-9.705-20.007-20.949zm22.007 20.949v-14.281c0-3.677 2.991-6.668 6.668-6.668 3.672 0 6.659 2.991 6.659 6.668 0 .553.447 1 1 1 1.327 0 2.608.416 3.7 1.146-3.205 6.893-10.031 11.753-18.027 12.135z"/><path d="m27.999 22.001c0-2.206-1.794-4-4-4s-4 1.794-4 4 1.794 4 4 4 4-1.794 4-4zm-6 0c0-1.103.897-2 2-2s2 .897 2 2-.897 2-2 2-2-.897-2-2z"/><path d="m24.015 44.033h-.011c-.552 0-.994.447-.994 1s.452 1 1.005 1c.552 0 1-.447 1-1s-.449-1-1-1z"/><path d="m17.031 34.002h-.011c-.552 0-.994.447-.994 1s.452 1 1.005 1c.552 0 1-.447 1-1s-.448-1-1-1z"/><path d="m27.029 32.002h-.011c-.552 0-.994.447-.994 1s.452 1 1.005 1c.552 0 1-.447 1-1s-.448-1-1-1z"/><path d="m45.028 26.015c.552 0 1-.447 1-1s-.448-1-1-1h-.011c-.552 0-.994.447-.994 1s.453 1 1.005 1z"/><path d="m37.024 17.993c.552 0 1-.447 1-1s-.448-1-1-1h-.011c-.552 0-.994.447-.994 1s.453 1 1.005 1z"/></g></svg>