<svg id="icons" enable-background="new 0 0 64 64" height="512" viewBox="0 0 64 64" width="512" xmlns="http://www.w3.org/2000/svg"><g><path d="m1 63.999c.553 0 1-.447 1-1 0-.334.015-.665.025-.996h9.974c1.654 0 3-1.346 3-3 0-.353-.072-.686-.185-1h7.183c1.654 0 3-1.346 3-3s-1.346-3-3-3h-2.187c.112-.314.185-.647.185-1 0-1.652-1.343-2.996-2.994-2.999-.001 0-.002-.001-.003-.001h-10.964c5.191-8.953 14.869-14.994 25.941-15.003.009 0 .017.001.025.001s.017-.001.025-.001c6.104.005 11.785 1.846 16.526 4.995h-7.558c-1.654 0-3 1.346-3 3 0 .353.072.686.185 1h-6.193c-1.654 0-3 1.346-3 3s1.346 3 3 3h3.19c-.112.314-.185.647-.185 1 0 1.654 1.346 3 3 3h5.192c-.112.314-.185.647-.185 1 0 1.64 1.325 2.973 2.961 2.994.014.001.025.008.039.008h15.167c.542 2.248.836 4.591.836 7.002 0 .553.447 1 1 1s1-.447 1-1c0-2.892-.393-5.692-1.115-8.359-.005-.013-.006-.026-.011-.039-1.762-6.467-5.498-12.129-10.528-16.283-.042-.045-.094-.075-.143-.112-4.264-3.48-9.438-5.884-15.105-6.795 2.355-1.625 3.903-4.339 3.903-7.41 0-.004-.002-.006-.002-.01v-11.988c0-.553-.447-1-1-1s-1 .447-1 1v12c0 .003.001.005.001.007-.005 3.848-3.129 6.976-6.975 6.99-.008 0-.017-.001-.025-.001s-.018.001-.025.001c-3.849-.015-6.976-3.148-6.976-7v-13.992c0-.553-.447-1-1-1s-1 .447-1 1v14.001c0 .001.001.002.001.003.004 3.066 1.551 5.775 3.902 7.398-10.236 1.646-18.857 8.164-23.416 17.092-.032.055-.064.107-.086.169-1.882 3.74-3.051 7.896-3.329 12.291 0 .015-.008.026-.008.041 0 .007.004.012.004.019-.04.654-.067 1.312-.067 1.977 0 .553.447 1 1 1zm59.618-10.002h-14.6c-.007 0-.013-.004-.02-.004-.552 0-1-.447-1-.998 0-.552.448-1 1-1 .553 0 1-.447 1-1s-.447-1-1-1h-8.008c-.552 0-1-.448-1-1s.448-1 1-1c.553 0 1-.447 1-1s-.447-1-1-1h-6.006c-.552 0-1-.448-1-1s.448-1 1-1h9.004.002s.002 0 .003 0c.553 0 1-.447 1-1s-.447-1-1-1c-.552 0-1-.448-1-1s.448-1 1-1h10.235c4.345 3.637 7.648 8.476 9.39 14.002zm-43.624-3.994c.552 0 1 .448 1 1s-.448 1-1 1c-.553 0-1 .447-1 1s.447 1 1 1h5.003c.552 0 1 .448 1 1s-.448 1-1 1h-9.998c-.553 0-1 .447-1 1s.447 1 1 1c.552 0 1 .448 1 1s-.448 1-1 1h-9.849c.354-3.55 1.327-6.921 2.813-10z"/><path d="m32 30.004c3.31 0 6.002-2.692 6.002-6.002s-2.692-6.002-6.002-6.002-6.002 2.692-6.002 6.002 2.692 6.002 6.002 6.002zm0-10.004c2.207 0 4.002 1.795 4.002 4.002s-1.795 4.002-4.002 4.002-4.002-1.795-4.002-4.002 1.795-4.002 4.002-4.002z"/><path d="m44.292 26.293-2.999 2.999c-.391.391-.391 1.023 0 1.414.195.195.451.293.707.293s.512-.098.707-.293l2.999-2.999c.391-.391.391-1.023 0-1.414s-1.023-.391-1.414 0z"/><path d="m18.294 26.293c-.391.391-.391 1.023 0 1.414l2.999 2.999c.195.195.451.293.707.293s.512-.098.707-.293c.391-.391.391-1.023 0-1.414l-2.999-2.999c-.391-.391-1.023-.391-1.414 0z"/><path d="m35.999 16c.553 0 1-.447 1-1v-8.996c0-.553-.447-1-1-1s-1 .447-1 1v8.996c0 .553.447 1 1 1z"/><path d="m32.999 15v-13.999c0-.553-.447-1-1-1s-1 .447-1 1v13.999c0 .553.447 1 1 1s1-.447 1-1z"/><path d="m28.999 16.001v-7.995c0-.553-.447-1-1-1s-1 .447-1 1v7.995c0 .553.447 1 1 1s1-.447 1-1z"/></g></svg>