<svg id="icons" enable-background="new 0 0 64 64" height="512" viewBox="0 0 64 64" width="512" xmlns="http://www.w3.org/2000/svg"><g><path d="m54 61.498c.553 0 1-.447 1-1v-7.998c0-4.963-4.037-9-9-9l-1.932-.001c.492-3.942 3.858-7.005 7.932-7.005.553 0 1-.447 1-1s-.447-1-1-1h-7.544c3.19-4.295 5.543-9.469 5.543-13.992 0-9.925-8.075-18-18-18s-18 8.075-18 18c0 4.523 2.353 9.697 5.543 13.992h-7.543c-.553 0-1 .447-1 1s.447 1 1 1c4.073 0 7.438 3.063 7.932 7.005l-1.929-.001c-4.964 0-9.002 4.038-9.002 9.002l.001 7.998c0 .553.448 1 1 1 .553 0 1-.448 1-1l-.001-7.998c0-3.861 3.141-7.002 7.002-7.002l1.997.001v3.999c0 6.617 5.384 12 12.001 12s12.001-5.383 12.001-12v-3.999l1.999.001c3.859 0 7 3.141 7 7v7.998c0 .553.447 1 1 1zm-7.975-25.004c-2.188 1.638-3.69 4.142-3.975 7.005l-2.05-.001v-4.075c.978-.875 1.94-1.86 2.86-2.929zm-14.026-31.992c8.822 0 16 7.178 16 16 0 4.733-2.85 10.127-6.32 14.266-.03.027-.052.061-.077.092-3.285 3.889-7.109 6.646-9.603 6.646-2.501 0-6.34-2.773-9.632-6.681-.014-.016-.024-.033-.04-.049-3.475-4.139-6.328-9.538-6.328-14.274 0-8.822 7.178-16 16-16zm-14.025 31.992h3.164c.921 1.069 1.885 2.055 2.862 2.931v4.075l-2.052-.001c-.284-2.863-1.787-5.367-3.974-7.005zm24.027 13.004c0 5.176-3.954 9.446-9.001 9.949v-1.534l3.707-3.706c.391-.391.391-1.023 0-1.414s-1.023-.391-1.414 0l-2.293 2.292v-3.172l3.707-3.706c.391-.391.391-1.023 0-1.414s-1.023-.391-1.414 0l-3.294 3.293-3.292-3.293c-.391-.391-1.023-.391-1.414 0s-.391 1.023 0 1.414l3.707 3.708v3.172l-2.293-2.294c-.391-.391-1.023-.391-1.414 0s-.391 1.023 0 1.414l3.707 3.708v1.532c-5.047-.503-9.001-4.773-9.001-9.949v-3.999l3 .001c.276 0 .527-.112.708-.295.013-.012.018-.03.03-.044.073-.081.14-.17.183-.272.052-.12.08-.252.08-.391v-3.457c2.128 1.538 4.227 2.465 5.999 2.465s3.872-.928 6.001-2.467v3.459c0 .553.447 1 1 1h.001l3 .001z"/><path d="m35.005 27.504h2c3.309 0 6-2.691 6-6v-2c0-.553-.447-1-1-1-4.411 0-8 3.589-8 8 0 .553.447 1 1 1zm6-6.91v.91c0 2.206-1.794 4-4 4h-.909c.423-2.507 2.402-4.486 4.909-4.91z"/><path d="m26.992 27.504h2c.553 0 1-.447 1-1 0-4.411-3.589-8-8-8-.553 0-1 .447-1 1v2c0 3.309 2.692 6 6 6zm.91-2h-.91c-2.206 0-4-1.794-4-4v-.91c2.507.424 4.487 2.403 4.91 4.91z"/></g></svg>