<svg id="icons" enable-background="new 0 0 64 64" height="512" viewBox="0 0 64 64" width="512" xmlns="http://www.w3.org/2000/svg"><g><path d="m58.999 48.02c-.553 0-1 .447-1 1v1c-.553 0-1 .447-1 1s.447 1 1 1v1c0 .553.447 1 1 1s1-.447 1-1v-1c.553 0 1-.447 1-1s-.447-1-1-1v-1c0-.553-.447-1-1-1z"/><path d="m7.995 7.021v1c0 .552.447 1 1 1s1-.448 1-1v-1c.553 0 1-.448 1-1s-.447-1-1-1v-1c0-.552-.447-1-1-1s-1 .448-1 1v1c-.553 0-1 .448-1 1s.447 1 1 1z"/><path d="m2.031 24.988c.552 0 1-.448 1-1s-.448-1-1-1h-.01c-.552 0-.994.448-.994 1s.452 1 1.004 1z"/><path d="m62.029 27.016c.552 0 1-.448 1-1s-.448-1-1-1h-.011c-.552 0-.994.448-.994 1s.453 1 1.005 1z"/><path d="m34.028 60.021h-.011c-.552 0-.994.447-.994 1s.452 1 1.005 1c.552 0 1-.447 1-1s-.448-1-1-1z"/><path d="m34.028 3.979c.552 0 1-.448 1-1s-.448-1-1-1h-.011c-.552 0-.994.448-.994 1s.453 1 1.005 1z"/><path d="m52.994 8.02c1.036 0 1.951-.528 2.49-1.33 1.527.88 2.51 2.517 2.51 4.328 0 .552.447 1 1 1s1-.448 1-1c0-2.733-1.6-5.179-4.032-6.321-.164-1.501-1.424-2.677-2.968-2.677-1.654 0-3 1.346-3 3s1.346 3 3 3zm0-4c.552 0 1 .449 1 1s-.448 1-1 1-1-.449-1-1 .448-1 1-1z"/><path d="m7.994 61.021c2.206 0 4-1.794 4-4s-1.794-4-4-4-4 1.794-4 4 1.794 4 4 4zm0-6c1.103 0 2 .897 2 2s-.897 2-2 2-2-.897-2-2 .898-2 2-2z"/><path d="m18.154 50.357c.001 0 .001 0 0 0 3.855 2.913 8.648 4.643 13.839 4.643 5.157 0 9.923-1.706 13.764-4.584.05-.033.097-.067.14-.11 2.161-1.645 4.02-3.663 5.486-5.958.07-.075.118-.162.162-.253 1.146-1.845 2.035-3.862 2.624-6.005.001-.003.004-.005.006-.008.039-.079.049-.163.065-.245.013-.046.025-.091.037-.137 0 0 0-.001 0-.002.457-1.785.703-3.654.713-5.579.006-.054.004-.104.002-.158-.004-2.318-.354-4.556-.998-6.666-.013-.055-.025-.106-.047-.158-.638-2.037-1.557-3.949-2.702-5.7-.008-.017-.006-.036-.015-.053-.033-.066-.084-.115-.129-.17-1.81-2.695-4.175-4.985-6.929-6.711-.04-.036-.087-.056-.132-.085-3.506-2.165-7.632-3.418-12.047-3.418-12.683 0-23 10.318-23 23 0 7.491 3.601 14.155 9.161 18.357zm-6.33-24.15.176-.088 1.553.776c.281.141.613.141.895 0l1.552-.776 1.553.776c.281.141.613.141.895 0l1.553-.776 1.553.776c.281.141.613.141.895 0l1.553-.776 1.554.776c.281.141.613.141.895 0l1.549-.777 1.553.776c.281.141.613.141.895 0l1.552-.776 1.552.776c.281.141.613.141.895 0l1.553-.776 1.553.776c.281.141.613.141.895 0l1.552-.776 1.552.776c.281.141.613.141.895 0l1.553-.776 1.554.776c.281.141.613.141.895 0l1.551-.776 1.553.776c.14.071.294.106.447.106s.307-.035.447-.105l1.553-.777.159.08c.384 1.331.637 2.714.75 4.139l-.464-.231c-.282-.141-.613-.14-.894 0l-1.551.776-1.553-.776c-.281-.141-.613-.141-.895 0l-1.552.776-1.554-.776c-.281-.141-.613-.141-.895 0l-1.553.776-1.552-.776c-.281-.141-.613-.141-.895 0l-1.554.776-1.553-.776c-.281-.141-.613-.141-.895 0l-1.553.776-1.552-.776c-.281-.141-.613-.141-.895 0l-1.549.776-1.553-.776c-.281-.141-.613-.141-.895 0l-1.552.776-1.554-.776c-.281-.141-.613-.141-.895 0l-1.553.776-1.553-.776c-.281-.141-.613-.141-.895 0l-1.553.776-1.553-.776c-.281-.141-.613-.141-.895 0l-1.549.776-1.554-.776c-.281-.141-.614-.141-.896.001l-.474.238c.113-1.425.365-2.807.748-4.138zm2.338-5.245c.097-.016.195-.022.285-.067l1.552-.776 1.553.776c.281.141.613.141.895 0l1.553-.776 1.553.776c.281.141.613.141.895 0l1.553-.776 1.554.776c.281.141.613.141.895 0l1.55-.777 1.553.776c.281.141.613.141.895 0l1.552-.776 1.552.776c.281.141.613.141.895 0l1.553-.776 1.553.776c.281.141.613.141.895 0l1.552-.776 1.552.776c.281.141.613.141.895 0l1.553-.776 1.554.776c.281.141.613.141.895 0l1.551-.776 1.553.776c.085.042.179.047.27.063.63 1.013 1.183 2.077 1.635 3.195l-1.458.73-1.553-.776c-.281-.141-.613-.141-.895 0l-1.552.776-1.554-.776c-.281-.141-.613-.141-.895 0l-1.553.776-1.552-.776c-.281-.141-.613-.141-.895 0l-1.554.776-1.553-.776c-.281-.141-.613-.141-.895 0l-1.553.776-1.552-.776c-.281-.141-.613-.141-.895 0l-1.549.776-1.553-.776c-.281-.141-.613-.141-.895 0l-1.552.776-1.554-.776c-.281-.141-.613-.141-.895 0l-1.553.776-1.553-.776c-.281-.141-.613-.141-.895 0l-1.553.776-1.553-.776c-.281-.141-.613-.141-.895 0l-1.549.776-1.469-.734c.451-1.115 1.003-2.175 1.631-3.186zm35.776 21.889-1.491-.745c-.281-.141-.613-.141-.895 0l-1.552.776-1.554-.776c-.281-.141-.613-.141-.895 0l-1.553.776-1.552-.776c-.281-.141-.613-.141-.895 0l-1.554.776-1.553-.776c-.281-.141-.613-.141-.895 0l-1.553.776-1.552-.776c-.281-.141-.613-.141-.895 0l-1.549.776-1.553-.776c-.281-.141-.613-.141-.895 0l-1.552.776-1.554-.776c-.281-.141-.613-.141-.895 0l-1.553.776-1.553-.776c-.281-.141-.613-.141-.895 0l-1.553.776-1.553-.776c-.281-.141-.613-.141-.895 0l-1.5.751c-.889-1.463-1.62-3.03-2.133-4.697l.084-.042 1.553.776c.281.141.613.141.895 0l1.552-.776 1.553.776c.281.141.613.141.895 0l1.553-.776 1.553.776c.281.141.613.141.895 0l1.553-.776 1.554.776c.281.141.613.141.895 0l1.549-.776 1.553.776c.281.141.613.141.895 0l1.552-.776 1.552.776c.281.141.613.141.895 0l1.553-.776 1.553.776c.281.141.613.141.895 0l1.552-.776 1.552.776c.281.141.613.141.895 0l1.553-.776 1.554.776c.281.141.613.141.895 0l1.551-.776 1.553.776c.14.071.294.106.447.106s.307-.035.447-.105l1.553-.778.069.034c-.511 1.668-1.243 3.237-2.131 4.7zm2.506-6.747c-.282-.14-.612-.141-.893.001l-1.551.777-1.553-.776c-.281-.141-.613-.141-.895 0l-1.552.776-1.554-.776c-.281-.141-.613-.141-.895 0l-1.553.776-1.552-.776c-.281-.141-.613-.141-.895 0l-1.554.776-1.553-.776c-.281-.141-.613-.141-.895 0l-1.553.776-1.552-.776c-.281-.141-.613-.141-.895 0l-1.549.776-1.553-.776c-.281-.141-.613-.141-.895 0l-1.552.776-1.554-.776c-.281-.141-.613-.141-.895 0l-1.553.776-1.553-.776c-.281-.141-.613-.141-.895 0l-1.553.776-1.553-.776c-.281-.141-.613-.141-.895 0l-1.549.776-1.554-.776c-.281-.141-.614-.142-.896.001l-.138.069c-.234-1.156-.354-2.352-.389-3.567l.977-.49 1.553.776c.281.141.613.141.895 0l1.552-.776 1.553.776c.281.141.613.141.895 0l1.553-.776 1.553.776c.281.141.613.141.895 0l1.553-.776 1.554.776c.281.141.613.141.895 0l1.549-.777 1.553.776c.281.141.613.141.895 0l1.552-.776 1.552.776c.281.141.613.141.895 0l1.553-.776 1.553.776c.281.141.613.141.895 0l1.552-.776 1.552.776c.281.141.613.141.895 0l1.553-.776 1.554.776c.281.141.613.141.895 0l1.551-.776 1.553.776c.281.141.613.141.895 0l1.552-.776.963.479c-.034 1.217-.154 2.415-.389 3.572zm-29.78 14.682 1.335-.668 1.554.776c.281.141.613.141.895 0l1.552-.776 1.553.776c.281.141.613.141.895 0l1.552-.776 1.552.776c.281.141.613.141.895 0l1.553-.776 1.553.776c.281.141.613.141.895 0l1.552-.776 1.329.665c-2.817 1.405-5.98 2.217-9.336 2.217-3.353 0-6.514-.811-9.329-2.214zm22.395-2.375-.612-.306c-.281-.141-.613-.141-.895 0l-1.553.776-1.552-.776c-.281-.141-.613-.141-.895 0l-1.554.776-1.553-.776c-.281-.141-.613-.141-.895 0l-1.553.776-1.552-.776c-.281-.141-.613-.141-.895 0l-1.55.777-1.553-.776c-.281-.141-.613-.141-.895 0l-1.552.776-1.554-.776c-.281-.141-.613-.141-.895 0l-1.553.776-1.553-.776c-.281-.141-.613-.141-.895 0l-.619.31c-1.414-1.127-2.67-2.437-3.753-3.887l.819-.41 1.553.776c.281.141.613.141.895 0l1.553-.776 1.553.776c.281.141.613.141.895 0l1.553-.776 1.554.776c.281.141.613.141.895 0l1.552-.777 1.553.776c.281.141.613.141.895 0l1.552-.776 1.552.776c.281.141.613.141.895 0l1.553-.776 1.553.776c.281.141.613.141.895 0l1.552-.776 1.552.776c.281.141.613.141.895 0l1.553-.776 1.554.776c.281.141.613.141.895 0l1.551-.776.811.405c-1.083 1.451-2.338 2.76-3.752 3.888zm-5.881-36.118-1.179.589-1.553-.776c-.281-.141-.613-.141-.895 0l-1.553.776-1.552-.776c-.281-.141-.613-.141-.895 0l-1.551.776-1.553-.776c-.281-.141-.613-.141-.895 0l-1.552.776-1.184-.592c2.244-.819 4.654-1.29 7.177-1.29 2.527 0 4.94.472 7.185 1.293zm-18.609 2.11.982.491c.281.141.613.141.895 0l1.553-.776 1.554.776c.281.141.613.141.895 0l1.552-.776 1.553.776c.281.141.613.141.895 0l1.552-.776 1.552.776c.281.141.613.141.895 0l1.553-.776 1.553.776c.281.141.613.141.895 0l1.552-.776 1.552.776c.14.071.294.106.447.106s.307-.035.447-.105l.976-.488c1.579 1.029 3.002 2.268 4.25 3.671-.039.014-.082.009-.119.028l-1.553.776-1.554-.776c-.281-.141-.613-.141-.895 0l-1.553.776-1.552-.776c-.281-.141-.613-.141-.895 0l-1.554.776-1.553-.776c-.281-.141-.613-.141-.895 0l-1.553.776-1.552-.776c-.281-.141-.613-.141-.895 0l-1.549.776-1.553-.776c-.281-.141-.613-.141-.895 0l-1.552.776-1.554-.776c-.281-.141-.613-.141-.895 0l-1.553.776-1.553-.776c-.281-.141-.613-.141-.895 0l-1.553.776-1.553-.776c-.041-.021-.087-.016-.129-.03 1.25-1.405 2.675-2.644 4.254-3.673z"/></g></svg>