<svg id="icons" enable-background="new 0 0 64 64" height="512" viewBox="0 0 64 64" width="512" xmlns="http://www.w3.org/2000/svg"><g><path d="m57.455 39.074c-.188-.188-.441-.293-.707-.293s-.52.105-.707.293l-4.952 4.952-.707-.707 4.952-4.952c.188-.188.293-.441.293-.707s-.105-.52-.293-.707l-5.656-5.656c-.375-.375-1.039-.375-1.414 0l-4.952 4.952-1.417-1.416 4.956-4.956c.391-.391.391-1.023 0-1.414l-2.121-2.121.78-.782c.812.539 1.762.83 2.757.83 1.329 0 2.577-.517 3.52-1.452.005-.005.013-.007.018-.012l1.414-1.414c.391-.391.391-1.023 0-1.414l-4.95-4.951 1.414-1.414c.391-.391.391-1.023 0-1.414s-1.023-.391-1.414 0l-1.414 1.414-4.95-4.949c-.391-.391-1.023-.391-1.414 0l-1.414 1.414c-.945.944-1.466 2.2-1.466 3.535 0 .995.291 1.945.83 2.757l-.781.78-2.121-2.121c-.188-.188-.441-.293-.707-.293s-.52.105-.707.293l-4.955 4.955-1.417-1.416 4.951-4.951c.391-.391.391-1.023 0-1.414l-5.655-5.656c-.188-.188-.441-.293-.707-.293s-.52.105-.707.293l-4.951 4.951-.708-.707 4.951-4.951c.391-.391.391-1.023 0-1.414l-2.826-2.826c0-.001-.001-.002-.001-.002s-.001-.001-.002-.001l-2.828-2.828c-.188-.188-.441-.293-.707-.293s-.52.105-.707.293l-8.485 8.485c-.001 0-.002.001-.002.001s-.001.001-.001.002l-2.825 2.825c-.001 0-.001 0-.002.001s-.001.001-.001.002l-5.65 5.65c-.391.391-.391 1.023 0 1.414l2.826 2.826c0 .001.001.002.001.002s.001.001.002.001l2.826 2.827c.188.188.441.293.707.293s.52-.105.707-.293l2.824-2.824 2.121-2.122.707.708-4.945 4.945c-.188.188-.293.441-.293.707s.105.52.293.707l2.827 2.826c0 .001.001.002.001.002s.001.001.002.001l2.825 2.825c.195.195.451.293.707.293s.512-.098.707-.293l4.945-4.945 1.417 1.418-3.526 3.527c-.001.001-.002.001-.003.002-.567.567-.88 1.32-.88 2.122s.313 1.555.88 2.122c.001.001.002.001.003.002l8.482 8.483c.585.585 1.353.877 2.121.877s1.536-.292 2.121-.877l3.529-3.529 1.417 1.417-4.944 4.944c-.391.391-.391 1.023 0 1.414l2.826 2.826c0 .001.001.002.001.002s.001.001.002.001l2.826 2.827c.188.188.441.293.707.293s.52-.105.707-.293l4.945-4.945.707.707-4.945 4.945c-.391.391-.391 1.023 0 1.414l5.655 5.656c.188.188.441.293.707.293s.52-.105.707-.293l16.968-16.965c.391-.391.391-1.023 0-1.414zm-.707 2.121 1.413 1.414-1.417 1.417-1.413-1.414zm-.003 8.487-1.414-1.414 1.413-1.413 1.414 1.414zm-2.828 2.828-1.414-1.414 1.414-1.414 1.414 1.414zm-2.828 2.828-1.413-1.414 1.413-1.414 1.414 1.414zm-2.827 2.827-1.414-1.413 1.414-1.414 1.413 1.414zm-1.414-7.069 1.414-1.414 1.413 1.414-1.413 1.414zm5.655-2.828-1.414 1.414-1.413-1.414 1.413-1.413zm1.414-1.414-1.41-1.41-.003-.004 1.413-1.413 1.413 1.414zm-13.434-4.949 1.414 1.414-1.413 1.413-1.414-1.413zm1.414-1.414 1.414-1.414 1.414 1.414-1.414 1.414zm1.415 4.242 1.414 1.414-1.413 1.413-1.414-1.414zm2.828 0-1.414-1.414 1.414-1.414 1.414 1.414zm1.414-4.242 1.413-1.413 1.414 1.414-1.413 1.413zm4.241-1.413-1.414-1.414 1.418-1.418 1.414 1.414zm-2.824-5.66 1.414 1.414-1.418 1.418-1.414-1.414zm-2.832 2.832 1.414 1.414-1.413 1.413-1.414-1.414zm.007-12.74-5.656-5.656c-.567-.567-.88-1.32-.88-2.121s.313-1.554.88-2.121l.707-.707 9.9 9.9-.699.699c-.003.003-.006.003-.009.006-1.134 1.134-3.108 1.136-4.243 0zm-6.364-3.535 4.242 4.242-.709.711-4.243-4.244zm-16.274 2.127-1.413-1.413 1.414-1.415 1.414 1.414zm-5.655-2.828 1.414 1.413-1.413 1.413-1.414-1.413zm1.414-1.414 1.415-1.415 1.413 1.414-1.414 1.414zm1.414 4.243 1.413 1.413-1.413 1.412-1.413-1.413zm4.242-4.244 1.413-1.413 1.414 1.413-1.413 1.414zm4.241-1.413-1.414-1.414 1.417-1.417 1.414 1.414zm-2.824-5.659 1.413 1.414-1.417 1.417-1.414-1.413zm-2.832 2.832 1.414 1.413-1.413 1.413-1.413-1.414zm-13.432 6.361-1.414-1.414 1.414-1.414 1.413 1.414zm-2.828-5.656 1.414 1.414-1.414 1.414-1.413-1.414zm2.828-2.828 1.414 1.414-1.414 1.414-1.414-1.414zm2.827-2.826 1.414 1.413-1.413 1.413-1.414-1.414zm2.828-2.828 1.414 1.413-1.414 1.414-1.414-1.413zm2.825 5.65-1.41-1.409 1.414-1.414 1.413 1.414-1.413 1.413zm-5.655 5.656c-.002-.002-.004-.002-.006-.004l-1.405-1.406 1.414-1.414 1.413 1.414-1.413 1.413zm2.83-2.824-1.413-1.414 1.413-1.413 1.414 1.413zm5.656-5.655-1.413-1.414 1.417-1.417 1.413 1.414zm-2.824-5.659 1.414 1.414-1.417 1.417-1.414-1.413zm-14.142 14.142 1.413 1.414-1.41 1.41-1.413-1.414zm2.831 5.653-1.414-1.414 1.41-1.41 1.414 1.414zm7.066-4.24 4.241-4.241.708.707-2.119 2.119c-.001.001-.002.001-.003.002s-.001.002-.002.003l-2.118 2.118zm2.121 4.95-1.414 1.415-1.414-1.414 1.414-1.414zm-4.242 1.415 1.414 1.414-1.41 1.41-1.414-1.414zm2.831 5.65-1.413-1.412 1.41-1.41 1.413 1.412zm2.825-2.824-1.413-1.412 1.414-1.415 1.413 1.413zm4.242-1.414 2.12-2.119 2.122-2.121 1.417 1.416-4.242 4.242zm6.373 17.676-8.483-8.484c-.001-.001-.001-.002-.002-.003-.189-.188-.294-.439-.294-.706s.104-.518.294-.706c.001-.001.001-.002.002-.003l14.845-14.846 2.103 2.103c.006.007.008.016.015.022s.016.009.022.015l5.639 5.639v.001s0 0 .001 0l2.12 2.121-14.848 14.847c-.391.39-1.024.39-1.414 0zm7.771-3.53 4.241-4.241 1.417 1.417-4.241 4.241zm2.831 5.658-1.414 1.414-1.413-1.414 1.413-1.413zm-4.241 1.415 1.413 1.414-1.41 1.41-1.413-1.414zm2.831 5.652-1.414-1.414 1.41-1.41 1.414 1.414zm2.824-2.824-1.414-1.414 1.414-1.414 1.414 1.414zm8.484-5.656.707.707-2.118 2.118c-.001.001-.002.001-.003.002s-.001.002-.002.003l-2.118 2.118-.707-.707zm-3.531 7.781c.001.001.002.001.003.002l1.408 1.408-1.414 1.414-1.414-1.414 1.414-1.414zm-2.832 2.824 1.414 1.414-1.41 1.41-1.414-1.414zm2.832 5.652-1.413-1.414 1.41-1.41 1.414 1.413zm14.135-14.136-1.414-1.414 1.417-1.417 1.414 1.414z"/><path d="m31.295 41.189 9.898-9.898c.188-.188.293-.441.293-.707s-.105-.52-.293-.707l-7.071-7.07c-.391-.391-1.023-.391-1.414 0l-9.898 9.898c-.188.188-.293.441-.293.707s.105.52.293.707l7.071 7.07c.195.195.451.293.707.293s.512-.097.707-.293zm-6.364-7.777 8.484-8.484 5.657 5.656-8.484 8.484z"/><path d="m31.603 30.594c0-.553-.448-1-1-1h-.011c-.552 0-.994.447-.994 1s.452 1 1.005 1c.551 0 1-.448 1-1z"/></g></svg>