<svg id="icons" enable-background="new 0 0 64 64" height="64" viewBox="0 0 64 64" width="64" xmlns="http://www.w3.org/2000/svg"><g><g><g><path d="m40.002 64c-.553 0-1-.447-1-1v-6.986h-28v6.986c0 .553-.447 1-1 1s-1-.447-1-1v-7.986c0-.553.447-1 1-1h30c.553 0 1 .447 1 1v7.986c0 .553-.447 1-1 1z"/></g><g><g><path d="m41.775 46.001c-7.152 0-13.875-2.786-18.933-7.845-5.06-5.057-7.846-11.779-7.846-18.932s2.787-13.874 7.847-18.931c.391-.391 1.023-.391 1.414 0s.391 1.024 0 1.414c-4.682 4.679-7.26 10.9-7.26 17.518s2.578 12.839 7.26 17.518c4.679 4.681 10.9 7.259 17.518 7.259 6.619 0 12.838-2.578 17.517-7.259.392-.392 1.022-.392 1.414 0 .392.39.392 1.022 0 1.413-5.058 5.059-11.779 7.845-18.931 7.845z"/></g><g><path d="m59.998 38.449c-.256 0-.512-.098-.707-.293l-36.447-36.449c-.391-.391-.391-1.023 0-1.414s1.023-.391 1.414 0l36.447 36.449c.391.391.391 1.023 0 1.414-.195.196-.451.293-.707.293z"/></g><g><path d="m41.775 20.225c-.256 0-.512-.098-.707-.293-.392-.391-.392-1.023 0-1.414l4.223-4.225c.391-.391 1.023-.391 1.414 0s.391 1.023 0 1.414l-4.223 4.225c-.195.195-.451.293-.707.293z"/></g></g><g><path d="m10.001 56.014c-.204 0-.409-.062-.587-.191-.446-.323-.546-.948-.221-1.395l8-11.013c.323-.446.948-.548 1.396-.222.446.324.546.949.221 1.396l-8 11.012c-.195.27-.499.413-.809.413z"/></g><g><path d="m14.001 56.014c-.204 0-.409-.062-.587-.191-.446-.323-.546-.948-.221-1.395l8-11.013c.324-.446.948-.548 1.396-.222.446.324.546.949.221 1.396l-8 11.012c-.195.27-.499.413-.809.413z"/></g><g><path d="m36.003 56.014c-.31 0-.614-.143-.81-.412l-8-11.012c-.325-.447-.226-1.072.221-1.396.447-.323 1.072-.227 1.396.222l8 11.013c.324.446.226 1.071-.222 1.395-.176.127-.381.19-.585.19z"/></g><g><path d="m40.003 56.014c-.31 0-.614-.143-.81-.412l-8-11.012c-.325-.447-.226-1.072.221-1.396.447-.323 1.072-.227 1.396.222l8 11.013c.324.446.226 1.071-.222 1.395-.176.127-.381.19-.585.19z"/></g><g><path d="m22.002 56.014c-.553 0-1-.447-1-1v-11.012c0-.553.447-1 1-1s1 .447 1 1v11.012c0 .552-.447 1-1 1z"/></g><g><path d="m28.002 56.014c-.553 0-1-.447-1-1v-11.012c0-.553.447-1 1-1s1 .447 1 1v11.012c0 .552-.447 1-1 1z"/></g><g><path d="m32.002 45.002h-14c-.553 0-1-.447-1-1s.447-1 1-1h14c.553 0 1 .447 1 1s-.447 1-1 1z"/></g><g><path d="m22.205 36.998h-4.203c-.553 0-1-.447-1-1s.447-1 1-1h4.203c.553 0 1 .447 1 1s-.447 1-1 1z"/></g><g><path d="m18.002 45.002c-.553 0-1-.447-1-1v-8.004c0-.553.447-1 1-1s1 .447 1 1v8.004c0 .553-.447 1-1 1z"/></g><g><path d="m26.514 41h-8.512c-.553 0-1-.447-1-1s.447-1 1-1h8.512c.553 0 1 .447 1 1s-.448 1-1 1z"/></g><g><path d="m46.002 64h-42c-.553 0-1-.447-1-1s.447-1 1-1h42c.553 0 1 .447 1 1s-.447 1-1 1z"/></g><g><path d="m49.996 15.998c-.553 0-1-.447-1-1 0-1.654-1.346-3-3-3-.553 0-1-.447-1-1s.447-1 1-1c2.757 0 5 2.243 5 5 0 .553-.447 1-1 1z"/></g><g><path d="m53.996 15.998c-.553 0-1-.447-1-1 0-3.859-3.141-7-7-7-.553 0-1-.447-1-1s.447-1 1-1c4.963 0 9 4.037 9 9 0 .553-.447 1-1 1z"/></g><g><path d="m57.996 15.998c-.553 0-1-.447-1-1 0-6.065-4.936-11-11-11-.553 0-1-.447-1-1s.447-1 1-1c7.168 0 13 5.832 13 13 0 .553-.447 1-1 1z"/></g></g><g><path d="m32.002 45.002c-.553 0-1-.447-1-1v-.921c0-.554.447-1 1-1s1 .446 1 1v.921c0 .553-.447 1-1 1z"/></g></g></svg>