<svg id="icons" enable-background="new 0 0 64 64" height="64" viewBox="0 0 64 64" width="64" xmlns="http://www.w3.org/2000/svg"><g><g><g><path d="m14.238 28.842c-.408 0-.792-.252-.939-.658l-2.736-7.518c-.091-.249-.079-.524.033-.765s.315-.426.564-.517l41.34-15.046c.52-.188 1.093.078 1.281.598l2.736 7.518c.09.249.078.524-.033.765-.112.241-.315.426-.564.517l-41.34 15.045c-.112.041-.228.061-.342.061zm-1.455-7.92 2.053 5.639 39.461-14.363-2.053-5.639z"/></g><g><path d="m55.578 13.795c-.418 0-.795-.261-.939-.658l-2.736-7.518c-.154-.419-.008-.889.352-1.151l5.894-4.275c.254-.184.576-.238.879-.146.301.092.539.319.646.614l4.105 11.279c.107.295.07.623-.102.886-.171.264-.455.432-.769.453l-7.263.514c-.02.001-.043.002-.067.002zm-1.539-8.151 2.221 6.101 5.188-.367-3.2-8.788z"/></g><g><path d="m1.16 25.09c-.408 0-.792-.252-.939-.658-.189-.519.078-1.093.598-1.281l10.342-3.766c.517-.189 1.093.079 1.281.598.189.519-.078 1.093-.598 1.281l-10.342 3.765c-.112.041-.229.061-.342.061z"/></g><g><path d="m6.284 27.479c-.142 0-.285-.03-.422-.094l-5.125-2.389c-.5-.233-.717-.828-.483-1.329.234-.499.83-.716 1.329-.483l5.125 2.389c.5.233.717.828.483 1.329-.17.363-.53.577-.907.577z"/></g><g><path d="m6.285 27.479c-.408 0-.792-.252-.939-.658-.189-.519.078-1.093.598-1.281l6.586-2.396c.517-.188 1.093.078 1.281.598.189.519-.078 1.093-.598 1.281l-6.586 2.396c-.112.04-.229.06-.342.06z"/></g><g><path d="m3.039 24.404c-.408 0-.792-.252-.939-.657l-1.37-3.758c-.091-.25-.079-.525.033-.766s.315-.427.564-.517l2.82-1.025c.522-.189 1.093.079 1.281.598l1.367 3.758c.091.249.079.524-.033.765s-.315.426-.564.517l-2.818 1.025c-.111.041-.228.06-.341.06zm-.087-4.16.685 1.879.939-.342-.684-1.879z"/></g><g><path d="m14.314 20.301c-.145 0-.289-.031-.423-.094-.24-.112-.426-.315-.517-.564l-1.025-2.818c-.189-.519.078-1.093.598-1.281l5.639-2.053c.249-.091.523-.079.765.033.24.112.426.315.517.564l1.025 2.818c.189.519-.078 1.093-.598 1.281l-5.639 2.053c-.11.04-.226.061-.342.061zm.256-3.221.342.938 3.76-1.368-.342-.938z"/></g><g><path d="m16.109 16.455c-.408 0-.792-.252-.939-.657l-1.027-2.818c-.189-.52.078-1.093.597-1.282.518-.188 1.093.078 1.282.597l1.027 2.818c.189.52-.078 1.093-.597 1.282-.113.041-.228.06-.343.06z"/></g><g><path d="m13.203 14.32c-.408 0-.792-.252-.939-.658-.189-.52.079-1.093.598-1.281l3.76-1.367c.522-.188 1.093.078 1.281.598.189.52-.079 1.093-.598 1.281l-3.76 1.367c-.113.041-.229.06-.342.06z"/></g><g><path d="m30.633 27.133c-.145 0-.289-.031-.423-.094-.24-.112-.427-.315-.517-.564l-1.367-3.76c-.189-.519.078-1.093.598-1.281l8.453-3.078c.52-.189 1.094.079 1.281.598l1.369 3.76c.091.249.078.523-.033.765-.112.24-.314.426-.564.517l-8.455 3.078c-.111.038-.227.059-.342.059zm-.086-4.162.684 1.88 6.576-2.394-.686-1.88z"/></g></g><g><path d="m32 35.01c-.553 0-1-.447-1-1v-8.375c0-.553.447-1 1-1s1 .447 1 1v8.375c0 .553-.447 1-1 1z"/></g><g><path d="m38 35.01c-.553 0-1-.447-1-1v-10.559c0-.553.447-1 1-1s1 .447 1 1v10.559c0 .553-.447 1-1 1z"/></g><g><path d="m38 32.004c-.553 0-1-.447-1-1 0-1.103-.896-2-2-2s-2 .897-2 2c0 .553-.447 1-1 1s-1-.447-1-1c0-2.206 1.794-4 4-4s4 1.794 4 4c0 .553-.447 1-1 1z"/></g><g><path d="m42.501 35.01h-15.002c-.553 0-1-.447-1-1s.447-1 1-1h15.002c.554 0 1 .447 1 1s-.446 1-1 1z"/></g><g><path d="m42.501 38.008h-15.002c-.553 0-1-.447-1-1s.447-1 1-1h15.002c.554 0 1 .447 1 1s-.446 1-1 1z"/></g><g><path d="m27.502 38.008c-1.378 0-2.499-1.121-2.499-2.498 0-1.379 1.121-2.5 2.499-2.5.553 0 1 .447 1 1s-.447 1-1 1c-.275 0-.499.225-.499.5 0 .274.224.498.499.498.553 0 1 .447 1 1s-.447 1-1 1z"/></g><g><path d="m42.501 38.008c-.553 0-1-.447-1-1s.447-1 1-1c.274 0 .499-.224.499-.498 0-.275-.225-.5-.499-.5-.553 0-1-.447-1-1s.447-1 1-1c1.378 0 2.499 1.121 2.499 2.5 0 1.377-1.121 2.498-2.499 2.498z"/></g><g><path d="m32 32.004h-7c-.553 0-1-.447-1-1s.447-1 1-1h7c.553 0 1 .447 1 1s-.447 1-1 1z"/></g><g><path d="m35.027 32.012c-.553 0-1.004-.447-1.004-1s.441-1 .994-1h.01c.553 0 1 .447 1 1s-.447 1-1 1z"/></g><g><path d="m36.496 63.998h-2.999c-.554 0-1-.447-1-1v-25.992c0-.553.446-1 1-1h2.999c.553 0 1 .447 1 1v25.992c0 .553-.447 1-1 1zm-1.999-2h.999v-23.992h-.999z"/></g><g><path d="m55.535 63.998c-.006 0-.014 0-.02 0h-3c-.367 0-.705-.202-.879-.525l-14.013-25.993c-.167-.311-.159-.686.021-.987s.506-.487.857-.487h2.999c.368 0 .706.202.88.525l13.93 25.836c.142.172.225.392.225.631 0 .553-.447 1-1 1zm-2.422-2h.728l-12.937-23.992h-.728z"/></g><g><path d="m17.483 63.998h-2.999c-.353 0-.678-.186-.858-.486-.181-.304-.188-.679-.021-.988l14.014-25.992c.174-.322.512-.524.88-.524h2.999c.353 0 .678.187.858.487.181.303.188.678.021.986l-14.014 25.992c-.174.323-.511.525-.88.525zm-1.324-2h.728l12.936-23.992h-.728z"/></g><g><path d="m33.497 52.002h-9.546c-.553 0-1-.447-1-1s.447-1 1-1h9.546c.553 0 1 .447 1 1s-.447 1-1 1z"/></g><g><path d="m46.049 52.002h-9.488c-.554 0-1-.447-1-1s.446-1 1-1h9.488c.553 0 1 .447 1 1s-.447 1-1 1z"/></g></g></svg>