<svg id="icons" enable-background="new 0 0 64 64" height="512" viewBox="0 0 64 64" width="512" xmlns="http://www.w3.org/2000/svg"><g><path d="m33.144 37.018c-.008-.001-.013-.006-.021-.007l-8-1.001c-.557-.063-1.047.32-1.116.868-.068.548.32 1.048.868 1.116l4.516.565c-.638.668-1.1 1.505-1.291 2.443h-3.101c-.553 0-1 .447-1 1s.447 1 1 1h3.101c.191.938.653 1.775 1.291 2.443l-4.516.565c-.548.068-.937.568-.868 1.116.063.506.494.876.991.876.041 0 .083-.003.125-.008l8-1.001c.008-.001.013-.006.021-.007 2.688-.078 4.855-2.278 4.855-4.985s-2.167-4.905-4.855-4.983zm-.145 7.985c-1.654 0-3-1.346-3-3s1.346-3 3-3 3 1.346 3 3-1.346 3-3 3z"/><path d="m58.216 25.55c-1.391-5.648-4.562-10.603-8.884-14.231-.029-.032-.064-.057-.098-.085-4.679-3.89-10.687-6.234-17.234-6.234-12.665 0-23.315 8.768-26.216 20.55-4.757 2.297-5.784 4.762-5.784 6.449 0 2.406 2.086 4.619 5.778 6.425 2.891 11.796 13.548 20.576 26.222 20.576 12.675 0 23.333-8.782 26.223-20.579 3.521-1.695 5.777-3.847 5.777-6.422 0-1.687-1.027-4.152-5.784-6.449zm-1.72 1.443h-10.476c-.007 0-.013-.004-.02-.004-.552 0-1-.447-1-.998 0-.552.448-1 1-1 .553 0 1-.447 1-1s-.447-1-1-1h-7.007c-.552 0-1-.448-1-1s.448-1 1-1c.553 0 1-.447 1-1s-.447-1-1-1h-5.005c-.552 0-1-.448-1-1s.448-1 1-1h8.003.002s.002 0 .003 0c.553 0 1-.447 1-1s-.447-1-1-1c-.552 0-1-.448-1-1s.448-1 1-1h6.215c4.162 3.555 7.15 8.444 8.285 14.002zm-43.509-.991c.552 0 1 .448 1 1s-.448 1-1 1c-.553 0-1 .447-1 1s.447 1 1 1h5.003c.552 0 1 .448 1 1s-.448 1-1 1h-10.99c0-.001 0-.001 0-.002 0-2.067.257-4.075.732-5.998zm-10.987 5.997c0-1.303 1.163-2.66 3.287-3.916-.186 1.279-.287 2.587-.287 3.917 0 .299.013.594.022.89-.004.039-.022.072-.022.112 0 .051.021.095.029.145.039.931.125 1.85.256 2.755-2.164-1.291-3.285-2.66-3.285-3.903zm30 25.001c-11.2 0-20.703-7.403-23.874-17.572 3.612 1.372 8.279 2.431 13.766 3.034.037.004.074.006.11.006.504 0 .937-.379.993-.891.061-.549-.336-1.043-.885-1.104-6.353-.698-11.232-1.969-14.602-3.443-.203-.988-.34-2.001-.422-3.028h10.904c1.654 0 3-1.346 3-3s-1.346-3-3-3h-2.188c.112-.314.185-.647.185-1 0-1.652-1.343-2.996-2.994-2.999-.001 0-.002-.001-.003-.001h-4.671c3.345-9.873 12.693-17.002 23.681-17.002 4.981 0 9.623 1.471 13.525 3.991h-3.529c-1.654 0-3 1.346-3 3 0 .353.072.686.185 1h-5.192c-1.654 0-3 1.346-3 3s1.346 3 3 3h2.189c-.112.314-.185.647-.185 1 0 1.654 1.346 3 3 3h4.191c-.112.314-.185.647-.185 1 0 1.64 1.325 2.973 2.961 2.994.014.001.025.008.039.008h10.813c.12.986.188 1.988.188 3.007 0 1.722-.175 3.403-.508 5.028-3.729 1.634-9.3 3.013-16.578 3.638-.55.047-.958.531-.91 1.082.045.521.481.914.995.914.028 0 .058-.001.087-.004 5.679-.488 11.379-1.585 15.791-3.242-3.167 10.175-12.673 17.584-23.877 17.584zm26.714-21.098c.185-1.274.286-2.577.286-3.902 0-1.33-.101-2.638-.287-3.917 2.124 1.256 3.287 2.613 3.287 3.916 0 1.245-1.119 2.614-3.286 3.903z"/></g></svg>