<svg id="icons" enable-background="new 0 0 64 64" height="512" viewBox="0 0 64 64" width="512" xmlns="http://www.w3.org/2000/svg"><g><path d="m32 0c-11.987 0-22.451 6.63-27.932 16.412-.054.073-.104.147-.136.234-2.504 4.561-3.932 9.793-3.932 15.354 0 17.645 14.355 32 32 32 7.053 0 13.577-2.299 18.872-6.18.06-.039.124-.072.173-.123 5.413-4.022 9.517-9.711 11.545-16.301.004-.01.005-.021.009-.03.909-2.964 1.401-6.108 1.401-9.366 0-17.645-14.355-32-32-32zm29.975 31h-8c-.51-11.337-9.638-20.465-20.975-20.975v-8c15.747.52 28.455 13.228 28.975 28.975zm-28.975-8.949c4.717.471 8.479 4.232 8.949 8.949h-8.949zm10.949 8.949c-.483-5.819-5.13-10.466-10.949-10.949v-8c10.229.51 18.439 8.72 18.949 18.949zm-38.464-13.013h10.515c.552 0 1 .448 1 1s-.448 1-1 1c-.553 0-1 .447-1 1s.447 1 1 1h.003s.001 0 .002 0h9.004c.552 0 1 .448 1 1s-.448 1-1 1h-6.006c-.553 0-1 .447-1 1s.447 1 1 1c.552 0 1 .448 1 1s-.448 1-1 1h-9.003c-.553 0-1 .447-1 1 0 .003.002.005.002.007 0 .003-.002.005-.002.008 0 .553.447 1 1 1 .552 0 1 .448 1 1 0 .529-.416.953-.938.987h-.062c-.553 0-1 .447-1 1 0 .002.001.004.001.007 0 .002-.001.004-.001.006 0 .553.447 1 1 1 .043 0 .083-.011.126-.013h3.872c.552 0 1 .448 1 1s-.448 1-1 1h-11.725c-.174-1.306-.273-2.635-.273-3.989 0-5.06 1.264-9.827 3.485-14.013zm-2.883 20.002h11.396c1.654 0 3-1.346 3-3s-1.346-3-3-3h-1.179c.11-.31.181-.639.181-.987 0-.357-.073-.696-.188-1.015h6.191c1.654 0 3-1.346 3-3 0-.353-.072-.686-.185-1h3.19c1.654 0 3-1.346 3-3s-1.346-3-3-3h-6.193c.112-.314.185-.647.185-1 0-1.654-1.346-3-3-3h-9.35c5.156-8.133 14.11-13.624 24.35-13.962v29.975c0 .553.447 1 1 1h29.975c-.08 2.417-.445 4.761-1.066 7.002h-31.912c-.001 0-.002.001-.003.001-1.651.003-2.994 1.347-2.994 2.999 0 1.654 1.346 3 3 3h8.186c-.112.314-.185.647-.185 1s.072.686.185 1h-2.185c-1.654 0-3 1.346-3 3s1.346 3 3 3h7.185c-.112.314-.185.647-.185 1 0 1.654 1.346 3 3 3h1.933c-4.401 2.538-9.498 3.998-14.934 3.998-14.491 0-26.615-10.329-29.398-24.011zm47.375 18.013h-4.976c-.552 0-1-.448-1-1s.448-1 1-1c.553 0 1-.447 1-1s-.447-1-1-1h-10c-.552 0-1-.448-1-1s.448-1 1-1h5c.553 0 1-.447 1-1s-.447-1-1-1c-.552 0-1-.448-1-1s.448-1 1-1c.553 0 1-.447 1-1s-.447-1-1-1c-.001 0-.001 0-.002 0h-.001-10.998c-.552 0-1-.448-1-1s.448-1 1-1h31.279c-1.995 5.623-5.616 10.481-10.302 14z"/></g></svg>