<svg id="icons" enable-background="new 0 0 64 64" height="512" viewBox="0 0 64 64" width="512" xmlns="http://www.w3.org/2000/svg"><g><path d="m4.001 13.98v1c0 .552.447 1 1 1s1-.448 1-1v-1c.553 0 1-.448 1-1s-.447-1-1-1v-1c0-.552-.447-1-1-1s-1 .448-1 1v1c-.553 0-1 .448-1 1s.447 1 1 1z"/><path d="m55.005 60.979c.553 0 1-.447 1-1v-1c.553 0 1-.447 1-1s-.447-1-1-1v-1c0-.553-.447-1-1-1s-1 .447-1 1v1c-.553 0-1 .447-1 1s.447 1 1 1v1c0 .552.447 1 1 1z"/><path d="m62.029 41.012c.552 0 1-.447 1-1s-.448-1-1-1h-.011c-.552 0-.994.447-.994 1s.453 1 1.005 1z"/><path d="m2.031 38.984c.552 0 1-.447 1-1s-.448-1-1-1h-.01c-.552 0-.994.447-.994 1s.452 1 1.004 1z"/><path d="m30.032 3.979c.552 0 1-.448 1-1s-.448-1-1-1h-.011c-.552 0-.994.448-.994 1s.452 1 1.005 1z"/><path d="m30.021 60.021c-.552 0-.994.447-.994 1s.452 1 1.005 1c.552 0 1-.447 1-1s-.448-1-1-1z"/><path d="m6.006 52.982c0-.553-.447-1-1-1s-1 .447-1 1c0 2.732 1.6 5.178 4.032 6.32.164 1.501 1.424 2.678 2.968 2.678 1.654 0 3-1.346 3-3s-1.346-3-3-3c-1.036 0-1.951.528-2.49 1.33-1.528-.879-2.51-2.516-2.51-4.328zm5 4.998c.552 0 1 .448 1 1s-.448 1-1 1-1-.448-1-1 .448-1 1-1z"/><path d="m56.006 10.979c2.206 0 4-1.794 4-4s-1.794-4-4-4-4 1.794-4 4 1.794 4 4 4zm0-6c1.103 0 2 .897 2 2s-.897 2-2 2-2-.897-2-2 .897-2 2-2z"/><path d="m16.16 48.646c.039.045.08.083.127.121 4.115 3.861 9.645 6.233 15.72 6.233 12.683 0 23-10.317 23-23 0-12.682-10.317-23-23-23s-23 10.318-23 23c0 6.544 2.752 12.454 7.153 16.646zm3.838-11.643c.552 0 1 .449 1 1.001s-.448 1-1 1c-.553 0-1 .447-1 1s.447 1 1 1h.003s.001 0 .002 0h5c.552 0 1 .448 1 1s-.448 1-1 1c-.553 0-1 .447-1 1s.447 1 1 1h4.004c.552 0 1 .448 1 1s-.448 1-1 1h-11.664c-2.756-2.694-4.76-6.141-5.708-10.001zm32.616-1.003h-15.611c-.552 0-1-.448-1-1s.448-1 1-1h4.004c.553 0 1-.447 1-1 0 0 0-.001 0-.002s0-.001 0-.002c0-.552-.447-1-1-1-.552 0-1-.448-1-.998 0-.551.448-1 1-1 .553 0 1-.448 1-1s-.447-1-1-1h-10.01c-.552 0-1-.449-1-1s.448-1 1-1c.553 0 1-.448 1-1s-.447-1-1-1h-6.006c-.552 0-1-.449-1-1s.448-1 1-1h9.004.002s.002 0 .003 0c.553 0 1-.448 1-1s-.447-1-1-1c-.552 0-1-.449-1-1s.448-1 1-1h13.613c3.341 3.72 5.394 8.62 5.394 14.002 0 1.368-.142 2.704-.393 4zm-20.607-25c5.171 0 9.903 1.888 13.566 4.998h-11.573c-1.654 0-3 1.346-3 3 0 .353.072.686.185 1h-6.193c-1.654 0-3 1.346-3 3s1.346 3 3 3h3.19c-.112.314-.185.647-.185 1 0 1.654 1.346 3 3 3h7.194c-.112.314-.185.647-.185 1s.072.687.185 1.002h-1.188c-1.654 0-3 1.346-3 3s1.346 3 3 3h15.119c-2.589 8.663-10.622 15-20.115 15-4.584 0-8.816-1.493-12.273-3.996h9.273c1.654 0 3-1.346 3-3s-1.346-3-3-3h-1.188c.112-.314.185-.647.185-1 0-1.654-1.346-3-3-3h-2.189c.112-.314.185-.647.185-1 0-1.654-1.346-3.001-3-3.001h-8.751c-.142-.983-.24-1.98-.24-3.003-.002-11.58 9.419-21 20.998-21z"/></g></svg>