<svg id="icons" enable-background="new 0 0 64 64" height="64" viewBox="0 0 64 64" width="64" xmlns="http://www.w3.org/2000/svg"><g><g><g><path d="m63 55.5h-62c-.369 0-.708-.203-.882-.527-.174-.326-.154-.721.05-1.027l10-15c.305-.459.925-.584 1.387-.276.46.308.584.927.277 1.388l-8.964 13.442h58.264l-8.964-13.445c-.307-.459-.184-1.08.277-1.387.459-.307 1.08-.182 1.387.277l10 15c.204.307.225.701.05 1.025-.174.326-.513.53-.882.53z"/></g><g><path d="m63 59.5h-62c-.553 0-1-.447-1-1v-4c0-.553.447-1 1-1h62c.553 0 1 .447 1 1v4c0 .553-.447 1-1 1zm-61-2h60v-2h-60z"/></g><g><path d="m9.849 55.5c-.144 0-.29-.031-.43-.098-.498-.237-.71-.834-.472-1.334l5.243-11c.236-.496.829-.711 1.333-.471.498.236.71.834.472 1.332l-5.243 11c-.171.361-.529.571-.903.571z"/></g><g><path d="m20.134 50.5c-.092 0-.185-.014-.276-.039-.531-.152-.838-.706-.686-1.236l1.434-5c.151-.531.711-.836 1.236-.686.531.152.838.706.686 1.236l-1.434 5c-.125.44-.526.725-.96.725z"/></g><g><path d="m54.15 55.5c-.373 0-.731-.21-.902-.568l-1.908-4.002c-.238-.5-.025-1.097.473-1.334.502-.24 1.097-.025 1.332.473l1.908 4.002c.238.498.026 1.096-.472 1.332-.14.066-.286.097-.431.097z"/></g><g><path d="m50.335 47.495c-.374 0-.731-.21-.903-.569l-3.334-6.994c-.238-.5-.025-1.097.473-1.334.503-.24 1.097-.025 1.332.473l3.334 6.994c.238.5.027 1.097-.471 1.334-.141.065-.287.096-.431.096z"/></g><g><path d="m43.866 50.5c-.435 0-.834-.285-.96-.725l-1.434-5c-.152-.53.153-1.084.686-1.236.527-.148 1.084.152 1.236.686l1.434 5c.152.53-.154 1.084-.686 1.236-.091.025-.184.039-.276.039z"/></g><g><path d="m15.094 44.5h-6.761c-.553 0-1-.447-1-1s.447-1 1-1h6.761c.553 0 1 .447 1 1s-.448 1-1 1z"/></g><g><path d="m60.333 51.5h-8.089c-.553 0-1-.447-1-1s.447-1 1-1h8.089c.554 0 1 .447 1 1s-.446 1-1 1z"/></g><g><path d="m57.667 47.5h-7.33c-.553 0-1-.447-1-1s.447-1 1-1h7.33c.554 0 1 .447 1 1s-.446 1-1 1z"/></g><g><path d="m30 45.5h-8.434c-.553 0-1-.447-1-1s.447-1 1-1h8.434c.553 0 1 .447 1 1s-.447 1-1 1z"/></g><g><path d="m42.434 45.5h-8.341c-.553 0-1-.447-1-1s.447-1 1-1h8.341c.553 0 1 .447 1 1s-.448 1-1 1z"/></g><g><path d="m43.867 50.5h-23.734c-.553 0-1-.447-1-1s.447-1 1-1h23.734c.553 0 1 .447 1 1s-.447 1-1 1z"/></g><g><path d="m32 47.5c-.235 0-.471-.083-.659-.248-.626-.549-15.341-13.593-15.341-26.752 0-8.822 7.178-16 16-16s16 7.178 16 16c0 13.159-14.715 26.203-15.341 26.752-.188.165-.424.248-.659.248zm0-41c-7.72 0-14 6.28-14 14 0 10.734 11.144 21.943 14 24.641 2.855-2.695 14-13.906 14-24.641 0-7.72-6.279-14-14-14z"/></g><g><path d="m25.427 40.5h-14.427c-.553 0-1-.447-1-1s.447-1 1-1h14.427c.553 0 1 .447 1 1s-.448 1-1 1z"/></g><g><path d="m53 40.5h-14.428c-.553 0-1-.447-1-1s.447-1 1-1h14.428c.553 0 1 .447 1 1s-.447 1-1 1z"/></g></g><g><g><path d="m34.996 17.08c-.553 0-1-.447-1-1 0-1.438-.771-2.754-2-3.463-1.228.709-2 2.024-2 3.463 0 .553-.447 1-1 1s-1-.447-1-1c0-2.384 1.413-4.542 3.6-5.497.256-.111.545-.111.801 0 2.187.954 3.6 3.112 3.6 5.497-.001.553-.448 1-1.001 1z"/></g><g><path d="m28.996 30.501c-.553 0-1-.447-1-1v-13.421c0-.553.447-1 1-1s1 .447 1 1v13.421c0 .553-.447 1-1 1z"/></g><g><path d="m35 30.501c-.553 0-1-.447-1-1v-13.421c0-.553.447-1 1-1s1 .447 1 1v13.421c0 .553-.447 1-1 1z"/></g><g><path d="m35 33.501h-6.004c-.553 0-1-.446-1-1v-3c0-.553.447-1 1-1h6.004c.553 0 1 .447 1 1v3c0 .554-.447 1-1 1zm-5.004-2h4.004v-1h-4.004z"/></g><g><path d="m32 30.501c-.553 0-1-.447-1-1v-5.001c0-.553.447-1 1-1s1 .447 1 1v5.001c0 .553-.447 1-1 1z"/></g><g><path d="m38.999 28.501c-.209 0-.419-.065-.601-.2l-4-3.001c-.44-.331-.53-.958-.198-1.4.332-.441.957-.53 1.399-.199l4 3.001c.441.331.531.958.199 1.4-.194.261-.495.399-.799.399z"/></g><g><path d="m39 30.502c-.553 0-1-.447-1-1v-2.001c0-.553.447-1 1-1s1 .447 1 1v2.001c0 .553-.447 1-1 1z"/></g><g><path d="m39 30.502h-4c-.553 0-1-.447-1-1s.447-1 1-1h4c.553 0 1 .447 1 1s-.447 1-1 1z"/></g><g><path d="m25.001 28.501c-.304 0-.604-.138-.801-.399-.332-.442-.242-1.069.199-1.4l4-3.001c.444-.33 1.069-.242 1.4.199.332.442.242 1.069-.199 1.4l-4 3.001c-.18.135-.39.2-.599.2z"/></g><g><path d="m25 30.502c-.553 0-1-.447-1-1v-2.001c0-.553.447-1 1-1s1 .447 1 1v2.001c0 .553-.447 1-1 1z"/></g><g><path d="m29 30.502h-4c-.553 0-1-.447-1-1s.447-1 1-1h4c.553 0 1 .447 1 1s-.447 1-1 1z"/></g><g><path d="m35 17.5h-5.917c-.553 0-1-.447-1-1s.447-1 1-1h5.917c.553 0 1 .447 1 1s-.447 1-1 1z"/></g></g></g></svg>