<svg id="icons" enable-background="new 0 0 64 64" height="512" viewBox="0 0 64 64" width="512" xmlns="http://www.w3.org/2000/svg"><g><path d="m63 3.5h-46-4c-.553 0-1 .447-1 1v11h-11c-.553 0-1 .447-1 1v35c0 4.963 4.037 9 9 9h46c4.963 0 9-4.037 9-9v-47c0-.553-.447-1-1-1zm-51 48c0 1.654-1.346 3-3 3s-3-1.346-3-3v-34h6zm-10 0v-34h2v34c0 2.757 2.243 5 5 5s5-2.243 5-5v-46h2v46c0 3.859-3.141 7-7 7s-7-3.141-7-7zm53 7h-40.355c2.044-1.651 3.355-4.174 3.355-7v-46h44v46c0 3.859-3.141 7-7 7z"/><path d="m22 14.495h36c.553 0 1-.447 1-1v-4c0-.553-.447-1-1-1h-36c-.553 0-1 .447-1 1v4c0 .553.447 1 1 1zm1-4h34v2h-34z"/><path d="m58 18.492h-16.002c-.553 0-1 .447-1 1s.447 1 1 1h16.002c.553 0 1-.447 1-1s-.447-1-1-1z"/><path d="m58 21.495h-16.002c-.553 0-1 .447-1 1s.447 1 1 1h16.002c.553 0 1-.447 1-1s-.447-1-1-1z"/><path d="m58 24.498h-16.002c-.553 0-1 .447-1 1s.447 1 1 1h16.002c.553 0 1-.447 1-1s-.447-1-1-1z"/><path d="m58 27.501h-16.002c-.553 0-1 .447-1 1s.447 1 1 1h16.002c.553 0 1-.447 1-1s-.447-1-1-1z"/><path d="m58 30.504h-16.002c-.553 0-1 .447-1 1s.447 1 1 1h16.002c.553 0 1-.447 1-1s-.447-1-1-1z"/><path d="m58 33.507h-16.002c-.553 0-1 .447-1 1s.447 1 1 1h16.002c.553 0 1-.447 1-1s-.447-1-1-1z"/><path d="m49.992 38.51c.553 0 1-.447 1-1s-.447-1-1-1h-7.994c-.553 0-1 .447-1 1s.447 1 1 1z"/><path d="m21 43.524c0 .553.447 1 1 1h36c.553 0 1-.447 1-1s-.447-1-1-1h-36c-.553 0-1 .448-1 1z"/><path d="m38 47.495h-16c-.553 0-1 .447-1 1s.447 1 1 1h16c.553 0 1-.447 1-1s-.447-1-1-1z"/><path d="m58.02 47.495h-16c-.553 0-1 .447-1 1s.447 1 1 1h16c.553 0 1-.447 1-1s-.448-1-1-1z"/><path d="m38 50.495h-16c-.553 0-1 .447-1 1s.447 1 1 1h16c.553 0 1-.447 1-1s-.447-1-1-1z"/><path d="m58.02 50.495h-16c-.553 0-1 .447-1 1s.447 1 1 1h16c.553 0 1-.447 1-1s-.448-1-1-1z"/><path d="m29.989 53.495h-7.989c-.553 0-1 .447-1 1s.447 1 1 1h7.989c.553 0 1-.447 1-1s-.447-1-1-1z"/><path d="m50.009 53.495h-7.989c-.553 0-1 .447-1 1s.447 1 1 1h7.989c.553 0 1-.447 1-1s-.447-1-1-1z"/><path d="m21.969 36.527h3.997v1.999c0 .553.447 1 1 1h6.004c.553 0 1-.447 1-1v-1.999h4.001c.553 0 1-.447 1-1v-2.001c0-.041-.019-.075-.023-.114-.008-.069-.018-.135-.04-.2-.021-.062-.048-.116-.08-.172-.031-.055-.063-.105-.104-.154-.045-.054-.097-.097-.152-.139-.03-.024-.051-.058-.085-.078l-4.516-2.71v-7.854c0-.011-.006-.02-.006-.03-.013-2.373-1.421-4.517-3.598-5.467-.256-.111-.545-.111-.801 0-2.187.955-3.6 3.113-3.6 5.497v7.856l-4.512 2.707c-.034.021-.054.054-.085.078-.056.042-.107.085-.152.139-.042.049-.073.1-.104.155s-.06.109-.08.171c-.022.065-.032.131-.04.2-.005.039-.023.074-.023.114v2.001c-.001.554.446 1.001.999 1.001zm10.001-13.002v11.001h-1v-4.001c0-.553-.447-1-1-1s-1 .447-1 1v4.001h-1.004v-11.001zm0 14.001h-4.004v-1h4.004zm5.001-3.433v.435h-3.001v-2.235zm-7.005-15.45c1.06.612 1.778 1.678 1.955 2.883h-3.91c.177-1.206.895-2.271 1.955-2.883zm-4 15.884h-2.997v-.435l2.997-1.799z"/></g></svg>