<svg id="icons" enable-background="new 0 0 64 64" height="64" viewBox="0 0 64 64" width="64" xmlns="http://www.w3.org/2000/svg"><g><g><path d="m1 28.993c-.15 0-.303-.034-.446-.105-.494-.247-.694-.848-.447-1.342l1.999-4c.246-.494.848-.693 1.342-.447.494.247.694.848.447 1.342l-1.999 4c-.175.35-.529.552-.896.552z"/></g><g><path d="m63 28.993c-.367 0-.721-.202-.896-.553l-1.998-4c-.248-.494-.047-1.095.446-1.342.493-.246 1.097-.047 1.343.447l1.998 4c.248.494.047 1.095-.447 1.342-.143.072-.296.106-.446.106z"/></g><g><path d="m61 24.993h-58c-.553 0-1-.447-1-1s.447-1 1-1h58c.553 0 1 .447 1 1s-.447 1-1 1z"/></g><g><path d="m62.999 28.993h-61.998c-.553 0-1-.447-1-1s.447-1 1-1h61.998c.553 0 1 .447 1 1s-.447 1-1 1z"/></g><g><path d="m63 63.995h-62c-.553 0-1-.447-1-1 0-.554.447-1 1-1h62c.553 0 1 .446 1 1 0 .553-.447 1-1 1z"/></g><g><path d="m11.004 48.998h-4c-.553 0-1-.447-1-1v-5c0-.553.447-1 1-1h4c.553 0 1 .447 1 1v5c0 .553-.447 1-1 1zm-3-2h2v-3h-2z"/></g><g><path d="m20.005 48.998h-4c-.553 0-1-.447-1-1v-5c0-.553.447-1 1-1h4c.553 0 1 .447 1 1v5c0 .553-.447 1-1 1zm-3-2h2v-3h-2z"/></g><g><path d="m29.006 48.998h-4c-.553 0-1-.447-1-1v-5c0-.553.447-1 1-1h4c.553 0 1 .447 1 1v5c0 .553-.447 1-1 1zm-3-2h2v-3h-2z"/></g><g><path d="m39.014 48.998h-4c-.553 0-1-.447-1-1v-5c0-.553.447-1 1-1h4c.553 0 1 .447 1 1v5c0 .553-.448 1-1 1zm-3-2h2v-3h-2z"/></g><g><path d="m47.999 48.998h-4c-.554 0-1-.447-1-1v-5c0-.553.446-1 1-1h4c.553 0 1 .447 1 1v5c0 .553-.447 1-1 1zm-3-2h2v-3h-2z"/></g><g><path d="m57 48.998h-4c-.553 0-1-.447-1-1v-5c0-.553.447-1 1-1h4c.553 0 1 .447 1 1v5c0 .553-.447 1-1 1zm-3-2h2v-3h-2z"/></g><g><path d="m11.004 38.988h-4c-.553 0-1-.447-1-1v-5c0-.553.447-1 1-1h4c.553 0 1 .447 1 1v5c0 .553-.447 1-1 1zm-3-2h2v-3h-2z"/></g><g><path d="m20.005 38.988h-4c-.553 0-1-.447-1-1v-5c0-.553.447-1 1-1h4c.553 0 1 .447 1 1v5c0 .553-.447 1-1 1zm-3-2h2v-3h-2z"/></g><g><path d="m29.006 38.988h-4c-.553 0-1-.447-1-1v-5c0-.553.447-1 1-1h4c.553 0 1 .447 1 1v5c0 .553-.447 1-1 1zm-3-2h2v-3h-2z"/></g><g><path d="m39.014 38.988h-4c-.553 0-1-.447-1-1v-5c0-.553.447-1 1-1h4c.553 0 1 .447 1 1v5c0 .553-.448 1-1 1zm-3-2h2v-3h-2z"/></g><g><path d="m47.999 38.988h-4c-.554 0-1-.447-1-1v-5c0-.553.446-1 1-1h4c.553 0 1 .447 1 1v5c0 .553-.447 1-1 1zm-3-2h2v-3h-2z"/></g><g><path d="m57 38.988h-4c-.553 0-1-.447-1-1v-5c0-.553.447-1 1-1h4c.553 0 1 .447 1 1v5c0 .553-.447 1-1 1zm-3-2h2v-3h-2z"/></g><g><path d="m11.003 59.008h-4c-.553 0-1-.447-1-1v-5c0-.553.447-1 1-1h4c.553 0 1 .447 1 1v5c0 .553-.447 1-1 1zm-3-2h2v-3h-2z"/></g><g><path d="m20.004 59.008h-4c-.553 0-1-.447-1-1v-5c0-.553.447-1 1-1h4c.553 0 1 .447 1 1v5c0 .553-.447 1-1 1zm-3-2h2v-3h-2z"/></g><g><path d="m37.005 63.999h-10.006c-.553 0-1-.446-1-1v-9.987c0-.553.447-1 1-1h10.006c.554 0 1 .447 1 1v9.987c0 .554-.446 1-1 1zm-9.006-2h8.006v-7.987h-8.006z"/></g><g><path d="m48 59.008h-4c-.553 0-1-.447-1-1v-5c0-.553.447-1 1-1h4c.553 0 1 .447 1 1v5c0 .553-.447 1-1 1zm-3-2h2v-3h-2z"/></g><g><path d="m57.001 59.008h-4c-.553 0-1-.447-1-1v-5c0-.553.447-1 1-1h4c.554 0 1 .447 1 1v5c0 .553-.446 1-1 1zm-3-2h2v-3h-2z"/></g><g><path d="m3.001 63.995c-.553 0-1-.447-1-1l.001-34.999c0-.553.447-1 1-1 .553 0 1 .447 1 1l-.001 34.999c0 .553-.447 1-1 1z"/></g><g><path d="m60.999 63.995c-.554 0-1-.447-1-1l-.001-34.999c0-.553.447-1 1-1s1 .447 1 1l.001 34.999c0 .553-.447 1-1 1z"/></g><g><path d="m32 63.995c-.553 0-1-.447-1-1v-9.983c0-.553.447-1 1-1s1 .447 1 1v9.983c0 .553-.447 1-1 1z"/></g><g><g><path d="m34.996 6.582c-.553 0-1-.447-1-1 0-1.438-.771-2.754-2-3.463-1.228.709-2 2.024-2 3.463 0 .553-.447 1-1 1s-1-.447-1-1c0-2.384 1.413-4.542 3.6-5.497.256-.111.545-.111.801 0 2.187.954 3.6 3.112 3.6 5.497-.001.553-.448 1-1.001 1z"/></g><g><path d="m28.996 19.002c-.553 0-1-.447-1-1v-12.42c0-.553.447-1 1-1s1 .447 1 1v12.42c0 .553-.447 1-1 1z"/></g><g><path d="m35 19.002c-.553 0-1-.447-1-1v-12.42c0-.553.447-1 1-1s1 .447 1 1v12.42c0 .553-.447 1-1 1z"/></g><g><path d="m35 22.002h-6.004c-.553 0-1-.447-1-1v-3c0-.553.447-1 1-1h6.004c.553 0 1 .447 1 1v3c0 .553-.447 1-1 1zm-5.004-2h4.004v-1h-4.004z"/></g><g><path d="m32 19.002c-.553 0-1-.447-1-1v-5.001c0-.553.447-1 1-1s1 .447 1 1v5.001c0 .553-.447 1-1 1z"/></g><g><path d="m38.999 17.002c-.209 0-.419-.065-.601-.2l-4-3.001c-.44-.331-.53-.958-.198-1.4.331-.441.957-.529 1.399-.199l4 3.001c.441.331.531.958.199 1.4-.194.261-.495.399-.799.399z"/></g><g><path d="m39 19.003c-.553 0-1-.447-1-1v-2.001c0-.553.447-1 1-1s1 .447 1 1v2.001c0 .553-.447 1-1 1z"/></g><g><path d="m39 19.003h-4c-.553 0-1-.447-1-1s.447-1 1-1h4c.553 0 1 .447 1 1s-.447 1-1 1z"/></g><g><path d="m25.001 17.002c-.304 0-.604-.138-.801-.399-.332-.442-.242-1.069.199-1.4l4-3.001c.444-.329 1.069-.242 1.4.199.332.442.242 1.069-.199 1.4l-4 3.001c-.18.135-.39.2-.599.2z"/></g><g><path d="m25 19.003c-.553 0-1-.447-1-1v-2.001c0-.553.447-1 1-1s1 .447 1 1v2.001c0 .553-.447 1-1 1z"/></g><g><path d="m29 19.003h-4c-.553 0-1-.447-1-1s.447-1 1-1h4c.553 0 1 .447 1 1s-.447 1-1 1z"/></g><g><path d="m35 7.002h-5.917c-.553 0-1-.447-1-1s.447-1 1-1h5.917c.553 0 1 .447 1 1s-.447 1-1 1z"/></g></g><g><path d="m31.996 25c-.553 0-1-.447-1-1v-2.998c0-.553.447-1 1-1s1 .447 1 1v2.998c0 .553-.447 1-1 1z"/></g></g></svg>