<svg id="icons" enable-background="new 0 0 64 64" height="512" viewBox="0 0 64 64" width="512" xmlns="http://www.w3.org/2000/svg"><g><path d="m59.114 18.414c-.006-.004-.012-.007-.018-.011-.622-.369-1.289-.682-2.005-.915-1.004-.325-2.044-.49-3.09-.49-1.488 0-2.911.332-4.198.926-2.204-2.437-4.899-4.41-7.876-5.767.045-.381.073-.765.073-1.157 0-5.514-4.486-10-10-10s-10 4.486-10 10c0 .393.028.777.072 1.158-2.977 1.357-5.672 3.33-7.875 5.767-1.287-.595-2.711-.927-4.199-.927-1.046 0-2.086.165-3.091.49-.716.233-1.383.546-2.004.914-.006.005-.013.008-.018.012-3.921 2.338-5.864 7.156-4.397 11.676 1.153 3.545 4.128 6.086 7.689 6.74.399 3.391 1.531 6.678 3.303 9.6-.196.225-.392.448-.568.691-1.571 2.161-2.206 4.804-1.788 7.442.417 2.638 1.837 4.955 3.998 6.525.937.681 1.968 1.18 3.053 1.5.015.005.029.008.044.012.894.26 1.824.4 2.774.4 3.194 0 6.222-1.541 8.1-4.123.29-.399.534-.816.756-1.241 1.366.237 2.759.365 4.151.365 1.391 0 2.78-.127 4.146-.364.705 1.349 1.708 2.531 2.976 3.452 1.72 1.25 3.75 1.911 5.87 1.911.914 0 1.811-.14 2.674-.38.085-.016.164-.039.241-.074 2.057-.629 3.895-1.896 5.185-3.669 2.789-3.843 2.433-9.02-.567-12.452 1.769-2.92 2.897-6.204 3.298-9.594 3.562-.654 6.536-3.196 7.689-6.742 1.467-4.519-.476-9.337-4.398-11.675zm-2.64.977c.011.004.021.008.03.012-1.389 1.188-2.433 2.742-3.006 4.509-1.259 3.876.006 8.106 3.018 10.688-.794.263-1.64.403-2.512.403-.837 0-1.669-.133-2.475-.395-2.032-.66-3.687-2.071-4.657-3.976-.971-1.903-1.141-4.07-.48-6.104 1.074-3.308 4.133-5.53 7.61-5.53.836 0 1.668.132 2.472.393zm-24.474-16.391c4.411 0 8 3.589 8 8s-3.589 8-8 8-8-3.589-8-8 3.589-8 8-8zm-22.002 15.998c3.478 0 6.536 2.223 7.61 5.53.66 2.033.49 4.2-.48 6.104-.971 1.904-2.625 3.315-4.658 3.976-.805.262-1.637.395-2.474.395-.872 0-1.718-.141-2.512-.403 3.012-2.581 4.276-6.812 3.018-10.688-.573-1.767-1.617-3.321-3.007-4.509.011-.004.02-.009.03-.012.805-.261 1.637-.393 2.473-.393zm-7.607 10.474c-1.121-3.453.247-7.125 3.104-9.077 1.46.993 2.555 2.439 3.104 4.134 1.098 3.381-.203 7.1-3.1 9.075-1.427-.974-2.544-2.398-3.108-4.132zm8.709 24.779c-.334-2.111.174-4.226 1.431-5.954.993-1.368 2.395-2.359 3.968-2.881 1.603.524 2.98 1.505 3.979 2.881 1.256 1.729 1.764 3.843 1.43 5.954-.334 2.11-1.47 3.964-3.198 5.22-.68.494-1.426.868-2.216 1.127-.777-.258-1.517-.633-2.195-1.126-1.73-1.257-2.865-3.111-3.199-5.221zm9.002 6.663c2.035-1.564 3.379-3.805 3.781-6.351.418-2.639-.217-5.281-1.787-7.442-.568-.782-1.237-1.46-1.98-2.035 1.29.18 2.515.662 3.588 1.441 3.568 2.593 4.362 7.605 1.771 11.174-1.283 1.764-3.239 2.913-5.373 3.213zm8.504-5.174c1.113-3.922-.243-8.298-3.728-10.83-1.721-1.251-3.752-1.911-5.872-1.911-.892 0-1.767.132-2.611.361-.104.011-.201.048-.296.09-1.127.345-2.183.883-3.123 1.593-1.437-2.474-2.381-5.218-2.769-8.05.976-.021 1.944-.18 2.88-.483 2.541-.825 4.608-2.59 5.821-4.97 1.214-2.379 1.427-5.089.602-7.629-.661-2.037-1.927-3.742-3.558-4.95 1.871-1.993 4.108-3.632 6.563-4.81 1.326 3.973 5.073 6.849 9.485 6.849s8.159-2.876 9.483-6.85c2.455 1.177 4.692 2.816 6.564 4.81-1.632 1.209-2.897 2.914-3.559 4.951-.825 2.54-.612 5.25.602 7.629 1.213 2.38 3.28 4.145 5.82 4.97.937.304 1.904.463 2.881.483-.388 2.829-1.329 5.57-2.762 8.04-.052-.04-.099-.084-.152-.123-1.721-1.251-3.752-1.911-5.872-1.911-3.194 0-6.221 1.541-8.095 4.122-1.571 2.161-2.206 4.804-1.788 7.442.063.401.158.792.267 1.178-2.238.345-4.545.345-6.783-.001zm8.493-1.489c-.334-2.111.174-4.226 1.431-5.954 1.277-1.76 3.225-2.906 5.354-3.21-.743.575-1.411 1.253-1.979 2.034-1.571 2.161-2.206 4.804-1.788 7.442.402 2.545 1.745 4.784 3.779 6.351-1.294-.178-2.523-.66-3.6-1.442-1.728-1.257-2.863-3.111-3.197-5.221zm14.375 3.45c-.999 1.374-2.409 2.368-3.991 2.888-.781-.259-1.52-.629-2.191-1.117-1.729-1.257-2.864-3.11-3.198-5.221s.174-4.226 1.431-5.954c1.003-1.382 2.387-2.366 3.999-2.889.771.257 1.506.63 2.18 1.119 3.567 2.593 4.36 7.606 1.77 11.174zm10.135-28.23c-.564 1.735-1.682 3.159-3.109 4.133-2.896-1.976-4.197-5.694-3.1-9.075.55-1.694 1.645-3.141 3.104-4.134 2.858 1.952 4.226 5.624 3.105 9.076z"/></g></svg>