<svg id="icons" enable-background="new 0 0 64 64" height="512" viewBox="0 0 64 64" width="512" xmlns="http://www.w3.org/2000/svg"><g><path d="m32 53h.002c8.286 0 16.073-3.223 21.925-9.073 5.852-5.852 9.074-13.638 9.073-21.925 0-.553-.448-1-1-1-.553 0-1 .448-1 1 0 7.753-3.014 15.037-8.487 20.511-1.801 1.801-3.801 3.329-5.946 4.578.072-.069.151-.131.222-.201.02-.017.043-.022.062-.041 5.861-5.859 9.089-13.645 9.089-21.92s-3.229-16.06-9.089-21.919c-.391-.391-1.023-.391-1.414 0s-.391 1.023 0 1.414c5.482 5.481 8.502 12.764 8.502 20.505 0 2.534-.33 5.018-.957 7.406.001-.104.016-.205.016-.31 0-.009.005-.017.005-.025 0-17.094-13.906-31-31-31-.553 0-1 .447-1 1s.447 1 1 1c10.647 0 19.967 5.771 25.011 14.347-.037-.037-.07-.079-.107-.117-.021-.025-.029-.057-.054-.081-12.088-12.086-31.754-12.086-43.842 0-.391.391-.391 1.023 0 1.414s1.023.391 1.414 0c7.518-7.518 18.168-10.03 27.787-7.552-.063-.001-.122-.009-.185-.009-.009-.001-.017-.006-.026-.006-17.095.001-31.001 13.908-31.001 31.002 0 .553.447 1 1 1s1-.447 1-1c0-10.645 5.769-19.962 14.34-25.007-.039.038-.083.071-.121.109-.022.019-.05.026-.07.047-12.086 12.089-12.086 31.756.001 43.843.195.195.451.293.707.293s.512-.098.707-.293c.391-.391.391-1.023 0-1.414-7.514-7.514-10.028-18.158-7.557-27.773 0 .066-.01.131-.01.197 0 17.094 13.906 31 31 31 .553 0 1-.447 1-1s-.447-1-1-1c-10.643 0-19.959-5.767-25.004-14.335.043.043.08.092.123.135.014.016.019.035.033.05 5.859 5.86 13.645 9.088 21.92 9.088s16.061-3.228 21.92-9.087c.391-.391.391-1.023 0-1.414s-1.023-.391-1.414 0c-5.482 5.482-12.765 8.501-20.506 8.501-2.529 0-5.009-.328-7.394-.954.11.001.215.016.323.016zm-.002-40c10.477 0 19 8.523 19 19s-8.523 19-19 19-19-8.523-19-19 8.523-19 19-19z"/><path d="m23.465 46.691c.013.008.02.021.033.029.282.163.568.311.857.45 2.341 1.181 4.958 1.83 7.659 1.83 2.968 0 5.9-.788 8.481-2.279 3.931-2.268 6.744-5.933 7.92-10.321.386-1.439.561-2.898.567-4.349.001-.019.011-.033.011-.052 0-.047-.007-.093-.007-.141-.02-2.907-.775-5.774-2.268-8.359-1.505-2.605-3.657-4.719-6.187-6.187-.015-.01-.022-.024-.037-.033-.129-.074-.263-.132-.393-.201-2.458-1.334-5.243-2.077-8.126-2.077-2.966 0-5.897.787-8.479 2.276-3.931 2.269-6.743 5.936-7.919 10.324-.385 1.435-.56 2.89-.567 4.337.001.023-.01.041-.01.062 0 .056.008.109.009.165.022 2.899.777 5.758 2.266 8.335 1.505 2.607 3.66 4.723 6.19 6.191zm4.531-3.693c-6.013-.002-10.908-4.857-10.988-10.853-.005-.632.035-1.266.111-1.899.215 1.642.745 3.268 1.622 4.788.186.32.521.5.867.5.17 0 .342-.043.499-.134.479-.276.643-.888.366-1.366-3.03-5.251-1.225-11.989 4.025-15.021.002-.001.003-.004.006-.005.519-.299 1.055-.563 1.603-.796-1.327 1.011-2.48 2.293-3.365 3.825-.276.479-.112 1.09.366 1.366.157.091.329.134.499.134.346 0 .682-.179.867-.5 2.965-5.136 9.477-6.964 14.676-4.201.634.344 1.243.73 1.822 1.162-1.533-.639-3.213-.994-4.975-.994-.553 0-1 .447-1 1s.447 1 1 1c6.021 0 10.922 4.865 10.99 10.871.004.626-.036 1.253-.111 1.88-.215-1.642-.745-3.268-1.622-4.788-.277-.479-.891-.643-1.366-.366-.479.276-.643.888-.366 1.366 3.029 5.249 1.223 11.988-4.026 15.022-.524.303-1.066.569-1.619.805 1.33-1.012 2.489-2.294 3.376-3.829.276-.479.112-1.09-.366-1.366s-1.09-.113-1.366.366c-2.979 5.157-9.534 6.978-14.742 4.167-.612-.337-1.201-.713-1.761-1.131 1.534.64 3.215.997 4.979.997.552 0 1-.447 1-1-.001-.552-.448-1-1.001-1z"/></g></svg>