<svg id="icons" enable-background="new 0 0 64 64" height="512" viewBox="0 0 64 64" width="512" xmlns="http://www.w3.org/2000/svg"><g><path d="m32-.002c-12.131 0-22 9.869-22 22 0 .001.001.002.001.003 0 .008.004.016.005.023.01.376.229.691.543.854l15.828 14.13h-1.867c-.37 0-.709.204-.883.53l-8.51 15.996c-.009.017-.012.035-.02.052-.012.025-.02.051-.029.077-.037.102-.06.206-.063.312 0 .011-.006.02-.006.029v5.996c0 .553.447 1 1 1h1.114l-.563 1.686c-.103.305-.051.64.137.901s.49.415.812.415h5.002c.008.001.015.001.02 0 .553 0 1-.447 1-1 0-.181-.047-.35-.131-.495l-.502-1.507h2.227l-.563 1.686c-.103.305-.051.64.137.901s.49.415.812.415h5.002c.007.001.015.001.02 0 .553 0 1-.447 1-1 0-.181-.047-.35-.131-.495l-.504-1.507h2.227l-.563 1.686c-.103.305-.051.64.137.901s.49.415.812.415h5.002c.008.001.016.001.02 0 .553 0 1-.447 1-1 0-.181-.047-.35-.131-.495l-.504-1.507h2.227l-.563 1.686c-.103.305-.051.64.137.901s.49.415.812.415h5.002c.008.001.016.001.02 0 .553 0 1-.447 1-1 0-.181-.047-.35-.131-.495l-.504-1.507h1.112c.553 0 1-.447 1-1v-5.899c.003-.033.02-.063.02-.097 0-.237-.082-.455-.221-.627l-8.426-15.839c-.174-.326-.513-.53-.883-.53h-1.866l15.979-14.223c.025-.019.056-.027.079-.049.008-.008.011-.019.02-.026.024-.024.038-.059.061-.085.06-.074.12-.147.156-.232.012-.026.011-.059.02-.087.03-.095.058-.189.059-.288 0-.007.004-.013.004-.02-.002-12.131-9.871-22-22.002-22zm0 2c10.268 0 18.743 7.779 19.865 17.752-1.706-1.131-3.723-1.746-5.874-1.746-2.646 0-5.096.918-7.003 2.604-1.91-1.686-4.361-2.604-7.005-2.604-2.643 0-5.093.918-7.003 2.604-1.907-1.686-4.357-2.604-7.002-2.604-2.137 0-4.142.607-5.84 1.724 1.133-9.962 9.602-17.73 19.862-17.73zm-.309 35.01-5.542-14.747c1.566-1.454 3.611-2.257 5.834-2.257 2.221 0 4.265.801 5.831 2.252l-5.511 14.752zm-19.19-15.069c1.512-1.251 3.418-1.936 5.478-1.936 2.376 0 4.551.912 6.148 2.563l5.427 14.441h-.173zm14.499 30.065h10v1h-10zm20 3v1h-30v-1zm-25.886 6.998h-2.227l.336-1.002h1.557zm8 0h-2.227l.336-1.002h1.557zm8 0h-2.227l.336-1.002h1.557zm8 0h-2.227l.336-1.002h1.557zm.386-3.002h-2.998-5.002-2.998-5.002-2.998-5.002-2.998-1.502v-.996h30v.996zm.835-5.996h-7.335v-2c0-.553-.447-1-1-1h-12c-.553 0-1 .447-1 1v2h-7.335l7.445-13.996h13.78zm-11.897-15.996 5.39-14.428c1.599-1.659 3.778-2.576 6.163-2.576 2.076 0 3.997.696 5.516 1.969l-16.892 15.035z"/><path d="m25 48.004c0 .553.447 1 1 1h12c.553 0 1-.447 1-1v-6c0-.553-.447-1-1-1h-12c-.553 0-1 .447-1 1zm2-5h10v4h-10z"/><path d="m29.03 44.004h-.01c-.552 0-.994.447-.994 1s.452 1 1.005 1c.552 0 1-.447 1-1s-.449-1-1.001-1z"/></g></svg>