<svg id="icons" enable-background="new 0 0 64 64" height="512" viewBox="0 0 64 64" width="512" xmlns="http://www.w3.org/2000/svg"><g><path d="m7 55.508c2.206 0 4-1.794 4-4s-1.794-4-4-4-4 1.794-4 4 1.794 4 4 4zm0-6c1.103 0 2 .897 2 2s-.897 2-2 2-2-.897-2-2 .897-2 2-2z"/><path d="m27.996 55.508c2.206 0 4-1.794 4-4s-1.794-4-4-4-4 1.794-4 4 1.794 4 4 4zm0-6c1.103 0 2 .897 2 2s-.897 2-2 2-2-.897-2-2 .898-2 2-2z"/><path d="m44.992 51.508c0 2.206 1.794 4 4 4s4-1.794 4-4-1.794-4-4-4-4 1.794-4 4zm6 0c0 1.103-.897 2-2 2s-2-.897-2-2 .897-2 2-2 2 .897 2 2z"/><path d="m61 34.645.015-20.157s0 0 0-.001c0-.13-.026-.26-.077-.382-.102-.245-.297-.439-.541-.541-.113-.047-.234-.069-.356-.072-.009 0-.016-.005-.024-.005-.001 0-.001 0-.001 0-.13 0-.26.026-.382.077-.123.051-.233.124-.325.216l-13.291 13.29c-.597-.354-1.284-.57-2.026-.57-1.859 0-3.413 1.281-3.859 3.004h-8.129v-11.142c1.404-.365 2.503-1.468 2.863-2.874h3.139c.553 0 1-.447 1-1v-7.996c0-.553-.447-1-1-1h-14.005c-.553 0-1 .447-1 1v7.996c0 .553.447 1 1 1h3.139c.36 1.406 1.459 2.509 2.863 2.874v11.142h-8.003v-3.996c0-.553-.447-1-1-1h-.99v-4.994c0-.553-.447-1-1-1s-1 .447-1 1v4.994h-1.01v-4.994c0-.553-.447-1-1-1s-1 .447-1 1v4.994h-1v-1.998c0-.553-.447-1-1-1h-4c-.553 0-1 .447-1 1v2.998 4.996 11.006h-1c-.553 0-1 .447-1 1v2.078c-3.387.488-6 3.401-6 6.92 0 3.859 3.141 7 7 7s7-3.141 7-7c0-1.958-.811-3.729-2.11-5h11.217c-1.3 1.271-2.11 3.042-2.11 5 0 3.859 3.141 7 7 7s7-3.141 7-7c0-1.958-.811-3.729-2.11-5h11.217c-1.3 1.271-2.11 3.042-2.11 5 0 3.859 3.141 7 7 7s7-3.141 7-7c0-3.519-2.613-6.432-6-6.92v-2.078c0-.553-.447-1-1-1h-1v-11.006-.001-.001c0-.737-.215-1.42-.563-2.015l11.584-11.585-.015 17.742c-1.721.447-3.001 1.999-3.001 3.858 0 .002.001.003.001.005v4.003c0 .553.447 1 1 1h1c.553 0 1-.447 1-1s-.447-1-1-1v-3.008c0-.001-.001-.002-.001-.003.002-1.102.898-1.997 2-1.997 1.103 0 2 .897 2 2 0 .002.001.003.001.005v3.003c-.553 0-1 .447-1 1s.447 1 1 1h1c.553 0 1-.447 1-1v-4.008c0-.004-.002-.006-.002-.01-.005-1.853-1.281-3.401-2.998-3.847zm-35.999-27.153h12.004v5.996h-5.866c1.59-.072 2.864-1.378 2.864-2.986 0-1.654-1.346-3-3-3s-3 1.346-3 3c0 1.608 1.274 2.914 2.864 2.986h-5.866zm6.002 4.01c-.552 0-1-.448-1-1s.448-1 1-1 1 .448 1 1-.448 1-1 1zm-1.731 3.986h3.461c-.345.604-.987 1.016-1.73 1.016s-1.386-.412-1.731-1.016zm-17.272 36.02c0 2.757-2.243 5-5 5s-5-2.243-5-5 2.243-5 5-5 5 2.243 5 5zm20.996 0c0 2.757-2.243 5-5 5s-5-2.243-5-5 2.243-5 5-5 5 2.243 5 5zm-24.996-7v-.998h39.992v.998zm45.992 7c0 2.757-2.243 5-5 5s-5-2.243-5-5 2.243-5 5-5 5 2.243 5 5zm-43.992-10.998h4.998c.553 0 1-.447 1-1s-.447-1-1-1h-4.998v-1.002h8.001c.553 0 1-.447 1-1s-.447-1-1-1h-8.001v-1.002h11.004c.553 0 1-.447 1-1s-.447-1-1-1h-11.004v-1.002h11 24.992v10.004h-35.992zm33.991-12.01c.738 0 1.378.407 1.725 1.004h-3.449c.346-.597.986-1.004 1.724-1.004zm-33.991 1.004v-2.996h3 2.971c.011 0 .019.006.029.006s.019-.006.029-.006h2.951c.011 0 .019.006.029.006s.019-.006.029-.006h.962v2.996zm0-5.994h2v.998h-2z"/><path d="m43.039 33.506h-.011c-.552 0-.994.447-.994 1s.452 1 1.005 1c.552 0 1-.447 1-1s-.448-1-1-1z"/><path d="m43.039 37.508h-.011c-.552 0-.994.447-.994 1s.452 1 1.005 1c.552 0 1-.447 1-1s-.448-1-1-1z"/></g></svg>