<svg id="icons" enable-background="new 0 0 64 64" height="512" viewBox="0 0 64 64" width="512" xmlns="http://www.w3.org/2000/svg"><g><path d="m61.5 26.003c-1.212 0-2.224.866-2.451 2.013l-18.532 4.048c-.454-.625-1.187-1.036-2.017-1.036-.803 0-1.511.387-1.968.978l-7.574-1.894c-.199-1.181-1.223-2.084-2.459-2.084-.745 0-1.407.334-1.865.854l-5.661-1.638c-.132-1.255-1.184-2.24-2.474-2.24-1.28 0-2.326.97-2.471 2.211l-9.728 3.563c-.455-.475-1.092-.773-1.8-.773-1.378-.002-2.5 1.119-2.5 2.497 0 1.379 1.122 2.501 2.501 2.501 1.325 0 2.402-1.041 2.483-2.347l9.632-3.527c.459.531 1.128.874 1.883.874.745 0 1.407-.334 1.866-.853l5.661 1.637c.132 1.256 1.184 2.24 2.473 2.24.804 0 1.512-.387 1.97-.978l7.573 1.893c.194 1.155 1.179 2.04 2.381 2.077l2.298 5.731c-.445.452-.721 1.07-.721 1.753 0 1.379 1.121 2.5 2.5 2.5 1.176 0 2.157-.817 2.423-1.913l12.497-2.205c.448.673 1.213 1.118 2.08 1.118 1.379 0 2.5-1.122 2.5-2.501 0-.875-.454-1.645-1.139-2.091l1.25-7.492c1.082-.275 1.889-1.249 1.889-2.416 0-1.379-1.121-2.5-2.5-2.5zm-4.423 13.913-12.497 2.204c-.435-.651-1.168-1.083-2.002-1.109l-2.298-5.731c.335-.341.574-.776.671-1.264l18.531-4.049c.18.247.4.461.655.628l-1.249 7.493c-.894.226-1.593.931-1.811 1.828zm4.423-11.913c.275 0 .5.225.5.5s-.225.5-.5.5-.5-.225-.5-.5.225-.5.5-.5zm-58.999 5c-.276 0-.501-.225-.501-.501 0-.275.225-.499.501-.499.275 0 .499.224.499.499 0 .276-.224.501-.499.501zm13.998-5c-.275 0-.5-.225-.5-.501 0-.275.225-.499.5-.499s.5.224.5.499c0 .064-.015.126-.037.183-.002.006-.006.01-.008.016-.001.002 0 .004-.001.006-.078.173-.252.296-.454.296zm10 3.024c-.275 0-.499-.225-.499-.5 0-.064.015-.126.037-.183.002-.005.005-.009.007-.015.001-.002 0-.003 0-.005.078-.175.252-.298.455-.298.276 0 .501.225.501.5s-.225.501-.501.501zm12.001 2c.275 0 .5.226.5.502 0 .274-.225.498-.5.498s-.5-.223-.5-.498c0-.276.225-.502.5-.502zm4 10.976c-.275 0-.5-.225-.5-.5s.225-.5.5-.5.5.225.5.5-.225.5-.5.5zm17-3c-.275 0-.5-.225-.5-.501 0-.275.225-.499.5-.499s.5.224.5.499c0 .276-.225.501-.5.501z"/><path d="m56.996 52.021v-1c0-.553-.447-1-1-1s-1 .447-1 1v1c-.553 0-1 .447-1 1s.447 1 1 1v1c0 .553.447 1 1 1s1-.447 1-1v-1c.553 0 1-.447 1-1s-.447-1-1-1z"/><path d="m6.993 6.024c-.553 0-1 .447-1 1v1c-.553 0-1 .447-1 1s.447 1 1 1v1c0 .553.447 1 1 1s1-.447 1-1v-1c.553 0 1-.447 1-1s-.447-1-1-1v-1c0-.552-.447-1-1-1z"/><path d="m24.052 18.983c0-.553-.448-1-1-1h-.011c-.552 0-.994.447-.994 1s.452 1 1.005 1c.552 0 1-.447 1-1z"/><path d="m41.009 24.013c.552 0 1-.447 1-1s-.448-1-1-1h-.011c-.552 0-.994.447-.994 1s.452 1 1.005 1z"/><path d="m34.028 57.019h-.011c-.552 0-.994.447-.994 1s.452 1 1.005 1c.552 0 1-.447 1-1s-.448-1-1-1z"/><path d="m20.015 39.001h-.011c-.552 0-.994.447-.994 1s.452 1 1.005 1c.552 0 1-.447 1-1s-.449-1-1-1z"/><path d="m35.028 5.981c0-.553-.448-1-1-1h-.011c-.552 0-.994.447-.994 1s.452 1 1.005 1c.552 0 1-.447 1-1z"/><path d="m57.486 9.692c1.527.88 2.51 2.517 2.51 4.328 0 .553.447 1 1 1s1-.447 1-1c0-2.732-1.6-5.178-4.032-6.32-.163-1.501-1.424-2.678-2.968-2.678-1.654 0-3 1.346-3 3s1.346 3 3 3c1.036 0 1.951-.528 2.49-1.33zm-3.49-1.67c0-.552.448-1 1-1s1 .448 1 1-.448 1-1 1-1-.448-1-1z"/><path d="m8.995 48.016c-2.206 0-4 1.794-4 4s1.794 4 4 4 4-1.794 4-4-1.794-4-4-4zm0 6c-1.103 0-2-.897-2-2s.897-2 2-2 2 .897 2 2-.897 2-2 2z"/></g></svg>