<svg id="icons" enable-background="new 0 0 64 64" height="512" viewBox="0 0 64 64" width="512" xmlns="http://www.w3.org/2000/svg"><g><path d="m31.999 28c-2.206 0-4 1.794-4 4s1.794 4 4 4 4-1.794 4-4-1.794-4-4-4zm0 6c-1.103 0-2-.897-2-2s.897-2 2-2 2 .897 2 2-.897 2-2 2z"/><path d="m2.153 21.696c.157.091.329.134.499.134.346 0 .682-.179.867-.5 5.79-10.028 18.659-13.475 28.686-7.688 3.704 2.139 6.353 5.589 7.459 9.715.437 1.63.602 3.288.522 4.927-.114-.251-.238-.495-.374-.733-.009-.017-.008-.036-.018-.052-.079-.137-.172-.261-.254-.395-.039-.06-.075-.121-.115-.179-2.424-3.86-6.139-6.633-10.561-7.817-4.644-1.244-9.493-.603-13.661 1.802-10.981 6.341-14.757 20.435-8.416 31.418.186.321.521.5.867.5.17 0 .342-.043.499-.134.479-.276.643-.888.366-1.366-5.79-10.028-2.342-22.896 7.685-28.685 5.349-3.089 11.754-2.717 16.633.4-.272-.025-.547-.042-.825-.042-.004 0-.008-.002-.013-.002-9.925 0-17.999 8.075-18 18.002v.001c.001 12.682 10.317 22.998 23 22.998.553 0 1-.447 1-1s-.447-1-1-1c-11.579 0-21-9.421-21-21 0-6.183 3.53-11.546 8.675-14.21-.152.213-.293.434-.427.66-.013.019-.032.029-.043.049-.026.045-.045.092-.07.137-.061.108-.114.221-.17.332-4.595 8.524-1.611 19.245 6.831 24.121.001.001.003.001.004.002 3.611 2.084 7.559 3.074 11.457 3.074 7.954 0 15.702-4.126 19.957-11.495.276-.479.112-1.09-.366-1.366s-1.09-.113-1.366.366c-5.788 10.028-18.655 13.477-28.687 7.686h-.001c-5.352-3.091-8.23-8.827-7.968-14.611.111.242.231.479.363.71.008.015.007.031.016.046 3.33 5.768 9.393 8.994 15.619 8.994 3.052 0 6.144-.775 8.972-2.407.001-.001.001-.001.002-.002 10.981-6.342 14.756-20.435 8.416-31.417-.277-.479-.89-.642-1.366-.366-.479.276-.643.888-.366 1.366 5.79 10.028 2.342 22.897-7.687 28.687-.001 0-.001.001-.001.001-5.349 3.087-11.75 2.716-16.626-.397.274.023.551.04.832.04 9.925 0 18-8.075 18-18 0-12.682-10.317-23-23-23-.553 0-1 .448-1 1s.447 1 1 1c11.579 0 21 9.42 21 21 0 6.181-3.529 11.544-8.673 14.207.146-.204.281-.415.409-.631.019-.026.042-.048.059-.076.025-.044.044-.09.068-.133.058-.104.109-.212.163-.318 2.2-4.064 2.771-8.73 1.57-13.209-1.244-4.642-4.224-8.523-8.391-10.93-10.98-6.34-25.075-2.564-31.417 8.42-.276.479-.112 1.09.366 1.366zm29.846 17.304c-2.386 0-4.493-1.201-5.758-3.029-.046-.073-.096-.143-.14-.216-.694-1.087-1.103-2.373-1.103-3.755 0-1.128.274-2.191.75-3.136.047-.085.085-.173.133-.258 1.197-2.148 3.49-3.606 6.118-3.606 2.392 0 4.506 1.208 5.769 3.044.035.055.072.107.106.164.709 1.094 1.125 2.395 1.125 3.792 0 1.135-.277 2.203-.759 3.152-.044.08-.079.163-.125.243-1.087 1.95-3.076 3.331-5.401 3.568-.239.012-.474.037-.715.037z"/><path d="m11.999 6v1c0 .552.447 1 1 1s1-.448 1-1v-1c.553 0 1-.448 1-1s-.447-1-1-1v-1c0-.552-.447-1-1-1s-1 .448-1 1v1c-.553 0-1 .448-1 1s.447 1 1 1z"/><path d="m49.034 57.039c-.553 0-1 .447-1 1v1.001c-.553 0-1 .447-1 1s.447 1 1 1v1.001c0 .553.447 1 1 1s1-.447 1-1v-1.001c.553 0 1-.447 1-1s-.447-1-1-1v-1.001c0-.553-.447-1-1-1z"/><path d="m39.023 48.029c0-.553-.447-1-1-1s-1 .447-1 1c-.553 0-1 .447-1 1s.447 1 1 1c0 .553.447 1 1 1s1-.447 1-1c.553 0 1-.447 1-1s-.447-1-1-1z"/><path d="m9.996 41.02c.553 0 1-.447 1-1 .553 0 1-.447 1-1s-.447-1-1-1c0-.553-.447-1-1-1s-1 .447-1 1c-.553 0-1 .447-1 1s.447 1 1 1c0 .552.447 1 1 1z"/><path d="m45.016 39.029c-.552 0-.994.447-.994 1s.452 1 1.005 1c.552 0 1-.447 1-1s-.448-1-1-1z"/><path d="m43.023 14.014c0-.552-.448-1-1-1h-.011c-.552 0-.994.448-.994 1s.452 1 1.005 1c.552 0 1-.448 1-1z"/><path d="m17.999 14.014c0-.552-.448-1-1-1h-.011c-.552 0-.994.448-.994 1s.452 1 1.005 1c.552 0 1-.448 1-1z"/><path d="m23.995 51.041c-.552 0-.994.447-.994 1s.452 1 1.005 1c.552 0 1-.447 1-1s-.448-1-1-1z"/><path d="m54.035 25.018c.552 0 1-.448 1-1s-.448-1-1-1h-.011c-.552 0-.994.448-.994 1s.452 1 1.005 1z"/></g></svg>