<svg id="icons" enable-background="new 0 0 64 64" height="512" viewBox="0 0 64 64" width="512" xmlns="http://www.w3.org/2000/svg"><g><path d="m11.483 7.453c-1.129-.577-2.601-.418-3.522.504-.956.956-1.117 2.396-.512 3.531-10.572 12.628-9.795 31.422 1.924 43.14 6.238 6.238 14.433 9.357 22.627 9.357 8.195 0 16.39-3.12 22.628-9.358 6.044-6.044 9.373-14.08 9.373-22.627s-3.329-16.583-9.373-22.626c-11.717-11.719-30.516-12.497-43.145-1.921zm-2.108 1.918c.189-.189.44-.293.707-.293.266 0 .516.104.705.292 0 0 0 .001.001.002s.002.001.003.002c.187.189.291.438.291.705s-.104.518-.293.707c-.378.377-1.034.378-1.414.001h-.001c-.39-.391-.389-1.026.001-1.416zm43.839 43.842c-11.695 11.696-30.728 11.698-42.427.001-10.963-10.963-11.713-28.53-1.866-40.369.363.152.755.233 1.16.233.802 0 1.556-.312 2.122-.879.566-.566.879-1.32.879-2.122 0-.405-.081-.797-.233-1.16 11.837-9.842 29.403-9.093 40.365 1.869 5.666 5.667 8.787 13.2 8.787 21.214s-3.121 15.547-8.787 21.213z"/><path d="m32.001 8c-13.233 0-24 10.767-24 24 0 12.08 9.219 22.368 21.122 23.803.356 1.262 1.504 2.197 2.878 2.197s2.522-.934 2.877-2.196c11.903-1.435 21.123-11.724 21.123-23.804 0-13.233-10.767-24-24-24zm0 48c-.552 0-1-.449-1.001-.999.001-.552.45-1.002 1-1.002.552 0 1.001.45 1.001 1.001 0 .552-.448 1-1 1zm2.748-2.194c-.464-1.06-1.52-1.806-2.749-1.807-1.228.001-2.283.746-2.747 1.806-10.858-1.366-19.252-10.769-19.252-21.805 0-12.131 9.869-22 22-22s22 9.869 22 22c0 11.036-8.394 20.44-19.252 21.806z"/><path d="m44.729 19.271c-.957-.957-2.512-1.098-3.658-.434-6.295-4.344-14.922-3.615-20.383 1.848-6.238 6.239-6.238 16.39 0 22.628 3.119 3.119 7.216 4.679 11.313 4.679s8.194-1.56 11.313-4.679c5.462-5.462 6.191-14.082 1.854-20.375.695-1.155.554-2.674-.439-3.667zm-1.415 1.414c.39.39.39 1.025.002 1.415-.001 0-.001 0-.001 0s-.001.001-.001.001c-.377.377-1.039.375-1.414.001-.39-.391-.39-1.027 0-1.417.188-.189.44-.292.707-.292.268 0 .519.103.707.292zm-1.414 21.213c-5.459 5.459-14.34 5.459-19.799 0-5.458-5.458-5.458-14.34 0-19.8 4.74-4.737 12.198-5.406 17.692-1.717-.377 1.059-.152 2.286.692 3.134.567.565 1.32.877 2.121.877.352 0 .69-.07 1.012-.185 3.691 5.494 3.022 12.952-1.718 17.691z"/><path d="m40.001 31h-2.091c-.153-.909-.51-1.749-1.024-2.471l1.479-1.478c.391-.391.391-1.023 0-1.414s-1.023-.391-1.414 0l-1.479 1.478c-.722-.515-1.562-.871-2.471-1.024v-2.091c0-.552-.447-1-1-1s-1 .448-1 1v2.09c-.909.153-1.749.51-2.471 1.024l-1.479-1.479c-.391-.391-1.023-.391-1.414 0s-.391 1.023 0 1.414l1.479 1.479c-.515.722-.871 1.562-1.024 2.471h-2.092c-.553 0-1 .448-1 1s.447 1 1 1h2.092c.153.909.51 1.749 1.024 2.471l-1.48 1.48c-.391.391-.391 1.023 0 1.414.195.195.451.293.707.293s.512-.098.707-.293l1.48-1.48c.722.515 1.562.871 2.471 1.025v2.091c0 .553.447 1 1 1s1-.447 1-1v-2.09c.909-.154 1.749-.511 2.471-1.025l1.479 1.479c.195.195.451.293.707.293s.512-.098.707-.293c.391-.391.391-1.023 0-1.414l-1.479-1.479c.514-.722.871-1.562 1.024-2.471h2.091c.553 0 1-.448 1-1s-.447-1-1-1zm-8 5c-2.206 0-4-1.794-4-4s1.794-4 4-4c2.205 0 3.998 1.792 4 3.997 0 .001-.001.002-.001.003s.001.002.001.003c-.002 2.205-1.795 3.997-4 3.997z"/></g></svg>