<svg id="icons" enable-background="new 0 0 64 64" height="512" viewBox="0 0 64 64" width="512" xmlns="http://www.w3.org/2000/svg"><g><path d="m4.001 13.98v1c0 .552.447 1 1 1s1-.448 1-1v-1c.553 0 1-.448 1-1s-.447-1-1-1v-1c0-.552-.447-1-1-1s-1 .448-1 1v1c-.553 0-1 .448-1 1s.447 1 1 1z"/><path d="m55.005 60.979c.553 0 1-.447 1-1v-1c.553 0 1-.447 1-1s-.447-1-1-1v-1c0-.553-.447-1-1-1s-1 .447-1 1v1c-.553 0-1 .447-1 1s.447 1 1 1v1c0 .552.447 1 1 1z"/><path d="m62.029 41.012c.552 0 1-.447 1-1s-.448-1-1-1h-.011c-.552 0-.994.447-.994 1s.453 1 1.005 1z"/><path d="m2.031 38.984c.552 0 1-.447 1-1s-.448-1-1-1h-.01c-.552 0-.994.447-.994 1s.452 1 1.004 1z"/><path d="m30.032 3.979c.552 0 1-.448 1-1s-.448-1-1-1h-.011c-.552 0-.994.448-.994 1s.452 1 1.005 1z"/><path d="m30.021 60.021c-.552 0-.994.447-.994 1s.452 1 1.005 1c.552 0 1-.447 1-1s-.448-1-1-1z"/><path d="m6.006 52.982c0-.553-.447-1-1-1s-1 .447-1 1c0 2.732 1.6 5.178 4.032 6.32.164 1.501 1.424 2.678 2.968 2.678 1.654 0 3-1.346 3-3s-1.346-3-3-3c-1.036 0-1.951.528-2.49 1.33-1.528-.879-2.51-2.516-2.51-4.328zm5 4.998c.552 0 1 .448 1 1s-.448 1-1 1-1-.448-1-1 .448-1 1-1z"/><path d="m56.006 10.979c2.206 0 4-1.794 4-4s-1.794-4-4-4-4 1.794-4 4 1.794 4 4 4zm0-6c1.103 0 2 .897 2 2s-.897 2-2 2-2-.897-2-2 .897-2 2-2z"/><path d="m32.007 55c12.683 0 23-10.317 23-23 0-6.034-2.339-11.53-6.154-15.637-.032-.038-.063-.073-.101-.106-4.198-4.463-10.149-7.257-16.745-7.257-12.683 0-23 10.318-23 23 0 12.683 10.317 23 23 23zm-20.608-27h23.604c.553 0 1-.448 1-1s-.447-1-1-1h-23.112c2.59-8.664 10.622-15 20.116-15 5.172 0 9.905 1.889 13.569 5h-17.581c-.553 0-1 .448-1 1s.447 1 1 1h19.62c3.34 3.72 5.392 8.619 5.392 14 0 1.368-.142 2.703-.393 3.999h-23.624c-.553 0-1 .447-1 1s.447 1 1 1h23.133c-2.59 8.663-10.622 15.001-20.116 15.001-5.16 0-9.884-1.879-13.544-4.978h17.624c.553 0 1-.447 1-1s-.447-1-1-1h-19.667c-3.353-3.722-5.413-8.63-5.413-14.022 0-1.368.141-2.703.392-4z"/><path d="m19.993 40.005c2.317 0 4-1.052 4-2.5 0-1.449-1.683-2.501-4-2.501s-4 1.052-4 2.501c0 1.448 1.683 2.5 4 2.5zm0-3.001c1.038 0 1.714.307 1.942.501-.229.194-.904.5-1.942.5s-1.714-.306-1.942-.5c.228-.194.904-.501 1.942-.501z"/><path d="m44.003 29.987c2.317 0 4-1.051 4-2.5s-1.683-2.499-4-2.499-4 1.051-4 2.499 1.683 2.5 4 2.5zm0-2.999c1.036 0 1.712.305 1.941.499-.229.194-.905.5-1.941.5s-1.712-.305-1.941-.5c.229-.194.905-.499 1.941-.499z"/></g></svg>