<svg id="icons" enable-background="new 0 0 64 64" height="512" viewBox="0 0 64 64" width="512" xmlns="http://www.w3.org/2000/svg"><g><path d="m32 53c11.579 0 21-9.421 21-21 0-11.58-9.421-21-21-21s-21 9.42-21 21c0 11.579 9.421 21 21 21zm0-40c10.477 0 19 8.523 19 19s-8.523 19-19 19-19-8.523-19-19 8.523-19 19-19z"/><path d="m10.954 19.033c-.256.068-.475.236-.607.466-.133.23-.168.503-.1.76l.491 1.826-1.716.8c-.24.112-.426.315-.517.564s-.079.524.033.765l.8 1.713-1.55 1.085c-.218.152-.365.385-.412.646-.046.262.015.53.167.748l1.086 1.548-1.339 1.339c-.186.187-.292.442-.292.707s.105.52.293.707l1.339 1.336-1.086 1.551c-.152.217-.212.486-.165.747.046.262.194.494.411.646l1.55 1.084-.8 1.715c-.112.24-.124.516-.033.765.091.25.277.453.518.564l1.714.798-.49 1.828c-.068.256-.033.529.1.759s.352.397.608.466l1.827.488-.166 1.886c-.023.265.06.527.23.73.17.204.415.331.679.354l1.886.164.163 1.884c.022.265.149.51.354.68.203.171.465.257.73.23l1.885-.166.488 1.827c.068.257.236.476.466.608.229.131.502.166.76.1l1.828-.491.798 1.715c.111.24.314.427.564.518s.524.08.765-.033l1.716-.801 1.083 1.55c.151.217.384.365.646.411.262.049.53-.013.747-.165l1.549-1.085 1.34 1.341c.188.188.441.293.707.293s.52-.105.707-.293l1.338-1.339 1.549 1.086c.218.151.487.214.748.165.262-.046.493-.193.646-.411l1.085-1.551 1.715.801c.24.112.515.123.765.033.25-.091.453-.276.564-.518l.799-1.715 1.828.49c.254.067.528.032.759-.1.229-.133.397-.352.466-.608l.488-1.827 1.887.165c.266.027.526-.06.73-.23.203-.171.33-.415.353-.68l.163-1.884 1.886-.165c.265-.023.509-.15.68-.354.17-.203.253-.466.229-.73l-.166-1.884 1.828-.49c.257-.068.475-.236.607-.466.133-.23.168-.503.1-.76l-.49-1.826 1.715-.8c.501-.233.717-.829.483-1.329l-.8-1.714 1.55-1.085c.452-.317.562-.941.245-1.394l-1.085-1.548 1.338-1.339c.188-.188.293-.442.293-.708s-.105-.52-.293-.707l-1.338-1.336 1.085-1.551c.152-.217.212-.486.165-.747-.046-.261-.193-.494-.411-.646l-1.55-1.084.8-1.715c.233-.5.017-1.095-.483-1.329l-1.715-.8.489-1.826c.068-.256.033-.529-.1-.759-.133-.229-.352-.397-.607-.466l-1.827-.49.164-1.885c.048-.55-.358-1.035-.909-1.083l-1.885-.165-.165-1.884c-.049-.55-.539-.963-1.083-.909l-1.885.165-.49-1.828c-.144-.534-.689-.851-1.225-.707l-1.827.49-.8-1.714c-.233-.5-.829-.718-1.329-.483l-1.714.8-1.088-1.547c-.152-.217-.385-.365-.646-.411-.262-.046-.53.014-.748.166l-1.547 1.084-1.337-1.337c-.186-.188-.44-.293-.706-.293s-.52.105-.707.293l-1.338 1.338-1.55-1.085c-.217-.151-.483-.212-.747-.166-.261.046-.493.194-.646.412l-1.085 1.55-1.714-.8c-.241-.112-.516-.125-.765-.034s-.452.277-.564.518l-.8 1.715-1.827-.49c-.255-.069-.529-.033-.759.1s-.397.352-.466.607l-.489 1.827-1.885-.165c-.256-.022-.526.06-.729.23s-.331.415-.354.679l-.164 1.884-1.886.165c-.265.023-.509.15-.679.354-.171.203-.254.466-.23.73l.165 1.884zm3.156 1.226c.469-.125.779-.569.737-1.053l-.151-1.724 1.726-.151c.483-.042.867-.426.909-.909l.15-1.723 1.725.151c.478.037.927-.269 1.053-.737l.447-1.671 1.672.448c.466.127.96-.103 1.165-.543l.731-1.569 1.568.732c.438.205.963.066 1.242-.333l.993-1.418 1.418.993c.396.277.938.231 1.28-.112l1.225-1.227 1.223 1.224c.344.343.884.391 1.281.112l1.416-.992.992 1.417c.277.396.801.538 1.242.333l1.568-.731.731 1.568c.204.439.697.668 1.165.543l1.672-.448.449 1.672c.126.468.576.775 1.053.737l1.724-.151.151 1.724c.042.483.426.866.909.909l1.725.151-.15 1.725c-.042.483.269.927.737 1.053l1.672.448-.448 1.671c-.126.469.104.96.543 1.165l1.569.732-.731 1.569c-.205.44-.064.963.333 1.242l1.418.992-.993 1.419c-.278.397-.23.938.112 1.281l1.225 1.223-1.225 1.225c-.344.344-.391.884-.112 1.281l.993 1.416-1.418.993c-.397.279-.537.803-.332 1.242l.731 1.567-1.569.732c-.439.205-.669.697-.543 1.166l.448 1.67-1.672.449c-.469.126-.78.57-.737 1.054l.151 1.723-1.726.151c-.484.042-.867.426-.909.91l-.149 1.724-1.726-.151c-.477-.05-.928.27-1.053.738l-.447 1.671-1.672-.448c-.467-.128-.961.104-1.165.544l-.73 1.568-1.569-.732c-.441-.206-.965-.063-1.242.333l-.993 1.419-1.417-.993c-.397-.276-.937-.231-1.281.112l-1.224 1.223-1.226-1.227c-.193-.193-.449-.293-.707-.293-.2 0-.4.06-.573.181l-1.417.992-.991-1.418c-.278-.398-.804-.538-1.242-.333l-1.569.732-.73-1.568c-.205-.44-.695-.673-1.166-.544l-1.672.449-.447-1.672c-.125-.47-.576-.787-1.054-.738l-1.724.152-.149-1.724c-.042-.484-.426-.868-.909-.91l-1.726-.15.151-1.725c.043-.484-.269-.929-.738-1.054l-1.671-.447.448-1.672c.126-.469-.104-.96-.544-1.165l-1.568-.73.732-1.569c.205-.44.064-.964-.333-1.242l-1.418-.991.993-1.419c.278-.397.23-.938-.112-1.281l-1.225-1.222 1.225-1.225c.344-.343.391-.884.111-1.281l-.993-1.416 1.418-.993c.398-.279.538-.803.333-1.243l-.732-1.567 1.57-.731c.439-.205.669-.697.543-1.166l-.449-1.671z"/><path d="m16.026 39h-.011c-.552 0-.994.447-.994 1s.452 1 1.005 1c.552 0 1-.447 1-1s-.448-1-1-1z"/><path d="m20.026 45c.552 0 1-.447 1-1s-.448-1-1-1h-.011c-.552 0-.994.447-.994 1s.453 1 1.005 1z"/><path d="m24.026 49c.552 0 1-.447 1-1s-.448-1-1-1h-.011c-.552 0-.994.447-.994 1s.453 1 1.005 1z"/><path d="m16.026 33c.552 0 1-.448 1-1s-.448-1-1-1h-.011c-.552 0-.994.448-.994 1s.453 1 1.005 1z"/><path d="m20.026 37c.552 0 1-.447 1-1s-.448-1-1-1h-.011c-.552 0-.994.447-.994 1s.453 1 1.005 1z"/><path d="m24.026 41c.552 0 1-.447 1-1s-.448-1-1-1h-.011c-.552 0-.994.447-.994 1s.453 1 1.005 1z"/><path d="m28.026 45c.552 0 1-.447 1-1s-.448-1-1-1h-.011c-.552 0-.994.447-.994 1s.453 1 1.005 1z"/><path d="m32.026 49c.552 0 1-.447 1-1s-.448-1-1-1h-.011c-.552 0-.994.447-.994 1s.453 1 1.005 1z"/><path d="m16.026 25c.552 0 1-.448 1-1s-.448-1-1-1h-.011c-.552 0-.994.448-.994 1s.453 1 1.005 1z"/><path d="m20.026 29c.552 0 1-.448 1-1s-.448-1-1-1h-.011c-.552 0-.994.448-.994 1s.453 1 1.005 1z"/><path d="m24.026 33c.552 0 1-.448 1-1s-.448-1-1-1h-.011c-.552 0-.994.448-.994 1s.453 1 1.005 1z"/><path d="m28.026 37c.552 0 1-.447 1-1s-.448-1-1-1h-.011c-.552 0-.994.447-.994 1s.453 1 1.005 1z"/><path d="m32.026 41c.552 0 1-.447 1-1s-.448-1-1-1h-.011c-.552 0-.994.447-.994 1s.453 1 1.005 1z"/><path d="m36.026 45c.552 0 1-.447 1-1s-.448-1-1-1h-.011c-.552 0-.994.447-.994 1s.453 1 1.005 1z"/><path d="m40.026 49c.552 0 1-.447 1-1s-.448-1-1-1h-.011c-.552 0-.994.447-.994 1s.453 1 1.005 1z"/><path d="m20.026 21c.552 0 1-.448 1-1s-.448-1-1-1h-.011c-.552 0-.994.448-.994 1s.453 1 1.005 1z"/><path d="m24.026 25c.552 0 1-.448 1-1s-.448-1-1-1h-.011c-.552 0-.994.448-.994 1s.453 1 1.005 1z"/><path d="m28.026 29c.552 0 1-.448 1-1s-.448-1-1-1h-.011c-.552 0-.994.448-.994 1s.453 1 1.005 1z"/><path d="m32.026 33c.552 0 1-.448 1-1s-.448-1-1-1h-.011c-.552 0-.994.448-.994 1s.453 1 1.005 1z"/><path d="m36.026 37c.552 0 1-.447 1-1s-.448-1-1-1h-.011c-.552 0-.994.447-.994 1s.453 1 1.005 1z"/><path d="m40.026 41c.552 0 1-.447 1-1s-.448-1-1-1h-.011c-.552 0-.994.447-.994 1s.453 1 1.005 1z"/><path d="m44.026 45c.552 0 1-.447 1-1s-.448-1-1-1h-.011c-.552 0-.994.447-.994 1s.453 1 1.005 1z"/><path d="m24.026 17c.552 0 1-.448 1-1s-.448-1-1-1h-.011c-.552 0-.994.448-.994 1s.453 1 1.005 1z"/><path d="m28.026 21c.552 0 1-.448 1-1s-.448-1-1-1h-.011c-.552 0-.994.448-.994 1s.453 1 1.005 1z"/><path d="m32.026 25c.552 0 1-.448 1-1s-.448-1-1-1h-.011c-.552 0-.994.448-.994 1s.453 1 1.005 1z"/><path d="m36.026 29c.552 0 1-.448 1-1s-.448-1-1-1h-.011c-.552 0-.994.448-.994 1s.453 1 1.005 1z"/><path d="m40.026 33c.552 0 1-.448 1-1s-.448-1-1-1h-.011c-.552 0-.994.448-.994 1s.453 1 1.005 1z"/><path d="m44.026 37c.552 0 1-.447 1-1s-.448-1-1-1h-.011c-.552 0-.994.447-.994 1s.453 1 1.005 1z"/><path d="m48.026 41c.552 0 1-.447 1-1s-.448-1-1-1h-.011c-.552 0-.994.447-.994 1s.453 1 1.005 1z"/><path d="m32.026 17c.552 0 1-.448 1-1s-.448-1-1-1h-.011c-.552 0-.994.448-.994 1s.453 1 1.005 1z"/><path d="m36.026 21c.552 0 1-.448 1-1s-.448-1-1-1h-.011c-.552 0-.994.448-.994 1s.453 1 1.005 1z"/><path d="m40.026 25c.552 0 1-.448 1-1s-.448-1-1-1h-.011c-.552 0-.994.448-.994 1s.453 1 1.005 1z"/><path d="m44.026 29c.552 0 1-.448 1-1s-.448-1-1-1h-.011c-.552 0-.994.448-.994 1s.453 1 1.005 1z"/><path d="m48.026 33c.552 0 1-.448 1-1s-.448-1-1-1h-.011c-.552 0-.994.448-.994 1s.453 1 1.005 1z"/><path d="m40.026 17c.552 0 1-.448 1-1s-.448-1-1-1h-.011c-.552 0-.994.448-.994 1s.453 1 1.005 1z"/><path d="m44.026 21c.552 0 1-.448 1-1s-.448-1-1-1h-.011c-.552 0-.994.448-.994 1s.453 1 1.005 1z"/><path d="m48.026 25c.552 0 1-.448 1-1s-.448-1-1-1h-.011c-.552 0-.994.448-.994 1s.453 1 1.005 1z"/><path d="m58.999 48.02c-.553 0-1 .447-1 1v1c-.553 0-1 .447-1 1s.447 1 1 1v1c0 .553.447 1 1 1s1-.447 1-1v-1c.553 0 1-.447 1-1s-.447-1-1-1v-1c0-.553-.447-1-1-1z"/><path d="m7.995 7.021v1c0 .552.447 1 1 1s1-.448 1-1v-1c.553 0 1-.448 1-1s-.447-1-1-1v-1c0-.552-.447-1-1-1s-1 .448-1 1v1c-.553 0-1 .448-1 1s.447 1 1 1z"/><path d="m2.031 24.988c.552 0 1-.448 1-1s-.448-1-1-1h-.01c-.552 0-.994.448-.994 1s.452 1 1.004 1z"/><path d="m62.029 27.015c.552 0 1-.448 1-1s-.448-1-1-1h-.011c-.552 0-.994.448-.994 1s.453 1 1.005 1z"/><path d="m34.028 62.021c.552 0 1-.447 1-1s-.448-1-1-1h-.011c-.552 0-.994.447-.994 1s.453 1 1.005 1z"/><path d="m34.028 3.979c.552 0 1-.448 1-1s-.448-1-1-1h-.011c-.552 0-.994.448-.994 1s.453 1 1.005 1z"/><path d="m52.994 8.019c1.036 0 1.95-.528 2.49-1.329 1.527.88 2.51 2.517 2.51 4.328 0 .552.447 1 1 1s1-.448 1-1c0-2.733-1.6-5.178-4.032-6.321-.163-1.501-1.424-2.678-2.968-2.678-1.654 0-3 1.346-3 3s1.346 3 3 3zm0-4c.552 0 1 .449 1 1s-.448 1-1 1-1-.449-1-1 .448-1 1-1z"/><path d="m7.994 61.021c2.206 0 4-1.794 4-4s-1.794-4-4-4-4 1.794-4 4 1.794 4 4 4zm0-6c1.103 0 2 .897 2 2s-.897 2-2 2-2-.897-2-2 .898-2 2-2z"/></g></svg>