<svg id="icons" enable-background="new 0 0 64 64" height="512" viewBox="0 0 64 64" width="512" xmlns="http://www.w3.org/2000/svg"><g><path d="m4.496 7.978v1c0 .552.447 1 1 1s1-.448 1-1v-1c.553 0 1-.448 1-1s-.447-1-1-1v-1c0-.552-.447-1-1-1s-1 .448-1 1v1c-.553 0-1 .448-1 1s.447 1 1 1z"/><path d="m58.504 58.979v1c0 .553.447 1 1 1s1-.447 1-1v-1c.553 0 1-.447 1-1s-.447-1-1-1v-1c0-.553-.447-1-1-1s-1 .447-1 1v1c-.553 0-1 .447-1 1s.447 1 1 1z"/><path d="m60.522 33.004c.552 0 1-.448 1-1s-.448-1-1-1h-.011c-.552 0-.994.448-.994 1s.453 1 1.005 1z"/><path d="m3.526 34.98c.552 0 1-.447 1-1s-.448-1-1-1h-.01c-.552 0-.994.447-.994 1s.452 1 1.004 1z"/><path d="m30.526 3.979c.552 0 1-.448 1-1s-.448-1-1-1h-.011c-.552 0-.994.448-.994 1s.453 1 1.005 1z"/><path d="m31.526 61.021c0-.553-.448-1-1-1h-.011c-.552 0-.994.447-.994 1s.452 1 1.005 1c.552 0 1-.447 1-1z"/><path d="m6.502 50.98c0 2.733 1.6 5.179 4.032 6.32.164 1.501 1.424 2.678 2.968 2.678 1.654 0 3-1.346 3-3s-1.346-3-3-3c-1.036 0-1.951.528-2.49 1.329-1.527-.88-2.51-2.517-2.51-4.327 0-.553-.447-1-1-1s-1 .448-1 1zm7 4.999c.552 0 1 .448 1 1s-.448 1-1 1-1-.448-1-1 .448-1 1-1z"/><path d="m53.498 13.981c2.206 0 4-1.794 4-4s-1.794-4-4-4-4 1.794-4 4 1.794 4 4 4zm0-6c1.103 0 2 .897 2 2s-.897 2-2 2-2-.897-2-2 .898-2 2-2z"/><path d="m14.502 32c0 9.925 8.075 18 18 18 2.96 0 5.747-.731 8.213-2.002 4.146 3.084 8.111 5.381 10.632 5.38.764 0 1.396-.211 1.858-.674 1.732-1.732.143-5.938-4.705-12.493 1.271-2.465 2.002-5.252 2.002-8.211 0-9.925-8.075-18-18-18-2.96 0-5.747.731-8.213 2.002-6.557-4.849-10.762-6.436-12.49-4.706-1.994 1.994.688 7.088 4.705 12.49-1.271 2.466-2.002 5.254-2.002 8.214zm18 16c-8.822 0-16-7.178-16-16 0-2.29.492-4.464 1.362-6.436 3.235 4.116 7.029 8.233 9.935 11.139s7.023 6.699 11.14 9.934c-1.972.871-4.147 1.363-6.437 1.363zm19.289 3.29c-.654.652-4.02-.687-9.191-4.398 1.886-1.283 3.517-2.914 4.799-4.801 4.695 6.514 4.681 8.91 4.392 9.199zm-3.289-19.29c0 5.752-3.062 10.791-7.631 13.61-3.332-2.538-7.272-5.936-11.658-10.321s-7.783-8.325-10.322-11.657c2.82-4.569 7.858-7.632 13.611-7.632 8.822 0 16 7.178 16 16zm-35.288-19.29c.286-.29 2.679-.303 9.196 4.395-1.887 1.282-3.518 2.913-4.801 4.799-3.712-5.173-5.049-8.539-4.395-9.194z"/></g></svg>