<svg id="icons" enable-background="new 0 0 64 64" height="512" viewBox="0 0 64 64" width="512" xmlns="http://www.w3.org/2000/svg"><g><path d="m57.498 54.021c.553 0 1-.447 1-1v-1c.553 0 1-.447 1-1s-.447-1-1-1v-1c0-.553-.447-1-1-1s-1 .447-1 1v1c-.553 0-1 .447-1 1s.447 1 1 1v1c0 .552.447 1 1 1z"/><path d="m8.494 5.021c-.553 0-1 .447-1 1s.447 1 1 1v1c0 .553.447 1 1 1s1-.447 1-1v-1c.553 0 1-.447 1-1s-.447-1-1-1v-1c0-.553-.447-1-1-1s-1 .447-1 1z"/><path d="m2.53 29.993c.552 0 1-.447 1-1s-.448-1-1-1h-.01c-.552 0-.994.447-.994 1s.452 1 1.004 1z"/><path d="m61.53 28.019h-.01c-.552 0-.994.447-.994 1s.452 1 1.005 1c.552 0 1-.447 1-1s-.449-1-1.001-1z"/><path d="m37.521 60.022c-.552 0-.994.447-.994 1s.452 1 1.005 1c.552 0 1-.447 1-1s-.448-1-1-1z"/><path d="m35.528 2.978c0-.553-.448-1-1-1h-.011c-.552 0-.994.447-.994 1s.452 1 1.005 1c.552 0 1-.448 1-1z"/><path d="m60.496 12.019c0-2.734-1.6-5.18-4.032-6.321-.164-1.502-1.424-2.678-2.968-2.678-1.654 0-3 1.346-3 3s1.346 3 3 3c1.036 0 1.951-.528 2.49-1.329 1.528.88 2.51 2.517 2.51 4.328 0 .553.447 1 1 1s1-.448 1-1zm-7-4.999c-.552 0-1-.448-1-1s.448-1 1-1 1 .448 1 1-.448 1-1 1z"/><path d="m5.494 55.02c0 2.206 1.794 4 4 4s4-1.794 4-4-1.794-4-4-4-4 1.793-4 4zm4-2c1.103 0 2 .897 2 2s-.897 2-2 2-2-.897-2-2 .898-2 2-2z"/><path d="m27.282 12.714c-8.505 2.302-14.788 10.064-14.788 19.286 0 9.223 6.283 16.985 14.788 19.287 1.305 3.467 3.051 5.693 5.212 5.693 1.426 0 3.47-1.014 5.23-5.698 8.496-2.307 14.77-10.066 14.77-19.282s-6.274-16.974-14.77-19.281c-1.76-4.686-3.804-5.698-5.229-5.698-2.162 0-3.908 2.226-5.213 5.693zm-12.788 19.286c0-7.828 5.033-14.487 12.026-16.958-1.338 4.723-2.034 10.934-2.034 16.958 0 6.025.695 12.236 2.034 16.959-6.993-2.472-12.026-9.131-12.026-16.959zm18 22.98c-.895 0-1.915-1.131-2.857-3.209.935.135 1.884.229 2.857.229.975 0 1.926-.094 2.863-.229-.922 2.028-1.95 3.209-2.863 3.209zm18-22.98c0 9.925-8.075 18-18 18-1.264 0-2.496-.134-3.687-.383-1.316-3.975-2.321-9.998-2.321-17.617 0-7.618 1.005-13.643 2.321-17.616 1.19-.249 2.423-.383 3.687-.383 9.925 0 18 8.074 18 17.999zm-15.137-19.77c-.938-.136-1.889-.229-2.863-.229-.973 0-1.922.094-2.857.229.942-2.078 1.963-3.209 2.857-3.209.912 0 1.94 1.181 2.863 3.209z"/></g></svg>