<svg xmlns="http://www.w3.org/2000/svg" xmlns:xlink="http://www.w3.org/1999/xlink" version="1.1" x="0px" y="0px" viewBox="0 0 90 90" enable-background="new 0 0 90 90" xml:space="preserve"><g><path d="M29.4,49.6c-3.6-2.4-8.5-1.6-8.5-1.6s1.1,4.8,4.7,7.2c3.6,2.4,8.5,1.6,8.5,1.6S33,52.1,29.4,49.6z"></path><path d="M60.6,49.6c-3.6,2.4-4.7,7.2-4.7,7.2s4.8,0.8,8.5-1.6c3.6-2.4,4.7-7.2,4.7-7.2S64.3,47.2,60.6,49.6z"></path><path d="M53.1,73.4c-2.5-0.3-4.4-1.1-5.5-2.6c-0.9-1.1-1.1-2.4-1.2-3.4c1.6-0.3,2.7-0.9,2.7-1.7c0-1-2-1.9-4.4-1.9   s-4.4,0.8-4.4,1.9c0,0.9,1.4,1.6,3.3,1.8c-0.1,1-0.3,2.2-1.2,3.3c-1.1,1.5-2.9,2.3-5.5,2.6c-0.6,0.1-1.1,0.6-1,1.3   c0.1,0.6,0.6,1,1.2,1c0,0,0.1,0,0.1,0c3.2-0.3,5.6-1.5,7.1-3.6c0.3-0.4,0.5-0.8,0.7-1.1c0.2,0.4,0.4,0.8,0.7,1.1   c1.5,2,3.9,3.2,7.1,3.6c0,0,0.1,0,0.1,0c0.6,0,1.1-0.4,1.2-1C54.2,74,53.7,73.5,53.1,73.4z"></path><path d="M89.5,68.1H77.7c2.9-4,4.6-8.6,4.6-13.5c0-4.3-1.4-8.9-3.9-13.2c0.7-2.7,5.1-21.4-3.5-34.5c-0.1-0.1-1.6-2.1-4.2-2.1   c-1.8,0-3.6,1.1-5.1,3C64.5,9.1,54.7,19.4,52.9,23c-2.6-0.6-5.2-0.9-8-0.9c-2.7,0-5.4,0.4-7.9,0.9C35.3,19.4,25.5,9.1,24.4,8   c-1.6-2.1-3.3-3.1-5.2-3.1c-2.4-0.1-4.1,2-4.2,2.2c-8.5,13-4.2,31.6-3.4,34.4c-2.5,4.3-3.9,8.9-3.9,13.2c0,4.9,1.7,9.4,4.6,13.5   H0.5c-0.6,0-1.2,0.5-1.2,1.2s0.5,1.2,1.2,1.2h13.7c2.1,2.3,4.6,4.3,7.4,6.1L8.1,83c-0.5,0.4-0.7,1.1-0.3,1.6c0.2,0.3,0.6,0.5,1,0.5   c0.2,0,0.5-0.1,0.7-0.2l14.6-7c6,3.1,13.1,5,20.9,5.1h0h0c7.7-0.1,14.9-2,20.9-5.1l14.6,7c0.2,0.1,0.4,0.2,0.7,0.2   c0.4,0,0.7-0.2,1-0.5c0.4-0.5,0.2-1.3-0.3-1.6l-13.5-6.5c2.8-1.7,5.4-3.8,7.4-6.1h13.7c0.6,0,1.2-0.5,1.2-1.2S90.1,68.1,89.5,68.1z    M67.4,9.4c1.1-1.4,2.2-2.2,3.3-2.2C72,7.2,73,8.3,73,8.3c6.6,10.2,4.7,24.6,3.6,30.4c-4.8-6.7-12.3-12.5-21.3-15.1   C56.9,20.9,63.3,13.7,67.4,9.4z M16.9,8.4c0,0,1-1.2,2.3-1.2c0,0,0,0,0,0c1.1,0,2.2,0.7,3.4,2.3c4,4.2,10.4,11.4,12.1,14.1   c-9,2.6-16.5,8.3-21.3,15.1C12.2,32.9,10.3,18.5,16.9,8.4z M74.7,68.1h-15c-0.6,0-1.2,0.5-1.2,1.2s0.5,1.2,1.2,1.2h12.8   c-1.9,1.8-4.2,3.5-6.7,4.9l-5.4-2.6c-0.5-0.4-1.3-0.2-1.6,0.3c-0.4,0.5-0.2,1.3,0.3,1.6l4.1,2c-5.3,2.4-11.5,3.9-18.2,4   c-6.7-0.1-12.9-1.6-18.2-4l4.1-2c0.5-0.4,0.7-1.1,0.3-1.6c-0.4-0.5-1.1-0.7-1.6-0.3l-5.4,2.6c-2.5-1.4-4.8-3-6.7-4.9h12.8   c0.6,0,1.2-0.5,1.2-1.2s-0.5-1.2-1.2-1.2h-15c-3.3-3.9-5.2-8.6-5.2-13.5C10,40.8,25.3,24.6,45,24.4c19.7,0.2,35,16.4,35,30.3   C80,59.6,78.1,64.2,74.7,68.1z"></path></g></svg>