<svg xmlns="http://www.w3.org/2000/svg" xmlns:xlink="http://www.w3.org/1999/xlink" version="1.1" x="0px" y="0px" viewBox="30 30 100 100" enable-background="new 30 30 100 100" xml:space="preserve"><path d="M104.375,96.215v19.807l4.955,2.725c1.209,0.666,1.651,2.186,0.985,3.396c-0.456,0.827-1.311,1.295-2.192,1.295  c-0.407,0-0.82-0.1-1.203-0.311l-6.25-3.438c-0.799-0.438-1.295-1.277-1.295-2.189V95.625c0-0.389,0.09-0.771,0.264-1.118  l2.861-5.722V73.75c0-0.043,0.011-0.086,0.014-0.129c-0.036-0.869,0.371-1.732,1.161-2.226l8.619-5.387l2.349-6.93l-7.577-7.829  h-5.19c-1.381,0-2.5-1.119-2.5-2.5s1.119-2.5,2.5-2.5h6.25c0.677,0,1.326,0.274,1.797,0.762l9.375,9.688  c0.651,0.672,0.871,1.653,0.571,2.541l-3.125,9.219c-0.185,0.546-0.553,1.012-1.042,1.317l-8.2,5.125v14.475  c0,0.389-0.091,0.771-0.264,1.118L104.375,96.215z M71.25,120.625c0,1.381,1.119,2.5,2.5,2.5H92.5c0.771,0,1.496-0.354,1.971-0.961  c0.474-0.607,0.642-1.398,0.455-2.146l-6.25-25c-0.335-1.339-1.691-2.151-3.032-1.819c-1.339,0.335-2.153,1.692-1.818,3.032  l5.473,21.894H73.75C72.369,118.125,71.25,119.244,71.25,120.625z M99.784,37.099c-1.257-0.571-2.738-0.016-3.311,1.242  L81.227,71.886c-1.869,0.935-6.329,3.431-10.807,7.909c-5.323,5.323-11.669,14.561-11.669,28.33v9.375  c0,1.206-0.981,2.188-2.188,2.188s-2.188-0.981-2.188-2.188v-15.625c0-11.066-2.356-18.975-7.003-23.507  c-3.771-3.678-7.623-3.687-8.06-3.68c-1.38,0.035-2.472,1.182-2.437,2.562c0.035,1.381,1.162,2.467,2.562,2.437l0,0  c0.041,0,2.185,0.058,4.443,2.26c2.507,2.445,5.494,7.886,5.494,19.928v16.25c0,0.282,0.057,0.548,0.143,0.801  c0.664,3.282,3.569,5.762,7.044,5.762c3.963,0,7.188-3.225,7.188-7.188v-9.375c0-22.986,19.533-31.719,20.364-32.08  c0.005-0.001,0.008-0.005,0.013-0.006c0.137-0.061,0.267-0.135,0.391-0.218c0.033-0.022,0.063-0.046,0.095-0.069  c0.091-0.067,0.177-0.142,0.259-0.221c0.027-0.028,0.057-0.054,0.084-0.083c0.098-0.105,0.19-0.218,0.27-0.342  c0.006-0.009,0.01-0.018,0.015-0.027c0.059-0.093,0.113-0.191,0.161-0.294l15.625-34.375  C101.598,39.153,101.042,37.67,99.784,37.099z"></path></svg>