<svg xmlns="http://www.w3.org/2000/svg" xmlns:xlink="http://www.w3.org/1999/xlink" version="1.1" x="0px" y="0px" viewBox="0 0 100 100" enable-background="new 0 0 100 100" xml:space="preserve"><g><path fill="#000000" d="M90.069,52.439c-10.373,0.666-12.876-7.969-16.2-7.969c0,0,3.552-14.426-6.99-23.746l-7.878,12.538   c0,0-0.73-0.399-2.164-0.805c-0.657-1.615-0.844-3.218,1.13-5.545c-3.044-0.337-5.431,0.936-7.062,3.08   c-1.544-1.418-2.768-2.777-1.683-6.142c-4.052,1.17-5.789,4.686-5.701,8.669c-1.289,0.383-1.945,0.742-1.945,0.742l-7.879-12.538   c-10.541,9.32-6.99,23.746-6.99,23.746c-3.324,0-5.826,8.635-16.2,7.969c0,5.152,4.963,9.32,11.097,9.32   c-2.76,0-5.549,6.325-3.662,10.542C24.985,67.77,32.029,72.1,36.546,73.4c3.493-0.115,6.738-0.854,9.222-2.113   c2.504-1.27,3.928-2.906,4.037-4.632c-0.139-0.06-0.27-0.143-0.383-0.254l-2.787-2.719c-0.494-0.482-0.352-1.017,0.318-1.188   l2.15-0.549c0.67-0.172,1.763-0.165,2.429,0.015l1.936,0.519c0.667,0.18,0.818,0.73,0.336,1.226l-2.607,2.674   c-0.123,0.128-0.268,0.222-0.424,0.284c0.114,1.723,1.537,3.357,4.037,4.624c2.482,1.259,5.729,1.998,9.221,2.113   c4.518-1.301,11.561-5.631,18.605-1.099c1.887-4.217-0.902-10.542-3.662-10.542C85.106,61.76,90.069,57.592,90.069,52.439z    M67.628,28.41c4.487,5.141,2.352,11.761,2.352,11.761c-2.743-3.092-7.057-5.401-7.057-5.401L67.628,28.41z M32.948,28.41   l4.705,6.359c0,0-4.313,2.31-7.058,5.401C30.596,40.171,28.461,33.551,32.948,28.41z M37.973,69.182c-0.27,0-0.49-0.22-0.49-0.49   s0.221-0.49,0.49-0.49c0.271,0,0.49,0.22,0.49,0.49S38.244,69.182,37.973,69.182z M39.279,66.638c-0.271,0-0.49-0.22-0.49-0.49   s0.219-0.49,0.49-0.49c0.271,0,0.49,0.22,0.49,0.49S39.55,66.638,39.279,66.638z M41.847,70.651c-0.271,0-0.49-0.219-0.49-0.489   s0.22-0.49,0.49-0.49s0.49,0.22,0.49,0.49S42.117,70.651,41.847,70.651z M41.847,67.927c-0.271,0-0.49-0.22-0.49-0.49   c0-0.271,0.22-0.49,0.49-0.49s0.49,0.219,0.49,0.49C42.337,67.707,42.117,67.927,41.847,67.927z M43.808,65.691   c-0.271,0-0.491-0.22-0.491-0.491c0-0.27,0.221-0.489,0.491-0.489s0.489,0.22,0.489,0.489   C44.297,65.472,44.078,65.691,43.808,65.691z M45.357,68.691c-0.271,0-0.49-0.22-0.49-0.49s0.219-0.49,0.49-0.49   c0.271,0,0.49,0.22,0.49,0.49S45.628,68.691,45.357,68.691z M55.22,68.691c-0.271,0-0.49-0.22-0.49-0.49s0.22-0.49,0.49-0.49   s0.49,0.22,0.49,0.49S55.49,68.691,55.22,68.691z M56.77,65.691c-0.271,0-0.49-0.22-0.49-0.491c0-0.27,0.22-0.489,0.49-0.489   s0.491,0.22,0.491,0.489C57.261,65.472,57.04,65.691,56.77,65.691z M58.729,70.651c-0.27,0-0.489-0.219-0.489-0.489   s0.22-0.49,0.489-0.49c0.271,0,0.49,0.22,0.49,0.49S59.001,70.651,58.729,70.651z M58.729,67.927c-0.27,0-0.489-0.22-0.489-0.49   c0-0.271,0.22-0.49,0.489-0.49c0.271,0,0.49,0.219,0.49,0.49C59.22,67.707,59.001,67.927,58.729,67.927z M61.298,66.638   c-0.271,0-0.49-0.22-0.49-0.49s0.219-0.49,0.49-0.49s0.49,0.22,0.49,0.49S61.569,66.638,61.298,66.638z M62.604,69.182   c-0.271,0-0.49-0.22-0.49-0.49s0.22-0.49,0.49-0.49s0.49,0.22,0.49,0.49S62.874,69.182,62.604,69.182z M62.78,62.061   c-5.104,0-9.256-4.152-9.256-9.257c0-0.83,0.111-1.633,0.316-2.398c-0.975-0.811-2.188-1.253-3.471-1.253   c-1.341,0-2.608,0.483-3.604,1.367c0.187,0.731,0.286,1.496,0.286,2.284c0,5.104-4.152,9.257-9.256,9.257s-9.256-4.152-9.256-9.257   c0-5.104,4.152-9.255,9.256-9.255c3.779,0,7.033,2.277,8.47,5.531c1.181-0.884,2.606-1.36,4.104-1.36   c1.447,0,2.824,0.445,3.98,1.271c1.455-3.206,4.686-5.441,8.43-5.441c5.104,0,9.255,4.151,9.255,9.255   C72.035,57.908,67.884,62.061,62.78,62.061z"></path><path fill="#000000" d="M50.224,68.446c-0.681,1.399-2.076,2.669-4.091,3.69c-2.121,1.076-4.762,1.79-7.63,2.083   c0.427,3.616,5.688,6.311,11.721,6.325c6.032-0.015,11.293-2.709,11.72-6.325c-2.868-0.293-5.509-1.007-7.63-2.083   C52.298,71.115,50.903,69.846,50.224,68.446z"></path><path fill="#000000" d="M62.78,44.981c-4.314,0-7.823,3.51-7.823,7.822c0,4.313,3.509,7.823,7.823,7.823   c4.312,0,7.822-3.51,7.822-7.823C70.603,48.491,67.093,44.981,62.78,44.981z M57.198,54.755c1.516-1.348,2.79-2.396,3.863-3.214   c0.522,0.95,1.029,2.194,1.301,3.74c0,0,1.725-0.924,0.498-5.023c3.439-2.256,3.816-1.173,3.816-1.173   C68.458,54.755,60.925,59.696,57.198,54.755z"></path><path fill="#000000" d="M37.797,44.981c-4.312,0-7.822,3.51-7.822,7.822c0,4.313,3.51,7.823,7.822,7.823s7.822-3.51,7.822-7.823   C45.619,48.491,42.109,44.981,37.797,44.981z M33.9,49.085c0,0,0.375-1.083,3.816,1.173c-1.227,4.1,0.497,5.023,0.497,5.023   c0.272-1.546,0.778-2.79,1.302-3.74c1.072,0.817,2.347,1.866,3.863,3.214C39.652,59.696,32.119,54.755,33.9,49.085z"></path></g></svg>