<svg xmlns="http://www.w3.org/2000/svg" xmlns:xlink="http://www.w3.org/1999/xlink" version="1.1" x="0px" y="0px" viewBox="358 366.8 100 100" style="enable-background:new 358 366.8 100 100;" xml:space="preserve"><g><g><path d="M446.3,404.4c-5.2,1-9.8,2.5-14.4,4.3c-0.4-4.9-1.8-9.9-3.1-13.9c-0.3-0.8-1.3-1.2-2-0.5c-2.1,2.1-2.3,5.4-4.4,7.2    c-2,1.7-4,1-6.7,1.2c-1.6,0.2-3.2,0.5-4.8,0.9c-1.1-3.1-2.6-5.8-4.6-8.5c-0.4-0.5-1.3-0.7-1.7,0c-2.1,3.7-3.3,7.5-3.6,11.8    c-0.1,1.1,1.6,1.1,1.7,0c0.4-3.4,1.3-6.5,2.8-9.5c1.6,2.4,2.8,4.8,3.7,7.6c0.2,0.5,0.7,0.8,1.2,0.7c3-0.6,5.9-0.8,8.9-0.7    c1.3,0.1,2.9,0.6,4.1-0.1c2.1-1.2,2.7-4.7,3.8-7.2c1.1,3.4,2.1,7.6,2.3,11.7c-3.2,1.3-6.3,2.6-9.7,4c-0.5,0.2-0.3,0.9,0.2,0.7    c3-1.2,6.2-2.5,9.5-3.6c0.1,1.8,0,3.5-0.4,5.2c-1.9,0.1-3.9,0.1-5.8,0.2c-0.6,0-0.6,0.9,0,0.9c1.9-0.1,3.7-0.2,5.6-0.3    c-0.4,1.5-0.9,3-1.8,4.2c-1.3-0.1-2.6-0.2-3.9-0.3c-0.4,0-0.4,0.6,0,0.6c1.1,0.1,2.3,0.2,3.4,0.3c-0.9,1.1-1.9,2-3.3,2.6    c-4.6,2.2-10.4,2.2-14.7-0.5c1-0.9,2-1.7,3-2.5c0.4-0.3-0.2-0.9-0.6-0.6c-1.1,0.8-2.2,1.7-3.2,2.6c-0.5-0.3-0.9-0.7-1.3-1.1    c-0.9-0.9-1.7-1.9-2.3-2.9c2.6-0.7,5.2-1,7.7-0.7c0.4,0.1,0.6-0.6,0.2-0.7c-3.1-0.5-6-0.7-8.7-0.3c-0.3-0.6-0.5-1.3-0.6-2    c0.5,0,1,0,1.5,0c3.1-0.1,6.4-0.4,9.5-0.2c0,0,0,0,0,0c-3-0.6-5.7-1.5-8.8-1.8c-0.9-0.1-1.7-0.1-2.6-0.1c-0.2-2.3,0.1-4.6,0.7-7    c0-0.1-0.1-0.1-0.2-0.1c-1.1,2.3-1.9,4.7-2.2,7.1c-2,0-4,0.1-6.1,0c-1.7-0.1-1.6,2.8,0,2.6c2-0.3,4-0.3,6-0.2    c0,0.8,0.2,1.7,0.4,2.5c-1.3,0.4-2.7,1-4,1.8c-0.9,0.6-0.1,1.9,0.9,1.5c1.2-0.5,2.5-1,3.8-1.5c0.3,0.6,0.7,1.2,1.1,1.8    c0.3,0.4,0.6,0.7,0.9,1.1c-4.5,2.3-8.6,0.1-12.8-1.9c-1-0.5-2.8-0.9-3.7-1.6c-2.5-2.1-2.9-5.1-3-8.1c-0.3-7.3,0.9-14.9-1.7-22    c-1-2.8-2.9-6.4-6.5-5.2c-5,1.7-3.9,10-3.8,13.9c0.3,7.7,3.2,14.5,4.6,22c1.7,8.6,1.2,17.4,1.3,26c0,1.8-1.2,11.2,3.2,10.2    c1.5-0.3,2.1-3.1,2.5-4.3c0.6-1.9,0.8-3.9,1.1-5.8c0.6,4.7,2,9.8,5.5,9.7c0.5,0,0.9-0.3,1.1-0.8c1.7-6.1-0.7-12.4,0.1-18.5    c1.8,1.2,3.8,2,6.1,2.4c2.3,0.4,6.3-0.7,8.3,0.1c2.2,0.9,1.1,5.3,1.1,7.4c-0.1,2.9-0.3,6.3,0.8,9c2,5,5.2,1.7,5.7-2    c0.3-2,0.2-4,0.2-6c0.1-3,0-6.2,1.4-1.4c1,3.5,1.1,7,3.1,10.2c0.6,0.9,1.7,0.8,2.4,0c2.9-4,1.9-9.4,1.6-14.1    c-0.3-4.7-0.1-9.9-2.2-14.1c4.4-0.9,7.3-3,9-5.9c2.3,0.2,4.5,0.4,6.8,0.6c0.6,0.1,0.6-0.9,0-0.9c-2.1-0.1-4.3-0.3-6.4-0.4    c0.7-1.4,1.2-2.9,1.5-4.5c2.8-0.1,5.5-0.1,8.2,0.1c1.1,0.1,1-1.8-0.2-1.6c-2.6,0.4-5.2,0.6-7.9,0.8c0.3-1.9,0.3-3.8,0.2-5.8    c4.9-1.5,9.9-2.6,14.7-2.8C448.7,407.1,448.4,404,446.3,404.4z M420.2,452.4c-1.3-3.2-1.7-6.7-3.1-9.9c-0.5-1.2-1.3-3.1-2.9-3.1    c-1.3,0-1.6,1-1.9,2c-0.8,2.2-0.3,5.3-0.3,7.6c0,0.9,0.4,3.1-0.1,3.8c-1.4,2.2-1.8-0.5-1.9-1.7c-0.3-3.2,0.1-6.3,0-9.5    c0-1.2,0.2-3.4-0.8-4.3c-0.9-0.9-2.7-0.6-3.8-0.6c-4.8,0.1-9.3,0.2-13.2-3.2c-0.6-0.5-1.6-0.4-1.8,0.5c-0.6,2.7-0.6,5.4-0.4,8.2    c0.1,1.1,1.5,10.3,0.3,10.8c-1.4,0.5-3-12.6-3.1-14c-0.1-1-1.6-1.7-2.1-0.6c-1.1,2.6-1.6,5.2-2,8c-0.2,1.2-0.1,2.9-0.7,3.9    c-1.2,2-1,0.5-1.4-0.9c-0.8-3.3-0.1-7.6-0.1-11c0-3,0-6.1-0.2-9.1c-0.3-6.3-1.5-12-3.3-18c-1.1-3.8-2-7.7-2.3-11.7    c-0.2-2.7-0.8-7.1,0.1-9.7c-0.1-2.2,1.4-3,4.5-2.5c0.3,0.8,0.7,1.5,1,2.3c0.7,2,1.1,4.1,1.3,6.2c0.3,3.1,0.3,6.2,0.2,9.3    c-0.1,4.1-0.9,10.5,1.6,14.1c2,2.9,7.1,4.2,10.2,5.5c4.1,1.7,7.8,2.1,11.8-0.1c0.1-0.1,0.2-0.1,0.3-0.2c0.1,0.1,0.2,0.1,0.3,0.2    c-0.5,0.5-1,0.9-1.4,1.4c-0.3,0.3,0.2,0.8,0.5,0.5c0.6-0.5,1.1-1,1.7-1.4c3.6,2.4,8.3,3.3,12.6,2.6c-0.6,3.5,0,7.1,0.2,10.7    C420.2,442.2,421.7,448.4,420.2,452.4z"></path><path d="M419.2,414.9c-0.3-0.1-0.6-0.1-0.9,0c-0.2,0-0.4,0-0.7,0c-0.3-0.1-0.7-0.1-1,0c-0.1,0-0.3-0.1-0.4-0.1c0,0,0,0,0,0    c-1.7,0-1.7,2.6,0,2.7c0.1,0.1,0.1,0.3,0.2,0.4c0,0.1,0.1,0.2,0.1,0.3c0,0,0,0.1,0.1,0.2c0,0.1,0,0.2-0.1,0.2    c-0.1,0.4,0,0.6,0.2,1c0.3,0.6,1.2,0.6,1.5,0c0,0,0.1-0.1,0.1-0.2c0.1-0.1,0.2-0.1,0.3-0.2c0.4-0.2,0.6-0.6,0.7-1c0,0,0.1,0,0.1,0    c0,0,0-0.1,0.1-0.1c0.4-0.2,0.8-0.5,0.8-1c0.1-0.1,0.2-0.3,0.2-0.5C420.8,415.6,420,414.8,419.2,414.9z M417.5,417.5    C417.5,417.5,417.5,417.5,417.5,417.5C417.5,417.6,417.5,417.6,417.5,417.5z"></path></g></g></svg>