<svg xmlns="http://www.w3.org/2000/svg" xmlns:xlink="http://www.w3.org/1999/xlink" version="1.1" preserveAspectRatio="none" x="0px" y="0px" viewBox="0 0 100 100"><defs><path id="a" stroke="#000000" stroke-width="1" stroke-linejoin="round" stroke-linecap="round" fill="none" d=" M 50.2 25.35 L 48.4 26.65 Q 47.6 26.85 46.7 26.3 43.9 24.45 46.75 18.2 48.05 15.45 51.4 14.8 58.2 13.5 67.3 22.6 69.3 24.5 69.9 25.6 71.1 27.75 71.5 29.7 72.85 36.1 67.85 38.6 L 64.95 38.45 Q 63.35 38.35 61.8 39.15 56.9 41.75 54.3 52.6 L 52.85 53.9 Q 51 55.35 49.1 55.95 L 47.55 56.25 Q 45.95 56.75 45.6 57.95 45.75 56.7 45.3 55.15 44.9 53.55 43.7 51.6 L 41.45 56.65 Q 39.15 58.55 35.6 57.85 35.3 56.5 34.85 55.1 33.9 52.35 32.9 52.2 L 32.25 53.95 Q 31.6 56.15 31.5 58.25 31.25 64.9 36.85 68.95 38.4 68.65 40.75 67.5 43.2 66.3 44.05 62.7 M 75.25 42.2 Q 75.25 42.35 75.9 43.3 76.7 44.6 77.05 46.15 78.25 51.25 75.5 58.8 L 74.45 62.35 Q 73.55 66.85 74.35 71.7 L 74.45 72.8 Q 74.45 74.1 74 75.25 72.45 78.9 66.65 79.35 65.75 79.5 65.75 78.8 65.65 77.3 69.8 72.75 M 30.5 67.1 Q 30 67 29.5 67 28.95 67.05 28.35 67.25 27.75 67.55 27.1 67.85 27 67.9 26.85 67.95 M 30.5 64.85 Q 30 64.65 29.5 64.55 29.05 64.45 28.6 64.45 28.05 64.45 27.5 64.5 27.15 64.6 26.75 64.7 M 37.85 69.85 Q 37.75 70.1 38 71.35 37.55 72.8 33.95 74.45 L 29.05 75.9 Q 24.1 77.5 24.55 78.45 23.95 78.9 25.5 79.25 28.6 80 36.95 76.75 M 42.4 75.1 L 43.05 75.55 Q 43.7 76.2 43.55 77.15 43 80.2 34.85 85.2 L 34.15 86.15 Q 33.6 87.25 33.8 87.75 34.45 89.3 43.4 84.45 44.85 83.6 46.45 81.85 49.65 78.35 50.05 73.95 49.95 73.4 50.3 72.7 51.15 71.35 53.95 70.7 55.4 70.45 57.25 69.55 61 67.75 63.1 64.6 M 70.15 72.45 Q 70.8 71.35 70.4 69.4 69.5 65.6 64.85 62.8 63.3 60.6 62.8 58.75 61.8 55 63.2 51.1"></path></defs><g transform="matrix( 1, 0, 0, 1, 0,0) "><use xlink:href="#a"></use></g></svg>