<svg xmlns="http://www.w3.org/2000/svg" xmlns:xlink="http://www.w3.org/1999/xlink" version="1.1" x="0px" y="0px" viewBox="0 0 100 100" enable-background="new 0 0 100 100" xml:space="preserve"><g><g><path d="M41.3,89.8c-3.9,0-7.9-0.8-11.4-3.1c-4.4-2.9-7-7.6-7.4-13.6c-1.2-16.4,9.4-25.8,14-28.3c-4.2-6.3-3.3-13.4-3-15    c-4.2-10-1.1-15.3-1-15.5l0.3-0.5l0.6,0c6.7,0.2,11.2,2,12.7,2.7c7.2-3.4,14.1-1.9,16.4-1.2c4-6,12.2-5.1,12.6-5l0.8,0.1l0.1,0.8    c0.9,5.7-0.5,10-1.1,11.5c0.8,1.5,3.2,6.5,2.6,12.7c-0.8,7.6-4.8,12-6,13.2c-0.3,9.9-4.7,22.9-6.3,27.4c0.6,0.1,1,0.2,1,0.2    l0.2,0.1c1.4,0.9,2.2,2.1,2.4,3.4c0.4,2.4-1.3,4.6-1.3,4.7l-0.3,0.4H56.6c-1.3,1.3-3.2,2.5-5.7,3.4C48.2,89.1,44.8,89.8,41.3,89.8    z M34.1,15.9c-0.6,1.5-1.7,6,1.5,13.4l0.1,0.3l-0.1,0.3c0,0.1-1.6,8.1,3.3,14.6l0.7,0.9l-1.8,1.1c-0.1,0.1-14.5,7.8-13.2,26.4    c0.4,5.4,2.6,9.5,6.5,12c5.9,3.8,14,3,19,1.2c3.3-1.2,5.4-2.8,6.1-4.7c0.6-1.5,0-2.9-0.2-3.2c-0.5-0.5-2.4-2-4.7,0    c-3.8,3.4-10.7,4.7-14,3.5c-3.8-1.3-6-3.8-6.5-7.4l2.1-0.3c0.4,2.8,2.1,4.7,5.1,5.7c2.6,0.9,8.8-0.3,11.8-3.1    c3.3-2.9,6.5-1.2,7.7,0.2l0.1,0.2c0.1,0.1,1.4,2.3,0.4,5.1c-0.1,0.2-0.1,0.4-0.2,0.5h8.1c0.3-0.6,0.8-1.6,0.6-2.6    c-0.1-0.7-0.6-1.4-1.4-1.9c-0.3-0.1-0.9-0.2-1.4,0l-2.3,0.9l0.9-2.3c0.1-0.2,6.5-17.1,6.7-28.7l0-0.5l0.4-0.3    c0,0,4.8-4.2,5.6-12.2c0.7-6.6-2.5-11.8-2.5-11.8l-0.3-0.5l0.3-0.5c0,0,1.9-4.1,1.2-9.9c-2.1,0-7.6,0.3-10.1,4.8l-0.4,0.8    l-0.9-0.3c-0.1,0-8-3-16,1L46,18.8l-0.5-0.3C45.5,18.5,41.2,16.2,34.1,15.9z"></path></g><g><path d="M57.9,78l-2-0.8c0,0,2-4.7,2-11.6l2.1,0C60,73,58,77.8,57.9,78z"></path></g><g><path d="M46,39.1c-3,0-5.4-2.4-5.4-5.4c0-3,2.4-5.4,5.4-5.4s5.4,2.4,5.4,5.4C51.4,36.7,49,39.1,46,39.1z M46,29.7    c-2.2,0-4,1.8-4,4s1.8,4,4,4s4-1.8,4-4S48.2,29.7,46,29.7z"></path></g><g><path d="M64.7,37.9c-3,0-5.4-2.4-5.4-5.4c0-3,2.4-5.4,5.4-5.4s5.4,2.4,5.4,5.4C70.2,35.5,67.7,37.9,64.7,37.9z M64.7,28.4    c-2.2,0-4,1.8-4,4s1.8,4,4,4s4-1.8,4-4S67,28.4,64.7,28.4z"></path></g><g><circle cx="46" cy="33.7" r="1.6"></circle><path d="M46,36c-1.3,0-2.3-1-2.3-2.3s1-2.3,2.3-2.3c1.3,0,2.3,1,2.3,2.3S47.2,36,46,36z M46,32.8c-0.5,0-0.9,0.4-0.9,0.9    c0,0.5,0.4,0.9,0.9,0.9c0.5,0,0.9-0.4,0.9-0.9C46.9,33.2,46.5,32.8,46,32.8z"></path></g><g><circle cx="64.7" cy="32.4" r="1.6"></circle><path d="M64.7,34.7c-1.3,0-2.3-1-2.3-2.3c0-1.3,1-2.3,2.3-2.3c1.3,0,2.3,1,2.3,2.3C67,33.7,66,34.7,64.7,34.7z M64.7,31.5    c-0.5,0-0.9,0.4-0.9,0.9c0,0.5,0.4,0.9,0.9,0.9c0.5,0,0.9-0.4,0.9-0.9C65.6,31.9,65.2,31.5,64.7,31.5z"></path></g><g><g><path d="M56,44.1c-1.1,0-2-0.9-2-2h1.4c0,0.3,0.2,0.5,0.5,0.5s0.5-0.2,0.5-0.5H58C58,43.2,57.1,44.1,56,44.1z"></path></g><g><g><path d="M54,42.9c-1.5,0-2.7-1.2-2.7-2.7h1.4c0,0.7,0.6,1.3,1.3,1.3s1.3-0.6,1.3-1.3h1.4C56.7,41.7,55.5,42.9,54,42.9z"></path></g><g><path d="M58,42.9c-1.5,0-2.7-1.2-2.7-2.7h1.4c0,0.7,0.6,1.3,1.3,1.3s1.3-0.6,1.3-1.3h1.4C60.7,41.7,59.5,42.9,58,42.9z"></path></g></g></g><g><path d="M38.8,24.9c-1.6-6.8-5.8-9.1-5.9-9.1l1-1.9c0.2,0.1,5.2,2.8,7,10.5L38.8,24.9z"></path></g><g><path d="M66.3,21.2c0-7.9,8-10.8,8.3-10.9l0.7,2l-0.3-1l0.3,1c-0.3,0.1-6.9,2.5-6.9,8.9L66.3,21.2z"></path></g><g><path d="M56,41l-2-1.8L53.9,39c0-0.1-0.1-0.5,0.2-0.8c0.3-0.4,0.9-0.6,1.9-0.6c0.7,0,1.2,0.2,1.6,0.5c0.4,0.3,0.4,0.7,0.4,0.8    l0,0.3L56,41z"></path></g><g><path d="M45.4,80.5c-4.2-7.3-5.1-13.9-5.2-14.2l2.1-0.3c0,0.1,0.9,6.5,4.9,13.4L45.4,80.5z"></path></g><g><path d="M50.2,77.2c-0.4-1.8,0-10.7,0.1-11.8l2.1,0.1c-0.2,3.7-0.4,10-0.1,11.2L50.2,77.2z"></path></g><g><path d="M51.3,34.9c-0.7-3-2.6-4.2-2.7-4.2l0.7-1.2c0.1,0.1,2.5,1.5,3.3,5.1L51.3,34.9z"></path></g><g><path d="M59.3,34.8l-1.4-0.2c0.5-4.4,3.1-6.2,3.2-6.3l0.8,1.2L61.5,29l0.4,0.6C61.8,29.6,59.7,31.1,59.3,34.8z"></path></g></g></svg>