<svg xmlns="http://www.w3.org/2000/svg" xmlns:xlink="http://www.w3.org/1999/xlink" version="1.1" x="0px" y="0px" viewBox="0 0 94 64.79" enable-background="new 0 0 94 64.79" xml:space="preserve"><g><g><path d="M5.64,38.37l4.45-4.62l-6,1.84l-0.12,0.08L5.64,38.37z M72.49,4.59l0.1,0.16l10.73-0.29l-5.4,2.63l10.33,3.33h-5.66    l8.5,3.17v0.02l-6.34,0.31l8.5,5.22l-5-1.05l5,3.16l-5.16-0.66l4.5,2.5l-4.5-0.84l5.66,4.84l-5.33-2l3.17,4.83l-5-2l2,7l-3.5-3.33    l2.16,8.83l-4.16-7.33l0.66,9.33l-3.66-8l-0.84,10.17l-0.83-8.34l-3.7,7.57l-0.13-0.07v-7l-4,6.67l1.66-7.33l-1.73,2.811    l-0.17-3.28l-3.76,6.47l2.16-7.84l-7.66,5l7.16-8l-5.33,2.34l4.17-7.5l-4.34,3.66l3.81-6.26l-2.97,1.6l5.12-6.24l-5.79,2.74    L51.75,46.92L35.08,64.25v0.08h-5.75l10.75-12.24h-2.5L26.25,64.42h-6.94l10.61-12.17v-0.16h-2.34L16.29,64.38L1.02,64.54    l-0.12-0.13l13.96-12.79l-7.08-0.98l-0.05-0.1c0.63-0.14,1.44-0.73,2.11-1.53l0.41-0.26l-0.12-0.11c0.58-0.8,1-1.76,1-2.72    c0-2.58-2.27-4.66-5.07-4.67l-0.22,3.51H5.79l-1.6-2.899l-0.1,0.06l-0.17,4.67l-0.81-3.56l-1.37,0.319    c-0.12-0.21-1.18-2.199-0.85-4.489c0.44-3.03,2.24-6.391,2.35-6.601l-0.05-0.07l14.56-11.1l-2.72,6.44l5.98-6.06l-1.42,4.28    l4.37-2.76l-1.71-8.4l3.67,7l-2.64-10.14l4.14,8.47l-1.86-9.48l3.86,7.48l-2.17-12.5l3.69,9.99l0.14-7.33h0.03l1.48,7.34    l1.16-11.33l0.67,11l1.67-6.67l0.33,5.5l2.67-11.83l-0.34,11.83l3.34-7.67l1.16,7.34l0.84-8.67l1.66,7.67l0.34-2.84l2,4.17    l0.94-8.01l0.06,0.01l0.5,8l5.66-11.67l-0.83,6.84l5.33-8.84l-2.16,7l7.96-6.16l-5.13,5.16l11.95-6l-4.88,4.46l0.04,0.13    l8.56-2.59L72.49,4.59z"></path><path d="M7.449,46.229l2.68,2.41c-0.09,0.13-0.19,0.25-0.29,0.37l-2.18,1.38l-1.57-3.14l2.83,2L7.449,46.229z"></path><path d="M9.839,49.01c-0.67,0.8-1.48,1.391-2.11,1.53l-0.07-0.15L9.839,49.01z"></path></g><g><polyline fill="none" stroke="#000000" stroke-width="0.5" points="0.799,64.5 0.899,64.41 14.859,51.62   "></polyline><line fill="none" stroke="#000000" stroke-width="0.5" x1="51.75" y1="46.92" x2="62.919" y2="21.59"></line><polyline fill="none" stroke="#000000" stroke-width="0.5" points="62.919,21.59 68.709,18.85 69.25,18.59   "></polyline><polyline fill="none" stroke="#000000" stroke-width="0.5" points="68.919,18.59 68.709,18.85 63.589,25.09   "></polyline><line fill="none" stroke="#000000" stroke-width="0.5" x1="63.589" y1="25.09" x2="66.559" y2="23.49"></line><line fill="none" stroke="#000000" stroke-width="0.5" x1="66.559" y1="23.49" x2="62.75" y2="29.75"></line><line fill="none" stroke="#000000" stroke-width="0.5" x1="62.75" y1="29.75" x2="67.089" y2="26.09"></line><line fill="none" stroke="#000000" stroke-width="0.5" x1="67.089" y1="26.09" x2="62.919" y2="33.59"></line><line fill="none" stroke="#000000" stroke-width="0.5" x1="62.919" y1="33.59" x2="68.25" y2="31.25"></line><line fill="none" stroke="#000000" stroke-width="0.5" x1="68.25" y1="31.25" x2="61.089" y2="39.25"></line><line fill="none" stroke="#000000" stroke-width="0.5" x1="61.089" y1="39.25" x2="68.75" y2="34.25"></line><line fill="none" stroke="#000000" stroke-width="0.5" x1="68.75" y1="34.25" x2="66.589" y2="42.09"></line><line fill="none" stroke="#000000" stroke-width="0.5" x1="66.589" y1="42.09" x2="70.349" y2="35.62"></line><line fill="none" stroke="#000000" stroke-width="0.5" x1="70.349" y1="35.62" x2="70.519" y2="38.9"></line><line fill="none" stroke="#000000" stroke-width="0.5" x1="70.519" y1="38.9" x2="72.25" y2="36.09"></line><line fill="none" stroke="#000000" stroke-width="0.5" x1="72.25" y1="36.09" x2="70.589" y2="43.42"></line><line fill="none" stroke="#000000" stroke-width="0.5" x1="70.589" y1="43.42" x2="74.589" y2="36.75"></line><line fill="none" stroke="#000000" stroke-width="0.5" x1="74.589" y1="36.75" x2="74.589" y2="43.75"></line><polyline fill="none" stroke="#000000" stroke-width="0.5" points="74.589,44.09 74.719,43.82 78.419,36.25   "></polyline><line fill="none" stroke="#000000" stroke-width="0.5" x1="78.419" y1="36.25" x2="79.25" y2="44.59"></line><line fill="none" stroke="#000000" stroke-width="0.5" x1="79.25" y1="44.59" x2="80.089" y2="34.42"></line><line fill="none" stroke="#000000" stroke-width="0.5" x1="80.089" y1="34.42" x2="83.75" y2="42.42"></line><line fill="none" stroke="#000000" stroke-width="0.5" x1="83.75" y1="42.42" x2="83.089" y2="33.09"></line><line fill="none" stroke="#000000" stroke-width="0.5" x1="83.089" y1="33.09" x2="87.25" y2="40.42"></line><line fill="none" stroke="#000000" stroke-width="0.5" x1="87.25" y1="40.42" x2="85.089" y2="31.59"></line><line fill="none" stroke="#000000" stroke-width="0.5" x1="85.089" y1="31.59" x2="88.589" y2="34.92"></line><line fill="none" stroke="#000000" stroke-width="0.5" x1="88.589" y1="34.92" x2="86.589" y2="27.92"></line><line fill="none" stroke="#000000" stroke-width="0.5" x1="86.589" y1="27.92" x2="91.589" y2="29.92"></line><line fill="none" stroke="#000000" stroke-width="0.5" x1="91.589" y1="29.92" x2="88.419" y2="25.09"></line><line fill="none" stroke="#000000" stroke-width="0.5" x1="88.419" y1="25.09" x2="93.75" y2="27.09"></line><line fill="none" stroke="#000000" stroke-width="0.5" x1="93.75" y1="27.09" x2="88.089" y2="22.25"></line><line fill="none" stroke="#000000" stroke-width="0.5" x1="88.089" y1="22.25" x2="92.589" y2="23.09"></line><line fill="none" stroke="#000000" stroke-width="0.5" x1="92.589" y1="23.09" x2="88.089" y2="20.59"></line><line fill="none" stroke="#000000" stroke-width="0.5" x1="88.089" y1="20.59" x2="93.25" y2="21.25"></line><line fill="none" stroke="#000000" stroke-width="0.5" x1="93.25" y1="21.25" x2="88.25" y2="18.09"></line><polyline fill="none" stroke="#000000" stroke-width="0.5" points="88.25,18.09 93.25,19.14 93.75,19.25   "></polyline><polyline fill="none" stroke="#000000" stroke-width="0.5" points="93.419,19.25 93.25,19.14 84.75,13.92   "></polyline><polyline fill="none" stroke="#000000" stroke-width="0.5" points="84.75,13.92 91.089,13.61 91.589,13.59   "></polyline><line fill="none" stroke="#000000" stroke-width="0.5" x1="91.089" y1="13.59" x2="82.589" y2="10.42"></line><polyline fill="none" stroke="#000000" stroke-width="0.5" points="82.589,10.42 88.25,10.42 88.589,10.42   "></polyline><line fill="none" stroke="#000000" stroke-width="0.5" x1="88.25" y1="10.42" x2="77.919" y2="7.09"></line><line fill="none" stroke="#000000" stroke-width="0.5" x1="77.919" y1="7.09" x2="83.32" y2="4.46"></line><line fill="none" stroke="#000000" stroke-width="0.5" x1="83.32" y1="4.46" x2="72.589" y2="4.75"></line><polyline fill="none" stroke="#000000" stroke-width="0.5" points="72.25,4.75 72.49,4.59 76.089,2.25   "></polyline><polyline fill="none" stroke="#000000" stroke-width="0.5" points="76.089,2.25 67.53,4.84 67.25,4.92   "></polyline><line fill="none" stroke="#000000" stroke-width="0.5" x1="67.49" y1="4.71" x2="72.37" y2="0.25"></line><line fill="none" stroke="#000000" stroke-width="0.5" x1="72.37" y1="0.25" x2="60.419" y2="6.25"></line><line fill="none" stroke="#000000" stroke-width="0.5" x1="60.419" y1="6.25" x2="65.549" y2="1.09"></line><line fill="none" stroke="#000000" stroke-width="0.5" x1="65.549" y1="1.09" x2="57.589" y2="7.25"></line><line fill="none" stroke="#000000" stroke-width="0.5" x1="57.589" y1="7.25" x2="59.75" y2="0.25"></line><line fill="none" stroke="#000000" stroke-width="0.5" x1="59.75" y1="0.25" x2="54.419" y2="9.09"></line><line fill="none" stroke="#000000" stroke-width="0.5" x1="54.419" y1="9.09" x2="55.25" y2="2.25"></line><line fill="none" stroke="#000000" stroke-width="0.5" x1="55.25" y1="2.25" x2="49.589" y2="13.92"></line><line fill="none" stroke="#000000" stroke-width="0.5" x1="49.589" y1="13.92" x2="49.089" y2="5.92"></line><polyline fill="none" stroke="#000000" stroke-width="0.5" points="49.089,5.42 49.03,5.91 48.089,13.92   "></polyline><line fill="none" stroke="#000000" stroke-width="0.5" x1="48.089" y1="13.92" x2="46.089" y2="9.75"></line><line fill="none" stroke="#000000" stroke-width="0.5" x1="46.089" y1="9.75" x2="45.75" y2="12.59"></line><line fill="none" stroke="#000000" stroke-width="0.5" x1="45.75" y1="12.59" x2="44.089" y2="4.92"></line><line fill="none" stroke="#000000" stroke-width="0.5" x1="44.089" y1="4.92" x2="43.25" y2="13.59"></line><line fill="none" stroke="#000000" stroke-width="0.5" x1="43.25" y1="13.59" x2="42.089" y2="6.25"></line><line fill="none" stroke="#000000" stroke-width="0.5" x1="42.089" y1="6.25" x2="38.75" y2="13.92"></line><line fill="none" stroke="#000000" stroke-width="0.5" x1="38.75" y1="13.92" x2="39.089" y2="2.09"></line><line fill="none" stroke="#000000" stroke-width="0.5" x1="39.089" y1="2.09" x2="36.419" y2="13.92"></line><line fill="none" stroke="#000000" stroke-width="0.5" x1="36.419" y1="13.92" x2="36.089" y2="8.42"></line><line fill="none" stroke="#000000" stroke-width="0.5" x1="36.089" y1="8.42" x2="34.419" y2="15.09"></line><line fill="none" stroke="#000000" stroke-width="0.5" x1="34.419" y1="15.09" x2="33.75" y2="4.09"></line><line fill="none" stroke="#000000" stroke-width="0.5" x1="33.75" y1="4.09" x2="32.589" y2="15.42"></line><line fill="none" stroke="#000000" stroke-width="0.5" x1="32.589" y1="15.42" x2="31.109" y2="8.08"></line><polyline fill="none" stroke="#000000" stroke-width="0.5" points="31.089,7.59 31.08,8.08 30.939,15.41   "></polyline><line fill="none" stroke="#000000" stroke-width="0.5" x1="30.939" y1="15.41" x2="27.25" y2="5.42"></line><line fill="none" stroke="#000000" stroke-width="0.5" x1="27.25" y1="5.42" x2="29.419" y2="17.92"></line><line fill="none" stroke="#000000" stroke-width="0.5" x1="29.419" y1="17.92" x2="25.56" y2="10.44"></line><line fill="none" stroke="#000000" stroke-width="0.5" x1="25.56" y1="10.44" x2="27.419" y2="19.92"></line><line fill="none" stroke="#000000" stroke-width="0.5" x1="27.419" y1="19.92" x2="23.279" y2="11.45"></line><line fill="none" stroke="#000000" stroke-width="0.5" x1="23.279" y1="11.45" x2="25.919" y2="21.59"></line><line fill="none" stroke="#000000" stroke-width="0.5" x1="25.919" y1="21.59" x2="22.25" y2="14.59"></line><line fill="none" stroke="#000000" stroke-width="0.5" x1="22.25" y1="14.59" x2="23.959" y2="22.99"></line><line fill="none" stroke="#000000" stroke-width="0.5" x1="23.959" y1="22.99" x2="19.589" y2="25.75"></line><line fill="none" stroke="#000000" stroke-width="0.5" x1="19.589" y1="25.75" x2="21.009" y2="21.47"></line><line fill="none" stroke="#000000" stroke-width="0.5" x1="21.009" y1="21.47" x2="15.029" y2="27.53"></line><line fill="none" stroke="#000000" stroke-width="0.5" x1="15.029" y1="27.53" x2="17.75" y2="21.09"></line><polyline fill="none" stroke="#000000" stroke-width="0.5" points="17.75,21.09 3.189,32.19 3,32.33   "></polyline><path fill="none" stroke="#000000" stroke-width="0.5" d="M3.25,32.25c0,0,0,0-0.01,0.01c-0.11,0.21-1.91,3.57-2.35,6.601    c-0.33,2.29,0.73,4.279,0.85,4.489c0.01,0.011,0.01,0.021,0.01,0.021"></path><line fill="none" stroke="#000000" stroke-width="0.5" x1="4.089" y1="35.59" x2="10.089" y2="33.75"></line><polyline fill="none" stroke="#000000" stroke-width="0.5" points="10.089,33.75 5.64,38.37 5.589,38.42   "></polyline><polyline fill="none" stroke="#000000" stroke-width="0.5" points="5.75,38.56 5.64,38.37 3.969,35.67 3.81,35.41   "></polyline><path fill="none" stroke="#000000" stroke-width="0.5" d="M6.049,41.25h0.01c2.8,0.01,5.07,2.09,5.07,4.67    c0,0.96-0.42,1.92-1,2.72c-0.09,0.13-0.19,0.25-0.29,0.37c-0.67,0.8-1.48,1.391-2.11,1.53c-0.11,0.04-0.21,0.05-0.31,0.05"></path><polyline fill="none" stroke="#000000" stroke-width="0.5" points="7.419,50.59 7.779,50.64 14.859,51.62   "></polyline><polyline fill="none" stroke="#000000" stroke-width="0.5" points="2.75,41.42 3.109,43.03 3.919,46.59   "></polyline><line fill="none" stroke="#000000" stroke-width="0.5" x1="3.919" y1="46.59" x2="4.089" y2="41.92"></line><polyline fill="none" stroke="#000000" stroke-width="0.5" points="3.839,41.22 4.189,41.86 5.79,44.76   "></polyline><polyline fill="none" stroke="#000000" stroke-width="0.5" points="5.83,44.88 5.839,44.76 6.06,41.25 6.069,41.07   "></polyline><polyline fill="none" stroke="#000000" stroke-width="0.5" points="7.449,46.229 10.129,48.64 10.25,48.75   "></polyline><line fill="none" stroke="#000000" stroke-width="0.5" x1="7.449" y1="46.229" x2="8.919" y2="49.25"></line><line fill="none" stroke="#000000" stroke-width="0.5" x1="8.919" y1="49.25" x2="6.089" y2="47.25"></line><polyline fill="none" stroke="#000000" stroke-width="0.5" points="6.089,47.25 7.66,50.39 7.729,50.54 7.779,50.64 7.81,50.7       "></polyline><polyline fill="none" stroke="#000000" points="1.549,43.39 1.739,43.35 3.109,43.03 3.589,42.92   "></polyline><polyline fill="none" stroke="#000000" stroke-width="0.5" points="10.25,48.75 9.839,49.01 7.66,50.39 7.29,50.62   "></polyline><polyline fill="none" stroke="#000000" stroke-width="0.5" points="1.02,64.54 16.29,64.38 16.35,64.38   "></polyline><polyline fill="none" stroke="#000000" stroke-width="0.5" points="16.25,64.42 16.29,64.38 27.58,52.09   "></polyline><polyline fill="none" stroke="#000000" stroke-width="0.5" points="27.58,52.09 29.919,52.09 30.08,52.09   "></polyline><line fill="none" stroke="#000000" stroke-width="0.5" x1="29.919" y1="52.25" x2="19.31" y2="64.42"></line><polyline fill="none" stroke="#000000" stroke-width="0.5" points="19.069,64.42 19.31,64.42 26.25,64.42 26.429,64.42   "></polyline><polyline fill="none" stroke="#000000" stroke-width="0.5" points="29.1,64.33 29.33,64.33 35.08,64.33 35.37,64.33   "></polyline><line fill="none" stroke="#000000" stroke-width="0.5" x1="26.25" y1="64.42" x2="37.58" y2="52.09"></line><line fill="none" stroke="#000000" stroke-width="0.5" x1="37.58" y1="52.09" x2="40.08" y2="52.09"></line><polyline fill="none" stroke="#000000" stroke-width="0.5" points="40.08,52.09 29.33,64.33 29.25,64.42   "></polyline><line fill="none" stroke="#000000" stroke-width="0.5" x1="35.08" y1="64.25" x2="51.75" y2="46.92"></line></g></g><path fill="none" stroke="#000000" stroke-width="0.5" d="M0.25,28.837c0,1.933,1.717,3.5,3.833,3.5c2.117,0,3.834-1.567,3.834-3.5"></path><path fill="none" stroke="#000000" stroke-width="0.5" d="M1.75,27.503c0,1.933,1.717,3.5,3.833,3.5c2.117,0,3.834-1.567,3.834-3.5"></path></svg>