<svg xmlns="http://www.w3.org/2000/svg" xmlns:xlink="http://www.w3.org/1999/xlink" version="1.1" x="0px" y="0px" viewBox="0 0 100 100" enable-background="new 0 0 100 100" xml:space="preserve"><g><path fill="#000000" d="M96.683,64.467l0.3-3.1c0,0-12.1-1.4-22.9-3.5c-0.3,0.2-1.1,0.9-1.3,1.3L96.683,64.467z M92.883,76.667   l1.1-3.6c0,0-14.6-6-25.4-10.7l-1.4,0.9L92.883,76.667z M0.983,48.267v2.8l8.1,1.1c-0.1-0.5-0.2-1.5-0.3-1.9L0.983,48.267z    M0.283,69.167l0.9,3.4c0,0,11.7-3.3,22.2-6.1c-0.5-0.2-1.6-0.7-2-0.9L0.283,69.167z M98.683,55.167v-3c0,0-9.8-0.3-19.8-0.2   c-0.2,0.3-0.8,1.1-1,1.5L98.683,55.167z M12.483,59.067l-12.2,1l0.5,2.8c0,0,5.7-1.1,13.4-2.2   C13.683,60.367,12.883,59.467,12.483,59.067z M30.383,39.367c1.5,0,2.7,1.3,2.7,2.8c0,1.6-1.2,2.8-2.7,2.8s-2.7-1.3-2.7-2.8   C27.583,40.667,28.883,39.367,30.383,39.367z M51.783,36.567c1.5,0,2.7,1.3,2.7,2.8s-1.2,2.8-2.7,2.8s-2.7-1.3-2.7-2.8   C49.083,37.867,50.283,36.567,51.783,36.567z M78.783,51.867c2.2-3.3,3.3-7.2,3.3-11.2c0-5.6-2.5-10.8-6.4-15.3l9.5-14.1l-28,2.3   c-4-1.5-8.1-2.2-12.3-2.3c-4.8,0.2-9.6,1.6-13.8,4.2l-27.1,2.2l12.2,11.4c-4.6,6-7.5,13-7.5,19.1c0,0.7,0,1.4,0.1,2l31.7,5.9   l-0.2,0.9c-1.1,0.1-19.6-2.8-31.2-4.8c0.5,2.6,1.7,5,3.4,6.9l27.5-0.5v0.9c-0.6,0.2-14,0.8-25.8,1.3c2.2,2,4.6,3.6,7.2,4.8l18.1-4   l0.3,1.1c-0.5-0.1-8,1.8-16.4,3.8c7,2.5,14.2,3.8,21.6,3.6c7.9-0.1,15.5-2.5,22.1-6.8l-10.4-4.9l0.5-1.1c0.5,0.3,5.2,2.5,11.3,5.1   c1.5-1,2.9-2,4.2-3.3l-14.9-3.4l0.4-1.1c0.4,0.3,7.6,1.7,15.7,3.3c1.4-1.4,2.7-2.8,3.9-4.4l-18.8-0.3l0.2-1.1 M44.883,53.767   c1.2-0.2,2.6-0.5,3.9-0.7c1-0.2,1.9,0.6,2.2,1.6c0.1,0.3,0,0.8-0.1,1.1l-1.6,3.6c-0.4,1-1.5,1.4-2.5,0.9c-0.2-0.1-0.4-0.3-0.6-0.6   l-2.3-3c-0.6-0.8-0.5-2,0.2-2.7C44.283,53.967,44.583,53.767,44.883,53.767z M31.883,34.267c3.4,0,6.2,3,6.2,6.6s-2.8,6.6-6.2,6.6   s-6.2-3-6.2-6.6C25.583,37.267,28.383,34.267,31.883,34.267z M67.783,17.667c0,0,5-1.6,12.8-3.3c0.8-0.5-3.7,6.5-6.4,9.3   L67.783,17.667z M59.183,21.567c7.4,0,13.5,5.7,13.5,12.8s-6,12.8-13.5,12.8s-13.5-5.7-13.5-12.8S51.783,21.567,59.183,21.567z    M8.483,19.067l15.7,0.6l-7,7.3L8.483,19.067z"></path></g></svg>