<?xml version="1.0" encoding="iso-8859-1"?>
<!-- Generator: Adobe Illustrator 19.0.0, SVG Export Plug-In . SVG Version: 6.00 Build 0)  -->
<svg version="1.1" id="Layer_1" xmlns="http://www.w3.org/2000/svg" xmlns:xlink="http://www.w3.org/1999/xlink" x="0px" y="0px"
	 viewBox="0 0 512 512" style="enable-background:new 0 0 512 512;" xml:space="preserve">
<path style="fill:#FFC83C;" d="M300.138,198.621H256h-44.138c0,11.034-47.081,61.793-114.759,61.793l17.655,26.483H256h141.241
	l17.655-26.483C347.219,260.414,300.138,209.655,300.138,198.621z"/>
<path style="fill:#FFE159;" d="M300.138,278.069c16.102,4.919,45.202-12.442,65.586-26.824
	c-40.2-15.133-65.586-44.532-65.586-52.625h-35.31C264.828,213.333,273.655,269.977,300.138,278.069z"/>
<path style="fill:#FFB432;" d="M300.138,401.655V384h-88.276v17.655c0,19.501-15.809,35.31-35.31,35.31h-8.828v8.828h176.552v-8.828
	h-8.828C315.947,436.966,300.138,421.156,300.138,401.655z"/>
<g>
	<path style="fill:#FFC83C;" d="M344.276,436.966h-8.828c-19.501,0-35.31-15.809-35.31-35.31V384H256
		c0,9.931-3.862,50.207,17.655,61.793h70.621V436.966z"/>
	<path style="fill:#FFC83C;" d="M203.034,278.069c-39.002,0-77.793-6.621-105.931-17.655
		c7.773,30.458,44.31,132.414,158.897,132.414c93.426,0,143.448-72.828,185.379-114.759C475.954,243.495,512,225.103,512,225.103
		C410.483,204.138,363.034,278.069,203.034,278.069z"/>
</g>
<path style="fill:#FFE159;" d="M344.276,454.621H167.724c-4.875,0-8.828-3.953-8.828-8.828l0,0c0-4.875,3.953-8.828,8.828-8.828
	h176.552c4.875,0,8.828,3.953,8.828,8.828l0,0C353.103,450.668,349.151,454.621,344.276,454.621z"/>
<path style="fill:#FFC83C;" d="M247.172,454.621h-79.448c-4.875,0-8.828-3.953-8.828-8.828l0,0c0-4.875,3.953-8.828,8.828-8.828
	h79.448c4.875,0,8.828,3.953,8.828,8.828l0,0C256,450.668,252.047,454.621,247.172,454.621z"/>
<path style="fill:#FFB432;" d="M203.034,278.069c-39.002,0-77.793-6.621-105.931-17.655
	c22.069,56.276,128.414,111.862,211.862,61.793c88.276-52.966,142.345-99.31,203.034-97.103
	C410.483,204.138,363.034,278.069,203.034,278.069z"/>
<path style="fill:#FFC83C;" d="M300.138,198.621h-88.276c-4.875,0-8.828-3.953-8.828-8.828l0,0c0-4.875,3.953-8.828,8.828-8.828
	h88.276c4.875,0,8.828,3.953,8.828,8.828l0,0C308.966,194.668,305.013,198.621,300.138,198.621z"/>
<path style="fill:#FFB432;" d="M256,198.621h-44.138c-4.875,0-8.828-3.953-8.828-8.828l0,0c0-4.875,3.953-8.828,8.828-8.828H256
	c4.875,0,8.828,3.953,8.828,8.828l0,0C264.828,194.668,260.875,198.621,256,198.621z"/>
<path style="fill:#FFC83C;" d="M256,110.345L256,110.345c-24.376,0-44.138,19.762-44.138,44.138v26.483h88.276v-26.483
	C300.138,130.106,280.376,110.345,256,110.345z"/>
<path style="fill:#FFE159;" d="M256,110.345c-4.207,0-8.196,0.777-12.051,1.876c23.725,11.033,20.878,56.404,20.878,68.745h35.31
	v-26.483C300.138,130.106,280.376,110.345,256,110.345z"/>
<circle style="fill:#FFB432;" cx="256" cy="101.517" r="13.241"/>
<path style="fill:#FFC83C;" d="M262.621,90.112c-3.942,2.294-6.621,6.516-6.621,11.405c0,4.889,2.679,9.111,6.621,11.405
	c3.942-2.294,6.621-6.516,6.621-11.405C269.241,96.628,266.562,92.406,262.621,90.112z"/>
<path style="fill:#FFB432;" d="M123.58,295.726c-1.342,0-2.702-0.307-3.981-0.954C114.714,292.299,0,233.4,0,163.31
	c0-35.041,29.199-60.056,80.113-68.628c4.73-0.798,8.163-4.894,8.163-9.74c0-5.464-4.445-9.908-9.908-9.908h-7.747
	c-4.875,0-8.828-3.953-8.828-8.828c0-4.875,3.953-8.828,8.828-8.828h7.747c15.199,0,27.563,12.364,27.563,27.563
	c0,13.497-9.625,24.916-22.887,27.149c-24.422,4.113-65.389,16.235-65.389,51.219c0,30.291,29.383,59.91,54.031,79.424
	c27.672,21.908,55.609,36.147,55.887,36.288c4.35,2.202,6.09,7.514,3.887,11.863C129.907,293.955,126.802,295.726,123.58,295.726z"
	/>
<g>
</g>
<g>
</g>
<g>
</g>
<g>
</g>
<g>
</g>
<g>
</g>
<g>
</g>
<g>
</g>
<g>
</g>
<g>
</g>
<g>
</g>
<g>
</g>
<g>
</g>
<g>
</g>
<g>
</g>
</svg>
