<?xml version="1.0" encoding="iso-8859-1"?>
<!-- Generator: Adobe Illustrator 19.0.0, SVG Export Plug-In . SVG Version: 6.00 Build 0)  -->
<svg version="1.1" id="Layer_1" xmlns="http://www.w3.org/2000/svg" xmlns:xlink="http://www.w3.org/1999/xlink" x="0px" y="0px"
	 viewBox="0 0 512 512" style="enable-background:new 0 0 512 512;" xml:space="preserve">
<path style="fill:#895438;" d="M57.372,35.312H30.888V512h17.656c4.875,0,8.828-3.953,8.828-8.828
	C57.372,503.172,57.372,35.312,57.372,35.312z"/>
<path style="fill:#794531;" d="M39.716,35.312H22.06v467.86c0,4.875,3.953,8.828,8.828,8.828h8.828V35.312z"/>
<path style="fill:#3B546A;" d="M75.028,70.595v291.321c0,4.887,4.046,8.859,8.934,8.838
	c213.556-0.907,185.859-34.399,405.926-35.275c4.864-0.02,8.88-3.953,8.88-8.817V35.34c0-4.886-4.05-8.858-8.936-8.839
	C269.806,27.383,297.504,60.876,83.904,61.777C79.039,61.798,75.028,65.73,75.028,70.595z"/>
<circle style="fill:#FFB432;" cx="39.716" cy="26.484" r="26.484"/>
<path style="fill:#FFC83C;" d="M48.544,1.622C38.282,5.27,30.888,14.97,30.888,26.484s7.393,21.215,17.656,24.862
	C58.807,47.697,66.2,37.998,66.2,26.484S58.807,5.269,48.544,1.622z"/>
<path style="fill:#354A5D;" d="M75.028,114.763H22.06c-4.875,0-8.828-3.953-8.828-8.828v-8.828c0-4.875,3.953-8.828,8.828-8.828
	h52.967L75.028,114.763L75.028,114.763z"/>
<rect x="57.37" y="88.28" style="fill:#2F3F50;" width="17.656" height="26.484"/>
<path style="fill:#3B546A;" d="M57.372,114.763H39.716V88.279h17.656c4.875,0,8.828,3.953,8.828,8.828v8.828
	C66.2,110.81,62.247,114.763,57.372,114.763z"/>
<path style="fill:#354A5D;" d="M75.028,344.288H22.06c-4.875,0-8.828-3.953-8.828-8.828v-8.828c0-4.875,3.953-8.828,8.828-8.828
	h52.967L75.028,344.288L75.028,344.288z"/>
<rect x="57.37" y="317.81" style="fill:#2F3F50;" width="17.656" height="26.484"/>
<path style="fill:#3B546A;" d="M57.372,344.288H39.716v-26.484h17.656c4.875,0,8.828,3.953,8.828,8.828v8.828
	C66.2,340.336,62.247,344.288,57.372,344.288z"/>
<g>
	<path style="fill:#FFB432;" d="M380.586,216.451l-7.206-3.08l3.078-7.206c1.516-3.55-0.131-7.655-3.681-9.171
		c-3.548-1.517-7.658,0.132-9.171,3.681l-4.676,10.944l-150.311,60.335l-10.953-4.679c-3.548-1.517-7.658,0.132-9.171,3.681
		c-1.516,3.55,0.131,7.655,3.681,9.171l7.206,3.08l-3.077,7.206c-1.516,3.55,0.131,7.655,3.681,9.171
		c1.773,0.759,3.688,0.726,5.347,0.06c1.66-0.667,3.065-1.966,3.821-3.741l4.694-10.988l150.248-60.31l10.996,4.698
		c1.773,0.759,3.688,0.726,5.348,0.06c1.659-0.667,3.065-1.966,3.825-3.741C385.784,222.073,384.136,217.968,380.586,216.451z"/>
	<path style="fill:#FFB432;" d="M384.265,270.957c-1.513-3.549-5.623-5.198-9.171-3.681l-10.97,4.687l-150.285-60.324l-4.683-10.962
		c-1.513-3.549-5.623-5.199-9.171-3.681c-3.55,1.516-5.197,5.621-3.681,9.171l3.077,7.206l-7.206,3.08
		c-3.55,1.516-5.197,5.621-3.681,9.171c0.76,1.774,2.167,3.074,3.826,3.741c1.66,0.667,3.574,0.7,5.347-0.06l10.978-4.69
		l150.273,60.32l4.687,10.971c0.757,1.774,2.163,3.074,3.822,3.741c1.66,0.667,3.574,0.7,5.348-0.06
		c3.55-1.516,5.197-5.621,3.681-9.171l-3.078-7.206l7.206-3.08C384.134,278.612,385.781,274.507,384.265,270.957z"/>
</g>
<g>
	<path style="fill:#FFC83C;" d="M320.997,195.891c-3.414,4.707-7.643,8.755-12.924,12.16c-10.03,6.465-22.713,7.023-34.013,4.448
		c-8.98-2.046-17.914-8.714-23.68-16.314l-12.874,2.574v20.109c0,4.99,2.134,9.742,5.864,13.059l20.62,18.328
		c3.198,2.841,7.328,4.412,11.608,4.412h21.657c4.278,0,8.409-1.57,11.608-4.412l20.619-18.328c3.73-3.317,5.864-8.069,5.864-13.059
		V198.76L320.997,195.891z M261.965,222.222c0,2.481-2.346,4.491-5.242,4.491s-5.242-2.011-5.242-4.491v-11.981
		c0-2.481,2.346-4.491,5.242-4.491c2.894,0,5.242,2.011,5.242,4.491V222.222z M321.366,222.222c0,2.481-2.346,4.491-5.242,4.491
		s-5.242-2.011-5.242-4.491v-11.981c0-2.481,2.346-4.491,5.242-4.491s5.242,2.011,5.242,4.491V222.222z"/>
	<path style="fill:#FFC83C;" d="M287.56,100.935c-33.289-0.625-60.536,27.652-60.535,60.946v29.891
		c0,7.719,6.257,13.977,13.977,13.977h13.977c3.86,0,6.988,10.117,6.988,13.977c0,3.859,3.128,6.987,6.988,6.987h34.942
		c3.86,0,6.988-3.128,6.988-6.987v-6.99c0-3.859,3.128-6.987,6.988-6.987h13.977c7.719,0,13.977-6.258,13.977-13.977v-31.448
		C345.825,127.897,319.842,101.539,287.56,100.935z M270.682,190.837l-14.679,4.003c-7.558,2.06-15.006-3.629-15.006-11.462v-4.014
		c0-6.561,5.319-11.881,11.88-11.881h14.679c6.561,0,11.88,5.319,11.88,11.881v0.011
		C279.436,184.733,275.851,189.428,270.682,190.837z M292.211,212.736h-11.572c-2.341,0-4.02-2.256-3.347-4.498l5.787-19.288
		c0.996-3.32,5.698-3.32,6.694,0l5.787,19.288C296.23,210.481,294.551,212.736,292.211,212.736z M331.848,183.38
		c0,7.833-7.447,13.522-15.003,11.462l-14.676-4.003c-5.168-1.409-8.753-6.104-8.753-11.462v-0.011
		c0-6.561,5.318-11.881,11.878-11.881h14.676c6.56,0,11.878,5.319,11.878,11.881V183.38z"/>
</g>
<g>
</g>
<g>
</g>
<g>
</g>
<g>
</g>
<g>
</g>
<g>
</g>
<g>
</g>
<g>
</g>
<g>
</g>
<g>
</g>
<g>
</g>
<g>
</g>
<g>
</g>
<g>
</g>
<g>
</g>
</svg>
