<?xml version="1.0" encoding="iso-8859-1"?>
<!-- Generator: Adobe Illustrator 19.0.0, SVG Export Plug-In . SVG Version: 6.00 Build 0)  -->
<svg version="1.1" id="Layer_1" xmlns="http://www.w3.org/2000/svg" xmlns:xlink="http://www.w3.org/1999/xlink" x="0px" y="0px"
	 viewBox="0 0 512 512" style="enable-background:new 0 0 512 512;" xml:space="preserve">
<path style="fill:#6C392C;" d="M114.759,185.379c0,0-61.793,51.862-61.793,88.275c0,64,88.275,176.551,88.275,176.551l44.138-61.793
	l-44.138-185.379L114.759,185.379z"/>
<path style="fill:#895438;" d="M397.241,185.379c0,0,61.793,51.862,61.793,88.275c0,64-88.275,176.551-88.275,176.551
	l-44.138-61.793l44.138-185.379L397.241,185.379z"/>
<g>
	<path style="fill:#FFB432;" d="M361.939,511.999c-2.853,0-5.653-1.38-7.353-3.932l-12.139-18.208
		c-1.814-2.719-4.847-4.343-8.115-4.343h-10.066c-12.803,0-24.313-7.114-30.039-18.565l-10.813-21.624
		c-2.18-4.361-0.413-9.663,3.947-11.843c4.361-2.18,9.664-0.414,11.843,3.948l10.813,21.624c2.717,5.431,8.175,8.805,14.248,8.805
		h10.066c9.185,0,17.71,4.563,22.805,12.205l12.139,18.208c2.705,4.056,1.609,9.537-2.449,12.242
		C365.323,511.518,363.621,511.999,361.939,511.999z"/>
	<path style="fill:#FFB432;" d="M335.447,512c-3.697,0-7.14-2.339-8.374-6.038l-8.828-26.483c-1.54-4.625,0.958-9.624,5.583-11.166
		c4.63-1.543,9.624,0.958,11.167,5.583l8.828,26.483c1.54,4.625-0.958,9.624-5.583,11.166C337.313,511.853,336.372,512,335.447,512z
		"/>
	<path style="fill:#FFB432;" d="M150.061,511.999c-1.682,0-3.382-0.48-4.888-1.484c-4.057-2.705-5.153-8.184-2.449-12.242
		l12.139-18.208c5.095-7.642,13.62-12.205,22.805-12.205h10.066c6.072,0,11.531-3.374,14.248-8.805l10.813-21.624
		c2.18-4.361,7.48-6.126,11.843-3.948c4.36,2.18,6.127,7.482,3.947,11.843l-10.813,21.624
		c-5.724,11.452-17.235,18.565-30.037,18.565h-10.066c-3.268,0-6.302,1.624-8.115,4.343l-12.139,18.208
		C155.714,510.618,152.914,511.998,150.061,511.999z"/>
</g>
<ellipse style="fill:#6C392C;" cx="255.999" cy="278.068" rx="150.068" ry="189.792"/>
<path style="fill:#59291D;" d="M194.207,211.861l-67.423-29.965c-13.165,28.228-20.853,61.027-20.853,96.172
	c0,104.818,67.188,189.792,150.068,189.792C134.621,408.274,190.897,243.861,194.207,211.861z"/>
<ellipse style="fill:#7B4732;" cx="255.999" cy="114.758" rx="141.241" ry="97.103"/>
<g>
	<path style="fill:#6C392C;" d="M256,97.103c-8.828-30.16-36.046-61.793-132.413-61.793C89.747,35.31,79.449,0,79.449,0
		s-8.828,10.298-8.828,44.138c0,48.552,52.965,70.62,52.965,70.62L256,97.103z"/>
	<path style="fill:#6C392C;" d="M256,97.103c8.828-30.16,36.046-61.793,132.413-61.793C422.253,35.31,432.551,0,432.551,0
		s8.828,10.298,8.828,44.138c0,48.552-52.965,70.62-52.965,70.62L256,97.103z"/>
</g>
<g>
	<circle style="fill:#895438;" cx="185.379" cy="150.068" r="88.275"/>
	<circle style="fill:#895438;" cx="326.619" cy="150.068" r="88.275"/>
</g>
<g>
	<circle style="fill:#FFFFFF;" cx="326.619" cy="150.068" r="44.138"/>
	<circle style="fill:#FFFFFF;" cx="185.379" cy="150.068" r="44.138"/>
</g>
<circle style="fill:#2F3F50;" cx="185.379" cy="150.068" r="26.483"/>
<circle style="fill:#99A0A9;" cx="191.999" cy="143.448" r="11.034"/>
<circle style="fill:#2F3F50;" cx="326.619" cy="150.068" r="26.483"/>
<circle style="fill:#99A0A9;" cx="333.24" cy="143.448" r="11.034"/>
<g>
	<path style="fill:#FFB432;" d="M249.544,179.779L249.544,179.779c-6.425,3.213-9.512,10.661-7.24,17.477L256,238.344l13.696-41.087
		c2.272-6.816-0.813-14.264-7.24-17.477l0,0C258.392,177.747,253.608,177.747,249.544,179.779z"/>
	<path style="fill:#FFB432;" d="M176.553,512c-0.926,0-1.866-0.147-2.793-0.456c-4.625-1.542-7.124-6.541-5.583-11.166l8.828-26.483
		c1.543-4.625,6.541-7.125,11.167-5.583c4.625,1.542,7.124,6.541,5.583,11.166l-8.828,26.483
		C183.694,509.661,180.25,512,176.553,512z"/>
</g>
<g>
</g>
<g>
</g>
<g>
</g>
<g>
</g>
<g>
</g>
<g>
</g>
<g>
</g>
<g>
</g>
<g>
</g>
<g>
</g>
<g>
</g>
<g>
</g>
<g>
</g>
<g>
</g>
<g>
</g>
</svg>
