<?xml version="1.0" encoding="iso-8859-1"?>
<!-- Generator: Adobe Illustrator 19.0.0, SVG Export Plug-In . SVG Version: 6.00 Build 0)  -->
<svg version="1.1" id="Layer_1" xmlns="http://www.w3.org/2000/svg" xmlns:xlink="http://www.w3.org/1999/xlink" x="0px" y="0px"
	 viewBox="0 0 512 512" style="enable-background:new 0 0 512 512;" xml:space="preserve">
<g>
	<rect x="256" y="26.483" style="fill:#EB443F;" width="17.655" height="8.828"/>
	<rect x="256" y="44.138" style="fill:#EB443F;" width="17.655" height="8.828"/>
</g>
<rect x="251.586" y="8.828" style="fill:#86442D;" width="8.828" height="88.276"/>
<path style="fill:#FAE6A7;" d="M375.172,512H136.828c-2.438,0-4.414-1.976-4.414-4.414v-48.552h247.172v48.552
	C379.586,510.024,377.61,512,375.172,512z"/>
<polygon style="fill:#EBD798;" points="379.586,459.034 132.414,459.034 105.931,423.724 406.069,423.724 "/>
<path style="fill:#FF5A4E;" d="M251.773,72.785L123.586,406.069H256h132.414L260.227,72.785
	C258.739,68.914,253.261,68.914,251.773,72.785z"/>
<path style="fill:#EB443F;" d="M212.966,406.069l41.985-335.882c-1.34,0.322-2.591,1.07-3.178,2.598L123.586,406.069H212.966z"/>
<path style="fill:#FF5A4E;" d="M353.103,0c-35.172,0-45.517,20.598-79.448,20.598v41.195c33.931,0,44.276-20.598,79.448-20.598
	c11.203,0,19.964,3.834,26.483,8.172l-12.414-25.551l12.414-15.644C373.067,3.834,364.307,0,353.103,0z"/>
<path style="fill:#FAE6A7;" d="M370.759,379.586v17.655c0,4.875-3.953,8.828-8.828,8.828l0,0c-4.875,0-8.828-3.953-8.828-8.828
	v-17.655c0-4.875-3.953-8.828-8.828-8.828h-17.655c-4.875,0-8.828,3.953-8.828,8.828v17.655c0,4.875-3.953,8.828-8.828,8.828l0,0
	c-4.875,0-8.828-3.953-8.828-8.828v-17.655c0-4.875-3.953-8.828-8.828-8.828h-17.655c-4.875,0-8.828,3.953-8.828,8.828v17.655
	c0,4.875-3.953,8.828-8.828,8.828l0,0c-4.875,0-8.828-3.953-8.828-8.828v-17.655c0-4.875-3.953-8.828-8.828-8.828H220.69
	c-4.875,0-8.828,3.953-8.828,8.828v17.655c0,4.875-3.953,8.828-8.828,8.828l0,0c-4.875,0-8.828-3.953-8.828-8.828v-17.655
	c0-4.875-3.953-8.828-8.828-8.828h-17.655c-4.875,0-8.828,3.953-8.828,8.828v17.655c0,4.875-3.953,8.828-8.828,8.828l0,0
	c-4.875,0-8.828-3.953-8.828-8.828v-17.655c0-4.875-3.953-8.828-8.828-8.828h-17.655c-4.875,0-8.828,3.953-8.828,8.828v44.138
	h300.138v-44.138c0-4.875-3.953-8.828-8.828-8.828h-17.655C374.711,370.759,370.759,374.711,370.759,379.586z"/>
<circle style="fill:#FF5A4E;" cx="256" cy="8.828" r="8.828"/>
<g>
	<path style="fill:#EB443F;" d="M216.276,185.379c5.299,0,10.003-2.394,13.241-6.101c3.239,3.706,7.943,6.101,13.241,6.101
		c5.299,0,10.003-2.394,13.241-6.101c3.239,3.706,7.943,6.101,13.241,6.101c5.299,0,10.003-2.394,13.241-6.101
		c3.239,3.706,7.943,6.101,13.241,6.101c2.575,0,5.002-0.584,7.197-1.592l-3.197-8.312c-1.217,0.632-2.538,1.077-4,1.077
		c-4.866,0-8.828-3.957-8.828-8.828h-8.828c0,4.871-3.961,8.828-8.828,8.828s-8.828-3.957-8.828-8.828h-8.828
		c0,4.871-3.961,8.828-8.828,8.828s-8.828-3.957-8.828-8.828h-8.828c0,4.871-3.961,8.828-8.828,8.828c-1.462,0-2.783-0.445-4-1.078
		l-3.197,8.312C211.274,184.796,213.7,185.379,216.276,185.379z"/>
	<path style="fill:#EB443F;" d="M229.517,143.968c3.239,3.706,7.943,6.101,13.241,6.101c5.299,0,10.003-2.394,13.241-6.101
		c3.239,3.706,7.943,6.101,13.241,6.101c5.299,0,10.003-2.394,13.241-6.101c1.878,2.15,4.288,3.778,6.982,4.834l-6.303-16.388
		h-5.092c0,4.871-3.961,8.828-8.828,8.828s-8.828-3.957-8.828-8.828h-8.828c0,4.871-3.961,8.828-8.828,8.828
		s-8.828-3.957-8.828-8.828h-5.092l-6.303,16.388C225.229,147.746,227.639,146.118,229.517,143.968z"/>
	<path style="fill:#EB443F;" d="M242.759,114.759c5.299,0,10.003-2.394,13.241-6.101c3.239,3.706,7.943,6.101,13.241,6.101
		c2.351,0,4.555-0.535,6.598-1.385l-3.137-8.157c-1.065,0.457-2.231,0.714-3.46,0.714c-4.866,0-8.828-3.957-8.828-8.828h-8.828
		c0,4.871-3.961,8.828-8.828,8.828c-1.229,0-2.396-0.257-3.46-0.713l-3.137,8.157C238.204,114.223,240.407,114.759,242.759,114.759z
		"/>
	<path style="fill:#EB443F;" d="M364.647,344.276h-7.129c0,4.871-3.961,8.828-8.828,8.828s-8.828-3.957-8.828-8.828h-8.828
		c0,4.871-3.961,8.828-8.828,8.828s-8.828-3.957-8.828-8.828h-8.828c0,4.871-3.961,8.828-8.828,8.828s-8.828-3.957-8.828-8.828
		h-8.828c0,4.871-3.961,8.828-8.828,8.828s-8.828-3.957-8.828-8.828h-8.828c0,4.871-3.961,8.828-8.828,8.828
		s-8.828-3.957-8.828-8.828h-8.828c0,4.871-3.961,8.828-8.828,8.828s-8.828-3.957-8.828-8.828h-8.828
		c0,4.871-3.961,8.828-8.828,8.828s-8.828-3.957-8.828-8.828h-8.828c0,4.871-3.961,8.828-8.828,8.828s-8.828-3.957-8.828-8.828
		h-7.129l-6.616,17.203c3.684-0.855,6.918-2.883,9.333-5.649c3.239,3.706,7.943,6.101,13.241,6.101
		c5.299,0,10.003-2.395,13.241-6.101c3.239,3.706,7.943,6.101,13.241,6.101c5.299,0,10.003-2.395,13.241-6.101
		c3.239,3.706,7.943,6.101,13.241,6.101c5.299,0,10.003-2.395,13.241-6.101c3.239,3.706,7.943,6.101,13.241,6.101
		c5.299,0,10.003-2.395,13.241-6.101c3.239,3.706,7.943,6.101,13.241,6.101s10.003-2.395,13.241-6.101
		c3.239,3.706,7.943,6.101,13.241,6.101s10.003-2.395,13.241-6.101c3.239,3.706,7.943,6.101,13.241,6.101s10.003-2.395,13.241-6.101
		c3.239,3.706,7.943,6.101,13.241,6.101s10.003-2.395,13.241-6.101c2.414,2.765,5.649,4.793,9.333,5.649L364.647,344.276z"/>
	<path style="fill:#EB443F;" d="M203.034,249.899c3.239,3.706,7.943,6.101,13.241,6.101c5.299,0,10.003-2.394,13.241-6.101
		c3.239,3.706,7.943,6.101,13.241,6.101c5.299,0,10.003-2.394,13.241-6.101c3.239,3.706,7.943,6.101,13.241,6.101
		c5.299,0,10.003-2.394,13.241-6.101c3.239,3.706,7.943,6.101,13.241,6.101c5.299,0,10.003-2.394,13.241-6.101
		c3.239,3.706,7.943,6.101,13.241,6.101c2.805,0,5.421-0.705,7.763-1.886l-3.224-8.383c-1.346,0.833-2.842,1.441-4.538,1.441
		c-4.866,0-8.828-3.957-8.828-8.828h-8.828c0,4.871-3.961,8.828-8.828,8.828s-8.828-3.957-8.828-8.828h-8.828
		c0,4.871-3.961,8.828-8.828,8.828s-8.828-3.957-8.828-8.828h-8.828c0,4.871-3.961,8.828-8.828,8.828s-8.828-3.957-8.828-8.828
		h-8.828c0,4.871-3.961,8.828-8.828,8.828s-8.828-3.957-8.828-8.828h-8.828c0,4.871-3.961,8.828-8.828,8.828
		c-1.696,0-3.192-0.608-4.538-1.441l-3.224,8.383c2.343,1.181,4.959,1.886,7.763,1.886C195.092,256,199.796,253.606,203.034,249.899
		z"/>
	<path style="fill:#EB443F;" d="M203.034,214.589c3.239,3.706,7.943,6.101,13.241,6.101c5.299,0,10.003-2.394,13.241-6.101
		c3.239,3.706,7.943,6.101,13.241,6.101c5.299,0,10.003-2.394,13.241-6.101c3.239,3.706,7.943,6.101,13.241,6.101
		c5.299,0,10.003-2.394,13.241-6.101c3.239,3.706,7.943,6.101,13.241,6.101c5.299,0,10.003-2.394,13.241-6.101
		c2.057,2.355,4.748,4.086,7.765,5.106l-6.408-16.66h-5.771c0,4.871-3.961,8.828-8.828,8.828s-8.828-3.957-8.828-8.828h-8.828
		c0,4.871-3.961,8.828-8.828,8.828s-8.828-3.957-8.828-8.828h-8.828c0,4.871-3.961,8.828-8.828,8.828s-8.828-3.957-8.828-8.828
		h-8.828c0,4.871-3.961,8.828-8.828,8.828s-8.828-3.957-8.828-8.828h-5.771l-6.408,16.66
		C198.286,218.675,200.978,216.942,203.034,214.589z"/>
	<path style="fill:#EB443F;" d="M176.552,320.52c3.239,3.706,7.943,6.101,13.241,6.101c5.299,0,10.003-2.395,13.241-6.101
		c3.239,3.706,7.943,6.101,13.241,6.101c5.299,0,10.003-2.395,13.241-6.101c3.239,3.706,7.943,6.101,13.241,6.101
		c5.299,0,10.003-2.395,13.241-6.101c3.239,3.706,7.943,6.101,13.241,6.101c5.299,0,10.003-2.395,13.241-6.101
		c3.239,3.706,7.943,6.101,13.241,6.101c5.299,0,10.003-2.395,13.241-6.101c3.239,3.706,7.943,6.101,13.241,6.101
		c5.299,0,10.003-2.395,13.241-6.101c3.239,3.706,7.943,6.101,13.241,6.101c3.034,0,5.832-0.853,8.313-2.221l-3.235-8.41
		c-1.455,1.054-3.148,1.804-5.078,1.804c-4.866,0-8.828-3.957-8.828-8.828h-8.828c0,4.871-3.961,8.828-8.828,8.828
		s-8.828-3.957-8.828-8.828h-8.828c0,4.871-3.961,8.828-8.828,8.828s-8.828-3.957-8.828-8.828h-8.828
		c0,4.871-3.961,8.828-8.828,8.828s-8.828-3.957-8.828-8.828h-8.828c0,4.871-3.961,8.828-8.828,8.828s-8.828-3.957-8.828-8.828
		h-8.828c0,4.871-3.961,8.828-8.828,8.828s-8.828-3.957-8.828-8.828h-8.828c0,4.871-3.961,8.828-8.828,8.828
		s-8.828-3.957-8.828-8.828h-8.828c0,4.871-3.961,8.828-8.828,8.828c-1.93,0-3.623-0.75-5.078-1.804l-3.235,8.41
		c2.482,1.368,5.279,2.221,8.313,2.221C168.609,326.621,173.313,324.226,176.552,320.52z"/>
	<path style="fill:#EB443F;" d="M189.793,291.31c5.299,0,10.003-2.395,13.241-6.101c3.239,3.707,7.943,6.101,13.241,6.101
		c5.299,0,10.003-2.395,13.241-6.101c3.239,3.707,7.943,6.101,13.241,6.101c5.299,0,10.003-2.395,13.241-6.101
		c3.239,3.707,7.943,6.101,13.241,6.101c5.299,0,10.003-2.395,13.241-6.101c3.239,3.707,7.943,6.101,13.241,6.101
		c5.299,0,10.003-2.395,13.241-6.101c3.239,3.707,7.943,6.101,13.241,6.101c5.299,0,10.003-2.395,13.241-6.101
		c2.236,2.56,5.202,4.425,8.549,5.377l-6.513-16.931h-6.451c0,4.871-3.961,8.828-8.828,8.828s-8.828-3.957-8.828-8.828h-8.828
		c0,4.871-3.961,8.828-8.828,8.828s-8.828-3.957-8.828-8.828h-8.828c0,4.871-3.961,8.828-8.828,8.828s-8.828-3.957-8.828-8.828
		h-8.828c0,4.871-3.961,8.828-8.828,8.828s-8.828-3.957-8.828-8.828h-8.828c0,4.871-3.961,8.828-8.828,8.828
		s-8.828-3.957-8.828-8.828h-8.828c0,4.871-3.961,8.828-8.828,8.828s-8.828-3.957-8.828-8.828h-6.451l-6.511,16.931
		c3.347-0.952,6.313-2.817,8.55-5.377C179.79,288.916,184.494,291.31,189.793,291.31z"/>
</g>
<g>
	<path style="fill:#D0342E;" d="M229.517,143.968c3.239,3.706,7.943,6.101,13.241,6.101c0.77,0,1.496-0.153,2.239-0.252l1.158-9.265
		c-1.047,0.438-2.193,0.689-3.396,0.689c-4.866,0-8.828-3.957-8.828-8.828h-5.092l-6.303,16.388
		C225.23,147.746,227.639,146.118,229.517,143.968z"/>
	<path style="fill:#D0342E;" d="M242.759,114.759c2.429,0,4.707-0.554,6.803-1.455l2.025-16.2l0,0c0,4.871-3.961,8.828-8.828,8.828
		c-1.229,0-2.396-0.257-3.46-0.713l-3.137,8.157C238.202,114.223,240.407,114.759,242.759,114.759z"/>
	<path style="fill:#D0342E;" d="M216.276,185.379c5.299,0,10.003-2.394,13.241-6.101c2.781,3.183,6.675,5.295,11.065,5.858
		l1.1-8.802c-4.337-0.554-7.752-4.12-7.752-8.61h-8.828c0,4.871-3.961,8.828-8.828,8.828c-1.462,0-2.783-0.445-4-1.078l-3.197,8.312
		C211.274,184.796,213.7,185.379,216.276,185.379z"/>
	<path style="fill:#D0342E;" d="M216.276,353.103c-4.866,0-8.828-3.957-8.828-8.828h-8.828c0,4.871-3.961,8.828-8.828,8.828
		s-8.828-3.957-8.828-8.828h-8.828c0,4.871-3.961,8.828-8.828,8.828s-8.828-3.957-8.828-8.828h-7.129l-6.616,17.203
		c3.684-0.855,6.918-2.883,9.333-5.649c3.239,3.706,7.943,6.101,13.241,6.101c5.299,0,10.003-2.395,13.241-6.101
		c3.239,3.706,7.943,6.101,13.241,6.101c5.299,0,10.003-2.395,13.241-6.101c3.239,3.706,7.943,6.101,13.241,6.101
		c0.77,0,1.495-0.153,2.238-0.252l1.159-9.265C218.625,352.853,217.48,353.103,216.276,353.103z"/>
	<path style="fill:#D0342E;" d="M203.034,214.589c3.239,3.706,7.943,6.101,13.241,6.101c5.299,0,10.003-2.394,13.241-6.101
		c1.834,2.099,4.172,3.704,6.787,4.766l1.178-9.43c-2.104-1.614-3.553-4.036-3.553-6.89h-8.828c0,4.871-3.961,8.828-8.828,8.828
		s-8.828-3.957-8.828-8.828h-5.772l-6.408,16.66C198.286,218.675,200.978,216.943,203.034,214.589z"/>
	<path style="fill:#D0342E;" d="M176.552,320.52c3.239,3.706,7.943,6.101,13.241,6.101c5.299,0,10.003-2.395,13.241-6.101
		c3.239,3.706,7.943,6.101,13.241,6.101c2.429,0,4.707-0.554,6.803-1.455l2.025-16.2l0,0c0,4.871-3.961,8.828-8.828,8.828
		s-8.828-3.957-8.828-8.828h-8.828c0,4.871-3.961,8.828-8.828,8.828s-8.828-3.957-8.828-8.828h-8.828
		c0,4.871-3.961,8.828-8.828,8.828c-1.93,0-3.624-0.75-5.078-1.804l-3.235,8.41c2.482,1.368,5.279,2.221,8.313,2.221
		C168.609,326.621,173.313,324.226,176.552,320.52z"/>
	<path style="fill:#D0342E;" d="M189.793,291.31c5.299,0,10.003-2.395,13.241-6.101c3.239,3.707,7.943,6.101,13.241,6.101
		c4.493,0,8.499-1.786,11.606-4.572l1.635-13.084h-4.414c0,4.871-3.961,8.828-8.828,8.828s-8.828-3.957-8.828-8.828h-8.828
		c0,4.871-3.961,8.828-8.828,8.828s-8.828-3.957-8.828-8.828h-6.451l-6.511,16.931c3.348-0.952,6.313-2.817,8.55-5.377
		C179.79,288.916,184.494,291.31,189.793,291.31z"/>
	<path style="fill:#D0342E;" d="M203.034,249.899c3.239,3.706,7.943,6.101,13.241,6.101c5.299,0,10.003-2.394,13.241-6.101
		c0.8,0.916,1.693,1.748,2.659,2.487l1.754-14.041l0,0h-8.828c0,4.871-3.961,8.828-8.828,8.828s-8.828-3.957-8.828-8.828h-8.828
		c0,4.871-3.961,8.828-8.828,8.828c-1.696,0-3.192-0.608-4.538-1.441l-3.224,8.383c2.343,1.181,4.959,1.886,7.763,1.886
		C195.092,256,199.796,253.606,203.034,249.899z"/>
</g>
<g>
	<path style="fill:#86442D;" d="M273.655,512h-35.31v-17.655c0-9.751,7.904-17.655,17.655-17.655l0,0
		c9.751,0,17.655,7.904,17.655,17.655V512z"/>
	<path style="fill:#86442D;" d="M335.448,512h-35.31v-17.655c0-9.751,7.904-17.655,17.655-17.655l0,0
		c9.751,0,17.655,7.904,17.655,17.655V512z"/>
	<path style="fill:#86442D;" d="M211.862,512h-35.31v-17.655c0-9.751,7.904-17.655,17.655-17.655l0,0
		c9.751,0,17.655,7.904,17.655,17.655V512z"/>
</g>
<g>
</g>
<g>
</g>
<g>
</g>
<g>
</g>
<g>
</g>
<g>
</g>
<g>
</g>
<g>
</g>
<g>
</g>
<g>
</g>
<g>
</g>
<g>
</g>
<g>
</g>
<g>
</g>
<g>
</g>
</svg>
