<?xml version="1.0" encoding="iso-8859-1"?>
<!-- Generator: Adobe Illustrator 19.0.0, SVG Export Plug-In . SVG Version: 6.00 Build 0)  -->
<svg version="1.1" id="Layer_1" xmlns="http://www.w3.org/2000/svg" xmlns:xlink="http://www.w3.org/1999/xlink" x="0px" y="0px"
	 viewBox="0 0 512 512" style="enable-background:new 0 0 512 512;" xml:space="preserve">
<path style="fill:#2F3F50;" d="M288.662,54.731l-13.178-13.178c-3.447-3.447-9.037-3.447-12.484,0l-13.178,13.178
	c-4.618,4.618-7.864,10.425-9.379,16.777l-16.629,69.734l45.429,8.828l45.429-8.828l-16.629-69.734
	C296.526,65.156,293.28,59.349,288.662,54.731z"/>
<polygon style="fill:#292934;" points="189.793,220.69 189.793,317.793 216.276,361.931 198.621,211.862 "/>
<path style="fill:#3B546A;" d="M296.956,141.241h17.715c14.112,0,25.745,11.065,26.45,25.16l7.57,151.392l-26.483,70.621
	L296.956,141.241z"/>
<path style="fill:#292934;" d="M241.527,141.241h-17.715c-14.112,0-25.745,11.065-26.45,25.16l-7.57,151.392h26.483L241.527,141.241
	z"/>
<path style="fill:#2F3F50;" d="M339.862,512H198.621l16.454-345.536c0.673-14.12,12.317-25.223,26.453-25.223h55.427
	c14.136,0,25.78,11.103,26.453,25.223L339.862,512z"/>
<path style="fill:#2C3442;" d="M249.379,141.241h-7.852c-14.136,0-25.78,11.103-26.453,25.223L198.621,512h70.621V167.724
	L249.379,141.241z"/>
<path style="fill:#3B546A;" d="M301.436,512l-8.828-225.103c0-2.438-1.976-4.414-4.414-4.414l0,0c-2.438,0-4.414,1.976-4.414,4.414
	V512H301.436z"/>
<path style="fill:#292934;" d="M233.931,512V217.223c0-15.316-4.598-30.3-13.172-42.989c-3.168-4.689-5.662-8.225-5.684-7.769
	L198.621,512H233.931z"/>
<path style="fill:#3B546A;" d="M323.407,166.464c-0.672-14.12-12.316-25.223-26.452-25.223H279.3
	c14.136,0,25.78,11.103,26.453,25.223L322.207,512h17.655L323.407,166.464z"/>
<rect x="180.966" y="61.793" style="fill:#2C3442;" width="8.828" height="450.207"/>
<g>
	<path style="fill:#292934;" d="M189.793,229.517h-8.828c-4.875,0-8.828-3.953-8.828-8.828v-17.655c0-4.875,3.953-8.828,8.828-8.828
		h8.828c4.875,0,8.828,3.953,8.828,8.828v17.655C198.621,225.565,194.668,229.517,189.793,229.517z"/>
	<path style="fill:#292934;" d="M260.414,512V366.345c0-2.438-1.976-4.414-4.414-4.414c-2.438,0-4.414,1.976-4.414,4.414
		L245.875,512H260.414z"/>
	<path style="fill:#292934;" d="M254.551,89.241L254.551,89.241c-7.368,4.911-11.793,13.181-11.793,22.035v12.31
		c0,5.73,1.858,11.306,5.297,15.89l21.186,28.248l21.186-28.248c3.438-4.584,5.297-10.159,5.297-15.89v-12.31
		c0-8.854-4.425-17.123-11.793-22.035l0,0C275.036,83.311,263.447,83.311,254.551,89.241z"/>
</g>
<g>
	<polygon style="fill:#2C3442;" points="172.138,79.448 163.31,79.448 163.31,26.483 172.138,0 	"/>
	<polygon style="fill:#2C3442;" points="207.448,79.448 198.621,79.448 198.621,0 207.448,26.483 	"/>
</g>
<rect x="172.893" y="49.312" transform="matrix(-0.7071 -0.7071 0.7071 -0.7071 272.7623 236.5736)" style="fill:#2F3F50;" width="24.967" height="24.967"/>
<polygon style="fill:#2C3442;" points="207.448,83.862 207.448,66.207 185.379,88.276 163.31,66.207 163.31,83.862 185.379,114.759 
	"/>
<g>
</g>
<g>
</g>
<g>
</g>
<g>
</g>
<g>
</g>
<g>
</g>
<g>
</g>
<g>
</g>
<g>
</g>
<g>
</g>
<g>
</g>
<g>
</g>
<g>
</g>
<g>
</g>
<g>
</g>
</svg>
