<?xml version="1.0" encoding="iso-8859-1"?>
<!-- Generator: Adobe Illustrator 19.0.0, SVG Export Plug-In . SVG Version: 6.00 Build 0)  -->
<svg version="1.1" id="Layer_1" xmlns="http://www.w3.org/2000/svg" xmlns:xlink="http://www.w3.org/1999/xlink" x="0px" y="0px"
	 viewBox="0 0 512 512" style="enable-background:new 0 0 512 512;" xml:space="preserve">
<g>
	<path style="fill:#FF5A4E;" d="M256,0C114.615,0,0,60.802,0,135.809v13.581c0,15,12.065,27.161,26.947,27.161h458.105
		c14.882,0,26.947-12.161,26.947-27.161v-13.581C512,60.802,397.385,0,256,0z"/>
	<path style="fill:#FF5A4E;" d="M278.069,0C173.249,0,88.276,60.802,88.276,135.809v13.581c0,15,8.945,27.161,19.978,27.161h339.629
		c11.033,0,19.978-12.161,19.978-27.161v-13.581C467.862,60.802,382.889,0,278.069,0z"/>
</g>
<path style="fill:#EB443F;" d="M97.103,149.39v-13.582c0-70.2,81.361-127.95,185.716-135.063C274.003,0.257,265.058,0,256,0
	C114.615,0,0,60.802,0,135.808v13.582c0,15,12.065,27.161,26.947,27.161h91.993C106.88,176.552,97.103,164.391,97.103,149.39z"/>
<path style="fill:#FF7E68;" d="M339.695,7.465C414.221,25.79,467.862,76.26,467.862,135.808v13.582c0,15-8.945,27.161-19.978,27.161
	h37.17c14.881,0,26.946-12.161,26.946-27.161v-13.582C512,76.358,439.964,25.864,339.695,7.465z"/>
<path style="fill:#C3C3A9;" d="M291.31,176.552H220.69l-23.073,76.911c-1.699,5.664,2.542,11.364,8.456,11.364h99.857
	c5.913,0,10.154-5.7,8.456-11.364L291.31,176.552z"/>
<path style="fill:#DCDCCD;" d="M291.31,264.828H256h-35.31l-7.848,219.744C212.307,499.559,224.311,512,239.307,512h33.385
	c14.997,0,27.001-12.441,26.466-27.428L291.31,264.828z"/>
<path style="fill:#CFCFBB;" d="M238.362,484.572l7.848-219.744H220.69l-7.848,219.744C212.307,499.559,224.311,512,239.308,512
	h25.519C249.832,512,237.827,499.559,238.362,484.572z"/>
<path style="fill:#B3B399;" d="M197.617,253.463c-1.699,5.664,2.542,11.364,8.456,11.364h26.388l14.712-88.276H220.69
	L197.617,253.463z"/>
<g>
	<circle style="fill:#FFFFFF;" cx="304.552" cy="128" r="13.241"/>
	<circle style="fill:#FFFFFF;" cx="189.793" cy="57.379" r="13.241"/>
</g>
<circle style="fill:#FF7E68;" cx="75.034" cy="83.862" r="13.241"/>
<g>
	<circle style="fill:#FFFFFF;" cx="348.69" cy="66.207" r="13.241"/>
	<circle style="fill:#FFFFFF;" cx="256" cy="79.448" r="8.828"/>
	<circle style="fill:#FFFFFF;" cx="291.31" cy="35.31" r="8.828"/>
	<circle style="fill:#FFFFFF;" cx="397.241" cy="52.966" r="8.828"/>
	<circle style="fill:#FFFFFF;" cx="141.241" cy="123.586" r="8.828"/>
	<circle style="fill:#FFFFFF;" cx="194.207" cy="105.931" r="8.828"/>
</g>
<g>
	<circle style="fill:#FF7E68;" cx="35.31" cy="132.414" r="8.828"/>
	<circle style="fill:#FF7E68;" cx="105.931" cy="52.966" r="8.828"/>
	<circle style="fill:#FF7E68;" cx="70.621" cy="141.241" r="8.828"/>
</g>
<g>
	<circle style="fill:#FFFFFF;" cx="388.414" cy="141.241" r="8.828"/>
	<circle style="fill:#FFFFFF;" cx="414.897" cy="105.931" r="8.828"/>
	<circle style="fill:#FFFFFF;" cx="485.517" cy="132.414" r="8.828"/>
	<circle style="fill:#FFFFFF;" cx="220.69" cy="141.241" r="8.828"/>
</g>
<g>
</g>
<g>
</g>
<g>
</g>
<g>
</g>
<g>
</g>
<g>
</g>
<g>
</g>
<g>
</g>
<g>
</g>
<g>
</g>
<g>
</g>
<g>
</g>
<g>
</g>
<g>
</g>
<g>
</g>
</svg>
