<?xml version="1.0" encoding="iso-8859-1"?>
<!-- Generator: Adobe Illustrator 19.0.0, SVG Export Plug-In . SVG Version: 6.00 Build 0)  -->
<svg version="1.1" id="Layer_1" xmlns="http://www.w3.org/2000/svg" xmlns:xlink="http://www.w3.org/1999/xlink" x="0px" y="0px"
	 viewBox="0 0 512 512" style="enable-background:new 0 0 512 512;" xml:space="preserve">
<path style="fill:#FFECDB;" d="M335.448,141.241l94.904-21.901c10.429-2.407,20.543,5.067,21.305,15.742l7.377,103.263
	c0,0-7.043,17.555-26.483-8.828c-15.448-20.966-28.138-30.345-35.31-8.828c-8.845,26.535-52.966-26.483-52.966-26.483
	L335.448,141.241z"/>
<path style="fill:#FFE1CC;" d="M453.121,243.81c-4.189,1.116-10.818-1.058-20.569-14.293c-15.448-20.966-28.138-30.345-35.31-8.828
	c-1.754,5.263-4.927,7.309-8.836,7.348c-0.04-8.705,0.141-57.1,8.836-69.141C404.822,148.401,439.187,215.51,453.121,243.81z"/>
<path style="fill:#F5D2BE;" d="M176.552,141.241L81.647,119.34c-10.429-2.407-20.543,5.067-21.305,15.742l-7.377,103.263
	c0,0,7.043,17.555,26.483-8.828c15.448-20.966,28.138-30.345,35.31-8.828c8.845,26.535,52.966-26.483,52.966-26.483L176.552,141.241
	z"/>
<path style="fill:#FFE1CC;" d="M414.897,361.931c-13.241-78.345-51.068-200.477-61.793-264.828C342.805,35.31,309.629,0,256,0
	s-86.805,35.31-97.103,97.103c-10.726,64.351-48.552,186.483-61.793,264.828c-9.033,53.444-8.828,132.414-8.828,132.414
	c16.754,0,16.754,17.655,33.507,17.655c16.761,0,16.761-17.655,33.524-17.655c16.769,0,16.769,17.655,33.538,17.655
	s16.769-17.655,33.539-17.655S239.231,512,256,512s16.845-17.655,33.615-17.655c16.769,0,16.769,17.655,33.539,17.655
	c16.769,0,16.769-17.655,33.538-17.655c16.762,0,16.762,17.655,33.524,17.655c16.754,0,16.754-17.655,33.507-17.655
	C423.724,494.345,423.929,415.375,414.897,361.931z"/>
<g>
	<path style="fill:#F5D2BE;" d="M256,0c-53.629,0-86.805,35.31-97.103,97.103c-10.726,64.351-48.552,186.483-61.793,264.828
		c-9.033,53.444-8.828,132.414-8.828,132.414c16.754,0,16.754,17.655,33.507,17.655c16.761,0,16.761-17.655,33.524-17.655
		c10.59,0,14.506,7.028,20.167,12.216c-2.134-30.605-6.345-103.236-0.317-144.63c12.429-85.333,36.705-199.846,36.705-264.828
		c0-55.172,29.426-92.69,72.891-93.181C275.936,1.35,266.36,0,256,0z"/>
	<path style="fill:#F5D2BE;" d="M229.517,185.379L229.517,185.379c-4.875,0-8.828-3.953-8.828-8.828v-35.31
		c0-4.875,3.953-8.828,8.828-8.828l0,0c4.875,0,8.828,3.953,8.828,8.828v35.31C238.345,181.427,234.392,185.379,229.517,185.379z"/>
	<path style="fill:#F5D2BE;" d="M282.483,185.379L282.483,185.379c-4.875,0-8.828-3.953-8.828-8.828v-35.31
		c0-4.875,3.953-8.828,8.828-8.828l0,0c4.875,0,8.828,3.953,8.828,8.828v35.31C291.31,181.427,287.358,185.379,282.483,185.379z"/>
	<path style="fill:#F5D2BE;" d="M226.855,283.374c-17.199,105.591-4.47,210.97-4.47,210.97c16.77,0,16.846,17.655,33.615,17.655
		c0,0-19.862-153.931-19.862-228.966C236.138,277.227,227.788,277.642,226.855,283.374z"/>
	<path style="fill:#F5D2BE;" d="M289.199,329.167l0.242,165.177c16.77,0,16.846,17.655,33.615,17.655l-24.574-183.172
		C297.885,323.051,289.374,323.362,289.199,329.167z"/>
	<path style="fill:#F5D2BE;" d="M350.993,370.547l5.638,123.798c16.77,0,16.846,17.655,33.615,17.655l-29.97-141.793
		C359.678,364.43,351.167,364.742,350.993,370.547z"/>
</g>
<g>
	<path style="fill:#462D3E;" d="M229.517,150.069L229.517,150.069c-4.875,0-8.828-3.953-8.828-8.828v-35.31
		c0-4.875,3.953-8.828,8.828-8.828l0,0c4.875,0,8.828,3.953,8.828,8.828v35.31C238.345,146.116,234.392,150.069,229.517,150.069z"/>
	<path style="fill:#462D3E;" d="M282.483,150.069L282.483,150.069c-4.875,0-8.828-3.953-8.828-8.828v-35.31
		c0-4.875,3.953-8.828,8.828-8.828l0,0c4.875,0,8.828,3.953,8.828,8.828v35.31C291.31,146.116,287.358,150.069,282.483,150.069z"/>
</g>
<path style="fill:#FFECDB;" d="M321.841,26.548c14.495,41.379,19.091,145.332,40.09,220.625
	c30.161,108.138,36.781,184.674,42.496,258.571c5.216-5.081,9.259-11.399,19.297-11.399c0,0,0.205-78.969-8.828-132.414
	c-13.241-78.345-51.068-200.477-61.793-264.828C348.068,66.894,337.528,43.065,321.841,26.548z"/>
<path style="fill:#E6BEAA;" d="M58.879,243.81c4.189,1.116,10.818-1.058,20.569-14.293c15.448-20.966,28.138-30.345,35.31-8.828
	c1.754,5.263,4.927,7.309,8.836,7.348c0.04-8.705-0.141-57.1-8.836-69.141C107.178,148.401,72.813,215.51,58.879,243.81z"/>
<g>
</g>
<g>
</g>
<g>
</g>
<g>
</g>
<g>
</g>
<g>
</g>
<g>
</g>
<g>
</g>
<g>
</g>
<g>
</g>
<g>
</g>
<g>
</g>
<g>
</g>
<g>
</g>
<g>
</g>
</svg>
