<?xml version="1.0" encoding="iso-8859-1"?>
<!-- Generator: Adobe Illustrator 19.0.0, SVG Export Plug-In . SVG Version: 6.00 Build 0)  -->
<svg version="1.1" id="Layer_1" xmlns="http://www.w3.org/2000/svg" xmlns:xlink="http://www.w3.org/1999/xlink" x="0px" y="0px"
	 viewBox="0 0 512 512" style="enable-background:new 0 0 512 512;" xml:space="preserve">
<g>
	<path style="fill:#FFD5B2;" d="M176.552,247.172l35.31,35.31v26.483v17.655l-15.215-7.607c-1.495-0.748-2.44-2.276-2.44-3.948
		v-14.927l-8.828-17.655L176.552,247.172z"/>
	<path style="fill:#FFD5B2;" d="M335.448,247.172l-35.31,35.31v26.483v17.655l15.215-7.607c1.495-0.748,2.44-2.276,2.44-3.948
		v-14.927l8.828-17.655L335.448,247.172z"/>
</g>
<polygon style="fill:#75B200;" points="211.862,317.793 211.862,326.621 211.862,406.069 248.434,406.069 256,326.621 
	263.566,406.069 300.138,406.069 300.138,317.793 "/>
<polygon style="fill:#568C00;" points="211.862,326.621 211.862,369.153 252.655,361.737 256,326.621 259.231,360.541 
	300.138,353.103 300.138,326.621 211.862,317.793 "/>
<g>
	<path style="fill:#FFD5B2;" d="M211.862,406.069v79.448l-9.671,4.835c-4.894,2.446-7.985,7.448-7.985,12.919V512h44.138
		l10.089-105.931H211.862z"/>
	<path style="fill:#FFD5B2;" d="M300.138,406.069v79.448l9.671,4.835c4.894,2.446,7.985,7.448,7.985,12.919V512h-44.138
		l-10.089-105.931H300.138z"/>
</g>
<path style="fill:#82BE00;" d="M291.31,282.483v-15.89l8.828-1.766l26.483-114.759L256,141.241l-70.621,8.828l26.483,114.759
	l8.828,1.766v15.89h-8.828c0,0-7.724,34.207-8.828,61.793H256h52.966c-1.103-27.586-8.828-61.793-8.828-61.793H291.31z"/>
<path style="fill:#75B200;" d="M196.338,197.556l15.524,67.272l8.828,1.766v15.89h-8.828c0,0-7.724,34.207-8.828,61.793h27.744
	l6.517-91.234c0.675-9.449-2.237-18.806-8.154-26.204l-26.106-32.631L196.338,197.556z"/>
<path style="fill:#CCFF84;" d="M256,211.862c15.672-28.11,38.375-55.254,51.453-64.19L256,141.241l-51.452,6.431
	C217.626,156.608,240.328,183.752,256,211.862z"/>
<path style="fill:#B3E665;" d="M240.307,143.202l-35.758,4.47c13.078,8.936,35.779,36.079,51.452,64.19v-52.966L240.307,143.202z"/>
<rect x="211.862" y="264.828" style="fill:#23233A;" width="88.276" height="17.655"/>
<path style="fill:#FFD5B2;" d="M287.034,144.916l-14.712,9.297c-9.884,6.246-22.761,6.246-32.644,0l-14.712-9.297
	c-8.186-5.173-13.103-13.881-13.103-23.206v-26.91c0-23.105,19.762-41.835,44.138-41.835l0,0c24.376,0,44.138,18.73,44.138,41.835
	v26.909C300.138,131.034,295.221,139.743,287.034,144.916z"/>
<path style="fill:#FFC69F;" d="M251.084,158.215c-12.392-9.874-24.51-24.867-24.51-43.968V63.822
	c-8.968,7.658-14.712,18.637-14.712,30.978v26.909c0,9.325,4.917,18.034,13.103,23.206l14.712,9.297
	c1.926,1.217,4.032,1.996,6.141,2.738C247.543,157.489,249.3,157.926,251.084,158.215z"/>
<path style="fill:#568C00;" d="M291.31,26.483L291.31,26.483c0,9.751-7.904,17.655-17.655,17.655l0,0L256,8.828L291.31,26.483z"/>
<path style="fill:#82BE00;" d="M286.12,46.67l-18.874-30.935l24.065,10.748L268.136,4.428C265.149,1.586,261.184,0,257.06,0h-0.023
	c-6.051,0-11.591,3.401-14.328,8.798l-20.482,40.374c-6.814,13.432-10.365,28.282-10.365,43.345v4.05h88.276
	C300.138,78.962,295.287,61.698,286.12,46.67z"/>
<path style="fill:#75B200;" d="M238.345,79.448c0-11.034,3.545-55.541,18.692-79.448c-6.051,0-11.59,3.401-14.327,8.798
	l-20.482,40.375c-6.815,13.431-10.366,28.281-10.366,43.343v0.173L238.345,79.448z"/>
<path style="fill:#A4D700;" d="M299.711,90.356c-1.006-15.425-5.51-30.438-13.591-43.686l-18.875-30.935
	c0,0,16.341,39.161,18.272,67.851C286.419,96.984,292.978,95.591,299.711,90.356z"/>
<path style="fill:#75B200;" d="M300.138,97.103h-88.276c-4.875,0-8.828-3.953-8.828-8.828l0,0c0-4.875,3.953-8.828,8.828-8.828
	h88.276c4.875,0,8.828,3.953,8.828,8.828l0,0C308.966,93.151,305.013,97.103,300.138,97.103z"/>
<path style="fill:#568C00;" d="M247.172,97.103h-35.31c-4.875,0-8.828-3.953-8.828-8.828l0,0c0-4.875,3.953-8.828,8.828-8.828h35.31
	c4.875,0,8.828,3.953,8.828,8.828l0,0C256,93.151,252.047,97.103,247.172,97.103z"/>
<g>
	<path style="fill:#82BE00;" d="M185.379,150.069l-29.08,72.701c-3.901,9.75-2.75,20.796,3.075,29.534l26.005,39.007l17.655-17.655
		l-17.655-35.31l26.483-44.138L185.379,150.069z"/>
	<path style="fill:#82BE00;" d="M326.621,150.069l29.08,72.701c3.901,9.75,2.75,20.796-3.075,29.534l-26.005,39.007l-17.655-17.655
		l17.655-35.31l-26.483-44.138L326.621,150.069z"/>
</g>
<g>
	<path style="fill:#75B200;" d="M211.862,485.517l17.655,8.828l9.387-4.693c3.799-1.899,8.268,0.863,8.268,5.11V512h-70.621
		l6.687-13.374c1.37-2.741,3.774-4.826,6.681-5.795L211.862,485.517z"/>
	<path style="fill:#75B200;" d="M300.138,485.517l-17.655,8.828l-9.387-4.693c-3.799-1.899-8.268,0.863-8.268,5.11V512h70.621
		l-6.687-13.374c-1.37-2.741-3.774-4.826-6.681-5.795L300.138,485.517z"/>
</g>
<g>
</g>
<g>
</g>
<g>
</g>
<g>
</g>
<g>
</g>
<g>
</g>
<g>
</g>
<g>
</g>
<g>
</g>
<g>
</g>
<g>
</g>
<g>
</g>
<g>
</g>
<g>
</g>
<g>
</g>
</svg>
