<?xml version="1.0" encoding="iso-8859-1"?>
<!-- Generator: Adobe Illustrator 19.0.0, SVG Export Plug-In . SVG Version: 6.00 Build 0)  -->
<svg version="1.1" id="Layer_1" xmlns="http://www.w3.org/2000/svg" xmlns:xlink="http://www.w3.org/1999/xlink" x="0px" y="0px"
	 viewBox="0 0 512 512" style="enable-background:new 0 0 512 512;" xml:space="preserve">
<path style="fill:#FFC83C;" d="M308.323,167.102c22.545-3.422,40.854-21.76,44.186-44.318c4.418-29.913-16.361-55.974-44.235-60.299
	c-3.934-25.348-25.841-44.83-52.275-44.83c-26.434,0-48.341,19.481-52.275,44.829c-27.874,4.326-48.653,30.386-44.235,60.299
	c3.332,22.558,21.642,40.896,44.186,44.318c9.607,1.459,18.804,0.296,27.021-2.866c7.937-3.053,16.476,2.495,16.476,10.999
	l-0.001,327.938c0,4.875,3.953,8.828,8.828,8.828c4.875,0,8.828-3.953,8.828-8.828v-17.655c0-4.875,3.953-8.828,8.828-8.828
	c4.911,0,8.886,4.011,8.826,8.936c-0.057,4.836,3.992,8.719,8.829,8.719h17.655c4.875,0,8.828-3.953,8.828-8.828
	s-3.953-8.828-8.828-8.828s-8.828-3.953-8.828-8.828s3.953-8.828,8.828-8.828s8.828-3.953,8.828-8.828
	c0-4.875-3.953-8.828-8.828-8.828s-8.828-3.953-8.828-8.828s3.953-8.828,8.828-8.828s8.828-3.953,8.828-8.828
	s-3.953-8.828-8.828-8.828H291.31c-4.836,0-8.886,3.883-8.829,8.719c0.06,4.925-3.915,8.936-8.826,8.936
	c-4.875,0-8.828-3.953-8.828-8.828V175.235c0-8.504,8.537-14.052,16.476-10.999C289.519,167.396,298.717,168.559,308.323,167.102z
	 M335.448,114.759c0,19.47-15.84,35.31-35.31,35.31c-16.751,0-30.749-11.753-34.35-27.427c21.364-4.012,38.221-20.87,42.233-42.233
	C323.695,84.01,335.448,98.007,335.448,114.759z M266.647,104.111c3.469-10.866,11.977-19.374,22.842-22.842
	C286.022,92.135,277.514,100.642,266.647,104.111z M256,35.31c16.751,0,30.749,11.753,34.35,27.427
	c-14.297,2.685-26.582,11.107-34.35,22.805c-7.768-11.698-20.053-20.12-34.35-22.805C225.251,47.063,239.249,35.31,256,35.31z
	 M245.353,104.111c-10.866-3.469-19.374-11.977-22.842-22.842C233.376,84.737,241.884,93.245,245.353,104.111z M211.862,150.069
	c-19.47,0-35.31-15.84-35.31-35.31c0-16.751,11.753-30.749,27.427-34.35c4.012,21.364,20.87,38.221,42.233,42.233
	C242.611,138.316,228.614,150.069,211.862,150.069z"/>
<g>
	<path style="fill:#FFB432;" d="M273.655,423.724c-4.875,0-8.828-3.953-8.828-8.828v70.621c0-4.875,3.953-8.828,8.828-8.828
		s8.828,3.953,8.828,8.828v-70.621C282.483,419.772,278.53,423.724,273.655,423.724z"/>
	<path style="fill:#FFB432;" d="M273.314,203.034h-35.31c-4.875,0-8.828-3.953-8.828-8.828l0,0c0-4.875,3.953-8.828,8.828-8.828
		h35.31c4.875,0,8.828,3.953,8.828,8.828l0,0C282.142,199.082,278.19,203.034,273.314,203.034z"/>
	<circle style="fill:#FFB432;" cx="256" cy="17.655" r="17.655"/>
</g>
<g>
</g>
<g>
</g>
<g>
</g>
<g>
</g>
<g>
</g>
<g>
</g>
<g>
</g>
<g>
</g>
<g>
</g>
<g>
</g>
<g>
</g>
<g>
</g>
<g>
</g>
<g>
</g>
<g>
</g>
</svg>
