<?xml version="1.0" encoding="iso-8859-1"?>
<!-- Generator: Adobe Illustrator 19.0.0, SVG Export Plug-In . SVG Version: 6.00 Build 0)  -->
<svg version="1.1" id="Layer_1" xmlns="http://www.w3.org/2000/svg" xmlns:xlink="http://www.w3.org/1999/xlink" x="0px" y="0px"
	 viewBox="0 0 512.001 512.001" style="enable-background:new 0 0 512.001 512.001;" xml:space="preserve">
<g>
	<polygon style="fill:#606ED5;" points="189.79,220.678 189.79,317.785 216.273,361.925 198.617,211.85 	"/>
	<path style="fill:#606ED5;" d="M296.955,141.226h17.715c14.113,0,25.746,11.066,26.451,25.161l7.57,151.398l-26.484,70.624
		L296.955,141.226z"/>
	<path style="fill:#606ED5;" d="M241.526,141.226H223.81c-14.113,0-25.746,11.066-26.451,25.161l-7.57,151.398h26.484
		L241.526,141.226z"/>
	<path style="fill:#606ED5;" d="M339.865,512H198.617l16.455-345.55c0.672-14.121,12.317-25.224,26.454-25.224h55.43
		c14.137,0,25.781,11.103,26.454,25.224L339.865,512z"/>
</g>
<path style="fill:#6680DF;" d="M301.437,512l-8.828-225.113c0-2.438-1.976-4.414-4.414-4.414l0,0c-2.438,0-4.414,1.976-4.414,4.414
	V512H301.437z"/>
<path style="fill:#425ABC;" d="M233.929,512V176.538l-18.324-13.743c-0.227,1.202-0.473,2.399-0.533,3.655L198.617,512H233.929z"/>
<g>
	<path style="fill:#6C91E8;" d="M323.409,166.451c-0.672-14.12-12.317-25.224-26.454-25.224h-17.656
		c14.137,0,25.781,11.103,26.454,25.224l16.455,345.55h17.656L323.409,166.451z"/>
	<path style="fill:#6C91E8;" d="M335.969,430.2l-12.56-263.749c-0.672-14.12-12.317-25.224-26.454-25.224h-55.43
		c-14.137,0-25.781,11.103-26.454,25.224l-1.671,35.081C226.429,250.815,262.445,361.765,335.969,430.2z"/>
</g>
<path style="fill:#86ABFF;" d="M323.409,166.451c-0.672-14.12-12.317-25.224-26.454-25.224h-17.656
	c14.137,0,25.781,11.103,26.454,25.224l11.644,244.532c5.937,6.661,12.056,13.154,18.572,19.218L323.409,166.451z"/>
<g>
	
		<rect x="169.773" y="41.756" transform="matrix(-0.7071 -0.7071 0.7071 -0.7071 275.8972 228.9997)" style="fill:#FFB432;" width="31.206" height="31.206"/>
	<path style="fill:#FFB432;" d="M185.376,512L185.376,512c-2.438,0-4.414-1.976-4.414-4.414V61.775h8.828v445.811
		C189.79,510.024,187.813,512,185.376,512z"/>
</g>
<path style="fill:#FFD5B2;" d="M189.79,229.506h-8.828c-4.875,0-8.828-3.953-8.828-8.828v-17.656c0-4.875,3.953-8.828,8.828-8.828
	h8.828c4.875,0,8.828,3.953,8.828,8.828v17.656C198.617,225.554,194.665,229.506,189.79,229.506z"/>
<rect x="179.125" y="51.121" transform="matrix(-0.7071 -0.7071 0.7071 -0.7071 275.8798 229.0003)" style="fill:#FF5A4E;" width="12.485" height="12.485"/>
<path style="fill:#FFC83C;" d="M269.241,264.817c23.106-37.351,31.295-150.075,26.244-150.075h-52.489
	C237.945,114.742,246.135,227.466,269.241,264.817z"/>
<path style="fill:#FFB432;" d="M242.996,114.742c-5.051,0,3.138,112.723,26.244,150.075V114.742H242.996z"/>
<path style="fill:#FFD5B2;" d="M287.863,137.64l-8.828,5.885c-5.93,3.954-13.657,3.954-19.587,0l-8.828-5.885
	c-4.912-3.274-7.862-8.787-7.862-14.691v-17.035c0-14.627,11.857-26.484,26.484-26.484l0,0c14.627,0,26.484,3.029,26.484,17.656
	v25.863C295.725,128.853,292.774,134.366,287.863,137.64z"/>
<path style="fill:#FFC69F;" d="M266.291,146.058c-7.435-6.251-14.706-1.568-14.706-13.66V86.304
	c-5.381,4.848-8.828,2.97-8.828,10.782v25.863c0,5.904,2.951,11.416,7.862,14.691l8.828,5.886c1.155,0.77,2.419,1.264,3.685,1.734
	C264.166,145.599,265.221,145.876,266.291,146.058z"/>
<path style="fill:#FFC83C;" d="M282.483,132.398L282.483,132.398c-2.438,0-24.046,0-26.484,0l0,0c-2.438,0-4.414-1.976-4.414-4.414
	v-4.414c0-4.875-3.953-8.828-8.828-8.828l0,0v8.207c0,5.903,2.95,11.416,7.861,14.69l8.829,5.886c5.93,3.954,13.657,3.954,19.587,0
	l8.829-5.886c4.912-3.274,7.861-8.787,7.861-14.69v-8.207l0,0c-4.875,0-8.828,3.953-8.828,8.828v4.414
	C286.897,130.422,284.921,132.398,282.483,132.398z"/>
<path style="fill:#606ED5;" d="M292.544,24.222l-7.745-12.586c-1.055,0.363-2.13,0.55-3.093,0.436
	c-0.398-0.046-0.779-0.063-1.181-0.065c-0.45-0.003-0.873-0.083-1.304-0.139l2.616,19.623l4.551,1.138
	c2.306,0.577,4.726-0.359,6.045-2.337C293.653,28.462,293.696,26.092,292.544,24.222z"/>
<path style="fill:#6C91E8;" d="M281.4,15.735l9.62,6.013L279.483,2.997C278.336,1.134,276.306,0,274.118,0h-6.65
	c-3.885,0-7.263,2.666-8.167,6.444L237.751,96.57h62.981L281.4,15.735z"/>
<path style="fill:#86ABFF;" d="M292.334,92.371l-16.295-81.475c-0.258-1.293,0.731-2.499,2.049-2.499l0,0
	c0.968,0,1.809,0.664,2.033,1.606l20.611,86.567L292.334,92.371z"/>
<path style="fill:#606ED5;" d="M266.896,3.525C267.226,1.493,268.982,0,271.041,0h-3.571c-3.885,0-7.263,2.665-8.167,6.444
	L237.752,96.57h8.698l5.999-4.199L266.896,3.525z"/>
<path style="fill:#FFC83C;" d="M297.975,81.346c-0.118-0.023-0.232-0.045-0.351-0.07c-8.428-1.686-17.981-3.597-28.383-3.597
	c-10.402,0-19.956,1.911-28.383,3.597c-0.119,0.024-0.232,0.046-0.351,0.07l-4.331,17.324h8.9
	c7.644-1.512,15.563-2.922,24.165-2.922s16.52,1.411,24.165,2.922h8.9L297.975,81.346z"/>
<path style="fill:#FFB432;" d="M240.857,81.277c-0.119,0.024-0.232,0.046-0.351,0.07l-4.052,16.209l9.993-0.985l5.999-4.199
	l2.207-13.571C249.785,79.495,245.172,80.413,240.857,81.277z"/>
<path style="fill:#606ED5;" d="M316.996,104.962c-6.725,0-13.739-1.404-21.018-2.859c-8.441-1.688-17.167-3.434-26.737-3.434
	s-18.297,1.746-26.737,3.434c-10.987,2.199-21.369,4.277-31.066,1.588c-2.235-0.618-3.544-2.932-2.925-5.167
	c0.618-2.235,2.932-3.548,5.167-2.925c7.767,2.151,16.763,0.352,27.179-1.73c8.428-1.686,17.981-3.597,28.383-3.597
	c10.402,0,19.956,1.911,28.383,3.597c10.415,2.083,19.41,3.882,27.179,1.73c2.239-0.622,4.549,0.691,5.167,2.925
	c0.619,2.235-0.691,4.549-2.925,5.167C323.771,104.597,320.42,104.962,316.996,104.962z"/>
<path style="fill:#FFB432;" d="M255.999,132.398c-2.438,0-4.414-1.976-4.414-4.414v-4.414c0-4.875-3.953-8.828-8.828-8.828v8.207
	c0,5.903,2.95,11.416,7.861,14.69l8.829,5.886c2.965,1.977,6.379,2.965,9.794,2.965v-14.092
	C263.229,132.398,257.217,132.398,255.999,132.398z"/>
<path style="fill:#5064C8;" d="M260.413,512V366.339c0-2.438-1.976-4.414-4.414-4.414c-2.438,0-4.414,1.976-4.414,4.414L245.873,512
	H260.413z"/>
<g>
</g>
<g>
</g>
<g>
</g>
<g>
</g>
<g>
</g>
<g>
</g>
<g>
</g>
<g>
</g>
<g>
</g>
<g>
</g>
<g>
</g>
<g>
</g>
<g>
</g>
<g>
</g>
<g>
</g>
</svg>
