<?xml version="1.0" encoding="iso-8859-1"?>
<!-- Generator: Adobe Illustrator 19.0.0, SVG Export Plug-In . SVG Version: 6.00 Build 0)  -->
<svg version="1.1" id="Layer_1" xmlns="http://www.w3.org/2000/svg" xmlns:xlink="http://www.w3.org/1999/xlink" x="0px" y="0px"
	 viewBox="0 0 512.001 512.001" style="enable-background:new 0 0 512.001 512.001;" xml:space="preserve">
<path style="fill:#78EFE5;" d="M282.483,267.744V52.966h-52.966v214.779c-55.516,12.134-97.103,61.515-97.103,120.67
	C132.414,456.669,187.745,512,256,512s123.586-55.331,123.586-123.586C379.587,329.259,337.999,279.876,282.483,267.744z"/>
<path style="fill:#53DCDC;" d="M282.483,52.966h-52.966c-4.875,0-8.828-3.953-8.828-8.828l0,0c0-4.875,3.953-8.828,8.828-8.828
	h52.966c4.875,0,8.828,3.953,8.828,8.828l0,0C291.311,49.013,287.358,52.966,282.483,52.966z"/>
<path style="fill:#44BEBE;" d="M247.173,52.966h-17.655c-4.875,0-8.828-3.953-8.828-8.828l0,0c0-4.875,3.953-8.828,8.828-8.828
	h17.655c4.875,0,8.828,3.953,8.828,8.828l0,0C256,49.013,252.048,52.966,247.173,52.966z"/>
<path style="fill:#53DCDC;" d="M185.38,388.414c0-42.588,21.602-80.035,54.397-102.23c4.718-3.193,7.396-8.644,7.396-14.343V52.966
	h-17.655v214.779c-59.517,13.007-103.026,68.826-96.445,133.601c4.749,46.748,37.065,86.782,81.143,103.06
	c24.14,8.915,47.133,9.299,68.267,4.68C226.967,496.951,185.38,447.569,185.38,388.414z"/>
<path style="fill:#C86EFF;" d="M156.227,353.103c-3.915,11.059-6.157,22.91-6.157,35.31c0,58.504,47.426,105.931,105.931,105.931
	s105.931-47.427,105.931-105.931c0-12.401-2.241-24.252-6.157-35.31H156.227z"/>
<path style="fill:#A15AE5;" d="M156.227,353.103c-3.915,11.059-6.157,22.91-6.157,35.31c0,54.549,41.244,99.43,94.242,105.254
	c-35.346-21.731-58.932-60.714-58.932-105.254c0-12.286,1.849-24.122,5.195-35.31H156.227z"/>
<path style="fill:#E6FBF9;" d="M317.811,322.354c-1.983,0-3.975-0.664-5.621-2.026c-4.952-4.09-10.358-7.647-16.065-10.564
	c-4.341-2.22-6.06-7.539-3.844-11.88c2.225-4.341,7.539-6.056,11.88-3.844c6.854,3.505,13.341,7.772,19.281,12.685
	c3.758,3.104,4.285,8.668,1.176,12.427C322.871,321.263,320.349,322.354,317.811,322.354z"/>
<path style="fill:#C1F7F2;" d="M342.505,441.384c-1.35,0-2.724-0.31-4.009-0.966c-4.341-2.22-6.06-7.539-3.844-11.88
	c6.387-12.491,9.624-25.991,9.624-40.125c0-12.845-2.698-25.228-8.013-36.814c-2.035-4.427-0.09-9.668,4.341-11.702
	c4.401-2.039,9.668-0.099,11.702,4.341c6.388,13.908,9.625,28.77,9.625,44.175c0,16.957-3.887,33.16-11.556,48.16
	C348.81,439.629,345.716,441.384,342.505,441.384z"/>
<path style="fill:#EFA0FF;" d="M360.708,373.148c-0.204-1.418-0.424-2.831-0.685-4.237c-0.431-2.249-0.913-4.479-1.482-6.676
	c-0.151-0.594-0.327-1.182-0.488-1.773c-0.689-2.483-1.426-4.947-2.279-7.357h-18.916c4.875,11.157,7.418,23.012,7.418,35.31
	c0,14.134-3.238,27.634-9.625,40.125c-2.216,4.341-0.495,9.66,3.844,11.88c1.284,0.655,2.659,0.966,4.009,0.966
	c3.026,0,5.902-1.602,7.539-4.34c0.503-0.97,0.951-1.97,1.425-2.957c1.106-2.305,2.143-4.632,3.073-6.991
	c0.565-1.438,1.092-2.893,1.596-4.361c0.74-2.154,1.389-4.332,1.985-6.525c0.428-1.576,0.865-3.146,1.222-4.75
	c0.52-2.34,0.903-4.713,1.26-7.092c0.216-1.428,0.494-2.835,0.653-4.28c0.418-3.851,0.675-7.737,0.675-11.674
	c0-3.405-0.221-6.772-0.535-10.12C361.224,376.561,360.964,374.855,360.708,373.148z"/>
<path style="fill:#8AA291;" d="M256,105.931L256,105.931c-9.751,0-17.655-7.904-17.655-17.655v-35.31h35.31v35.31
	C273.655,98.027,265.751,105.931,256,105.931z"/>
<path style="fill:#895438;" d="M273.655,35.31h-35.31c-4.875,0-8.828-3.953-8.828-8.828V8.828c0-4.875,3.953-8.828,8.828-8.828
	h35.31c4.875,0,8.828,3.953,8.828,8.828v17.655C282.483,31.358,278.531,35.31,273.655,35.31z"/>
<path style="fill:#6C392C;" d="M247.173,35.31h-8.828c-4.875,0-8.828-3.953-8.828-8.828V8.828c0-4.875,3.953-8.828,8.828-8.828
	h8.828C252.048,0,256,3.953,256,8.828v17.655C256,31.358,252.048,35.31,247.173,35.31z"/>
<path style="fill:#7C988C;" d="M247.173,103.482V52.966h-8.828v35.31C238.345,94.794,241.918,100.424,247.173,103.482z"/>
<g>
	<circle style="fill:#EFA0FF;" cx="317.793" cy="379.586" r="8.828"/>
	<circle style="fill:#EFA0FF;" cx="273.655" cy="397.241" r="8.828"/>
</g>
<g>
	<circle style="fill:#C1F7F2;" cx="238.345" cy="335.448" r="8.828"/>
	<circle style="fill:#C1F7F2;" cx="273.655" cy="326.621" r="8.828"/>
	<circle style="fill:#C1F7F2;" cx="256" cy="300.138" r="8.828"/>
</g>
<g>
	<circle style="fill:#EFA0FF;" cx="291.311" cy="450.207" r="8.828"/>
	<circle style="fill:#EFA0FF;" cx="238.345" cy="432.552" r="8.828"/>
	<circle style="fill:#EFA0FF;" cx="220.69" cy="388.414" r="8.828"/>
</g>
<g>
</g>
<g>
</g>
<g>
</g>
<g>
</g>
<g>
</g>
<g>
</g>
<g>
</g>
<g>
</g>
<g>
</g>
<g>
</g>
<g>
</g>
<g>
</g>
<g>
</g>
<g>
</g>
<g>
</g>
</svg>
