<?xml version="1.0" encoding="iso-8859-1"?>
<!-- Generator: Adobe Illustrator 19.0.0, SVG Export Plug-In . SVG Version: 6.00 Build 0)  -->
<svg version="1.1" id="Layer_1" xmlns="http://www.w3.org/2000/svg" xmlns:xlink="http://www.w3.org/1999/xlink" x="0px" y="0px"
	 viewBox="0 0 512 512" style="enable-background:new 0 0 512 512;" xml:space="preserve">
<path style="fill:#FFB432;" d="M297.931,70.621c0,14.626-11.857,26.483-26.483,26.483s-26.483-11.857-26.483-26.483
	S271.448,0,271.448,0S297.931,55.994,297.931,70.621z"/>
<path style="fill:#FFE159;" d="M271.448,70.621L271.448,70.621c-4.855,0-8.828,3.972-8.828,8.828v43.034
	c0,0.607,0.497,1.103,1.103,1.103h15.448c0.607,0,1.103-0.497,1.103-1.103V79.448C280.276,74.593,276.303,70.621,271.448,70.621z"/>
<rect x="253.793" y="432.552" style="fill:#54546F;" width="35.31" height="52.966"/>
<rect x="218.483" y="114.759" style="fill:#FFE159;" width="105.931" height="238.345"/>
<rect x="218.483" y="114.759" style="fill:#FFC83C;" width="44.138" height="238.345"/>
<path style="fill:#54546F;" d="M275.862,441.379h-8.828c-31.69,0-57.379-25.689-57.379-57.379v-22.069h123.586V384
	C333.241,415.69,307.552,441.379,275.862,441.379z"/>
<path style="fill:#444460;" d="M244.966,379.586v-17.655h-35.31v17.655c0,34.127,27.666,61.793,61.793,61.793
	c6.14,0,12.057-0.926,17.655-2.593C263.585,431.186,244.966,407.574,244.966,379.586z"/>
<path style="fill:#6E6E88;" d="M333.241,379.586H209.655c-9.751,0-17.655-7.904-17.655-17.655l0,0
	c0-9.751,7.904-17.655,17.655-17.655h123.586c9.751,0,17.655,7.904,17.655,17.655l0,0
	C350.897,371.682,342.993,379.586,333.241,379.586z"/>
<path style="fill:#54546F;" d="M244.966,379.586h-35.31c-9.751,0-17.655-7.904-17.655-17.655l0,0
	c0-9.751,7.904-17.655,17.655-17.655h35.31c9.751,0,17.655,7.904,17.655,17.655l0,0
	C262.621,371.682,254.717,379.586,244.966,379.586z"/>
<path style="fill:#6E6E88;" d="M386.207,512H156.69c-9.751,0-17.655-7.904-17.655-17.655l0,0c0-9.751,7.904-17.655,17.655-17.655
	h229.517c9.751,0,17.655,7.904,17.655,17.655l0,0C403.862,504.096,395.958,512,386.207,512z"/>
<g>
	<path style="fill:#54546F;" d="M244.966,512H156.69c-9.751,0-17.655-7.904-17.655-17.655l0,0c0-9.751,7.904-17.655,17.655-17.655
		h88.276c9.751,0,17.655,7.904,17.655,17.655l0,0C262.621,504.096,254.717,512,244.966,512z"/>
	<path style="fill:#54546F;" d="M192,507.586c-3.389,0-6.777-1.293-9.363-3.879l-60.278-60.278
		c-9.171-9.172-14.221-21.364-14.221-34.332V308.966c0-21.905,17.82-39.724,39.724-39.724s39.724,17.82,39.724,39.724
		c0,7.313-5.929,13.241-13.241,13.241c-7.313,0-13.241-5.929-13.241-13.241c0-7.302-5.94-13.241-13.241-13.241
		c-7.302,0-13.241,5.94-13.241,13.241v100.132c0,5.895,2.296,11.437,6.464,15.607l60.278,60.277c5.171,5.172,5.171,13.555,0,18.727
		C198.777,506.293,195.389,507.586,192,507.586z"/>
</g>
<path style="fill:#FFC83C;" d="M227.31,105.931c-9.751,0-17.655,7.904-17.655,17.655v17.655l0,0c9.751,0,17.655,7.904,17.655,17.655
	v34.365c0,8.794,6.009,16.947,14.69,18.358c11.061,1.801,20.62-6.69,20.62-17.412v-35.31c0-9.751,7.904-17.655,17.655-17.655l0,0
	c9.751,0,17.655,7.904,17.655,17.655v-0.945c0,8.794,6.009,16.947,14.69,18.358c11.061,1.8,20.62-6.691,20.62-17.414v-35.31
	c0-9.751-7.904-17.655-17.655-17.655H227.31z"/>
<path style="fill:#FFB432;" d="M227.31,105.931c-9.75,0-17.655,7.904-17.655,17.655v17.655c9.75,0,17.655,7.904,17.655,17.655
	v34.366c0,8.794,6.009,16.946,14.69,18.358c11.061,1.8,20.62-6.691,20.62-17.414v-35.31c0-9.75,7.905-17.655,17.655-17.655v-35.31
	H227.31z"/>
<g>
	<path style="fill:#FFFF95;" d="M297.931,326.621L297.931,326.621c-4.875,0-8.828-3.953-8.828-8.828v-70.621
		c0-4.875,3.953-8.828,8.828-8.828l0,0c4.875,0,8.828,3.953,8.828,8.828v70.621C306.759,322.668,302.806,326.621,297.931,326.621z"
		/>
	<path style="fill:#FFFF95;" d="M297.931,220.69L297.931,220.69c-4.875,0-8.828-3.953-8.828-8.828v-8.828
		c0-4.875,3.953-8.828,8.828-8.828l0,0c4.875,0,8.828,3.953,8.828,8.828v8.828C306.759,216.737,302.806,220.69,297.931,220.69z"/>
</g>
<g>
</g>
<g>
</g>
<g>
</g>
<g>
</g>
<g>
</g>
<g>
</g>
<g>
</g>
<g>
</g>
<g>
</g>
<g>
</g>
<g>
</g>
<g>
</g>
<g>
</g>
<g>
</g>
<g>
</g>
</svg>
