<?xml version="1.0" encoding="iso-8859-1"?>
<!-- Generator: Adobe Illustrator 19.0.0, SVG Export Plug-In . SVG Version: 6.00 Build 0)  -->
<svg version="1.1" id="Layer_1" xmlns="http://www.w3.org/2000/svg" xmlns:xlink="http://www.w3.org/1999/xlink" x="0px" y="0px"
	 viewBox="0 0 511.46 511.46" style="enable-background:new 0 0 511.46 511.46;" xml:space="preserve">
<path style="fill:#663333;" d="M511.46,244.033v50.943c0,5.957-4.834,10.791-10.791,10.791h-28.315
	c-2.784,22.779-9.69,45.073-20.405,65.543c-33.408,63.784-99.329,102.318-169.102,102.318c-13.769,0-27.689-1.5-41.544-4.608
	c-5.234-1.176-8.816-6.01-8.395-11.363s4.694-9.582,10.057-9.938c28.444-1.856,56.187-10.942,80.208-26.254
	c24.765-15.776,45.095-37.951,58.799-64.119c8.611-16.434,14.373-33.71,17.233-51.58H161.225l-40.001,40.001
	c3.939,22.833-3.41,46.497-19.941,63.029c-13.607,13.607-32.027,20.999-50.846,20.999c-6.151,0-12.355-0.788-18.441-2.417
	c-3.734-0.993-6.647-3.906-7.64-7.64c-1.629-6.097-2.428-12.301-2.428-18.463c0-18.819,7.402-37.239,20.999-50.835
	c16.542-16.542,40.206-23.891,63.04-19.931l24.743-24.743H17.999c-5.957,0-10.791-4.834-10.791-10.791v-50.943
	c0-5.967,4.834-10.791,10.791-10.791h5.309C9.086,222.16,0,206.654,0,186.313c0-44.199,44.879-95.617,87.502-101.908
	c22.769-26.027,53.954-42.44,88.301-46.357c1.09-0.14,2.104-0.216,3.119-0.216c13.024,0,23.621,10.597,23.621,23.621v23.027
	c18.528-6.766,38.005-10.186,58.097-10.186h43.325c89.984,0,163.825,70.356,169.447,158.948h27.257
	C506.626,233.242,511.46,238.066,511.46,244.033z M489.879,284.185v-29.362h-16.111c0,0-0.022,28.412-0.032,29.362H489.879z
	 M452.187,280.927v-36.829c0-81.729-66.493-148.222-148.222-148.222H260.64c-22.499,0-44.102,4.91-64.205,14.589
	c-3.345,1.619-7.284,1.392-10.424-0.583c-3.14-1.975-5.05-5.428-5.05-9.14V61.453c0-1.122-2.201-2.029-2.428-1.996
	c-0.065,0-0.129,0.011-0.205,0.022c-30.257,3.431-57.612,18.355-77.035,42.03c-1.888,2.298-4.64,3.712-7.607,3.917
	c-15.409,1.047-33.484,11.654-48.353,28.369c-14.87,16.736-23.75,36.365-23.75,52.519c0,16.995,15.28,45.451,71.856,46.929
	l85.765,0.065l1.209-4.295c1.619-5.73,7.575-9.064,13.316-7.446c5.741,1.608,9.075,7.575,7.456,13.305l-9.927,35.189
	c-0.799,2.849-0.453,5.849,1.004,8.438c1.446,2.59,3.809,4.457,6.669,5.266c1.004,0.281,2.018,0.421,3.032,0.421
	c4.942,0,9.323-3.324,10.672-8.093l15.269-54.126c1.446-5.115-0.917-10.445-5.525-12.852c-0.518-0.119-16.855-6.615-16.855-6.615
	c-5.536-2.223-8.212-8.503-6-14.028c2.223-5.536,8.503-8.223,14.028-6c0,0,15.204,5.892,15.841,6.14
	c15.539,6.237,23.837,23.092,19.283,39.214l-1.543,5.482h66.061l1.209-4.295c1.619-5.73,7.575-9.064,13.316-7.446
	c5.741,1.608,9.075,7.575,7.456,13.305l-9.927,35.189c-0.809,2.849-0.453,5.849,0.993,8.438c1.446,2.59,3.82,4.457,6.669,5.266
	c1.004,0.281,2.018,0.421,3.032,0.421c4.942,0,9.334-3.324,10.672-8.093l15.28-54.126c1.435-5.115-0.917-10.445-5.536-12.852
	c-0.518-0.119-16.844-6.615-16.844-6.615c-5.536-2.223-8.223-8.503-6-14.028c2.212-5.536,8.503-8.223,14.028-6
	c0,0,15.204,5.892,15.83,6.14c15.549,6.237,23.837,23.092,19.294,39.214l-1.543,5.482h14.654c14.87,0,26.977,12.096,26.977,26.977
	c0,0,0.151,20.287,0.14,20.891c-0.335,30.203-7.672,59.198-21.797,86.186c-15.452,29.502-38.383,54.504-66.32,72.309
	c-4.5,2.87-9.118,5.546-13.834,8.018c46.951-10.888,88.441-41.631,111.889-86.391c12.949-24.722,19.639-52.422,19.348-80.121
	C452.176,281.089,452.187,281.013,452.187,280.927z M401.222,284.185c0.022-0.572-0.054-23.902-0.054-23.902
	c0-2.978-2.428-5.395-5.395-5.395h-20.751c0,0-8.104,28.563-8.374,29.297H401.222z M304.472,264.201l2.622-9.312h-66.061
	c0,0-8.093,28.563-8.363,29.297h72.525C302.864,277.797,302.584,270.87,304.472,264.201z M170.483,264.201l2.622-9.312
	L28.79,254.824v29.362h142.416C168.886,277.797,168.606,270.87,170.483,264.201z M86.024,393.539
	c11.071-11.082,16.262-26.74,14.244-42.084c-15.334-2.018-31.002,3.162-42.084,14.244s-16.272,26.75-14.244,42.095
	C59.284,409.812,74.942,404.621,86.024,393.539z"/>
<path style="fill:#CA5F38;" d="M489.879,254.824v29.362h-16.143c0.011-0.95,0.032-29.362,0.032-29.362H489.879z"/>
<path style="fill:#9ACE57;" d="M452.187,244.098v36.829c0,0.086-0.011,0.162-0.011,0.248c0.291,27.7-6.399,55.4-19.348,80.121
	c-23.448,44.76-64.939,75.503-111.889,86.391c4.716-2.471,9.334-5.147,13.834-8.018c27.937-17.805,50.868-42.807,66.32-72.309
	c14.125-26.988,21.463-55.982,21.797-86.186c0.011-0.604-0.14-20.891-0.14-20.891c0-14.88-12.107-26.977-26.977-26.977h-14.654
	l1.543-5.482c4.543-16.121-3.744-32.977-19.294-39.214c-0.626-0.248-15.83-6.14-15.83-6.14c-5.525-2.223-11.816,0.464-14.028,6
	c-2.223,5.525,0.464,11.805,6,14.028c0,0,16.326,6.496,16.844,6.615c4.618,2.406,6.971,7.737,5.536,12.852l-15.28,54.126
	c-1.338,4.77-5.73,8.093-10.672,8.093c-1.014,0-2.029-0.14-3.032-0.421c-2.849-0.809-5.223-2.676-6.669-5.266
	c-1.446-2.59-1.802-5.59-0.993-8.438l9.927-35.189c1.619-5.73-1.716-11.697-7.456-13.305c-5.741-1.619-11.697,1.716-13.316,7.446
	l-1.209,4.295H247.13l1.543-5.482c4.554-16.121-3.744-32.977-19.283-39.214c-0.637-0.248-15.841-6.14-15.841-6.14
	c-5.525-2.223-11.805,0.464-14.028,6c-2.212,5.525,0.464,11.805,6,14.028c0,0,16.337,6.496,16.855,6.615
	c4.608,2.406,6.971,7.737,5.525,12.852l-15.269,54.126c-1.349,4.77-5.73,8.093-10.672,8.093c-1.014,0-2.029-0.14-3.032-0.421
	c-2.86-0.809-5.223-2.676-6.669-5.266c-1.457-2.59-1.802-5.59-1.004-8.438l9.927-35.189c1.619-5.73-1.716-11.697-7.456-13.305
	c-5.741-1.619-11.697,1.716-13.316,7.446l-1.209,4.295l-85.765-0.065c-56.576-1.478-71.856-29.934-71.856-46.929
	c0-16.154,8.881-35.782,23.75-52.519c14.87-16.715,32.944-27.322,48.353-28.369c2.967-0.205,5.719-1.619,7.607-3.917
	c19.423-23.675,46.778-38.599,77.035-42.03c0.076-0.011,0.14-0.022,0.205-0.022c0.227-0.032,2.428,0.874,2.428,1.996v39.289
	c0,3.712,1.91,7.165,5.05,9.14c3.14,1.975,7.079,2.201,10.424,0.583c20.103-9.679,41.706-14.589,64.205-14.589h43.325
	C385.694,95.876,452.187,162.369,452.187,244.098z M400.132,164.333c4.241-4.187,4.284-11.028,0.097-15.269
	c-25.66-25.984-59.846-40.293-96.264-40.293h-26.847c-5.967,0-10.791,4.834-10.791,10.791s4.823,10.791,10.791,10.791h26.847
	c30.603,0,59.338,12.032,80.909,33.883c2.104,2.137,4.888,3.205,7.672,3.205C395.287,167.44,398.028,166.404,400.132,164.333z
	 M136.233,161.084c0-22.671-18.441-41.113-41.113-41.113s-41.113,18.441-41.113,41.113s18.441,41.113,41.113,41.113
	S136.233,183.756,136.233,161.084z"/>
<path style="fill:#CA5F38;" d="M401.168,260.284c0,0,0.076,23.33,0.054,23.902h-34.574c0.27-0.734,8.374-29.297,8.374-29.297h20.751
	C398.74,254.889,401.168,257.306,401.168,260.284z"/>
<path style="fill:#9ACE57;" d="M400.229,149.064c4.187,4.241,4.144,11.082-0.097,15.269c-2.104,2.072-4.845,3.108-7.586,3.108
	c-2.784,0-5.568-1.068-7.672-3.205c-21.571-21.851-50.307-33.883-80.909-33.883h-26.847c-5.967,0-10.791-4.834-10.791-10.791
	s4.823-10.791,10.791-10.791h26.847C340.384,108.771,374.569,123.079,400.229,149.064z"/>
<g>
	<path style="fill:#CA5F38;" d="M307.094,254.889l-2.622,9.312c-1.888,6.669-1.608,13.596,0.723,19.984H232.67
		c0.27-0.734,8.363-29.297,8.363-29.297L307.094,254.889L307.094,254.889z"/>
	<path style="fill:#CA5F38;" d="M173.105,254.889l-2.622,9.312c-1.878,6.669-1.597,13.596,0.723,19.984H28.79v-29.362
		L173.105,254.889z"/>
</g>
<path style="fill:#663333;" d="M95.121,119.972c22.671,0,41.113,18.441,41.113,41.113s-18.441,41.113-41.113,41.113
	s-41.113-18.441-41.113-41.113S72.449,119.972,95.121,119.972z M116.81,161.084c0-11.967-9.733-21.689-21.689-21.689
	c-11.967,0-21.689,9.722-21.689,21.689c0,11.956,9.722,21.689,21.689,21.689C107.077,182.774,116.81,173.041,116.81,161.084z"/>
<path style="fill:#FFFFFF;" d="M95.121,139.395c11.956,0,21.689,9.722,21.689,21.689c0,11.956-9.733,21.689-21.689,21.689
	c-11.967,0-21.689-9.733-21.689-21.689C73.431,149.118,83.154,139.395,95.121,139.395z M105.911,161.084
	c0-5.967-4.834-10.791-10.791-10.791c-5.967,0-10.791,4.823-10.791,10.791c0,5.957,4.823,10.791,10.791,10.791
	C101.077,171.875,105.911,167.041,105.911,161.084z"/>
<path style="fill:#663333;" d="M95.121,150.294c5.956,0,10.791,4.823,10.791,10.791c0,5.957-4.834,10.791-10.791,10.791
	c-5.967,0-10.791-4.834-10.791-10.791C84.33,155.117,89.153,150.294,95.121,150.294z"/>
<path style="fill:#6A973A;" d="M100.268,351.455c2.018,15.344-3.172,31.002-14.244,42.084
	c-11.082,11.082-26.74,16.272-42.084,14.255c-2.029-15.344,3.162-31.013,14.244-42.095
	C69.266,354.617,84.934,349.437,100.268,351.455z"/>
<g>
</g>
<g>
</g>
<g>
</g>
<g>
</g>
<g>
</g>
<g>
</g>
<g>
</g>
<g>
</g>
<g>
</g>
<g>
</g>
<g>
</g>
<g>
</g>
<g>
</g>
<g>
</g>
<g>
</g>
</svg>
