<?xml version="1.0" encoding="iso-8859-1"?>
<!-- Generator: Adobe Illustrator 19.0.0, SVG Export Plug-In . SVG Version: 6.00 Build 0)  -->
<svg version="1.1" id="Layer_1" xmlns="http://www.w3.org/2000/svg" xmlns:xlink="http://www.w3.org/1999/xlink" x="0px" y="0px"
	 viewBox="0 0 511.44 511.44" style="enable-background:new 0 0 511.44 511.44;" xml:space="preserve">
<path style="fill:#663333;" d="M511.44,186.339v39.706c0,90.953-69.404,165.988-158.028,174.943v68.598
	c0,6.179-5.004,11.194-11.194,11.194h-30.997c-6.19,0-11.194-5.015-11.194-11.194c0-6.179,5.004-11.194,11.194-11.194h19.803
	v-56.508h-40.534v67.703c0,6.179-5.004,11.194-11.194,11.194h-30.997c-6.19,0-11.194-5.015-11.194-11.194
	c0-6.179,5.004-11.194,11.194-11.194h19.803v-56.508h-17.732c-35.765,0-69.762-13.646-95.733-38.418
	c-26.385-25.176-41.508-58.926-42.572-95.028c-0.056-1.366-0.067-66.415-0.067-66.415c-12.09-5.351-22.444-13.914-29.989-24.605
	H34.612C15.526,177.417,0,161.89,0,142.804c0-9.235,3.593-17.933,10.12-24.471c6.549-6.549,15.246-10.153,24.493-10.153h39.583
	c9.638-23.396,31.176-40.669,57.046-44.251c-3.672-6.481-10.623-10.881-18.582-10.881c-6.19,0-11.194-5.004-11.194-11.194
	c0-6.179,5.004-11.194,11.194-11.194c12.918,0,24.538,5.631,32.553,14.552c8.026-8.922,19.646-14.552,32.564-14.552
	c6.19,0,11.194,5.015,11.194,11.194c0,6.19-5.004,11.194-11.194,11.194c-7.993,0-14.967,4.422-18.638,10.948
	c35.027,5.082,62.027,35.295,62.027,71.71v58.579h228.44l17.709-22.97c6.537-8.485,17.306-11.732,27.448-8.284
	C504.892,166.48,511.44,175.637,511.44,186.339z M489.052,226.044v-39.706c0-0.437,0-1.601-1.511-2.116
	c-1.522-0.515-2.228,0.403-2.496,0.75l-21.079,27.347c-2.116,2.743-5.384,4.355-8.866,4.355h-245.13
	c-6.19,0-11.194-5.004-11.194-11.194v-69.773c0-27.616-22.478-50.094-50.094-50.094h-7.455c-27.616,0-50.094,22.478-50.094,50.094
	c0,27.627,22.478,50.094,50.094,50.094c6.19,0,11.194,5.015,11.194,11.194c0,6.19-5.004,11.194-11.194,11.194
	c-2.306,0-4.578-0.112-6.84-0.325c0,0,0.011,58.725,0.056,59.867c0.896,30.224,13.556,58.456,35.642,79.546
	c21.784,20.776,50.296,32.217,80.285,32.217h85.244C420.219,379.494,489.052,310.661,489.052,226.044z M34.612,155.028h36.773
	c-1.713-6.157-2.642-12.627-2.642-19.321c0-1.724,0.09-3.437,0.201-5.138H34.612c-3.269,0-6.336,1.276-8.653,3.582
	c-2.295,2.306-3.571,5.384-3.571,8.653C22.388,149.543,27.874,155.028,34.612,155.028z"/>
<path style="fill:#F9DCB2;" d="M489.052,186.339v39.706c0,84.617-68.833,153.45-153.439,153.45h-85.244
	c-29.989,0-58.501-11.44-80.285-32.217c-22.086-21.09-34.747-49.322-35.642-79.546c-0.045-1.142-0.056-59.867-0.056-59.867
	c2.261,0.213,4.534,0.325,6.84,0.325c6.19,0,11.194-5.004,11.194-11.194c0-6.179-5.004-11.194-11.194-11.194
	c-27.616,0-50.094-22.467-50.094-50.094c0-27.616,22.478-50.094,50.094-50.094h7.455c27.616,0,50.094,22.478,50.094,50.094v69.773
	c0,6.19,5.004,11.194,11.194,11.194H455.1c3.481,0,6.75-1.612,8.866-4.355l21.079-27.347c0.269-0.347,0.974-1.265,2.496-0.75
	C489.052,184.738,489.052,185.902,489.052,186.339z M416.637,258.966v-9.314c0-6.179-5.015-11.194-11.194-11.194H279.295
	c-6.179,0-11.194,5.015-11.194,11.194s5.015,11.194,11.194,11.194h114.92c-0.996,36.325-30.862,65.564-67.423,65.564h-72.135
	c-17.955,0-32.989-14.261-33.504-31.792c-0.19-6.168-5.328-11.026-11.53-10.847c-6.179,0.179-11.037,5.34-10.847,11.519
	c0.873,29.508,25.937,53.508,55.881,53.508h72.135C376.326,348.8,416.637,308.501,416.637,258.966z M151.323,119.386
	c0-6.19-5.015-11.194-11.194-11.194c-6.19,0-11.194,5.004-11.194,11.194c0,6.179,5.004,11.194,11.194,11.194
	C146.308,130.58,151.323,125.565,151.323,119.386z"/>
<g>
	<path style="fill:#663333;" d="M416.637,249.653v9.314c0,49.534-40.31,89.833-89.845,89.833h-72.135
		c-29.944,0-55.008-24-55.881-53.508c-0.19-6.179,4.668-11.34,10.847-11.519c6.202-0.179,11.34,4.679,11.53,10.847
		c0.515,17.53,15.549,31.792,33.504,31.792h72.135c36.56,0,66.426-29.239,67.423-65.564h-114.92
		c-6.179,0-11.194-5.015-11.194-11.194s5.015-11.194,11.194-11.194h126.147C411.622,238.459,416.637,243.474,416.637,249.653z"/>
	<path style="fill:#663333;" d="M140.129,108.192c6.179,0,11.194,5.004,11.194,11.194c0,6.179-5.015,11.194-11.194,11.194
		c-6.19,0-11.194-5.015-11.194-11.194C128.935,113.196,133.939,108.192,140.129,108.192z"/>
</g>
<path style="fill:#FFCC66;" d="M71.385,155.028H34.612c-6.739,0-12.224-5.485-12.224-12.224c0-3.269,1.276-6.347,3.571-8.653
	c2.317-2.306,5.384-3.582,8.653-3.582h34.333c-0.112,1.702-0.201,3.414-0.201,5.138C68.744,142.401,69.673,148.872,71.385,155.028z"
	/>
<g>
</g>
<g>
</g>
<g>
</g>
<g>
</g>
<g>
</g>
<g>
</g>
<g>
</g>
<g>
</g>
<g>
</g>
<g>
</g>
<g>
</g>
<g>
</g>
<g>
</g>
<g>
</g>
<g>
</g>
</svg>
