<?xml version="1.0" encoding="iso-8859-1"?>
<!-- Generator: Adobe Illustrator 19.0.0, SVG Export Plug-In . SVG Version: 6.00 Build 0)  -->
<svg version="1.1" id="Layer_1" xmlns="http://www.w3.org/2000/svg" xmlns:xlink="http://www.w3.org/1999/xlink" x="0px" y="0px"
	 viewBox="0 0 511.491 511.491" style="enable-background:new 0 0 511.491 511.491;" xml:space="preserve">
<path style="fill:#663333;" d="M511.491,200.027v192.397c0,5.621-4.552,10.182-10.182,10.182h-50.678
	c-5.152,0-9.5-3.859-10.111-8.981l-1.813-15.314h-32.512c-5.112,0-9.429-3.788-10.101-8.849l-4.857-36.697
	c-8.075,0.529-16.119,0.794-24.163,0.794c-20.049,0-40.078-1.65-60.463-4.938l-4.378,64.495c-0.367,5.346-4.806,9.49-10.162,9.49
	h-46.615c-5.295,0-9.704-4.063-10.142-9.337l-1.242-14.958h-33.062c-5.173,0-9.521-3.89-10.111-9.032l-10.172-88.954
	c-6.985,1.588-11.303,1.059-11.924,1.028c-6.211,18.216-16.791,34.468-30.374,46.432c-15.905,14.011-34.834,21.658-54.883,22.249
	c-19.194,0-40.373-7.342-55.138-21.23c-14.215-13.38-24.234-32.003-28.216-52.47c-0.591-3.065,0.204-6.211,2.189-8.614
	c1.986-2.423,4.928-3.808,8.064-3.808h23.328c3.961,0,7.535,2.199,9.317,5.743c6.955,13.868,16.445,22.137,25.375,22.137
	c10.356,0,21.19-10.966,28.287-28.633c4.328-10.793,6.669-41.789,6.863-42.573c1.314-61.818,52.002-111.701,114.125-111.701
	c0,0,73.986,1.935,215.715,9.857C477.187,121.185,511.491,156.212,511.491,200.027z M491.126,382.242V200.027
	c0-32.859-25.711-59.628-58.539-60.942c-0.041,0-0.081-0.01-0.112-0.01l-135.559-6.924c12.392,12.168,19.907,28.46,21.017,46.157
	c1.354,21.719-7.138,42.542-23.287,57.123l-35.934,32.451c-6.639,5.997-14.866,9.103-23.257,9.103c-5.03,0-10.111-1.11-14.958-3.381
	c-12.871-6.008-20.558-18.501-20.151-32.655l-0.407-17.677c-0.122-5.621,4.328-10.284,9.948-10.406
	c5.651-0.112,10.284,4.328,10.417,9.948l0.407,17.952c0,0.204,0,0.417-0.01,0.621c-0.224,6.059,2.912,11.201,8.411,13.767
	c5.488,2.566,11.455,1.68,15.956-2.383l35.934-32.451c11.516-10.406,17.565-25.263,16.608-40.75
	c-0.967-15.487-8.818-29.468-21.536-38.347l-9.083-6.364c-4.348-3.034-9.144-4.704-14.245-4.959
	c-0.071-0.01-35.007-0.652-35.007-0.652c-51.034,0-92.67,40.974-93.77,91.754c0.143,0.682-2.515,36.667-7.851,49.935
	c-10.488,26.128-28.307,41.728-47.654,41.728c-15.63,0-30.283-10.07-40.882-27.88H24.12c4.063,11.19,10.457,21.159,18.593,28.816
	c10.875,10.233,26.556,16.068,40.404,16.068c0.071,0,0.143,0,0.214-0.01c15.111-0.529,29.468-6.425,41.636-17.157
	c12.677-11.17,22.167-27.116,26.709-44.905c1.395-5.448,6.934-8.737,12.392-7.342c0,0,0.01,0,0.02,0
	c6.883,1.66,14.052,0.672,20.212-2.81c1.171-0.672,2.485-1.12,3.91-1.283c5.6-0.641,10.63,3.37,11.272,8.961l10.61,92.823h22.147
	l-5.967-63.365c-0.458-5.611,3.706-10.529,9.307-10.987c5.611-0.468,10.529,3.706,10.987,9.307l8.268,89.341h27.727l4.521-66.695
	l1.945-32.492c0.336-5.611,5.173-9.887,10.773-9.551c5.611,0.336,9.887,5.152,9.551,10.773l-1.426,23.929
	c30.843,5.132,60.769,6.283,91.224,3.523c10.213-0.927,20.66-2.342,31.148-4.185l-2.688-22.676
	c-0.662-5.58,3.319-10.651,8.91-11.313c5.58-0.662,10.651,3.33,11.313,8.91l11.852,99.778L491.126,382.242L491.126,382.242z
	 M436.284,357.947l-3.584-30.171c-7.087,1.232-14.164,2.291-21.159,3.126l3.574,27.045H436.284z"/>
<path style="fill:#B2ABAC;" d="M491.126,200.027v182.215h-31.443l-11.852-99.778c-0.662-5.58-5.733-9.571-11.313-8.91
	c-5.59,0.662-9.571,5.733-8.91,11.313l2.688,22.676c-10.488,1.843-20.935,3.258-31.148,4.185
	c-30.456,2.759-60.382,1.609-91.224-3.523l1.426-23.929c0.336-5.621-3.941-10.437-9.551-10.773
	c-5.6-0.336-10.437,3.941-10.773,9.551l-1.945,32.492l-4.521,66.695h-27.727l-8.268-89.341c-0.458-5.6-5.376-9.775-10.987-9.307
	c-5.6,0.458-9.765,5.376-9.307,10.987l5.967,63.365h-22.147l-10.61-92.823c-0.642-5.59-5.672-9.602-11.272-8.961
	c-1.426,0.163-2.739,0.611-3.91,1.283c-6.16,3.482-13.329,4.47-20.212,2.81c-0.01,0-0.02,0-0.02,0
	c-5.458-1.395-10.997,1.894-12.392,7.342c-4.541,17.789-14.031,33.734-26.709,44.905c-12.168,10.732-26.525,16.628-41.636,17.157
	c-0.071,0.01-0.143,0.01-0.214,0.01c-13.848,0-29.529-5.835-40.404-16.068c-8.136-7.657-14.53-17.626-18.593-28.816h3.462
	c10.6,17.809,25.252,27.88,40.882,27.88c19.347,0,37.166-15.599,47.654-41.728c5.336-13.268,7.993-49.252,7.851-49.935
	c1.1-50.78,42.736-91.754,93.77-91.754c0,0,34.936,0.641,35.007,0.652c5.101,0.255,9.897,1.924,14.245,4.959l9.083,6.364
	c12.718,8.879,20.569,22.86,21.536,38.347c0.957,15.487-5.091,30.344-16.608,40.75l-35.934,32.451
	c-4.501,4.063-10.468,4.949-15.956,2.383c-5.499-2.566-8.635-7.708-8.411-13.767c0.01-0.204,0.01-0.417,0.01-0.621l-0.407-17.952
	c-0.132-5.621-4.765-10.06-10.417-9.948c-5.621,0.122-10.07,4.786-9.948,10.406l0.407,17.677
	c-0.407,14.154,7.28,26.647,20.151,32.655c4.847,2.271,9.928,3.381,14.958,3.381c8.39,0,16.618-3.106,23.257-9.103l35.934-32.451
	c16.149-14.581,24.642-35.404,23.287-57.123c-1.11-17.697-8.625-33.989-21.017-46.157l135.559,6.924c0.031,0,0.071,0.01,0.112,0.01
	C465.416,140.399,491.126,167.169,491.126,200.027z M454.47,210.21c5.621,0,10.182-4.562,10.182-10.182
	c0-18.603-14.551-33.745-33.123-34.488c-0.031,0-0.061,0-0.092,0s-0.051-0.01-0.071-0.01l-61.471-3.136
	c-5.621-0.305-10.406,4.032-10.692,9.643c-0.285,5.621,4.032,10.406,9.653,10.692c0,0,61.828,3.157,61.858,3.157
	c7.616,0.305,13.573,6.517,13.573,14.143C444.287,205.648,448.849,210.21,454.47,210.21z M166.144,196.769
	c0-5.611-4.552-10.162-10.162-10.162c-5.621,0-10.172,4.552-10.172,10.162c0,5.621,4.552,10.172,10.172,10.172
	C161.593,206.941,166.144,202.39,166.144,196.769z"/>
<path style="fill:#663333;" d="M464.652,200.027c0,5.621-4.562,10.182-10.182,10.182s-10.182-4.562-10.182-10.182
	c0-7.627-5.957-13.838-13.573-14.143c-0.031,0-61.858-3.157-61.858-3.157c-5.621-0.285-9.938-5.071-9.653-10.692
	c0.285-5.611,5.071-9.948,10.692-9.643l61.471,3.136c0.02,0,0.041,0.01,0.071,0.01s0.061,0,0.092,0
	C450.101,166.283,464.652,181.424,464.652,200.027z"/>
<path style="fill:#B2ABAC;" d="M432.7,327.776l3.584,30.171h-21.169l-3.574-27.045C418.536,330.067,425.613,329.008,432.7,327.776z"
	/>
<g>
	<path style="fill:#663333;" d="M155.982,186.607c5.611,0,10.162,4.552,10.162,10.162c0,5.621-4.552,10.172-10.162,10.172
		c-5.621,0-10.172-4.552-10.172-10.172C145.81,191.159,150.361,186.607,155.982,186.607z"/>
	<path style="fill:#663333;" d="M83.544,350.035C84.4,350.035,82.75,350.228,83.544,350.035L83.544,350.035z"/>
</g>
<g>
</g>
<g>
</g>
<g>
</g>
<g>
</g>
<g>
</g>
<g>
</g>
<g>
</g>
<g>
</g>
<g>
</g>
<g>
</g>
<g>
</g>
<g>
</g>
<g>
</g>
<g>
</g>
<g>
</g>
</svg>
