<?xml version="1.0" encoding="iso-8859-1"?>
<!-- Generator: Adobe Illustrator 19.0.0, SVG Export Plug-In . SVG Version: 6.00 Build 0)  -->
<svg version="1.1" id="Layer_1" xmlns="http://www.w3.org/2000/svg" xmlns:xlink="http://www.w3.org/1999/xlink" x="0px" y="0px"
	 viewBox="0 0 511.486 511.486" style="enable-background:new 0 0 511.486 511.486;" xml:space="preserve">
<path style="fill:#663333;" d="M511.14,168.773c1.018,3.826-0.257,7.889-3.271,10.461c-23.472,20.016-36.936,49.166-36.936,79.992
	c0,30.816,13.464,59.976,36.936,79.992c3.014,2.561,4.289,6.634,3.271,10.45c-1.008,3.826-4.125,6.737-8.013,7.478
	c-6.027,1.152-12.261,1.738-18.545,1.738c-33.079,0-63.432-16.169-81.916-42.902c-5.133,3.981-10.79,7.766-16.93,11.345v0.37
	c0,30.898-25.128,56.026-56.026,56.026c-18.401,0-35.321-8.907-45.741-23.657c-6.171,0.926-12.425,1.728-18.741,2.397l-0.072,4.176
	c-0.154,8.619-3.651,16.663-9.854,22.66c-6.069,5.853-13.999,9.062-22.402,9.062h-0.586c-30.425-0.525-58.444-14.256-77.544-37.841
	c-21.754-3.096-42.223-7.755-60.861-13.906C34.231,326.968,0,295.113,0,259.226c0-21.405,12.405-41.801,35.866-58.978
	c20.757-15.202,49.67-27.504,83.695-35.661c40.567-33.902,103.557-53.064,169.283-51.357c32.688,0.854,57.827,19.831,57.22,43.21
	l-0.432,16.725c22.845,7.899,42.233,17.877,57.024,29.314c18.483-26.743,48.837-42.912,81.926-42.912
	c6.285,0,12.518,0.576,18.545,1.728C507.016,162.046,510.132,164.947,511.14,168.773z M450.362,259.226
	c0-28.954,9.936-56.674,27.802-78.83c-27.103,2.17-51.182,18.051-63.854,42.511c-0.072,0.165-1.131,1.8-1.718,2.407
	c-3.939,4.094-10.45,4.217-14.544,0.278c-14.575-14.03-37.389-26.218-65.993-35.26c-33.624-10.625-73.142-16.231-114.264-16.231
	c-32.112,0-62.774,3.343-91.132,9.936c-3.878,0.895-7.663,1.851-11.376,2.849c32.236,42.634,32.256,102.035,0.041,144.669
	c14.513,3.939,30.045,7.015,46.368,9.175c18.175,2.397,37.049,3.621,56.098,3.621c23.945,0,47.376-1.903,69.655-5.657
	c48.528-8.167,88.838-24.871,110.603-45.833c4.083-3.95,10.594-3.826,14.534,0.267c0.566,0.576,1.029,1.203,1.419,1.862
	c0.103,0.165,0.206,0.329,0.309,0.545c0.021,0.031,0.041,0.072,0.062,0.103c0,0.01,0,0.01,0.01,0.01
	c12.682,24.398,36.72,40.228,63.782,42.408C460.298,315.89,450.362,288.17,450.362,259.226z M329.71,363.153
	c15.809,0,29.232-10.399,33.789-24.717c-16.395,7.046-35.085,12.878-55.543,17.27C314.055,360.448,321.656,363.153,329.71,363.153z
	 M325.503,155.905c0.257-9.998-14.956-21.538-37.193-22.114c-41.976-1.09-82.533,6.83-115.735,21.95
	c14.709-1.471,29.808-2.211,45.216-2.211c38.037,0,74.87,4.608,107.435,13.382L325.503,155.905z M244.585,366.28l0.041-2.139
	c-8.856,0.514-17.815,0.782-26.836,0.782c-9.761,0-19.492-0.319-29.119-0.926c12.847,8.661,28.008,13.515,44.002,13.793
	c3.137,0.041,6.079-1.111,8.331-3.291C243.258,372.328,244.533,369.407,244.585,366.28z M94.166,324.952
	c32.997-37.481,32.976-94.012-0.062-131.462c-45.556,16.21-73.533,40.567-73.533,65.736
	C20.572,284.169,47.952,308.494,94.166,324.952z"/>
<path style="fill:#4EC8D8;" d="M478.164,180.396c-17.866,22.156-27.802,49.876-27.802,78.83c0,28.944,9.936,56.664,27.802,78.83
	c-27.062-2.181-51.1-18.01-63.782-42.408c-0.01,0-0.01,0-0.01-0.01c-0.021-0.031-0.041-0.072-0.062-0.103
	c-0.103-0.216-0.206-0.381-0.309-0.545c-0.391-0.658-0.854-1.286-1.419-1.862c-3.939-4.094-10.45-4.217-14.534-0.267
	c-21.765,20.962-62.074,37.666-110.603,45.833c-22.279,3.754-45.71,5.657-69.655,5.657c-19.049,0-37.924-1.224-56.098-3.621
	c-16.323-2.16-31.855-5.235-46.368-9.175c32.215-42.634,32.194-102.035-0.041-144.669c3.713-0.998,7.498-1.954,11.376-2.849
	c28.358-6.593,59.02-9.936,91.132-9.936c41.122,0,80.64,5.606,114.264,16.231c28.605,9.041,51.418,21.23,65.993,35.26
	c4.094,3.939,10.605,3.816,14.544-0.278c0.586-0.607,1.646-2.242,1.718-2.407C426.982,198.447,451.061,182.566,478.164,180.396z
	 M330.399,229.716c1.707-5.41-1.296-11.191-6.706-12.898c-30.96-9.782-67.577-14.945-105.902-14.945
	c-5.678,0-10.286,4.598-10.286,10.286c0,5.678,4.608,10.286,10.286,10.286c36.247,0,70.725,4.834,99.7,13.989
	c1.039,0.319,2.078,0.473,3.106,0.473C324.958,236.906,329.01,234.108,330.399,229.716z"/>
<path style="fill:#92E4EA;" d="M363.498,338.436c-4.557,14.318-17.979,24.717-33.789,24.717c-8.054,0-15.655-2.705-21.754-7.447
	C328.414,351.314,347.103,345.482,363.498,338.436z"/>
<path style="fill:#663333;" d="M323.693,216.818c5.41,1.707,8.414,7.488,6.706,12.898c-1.389,4.392-5.441,7.19-9.802,7.19
	c-1.029,0-2.067-0.154-3.106-0.473c-28.975-9.154-63.453-13.989-99.7-13.989c-5.678,0-10.286-4.608-10.286-10.286
	c0-5.688,4.608-10.286,10.286-10.286C256.115,201.872,292.733,207.036,323.693,216.818z"/>
<g>
	<path style="fill:#92E4EA;" d="M288.31,133.791c22.238,0.576,37.45,12.117,37.193,22.114l-0.278,11.006
		c-32.565-8.774-69.398-13.382-107.435-13.382c-15.408,0-30.508,0.741-45.216,2.211C205.777,140.621,246.333,132.701,288.31,133.791
		z"/>
	<path style="fill:#92E4EA;" d="M244.626,364.14l-0.041,2.139c-0.051,3.127-1.327,6.048-3.579,8.218
		c-2.253,2.181-5.194,3.333-8.331,3.291c-15.994-0.278-31.156-5.133-44.002-13.793c9.627,0.607,19.358,0.926,29.119,0.926
		C226.811,364.922,235.77,364.655,244.626,364.14z"/>
	<path style="fill:#92E4EA;" d="M94.104,193.489c33.038,37.45,33.058,93.981,0.062,131.462
		c-46.214-16.457-73.595-40.783-73.595-65.726C20.572,234.056,48.549,209.7,94.104,193.489z M92.49,243.787
		c0-6.552-5.307-11.859-11.859-11.859s-11.859,5.307-11.859,11.859c0,6.552,5.307,11.859,11.859,11.859S92.49,250.339,92.49,243.787
		z"/>
</g>
<circle style="fill:#663333;" cx="80.63" cy="243.783" r="11.859"/>
<g>
</g>
<g>
</g>
<g>
</g>
<g>
</g>
<g>
</g>
<g>
</g>
<g>
</g>
<g>
</g>
<g>
</g>
<g>
</g>
<g>
</g>
<g>
</g>
<g>
</g>
<g>
</g>
<g>
</g>
</svg>
