<?xml version="1.0" encoding="iso-8859-1"?>
<!-- Generator: Adobe Illustrator 19.0.0, SVG Export Plug-In . SVG Version: 6.00 Build 0)  -->
<svg version="1.1" id="Layer_1" xmlns="http://www.w3.org/2000/svg" xmlns:xlink="http://www.w3.org/1999/xlink" x="0px" y="0px"
	 viewBox="0 0 511.42 511.42" style="enable-background:new 0 0 511.42 511.42;" xml:space="preserve">
<path style="fill:#663333;" d="M499.814,154.863c6.407,0,11.606,5.2,11.606,11.606c0,6.418-5.2,11.606-11.606,11.606h-43.953v60.654
	c0,94.673-65.924,174.222-154.271,195.183v46.588h15.529c6.407,0,11.606,5.2,11.606,11.606c0,6.418-5.2,11.606-11.606,11.606H200.87
	c-6.407,0-11.606-5.188-11.606-11.606c0-6.407,5.2-11.606,11.606-11.606h32.579v-42.375c-93.315-10.144-167.618-84.54-177.6-177.901
	h-4.677c-13.893,0-25.778-10.852-27.646-25.232c-0.058-0.441-0.093-0.894-0.093-1.346v-35.086c-6.128-2.89-11.92-6.511-17.224-10.84
	c-3.935-3.203-6.198-7.95-6.209-13.022c-0.023-5.037,2.194-9.761,6.07-12.964c14.044-11.606,31.476-18.222,49.64-18.93
	c2.147-13.87,7.672-26.903,16.144-38.115c-9.807-6.627-16.26-17.862-16.26-30.559c0-20.334,16.539-36.873,36.862-36.873
	c0.012,0,0.012,0,0.012,0c5.745-17.142,21.982-29.55,40.982-29.55c23.805,0,43.187,19.371,43.187,43.187
	c0,9.088-2.902,17.63-7.846,24.698c33.043,11.804,56.755,43.408,56.755,80.455v58.774h138.37c0,0,0,0,0.012,0
	c37.871,0,68.698-21.669,68.721-48.305v-55.559c0-6.407,5.2-11.606,11.606-11.606c6.407,0,11.606,5.2,11.606,11.606v27.495
	l19.441-19.441c4.538-4.526,11.885-4.526,16.411,0c4.538,4.538,4.538,11.885,0,16.423l-19.429,19.429L499.814,154.863
	L499.814,154.863z M432.648,238.73v-24.594c-1.59,1.381-3.227,2.739-4.967,4.039c-17.154,12.802-39.786,19.847-63.742,19.858
	H155.594c-6.407,0-11.606-5.2-11.606-11.606c0-6.418,5.2-11.606,11.606-11.606h46.739v-58.774c0-34.308-27.913-62.21-62.221-62.21
	c-16.609,0-32.231,6.476-43.988,18.222c-9.831,9.819-15.959,22.389-17.688,35.979c9.03,6.082,13.637,16.574,13.591,26.869
	c-0.058,10.376-4.875,20.891-14.125,26.845v13.127h21.82c6.418,0,11.606,5.2,11.606,11.606c0,6.418-5.188,11.606-11.606,11.606
	h-21.82v0.638c0,97.574,81.116,177.379,177.379,177.379C353.075,416.109,432.648,336.536,432.648,238.73z M278.377,480.501v-42.525
	c-7.126,0.824-14.38,1.277-21.715,1.323v41.202H278.377z M136.386,70.659c9.714-1.428,17.038-9.923,17.038-19.766
	c0-11.014-8.96-19.974-19.974-19.974c-10.945,0-19.905,8.902-19.986,19.835c-0.023,3.853-1.95,7.428-5.153,9.564
	c-3.192,2.147-7.242,2.553-10.805,1.114c-1.59-0.638-3.285-0.963-5.049-0.963c-7.532,0-13.649,6.128-13.649,13.661
	c0,6.43,4.457,11.815,10.457,13.266C112.953,70.009,136.281,70.671,136.386,70.659z M68.814,174.779c0-2.02-0.569-8.647-8.438-8.832
	c-11.49-0.267-22.806,2.786-32.521,8.693c9.726,5.873,20.949,8.96,32.498,8.821C62.883,183.426,68.767,182.521,68.814,174.779z
	 M54.701,239.333c0-0.209-0.012-32.811-0.012-32.811c-3.482-0.197-6.952-0.615-10.364-1.242v27.565
	c0.708,3.679,3.633,6.488,6.848,6.488L54.701,239.333L54.701,239.333z"/>
<path style="fill:#F9DCB2;" d="M432.648,214.136v24.594c0,97.806-79.573,177.379-177.367,177.379
	c-96.263,0-177.379-79.805-177.379-177.379v-0.638h21.82c6.418,0,11.606-5.188,11.606-11.606c0-6.407-5.188-11.606-11.606-11.606
	h-21.82v-13.127c9.25-5.954,14.067-16.469,14.125-26.845c0.046-10.295-4.561-20.787-13.591-26.869
	c1.729-13.591,7.857-26.161,17.688-35.98c11.757-11.746,27.379-18.222,43.988-18.222c34.308,0,62.221,27.902,62.221,62.21v58.774
	h-46.739c-6.407,0-11.606,5.188-11.606,11.606c0,6.407,5.2,11.606,11.606,11.606h208.345c23.955-0.012,46.588-7.057,63.742-19.858
	C429.421,216.875,431.058,215.517,432.648,214.136z M343.732,319.011c22.423-9.703,32.765-35.817,23.073-58.24
	c-2.542-5.884-9.366-8.589-15.262-6.047c-5.873,2.542-8.589,9.378-6.047,15.262c4.619,10.666-0.302,23.096-10.98,27.716
	c-3.296,1.428-6.778,1.961-10.225,1.66c-1.381-4.759-5.734-8.264-10.956-8.357c-6.349-0.104-11.688,5.014-11.78,11.421
	c-0.464,29.294-24.443,52.809-53.633,52.809c-0.29,0,0-0.093-0.29-0.104c-29.573-0.464-53.261-24.907-52.785-54.492
	c0.104-6.407-5.014-11.688-11.421-11.78c-6.383-0.128-11.792,5.002-11.792,11.421c0,79.236,75.882,78.168,76.288,78.168
	c35.051,0,64.833-23.665,73.955-56.012c1.416,0.128,2.844,0.209,4.26,0.209C332.126,322.643,338.126,321.436,343.732,319.011z
	 M137.314,141.318c0-6.407-5.188-11.606-11.606-11.606c-6.407,0-11.606,5.2-11.606,11.606c0,6.418,5.2,11.606,11.606,11.606
	C132.126,152.925,137.314,147.737,137.314,141.318z"/>
<path style="fill:#663333;" d="M366.805,260.77c9.691,22.423-0.65,48.538-23.073,58.24c-5.606,2.426-11.606,3.633-17.595,3.633
	c-1.416,0-2.844-0.081-4.26-0.209c-9.123,32.347-38.904,56.012-73.955,56.012c-0.406,0-76.288,1.068-76.288-78.168
	c0-6.418,5.409-11.548,11.792-11.421c6.407,0.093,11.525,5.374,11.421,11.78c-0.476,29.584,23.213,54.027,52.785,54.492
	c0.29,0.012,0,0.104,0.29,0.104c29.19,0,53.168-23.514,53.633-52.809c0.093-6.407,5.432-11.525,11.78-11.421
	c5.223,0.093,9.575,3.598,10.956,8.357c3.447,0.302,6.929-0.232,10.225-1.66c10.678-4.619,15.599-17.05,10.98-27.716
	c-2.542-5.884,0.174-12.721,6.047-15.262C357.439,252.182,364.264,254.886,366.805,260.77z"/>
<path style="fill:#FE6865;" d="M153.424,50.894c0,9.842-7.324,18.338-17.038,19.766c-0.104,0.012-23.433-0.65-47.122,16.736
	c-6-1.451-10.457-6.836-10.457-13.266c0-7.532,6.117-13.661,13.649-13.661c1.764,0,3.459,0.325,5.049,0.963
	c3.563,1.439,7.614,1.033,10.805-1.114c3.203-2.136,5.13-5.71,5.153-9.564c0.081-10.933,9.041-19.835,19.986-19.835
	C144.464,30.919,153.424,39.879,153.424,50.894z"/>
<path style="fill:#663333;" d="M125.708,129.712c6.418,0,11.606,5.2,11.606,11.606c0,6.418-5.188,11.606-11.606,11.606
	c-6.407,0-11.606-5.188-11.606-11.606C114.102,134.912,119.301,129.712,125.708,129.712z"/>
<path style="fill:#FFCC66;" d="M60.376,165.947c7.869,0.186,8.438,6.813,8.438,8.832c-0.046,7.741-5.931,8.647-8.461,8.682
	c-11.548,0.139-22.772-2.948-32.498-8.821C37.57,168.732,48.886,165.68,60.376,165.947z"/>
<path style="fill:#FE6865;" d="M54.689,206.522c0,0,0.012,32.602,0.012,32.811h-3.528c-3.215,0-6.14-2.809-6.848-6.488v-27.565
	C47.737,205.907,51.207,206.325,54.689,206.522z"/>
<g>
</g>
<g>
</g>
<g>
</g>
<g>
</g>
<g>
</g>
<g>
</g>
<g>
</g>
<g>
</g>
<g>
</g>
<g>
</g>
<g>
</g>
<g>
</g>
<g>
</g>
<g>
</g>
<g>
</g>
</svg>
