<?xml version="1.0" encoding="iso-8859-1"?>
<!-- Generator: Adobe Illustrator 19.0.0, SVG Export Plug-In . SVG Version: 6.00 Build 0)  -->
<svg version="1.1" id="Layer_1" xmlns="http://www.w3.org/2000/svg" xmlns:xlink="http://www.w3.org/1999/xlink" x="0px" y="0px"
	 viewBox="0 0 511.469 511.469" style="enable-background:new 0 0 511.469 511.469;" xml:space="preserve">
<path style="fill:#663333;" d="M504.95,163.83c7.106,7.415,8.553,18.436,3.596,27.436c0,0-5.543,10.245-13.723,18.426
	c-7.851,7.84-18.351,13.628-18.798,13.862c0.223,1.979,0.351,3.968,0.351,5.968c0,30.16-24.532,54.681-54.681,54.681h-51.171
	c-0.574,7.883-2.67,15.511-6.17,22.479v47.362c5.926,5.617,9.33,13.404,9.33,21.745c0,8.585-6.989,15.564-15.564,15.564h-22.862
	c0.202,1.404,0.309,2.83,0.309,4.277c0,8.585-6.979,15.564-15.564,15.564h-59.766c-12.16,0-22.053-9.894-22.053-22.053v-49.245
	H196.65v14.149c5.915,5.617,9.319,13.404,9.319,21.745c0,8.585-6.979,15.564-15.564,15.564h-22.872
	c0.202,1.404,0.319,2.83,0.319,4.277c0,8.585-6.979,15.564-15.553,15.564H92.533c-12.16,0-22.053-9.894-22.053-22.053v-59.894
	c-14.702-10.149-24.16-26.266-25.713-44.224c-0.011-0.053-0.064-47.894-0.064-47.894c0-2.83,0.128-5.649,0.383-8.468
	c-10.394,1.415-18.436,10.319-18.436,21.107v13.436c3.862,3.032,6.362,7.723,6.362,13v5.755c0,9.096-7.404,16.5-16.5,16.5
	c-9.106,0-16.511-7.404-16.511-16.5v-5.755c0-5.277,2.5-9.968,6.372-13v-13.436c0-22.947,18.66-41.607,41.596-41.607h1.33
	c5.606-17.138,16.192-32.532,30.373-43.958c16.564-13.341,37.394-20.692,58.649-20.692h115.426
	c14.596-13.862,34.16-21.745,54.341-21.745c3.787,0,7.543,0.266,11.234,0.787c6.638-8.064,15.564-14.192,25.841-17.362
	c7.766-2.394,15.979-3.011,23.968-1.819c4.394-1.553,8.979-2.543,13.628-2.915c9.17-0.755,18.426,0.862,26.755,4.649
	c3.67,1.66,6,5.34,5.936,9.372c-0.064,4.032-2.5,7.649-6.213,9.202c-5.904,2.479-10.958,6.596-14.596,11.777
	c1.936,1.181,3.819,2.447,5.628,3.83c0.064,0.053,40.107,34.277,40.107,34.277c7.383-3.287,14.223-0.755,21.415-3.628
	c6.011-2.415,10.16-6.766,10.16-6.766C481.237,154.255,496.035,154.553,504.95,163.83z M490.79,181.479
	c0.521-0.947,0.596-2.489-0.468-3.606c-1.17-1.213-3.106-1.245-4.33-0.085c0,0-6.5,7.064-16.511,10.904
	c-8.787,3.372-21.202,3.574-21.638,3.723c-2.447,0.84-4.415,2.585-5.553,4.904c-1.128,2.319-1.298,4.947-0.457,7.383
	c0.84,2.447,2.585,4.415,4.904,5.553c2.319,1.138,4.947,1.298,7.394,0.457c0,0,12.043-3.521,20.787-10.543
	c11.766-9.447,15.862-18.681,15.862-18.681S490.78,181.489,490.79,181.479z M456.056,231.085c-1.691,0.287-3.394,0.447-5.096,0.447
	c-4.5,0-8.968-1.032-13.128-3.064c-7.181-3.511-12.575-9.606-15.17-17.17s-2.096-15.692,1.415-22.883
	c0.245-0.489,0.5-0.979,0.766-1.457c0,0-35.468-30.468-36.787-31.468c-0.064-0.053-0.117-0.106-0.181-0.149
	c-3.245-2.457-6.819-4.468-10.617-5.957l0.011-0.011c-5.096-2-7.702-7.702-5.83-12.872c2-5.521,4.872-10.638,8.447-15.16
	c-1.436,0.319-2.851,0.723-4.234,1.223c-0.117,0.043-0.223,0.064-0.33,0.106c-7.298,5.447-12.128,13.692-13.309,22.766
	c-0.723,5.553-5.809,9.468-11.362,8.745c-5.553-0.713-9.468-5.809-8.745-11.351c0.755-5.819,2.447-11.436,4.957-16.628
	c-9.447,4.404-16.489,13.011-18.809,23.351c-1.064,4.723-5.245,7.926-9.883,7.926c-0.734,0-1.489-0.085-2.234-0.255
	c-5.457-1.223-8.894-6.649-7.67-12.106c0.234-1.032,0.766-3.17,0.447-3.17c-8.17,0-16.202,1.67-23.596,4.84
	c-7.404,3.16-14.149,7.819-19.766,13.798c-1.851,1.968-4.479,3.202-7.394,3.202H138.32c-16.883,0-32.777,5.606-45.936,16.213
	c-12.787,10.298-21.862,24.713-25.532,40.585c-1.245,5.404-1.872,10.968-1.872,16.543v46.234
	c1.16,13.213,8.819,24.915,20.521,31.351c3.245,1.787,5.255,5.192,5.255,8.883v65.543c0,0.979,0.798,1.777,1.777,1.777h53.819
	c-0.787-1.415-1.936-2.638-3.372-3.543c-2.947-1.862-4.734-5.096-4.734-8.585v-49.032c0-5.596,4.532-10.138,10.138-10.138h99.937
	c5.606,0,10.138,4.543,10.138,10.138v59.383c0,0.979,0.798,1.777,1.777,1.777h53.83c-0.787-1.415-1.947-2.638-3.383-3.543
	c-2.947-1.862-4.734-5.096-4.734-8.585v-49.341c0-5.17,3.894-9.511,9.032-10.075c9.489-1.043,18.298-5.489,24.819-12.521
	c6.851-7.383,10.628-17,10.628-27.075v-5.713c0-2.798,1.138-5.33,2.968-7.17c1.83-1.83,4.362-2.968,7.17-2.968h61.128
	C440.141,263.926,455.237,249.33,456.056,231.085z M326.225,371.076h25.958c-0.787-1.415-1.936-2.649-3.372-3.543
	c-2.947-1.862-4.734-5.096-4.734-8.585v-29.266c-5.457,3.67-11.489,6.426-17.851,8.138L326.225,371.076L326.225,371.076z
	 M158.522,371.076h25.958c-0.787-1.415-1.936-2.649-3.372-3.543c-2.957-1.862-4.734-5.096-4.734-8.585v-19.053h-17.851V371.076z"/>
<path style="fill:#F9DCB2;" d="M490.322,177.872c1.064,1.117,0.989,2.66,0.468,3.606c-0.011,0.011-0.011,0.011-0.011,0.011
	s-4.096,9.234-15.862,18.681c-8.745,7.021-20.787,10.543-20.787,10.543c-2.447,0.84-5.074,0.681-7.394-0.457
	s-4.064-3.106-4.904-5.553c-0.84-2.436-0.67-5.064,0.457-7.383c1.138-2.319,3.106-4.064,5.553-4.904
	c0.436-0.149,12.851-0.351,21.638-3.723c10.011-3.84,16.511-10.904,16.511-10.904C487.216,176.628,489.152,176.66,490.322,177.872z"
	/>
<path style="fill:#D2CDCE;" d="M450.96,231.532c1.702,0,3.404-0.16,5.096-0.447c-0.819,18.245-15.915,32.841-34.362,32.841h-61.128
	c-2.809,0-5.34,1.138-7.17,2.968c-1.83,1.84-2.968,4.372-2.968,7.17v5.713c0,10.075-3.777,19.692-10.628,27.075
	c-6.521,7.032-15.33,11.479-24.819,12.521c-5.138,0.564-9.032,4.904-9.032,10.075v49.341c0,3.489,1.787,6.723,4.734,8.585
	c1.436,0.904,2.596,2.128,3.383,3.543h-53.83c-0.979,0-1.777-0.798-1.777-1.777v-59.383c0-5.596-4.532-10.138-10.138-10.138h-99.937
	c-5.606,0-10.138,4.543-10.138,10.138v49.032c0,3.489,1.787,6.723,4.734,8.585c1.436,0.904,2.585,2.128,3.372,3.543h-53.82
	c-0.979,0-1.777-0.798-1.777-1.777v-65.543c0-3.692-2.011-7.096-5.255-8.883c-11.702-6.436-19.362-18.138-20.521-31.351v-46.234
	c0-5.575,0.628-11.138,1.872-16.543c3.67-15.872,12.745-30.287,25.532-40.585c13.16-10.606,29.053-16.213,45.936-16.213h119.639
	c2.915,0,5.543-1.234,7.394-3.202c5.617-5.979,12.362-10.638,19.766-13.798c7.394-3.17,15.426-4.84,23.596-4.84
	c0.319,0-0.213,2.138-0.447,3.17c-1.223,5.457,2.213,10.883,7.67,12.106c0.745,0.17,1.5,0.255,2.234,0.255
	c4.638,0,8.819-3.202,9.883-7.926c2.319-10.34,9.362-18.947,18.809-23.351c-2.511,5.192-4.202,10.809-4.957,16.628
	c-0.723,5.543,3.192,10.638,8.745,11.351c5.553,0.723,10.638-3.192,11.362-8.745c1.181-9.075,6.011-17.319,13.309-22.766
	c0.106-0.043,0.213-0.064,0.33-0.106c1.383-0.5,2.798-0.904,4.234-1.223c-3.574,4.521-6.447,9.638-8.447,15.16
	c-1.872,5.17,0.734,10.872,5.83,12.872l-0.011,0.011c3.798,1.489,7.372,3.5,10.617,5.957c0.064,0.043,0.117,0.096,0.181,0.149
	c1.319,1,36.787,31.468,36.787,31.468c-0.266,0.479-0.521,0.968-0.766,1.457c-3.511,7.192-4.011,15.319-1.415,22.883
	s7.989,13.66,15.17,17.17C441.992,230.5,446.46,231.532,450.96,231.532z M387.875,196.404c0-5.915-4.798-10.713-10.713-10.713
	c-5.926,0-10.723,4.798-10.723,10.713c0,5.926,4.798,10.723,10.723,10.723C383.077,207.128,387.875,202.33,387.875,196.404z
	 M148.458,201.298c0-5.596-4.532-10.138-10.138-10.138c-21.181,0-40.022,14.979-44.798,35.607
	c-1.266,5.457,2.138,10.894,7.585,12.16c0.777,0.181,1.543,0.266,2.298,0.266c4.617,0,8.787-3.17,9.872-7.851
	c2.67-11.532,13.202-19.904,25.043-19.904C143.926,211.436,148.458,206.904,148.458,201.298z"/>
<path style="fill:#663333;" d="M377.162,185.691c5.915,0,10.713,4.798,10.713,10.713c0,5.926-4.798,10.723-10.713,10.723
	c-5.926,0-10.723-4.798-10.723-10.723C366.438,190.489,371.236,185.691,377.162,185.691z"/>
<g>
	<path style="fill:#D2CDCE;" d="M352.183,371.076h-25.958V337.82c6.362-1.713,12.394-4.468,17.851-8.138v29.266
		c0,3.489,1.787,6.723,4.734,8.585C350.247,368.427,351.396,369.661,352.183,371.076z"/>
	<path style="fill:#D2CDCE;" d="M184.48,371.076h-25.958v-31.181h17.851v19.053c0,3.489,1.777,6.723,4.734,8.585
		C182.544,368.427,183.693,369.661,184.48,371.076z"/>
</g>
<path style="fill:#663333;" d="M138.32,191.16c5.606,0,10.138,4.543,10.138,10.138c0,5.606-4.532,10.138-10.138,10.138
	c-11.84,0-22.372,8.372-25.043,19.904c-1.085,4.681-5.255,7.851-9.872,7.851c-0.755,0-1.521-0.085-2.298-0.266
	c-5.447-1.266-8.851-6.702-7.585-12.16C98.298,206.138,117.139,191.16,138.32,191.16z"/>
<g>
</g>
<g>
</g>
<g>
</g>
<g>
</g>
<g>
</g>
<g>
</g>
<g>
</g>
<g>
</g>
<g>
</g>
<g>
</g>
<g>
</g>
<g>
</g>
<g>
</g>
<g>
</g>
<g>
</g>
</svg>
