<?xml version="1.0" encoding="iso-8859-1"?>
<!-- Generator: Adobe Illustrator 19.0.0, SVG Export Plug-In . SVG Version: 6.00 Build 0)  -->
<svg version="1.1" id="Layer_1" xmlns="http://www.w3.org/2000/svg" xmlns:xlink="http://www.w3.org/1999/xlink" x="0px" y="0px"
	 viewBox="0 0 511.474 511.474" style="enable-background:new 0 0 511.474 511.474;" xml:space="preserve">
<path style="fill:#663333;" d="M511.401,188.655c0.042,0.82,0.074,42.849,0.074,42.849c0,27.199-22.129,49.328-49.328,49.328
	c-10.739,0-20.888-3.429-29.187-9.529c-8.046,23.402-24.296,43.154-46.109,55.659c3.303,15.272,4.796,29.502-2.608,41.261
	c-5.869,9.287-16.355,15.44-32.068,18.795c-5.606,1.199-10.76,1.809-15.482,1.809c-8.488,0-15.587-1.956-21.467-5.869
	c-12.285-8.172-16.544-23.002-19.836-39.431H179.863c-25.747,0-50.19-7.341-71.352-21.33
	c-11.633,17.323-28.387,27.356-46.488,27.356c-17.207,0-33.152-8.908-44.91-25.095C6.079,309.272,0,289.246,0,268.085
	c0-21.172,6.079-41.198,17.112-56.385c11.759-16.187,27.704-25.106,44.91-25.106c17.217,0,33.404,9.245,44.974,25.221
	c30.207-23.37,63.579-41.85,99.413-54.965c39.883-14.588,81.796-22.15,124.624-22.518c11.317-7.657,24.464-11.685,38.242-11.685
	h73.697c17.88,0,34.803,6.858,47.645,19.289C503.386,154.326,510.769,170.912,511.401,188.655z M490.786,231.504
	c0,0-0.053-41.923-0.053-42.018c-0.883-25.873-21.856-46.141-47.761-46.141h-73.697c-10.434,0-20.373,3.313-28.703,9.571
	l-0.011-0.011c-1.725,1.304-3.87,2.082-6.205,2.082c-41.555,0-82.217,7.173-120.827,21.309
	c-37.338,13.652-71.867,33.457-102.631,58.878c0,0-1.199,0.883-1.883,1.231c-5.091,2.598-11.317,0.589-13.925-4.502
	c-7.878-15.408-20.236-24.611-33.068-24.611c-10.402,0-20.404,5.879-28.166,16.565c-8.488,11.685-13.168,27.388-13.168,44.227
	c0,16.828,4.68,32.531,13.168,44.216c7.762,10.675,17.764,16.565,28.166,16.565c13.378,0,26.052-9.823,33.888-26.273
	c2.451-5.164,8.635-7.352,13.789-4.891c0.736,0.347,1.399,0.778,2.009,1.262c19.531,15.619,43.101,23.875,68.154,23.875H291.36
	c0-0.011-0.011-0.021-0.011-0.032c-3.429-16.082-3.723-31.911-0.841-45.783c1.167-5.595,6.647-9.192,12.243-8.025
	c5.595,1.157,9.182,6.637,8.025,12.232c-2.272,10.928-1.988,24.159,0.81,37.243c0.978,4.575,1.809,9.003,2.619,13.284
	c2.955,15.734,5.511,29.334,12.484,33.972c4.207,2.798,11.328,3.155,21.162,1.052c9.834-2.104,16.187-5.332,18.879-9.603
	c4.47-7.089,1.241-20.541-2.493-36.107c-1.01-4.239-2.061-8.614-3.04-13.189c-2.798-13.095-7.941-25.284-14.483-34.33
	c-3.345-4.628-2.303-11.107,2.324-14.451c4.628-3.345,11.285-2.43,14.451,2.324c14.441,21.656,18.259,43.522,18.416,44.227
	c18.574-12.6,31.206-32.184,34.887-54.639c-2.703-6.184-4.112-12.884-4.112-19.752c0-2.745,0.231-5.511,0.684-8.204
	c0.936-5.627,6.269-9.434,11.906-8.488c5.637,0.936,8.498,6.195,8.498,11.917c0,9.34,4.081,20.141,4.239,20.394
	c5.248,8.235,14.262,13.263,24.138,13.263C477.944,260.144,490.786,247.291,490.786,231.504z"/>
<path style="fill:#4EC8D8;" d="M490.733,189.486c0,0.095,0.053,42.018,0.053,42.018c0,15.787-12.842,28.64-28.64,28.64
	c-9.876,0-18.89-5.027-24.138-13.263c-0.158-0.252-4.239-11.054-4.239-20.394c0-5.722-2.861-10.98-8.498-11.917
	c-5.637-0.947-10.97,2.861-11.906,8.488c-0.452,2.693-0.684,5.459-0.684,8.204c0,6.868,1.409,13.568,4.112,19.752
	c-3.681,22.455-16.313,42.039-34.887,54.639c-0.158-0.705-3.976-22.571-18.416-44.227c-3.166-4.754-9.823-5.669-14.451-2.324
	c-4.628,3.345-5.669,9.823-2.324,14.451c6.542,9.045,11.685,21.235,14.483,34.33c0.978,4.575,2.03,8.951,3.04,13.189
	c3.734,15.566,6.963,29.018,2.493,36.107c-2.693,4.27-9.045,7.499-18.879,9.603c-9.834,2.104-16.954,1.746-21.162-1.052
	c-6.973-4.638-9.529-18.238-12.484-33.972c-0.81-4.281-1.641-8.709-2.619-13.284c-2.798-13.084-3.082-26.315-0.81-37.243
	c1.157-5.595-2.43-11.075-8.025-12.232c-5.595-1.167-11.075,2.43-12.243,8.025c-2.882,13.873-2.587,29.702,0.841,45.783
	c0,0.011,0.011,0.021,0.011,0.032H179.863c-25.053,0-48.623-8.256-68.154-23.875c-0.61-0.484-1.273-0.915-2.009-1.262
	c-5.154-2.461-11.338-0.273-13.789,4.891c-7.836,16.45-20.509,26.273-33.888,26.273c-10.402,0-20.404-5.89-28.166-16.565
	c-8.488-11.685-13.168-27.388-13.168-44.216c0-16.839,4.68-32.542,13.168-44.227c7.762-10.686,17.764-16.565,28.166-16.565
	c12.832,0,25.19,9.203,33.068,24.611c2.608,5.091,8.835,7.099,13.925,4.502c0.684-0.347,1.883-1.231,1.883-1.231
	c30.764-25.421,65.294-45.226,102.631-58.878c38.61-14.136,79.272-21.309,120.827-21.309c2.335,0,4.481-0.778,6.205-2.083
	l0.011,0.011c8.33-6.258,18.269-9.571,28.703-9.571h73.697C468.878,143.345,489.85,163.613,490.733,189.486z M436.977,166.021
	c0-6.553-5.301-11.853-11.853-11.853c-6.553,0-11.864,5.301-11.864,11.853c0,6.553,5.311,11.864,11.864,11.864
	C431.677,177.885,436.977,172.574,436.977,166.021z M289.551,204.59c5.637-0.894,9.487-6.205,8.582-11.853
	c-0.905-5.637-6.195-9.487-11.853-8.582c-36.412,5.837-71.057,18.08-102.989,36.402c-4.964,2.84-6.668,9.161-3.828,14.125
	c1.914,3.334,5.396,5.196,8.982,5.196c1.746,0,3.523-0.442,5.143-1.378C223.343,221.428,255.621,210.027,289.551,204.59z"/>
<g>
	<path style="fill:#663333;" d="M425.124,154.168c6.553,0,11.853,5.301,11.853,11.853c0,6.553-5.301,11.864-11.853,11.864
		c-6.553,0-11.864-5.311-11.864-11.864C413.26,159.469,418.572,154.168,425.124,154.168z"/>
	<path style="fill:#663333;" d="M298.134,192.736c0.905,5.648-2.945,10.959-8.582,11.853c-33.93,5.438-66.209,16.839-95.963,33.909
		c-1.62,0.936-3.397,1.378-5.143,1.378c-3.587,0-7.068-1.862-8.982-5.196c-2.84-4.964-1.136-11.285,3.828-14.125
		c31.932-18.322,66.577-30.564,102.989-36.402C291.939,183.249,297.229,187.099,298.134,192.736z"/>
</g>
<g>
</g>
<g>
</g>
<g>
</g>
<g>
</g>
<g>
</g>
<g>
</g>
<g>
</g>
<g>
</g>
<g>
</g>
<g>
</g>
<g>
</g>
<g>
</g>
<g>
</g>
<g>
</g>
<g>
</g>
</svg>
