<?xml version="1.0" encoding="iso-8859-1"?>
<!-- Generator: Adobe Illustrator 19.0.0, SVG Export Plug-In . SVG Version: 6.00 Build 0)  -->
<svg version="1.1" id="Layer_1" xmlns="http://www.w3.org/2000/svg" xmlns:xlink="http://www.w3.org/1999/xlink" x="0px" y="0px"
	 viewBox="0 0 511.446 511.446" style="enable-background:new 0 0 511.446 511.446;" xml:space="preserve">
<path style="fill:#663333;" d="M451.835,113.263v12.317c0,6.114-4.962,11.076-11.076,11.076H422.65
	c-5.017,21.31-24.201,37.215-47.018,37.215H247.449v71.861c0,8.606-0.631,17.268-1.861,25.73c-0.011,0.089-0.022,0.177-0.044,0.255
	c-1.639,11.087-4.763,21.897-8.03,32.541c-4.309,14.044-12.66,27.989-13.302,29.119h32.608l26.184-26.173
	c-2.337-16.736,3.279-33.87,15.374-45.977c13.69-13.679,33.804-19.073,52.5-14.078c3.821,1.019,6.812,4.01,7.842,7.842
	c4.995,18.707-0.399,38.821-14.078,52.5c-10.301,10.301-24.256,15.905-38.511,15.905c-2.481,0-4.984-0.177-7.476-0.521l-10.5,10.5
	h86.315c6.114,0,11.076,4.962,11.076,11.076c0,6.125-4.962,11.076-11.076,11.076H209.215c-0.687,0.864-3.921,4.796-4.851,5.859
	l-0.233,0.266v78.739c0,6.114-4.962,11.076-11.076,11.076c-11.054,0-21.288-3.489-29.717-9.392v28.1
	c0,6.114-4.962,11.076-11.076,11.076c-11.043,0-21.288-3.489-29.706-9.392v28.51c0,6.114-4.962,11.076-11.076,11.076
	c-28.609,0-51.869-23.271-51.869-51.869l0.011-282.826c0-24.578,4.951-48.391,14.731-70.776c0,0,15.23-33.837,40.062-57.163
	c24.268-22.806,51.16-34.059,51.16-34.059C187.949,4.973,211.74,0.011,236.307,0h102.254c27.147,0,53.409,9.758,73.944,27.469
	c1.063,0.897,5.173,4.718,6.147,5.704C440.05,54.549,451.835,82.993,451.835,113.263z M429.683,114.504
	c0,0,1.318-13.712-5.704-33.106c-5.616-15.506-17.101-28.421-17.101-28.421c-18.275,15.263-29.274,37.537-30.094,61.527H429.683z
	 M399.313,136.656H247.449v15.063h128.183C386.088,151.719,395.137,145.55,399.313,136.656z M390.164,38.179
	c-15.13-10.4-33.106-16.027-51.603-16.027h-91.111v92.352h107.183C355.429,85.008,368.377,57.507,390.164,38.179z M328.98,291.831
	c6.468-6.468,9.813-15.362,9.392-24.334c-8.949-0.399-17.855,2.924-24.323,9.392c-6.468,6.468-9.802,15.362-9.392,24.323
	C313.617,301.644,322.511,298.288,328.98,291.831z M225.297,245.733v-44.027c-50.595-5.527-90.081-48.502-90.081-100.548
	c0-19.294,5.449-37.315,14.842-52.678c-0.532,0.288-17.478,9.824-33.228,30.226c-15.052,19.494-22.185,36.163-22.185,36.163
	c-8.54,19.538-12.87,40.372-12.87,61.882v180.218c39.054-5.416,69.225-39.032,69.236-79.559v-39.807
	c0-9.248-3.611-17.943-10.146-24.489c-6.535-6.535-15.23-10.135-24.478-10.135c-6.125,0-11.076-4.962-11.076-11.076
	s4.951-11.076,11.076-11.076c31.301,0,56.776,25.464,56.776,56.776v39.807c-0.011,37.592-20.358,70.51-50.606,88.342v63.632
	c0,12.472,7.72,23.171,18.63,27.579v-83.281c0-6.114,4.962-11.076,11.076-11.076c4.818,0,8.905,3.079,10.434,7.377
	c6.114-4.541,11.907-9.525,17.312-14.93c0,0,12.926-12.87,21.554-26.97c9.116-14.897,15.052-31.146,15.052-31.146
	c3.201-9.127,5.549-18.619,6.989-28.233c0.011-0.078,0.022-0.155,0.033-0.244C224.732,260.995,225.297,253.342,225.297,245.733z
	 M225.297,179.376l-0.011-156.416c-38.334,5.405-67.918,38.401-67.918,78.197C157.368,140.964,186.963,173.971,225.297,179.376z
	 M181.979,427.18v-44.138c-5.915,4.807-12.139,9.237-18.641,13.236v3.323C163.338,412.072,171.058,422.783,181.979,427.18z
	 M100.404,395.281v-19.793c-6.003,1.816-12.228,3.101-18.63,3.799l-0.011,80.29c0,12.472,7.72,23.171,18.63,27.579L100.404,395.281z
	"/>
<path style="fill:#FE6865;" d="M423.979,81.398c7.022,19.394,5.704,33.106,5.704,33.106h-52.899
	c0.82-23.991,11.818-46.265,30.094-61.527C406.878,52.977,418.363,65.891,423.979,81.398z"/>
<g>
	<path style="fill:#FFCC66;" d="M247.449,136.656h151.863c-4.176,8.894-13.225,15.063-23.681,15.063H247.449V136.656z"/>
	<path style="fill:#FFCC66;" d="M338.561,22.152c18.497,0,36.473,5.627,51.603,16.027c-21.787,19.328-34.734,46.829-35.532,76.325
		H247.449V22.152H338.561z"/>
</g>
<path style="fill:#6A973A;" d="M338.372,267.497c0.421,8.972-2.924,17.866-9.392,24.334c-6.468,6.457-15.362,9.813-24.323,9.381
	c-0.41-8.961,2.924-17.855,9.392-24.323C320.518,270.421,329.423,267.098,338.372,267.497z"/>
<path style="fill:#FE6865;" d="M225.297,201.705v44.027c0,7.609-0.565,15.263-1.661,22.728c-0.011,0.089-0.022,0.166-0.033,0.244
	c-1.44,9.614-3.788,19.106-6.989,28.233c0,0-5.937,16.249-15.052,31.146c-8.628,14.1-21.554,26.97-21.554,26.97
	c-5.405,5.405-11.198,10.389-17.312,14.93c-1.529-4.297-5.616-7.377-10.434-7.377c-6.114,0-11.076,4.962-11.076,11.076v83.281
	c-10.91-4.408-18.63-15.108-18.63-27.579v-63.632c30.249-17.832,50.595-50.75,50.606-88.342v-39.807
	c0-31.312-25.475-56.776-56.776-56.776c-6.125,0-11.076,4.962-11.076,11.076s4.951,11.076,11.076,11.076
	c9.248,0,17.943,3.6,24.478,10.135c6.535,6.546,10.146,15.241,10.146,24.489v39.807c-0.011,40.527-30.182,74.143-69.236,79.559
	V176.751c0-21.51,4.331-42.344,12.87-61.882c0,0,7.133-16.669,22.185-36.163c15.75-20.402,32.696-29.938,33.228-30.226
	c-9.392,15.362-14.842,33.383-14.842,52.678C135.216,153.204,174.702,196.178,225.297,201.705z"/>
<path style="fill:#FFFFFF;" d="M225.286,22.961l0.011,156.416c-38.334-5.405-67.929-38.412-67.929-78.219
	C157.368,61.361,186.952,28.366,225.286,22.961z M206.834,83.546c0-7.066-5.726-12.782-12.782-12.782s-12.771,5.715-12.771,12.782
	c0,7.055,5.715,12.771,12.771,12.771S206.834,90.602,206.834,83.546z"/>
<path style="fill:#663333;" d="M194.052,70.765c7.055,0,12.782,5.715,12.782,12.782c0,7.055-5.726,12.771-12.782,12.771
	s-12.771-5.715-12.771-12.771C181.281,76.48,186.996,70.765,194.052,70.765z"/>
<g>
	<path style="fill:#FE6865;" d="M181.979,383.042v44.138c-10.921-4.397-18.641-15.108-18.641-27.579v-3.323
		C169.84,392.279,176.064,387.849,181.979,383.042z"/>
	<path style="fill:#FE6865;" d="M100.404,375.488v19.793l-0.011,91.876c-10.91-4.408-18.63-15.108-18.63-27.579l0.011-80.29
		C88.176,378.589,94.401,377.305,100.404,375.488z"/>
</g>
<g>
</g>
<g>
</g>
<g>
</g>
<g>
</g>
<g>
</g>
<g>
</g>
<g>
</g>
<g>
</g>
<g>
</g>
<g>
</g>
<g>
</g>
<g>
</g>
<g>
</g>
<g>
</g>
<g>
</g>
</svg>
