<?xml version="1.0" encoding="iso-8859-1"?>
<!-- Generator: Adobe Illustrator 19.0.0, SVG Export Plug-In . SVG Version: 6.00 Build 0)  -->
<svg version="1.1" id="Layer_1" xmlns="http://www.w3.org/2000/svg" xmlns:xlink="http://www.w3.org/1999/xlink" x="0px" y="0px"
	 viewBox="0 0 511.482 511.482" style="enable-background:new 0 0 511.482 511.482;" xml:space="preserve">
<path style="fill:#663333;" d="M470.681,62.452c22.497,0,40.801,18.304,40.801,40.801s-18.304,40.801-40.801,40.801h-0.611v41.785
	c-0.238,14.712-2.443,29.765-6.543,44.756c-8.241,30.075-23.294,56.496-42.375,74.417c-15.933,14.95-33.275,22.756-50.067,22.756
	c-1.977,0-3.944-0.114-5.901-0.331c-3.292,16.109-9.287,30.686-17.3,41.857c-5.083,7.081-10.819,12.569-16.927,16.347l-4.131,31.09
	h7.641c17.538,0,31.856,14.277,31.929,31.815c0.01,4.483-1.719,8.676-4.856,11.833c-3.127,3.127-7.278,4.856-11.699,4.856h-50.906
	c-10.26,0-18.749-7.589-20.23-17.445l-40.201-3.551c-11.233-0.994-19.578-10.953-18.594-22.186l6.15-70.452
	c-3.841-6.046-6.895-13.252-9.059-21.296c-4.804,0.435-9.628,0.673-14.463,0.673c-13.914,0-27.725-1.791-41.029-5.332
	c-0.093-0.021-0.186-0.052-0.28-0.083c-5.29,9.121-7.433,19.898-6.025,30.396l5.922,44.311h10.985
	c17.538,0,31.867,14.266,31.939,31.815c0.01,4.483-1.708,8.676-4.856,11.833c-3.127,3.137-7.288,4.866-11.709,4.866h-39.424
	c-0.052,6.388-3.81,12.227-9.618,14.908c-2.143,1.015-4.545,1.543-6.947,1.543H80.601c-11.295,0-20.478-9.193-20.478-20.489v-12.33
	l-7.92-59.147c-1.284-9.483-0.59-19.008,2.05-28.305c2.112-7.433,3.23-15.985,3.23-24.723c0-14.826-3.282-29.009-8.779-37.923
	c-6.657-10.777-9.949-23.325-9.597-35.811c-5.073,3.313-8.469,9.038-8.469,15.529v32.198l9.359,26.918
	c1.108,3.168,0.6,6.667-1.336,9.401c-1.946,2.733-5.094,4.348-8.438,4.348H10.356c-3.354,0-6.502-1.615-8.438-4.348
	c-1.946-2.733-2.443-6.233-1.346-9.401l9.359-26.907v-32.208c0-19.681,14.701-36.111,33.699-38.824
	c7.899-26.359,20.271-49.218,35.387-65.089c12.217-12.817,22.549-26.835,30.717-41.66l11.098-20.126
	c13.562-24.599,30.686-28.274,39.693-28.274c4.504,0,11.036,0.921,18.138,4.907c7.102,3.996,14.774,11.067,21.565,23.367
	l5.798,10.539c2.671,4.835,7.247,5.363,9.09,5.363s6.419-0.528,9.09-5.373l5.808-10.529c13.562-24.599,30.697-28.274,39.704-28.274
	c8.997,0,26.131,3.675,39.693,28.274l40.014,72.595c7.806-6.491,12.517-16.192,12.517-26.659V98.946
	c-1.708-2.029-3.24-4.224-4.545-6.595c-7.061-12.807-6.75-28.554,0.808-41.091c1.915-3.178,5.373-5.083,9.08-5.011
	c12.6,0.259,24.34,6.346,31.867,16.202h70.97c0.114,0,0.228,0.01,0.331,0.021C470.536,62.462,470.609,62.452,470.681,62.452z
	 M474.336,93.935h14.132c-3.365-6.398-10.063-10.777-17.786-10.777c-0.114,0-77.088,0.021-77.306,0.021
	c-4.379,0-8.21-2.764-9.69-6.729c-2.423-3.831-6.036-6.719-10.218-8.251c-1.015,4.752-0.331,9.794,2.071,14.153
	c3.499,6.357,10.198,10.405,17.476,10.56c5.725,0.114,10.26,4.845,10.136,10.56c-0.114,5.642-4.731,10.136-10.343,10.136h-0.217
	c-3.406-0.072-6.729-0.58-9.939-1.46v30.127c0,22.062-13.086,42.002-33.347,50.792c-2.557,1.118-5.456,1.149-8.044,0.093
	c-2.578-1.066-4.628-3.116-5.673-5.704c-0.756-1.853-44.311-81.116-44.311-81.116c-6.15-11.171-14.008-17.569-21.555-17.569
	c-7.558,0-15.416,6.398-21.565,17.569l-5.808,10.529c-5.56,10.063-15.737,16.078-27.228,16.078
	c-11.492,0-21.669-6.015-27.228-16.078l-5.798-10.539c-6.15-11.161-14.018-17.559-21.565-17.559s-15.405,6.398-21.555,17.569
	l-11.098,20.126c-9.028,16.378-20.416,31.835-33.865,45.947c-14.287,15.001-26.297,38.865-32.954,65.472
	c-0.021,0.072-0.031,0.145-0.052,0.217c-0.021,0.062-0.031,0.114-0.052,0.176c-2.702,11.171-0.745,23.253,5.373,33.171
	c7.537,12.227,11.865,30.013,11.865,48.794c0,10.633-1.387,21.141-4.017,30.386c-1.864,6.543-2.35,13.231-1.449,19.878l8.013,59.84
	c0.062,0.456,0.093,14.184,0.093,14.184h45.729c-0.921-2.34-2.63-4.348-4.887-5.632c-1.688-0.952-3.592-1.46-5.549-1.46H96.079
	c-2.754,0-5.394-1.097-7.34-3.054s-3.023-4.597-3.013-7.351l0.3-56.144c0.062-11.813,3.158-23.491,8.955-33.782
	c0.932-1.667,7.682-11.813,9.67-14.888c5.984-9.276,10.86-17.673,14.908-25.686c1.284-2.526,3.541-4.421,6.243-5.239
	c2.712-0.818,5.642-0.497,8.106,0.901c2.195,1.242,4.431,2.433,6.636,3.53c8.407,4.193,17.248,7.527,26.266,9.908
	c11.585,3.075,23.605,4.638,35.728,4.638c20.613,0,40.366-4.39,58.815-13.024c0.652-6.471,1.729-12.869,3.23-19.06
	c1.346-5.56,6.947-8.966,12.506-7.62c5.56,1.346,8.966,6.947,7.62,12.506c-1.553,6.388-2.588,13.055-3.075,19.816
	c-2.806,38.72,12.475,66.942,27.953,68.071c9.597,0.694,17.569-8.313,21.472-13.738c7.858-10.953,13.324-26.41,15.395-43.534
	c0.694-5.673,5.849-9.721,11.523-9.038c1.636,0.197,4.535,1.263,4.535,1.263c29.692,8.127,66.808-28.864,81.043-80.784
	c3.634-13.293,5.591-26.597,5.808-39.538v-51.889c0-2.143,0.652-4.131,1.76-5.787c1.864-2.754,5.011-4.566,8.593-4.566h10.964
	c7.723,0,14.422-4.379,17.786-10.777h-14.132c-5.145,0-9.318-4.172-9.318-9.318S469.19,93.935,474.336,93.935z M299.163,444.529
	h45.729c-1.646-4.141-5.705-7.092-10.425-7.092h-19.464c-2.982,0-5.818-1.284-7.785-3.53s-2.868-5.228-2.474-8.189l4.535-34.072
	c-0.393-0.01-7.278-0.911-10.167-1.905L299.163,444.529z M278.437,426.981v-6.916c-0.683-0.186-21.482-2.102-21.482-2.102
	c-2.971-0.259-5.684-1.791-7.444-4.203c-1.76-2.412-2.392-5.456-1.739-8.376l7.506-33.533c0,0-3.976-0.155-9.96-2.775l-4.762,54.56
	L278.437,426.981z M278.416,399.08l-0.031-25.158c-0.611-0.808-1.211-1.636-1.801-2.485l-6.025,26.938l7.609,0.673L278.416,399.08z
	 M266.282,350.068c-2.951-9.059-4.824-19.215-5.446-30.086c-7.537,2.951-15.312,5.311-23.222,7.081
	c1.853,6.16,4.348,11.461,7.402,15.592c3.675,4.98,7.848,7.848,12.393,8.603C261.996,352.015,265.92,350.213,266.282,350.068z
	 M139.51,428.078h43.048c-1.656-4.152-5.725-7.102-10.446-7.102h-20.054c-5.187,0-9.577-3.841-10.26-8.986l-7.113-53.287
	c-1.832-13.645,0.549-27.632,6.678-39.88c-2.785-1.149-5.539-2.371-8.251-3.686c-3.261,5.839-14.121,22.994-15.768,25.437
	C117.344,340.575,139.096,427.582,139.51,428.078z M115.325,416.731l-8.655-34.061l-0.186,34.061H115.325z"/>
<path style="fill:#FFCC66;" d="M488.468,93.935h-14.132c-5.145,0-9.318,4.172-9.318,9.318c0,5.145,4.172,9.318,9.318,9.318h14.132
	c-3.365,6.398-10.063,10.777-17.786,10.777h-10.964c-3.582,0-6.729,1.812-8.593,4.566c-1.108,1.656-1.76,3.644-1.76,5.787v51.889
	c-0.217,12.941-2.174,26.245-5.808,39.538c-14.235,51.92-51.351,88.911-81.043,80.784c0,0-2.899-1.066-4.535-1.263
	c-5.673-0.683-10.829,3.365-11.523,9.038c-2.071,17.124-7.537,32.581-15.395,43.534c-3.903,5.425-11.875,14.432-21.472,13.738
	c-15.478-1.128-30.759-29.351-27.953-68.071c0.487-6.76,1.522-13.428,3.075-19.816c1.346-5.56-2.06-11.161-7.62-12.506
	c-5.56-1.346-11.161,2.06-12.506,7.62c-1.501,6.191-2.578,12.589-3.23,19.06c-18.449,8.634-38.203,13.024-58.815,13.024
	c-12.123,0-24.143-1.563-35.728-4.638c-9.017-2.381-17.859-5.715-26.266-9.908c-2.205-1.097-4.441-2.288-6.636-3.53
	c-2.464-1.398-5.394-1.719-8.106-0.901c-2.702,0.818-4.959,2.712-6.243,5.239c-4.048,8.013-8.924,16.409-14.908,25.686
	c-1.988,3.075-8.738,13.221-9.67,14.888c-5.798,10.291-8.893,21.969-8.955,33.782l-0.3,56.144c-0.01,2.754,1.066,5.394,3.013,7.351
	c1.946,1.957,4.586,3.054,7.34,3.054h20.043c1.957,0,3.862,0.507,5.549,1.46c2.257,1.284,3.965,3.292,4.887,5.632H80.829
	c0,0-0.031-13.728-0.093-14.184l-8.013-59.84c-0.901-6.647-0.414-13.335,1.449-19.878c2.63-9.245,4.017-19.754,4.017-30.386
	c0-18.78-4.328-36.567-11.865-48.794c-6.119-9.918-8.075-22-5.373-33.171c0.021-0.062,0.031-0.114,0.052-0.176
	c0.021-0.072,0.031-0.145,0.052-0.217c6.657-26.607,18.666-50.471,32.954-65.472c13.449-14.111,24.837-29.568,33.865-45.947
	l11.098-20.126c6.15-11.171,14.008-17.569,21.555-17.569c7.547,0,15.416,6.398,21.565,17.559l5.798,10.539
	c5.56,10.063,15.737,16.078,27.228,16.078c11.492,0,21.669-6.015,27.228-16.078l5.808-10.529
	c6.15-11.171,14.008-17.569,21.565-17.569c7.547,0,15.405,6.398,21.555,17.569c0,0,43.555,79.263,44.311,81.116
	c1.046,2.588,3.096,4.638,5.673,5.704c2.588,1.056,5.487,1.025,8.044-0.093c20.261-8.79,33.347-28.73,33.347-50.792v-30.127
	c3.209,0.88,6.533,1.387,9.939,1.46h0.217c5.611,0,10.229-4.493,10.343-10.136c0.124-5.715-4.41-10.446-10.136-10.56
	c-7.278-0.155-13.977-4.203-17.476-10.56c-2.402-4.359-3.085-9.401-2.071-14.153c4.183,1.532,7.796,4.421,10.218,8.251
	c1.48,3.965,5.311,6.729,9.69,6.729c0.217,0,77.192-0.021,77.306-0.021C478.405,83.158,485.103,87.537,488.468,93.935z
	 M433.245,100.924c0-5.187-4.214-9.39-9.4-9.39c-5.187,0-9.401,4.203-9.401,9.39c0,5.197,4.214,9.401,9.401,9.401
	C429.031,110.324,433.245,106.121,433.245,100.924z M232.707,280.362c5.508-1.522,8.748-7.216,7.226-12.734
	c-1.522-5.508-7.226-8.748-12.734-7.226c-7.93,2.184-16.223,3.292-24.661,3.292c-8.096,0-16.109-1.035-23.833-3.096
	c-7.578-1.998-14.908-4.99-21.793-8.904c-4.969-2.816-11.295-1.077-14.111,3.893c-2.826,4.969-1.087,11.295,3.893,14.111
	c8.427,4.793,17.424,8.469,26.7,10.922c9.452,2.505,19.257,3.779,29.144,3.779C212.83,284.399,222.986,283.043,232.707,280.362z"/>
<path style="fill:#663333;" d="M423.844,91.533c5.187,0,9.4,4.203,9.4,9.39c0,5.197-4.214,9.401-9.4,9.401
	c-5.187,0-9.401-4.203-9.401-9.401C414.444,95.737,418.658,91.533,423.844,91.533z"/>
<g>
	<path style="fill:#FFCC66;" d="M344.892,444.529h-45.729l-0.052-54.788c2.888,0.994,9.773,1.895,10.167,1.905l-4.535,34.072
		c-0.393,2.961,0.507,5.943,2.474,8.189c1.967,2.247,4.804,3.53,7.785,3.53h19.464C339.188,437.437,343.246,440.388,344.892,444.529
		z"/>
	<path style="fill:#FFCC66;" d="M278.437,420.065v6.916l-37.882-3.344l4.762-54.56c5.984,2.619,9.96,2.775,9.96,2.775l-7.506,33.533
		c-0.652,2.92-0.021,5.963,1.739,8.376c1.76,2.412,4.473,3.944,7.444,4.203C256.954,417.963,277.753,419.88,278.437,420.065z"/>
	<path style="fill:#FFCC66;" d="M260.836,319.983c0.621,10.871,2.495,21.027,5.446,30.086c-0.362,0.145-4.286,1.946-8.872,1.191
		c-4.545-0.756-8.717-3.624-12.393-8.603c-3.054-4.131-5.549-9.432-7.402-15.592C245.524,325.294,253.3,322.933,260.836,319.983z"/>
</g>
<path style="fill:#663333;" d="M239.934,267.628c1.522,5.518-1.719,11.212-7.226,12.734c-9.721,2.681-19.878,4.038-30.169,4.038
	c-9.887,0-19.691-1.273-29.144-3.779c-9.276-2.454-18.273-6.129-26.7-10.922c-4.98-2.816-6.719-9.142-3.893-14.111
	c2.816-4.969,9.142-6.709,14.111-3.893c6.885,3.913,14.215,6.905,21.793,8.904c7.723,2.06,15.737,3.096,23.833,3.096
	c8.438,0,16.73-1.108,24.661-3.292C232.707,258.879,238.412,262.12,239.934,267.628z"/>
<path style="fill:#FFCC66;" d="M182.558,428.078H139.51c-0.414-0.497-22.166-87.504-22.166-87.504
	c1.646-2.443,12.506-19.598,15.768-25.437c2.712,1.315,5.466,2.536,8.251,3.686c-6.129,12.248-8.51,26.234-6.678,39.88l7.113,53.287
	c0.683,5.145,5.073,8.986,10.26,8.986h20.054C176.832,420.976,180.901,423.928,182.558,428.078z"/>
<g>
</g>
<g>
</g>
<g>
</g>
<g>
</g>
<g>
</g>
<g>
</g>
<g>
</g>
<g>
</g>
<g>
</g>
<g>
</g>
<g>
</g>
<g>
</g>
<g>
</g>
<g>
</g>
<g>
</g>
</svg>
