<?xml version="1.0" encoding="iso-8859-1"?>
<!-- Generator: Adobe Illustrator 18.0.0, SVG Export Plug-In . SVG Version: 6.00 Build 0)  -->
<!DOCTYPE svg PUBLIC "-//W3C//DTD SVG 1.1//EN" "http://www.w3.org/Graphics/SVG/1.1/DTD/svg11.dtd">
<svg version="1.1" id="Capa_1" xmlns="http://www.w3.org/2000/svg" xmlns:xlink="http://www.w3.org/1999/xlink" x="0px" y="0px"
	 viewBox="0 0 487.253 487.253" style="enable-background:new 0 0 487.253 487.253;" xml:space="preserve">
<g>
	<path d="M213.465,113.562c-13.482,0-24.45,10.968-24.45,24.45s10.968,24.45,24.45,24.45c13.481,0,24.45-10.968,24.45-24.45
		S226.947,113.562,213.465,113.562z M227.005,133.012h-8.539v-8.54C222.411,125.935,225.542,129.066,227.005,133.012z
		 M208.465,124.473v8.54h-8.54C201.388,129.066,204.519,125.935,208.465,124.473z M199.925,143.012h8.54v8.539
		C204.519,150.089,201.388,146.958,199.925,143.012z M218.465,151.552v-8.539h8.539
		C225.542,146.958,222.411,150.089,218.465,151.552z"/>
	<path d="M272.372,113.562c-13.481,0-24.45,10.968-24.45,24.45s10.968,24.45,24.45,24.45s24.45-10.968,24.45-24.45
		S285.853,113.562,272.372,113.562z M272.372,123.562c6.208,0,11.499,3.943,13.539,9.45h-27.079
		C260.873,127.505,266.164,123.562,272.372,123.562z M272.372,152.462c-6.208,0-11.499-3.943-13.539-9.45h27.079
		C283.87,148.519,278.58,152.462,272.372,152.462z"/>
	<path d="M362.581,343.257c-3.739-3.739-8.411-6.203-13.491-7.182v-22.636h7.499V263.22c0-18.039-14.676-32.715-32.715-32.715h-5
		v17.57h-8.822v-17.57h-13.851v-7.118h34.295v-50.845h-10.049v-28.717c0-20.702-8.063-40.172-22.705-54.826
		c-9.012-9.005-19.852-15.51-31.677-19.193c-0.053-11.001-7.812-20.208-18.144-22.493V28.55c5.66-2.053,9.722-7.469,9.722-13.829
		C257.643,6.604,251.039,0,242.922,0S228.2,6.604,228.2,14.722c0,6.36,4.062,11.775,9.722,13.829v18.762
		c-10.344,2.286-18.112,11.505-18.154,22.517c-31.476,9.869-54.378,39.307-54.378,73.996v28.717h-10.049v50.845h34.294v7.118
		h-13.851v17.57h-8.822v-17.57h-5c-18.039,0-32.714,14.676-32.714,32.715v50.219h8.915v22.636c-5.08,0.978-9.752,3.443-13.491,7.182
		c-10.196,10.196-10.196,26.786,0,36.983l3.536,3.535l14.956-14.956l14.956,14.956l3.536-3.535
		c10.196-10.196,10.196-26.786,0-36.982c-3.739-3.739-8.412-6.204-13.492-7.182v-22.636h18.799v-33.482h8.822v34.88
		c0,13.744,8.131,25.619,19.833,31.085v41.863c0,13.106,7.75,24.43,18.905,29.647v27.566h-3.976
		c-20.542,0-37.255,16.713-37.255,37.256v5h66.96v-42.256h-15.729V420.27c1.251,0.146,2.521,0.229,3.81,0.229h5V349.13h19.173
		v71.369h5c1.289,0,2.559-0.083,3.81-0.229v24.727h-15.729v42.256h66.96v-5c0-20.543-16.713-37.256-37.256-37.256h-3.975v-27.566
		c11.154-5.217,18.904-16.541,18.904-29.647v-41.863c11.701-5.465,19.833-17.34,19.833-31.085v-34.88h8.822v33.482h20.216v22.636
		c-5.08,0.978-9.753,3.443-13.492,7.182c-10.196,10.196-10.196,26.786,0,36.983l3.536,3.535l14.956-14.956l14.956,14.956
		l3.536-3.535C372.777,370.043,372.777,353.453,362.581,343.257z M157.559,369.073l-14.396-14.396l-14.396,14.396
		c-3.08-6.064-2.088-13.681,2.976-18.745c3.05-3.051,7.106-4.73,11.42-4.73c4.314,0,8.37,1.68,11.42,4.731
		C159.647,355.392,160.639,363.009,157.559,369.073z M230.251,477.253h-46.5c2.354-12.65,13.474-22.256,26.796-22.256h19.705
		V477.253z M302.087,477.253h-46.501v-22.256h19.705C288.612,454.998,299.732,464.604,302.087,477.253z M242.922,10
		c2.604,0,4.722,2.118,4.722,4.722s-2.118,4.722-4.722,4.722s-4.722-2.118-4.722-4.722S240.318,10,242.922,10z M242.922,56.763
		c6.381,0,11.71,4.575,12.896,10.618c-4.224-0.704-8.531-1.084-12.899-1.084c-4.397,0-8.704,0.387-12.903,1.094
		C231.198,61.343,236.533,56.763,242.922,56.763z M175.39,143.826c0-37.235,30.293-67.529,67.528-67.529
		c18.033,0,34.993,7.023,47.752,19.773c12.753,12.762,19.776,29.722,19.776,47.755v28.717H175.39V143.826z M165.341,213.387v-30.845
		h155.156v30.845h-24.295H189.635H165.341z M199.635,223.387h86.566v7.118h-86.566V223.387z M156.962,303.439h-17.714V263.22
		c0-10.808,7.586-19.877,17.714-22.16v7.016h0v31.881h0V303.439z M166.962,269.957v-11.881h8.822v11.881H166.962z M223.332,409.945
		c-10.128-2.283-17.715-11.352-17.715-22.16V349.13h17.715V409.945z M280.22,349.13v38.655c0,10.808-7.586,19.877-17.714,22.16
		V349.13H280.22z M300.052,314.837c0,13.395-10.898,24.293-24.293,24.293h-65.681c-13.396,0-24.293-10.898-24.293-24.293v-74.332
		h114.268V314.837z M318.872,269.957h-8.82v-11.881h8.82V269.957z M328.874,241.06c10.128,2.283,17.715,11.352,17.715,22.16v40.219
		h-17.715V241.06z M358.486,369.073l-14.396-14.396l-14.396,14.396c-3.08-6.064-2.088-13.681,2.976-18.745
		c3.05-3.051,7.106-4.73,11.42-4.73c4.314,0,8.37,1.68,11.42,4.731C360.574,355.392,361.566,363.009,358.486,369.073z"/>
	<path d="M242.918,246.586c-23.838,0-43.232,19.394-43.232,43.232s19.394,43.232,43.232,43.232s43.232-19.394,43.232-43.232
		S266.757,246.586,242.918,246.586z M242.918,323.05c-18.324,0-33.232-14.908-33.232-33.232s14.908-33.232,33.232-33.232
		s33.232,14.908,33.232,33.232S261.243,323.05,242.918,323.05z"/>
	<path d="M242.918,265.252c-13.545,0-24.565,11.02-24.565,24.565s11.02,24.565,24.565,24.565s24.565-11.02,24.565-24.565
		S256.464,265.252,242.918,265.252z M242.918,304.383c-8.031,0-14.565-6.534-14.565-14.565s6.534-14.565,14.565-14.565
		s14.565,6.534,14.565,14.565S250.95,304.383,242.918,304.383z"/>
	<path d="M242.92,284.815c-1.32,0-2.61,0.54-3.54,1.47c-0.93,0.93-1.46,2.22-1.46,3.53c0,1.32,0.53,2.61,1.46,3.54
		c0.93,0.93,2.22,1.46,3.54,1.46c1.31,0,2.6-0.53,3.53-1.46s1.47-2.22,1.47-3.54s-0.54-2.6-1.47-3.53S244.24,284.815,242.92,284.815
		z"/>
</g>
<g>
</g>
<g>
</g>
<g>
</g>
<g>
</g>
<g>
</g>
<g>
</g>
<g>
</g>
<g>
</g>
<g>
</g>
<g>
</g>
<g>
</g>
<g>
</g>
<g>
</g>
<g>
</g>
<g>
</g>
</svg>
