<?xml version="1.0" encoding="iso-8859-1"?>
<!-- Generator: Adobe Illustrator 18.0.0, SVG Export Plug-In . SVG Version: 6.00 Build 0)  -->
<!DOCTYPE svg PUBLIC "-//W3C//DTD SVG 1.1//EN" "http://www.w3.org/Graphics/SVG/1.1/DTD/svg11.dtd">
<svg version="1.1" id="Capa_1" xmlns="http://www.w3.org/2000/svg" xmlns:xlink="http://www.w3.org/1999/xlink" x="0px" y="0px"
	 viewBox="0 0 430.869 430.869" style="enable-background:new 0 0 430.869 430.869;" xml:space="preserve">
<path d="M343.257,368.706c-4.182-1.739-7.131-5.864-7.131-10.668l-0.006-98.074c41.491-2.588,74.459-37.148,74.459-79.28
	s-32.968-76.86-74.459-79.448h-14.577C318.926,44.97,272.335,0,215.435,0S111.944,44.97,109.326,101.235H94.748
	c-41.491,2.589-74.458,37.317-74.458,79.448s32.967,76.691,74.458,79.28l-0.004,98.074c0,4.804-2.949,8.929-7.131,10.668v-50.398
	h-52.44v112.562h52.44v-51.741c9.77-2.045,17.131-10.723,17.131-21.091v-49.164h67.918v49.164c0,10.161,7.076,18.68,16.554,20.943
	v51.889h52.439v-51.89c9.477-2.263,16.553-10.782,16.553-20.942v-49.164h67.919v49.164c0,10.368,7.361,19.046,17.131,21.091v51.741
	h52.439V318.307h-52.439V368.706z M45.173,380.967v-12.757h32.44v12.757H45.173z M77.613,390.967v12.758h-32.44v-12.758H77.613z
	 M77.613,358.209h-32.44v-12.758h32.44V358.209z M77.613,328.307v7.145h-32.44v-7.145H77.613z M45.173,420.869v-7.145h32.44v7.145
	H45.173z M336.126,111.408c35.973,2.57,64.453,32.659,64.453,69.275c0,38.296-31.156,69.453-69.453,69.453
	c-36.616,0-66.705-28.48-69.275-64.453h15.763c2.53,27.298,25.564,48.743,53.513,48.743c29.634,0,53.743-24.109,53.743-53.743
	c0-27.948-21.444-50.982-48.743-53.512V111.408z M252.81,166.405h32.953v9.278H252.81V166.405z M374.869,180.683
	c0,22.43-16.973,40.962-38.749,43.449v-86.898C357.896,139.721,374.869,158.253,374.869,180.683z M215.435,10
	c51.386,0,93.493,40.486,96.101,91.235h-67.801V74.438c8.312-2.215,14.462-9.787,14.462-18.787c0-10.731-8.73-19.462-19.462-19.462
	s-19.462,8.73-19.462,19.462c0,9,6.15,16.572,14.462,18.787v26.796h-36.6V74.438c8.312-2.215,14.462-9.787,14.462-18.787
	c0-10.731-8.731-19.462-19.462-19.462s-19.462,8.73-19.462,19.462c0,9,6.15,16.572,14.462,18.787v26.796h-67.801
	C121.941,50.486,164.049,10,215.435,10z M238.735,65.114c-5.218,0-9.462-4.245-9.462-9.462c0-5.217,4.244-9.462,9.462-9.462
	s9.462,4.245,9.462,9.462C248.197,60.869,243.952,65.114,238.735,65.114z M192.135,65.114c-5.217,0-9.462-4.245-9.462-9.462
	c0-5.217,4.245-9.462,9.462-9.462c5.218,0,9.462,4.245,9.462,9.462C201.597,60.869,197.352,65.114,192.135,65.114z M94.748,224.132
	C72.973,221.644,56,203.113,56,180.683s16.973-40.961,38.748-43.449V224.132z M30.29,180.683c0-36.616,28.481-66.705,64.454-69.275
	v15.763C67.445,129.701,46,152.735,46,180.683c0,29.634,24.109,53.743,53.743,53.743c27.948,0,50.982-21.444,53.512-48.743h15.763
	c-2.57,35.973-32.659,64.453-69.275,64.453C61.447,250.136,30.29,218.979,30.29,180.683z M178.059,166.405v9.278h-32.954v-9.278
	H178.059z M199.215,390.967h32.439v12.758h-32.439V390.967z M199.215,380.967v-12.757h32.439v12.757H199.215z M231.655,335.452
	h-32.439v-7.145h32.439V335.452z M199.215,345.452h32.439v12.758h-32.439V345.452z M199.215,420.869v-7.145h32.439v7.145H199.215z
	 M248.207,358.037c0,4.578-2.683,8.53-6.553,10.398v-50.128h-52.439v50.128c-3.87-1.868-6.554-5.821-6.554-10.398v-49.164h65.546
	V358.037z M155.198,298.874c2.553-31.005,28.584-55.46,60.237-55.46c31.652,0,57.684,24.455,60.236,55.46H155.198z M285.697,298.874
	c-2.576-36.525-33.094-65.46-70.262-65.46c-37.169,0-67.687,28.935-70.263,65.46h-40.424v-38.911
	c39.831-2.49,71.788-34.448,74.275-74.279h9.036v-19.278v-10v-27.138h-10v27.138h-4.318v-27.138h-10v27.138h-4.318v-27.138h-10
	v27.138h-4.318v-27.138h-10v27.138H120.72v10h14.385v19.278h8.087c-2.302,20.129-18.316,36.144-38.444,38.448V111.235H326.12
	v112.896c-20.128-2.305-36.141-18.319-38.443-38.448h8.086v-19.278h14.386v-10h-14.386v-27.138h-10v27.138h-4.317v-27.138h-10
	v27.138h-4.318v-27.138h-10v27.138h-4.317v-27.138h-10v27.138v10v19.278h9.037c2.488,39.831,34.444,71.789,74.274,74.279v38.911
	H285.697z M385.697,368.209v12.757h-32.439v-12.757H385.697z M353.257,358.209v-12.758h32.439v12.758H353.257z M353.257,390.967
	h32.439v12.758h-32.439V390.967z M353.257,420.869v-7.145h32.439v7.145H353.257z M385.697,328.307v7.145h-32.439v-7.145H385.697z"/>
<g>
</g>
<g>
</g>
<g>
</g>
<g>
</g>
<g>
</g>
<g>
</g>
<g>
</g>
<g>
</g>
<g>
</g>
<g>
</g>
<g>
</g>
<g>
</g>
<g>
</g>
<g>
</g>
<g>
</g>
</svg>
