<?xml version="1.0" encoding="iso-8859-1"?>
<!-- Generator: Adobe Illustrator 18.0.0, SVG Export Plug-In . SVG Version: 6.00 Build 0)  -->
<!DOCTYPE svg PUBLIC "-//W3C//DTD SVG 1.1//EN" "http://www.w3.org/Graphics/SVG/1.1/DTD/svg11.dtd">
<svg version="1.1" id="Capa_1" xmlns="http://www.w3.org/2000/svg" xmlns:xlink="http://www.w3.org/1999/xlink" x="0px" y="0px"
	 viewBox="0 0 384.355 384.355" style="enable-background:new 0 0 384.355 384.355;" xml:space="preserve">
<g>
	<path d="M151.167,90.128c8.078,0,14.65-6.572,14.65-14.65s-6.572-14.65-14.65-14.65s-14.65,6.572-14.65,14.65
		S143.089,90.128,151.167,90.128z M151.167,70.828c2.564,0,4.65,2.086,4.65,4.65c0,2.564-2.086,4.65-4.65,4.65
		s-4.65-2.086-4.65-4.65C146.517,72.914,148.603,70.828,151.167,70.828z"/>
	<path d="M233.189,90.128c8.078,0,14.65-6.572,14.65-14.65s-6.572-14.65-14.65-14.65S218.54,67.4,218.54,75.478
		S225.111,90.128,233.189,90.128z M233.189,70.828c2.564,0,4.65,2.086,4.65,4.65c0,2.564-2.086,4.65-4.65,4.65
		c-2.563,0-4.649-2.086-4.649-4.65C228.54,72.914,230.626,70.828,233.189,70.828z"/>
	<path d="M87.665,181.8H296.69v-29.3H87.665V181.8z M97.665,162.5H286.69v9.3H97.665V162.5z"/>
	<path d="M87.665,279.305H296.69v-29.3H87.665V279.305z M97.665,260.005H286.69v9.3H97.665V260.005z"/>
	<path d="M87.665,243.92H296.69v-56.034H87.665V243.92z M97.665,197.885H286.69v36.034H97.665V197.885z"/>
	<path d="M338.558,128.376h-5v27.743h-18.22v-21.893h-24.985V98.175C290.353,44.041,246.312,0,192.178,0
		S94.003,44.041,94.003,98.175v36.051H69.016v21.893h-18.22v-27.743h-5c-14.718,0-26.693,11.975-26.693,26.693v154.59h31.693
		V187.831h18.22v109.766h18.178v26.054c-10.502,3.151-18.178,12.901-18.178,24.415v36.289h21.797h53.424h21.796v-36.289
		c0-11.514-7.676-21.264-18.178-24.415v-26.054h88.643v26.054c-10.502,3.151-18.178,12.901-18.178,24.415v36.289h21.797h53.424
		h21.797v-36.289c0-11.514-7.677-21.265-18.179-24.415v-26.054h18.179V187.831h18.22v121.828h31.693v-154.59
		C365.252,140.351,353.277,128.376,338.558,128.376z M104.003,114.252h7.834v19.97h-7.834V114.252z M121.837,114.252h12v19.97h-12
		V114.252z M280.353,114.252v19.97h-9.516v-19.97H280.353z M260.838,134.222h-12v-19.97h12V134.222z M238.838,134.222h-20v-19.97h20
		V134.222z M208.838,134.222h-35v-19.97h35V134.222z M163.837,134.222h-20v-19.97h20V134.222z M192.178,10
		c24.721,0,47.094,10.23,63.12,26.674c-19.628,5.328-41.275,8.13-63.121,8.13c-21.843,0-43.493-2.801-63.124-8.126
		C145.08,20.232,167.455,10,192.178,10z M121.864,45.034c21.672,6.394,45.895,9.771,70.314,9.771
		c24.421,0,48.643-3.379,70.311-9.776c11.206,14.789,17.865,33.204,17.865,53.147v6.077H104.003v-6.077
		C104.003,78.234,110.66,59.821,121.864,45.034z M40.796,299.659H29.103v-144.59c0-7.464,4.923-13.799,11.693-15.928v16.978v31.712
		V299.659z M50.796,177.831v-11.712h18.22v11.712H50.796z M97.194,315.087h40.661v7.49H97.194V315.087z M100.813,374.355v-17.654
		h33.424v17.654H100.813z M156.033,348.066v26.289h-11.796v-27.654H90.813v27.654H79.016v-26.289
		c0-8.541,6.948-15.489,15.489-15.489h46.04C149.085,332.577,156.033,339.525,156.033,348.066z M137.856,305.087H97.194v-7.49
		h40.661V305.087z M246.499,315.087h40.661v7.49h-40.661V315.087z M250.118,374.355v-17.654h33.424v17.654H250.118z
		 M305.339,348.066v26.289h-11.797v-27.654h-53.424v27.654h-11.797v-26.289c0-8.541,6.948-15.489,15.488-15.489h46.04
		C298.39,332.577,305.339,339.525,305.339,348.066z M287.16,305.087h-40.661v-7.49h40.661V305.087z M305.339,287.597h-8.179h-60.661
		h-88.643H87.194h-8.178v-99.766v-31.712v-11.893h226.322v11.893v31.712V287.597z M315.339,177.831v-11.712h18.22v11.712H315.339z
		 M355.252,299.659h-11.693V187.831v-31.712v-16.978c6.77,2.13,11.693,8.465,11.693,15.928V299.659z"/>
	<path d="M114.68,210.906c-1.32,0-2.61,0.53-3.54,1.46c-0.93,0.93-1.46,2.22-1.46,3.54c0,1.31,0.53,2.6,1.46,3.53
		c0.93,0.93,2.22,1.47,3.54,1.47c1.31,0,2.6-0.54,3.53-1.47c0.93-0.93,1.47-2.22,1.47-3.53c0-1.32-0.54-2.61-1.47-3.54
		S115.99,210.906,114.68,210.906z"/>
	<path d="M176.68,210.906c-1.32,0-2.61,0.53-3.54,1.46c-0.93,0.93-1.46,2.22-1.46,3.54c0,1.31,0.53,2.6,1.46,3.53
		c0.93,0.93,2.22,1.47,3.54,1.47c1.31,0,2.6-0.54,3.53-1.47c0.93-0.93,1.47-2.22,1.47-3.53c0-1.32-0.54-2.61-1.47-3.54
		S177.99,210.906,176.68,210.906z"/>
	<path d="M207.68,210.906c-1.32,0-2.61,0.53-3.54,1.46s-1.46,2.22-1.46,3.54c0,1.31,0.53,2.6,1.46,3.53
		c0.93,0.93,2.22,1.47,3.54,1.47c1.31,0,2.6-0.54,3.53-1.47c0.93-0.93,1.47-2.22,1.47-3.53c0-1.32-0.54-2.61-1.47-3.54
		C210.28,211.436,208.99,210.906,207.68,210.906z"/>
	<path d="M238.68,210.906c-1.32,0-2.61,0.53-3.54,1.46s-1.46,2.22-1.46,3.54c0,1.31,0.53,2.6,1.46,3.53
		c0.93,0.93,2.22,1.47,3.54,1.47c1.31,0,2.6-0.54,3.53-1.47c0.93-0.93,1.47-2.22,1.47-3.53c0-1.32-0.54-2.61-1.47-3.54
		C241.28,211.436,239.99,210.906,238.68,210.906z"/>
	<path d="M145.68,210.906c-1.32,0-2.61,0.53-3.54,1.46c-0.93,0.93-1.46,2.22-1.46,3.54c0,1.31,0.53,2.6,1.46,3.53
		c0.93,0.93,2.22,1.47,3.54,1.47c1.31,0,2.6-0.54,3.53-1.47c0.93-0.93,1.47-2.22,1.47-3.53c0-1.32-0.54-2.61-1.47-3.54
		S147,210.906,145.68,210.906z"/>
	<path d="M269.68,210.906c-1.32,0-2.61,0.53-3.54,1.46s-1.46,2.22-1.46,3.54c0,1.31,0.53,2.6,1.46,3.53
		c0.93,0.93,2.22,1.47,3.54,1.47c1.31,0,2.6-0.54,3.53-1.47c0.93-0.93,1.47-2.22,1.47-3.53c0-1.32-0.54-2.61-1.47-3.54
		C272.28,211.436,270.99,210.906,269.68,210.906z"/>
</g>
<g>
</g>
<g>
</g>
<g>
</g>
<g>
</g>
<g>
</g>
<g>
</g>
<g>
</g>
<g>
</g>
<g>
</g>
<g>
</g>
<g>
</g>
<g>
</g>
<g>
</g>
<g>
</g>
<g>
</g>
</svg>
