<?xml version="1.0" encoding="iso-8859-1"?>
<!-- Generator: Adobe Illustrator 18.0.0, SVG Export Plug-In . SVG Version: 6.00 Build 0)  -->
<!DOCTYPE svg PUBLIC "-//W3C//DTD SVG 1.1//EN" "http://www.w3.org/Graphics/SVG/1.1/DTD/svg11.dtd">
<svg version="1.1" id="Capa_1" xmlns="http://www.w3.org/2000/svg" xmlns:xlink="http://www.w3.org/1999/xlink" x="0px" y="0px"
	 viewBox="0 0 465.129 465.129" style="enable-background:new 0 0 465.129 465.129;" xml:space="preserve">
<g>
	<path d="M215.944,78.5c0-9.65-7.851-17.5-17.5-17.5s-17.5,7.85-17.5,17.5s7.851,17.5,17.5,17.5S215.944,88.15,215.944,78.5z
		 M198.444,86c-4.136,0-7.5-3.365-7.5-7.5s3.364-7.5,7.5-7.5s7.5,3.365,7.5,7.5S202.58,86,198.444,86z"/>
	<path d="M266.683,61c-9.649,0-17.5,7.85-17.5,17.5s7.851,17.5,17.5,17.5s17.5-7.85,17.5-17.5S276.333,61,266.683,61z M266.683,86
		c-4.136,0-7.5-3.365-7.5-7.5s3.364-7.5,7.5-7.5s7.5,3.365,7.5,7.5S270.819,86,266.683,86z"/>
	<path d="M296.482,153.476l8.539-31.055h-23.328c13.978-13.243,22.007-31.604,22.007-51.42c0-39.15-31.851-71-71-71s-71,31.85-71,71
		c0,19.824,8.029,38.184,22.007,51.42h-23.599l8.539,31.056c-13.705,17.559-21.239,39.329-21.239,61.646v124.23
		c0,7.236,2.817,14.039,7.935,19.156l5.926,5.925l7.07-7.071l-5.925-5.925c-3.038-3.038-4.791-7.018-4.987-11.281l3.795,3.897
		l7.164-6.977l-10.978-11.273V215.123c0-17.514,5.159-34.652,14.651-49.234l1.041,3.786V243h12.895
		c2.329,21.841,19.728,39.24,41.569,41.569V413.56c-23.484,2.504-41.839,22.431-41.839,46.569v5h93.677v-5
		c0-24.138-18.354-44.064-41.838-46.569V284.569c21.84-2.329,39.239-19.728,41.568-41.569h12.896v-73.326l1.041-3.786
		c9.492,14.582,14.651,31.72,14.651,49.234v110.681l-10.978,11.273l7.164,6.977l3.795-3.897c-0.196,4.263-1.949,8.243-4.988,11.281
		l-5.925,5.925l7.072,7.071l5.924-5.925c5.117-5.116,7.936-11.92,7.936-19.156v-124.23
		C317.721,192.805,310.187,171.035,296.482,153.476z M171.699,71c0-33.635,27.364-61,61-61s61,27.365,61,61
		c0,21.019-10.512,40.136-28.185,51.42h-15.45V106.5c0-9.649-7.851-17.5-17.5-17.5s-17.5,7.851-17.5,17.5v15.92h-15.172
		C182.214,111.148,171.699,92.031,171.699,71z M240.064,122.42h-15V106.5c0-4.135,3.364-7.5,7.5-7.5s7.5,3.365,7.5,7.5V122.42z
		 M291.899,132.42L283.218,164H181.911l-8.683-31.58H291.899z M269.064,455.129h-73.001c2.448-17.956,17.884-31.839,36.501-31.839
		C251.181,423.29,266.616,437.173,269.064,455.129z M232.564,274.839c-18.617,0-34.042-13.883-36.49-31.839h72.98
		C266.605,260.955,251.18,274.839,232.564,274.839z M282.028,233H183.1v-59h98.928V233z"/>
	<path d="M247.064,181.5h-29v44h29V181.5z M237.064,191.5v7h-9v-7H237.064z M228.064,215.5v-7h9v7H228.064z"/>
</g>
<g>
</g>
<g>
</g>
<g>
</g>
<g>
</g>
<g>
</g>
<g>
</g>
<g>
</g>
<g>
</g>
<g>
</g>
<g>
</g>
<g>
</g>
<g>
</g>
<g>
</g>
<g>
</g>
<g>
</g>
</svg>
