<?xml version="1.0" encoding="iso-8859-1"?>
<!-- Generator: Adobe Illustrator 18.0.0, SVG Export Plug-In . SVG Version: 6.00 Build 0)  -->
<!DOCTYPE svg PUBLIC "-//W3C//DTD SVG 1.1//EN" "http://www.w3.org/Graphics/SVG/1.1/DTD/svg11.dtd">
<svg version="1.1" id="Capa_1" xmlns="http://www.w3.org/2000/svg" xmlns:xlink="http://www.w3.org/1999/xlink" x="0px" y="0px"
	 viewBox="0 0 457.567 457.567" style="enable-background:new 0 0 457.567 457.567;" xml:space="preserve">
<g>
	<path d="M256.027,78.663c1.319,0,2.609-0.54,3.529-1.47c0.94-0.93,1.471-2.21,1.471-3.53c0-1.32-0.53-2.6-1.471-3.54
		c-0.93-0.93-2.21-1.46-3.529-1.46c-1.32,0-2.601,0.53-3.54,1.46c-0.931,0.93-1.46,2.22-1.46,3.54c0,1.32,0.529,2.61,1.46,3.53
		C253.417,78.123,254.707,78.663,256.027,78.663z"/>
	<path d="M186.988,70.432h-8.851c-2.762,0-5,2.239-5,5s2.238,5,5,5h8.851c2.762,0,5-2.239,5-5S189.75,70.432,186.988,70.432z"/>
	<path d="M239.447,118.799c0-2.761-2.238-5-5-5h-30.091c-2.762,0-5,2.239-5,5s2.238,5,5,5h30.091
		C237.208,123.799,239.447,121.561,239.447,118.799z"/>
	<path d="M230.044,131.22c0-2.761-2.238-5-5-5h-11.286c-2.762,0-5,2.239-5,5s2.238,5,5,5h11.286
		C227.806,136.22,230.044,133.981,230.044,131.22z"/>
	<path d="M333.284,186.32v-38.753h10v-33h-10v23h-4v-23h-10v23h-5v-13h-10v23h19v38.753c-5.359,1.653-9.595,5.888-11.247,11.247
		h-31.488c-2.06-6.681-8.14-11.597-15.401-11.957c-3.856-8.284-12.254-14.043-21.977-14.043h-5.267v-12.408
		c20.977-4.997,39.535-18.314,50.804-37.196l-4.052-7.345c5.441-10.438,8.289-22.029,8.289-33.947
		c0-37.551-28.479-68.757-64.964-73.029l-3.804-7.5C222.607,0.048,221,0,219.398,0c-37.916,0-69.787,26.301-78.376,61.612
		c-0.173-0.006-0.343-0.03-0.516-0.03c-10,0-17.833,9.971-17.833,22.701s7.833,22.701,17.833,22.701c0.862,0,1.72-0.088,2.569-0.242
		c8.911,26.013,30.753,46.059,57.829,52.438v12.389h-5.271c-11.958,0-21.913,8.708-23.875,20.114
		c-5.494,1.287-16.24,4.219-27.103,9.505c-21.178,10.306-32.371,24.615-32.371,41.381c0,21.623,18.182,36.128,51.195,40.842
		c3.367,0.481,4.643,3.057,4.713,5.307c0.07,2.213-1.022,4.82-4.297,5.5c-0.88,0.183-1.847,0.303-2.874,0.357l0.525,9.986
		c1.533-0.081,3.008-0.267,4.384-0.553c2.023-0.421,3.86-1.21,5.471-2.274v9.834h0.113c0.52,18.108,3.301,82.469,17.236,136h-10.466
		v10h32.605l12.001-146h7.394v23c0,9.299,6.388,17.113,15,19.342v7.411c-6.941,2.14-12,8.613-12,16.247s5.059,14.107,12,16.247
		v2.111c-8.612,2.229-15,10.043-15,19.342v7c0,9.515,6.685,17.485,15.601,19.497c2.194,9.052,10.344,15.803,20.061,15.803h8.338v-10
		h-8.338c-5.879,0-10.662-4.783-10.662-10.662v-41.638v-1.453c6.941-2.14,12-8.613,12-16.247s-5.059-14.107-12-16.247v-49.753
		h12.117v-39h-8.117v-23h8.117v-30.297c6.245-1.157,11.304-5.726,13.148-11.703h31.488c2.14,6.941,8.613,12,16.247,12
		c9.374,0,17-7.626,17-17C345.284,194.933,340.225,188.461,333.284,186.32z M236.638,78.662c1.817,7.036,7.353,12.572,14.389,14.389
		v11.725c-5.151-3.06-9.941-6.795-14.232-11.187c-4.41-4.514-8.114-9.539-11.094-14.926H236.638z M256.027,63.616
		c5.539,0,10.045,4.507,10.045,10.046s-4.506,10.046-10.045,10.046s-10.046-4.506-10.046-10.046S250.488,63.616,256.027,63.616z
		 M261.027,93.051c7.035-1.817,12.572-7.353,14.388-14.389h7.479c0.021,0.669,0.051,1.336,0.051,2.01
		c0,11.581-3.117,22.798-9.025,32.644c-4.428-0.796-8.741-2.019-12.893-3.645V93.051z M281.786,68.662h-6.371
		c-1.817-7.036-7.353-12.572-14.388-14.389V32.764C271.549,41.924,279.046,54.467,281.786,68.662z M223.023,17.235
		c10.148,0.573,19.664,3.565,28.004,8.385v28.653c-7.036,1.817-12.573,7.353-14.389,14.389h-15.474
		c-2.662-7.418-4.059-15.312-4.059-23.41C217.105,35.523,219.137,26.005,223.023,17.235z M207.186,48.622
		c-22.811-2.407-31.778-15.028-34.705-20.747c11.536-10.263,26.439-16.819,42.827-17.758c-5.388,10.87-8.203,22.859-8.203,35.135
		C207.105,46.379,207.139,47.502,207.186,48.622z M132.672,84.282c0-6.63,3.239-11.472,6.554-12.493
		c-0.321,2.919-0.5,5.879-0.5,8.882c0,5.583,0.572,11.035,1.657,16.302C136.71,96.861,132.672,91.686,132.672,84.282z
		 M148.727,80.671c0-17.243,6.219-33.053,16.516-45.333c5.254,8.458,17.404,21.44,43.029,23.426
		c2.691,15.695,10.032,30.209,21.368,41.812c12.427,12.719,28.447,20.751,45.816,23.116c-13.28,17.23-34.085,27.65-56.06,27.65
		C180.43,151.343,148.727,119.64,148.727,80.671z M210.904,160.893c2.792,0.294,5.625,0.45,8.494,0.45
		c2.857,0,5.695-0.162,8.506-0.464v10.689h-17V160.893z M181.401,195.798c0-7.847,6.384-14.231,14.231-14.231h18.769v120h-33
		V195.798z M171.401,260.898c-11.84-3.948-24.993-11.009-24.156-17.71c0.925-7.397,14.441-11.039,24.156-12.208V260.898z
		 M164.893,273.51c-15.913-2.272-42.609-9.314-42.609-30.943c0-25.14,34.917-36.786,49.117-40.482v18.853
		c-3.299,0.35-7.898,1.02-12.62,2.303c-16.358,4.446-20.698,12.625-21.458,18.705c-2.107,16.857,23.741,26.327,34.078,29.421v4.608
		C169.513,274.718,167.313,273.856,164.893,273.51z M201.678,447.567h-2.586c-14.199-52.775-17.041-117.643-17.575-136h31.338
		L201.678,447.567z M240.284,422.267v-7c0-3.694,2.013-6.927,5-8.658v24.316C242.296,429.194,240.284,425.961,240.284,422.267z
		 M250.284,384.567c-3.859,0-7-3.14-7-7s3.141-7,7-7s7,3.14,7,7S254.143,384.567,250.284,384.567z M245.284,343.214
		c-2.984-1.732-5-4.955-5-8.647v-23h5V343.214z M224.401,301.567v-77h18.883v-10h-18.883v-4h18.883v-10h-18.883v-19h18.77
		c7.847,0,14.23,6.384,14.23,14.231v43.769h-9.617c-11.855,0-21.5,9.645-21.5,21.5s9.645,21.5,21.5,21.5h9.617v6h-16.117v10h16.117
		v3H224.401z M249.284,272.567h-1.5c-6.341,0-11.5-5.159-11.5-11.5s5.159-11.5,11.5-11.5h1.5V272.567z M267.401,208.834v-12.534
		c2.307,1.146,3.9,3.521,3.9,6.267S269.708,207.688,267.401,208.834z M328.284,209.567c-3.859,0-7-3.14-7-7s3.141-7,7-7s7,3.14,7,7
		S332.143,209.567,328.284,209.567z"/>
</g>
<g>
</g>
<g>
</g>
<g>
</g>
<g>
</g>
<g>
</g>
<g>
</g>
<g>
</g>
<g>
</g>
<g>
</g>
<g>
</g>
<g>
</g>
<g>
</g>
<g>
</g>
<g>
</g>
<g>
</g>
</svg>
