<?xml version="1.0" encoding="iso-8859-1"?>
<!-- Generator: Adobe Illustrator 19.0.0, SVG Export Plug-In . SVG Version: 6.00 Build 0)  -->
<svg version="1.1" id="Capa_1" xmlns="http://www.w3.org/2000/svg" xmlns:xlink="http://www.w3.org/1999/xlink" x="0px" y="0px"
	 viewBox="0 0 463 463" style="enable-background:new 0 0 463 463;" xml:space="preserve">
<path d="M359.5,0h-64C286.953,0,280,6.953,280,15.5v16c0,0.089,0.01,0.175,0.013,0.264c-0.109,0.081-0.217,0.164-0.325,0.246
	c-0.063-0.002-0.125-0.01-0.188-0.01H239V15.5c0-4.142-3.358-7.5-7.5-7.5s-7.5,3.358-7.5,7.5V32h-40.5
	c-0.064,0-0.125,0.008-0.188,0.01c-0.108-0.082-0.216-0.165-0.325-0.246C182.99,31.675,183,31.589,183,31.5v-16
	C183,6.953,176.047,0,167.5,0h-64C94.953,0,88,6.953,88,15.5v32c0,8.547,6.953,15.5,15.5,15.5h16.513
	c-0.002,0.167-0.013,0.332-0.013,0.5c0,21.78,17.72,39.5,39.5,39.5c11.954,0,22.676-5.345,29.925-13.762L208,99.852V120h-0.5
	c-3.441,0-6.441,2.342-7.276,5.681L193.644,152H167.5c-12.958,0-23.5,10.542-23.5,23.5c0,7.647,3.673,14.451,9.346,18.745
	l-9.919,29.757C130.503,224.042,120,234.566,120,247.5c0,10.336,6.71,19.128,16,22.266v19.461c-9.292,3.137-16,11.936-16,22.273
	c0,12.958,10.542,23.5,23.5,23.5s23.5-10.542,23.5-23.5c0-4.142-3.358-7.5-7.5-7.5s-7.5,3.358-7.5,7.5c0,4.687-3.813,8.5-8.5,8.5
	s-8.5-3.813-8.5-8.5s3.813-8.5,8.5-8.5c4.142,0,7.5-3.358,7.5-7.5v-25.734c9.29-3.138,16-11.93,16-22.266
	c0-7.647-3.673-14.451-9.346-18.745L167.572,199h9.023l4.799,21.598c2.408,10.835,11.841,18.402,22.94,18.402H208v17h-0.5
	c-12.958,0-23.5,10.542-23.5,23.5c0,8.114,4.134,15.28,10.406,19.505l-12.283,45.039C169.804,344.759,160,355.004,160,367.5
	c0,10.336,6.71,19.128,16,22.266V448h-24.5c-4.142,0-7.5,3.358-7.5,7.5s3.358,7.5,7.5,7.5h48c1.989,0,3.897-0.79,5.303-2.197l8-8
	c2.929-2.929,2.929-7.678,0-10.606c-2.929-2.929-7.678-2.929-10.606,0L196.394,448H191v-58.234c9.29-3.138,16-11.93,16-22.266
	c0-8.114-4.134-15.28-10.406-19.505L208.865,303h45.271l12.271,44.995C260.134,352.22,256,359.386,256,367.5
	c0,10.336,6.71,19.128,16,22.266V448h-5.394l-5.803-5.803c-2.929-2.929-7.678-2.929-10.606,0c-2.929,2.929-2.929,7.678,0,10.606l8,8
	c1.406,1.407,3.314,2.197,5.303,2.197h48c4.142,0,7.5-3.358,7.5-7.5s-3.358-7.5-7.5-7.5H287v-58.234c9.29-3.138,16-11.93,16-22.266
	c0-12.496-9.804-22.741-22.123-23.456l-12.283-45.039C274.866,294.78,279,287.614,279,279.5c0-12.958-10.542-23.5-23.5-23.5H255v-17
	h3.665c11.099,0,20.533-7.567,22.94-18.402L286.405,199h9.023l9.918,29.755C299.673,233.049,296,239.853,296,247.5
	c0,10.336,6.71,19.128,16,22.266V295.5c0,4.142,3.358,7.5,7.5,7.5c4.687,0,8.5,3.813,8.5,8.5s-3.813,8.5-8.5,8.5s-8.5-3.813-8.5-8.5
	c0-4.142-3.358-7.5-7.5-7.5s-7.5,3.358-7.5,7.5c0,12.958,10.542,23.5,23.5,23.5s23.5-10.542,23.5-23.5
	c0-10.337-6.708-19.136-16-22.273v-19.461c9.29-3.138,16-11.93,16-22.266c0-12.934-10.503-23.458-23.427-23.498l-9.919-29.757
	c5.673-4.294,9.346-11.098,9.346-18.745c0-12.958-10.542-23.5-23.5-23.5h-26.144l-6.58-26.319c-0.834-3.339-3.834-5.681-7.276-5.681
	H255V99.852l18.575-10.614C280.824,97.655,291.546,103,303.5,103c21.78,0,39.5-17.72,39.5-39.5c0-0.168-0.011-0.333-0.013-0.5H359.5
	c8.547,0,15.5-6.953,15.5-15.5v-32C375,6.953,368.047,0,359.5,0z M103.5,48c-0.276,0-0.5-0.224-0.5-0.5v-32
	c0-0.276,0.224-0.5,0.5-0.5h64c0.276,0,0.5,0.224,0.5,0.5v9.431c-2.74-0.603-5.582-0.931-8.5-0.931c-16.281,0-30.29,9.903-36.328,24
	H103.5z M159.5,88C145.991,88,135,77.009,135,63.5S145.991,39,159.5,39S184,49.991,184,63.5S173.009,88,159.5,88z M143.5,256
	c-4.687,0-8.5-3.813-8.5-8.5s3.813-8.5,8.5-8.5s8.5,3.813,8.5,8.5S148.187,256,143.5,256z M167.5,184c-4.687,0-8.5-3.813-8.5-8.5
	s3.813-8.5,8.5-8.5h1.984l3.778,17H167.5z M207.5,271H224v17h-16.5c-4.687,0-8.5-3.813-8.5-8.5S202.813,271,207.5,271z M183.5,376
	c-4.687,0-8.5-3.813-8.5-8.5s3.813-8.5,8.5-8.5s8.5,3.813,8.5,8.5S188.187,376,183.5,376z M288,367.5c0,4.687-3.813,8.5-8.5,8.5
	s-8.5-3.813-8.5-8.5s3.813-8.5,8.5-8.5S288,362.813,288,367.5z M264,279.5c0,4.687-3.813,8.5-8.5,8.5H239v-17h16.5
	C260.187,271,264,274.813,264,279.5z M240,256h-17v-17h17V256z M258.665,224h-54.33c-4.015,0-7.427-2.737-8.298-6.656L195.516,215
	h71.967l-0.521,2.344C266.092,221.263,262.68,224,258.665,224z M328,247.5c0,4.687-3.813,8.5-8.5,8.5s-8.5-3.813-8.5-8.5
	s3.813-8.5,8.5-8.5S328,242.813,328,247.5z M304,175.5c0,4.687-3.813,8.5-8.5,8.5h-5.762l3.778-17h1.984
	C300.187,167,304,170.813,304,175.5z M270.817,200h-78.634l-7.333-33h93.301L270.817,200z M209.106,152l4.25-17h36.288l4.25,17
	H209.106z M223,120V87.5c0-4.687,3.813-8.5,8.5-8.5s8.5,3.813,8.5,8.5V120H223z M254.535,82.842C252.367,72.108,242.864,64,231.5,64
	s-20.867,8.108-23.035,18.842l-11.58-6.617C198.249,72.229,199,67.952,199,63.5c0-5.888-1.305-11.475-3.625-16.5h72.25
	C265.305,52.025,264,57.612,264,63.5c0,4.452,0.751,8.729,2.115,12.725L254.535,82.842z M303.5,88C289.991,88,279,77.009,279,63.5
	S289.991,39,303.5,39S328,49.991,328,63.5S317.009,88,303.5,88z M360,47.5c0,0.276-0.224,0.5-0.5,0.5h-19.672
	c-6.038-14.097-20.047-24-36.328-24c-2.918,0-5.76,0.328-8.5,0.931V15.5c0-0.276,0.224-0.5,0.5-0.5h64c0.276,0,0.5,0.224,0.5,0.5
	V47.5z"/>
<g>
</g>
<g>
</g>
<g>
</g>
<g>
</g>
<g>
</g>
<g>
</g>
<g>
</g>
<g>
</g>
<g>
</g>
<g>
</g>
<g>
</g>
<g>
</g>
<g>
</g>
<g>
</g>
<g>
</g>
</svg>
