<?xml version="1.0" encoding="iso-8859-1"?>
<!-- Generator: Adobe Illustrator 18.0.0, SVG Export Plug-In . SVG Version: 6.00 Build 0)  -->
<!DOCTYPE svg PUBLIC "-//W3C//DTD SVG 1.1//EN" "http://www.w3.org/Graphics/SVG/1.1/DTD/svg11.dtd">
<svg version="1.1" id="Capa_1" xmlns="http://www.w3.org/2000/svg" xmlns:xlink="http://www.w3.org/1999/xlink" x="0px" y="0px"
	 viewBox="0 0 467.236 467.236" style="enable-background:new 0 0 467.236 467.236;" xml:space="preserve">
<g>
	<path d="M269.925,152.827h-72.682c-10.336,0-18.745,8.409-18.745,18.746v45.193H288.67v-45.193
		C288.67,161.236,280.261,152.827,269.925,152.827z M202.98,206.766v-17.475c0-1.138,0.926-2.063,2.063-2.063
		s2.063,0.926,2.063,2.063v17.475H202.98z M231.521,206.766v-17.475c0-1.138,0.926-2.063,2.063-2.063s2.063,0.926,2.063,2.063
		v17.475H231.521z M260.061,206.766v-17.475c0-1.138,0.926-2.063,2.063-2.063s2.063,0.926,2.063,2.063v17.475H260.061z
		 M278.67,206.766h-4.482v-17.475c0-6.652-5.412-12.063-12.063-12.063s-12.063,5.412-12.063,12.063v17.475h-4.414v-17.475
		c0-6.652-5.412-12.063-12.063-12.063s-12.063,5.412-12.063,12.063v17.475h-4.414v-17.475c0-6.652-5.412-12.063-12.063-12.063
		s-12.063,5.412-12.063,12.063v17.475h-4.482v-35.193c0-4.822,3.923-8.746,8.745-8.746h72.682c4.822,0,8.745,3.923,8.745,8.746
		V206.766z"/>
	<rect x="136.547" y="151.107" width="31.395" height="10"/>
	<rect x="136.547" y="168.151" width="31.395" height="10"/>
	<rect x="299.227" y="151.107" width="31.395" height="10"/>
	<rect x="299.227" y="168.151" width="31.395" height="10"/>
	<rect x="193.595" y="282.903" width="10" height="42.667"/>
	<path d="M404.964,116.833c0-20.518-16.692-37.209-37.209-37.209h-15.171v16.189h-4.194V79.624h-26.345
		c-8.69,0-15.761,7.07-15.761,15.761v39.463h-31.739v-5.412h26.327V99.898v-5v-5h-0.096c-0.488-13.403-2.944-26.295-7.153-38.006
		c5.608-4.306,8.969-10.969,8.969-18.212c0-12.681-10.317-22.998-22.998-22.998c-3.92,0-7.766,1.016-11.16,2.898
		C258.059,4.727,246.108,0,233.584,0c-12.463,0-24.358,4.683-34.697,13.454c-3.333-1.796-7.085-2.771-10.911-2.771
		c-12.681,0-22.998,10.317-22.998,22.998c0,7.107,3.232,13.66,8.652,17.972c-4.261,11.775-6.745,24.752-7.237,38.246h-0.096v5v5
		v29.538h26.328v5.412h-31.739V95.385c0-8.69-7.07-15.761-15.761-15.761H118.78v16.189h-4.126V79.624H99.482
		c-20.518,0-37.209,16.692-37.209,37.209v43.425h6.421v83.477h5.101v22.783c0,10.44,7.294,19.202,17.052,21.474v16.316
		c-11.068,2.314-19.408,12.146-19.408,23.891c0,13.458,10.949,24.407,24.408,24.407h5v-31.744l22.446,22.446l3.536-3.536
		c9.517-9.517,9.517-25.001,0-34.518c-7.014-7.014-17.263-8.84-25.982-5.516v-56.004h13.806v-83.477v-10v-5.63h4.126v50.229h13.915
		c17.821,0,32.319,14.498,32.319,32.319v5h7.446l4.347,6.267l-9.976,7.61l9.972,7.602l-4.711,6.782h-14.716v31.483h5
		c7.903,0,14.332,6.429,14.332,14.332v0.815c-10.409,2.196-18.246,11.451-18.246,22.503v16c0,12.682,10.318,23,23,23h21.667v48.333
		h-8v-29.965c0-5.717-4.651-10.369-10.368-10.369h-22.597c-5.717,0-10.368,4.651-10.368,10.369v18.03
		c-7.312,2.163-12.667,8.931-12.667,16.935c0,8.004,5.355,14.772,12.667,16.935v18.03c0,5.717,4.651,10.368,10.368,10.368h22.597
		c5.717,0,10.368-4.651,10.368-10.368v-29.965h18V358.57h-31.667c-7.168,0-13-5.832-13-13v-16c0-5.49,3.425-10.184,8.246-12.087
		v29.087h44.419v-12.667h24.914v12.667h44.419v-29.112c4.857,1.886,8.314,6.597,8.314,12.112v16c0,7.168-5.832,13-13,13h-31.667
		v68.333h18v29.965c0,5.717,4.651,10.368,10.368,10.368h22.597c5.717,0,10.368-4.651,10.368-10.368v-18.03
		c7.312-2.163,12.667-8.931,12.667-16.935c0-8.004-5.355-14.772-12.667-16.935v-18.03c0-5.717-4.651-10.369-10.368-10.369h-22.597
		c-5.717,0-10.368,4.651-10.368,10.369v29.965h-8V368.57h21.667c12.682,0,23-10.318,23-23v-16c0-11.077-7.871-20.349-18.314-22.519
		v-0.799c0-7.903,6.429-14.332,14.332-14.332h5v-31.483h-14.708l-4.719-6.792l9.974-7.605l-9.976-7.604l4.344-6.259h7.447v-5
		c0-17.821,14.498-32.319,32.319-32.319h13.915v-50.229h4.194v5.63v10v83.477h13.806v56.004c-8.719-3.324-18.968-1.498-25.982,5.516
		c-9.517,9.517-9.517,25.001,0,34.518l3.536,3.536l22.446-22.446v31.744h5c13.458,0,24.408-10.949,24.408-24.407
		c0-11.745-8.34-21.577-19.408-23.891v-16.316c9.758-2.272,17.052-11.034,17.052-21.474v-22.783h5.101v-83.477h6.421V116.833z
		 M185.128,407.903h-23.333v-8h23.333V407.903z M161.795,417.903h23.333v8h-23.333V417.903z M185.128,435.903v8h-23.333v-8H185.128z
		 M162.163,386.57h22.597c0.203,0,0.368,0.166,0.368,0.369v2.965h-23.333v-2.965C161.795,386.735,161.96,386.57,162.163,386.57z
		 M149.128,421.903c0-2.317,1.037-4.393,2.667-5.8v11.599C150.165,426.296,149.128,424.22,149.128,421.903z M184.76,457.236h-22.597
		c-0.203,0-0.368-0.165-0.368-0.368v-2.965h23.333v2.965C185.128,457.071,184.963,457.236,184.76,457.236z M282.108,435.903h23.333
		v8h-23.333V435.903z M305.441,425.903h-23.333v-8h23.333V425.903z M282.108,407.903v-8h23.333v8H282.108z M305.073,457.236h-22.597
		c-0.203,0-0.368-0.165-0.368-0.368v-2.965h23.333v2.965C305.441,457.071,305.276,457.236,305.073,457.236z M318.108,421.903
		c0,2.317-1.037,4.392-2.667,5.799v-11.599C317.071,417.511,318.108,419.586,318.108,421.903z M282.476,386.57h22.597
		c0.203,0,0.368,0.166,0.368,0.369v2.965h-23.333v-2.965C282.108,386.735,282.273,386.57,282.476,386.57z M194.094,99.898h7.796
		v19.538h-7.796V99.898z M211.89,99.898h7.796v19.538h-7.796V99.898z M229.686,99.898h7.796v19.538h-7.796V99.898z M247.482,99.898
		h7.796v19.538h-7.796V99.898z M273.074,119.436h-7.796V99.898h7.796V119.436z M290.871,119.436h-7.796V99.898h7.796V119.436z
		 M292.591,33.68c0,3.13-1.113,6.069-3.052,8.369c-2.282-4.804-4.881-9.352-7.801-13.566c-1.807-2.608-3.704-5.043-5.678-7.312
		c1.134-0.318,2.317-0.488,3.534-0.488C286.76,20.683,292.591,26.513,292.591,33.68z M233.584,10
		c23.471,0,43.678,21.035,52.519,51.044h-5.056c-2.239-8.841-10.239-15.411-19.766-15.411s-17.527,6.57-19.766,15.411h-15.863
		c-2.239-8.841-10.239-15.411-19.766-15.411s-17.527,6.57-19.766,15.411h-5.056C189.906,31.035,210.113,10,233.584,10z
		 M271.693,66.044c0,5.741-4.67,10.411-10.411,10.411s-10.411-4.67-10.411-10.411s4.67-10.411,10.411-10.411
		S271.693,60.304,271.693,66.044z M216.298,66.044c0,5.741-4.67,10.411-10.411,10.411s-10.411-4.67-10.411-10.411
		s4.67-10.411,10.411-10.411S216.298,60.304,216.298,66.044z M174.978,33.68c0-7.167,5.831-12.998,12.998-12.998
		c1.101,0,2.176,0.137,3.211,0.399c-2.002,2.295-3.926,4.76-5.756,7.402c-2.858,4.124-5.404,8.57-7.651,13.26
		C175.995,39.491,174.978,36.673,174.978,33.68z M178.613,71.044h7.508c2.239,8.841,10.239,15.411,19.766,15.411
		s17.527-6.57,19.766-15.411h15.863c2.239,8.841,10.239,15.411,19.766,15.411s17.527-6.57,19.766-15.411h7.507
		c1.195,6.038,1.961,12.344,2.217,18.854H176.396C176.652,83.389,177.418,77.082,178.613,71.044z M176.298,99.898h7.796v19.538
		h-7.796V99.898z M202.625,129.436h61.918v5.412h-61.918V129.436z M77.685,129.773c0,3.93-2.19,7.356-5.412,9.129v-18.257
		C75.495,122.417,77.685,125.844,77.685,129.773z M78.694,175.872h25.959v3.699H78.694V175.872z M90.847,341.71
		c-5.487-2.037-9.408-7.326-9.408-13.513s3.921-11.476,9.408-13.513V341.71z M119.758,312.326
		c4.375,4.375,5.343,10.887,2.903,16.207l-19.11-19.11C108.872,306.983,115.384,307.951,119.758,312.326z M90.847,277.47
		c-4.154-1.904-7.052-6.092-7.052-10.952v-22.783h7.052V277.47z M78.694,233.735v-44.164h25.959v44.164H78.694z M104.654,165.872
		H78.694v-5.614h25.959V165.872z M104.654,150.258H72.273v-0.718c8.841-2.239,15.412-10.239,15.412-19.767
		c0-9.233-6.167-17.044-14.595-19.556c2.963-11.816,13.67-20.594,26.392-20.594h5.171V150.258z M114.654,134.628v-28.815h4.126
		v28.815H114.654z M281.85,244.52l1.996,1.521l-2.016,1.537h-96.503l-2.005-1.528l2.006-1.53H281.85z M221.127,323.903v-14.526
		h24.914v14.526H221.127z M222.183,299.377c1.931-4.385,6.311-7.457,11.401-7.457s9.471,3.073,11.401,7.457H222.183z
		 M299.793,282.437c-11.027,2.312-19.332,12.112-19.332,23.815v30.318h-24.419v-32.193c0-12.383-10.074-22.457-22.457-22.457
		s-22.457,10.074-22.457,22.457v32.193h-24.419v-30.318c0-11.704-8.305-21.504-19.332-23.815v-12h132.417V282.437z M184.268,260.437
		l1.985-2.858h94.669l1.986,2.858H184.268z M280.91,234.52h-94.655l-1.625-2.343h97.906L280.91,234.52z M338.388,184.858h-3.915
		c-21.643,0-39.543,16.333-42.025,37.319H174.72c-2.482-20.986-20.383-37.319-42.025-37.319h-3.915V89.624h16.345
		c3.176,0,5.761,2.584,5.761,5.761v49.463h165.397V95.385c0-3.176,2.584-5.761,5.761-5.761h16.345V184.858z M348.456,134.628
		v-28.815h4.126v28.815H348.456z M362.583,89.624h5.171c12.722,0,23.429,8.778,26.392,20.594
		c-8.428,2.512-14.595,10.323-14.595,19.556c0,9.528,6.571,17.528,15.412,19.767v0.718h-32.381V89.624z M394.964,120.645v18.257
		c-3.222-1.772-5.412-5.199-5.412-9.129S391.741,122.417,394.964,120.645z M362.583,175.872h25.959v3.699h-25.959V175.872z
		 M362.583,189.571h25.959v44.164h-25.959V189.571z M344.575,328.533c-2.44-5.32-1.472-11.832,2.903-16.207
		c2.809-2.809,6.498-4.213,10.188-4.213c2.057,0,4.115,0.437,6.02,1.311L344.575,328.533z M385.797,328.198
		c0,6.187-3.921,11.476-9.408,13.513v-27.026C381.876,316.722,385.797,322.011,385.797,328.198z M383.441,266.518
		c0,4.861-2.898,9.048-7.052,10.952v-33.735h7.052V266.518z M388.542,165.872h-25.959v-5.614h25.959V165.872z"/>
	<rect x="263.641" y="282.903" width="10" height="42.667"/>
</g>
<g>
</g>
<g>
</g>
<g>
</g>
<g>
</g>
<g>
</g>
<g>
</g>
<g>
</g>
<g>
</g>
<g>
</g>
<g>
</g>
<g>
</g>
<g>
</g>
<g>
</g>
<g>
</g>
<g>
</g>
</svg>
