<?xml version="1.0" encoding="iso-8859-1"?>
<!-- Generator: Adobe Illustrator 18.0.0, SVG Export Plug-In . SVG Version: 6.00 Build 0)  -->
<!DOCTYPE svg PUBLIC "-//W3C//DTD SVG 1.1//EN" "http://www.w3.org/Graphics/SVG/1.1/DTD/svg11.dtd">
<svg version="1.1" id="Capa_1" xmlns="http://www.w3.org/2000/svg" xmlns:xlink="http://www.w3.org/1999/xlink" x="0px" y="0px"
	 viewBox="0 0 481.98 481.98" style="enable-background:new 0 0 481.98 481.98;" xml:space="preserve">
<g>
	<path d="M330.636,373.789v-193.24c13.615-2.377,23.999-14.274,23.999-28.559c0-15.99-13.009-28.999-28.999-28.999
		c-9.409,0-17.782,4.507-23.083,11.472c-4.056-9.823-13.765-16.716-24.873-16.716h-21.19v-5.771h38.889
		c18.126,0,32.873-14.747,32.873-32.874c0-16.427-12.111-30.078-27.873-32.494v-12.88c7.073-2.149,12.237-8.726,12.237-16.492
		C312.615,7.732,304.883,0,295.378,0s-17.237,7.732-17.237,17.237c0,7.766,5.164,14.343,12.237,16.492v12.5h-98.775v-12.5
		c7.073-2.149,12.237-8.726,12.237-16.492C203.84,7.732,196.108,0,186.603,0s-17.237,7.732-17.237,17.237
		c0,7.766,5.164,14.343,12.237,16.492v12.879c-15.762,2.416-27.874,16.067-27.874,32.494c0,18.127,14.747,32.874,32.874,32.874
		h38.888v5.771h-21.19c-11.108,0-20.817,6.894-24.873,16.717c-5.301-6.965-13.675-11.473-23.084-11.473
		c-15.99,0-28.999,13.009-28.999,28.999c0,14.285,10.385,26.182,23.999,28.559v193.265c-3.521,1.089-6.836,3.012-9.618,5.794
		c-9.143,9.143-9.143,24.019,0,33.161l7.071-7.071c-5.244-5.243-5.244-13.775,0-19.019c5.243-5.244,13.775-5.244,19.019,0
		l7.071-7.071c-3.798-3.798-8.588-5.994-13.543-6.636V180.549c5.194-0.907,9.916-3.198,13.772-6.481l-4.924,65.419h24.546v213.006
		c-8.104,5.148-13.497,14.198-13.497,24.488v5h57.998v-5c0-10.293-5.395-19.344-13.501-24.491V239.486h30.5V452.49
		c-8.105,5.148-13.499,14.198-13.499,24.49v5h57.997v-5c0-10.292-5.394-19.341-13.498-24.489V239.486h24.548l-4.923-65.418
		c3.856,3.283,8.578,5.574,13.771,6.481v192.392c-5.112,0.657-9.839,2.963-13.543,6.667l7.072,7.071
		c2.539-2.54,5.916-3.939,9.509-3.939c3.592,0,6.969,1.399,9.509,3.939c5.244,5.243,5.244,13.775,0,19.019l7.072,7.071
		c9.142-9.143,9.142-24.019-0.001-33.161C337.52,376.874,334.228,374.9,330.636,373.789z M209.301,127.748h63.379v31.458
		c0,13.531-11.008,24.539-24.539,24.539H233.84c-13.531,0-24.539-11.008-24.539-24.539V127.748z M288.141,17.237
		c0-3.991,3.247-7.237,7.237-7.237s7.237,3.247,7.237,7.237s-3.247,7.237-7.237,7.237S288.141,21.228,288.141,17.237z
		 M179.365,17.237c0-3.991,3.247-7.237,7.237-7.237s7.237,3.247,7.237,7.237s-3.247,7.237-7.237,7.237
		S179.365,21.228,179.365,17.237z M186.603,101.977c-12.613,0-22.874-10.261-22.874-22.874c0-12.612,10.261-22.874,22.874-22.874
		h108.775c12.612,0,22.873,10.261,22.873,22.874c0,12.613-10.261,22.874-22.873,22.874H186.603z M235.491,111.977h10.999v5.771
		h-10.999V111.977z M156.344,170.989c-10.476,0-18.999-8.523-18.999-18.999c0-10.476,8.523-18.999,18.999-18.999
		s18.999,8.523,18.999,18.999C175.344,162.466,166.821,170.989,156.344,170.989z M215.74,428.732h-11v-14.636h11V428.732z
		 M215.74,404.362h-11v-15.575h11V404.362z M215.74,379.053h-11v-15.575h11V379.053z M215.74,353.744h-11v-15.575h11V353.744z
		 M215.74,328.435h-11v-15.575h11V328.435z M215.74,303.125h-11V287.55h11V303.125z M215.74,277.816h-11v-15.575h11V277.816z
		 M191.91,471.98c2.2-8.058,9.585-13.999,18.332-13.999c8.746,0,16.131,5.94,18.331,13.999H191.91z M210.242,447.982
		c-1.882,0-3.72,0.186-5.502,0.53v-10.045h11v10.044C213.958,448.168,212.122,447.982,210.242,447.982z M215.74,252.506h-11v-13.02
		h11V252.506z M277.24,428.732h-11v-14.636h11V428.732z M277.24,404.362h-11v-15.575h11V404.362z M277.24,379.053h-11v-15.575h11
		V379.053z M277.24,353.744h-11v-15.575h11V353.744z M277.24,328.435h-11v-15.575h11V328.435z M277.24,303.125h-11V287.55h11
		V303.125z M277.24,277.816h-11v-15.575h11V277.816z M253.408,471.98c2.199-8.058,9.584-13.999,18.33-13.999
		s16.132,5.94,18.331,13.999H253.408z M271.739,447.982c-1.88,0-3.717,0.186-5.499,0.53v-10.045h11v10.045
		C275.457,448.168,273.62,447.982,271.739,447.982z M277.24,252.506h-11v-13.02h11V252.506z M180.974,229.486l6.48-86.112
		c0.529-7.031,5.403-12.831,11.846-14.852v30.684c0,19.044,15.494,34.539,34.539,34.539h14.301
		c19.045,0,34.539-15.494,34.539-34.539v-30.684c6.443,2.021,11.317,7.82,11.846,14.851l6.48,86.113H180.974z M306.637,151.99
		c0-10.476,8.522-18.999,18.999-18.999s18.999,8.523,18.999,18.999c0,10.476-8.522,18.999-18.999,18.999
		S306.637,162.466,306.637,151.99z"/>
	<path d="M240.99,174.246c10.2,0,18.499-8.299,18.499-18.5s-8.299-18.5-18.499-18.5c-10.201,0-18.5,8.299-18.5,18.5
		S230.79,174.246,240.99,174.246z M240.99,147.247c4.687,0,8.499,3.813,8.499,8.5s-3.813,8.5-8.499,8.5s-8.5-3.813-8.5-8.5
		S236.304,147.247,240.99,147.247z"/>
	<path d="M312.841,79.103c0-9.629-7.834-17.463-17.463-17.463H186.603c-9.629,0-17.463,7.834-17.463,17.463
		c0,9.629,7.834,17.463,17.463,17.463h108.775C305.007,96.566,312.841,88.732,312.841,79.103z M302.841,79.103
		c0,4.115-3.348,7.463-7.463,7.463h-5.89V71.64h5.89C299.493,71.64,302.841,74.988,302.841,79.103z M231.491,71.64h18.999v14.926
		h-18.999V71.64z M221.491,86.566h-18.999V71.64h18.999V86.566z M260.49,71.64h18.999v14.926H260.49V71.64z M179.139,79.103
		c0-4.115,3.348-7.463,7.463-7.463h5.89v14.926h-5.89C182.488,86.566,179.139,83.218,179.139,79.103z"/>
	<path d="M195.993,207.739c-1.32,0-2.61,0.54-3.54,1.47c-0.93,0.93-1.46,2.22-1.46,3.53c0,1.32,0.53,2.61,1.46,3.54
		c0.93,0.93,2.22,1.46,3.54,1.46c1.32,0,2.6-0.53,3.53-1.46c0.94-0.93,1.47-2.22,1.47-3.54c0-1.31-0.53-2.6-1.47-3.53
		C198.593,208.279,197.313,207.739,195.993,207.739z"/>
	<circle cx="213.993" cy="212.739" r="5"/>
	<path d="M267.993,207.739c-2.771,0-5.01,2.24-5.01,5c0,2.76,2.239,5,5.01,5c2.76,0,4.99-2.24,4.99-5
		C272.984,209.979,270.753,207.739,267.993,207.739z"/>
	<path d="M231.993,207.739c-2.77,0-5,2.24-5,5c0,2.76,2.23,5,5,5c2.76,0,5-2.24,5-5
		C236.993,209.979,234.753,207.739,231.993,207.739z"/>
	<path d="M249.993,207.739c-2.771,0-5,2.24-5,5c0,2.76,2.229,5,5,5c2.76,0,5-2.24,5-5
		C254.993,209.979,252.753,207.739,249.993,207.739z"/>
	<path d="M285.984,207.739c-1.311,0-2.601,0.54-3.53,1.47c-0.93,0.93-1.47,2.22-1.47,3.53c0,1.32,0.54,2.61,1.47,3.54
		c0.93,0.93,2.22,1.46,3.53,1.46c1.319,0,2.609-0.53,3.54-1.46c0.93-0.93,1.47-2.22,1.47-3.54c0-1.31-0.54-2.6-1.47-3.53
		C288.593,208.279,287.303,207.739,285.984,207.739z"/>
</g>
<g>
</g>
<g>
</g>
<g>
</g>
<g>
</g>
<g>
</g>
<g>
</g>
<g>
</g>
<g>
</g>
<g>
</g>
<g>
</g>
<g>
</g>
<g>
</g>
<g>
</g>
<g>
</g>
<g>
</g>
</svg>
