<svg id="icons" enable-background="new 0 0 64 64" height="512" viewBox="0 0 64 64" width="512" xmlns="http://www.w3.org/2000/svg"><g><path d="m38.017 48.524c2.939 0 5.702-1.145 7.78-3.222 4.287-4.289 4.287-11.268 0-15.557-2.078-2.077-4.841-3.221-7.78-3.221-2.938 0-5.701 1.144-7.778 3.221-4.289 4.289-4.289 11.268 0 15.557 2.076 2.078 4.839 3.222 7.778 3.222zm-6.365-17.364c1.699-1.699 3.96-2.635 6.364-2.635 2.405 0 4.666.936 6.366 2.635 3.507 3.509 3.507 9.22 0 12.729-1.7 1.699-3.961 2.635-6.366 2.636-2.404 0-4.665-.937-6.364-2.636-3.508-3.51-3.508-9.219 0-12.729z"/><path d="m52.16 23.383c-.391-.391-1.023-.391-1.414 0s-.391 1.023 0 1.414c7.016 7.018 7.016 18.438 0 25.455-7.018 7.017-18.438 7.018-25.457 0-.391-.391-1.023-.391-1.414 0s-.391 1.023 0 1.414c3.898 3.898 9.02 5.848 14.142 5.848s10.244-1.949 14.144-5.848c7.795-7.798 7.795-20.485-.001-28.283z"/><path d="m6.033 27.602c.009.103.021.205.061.302.043.103.107.19.18.272.014.016.019.036.033.051l.003.003c.001.001.001.001.002.002l20.388 20.603c.001.001.002.001.002.002.001 0 .001.001.002.002 3.119 3.119 7.216 4.679 11.313 4.679s8.194-1.56 11.313-4.679c6.235-6.235 6.238-16.38.008-22.618-.004-.005-.006-.011-.01-.015l-20.602-20.389c-.001-.001-.001-.001-.002-.002l-.003-.003c-.015-.015-.034-.02-.049-.032-.083-.072-.172-.137-.276-.18-.095-.039-.195-.051-.296-.06-.028-.002-.054-.017-.083-.017-.001 0-.002.001-.003.001-.13 0-.26.025-.383.077-.121.051-.231.126-.322.218-.001 0-.002.001-.002.001-.015.015-.02.035-.033.05-.072.083-.137.171-.18.273-.039.097-.052.199-.061.301-.002.027-.016.051-.016.079v6.933c-9.818-4.208-19.55-7.83-19.651-7.868-.369-.137-.78-.047-1.056.23s-.366.689-.23 1.056c.038.102 3.66 9.831 7.868 19.649h-6.93c-.029 0-.055.015-.083.017-.101.009-.201.021-.296.06-.104.043-.192.108-.275.181-.015.013-.034.018-.049.032 0 0-.001.001-.001.002-.093.092-.167.202-.219.324-.051.122-.076.252-.076.382 0 .001-.001.002-.001.003 0 .028.013.05.015.078zm2.702-19.359c3.503 1.335 10.941 4.221 18.282 7.391v2.894c0 .553.447 1 1 1s1-.447 1-1v-9.608l18.891 18.693c.004.004.005.009.008.012 5.458 5.459 5.458 14.34 0 19.799-5.459 5.459-14.34 5.459-19.799 0l-18.703-18.9h9.605c.553 0 1-.447 1-1s-.447-1-1-1h-2.894c-3.169-7.341-6.055-14.779-7.39-18.281z"/><path d="m59.016 56.525v-1c0-.553-.447-1-1-1s-1 .447-1 1v1c-.553 0-1 .447-1 1s.447 1 1 1v1c0 .553.447 1 1 1s1-.447 1-1v-1c.553 0 1-.447 1-1s-.448-1-1-1z"/><path d="m2.048 32.498h-.011c-.552 0-.994.447-.994 1s.452 1 1.005 1c.552 0 1-.447 1-1s-.448-1-1-1z"/><path d="m62.046 25.516h-.011c-.552 0-.994.447-.994 1s.452 1 1.005 1c.552 0 1-.447 1-1s-.448-1-1-1z"/><path d="m25.025 60.521c-.552 0-.994.447-.994 1s.452 1 1.005 1c.552 0 1-.447 1-1s-.448-1-1-1z"/><path d="m35.046 2.479c0-.553-.448-1-1-1h-.011c-.552 0-.994.447-.994 1s.452 1 1.005 1c.552 0 1-.448 1-1z"/><path d="m2.015 11.486c.552 0 1-.447 1-1s-.448-1-1-1h-.011c-.552 0-.994.447-.994 1s.452 1 1.005 1z"/><path d="m50.008 3.521c-1.654 0-3 1.346-3 3s1.346 3 3 3c1.036 0 1.951-.528 2.49-1.329 1.527.879 2.51 2.516 2.51 4.327 0 .553.447 1 1 1s1-.447 1-1c0-2.733-1.6-5.179-4.032-6.321-.164-1.501-1.424-2.677-2.968-2.677zm0 4c-.552 0-1-.448-1-1s.448-1 1-1 1 .448 1 1-.448 1-1 1z"/><path d="m9.012 54.514c2.206 0 4-1.794 4-4s-1.794-4-4-4-4 1.794-4 4 1.794 4 4 4zm0-6c1.103 0 2 .897 2 2s-.897 2-2 2-2-.897-2-2 .897-2 2-2z"/></g></svg>