<svg id="icons" enable-background="new 0 0 64 64" height="512" viewBox="0 0 64 64" width="512" xmlns="http://www.w3.org/2000/svg"><g><path d="m30.05 50.869c2.645 2.645 6.16 4.102 9.899 4.102 3.74 0 7.256-1.457 9.899-4.102 5.459-5.457 5.459-14.339 0-19.799-2.644-2.644-6.159-4.101-9.899-4.101-3.739 0-7.255 1.457-9.899 4.101-5.458 5.46-5.458 14.342 0 19.799zm1.414-18.385c2.267-2.266 5.28-3.515 8.485-3.515 3.206 0 6.219 1.249 8.485 3.515 4.679 4.68 4.679 12.293 0 16.971-2.267 2.268-5.279 3.516-8.485 3.516-3.205 0-6.219-1.249-8.485-3.516-4.678-4.678-4.678-12.291 0-16.971z"/><path d="m51.971 52.99c3.211-3.211 4.979-7.479 4.979-12.02s-1.769-8.81-4.979-12.021l-18.091-18.09c-.391-.391-1.023-.391-1.414 0s-.391 1.023 0 1.414l18.091 18.09c2.833 2.834 4.394 6.601 4.394 10.607s-1.561 7.772-4.394 10.605c-2.834 2.834-6.601 4.395-10.607 4.395s-7.772-1.561-10.606-4.395l-12.729-12.725c-.391-.391-1.023-.391-1.414 0s-.391 1.023 0 1.414l12.728 12.726c3.211 3.212 7.48 4.98 12.021 4.98 4.54.001 8.809-1.768 12.021-4.98z"/><path d="m21.799 4.434c-.391-.391-1.023-.391-1.414 0s-.391 1.023 0 1.414l18.738 18.738c.195.195.451.293.707.293s.512-.098.707-.293c.391-.391.391-1.023 0-1.414z"/><path d="m35.586 26.293c.256 0 .512-.098.707-.293.391-.391.391-1.023 0-1.414l-9.901-9.902c-.391-.391-1.023-.391-1.414 0s-.391 1.023 0 1.414l9.901 9.902c.195.195.451.293.707.293z"/><path d="m22.979 18.342c-.391.391-.391 1.023 0 1.414l4.946 4.947c.195.195.451.293.707.293s.512-.098.707-.293c.391-.391.391-1.023 0-1.414l-4.946-4.947c-.391-.391-1.024-.391-1.414 0z"/><path d="m15.023 16.045c-.391.391-.391 1.023 0 1.414l11.488 11.488c.195.195.451.293.707.293s.512-.098.707-.293c.391-.391.391-1.023 0-1.414l-11.487-11.488c-.391-.391-1.024-.391-1.415 0z"/><path d="m7.956 14.633c-.391.391-.391 1.023 0 1.414l16.485 16.486c.195.195.451.293.707.293s.512-.098.707-.293c.391-.391.391-1.023 0-1.414l-16.485-16.486c-.391-.391-1.023-.391-1.414 0z"/><path d="m16.615 27.535c-.391-.391-1.023-.391-1.414 0s-.391 1.023 0 1.414l7.777 7.777c.195.195.451.293.707.293s.512-.098.707-.293c.391-.391.391-1.023 0-1.414z"/><path d="m7.539 26.945 15.442 15.441c.195.195.451.293.707.293s.512-.098.707-.293c.391-.391.391-1.023 0-1.414l-15.442-15.441c-.391-.391-1.023-.391-1.414 0s-.391 1.024 0 1.414z"/><path d="m45.608 48.213c.802 0 1.556-.313 2.121-.879 1.17-1.17 1.17-3.074 0-4.245-1.132-1.13-3.106-1.133-4.242.001-1.17 1.17-1.17 3.074 0 4.244.567.566 1.321.879 2.121.879zm-.708-3.708c.189-.188.44-.293.708-.293s.519.104.707.292c.391.391.391 1.025-.001 1.416-.377.378-1.034.378-1.413 0-.39-.391-.39-1.025-.001-1.415z"/><path d="m31.465 43.799c.756.756 1.76 1.172 2.828 1.172s2.072-.416 2.828-1.172 1.172-1.76 1.172-2.828-.416-2.072-1.172-2.828c-1.512-1.512-4.145-1.512-5.656 0-.756.756-1.172 1.76-1.172 2.828s.416 2.072 1.172 2.828zm1.414-4.242c.378-.378.88-.586 1.414-.586s1.036.208 1.414.586.586.88.586 1.414-.208 1.036-.586 1.414c-.756.756-2.072.756-2.828 0-.378-.378-.586-.88-.586-1.414s.208-1.036.586-1.414z"/><path d="m44.921 37.021c.552 0 1-.447 1-1s-.448-1-1-1h-.011c-.552 0-.994.447-.994 1s.452 1 1.005 1z"/><path d="m2.002 6.994v1c0 .553.447 1 1 1s1-.447 1-1v-1c.553 0 1-.447 1-1s-.447-1-1-1v-1c0-.553-.447-1-1-1s-1 .447-1 1v1c-.553 0-1 .447-1 1s.447 1 1 1z"/><path d="m56.006 62c.553 0 1-.447 1-1v-1c.553 0 1-.447 1-1s-.447-1-1-1v-1c0-.553-.447-1-1-1s-1 .447-1 1v1c-.553 0-1 .447-1 1s.447 1 1 1v1c0 .553.447 1 1 1z"/><path d="m62.029 34.025c.552 0 1-.447 1-1s-.448-1-1-1h-.011c-.552 0-.994.447-.994 1s.453 1 1.005 1z"/><path d="m2.031 34.002h-.01c-.552 0-.994.447-.994 1s.452 1 1.005 1c.552 0 1-.447 1-1s-.449-1-1.001-1z"/><path d="m34.025 2c-.552 0-.994.447-.994 1s.452 1 1.005 1c.552 0 1-.447 1-1s-.448-1-1-1z"/><path d="m27.029 59.041h-.011c-.552 0-.994.447-.994 1s.452 1 1.005 1c.552 0 1-.447 1-1s-.448-1-1-1z"/><path d="m6.008 49c0 2.732 1.6 5.178 4.032 6.32.164 1.501 1.424 2.678 2.968 2.678 1.654 0 3-1.346 3-3s-1.346-3-3-3c-1.036 0-1.951.528-2.49 1.33-1.527-.88-2.51-2.517-2.51-4.328 0-.553-.447-1-1-1s-1 .447-1 1zm7 4.998c.552 0 1 .448 1 1s-.448 1-1 1-1-.448-1-1 .448-1 1-1z"/><path d="m57.003 12.006c0-2.206-1.794-4-4-4s-4 1.794-4 4 1.794 4 4 4 4-1.794 4-4zm-6 0c0-1.103.897-2 2-2s2 .897 2 2-.897 2-2 2-2-.898-2-2z"/></g></svg>