<svg id="icons" enable-background="new 0 0 64 64" height="512" viewBox="0 0 64 64" width="512" xmlns="http://www.w3.org/2000/svg"><g><path d="m4.545 45.709c4.194 5.632 10.901 9.288 18.448 9.291h.004.004s.001 0 .001 0h.002c3.193 0 5.932-2.157 6.748-5.155.741.092 1.489.155 2.248.155.76 0 1.509-.063 2.252-.155.816 2.997 3.554 5.154 6.747 5.155h.001.003.004c12.679-.005 22.992-10.32 22.992-23 0-5.123-1.685-9.859-4.528-13.687-.007-.008-.011-.019-.019-.026-4.194-5.63-10.9-9.284-18.445-9.287-.001 0-.003 0-.004 0-.001 0-.002 0-.003 0-.001 0-.001 0-.001 0-3.193.001-5.931 2.158-6.747 5.156-.743-.093-1.492-.156-2.252-.156-.759 0-1.507.063-2.248.155-.816-2.998-3.555-5.155-6.748-5.155-.001 0-.001 0-.002 0 0 0 0 0-.001 0s-.002 0-.004 0c-.001 0-.003 0-.004 0-12.679.005-22.992 10.32-22.992 23 0 5.12 1.683 9.854 4.522 13.679.009.009.013.021.022.03zm57.352-11.706c-.013 0-.023-.007-.036-.007h-4.86c-.552 0-1-.448-1-1s.448-1 1-1c.553 0 1-.447 1-1 0-.001-.001-.002-.001-.003s.001-.002.001-.003c0-.553-.447-1-1-1h-5.001c-.552 0-1-.448-1-1 0-.549.443-.992.99-.998.004 0 .006.002.01.002h6.002c.553 0 1-.447 1-1s-.447-1-1-1c-.552 0-1-.448-1-1 0-.549.443-.992.99-.998h.01c.553 0 1-.447 1-1v-.001-.001c0-.553-.447-1-1-1-.007 0-.013.002-.02.002h-2.98c-.552 0-1-.448-1-1s.448-1 1-1h3.203c2.384 3.406 3.794 7.541 3.794 12.004 0 .676-.039 1.344-.102 2.003zm-5.293-16.007h-1.602c-1.654 0-3 1.346-3 3s1.346 3 3 3h.184c-.111.313-.184.646-.184.998 0 .353.072.686.185 1h-3.167c-.007 0-.013-.004-.02-.004-1.654 0-3 1.346-3 3s1.346 3 3 3h2.188c-.114.316-.187.651-.187 1.006 0 1.654 1.346 3 3 3h4.606c-1.52 7.844-7.416 14.127-15.038 16.23.896-1.177 1.434-2.639 1.434-4.227v-31.999c0-1.588-.538-3.05-1.434-4.227 3.926 1.083 7.386 3.276 10.035 6.223zm-15.604-6.996h.007c2.755.003 4.996 2.244 4.996 5v32c0 2.756-2.241 4.997-4.996 5-.003 0-.005 0-.007 0-2.224 0-4.139-1.462-4.774-3.518.332-.079.668-.149.994-.248.522 1.599 2.011 2.765 3.781 2.766h.001.001.001c2.202-.001 3.992-1.79 3.997-3.99 0-.004.002-.006.002-.01v-3.883c.006-.064.006-.127 0-.191v-27.929c0-.021-.011-.038-.012-.059-.032-2.175-1.804-3.935-3.985-3.938-.001 0-.002-.001-.003-.001s-.001 0-.001 0c-.001.001-.002.001-.002.001-.001 0-.002.001-.003.001-1.77.002-3.255 1.167-3.777 2.765-.326-.099-.662-.168-.994-.248.634-2.056 2.55-3.518 4.774-3.518zm.002 3c1.101.001 1.995.896 1.995 1.997 0 .011.006.019.006.029v1.747c-1.212-.941-2.522-1.721-3.913-2.317.237-.837.999-1.455 1.912-1.456zm2.001 33.995c0 .002-.001.003-.001.005 0 1.103-.897 2-2 2-.911 0-1.674-.618-1.912-1.455 1.392-.596 2.701-1.377 3.913-2.317zm0-27.591v23.192c-2.985 2.836-6.871 4.404-11.003 4.404s-8.018-1.568-11.003-4.403v-23.194c2.985-2.835 6.871-4.403 11.003-4.403 4.131 0 8.018 1.569 11.003 4.404zm-20.002 29.596c-.001 0-.001 0 0 0-.002 0-.002 0-.003 0-1.103 0-2-.897-2-2 0-.002-.001-.003-.001-.005v-1.768c1.213.941 2.524 1.722 3.917 2.318-.239.838-1.001 1.455-1.913 1.455zm-.001-36c.001 0 .001 0 0 0 .913 0 1.675.617 1.913 1.453-1.392.597-2.703 1.378-3.916 2.319v-1.746c0-.011.006-.019.006-.029 0-1.101.895-1.997 1.997-1.997zm4.778.517c-.333.079-.668.149-.995.248-.522-1.599-2.011-2.765-3.782-2.765 0 0 0 0-.001 0-2.185 0-3.959 1.762-3.991 3.938-.001.021-.012.038-.012.059v3.886c-.006.064-.006.127 0 .191v27.926c0 .004.002.006.002.01.005 2.201 1.796 3.99 3.999 3.99h.002.001c1.771 0 3.26-1.166 3.782-2.765.327.099.662.169.995.248-.635 2.055-2.551 3.517-4.774 3.517-.001 0-.001 0-.002 0 0 0 0 0-.001 0-.003 0-.005 0-.008 0-2.755-.003-4.996-2.244-4.996-5v-32c0-2.756 2.241-4.997 4.996-5h.008.001.002c2.223 0 4.139 1.461 4.774 3.517zm-10.347-2.744c-.896 1.177-1.434 2.639-1.434 4.227v32c0 1.588.538 3.05 1.434 4.227-3.928-1.084-7.389-3.277-10.037-6.227h1.604c1.654 0 3-1.346 3-3s-1.346-3-3-3h-.184c.111-.313.184-.646.184-.998 0-.353-.072-.686-.185-1h3.167c.007 0 .013.004.02.004 1.654 0 3-1.346 3-3s-1.346-3-3-3h-2.187c.114-.317.186-.652.186-1.006 0-1.654-1.346-3-3-3h-4.605c1.519-7.842 7.416-14.124 15.037-16.227zm-15.328 18.227h4.896c.552 0 1 .448 1 1s-.448 1-1 1c-.553 0-1 .447-1 1 0 .001.001.002.001.003s-.001.002-.001.003c0 .553.447 1 1 1h5.001c.552 0 1 .448 1 1 0 .549-.443.992-.99.998-.004 0-.006-.002-.01-.002h-6.002c-.553 0-1 .447-1 1s.447 1 1 1c.552 0 1 .448 1 1 0 .549-.443.992-.99.998h-.01c-.553 0-1 .447-1 1v.001.001c0 .553.447 1 1 1 .007 0 .013-.002.02-.002h2.98c.552 0 1 .448 1 1s-.448 1-1 1h-3.206c-2.382-3.405-3.791-7.538-3.791-12 0-.675.039-1.341.102-2z"/></g></svg>