<svg id="icons" enable-background="new 0 0 64 64" height="512" viewBox="0 0 64 64" width="512" xmlns="http://www.w3.org/2000/svg"><g><path d="m33 27.524v-12.02h7.002v1.999c0 .553.447 1 1 1h13.003c.347 0 .669-.18.851-.475.183-.295.199-.663.044-.973l-1.778-3.554 1.778-3.556c.005-.01.004-.021.008-.03.028-.06.036-.126.052-.19.016-.066.038-.13.04-.196 0-.011.006-.02.006-.03 0-.05-.021-.092-.028-.14-.01-.072-.017-.144-.042-.211-.023-.062-.061-.111-.094-.166-.034-.055-.063-.11-.106-.157-.049-.054-.109-.091-.17-.133-.039-.027-.068-.065-.112-.088-.01-.005-.021-.004-.029-.008-.062-.028-.131-.038-.198-.054-.063-.014-.124-.035-.188-.037-.011-.001-.021-.007-.032-.007h-9.003v-1.998c0-.553-.447-1-1-1h-11.004v-1c0-.553-.447-1-1-1s-1 .447-1 1v2 8.004 13.021c-17.183.531-31 14.664-31 31.974 0 .553.447 1 1 1s1-.447 1-1c0-16.542 13.458-30 30-30s30 13.458 30 30c0 .553.447 1 1 1s1-.447 1-1c0-17.31-13.817-31.443-31-31.975zm19.387-17.025-1.278 2.556c-.141.281-.141.613 0 .895l1.278 2.554h-10.385v-.999h2c.553 0 1-.447 1-1v-4.005h7.385zm-9.385-2.999v6.004h-10.002v-6.004z"/><path d="m19.001 60.5c4.411 0 8-3.589 8-8s-3.589-8-8-8-8 3.589-8 8 3.589 8 8 8zm0-14c3.309 0 6 2.691 6 6s-2.691 6-6 6-6-2.691-6-6 2.691-6 6-6z"/><path d="m35.992 38.497c0-2.206-1.794-4-4-4s-4 1.794-4 4 1.794 4 4 4 4-1.794 4-4zm-6 0c0-1.103.897-2 2-2s2 .897 2 2-.897 2-2 2-2-.897-2-2z"/><path d="m49.997 51.997c0-3.032-2.468-5.5-5.5-5.5s-5.5 2.468-5.5 5.5 2.468 5.5 5.5 5.5 5.5-2.468 5.5-5.5zm-9 0c0-1.93 1.57-3.5 3.5-3.5s3.5 1.57 3.5 3.5-1.57 3.5-3.5 3.5-3.5-1.57-3.5-3.5z"/></g></svg>