<svg id="icons" enable-background="new 0 0 64 64" height="512" viewBox="0 0 64 64" width="512" xmlns="http://www.w3.org/2000/svg"><g><path d="m32 0c-.553 0-1 .447-1 1v1 4 10.025c-12.771.527-23 11.077-23 23.975 0 13.233 10.767 24 24 24s24-10.767 24-24c0-12.898-10.229-23.448-23-23.975v-9.025h5v2.002c0 .553.447 1 1 1h10c.404 0 .77-.243.924-.617.155-.374.069-.804-.217-1.09l-1.294-1.294 1.293-1.291c.093-.092.166-.203.217-.325.051-.123.077-.252.077-.383 0-.009-.005-.016-.005-.023-.003-.122-.024-.243-.072-.357-.101-.245-.296-.44-.54-.542-.122-.052-.252-.078-.383-.078h-6v-2.002c0-.553-.447-1-1-1h-9c0-.553-.447-1-1-1zm22 40c0 12.131-9.869 22-22 22s-22-9.869-22-22 9.869-22 22-22 22 9.869 22 22zm-14-31.998v-1.002h2c.552 0 .998-.446 1-.998h3.582l-.29.29c-.188.187-.294.442-.294.708 0 .265.105.52.293.707l.295.295zm1-5.002v2h-8v-2z"/><path d="m27 45c-3.309 0-6 2.691-6 6s2.691 6 6 6 6-2.691 6-6-2.691-6-6-6zm0 10c-2.206 0-4-1.794-4-4s1.794-4 4-4 4 1.794 4 4-1.794 4-4 4z"/><path d="m41.5 41.998c4.136 0 7.5-3.364 7.5-7.5s-3.364-7.5-7.5-7.5-7.5 3.364-7.5 7.5 3.364 7.5 7.5 7.5zm0-13c3.032 0 5.5 2.468 5.5 5.5s-2.468 5.5-5.5 5.5-5.5-2.468-5.5-5.5 2.468-5.5 5.5-5.5z"/><path d="m23 33c0-1.654-1.346-3-3-3s-3 1.346-3 3 1.346 3 3 3 3-1.346 3-3zm-3 1c-.552 0-1-.448-1-1s.448-1 1-1 1 .448 1 1-.448 1-1 1z"/></g></svg>