<svg id="icons" enable-background="new 0 0 64 64" height="512" viewBox="0 0 64 64" width="512" xmlns="http://www.w3.org/2000/svg"><g><path d="m57.004 63.998c.553 0 1-.447 1-1v-11.998c0-4.625-3.508-8.442-8.002-8.941v-15.059h1.998c.553 0 1-.447 1-1v-7.994c0-.553-.447-1-1-1h-2.045c-.523-9.463-8.364-17.006-17.955-17.006s-17.432 7.543-17.955 17.006h-2.045c-.553 0-1 .447-1 1v7.994c0 .553.447 1 1 1h1.998v15.057c-4.494.499-8.002 4.316-8.002 8.941l.001 12c0 .553.448 1 1 1 .553 0 1-.448 1-1l-.001-12c0-3.859 3.141-7 7-7l34.006.002h.002c3.859 0 7 3.141 7 7v11.998c0 .553.447 1 1 1zm-41.006-23h.999v1h-.999zm2.999 0h2.004v1h-2.004zm4.004 0h2v1.001l-2-.001zm4 0h2v1.001h-2zm4 0h2v1.001h-2zm4 0h2v1.001h-2zm4 0h2v1.002l-2-.001zm4 0h2.004v1.002h-2.004zm4.004 0h.997v1.002h-.997zm3.995-15.998h-.994v-5.994h.994zm-19-23c8.82 0 15.996 7.172 16.005 15.99 0 .006-.003.01-.003.016v20.992h-32.004v-20.996c0-.005-.003-.01-.003-.015.011-8.816 7.187-15.987 16.005-15.987zm-18.006 23h-.994v-5.994h.994z"/><path d="m20.998 31h22.004c1.654 0 3-1.346 3-3v-12.002c0-1.654-1.346-3-3-3h-22.004c-1.654 0-3 1.346-3 3v12.002c0 1.654 1.346 3 3 3zm-1-15.002c0-.552.448-1 1-1h22.004c.552 0 1 .448 1 1v7c0 1.654-1.346 3-3 3h-5.003c-.553 0-1 .447-1 1s.447 1 1 1h5.003c1.13 0 2.162-.391 3-1.025v1.027c0 .552-.448 1-1 1h-22.004c-.552 0-1-.448-1-1z"/><path d="m17 63v-5.998c0-.553-.447-1-1-1s-1 .447-1 1v5.998c0 .553.447 1 1 1s1-.447 1-1z"/><path d="m47.999 63.998c.553 0 1-.447 1-1v-5.996c0-.553-.447-1-1-1s-1 .447-1 1v5.996c0 .553.447 1 1 1z"/><path d="m21.999 55.998v7.002c0 .553.447 1 1 1s1-.447 1-1v-7.002c0-.552.448-1 1-1h14.002c.552 0 1 .448 1 1v7.002c0 .553.447 1 1 1s1-.447 1-1v-7.002c0-1.654-1.346-3-3-3h-14.002c-1.654 0-3 1.346-3 3z"/><path d="m37.001 56.998h-10.002c-.553 0-1 .447-1 1s.447 1 1 1h10.002c.553 0 1-.447 1-1s-.447-1-1-1z"/><path d="m37.001 59.998h-10.002c-.553 0-1 .447-1 1s.447 1 1 1h10.002c.553 0 1-.447 1-1s-.447-1-1-1z"/><path d="m46.039 48.025h-.011c-.552 0-.994.447-.994 1s.452 1 1.005 1c.552 0 1-.447 1-1s-.448-1-1-1z"/><path d="m42.035 50.025c.552 0 1-.447 1-1s-.448-1-1-1h-.011c-.552 0-.994.447-.994 1s.452 1 1.005 1z"/><path d="m42.03 33.998h-.01c-.552 0-.994.447-.994 1s.452 1 1.005 1c.552 0 1-.447 1-1s-.449-1-1.001-1z"/><path d="m20.03 33.998h-.01c-.552 0-.994.447-.994 1s.452 1 1.005 1c.552 0 1-.447 1-1s-.449-1-1.001-1z"/><path d="m22.016 48.025h-.011c-.552 0-.994.447-.994 1s.452 1 1.005 1c.552 0 1-.447 1-1s-.449-1-1-1z"/><path d="m19.012 49.025c0-.553-.448-1-1-1h-.011c-.552 0-.994.447-.994 1s.452 1 1.005 1c.551 0 1-.447 1-1z"/><path d="m36 50c.553 0 1-.447 1-1s-.447-1-1-1h-8c-.553 0-1 .447-1 1s.447 1 1 1z"/><path d="m32 31.998c-.553 0-1 .447-1 1v4c0 .553.447 1 1 1s1-.447 1-1v-4c0-.553-.447-1-1-1z"/><path d="m35 32.998c-.553 0-1 .447-1 1v2c0 .553.447 1 1 1s1-.447 1-1v-2c0-.553-.447-1-1-1z"/><path d="m29 32.998c-.553 0-1 .447-1 1v2c0 .553.447 1 1 1s1-.447 1-1v-2c0-.553-.447-1-1-1z"/></g></svg>