<svg id="icons" enable-background="new 0 0 64 64" height="512" viewBox="0 0 64 64" width="512" xmlns="http://www.w3.org/2000/svg"><g><path d="m2.002 33.009h31.047c.268 4.024 2.123 7.612 4.951 10.15v6.328l-27.418 12.605c-.502.23-.722.824-.49 1.326.168.366.53.582.909.582.14 0 .281-.029.417-.092l27.971-12.858c.001-.001.001-.001.002-.001l8.81-4.051c8.178-.109 14.798-6.786 14.798-14.989 0-8.188-6.597-14.854-14.755-14.987l-8.853-4.07c-.001 0-.002 0-.002-.001l-27.971-12.859c-.505-.233-1.097-.012-1.326.49-.231.502-.012 1.096.49 1.326l27.418 12.605v6.346c-2.828 2.538-4.684 6.126-4.951 10.15h-31.047c-.553 0-1 .447-1 1s.447 1 1 1zm37.998 11.668c1.336.846 2.812 1.482 4.387 1.874l-4.387 2.016zm0-29.244 4.411 2.027c-1.584.392-3.068 1.03-4.411 1.881zm7.998 3.576c7.168 0 13 5.832 13 13 0 7.148-5.801 12.966-12.942 12.997-.048-.003-.094-.006-.143-.001-3.111-.021-5.967-1.137-8.197-2.984-.01-.01-.02-.018-.029-.026-2.621-2.187-4.361-5.383-4.638-8.985h2.951v1c0 .553.447 1 1 1h6.998.002c1.652-.003 2.996-1.347 2.996-3s-1.344-2.997-2.996-3c-.001 0-.001 0-.002 0h-6.998c-.553 0-1 .447-1 1v1h-2.951c.514-6.702 6.119-12.001 12.949-12.001zm-2.002 12c.552 0 1 .448 1 1s-.448 1-1 1h-5.996v-2z"/></g></svg>