<svg id="icons" enable-background="new 0 0 64 64" height="512" viewBox="0 0 64 64" width="512" xmlns="http://www.w3.org/2000/svg"><g><path d="m44.559 36.986c2.387-.028 4.378-1.731 4.84-3.99h1.439c5.691 0 10.846-3.375 13.133-8.599.001-.002 0-.004.001-.006.049-.112.073-.236.077-.366 0-.02 0-.039 0-.059-.004-.13-.028-.254-.077-.366-.001-.002 0-.004-.001-.006-2.288-5.224-7.442-8.599-13.133-8.599h-2.943c-.523-8.353-7.466-14.995-15.95-14.995s-15.426 6.642-15.949 14.996h-2.834c-5.69 0-10.845 3.375-13.133 8.599-.001.002 0 .004-.001.006-.049.112-.073.236-.077.365v.061c.004.129.028.253.077.365.001.002 0 .004.001.006 2.287 5.224 7.441 8.599 13.133 8.599h1.439c.462 2.259 2.453 3.962 4.84 3.99.021.001.038.012.059.012h2.656l-6.481 25.001h-8.728v-2.082c2.833-.479 5-2.943 5-5.91 0-1.69-1.844-14.01-6-14.01s-6 12.319-6 14.01c0 2.967 2.167 5.432 5 5.91v2.082h-4.002c-.553 0-1 .447-1 1s.447 1 1 1h62.109c.553 0 1-.447 1-1s-.447-1-1-1h-4.109v-2.082c2.833-.479 5-2.943 5-5.91 0-1.69-1.844-14.01-6-14.01s-6 12.319-6 14.01c0 2.967 2.167 5.432 5 5.91v2.082h-8.621l-6.479-25.002h2.655c.021 0 .038-.011.059-.012zm-42.612 17.022c0-3.722 2.552-12.01 4-12.01s4 8.288 4 12.01c0 1.858-1.279 3.411-3 3.858v-4.866c0-.553-.447-1-1-1s-1 .447-1 1v4.866c-1.72-.447-3-2-3-3.858zm51.998 0c0-3.722 2.552-12.01 4-12.01s4 8.288 4 12.01c0 1.858-1.279 3.411-3 3.858v-4.866c0-.553-.447-1-1-1s-1 .447-1 1v4.866c-1.72-.447-3-2-3-3.858zm-22-52.008c7.719 0 13.998 6.278 14 13.997-.001 1.098-.891 1.99-1.987 1.998-.005 0-.008-.003-.013-.003h-1v-2c0-.553-.447-1-1-1h-5v-.285c1.228-.669 2-2.441 2-3.715 0-1.654-1.346-3-3-3s-3 1.346-3 3c0 1.273.772 3.046 2 3.715v.285h-6v-.285c1.228-.669 2-2.441 2-3.715 0-1.654-1.346-3-3-3s-3 1.346-3 3c0 1.273.772 3.046 2 3.715v.285h-5.004c-.553 0-1 .447-1 1v2h-1.002c-1.1 0-1.993-.895-1.994-1.995.002-7.719 6.282-13.997 14-13.997zm-4 10.992c-.324-.052-1-1.185-1-2 0-.552.448-1 1-1s1 .448 1 1c0 .819-.675 1.95-1 2zm-.019 4c.007 0 .013.004.02.004s.013-.004.02-.004h7.961c.007 0 .013.004.02.004s.013-.004.02-.004h4.98v1h-18.006v-1zm8.019-4c-.324-.052-1-1.185-1-2 0-.552.448-1 1-1s1 .448 1 1c0 .819-.675 1.95-1 2zm-22.783 4.004h2.926c.446 1.718 1.996 2.996 3.852 2.996h2.002 20.004 1.98c.007 0 .013.004.02.004 1.858 0 3.411-1.279 3.858-3h3.034c4.365 0 8.359 2.313 10.57 6h-58.816c2.211-3.687 6.205-6 10.57-6zm-10.57 8h58.816c-2.211 3.687-6.205 6-10.57 6h-2.318c-.007 0-.013-.004-.02-.004s-.013.004-.02.004h-32.96c-.007 0-.013-.004-.02-.004s-.013.004-.02.004h-2.318c-4.365 0-8.359-2.313-10.57-6zm14.094 8h30.629c-.415 1.159-1.514 1.996-2.814 1.996-.011 0-.019.006-.029.006h-24.943c-.011 0-.019-.006-.029-.006-1.301 0-2.399-.837-2.814-1.996zm29.573 29.004h-28.519l6.482-25.002h15.556z"/><path d="m31.998 57.005c.553 0 1-.447 1-1v-11.998c0-.553-.447-1-1-1s-1 .447-1 1v11.998c0 .553.447 1 1 1z"/><path d="m36.002 54.003c.553 0 1-.447 1-1v-5.992c0-.553-.447-1-1-1s-1 .447-1 1v5.992c0 .553.447 1 1 1z"/><path d="m27.998 54.003c.553 0 1-.447 1-1v-5.992c0-.553-.447-1-1-1s-1 .447-1 1v5.992c0 .553.447 1 1 1z"/></g></svg>