<svg id="icons" enable-background="new 0 0 64 64" height="512" viewBox="0 0 64 64" width="512" xmlns="http://www.w3.org/2000/svg"><g><path d="m42.479 39.984c-1.379 0-2.5 1.121-2.5 2.5s1.121 2.5 2.5 2.5 2.5-1.121 2.5-2.5-1.122-2.5-2.5-2.5zm0 3c-.275 0-.5-.225-.5-.5s.225-.5.5-.5.5.225.5.5-.225.5-.5.5z"/><path d="m21.991 44.496c1.379 0 2.5-1.121 2.5-2.5s-1.121-2.5-2.5-2.5-2.5 1.121-2.5 2.5 1.121 2.5 2.5 2.5zm0-3c.275 0 .5.225.5.5s-.225.5-.5.5-.5-.225-.5-.5.225-.5.5-.5z"/><path d="m21.991 24.501c1.379 0 2.5-1.121 2.5-2.499s-1.121-2.5-2.5-2.5-2.5 1.122-2.5 2.5 1.121 2.499 2.5 2.499zm0-2.999c.275 0 .5.224.5.5 0 .275-.225.499-.5.499s-.5-.224-.5-.499c0-.276.225-.5.5-.5z"/><path d="m31.991 34.496c1.379 0 2.5-1.121 2.5-2.5 0-1.377-1.121-2.498-2.5-2.498s-2.5 1.121-2.5 2.498c0 1.379 1.121 2.5 2.5 2.5zm0-2.998c.275 0 .5.224.5.498 0 .276-.225.5-.5.5s-.5-.224-.5-.5c0-.274.225-.498.5-.498z"/><path d="m41.991 24.501c1.379 0 2.5-1.121 2.5-2.499s-1.121-2.5-2.5-2.5-2.5 1.122-2.5 2.5 1.121 2.499 2.5 2.499zm0-2.999c.275 0 .5.224.5.5 0 .275-.225.499-.5.499s-.5-.224-.5-.499c0-.276.225-.5.5-.5z"/><path d="m32.024 39.007h-.011c-.552 0-.994.447-.994 1s.452 1 1.005 1c.552 0 1-.447 1-1s-.448-1-1-1z"/><path d="m26.019 47.015h-.011c-.552 0-.994.447-.994 1s.452 1 1.005 1c.552 0 1-.447 1-1s-.449-1-1-1z"/><path d="m38.03 49.015c.552 0 1-.447 1-1s-.448-1-1-1h-.01c-.552 0-.994.447-.994 1s.452 1 1.004 1z"/><path d="m40.044 33.013c.552 0 1-.448 1-1s-.448-1-1-1h-.011c-.552 0-.994.448-.994 1s.452 1 1.005 1z"/><path d="m48.052 39.019c.552 0 1-.447 1-1s-.448-1-1-1h-.011c-.552 0-.994.447-.994 1s.452 1 1.005 1z"/><path d="m48.052 27.007c.552 0 1-.448 1-1s-.448-1-1-1h-.011c-.552 0-.994.448-.994 1s.452 1 1.005 1z"/><path d="m32.05 24.993c.552 0 1-.448 1-1s-.448-1-1-1h-.011c-.552 0-.994.448-.994 1s.452 1 1.005 1z"/><path d="m38.056 16.985c.552 0 1-.448 1-1s-.448-1-1-1h-.011c-.552 0-.994.448-.994 1s.452 1 1.005 1z"/><path d="m26.044 16.985c.552 0 1-.448 1-1s-.448-1-1-1h-.011c-.552 0-.994.448-.994 1s.452 1 1.005 1z"/><path d="m4.001 13.98v1c0 .552.447 1 1 1s1-.448 1-1v-1c.553 0 1-.448 1-1s-.447-1-1-1v-1c0-.552-.447-1-1-1s-1 .448-1 1v1c-.553 0-1 .448-1 1s.447 1 1 1z"/><path d="m55.005 54.979c-.553 0-1 .447-1 1v1c-.553 0-1 .447-1 1s.447 1 1 1v1c0 .553.447 1 1 1s1-.447 1-1v-1c.553 0 1-.447 1-1s-.447-1-1-1v-1c0-.553-.447-1-1-1z"/><path d="m62.029 41.012c.552 0 1-.447 1-1s-.448-1-1-1h-.011c-.552 0-.994.447-.994 1s.453 1 1.005 1z"/><path d="m2.031 38.984c.552 0 1-.447 1-1s-.448-1-1-1h-.01c-.552 0-.994.447-.994 1s.452 1 1.004 1z"/><path d="m30.032 3.979c.552 0 1-.448 1-1s-.448-1-1-1h-.011c-.552 0-.994.448-.994 1s.452 1 1.005 1z"/><path d="m31.032 61.021c0-.553-.448-1-1-1h-.011c-.552 0-.994.447-.994 1s.452 1 1.005 1c.552 0 1-.447 1-1z"/><path d="m6.006 52.982c0-.553-.447-1-1-1s-1 .447-1 1c0 2.732 1.6 5.178 4.032 6.32.164 1.501 1.424 2.678 2.968 2.678 1.654 0 3-1.346 3-3s-1.346-3-3-3c-1.036 0-1.951.528-2.49 1.33-1.528-.879-2.51-2.516-2.51-4.328zm5 4.998c.552 0 1 .448 1 1s-.448 1-1 1-1-.448-1-1 .448-1 1-1z"/><path d="m56.006 10.979c2.206 0 4-1.794 4-4s-1.794-4-4-4-4 1.794-4 4 1.794 4 4 4zm0-6c1.103 0 2 .897 2 2s-.897 2-2 2-2-.897-2-2 .897-2 2-2z"/><path d="m32.007 55c12.683 0 23-10.317 23-23 0-12.682-10.317-23-23-23s-23 10.318-23 23c0 12.683 10.317 23 23 23zm-.016-2.504c-.275 0-.5-.225-.5-.5s.225-.5.5-.5.5.225.5.5-.224.5-.5.5zm0-40.992c.275 0 .5.224.5.5s-.225.5-.5.5-.5-.224-.5-.5.225-.5.5-.5zm-2.337-.363c-.101.27-.163.559-.163.863 0 1.378 1.121 2.5 2.5 2.5s2.5-1.122 2.5-2.5c0-.307-.063-.597-.164-.868 9.723 1.074 17.46 8.809 18.542 18.529-.274-.103-.568-.167-.878-.167-1.379 0-2.5 1.121-2.5 2.498 0 1.379 1.121 2.5 2.5 2.5.311 0 .604-.063.879-.168-1.079 9.724-8.818 17.461-18.543 18.536.101-.271.164-.562.164-.868 0-1.379-1.121-2.5-2.5-2.5s-2.5 1.121-2.5 2.5c0 .305.063.593.163.863-9.706-1.088-17.427-8.813-18.509-18.521.266.096.548.157.846.157 1.379 0 2.5-1.121 2.5-2.5 0-1.377-1.121-2.498-2.5-2.498-.298 0-.58.061-.845.157 1.084-9.704 8.804-17.425 18.508-18.513zm22.837 20.855c0 .276-.225.5-.5.5s-.5-.224-.5-.5c0-.274.225-.498.5-.498s.5.224.5.498zm-41 0c0-.274.225-.498.5-.498s.5.224.5.498c0 .276-.225.5-.5.5s-.5-.224-.5-.5z"/><path d="m24.02 30.987c-.552 0-.994.448-.994 1s.452 1 1.005 1c.552 0 1-.448 1-1s-.448-1-1-1z"/><path d="m16.022 26.981c.552 0 1-.448 1-1s-.448-1-1-1h-.011c-.552 0-.994.448-.994 1s.453 1 1.005 1z"/><path d="m16.022 38.993c.552 0 1-.447 1-1s-.448-1-1-1h-.011c-.552 0-.994.447-.994 1s.453 1 1.005 1z"/></g></svg>