<svg id="icons" enable-background="new 0 0 64 64" height="512" viewBox="0 0 64 64" width="512" xmlns="http://www.w3.org/2000/svg"><g><path d="m11.51 61.992c-.553 0-1 .447-1 1s.447 1 1 1h28.91c.027.002.053.016.08.016s.053-.014.08-.016h5.845c.026.002.05.016.077.016s.051-.014.077-.016h5.911c.553 0 1-.447 1-1s-.447-1-1-1h-4.988v-4.979c0-.007 0-.013 0-.02v-11.985c0-.007 0-.013 0-.02v-11.986c0-.007 0-.013 0-.02v-11.994c0-.13-.026-.26-.077-.382-.101-.245-.296-.439-.541-.541-.122-.051-.252-.077-.382-.077h-14.378l-1.62-3.24v-9.648c0-3.046-1.806-5.803-4.6-7.023-.256-.111-.547-.111-.801 0-2.794 1.222-4.6 3.979-4.6 7.023 0 .004.002.006.002.01v.873c0 .004-.002.006-.002.01s.002.006.002.01v8.75l-1.895 3.789c-.005.01-.004.021-.008.03-.027.06-.036.125-.052.19-.016.066-.038.13-.04.196 0 .011-.006.02-.006.03v27.504l-3.601 2.704c-.02.015-.028.036-.046.052-.053.046-.095.098-.137.154-.038.049-.075.096-.102.15-.028.056-.044.115-.062.177-.019.065-.035.13-.04.198-.002.023-.014.044-.014.068v5c0 .553.447 1 1 1h3v3.996h-6.992zm29.992-32.588 3.588 3.588-3.589 3.589zm-.001 12.005 3.589 3.589-3.589 3.589zm-.001 12.005 3.59 3.59-3.59 3.59zm.415-2.413 3.587-3.587v7.174zm0-12.006 3.587-3.587v7.174zm0-12.006 3.587-3.587v7.174zm-.413-2.415v-2.586h2.586zm-2 2.407v.018l-.001 11.991v.012l-.001 11.997v.006 10.987h-6.994v-3.996h3c.553 0 1-.447 1-1v-5c0-.024-.012-.045-.014-.068-.005-.068-.021-.132-.04-.198-.018-.062-.033-.121-.062-.177-.027-.055-.063-.102-.101-.15-.043-.056-.085-.108-.138-.154-.018-.016-.027-.037-.046-.052l-3.601-2.704v-26.505h6.996v4.993zm-13.996 21.011c-.553 0-1 .447-1 1v7.002h-4v-34.006h10v34.006h-4v-7.002c0-.553-.447-1-1-1zm9 8.004h-2v-5.002l2 1.502zm-6.002-40.008h-5.998v-6.996h5.998zm-6.38 2h6.764l1 2h-8.764zm3.372 40.006c.004 0 .006.002.01.002s.006-.002.01-.002h4.99v1.185c-.314-.112-.647-.185-1-.185-.771 0-1.468.301-2 .78-.532-.479-1.229-.78-2-.78s-1.468.301-2 .78c-.532-.479-1.229-.78-2-.78-.353 0-.686.072-1 .185v-1.185zm5.01 3.998h-2c.002-.551.449-.998 1-.998s.998.447 1 .998zm-4 0h-2c.002-.551.449-.998 1-.998s.998.447 1 .998zm-4 0h-2c.002-.551.449-.998 1-.998s.998.447 1 .998zm20.424 0 2.572-2.572v2.572zm-17.426-59.889c1.805.963 2.953 2.831 2.992 4.89h-5.984c.039-2.058 1.187-3.927 2.992-4.89zm-6.998 53.893h-2v-3.5l2-1.502z"/><path d="m26.506 29.994c0-.553-.447-1-1-1s-1 .447-1 1v10c0 .553.447 1 1 1s1-.447 1-1z"/></g></svg>