<svg id="icons" enable-background="new 0 0 64 64" height="512" viewBox="0 0 64 64" width="512" xmlns="http://www.w3.org/2000/svg"><g><path d="m16.001 25.008v10.987c0 .002-.001.003-.001.005 0 .006.001.011.001.016v6.985c0 .002.001.004.001.007.004 3.855 3.143 6.993 7 6.993.34 0 .671-.032.998-.079v12.077 1.001c0 .553.447 1 1 1h7 7.002c.553 0 1-.447 1-1v-1.001-12.077c.327.047.658.079.998.079 3.859 0 7-3.141 7-7v-6.995c0-.002 0-.004 0-.006 0-.001 0-.001 0-.002l-.001-10.99c0-.001 0-.001 0-.002 0 0 0 0 0-.001 0-4.069-3.058-7.433-6.995-7.928v-1.076h1.996c.553 0 1-.447 1-1v-3.994c0-.553-.447-1-1-1h-2.055c-.463-4.167-3.778-7.483-7.945-7.945v-1.062c0-.553-.447-1-1-1s-1 .447-1 1v1.062c-4.167.463-7.482 3.778-7.945 7.945h-2.055c-.553 0-1 .447-1 1v3.994c0 .553.447 1 1 1h1.996v1.074c-3.937.497-6.995 3.862-6.995 7.933zm6.995-5.912v1.012c-2.277.466-3.996 2.487-3.996 4.901v14.3c-.638-.965-.996-2.104-.999-3.293v-11.008c0-2.966 2.165-5.431 4.995-5.912zm.006 28.905c-2.757 0-5-2.243-5-5 0-.002-.001-.003-.001-.005v-1.704c.3.341.641.647.999.936v.269c0 1.93 1.57 3.5 3.5 3.5.539 0 1.044-.133 1.5-.352v2.255c-.322.066-.656.101-.998.101zm15 13.999h-5.002v-.001c0-1.379 1.122-2.5 2.502-2.5 1.379 0 2.5 1.121 2.5 2.501zm-7.002 0h-5v-.001c0-1.379 1.121-2.5 2.5-2.5s2.5 1.121 2.5 2.501zm7.002-3.739c-.716-.48-1.575-.762-2.5-.762-.926 0-1.786.282-2.502.763v-12.262c0-.553-.447-1-1-1s-1 .447-1 1v12.261c-.716-.48-1.575-.762-2.5-.762s-1.784.281-2.5.762v-8.944c2.361-1.126 4.002-3.529 4.002-6.315v-5.005c.552-.002.998-.448.998-1 0-.553-.447-1-1-1h-2c-.553 0-1 .447-1 1s.447 1 1 1h.002v5.005c0 1.628-.794 3.063-2.002 3.976v-5.978-12.002c0-.553-.447-1-1-1s-1 .447-1 1v12.002 1.496c0 .827-.673 1.5-1.5 1.5s-1.5-.673-1.5-1.5v-17.487c0-1.645 1.329-2.981 2.969-3 .01.001.018.006.027.006.016 0 .028-.008.044-.009h15.92c.016.001.028.009.044.009.011 0 .02-.006.031-.006 1.638.018 2.965 1.353 2.965 2.996v17.491c0 .827-.673 1.5-1.5 1.5-.82 0-1.487-.662-1.498-1.48v-1.516-12.002c0-.553-.447-1-1-1s-1 .447-1 1v12.002 1.486c0 .004-.002.006-.002.01 0 .007.002.013.002.02v4.461c-1.208-.914-2.002-2.348-2.002-3.976v-5.005c.553 0 1-.447 1-1s-.447-1-1-1h-2c-.553 0-1 .447-1 1s.447 1 1 1v5.005c0 2.786 1.641 5.189 4.002 6.315zm7.998-15.26c0 2.757-2.243 5-5 5-.342 0-.676-.035-.998-.101v-2.254c.456.218.96.35 1.498.35 1.93 0 3.5-1.57 3.5-3.5v-.269c.359-.289.699-.596 1-.937zm-.001-17.996c0 .001 0 .001 0 0v.003l.001 10.998c-.002 1.191-.36 2.335-1 3.303v-14.304c0-2.413-1.719-4.433-3.996-4.898v-1.009c2.831.479 4.995 2.942 4.995 5.907zm-3.999-11.004h-.996v-1.994h.996zm-10-9.998c3.862 0 7.004 3.142 7.004 7.004v3.994 2.991c0 .005-.003.01-.003.015s.003.01.003.015v1.984h-14.008v-1.972c0-.011.006-.019.006-.029s-.006-.019-.006-.029v-2.975-3.994c0-3.862 3.142-7.004 7.004-7.004zm-10 9.998v-1.994h.996v1.994z"/><path d="m27 17.002h10c.553 0 1-.447 1-1v-6c0-.553-.447-1-1-1h-10c-.553 0-1 .447-1 1v6c0 .553.447 1 1 1zm1-6h8v4h-8z"/><path d="m37 31v-3.997c0-1.103-.897-2-2-2h-6c-1.103 0-2 .897-2 2v3.997c0 1.103.897 2 2 2h6c1.103 0 2-.897 2-2zm-8 0v-3.997h6l-.003 3.997z"/></g></svg>