<svg id="icons" enable-background="new 0 0 64 64" height="512" viewBox="0 0 64 64" width="512" xmlns="http://www.w3.org/2000/svg"><g><path d="m31.004.999c0-.089-.029-.168-.051-.25-.012-.046-.01-.096-.028-.139-.009-.022-.028-.037-.039-.059-.165-.323-.493-.551-.882-.551 0 0 0 0-.001 0h-26.005c-.001 0-.001 0-.001 0-.372 0-.684.212-.855.514-.021.034-.051.06-.066.096-.011.024-.008.052-.015.077-.033.1-.063.202-.063.313l-.003 3.007c0 .015.008.026.008.04.001.015-.006.027-.005.042l3.997 48.91v.001 2.002c0 1.654 1.346 3 3 3h1.002v3.991c0 .002-.001.003-.001.005 0 1.104.898 2.002 2.002 2.002h8.002c1.104 0 2.002-.898 2.002-2.002 0-.002-.001-.003-.001-.005v-3.991h1.001c1.654 0 3-1.346 3-3v-1.957l4.001-48.956c.001-.015-.006-.027-.005-.042 0-.014.008-.025.008-.04zm-26.008 1.001h24.009v1.008h-24.009zm16.005 60h-7.995c-.003 0-.006-.002-.009-.002v-3.996h8.004v3.996zm3.001-5.998h-14.007c-.552 0-1-.448-1-1v-1.002h16.007v1.002c0 .552-.448 1-1 1zm1.078-4.002h-16.159l-3.841-46.992h23.841z"/><path d="m60.924.61c-.009-.022-.028-.037-.039-.059-.165-.323-.493-.551-.882-.551 0 0 0 0-.001 0h-26.005c-.001 0-.001 0-.001 0-.372 0-.684.212-.855.514-.02.034-.051.061-.066.097-.01.023-.007.052-.015.076-.033.1-.063.202-.063.313l-.002 3.008c0 .015.008.026.008.04.001.015-.006.027-.005.042l3.997 48.91v.001 2.002c0 1.654 1.346 3 3 3h1.002v3.991c0 .002-.001.003-.001.005 0 1.104.898 2.002 2.002 2.002h8.002c1.104 0 2.002-.898 2.002-2.002 0-.002-.001-.003-.001-.005v-3.991h1.001c1.654 0 3-1.346 3-3v-1.957l4.001-48.956c.001-.015-.006-.027-.005-.042 0-.014.008-.025.008-.04l-.002-3.008c0-.089-.029-.168-.051-.25-.013-.047-.011-.097-.029-.14zm-25.929 1.39h24.009v1.008h-24.009zm16.005 60h-7.995c-.003 0-.006-.002-.009-.002v-3.996h8.004v3.996zm3.001-5.998h-14.007c-.552 0-1-.448-1-1v-1.002h16.007v1.002c0 .552-.448 1-1 1zm1.078-4.002h-16.159l-3.841-46.992h23.841z"/><path d="m13.999 30.002c.003 0 .006-.002.01-.002h7.988c1.654 0 3-1.346 3-3v-3.002c0-1.654-1.346-3-3-3-.001 0-.001 0-.002 0l-.999.002c-.552 0-1-.448-1-1 0-.005-.003-.009-.003-.014 0-.007.004-.013.004-.02 0-1.637-1.332-2.969-2.969-2.969h-3.029c-2.757 0-5 2.244-5 5.002v3.002c0 2.758 2.243 5.001 5 5.001zm8.002-2.001c-.001 0-.003-.001-.004-.001h-7.998c-.002 0-.004.001-.007.001-1.241-.002-2.307-.763-2.76-1.842.793.529 1.745.841 2.767.841h7.998c.007 0 .013-.004.02-.004.345-.002.672-.072.98-.183v.187c0 .55-.446.996-.996 1.001zm-8.002-9.003h3.029c.534 0 .969.435.969.969 0 .005.003.009.003.014 0 .007-.004.013-.004.02 0 1.654 1.346 3 3 3h.002l.999-.002c.552 0 1 .448 1 1s-.449 1-1.002 1.001h-7.996c-1.654 0-3-1.346-3-3 0-1.655 1.346-3.002 3-3.002z"/><path d="m15.029 22.992c.552 0 1-.447 1-1s-.448-1-1-1h-.011c-.552 0-.994.447-.994 1s.453 1 1.005 1z"/><path d="m22.997 32.996h-12c-.553 0-1 .447-1 1s.447 1 1 1h12c.553 0 1-.447 1-1s-.447-1-1-1z"/><path d="m22.997 35.996h-12c-.553 0-1 .447-1 1s.447 1 1 1h12c.553 0 1-.447 1-1s-.447-1-1-1z"/><path d="m18.997 38.996h-4c-.553 0-1 .447-1 1s.447 1 1 1h4c.553 0 1-.447 1-1s-.447-1-1-1z"/><path d="m45 29.984h1c.365 0 .704-.105.999-.278.296.173.634.278 1 .278h1.001c2.757 0 5-2.243 5-5v-4c0-2.206-1.794-4-4-4-.004 0-.006.002-.01.002h-.99c-.353 0-.686.072-1 .185v-2.185c0-.553-.447-1-1-1s-1 .447-1 1v2.185c-.314-.112-.647-.185-1-.185h-.99c-.004 0-.006-.002-.01-.002-2.206 0-4 1.794-4 4v4c0 2.757 2.243 5 5 5zm-1.007-10.999c.003 0 .005.001.007.001h1c.552 0 1 .448 1 1 0 .553.447 1 1 1s1-.447 1-1c0-.552.448-1 1-1h1c.002 0 .004-.001.007-.001 1.098.003 1.993.899 1.993 1.999v4c0 1.654-1.346 3-3 3h-1.001c0-.553-.447-1-1-1s-1 .447-1 1h-.999c-1.654 0-3-1.346-3-3v-4c0-1.1.895-1.996 1.993-1.999z"/><path d="m40.988 35.002h12c.553 0 1-.447 1-1s-.447-1-1-1h-12c-.553 0-1 .447-1 1s.448 1 1 1z"/><path d="m40.988 38.002h12c.553 0 1-.447 1-1s-.447-1-1-1h-12c-.553 0-1 .447-1 1s.448 1 1 1z"/><path d="m48.988 39.002h-4c-.553 0-1 .447-1 1s.447 1 1 1h4c.553 0 1-.447 1-1s-.447-1-1-1z"/></g></svg>