<svg id="icons" enable-background="new 0 0 64 64" height="512" viewBox="0 0 64 64" width="512" xmlns="http://www.w3.org/2000/svg"><g><path d="m30.008 16.002c-.553 0-1 .447-1 1v18.996c0 .553.447 1 1 1s1-.447 1-1v-18.996c0-.553-.447-1-1-1z"/><path d="m34.008 36.998c.553 0 1-.447 1-1v-18.996c0-.553-.447-1-1-1s-1 .447-1 1v18.996c0 .553.447 1 1 1z"/><path d="m45.008 35.008h4c.553 0 1-.447 1-1s-.447-1-1-1h-4c-.553 0-1 .447-1 1s.447 1 1 1z"/><path d="m45.008 31.004h4c.553 0 1-.447 1-1s-.447-1-1-1h-4c-.553 0-1 .447-1 1s.447 1 1 1z"/><path d="m45.008 39.008h4c.553 0 1-.447 1-1s-.447-1-1-1h-4c-.553 0-1 .447-1 1s.447 1 1 1z"/><path d="m22.01 25.004h-10c-.553 0-1 .447-1 1v20.859c-4.706 4.086-8.243 9.547-9.931 15.879-.143.534.175 1.082.708 1.224.087.023.173.034.259.034.441 0 .846-.295.965-.742 2.629-9.862 10.033-17.48 19.323-20.648.027-.01.057-.013.082-.024 3.029-1.023 6.256-1.58 9.584-1.58 13.576 0 25.497 9.149 28.989 22.25.143.534.692.852 1.224.708.533-.142.851-.689.708-1.224-1.686-6.323-5.216-11.779-9.913-15.862v-20.874c0-.553-.447-1-1-1h-10c-.553 0-1 .447-1 1v14.299c-.331-.098-.664-.19-1-.277v-28.024c0-.553-.447-1-1-1h-3v-3c0-.553-.447-1-1-1h-2v-6.002c0-.553-.447-1-1-1s-1 .447-1 1v6.002h-2c-.553 0-1 .447-1 1v3h-3c-.553 0-1 .447-1 1v28.02c-.335.086-.667.18-.998.276v-14.294c0-.553-.447-1-1-1zm20.998 2h8v18.271c-1.125-.83-2.303-1.588-3.529-2.267h1.529c.553 0 1-.447 1-1s-.447-1-1-1h-4c-.335 0-.616.175-.798.428-.397-.164-.798-.32-1.202-.469zm-13-18.002h4v2h-4zm-4 4h12v26.579c-1.954-.374-3.963-.575-6.008-.575-2.04 0-4.043.2-5.992.572zm-6.203 28.428c-.183-.249-.462-.422-.795-.422h-4c-.553 0-1 .447-1 1s.447 1 1 1h1.513c-1.22.675-2.393 1.429-3.513 2.255v-18.259h8v13.956c-.406.149-.808.306-1.205.47z"/><path d="m19.01 33.008h-4c-.553 0-1 .447-1 1s.447 1 1 1h4c.553 0 1-.447 1-1s-.447-1-1-1z"/><path d="m15.01 31.004h4c.553 0 1-.447 1-1s-.447-1-1-1h-4c-.553 0-1 .447-1 1s.447 1 1 1z"/><path d="m19.01 37.008h-4c-.553 0-1 .447-1 1s.447 1 1 1h4c.553 0 1-.447 1-1s-.447-1-1-1z"/><path d="m38 55.994c0 3.862 3.142 7.004 7.004 7.004s7.004-3.142 7.004-7.004-3.142-7.004-7.004-7.004-7.004 3.142-7.004 7.004zm12.008 0c0 2.759-2.245 5.004-5.004 5.004s-5.004-2.245-5.004-5.004 2.245-5.004 5.004-5.004 5.004 2.245 5.004 5.004z"/><path d="m29.506 45.004c-1.93 0-3.5 1.57-3.5 3.5s1.57 3.5 3.5 3.5 3.5-1.57 3.5-3.5-1.57-3.5-3.5-3.5zm0 5c-.827 0-1.5-.673-1.5-1.5s.673-1.5 1.5-1.5 1.5.673 1.5 1.5-.673 1.5-1.5 1.5z"/><path d="m12.992 58.014c0 2.757 2.243 5 5 5s5-2.243 5-5-2.243-5-5-5-5 2.243-5 5zm8 0c0 1.654-1.346 3-3 3s-3-1.346-3-3 1.346-3 3-3 3 1.345 3 3z"/></g></svg>