<svg id="icons" enable-background="new 0 0 64 64" height="512" viewBox="0 0 64 64" width="512" xmlns="http://www.w3.org/2000/svg"><g><path d="m62.369 29.954 1.085-1.551c.316-.452.206-1.076-.246-1.393l-1.551-1.085.8-1.714c.233-.501.017-1.096-.483-1.329l-1.714-.8.489-1.826c.068-.256.033-.529-.1-.759s-.352-.397-.607-.466l-1.828-.49.165-1.885c.048-.55-.358-1.035-.909-1.083l-1.885-.165-.165-1.885c-.049-.55-.535-.961-1.083-.909l-1.885.165-.49-1.826c-.144-.534-.689-.849-1.225-.707l-1.828.49-.8-1.715c-.233-.499-.829-.716-1.329-.483l-1.714.8-1.085-1.548c-.152-.218-.385-.365-.646-.412-.262-.045-.529.015-.747.167l-1.546 1.084-1.337-1.338c-.188-.188-.441-.293-.707-.293s-.52.105-.707.293l-1.338 1.338-1.55-1.085c-.217-.151-.485-.213-.747-.165-.261.046-.493.193-.646.411l-1.085 1.55-1.714-.801c-.241-.113-.517-.126-.765-.033-.249.091-.452.276-.564.517l-.8 1.716-1.828-.489c-.256-.067-.529-.032-.759.1-.23.133-.397.352-.466.608l-.169.634c-1.562-.373-3.184-.592-4.86-.592-11.579 0-21 9.421-21 21s9.421 21 21 21c1.676 0 3.297-.219 4.86-.591l.17.635c.068.256.236.475.466.607s.501.166.76.1l1.827-.491.798 1.715c.111.24.314.427.564.518.249.091.524.08.765-.033l1.716-.801 1.083 1.55c.151.217.384.365.646.411.262.048.53-.014.747-.165l1.55-1.085 1.34 1.34c.188.188.442.293.707.293.266 0 .52-.105.707-.293l1.337-1.338 1.551 1.085c.453.316 1.077.207 1.393-.246l1.085-1.55 1.714.801c.239.111.516.125.765.033.249-.091.452-.276.564-.517l.8-1.716 1.828.489c.255.066.528.031.759-.1.23-.133.397-.352.466-.608l.488-1.827 1.887.165c.263.026.527-.059.73-.23s.33-.415.353-.68l.162-1.884 1.886-.165c.265-.023.509-.15.679-.354.171-.203.254-.466.23-.729l-.165-1.884 1.829-.491c.256-.069.475-.236.606-.467.133-.229.168-.503.1-.759l-.491-1.825 1.716-.8c.24-.112.426-.314.517-.564.091-.249.079-.524-.033-.765l-.8-1.714 1.549-1.085c.453-.317.563-.94.246-1.393l-1.085-1.55 1.338-1.338c.185-.186.29-.441.29-.706 0-.266-.105-.52-.293-.707zm-60.369 2.046c0-10.477 8.523-19 19-19s19 8.523 19 19-8.523 19-19 19-19-8.523-19-19zm30.19-17.738c2.164-.834 4.445-1.262 6.808-1.262 10.477 0 19 8.523 19 19s-8.523 19-19 19c-2.362 0-4.643-.429-6.807-1.263 5.883-3.724 9.809-10.274 9.809-17.737 0-7.464-3.926-14.014-9.81-17.738zm28.059 20.241.993 1.418-1.417.992c-.397.278-.538.803-.333 1.242l.731 1.568-1.57.731c-.439.205-.669.697-.543 1.166l.449 1.671-1.673.449c-.468.126-.778.57-.736 1.053l.15 1.723-1.726.151c-.484.042-.868.427-.909.91l-.148 1.723-1.726-.15c-.474-.044-.929.27-1.053.738l-.447 1.672-1.672-.448c-.467-.129-.961.104-1.165.543l-.731 1.569-1.568-.732c-.438-.204-.964-.066-1.242.333l-.993 1.419-1.419-.993c-.397-.278-.938-.231-1.28.112l-1.223 1.224-1.227-1.226c-.344-.343-.884-.389-1.28-.112l-1.417.992-.991-1.418c-.278-.396-.803-.54-1.242-.333l-1.569.732-.73-1.568c-.155-.333-.473-.545-.821-.574.086-.039.17-.083.256-.123 2.827 1.351 5.858 2.043 9.021 2.043 11.579 0 21-9.421 21-21s-9.421-21-21-21c-3.165 0-6.197.691-9.024 2.043-.087-.042-.173-.086-.261-.126.35-.028.673-.238.828-.572l.731-1.569 1.568.732c.438.204.963.066 1.242-.333l.993-1.419 1.417.993c.396.277.938.231 1.28-.112l1.225-1.224 1.223 1.224c.344.344.884.391 1.281.111l1.415-.991.992 1.416c.278.398.804.538 1.242.333l1.568-.731.731 1.568c.204.439.696.67 1.165.543l1.673-.448.448 1.671c.125.469.58.781 1.053.737l1.725-.151.151 1.725c.042.483.426.867.909.909l1.725.151-.151 1.725c-.042.483.269.927.737 1.053l1.673.448-.448 1.671c-.126.469.104.96.543 1.165l1.568.731-.731 1.568c-.205.44-.064.964.333 1.242l1.419.993-.993 1.419c-.278.397-.23.938.112 1.28l1.224 1.223-1.224 1.225c-.342.342-.389.882-.111 1.28z"/><path d="m39.024 47h-.011c-.552 0-.994.447-.994 1s.452 1 1.005 1c.552 0 1-.447 1-1s-.448-1-1-1z"/><path d="m43.024 45c.552 0 1-.447 1-1s-.448-1-1-1h-.011c-.552 0-.994.447-.994 1s.453 1 1.005 1z"/><path d="m47.024 49c.552 0 1-.447 1-1s-.448-1-1-1h-.011c-.552 0-.994.447-.994 1s.453 1 1.005 1z"/><path d="m43.024 37c.552 0 1-.447 1-1s-.448-1-1-1h-.011c-.552 0-.994.447-.994 1s.453 1 1.005 1z"/><path d="m47.024 41c.552 0 1-.447 1-1s-.448-1-1-1h-.011c-.552 0-.994.447-.994 1s.453 1 1.005 1z"/><path d="m51.024 45c.552 0 1-.447 1-1s-.448-1-1-1h-.011c-.552 0-.994.447-.994 1s.453 1 1.005 1z"/><path d="m43.024 29c.552 0 1-.447 1-1s-.448-1-1-1h-.011c-.552 0-.994.447-.994 1s.453 1 1.005 1z"/><path d="m47.024 33c.552 0 1-.447 1-1s-.448-1-1-1h-.011c-.552 0-.994.447-.994 1s.453 1 1.005 1z"/><path d="m51.024 37c.552 0 1-.447 1-1s-.448-1-1-1h-.011c-.552 0-.994.447-.994 1s.453 1 1.005 1z"/><path d="m55.024 41c.552 0 1-.447 1-1s-.448-1-1-1h-.011c-.552 0-.994.447-.994 1s.453 1 1.005 1z"/><path d="m39.024 17c.552 0 1-.447 1-1s-.448-1-1-1h-.011c-.552 0-.994.447-.994 1s.453 1 1.005 1z"/><path d="m43.024 21c.552 0 1-.447 1-1s-.448-1-1-1h-.011c-.552 0-.994.447-.994 1s.453 1 1.005 1z"/><path d="m47.024 25c.552 0 1-.447 1-1s-.448-1-1-1h-.011c-.552 0-.994.447-.994 1s.453 1 1.005 1z"/><path d="m51.024 29c.552 0 1-.447 1-1s-.448-1-1-1h-.011c-.552 0-.994.447-.994 1s.453 1 1.005 1z"/><path d="m55.024 33c.552 0 1-.447 1-1s-.448-1-1-1h-.011c-.552 0-.994.447-.994 1s.453 1 1.005 1z"/><path d="m47.024 17c.552 0 1-.447 1-1s-.448-1-1-1h-.011c-.552 0-.994.447-.994 1s.453 1 1.005 1z"/><path d="m51.024 21c.552 0 1-.447 1-1s-.448-1-1-1h-.011c-.552 0-.994.447-.994 1s.453 1 1.005 1z"/><path d="m55.024 25c.552 0 1-.447 1-1s-.448-1-1-1h-.011c-.552 0-.994.447-.994 1s.453 1 1.005 1z"/><path d="m22 25.998c0-3.859-3.141-7-7-7s-7 3.141-7 7 3.141 7 7 7 7-3.141 7-7zm-7 5c-2.757 0-5-2.243-5-5s2.243-5 5-5 5 2.243 5 5-2.243 5-5 5z"/><path d="m36.002 31.499c0-1.93-1.57-3.5-3.5-3.5s-3.5 1.57-3.5 3.5 1.57 3.5 3.5 3.5 3.5-1.57 3.5-3.5zm-3.5 1.5c-.827 0-1.5-.673-1.5-1.5s.673-1.5 1.5-1.5 1.5.673 1.5 1.5-.673 1.5-1.5 1.5z"/><path d="m21 36.999c-2.757 0-5 2.243-5 5s2.243 5 5 5 5-2.243 5-5-2.243-5-5-5zm0 8c-1.654 0-3-1.346-3-3s1.346-3 3-3 3 1.346 3 3-1.346 3-3 3z"/></g></svg>