<svg id="icons" enable-background="new 0 0 64 64" height="512" viewBox="0 0 64 64" width="512" xmlns="http://www.w3.org/2000/svg"><g><path d="m28.994 64.003c.553 0 1-.447 1-1v-4.002c0-1.654-1.346-3-3-3h-12c-1.654 0-3 1.346-3 3v4.002c0 .553.447 1 1 1s1-.447 1-1v-4.002c0-.552.448-1 1-1h12c.552 0 1 .448 1 1v4.002c0 .553.447 1 1 1z"/><path d="m15.994 60.004c-.553 0-1 .447-1 1s.447 1 1 1h10c.553 0 1-.447 1-1s-.447-1-1-1z"/><path d="m7.024 54.004c0-.553-.448-1-1-1h-.01c-.552 0-.994.447-.994 1s.452 1 1.005 1c.551 0 .999-.447.999-1z"/><path d="m9.026 55.001c.552 0 1-.447 1-1s-.448-1-1-1h-.01c-.552 0-.994.447-.994 1s.452 1 1.004 1z"/><path d="m47.998 29.984c-2.915 0-5.642.796-7.998 2.164v-12.131c0-.007.004-.013.004-.02s-.004-.013-.004-.019v-.98c0-10.477-8.523-19-19-19s-19 8.523-19 19v.99c0 .004-.002.007-.002.01s.002.005.002.009v27.103c-1.235 1.262-2 2.988-2 4.89l.002 10.995c0 .553.448 1 1 1 .553 0 1-.448 1-1l-.002-10.995c0-2.758 2.244-5.002 5.002-5.002h4.066c.49 3.945 3.856 7.01 7.932 7.01h3.99c4.075 0 7.441-3.064 7.932-7.009h1.076v16c0 .553.447 1 1 1h30.002c.553 0 1-.447 1-1v-17.015c0-.005-.003-.009-.003-.013-.007-8.816-7.181-15.987-15.999-15.987zm14 16c0 .004.002.006.002.01v16.005h-28.002v-16.015c0-7.72 6.28-14 14-14s14 6.281 14 14zm-29.95-.985-4.048-.001v-3.635c5.319-2.603 9-8.056 9-14.365v-6.001h1v12.516c-3.412 2.741-5.667 6.848-5.952 11.486zm-25.046-.001c-1.075 0-2.091.251-3.002.686v-24.687h1v6.001c0 6.31 3.681 11.762 9 14.365v3.636zm27.998-24.001v6.001c0 7.72-6.28 14-14 14s-14-6.28-14-14v-6.001zm-19 25.002v-3.813c1.575.521 3.253.812 5 .812s3.425-.291 5-.812v3.782c-.001.014-.008.025-.008.039 0 .803-.312 1.557-.878 2.123-.566.565-1.318.877-2.121.877-.001 0-.002 0-.003 0h-3.99c-1.654 0-3-1.346-3-3 0-.002-.001-.003-.001-.004s.001-.002.001-.004zm5-44.002c9.374 0 17 7.626 17 17h-2v-1c0-.553-.447-1-1-1s-1 .447-1 1v1h-2v-1c0-.553-.447-1-1-1s-1 .447-1 1v1h-2v-1c0-.553-.447-1-1-1s-1 .447-1 1v1h-2v-1c0-.553-.447-1-1-1s-1 .447-1 1v1h-2v-1c0-.553-.447-1-1-1s-1 .447-1 1v1h-2v-1c0-.553-.447-1-1-1s-1 .447-1 1v1h-2v-1c0-.553-.447-1-1-1s-1 .447-1 1v1h-2v-1c0-.553-.447-1-1-1s-1 .447-1 1v1h-2c0-9.374 7.626-17 17-17zm1.99 50.011h-3.99c-2.971 0-5.437-2.172-5.911-5.009h1.012c.461 2.283 2.481 4.009 4.899 4.009l3.99.002c2.419 0 4.44-1.727 4.901-4.012h1.01c-.474 2.838-2.94 5.01-5.911 5.01z"/><path d="m35.998 44.995v9.003c0 1.654 1.346 3 3 3h18.002c1.654 0 3-1.346 3-3v-9.003c0-1.654-1.346-3-3-3h-18.002c-1.654 0-3 1.346-3 3zm2 0c0-.552.448-1 1-1h18.002c.552 0 1 .448 1 1v5.002c0 1.104-.897 2.001-2 2.001h-8.002c-.553 0-1 .447-1 1s.447 1 1 1h8.002c.731 0 1.409-.212 2-.557v.557c0 .552-.448 1-1 1h-18.002c-.552 0-1-.448-1-1z"/><path d="m50.998 58.998h-6c-.553 0-1 .447-1 1s.447 1 1 1h6c.553 0 1-.447 1-1s-.447-1-1-1z"/></g></svg>