<svg id="icons" enable-background="new 0 0 64 64" height="512" viewBox="0 0 64 64" width="512" xmlns="http://www.w3.org/2000/svg"><g><path d="m6.002 32.997v3.002h-1.999c-.553 0-1 .447-1 1v25.99c0 .553.447 1 1 1h55.994c.553 0 1-.447 1-1v-25.99c0-.553-.447-1-1-1h-1.999v-3.002c0-.553-.447-1-1-1h-20.998c-1.642 0-3.088.806-4 2.032-.912-1.227-2.358-2.032-4-2.032h-20.998c-.553 0-1 .447-1 1zm-.999 5.002h.999v20.99c0 .553.447 1 1 1h20.998c1.302 0 2.401.839 2.815 2h-25.812zm53.994 0v23.99h-25.812c.414-1.161 1.514-2 2.815-2h20.998c.553 0 1-.447 1-1v-20.99zm-22.997-4.002h19.998v23.992h-19.998c-1.13 0-2.162.391-3 1.025v-22.015c0-1.655 1.346-3.002 3-3.002zm-5 3.002v22.016c-.838-.635-1.87-1.025-3-1.025h-19.998v-23.993h19.998c1.654 0 3 1.347 3 3.002z"/><path d="m12.002 38.997h8.998c.553 0 1-.447 1-1s-.447-1-1-1h-8.998c-.553 0-1 .447-1 1s.447 1 1 1z"/><path d="m12.002 47.001h7c.553 0 1-.447 1-1s-.447-1-1-1h-7c-.553 0-1 .447-1 1s.447 1 1 1z"/><path d="m27 45.001h-3.998c-.553 0-1 .447-1 1s.447 1 1 1h3.998c.553 0 1-.447 1-1s-.447-1-1-1z"/><path d="m27 40.999h-10.998c-.553 0-1 .447-1 1s.447 1 1 1h10.998c.553 0 1-.447 1-1s-.447-1-1-1z"/><path d="m12.002 42.999h1c.553 0 1-.447 1-1s-.447-1-1-1h-1c-.553 0-1 .447-1 1s.447 1 1 1z"/><path d="m27 36.997h-2c-.553 0-1 .447-1 1s.447 1 1 1h2c.553 0 1-.447 1-1s-.447-1-1-1z"/><path d="m12.002 51.003h9.998c.553 0 1-.447 1-1s-.447-1-1-1h-9.998c-.553 0-1 .447-1 1s.447 1 1 1z"/><path d="m27 49.003h-1c-.553 0-1 .447-1 1s.447 1 1 1h1c.553 0 1-.447 1-1s-.447-1-1-1z"/><path d="m16.002 53.005h-4c-.553 0-1 .447-1 1s.447 1 1 1h4c.553 0 1-.447 1-1s-.447-1-1-1z"/><path d="m27 53.005h-6.998c-.553 0-1 .447-1 1s.447 1 1 1h6.998c.553 0 1-.447 1-1s-.447-1-1-1z"/><path d="m43.017 38.988h8.998c.553 0 1-.447 1-1s-.447-1-1-1h-8.998c-.553 0-1 .447-1 1s.447 1 1 1z"/><path d="m52.015 44.992h-7c-.553 0-1 .447-1 1s.447 1 1 1h7c.553 0 1-.447 1-1s-.448-1-1-1z"/><path d="m37.017 46.992h3.998c.553 0 1-.447 1-1s-.447-1-1-1h-3.998c-.553 0-1 .447-1 1s.447 1 1 1z"/><path d="m37.017 42.99h10.998c.553 0 1-.447 1-1s-.447-1-1-1h-10.998c-.553 0-1 .447-1 1s.447 1 1 1z"/><path d="m52.015 40.99h-1c-.553 0-1 .447-1 1s.447 1 1 1h1c.553 0 1-.447 1-1s-.448-1-1-1z"/><path d="m37.017 38.988h2c.553 0 1-.447 1-1s-.447-1-1-1h-2c-.553 0-1 .447-1 1s.447 1 1 1z"/><path d="m52.015 48.994h-9.998c-.553 0-1 .447-1 1s.447 1 1 1h9.998c.553 0 1-.447 1-1s-.448-1-1-1z"/><path d="m37.017 50.994h1c.553 0 1-.447 1-1s-.447-1-1-1h-1c-.553 0-1 .447-1 1s.447 1 1 1z"/><path d="m52.015 52.996h-4c-.553 0-1 .447-1 1s.447 1 1 1h4c.553 0 1-.447 1-1s-.448-1-1-1z"/><path d="m37.017 54.996h6.998c.553 0 1-.447 1-1s-.447-1-1-1h-6.998c-.553 0-1 .447-1 1s.447 1 1 1z"/><path d="m23.986 24.994h16c1.654 0 3-1.346 3-3v-8.995c0-1.654-1.346-3-3-3h-16c-1.654 0-3 1.346-3 3v8.995c0 1.654 1.346 3 3 3zm-1-11.995c0-.552.448-1 1-1h16c.552 0 1 .448 1 1v4.994c0 1.104-.897 2.001-2.001 2.001h-7c-.553 0-1 .447-1 1s.447 1 1 1h7c.732 0 1.41-.212 2.001-.557v.557c0 .552-.448 1-1 1h-16c-.552 0-1-.448-1-1z"/><path d="m15 15.012v4.979c0 .553.447 1 1 1h1.987v8.003c0 .553.447 1 1 1h25.997c.553 0 1-.447 1-1v-8.004h1.985c.553 0 1-.447 1-1v-4.979c0-.553-.447-1-1-1h-1.984v-.001c0-.007-.001-.013-.001-.02v-.003-.001c-.013-7.708-6.287-13.975-13.999-13.975-7.72 0-14 6.28-14 14v.001h-1.985c-.553 0-1 .447-1 1zm31.97 3.978h-.985v-2.979h.985zm-14.985-16.979c6.61 0 11.988 5.372 11.999 11.98v1.021 4.979 8.003h-23.997v-14.006c0-.001-.001-.002-.001-.003.015-6.605 5.391-11.974 11.999-11.974zm-14.985 14.001h.985v2.979h-.985z"/></g></svg>