<svg id="icons" enable-background="new 0 0 64 64" height="512" viewBox="0 0 64 64" width="512" xmlns="http://www.w3.org/2000/svg"><g><path d="m57.013 6.419c-4.693-1.837-10.023-.724-13.579 2.834l-.221.221c-.001.001-.002.001-.003.002s-.001.002-.002.003l-16.907 16.906c-1.203-.904-2.655-1.4-4.187-1.401 0 0 0 0-.001 0-1.868 0-3.626.729-4.948 2.052l-2.121 2.121c-.391.391-.391 1.023 0 1.414l3.535 3.536-.707.707c-.391.391-.391 1.023 0 1.414l.707.707c-1.17 1.17-1.17 3.072 0 4.242l4.243 4.243c.585.585 1.354.878 2.121.878.769 0 1.536-.293 2.12-.877l.001-.001.707.707c.195.195.451.293.707.293s.512-.098.707-.293l.707-.707 3.536 3.535c.195.195.451.293.707.293s.512-.098.707-.293l2.121-2.121c2.488-2.488 2.699-6.396.65-9.136l17.133-17.132c3.557-3.558 4.668-8.888 2.833-13.58-.1-.259-.307-.465-.566-.567zm-21.462 30.515c0 .001-.001.001 0 0-.001.001-.001.002-.002.002l-6.363 6.363-.707.707-8.485-8.485 23.925-23.923 8.484 8.484zm-18.386-7.071 1.414-1.414c.945-.945 2.2-1.466 3.535-1.466.995 0 1.945.292 2.757.831l-4.878 4.878zm7.071 14.143-4.243-4.243c-.189-.189-.293-.44-.293-.707 0-.251.099-.483.267-.668.012-.011.027-.015.038-.025l.001-.001 5.645 5.645-.001.001c-.389.388-1.023.388-1.414-.002zm11.314 1.414-1.414 1.414-2.829-2.828 4.879-4.879c1.283 1.941 1.071 4.586-.636 6.293zm18.232-26.786-8.416-8.416c2.87-2.522 6.873-3.341 10.503-2.088 1.251 3.631.435 7.633-2.087 10.504z"/><path d="m42.917 21.082c-.755-.755-1.76-1.171-2.828-1.171-1.069 0-2.074.416-2.829 1.171-1.559 1.56-1.559 4.098 0 5.657.755.755 1.76 1.17 2.829 1.17 1.068 0 2.073-.415 2.828-1.17 1.559-1.559 1.559-4.097 0-5.657zm-1.414 4.243c-.754.754-2.075.754-2.829 0-.779-.78-.779-2.049 0-2.829.377-.377.88-.585 1.415-.585.534 0 1.037.208 1.414.585.779.78.779 2.049 0 2.829z"/><path d="m28.479 29.864c-.755.755-1.171 1.76-1.171 2.828 0 1.069.416 2.074 1.171 2.828.754.755 1.759 1.171 2.828 1.171s2.074-.416 2.828-1.171c.755-.754 1.171-1.759 1.171-2.828 0-1.068-.416-2.073-1.171-2.828-1.51-1.51-4.147-1.51-5.656 0zm4.242 4.242c-.754.756-2.074.756-2.828 0-.378-.377-.585-.879-.585-1.414 0-.534.208-1.036.585-1.414.377-.377.879-.584 1.414-.584s1.037.207 1.414.584c.377.378.585.88.585 1.414 0 .536-.207 1.037-.585 1.414z"/><path d="m15.755 42.244c-1.603 0-3.109.624-4.242 1.758-1.021 1.021-2.898 3.698-4.272 6.413-1.875 3.704-2.192 6.097-.973 7.316.479.479 1.153.722 2.007.722 3.463 0 10.003-4.246 11.724-5.967 1.133-1.133 1.757-2.64 1.757-4.242s-.624-3.109-1.758-4.242c-1.134-1.134-2.641-1.758-4.243-1.758zm2.829 8.828c-1.726 1.726-7.713 5.381-10.31 5.381-.286 0-.508-.051-.593-.136-.22-.22-.405-1.545 1.343-4.999 1.267-2.503 3.012-5.012 3.902-5.902.756-.756 1.76-1.172 2.828-1.172s2.072.416 2.828 1.172 1.172 1.76 1.172 2.828-.415 2.073-1.17 2.828z"/><path d="m31.032 3.98h-.011c-.552 0-.994.447-.994 1s.452 1 1.005 1c.552 0 1-.447 1-1s-.448-1-1-1z"/><path d="m29.03 58.02h-.01c-.552 0-.994.447-.994 1s.452 1 1.005 1c.552 0 1-.447 1-1s-.449-1-1.001-1z"/><path d="m52.987 48.991c-1.654 0-3 1.346-3 3 0 1.036.528 1.951 1.329 2.49-.88 1.528-2.517 2.51-4.327 2.51-.553 0-1 .447-1 1s.447 1 1 1c2.733 0 5.179-1.6 6.32-4.032 1.501-.164 2.678-1.424 2.678-2.968 0-1.654-1.345-3-3-3zm0 4c-.552 0-1-.448-1-1s.448-1 1-1 1 .448 1 1-.448 1-1 1z"/><path d="m10.997 15.971c2.206 0 4-1.794 4-4s-1.794-4-4-4-4 1.794-4 4 1.794 4 4 4zm0-6c1.103 0 2 .897 2 2s-.897 2-2 2-2-.897-2-2 .898-2 2-2z"/><path d="m62.001 31.998v-1c0-.553-.447-1-1-1s-1 .447-1 1v1c-.553 0-1 .447-1 1s.447 1 1 1v1c0 .553.447 1 1 1s1-.447 1-1v-1c.553 0 1-.447 1-1s-.447-1-1-1z"/><path d="m3.999 33.997v-1c0-.553-.447-1-1-1s-1 .447-1 1v1c-.553 0-1 .447-1 1s.447 1 1 1v1c0 .553.447 1 1 1s1-.447 1-1v-1c.553 0 1-.447 1-1s-.447-1-1-1z"/></g></svg>