<svg id="icons" enable-background="new 0 0 64 64" height="512" viewBox="0 0 64 64" width="512" xmlns="http://www.w3.org/2000/svg"><g><path d="m27.502 30.001c-1.379 0-2.5 1.121-2.5 2.5s1.121 2.5 2.5 2.5 2.5-1.121 2.5-2.5-1.121-2.5-2.5-2.5zm0 3c-.275 0-.5-.225-.5-.5s.225-.5.5-.5.5.225.5.5-.225.5-.5.5z"/><path d="m12.5 29.001c-1.929 0-3.498 1.57-3.498 3.5s1.569 3.5 3.498 3.5c1.93 0 3.5-1.57 3.5-3.5s-1.57-3.5-3.5-3.5zm0 5c-.826 0-1.498-.673-1.498-1.5s.672-1.5 1.498-1.5c.827 0 1.5.673 1.5 1.5s-.673 1.5-1.5 1.5z"/><path d="m20.5 29.001c-1.929 0-3.498 1.57-3.498 3.5s1.569 3.5 3.498 3.5c1.93 0 3.5-1.57 3.5-3.5s-1.57-3.5-3.5-3.5zm0 5c-.826 0-1.498-.673-1.498-1.5s.672-1.5 1.498-1.5c.827 0 1.5.673 1.5 1.5s-.673 1.5-1.5 1.5z"/><path d="m36.502 27.001c-3.032 0-5.5 2.468-5.5 5.5s2.468 5.5 5.5 5.5 5.5-2.468 5.5-5.5-2.468-5.5-5.5-5.5zm0 9c-1.93 0-3.5-1.57-3.5-3.5s1.57-3.5 3.5-3.5 3.5 1.57 3.5 3.5-1.57 3.5-3.5 3.5z"/><path d="m47.077 27.21c-2.18-1.488-3.768-1.781-4.706-.839-1.095 1.095-.353 2.948.84 4.701-.124.463-.211.938-.211 1.429 0 1.469.573 2.85 1.613 3.889 1.039 1.039 2.42 1.612 3.888 1.612.486 0 .956-.085 1.414-.207.366.251.719.469 1.055.652.963.525 1.708.717 2.284.717.656 0 1.092-.248 1.376-.532.943-.941.648-2.529-.841-4.711.489-1.836.039-3.871-1.398-5.309-1.04-1.04-2.421-1.612-3.89-1.612-.49 0-.963.086-1.424.21zm-3.24.631c.182.019.557.105 1.181.439-.135.111-.279.207-.404.332s-.222.27-.333.404c-.308-.576-.424-.966-.444-1.175zm2.19 7.135c-.411-.411-.692-.912-.858-1.452.413.456.805.862 1.126 1.184.388.388.768.746 1.144 1.089-.523-.159-1.013-.423-1.412-.821zm7.134 2.189c-.208-.021-.599-.136-1.175-.443.135-.111.279-.207.404-.332.126-.126.221-.271.332-.406.336.625.422 1 .439 1.181zm-1.159-4.664c0 .351-.067.688-.166 1.014-.084.131-.135.274-.152.427-.172.379-.404.731-.707 1.034-.229.229-.495.404-.773.554-.707-.552-1.536-1.278-2.494-2.236-.962-.962-1.691-1.795-2.244-2.504.155-.273.334-.534.563-.763.659-.663 1.538-1.027 2.472-1.027.935 0 1.813.365 2.476 1.026.661.662 1.025 1.54 1.025 2.475z"/><path d="m62.048 29.638 1.38-1.897c.156-.215.221-.482.179-.744-.041-.263-.186-.498-.4-.653l-1.898-1.377 1.067-2.089c.121-.236.143-.512.061-.765-.082-.252-.262-.462-.498-.582l-2.091-1.062.728-2.231c.082-.252.061-.527-.061-.764-.12-.236-.33-.416-.583-.497l-2.23-.722.369-2.317c.042-.262-.022-.53-.179-.745s-.391-.358-.653-.4l-2.316-.364.001-2.346c0-.266-.105-.521-.293-.708s-.442-.293-.707-.293h-.001l-2.345.003-.363-2.317c-.042-.262-.186-.497-.4-.653s-.487-.222-.745-.179l-2.32.368-.723-2.232c-.082-.253-.261-.463-.497-.583-.237-.12-.511-.142-.765-.06l-2.229.728-1.063-2.093c-.12-.236-.33-.416-.583-.498-.252-.081-.528-.059-.764.061l-2.088 1.068-1.378-1.9c-.156-.215-.391-.359-.653-.4-.262-.044-.531.022-.745.18l-1.896 1.382-1.661-1.662c-.375-.375-1.038-.375-1.415 0l-1.657 1.66-1.896-1.38c-.215-.155-.483-.224-.744-.179-.263.041-.497.186-.653.4l-1.377 1.897-2.09-1.065c-.236-.12-.509-.141-.764-.061-.252.082-.461.261-.582.498l-1.063 2.09-2.229-.727c-.251-.08-.527-.06-.764.061s-.415.33-.497.582l-.724 2.231-2.317-.369c-.259-.044-.53.021-.745.179-.215.155-.358.391-.4.653l-.364 2.317-2.347-.002h-.001c-.266 0-.52.105-.707.293s-.293.442-.293.708l.001 2.346-2.314.364c-.263.042-.498.186-.653.4-.156.215-.221.482-.179.745l.367 2.317-2.231.723c-.252.082-.462.261-.582.497-.121.236-.143.512-.061.764l.728 2.23-2.091 1.063c-.237.12-.416.33-.498.583-.082.252-.061.526.061.764l1.066 2.089-1.898 1.378c-.215.156-.358.392-.399.653-.042.262.022.53.179.744l1.38 1.896-1.659 1.658c-.188.188-.293.441-.293.707s.105.521.294.708l1.66 1.657-1.38 1.896c-.156.214-.221.482-.179.744.041.263.186.497.4.653l1.899 1.377-1.066 2.09c-.121.236-.143.511-.061.764.082.252.262.462.498.582l2.089 1.062-.726 2.231c-.082.253-.061.527.061.764.12.236.33.415.582.497l2.231.723-.367 2.317c-.042.263.022.53.179.745s.391.358.653.4l2.315.364v2.347c0 .266.105.52.293.707s.442.293.707.293h.001l2.344-.002.367 2.317c.041.262.185.497.399.653.215.155.481.223.745.178l2.314-.368.726 2.232c.082.252.262.462.498.582.236.121.511.142.764.059l2.228-.727 1.065 2.092c.12.236.33.415.582.497.254.082.528.06.764-.061l2.086-1.067 1.381 1.9c.155.215.391.358.652.399.268.045.53-.023.745-.179l1.895-1.38 1.653 1.654c.188.193.441.298.707.298s.521-.105.708-.293l1.657-1.66 1.896 1.38c.214.156.481.222.744.179.262-.041.497-.185.653-.399l1.378-1.898 2.089 1.065c.235.12.512.143.763.061.253-.082.462-.261.583-.498l1.063-2.089 2.229.726c.252.081.527.061.764-.061.236-.12.415-.33.497-.582l.723-2.229 2.317.367c.265.043.53-.023.745-.179s.358-.391.4-.653l.364-2.315 2.347.001c.266 0 .52-.105.707-.293s.293-.442.293-.708l-.001-2.344 2.317-.366c.262-.041.497-.185.653-.399.155-.215.22-.483.178-.745l-.369-2.315 2.231-.723c.252-.082.462-.261.582-.497.121-.236.143-.511.061-.764l-.726-2.23 2.091-1.063c.236-.12.416-.33.498-.583.082-.252.061-.527-.061-.764l-1.067-2.089 1.898-1.377c.215-.156.359-.391.4-.653.042-.262-.022-.53-.179-.745l-1.381-1.896 1.661-1.657c.188-.188.294-.442.294-.708s-.105-.521-.294-.708zm-2.184-.353c-.108-1.124-.288-2.227-.525-3.309.035.035.061.076.102.106l1.781 1.291-1.294 1.779c-.03.042-.041.089-.064.133zm.274-6.426-1.001 1.959c-.021.042-.024.087-.039.131-.283-1.088-.637-2.146-1.043-3.178.042.03.075.068.123.093zm-28.14 35.141c-14.337 0-26-11.663-26-26s11.663-26 26-26 26 11.663 26 26-11.663 26-26 26zm26.363-39.43-.682 2.093c-.017.05-.013.1-.021.15-.452-1.033-.965-2.034-1.534-2.998.049.025.092.061.146.078zm-2.424-3.958-.346 2.173c-.009.058.003.113.004.17-.609-.951-1.269-1.868-1.984-2.737.052.018.099.045.154.054zm-5.215-3.527 2.199-.003-.001 2.2c0 .061.021.115.031.173-.751-.848-1.553-1.649-2.399-2.4.056.009.109.03.17.03zm-1.33-3.018.341 2.173c.009.055.036.1.053.151-.867-.716-1.783-1.373-2.732-1.981.056 0 .11.013.167.003zm-3.958-2.426.678 2.093c.018.054.052.095.077.143-.963-.568-1.962-1.081-2.994-1.533.05-.008.101-.004.149-.021zm-4.289-1.778.997 1.962c.023.047.062.079.092.12-1.03-.406-2.087-.759-3.173-1.041.042-.016.086-.018.127-.039zm-4.514-1.084 1.292 1.782c.029.04.069.064.104.099-1.078-.237-2.178-.416-3.298-.525.041-.021.086-.031.124-.06zm-4.633-.364 1.559 1.56c.034.034.078.052.115.08-.554-.034-1.111-.055-1.674-.055s-1.119.021-1.674.055c.04-.029.084-.048.12-.083zm-4.628.364 1.778 1.294c.039.028.084.039.126.062-1.121.108-2.222.287-3.301.525.034-.035.076-.061.105-.102zm-5.512 3.044.997-1.96 1.96.999c.041.021.086.024.129.039-1.088.283-2.146.637-3.178 1.043.03-.041.069-.074.092-.121zm-3.969 1.909.678-2.093 2.091.682c.049.016.099.012.148.021-1.031.451-2.03.964-2.993 1.532.024-.048.059-.089.076-.142zm-3.282.333 2.173.346c.056.01.11-.002.166-.003-.95.608-1.866 1.267-2.733 1.981.017-.051.044-.097.053-.151zm-1.331 3.018c.061 0 .113-.021.171-.03-.848.751-1.649 1.553-2.4 2.4.011-.059.031-.112.031-.173l-.001-2.199zm-3.043 3.187c.056-.009.102-.036.153-.054-.716.868-1.374 1.785-1.983 2.736.001-.056.013-.11.004-.168l-.345-2.173zm-2.504 3.623c.053-.018.094-.052.143-.076-.568.963-1.081 1.962-1.532 2.993-.009-.049-.005-.099-.021-.147l-.682-2.093zm-1.909 3.97c.047-.023.08-.063.121-.092-.406 1.031-.76 2.09-1.043 3.178-.015-.044-.018-.089-.039-.131l-1-1.958zm-1.263 4.22c.041-.029.065-.071.101-.105-.237 1.08-.416 2.182-.525 3.305-.024-.043-.033-.09-.063-.129l-1.294-1.779zm-2.144 5.921 1.556-1.555c.036-.036.055-.081.084-.12-.033.553-.055 1.109-.055 1.671 0 .563.021 1.122.055 1.677-.029-.039-.048-.084-.083-.119zm1.659 2.85c.028-.039.039-.084.061-.125.109 1.12.288 2.219.525 3.297-.034-.034-.058-.075-.098-.103l-1.78-1.291zm-.209 6.292 1-1.96c.021-.04.023-.084.038-.126.283 1.085.636 2.143 1.042 3.173-.041-.029-.074-.068-.121-.092zm1.777 4.29.681-2.093c.016-.049.012-.099.021-.148.452 1.032.964 2.032 1.533 2.995-.048-.025-.089-.06-.142-.076zm2.426 3.959.345-2.173c.009-.058-.003-.111-.004-.168.609.951 1.268 1.867 1.983 2.735-.052-.018-.098-.045-.153-.054zm5.214 3.528-2.198.002v-2.201c0-.061-.021-.114-.031-.172.752.849 1.555 1.65 2.403 2.402-.058-.011-.112-.031-.174-.031zm1.332 3.017-.344-2.174c-.009-.056-.036-.103-.054-.155.869.718 1.787 1.377 2.74 1.986-.058-.001-.114-.013-.173-.003zm3.959 2.426-.681-2.094c-.018-.055-.054-.098-.079-.146.966.569 1.968 1.084 3.003 1.536-.052.009-.104.005-.154.022zm4.289 1.776-.999-1.961c-.024-.048-.063-.082-.095-.125 1.034.407 2.096.762 3.186 1.045-.046.016-.093.019-.136.041zm4.515 1.085-1.295-1.782c-.03-.042-.073-.068-.109-.104 1.082.238 2.186.417 3.311.526-.043.022-.09.036-.13.065zm4.623.358-1.551-1.552c-.039-.039-.089-.057-.133-.088.558.034 1.119.055 1.684.055.563 0 1.119-.021 1.673-.055-.039.029-.084.048-.119.083zm4.629-.364-1.779-1.294c-.039-.028-.085-.039-.126-.062 1.122-.108 2.223-.288 3.303-.525-.034.035-.076.061-.105.101zm5.511-3.043-.997 1.959-1.958-.999c-.042-.021-.087-.024-.13-.039 1.087-.283 2.146-.637 3.178-1.043-.031.041-.069.075-.093.122zm3.969-1.908-.677 2.09-2.091-.681c-.05-.016-.1-.012-.15-.021 1.032-.452 2.032-.965 2.995-1.533-.025.05-.059.091-.077.145zm3.282-.334-2.173-.345c-.058-.01-.112.002-.169.003.952-.609 1.869-1.269 2.738-1.984-.018.052-.046.1-.055.155zm1.33-3.016c-.061 0-.115.021-.174.031.85-.752 1.652-1.556 2.405-2.404-.011.059-.032.114-.032.176l.001 2.198zm3.043-3.186c-.057.009-.104.037-.156.055.718-.87 1.377-1.788 1.987-2.741-.001.058-.014.113-.004.172l.346 2.171zm2.506-3.623c-.054.018-.097.053-.146.078.57-.966 1.084-1.967 1.537-3.002.008.052.004.104.021.154l.681 2.092zm1.91-3.97c-.049.024-.083.064-.126.096.407-1.033.762-2.094 1.045-3.184.016.045.019.091.04.133l1.001 1.959zm1.262-4.22c-.042.03-.067.072-.104.107.238-1.08.418-2.182.526-3.305.022.043.033.089.063.129l1.295 1.777zm.588-4.365c-.036.036-.056.082-.085.122.033-.556.055-1.114.055-1.678 0-.563-.021-1.121-.055-1.676.03.041.05.088.087.125l1.556 1.553z"/></g></svg>