<svg id="icons" enable-background="new 0 0 64 64" height="512" viewBox="0 0 64 64" width="512" xmlns="http://www.w3.org/2000/svg"><g><path d="m30 22.996c-.553 0-1 .447-1 1v16.99c0 .553.447 1 1 1s1-.447 1-1v-16.99c0-.553-.447-1-1-1z"/><path d="m34 22.996c-.553 0-1 .447-1 1v16.99c0 .553.447 1 1 1s1-.447 1-1v-16.99c0-.553-.447-1-1-1z"/><path d="m46 33.986h3c.553 0 1-.447 1-1s-.447-1-1-1h-3c-.553 0-1 .447-1 1s.447 1 1 1z"/><path d="m49 35.986h-3c-.553 0-1 .447-1 1s.447 1 1 1h3c.553 0 1-.447 1-1s-.447-1-1-1z"/><path d="m49 39.986h-3c-.553 0-1 .447-1 1s.447 1 1 1h3c.553 0 1-.447 1-1s-.447-1-1-1z"/><path d="m15 33.986h3c.553 0 1-.447 1-1s-.447-1-1-1h-3c-.553 0-1 .447-1 1s.447 1 1 1z"/><path d="m18 35.986h-3c-.553 0-1 .447-1 1s.447 1 1 1h3c.553 0 1-.447 1-1s-.447-1-1-1z"/><path d="m18 39.986h-3c-.553 0-1 .447-1 1s.447 1 1 1h3c.553 0 1-.447 1-1s-.447-1-1-1z"/><path d="m59 45.171v-18.171c0-14.888-12.112-27-27-27s-27 12.112-27 27v18.138c-1.197.354-2 1.333-2 2.599v2.25c0 .553.447 1 1 1h1.998v2.012c0 .553.447 1 1 1h13.998c.553 0 1-.447 1-1v-2.012h2.02v2.012c0 .553.447 1 1 1h13.998c.553 0 1-.447 1-1v-2.012h1.99v2.012c0 .553.447 1 1 1h13.998c.553 0 1-.447 1-1v-2.012h1.998c.553 0 1-.447 1-1v-2c0-1.302-.839-2.402-2-2.816zm-39.004 6.827h-11.998v-.998h11.998zm18.018 0h-11.998v-.998h11.998zm17.988 0h-11.998v-.998h11.998zm-24.002-49.998c13.785 0 25 11.215 25 25v17.986h-4v-15.994c0-.553-.447-1-1-1h-9c-.553 0-1 .447-1 1v15.994h-2v-25.99c0-.553-.447-1-1-1h-3v-3c0-.553-.447-1-1-1h-2v-3.998c0-.553-.447-1-1-1s-1 .447-1 1v3.998h-2c-.553 0-1 .447-1 1v3h-3c-.553 0-1 .447-1 1v25.99h-2v-15.994c0-.553-.447-1-1-1h-9c-.553 0-1 .447-1 1v15.994h-4v-17.986c0-13.785 11.215-25 25-25zm12 42.986v-14.994h7v14.994zm-18 0v-24.99h12v24.99zm4-28.99h4v2h-4zm-17 28.99v-14.994h7v14.994zm-7 2h52c.552 0 1 .448 1 1v1h-54v-1.25c0-.696.766-.75 1-.75z"/><path d="m13.997 55.125c-.553 0-1 .447-1 1v6.875c0 .553.447 1 1 1s1-.447 1-1v-6.875c0-.553-.447-1-1-1z"/><path d="m16.997 55c-.553 0-1 .447-1 1v3.998c0 .553.447 1 1 1s1-.447 1-1v-3.998c0-.553-.447-1-1-1z"/><path d="m10.997 55c-.553 0-1 .447-1 1v3.998c0 .553.447 1 1 1s1-.447 1-1v-3.998c0-.553-.447-1-1-1z"/><path d="m19.997 55c-.553 0-1 .447-1 1v.998c0 .553.447 1 1 1s1-.447 1-1v-.998c0-.553-.447-1-1-1z"/><path d="m7.997 55c-.553 0-1 .447-1 1v.998c0 .553.447 1 1 1s1-.447 1-1v-.998c0-.553-.447-1-1-1z"/><path d="m32.015 55.125c-.553 0-1 .447-1 1v6.875c0 .553.447 1 1 1s1-.447 1-1v-6.875c0-.553-.448-1-1-1z"/><path d="m35.015 55c-.553 0-1 .447-1 1v3.998c0 .553.447 1 1 1s1-.447 1-1v-3.998c0-.553-.448-1-1-1z"/><path d="m29.015 55c-.553 0-1 .447-1 1v3.998c0 .553.447 1 1 1s1-.447 1-1v-3.998c0-.553-.448-1-1-1z"/><path d="m38.015 55c-.553 0-1 .447-1 1v.998c0 .553.447 1 1 1s1-.447 1-1v-.998c0-.553-.448-1-1-1z"/><path d="m26.015 55c-.553 0-1 .447-1 1v.998c0 .553.447 1 1 1s1-.447 1-1v-.998c0-.553-.448-1-1-1z"/><path d="m50.003 55.125c-.553 0-1 .447-1 1v6.875c0 .553.447 1 1 1s1-.447 1-1v-6.875c0-.553-.447-1-1-1z"/><path d="m53.003 55c-.553 0-1 .447-1 1v3.998c0 .553.447 1 1 1s1-.447 1-1v-3.998c0-.553-.447-1-1-1z"/><path d="m47.003 55c-.553 0-1 .447-1 1v3.998c0 .553.447 1 1 1s1-.447 1-1v-3.998c0-.553-.447-1-1-1z"/><path d="m56.003 55c-.553 0-1 .447-1 1v.998c0 .553.447 1 1 1s1-.447 1-1v-.998c0-.553-.447-1-1-1z"/><path d="m44.003 55c-.553 0-1 .447-1 1v.998c0 .553.447 1 1 1s1-.447 1-1v-.998c0-.553-.447-1-1-1z"/></g></svg>