<svg id="Capa_1" enable-background="new 0 0 510 510" height="512" viewBox="0 0 510 510" width="512" xmlns="http://www.w3.org/2000/svg" xmlns:xlink="http://www.w3.org/1999/xlink"><linearGradient id="lg1"><stop offset="0" stop-color="#f8f6f7"/><stop offset=".1788" stop-color="#f8f6f7"/><stop offset="1" stop-color="#e7e6f5"/></linearGradient><linearGradient id="SVGID_1_" gradientUnits="userSpaceOnUse" x1="56.753" x2="448.657" xlink:href="#lg1" y1="108.065" y2="108.065"/><linearGradient id="lg2"><stop offset="0" stop-color="#f8f6f7"/><stop offset="1" stop-color="#d1ceeb"/></linearGradient><linearGradient id="SVGID_2_" gradientUnits="userSpaceOnUse" x1="280" x2="387.056" xlink:href="#lg2" y1="108.06" y2="108.06"/><linearGradient id="lg3"><stop offset="0" stop-color="#a79ba7"/><stop offset=".7487" stop-color="#7a6d79"/><stop offset="1" stop-color="#685e68"/></linearGradient><linearGradient id="SVGID_3_" gradientUnits="userSpaceOnUse" x1="74.893" x2="169.233" xlink:href="#lg3" y1="263.741" y2="263.741"/><linearGradient id="SVGID_4_" gradientUnits="userSpaceOnUse" x1="48.874" x2="151.408" xlink:href="#lg3" y1="263.741" y2="263.741"/><linearGradient id="SVGID_5_" gradientUnits="userSpaceOnUse" x1="353.107" x2="447.447" xlink:href="#lg3" y1="263.741" y2="263.741"/><linearGradient id="SVGID_6_" gradientUnits="userSpaceOnUse" x1="327.087" x2="429.621" xlink:href="#lg3" y1="263.741" y2="263.741"/><linearGradient id="SVGID_7_" gradientUnits="userSpaceOnUse" x1="132.401" x2="176.26" xlink:href="#lg1" y1="458.158" y2="458.158"/><linearGradient id="SVGID_8_" gradientUnits="userSpaceOnUse" x1="85.805" x2="174.352" xlink:href="#lg2" y1="425.165" y2="425.165"/><linearGradient id="SVGID_9_" gradientUnits="userSpaceOnUse" x1="335.031" x2="378.89" xlink:href="#lg1" y1="458.158" y2="458.158"/><linearGradient id="SVGID_10_" gradientUnits="userSpaceOnUse" x1="288.436" x2="376.982" xlink:href="#lg2" y1="425.165" y2="425.165"/><linearGradient id="SVGID_11_" gradientUnits="userSpaceOnUse" x1="98" x2="419.801" y1="366.574" y2="366.574"><stop offset="0" stop-color="#01d0fb"/><stop offset=".6075" stop-color="#26a6fe"/><stop offset="1" stop-color="#0182fc"/></linearGradient><linearGradient id="SVGID_12_" gradientUnits="userSpaceOnUse" x1="274.667" x2="392.759" y1="366.574" y2="366.574"><stop offset="0" stop-color="#01bffa"/><stop offset=".2393" stop-color="#19a4fb"/><stop offset=".75" stop-color="#4970fe"/><stop offset="1" stop-color="#5b5cff"/></linearGradient><linearGradient id="SVGID_13_" gradientUnits="userSpaceOnUse" x1="87.331" x2="431.001" xlink:href="#lg1" y1="401.835" y2="401.835"/><linearGradient id="SVGID_14_" gradientUnits="userSpaceOnUse" x1="338.5" x2="388.023" xlink:href="#lg2" y1="401.835" y2="401.835"/><linearGradient id="SVGID_15_" gradientUnits="userSpaceOnUse" x1="-7.483" x2="566.244" xlink:href="#lg3" y1="489.87" y2="489.87"/><linearGradient id="SVGID_16_" gradientUnits="userSpaceOnUse" x1="333.869" x2="459.841" xlink:href="#lg3" y1="489.87" y2="489.87"/><linearGradient id="SVGID_17_" gradientUnits="userSpaceOnUse" x1="0" x2="29.285" xlink:href="#lg3" y1="108.065" y2="108.065"/><linearGradient id="SVGID_18_" gradientUnits="userSpaceOnUse" x1="21.061" x2="80.061" xlink:href="#lg3" y1="108.065" y2="108.065"/><linearGradient id="SVGID_19_" gradientUnits="userSpaceOnUse" x1="-22.396" x2="81.738" xlink:href="#lg3" y1="108.065" y2="108.065"/><linearGradient id="SVGID_20_" gradientUnits="userSpaceOnUse" x1="480" x2="512.911" xlink:href="#lg3" y1="108.065" y2="108.065"/><linearGradient id="SVGID_21_" gradientUnits="userSpaceOnUse" x1="429.939" x2="488.94" xlink:href="#lg3" y1="108.065" y2="108.065"/><linearGradient id="SVGID_22_" gradientUnits="userSpaceOnUse" x1="386.483" x2="490.617" xlink:href="#lg3" y1="108.065" y2="108.065"/><linearGradient id="SVGID_23_" gradientUnits="userSpaceOnUse" x1="101" x2="163.129" xlink:href="#lg2" y1="108.065" y2="108.065"/><g><path d="m60.599 90.564h388.802v35h-388.802z" fill="url(#SVGID_1_)"/><path d="m349.28 90.56h100.12v35h-100.12z" fill="url(#SVGID_2_)"/><g><path d="m115.893 26.548c-11.118 0-20.13 9.013-20.13 20.13v434.125c0 11.118 9.013 20.13 20.13 20.13s20.13-9.013 20.13-20.13v-434.125c.001-11.118-9.012-20.13-20.13-20.13z" fill="url(#SVGID_3_)"/><path d="m115.893 26.548c-4.73 0-9.07 1.643-12.506 4.373 4.64 3.688 7.625 9.369 7.625 15.757v434.125c0 6.388-2.984 12.07-7.625 15.757 3.436 2.73 7.776 4.373 12.506 4.373 11.118 0 20.13-9.013 20.13-20.13v-434.125c.001-11.118-9.012-20.13-20.13-20.13z" fill="url(#SVGID_4_)"/><path d="m394.107 26.548c-11.118 0-20.13 9.013-20.13 20.13v434.125c0 11.118 9.013 20.13 20.13 20.13s20.13-9.013 20.13-20.13v-434.125c0-11.118-9.013-20.13-20.13-20.13z" fill="url(#SVGID_5_)"/><path d="m394.107 26.548c-4.73 0-9.07 1.643-12.506 4.373 4.64 3.688 7.625 9.369 7.625 15.757v434.125c0 6.388-2.984 12.07-7.625 15.757 3.436 2.73 7.776 4.373 12.506 4.373 11.118 0 20.13-9.013 20.13-20.13v-434.125c0-11.118-9.013-20.13-20.13-20.13z" fill="url(#SVGID_6_)"/></g><g><g><g><path d="m136.185 406.316h35v103.684h-35z" fill="url(#SVGID_7_)"/><path d="m136.185 406.318h35v37.694h-35z" fill="url(#SVGID_8_)"/></g><g><path d="m338.815 406.316h35v103.684h-35z" fill="url(#SVGID_9_)"/><path d="m338.815 406.318h35v37.694h-35z" fill="url(#SVGID_10_)"/></g></g><path d="m393.14 393.573h-276.28v-13.536c0-22.348 18.117-40.464 40.464-40.464h195.351c22.348 0 40.464 18.117 40.464 40.464v13.536z" fill="url(#SVGID_11_)"/><path d="m352.675 339.573h-40.02c22.348 0 40.464 18.117 40.464 40.464v13.536h40.02v-13.536c.001-22.347-18.116-40.464-40.464-40.464z" fill="url(#SVGID_12_)"/><path d="m394.254 417.573h-278.508c-4.569 0-8.273-3.704-8.273-8.273v-14.93c0-4.569 3.704-8.273 8.273-8.273h278.508c4.569 0 8.273 3.704 8.273 8.273v14.93c0 4.569-3.704 8.273-8.273 8.273z" fill="url(#SVGID_13_)"/><path d="m394.254 386.097h-40.02c4.569 0 8.273 3.704 8.273 8.273v14.93c0 4.569-3.704 8.273-8.273 8.273h40.02c4.569 0 8.273-3.704 8.273-8.273v-14.93c0-4.569-3.704-8.273-8.273-8.273z" fill="url(#SVGID_14_)"/></g><g><path d="m489.87 510h-469.74c-11.117 0-20.13-9.013-20.13-20.13 0-11.118 9.013-20.13 20.13-20.13h469.74c11.118 0 20.13 9.013 20.13 20.13 0 11.117-9.013 20.13-20.13 20.13z" fill="url(#SVGID_15_)"/><path d="m489.87 469.739h-40.469c11.118 0 20.13 9.013 20.13 20.13 0 11.118-9.013 20.13-20.13 20.13h40.469c11.118 0 20.13-9.013 20.13-20.13 0-11.117-9.013-20.13-20.13-20.13z" fill="url(#SVGID_16_)"/></g><g><g><path d="m29.285 195.828h-21.909c-4.074 0-7.376-3.302-7.376-7.376v-160.775c0-4.074 3.302-7.376 7.376-7.376h21.909z" fill="url(#SVGID_17_)"/><path d="m67.21 216.129h-33.298c-7.097 0-12.851-5.754-12.851-12.851v-190.427c0-7.097 5.753-12.851 12.851-12.851h33.298c7.097 0 12.851 5.754 12.851 12.851v190.427c0 7.097-5.754 12.851-12.851 12.851z" fill="url(#SVGID_18_)"/><path d="m67.21 0h-25.011c7.097 0 12.851 5.754 12.851 12.851v190.427c0 7.097-5.754 12.851-12.851 12.851h25.011c7.097 0 12.851-5.754 12.851-12.851v-190.427c0-7.097-5.754-12.851-12.851-12.851z" fill="url(#SVGID_19_)"/></g></g><g><g><path d="m480.715 195.828h21.909c4.074 0 7.376-3.302 7.376-7.376v-160.775c0-4.074-3.302-7.376-7.376-7.376h-21.909z" fill="url(#SVGID_20_)"/><path d="m476.088 216.129h-33.298c-7.097 0-12.851-5.754-12.851-12.851v-190.427c0-7.097 5.754-12.851 12.851-12.851h33.298c7.097 0 12.851 5.754 12.851 12.851v190.427c0 7.097-5.753 12.851-12.851 12.851z" fill="url(#SVGID_21_)"/><path d="m476.088 0h-25.011c7.097 0 12.851 5.754 12.851 12.851v190.427c0 7.097-5.754 12.851-12.851 12.851h25.011c7.097 0 12.851-5.754 12.851-12.851v-190.427c0-7.097-5.753-12.851-12.851-12.851z" fill="url(#SVGID_22_)"/></g></g><path d="m135.712 90.564h25.011v35h-25.011z" fill="url(#SVGID_23_)"/></g></svg>