<svg id="Capa_1" enable-background="new 0 0 510 510" height="512" viewBox="0 0 510 510" width="512" xmlns="http://www.w3.org/2000/svg" xmlns:xlink="http://www.w3.org/1999/xlink"><linearGradient id="lg1"><stop offset="0" stop-color="#a2e62e"/><stop offset=".7542" stop-color="#09a76d"/><stop offset="1" stop-color="#017b4e"/></linearGradient><linearGradient id="SVGID_1_" gradientUnits="userSpaceOnUse" x1="19.934" x2="503.943" xlink:href="#lg1" y1="321.337" y2="321.337"/><linearGradient id="SVGID_2_" gradientUnits="userSpaceOnUse" x1="-53.066" x2="399.151" xlink:href="#lg1" y1="155.134" y2="155.134"/><linearGradient id="SVGID_3_" gradientUnits="userSpaceOnUse" x1="102.934" x2="203.61" xlink:href="#lg1" y1="395.949" y2="395.949"/><linearGradient id="SVGID_4_" gradientUnits="userSpaceOnUse" x1="136.267" x2="245.279" xlink:href="#lg1" y1="460.854" y2="460.854"/><linearGradient id="lg2"><stop offset="0" stop-color="#fff9df"/><stop offset=".593" stop-color="#ffe177"/><stop offset="1" stop-color="#feb137"/></linearGradient><linearGradient id="SVGID_5_" gradientUnits="userSpaceOnUse" x1="45.562" x2="125.562" xlink:href="#lg2" y1="61.023" y2="61.023"/><linearGradient id="lg3"><stop offset="0" stop-color="#ffe177"/><stop offset="1" stop-color="#feb137"/></linearGradient><linearGradient id="SVGID_6_" gradientUnits="userSpaceOnUse" x1="65.666" x2="121.298" xlink:href="#lg3" y1="61.023" y2="61.023"/><linearGradient id="SVGID_7_" gradientUnits="userSpaceOnUse" x1="20.117" x2="150.05" xlink:href="#lg3" y1="133.326" y2="133.326"/><linearGradient id="lg4"><stop offset="0" stop-color="#ffd15b"/><stop offset="1" stop-color="#eca026"/></linearGradient><linearGradient id="SVGID_8_" gradientUnits="userSpaceOnUse" x1="-36.866" x2="87.709" xlink:href="#lg4" y1="133.326" y2="133.326"/><linearGradient id="SVGID_9_" gradientUnits="userSpaceOnUse" x1="396.438" x2="476.438" xlink:href="#lg2" y1="61.023" y2="61.023"/><linearGradient id="SVGID_10_" gradientUnits="userSpaceOnUse" x1="416.542" x2="472.174" xlink:href="#lg3" y1="61.023" y2="61.023"/><linearGradient id="SVGID_11_" gradientUnits="userSpaceOnUse" x1="370.993" x2="500.926" xlink:href="#lg3" y1="133.326" y2="133.326"/><linearGradient id="SVGID_12_" gradientUnits="userSpaceOnUse" x1="314.01" x2="438.586" xlink:href="#lg4" y1="133.326" y2="133.326"/><g><g><g><path d="m290.509 510c-50.154 0-94.903-23.572-123.753-60.221-59.572-10.157-105.066-62.154-105.066-124.576v-192.528h35v192.529c0 33.46 18.077 62.776 44.979 78.696-5.565-16.093-8.59-33.367-8.59-51.328v-27.368c0-50 40.678-90.677 90.677-90.677 50 0 90.678 40.678 90.678 90.677 0 60.508-42.747 111.22-99.627 123.524 20.847 16.447 47.147 26.272 75.701 26.272 67.508 0 122.43-54.921 122.43-122.429v-219.896h35v219.896c0 86.806-70.622 157.429-157.429 157.429zm-104.345-93.444c.63.013 1.264.02 1.897.02 50.383 0 91.372-40.989 91.372-91.372 0-30.701-24.977-55.677-55.677-55.677s-55.678 24.977-55.678 55.677v27.368c.001 23.435 6.619 45.353 18.086 63.984z" fill="url(#SVGID_1_)"/><path d="m412.934 132.679v44.91h35v-44.91zm-351.24 44.909h35v-44.91h-35z" fill="url(#SVGID_2_)"/></g><path d="m174.459 391.562c-14.667-2.199-28.203-7.897-39.733-16.215 1.432 9.836 3.773 19.381 6.94 28.542 13.097 7.752 28.283 12.329 44.496 12.662-4.798-7.795-8.733-16.173-11.703-24.989z" fill="url(#SVGID_3_)"/><path d="m214.807 448.728c.042-.009.084-.02.126-.029-8.662 1.883-17.652 2.876-26.87 2.876-7.458 0-14.765-.654-21.872-1.899.189.033.376.071.565.103 6.685 8.493 14.234 16.273 22.497 23.23 17.114-.159 33.426-3.731 48.284-10.077-8.11-3.908-15.729-8.681-22.73-14.204z" fill="url(#SVGID_4_)"/></g><g><g><path d="m111.562 122.046h-64v-90.046c0-17.673 14.327-32 32-32 17.673 0 32 14.327 32 32z" fill="url(#SVGID_5_)"/><path d="m79.562 0c-4.438 0-8.664.904-12.505 2.537 11.458 4.87 19.494 16.227 19.494 29.463v90.046h25.011v-90.046c0-17.673-14.327-32-32-32z" fill="url(#SVGID_6_)"/></g><g><path d="m117.405 153.233h-75.686c-10.994 0-19.907-8.913-19.907-19.907 0-10.994 8.913-19.907 19.907-19.907h75.687c10.994 0 19.907 8.913 19.907 19.907-.001 10.994-8.913 19.907-19.908 19.907z" fill="url(#SVGID_7_)"/><path d="m117.405 113.419h-40.02c10.994 0 19.907 8.913 19.907 19.907 0 10.994-8.913 19.907-19.907 19.907h40.02c10.994 0 19.907-8.913 19.907-19.907 0-10.994-8.912-19.907-19.907-19.907z" fill="url(#SVGID_8_)"/></g></g><g><g><path d="m462.438 122.046h-64v-90.046c0-17.673 14.327-32 32-32 17.673 0 32 14.327 32 32z" fill="url(#SVGID_9_)"/><path d="m430.438 0c-4.438 0-8.664.904-12.505 2.537 11.458 4.87 19.494 16.227 19.494 29.463v90.046h25.011v-90.046c0-17.673-14.327-32-32-32z" fill="url(#SVGID_10_)"/></g><g><path d="m468.281 153.233h-75.687c-10.994 0-19.907-8.913-19.907-19.907 0-10.994 8.913-19.907 19.907-19.907h75.687c10.994 0 19.907 8.913 19.907 19.907 0 10.994-8.912 19.907-19.907 19.907z" fill="url(#SVGID_11_)"/><path d="m468.281 113.419h-40.02c10.994 0 19.907 8.913 19.907 19.907 0 10.994-8.913 19.907-19.907 19.907h40.02c10.994 0 19.907-8.913 19.907-19.907 0-10.994-8.912-19.907-19.907-19.907z" fill="url(#SVGID_12_)"/></g></g></g></svg>