<svg id="Capa_1" enable-background="new 0 0 510 510" height="512" viewBox="0 0 510 510" width="512" xmlns="http://www.w3.org/2000/svg" xmlns:xlink="http://www.w3.org/1999/xlink"><linearGradient id="lg1"><stop offset="0" stop-color="#01d0fb"/><stop offset=".6075" stop-color="#26a6fe"/><stop offset="1" stop-color="#0182fc"/></linearGradient><linearGradient id="SVGID_1_" gradientUnits="userSpaceOnUse" x1="0" x2="510" xlink:href="#lg1" y1="255" y2="255"/><linearGradient id="lg2"><stop offset="0" stop-color="#01bffa"/><stop offset=".2393" stop-color="#19a4fb"/><stop offset=".75" stop-color="#4970fe"/><stop offset="1" stop-color="#5b5cff"/></linearGradient><linearGradient id="SVGID_2_" gradientUnits="userSpaceOnUse" x1="111.651" x2="506.362" xlink:href="#lg2" y1="307.972" y2="307.972"/><linearGradient id="SVGID_3_" gradientUnits="userSpaceOnUse" x1="111.651" x2="506.362" xlink:href="#lg2" y1="52.972" y2="52.972"/><linearGradient id="SVGID_4_" gradientUnits="userSpaceOnUse" x1="12.089" x2="247.044" xlink:href="#lg1" y1="332.39" y2="332.39"/><linearGradient id="SVGID_5_" gradientUnits="userSpaceOnUse" x1="-16.569" x2="398.07" xlink:href="#lg1" y1="332.39" y2="332.39"/><linearGradient id="SVGID_6_" gradientUnits="userSpaceOnUse" x1="80.667" x2="294.815" xlink:href="#lg2" y1="332.398" y2="332.398"/><linearGradient id="SVGID_7_" gradientUnits="userSpaceOnUse" x1="178.85" x2="473.342" xlink:href="#lg2" y1="332.394" y2="332.394"/><linearGradient id="SVGID_8_" gradientUnits="userSpaceOnUse" x1="143.189" x2="366.811" y1="101.032" y2="101.032"><stop offset="0" stop-color="#f8f6f7"/><stop offset=".1788" stop-color="#f8f6f7"/><stop offset="1" stop-color="#e7e6f5"/></linearGradient><linearGradient id="SVGID_9_" gradientUnits="userSpaceOnUse" x1="242.495" x2="366.811" y1="101.031" y2="101.031"><stop offset="0" stop-color="#f8f6f7"/><stop offset="1" stop-color="#d1ceeb"/></linearGradient><linearGradient id="SVGID_10_" gradientUnits="userSpaceOnUse" x1="203.673" x2="273.763" y1="123.405" y2="123.405"><stop offset="0" stop-color="#fff9df"/><stop offset=".593" stop-color="#ffe177"/><stop offset="1" stop-color="#feb137"/></linearGradient><g><path d="m439.551 105.943h-46.501c-16.282-61.005-71.914-105.943-138.05-105.943s-121.768 44.938-138.05 105.943h-46.501c-43.079 0-76.066 38.328-69.648 80.927l39.651 263.189c5.191 34.459 34.801 59.941 69.648 59.941h289.8c34.847 0 64.457-25.482 69.648-59.941l39.651-263.189c6.418-42.599-26.568-80.927-69.648-80.927z" fill="url(#SVGID_1_)"/><g><path d="m439.551 105.943h-40.02c43.079 0 76.066 38.328 69.648 80.927l-39.651 263.189c-5.191 34.459-34.801 59.941-69.648 59.941h40.02c34.847 0 64.457-25.482 69.648-59.941l39.651-263.189c6.418-42.599-26.568-80.927-69.648-80.927z" fill="url(#SVGID_2_)"/><path d="m353.03 105.943h40.02c-16.282-61.005-71.914-105.943-138.05-105.943-6.792 0-13.471.482-20.01 1.398 57.135 8.009 103.43 49.805 118.04 104.545z" fill="url(#SVGID_3_)"/></g><g><path d="m102.382 201.141c-34.19 15.247-49.547 55.323-34.301 89.513l67.118 150.512c10.76 24.129 39.043 34.967 63.172 24.207 25.088-11.188 35.622-41.159 23.05-65.583l-16.679-32.402c-10.275-19.961-12.389-43.134-5.896-64.625 6.01-19.893 4.66-41.285-3.803-60.264l-3.147-7.057c-15.248-34.191-55.324-49.547-89.514-34.301z" fill="url(#SVGID_4_)"/><path d="m407.618 201.141c34.19 15.247 49.547 55.323 34.301 89.513l-67.118 150.512c-10.76 24.129-39.043 34.967-63.172 24.207-25.088-11.188-35.622-41.159-23.05-65.583l16.679-32.402c10.275-19.961 12.389-43.134 5.896-64.625-6.01-19.893-4.66-41.285 3.803-60.264l3.147-7.057c15.248-34.191 55.324-49.547 89.514-34.301z" fill="url(#SVGID_5_)"/></g><path d="m221.421 399.79-16.679-32.402c-10.275-19.961-12.389-43.134-5.896-64.625 6.01-19.893 4.66-41.285-3.803-60.264l-3.147-7.057c-13.045-29.252-44.264-44.699-74.423-39.007 19.855 3.743 37.733 16.272 47.624 35.305h-95.227c-4.04 7.75-6.56 16.25-7.38 25.01h112.45c2.757 11.025 3.308 22.494 1.63 33.75h-108.55c.02.05.04.1.06.15l11.09 24.86h91.852c-1.618 11.285-.975 22.756 1.846 33.76h-78.648l11.15 25.01h77.908l13.131 25.51c1.384 2.689 2.472 5.448 3.308 8.24h-79.297l11.15 25.01h68.777c-3.39 13.83-12.89 26.047-26.987 32.333-2.289 1.021-4.615 1.845-6.96 2.484 10.26 2.781 21.505 2.183 31.971-2.484 25.088-11.188 35.622-41.159 23.05-65.583z" fill="url(#SVGID_6_)"/><path d="m407.618 201.141c-13.08-5.833-27.018-7.173-40.102-4.706 5.091.961 10.153 2.504 15.09 4.706 14.551 6.489 25.674 17.483 32.496 30.599h-95.212c-.62 1.21-1.22 2.44-1.78 3.7l-3.15 7.06c-2.06 4.63-3.71 9.39-4.92 14.25h112.446c1.053 11.175-.646 22.762-5.514 33.75h-108.572c.61 4.13 1.53 8.22 2.75 12.26 1.27 4.2 2.21 8.46 2.82 12.75h91.854l-15.055 33.76h-78.639c-1.58 6.23-3.88 12.31-6.87 18.12l-3.55 6.89h77.906l-15.05 33.75h-79.306c-1.35 4.49-2 9.07-2 13.61 0 3.86.47 7.69 1.38 11.4h68.773l-3.624 8.126c-6.093 13.663-17.806 23.059-31.201 26.69 22.377 6.099 46.473-4.85 56.212-26.69l67.118-150.512c15.247-34.19-.109-74.266-34.3-89.513z" fill="url(#SVGID_7_)"/><g><path d="m366.811 133.781c0 61.752-223.622 61.752-223.622 0s50.059-111.811 111.811-111.811 111.811 50.059 111.811 111.811z" fill="url(#SVGID_8_)"/><path d="m255 21.97c-4.228 0-8.399.243-12.505.7 55.864 6.218 99.306 53.588 99.306 111.111 0 28.569-47.865 43.919-99.306 46.053 59.747 2.479 124.317-12.871 124.317-46.053-.001-61.752-50.06-111.811-111.812-111.811z" fill="url(#SVGID_9_)"/></g><path d="m283.893 140.758c0 15.957-12.936 28.893-28.893 28.893s-28.893-12.936-28.893-28.893 12.936-63.6 28.893-63.6 28.893 47.643 28.893 63.6z" fill="url(#SVGID_10_)"/></g></svg>