<svg id="Capa_1" enable-background="new 0 0 510 510" height="512" viewBox="0 0 510 510" width="512" xmlns="http://www.w3.org/2000/svg" xmlns:xlink="http://www.w3.org/1999/xlink"><linearGradient id="lg1"><stop offset="0" stop-color="#a79ba7"/><stop offset=".7487" stop-color="#7a6d79"/><stop offset="1" stop-color="#685e68"/></linearGradient><linearGradient id="SVGID_1_" gradientUnits="userSpaceOnUse" x1="28.399" x2="266.94" xlink:href="#lg1" y1="252.5" y2="252.5"/><linearGradient id="SVGID_2_" gradientUnits="userSpaceOnUse" x1="-102.68" x2="245.316" xlink:href="#lg1" y1="252.5" y2="252.5"/><linearGradient id="SVGID_3_" gradientUnits="userSpaceOnUse" x1="46.217" x2="169.708" xlink:href="#lg1" y1="58.451" y2="58.451"/><linearGradient id="SVGID_4_" gradientUnits="userSpaceOnUse" x1="46.217" x2="169.708" xlink:href="#lg1" y1="93.158" y2="93.158"/><linearGradient id="SVGID_5_" gradientUnits="userSpaceOnUse" x1="46.217" x2="169.708" xlink:href="#lg1" y1="127.866" y2="127.866"/><linearGradient id="SVGID_6_" gradientUnits="userSpaceOnUse" x1="46.217" x2="169.708" xlink:href="#lg1" y1="388.742" y2="388.742"/><linearGradient id="lg2"><stop offset="0" stop-color="#fff9df"/><stop offset=".593" stop-color="#ffe177"/><stop offset="1" stop-color="#feb137"/></linearGradient><linearGradient id="SVGID_7_" gradientUnits="userSpaceOnUse" x1="36.678" x2="118.547" xlink:href="#lg2" y1="232.948" y2="232.948"/><linearGradient id="SVGID_8_" gradientUnits="userSpaceOnUse" x1="239.965" x2="478.506" xlink:href="#lg1" y1="252.5" y2="252.5"/><linearGradient id="SVGID_9_" gradientUnits="userSpaceOnUse" x1="108.886" x2="456.882" xlink:href="#lg1" y1="252.5" y2="252.5"/><linearGradient id="SVGID_10_" gradientUnits="userSpaceOnUse" x1="257.783" x2="381.274" xlink:href="#lg1" y1="58.451" y2="58.451"/><linearGradient id="SVGID_11_" gradientUnits="userSpaceOnUse" x1="257.783" x2="381.274" xlink:href="#lg1" y1="93.158" y2="93.158"/><linearGradient id="SVGID_12_" gradientUnits="userSpaceOnUse" x1="257.783" x2="381.274" xlink:href="#lg1" y1="127.866" y2="127.866"/><linearGradient id="SVGID_13_" gradientUnits="userSpaceOnUse" x1="257.783" x2="381.274" xlink:href="#lg1" y1="388.742" y2="388.742"/><linearGradient id="SVGID_14_" gradientUnits="userSpaceOnUse" x1="248.244" x2="330.113" xlink:href="#lg2" y1="232.948" y2="232.948"/><linearGradient id="SVGID_15_" gradientUnits="userSpaceOnUse" x1="-198" x2="420.595" y1="472.398" y2="472.398"><stop offset="0" stop-color="#f8f6f7"/><stop offset=".1788" stop-color="#f8f6f7"/><stop offset="1" stop-color="#e7e6f5"/></linearGradient><linearGradient id="SVGID_16_" gradientUnits="userSpaceOnUse" x1="308" x2="505.649" y1="472.398" y2="472.398"><stop offset="0" stop-color="#f8f6f7"/><stop offset="1" stop-color="#d1ceeb"/></linearGradient><g><g><g><path d="m43.434 480.303v-455.606c0-13.64 11.058-24.697 24.697-24.697h162.171c13.641 0 24.698 11.057 24.698 24.697v455.605c0 13.64-11.057 24.697-24.697 24.697h-162.172c-13.639.001-24.697-11.056-24.697-24.696z" fill="url(#SVGID_1_)"/><path d="m230.181 0h-40.02c13.707 0 24.819 11.003 24.819 24.576v455.848c0 13.573-11.112 24.576-24.819 24.576h40.02c13.707 0 24.819-11.003 24.819-24.576v-455.848c0-13.573-11.112-24.576-24.819-24.576z" fill="url(#SVGID_2_)"/><g><path d="m183.835 46.068h-69.236c-7.686 0-13.917 6.231-13.917 13.917v5.099c0 3.176 2.574 5.75 5.75 5.75h85.57c3.176 0 5.75-2.574 5.75-5.75v-5.099c0-7.686-6.231-13.917-13.917-13.917z" fill="url(#SVGID_3_)"/><path d="m183.835 80.776h-69.236c-7.686 0-13.917 6.231-13.917 13.917v5.099c0 3.176 2.574 5.75 5.75 5.75h85.57c3.176 0 5.75-2.574 5.75-5.75v-5.099c0-7.687-6.231-13.917-13.917-13.917z" fill="url(#SVGID_4_)"/><path d="m183.835 115.483h-69.236c-7.686 0-13.917 6.231-13.917 13.917v5.099c0 3.176 2.574 5.75 5.75 5.75h85.57c3.176 0 5.75-2.574 5.75-5.75v-5.099c0-7.686-6.231-13.917-13.917-13.917z" fill="url(#SVGID_5_)"/></g><g><path d="m183.835 376.359h-69.236c-7.686 0-13.917 6.231-13.917 13.917v5.099c0 3.176 2.574 5.75 5.75 5.75h85.57c3.176 0 5.75-2.574 5.75-5.75v-5.099c0-7.686-6.231-13.917-13.917-13.917z" fill="url(#SVGID_6_)"/></g><path d="m130.379 232.948c0 13.416-29.416 24.291-42.965 24.291s-24.532-10.876-24.532-24.291 10.983-24.291 24.532-24.291 42.965 10.875 42.965 24.291z" fill="url(#SVGID_7_)"/></g><g><path d="m255 480.303v-455.606c0-13.64 11.057-24.697 24.697-24.697h162.171c13.64 0 24.697 11.057 24.697 24.697v455.605c0 13.64-11.057 24.697-24.697 24.697h-162.171c-13.64.001-24.697-11.056-24.697-24.696z" fill="url(#SVGID_8_)"/><path d="m441.747 0h-40.02c13.707 0 24.819 11.003 24.819 24.576v455.848c0 13.573-11.112 24.576-24.819 24.576h40.02c13.707 0 24.819-11.003 24.819-24.576v-455.848c0-13.573-11.112-24.576-24.819-24.576z" fill="url(#SVGID_9_)"/><g><path d="m395.401 46.068h-69.236c-7.686 0-13.917 6.231-13.917 13.917v5.099c0 3.176 2.574 5.75 5.75 5.75h85.57c3.176 0 5.75-2.574 5.75-5.75v-5.099c0-7.686-6.231-13.917-13.917-13.917z" fill="url(#SVGID_10_)"/><path d="m395.401 80.776h-69.236c-7.686 0-13.917 6.231-13.917 13.917v5.099c0 3.176 2.574 5.75 5.75 5.75h85.57c3.176 0 5.75-2.574 5.75-5.75v-5.099c0-7.687-6.231-13.917-13.917-13.917z" fill="url(#SVGID_11_)"/><path d="m395.401 115.483h-69.236c-7.686 0-13.917 6.231-13.917 13.917v5.099c0 3.176 2.574 5.75 5.75 5.75h85.57c3.176 0 5.75-2.574 5.75-5.75v-5.099c0-7.686-6.231-13.917-13.917-13.917z" fill="url(#SVGID_12_)"/></g><g><path d="m395.401 376.359h-69.236c-7.686 0-13.917 6.231-13.917 13.917v5.099c0 3.176 2.574 5.75 5.75 5.75h85.57c3.176 0 5.75-2.574 5.75-5.75v-5.099c0-7.686-6.231-13.917-13.917-13.917z" fill="url(#SVGID_13_)"/></g><path d="m341.945 232.948c0 13.416-29.416 24.291-42.965 24.291s-24.532-10.876-24.532-24.291 10.983-24.291 24.532-24.291 42.965 10.875 42.965 24.291z" fill="url(#SVGID_14_)"/></g></g><g><path d="m478.077 510h-446.154c-17.631 0-31.923-14.292-31.923-31.923v-11.359c0-17.63 14.292-31.923 31.923-31.923h446.154c17.63 0 31.923 14.292 31.923 31.923v11.359c0 17.631-14.292 31.923-31.923 31.923z" fill="url(#SVGID_15_)"/><path d="m478.077 434.796h-41.025c17.63 0 31.923 14.292 31.923 31.923v11.359c0 17.63-14.292 31.923-31.923 31.923h41.025c17.63 0 31.923-14.292 31.923-31.923v-11.359c0-17.631-14.292-31.923-31.923-31.923z" fill="url(#SVGID_16_)"/></g></g></svg>