<svg id="Capa_1" enable-background="new 0 0 510 510" height="512" viewBox="0 0 510 510" width="512" xmlns="http://www.w3.org/2000/svg" xmlns:xlink="http://www.w3.org/1999/xlink"><linearGradient id="lg1"><stop offset="0" stop-color="#a79ba7"/><stop offset=".7487" stop-color="#7a6d79"/><stop offset="1" stop-color="#685e68"/></linearGradient><linearGradient id="SVGID_1_" gradientUnits="userSpaceOnUse" x1="56.802" x2="178.089" xlink:href="#lg1" y1="104.5" y2="104.5"/><linearGradient id="SVGID_3_" gradientUnits="userSpaceOnUse" x1="16.69" x2="148.962" xlink:href="#lg1" y1="111.477" y2="111.477"/><linearGradient id="SVGID_4_" gradientUnits="userSpaceOnUse" x1="65.019" x2="445.082" xlink:href="#lg1" y1="232.092" y2="232.092"/><linearGradient id="SVGID_5_" gradientUnits="userSpaceOnUse" x1="47.701" x2="139.187" xlink:href="#lg1" y1="354.286" y2="354.286"/><linearGradient id="SVGID_6_" gradientUnits="userSpaceOnUse" x1="44.858" x2="101.017" xlink:href="#lg1" y1="354.286" y2="354.286"/><linearGradient id="lg2"><stop offset="0" stop-color="#f8f6f7"/><stop offset=".1788" stop-color="#f8f6f7"/><stop offset="1" stop-color="#e7e6f5"/></linearGradient><linearGradient id="SVGID_7_" gradientUnits="userSpaceOnUse" x1="27.018" x2="525.334" xlink:href="#lg2" y1="404.056" y2="404.056"/><linearGradient id="SVGID_8_" gradientUnits="userSpaceOnUse" x1="-21.399" x2="83.776" xlink:href="#lg2" y1="404.058" y2="404.058"/><linearGradient id="lg3"><stop offset="0" stop-color="#f8f6f7"/><stop offset="1" stop-color="#d1ceeb"/></linearGradient><linearGradient id="SVGID_9_" gradientUnits="userSpaceOnUse" x1="381.402" x2="459.354" xlink:href="#lg3" y1="404.056" y2="404.056"/><linearGradient id="SVGID_10_" gradientUnits="userSpaceOnUse" x1="-35.219" x2="379.143" xlink:href="#lg3" y1="404.056" y2="404.056"/><linearGradient id="SVGID_11_" gradientUnits="userSpaceOnUse" x1="44.545" x2="93.035" xlink:href="#lg3" y1="404.056" y2="404.056"/><linearGradient id="SVGID_12_" gradientUnits="userSpaceOnUse" x1="32.151" x2="124.145" xlink:href="#lg2" y1="297.047" y2="297.047"/><linearGradient id="SVGID_13_" gradientUnits="userSpaceOnUse" x1="27.451" x2="116.989" xlink:href="#lg2" y1="311.011" y2="311.011"/><linearGradient id="SVGID_14_" gradientUnits="userSpaceOnUse" x1="22.758" x2="104.873" xlink:href="#lg3" y1="179.892" y2="179.892"/><linearGradient id="SVGID_15_" gradientUnits="userSpaceOnUse" x1="-7.483" x2="566.244" xlink:href="#lg1" y1="453.14" y2="453.14"/><linearGradient id="SVGID_16_" gradientUnits="userSpaceOnUse" x1="333.869" x2="459.841" xlink:href="#lg1" y1="453.14" y2="453.14"/><linearGradient id="SVGID_17_" gradientUnits="userSpaceOnUse" x1="413.015" x2="448.413" xlink:href="#lg1" y1="404.056" y2="404.056"/><g><path d="m114.217 40.679 62.999 109.117c2.18 3.777.886 8.606-2.89 10.786l-9.858 5.692c-21.382 12.345-48.723 5.019-61.067-16.363l-26.191-45.364c-12.346-21.381-5.02-48.722 16.362-61.067l9.858-5.692c3.777-2.18 8.606-.886 10.787 2.891z" fill="url(#SVGID_1_)"/><path d="m114.217 40.679 62.999 109.117c2.18 3.777.886 8.606-2.89 10.786l-9.858 5.692c-21.382 12.345-48.723 5.019-61.067-16.363l-26.191-45.364c-12.346-21.381-5.02-48.722 16.362-61.067l9.858-5.692c3.777-2.18 8.606-.886 10.787 2.891z" fill="url(#SVGID_1_)"/><path d="m178.158 154.98c-.354 2.275-1.689 4.358-3.833 5.602l-9.859 5.693c-4.156 2.397-8.535 4.055-12.984 5.006-18.455 3.964-38.133-4.146-48.083-21.367l-26.19-45.363c-9.03-15.644-7.534-34.482 2.306-48.296.121-.172.233-.334.354-.495 2.306-3.084 5.986-5.076 10.132-5.076 6.977 0 12.64 5.663 12.64 12.64 0 22.712 8.838 44.059 24.896 60.117 14.49 14.48 31.762 25.169 50.621 31.539z" fill="url(#SVGID_3_)"/><path d="m438.389 396.818c-5.108 0-9.918-3.119-11.828-8.182l-58.793-155.818c-6.537-17.325-23.371-28.965-41.888-28.965h-123.889c-41.822 0-81.141-16.287-110.714-45.86-20.832-20.831-32.304-48.528-32.304-77.988 0-6.981 5.659-12.64 12.64-12.64s12.64 5.659 12.64 12.64c0 22.707 8.843 44.056 24.9 60.112 24.798 24.798 57.769 38.455 92.838 38.455h123.889c28.974 0 55.313 18.213 65.541 45.322l58.793 155.818c2.464 6.531-.832 13.824-7.364 16.289-1.469.554-2.978.817-4.461.817z" fill="url(#SVGID_4_)"/><path d="m160.957 378.894h-120.618l11.204-49.216h42.997c23.187 0 44.655 12.266 56.426 32.248z" fill="url(#SVGID_5_)"/><path d="m114.38 332.772-10.618 46.122h-63.423l11.204-49.216h42.997c6.826 0 13.51 1.062 19.84 3.094z" fill="url(#SVGID_6_)"/><path d="m440.447 440.092h-370.894c-19.902 0-36.036-16.134-36.036-36.036 0-19.902 16.134-36.036 36.036-36.036h370.894c19.902 0 36.036 16.134 36.036 36.036 0 19.902-16.134 36.036-36.036 36.036z" fill="url(#SVGID_7_)"/><path d="m106.26 368.023-16.584 72.069h-20.123c-1.952 0-3.863-.152-5.734-.455-17.181-2.74-30.306-17.636-30.306-35.585 0-9.95 4.035-18.96 10.557-25.473 6.522-6.522 15.532-10.557 25.483-10.557h36.707z" fill="url(#SVGID_8_)"/><path d="m440.447 368.02h-40.469c19.902 0 36.036 16.134 36.036 36.036 0 19.902-16.134 36.036-36.036 36.036h40.469c19.902 0 36.036-16.134 36.036-36.036 0-19.902-16.134-36.036-36.036-36.036z" fill="url(#SVGID_9_)"/><path d="m438.662 421.131h-367.324c-8.959 0-16.222-7.263-16.222-16.222v-1.708c0-8.959 7.263-16.222 16.222-16.222h367.324c8.959 0 16.222 7.263 16.222 16.222v1.708c0 8.96-7.263 16.222-16.222 16.222z" fill="url(#SVGID_10_)"/><path d="m94.04 421.131 7.859-34.151h-30.56c-8.959 0-16.222 7.263-16.222 16.222v1.708c0 8.959 7.263 16.222 16.222 16.222h22.701z" fill="url(#SVGID_11_)"/><path d="m122.359 182.158-55.152 242.308c-1.042 4.571-3.61 8.474-7.079 11.245-3.468 2.761-7.847 4.379-12.539 4.379-12.933 0-22.52-12.023-19.618-24.633l59.51-261.45c1.224 1.355 2.488 2.68 3.792 3.984 9.446 9.444 19.892 17.534 31.086 24.167z" fill="url(#SVGID_12_)"/><path d="m116.989 205.774-49.782 218.695c-1.042 4.571-3.61 8.474-7.079 11.245-3.468 2.761-7.847 4.379-12.539 4.379-12.933 0-22.52-12.023-19.618-24.633l53.16-233.53c10.922 9.667 22.986 17.655 35.858 23.844z" fill="url(#SVGID_13_)"/><path d="m122.359 182.162-5.37 23.612c-12.873-6.189-24.937-14.177-35.858-23.844l6.35-27.92c1.224 1.355 2.488 2.68 3.792 3.984 9.446 9.445 19.892 17.534 31.086 24.168z" fill="url(#SVGID_14_)"/><g><path d="m489.87 473.271h-469.74c-11.117 0-20.13-9.013-20.13-20.131 0-11.118 9.013-20.13 20.13-20.13h469.74c11.118 0 20.13 9.013 20.13 20.13 0 11.118-9.013 20.131-20.13 20.131z" fill="url(#SVGID_15_)"/><path d="m489.87 433.01h-40.469c11.118 0 20.13 9.013 20.13 20.13 0 11.118-9.013 20.13-20.13 20.13h40.469c11.118 0 20.13-9.013 20.13-20.13 0-11.117-9.013-20.13-20.13-20.13z" fill="url(#SVGID_16_)"/></g><circle cx="437.808" cy="404.056" fill="url(#SVGID_17_)" r="17.076"/></g></svg>