<svg id="Capa_1" enable-background="new 0 0 510 510" height="512" viewBox="0 0 510 510" width="512" xmlns="http://www.w3.org/2000/svg" xmlns:xlink="http://www.w3.org/1999/xlink"><linearGradient id="SVGID_1_" gradientUnits="userSpaceOnUse" x1="89.625" x2="356.637" y1="164.792" y2="164.792"><stop offset="0" stop-color="#f8f6f7"/><stop offset=".1788" stop-color="#f8f6f7"/><stop offset="1" stop-color="#e7e6f5"/></linearGradient><linearGradient id="lg1"><stop offset="0" stop-color="#f8f6f7"/><stop offset="1" stop-color="#d1ceeb"/></linearGradient><linearGradient id="SVGID_2_" gradientUnits="userSpaceOnUse" x1="202" x2="392.709" xlink:href="#lg1" y1="164.792" y2="164.792"/><linearGradient id="SVGID_3_" gradientUnits="userSpaceOnUse" x1="130.42" x2="180.54" xlink:href="#lg1" y1="157.686" y2="157.686"/><linearGradient id="SVGID_4_" gradientUnits="userSpaceOnUse" x1="269" x2="327.31" xlink:href="#lg1" y1="156.493" y2="156.493"/><linearGradient id="lg2"><stop offset="0" stop-color="#fff9df"/><stop offset=".593" stop-color="#ffe177"/><stop offset="1" stop-color="#feb137"/></linearGradient><linearGradient id="SVGID_5_" gradientUnits="userSpaceOnUse" x1="35.5" x2="203.519" xlink:href="#lg2" y1="400.554" y2="400.554"/><linearGradient id="SVGID_6_" gradientUnits="userSpaceOnUse" x1="-10.5" x2="182.234" xlink:href="#lg2" y1="400.53" y2="400.53"/><linearGradient id="lg3"><stop offset="0" stop-color="#ffe177"/><stop offset="1" stop-color="#feb137"/></linearGradient><linearGradient id="SVGID_7_" gradientUnits="userSpaceOnUse" x1="60" x2="217.679" xlink:href="#lg3" y1="300.579" y2="300.579"/><linearGradient id="lg4"><stop offset="0" stop-color="#ffd15b"/><stop offset="1" stop-color="#eca026"/></linearGradient><linearGradient id="SVGID_8_" gradientUnits="userSpaceOnUse" x1="104" x2="188.572" xlink:href="#lg4" y1="308.612" y2="308.612"/><linearGradient id="SVGID_9_" gradientUnits="userSpaceOnUse" x1="312" x2="488.501" xlink:href="#lg2" y1="400.648" y2="400.648"/><linearGradient id="SVGID_10_" gradientUnits="userSpaceOnUse" x1="282" x2="460.227" xlink:href="#lg2" y1="400.644" y2="400.644"/><linearGradient id="SVGID_11_" gradientUnits="userSpaceOnUse" x1="297.5" x2="461.093" xlink:href="#lg3" y1="300.432" y2="300.432"/><linearGradient id="SVGID_12_" gradientUnits="userSpaceOnUse" x1="306" x2="430.291" xlink:href="#lg4" y1="292.632" y2="292.632"/><g><g><path d="m409.979 318.932-44.387-224.848-.231.046c-8.478-53.277-54.735-94.13-110.361-94.13-55.625 0-101.883 40.852-110.361 94.129l-.231-.046-44.387 224.849 53.959 10.652 26.564-134.564c19.781 17.707 45.881 28.493 74.456 28.493s54.675-10.785 74.456-28.492l26.564 134.564zm-154.979-150.42c-31.295 0-56.756-25.46-56.756-56.756s25.461-56.756 56.756-56.756 56.756 25.461 56.756 56.756-25.461 56.756-56.756 56.756z" fill="url(#SVGID_1_)"/><g><path d="m365.592 94.084-.231.046c-8.478-53.277-54.735-94.13-110.361-94.13-4.225 0-8.395.239-12.5.698 49.934 5.583 90.027 44.202 97.861 93.432l.231-.046 44.387 224.848-29.897 5.902.938 4.75 53.959-10.652z" fill="url(#SVGID_2_)"/></g><path d="m180.54 195.021-5.18 26.27c-19.62-14.3-35.27-33.74-44.94-56.32l13.99-70.89.23.04c-.92 5.75-1.4 11.64-1.4 17.64 0 33.05 14.42 62.79 37.3 83.26z" fill="url(#SVGID_3_)"/><path d="m310.971 102.365c.515 3.055.785 6.192.785 9.391 0 15.506-6.256 29.574-16.37 39.829l11.673 59.036c8.109-4.287 15.63-9.541 22.409-15.611z" fill="url(#SVGID_4_)"/></g><g><g><path d="m90.171 508.881c-34.181-6.495-56.625-39.468-50.13-73.649l27.385-144.124 123.779 23.519-27.385 144.124c-6.494 34.181-39.468 56.625-73.649 50.13z" fill="url(#SVGID_5_)"/><path d="m191.207 314.624-27.205 143.176c-6.549 34.464-40.219 57.895-74.601 50.927-6.585-1.334-12.713-3.651-18.283-6.777 26.1-3.54 48.197-23.354 53.386-50.665l13.69-72.049c2.999-15.785-7.365-31.012-23.15-34.011l-55.878-10.617 8.266-43.502z" fill="url(#SVGID_6_)"/><g><path d="m187.037 331.727-122.005-23.182c-10.801-2.052-17.893-12.472-15.841-23.273 2.052-10.801 12.472-17.893 23.273-15.841l122.004 23.182c10.801 2.052 17.893 12.472 15.841 23.273-2.052 10.801-12.471 17.893-23.272 15.841z" fill="url(#SVGID_7_)"/><path d="m194.469 292.613-39.317-7.47c10.801 2.052 17.893 12.472 15.841 23.273-2.052 10.801-12.472 17.893-23.273 15.841l39.317 7.47c10.801 2.052 21.221-5.04 23.273-15.841 2.052-10.801-5.04-21.221-15.841-23.273z" fill="url(#SVGID_8_)"/></g></g><g><path d="m419.496 508.944c-34.215 6.311-67.068-16.31-73.379-50.525l-26.609-144.269 123.904-22.853 26.609 144.269c6.311 34.215-16.31 67.067-50.525 73.378z" fill="url(#SVGID_9_)"/><path d="m443.412 291.292 26.434 143.32c6.363 34.499-16.551 68.523-51.125 74.466-6.621 1.138-13.173 1.195-19.496.296 23.051-12.743 36.484-39.208 31.441-66.547l-13.302-72.122c-2.914-15.801-18.086-26.247-33.886-23.333l-55.934 10.317-8.032-43.545z" fill="url(#SVGID_10_)"/><g><path d="m445.712 308.746-122.127 22.525c-10.812 1.994-21.193-5.154-23.188-15.966-1.994-10.812 5.154-21.193 15.966-23.188l122.127-22.525c10.812-1.994 21.193 5.154 23.188 15.966 1.994 10.812-5.154 21.194-15.966 23.188z" fill="url(#SVGID_11_)"/><path d="m438.49 269.592-39.356 7.259c10.812-1.994 21.193 5.154 23.188 15.966 1.994 10.812-5.154 21.193-15.966 23.188l39.356-7.259c10.812-1.994 17.96-12.376 15.966-23.188-1.994-10.812-12.376-17.96-23.188-15.966z" fill="url(#SVGID_12_)"/></g></g></g></g></svg>