<svg id="Capa_1" enable-background="new 0 0 510 510" height="512" viewBox="0 0 510 510" width="512" xmlns="http://www.w3.org/2000/svg" xmlns:xlink="http://www.w3.org/1999/xlink"><linearGradient id="SVGID_1_" gradientUnits="userSpaceOnUse" x1="149.773" x2="304.786" y1="102.365" y2="102.365"><stop offset="0" stop-color="#fe99a0"/><stop offset=".593" stop-color="#fe646f"/><stop offset="1" stop-color="#e41f2d"/></linearGradient><linearGradient id="SVGID_2_" gradientUnits="userSpaceOnUse" x1="152.562" x2="333.773" y1="102.365" y2="102.365"><stop offset="0" stop-color="#fe646f"/><stop offset=".7043" stop-color="#e41f2d"/><stop offset="1" stop-color="#c41926"/></linearGradient><linearGradient id="lg1"><stop offset="0" stop-color="#a79ba7"/><stop offset=".7487" stop-color="#7a6d79"/><stop offset="1" stop-color="#685e68"/></linearGradient><linearGradient id="SVGID_3_" gradientUnits="userSpaceOnUse" x1="384.221" x2="467.209" xlink:href="#lg1" y1="445.672" y2="445.672"/><linearGradient id="SVGID_4_" gradientUnits="userSpaceOnUse" x1="336.544" x2="430.883" xlink:href="#lg1" y1="250.079" y2="250.079"/><linearGradient id="SVGID_5_" gradientUnits="userSpaceOnUse" x1="310.524" x2="413.058" xlink:href="#lg1" y1="250.079" y2="250.079"/><linearGradient id="lg2"><stop offset="0" stop-color="#f8f6f7"/><stop offset=".1788" stop-color="#f8f6f7"/><stop offset="1" stop-color="#e7e6f5"/></linearGradient><linearGradient id="SVGID_6_" gradientUnits="userSpaceOnUse" x1="239.463" x2="389.093" xlink:href="#lg2" y1="445.852" y2="445.852"/><linearGradient id="lg3"><stop offset="0" stop-color="#f8f6f7"/><stop offset="1" stop-color="#d1ceeb"/></linearGradient><linearGradient id="SVGID_7_" gradientUnits="userSpaceOnUse" x1="318.667" x2="383.347" xlink:href="#lg3" y1="416.835" y2="416.835"/><linearGradient id="SVGID_8_" gradientUnits="userSpaceOnUse" x1="-7.483" x2="566.244" xlink:href="#lg1" y1="489.87" y2="489.87"/><linearGradient id="SVGID_9_" gradientUnits="userSpaceOnUse" x1="333.869" x2="459.841" xlink:href="#lg1" y1="489.87" y2="489.87"/><linearGradient id="SVGID_10_" gradientUnits="userSpaceOnUse" x1="103" x2="385.781" xlink:href="#lg2" y1="139.252" y2="139.252"/><linearGradient id="SVGID_11_" gradientUnits="userSpaceOnUse" x1="251" x2="388.004" xlink:href="#lg3" y1="161.235" y2="161.235"/><linearGradient id="SVGID_12_" gradientTransform="matrix(0 1 -1 0 465.386 -298.451)" gradientUnits="userSpaceOnUse" x1="348.967" x2="410.716" xlink:href="#lg1" y1="359.312" y2="359.312"/><g><g><path d="m308.332 122.272h-133.118c-10.994 0-19.907-8.913-19.907-19.907 0-10.994 8.913-19.907 19.907-19.907h133.117c10.994 0 19.907 8.913 19.907 19.907.001 10.995-8.912 19.907-19.906 19.907z" fill="url(#SVGID_1_)"/><path d="m308.332 82.458h-40.02c10.994 0 19.907 8.913 19.907 19.907 0 10.994-8.913 19.907-19.907 19.907h40.02c10.994 0 19.907-8.913 19.907-19.907 0-10.994-8.913-19.907-19.907-19.907z" fill="url(#SVGID_2_)"/></g><path d="m486.957 478.667h-109.414v-65.989h42.997c23.187 0 44.655 16.446 56.426 43.238z" fill="url(#SVGID_3_)"/><g><path d="m377.543 0c-11.118 0-20.13 9.013-20.13 20.13v459.898c0 11.118 9.013 20.13 20.13 20.13s20.13-9.013 20.13-20.13v-459.898c.001-11.117-9.012-20.13-20.13-20.13z" fill="url(#SVGID_4_)"/><path d="m377.544 0c-4.73 0-9.07 1.643-12.506 4.373 4.64 3.688 7.625 9.369 7.625 15.757v459.898c0 6.388-2.984 12.07-7.625 15.757 3.436 2.73 7.776 4.373 12.506 4.373 11.118 0 20.13-9.013 20.13-20.13v-459.898c0-11.117-9.013-20.13-20.13-20.13z" fill="url(#SVGID_5_)"/></g><path d="m262.667 489.87v-5.715c0-28.849 23.471-52.319 52.319-52.319h62.829c8.284 0 15-6.716 15-15s-6.716-15-15-15h-62.829c-45.391 0-82.319 36.928-82.319 82.319v5.715z" fill="url(#SVGID_6_)"/><g><path d="m377.815 401.835h-25.011c8.284 0 15 6.716 15 15s-6.716 15-15 15h25.011c8.284 0 15-6.716 15-15s-6.716-15-15-15z" fill="url(#SVGID_7_)"/></g><g><path d="m489.87 510h-469.74c-11.117 0-20.13-9.013-20.13-20.13 0-11.118 9.013-20.13 20.13-20.13h469.74c11.118 0 20.13 9.013 20.13 20.13 0 11.117-9.013 20.13-20.13 20.13z" fill="url(#SVGID_8_)"/><path d="m489.87 469.739h-40.469c11.118 0 20.13 9.013 20.13 20.13 0 11.118-9.013 20.13-20.13 20.13h40.469c11.118 0 20.13-9.013 20.13-20.13 0-11.117-9.013-20.13-20.13-20.13z" fill="url(#SVGID_9_)"/></g><path d="m377.815 213.08c-8.284 0-15-6.716-15-15v-6.371c0-28.849-23.47-52.319-52.319-52.319h-108.399c-38.167 0-74.05-14.863-101.039-41.852l-6.509-6.509c-5.858-5.857-5.858-15.355 0-21.213 5.857-5.857 15.355-5.857 21.213 0l6.509 6.509c21.323 21.322 49.672 33.064 79.826 33.064h108.399c45.391 0 82.319 36.929 82.319 82.319v6.371c0 8.285-6.716 15.001-15 15.001z" fill="url(#SVGID_10_)"/><g><path d="m310.496 109.39h-25.011c45.391 0 82.319 36.929 82.319 82.319v6.371c0 3.06-.921 5.903-2.494 8.276 2.686 4.05 7.281 6.724 12.505 6.724 8.284 0 15-6.716 15-15v-6.371c0-45.391-36.928-82.319-82.319-82.319z" fill="url(#SVGID_11_)"/></g><path d="m73.372 68.328c0-4.172 1.456-8.361 4.424-11.744 6.49-7.398 17.748-8.135 25.146-1.645l29.765 26.11c7.398 6.49 8.135 17.748 1.644 25.146-6.49 7.398-17.748 8.135-25.146 1.645l-29.765-26.11c-4.016-3.523-6.068-8.45-6.068-13.402z" fill="url(#SVGID_12_)"/></g></svg>