<svg id="Capa_1" enable-background="new 0 0 510.004 510.004" height="512" viewBox="0 0 510.004 510.004" width="512" xmlns="http://www.w3.org/2000/svg" xmlns:xlink="http://www.w3.org/1999/xlink"><linearGradient id="lg1"><stop offset="0" stop-color="#fff9df"/><stop offset=".593" stop-color="#ffe177"/><stop offset="1" stop-color="#feb137"/></linearGradient><linearGradient id="SVGID_1_" gradientUnits="userSpaceOnUse" x1="194.635" x2="557.553" xlink:href="#lg1" y1="255" y2="255"/><linearGradient id="SVGID_2_" gradientUnits="userSpaceOnUse" x1="191.559" x2="419.163" xlink:href="#lg1" y1="255" y2="255"/><linearGradient id="SVGID_3_" gradientUnits="userSpaceOnUse" x1="156.938" x2="374.021" y1="375.54" y2="375.54"><stop offset="0" stop-color="#ffe177"/><stop offset="1" stop-color="#feb137"/></linearGradient><linearGradient id="SVGID_4_" gradientUnits="userSpaceOnUse" x1="217.938" x2="369.736" y1="375.537" y2="375.537"><stop offset="0" stop-color="#ffd15b"/><stop offset="1" stop-color="#eca026"/></linearGradient><linearGradient id="SVGID_5_" gradientUnits="userSpaceOnUse" x1="70.065" x2="359.578" xlink:href="#lg1" y1="313.417" y2="313.417"/><linearGradient id="SVGID_6_" gradientUnits="userSpaceOnUse" x1="6.272" x2="348.512" xlink:href="#lg1" y1="315.659" y2="315.659"/><linearGradient id="SVGID_7_" gradientUnits="userSpaceOnUse" x1="291.938" x2="497.669" xlink:href="#lg1" y1="306.34" y2="306.34"/><linearGradient id="SVGID_8_" gradientUnits="userSpaceOnUse" x1="250.938" x2="496.272" xlink:href="#lg1" y1="306.343" y2="306.343"/><g><path d="m330.604 255c0-61.323 12.434-119.74 34.917-172.87 24.878-58.789-48.447-109.576-94.526-65.396-62.652 60.071-101.659 144.61-101.659 238.266s39.007 178.195 101.661 238.266c46.079 44.18 119.404-6.607 94.526-65.396-22.485-53.13-34.919-111.547-34.919-172.87z" fill="url(#SVGID_1_)"/><path d="m330.604 255c0-61.323 12.434-119.74 34.917-172.87 21.465-50.722-30.171-95.477-74.341-78.433 28.753 10.676 49.271 43.104 34.32 78.433-22.483 53.13-34.917 111.547-34.917 172.87s12.434 119.74 34.917 172.87c14.95 35.329-5.568 67.757-34.321 78.433 44.169 17.044 95.805-27.711 74.341-78.433-22.482-53.13-34.916-111.547-34.916-172.87z" fill="url(#SVGID_2_)"/><path d="m270.998 493.27c-49.95-47.89-84.86-111.32-96.97-182.52-3.08-18.12-4.69-36.75-4.69-55.75 0-4.24.08-8.46.24-12.66 6.54-.93 13.24-1.35 20.06-1.25 41.36.63 77.79 18.59 99.77 50.31 10.04-14.28 24.42-24.08 41.27-29.23.14 9.62.6 19.16 1.36 28.62 3.84 48.28 15.42 94.39 33.48 137.08 24.88 58.79-48.44 109.58-94.52 65.4z" fill="url(#SVGID_3_)"/><path d="m291.188 506.31c28.75-10.67 49.26-43.11 34.31-78.44-11.609-27.44-20.539-56.295-26.456-86.233-3.119-15.781-16.571-27.424-32.634-28.288-3.821-.205-7.33-.339-9.979-.339-28.23 0-54.75 7.28-77.79 20.08-1.79-7.35-3.33-14.8-4.61-22.34-2.57-15.11-4.11-30.57-4.55-46.3-.1-3.14-.14-6.29-.14-9.45 0-4.09.07-8.16.23-12.21 0-.15 0-.3.01-.45 6.54-.93 13.24-1.35 20.06-1.25 31.4.48 59.96 10.95 81.51 29.85 6.84 5.98 12.97 12.82 18.26 20.46.78-1.11 1.58-2.18 2.41-3.23 9.87-12.54 23.31-21.25 38.86-26 .11 7.55.42 15.05.92 22.5.13 2.04.28 4.08.44 6.12.68 8.58 1.61 17.09 2.78 25.53 5.38 39.03 15.85 76.45 30.7 111.55 21.469 50.72-30.171 95.49-74.331 78.44z" fill="url(#SVGID_4_)"/><path d="m256.424 288c11.306 0 22.337 1.176 32.983 3.4-21.976-31.725-58.406-52.676-99.77-53.31-68.232-1.045-124.893 54.143-125.565 122.379-.006.635-.008 1.27-.004 1.903.145 27.787 37.166 36.579 50.022 11.945 26.772-51.298 80.462-86.317 142.334-86.317z" fill="url(#SVGID_5_)"/><path d="m220.797 242.568c6.745 3.599 13.117 7.803 19.045 12.541 9.553 7.636 4.139 22.916-8.09 22.89-.113 0-.226 0-.339 0-61.871 0-115.561 35.019-142.334 86.318-4.481 8.586-11.899 13.101-19.667 14.176 10.746 13.931 34.815 14.722 44.678-4.176 26.772-51.298 80.462-86.317 142.334-86.317 11.306 0 22.337 1.176 32.983 3.4-16.25-23.457-40.406-41.012-68.61-48.832z" fill="url(#SVGID_6_)"/><path d="m312.317 289.073c-7.854 0-15.516.805-22.911 2.328 15.265-21.718 40.571-36.061 69.305-36.495 47.397-.716 86.756 37.066 87.223 83.779.002.222.004.444.004.665.043 19.3-25.821 25.549-34.905 8.52-18.65-34.958-55.857-58.797-98.716-58.797z" fill="url(#SVGID_7_)"/><path d="m445.938 338.68v.67c.04 16.97-19.95 23.85-30.95 13.69 3.57-3.17 5.95-7.83 5.94-13.69 0-.22 0-.44-.01-.67-.42-42.09-32.42-76.94-73.44-82.88 3.67-.53 7.42-.83 11.23-.89 47.4-.72 86.76 37.06 87.23 83.77z" fill="url(#SVGID_8_)"/></g></svg>