<svg id="Capa_1" enable-background="new 0 0 510 510" height="512" viewBox="0 0 510 510" width="512" xmlns="http://www.w3.org/2000/svg" xmlns:xlink="http://www.w3.org/1999/xlink"><linearGradient id="SVGID_1_" gradientUnits="userSpaceOnUse" x1="164.091" x2="351.425" y1="116.668" y2="116.668"><stop offset="0" stop-color="#f8f6f7"/><stop offset=".1788" stop-color="#f8f6f7"/><stop offset="1" stop-color="#e7e6f5"/></linearGradient><linearGradient id="lg1"><stop offset="0" stop-color="#f8f6f7"/><stop offset="1" stop-color="#d1ceeb"/></linearGradient><linearGradient id="SVGID_2_" gradientUnits="userSpaceOnUse" x1="182.553" x2="331.842" xlink:href="#lg1" y1="189.517" y2="189.517"/><linearGradient id="SVGID_3_" gradientUnits="userSpaceOnUse" x1="187.12" x2="275.667" xlink:href="#lg1" y1="39.724" y2="39.724"/><linearGradient id="lg2"><stop offset="0" stop-color="#fff9df"/><stop offset=".593" stop-color="#ffe177"/><stop offset="1" stop-color="#feb137"/></linearGradient><linearGradient id="SVGID_4_" gradientUnits="userSpaceOnUse" x1="217.213" x2="299.807" xlink:href="#lg2" y1="335.117" y2="335.117"/><linearGradient id="SVGID_5_" gradientUnits="userSpaceOnUse" x1="165" x2="308.016" xlink:href="#lg2" y1="335.117" y2="335.117"/><linearGradient id="lg3"><stop offset="0" stop-color="#a79ba7"/><stop offset=".7487" stop-color="#7a6d79"/><stop offset="1" stop-color="#685e68"/></linearGradient><linearGradient id="SVGID_6_" gradientUnits="userSpaceOnUse" x1="42.193" x2="507.339" xlink:href="#lg3" y1="19.907" y2="19.907"/><linearGradient id="SVGID_7_" gradientUnits="userSpaceOnUse" x1="287.562" x2="412.137" xlink:href="#lg3" y1="19.907" y2="19.907"/><g><g><path d="m272.5 74.024v-62.118h-35v62.118c-32.798 7.901-57.248 37.47-57.248 72.659 0 41.216 33.532 74.748 74.748 74.748s74.748-33.532 74.748-74.748c0-35.189-24.45-64.758-57.248-72.659zm-17.5 112.407c-21.917 0-39.748-17.831-39.748-39.748s17.831-39.748 39.748-39.748 39.748 17.831 39.748 39.748-17.831 39.748-39.748 39.748z" fill="url(#SVGID_1_)"/><path d="m314.568 191.773c-3.085-13.706-10.769-25.664-21.357-34.169-4.758 16.622-20.081 28.827-38.21 28.827-18.13 0-33.452-12.206-38.21-28.827-10.588 8.505-18.273 20.463-21.358 34.169 13.662 18.004 35.276 29.658 59.568 29.658 24.29 0 45.905-11.655 59.567-29.658z" fill="url(#SVGID_2_)"/><path d="m237.5 11.909h35v55.63h-35z" fill="url(#SVGID_3_)"/></g><path d="m255 510c-20.274 0-36.71-16.436-36.71-36.71v-276.345c0-20.274 16.436-36.71 36.71-36.71 20.274 0 36.71 16.436 36.71 36.71v276.345c0 20.274-16.436 36.71-36.71 36.71z" fill="url(#SVGID_4_)"/><path d="m255 160.235c-4.392 0-8.602.774-12.506 2.188.093.034.185.067.277.102 12.985 4.824 14.307 22.724 2.31 29.65l-16.631 9.6c-6.288 3.63-10.161 10.338-10.161 17.598v17.157l48.409-27.947v7.493c0 10.439-5.57 20.085-14.61 25.304l-23.637 13.645c-6.288 3.63-10.161 10.338-10.161 17.598v17.157l48.409-27.947v7.493c0 10.439-5.57 20.085-14.61 25.304l-23.637 13.645c-6.288 3.63-10.161 10.338-10.161 17.598v17.157l48.409-27.947v7.493c0 10.439-5.57 20.085-14.61 25.304l-23.637 13.645c-6.288 3.63-10.161 10.338-10.161 17.598v17.157l48.409-27.947v7.493c0 10.439-5.57 20.085-14.61 25.304l-23.637 13.645c-6.288 3.63-10.161 10.338-10.161 17.598v17.157l48.409-27.947v7.496c0 10.438-5.569 20.084-14.609 25.303l-20.027 11.563c-10.646 6.147-13.534 20.339-5.94 30.006.418.532.85 1.052 1.296 1.56l39.245-22.657c-.637 15.202-10.519 28.012-24.17 32.959 3.901 1.413 8.111 2.187 12.503 2.187 20.274 0 36.71-16.436 36.71-36.71v-276.345c0-20.275-16.436-36.71-36.71-36.71z" fill="url(#SVGID_5_)"/><g><path d="m441.833 39.814h-373.666c-10.994 0-19.907-8.913-19.907-19.907 0-10.994 8.913-19.907 19.907-19.907h373.666c10.994 0 19.907 8.913 19.907 19.907 0 10.994-8.913 19.907-19.907 19.907z" fill="url(#SVGID_6_)"/><path d="m441.833 0h-40.02c10.994 0 19.907 8.913 19.907 19.907 0 10.994-8.913 19.907-19.907 19.907h40.02c10.994 0 19.907-8.913 19.907-19.907 0-10.994-8.913-19.907-19.907-19.907z" fill="url(#SVGID_7_)"/></g></g></svg>