<svg id="Capa_1" enable-background="new 0 0 510 510" height="512" viewBox="0 0 510 510" width="512" xmlns="http://www.w3.org/2000/svg" xmlns:xlink="http://www.w3.org/1999/xlink"><linearGradient id="lg1"><stop offset="0" stop-color="#fe646f"/><stop offset=".7043" stop-color="#e41f2d"/><stop offset="1" stop-color="#c41926"/></linearGradient><linearGradient id="SVGID_1_" gradientUnits="userSpaceOnUse" x1="31.13" x2="169.327" xlink:href="#lg1" y1="380.208" y2="380.208"/><linearGradient id="lg2"><stop offset="0" stop-color="#fe99a0"/><stop offset=".593" stop-color="#fe646f"/><stop offset="1" stop-color="#e41f2d"/></linearGradient><linearGradient id="SVGID_2_" gradientUnits="userSpaceOnUse" x1="64.128" x2="474.705" xlink:href="#lg2" y1="255" y2="255"/><linearGradient id="SVGID_3_" gradientUnits="userSpaceOnUse" x1="163.335" x2="447.373" xlink:href="#lg1" y1="360.825" y2="360.825"/><linearGradient id="SVGID_4_" gradientUnits="userSpaceOnUse" x1="-93.364" x2="358.432" xlink:href="#lg2" y1="347.941" y2="347.941"/><linearGradient id="SVGID_5_" gradientUnits="userSpaceOnUse" x1="118.002" x2="288.403" xlink:href="#lg1" y1="353.131" y2="353.131"/><linearGradient id="lg3"><stop offset="0" stop-color="#fff9df"/><stop offset=".593" stop-color="#ffe177"/><stop offset="1" stop-color="#feb137"/></linearGradient><linearGradient id="SVGID_6_" gradientUnits="userSpaceOnUse" x1="24.002" x2="291.542" xlink:href="#lg3" y1="228.466" y2="228.466"/><linearGradient id="SVGID_7_" gradientUnits="userSpaceOnUse" x1="239.62" x2="478.126" xlink:href="#lg1" y1="254.999" y2="254.999"/><linearGradient id="SVGID_8_" gradientUnits="userSpaceOnUse" x1="39.002" x2="160.344" xlink:href="#lg3" y1="219.417" y2="219.417"/><linearGradient id="SVGID_9_" gradientUnits="userSpaceOnUse" x1="81.437" x2="202.78" xlink:href="#lg3" y1="176.982" y2="176.982"/><linearGradient id="SVGID_10_" gradientUnits="userSpaceOnUse" x1="39.502" x2="147.096" xlink:href="#lg3" y1="422.781" y2="422.781"/><g><path d="m158.612 347.795-86.616 86.616c-7.589 7.589-19.894 7.589-27.483 0-7.589-7.589-7.589-19.894 0-27.483l86.616-86.616z" fill="url(#SVGID_1_)"/><g><g><path d="m378.004 9.55-172.938 172.939c-4.775 4.775-4.775 12.516 0 17.291 2.685 2.685 2.685 7.039 0 9.725l-55.212 55.212c-2.685 2.685-7.039 2.685-9.725 0-3.194-3.194-8.559-2.499-10.821 1.411-35.915 62.077-28.27 142.87 24.494 196.001 63.255 63.694 166.168 63.829 229.591.406 63.288-63.288 63.288-165.899 0-229.187-3.304-3.304-6.721-6.425-10.228-9.384l84.038-84.038c14.896-14.896 18.261-37.797 8.281-56.349l-35.734-66.423c-10.346-19.23-36.305-23.045-51.746-7.604z" fill="url(#SVGID_2_)"/><path d="m239.252 291.82-58.25-58.25-24.75 24.75 58.25 58.25c32.15 32.15 32.15 84.45 0 116.6-17.93 17.93-42.14 25.86-65.62 23.77 1.59 1.76 3.23 3.49 4.92 5.19 10.25 10.32 21.55 18.97 33.55 25.95 19.03-5.19 36.99-15.25 51.9-30.17 45.79-45.79 45.79-120.29 0-166.09z" fill="url(#SVGID_3_)"/><circle cx="268.8" cy="347.94" fill="url(#SVGID_4_)" r="75.958"/><path d="m263.033 423.659c19.729-43.316 11.806-96.244-23.781-131.839l-9.216-9.216c-5.331 3.168-10.359 7.041-14.945 11.627-3.936 3.936-7.334 8.204-10.225 12.703l9.637 9.637c26.022 26.022 30.973 65.24 14.872 96.294 10.374 6.311 21.93 9.906 33.658 10.794z" fill="url(#SVGID_5_)"/></g></g><path d="m239.252 256.49-58.29-58.29 40.56-40.56c36.01-36.02 36.01-94.62 0-130.63s-94.61-36.01-130.62 0c-36.02 36.01-36.02 94.61 0 130.63l40.56 40.56-58.3 58.3c-38.12 38.12-44.51 96.14-19.15 140.93l26.13-26.13c-12.46-29.93-6.53-65.75 17.77-90.06l58.3-58.29 58.29 58.29c32.15 32.15 32.15 84.45 0 116.6-30.34 30.34-78.66 32.04-111.02 5.08l-24.82 24.82c22.1 19.46 49.82 29.19 77.55 29.19 30.07 0 60.15-11.45 83.04-34.35 45.79-45.79 45.79-120.29 0-166.09zm-123.61-123.6c-22.36-22.37-22.36-58.76 0-81.13 10.84-10.84 25.25-16.8 40.57-16.8s29.73 5.96 40.56 16.8c22.37 22.37 22.37 58.76 0 81.13l-40.56 40.56z" fill="url(#SVGID_6_)"/><path d="m465.485 83.576-35.735-66.422c-9.692-18.014-33.085-22.5-48.698-10.301 3.449 2.682 6.432 6.127 8.677 10.301l35.735 66.423c9.981 18.552 6.615 41.453-8.281 56.349l-73.996 73.996c-5.347 5.347-5.265 13.984.087 19.327.033.033.066.066.099.099 63.288 63.288 63.288 165.899 0 229.187-26.549 26.549-60.018 41.953-94.601 46.228 47.867 5.927 97.872-9.48 134.621-46.228 63.288-63.288 63.288-165.899 0-229.187-3.304-3.304-6.721-6.425-10.228-9.384l84.038-84.038c14.897-14.897 18.263-37.798 8.282-56.35z" fill="url(#SVGID_7_)"/><path d="m156.212 222.95-24.75-24.75-17.686 17.685 24.749 24.749z" fill="url(#SVGID_8_)"/><path d="m198.647 180.515-24.75-24.75-17.685 17.685 24.748 24.748z" fill="url(#SVGID_9_)"/><path d="m103.482 402.92-24.82 24.82c6.642 5.848 13.794 10.811 21.298 14.902l26.303-26.303c-8.107-3.148-15.815-7.615-22.781-13.419z" fill="url(#SVGID_10_)"/></g></svg>