<svg id="Capa_1" enable-background="new 0 0 510 510" height="512" viewBox="0 0 510 510" width="512" xmlns="http://www.w3.org/2000/svg" xmlns:xlink="http://www.w3.org/1999/xlink"><linearGradient id="lg1"><stop offset="0" stop-color="#f8f6f7"/><stop offset="1" stop-color="#d1ceeb"/></linearGradient><linearGradient id="SVGID_1_" gradientUnits="userSpaceOnUse" x1="276.936" x2="429.674" xlink:href="#lg1" y1="199.659" y2="199.659"/><linearGradient id="SVGID_2_" gradientUnits="userSpaceOnUse" x1="119.997" x2="255.836" y1="19.639" y2="19.639"><stop offset="0" stop-color="#01bffa"/><stop offset=".2393" stop-color="#19a4fb"/><stop offset=".75" stop-color="#4970fe"/><stop offset="1" stop-color="#5b5cff"/></linearGradient><linearGradient id="SVGID_3_" gradientUnits="userSpaceOnUse" x1="122.863" x2="331.065" xlink:href="#lg1" y1="348.287" y2="348.287"/><linearGradient id="SVGID_4_" gradientUnits="userSpaceOnUse" x1="47" x2="142.258" xlink:href="#lg1" y1="103.468" y2="103.468"/><linearGradient id="lg2"><stop offset="0" stop-color="#01d0fb"/><stop offset=".6075" stop-color="#26a6fe"/><stop offset="1" stop-color="#0182fc"/></linearGradient><linearGradient id="SVGID_5_" gradientUnits="userSpaceOnUse" x1="98" x2="419.801" xlink:href="#lg2" y1="40.261" y2="40.261"/><linearGradient id="SVGID_6_" gradientUnits="userSpaceOnUse" x1="228" x2="364.18" xlink:href="#lg2" y1="40.261" y2="40.261"/><linearGradient id="SVGID_7_" gradientUnits="userSpaceOnUse" x1="-53.726" x2="432.718" y1="199.659" y2="199.659"><stop offset="0" stop-color="#f8f6f7"/><stop offset=".1788" stop-color="#f8f6f7"/><stop offset="1" stop-color="#e7e6f5"/></linearGradient><linearGradient id="SVGID_8_" gradientUnits="userSpaceOnUse" x1="216.737" x2="422.829" xlink:href="#lg1" y1="199.659" y2="199.659"/><linearGradient id="SVGID_9_" gradientUnits="userSpaceOnUse" x1="-48.255" x2="80.146" xlink:href="#lg1" y1="145.04" y2="145.04"/><linearGradient id="SVGID_10_" gradientUnits="userSpaceOnUse" x1="-32.807" x2="90.845" xlink:href="#lg1" y1="185.68" y2="185.68"/><linearGradient id="SVGID_11_" gradientUnits="userSpaceOnUse" x1="-17.359" x2="101.544" xlink:href="#lg1" y1="226.31" y2="226.31"/><linearGradient id="SVGID_12_" gradientUnits="userSpaceOnUse" x1="-1.911" x2="112.242" xlink:href="#lg1" y1="266.94" y2="266.94"/><linearGradient id="SVGID_13_" gradientUnits="userSpaceOnUse" x1="13.537" x2="122.941" xlink:href="#lg1" y1="307.57" y2="307.57"/><linearGradient id="SVGID_14_" gradientUnits="userSpaceOnUse" x1="72.889" x2="397.936" xlink:href="#lg2" y1="434.627" y2="434.627"/><linearGradient id="SVGID_15_" gradientUnits="userSpaceOnUse" x1="109.815" x2="332.321" xlink:href="#lg2" y1="434.627" y2="434.627"/><linearGradient id="lg3"><stop offset="0" stop-color="#fff9df"/><stop offset=".593" stop-color="#ffe177"/><stop offset="1" stop-color="#feb137"/></linearGradient><linearGradient id="SVGID_16_" gradientUnits="userSpaceOnUse" x1="181.121" x2="327.914" xlink:href="#lg3" y1="434.627" y2="434.627"/><linearGradient id="SVGID_17_" gradientUnits="userSpaceOnUse" x1="178.667" x2="301.688" xlink:href="#lg3" y1="434.627" y2="434.627"/><linearGradient id="SVGID_18_" gradientUnits="userSpaceOnUse" x1="166.6" x2="351.031" y1="434.627" y2="434.627"><stop offset="0" stop-color="#ffe177"/><stop offset="1" stop-color="#feb137"/></linearGradient><linearGradient id="SVGID_19_" gradientUnits="userSpaceOnUse" x1="228.667" x2="320.41" y1="434.627" y2="434.627"><stop offset="0" stop-color="#ffd15b"/><stop offset="1" stop-color="#eca026"/></linearGradient><g><path d="m360.515 316.988h-36.579v-35h36.579c38.613 0 70.028-31.415 70.028-70.028v-78.797c0-8.73-7.103-15.833-15.834-15.833h-90.773v-35h90.773c28.03 0 50.834 22.804 50.834 50.833v78.797c0 57.912-47.115 105.028-105.028 105.028z" fill="url(#SVGID_1_)"/><path d="m278.548 27.774c0 15.339-55.548 15.339-55.548 0s12.435-27.774 27.774-27.774 27.774 12.435 27.774 27.774z" fill="url(#SVGID_2_)"/><g><path d="m186.28 327.382h137.441v41.81h-137.441z" fill="url(#SVGID_3_)"/><path d="m109.793 57.625h-55.078c-9.12 0-13.688 11.027-7.239 17.476l74.212 74.212z" fill="url(#SVGID_4_)"/><g><path d="m393.14 67.261h-276.28v-13.536c0-22.348 18.117-40.464 40.464-40.464h195.351c22.348 0 40.464 18.117 40.464 40.464v13.536z" fill="url(#SVGID_5_)"/><path d="m352.675 13.261h-40.02c22.348 0 40.464 18.117 40.464 40.464v13.536h40.02v-13.536c.001-22.348-18.116-40.464-40.464-40.464z" fill="url(#SVGID_6_)"/></g><path d="m319.531 341.693h-129.062c-19.238 0-35.954-13.221-40.386-31.941l-55.222-233.247c-2.282-9.637 5.028-18.88 14.932-18.88h290.414c9.904 0 17.214 9.243 14.932 18.88l-55.222 233.247c-4.432 18.72-21.148 31.941-40.386 31.941z" fill="url(#SVGID_7_)"/><path d="m400.207 57.625h-40.02c9.904 0 17.214 9.243 14.932 18.88l-55.222 233.247c-4.432 18.721-21.148 31.941-40.386 31.941h40.02c19.238 0 35.954-13.221 40.386-31.941l55.222-233.247c2.282-9.638-5.028-18.88-14.932-18.88z" fill="url(#SVGID_8_)"/><g><path d="m169.33 145.04c0 4.15-3.35 7.5-7.5 7.5h-48.97l-3.55-15h52.52c4.15 0 7.5 3.36 7.5 7.5z" fill="url(#SVGID_9_)"/><path d="m176.73 185.68c0 4.14-3.35 7.5-7.5 7.5h-46.75l-3.55-15h50.3c4.15 0 7.5 3.35 7.5 7.5z" fill="url(#SVGID_10_)"/><path d="m184.13 226.31c0 4.14-3.35 7.5-7.5 7.5h-44.53l-3.55-15h48.08c4.15 0 7.5 3.36 7.5 7.5z" fill="url(#SVGID_11_)"/><path d="m191.53 266.94c0 4.14-3.35 7.5-7.5 7.5h-42.31l-3.55-15h45.86c4.15 0 7.5 3.36 7.5 7.5z" fill="url(#SVGID_12_)"/><path d="m198.93 307.57c0 4.14-3.35 7.5-7.5 7.5h-39.71c-.66-1.72-1.21-3.49-1.64-5.32l-2.29-9.68h43.64c4.15 0 7.5 3.36 7.5 7.5z" fill="url(#SVGID_13_)"/></g></g><g><path d="m385.188 510h-260.376c-10.567 0-19.132-8.566-19.132-19.132v-23.294c0-59.823 48.496-108.319 108.319-108.319h82.002c59.823 0 108.319 48.496 108.319 108.319v23.294c0 10.566-8.566 19.132-19.132 19.132z" fill="url(#SVGID_14_)"/><path d="m296.001 359.254h-40.02c59.823 0 108.319 48.496 108.319 108.319v42.427h20.888c10.567 0 19.132-8.566 19.132-19.132v-23.295c0-59.823-48.496-108.319-108.319-108.319z" fill="url(#SVGID_15_)"/></g><g><circle cx="255" cy="434.627" fill="url(#SVGID_16_)" r="59.602"/><path d="m255 375.025c-4.291 0-8.472.463-12.505 1.325 26.911 5.748 47.096 29.651 47.096 58.277s-20.185 52.529-47.096 58.277c4.034.862 8.215 1.325 12.505 1.325 32.917 0 59.602-26.685 59.602-59.602s-26.685-59.602-59.602-59.602z" fill="url(#SVGID_17_)"/><path d="m323.245 422.122h-136.49c-6.907 0-12.505 5.599-12.505 12.505 0 6.907 5.599 12.505 12.505 12.505h136.489c6.907 0 12.505-5.599 12.505-12.505.001-6.907-5.598-12.505-12.504-12.505z" fill="url(#SVGID_18_)"/><path d="m323.245 422.122h-25.011c6.907 0 12.505 5.599 12.505 12.505 0 6.907-5.599 12.506-12.505 12.506h25.011c6.907 0 12.505-5.599 12.505-12.506 0-6.907-5.599-12.505-12.505-12.505z" fill="url(#SVGID_19_)"/></g></g></svg>