<svg id="Capa_1" enable-background="new 0 0 510 510" height="512" viewBox="0 0 510 510" width="512" xmlns="http://www.w3.org/2000/svg" xmlns:xlink="http://www.w3.org/1999/xlink"><linearGradient id="lg1"><stop offset="0" stop-color="#f8f6f7"/><stop offset=".1788" stop-color="#f8f6f7"/><stop offset="1" stop-color="#e7e6f5"/></linearGradient><linearGradient id="SVGID_1_" gradientUnits="userSpaceOnUse" x1="16.602" x2="67.798" xlink:href="#lg1" y1="454.866" y2="454.866"/><linearGradient id="SVGID_2_" gradientUnits="userSpaceOnUse" x1="427.582" x2="489.534" xlink:href="#lg1" y1="57.625" y2="57.625"/><linearGradient id="SVGID_3_" gradientUnits="userSpaceOnUse" x1="78.099" x2="423.476" xlink:href="#lg1" y1="256.982" y2="256.982"/><linearGradient id="SVGID_4_" gradientTransform="matrix(.707 -.707 .707 .707 -105.625 255)" gradientUnits="userSpaceOnUse" x1="32.124" x2="97.846" y1="258.945" y2="258.945"><stop offset="0" stop-color="#f8f6f7"/><stop offset="1" stop-color="#d1ceeb"/></linearGradient><linearGradient id="lg2"><stop offset="0" stop-color="#a79ba7"/><stop offset=".7487" stop-color="#7a6d79"/><stop offset="1" stop-color="#685e68"/></linearGradient><linearGradient id="SVGID_5_" gradientTransform="matrix(.707 -.707 .707 .707 1441.59 -1845.566)" gradientUnits="userSpaceOnUse" x1="-2601.552" x2="-2572.266" xlink:href="#lg2" y1="646.279" y2="646.279"/><linearGradient id="SVGID_6_" gradientTransform="matrix(.707 -.707 .707 .707 1441.59 -1845.566)" gradientUnits="userSpaceOnUse" x1="-2580.491" x2="-2506.491" xlink:href="#lg2" y1="646.279" y2="646.279"/><linearGradient id="SVGID_7_" gradientTransform="matrix(.707 -.707 .707 .707 -1.725 211.964)" gradientUnits="userSpaceOnUse" x1="-133.476" x2="-29.342" xlink:href="#lg2" y1="211.964" y2="211.964"/><linearGradient id="SVGID_8_" gradientTransform="matrix(.707 -.707 .707 .707 -1.725 211.964)" gradientUnits="userSpaceOnUse" x1="398.283" x2="431.193" xlink:href="#lg2" y1="211.964" y2="211.964"/><linearGradient id="SVGID_9_" gradientTransform="matrix(.707 -.707 .707 .707 1431.511 -1835.487)" gradientUnits="userSpaceOnUse" x1="-2128.996" x2="-2053.996" xlink:href="#lg2" y1="646.279" y2="646.279"/><linearGradient id="SVGID_10_" gradientTransform="matrix(.707 -.707 .707 .707 -1.725 211.964)" gradientUnits="userSpaceOnUse" x1="304.765" x2="408.899" xlink:href="#lg2" y1="211.964" y2="211.964"/><g><g><path d="m29.266 483.224c9.475 9.475 24.836 9.475 34.311 0l29.511-29.511-34.311-34.311-29.511 29.511c-9.474 9.475-9.474 24.837 0 34.311z" fill="url(#SVGID_1_)"/><path d="m448.914 29.267-29.511 29.511 34.311 34.311 29.511-29.511c9.475-9.475 9.475-24.836 0-34.311-9.475-9.475-24.837-9.475-34.311 0z" fill="url(#SVGID_2_)"/></g><path d="m282.643 285.389c-7.194 7.194-16.653 12.121-27.189 13.591l-44.255 6.172c-1.253.175-2.252 1.174-2.428 2.429l-3.086 22.125c-4.3 30.835-25.316 55.223-54.848 63.644-2.168.619-4.316 1.948-6.212 3.844l-30.787 30.787-31.82-31.82 30.787-30.787c7.295-7.295 16.179-12.585 25.69-15.298 12.517-3.57 20.762-13.26 22.622-26.587l3.086-22.127c2.941-21.072 19.709-37.841 40.778-40.78l44.255-6.172c1.254-.174 2.254-1.172 2.427-2.427l6.173-44.255c2.938-21.071 19.706-37.839 40.777-40.779l22.134-3.088c13.325-1.86 23.013-10.103 26.585-22.621 2.715-9.512 8.004-18.394 15.297-25.687l29.57-29.57 31.82 31.82-29.57 29.57c-1.896 1.896-3.225 4.044-3.844 6.213-8.423 29.529-32.808 50.544-63.641 54.844l-22.133 3.088c-1.253.176-2.251 1.173-2.427 2.426l-6.173 44.256c-1.467 10.535-6.394 19.996-13.588 27.189z" fill="url(#SVGID_3_)"/><path d="m130.797 352.899 34.641 34.641c-4.582 2.39-9.461 4.342-14.602 5.805-2.164.622-4.313 1.952-6.208 3.847l-30.788 30.788-31.82-31.82 30.787-30.787c5.283-5.283 11.399-9.518 17.99-12.474z" fill="url(#SVGID_4_)"/><g><g><path d="m141.769 492.347-15.492 15.492c-2.88 2.88-7.55 2.88-10.431 0l-113.686-113.685c-2.88-2.88-2.88-7.55 0-10.431l15.492-15.492z" fill="url(#SVGID_5_)"/><path d="m193.547 469.279-34.152 34.152c-5.019 5.019-13.155 5.019-18.174 0l-134.652-134.652c-5.019-5.019-5.019-13.155 0-18.174l34.152-34.152c5.019-5.019 13.155-5.019 18.174 0l134.652 134.652c5.019 5.019 5.019 13.155 0 18.174z" fill="url(#SVGID_6_)"/><path d="m40.721 316.453-17.685 17.685c5.019-5.019 13.155-5.019 18.174 0l134.652 134.652c5.019 5.019 5.019 13.155 0 18.174l17.685-17.685c5.019-5.019 5.019-13.155 0-18.174l-134.652-134.652c-5.019-5.019-13.155-5.019-18.174 0z" fill="url(#SVGID_7_)"/></g></g><g><g><path d="m492.347 141.769 15.492-15.492c2.88-2.88 2.88-7.55 0-10.431l-113.685-113.686c-2.88-2.88-7.55-2.88-10.431 0l-15.492 15.492z" fill="url(#SVGID_8_)"/><path d="m503.431 159.395-34.859 34.859c-5.019 5.019-13.155 5.019-18.174 0l-134.652-134.652c-5.019-5.019-5.019-13.155 0-18.174l34.859-34.859c5.019-5.019 13.155-5.019 18.174 0l134.652 134.652c5.019 5.019 5.019 13.156 0 18.174z" fill="url(#SVGID_9_)"/><path d="m350.605 6.569-17.685 17.685c5.019-5.019 13.155-5.019 18.174 0l134.652 134.652c5.019 5.019 5.019 13.155 0 18.174l17.685-17.685c5.019-5.019 5.019-13.155 0-18.174l-134.652-134.652c-5.019-5.019-13.156-5.019-18.174 0z" fill="url(#SVGID_10_)"/></g></g></g></svg>