<svg id="Capa_1" enable-background="new 0 0 510 510" height="512" viewBox="0 0 510 510" width="512" xmlns="http://www.w3.org/2000/svg" xmlns:xlink="http://www.w3.org/1999/xlink"><linearGradient id="lg1"><stop offset="0" stop-color="#fff9df"/><stop offset=".593" stop-color="#ffe177"/><stop offset="1" stop-color="#feb137"/></linearGradient><linearGradient id="SVGID_1_" gradientUnits="userSpaceOnUse" x1="50.154" x2="483.643" xlink:href="#lg1" y1="425.148" y2="425.148"/><linearGradient id="SVGID_2_" gradientUnits="userSpaceOnUse" x1="-424" x2="292.402" xlink:href="#lg1" y1="425.15" y2="425.15"/><linearGradient id="lg2"><stop offset="0" stop-color="#ffe177"/><stop offset="1" stop-color="#feb137"/></linearGradient><linearGradient id="SVGID_3_" gradientUnits="userSpaceOnUse" x1="18" x2="478.157" xlink:href="#lg2" y1="297.87" y2="297.87"/><linearGradient id="SVGID_4_" gradientUnits="userSpaceOnUse" x1="90" x2="442.006" y1="297.87" y2="297.87"><stop offset="0" stop-color="#ffd15b"/><stop offset="1" stop-color="#eca026"/></linearGradient><linearGradient id="SVGID_5_" gradientUnits="userSpaceOnUse" x1="24.655" x2="504" xlink:href="#lg1" y1="127.723" y2="127.723"/><linearGradient id="SVGID_6_" gradientUnits="userSpaceOnUse" x1="218" x2="418.25" xlink:href="#lg2" y1="85.299" y2="85.299"/><linearGradient id="lg3"><stop offset="0" stop-color="#a79ba7"/><stop offset=".7487" stop-color="#7a6d79"/><stop offset="1" stop-color="#685e68"/></linearGradient><linearGradient id="SVGID_7_" gradientUnits="userSpaceOnUse" x1="68.667" x2="375.334" xlink:href="#lg3" y1="484.184" y2="484.184"/><linearGradient id="SVGID_12_" gradientUnits="userSpaceOnUse" x1="107.356" x2="414.023" xlink:href="#lg3" y1="145.541" y2="145.541"/><linearGradient id="SVGID_13_" gradientUnits="userSpaceOnUse" x1="107.356" x2="414.023" xlink:href="#lg3" y1="144.781" y2="144.781"/><linearGradient id="SVGID_17_" gradientUnits="userSpaceOnUse" x1="123.336" x2="430.004" xlink:href="#lg3" y1="314.484" y2="314.484"/><g><path d="m57.089 510h337.372c46.862 0 84.852-37.99 84.852-84.852v-84.852h-422.224c-14.58 0-26.4 11.82-26.4 26.4v116.904c0 14.58 11.819 26.4 26.4 26.4z" fill="url(#SVGID_1_)"/><path d="m479.31 340.3v84.85c0 46.861-37.989 84.85-84.85 84.85h-20.283s65.113-21.667 65.113-84.85c0-16.53-6.7-31.49-17.53-42.31-10.82-10.83-25.78-17.53-42.31-17.53h-203.531c-22.647 0-44.366-8.996-60.379-25.01z" fill="url(#SVGID_2_)"/><path d="m394.46 340.296h-278.92c-46.862 0-84.852-37.99-84.852-84.852v-84.852h297.65c83.381 0 150.974 67.594 150.974 150.974v103.582c.001-46.863-37.989-84.852-84.852-84.852z" fill="url(#SVGID_3_)"/><path d="m479.31 321.57v103.58c0-23.43-9.5-44.64-24.85-60-4.57-4.57-9.66-8.62-15.17-12.05v-31.53c0-1.058-.011-2.113-.033-3.165-1.374-66.829-56.817-119.905-123.66-119.905h-200.057c-42.11 0-77.05 30.68-83.7 70.9-.76-4.54-1.15-9.2-1.15-13.96v-84.85h297.65c32.61 0 62.79 10.34 87.47 27.91 38.44 27.37 63.5 72.3 63.5 123.07z" fill="url(#SVGID_4_)"/><path d="m479.313 26.4v117.798c0 14.58-11.82 26.4-26.4 26.4h-337.376c-46.853 0-84.849 37.984-84.849 84.849v-135.913c-.001-66.017 53.517-119.534 119.533-119.534h302.691c14.581 0 26.401 11.82 26.401 26.4z" fill="url(#SVGID_5_)"/><path d="m452.913 0h-40.02c14.58 0 26.4 11.82 26.4 26.4v117.798c0 14.58-11.82 26.4-26.4 26.4h40.02c14.58 0 26.4-11.82 26.4-26.4v-117.798c0-14.58-11.82-26.4-26.4-26.4z" fill="url(#SVGID_6_)"/><g fill="url(#SVGID_7_)"><path d="m80.843 510 .027-41.632c0-5.523-4.478-10-10-10-5.523 0-10 4.477-10 10l.025 41.632z"/><path d="m154.177 510 .027-41.632c0-5.523-4.478-10-10-10-5.523 0-10 4.477-10 10l.024 41.632z"/><path d="m227.51 510 .027-41.632c0-5.523-4.478-10-10-10-5.523 0-10 4.477-10 10l.024 41.632z"/><path d="m300.843 510 .027-41.632c0-5.523-4.478-10-10-10-5.523 0-10 4.477-10 10l.025 41.632z"/><path d="m374.177 510 .027-41.632c0-5.523-4.478-10-10-10-5.523 0-10 4.477-10 10l.024 41.632z"/></g><g><path d="m109.559 118.966c-5.523 0-10 4.477-10 10l.022 43.151c5.17-.984 10.499-1.52 15.955-1.52h3.996l.027-41.632c0-5.522-4.477-9.999-10-9.999z" fill="url(#SVGID_12_)"/><g fill="url(#SVGID_13_)"><path d="m192.866 170.597.027-41.632c0-5.523-4.478-10-10-10-5.523 0-10 4.477-10 10l.024 41.632z"/><path d="m266.199 170.597.027-41.632c0-5.523-4.478-10-10-10-5.523 0-10 4.477-10 10l.024 41.632z"/><path d="m339.532 170.597.027-41.632c0-5.523-4.478-10-10-10-5.523 0-10 4.477-10 10l.024 41.632z"/><path d="m412.866 170.597.027-41.632c0-5.523-4.478-10-10-10-5.523 0-10 4.477-10 10l.024 41.632z"/></g></g><g fill="url(#SVGID_17_)"><path d="m135.513 340.3.027-41.632c0-5.523-4.478-10-10-10-5.523 0-10 4.477-10 10l.024 41.632z"/><path d="m208.846 340.3.027-41.632c0-5.523-4.478-10-10-10-5.523 0-10 4.477-10 10l.024 41.632z"/><path d="m282.18 340.3.027-41.632c0-5.523-4.478-10-10-10-5.523 0-10 4.477-10 10l.024 41.632z"/><path d="m355.513 340.3.027-41.632c0-5.523-4.478-10-10-10-5.523 0-10 4.477-10 10l.024 41.632z"/></g></g></svg>