<svg id="Capa_1" enable-background="new 0 0 510 510" height="512" viewBox="0 0 510 510" width="512" xmlns="http://www.w3.org/2000/svg" xmlns:xlink="http://www.w3.org/1999/xlink"><linearGradient id="SVGID_1_" gradientUnits="userSpaceOnUse" x1="219" x2="279.033" y1="51.632" y2="51.632"><stop offset="0" stop-color="#f8f6f7"/><stop offset=".1788" stop-color="#f8f6f7"/><stop offset="1" stop-color="#e7e6f5"/></linearGradient><linearGradient id="SVGID_2_" gradientUnits="userSpaceOnUse" x1="199" x2="273.061" y1="32.07" y2="32.07"><stop offset="0" stop-color="#f8f6f7"/><stop offset="1" stop-color="#d1ceeb"/></linearGradient><linearGradient id="SVGID_3_" gradientUnits="userSpaceOnUse" x1="146.858" x2="363.142" y1="300.105" y2="300.105"><stop offset="0" stop-color="#fe99a0"/><stop offset=".593" stop-color="#fe646f"/><stop offset="1" stop-color="#e41f2d"/></linearGradient><linearGradient id="SVGID_4_" gradientUnits="userSpaceOnUse" x1="251.064" x2="366.714" y1="300.105" y2="300.105"><stop offset="0" stop-color="#fe646f"/><stop offset=".7043" stop-color="#e41f2d"/><stop offset="1" stop-color="#c41926"/></linearGradient><linearGradient id="lg1"><stop offset="0" stop-color="#a79ba7"/><stop offset=".7487" stop-color="#7a6d79"/><stop offset="1" stop-color="#685e68"/></linearGradient><linearGradient id="SVGID_5_" gradientUnits="userSpaceOnUse" x1="146.858" x2="363.143" xlink:href="#lg1" y1="133.326" y2="133.326"/><linearGradient id="SVGID_6_" gradientUnits="userSpaceOnUse" x1="125.069" x2="311.157" xlink:href="#lg1" y1="133.326" y2="133.326"/><linearGradient id="SVGID_7_" gradientUnits="userSpaceOnUse" x1="42.193" x2="507.339" xlink:href="#lg1" y1="19.907" y2="19.907"/><linearGradient id="SVGID_8_" gradientUnits="userSpaceOnUse" x1="287.562" x2="412.137" xlink:href="#lg1" y1="19.907" y2="19.907"/><g><path d="m294.561 86.192-29.591-29.59.03-46.602c0-5.523-4.478-10-10-10-5.523 0-10 4.477-10 10l.027 46.53-29.42 29.42c-3.766 3.766-4.213 9.896-.698 13.898 3.851 4.385 10.537 4.548 14.598.487l22.692-22.692c1.526-1.526 4.001-1.526 5.527 0l22.45 22.45c3.766 3.766 9.896 4.213 13.898.698 4.385-3.852 4.548-10.537.487-14.599z" fill="url(#SVGID_1_)"/><path d="m237.42 64.14 7.61-7.61-.01-17.4-.02-29.13c0-5.52 4.48-10 10-10s10 4.48 10 10l-.02 29.13-.01 17.47 7.54 7.54z" fill="url(#SVGID_2_)"/><path d="m293.756 510h-77.513c-38.321 0-69.386-31.065-69.386-69.386v-281.018c0-38.321 31.065-69.386 69.386-69.386h77.513c38.321 0 69.386 31.065 69.386 69.386v281.018c0 38.321-31.065 69.386-69.386 69.386z" fill="url(#SVGID_3_)"/><path d="m293.756 90.21h-40.02c38.321 0 69.386 31.065 69.386 69.386v281.018c0 38.321-31.065 69.386-69.386 69.386h40.02c38.321 0 69.386-31.065 69.386-69.386v-281.018c0-38.321-31.065-69.386-69.386-69.386z" fill="url(#SVGID_4_)"/><path d="m293.756 90.21h-77.513c-38.321 0-69.386 31.065-69.386 69.386v16.847h216.285v-16.847c0-38.321-31.065-69.386-69.386-69.386z" fill="url(#SVGID_5_)"/><path d="m293.756 90.21h-40.02c38.321 0 69.386 31.065 69.386 69.386v16.847h40.02v-16.847c0-38.321-31.065-69.386-69.386-69.386z" fill="url(#SVGID_6_)"/><g><path d="m441.833 39.814h-373.666c-10.994 0-19.907-8.913-19.907-19.907 0-10.994 8.913-19.907 19.907-19.907h373.666c10.994 0 19.907 8.913 19.907 19.907 0 10.994-8.913 19.907-19.907 19.907z" fill="url(#SVGID_7_)"/><path d="m441.833 0h-40.02c10.994 0 19.907 8.913 19.907 19.907 0 10.994-8.913 19.907-19.907 19.907h40.02c10.994 0 19.907-8.913 19.907-19.907 0-10.994-8.913-19.907-19.907-19.907z" fill="url(#SVGID_8_)"/></g></g></svg>