<svg id="Capa_1" enable-background="new 0 0 510 510" height="512" viewBox="0 0 510 510" width="512" xmlns="http://www.w3.org/2000/svg" xmlns:xlink="http://www.w3.org/1999/xlink"><linearGradient id="lg1"><stop offset="0" stop-color="#f8f6f7"/><stop offset=".1788" stop-color="#f8f6f7"/><stop offset="1" stop-color="#e7e6f5"/></linearGradient><linearGradient id="SVGID_1_" gradientUnits="userSpaceOnUse" x1="148.654" x2="192.512" xlink:href="#lg1" y1="101.384" y2="101.384"/><linearGradient id="lg2"><stop offset="0" stop-color="#f8f6f7"/><stop offset="1" stop-color="#d1ceeb"/></linearGradient><linearGradient id="SVGID_2_" gradientUnits="userSpaceOnUse" x1="102.058" x2="190.604" xlink:href="#lg2" y1="39.724" y2="39.724"/><linearGradient id="lg3"><stop offset="0" stop-color="#a2e62e"/><stop offset=".7542" stop-color="#09a76d"/><stop offset="1" stop-color="#017b4e"/></linearGradient><linearGradient id="SVGID_3_" gradientUnits="userSpaceOnUse" x1="0" x2="372.037" xlink:href="#lg3" y1="340.063" y2="340.063"/><linearGradient id="SVGID_4_" gradientUnits="userSpaceOnUse" x1="-62.934" x2="267.356" xlink:href="#lg3" y1="340.063" y2="340.063"/><linearGradient id="SVGID_5_" gradientUnits="userSpaceOnUse" x1="-196.427" x2="364.21" xlink:href="#lg3" y1="340.063" y2="340.063"/><linearGradient id="lg4"><stop offset="0" stop-color="#fff9df"/><stop offset=".593" stop-color="#ffe177"/><stop offset="1" stop-color="#feb137"/></linearGradient><linearGradient id="SVGID_6_" gradientUnits="userSpaceOnUse" x1="138.362" x2="207.489" xlink:href="#lg4" y1="206.803" y2="206.803"/><linearGradient id="SVGID_7_" gradientUnits="userSpaceOnUse" x1="318.779" x2="362.638" xlink:href="#lg1" y1="101.384" y2="101.384"/><linearGradient id="SVGID_8_" gradientUnits="userSpaceOnUse" x1="272.183" x2="360.73" xlink:href="#lg2" y1="39.724" y2="39.724"/><linearGradient id="SVGID_9_" gradientUnits="userSpaceOnUse" x1="170.126" x2="542.163" xlink:href="#lg3" y1="340.063" y2="340.063"/><linearGradient id="SVGID_10_" gradientUnits="userSpaceOnUse" x1="107.191" x2="437.482" xlink:href="#lg3" y1="340.063" y2="340.063"/><linearGradient id="SVGID_11_" gradientUnits="userSpaceOnUse" x1="-26.302" x2="534.335" xlink:href="#lg3" y1="340.063" y2="340.063"/><linearGradient id="SVGID_12_" gradientUnits="userSpaceOnUse" x1="308.487" x2="377.614" xlink:href="#lg4" y1="206.803" y2="206.803"/><linearGradient id="lg5"><stop offset="0" stop-color="#a79ba7"/><stop offset=".7487" stop-color="#7a6d79"/><stop offset="1" stop-color="#685e68"/></linearGradient><linearGradient id="SVGID_13_" gradientUnits="userSpaceOnUse" x1="42.193" x2="507.339" xlink:href="#lg5" y1="19.907" y2="19.907"/><linearGradient id="SVGID_14_" gradientUnits="userSpaceOnUse" x1="287.562" x2="412.137" xlink:href="#lg5" y1="19.907" y2="19.907"/><g><g><g><path d="m152.437 11.906h35v178.956h-35z" fill="url(#SVGID_1_)"/><path d="m152.437 11.909h35v55.63h-35z" fill="url(#SVGID_2_)"/><path d="m169.937 170.125c-93.854 0-169.937 76.084-169.937 169.938s76.083 169.937 169.937 169.937 169.937-76.083 169.937-169.937-76.083-169.938-169.937-169.938zm0 272.625c-56.517 0-102.333-45.974-102.333-102.687s45.816-102.687 102.333-102.687 102.333 45.974 102.333 102.687-45.816 102.687-102.333 102.687z" fill="url(#SVGID_3_)"/><path d="m67.604 340.063c0-52.464 39.21-95.733 89.828-101.922-4.099-.501-8.272-.764-12.506-.764-56.517 0-102.333 45.974-102.333 102.687 0 56.712 45.816 102.687 102.333 102.687 4.234 0 8.406-.263 12.506-.764-50.618-6.191-89.828-49.461-89.828-101.924z" fill="url(#SVGID_4_)"/><path d="m169.937 170.125c-5.728 0-11.382.309-16.964.865-.205.004-.389.012-.536.027v.028c-.837.086-1.677.161-2.51.258.84.099 1.674.214 2.51.324v67.25c5.687-.984 11.533-1.502 17.5-1.502 20.692 0 39.945 6.168 56.045 16.764 0-22.302 28.596-31.665 41.673-13.6 2.258 3.119 4.413 6.319 6.459 9.592-9.512 7.032-17.868 15.547-24.725 25.207 9.33 11.51 16.22 25.09 19.88 39.95h.003c5.028-15.306 27.153-12.875 29.186 2.923.92 7.153 1.395 14.446 1.395 21.85 0 51.73-23.116 98.057-59.581 129.222-12.434-9.614-23.447-20.975-32.654-33.725-10.4 4.14-21.64 6.62-33.4 7.1 3.054 4.923 6.32 9.7 9.787 14.317 13.709 18.259 3.758 44.542-18.576 49.293-5.087 1.082-10.259 1.937-15.504 2.552 6.564.77 13.239 1.179 20.01 1.179 93.854 0 169.937-76.083 169.937-169.937s-76.081-169.937-169.935-169.937z" fill="url(#SVGID_5_)"/><path d="m187.947 252.671h-36.02c-7.492 0-13.565-6.073-13.565-13.565v-64.604c0-7.492 6.073-13.565 13.565-13.565h36.02c7.492 0 13.565 6.073 13.565 13.565v64.604c.001 7.491-6.073 13.565-13.565 13.565z" fill="url(#SVGID_6_)"/></g><g><path d="m322.563 11.906h35v178.956h-35z" fill="url(#SVGID_7_)"/><path d="m322.563 11.909h35v55.63h-35z" fill="url(#SVGID_8_)"/><path d="m340.063 170.125c-93.854 0-169.937 76.083-169.937 169.937s76.083 169.938 169.937 169.938 169.937-76.084 169.937-169.937-76.083-169.938-169.937-169.938zm0 272.625c-56.517 0-102.333-45.974-102.333-102.687s45.816-102.687 102.333-102.687 102.333 45.974 102.333 102.687-45.816 102.687-102.333 102.687z" fill="url(#SVGID_9_)"/><path d="m237.729 340.063c0-52.464 39.21-95.733 89.828-101.922-4.099-.501-8.272-.764-12.506-.764-56.517 0-102.333 45.974-102.333 102.687 0 56.712 45.816 102.687 102.333 102.687 4.234 0 8.406-.263 12.506-.764-50.617-6.191-89.828-49.461-89.828-101.924z" fill="url(#SVGID_10_)"/><path d="m340.063 170.125c-5.728 0-11.382.309-16.964.865-.205.004-.389.012-.536.027v.028c-.837.086-1.677.161-2.51.258.84.099 1.674.214 2.51.324v67.25c5.687-.984 11.533-1.502 17.5-1.502 20.692 0 39.945 6.168 56.045 16.764v-23.71c0-12.794 15.493-19.177 24.51-10.1 30.509 30.714 49.362 73.019 49.362 119.733 0 87.083-65.505 158.854-149.927 168.759 6.564.77 13.239 1.179 20.01 1.179 93.854 0 169.937-76.083 169.937-169.937s-76.083-169.938-169.937-169.938z" fill="url(#SVGID_11_)"/><path d="m358.073 252.671h-36.02c-7.492 0-13.565-6.073-13.565-13.565v-64.604c0-7.492 6.073-13.565 13.565-13.565h36.02c7.492 0 13.565 6.073 13.565 13.565v64.604c0 7.491-6.073 13.565-13.565 13.565z" fill="url(#SVGID_12_)"/></g></g><g><path d="m441.833 39.814h-373.666c-10.994 0-19.907-8.913-19.907-19.907 0-10.994 8.913-19.907 19.907-19.907h373.666c10.994 0 19.907 8.913 19.907 19.907 0 10.994-8.913 19.907-19.907 19.907z" fill="url(#SVGID_13_)"/><path d="m441.833 0h-40.02c10.994 0 19.907 8.913 19.907 19.907 0 10.994-8.913 19.907-19.907 19.907h40.02c10.994 0 19.907-8.913 19.907-19.907 0-10.994-8.913-19.907-19.907-19.907z" fill="url(#SVGID_14_)"/></g></g></svg>