<svg id="Capa_1" enable-background="new 0 0 510 510" height="512" viewBox="0 0 510 510" width="512" xmlns="http://www.w3.org/2000/svg" xmlns:xlink="http://www.w3.org/1999/xlink"><linearGradient id="lg1"><stop offset="0" stop-color="#ffdcbd"/><stop offset=".0028" stop-color="#ffdcbd"/><stop offset="1" stop-color="#ffa9b1"/></linearGradient><linearGradient id="SVGID_1_" gradientUnits="userSpaceOnUse" x1="2.761" x2="508.503" xlink:href="#lg1" y1="255" y2="255"/><linearGradient id="SVGID_2_" gradientUnits="userSpaceOnUse" x1="103.125" x2="551.693" y1="255" y2="255"><stop offset="0" stop-color="#ffc2b5"/><stop offset=".2441" stop-color="#ffbbb3"/><stop offset=".6097" stop-color="#ffa6af"/><stop offset="1" stop-color="#ff89a8"/></linearGradient><linearGradient id="SVGID_3_" gradientUnits="userSpaceOnUse" x1="-.378" x2="296.911" xlink:href="#lg1" y1="223.397" y2="223.397"/><linearGradient id="lg2"><stop offset="0" stop-color="#a79ba7"/><stop offset=".7487" stop-color="#7a6d79"/><stop offset="1" stop-color="#685e68"/></linearGradient><linearGradient id="SVGID_4_" gradientUnits="userSpaceOnUse" x1="145.463" x2="550.558" xlink:href="#lg2" y1="151.158" y2="151.158"/><linearGradient id="SVGID_5_" gradientUnits="userSpaceOnUse" x1="202.086" x2="465.178" xlink:href="#lg2" y1="151.158" y2="151.158"/><linearGradient id="SVGID_6_" gradientUnits="userSpaceOnUse" x1="211.521" x2="384.919" xlink:href="#lg2" y1="151.158" y2="151.158"/><linearGradient id="lg3"><stop offset="0" stop-color="#a2e62e"/><stop offset=".7542" stop-color="#09a76d"/><stop offset="1" stop-color="#017b4e"/></linearGradient><linearGradient id="SVGID_7_" gradientUnits="userSpaceOnUse" x1="-21.591" x2="294.466" xlink:href="#lg3" y1="239.557" y2="239.557"/><linearGradient id="SVGID_8_" gradientUnits="userSpaceOnUse" x1="11.333" x2="224.002" xlink:href="#lg3" y1="182.882" y2="182.882"/><g><g><g><path d="m490.381 115.715-46.122-46.122c-15.78-15.78-41.364-15.78-57.144 0l-26.758 26.758c-26.233 26.233-33.774 64.062-22.661 96.982l-107.942 75.757c2.394-32.965-8.789-66.448-33.67-91.329-26.203-26.203-61.946-37.221-96.577-33.178-45.087 5.264-82.603 38-93.884 81.969-5.773 22.501-4.318 48.912 18.595 72.282l128.32 128.32c33.45 33.45 87.684 33.45 121.134 0l142.015-142.015 34.415-34.415 40.279-40.279c26.159-26.159 26.159-68.571 0-94.73z" fill="url(#SVGID_1_)"/><path d="m490.381 115.715-46.122-46.122c-13.167-13.166-33.155-15.337-48.582-6.532 3.062 1.748 5.949 3.919 8.562 6.532l46.122 46.122c25.365 25.365 26.132 66.011 2.305 92.304 4.387-10.68 6.813-22.373 6.813-34.634 0-39.347-24.916-72.87-59.83-85.661-13.668-5.007-28.999-1.666-39.292 8.627-26.233 26.233-33.774 64.062-22.661 96.982l-44.791 31.436c16.424 24.043 44.05 39.827 75.364 39.827 12.338 0 24.102-2.455 34.836-6.895l-27.438 27.438-142.015 142.015c-11.598 11.598-25.695 19.166-40.557 22.721 28.003 6.699 58.724-.869 80.577-22.721l142.015-142.015 34.415-34.415 40.279-40.279c26.159-26.159 26.159-68.571 0-94.73z" fill="url(#SVGID_2_)"/><path d="m181.406 303.021 48.348-33.932c2.394-32.965-8.789-66.448-33.67-91.329-27.852-27.852-66.483-38.542-103.1-32.233 22.882 3.975 44.685 14.702 62.216 32.233 33.563 33.565 42.207 82.78 26.206 125.261z" fill="url(#SVGID_3_)"/></g><g><circle cx="366.08" cy="151.158" fill="url(#SVGID_4_)" r="93.399"/><path d="m366.08 57.759c-4.345 0-8.618.304-12.806.878 45.523 6.243 80.593 45.283 80.593 92.521s-35.07 86.278-80.593 92.521c4.187.574 8.461.878 12.806.878 51.583 0 93.399-41.816 93.399-93.399s-41.816-93.399-93.399-93.399z" fill="url(#SVGID_5_)"/><circle cx="366.08" cy="151.158" fill="url(#SVGID_6_)" r="38.67"/></g></g><path d="m75.362 335.396 131.039-131.039c9.875-9.875 9.454-26.099-1.056-35.297-.085-.074-.162-.141-.231-.198-48.181-40.559-119.964-39.333-168.662 3.129-3.535 2.619-6.924 5.523-10.129 8.728-35.097 35.097-35.097 92 0 127.097l27.58 27.58c5.926 5.926 15.533 5.926 21.459 0z" fill="url(#SVGID_7_)"/><path d="m211.51 196.86c-1.18 2.72-2.88 5.27-5.11 7.5l-22.13 22.13c-5.34-17.89-15.02-34.68-29.07-48.73-16.53-16.53-44.96-33.09-70.94-32.52.73-.24 1.47-.46 2.21-.67 40.52-11.86 85.25-3.82 118.64 24.29.07.06.15.13.23.2 8.14 7.12 10.23 18.46 6.17 27.8z" fill="url(#SVGID_8_)"/></g></svg>