<svg id="Capa_1" enable-background="new 0 0 510.005 510.005" height="512" viewBox="0 0 510.005 510.005" width="512" xmlns="http://www.w3.org/2000/svg" xmlns:xlink="http://www.w3.org/1999/xlink"><linearGradient id="SVGID_1_" gradientUnits="userSpaceOnUse" x1="103.336" x2="405.425" y1="255.002" y2="255.002"><stop offset="0" stop-color="#fff9df"/><stop offset=".593" stop-color="#ffe177"/><stop offset="1" stop-color="#feb137"/></linearGradient><linearGradient id="lg1"><stop offset="0" stop-color="#a79ba7"/><stop offset=".7487" stop-color="#7a6d79"/><stop offset="1" stop-color="#685e68"/></linearGradient><linearGradient id="SVGID_2_" gradientUnits="userSpaceOnUse" x1="140.149" x2="205.645" xlink:href="#lg1" y1="255.002" y2="255.002"/><linearGradient id="SVGID_3_" gradientUnits="userSpaceOnUse" x1="54.669" x2="223.151" xlink:href="#lg1" y1="255.002" y2="255.002"/><linearGradient id="SVGID_4_" gradientUnits="userSpaceOnUse" x1="299.564" x2="373.591" xlink:href="#lg1" y1="255.002" y2="255.002"/><linearGradient id="SVGID_5_" gradientUnits="userSpaceOnUse" x1="189.506" x2="320.499" xlink:href="#lg1" y1="255.002" y2="255.002"/><linearGradient id="lg2"><stop offset="0" stop-color="#a2e62e"/><stop offset=".7542" stop-color="#09a76d"/><stop offset="1" stop-color="#017b4e"/></linearGradient><linearGradient id="SVGID_6_" gradientUnits="userSpaceOnUse" x1="-12.998" x2="135.495" xlink:href="#lg2" y1="255.002" y2="255.002"/><linearGradient id="SVGID_7_" gradientUnits="userSpaceOnUse" x1="-21.998" x2="108.252" xlink:href="#lg2" y1="255.002" y2="255.002"/><linearGradient id="SVGID_8_" gradientUnits="userSpaceOnUse" x1="280.514" x2="554.004" xlink:href="#lg2" y1="255.002" y2="255.002"/><linearGradient id="SVGID_9_" gradientUnits="userSpaceOnUse" x1="365.013" x2="495.263" xlink:href="#lg2" y1="255.002" y2="255.002"/><linearGradient id="SVGID_10_" gradientUnits="userSpaceOnUse" x1="154.002" x2="314.015" xlink:href="#lg1" y1="255.002" y2="255.002"/><g><path d="m100.669 227.221h308.667v55.563h-308.667z" fill="url(#SVGID_1_)"/><g><path d="m205.645 421.861c-36.173 0-65.497-19.188-65.497-42.857v-248.003c0-23.67 29.324-42.857 65.497-42.857z" fill="url(#SVGID_2_)"/><path d="m205.642 88.142v333.72c-5.31 0-10.47-.41-15.42-1.2-9.26-1.46-17.76-4.21-25.01-7.94v-315.44c7.25-3.73 15.75-6.48 25.01-7.94 4.95-.79 10.11-1.2 15.42-1.2z" fill="url(#SVGID_3_)"/><path d="m304.36 421.861c36.173 0 65.497-19.188 65.497-42.857v-248.003c0-23.67-29.324-42.857-65.497-42.857z" fill="url(#SVGID_4_)"/></g><path d="m255.002 510.002c-36.173 0-65.497-29.324-65.497-65.497v-379.006c0-36.173 29.324-65.497 65.497-65.497 36.173 0 65.497 29.324 65.497 65.497v379.007c0 36.173-29.324 65.496-65.497 65.496z" fill="url(#SVGID_5_)"/><path d="m99.852 222.159-.96.96c-6.707 6.707-17.582 6.707-24.29 0l-.96-.96c-3.221-3.221-7.59-5.031-12.145-5.031-4.555 0-8.924 1.81-12.145 5.031l-.96.96c-6.707 6.707-17.582 6.707-24.29 0l-.96-.96c-3.221-3.221-7.59-5.031-12.145-5.031-6.074.001-10.997 4.924-10.997 10.998v53.753c0 6.073 4.923 10.997 10.997 10.997 4.555 0 8.924-1.81 12.145-5.031l.96-.96c6.707-6.707 17.582-6.707 24.29 0l.96.96c3.221 3.221 7.59 5.031 12.145 5.031 4.555 0 8.924-1.81 12.145-5.031l.96-.96c6.707-6.707 17.582-6.707 24.29 0l.96.96c3.221 3.221 7.59 5.031 12.145 5.031 6.073 0 10.997-4.923 10.997-10.997v-53.753c0-6.073-4.923-10.997-10.997-10.997-4.555 0-8.924 1.809-12.145 5.03z" fill="url(#SVGID_6_)"/><g><path d="m111.997 217.129c-4.555 0-8.924 1.81-12.145 5.031l-.96.96c-4.326 4.326-10.382 5.845-15.939 4.591.005.139.021.275.021.415v53.753c0 .14-.016.276-.021.415 5.557-1.254 11.613.265 15.939 4.591l.96.96c3.221 3.221 7.59 5.031 12.145 5.031 6.073 0 10.997-4.923 10.997-10.997v-53.753c0-6.074-4.924-10.997-10.997-10.997z" fill="url(#SVGID_7_)"/></g><path d="m486.863 222.159-.96.96c-6.707 6.707-17.582 6.707-24.29 0l-.96-.96c-3.221-3.221-7.59-5.031-12.145-5.031-4.555 0-8.924 1.81-12.145 5.031l-.96.96c-6.707 6.707-17.582 6.707-24.29 0l-.96-.96c-3.221-3.221-7.59-5.031-12.145-5.031-6.073 0-10.997 4.923-10.997 10.997v53.753c0 6.073 4.923 10.997 10.997 10.997 4.555 0 8.924-1.81 12.145-5.031l.96-.96c6.707-6.707 17.582-6.707 24.29 0l.96.96c3.221 3.221 7.59 5.031 12.145 5.031 4.555 0 8.924-1.81 12.145-5.031l.96-.96c6.707-6.707 17.582-6.707 24.29 0l.96.96c3.221 3.221 7.59 5.031 12.145 5.031 6.073 0 10.997-4.923 10.997-10.997v-53.753c0-6.073-4.923-10.997-10.997-10.997-4.555.001-8.924 1.81-12.145 5.031z" fill="url(#SVGID_8_)"/><g><path d="m499.008 217.129c-4.555 0-8.924 1.81-12.145 5.031l-.96.96c-4.326 4.326-10.382 5.845-15.939 4.591.005.139.021.275.021.415v53.753c0 .14-.016.276-.021.415 5.557-1.254 11.613.265 15.939 4.591l.96.96c3.221 3.221 7.59 5.031 12.145 5.031 6.073 0 10.997-4.923 10.997-10.997v-53.753c0-6.074-4.924-10.997-10.997-10.997z" fill="url(#SVGID_9_)"/></g><path d="m255.002.002c-6.98 0-13.701 1.103-20.01 3.125 26.384 8.458 45.487 33.179 45.487 62.372v379.007c0 29.192-19.103 53.913-45.487 62.372 6.309 2.023 13.03 3.125 20.01 3.125 36.173 0 65.497-29.324 65.497-65.497v-379.007c0-36.173-29.324-65.497-65.497-65.497z" fill="url(#SVGID_10_)"/></g></svg>