<svg id="Capa_1" enable-background="new 0 0 510 510" height="512" viewBox="0 0 510 510" width="512" xmlns="http://www.w3.org/2000/svg" xmlns:xlink="http://www.w3.org/1999/xlink"><linearGradient id="lg1"><stop offset="0" stop-color="#a79ba7"/><stop offset=".7487" stop-color="#7a6d79"/><stop offset="1" stop-color="#685e68"/></linearGradient><linearGradient id="SVGID_1_" gradientUnits="userSpaceOnUse" x1="214" x2="308.34" xlink:href="#lg1" y1="206.937" y2="206.937"/><linearGradient id="SVGID_2_" gradientUnits="userSpaceOnUse" x1="186.667" x2="269.358" xlink:href="#lg1" y1="44.165" y2="44.165"/><linearGradient id="lg2"><stop offset="0" stop-color="#fff9df"/><stop offset=".593" stop-color="#ffe177"/><stop offset="1" stop-color="#feb137"/></linearGradient><linearGradient id="SVGID_3_" gradientUnits="userSpaceOnUse" x1="193.836" x2="314.761" xlink:href="#lg2" y1="263.741" y2="263.741"/><linearGradient id="SVGID_4_" gradientUnits="userSpaceOnUse" x1="104" x2="343.41" xlink:href="#lg2" y1="263.741" y2="263.741"/><linearGradient id="lg3"><stop offset="0" stop-color="#f8f6f7"/><stop offset=".1788" stop-color="#f8f6f7"/><stop offset="1" stop-color="#e7e6f5"/></linearGradient><linearGradient id="SVGID_5_" gradientUnits="userSpaceOnUse" x1="132.401" x2="176.26" xlink:href="#lg3" y1="458.158" y2="458.158"/><linearGradient id="lg4"><stop offset="0" stop-color="#f8f6f7"/><stop offset="1" stop-color="#d1ceeb"/></linearGradient><linearGradient id="SVGID_6_" gradientUnits="userSpaceOnUse" x1="85.805" x2="174.352" xlink:href="#lg4" y1="425.165" y2="425.165"/><linearGradient id="SVGID_7_" gradientUnits="userSpaceOnUse" x1="335.031" x2="378.89" xlink:href="#lg3" y1="458.158" y2="458.158"/><linearGradient id="SVGID_8_" gradientUnits="userSpaceOnUse" x1="288.436" x2="376.982" xlink:href="#lg4" y1="425.165" y2="425.165"/><linearGradient id="SVGID_9_" gradientUnits="userSpaceOnUse" x1="98" x2="419.801" xlink:href="#lg2" y1="366.574" y2="366.574"/><linearGradient id="SVGID_10_" gradientUnits="userSpaceOnUse" x1="228" x2="364.18" xlink:href="#lg2" y1="366.574" y2="366.574"/><linearGradient id="SVGID_11_" gradientUnits="userSpaceOnUse" x1="87.331" x2="431.001" xlink:href="#lg3" y1="401.835" y2="401.835"/><linearGradient id="SVGID_12_" gradientUnits="userSpaceOnUse" x1="338.5" x2="388.023" xlink:href="#lg4" y1="401.835" y2="401.835"/><linearGradient id="SVGID_13_" gradientUnits="userSpaceOnUse" x1="-7.483" x2="566.244" xlink:href="#lg1" y1="489.87" y2="489.87"/><linearGradient id="SVGID_14_" gradientUnits="userSpaceOnUse" x1="333.869" x2="459.841" xlink:href="#lg1" y1="489.87" y2="489.87"/><linearGradient id="SVGID_15_" gradientUnits="userSpaceOnUse" x1="48" x2="457.207" xlink:href="#lg3" y1="168.828" y2="168.828"/><linearGradient id="SVGID_16_" gradientUnits="userSpaceOnUse" x1="250.497" x2="302.502" xlink:href="#lg4" y1="105.844" y2="105.844"/><linearGradient id="SVGID_17_" gradientUnits="userSpaceOnUse" x1="130.197" x2="182.201" xlink:href="#lg4" y1="105.844" y2="105.844"/><linearGradient id="SVGID_18_" gradientUnits="userSpaceOnUse" x1="21" x2="126.948" xlink:href="#lg4" y1="192.597" y2="192.597"/><linearGradient id="SVGID_19_" gradientUnits="userSpaceOnUse" x1="301" x2="444.032" xlink:href="#lg4" y1="168.828" y2="168.828"/><linearGradient id="SVGID_20_" gradientUnits="userSpaceOnUse" x1="26.015" x2="119.278" xlink:href="#lg2" y1="231.312" y2="231.312"/><linearGradient id="SVGID_21_" gradientUnits="userSpaceOnUse" x1="-13.985" x2="116.663" xlink:href="#lg2" y1="231.312" y2="231.312"/><linearGradient id="SVGID_22_" gradientUnits="userSpaceOnUse" x1="395.015" x2="488.278" xlink:href="#lg2" y1="231.312" y2="231.312"/><linearGradient id="SVGID_23_" gradientUnits="userSpaceOnUse" x1="355.015" x2="485.663" xlink:href="#lg2" y1="231.312" y2="231.312"/><linearGradient id="SVGID_24_" gradientUnits="userSpaceOnUse" x1="174.617" x2="218.475" xlink:href="#lg3" y1="82.008" y2="82.008"/><linearGradient id="SVGID_25_" gradientUnits="userSpaceOnUse" x1="128.021" x2="216.567" xlink:href="#lg4" y1="49.015" y2="49.015"/><linearGradient id="SVGID_26_" gradientUnits="userSpaceOnUse" x1="292.816" x2="336.675" xlink:href="#lg3" y1="82.008" y2="82.008"/><linearGradient id="SVGID_27_" gradientUnits="userSpaceOnUse" x1="246.22" x2="334.767" xlink:href="#lg4" y1="49.015" y2="49.015"/><linearGradient id="SVGID_28_" gradientUnits="userSpaceOnUse" x1="158.453" x2="369.482" xlink:href="#lg1" y1="20.13" y2="20.13"/><linearGradient id="SVGID_29_" gradientUnits="userSpaceOnUse" x1="172.663" x2="298.635" xlink:href="#lg1" y1="20.13" y2="20.13"/><linearGradient id="SVGID_30_" gradientUnits="userSpaceOnUse" x1="261.8" x2="327.255" xlink:href="#lg2" y1="463.48" y2="463.48"/><linearGradient id="SVGID_31_" gradientUnits="userSpaceOnUse" x1="236.466" x2="321.575" xlink:href="#lg2" y1="463.483" y2="463.483"/><linearGradient id="SVGID_32_" gradientUnits="userSpaceOnUse" x1="183.133" x2="248.589" xlink:href="#lg2" y1="463.48" y2="463.48"/><linearGradient id="SVGID_33_" gradientUnits="userSpaceOnUse" x1="157.8" x2="242.909" xlink:href="#lg2" y1="463.483" y2="463.483"/><linearGradient id="SVGID_34_" gradientUnits="userSpaceOnUse" x1="218.5" x2="273.502" xlink:href="#lg4" y1="436.299" y2="436.299"/><g><path d="m255 20.301c-11.118 0-20.13 9.013-20.13 20.13v333.012c0 11.118 9.013 20.13 20.13 20.13s20.13-9.013 20.13-20.13v-333.012c0-11.117-9.012-20.13-20.13-20.13z" fill="url(#SVGID_1_)"/><path d="m275.13 40.43v27.6h-40.26v-27.6c0-3.82 1.06-7.39 2.9-10.43 3.54-5.82 9.93-9.7 17.23-9.7s13.69 3.88 17.23 9.7c1.84 3.04 2.9 6.61 2.9 10.43z" fill="url(#SVGID_2_)"/><g><path d="m284.628 367.222h-59.257c-17.63 0-31.923-14.292-31.923-31.923v-113.489c0-33.994 27.557-61.551 61.551-61.551 33.994 0 61.551 27.557 61.551 61.551v113.489c.001 17.631-14.291 31.923-31.922 31.923z" fill="url(#SVGID_3_)"/><path d="m255 160.259h-11.396c17.63 0 31.923 14.292 31.923 31.923v143.117c0 17.63-14.292 31.923-31.923 31.923h41.025c17.63 0 31.923-14.292 31.923-31.923v-113.489c-.001-33.993-27.558-61.551-61.552-61.551z" fill="url(#SVGID_4_)"/></g><g><g><g><path d="m136.185 406.316h35v103.684h-35z" fill="url(#SVGID_5_)"/><path d="m136.185 406.318h35v37.694h-35z" fill="url(#SVGID_6_)"/></g><g><path d="m338.815 406.316h35v103.684h-35z" fill="url(#SVGID_7_)"/><path d="m338.815 406.318h35v37.694h-35z" fill="url(#SVGID_8_)"/></g></g><path d="m393.14 393.573h-276.28v-13.536c0-22.348 18.117-40.464 40.464-40.464h195.351c22.348 0 40.464 18.117 40.464 40.464v13.536z" fill="url(#SVGID_9_)"/><path d="m352.675 339.573h-40.02c22.348 0 40.464 18.117 40.464 40.464v13.536h40.02v-13.536c.001-22.347-18.116-40.464-40.464-40.464z" fill="url(#SVGID_10_)"/><path d="m394.254 417.573h-278.508c-4.569 0-8.273-3.704-8.273-8.273v-14.93c0-4.569 3.704-8.273 8.273-8.273h278.508c4.569 0 8.273 3.704 8.273 8.273v14.93c0 4.569-3.704 8.273-8.273 8.273z" fill="url(#SVGID_11_)"/><path d="m394.254 386.097h-40.02c4.569 0 8.273 3.704 8.273 8.273v14.93c0 4.569-3.704 8.273-8.273 8.273h40.02c4.569 0 8.273-3.704 8.273-8.273v-14.93c0-4.569-3.704-8.273-8.273-8.273z" fill="url(#SVGID_12_)"/></g><g><path d="m489.87 510h-469.74c-11.117 0-20.13-9.013-20.13-20.13 0-11.118 9.013-20.13 20.13-20.13h469.74c11.118 0 20.13 9.013 20.13 20.13 0 11.117-9.013 20.13-20.13 20.13z" fill="url(#SVGID_13_)"/><path d="m489.87 469.739h-40.469c11.118 0 20.13 9.013 20.13 20.13 0 11.118-9.013 20.13-20.13 20.13h40.469c11.118 0 20.13-9.013 20.13-20.13 0-11.117-9.013-20.13-20.13-20.13z" fill="url(#SVGID_14_)"/></g><path d="m457.984 249.312h-35v-67.705c0-32.126-26.137-58.264-58.264-58.264h-219.44c-32.127 0-58.264 26.137-58.264 58.264v67.705h-35v-67.705c0-51.426 41.838-93.264 93.264-93.264h219.44c51.426 0 93.264 41.838 93.264 93.264z" fill="url(#SVGID_15_)"/><path d="m275.69 88.344h25.011v35h-25.011z" fill="url(#SVGID_16_)"/><path d="m155.389 88.344h25.011v35h-25.011z" fill="url(#SVGID_17_)"/><path d="m99.07 146.172c-7.56 9.82-12.05 22.12-12.05 35.44v67.7h-35v-67.7c0-16.61 4.36-32.21 12-45.73h15.77c8.04 0 15.12 4.08 19.28 10.29z" fill="url(#SVGID_18_)"/><path d="m364.72 88.344h-40.02c38.927 0 72.355 23.976 86.307 57.934 7.505 9.809 11.977 22.054 11.977 35.33v67.705h35v-67.705c0-51.426-41.838-93.264-93.264-93.264z" fill="url(#SVGID_19_)"/><g><g><path d="m79.794 303.312h-18.588c-12.808 0-23.191-10.383-23.191-23.191v-97.617c0-12.808 10.383-23.191 23.191-23.191h18.587c12.808 0 23.191 10.383 23.191 23.191v97.617c.001 12.808-10.382 23.191-23.19 23.191z" fill="url(#SVGID_20_)"/><path d="m79.794 159.312h-18.588c-1.09 0-2.161.081-3.212.227 11.287 1.565 19.979 11.247 19.979 22.965v97.617c0 11.718-8.692 21.4-19.979 22.965 1.05.146 2.121.227 3.212.227h18.587c12.808 0 23.191-10.383 23.191-23.191v-97.617c.001-12.81-10.382-23.193-23.19-23.193z" fill="url(#SVGID_21_)"/></g><g><path d="m448.794 303.312h-18.587c-12.808 0-23.191-10.383-23.191-23.191v-97.617c0-12.808 10.383-23.191 23.191-23.191h18.587c12.808 0 23.191 10.383 23.191 23.191v97.617c0 12.808-10.383 23.191-23.191 23.191z" fill="url(#SVGID_22_)"/><path d="m448.794 159.312h-18.587c-1.09 0-2.161.081-3.212.227 11.287 1.565 19.979 11.247 19.979 22.965v97.617c0 11.718-8.692 21.4-19.979 22.965 1.05.146 2.121.227 3.212.227h18.587c12.808 0 23.191-10.383 23.191-23.191v-97.617c0-12.81-10.383-23.193-23.191-23.193z" fill="url(#SVGID_23_)"/></g></g><g><g><path d="m213.4 116.518v-86.52h-35v86.52c0 9.665 7.835 17.5 17.5 17.5 9.665 0 17.5-7.835 17.5-17.5z" fill="url(#SVGID_24_)"/><path d="m178.4 30h35v38.03h-35z" fill="url(#SVGID_25_)"/></g><g><path d="m331.6 116.518v-86.52h-35v86.52c0 9.665 7.835 17.5 17.5 17.5 9.665 0 17.5-7.835 17.5-17.5z" fill="url(#SVGID_26_)"/><path d="m296.6 30h35v38.03h-35z" fill="url(#SVGID_27_)"/></g></g><g><path d="m328.664 40.261h-147.328c-11.118 0-20.13-9.013-20.13-20.13 0-11.118 9.013-20.13 20.13-20.13h147.328c11.118 0 20.13 9.013 20.13 20.13 0 11.117-9.012 20.13-20.13 20.13z" fill="url(#SVGID_28_)"/><path d="m328.664 0h-40.469c11.118 0 20.13 9.013 20.13 20.13 0 11.118-9.013 20.13-20.13 20.13h40.469c11.118 0 20.13-9.013 20.13-20.13 0-11.117-9.012-20.13-20.13-20.13z" fill="url(#SVGID_29_)"/></g><g><g><path d="m309.902 445.472c-10.312 1.684-20.828 1.684-31.14 0-11.104-1.813-21.188 6.757-21.188 18.008 0 11.251 10.084 19.822 21.188 18.008 10.312-1.684 20.828-1.684 31.14 0 11.104 1.813 21.188-6.757 21.188-18.008 0-11.251-10.084-19.822-21.188-18.008z" fill="url(#SVGID_30_)"/><path d="m331.093 463.483c0 10.24-8.35 18.25-18.22 18.25-.98 0-1.97-.08-2.97-.24-4.9-.81-9.86-1.23-14.82-1.26 6.4-2.78 11-9.15 11-16.75s-4.61-13.98-11.02-16.76c4.97-.03 9.93-.45 14.84-1.25 1-.16 1.99-.24 2.97-.24 9.87 0 18.22 8.01 18.22 18.25z" fill="url(#SVGID_31_)"/></g><g><path d="m231.235 445.472c-10.312 1.684-20.828 1.684-31.14 0-11.104-1.813-21.188 6.757-21.188 18.008 0 11.251 10.084 19.822 21.188 18.008 10.312-1.684 20.828-1.684 31.14 0 11.104 1.813 21.188-6.757 21.188-18.008 0-11.251-10.083-19.822-21.188-18.008z" fill="url(#SVGID_32_)"/><path d="m252.426 463.483c0 10.24-8.35 18.25-18.22 18.25-.98 0-1.97-.08-2.97-.24-4.9-.81-9.86-1.23-14.82-1.26 6.4-2.78 11-9.15 11-16.75s-4.61-13.98-11.02-16.76c4.97-.03 9.93-.45 14.84-1.25 1-.16 1.99-.24 2.97-.24 9.87 0 18.22 8.01 18.22 18.25z" fill="url(#SVGID_33_)"/></g></g><path d="m272.5 469v-65.536c0-9.592-7.776-17.368-17.368-17.368h-.265c-9.592 0-17.368 7.776-17.368 17.368v65.536c0 9.665 7.835 17.5 17.5 17.5 9.666 0 17.501-7.835 17.501-17.5z" fill="url(#SVGID_34_)"/></g></svg>