<svg id="Capa_1" enable-background="new 0 0 510 510" height="512" viewBox="0 0 510 510" width="512" xmlns="http://www.w3.org/2000/svg" xmlns:xlink="http://www.w3.org/1999/xlink"><linearGradient id="lg1"><stop offset="0" stop-color="#fff9df"/><stop offset=".593" stop-color="#ffe177"/><stop offset="1" stop-color="#feb137"/></linearGradient><linearGradient id="SVGID_1_" gradientUnits="userSpaceOnUse" x1="8" x2="520.016" xlink:href="#lg1" y1="255" y2="255"/><linearGradient id="lg2"><stop offset="0" stop-color="#a2e62e"/><stop offset=".7542" stop-color="#09a76d"/><stop offset="1" stop-color="#017b4e"/></linearGradient><linearGradient id="SVGID_2_" gradientUnits="userSpaceOnUse" x1="259" x2="515.008" xlink:href="#lg2" y1="127.5" y2="127.5"/><linearGradient id="lg3"><stop offset="0" stop-color="#01d0fb"/><stop offset=".6075" stop-color="#26a6fe"/><stop offset="1" stop-color="#0182fc"/></linearGradient><linearGradient id="SVGID_3_" gradientUnits="userSpaceOnUse" x1="259" x2="515.008" xlink:href="#lg3" y1="382.5" y2="382.5"/><linearGradient id="SVGID_4_" gradientUnits="userSpaceOnUse" x1="-44.895" x2="252.004" xlink:href="#lg1" y1="255" y2="255"/><linearGradient id="SVGID_5_" gradientUnits="userSpaceOnUse" x1="174.095" x2="440.326" xlink:href="#lg3" y1="382.5" y2="382.5"/><linearGradient id="SVGID_6_" gradientUnits="userSpaceOnUse" x1="153.096" x2="488.335" xlink:href="#lg2" y1="127.5" y2="127.5"/><linearGradient id="lg4"><stop offset="0" stop-color="#fe99a0"/><stop offset=".593" stop-color="#fe646f"/><stop offset="1" stop-color="#e41f2d"/></linearGradient><linearGradient id="SVGID_7_" gradientUnits="userSpaceOnUse" x1="4" x2="260.008" xlink:href="#lg4" y1="382.5" y2="382.5"/><linearGradient id="SVGID_8_" gradientUnits="userSpaceOnUse" x1="-185.888" x2="233.931" xlink:href="#lg4" y1="350.928" y2="350.928"/><g><path d="m255 0c-140.833 0-255 114.167-255 255s114.167 255 255 255 255-114.167 255-255-114.167-255-255-255zm190.521 319.849c-2.773 8.149-6.054 16.063-9.805 23.704-5.221 10.634-17.051 16.034-28.651 13.634-13.441-2.781-27.975 1.041-38.406 11.473-10.431 10.431-14.254 24.965-11.473 38.406 2.401 11.6-3 23.43-13.633 28.651-7.641 3.751-15.555 7.032-23.704 9.805-11.009 3.746-23.059-.594-29.345-10.378-7.501-11.673-20.598-19.406-35.504-19.406s-28.003 7.733-35.504 19.406c-6.287 9.783-18.336 14.124-29.345 10.378-8.149-2.773-16.063-6.054-23.704-9.805-10.634-5.221-16.034-17.051-13.634-28.651 2.781-13.441-1.041-27.975-11.473-38.406-10.431-10.431-24.965-14.254-38.406-11.473-11.6 2.4-23.43-3-28.651-13.634-3.751-7.641-7.032-15.555-9.805-23.704-3.746-11.009.594-23.059 10.378-29.345 11.673-7.501 19.406-20.598 19.406-35.504s-7.733-28.003-19.406-35.504c-9.783-6.287-14.124-18.336-10.378-29.345 2.773-8.149 6.054-16.063 9.805-23.704 5.221-10.634 17.051-16.034 28.651-13.634 13.441 2.781 27.975-1.041 38.406-11.473s14.254-24.965 11.473-38.406c-2.4-11.6 3-23.43 13.634-28.651 7.641-3.751 15.555-7.032 23.704-9.805 11.009-3.746 23.059.594 29.345 10.378 7.501 11.673 20.598 19.406 35.504 19.406s28.003-7.733 35.504-19.406c6.287-9.783 18.336-14.124 29.345-10.378 8.149 2.773 16.063 6.054 23.704 9.805 10.634 5.221 16.034 17.051 13.633 28.651-2.781 13.441 1.041 27.975 11.473 38.406 10.431 10.431 24.965 14.254 38.406 11.473 11.6-2.4 23.43 3 28.651 13.634 3.751 7.641 7.032 15.555 9.805 23.704 3.746 11.009-.594 23.059-10.378 29.345-11.673 7.501-19.406 20.598-19.406 35.504s7.733 28.003 19.406 35.504c9.784 6.286 14.125 18.336 10.378 29.345z" fill="url(#SVGID_1_)"/><path d="m435.14 219.5c-11.67 7.5-19.4 20.59-19.4 35.5h94.26c0-140.83-114.17-255-255-255v94.26c14.91 0 28-7.73 35.5-19.4 6.29-9.79 18.34-14.13 29.35-10.38 8.15 2.77 16.06 6.05 23.7 9.8 10.64 5.22 16.04 17.05 13.64 28.66-2.79 13.44 1.04 27.97 11.47 38.4s24.96 14.26 38.4 11.47c11.61-2.4 23.44 3 28.66 13.64 3.75 7.64 7.03 15.55 9.8 23.7 3.75 11.01-.59 23.06-10.38 29.35z" fill="url(#SVGID_2_)"/><path d="m415.74 255c0 14.91 7.73 28 19.4 35.5 9.79 6.29 14.13 18.34 10.38 29.35-2.77 8.15-6.05 16.06-9.8 23.7-5.22 10.64-17.05 16.04-28.66 13.64-13.44-2.79-27.97 1.04-38.4 11.47s-14.26 24.96-11.47 38.4c2.4 11.61-3 23.44-13.64 28.66-7.64 3.75-15.55 7.03-23.7 9.8-11.01 3.75-23.06-.59-29.35-10.38-7.5-11.67-20.59-19.4-35.5-19.4v94.26c140.83 0 255-114.17 255-255z" fill="url(#SVGID_3_)"/><path d="m152.814 407.065c2.781-13.441-1.041-27.975-11.473-38.406-10.431-10.431-24.965-14.254-38.406-11.473-11.6 2.401-23.43-3-28.651-13.634-3.751-7.641-7.032-15.555-9.805-23.704-3.746-11.009.594-23.059 10.378-29.345 11.673-7.501 19.406-20.598 19.406-35.504s-7.733-28.003-19.406-35.504c-9.783-6.287-14.124-18.336-10.378-29.345 2.773-8.149 6.054-16.063 9.805-23.704 5.221-10.634 17.051-16.034 28.651-13.634 13.441 2.781 27.975-1.041 38.406-11.473 10.431-10.431 14.254-24.965 11.473-38.406-2.401-11.6 3-23.43 13.634-28.651 2.99-1.468 6.033-2.841 9.104-4.163-6.675-6.342-16.395-8.714-25.42-5.643-8.149 2.773-16.063 6.054-23.704 9.805-10.634 5.221-16.034 17.051-13.634 28.651 2.781 13.441-1.041 27.975-11.473 38.406-10.431 10.431-24.965 14.254-38.406 11.473-11.6-2.401-23.43 3-28.651 13.634-3.751 7.641-7.032 15.555-9.805 23.704-3.746 11.009.594 23.059 10.378 29.345 11.673 7.501 19.406 20.598 19.406 35.504s-7.733 28.003-19.406 35.504c-9.783 6.287-14.124 18.336-10.378 29.345 2.773 8.149 6.054 16.063 9.805 23.704 5.221 10.634 17.051 16.034 28.651 13.634 13.441-2.781 27.975 1.041 38.406 11.473 10.431 10.431 14.254 24.965 11.473 38.406-2.401 11.6 3 23.43 13.634 28.651 7.641 3.751 15.555 7.032 23.704 9.805 9.026 3.071 18.745.7 25.42-5.643-3.071-1.322-6.114-2.695-9.104-4.163-10.635-5.219-16.035-17.049-13.634-28.649z" fill="url(#SVGID_4_)"/><path d="m469.98 255c0 127.216-93.161 235.796-214.98 255 140.83 0 255-114.17 255-255z" fill="url(#SVGID_5_)"/><path d="m255 0c121.819 19.204 214.98 127.784 214.98 255h40.02c0-140.83-114.17-255-255-255z" fill="url(#SVGID_6_)"/><path d="m219.5 435.14c-6.29 9.79-18.34 14.13-29.35 10.38-8.15-2.77-16.06-6.05-23.7-9.8-10.64-5.22-16.04-17.05-13.64-28.66 2.79-13.44-1.04-27.97-11.47-38.4s-24.96-14.26-38.4-11.47c-11.61 2.4-23.44-3-28.66-13.64-3.75-7.64-7.03-15.55-9.8-23.7-3.75-11.01.59-23.06 10.38-29.35 11.67-7.5 19.4-20.59 19.4-35.5h-94.26c0 140.83 114.17 255 255 255v-94.26c-14.91 0-28 7.73-35.5 19.4z" fill="url(#SVGID_7_)"/><path d="m166.45 435.72c-10.64-5.22-16.04-17.05-13.64-28.66 2.79-13.44-1.04-27.97-11.47-38.4s-24.96-14.26-38.4-11.47c-11.61 2.4-23.44-3-28.66-13.64-3.75-7.64-7.03-15.55-9.8-23.7-3.75-11.01.59-23.06 10.38-29.35 11.67-7.5 19.4-20.59 19.4-35.5h-40.018c0 14.906-7.733 28.003-19.406 35.504-9.783 6.287-14.124 18.336-10.378 29.345 2.773 8.149 6.054 16.063 9.805 23.704 5.221 10.634 17.051 16.034 28.651 13.634 13.441-2.781 27.975 1.041 38.406 11.473 10.431 10.431 14.254 24.965 11.473 38.406-2.401 11.6 3 23.43 13.634 28.651 7.641 3.751 15.555 7.032 23.704 9.805 9.025 3.071 18.744.7 25.419-5.641-3.07-1.321-6.111-2.694-9.1-4.161z" fill="url(#SVGID_8_)"/></g></svg>