<?xml version="1.0" encoding="UTF-8" standalone="no"?>
<svg width="80px" height="90px" viewBox="0 0 80 90" version="1.1" xmlns="http://www.w3.org/2000/svg" xmlns:xlink="http://www.w3.org/1999/xlink">
    <!-- Generator: Sketch 39.1 (31720) - http://www.bohemiancoding.com/sketch -->
    <title>Slice 1</title>
    <desc>Created with Sketch.</desc>
    <defs></defs>
    <g id="Page-1" stroke="none" stroke-width="1" fill="none" fill-rule="evenodd">
        <path d="M1.732,28.361 C0.339,32.94 0,37.567 0,42.322 C0,54.389 4.699,65.735 13.232,74.267 L17.5,78.535 L17.5,73.051 C20.557,75.138 23.918,76.807 27.5,77.988 L27.5,81.161 L21.113,85.419 L23.886,89.579 L30,85.504 L36.113,89.58 L38.886,85.42 L32.5,81.162 L32.5,79.284 C34.931,79.748 37.436,80 40,80 C42.564,80 45.069,79.748 47.5,79.285 L47.5,81.163 L41.113,85.421 L43.886,89.581 L50,85.504 L56.113,89.58 L58.886,85.42 L52.5,81.162 L52.5,77.989 C56.082,76.807 59.443,75.139 62.5,73.052 L62.5,78.535 L66.768,74.267 C75.301,65.735 80,54.39 80,42.322 C80,36.987 79.618,31.427 77.66,26.53 C75.373,20.157 71.512,14.53 66.548,10.115 C65.546,8.502 65,6.643 65,4.697 L65,0 L60,0 L60,4.697 C60,4.934 60.024,5.166 60.034,5.401 C54.138,1.974 47.297,0 40,0 C32.703,0 25.862,1.974 19.966,5.401 C19.976,5.166 20,4.934 20,4.697 L20,0 L15,0 L15,4.697 C15,6.644 14.454,8.503 13.452,10.115 C8.488,14.53 4.627,20.156 2.34,26.529 C2.076,27.167 1.912,27.77 1.732,28.361 C1.589,28.831 1.763,28.261 1.732,28.361 L1.732,28.361 Z M75,40 L75,42.322 C75,50.832 72.372,58.939 67.5,65.714 L67.5,55.178 C67.5,47.216 69.88,39.439 74.269,32.862 C74.755,35.2 75,37.587 75,40 L75,40 Z M40,7.5 C54.164,7.5 66.234,16.611 70.674,29.278 C65.384,36.841 62.5,45.894 62.5,55.178 L62.5,63.419 C56.656,69.036 48.727,72.5 40,72.5 C31.273,72.5 23.344,69.036 17.5,63.419 L17.5,55.178 C17.5,45.895 14.615,36.841 9.326,29.279 C13.766,16.611 25.836,7.5 40,7.5 L40,7.5 Z M5,40 C5,37.587 5.245,35.2 5.731,32.862 C10.12,39.438 12.5,47.215 12.5,55.178 L12.5,65.715 C7.628,58.939 5,50.833 5,42.322 L5,40 L5,40 Z" id="Shape" fill="#000000"></path>
        <path d="M22.5,35 C22.5,32.243 24.743,30 27.5,30 C30.257,30 32.5,32.243 32.5,35 L35,35 L37.5,35 C37.5,29.486 33.014,25 27.5,25 C21.986,25 17.5,29.486 17.5,35 L20,35 L22.5,35 L22.5,35 Z" id="Shape" fill="#000000"></path>
        <path d="M47.5,35 C47.5,32.243 49.743,30 52.5,30 C55.257,30 57.5,32.243 57.5,35 L60,35 L62.5,35 C62.5,29.486 58.014,25 52.5,25 C46.986,25 42.5,29.486 42.5,35 L45,35 L47.5,35 L47.5,35 Z" id="Shape" fill="#000000"></path>
        <polygon id="Shape" fill="#000000" points="32.829 44.99 40 57.539 47.171 44.99 42.829 42.51 40 47.461 37.171 42.51"></polygon>
    </g>
</svg>