<svg xmlns="http://www.w3.org/2000/svg" xmlns:xlink="http://www.w3.org/1999/xlink" version="1.1" x="0px" y="0px" viewBox="0 0 100 100" enable-background="new 0 0 100 100" xml:space="preserve"><path fill-rule="evenodd" clip-rule="evenodd" d="M28.017,67.726c-3.613-0.294-5.605-1.979-6.496-5.413  c-0.541-2.086-0.653-4.214-0.576-6.353c0.325-8.997,2.751-17.568,5.35-26.095c1.026-3.369,2.232-6.685,3.385-10.014  c0.196-0.566,0.259-1.124,0.258-1.709c-0.003-5.125-0.001-10.252,0-15.378c0-0.49,0-0.979,0-1.647  c1.023,0.879,1.849,1.683,2.767,2.362c4.487,3.315,9.442,5.612,14.914,6.774c2.327,0.494,4.559,0.035,6.749-0.667  c5.481-1.758,10.563-4.242,14.746-8.356c0.308,0.355,0.158,0.755,0.159,1.113c0.012,5.204,0.015,10.408,0.001,15.612  c-0.002,0.708,0.11,1.368,0.354,2.039c3.05,8.379,5.725,16.871,7.415,25.64c0.926,4.796,1.707,9.619,1.086,14.538  c-0.073,0.576-0.153,1.154-0.284,1.719c-0.89,3.828-2.672,5.368-6.937,5.949c0.582-1.707,1.147-3.375,1.467-5.119  c2.146-11.745-5.386-23.499-16.967-26.48c-0.758-0.195-1.173-0.144-1.562,0.614c-0.676,1.318-1.638,2.448-2.746,3.44  c-1.081,0.968-2.07,0.959-3.175-0.015c-1.117-0.985-2.047-2.132-2.756-3.435c-0.35-0.642-0.672-0.844-1.444-0.627  c-6.756,1.896-11.792,5.882-14.951,12.172c-3.103,6.178-3.236,12.493-0.815,18.915C27.998,67.408,27.991,67.53,28.017,67.726z   M49.554,24.933c0.651,1.375,1.463,2.4,2.421,3.324c0.764,0.736,1.938,0.621,2.689,1.299c1.743,1.574,3.825,1.397,5.835,1.04  c4.084-0.727,7.365-4.249,7.854-8.181c0.562-4.516-1.586-8.539-5.569-10.435c-3.822-1.82-8.327-0.972-11.338,2.124  c-0.771,0.792-1.33,1.738-1.937,2.783c-0.208-0.357-0.344-0.586-0.476-0.816c-2.634-4.577-8.202-6.325-12.896-4.049  c-4.685,2.273-6.723,7.715-4.872,12.62c1.929,5.112,9.354,8.14,13.276,4.806c0.226-0.192,0.546-0.315,0.842-0.377  c1.405-0.293,2.26-1.286,3.045-2.358C48.813,26.188,49.128,25.612,49.554,24.933z M49.48,30.185  c-1.369-0.023-2.714,0.105-3.958,0.728c-0.403,0.202-0.83,0.384-0.614,1.043c0.831,2.535,2.005,4.853,3.904,6.775  c0.54,0.546,0.902,0.499,1.422-0.026c1.843-1.863,2.999-4.108,3.828-6.559c0.228-0.674-0.05-1.012-0.617-1.272  C52.182,30.294,50.846,30.151,49.48,30.185z"></path><path fill-rule="evenodd" clip-rule="evenodd" d="M50.348,85.01c0-4.228,0.017-8.456-0.014-12.684  c-0.007-0.783,0.194-1.075,1.029-1.08c1.587-0.011,3.176-0.13,4.759-0.26c0.638-0.053,0.933,0.073,1.133,0.76  c2.252,7.766,4.812,15.435,7.343,23.112c0.246,0.745,0.142,1.045-0.627,1.328c-4.071,1.493-8.279,2.244-12.593,2.527  c-0.828,0.054-1.052-0.207-1.045-1.02C50.368,93.466,50.348,89.237,50.348,85.01z"></path><path fill-rule="evenodd" clip-rule="evenodd" d="M48.725,84.993c0,4.229-0.021,8.459,0.018,12.688  c0.007,0.812-0.204,1.083-1.037,1.027c-4.275-0.291-8.458-1.004-12.485-2.518c-0.59-0.221-0.871-0.406-0.634-1.125  c2.565-7.793,5.187-15.567,7.446-23.456c0.141-0.492,0.364-0.676,0.902-0.635c1.701,0.128,3.405,0.227,5.11,0.278  c0.821,0.026,0.679,0.563,0.68,1.049C48.726,76.533,48.725,80.764,48.725,84.993z"></path><path fill-rule="evenodd" clip-rule="evenodd" d="M68.615,69.106c1.314-0.824,1.815-0.238,2.322,0.877  c2.293,5.042,4.66,10.052,7.042,15.052c0.299,0.627,0.224,1.022-0.188,1.536c-2.948,3.676-6.658,6.35-10.86,8.402  c-0.583,0.285-0.845,0.248-1.058-0.428c-2.411-7.642-4.853-15.271-7.265-22.912c-0.078-0.249-0.37-0.602-0.05-0.831  c0.296-0.211,0.576-0.026,0.773,0.275c2.06,3.143,3.889,6.364,3.601,10.319c1.693-1.412,2.858-5.26,2.713-9.121  c2.663,1.929,4.105,4.623,5.358,7.477C71.283,75.942,70.852,72.32,68.615,69.106z"></path><path fill-rule="evenodd" clip-rule="evenodd" d="M30.44,69.096c-2.254,3.192-2.703,6.768-2.387,10.531  c1.094-2.364,2.271-4.653,4.2-6.449c0.3-0.279,0.57-0.628,1.162-0.73c-0.499,3.449,0.751,6.349,2.762,9.391  c-0.433-4.319,1.427-7.526,3.451-10.679c0.238-0.37,0.517-0.606,0.951-0.413c0.532,0.237,0.131,0.604,0.048,0.882  c-2.263,7.687-4.81,15.283-7.242,22.917c-0.22,0.689-0.491,0.71-1.057,0.434c-4.168-2.03-7.834-4.697-10.798-8.303  c-0.495-0.601-0.537-1.076-0.21-1.764c2.378-5.002,4.749-10.01,7.054-15.045C28.85,68.827,29.303,68.253,30.44,69.096z"></path><path fill-rule="evenodd" clip-rule="evenodd" d="M19.496,56.022c-3.534-6.397-5.779-12.951-2.617-20.226  c1.252-2.879,3.376-4.57,6.446-5.086c1.236-0.208,1.297-0.116,0.952,1.051c-1.694,5.725-3.172,11.499-4.046,17.415  C19.896,51.44,19.643,53.713,19.496,56.022z"></path><path fill-rule="evenodd" clip-rule="evenodd" d="M79.763,55.583c-0.278-4.239-0.976-8.39-1.854-12.513  c-0.881-4.13-2.001-8.199-3.245-12.402c2.755,0.1,4.932,1.118,6.467,3.317c1.358,1.946,1.928,4.211,2.354,6.509  c0.545,2.942,0.058,5.789-0.83,8.595C81.94,51.346,80.953,53.482,79.763,55.583z"></path><path fill-rule="evenodd" clip-rule="evenodd" d="M53.89,22.351c0.002-1.72,0.199-3.407,0.969-4.969  c0.27-0.548,0.589-1.142,1.336-1.14c0.734,0.002,1.121,0.558,1.353,1.122c1.359,3.302,1.368,6.632,0.029,9.944  c-0.247,0.609-0.643,1.239-1.414,1.199c-0.686-0.035-1.046-0.607-1.321-1.182C54.088,25.752,53.892,24.07,53.89,22.351z"></path><path fill-rule="evenodd" clip-rule="evenodd" d="M40.497,22.356c0.064-1.707,0.167-3.408,0.965-4.969  c0.285-0.556,0.609-1.135,1.337-1.142c0.727-0.008,1.113,0.538,1.348,1.116c1.358,3.343,1.364,6.701-0.013,10.04  c-0.239,0.579-0.656,1.136-1.36,1.104c-0.689-0.03-1.038-0.613-1.322-1.177C40.663,25.764,40.562,24.063,40.497,22.356z"></path></svg>