<svg xmlns="http://www.w3.org/2000/svg" xmlns:xlink="http://www.w3.org/1999/xlink" version="1.1" x="0px" y="0px" viewBox="0 0 100 100" enable-background="new 0 0 100 100" xml:space="preserve"><path d="M89.06,25.211c-0.552-2.773-2.022-4.429-3.932-4.429c-1.231,0-2.525,0.682-3.847,2.028c-2.654,2.7-5.504,4.385-8.834,5.203  c-0.671-1.233-1.386-2.393-2.145-3.469c-1.062-1.507-2.2-2.844-3.402-4.01c1.088-2.832,0.923-6.024,0.139-8.687  c-0.791-2.685-2.479-5.576-4.315-5.576c-0.425,0-0.821,0.158-1.146,0.456c-1.216,1.116-1.6,2.352-2.045,3.784  c-0.401,1.291-0.871,2.803-2.089,4.738c-1.274-0.282-2.582-0.427-3.92-0.427c-1.427,0-2.893,0.166-4.359,0.494  c-0.834,0.187-1.666,0.398-2.48,0.63c-2.382-2.079-3.476-3.855-4.364-5.295c-0.901-1.461-1.679-2.723-3.344-3.615  c-0.277-0.148-0.575-0.224-0.885-0.224c-0.851,0-1.685,0.556-2.48,1.651c-2.006,2.767-3.926,9.65-2.37,15.186  c-3.183,3.336-5.419,7.5-7.067,12.436c-3.744-1.755-4.416-4.264-5.02-6.519c-0.335-1.254-0.652-2.438-1.468-3.325  c-0.49-0.532-1.119-0.814-1.819-0.814c-1.478,0-3.14,1.272-4.559,3.489c-2.489,3.888-4.283,10.842-1.147,17.646  c1.671,3.626,4.378,6.95,7.622,9.36c0.782,0.581,1.578,1.097,2.379,1.546c-0.495,7.279,1.166,13.121,4.952,17.383  c3.888,4.377,10.026,6.999,17.903,7.69v3.969l-3.614,4.316c-0.306,0.365-0.258,0.91,0.108,1.216  c0.162,0.135,0.358,0.201,0.554,0.201c0.247,0,0.492-0.105,0.662-0.309l2.928-3.497l2.414,5.415  c0.143,0.321,0.458,0.512,0.789,0.512c0.117,0,0.237-0.024,0.351-0.075c0.435-0.194,0.631-0.705,0.437-1.14l-2.056-4.612  l4.172,1.874c0.435,0.196,0.946,0.001,1.141-0.433c0.195-0.435,0.001-0.946-0.434-1.141l-5.726-2.573v-3.605  c0.854,0.043,1.726,0.066,2.617,0.066c4.577,0,8.964-0.872,12.897-2.501l0.389,3.765l-1.981,4.35  c-0.197,0.434-0.006,0.946,0.428,1.143c0.116,0.053,0.238,0.078,0.357,0.078c0.328,0,0.641-0.188,0.786-0.506l1.554-3.412  l2.946,3.038c0.169,0.175,0.394,0.262,0.62,0.262c0.217,0,0.433-0.081,0.601-0.244c0.342-0.332,0.351-0.878,0.019-1.221  l-2.407-2.482h2.464c0.477,0,0.863-0.386,0.863-0.863s-0.386-0.863-0.863-0.863h-3.725l-0.391-3.79  c2.265-1.1,4.355-2.464,6.212-4.069c0.027-0.023,0.054-0.045,0.08-0.068c0.057-0.05,0.114-0.1,0.17-0.151  c0.149-0.131,0.297-0.265,0.443-0.4c0.018-0.017,0.036-0.033,0.053-0.05c0.144-0.135,0.287-0.271,0.428-0.409  c0.063-0.062,0.127-0.124,0.189-0.186c0.035-0.035,0.069-0.07,0.103-0.104c0.299-0.3,0.591-0.605,0.875-0.919  c5.128-5.682,7.375-13.187,6.5-21.706c-0.189-1.835-0.428-3.618-0.715-5.348C87.467,41.156,90.207,30.974,89.06,25.211z   M39.79,22.706c1.743-2.271,5.271-2.691,7.928-2.403c2.563,0.278,4.336,1.77,6.746,0.582c2.27-1.119,3.903-4.548,7.292-2.607  c1.677,0.961,11.067,6.319,6.726,10.971c-1.986,2.128-6.394,1.618-8.508-0.3c-2.139-1.941-4.124-2.365-6.545,0.6  c-1.503,1.842-2.244,3.998-4.391,5.394c0,0-5.202,3.199-9.035-1.315C37.027,30.125,37.423,25.791,39.79,22.706z M59.353,29.417  l-1.014,4.447l-4.584-2.073c0.547-0.786,1.771-2.145,3.831-2.411C58.144,29.308,58.737,29.32,59.353,29.417z M55.09,80.279  c-11.151,0-16.89-7.056-15.273-20.675c1.829-15.407,6.909-22.522,20.31-24.98c8.905-1.633,14.047,7.402,16.198,25.166  C77.635,70.609,66.241,80.279,55.09,80.279z"></path><path d="M55.468,26.036l-8.218-3.084c-0.31-0.117-0.468-0.463-0.351-0.773c0.117-0.311,0.463-0.468,0.773-0.351l7.39,2.773  l3.631-4.686c0.203-0.262,0.58-0.31,0.842-0.107c0.262,0.203,0.31,0.58,0.107,0.842L55.468,26.036z"></path><path d="M48.679,25.319c-1.663,0-3.01,1.348-3.01,3.01c0,1.663,1.348,3.01,3.01,3.01s3.01-1.348,3.01-3.01  C51.69,26.667,50.342,25.319,48.679,25.319z M49.731,27.862c-0.383,0-0.694-0.311-0.694-0.694c0-0.383,0.311-0.694,0.694-0.694  c0.383,0,0.694,0.311,0.694,0.694C50.425,27.551,50.114,27.862,49.731,27.862z"></path><path d="M62.088,22.391c-1.58,0-2.861,1.281-2.861,2.861c0,1.58,1.281,2.861,2.861,2.861c1.58,0,2.861-1.281,2.861-2.861  C64.949,23.672,63.668,22.391,62.088,22.391z M63.003,24.598c-0.384,0-0.694-0.311-0.694-0.694c0-0.383,0.311-0.694,0.694-0.694  c0.383,0,0.694,0.311,0.694,0.694C63.697,24.287,63.386,24.598,63.003,24.598z"></path><path d="M51.897,53.789c-0.037,0-0.073-0.001-0.109-0.003c-1.765-0.103-3.081-0.556-4.695-1.613l0.736-1.123  c1.416,0.928,2.51,1.306,4.037,1.396c0.532,0.03,1.914-0.581,2.662-1.458c0.229-0.269,0.485-0.669,0.401-1.047l1.311-0.289  c0.16,0.727-0.079,1.49-0.691,2.208C54.652,52.912,52.979,53.789,51.897,53.789z"></path><path d="M63.092,50.467c-1.237,0-2.525-0.229-3.547-0.411l-0.195-0.035l0.234-1.322l0.196,0.035c1.661,0.296,4.44,0.791,5.617-0.196  c0.406-0.34,0.603-0.857,0.602-1.579l1.343-0.001c0.001,1.128-0.363,2.006-1.082,2.609C65.444,50.251,64.291,50.467,63.092,50.467z"></path><path d="M48.809,60.791c-0.729,0-1.451-0.093-2.016-0.282c-0.592-0.199-1.193-0.807-2.011-2.034l1.117-0.745  c0.846,1.269,1.225,1.473,1.32,1.505c0.946,0.317,2.644,0.273,3.495-0.09c0.899-0.384,1.435-1.272,1.333-2.209l1.335-0.145  c0.167,1.529-0.694,2.971-2.141,3.589C50.606,60.651,49.703,60.791,48.809,60.791z"></path><path d="M59.889,58.794c-1.437,0-2.863-0.409-3.668-1.317l1.005-0.89c0.811,0.916,3.134,1.15,4.779,0.481  c0.736-0.299,1.603-0.881,1.552-1.955l1.341-0.063c0.067,1.429-0.803,2.619-2.388,3.263C61.74,58.625,60.812,58.794,59.889,58.794z"></path><path d="M69.122,54.681c-0.844,0-1.494-0.488-2.252-1.057l-0.11-0.083l0.805-1.074l0.111,0.083c1.092,0.82,1.352,0.979,2.169,0.578  l0.066-0.028c1.273-0.463,1.252-2.31,1.251-2.328c0.002,0.019,0.006,0.034,0.008,0.045l1.309-0.3  c0.077,0.335,0.069,3.024-2.074,3.832C69.92,54.582,69.501,54.681,69.122,54.681z"></path></svg>