<svg xmlns="http://www.w3.org/2000/svg" xmlns:xlink="http://www.w3.org/1999/xlink" version="1.1" x="0px" y="0px" viewBox="0 0 100 100" enable-background="new 0 0 100 100" xml:space="preserve"><g><path fill-rule="evenodd" clip-rule="evenodd" d="M55.5,81.5c2.3,0.9,4,3.6,2.8,6.9c-2.2-1.5-3.3-4.8-6.4-4.8c-2.7,0-3.9,3-5.2,5.2   c-0.8-1.2-0.9-4-0.3-5.5c-2.1-0.4-3.3,1.6-4,3.3c-1-0.8-0.8-3.6-0.3-4.8c-2.9-0.1-3.5,2.1-4,4.3c-2.7-3.6,1.5-8.5,6-6.5   c1.1-0.3,1.8-1.2,2.2-2.2c-11.9-5.5-20.5-11.3-19.8-28.2c0.1-1.9,0.4-3.8,0.7-5.7c0.3-1.6,1-3.4,1-5.2c0.1-2.8-0.9-6-0.7-9.5   c0.2-3.1,1-6.1,2.1-8.3c0.9-1.8,4.1-7.3-0.7-7.6c0.4-0.3,1-0.3,1.7-0.3c-0.8-1.5-2-2.6-3.4-3.4c3.6,0.1,6.6,2.2,7.9,5.2   c4.8-3.7,15.6-3.4,20.1,0.3c1.6-3,4.1-5.1,8.3-5.7c-1.2,1.1-2.5,2.1-3.4,3.4c0.4,0.3,1.1,0.3,1.7,0.3c-0.7,0.6-1.8,0.7-2.4,1.4   c-0.7,4.1,2.1,6.1,3.3,9.1c0.9,2.4,1.6,5.6,1.2,9.3c-0.2,1.6-1.2,3.8-1,5.2c0.2,1.5,2.8,3.4,4,5.2c4.5,6.6,7.1,14.8,6.5,26.5   c-0.3,5.9-1.6,11.9-3.1,17.2c-0.4,1.5-0.8,4.3-2.1,4.6c-2.2,0.7-4.6-1.8-5.5-2.9C60.6,85.6,58.7,82.6,55.5,81.5z M35.2,18.6   c-2.6,1.6-4.5,5.8-4.5,10.3c0.2,15.7,28.8,15.2,30.3,0.9c0.6-5.7-2.5-10-5.2-11.4c-4.9-2.5-8.3,2.2-10.2,5.3   C43.7,20.2,39.4,16,35.2,18.6z M50.9,44.6c-1.4,9.9,4,16.2,8.1,22.2c3.2,4.7,6.1,9,7.6,15c0.1,0.6,0,2.1,1.2,2.1   c1.1-0.4,0.3-1.6,0.2-2.2c-0.6-2.8-1.6-4.9-2.8-7.1c-4.8-9.2-14.5-17.1-12.9-30.5c-0.3,0-0.7,0-1,0C51,44.2,50.8,44.3,50.9,44.6z    M49.3,80.8c1.3,0.5,2.5-0.3,2.9-1.2c-1.2-0.5-2.3-1-3.4-1.6C48.6,79.1,48.7,80.1,49.3,80.8z"></path><path fill-rule="evenodd" clip-rule="evenodd" d="M42.4,30.1c-2.4,2.7-8,2.6-8.6-1.6C35.7,24.8,41.7,26.2,42.4,30.1z"></path><path fill-rule="evenodd" clip-rule="evenodd" d="M57.6,29.1c-1.2,3.2-7.2,4.7-8.6,0.7C49.8,25.8,56,25.5,57.6,29.1z"></path><path fill-rule="evenodd" clip-rule="evenodd" d="M46,39.6c-1-1.3-2.6-4.1-1.9-6.5c0.6-2.1,3.2-1.7,3.6,0.2   C48.3,35.8,46.8,37.9,46,39.6z"></path></g></svg>