<svg xmlns="http://www.w3.org/2000/svg" xmlns:xlink="http://www.w3.org/1999/xlink" version="1.1" x="0px" y="0px" viewBox="0 0 100 100" enable-background="new 0 0 100 100" xml:space="preserve"><path d="M13.95,56.401v3.14c0,16.45,8.756,27.076,19.98,32.088C32.084,76.262,24.449,63.282,13.95,56.401z"></path><path d="M86.05,56.401c-10.489,6.875-18.12,19.836-19.976,35.182c11.223-5.06,19.976-15.739,19.976-32.042V56.401z"></path><path d="M64.369,39.347c-0.76,0-1.376-0.616-1.376-1.376c0-0.449,0.218-0.844,0.552-1.096c-0.43-0.181-0.9-0.281-1.396-0.281  c-1.986,0-3.597,1.611-3.597,3.597c0,1.987,1.61,3.598,3.597,3.598c1.987,0,3.598-1.611,3.598-3.598c0-0.495-0.1-0.966-0.281-1.395  C65.214,39.128,64.818,39.347,64.369,39.347z"></path><path d="M68.467,16.694c-5.077-1.121-11.49-1.79-18.462-1.79c-6.975,0-13.39,0.67-18.468,1.792C23.974,14.483,13.95,5,13.95,5  v12.154v35.539c12.547,7.314,21.638,22.377,23.305,40.231C41.364,94.31,45.704,95,50,95c4.297,0,8.638-0.703,12.748-2.104  C64.422,75.053,73.51,60.004,86.05,52.693V17.154V5C86.05,5,76.03,14.479,68.467,16.694z M24.707,38.287  c0-6.208,5.033-11.242,11.241-11.242c6.208,0,11.241,5.034,11.241,11.242c0,6.208-5.033,11.241-11.241,11.241  C29.739,49.528,24.707,44.496,24.707,38.287z M38.264,72.234c-1.49,0-2.698-1.207-2.698-2.698c0-1.489,1.208-2.697,2.698-2.697  c1.49,0,2.698,1.208,2.698,2.697C40.961,71.027,39.753,72.234,38.264,72.234z M44.129,83.975c-1.49,0-2.698-1.207-2.698-2.697  s1.208-2.697,2.698-2.697s2.698,1.207,2.698,2.697S45.619,83.975,44.129,83.975z M50.005,72.234c-1.49,0-2.698-1.207-2.698-2.698  c0-1.489,1.208-2.697,2.698-2.697c1.489,0,2.698,1.208,2.698,2.697C52.703,71.027,51.494,72.234,50.005,72.234z M52.99,49.305  l-2.387,4.775c-0.332,0.663-0.875,0.663-1.206,0l-2.387-4.775c-0.332-0.664-0.174-1.636,0.35-2.161l1.687-1.686  c0.524-0.525,1.383-0.525,1.908,0l1.687,1.686C53.165,47.669,53.322,48.642,52.99,49.305z M55.871,83.975  c-1.49,0-2.698-1.207-2.698-2.697s1.208-2.697,2.698-2.697c1.489,0,2.697,1.207,2.697,2.697S57.36,83.975,55.871,83.975z   M61.746,72.234c-1.49,0-2.698-1.207-2.698-2.698c0-1.489,1.208-2.697,2.698-2.697s2.697,1.208,2.697,2.697  C64.443,71.027,63.236,72.234,61.746,72.234z M64.053,49.528c-6.209,0-11.241-5.033-11.241-11.241  c0-6.208,5.032-11.242,11.241-11.242c6.208,0,11.24,5.034,11.24,11.242C75.293,44.496,70.261,49.528,64.053,49.528z"></path><path d="M40.072,39.347c-0.76,0-1.376-0.616-1.376-1.376c0-0.449,0.218-0.844,0.551-1.096c-0.429-0.181-0.9-0.281-1.396-0.281  c-1.987,0-3.598,1.611-3.598,3.597c0,1.987,1.611,3.598,3.598,3.598c1.986,0,3.597-1.611,3.597-3.598c0-0.495-0.1-0.966-0.281-1.395  C40.916,39.128,40.521,39.347,40.072,39.347z"></path></svg>