<svg xmlns="http://www.w3.org/2000/svg" xmlns:xlink="http://www.w3.org/1999/xlink" xmlns:a="http://ns.adobe.com/AdobeSVGViewerExtensions/3.0/" version="1.1" x="0px" y="0px" viewBox="-1 -2.4 40 40" enable-background="new -1 -2.4 40 40" xml:space="preserve"><path display="none" d="M5.1,7.3C5.1,7.3,5.1,7.4,5.1,7.3C4.4,8,3.9,8.8,3.4,9.9c-1.1,2.5-1.7,5.5-1.7,9s0.6,6.5,1.7,9  c0.5,1,1,1.8,1.5,2.4l0-12.6h0.9v9.8h2v-9.8h0.9v12.8C9,31,9.2,31.4,9.5,31.7H8v2.7h0.8c0-0.1,0-0.2,0-0.4c0-0.5,0.1-0.9,0.3-1.2  c0.2-0.3,0.4-0.5,0.6-0.5s0.5,0.2,0.6,0.5s0.3,0.8,0.3,1.2c0,0.1,0,0.3,0,0.4h1c0-0.1,0-0.2,0-0.4c0-0.5,0.1-0.9,0.3-1.2  c0.2-0.3,0.4-0.5,0.6-0.5s0.5,0.2,0.6,0.5s0.3,0.8,0.3,1.2c0,0.1,0,0.3,0,0.4h0.9v-2.7h-1.7c0.3-0.3,0.6-0.8,0.8-1.3  c0.1-0.2,0.2-0.4,0.3-0.6c1.7,0.9,3.6,1.3,5.8,1.3c2.3,0,4.2-0.4,5.9-1.3c0.1,0.2,0.2,0.5,0.3,0.7c0.3,0.5,0.5,1,0.8,1.3h-1.7v2.7  h0.9c0-0.1,0-0.2,0-0.4c0-0.5,0.1-0.9,0.3-1.2c0.2-0.3,0.4-0.5,0.6-0.5s0.5,0.2,0.6,0.5c0.2,0.3,0.3,0.8,0.3,1.2c0,0.1,0,0.3,0,0.4  h1c0-0.1,0-0.2,0-0.4c0-0.5,0.1-0.9,0.3-1.2c0.2-0.3,0.4-0.5,0.6-0.5s0.5,0.2,0.6,0.5c0.2,0.3,0.3,0.8,0.3,1.2c0,0.1,0,0.3,0,0.4  h0.8v-2.7h-1.5c0.3-0.3,0.6-0.8,0.8-1.3c0,0,0-0.1,0.1-0.1V17.7h0.9v9.8h2v-9.8H34v12.6c0.5-0.6,1-1.4,1.5-2.4  c1.1-2.5,1.7-5.5,1.7-9s-0.6-6.5-1.7-9c-0.5-1.1-1-1.9-1.6-2.5c0,0-0.1-0.1-0.1-0.1V3.2L30.2,5l0,0l-1.7,0.9l0,0  c-0.4-1.3-1.2-2.4-2.4-3.4c-1.8-1.6-4-2.3-6.6-2.3s-4.8,0.8-6.7,2.3c-1.2,1-1.9,2.1-2.4,3.3L5.1,3.2V7.3L5.1,7.3z M17.7,7.3l1.7,1.8  l2.1-1.8h7.5V20H9.8V7.3H17.7L17.7,7.3z"></path><path display="none" d="M26.5,15c0.8-0.8,1.2-1.8,1.2-2.9c0-1.1-0.4-2.1-1.2-2.9c-0.8-0.8-1.7-1.2-2.8-1.2c-1.1,0-2,0.4-2.8,1.2  c-0.8,0.8-1.2,1.8-1.2,2.9c0,0.6,0.1,1.1,0.3,1.6h-1.1c0.2-0.5,0.3-1,0.3-1.6c0-1.1-0.4-2.1-1.2-2.9c-0.8-0.8-1.7-1.2-2.8-1.2  s-2,0.4-2.8,1.2c-0.8,0.8-1.2,1.8-1.2,2.9c0,1.2,0.4,2.1,1.2,2.9c0.8,0.8,1.7,1.2,2.8,1.2c1.1,0,2-0.4,2.8-1.2l1.4,1.6l1.6-1.5  c0.7,0.7,1.6,1,2.6,1C24.8,16.3,25.7,15.8,26.5,15L26.5,15z M25.6,11.1c0.5,0.5,0.8,1.2,0.8,1.9c0,0.7-0.3,1.4-0.8,1.9  c-0.5,0.5-1.2,0.8-1.9,0.8c-0.7,0-1.4-0.3-1.9-0.8C21.2,14.4,21,13.8,21,13c0-0.7,0.3-1.4,0.8-1.9c0.5-0.5,1.2-0.8,1.9-0.8  C24.4,10.3,25,10.6,25.6,11.1L25.6,11.1z M13.3,11.1c0.5-0.5,1.2-0.8,1.9-0.8s1.4,0.3,1.9,0.8c0.5,0.5,0.8,1.2,0.8,1.9  c0,0.7-0.3,1.4-0.8,1.9c-0.5,0.5-1.2,0.8-1.9,0.8s-1.4-0.3-1.9-0.8c-0.5-0.5-0.8-1.2-0.8-1.9C12.6,12.3,12.8,11.6,13.3,11.1  L13.3,11.1z"></path><path display="none" d="M24.8,14.1c0.3-0.4,0.4-0.9,0.4-1.5c0-0.6-0.1-1.1-0.4-1.5c-0.3-0.4-0.6-0.6-1-0.6c-0.4,0-0.7,0.2-1,0.6  c-0.3,0.4-0.4,0.9-0.4,1.5c0,0.6,0.1,1.1,0.4,1.5c0.3,0.4,0.6,0.6,1,0.6C24.2,14.7,24.5,14.5,24.8,14.1L24.8,14.1z M23.8,12  c0.1,0,0.2,0.1,0.2,0.2c0.1,0.1,0.1,0.3,0.1,0.5s0,0.3-0.1,0.4c-0.1,0.1-0.1,0.2-0.2,0.2s-0.2-0.1-0.2-0.2c-0.1-0.1-0.1-0.3-0.1-0.4  s0-0.3,0.1-0.5C23.6,12.1,23.7,12,23.8,12L23.8,12z"></path><path display="none" d="M15.4,10.4c-0.4,0-0.7,0.2-1,0.6c-0.3,0.4-0.4,0.9-0.4,1.5c0,0.6,0.1,1.1,0.4,1.5s0.6,0.6,1,0.6  s0.7-0.2,1-0.6s0.4-0.9,0.4-1.5c0-0.6-0.1-1.1-0.4-1.5C16.1,10.6,15.8,10.4,15.4,10.4L15.4,10.4z M15.3,12c0.1,0,0.2,0.1,0.2,0.2  c0.1,0.1,0.1,0.3,0.1,0.5s0,0.3-0.1,0.4c-0.1,0.1-0.1,0.2-0.2,0.2c-0.1,0-0.2-0.1-0.2-0.2C15.1,13,15,12.8,15,12.7s0-0.3,0.1-0.5  C15.2,12.1,15.3,12,15.3,12L15.3,12z"></path><path display="none" d="M31.6,6c-0.2-0.2-0.3-0.2-0.5-0.2c-0.2,0-0.4,0.1-0.5,0.2c-0.1,0.2-0.2,0.4-0.2,0.6s0.1,0.4,0.2,0.6  c0.2,0.2,0.3,0.2,0.5,0.2c0.2,0,0.4-0.1,0.5-0.2c0.1-0.2,0.2-0.4,0.2-0.6S31.7,6.1,31.6,6L31.6,6z"></path><path display="none" d="M33.6,9.2c-0.6-0.4-1.3-0.7-2.2-0.7s-1.6,0.2-2.2,0.7c-0.6,0.4-0.9,1-0.9,1.6c0,0.3,0.1,0.6,0.3,0.9  l-1.7,1.1l2.8-0.1c0,0,0,0,0.1,0l-5.3,15.6l8.7,14.6l-2.3,3.5l4.5-3.6c-0.4-0.9-0.6-1.8-0.6-2.9c0-1.6,0.4-2.9,1.3-4.1  c0.9-1.1,1.9-1.7,3.1-1.7c1.2,0,2.2,0.6,3.1,1.7c0.8,1.1,1.3,2.5,1.3,4.1l0,0l11.7-4l-4.2-7.1v6.6l-7.2,0.2l1.1-6.3l7-2.3l-4.3-8  l-5.4,2.3l0.7,4.2L38.5,28l-2.8-4.8l5.6-2.9L40,14.5l-6,2.8l2,16L30.8,27l3-17.7C33.7,9.3,33.6,9.2,33.6,9.2L33.6,9.2z M29.2,10.5  c0-0.3,0.1-0.5,0.3-0.7c0.2-0.2,0.5-0.3,0.8-0.3s0.6,0.1,0.8,0.3c0.2,0.2,0.3,0.4,0.3,0.7s-0.1,0.5-0.3,0.6  c-0.2,0.2-0.5,0.3-0.8,0.3s-0.6-0.1-0.8-0.3C29.3,10.9,29.2,10.7,29.2,10.5L29.2,10.5z M37.5,17.7c0.5,0,0.8,0.1,1.1,0.4  c0.3,0.3,0.5,0.6,0.5,1s-0.2,0.7-0.5,1c-0.3,0.3-0.7,0.4-1.1,0.4c-0.4,0-0.8-0.1-1.1-0.4c-0.3-0.3-0.5-0.6-0.5-1s0.2-0.7,0.5-1  C36.6,17.8,37,17.7,37.5,17.7L37.5,17.7z M47.4,25.4c-0.3,0.3-0.8,0.5-1.3,0.5c-0.5,0-0.9-0.2-1.3-0.5c-0.3-0.3-0.5-0.7-0.5-1.1  c0-0.4,0.2-0.8,0.5-1.1c0.3-0.3,0.8-0.5,1.3-0.5c0.5,0,0.9,0.2,1.3,0.5c0.3,0.3,0.5,0.7,0.5,1.1C47.9,24.7,47.7,25.1,47.4,25.4  L47.4,25.4z"></path><path display="none" d="M30.2,10.8c0.1-0.1,0.1-0.2,0.1-0.3c0-0.1,0-0.2-0.1-0.3c-0.1-0.1-0.2-0.1-0.2-0.1c-0.1,0-0.2,0-0.3,0.1  c-0.1,0.1-0.1,0.2-0.1,0.3c0,0.1,0,0.2,0.1,0.3c0.1,0.1,0.2,0.1,0.3,0.1C30.1,11,30.1,10.9,30.2,10.8L30.2,10.8z"></path><path display="none" d="M33,8.1c0.2,0.2,0.4,0.2,0.7,0.2c0.3,0,0.5-0.1,0.7-0.2c0.2-0.2,0.3-0.3,0.3-0.5S34.5,7.2,34.3,7  c-0.2-0.2-0.4-0.2-0.7-0.2c-0.2,0-0.5,0.1-0.7,0.2c-0.2,0.2-0.3,0.3-0.3,0.5S32.8,7.9,33,8.1L33,8.1z"></path><path display="none" d="M29.7,8.3C29.9,8.2,30,8.1,30,7.9c0-0.2,0-0.4-0.1-0.6C29.8,7.2,29.6,7,29.3,7c-0.2-0.1-0.5-0.1-0.7,0  c-0.2,0.1-0.4,0.2-0.4,0.4c-0.1,0.2,0,0.4,0.1,0.6c0.2,0.2,0.3,0.3,0.6,0.4C29.2,8.4,29.4,8.4,29.7,8.3L29.7,8.3z"></path><path display="none" d="M40.5,23.4c-0.3-0.3-0.7-0.4-1.1-0.4c-0.4,0-0.8,0.1-1.1,0.4c-0.3,0.3-0.5,0.6-0.5,1s0.2,0.7,0.5,1  c0.3,0.3,0.7,0.4,1.1,0.4c0.5,0,0.8-0.2,1.1-0.4c0.3-0.3,0.5-0.6,0.5-1S40.8,23.6,40.5,23.4L40.5,23.4z"></path><path d="M33.6,4l4-4H0l4.1,4.1l0.2,30.5h3.3V22.9h2v9.9c1.1,0,2.2,0,3.1,0v-7.6c0.6,0.4,1.3,0.7,2,1v6c1.1,0,2.2,0,3.1,0l0-5.5  c0.2,0,0.5,0,0.8,0c0.4,0,0.9,0,1.3-0.1v5.5c1.1,0,2.2,0,3.1,0v-6.3c0.7-0.3,1.4-0.7,2-1.1v8c0.9,0,1.7,0,2.5,0c0.2,0,0.4,0,0.6,0  v-9.9h2v11.7h3.3V4L33.6,4z M18.9,5.2l3.5-2.7H29c2.6,2.2,3.9,4.8,3.9,7.9c0,3.1-1.3,5.7-3.9,8c-0.1,0.1-0.2,0.1-0.3,0.2  c-0.4,0.3-0.8,0.6-1.2,0.9c-2.3,1.5-5,2.4-8.1,2.5c-0.1,0-0.2,0-0.3,0c-0.1,0-0.3,0-0.6,0c-3.2-0.1-6-0.9-8.5-2.5  c-0.4-0.3-0.8-0.6-1.2-0.9c-0.2-0.1-0.3-0.3-0.5-0.4c-2.4-2.2-3.6-4.7-3.6-7.7c0-3.1,1.3-5.7,3.9-7.9h6.8L18.9,5.2L18.9,5.2z"></path><path d="M29.2,5.5c-1.1-1.1-2.5-1.7-4.1-1.7s-3,0.6-4.2,1.7c-0.2,0.2-0.5,0.5-0.7,0.8c-0.7,1-1,2.1-1,3.4c0,0.9,0.2,1.8,0.6,2.6  h-1.9c0.4-0.8,0.6-1.7,0.6-2.6c0-1.2-0.3-2.4-1-3.3C17.2,6,17,5.7,16.7,5.5c-1.2-1.1-2.6-1.7-4.2-1.7s-3,0.6-4.1,1.7  C7.3,6.6,6.7,8,6.7,9.6c0,1.6,0.6,3,1.7,4.1c1.1,1.1,2.5,1.7,4.1,1.7c1.4,0,2.7-0.4,3.7-1.3l0,0l2.5,2.5l2.5-2.5l0,0  c1.1,0.9,2.3,1.3,3.7,1.3c1.6,0,3-0.6,4.1-1.7c1.2-1.1,1.7-2.5,1.7-4.1C30.9,8,30.4,6.6,29.2,5.5L29.2,5.5z M25,12  c-0.1,0-0.2-0.1-0.3-0.4c-0.1-0.2-0.1-0.5-0.1-0.9c0-0.3,0-0.6,0.1-0.9c0.1-0.2,0.2-0.3,0.3-0.3s0.2,0.1,0.3,0.3  c0.1,0.2,0.1,0.5,0.1,0.9c0,0.3,0,0.6-0.1,0.9C25.2,11.9,25.1,12,25,12L25,12z M27.2,10.3c0-1-0.2-1.8-0.7-2.5c-0.4-0.7-0.9-1-1.5-1  c1.1,0,2,0.4,2.7,1.2c0.8,0.8,1.2,1.8,1.2,2.9c0,1.1-0.4,2.1-1.2,2.9c-0.8,0.8-1.7,1.2-2.8,1.2c-1.1,0-2-0.4-2.8-1.2  c-0.8-0.8-1.1-1.8-1.1-2.9c0-1.1,0.4-2.1,1.1-2.9C23,7.2,23.9,6.8,25,6.8c-0.6,0-1.1,0.4-1.5,1c-0.4,0.7-0.6,1.5-0.6,2.5  c0,1,0.2,1.8,0.6,2.5c0.4,0.7,1,1,1.6,1s1.1-0.3,1.5-1C27,12.1,27.2,11.3,27.2,10.3L27.2,10.3z M13,9.9c0.1,0.2,0.1,0.5,0.1,0.9  c0,0.3,0,0.6-0.1,0.9c-0.1,0.2-0.2,0.4-0.3,0.4c-0.1,0-0.2-0.1-0.3-0.4c-0.1-0.2-0.1-0.5-0.1-0.9c0-0.3,0-0.6,0.1-0.9  c0.1-0.2,0.2-0.3,0.3-0.3C12.8,9.5,12.9,9.6,13,9.9L13,9.9z M14.8,10.3c0-1-0.2-1.8-0.6-2.5c-0.4-0.7-0.9-1-1.5-1c1,0,2,0.4,2.7,1.2  c0.8,0.8,1.1,1.8,1.1,2.9c0,1.1-0.4,2.1-1.1,2.9c-0.8,0.8-1.7,1.2-2.8,1.2s-2-0.4-2.8-1.2c-0.8-0.8-1.2-1.8-1.2-2.9  C8.6,9.8,9,8.8,9.8,8c0.8-0.8,1.7-1.2,2.8-1.2c-0.6,0-1.1,0.3-1.5,1c-0.4,0.7-0.7,1.5-0.7,2.5c0,1,0.2,1.8,0.7,2.5  c0.4,0.7,0.9,1,1.5,1c0.6,0,1.1-0.3,1.6-1C14.6,12.1,14.8,11.3,14.8,10.3L14.8,10.3z"></path></svg>