<svg xmlns="http://www.w3.org/2000/svg" xmlns:xlink="http://www.w3.org/1999/xlink" version="1.1" x="0px" y="0px" viewBox="0 0 90 90" enable-background="new 0 0 90 90" xml:space="preserve"><g><path d="M33.775,20.355c-3.988,0-7.231,3.244-7.231,7.232s3.244,7.232,7.231,7.232s7.232-3.244,7.232-7.232   S37.763,20.355,33.775,20.355z M33.775,33.445c-3.229,0-5.857-2.628-5.857-5.858c0-3.229,2.628-5.857,5.857-5.857   c3.23,0,5.857,2.628,5.857,5.857C39.633,30.817,37.006,33.445,33.775,33.445z"></path><circle cx="33.775" cy="27.587" r="4.132"></circle><path d="M66.902,9.423c-0.326-0.124-0.696-0.031-0.927,0.232l-2.19,2.495l-1.692-2.053c-0.226-0.273-0.599-0.376-0.932-0.256   s-0.556,0.436-0.556,0.791v3.386c-1.93-0.647-6.327-1.622-15.312-1.622c-0.099,0-0.195,0-0.293,0c-0.098,0-0.194,0-0.293,0   c-8.985,0-13.382,0.975-15.312,1.622v-3.386c0-0.354-0.222-0.671-0.556-0.791c-0.334-0.12-0.707-0.017-0.933,0.256l-1.691,2.053   l-2.191-2.495c-0.23-0.263-0.6-0.355-0.927-0.232c-0.328,0.123-0.543,0.436-0.543,0.786v38.592c0,0.006,0,0.012,0,0.018   c0.006,0.258,0.193,6.368,5.033,12.534c2.83,3.605,6.67,6.474,11.413,8.526c0.801,0.347,1.629,0.67,2.481,0.97   c-3.846,0.782-8.1,1.18-12.724,1.18c-0.315,0-0.603,0.176-0.747,0.456s-0.119,0.616,0.063,0.873   c0.145,0.202,3.388,4.617,10.473,4.617c0.391,0,0.794-0.014,1.208-0.042c0.575,0.938,2.039,2.698,4.951,2.698   c0.186,0,0.393,0,0.587,0c2.912,0,4.377-1.76,4.951-2.698c0.414,0.028,0.817,0.042,1.209,0.042c7.084,0,10.328-4.415,10.472-4.617   c0.184-0.257,0.208-0.593,0.064-0.873s-0.433-0.456-0.747-0.456c-4.624,0-8.877-0.397-12.723-1.18c0.853-0.3,1.68-0.623,2.48-0.97   c4.744-2.053,8.584-4.921,11.413-8.526c4.841-6.166,5.027-12.276,5.033-12.534c0-0.006,0-0.012,0-0.018V10.209   C67.446,9.859,67.23,9.546,66.902,9.423z M28.97,60.394c-4.472-5.646-4.728-11.386-4.737-11.604V35.792   c1.312,0.991,3.869,3.184,6.402,6.844c3.236,4.676,7.076,12.745,7.288,24.862C34.27,65.665,31.262,63.29,28.97,60.394z    M39.852,76.239c-4.617,0.373-7.575-1.293-9.116-2.555c3.733-0.091,9.563-1.067,12.478-1.596L39.852,76.239z M45.293,78.95   c-0.197,0-0.39,0-0.587,0c-2.33,0-3.345-1.552-3.614-2.06L45,72.067l3.908,4.823C48.639,77.398,47.624,78.95,45.293,78.95z    M59.265,73.685c-1.541,1.262-4.499,2.928-9.115,2.555l-3.362-4.15C49.702,72.617,55.53,73.594,59.265,73.685z M50.695,68.152   c-1.679,0.747-5.401,1.923-5.401,1.923L45,70.181l-0.293-0.105c0,0-3.723-1.176-5.402-1.923c-0.01-1.478-0.07-2.901-0.178-4.267   l1.551,1.098c0.238,0.169,0.556,0.169,0.794,0L45,62.486l3.528,2.497c0.238,0.169,0.557,0.169,0.794,0l1.551-1.098   C50.765,65.251,50.706,66.675,50.695,68.152z M48.925,63.58l-3.528-2.496C45.278,61,45.139,60.958,45,60.958   S44.722,61,44.603,61.084l-3.528,2.496l-2.122-1.502c-0.26-2.313-0.648-4.458-1.131-6.436l2.856,2.022   c0.238,0.169,0.556,0.169,0.794,0L45,55.169l3.528,2.496c0.238,0.169,0.557,0.169,0.794,0l2.857-2.022   c-0.484,1.978-0.873,4.122-1.132,6.436L48.925,63.58z M65.767,48.789c-0.008,0.219-0.265,5.958-4.736,11.604   c-2.293,2.896-5.3,5.271-8.954,7.104c0.213-12.117,4.053-20.187,7.289-24.862c2.533-3.66,5.09-5.854,6.401-6.844V48.789z    M65.767,34.104c-0.826,0.54-4.144,2.878-7.485,7.683c-1.913,2.751-4.028,6.638-5.539,11.776l-3.817,2.7l-3.528-2.496   C45.278,53.682,45.139,53.64,45,53.64s-0.278,0.042-0.397,0.127l-3.528,2.496l-3.817-2.701c-1.51-5.137-3.625-9.024-5.539-11.775   c-3.341-4.804-6.658-7.143-7.486-7.683V12.438L25.604,14c0.163,0.185,0.399,0.292,0.645,0.286c0.246-0.004,0.479-0.116,0.635-0.306   l0.832-1.009v2.305c0,0.31,0.164,0.597,0.436,0.744c0.272,0.147,0.597,0.136,0.854-0.035c0.032-0.019,3.259-1.91,15.701-1.91   c0.1,0,0.196,0,0.293,0.001c0.098,0,0.195-0.001,0.293-0.001c12.443,0,15.67,1.891,15.701,1.91c0.259,0.17,0.583,0.182,0.854,0.035   c0.272-0.146,0.437-0.434,0.437-0.744v-2.305l0.831,1.009c0.157,0.19,0.39,0.302,0.636,0.306c0.245,0.006,0.482-0.101,0.645-0.286   l1.37-1.562V34.104z"></path><path d="M56.225,20.355c-3.988,0-7.231,3.244-7.231,7.232s3.243,7.232,7.231,7.232c3.987,0,7.231-3.244,7.231-7.232   S60.212,20.355,56.225,20.355z M56.225,33.445c-3.229,0-5.857-2.628-5.857-5.858c0-3.229,2.628-5.857,5.857-5.857   c3.23,0,5.857,2.628,5.857,5.857C62.082,30.817,59.455,33.445,56.225,33.445z"></path><circle cx="56.225" cy="27.587" r="4.132"></circle><path d="M45.28,29.986c-0.089-0.04-0.184-0.06-0.28-0.06c-0.095,0-0.191,0.02-0.28,0.06c-0.445,0.199-4.347,2.02-4.347,4.568   s3.902,4.369,4.347,4.568c0.089,0.04,0.185,0.06,0.28,0.06c0.096,0,0.191-0.02,0.28-0.06c0.445-0.199,4.348-2.02,4.348-4.568   S45.726,30.185,45.28,29.986z M45,31.374c0.887,0.446,2.514,1.44,3.065,2.493H45h-3.065C42.486,32.814,44.113,31.82,45,31.374z    M45.001,37.733L45.001,37.733L45.001,37.733c-0.889-0.444-2.517-1.438-3.067-2.493H45h3.066   C47.517,36.296,45.889,37.289,45.001,37.733z"></path></g></svg>