<svg xmlns="http://www.w3.org/2000/svg" xmlns:xlink="http://www.w3.org/1999/xlink" version="1.1" x="0px" y="0px" viewBox="0 0 90 90" enable-background="new 0 0 90 90" xml:space="preserve"><path d="M71.812,17.412c-12.484-9.988-27.824-7.037-27.824-7.037s-15.34-2.951-27.825,7.037C3.679,27.4,5.154,38.296,5.154,44.084  S7.568,76.928,27.626,78.36c6.997,0.499,16.359,0.436,16.359,0.436s9.368,0.063,16.364-0.436  c20.059-1.433,22.473-28.488,22.473-34.276S84.298,27.4,71.812,17.412z M67.198,72.686c0,0-5.505,4.313-23.21,4.313  c-17.706,0-23.209-4.313-23.209-4.313C7.538,60.428,8.294,48.321,8.294,36.896s13.317-21.943,21.413-21.943  c8.097,0,14.281,6.432,14.281,6.432s6.184-6.432,14.28-6.432s21.414,10.518,21.414,21.943S80.438,60.428,67.198,72.686z"></path><path d="M33.202,37.766c0,0-2.497-4.351-6.999-0.378l0.605,0.34c0,0-2.119,5.562,3.859,6.772c0,0,2.762-0.19,4.01-1.287  C34.678,43.214,35.169,39.922,33.202,37.766z"></path><path d="M55.086,37.766c0,0,2.498-4.351,6.999-0.378l-0.604,0.34c0,0,2.118,5.562-3.859,6.772c0,0-2.763-0.19-4.01-1.287  C53.611,43.214,53.118,39.922,55.086,37.766z"></path><g><path d="M44.145,55.405l0.36-1.077l0.331,1.021l0.586-0.775l-0.142,1.146l0.454-1.04l0.17,1.257l0.814-0.35l0.198,1.125   l0.595-0.482l-0.113,1.505l1.674-0.975l-0.684,1.572c-0.697,1.82-1.842,4.814-2.2,5.843c-0.529,1.513-1.178,5.675-2.123,5.675   c-0.946,0-1.594-4.162-2.124-5.675c-0.359-1.028-1.503-4.022-2.201-5.843l-0.684-1.572l1.673,0.975l-0.113-1.505l0.596,0.482   l0.199-1.125l0.814,0.35l0.17-1.257l0.454,1.04l-0.142-1.146l0.586,0.775l0.331-1.021l0.36,1.077"></path></g></svg>