<svg xmlns="http://www.w3.org/2000/svg" xmlns:xlink="http://www.w3.org/1999/xlink" version="1.1" x="0px" y="0px" viewBox="0 0 100 100" enable-background="new 0 0 100 100" xml:space="preserve"><g><circle cx="60.849" cy="25.961" r="5.874"></circle><ellipse transform="matrix(0.1163 0.9932 -0.9932 0.1163 70.9387 -18.0984)" cx="45.64" cy="30.817" rx="3.349" ry="2.014"></ellipse><path d="M88.512,44.456c0.401-6.263-0.466-18.338-3.345-25.058C79.725,6.692,68.979,4.666,63.072,4.666   c-7.711,0-17.432,5.882-20.17,15.757c2.485,0.584,4.776,2.18,5.814,4.767c0.649-1.674,1.113-3.356,1.915-4.857   c2.927-5.477,9.022-8.125,14.565-6.454c5.434,1.638,9.167,7.028,8.651,12.491c-0.574,6.086-5.304,10.745-11.765,11.155   c-4.505,0.286-9.259,0.99-10.731,6.894c-2.451-3.22-3.114-5.539-3.441-7.205c-8.556,4.29-16.4,7.648-22.97,14.946   c-4.801,5.333-8.348,11.684-10.696,18.448c-1.331,3.833-1.901,7.93-2.934,12.41c25.592,2.187,43.341-8.582,56.046-29.157   C62.89,70.458,48.974,78.95,34.832,84.732c0.758,0.509,5.798,1.367,5.798,1.367s2.451,4.053,2.811,4.612   c-3.083,0.257-3.808,3.066-3.7,3.484h8.942c-0.005-0.005-0.01-0.011-0.015-0.016c6.862,0,11.736,0,18.332,0   c0.17-0.418-2.56-3.595-4.535-3.467c-4.458,0.287-5.713-2.416-7.494-5.757c17.46-5.602,28.498-14.327,29.157-22.44   c-1.848-0.788-3.32-0.922-5.847-1.14c1.766-0.932,5.219-1.309,6.831-0.844c0.003-0.008,1.932-3.791,0.664-5.566   c-1.268-1.775-5.375-1.268-7.686-0.974c3.047-1.373,4.187-2.169,9.285-1.004c1.228-3.954,1.062-5.074-1.146-6.82   c-2.165-1.712-6.639-0.985-8.602-0.781C80.859,43.458,84.305,42.775,88.512,44.456z M48.744,90.711l-3.357-4.612l5.672-0.463   l3.408,5.075H48.744z"></path></g></svg>