<svg xmlns="http://www.w3.org/2000/svg" xmlns:xlink="http://www.w3.org/1999/xlink" version="1.1" x="0px" y="0px" viewBox="0 0 100 100" enable-background="new 0 0 100 100" xml:space="preserve"><text transform="matrix(1 0 0 1 7.3078 109.1213)" fill="#000000" font-family="'HelveticaNeue-Bold'" font-size="3.769">Created by Daniel Sartório</text><text transform="matrix(1 0 0 1 7.3078 112.8909)" fill="#000000" font-family="'HelveticaNeue-Bold'" font-size="3.769">from the Noun Project</text><g><path fill="#000000" d="M39.431,42.554v-0.499l-2.633,0v-2.633h-0.499c-1.727,0-3.132,1.405-3.132,3.132   c0,1.727,1.405,3.132,3.132,3.132S39.431,44.281,39.431,42.554z"></path><path fill="#000000" d="M64.57,39.422l-0.499,0c-1.727,0-3.132,1.405-3.132,3.132c0,1.727,1.405,3.132,3.132,3.132   s3.132-1.405,3.132-3.132v-0.499H64.57V39.422z"></path><path fill="#000000" d="M83.317,55.463c-0.023-1.845-0.261-4.057-0.91-6.581l-0.056-0.218c-0.252-3.276-1.349-6.664-3.267-10.093   c-0.177-0.338-0.375-0.679-0.596-1.023c-0.014-0.023-0.028-0.046-0.042-0.07c-1.776-2.917-3.614-4.98-4.357-5.766   c6.95-7.573,6.334-12.393,6.22-13.006l-0.016-0.689l-0.662,0.257c-7.592,2.949-15.378,4.786-23.143,5.459   c-6.212,0.539-12.426,0.338-18.467-0.597c-10.293-1.592-16.6-4.808-16.662-4.84L20.65,17.93l-0.018,0.777   c-0.114,0.613-0.73,5.433,6.22,13.006c-0.658,0.696-2.177,2.396-3.754,4.809c-1.895,2.9-4.216,7.407-4.528,12.426   c-0.478,1.872-0.768,3.729-0.861,5.528l-0.032,0.331c-0.239,2.517-0.018,4.385,0.001,4.536c0.037,0.367,0.737,6.811,5.027,13.239   c2.545,3.814,5.83,6.811,9.762,8.91c4.899,2.616,10.816,3.829,17.585,3.609h0.838c0.522,0.017,1.038,0.026,1.549,0.026   c6.125,0,11.514-1.22,16.035-3.634c3.932-2.099,7.216-5.097,9.762-8.91c4.291-6.429,4.991-12.874,5.027-13.239   C83.281,59.206,83.465,57.643,83.317,55.463z M79.437,68.47c-0.205-0.232-0.386-0.484-0.54-0.754   c0.139-0.101,0.275-0.207,0.407-0.32c0.126-0.107,0.248-0.221,0.368-0.339c0.07,0.138,0.148,0.271,0.234,0.398   C79.759,67.789,79.603,68.128,79.437,68.47z M74.671,68.019c0,0-0.001,0-0.001,0c-3.486,0-7.391-2.197-10.052-4.04   c-2.262-1.566-4.282-3.626-6.003-6.124c-1.383-2.007-2.578-4.3-3.551-6.814c-0.484-1.25-0.864-2.432-1.161-3.481l0.826-0.128   l-0.071-0.488c-0.058-0.399-0.125-0.775-0.2-1.128c5.482,6.402,13.284,13.053,19.238,13.053c0.985,0,1.904-0.183,2.73-0.544   c3.25-1.419,4.61-3.881,5.18-5.696c0.126-0.4,0.218-0.784,0.287-1.145c0.197,1.148,0.317,2.282,0.359,3.391l0.018,0.48h0.037   c0.058,3.767-0.813,5.965-0.825,5.996l-0.014,0.034l-0.009,0.036c-0.586,2.374-1.529,4.129-2.803,5.217   C77.583,67.554,76.243,68.019,74.671,68.019z M45.983,51.016c-0.973,2.519-2.168,4.815-3.552,6.826   c-1.723,2.504-3.746,4.569-6.012,6.137c-4.823,3.339-8.129,4.04-10.052,4.04c-1.572,0-2.913-0.465-3.986-1.381   c-1.274-1.088-2.217-2.843-2.803-5.216l-0.009-0.036l-0.014-0.034c-0.017-0.042-1.526-3.809-0.438-10.007   c0.072,0.4,0.173,0.832,0.314,1.284c0.569,1.815,1.93,4.277,5.18,5.696c0.827,0.361,1.745,0.544,2.73,0.544   c5.908,0,13.635-6.548,19.113-12.907c-0.063,0.311-0.12,0.637-0.17,0.982l-0.071,0.488l0.918,0.143   C46.836,48.611,46.46,49.78,45.983,51.016z M20.981,67.328c0.085-0.137,0.161-0.281,0.227-0.43   c0.169,0.177,0.344,0.344,0.525,0.498c0.08,0.068,0.161,0.134,0.243,0.198c-0.147,0.276-0.322,0.535-0.521,0.773   C21.288,68.016,21.13,67.67,20.981,67.328z M78.869,44.162c-1.088,3.278-5.114,4.915-5.431,5.039   c-1.461,0.389-2.966,0.586-4.473,0.586c-2.12,0-4.12-0.391-5.928-0.977c1.694,0.786,3.28,1.38,4.751,1.778   c0.258,0.07,0.512,0.133,0.764,0.191c2.852,0.656,5.247,0.539,7.125-0.353c4.002-1.899,4.399-6.75,4.402-6.799l0.202,0.015   c0.189,0.555,0.355,1.108,0.496,1.658c-0.111,0.417-0.261,0.891-0.466,1.392c-0.876,2.142-2.33,3.745-4.207,4.635   c-1.217,0.577-2.613,0.866-4.176,0.866c-1.346,0-2.815-0.214-4.4-0.643c-1.505-0.407-3.123-1.011-4.846-1.807   c-2.589-1.196-5.416-2.827-8.459-4.881c-0.177-0.619-0.38-1.155-0.598-1.62c-0.203-0.434-0.42-0.805-0.64-1.123   c0.013-0.011,0.025-0.022,0.038-0.034c3.716-2.055,7.312-3.543,10.694-4.421c2.774-0.72,5.411-1.035,7.835-0.935   c3.642,0.15,5.711,1.203,6.155,1.453c0.171,0.285,0.337,0.57,0.496,0.854C79.162,40.877,79.388,42.598,78.869,44.162z    M76.545,36.597c-1.107-0.377-2.725-0.764-4.861-0.861c-2.528-0.115-5.271,0.203-8.15,0.945c-2.309,0.595-4.713,1.467-7.183,2.6   c5.098-3.992,9.538-6.011,13.239-6.011C72.321,33.271,74.654,34.389,76.545,36.597z M53.594,46.598l-3.124,0.486l-3.123-0.486   c0.259-1.482,0.791-3.311,1.883-4.481c0.557-0.598,1.048-0.797,1.24-0.856c0.179,0.057,0.647,0.245,1.175,0.787   C52.3,42.72,53.15,44.048,53.594,46.598z M44.042,38.992c-2.244-0.993-4.431-1.767-6.539-2.31c-2.88-0.742-5.621-1.06-8.15-0.945   c-2.145,0.097-3.769,0.488-4.876,0.866c1.882-2.238,4.13-3.332,6.832-3.332C34.848,33.271,39.117,35.192,44.042,38.992z    M20.671,43.638l0.16-0.012c0.004,0.049,0.414,4.914,4.411,6.803c1.876,0.887,4.265,1.004,7.11,0.35   c0.256-0.059,0.516-0.123,0.779-0.195c1.43-0.387,2.969-0.961,4.61-1.714c-1.735,0.551-3.649,0.916-5.683,0.916   c-1.499,0-2.999-0.197-4.46-0.586c-0.32-0.125-4.343-1.762-5.431-5.039c-0.598-1.803-0.208-3.813,1.158-5.977   c0.433-0.245,2.505-1.306,6.16-1.456c2.424-0.099,5.061,0.215,7.835,0.935c3.166,0.822,6.519,2.179,9.983,4.034   c0.194,0.172,0.388,0.346,0.584,0.522c-0.185,0.277-0.366,0.593-0.538,0.952c-0.038,0.035-0.077,0.071-0.118,0.107   c0.033-0.023,0.067-0.047,0.1-0.07c-0.221,0.466-0.426,1.004-0.606,1.626c-3.11,2.101-5.994,3.762-8.63,4.968   c-1.674,0.766-3.248,1.35-4.715,1.747c-1.585,0.429-3.055,0.643-4.401,0.643c-1.563,0-2.959-0.289-4.176-0.866   c-1.877-0.89-3.332-2.493-4.207-4.635c-0.193-0.472-0.337-0.92-0.446-1.319C20.305,44.78,20.479,44.202,20.671,43.638z    M37.824,24.115c6.124,0.951,12.423,1.158,18.72,0.614c7.59-0.655,15.198-2.408,22.628-5.212c-0.174,0.608-0.565,1.533-1.441,2.624   c-2.671,3.329-7.675,5.579-11.402,6.88c-3.892,1.359-9.315,3.835-13.049,7.914c-1.274,1.392-2.012,2.599-2.419,3.405   c-0.177-0.063-0.29-0.084-0.313-0.087l-0.078-0.012l-0.078,0.012c-0.023,0.004-0.137,0.024-0.313,0.087   c-0.406-0.805-1.144-2.013-2.419-3.405c-3.734-4.079-9.157-6.555-13.049-7.914c-6.753-2.358-9.928-5.043-11.402-6.88   c-0.837-1.043-1.23-1.933-1.416-2.54C23.899,20.544,29.62,22.841,37.824,24.115z M67.369,80.942   c-0.297-0.319-0.55-0.68-0.749-1.074c-0.678,1.346-1.984,2.311-3.523,2.494c0.011,0.09,0.027,0.179,0.045,0.267   c-0.407,0.126-0.819,0.243-1.236,0.353c0.062-0.199,0.107-0.406,0.133-0.619c-1.542-0.181-2.852-1.148-3.53-2.495   c-0.678,1.346-1.984,2.311-3.523,2.494c0.077,0.611,0.304,1.174,0.64,1.652c-0.792,0.06-1.599,0.097-2.42,0.111   c0.381-0.5,0.639-1.103,0.722-1.761c-1.542-0.181-2.852-1.148-3.53-2.495c-0.678,1.346-1.984,2.311-3.523,2.494   c0.083,0.658,0.34,1.261,0.72,1.76c-0.818-0.017-1.622-0.057-2.411-0.119c0.333-0.475,0.557-1.034,0.633-1.64   c-1.542-0.181-2.852-1.148-3.53-2.495c-0.678,1.346-1.984,2.311-3.523,2.494c0.025,0.199,0.066,0.393,0.122,0.58   c-0.411-0.11-0.816-0.228-1.216-0.353c0.014-0.075,0.027-0.15,0.037-0.226c-1.542-0.181-2.852-1.148-3.53-2.495   c-0.188,0.374-0.427,0.718-0.704,1.025c-0.172-0.087-0.344-0.175-0.513-0.265c-0.135-0.072-0.269-0.145-0.402-0.219   c0.583-0.561,0.982-1.32,1.09-2.172c-1.539-0.183-2.845-1.149-3.523-2.494c-0.381,0.756-0.96,1.391-1.667,1.835   c-0.267-0.226-0.53-0.458-0.788-0.696c1.05-0.543,1.803-1.601,1.935-2.848c-1.546-0.175-2.859-1.128-3.54-2.456   c-0.369,0.72-0.923,1.329-1.6,1.764c-0.2-0.265-0.395-0.534-0.586-0.808c0.885-0.55,1.513-1.476,1.656-2.554   c-1.475-0.173-2.736-1.054-3.435-2.294c0.991,0.734,2.149,1.166,3.457,1.291c0.167,0.024,0.338,0.038,0.512,0.038   c0.038,0,0.076-0.001,0.114-0.002c0.061,0.001,0.122,0.003,0.184,0.003c0,0,0,0,0,0c0.988,0,2-0.161,3.007-0.432   c-0.717,0.757-1.689,1.27-2.778,1.396c0.231,1.74,1.723,3.086,3.525,3.086c1.802,0,3.294-1.347,3.525-3.087   c-1.255-0.147-2.353-0.808-3.084-1.764c0.33-0.116,0.657-0.242,0.982-0.376c0.651,0.721,1.591,1.175,2.636,1.175   c1.803,0,3.296-1.349,3.525-3.09c-0.584-0.068-1.134-0.247-1.63-0.515c0.316-0.205,0.621-0.41,0.911-0.61   c0.021-0.014,0.041-0.029,0.062-0.044c0.37,0.131,0.769,0.204,1.184,0.204c1.802,0,3.294-1.347,3.525-3.087   c-0.375-0.044-0.737-0.135-1.079-0.265c0.248-0.263,0.492-0.534,0.731-0.811c0.282,0.072,0.577,0.111,0.882,0.111   c1.803,0,3.296-1.349,3.525-3.09c-0.636-0.073-1.241-0.279-1.786-0.601c0.174-0.28,0.344-0.565,0.512-0.855   c0.54,0.318,1.157,0.489,1.801,0.489c1.802,0,3.294-1.347,3.525-3.087c-1.014-0.118-1.953-0.569-2.686-1.302   c-0.176-0.176-0.334-0.365-0.476-0.563c0.07-0.174,0.139-0.349,0.207-0.525c0.087-0.224,0.169-0.445,0.249-0.664   c0.174,0.385,0.417,0.74,0.725,1.047c0.672,0.672,1.565,1.042,2.515,1.042c1.555,0,2.879-1.004,3.361-2.397   c0.113,0.318,0.234,0.643,0.361,0.972c0.04,0.102,0.08,0.204,0.12,0.305c-0.719,1.13-1.922,1.924-3.315,2.085   c0.231,1.74,1.723,3.086,3.525,3.086c0.731,0,1.411-0.223,1.977-0.603c0.166,0.29,0.336,0.577,0.509,0.858   c-0.574,0.376-1.238,0.626-1.952,0.71c0.229,1.742,1.722,3.091,3.525,3.091c0.372,0,0.73-0.058,1.067-0.165   c0.234,0.272,0.472,0.538,0.714,0.796c-0.393,0.168-0.814,0.283-1.254,0.334c0.231,1.739,1.723,3.086,3.525,3.086   c0.474,0,0.926-0.095,1.34-0.264c0.049,0.034,0.097,0.07,0.146,0.104c0.256,0.177,0.523,0.357,0.799,0.538   c-0.526,0.307-1.118,0.512-1.751,0.587c0.229,1.742,1.722,3.091,3.525,3.091c1.079,0,2.046-0.484,2.699-1.246   c0.32,0.135,0.643,0.262,0.968,0.381c-0.731,0.994-1.854,1.682-3.14,1.831c0.231,1.74,1.723,3.086,3.525,3.086   c1.802,0,3.294-1.347,3.525-3.087c-1.128-0.133-2.131-0.679-2.853-1.483c1.11,0.324,2.231,0.52,3.322,0.52c0,0,0.001,0,0.001,0   c1.461,0,2.756-0.354,3.862-1.053c-0.724,1.094-1.906,1.859-3.272,2.017c0.149,1.119,0.819,2.074,1.758,2.614   c-0.193,0.274-0.389,0.543-0.59,0.808c-0.721-0.438-1.313-1.071-1.699-1.825c-0.679,1.327-1.989,2.278-3.532,2.455   c0.136,1.282,0.927,2.366,2.024,2.894c-0.261,0.239-0.527,0.472-0.797,0.699c-0.743-0.446-1.352-1.1-1.747-1.884   c-0.679,1.348-1.988,2.314-3.53,2.495c0.112,0.877,0.531,1.656,1.144,2.222c-0.096,0.053-0.192,0.105-0.288,0.157   C67.795,80.727,67.583,80.835,67.369,80.942z"></path><path fill="#000000" d="M54.454,73.066c1.802,0,3.294-1.347,3.525-3.087c-1.538-0.181-2.844-1.131-3.521-2.454   c-0.679,1.326-1.987,2.276-3.529,2.455C51.16,71.72,52.652,73.066,54.454,73.066z"></path><path fill="#000000" d="M54.987,65.924c0.229,1.742,1.722,3.091,3.525,3.091c1.803,0,3.296-1.349,3.525-3.09   c-1.542-0.178-2.851-1.129-3.529-2.455C57.832,64.793,56.526,65.743,54.987,65.924z"></path><path fill="#000000" d="M53.938,74.033c-1.546-0.175-2.859-1.128-3.539-2.456c-0.679,1.327-1.989,2.278-3.532,2.455   c0.192,1.818,1.705,3.239,3.536,3.239C52.233,77.271,53.745,75.851,53.938,74.033z"></path><path fill="#000000" d="M50.929,61.873c0.231,1.739,1.723,3.086,3.525,3.086c1.802,0,3.294-1.347,3.525-3.087   c-1.538-0.181-2.844-1.131-3.521-2.454C53.779,60.743,52.47,61.694,50.929,61.873z"></path><path fill="#000000" d="M46.346,67.525c-0.679,1.326-1.987,2.276-3.529,2.455c0.231,1.74,1.723,3.086,3.525,3.086   c1.802,0,3.294-1.347,3.525-3.087C48.329,69.799,47.024,68.849,46.346,67.525z"></path><path fill="#000000" d="M45.826,74.033c-1.546-0.175-2.859-1.128-3.54-2.456c-0.679,1.327-1.989,2.278-3.532,2.455   c0.192,1.818,1.705,3.239,3.536,3.239C44.122,77.271,45.634,75.851,45.826,74.033z"></path><path fill="#000000" d="M37.715,74.033c-1.546-0.175-2.859-1.128-3.54-2.456c-0.679,1.327-1.989,2.278-3.532,2.455   c0.192,1.818,1.705,3.239,3.536,3.239C36.011,77.271,37.522,75.851,37.715,74.033z"></path><path fill="#000000" d="M38.231,73.066c1.802,0,3.294-1.347,3.525-3.087c-1.538-0.181-2.844-1.131-3.521-2.454   c-0.679,1.326-1.987,2.276-3.529,2.455C34.938,71.72,36.43,73.066,38.231,73.066z"></path><path fill="#000000" d="M50.402,60.907c1.803,0,3.296-1.349,3.525-3.09c-1.542-0.178-2.851-1.129-3.529-2.455   c-0.678,1.324-1.983,2.274-3.522,2.454C47.105,59.558,48.599,60.907,50.402,60.907z"></path><path fill="#000000" d="M53.927,65.925c-1.542-0.178-2.851-1.129-3.529-2.455c-0.678,1.324-1.983,2.274-3.522,2.454   c0.229,1.742,1.722,3.091,3.525,3.091C52.205,69.015,53.698,67.666,53.927,65.925z"></path><path fill="#000000" d="M42.291,69.015c1.803,0,3.296-1.349,3.525-3.09c-1.542-0.178-2.851-1.129-3.529-2.455   c-0.678,1.324-1.983,2.274-3.522,2.454C38.994,67.665,40.487,69.015,42.291,69.015z"></path><path fill="#000000" d="M46.342,64.959c1.802,0,3.294-1.347,3.525-3.087c-1.538-0.181-2.844-1.131-3.521-2.454   c-0.679,1.326-1.987,2.276-3.529,2.455C43.049,63.612,44.541,64.959,46.342,64.959z"></path><path fill="#000000" d="M62.568,75.741c-0.679,1.348-1.988,2.314-3.53,2.495c0.227,1.781,1.721,3.161,3.526,3.161   c1.805,0,3.3-1.381,3.526-3.162C64.552,78.052,63.246,77.087,62.568,75.741z"></path><path fill="#000000" d="M46.346,75.741c-0.679,1.348-1.988,2.314-3.53,2.495c0.227,1.781,1.721,3.161,3.526,3.161   c1.805,0,3.3-1.381,3.526-3.162C48.33,78.052,47.024,77.087,46.346,75.741z"></path><path fill="#000000" d="M54.457,75.741c-0.679,1.348-1.988,2.314-3.53,2.495c0.227,1.781,1.721,3.161,3.526,3.161   c1.805,0,3.3-1.381,3.526-3.162C56.441,78.052,55.135,77.087,54.457,75.741z"></path><path fill="#000000" d="M59.04,69.98c0.231,1.74,1.723,3.086,3.525,3.086c1.802,0,3.294-1.347,3.525-3.087   c-1.538-0.181-2.844-1.131-3.521-2.454C61.89,68.851,60.581,69.802,59.04,69.98z"></path><path fill="#000000" d="M70.16,74.033c-1.546-0.175-2.859-1.128-3.54-2.456c-0.679,1.327-1.989,2.278-3.532,2.455   c0.192,1.818,1.705,3.239,3.536,3.239C68.455,77.271,69.967,75.851,70.16,74.033z"></path><path fill="#000000" d="M62.049,74.033c-1.546-0.175-2.859-1.128-3.54-2.456c-0.679,1.327-1.989,2.278-3.532,2.455   c0.193,1.818,1.705,3.239,3.536,3.239C60.344,77.271,61.856,75.851,62.049,74.033z"></path><path fill="#000000" d="M38.235,75.741c-0.679,1.348-1.988,2.314-3.53,2.495c0.227,1.781,1.721,3.161,3.526,3.161   c1.805,0,3.3-1.381,3.526-3.162C40.219,78.052,38.913,77.087,38.235,75.741z"></path></g></svg>