<svg xmlns="http://www.w3.org/2000/svg" xmlns:xlink="http://www.w3.org/1999/xlink" version="1.1" x="0px" y="0px" viewBox="0 0 100 100" enable-background="new 0 0 100 100" xml:space="preserve"><g><path d="M31.388,66.128c-9.432,0-17.104-7.673-17.104-17.104s7.673-17.104,17.104-17.104s17.105,7.673,17.105,17.104   S40.819,66.128,31.388,66.128z M31.388,34.919c-7.777,0-14.104,6.327-14.104,14.104s6.327,14.104,14.104,14.104   s14.105-6.327,14.105-14.104S39.165,34.919,31.388,34.919z"></path></g><g><path d="M69.973,66.128c-9.432,0-17.105-7.673-17.105-17.104s7.674-17.104,17.105-17.104s17.104,7.673,17.104,17.104   S79.404,66.128,69.973,66.128z M69.973,34.919c-7.777,0-14.105,6.327-14.105,14.104s6.328,14.104,14.105,14.104   s14.104-6.327,14.104-14.104S77.75,34.919,69.973,34.919z"></path></g><g><path d="M50.394,91.979C25.903,91.979,5.979,73.147,5.979,50c0-5.775,1.217-11.364,3.619-16.621L7.043,8.95l16.717,7.454   c7.727-5.489,16.908-8.383,26.634-8.383c9.535,0,18.574,2.793,26.217,8.091L92.672,8.95l-2.364,22.616   C93.295,37.329,94.81,43.528,94.81,50C94.81,73.147,74.885,91.979,50.394,91.979z M11.743,15.424l1.949,18.646l-0.24,0.506   C11.147,39.444,9.979,44.633,9.979,50c0,20.942,18.13,37.979,40.416,37.979C72.68,87.979,90.81,70.942,90.81,50   c0-6.011-1.452-11.762-4.316-17.092l-0.291-0.542l1.771-16.941l-11.836,5.278l-0.936-0.685c-7.15-5.232-15.729-7.997-24.807-7.997   c-9.257,0-17.968,2.864-25.19,8.282l-0.941,0.706L11.743,15.424z"></path></g><g><polygon points="56.551,62.892 51.014,72.482 45.477,62.892  "></polygon></g><g><g><path fill="#000000" d="M40.487,54.48c3.014-5.025,1.383-11.542-3.642-14.555c-5.025-3.014-11.542-1.383-14.555,3.642    s-1.383,11.542,3.642,14.555S37.473,59.505,40.487,54.48z M31.345,43.953c1.166-1.944,3.686-2.574,5.63-1.409    c1.944,1.166,2.574,3.686,1.409,5.63c-1.166,1.944-3.686,2.574-5.63,1.409C30.81,48.417,30.18,45.896,31.345,43.953z     M24.547,51.274c0.684-1.141,2.164-1.511,3.304-0.827c1.141,0.684,1.511,2.164,0.827,3.304c-0.684,1.141-2.164,1.511-3.304,0.827    C24.233,53.894,23.863,52.415,24.547,51.274z"></path></g></g><g><g><path fill="#000000" d="M79.071,54.48c3.014-5.025,1.383-11.542-3.642-14.555c-5.025-3.014-11.542-1.383-14.555,3.642    c-3.014,5.025-1.383,11.542,3.642,14.555C69.541,61.136,76.057,59.505,79.071,54.48z M69.93,43.953    c1.166-1.944,3.686-2.574,5.63-1.409c1.944,1.166,2.574,3.686,1.409,5.63c-1.166,1.944-3.686,2.574-5.63,1.409    C69.395,48.417,68.764,45.896,69.93,43.953z M63.132,51.274c0.684-1.141,2.164-1.511,3.304-0.827    c1.141,0.684,1.511,2.164,0.827,3.304c-0.684,1.141-2.164,1.511-3.304,0.827C62.818,53.894,62.448,52.415,63.132,51.274z"></path></g></g></svg>