<svg xmlns="http://www.w3.org/2000/svg" xmlns:xlink="http://www.w3.org/1999/xlink" version="1.1" x="0px" y="0px" viewBox="0 0 100 100" enable-background="new 0 0 100 100" xml:space="preserve"><path d="M63.7,21.5c0,0.8,0.7,1.6,1.5,1.6c0.5,0,0.9-0.2,1.2-0.6c0.4,0.8,0.6,1.7,0.6,2.7c-0.1,3.3-2.8,5.8-6,5.8  c-2.9-0.1-5.2-2.2-5.7-5c2.4-2.8,5.2-4.9,8-6.4c0.4,0.2,0.8,0.4,1.2,0.6C64,20.4,63.7,20.9,63.7,21.5z M35.6,23.1  c-0.5,0-0.9-0.2-1.2-0.6c-0.4,0.8-0.6,1.7-0.6,2.7c0.1,3.3,2.8,5.8,6,5.8c2.9-0.1,5.2-2.2,5.7-5c-2.4-2.8-5.2-4.9-8-6.4  c-0.4,0.2-0.8,0.4-1.2,0.6c0.5,0.3,0.8,0.7,0.8,1.3C37.1,22.3,36.4,23,35.6,23.1z M68.1,17.6c1.6,1.7,2.6,4.1,2.6,6.7  c0,5.4-4.4,9.7-9.7,9.7c-3.5,0-6.5-1.8-8.2-4.6c-1.2,2.1-2.1,4.6-2.4,7.4c-0.4-2.8-1.2-5.3-2.4-7.4c-1.7,2.7-4.8,4.6-8.2,4.6  c-5.4,0-9.7-4.4-9.7-9.7c0-2.6,1-4.9,2.6-6.7c-0.6-0.2-1.2-0.4-1.7-0.6C29.1,19,28,21.7,28,24.6c0,6.5,5.2,11.7,11.7,11.7  c0.6,0,1.2,0,1.8-0.1c2.4,2.2,8.8,4.6,8.8,4.6s6.4-2.4,8.8-4.6c0.6,0.1,1.2,0.1,1.8,0.1c6.5,0,11.7-5.2,11.7-11.7  c0-2.9-1.1-5.6-2.9-7.7C69.3,17.1,68.7,17.3,68.1,17.6z M73.5,5c-1.1,1-2.5,2.1-5.8,3.1c-3.5,1.1-5.5,2.6-5.5,2.6  c-3.1-1.5-7-2.7-11.8-2.7c-4.8,0-8.8,1.1-11.8,2.7c0,0-1.9-1.4-5.5-2.6C29.6,7.1,28.3,6,27.2,5c0,0-3.2,6.8,2.7,8.9  c3.5,1.2,17.3,5.9,20.4,17.5c3.1-11.6,16.9-16.3,20.4-17.5C76.7,11.8,73.5,5,73.5,5z M69,36.2c-1.6,1.1-4.5,2.4-7.1,2.4  c-0.7,0-1.3-0.1-2-0.2c-2.6,2.4-9.6,5-9.6,5c-3.2,9.7,8.8,24.7,22.3,27.9C67,59.7,74.4,47.4,69,36.2z M47.7,42.4c-2.3-1-5.4-2.5-7-4  c-0.6,0.1-1.3,0.2-2,0.2c-2.6,0-5.5-1.2-7.1-2.4c-7,11.7-1.9,24.1,21.7,47.9c0,0,2.9,10.2,4.5,10.2c2.1,0,5.4-9.5,7.9-23.1  C54.1,64.6,45.6,51.7,47.7,42.4z"></path></svg>