<svg xmlns="http://www.w3.org/2000/svg" xmlns:xlink="http://www.w3.org/1999/xlink" version="1.1" x="0px" y="0px" viewBox="0 0 100 100" enable-background="new 0 0 100 100" xml:space="preserve"><path d="M50,11.486c-16.121,0-24.325,7.11-24.325,21.081c0,13.969,8.204,21.082,24.325,21.082s24.324-7.112,24.324-21.082  C74.324,18.597,66.121,11.486,50,11.486z M39.459,38.648c-4.479,0-8.108-3.63-8.108-8.108c0-4.479,3.63-8.108,8.108-8.108  s8.108,3.629,8.108,8.108S43.938,38.648,39.459,38.648z M52.789,45.526c-0.436,1.327-1.688,4.068-2.789,4.068  c-1.102,0-2.355-2.741-2.789-4.068c-0.629-1.92-0.605-3.385,0.069-4.236c0.727-0.92,1.691-1.426,2.719-1.426  c1.026,0,1.992,0.506,2.719,1.426C53.395,42.142,53.417,43.606,52.789,45.526z M60.541,38.648c-4.48,0-8.107-3.63-8.107-8.108  c0-4.479,3.627-8.108,8.107-8.108c4.479,0,8.107,3.629,8.107,8.108S65.021,38.648,60.541,38.648z"></path><circle cx="39.459" cy="30.54" r="4.634"></circle><circle cx="60.541" cy="30.54" r="4.635"></circle><path d="M72.762,19.728C75.3,15.242,73.955,9.11,70.652,5.522c-0.393-0.428-0.988-0.605-1.549-0.481  c-0.567,0.126-1.021,0.548-1.194,1.102c-0.017,0.054-1.228,3.842-4.021,6.14C68.08,14.064,70.907,16.696,72.762,19.728z"></path><path d="M36.112,12.282c-2.794-2.298-4.005-6.086-4.02-6.136c-0.171-0.555-0.624-0.979-1.191-1.107  c-0.567-0.125-1.161,0.056-1.555,0.483c-3.3,3.588-4.646,9.72-2.106,14.205C29.093,16.696,31.92,14.064,36.112,12.282z"></path><path d="M75.335,45.995c-0.106-0.3-0.38-0.509-0.696-0.534c-0.313-0.009-0.619,0.137-0.775,0.414  C69.852,53.082,61.6,56.893,50,56.893c-11.599,0-19.851-3.811-23.864-11.018c-0.153-0.277-0.455-0.423-0.774-0.414  c-0.316,0.025-0.589,0.234-0.697,0.534c-5.823,16.229-1.338,27.745,3.448,34.548C34.751,89.977,45.089,95,50,95  s15.249-5.023,21.889-14.457C76.673,73.74,81.158,62.225,75.335,45.995z M39.865,77.162c-3.136,0-5.676-1.454-5.676-3.243  c0-1.793,2.54-3.243,5.676-3.243c3.136,0,5.676,1.45,5.676,3.243C45.541,75.708,43,77.162,39.865,77.162z M60.135,77.162  c-3.135,0-5.675-1.454-5.675-3.243c0-1.793,2.54-3.243,5.675-3.243c3.137,0,5.676,1.45,5.676,3.243  C65.811,75.708,63.271,77.162,60.135,77.162z"></path></svg>