<svg xmlns="http://www.w3.org/2000/svg" xmlns:xlink="http://www.w3.org/1999/xlink" version="1.1" x="0px" y="0px" viewBox="0 0 100 100" enable-background="new 0 0 100 100" xml:space="preserve"><g><path d="M41.495,36.048c-4.63,0-8.383,3.753-8.383,8.383s3.753,8.383,8.383,8.383s8.383-3.753,8.383-8.383   S46.125,36.048,41.495,36.048z M44.498,49.209c-1.319,0-2.389-1.07-2.389-2.389c0-1.319,1.069-2.389,2.389-2.389   c1.319,0,2.389,1.069,2.389,2.389C46.887,48.139,45.817,49.209,44.498,49.209z"></path><path d="M60.34,36.048c-4.63,0-8.383,3.753-8.383,8.383s3.753,8.383,8.383,8.383c4.63,0,8.383-3.753,8.383-8.383   S64.97,36.048,60.34,36.048z M57.951,49.209c-1.319,0-2.389-1.07-2.389-2.389c0-1.319,1.07-2.389,2.389-2.389   c1.319,0,2.389,1.069,2.389,2.389C60.34,48.139,59.27,49.209,57.951,49.209z"></path><path d="M89.912,48.644c0-5.679-1.224-11.068-3.408-15.934l2.632-15.525c0.19-1.12-0.904-2.025-1.968-1.629l-10.44,3.878   c-6.873-6.074-15.9-9.767-25.793-9.767c-9.754,0-18.664,3.591-25.5,9.513l-9.756-3.624c-1.065-0.395-2.158,0.51-1.968,1.629   l2.374,14.006c-2.635,5.252-4.128,11.177-4.128,17.453c0,13.901,7.282,26.093,18.234,32.993c1.044,1.143,2.352,2.208,3.918,3.165   c0.355,0.217,0.734,0.414,1.108,0.616c-2.787,0.342-4.847,1.535-4.847,2.958c0,1.69,2.901,3.059,6.479,3.059   c3.578,0,6.479-1.37,6.479-3.059c0-0.022-0.006-0.042-0.007-0.064c2.228,0.47,4.575,0.751,6.986,0.811   c0.341,0.008,0.681,0.013,1.02,0.013c2.05,0,4.054-0.164,5.979-0.468c0.312,1.552,3.078,2.767,6.447,2.767   c3.578,0,6.479-1.37,6.479-3.059c0-1.196-1.456-2.229-3.574-2.732c0.014-0.008,0.03-0.014,0.045-0.022   c2.123-1.155,3.814-2.518,5.039-4.025C82.658,74.69,89.912,62.518,89.912,48.644z M65.621,83.634   c-4.092,2.226-9.513,3.381-15.257,3.226c-5.747-0.144-11.101-1.561-15.075-3.989c-1.794-1.096-3.191-2.333-4.161-3.65   c0.746-7.452,9.325-13.331,19.806-13.331c10.429,0,18.976,5.821,19.795,13.221C69.715,80.8,67.985,82.348,65.621,83.634z    M62.372,57.821c-3.05,0-5.855-1.024-8.103-2.744l-3.232,5.336l-3.299-5.447c-2.27,1.784-5.126,2.854-8.239,2.854   c-7.395,0-13.39-5.995-13.39-13.39s5.995-13.39,13.39-13.39c4.852,0,9.088,2.589,11.437,6.453   c2.349-3.863,6.585-6.453,11.437-6.453c7.395,0,13.39,5.995,13.39,13.39S69.767,57.821,62.372,57.821z"></path><path d="M44.596,72.512c0-0.179-0.216-0.343-0.647-0.343c-0.216,0-0.401,0.057-0.524,0.258l-1.429,2.383l-1.429-2.383   c-0.123-0.2-0.308-0.258-0.524-0.258c-0.432,0-0.648,0.165-0.648,0.343c0,0.065,0.01,0.15,0.154,0.358l1.86,2.826   c0.092,0.15,0.267,0.265,0.586,0.265c0.319,0,0.493-0.114,0.586-0.265l1.871-2.826C44.585,72.662,44.596,72.576,44.596,72.512z"></path><path d="M53.729,72.512c0-0.179-0.216-0.343-0.647-0.343c-0.216,0-0.401,0.057-0.524,0.258l-1.429,2.383l-1.429-2.383   c-0.123-0.2-0.308-0.258-0.524-0.258c-0.432,0-0.648,0.165-0.648,0.343c0,0.065,0.01,0.15,0.154,0.358l1.86,2.826   c0.092,0.15,0.267,0.265,0.586,0.265c0.319,0,0.493-0.114,0.586-0.265l1.871-2.826C53.718,72.662,53.729,72.576,53.729,72.512z"></path><path d="M62.784,72.168c-0.216,0-0.401,0.057-0.524,0.258l-1.429,2.383l-1.429-2.383c-0.123-0.2-0.308-0.258-0.524-0.258   c-0.432,0-0.648,0.165-0.648,0.343c0,0.065,0.01,0.15,0.154,0.358l1.86,2.826c0.092,0.15,0.267,0.265,0.586,0.265   c0.319,0,0.493-0.114,0.586-0.265l1.871-2.826c0.134-0.207,0.144-0.293,0.144-0.358C63.431,72.333,63.215,72.168,62.784,72.168z"></path><path d="M48.23,78.499c-0.216,0-0.401,0.057-0.524,0.258l-1.429,2.383l-1.429-2.383c-0.123-0.2-0.308-0.258-0.524-0.258   c-0.432,0-0.648,0.165-0.648,0.344c0,0.065,0.01,0.15,0.154,0.358l1.86,2.827c0.092,0.15,0.267,0.265,0.586,0.265   c0.319,0,0.493-0.114,0.586-0.265l1.871-2.827c0.134-0.207,0.144-0.293,0.144-0.358C48.877,78.664,48.661,78.499,48.23,78.499z"></path><path d="M57.933,78.499c-0.216,0-0.401,0.057-0.524,0.258l-1.429,2.383l-1.429-2.383c-0.123-0.2-0.308-0.258-0.524-0.258   c-0.432,0-0.648,0.165-0.648,0.344c0,0.065,0.01,0.15,0.154,0.358l1.86,2.827c0.092,0.15,0.267,0.265,0.586,0.265   c0.319,0,0.493-0.114,0.586-0.265l1.871-2.827c0.134-0.207,0.144-0.293,0.144-0.358C58.58,78.664,58.364,78.499,57.933,78.499z"></path></g></svg>