<svg xmlns="http://www.w3.org/2000/svg" xmlns:xlink="http://www.w3.org/1999/xlink" version="1.1" x="0px" y="0px" viewBox="0 0 100 100" enable-background="new 0 0 100 100" xml:space="preserve"><rect x="-127.255" y="657.596" fill="none" stroke="#000000" stroke-miterlimit="10" width="100" height="100"></rect><polyline fill="none" stroke="#000000" stroke-width="1.7117" stroke-linecap="round" stroke-linejoin="round" stroke-miterlimit="10" points="  44.178,85.684 44.176,95.066 40.082,95.066 "></polyline><polyline fill="none" stroke="#000000" stroke-width="1.7117" stroke-linecap="round" stroke-linejoin="round" stroke-miterlimit="10" points="  58.227,86.074 58.225,95.069 54.4,95.068 "></polyline><path fill="none" stroke="#000000" stroke-width="1.7117" stroke-linecap="round" stroke-linejoin="round" stroke-miterlimit="10" d="  M59.216,85.818c-4.218,0.005-12.04-0.037-16.254-0.192c0,0-15.276-0.577-15.272-24.565c0.002-10.152,0.002-18.043,0.004-22.46"></path><path fill="none" stroke="#000000" stroke-width="1.7117" stroke-linecap="round" stroke-linejoin="round" stroke-miterlimit="10" d="  M72.032,28.066c-0.198-2.583-0.826-5.8-2.614-7.651c0,0,3.807-10.47,6.25-12.065c0,0-9.912,1.213-13.889,6.749  c-0.62,0.864-1.312,1.66-2.089,2.376c-0.997,0.919-2.155,1.699-3.415,2.169c-1.273,0.477-2.508,0.53-3.855,0.542  c-0.232,0.002-0.465,0.004-0.696,0.005c-1.492,0.008-2.984,0-4.476-0.021c-1.519-0.02-2.88-0.073-4.294-0.691  c-2.046-0.893-3.698-2.537-4.979-4.385c-3.889-5.603-13.888-6.753-13.888-6.753c2.442,1.596,6.247,12.067,6.247,12.067  c-1.828,1.891-2.445,5.208-2.63,7.819"></path><path fill="none" stroke="#000000" stroke-width="1.7117" stroke-linecap="round" stroke-linejoin="round" stroke-miterlimit="10" d="  M52.639,59.702c0,0,0,0,0,6.228C52.635,88.865,67.24,89.417,67.24,89.417c2.977,0.11,4.939-0.008,4.939-0.008l-0.043-50.801"></path><path fill="none" stroke="#000000" stroke-width="1.7117" stroke-linecap="round" stroke-linejoin="round" stroke-miterlimit="10" d="  M21.794,11.139l2.415-2.797c-2.152-0.828-4.829-0.311-4.829-0.311"></path><path fill="none" stroke="#000000" stroke-width="1.7117" stroke-linecap="round" stroke-linejoin="round" stroke-miterlimit="10" d="  M78.204,11.148L75.79,8.35c2.152-0.827,4.829-0.309,4.829-0.309"></path><circle fill="none" stroke="#000000" stroke-width="1.7117" stroke-linecap="round" stroke-linejoin="round" stroke-miterlimit="10" cx="37.912" cy="33.607" r="11.367"></circle><circle cx="37.912" cy="33.605" r="4.301"></circle><circle fill="none" stroke="#000000" stroke-width="1.7117" stroke-linecap="round" stroke-linejoin="round" stroke-miterlimit="10" cx="61.835" cy="33.611" r="11.367"></circle><circle cx="61.834" cy="33.609" r="4.301"></circle><path fill="none" stroke="#000000" stroke-width="1.7117" stroke-linecap="round" stroke-linejoin="round" stroke-miterlimit="10" d="  M59.227,17.867l0.001-4.457c0,0-6.898,3.268-8.437,3.268c-1.537,0-9.281-3.271-9.281-3.271l-0.001,5.288c0,0,1.913,1.584,7.06,1.466  c5.641-0.129,4.734,0.033,4.734,0.033S56.66,20.23,59.227,17.867z"></path><g><path d="M49.796,50.643l-5.085-7.775c0,0,4.957-6.678,5.088-6.871l5.312,6.976L49.796,50.643z"></path></g><polygon stroke="#000000" stroke-width="0.75" stroke-linecap="round" stroke-linejoin="round" stroke-miterlimit="10" points="  39.33,9.651 49.918,4.93 61.838,9.655 50.584,14.09 "></polygon></svg>