<?xml version="1.0" encoding="iso-8859-1"?>
<!-- Generator: Adobe Illustrator 19.0.0, SVG Export Plug-In . SVG Version: 6.00 Build 0)  -->
<svg version="1.1" id="Capa_1" xmlns="http://www.w3.org/2000/svg" xmlns:xlink="http://www.w3.org/1999/xlink" x="0px" y="0px"
	 viewBox="0 0 463 463" style="enable-background:new 0 0 463 463;" xml:space="preserve">
<g>
	<path d="M199.5,88c-4.143,0-7.5,3.358-7.5,7.5v72c0,4.142,3.357,7.5,7.5,7.5s7.5-3.358,7.5-7.5v-72C207,91.358,203.643,88,199.5,88
		z"/>
	<path d="M263.5,88c-4.143,0-7.5,3.358-7.5,7.5v72c0,4.142,3.357,7.5,7.5,7.5s7.5-3.358,7.5-7.5v-72C271,91.358,267.643,88,263.5,88
		z"/>
	<path d="M327.5,239c10.336,0,19.128-6.71,22.266-16h27.469c3.138,9.29,11.93,16,22.266,16c12.958,0,23.5-10.542,23.5-23.5
		S412.458,192,399.5,192c-10.336,0-19.128,6.71-22.266,16h-27.469c-3.138-9.29-11.93-16-22.266-16H319V87.5
		C319,39.252,279.748,0,231.5,0S144,39.252,144,87.5V192h-8.5c-10.336,0-19.128,6.71-22.266,16H85.766
		c-3.138-9.29-11.93-16-22.266-16C50.542,192,40,202.542,40,215.5S50.542,239,63.5,239c10.336,0,19.128-6.71,22.266-16h27.469
		c3.138,9.29,11.93,16,22.266,16h8.5v17h-0.5c-12.958,0-23.5,10.542-23.5,23.5c0,0.267,0.011,0.53,0.02,0.795l-22.313,8.367
		C93.394,283.38,86.835,280,79.5,280C66.542,280,56,290.542,56,303.5c0,10.336,6.71,19.128,16,22.266v19.461
		c-9.292,3.137-16,11.936-16,22.273v8c0,12.958,10.542,23.5,23.5,23.5s23.5-10.542,23.5-23.5c0-4.142-3.357-7.5-7.5-7.5
		s-7.5,3.358-7.5,7.5c0,4.687-3.813,8.5-8.5,8.5s-8.5-3.813-8.5-8.5v-8c0-4.687,3.813-8.5,8.5-8.5c4.143,0,7.5-3.358,7.5-7.5
		v-25.734c9.29-3.138,16-11.93,16-22.266c0-0.267-0.011-0.53-0.02-0.795l22.313-8.367c2.985,3.656,7.048,6.396,11.699,7.738
		l4.882,29.288c1.896,11.378,11.645,19.636,23.18,19.636H184v10.234c-9.29,3.138-16,11.93-16,22.266s6.71,19.128,16,22.266V416
		h-22.611c-8.959,0-17.013,4.978-21.019,12.991l-11.578,23.155c-1.163,2.325-1.038,5.086,0.328,7.297
		c1.366,2.211,3.78,3.557,6.38,3.557h64c4.143,0,7.5-3.358,7.5-7.5v-32c0-4.142-3.357-7.5-7.5-7.5H199v-10.234
		c9.29-3.138,16-11.93,16-22.266s-6.71-19.128-16-22.266V351h65v10.234c-9.29,3.138-16,11.93-16,22.266s6.71,19.128,16,22.266V416
		h-0.5c-4.143,0-7.5,3.358-7.5,7.5v32c0,4.142,3.357,7.5,7.5,7.5h64c2.6,0,5.014-1.346,6.38-3.557
		c1.366-2.211,1.491-4.972,0.328-7.297l-11.578-23.155C318.624,420.978,310.57,416,301.611,416H279v-10.234
		c9.29-3.138,16-11.93,16-22.266s-6.71-19.128-16-22.266V351h18.946c11.535,0,21.283-8.258,23.18-19.637l4.882-29.287
		c4.651-1.343,8.714-4.082,11.699-7.738l22.313,8.367c-0.009,0.264-0.02,0.528-0.02,0.795c0,10.336,6.71,19.128,16,22.266V351.5
		c0,4.142,3.357,7.5,7.5,7.5c4.687,0,8.5,3.813,8.5,8.5v8c0,4.687-3.813,8.5-8.5,8.5s-8.5-3.813-8.5-8.5c0-4.142-3.357-7.5-7.5-7.5
		s-7.5,3.358-7.5,7.5c0,12.958,10.542,23.5,23.5,23.5s23.5-10.542,23.5-23.5v-8c0-10.337-6.708-19.136-16-22.273v-19.461
		c9.29-3.138,16-11.93,16-22.266c0-12.958-10.542-23.5-23.5-23.5c-7.335,0-13.894,3.38-18.207,8.662l-22.313-8.367
		c0.009-0.264,0.02-0.528,0.02-0.795c0-12.958-10.542-23.5-23.5-23.5H319v-17H327.5z M79.5,312c-4.687,0-8.5-3.813-8.5-8.5
		s3.813-8.5,8.5-8.5s8.5,3.813,8.5,8.5S84.187,312,79.5,312z M192,448h-44.364l6.15-12.302c1.449-2.898,4.362-4.698,7.603-4.698H192
		V448z M191.5,392c-4.687,0-8.5-3.813-8.5-8.5s3.813-8.5,8.5-8.5s8.5,3.813,8.5,8.5S196.187,392,191.5,392z M309.214,435.699
		l6.15,12.301H271v-17h30.611C304.852,431,307.765,432.8,309.214,435.699z M271.5,392c-4.687,0-8.5-3.813-8.5-8.5s3.813-8.5,8.5-8.5
		s8.5,3.813,8.5,8.5S276.187,392,271.5,392z M383.5,295c4.687,0,8.5,3.813,8.5,8.5s-3.813,8.5-8.5,8.5s-8.5-3.813-8.5-8.5
		S378.813,295,383.5,295z M399.5,207c4.687,0,8.5,3.813,8.5,8.5s-3.813,8.5-8.5,8.5s-8.5-3.813-8.5-8.5S394.813,207,399.5,207z
		 M327.5,207c4.687,0,8.5,3.813,8.5,8.5s-3.813,8.5-8.5,8.5H319v-17H327.5z M63.5,224c-4.687,0-8.5-3.813-8.5-8.5s3.813-8.5,8.5-8.5
		s8.5,3.813,8.5,8.5S68.187,224,63.5,224z M135.5,224c-4.687,0-8.5-3.813-8.5-8.5s3.813-8.5,8.5-8.5h8.5v17H135.5z M176.822,336
		c2.737-5.334,8.282-9,14.678-9s11.941,3.666,14.678,9H176.822z M256.822,336c2.737-5.334,8.282-9,14.678-9s11.941,3.666,14.678,9
		H256.822z M301.841,335.055C298.14,321.775,285.944,312,271.5,312c-14.785,0-27.216,10.241-30.591,24h-18.819
		c-3.374-13.759-15.806-24-30.591-24c-14.444,0-26.64,9.775-30.341,23.055c-2.32-1.193-4.034-3.423-4.489-6.157L152.354,303h158.292
		l-4.315,25.897C305.875,331.632,304.161,333.862,301.841,335.055z M328,279.5c0,4.687-3.813,8.5-8.5,8.5h-176
		c-4.687,0-8.5-3.813-8.5-8.5s3.813-8.5,8.5-8.5h176C324.187,271,328,274.813,328,279.5z M159,256V87.5
		c0-39.977,32.523-72.5,72.5-72.5S304,47.523,304,87.5V256H159z"/>
</g>
<g>
</g>
<g>
</g>
<g>
</g>
<g>
</g>
<g>
</g>
<g>
</g>
<g>
</g>
<g>
</g>
<g>
</g>
<g>
</g>
<g>
</g>
<g>
</g>
<g>
</g>
<g>
</g>
<g>
</g>
</svg>
