<?xml version="1.0" encoding="iso-8859-1"?>
<!-- Generator: Adobe Illustrator 18.0.0, SVG Export Plug-In . SVG Version: 6.00 Build 0)  -->
<!DOCTYPE svg PUBLIC "-//W3C//DTD SVG 1.1//EN" "http://www.w3.org/Graphics/SVG/1.1/DTD/svg11.dtd">
<svg version="1.1" id="Capa_1" xmlns="http://www.w3.org/2000/svg" xmlns:xlink="http://www.w3.org/1999/xlink" x="0px" y="0px"
	 viewBox="0 0 465 465" style="enable-background:new 0 0 465 465;" xml:space="preserve">
<g>
	<path d="M218.433,165.504c3.78-3.78,5.862-8.806,5.862-14.151c0-5.346-2.082-10.372-5.861-14.151
		c-3.78-3.78-8.806-5.862-14.151-5.862c-3.815,0-7.468,1.06-10.62,3.042c-7.724-4.83-18.052-3.889-24.763,2.82
		c-7.802,7.803-7.802,20.499,0.001,28.302l24.767,24.767L218.433,165.504z M175.971,144.273c1.952-1.952,4.517-2.928,7.081-2.928
		c2.563,0,5.128,0.976,7.08,2.928l3.535,3.536l3.536-3.536c1.891-1.891,4.404-2.932,7.079-2.932s5.188,1.042,7.08,2.933
		c1.891,1.891,2.933,4.405,2.933,7.08c0,2.674-1.042,5.188-2.933,7.08l-17.695,17.695l-17.695-17.695
		C172.068,154.529,172.068,148.177,175.971,144.273z"/>
	<path d="M149.517,197.175c0,45.757,37.227,82.983,82.983,82.983s82.983-37.226,82.983-82.983v-82.983H149.517V197.175z
		 M232.5,207.011c7.805,0,14.154,6.35,14.154,14.154c0,7.804-6.35,14.154-14.154,14.154s-14.154-6.35-14.154-14.154
		C218.346,213.36,224.696,207.011,232.5,207.011z M305.484,197.175c0,38.56-30.064,70.21-67.979,72.792v-25.173
		c10.925-2.311,19.15-12.027,19.15-23.629c0-11.603-8.225-21.319-19.15-23.63v-73.343h67.979V197.175z M159.517,124.192h67.987
		v73.342c-10.929,2.308-19.158,12.026-19.158,23.632c0,11.606,8.229,21.323,19.158,23.631v25.172
		c-37.919-2.579-67.987-34.231-67.987-72.793V124.192z"/>
	<path d="M366.63,296.058v-51.263c10.927-2.31,19.153-12.026,19.153-23.63c0-11.605-8.227-21.321-19.153-23.631v-45.249h10.032v-5
		c0-23.253-18.819-42.186-42.025-42.386v-9.861h-37.236V64.906C297.401,29.117,268.289,0,232.504,0
		c-35.789,0-64.906,29.117-64.906,64.906v30.132h-37.235v9.861c-23.206,0.2-42.025,19.133-42.025,42.386v5h10.033v45.249
		c-10.927,2.31-19.154,12.026-19.154,23.631c0,11.604,8.227,21.321,19.154,23.63v51.263c-10.421,2.293-18.242,11.601-18.242,22.7
		c0,12.815,10.427,23.242,23.242,23.242s23.241-10.426,23.241-23.242h-10c0,7.301-5.94,13.242-13.241,13.242
		c-7.302,0-13.242-5.94-13.242-13.242s5.94-13.242,13.242-13.242h5v-60.721c10.927-2.31,19.153-12.026,19.153-23.63
		c0-11.605-8.227-21.321-19.153-23.631v-45.249h21.992v44.89c0,40.343,23.512,75.294,57.552,91.879
		c5.211,14.314,16.747,24.946,30.88,29.166v24.199c-10.925,2.311-19.149,12.027-19.149,23.63c0,11.603,8.225,21.318,19.149,23.629
		v43.271l-42.47,8.999V465h52.474l-0.004-144.925c1.226,0.094,2.463,0.145,3.71,0.145c1.244,0,2.477-0.051,3.7-0.144L236.202,465
		h52.474v-23.052l-42.471-8.999v-43.271c10.926-2.311,19.151-12.026,19.151-23.63c0-11.604-8.226-21.319-19.151-23.63v-24.197
		c14.133-4.218,25.668-14.851,30.879-29.167c34.04-16.585,57.554-51.537,57.554-91.88v-44.89h21.993v45.249
		c-10.927,2.31-19.154,12.026-19.154,23.631c0,11.604,8.227,21.321,19.154,23.63v60.721h5c7.301,0,13.241,5.94,13.241,13.242
		S368.931,332,361.63,332c-7.302,0-13.242-5.94-13.242-13.242h-10c0,12.815,10.427,23.242,23.242,23.242
		s23.241-10.426,23.241-23.242C384.872,307.659,377.05,298.352,366.63,296.058z M117.524,221.165c0,7.804-6.35,14.154-14.153,14.154
		c-7.805,0-14.154-6.35-14.154-14.154c0-7.805,6.35-14.154,14.154-14.154C111.174,207.011,117.524,213.36,117.524,221.165z
		 M186.325,450.052l32.47-6.88V455h-32.47V450.052z M209.645,366.049c0-6.041,3.811-11.196,9.149-13.224v26.447
		C213.456,377.244,209.645,372.09,209.645,366.049z M278.675,450.052V455h-32.471v-11.829L278.675,450.052z M255.356,366.049
		c0,6.041-3.812,11.196-9.151,13.224v-26.448C251.544,354.852,255.356,360.007,255.356,366.049z M177.598,64.906
		c0-30.275,24.631-54.906,54.906-54.906c30.271,0,54.896,24.631,54.896,54.906v30.132H177.598V64.906z M98.722,142.286
		c2.393-15.38,15.643-27.214,31.641-27.394v27.394H98.722z M232.504,310.22c-12.358,0-23.533-5.937-30.421-15.532
		c9.611,3.004,19.828,4.625,30.417,4.625c10.588,0,20.804-1.62,30.415-4.625C256.03,304.283,244.858,310.22,232.504,310.22z
		 M324.637,197.175c0,50.805-41.332,92.138-92.137,92.138s-92.138-41.333-92.138-92.138v-92.137h184.274V197.175z M334.637,114.892
		c15.998,0.18,29.248,12.014,31.641,27.394h-31.641V114.892z M347.476,221.165c0-7.805,6.35-14.154,14.154-14.154
		c7.804,0,14.153,6.35,14.153,14.154c0,7.804-6.35,14.154-14.153,14.154C353.826,235.319,347.476,228.969,347.476,221.165z"/>
	<path d="M255.689,159.583c7.786,0,14.121-6.334,14.121-14.121c0-7.786-6.335-14.121-14.121-14.121s-14.121,6.334-14.121,14.121
		C241.568,153.248,247.903,159.583,255.689,159.583z M255.689,141.341c2.272,0,4.121,1.849,4.121,4.121
		c0,2.272-1.849,4.121-4.121,4.121s-4.121-1.849-4.121-4.121C251.568,143.189,253.417,141.341,255.689,141.341z"/>
	<path d="M287.612,159.583c7.786,0,14.121-6.334,14.121-14.121c0-7.786-6.335-14.121-14.121-14.121s-14.12,6.334-14.12,14.121
		C273.492,153.248,279.826,159.583,287.612,159.583z M287.612,141.341c2.272,0,4.121,1.849,4.121,4.121
		c0,2.272-1.849,4.121-4.121,4.121c-2.271,0-4.12-1.849-4.12-4.121C283.492,143.189,285.34,141.341,287.612,141.341z"/>
	<rect x="241.568" y="163.264" width="60.165" height="10"/>
	<rect x="241.568" y="177.857" width="60.165" height="10"/>
	<path d="M258.95,40.132h-52.9c-9.295,0-16.857,7.562-16.857,16.857c0,9.295,7.563,16.857,16.857,16.857h52.9
		c9.295,0,16.857-7.562,16.857-16.857C275.807,47.694,268.245,40.132,258.95,40.132z M234.973,50.132l-8.967,13.714h-3.554
		l8.967-13.714H234.973z M199.192,56.989c0-3.781,3.076-6.857,6.857-6.857h13.422l-8.967,13.714h-4.455
		C202.268,63.846,199.192,60.77,199.192,56.989z M258.95,63.846h-20.997l8.967-13.714h12.03c3.781,0,6.857,3.076,6.857,6.857
		C265.807,60.77,262.731,63.846,258.95,63.846z"/>
</g>
<g>
</g>
<g>
</g>
<g>
</g>
<g>
</g>
<g>
</g>
<g>
</g>
<g>
</g>
<g>
</g>
<g>
</g>
<g>
</g>
<g>
</g>
<g>
</g>
<g>
</g>
<g>
</g>
<g>
</g>
</svg>
