<?xml version="1.0" encoding="iso-8859-1"?>
<!-- Generator: Adobe Illustrator 19.0.0, SVG Export Plug-In . SVG Version: 6.00 Build 0)  -->
<svg version="1.1" id="Capa_1" xmlns="http://www.w3.org/2000/svg" xmlns:xlink="http://www.w3.org/1999/xlink" x="0px" y="0px"
	 viewBox="0 0 463 463" style="enable-background:new 0 0 463 463;" xml:space="preserve">
<g>
	<path d="M335,185.234v-11.469c9.29-3.138,16-11.93,16-22.266c0-12.958-10.542-23.5-23.5-23.5c-8.962,0-16.766,5.045-20.728,12.442
		l-25.458-4.243C277.001,131.185,270.617,128,263.5,128H239v-17.404c21.174-2.253,40.465-13.945,52.249-31.827
		C306.856,76.909,319,63.6,319,47.5c0-12.824-7.707-23.875-18.729-28.784C295.257,7.467,283.896,0,271.5,0h-80
		c-12.447,0-23.765,7.45-28.781,18.72C151.703,23.632,144,34.68,144,47.5c0,16.1,12.143,29.408,27.75,31.269
		c11.772,17.856,31.123,29.562,52.25,31.824V128h-24.5c-7.117,0-13.501,3.185-17.814,8.199l-25.458,4.243
		C152.266,133.045,144.462,128,135.5,128c-12.958,0-23.5,10.542-23.5,23.5c0,10.336,6.71,19.128,16,22.266v11.469
		c-9.29,3.138-16,11.93-16,22.266c0,12.958,10.542,23.5,23.5,23.5s23.5-10.542,23.5-23.5c0-4.142-3.358-7.5-7.5-7.5
		s-7.5,3.358-7.5,7.5c0,4.687-3.813,8.5-8.5,8.5s-8.5-3.813-8.5-8.5s3.813-8.5,8.5-8.5c4.142,0,7.5-3.358,7.5-7.5v-17.734
		c8.147-2.752,14.307-9.852,15.7-18.529l17.3-2.884V247.5c0,1.703,0.58,3.355,1.644,4.685L187.096,264h-21.33
		c-3.138-9.29-11.93-16-22.266-16c-12.958,0-23.5,10.542-23.5,23.5s10.542,23.5,23.5,23.5c0.439,0,0.874-0.014,1.307-0.038
		l15.465,38.661C155.215,337.937,152,344.348,152,351.5c0,10.336,6.71,19.128,16,22.266V416h-16.5c-12.958,0-23.5,10.542-23.5,23.5
		v16c0,4.142,3.358,7.5,7.5,7.5h56c4.142,0,7.5-3.358,7.5-7.5v-32c0-4.142-3.358-7.5-7.5-7.5H183v-42.234
		c9.29-3.138,16-11.93,16-22.266c0-12.958-10.542-23.5-23.5-23.5c-0.439,0-0.874,0.014-1.307,0.038l-15.465-38.661
		c3.202-2.732,5.662-6.306,7.037-10.377h33.33l10.548,13.185c1.423,1.779,3.578,2.815,5.856,2.815h32
		c2.278,0,4.433-1.036,5.856-2.815L263.904,279h33.33c1.375,4.071,3.835,7.645,7.037,10.377l-15.465,38.661
		c-0.433-0.024-0.868-0.038-1.307-0.038c-12.958,0-23.5,10.542-23.5,23.5c0,10.336,6.71,19.128,16,22.266V416h-8.5
		c-4.142,0-7.5,3.358-7.5,7.5v32c0,4.142,3.358,7.5,7.5,7.5h56c4.142,0,7.5-3.358,7.5-7.5v-16c0-12.958-10.542-23.5-23.5-23.5H295
		v-42.234c9.29-3.138,16-11.93,16-22.266c0-7.152-3.215-13.563-8.272-17.877l15.465-38.661c0.433,0.024,0.868,0.038,1.307,0.038
		c12.958,0,23.5-10.542,23.5-23.5S332.458,248,319.5,248c-10.336,0-19.128,6.71-22.266,16h-21.33l9.452-11.815
		c1.064-1.33,1.644-2.982,1.644-4.685v-95.146l17.3,2.884c1.393,8.677,7.553,15.777,15.7,18.529V191.5c0,4.142,3.358,7.5,7.5,7.5
		c4.687,0,8.5,3.813,8.5,8.5s-3.813,8.5-8.5,8.5s-8.5-3.813-8.5-8.5c0-4.142-3.358-7.5-7.5-7.5s-7.5,3.358-7.5,7.5
		c0,12.958,10.542,23.5,23.5,23.5s23.5-10.542,23.5-23.5C351,197.164,344.29,188.372,335,185.234z M287.5,64
		c-9.098,0-16.5-7.402-16.5-16.5S278.402,31,287.5,31S304,38.402,304,47.5S296.598,64,287.5,64z M159,47.5
		c0-9.098,7.402-16.5,16.5-16.5S192,38.402,192,47.5S184.598,64,175.5,64S159,56.598,159,47.5z M188.5,76.181
		C199.399,71.221,207,60.235,207,47.5c0-14.578-9.956-26.871-23.425-30.446C185.96,15.742,188.672,15,191.5,15h80
		c2.817,0,5.529,0.743,7.916,2.056C265.952,20.635,256,32.925,256,47.5c0,12.723,7.586,23.7,18.469,28.667
		C263.83,88.587,248.126,96,231.5,96C214.643,96,199.143,88.73,188.5,76.181z M184,448h-41v-8.5c0-4.687,3.813-8.5,8.5-8.5H184V448z
		 M184,351.5c0,4.687-3.813,8.5-8.5,8.5s-8.5-3.813-8.5-8.5s3.813-8.5,8.5-8.5S184,346.813,184,351.5z M135,271.5
		c0-4.687,3.813-8.5,8.5-8.5s8.5,3.813,8.5,8.5s-3.813,8.5-8.5,8.5S135,276.187,135,271.5z M320,439.5v8.5h-41v-17h32.5
		C316.187,431,320,434.813,320,439.5z M287.5,360c-4.687,0-8.5-3.813-8.5-8.5s3.813-8.5,8.5-8.5s8.5,3.813,8.5,8.5
		S292.187,360,287.5,360z M319.5,263c4.687,0,8.5,3.813,8.5,8.5s-3.813,8.5-8.5,8.5s-8.5-3.813-8.5-8.5S314.813,263,319.5,263z
		 M231.5,200c-9.098,0-16.5-7.402-16.5-16.5V143h33v40.5C248,192.598,240.598,200,231.5,200z M135.5,160c-4.687,0-8.5-3.813-8.5-8.5
		s3.813-8.5,8.5-8.5s8.5,3.813,8.5,8.5S140.187,160,135.5,160z M191,244.869V151.5c0-4.687,3.813-8.5,8.5-8.5h0.5v40.5
		c0,14.785,10.241,27.216,24,30.591V280h-4.896L191,244.869z M243.896,280H239v-65.909c13.759-3.374,24-15.806,24-30.591V143h0.5
		c4.687,0,8.5,3.813,8.5,8.5v93.369L243.896,280z M327.5,143c4.687,0,8.5,3.813,8.5,8.5s-3.813,8.5-8.5,8.5s-8.5-3.813-8.5-8.5
		S322.813,143,327.5,143z"/>
	<path d="M255,71.5c0-4.142-3.358-7.5-7.5-7.5h-32c-4.142,0-7.5,3.358-7.5,7.5s3.358,7.5,7.5,7.5h32C251.642,79,255,75.642,255,71.5
		z"/>
</g>
<g>
</g>
<g>
</g>
<g>
</g>
<g>
</g>
<g>
</g>
<g>
</g>
<g>
</g>
<g>
</g>
<g>
</g>
<g>
</g>
<g>
</g>
<g>
</g>
<g>
</g>
<g>
</g>
<g>
</g>
</svg>
