<?xml version="1.0" encoding="iso-8859-1"?>
<!-- Generator: Adobe Illustrator 18.0.0, SVG Export Plug-In . SVG Version: 6.00 Build 0)  -->
<!DOCTYPE svg PUBLIC "-//W3C//DTD SVG 1.1//EN" "http://www.w3.org/Graphics/SVG/1.1/DTD/svg11.dtd">
<svg version="1.1" id="Capa_1" xmlns="http://www.w3.org/2000/svg" xmlns:xlink="http://www.w3.org/1999/xlink" x="0px" y="0px"
	 viewBox="0 0 453.176 453.176" style="enable-background:new 0 0 453.176 453.176;" xml:space="preserve">
<g>
	<path d="M323.088,145.789V30.211c0-5.079-4.132-9.211-9.211-9.211H139.299c-5.079,0-9.211,4.132-9.211,9.211v115.578
		c0,5.079,4.132,9.211,9.211,9.211h174.578C318.956,155,323.088,150.868,323.088,145.789z M313.088,145h-173V31h173V145z"/>
	<rect x="173.088" y="72" width="10" height="31"/>
	<rect x="270.088" y="72" width="10" height="31"/>
	<path d="M256.64,101.72l-7.071-7.071c-6.138,6.138-14.3,9.519-22.98,9.519c-8.681,0-16.843-3.381-22.981-9.519l-7.071,7.071
		c8.027,8.027,18.7,12.448,30.052,12.448C237.94,114.168,248.613,109.748,256.64,101.72z"/>
	<path d="M315.842,282.8H137.334c-6.752,0-12.246,5.494-12.246,12.246v50.508c0,6.752,5.494,12.246,12.246,12.246h178.508
		c6.752,0,12.246-5.494,12.246-12.246v-50.508C328.088,288.294,322.594,282.8,315.842,282.8z M318.088,295.046v9.42h-15.5V292.8
		h13.254C317.08,292.8,318.088,293.808,318.088,295.046z M274.188,304.467V292.8h18.4v11.667H274.188z M259.988,326.133v-11.667
		h18.4v11.667H259.988z M231.588,326.133v-11.667h18.4v11.667H231.588z M203.188,326.133v-11.667h18.4v11.667H203.188z
		 M174.788,326.133v-11.667h18.4v11.667H174.788z M264.188,304.467h-18.4V292.8h18.4V304.467z M235.788,304.467h-18.4V292.8h18.4
		V304.467z M207.388,304.467h-18.4V292.8h18.4V304.467z M178.988,304.467h-18.4V292.8h18.4V304.467z M164.788,314.467v11.667h-29.7
		v-11.667H164.788z M178.988,336.133V347.8h-18.4v-11.667H178.988z M188.988,336.133h18.4V347.8h-18.4V336.133z M217.388,336.133
		h18.4V347.8h-18.4V336.133z M245.788,336.133h18.4V347.8h-18.4V336.133z M274.188,336.133h18.4V347.8h-18.4V336.133z
		 M288.388,326.133v-11.667h29.7v11.667H288.388z M137.334,292.8h13.254v11.667h-15.5v-9.42
		C135.088,293.808,136.096,292.8,137.334,292.8z M135.088,345.554v-9.421h15.5V347.8h-13.254
		C136.096,347.8,135.088,346.792,135.088,345.554z M315.842,347.8h-13.254v-11.667h15.5v9.421
		C318.088,346.792,317.08,347.8,315.842,347.8z"/>
	<path d="M137.014,272.625h36.148c6.576,0,11.926-5.35,11.926-11.926v-44.773c0-6.576-5.35-11.926-11.926-11.926h-36.148
		c-6.576,0-11.926,5.35-11.926,11.926v44.773C125.088,267.275,130.438,272.625,137.014,272.625z M135.088,215.926
		c0-1.062,0.864-1.926,1.926-1.926h36.148c1.062,0,1.926,0.864,1.926,1.926v44.773c0,1.062-0.864,1.926-1.926,1.926h-36.148
		c-1.062,0-1.926-0.864-1.926-1.926V215.926z"/>
	<path d="M316.162,204h-36.148c-6.576,0-11.926,5.35-11.926,11.926v44.773c0,6.576,5.35,11.926,11.926,11.926h36.148
		c6.576,0,11.926-5.35,11.926-11.926v-44.773C328.088,209.35,322.738,204,316.162,204z M318.088,260.699
		c0,1.062-0.864,1.926-1.926,1.926h-36.148c-1.062,0-1.926-0.864-1.926-1.926v-44.773c0-1.062,0.864-1.926,1.926-1.926h36.148
		c1.062,0,1.926,0.864,1.926,1.926V260.699z"/>
	<path d="M208.514,272.625h36.148c6.576,0,11.926-5.35,11.926-11.926v-44.773c0-6.576-5.35-11.926-11.926-11.926h-36.148
		c-6.576,0-11.926,5.35-11.926,11.926v44.773C196.588,267.275,201.938,272.625,208.514,272.625z M206.588,215.926
		c0-1.062,0.864-1.926,1.926-1.926h36.148c1.062,0,1.926,0.864,1.926,1.926v44.773c0,1.062-0.864,1.926-1.926,1.926h-36.148
		c-1.062,0-1.926-0.864-1.926-1.926V215.926z"/>
	<path d="M344.034,213c-0.843-13.927-12.436-25-26.571-25h-68.875v-12h65.289c16.658,0,30.211-13.552,30.211-30.211V30.211
		C344.088,13.552,330.535,0,313.877,0H139.299c-16.658,0-30.211,13.552-30.211,30.211v115.578c0,16.658,13.553,30.211,30.211,30.211
		h65.289v12h-68.875c-14.135,0-25.727,11.073-26.571,25H66.088v125.5h27V240h16v107.369c0,14.662,11.911,26.593,26.564,26.629V393
		h-11.749v60.176h87.369V393h-11.749v-19h54.128v19h-11.749v60.176h87.369V393h-11.749v-19.002
		c14.653-0.036,26.564-11.967,26.564-26.629V240h16v98.5h27V213H344.034z M76.088,230.071l7,7V305h-7V230.071z M76.088,328.5V315h7
		v13.5H76.088z M90.159,230l-7-7h25.929v7H90.159z M139.299,166c-11.145,0-20.211-9.067-20.211-20.211V30.211
		c0-11.144,9.066-20.211,20.211-20.211h174.578c11.145,0,20.211,9.067,20.211,20.211v115.578c0,11.144-9.066,20.211-20.211,20.211
		H139.299z M214.588,176h24v12h-24V176z M133.903,443.176V418h67.369v25.176H133.903z M201.272,403v5h-67.369v-5H201.272z
		 M189.524,393h-43.872v-19h43.872V393z M251.903,443.176V418h67.369v25.176H251.903z M319.272,403v5h-67.369v-5H319.272z
		 M263.652,393v-19h43.872v19H263.652z M334.088,347.369c0,9.17-7.46,16.631-16.631,16.631H135.719
		c-9.17,0-16.631-7.461-16.631-16.631V214.625c0-9.167,7.458-16.625,16.625-16.625h181.75c9.167,0,16.625,7.458,16.625,16.625
		V347.369z M370.088,237.071l7-7V305h-7V237.071z M344.088,230v-7h25.929l-7,7H344.088z M370.088,328.5V315h7v13.5H370.088z"/>
</g>
<g>
</g>
<g>
</g>
<g>
</g>
<g>
</g>
<g>
</g>
<g>
</g>
<g>
</g>
<g>
</g>
<g>
</g>
<g>
</g>
<g>
</g>
<g>
</g>
<g>
</g>
<g>
</g>
<g>
</g>
</svg>
