<?xml version="1.0" encoding="iso-8859-1"?>
<!-- Generator: Adobe Illustrator 18.0.0, SVG Export Plug-In . SVG Version: 6.00 Build 0)  -->
<!DOCTYPE svg PUBLIC "-//W3C//DTD SVG 1.1//EN" "http://www.w3.org/Graphics/SVG/1.1/DTD/svg11.dtd">
<svg version="1.1" id="Capa_1" xmlns="http://www.w3.org/2000/svg" xmlns:xlink="http://www.w3.org/1999/xlink" x="0px" y="0px"
	 viewBox="0 0 466.46 466.46" style="enable-background:new 0 0 466.46 466.46;" xml:space="preserve">
<g>
	<path d="M195.819,144.518c16.542,0,30-13.458,30-30v-5h-60v5C165.819,131.06,179.277,144.518,195.819,144.518z M215.187,119.518
		c-2.226,8.616-10.065,15-19.367,15s-17.142-6.384-19.367-15H215.187z"/>
	<path d="M236.655,114.518c0,16.542,13.458,30,30,30s30-13.458,30-30v-5h-60V114.518z M286.023,119.518
		c-2.226,8.616-10.065,15-19.367,15s-17.142-6.384-19.367-15H286.023z"/>
	<rect x="165.819" y="92.46" width="130.836" height="10"/>
	<path d="M257.358,259.578l-51.999-0.237c-0.036,0-0.071,0-0.106,0c-12.633,0-22.94,10.249-22.999,22.896
		c-0.057,12.682,10.213,23.047,22.895,23.104l52,0.237c0.035,0,0.07,0,0.106,0c12.632,0,22.939-10.249,22.998-22.896
		C280.311,270.001,270.039,259.636,257.358,259.578z M210.295,269.364l7.331,0.033l-0.108,26l-7.338-0.033L210.295,269.364z
		 M227.626,269.443l7.33,0.033l-0.109,26l-7.33-0.033L227.626,269.443z M244.957,269.522l7.339,0.033l-0.116,26l-7.331-0.033
		L244.957,269.522z M192.254,282.283c0.025-5.391,3.345-10.007,8.037-11.953l-0.107,23.98
		C195.508,292.322,192.229,287.674,192.254,282.283z M262.184,294.607l0.107-24.009c4.693,1.981,7.986,6.636,7.962,12.039
		C270.227,288.033,266.879,292.668,262.184,294.607z"/>
	<path d="M399.657,367.54c-4.658-4.659-10.54-7.645-16.92-8.674v-65.064c8.612-2.229,15-10.043,15-19.342s-6.388-17.113-15-19.342
		V194.46c0-14.553-11.574-26.446-26-26.975v-11.467c0-15.439-12.561-28-28-28h-5v5c0,5.062-0.415,10.028-1.201,14.872H314.4
		c0.862-4.832,1.337-9.796,1.337-14.872v-62.18h-22.101V62.4c0-34.407-27.992-62.4-62.399-62.4c-34.408,0-62.4,27.992-62.4,62.4
		v8.438h-22.1v62.18c0,5.076,0.475,10.04,1.337,14.872h-8.136c-0.786-4.843-1.201-9.81-1.201-14.872v-5h-5
		c-15.439,0-28,12.561-28,28v11.913c-12.506,2.352-22,13.349-22,26.528v60.658c-8.612,2.229-15,10.043-15,19.342
		s6.388,17.113,15,19.342v65.064c-6.38,1.029-12.262,4.015-16.92,8.674c-5.855,5.855-9.08,13.64-9.08,21.92s3.225,16.065,9.08,21.92
		l7.071-7.071c-3.967-3.966-6.151-9.24-6.151-14.849s2.184-10.883,6.151-14.849c3.966-3.966,9.24-6.151,14.849-6.151
		s10.883,2.184,14.849,6.151c8.188,8.188,8.188,21.511,0,29.699l7.071,7.071c12.086-12.087,12.086-31.754,0-43.841
		c-4.659-4.659-10.541-7.645-16.92-8.674v-65.064c8.612-2.229,15-10.043,15-19.342s-6.388-17.113-15-19.342V194.46
		c0-7.634,5.059-14.107,12-16.247v43.247h5c11.58,0,21,9.421,21,21v45h17v39.209c0,9.271,5.822,17.203,14,20.346v80.445h-14.5v39h68
		v-39h-14.5v-79h59v79h-14.5v39h68v-39h-14.5v-80.445c8.178-3.142,14-11.075,14-20.346V287.46h17v-45c0-11.579,9.421-21,21-21h5
		v-43.949c8.908,0.522,16,7.913,16,16.949v60.658c-8.612,2.229-15,10.043-15,19.342s6.388,17.113,15,19.342v65.064
		c-6.38,1.029-12.262,4.015-16.92,8.674c-12.087,12.087-12.087,31.754,0,43.84l7.07-7.071c-8.188-8.188-8.188-21.511,0-29.699
		c3.967-3.966,9.24-6.151,14.85-6.151s10.883,2.184,14.85,6.151c8.188,8.188,8.188,21.511,0,29.699l7.07,7.071
		C411.744,399.293,411.744,379.626,399.657,367.54z M98.737,274.46c0,5.514-4.486,10-10,10s-10-4.486-10-10s4.486-10,10-10
		S98.737,268.946,98.737,274.46z M231.237,10c25.142,0,46.196,17.801,51.242,41.46H179.994C185.04,27.801,206.096,10,231.237,10z
		 M178.837,62.4c0-0.315,0.018-0.626,0.024-0.94h104.752c0.006,0.314,0.024,0.625,0.024,0.94v8.438h-104.8V62.4z M156.737,80.838
		h149v52.18c0,17.326-5.962,33.276-15.92,45.945c-11.933-20.846-34.159-33.945-58.58-33.945c-24.422,0-46.648,13.099-58.581,33.945
		c-9.958-12.668-15.919-28.618-15.919-45.945V80.838z M186.237,192.342c-2.255-1.715-4.402-3.561-6.446-5.516
		c1.813-3.63,3.978-7.014,6.446-10.117V192.342z M196.237,166.878c3.111-2.385,6.464-4.442,10-6.148v42.46
		c-3.458-1.236-6.798-2.718-10-4.43V166.878z M216.237,157.004c3.244-0.875,6.589-1.466,10-1.762v52.089
		c-3.398-0.227-6.74-0.662-10-1.331V157.004z M236.237,155.243c3.411,0.296,6.756,0.887,10,1.762v48.996
		c-3.26,0.669-6.602,1.104-10,1.331V155.243z M256.237,160.73c3.536,1.706,6.889,3.763,10,6.148v31.882
		c-3.202,1.711-6.542,3.194-10,4.43V160.73z M276.237,176.71c2.468,3.103,4.632,6.487,6.445,10.117
		c-2.044,1.955-4.19,3.801-6.445,5.515V176.71z M150.478,157.89c10.644,34.492,42.82,59.628,80.76,59.628
		c37.94,0,70.115-25.136,80.76-59.628h8.34c-10.89,38.963-46.708,67.628-89.1,67.628s-78.209-28.665-89.1-67.628H150.478z
		 M206.237,437.46v19h-48v-19H206.237z M172.737,427.46v-22.486c2.814,1.578,6.051,2.486,9.5,2.486s6.686-0.909,9.5-2.486v22.486
		H172.737z M172.737,387.96c0-5.238,4.262-9.5,9.5-9.5s9.5,4.262,9.5,9.5s-4.262,9.5-9.5,9.5S172.737,393.198,172.737,387.96z
		 M191.737,370.946c-2.814-1.578-6.051-2.486-9.5-2.486s-6.686,0.909-9.5,2.486V348.46h19V370.946z M289.737,370.946
		c-2.814-1.578-6.051-2.487-9.5-2.487s-6.686,0.909-9.5,2.487V348.46h19V370.946z M289.737,387.96c0,5.238-4.262,9.5-9.5,9.5
		s-9.5-4.262-9.5-9.5s4.262-9.5,9.5-9.5S289.737,382.722,289.737,387.96z M304.237,437.46v19h-48v-19H304.237z M270.737,427.46
		v-22.487c2.814,1.578,6.051,2.487,9.5,2.487s6.686-0.909,9.5-2.487v22.487H270.737z M303.737,326.669
		c0,6.501-5.289,11.791-11.791,11.791h-31.209h-59h-31.209c-6.501,0-11.791-5.29-11.791-11.791V287.46h5.803
		c2.473,20.259,19.781,36,40.697,36h52c20.916,0,38.224-15.741,40.696-36h5.804V326.669z M257.237,313.46h-52
		c-17.093,0-31-13.906-31-31s13.907-31,31-31h52c17.094,0,31,13.906,31,31S274.331,313.46,257.237,313.46z M346.737,211.863
		c-14.725,2.397-26,15.205-26,30.597v35h-22.804c-2.473-20.259-19.78-36-40.696-36h-52c-20.916,0-38.224,15.741-40.697,36h-22.803
		v-35c0-15.392-11.275-28.2-26-30.597v-55.844c0-8.247,5.575-15.217,13.154-17.338c2.95,53.894,47.728,96.837,102.346,96.837
		s99.396-42.943,102.346-96.837c7.579,2.121,13.154,9.091,13.154,17.338V211.863z M367.737,274.46c0-5.514,4.486-10,10-10
		s10,4.486,10,10s-4.486,10-10,10S367.737,279.974,367.737,274.46z"/>
	<path d="M162.235,218.36c-9.374,0-17,7.626-17,17s7.626,17,17,17s17-7.626,17-17S171.609,218.36,162.235,218.36z M162.235,242.36
		c-3.86,0-7-3.14-7-7s3.14-7,7-7s7,3.14,7,7S166.095,242.36,162.235,242.36z"/>
	<path d="M300.239,218.36c-9.374,0-17,7.626-17,17s7.626,17,17,17s17-7.626,17-17S309.613,218.36,300.239,218.36z M300.239,242.36
		c-3.859,0-7-3.14-7-7s3.141-7,7-7s7,3.14,7,7S304.099,242.36,300.239,242.36z"/>
</g>
<g>
</g>
<g>
</g>
<g>
</g>
<g>
</g>
<g>
</g>
<g>
</g>
<g>
</g>
<g>
</g>
<g>
</g>
<g>
</g>
<g>
</g>
<g>
</g>
<g>
</g>
<g>
</g>
<g>
</g>
</svg>
