<?xml version="1.0" encoding="iso-8859-1"?>
<!-- Generator: Adobe Illustrator 18.0.0, SVG Export Plug-In . SVG Version: 6.00 Build 0)  -->
<!DOCTYPE svg PUBLIC "-//W3C//DTD SVG 1.1//EN" "http://www.w3.org/Graphics/SVG/1.1/DTD/svg11.dtd">
<svg version="1.1" id="Capa_1" xmlns="http://www.w3.org/2000/svg" xmlns:xlink="http://www.w3.org/1999/xlink" x="0px" y="0px"
	 viewBox="0 0 463 463" style="enable-background:new 0 0 463 463;" xml:space="preserve">
<g>
	<path d="M286.161,138.92c0-9.969-8.11-18.08-18.08-18.08h-72.792c-9.969,0-18.08,8.111-18.08,18.08S185.32,157,195.289,157h72.792
		C278.051,157,286.161,148.89,286.161,138.92z M276.161,138.92c0,4.455-3.625,8.08-8.08,8.08h-4.1v-16.16h4.1
		C272.536,130.84,276.161,134.465,276.161,138.92z M236.685,130.84h17.297V147h-17.297V130.84z M226.685,147h-17.297v-16.16h17.297
		V147z M187.209,138.92c0-4.456,3.625-8.08,8.08-8.08h4.099V147h-4.099C190.833,147,187.209,143.375,187.209,138.92z"/>
	<path d="M207.231,114.333c11.537,0,20.923-9.386,20.923-20.923s-9.386-20.923-20.923-20.923s-20.923,9.386-20.923,20.923
		S195.694,114.333,207.231,114.333z M207.231,82.486c6.023,0,10.923,4.9,10.923,10.923s-4.9,10.923-10.923,10.923
		s-10.923-4.9-10.923-10.923S201.208,82.486,207.231,82.486z"/>
	<path d="M256.139,114.333c11.537,0,20.923-9.386,20.923-20.923s-9.386-20.923-20.923-20.923s-20.924,9.386-20.924,20.923
		S244.602,114.333,256.139,114.333z M256.139,82.486c6.022,0,10.923,4.9,10.923,10.923s-4.9,10.923-10.923,10.923
		c-6.023,0-10.924-4.9-10.924-10.923S250.115,82.486,256.139,82.486z"/>
	<path d="M207.233,98.409c1.32,0,2.61-0.53,3.53-1.47c0.93-0.93,1.47-2.21,1.47-3.53c0-1.32-0.54-2.61-1.47-3.54
		c-0.93-0.93-2.21-1.46-3.53-1.46c-1.32,0-2.61,0.53-3.54,1.46c-0.93,0.93-1.46,2.22-1.46,3.54c0,1.32,0.53,2.61,1.46,3.53
		C204.623,97.879,205.913,98.409,207.233,98.409z"/>
	<path d="M256.133,98.409c1.32,0,2.61-0.53,3.54-1.46c0.93-0.93,1.47-2.22,1.47-3.54c0-1.32-0.54-2.61-1.47-3.53
		c-0.93-0.94-2.22-1.47-3.54-1.47c-1.311,0-2.6,0.53-3.53,1.47c-0.93,0.93-1.46,2.21-1.46,3.53c0,1.32,0.53,2.6,1.46,3.53
		C253.533,97.879,254.822,98.409,256.133,98.409z"/>
	<path d="M231.685,183c-50.553,0-91.681,41.128-91.681,91.682s41.128,91.682,91.681,91.682c50.554,0,91.682-41.128,91.682-91.682
		S282.238,183,231.685,183z M231.685,356.363c-45.039,0-81.681-36.642-81.681-81.682S186.646,193,231.685,193
		s81.682,36.642,81.682,81.682S276.724,356.363,231.685,356.363z"/>
	<path d="M200.853,327.869c-2.39-1.38-5.45-0.57-6.83,1.82c-1.39,2.38-0.58,5.44,1.81,6.83c0.79,0.46,1.65,0.68,2.5,0.68
		c1.73,0,3.4-0.89,4.33-2.49C204.053,332.319,203.243,329.259,200.853,327.869z"/>
	<path d="M295.822,292.889c-2.59-0.95-5.47,0.38-6.42,2.97c-0.949,2.6,0.381,5.47,2.971,6.42c0.569,0.21,1.149,0.31,1.729,0.31
		c2.03,0,3.95-1.26,4.69-3.28C299.743,296.719,298.413,293.849,295.822,292.889z"/>
	<path d="M289.463,253.659c0.74,2.03,2.66,3.29,4.7,3.29c0.569,0,1.149-0.1,1.71-0.3c2.6-0.95,3.93-3.82,2.989-6.41
		c-0.949-2.6-3.819-3.94-6.409-2.99C289.853,248.189,288.522,251.059,289.463,253.659z"/>
	<path d="M293.152,274.679c0,0.02,0,0.03,0,0.04c0,0.05,0,0.09,0,0.14c-0.01,2.76,2.221,5,4.98,5.01c0.01,0,0.01,0,0.02,0
		c2.75,0,4.99-2.23,5-4.99c0-0.01,0-0.03,0-0.05c0-0.05,0-0.1,0-0.15c0-2.76-2.239-5-5-5
		C295.393,269.679,293.152,271.919,293.152,274.679z"/>
	<path d="M220.183,214.199c0.28,0,0.57-0.02,0.87-0.07c2.71-0.48,4.53-3.06,4.06-5.78c-0.47-2.73-3.06-4.55-5.78-4.07
		c-2.73,0.47-4.55,3.06-4.07,5.78C215.683,212.489,217.793,214.199,220.183,214.199z"/>
	<path d="M262.442,221.449c0.78,0.46,1.65,0.67,2.5,0.67c1.721,0,3.4-0.89,4.33-2.49c1.38-2.39,0.57-5.45-1.819-6.84
		c-2.391-1.38-5.45-0.56-6.841,1.82C259.232,216.999,260.043,220.069,262.442,221.449z"/>
	<path d="M177.483,313.489c-2.11,1.78-2.39,4.93-0.62,7.05c0.99,1.18,2.41,1.79,3.84,1.79c1.13,0,2.27-0.39,3.2-1.17
		c2.12-1.77,2.4-4.93,0.63-7.04C182.753,311.999,179.603,311.719,177.483,313.489z"/>
	<path d="M198.503,222.079c0.85,0,1.71-0.21,2.49-0.67c2.39-1.38,3.21-4.44,1.83-6.83c-1.38-2.39-4.44-3.21-6.83-1.83
		s-3.21,4.44-1.83,6.83C195.093,221.189,196.773,222.079,198.503,222.079z"/>
	<path d="M180.803,236.909c1.43,0,2.84-0.61,3.83-1.78c1.78-2.12,1.51-5.27-0.61-7.05c-2.11-1.78-5.26-1.51-7.04,0.61
		c-1.78,2.11-1.51,5.26,0.6,7.04C178.523,236.519,179.663,236.909,180.803,236.909z"/>
	<path d="M220.883,335.209c-2.72-0.49-5.31,1.33-5.8,4.05c-0.48,2.72,1.34,5.31,4.06,5.79c0.29,0.06,0.58,0.08,0.87,0.08
		c2.38,0,4.49-1.7,4.92-4.13C225.413,338.279,223.603,335.689,220.883,335.209z"/>
	<path d="M170.213,274.599c0.01-2.77-2.23-5.01-4.99-5.01c-2.76-0.01-5,2.23-5.01,4.99c0,2.76,2.23,5,5,5.01
		C167.973,279.589,170.213,277.349,170.213,274.599z"/>
	<path d="M170.953,247.169c-2.59-0.95-5.46,0.39-6.41,2.98c-0.95,2.59,0.38,5.46,2.98,6.41c0.56,0.21,1.14,0.31,1.71,0.31
		c2.04,0,3.96-1.26,4.7-3.29C174.883,250.989,173.543,248.119,170.953,247.169z"/>
	<path d="M167.473,292.629c-2.6,0.94-3.94,3.81-3,6.4c0.74,2.04,2.66,3.3,4.7,3.3c0.57,0,1.14-0.1,1.7-0.3c2.6-0.94,3.94-3.81,3-6.4
		C172.933,293.029,170.063,291.689,167.473,292.629z"/>
	<path d="M242.402,214.139c0.29,0.06,0.58,0.08,0.87,0.08c2.38,0,4.49-1.71,4.92-4.14c0.471-2.72-1.34-5.31-4.06-5.78
		c-2.72-0.48-5.32,1.33-5.79,4.05C237.862,211.069,239.683,213.659,242.402,214.139z"/>
	<path d="M278.683,314.309c-1.78,2.11-1.52,5.26,0.59,7.04c0.94,0.79,2.09,1.18,3.221,1.18c1.43,0,2.84-0.6,3.829-1.77
		c1.78-2.12,1.511-5.27-0.6-7.05C283.612,311.929,280.463,312.199,278.683,314.309z"/>
	<path d="M242.232,335.249c-2.72,0.47-4.54,3.06-4.069,5.78c0.42,2.43,2.529,4.15,4.92,4.15c0.279,0,0.569-0.03,0.859-0.08
		c2.721-0.47,4.54-3.05,4.07-5.78C247.543,336.599,244.953,334.779,242.232,335.249z"/>
	<path d="M279.393,228.139c-2.109,1.77-2.39,4.93-0.609,7.04c0.989,1.18,2.409,1.79,3.829,1.79c1.131,0,2.28-0.39,3.21-1.17
		c2.12-1.78,2.391-4.93,0.62-7.05C284.663,226.639,281.513,226.359,279.393,228.139z"/>
	<path d="M262.293,327.999c-2.391,1.38-3.21,4.43-1.83,6.83c0.92,1.6,2.6,2.5,4.34,2.5c0.84,0,1.7-0.21,2.48-0.66
		c2.399-1.38,3.22-4.44,1.84-6.83C267.753,327.439,264.692,326.619,262.293,327.999z"/>
	<path d="M280.555,274.682c0-26.947-21.923-48.87-48.87-48.87c-26.947,0-48.87,21.923-48.87,48.87
		c0,26.947,21.923,48.87,48.87,48.87C258.632,323.552,280.555,301.629,280.555,274.682z M231.685,313.552
		c-21.433,0-38.87-17.437-38.87-38.87c0-21.433,17.437-38.87,38.87-38.87s38.87,17.437,38.87,38.87
		C270.555,296.115,253.117,313.552,231.685,313.552z"/>
	<path d="M247.402,269.68c-1.62-5.08-5.637-9.096-10.717-10.716V241.36h-10v17.605c-5.08,1.62-9.096,5.636-10.717,10.716h-17.603v10
		h17.602c1.62,5.081,5.637,9.098,10.718,10.719V308h10v-17.601c5.081-1.62,9.098-5.638,10.718-10.719h17.602v-10H247.402z
		 M231.685,281.178c-3.582,0-6.497-2.915-6.497-6.497s2.915-6.497,6.497-6.497s6.497,2.915,6.497,6.497
		S235.267,281.178,231.685,281.178z"/>
	<path d="M399.068,307.075v-71.012c3.754-5.689,5.927-12.503,5.927-19.813c0-19.784-16.101-35.88-35.891-35.88
		c-0.658,0-1.315,0.024-1.972,0.06c-3.407-6.24-9.628-10.636-16.92-11.542c-10.306-1.281-20.631-2.391-30.97-3.336L304.414,62.258
		c-1.415-9.856-8.947-17.622-18.374-19.694v-9.317c6.941-2.141,12-8.613,12-16.247c0-9.374-7.626-17-17-17s-17,7.626-17,17
		c0,7.634,5.059,14.107,12,16.247V42h-88.71v-8.753c6.941-2.141,12-8.613,12-16.247c0-9.374-7.626-17-17-17s-17,7.626-17,17
		c0,7.634,5.059,14.107,12,16.247v9.317c-9.427,2.072-16.959,9.839-18.374,19.694l-14.829,103.293
		c-10.339,0.946-20.664,2.055-30.97,3.336c-7.301,0.908-13.529,5.314-16.932,11.566c-0.775-0.049-1.552-0.083-2.33-0.083
		c-19.79,0-35.89,16.096-35.89,35.88c0,7.309,2.172,14.123,5.926,19.811v71.013c-19.427,2.465-34.498,19.097-34.498,39.183h10
		c0-14.56,10.607-26.683,24.498-29.066v15.567h10v-86.646c3.468,2.313,7.373,4.043,11.59,5.042
		c-2.042,37.228,0.757,74.544,8.411,111.53c1.957,9.455,9.683,16.604,19.225,17.791c28.896,3.593,57.943,5.861,87.028,6.813v11.933
		c-3.035-0.795-6.219-1.222-9.5-1.222c-20.678,0-37.5,16.822-37.5,37.5V463h75v-75.203c1.167,0.004,5.833,0.004,7,0V463h75v-27.5
		c0-20.678-16.822-37.5-37.5-37.5c-3.281,0-6.465,0.427-9.5,1.222V387.29c29.085-0.953,58.132-3.22,87.028-6.813
		c9.541-1.187,17.267-8.336,19.225-17.791c7.66-37.014,10.458-74.357,8.407-111.613c4.078-1.011,7.856-2.712,11.224-4.959v86.646h10
		v-15.567c13.891,2.383,24.499,14.505,24.499,29.066h10C433.567,326.172,418.496,309.54,399.068,307.075z M281.04,10
		c3.859,0,7,3.14,7,7s-3.141,7-7,7s-7-3.14-7-7S277.181,10,281.04,10z M182.33,10c3.86,0,7,3.14,7,7s-3.14,7-7,7s-7-3.14-7-7
		S178.47,10,182.33,10z M168.854,63.679C169.81,57.021,175.604,52,182.33,52h98.71c6.727,0,12.52,5.021,13.476,11.679
		l14.499,100.994c-51.451-4.151-103.208-4.151-154.659,0L168.854,63.679z M68.005,216.25c0-14.033,11.234-25.485,25.184-25.862
		c-3.33,16.812-5.663,33.689-6.992,50.592C75.539,237.699,68.005,227.831,68.005,216.25z M190.685,408
		c15.164,0,27.5,12.336,27.5,27.5v1.5h-55v-1.5C163.185,420.336,175.521,408,190.685,408z M218.185,453h-55v-6h55V453z
		 M218.185,410.04c-2.348-2.534-5.037-4.748-8-6.559v-15.914c2.667,0.06,5.333,0.106,8,0.144V410.04z M245.185,453v-6h55v6H245.185z
		 M300.185,435.5v1.5h-55v-1.5c0-15.164,12.337-27.5,27.5-27.5S300.185,420.336,300.185,435.5z M253.185,403.481
		c-2.963,1.811-5.652,4.025-8,6.559v-22.329c2.667-0.037,5.333-0.084,8-0.144V403.481z M359.645,360.658
		c-1.089,5.26-5.375,9.236-10.666,9.894c-77.829,9.678-156.757,9.678-234.587,0c-5.292-0.658-9.578-4.634-10.666-9.894
		c-11.807-57.05-11.807-114.904,0-171.954c1.088-5.26,5.375-9.236,10.666-9.894c38.915-4.839,78.104-7.258,117.293-7.258
		c39.189,0,78.379,2.419,117.294,7.258c5.291,0.658,9.577,4.634,10.666,9.894C371.451,245.755,371.451,303.609,359.645,360.658z
		 M377.164,240.863c-1.33-16.861-3.66-33.696-6.981-50.466c13.778,0.568,24.812,11.944,24.812,25.853
		C394.995,227.699,387.63,237.472,377.164,240.863z"/>
</g>
<g>
</g>
<g>
</g>
<g>
</g>
<g>
</g>
<g>
</g>
<g>
</g>
<g>
</g>
<g>
</g>
<g>
</g>
<g>
</g>
<g>
</g>
<g>
</g>
<g>
</g>
<g>
</g>
<g>
</g>
</svg>
