<?xml version="1.0" encoding="iso-8859-1"?>
<!-- Generator: Adobe Illustrator 18.0.0, SVG Export Plug-In . SVG Version: 6.00 Build 0)  -->
<!DOCTYPE svg PUBLIC "-//W3C//DTD SVG 1.1//EN" "http://www.w3.org/Graphics/SVG/1.1/DTD/svg11.dtd">
<svg version="1.1" id="Capa_1" xmlns="http://www.w3.org/2000/svg" xmlns:xlink="http://www.w3.org/1999/xlink" x="0px" y="0px"
	 viewBox="0 0 462.64 462.64" style="enable-background:new 0 0 462.64 462.64;" xml:space="preserve">
<g>
	<path d="M411.959,141.164c-3.523,0-6.819,0.961-9.667,2.612l-8.436-8.436l15.826-15.826l-27.574-27.573
		c-7.177-7.177-16.719-11.129-26.869-11.129c-8.142,0-15.89,2.549-22.343,7.26c-3.267-13.736-9.311-26.678-17.956-38.221l-1.5-2.003
		h-29.513C281.398,21.044,258.774,0,231.32,0s-50.078,21.044-52.608,47.848h-29.524l-1.5,2.003
		c-8.641,11.538-14.682,24.48-17.948,38.219c-6.452-4.71-14.199-7.258-22.34-7.258c-10.15,0-19.692,3.953-26.869,11.129
		l-27.573,27.573l15.826,15.826l-8.436,8.436c-2.849-1.651-6.144-2.612-9.667-2.612c-10.673,0-19.355,8.683-19.355,19.355
		s8.683,19.355,19.355,19.355c3.525,0,6.822-0.962,9.672-2.615l24.356,24.364c-4.434,5.902-7.065,13.231-7.065,21.165
		c0,19.468,15.838,35.306,35.307,35.306c19.468,0,35.306-15.838,35.306-35.306c0-19.468-15.838-35.307-35.306-35.307
		c-7.936,0-15.268,2.633-21.171,7.07l-24.356-24.364c1.652-2.849,2.613-6.145,2.613-9.668c0-3.525-0.963-6.823-2.616-9.673
		l8.435-8.435l8.988,8.988l42.119-42.119c-0.03,1.038-0.062,2.076-0.062,3.12c0,12.483,2.18,24.695,6.48,36.3
		c4.706,12.69,11.788,24.175,20.68,33.947v90.179h15.457v16.758c-8.253,2.213-14.356,9.736-14.356,18.677
		s6.103,16.464,14.356,18.677v15.641H154.06v59.447h15.457v18.711h-13.69l-18.854,41.901h75.088l-18.854-41.901h-13.69v-18.711
		h15.457V342.58h-15.457v-15.641c8.253-2.213,14.355-9.736,14.355-18.677s-6.103-16.465-14.355-18.677v-16.758h12.981l38.822-52.588
		l38.822,52.588h12.981v16.758c-8.253,2.213-14.355,9.736-14.355,18.677s6.103,16.464,14.355,18.677v15.641h-15.457v59.447h15.457
		v18.711h-13.69l-18.854,41.901h75.088l-18.854-41.901h-13.69v-18.711h15.457V342.58h-15.457v-15.641
		c8.253-2.213,14.356-9.736,14.356-18.677s-6.103-16.465-14.356-18.677v-16.758h15.457v-90.181
		c8.893-9.772,15.975-21.257,20.681-33.946c4.299-11.604,6.48-23.816,6.48-36.299c0-1.043-0.032-2.082-0.062-3.12l42.119,42.119
		l8.988-8.988l8.435,8.435c-1.653,2.85-2.616,6.148-2.616,9.673c0,3.523,0.961,6.82,2.613,9.668l-24.356,24.364
		c-5.903-4.437-13.235-7.07-21.171-7.07c-19.468,0-35.306,15.838-35.306,35.307c0,19.468,15.838,35.306,35.306,35.306
		c19.468,0,35.307-15.838,35.307-35.306c0-7.933-2.631-15.263-7.065-21.165l24.356-24.364c2.849,1.653,6.147,2.615,9.672,2.615
		c10.673,0,19.355-8.683,19.355-19.355S422.632,141.164,411.959,141.164z M50.68,169.875c-5.159,0-9.355-4.197-9.355-9.355
		s4.197-9.355,9.355-9.355s9.355,4.197,9.355,9.355S55.839,169.875,50.68,169.875z M138.255,222.788
		c0,13.954-11.352,25.306-25.306,25.306s-25.307-11.353-25.307-25.306c0-13.954,11.353-25.307,25.307-25.307
		S138.255,208.833,138.255,222.788z M84.843,137.257L67.1,119.515l20.502-20.502c10.222-10.223,26.448-10.873,37.435-1.95
		L84.843,137.257z M196.595,452.64h-44.157l9.854-21.901h24.448L196.595,452.64z M184.974,392.027H164.06V352.58h20.914V392.027z
		 M183.872,308.262c0,5.159-4.197,9.355-9.355,9.355s-9.356-4.197-9.356-9.355s4.197-9.356,9.356-9.356
		S183.872,303.104,183.872,308.262z M310.201,452.64h-44.157l9.854-21.901h24.448L310.201,452.64z M298.58,392.027h-20.914V352.58
		h20.914V392.027z M297.479,308.262c0,5.159-4.197,9.355-9.356,9.355s-9.355-4.197-9.355-9.355s4.197-9.356,9.355-9.356
		S297.479,303.104,297.479,308.262z M231.32,10c21.935,0,40.063,16.57,42.55,37.848h-85.1C191.257,26.57,209.385,10,231.32,10z
		 M308.397,57.848c1.658,2.337,3.188,4.74,4.615,7.19H149.618c1.427-2.451,2.956-4.854,4.614-7.19H308.397z M187.45,262.827h-23.39
		v-70.563c11.408,9.613,24.873,16.814,39.604,20.847c5.896,1.622,11.948,2.706,18.079,3.264L187.45,262.827z M231.32,206.82
		c-8.507,0-16.919-1.127-25.01-3.354c-7.677-2.102-14.97-5.161-21.751-9.032c9.624-16.463,27.513-26.883,46.761-26.883
		c19.248,0,37.136,10.419,46.76,26.881c-6.782,3.872-14.077,6.933-21.756,9.036C248.24,205.693,239.827,206.82,231.32,206.82z
		 M275.19,262.827l-34.293-46.452c6.131-0.558,12.182-1.642,18.074-3.263c14.733-4.035,28.201-11.237,39.609-20.85v70.565H275.19z
		 M319.884,145.224c-6.597,17.791-18.354,32.968-33.385,43.805c-11.452-19.288-32.52-31.477-55.179-31.477
		c-22.66,0-43.728,12.189-55.179,31.478c-15.03-10.835-26.787-26.013-33.384-43.805c-3.886-10.488-5.856-21.531-5.856-32.824
		c0-13.048,2.628-25.677,7.672-37.362h173.49c5.049,11.688,7.679,24.318,7.679,37.362
		C325.74,123.693,323.77,134.737,319.884,145.224z M337.602,97.062c4.974-4.049,11.137-6.25,17.638-6.25
		c7.479,0,14.509,2.912,19.797,8.201l20.502,20.502l-17.742,17.742L337.602,97.062z M349.691,248.094
		c-13.954,0-25.306-11.353-25.306-25.306c0-13.954,11.353-25.307,25.306-25.307c13.954,0,25.307,11.353,25.307,25.307
		C374.997,236.741,363.645,248.094,349.691,248.094z M411.959,169.875c-5.159,0-9.355-4.197-9.355-9.355s4.197-9.355,9.355-9.355
		s9.355,4.197,9.355,9.355S417.118,169.875,411.959,169.875z"/>
	<path d="M211.323,25.159c-1.32,0-2.61,0.54-3.54,1.47c-0.93,0.93-1.46,2.22-1.46,3.53c0,1.32,0.53,2.61,1.46,3.54
		c0.93,0.93,2.22,1.46,3.54,1.46c1.31,0,2.6-0.53,3.53-1.46s1.47-2.22,1.47-3.54c0-1.31-0.54-2.6-1.47-3.53
		C213.923,25.699,212.633,25.159,211.323,25.159z"/>
	<path d="M231.323,25.159c-1.32,0-2.61,0.54-3.54,1.47c-0.93,0.93-1.46,2.22-1.46,3.53c0,1.32,0.53,2.61,1.46,3.54
		c0.93,0.93,2.22,1.46,3.54,1.46c1.31,0,2.6-0.53,3.53-1.46s1.47-2.22,1.47-3.54c0-1.31-0.54-2.6-1.47-3.53
		C233.923,25.699,232.633,25.159,231.323,25.159z"/>
	<path d="M251.323,25.159c-1.32,0-2.61,0.54-3.54,1.47c-0.93,0.93-1.46,2.22-1.46,3.53c0,1.32,0.53,2.61,1.46,3.54
		c0.93,0.93,2.22,1.46,3.54,1.46c1.32,0,2.6-0.53,3.53-1.46s1.47-2.22,1.47-3.54c0-1.31-0.54-2.6-1.47-3.53
		C253.923,25.699,252.643,25.159,251.323,25.159z"/>
	<path d="M292.057,90.56c-9.826,0-18.071,6.809-20.322,15.951h-78.985c-2.251-9.142-10.496-15.951-20.322-15.951
		c-11.552,0-20.951,9.398-20.951,20.951s9.398,20.951,20.951,20.951c9.826,0,18.071-6.809,20.322-15.951h78.985
		c2.251,9.142,10.496,15.951,20.322,15.951c11.552,0,20.951-9.398,20.951-20.951S303.609,90.56,292.057,90.56z M172.427,122.461
		c-6.038,0-10.951-4.913-10.951-10.951s4.913-10.951,10.951-10.951s10.951,4.913,10.951,10.951S178.465,122.461,172.427,122.461z
		 M292.057,122.461c-6.038,0-10.951-4.913-10.951-10.951s4.913-10.951,10.951-10.951s10.951,4.913,10.951,10.951
		S298.095,122.461,292.057,122.461z"/>
</g>
<g>
</g>
<g>
</g>
<g>
</g>
<g>
</g>
<g>
</g>
<g>
</g>
<g>
</g>
<g>
</g>
<g>
</g>
<g>
</g>
<g>
</g>
<g>
</g>
<g>
</g>
<g>
</g>
<g>
</g>
</svg>
