<?xml version="1.0" encoding="iso-8859-1"?>
<!-- Generator: Adobe Illustrator 19.0.0, SVG Export Plug-In . SVG Version: 6.00 Build 0)  -->
<svg version="1.1" id="Capa_1" xmlns="http://www.w3.org/2000/svg" xmlns:xlink="http://www.w3.org/1999/xlink" x="0px" y="0px"
	 viewBox="0 0 463 463" style="enable-background:new 0 0 463 463;" xml:space="preserve">
<g>
	<path d="M462.208,416.146l-9.367-18.733C447.471,386.672,436.675,380,424.667,380h-10.513L400.32,264.712
		c8.847-4.224,14.461-13.752,13.233-24.012l-4.223-35.201c3.569-5.106,5.671-11.31,5.671-17.999c0-17.369-14.131-31.5-31.5-31.5
		c-14.636,0-26.972,10.034-30.492,23.585l-85.096,56.731c-1.443-0.203-2.915-0.315-4.413-0.315H255v-17h2.254
		c7.125,0,13.308-4.828,15.037-11.741L285.356,155H295.5c8.547,0,15.5-6.953,15.5-15.5v-16c0-8.547-6.953-15.5-15.5-15.5H239v-9
		h32.5c4.142,0,7.5-3.358,7.5-7.5v-16c0-21.78-17.72-39.5-39.5-39.5h-16C201.72,36,184,53.72,184,75.5v16c0,4.142,3.358,7.5,7.5,7.5
		H224v9h-56.5c-8.547,0-15.5,6.953-15.5,15.5v16c0,8.547,6.953,15.5,15.5,15.5h10.144l13.065,52.26
		c1.729,6.912,7.912,11.74,15.037,11.74H208v17h-8.5c-1.498,0-2.97,0.112-4.413,0.315l-85.096-56.731
		C106.472,166.034,94.136,156,79.5,156C62.131,156,48,170.131,48,187.5c0,6.689,2.102,12.893,5.671,17.999l-4.223,35.203
		c-1.229,10.259,4.386,19.787,13.233,24.011L48.846,380H38.333c-12.008,0-22.804,6.672-28.174,17.413l-9.367,18.733
		c-1.163,2.325-1.039,5.086,0.328,7.297C2.487,425.654,4.901,427,7.5,427h88c4.142,0,7.5-3.358,7.5-7.5s-3.358-7.5-7.5-7.5H79
		v-17.809c3.93-1.055,7.535-3.119,10.49-6.074l3.313-3.313c2.929-2.929,2.929-7.678,0-10.606c-2.929-2.929-7.678-2.929-10.606,0
		l-3.313,3.313c-1.605,1.605-3.74,2.49-6.011,2.49h-8.919l8.668-72.234l72.456-48.304l23.93,15.953
		C172.528,288.965,184.864,299,199.5,299h64c14.636,0,26.972-10.035,30.492-23.585l23.93-15.953l72.456,48.304L399.046,380h-8.919
		c-2.271,0-4.405-0.884-6.011-2.49l-3.313-3.313c-2.929-2.929-7.678-2.929-10.606,0c-2.929,2.929-2.929,7.678,0,10.606l3.313,3.313
		c2.955,2.955,6.559,5.02,10.49,6.074V412h-16.5c-4.142,0-7.5,3.358-7.5,7.5s3.358,7.5,7.5,7.5h88c2.599,0,5.013-1.346,6.38-3.557
		C463.247,421.232,463.371,418.471,462.208,416.146z M199,75.5c0-13.509,10.991-24.5,24.5-24.5h16c13.509,0,24.5,10.991,24.5,24.5
		V84h-65V75.5z M19.635,412l3.939-7.879c2.813-5.626,8.468-9.121,14.758-9.121H64v17H19.635z M379.087,218.685
		c1.443,0.203,2.915,0.315,4.413,0.315c4.268,0,8.338-0.857,12.053-2.402l3.106,25.887c0.558,4.654-2.775,8.895-7.431,9.455
		c-0.332,0.04-0.668,0.06-1.029,0.06c-4.288,0-7.908-3.219-8.42-7.487l-3.069-25.577L379.087,218.685z M383.5,171
		c9.098,0,16.5,7.402,16.5,16.5s-7.402,16.5-16.5,16.5s-16.5-7.402-16.5-16.5S374.402,171,383.5,171z M353.552,197.25
		c1.763,5.401,4.946,10.162,9.109,13.843l0.057,0.477l-69.27,46.18c-1.81-5.544-5.118-10.414-9.445-14.134L353.552,197.25z
		 M167,139.5v-16c0-0.276,0.224-0.5,0.5-0.5h128c0.276,0,0.5,0.224,0.5,0.5v16c0,0.276-0.224,0.5-0.5,0.5h-128
		C167.224,140,167,139.776,167,139.5z M205.261,203.622L193.106,155h76.789l-12.155,48.621c-0.056,0.224-0.255,0.379-0.485,0.379
		h-51.508C205.516,204,205.316,203.844,205.261,203.622z M223,219h17v17h-17V219z M169.552,257.75l-69.27-46.18l0.057-0.477
		c4.163-3.682,7.347-8.443,9.109-13.843l69.549,46.366C174.67,247.336,171.362,252.206,169.552,257.75z M72.801,252
		c-0.36,0-0.697-0.02-1.031-0.06c-4.653-0.56-7.986-4.801-7.429-9.453l3.106-25.889C71.162,218.143,75.232,219,79.5,219
		c1.498,0,2.97-0.112,4.413-0.315l0.377,0.252l-3.068,25.575C80.709,248.781,77.088,252,72.801,252z M79.5,171
		c9.098,0,16.5,7.402,16.5,16.5S88.598,204,79.5,204S63,196.598,63,187.5S70.402,171,79.5,171z M74.973,288.171l2.601-21.676
		c9.689-2.014,17.317-10.018,18.54-20.195l2.164-18.038l33.279,22.186L74.973,288.171z M263.5,284h-64
		c-9.098,0-16.5-7.402-16.5-16.5s7.402-16.5,16.5-16.5h64c9.098,0,16.5,7.402,16.5,16.5S272.598,284,263.5,284z M331.442,250.448
		l33.279-22.186l2.165,18.039c1.223,10.176,8.851,18.179,18.54,20.194l2.601,21.676L331.442,250.448z M399,412v-17h25.667
		c6.29,0,11.945,3.495,14.758,9.121l3.939,7.879H399z"/>
	<path d="M247,67.5c0-4.142-3.358-7.5-7.5-7.5h-16c-4.142,0-7.5,3.358-7.5,7.5s3.358,7.5,7.5,7.5h16C243.642,75,247,71.642,247,67.5
		z"/>
	<path d="M207.5,260h-8c-4.142,0-7.5,3.358-7.5,7.5s3.358,7.5,7.5,7.5h8c4.142,0,7.5-3.358,7.5-7.5S211.642,260,207.5,260z"/>
	<path d="M263.5,260h-8c-4.142,0-7.5,3.358-7.5,7.5s3.358,7.5,7.5,7.5h8c4.142,0,7.5-3.358,7.5-7.5S267.642,260,263.5,260z"/>
</g>
<g>
</g>
<g>
</g>
<g>
</g>
<g>
</g>
<g>
</g>
<g>
</g>
<g>
</g>
<g>
</g>
<g>
</g>
<g>
</g>
<g>
</g>
<g>
</g>
<g>
</g>
<g>
</g>
<g>
</g>
</svg>
