<svg id="Capa_1" enable-background="new 0 0 512 512" height="512" viewBox="0 0 512 512" width="512" xmlns="http://www.w3.org/2000/svg"><g><path d="m201.003 180v-61.181l-85.136.001c-37.135 0-67.238 30.103-67.238 67.238v93.359h95.917v-64.681h56.458v-34.736" fill="#ffe177"/><path d="m150.208 450.879c0 29.614-24.007 53.621-53.621 53.621s-53.621-24.007-53.621-53.621c0-38.388 53.621-95.777 53.621-95.777s53.621 57.389 53.621 95.777z" fill="#8ac9fe"/><path d="m111.588 502.37c-4.76 1.39-9.79 2.13-15 2.13-29.61 0-53.62-24.01-53.62-53.62 0-38.39 53.62-95.78 53.62-95.78s6.52 6.97 15 17.68c-15.86 20.02-38.62 53.09-38.62 78.1 0 24.4 16.31 45 38.62 51.49z" fill="#60b7ff"/><path d="m188.723 27.5v.703c0 11.046 8.954 20 20 20h138.989c11.046 0 20-8.954 20-20v-.703c0-11.046-8.954-20-20-20h-138.989c-11.045 0-20 8.954-20 20z" fill="#d79b7a"/><path d="m258.728 48.2h-50c-11.05 0-20-8.95-20-20v-.7c0-11.05 8.95-20 20-20h50c-11.05 0-20 8.95-20 20v.7c0 11.05 8.95 20 20 20z" fill="#d08b61"/><path d="m262.615 48.203h36.987v54.54h-36.987z" fill="#ffe177"/><path d="m467.401 262.013h17.854v-190.472h-17.854c-14.172 0-25.661 11.489-25.661 25.661v139.151c0 14.172 11.489 25.66 25.661 25.66z" fill="#d79b7a"/><path d="m166.153 298.154v-.636c0-9.997-8.104-18.101-18.101-18.101h-102.93c-9.997 0-18.101 8.104-18.101 18.101v.636c0 9.997 8.104 18.101 18.101 18.101h102.93c9.997-.001 18.101-8.104 18.101-18.101z" fill="#d79b7a"/><path d="m95.118 316.25h-50c-9.99 0-18.1-8.1-18.1-18.1v-.63c0-10 8.11-18.1 18.1-18.1h50c-9.99 0-18.1 8.1-18.1 18.1v.63c0 10 8.11 18.1 18.1 18.1z" fill="#d08b61"/><path d="m201.003 102.743h163.414v128.156h-163.414z" fill="#d79b7a"/><path d="m200.998 102.74h50v128.16h-50z" fill="#d08b61"/><path d="m364.417 118.819h77.323v95.917h-77.323z" fill="#ffe177"/><path d="m165.868 118.82c-37.14 0-67.24 30.1-67.24 67.24v93.36h-50v-93.36c0-37.14 30.1-67.24 67.24-67.24z" fill="#ffd15b"/><g><g><path d="m96.587 512c-33.702 0-61.121-27.418-61.121-61.121 0-40.876 53.369-98.466 55.641-100.897 1.419-1.518 3.403-2.38 5.48-2.38s4.062.862 5.48 2.38c2.271 2.431 55.64 60.021 55.64 100.897 0 33.703-27.418 61.121-61.12 61.121zm0-145.655c-16.608 19.209-46.121 58.699-46.121 84.534 0 25.431 20.689 46.121 46.121 46.121 25.431 0 46.12-20.689 46.12-46.121 0-25.835-29.512-65.324-46.12-84.534z"/></g><path d="m485.255 64.042h-17.854c-18.284 0-33.16 14.876-33.16 33.161v14.117h-62.322v-8.579c0-4.142-3.357-7.5-7.5-7.5h-57.316v-39.541h40.606c15.163 0 27.5-12.336 27.5-27.5v-.7c0-15.164-12.337-27.5-27.5-27.5h-17.051c-4.143 0-7.5 3.358-7.5 7.5s3.357 7.5 7.5 7.5h17.051c6.893 0 12.5 5.607 12.5 12.5v.7c0 6.893-5.607 12.5-12.5 12.5h-138.98c-6.893 0-12.5-5.607-12.5-12.5v-.7c0-6.893 5.607-12.5 12.5-12.5h89.25c4.143 0 7.5-3.358 7.5-7.5s-3.357-7.5-7.5-7.5h-89.25c-15.163 0-27.5 12.336-27.5 27.5v.7c0 15.164 12.337 27.5 27.5 27.5h46.387v39.54h-54.116c-4.143 0-7.5 3.358-7.5 7.5v8.579l-77.632.001c-41.211 0-74.738 33.527-74.738 74.738v86.175c-30.113 4.734-29.49 51.517 3.99 51.517h34.64c4.143 0 7.5-3.358 7.5-7.5s-3.357-7.5-7.5-7.5h-34.64c-13.432 0-13.983-21.83 0-21.83h102.93c13.431 0 13.982 21.83 0 21.83h-35.61c-4.143 0-7.5 3.358-7.5 7.5s3.357 7.5 7.5 7.5h35.61c31.34 0 36.162-46.45 3.997-51.516v-49.998h41.453v8.664c0 4.142 3.357 7.5 7.5 7.5h163.42c4.143 0 7.5-3.358 7.5-7.5v-8.664h62.322v14.116c0 18.285 14.876 33.161 33.16 33.161h17.854c4.143 0 7.5-3.358 7.5-7.5v-190.471c-.001-4.143-3.358-7.5-7.501-7.5zm-215.14-8.339h21.987v39.537h-21.987zm-61.617 167.697v-30.37c0-4.142-3.357-7.5-7.5-7.5s-7.5 3.358-7.5 7.5v14.207h-48.953c-4.143 0-7.5 3.358-7.5 7.5v57.181h-80.917v-85.859c0-32.939 26.799-59.738 59.738-59.738l77.632-.001v34.031c0 4.142 3.357 7.5 7.5 7.5s7.5-3.358 7.5-7.5v-50.11h148.42v113.159zm163.42-16.164v-80.917h62.322v80.917zm105.837 47.277h-10.354c-10.014 0-18.16-8.147-18.16-18.161v-139.15c0-10.014 8.146-18.161 18.16-18.161h10.354z"/></g></g></svg>