<svg id="Capa_1" enable-background="new 0 0 512 512" height="512" viewBox="0 0 512 512" width="512" xmlns="http://www.w3.org/2000/svg"><g><path d="m486.241 89.37v74.963c0 16.569-13.431 30-30 30h-44.963c-16.569 0-30-13.431-30-30v-74.963z" fill="#528fd8"/><path d="m441.28 194.33h-30c-16.57 0-30-13.43-30-30v-74.96h30v74.96c0 16.57 13.43 30 30 30z" fill="#0573ce"/><path d="m418.759 194.333v175.917c0 11.166-9.084 20.25-20.25 20.25s-20.25-9.084-20.25-20.25v-53.5c0-27.708-22.542-50.25-50.25-50.25h-39.25v30h39.25c11.166 0 20.25 9.084 20.25 20.25v53.5c0 27.708 22.542 50.25 50.25 50.25s50.25-22.542 50.25-50.25v-175.917z" fill="#dbebfc"/><path d="m298.759 212.5h-240c-16.569 0-30-13.431-30-30v-145c0-16.569 13.431-30 30-30h240c16.569 0 30 13.431 30 30v145c0 16.569-13.431 30-30 30z" fill="#fd8087"/><path d="m78.76 212.5h-20c-16.57 0-30-13.43-30-30v-145c0-16.57 13.43-30 30-30h20c-16.57 0-30 13.43-30 30v145c0 16.57 13.43 30 30 30z" fill="#fe646f"/><path d="m116.259 0h125v220h-125z" fill="#ecf6fe" transform="matrix(0 1 -1 0 288.759 -68.759)"/><path d="m288.76 152.5v20h-220v-125h30v105z" fill="#dbebfc"/><path d="m245.275 172.5c-.04-34.53-28.03-62.5-62.56-62.5-34.54 0-62.53 27.97-62.57 62.5z" fill="#dbebfc"/><path d="m245.27 172.5h-125.13c.01-6.99 1.16-13.72 3.29-20h118.55c2.13 6.28 3.28 13.01 3.29 20z" fill="#c9e2fb"/><path d="m25.759 454.5h306v50h-306z" fill="#fd8087"/><path d="m25.76 454.5h50v50h-50z" fill="#fe646f"/><path d="m68.759 212.5h220v242h-220z" fill="#ecf6fe"/><path d="m288.76 212.5v20h-163c-3.866 0-7 3.134-7 7v215h-50v-242z" fill="#dbebfc"/><g><g><path d="m61.259 47.5v125c0 4.142 3.358 7.5 7.5 7.5h220c4.142 0 7.5-3.358 7.5-7.5v-125c0-4.142-3.358-7.5-7.5-7.5h-220c-4.142 0-7.5 3.358-7.5 7.5zm116.021 98.923c1.474 1.547 3.451 2.327 5.431 2.327 1.859 0 3.721-.687 5.172-2.07l22.663-21.593c14.202 8.363 24.343 22.909 26.694 39.913h-109.061c3.706-26.791 26.753-47.5 54.535-47.5 4.308 0 8.496.514 12.522 1.455l-17.701 16.865c-2.997 2.857-3.112 7.605-.255 10.603zm-101.021-91.423h205v110h-28.899c-2.273-21.037-13.895-39.318-30.615-50.583l20.59-19.617c2.999-2.857 3.114-7.605.257-10.604-2.858-3-7.605-3.114-10.604-.257l-24.322 23.173c-7.758-2.97-16.165-4.613-24.951-4.613-36.061 0-65.863 27.417-69.655 62.5h-36.8v-109.999z"/><path d="m486.241 81.87h-23.47v-56.203c0-4.142-3.358-7.5-7.5-7.5s-7.5 3.358-7.5 7.5v56.203h-33.134v-56.203c0-4.142-3.358-7.5-7.5-7.5s-7.5 3.358-7.5 7.5v56.203h-18.359c-4.142 0-7.5 3.358-7.5 7.5v74.963c0 20.672 16.812 37.49 37.482 37.5v168.417c0 7.03-5.72 12.75-12.75 12.75s-12.75-5.72-12.75-12.75v-53.5c0-31.843-25.907-57.75-57.75-57.75h-31.75v-39h2.5c20.678 0 37.5-16.822 37.5-37.5v-145c0-20.678-16.822-37.5-37.5-37.5h-26.42c-4.142 0-7.5 3.358-7.5 7.5s3.358 7.5 7.5 7.5h26.42c12.407 0 22.5 10.093 22.5 22.5v145c0 12.407-10.093 22.5-22.5 22.5h-240c-12.407 0-22.5-10.093-22.5-22.5v-145c0-12.407 10.093-22.5 22.5-22.5h180.9c4.142 0 7.5-3.358 7.5-7.5s-3.358-7.5-7.5-7.5h-180.9c-20.678 0-37.5 16.822-37.5 37.5v145c0 20.678 16.822 37.5 37.5 37.5h2.5v138.55c0 4.142 3.358 7.5 7.5 7.5s7.5-3.358 7.5-7.5v-138.55h205v227h-205v-55.76c0-4.142-3.358-7.5-7.5-7.5s-7.5 3.358-7.5 7.5v55.76h-35.5c-4.142 0-7.5 3.358-7.5 7.5v50c0 4.142 3.358 7.5 7.5 7.5h306c4.142 0 7.5-3.358 7.5-7.5v-50c0-4.142-3.358-7.5-7.5-7.5h-35.5v-143h31.75c7.03 0 12.75 5.72 12.75 12.75v53.5c0 31.843 25.907 57.75 57.75 57.75s57.75-25.907 57.75-57.75v-60.41c0-4.142-3.358-7.5-7.5-7.5s-7.5 3.358-7.5 7.5v60.41c0 23.572-19.178 42.75-42.75 42.75s-42.75-19.178-42.75-42.75v-53.5c0-15.301-12.449-27.75-27.75-27.75h-31.75v-15h31.75c23.572 0 42.75 19.178 42.75 42.75v53.5c0 15.301 12.449 27.75 27.75 27.75s27.75-12.449 27.75-27.75v-168.417h15v75.316c0 4.142 3.358 7.5 7.5 7.5s7.5-3.358 7.5-7.5v-75.317c20.669-.01 37.481-16.828 37.481-37.5v-74.962c0-4.142-3.358-7.5-7.5-7.5zm-161.982 415.13h-291v-35h291zm154.482-332.667c0 12.407-10.093 22.5-22.5 22.5h-44.963c-12.407 0-22.5-10.093-22.5-22.5v-67.463h89.963z"/></g><g><path d="m139.58 415.569c-3.318-2.48-3.901-7.232-1.377-10.517l49.221-64.052h-43.275c-7.167-1.68-9.074-5.797-5.721-12.35l58.497-69c2.678-3.159 7.411-3.551 10.571-.871 3.159 2.679 3.549 7.411.871 10.571l-48.027 56.65h42.306c6.988 1.557 8.97 5.58 5.947 12.07l-58.497 76.122c-2.471 2.583-7.096 3.933-10.516 1.377z"/></g></g></g></svg>