<svg id="Capa_1" enable-background="new 0 0 512 512" height="512" viewBox="0 0 512 512" width="512" xmlns="http://www.w3.org/2000/svg"><g><path d="m17.545 327.171h352.175v177.342h-352.175z" fill="#ecf6fe"/><path d="m55.942 388.33h109.81v43.924h-109.81z" fill="#8ac9fe"/><path d="m55.942 388.33h29.948v43.924h-29.948z" fill="#60b7ff"/><path d="m408.422 150.686v-20.488c0-9.986-8.095-18.082-18.082-18.082h-176.441c-17.755 0-32.148 14.393-32.148 32.148 0 17.755-14.393 32.148-32.148 32.148h-99.91c-17.755 0-32.148-14.393-32.148-32.148 0-17.755 14.393-32.148 32.148-32.148h24.065c12.735 0 23.06-10.324 23.06-23.06 0-12.735-10.324-23.06-23.06-23.06h-26.958c-16.157 0-29.255-13.098-29.255-29.255 0-16.157 13.098-29.255 29.255-29.255h166.648c15.028 0 27.21 12.183 27.21 27.21 0 15.028 12.183 27.21 27.21 27.21h201.244c13.551 0 24.537 10.985 24.537 24.537v2.196c0 12.339-10.002 22.341-22.341 22.341-9.986 0-18.082 8.095-18.082 18.082v21.623h-44.804z" fill="#dbebfc"/><path d="m120.011 72.754c4.173 4.173 6.758 9.933 6.758 16.302 0 12.738-10.332 23.06-23.06 23.06h-24.068c-8.885 0-16.911 3.604-22.731 9.414-5.82 5.82-9.414 13.856-9.414 22.731 0 17.759 14.385 32.154 32.144 32.154h-29.948c-17.759 0-32.144-14.395-32.144-32.154 0-8.875 3.594-16.911 9.414-22.731 5.82-5.81 13.846-9.414 22.731-9.414h24.068c12.728 0 23.06-10.322 23.06-23.06 0-6.369-2.586-12.129-6.758-16.302-4.173-4.173-9.943-6.758-16.302-6.758h-26.963c-16.152 0-29.25-13.097-29.25-29.249 0-8.076 3.274-15.393 8.565-20.694 5.291-5.291 12.608-8.565 20.684-8.565h29.948c-8.076 0-15.394 3.274-20.684 8.565-5.291 5.301-8.565 12.618-8.565 20.694 0 16.152 13.097 29.249 29.25 29.249h26.963c6.359 0 12.129 2.586 16.302 6.758z" fill="#c9e2fb"/><path d="m50.818 327.171 114.934-71.782v71.782z" fill="#8ac9fe"/><path d="m216.544 327.171 114.935-71.782v71.782z" fill="#8ac9fe"/><path d="m17.548 327.175h29.948v177.334h-29.948z" fill="#dbebfc"/><path d="m398.63 150.686h61.391l9.983 176.485h-81.357z" fill="#eaf6ff"/><path d="m428.578 150.69-9.982 176.485h-29.949l9.983-176.485z" fill="#d8ecfe"/><path d="m425.025 213.462-2.366 41.927h-29.949l2.366-41.927z" fill="#fe646f"/><path d="m463.578 213.462h-68.502l-2.366 41.927h73.234z" fill="#fd8087"/><path d="m425.025 213.462-2.366 41.927h-29.949l2.366-41.927z" fill="#fe646f"/><path d="m369.72 327.171h119.211v177.342h-119.211z" fill="#8ac9fe"/><path d="m369.72 327.175h49.914v177.338h-49.914z" fill="#60b7ff"/><path d="m219.106 388.33h109.81v43.924h-109.81z" fill="#b3dafe"/><path d="m219.106 388.33h109.81v43.924h-109.81z" fill="#8ac9fe"/><path d="m219.11 388.33h29.948v43.924h-29.948z" fill="#60b7ff"/><g><path d="m471.305 118.465c41.291 0 41.124-64.05-2.196-64.05h-128.11c-4.135 0-7.487 3.352-7.487 7.487s3.352 7.487 7.487 7.487h128.109c20.101 0 23.482 32.106 2.196 34.101-14.097 0-25.566 11.473-25.566 25.576v14.132h-29.828v-13.004c0-14.097-11.468-25.566-25.565-25.566h-176.446c-21.625 0-39.632 18.006-39.632 39.631 0 13.602-11.066 24.668-24.667 24.668h-99.907c-15.034-1.409-23.253-9.632-24.658-24.668 0-13.596 11.061-24.657 24.658-24.657h24.068c16.658 0 30.548-13.889 30.548-30.547 0-16.844-13.704-30.547-30.548-30.547h-26.964c-13.265-1.242-20.519-8.496-21.762-21.762 0-12.005 9.762-21.772 21.762-21.772h166.653c12.02 1.128 18.596 7.704 19.726 19.726 0 19.128 15.562 34.69 34.69 34.69h40.5c4.135 0 7.487-3.352 7.487-7.487s-3.352-7.487-7.487-7.487h-40.5c-10.872 0-19.716-8.845-19.716-19.716 0-18.931-15.77-34.7-34.7-34.7h-166.653c-20.256 0-36.736 16.485-36.736 36.747 0 20.046 16.692 36.736 36.736 36.736h26.963c8.588 0 15.574 6.986 15.574 15.573-.897 9.486-6.088 14.677-15.574 15.573h-24.067c-21.853 0-39.632 17.778-39.632 39.631 0 21.629 17.999 39.642 39.632 39.642h99.907c21.859 0 39.642-17.783 39.642-39.642 1.409-15.029 9.628-23.248 24.658-24.657h176.445c5.84 0 10.591 4.752 10.591 10.592v13.004h-22.993c-4.135 0-7.487 3.352-7.487 7.487s3.352 7.487 7.487 7.487h12.765l-9.136 161.515-42.606-.005v-64.294c.13-7.487-5.037-9.889-11.453-6.35l-113.114 70.645h-41.159v-64.294c-.019-7.264-4.894-10.014-11.453-6.35l-113.115 70.644h-31.127c-4.135 0-7.487 3.352-7.487 7.487v177.342c0 4.135 3.352 7.487 7.487 7.487h471.389c4.135 0 7.487-3.352 7.487-7.487v-43.742c0-4.135-3.352-7.487-7.487-7.487s-7.487 3.352-7.487 7.487v36.255h-104.24v-162.363h104.24v93.311c0 4.135 3.352 7.487 7.487 7.487s7.487-3.352 7.487-7.487v-100.799c0-4.135-3.352-7.487-7.487-7.487h-11.855l-9.136-161.515h12.765c4.135 0 7.487-3.352 7.487-7.487s-3.352-7.487-7.487-7.487h-19.996v-14.132c.001-5.846 4.752-10.602 10.593-10.602zm-147.313 150.427v50.791h-81.325zm-165.727 0v50.791h-81.325zm-133.233 65.766h337.201v162.368h-337.201zm427.913-176.485 2.704 47.801h-52.646l2.704-47.801zm9.135 161.511h-65.51l3.213-56.807h59.084zm-4.06-71.782h-57.39l1.525-26.953h54.34z"/><path d="m165.752 380.843h-33.751c-4.135 0-7.487 3.352-7.487 7.487s3.352 7.487 7.487 7.487h26.264v28.95h-94.836v-28.95h35.938c4.135 0 7.487-3.352 7.487-7.487s-3.352-7.487-7.487-7.487h-43.425c-4.135 0-7.487 3.352-7.487 7.487v43.924c0 4.135 3.352 7.487 7.487 7.487h109.81c4.135 0 7.487-3.352 7.487-7.487v-43.924c0-4.135-3.351-7.487-7.487-7.487z"/><path d="m328.917 380.843h-109.81c-4.135 0-7.487 3.352-7.487 7.487v43.924c0 4.135 3.352 7.487 7.487 7.487h109.81c4.135 0 7.487-3.352 7.487-7.487v-43.924c0-4.135-3.352-7.487-7.487-7.487zm-7.487 43.924h-94.836v-28.95h94.836z"/></g></g></svg>