<svg id="Capa_1" enable-background="new 0 0 512.031 512.031" height="512" viewBox="0 0 512.031 512.031" width="512" xmlns="http://www.w3.org/2000/svg"><g><path d="m99.639 80v-45h134.713l63.734-27.5h117.269v72.5" fill="#dbebfc"/><path d="m99.636 35h50v45h-50z" fill="#c9e2fb"/><path d="m437.012 122h-361.993v-22.439c0-10.803 8.758-19.561 19.561-19.561h322.872c10.803 0 19.561 8.758 19.561 19.561v22.439z" fill="#97d729"/><path d="m144.576 80c-10.8 0-19.56 8.76-19.56 19.56v22.44h-50v-22.44c0-10.8 8.76-19.56 19.56-19.56z" fill="#92ce20"/><path d="m378.564 504.531h-242.134l-36.791-382.531h315.716z" fill="#c6ea7c"/><path d="m413.436 142h-256.095c-4.131 0-7.363 3.558-6.968 7.67l34.132 354.86h-48.08l-36.789-382.53h315.72z" fill="#b2e254"/><g><path d="m237.734 327.893h-46.404c-2.672-.498-3.591-2.04-2.759-4.627l21.27-39.363 3.429 9.478c1.745 4.787 5.782 5.795 9.604 4.501 3.895-1.409 5.91-5.709 4.501-9.604l-9.123-25.217c-1.286-3.577-5.226-5.636-8.902-4.717l-27.269 6.938c-4.014 1.021-6.44 5.104-5.419 9.118 1.021 4.015 5.102 6.439 9.118 5.419l10.687-2.719-21.094 39.037c-7.558 14.884-2.914 26.758 15.956 26.758h46.404c4.143 0 7.5-3.358 7.5-7.5s-3.356-7.502-7.499-7.502z"/><path d="m343.953 314.736-24.538-42.502c-2.07-3.587-6.66-4.817-10.245-2.745-3.587 2.071-4.816 6.658-2.745 10.245l24.538 42.503c.899 2.529.048 4.096-2.551 4.7h-45.044l6.736-7.996c2.668-3.168 2.264-7.899-.904-10.568-3.17-2.67-7.9-2.264-10.568.904l-17.277 20.509c-2.429 2.863-2.304 7.398.366 10.068l19.642 20.146c3.517 2.973 7.052 3.018 10.605.134 2.966-2.892 3.026-7.64.135-10.606l-7.402-7.592h43.845c14.47-.436 23.72-12.686 15.407-27.2z"/><path d="m283.205 239.822-9.924-1.77c-4.07-.725-7.973 1.989-8.7 6.066-.727 4.078 1.989 7.973 6.067 8.7l26.4 4.708c3.514.628 7.869-1.655 8.55-5.4l7.612-27.035c1.122-3.987-1.2-8.129-5.187-9.252-3.988-1.124-8.13 1.199-9.253 5.187l-2.988 10.615-23.26-37.786c-8.758-13.105-21.758-14.855-31.15.439l-23.548 40.785c-2.071 3.587-.842 8.174 2.745 10.245 3.585 2.071 8.174.842 10.245-2.745l23.548-40.785c1.767-2.065 3.562-2.09 5.387-.076z"/></g><path d="m334.224 45.25h81.131v34.75h-81.131z" fill="#c9e2fb"/><circle cx="378.511" cy="449.531" fill="#97d729" r="55"/><circle cx="378.511" cy="449.531" fill="#ecf6fe" r="22.667"/><path d="m422.855 73.042v-65.542c0-4.142-3.357-7.5-7.5-7.5h-50.93c-4.143 0-7.5 3.358-7.5 7.5s3.357 7.5 7.5 7.5h43.43v22.75h-73.632c-4.143 0-7.5 3.358-7.5 7.5v27.25h-219.587v-30h127.22c1.021 0 2.033-.209 2.972-.614l62.307-26.886h32.111c4.143 0 7.5-3.358 7.5-7.5s-3.357-7.5-7.5-7.5h-33.66c-1.021 0-2.033.209-2.972.614l-62.307 26.886h-133.171c-4.143 0-7.5 3.358-7.5 7.5v37.615c-13.781 1.238-24.62 12.847-24.62 26.945v22.44c0 4.142 3.357 7.5 7.5 7.5h17.807l36.138 375.748c.37 3.847 3.602 6.782 7.466 6.782h242.028c.019 0 .038.001.058.001 34.463 0 62.5-28.038 62.5-62.5 0-27.982-18.485-51.727-43.884-59.668l3.694-38.365c.396-4.123-2.624-7.787-6.747-8.184-4.129-.409-7.787 2.625-8.185 6.747l-3.572 37.097c-35.28-2.131-66.306 26.912-66.306 62.373 0 18.995 8.529 36.026 21.946 47.499h-194.72l-35.347-367.53h41.794c4.143 0 7.5-3.358 7.5-7.5s-3.357-7.5-7.5-7.5h-67.17v-14.94c0-6.65 5.41-12.06 12.06-12.06h322.881c6.649 0 12.06 5.41 12.06 12.06v14.94h-247.14c-4.143 0-7.5 3.358-7.5 7.5s3.357 7.5 7.5 7.5h224.723l-18.07 187.872c-.396 4.123 2.625 7.787 6.748 8.183.244.024.486.035.727.035 3.818 0 7.084-2.904 7.457-6.782l18.207-189.308h14.847c4.143 0 7.5-3.358 7.5-7.5v-22.44c0-13.072-9.318-24.008-21.661-26.518zm-91.843 376.489c0-26.191 21.309-47.5 47.5-47.5s47.5 21.309 47.5 47.5c0 26.184-21.297 47.487-47.478 47.499-.006 0-.012-.001-.018-.001h-.062c-26.165-.031-47.442-21.326-47.442-47.498zm10.712-396.781h66.132v19.75h-66.132z"/><g><path d="m378.512 479.698c-16.634 0-30.167-13.533-30.167-30.167s13.533-30.167 30.167-30.167 30.166 13.533 30.166 30.167-13.532 30.167-30.166 30.167zm0-45.333c-8.363 0-15.167 6.804-15.167 15.167s6.804 15.167 15.167 15.167c8.362 0 15.166-6.804 15.166-15.167s-6.804-15.167-15.166-15.167z"/></g></g></svg>