<svg id="Capa_1" enable-background="new 0 0 512.06 512.06" height="512" viewBox="0 0 512.06 512.06" width="512" xmlns="http://www.w3.org/2000/svg"><g><path d="m434.432 326.159c0 98.529-79.874 178.402-178.402 178.402-98.529 0-178.402-79.874-178.402-178.402 0-127.721 178.402-318.66 178.402-318.66s178.402 190.939 178.402 318.66z" fill="#8ac9fe"/><path d="m281.03 502.82c-8.17 1.15-16.52 1.74-25 1.74-98.53 0-178.4-79.87-178.4-178.4 0-127.72 178.4-318.66 178.4-318.66s9.88 10.58 25 28.42c-49.1 57.96-153.4 192.58-153.4 290.24 0 90.05 66.71 164.51 153.4 176.66z" fill="#60b7ff"/><g><path d="m256.03 445.276v-104.382h-106.094l106.094-173.497v104.497h106.094z" fill="#fef48b"/></g><g><g fill="#fef056"><path d="m256.03 216.46-76.09 124.43h-30l106.09-173.49z"/><path d="m286.03 340.89v55.36l-30 49.03v-104.39z"/></g></g><g><path d="m373.939 148.386c-10.611-16.69-21.838-33.023-33.461-49.023-2.434-3.351-7.125-4.096-10.476-1.66-3.352 2.434-4.095 7.125-1.66 10.476 11.441 15.75 22.492 31.826 32.938 48.254 43.562 68.555 65.65 125.66 65.65 169.728 0 59.146-29.929 113.27-80.061 144.78-3.507 2.204-4.563 6.834-2.358 10.341 3.123 3.68 6.57 4.466 10.341 2.358 53.461-33.603 87.079-94.278 87.079-157.479-.001-46.964-22.876-106.775-67.992-177.775z"/><path d="m315.554 486.4c-19.008 7.073-39.035 10.659-59.524 10.659-94.234 0-170.9-76.666-170.9-170.9 0-50.642 30.339-120.759 87.737-202.771 34.772-49.684 69.935-90.007 83.165-104.746 8.653 9.632 26.676 30.188 47.767 57.077 2.557 3.259 7.271 3.828 10.53 1.272 3.259-2.557 3.829-7.271 1.272-10.53-29.904-38.124-53.852-63.826-54.091-64.082-1.418-1.517-3.403-2.379-5.48-2.379s-4.062.862-5.48 2.38c-.45.481-45.474 48.854-89.864 112.253-60.089 85.822-90.556 156.99-90.556 211.527 0 102.505 83.395 185.9 185.9 185.9 22.282 0 44.069-3.903 64.756-11.601 3.882-1.445 5.858-5.763 4.414-9.645-1.446-3.882-5.761-5.858-9.646-4.414z"/><path d="m253.997 452.499c3.18.857 5.99-.245 8.431-3.305l106.09-173.39c2.326-6.304.193-10.109-6.397-11.415h-98.59v-96.989c-.125-8.995-9.25-10.745-13.898-3.913l-106.09 173.49c-2.324 6.303-.191 10.107 6.398 11.413h41c4.142 0 7.5-3.358 7.5-7.5s-3.358-7.5-7.5-7.5h-27.623l85.212-139.349v77.849c0 4.142 3.358 7.5 7.5 7.5h92.708l-85.208 139.262v-77.762c0-4.142-3.358-7.5-7.5-7.5h-32.4c-4.142 0-7.5 3.358-7.5 7.5s3.358 7.5 7.5 7.5h24.9v96.89c0 3.359 2.233 6.308 5.467 7.219z"/></g></g></svg>