<svg id="Capa_1" enable-background="new 0 0 512 512" height="512" viewBox="0 0 512 512" width="512" xmlns="http://www.w3.org/2000/svg"><g><g><path d="m256.771 361.973v-79.615h-80.92l80.92-132.331v79.703h80.921z" fill="#fef48b"/></g><g><path d="m256.771 199.012-50.968 83.346h-29.952l80.92-132.328z" fill="#fef056"/></g><g><g fill="#c6ea7c"><path d="m256.749 427.06c-84.769 0-155.326-61.991-168.748-143.015h34.828c4.857 0 7.476-5.698 4.315-9.384l-59.271-69.11-59.271 69.11c-3.162 3.687-.542 9.384 4.315 9.384h35.872c6.029 45.412 26.653 87.384 59.597 120.32 39.625 39.635 92.323 61.458 148.365 61.458s108.738-21.823 148.363-61.458c7.699-7.699 14.725-15.889 21.051-24.502 6.568-8.943 4.339-21.561-4.901-27.703-8.694-5.78-20.335-3.609-26.511 4.809-31.157 42.47-81.414 70.091-138.004 70.091z"/><path d="m499.136 233.711h-33.739c-4.996-47.617-25.951-91.752-60.283-126.076-39.625-39.635-92.323-61.458-148.365-61.458s-108.739 21.823-148.364 61.458c-7.766 7.761-14.851 16.025-21.22 24.721-7.24 9.884-3.361 23.954 7.84 28.919l.32.142c8.321 3.688 18.021.99 23.403-6.35 31.15-42.487 81.415-70.128 138.022-70.128 86.767 0 158.651 64.944 169.609 148.772h-37.135c-4.857 0-7.476 5.697-4.314 9.384l59.271 69.111 59.271-69.111c3.161-3.686.541-9.384-4.316-9.384z"/></g></g><g><g fill="#b2e254"><path d="m42.865 284.045h-29.952c-4.852 0-7.478-5.701-4.313-9.385l59.275-69.109 14.976 17.462-44.299 51.647c-3.165 3.684-.539 9.385 4.313 9.385z"/><path d="m138.332 404.361c36.072 36.082 82.987 57.408 133.396 60.942-4.962.339-9.954.519-14.976.519-56.04 0-108.745-21.825-148.371-61.461-32.937-32.937-53.564-74.9-59.594-120.317h29.952c6.029 45.418 26.656 87.38 59.593 120.317z"/><path d="m117.116 132.359c-5.421 7.408-4.613 17.162.849 23.672-5.491 6.609-14.696 8.906-22.644 5.391l-.319-.15c-11.202-4.962-15.076-19.029-7.837-28.914 6.37-8.696 13.458-16.963 21.216-24.72 39.626-39.636 92.332-61.461 148.371-61.461 5.022 0 10.014.18 14.976.519-50.409 3.534-97.324 24.86-133.396 60.942-7.758 7.758-14.847 16.025-21.216 24.721z"/><path d="m426.359 233.716c-10.323-78.963-74.69-141.163-154.631-148.122 4.932-.439 9.934-.659 14.976-.659 86.761 0 158.645 64.946 169.607 148.781z"/><path d="m459.156 294.748-14.976 17.462-59.275-69.119c-3.155-3.684-.539-9.375 4.313-9.375h29.952c-4.852 0-7.468 5.691-4.313 9.375z"/></g></g><g><g><g><path d="m256.751 473.311c-58.055 0-112.629-22.606-153.667-63.655-32.513-32.512-53.435-73.239-60.759-118.123h-29.412c-12.863-.589-15.957-10.233-9.992-21.752l59.27-69.105c2.988-3.484 8.38-3.484 11.368.001l59.265 69.11c8.799 9.177 4.473 21.157-9.998 21.746h-25.746c8.03 36.107 28.943 69.304 57.815 92.361 3.232 2.581 3.759 7.292 1.178 10.523-2.581 3.233-7.292 3.759-10.524 1.179-34.179-27.293-57.768-67.144-64.934-110.326-.229-5.186 2.234-8.09 7.387-8.714h30.9l-51.028-59.504-51.036 59.504h31.947c3.755 0 6.929 2.781 7.423 6.502 5.864 44.162 25.735 84.278 57.466 116.007 38.211 38.221 89.022 59.269 143.077 59.269 64.042 0 125.494-31.316 163.382-82.908 6.178-10.494-6.048-28.311-19.35-14.026-50.117 68.331-144.837 92.418-221.286 55.556-3.725-1.796-5.289-6.272-3.493-9.998 1.796-3.725 6.274-5.287 9.997-3.492 71.847 34.645 153.838 9.256 202.709-50.928 23.061-28.399 64.45 3.176 43.496 31.75-40.682 55.389-106.685 89.023-175.455 89.023z"/></g><g><path d="m438.496 317.084-59.275-69.118c-7.301-10.583-3.641-21.252 9.998-21.738h28.384c-14.182-76.857-81.87-133.804-160.851-133.804-51.855 0-100.925 25.272-131.989 67.067-24.239 32.613-65.174-2.331-43.639-31.556 40.827-55.406 106.761-89.245 175.628-89.245 40.116 0 80.327 11.292 114.414 32.467 3.513 2.183 4.591 6.8 2.409 10.313-2.183 3.513-6.8 4.588-10.313 2.409-31.751-19.726-69.147-30.213-106.511-30.213-64.137 0-125.666 31.402-163.547 83.118-7.972 10.887 9.621 27.312 19.477 13.855 33.393-45.54 87.557-73.191 144.069-73.191 89.348 0 165.455 66.764 177.032 155.297.079 5.061-2.396 7.881-7.425 8.459h-33.208l51.029 59.504 51.029-59.504h-29.813c-3.834 0-7.047-2.895-7.447-6.707-5.053-48.204-27.646-93.48-63.198-126.449-3.033-2.811-3.213-7.549-.401-10.582 2.811-3.034 7.549-3.212 10.582-.401 36.501 33.835 60.424 79.849 67.106 129.162h27.094c12.622 2.971 15.959 10.215 10.01 21.734l-59.278 69.123c-3.521 3.687-7.639 3.687-11.366 0z"/></g></g><g><g><path d="m249.283 361.969v-72.123h-73.432c-7.313-.15-10.309-3.769-6.388-11.395l80.92-132.327c4.766-6.562 13.627-5.064 13.876 3.907v72.214h73.432c6.58 1.304 8.709 5.103 6.387 11.396l-24.899 40.694c-2.158 3.529-6.767 4.639-10.295 2.479-3.528-2.159-4.638-6.767-2.479-10.295l17.927-29.299h-67.56c-4.135 0-7.488-3.352-7.488-7.488v-53.104l-60.076 98.241h67.564c4.136 0 7.488 3.352 7.488 7.488v53.029l22.177-36.242c2.161-3.527 6.77-4.634 10.296-2.478 3.528 2.159 4.637 6.768 2.478 10.296l-36.052 58.915c-4.141 7.06-13.626 4.928-13.876-3.908z"/></g></g></g></g></svg>