<svg id="Capa_1" enable-background="new 0 0 512 512" height="512" viewBox="0 0 512 512" width="512" xmlns="http://www.w3.org/2000/svg"><g><path d="m234.18 372.605c-2.4 6.44-5.64 12.49-9.58 17.99-29.59-9.7-52.94-32.59-63.38-61.62-21.49-1.85-41.5-10.49-57.08-24.8-18.15-16.67-28.14-38.97-28.14-62.79 0-23.69 10.3-46.31 28.09-62.72-.05-.32-.1-.64-.14-.95-.72-5.02-1.08-10.08-1.08-15.08 0-40.03 22.98-76.83 59.49-96.78.36-2.48.83-4.93 1.41-7.34 6.45 3.52 12.52 8.44 17.89 14.95-.11 1.43-.16 2.88-.16 4.34 0 .33.02.66.03.99-34.61 14.52-58.66 46.6-58.66 83.84 0 4.13.3 8.21.87 12.2.58 3.99 1.43 7.9 2.54 11.71-18.35 12.37-30.28 32.32-30.28 54.84 0 18.77 8.28 35.76 21.67 48.06s31.88 19.91 52.31 19.91h6.61c5.54 30.49 28.16 55 57.59 63.25z" fill="#02905d"/><path d="m436 241.385c0 45.75-37.5 83.45-85.24 87.59-5.97 16.55-16.25 31.42-29.86 42.9-9.85 8.31-21.31 14.7-33.51 18.71-3.95-5.5-7.18-11.54-9.58-17.98v-.01c11.25-3.14 21.5-8.67 30.19-16 14.04-11.85 23.99-28.41 27.41-47.24h6.61c40.86 0 73.98-30.43 73.98-67.97 0-11.26-2.98-21.88-8.26-31.23s-12.84-17.43-22.02-23.61c2.22-7.62 3.41-15.64 3.41-23.91 0-18.62-6.01-35.95-16.35-50.44s-25-26.14-42.31-33.4c.01-.33.03-.66.03-.99 0-1.46-.05-2.91-.16-4.34 5.37-6.51 11.44-11.43 17.89-14.95.58 2.41 1.05 4.86 1.41 7.34 15.74 8.59 29.22 20.43 39.42 34.72 13.13 18.4 20.07 39.86 20.07 62.06 0 5.38-.41 10.73-1.22 16.02 6.88 6.34 12.73 13.68 17.25 21.66 7.09 12.57 10.84 26.77 10.84 41.07z" fill="#02905d"/><path d="m236.78 373.285c-30.69-7.5-54.49-32.55-60.19-63.93h-6.61c-20.43 0-38.92-7.61-52.31-19.91s-21.67-29.29-21.67-48.06c0-22.52 11.93-42.47 30.28-54.84-1.11-3.81-1.96-7.72-2.54-11.71-.57-3.99-.87-8.07-.87-12.2 0-37.24 24.05-69.32 58.66-83.84-.01-.33-.03-.66-.03-.99 0-37.8 33.36-68.45 74.5-68.45s74.5 30.65 74.5 68.45c0 .33-.02.66-.03.99 17.31 7.26 31.97 18.91 42.31 33.4s16.35 31.82 16.35 50.44c0 8.27-1.19 16.29-3.41 23.91 9.18 6.18 16.74 14.26 22.02 23.61s8.26 19.97 8.26 31.23c0 37.54-33.12 67.97-73.98 67.97h-6.61c-3.42 18.83-13.37 35.39-27.41 47.24-9.35 7.89-20.51 13.69-32.78 16.69z" fill="#c6ea7c"/><path d="m375.83 418.915v83.73h-38.44v-80.64c4.28.74 8.68 1.12 13.17 1.12 8.85 0 17.35-1.48 25.27-4.21z" fill="#d79b7a"/><path d="m172.552 421.075v81.57h-38.44v-82.29c6.58 1.8 13.5 2.77 20.65 2.77 6.12 0 12.08-.71 17.79-2.05z" fill="#d79b7a"/><path d="m504.5 294.015c0 18.06-7.97 34.4-20.86 46.24-12.88 11.83-30.67 19.15-50.32 19.15h-6.36c-6.58 36.23-38.27 63.72-76.4 63.72-19.06 0-36.52-6.87-50.02-18.27-10.12-8.54-18.02-19.62-22.73-32.25v-.01c11.25-3.14 21.5-8.67 30.19-16 14.04-11.85 23.99-28.41 27.41-47.24h6.61c40.86 0 73.98-30.43 73.98-67.97 0-11.26-2.98-21.88-8.26-31.23s-12.84-17.43-22.02-23.61c2.22-7.62 3.41-15.64 3.41-23.91 0-18.62-6.01-35.95-16.35-50.44s-25-26.14-42.31-33.4c.01-.33.03-.66.03-.99 0-1.46-.05-2.91-.16-4.34 43.16-52.32 132.16-2.67 91.91 63.18 0 .32-.02.63-.03.94 33.29 13.98 56.43 44.85 56.43 80.67 0 3.97-.29 7.9-.84 11.73-.56 3.85-1.37 7.6-2.44 11.27 17.65 11.9 29.13 31.1 29.13 52.76z" fill="#97d729"/><path d="m436 241.385c0 45.75-37.5 83.45-85.24 87.59-5.97 16.55-16.25 31.42-29.86 42.9-9.85 8.31-21.31 14.7-33.51 18.71-3.95-5.5-7.18-11.54-9.58-17.98v-.01c11.25-3.14 21.5-8.67 30.19-16 14.04-11.85 23.99-28.41 27.41-47.24h6.61c40.86 0 73.98-30.43 73.98-67.97 0-11.26-2.98-21.88-8.26-31.23s-12.84-17.43-22.02-23.61c2.22-7.62 3.41-15.64 3.41-23.91 0-18.62-6.01-35.95-16.35-50.44s-25-26.14-42.31-33.4c.01-.33.03-.66.03-.99 0-1.46-.05-2.91-.16-4.34 5.37-6.51 11.44-11.43 17.89-14.95.58 2.41 1.05 4.86 1.41 7.34 15.74 8.59 29.22 20.43 39.42 34.72 13.13 18.4 20.07 39.86 20.07 62.06 0 5.38-.41 10.73-1.22 16.02 6.88 6.34 12.73 13.68 17.25 21.66 7.09 12.57 10.84 26.77 10.84 41.07z" fill="#92ce20"/><path d="m234.18 372.605c-4.71 12.63-12.61 23.71-22.73 32.25-13.5 11.4-30.96 18.27-50.02 18.27-38.13 0-69.82-27.49-76.4-63.72h-6.36c-19.65 0-37.44-7.32-50.32-19.15-12.88-11.84-20.85-28.18-20.85-46.24 0-21.66 11.48-40.86 29.13-52.76-1.07-3.67-1.88-7.42-2.44-11.27-.55-3.83-.84-7.76-.84-11.73 0-35.82 23.14-66.69 56.43-80.67-.01-.31-.03-.62-.03-.94-40.25-65.85 48.75-115.5 91.91-63.18-.11 1.43-.16 2.88-.16 4.34 0 .33.02.66.03.99-34.61 14.52-58.66 46.6-58.66 83.84 0 4.13.3 8.21.87 12.2.58 3.99 1.43 7.9 2.54 11.71-18.35 12.37-30.28 32.32-30.28 54.84 0 18.77 8.28 35.76 21.67 48.06s31.88 19.91 52.31 19.91h6.61c5.54 30.49 28.16 55 57.59 63.25z" fill="#97d729"/><path d="m234.18 372.605c-2.4 6.44-5.64 12.49-9.58 17.99-29.59-9.7-52.94-32.59-63.38-61.62-21.49-1.85-41.5-10.49-57.08-24.8-18.15-16.67-28.14-38.97-28.14-62.79 0-23.69 10.3-46.31 28.09-62.72-.05-.32-.1-.64-.14-.95-.72-5.02-1.08-10.08-1.08-15.08 0-40.03 22.98-76.83 59.49-96.78.36-2.48.83-4.93 1.41-7.34 6.45 3.52 12.52 8.44 17.89 14.95-.11 1.43-.16 2.88-.16 4.34 0 .33.02.66.03.99-34.61 14.52-58.66 46.6-58.66 83.84 0 4.13.3 8.21.87 12.2.58 3.99 1.43 7.9 2.54 11.71-18.35 12.37-30.28 32.32-30.28 54.84 0 18.77 8.28 35.76 21.67 48.06s31.88 19.91 52.31 19.91h6.61c5.54 30.49 28.16 55 57.59 63.25z" fill="#92ce20"/><path d="m280.99 371.635c-1.89.62-3.82 1.17-5.77 1.65h-38.44c-30.69-7.5-54.49-32.55-60.19-63.93h-6.61c-20.43 0-38.92-7.61-52.31-19.91s-21.67-29.29-21.67-48.06c0-22.52 11.93-42.47 30.28-54.84-1.11-3.81-1.96-7.72-2.54-11.71-.57-3.99-.87-8.07-.87-12.2 0-37.24 24.05-69.32 58.66-83.84-.01-.33-.03-.66-.03-.99 0-37.8 33.36-68.45 74.5-68.45 8.77 0 17.19 1.39 25 3.95-28.85 9.44-49.5 34.76-49.5 64.5 0 .33.02.66.03.99-34.61 14.52-58.66 46.6-58.66 83.84 0 4.13.3 8.21.87 12.2.58 3.99 1.43 7.9 2.54 11.71-18.35 12.37-30.28 32.32-30.28 54.84 0 18.77 8.28 35.76 21.67 48.06s31.88 19.91 52.31 19.91h6.61c5.34 29.38 26.53 53.21 54.4 62.28z" fill="#b2e254"/><path d="m275.223 502.645h-38.446v-391.194c0-10.617 8.606-19.223 19.223-19.223 10.617 0 19.223 8.606 19.223 19.223z" fill="#d79b7a"/><path d="m483.907 238.189c2.736-12.032 2.939-25.296.538-37.34-.81-4.062-4.752-6.699-8.821-5.89-4.063.81-6.699 4.759-5.89 8.821 2.287 11.476 1.717 24.122-1.564 35.375-.913 3.132.303 6.494 3.008 8.318 16.169 10.901 25.822 28.3 25.822 46.541 0 15.337-6.547 29.798-18.434 40.717-13.885 12.754-33.081 17.888-51.606 17.173-3.625 0-6.731 2.593-7.379 6.16-6.058 33.353-35.085 57.561-69.021 57.561-25.914 0-50.911-15.441-62.598-38.531 9.01-3.516 17.468-8.517 24.876-14.768 14.052-11.86 24.056-27.829 28.601-45.472h.581c44.929 0 81.48-33.855 81.48-75.47 0-12.149-3.191-24.225-9.229-34.919-4.953-8.771-11.81-16.636-20.004-22.991 1.569-6.825 2.363-13.813 2.363-20.84 0-19.58-6.136-38.528-17.744-54.797-10.002-14.016-23.572-25.394-39.5-33.211 20.008-20.475 48.8-18.631 66.831-5.78 16.394 11.684 27.534 34.603 9.635 63.887-2.259 3.697-1.092 9.853 3.466 11.767 15.276 6.414 28.22 16.614 37.433 29.497 3.249 3.49 6.737 4.07 10.463 1.738 3.369-2.409 4.147-7.094 1.738-10.463-9.348-13.073-21.918-23.776-36.655-31.278 13.623-27.226 8.099-59.208-17.374-77.363-21.377-15.234-54.479-18.497-79.713 1.563-9.362-32.402-41.316-56.339-79.21-56.339-37.893 0-69.847 23.938-79.208 56.339-25.234-20.06-58.335-16.798-79.714-1.562-25.474 18.156-30.995 50.138-17.372 77.364-37.99 19.36-61.249 61.838-51.613 104.192-17.685 13.791-28.093 34.298-28.093 55.827 0 19.581 8.266 37.964 23.307 51.792 3.185 2.888 8.21 4.041 11.748.207 3.57-3.869 1.513-8.811-1.629-11.28-11.882-10.923-18.426-25.384-18.426-40.719 0-18.241 9.653-35.64 25.822-46.541 2.705-1.824 3.921-5.187 3.008-8.318-11.428-39.189 12.254-79.286 48.854-94.656 2.872-1.206 4.7-4.062 4.592-7.174-11.895-23.072-15.568-51.32 8.509-68.479 18.031-12.85 46.824-14.694 66.833 5.783-40.2 19.75-65.128 64.325-54.882 108.846-18.4 14.276-29.235 35.562-29.235 57.909 0 20.279 8.558 39.309 24.096 53.583 15.365 14.114 35.744 21.887 57.385 21.887h.578c7.079 27.587 27.112 50.01 53.464 60.25-11.675 23.058-36.706 38.521-62.593 38.521-33.196 0-63.09-24.82-69.02-57.557-.646-3.569-3.753-6.164-7.38-6.164-7.011.176-14.754-.158-21.369-1.623-4.047-.889-8.049 1.658-8.944 5.702-.895 4.045 1.658 8.049 5.702 8.944 5.928 1.312 12.068 1.977 18.251 1.977 8.552 26.566 27.35 49.361 54.61 58.912v76.828c0 4.143 3.357 7.5 7.5 7.5h38.439c4.143 0 7.5-3.357 7.5-7.5v-75.875c16.511-5.137 32.122-16.112 42.561-29.885v105.759c0 4.143 3.357 7.5 7.5 7.5h38.439c4.143 0 7.5-3.357 7.5-7.5v-105.745c11.357 14.979 28.934 26.588 47.167 31.156v74.591c0 4.143 3.357 7.5 7.5 7.5h38.439c4.143 0 7.5-3.357 7.5-7.5v-78.57c24.132-10.053 42.869-30.917 49.659-57.171h.335c20.889 0 40.561-7.503 55.393-21.126 15.016-13.794 23.287-32.177 23.287-51.764 0-21.529-10.408-42.037-28.093-55.826zm-312.187 256.956h-23.44v-65.562c7.804 1.24 15.617 1.374 23.439.402v65.16zm96 0h-23.44v-236.11c0-4.143-3.357-7.5-7.5-7.5s-7.5 3.357-7.5 7.5v104.017c-23.385-9.157-40.742-29.885-45.312-55.038-.647-3.566-3.754-6.159-7.379-6.159-19.31.633-39.325-4.595-53.846-17.934-27.819-25.553-23.646-70.009 7.729-91.157 2.704-1.823 3.921-5.186 3.008-8.317-11.91-40.879 12.751-82.71 50.951-98.735 2.868-1.203 4.695-4.052 4.595-7.16.437-35.974 32.184-61.696 66.974-61.696s66.537 25.722 66.974 61.696c-.102 3.109 1.728 5.958 4.596 7.16 38.241 16.038 62.986 57.429 50.95 98.735-.913 3.134.305 6.498 3.013 8.32 16.16 10.877 26.968 28.905 26.968 48.618 0 38.574-37.522 62.55-73.09 60.47-3.625 0-6.731 2.593-7.379 6.16-4.489 24.708-21.862 45.797-45.312 55.027v-87.492l49.799-22.363c3.778-1.697 5.467-6.136 3.77-9.914-1.697-3.78-6.14-5.468-9.914-3.77l-43.654 19.604v-147.652c-1.524-16.289-10.43-25.198-26.72-26.729-14.733 0-26.72 11.991-26.72 26.729v63.437l-37.577-16.875c-3.775-1.697-8.216-.01-9.914 3.77-1.697 3.778-.009 8.217 3.77 9.914l43.722 19.634v35.011c0 4.143 3.357 7.5 7.5 7.5s7.5-3.357 7.5-7.5v-114.891c0-6.468 5.258-11.729 11.72-11.729 7.146.672 11.052 4.582 11.72 11.729v383.69zm100.606 0h-23.439v-64.73c7.85.558 15.664.008 23.439-1.651z"/></g></svg>