<svg id="Capa_1" enable-background="new 0 0 511.833 511.833" height="512" viewBox="0 0 511.833 511.833" width="512" xmlns="http://www.w3.org/2000/svg"><g><path d="m453.908 298.164 43.54-29.251c9.292-6.242 9.292-19.912 0-26.154l-43.54-29.251c-6.538-4.392-8.827-12.937-5.362-20.01l23.081-47.102c4.926-10.052-1.909-21.89-13.077-22.65l-52.332-3.562c-7.858-.535-14.113-6.79-14.648-14.648l-3.562-52.333c-.76-11.168-12.598-18.003-22.65-13.077l-47.103 23.081c-7.072 3.466-15.617 1.176-20.01-5.362l-29.251-43.54c-6.242-9.292-19.912-9.292-26.154 0l-29.251 43.54c-4.392 6.537-12.937 8.827-20.01 5.362l-47.103-23.081c-10.052-4.926-21.89 1.909-22.65 13.077l-3.562 52.333c-.535 7.858-6.79 14.113-14.648 14.648l-52.332 3.562c-11.168.76-18.003 12.598-13.077 22.65l23.081 47.102c3.466 7.072 1.176 15.617-5.362 20.01l-43.54 29.251c-9.292 6.242-9.292 19.912 0 26.154l43.54 29.251c6.537 4.392 8.827 12.937 5.362 20.01l-23.081 47.102c-4.926 10.052 1.909 21.89 13.077 22.65l52.332 3.562c7.858.535 14.113 6.79 14.648 14.648l3.562 52.333c.76 11.168 12.598 18.003 22.65 13.077l47.103-23.081c7.072-3.466 15.617-1.176 20.01 5.362l29.251 43.54c6.242 9.292 19.912 9.292 26.154 0l29.251-43.54c4.392-6.537 12.937-8.827 20.01-5.362l47.103 23.081c10.052 4.926 21.89-1.909 22.65-13.077l3.562-52.332c.535-7.858 6.79-14.113 14.648-14.648l52.332-3.562c11.168-.76 18.003-12.598 13.077-22.65l-23.081-47.102c-3.465-7.074-1.176-15.619 5.362-20.011z" fill="#fef48b"/><path d="m90.207 146.395 23.08 47.1c3.47 7.07 1.18 15.62-5.36 20.01l-43.54 29.25c-9.29 6.25-9.29 19.91 0 26.16l43.54 29.25c6.54 4.39 8.83 12.94 5.36 20.01l-23.08 47.1c-4.93 10.05 1.91 21.89 13.08 22.65l52.33 3.56c7.86.54 14.11 6.79 14.65 14.65l3.54 52.02-27.33 13.39c-10.05 4.93-21.89-1.91-22.65-13.08l-3.56-52.33c-.54-7.86-6.79-14.11-14.65-14.65l-52.33-3.56c-11.17-.76-18.01-12.6-13.08-22.65l23.08-47.1c3.47-7.07 1.18-15.62-5.36-20.01l-43.54-29.25c-9.29-6.25-9.29-19.91 0-26.16l43.54-29.25c6.54-4.39 8.83-12.94 5.36-20.01l-23.08-47.1c-4.93-10.05 1.91-21.89 13.08-22.65l52.33-3.56c7.86-.54 14.11-6.79 14.65-14.65l3.56-52.33c.76-11.17 12.6-18.01 22.65-13.08l27.33 13.39-3.54 52.02c-.54 7.86-6.79 14.11-14.65 14.65l-52.33 3.56c-11.17.76-18.01 12.6-13.08 22.65z" fill="#fef056"/><circle cx="255.917" cy="255.835" fill="#ffe177" r="140"/><path d="m280.917 393.605c-8.11 1.47-16.47 2.23-25 2.23-77.32 0-140-62.68-140-140s62.68-140 140-140c8.53 0 16.89.76 25 2.23-65.39 11.78-115 68.98-115 137.77s49.61 125.99 115 137.77z" fill="#ffd15b"/><g><g><path d="m255.917 403.335c-81.332 0-147.5-66.168-147.5-147.5s66.168-147.5 147.5-147.5 147.5 66.168 147.5 147.5c0 53.572-29.129 103.024-76.02 129.058-3.622 2.009-8.187.703-10.198-2.917-2.01-3.622-.704-8.188 2.917-10.198 42.13-23.389 68.301-67.815 68.301-115.942 0-73.061-59.439-132.5-132.5-132.5s-132.5 59.439-132.5 132.5 59.439 132.5 132.5 132.5c11.255 0 22.454-1.417 33.286-4.212 4.015-1.034 8.102 1.378 9.136 5.388 1.035 4.011-1.377 8.102-5.388 9.136-12.056 3.11-24.516 4.687-37.034 4.687z"/></g><g><path d="m36.631 156.145-3.16-6.45c-7.448-15.183 4.077-32.397 19.307-33.432l52.33-3.561c4.092-.281 7.395-3.584 7.676-7.681l3.561-52.325c1.035-15.233 18.25-26.753 33.435-19.305l47.098 23.078c3.694 1.813 8.195.604 10.482-2.805l29.252-43.543c9.078-13.492 29.529-13.499 38.608-.004l29.253 43.544c2.29 3.411 6.792 4.62 10.48 2.81l47.104-23.082c15.183-7.445 32.397 4.075 33.432 19.307l1.021 14.948c.282 4.133-2.839 7.711-6.972 7.993-4.121.271-7.711-2.839-7.993-6.972l-1.021-14.95c-1.52-6.503-5.475-8.788-11.864-6.857l-47.104 23.082c-10.383 5.097-23.085 1.697-29.537-7.915l-29.248-43.537c-4.571-4.868-9.142-4.867-13.712.004l-29.247 43.536c-6.449 9.607-19.149 13.009-29.539 7.911l-47.097-23.079c-6.39-1.934-10.345.351-11.867 6.854l-3.561 52.33c-.792 11.537-10.086 20.831-21.618 21.623l-52.335 3.561c-6.501 1.521-8.786 5.476-6.855 11.864l3.162 6.453c1.822 3.72.438 8.567-3.436 10.035-3.749 1.422-8.333.047-10.035-3.435z"/></g><g><path d="m255.917 511.833c-7.756 0-14.972-3.844-19.303-10.281l-29.253-43.544c-2.29-3.411-6.792-4.619-10.48-2.81l-47.104 23.081c-15.183 7.452-32.397-4.078-33.432-19.306l-3.561-52.33c-.281-4.092-3.584-7.395-7.681-7.676l-52.325-3.561c-15.232-1.035-26.754-18.251-19.305-33.435l23.078-47.098c1.812-3.689.604-8.194-2.805-10.482l-43.543-29.252c-13.492-9.078-13.499-29.529-.004-38.608l43.544-29.253c3.412-2.29 4.619-6.795 2.81-10.48l-3.91-7.97c-1.824-3.719-.289-8.213 3.43-10.037 3.719-1.825 8.212-.289 10.037 3.43l3.91 7.97c5.099 10.391 1.696 23.09-7.914 29.541l-43.537 29.248c-4.868 4.571-4.867 9.142.004 13.712l43.536 29.247c9.607 6.449 13.01 19.148 7.911 29.539l-23.078 47.097c-1.934 6.39.351 10.345 6.854 11.867l52.33 3.561c11.537.792 20.831 10.086 21.623 21.618l3.561 52.335c1.521 6.501 5.476 8.786 11.864 6.855l47.104-23.082c10.387-5.098 23.087-1.694 29.537 7.916l29.248 43.537c4.571 4.868 9.142 4.867 13.712-.004l29.247-43.536c6.45-9.607 19.15-13.008 29.539-7.911l47.097 23.078c6.39 1.934 10.345-.351 11.867-6.854l3.561-52.33c.792-11.537 10.086-20.831 21.618-21.623l52.335-3.561c6.501-1.521 8.786-5.476 6.855-11.864l-23.082-47.104c-5.097-10.387-1.694-23.086 7.916-29.537l43.537-29.248c4.868-4.571 4.867-9.142-.004-13.712l-43.536-29.247c-9.607-6.449-13.01-19.148-7.911-29.539l23.078-47.097c1.934-6.39-.351-10.345-6.854-11.867l-52.331-3.561c-14.381-.987-21.802-13.444-21.942-26.322-.282-4.133 2.84-7.711 6.973-7.992 4.093-.282 7.711 2.84 7.992 6.973-.376 4.773 1.861 11.955 8.001 12.377l52.327 3.561c15.232 1.035 26.751 18.253 19.303 33.435l-23.078 47.098c-1.812 3.689-.604 8.194 2.805 10.482l43.543 29.252c13.492 9.078 13.499 29.529.004 38.608l-43.544 29.253c-3.412 2.29-4.619 6.795-2.81 10.48l23.082 47.104c7.448 15.183-4.077 32.397-19.307 33.432l-52.33 3.561c-4.092.281-7.395 3.584-7.676 7.681l-3.561 52.325c-1.035 15.233-18.25 26.753-33.435 19.305l-47.098-23.079c-3.691-1.808-8.194-.602-10.482 2.806l-29.252 43.543c-4.334 6.441-11.55 10.285-19.305 10.285z"/></g></g></g></svg>