<svg id="Capa_1" enable-background="new 0 0 512 512" height="512" viewBox="0 0 512 512" width="512" xmlns="http://www.w3.org/2000/svg"><g><path d="m464.63 88.459c-53.152-53.152-139.328-53.152-192.479 0l-16.453 16.453-16.453-16.453c-53.152-53.152-139.327-53.152-192.479 0-53.152 53.152-53.152 139.327 0 192.479l166.65 165.134c23.414 23.201 61.151 23.201 84.565 0l166.65-165.134c53.15-53.152 53.15-139.327-.001-192.479z" fill="#fd8087"/><path d="m253.465 446.07c6.518 6.458 14.137 11.123 22.256 13.987-21.045 7.429-45.414 2.763-62.304-13.987l-166.648-165.136c-26.572-26.572-39.867-61.403-39.867-96.235s13.296-69.673 39.867-96.245c31.678-31.678 75.099-44.473 116.258-38.376-27.893 4.115-54.745 16.91-76.211 38.376-26.572 26.572-39.867 61.413-39.867 96.245s13.296 69.663 39.867 96.235z" fill="#fe646f"/><path d="m375.84 256.031c0 3.473-.147 6.916-.44 10.32-5.233 61.519-56.826 109.823-119.703 109.823-56.772 0-104.343-39.381-116.901-92.309-2.123-8.931-3.242-18.255-3.242-27.834 0-18.178 4.037-35.414 11.269-50.859 19.15-40.925 60.701-69.276 108.874-69.276 1.096 0 2.192.015 3.288.046 64.831 1.737 116.855 54.835 116.855 120.089z" fill="#8ac9fe"/><path d="m275.01 374.623c-6.283 1.027-12.736 1.551-19.312 1.551-56.772 0-104.343-39.381-116.901-92.309-2.123-8.931-3.242-18.255-3.242-27.834 0-18.178 4.037-35.414 11.269-50.859 19.15-40.925 60.701-69.276 108.874-69.276 1.096 0 2.192.015 3.288.046 5.434.147 10.783.656 16.016 1.497-39.798 6.422-73.043 32.388-89.584 67.732-7.232 15.445-11.269 32.681-11.269 50.859 0 9.579 1.119 18.903 3.242 27.834 11.107 46.808 49.593 83.025 97.619 90.759z" fill="#60b7ff"/><path d="m174.148 256.031c0 7.418.672 14.689 1.961 21.736-3.504 3.751-8.498 6.098-14.04 6.098h-23.272c-2.123-8.931-3.242-18.255-3.242-27.834 0-18.178 4.037-35.414 11.269-50.859h38.594c-7.233 15.446-11.27 32.682-11.27 50.859z" fill="#22b27f"/><path d="m212.225 220.278v3.396c0 3.227-1.312 6.152-3.427 8.275-2.123 2.115-5.048 3.427-8.275 3.427-10.621 0-19.228 8.614-19.228 19.227v10.034c0 10.621-8.614 19.227-19.227 19.227h-23.272c-2.123-8.931-3.242-18.255-3.242-27.834 0-18.178 4.037-35.414 11.269-50.859h50.303c8.338.001 15.099 6.763 15.099 15.107z" fill="#c6ea7c"/><path d="m174.148 256.031c0 7.418.672 14.689 1.961 21.736-3.504 3.751-8.498 6.098-14.04 6.098h-23.272c-2.123-8.931-3.242-18.255-3.242-27.834 0-18.178 4.037-35.414 11.269-50.859h38.594c-7.233 15.446-11.27 32.682-11.27 50.859z" fill="#b2e254"/><path d="m375.84 256.031c0 3.473-.147 6.916-.44 10.32h-28.027c-3.481 0-6.623 1.413-8.908 3.69-2.277 2.269-3.682 5.426-3.682 8.9 0 6.198-2.509 11.802-6.569 15.87-4.068 4.052-9.687 6.569-15.878 6.569-12.389 0-22.439-10.05-22.439-22.438v-41.064c0-4.269-1.729-8.136-4.531-10.922-2.794-2.802-6.661-4.531-10.93-4.531-8.537 0-15.453-6.924-15.453-15.461v-71.021c64.833 1.736 116.857 54.834 116.857 120.088z" fill="#c6ea7c"/><g><path d="m382.884 266.841c.3-3.564.462-7.167.462-10.807 0-70.386-57.263-127.649-127.649-127.649-69.426 0-127.649 58.386-127.649 127.649 0 69.11 58.272 127.649 127.649 127.649 64.158 0 123.028-51.849 127.187-116.842zm-239.818-10.807c0-15.356 3.093-30.001 8.682-43.352h45.379c4.185 0 7.589 3.408 7.589 7.598v3.395c0 1.118-.44 2.175-1.217 2.956-.802.799-1.86 1.239-2.978 1.239-14.743 0-26.737 11.994-26.737 26.737v10.032c0 6.462-5.257 11.719-11.719 11.719h-17.158c-1.206-6.595-1.841-13.386-1.841-20.324zm112.631 112.631c-49.765 0-92.089-32.445-106.946-77.29h13.314c14.743 0 26.737-11.994 26.737-26.737v-10.032c0-6.462 5.258-11.628 11.719-11.719 26.141-.369 26.141-45.172-3.394-45.223h-37.725c19.09-31.377 53.08-52.728 92.07-54.174v24.118c0 4.148 3.362 7.509 7.509 7.509s7.509-3.361 7.509-7.509v-23.686c57.811 5.522 103.232 56.919 101.803 114.924h-20.916c-12.253 1.141-18.954 7.839-20.104 20.094-.847 9.107-5.827 14.083-14.938 14.928-8.231 0-14.927-6.696-14.927-14.928v-41.059c-1.315-13.991-8.971-21.647-22.967-22.968-4.384 0-7.95-3.566-7.95-7.949v-6.638c0-4.148-3.362-7.509-7.509-7.509s-7.509 3.361-7.509 7.509v6.638c0 12.664 10.303 22.967 22.968 22.967 4.842.46 7.492 3.11 7.949 7.95v41.059c0 16.512 13.433 29.946 29.945 29.946 16.348 0 29.956-13.595 29.956-29.946.286-3.098 1.982-4.79 5.086-5.076h19.536c-8.573 53.662-55.177 94.801-111.216 94.801z"/><g><path d="m52.078 275.624c-49.406-49.406-49.42-132.441 0-181.859 50.134-50.136 131.716-50.134 181.858-.002l16.45 16.459c3.541 2.934 7.081 2.934 10.622 0 32.9-34.716 72.614-59.045 122.362-53.245 4.128.494 7.848-2.469 8.328-6.588.481-4.119-2.469-7.848-6.588-8.328-50.965-5.951-95.05 16.072-129.413 52.231l-11.141-11.147c-55.999-55.989-147.108-55.989-203.098 0-55.292 55.292-55.273 147.826.024 203.124l93.271 92.419c3.546 2.916 7.086 2.901 10.619-.048 2.919-2.946 2.897-7.701-.049-10.619z"/><path d="m469.936 83.145c-14.449-14.45-31.372-25.427-50.297-32.625-3.875-1.475-8.214.472-9.688 4.349-1.474 3.876.472 8.213 4.348 9.687 16.93 6.44 32.076 16.267 45.017 29.209 24.289 24.289 37.665 56.583 37.665 90.933 0 34.349-13.376 66.641-37.641 90.902l-166.65 165.137c-20.398 20.225-53.589 20.224-73.988-.001l-42.421-42.039c-2.945-2.919-7.7-2.897-10.619.048-2.919 2.946-2.898 7.7.048 10.619l42.419 42.038c13.116 13.004 30.34 19.506 47.568 19.504 17.224-.001 34.453-6.502 47.565-19.503l166.672-165.159c27.127-27.121 42.066-63.184 42.066-101.546s-14.939-74.427-42.064-101.553z"/></g></g></g></svg>