<svg id="Capa_1" enable-background="new 0 0 512 512" height="512" viewBox="0 0 512 512" width="512" xmlns="http://www.w3.org/2000/svg"><g><g><path d="m415.999 120.83v-35.96l-32.71-44.73c-6.52-8.91-4.58-21.43 4.33-27.95 8.92-6.52 21.43-4.58 27.95 4.34l36.58 50c2.5 3.42 3.85 7.56 3.85 11.8v42.5z" fill="#eaf6ff"/></g><path d="m440.999 230.427v139.823c0 11.166-9.084 20.25-20.25 20.25s-20.25-9.084-20.25-20.25v-53.5c0-27.708-22.542-50.25-50.25-50.25h-19.25v30h19.25c11.166 0 20.25 9.084 20.25 20.25v53.5c0 27.708 22.542 50.25 50.25 50.25s50.25-22.542 50.25-50.25v-139.823z" fill="#dbebfc"/><path d="m455.999 230.427h-45c-8.284 0-15-6.716-15-15v-79.593c0-8.284 6.716-15 15-15h45z" fill="#c6ea7c"/><path d="m30.999 7.5h300v447h-300z" fill="#fef48b"/><path d="m331 434.5v20h-300v-447h30v420c0 3.866 3.134 7 7 7z" fill="#fef056"/><path d="m118.499 0h125v220h-125z" fill="#ecf6fe" transform="matrix(0 1 -1 0 290.999 -70.999)"/><path d="m122.385 172.5c.04-34.53 28.03-62.5 62.57-62.5 34.53 0 62.52 27.97 62.56 62.5z" fill="#dbebfc"/><path d="m10.758 454.5h340.482v50h-340.482z" fill="#97d729"/><path d="m10.76 454.5h50v50h-50z" fill="#92ce20"/><path d="m189.426 401.711c33.407-4.146 59.269-32.636 59.269-67.169 0-5.608-.358-11.052-1.02-16.331-2.638-21.088-10.137-39.517-19.204-54.895-13.044-22.137-29.337-37.945-39.045-46.228-5.132-4.382-8.427-6.661-8.427-6.661s-3.295 2.279-8.427 6.661c-9.707 8.283-26 24.092-39.045 46.228-9.067 15.379-16.567 33.808-19.204 54.895-.661 5.279-1.02 10.723-1.02 16.331 0 34.532 25.861 63.023 59.269 67.169" fill="#c6ea7c"/><path d="m196 400.56c-2.15.49-4.34.87-6.57 1.15h-16.86c-33.4-4.15-59.27-32.64-59.27-67.17 0-5.61.36-11.05 1.02-16.33 2.64-21.09 10.14-39.52 19.21-54.89 13.04-22.14 29.34-37.95 39.04-46.23 5.13-4.38 8.43-6.66 8.43-6.66s3.29 2.28 8.43 6.66c1.95 1.66 4.16 3.63 6.57 5.89-9.55 9-22.05 22.65-32.47 40.34-9.07 15.37-16.57 33.8-19.21 54.89-.66 5.28-1.02 10.72-1.02 16.33 0 32.23 22.54 59.2 52.7 66.02z" fill="#b2e254"/><path d="m63.499 47.5v125c0 4.143 3.358 7.5 7.5 7.5h220c4.142 0 7.5-3.357 7.5-7.5v-125c0-4.143-3.358-7.5-7.5-7.5h-220c-4.142 0-7.5 3.357-7.5 7.5zm116.021 98.924c3.499 3.014 7.034 3.099 10.604.256l22.663-21.592c14.203 8.363 24.343 22.909 26.695 39.913h-109.063c4.334-31.331 36.243-53.251 67.058-46.045l-17.701 16.865c-2.998 2.857-3.113 7.604-.256 10.603zm-101.021-91.424h205v110h-28.899c-2.273-21.037-13.895-39.318-30.615-50.583l20.59-19.617c2.999-2.857 3.114-7.604.257-10.604-2.858-2.999-7.605-3.114-10.604-.256l-24.322 23.173c-42.328-16.205-89.773 13.173-94.606 57.887h-36.801z"/><path d="m506.479 159.634-42.98-41.959v-39.345c0-5.792-1.88-11.555-5.297-16.229l-36.579-49.997c-4.335-5.932-10.721-9.819-17.979-10.945-24.026-3.729-40.775 23.78-26.41 43.407l31.264 42.753v26.153c-11.234 1.248-20 10.797-20 22.358v31.85c0 4.143 3.358 7.5 7.5 7.5s7.5-3.357 7.5-7.5v-31.85c0-4.136 3.364-7.5 7.5-7.5h37.5v94.6h-37.498c-4.136 0-7.5-3.364-7.5-7.5v-15.07c0-4.143-3.358-7.5-7.5-7.5s-7.5 3.357-7.5 7.5v15.069c0 12.406 10.093 22.5 22.5 22.5h22.5v132.32c0 7.03-5.72 12.75-12.75 12.75s-12.75-5.72-12.75-12.75v-53.5c0-31.844-25.907-57.75-57.75-57.75h-11.75v-251.499c0-4.143-3.358-7.5-7.5-7.5h-206.29c-4.142 0-7.5 3.357-7.5 7.5s3.358 7.5 7.5 7.5h198.79v432h-32.6c-4.142 0-7.5 3.357-7.5 7.5s3.358 7.5 7.5 7.5h52.84v35h-325.48v-35h239.95c4.142 0 7.5-3.357 7.5-7.5s-3.358-7.5-7.5-7.5h-219.71v-432h53.52c4.142 0 7.5-3.357 7.5-7.5s-3.358-7.5-7.5-7.5h-61.02c-4.142 0-7.5 3.357-7.5 7.5v439.5h-12.74c-4.142 0-7.5 3.357-7.5 7.5v50c0 4.143 3.358 7.5 7.5 7.5h340.48c4.142 0 7.5-3.357 7.5-7.5v-50c0-4.143-3.358-7.5-7.5-7.5h-12.74v-143h11.75c7.03 0 12.75 5.72 12.75 12.75v53.5c0 31.844 25.907 57.75 57.75 57.75s57.75-25.906 57.75-57.75v-132.323h22.741c4.142 0 7.5-3.357 7.5-7.5v-65.427c-.001-2.021-.816-3.955-2.262-5.366zm-57.98-46.304h-25v-28.46c0-1.592-.506-3.143-1.446-4.427l-32.711-44.733c-9.546-13.04 10.637-27.805 20.174-14.751l36.579 49.997c1.551 2.122 2.405 4.74 2.405 7.374v35zm15 256.92c0 23.572-19.178 42.75-42.75 42.75s-42.75-19.178-42.75-42.75v-53.5c0-15.302-12.449-27.75-27.75-27.75h-11.749v-15h11.75c23.572 0 42.75 19.178 42.75 42.75v53.5c0 15.302 12.449 27.75 27.75 27.75s27.75-12.448 27.75-27.75v-131.75h15v131.75zm30.241-147.323h-30.24v-84.289l30.24 29.522z"/><path d="m255.118 317.053c-2.479-19.824-9.271-39.262-20.185-57.772-13.176-22.36-29.372-38.513-40.636-48.125-5.36-4.576-8.883-7.023-9.03-7.125-2.567-1.775-5.966-1.775-8.533 0-.147.102-3.67 2.549-9.028 7.124-11.266 9.613-27.462 25.766-40.637 48.124-10.915 18.513-17.504 37.977-20.186 57.773-6.633 48.948 21.117 92.392 73.915 92.392 50.197 0 80.952-42.194 74.32-92.391zm-66.539 76.977c-.027.003-.052.003-.079.006v-30.186l31.799-19.893c3.512-2.197 4.578-6.824 2.381-10.336s-6.825-4.578-10.336-2.381l-23.844 14.917v-36.161l23.147-14.483c3.512-2.197 4.577-6.825 2.38-10.337-2.197-3.511-6.824-4.577-10.336-2.38l-15.191 9.505v-28.029c0-4.143-3.358-7.5-7.5-7.5s-7.5 3.357-7.5 7.5v28.029l-15.191-9.505c-3.511-2.196-8.139-1.13-10.336 2.38-2.197 3.512-1.132 8.14 2.38 10.337l23.147 14.483v36.161l-23.844-14.917c-3.511-2.195-8.139-1.13-10.336 2.381-2.197 3.512-1.131 8.139 2.381 10.336l31.799 19.893v30.189c-.001 0-.002 0-.003 0-30.04-3.728-52.692-29.403-52.692-59.726 0-23.796 7.145-46.995 19.186-67.418 10.584-17.961 24.747-34.237 41.01-47.277 16.264 13.036 30.428 29.32 41.011 47.279 12.041 20.422 19.185 43.621 19.185 67.416-.002 30.296-22.617 55.956-52.618 59.717z"/></g></svg>