<svg id="Capa_1" enable-background="new 0 0 512 512" height="512" viewBox="0 0 512 512" width="512" xmlns="http://www.w3.org/2000/svg"><g><g><path d="m275.991 305.857v178.659c0 11.044-8.945 19.989-19.989 19.989s-19.989-8.945-19.989-19.989v-178.659c6.526.969 13.203 1.469 19.989 1.469s13.462-.5 19.989-1.469z" fill="#d79b7a"/></g><path d="m345.67 415.973h-69.679c0-46.617 37.79-84.407 84.407-84.407h69.679c0 46.617-37.79 84.407-84.407 84.407z" fill="#c6ea7c"/><path d="m410.374 331.562c-23.307 0-44.415 9.455-59.686 24.726-15.281 15.271-24.726 36.379-24.726 59.686h-49.972c0-23.307 9.445-44.415 24.726-59.686 15.271-15.271 36.379-24.726 59.686-24.726z" fill="#b2e254"/><path d="m166.334 453.533h69.679c0-46.617-37.79-84.407-84.407-84.407h-69.679c0 46.617 37.79 84.407 84.407 84.407z" fill="#c6ea7c"/><path d="m216.304 453.533h-49.972c-23.307 0-44.405-9.445-59.686-24.726-15.271-15.271-24.716-36.379-24.716-59.686h49.972c0 23.307 9.445 44.415 24.716 59.686 15.282 15.282 36.38 24.726 59.686 24.726z" fill="#b2e254"/><path d="m313.729 83.553c-34.91 24.466-57.727 65.013-57.727 110.887 0-45.874-22.817-86.421-57.727-110.887 8.115-16.271 18.36-31.532 30.583-45.354l27.145-30.703 27.145 30.703c12.222 13.822 22.466 29.083 30.581 45.354z" fill="#fef48b"/><path d="m270.993 132.455c-9.575 18.57-14.992 39.647-14.992 61.985 0-45.874-22.817-86.421-57.727-110.887 8.115-16.271 18.36-31.532 30.583-45.354l27.145-30.703 14.992 16.96-12.154 13.742c-12.223 13.822-22.467 29.084-30.583 45.354 17.91 12.554 32.642 29.344 42.736 48.903z" fill="#fef056"/><path d="m256.002 307.328v-112.889c0-74.753 60.599-135.352 135.352-135.352v112.889c0 74.752-60.599 135.352-135.352 135.352z" fill="#fd8087"/><path d="m256.002 307.328v-112.889c0-74.753-60.599-135.352-135.352-135.352v112.889c0 74.752 60.599 135.352 135.352 135.352z" fill="#fd8087"/><path d="m256.002 297.801v9.525c-74.758 0-135.353-60.596-135.353-135.353v-112.886c17.65 0 34.51 3.378 49.972 9.525v103.361c-.001 57.107 35.359 105.95 85.381 125.828z" fill="#fe646f"/><path d="m430.073 324.066h-30.853c-4.14 0-7.496 3.355-7.496 7.496 0 4.14 3.355 7.496 7.496 7.496h22.999c-1.701 17.717-9.42 34.149-22.162 46.889-14.529 14.53-33.844 22.531-54.386 22.531h-61.826c3.703-38.545 37.736-69.421 76.558-69.421 5.326 1.058 13.652-.442 13.652-7.496 0-7.053-8.326-8.554-13.652-7.496-30.49 0-60.168 16.099-76.916 41.573v-53.478c65.661-12.85 115.363-70.817 115.363-140.184v-112.889c0-4.14-3.355-7.496-7.496-7.496-27.406 0-53.03 7.765-74.799 21.199-3.912-7.14-8.22-14.058-12.86-20.641-2.384-3.383-7.059-4.193-10.445-1.808-3.384 2.384-4.193 7.061-1.808 10.445 4.615 6.548 8.871 13.455 12.71 20.592-22.067 17.059-39.028 40.417-48.15 67.362-9.122-26.946-26.084-50.304-48.152-67.363 12.464-23.178 30.401-43.282 48.152-62.565l9.095 10.289c2.743 3.102 7.479 3.392 10.581.651 3.102-2.742 3.393-7.479.651-10.581l-14.711-16.64c-3.744-3.374-7.488-3.374-11.231 0-19.727 22.312-40.496 43.925-54.925 70.268-21.773-13.44-47.401-21.207-74.813-21.207-4.14 0-7.496 3.356-7.496 7.496v75.647c0 4.14 3.356 7.496 7.496 7.496s7.496-3.356 7.496-7.496v-67.936c67.024 3.896 120.362 59.657 120.362 127.641v105.174c-67.024-3.895-120.362-59.658-120.362-127.641.747-4.902-1.229-12.063-7.496-12.063s-8.242 7.161-7.496 12.063c0 69.367 49.703 127.335 115.365 140.185v91.128c-16.431-25.065-44.768-41.656-76.911-41.656h-69.68c-4.14 0-7.496 3.356-7.496 7.496 0 50.675 41.228 91.903 91.903 91.903h62.184v23.487c0 15.155 12.329 27.484 27.484 27.484s27.484-12.33 27.484-27.484v-61.046h62.184c24.547 0 47.626-9.561 64.988-26.921 17.353-17.354 26.911-40.433 26.911-64.987 0-4.14-3.355-7.496-7.496-7.496zm-263.739 121.971c-39.88 0-72.769-30.511-76.549-69.416h61.821c39.88 0 72.769 30.511 76.549 69.416zm97.164-251.598c0-67.983 53.337-123.744 120.361-127.64v105.177c0 67.983-53.337 123.744-120.361 127.64zm4.997 290.077c0 6.889-5.604 12.493-12.493 12.493s-12.493-5.604-12.493-12.493v-170.247c8.456.736 16.529.738 24.986.002z"/></g></svg>