<svg id="Capa_1" enable-background="new 0 0 512 512" height="512" viewBox="0 0 512 512" width="512" xmlns="http://www.w3.org/2000/svg"><g><path d="m273.205 504.509h-34.41c-8.284 0-15-6.716-15-15v-24.951h64.41v24.951c0 8.284-6.716 15-15 15z" fill="#60b7ff"/><path d="m296.296 464.558h-80.591c-33.137 0-60-26.863-60-60v-50.417h200.591v50.417c0 33.137-26.863 60-60 60z" fill="#dbebfc"/><path d="m265.568 464.563h-49.938c-33.099 0-59.926-26.837-59.926-59.926v-50.498h49.939v50.498c-.001 33.088 26.826 59.926 59.925 59.926z" fill="#c9e2fb"/><path d="m278.102 281.928v72.213h49.862v-81.01z" fill="#60b7ff"/><path d="m361.271 134.07-210.543 37.124c-18.36 3.237-33.244-9.022-33.244-27.382 0-18.36 14.884-35.868 33.244-39.105l210.543-37.124c18.36-3.237 33.244 9.022 33.244 27.382 0 18.359-14.884 35.867-33.244 39.105z" fill="#8ac9fe"/><path d="m383.803 72.414-183.135 32.29c-9.179 1.618-17.488 6.802-23.511 13.883-6.013 7.071-9.738 16.04-9.738 25.229 0 9.668 4.125 17.638 10.707 22.542l-27.396 4.834c-18.357 3.236-33.249-9.019-33.249-27.376 0-9.189 3.725-18.158 9.738-25.229 6.023-7.081 14.332-12.265 23.511-13.883l210.541-37.124c8.689-1.528 16.609.41 22.532 4.834z" fill="#60b7ff"/><path d="m361.271 200.774-210.543 37.124c-18.36 3.237-33.244 20.745-33.244 39.105 0 18.36 14.884 30.619 33.244 27.382l33.31-5.873-.003.006v55.623h49.863v-64.419l-.001-.001 127.374-22.46c18.36-3.237 33.244-20.745 33.244-39.105 0-18.36-14.884-30.62-33.244-27.382z" fill="#8ac9fe"/><path d="m200.668 304.389 33.229-5.863v55.612h-49.859v-51.277c3.296 1.328 6.942 2.048 10.827 2.048 1.878 0 3.825-.17 5.803-.52z" fill="#60b7ff"/><path d="m167.419 277.003c0 9.668 4.135 17.648 10.727 22.552l-27.416 4.834c-1.978.35-3.925.519-5.803.519-15.591 0-27.446-11.526-27.446-27.906 0-18.358 14.892-35.866 33.249-39.102l210.541-37.124c1.978-.35 3.925-.519 5.813-.519 6.392 0 12.155 1.938 16.729 5.353l-183.145 32.29c-18.358 3.237-33.249 20.745-33.249 39.103z" fill="#60b7ff"/><path d="m184.038 302.861c-2.127-.849-4.095-1.958-5.893-3.306z" fill="#8ac9fe"/><path d="m361.271 200.665-210.542 37.125c-18.36 3.237-33.244-9.022-33.244-27.382 0-18.36 14.884-35.868 33.244-39.105l210.543-37.124c18.36-3.237 33.244 9.022 33.244 27.382-.001 18.359-14.885 35.867-33.245 39.104z" fill="#ecf6fe"/><path d="m383.803 139.012-183.135 32.29c-9.179 1.618-17.488 6.802-23.511 13.883-6.013 7.071-9.738 16.04-9.738 25.219 0 9.668 4.125 17.648 10.717 22.552l-27.406 4.834c-18.357 3.236-33.249-9.019-33.249-27.386 0-9.179 3.725-18.148 9.738-25.219 6.023-7.081 14.332-12.265 23.511-13.883l210.541-37.124c8.689-1.528 16.609.41 22.532 4.834z" fill="#dbebfc"/><path d="m322.487 74.53-132.974 23.447c-18.36 3.237-33.244-9.022-33.244-27.382 0-18.36 14.884-35.868 33.244-39.105l132.974-23.448c18.36-3.237 33.244 9.022 33.244 27.382 0 18.36-14.884 35.868-33.244 39.106z" fill="#ecf6fe"/><path d="m345.021 12.877-105.571 18.607c-9.179 1.628-17.489 6.812-23.501 13.893-6.013 7.071-9.738 16.04-9.738 25.219 0 9.668 4.125 17.638 10.717 22.542l-27.416 4.834c-18.357 3.246-33.239-9.019-33.239-27.377 0-9.179 3.725-18.148 9.738-25.219 6.013-7.081 14.322-12.265 23.501-13.893l132.976-23.44c8.69-1.528 16.61.41 22.533 4.834z" fill="#dbebfc"/><path d="m384.786 197.353c9.897-8.471 17.225-22.708 17.225-35.788 0-11.771-6.719-24.815-17.127-30.799 10.405-8.88 17.122-22.001 17.122-35.802 0-25.352-24.004-39.176-46.956-33.891 17.797-26.258 2.22-66.749-33.856-60.409-4.659.36-10.21 3.581-9.221 9.223.99 5.643 7.313 6.78 11.816 5.532 14.948-1.471 23.097 5.195 24.448 20-1.597 15.803-9.818 26.204-24.663 31.204l-137.674 24.276c-13.617.323-20.995-6.445-22.136-20.303 0-14.731 12.855-29.217 27.049-31.735l97.201-17.139c4.074-.718 6.794-4.604 6.076-8.678s-4.601-6.797-8.678-6.076l-97.208 17.14c-21.738 3.856-39.421 24.275-39.421 46.488 0 9.844 3.464 18.635 9.807 25.118-25.061 2.044-48.595 21.356-48.595 48.097 0 11.791 6.746 24.862 17.187 30.833-9.879 8.471-17.192 22.694-17.192 35.759 0 11.768 6.719 24.815 17.125 30.798-10.407 8.879-17.125 21.999-17.125 35.8 0 22.314 20.491 38.569 42.04 34.765l24.519-4.321v39.204h-20.844c-4.137 0-7.491 3.353-7.491 7.491v50.491c0 37.434 31.392 66.598 68.091 67.417v17.479c0 12.391 10.081 22.472 22.472 22.472h34.446c12.391 0 22.472-10.081 22.472-22.472v-17.479c36.794.218 68.091-30.415 68.091-67.417v-50.491c0-4.137-3.353-7.491-7.491-7.491h-20.841v-67.229l27.12-4.781c22.113-3.91 39.436-24.33 39.436-46.488.001-13.532-6.763-24.825-17.224-30.798zm-232.756-85.269 210.542-37.125c12.063-2.126 24.452 6.617 24.452 20.006 0 14.613-12.389 29.143-27.055 31.729l-210.542 37.124c-14.95 1.471-23.101-5.198-24.452-20.005 0-14.613 12.389-29.143 27.055-31.729zm89.358 234.566v-50.647l29.223-5.151v55.798zm39.326 142.878c0 4.131-3.36 7.491-7.491 7.491h-34.446c-4.131 0-7.491-3.36-7.491-7.491v-17.479h49.428zm68.091-87.668h-29.453c-4.138 0-7.491 3.353-7.491 7.491 0 4.137 3.353 7.491 7.491 7.491h28.003c-5.518 23.041-26.277 40.226-50.985 40.226h-80.739c-24.709 0-45.467-17.185-50.985-40.226h122.067c4.138 0 7.491-3.353 7.491-7.491s-3.353-7.491-7.491-7.491h-123.518v-40.228h185.61zm-28.331-55.21h-34.881v-58.439l34.881-6.149zm39.497-86.762-127.378 22.453c-3.579.633-6.187 3.742-6.187 7.377v56.93h-34.877v-48.131c-.641-5.201-3.578-7.659-8.81-7.374l-33.293 5.871c-12.013 2.119-24.455-7.194-24.455-20.011 0-14.611 12.391-29.139 27.059-31.724l31.522-5.555c5.032-.859 6.71-4.981 6.077-8.785-.718-4.074-4.604-6.79-8.677-6.078l-31.523 5.554c-14.953 1.47-23.106-5.199-24.458-20.01 0-14.73 12.859-29.221 27.06-31.725l210.541-37.125c14.954-1.47 23.106 5.2 24.458 20.011 0 14.73-12.859 29.221-27.059 31.725l-146.381 25.807c-5.282 1.289-6.711 4.984-6.077 8.787.719 4.076 4.604 6.801 8.677 6.077l146.387-25.809c12.01-2.123 24.452 7.189 24.452 20.001.001 14.607-12.392 29.14-27.058 31.734z"/></g></svg>