<svg id="Capa_1" enable-background="new 0 0 511.954 511.954" height="512" viewBox="0 0 511.954 511.954" width="512" xmlns="http://www.w3.org/2000/svg"><g><g fill="#8ac9fe"><path d="m159.507 379.742c0 15.896-12.887 28.783-28.783 28.783s-28.783-12.887-28.783-28.783c0-20.606 28.783-51.412 28.783-51.412s28.783 30.805 28.783 51.412z"/><path d="m284.737 379.742c0 15.896-12.887 28.783-28.783 28.783s-28.783-12.887-28.783-28.783c0-20.606 28.783-51.412 28.783-51.412s28.783 30.805 28.783 51.412z"/><path d="m409.968 379.742c0 15.896-12.887 28.783-28.783 28.783s-28.783-12.887-28.783-28.783c0-20.606 28.783-51.412 28.783-51.412s28.783 30.805 28.783 51.412z"/></g><g fill="#60b7ff"><path d="m140.725 406.73c-3.11 1.16-6.48 1.79-10 1.79-15.9 0-28.78-12.88-28.78-28.78 0-20.6 28.78-51.41 28.78-51.41s4.53 4.85 10 12c-8.31 10.85-18.78 26.99-18.78 39.41-.001 12.38 7.809 22.94 18.78 26.99z"/><path d="m265.954 406.73c-3.12 1.16-6.48 1.79-10 1.79-15.9 0-28.78-12.88-28.78-28.78 0-20.6 28.78-51.41 28.78-51.41s4.53 4.85 10 11.99c-8.31 10.85-18.78 26.99-18.78 39.42 0 12.38 7.811 22.94 18.78 26.99z"/><path d="m391.184 406.73c-3.11 1.16-6.48 1.79-10 1.79-15.9 0-28.78-12.88-28.78-28.78 0-20.6 28.78-51.41 28.78-51.41s4.53 4.85 10 12c-8.31 10.85-18.78 26.99-18.78 39.41.001 12.38 7.811 22.94 18.78 26.99z"/></g><g fill="#8ac9fe"><path d="m222.122 475.672c0 15.896-12.887 28.783-28.783 28.783s-28.783-12.887-28.783-28.783c0-20.606 28.783-51.412 28.783-51.412s28.783 30.806 28.783 51.412z"/><path d="m347.353 475.672c0 15.896-12.887 28.783-28.783 28.783s-28.783-12.887-28.783-28.783c0-20.606 28.783-51.412 28.783-51.412s28.783 30.806 28.783 51.412z"/></g><g fill="#60b7ff"><path d="m203.345 502.66c-3.12 1.16-6.49 1.79-10.01 1.79-15.89 0-28.78-12.88-28.78-28.78 0-20.6 28.78-51.41 28.78-51.41s4.53 4.85 10 11.99c-8.31 10.85-18.78 26.99-18.78 39.42-.001 12.38 7.819 22.94 18.79 26.99z"/><path d="m328.574 502.66c-3.11 1.16-6.48 1.79-10 1.79-15.9 0-28.79-12.88-28.79-28.78 0-20.6 28.79-51.41 28.79-51.41s4.53 4.85 10 11.99c-8.31 10.85-18.79 26.99-18.79 39.42.001 12.38 7.821 22.94 18.79 26.99z"/></g><g><g><path d="m428.693 138.688h-34.08c-5.212-73.322-66.339-131.188-140.987-131.188-58.336 0-108.413 35.341-130.004 85.778-5.516-.951-11.187-1.453-16.975-1.453-54.782 0-99.192 44.41-99.192 99.192s44.41 99.192 99.192 99.192h322.047c41.842 0 75.761-33.919 75.761-75.761-.001-41.841-33.92-75.76-75.762-75.76z" fill="#ecf6fe"/></g></g><g><g><path d="m278.634 9.71c-47.37 8.44-86.58 40.5-105.01 83.57-5.52-.95-11.19-1.45-16.98-1.45-54.78 0-99.19 44.41-99.19 99.19s44.41 99.19 99.19 99.19h-50c-54.78 0-99.19-44.41-99.19-99.19s44.41-99.19 99.19-99.19c5.79 0 11.46.5 16.98 1.45 21.59-50.44 71.67-85.78 130-85.78 8.531 0 16.89.76 25.01 2.21z" fill="#dbebfc"/></g></g><g><g><g><path d="m130.724 416.025c-20.006 0-36.283-16.276-36.283-36.283 0-22.903 27.65-53.158 30.803-56.532 3.653-3.173 7.307-3.173 10.96 0 3.153 3.374 30.803 33.629 30.803 56.532 0 20.006-16.277 36.283-36.283 36.283zm0-76.279c-8.765 10.639-21.283 28.374-21.283 39.995 0 11.735 9.547 21.283 21.283 21.283s21.283-9.548 21.283-21.283c0-11.62-12.517-29.355-21.283-39.995z"/></g><g><path d="m255.954 416.025c-20.007 0-36.283-16.276-36.283-36.283 0-22.903 27.65-53.158 30.803-56.532 3.653-3.173 7.307-3.173 10.96 0 3.153 3.374 30.803 33.629 30.803 56.532.001 20.006-16.276 36.283-36.283 36.283zm0-76.279c-8.765 10.638-21.283 28.374-21.283 39.995 0 11.735 9.547 21.283 21.283 21.283s21.283-9.548 21.283-21.283c.001-11.62-12.516-29.355-21.283-39.995z"/></g><g><path d="m381.185 416.025c-20.007 0-36.283-16.276-36.283-36.283 0-22.903 27.65-53.158 30.803-56.532 3.653-3.173 7.307-3.173 10.96 0 3.153 3.374 30.803 33.629 30.803 56.532 0 20.006-16.276 36.283-36.283 36.283zm-.01-76.266c-8.765 10.64-21.272 28.366-21.272 39.982 0 11.735 9.547 21.283 21.283 21.283 11.735 0 21.283-9.548 21.283-21.283-.001-11.515-12.666-29.453-21.294-39.982z"/></g></g><g><g><path d="m193.339 511.954c-20.007 0-36.283-16.276-36.283-36.282 0-22.903 27.65-53.158 30.803-56.532 3.653-3.173 7.307-3.173 10.96 0 3.153 3.374 30.803 33.629 30.803 56.532 0 20.006-16.276 36.282-36.283 36.282zm-.01-76.264c-8.765 10.64-21.272 28.366-21.272 39.982 0 11.735 9.547 21.282 21.283 21.282 11.735 0 21.283-9.547 21.283-21.282-.001-11.516-12.666-29.453-21.294-39.982z"/></g><g><path d="m318.57 511.954c-20.006 0-36.283-16.276-36.283-36.282 0-22.903 27.65-53.158 30.803-56.532 3.653-3.173 7.307-3.173 10.96 0 3.153 3.374 30.803 33.629 30.803 56.532 0 20.006-16.276 36.282-36.283 36.282zm0-76.277c-8.765 10.639-21.283 28.374-21.283 39.995 0 11.735 9.547 21.282 21.283 21.282s21.283-9.547 21.283-21.282c0-11.62-12.517-29.355-21.283-39.995z"/></g></g><g><g><path d="m17.379 147.087c-3.759-1.739-4.749-6.706-2.642-10.272 19.129-32.373 54.346-52.484 91.907-52.484 4.155 0 8.327.243 12.463.725 24.599-51.861 76.778-85.056 134.517-85.056 38.685 0 75.329 14.766 103.181 41.577 2.984 2.873 3.075 7.62.202 10.604s-7.621 3.075-10.604.202c-25.044-24.106-57.993-37.383-92.779-37.383-53.662 0-101.983 31.886-123.105 81.231-1.366 3.192-4.743 5.029-8.167 4.44-5.171-.891-10.456-1.342-15.708-1.342-32.281 0-62.549 17.287-78.993 45.115-1.399 2.37-4.697 5.223-10.272 2.643z"/></g><g><path d="m194.245 297.71h-87.6c-65.271 0-116.633-61.463-104.99-125.727.739-4.076 4.644-6.783 8.717-6.043 4.076.738 6.781 4.642 6.042 8.717-9.982 55.081 34.287 108.053 90.23 108.053h87.6c4.142 0 7.5 3.357 7.5 7.5s-3.357 7.5-7.499 7.5z"/></g><g><path d="m428.695 297.71h-201.76c-4.142 0-7.5-3.357-7.5-7.5s3.358-7.5 7.5-7.5h201.76c37.639 0 68.26-30.621 68.26-68.26 0-36.899-31.278-68.26-68.26-68.26h-34.08c-3.937 0-7.204-3.044-7.481-6.971-1.402-19.822-7.049-38.64-16.784-55.93-2.032-3.609-.754-8.183 2.855-10.215 3.61-2.033 8.184-.753 10.215 2.855 9.685 17.2 15.733 35.76 18.021 55.26h27.253c45.008 0 83.26 38.15 83.26 83.26 0 45.911-37.35 83.261-83.259 83.261z"/></g></g></g></g></svg>