<svg id="Capa_1" enable-background="new 0 0 512.001 512.001" height="512" viewBox="0 0 512.001 512.001" width="512" xmlns="http://www.w3.org/2000/svg"><g><path d="m375.703 167.71c42.669 34.771 69.932 87.754 69.932 147.101 0 104.763-84.927 189.671-189.69 189.671s-189.69-84.908-189.69-189.671c0-36.034 10.043-69.722 27.504-98.408 0 0 26.043 34.935 55.796 36.47 0 0-26.2-182.704 157.548-245.345 0 0-41.966 57.766-23.008 109.469 15.312 41.761 61.637 37.739 62.681 120.912-.001-.001 23.055-25.556 28.927-70.199z" fill="#fd8087"/><path d="m280.945 502.848c-8.18 1.07-16.53 1.63-25 1.63-104.76 0-189.69-84.9-189.69-189.67 0-36.03 10.04-69.72 27.5-98.4 0 0 14.91 20 35.06 30.39-8.12 21.11-12.56 44.04-12.56 68.01.001 96.29 71.751 175.8 164.69 188.04z" fill="#fe646f"/><path d="m307.105 7.527s-10.22 14.07-18.3 34.54c-108.3 77.97-89.25 210.81-89.25 210.81-22.24-1.15-42.41-20.96-51.18-30.89 1.54-54.85 22.05-167.87 158.73-214.46z" fill="#fe646f"/><path d="m349.515 410.949c0 25.838-10.479 49.217-27.408 66.147-16.929 16.929-40.328 27.386-66.165 27.386-51.657 0-93.537-41.858-93.556-93.515 0-.019 0-.019 0-.037-.24-19.48 3.974-42.508 15.692-69.233l38.258 11.182c1.405-73.965 70.176-100.006 70.176-100.006 2.476 24.341 8.76 47.887 21.79 69.178 9.481 15.47 18.445 28.721 28.813 43.562 8.981 12.881 12.474 29.885 12.4 45.336z" fill="#fef48b"/><path d="m270.945 503.277c-4.88.79-9.89 1.2-15 1.2-51.66 0-93.54-41.85-93.56-93.51 0-.02 0-.02 0-.04-.24-19.48 3.97-42.51 15.69-69.23l26.75 7.82c-9.26 23.42-12.66 43.86-12.44 61.41v.04c.021 46.55 34.03 85.141 78.56 92.31z" fill="#fef056"/><path d="m288.826 269.348c-19.28 15.11-41.7 41.63-42.49 83.53l-29.52-8.63c6.3-67.37 69.69-91.37 69.69-91.37.559 5.54 1.33 11.04 2.32 16.47z" fill="#fef056"/><g><path d="m453.136 314.808c0-59.534-26.495-115.27-72.693-152.915-5.951-3.153-10.009-1.54-12.173 4.837-2.736 20.813-9.468 37.314-15.532 48.63-4.664-35.116-19.119-51.891-33.825-65.94-13.516-12.929-26.553-25.699-30.568-44.758-.854-4.055-4.844-6.645-8.885-5.793-4.054.854-6.647 4.832-5.793 8.885 4.668 22.151 19.191 37.493 34.879 52.507 15.871 15.162 30.164 32.517 30.731 77.741 2.113 7.586 6.468 9.23 13.066 4.932.904-1.002 20.146-22.692 28.456-60.807 36.594 34.389 57.337 82.047 57.337 132.682 0 75.079-45.663 139.688-110.674 167.539 19.932-19.961 30.656-48.43 29.457-76.54-.178-4.14-3.718-7.379-7.813-7.173-4.139.177-7.35 3.676-7.173 7.813 1.032 23.982-8.102 48.318-25.131 65.347-16.239 16.24-37.852 25.184-60.856 25.184-80.839 0-98.132-85.291-73.555-146.206l31.841 9.305c5.526.811 8.727-1.542 9.602-7.058.537-28.339 11.557-52.55 32.754-71.961 8.739-8.002 17.527-13.53 23.768-16.925 3.536 23.677 10.622 43.987 21.546 61.836 10.377 16.916 24.356 32.931 33.041 50.753 1.813 3.725 6.305 5.275 10.026 3.458 3.725-1.813 5.272-6.303 3.458-10.026-8.916-18.312-23.083-34.657-33.735-52.021-11.302-18.466-18.081-40.06-20.727-66.016-1.318-5.408-4.69-7.492-10.117-6.253-.756.286-18.731 7.203-36.943 23.724-21.837 19.811-34.682 45.048-37.5 73.451l-29.227-8.54c-3.617-1.055-7.458.735-8.972 4.187-20.602 46.971-25.859 104.352 13.188 143.532-57.103-24.579-99.934-77.618-108.89-142.094-.57-4.103-4.357-6.962-8.46-6.396-4.103.57-6.967 4.357-6.397 8.461 13.381 96.328 99.984 172.173 197.884 169.755 107.543-1.391 194.605-89.282 194.605-197.137z"/><path d="m66.12 315.964c.083.003.167.004.25.004 4.029 0 7.359-3.198 7.492-7.255.907-27.736 8.173-54.937 21.111-79.291 10.418 11.259 30.928 29.74 54.195 30.945 5.297-.392 7.901-3.244 7.812-8.555-13.967-97.66 43.724-191.824 132.604-229.579-6.537 12.643-13.965 30.48-16.764 50.231-.581 4.102 2.272 7.897 6.373 8.479 4.105.587 7.897-2.271 8.479-6.373 4.774-33.688 25.277-62.371 25.502-62.634 6.772-7.909-2.561-13.576-8.487-11.508-104.9 36.606-170.564 131.821-163.505 243.397-22.269-6.64-41.206-31.623-41.415-31.901-4.346-4.206-8.486-4.012-12.418.584-17.525 28.789-27.374 61.887-28.48 95.715-.135 4.139 3.111 7.605 7.251 7.741z"/></g></g></svg>