<svg id="Capa_1" enable-background="new 0 0 512 512" height="512" viewBox="0 0 512 512" width="512" xmlns="http://www.w3.org/2000/svg"><g><path d="m327.863 283.703c0 39.098-31.695 70.794-70.794 70.794-39.098 0-70.794-31.695-70.794-70.794 0-50.682 70.794-126.451 70.794-126.451s70.794 75.768 70.794 126.451z" fill="#8ac9fe"/><path d="m281.968 349.99c-7.738 2.908-16.134 4.502-24.898 4.502-39.101 0-70.792-31.691-70.792-70.792 0-50.683 70.792-126.445 70.792-126.445s11.314 12.111 24.898 29.888c-20.387 26.681-45.893 66.131-45.893 96.556 0 30.338 19.072 56.212 45.893 66.291z" fill="#60b7ff"/><g><g fill="#c6ea7c"><path d="m257.048 426.514c-84.561 0-154.944-61.838-168.333-142.664h34.743c4.845 0 7.458-5.684 4.304-9.361l-59.126-68.94-59.126 68.94c-3.154 3.678-.541 9.361 4.304 9.361h35.784c6.014 45.3 26.587 87.169 59.451 120.024 39.528 39.537 92.096 61.307 148 61.307s108.472-21.77 148-61.307c7.68-7.68 14.689-15.85 20.999-24.442 6.552-8.921 4.328-21.508-4.889-27.635-8.673-5.765-20.285-3.6-26.445 4.797-31.083 42.366-81.215 69.92-137.666 69.92z"/><path d="m498.839 233.64h-33.656c-4.984-47.5-25.888-91.527-60.135-125.766-39.528-39.537-92.096-61.307-148-61.307s-108.472 21.77-148 61.307c-7.747 7.741-14.814 15.986-21.168 24.66-7.222 9.86-3.353 23.895 7.821 28.848l.319.142c8.3 3.679 17.977.988 23.345-6.334 31.074-42.382 81.215-69.955 137.682-69.955 86.553 0 158.261 64.784 169.192 148.406h-37.044c-4.845 0-7.458 5.683-4.304 9.361l59.126 68.941 59.126-68.941c3.154-3.678.541-9.362-4.304-9.362z"/></g></g><g><g fill="#b2e254"><path d="m43.689 283.85h-29.878c-4.84 0-7.46-5.687-4.303-9.362l59.129-68.939 14.939 17.419-44.19 51.52c-3.156 3.675-.537 9.362 4.303 9.362z"/><path d="m138.921 403.871c35.983 35.993 82.783 57.267 133.068 60.792-4.95.338-9.93.518-14.939.518-55.902 0-108.478-21.771-148.007-61.31-32.856-32.856-53.432-74.715-59.448-120.021h29.878c6.016 45.305 26.592 87.165 59.448 120.021z"/><path d="m117.757 132.537c-5.408 7.39-4.601 17.12.847 23.614-5.478 6.593-14.66 8.884-22.588 5.378l-.319-.149c-11.174-4.95-15.039-18.983-7.818-28.843 6.354-8.675 13.425-16.921 21.164-24.659 39.529-39.539 92.105-61.31 148.007-61.31 5.01 0 9.989.179 14.939.518-50.285 3.526-97.084 24.799-133.068 60.792-7.738 7.738-14.81 15.984-21.164 24.659z"/><path d="m426.24 233.645c-10.298-78.769-74.506-140.816-154.251-147.758 4.92-.438 9.91-.657 14.939-.657 86.547 0 158.255 64.786 169.19 148.415z"/><path d="m458.956 294.527-14.939 17.419-59.129-68.949c-3.147-3.675-.538-9.352 4.302-9.352h29.878c-4.84 0-7.45 5.677-4.302 9.352z"/></g></g><g><path d="m291.518 213.352c2.281 3.44 6.917 4.375 10.353 2.098 3.438-2.28 4.378-6.915 2.098-10.353-19.392-29.243-40.551-51.986-41.441-52.939-3.639-3.16-7.277-3.16-10.915 0-2.973 3.181-72.804 78.523-72.804 131.544 0 43.153 35.108 78.26 78.261 78.26s78.261-35.107 78.261-78.26c0-12.876-4.092-28.058-12.16-45.123-1.764-3.73-6.218-5.322-9.946-3.56-3.729 1.763-5.323 6.217-3.56 9.946 7.117 15.053 10.727 28.086 10.727 38.737 0 34.915-28.406 63.321-63.322 63.321s-63.322-28.406-63.322-63.321c0-39.187 47.05-96.563 63.326-115.236 7.495 8.589 21.513 25.385 34.444 44.886z"/><path d="m425.29 345.569c-11.575-7.681-28.485-4.447-36.605 6.607-30.712 41.873-79.921 66.873-131.635 66.873-77.207 0-142.841-53.205-159.288-127.729h25.692c13.605-.089 17.754-10.713 9.973-21.693l-59.119-68.94c-3.78-3.476-7.56-3.477-11.34-.001l-59.125 68.935c-8.042 10.156-2.864 21.443 9.968 21.699h29.338c21.774 133.435 166.098 215.415 291.939 166.918 3.85-1.483 5.768-5.806 4.283-9.656-1.482-3.849-5.805-5.768-9.656-4.283-119.516 46.059-255.845-34.372-272.716-161.432-.493-3.712-3.659-6.486-7.404-6.486h-31.868l50.911-59.358 50.902 59.358h-30.824c-5.139.622-7.596 3.518-7.369 8.69 6.809 41.11 28.112 78.787 59.984 106.094 32.234 27.615 73.33 42.823 115.72 42.823 28.407 0 56.689-6.886 81.787-19.915 24.273-12.6 45.676-30.949 61.891-53.057 5.038-5.41 10.468-6.412 16.292-3.006 5.848 4.808 6.851 10.474 3.01 16.998-15.847 21.578-35.995 40.066-58.931 53.91-3.531 2.132-4.667 6.724-2.535 10.255 2.133 3.532 6.724 4.667 10.255 2.535 24.513-14.796 46.3-34.778 63.254-57.86 9.089-12.394 5.293-30.237-6.784-38.279z"/><path d="m498.834 226.175h-27.028c-19.841-146.428-186.006-231.368-316.528-161.819-3.641 1.94-5.02 6.464-3.08 10.105 1.94 3.64 6.462 5.021 10.105 3.079 124.059-66.107 280.845 17.558 295.449 156.883.399 3.803 3.604 6.691 7.429 6.691h29.74l-50.904 59.358-50.904-59.358h33.127c5.016-.577 7.485-3.39 7.406-8.438-11.548-88.316-87.468-154.916-176.596-154.916-28.415 0-56.705 6.89-81.811 19.927-24.277 12.606-45.682 30.961-61.904 53.084-9.833 13.425-27.384-2.961-19.43-13.821 10.497-14.33 23.19-27.559 37.01-38.681 3.213-2.586 3.722-7.288 1.136-10.502-2.585-3.212-7.288-3.723-10.502-1.136-14.824 11.929-28.438 26.122-39.697 41.492-19.947 27.235 22.212 60.593 43.533 31.478 30.716-41.892 79.936-66.902 131.664-66.902 78.786 0 146.308 56.807 160.455 133.475h-28.314c-13.48.443-18.584 11.648-9.973 21.685l59.129 68.948c3.78 3.475 7.56 3.475 11.34 0l59.132-68.953c6.685-6.683 2.59-21.679-9.984-21.679z"/></g></g></svg>