<svg id="Capa_1" enable-background="new 0 0 511.908 511.908" height="512" viewBox="0 0 511.908 511.908" width="512" xmlns="http://www.w3.org/2000/svg"><g><path d="m254.846 63.218h-58.688c-18.041 0-32.667-14.625-32.667-32.667v-23.034h58.687c18.041 0 32.667 14.625 32.667 32.667v23.034z" fill="#c6ea7c"/><path d="m226.154 63.214h-30c-18.04 0-32.66-14.62-32.66-32.66v-23.04h30v23.04c0 18.04 14.62 32.66 32.66 32.66z" fill="#b2e254"/><path d="m254.846 63.218h58.687c18.041 0 32.667-14.625 32.667-32.667v-23.034h-58.688c-18.041 0-32.667 14.625-32.667 32.667v23.034z" fill="#c6ea7c"/><path d="m317.514 7.514c-18.04 0-32.67 14.63-32.67 32.67v23.03h-30v-23.03c0-18.04 14.63-32.67 32.67-32.67z" fill="#b2e254"/><path d="m441.834 428.502-137.953-151.529v-100.165h-95.855v100.165l-137.952 151.529c-26.531 29.142-5.855 75.926 33.555 75.926h304.649c39.411.001 60.086-46.784 33.556-75.926z" fill="#ecf6fe"/><path d="m120.074 428.504c-26.53 29.14-5.85 75.92 33.56 75.92h-50c-39.41 0-60.09-46.78-33.56-75.92l137.95-151.53v-100.17h50v100.17z" fill="#dbebfc"/><path d="m408.274 504.424h-304.64c-39.41 0-60.09-46.78-33.56-75.92l75.88-83.35h.27c54.87 0 54.87 21.56 109.73 21.56s54.86-21.56 109.73-21.56h.27l75.88 83.35c26.53 29.14 5.85 75.92-33.56 75.92z" fill="#8ac9fe"/><path d="m120.074 428.504c-26.53 29.14-5.85 75.92 33.56 75.92h-50c-39.41 0-60.09-46.78-33.56-75.92l75.88-83.35h.27c20.17 0 32.93 2.91 43.72 6.6z" fill="#60b7ff"/><path d="m178.946 131.772h154.016v44.952h-154.016z" fill="#dbebfc"/><path d="m178.944 131.769h50v44.95h-50z" fill="#c9e2fb"/><circle cx="150.328" cy="447.824" fill="#ecf6fe" r="18.58"/><circle cx="336.694" cy="407.817" fill="#ecf6fe" r="18.105"/><g><path d="m447.38 423.439-135.996-149.383v-89.338h21.58c4.143 0 7.5-3.357 7.5-7.5v-44.95c0-4.143-3.357-7.5-7.5-7.5h-22.189c-4.143 0-7.5 3.357-7.5 7.5s3.357 7.5 7.5 7.5h14.689v29.95h-139.02v-29.95h91.649c4.143 0 7.5-3.357 7.5-7.5s-3.357-7.5-7.5-7.5h-14.64v-54.066h51.188c22.148 0 40.167-18.019 40.167-40.167v-23.035c0-4.143-3.357-7.5-7.5-7.5h-58.688c-13.453 0-25.374 6.655-32.667 16.838-7.292-10.183-19.213-16.838-32.666-16.838h-58.687c-4.143 0-7.5 3.357-7.5 7.5v23.035c0 22.148 18.019 40.167 40.167 40.167h51.188v54.065h-69.51c-4.143 0-7.5 3.357-7.5 7.5v44.95c0 4.143 3.357 7.5 7.5 7.5h21.58v18.96c0 4.143 3.357 7.5 7.5 7.5s7.5-3.357 7.5-7.5v-18.96h32.93v100.515l-30.253 20.824c-2.032 1.399-3.247 3.71-3.247 6.178v16.203c0 4.143 3.357 7.5 7.5 7.5s7.5-3.357 7.5-7.5v-12.261l18.5-12.734v55.604c-21.078-.864-32.55-5.367-44.616-10.109-11.235-4.415-22.783-8.947-41.53-10.623l51.263-56.309c1.258-1.381 1.954-3.182 1.954-5.049v-40.601c0-4.143-3.357-7.5-7.5-7.5s-7.5 3.357-7.5 7.5v37.698l-135.998 149.386c-14.301 15.707-17.851 37.534-9.264 56.964 8.588 19.433 27.122 31.505 48.369 31.505h304.641c21.247 0 39.781-12.072 48.369-31.505 8.587-19.429 5.038-41.257-9.263-56.964zm-158.759-408.439h51.188v15.535c0 13.877-11.29 25.167-25.167 25.167h-51.188v-15.535c0-13.877 11.29-25.167 25.167-25.167zm-116.521 15.535v-15.535h51.188c13.877 0 25.167 11.29 25.167 25.167v15.535h-51.188c-13.877 0-25.167-11.29-25.167-25.167zm270.824 443.805c-6.152 13.921-19.429 22.568-34.649 22.568h-304.641c-15.221 0-28.497-8.647-34.649-22.568-6.15-13.917-3.607-29.552 6.636-40.803l73.626-80.874c23.992.372 36.209 5.167 49.106 10.236 14.136 5.555 28.753 11.299 57.603 11.299 14.867 0 27.197-1.501 38.806-4.724 3.991-1.107 6.329-5.241 5.221-9.232s-5.242-6.333-9.232-5.221c-8.289 2.301-17.118 3.594-27.294 4.012v-118.465l10.959 8.338c3.699 2.44 7.202 1.964 10.51-1.428 2.508-3.296 1.869-8.002-1.428-10.51l-20.041-15.249v-37.002h32.93v92.24c0 1.867.696 3.668 1.954 5.049l51.26 56.306c-9.451.847-17.958 2.514-26.388 5.131-3.955 1.229-6.183 5.437-4.938 9.388 1.182 3.747 3.682 6.622 9.387 4.938 10.689-3.154 21.547-4.904 35.002-5.108l73.627 80.875c10.24 11.252 12.783 26.887 6.633 40.804z"/><path d="m150.328 421.728c-14.381 0-26.08 11.699-26.08 26.08s11.699 26.08 26.08 26.08 26.08-11.699 26.08-26.08-11.699-26.08-26.08-26.08zm0 37.16c-6.109 0-11.08-4.971-11.08-11.08s4.971-11.08 11.08-11.08 11.08 4.971 11.08 11.08-4.97 11.08-11.08 11.08z"/><path d="m336.694 382.195c-14.119 0-25.605 11.486-25.605 25.605s11.486 25.605 25.605 25.605 25.606-11.485 25.606-25.604-11.487-25.606-25.606-25.606zm0 36.211c-5.848 0-10.605-4.758-10.605-10.605s4.758-10.605 10.605-10.605 10.605 4.758 10.605 10.605-4.757 10.605-10.605 10.605z"/><path d="m98.284 469.773c-4.142 0-7.5-3.358-7.5-7.5 0-4.142 3.358-7.5 7.5-7.5 4.142 0 7.5 3.358 7.5 7.5 0 4.142-3.358 7.5-7.5 7.5z"/><path d="m211.454 473.594c-4.142 0-7.5-3.358-7.5-7.5 0-4.142 3.358-7.5 7.5-7.5 4.142 0 7.5 3.358 7.5 7.5 0 4.142-3.358 7.5-7.5 7.5z"/><path d="m202.284 415.303c-4.142 0-7.5-3.358-7.5-7.5 0-4.142 3.358-7.5 7.5-7.5 4.142 0 7.5 3.358 7.5 7.5 0 4.142-3.358 7.5-7.5 7.5z"/><path d="m249.454 423.439c-4.142 0-7.5-3.358-7.5-7.5 0-4.142 3.358-7.5 7.5-7.5 4.142 0 7.5 3.358 7.5 7.5 0 4.142-3.358 7.5-7.5 7.5z"/><path d="m330.441 473.794c-4.142 0-7.5-3.358-7.5-7.5 0-4.142 3.358-7.5 7.5-7.5 4.142 0 7.5 3.358 7.5 7.5 0 4.142-3.358 7.5-7.5 7.5z"/><path d="m386.941 455.297c-4.142 0-7.5-3.358-7.5-7.5 0-4.142 3.358-7.5 7.5-7.5 4.142 0 7.5 3.358 7.5 7.5 0 4.142-3.357 7.5-7.5 7.5z"/></g></g></svg>