<?xml version="1.0" encoding="iso-8859-1"?>
<!-- Generator: Adobe Illustrator 19.0.0, SVG Export Plug-In . SVG Version: 6.00 Build 0)  -->
<svg version="1.1" id="Layer_1" xmlns="http://www.w3.org/2000/svg" xmlns:xlink="http://www.w3.org/1999/xlink" x="0px" y="0px"
	 viewBox="0 0 511.498 511.498" style="enable-background:new 0 0 511.498 511.498;" xml:space="preserve">
<path style="fill:#663333;" d="M511.066,289.628c0.923,3.039,0.351,6.328-1.545,8.876c-1.896,2.547-4.884,4.052-8.054,4.052H471.38
	c-3.179,0-6.158-1.504-8.054-4.052c-1.896-2.547-2.467-5.837-1.545-8.876l14.613-48.311v-8.164c0-31.051-23.79-56.635-54.098-59.494
	c3.891,3.59,7.422,7.572,10.521,11.905c1.344,1.886,6.278,10.37,7.271,12.547c4.613,10.059,6.95,20.811,6.95,31.943v124.012
	c0,0.532-0.04,1.063-0.13,1.595l-14.542,90.173c-0.782,4.864-4.975,8.435-9.899,8.435h-72.853c-2.678,0-5.255-1.073-7.141-2.989
	c-1.885-1.906-2.919-4.493-2.888-7.181l0.873-60.587c-3.33,0.471-13.74,0.652-15.535,0.522v11.975
	c0,5.536-4.493,10.029-10.029,10.029c-5.546,0-10.029-4.493-10.029-10.029v-16.408c-5.295-1.996-10.31-4.613-14.964-7.773v6.298
	c0,5.546-4.483,10.029-10.029,10.029c-5.536,0-10.029-4.483-10.029-10.029v-26.879c-1.073-1.675-2.096-3.4-3.039-5.175h-31.001
	l-8.104,98.989c-0.431,5.205-4.774,9.207-9.999,9.207h-70.947c-5.215,0-9.568-4.002-9.989-9.207l-9.367-114.304
	c-19.337-14.462-30.74-37.068-30.74-61.429v-7.592H91.49c-15.305,0-27.751-12.446-27.751-27.751v-8.665
	c0-9.949,5.265-18.695,13.158-23.599l-6.579-47.719c-7.321,3.801-15.515,5.847-23.94,5.847c-18.514,0-35.764-9.959-45.032-25.996
	c-1.795-3.109-1.795-6.93,0-10.039c9.267-16.017,26.528-25.976,45.032-25.976c11.433,0,22.315,3.701,31.221,10.4
	c0.511-0.471,1.033-0.913,1.575-1.344c-11.002-9.678-17.952-23.86-17.952-39.636c0-5.546,4.493-10.029,10.029-10.029
	c5.546,0,10.029,4.483,10.029,10.029c0,18.063,14.703,32.766,32.766,32.766h26.146c18.063,0,32.766-14.703,32.766-32.766
	c0-5.546,4.493-10.029,10.029-10.029s10.029,4.483,10.029,10.029c0,15.766-6.95,29.948-17.952,39.636
	c0.542,0.431,1.063,0.883,1.575,1.354c8.906-6.71,19.788-10.41,31.231-10.41c18.494,0,35.744,9.949,45.022,25.976
	c1.805,3.109,1.805,6.94,0.01,10.049c-4.794,8.294-11.734,14.954-19.868,19.457H416.63c44.009,0,79.823,35.815,79.823,79.833v8.164
	L511.066,289.628z M491.188,284.834l-4.764-15.746l-4.764,15.746H491.188z M426.98,353.264v-123.21
	c0-8.234-3.3-23.298-10.501-32.856c-9.789-12.988-20.911-17.872-20.991-17.912c-3.931-1.966-14.372-5.907-25.174-5.907
	c0,0-188.09-0.15-189.012-0.441l-3.962,28.784c7.893,4.904,13.158,13.65,13.158,23.599v8.665c0,15.305-12.446,27.751-27.741,27.751
	h-46.045v7.592c0,19.246,9.638,37.008,25.775,47.519c9.187,5.987,19.868,9.157,30.89,9.157c0.15,0,0.311,0,0.461,0.01h0.06
	c5.225,0,9.568,4.002,9.999,9.207l8.114,98.989h16.448l8.104-98.989c0.431-5.205,4.774-9.207,9.999-9.207h123.28
	c2.969,0,5.787,1.314,7.692,3.6c5.827,6.97,13.319,12.406,21.673,15.736c3.159,1.254,6.379,2.206,9.568,2.818
	c4.774,0.933,8.194,5.135,8.124,9.989l-1.093,76.052h18.113L426.98,353.264z M375.739,434.211l0.973-66.905
	c-4.894,4.122-10.32,7.572-16.107,10.26l-0.812,56.646L375.739,434.211L375.739,434.211z M347.368,361.318
	c3.58-1.244,7.01-2.888,10.23-4.874c-4.423-2.999-8.535-6.479-12.236-10.37h-54.439c9.688,11.313,23.95,18.103,39.425,18.103
	C336.215,364.176,341.942,363.213,347.368,361.318z M231.93,128.838c-6.008-6.86-14.783-10.942-24.06-10.942
	c-8.054,0-15.676,2.989-21.523,8.334c0.301,1.825,0.441,3.691,0.401,5.566c5.797,5.115,13.299,7.993,21.122,7.993
	C217.157,139.79,225.922,135.708,231.93,128.838z M171.874,434.211l-7.261-88.649c-5.526-0.632-10.942-1.865-16.167-3.661
	l7.552,92.31L171.874,434.211L171.874,434.211z M170.441,233.986v-8.665c0-4.242-3.45-7.692-7.682-7.692H91.49
	c-4.242,0-7.692,3.45-7.692,7.692v8.665c0,4.242,3.45,7.692,7.692,7.692h71.268C166.99,241.678,170.441,238.228,170.441,233.986z
	 M166.588,132.77c0.451-3.239-0.491-6.389-2.638-8.856c-2.156-2.467-5.145-3.831-8.425-3.831H98.71c-3.28,0-6.268,1.364-8.425,3.831
	c-2.146,2.467-3.089,5.616-2.638,8.856l1.886,13.63c1.775-2.227,4.503-3.661,7.572-3.661c5.336,0,9.658,4.323,9.658,9.658
	c0,5.336-4.323,9.658-9.658,9.658c-2.126,0-4.082-0.692-5.677-1.855v0.01l5.155,37.359h61.068l5.155-37.349v-0.01
	c-1.595,1.153-3.55,1.845-5.667,1.845c-5.336,0-9.668-4.323-9.668-9.658c0-5.336,4.333-9.658,9.668-9.658
	c3.069,0,5.787,1.434,7.572,3.661L166.588,132.77z M67.49,131.787c-0.04-1.865,0.1-3.721,0.401-5.556
	c-5.847-5.346-13.459-8.334-21.513-8.334c-9.287,0-18.063,4.082-24.07,10.942c6.008,6.87,14.783,10.952,24.07,10.952
	C54.2,139.79,61.702,136.912,67.49,131.787z"/>
<g>
	<polygon style="fill:#F9DCB2;" points="486.424,269.088 491.188,284.834 481.66,284.834 	"/>
	<path style="fill:#F9DCB2;" d="M426.98,230.054v123.21l-13.058,80.947h-18.113l1.093-76.052c0.07-4.854-3.35-9.056-8.124-9.989
		c-3.189-0.612-6.409-1.565-9.568-2.818c-8.354-3.33-15.846-8.766-21.673-15.736c-1.906-2.287-4.724-3.6-7.692-3.6h-123.28
		c-5.225,0-9.568,4.002-9.999,9.207l-8.104,98.989h-16.448l-8.114-98.989c-0.431-5.205-4.774-9.207-9.999-9.207h-0.06
		c-0.15-0.01-0.311-0.01-0.461-0.01c-11.022,0-21.703-3.169-30.89-9.157c-16.137-10.511-25.775-28.273-25.775-47.519v-7.592h46.045
		c15.295,0,27.741-12.446,27.741-27.751v-8.665c0-9.949-5.265-18.695-13.158-23.599l3.962-28.784
		c0.923,0.291,189.012,0.441,189.012,0.441c10.802,0,21.242,3.942,25.174,5.907c0.08,0.04,11.203,4.924,20.991,17.912
		C423.68,206.756,426.98,221.82,426.98,230.054z M399.901,230.054c0-4.303-0.903-8.455-2.668-12.296
		c-0.351-0.792-4.022-7.081-8.705-11.002c-1.434-1.204-5.135-3.239-5.135-3.239c-4.062-2.026-8.465-3.059-13.078-3.059h-48.141
		c-5.536,0-10.029,4.493-10.029,10.029s4.493,10.029,10.029,10.029h48.141c3.701,0,6.328,2.056,7.753,4.012
		c1.173,1.605,1.775,4.102,1.775,5.526c0,5.536,4.493,10.029,10.029,10.029S399.901,235.59,399.901,230.054z"/>
</g>
<path style="fill:#663333;" d="M397.233,217.758c1.765,3.841,2.668,7.993,2.668,12.296c0,5.536-4.493,10.029-10.029,10.029
	s-10.029-4.493-10.029-10.029c0-1.424-0.602-3.921-1.775-5.526c-1.424-1.956-4.052-4.012-7.753-4.012h-48.141
	c-5.536,0-10.029-4.493-10.029-10.029s4.493-10.029,10.029-10.029h48.141c4.613,0,9.016,1.033,13.078,3.059
	c0,0,3.701,2.036,5.135,3.239C393.211,210.677,396.882,216.966,397.233,217.758z"/>
<path style="fill:#F9DCB2;" d="M376.712,367.305l-0.973,66.905h-15.947l0.812-56.646
	C366.393,374.877,371.819,371.427,376.712,367.305z"/>
<g>
	<path style="fill:#F2EBDC;" d="M357.596,356.443c-3.219,1.986-6.649,3.631-10.23,4.874c-5.426,1.896-11.153,2.858-17.02,2.858
		c-15.475,0-29.737-6.79-39.425-18.103h54.439C349.062,349.964,353.173,353.445,357.596,356.443z"/>
	<path style="fill:#F2EBDC;" d="M207.869,117.896c9.277,0,18.053,4.082,24.06,10.942c-6.008,6.87-14.773,10.952-24.06,10.952
		c-7.823,0-15.325-2.878-21.122-7.993c0.04-1.875-0.1-3.741-0.401-5.566C192.194,120.885,199.815,117.896,207.869,117.896z"/>
</g>
<path style="fill:#F9DCB2;" d="M164.614,345.562l7.261,88.649h-15.876l-7.552-92.31C153.672,343.696,159.086,344.93,164.614,345.562
	z"/>
<path style="fill:#B88D5B;" d="M170.441,225.32v8.665c0,4.242-3.45,7.692-7.682,7.692H91.49c-4.242,0-7.692-3.45-7.692-7.692v-8.665
	c0-4.242,3.45-7.692,7.692-7.692h71.268C166.99,217.628,170.441,221.078,170.441,225.32z"/>
<path style="fill:#F9DCB2;" d="M163.952,123.914c2.146,2.467,3.089,5.616,2.638,8.856l-1.875,13.63
	c-1.785-2.227-4.503-3.661-7.572-3.661c-5.336,0-9.668,4.323-9.668,9.658c0,5.336,4.333,9.658,9.668,9.658
	c2.116,0,4.072-0.692,5.667-1.845v0.01l-5.155,37.349H96.585L91.43,160.21v-0.01c1.595,1.163,3.55,1.855,5.677,1.855
	c5.336,0,9.658-4.323,9.658-9.658c0-5.336-4.323-9.658-9.658-9.658c-3.069,0-5.797,1.434-7.572,3.661l-1.886-13.63
	c-0.451-3.239,0.491-6.389,2.638-8.856c2.156-2.467,5.145-3.831,8.425-3.831h56.816
	C158.806,120.083,161.794,121.447,163.952,123.914z"/>
<path style="fill:#F2EBDC;" d="M67.89,126.231c-0.301,1.835-0.441,3.691-0.401,5.556c-5.787,5.125-13.289,8.003-21.112,8.003
	c-9.287,0-18.063-4.082-24.07-10.952c6.008-6.86,14.783-10.942,24.07-10.942C54.431,117.896,62.043,120.885,67.89,126.231z"/>
<g>
</g>
<g>
</g>
<g>
</g>
<g>
</g>
<g>
</g>
<g>
</g>
<g>
</g>
<g>
</g>
<g>
</g>
<g>
</g>
<g>
</g>
<g>
</g>
<g>
</g>
<g>
</g>
<g>
</g>
</svg>
