<?xml version="1.0" encoding="iso-8859-1"?>
<!-- Generator: Adobe Illustrator 19.0.0, SVG Export Plug-In . SVG Version: 6.00 Build 0)  -->
<svg version="1.1" id="Layer_1" xmlns="http://www.w3.org/2000/svg" xmlns:xlink="http://www.w3.org/1999/xlink" x="0px" y="0px"
	 viewBox="0 0 511.482 511.482" style="enable-background:new 0 0 511.482 511.482;" xml:space="preserve">
<path style="fill:#663333;" d="M511.358,454.343h0.124c0,17.714-14.409,32.123-32.123,32.123h-21.888
	c-8.163,0-15.901-3.563-21.205-9.789c-0.394-0.456-0.756-0.932-1.119-1.409h-15.487c-8.163,0-15.891-3.563-21.205-9.789
	c-5.304-6.215-7.603-14.451-6.309-22.593c1.958-12.348,12.431-21.878,24.975-23.214l-0.031-21.816l-59.564-74.595l-114.86,15.041
	c-0.01,27.327-0.041,84.301-0.041,84.301v20.573c0,17.714-14.399,32.123-32.102,32.123h-7.593
	c-5.894,6.827-14.596,11.167-24.312,11.167h-21.878c-8.173,0-15.901-3.574-21.215-9.789c-5.304-6.215-7.603-14.451-6.309-22.593
	c1.958-12.348,12.431-21.878,24.975-23.225v-94.888c-24.364-10.908-43.072-31.605-51.929-57.792
	c-0.083-0.207-33.874-108.437-33.874-108.437C30.144,166.52,0,134.355,0,95.292c0-5.718,4.641-10.359,10.359-10.359h48.583
	l31.916-25.866c0.373-3.999,1.502-8.007,3.346-11.923c5.956-12.7,18.346-21.174,32.309-22.106c3.222-0.218,6.309,1.243,8.184,3.864
	c1.098,1.512,2.061,3.108,2.921,4.755c4.775-2.061,9.976-3.191,15.342-3.222c3.595-0.01,6.909,1.792,8.826,4.817
	c7.666,12.099,8.163,27.472,1.285,40.12c-0.57,1.036-1.16,2.02-1.782,2.963l59.357,74.139c0,0,224.105,35.987,224.726,36.09
	c4.247,0.725,8.339-1.036,10.421-4.485c21.215-35.251,26.622-69.291,26.508-82.364c-0.041-5.532,4.278-10.141,9.81-10.442
	c5.511-0.29,10.317,3.802,10.866,9.313c0.29,2.952,6.982,72.751-8.888,113.565c-3.128,8.039-4.454,16.181-3.957,24.209
	c0.062,1.119,0.093,96.172,0.093,96.172l20.438,48.511c0.539,1.274,0.818,2.642,0.818,4.019
	C511.482,387.061,511.43,453.835,511.358,454.343z M490.764,454.343h0.124c-0.073-0.508-0.124-65.189-0.124-65.189l-20.438-48.511
	c-0.539-1.274-0.818-2.642-0.818-4.019c0,0-0.021-96.307-0.062-96.991c-0.684-11.043,1.119-22.147,5.335-32.993
	c2.9-7.469,4.931-16.253,6.329-25.493c-2.279,4.454-4.796,9.002-7.572,13.612c-6.505,10.815-18.936,16.398-31.646,14.233
	c-0.425-0.073-228.476-36.702-228.476-36.702c-2.538-0.404-4.838-1.751-6.443-3.75l-62.92-78.593
	c-5.2-6.495-5.418-15.683-0.528-22.344c0.477-0.642,0.932-1.367,1.367-2.155c2.206-4.071,2.818-8.753,1.854-13.135
	c-4.226,1.564-7.831,4.62-10.059,8.722c0,0-0.186,0.342-0.456,1.077c-2.994,7.894-10.815,12.938-19.174,12.472h-12.441
	l-35.479,28.756c-1.844,1.492-4.144,2.31-6.526,2.31H21.723c4.838,24.83,26.767,43.632,52.996,43.632h1.367
	c4.537,0,8.546,2.952,9.893,7.282l35.655,114.238c0.031,0.104,0.073,0.207,0.104,0.311c7.583,22.769,24.447,40.307,46.294,48.107
	v0.01c3.999,1.43,6.878,5.252,6.878,9.748v111.97c0,5.656-4.537,10.266-10.193,10.359l-7.479,0.114
	c-3.771,0-7.023,2.538-7.562,5.915c-0.466,2.942,0.808,4.952,1.616,5.894c1.357,1.595,3.346,2.517,5.449,2.517h21.878
	c6.288,0,11.405-5.117,11.405-11.405V433.77c0-0.01,0-0.01,0-0.021c0-1.222,0.021-81.846,0.031-100.368h0.01
	c0-5.128,3.781-9.582,9.002-10.266l170.021-22.261c18.377-2.403,36.898,5.148,48.355,19.703c0.031,0.041,0.062,0.083,0.083,0.114
	l55.99,73.186c1.388,1.834,2.072,3.967,2.113,6.101c0.01,0.062,0.021,0.135,0.021,0.197v40.793c0,5.656-4.537,10.266-10.193,10.359
	l-7.479,0.114c-3.781,0-7.023,2.538-7.562,5.915c-0.466,2.942,0.808,4.952,1.606,5.894c1.367,1.595,3.356,2.517,5.449,2.517h21.888
	C485.647,465.748,490.764,460.63,490.764,454.343z M454.933,430.859v-27.192l-53.815-70.347
	c-4.589-5.811-11.043-9.758-18.097-11.374l52.572,65.914c1.44,1.823,2.217,4.081,2.217,6.412l0.031,35.479
	c0,5.656-4.527,10.266-10.183,10.359l-7.49,0.114c-3.781,0-7.023,2.538-7.562,5.915c-0.466,2.942,0.808,4.952,1.616,5.894
	c1.357,1.595,3.346,2.517,5.438,2.517h10.235c0.021-0.155,0.041-0.311,0.062-0.466C431.915,441.736,442.388,432.206,454.933,430.859
	z M221.95,341.016l-11.177,1.471c-0.01,13.922-0.01,36.743-0.021,56.083c-0.01,19.34-0.01,35.2-0.01,35.2v20.573
	c0,0.073-0.01,0.155-0.01,0.228c6.184-0.114,11.177-5.179,11.177-11.395v-20.573C221.909,422.603,221.94,369.368,221.95,341.016z
	 M122.349,45.352c-0.062-0.166-0.104-0.342-0.166-0.508c-4.403,1.626-8.121,4.817-10.463,9.023h5.48
	c0.404-0.974,0.829-1.885,1.264-2.693C119.594,49.102,120.909,47.164,122.349,45.352z"/>
<g>
	<path style="fill:#B88D5B;" d="M490.889,454.343h-0.124c0,6.288-5.117,11.405-11.405,11.405h-21.888
		c-2.092,0-4.081-0.922-5.449-2.517c-0.798-0.943-2.072-2.952-1.606-5.894c0.539-3.377,3.781-5.915,7.562-5.915l7.479-0.114
		c5.656-0.093,10.193-4.703,10.193-10.359v-40.793c0-0.062-0.01-0.135-0.021-0.197c-0.041-2.134-0.725-4.268-2.113-6.101
		l-55.99-73.186c-0.021-0.031-0.052-0.073-0.083-0.114c-11.457-14.554-29.979-22.106-48.355-19.703l-170.021,22.261
		c-5.221,0.684-9.002,5.138-9.002,10.266h-0.01c-0.01,18.522-0.031,99.145-0.031,100.368c0,0.01,0,0.01,0,0.021v20.573
		c0,6.288-5.117,11.405-11.405,11.405h-21.878c-2.103,0-4.092-0.922-5.449-2.517c-0.808-0.943-2.082-2.952-1.616-5.894
		c0.539-3.377,3.791-5.915,7.562-5.915l7.479-0.114c5.656-0.093,10.193-4.703,10.193-10.359v-111.97c0-4.496-2.88-8.318-6.878-9.748
		v-0.01c-21.847-7.8-38.711-25.338-46.294-48.107c-0.031-0.104-0.073-0.207-0.104-0.311L85.979,156.565
		c-1.347-4.33-5.356-7.282-9.893-7.282h-1.367c-26.229,0-48.159-18.801-52.996-43.632h40.887c2.383,0,4.682-0.818,6.526-2.31
		l35.479-28.756h12.441c8.36,0.466,16.181-4.579,19.174-12.472c0.269-0.735,0.456-1.077,0.456-1.077
		c2.227-4.102,5.832-7.158,10.059-8.722c0.963,4.382,0.352,9.064-1.854,13.135c-0.435,0.787-0.891,1.512-1.367,2.155
		c-4.889,6.661-4.672,15.849,0.528,22.344l62.92,78.593c1.606,1.999,3.905,3.346,6.443,3.75c0,0,228.052,36.629,228.476,36.702
		c12.71,2.165,25.141-3.418,31.646-14.233c2.776-4.61,5.293-9.157,7.572-13.612c-1.398,9.24-3.429,18.025-6.329,25.493
		c-4.216,10.846-6.019,21.951-5.335,32.993c0.041,0.684,0.062,96.991,0.062,96.991c0,1.378,0.28,2.745,0.818,4.019l20.438,48.511
		C490.764,389.154,490.816,453.835,490.889,454.343z M190.49,287.16c1.916-5.387-0.891-11.312-6.278-13.239
		c-7.8-2.787-13.922-9.323-16.823-17.973l-9.468-30.331c-1.699-5.47-7.51-8.505-12.969-6.806c-5.47,1.709-8.515,7.51-6.806,12.98
		l9.499,30.424c0.01,0.052,0.031,0.104,0.041,0.145c0.01,0.021,0.041,0.104,0.041,0.114c4.9,14.72,15.652,26.011,29.523,30.963
		c1.15,0.414,2.32,0.601,3.481,0.601C184.99,294.038,188.978,291.397,190.49,287.16z M98.886,108.976
		c0-5.646-4.579-10.235-10.235-10.235c-5.646,0-10.235,4.589-10.235,10.235c0,5.656,4.589,10.235,10.235,10.235
		C94.308,119.211,98.886,114.632,98.886,108.976z"/>
	<path style="fill:#B88D5B;" d="M454.933,403.667v27.192c-12.545,1.347-23.018,10.877-24.975,23.225
		c-0.021,0.155-0.041,0.311-0.062,0.466h-10.235c-2.092,0-4.081-0.922-5.438-2.517c-0.808-0.943-2.082-2.952-1.616-5.894
		c0.539-3.377,3.781-5.915,7.562-5.915l7.49-0.114c5.656-0.093,10.183-4.703,10.183-10.359l-0.031-35.479
		c0-2.331-0.777-4.589-2.217-6.412l-52.572-65.914c7.054,1.616,13.508,5.563,18.097,11.374L454.933,403.667z"/>
	<path style="fill:#B88D5B;" d="M210.773,342.487l11.177-1.471c-0.01,28.352-0.041,81.587-0.041,81.587v20.573
		c0,6.215-4.993,11.281-11.177,11.395c0-0.073,0.01-0.155,0.01-0.228V433.77c0,0,0-15.859,0.01-35.2
		C210.763,379.23,210.763,356.409,210.773,342.487z"/>
</g>
<path style="fill:#663333;" d="M184.213,273.921c5.387,1.927,8.194,7.852,6.278,13.239c-1.512,4.237-5.501,6.878-9.758,6.878
	c-1.16,0-2.331-0.186-3.481-0.601c-13.871-4.952-24.623-16.243-29.523-30.963c0-0.01-0.031-0.093-0.041-0.114
	c-0.01-0.041-0.031-0.093-0.041-0.145l-9.499-30.424c-1.709-5.469,1.336-11.271,6.806-12.98c5.459-1.699,11.271,1.336,12.969,6.806
	l9.468,30.331C170.29,264.598,176.412,271.135,184.213,273.921z"/>
<path style="fill:#B88D5B;" d="M122.183,44.844c0.062,0.166,0.104,0.342,0.166,0.508c-1.44,1.813-2.755,3.75-3.885,5.822
	c-0.435,0.808-0.86,1.72-1.264,2.693h-5.48C114.062,49.661,117.781,46.47,122.183,44.844z"/>
<path style="fill:#663333;" d="M88.652,98.742c5.656,0,10.235,4.589,10.235,10.235c0,5.656-4.579,10.235-10.235,10.235
	c-5.646,0-10.235-4.579-10.235-10.235C78.417,103.331,83.006,98.742,88.652,98.742z"/>
<g>
</g>
<g>
</g>
<g>
</g>
<g>
</g>
<g>
</g>
<g>
</g>
<g>
</g>
<g>
</g>
<g>
</g>
<g>
</g>
<g>
</g>
<g>
</g>
<g>
</g>
<g>
</g>
<g>
</g>
</svg>
