<?xml version="1.0" encoding="iso-8859-1"?>
<!-- Generator: Adobe Illustrator 19.0.0, SVG Export Plug-In . SVG Version: 6.00 Build 0)  -->
<svg version="1.1" id="Layer_1" xmlns="http://www.w3.org/2000/svg" xmlns:xlink="http://www.w3.org/1999/xlink" x="0px" y="0px"
	 viewBox="0 0 511.456 511.456" style="enable-background:new 0 0 511.456 511.456;" xml:space="preserve">
<path style="fill:#663333;" d="M503.4,64.835c5.299,5.387,8.161,12.482,8.053,19.979c-0.294,19.098-7.65,37.282-20.73,51.2
	c-12.416,13.222-28.99,21.557-46.901,23.636c-1.066,0.348-2.209,0.533-3.363,0.533c-12.09,0-21.927,9.837-21.927,21.927v53.256
	h16.693c16.029,0,29.077,13.048,29.077,29.088c0,2.623-0.359,5.212-1.045,7.704c7.258,5.517,11.959,14.234,11.959,24.027
	c0,16.639-13.537,30.176-30.176,30.176h-48.327c-0.392,24.702-11.415,47.924-30.393,63.866
	c-15.311,12.873-34.757,19.958-54.78,19.958c-1.98,0-3.939,0.228-5.811,0.686c-1.948,0.468-3.776,1.164-5.495,2.035h34.224
	c22.101,0,40.089,17.977,40.089,40.089c0,0.446-0.044,0.881-0.076,1.328c8.651,7.356,14.147,18.314,14.147,30.524
	c0,10.632-8.651,19.283-19.283,19.283H10.969c-0.022,0-0.054,0.011-0.087,0.011v-0.011C4.875,504.129,0,499.265,0,493.247
	c0-4.668,2.96-8.651,7.095-10.186v-0.011l130.747-48.468v-100.68c0-74.128,60.308-134.436,134.436-134.436h29.251
	c9.837,0,17.846-8.009,17.846-17.857V99.907c0-13.864,6.529-26.236,16.66-34.213c-0.751-0.653-1.491-1.328-2.198-2.035
	c-11.502-11.502-16.018-28.402-11.818-44.116c0.914-3.384,3.548-6.018,6.932-6.921c11.665-3.123,23.973-1.426,34.235,4.353
	c1.404-2.263,2.982-4.407,4.745-6.388c2.329-2.612,5.887-3.776,9.315-3.069c15.909,3.319,28.968,14.963,34.061,30.393
	c1.981,6.007,2.677,12.275,2.111,18.445h69.721C490.82,56.358,498.013,59.361,503.4,64.835z M489.689,84.487
	c0.033-2.198-1.11-3.689-1.796-4.375c-1.262-1.284-2.949-1.991-4.755-1.991h-120.17c-12.046,0-21.829,9.772-21.829,21.786v81.702
	c0,21.851-17.77,39.621-39.61,39.621h-29.251c-62.125,0-112.672,50.547-112.672,112.672v108.254c0,4.549-2.84,8.619-7.106,10.196
	l-80.973,30.012h133.892v-66.489c0-6.007,4.864-10.882,10.882-10.882c6.007,0,10.882,4.875,10.882,10.882v66.489H366.69
	c-1.219-8.934-8.901-15.844-18.162-15.844h-72.702c-6.018,0-10.882-4.864-10.882-10.882v-20.621
	c0-21.633,14.669-40.263,35.682-45.313c3.537-0.849,7.215-1.284,10.915-1.284c14.897,0,29.381-5.278,40.775-14.854
	c14.136-11.872,22.33-29.164,22.624-47.554c-22.058-2.71-39.197-21.546-39.197-44.322v-15.278c0-6.018,4.875-10.882,10.882-10.882
	s10.882,4.864,10.882,10.882v15.278c0,12.634,10.273,22.907,22.896,22.907h64.639c4.636,0,8.412-3.776,8.412-8.412
	c0-4.636-3.776-8.401-8.412-8.401h-37.347c-6.007,0-10.882-4.875-10.882-10.882l-0.044-94.793c0-23.168,18.129-42.179,40.949-43.604
	C462.299,138.506,489.264,112.791,489.689,84.487z M444.583,266.021c0.076-0.522,0.131-1.045,0.131-1.567
	c0-5.245-4.255-9.5-9.489-9.5h-16.649v11.067H444.583z M393.688,56.358c0.653-4.092,0.337-8.292-0.979-12.308
	c-2.263-6.845-7.269-12.395-13.657-15.409c-0.337,0.62-0.642,1.251-0.914,1.893c5.3,7.585,8.183,16.617,8.27,25.823H393.688z
	 M366.831,56.358c-0.109-6.692-2.786-13.222-7.628-18.075c-5.104-5.093-12.079-7.791-19.13-7.617
	c-0.185,7.073,2.514,14.038,7.617,19.141c3.265,3.265,7.291,5.539,11.622,6.714C360.509,56.412,366.831,56.358,366.831,56.358z
	 M350.846,444.833c-3.003-6.018-9.217-10.164-16.388-10.164h-47.739c0,0.12-0.011,0.228-0.011,0.348v9.739
	C286.707,444.757,350.084,444.79,350.846,444.833z"/>
<g>
	<path style="fill:#B88D5B;" d="M487.893,80.113c0.686,0.686,1.828,2.176,1.796,4.375c-0.424,28.304-27.39,54.018-51.972,54.018
		c-22.819,1.426-40.949,20.436-40.949,43.604l0.044,94.793c0,6.007,4.875,10.882,10.882,10.882h37.347
		c4.636,0,8.412,3.765,8.412,8.401c0,4.636-3.776,8.412-8.412,8.412h-64.639c-12.623,0-22.896-10.273-22.896-22.907v-15.278
		c0-6.018-4.875-10.882-10.882-10.882s-10.882,4.864-10.882,10.882v15.278c0,22.776,17.139,41.613,39.197,44.322
		c-0.294,18.391-8.488,35.682-22.624,47.554c-11.393,9.576-25.877,14.854-40.775,14.854c-3.7,0-7.378,0.435-10.915,1.284
		c-21.013,5.049-35.682,23.679-35.682,45.313v20.621c0,6.018,4.864,10.882,10.882,10.882h72.702c9.261,0,16.943,6.91,18.162,15.844
		H227.183v-66.489c0-6.007-4.875-10.882-10.882-10.882c-6.018,0-10.882,4.875-10.882,10.882v66.489H71.527l80.973-30.012
		c4.266-1.578,7.106-5.648,7.106-10.196V333.902c0-62.125,50.547-112.672,112.672-112.672h29.251c21.84,0,39.61-17.77,39.61-39.621
		V99.907c0-12.014,9.783-21.786,21.829-21.786h120.17C484.944,78.122,486.631,78.829,487.893,80.113z M430.817,95.456
		c0-5.354-4.342-9.696-9.707-9.696c-5.354,0-9.696,4.342-9.696,9.696c0,5.365,4.342,9.707,9.696,9.707
		C426.475,105.163,430.817,100.821,430.817,95.456z M283.16,259.132c0-6.018-4.875-10.882-10.882-10.882
		c-47.239,0-85.663,38.424-85.663,85.652c0,6.018,4.875,10.882,10.882,10.882c6.018,0,10.882-4.864,10.882-10.882
		c0-35.225,28.663-63.888,63.899-63.888C278.285,270.014,283.16,265.139,283.16,259.132z"/>
	<path style="fill:#B88D5B;" d="M444.714,264.454c0,0.522-0.054,1.045-0.131,1.567h-26.008v-11.067h16.649
		C440.459,254.954,444.714,259.208,444.714,264.454z"/>
</g>
<path style="fill:#663333;" d="M421.111,85.761c5.365,0,9.707,4.342,9.707,9.696c0,5.365-4.342,9.707-9.707,9.707
	c-5.354,0-9.696-4.342-9.696-9.707C411.415,90.103,415.757,85.761,421.111,85.761z"/>
<g>
	<path style="fill:#B88D5B;" d="M392.709,44.05c1.317,4.015,1.632,8.216,0.979,12.308h-7.28c-0.087-9.206-2.971-18.238-8.27-25.823
		c0.272-0.642,0.577-1.273,0.914-1.893C385.439,31.655,390.445,37.205,392.709,44.05z"/>
	<path style="fill:#B88D5B;" d="M359.203,38.283c4.842,4.853,7.519,11.383,7.628,18.075c0,0-6.322,0.054-7.519,0.163
		c-4.331-1.175-8.357-3.45-11.622-6.714c-5.104-5.104-7.802-12.068-7.617-19.141C347.124,30.491,354.099,33.19,359.203,38.283z"/>
	<path style="fill:#B88D5B;" d="M334.457,434.669c7.171,0,13.385,4.146,16.388,10.164c-0.762-0.044-64.138-0.076-64.138-0.076
		v-9.739c0-0.12,0.011-0.229,0.011-0.348L334.457,434.669L334.457,434.669z"/>
</g>
<path style="fill:#663333;" d="M272.278,248.25c6.007,0,10.882,4.864,10.882,10.882c0,6.007-4.875,10.882-10.882,10.882
	c-35.236,0-63.899,28.663-63.899,63.888c0,6.018-4.864,10.882-10.882,10.882c-6.007,0-10.882-4.864-10.882-10.882
	C186.615,286.674,225.039,248.25,272.278,248.25z"/>
<g>
</g>
<g>
</g>
<g>
</g>
<g>
</g>
<g>
</g>
<g>
</g>
<g>
</g>
<g>
</g>
<g>
</g>
<g>
</g>
<g>
</g>
<g>
</g>
<g>
</g>
<g>
</g>
<g>
</g>
</svg>
