<?xml version="1.0" encoding="iso-8859-1"?>
<!-- Generator: Adobe Illustrator 19.0.0, SVG Export Plug-In . SVG Version: 6.00 Build 0)  -->
<svg version="1.1" id="Layer_1" xmlns="http://www.w3.org/2000/svg" xmlns:xlink="http://www.w3.org/1999/xlink" x="0px" y="0px"
	 viewBox="0 0 511.46 511.46" style="enable-background:new 0 0 511.46 511.46;" xml:space="preserve">
<path style="fill:#F8464E;" d="M238.77,390.361v102.117c-36.99-5.059-66.316-35.671-68.77-73.872
	c-0.119-1.643-0.173-34.396-0.173-34.396c8.929-1.027,17.479-3.308,25.467-6.648C208.428,385.54,223.323,389.94,238.77,390.361z"/>
<path style="fill:#663333;" d="M238.77,492.478V390.361c-15.447-0.422-30.342-4.821-43.476-12.798
	c-7.988,3.34-16.538,5.621-25.467,6.648c0,0,0.054,32.753,0.173,34.396C172.454,456.807,201.78,487.419,238.77,492.478z
	 M363.241,98.052c0.195,4.216-2.356,8.085-6.324,9.556c-1.103,0.422-2.259,0.616-3.394,0.616c-2.919,0-5.751-1.319-7.642-3.708
	c-1.74-2.205-3.61-4.313-5.588-6.324c-8.929,16.625-24.948,28.818-43.605,32.753c-1.34,1.816-2.756,3.567-4.237,5.264
	c23.262,16.517,37.466,43.616,37.466,72.358v89.837c0,23.197-8.907,45.14-25.078,61.765c-12.236,12.593-27.64,21.111-44.448,24.786
	V500.65c0,5.978-4.843,10.809-10.809,10.809c-53.312,0-97.739-41.627-101.155-94.777c-0.141-2.075-0.216-51.431-0.216-51.431
	c0-0.065,0.011-0.141,0.011-0.205V82.541c0-0.097-0.011-0.195-0.011-0.292C148.208,36.893,185.101,0,230.457,0h35.714
	c10.896,0,20.916,3.772,28.861,10.064c17.922,5.534,34.179,16.376,46.2,30.915C354.669,57.247,362.279,76.985,363.241,98.052z
	 M336.985,70.737c-5.502-12.063-14.052-22.592-24.71-30.472c0.27,2.043,0.432,19.652,0.432,19.652
	C321.278,62.37,329.407,65.97,336.985,70.737z M309.647,104.387c6.464-4.648,11.696-10.982,14.971-18.376
	c-3.816-2.238-7.794-4.118-11.912-5.643v1.881C312.707,89.924,311.626,97.339,309.647,104.387z M308.296,298.405v-89.837
	c0-23.489-12.539-45.529-32.742-57.593c-6.821,4.486-14.344,7.988-22.376,10.301v126.027c0,29.856-13.977,56.512-35.714,73.774
	c7.545,2.865,15.576,4.345,23.792,4.345c0.638,0,2.032-0.032,2.086-0.032c17.468-0.53,33.801-7.74,45.994-20.289
	C301.562,332.531,308.296,315.949,308.296,298.405z M291.088,55.344v-8.821c0-13.728-11.177-24.905-24.916-24.905h-35.714
	c-33.401,0-60.576,27.143-60.63,60.533c0,0.032,0.011,0.065,0.011,0.097v0.292c0.151,33.293,27.283,60.327,60.619,60.327
	c8.096,0,15.836-1.6,22.905-4.508l-40.287-40.287c-8.064-8.064-12.507-18.776-12.507-30.18c0-23.543,19.154-42.697,42.686-42.697
	c5.707,0,11.231,1.113,16.344,3.232c5.124,2.119,9.815,5.243,13.847,9.275L291.088,55.344z M291.066,82.844l-31.38-31.38
	c-4.389-4.389-10.226-6.81-16.43-6.81c-12.809,0-23.229,10.431-23.229,23.24c0,6.205,2.421,12.042,6.81,16.42l43.519,43.53
	C282.905,116.839,290.893,100.766,291.066,82.844z M231.56,287.304v-0.216c-15.23,18.376-37.217,30.699-61.722,33.52v38.438
	C204.72,353.804,231.56,323.635,231.56,287.304z M231.56,177.923v-13.436c-23.975,0-46.675-10.312-61.722-26.721v103.23
	C201.813,236.251,227.42,210.752,231.56,177.923z M229.614,243.818c1.092-4.626,1.719-9.35,1.881-14.106
	c-15.263,18.095-37.13,30.288-61.657,33.077v36.028c28.894-4.345,52.815-25.889,59.722-54.793
	C229.582,243.958,229.593,243.883,229.614,243.818z"/>
<g>
	<path style="fill:#FFCC66;" d="M312.274,40.265c10.658,7.88,19.208,18.408,24.71,30.472c-7.577-4.767-15.706-8.367-24.278-10.82
		C312.707,59.917,312.544,42.308,312.274,40.265z"/>
	<path style="fill:#FFCC66;" d="M324.619,86.011c-3.275,7.394-8.507,13.728-14.971,18.376c1.978-7.048,3.059-14.463,3.059-22.138
		v-1.881C316.825,81.892,320.803,83.773,324.619,86.011z"/>
</g>
<g>
	<path style="fill:#F8464E;" d="M308.296,208.568v89.837c0,17.544-6.734,34.125-18.96,46.697
		c-12.193,12.55-28.526,19.76-45.994,20.289c-0.054,0-1.448,0.032-2.086,0.032c-8.215,0-16.247-1.481-23.792-4.345
		c21.738-17.263,35.714-43.919,35.714-73.774V161.277c8.031-2.313,15.555-5.815,22.376-10.301
		C295.757,163.039,308.296,185.079,308.296,208.568z"/>
	<path style="fill:#F8464E;" d="M291.088,46.524v8.821l-17.641-17.641c-4.032-4.032-8.723-7.156-13.847-9.275
		c-5.113-2.119-10.637-3.232-16.344-3.232c-23.532,0-42.686,19.154-42.686,42.697c0,11.404,4.443,22.116,12.507,30.18l40.287,40.287
		c-7.069,2.908-14.809,4.508-22.905,4.508c-33.336,0-60.468-27.034-60.619-60.327v-0.292c0-0.032-0.011-0.065-0.011-0.097
		c0.054-33.39,27.229-60.533,60.63-60.533h35.714C279.911,21.619,291.088,32.796,291.088,46.524z"/>
</g>
<path style="fill:#FFFFFF;" d="M259.686,51.464l31.38,31.38c-0.173,17.922-8.161,33.996-20.711,45l-43.519-43.53
	c-4.389-4.378-6.81-10.215-6.81-16.42c0-12.809,10.42-23.24,23.229-23.24C249.461,44.654,255.298,47.075,259.686,51.464z
	 M254.055,67.894c0-5.967-4.832-10.799-10.799-10.799c-5.956,0-10.799,4.832-10.799,10.799c0,5.956,4.843,10.799,10.799,10.799
	C249.223,78.693,254.055,73.85,254.055,67.894z"/>
<path style="fill:#663333;" d="M243.256,57.095c5.967,0,10.799,4.832,10.799,10.799c0,5.956-4.832,10.799-10.799,10.799
	c-5.956,0-10.799-4.843-10.799-10.799C232.457,61.927,237.3,57.095,243.256,57.095z"/>
<path style="fill:#FFCC66;" d="M231.56,287.088v0.216c0,36.331-26.84,66.5-61.722,71.742v-38.438
	C194.343,317.787,216.33,305.464,231.56,287.088z"/>
<path style="fill:#F8464E;" d="M231.56,164.487v13.436c-4.14,32.828-29.748,58.328-61.722,63.073v-103.23
	C184.885,154.175,207.585,164.487,231.56,164.487z"/>
<path style="fill:#4EC8D8;" d="M231.495,229.711c-0.162,4.756-0.789,9.48-1.881,14.106c-0.022,0.065-0.032,0.141-0.054,0.205
	c-6.907,28.904-30.829,50.448-59.722,54.793v-36.028C194.365,259.999,216.232,247.806,231.495,229.711z"/>
<g>
</g>
<g>
</g>
<g>
</g>
<g>
</g>
<g>
</g>
<g>
</g>
<g>
</g>
<g>
</g>
<g>
</g>
<g>
</g>
<g>
</g>
<g>
</g>
<g>
</g>
<g>
</g>
<g>
</g>
</svg>
