<?xml version="1.0" encoding="iso-8859-1"?>
<!-- Generator: Adobe Illustrator 19.0.0, SVG Export Plug-In . SVG Version: 6.00 Build 0)  -->
<svg version="1.1" id="Layer_1" xmlns="http://www.w3.org/2000/svg" xmlns:xlink="http://www.w3.org/1999/xlink" x="0px" y="0px"
	 viewBox="0 0 511.47 511.47" style="enable-background:new 0 0 511.47 511.47;" xml:space="preserve">
<path style="fill:#663333;" d="M511.47,96.719V142.8c0,22.458-18.271,40.729-40.729,40.729c-7.08,0-13.725-1.823-19.533-5.013
	L450,442.465c0,30.533-24.927,55.45-55.566,55.45h-68.74c-10.492,0-20.359-4.08-27.778-11.499
	c-5.32-5.31-8.913-11.891-10.524-19.056c-7.154-1.611-13.725-5.204-19.045-10.513c-7.429-7.429-11.51-17.286-11.51-27.778
	c0-10.492,4.144-20.02,10.863-27.078c-7.09-2.459-14.17-5.246-21.207-8.341v61.576c0,23.539-19.162,42.7-42.7,42.7
	c-19.013,0-35.165-12.495-40.676-29.707c-6.433-2.067-12.358-5.649-17.18-10.46c-8.065-8.076-12.506-18.791-12.506-30.194V306.055
	c-16.247-21.695-27.11-44.396-31.625-66.122c-21.663-14.604-35.239-38.938-36.204-65.084c-0.032-0.042-0.053-0.095-0.085-0.138
	c-2.872,0.456-5.829,0.689-8.85,0.689C25.425,175.401,0,149.986,0,118.732c0-31.244,25.425-56.669,56.669-56.669
	c1.441,0,2.819,0.064,4.186,0.159c18.377-30.205,50.924-48.678,86.693-48.678c35.748,0,68.306,18.473,86.683,48.688
	c1.378-0.106,2.766-0.17,4.208-0.17c31.244,0,56.669,25.425,56.669,56.669c0,8.85-2.056,17.466-5.924,25.245
	c16.576,6.2,32.897,14.096,48.678,23.56c11.224,6.73,21.896,14.085,31.901,21.991V96.719c0-39.065,31.784-70.849,70.86-70.849
	C479.686,25.87,511.47,57.654,511.47,96.719z M490.274,142.8V96.719c0-27.375-22.277-49.653-49.653-49.653
	c-27.386,0-49.663,22.277-49.663,49.653v111.302c16.025,15.484,29.177,31.985,39.054,48.731V96.719
	c0-5.85,4.748-10.598,10.598-10.598c5.861,0,10.598,4.748,10.598,10.598v46.092l0.011-0.011c0,10.768,8.754,19.533,19.522,19.533
	C481.509,162.333,490.274,153.568,490.274,142.8z M428.804,442.359l1.145-119.315c-1.314-32.399-22.309-70.489-56.817-102.729
	c-13.735-12.824-29.262-24.461-46.166-34.603c-16.671-9.994-33.946-18.091-51.444-24.132c-10.238,8.85-23.401,13.82-37.083,13.82
	c-3.031,0-5.988-0.233-8.871-0.689c-0.032,0.042-0.053,0.085-0.085,0.127c-1.558,43.845-37.719,79.042-81.935,79.042
	c-6.963,0-13.852-0.901-20.518-2.618c5.352,14.795,13.937,29.982,25.383,44.756c2.819,3.646,5.797,7.249,8.934,10.8
	c1.06-4.737,5.278-8.277,10.344-8.277c5.85,0,10.598,4.737,10.598,10.598v146.086c0,11.849,9.644,21.504,21.504,21.504
	c11.849,0,21.504-9.655,21.504-21.504V328.608c0-5.861,4.737-10.598,10.598-10.598c5.85,0,10.598,4.737,10.598,10.598v41.725
	c18.483,8.892,37.401,15.463,55.906,19.469h10.386c-2.088-6.73-3.211-13.873-3.211-21.281c0-5.85,4.737-10.598,10.598-10.598
	c5.85,0,10.598,4.748,10.598,10.598c0,28.032,22.807,50.84,50.84,50.84c5.85,0,10.598,4.737,10.598,10.598
	c0,5.85-4.748,10.598-10.598,10.598c-0.435,0-55.916,0.021-55.916,0.021c-9.825,0-17.763,7.684-18.07,17.487
	c-0.011,0.201-0.011,0.392-0.011,0.583c0,4.833,1.876,9.369,5.289,12.771c3.423,3.423,7.959,5.299,12.792,5.299h68.74
	C413.384,476.719,428.804,461.309,428.804,442.359z M325.694,419.382h4.96c-1.463-1.463-2.862-2.999-4.186-4.578h-0.17
	c-0.318,0-17.625-2.056-26.093-3.805h-4.102c-9.962,0-18.07,8.108-18.07,18.07c0,4.833,1.876,9.369,5.288,12.781
	c1.558,1.558,3.37,2.787,5.32,3.667C294.005,430.203,308.514,419.382,325.694,419.382z M264.871,142.419
	c5.829-6.507,9.04-14.922,9.04-23.687c0-17.635-12.94-32.303-29.823-35.017c3.254,10.09,4.949,20.698,4.949,31.328
	c0,9.75-1.388,19.395-4.144,28.668c-1.039,3.54-2.289,6.995-3.709,10.376C250.256,153.388,258.766,149.223,264.871,142.419z
	 M224.576,137.703c2.173-7.323,3.264-14.943,3.264-22.659c0-5.999-0.646-11.87-1.918-17.582
	c-19.321,22.797-47.798,36.331-78.363,36.331c-30.608,0-59.106-13.523-78.406-36.299c-1.272,5.702-1.918,11.563-1.918,17.551
	c0,14.891,4.144,29.442,11.976,42.075c1.622,2.628,3.402,5.172,5.289,7.557c1.473,1.876,2.279,4.186,2.279,6.571
	c0,0.286-0.011,0.572-0.032,0.858c0.085,21.366,11.563,41.344,29.993,52.207c9.295,5.479,19.946,8.373,30.809,8.373
	c33.416,0,60.622-27.11,60.791-60.495c-0.021-0.318-0.042-0.625-0.042-0.943c0-2.385,0.805-4.695,2.279-6.571
	c6.401-8.097,11.107-17.169,13.99-26.962L224.576,137.703z M216.712,74.241c-14.424-24.482-40.496-39.5-69.164-39.5
	c-28.689,0-54.761,15.028-69.196,39.521c14.88,23.772,40.909,38.334,69.206,38.334C175.803,112.595,201.822,98.034,216.712,74.241z
	 M161.093,442.91V337.055c-2.204-2.098-4.356-4.229-6.465-6.38v96.889c0,5.744,2.236,11.139,6.306,15.198
	C160.987,442.815,161.04,442.857,161.093,442.91z M53.892,154.088c-5.161-12.305-7.853-25.563-7.853-39.044
	c0-10.63,1.696-21.239,4.96-31.328c-16.872,2.724-29.802,17.392-29.802,35.017C21.196,137.353,35.631,152.667,53.892,154.088z"/>
<g>
	<path style="fill:#CA5F38;" d="M490.274,96.719V142.8c0,10.768-8.765,19.533-19.533,19.533s-19.522-8.765-19.522-19.533
		l-0.011,0.011V96.719c0-5.85-4.737-10.598-10.598-10.598c-5.85,0-10.598,4.748-10.598,10.598v160.033
		c-9.878-16.745-23.03-33.247-39.054-48.731V96.719c0-27.375,22.277-49.653,49.663-49.653
		C467.996,47.067,490.274,69.344,490.274,96.719z"/>
	<path style="fill:#CA5F38;" d="M429.949,323.044l-1.145,119.315c0,18.95-15.42,34.359-34.37,34.359h-68.74
		c-4.833,0-9.369-1.876-12.792-5.299c-3.413-3.402-5.289-7.938-5.289-12.771c0-0.191,0-0.382,0.011-0.583
		c0.307-9.803,8.245-17.487,18.07-17.487c0,0,55.482-0.021,55.916-0.021c5.85,0,10.598-4.748,10.598-10.598
		c0-5.861-4.748-10.598-10.598-10.598c-28.032,0-50.84-22.807-50.84-50.84c0-5.85-4.748-10.598-10.598-10.598
		c-5.861,0-10.598,4.748-10.598,10.598c0,7.408,1.123,14.551,3.211,21.281h-10.386c-18.504-4.006-37.422-10.577-55.906-19.469
		v-41.725c0-5.861-4.748-10.598-10.598-10.598c-5.861,0-10.598,4.737-10.598,10.598v126.617c0,11.849-9.655,21.504-21.504,21.504
		c-11.859,0-21.504-9.655-21.504-21.504V309.139c0-5.861-4.748-10.598-10.598-10.598c-5.066,0-9.284,3.54-10.344,8.277
		c-3.137-3.55-6.115-7.154-8.934-10.8c-11.446-14.774-20.031-29.961-25.383-44.756c6.666,1.717,13.555,2.618,20.518,2.618
		c44.216,0,80.377-35.197,81.935-79.042c0.032-0.042,0.053-0.085,0.085-0.127c2.883,0.456,5.84,0.689,8.871,0.689
		c13.682,0,26.845-4.971,37.083-13.82c17.498,6.041,34.773,14.138,51.444,24.132c16.904,10.143,32.431,21.779,46.166,34.603
		C407.639,252.556,428.634,290.646,429.949,323.044z M385.351,301.254c5.172-2.756,7.122-9.178,4.356-14.339
		c-8.447-15.823-20.592-31.191-36.108-45.678c-12.262-11.457-26.178-21.885-41.354-30.989c-5.024-3.01-11.531-1.378-14.541,3.635
		c-3.01,5.024-1.388,11.531,3.635,14.541c13.905,8.341,26.623,17.858,37.793,28.297c13.608,12.718,24.641,26.612,31.879,40.178
		c1.908,3.572,5.575,5.606,9.358,5.606C382.055,302.505,383.762,302.102,385.351,301.254z"/>
</g>
<path style="fill:#663333;" d="M389.707,286.915c2.766,5.161,0.816,11.584-4.356,14.339c-1.59,0.848-3.296,1.251-4.981,1.251
	c-3.784,0-7.451-2.035-9.358-5.606c-7.239-13.566-18.271-27.46-31.879-40.178c-11.171-10.439-23.888-19.956-37.793-28.297
	c-5.024-3.01-6.645-9.517-3.635-14.541c3.01-5.013,9.517-6.645,14.541-3.635c15.177,9.104,29.092,19.533,41.354,30.989
	C369.115,255.724,381.26,271.092,389.707,286.915z"/>
<g>
	<path style="fill:#CA5F38;" d="M330.654,419.382h-4.96c-17.18,0-31.689,10.821-37.051,26.135c-1.95-0.88-3.762-2.109-5.32-3.667
		c-3.413-3.413-5.288-7.949-5.288-12.781c0-9.962,8.108-18.07,18.07-18.07h4.102c8.468,1.749,25.775,3.805,26.093,3.805h0.17
		C327.792,416.383,329.191,417.92,330.654,419.382z"/>
	<path style="fill:#CA5F38;" d="M273.911,118.732c0,8.765-3.211,17.18-9.04,23.687c-6.105,6.804-14.615,10.969-23.687,11.669
		c1.42-3.381,2.671-6.836,3.709-10.376c2.756-9.273,4.144-18.918,4.144-28.668c0-10.63-1.696-21.239-4.949-31.328
		C260.971,86.428,273.911,101.096,273.911,118.732z"/>
</g>
<path style="fill:#F9DCB2;" d="M227.841,115.044c0,7.716-1.092,15.336-3.264,22.659l-0.011,0.011
	c-2.883,9.793-7.588,18.865-13.99,26.962c-1.473,1.876-2.279,4.186-2.279,6.571c0,0.318,0.021,0.625,0.042,0.943
	c-0.17,33.384-27.375,60.495-60.791,60.495c-10.863,0-21.514-2.893-30.809-8.373c-18.43-10.863-29.908-30.841-29.993-52.207
	c0.021-0.286,0.032-0.572,0.032-0.858c0-2.385-0.805-4.695-2.279-6.571c-1.886-2.385-3.667-4.928-5.289-7.557
	c-7.832-12.633-11.976-27.184-11.976-42.075c0-5.988,0.646-11.849,1.918-17.551c19.299,22.776,47.798,36.299,78.406,36.299
	c30.565,0,59.043-13.534,78.363-36.331C227.194,103.174,227.841,109.045,227.841,115.044z M196.968,150.654
	c0-4.981-4.027-9.008-8.998-9.008c-4.981,0-9.008,4.027-9.008,9.008c0,4.971,4.027,8.998,9.008,8.998
	C192.941,159.652,196.968,155.624,196.968,150.654z M169.423,196.82c3.731-3.731,3.731-9.772,0-13.492
	c-3.72-3.731-9.761-3.731-13.492,0l-3.296,3.307c-3.731,3.72-3.731,9.761,0,13.481c1.865,1.865,4.303,2.798,6.74,2.798
	c2.448,0,4.886-0.933,6.751-2.798L169.423,196.82z M142.472,200.116c3.731-3.72,3.731-9.761,0-13.492l-3.296-3.296
	c-3.731-3.731-9.761-3.731-13.492,0c-3.72,3.72-3.72,9.761,0,13.492l3.307,3.296c1.855,1.865,4.303,2.798,6.74,2.798
	S140.617,201.981,142.472,200.116z M116.146,150.654c0-4.981-4.027-9.008-8.998-9.008c-4.981,0-9.008,4.027-9.008,9.008
	c0,4.971,4.027,8.998,9.008,8.998C112.119,159.652,116.146,155.624,116.146,150.654z"/>
<path style="fill:#663333;" d="M187.97,141.645c4.971,0,8.998,4.027,8.998,9.008c0,4.971-4.027,8.998-8.998,8.998
	c-4.981,0-9.008-4.027-9.008-8.998C178.962,145.673,182.989,141.645,187.97,141.645z"/>
<path style="fill:#CA5F38;" d="M147.548,34.741c28.668,0,54.74,15.018,69.164,39.5c-14.891,23.793-40.909,38.355-69.153,38.355
	c-28.297,0-54.326-14.562-69.206-38.334C92.787,49.769,118.859,34.741,147.548,34.741z"/>
<path style="fill:#663333;" d="M169.423,183.328c3.731,3.72,3.731,9.761,0,13.492l-3.296,3.296
	c-1.865,1.865-4.303,2.798-6.751,2.798c-2.438,0-4.875-0.933-6.74-2.798c-3.731-3.72-3.731-9.761,0-13.481l3.296-3.307
	C159.662,179.597,165.703,179.597,169.423,183.328z"/>
<path style="fill:#CA5F38;" d="M161.093,337.055V442.91c-0.053-0.053-0.106-0.095-0.159-0.148c-4.07-4.059-6.306-9.454-6.306-15.198
	v-96.889C156.737,332.826,158.889,334.957,161.093,337.055z"/>
<g>
	<path style="fill:#663333;" d="M142.472,186.624c3.731,3.731,3.731,9.772,0,13.492c-1.855,1.865-4.303,2.798-6.74,2.798
		s-4.886-0.933-6.74-2.798l-3.307-3.296c-3.72-3.731-3.72-9.772,0-13.492c3.731-3.731,9.761-3.731,13.492,0L142.472,186.624z"/>
	<path style="fill:#663333;" d="M107.148,141.645c4.971,0,8.998,4.027,8.998,9.008c0,4.971-4.027,8.998-8.998,8.998
		c-4.981,0-9.008-4.027-9.008-8.998C98.14,145.673,102.167,141.645,107.148,141.645z"/>
</g>
<path style="fill:#CA5F38;" d="M46.039,115.044c0,13.481,2.692,26.739,7.853,39.044c-18.261-1.42-32.696-16.735-32.696-35.356
	c0-17.625,12.93-32.293,29.802-35.017C47.734,93.805,46.039,104.414,46.039,115.044z"/>
<g>
</g>
<g>
</g>
<g>
</g>
<g>
</g>
<g>
</g>
<g>
</g>
<g>
</g>
<g>
</g>
<g>
</g>
<g>
</g>
<g>
</g>
<g>
</g>
<g>
</g>
<g>
</g>
<g>
</g>
</svg>
