<?xml version="1.0" encoding="iso-8859-1"?>
<!-- Generator: Adobe Illustrator 19.0.0, SVG Export Plug-In . SVG Version: 6.00 Build 0)  -->
<svg version="1.1" id="Layer_1" xmlns="http://www.w3.org/2000/svg" xmlns:xlink="http://www.w3.org/1999/xlink" x="0px" y="0px"
	 viewBox="0 0 511.411 511.411" style="enable-background:new 0 0 511.411 511.411;" xml:space="preserve">
<path style="fill:#663333;" d="M497.457,126.181v34.998c0,56.843-45.409,103.276-101.851,104.972
	c7.902,15.097,12.129,31.96,12.129,49.306c0,58.739-47.787,106.526-106.526,106.526H269.26v65.875h30.194
	c6.5,0,11.776,5.276,11.776,11.776c0,6.512-5.276,11.776-11.776,11.776h-41.97c-2.709,0-5.205-0.919-7.195-2.461
	c-1.99,1.543-4.487,2.461-7.195,2.461h-41.97c-6.5,0-11.776-5.264-11.776-11.776v-77.651h-14.979
	c-88.45,0-160.414-71.964-160.414-160.402v-40.875c0-6.5,5.276-11.776,11.776-11.776h177.995l-38.779-38.779
	c-18.83-18.83-29.193-43.854-29.193-70.48s10.363-51.662,29.193-70.48C183.766,10.363,208.79,0,235.415,0
	s51.662,10.363,70.48,29.193c15.368,15.368,25.118,35.01,28.157,56.219h122.636C479.168,85.412,497.457,103.7,497.457,126.181z
	 M473.904,161.179v-6.241h-124.65c-6.5,0-11.776-5.276-11.776-11.776s5.276-11.776,11.776-11.776h124.65v-5.205
	c0-4.604-1.79-8.926-5.04-12.176c-3.25-3.25-7.572-5.04-12.176-5.04c0,0-202.749,0.012-203.043,0.024
	c-6.807,0.353-9.48,5.441-10.316,7.619c-0.695,1.802-2.555,8.137,2.779,13.484l88.709,88.697c0.047,0.047,0.094,0.094,0.141,0.141
	c15.368,15.297,35.764,23.717,57.455,23.717h0.012C437.352,242.646,473.904,206.105,473.904,161.179z M384.183,315.457
	c0-19.36-6.748-38.001-19.042-52.839c-17.605-4.71-33.75-13.943-46.987-27.179c-0.047-0.047-0.106-0.106-0.153-0.153l-88.544-88.544
	c-10.222-10.233-13.331-25.024-8.114-38.602c5.111-13.272,17.028-21.962,31.101-22.669c0.683-0.035,57.75-0.059,57.75-0.059
	c-2.826-14.897-10.045-28.651-20.95-39.568c-14.379-14.379-33.491-22.292-53.828-22.292c-20.325,0-39.438,7.914-53.817,22.292
	c-14.379,14.379-22.292,33.491-22.292,53.828c0,20.326,7.914,39.45,22.292,53.828l58.88,58.88c3.368,3.368,4.381,8.432,2.555,12.836
	c-1.825,4.392-6.112,7.266-10.881,7.266H37.507v29.099c0,75.461,61.4,136.85,136.862,136.85h126.84
	C346.958,398.432,384.183,361.207,384.183,315.457z M245.708,488.153v-66.17H212.9v65.875
	C212.9,487.859,244.872,487.965,245.708,488.153z"/>
<path style="fill:#FFCC66;" d="M473.904,154.938v6.241c0,44.926-36.553,81.467-81.479,81.467h-0.012
	c-21.692,0-42.088-8.42-57.455-23.717c-0.047-0.047-0.094-0.094-0.141-0.141l-88.709-88.697c-5.335-5.346-3.474-11.682-2.779-13.484
	c0.836-2.179,3.509-7.266,10.316-7.619c0.294-0.012,203.043-0.024,203.043-0.024c4.604,0,8.926,1.79,12.176,5.04
	c3.25,3.25,5.04,7.572,5.04,12.176v5.205h-124.65c-6.5,0-11.776,5.276-11.776,11.776c0,6.5,5.276,11.776,11.776,11.776
	L473.904,154.938L473.904,154.938z"/>
<path style="fill:#FFFFFF;" d="M365.141,262.618c12.294,14.838,19.042,33.479,19.042,52.839c0,45.75-37.224,82.974-82.974,82.974
	h-126.84c-75.461,0-136.861-61.389-136.861-136.85v-29.099h194.647c4.769,0,9.056-2.873,10.881-7.266
	c1.825-4.404,0.813-9.468-2.555-12.836l-58.88-58.88c-14.379-14.379-22.292-33.503-22.292-53.828
	c0-20.337,7.914-39.45,22.292-53.828c14.379-14.379,33.491-22.292,53.817-22.292c20.337,0,39.45,7.914,53.828,22.292
	c10.905,10.916,18.123,24.671,20.95,39.568c0,0-57.067,0.024-57.75,0.059c-14.072,0.707-25.99,9.397-31.101,22.669
	c-5.217,13.578-2.108,28.369,8.114,38.602l88.544,88.544c0.047,0.047,0.106,0.106,0.153,0.153
	C331.39,248.675,347.535,257.908,365.141,262.618z M298.523,314.468c0-6.512-5.276-11.776-11.776-11.776
	c-6.512,0-11.776,5.276-11.776,11.776c0,10.763-4.192,20.891-11.811,28.51c-7.607,7.607-17.735,11.8-28.51,11.8h-47.21
	c-46.963,0-85.859-35.222-91.653-80.631l115.064,0.012c6.5,0,11.776-5.276,11.776-11.776c0-6.512-5.276-11.776-11.776-11.776
	l-127.594-0.012c-3.121,0-6.112,1.248-8.326,3.45c-2.202,2.214-3.45,5.205-3.45,8.326c0,63.944,52.015,115.959,115.959,115.959
	h47.21c0,0,0,0,0.012,0c17.052,0,33.091-6.642,45.161-18.7C291.882,347.559,298.523,331.52,298.523,314.468z M259.026,59.658
	c0-7.348-5.97-13.307-13.319-13.307c-7.348,0-13.319,5.959-13.319,13.307c0,7.36,5.97,13.319,13.319,13.319
	S259.026,67.018,259.026,59.658z"/>
<g>
	<path style="fill:#663333;" d="M286.747,302.692c6.5,0,11.776,5.264,11.776,11.776c0,17.052-6.642,33.091-18.7,45.161
		c-12.07,12.059-28.109,18.7-45.161,18.7c-0.012,0-0.012,0-0.012,0h-47.21c-63.944,0-115.959-52.015-115.959-115.959
		c0-3.121,1.248-6.112,3.45-8.326c2.214-2.202,5.205-3.45,8.326-3.45l127.594,0.012c6.5,0,11.776,5.264,11.776,11.776
		c0,6.5-5.276,11.776-11.776,11.776l-115.064-0.012c5.794,45.409,44.69,80.631,91.653,80.631h47.21
		c10.775,0,20.903-4.192,28.51-11.8c7.619-7.619,11.811-17.747,11.811-28.51C274.971,307.968,280.235,302.692,286.747,302.692z"/>
	<path style="fill:#663333;" d="M245.708,46.351c7.348,0,13.319,5.959,13.319,13.307c0,7.36-5.97,13.319-13.319,13.319
		c-7.348,0-13.319-5.959-13.319-13.319C232.389,52.309,238.359,46.351,245.708,46.351z"/>
</g>
<g>
</g>
<g>
</g>
<g>
</g>
<g>
</g>
<g>
</g>
<g>
</g>
<g>
</g>
<g>
</g>
<g>
</g>
<g>
</g>
<g>
</g>
<g>
</g>
<g>
</g>
<g>
</g>
<g>
</g>
</svg>
