<?xml version="1.0" encoding="iso-8859-1"?>
<!-- Generator: Adobe Illustrator 19.0.0, SVG Export Plug-In . SVG Version: 6.00 Build 0)  -->
<svg version="1.1" id="Layer_1" xmlns="http://www.w3.org/2000/svg" xmlns:xlink="http://www.w3.org/1999/xlink" x="0px" y="0px"
	 viewBox="0 0 511.388 511.388" style="enable-background:new 0 0 511.388 511.388;" xml:space="preserve">
<path style="fill:#663333;" d="M481.405,89.626c6.767,0,12.236,5.482,12.236,12.236c0,6.767-5.47,12.236-12.236,12.236
	c-10.988,0-19.933,8.945-19.933,19.945c0,38.067-27.923,69.723-64.351,75.596v52.151c18.208,2.937,34.298,12.322,45.837,25.733
	c11.527,13.399,18.514,30.823,18.514,49.851c0,11,8.945,19.945,19.933,19.945c6.767,0,12.236,5.47,12.236,12.236
	c0,6.754-5.47,12.236-12.236,12.236c-12.236,0-23.347-4.98-31.386-13.019C441.98,360.734,437,349.624,437,337.375
	c0-24.522-17.033-45.14-39.878-50.646v79.487c18.208,2.937,34.298,12.322,45.837,25.733c11.527,13.399,18.514,30.823,18.514,49.851
	c0,11,8.945,19.945,19.933,19.945c6.767,0,12.236,5.482,12.236,12.236c0,6.754-5.47,12.236-12.236,12.236
	c-12.236,0-23.347-4.98-31.386-13.019C441.98,465.159,437,454.049,437,441.8c0-24.522-17.045-45.152-39.903-50.658
	c-1.224,66.529-55.7,120.246-122.498,120.246h-37.81c-66.798,0-121.274-53.73-122.498-120.246
	c-11.429,2.753-21.401,9.287-28.523,18.195c-7.122,8.908-11.38,20.202-11.38,32.463c0,24.497-19.921,44.418-44.406,44.418
	c-6.767,0-12.236-5.482-12.236-12.236c0-6.754,5.47-12.236,12.236-12.236c5.494,0,10.474-2.239,14.084-5.849
	c3.61-3.61,5.849-8.602,5.849-14.096c0-38.055,27.923-69.71,64.351-75.584v-87.991c-11.429,2.765-21.389,9.3-28.511,18.208
	c-7.109,8.92-11.368,20.202-11.368,32.451c0,24.497-19.921,44.418-44.406,44.418c-6.767,0-12.236-5.482-12.236-12.236
	c0-6.754,5.47-12.236,12.236-12.236c5.494,0,10.474-2.239,14.084-5.849s5.849-8.602,5.849-14.096
	c0-38.055,27.923-69.71,64.351-75.584V209.64c-36.428-5.873-64.351-37.529-64.351-75.596c0-11-8.945-19.945-19.933-19.945
	c-6.767,0-12.236-5.47-12.236-12.236c0-6.754,5.47-12.236,12.236-12.236c24.485,0,44.406,19.933,44.406,44.418
	c0,28.731,23.384,52.115,52.115,52.115h5.873c3.622-36.844,23.457-69.001,52.249-89.227V83.08c0-12.701,4.943-24.656,13.937-33.638
	l0.086-0.098c-13.692-6.4-24.558-18.208-29.526-33.271c-2.117-6.424,1.37-13.338,7.795-15.454c6.412-2.117,13.338,1.37,15.454,7.782
	c3.818,11.625,13.888,19.823,25.77,21.45l3.903-3.903c18.55-18.55,48.75-18.55,67.3,0l3.903,3.903
	c11.882-1.627,21.952-9.826,25.77-21.45c2.117-6.412,9.043-9.899,15.454-7.782c6.424,2.117,9.911,9.03,7.795,15.454
	c-4.968,15.051-15.822,26.871-29.526,33.283l0.086,0.086c8.994,8.981,13.937,20.936,13.937,33.638v13.852
	c28.792,20.227,48.627,52.384,52.261,89.227h5.861c28.731,0,52.115-23.384,52.115-52.115C437,109.559,456.921,89.626,481.405,89.626
	z M372.649,388.866V210.631h-68.891c-19.749,0-35.828,16.066-35.828,35.828v188.256c0,6.754-5.482,12.236-12.236,12.236
	c-6.754,0-12.236-5.482-12.236-12.236V246.459c0-19.762-16.079-35.828-35.828-35.828h-68.891v178.234
	c0,54.072,43.99,98.05,98.05,98.05h37.81C328.659,486.916,372.649,442.938,372.649,388.866z M303.758,186.159h50.609
	c-6.045-49.08-47.979-87.221-98.674-87.221s-92.654,38.141-98.686,87.221h50.622c19.603,0,37.039,9.41,48.064,23.934
	C266.719,195.568,284.156,186.159,303.758,186.159z M302.29,83.569V83.08c0-6.167-2.398-11.967-6.767-16.336l-23.482-23.494
	c-9.018-9.006-23.677-9.006-32.695,0l-23.482,23.494c-4.368,4.368-6.767,10.168-6.767,16.336v0.489
	c14.39-5.861,30.126-9.104,46.596-9.104S287.9,77.708,302.29,83.569z"/>
<path style="fill:#C85E4C;" d="M372.649,210.631v178.234c0,54.072-43.99,98.05-98.05,98.05h-37.81
	c-54.06,0-98.05-43.977-98.05-98.05V210.631h68.891c19.749,0,35.828,16.066,35.828,35.828v188.256
	c0,6.754,5.482,12.236,12.236,12.236c6.754,0,12.236-5.482,12.236-12.236V246.459c0-19.762,16.079-35.828,35.828-35.828
	L372.649,210.631L372.649,210.631z"/>
<path style="fill:#FE6865;" d="M354.368,186.159h-50.609c-19.603,0-37.039,9.41-48.064,23.934
	c-11.025-14.525-28.462-23.934-48.064-23.934h-50.622c6.033-49.08,47.991-87.221,98.686-87.221S348.323,137.079,354.368,186.159z"/>
<path style="fill:#F9DCB2;" d="M302.29,83.08v0.489c-14.39-5.861-30.126-9.104-46.596-9.104s-32.206,3.243-46.596,9.104V83.08
	c0-6.167,2.398-11.967,6.767-16.336l23.482-23.494c9.018-9.006,23.677-9.006,32.695,0l23.482,23.494
	C299.892,71.113,302.29,76.913,302.29,83.08z"/>
<g>
</g>
<g>
</g>
<g>
</g>
<g>
</g>
<g>
</g>
<g>
</g>
<g>
</g>
<g>
</g>
<g>
</g>
<g>
</g>
<g>
</g>
<g>
</g>
<g>
</g>
<g>
</g>
<g>
</g>
</svg>
