<?xml version="1.0" encoding="iso-8859-1"?>
<!-- Generator: Adobe Illustrator 19.0.0, SVG Export Plug-In . SVG Version: 6.00 Build 0)  -->
<svg version="1.1" id="Layer_1" xmlns="http://www.w3.org/2000/svg" xmlns:xlink="http://www.w3.org/1999/xlink" x="0px" y="0px"
	 viewBox="0 0 511.405 511.405" style="enable-background:new 0 0 511.405 511.405;" xml:space="preserve">
<path style="fill:#663333;" d="M456.933,477.686v14.278c0,10.732-8.721,19.442-19.453,19.442H85.794
	c-10.732,0-19.453-8.709-19.453-19.442v-14.278c0-15.789,12.85-28.651,28.639-28.651h0.952c-1.547-6.092-2.344-12.398-2.344-18.751
	c0-9.328,1.737-18.549,5.045-27.175L85.08,389.545c-40.811-40.811-40.811-107.226,0-148.036c2.237-2.249,5.259-3.486,8.412-3.486
	c3.165,0,6.187,1.237,8.424,3.486l42.631,42.643c0.643-4.593,1.547-9.138,2.713-13.6c1.166-4.462,2.606-8.852,4.307-13.171
	c-10.815-18.823-16.634-40.228-16.717-62.537v-27.746l-0.524-127.262c-0.036-10.423,3.974-20.215,11.303-27.604
	c7.317-7.389,17.086-11.482,27.497-11.529h0.167c10.339,0,20.084,4.022,27.425,11.303l32.089,31.816
	c9.102-2.118,18.573-3.284,28.294-3.308h0.535c9.483,0,18.799,1.035,27.83,3.046l31.78-32.03C328.575,4.141,338.343,0.036,348.754,0
	h0.167c10.339,0,20.084,3.998,27.425,11.303c7.377,7.305,11.482,17.062,11.529,27.473l0.524,128v0.048l-0.012,0.25v0.357
	l0.012,26.438c0.083,22.678-5.759,44.487-16.824,63.667c0,0,0,0,0,0.012c5.354,13.671,8.067,28.091,8.067,42.988v58.289
	c12.874,4.7,24.391,12.874,33.112,23.63c10.911,13.469,16.931,30.471,16.931,47.83c0,6.354-0.797,12.66-2.344,18.751h0.952
	C444.082,449.035,456.933,461.897,456.933,477.686z M433.137,487.609v-9.923c0-2.665-2.177-4.854-4.843-4.854h-18.299
	c-4.2,0-8.091-2.201-10.232-5.818s-2.225-8.091-0.214-11.779c4.152-7.579,6.342-16.205,6.342-24.95
	c0-18.906-10.435-36.099-26.247-45.284v102.609H433.137z M364.604,194.76v-27.949c-0.131-27.508-10.946-53.28-30.459-72.65
	c-1.107-1.083-2.225-2.154-3.367-3.177l-16.729-0.048c-8.555,0-16.872,1.88-24.439,5.414c-7.555,3.534-14.361,8.686-19.894,15.277
	c-0.393,0.464-0.821,0.892-1.297,1.309c-2.011,1.678-4.462,2.511-6.889,2.511c-3.058,0-6.08-1.297-8.198-3.819
	c-11.065-13.159-27.235-20.691-44.344-20.691h-0.202l-16.17,0.048c-20.81,18.835-33.922,45.998-33.969,76.136v27.639
	c0.226,56.623,46.379,102.55,102.966,102.55h0.428c56.397-0.214,102.324-46.058,102.55-102.55H364.604z M364.306,92.865
	l-0.226-53.97c-0.024-4.057-1.618-7.865-4.486-10.696c-5.937-5.89-15.563-5.854-21.452,0.071L314.584,52.03
	c13.326,6.116,25.593,14.611,36.313,25.248C355.822,82.157,360.297,87.38,364.306,92.865z M355.847,487.609V300.535
	c0-6.544-0.678-12.969-1.975-19.263c-0.738,0.797-1.475,1.571-2.249,2.332c-23.844,24.046-55.624,37.36-89.486,37.503h-0.535
	c-33.66,0-65.344-13.028-89.26-36.753c-1.071-1.071-2.106-2.118-3.105-3.224c-1.321,6.318-2.011,12.814-2.011,19.406
	c0,0,0.012,173.51,0.036,187.074h32.327v-112.64c0-6.568,5.33-11.898,11.898-11.898s11.898,5.33,11.898,11.898v112.64h76.362
	v-112.64c0-6.568,5.33-11.898,11.898-11.898s11.898,5.33,11.898,11.898v112.64H355.847z M298.473,71.079
	c-11.446-4.414-23.856-6.77-36.801-6.818h-0.012c-12.945,0.048-25.379,2.451-36.837,6.865c13.6,2.772,26.235,9.066,36.682,18.335
	C272.024,80.122,284.779,73.804,298.473,71.079z M207.81,52.566l-23.844-23.653c-2.867-2.856-6.651-4.414-10.685-4.414h-0.059
	c-4.045,0.024-7.841,1.618-10.696,4.486c-2.856,2.879-4.414,6.699-4.402,10.744l0.226,54.196
	C170.962,76.231,187.987,61.906,207.81,52.566z M90.137,487.609h53.315c-0.024-14.111-0.024-102.479-0.024-102.479
	c-8.055,4.7-14.694,11.505-19.263,19.561v0.012c-0.524,0.94-1.023,1.892-1.499,2.844c-3.391,6.949-5.283,14.694-5.283,22.737
	c0,8.745,2.189,17.371,6.342,24.95c2.011,3.688,1.928,8.174-0.214,11.779c-2.142,3.617-6.032,5.818-10.232,5.818H94.979
	c-2.665,0-4.843,2.189-4.843,4.854V487.609z M143.429,358.907v-42.238l-49.318-49.306C70.625,299,73.231,344.034,101.917,372.721
	l9.114,9.126C119.633,371.459,130.888,363.523,143.429,358.907z"/>
<path style="fill:#B2ABAC;" d="M433.137,477.686v9.923h-53.494V384.999c15.813,9.185,26.247,26.378,26.247,45.284
	c0,8.745-2.189,17.371-6.342,24.95c-2.011,3.688-1.927,8.162,0.214,11.779c2.142,3.617,6.032,5.818,10.232,5.818h18.299
	C430.958,472.831,433.137,475.021,433.137,477.686z"/>
<path style="fill:#FFFFFF;" d="M364.604,166.812v27.949h-0.012c-0.226,56.492-46.153,102.336-102.55,102.55h-0.428
	c-56.587,0-102.74-45.927-102.966-102.55v-27.639c0.048-30.138,13.159-57.301,33.969-76.136l16.17-0.048h0.202
	c17.109,0,33.279,7.532,44.344,20.691c2.118,2.522,5.14,3.819,8.198,3.819c2.427,0,4.878-0.833,6.889-2.511
	c0.476-0.416,0.904-0.845,1.297-1.309c5.533-6.592,12.338-11.743,19.894-15.277c7.567-3.534,15.884-5.414,24.439-5.414l16.729,0.048
	c1.142,1.023,2.261,2.094,3.367,3.177C353.656,113.532,364.473,139.303,364.604,166.812z M324.137,131.95
	c0-7.056-5.735-12.802-12.814-12.802c-7.067,0-12.802,5.747-12.802,12.802c0,7.079,5.735,12.826,12.802,12.826
	C318.403,144.776,324.137,139.03,324.137,131.95z M304.886,209.823c2.951-5.116,1.19-11.66-3.938-14.611
	c-5.128-2.963-11.672-1.19-14.623,3.926c-1.571,2.737-4.521,4.438-7.686,4.45c-0.012,0-0.012,0-0.024,0h-0.048
	c-3.153-0.012-6.092-1.713-7.674-4.45c-0.916-1.571-2.225-2.963-3.926-3.926c-5.128-2.963-11.672-1.19-14.623,3.926
	c-1.582,2.748-4.545,4.45-7.722,4.45c-3.177,0-6.128-1.701-7.71-4.45c-2.951-5.116-9.495-6.889-14.623-3.926
	c-5.128,2.951-6.877,9.495-3.926,14.611c3.534,6.163,9.102,10.744,15.551,13.207v26.271c0,15.277,12.422,27.711,27.699,27.711
	c15.277,0,27.711-12.434,27.711-27.711V223.03C295.785,220.579,301.341,215.987,304.886,209.823z M278.759,163.468
	c0-6.568-5.318-11.898-11.898-11.898h-10.637c-6.58,0-11.898,5.33-11.898,11.898c0,6.592,5.318,11.898,11.898,11.898h10.637
	C273.44,175.366,278.759,170.06,278.759,163.468z M224.587,132.402c0-7.079-5.735-12.814-12.814-12.814
	c-7.067,0-12.802,5.735-12.802,12.814c0,7.079,5.735,12.814,12.802,12.814C218.852,145.217,224.587,139.482,224.587,132.402z"/>
<path style="fill:#B2ABAC;" d="M364.079,38.895l0.226,53.97c-4.01-5.485-8.483-10.708-13.409-15.587
	c-10.72-10.637-22.987-19.132-36.313-25.248l23.558-23.761c5.89-5.925,15.515-5.961,21.452-0.071
	C362.462,31.03,364.056,34.838,364.079,38.895z"/>
<path style="fill:#FFFFFF;" d="M355.847,300.535v187.074h-32.303v-112.64c0-6.568-5.33-11.898-11.898-11.898
	s-11.898,5.33-11.898,11.898v112.64h-76.362v-112.64c0-6.568-5.33-11.898-11.898-11.898s-11.898,5.33-11.898,11.898v112.64h-32.327
	c-0.024-13.564-0.036-187.074-0.036-187.074c0-6.592,0.69-13.088,2.011-19.406c0.999,1.107,2.035,2.154,3.105,3.224
	c23.915,23.725,55.6,36.753,89.26,36.753h0.535c33.862-0.143,65.642-13.457,89.486-37.503c0.773-0.761,1.511-1.535,2.249-2.332
	C355.168,287.566,355.847,293.991,355.847,300.535z"/>
<g>
	<path style="fill:#663333;" d="M311.324,119.148c7.079,0,12.814,5.747,12.814,12.802c0,7.079-5.735,12.826-12.814,12.826
		c-7.067,0-12.802-5.747-12.802-12.826C298.521,124.895,304.255,119.148,311.324,119.148z"/>
	<path style="fill:#663333;" d="M300.949,195.212c5.128,2.951,6.889,9.495,3.938,14.611c-3.546,6.163-9.102,10.756-15.563,13.207
		v26.271c0,15.277-12.434,27.711-27.711,27.711s-27.699-12.434-27.699-27.711V223.03c-6.449-2.463-12.017-7.044-15.551-13.207
		c-2.951-5.116-1.202-11.66,3.926-14.611c5.128-2.963,11.672-1.19,14.623,3.926c1.582,2.748,4.533,4.45,7.71,4.45
		s6.139-1.701,7.722-4.45c2.951-5.116,9.495-6.889,14.623-3.926c1.701,0.964,3.01,2.356,3.926,3.926
		c1.582,2.737,4.521,4.438,7.674,4.45h0.048c0.012,0,0.012,0,0.024,0c3.165-0.012,6.116-1.713,7.686-4.45
		C289.277,194.023,295.821,192.25,300.949,195.212z M267.906,249.301v-26.259c-2.213-0.845-4.331-1.939-6.282-3.26
		c-1.963,1.321-4.081,2.415-6.294,3.248v26.271c0,3.474,2.82,6.294,6.282,6.294C265.088,255.595,267.906,252.776,267.906,249.301z"
		/>
</g>
<path style="fill:#B2ABAC;" d="M261.673,64.262c12.945,0.048,25.355,2.403,36.801,6.818c-13.695,2.725-26.45,9.043-36.967,18.383
	c-10.447-9.269-23.082-15.563-36.682-18.335c11.458-4.414,23.891-6.818,36.837-6.865C261.661,64.262,261.673,64.262,261.673,64.262z
	"/>
<path style="fill:#663333;" d="M266.861,151.57c6.58,0,11.898,5.33,11.898,11.898c0,6.592-5.318,11.898-11.898,11.898h-10.637
	c-6.58,0-11.898-5.307-11.898-11.898c0-6.568,5.318-11.898,11.898-11.898H266.861z"/>
<path style="fill:#FE6865;" d="M267.906,223.042v26.259c0,3.474-2.82,6.294-6.294,6.294c-3.462,0-6.282-2.82-6.282-6.294V223.03
	c2.213-0.833,4.331-1.927,6.294-3.248C263.576,221.103,265.693,222.197,267.906,223.042z"/>
<path style="fill:#663333;" d="M211.772,119.588c7.079,0,12.814,5.735,12.814,12.814c0,7.079-5.735,12.814-12.814,12.814
	c-7.067,0-12.802-5.735-12.802-12.814C198.969,125.323,204.705,119.588,211.772,119.588z"/>
<g>
	<path style="fill:#B2ABAC;" d="M183.965,28.912l23.844,23.653c-19.822,9.34-36.848,23.665-49.461,41.358l-0.226-54.196
		c-0.012-4.045,1.547-7.865,4.402-10.744c2.856-2.867,6.651-4.462,10.696-4.486h0.059C177.314,24.498,181.099,26.057,183.965,28.912
		z"/>
	<path style="fill:#B2ABAC;" d="M143.452,487.609H90.137v-9.923c0-2.665,2.177-4.854,4.843-4.854h18.299
		c4.2,0,8.091-2.201,10.232-5.818c2.142-3.605,2.225-8.091,0.214-11.779c-4.152-7.579-6.342-16.205-6.342-24.95
		c0-8.043,1.892-15.789,5.283-22.737c0.476-0.952,0.976-1.904,1.499-2.844v-0.012c4.569-8.055,11.208-14.861,19.263-19.561
		C143.429,385.13,143.429,473.498,143.452,487.609z"/>
	<path style="fill:#B2ABAC;" d="M143.429,316.668v42.238c-12.541,4.616-23.796,12.553-32.399,22.94l-9.114-9.126
		C73.231,344.034,70.625,299,94.112,267.363L143.429,316.668z"/>
</g>
<g>
</g>
<g>
</g>
<g>
</g>
<g>
</g>
<g>
</g>
<g>
</g>
<g>
</g>
<g>
</g>
<g>
</g>
<g>
</g>
<g>
</g>
<g>
</g>
<g>
</g>
<g>
</g>
<g>
</g>
</svg>
