<?xml version="1.0" encoding="iso-8859-1"?>
<!-- Generator: Adobe Illustrator 19.0.0, SVG Export Plug-In . SVG Version: 6.00 Build 0)  -->
<svg version="1.1" id="Layer_1" xmlns="http://www.w3.org/2000/svg" xmlns:xlink="http://www.w3.org/1999/xlink" x="0px" y="0px"
	 viewBox="0 0 511.398 511.398" style="enable-background:new 0 0 511.398 511.398;" xml:space="preserve">
<path style="fill:#B88D5B;" d="M484.351,311.142c1.949,8.146,2.984,16.64,2.984,25.375c0,5.33-0.385,10.588-1.131,15.714
	l-46.96-0.156c-11.322-0.024-20.514-9.276-20.478-20.586s9.24-20.478,20.538-20.478c0.024,0,0.048,0,0.06,0L484.351,311.142z
	 M451.625,331.644c0-6.654-5.39-12.032-12.032-12.032c-6.654,0-12.032,5.378-12.032,12.032c0,6.642,5.378,12.032,12.032,12.032
	C446.234,343.676,451.625,338.285,451.625,331.644z"/>
<path style="fill:#663333;" d="M398.673,205.082c63.744,9.782,112.726,64.996,112.726,131.435
	c0,73.334-59.654,132.987-132.975,132.987c-16.471,0-32.257-3.008-46.816-8.518H56.417c-17.819,0-32.305-14.498-32.305-32.317
	c0-9.938,4.464-18.926,11.659-24.87c-8.771-16.026-13.355-33.918-13.355-52.471c0-29.297,11.779-57.38,32.51-77.906V253.75
	c0-0.012,0-0.024,0-0.048V149.976c0-2.238,0.144-4.428,0.409-6.593H12.032C5.39,143.383,0,138.004,0,131.351V53.926
	c0-6.642,5.39-12.032,12.032-12.032h428.632c6.642,0,12.032,5.39,12.032,12.032v77.424c0,6.654-5.39,12.032-12.032,12.032h-42.015
	C398.649,143.563,398.673,205.082,398.673,205.082z M487.335,336.517c0-8.735-1.035-17.229-2.984-25.375l-44.987-0.132
	c-0.012,0-0.036,0-0.06,0c-11.298,0-20.502,9.168-20.538,20.478s9.156,20.562,20.478,20.586l46.96,0.156
	C486.95,347.105,487.335,341.847,487.335,336.517z M480.741,373.875l-41.57-0.144c-23.257-0.072-42.123-19.046-42.063-42.316
	c0.072-23.221,18.986-42.063,42.195-42.063c0.036,0,0.084,0,0.132,0l37.202,0.108c-2.346-4.861-5.029-9.529-8.037-13.957
	c-3.008-4.428-6.341-8.627-9.95-12.561l-19.347-0.06c-20.286,0-39.428,8.94-52.519,24.521c-2.142,2.551-5.21,3.862-8.302,3.862
	c-2.454,0-4.921-0.83-6.954-2.539c-0.493-0.409-0.926-0.854-1.324-1.324c-13.127-15.581-32.257-24.521-52.531-24.521h-0.241
	l-19.239,0.06c-7.231,7.869-13.319,16.796-18,26.518l37.347-0.108c0.036,0,0.084,0,0.132,0c23.197,0,42.111,18.842,42.183,42.063
	c0.072,23.269-18.806,42.244-42.063,42.316l-41.702,0.144c15.28,41.714,55.382,71.565,102.33,71.565
	c23.462,0,45.227-7.46,63.034-20.141C459.253,412.618,473.101,394.738,480.741,373.875z M428.632,119.319V65.958H297.75v36.504
	c7.147,4.211,13.283,9.986,17.903,16.857C315.654,119.319,428.632,119.319,428.632,119.319z M431.688,241.55
	c-13.668-7.712-29.165-12.537-45.661-13.68c-2.515-0.18-5.053-0.265-7.604-0.265c-19.335,0-37.503,5.065-53.253,13.933
	c-0.012,0-0.012,0.012-0.024,0.012c9.962,0.818,19.612,3.285,28.624,7.219c9,3.922,17.362,9.337,24.725,16.062
	C393.174,251.416,411.823,243.222,431.688,241.55z M374.609,203.602c0,0,0.012-60.039,0.024-60.219h-50.052
	c0.265,2.166,0.409,4.356,0.409,6.593v64.779C340.246,208.029,357.007,204.095,374.609,203.602z M317.723,352.074
	c11.322-0.024,20.514-9.264,20.478-20.598c-0.036-11.298-9.24-20.466-20.538-20.466c-0.024,0-0.036,0-0.06,0l-45.119,0.132
	c-1.949,8.146-2.984,16.64-2.984,25.375c0,5.33,0.385,10.588,1.131,15.714L317.723,352.074z M300.927,228.519v-78.543
	c0-17.121-13.933-31.042-31.054-31.042s-31.042,13.921-31.042,31.042v103.557v0.168c0,6.654-5.39,12.032-12.032,12.032
	c-0.036,0-0.072,0-0.12,0h-73.454c-0.036,0-0.072,0-0.108,0c-6.642,0-12.032-5.378-12.032-12.032V149.976
	c0-17.121-13.933-31.042-31.054-31.042s-31.042,13.921-31.042,31.042v103.666c0,0.012,0,0.024,0,0.036c0,0,0.012,24.725,0.012,24.93
	c0,3.417-1.456,6.678-4.007,8.964c-18.12,16.219-28.515,39.452-28.515,63.756c0,18.204,5.655,35.59,16.339,50.281
	c2.454,3.369,2.996,7.785,1.408,11.647c-1.576,3.862-5.053,6.63-9.168,7.303c-3.995,0.662-6.882,4.079-6.882,8.109
	c0,4.548,3.694,8.254,8.242,8.254h234.896c-28.082-24.388-45.877-60.363-45.877-100.405
	C245.436,292.083,267.346,252.667,300.927,228.519z M276.093,95.219V65.958h-12.429v29.261c2.033-0.229,4.115-0.349,6.208-0.349
	C271.978,94.871,274.048,94.991,276.093,95.219z M242.007,102.463V65.958H137.908v36.504c7.147,4.211,13.283,9.986,17.903,16.857
	h68.292C228.724,112.449,234.848,106.674,242.007,102.463z M215.176,143.383h-50.437c0.253,2.166,0.409,4.356,0.409,6.593v91.694
	h49.619v-91.694C214.767,147.738,214.911,145.548,215.176,143.383z M116.251,95.219V65.958h-12.429v29.261
	c2.033-0.229,4.115-0.349,6.208-0.349C112.136,94.871,114.206,94.991,116.251,95.219z M82.165,102.463V65.958H24.064v53.361h40.198
	C68.882,112.449,75.006,106.674,82.165,102.463z"/>
<path style="fill:#FDCB81;" d="M439.172,373.731l41.57,0.144c-7.64,20.863-21.489,38.742-39.284,51.424
	c-17.807,12.682-39.572,20.141-63.034,20.141c-46.948,0-87.05-29.851-102.33-71.565l41.702-0.144
	c23.257-0.072,42.135-19.046,42.063-42.316c-0.072-23.221-18.986-42.063-42.183-42.063c-0.048,0-0.096,0-0.132,0l-37.347,0.108
	c4.68-9.722,10.768-18.649,18-26.518l19.239-0.06h0.241c20.274,0,39.404,8.94,52.531,24.521c0.397,0.469,0.83,0.914,1.324,1.323
	c2.033,1.709,4.5,2.539,6.954,2.539c3.092,0,6.16-1.311,8.302-3.862c13.091-15.581,32.233-24.521,52.519-24.521l19.347,0.06
	c3.61,3.934,6.942,8.133,9.95,12.561c3.008,4.428,5.691,9.096,8.037,13.957l-37.202-0.108c-0.048,0-0.096,0-0.132,0
	c-23.209,0-42.123,18.842-42.195,42.063C397.048,354.685,415.914,373.659,439.172,373.731z M408.214,411.258
	c3.333-4.969,1.997-11.695-2.972-15.028c-4.969-3.321-11.695-1.997-15.028,2.984c-2.491,3.718-6.642,5.932-11.105,5.932
	s-8.615-2.214-11.105-5.932c-3.321-4.981-10.047-6.305-15.016-2.984c-4.969,3.333-6.305,10.059-2.984,15.028
	c6.521,9.734,17.398,15.545,29.105,15.545C390.816,426.803,401.705,420.992,408.214,411.258z M394.45,359.942
	c0-5.98-4.849-10.829-10.829-10.829h-8.735c-5.98,0-10.829,4.849-10.829,10.829s4.849,10.829,10.829,10.829h8.735
	C389.601,370.771,394.45,365.922,394.45,359.942z"/>
<path style="fill:#663333;" d="M439.593,319.612c6.642,0,12.032,5.378,12.032,12.032c0,6.642-5.39,12.032-12.032,12.032
	c-6.654,0-12.032-5.39-12.032-12.032C427.561,324.99,432.939,319.612,439.593,319.612z"/>
<path style="fill:#CA5F38;" d="M428.632,65.958v53.361H315.654c-4.62-6.87-10.756-12.645-17.903-16.857V65.958H428.632z"/>
<path style="fill:#B88D5B;" d="M386.027,227.87c16.496,1.143,31.992,5.968,45.661,13.68c-19.864,1.672-38.514,9.866-53.192,23.281
	c-7.363-6.726-15.726-12.14-24.725-16.062c-9.012-3.934-18.661-6.401-28.624-7.219c0.012,0,0.012-0.012,0.024-0.012
	c15.75-8.867,33.918-13.933,53.253-13.933C380.974,227.605,383.513,227.689,386.027,227.87z"/>
<g>
	<path style="fill:#663333;" d="M405.242,396.23c4.969,3.333,6.305,10.059,2.972,15.028c-6.509,9.734-17.398,15.545-29.105,15.545
		c-11.707,0-22.584-5.811-29.105-15.545c-3.321-4.969-1.985-11.695,2.984-15.028c4.969-3.321,11.695-1.997,15.016,2.984
		c2.491,3.718,6.642,5.932,11.105,5.932s8.615-2.214,11.105-5.932C393.547,394.233,400.273,392.91,405.242,396.23z"/>
	<path style="fill:#663333;" d="M383.621,349.114c5.98,0,10.829,4.849,10.829,10.829s-4.849,10.829-10.829,10.829h-8.735
		c-5.98,0-10.829-4.849-10.829-10.829s4.849-10.829,10.829-10.829H383.621z"/>
</g>
<path style="fill:#FDCB81;" d="M374.633,143.383c-0.012,0.18-0.024,60.219-0.024,60.219c-17.602,0.493-34.363,4.428-49.619,11.153
	v-64.779c0-2.238-0.144-4.428-0.409-6.593H374.633z"/>
<path style="fill:#B88D5B;" d="M338.201,331.475c0.036,11.334-9.156,20.574-20.478,20.598l-47.092,0.156
	c-0.746-5.126-1.131-10.383-1.131-15.714c0-8.735,1.035-17.229,2.984-25.375l45.119-0.132c0.024,0,0.036,0,0.06,0
	C328.961,311.009,338.165,320.177,338.201,331.475z M329.406,331.644c0-6.654-5.378-12.032-12.032-12.032
	c-6.642,0-12.032,5.378-12.032,12.032c0,6.642,5.39,12.032,12.032,12.032C324.028,343.676,329.406,338.285,329.406,331.644z"/>
<path style="fill:#663333;" d="M317.374,319.612c6.654,0,12.032,5.378,12.032,12.032c0,6.642-5.378,12.032-12.032,12.032
	c-6.642,0-12.032-5.39-12.032-12.032C305.342,324.99,310.733,319.612,317.374,319.612z"/>
<path style="fill:#FDCB81;" d="M300.927,149.976v78.543c-33.581,24.148-55.491,63.564-55.491,107.997
	c0,40.042,17.795,76.017,45.877,100.405H56.417c-4.548,0-8.242-3.706-8.242-8.254c0-4.031,2.888-7.448,6.882-8.109
	c4.115-0.674,7.592-3.441,9.168-7.303c1.588-3.862,1.047-8.278-1.408-11.647c-10.684-14.691-16.339-32.077-16.339-50.281
	c0-24.304,10.395-47.538,28.515-63.756c2.551-2.286,4.007-5.547,4.007-8.964c0-0.205-0.012-24.93-0.012-24.93
	c0-0.012,0-0.024,0-0.036V149.976c0-17.121,13.921-31.042,31.042-31.042s31.054,13.921,31.054,31.042v103.726
	c0,6.654,5.39,12.032,12.032,12.032c0.036,0,0.072,0,0.108,0h73.454c0.048,0,0.084,0,0.12,0c6.642,0,12.032-5.378,12.032-12.032
	v-0.168V149.976c0-17.121,13.921-31.042,31.042-31.042S300.927,132.855,300.927,149.976z M214.791,406.83
	c0-6.642-5.39-12.032-12.032-12.032H123.47c-6.654,0-12.032,5.39-12.032,12.032c0,6.642,5.378,12.032,12.032,12.032h79.289
	C209.401,418.862,214.791,413.472,214.791,406.83z"/>
<g>
	<path style="fill:#CA5F38;" d="M276.093,65.958v29.261c-2.045-0.229-4.115-0.349-6.22-0.349c-2.094,0-4.175,0.12-6.208,0.349
		V65.958H276.093z"/>
	<path style="fill:#CA5F38;" d="M242.007,65.958v36.504c-7.159,4.211-13.283,9.986-17.903,16.857h-68.292
		c-4.62-6.87-10.756-12.645-17.903-16.857V65.958H242.007z"/>
</g>
<path style="fill:#FDCB81;" d="M164.739,143.383h50.437c-0.265,2.166-0.409,4.356-0.409,6.593v91.694h-49.619v-91.694
	C165.148,147.738,164.992,145.548,164.739,143.383z"/>
<path style="fill:#663333;" d="M202.759,394.799c6.642,0,12.032,5.39,12.032,12.032c0,6.642-5.39,12.032-12.032,12.032H123.47
	c-6.654,0-12.032-5.39-12.032-12.032c0-6.642,5.378-12.032,12.032-12.032H202.759z"/>
<g>
	<path style="fill:#CA5F38;" d="M116.251,65.958v29.261c-2.045-0.229-4.115-0.349-6.22-0.349c-2.094,0-4.175,0.12-6.208,0.349
		V65.958H116.251z"/>
	<path style="fill:#CA5F38;" d="M82.165,65.958v36.504c-7.159,4.211-13.283,9.986-17.903,16.857H24.064V65.958H82.165z"/>
</g>
<g>
</g>
<g>
</g>
<g>
</g>
<g>
</g>
<g>
</g>
<g>
</g>
<g>
</g>
<g>
</g>
<g>
</g>
<g>
</g>
<g>
</g>
<g>
</g>
<g>
</g>
<g>
</g>
<g>
</g>
</svg>
