<?xml version="1.0" encoding="iso-8859-1"?>
<!-- Generator: Adobe Illustrator 19.0.0, SVG Export Plug-In . SVG Version: 6.00 Build 0)  -->
<svg version="1.1" id="Layer_1" xmlns="http://www.w3.org/2000/svg" xmlns:xlink="http://www.w3.org/1999/xlink" x="0px" y="0px"
	 viewBox="0 0 511.468 511.468" style="enable-background:new 0 0 511.468 511.468;" xml:space="preserve">
<path style="fill:#663333;" d="M510.569,164.713c2.061,12.226,0.563,24.558-4.334,35.658c-5.29,11.982-14.34,21.871-26.173,28.616
	l-141.051,80.335c-22.253,12.672-47.173,20.097-72.655,21.712v94.802c0,22.795-18.546,41.331-41.331,41.331
	c-5.874,0-10.622-4.759-10.622-10.622s4.748-10.622,10.622-10.622c11.079,0,20.086-9.008,20.086-20.086v-94.802
	c-25.482-1.615-50.402-9.039-72.655-21.701L31.406,228.977c-11.833-6.734-20.883-16.624-26.173-28.605
	c-4.897-11.1-6.395-23.432-4.334-35.658c2.061-12.237,7.51-23.39,15.774-32.27c8.923-9.592,20.713-15.976,34.097-18.461
	l72.273-13.437c8.7-1.615,17.282-3.92,25.727-6.915V54.923c0-5.863,4.759-10.622,10.622-10.622c5.863,0,10.622,4.759,10.622,10.622
	v29.625c7.435-3.75,14.722-8.041,21.85-12.885c18.886-12.821,40.98-19.598,63.871-19.598s44.985,6.777,63.871,19.598
	c7.127,4.844,14.414,9.135,21.85,12.885V54.923c0-5.863,4.759-10.622,10.622-10.622c5.863,0,10.622,4.759,10.622,10.622V93.63
	c8.445,2.995,17.027,5.3,25.727,6.915l72.273,13.437c13.384,2.486,25.174,8.869,34.097,18.461
	C503.06,141.323,508.509,152.477,510.569,164.713z M486.797,191.789c3.219-7.276,4.196-15.423,2.826-23.549
	s-4.961-15.498-10.378-21.329c-5.8-6.225-13.554-10.388-22.434-12.045l-72.262-13.426c-26.916-5.014-52.781-15.848-76.872-32.206
	c-15.349-10.41-33.311-15.923-51.942-15.923s-36.593,5.513-51.942,15.933c-24.091,16.347-49.956,27.182-76.862,32.196
	l-72.273,13.426c-8.88,1.657-16.634,5.821-22.434,12.045c-5.417,5.832-9.008,13.203-10.378,21.329
	c-1.37,8.126-0.393,16.273,2.825,23.549c3.431,7.786,9.401,14.266,17.24,18.727l141.062,80.356
	c22.126,12.598,47.29,19.258,72.762,19.258s50.636-6.66,72.772-19.269l141.04-80.335
	C477.397,206.055,483.366,199.575,486.797,191.789z"/>
<path style="fill:#B2ABAC;" d="M489.623,168.24c1.37,8.126,0.393,16.273-2.826,23.549c-3.431,7.786-9.401,14.266-17.25,18.737
	l-141.04,80.335c-22.137,12.608-47.3,19.269-72.772,19.269s-50.636-6.66-72.762-19.258L41.911,210.516
	c-7.839-4.461-13.809-10.941-17.24-18.727c-3.219-7.276-4.196-15.423-2.825-23.549s4.961-15.498,10.378-21.329
	c5.8-6.225,13.554-10.388,22.434-12.045l72.273-13.426c26.906-5.014,52.771-15.848,76.862-32.196
	c15.349-10.42,33.311-15.933,51.942-15.933s36.593,5.513,51.942,15.923c24.091,16.358,49.956,27.193,76.872,32.206l72.262,13.426
	c8.88,1.657,16.634,5.821,22.434,12.045C484.662,152.742,488.252,160.114,489.623,168.24z M330.015,167.093
	c5.821-0.765,9.91-6.097,9.146-11.918c-0.775-5.81-6.108-9.91-11.929-9.135l-21.712,2.857c-5.81,0.775-9.91,6.108-9.135,11.929
	c0.701,5.343,5.269,9.231,10.516,9.231c0.457,0,0.924-0.032,1.402-0.096L330.015,167.093z M330.015,202.57
	c5.821-0.765,9.91-6.108,9.146-11.918c-0.775-5.821-6.108-9.921-11.929-9.146l-21.712,2.868c-5.81,0.765-9.91,6.108-9.135,11.918
	c0.701,5.354,5.269,9.241,10.516,9.241c0.457,0,0.924-0.032,1.402-0.096L330.015,202.57z M330.015,238.048
	c5.821-0.775,9.91-6.108,9.146-11.929c-0.775-5.81-6.108-9.91-11.929-9.135l-21.712,2.868c-5.81,0.765-9.91,6.108-9.135,11.918
	c0.701,5.343,5.269,9.231,10.516,9.231c0.457,0,0.924-0.021,1.402-0.085L330.015,238.048z M215.083,160.826
	c0.775-5.821-3.325-11.153-9.135-11.929l-21.712-2.857c-5.821-0.775-11.153,3.314-11.929,9.135
	c-0.765,5.821,3.325,11.153,9.146,11.918l21.712,2.868c0.478,0.064,0.945,0.096,1.402,0.096
	C209.815,170.056,214.382,166.168,215.083,160.826z M215.083,196.293c0.775-5.81-3.325-11.153-9.135-11.918l-21.712-2.868
	c-5.821-0.754-11.153,3.325-11.929,9.146c-0.765,5.81,3.325,11.153,9.146,11.918l21.712,2.868c0.478,0.064,0.945,0.096,1.402,0.096
	C209.815,205.534,214.382,201.646,215.083,196.293z M215.083,231.771c0.775-5.81-3.325-11.153-9.135-11.918l-21.712-2.868
	c-5.821-0.765-11.153,3.325-11.929,9.135c-0.765,5.821,3.325,11.153,9.146,11.929l21.712,2.868c0.478,0.064,0.945,0.085,1.402,0.085
	C209.815,241.001,214.382,237.114,215.083,231.771z"/>
<g>
	<path style="fill:#663333;" d="M339.16,155.175c0.765,5.821-3.325,11.153-9.146,11.918l-21.712,2.868
		c-0.478,0.064-0.945,0.096-1.402,0.096c-5.247,0-9.815-3.888-10.516-9.231c-0.775-5.821,3.325-11.153,9.135-11.929l21.712-2.857
		C333.053,145.264,338.385,149.364,339.16,155.175z"/>
	<path style="fill:#663333;" d="M339.16,190.652c0.765,5.81-3.325,11.153-9.146,11.918l-21.712,2.868
		c-0.478,0.064-0.945,0.096-1.402,0.096c-5.247,0-9.815-3.888-10.516-9.241c-0.775-5.81,3.325-11.153,9.135-11.918l21.712-2.868
		C333.053,180.731,338.385,184.832,339.16,190.652z"/>
	<path style="fill:#663333;" d="M339.16,226.12c0.765,5.821-3.325,11.153-9.146,11.929l-21.712,2.868
		c-0.478,0.064-0.945,0.085-1.402,0.085c-5.247,0-9.815-3.888-10.516-9.231c-0.775-5.81,3.325-11.153,9.135-11.918l21.712-2.868
		C333.053,216.209,338.385,220.309,339.16,226.12z"/>
	<path style="fill:#663333;" d="M205.948,148.897c5.81,0.775,9.91,6.108,9.135,11.929c-0.701,5.343-5.269,9.231-10.516,9.231
		c-0.457,0-0.924-0.032-1.402-0.096l-21.712-2.868c-5.821-0.765-9.91-6.097-9.146-11.918c0.775-5.821,6.108-9.91,11.929-9.135
		L205.948,148.897z"/>
	<path style="fill:#663333;" d="M205.948,184.375c5.81,0.765,9.91,6.108,9.135,11.918c-0.701,5.354-5.269,9.241-10.516,9.241
		c-0.457,0-0.924-0.032-1.402-0.096l-21.712-2.868c-5.821-0.765-9.91-6.108-9.146-11.918c0.775-5.821,6.108-9.9,11.929-9.146
		L205.948,184.375z"/>
	<path style="fill:#663333;" d="M205.948,219.853c5.81,0.765,9.91,6.108,9.135,11.918c-0.701,5.343-5.269,9.231-10.516,9.231
		c-0.457,0-0.924-0.021-1.402-0.085l-21.712-2.868c-5.821-0.775-9.91-6.108-9.146-11.929c0.775-5.81,6.108-9.9,11.929-9.135
		L205.948,219.853z"/>
</g>
<g>
</g>
<g>
</g>
<g>
</g>
<g>
</g>
<g>
</g>
<g>
</g>
<g>
</g>
<g>
</g>
<g>
</g>
<g>
</g>
<g>
</g>
<g>
</g>
<g>
</g>
<g>
</g>
<g>
</g>
</svg>
