<?xml version="1.0" encoding="iso-8859-1"?>
<!-- Generator: Adobe Illustrator 19.0.0, SVG Export Plug-In . SVG Version: 6.00 Build 0)  -->
<svg version="1.1" id="Layer_1" xmlns="http://www.w3.org/2000/svg" xmlns:xlink="http://www.w3.org/1999/xlink" x="0px" y="0px"
	 viewBox="0 0 511.401 511.401" style="enable-background:new 0 0 511.401 511.401;" xml:space="preserve">
<path style="fill:#663333;" d="M511.401,340.331c0,28.5-10.071,55.887-28.405,77.502c-11.352,53.875-58.905,92.638-114.337,92.638
	H165.697C74.328,510.471,0,436.143,0,344.774c0-26.8,6.526-52.821,18.525-76.029c11.987-23.219,29.446-43.613,51.313-59.144v0.012
	c1.964-1.389,4.347-2.215,6.933-2.215c6.622,0,11.975,5.353,11.975,11.975c0,31.542,25.626,57.216,57.156,57.3h200.64
	l-80.472-80.483c-21.483-21.483-33.326-50.043-33.326-80.424c0-62.425,50.558-113.271,112.864-113.738
	c7.113-0.958,49.337-5.568,74.544,15.34c0.623,0.515,31.542,29.339,32.488,30.285c11.041,11.041,17.124,25.722,17.124,41.349
	c0,5.413-0.754,10.706-2.167,15.783l26.309,39.565c8.478,9.496,8.155,24.118-0.946,33.23c-4.586,4.574-10.67,7.101-17.136,7.101
	c-0.012,0-0.012,0-0.012,0c-6.011,0-11.676-2.179-16.106-6.155l-46.822-31.111c-15.496,0.419-31.147-5.257-42.954-17.064
	l-19.232-19.22c-1.233-1.245-2.886-1.928-4.646-1.928c-3.389,0-6.191,2.527-6.526,5.868c-0.036,0.287-0.048,0.503-0.048,0.695
	c0,2.383,1.126,4,2.06,4.946l135.915,135.927c0.359,0.359,0.683,0.742,0.994,1.138C499.714,280.157,511.401,309.34,511.401,340.331z
	 M462.951,404.373c15.795-17.579,24.501-40.32,24.501-64.042c0-25.626-9.987-49.732-28.117-67.862
	c-0.287-0.275-0.551-0.575-0.802-0.886l-133.928-133.94c-3.389-3.389-9.077-10.73-9.077-21.878c0-1.018,0.06-2.048,0.168-3.137
	c1.581-15.591,14.633-27.375,30.356-27.375c8.155,0,15.819,3.173,21.579,8.933l19.244,19.22
	c11.987,11.999,30.68,13.304,44.128,3.928l-26.584-26.596c-4.67-4.67-4.67-12.25,0-16.933c4.682-4.67,12.262-4.67,16.933,0
	l23.471,23.471c0.647-2.682,0.994-5.449,0.994-8.275c0-9.221-3.592-17.891-10.119-24.417c-0.551-0.551-30.644-28.584-30.799-28.74
	c-9.484-7.88-24.129-10.215-34.739-10.801c-12.035-0.659-23.064,0.934-23.674,0.934c-49.504,0-89.788,40.284-89.788,89.788
	c0,23.986,9.352,46.535,26.309,63.491l100.925,100.937c4.67,4.67,4.67,12.262,0,16.933c-2.347,2.335-5.413,3.509-8.466,3.509
	c-0.036,0-0.06,0-0.084-0.012c0,0-229.284,0.012-229.308,0.012c-0.06,0-0.108-0.012-0.168-0.012h-0.838
	c-0.287,0-0.563-0.012-0.85-0.036c-36.116-0.814-66.485-25.291-76.161-58.521C40.14,268.638,23.95,305.76,23.95,344.774
	c0,78.16,63.587,141.747,141.747,141.747H368.66c44.966,0,83.417-32.081,91.417-76.28
	C460.472,408.05,461.466,406.026,462.951,404.373z M476.015,160.276c-0.551-0.563-1.066-1.186-1.497-1.844l-19.998-30.057
	c-0.611,0.671-1.233,1.329-1.88,1.976c-3.113,3.113-6.502,5.772-10.071,8.035C442.569,138.386,475.979,160.276,476.015,160.276z"/>
<path style="fill:#FFFFFF;" d="M487.451,340.331c0,23.722-8.706,46.463-24.501,64.042c-1.485,1.653-2.479,3.676-2.874,5.868
	c-7.999,44.199-46.451,76.28-91.417,76.28H165.697c-78.16,0-141.747-63.587-141.747-141.747c0-39.014,16.19-76.137,44.104-102.709
	c9.676,33.23,40.044,57.707,76.161,58.521c0.287,0.024,0.563,0.036,0.85,0.036h0.838c0.06,0,0.108,0.012,0.168,0.012
	c0.024,0,229.308-0.012,229.308-0.012c0.024,0.012,0.048,0.012,0.084,0.012c3.054,0,6.119-1.174,8.466-3.509
	c4.67-4.67,4.67-12.262,0-16.933L283.003,179.257c-16.957-16.957-26.309-39.505-26.309-63.491c0-49.504,40.284-89.788,89.788-89.788
	c0.611,0,11.64-1.593,23.674-0.934c10.61,0.587,25.255,2.922,34.739,10.801c0.156,0.156,30.249,28.189,30.799,28.74
	c6.526,6.526,10.119,15.196,10.119,24.417c0,2.826-0.347,5.592-0.994,8.275L421.35,73.806c-4.67-4.67-12.25-4.67-16.933,0
	c-4.67,4.682-4.67,12.262,0,16.933l26.584,26.596c-13.448,9.376-32.141,8.071-44.128-3.928l-19.244-19.22
	c-5.76-5.76-13.424-8.933-21.579-8.933c-15.723,0-28.776,11.783-30.356,27.375c-0.108,1.09-0.168,2.12-0.168,3.137
	c0,11.149,5.688,18.489,9.077,21.878l133.928,133.94c0.251,0.311,0.515,0.611,0.802,0.886
	C477.464,290.6,487.451,314.705,487.451,340.331z M426.188,393.584c0-6.622-5.365-11.975-11.975-11.975
	c-6.622,0-11.975,5.353-11.975,11.975c0,26.165-21.303,47.457-47.469,47.457h-104.11c-53.612,0-97.572-42.068-100.625-94.925
	h165.422c6.61,0,11.975-5.365,11.975-11.975c0-6.61-5.365-11.975-11.975-11.975H137.891c-6.61,0-11.975,5.365-11.975,11.975v6.107
	c0,68.784,55.959,124.743,124.743,124.743h104.11C394.143,464.99,426.188,432.958,426.188,393.584z"/>
<path style="fill:#FFCC66;" d="M474.518,158.432c0.431,0.659,0.946,1.281,1.497,1.844c-0.036,0-33.446-21.89-33.446-21.89
	c3.569-2.263,6.957-4.922,10.071-8.035c0.647-0.647,1.269-1.305,1.88-1.976L474.518,158.432z"/>
<path style="fill:#663333;" d="M414.213,381.609c6.61,0,11.975,5.353,11.975,11.975c0,39.374-32.045,71.406-71.418,71.406h-104.11
	c-68.784,0-124.743-55.959-124.743-124.743v-6.107c0-6.61,5.365-11.975,11.975-11.975h177.564c6.61,0,11.975,5.365,11.975,11.975
	c0,6.61-5.365,11.975-11.975,11.975H150.034c3.054,52.857,47.014,94.925,100.625,94.925h104.11
	c26.165,0,47.469-21.291,47.469-47.457C402.238,386.962,407.591,381.609,414.213,381.609z"/>
<g>
</g>
<g>
</g>
<g>
</g>
<g>
</g>
<g>
</g>
<g>
</g>
<g>
</g>
<g>
</g>
<g>
</g>
<g>
</g>
<g>
</g>
<g>
</g>
<g>
</g>
<g>
</g>
<g>
</g>
</svg>
