<?xml version="1.0" encoding="iso-8859-1"?>
<!-- Generator: Adobe Illustrator 19.0.0, SVG Export Plug-In . SVG Version: 6.00 Build 0)  -->
<svg version="1.1" id="Layer_1" xmlns="http://www.w3.org/2000/svg" xmlns:xlink="http://www.w3.org/1999/xlink" x="0px" y="0px"
	 viewBox="0 0 511.421 511.421" style="enable-background:new 0 0 511.421 511.421;" xml:space="preserve">
<path style="fill:#663333;" d="M449.7,109.115c9.115,9.127,14.142,21.242,14.142,34.133c0,12.903-5.027,25.017-14.142,34.144
	l-34.793,34.793c2.849,12.057,4.355,24.624,4.355,37.538v51.436c0,12.74-1.471,25.156-4.239,37.074
	c-2.768,11.918-6.845,23.338-12.08,34.098l18.694,18.694c21.89,21.902,21.89,57.517,0,79.407
	c-10.609,10.609-24.705,16.447-39.704,16.447c-14.999,0-29.106-5.837-39.704-16.447l-19.921-19.91
	c-8.86,3.961-18.126,7.158-27.728,9.509l-9.567,24.496c-9.15,23.396-22.284,26.894-29.291,26.894
	c-7.019,0-20.153-3.498-29.291-26.894l-9.578-24.496c-9.602-2.351-18.867-5.548-27.716-9.509l-19.91,19.91
	c-10.609,10.609-24.705,16.447-39.704,16.447s-29.106-5.837-39.704-16.447c-10.609-10.598-16.447-24.705-16.447-39.704
	c0-14.999,5.837-29.094,16.447-39.704l18.682-18.682c-10.459-21.531-16.319-45.68-16.319-71.184v-51.436
	c0-12.914,1.506-25.469,4.343-37.526l-34.804-34.804c-9.115-9.127-14.142-21.242-14.142-34.144c0-12.891,5.027-25.006,14.142-34.133
	c9.115-9.115,21.242-14.13,34.133-14.13s25.017,5.015,34.133,14.13L147.8,126.94c7.389-6.509,15.369-12.347,23.848-17.454
	s17.454-9.463,26.836-12.972V57.227C198.483,25.678,224.161,0,255.71,0c31.561,0,57.227,25.678,57.227,57.227v39.275
	c18.763,7.03,35.905,17.42,50.683,30.438l17.813-17.825c9.115-9.115,21.242-14.13,34.133-14.13
	C428.458,94.985,440.585,100,449.7,109.115z M440.677,143.248c0-6.706-2.618-13.007-7.355-17.744
	c-4.737-4.749-11.049-7.355-17.755-7.355s-13.007,2.606-17.755,7.355l-17.918,17.918c5.594,6.521,10.679,13.493,15.207,20.836
	c4.529,7.355,8.49,15.08,11.825,23.141l26.396-26.396C438.06,156.266,440.677,149.954,440.677,143.248z M405.248,454.055
	c12.868-12.856,12.868-33.785,0-46.641l-14.327-14.339c-6.254,9.173-13.412,17.663-21.334,25.365
	c-7.945,7.702-16.655,14.617-26.002,20.593l15.022,15.022c6.231,6.231,14.512,9.66,23.326,9.66
	C390.735,463.714,399.028,460.286,405.248,454.055z M396.098,301.159v-14.142H342.38l-33.31,57.691l36.889,63.887
	C376.605,382.836,396.098,344.233,396.098,301.159z M396.098,263.853v-14.13c0-42.391-18.89-80.461-48.703-106.22l-37.248,64.524
	v0.012l32.222,55.814H396.098z M291.152,194.603l37.422-64.837c-21.253-12.949-46.19-20.419-72.852-20.419
	c-13.007,0-25.597,1.772-37.549,5.096c-11.953,3.324-23.269,8.2-33.727,14.397l37.966,65.763L291.152,194.603L291.152,194.603z
	 M326.975,422.065l-37.966-65.787h-64.455l-38.511,66.713c1.367,0.788,2.757,1.552,4.158,2.282c0,0,0,0,0.012,0
	c1.228,0.672,2.467,1.297,3.718,1.9c18.659,9.196,39.634,14.362,61.791,14.362s43.132-5.166,61.791-14.362
	c1.251-0.602,2.479-1.228,3.706-1.888c0.012,0,0.023-0.012,0.035-0.012C323.188,424.254,325.099,423.177,326.975,422.065z
	 M322.308,275.446l-33.299-57.679h-66.586l-33.299,57.679l33.299,57.667h66.586L322.308,275.446z M289.774,89.75V64.501
	c-1.865,1.506-4.227,2.409-6.81,2.409c-6.011,0-10.887-4.864-10.887-10.876s4.876-10.876,10.887-10.876
	c1.818,0,3.533,0.452,5.038,1.251c-4.529-13.493-17.292-23.245-32.291-23.245c-14.999,0-27.751,9.752-32.291,23.245
	c1.517-0.799,3.231-1.251,5.061-1.251c6,0,10.876,4.864,10.876,10.876S234.48,66.91,228.481,66.91c-2.594,0-4.969-0.903-6.833-2.409
	v25.261c10.991-2.351,22.388-3.579,34.075-3.579c5.837,0,11.605,0.313,17.281,0.903C278.689,87.688,284.272,88.58,289.774,89.75z
	 M263.436,476.095l4.633-11.86c-4.077,0.313-8.189,0.463-12.347,0.463c-4.158,0-8.281-0.151-12.358-0.463l4.633,11.86
	c3.289,8.385,6.521,11.455,7.725,12.08C256.915,487.55,260.158,484.481,263.436,476.095z M203.429,346.538l-34.364-59.521h-53.718
	v14.142c0,21.867,5.027,42.588,13.98,61.061c8.965,18.462,21.855,34.689,37.584,47.568L203.429,346.538z M202.363,206.197
	l-36.889-63.899c-30.635,25.759-50.127,64.362-50.127,107.424v14.13h53.73L202.363,206.197z M152.838,454.055l15.022-15.022
	c-9.347-5.976-18.057-12.879-26.002-20.581c-7.922-7.702-15.08-16.203-21.334-25.365l-14.327,14.327
	c-6.231,6.22-9.66,14.512-9.66,23.315c0,8.814,3.428,17.095,9.66,23.326c6.231,6.231,14.512,9.66,23.326,9.66
	C138.326,463.714,146.618,460.286,152.838,454.055z M131.527,143.422l-17.918-17.918c-4.749-4.749-11.049-7.355-17.755-7.355
	c-6.706,0-13.018,2.606-17.755,7.355c-4.737,4.737-7.355,11.038-7.355,17.744c0,6.706,2.618,13.018,7.355,17.755l26.419,26.419
	C111.177,171.3,120.338,156.475,131.527,143.422z"/>
<g>
	<path style="fill:#F9DCB2;" d="M433.323,125.504c4.737,4.737,7.355,11.038,7.355,17.744c0,6.706-2.618,13.018-7.355,17.755
		l-26.396,26.396c-3.336-8.061-7.297-15.786-11.825-23.141c-4.529-7.343-9.613-14.316-15.207-20.836l17.918-17.918
		c4.749-4.749,11.049-7.355,17.755-7.355C422.273,118.149,428.586,120.755,433.323,125.504z"/>
	<path style="fill:#F9DCB2;" d="M405.248,407.413c12.868,12.856,12.868,33.785,0,46.641c-6.22,6.231-14.512,9.66-23.315,9.66
		c-8.814,0-17.095-3.428-23.326-9.66l-15.022-15.022c9.347-5.976,18.057-12.891,26.002-20.593
		c7.922-7.702,15.08-16.192,21.334-25.365L405.248,407.413z"/>
</g>
<path style="fill:#9ACE57;" d="M396.098,287.017v14.142c0,43.074-19.493,81.677-50.139,107.436l-36.889-63.887l33.31-57.691H396.098
	z"/>
<path style="fill:#6A973A;" d="M396.098,249.722v14.13h-53.73l-32.222-55.814v-0.012l37.248-64.524
	C377.207,169.261,396.098,207.332,396.098,249.722z"/>
<path style="fill:#9ACE57;" d="M328.574,129.766l-37.422,64.837h-68.74l-37.966-65.763c10.459-6.196,21.774-11.073,33.727-14.397
	c11.953-3.324,24.543-5.096,37.549-5.096C282.384,109.347,307.321,116.817,328.574,129.766z"/>
<g>
	<path style="fill:#6A973A;" d="M289.009,356.278l37.966,65.787c-1.876,1.112-3.787,2.189-5.722,3.208
		c-0.012,0-0.023,0.012-0.035,0.012c-1.228,0.66-2.455,1.286-3.706,1.888c-18.659,9.196-39.634,14.362-61.791,14.362
		s-43.132-5.166-61.791-14.362c-1.251-0.602-2.49-1.228-3.718-1.899c-0.012,0-0.012,0-0.012,0c-1.401-0.73-2.791-1.494-4.158-2.282
		l38.511-66.713L289.009,356.278L289.009,356.278z"/>
	<polygon style="fill:#6A973A;" points="289.009,217.767 322.308,275.446 289.009,333.114 222.423,333.114 189.125,275.446 
		222.423,217.767 	"/>
</g>
<g>
	<path style="fill:#F9DCB2;" d="M289.774,64.501V89.75c-5.502-1.17-11.084-2.062-16.771-2.664
		c-5.675-0.591-11.443-0.903-17.281-0.903c-11.686,0-23.083,1.228-34.075,3.579V64.501c1.865,1.506,4.239,2.409,6.833,2.409
		c6,0,10.876-4.864,10.876-10.876s-4.876-10.876-10.876-10.876c-1.83,0-3.544,0.452-5.061,1.251
		c4.54-13.493,17.292-23.245,32.291-23.245c14.999,0,27.762,9.752,32.291,23.245c-1.506-0.799-3.22-1.251-5.038-1.251
		c-6.011,0-10.887,4.864-10.887,10.876s4.876,10.876,10.887,10.876C285.546,66.91,287.909,66.007,289.774,64.501z"/>
	<path style="fill:#F9DCB2;" d="M268.069,464.235l-4.633,11.86c-3.278,8.385-6.521,11.455-7.714,12.08
		c-1.205-0.625-4.436-3.695-7.725-12.08l-4.633-11.86c4.077,0.313,8.2,0.463,12.358,0.463
		C259.88,464.699,263.992,464.548,268.069,464.235z"/>
</g>
<path style="fill:#9ACE57;" d="M169.065,287.017l34.364,59.521l-36.518,63.25c-15.729-12.879-28.619-29.106-37.584-47.568
	c-8.953-18.474-13.98-39.194-13.98-61.061v-14.142H169.065L169.065,287.017z"/>
<path style="fill:#6A973A;" d="M165.474,142.298l36.889,63.899l-33.287,57.656h-53.73v-14.13
	C115.347,206.66,134.839,168.057,165.474,142.298z"/>
<g>
	<path style="fill:#F9DCB2;" d="M167.86,439.033l-15.022,15.022c-6.22,6.231-14.512,9.66-23.315,9.66
		c-8.814,0-17.095-3.428-23.326-9.66s-9.66-14.512-9.66-23.326c0-8.802,3.428-17.095,9.66-23.315l14.327-14.327
		c6.254,9.161,13.412,17.663,21.334,25.365C149.803,426.153,158.513,433.056,167.86,439.033z"/>
	<path style="fill:#F9DCB2;" d="M113.609,125.504l17.918,17.918c-11.188,13.053-20.35,27.878-27.01,44.001l-26.419-26.419
		c-4.737-4.737-7.355-11.049-7.355-17.755s2.618-13.007,7.355-17.744c4.737-4.749,11.049-7.355,17.755-7.355
		S108.861,120.755,113.609,125.504z"/>
</g>
<g>
</g>
<g>
</g>
<g>
</g>
<g>
</g>
<g>
</g>
<g>
</g>
<g>
</g>
<g>
</g>
<g>
</g>
<g>
</g>
<g>
</g>
<g>
</g>
<g>
</g>
<g>
</g>
<g>
</g>
</svg>
