<?xml version="1.0" encoding="iso-8859-1"?>
<!-- Generator: Adobe Illustrator 19.0.0, SVG Export Plug-In . SVG Version: 6.00 Build 0)  -->
<svg version="1.1" id="Layer_1" xmlns="http://www.w3.org/2000/svg" xmlns:xlink="http://www.w3.org/1999/xlink" x="0px" y="0px"
	 viewBox="0 0 511.454 511.454" style="enable-background:new 0 0 511.454 511.454;" xml:space="preserve">
<path style="fill:#FFCC66;" d="M364.684,36.86h-4.419c0.84-1.822,1.888-3.557,3.121-5.161
	C363.723,33.444,364.16,35.168,364.684,36.86z"/>
<path style="fill:#663333;" d="M492.143,85.286c0,21.18-17.23,38.42-38.42,38.42h-15.396c-7.3,7.54-16.564,12.996-26.657,15.767
	v121.906c0,27.247-12.483,51.623-32.026,67.718V468.2c0,6.023-4.888,10.912-10.912,10.912h-33.75v21.431
	c0,6.023-4.878,10.912-10.912,10.912h-44.716c-6.023,0-10.912-4.888-10.912-10.912V367.736h-80.801
	c-0.622,0.895-1.386,1.713-2.291,2.422c-7.955,6.176-16.771,11.054-26.199,14.491c0,0-0.011,0-0.011,0.011v83.54
	c0,6.023-4.888,10.912-10.912,10.912h-33.75v21.431c0,6.023-4.878,10.912-10.912,10.912H58.85c-6.034,0-10.912-4.888-10.912-10.912
	V304.808c-1.211,0.164-2.411,0.273-3.59,0.273c-3.579,0-7.005-0.753-10.17-2.27c-8.806-4.266-14.185-13.912-14.807-26.494
	c-0.513-10.617,2.27-22.805,7.856-34.328c8.838-18.201,22.62-30.826,36.031-33.761c16.182-24.017,43.625-39.85,74.702-39.85h148.138
	c11.621,0,21.071-9.45,21.071-21.071V79.459c-7.333-8.315-11.61-18.801-12.156-30.018c-0.644-12.919,3.732-25.359,12.319-35.038
	c5.51-6.231,12.548-10.966,20.361-13.727c1.888-0.698,3.994-0.884,6.111-0.426c5.881,1.298,9.602,7.125,8.304,13.007
	c-0.829,3.797-0.829,7.649-0.087,11.326c2.291-4.136,5.194-7.966,8.664-11.37c5.827-5.696,13.007-9.864,20.809-12.112
	c0.175-0.055,0.338-0.098,0.502-0.153c0.044-0.011,0.076-0.022,0.12-0.033c1.899-0.513,3.95-0.535,5.969,0.055
	c5.772,1.713,9.079,7.78,7.365,13.563c-2.27,7.682-1.091,15.735,3.077,22.325h55.202C470.429,36.86,492.143,58.585,492.143,85.286z
	 M453.723,101.883c9.155,0,16.597-7.453,16.597-16.597c0-14.676-11.926-26.603-26.592-26.603c0,0-100.093,0.033-100.301,0.033
	c-2.575,0-5.15-0.906-7.234-2.75c-7.333-6.492-12.396-14.916-14.851-24.071c-7.234,10.944-5.696,26.014,4.157,35.158l-0.011,0.011
	c2.15,1.997,3.503,4.834,3.503,7.998v72.247c0,23.657-19.248,42.894-42.894,42.894H137.96c-37.602,0-68.198,30.596-68.198,68.209
	v203.547h22.893v-52.944c0-5.041,3.426-9.264,8.075-10.519v-0.011c36.794-9.941,60.647-45.971,55.486-83.813
	c-0.818-5.969,3.361-11.468,9.34-12.287c5.958-0.807,11.468,3.361,12.287,9.34c1.593,11.676,1.015,23.209-1.397,34.186h102.908
	c6.023,0,10.912,4.888,10.912,10.912v105.134h22.838l0.055-123.837c0-6.023,4.888-10.912,10.912-10.912h0.055
	c36.238-0.011,65.721-29.538,65.721-65.83V130.439c0-2.837,1.091-5.423,2.87-7.365s4.256-3.241,7.027-3.492
	c9.646-0.906,18.659-5.718,24.824-13.203c1.953-2.684,5.107-4.452,8.675-4.496L453.723,101.883L453.723,101.883z M360.264,36.86
	h4.419c-0.524-1.691-0.96-3.415-1.298-5.161C362.152,33.303,361.104,35.038,360.264,36.86z M357.82,457.289v-8.042h-22.838v8.042
	H357.82z M357.82,429.605v-87.337c-7.18,3.012-14.84,5.063-22.838,6.067v81.271H357.82z M313.158,489.631V481.6h-22.893v8.031
	H313.158z M137.316,457.289v-8.042h-22.838v8.042H137.316z M137.316,429.605v-24.628c-6.94,4.921-14.589,8.991-22.838,12.003v12.625
	H137.316z M92.654,489.631V481.6H69.761v8.031H92.654z M47.938,284.665c0,0,0.48-36.729,1.364-41.77
	c-1.549,2.313-3.044,4.867-4.408,7.671c-4.103,8.478-6.263,17.513-5.903,24.791c0.24,4.954,1.702,8.784,3.721,9.766
	C43.922,285.702,45.788,285.505,47.938,284.665z"/>
<path style="fill:#FFCC66;" d="M470.32,85.286c0,9.144-7.442,16.597-16.597,16.597h-20.481c-3.568,0.044-6.722,1.811-8.675,4.496
	c-6.165,7.485-15.178,12.298-24.824,13.203c-2.772,0.251-5.249,1.549-7.027,3.492c-1.779,1.942-2.87,4.528-2.87,7.365v130.941
	c0,36.292-29.483,65.82-65.721,65.83h-0.055c-6.023,0-10.912,4.888-10.912,10.912l-0.055,123.837h-22.838V356.824
	c0-6.023-4.888-10.912-10.912-10.912H176.445c2.411-10.977,2.99-22.511,1.397-34.186c-0.818-5.98-6.329-10.148-12.287-9.34
	c-5.98,0.818-10.159,6.318-9.34,12.287c5.161,37.842-18.692,73.872-55.486,83.813v0.011c-4.648,1.255-8.075,5.478-8.075,10.519
	v52.944H69.761V258.411c0-37.613,30.596-68.209,68.198-68.209h148.138c23.646,0,42.894-19.237,42.894-42.894V75.062
	c0-3.164-1.353-6.001-3.503-7.998l0.011-0.011c-9.853-9.144-11.392-24.213-4.157-35.158c2.455,9.155,7.518,17.579,14.851,24.071
	c2.084,1.844,4.659,2.75,7.234,2.75c0.207,0,100.301-0.033,100.301-0.033C458.393,58.683,470.32,70.61,470.32,85.286z
	 M394.036,82.514c0-6.023-4.888-10.912-10.912-10.912s-10.912,4.888-10.912,10.912c0,6.034,4.888,10.923,10.912,10.923
	S394.036,88.549,394.036,82.514z M148.871,230.576c0-6.023-4.878-10.912-10.912-10.912c-21.354,0-38.737,17.382-38.737,38.748
	c0,6.023,4.888,10.912,10.912,10.912s10.912-4.888,10.912-10.912c0-9.33,7.584-16.924,16.913-16.924
	C143.994,241.487,148.871,236.599,148.871,230.576z"/>
<path style="fill:#663333;" d="M383.124,71.603c6.023,0,10.912,4.888,10.912,10.912c0,6.034-4.888,10.923-10.912,10.923
	s-10.912-4.888-10.912-10.923C372.213,76.491,377.101,71.603,383.124,71.603z"/>
<rect x="334.979" y="449.247" style="fill:#B88D5B;" width="22.838" height="8.042"/>
<path style="fill:#FFCC66;" d="M357.82,342.268v87.337h-22.838v-81.271C342.98,347.331,350.64,345.28,357.82,342.268z"/>
<rect x="290.262" y="481.6" style="fill:#B88D5B;" width="22.893" height="8.031"/>
<path style="fill:#663333;" d="M137.96,219.664c6.034,0,10.912,4.888,10.912,10.912c0,6.023-4.878,10.912-10.912,10.912
	c-9.33,0-16.913,7.595-16.913,16.924c0,6.023-4.888,10.912-10.912,10.912s-10.912-4.888-10.912-10.912
	C99.223,237.046,116.605,219.664,137.96,219.664z"/>
<rect x="114.474" y="449.247" style="fill:#B88D5B;" width="22.838" height="8.042"/>
<path style="fill:#FFCC66;" d="M137.316,404.978v24.628h-22.838v-12.625C122.727,413.969,130.376,409.899,137.316,404.978z"/>
<g>
	<rect x="69.758" y="481.6" style="fill:#B88D5B;" width="22.893" height="8.031"/>
	<path style="fill:#B88D5B;" d="M49.302,242.895c-0.884,5.041-1.364,41.77-1.364,41.77c-2.15,0.84-4.016,1.037-5.227,0.458
		c-2.019-0.982-3.481-4.812-3.721-9.766c-0.36-7.278,1.8-16.313,5.903-24.791C46.258,247.762,47.752,245.208,49.302,242.895z"/>
</g>
<g>
</g>
<g>
</g>
<g>
</g>
<g>
</g>
<g>
</g>
<g>
</g>
<g>
</g>
<g>
</g>
<g>
</g>
<g>
</g>
<g>
</g>
<g>
</g>
<g>
</g>
<g>
</g>
<g>
</g>
</svg>
