<svg id="Capa_1" enable-background="new 0 0 510 510" height="512" viewBox="0 0 510 510" width="512" xmlns="http://www.w3.org/2000/svg" xmlns:xlink="http://www.w3.org/1999/xlink"><linearGradient id="lg1"><stop offset="0" stop-color="#eaf6ff"/><stop offset=".5213" stop-color="#d8ecfe"/><stop offset="1" stop-color="#b3dafe"/></linearGradient><linearGradient id="SVGID_1_" gradientUnits="userSpaceOnUse" x1="16.983" x2="524.208" xlink:href="#lg1" y1="278.5" y2="278.5"/><linearGradient id="SVGID_2_" gradientUnits="userSpaceOnUse" x1="-132.667" x2="246.766" xlink:href="#lg1" y1="385.241" y2="385.241"/><linearGradient id="SVGID_3_" gradientUnits="userSpaceOnUse" x1="-132.667" x2="246.766" xlink:href="#lg1" y1="386.163" y2="386.163"/><linearGradient id="SVGID_4_" gradientUnits="userSpaceOnUse" x1="16.983" x2="524.208" y1="278.5" y2="278.5"><stop offset="0" stop-color="#d8ecfe"/><stop offset=".5667" stop-color="#b3dafe"/><stop offset=".9955" stop-color="#8ac9fe"/></linearGradient><linearGradient id="lg2"><stop offset="0" stop-color="#97d729"/><stop offset=".5652" stop-color="#02905d"/><stop offset=".9955" stop-color="#026841"/></linearGradient><linearGradient id="SVGID_5_" gradientUnits="userSpaceOnUse" x1="-.844" x2="621.741" xlink:href="#lg2" y1="117.554" y2="117.554"/><linearGradient id="SVGID_6_" gradientUnits="userSpaceOnUse" x1="-27.333" x2="435.381" xlink:href="#lg2" y1="72.025" y2="72.025"/><linearGradient id="SVGID_8_" gradientUnits="userSpaceOnUse" x1="111" x2="492.131" xlink:href="#lg2" y1="117.554" y2="117.554"/><linearGradient id="lg3"><stop offset="0" stop-color="#fef056"/><stop offset=".5213" stop-color="#f4d902"/><stop offset="1" stop-color="#fe9738"/></linearGradient><linearGradient id="SVGID_9_" gradientUnits="userSpaceOnUse" x1="99.785" x2="148.795" xlink:href="#lg3" y1="48.523" y2="48.523"/><linearGradient id="SVGID_10_" gradientUnits="userSpaceOnUse" x1="368.466" x2="417.476" xlink:href="#lg3" y1="48.523" y2="48.523"/><linearGradient id="lg4"><stop offset="0" stop-color="#fe646f"/><stop offset=".5213" stop-color="#e41f2d"/><stop offset="1" stop-color="#c41926"/></linearGradient><linearGradient id="SVGID_11_" gradientUnits="userSpaceOnUse" x1="85" x2="496.486" xlink:href="#lg4" y1="360.23" y2="360.23"/><linearGradient id="SVGID_12_" gradientUnits="userSpaceOnUse" x1="85" x2="496.486" xlink:href="#lg4" y1="361.152" y2="361.152"/><linearGradient id="SVGID_13_" gradientUnits="userSpaceOnUse" x1="40.828" x2="358.903" xlink:href="#lg4" y1="339.335" y2="339.335"/><linearGradient id="SVGID_14_" gradientUnits="userSpaceOnUse" x1="26" x2="367.002" xlink:href="#lg4" y1="311.526" y2="311.526"/><linearGradient id="SVGID_15_" gradientUnits="userSpaceOnUse" x1="26" x2="367.002" xlink:href="#lg4" y1="451.645" y2="451.645"/><linearGradient id="SVGID_16_" gradientUnits="userSpaceOnUse" x1="26" x2="367.002" xlink:href="#lg4" y1="268.815" y2="268.815"/><linearGradient id="SVGID_17_" gradientUnits="userSpaceOnUse" x1="30.557" x2="367.493" xlink:href="#lg4" y1="382.046" y2="382.046"/><linearGradient id="SVGID_18_" gradientUnits="userSpaceOnUse" x1="26" x2="367.002" xlink:href="#lg4" y1="414.311" y2="414.311"/><g><path d="m484.078 510h-458.156c-14.316 0-25.922-11.606-25.922-25.922v-411.156c0-14.316 11.606-25.922 25.922-25.922h458.156c14.316 0 25.922 11.606 25.922 25.922v411.156c0 14.316-11.606 25.922-25.922 25.922z" fill="url(#SVGID_1_)"/><g><path d="m221.536 336.537c0-41.175-35.952-63.606-71.595-63.606-35.03 0-69.445 21.509-69.445 58.997 0 19.358 9.218 24.889 21.509 24.889 15.671 0 25.197-8.603 25.197-17.515 0-16.901 10.755-23.045 23.046-23.045 17.208 0 23.353 11.983 23.353 21.816 0 39.025-96.792 66.68-96.792 114.923v29.805c0 8.911 12.291 14.749 20.895 14.749h109.391c7.682 0 14.442-10.139 14.442-21.202 0-11.062-6.76-20.588-14.442-20.588h-80.507v-2.765c-.001-27.962 94.948-49.779 94.948-116.458z" fill="url(#SVGID_2_)"/><path d="m307.886 355.895h-19.973l3.073-41.175h67.294c9.219 0 13.828-10.447 13.828-20.895 0-10.447-4.609-20.894-13.828-20.894h-98.021c-5.224 0-7.682 5.531-8.604 14.749l-8.296 77.434c-.307 3.379-.615 5.838-.615 8.911 0 11.676 4.302 18.744 18.437 18.744h46.706c16.9 0 27.347 9.833 27.347 30.113v5.838c0 19.974-10.448 28.885-27.962 28.885-15.056 0-26.733-6.454-26.733-18.744 0-9.833-3.072-17.822-23.967-17.822-15.056 0-23.968 4.609-23.968 21.202 0 28.885 26.426 57.154 75.898 57.154 41.175 0 74.668-19.358 74.668-70.674v-5.838c-.001-49.165-32.88-66.988-75.284-66.988z" fill="url(#SVGID_3_)"/></g><path d="m510 72.92v411.16c0 14.315-11.605 25.92-25.92 25.92h-40.02c14.31 0 25.92-11.61 25.92-25.92v-199.74c0-39.251-31.819-71.07-71.07-71.07h-398.91v-140.35c0-14.315 11.605-25.92 25.92-25.92h458.16c14.315 0 25.92 11.605 25.92 25.92z" fill="url(#SVGID_4_)"/><path d="m484.078 47h-458.156c-14.316 0-25.922 11.606-25.922 25.922v115.185h510v-115.185c0-14.316-11.606-25.922-25.922-25.922z" fill="url(#SVGID_5_)"/><g fill="url(#SVGID_6_)"><path d="m73.54 81c0 8.86 7.18 16.05 16.04 16.05h31.08v-50.05h-47.12z"/><path d="m342.22 47v34c0 8.86 7.18 16.05 16.04 16.05h31.08v-50.05z"/></g><path d="m484.078 47h-40.02c14.316 0 25.922 11.606 25.922 25.922v115.185h40.02v-115.185c0-14.316-11.606-25.922-25.922-25.922z" fill="url(#SVGID_8_)"/><g><path d="m104.618 81.004v-64.963c0-8.859 7.182-16.041 16.041-16.041 8.859 0 16.041 7.182 16.041 16.041v64.963c0 8.859-7.182 16.041-16.041 16.041-8.859 0-16.041-7.182-16.041-16.041z" fill="url(#SVGID_9_)"/><path d="m373.299 81.004v-64.963c0-8.859 7.182-16.041 16.042-16.041 8.859 0 16.041 7.182 16.041 16.041v64.963c0 8.859-7.182 16.041-16.041 16.041-8.86 0-16.042-7.182-16.042-16.041z" fill="url(#SVGID_10_)"/></g><g><path d="m246.547 311.526c0-41.175-35.952-63.606-71.595-63.606-35.03 0-69.445 21.509-69.445 58.997 0 19.358 9.218 24.889 21.509 24.889 15.671 0 25.197-8.603 25.197-17.515 0-16.901 10.755-23.045 23.046-23.045 17.208 0 23.353 11.983 23.353 21.816 0 39.025-96.792 66.68-96.792 114.923v29.805c0 8.911 12.291 14.749 20.895 14.749h109.391c7.682 0 14.442-10.139 14.442-21.202 0-11.062-6.76-20.588-14.442-20.588h-80.507v-2.765c-.001-27.962 94.948-49.779 94.948-116.458z" fill="url(#SVGID_11_)"/><path d="m332.897 330.884h-19.973l3.073-41.175h67.294c9.219 0 13.828-10.447 13.828-20.895 0-10.447-4.609-20.894-13.828-20.894h-98.021c-5.224 0-7.682 5.531-8.604 14.749l-8.296 77.434c-.307 3.379-.615 5.838-.615 8.911 0 11.676 4.302 18.744 18.437 18.744h46.706c16.9 0 27.347 9.833 27.347 30.113v5.838c0 19.974-10.448 28.885-27.962 28.885-15.056 0-26.733-6.454-26.733-18.744 0-9.833-3.072-17.822-23.967-17.822-15.056 0-23.968 4.609-23.968 21.202 0 28.885 26.426 57.154 75.898 57.154 41.175 0 74.668-19.358 74.668-70.674v-5.838c-.001-49.165-32.88-66.988-75.284-66.988z" fill="url(#SVGID_12_)"/></g><g><path d="m174.952 247.92c-4.207 0-8.404.318-12.535.929 31.094 4.594 59.119 26.324 59.119 62.677 0 51.864-57.443 74.556-82.97 98.118-8.131 7.505-2.739 21.106 8.327 21.106h4.705v-2.765c0-27.963 94.949-49.78 94.949-116.459 0-41.175-35.952-63.606-71.595-63.606z" fill="url(#SVGID_13_)"/><path d="m152.213 314.291c0-10.639 4.264-17.013 10.488-20.277-3.276-1.721-7.38-2.768-12.453-2.768-12.291 0-23.046 6.145-23.046 23.045 0 5.987-4.316 11.823-11.892 15.016 3.325 1.787 7.318 2.498 11.706 2.498 15.671.001 25.197-8.602 25.197-17.514z" fill="url(#SVGID_14_)"/><path d="m232.105 430.75h-25.011c7.682 0 14.442 9.525 14.442 20.588 0 11.062-6.76 21.202-14.442 21.202h25.011c7.682 0 14.442-10.139 14.442-21.202 0-11.062-6.76-20.588-14.442-20.588z" fill="url(#SVGID_15_)"/><path d="m358.28 289.709h25.011c9.219 0 13.828-10.447 13.828-20.895 0-10.447-4.609-20.894-13.828-20.894h-25.011c9.219 0 13.828 10.447 13.828 20.894-.001 10.448-4.61 20.895-13.828 20.895z" fill="url(#SVGID_16_)"/><path d="m332.897 330.884h-19.973l3.073-41.175h-7.805c-9.703 0-17.765 7.482-18.487 17.159l-.306 4.098c-.802 10.752 7.705 19.918 18.487 19.918 42.404 0 75.283 17.822 75.283 66.987v5.838c0 46.005-26.926 66.312-62.166 70.025 3.993.419 8.157.649 12.509.649 41.175 0 74.668-19.358 74.668-70.674v-5.838c0-49.164-32.879-66.987-75.283-66.987z" fill="url(#SVGID_17_)"/><path d="m305.549 413.85c0-9.833-3.072-17.822-23.967-17.822-4.627 0-8.671.438-12.057 1.522 9.324 2.77 11.013 9.029 11.013 16.3 0 12.29 11.677 18.744 26.733 18.744 4.562 0 8.64-.611 12.183-1.858-8.366-2.726-13.905-8.422-13.905-16.886z" fill="url(#SVGID_18_)"/></g></g></svg>