<svg id="Capa_1" enable-background="new 0 0 510.001 510.001" height="512" viewBox="0 0 510.001 510.001" width="512" xmlns="http://www.w3.org/2000/svg" xmlns:xlink="http://www.w3.org/1999/xlink"><linearGradient id="lg1"><stop offset="0" stop-color="#97d729"/><stop offset=".5652" stop-color="#02905d"/><stop offset=".9955" stop-color="#026841"/></linearGradient><linearGradient id="SVGID_1_" gradientUnits="userSpaceOnUse" x1="87.099" x2="448.78" xlink:href="#lg1" y1="47" y2="47"/><linearGradient id="SVGID_2_" gradientUnits="userSpaceOnUse" x1="30" x2="402.001" xlink:href="#lg1" y1="47.001" y2="47.001"/><linearGradient id="lg2"><stop offset="0" stop-color="#eaf6ff"/><stop offset=".5213" stop-color="#d8ecfe"/><stop offset="1" stop-color="#b3dafe"/></linearGradient><linearGradient id="SVGID_3_" gradientUnits="userSpaceOnUse" x1="65" x2="532.239" xlink:href="#lg2" y1="282.775" y2="282.775"/><linearGradient id="lg3"><stop offset="0" stop-color="#d8ecfe"/><stop offset=".5667" stop-color="#b3dafe"/><stop offset=".9955" stop-color="#8ac9fe"/></linearGradient><linearGradient id="SVGID_4_" gradientUnits="userSpaceOnUse" x1="184" x2="372.664" xlink:href="#lg3" y1="432.327" y2="432.327"/><linearGradient id="lg4"><stop offset="0" stop-color="#fe646f"/><stop offset=".5213" stop-color="#e41f2d"/><stop offset="1" stop-color="#c41926"/></linearGradient><linearGradient id="SVGID_5_" gradientUnits="userSpaceOnUse" x1="56" x2="595.034" xlink:href="#lg4" y1="282.774" y2="282.774"/><linearGradient id="SVGID_6_" gradientUnits="userSpaceOnUse" x1="-21" x2="422.026" xlink:href="#lg4" y1="282.776" y2="282.776"/><linearGradient id="SVGID_7_" gradientUnits="userSpaceOnUse" x1="-2" x2="333.484" xlink:href="#lg2" y1="133.158" y2="133.158"/><linearGradient id="SVGID_8_" gradientUnits="userSpaceOnUse" x1="25.724" x2="331.482" xlink:href="#lg3" y1="133.157" y2="133.157"/><g><path d="m255 94c-32.102 0-63.111-6.627-92.166-19.699-28.059-12.624-52.865-30.576-73.729-53.359-4.662-5.091-4.314-12.998.777-17.661 5.092-4.662 12.998-4.314 17.661.777 18.555 20.261 40.608 36.224 65.549 47.444 25.808 11.611 53.366 17.498 81.908 17.498s56.101-5.887 81.909-17.498c24.939-11.22 46.993-27.183 65.548-47.444 4.664-5.092 12.571-5.437 17.661-.777 5.091 4.663 5.438 12.569.776 17.661-20.864 22.783-45.67 40.736-73.729 53.359-29.053 13.071-60.062 19.699-92.165 19.699z" fill="url(#SVGID_1_)"/><path d="m419.922 3.102c-5.138-4.511-13.058-3.834-17.684 1.2-1.247 1.357-2.504 2.696-3.788 4.008 1.49 4.22.67 9.1-2.57 12.63-20.86 22.78-45.67 40.74-73.73 53.36-4.08 1.83-8.19 3.54-12.34 5.12v-18.01c-17.7 5.04-36.04 7.59-54.81 7.59-4.19 0-8.36-.13-12.51-.38-24.09-1.47-47.38-7.22-69.4-17.12-5.81-2.61-11.46-5.48-16.94-8.61-18.08-10.27-34.37-23.29-48.61-38.83-4.66-5.09-12.57-5.44-17.66-.78-1.56 1.43-2.68 3.16-3.34 5.03 14.16 14.6 30.221 26.813 47.942 36.449 8.523 4.634 14.38 12.991 15.585 22.617l.093.744c4.14 2.19 8.37 4.25 12.67 6.18 25.27 11.37 52.02 17.86 79.67 19.36 4.15.23 8.31.34 12.5.34 18.7 0 37.03-2.25 54.81-6.71 12.75-3.2 25.23-7.53 37.36-12.99 28.05-12.62 52.86-30.58 73.72-53.36 4.73-5.155 4.311-13.203-.968-17.838z" fill="url(#SVGID_2_)"/><path d="m370.207 220.93-105.417-165.38-225.878 143.981 146.666 230.091c19.684 30.88 50.828 52.676 86.582 60.593l74.925 16.59c72.219 15.991 143.728-29.59 159.719-101.81 15.991-72.219-29.59-143.728-101.81-159.719-14.365-3.182-26.878-11.939-34.787-24.346z" fill="url(#SVGID_3_)"/><path d="m346.405 506.654c1.912-8.58 2.928-17.497 2.928-26.654 0-67.379-54.621-122-122-122-26.286 0-50.63 8.314-70.548 22.455 10.238-2.849 21.018-4.395 32.163-4.395 66.16 0 119.79 53.63 119.79 119.8 0 .819-.025 1.63-.041 2.444z" fill="url(#SVGID_4_)"/><path d="m510 375.9c0 9.59-1.04 19.34-3.2 29.09-15.99 72.22-87.5 117.81-159.72 101.81l-13.6-3.01c.18-2.62.27-5.26.27-7.93 0-66.17-53.63-119.8-119.79-119.8-19.53 0-37.97 4.67-54.26 12.97l-120.79-189.5 225.88-143.98 105.42 165.38c3.95 6.21 9.06 11.49 14.97 15.63s12.63 7.12 19.81 8.71c62.47 13.84 105.01 69.2 105.01 130.63z" fill="url(#SVGID_5_)"/><path d="m404.99 245.27c-7.18-1.59-13.9-4.57-19.81-8.71s-11.02-9.42-14.97-15.63l-63.16-99.08-42.24-66.27-.02-.03-.04.03-28.42 18.11-197.42 125.84 45.46 71.31c.46-.56.91-1.13 1.34-1.71 6.24-8.35 15.31-14.14 25.51-16.26 5.49-1.15 10.86-3.28 15.86-6.47s9.21-7.16 12.56-11.65c6.24-8.35 15.31-14.13 25.51-16.26 5.48-1.14 10.86-3.28 15.86-6.47s9.21-7.16 12.56-11.64c6.23-8.35 15.31-14.14 25.51-16.26 5.48-1.15 10.85-3.28 15.86-6.47 5-3.19 9.21-7.16 12.56-11.65 6.23-8.35 15.31-14.13 25.51-16.26.033-.007.066-.014.099-.021 6.143-1.294 12.458 1.212 15.832 6.506l41.248 64.705c3.95 6.21 9.06 11.49 14.97 15.63s12.63 7.12 19.81 8.71c62.47 13.84 105.01 69.2 105.01 130.63 0 9.59-1.04 19.34-3.2 29.09-12.31 55.61-57.53 95.42-110.65 103.5 69.05 10.45 135.35-34.3 150.67-103.5 2.16-9.75 3.2-19.5 3.2-29.09.001-61.43-42.539-116.79-105.009-130.63z" fill="url(#SVGID_6_)"/><path d="m238.688 23.594c-5.471 3.302-10.032 7.516-13.613 12.325-6.288 8.443-15.612 14.056-25.898 16.3-5.335 1.164-10.559 3.273-15.432 6.379-5.003 3.189-9.209 7.157-12.561 11.645-6.234 8.347-15.31 14.132-25.509 16.26-5.483 1.144-10.856 3.281-15.859 6.47s-9.209 7.157-12.56 11.645c-6.234 8.347-15.31 14.132-25.509 16.26-5.483 1.144-10.856 3.281-15.859 6.47-4.873 3.106-8.99 6.952-12.298 11.296-6.377 8.376-15.401 14.46-25.71 16.596-5.872 1.217-11.617 3.572-16.92 7.138-21.395 14.387-27.394 43.645-13.421 65.313 14.189 22.003 43.508 28.433 65.612 14.343 5.003-3.189 9.209-7.157 12.56-11.645 6.234-8.347 15.31-14.132 25.509-16.26 5.483-1.144 10.856-3.281 15.859-6.47s9.209-7.157 12.561-11.645c6.234-8.347 15.31-14.132 25.509-16.26 5.483-1.144 10.856-3.281 15.859-6.471 5.003-3.189 9.209-7.157 12.561-11.645 6.234-8.347 15.31-14.132 25.509-16.26 5.483-1.144 10.856-3.281 15.859-6.471 5.003-3.189 9.209-7.157 12.56-11.645 6.234-8.347 15.31-14.132 25.509-16.26 5.483-1.144 10.856-3.281 15.859-6.47 22.105-14.088 28.653-43.381 14.697-65.532-13.744-21.814-42.8-28.728-64.874-15.406z" fill="url(#SVGID_7_)"/><path d="m303.562 39c-12.829-20.363-39-27.736-60.381-17.79 8.125 3.723 15.288 9.738 20.361 17.79 13.956 22.152 7.408 51.444-14.697 65.534-5.003 3.189-10.376 5.327-15.859 6.47-10.199 2.128-19.275 7.913-25.509 16.26-3.352 4.488-7.557 8.456-12.56 11.645s-10.376 5.327-15.859 6.471c-10.199 2.127-19.274 7.912-25.509 16.26-3.352 4.488-7.557 8.456-12.561 11.645-5.003 3.189-10.376 5.327-15.859 6.471-10.199 2.127-19.274 7.913-25.509 16.26-3.352 4.488-7.557 8.456-12.561 11.645s-10.376 5.327-15.859 6.47c-10.199 2.128-19.275 7.913-25.509 16.26-3.352 4.488-7.557 8.456-12.56 11.645-1.816 1.158-3.685 2.163-5.587 3.047 14.232 6.576 31.405 6.006 45.607-3.047 5.003-3.189 9.209-7.157 12.56-11.645 6.234-8.347 15.31-14.132 25.509-16.26 5.483-1.144 10.856-3.281 15.859-6.47s9.209-7.157 12.561-11.645c6.234-8.347 15.31-14.132 25.509-16.26 5.483-1.144 10.856-3.281 15.859-6.471 5.003-3.189 9.209-7.157 12.561-11.645 6.234-8.347 15.31-14.132 25.509-16.26 5.483-1.144 10.856-3.281 15.859-6.471 5.003-3.189 9.209-7.157 12.56-11.645 6.234-8.347 15.31-14.132 25.509-16.26 5.483-1.144 10.856-3.281 15.859-6.47 22.105-14.091 28.653-43.383 14.697-65.534z" fill="url(#SVGID_8_)"/></g></svg>