<svg id="Capa_1" enable-background="new 0 0 510 510" height="512" viewBox="0 0 510 510" width="512" xmlns="http://www.w3.org/2000/svg" xmlns:xlink="http://www.w3.org/1999/xlink"><linearGradient id="lg1"><stop offset="0" stop-color="#eaf6ff"/><stop offset=".5213" stop-color="#d8ecfe"/><stop offset="1" stop-color="#b3dafe"/></linearGradient><linearGradient id="SVGID_1_" gradientTransform="matrix(1 0 0 -1 0 266.313)" gradientUnits="userSpaceOnUse" x1="114.953" x2="275.55" xlink:href="#lg1" y1="180.094" y2="180.094"/><linearGradient id="SVGID_2_" gradientTransform="matrix(1 0 0 -1 0 266.313)" gradientUnits="userSpaceOnUse" x1="121.471" x2="282.068" xlink:href="#lg1" y1="209.422" y2="209.422"/><linearGradient id="SVGID_3_" gradientTransform="matrix(1 0 0 -1 0 266.313)" gradientUnits="userSpaceOnUse" x1="127.444" x2="288.041" xlink:href="#lg1" y1="153.174" y2="153.174"/><linearGradient id="lg2"><stop offset="0" stop-color="#97d729"/><stop offset=".5652" stop-color="#02905d"/><stop offset=".9955" stop-color="#026841"/></linearGradient><linearGradient id="SVGID_4_" gradientUnits="userSpaceOnUse" x1="341.376" x2="507.056" xlink:href="#lg2" y1="270.957" y2="270.957"/><linearGradient id="SVGID_5_" gradientUnits="userSpaceOnUse" x1="317.875" x2="453.175" xlink:href="#lg2" y1="191.408" y2="191.408"/><linearGradient id="SVGID_6_" gradientUnits="userSpaceOnUse" x1="317.875" x2="453.175" xlink:href="#lg2" y1="314.678" y2="314.678"/><linearGradient id="lg3"><stop offset="0" stop-color="#fe646f"/><stop offset=".5213" stop-color="#e41f2d"/><stop offset="1" stop-color="#c41926"/></linearGradient><linearGradient id="SVGID_7_" gradientUnits="userSpaceOnUse" x1="42.875" x2="442.7" xlink:href="#lg3" y1="322.158" y2="322.158"/><linearGradient id="SVGID_8_" gradientUnits="userSpaceOnUse" x1="-213.125" x2="341.545" xlink:href="#lg3" y1="322.158" y2="322.158"/><linearGradient id="SVGID_9_" gradientUnits="userSpaceOnUse" x1="42.438" x2="500.209" xlink:href="#lg3" y1="134.315" y2="134.315"/><linearGradient id="SVGID_10_" gradientUnits="userSpaceOnUse" x1="115.542" x2="307.437" xlink:href="#lg3" y1="134.315" y2="134.315"/><linearGradient id="SVGID_11_" gradientUnits="userSpaceOnUse" x1="60" x2="298.537" xlink:href="#lg1" y1="342.098" y2="342.098"/><linearGradient id="SVGID_12_" gradientUnits="userSpaceOnUse" x1="60" x2="298.537" xlink:href="#lg1" y1="190.72" y2="190.72"/><linearGradient id="SVGID_13_" gradientUnits="userSpaceOnUse" x1="60" x2="298.537" xlink:href="#lg1" y1="219.82" y2="219.82"/><linearGradient id="SVGID_14_" gradientUnits="userSpaceOnUse" x1="60" x2="298.537" xlink:href="#lg1" y1="412.891" y2="412.891"/><linearGradient id="SVGID_15_" gradientUnits="userSpaceOnUse" x1="60" x2="298.537" xlink:href="#lg1" y1="286.87" y2="286.87"/><linearGradient id="SVGID_16_" gradientUnits="userSpaceOnUse" x1="60" x2="298.537" xlink:href="#lg1" y1="446.603" y2="446.603"/><g><g><path d="m157.069 86.633c-6.216 6.216-6.216 16.294 0 22.51 7.337 7.337 5.805 19.621-3.111 24.93l-13.876 8.264c-5.18 3.085-10.505-3.758-6.242-8.021 5.914-5.914 5.914-15.503 0-21.418l-4.301-4.301c-5.914-5.914-5.914-15.503 0-21.418l4.301-4.301c5.914-5.914 5.914-15.503 0-21.418-7.353-7.353-5.278-19.759 4.067-24.319l15.243-7.438c3.47-1.694 6.65 2.762 3.919 5.493-6.216 6.216-6.216 16.294 0 22.51l3.209 3.209c6.216 6.216 6.216 16.294 0 22.51z" fill="url(#SVGID_1_)"/><path d="m223.545 57.304c-6.216 6.216-6.216 16.294 0 22.51 7.337 7.337 5.805 19.621-3.111 24.93l-13.876 8.264c-5.18 3.085-10.505-3.758-6.242-8.021 5.914-5.914 5.914-15.503 0-21.418l-4.301-4.301c-5.914-5.914-5.914-15.503 0-21.418l4.301-4.301c5.914-5.914 5.914-15.503 0-21.418-7.353-7.353-5.278-19.759 4.067-24.319l15.243-7.439c3.47-1.694 6.65 2.763 3.919 5.493-6.216 6.216-6.216 16.294 0 22.51l3.209 3.209c6.216 6.216 6.216 16.294 0 22.51z" fill="url(#SVGID_2_)"/><path d="m285.986 87.834c6.216 6.216 6.216 16.294 0 22.51l-3.209 3.209c-6.216 6.216-6.216 16.294 0 22.51 7.337 7.337 5.805 19.621-3.111 24.93l-13.876 8.264c-5.18 3.085-10.505-3.758-6.242-8.021 5.914-5.914 5.914-15.503 0-21.418l-4.301-4.301c-5.914-5.914-5.914-15.503 0-21.418l4.301-4.301c5.914-5.914 5.914-15.503 0-21.418-7.353-7.353-5.278-19.759 4.067-24.319l15.243-7.438c3.47-1.694 6.65 2.762 3.919 5.493-6.216 6.216-6.216 16.294 0 22.51z" fill="url(#SVGID_3_)"/></g><g><path d="m427.63 363.007h-1.666c-28.849 0-52.543-22.5-54.455-50.873-1.38-20.487 13.643-38.189 34.175-38.448 19.052-.24 34.683 14.938 35.178 33.818.181 6.915-4.908 13.045-11.816 13.406-7.16.375-13.092-5.279-13.171-12.339-.058-5.141-4.016-9.563-9.149-9.871-5.642-.338-10.342 4.156-10.342 9.727 0 16.31 13.27 29.579 29.579 29.579h1.666c17.256 0 31.245-13.989 31.245-31.245v-44.204c0-32.392-26.259-58.65-58.65-58.65h-51.087c-6.882 0-12.786-5.384-12.913-12.265-.129-7.011 5.516-12.735 12.498-12.735h51.502c46.199 0 83.65 37.452 83.65 83.65v44.204c.001 31.064-25.18 56.246-56.244 56.246z" fill="url(#SVGID_4_)"/><g><path d="m348.725 178.908c-6.98 0-12.63 5.72-12.5 12.73.13 6.89 6.03 12.27 12.91 12.27h47.26v-25z" fill="url(#SVGID_5_)"/><path d="m371.505 312.138c1.2 17.66 10.83 33.05 24.89 42.15v-45.48c-.01-.13-.01-.25-.01-.38 0-.17 0-.33.01-.5v-32.86c-15.59 4.549-26.05 19.82-24.89 37.07z" fill="url(#SVGID_6_)"/></g><path d="m283.956 510h-152.16c-48.286 0-87.43-39.144-87.43-87.43v-288.255h327.02v288.255c-.001 48.286-39.144 87.43-87.43 87.43z" fill="url(#SVGID_7_)"/><path d="m371.385 134.318v288.25c0 48.286-39.144 87.43-87.43 87.43h-40.02c48.29 0 87.43-39.14 87.43-87.43v-154.5c0-50.882-41.248-92.13-92.13-92.13h-194.87v-41.62z" fill="url(#SVGID_8_)"/><g><path d="m373.585 150.356h-331.419c-8.859 0-16.041-7.182-16.041-16.041 0-8.859 7.182-16.041 16.041-16.041h331.419c8.859 0 16.041 7.182 16.041 16.041 0 8.859-7.182 16.041-16.041 16.041z" fill="url(#SVGID_9_)"/><path d="m373.585 118.274h-29.833c8.859 0 16.041 7.182 16.041 16.041 0 8.859-7.182 16.041-16.041 16.041h29.833c8.859 0 16.041-7.182 16.041-16.041 0-8.859-7.182-16.041-16.041-16.041z" fill="url(#SVGID_10_)"/></g></g><g><path d="m320.412 339.306c-6.017-3.579-11.053-8.633-14.613-14.663-1.259-2.133-4.34-2.133-5.599 0-3.56 6.03-8.595 11.083-14.613 14.663-2.116 1.259-2.116 4.323 0 5.582 6.017 3.58 11.053 8.633 14.613 14.663 1.259 2.133 4.34 2.133 5.599 0 3.56-6.03 8.595-11.083 14.613-14.663 2.117-1.258 2.117-4.323 0-5.582z" fill="url(#SVGID_11_)"/><path d="m331.598 187.929c-6.017-3.579-11.053-8.633-14.613-14.663-1.259-2.133-4.34-2.133-5.599 0-3.56 6.03-8.596 11.083-14.613 14.663-2.116 1.259-2.116 4.323 0 5.582 6.017 3.579 11.053 8.633 14.613 14.663 1.259 2.133 4.34 2.133 5.599 0 3.56-6.03 8.596-11.083 14.613-14.663 2.117-1.259 2.117-4.323 0-5.582z" fill="url(#SVGID_12_)"/><path d="m118.977 222.612c2.116-1.259 2.116-4.323 0-5.582-6.017-3.579-11.053-8.633-14.613-14.663-1.259-2.133-4.34-2.133-5.599 0-3.56 6.03-8.595 11.083-14.613 14.663-2.116 1.259-2.116 4.323 0 5.582 6.017 3.579 11.053 8.633 14.613 14.663 1.259 2.133 4.34 2.133 5.599 0 3.56-6.031 8.596-11.084 14.613-14.663z" fill="url(#SVGID_13_)"/><path d="m144.412 410.1c-6.017-3.579-11.053-8.633-14.613-14.663-1.259-2.133-4.34-2.133-5.599 0-3.56 6.03-8.595 11.083-14.613 14.663-2.116 1.259-2.116 4.323 0 5.582 6.017 3.58 11.053 8.633 14.613 14.663 1.259 2.133 4.34 2.133 5.599 0 3.56-6.03 8.595-11.083 14.613-14.663 2.117-1.259 2.117-4.323 0-5.582z" fill="url(#SVGID_14_)"/><path d="m267.621 282.313c-9.823-5.844-18.045-14.094-23.857-23.939-2.056-3.483-7.086-3.483-9.141 0-5.811 9.845-14.033 18.095-23.857 23.939-3.455 2.055-3.455 7.058 0 9.114 9.824 5.844 18.046 14.094 23.857 23.939 2.056 3.483 7.086 3.483 9.141 0 5.812-9.845 14.033-18.095 23.857-23.939 3.456-2.056 3.456-7.059 0-9.114z" fill="url(#SVGID_15_)"/><path d="m216.075 442.046c-9.824-5.844-18.045-14.094-23.857-23.939-2.056-3.483-7.086-3.483-9.142 0-5.812 9.845-14.033 18.095-23.857 23.939-3.455 2.055-3.455 7.058 0 9.114 9.823 5.844 18.045 14.094 23.857 23.939 2.056 3.483 7.086 3.483 9.142 0 5.812-9.845 14.033-18.095 23.857-23.939 3.456-2.056 3.456-7.059 0-9.114z" fill="url(#SVGID_16_)"/></g></g></svg>