<svg id="Capa_1" enable-background="new 0 0 510 510" height="512" viewBox="0 0 510 510" width="512" xmlns="http://www.w3.org/2000/svg" xmlns:xlink="http://www.w3.org/1999/xlink"><linearGradient id="lg1"><stop offset="0" stop-color="#fbc56d"/><stop offset=".5841" stop-color="#fe9738"/><stop offset=".9984" stop-color="#fb2b3a"/></linearGradient><linearGradient id="SVGID_1_" gradientUnits="userSpaceOnUse" x1="100.667" x2="398.667" xlink:href="#lg1" y1="405.108" y2="405.108"/><linearGradient id="SVGID_4_" gradientUnits="userSpaceOnUse" x1="12" x2="274.789" xlink:href="#lg1" y1="385.815" y2="385.815"/><linearGradient id="SVGID_5_" gradientUnits="userSpaceOnUse" x1="12" x2="274.789" xlink:href="#lg1" y1="386.64" y2="386.64"/><linearGradient id="lg2"><stop offset="0" stop-color="#fe646f"/><stop offset=".5213" stop-color="#e41f2d"/><stop offset="1" stop-color="#c41926"/></linearGradient><linearGradient id="SVGID_7_" gradientUnits="userSpaceOnUse" x1="1.333" x2="560.973" xlink:href="#lg2" y1="227.386" y2="227.386"/><linearGradient id="SVGID_8_" gradientUnits="userSpaceOnUse" x1="-109" x2="309.001" xlink:href="#lg2" y1="201.56" y2="201.56"/><linearGradient id="SVGID_9_" gradientUnits="userSpaceOnUse" x1="-109" x2="309.001" xlink:href="#lg2" y1="302.435" y2="302.435"/><linearGradient id="lg3"><stop offset="0" stop-color="#fef056"/><stop offset=".5213" stop-color="#f4d902"/><stop offset="1" stop-color="#fe9738"/></linearGradient><linearGradient id="SVGID_10_" gradientUnits="userSpaceOnUse" x1="0" x2="617.527" xlink:href="#lg3" y1="182.422" y2="182.422"/><linearGradient id="SVGID_11_" gradientUnits="userSpaceOnUse" x1="0" x2="559" xlink:href="#lg3" y1="412.482" y2="412.482"/><linearGradient id="SVGID_12_" gradientUnits="userSpaceOnUse" x1="-216" x2="419.177" xlink:href="#lg3" y1="399.21" y2="399.21"/><linearGradient id="SVGID_13_" gradientUnits="userSpaceOnUse" x1="-216" x2="419.177" xlink:href="#lg3" y1="412.482" y2="412.482"/><linearGradient id="SVGID_14_" gradientUnits="userSpaceOnUse" x1="-40.948" x2="389.659" xlink:href="#lg3" y1="169.15" y2="169.15"/><linearGradient id="SVGID_15_" gradientUnits="userSpaceOnUse" x1="-40.948" x2="389.659" xlink:href="#lg3" y1="266.822" y2="266.822"/><linearGradient id="SVGID_16_" gradientUnits="userSpaceOnUse" x1="-40.948" x2="389.659" xlink:href="#lg3" y1="257.47" y2="257.47"/><linearGradient id="lg4"><stop offset="0" stop-color="#eaf6ff"/><stop offset=".5213" stop-color="#d8ecfe"/><stop offset="1" stop-color="#b3dafe"/></linearGradient><linearGradient id="SVGID_17_" gradientUnits="userSpaceOnUse" x1="65.672" x2="304.209" xlink:href="#lg4" y1="339.903" y2="339.903"/><linearGradient id="SVGID_18_" gradientUnits="userSpaceOnUse" x1="7.7" x2="246.238" xlink:href="#lg4" y1="138.012" y2="138.012"/><linearGradient id="SVGID_19_" gradientUnits="userSpaceOnUse" x1="32.014" x2="270.552" xlink:href="#lg4" y1="288.168" y2="288.168"/><linearGradient id="SVGID_20_" gradientUnits="userSpaceOnUse" x1="32.014" x2="270.552" xlink:href="#lg4" y1="321.88" y2="321.88"/><g><g fill="url(#SVGID_1_)"><path d="m95.64 359.36h26.544v91.495h-26.544z"/><path d="m212.095 359.36h26.544v91.495h-26.544z"/><path d="m328.551 359.36h26.544v91.495h-26.544z"/></g><g><path d="m95.64 405.02c8.45 3.31 17.33 5.76 26.54 7.25v-52.91h-26.54z" fill="url(#SVGID_4_)"/><g fill="url(#SVGID_5_)"><path d="m212.1 359.36h26.54v54.56h-26.54z"/><path d="m328.55 359.36v54.56h6.55c7.19 0 13.98-1.69 19.99-4.7v-49.86z"/></g></g><path d="m459.611 215.16h-70.188c-19.855 0-35.95 16.095-35.95 35.95 0 26.88-21.791 48.671-48.671 48.671-23.125 0-43.058-16.272-47.686-38.929l-3.923-19.203c-20.995-102.775-111.408-176.585-216.304-176.585h-23.617v194.977c0 71.613 58.054 129.666 129.666 129.666h192.162c24.711 0 44.743-20.032 44.743-44.743 0-24.711 20.032-44.743 44.743-44.743h24.198c26.478 0 47.943-21.465 47.943-47.943.001-20.5-16.617-37.118-37.116-37.118z" fill="url(#SVGID_7_)"/><g><path d="m345.71 277.47c-1.87 2.91-4.05 5.61-6.49 8.05-7.57 7.57-17.63 12.66-28.84 13.94-1.83.21-3.69.32-5.58.32-7.08 0-13.86-1.53-19.99-4.3-3.89-1.75-7.51-4-10.79-6.67-8.45-6.9-14.59-16.63-16.9-27.96l-3.93-19.2c-20.99-102.78-111.4-176.59-216.3-176.59h-23.62v38.29h2.61c47.68 0 94.28 16.6 131.22 46.76 33.87 27.65 58.21 65.54 69.37 107.66l.63 3.08c.38 1.84.85 3.65 1.43 5.4.23 1.02.44 2.04.65 3.06l3.92 19.21c5.87 28.71 31.39 49.54 60.69 49.54 33.71 0 61.21-27.05 61.92-60.59z" fill="url(#SVGID_8_)"/><path d="m485.86 226.03c-6.72-6.71-16-10.87-26.25-10.87h-70.19c-10.7 0-20.3 4.67-26.89 12.09-5.63 6.34-9.06 14.7-9.06 23.86 0 2.96-.26 5.86-.77 8.68 4.08-3.94 9.62-6.35 15.71-6.35h58.76c.11 0 .221 0 .331.002 18.144.168 26.538 22.876 12.91 34.855-2.479 2.179-5.185 4.106-8.078 5.742-6.491 3.669-14.536-1.133-14.484-8.589 0-.02 0-.03 0-.03 0-7.33-6.94-13.27-14.27-13.27s-13.28 5.94-13.28 13.27v3.3c0 3.96.47 7.81 1.36 11.5h-7.09c-12.35 0-23.54 5.01-31.64 13.1-8.1 8.1-13.11 19.28-13.11 31.64 0 24.71-20.03 44.75-44.74 44.75h40.043c24.832 0 44.502-20.316 44.719-45.148.106-12.202 5.095-23.229 13.108-31.242.84-.84 1.72-1.65 2.63-2.42 6.74-5.75 15.22-9.53 24.53-10.46 1.47-.14 2.97-.22 4.48-.22h24.19c3.88 0 7.66-.46 11.27-1.34 11.66-2.8 21.65-9.86 28.25-19.45 5.32-7.72 8.43-17.07 8.43-27.15.001-10.25-4.149-19.53-10.869-26.25z" fill="url(#SVGID_9_)"/></g><path d="m460.658 313.052c-27.207 0-49.342-22.135-49.342-49.342v-3.301c0-7.33 5.942-13.272 13.272-13.272s13.272 5.942 13.272 13.272v3.301c0 12.571 10.228 22.799 22.799 22.799s22.799-10.228 22.799-22.799c0-19.453-15.826-35.278-35.278-35.278h-58.754c-12.505 0-22.678 10.174-22.678 22.678 0 34.155-27.787 61.942-61.942 61.942-29.302 0-54.825-20.837-60.69-49.545l-3.922-19.204c-9.544-46.718-35.143-89.053-72.079-119.208-36.941-30.153-83.543-46.76-131.225-46.76h-23.618c-7.33 0-13.272-5.942-13.272-13.272s5.942-13.272 13.272-13.272h23.618c53.782 0 106.345 18.731 148.008 52.742 41.662 34.012 70.535 81.763 81.3 134.457l3.922 19.204c3.351 16.406 17.938 28.314 34.683 28.314 19.519 0 35.399-15.88 35.399-35.399 0-27.141 22.081-49.222 49.222-49.222h58.754c34.089 0 61.822 27.733 61.822 61.822 0 27.208-22.135 49.343-49.342 49.343z" fill="url(#SVGID_10_)"/><path d="m464.273 458.208h-418.546c-25.214 0-45.727-20.513-45.727-45.726 0-25.214 20.513-45.727 45.727-45.727 7.33 0 13.272 5.942 13.272 13.272s-5.942 13.272-13.272 13.272c-10.577 0-19.183 8.606-19.183 19.183s8.606 19.183 19.183 19.183h418.546c10.577 0 19.183-8.606 19.183-19.183s-8.606-19.183-19.183-19.183c-7.33 0-13.272-5.942-13.272-13.272s5.942-13.272 13.272-13.272c25.214 0 45.727 20.513 45.727 45.727 0 25.213-20.513 45.726-45.727 45.726z" fill="url(#SVGID_11_)"/><g><path d="m45.727 366.755c-5.817 0-11.378 1.104-16.5 3.093 2.909 2.435 4.761 6.089 4.761 10.179 0 7.33-5.942 13.272-13.272 13.272-10.577 0-19.183 8.606-19.183 19.183s8.606 19.183 19.183 19.183h25.011c-10.577 0-19.183-8.606-19.183-19.183s8.606-19.183 19.183-19.183c7.33 0 13.272-5.942 13.272-13.272s-5.942-13.272-13.272-13.272z" fill="url(#SVGID_12_)"/><path d="m464.273 366.755c-3.24 0-6.206 1.164-8.51 3.093 17.081 6.634 29.227 23.237 29.227 42.634 0 25.214-20.513 45.727-45.727 45.727h25.011c25.214 0 45.727-20.513 45.727-45.727-.001-25.214-20.514-45.727-45.728-45.727z" fill="url(#SVGID_13_)"/></g><g><path d="m270.12 258.195-3.922-19.204c-10.765-52.694-39.637-100.444-81.3-134.457-41.663-34.011-94.226-52.742-148.008-52.742h-23.618c-.083 0-.164.011-.247.012 53.382.264 105.495 18.96 146.861 52.73 41.662 34.012 70.535 81.763 81.3 134.457l3.923 19.204c3.351 16.406 17.938 28.314 34.683 28.314 4.411 0 8.633-.818 12.531-2.298-11.098-4.216-19.725-13.883-22.203-26.016z" fill="url(#SVGID_14_)"/><path d="m437.859 263.71v-3.301c0-7.33-5.942-13.272-13.272-13.272-5.781 0-10.686 3.703-12.505 8.862.487 1.382.766 2.862.766 4.41v3.301c0 12.571 10.228 22.799 22.799 22.799 4.615 0 8.912-1.383 12.506-3.75-6.195-4.081-10.294-11.094-10.294-19.049z" fill="url(#SVGID_15_)"/><path d="m448.178 201.887h-25.011c34.089 0 61.822 27.733 61.822 61.822 0 22.888-15.666 42.182-36.837 47.733 3.996 1.048 8.186 1.61 12.505 1.61 27.208 0 49.343-22.135 49.343-49.342 0-34.089-27.733-61.823-61.822-61.823z" fill="url(#SVGID_16_)"/></g><g><path d="m326.084 337.112c-6.017-3.579-11.053-8.633-14.613-14.663-1.259-2.133-4.34-2.133-5.599 0-3.56 6.03-8.595 11.083-14.613 14.663-2.116 1.259-2.116 4.323 0 5.582 6.017 3.58 11.053 8.633 14.613 14.663 1.259 2.133 4.34 2.133 5.599 0 3.56-6.03 8.595-11.083 14.613-14.663 2.116-1.259 2.116-4.323 0-5.582z" fill="url(#SVGID_17_)"/><path d="m66.677 140.803c2.116-1.259 2.116-4.323 0-5.582-6.017-3.579-11.053-8.632-14.613-14.663-1.259-2.133-4.34-2.133-5.599 0-3.56 6.03-8.595 11.083-14.613 14.663-2.116 1.259-2.116 4.323 0 5.582 6.017 3.579 11.053 8.633 14.613 14.663 1.259 2.133 4.34 2.133 5.599 0 3.56-6.03 8.596-11.083 14.613-14.663z" fill="url(#SVGID_18_)"/><path d="m116.426 285.377c-6.017-3.579-11.053-8.633-14.613-14.663-1.259-2.133-4.34-2.133-5.599 0-3.56 6.03-8.595 11.083-14.613 14.663-2.116 1.259-2.116 4.323 0 5.582 6.017 3.58 11.053 8.633 14.613 14.663 1.259 2.133 4.34 2.133 5.599 0 3.56-6.03 8.595-11.083 14.613-14.663 2.117-1.259 2.117-4.323 0-5.582z" fill="url(#SVGID_19_)"/><path d="m188.09 317.323c-9.824-5.844-18.045-14.094-23.857-23.939-2.056-3.483-7.086-3.483-9.142 0-5.812 9.845-14.033 18.095-23.857 23.939-3.455 2.055-3.455 7.058 0 9.114 9.823 5.844 18.045 14.094 23.857 23.939 2.056 3.483 7.086 3.483 9.142 0 5.812-9.845 14.033-18.095 23.857-23.939 3.455-2.055 3.455-7.058 0-9.114z" fill="url(#SVGID_20_)"/></g></g></svg>