<svg id="Capa_1" enable-background="new 0 0 510 510" height="512" viewBox="0 0 510 510" width="512" xmlns="http://www.w3.org/2000/svg" xmlns:xlink="http://www.w3.org/1999/xlink"><linearGradient id="lg1"><stop offset="0" stop-color="#eaf6ff"/><stop offset=".5213" stop-color="#d8ecfe"/><stop offset="1" stop-color="#b3dafe"/></linearGradient><linearGradient id="SVGID_1_" gradientUnits="userSpaceOnUse" x1="150.972" x2="359.028" xlink:href="#lg1" y1="104.028" y2="104.028"/><linearGradient id="lg2"><stop offset="0" stop-color="#d8ecfe"/><stop offset=".5667" stop-color="#b3dafe"/><stop offset=".9955" stop-color="#8ac9fe"/></linearGradient><linearGradient id="SVGID_2_" gradientUnits="userSpaceOnUse" x1="137.07" x2="396.574" xlink:href="#lg2" y1="104.028" y2="104.028"/><linearGradient id="lg3"><stop offset="0" stop-color="#766e6e"/><stop offset=".1978" stop-color="#676464"/><stop offset=".4488" stop-color="#5a5a5a"/><stop offset=".482" stop-color="#575858"/><stop offset=".799" stop-color="#404d4d"/><stop offset="1" stop-color="#384949"/></linearGradient><linearGradient id="SVGID_3_" gradientUnits="userSpaceOnUse" x1="354.999" x2="517.443" xlink:href="#lg3" y1="223.308" y2="223.308"/><linearGradient id="SVGID_4_" gradientUnits="userSpaceOnUse" x1="281.332" x2="451.438" xlink:href="#lg3" y1="262.891" y2="262.891"/><linearGradient id="SVGID_5_" gradientUnits="userSpaceOnUse" x1="281.332" x2="451.438" xlink:href="#lg3" y1="199.966" y2="199.966"/><linearGradient id="SVGID_6_" gradientUnits="userSpaceOnUse" x1="8.001" x2="148.358" xlink:href="#lg3" y1="223.308" y2="223.308"/><linearGradient id="SVGID_7_" gradientUnits="userSpaceOnUse" x1="-48.665" x2="111.071" xlink:href="#lg3" y1="223.305" y2="223.305"/><linearGradient id="SVGID_8_" gradientUnits="userSpaceOnUse" x1="76.748" x2="433.252" xlink:href="#lg1" y1="353.901" y2="353.901"/><linearGradient id="SVGID_9_" gradientUnits="userSpaceOnUse" x1="171" x2="433.256" xlink:href="#lg2" y1="353.903" y2="353.903"/><linearGradient id="lg4"><stop offset="0" stop-color="#fe646f"/><stop offset=".5213" stop-color="#e41f2d"/><stop offset="1" stop-color="#c41926"/></linearGradient><linearGradient id="SVGID_10_" gradientUnits="userSpaceOnUse" x1="271.5" x2="340.089" xlink:href="#lg4" y1="231.922" y2="231.922"/><linearGradient id="SVGID_11_" gradientUnits="userSpaceOnUse" x1="210" x2="317.466" xlink:href="#lg4" y1="231.922" y2="231.922"/><linearGradient id="SVGID_12_" gradientUnits="userSpaceOnUse" x1="210.5" x2="401.513" xlink:href="#lg4" y1="197.803" y2="197.803"/><linearGradient id="SVGID_13_" gradientUnits="userSpaceOnUse" x1="160.5" x2="357.001" xlink:href="#lg4" y1="197.803" y2="197.803"/><linearGradient id="SVGID_14_" gradientUnits="userSpaceOnUse" x1="200.725" x2="251.382" xlink:href="#lg3" y1="68.556" y2="68.556"/><linearGradient id="SVGID_15_" gradientUnits="userSpaceOnUse" x1="274.727" x2="325.384" xlink:href="#lg3" y1="68.556" y2="68.556"/><linearGradient id="lg5"><stop offset="0" stop-color="#fbc56d"/><stop offset=".5841" stop-color="#fe9738"/><stop offset=".9984" stop-color="#fb2b3a"/></linearGradient><linearGradient id="SVGID_16_" gradientUnits="userSpaceOnUse" x1="219.527" x2="309.384" xlink:href="#lg5" y1="122.694" y2="122.694"/><linearGradient id="SVGID_17_" gradientUnits="userSpaceOnUse" x1="175" x2="308.947" xlink:href="#lg5" y1="125.508" y2="125.508"/><linearGradient id="SVGID_18_" gradientUnits="userSpaceOnUse" x1="175" x2="308.947" xlink:href="#lg5" y1="122.694" y2="122.694"/><linearGradient id="SVGID_19_" gradientUnits="userSpaceOnUse" x1="237.726" x2="288.383" xlink:href="#lg3" y1="273.666" y2="273.666"/><linearGradient id="SVGID_20_" gradientUnits="userSpaceOnUse" x1="237.726" x2="288.383" xlink:href="#lg3" y1="332.776" y2="332.776"/><linearGradient id="SVGID_21_" gradientUnits="userSpaceOnUse" x1="237.726" x2="288.383" xlink:href="#lg3" y1="391.887" y2="391.887"/><linearGradient id="SVGID_22_" gradientUnits="userSpaceOnUse" x1="237.726" x2="288.383" xlink:href="#lg3" y1="450.998" y2="450.998"/><g><g><circle cx="255" cy="104.028" fill="url(#SVGID_1_)" r="104.028"/><path d="m255 0c-6.845 0-13.534.668-20.01 1.93 47.878 9.33 84.018 51.49 84.018 102.098s-36.14 92.768-84.018 102.098c6.476 1.262 13.165 1.93 20.01 1.93 57.453 0 104.028-46.575 104.028-104.028s-46.575-104.028-104.028-104.028z" fill="url(#SVGID_2_)"/></g><g><path d="m443.253 149.975c6.903 0 12.5 5.597 12.5 12.5v24.069l12.173-12.173c4.881-4.881 12.796-4.881 17.678 0 4.881 4.881 4.881 12.796 0 17.678l-12.173 12.173h24.069c6.903 0 12.5 5.597 12.5 12.5 0 6.904-5.596 12.5-12.5 12.5h-49.069l-63.758 63.758c-4.881 4.881-12.796 4.881-17.678 0-4.881-4.881-4.881-12.796 0-17.678l63.758-63.758v-49.069c0-6.904 5.596-12.5 12.5-12.5z" fill="url(#SVGID_3_)"/><g><path d="m413.178 239.464-49.046 49.046c.763 2.049 2.063 3.943 3.948 5.436 5.031 3.987 12.336 3.292 16.875-1.247l63.476-63.477h-10.527c-9.274 0-18.168 3.684-24.726 10.242z" fill="url(#SVGID_4_)"/><path d="m497.086 204.222h-23.655l11.88-11.88c4.867-4.867 5.234-12.848.458-17.803-4.866-5.048-12.906-5.104-17.842-.168l-4.47 4.47c1.655 4.443.708 9.636-2.863 13.207-4.492 4.492-1.311 12.173 5.042 12.173h6.439c6.883 0 12.787 5.385 12.912 12.267.128 7.011-5.516 12.733-12.498 12.733h25.011c6.982 0 12.626-5.723 12.498-12.733-.126-6.881-6.03-12.266-12.912-12.266z" fill="url(#SVGID_5_)"/></g></g><g><path d="m66.747 149.975c-6.903 0-12.5 5.597-12.5 12.5v24.069l-12.173-12.173c-4.881-4.881-12.796-4.881-17.678 0-4.881 4.881-4.881 12.796 0 17.678l12.173 12.173h-24.069c-6.903 0-12.5 5.597-12.5 12.5 0 6.904 5.596 12.5 12.5 12.5h49.069l63.758 63.758c4.881 4.881 12.796 4.881 17.678 0 4.881-4.881 4.881-12.796 0-17.678l-63.758-63.758v-49.069c0-6.904-5.596-12.5-12.5-12.5z" fill="url(#SVGID_6_)"/><path d="m143.001 292.98c-4.88 4.88-12.79 4.88-17.67 0l-31.72-31.72s0 0 0-.001c2.695-3.129 2.551-7.789-.363-10.703l-27.394-27.394c-7.442-7.442-11.622-17.535-11.622-28.059v-8.584l.02-23.633c0-6.88 5.379-12.784 12.258-12.915 7.011-.133 12.742 5.517 12.742 12.498v49.07l63.75 63.76c4.889 4.881 4.889 12.801-.001 17.681z" fill="url(#SVGID_7_)"/></g><g><path d="m160.891 510h188.22c16.622 0 32.434-7.332 43.057-20.117 25.364-30.526 40.733-69.65 41.078-112.359.793-98.106-78.861-179.029-176.968-179.717-99.032-.694-179.53 79.376-179.53 178.247 0 43.249 15.407 82.895 41.028 113.761 10.637 12.815 26.461 20.185 43.115 20.185z" fill="url(#SVGID_8_)"/><path d="m433.25 377.52c-.35 42.71-15.72 81.84-41.08 112.36-10.63 12.79-26.44 20.12-43.06 20.12h-40.02c16.62 0 32.43-7.33 43.06-20.12 25.36-30.52 41.08-69.649 41.08-112.36 0-51.394-19.94-88.233-39.431-111.965-12.393-15.091-36.849-6.402-36.849 13.125 0 6.622-5.368 11.99-11.99 11.99h-16.25c-6.622 0-11.99-5.368-11.99-11.99v-12.338c0-17.668-14.323-31.992-31.992-31.992h-61.738c-6.622 0-11.99-5.368-11.99-11.99 0-2.224 1.263-4.245 3.245-5.254 18.597-9.466 39.072-15.758 60.715-18.186 6.99-.78 14.11-1.16 21.32-1.11 23.24.16 45.43 4.82 65.77 13.15 65.55 26.82 111.8 91.69 111.2 166.56z" fill="url(#SVGID_9_)"/></g><path d="m317.523 208.828v46.188c0 5.879-4.766 10.645-10.645 10.645h-14.423c-5.879 0-10.645-4.766-10.645-10.645v-46.188c0-5.879 4.766-10.645 10.645-10.645h14.423c5.879 0 10.645 4.766 10.645 10.645z" fill="url(#SVGID_10_)"/><path d="m306.878 198.183h-14.423c-1.929 0-3.733.521-5.294 1.418 3.195 1.837 5.351 5.277 5.351 9.227v46.188c0 3.95-2.156 7.39-5.351 9.227 1.561.897 3.365 1.418 5.294 1.418h14.423c5.879 0 10.645-4.766 10.645-10.645v-46.188c0-5.879-4.766-10.645-10.645-10.645z" fill="url(#SVGID_11_)"/><g><path d="m311.407 215.659h-112.814c-5.879 0-10.645-4.766-10.645-10.645v-14.423c0-5.879 4.766-10.645 10.645-10.645h112.813c5.879 0 10.645 4.766 10.645 10.645v14.423c.001 5.879-4.765 10.645-10.644 10.645z" fill="url(#SVGID_12_)"/><path d="m311.407 179.946h-40.02c5.879 0 10.645 4.766 10.645 10.645v14.423c0 5.879-4.766 10.645-10.645 10.645h40.02c5.879 0 10.645-4.766 10.645-10.645v-14.423c0-5.879-4.766-10.645-10.645-10.645z" fill="url(#SVGID_13_)"/></g><g><circle cx="217.999" cy="68.556" fill="url(#SVGID_14_)" r="18.666"/><circle cx="292.001" cy="68.556" fill="url(#SVGID_15_)" r="18.666"/></g><g><circle cx="255" cy="122.694" fill="url(#SVGID_16_)" r="35.473"/><g><path d="m263.025 125.508c0-4.432-3.593-8.025-8.025-8.025s-8.025 3.593-8.025 8.025c0 4.432 3.593 8.025 8.025 8.025s8.025-3.593 8.025-8.025z" fill="url(#SVGID_17_)"/><path d="m255 87.221c-3.296 0-6.483.459-9.511 1.3 3.555.987 6.881 2.519 9.893 4.491-.34-.012-.679-.026-1.021-.026-12.895 0-23.897 8.259-27.996 19.765-1.727 4.849 1.922 9.943 7.07 9.943 3.116 0 6.007-1.883 7.032-4.826 2.002-5.747 9.113-9.882 15.533-9.882 9 0 15.451 6.598 15.451 14.707 0 16.295-10.992 30.014-25.962 34.172 3.028.841 6.215 1.3 9.511 1.3 19.591 0 35.473-15.882 35.473-35.473 0-19.589-15.882-35.471-35.473-35.471z" fill="url(#SVGID_18_)"/></g></g><g><circle cx="255" cy="273.666" fill="url(#SVGID_19_)" r="18.666"/><circle cx="255" cy="332.776" fill="url(#SVGID_20_)" r="18.666"/><circle cx="255" cy="391.887" fill="url(#SVGID_21_)" r="18.666"/><circle cx="255" cy="450.998" fill="url(#SVGID_22_)" r="18.666"/></g></g></svg>