<svg id="Capa_1" enable-background="new 0 0 510 510" height="512" viewBox="0 0 510 510" width="512" xmlns="http://www.w3.org/2000/svg" xmlns:xlink="http://www.w3.org/1999/xlink"><linearGradient id="lg1"><stop offset="0" stop-color="#97d729"/><stop offset=".5652" stop-color="#02905d"/><stop offset=".9955" stop-color="#026841"/></linearGradient><linearGradient id="SVGID_1_" gradientUnits="userSpaceOnUse" x1="10.009" x2="678.011" xlink:href="#lg1" y1="439.686" y2="439.686"/><linearGradient id="SVGID_2_" gradientUnits="userSpaceOnUse" x1="-194" x2="515.722" xlink:href="#lg1" y1="450.711" y2="450.711"/><linearGradient id="SVGID_3_" gradientUnits="userSpaceOnUse" x1="29.627" x2="364.678" xlink:href="#lg1" y1="459.158" y2="459.158"/><linearGradient id="lg2"><stop offset="0" stop-color="#fe646f"/><stop offset=".5213" stop-color="#e41f2d"/><stop offset="1" stop-color="#c41926"/></linearGradient><linearGradient id="SVGID_4_" gradientUnits="userSpaceOnUse" x1="45.427" x2="549.559" xlink:href="#lg2" y1="435.872" y2="435.872"/><linearGradient id="SVGID_5_" gradientUnits="userSpaceOnUse" x1="-30.667" x2="417.338" xlink:href="#lg2" y1="435.87" y2="435.87"/><linearGradient id="lg3"><stop offset="0" stop-color="#ffdcbd"/><stop offset=".0028" stop-color="#ffdcbd"/><stop offset="1" stop-color="#ffa9b1"/></linearGradient><linearGradient id="SVGID_6_" gradientTransform="matrix(1 .89 0 1 0 -552.014)" gradientUnits="userSpaceOnUse" x1="52" x2="145.904" xlink:href="#lg3" y1="742.984" y2="742.984"/><linearGradient id="SVGID_7_" gradientUnits="userSpaceOnUse" x1="378.713" x2="455.085" xlink:href="#lg3" y1="293.587" y2="293.587"/><linearGradient id="SVGID_8_" gradientUnits="userSpaceOnUse" x1="113.504" x2="396.496" xlink:href="#lg3" y1="293.595" y2="293.595"/><linearGradient id="SVGID_9_" gradientUnits="userSpaceOnUse" x1="113.5" x2="396.5" y1="293.594" y2="293.594"><stop offset="0" stop-color="#ffc2b5"/><stop offset="1" stop-color="#ff89a8"/></linearGradient><linearGradient id="lg4"><stop offset="0" stop-color="#766e6e"/><stop offset=".1978" stop-color="#676464"/><stop offset=".4488" stop-color="#5a5a5a"/><stop offset=".482" stop-color="#575858"/><stop offset=".799" stop-color="#404d4d"/><stop offset="1" stop-color="#384949"/></linearGradient><linearGradient id="SVGID_10_" gradientUnits="userSpaceOnUse" x1="145" x2="230.006" xlink:href="#lg4" y1="310.713" y2="310.713"/><linearGradient id="SVGID_11_" gradientUnits="userSpaceOnUse" x1="258.667" x2="341.067" xlink:href="#lg4" y1="310.713" y2="310.713"/><linearGradient id="SVGID_12_" gradientUnits="userSpaceOnUse" x1="196" x2="269.482" y1="390.887" y2="390.887"><stop offset="0" stop-color="#ffc2b5"/><stop offset=".2441" stop-color="#ffbbb3"/><stop offset=".6097" stop-color="#ffa6af"/><stop offset="1" stop-color="#ff89a8"/></linearGradient><linearGradient id="SVGID_13_" gradientUnits="userSpaceOnUse" x1="60.273" x2="544.828" xlink:href="#lg1" y1="119.333" y2="119.333"/><linearGradient id="SVGID_14_" gradientUnits="userSpaceOnUse" x1="-26" x2="444.612" xlink:href="#lg1" y1="119.335" y2="119.335"/><linearGradient id="SVGID_15_" gradientUnits="userSpaceOnUse" x1="73.966" x2="440.167" y1="204.922" y2="204.922"><stop offset="0" stop-color="#eaf6ff"/><stop offset=".5213" stop-color="#d8ecfe"/><stop offset="1" stop-color="#b3dafe"/></linearGradient><linearGradient id="SVGID_16_" gradientUnits="userSpaceOnUse" x1="204.667" x2="466.031" y1="204.925" y2="204.925"><stop offset="0" stop-color="#d8ecfe"/><stop offset=".5667" stop-color="#b3dafe"/><stop offset=".9955" stop-color="#8ac9fe"/></linearGradient><g><path d="m483.247 510c28.016 0 37.138-54.973 12.223-73.685-54.017-40.569-141.601-66.942-240.47-66.942s-186.454 26.373-240.47 66.942c-24.915 18.712-15.794 73.685 12.223 73.685z" fill="url(#SVGID_1_)"/><path d="m350.217 395.22c-37.828-5.065-152.606-5.065-190.435 0-66.198 8.863-117.84 31.619-115.345 50.827s58.182 27.593 124.38 18.73c.768-.103 1.533-.21 2.297-.316 5.297 12.366 18.025 31.177 35.164 45.539h97.441c17.139-14.362 29.867-33.173 35.164-45.539.765.107 1.529.213 2.297.316 66.198 8.863 121.885.478 124.38-18.73 2.497-19.207-49.144-41.963-115.343-50.827z" fill="url(#SVGID_2_)"/><path d="m495.47 436.315c-13.741-10.32-29.665-19.716-47.384-27.998 2.511 2.232 4.982 4.487 7.364 6.791 24.915 24.097 15.794 94.892-12.223 94.892h40.02c28.017 0 37.138-54.973 12.223-73.685z" fill="url(#SVGID_3_)"/><path d="m350.217 370.209c-37.828-5.065-152.606-5.065-190.434 0-66.198 8.863-117.84 31.619-115.345 50.827s58.182 27.593 124.38 18.73c.768-.103 1.533-.21 2.297-.316 9.587 22.381 43.508 65.883 83.885 65.883s74.297-43.502 83.884-65.883c.765.107 1.529.213 2.297.316 66.198 8.863 121.885.478 124.38-18.73 2.496-19.207-49.145-41.963-115.344-50.827z" fill="url(#SVGID_4_)"/><path d="m465.56 421.04c-2.1 16.23-42.22 24.73-94.57 21.63 31.58-2.18 53.02-9.88 54.55-21.63.457-3.51-.893-7.138-3.809-10.777-12.248-15.291-36.105-13.285-46.442 3.358-4.097 6.596-8.721 12.83-13.814 18.645-5.018 5.73-12.627 8.526-20.176 7.52-.04-.005-.079-.011-.119-.016-.77-.11-1.53-.21-2.3-.32-.48 1.13-1.02 2.3-1.64 3.53-2.73 5.57-6.71 12.09-11.71 18.77-15.69 20.99-41.43 43.58-70.53 43.58-6.89 0-13.59-1.26-20.01-3.48 8.227-2.828 16.001-7.21 23.137-12.474 3.809-2.81 1.753-8.821-2.98-8.816-.049 0-.098 0-.146 0-17.738 0-34.713-3.264-50.361-9.227-14.926-5.688-27.096-17.034-33.438-31.695-.027-.063-.054-.125-.081-.188-.77.11-1.53.21-2.3.32-.04.005-.079.011-.119.016-7.544 1.005-15.152-1.782-20.167-7.507-13.601-15.525-23.857-34.048-29.654-54.449 12.66-3.09 26.43-5.68 40.9-7.62 15.59-2.09 44.25-3.31 75.21-3.68 44.16-.53 92.99.7 115.23 3.68 14.47 1.94 28.24 4.53 40.9 7.62 45.279 11.02 76.389 28.2 74.439 43.21z" fill="url(#SVGID_5_)"/><g><path d="m145.904 364.744-22.191-14.527c-27.751-18.168-49.747-46.396-59.775-79.241l-11.379-37.27c-2.954-9.675 6.332-14.92 15.044-8.354l78.3 44.313v95.079z" fill="url(#SVGID_6_)"/><path d="m364.096 364.744 22.191-14.527c27.751-18.168 49.747-46.396 59.775-79.241l11.379-37.27c2.954-9.675-6.332-14.92-15.044-8.354l-78.3 44.313v95.079z" fill="url(#SVGID_7_)"/></g><g><g><path d="m255 455.554c-78.146 0-141.496-63.35-141.496-141.496v-40.925c0-78.146 63.35-141.496 141.496-141.496 78.146 0 141.496 63.35 141.496 141.496v40.925c0 78.146-63.35 141.496-141.496 141.496z" fill="url(#SVGID_8_)"/><path d="m396.5 273.129v40.93c0 78.14-63.35 141.49-141.5 141.49-6.79 0-13.47-.48-20.01-1.4 68.67-9.72 121.49-68.74 121.49-140.09v-25.434c0-9.814-9.772-16.8-18.965-13.365-.062.023-.123.046-.185.069-5.33 2.02-11.12 3.13-17.17 3.13-6.04 0-11.83-1.11-17.17-3.13-9.92-3.76-20.89-3.76-30.82 0-5.34 2.02-11.12 3.13-17.17 3.13s-11.83-1.11-17.17-3.13c-9.93-3.76-20.9-3.76-30.82 0-5.34 2.02-11.13 3.13-17.17 3.13-6.05 0-11.84-1.11-17.17-3.13-9.93-3.76-20.9-3.76-30.83 0-5.34 2.02-11.12 3.13-17.17 3.13-3.84 0-7.58-.45-11.17-1.3v-4.03c0-33.18 11.42-63.69 30.55-87.82 22-27.76 54.2-47.07 90.94-52.27 6.54-.92 13.22-1.4 20.01-1.4 39.08 0 74.45 15.84 100.06 41.44 3.86 3.86 7.5 7.95 10.89 12.23 19.13 24.13 30.55 54.64 30.55 87.82z" fill="url(#SVGID_9_)"/><g><path d="m198.634 327.83c-14.741 0-26.734-11.993-26.734-26.733 0-4.142 3.358-7.5 7.5-7.5s7.5 3.358 7.5 7.5c0 6.47 5.264 11.733 11.734 11.733s11.733-5.264 11.733-11.733c0-4.142 3.358-7.5 7.5-7.5s7.5 3.358 7.5 7.5c0 14.74-11.992 26.733-26.733 26.733z" fill="url(#SVGID_10_)"/><path d="m311.366 327.83c-14.741 0-26.733-11.993-26.733-26.733 0-4.142 3.358-7.5 7.5-7.5s7.5 3.358 7.5 7.5c0 6.47 5.264 11.733 11.733 11.733 6.47 0 11.734-5.264 11.734-11.733 0-4.142 3.358-7.5 7.5-7.5s7.5 3.358 7.5 7.5c0 14.74-11.993 26.733-26.734 26.733z" fill="url(#SVGID_11_)"/></g><path d="m255 408.032c-16.543 0-32.568-7.74-45.121-21.794-2.76-3.089-2.492-7.83.597-10.589 3.088-2.759 7.83-2.493 10.589.597 9.81 10.981 21.544 16.786 33.935 16.786s24.125-5.805 33.935-16.786c2.759-3.09 7.501-3.356 10.589-.597 3.089 2.759 3.357 7.5.597 10.589-12.553 14.054-28.578 21.794-45.121 21.794z" fill="url(#SVGID_12_)"/></g></g><path d="m309.747 25.937-27.067-17.799c-16.507-10.857-38.847-10.851-55.347.016l-27.219 17.927c-64.893 42.742-103.298 111.063-103.298 183.776 0 8.61 2.854 16.793 7.897 23.66s295.531 6.867 300.574 0 7.897-15.05 7.897-23.66v-.053c0-72.772-38.458-141.131-103.437-183.867z" fill="url(#SVGID_13_)"/><path d="m309.748 25.937-27.068-17.799c-14.063-9.25-32.359-10.609-47.672-4.09 2.652 1.129 5.217 2.488 7.652 4.09l27.067 17.798c64.978 42.736 103.437 111.095 103.437 183.866v.053c0 8.61-2.854 16.793-7.897 23.66-2.293 3.123-63.614 4.825-130.277 5.108 79.933.339 167.547-1.364 170.297-5.108 5.043-6.867 7.897-15.049 7.897-23.66v-.053c0-72.77-38.458-141.129-103.436-183.865z" fill="url(#SVGID_14_)"/><g><g><path d="m386.545 156.416c-6.509-.159-12.736.964-18.448 3.134-10.027 3.811-21.113 3.526-31.18-.178-5.222-1.921-10.865-2.971-16.754-2.971-6.046 0-11.833 1.106-17.17 3.126-9.928 3.758-20.895 3.758-30.824 0-5.338-2.02-11.125-3.126-17.17-3.126s-11.833 1.106-17.17 3.126c-9.928 3.758-20.895 3.758-30.824 0-5.338-2.02-11.125-3.126-17.17-3.126-5.889 0-11.532 1.049-16.754 2.971-10.067 3.704-21.153 3.989-31.18.178-5.711-2.171-11.939-3.294-18.448-3.134-26.263.643-47.442 22.497-47.304 48.768.141 26.677 21.81 48.26 48.521 48.26 6.046 0 11.833-1.106 17.17-3.126 9.928-3.758 20.895-3.758 30.824 0 5.338 2.02 11.125 3.126 17.17 3.126 6.046 0 11.833-1.106 17.17-3.126 9.928-3.758 20.895-3.758 30.823 0 5.338 2.02 11.125 3.126 17.17 3.126 6.046 0 11.833-1.106 17.17-3.126 9.928-3.758 20.895-3.758 30.823 0 5.338 2.02 11.125 3.126 17.17 3.126 6.046 0 11.833-1.106 17.17-3.126 9.928-3.758 20.895-3.758 30.824 0 5.338 2.02 11.125 3.126 17.17 3.126 26.71 0 48.38-21.583 48.521-48.26.143-26.271-21.036-48.125-47.3-48.768z" fill="url(#SVGID_15_)"/></g><path d="m386.55 156.418c-6.51-.16-12.74.96-18.45 3.13-1.03.39-2.08.74-3.13 1.05 17.06 7.63 28.97 24.87 28.86 44.59-.1 19.66-11.9 36.56-28.8 44.08 1.06.31 2.1.66 3.13 1.05 5.34 2.02 11.12 3.13 17.17 3.13 26.71 0 48.38-21.59 48.52-48.26.14-26.27-21.04-48.13-47.3-48.77z" fill="url(#SVGID_16_)"/></g></g></svg>