<svg id="Capa_1" enable-background="new 0 0 510 510" height="512" viewBox="0 0 510 510" width="512" xmlns="http://www.w3.org/2000/svg" xmlns:xlink="http://www.w3.org/1999/xlink"><linearGradient id="lg1"><stop offset="0" stop-color="#97d729"/><stop offset=".5652" stop-color="#02905d"/><stop offset=".9955" stop-color="#026841"/></linearGradient><linearGradient id="SVGID_1_" gradientUnits="userSpaceOnUse" x1="94.859" x2="278.89" xlink:href="#lg1" y1="275.586" y2="275.586"/><linearGradient id="SVGID_2_" gradientUnits="userSpaceOnUse" x1="-24.125" x2="274.756" xlink:href="#lg1" y1="275.585" y2="275.585"/><linearGradient id="SVGID_3_" gradientUnits="userSpaceOnUse" x1="156.743" x2="240.645" y1="23.795" y2="23.795"><stop offset="0" stop-color="#ffdcbd"/><stop offset=".0028" stop-color="#ffdcbd"/><stop offset="1" stop-color="#ffa9b1"/></linearGradient><linearGradient id="SVGID_4_" gradientUnits="userSpaceOnUse" x1="122.875" x2="241.702" y1="23.795" y2="23.795"><stop offset="0" stop-color="#ffc2b5"/><stop offset="1" stop-color="#ff89a8"/></linearGradient><linearGradient id="SVGID_5_" gradientUnits="userSpaceOnUse" x1="131.755" x2="263.983" xlink:href="#lg1" y1="47.591" y2="47.591"/><linearGradient id="SVGID_6_" gradientUnits="userSpaceOnUse" x1="78.375" x2="251.006" xlink:href="#lg1" y1="47.591" y2="47.591"/><linearGradient id="lg2"><stop offset="0" stop-color="#fef056"/><stop offset=".5213" stop-color="#f4d902"/><stop offset="1" stop-color="#fe9738"/></linearGradient><linearGradient id="SVGID_7_" gradientUnits="userSpaceOnUse" x1="107.208" x2="267.879" xlink:href="#lg2" y1="344.822" y2="344.822"/><linearGradient id="SVGID_8_" gradientUnits="userSpaceOnUse" x1="66.541" x2="227.876" xlink:href="#lg2" y1="344.822" y2="344.822"/><linearGradient id="SVGID_9_" gradientUnits="userSpaceOnUse" x1="244.733" x2="439.527" y1="354.835" y2="354.835"><stop offset="0" stop-color="#eaf6ff"/><stop offset=".5213" stop-color="#d8ecfe"/><stop offset="1" stop-color="#b3dafe"/></linearGradient><linearGradient id="SVGID_10_" gradientUnits="userSpaceOnUse" x1="273.897" x2="466.407" y1="354.835" y2="354.835"><stop offset="0" stop-color="#d8ecfe"/><stop offset=".5667" stop-color="#b3dafe"/><stop offset=".9955" stop-color="#8ac9fe"/></linearGradient><linearGradient id="lg3"><stop offset="0" stop-color="#fe646f"/><stop offset=".5213" stop-color="#e41f2d"/><stop offset="1" stop-color="#c41926"/></linearGradient><linearGradient id="SVGID_11_" gradientUnits="userSpaceOnUse" x1="281.302" x2="408.464" xlink:href="#lg3" y1="298.857" y2="298.857"/><linearGradient id="SVGID_12_" gradientUnits="userSpaceOnUse" x1="185.897" x2="380.9" xlink:href="#lg3" y1="298.857" y2="298.857"/><g><g><path d="m225.875 125.173v-84h-78v84.001c0 10.366-3.391 20.448-9.654 28.707l-20.06 26.451c-15.118 19.934-23.301 44.266-23.301 69.284v39.617l13.016 55.589-13.017 55.588v84.527c0 13.842 11.221 25.062 25.062 25.062h133.906c13.842 0 25.062-11.221 25.062-25.062v-235.321c0-25.018-8.183-49.35-23.301-69.284l-20.06-26.451c-6.263-8.26-9.653-18.342-9.653-28.708z" fill="url(#SVGID_1_)"/><path d="m255.585 180.33-20.06-26.45c-6.26-8.26-9.65-18.34-9.65-28.71v-84h-78v47.47h12.345c14.158 0 25.635 11.477 25.635 25.635v10.895c0 10.37 3.39 20.45 9.65 28.71l20.06 26.45c4.742 6.254 8.801 12.94 12.141 19.943-11.747 2.867-19.279 15.551-14.567 27.394.16.402.333.803.518 1.203 6.33 13.66 9.71 28.66 9.71 44.03v3.79c0 17.5 5.773 33.644 15.509 46.651v161.599c0 13.84-11.23 25.06-25.07 25.06h40.03c13.84 0 25.06-11.22 25.06-25.06v-235.32c-.001-25.02-8.191-49.35-23.311-69.29z" fill="url(#SVGID_2_)"/><path d="m210.216 47.591h-46.682c-1.49 0-2.762-1.078-3.007-2.548l-4.972-29.861c-1.323-7.948 4.806-15.182 12.863-15.182h36.913c8.057 0 14.187 7.234 12.863 15.182l-4.972 29.861c-.244 1.47-1.516 2.548-3.006 2.548z" fill="url(#SVGID_3_)"/><path d="m205.331 0h-25.011c8.057 0 14.187 7.234 12.863 15.182l-4.972 29.861c-.245 1.47-1.516 2.548-3.007 2.548h25.011c1.49 0 2.762-1.078 3.007-2.548l4.972-29.861c1.324-7.948-4.806-15.182-12.863-15.182z" fill="url(#SVGID_4_)"/><g><path d="m231.389 63.632h-89.028c-8.859 0-16.041-7.182-16.041-16.041 0-8.859 7.182-16.041 16.041-16.041h89.028c8.859 0 16.041 7.182 16.041 16.041 0 8.859-7.182 16.041-16.041 16.041z" fill="url(#SVGID_5_)"/><path d="m231.389 31.549h-29.833c8.859 0 16.041 7.182 16.041 16.041 0 8.859-7.182 16.041-16.041 16.041h29.833c8.859 0 16.041-7.182 16.041-16.041 0-8.859-7.182-16.041-16.041-16.041z" fill="url(#SVGID_6_)"/></g><path d="m206.205 400.41h-111.346v-111.177h111.346c6.721 0 12.17 5.449 12.17 12.17v86.837c0 6.721-5.449 12.17-12.17 12.17z" fill="url(#SVGID_7_)"/><path d="m206.205 289.233h-40.02c6.721 0 12.17 5.449 12.17 12.17v86.837c0 6.721-5.449 12.17-12.17 12.17h40.02c6.721 0 12.17-5.449 12.17-12.17v-86.837c0-6.721-5.449-12.17-12.17-12.17z" fill="url(#SVGID_8_)"/></g><g><path d="m413.087 229.77c-5.74 12.73-8.79 26.66-8.79 40.92v6c0 30.84-17.91 57.49-43.89 70.14-13.34 6.49-22.01 19.79-22.01 34.62v78.5c0 9.925 8.045 17.97 17.97 17.97h14.04c4.43 0 8.44 1.8 11.35 4.7 2.929 2.929 4.736 6.991 4.699 11.475-.073 8.874-7.581 15.905-16.456 15.905h-88.614c-4.43 0-8.44-1.8-11.35-4.7-2.929-2.929-4.736-6.991-4.699-11.475.073-8.875 7.581-15.905 16.456-15.905h13.634c9.21 0 16.81-6.94 17.85-15.88 0-.02.01-.05.01-.07.03-.32.06-.64.08-.97.02-.34.03-.7.03-1.05v-78.94c0-.49-.01-.98-.03-1.47s-.05-.97-.09-1.45c0-.05-.01-.09-.01-.14-1.09-13.47-9.32-25.33-21.58-31.42-25.67-12.75-43.31-39.23-43.31-69.84v-3.79c0-15.37-3.38-30.37-9.71-44.03-.185-.4-.358-.801-.518-1.203-5.352-13.452 5.09-27.997 19.568-27.997h136.666c9.673 0 18.32 6.602 20.286 16.073.932 4.494.524 9.357-1.582 14.027z" fill="url(#SVGID_9_)"/><path d="m413.087 229.77c-5.74 12.73-8.79 26.66-8.79 40.92v6c0 30.84-17.91 57.49-43.89 70.14-13.34 6.49-22.01 19.79-22.01 34.62v78.5c0 9.925 8.045 17.97 17.97 17.97h14.04c4.43 0 8.44 1.8 11.35 4.7 2.929 2.929 4.736 6.991 4.699 11.475-.073 8.874-7.581 15.905-16.456 15.905h-28.274c4.43 0 8.44-1.8 11.34-4.7 2.927-2.917 4.721-6.957 4.7-11.417-.042-8.906-7.604-15.963-16.511-15.963h-13.569c-1.49 0-2.94-.18-4.32-.53-6.81-1.68-10.92-8.38-10.09-15.35 0-.02.01-.05.01-.07.03-.32.06-.64.08-.97.02-.34.03-.7.03-1.05v-78.94c0-.49-.01-.98-.03-1.47-.02-.48-.05-.97-.09-1.45 0-.05-.01-.09-.01-.14-.74-9.85 2.85-19.65 10.44-25.96 2.42-2.01 5.11-3.75 8.02-5.16 25.98-12.65 43.88-39.3 43.88-70.14v-6c0-14.26 3.06-28.19 8.79-40.92 5.35-11.86-.26-24.97-10.95-30.1h20.935c9.673 0 18.32 6.602 20.286 16.073.934 4.494.526 9.357-1.58 14.027z" fill="url(#SVGID_10_)"/><path d="m272.318 258.307c-6.112 0-11.105 4.998-10.964 11.108.015.658.023 1.317.023 1.977v3.151c0 35.823 29.04 64.862 64.862 64.862 35.823 0 64.862-29.04 64.862-64.862v-4.992c0-.038 0-.076 0-.114.009-6.121-4.843-11.132-10.965-11.132h-107.818z" fill="url(#SVGID_11_)"/><path d="m380.137 258.307h-25.011c6.121 0 10.974 5.01 10.965 11.131v.114 4.992c0 31.543-22.52 57.816-52.357 63.646 4.048.791 8.226 1.217 12.505 1.217 35.823 0 64.862-29.04 64.862-64.862v-4.992c0-.038 0-.076 0-.114.01-6.121-4.842-11.132-10.964-11.132z" fill="url(#SVGID_12_)"/></g></g></svg>