<svg id="Capa_1" enable-background="new 0 0 510 510" height="512" viewBox="0 0 510 510" width="512" xmlns="http://www.w3.org/2000/svg" xmlns:xlink="http://www.w3.org/1999/xlink"><linearGradient id="lg1"><stop offset="0" stop-color="#fe646f"/><stop offset=".5213" stop-color="#e41f2d"/><stop offset="1" stop-color="#c41926"/></linearGradient><linearGradient id="SVGID_1_" gradientUnits="userSpaceOnUse" x1="334" x2="565.225" xlink:href="#lg1" y1="85.72" y2="85.72"/><linearGradient id="SVGID_2_" gradientUnits="userSpaceOnUse" x1="172" x2="479.026" xlink:href="#lg1" y1="138.591" y2="138.591"/><linearGradient id="SVGID_3_" gradientUnits="userSpaceOnUse" x1="-18" x2="251.047" xlink:href="#lg1" y1="424.29" y2="424.29"/><linearGradient id="SVGID_4_" gradientUnits="userSpaceOnUse" x1="-93.5" x2="128.5" xlink:href="#lg1" y1="424.294" y2="424.294"/><linearGradient id="lg2"><stop offset="0" stop-color="#97d729"/><stop offset=".5652" stop-color="#02905d"/><stop offset=".9955" stop-color="#026841"/></linearGradient><linearGradient id="SVGID_5_" gradientUnits="userSpaceOnUse" x1="79.202" x2="437.315" xlink:href="#lg2" y1="256.097" y2="256.097"/><linearGradient id="SVGID_6_" gradientUnits="userSpaceOnUse" x1="-198.36" x2="443.783" xlink:href="#lg2" y1="256.094" y2="256.094"/><linearGradient id="SVGID_7_" gradientUnits="userSpaceOnUse" x1="94.125" x2="516.204" xlink:href="#lg1" y1="284.045" y2="284.045"/><linearGradient id="SVGID_8_" gradientUnits="userSpaceOnUse" x1="94.125" x2="516.204" xlink:href="#lg1" y1="253.582" y2="253.582"/><linearGradient id="SVGID_9_" gradientUnits="userSpaceOnUse" x1="94.125" x2="516.204" xlink:href="#lg1" y1="234.955" y2="234.955"/><linearGradient id="SVGID_10_" gradientUnits="userSpaceOnUse" x1="-48.667" x2="282.006" xlink:href="#lg1" y1="403.115" y2="403.115"/><linearGradient id="SVGID_11_" gradientUnits="userSpaceOnUse" x1="-48.667" x2="282.006" xlink:href="#lg1" y1="87.513" y2="87.513"/><linearGradient id="SVGID_12_" gradientUnits="userSpaceOnUse" x1="-48.667" x2="282.006" xlink:href="#lg1" y1="318.98" y2="318.98"/><linearGradient id="SVGID_13_" gradientUnits="userSpaceOnUse" x1="-48.667" x2="282.006" xlink:href="#lg1" y1="145.68" y2="145.68"/><g><g><path d="m507.783 132.99c-2.634-5.7-6.306-11.048-11.008-15.75-4.822-4.822-10.322-8.565-16.197-11.216-10.92-4.917-19.677-13.674-24.602-24.602-2.65-5.875-6.386-11.367-11.216-16.197s-10.321-8.565-16.197-11.216c-10.928-4.925-19.685-13.682-24.602-24.602-2.65-5.875-6.394-11.375-11.216-16.197-4.702-4.702-10.05-8.374-15.75-11.008-.079-.036-.158-.073-.237-.11-12.211-5.713-26.587.732-30.189 13.723-7.891 28.457-10.072 58.389-5.935 87.998l.543 3.88 3.448 24.634c2.411 17.29 15.75 30.629 33.024 33.056l24.674 3.456 3.664.519c29.674 4.175 59.67 1.999 88.193-5.918 12.991-3.606 19.442-17.981 13.722-30.19-.039-.086-.079-.173-.119-.26z" fill="url(#SVGID_1_)"/><path d="m507.905 133.249c-.042-.085-.085-.17-.12-.262-2.638-5.692-6.307-11.045-11.01-15.747-4.822-4.822-10.324-8.57-16.193-11.215-.205-.092-.417-.191-.622-.283 5.084 12.028-1.365 25.873-14.079 29.394-28.525 7.92-58.52 10.097-88.19 5.926l-3.663-.523-24.678-3.451c-1.344-.184-2.666-.445-3.953-.771 3.755 15.323 16.334 26.828 32.251 29.069l24.678 3.451 3.663.523c29.67 4.172 59.666 1.994 88.19-5.926 12.99-3.597 19.446-17.973 13.726-30.185z" fill="url(#SVGID_2_)"/></g><g><path d="m133.251 507.904c12.209 5.72 26.585-.731 30.19-13.722 7.917-28.523 10.093-58.519 5.918-88.193l-.519-3.664-3.456-24.674c-2.427-17.274-15.766-30.613-33.056-33.024l-24.634-3.448-3.88-.543c-29.609-4.137-59.54-1.957-87.998 5.935-12.991 3.601-19.436 17.977-13.723 30.188.037.079.074.158.11.237 2.634 5.7 6.306 11.048 11.008 15.75 4.821 4.821 10.322 8.565 16.197 11.216 10.92 4.917 19.677 13.674 24.602 24.602 2.65 5.875 6.386 11.367 11.216 16.197s10.322 8.565 16.197 11.216c10.928 4.925 19.685 13.682 24.602 24.602 2.65 5.875 6.394 11.375 11.216 16.197 4.702 4.702 10.05 8.374 15.75 11.008.086.039.173.079.26.12z" fill="url(#SVGID_3_)"/></g><path d="m171.397 439.043c.168-11.002-.49-22.05-2.039-33.055l-.519-3.664-3.456-24.674c-2.427-17.274-15.766-30.613-33.056-33.024l-24.634-3.448-3.88-.543c-11.321-1.582-22.689-2.233-34.003-2.001 13.429 24.014 29.856 45.152 49.206 63.352 16.034 15.081 22.831 37.592 17.437 58.933-.419 1.659-.858 3.313-1.316 4.962-3.521 12.714-17.367 19.163-29.394 14.079.092.205.191.417.283.622 2.645 5.869 6.392 11.37 11.215 16.193 4.702 4.702 10.055 8.372 15.747 11.01.092.035.177.078.262.12 12.212 5.72 26.587-.735 30.186-13.725 4.88-17.575 7.568-35.709 7.946-53.981.001 0 .002.001.003.002.001-.047.001-.094.002-.141.004-.216.018-.432.021-.649.002-.112-.006-.242-.011-.368z" fill="url(#SVGID_4_)"/><path d="m428.526 196.438c-25.455-48.142-62.515-85.206-110.664-110.665-21.368-11.298-47.198-10.273-67.429 2.955-64.14 41.938-117.661 95.458-159.6 159.6-13.228 20.231-14.253 46.061-2.955 67.429 25.458 48.149 62.523 85.21 110.665 110.664 21.368 11.298 47.197 10.272 67.427-2.956 64.142-41.939 117.662-95.46 159.6-159.6 13.228-20.23 14.254-46.059 2.956-67.427z" fill="url(#SVGID_5_)"/><path d="m428.526 196.438c-25.455-48.142-62.515-85.206-110.664-110.665-16.004-8.462-34.511-10.01-51.294-4.697 3.854 1.211 7.63 2.77 11.274 4.697 48.149 25.458 85.21 62.523 110.664 110.665 11.298 21.368 10.272 47.197-2.956 67.427-41.938 64.14-95.458 117.661-159.6 159.6-5.078 3.321-10.51 5.871-16.135 7.652 18.744 5.888 39.374 3.32 56.155-7.652 64.142-41.939 117.662-95.46 159.6-159.6 13.228-20.23 14.254-46.059 2.956-67.427z" fill="url(#SVGID_6_)"/><g><path d="m181.74 141.71c-19.07 17.27-36.86 35.84-53.34 55.69-1.63 18.72-2.47 38.01-2.47 57.6 0 45.68 4.56 89.73 13.14 128.85 17.42 16.62 37.23 30.81 59.4 42.53-17.76-45.48-27.54-106.32-27.54-171.38 0-40.26 3.74-78.9 10.81-113.29z" fill="url(#SVGID_7_)"/><path d="m253.12 87.07c-15.28 47.58-23.59 106.28-23.59 167.93 0 64.38 9.06 125.53 25.65 174.17 3.73-1.55 7.34-3.45 10.79-5.7 9.67-6.32 19.1-12.91 28.28-19.76-12.79-42.15-19.72-93.93-19.72-148.71 0-65.26 9.84-126.27 27.7-171.8.4-1.02.8-2.03 1.21-3.03-16.88-4.42-35.01-2.1-50.32 6.9z" fill="url(#SVGID_8_)"/><path d="m389.19 140.44c-11.49-12.54-24.22-23.89-38.14-34.01-11.66 43.74-17.92 95.04-17.92 148.57 0 37.91 3.14 74.7 9.11 108.48 13.88-13.05 27.05-26.82 39.51-41.3-2.39-21.53-3.62-44.09-3.62-67.18 0-40.76 3.83-79.85 11.06-114.56z" fill="url(#SVGID_9_)"/></g><g><path d="m248.61 407.84c2.03 7.34 4.23 14.46 6.57 21.33 3.73-1.55 7.34-3.45 10.79-5.7 9.67-6.32 19.1-12.91 28.28-19.76-2.58-8.51-4.92-17.41-7.01-26.65-12.36 10.81-25.24 21.07-38.63 30.78z" fill="url(#SVGID_10_)"/><path d="m266.59 81.08c3.85 1.2 7.61 2.77 11.25 4.69 6.67 3.53 13.13 7.28 19.37 11.26 1.59-4.75 3.27-9.37 5.02-13.83.4-1.02.8-2.03 1.21-3.03-12.14-3.18-24.93-2.87-36.85.91z" fill="url(#SVGID_11_)"/><path d="m337.1 327.49c1.36 12.3 3.08 24.33 5.14 35.99 13.88-13.05 27.05-26.82 39.51-41.3-1.71-15.43-2.83-31.39-3.32-47.7-12.77 18.61-26.56 36.29-41.33 53.01z" fill="url(#SVGID_12_)"/><path d="m351.05 106.43c-2.48 9.3-4.72 18.95-6.7 28.89 14.36 14.79 26.94 31.33 37.72 49.61 1.79-15.44 4.17-30.32 7.12-44.49-11.49-12.54-24.22-23.89-38.14-34.01z" fill="url(#SVGID_13_)"/></g></g></svg>