<svg id="Capa_1" enable-background="new 0 0 510 510" height="512" viewBox="0 0 510 510" width="512" xmlns="http://www.w3.org/2000/svg" xmlns:xlink="http://www.w3.org/1999/xlink"><linearGradient id="lg1"><stop offset="0" stop-color="#766e6e"/><stop offset=".1978" stop-color="#676464"/><stop offset=".4488" stop-color="#5a5a5a"/><stop offset=".482" stop-color="#575858"/><stop offset=".799" stop-color="#404d4d"/><stop offset="1" stop-color="#384949"/></linearGradient><linearGradient id="SVGID_1_" gradientTransform="matrix(1 0 0 -1 0 350.714)" gradientUnits="userSpaceOnUse" x1="112.659" x2="509.493" xlink:href="#lg1" y1="86.012" y2="86.012"/><linearGradient id="SVGID_2_" gradientUnits="userSpaceOnUse" x1="-172" x2="420.143" xlink:href="#lg1" y1="264.704" y2="264.704"/><linearGradient id="lg2"><stop offset="0" stop-color="#fe646f"/><stop offset=".5213" stop-color="#e41f2d"/><stop offset="1" stop-color="#c41926"/></linearGradient><linearGradient id="SVGID_3_" gradientUnits="userSpaceOnUse" x1="10.009" x2="678.011" xlink:href="#lg2" y1="439.686" y2="439.686"/><linearGradient id="SVGID_4_" gradientUnits="userSpaceOnUse" x1="-39.75" x2="192.927" xlink:href="#lg2" y1="438.878" y2="438.878"/><linearGradient id="SVGID_5_" gradientUnits="userSpaceOnUse" x1="-151" x2="375" xlink:href="#lg2" y1="410.445" y2="410.445"/><linearGradient id="lg3"><stop offset="0" stop-color="#fef056"/><stop offset=".5213" stop-color="#f4d902"/><stop offset="1" stop-color="#fe9738"/></linearGradient><linearGradient id="SVGID_6_" gradientUnits="userSpaceOnUse" x1="219" x2="266.518" xlink:href="#lg3" y1="440" y2="440"/><linearGradient id="SVGID_7_" gradientUnits="userSpaceOnUse" x1="250" x2="297.518" xlink:href="#lg3" y1="440" y2="440"/><linearGradient id="SVGID_8_" gradientUnits="userSpaceOnUse" x1="-300.71" x2="264.744" xlink:href="#lg2" y1="455.991" y2="455.991"/><linearGradient id="SVGID_9_" gradientUnits="userSpaceOnUse" x1="-2.302" x2="127.3" xlink:href="#lg3" y1="416.867" y2="416.867"/><linearGradient id="SVGID_10_" gradientUnits="userSpaceOnUse" x1="-73" x2="106.003" xlink:href="#lg3" y1="416.867" y2="416.867"/><linearGradient id="SVGID_11_" gradientUnits="userSpaceOnUse" x1="398.879" x2="511.568" xlink:href="#lg3" y1="416.867" y2="416.867"/><linearGradient id="SVGID_12_" gradientUnits="userSpaceOnUse" x1="292" x2="481.13" xlink:href="#lg3" y1="416.867" y2="416.867"/><linearGradient id="SVGID_13_" gradientUnits="userSpaceOnUse" x1="132.373" x2="377.627" y1="264.548" y2="264.548"><stop offset="0" stop-color="#ffdcbd"/><stop offset=".0028" stop-color="#ffdcbd"/><stop offset="1" stop-color="#ffa9b1"/></linearGradient><linearGradient id="SVGID_14_" gradientUnits="userSpaceOnUse" x1="132.37" x2="377.63" y1="264.55" y2="264.55"><stop offset="0" stop-color="#ffc2b5"/><stop offset="1" stop-color="#ff89a8"/></linearGradient><linearGradient id="SVGID_15_" gradientUnits="userSpaceOnUse" x1="145" x2="230.006" xlink:href="#lg1" y1="280.626" y2="280.626"/><linearGradient id="SVGID_16_" gradientUnits="userSpaceOnUse" x1="258.667" x2="341.067" xlink:href="#lg1" y1="280.626" y2="280.626"/><linearGradient id="SVGID_17_" gradientUnits="userSpaceOnUse" x1="91.599" x2="499.622" xlink:href="#lg1" y1="101.697" y2="101.697"/><linearGradient id="SVGID_18_" gradientUnits="userSpaceOnUse" x1="-4.397" x2="400.861" xlink:href="#lg1" y1="101.697" y2="101.697"/><linearGradient id="SVGID_19_" gradientUnits="userSpaceOnUse" x1="18.102" x2="541.611" xlink:href="#lg3" y1="180.024" y2="180.024"/><linearGradient id="SVGID_20_" gradientUnits="userSpaceOnUse" x1="-19.396" x2="358.803" xlink:href="#lg3" y1="180.024" y2="180.024"/><linearGradient id="SVGID_21_" gradientUnits="userSpaceOnUse" x1="197.337" x2="326.755" xlink:href="#lg2" y1="403.979" y2="403.979"/><linearGradient id="SVGID_22_" gradientUnits="userSpaceOnUse" x1="137" x2="290.734" xlink:href="#lg2" y1="397.586" y2="397.586"/><linearGradient id="SVGID_23_" gradientUnits="userSpaceOnUse" x1="137" x2="290.734" xlink:href="#lg2" y1="403.979" y2="403.979"/><linearGradient id="lg4"><stop offset="0" stop-color="#eaf6ff"/><stop offset=".5213" stop-color="#d8ecfe"/><stop offset="1" stop-color="#b3dafe"/></linearGradient><linearGradient id="SVGID_24_" gradientUnits="userSpaceOnUse" x1="197.337" x2="326.755" xlink:href="#lg4" y1="438.72" y2="438.72"/><linearGradient id="SVGID_25_" gradientTransform="matrix(1 0 0 -1 0 830.701)" gradientUnits="userSpaceOnUse" x1="197.333" x2="326.759" xlink:href="#lg4" y1="455.499" y2="455.499"/><linearGradient id="lg5"><stop offset="0" stop-color="#d8ecfe"/><stop offset=".5667" stop-color="#b3dafe"/><stop offset=".9955" stop-color="#8ac9fe"/></linearGradient><linearGradient id="SVGID_26_" gradientUnits="userSpaceOnUse" x1="197.337" x2="326.755" xlink:href="#lg5" y1="375.202" y2="375.202"/><linearGradient id="SVGID_27_" gradientUnits="userSpaceOnUse" x1="163.634" x2="255" xlink:href="#lg1" y1="356.322" y2="356.322"/><linearGradient id="SVGID_28_" gradientUnits="userSpaceOnUse" x1="243.333" x2="348.477" xlink:href="#lg1" y1="356.322" y2="356.322"/><linearGradient id="SVGID_29_" gradientUnits="userSpaceOnUse" x1="179.5" x2="345.008" xlink:href="#lg3" y1="480.824" y2="480.824"/><linearGradient id="SVGID_30_" gradientUnits="userSpaceOnUse" x1="164.419" x2="215.075" xlink:href="#lg3" y1="480.824" y2="480.824"/><linearGradient id="SVGID_31_" gradientUnits="userSpaceOnUse" x1="311.034" x2="361.69" xlink:href="#lg3" y1="480.824" y2="480.824"/><linearGradient id="SVGID_32_" gradientUnits="userSpaceOnUse" x1="215.111" x2="316.155" xlink:href="#lg3" y1="73.714" y2="73.714"/><linearGradient id="SVGID_33_" gradientUnits="userSpaceOnUse" x1="233.368" x2="288.165" xlink:href="#lg2" y1="73.714" y2="73.714"/><linearGradient id="SVGID_34_" gradientUnits="userSpaceOnUse" x1="177" x2="304.08" xlink:href="#lg2" y1="73.714" y2="73.714"/><linearGradient id="SVGID_35_" gradientUnits="userSpaceOnUse" x1="220" x2="320.669" xlink:href="#lg5" y1="438.72" y2="438.72"/><g><path d="m443.227 359.185v-.067c0-93.567-45.763-181.471-123.082-236.42l-32.206-22.889c-19.643-13.96-46.228-13.951-65.861.022l-32.389 23.052c-77.221 54.96-122.916 142.806-122.916 236.302 0 22.138 13.575 42.109 34.427 50.648 98.406 40.299 209.194 40.299 307.6 0 20.852-8.539 34.427-28.511 34.427-50.648z" fill="url(#SVGID_1_)"/><path d="m418.77 243.29c-13.15-29.84-31.36-57.45-53.97-81.59-13.38-14.3-28.31-27.38-44.65-39l-32.21-22.89c-15.58-11.07-35.53-13.36-52.92-6.85-4.53 1.69-8.88 3.98-12.94 6.87l-32.39 23.05c-2.17 1.55-4.32 3.12-6.44 4.72-13.76 10.35-26.46 21.78-38 34.11-11.46 12.22-21.78 25.34-30.89 39.18-8.88 13.49-16.62 27.68-23.11 42.41.074.022.149.043.223.065 13.527 3.937 22.887 16.251 22.887 30.339v90.596c0 22.32 8.39 42.7 22.2 58.12 32.12 9.8 65.2 15.51 98.43 17.15 6.67.33 13.34.49 20.01.49 23.36 0 46.72-2.01 69.8-6.04 28.6-4.97 56.78-13.04 84-24.19 10.42-4.27 19.03-11.4 25.03-20.23 6.01-8.82 9.4-19.35 9.4-30.42v-.06c0-40.4-8.53-79.74-24.46-115.83zm-15.56 115.89c0 11.07-3.39 21.6-9.4 30.42-6 8.83-14.61 15.96-25.03 20.23-9.84 4.03-19.8 7.66-29.86 10.87 12.92-15.2 20.7-34.9 20.7-56.4v-107.8c.078-.013.156-.025.234-.038 13.658-2.227 26.873 5.918 30.909 19.155 8.166 26.785 12.447 54.878 12.447 83.503z" fill="url(#SVGID_2_)"/><path d="m483.247 510c28.016 0 37.138-54.973 12.223-73.685-54.017-40.569-141.601-66.942-240.47-66.942s-186.454 26.373-240.47 66.942c-24.915 18.712-15.794 73.685 12.223 73.685z" fill="url(#SVGID_3_)"/><path d="m100.333 435.619c7.321-2.155 12.357-8.849 12.357-16.48 0-11.419-10.919-19.611-21.91-16.516-7.048 1.985-14.254 4.366-21.52 7.148-26.78 10.241-49.313 23.969-64.104 37.882-2.448 4.735-3.992 10.09-4.699 15.629.164.687.366 1.369.624 2.04 2.54 6.64 8.8 10.47 15.22 10.47 3.45 0 6.94-1.1 9.93-3.45 14.32-11.25 33.41-21.98 55.35-30.37 6.317-2.421 12.589-4.539 18.752-6.353z" fill="url(#SVGID_4_)"/><path d="m255 369.373c-49.56 0-96.283 6.629-137.365 18.349 12.564 37.096 47.668 63.796 89.008 63.796h96.715c41.34 0 76.443-26.7 89.008-63.796-41.083-11.72-87.806-18.349-137.366-18.349z" fill="url(#SVGID_5_)"/><g><path d="m224 370h31v140h-31z" fill="url(#SVGID_6_)"/><path d="m255 370h31v140h-31z" fill="url(#SVGID_7_)"/></g><path d="m495.47 436.315c-13.741-10.32-29.665-19.716-47.384-27.998 2.511 2.232 4.982 4.487 7.364 6.791.494.478.97.98 1.437 1.494-5.18-2.407-10.568-4.697-16.148-6.831-7.093-2.715-14.127-5.049-21.014-7.005-11.111-3.155-21.45 3.482-22.361 14.997-.648 8.192 4.545 15.573 12.303 17.856 6.162 1.814 12.435 3.932 18.753 6.352 5.857 2.24 11.508 4.646 16.92 7.185 19.889 9.33 26.551 34.849 13.142 52.25-4.118 5.344-9.252 8.594-15.255 8.594h40.02c28.017 0 37.138-54.973 12.223-73.685z" fill="url(#SVGID_8_)"/><path d="m112.69 397.128c0 7.631-5.037 14.325-12.357 16.48-6.162 1.814-12.435 3.932-18.753 6.352-21.94 8.39-41.03 19.12-55.35 30.37-2.99 2.35-6.48 3.45-9.93 3.45-6.42 0-12.68-3.83-15.22-10.47-2.35-6.13-.79-13.09 3.99-17.59 14.79-13.94 37.36-27.7 64.19-37.96 7.266-2.782 14.472-5.163 21.52-7.148 10.991-3.095 21.91 5.097 21.91 16.516z" fill="url(#SVGID_9_)"/><path d="m90.78 380.612c-3.214.905-6.464 1.903-9.735 2.974 3.991 3.096 6.634 7.927 6.634 13.542 0 7.631-5.037 14.325-12.357 16.48-6.162 1.814-12.435 3.932-18.753 6.352-20.543 7.856-38.587 17.763-52.557 28.228 3.128 3.595 7.662 5.592 12.288 5.592 3.45 0 6.94-1.1 9.93-3.45 14.32-11.25 33.41-21.98 55.35-30.37 6.318-2.42 12.59-4.538 18.753-6.352 7.321-2.155 12.357-8.849 12.357-16.48 0-11.419-10.919-19.611-21.91-16.516z" fill="url(#SVGID_10_)"/><path d="m508.92 443.31c-2.54 6.64-8.8 10.47-15.22 10.47-3.45 0-6.94-1.1-9.93-3.45-14.32-11.25-33.41-21.98-55.35-30.37-6.318-2.42-12.59-4.538-18.753-6.352-7.321-2.155-12.357-8.849-12.357-16.48 0-11.419 10.919-19.611 21.91-16.516 7.048 1.985 14.254 4.366 21.52 7.148 26.83 10.26 49.4 24.02 64.19 37.96 4.78 4.5 6.34 11.46 3.99 17.59z" fill="url(#SVGID_11_)"/><path d="m504.93 425.72c-14.79-13.94-37.36-27.7-64.19-37.96-7.266-2.782-14.471-5.163-21.52-7.148-5.587-1.573-11.151-.226-15.276 2.974 3.901 1.277 7.832 2.661 11.785 4.174 26.83 10.26 49.4 24.02 64.19 37.96 4.78 4.5 6.34 11.46 3.99 17.59-.71 1.856-1.719 3.484-2.932 4.878.95.712 1.882 1.426 2.793 2.142 2.99 2.35 6.48 3.45 9.93 3.45 6.42 0 12.68-3.83 15.22-10.47 2.35-6.13.79-13.09-3.99-17.59z" fill="url(#SVGID_12_)"/><path d="m290.414 426.507h-70.827c-48.167 0-87.214-39.047-87.214-87.214v-172.42c0-35.503 28.781-64.284 64.284-64.284h116.687c35.503 0 64.284 28.781 64.284 64.284v172.42c-.001 48.167-39.048 87.214-87.214 87.214z" fill="url(#SVGID_13_)"/><path d="m377.63 166.87v172.42c0 48.17-39.05 87.22-87.22 87.22h-40.02c48.17 0 87.22-39.05 87.22-87.22v-45.696c0-17.897-15.211-31.969-33.061-30.672-16.088 1.169-32.646 1.778-49.549 1.778-43.94 0-85.53-4.11-122.63-11.44v-86.39c0-2.52.14-5.01.43-7.45 3.69-31.99 30.87-56.83 63.86-56.83h116.68c32.99 0 60.17 24.84 63.86 56.83.29 2.44.43 4.93.43 7.45z" fill="url(#SVGID_14_)"/><g><path d="m198.634 297.743c-14.741 0-26.734-11.993-26.734-26.733 0-4.142 3.358-7.5 7.5-7.5s7.5 3.358 7.5 7.5c0 6.47 5.264 11.733 11.734 11.733s11.733-5.264 11.733-11.733c0-4.142 3.358-7.5 7.5-7.5s7.5 3.358 7.5 7.5c0 14.74-11.992 26.733-26.733 26.733z" fill="url(#SVGID_15_)"/><path d="m311.366 297.743c-14.741 0-26.733-11.993-26.733-26.733 0-4.142 3.358-7.5 7.5-7.5s7.5 3.358 7.5 7.5c0 6.47 5.264 11.733 11.733 11.733 6.47 0 11.734-5.264 11.734-11.733 0-4.142 3.358-7.5 7.5-7.5s7.5 3.358 7.5 7.5c0 14.74-11.993 26.733-26.734 26.733z" fill="url(#SVGID_16_)"/></g><path d="m354.754 203.393h-199.508c-6.369 0-11.804-4.605-12.85-10.888l-29.528-177.338c-1.322-7.94 4.801-15.167 12.85-15.167h258.564c8.049 0 14.172 7.227 12.85 15.167l-29.528 177.339c-1.045 6.282-6.481 10.887-12.85 10.887z" fill="url(#SVGID_17_)"/><path d="m384.282 0h-40.02c8.049 0 14.172 7.227 12.85 15.167l-29.528 177.339c-1.046 6.283-6.481 10.888-12.85 10.888h40.02c6.369 0 11.804-4.605 12.85-10.888l29.528-177.339c1.322-7.94-4.801-15.167-12.85-15.167z" fill="url(#SVGID_18_)"/><path d="m27.406 164.702c0 17.893 10.741 34.085 27.289 40.892 51.199 21.061 122.034 34.096 200.305 34.096s149.106-13.036 200.305-34.096c16.548-6.807 27.289-22.998 27.289-40.892 0-29.743-28.781-51.154-57.189-42.345-47.383 14.693-106.405 23.41-170.405 23.41s-123.022-8.717-170.405-23.41c-28.408-8.809-57.189 12.602-57.189 42.345z" fill="url(#SVGID_19_)"/><path d="m425.405 122.357c-2.62.812-5.282 1.604-7.972 2.379 14.606 7.051 25.141 21.978 25.141 39.966 0 17.893-10.741 34.085-27.289 40.891-46.797 19.25-110.004 31.789-180.295 33.803 6.611.19 13.281.293 20.01.293 78.271 0 149.106-13.036 200.305-34.096 16.548-6.807 27.289-22.998 27.289-40.891 0-29.743-28.781-51.154-57.189-42.345z" fill="url(#SVGID_20_)"/><path d="m204.67 379.953h100.66v48.051h-100.66z" fill="url(#SVGID_21_)"/><g><path d="m204.67 415.17c23.061.94 47.682-11.703 50.117-35.217h-50.117z" fill="url(#SVGID_22_)"/><path d="m255.204 379.953c1.209 11.684 7.901 20.687 17.158 26.668 5.024 3.246 7.959 8.911 7.959 14.893v6.49h25.01v-48.051z" fill="url(#SVGID_23_)"/></g><path d="m305.33 425.46v10.2c0 9.01-7.3 16.32-16.31 16.32h-68.04c-9.01 0-16.31-7.31-16.31-16.32v-10.2z" fill="url(#SVGID_24_)"/><path d="m204.667 351.099h100.667v39.471c0 4.824-3.911 8.735-8.735 8.735h-83.197c-4.824 0-8.735-3.911-8.735-8.735z" fill="url(#SVGID_25_)"/><path d="m204.67 390.635c.036 4.794 3.93 8.67 8.732 8.67h32.827c5.413-6.107 8.771-13.881 8.771-23.194 0 9.309 3.352 17.088 8.765 23.194h32.834c4.802 0 8.696-3.876 8.732-8.67v-39.535h-100.661z" fill="url(#SVGID_26_)"/><g><path d="m226.333 322.432c-10.58.115-19.948 6.64-23.976 16.423-3.048 7.403-8.314 12.243-15.227 12.243-5.662 0-9.152-1.642-11.815-4.477-4.16-4.428-11.645-1.776-11.682 4.299 0 .059-.001.118-.001.178 0 55.529 91.366 48.662 91.366 0 .002-15.832-12.832-28.666-28.665-28.666z" fill="url(#SVGID_27_)"/><path d="m283.667 322.432c10.58.115 19.948 6.64 23.976 16.423 3.048 7.403 8.314 12.243 15.227 12.243 5.662 0 9.152-1.642 11.815-4.477 4.16-4.428 11.645-1.776 11.682 4.299 0 .059.001.118.001.178 0 55.529-91.366 48.662-91.366 0-.002-15.832 12.832-28.666 28.665-28.666z" fill="url(#SVGID_28_)"/></g><g><path d="m179.5 467.552h151v26.544h-151z" fill="url(#SVGID_29_)"/><g><circle cx="181.693" cy="480.824" fill="url(#SVGID_30_)" r="18.666"/><circle cx="328.307" cy="480.824" fill="url(#SVGID_31_)" r="18.666"/></g></g><g><ellipse cx="255" cy="73.714" fill="url(#SVGID_32_)" rx="39.889" ry="67.484"/></g><g><ellipse cx="255" cy="73.714" fill="url(#SVGID_33_)" rx="21.632" ry="46.643"/></g><path d="m255 27.071c-.583 0-1.16.05-1.731.148-6.564 1.124-10.215 8.405-7.545 14.506 3.655 8.349 5.897 19.602 5.897 31.99 0 12.387-2.242 23.64-5.897 31.989-2.671 6.101.98 13.382 7.545 14.506.571.098 1.148.148 1.731.148 11.947 0 21.632-20.883 21.632-46.643 0-25.761-9.685-46.644-21.632-46.644z" fill="url(#SVGID_34_)"/><path d="m280.32 435.66c0 9.01-7.3 16.32-16.31 16.32h25.01c9.01 0 16.31-7.31 16.31-16.32v-10.2h-25.01z" fill="url(#SVGID_35_)"/></g></svg>