<svg id="Capa_1" enable-background="new 0 0 510 510" height="512" viewBox="0 0 510 510" width="512" xmlns="http://www.w3.org/2000/svg" xmlns:xlink="http://www.w3.org/1999/xlink"><linearGradient id="lg1"><stop offset="0" stop-color="#97d729"/><stop offset=".5652" stop-color="#02905d"/><stop offset=".9955" stop-color="#026841"/></linearGradient><linearGradient id="SVGID_1_" gradientUnits="userSpaceOnUse" x1="55.186" x2="399.325" xlink:href="#lg1" y1="331.043" y2="331.043"/><linearGradient id="SVGID_2_" gradientUnits="userSpaceOnUse" x1="-17" x2="275.005" xlink:href="#lg1" y1="331.043" y2="331.043"/><linearGradient id="SVGID_3_" gradientUnits="userSpaceOnUse" x1="227.267" x2="621.818" xlink:href="#lg1" y1="331.043" y2="331.043"/><linearGradient id="SVGID_4_" gradientUnits="userSpaceOnUse" x1="131" x2="528.126" xlink:href="#lg1" y1="444.054" y2="444.054"/><linearGradient id="SVGID_5_" gradientUnits="userSpaceOnUse" x1="131" x2="528.126" xlink:href="#lg1" y1="292.499" y2="292.499"/><linearGradient id="lg2"><stop offset="0" stop-color="#fe646f"/><stop offset=".5213" stop-color="#e41f2d"/><stop offset="1" stop-color="#c41926"/></linearGradient><linearGradient id="SVGID_6_" gradientUnits="userSpaceOnUse" x1="-30" x2="310" xlink:href="#lg2" y1="186.658" y2="186.658"/><linearGradient id="SVGID_7_" gradientUnits="userSpaceOnUse" x1="-92.667" x2="221.368" xlink:href="#lg2" y1="186.658" y2="186.658"/><linearGradient id="SVGID_8_" gradientUnits="userSpaceOnUse" x1="296" x2="571.016" xlink:href="#lg2" y1="186.658" y2="186.658"/><linearGradient id="SVGID_9_" gradientUnits="userSpaceOnUse" x1="157.168" x2="400.097" xlink:href="#lg2" y1="186.658" y2="186.658"/><linearGradient id="SVGID_10_" gradientUnits="userSpaceOnUse" x1="98.625" x2="329.618" xlink:href="#lg2" y1="186.658" y2="186.658"/><linearGradient id="SVGID_11_" gradientUnits="userSpaceOnUse" x1="93" x2="534.001" xlink:href="#lg2" y1="186.658" y2="186.658"/><g><path d="m77.114 480.484c-.129 1.371.354 2.733 1.336 3.716 1.802 1.802 4.733 1.802 6.535 0l207.148-207.148c6.311-6.311 10.225-14.605 11.096-23.477l5.708-58.525c1.043-10.579-7.854-19.477-18.433-18.433l-58.525 5.708c-8.872.871-17.166 4.785-23.477 11.096l-207.148 207.147c-.905.905-1.354 2.078-1.354 3.268s.448 2.362 1.354 3.268c.983.983 2.345 1.466 3.716 1.336l59.413-5.802c10.57-1.035 19.468 7.863 18.433 18.433z" fill="url(#SVGID_1_)"/><path d="m308.94 195.051-5.71 58.52c-.87 8.88-4.79 17.17-11.1 23.48l-55.13 55.129-152.01 152.02c-1.81 1.8-4.74 1.8-6.54 0-.98-.98-1.47-2.35-1.34-3.72l3.08-31.5 128.92-128.929c4.352-4.352 4.352-11.409 0-15.761-5.785-5.785-15.644-3.579-18.37 4.135-13.474 38.137-49.824 65.455-92.57 65.455-19.94 0-38.48-5.94-53.97-16.16l164.3-164.3c6.31-6.31 14.61-10.23 23.48-11.1l58.52-5.7c10.58-1.05 19.48 7.85 18.44 18.431z" fill="url(#SVGID_2_)"/><path d="m432.886 480.484c.129 1.371-.354 2.733-1.336 3.716-1.802 1.802-4.733 1.802-6.535 0l-207.149-207.148c-6.311-6.311-10.225-14.605-11.096-23.477l-5.708-58.525c-1.043-10.579 7.854-19.477 18.433-18.433l58.525 5.708c8.872.871 17.166 4.785 23.477 11.096l207.148 207.148c.905.905 1.354 2.078 1.354 3.268s-.448 2.362-1.354 3.268c-.983.983-2.345 1.466-3.716 1.336l-59.413-5.802c-10.57-1.035-19.468 7.863-18.433 18.433z" fill="url(#SVGID_3_)"/><g><path d="m434.42 405.46-28.92-2.82c-10.57-1.04-19.47 7.86-18.44 18.43l2.73 27.91 35.22 35.22c1.81 1.8 4.74 1.8 6.54 0 .98-.98 1.47-2.35 1.34-3.72l-5.81-59.41c-.63-6.449 2.44-12.289 7.34-15.61z" fill="url(#SVGID_4_)"/><path d="m508.65 400.57-207.15-207.15c-6.31-6.31-14.61-10.23-23.48-11.1l-58.52-5.7c-4.12-.41-7.99.69-11.11 2.82-4.9 3.32-7.96 9.15-7.33 15.61l5.71 58.52c.87 8.88 4.79 17.17 11.1 23.48l32.33 32.33c1.59.08 3.19.12 4.8.12 22.43 0 43.1-7.55 59.6-20.25 6.6 47.81 47.61 84.63 97.23 84.63h.275c18.816-.052 36.933 7.099 50.238 20.404l6.286 6.286c.9.9 1.35 2.08 1.35 3.27 0 .4-.05.79-.15 1.17l35.1 3.43c1.37.13 2.73-.35 3.72-1.34.9-.9 1.35-2.07 1.35-3.26s-.449-2.37-1.349-3.27z" fill="url(#SVGID_5_)"/></g><g><path d="m196.334 122.617c0-54.216-43.951-98.167-98.167-98.167s-98.167 43.951-98.167 98.167c0 24.472 8.957 46.85 23.768 64.041-14.811 17.191-23.768 39.57-23.768 64.042 0 54.216 43.951 98.167 98.167 98.167s98.167-43.951 98.167-98.167c0-24.472 0-103.611 0-128.083z" fill="url(#SVGID_6_)"/><path d="m192.73 96.188c-11.54-41.38-49.51-71.74-94.56-71.74-6.86 0-13.55.7-20.01 2.04 44.52 9.22 78 48.59 78.15 95.82-9.41 10.75-16.49 23.58-20.48 37.71-11.6-4.83-24.31-7.49-37.66-7.49-15.786 0-30.699 3.729-43.91 10.35-3.858 1.933-6.26 5.917-6.26 10.232 0 8.054 8.056 13.555 15.593 10.714 10.753-4.054 22.404-6.276 34.577-6.276.748 0 1.536.036 2.354.102 16.566 1.35 30.336 13.623 33.864 29.866 1.591 7.325 4.003 14.343 7.134 20.955 15.604 32.945 8.499 72.444-19.014 96.357-12.433 10.806-27.61 18.534-44.349 22 6.46 1.34 13.15 2.04 20.01 2.04 45.05 0 83.02-30.36 94.56-71.74 2.35-8.41 3.6-17.27 3.6-26.43v-128.08c.001-9.16-1.249-18.02-3.599-26.43z" fill="url(#SVGID_7_)"/><path d="m510 122.617c0-54.216-43.951-98.167-98.167-98.167s-98.167 43.951-98.167 98.167v128.082c0 54.216 43.951 98.167 98.167 98.167s98.167-43.95 98.167-98.166c0-24.472-8.957-46.85-23.768-64.041 14.811-17.192 23.768-39.57 23.768-64.042z" fill="url(#SVGID_8_)"/><g><circle cx="255" cy="186.658" fill="url(#SVGID_9_)" r="97.832"/></g><path d="m255 88.826c-6.858 0-13.55.709-20.01 2.051 44.434 9.236 77.822 48.608 77.822 95.781s-33.389 86.545-77.822 95.781c6.46 1.343 13.152 2.051 20.01 2.051 54.031 0 97.832-43.801 97.832-97.832s-43.801-97.832-97.832-97.832z" fill="url(#SVGID_10_)"/><path d="m509.927 118.788c-2.014-52.899-46.358-94.961-99.292-94.333-6.442.076-12.731.771-18.815 2.033 44.62 9.24 78.16 48.77 78.16 96.13 0 15.29-3.5 29.76-9.74 42.66-14.29-8.11-30.81-12.75-48.41-12.75-.598 0-1.195.005-1.791.016-8.336.151-15.039 6.897-15.039 15.234 0 8.487 6.934 15.325 15.42 15.219.469-.006.939-.009 1.41-.009.129 0 .257 0 .385.001 25.089.082 47.281 16.875 54.091 41.023 2.393 8.486 3.674 17.437 3.674 26.687 0 46.226-31.959 84.977-74.98 95.399v1.329c5.963 1.031 12.107 1.529 18.392 1.43 52.242-.819 95.081-43.07 96.567-95.297.728-25.584-8.344-49.043-23.729-66.901 15.579-18.084 24.685-41.91 23.697-67.871z" fill="url(#SVGID_11_)"/></g></g></svg>