<svg id="Capa_1" enable-background="new 0 0 510.001 510.001" height="512" viewBox="0 0 510.001 510.001" width="512" xmlns="http://www.w3.org/2000/svg" xmlns:xlink="http://www.w3.org/1999/xlink"><linearGradient id="lg1"><stop offset="0" stop-color="#fef056"/><stop offset=".5213" stop-color="#f4d902"/><stop offset="1" stop-color="#fe9738"/></linearGradient><linearGradient id="SVGID_1_" gradientUnits="userSpaceOnUse" x1="-16.972" x2="659.663" xlink:href="#lg1" y1="269.938" y2="269.938"/><linearGradient id="SVGID_2_" gradientUnits="userSpaceOnUse" x1="-112.333" x2="495.161" xlink:href="#lg1" y1="269.936" y2="269.936"/><linearGradient id="lg2"><stop offset="0" stop-color="#fe646f"/><stop offset=".5213" stop-color="#e41f2d"/><stop offset="1" stop-color="#c41926"/></linearGradient><linearGradient id="SVGID_3_" gradientUnits="userSpaceOnUse" x1="50.006" x2="612.007" xlink:href="#lg2" y1="337.245" y2="337.245"/><linearGradient id="SVGID_4_" gradientUnits="userSpaceOnUse" x1="-3.115" x2="505.657" y1="440.82" y2="440.82"><stop offset="0" stop-color="#eaf6ff"/><stop offset=".5213" stop-color="#d8ecfe"/><stop offset="1" stop-color="#b3dafe"/></linearGradient><linearGradient id="SVGID_5_" gradientUnits="userSpaceOnUse" x1="195" x2="555.006" y1="440.82" y2="440.82"><stop offset="0" stop-color="#d8ecfe"/><stop offset=".5667" stop-color="#b3dafe"/><stop offset=".9955" stop-color="#8ac9fe"/></linearGradient><linearGradient id="SVGID_6_" gradientUnits="userSpaceOnUse" x1="165.456" x2="386.556" xlink:href="#lg2" y1="74.215" y2="74.215"/><linearGradient id="SVGID_7_" gradientUnits="userSpaceOnUse" x1="-13" x2="315.024" xlink:href="#lg2" y1="74.215" y2="74.215"/><linearGradient id="SVGID_8_" gradientUnits="userSpaceOnUse" x1="94" x2="385.83" xlink:href="#lg2" y1="337.002" y2="337.002"/><linearGradient id="SVGID_9_" gradientUnits="userSpaceOnUse" x1="97.001" x2="404.276" y1="281.139" y2="281.139"><stop offset="0" stop-color="#97d729"/><stop offset=".5652" stop-color="#02905d"/><stop offset=".9955" stop-color="#026841"/></linearGradient><g><path d="m466.74 468.291h-425.48l-20.096-122.596c-23.543-143.626 87.292-274.11 232.836-274.11 145.543 0 256.379 130.483 232.836 274.11z" fill="url(#SVGID_1_)"/><path d="m421.63 141.48c-27.3-27.6-61.43-48.61-99.93-60.08-21.36-6.38-44.07-9.82-67.7-9.82-6.75 0-13.42.28-20.01.83-16.48 1.37-32.43 4.43-47.69 8.99-14.46 8.35-28.15 19.47-40.79 33.22-28.96 31.51-50.7 75.97-61.2 125.2-1.44 6.75 2.86 13.39 9.61 14.83s13.4-2.86 14.84-9.61c9.58-44.92 29.17-85.23 55.16-113.5 3.244-3.531 6.565-6.853 9.954-9.966 6.314-5.8 16.574-.081 14.794 8.305-.013.061-.026.122-.04.183l-.009.039c-1.66 7.439 1.556 14.712 7.37 18.704-8.65 36.018-12.544 73.838-14.06 92.615-.56 6.88 4.57 12.91 11.45 13.47 6.89.56 12.91-4.57 13.47-11.45 2.662-32.966 6.884-60.144 11.813-82.051.209.398.407.804.587 1.221 3.958 9.894 15.76 13.989 24.995 8.672l.895-.515c5.585-3.216 12.474-3.154 18 .162l5.3 3.18c8.937 5.362 20.308-1.075 20.308-11.498.18-.417.379-.823.588-1.222 4.93 21.907 9.151 49.085 11.814 82.051.53 6.53 6 11.49 12.45 11.49.34 0 .68-.01 1.02-.04 6.88-.56 12.01-6.59 11.45-13.47-2.801-34.696-7.576-66.121-14.018-92.644 5.788-3.999 8.984-11.254 7.328-18.675l-.009-.039c-.014-.061-.027-.122-.04-.183-1.78-8.389 8.486-14.109 14.799-8.305 3.387 3.114 6.706 6.436 9.949 9.965 25.99 28.27 45.58 68.58 55.16 113.5 1.26 5.87 6.44 9.89 12.22 9.89.86 0 1.74-.09 2.62-.28 6.75-1.44 11.05-8.08 9.61-14.83-.073-.341-.146-.682-.22-1.023-2.105-9.703 11.98-13.511 15.052-4.069 11.227 34.503 14.643 72.257 8.298 110.963l-20.1 122.6h40.02l20.1-122.6c12.842-78.32-14.288-152.729-65.208-204.21z" fill="url(#SVGID_2_)"/><path d="m21.164 345.695 2.791 17.027c1.642-2.781 3.889-5.225 6.66-7.103 10.58-7.17 23.226-11.497 36.831-11.83 9.28-.227 18.159 1.374 26.302 4.469 14.319 5.442 30.148 4.992 44.53-.281 7.424-2.722 15.445-4.208 23.813-4.208 8.62 0 16.871 1.577 24.482 4.458 14.155 5.358 29.791 5.358 43.946 0 7.611-2.881 15.862-4.458 24.482-4.458s16.871 1.577 24.482 4.458c14.155 5.358 29.791 5.358 43.946 0 7.611-2.881 15.862-4.458 24.482-4.458 8.368 0 16.389 1.486 23.813 4.208 14.382 5.273 30.211 5.723 44.53.281 8.143-3.095 17.022-4.696 26.302-4.469 12.39.303 23.98 3.923 33.941 9.984 3.256 1.981 5.876 4.707 7.728 7.858l2.612-15.936c.072-.436.142-.872.211-1.308 1.417-8.975-2.789-17.89-10.551-22.614-9.961-6.061-21.551-9.681-33.941-9.984-9.28-.227-18.159 1.374-26.302 4.469-14.319 5.442-30.148 4.992-44.53-.281-7.424-2.722-15.445-4.208-23.813-4.208-8.62 0-16.871 1.577-24.482 4.458-14.155 5.358-29.791 5.358-43.946 0-7.611-2.881-15.862-4.458-24.482-4.458s-16.871 1.577-24.482 4.458c-14.155 5.358-29.791 5.358-43.946 0-7.611-2.881-15.862-4.458-24.482-4.458-8.368 0-16.389 1.486-23.813 4.208-14.382 5.273-30.211 5.723-44.53.281-8.143-3.095-17.022-4.696-26.302-4.469-13.605.333-26.251 4.66-36.831 11.83-7.147 4.843-10.863 13.428-9.472 21.949.007.042.014.085.021.127z" fill="url(#SVGID_3_)"/><path d="m442.555 371.66c-9.28-.227-18.159 1.374-26.302 4.469-14.297 5.433-30.102 5.027-44.456-.254-7.445-2.74-15.491-4.236-23.887-4.236-8.62 0-16.871 1.577-24.481 4.457-14.156 5.358-29.792 5.358-43.948 0-7.61-2.881-15.861-4.457-24.481-4.457s-16.871 1.577-24.481 4.457c-14.156 5.358-29.792 5.358-43.948 0-7.61-2.881-15.861-4.457-24.481-4.457-8.396 0-16.442 1.496-23.887 4.236-14.353 5.282-30.159 5.687-44.456.254-8.143-3.095-17.022-4.696-26.302-4.469-37.445.917-67.642 32.076-67.444 69.533.201 38.036 31.097 68.807 69.18 68.807 8.62 0 16.871-1.577 24.481-4.457 14.156-5.358 29.792-5.358 43.948 0 7.61 2.881 15.861 4.457 24.481 4.457s16.871-1.577 24.481-4.457c14.156-5.358 29.792-5.358 43.947 0 7.61 2.881 15.861 4.457 24.481 4.457s16.871-1.577 24.481-4.457c14.156-5.358 29.792-5.358 43.947 0 7.61 2.881 15.862 4.457 24.481 4.457 8.62 0 16.871-1.577 24.481-4.457 14.156-5.358 29.792-5.358 43.948 0 7.61 2.881 15.861 4.457 24.481 4.457 38.083 0 68.979-30.772 69.18-68.808.198-37.456-29.999-68.615-67.444-69.532z" fill="url(#SVGID_4_)"/><path d="m442.55 371.66c-9.28-.23-18.15 1.37-26.3 4.47-2.08.79-4.19 1.45-6.32 2 23.73 11.12 40.2 35.37 40.05 63.06-.15 27.6-16.46 51.38-39.95 62.34 2.13.55 4.23 1.22 6.31 2.01 7.61 2.88 15.86 4.46 24.48 4.46 38.08 0 68.98-30.77 69.18-68.81.2-37.45-30-68.609-67.45-69.53z" fill="url(#SVGID_5_)"/><path d="m325.047 87.664-.037.032c-4.902 4.325-7.062 10.975-5.639 17.355l.009.039c2.351 10.537-5.072 20.749-15.821 21.763l-.03.003c-6.519.615-12.184 4.733-14.781 10.744-4.286 9.921-16.308 13.827-25.606 8.319l-.002-.001c-5.637-3.339-12.645-3.339-18.282 0l-.002.001c-9.299 5.508-21.32 1.602-25.606-8.319v-.001c-2.597-6.01-8.262-10.129-14.781-10.744l-.03-.003c-10.749-1.014-18.172-11.226-15.821-21.763l.009-.039c1.424-6.38-.737-13.03-5.639-17.356l-.036-.032c-8.092-7.14-8.092-19.758 0-26.899l.037-.032c4.902-4.325 7.062-10.975 5.639-17.355l-.009-.039c-2.351-10.537 5.072-20.749 15.821-21.763l.03-.003c6.519-.615 12.184-4.733 14.781-10.744 4.286-9.921 16.308-13.827 25.606-8.319l.002.001c5.637 3.339 12.645 3.339 18.282 0l.002-.001c9.299-5.508 21.32-1.602 25.606 8.319v.001c2.597 6.01 8.262 10.129 14.781 10.744l.03.003c10.749 1.014 18.172 11.226 15.821 21.763l-.009.039c-1.424 6.38.737 13.03 5.639 17.356l.036.032c8.092 7.141 8.092 19.759 0 26.899z" fill="url(#SVGID_6_)"/><path d="m325.047 60.765-.036-.032c-4.902-4.325-7.062-10.975-5.639-17.356l.009-.039c2.351-10.538-5.072-20.749-15.821-21.763l-.03-.003c-6.518-.615-12.184-4.733-14.781-10.744v-.001c-4.286-9.921-16.308-13.827-25.606-8.319l-.002.001c-5.637 3.339-12.645 3.338-18.282 0l-.002-.001c-3.427-2.03-7.224-2.773-10.867-2.415 6.241.613 12.032 4.47 14.739 10.734v.001c2.597 6.01 8.262 10.128 14.781 10.744l.03.003c10.749 1.014 18.172 11.226 15.821 21.763l-.009.039c-1.424 6.38.737 13.03 5.639 17.356l.036.032c8.092 7.14 8.092 19.758 0 26.899l-.036.032c-4.902 4.325-7.062 10.975-5.639 17.355l.009.039c2.351 10.537-5.072 20.749-15.821 21.763l-.03.003c-6.518.615-12.184 4.733-14.781 10.744-2.706 6.264-8.497 10.121-14.739 10.734 3.644.358 7.44-.385 10.867-2.415l.002-.001c5.637-3.339 12.645-3.339 18.282 0l.002.001c9.299 5.508 21.32 1.602 25.606-8.319 2.597-6.011 8.262-10.129 14.781-10.744l.03-.003c10.749-1.014 18.172-11.225 15.821-21.763l-.009-.039c-1.424-6.38.737-13.03 5.639-17.355l.036-.032c8.092-7.14 8.092-19.758 0-26.899z" fill="url(#SVGID_7_)"/><path d="m476.495 321.773c-7.959-4.843-16.961-8.121-26.577-9.4-.236 10.453-1.171 21.027-2.842 31.677 10.687.968 20.68 4.405 29.419 9.723 3.256 1.981 5.876 4.707 7.728 7.858l2.612-15.936c.072-.436.142-.872.211-1.308 1.418-8.975-2.788-17.89-10.551-22.614z" fill="url(#SVGID_8_)"/><g fill="url(#SVGID_9_)"><circle cx="111.084" cy="281.139" r="24.713"/><circle cx="206.361" cy="281.139" r="24.713"/><circle cx="301.639" cy="281.139" r="24.713"/><circle cx="396.916" cy="281.139" r="24.713"/></g></g></svg>