<svg id="Capa_1" enable-background="new 0 0 510 510" height="512" viewBox="0 0 510 510" width="512" xmlns="http://www.w3.org/2000/svg" xmlns:xlink="http://www.w3.org/1999/xlink"><linearGradient id="lg1"><stop offset="0" stop-color="#766e6e"/><stop offset=".1978" stop-color="#676464"/><stop offset=".4488" stop-color="#5a5a5a"/><stop offset=".482" stop-color="#575858"/><stop offset=".799" stop-color="#404d4d"/><stop offset="1" stop-color="#384949"/></linearGradient><linearGradient id="SVGID_1_" gradientUnits="userSpaceOnUse" x1="195.333" x2="368.104" xlink:href="#lg1" y1="469.01" y2="469.01"/><linearGradient id="SVGID_2_" gradientUnits="userSpaceOnUse" x1="75.333" x2="333.644" xlink:href="#lg1" y1="469.01" y2="469.01"/><linearGradient id="SVGID_3_" gradientUnits="userSpaceOnUse" x1="23.425" x2="613.331" xlink:href="#lg1" y1="262.819" y2="262.819"/><linearGradient id="SVGID_4_" gradientUnits="userSpaceOnUse" x1="-100" x2="396.669" xlink:href="#lg1" y1="341.663" y2="341.663"/><linearGradient id="SVGID_5_" gradientUnits="userSpaceOnUse" x1="-100" x2="396.669" xlink:href="#lg1" y1="353.142" y2="353.142"/><linearGradient id="SVGID_6_" gradientUnits="userSpaceOnUse" x1="-100" x2="396.669" xlink:href="#lg1" y1="186.595" y2="186.595"/><linearGradient id="SVGID_7_" gradientUnits="userSpaceOnUse" x1="-100" x2="396.669" xlink:href="#lg1" y1="262.819" y2="262.819"/><linearGradient id="SVGID_8_" gradientUnits="userSpaceOnUse" x1="119.014" x2="481.745" y1="205.199" y2="205.199"><stop offset="0" stop-color="#eaf6ff"/><stop offset=".5213" stop-color="#d8ecfe"/><stop offset="1" stop-color="#b3dafe"/></linearGradient><linearGradient id="lg2"><stop offset="0" stop-color="#d8ecfe"/><stop offset=".5667" stop-color="#b3dafe"/><stop offset=".9955" stop-color="#8ac9fe"/></linearGradient><linearGradient id="SVGID_9_" gradientUnits="userSpaceOnUse" x1="97" x2="456" xlink:href="#lg2" y1="281.916" y2="281.916"/><linearGradient id="SVGID_10_" gradientUnits="userSpaceOnUse" x1="97" x2="456" xlink:href="#lg2" y1="161.88" y2="161.88"/><linearGradient id="SVGID_11_" gradientUnits="userSpaceOnUse" x1="231" x2="432" xlink:href="#lg2" y1="205.199" y2="205.199"/><linearGradient id="SVGID_12_" gradientUnits="userSpaceOnUse" x1="0" x2="649.579" xlink:href="#lg1" y1="429.02" y2="429.02"/><linearGradient id="SVGID_13_" gradientUnits="userSpaceOnUse" x1="-21.842" x2="431.197" xlink:href="#lg1" y1="429.02" y2="429.02"/><linearGradient id="lg3"><stop offset="0" stop-color="#97d729"/><stop offset=".5652" stop-color="#02905d"/><stop offset=".9955" stop-color="#026841"/></linearGradient><linearGradient id="SVGID_14_" gradientUnits="userSpaceOnUse" x1="183.551" x2="407.12" xlink:href="#lg3" y1="256.23" y2="256.23"/><linearGradient id="lg4"><stop offset="0" stop-color="#fe646f"/><stop offset=".5213" stop-color="#e41f2d"/><stop offset="1" stop-color="#c41926"/></linearGradient><linearGradient id="SVGID_15_" gradientUnits="userSpaceOnUse" x1="139.599" x2="295.782" xlink:href="#lg4" y1="136.195" y2="136.195"/><linearGradient id="SVGID_16_" gradientUnits="userSpaceOnUse" x1="164.667" x2="378.084" xlink:href="#lg3" y1="255.749" y2="255.749"/><linearGradient id="SVGID_17_" gradientUnits="userSpaceOnUse" x1="164.667" x2="378.084" xlink:href="#lg3" y1="256.229" y2="256.229"/><linearGradient id="SVGID_18_" gradientUnits="userSpaceOnUse" x1="102" x2="262.701" xlink:href="#lg4" y1="64.393" y2="64.393"/><linearGradient id="SVGID_19_" gradientUnits="userSpaceOnUse" x1="102" x2="262.701" xlink:href="#lg4" y1="153.781" y2="153.781"/><linearGradient id="lg5"><stop offset="0" stop-color="#fef056"/><stop offset=".5213" stop-color="#f4d902"/><stop offset="1" stop-color="#fe9738"/></linearGradient><linearGradient id="SVGID_20_" gradientUnits="userSpaceOnUse" x1="-35.895" x2="525.085" xlink:href="#lg5" y1="46.76" y2="46.76"/><linearGradient id="SVGID_21_" gradientUnits="userSpaceOnUse" x1="-35.895" x2="525.085" xlink:href="#lg5" y1="121.419" y2="121.419"/><linearGradient id="SVGID_22_" gradientUnits="userSpaceOnUse" x1="-35.895" x2="525.085" xlink:href="#lg5" y1="23.277" y2="23.277"/><g><g><path d="m302.402 510h-94.804c-5.58 0-10.103-4.523-10.103-10.103v-71.877h115.01v71.877c0 5.58-4.523 10.103-10.103 10.103z" fill="url(#SVGID_1_)"/><path d="m312.51 428.02v71.877c0 5.58-4.523 10.103-10.103 10.103h-29.917v-.422c0-18.384-14.903-33.287-33.287-33.287h-41.713v-48.27h115.02z" fill="url(#SVGID_2_)"/></g><g><path d="m440.267 85.118h-370.534c-25.534 0-46.308 20.773-46.308 46.308v309.094h463.149v-309.094c0-25.534-20.773-46.308-46.307-46.308zm21.15 43.823c.095.817.157 1.643.157 2.485v131.393h-92.422zm-21.15-18.823c1.208 0 2.386.125 3.54.319l-105.017 152.382h-167.58l-105.016-152.382c1.154-.194 2.331-.319 3.539-.319zm-120.736 180.646-64.531 93.637-64.531-93.637zm-271.106-159.338c0-.842.062-1.669.158-2.486l92.265 133.88h-92.423zm0 159.338h111.681l85.977 124.756h-197.658zm215.491 124.756 85.978-124.756h111.681v124.756z" fill="url(#SVGID_3_)"/><g><path d="m253.279 386.897 1.721-2.497-64.531-93.637c-10.586 0-16.825 11.878-10.818 20.594l52.059 75.539c5.206 7.555 16.363 7.555 21.569.001z" fill="url(#SVGID_4_)"/><path d="m316.793 302.503-74.298 107.809 3.589 5.208h17.832l85.978-124.756h-10.755c-8.926 0-17.281 4.389-22.346 11.739z" fill="url(#SVGID_5_)"/><path d="m65.966 110.393c-10.511-.594-17.055 11.259-11.081 19.927l82.596 119.849c5.458 7.92 14.463 12.65 24.082 12.65h9.647l-105.016-152.382c.096-.016.01-.031-.228-.044z" fill="url(#SVGID_6_)"/><path d="m440.267 85.118h-25.011c6.856 0 13.367 1.499 19.224 4.185 11.612 5.326 15.514 19.922 8.265 30.441l-86.206 125.086c-5.247 7.614.203 17.989 9.45 17.989h3.163l92.265-133.878.043-.145c.026.465.059.927.072 1.396.027.408.042.819.042 1.233v131.393h-.011v27.945h.011v124.757h-.011v25h25.011v-309.094c0-25.575-20.732-46.308-46.307-46.308z" fill="url(#SVGID_7_)"/></g></g><path d="m406.425 410.399h-302.85v-391.989c0-10.168 8.242-18.41 18.41-18.41h266.031c10.168 0 18.41 8.242 18.41 18.41v391.989z" fill="url(#SVGID_8_)"/><g><path d="m345.614 203.835-104.988-33.601c-.983-.314-1.986-.574-3.005-.732-12.674-1.955-23.59 7.797-23.59 20.099v97.614c-10.614-1.715-23.216 1.072-34.425 8.564-19.714 13.177-27.647 35.901-17.719 50.753 9.928 14.853 33.958 16.212 53.672 3.034 14.253-9.527 22.343-24.043 21.982-36.967h.017v-100.367c0-3.475 3.383-5.944 6.692-4.885l78.553 25.14c2.124.68 3.566 2.655 3.566 4.885v85.796c-10.614-1.715-23.216 1.072-34.425 8.564-19.714 13.177-27.647 35.9-17.719 50.753s33.958 16.212 53.672 3.034c14.253-9.527 22.343-24.043 21.982-36.968h.017v-138.853c-.002-2.677-1.732-5.047-4.282-5.863z" fill="url(#SVGID_9_)"/><path d="m194.559 210.54h.01v-100.37c0-3.47 3.39-5.94 6.7-4.88l20.884 6.684c13.251 4.241 26.796-5.645 26.796-19.559 0-4.656-3.009-8.778-7.443-10.198l-43.907-14.057c-2.01-.64-4.1-.97-6.2-.97-11.24 0-20.35 9.11-20.35 20.35v97.62c-10.62-1.72-23.22 1.07-34.43 8.56-19.71 13.18-27.65 35.9-17.72 50.75 9.93 14.86 33.96 16.22 53.67 3.04 14.26-9.53 22.35-24.04 21.99-36.97z" fill="url(#SVGID_10_)"/></g><path d="m388.015 0h-40.02c10.167 0 18.41 8.242 18.41 18.41v391.989h40.02v-391.989c0-10.167-8.242-18.41-18.41-18.41z" fill="url(#SVGID_11_)"/><g><path d="m497.262 406.762h-484.524c-7.035 0-12.738 5.703-12.738 12.739 0 17.55 14.227 31.777 31.777 31.777h446.445c17.55 0 31.777-14.227 31.777-31.777.001-7.036-5.702-12.739-12.737-12.739z" fill="url(#SVGID_12_)"/><path d="m406.425 451.278h71.797c17.55 0 31.777-14.227 31.777-31.777 0-.319-.025-.632-.048-.945-.047-.547-.132-1.146-.254-1.788-1.252-5.721-6.341-10.006-12.437-10.006h-52.758c14.07 0 25.477 5.703 25.477 12.738.001 17.551-28.453 31.778-63.554 31.778z" fill="url(#SVGID_13_)"/></g><g><path d="m257.123 143.567c-11.239 0-20.349 9.111-20.349 20.349v97.614c-10.614-1.715-23.216 1.072-34.425 8.564-19.714 13.177-27.647 35.9-17.719 50.753s33.958 16.212 53.672 3.034c14.253-9.527 22.343-24.043 21.982-36.967h.017v-100.368c0-3.475 3.383-5.944 6.692-4.885l78.554 25.14c2.124.68 3.566 2.655 3.566 4.885v85.797c-10.614-1.715-23.216 1.072-34.425 8.564-19.714 13.177-27.647 35.9-17.719 50.753s33.958 16.212 53.672 3.034c14.253-9.527 22.343-24.043 21.982-36.967h.017v-128.494c0-8.849-5.719-16.684-14.147-19.381l-95.165-30.457c-2.008-.641-4.1-.968-6.205-.968z" fill="url(#SVGID_14_)"/><path d="m264.25 56.532-43.907-14.057c-2.01-.64-4.1-.97-6.2-.97-11.24 0-20.35 9.11-20.35 20.35v97.62c-10.62-1.72-23.22 1.07-34.43 8.56-19.71 13.18-27.65 35.9-17.72 50.75 9.93 14.86 33.96 16.22 53.67 3.04 14.26-9.53 22.35-24.04 21.99-36.97h.01v-100.37c0-3.47 3.39-5.94 6.7-4.88l20.884 6.684c13.251 4.241 26.796-5.645 26.796-19.559 0-4.656-3.009-8.778-7.443-10.198z" fill="url(#SVGID_15_)"/></g><g><path d="m322.534 199.417-62.552-20.019c-11.223-3.592-22.693 4.781-22.693 16.565v90.953h-.017c.361 12.925-7.728 27.44-21.982 36.967-5.23 3.496-10.764 5.958-16.257 7.428 11.461 3.618 26.298 1.242 39.268-7.428 14.253-9.527 22.343-24.043 21.982-36.967h.017v-100.37c0-3.475 3.383-5.944 6.692-4.885l55.766 17.847c-.076-.028-.146-.066-.224-.091z" fill="url(#SVGID_16_)"/><path d="m358.491 174.992-95.165-30.457c-2.005-.642-4.097-.968-6.203-.968-3.867 0-7.47 1.099-10.549 2.972l88.905 28.453c8.428 2.697 14.146 10.532 14.146 19.381v128.494h-.017c.361 12.925-7.728 27.44-21.982 36.968-5.23 3.496-10.764 5.958-16.257 7.427 11.461 3.618 26.298 1.242 39.268-7.427 14.253-9.527 22.343-24.043 21.982-36.968h.017v-128.494c.001-8.849-5.717-16.684-14.145-19.381z" fill="url(#SVGID_17_)"/></g><g><path d="m264.25 56.532-43.907-14.057c-2.01-.64-4.1-.97-6.2-.97-3.869 0-7.473 1.099-10.553 2.974l37.436 11.985c4.462 1.428 7.642 5.52 7.655 10.205.037 12.855-11.452 16.139-23.629 13.269l19.844 6.351c13.251 4.241 26.796-5.645 26.796-19.559.001-4.656-3.008-8.778-7.442-10.198z" fill="url(#SVGID_18_)"/><path d="m217.079 77.524c-11.264-3.607-22.778 4.796-22.778 16.623v90.708h-.01c.36 12.93-7.73 27.44-21.99 36.97-5.228 3.496-10.76 5.958-16.252 7.428 11.461 3.619 26.296 1.243 39.263-7.428 14.26-9.53 22.35-24.04 21.99-36.97h.01v-100.37c0-3.107 2.719-5.405 5.665-5.091-.364-.106-.728-.215-1.091-.331z" fill="url(#SVGID_19_)"/></g><g><path d="m479.807 30.193c-2.942-2.942-7.713-2.942-10.655 0l-22.479 22.479c-2.942 2.942-2.942 7.713 0 10.655s7.713 2.942 10.655 0l22.479-22.479c2.942-2.942 2.942-7.712 0-10.655z" fill="url(#SVGID_20_)"/><path d="m509.927 118.176c-.576-4.121-4.384-6.994-8.505-6.419l-31.483 4.4c-1.686.236-3.163 1.012-4.281 2.13-1.614 1.614-2.478 3.94-2.138 6.375.576 4.121 4.384 6.995 8.504 6.419l31.484-4.4c4.12-.575 6.994-4.383 6.419-8.505z" fill="url(#SVGID_21_)"/><path d="m391.824.073c-2.435-.34-4.761.524-6.375 2.138-1.118 1.118-1.894 2.595-2.13 4.281l-4.4 31.484c-.575 4.121 2.299 7.929 6.419 8.504 4.121.576 7.928-2.298 8.505-6.419l4.4-31.483c.575-4.121-2.298-7.929-6.419-8.505z" fill="url(#SVGID_22_)"/><path d="m40.849 30.193c-2.942-2.942-7.713-2.942-10.655 0s-2.942 7.713 0 10.655l22.479 22.479c2.942 2.942 7.713 2.942 10.655 0s2.942-7.713 0-10.655z" fill="url(#SVGID_20_)"/><path d="m40.061 116.157-31.484-4.4c-4.121-.575-7.929 2.298-8.505 6.419-.575 4.121 2.298 7.929 6.419 8.505l31.484 4.4c4.121.575 7.929-2.299 8.504-6.419.34-2.435-.524-4.761-2.138-6.375-1.116-1.118-2.593-1.894-4.28-2.13z" fill="url(#SVGID_21_)"/><path d="m126.681 6.492c-.236-1.686-1.012-3.163-2.13-4.281-1.614-1.614-3.94-2.478-6.375-2.138-4.121.576-6.995 4.384-6.419 8.505l4.4 31.483c.577 4.121 4.384 6.995 8.505 6.419s6.995-4.384 6.419-8.504z" fill="url(#SVGID_22_)"/></g></g></svg>