<svg id="Capa_1" enable-background="new 0 0 510 510" height="512" viewBox="0 0 510 510" width="512" xmlns="http://www.w3.org/2000/svg" xmlns:xlink="http://www.w3.org/1999/xlink"><linearGradient id="SVGID_1_" gradientTransform="matrix(.86 .511 -.511 .86 163.645 -123.789)" gradientUnits="userSpaceOnUse" x1="170.173" x2="434.807" y1="296.471" y2="296.471"><stop offset="0" stop-color="#eaf6ff"/><stop offset=".5213" stop-color="#d8ecfe"/><stop offset="1" stop-color="#b3dafe"/></linearGradient><linearGradient id="lg1"><stop offset="0" stop-color="#d8ecfe"/><stop offset=".5667" stop-color="#b3dafe"/><stop offset=".9955" stop-color="#8ac9fe"/></linearGradient><linearGradient id="SVGID_2_" gradientUnits="userSpaceOnUse" x1="-52.394" x2="480.079" xlink:href="#lg1" y1="292.894" y2="292.894"/><linearGradient id="SVGID_3_" gradientUnits="userSpaceOnUse" x1="-52.394" x2="480.079" xlink:href="#lg1" y1="133.858" y2="133.858"/><linearGradient id="lg2"><stop offset="0" stop-color="#fe646f"/><stop offset=".5213" stop-color="#e41f2d"/><stop offset="1" stop-color="#c41926"/></linearGradient><linearGradient id="SVGID_4_" gradientUnits="userSpaceOnUse" x1="30.102" x2="587.018" xlink:href="#lg2" y1="414.72" y2="414.72"/><linearGradient id="SVGID_5_" gradientUnits="userSpaceOnUse" x1="30.102" x2="587.018" xlink:href="#lg2" y1="260.47" y2="260.47"/><linearGradient id="SVGID_6_" gradientUnits="userSpaceOnUse" x1="30.102" x2="587.018" xlink:href="#lg2" y1="108.155" y2="108.155"/><linearGradient id="SVGID_7_" gradientUnits="userSpaceOnUse" x1="30.102" x2="587.018" xlink:href="#lg2" y1="50.78" y2="50.78"/><linearGradient id="SVGID_8_" gradientUnits="userSpaceOnUse" x1="30.102" x2="587.018" xlink:href="#lg2" y1="160.515" y2="160.515"/><linearGradient id="SVGID_9_" gradientUnits="userSpaceOnUse" x1="-190" x2="457.25" xlink:href="#lg2" y1="429.81" y2="429.81"/><linearGradient id="SVGID_10_" gradientUnits="userSpaceOnUse" x1="-190" x2="457.25" xlink:href="#lg2" y1="275.56" y2="275.56"/><linearGradient id="SVGID_11_" gradientUnits="userSpaceOnUse" x1="-190" x2="457.25" xlink:href="#lg2" y1="128.655" y2="128.655"/><linearGradient id="SVGID_12_" gradientUnits="userSpaceOnUse" x1="-190" x2="457.25" xlink:href="#lg2" y1="27.735" y2="27.735"/><linearGradient id="SVGID_13_" gradientUnits="userSpaceOnUse" x1="-190" x2="457.25" xlink:href="#lg2" y1="161.065" y2="161.065"/><linearGradient id="lg3"><stop offset="0" stop-color="#97d729"/><stop offset=".5652" stop-color="#02905d"/><stop offset=".9955" stop-color="#026841"/></linearGradient><linearGradient id="SVGID_14_" gradientTransform="matrix(.844 .536 -.536 .844 149.789 -67.143)" gradientUnits="userSpaceOnUse" x1="36.26" x2="205.914" xlink:href="#lg3" y1="190.958" y2="191.528"/><linearGradient id="SVGID_15_" gradientTransform="matrix(.844 .536 -.536 .844 149.789 -67.143)" gradientUnits="userSpaceOnUse" x1="-17.468" x2="207.298" xlink:href="#lg3" y1="191.164" y2="191.164"/><linearGradient id="SVGID_16_" gradientTransform="matrix(.844 .536 -.536 .844 149.789 -67.143)" gradientUnits="userSpaceOnUse" x1="186.017" x2="392.024" xlink:href="#lg3" y1="191.165" y2="191.165"/><linearGradient id="SVGID_17_" gradientTransform="matrix(.844 .536 -.536 .844 149.789 -67.143)" gradientUnits="userSpaceOnUse" x1="159.199" x2="366.833" xlink:href="#lg3" y1="191.165" y2="191.165"/><linearGradient id="SVGID_19_" gradientTransform="matrix(.844 .536 -.536 .844 149.789 -67.143)" gradientUnits="userSpaceOnUse" x1="68.017" x2="315.825" xlink:href="#lg3" y1="279.758" y2="279.758"/><linearGradient id="SVGID_20_" gradientTransform="matrix(.844 .536 -.536 .844 149.789 -67.143)" gradientUnits="userSpaceOnUse" x1="-1.468" x2="297" xlink:href="#lg3" y1="279.759" y2="279.759"/><linearGradient id="SVGID_21_" gradientTransform="matrix(.844 .536 -.536 .844 149.789 -67.143)" gradientUnits="userSpaceOnUse" x1="150.374" x2="268.527" xlink:href="#lg3" y1="226.349" y2="226.349"/><linearGradient id="SVGID_22_" gradientTransform="matrix(.844 .536 -.536 .844 149.789 -67.143)" gradientUnits="userSpaceOnUse" x1="87.866" x2="276.248" xlink:href="#lg3" y1="226.349" y2="226.349"/><g><g><path d="m52.214 510c-6.569 0-13.222-1.708-19.283-5.3-18.005-10.669-23.952-33.914-13.283-51.919l229.934-388.036c37.284-62.762 118.631-83.479 181.358-46.217 62.727 37.263 83.444 118.61 46.182 181.337l-29.287 49.301c-10.688 17.993-33.939 23.915-51.934 13.226-17.993-10.689-23.914-33.94-13.226-51.934l29.287-49.301c7.711-12.981 9.906-28.188 6.18-42.82-3.727-14.632-12.929-26.937-25.91-34.648-26.796-15.918-61.549-7.067-77.468 19.73l-229.913 387.998c-7.078 11.944-19.691 18.583-32.637 18.583z" fill="url(#SVGID_1_)"/><g><path d="m274.743 103.418-229.912 387.999c-3.214 5.424-7.577 9.741-12.587 12.852.23.143.454.293.688.431 6.061 3.592 12.714 5.3 19.283 5.3 12.946 0 25.559-6.639 32.637-18.583l229.912-387.999c6.8-11.447 17.041-19.605 28.626-23.971-25.181-9.566-54.427.033-68.647 23.971z" fill="url(#SVGID_2_)"/><path d="m430.94 18.528c-27.328-16.234-58.188-21.459-87.401-17.001 16.287 2.494 32.367 8.083 47.381 17.001 62.727 37.263 83.444 118.61 46.182 181.337l-29.287 49.301c-3.212 5.407-7.563 9.715-12.561 12.819.217.135.427.276.647.407 17.995 10.69 41.246 4.767 51.934-13.226l29.287-49.301c37.262-62.727 16.545-144.074-46.182-181.337z" fill="url(#SVGID_3_)"/></g><g><path d="m30.83 433.92 55.31 55.31 55.53-93.71-55.31-55.31z" fill="url(#SVGID_4_)"/><path d="m122.23 279.67 55.32 55.31 55.53-93.71-55.32-55.31z" fill="url(#SVGID_5_)"/><path d="m249.58 64.75-35.95 60.66 55.32 55.32 45.81-77.31c3.27-5.5 7.33-10.24 11.95-14.16l-53.68-53.68c-8.95 8.37-16.88 18.12-23.45 29.17z" fill="url(#SVGID_6_)"/><path d="m410.83 101.55 32.72-74.52c-3.99-3.04-8.2-5.88-12.61-8.5-20.75-12.32-43.53-18.31-66.07-18.52l-14.24 77.23c13.7-3.17 28.59-1.28 41.6 6.45 7.62 4.52 13.93 10.63 18.6 17.86z" fill="url(#SVGID_7_)"/><path d="m494.99 119.37-77.18-2.29c.11.42.22.84.33 1.26 3.73 14.63 1.53 29.84-6.18 42.82l-13.35 22.47 76.08 20.32 2.43-4.09c14.96-25.18 20.57-53.36 17.87-80.49z" fill="url(#SVGID_8_)"/></g><g><path d="m61.02 464.11 25.12 25.12 55.53-93.71-25.13-25.13z" fill="url(#SVGID_9_)"/><path d="m152.42 309.85 25.13 25.13 55.53-93.71-25.13-25.13z" fill="url(#SVGID_10_)"/><path d="m274.74 103.42-30.92 52.18 25.13 25.13 45.81-77.31c3.27-5.5 7.33-10.24 11.95-14.16l-12.68-12.68c-15.84 2.65-30.46 11.98-39.29 26.84z" fill="url(#SVGID_11_)"/><path d="m430.94 18.53c-20.75-12.32-43.53-18.31-66.07-18.52l-1.16 6.27c9.32 2.97 18.45 7.04 27.21 12.25 16.32 9.69 29.8 22.37 40.15 36.93l12.48-28.43c-3.99-3.04-8.2-5.88-12.61-8.5z" fill="url(#SVGID_12_)"/><path d="m494.99 119.37-40.14-1.19c2.79 25.65-1.87 52.31-14.84 76.51l34.68 9.26 2.43-4.09c14.96-25.18 20.57-53.36 17.87-80.49z" fill="url(#SVGID_13_)"/></g></g><g><path d="m189.425 254.166-93.398-59.317c-27.377-17.387-35.504-53.805-18.117-81.182s53.805-35.504 81.182-18.117l4.651 2.954c48.935 31.079 63.463 96.175 32.384 145.111zm-43.736-137.512c-15.74-9.997-36.679-5.324-46.675 10.416s-5.324 36.679 10.416 46.675l71.472 45.392c15.437-35.533 3.148-78.121-30.563-99.53z" fill="url(#SVGID_14_)"/><g><path d="m212.438 190.249c.971-35.775-16.337-71.195-48.693-91.744l-4.651-2.954c-2.389-1.517-4.843-2.839-7.348-3.968 23.744 18.875 37.443 46.535 39.381 75.314.192 2.846-2.489 4.986-5.239 4.23l-.056-.015c3.249 15.794 1.779 32.582-4.924 48.025l-45.879-29.138c-.258.369-.513.752-.76 1.14-4.621 7.277-6.978 15.352-7.249 23.389l62.408 39.635 6.701-10.552c10.533-16.587 15.831-35.019 16.309-53.362z" fill="url(#SVGID_15_)"/></g><path d="m181.437 234.285c31.079-48.935 96.175-63.463 145.111-32.384l4.651 2.954c27.377 17.387 35.504 53.805 18.117 81.182s-53.805 35.504-81.182 18.117l-93.398-59.317zm131.708-11.28c-33.711-21.41-77.483-14.426-103.081 14.653l71.472 45.392c15.74 9.997 36.679 5.324 46.675-10.416 9.997-15.74 5.324-36.679-10.416-46.675z" fill="url(#SVGID_16_)"/><g fill="url(#SVGID_17_)"><path d="m296.682 212.55-4.651-2.954c-33.711-21.41-77.483-14.426-103.081 14.653l21.113 13.409c23.02-26.15 60.733-34.418 92.613-20.251-1.772-1.805-3.768-3.444-5.994-4.857z"/><path d="m331.198 204.855-4.651-2.954c-3.193-2.028-6.457-3.857-9.773-5.5 21.414 18.289 27.04 49.79 12.434 74.55-.316.566-.645 1.128-.997 1.682s-.721 1.091-1.099 1.617c-17.778 26.059-53.269 33.529-80.092 16.494l21.113 13.409c27.377 17.387 63.795 9.26 81.182-18.117 17.387-27.376 9.26-63.794-18.117-81.181z"/></g><path d="m247.81 365.351c-4.018-18.006-14.808-33.369-30.382-43.26-20.513-13.028-26.602-40.314-13.574-60.826l5.414-8.525c3.701-5.827 1.977-13.552-3.85-17.253-5.029-3.194-11.465-2.34-15.514 1.697 1.932-5.381-.032-11.57-5.06-14.763-5.827-3.701-13.552-1.977-17.253 3.85l-5.414 8.525c-13.027 20.512-40.313 26.602-60.826 13.574-15.574-9.891-34.067-13.125-52.072-9.107-6.738 1.504-10.981 8.185-9.477 14.923.751 3.369 2.798 6.114 5.498 7.829 2.701 1.715 6.055 2.4 9.424 1.648 11.488-2.564 23.287-.5 33.224 5.81 30.304 19.246 70.033 11.861 91.595-15.975-16.028 31.35-5.82 70.45 24.483 89.696 9.937 6.311 16.821 16.113 19.385 27.602.751 3.369 2.798 6.114 5.498 7.829 2.701 1.715 6.055 2.4 9.424 1.648 6.737-1.503 10.98-8.184 9.477-14.922z" fill="url(#SVGID_19_)"/><path d="m247.805 365.351c-4.011-18.007-14.808-33.37-30.382-43.261-10.332-6.562-17.003-16.745-19.419-27.863-2.376-10.939-.613-22.779 5.852-32.959l5.218-8.215c3.647-5.743 2.319-13.498-3.301-17.332-5.079-3.465-11.727-2.672-15.869 1.464 1.936-5.381-.032-11.57-5.063-14.766-.085-.054-.177-.113-.267-.158-5.792-3.489-13.341-1.732-16.986 4.008l-5.415 8.526c-6.466 10.18-16.433 16.81-27.344 19.31.001.017.002.034.004.051.233 3.148-1.496 6.118-4.411 7.329-20.111 8.355-43.85 7.118-63.592-5.42-8.188-5.2-17.647-7.523-27.151-6.736-.273 1.568-.248 3.207.122 4.863.752 3.368 2.799 6.113 5.5 7.829 2.594 1.648 5.804 2.344 9.047 1.721 11.525-2.215 23.519-.715 33.405 5.61 17.153 10.975 37.36 13.391 55.576 8.358 2.609-.713 5.175-1.582 7.677-2.611 10.984-4.444 20.899-11.735 28.536-21.597-6.974 13.648-8.977 28.759-6.516 43.069.528.095 1.058.181 1.588.258 5.832.845 11.305 3.289 15.665 7.253 1.845 1.677 3.858 3.219 6.033 4.6 15.574 9.891 26.371 25.254 30.382 43.261 1.133 5.079-1.004 10.142-5.028 12.953.716 1.912 1.301 3.883 1.745 5.906.752 3.368 2.799 6.113 5.492 7.824 2.701 1.716 6.057 2.401 9.425 1.65 6.748-1.507 10.989-8.184 9.477-14.925z" fill="url(#SVGID_20_)"/><g><circle cx="194.75" cy="229.552" fill="url(#SVGID_21_)" r="46.643"/><path d="m219.756 190.179c-3.658-2.323-7.519-4.06-11.473-5.261 13.686 15.169 16.215 38.145 4.727 56.232-11.487 18.087-33.359 25.567-52.907 19.629 2.768 3.068 5.982 5.824 9.64 8.147 21.745 13.811 50.569 7.378 64.38-14.367 13.811-21.746 7.379-50.57-14.367-64.38z" fill="url(#SVGID_22_)"/></g></g></g></svg>