<svg id="Capa_1" enable-background="new 0 0 510.001 510.001" height="512" viewBox="0 0 510.001 510.001" width="512" xmlns="http://www.w3.org/2000/svg" xmlns:xlink="http://www.w3.org/1999/xlink"><linearGradient id="lg1"><stop offset="0" stop-color="#fe646f"/><stop offset=".5213" stop-color="#e41f2d"/><stop offset="1" stop-color="#c41926"/></linearGradient><linearGradient id="SVGID_1_" gradientUnits="userSpaceOnUse" x1="148.001" x2="639.321" xlink:href="#lg1" y1="298.439" y2="298.439"/><linearGradient id="SVGID_2_" gradientUnits="userSpaceOnUse" x1="-35.895" x2="474.089" xlink:href="#lg1" y1="298.438" y2="298.438"/><linearGradient id="lg2"><stop offset="0" stop-color="#97d729"/><stop offset=".6039" stop-color="#02905d"/><stop offset=".9955" stop-color="#026841"/></linearGradient><linearGradient id="SVGID_3_" gradientUnits="userSpaceOnUse" x1="27.102" x2="486.631" xlink:href="#lg2" y1="292.827" y2="292.827"/><linearGradient id="SVGID_4_" gradientUnits="userSpaceOnUse" x1="96.001" x2="332.034" y1="293.166" y2="293.166"><stop offset="0" stop-color="#eaf6ff"/><stop offset=".5213" stop-color="#d8ecfe"/><stop offset="1" stop-color="#b3dafe"/></linearGradient><linearGradient id="SVGID_5_" gradientUnits="userSpaceOnUse" x1="-3" x2="402.9" xlink:href="#lg2" y1="293.076" y2="293.076"/><linearGradient id="lg3"><stop offset="0" stop-color="#fef056"/><stop offset=".5213" stop-color="#f4d902"/><stop offset="1" stop-color="#fe9738"/></linearGradient><linearGradient id="SVGID_6_" gradientUnits="userSpaceOnUse" x1="308.001" x2="433.421" xlink:href="#lg3" y1="152.45" y2="152.45"/><linearGradient id="SVGID_7_" gradientUnits="userSpaceOnUse" x1="271.001" x2="509.001" xlink:href="#lg3" y1="93.215" y2="93.215"/><linearGradient id="SVGID_8_" gradientUnits="userSpaceOnUse" x1="148.667" x2="400.015" xlink:href="#lg3" y1="51.275" y2="51.275"/><linearGradient id="SVGID_9_" gradientUnits="userSpaceOnUse" x1="240.501" x2="421.111" xlink:href="#lg3" y1="115.715" y2="115.715"/><g><path d="m509.976 274.303-3.473-130.665c-.773-29.089-24.172-52.489-53.262-53.262l-130.665-3.473c-19.175-.51-37.717 6.884-51.28 20.447l-175.529 175.527c-11.852 11.852-11.852 31.068 0 42.92l175.313 175.314c11.852 11.852 31.068 11.852 42.92 0l175.528-175.528c13.564-13.564 20.958-32.105 20.448-51.28zm-73.828-77.934c-19.683 0-35.639-15.956-35.639-35.639s15.956-35.639 35.639-35.639 35.639 15.956 35.639 35.639-15.956 35.639-35.639 35.639z" fill="url(#SVGID_1_)"/><path d="m509.976 274.303-3.473-130.665c-.773-29.089-24.172-52.489-53.262-53.262l-130.665-3.473c-4.06-.108-8.087.159-12.049.744l102.694 2.73c28.501.758 51.525 23.239 53.172 51.508 3.415 5.468 5.394 11.924 5.394 18.846 0 6.218-1.596 12.061-4.395 17.15l2.563 96.423c.51 19.175-6.884 37.717-20.447 51.28l-175.527 175.527c-.471.471-.957.916-1.45 1.349 11.921 10.477 30.089 10.032 41.47-1.349l175.528-175.528c13.563-13.564 20.957-32.105 20.447-51.28z" fill="url(#SVGID_2_)"/><path d="m434.321 268.051-3.566-134.131c-.794-29.861-24.814-53.881-54.675-54.675l-134.13-3.565c-19.684-.523-38.717 7.066-52.64 20.989l-180.185 180.184c-12.166 12.167-12.166 31.892 0 44.059l179.964 179.963c12.167 12.167 31.892 12.167 44.059 0l180.184-180.184c13.923-13.923 21.512-32.957 20.989-52.64zm-79.893-76.84c-19.683 0-35.639-15.956-35.639-35.639s15.956-35.639 35.639-35.639 35.639 15.956 35.639 35.639-15.956 35.639-35.639 35.639z" fill="url(#SVGID_3_)"/><path d="m300.891 227.162 5.228-5.228c2.928-2.928 1.674-9.62-2.3-13.594-4.601-4.601-10.665-5.228-13.594-2.3l-5.855 5.855c-25.304-19.031-57.719-25.932-84.279.628-26.768 26.768-13.175 58.346-1.254 84.905l-33.879 33.879c-12.757-18.194-7.528-37.644-16.312-46.427-7.947-7.947-24.676-3.764-31.787 3.347-13.384 13.384-5.855 46.844 18.404 72.776l-5.228 5.228c-2.928 2.928-2.301 8.993 2.3 13.594 3.973 3.973 10.665 5.228 13.594 2.3l6.065-6.065c28.441 20.495 60.856 21.541 86.787-4.391 28.232-28.232 15.894-60.23 3.974-86.37l30.532-30.532c12.548 14.639 9.83 25.304 16.731 32.205 9.202 9.202 24.468 1.464 30.114-4.182 14.429-14.43-6.693-42.244-19.241-55.628zm-95.99 117.321c-7.528 7.528-17.148 5.855-25.931.418l28.023-28.023c3.974 11.083 4.81 20.704-2.092 27.605zm29.069-78.005c-4.601-11.293-6.273-20.495-.208-26.56 5.019-5.019 13.803-5.855 25.095 1.673z" fill="url(#SVGID_4_)"/><path d="m434.321 268.05-3.24-122.07-.32-12.06c-.56-20.94-12.54-39.01-29.95-48.21-7.42-3.92-15.81-6.23-24.73-6.46l-116.34-3.1c-.08.35-.14.71-.2 1.06-1.03 5.54-1.56 11.25-1.56 17.08 0 22.34 7.82 42.9 20.86 59.07 13.28 16.49 32 28.43 53.41 33.07 2.17.48 4.36.88 6.58 1.19-1.54-.75-3.01-1.6-4.41-2.56-9.44-6.4-15.63-17.22-15.63-29.49 0-7.5 2.32-14.46 6.28-20.2-5.94-3.94-10.98-9.14-14.73-15.21-4.67-7.52-7.36-16.39-7.36-25.87 0-5.54.92-10.88 2.61-15.85l30.47.81c23.48.622 43.354 15.614 51.151 36.513 2.341 6.274.464 13.429-4.837 17.522l-.084.065c4.87 6.09 7.78 13.82 7.78 22.22 0 13.2-7.17 24.71-17.82 30.87.069-.015.137-.03.206-.045 10.132-2.207 19.807 5.183 20.083 15.549l1.761 66.105c.52 19.68-7.07 38.72-20.99 52.64l-180.18 180.19c-.65.65-1.32 1.27-2.02 1.84 12.24 10.29 30.52 9.67 42.04-1.84l180.18-180.19c13.92-13.919 21.51-32.959 20.99-52.639z" fill="url(#SVGID_5_)"/><g><path d="m436.151 125.09c-1.97 0-3.91.16-5.79.47-.12.15-.24.3-.37.45.44 2.58.7 5.22.77 7.91l1.22 45.89c15.13-7.05 28.08-17.99 37.57-31.53-5.05-13.54-18.101-23.19-33.4-23.19z" fill="url(#SVGID_6_)"/><path d="m392.291 0c-46.16 0-84.68 33.34-92.73 77.21-.82 4.38-1.32 8.88-1.49 13.45-.05 1.2-.07 2.41-.07 3.63 0 22.34 7.82 42.9 20.86 59.07 13.28 16.49 32 28.43 53.41 33.07 10.64-6.16 17.8-17.67 17.8-30.86 0-4.28-.75-8.38-2.14-12.18-15.87-1.4-29.61-10.35-37.57-23.23-4.67-7.52-7.36-16.39-7.36-25.87 0-2.32.16-4.6.47-6.83.43-3.11 1.16-6.13 2.14-9.02 6.62-19.43 25.04-33.44 46.68-33.44 25.76 0 46.96 19.85 49.11 45.06l11.84.32c12.48.33 23.93 4.83 32.98 12.17.24-2.72.36-5.48.36-8.26 0-51.99-42.3-94.29-94.29-94.29z" fill="url(#SVGID_7_)"/></g><g><path d="m392.291 0c-4.24 0-8.42.28-12.52.83 45.12 5.99 80.26 44.02 81.75 90.4 9.25 1.66 17.69 5.64 24.7 11.32.24-2.72.36-5.48.36-8.26 0-51.99-42.3-94.29-94.29-94.29z" fill="url(#SVGID_8_)"/></g><path d="m387.93 143.39c-15.87-1.4-29.61-10.35-37.57-23.23-4.67-7.52-7.36-16.39-7.36-25.87 0-2.32.16-4.6.47-6.83.43-3.11 1.16-6.13 2.14-9.02 5.297-15.548 18.155-27.617 34.168-31.823-3.994-1.047-8.18-1.617-12.498-1.617-21.64 0-40.06 14.01-46.68 33.44-.98 2.89-1.71 5.91-2.14 9.02-.31 2.23-.47 4.51-.47 6.83 0 9.48 2.69 18.35 7.36 25.87 6.533 10.571 16.959 18.495 29.261 21.77 6.098 1.624 10.427 7.201 10.449 13.512v.128c0 9.82-3.973 18.704-10.392 25.147 5.609 2.45 11.491 4.388 17.603 5.712 10.64-6.16 17.8-17.67 17.8-30.86 0-4.279-.75-8.379-2.141-12.179z" fill="url(#SVGID_9_)"/></g></svg>