<svg id="Capa_1" enable-background="new 0 0 510 510" height="512" viewBox="0 0 510 510" width="512" xmlns="http://www.w3.org/2000/svg" xmlns:xlink="http://www.w3.org/1999/xlink"><linearGradient id="lg1"><stop offset="0" stop-color="#e19974"/><stop offset=".9518" stop-color="#8c3d27"/></linearGradient><linearGradient id="SVGID_1_" gradientUnits="userSpaceOnUse" x1="40.613" x2="482" xlink:href="#lg1" y1="364.93" y2="364.93"/><linearGradient id="SVGID_2_" gradientUnits="userSpaceOnUse" x1="76.748" x2="433.252" xlink:href="#lg1" y1="353.901" y2="353.901"/><linearGradient id="SVGID_3_" gradientUnits="userSpaceOnUse" x1="-7" x2="370.573" xlink:href="#lg1" y1="353.903" y2="353.903"/><linearGradient id="lg2"><stop offset="0" stop-color="#ffdcbd"/><stop offset=".0028" stop-color="#ffdcbd"/><stop offset="1" stop-color="#ffa9b1"/></linearGradient><linearGradient id="SVGID_4_" gradientUnits="userSpaceOnUse" x1="142.063" x2="367.937" xlink:href="#lg2" y1="346.777" y2="346.777"/><linearGradient id="lg3"><stop offset="0" stop-color="#ffc2b5"/><stop offset="1" stop-color="#ff89a8"/></linearGradient><linearGradient id="SVGID_5_" gradientUnits="userSpaceOnUse" x1="149.36" x2="367.94" xlink:href="#lg3" y1="346.775" y2="346.775"/><linearGradient id="SVGID_6_" gradientUnits="userSpaceOnUse" x1="70.78" x2="226.836" xlink:href="#lg1" y1="66.662" y2="66.662"/><linearGradient id="SVGID_7_" gradientUnits="userSpaceOnUse" x1="10" x2="202.751" xlink:href="#lg1" y1="72.907" y2="72.907"/><linearGradient id="SVGID_8_" gradientUnits="userSpaceOnUse" x1="95.398" x2="191.287" xlink:href="#lg2" y1="66.662" y2="66.662"/><linearGradient id="SVGID_9_" gradientUnits="userSpaceOnUse" x1="100.267" x2="190.335" xlink:href="#lg3" y1="67.882" y2="67.882"/><linearGradient id="SVGID_10_" gradientUnits="userSpaceOnUse" x1="311.516" x2="467.572" xlink:href="#lg1" y1="66.662" y2="66.662"/><linearGradient id="SVGID_11_" gradientUnits="userSpaceOnUse" x1="155" x2="460.591" xlink:href="#lg1" y1="72.907" y2="72.907"/><linearGradient id="SVGID_12_" gradientUnits="userSpaceOnUse" x1="336.134" x2="432.023" xlink:href="#lg2" y1="66.662" y2="66.662"/><linearGradient id="SVGID_13_" gradientUnits="userSpaceOnUse" x1="336.029" x2="426.097" xlink:href="#lg3" y1="67.882" y2="67.882"/><linearGradient id="SVGID_14_" gradientUnits="userSpaceOnUse" x1="107.708" x2="467.694" xlink:href="#lg1" y1="170.036" y2="170.036"/><linearGradient id="SVGID_15_" gradientUnits="userSpaceOnUse" x1="20" x2="440" xlink:href="#lg1" y1="170.036" y2="170.036"/><linearGradient id="lg4"><stop offset="0" stop-color="#766e6e"/><stop offset=".1978" stop-color="#676464"/><stop offset=".4488" stop-color="#5a5a5a"/><stop offset=".482" stop-color="#575858"/><stop offset=".799" stop-color="#404d4d"/><stop offset="1" stop-color="#384949"/></linearGradient><linearGradient id="SVGID_16_" gradientUnits="userSpaceOnUse" x1="168.206" x2="235.273" xlink:href="#lg4" y1="125.106" y2="125.106"/><linearGradient id="SVGID_17_" gradientUnits="userSpaceOnUse" x1="296.055" x2="363.122" xlink:href="#lg4" y1="125.106" y2="125.106"/><linearGradient id="SVGID_18_" gradientUnits="userSpaceOnUse" x1="198.212" x2="372.953" y1="365.16" y2="365.16"><stop offset="0" stop-color="#97d729"/><stop offset=".5652" stop-color="#02905d"/><stop offset=".9955" stop-color="#026841"/></linearGradient><linearGradient id="lg5"><stop offset="0" stop-color="#fe646f"/><stop offset=".5213" stop-color="#e41f2d"/><stop offset="1" stop-color="#c41926"/></linearGradient><linearGradient id="SVGID_19_" gradientUnits="userSpaceOnUse" x1="186.568" x2="356.493" xlink:href="#lg5" y1="325.94" y2="325.94"/><linearGradient id="SVGID_20_" gradientUnits="userSpaceOnUse" x1="79" x2="304.125" xlink:href="#lg5" y1="324.528" y2="324.528"/><linearGradient id="SVGID_21_" gradientUnits="userSpaceOnUse" x1="146.705" x2="411.382" xlink:href="#lg2" y1="247.318" y2="247.318"/><linearGradient id="SVGID_22_" gradientUnits="userSpaceOnUse" x1="237.795" x2="393.555" xlink:href="#lg3" y1="247.318" y2="247.318"/><linearGradient id="SVGID_23_" gradientUnits="userSpaceOnUse" x1="223.572" x2="303.138" xlink:href="#lg5" y1="166.968" y2="166.968"/><linearGradient id="SVGID_24_" gradientUnits="userSpaceOnUse" x1="40.613" x2="179.937" xlink:href="#lg1" y1="448.995" y2="448.995"/><linearGradient id="SVGID_25_" gradientUnits="userSpaceOnUse" x1="-13.45" x2="164.553" xlink:href="#lg1" y1="448.995" y2="448.995"/><linearGradient id="SVGID_26_" gradientUnits="userSpaceOnUse" x1="70.983" x2="149.568" xlink:href="#lg2" y1="473.386" y2="473.386"/><linearGradient id="SVGID_27_" gradientUnits="userSpaceOnUse" x1="330.063" x2="469.387" xlink:href="#lg1" y1="448.995" y2="448.995"/><linearGradient id="SVGID_28_" gradientUnits="userSpaceOnUse" x1="276" x2="454.003" xlink:href="#lg1" y1="448.995" y2="448.995"/><linearGradient id="SVGID_29_" gradientUnits="userSpaceOnUse" x1="360.432" x2="439.018" xlink:href="#lg2" y1="473.386" y2="473.386"/><g><path d="m141.813 510h226.376c19.992 0 39.009-6.814 51.786-18.695 30.505-28.369 48.991-64.73 49.406-104.421.953-91.175-94.848-166.381-212.843-167.02-119.108-.645-215.924 73.768-215.924 165.654 0 40.193 18.531 77.038 49.345 105.724 12.792 11.908 31.825 18.758 51.854 18.758z" fill="url(#SVGID_1_)"/><path d="m160.891 510h188.219c16.622 0 32.434-7.332 43.057-20.117 25.364-30.526 40.733-69.65 41.078-112.359.793-98.106-78.861-179.029-176.968-179.717-99.032-.694-179.53 79.376-179.53 178.247 0 43.249 15.407 82.895 41.028 113.761 10.638 12.815 26.462 20.185 43.116 20.185z" fill="url(#SVGID_2_)"/><path d="m433.25 377.52c-.1 12.63-1.52 24.94-4.12 36.8-6.19 28.29-19.1 54.06-36.96 75.56-10.63 12.79-26.44 20.12-43.06 20.12h-40.02.184c7.615-.025 12.168-8.569 8.063-14.983-5.911-9.236-12.288-22.81-12.288-37.367 0-38.64 31.46-69.93 70.16-69.66 6.03.04 11.88.86 17.46 2.36.34-4.24.53-8.52.56-12.83.158-19.851-2.974-39.001-8.887-56.925-4.167-12.631-19.696-16.94-29.831-8.326-.067.057-.134.114-.202.171-19.17 26.07-56.46 43.75-99.31 43.75s-80.14-17.68-99.31-43.75c-16-13.55-29.21-30.33-38.6-49.32 28.71-35.02 70.48-58.9 117.87-64.2 6.99-.78 14.11-1.16 21.32-1.11 54.92.38 104.05 25.9 136.53 65.51 25.541 31.15 40.791 71.01 40.441 114.2z" fill="url(#SVGID_3_)"/><circle cx="255" cy="346.777" fill="url(#SVGID_4_)" r="112.937"/><path d="m367.94 346.78c0 15.18-2.99 29.66-8.43 42.88-10.35 25.2-29.56 45.84-53.75 58.01-15.26 7.71-32.51 12.04-50.76 12.04-6.83 0-13.51-.61-20.01-1.76 32.511-5.815 60.201-25.541 76.692-52.797 14.371-23.754-4.81-53.662-32.401-50.571-8.558.959-17.034 1.609-24.281 1.609-42.85 0-80.14-17.68-99.31-43.75-2.16-1.83-4.27-3.72-6.33-5.67 13.86-36.6 46.2-64.11 85.63-71.17 6.5-1.15 13.18-1.76 20.01-1.76 48.96 0 90.64 31.15 106.31 74.72 4.29 11.939 6.63 24.799 6.63 38.219z" fill="url(#SVGID_5_)"/><g><circle cx="134.632" cy="66.662" fill="url(#SVGID_6_)" r="66.662"/><path d="m86.932 113.208c12.106 12.404 28.998 20.115 47.7 20.115 36.816 0 66.662-29.845 66.662-66.662 0-22.325-10.986-42.073-27.835-54.171-40.423 20.966-71.758 57.023-86.527 100.718z" fill="url(#SVGID_7_)"/><circle cx="134.632" cy="66.662" fill="url(#SVGID_8_)" r="40.961"/><path d="m134.632 107.623c22.622 0 40.961-18.339 40.961-40.961 0-17.723-11.258-32.814-27.011-38.521-20.577 15.455-37.68 35.279-49.937 58.097 6.945 12.74 20.456 21.385 35.987 21.385z" fill="url(#SVGID_9_)"/></g><g><circle cx="375.368" cy="66.662" fill="url(#SVGID_10_)" r="66.662"/><path d="m423.068 113.208c-14.769-43.695-46.104-79.752-86.527-100.717-16.849 12.098-27.835 31.845-27.835 54.171 0 36.816 29.846 66.662 66.662 66.662 18.702 0 35.594-7.712 47.7-20.116z" fill="url(#SVGID_11_)"/><circle cx="375.368" cy="66.662" fill="url(#SVGID_12_)" r="40.961"/></g><path d="m411.355 86.238c-12.256-22.818-29.36-42.643-49.937-58.097-15.754 5.706-27.011 20.798-27.011 38.521 0 22.622 18.339 40.961 40.961 40.961 15.531 0 29.042-8.645 35.987-21.385z" fill="url(#SVGID_13_)"/><circle cx="255" cy="170.036" fill="url(#SVGID_14_)" r="153.774"/><path d="m255 16.262c-6.782 0-13.46.444-20.01 1.295 75.472 9.808 133.764 74.334 133.764 152.479s-58.292 142.671-133.764 152.479c6.55.851 13.228 1.295 20.01 1.295 84.927 0 153.774-68.847 153.774-153.774s-68.847-153.774-153.774-153.774z" fill="url(#SVGID_15_)"/><g><circle cx="191.075" cy="125.106" fill="url(#SVGID_16_)" r="24.713"/><circle cx="318.925" cy="125.106" fill="url(#SVGID_17_)" r="24.713"/></g><g><path d="m323.07 383.34-53.74-53.74-1.85-1.85c-1.7-1.69-3.92-2.74-6.3-2.97l-6.18-.61-6.18.61c-2.38.23-4.6 1.28-6.3 2.97l-1.85 1.85-53.74 53.74c-.24.25-.36.56-.36.88s.12.64.36.88c.26.26.63.39 1 .36l15.94-1.56c2.84-.28 5.23 2.11 4.95 4.95l-1.56 15.94c-.03.37.1.73.36 1 .48.48 1.27.48 1.75 0l35.971-35.964c5.335-5.334 13.983-5.334 19.317 0l35.971 35.964c.48.48 1.27.48 1.75 0 .26-.27.39-.63.36-1l-1.56-15.94c-.28-2.84 2.11-5.23 4.95-4.95l15.94 1.56c.37.03.74-.1 1-.36.24-.24.36-.56.36-.88s-.119-.63-.359-.88z" fill="url(#SVGID_18_)"/><path d="m323.372 306.948c-.877-13.155-11.643-23.781-24.808-24.499-13.975-.762-25.734 9.375-27.566 22.679-4.43-3.411-9.975-5.443-15.998-5.443s-11.568 2.033-15.998 5.443c-1.832-13.304-13.592-23.441-27.566-22.679-13.165.718-23.931 11.344-24.808 24.499-.397 5.952 1.185 11.516 4.153 16.1 1.145 1.77 1.145 4.013 0 5.782-2.967 4.584-4.549 10.148-4.153 16.1.877 13.155 11.643 23.781 24.808 24.499 13.975.762 25.734-9.375 27.566-22.679 4.43 3.41 9.975 5.443 15.998 5.443s11.568-2.033 15.998-5.443c1.832 13.305 13.592 23.442 27.566 22.679 13.165-.718 23.931-11.344 24.808-24.499.397-5.952-1.185-11.516-4.153-16.1-1.145-1.77-1.145-4.013 0-5.782 2.968-4.584 4.55-10.148 4.153-16.1z" fill="url(#SVGID_19_)"/><path d="m186.871 339.256c14.254 7.996 31.143 13.537 49.529 15.795 1.299-2.555 2.196-5.349 2.602-8.3 4.43 3.41 9.975 5.443 15.998 5.443s11.568-2.033 15.998-5.443c.412 2.994 1.331 5.826 2.662 8.411 1.863-.177 3.739-.37 5.622-.581 12.292-1.377 22.904 3.805 29.635 12.066 8.077-4.099 13.825-12.253 14.456-21.716.397-5.952-1.185-11.516-4.153-16.1-1.145-1.77-1.145-4.013 0-5.782 2.967-4.584 4.549-10.148 4.153-16.1-.877-13.155-11.643-23.781-24.808-24.499-13.975-.762-25.734 9.375-27.566 22.679-4.43-3.411-9.975-5.443-15.998-5.443s-11.568 2.033-15.998 5.443c-1.832-13.304-13.592-23.441-27.566-22.679-13.165.718-23.931 11.344-24.808 24.499-.397 5.952 1.185 11.516 4.152 16.1 1.145 1.77 1.146 4.013 0 5.782-2 3.088-3.35 6.628-3.91 10.425z" fill="url(#SVGID_20_)"/></g><ellipse cx="255" cy="247.318" fill="url(#SVGID_21_)" rx="113.061" ry="83.866"/><path d="m255 163.452c-6.828 0-13.515.449-20.01 1.31 52.897 7.007 93.051 41.304 93.051 82.556 0 41.253-40.154 75.549-93.051 82.556 6.495.861 13.182 1.31 20.01 1.31 62.442 0 113.061-37.548 113.061-83.866s-50.619-83.866-113.061-83.866z" fill="url(#SVGID_22_)"/><path d="m265.609 139.138h-21.217c-16.553 0-26.899 17.92-18.623 32.255l5.653 9.791c10.479 18.151 36.678 18.151 47.157 0l5.653-9.791c8.276-14.335-2.07-32.255-18.623-32.255z" fill="url(#SVGID_23_)"/><g><g><path d="m73.496 510h73.558c6.496 0 12.676-2.865 16.827-7.862 9.912-11.93 15.919-27.22 16.054-43.911.31-38.341-30.819-69.966-69.161-70.235-38.703-.271-70.162 31.021-70.162 69.661 0 16.902 6.021 32.396 16.034 44.459 4.158 5.008 10.342 7.888 16.85 7.888z" fill="url(#SVGID_24_)"/><path d="m110.775 387.992c-4.458-.031-8.813.375-13.041 1.144 32.639 5.959 57.468 34.834 57.191 69.092-.135 16.691-6.141 31.981-16.054 43.911-4.151 4.997-10.331 7.862-16.827 7.862h25.011c6.496 0 12.676-2.865 16.827-7.862 9.912-11.93 15.919-27.22 16.054-43.911.309-38.341-30.82-69.967-69.161-70.236z" fill="url(#SVGID_25_)"/><ellipse cx="110.275" cy="473.386" fill="url(#SVGID_26_)" rx="39.293" ry="30.614"/></g><g><path d="m362.946 510h73.558c6.496 0 12.676-2.865 16.827-7.862 9.912-11.93 15.919-27.22 16.054-43.911.31-38.341-30.819-69.966-69.16-70.235-38.703-.271-70.162 31.021-70.162 69.661 0 16.902 6.021 32.396 16.034 44.459 4.157 5.008 10.341 7.888 16.849 7.888z" fill="url(#SVGID_27_)"/><path d="m400.224 387.992c-4.458-.031-8.813.375-13.041 1.144 32.639 5.959 57.468 34.834 57.191 69.092-.135 16.691-6.141 31.981-16.054 43.911-4.151 4.997-10.331 7.862-16.827 7.862h25.011c6.496 0 12.676-2.865 16.827-7.862 9.912-11.93 15.919-27.22 16.054-43.911.31-38.341-30.82-69.967-69.161-70.236z" fill="url(#SVGID_28_)"/><ellipse cx="399.725" cy="473.386" fill="url(#SVGID_29_)" rx="39.293" ry="30.614"/></g></g></g></svg>