<svg id="Capa_1" enable-background="new 0 0 510 510" height="512" viewBox="0 0 510 510" width="512" xmlns="http://www.w3.org/2000/svg" xmlns:xlink="http://www.w3.org/1999/xlink"><linearGradient id="lg1"><stop offset="0" stop-color="#eaf6ff"/><stop offset=".5213" stop-color="#d8ecfe"/><stop offset="1" stop-color="#b3dafe"/></linearGradient><linearGradient id="SVGID_1_" gradientUnits="userSpaceOnUse" x1="10.009" x2="678.011" xlink:href="#lg1" y1="439.686" y2="439.686"/><linearGradient id="lg2"><stop offset="0" stop-color="#d8ecfe"/><stop offset=".5667" stop-color="#b3dafe"/><stop offset=".9955" stop-color="#8ac9fe"/></linearGradient><linearGradient id="SVGID_2_" gradientUnits="userSpaceOnUse" x1="28" x2="476.286" xlink:href="#lg2" y1="450.283" y2="450.283"/><linearGradient id="SVGID_3_" gradientUnits="userSpaceOnUse" x1="29.627" x2="364.678" xlink:href="#lg2" y1="459.158" y2="459.158"/><linearGradient id="lg3"><stop offset="0" stop-color="#97d729"/><stop offset=".5652" stop-color="#02905d"/><stop offset=".9955" stop-color="#026841"/></linearGradient><linearGradient id="SVGID_4_" gradientUnits="userSpaceOnUse" x1="72" x2="507.001" xlink:href="#lg3" y1="437.767" y2="437.767"/><linearGradient id="SVGID_5_" gradientUnits="userSpaceOnUse" x1="27" x2="405.699" xlink:href="#lg3" y1="437.768" y2="437.768"/><linearGradient id="lg4"><stop offset="0" stop-color="#fe646f"/><stop offset=".5213" stop-color="#e41f2d"/><stop offset="1" stop-color="#c41926"/></linearGradient><linearGradient id="SVGID_6_" gradientUnits="userSpaceOnUse" x1="70.667" x2="446.029" xlink:href="#lg4" y1="434.425" y2="434.425"/><linearGradient id="SVGID_8_" gradientUnits="userSpaceOnUse" x1="70.667" x2="446.029" xlink:href="#lg4" y1="452.091" y2="452.091"/><linearGradient id="SVGID_9_" gradientUnits="userSpaceOnUse" x1="-12.667" x2="350.843" xlink:href="#lg4" y1="434.425" y2="434.425"/><linearGradient id="SVGID_10_" gradientUnits="userSpaceOnUse" x1="-12.667" x2="350.843" xlink:href="#lg4" y1="418.535" y2="418.535"/><linearGradient id="SVGID_11_" gradientUnits="userSpaceOnUse" x1="-12.667" x2="350.843" xlink:href="#lg4" y1="506.355" y2="506.355"/><linearGradient id="SVGID_12_" gradientUnits="userSpaceOnUse" x1="-12.667" x2="350.843" xlink:href="#lg4" y1="443.375" y2="443.375"/><linearGradient id="SVGID_13_" gradientUnits="userSpaceOnUse" x1="75.099" x2="514.641" xlink:href="#lg1" y1="287.054" y2="287.054"/><linearGradient id="SVGID_14_" gradientUnits="userSpaceOnUse" x1="80.529" x2="275.108" xlink:href="#lg1" y1="375.531" y2="375.531"/><linearGradient id="SVGID_15_" gradientUnits="userSpaceOnUse" x1="81.267" x2="513.29" xlink:href="#lg2" y1="287.055" y2="287.055"/><linearGradient id="lg5"><stop offset="0" stop-color="#766e6e"/><stop offset=".1978" stop-color="#676464"/><stop offset=".4488" stop-color="#5a5a5a"/><stop offset=".482" stop-color="#575858"/><stop offset=".799" stop-color="#404d4d"/><stop offset="1" stop-color="#384949"/></linearGradient><linearGradient id="SVGID_16_" gradientUnits="userSpaceOnUse" x1="155.849" x2="222.916" xlink:href="#lg5" y1="287.055" y2="287.055"/><linearGradient id="SVGID_17_" gradientUnits="userSpaceOnUse" x1="308.411" x2="375.478" xlink:href="#lg5" y1="287.055" y2="287.055"/><linearGradient id="SVGID_18_" gradientUnits="userSpaceOnUse" x1="91.599" x2="499.622" xlink:href="#lg5" y1="101.697" y2="101.697"/><linearGradient id="SVGID_19_" gradientUnits="userSpaceOnUse" x1="-4.397" x2="400.861" xlink:href="#lg5" y1="101.697" y2="101.697"/><linearGradient id="SVGID_20_" gradientUnits="userSpaceOnUse" x1="18.102" x2="541.611" xlink:href="#lg5" y1="180.024" y2="180.024"/><linearGradient id="SVGID_21_" gradientUnits="userSpaceOnUse" x1="-19.396" x2="358.803" xlink:href="#lg5" y1="180.024" y2="180.024"/><linearGradient id="lg6"><stop offset="0" stop-color="#fbc56d"/><stop offset=".5841" stop-color="#fe9738"/><stop offset=".9984" stop-color="#fb2b3a"/></linearGradient><linearGradient id="SVGID_22_" gradientUnits="userSpaceOnUse" x1="219.527" x2="309.384" xlink:href="#lg6" y1="364.385" y2="364.385"/><linearGradient id="SVGID_23_" gradientUnits="userSpaceOnUse" x1="175" x2="308.947" xlink:href="#lg6" y1="367.199" y2="367.199"/><linearGradient id="SVGID_24_" gradientUnits="userSpaceOnUse" x1="175" x2="308.947" xlink:href="#lg6" y1="364.385" y2="364.385"/><g><path d="m483.247 510c28.016 0 37.138-54.973 12.223-73.685-54.017-40.569-141.601-66.942-240.47-66.942s-186.454 26.373-240.47 66.942c-24.915 18.712-15.794 73.685 12.223 73.685z" fill="url(#SVGID_1_)"/><path d="m390.151 392.966c-37.58 17.787-84.391 28.34-135.151 28.34s-97.571-10.553-135.151-28.34c-3.991-1.889-7.99-2.61-11.871-2.35-3.792 1.182-7.536 2.403-11.221 3.672-12.776 7.731-22.265 26.732-22.265 49.941 0 21.662 8.519 41.263 21.643 49.504.095.06.191.12.286.179 17.017 10.647 36.777 16.088 56.849 16.088h203.46c20.072 0 39.832-5.441 56.848-16.087.096-.06.191-.12.286-.179 13.124-8.24 21.643-27.842 21.643-49.504 0-23.21-9.49-42.21-22.266-49.941-3.685-1.269-7.429-2.49-11.22-3.672-3.88-.26-7.879.46-11.87 2.349z" fill="url(#SVGID_2_)"/><path d="m495.47 436.315c-13.741-10.32-29.665-19.716-47.384-27.998 2.511 2.232 4.982 4.487 7.364 6.791 24.915 24.097 15.794 94.892-12.223 94.892h40.02c28.017 0 37.138-54.973 12.223-73.685z" fill="url(#SVGID_3_)"/><path d="m74.492 419.219c0 21.662 8.519 41.263 21.643 49.504 40.607 25.496 96.787 41.277 158.865 41.277s118.258-15.781 158.865-41.277c13.124-8.241 21.643-27.842 21.643-49.504 0-36.007-22.826-61.928-45.357-51.264-37.58 17.787-84.391 28.34-135.151 28.34-50.759 0-97.571-10.553-135.151-28.34-22.531-10.664-45.357 15.257-45.357 51.264z" fill="url(#SVGID_4_)"/><path d="m435.51 419.22c0 21.66-8.52 41.26-21.65 49.5-40.6 25.5-96.78 41.28-158.86 41.28-6.75 0-13.42-.19-20.01-.55 54.1-2.99 102.66-18 138.85-40.73 1.686-1.059 3.296-2.304 4.821-3.717 7.587-7.027-2.666-18.589-10.73-12.114-30.919 24.828-70.192 39.681-112.931 39.681-76.35 0-141.63-47.4-168.02-114.38 1.44-1.86 2.98-3.54 4.6-5.04 8.12-7.43 18.23-9.95 28.27-5.19 32.59 15.42 72.11 25.41 115.14 27.78 6.59.37 13.27.56 20.01.56 45.6 0 88.01-8.52 123.4-23.15 4.01-1.65 7.93-3.38 11.75-5.19 3.48-1.65 6.97-2.42 10.38-2.42 8.39 0 16.32 4.7 22.49 12.65 7.55 9.71 12.49 24.28 12.49 41.03z" fill="url(#SVGID_5_)"/><g><path d="m392.75 366.89c-.87.3-1.73.66-2.6 1.07-13.37 6.32-27.9 11.74-43.37 16.08.36 7.14.55 14.66.55 22.46 0 18.26-1.09 35.65-3.01 50.21-1.93 14.56-4.7 26.29-8.06 33.24-2.01 4.16-4.09 8.17-6.25 12.01 18.35-4.07 35.59-9.6 51.38-16.35 8.64-15.7 14.1-45.97 14.1-79.11 0-14.35-.99-27.75-2.74-39.61z" fill="url(#SVGID_6_)"/><path d="m162.67 406.5c0-7.8.19-15.32.55-22.46-15.47-4.34-30-9.76-43.37-16.08-.87-.41-1.73-.77-2.6-1.07-1.75 11.86-2.74 25.26-2.74 39.61 0 18.26 1.66 35.65 4.59 50.21 2.4 11.86 5.63 21.85 9.51 28.9 15.79 6.75 33.03 12.28 51.38 16.35-2.16-3.84-4.24-7.85-6.25-12.01-6.72-13.89-11.07-46.93-11.07-83.45z" fill="url(#SVGID_6_)"/><path d="m255 396.295c-13.28 0-26.286-.729-38.93-2.114-.045 4.016-.07 8.125-.07 12.318 0 36.516 1.841 69.56 4.676 83.451 1.362 6.674 2.806 12.951 4.323 18.796 9.815.822 19.827 1.254 30.001 1.254s20.186-.432 30.001-1.253c1.517-5.846 2.96-12.123 4.323-18.796 2.836-13.892 4.676-46.935 4.676-83.451 0-4.193-.024-8.302-.07-12.318-12.644 1.384-25.65 2.113-38.93 2.113z" fill="url(#SVGID_8_)"/></g><g><path d="m392.75 366.89c-.87.3-1.73.66-2.6 1.07-13.37 6.32-27.9 11.74-43.37 16.08.36 7.14.55 14.66.55 22.46 0 18.26-1.09 35.65-3.01 50.21-.64 4.82-1.37 9.33-2.19 13.46 9.11-5.02 17.74-10.81 25.8-17.28 8.06-6.48 18.32 5.09 10.73 12.11-1.52 1.42-3.13 2.66-4.82 3.72-11.05 6.93-23.24 13.15-36.4 18.53-.38.97-.78 1.87-1.18 2.7-2.01 4.16-4.09 8.17-6.25 12.01 18.35-4.07 35.59-9.6 51.38-16.35 8.64-15.7 14.1-45.97 14.1-79.11 0-14.35-.99-27.75-2.74-39.61z" fill="url(#SVGID_9_)"/><path d="m163.22 384.04c-15.47-4.34-30-9.76-43.37-16.08-.87-.41-1.73-.77-2.6-1.07-1.75 11.86-2.74 25.26-2.74 39.61 0 6.73.22 13.33.66 19.72 14.55 17.8 32.43 32.77 52.7 43.96-3.27-16.6-5.2-39.37-5.2-63.68 0-7.8.19-15.32.55-22.46z" fill="url(#SVGID_10_)"/><path d="m255 510c10.17 0 20.19-.43 30-1.25.51-1.96 1.01-3.98 1.5-6.04-16.38 3.46-33.62 5.75-51.45 6.74 6.57.36 13.23.55 19.95.55z" fill="url(#SVGID_11_)"/><path d="m255 396.3c-13.28 0-26.29-.73-38.93-2.12-.05 4.02-.07 8.13-.07 12.32 0 18.26.46 35.65 1.28 50.21.78 14.11 1.91 25.55 3.27 32.57 11.15 2.16 22.67 3.29 34.45 3.29s23.3-1.13 34.45-3.28c2.77-14.25 4.55-46.83 4.55-82.79 0-4.19-.02-8.3-.07-12.32-12.64 1.39-25.65 2.12-38.93 2.12z" fill="url(#SVGID_12_)"/></g><circle cx="255" cy="287.054" fill="url(#SVGID_13_)" r="180.508"/><circle cx="242.549" cy="375.531" fill="url(#SVGID_14_)" r="43.004"/><path d="m435.51 287.05c0 99.7-80.82 180.51-180.51 180.51-6.76 0-13.44-.37-20.01-1.1 90.27-9.95 160.5-86.47 160.5-179.41 0-.126 0-.252 0-.378-.039-18.865-17.083-33.237-35.7-30.19-32.405 5.304-67.767 8.218-104.79 8.218-65.77 0-126.3-9.2-174.33-24.64 8.44-31.39 25.13-59.4 47.61-81.55 28.13-27.73 65.31-46.3 106.71-50.86 6.57-.73 13.25-1.1 20.01-1.1 49.37 0 94.13 19.82 126.72 51.96 22.48 22.15 39.17 50.16 47.61 81.55 4.03 14.98 6.18 30.73 6.18 46.99z" fill="url(#SVGID_15_)"/><g><circle cx="178.719" cy="287.055" fill="url(#SVGID_16_)" r="24.713"/><circle cx="331.281" cy="287.055" fill="url(#SVGID_17_)" r="24.713"/></g><path d="m354.754 203.393h-199.508c-6.369 0-11.804-4.605-12.85-10.888l-29.528-177.338c-1.322-7.94 4.801-15.167 12.85-15.167h258.564c8.049 0 14.172 7.227 12.85 15.167l-29.528 177.339c-1.045 6.282-6.481 10.887-12.85 10.887z" fill="url(#SVGID_18_)"/><path d="m384.282 0h-40.02c8.049 0 14.172 7.227 12.85 15.167l-29.528 177.339c-1.046 6.283-6.481 10.888-12.85 10.888h40.02c6.369 0 11.804-4.605 12.85-10.888l29.528-177.339c1.322-7.94-4.801-15.167-12.85-15.167z" fill="url(#SVGID_19_)"/><path d="m27.406 164.702c0 17.893 10.741 34.085 27.289 40.892 51.199 21.061 122.034 34.096 200.305 34.096s149.106-13.036 200.305-34.096c16.548-6.807 27.289-22.998 27.289-40.892 0-29.743-28.781-51.154-57.189-42.345-47.383 14.693-106.405 23.41-170.405 23.41s-123.022-8.717-170.405-23.41c-28.408-8.809-57.189 12.602-57.189 42.345z" fill="url(#SVGID_20_)"/><path d="m425.405 122.357c-2.62.812-5.282 1.604-7.972 2.379 14.606 7.051 25.141 21.978 25.141 39.966 0 17.893-10.741 34.085-27.289 40.891-46.797 19.25-110.004 31.789-180.295 33.803 6.611.19 13.281.293 20.01.293 78.271 0 149.106-13.036 200.305-34.096 16.548-6.807 27.289-22.998 27.289-40.891 0-29.743-28.781-51.154-57.189-42.345z" fill="url(#SVGID_21_)"/><g><circle cx="255" cy="364.385" fill="url(#SVGID_22_)" r="35.473"/><g><path d="m263.025 367.199c0-4.432-3.593-8.025-8.025-8.025s-8.025 3.593-8.025 8.025c0 4.432 3.593 8.025 8.025 8.025s8.025-3.593 8.025-8.025z" fill="url(#SVGID_23_)"/><path d="m255 328.912c-3.296 0-6.483.459-9.511 1.3 3.555.987 6.881 2.519 9.893 4.491-.34-.012-.679-.026-1.021-.026-12.895 0-23.897 8.259-27.996 19.765-1.727 4.849 1.922 9.943 7.07 9.943 3.116 0 6.007-1.883 7.032-4.826 2.002-5.747 9.113-9.882 15.533-9.882 9 0 15.451 6.598 15.451 14.707 0 16.295-10.992 30.014-25.962 34.172 3.028.841 6.215 1.3 9.511 1.3 19.591 0 35.473-15.882 35.473-35.473 0-19.589-15.882-35.471-35.473-35.471z" fill="url(#SVGID_24_)"/></g></g></g></svg>