<svg id="Capa_1" enable-background="new 0 0 510 510" height="512" viewBox="0 0 510 510" width="512" xmlns="http://www.w3.org/2000/svg" xmlns:xlink="http://www.w3.org/1999/xlink"><linearGradient id="lg1"><stop offset="0" stop-color="#97d729"/><stop offset=".5652" stop-color="#02905d"/><stop offset=".9955" stop-color="#026841"/></linearGradient><linearGradient id="SVGID_1_" gradientUnits="userSpaceOnUse" x1="87.099" x2="448.78" xlink:href="#lg1" y1="47" y2="47"/><linearGradient id="SVGID_2_" gradientUnits="userSpaceOnUse" x1="30" x2="402" xlink:href="#lg1" y1="47.001" y2="47.001"/><linearGradient id="lg2"><stop offset="0" stop-color="#fef056"/><stop offset=".5213" stop-color="#f4d902"/><stop offset="1" stop-color="#fe9738"/></linearGradient><linearGradient id="SVGID_3_" gradientUnits="userSpaceOnUse" x1="174.13" x2="334.155" xlink:href="#lg2" y1="69.695" y2="69.695"/><linearGradient id="SVGID_4_" gradientUnits="userSpaceOnUse" x1="60.1" x2="292.763" xlink:href="#lg2" y1="69.695" y2="69.695"/><linearGradient id="lg3"><stop offset="0" stop-color="#fe646f"/><stop offset=".5213" stop-color="#e41f2d"/><stop offset="1" stop-color="#c41926"/></linearGradient><linearGradient id="SVGID_5_" gradientUnits="userSpaceOnUse" x1="50" x2="586.012" xlink:href="#lg3" y1="297.599" y2="297.599"/><linearGradient id="SVGID_6_" gradientUnits="userSpaceOnUse" x1="-90.5" x2="375.996" xlink:href="#lg3" y1="307.599" y2="307.599"/><linearGradient id="SVGID_7_" gradientUnits="userSpaceOnUse" x1="-179" x2="418.054" xlink:href="#lg3" y1="297.599" y2="297.599"/><linearGradient id="SVGID_8_" gradientUnits="userSpaceOnUse" x1="100" x2="406.713" xlink:href="#lg2" y1="297.599" y2="297.599"/><linearGradient id="SVGID_9_" gradientUnits="userSpaceOnUse" x1="-59" x2="367.011" xlink:href="#lg2" y1="332.418" y2="332.418"/><g><path d="m255 94c-32.102 0-63.111-6.627-92.166-19.699-28.059-12.624-52.865-30.576-73.729-53.359-4.662-5.091-4.314-12.998.777-17.661 5.092-4.662 12.998-4.314 17.661.777 18.555 20.261 40.608 36.224 65.549 47.444 25.807 11.611 53.366 17.498 81.908 17.498s56.101-5.887 81.909-17.498c24.939-11.22 46.993-27.183 65.548-47.444 4.664-5.092 12.571-5.437 17.661-.777 5.091 4.663 5.438 12.569.776 17.661-20.864 22.783-45.67 40.736-73.729 53.359-29.054 13.071-60.062 19.699-92.165 19.699z" fill="url(#SVGID_1_)"/><path d="m419.922 3.102c-5.138-4.511-13.058-3.834-17.684 1.2-1.247 1.357-2.504 2.696-3.788 4.008 1.49 4.22.67 9.1-2.57 12.63-20.86 22.78-45.67 40.74-73.73 53.36-4.08 1.83-8.19 3.54-12.34 5.12v-18.01c-17.7 5.04-36.04 7.59-54.81 7.59-4.19 0-8.36-.13-12.51-.38-24.09-1.47-47.38-7.22-69.4-17.12-5.81-2.61-11.46-5.48-16.94-8.61-18.08-10.27-34.37-23.29-48.61-38.83-4.66-5.09-12.57-5.44-17.66-.78-1.56 1.43-2.68 3.16-3.34 5.03 14.16 14.6 30.221 26.813 47.942 36.449 8.523 4.634 14.38 12.991 15.585 22.617l.093.744c4.14 2.19 8.37 4.25 12.67 6.18 25.27 11.37 52.02 17.86 79.67 19.36 4.15.23 8.31.34 12.5.34 18.7 0 37.03-2.25 54.81-6.71 12.75-3.2 25.23-7.53 37.36-12.99 28.05-12.62 52.86-30.58 73.72-53.36 4.73-5.155 4.31-13.203-.968-17.838z" fill="url(#SVGID_2_)"/><path d="m334.826 105.792h-159.652v-46.36c0-14.267 11.566-25.833 25.833-25.833h107.986c14.267 0 25.833 11.566 25.833 25.833z" fill="url(#SVGID_3_)"/><path d="m308.993 33.599h-40.02c14.267 0 25.833 11.566 25.833 25.833v46.36h40.02v-46.36c0-14.267-11.566-25.833-25.833-25.833z" fill="url(#SVGID_4_)"/><circle cx="255" cy="297.599" fill="url(#SVGID_5_)" r="212.401"/><path d="m392.132 381.644-25.567-14.164 21.624-6.206c3.981-1.143 6.282-5.296 5.14-9.278-1.144-3.982-5.299-6.281-9.278-5.14l-36.042 10.344-13.985-7.748c2.579-.93 5.105-2.092 7.54-3.518 13.557-7.941 21.699-22.035 21.78-37.667l.002-.669-.002-.634c-.081-15.667-8.224-29.761-21.78-37.702-2.433-1.425-4.957-2.591-7.534-3.521l13.979-7.745 36.041 10.344c.691.198 1.388.293 2.073.293 3.26 0 6.261-2.143 7.205-5.433 1.143-3.981-1.158-8.135-5.14-9.278l-21.624-6.206 25.567-14.164c3.623-2.007 4.933-6.572 2.926-10.195s-6.573-4.932-10.195-2.926l-25.566 14.164 6.206-21.623c1.143-3.981-1.158-8.135-5.14-9.278-3.979-1.141-8.135 1.159-9.278 5.14l-10.344 36.041-13.962 7.735c.578-2.667.929-5.412 1.015-8.217.477-15.658-7.098-30.009-20.263-38.39-2.052-1.306-4.171-2.566-6.298-3.745-13.883-7.691-30.326-7.48-43.983.568-2.433 1.433-4.682 3.072-6.749 4.875v-15.995l26.515-26.514c2.929-2.929 2.929-7.678 0-10.606s-7.677-2.93-10.607 0l-15.908 15.908v-29.229c0-4.142-3.357-7.5-7.5-7.5-4.142 0-7.5 3.358-7.5 7.5v29.229l-15.907-15.907c-2.929-2.929-7.678-2.929-10.606 0-2.929 2.929-2.929 7.678 0 10.606l26.514 26.514v15.996c-2.067-1.803-4.316-3.442-6.749-4.875-13.659-8.048-30.101-8.259-43.984-.568-2.13 1.181-4.249 2.44-6.296 3.744-13.166 8.381-20.741 22.732-20.263 38.39.086 2.806.437 5.551 1.014 8.218l-13.962-7.735-10.344-36.041c-1.143-3.981-5.296-6.284-9.278-5.14-3.981 1.143-6.283 5.296-5.14 9.278l6.206 21.623-25.567-14.164c-3.624-2.007-8.188-.697-10.195 2.926-2.007 3.624-.697 8.188 2.926 10.195l25.567 14.164-21.623 6.206c-3.981 1.143-6.283 5.296-5.14 9.278.944 3.291 3.945 5.433 7.206 5.433.685 0 1.381-.095 2.072-.293l36.042-10.344 13.979 7.745c-2.578.93-5.101 2.096-7.534 3.521-13.558 7.941-21.7 22.035-21.781 37.703l-.001.632.001.634c.081 15.667 8.223 29.761 21.781 37.702 2.435 1.426 4.96 2.588 7.539 3.518l-13.985 7.748-36.042-10.344c-3.981-1.142-8.135 1.159-9.278 5.14s1.159 8.135 5.14 9.278l21.623 6.206-25.567 14.164c-3.623 2.007-4.933 6.572-2.926 10.195 1.37 2.472 3.929 3.867 6.567 3.867 1.229 0 2.476-.303 3.628-.941l25.567-14.164-6.206 21.623c-1.143 3.981 1.159 8.135 5.14 9.278.691.198 1.387.293 2.072.293 3.26 0 6.261-2.143 7.206-5.433l10.344-36.041 13.962-7.735c-.578 2.667-.929 5.412-1.014 8.218-.478 15.658 7.098 30.009 20.262 38.39 2.048 1.304 4.167 2.563 6.298 3.745 6.771 3.751 14.147 5.622 21.515 5.622 7.741 0 15.472-2.066 22.469-6.189 2.432-1.433 4.681-3.072 6.749-4.875v15.996l-26.514 26.514c-2.929 2.929-2.929 7.678 0 10.606 1.464 1.464 3.384 2.197 5.303 2.197s3.839-.732 5.303-2.197l15.907-15.907v29.229c0 4.142 3.358 7.5 7.5 7.5 4.143 0 7.5-3.358 7.5-7.5v-29.229l15.907 15.907c2.93 2.929 7.678 2.929 10.607 0s2.929-7.678 0-10.606l-26.514-26.518v-15.995c2.067 1.803 4.316 3.442 6.749 4.875 6.998 4.124 14.728 6.189 22.469 6.189 7.367 0 14.745-1.871 21.515-5.622 2.127-1.179 4.246-2.438 6.297-3.744 13.166-8.381 20.74-22.732 20.264-38.39-.086-2.806-.437-5.551-1.015-8.217l13.962 7.735 10.344 36.041c.944 3.291 3.944 5.433 7.205 5.433.686 0 1.382-.095 2.073-.293 3.981-1.143 6.282-5.296 5.14-9.278l-6.206-21.623 25.566 14.164c1.152.638 2.398.941 3.628.941 2.639 0 5.198-1.396 6.567-3.867 2.006-3.623.697-8.187-2.926-10.195zm-96.793-24.711c.226 7.383-3.338 14.145-9.532 18.087-1.355.863-2.762 1.699-4.178 2.485-6.584 3.646-14.378 3.545-20.845-.266-6.439-3.794-10.284-10.525-10.284-18.005v-5.546c11.768-1.908 22.068-8.231 29.156-17.208l4.879 2.703c6.537 3.625 10.576 10.259 10.804 17.75zm-95.147 18.087c-6.193-3.942-9.756-10.704-9.531-18.088.228-7.487 4.263-14.118 10.794-17.743l4.889-2.709c7.088 8.976 17.388 15.299 29.156 17.208v5.546c0 7.48-3.845 14.21-10.284 18.005-6.471 3.811-14.264 3.911-20.845.265-1.413-.782-2.818-1.618-4.179-2.484zm-9.531-116.755c-.225-7.384 3.338-14.145 9.531-18.087 1.361-.866 2.767-1.702 4.179-2.484 6.581-3.647 14.374-3.548 20.846.265 6.439 3.794 10.284 10.525 10.284 18.005v5.546c-11.768 1.908-22.069 8.231-29.156 17.208l-4.864-2.695-.015-.008c-6.538-3.625-10.577-10.259-10.805-17.75zm20.639 49.334c0-2.895.398-5.697 1.128-8.363l15.095 8.363-15.095 8.363c-.73-2.666-1.128-5.469-1.128-8.363zm63.399 0c0 2.895-.398 5.697-1.128 8.363l-15.095-8.363 15.095-8.363c.731 2.666 1.128 5.468 1.128 8.363zm-24.199-12.729v-18.066c6.16 1.501 11.621 4.802 15.789 9.319zm-15 0-15.79-8.747c4.168-4.516 9.629-7.818 15.79-9.319zm0 25.458v18.066c-6.161-1.501-11.621-4.802-15.79-9.319zm15 0 15.789 8.747c-4.168 4.516-9.629 7.818-15.789 9.319zm72.354-12.307c-.038 7.381-3.881 14.025-10.279 17.773-6.47 3.789-14.238 3.887-20.783.261l-3.078-1.705-1.763-.977c1.775-4.93 2.748-10.24 2.748-15.775s-.973-10.844-2.748-15.775l1.763-.977 3.078-1.705c6.545-3.626 14.314-3.527 20.783.261 6.398 3.748 10.241 10.392 10.279 17.782l.002.413zm-38.319-32.007-4.879 2.703c-7.088-8.977-17.388-15.299-29.156-17.208v-5.546c0-7.48 3.845-14.21 10.284-18.005 3.314-1.953 6.976-2.931 10.644-2.931 3.492 0 6.991.887 10.2 2.666 1.417.785 2.823 1.622 4.179 2.485h.001c6.193 3.942 9.757 10.704 9.531 18.087-.228 7.491-4.267 14.125-10.804 17.749zm-121.389 31.163c.038-7.381 3.881-14.025 10.28-17.773 3.313-1.94 6.967-2.913 10.623-2.913 3.48 0 6.962.882 10.153 2.647l4.847 2.685c-1.775 4.93-2.748 10.24-2.748 15.775 0 5.534.973 10.844 2.748 15.775l-4.849 2.686c-.001 0-.001.001-.002.001-6.543 3.619-14.307 3.52-20.772-.267-6.399-3.748-10.242-10.392-10.28-17.758l-.001-.437zm185.198-.1.002.521-.002.557c-.053 10.315-5.422 19.6-14.361 24.836-3.423 2.005-7.107 3.266-10.859 3.788 9.218-6.668 14.67-17.142 14.73-28.672l.002-.508-.002-.499c-.06-11.538-5.512-22.013-14.73-28.681 3.752.522 7.436 1.783 10.859 3.787 8.939 5.237 14.308 14.521 14.361 24.871zm-83.481-91.326c4.627-2.727 9.737-4.093 14.858-4.093 4.875 0 9.76 1.239 14.241 3.722 1.862 1.031 3.716 2.134 5.511 3.277h.001c8.658 5.511 13.64 14.961 13.325 25.278-.121 3.957-1.006 7.742-2.552 11.193-.759-11.301-6.703-21.442-16.386-27.606-1.611-1.025-3.28-2.018-4.963-2.951-10.247-5.677-22.209-6.035-32.633-1.15 2.278-3.037 5.173-5.652 8.598-7.67zm-78.337 2.906c1.792-1.141 3.646-2.244 5.511-3.277 9.188-5.091 20.066-4.953 29.1.371 3.425 2.018 6.32 4.633 8.597 7.672-10.426-4.885-22.385-4.528-32.634 1.15h-.001c-1.677.93-3.346 1.922-4.962 2.951-9.683 6.164-15.627 16.305-16.386 27.605-1.545-3.452-2.43-7.236-2.551-11.193-.314-10.317 4.667-19.767 13.326-25.279zm-48.87 89.5-.001-.558.001-.557c.053-10.315 5.422-19.6 14.362-24.836 3.422-2.004 7.105-3.264 10.857-3.786-9.217 6.668-14.669 17.143-14.729 28.694l-.001.484.001.499c.06 11.538 5.512 22.013 14.731 28.681-3.753-.522-7.436-1.782-10.859-3.787-8.94-5.236-14.309-14.521-14.362-24.834zm83.481 91.29c-9.035 5.322-19.913 5.46-29.1.371-1.865-1.034-3.719-2.136-5.511-3.277 0 0 0 0-.001 0-8.658-5.511-13.64-14.961-13.325-25.278.12-3.957 1.006-7.742 2.551-11.193.758 11.301 6.702 21.442 16.386 27.605 1.616 1.028 3.286 2.021 4.963 2.951 5.499 3.046 11.492 4.566 17.476 4.566 5.169 0 10.326-1.154 15.158-3.417-2.277 3.038-5.172 5.653-8.597 7.672zm78.337-2.907c-1.795 1.143-3.648 2.246-5.511 3.277-9.188 5.091-20.066 4.953-29.1-.371-3.425-2.018-6.321-4.634-8.598-7.672 4.832 2.264 9.988 3.418 15.158 3.418 5.984 0 11.979-1.521 17.477-4.566.001 0 .001-.001.002-.001 1.681-.932 3.351-1.925 4.961-2.95 9.683-6.164 15.627-16.305 16.386-27.606 1.545 3.452 2.431 7.236 2.552 11.193.313 10.317-4.668 19.767-13.327 25.278z" fill="url(#SVGID_6_)"/><path d="m255 85.198c-6.75 0-13.421.329-20.01.945 107.92 10.086 192.391 100.9 192.391 211.456s-84.471 201.37-192.391 211.456c6.589.616 13.26.945 20.01.945 117.306 0 212.401-95.095 212.401-212.401s-95.095-212.401-212.401-212.401z" fill="url(#SVGID_7_)"/><path d="m404.132 371.644-25.567-14.164 21.624-6.206c3.981-1.143 6.282-5.296 5.14-9.278-1.144-3.982-5.299-6.281-9.278-5.14l-36.042 10.344-13.985-7.748c2.579-.93 5.105-2.092 7.54-3.518 13.557-7.941 21.699-22.035 21.78-37.667l.002-.669-.002-.634c-.081-15.667-8.224-29.761-21.78-37.702-2.433-1.425-4.957-2.591-7.534-3.52l13.979-7.745 36.041 10.344c.691.198 1.388.293 2.073.293 3.26 0 6.261-2.143 7.205-5.433 1.143-3.981-1.158-8.135-5.14-9.278l-21.624-6.206 25.567-14.164c3.623-2.007 4.933-6.572 2.926-10.195s-6.573-4.932-10.195-2.926l-25.566 14.164 6.206-21.623c1.143-3.981-1.158-8.135-5.14-9.278-3.979-1.141-8.135 1.159-9.278 5.14l-10.344 36.041-13.962 7.735c.578-2.667.929-5.412 1.015-8.217.477-15.658-7.098-30.009-20.263-38.39-2.052-1.306-4.171-2.566-6.298-3.745-13.883-7.691-30.326-7.48-43.983.568-2.433 1.433-4.682 3.072-6.749 4.875v-15.995l26.515-26.514c2.929-2.929 2.929-7.678 0-10.606s-7.677-2.93-10.607 0l-15.908 15.907v-29.229c0-4.142-3.357-7.5-7.5-7.5-4.142 0-7.5 3.358-7.5 7.5v29.229l-15.907-15.907c-2.929-2.929-7.678-2.929-10.606 0-2.929 2.929-2.929 7.678 0 10.606l26.514 26.514v15.996c-2.067-1.803-4.316-3.442-6.749-4.875-13.659-8.048-30.101-8.259-43.984-.568-2.13 1.181-4.249 2.44-6.296 3.744-13.166 8.381-20.741 22.732-20.263 38.39.086 2.806.437 5.551 1.014 8.218l-13.962-7.735-10.344-36.041c-1.143-3.981-5.296-6.284-9.278-5.14-3.981 1.143-6.283 5.296-5.14 9.278l6.206 21.623-25.567-14.164c-3.624-2.007-8.188-.697-10.195 2.926-2.007 3.624-.697 8.188 2.926 10.195l25.567 14.164-21.623 6.206c-3.981 1.143-6.283 5.296-5.14 9.278.944 3.291 3.945 5.433 7.206 5.433.685 0 1.381-.095 2.072-.293l36.042-10.344 13.979 7.745c-2.578.93-5.101 2.096-7.534 3.521-13.558 7.941-21.7 22.035-21.781 37.703l-.001.632.001.634c.081 15.667 8.223 29.761 21.781 37.702 2.435 1.426 4.96 2.588 7.539 3.518l-13.985 7.748-36.042-10.344c-3.981-1.142-8.135 1.159-9.278 5.14s1.159 8.135 5.14 9.278l21.623 6.206-25.567 14.164c-3.623 2.007-4.933 6.572-2.926 10.195 1.37 2.472 3.929 3.867 6.567 3.867 1.229 0 2.476-.303 3.628-.941l25.567-14.164-6.206 21.623c-1.143 3.981 1.159 8.135 5.14 9.278.691.198 1.387.293 2.072.293 3.26 0 6.261-2.143 7.206-5.433l10.344-36.041 13.962-7.735c-.578 2.667-.929 5.412-1.014 8.218-.478 15.658 7.098 30.009 20.262 38.39 2.048 1.304 4.167 2.563 6.298 3.745 6.771 3.751 14.147 5.622 21.515 5.622 7.741 0 15.472-2.066 22.469-6.189 2.432-1.433 4.681-3.072 6.749-4.875v15.996l-26.514 26.514c-2.929 2.929-2.929 7.678 0 10.606 1.464 1.464 3.384 2.197 5.303 2.197s3.839-.732 5.303-2.197l15.907-15.907v29.229c0 4.142 3.358 7.5 7.5 7.5 4.143 0 7.5-3.358 7.5-7.5v-29.229l15.907 15.907c2.93 2.929 7.678 2.929 10.607 0s2.929-7.678 0-10.606l-26.514-26.518v-15.995c2.067 1.803 4.316 3.442 6.749 4.875 6.998 4.124 14.728 6.189 22.469 6.189 7.367 0 14.745-1.871 21.515-5.622 2.127-1.179 4.246-2.438 6.297-3.744 13.166-8.381 20.74-22.732 20.264-38.39-.086-2.806-.437-5.551-1.015-8.217l13.962 7.735 10.344 36.041c.944 3.291 3.944 5.433 7.205 5.433.686 0 1.382-.095 2.073-.293 3.981-1.143 6.282-5.296 5.14-9.278l-6.206-21.623 25.566 14.164c1.152.638 2.398.941 3.628.941 2.639 0 5.198-1.396 6.567-3.867 2.006-3.623.697-8.187-2.926-10.195zm-96.793-24.711c.226 7.383-3.338 14.145-9.532 18.087-1.355.863-2.762 1.699-4.178 2.485-6.584 3.646-14.378 3.545-20.845-.266-6.439-3.794-10.284-10.525-10.284-18.005v-5.546c11.768-1.908 22.068-8.231 29.156-17.208l4.879 2.703c6.537 3.625 10.576 10.259 10.804 17.75zm-95.147 18.087c-6.193-3.942-9.756-10.704-9.531-18.088.228-7.487 4.263-14.118 10.794-17.743l4.889-2.709c7.088 8.976 17.388 15.299 29.156 17.208v5.546c0 7.48-3.845 14.21-10.284 18.005-6.471 3.811-14.264 3.911-20.845.265-1.413-.782-2.818-1.618-4.179-2.484zm-9.531-116.755c-.225-7.384 3.338-14.146 9.531-18.087 1.361-.866 2.767-1.702 4.179-2.484 6.581-3.647 14.374-3.548 20.846.265 6.439 3.794 10.284 10.525 10.284 18.005v5.546c-11.768 1.908-22.069 8.231-29.156 17.208l-4.864-2.695-.015-.008c-6.538-3.625-10.577-10.259-10.805-17.75zm132.193 49.756c-.038 7.381-3.881 14.025-10.279 17.773-6.47 3.789-14.238 3.887-20.783.261l-3.078-1.705-1.763-.977c1.775-4.93 2.748-10.24 2.748-15.775s-.973-10.844-2.748-15.775l1.763-.977 3.078-1.705c6.545-3.626 14.314-3.527 20.783.261 6.398 3.748 10.241 10.392 10.279 17.782l.002.413zm-38.319-32.007-4.879 2.703c-7.088-8.977-17.388-15.299-29.156-17.208v-5.546c0-7.48 3.845-14.21 10.284-18.005 3.314-1.953 6.976-2.931 10.644-2.931 3.492 0 6.991.887 10.2 2.666 1.417.785 2.823 1.622 4.179 2.485h.001c6.193 3.942 9.757 10.704 9.531 18.087-.228 7.491-4.267 14.125-10.804 17.749zm-121.389 31.163c.038-7.381 3.881-14.025 10.28-17.773 3.313-1.94 6.967-2.913 10.623-2.913 3.48 0 6.962.882 10.153 2.647l4.847 2.685c-1.775 4.93-2.748 10.24-2.748 15.775 0 5.534.973 10.844 2.748 15.775l-4.849 2.686c-.001 0-.001.001-.002.001-6.543 3.619-14.307 3.52-20.772-.267-6.399-3.748-10.242-10.392-10.28-17.758l-.001-.437zm185.198-.1.002.521-.002.557c-.053 10.315-5.422 19.6-14.361 24.836-3.423 2.005-7.107 3.266-10.859 3.788 9.218-6.668 14.67-17.142 14.73-28.672l.002-.508-.002-.499c-.06-11.538-5.512-22.013-14.73-28.681 3.752.522 7.436 1.783 10.859 3.787 8.939 5.237 14.308 14.521 14.361 24.871zm-83.481-91.326c4.627-2.727 9.737-4.093 14.858-4.093 4.875 0 9.76 1.239 14.241 3.722 1.862 1.031 3.716 2.134 5.511 3.277h.001c8.658 5.511 13.64 14.961 13.325 25.278-.121 3.957-1.006 7.742-2.552 11.193-.759-11.301-6.703-21.442-16.386-27.606-1.611-1.025-3.28-2.018-4.963-2.951-10.247-5.677-22.209-6.035-32.633-1.15 2.278-3.037 5.173-5.652 8.598-7.67zm-78.337 2.906c1.792-1.141 3.646-2.244 5.511-3.277 9.188-5.091 20.066-4.953 29.1.371 3.425 2.018 6.32 4.633 8.597 7.672-10.426-4.885-22.385-4.528-32.634 1.15h-.001c-1.677.93-3.346 1.922-4.962 2.951-9.683 6.164-15.627 16.305-16.386 27.605-1.545-3.452-2.43-7.236-2.551-11.193-.314-10.317 4.667-19.767 13.326-25.279zm-48.87 89.5-.001-.558.001-.557c.053-10.315 5.422-19.6 14.362-24.836 3.422-2.004 7.105-3.264 10.857-3.786-9.217 6.668-14.669 17.143-14.729 28.694l-.001.484.001.499c.06 11.538 5.512 22.013 14.731 28.681-3.753-.522-7.436-1.782-10.859-3.787-8.94-5.236-14.309-14.521-14.362-24.834zm83.481 91.29c-9.035 5.322-19.913 5.46-29.1.371-1.865-1.034-3.719-2.136-5.511-3.277 0 0 0 0-.001 0-8.658-5.511-13.64-14.961-13.325-25.278.12-3.957 1.006-7.742 2.551-11.193.758 11.301 6.702 21.442 16.386 27.605 1.616 1.028 3.286 2.021 4.963 2.951 5.499 3.046 11.492 4.566 17.476 4.566 5.169 0 10.326-1.154 15.158-3.417-2.277 3.038-5.172 5.653-8.597 7.672zm78.337-2.907c-1.795 1.143-3.648 2.246-5.511 3.277-9.188 5.091-20.066 4.953-29.1-.371-3.425-2.018-6.321-4.634-8.598-7.672 4.832 2.264 9.988 3.418 15.158 3.418 5.984 0 11.979-1.521 17.477-4.566.001 0 .001-.001.002-.001 1.681-.932 3.351-1.925 4.961-2.95 9.683-6.164 15.627-16.305 16.386-27.606 1.545 3.452 2.431 7.236 2.552 11.193.313 10.317-4.668 19.767-13.327 25.278z" fill="url(#SVGID_8_)"/><path d="m404.132 371.644-25.567-14.164 21.624-6.206c3.981-1.143 6.282-5.296 5.14-9.278-1.144-3.982-5.299-6.281-9.278-5.14l-36.042 10.344-13.985-7.748c2.579-.93 5.105-2.092 7.54-3.518 13.557-7.941 21.699-22.035 21.78-37.667l.002-.669-.002-.634c-.081-15.667-8.224-29.761-21.78-37.702-2.433-1.425-4.957-2.591-7.534-3.521l13.979-7.745 36.041 10.344c.691.198 1.388.293 2.073.293 3.26 0 6.261-2.143 7.205-5.433 1.143-3.981-1.158-8.135-5.14-9.278l-21.624-6.206 25.567-14.164c3.623-2.007 4.933-6.572 2.926-10.195s-6.573-4.932-10.195-2.926l-25.566 14.164 6.206-21.623c1.143-3.981-1.158-8.135-5.14-9.278-3.979-1.141-8.135 1.159-9.278 5.14l-10.344 36.041-12.783 7.082c-.43 9.106-1.573 18.025-3.377 26.703 3.247.621 6.424 1.801 9.402 3.545 8.939 5.236 14.309 14.521 14.361 24.871l.002.521-.002.557c-.053 10.315-5.422 19.6-14.361 24.836-3.423 2.005-7.107 3.266-10.859 3.788 9.218-6.668 14.67-17.142 14.73-28.672l.002-.508-.002-.499c-.057-10.984-5.01-20.997-13.437-27.687-1.236 5.813-2.769 11.516-4.581 17.094 1.926 3.151 2.997 6.81 3.017 10.679l.002.413-.002.422c-.038 7.381-3.881 14.025-10.279 17.773-2.162 1.266-4.47 2.11-6.828 2.551-3.852 6.735-8.156 13.176-12.86 19.295 1.493 2.803 2.352 5.962 2.453 9.293.226 7.383-3.338 14.145-9.532 18.087-1.355.863-2.762 1.699-4.178 2.485-5.977 3.31-12.947 3.521-19.02.684-22.449 17.567-49.409 29.633-78.855 34.167.339.192.674.394 1.014.582 6.771 3.751 14.147 5.622 21.515 5.622 7.741 0 15.472-2.066 22.469-6.189 2.432-1.433 4.681-3.072 6.749-4.875v15.996l-26.514 26.514c-2.929 2.929-2.929 7.678 0 10.606 1.464 1.464 3.384 2.197 5.303 2.197s3.839-.732 5.303-2.197l15.907-15.907v29.229c0 4.142 3.358 7.5 7.5 7.5 4.143 0 7.5-3.358 7.5-7.5v-29.229l15.907 15.907c2.93 2.929 7.678 2.929 10.607 0s2.929-7.678 0-10.606l-26.513-26.515v-15.995c2.067 1.803 4.316 3.442 6.749 4.875 6.998 4.124 14.728 6.189 22.469 6.189 7.367 0 14.745-1.871 21.515-5.622 2.127-1.179 4.246-2.438 6.297-3.744 13.166-8.381 20.74-22.732 20.264-38.39-.086-2.806-.437-5.551-1.015-8.217l13.962 7.735 10.344 36.041c.944 3.291 3.944 5.433 7.205 5.433.686 0 1.382-.095 2.073-.293 3.981-1.143 6.282-5.296 5.14-9.278l-6.206-21.623 25.566 14.164c1.152.638 2.398.941 3.628.941 2.639 0 5.198-1.396 6.567-3.867 2.006-3.623.697-8.187-2.926-10.195zm-92.658 14.896c-1.795 1.143-3.648 2.246-5.511 3.277-9.188 5.091-20.066 4.953-29.1-.371-3.425-2.018-6.321-4.634-8.598-7.672 4.832 2.264 9.988 3.418 15.158 3.418 5.984 0 11.979-1.521 17.477-4.566.001 0 .001-.001.002-.001 1.681-.932 3.351-1.925 4.961-2.95 9.683-6.164 15.627-16.305 16.386-27.606 1.545 3.452 2.431 7.236 2.552 11.193.313 10.317-4.668 19.767-13.327 25.278z" fill="url(#SVGID_9_)"/></g></svg>