<svg id="Capa_1" enable-background="new 0 0 510 510" height="512" viewBox="0 0 510 510" width="512" xmlns="http://www.w3.org/2000/svg" xmlns:xlink="http://www.w3.org/1999/xlink"><linearGradient id="lg1"><stop offset="0" stop-color="#ffdcbd"/><stop offset=".0028" stop-color="#ffdcbd"/><stop offset="1" stop-color="#ffa9b1"/></linearGradient><linearGradient id="SVGID_1_" gradientUnits="userSpaceOnUse" x1="0" x2="249.466" xlink:href="#lg1" y1="90.319" y2="90.319"/><linearGradient id="lg2"><stop offset="0" stop-color="#ffc2b5"/><stop offset="1" stop-color="#ff89a8"/></linearGradient><linearGradient id="SVGID_2_" gradientUnits="userSpaceOnUse" x1="-27" x2="275.05" xlink:href="#lg2" y1="38.41" y2="38.41"/><linearGradient id="SVGID_3_" gradientUnits="userSpaceOnUse" x1="-27" x2="275.05" xlink:href="#lg2" y1="90.319" y2="90.319"/><linearGradient id="SVGID_4_" gradientUnits="userSpaceOnUse" x1="-27" x2="275.05" xlink:href="#lg2" y1="37.028" y2="37.028"/><linearGradient id="SVGID_5_" gradientUnits="userSpaceOnUse" x1="253.333" x2="510.813" xlink:href="#lg1" y1="90.319" y2="90.319"/><linearGradient id="SVGID_6_" gradientUnits="userSpaceOnUse" x1="297.679" x2="512.304" xlink:href="#lg2" y1="34.255" y2="34.255"/><linearGradient id="SVGID_7_" gradientUnits="userSpaceOnUse" x1="269.5" x2="530.623" xlink:href="#lg2" y1="93.819" y2="93.819"/><linearGradient id="SVGID_8_" gradientUnits="userSpaceOnUse" x1="269.5" x2="530.623" xlink:href="#lg2" y1="40.214" y2="40.214"/><linearGradient id="lg3"><stop offset="0" stop-color="#e19974"/><stop offset="1" stop-color="#8c3d27"/></linearGradient><linearGradient id="SVGID_9_" gradientUnits="userSpaceOnUse" x1="39.66" x2="203.031" xlink:href="#lg3" y1="168.128" y2="168.128"/><linearGradient id="SVGID_10_" gradientUnits="userSpaceOnUse" x1="-51.333" x2="177.138" xlink:href="#lg3" y1="168.129" y2="168.129"/><linearGradient id="SVGID_11_" gradientUnits="userSpaceOnUse" x1="5.964" x2="196.757" xlink:href="#lg1" y1="168.187" y2="168.187"/><linearGradient id="SVGID_12_" gradientUnits="userSpaceOnUse" x1="46.432" x2="193.406" xlink:href="#lg2" y1="168.184" y2="168.184"/><linearGradient id="SVGID_13_" gradientUnits="userSpaceOnUse" x1="307.333" x2="487.779" xlink:href="#lg3" y1="168.128" y2="168.128"/><linearGradient id="SVGID_14_" gradientUnits="userSpaceOnUse" x1="214" x2="482.008" xlink:href="#lg3" y1="168.129" y2="168.129"/><linearGradient id="SVGID_15_" gradientUnits="userSpaceOnUse" x1="313.333" x2="455.347" xlink:href="#lg1" y1="168.187" y2="168.187"/><linearGradient id="SVGID_16_" gradientUnits="userSpaceOnUse" x1="233" x2="457.643" xlink:href="#lg2" y1="173.56" y2="173.56"/><linearGradient id="lg4"><stop offset="0" stop-color="#fef056"/><stop offset=".5213" stop-color="#f4d902"/><stop offset="1" stop-color="#fe9738"/></linearGradient><linearGradient id="SVGID_17_" gradientUnits="userSpaceOnUse" x1="91.953" x2="452.262" xlink:href="#lg4" y1="468.934" y2="468.934"/><linearGradient id="SVGID_18_" gradientUnits="userSpaceOnUse" x1="-173.333" x2="345.348" xlink:href="#lg4" y1="468.933" y2="468.933"/><linearGradient id="lg5"><stop offset="0" stop-color="#eaf6ff"/><stop offset=".5213" stop-color="#d8ecfe"/><stop offset="1" stop-color="#b3dafe"/></linearGradient><linearGradient id="SVGID_19_" gradientUnits="userSpaceOnUse" x1="232.771" x2="280.937" xlink:href="#lg5" y1="28.702" y2="28.702"/><linearGradient id="lg6"><stop offset="0" stop-color="#fe646f"/><stop offset=".5213" stop-color="#e41f2d"/><stop offset="1" stop-color="#c41926"/></linearGradient><linearGradient id="SVGID_20_" gradientUnits="userSpaceOnUse" x1="185.612" x2="358.275" xlink:href="#lg6" y1="72.461" y2="72.461"/><linearGradient id="SVGID_21_" gradientUnits="userSpaceOnUse" x1="117" x2="326.057" xlink:href="#lg6" y1="72.461" y2="72.461"/><linearGradient id="SVGID_22_" gradientTransform="matrix(1 0 0 -1 0 32.005)" gradientUnits="userSpaceOnUse" x1="189.945" x2="333.707" xlink:href="#lg5" y1="-72.979" y2="-72.979"/><linearGradient id="SVGID_23_" gradientUnits="userSpaceOnUse" x1="183" x2="334.331" y1="104.98" y2="104.98"><stop offset="0" stop-color="#d8ecfe"/><stop offset=".5667" stop-color="#b3dafe"/><stop offset=".9955" stop-color="#8ac9fe"/></linearGradient><linearGradient id="SVGID_24_" gradientUnits="userSpaceOnUse" x1="-62.054" x2="433.688" xlink:href="#lg3" y1="299.632" y2="299.632"/><linearGradient id="SVGID_25_" gradientUnits="userSpaceOnUse" x1="10.01" x2="299.196" xlink:href="#lg3" y1="354.357" y2="354.357"/><linearGradient id="SVGID_26_" gradientUnits="userSpaceOnUse" x1="-79.393" x2="385.932" xlink:href="#lg3" y1="299.632" y2="299.632"/><linearGradient id="lg7"><stop offset="0" stop-color="#766e6e"/><stop offset=".1978" stop-color="#676464"/><stop offset=".4488" stop-color="#5a5a5a"/><stop offset=".482" stop-color="#575858"/><stop offset=".799" stop-color="#404d4d"/><stop offset="1" stop-color="#384949"/></linearGradient><linearGradient id="SVGID_27_" gradientUnits="userSpaceOnUse" x1="145" x2="230.006" xlink:href="#lg7" y1="272.117" y2="272.117"/><linearGradient id="SVGID_28_" gradientUnits="userSpaceOnUse" x1="258.667" x2="341.067" xlink:href="#lg7" y1="272.117" y2="272.117"/><linearGradient id="SVGID_29_" gradientUnits="userSpaceOnUse" x1="208.357" x2="326.51" xlink:href="#lg6" y1="348.278" y2="348.278"/><linearGradient id="SVGID_30_" gradientUnits="userSpaceOnUse" x1="153.667" x2="293.699" xlink:href="#lg6" y1="348.278" y2="348.278"/><g><path d="m246.823 153.63-10.857-17.943c-2.098-3.467-4.351-6.831-6.749-10.082-8.107-10.996-15.775-22.309-22.59-34.148l-6.802-11.816c-5.047-8.767-7.703-18.705-7.703-28.821v-32.862c0-9.809-8.027-18.139-17.834-17.955-9.511.178-17.166 7.944-17.166 17.497v33.322c0 8.824 1.276 17.581 3.733 25.998-5.243-1.64-10.58-2.969-15.983-3.963-1.982-.365-3.807-1.319-5.269-2.705-14.269-13.521-22.351-32.314-22.351-51.971v-.222c0-9.809-8.027-18.139-17.834-17.955-9.511.177-17.166 7.943-17.166 17.496v.683c0 17.101 4.184 33.878 11.913 48.875-26.231-7.267-48.512-25.23-61.176-50.416-4.408-8.77-15.19-12.222-23.898-7.566-8.503 4.547-11.456 15.262-7.084 23.856 11.087 21.792 27.935 40.08 48.756 52.916 21.001 12.947 45.144 19.791 69.815 19.791 34.726 0 67.465 18.457 85.442 48.167l11.126 18.388c3.29 5.437 9.067 8.443 14.989 8.443 3.129 0 6.299-.839 9.163-2.603 8.257-5.086 10.545-16.107 5.525-24.404z" fill="url(#SVGID_1_)"/><g><path d="m139.603 70.152c-14.269-13.521-22.351-32.314-22.351-51.971v-.222c0-9.809-8.027-18.139-17.834-17.956-4.826.09-9.169 2.14-12.282 5.381 3.15 3.273 5.105 7.742 5.105 12.575v.222c0 19.658 8.082 38.45 22.351 51.971 1.463 1.386 3.288 2.341 5.269 2.705 5.403.994 35.751 2.324 40.994 3.963-5.243-1.64-10.58-2.969-15.983-3.963-1.981-.365-3.806-1.319-5.269-2.705z" fill="url(#SVGID_2_)"/><path d="m246.823 153.63-10.857-17.943c-2.098-3.467-4.351-6.831-6.749-10.082-8.107-10.996-15.775-22.309-22.59-34.148l-6.802-11.816c-5.047-8.767-7.703-18.705-7.703-28.821v-32.862c0-9.809-8.027-18.139-17.834-17.956-4.826.09-9.169 2.14-12.282 5.381 3.15 3.273 5.105 7.742 5.105 12.575v32.862c0 10.116 2.656 20.054 7.703 28.821l6.802 11.816c6.816 11.839 14.483 23.152 22.59 34.148 2.397 3.252 4.651 6.615 6.749 10.082l10.857 17.943c4.263 7.046 3.238 16.045-2.22 21.716 3.337 3.429 7.893 5.291 12.544 5.291 3.129 0 6.299-.839 9.163-2.603 8.256-5.086 10.544-16.107 5.524-24.404z" fill="url(#SVGID_3_)"/><path d="m32.989 16.641c-4.408-8.769-15.19-12.221-23.898-7.565-1.612.862-3.023 1.948-4.224 3.197 1.225 1.255 2.282 2.717 3.112 4.367 12.663 25.187 43.771 50.36 86.186 50.417-26.23-7.267-48.512-25.23-61.176-50.416z" fill="url(#SVGID_4_)"/></g><path d="m263.177 153.63 10.857-17.943c2.098-3.467 4.351-6.831 6.749-10.082 8.107-10.996 15.775-22.309 22.59-34.148l6.802-11.816c5.047-8.767 7.703-18.705 7.703-28.821v-32.862c0-9.809 8.027-18.139 17.834-17.955 9.511.178 17.166 7.944 17.166 17.497v33.322c0 8.824-1.276 17.581-3.733 25.998 5.243-1.64 10.58-2.969 15.983-3.963 1.982-.365 3.807-1.319 5.269-2.705 14.269-13.521 22.351-32.314 22.351-51.971v-.222c0-9.809 8.027-18.139 17.834-17.955 9.511.178 17.166 7.944 17.166 17.497v.683c0 17.101-4.184 33.878-11.913 48.875 26.231-7.267 48.512-25.23 61.176-50.416 4.408-8.769 15.191-12.221 23.898-7.565 8.503 4.547 11.456 15.262 7.084 23.856-11.087 21.792-27.935 40.08-48.756 52.916-21.001 12.947-45.144 19.791-69.815 19.791-34.726 0-67.465 18.457-85.442 48.167l-11.126 18.388c-3.29 5.437-9.067 8.443-14.989 8.443-3.129 0-6.299-.839-9.163-2.603-8.257-5.088-10.544-16.109-5.525-24.406z" fill="url(#SVGID_5_)"/><g><path d="m411.025 68.195c2.917-.699 4.81-1.138 4.81-1.138 7.729-14.996 11.913-31.774 11.913-48.875v-.682c0-9.553-7.655-17.319-17.166-17.497-4.975-.093-9.486 2.01-12.729 5.381 3.021 3.145 4.884 7.411 4.884 12.116v.683c0 10.917-1.705 24.261-4.949 36.385-2.169 8.103 5.078 15.582 13.237 13.627z" fill="url(#SVGID_6_)"/><path d="m500.909 9.076c-7.068-3.78-15.503-2.216-20.787 3.197 5.133 5.339 6.403 13.694 2.859 20.658-11.087 21.792-27.935 40.08-48.756 52.916-21.001 12.947-45.144 19.791-69.815 19.791-34.726 0-67.465 18.457-85.442 48.167l-11.126 18.388c-.706 1.167-1.533 2.215-2.445 3.153.969 1.006 2.06 1.921 3.304 2.687 2.864 1.764 6.034 2.603 9.163 2.603 5.922 0 11.7-3.006 14.989-8.443l11.126-18.388c17.977-29.711 50.716-48.167 85.442-48.167 24.672 0 48.814-6.844 69.815-19.791 20.821-12.836 37.669-31.124 48.756-52.916 4.373-8.593 1.42-19.308-7.083-23.855z" fill="url(#SVGID_7_)"/><path d="m327.867 50.822c0 4.55-.339 11.035-1.005 17.404-.772 7.391 5.786 13.363 13.092 12.009l.162-.03c1.981-.365 7.566-1.999 9.028-3.385 2.457-8.417 3.733-17.174 3.733-25.998v-33.322c0-9.553-7.655-17.319-17.166-17.497-4.975-.093-9.486 2.01-12.729 5.381 3.021 3.145 4.884 7.411 4.884 12.116v33.322z" fill="url(#SVGID_8_)"/></g><g><path d="m33.282 197.843c-.01.028-.02.056-.03.084-1.68 4.721.807 9.968 5.525 11.656.028.01.056.02.084.03 61.137 21.814 128.382-10.064 150.196-71.201l.03-.084c1.68-4.721-.807-9.968-5.525-11.656-.028-.01-.056-.02-.084-.03-61.137-21.814-128.382 10.064-150.196 71.201z" fill="url(#SVGID_9_)"/><path d="m189.234 135.036c-.058 3.361-.116 3.201-.174 3.374-15.8 44.26-55.4 73.19-99.26 77.51-10.33 1.02-20.89.67-31.44-1.17 9.832-1.705 19.38-4.657 28.408-8.74 3.545-1.603 6.191-4.665 7.385-8.368 6.767-20.981 19.218-39.737 35.707-54.802 4.476-4.087 9.246-7.9 14.281-11.405 1.773-1.234 1.475-4.015-.556-4.749-.015-.005-.03-.011-.046-.016-.03-.01-.05-.02-.08-.03-6.45-2.3-12.97-4.01-19.49-5.14 12.21-2.12 24.86-2.32 37.51-.41 7.36 1.12 14.73 2.95 22 5.55.013.004.024.009.035.013 3.461 1.376 5.784 4.66 5.72 8.383z" fill="url(#SVGID_10_)"/><path d="m177.311 138.718c-7.094-2.326-17.373-2.884-24.605-1.837l-.928-.018c-68.615 9.638-83.801 48.062-83.801 48.062-2.561 3.295-.756 8.649 2.763 9.937 45.323 16.294 95.193-7.453 111.366-53.017.007-.021.015-.042.022-.063.347-.977-1.692-2.039-4.817-3.064z" fill="url(#SVGID_11_)"/><path d="m182.129 141.782c.346-.977-1.693-2.039-4.818-3.064-7.094-2.326-17.373-2.885-24.605-1.837l-.927-.018c-7.038.989-13.505 2.284-19.459 3.806-.825.718-1.652 1.435-2.459 2.172-16.489 15.065-28.941 33.821-35.707 54.802-.233.724-.538 1.414-.878 2.082 38.263 3.034 75.316-19.801 88.831-57.879.007-.022.014-.043.022-.064z" fill="url(#SVGID_12_)"/></g><g><path d="m476.718 197.843c.01.028.02.056.03.084 1.68 4.721-.807 9.968-5.525 11.656-.028.01-.056.02-.084.03-61.137 21.814-128.382-10.064-150.196-71.201-.01-.028-.02-.056-.03-.084-1.68-4.721.807-9.968 5.526-11.656.028-.01.056-.02.084-.03 61.136-21.814 128.381 10.064 150.195 71.201z" fill="url(#SVGID_13_)"/><path d="m476.748 197.927c-.01-.028-.02-.056-.03-.084-19.513-54.688-75.377-85.957-130.704-76.333 40.381 7.016 75.928 34.977 90.684 76.333.01.028.02.056.03.084 1.68 4.721-.807 9.968-5.526 11.656-.028.01-.056.02-.084.03-6.449 2.301-12.967 3.998-19.491 5.133 19.313 3.355 39.731 1.925 59.511-5.133.028-.01.056-.02.084-.03 4.719-1.687 7.206-6.935 5.526-11.656z" fill="url(#SVGID_14_)"/><path d="m332.689 138.718c7.094-2.326 17.373-2.884 24.605-1.837l.928-.018c68.615 9.638 83.801 48.062 83.801 48.062 2.561 3.295.756 8.649-2.763 9.937-45.323 16.294-95.193-7.453-111.366-53.017-.007-.021-.015-.042-.022-.063-.347-.977 1.692-2.039 4.817-3.064z" fill="url(#SVGID_15_)"/><path d="m442.023 184.925s-7.559-19.115-36.089-33.763c12.984 12.021 23.423 27.155 30.055 44.797 1.092-.345 2.183-.706 3.271-1.097 3.519-1.288 5.324-6.642 2.763-9.937z" fill="url(#SVGID_16_)"/></g><path d="m98.357 458.389c0 12.315 7.393 23.459 18.782 28.144 35.238 14.495 83.991 23.467 137.861 23.467s102.623-8.972 137.862-23.467c11.389-4.685 18.782-15.829 18.782-28.144 0-20.471-19.809-35.207-39.361-29.144-32.611 10.112-73.234 16.112-117.283 16.112s-84.671-5.999-117.283-16.112c-19.552-6.063-39.36 8.673-39.36 29.144z" fill="url(#SVGID_17_)"/><path d="m411.64 458.39c0 12.31-7.39 23.46-18.78 28.14-13.6 5.59-29.2 10.37-46.34 14.11-27.28 5.98-58.43 9.36-91.52 9.36-6.76 0-13.43-.14-20.01-.41-16.7-.703-32.772-2.268-47.948-4.589-23.695-3.623-45.963-13.974-63.557-30.255-9.616-8.898-17.166-18.816-22.196-29.457 2.35-4.93 5.97-9.08 10.37-12.1 7.27-4.98 16.7-6.85 26.06-3.95 27.61 8.57 60.96 14.18 97.27 15.7 6.58.28 13.26.42 20.01.42 37.97 0 73.38-4.46 103.32-12.17 4.8-1.23 9.46-2.55 13.96-3.95 3.02-.94 6.04-1.37 8.99-1.37 11.77 0 22.47 6.97 27.44 17.42 1.871 3.941 2.931 8.361 2.931 13.101z" fill="url(#SVGID_18_)"/><circle cx="255" cy="28.702" fill="url(#SVGID_19_)" r="28.702"/><path d="m274.508 42.559-9.645-5.698c-5.882-3.476-13.843-3.474-19.722.005l-9.699 5.739c-23.123 13.684-36.809 35.558-36.809 58.838 0 2.757 1.017 5.376 2.814 7.575s105.308 2.199 107.105 0 2.814-4.818 2.814-7.575v-.017c0-23.299-13.704-45.185-36.858-58.867z" fill="url(#SVGID_20_)"/><path d="m274.508 42.559-9.645-5.698c-5.882-3.476-13.843-3.474-19.722.005l-2.638 1.561 6.994 4.132c23.154 13.683 36.858 35.569 36.858 58.867v.017c0 2.757-1.017 5.377-2.814 7.575-.755.924-19.468 1.459-41.047 1.607 29.779.204 65.016-.332 66.058-1.607 1.797-2.199 2.814-4.818 2.814-7.575v-.017c0-23.299-13.704-45.185-36.858-58.867z" fill="url(#SVGID_21_)"/><path d="m192.5 111.573c0-7.695 2.95-14.658 7.494-17.586 14.06-9.057 33.512-14.663 55.006-14.663s40.946 5.606 55.006 14.663c4.544 2.927 7.494 9.891 7.494 17.586 0 12.791-7.904 21.999-15.705 18.211-13.012-6.319-29.22-10.067-46.795-10.067s-33.783 3.749-46.795 10.067c-7.801 3.788-15.705-5.42-15.705-18.211z" fill="url(#SVGID_22_)"/><path d="m310.01 93.99c-14.06-9.06-33.52-14.67-55.01-14.67-4.25 0-8.43.22-12.5.65 16.48 1.71 31.23 6.76 42.5 14.02 4.54 2.92 7.49 9.89 7.49 17.58 0 5.21-1.31 9.82-3.39 13.2 4.49 1.41 8.74 3.09 12.7 5.01 1.2.59 2.41.86 3.59.86 6.46 0 12.11-8.25 12.11-19.07 0-7.69-2.95-14.66-7.49-17.58z" fill="url(#SVGID_23_)"/><path d="m408.282 357.358c-11.156-22.873-15.01-48.133-12.351-73.053.445-4.168.673-8.394.673-12.668v-37.387c0-71.391-63.398-129.266-141.603-129.266-78.205 0-141.603 57.874-141.603 129.266v37.387c0 4.275.228 8.5.673 12.668 2.66 24.92-1.194 50.18-12.351 73.053-4.906 10.059-7.554 20.775-7.554 31.896 0 58.004 72.009 105.026 160.836 105.026s160.836-47.022 160.836-105.026c-.002-11.121-2.65-21.837-7.556-31.896z" fill="url(#SVGID_24_)"/><circle cx="234.99" cy="354.357" fill="url(#SVGID_25_)" r="46.643"/><path d="m408.282 357.358c-11.156-22.873-15.01-48.133-12.351-73.053.445-4.168.672-8.394.672-12.668v-37.387c0-71.391-63.398-129.266-141.604-129.266-6.793 0-13.472.446-20.01 1.291 68.728 8.876 121.594 62.785 121.594 127.975v37.387c0 4.275-.228 8.5-.672 12.668-2.66 24.92 1.194 50.18 12.351 73.053 4.906 10.059 7.554 20.775 7.554 31.896 0 53.579-61.442 97.784-140.826 104.217 6.556.531 13.233.808 20.01.808 88.827 0 160.836-47.022 160.836-105.026 0-11.12-2.648-21.836-7.554-31.895z" fill="url(#SVGID_26_)"/><g><path d="m198.634 289.233c-14.741 0-26.734-11.993-26.734-26.733 0-4.142 3.358-7.5 7.5-7.5s7.5 3.358 7.5 7.5c0 6.47 5.264 11.733 11.734 11.733s11.733-5.264 11.733-11.733c0-4.142 3.358-7.5 7.5-7.5s7.5 3.358 7.5 7.5c0 14.741-11.992 26.733-26.733 26.733z" fill="url(#SVGID_27_)"/><path d="m311.366 289.233c-14.741 0-26.733-11.993-26.733-26.733 0-4.142 3.358-7.5 7.5-7.5s7.5 3.358 7.5 7.5c0 6.47 5.264 11.733 11.733 11.733 6.47 0 11.734-5.264 11.734-11.733 0-4.142 3.358-7.5 7.5-7.5s7.5 3.358 7.5 7.5c0 14.741-11.993 26.733-26.734 26.733z" fill="url(#SVGID_28_)"/></g><g><circle cx="255" cy="348.278" fill="url(#SVGID_29_)" r="46.643"/><path d="m255 301.635c-4.334 0-8.524.604-12.505 1.709 19.685 5.468 34.138 23.507 34.138 44.934s-14.453 39.466-34.138 44.934c3.981 1.106 8.172 1.709 12.505 1.709 25.76 0 46.643-20.883 46.643-46.643 0-25.761-20.883-46.643-46.643-46.643z" fill="url(#SVGID_30_)"/></g></g></svg>