<?xml version="1.0" encoding="UTF-8" standalone="no"?>
<svg width="68px" height="52px" viewBox="0 0 68 52" version="1.1" xmlns="http://www.w3.org/2000/svg" xmlns:xlink="http://www.w3.org/1999/xlink">
    <!-- Generator: Sketch 39.1 (31720) - http://www.bohemiancoding.com/sketch -->
    <title>Slice 1</title>
    <desc>Created with Sketch.</desc>
    <defs></defs>
    <g id="Page-1" stroke="none" stroke-width="1" fill="none" fill-rule="evenodd">
        <path d="M33.997,51.975 C31.523,51.974 29.511,49.961 29.51,47.487 L29.51,47.471 C28.765,47.343 28.013,47.182 27.264,46.991 L27.051,47.659 C26.468,49.501 24.777,50.759 22.845,50.789 L22.841,50.789 C22.314,50.789 21.861,50.719 21.422,50.58 C20.279,50.217 19.346,49.431 18.794,48.366 C18.241,47.301 18.137,46.086 18.499,44.945 L18.931,43.584 C18.282,43.222 17.631,42.837 16.986,42.432 L16.371,43.338 C15.55,44.546 14.187,45.28 12.728,45.303 C11.757,45.303 10.886,45.035 10.139,44.527 C8.092,43.136 7.559,40.34 8.948,38.295 L9.825,37.005 C9.507,36.723 9.191,36.435 8.878,36.144 L7.84,37.091 C7.031,37.827 5.982,38.242 4.889,38.259 C3.561,38.259 2.351,37.724 1.502,36.794 C-0.164,34.964 -0.031,32.121 1.797,30.455 L2.916,29.436 C2.39,28.161 2.43,26.735 3.024,25.49 L1.798,24.374 C-0.03,22.708 -0.164,19.864 1.501,18.035 C2.33,17.123 3.515,16.588 4.751,16.569 C5.938,16.569 7.01,16.984 7.838,17.737 L9.063,18.853 C9.361,18.579 9.664,18.305 9.969,18.035 L8.948,16.535 C7.559,14.486 8.093,11.69 10.139,10.3 C10.866,9.806 11.714,9.538 12.591,9.525 C14.148,9.524 15.535,10.259 16.37,11.49 L17.15,12.636 C17.771,12.25 18.398,11.881 19.024,11.533 L18.5,9.882 C18.137,8.74 18.241,7.525 18.793,6.461 C19.344,5.397 20.277,4.611 21.421,4.249 C21.839,4.117 22.27,4.047 22.703,4.04 C24.74,4.039 26.459,5.297 27.052,7.17 L27.364,8.155 C28.08,7.974 28.798,7.822 29.511,7.699 L29.51,6.774 C29.51,4.338 31.492,2.325 33.927,2.287 C35.194,2.287 36.32,2.754 37.168,3.602 C38.017,4.451 38.484,5.576 38.484,6.774 L38.485,7.699 C39.14,7.813 39.802,7.952 40.464,8.114 L40.943,6.601 C41.527,4.76 43.217,3.502 45.149,3.472 C45.68,3.472 46.135,3.542 46.572,3.681 C47.717,4.044 48.65,4.83 49.202,5.894 C49.754,6.959 49.858,8.174 49.495,9.316 L48.819,11.45 C49.402,11.771 49.988,12.111 50.572,12.469 L51.624,10.922 C52.445,9.715 53.807,8.98 55.266,8.958 C56.237,8.958 57.109,9.226 57.856,9.734 C59.901,11.123 60.436,13.918 59.048,15.965 L57.784,17.823 C58.064,18.069 58.343,18.318 58.62,18.57 L60.155,17.171 C60.963,16.435 62.01,16.019 63.103,16.003 L63.106,16.003 C64.436,16.003 65.643,16.537 66.493,17.467 C67.301,18.355 67.714,19.503 67.658,20.7 C67.601,21.898 67.082,23.002 66.195,23.807 L64.767,25.107 C65.463,26.288 65.633,27.697 65.231,29.008 L66.196,29.889 C67.083,30.695 67.602,31.799 67.658,32.997 C67.713,34.195 67.298,35.342 66.492,36.227 C65.663,37.139 64.48,37.672 63.243,37.692 C62.057,37.692 60.985,37.277 60.157,36.524 L59.423,35.856 C59.089,36.171 58.75,36.483 58.408,36.791 L59.046,37.727 C60.436,39.774 59.902,42.57 57.857,43.96 C57.129,44.453 56.28,44.723 55.403,44.736 C53.846,44.737 52.458,44.002 51.624,42.772 L51.277,42.262 C50.59,42.699 49.901,43.113 49.216,43.498 L49.495,44.38 C49.857,45.52 49.752,46.734 49.2,47.799 C48.648,48.864 47.717,49.65 46.576,50.012 C46.153,50.145 45.719,50.215 45.286,50.222 C43.255,50.222 41.535,48.964 40.941,47.091 L40.895,46.946 C40.093,47.156 39.286,47.332 38.483,47.471 L38.483,47.488 C38.483,49.924 36.502,51.937 34.066,51.974 L33.997,51.975" id="Fill-490" fill="#A0A19D"></path>
        <path d="M33.739,50.626 C31.265,50.625 29.253,48.612 29.253,46.138 L29.252,46.122 C28.507,45.994 27.756,45.833 27.006,45.642 L26.794,46.31 C26.21,48.152 24.52,49.41 22.587,49.44 C22.059,49.44 21.604,49.37 21.164,49.231 C20.021,48.868 19.088,48.082 18.536,47.017 C17.983,45.952 17.879,44.737 18.241,43.596 L18.674,42.235 C18.024,41.873 17.373,41.487 16.728,41.083 L16.113,41.989 C15.292,43.197 13.93,43.931 12.47,43.954 C11.5,43.954 10.628,43.686 9.881,43.178 C7.835,41.787 7.301,38.991 8.691,36.946 L9.567,35.656 C9.25,35.374 8.934,35.086 8.62,34.795 L7.582,35.741 C6.773,36.478 5.725,36.893 4.631,36.91 C3.303,36.909 2.093,36.375 1.244,35.445 C-0.421,33.615 -0.288,30.772 1.54,29.106 L2.658,28.087 C2.133,26.812 2.172,25.386 2.767,24.141 L1.54,23.025 C-0.288,21.359 -0.421,18.515 1.243,16.686 C2.072,15.774 3.257,15.239 4.493,15.22 C5.68,15.22 6.752,15.635 7.58,16.388 L8.806,17.504 C9.103,17.229 9.406,16.956 9.711,16.686 L8.691,15.186 C7.301,13.137 7.835,10.34 9.881,8.951 C10.608,8.457 11.457,8.189 12.334,8.176 C13.89,8.175 15.277,8.91 16.112,10.141 L16.892,11.287 C17.514,10.901 18.14,10.532 18.766,10.184 L18.242,8.533 C17.879,7.391 17.983,6.176 18.535,5.112 C19.086,4.048 20.019,3.262 21.163,2.9 C21.581,2.768 22.012,2.697 22.445,2.691 C24.482,2.69 26.201,3.948 26.794,5.821 L27.107,6.806 C27.822,6.625 28.54,6.473 29.253,6.35 L29.253,5.425 C29.253,2.989 31.234,0.976 33.67,0.938 C34.936,0.938 36.062,1.405 36.91,2.253 C37.759,3.102 38.226,4.227 38.227,5.425 L38.227,6.35 C38.882,6.464 39.544,6.603 40.206,6.765 L40.686,5.252 C41.269,3.411 42.959,2.152 44.891,2.123 C45.422,2.123 45.877,2.193 46.314,2.332 C47.459,2.695 48.393,3.48 48.944,4.545 C49.496,5.61 49.6,6.825 49.237,7.966 L48.561,10.101 C49.145,10.422 49.731,10.762 50.315,11.12 L51.366,9.573 C52.187,8.366 53.549,7.631 55.009,7.609 C55.98,7.608 56.851,7.877 57.598,8.385 C59.643,9.774 60.178,12.569 58.79,14.616 L57.526,16.474 C57.806,16.72 58.085,16.969 58.362,17.221 L59.897,15.822 C60.705,15.086 61.752,14.67 62.845,14.654 C64.176,14.653 65.385,15.187 66.235,16.118 C67.043,17.006 67.456,18.154 67.4,19.351 C67.343,20.549 66.824,21.653 65.937,22.458 L64.509,23.758 C65.205,24.939 65.375,26.348 64.973,27.659 L65.939,28.54 C66.825,29.346 67.344,30.45 67.4,31.648 C67.455,32.846 67.041,33.993 66.234,34.878 C65.405,35.789 64.222,36.323 62.986,36.343 C61.799,36.343 60.727,35.928 59.899,35.175 L59.166,34.507 C58.832,34.822 58.492,35.134 58.151,35.442 L58.788,36.378 C60.178,38.425 59.645,41.221 57.599,42.611 C56.872,43.104 56.023,43.374 55.145,43.387 C53.588,43.388 52.201,42.653 51.366,41.423 L51.02,40.913 C50.332,41.35 49.643,41.764 48.958,42.149 L49.237,43.031 C49.599,44.171 49.495,45.385 48.943,46.45 C48.391,47.515 47.459,48.301 46.319,48.663 C45.895,48.796 45.462,48.865 45.028,48.873 C42.997,48.873 41.277,47.615 40.684,45.742 L40.638,45.597 C39.835,45.807 39.028,45.983 38.225,46.122 L38.226,46.139 C38.226,48.575 36.244,50.588 33.809,50.625 L33.739,50.626" id="Fill-491" fill="#FFFFFF"></path>
        <path d="M33.74,16.627 C32.703,16.627 31.863,15.787 31.863,14.751 L31.863,5.425 C31.863,4.388 32.703,3.548 33.74,3.548 C34.776,3.548 35.616,4.388 35.616,5.425 L35.616,14.751 C35.616,15.787 34.776,16.627 33.74,16.627" id="Fill-492" fill="#1A1A19"></path>
        <path d="M25.289,17.795 C24.493,17.795 23.755,17.284 23.502,16.485 L20.73,7.744 C20.417,6.756 20.963,5.701 21.951,5.388 C22.938,5.077 23.993,5.622 24.307,6.61 L27.078,15.351 C27.391,16.339 26.845,17.393 25.857,17.706 C25.669,17.766 25.477,17.795 25.289,17.795" id="Fill-493" fill="#1A1A19"></path>
        <path d="M17.947,22.695 C17.347,22.695 16.757,22.408 16.394,21.874 L10.85,13.718 C10.268,12.86 10.491,11.693 11.348,11.111 C12.206,10.528 13.372,10.751 13.954,11.608 L19.497,19.764 C20.08,20.621 19.857,21.788 19,22.37 C18.677,22.59 18.31,22.695 17.947,22.695" id="Fill-494" fill="#1A1A19"></path>
        <path d="M12.875,29.154 C12.424,29.154 11.972,28.993 11.613,28.665 L3.298,21.094 C2.531,20.396 2.476,19.21 3.174,18.444 C3.871,17.677 5.057,17.622 5.824,18.32 L14.139,25.891 C14.905,26.588 14.961,27.775 14.263,28.541 C13.893,28.948 13.385,29.154 12.875,29.154" id="Fill-495" fill="#1A1A19"></path>
        <path d="M42.19,17.227 C42.001,17.227 41.81,17.199 41.622,17.139 C40.634,16.826 40.087,15.771 40.401,14.783 L43.173,6.042 C43.486,5.054 44.54,4.509 45.529,4.821 C46.516,5.134 47.063,6.189 46.749,7.177 L43.977,15.918 C43.724,16.717 42.985,17.227 42.19,17.227" id="Fill-496" fill="#1A1A19"></path>
        <path d="M49.532,22.128 C49.169,22.128 48.802,22.023 48.479,21.803 C47.622,21.221 47.4,20.054 47.982,19.197 L53.525,11.041 C54.108,10.184 55.274,9.961 56.132,10.544 C56.989,11.127 57.211,12.293 56.629,13.151 L51.086,21.306 C50.722,21.84 50.132,22.128 49.532,22.128" id="Fill-497" fill="#1A1A19"></path>
        <path d="M54.604,28.587 C54.094,28.587 53.586,28.38 53.216,27.974 C52.518,27.207 52.574,26.021 53.34,25.323 L61.655,17.753 C62.421,17.054 63.607,17.11 64.306,17.877 C65.003,18.643 64.948,19.83 64.181,20.527 L55.866,28.098 C55.507,28.425 55.055,28.587 54.604,28.587" id="Fill-498" fill="#1A1A19"></path>
        <path d="M33.739,34.936 C34.776,34.936 35.616,35.776 35.616,36.812 L35.616,46.139 C35.616,47.175 34.776,48.015 33.739,48.015 C32.703,48.015 31.863,47.175 31.863,46.139 L31.863,36.812 C31.863,35.776 32.703,34.936 33.739,34.936" id="Fill-499" fill="#1A1A19"></path>
        <path d="M42.19,33.768 C42.985,33.768 43.724,34.279 43.977,35.078 L46.749,43.819 C47.062,44.807 46.516,45.862 45.528,46.175 C44.54,46.486 43.486,45.941 43.172,44.953 L40.401,36.212 C40.087,35.224 40.634,34.17 41.622,33.857 C41.81,33.797 42.002,33.768 42.19,33.768" id="Fill-500" fill="#1A1A19"></path>
        <path d="M49.532,28.868 C50.132,28.868 50.722,29.155 51.085,29.689 L56.629,37.846 C57.211,38.703 56.988,39.87 56.131,40.452 C55.273,41.035 54.107,40.812 53.525,39.955 L47.981,31.799 C47.399,30.942 47.622,29.775 48.479,29.193 C48.802,28.973 49.169,28.868 49.532,28.868" id="Fill-501" fill="#1A1A19"></path>
        <path d="M54.604,22.409 C55.055,22.409 55.507,22.57 55.866,22.898 L64.181,30.469 C64.948,31.167 65.003,32.353 64.305,33.119 C63.608,33.886 62.422,33.941 61.655,33.243 L53.34,25.673 C52.574,24.975 52.518,23.788 53.216,23.022 C53.586,22.615 54.094,22.409 54.604,22.409" id="Fill-502" fill="#1A1A19"></path>
        <path d="M25.289,34.336 C25.477,34.336 25.669,34.364 25.857,34.424 C26.845,34.737 27.392,35.792 27.078,36.78 L24.306,45.521 C23.993,46.509 22.939,47.054 21.95,46.742 C20.963,46.429 20.416,45.374 20.729,44.387 L23.502,35.645 C23.755,34.846 24.494,34.336 25.289,34.336" id="Fill-503" fill="#1A1A19"></path>
        <path d="M17.947,29.435 C18.31,29.435 18.677,29.54 19,29.76 C19.857,30.342 20.079,31.509 19.497,32.366 L13.954,40.522 C13.371,41.379 12.205,41.602 11.347,41.019 C10.49,40.436 10.268,39.27 10.85,38.412 L16.393,30.257 C16.756,29.723 17.346,29.435 17.947,29.435" id="Fill-504" fill="#1A1A19"></path>
        <path d="M12.875,22.976 C13.385,22.976 13.893,23.183 14.263,23.589 C14.961,24.356 14.905,25.542 14.139,26.24 L5.824,33.81 C5.058,34.509 3.872,34.453 3.173,33.686 C2.476,32.92 2.531,31.733 3.298,31.036 L11.613,23.465 C11.972,23.138 12.424,22.976 12.875,22.976" id="Fill-505" fill="#1A1A19"></path>
        <path d="M62.027,24.756 C62.753,25.612 62.753,26.86 62.027,27.717 C58.428,31.968 47.125,43.913 33.739,43.913 C20.353,43.913 9.051,31.968 5.451,27.717 C4.726,26.86 4.726,25.612 5.451,24.756 C9.051,20.504 20.353,8.56 33.739,8.56 C47.126,8.56 58.428,20.504 62.027,24.756" id="Fill-506" fill="#1A1A19"></path>
        <path d="M33.739,41.336 C21.522,41.336 10.888,29.896 7.92,26.39 C7.844,26.299 7.844,26.173 7.92,26.083 C10.888,22.576 21.523,11.136 33.739,11.136 C45.956,11.136 56.591,22.576 59.559,26.083 C59.635,26.173 59.635,26.299 59.559,26.39 C56.59,29.896 45.957,41.336 33.739,41.336" id="Fill-507" fill="#FFFFFF"></path>
        <path d="M47.244,25.993 C47.244,33.451 41.198,39.497 33.739,39.497 C26.281,39.497 20.235,33.451 20.235,25.993 C20.235,18.535 26.281,12.489 33.739,12.489 C41.198,12.489 47.244,18.535 47.244,25.993" id="Fill-508" fill="#4A8ABD"></path>
        <path d="M39.875,25.993 C39.875,29.381 37.128,32.128 33.739,32.128 C30.351,32.128 27.604,29.381 27.604,25.993 C27.604,22.605 30.351,19.858 33.739,19.858 C37.128,19.858 39.875,22.605 39.875,25.993" id="Fill-509" fill="#1A1A19"></path>
        <path d="M36.154,21.079 C36.154,23.134 37.82,24.799 39.875,24.799 C41.929,24.799 43.595,23.134 43.595,21.079 C43.595,19.024 41.929,17.359 39.875,17.359 C37.82,17.359 36.154,19.024 36.154,21.079" id="Fill-510" fill="#FFFFFF"></path>
    </g>
</svg>