<?xml version="1.0" encoding="UTF-8" standalone="no"?>
<svg width="70px" height="58px" viewBox="0 0 70 58" version="1.1" xmlns="http://www.w3.org/2000/svg" xmlns:xlink="http://www.w3.org/1999/xlink">
    <!-- Generator: Sketch 39.1 (31720) - http://www.bohemiancoding.com/sketch -->
    <title>Slice 1</title>
    <desc>Created with Sketch.</desc>
    <defs></defs>
    <g id="Page-1" stroke="none" stroke-width="1" fill="none" fill-rule="evenodd">
        <path d="M35.481,57.958 C34.302,57.958 33.169,57.523 32.29,56.734 C32.149,56.617 32.026,56.505 31.911,56.376 L2.416,23.406 C2.174,23.136 1.964,22.825 1.777,22.458 C1.112,21.151 1.13,19.609 1.825,18.329 C1.969,18.062 2.131,17.822 2.315,17.6 L13.533,4.187 C13.88,3.772 14.304,3.411 14.828,3.08 C15.724,2.516 16.733,2.218 17.748,2.218 L53.183,2.218 C54.082,2.218 54.994,2.458 55.819,2.911 C56.447,3.256 56.978,3.686 57.398,4.189 L68.61,17.595 C68.797,17.817 68.96,18.059 69.107,18.332 C69.8,19.611 69.818,21.154 69.153,22.458 C68.97,22.819 68.76,23.132 68.512,23.408 L39.021,56.375 C38.798,56.622 38.55,56.846 38.279,57.045 C37.465,57.641 36.496,57.958 35.481,57.958" id="Fill-143" fill="#A0A19D"></path>
        <path d="M35.1,56.695 C33.921,56.695 32.788,56.26 31.909,55.471 C31.769,55.354 31.645,55.242 31.53,55.113 L2.035,22.143 C1.793,21.873 1.583,21.562 1.396,21.195 C0.731,19.888 0.749,18.346 1.444,17.066 C1.588,16.799 1.75,16.559 1.935,16.337 L13.153,2.924 C13.499,2.51 13.923,2.148 14.447,1.818 C15.343,1.253 16.352,0.955 17.367,0.955 L52.802,0.955 C53.701,0.955 54.613,1.195 55.439,1.648 C56.066,1.993 56.597,2.423 57.017,2.926 L68.229,16.332 C68.416,16.554 68.579,16.796 68.726,17.069 C69.42,18.348 69.437,19.891 68.772,21.195 C68.59,21.556 68.379,21.869 68.132,22.145 L38.64,55.112 C38.418,55.359 38.169,55.583 37.898,55.782 C37.084,56.378 36.115,56.695 35.1,56.695" id="Fill-144" fill="#FFFFFF"></path>
        <path d="M3.306,20.221 C3.395,20.394 3.498,20.563 3.634,20.714 L33.128,53.683 L33.342,53.876 C29.188,46.386 20.512,31.293 14.095,20.221 L3.306,20.221" id="Fill-145" fill="#BE8BB2"></path>
        <path d="M15.59,30.001 L8.153,21.688 C7.903,21.408 7.473,21.384 7.193,21.634 C6.914,21.885 6.89,22.314 7.14,22.594 L14.577,30.908 C14.827,31.187 15.257,31.211 15.537,30.961 C15.817,30.711 15.841,30.281 15.59,30.001" id="Fill-146" fill="#FFFFFF"></path>
        <path d="M18.782,33.57 L17.749,32.414 C17.498,32.134 17.069,32.11 16.789,32.361 C16.509,32.611 16.485,33.041 16.736,33.321 L17.769,34.476 C18.02,34.756 18.449,34.78 18.729,34.529 C19.009,34.279 19.033,33.849 18.782,33.57" id="Fill-147" fill="#FFFFFF"></path>
        <path d="M36.633,54.051 C36.778,53.944 36.916,53.823 37.041,53.683 L66.535,20.714 C66.67,20.563 66.774,20.394 66.862,20.221 L55.977,20.221 C49.51,31.378 40.748,46.622 36.633,54.051" id="Fill-148" fill="#6BBE9C"></path>
        <path d="M15.984,3.97 L15.591,3.632 C15.299,3.816 15.024,4.029 14.797,4.3 L3.584,17.708 C3.483,17.828 3.4,17.956 3.328,18.089 L13.731,18.089 L15.984,3.97" id="Fill-149" fill="#6BBE9C"></path>
        <path d="M8.159,16.486 L13.541,10.045 C13.781,9.757 13.743,9.328 13.455,9.087 C13.167,8.847 12.738,8.885 12.497,9.173 L7.116,15.614 C6.875,15.902 6.913,16.331 7.201,16.572 C7.49,16.812 7.918,16.774 8.159,16.486" id="Fill-150" fill="#FFFFFF"></path>
        <polyline id="Fill-151" fill="#4A8ABD" points="17.881 5.603 15.89 18.089 32.392 18.089 17.881 5.603"></polyline>
        <path d="M56.341,18.089 L66.84,18.089 C66.768,17.956 66.685,17.828 66.585,17.708 L55.371,4.3 C55.101,3.977 54.767,3.726 54.406,3.528 L54.066,3.831 L56.341,18.089" id="Fill-152" fill="#4A8ABD"></path>
        <polyline id="Fill-153" fill="#BE8BB2" points="38.063 18.089 54.181 18.089 52.176 5.515 38.063 18.089"></polyline>
        <path d="M36.15,50.549 C39.117,45.222 44.337,36.057 53.512,20.221 L36.15,20.221 L36.15,50.549" id="Fill-154" fill="#4A8ABD"></path>
        <path d="M34.018,50.723 L34.018,20.221 L16.559,20.221 C25.837,36.233 31.069,45.423 34.018,50.723" id="Fill-155" fill="#E996B7"></path>
        <path d="M38.063,18.089 L52.176,5.515 L54.181,18.089 L38.063,18.089 L38.063,18.089 Z M36.15,50.549 L36.15,20.221 L53.512,20.221 C44.337,36.056 39.117,45.222 36.15,50.549 L36.15,50.549 Z M34.018,50.723 C31.069,45.423 25.837,36.233 16.559,20.221 L34.018,20.221 L34.018,50.723 L34.018,50.723 Z M17.881,5.603 L32.392,18.089 L15.89,18.089 L17.881,5.603 L17.881,5.603 Z M66.84,18.089 L56.341,18.089 L54.066,3.831 L54.406,3.528 C53.918,3.26 53.372,3.1 52.802,3.1 L51.683,3.1 L35.727,17.316 C35.547,17.176 35.331,17.078 35.084,17.078 C34.916,17.078 34.763,17.125 34.621,17.195 L18.276,3.13 L18.281,3.1 L17.367,3.1 C16.728,3.1 16.12,3.299 15.591,3.632 L15.984,3.97 L13.731,18.089 L3.328,18.089 C2.968,18.754 2.966,19.551 3.306,20.221 L14.095,20.221 C20.512,31.293 29.188,46.386 33.342,53.876 C34.27,54.709 35.645,54.775 36.633,54.051 C40.748,46.622 49.51,31.378 55.977,20.221 L66.862,20.221 C67.203,19.551 67.201,18.754 66.84,18.089 L66.84,18.089 Z" id="Fill-156" fill="#1A1A19"></path>
        <path d="M18.281,3.1 L18.276,3.13 L34.924,17.531 C35.111,17.693 35.389,17.69 35.572,17.526 L51.683,3.1 L18.281,3.1" id="Fill-157" fill="#E996B7"></path>
        <path d="M23.714,5.818 L38.063,5.818 C38.439,5.818 38.743,5.514 38.743,5.139 C38.743,4.763 38.439,4.459 38.063,4.459 L23.714,4.459 C23.339,4.459 23.035,4.763 23.035,5.139 C23.035,5.514 23.339,5.818 23.714,5.818" id="Fill-158" fill="#FFFFFF"></path>
    </g>
</svg>