<?xml version="1.0" encoding="UTF-8" standalone="no"?>
<svg width="79px" height="81px" viewBox="0 0 79 81" version="1.1" xmlns="http://www.w3.org/2000/svg" xmlns:xlink="http://www.w3.org/1999/xlink">
    <!-- Generator: Sketch 39.1 (31720) - http://www.bohemiancoding.com/sketch -->
    <title>Slice 1</title>
    <desc>Created with Sketch.</desc>
    <defs></defs>
    <g id="Page-1" stroke="none" stroke-width="1" fill="none" fill-rule="evenodd">
        <path d="M50.035,80.822 C44.083,80.822 38.859,77.026 37.038,71.376 L37.007,71.282 L33.888,57.43 C31.898,58.452 29.954,59.274 28.024,59.908 L28.072,60.003 L25.399,60.662 L25.252,60.695 C24.866,60.787 24.455,60.874 24.042,60.955 L23.685,61.027 C23.276,61.103 22.867,61.166 22.456,61.225 C22.456,61.225 22.149,61.273 22.054,61.285 C21.639,61.339 21.22,61.379 20.8,61.415 L20.689,61.426 L20.421,61.452 C19.836,61.494 19.296,61.518 18.766,61.526 L18.619,61.527 C18.352,61.527 18.078,61.516 17.802,61.5 L17.716,61.495 C17.413,61.475 17.125,61.447 16.834,61.411 L16.657,61.388 C16.253,61.334 15.848,61.264 15.451,61.18 L15.297,61.146 C14.517,60.972 13.792,60.763 13.091,60.512 L12.878,60.433 C12.655,60.35 12.434,60.263 12.216,60.172 L11.937,60.053 C11.728,59.962 11.528,59.869 11.329,59.772 L11.061,59.642 C10.784,59.502 10.511,59.355 10.246,59.201 L10.118,59.123 C9.888,58.986 9.665,58.845 9.448,58.7 L9.203,58.53 C9.017,58.399 8.841,58.269 8.67,58.136 L8.437,57.95 C8.246,57.794 8.058,57.629 7.876,57.461 L7.745,57.34 C7.481,57.086 7.269,56.864 7.077,56.642 C5.937,55.322 5.208,53.724 4.91,51.894 C4.388,48.693 5.284,44.733 7.369,41.03 C7.536,40.733 7.713,40.442 7.89,40.152 L7.927,40.091 C9.099,38.154 10.48,36.291 12.05,34.527 C10.758,33.778 9.569,32.858 8.529,31.797 C7.737,30.988 7.507,29.793 7.944,28.753 C8.384,27.706 9.402,27.03 10.538,27.03 C10.646,27.03 10.756,27.036 10.868,27.048 C11.009,27.065 11.157,27.073 11.305,27.073 C11.523,27.073 11.749,27.055 11.979,27.02 L9.784,22.798 L9.324,21.921 L6.174,15.854 L5.717,14.981 L3.033,9.813 L2.574,8.922 L1.026,5.953 C0.556,5.05 0.586,3.997 1.108,3.137 C1.632,2.271 2.584,1.733 3.59,1.733 C4.353,1.733 5.077,2.037 5.626,2.59 L7.405,4.382 L7.954,4.926 L11.773,8.768 L14.462,11.462 L18.271,15.294 L18.829,15.849 L21.133,18.167 C22.627,16.433 24.551,14.727 27.058,13.933 C28.059,13.617 29.13,13.456 30.243,13.456 C31.852,13.456 33.56,13.788 35.33,14.442 C35.761,14.381 36.201,14.351 36.646,14.351 C36.973,14.351 37.309,14.367 37.646,14.4 C38.326,14.466 39.007,14.616 39.668,14.846 C40.348,15.081 41.005,15.407 41.621,15.811 C43.274,14.362 44.866,13.284 45.787,12.701 C46.236,12.417 46.753,12.267 47.284,12.267 C48.428,12.267 49.445,12.953 49.875,14.016 C50.13,14.644 50.555,15.759 50.973,17.143 C51.174,17.167 51.373,17.196 51.57,17.229 C55.474,17.89 58.766,20.35 60.16,23.65 C60.773,25.1 60.988,26.614 61.179,27.949 C61.217,28.217 61.255,28.484 61.296,28.751 C61.477,29.921 61.754,31.231 62.435,32.082 C62.786,32.52 63.36,32.838 63.799,32.838 C63.894,32.838 63.976,32.824 64.048,32.793 L66.919,31.603 L67.077,34.706 C67.151,36.175 66.591,37.667 65.538,38.817 C65.917,38.904 66.306,38.95 66.696,38.95 C67.124,38.95 67.541,38.895 67.936,38.786 L70.582,38.06 L70.705,40.801 C70.777,42.409 70.228,43.986 69.268,45.253 C71.742,47.011 73.461,49.84 73.674,52.907 L73.682,53.029 L78.666,51.959 L75.375,56.563 C74.995,57.094 74.541,57.569 74.026,57.982 L74.03,58.046 L73.989,58.011 C72.76,58.985 71.191,59.605 69.48,59.779 C69.79,63.942 68.169,68.097 64.985,70.949 L59.082,77.347 L58.996,77.422 C56.504,79.615 53.322,80.822 50.035,80.822" id="Fill-175" fill="#A0A19D"></path>
        <path d="M50.035,79.18 C44.083,79.18 38.859,75.384 37.038,69.734 L37.007,69.64 L33.888,55.788 C31.898,56.81 29.954,57.632 28.024,58.266 L28.072,58.361 L25.399,59.02 L25.252,59.052 C24.866,59.145 24.455,59.232 24.042,59.313 L23.685,59.385 C23.276,59.461 22.867,59.524 22.456,59.583 C22.456,59.583 22.149,59.631 22.054,59.643 C21.639,59.697 21.22,59.737 20.8,59.773 L20.689,59.784 L20.421,59.809 C19.836,59.852 19.296,59.876 18.766,59.883 L18.619,59.885 C18.352,59.885 18.078,59.874 17.802,59.858 L17.716,59.852 C17.413,59.832 17.124,59.805 16.834,59.769 L16.657,59.746 C16.253,59.692 15.848,59.622 15.451,59.538 L15.297,59.504 C14.517,59.33 13.792,59.12 13.091,58.87 L12.878,58.791 C12.655,58.708 12.434,58.621 12.216,58.53 L11.937,58.411 C11.728,58.32 11.528,58.226 11.329,58.13 L11.061,58 C10.784,57.859 10.511,57.713 10.246,57.559 L10.118,57.481 C9.888,57.344 9.665,57.203 9.448,57.058 L9.203,56.887 C9.017,56.756 8.841,56.627 8.67,56.494 L8.437,56.308 C8.246,56.152 8.058,55.987 7.876,55.818 L7.745,55.698 C7.481,55.444 7.269,55.222 7.077,55 C5.937,53.68 5.208,52.082 4.91,50.252 C4.388,47.051 5.284,43.091 7.369,39.387 C7.536,39.091 7.713,38.8 7.89,38.51 L7.927,38.449 C9.099,36.512 10.48,34.648 12.05,32.885 C10.758,32.136 9.569,31.216 8.529,30.155 C7.737,29.346 7.507,28.151 7.944,27.111 C8.384,26.064 9.402,25.387 10.538,25.387 C10.646,25.387 10.756,25.394 10.868,25.406 C11.009,25.423 11.157,25.431 11.305,25.431 C11.523,25.431 11.749,25.413 11.979,25.378 L9.784,21.156 L9.324,20.279 L6.174,14.212 L5.717,13.339 L3.033,8.171 L2.574,7.28 L1.026,4.311 C0.556,3.408 0.586,2.355 1.108,1.495 C1.633,0.629 2.584,0.091 3.59,0.091 C4.354,0.091 5.077,0.395 5.626,0.947 L7.405,2.74 L7.955,3.284 L11.773,7.126 L14.462,9.82 L18.271,13.652 L18.829,14.207 L21.133,16.525 C22.627,14.791 24.551,13.085 27.058,12.291 C28.059,11.975 29.13,11.814 30.243,11.814 C31.852,11.814 33.561,12.145 35.33,12.8 C35.761,12.739 36.201,12.708 36.646,12.708 C36.973,12.708 37.309,12.725 37.646,12.758 C38.326,12.824 39.006,12.974 39.668,13.204 C40.348,13.439 41.005,13.765 41.621,14.169 C43.274,12.72 44.866,11.641 45.787,11.059 C46.236,10.775 46.753,10.624 47.284,10.624 C48.428,10.624 49.445,11.311 49.875,12.374 C50.13,13.002 50.555,14.116 50.973,15.501 C51.174,15.525 51.373,15.554 51.57,15.587 C55.474,16.247 58.766,18.708 60.16,22.008 C60.773,23.458 60.988,24.972 61.179,26.307 C61.217,26.575 61.255,26.842 61.297,27.108 C61.477,28.279 61.754,29.589 62.435,30.44 C62.786,30.878 63.36,31.196 63.799,31.196 C63.894,31.196 63.976,31.181 64.049,31.151 L66.919,29.96 L67.077,33.064 C67.151,34.533 66.591,36.025 65.538,37.175 C65.917,37.262 66.306,37.307 66.696,37.307 C67.124,37.307 67.541,37.253 67.936,37.144 L70.582,36.417 L70.705,39.159 C70.777,40.767 70.228,42.344 69.268,43.611 C71.742,45.369 73.461,48.198 73.674,51.265 L73.682,51.387 L78.665,50.317 L75.375,54.921 C74.995,55.452 74.541,55.927 74.026,56.34 L74.03,56.403 L73.989,56.369 C72.76,57.342 71.191,57.963 69.479,58.137 C69.79,62.299 68.169,66.455 64.985,69.307 L59.082,75.705 L58.996,75.78 C56.504,77.972 53.322,79.18 50.035,79.18" id="Fill-176" fill="#FFFFFF"></path>
        <path d="M24.871,23.385 L16.566,29.457 L14.869,26.186 L14.405,25.302 L13.946,24.414 L11.728,20.145 L11.264,19.261 L10.801,18.367 L8.583,14.098 L8.12,13.205 L7.656,12.321 L5.442,8.057 L4.521,6.276 L2.969,3.298 C2.602,2.594 3.513,1.929 4.072,2.492 L5.285,3.713 L5.848,4.282 L6.413,4.84 L9.1,7.543 L10.218,8.669 L12.911,11.368 L13.475,11.937 L16.717,15.197 L17.286,15.761 L17.845,16.324 L20.532,19.027 L21.65,20.153 L24.871,23.385" id="Fill-177" fill="#F9CE2B"></path>
        <polyline id="Fill-178" fill="#FFFFFF" points="21.65 20.153 19.495 27.316 17.617 28.688 20.532 19.027 21.65 20.153"></polyline>
        <polyline id="Fill-179" fill="#FFFFFF" points="13.946 24.414 14.405 25.302 14.869 26.186"></polyline>
        <polyline id="Fill-180" fill="#FFFFFF" points="17.845 16.324 14.869 26.186 14.405 25.302 13.946 24.414 16.717 15.197 17.286 15.761 17.845 16.324"></polyline>
        <polyline id="Fill-181" fill="#FFFFFF" points="11.264 19.261 10.801 18.367 12.911 11.368 13.475 11.937 14.029 12.494 11.728 20.145"></polyline>
        <polyline id="Fill-182" fill="#FFFFFF" points="10.218 8.669 8.583 14.098 8.12 13.205 7.656 12.321 9.1 7.543 10.218 8.669"></polyline>
        <polyline id="Fill-183" fill="#FFFFFF" points="6.413 4.84 5.442 8.057 4.521 6.276 5.285 3.713 5.848 4.282 6.413 4.84"></polyline>
        <path d="M51.204,17.747 C54.16,18.247 56.975,20.1 58.142,22.861 C58.752,24.305 58.892,25.895 59.131,27.444 C59.371,28.993 59.745,30.585 60.725,31.809 C61.704,33.033 63.44,33.776 64.888,33.175 C64.99,35.184 63.081,37.055 61.075,36.913 C62.83,39.029 65.866,39.985 68.516,39.257 C68.614,41.437 66.995,43.572 64.87,44.066 C68.368,44.681 71.242,47.873 71.488,51.416 C70.531,50.615 69.258,50.2 68.012,50.284 C68.661,52.586 71.254,54.149 73.592,53.647 C72.159,55.652 69.372,56.333 66.956,55.845 C64.541,55.357 62.437,53.902 60.548,52.318 C53.15,46.114 47.954,37.336 46.073,27.866 C45.76,26.293 45.528,24.676 44.826,23.234 C43.882,21.297 42.482,21.051 40.872,20.116 C41.598,19.185 43.419,18.764 44.513,18.403 C46.661,17.695 48.959,17.367 51.204,17.747" id="Fill-184" fill="#384489"></path>
        <path d="M9.278,40.465 C6.991,44.531 5.686,50.037 8.736,53.569 C10.945,56.126 15.355,57.742 18.734,57.693 C26.547,57.578 33.625,53.987 39.996,49.463 C43.977,46.636 47.504,42.915 49.145,38.316 C50.787,33.717 50.247,28.16 46.972,24.538 C42.038,19.083 32.842,21.82 27.094,24.443 C19.879,27.736 13.176,33.536 9.278,40.465" id="Fill-185" fill="#60C1C8"></path>
        <path d="M14.859,37.288 C15.713,36.251 16.64,35.248 17.628,34.29 C17.906,34.021 17.913,33.577 17.644,33.299 C17.375,33.022 16.931,33.015 16.654,33.284 C15.629,34.278 14.666,35.319 13.777,36.398 C13.531,36.696 13.574,37.138 13.873,37.384 C14.171,37.63 14.613,37.587 14.859,37.288" id="Fill-186" fill="#FFFFFF"></path>
        <path d="M24.875,56.893 C22.879,57.376 20.834,57.663 18.733,57.691 C18.186,57.698 17.619,57.663 17.031,57.586 C16.239,57.488 15.427,57.313 14.622,57.068 C12.324,56.382 10.104,55.156 8.739,53.566 C5.685,50.036 6.988,44.532 9.278,40.462 C9.733,39.657 10.23,38.866 10.756,38.095 C10.917,38.193 11.085,38.291 11.239,38.396 C13.858,40.112 16.162,42.29 18.193,44.658 C20.056,46.829 21.737,49.203 23.012,51.759 C23.621,52.985 24.069,54.295 24.49,55.59 C24.623,56.017 24.742,56.459 24.875,56.893" id="Fill-187" fill="#E996B7"></path>
        <path d="M9.971,50.083 C9.815,49.546 9.741,48.96 9.741,48.341 C9.737,46.453 10.445,44.267 11.422,42.388 C11.6,42.045 11.466,41.622 11.123,41.444 C10.78,41.266 10.357,41.4 10.179,41.743 C9.133,43.767 8.344,46.114 8.34,48.341 C8.34,49.071 8.427,49.789 8.627,50.474 C8.735,50.846 9.124,51.059 9.495,50.951 C9.866,50.843 10.08,50.454 9.972,50.083" id="Fill-188" fill="#FFFFFF"></path>
        <path d="M47.966,25.819 L65.498,52.958 C68.571,57.713 67.699,64.001 63.449,67.741 L57.549,74.135 C51.371,79.57 41.648,76.893 39.123,69.062 L33.433,43.797 L47.966,25.819" id="Fill-189" fill="#60C1C8"></path>
        <path d="M15.794,47.972 C15.794,48.895 15.135,49.642 14.321,49.642 C13.508,49.642 12.848,48.895 12.848,47.972 C12.848,47.05 13.508,46.302 14.321,46.302 C15.135,46.302 15.794,47.05 15.794,47.972" id="Fill-190" fill="#384489"></path>
        <path d="M25.013,34.352 L25.008,34.538 C25.011,35.614 25.487,36.605 26.206,37.336 C26.927,38.065 27.914,38.556 28.999,38.56 L29.006,38.56 C30.091,38.558 31.081,38.069 31.803,37.34 C32.524,36.609 33.002,35.617 33.005,34.539 L33.001,34.368 C32.982,33.982 32.655,33.683 32.268,33.701 C31.882,33.72 31.583,34.048 31.601,34.434 L31.604,34.539 C31.606,35.188 31.302,35.856 30.807,36.354 C30.314,36.854 29.654,37.162 29.006,37.16 L29,37.16 L29.002,37.16 C28.354,37.161 27.696,36.852 27.203,36.352 C26.71,35.854 26.407,35.185 26.409,34.538 L26.412,34.426 C26.432,34.04 26.136,33.71 25.75,33.69 C25.363,33.669 25.034,33.966 25.013,34.352" id="Fill-191" fill="#1A1A19"></path>
        <path d="M17.353,57.334 C17.248,57.425 17.143,57.509 17.031,57.586 C16.239,57.488 15.427,57.313 14.622,57.068 C15.287,56.991 15.931,56.725 16.429,56.284 C17.388,55.443 17.794,54 17.416,52.782 C17.297,52.418 17.507,52.018 17.878,51.906 C18.249,51.794 18.635,51.997 18.754,52.369 C19.3,54.127 18.733,56.123 17.353,57.334" id="Fill-192" fill="#1A1A19"></path>
        <path d="M35.643,15.292 C33.16,14.185 30.312,13.56 27.72,14.38 C25.127,15.201 23.176,17.33 21.556,19.514 C19.936,21.699 18.476,24.069 16.338,25.75 C14.2,27.431 11.131,28.287 8.734,27.002 C11.088,30.298 14.918,32.496 18.952,32.864 C22.985,33.233 27.15,31.766 30.062,28.951 C31.623,27.443 32.856,25.559 34.691,24.4 C35.912,23.629 41.914,22.214 42.287,24.775 C41.726,20.923 39.277,16.912 35.643,15.292" id="Fill-193" fill="#384489"></path>
        <path d="M37.434,14.939 C33.224,14.529 31.067,17.284 29.365,20.654 C28.329,22.706 26.803,24.925 24.511,25.104 C26.275,26.37 28.778,25.867 30.659,24.783 C32.54,23.699 34.107,22.113 36.043,21.131 C37.518,20.383 43.103,19.6 43.728,21.875 C43.703,18.985 41.671,16.216 38.95,15.273 C38.437,15.096 37.932,14.987 37.434,14.939" id="Fill-194" fill="#3973AC"></path>
        <path d="M49.57,26.14 C48.527,29.451 45.35,30.602 42.191,29.607 C39.032,28.612 37.088,25.848 38.131,22.537 C39.596,17.886 45.109,14.08 46.958,12.911 C47.28,12.707 47.701,12.843 47.844,13.196 C48.673,15.242 50.988,21.639 49.57,26.14" id="Fill-195" fill="#60C1C8"></path>
        <path d="M45.663,24.486 C45.195,25.971 43.77,26.488 42.353,26.041 C40.935,25.595 40.063,24.355 40.531,22.869 C41.034,21.272 42.602,19.896 43.682,19.104 C44.233,18.7 45.011,18.949 45.226,19.597 C45.652,20.882 46.152,22.935 45.663,24.486" id="Fill-196" fill="#E996B7"></path>
        <polyline id="Fill-197" fill="#BE8BB2" points="35.307 48.401 32.977 46.155 29.796 46.752 31.213 43.842 29.661 41.002 32.867 41.449 35.089 39.096 35.653 42.283 38.578 43.669 35.722 45.191 35.307 48.401"></polyline>
    </g>
</svg>