<?xml version="1.0" encoding="UTF-8" standalone="no"?>
<svg width="80px" height="59px" viewBox="0 0 80 59" version="1.1" xmlns="http://www.w3.org/2000/svg" xmlns:xlink="http://www.w3.org/1999/xlink">
    <!-- Generator: Sketch 39.1 (31720) - http://www.bohemiancoding.com/sketch -->
    <title>Slice 1</title>
    <desc>Created with Sketch.</desc>
    <defs></defs>
    <g id="Page-1" stroke="none" stroke-width="1" fill="none" fill-rule="evenodd">
        <path d="M49.288,58.422 L26.053,58.422 C25.917,58.422 25.784,58.414 25.65,58.405 L25.552,58.398 C11.092,58.103 2.246,51.71 1.278,40.859 C1.229,40.31 1.173,39.579 1.173,38.789 L1.173,26.701 C1.173,13.269 12.107,2.119 25.547,1.845 L25.636,1.845 C29.015,1.913 32.301,2.666 35.403,4.083 C35.521,4.137 35.637,4.196 35.752,4.255 L35.911,4.336 C36.722,4.707 37.858,5.381 38.401,5.721 C38.52,5.795 38.638,5.87 38.754,5.946 C39.078,6.159 39.396,6.378 39.71,6.606 C39.964,6.792 40.213,6.986 40.46,7.181 C40.813,7.458 41.161,7.739 41.499,8.034 C41.935,8.417 42.312,8.766 42.649,9.101 C42.846,9.297 43.034,9.499 43.221,9.701 L43.341,9.83 C43.591,10.099 43.839,10.375 44.08,10.657 C44.292,10.908 44.499,11.156 44.699,11.412 C44.968,11.754 45.227,12.109 45.479,12.467 L45.609,12.648 C45.715,12.792 45.819,12.937 45.917,13.086 C46.256,13.599 46.589,14.153 46.934,14.777 C47.031,14.955 47.12,15.129 47.207,15.303 L47.289,15.461 C47.503,15.88 47.707,16.307 47.899,16.741 C48.012,16.997 48.109,17.219 48.201,17.445 C48.43,18.013 48.638,18.586 48.819,19.148 C48.87,19.287 48.9,19.374 48.927,19.463 C49.121,20.093 49.295,20.774 49.457,21.537 C49.49,21.687 49.517,21.838 49.545,21.989 L49.577,22.166 C49.679,22.719 49.762,23.264 49.825,23.796 L49.836,23.891 C49.859,24.078 49.881,24.264 49.898,24.451 C49.975,25.295 50.01,26.009 50.01,26.701 C50.01,29.729 51.184,32.681 53.313,35.013 C55.15,37.024 57.483,38.275 59.403,38.275 L59.404,38.275 C61.009,38.274 62.098,37.395 62.73,35.586 C62.865,35.2 63.243,33.715 63.998,28.104 C58.503,26.601 54.823,22.742 54.823,18.235 L54.823,8.515 L57.21,8.757 C61.426,9.186 65.025,11.005 67.192,13.556 C69.359,11.005 72.958,9.186 77.174,8.757 L79.561,8.515 L79.561,18.235 C79.561,22.797 75.781,26.701 70.164,28.163 L70.132,33.555 C70.132,40.121 68.516,45.906 65.461,50.272 C61.729,55.604 56.137,58.422 49.288,58.422" id="Fill-159" fill="#A0A19D"></path>
        <path d="M25.322,57.113 C25.186,57.113 25.052,57.105 24.918,57.095 L24.82,57.089 C10.36,56.794 1.514,50.401 0.546,39.55 C0.497,39.001 0.441,38.269 0.441,37.479 L0.441,25.392 C0.441,11.96 11.375,0.809 24.815,0.535 L24.904,0.535 C28.283,0.604 31.569,1.357 34.671,2.774 C34.789,2.828 34.905,2.886 35.02,2.946 L35.179,3.026 C35.99,3.398 37.126,4.072 37.669,4.411 C37.788,4.485 37.906,4.56 38.022,4.637 C38.346,4.85 38.664,5.069 38.978,5.297 C39.232,5.482 39.481,5.676 39.728,5.871 C40.081,6.149 40.43,6.429 40.767,6.725 C41.203,7.108 41.58,7.457 41.917,7.792 C42.114,7.987 42.302,8.189 42.489,8.392 L42.609,8.521 C42.859,8.79 43.107,9.065 43.348,9.348 C43.56,9.598 43.767,9.847 43.967,10.102 C44.236,10.445 44.495,10.799 44.747,11.158 L44.877,11.339 C44.983,11.483 45.087,11.628 45.185,11.777 C45.524,12.289 45.857,12.843 46.202,13.467 C46.299,13.645 46.388,13.819 46.475,13.993 L46.557,14.152 C46.771,14.571 46.975,14.998 47.167,15.432 C47.28,15.688 47.377,15.909 47.469,16.135 C47.698,16.703 47.906,17.276 48.088,17.839 C48.137,17.978 48.168,18.065 48.195,18.153 C48.389,18.784 48.563,19.464 48.725,20.227 C48.758,20.378 48.785,20.528 48.813,20.679 L48.845,20.856 C48.947,21.409 49.03,21.955 49.093,22.486 L49.104,22.582 C49.127,22.768 49.149,22.954 49.166,23.142 C49.243,23.985 49.278,24.7 49.278,25.392 C49.278,28.419 50.452,31.372 52.581,33.704 C54.418,35.715 56.751,36.965 58.671,36.965 L58.672,36.965 C60.277,36.964 61.366,36.085 61.998,34.276 C62.133,33.89 62.511,32.405 63.266,26.795 C57.771,25.292 54.091,21.433 54.091,16.925 L54.091,7.205 L56.478,7.448 C60.694,7.877 64.293,9.695 66.46,12.246 C68.627,9.695 72.226,7.877 76.442,7.448 L78.829,7.205 L78.829,16.925 C78.829,21.487 75.049,25.392 69.432,26.853 L69.4,32.245 C69.4,38.811 67.784,44.597 64.729,48.962 C60.997,54.294 55.405,57.113 48.556,57.113 L25.322,57.113" id="Fill-160" fill="#FFFFFF"></path>
        <path d="M66.46,17.407 C66.139,13.414 61.79,10.166 56.258,9.604 L56.258,16.925 C56.258,20.937 60.313,24.272 65.676,25.094 C65.096,29.616 64.484,33.735 64.044,34.992 C60.811,44.238 47.111,36.661 47.111,25.392 C47.111,24.699 47.069,24.016 47.008,23.339 C46.99,23.137 46.964,22.939 46.94,22.739 C46.882,22.241 46.807,21.748 46.716,21.26 C46.68,21.066 46.647,20.872 46.606,20.679 C46.469,20.038 46.312,19.404 46.121,18.783 C46.092,18.688 46.054,18.597 46.024,18.502 C45.854,17.975 45.666,17.457 45.459,16.948 C45.372,16.732 45.278,16.52 45.185,16.307 C45.009,15.911 44.823,15.522 44.626,15.138 C44.52,14.93 44.417,14.72 44.304,14.515 C44.013,13.987 43.706,13.47 43.375,12.969 C43.248,12.776 43.107,12.593 42.974,12.405 C42.744,12.078 42.509,11.754 42.262,11.44 C42.079,11.206 41.889,10.978 41.697,10.752 C41.478,10.494 41.251,10.244 41.021,9.996 C40.812,9.772 40.608,9.546 40.391,9.33 C40.051,8.993 39.698,8.67 39.338,8.355 C39.03,8.084 38.711,7.828 38.388,7.575 C38.162,7.397 37.936,7.219 37.703,7.049 C37.417,6.842 37.127,6.642 36.831,6.448 C36.729,6.38 36.625,6.314 36.521,6.249 C35.92,5.874 34.919,5.291 34.276,4.996 C34.104,4.917 33.942,4.823 33.771,4.745 C31.04,3.498 28.03,2.767 24.86,2.702 C12.58,2.953 2.608,13.055 2.608,25.392 L2.608,37.479 C2.608,38.13 2.651,38.748 2.705,39.357 L22.007,39.358 C23.912,39.358 25.59,38.385 26.571,36.91 L26.571,41.874 C26.571,45.102 29.188,47.72 32.417,47.72 L62.953,47.72 C65.8,43.653 67.232,38.21 67.233,32.232 L67.276,25.089 C72.613,24.259 76.662,20.929 76.662,16.925 L76.662,9.604 C71.13,10.166 66.781,13.414 66.46,17.407" id="Fill-161" fill="#3973AC"></path>
        <path d="M6.854,20.735 C8.001,16.257 10.766,12.377 14.482,9.781 C14.897,9.492 14.998,8.921 14.709,8.507 C14.419,8.093 13.849,7.991 13.435,8.281 C9.367,11.122 6.343,15.364 5.082,20.281 C4.956,20.771 5.251,21.269 5.741,21.395 C6.23,21.52 6.729,21.225 6.854,20.735" id="Fill-162" fill="#FFFFFF"></path>
        <path d="M6.268,28.58 L6.268,27.1 C6.268,26.595 5.859,26.185 5.353,26.185 C4.848,26.185 4.438,26.595 4.438,27.1 L4.438,28.58 C4.438,29.086 4.848,29.495 5.353,29.495 C5.859,29.495 6.268,29.086 6.268,28.58" id="Fill-163" fill="#FFFFFF"></path>
        <path d="M24.86,54.922 C25.015,54.925 25.166,54.945 25.322,54.945 L48.556,54.945 C55.07,54.945 59.852,52.151 62.953,47.72 L32.417,47.72 C29.188,47.72 26.571,45.102 26.571,41.874 L26.571,36.91 C25.59,38.385 23.912,39.358 22.007,39.358 L2.705,39.357 C3.681,50.304 13.228,54.684 24.86,54.922" id="Fill-164" fill="#E996B7"></path>
        <path d="M14.302,49.401 C11.209,48.138 9.305,46.394 8.106,44.49 C7.838,44.062 7.273,43.933 6.845,44.202 C6.417,44.471 6.288,45.035 6.556,45.463 C7.953,47.696 10.21,49.715 13.612,51.096 C14.08,51.287 14.614,51.062 14.805,50.594 C14.995,50.126 14.77,49.592 14.302,49.401" id="Fill-165" fill="#FFFFFF"></path>
        <path d="M24.962,31.949 C24.962,32.553 24.472,33.043 23.867,33.043 C23.262,33.043 22.772,32.553 22.772,31.949 C22.772,31.344 23.262,30.854 23.867,30.854 C24.472,30.854 24.962,31.344 24.962,31.949" id="Fill-166" fill="#1A1A19"></path>
    </g>
</svg>