<?xml version="1.0" encoding="UTF-8" standalone="no"?>
<svg width="43px" height="70px" viewBox="0 0 43 70" version="1.1" xmlns="http://www.w3.org/2000/svg" xmlns:xlink="http://www.w3.org/1999/xlink">
    <!-- Generator: Sketch 39.1 (31720) - http://www.bohemiancoding.com/sketch -->
    <title>Slice 1</title>
    <desc>Created with Sketch.</desc>
    <defs></defs>
    <g id="Page-1" stroke="none" stroke-width="1" fill="none" fill-rule="evenodd">
        <path d="M11.592,69.966 C10.596,69.966 9.64,69.528 8.988,68.76 C8.269,67.913 8.02,66.804 8.304,65.717 L13.905,44.31 L3.561,43.436 C2.526,43.348 1.581,42.817 0.969,41.977 C0.357,41.138 0.138,40.075 0.372,39.062 L8.087,5.716 C8.425,4.261 9.649,3.191 11.134,3.051 L11.338,3.038 L34.505,2.228 C34.547,2.226 34.588,2.226 34.63,2.226 C35.767,2.226 36.823,2.778 37.473,3.719 C38.147,4.695 38.275,5.93 37.816,7.024 L30.6,24.223 L38.986,25.13 C40.324,25.275 41.492,26.129 42.036,27.358 C42.579,28.587 42.425,30.026 41.633,31.112 L14.318,68.571 C13.743,69.358 12.865,69.861 11.91,69.951 C11.803,69.961 11.697,69.966 11.592,69.966" id="Fill-58" fill="#A0A19D"></path>
        <path d="M11.793,68.717 C10.685,68.821 9.593,68.375 8.871,67.525 C8.152,66.679 7.903,65.57 8.187,64.483 L13.788,43.076 L3.444,42.201 C2.409,42.114 1.464,41.582 0.852,40.743 C0.24,39.903 0.022,38.841 0.255,37.827 L7.97,4.481 C8.308,3.027 9.532,1.956 11.017,1.817 L11.221,1.804 L34.388,0.993 C35.572,0.951 36.682,1.509 37.356,2.485 C38.03,3.46 38.158,4.696 37.699,5.789 L30.483,22.989 L38.869,23.896 C40.207,24.041 41.375,24.894 41.919,26.124 C42.462,27.353 42.309,28.791 41.516,29.878 L14.201,67.336 C13.626,68.124 12.748,68.627 11.793,68.717" id="Fill-59" fill="#FFFFFF"></path>
        <path d="M10.47,5.06 L2.756,38.403 C2.617,39.006 3.044,39.592 3.66,39.644 L15.608,40.654 C16.357,40.717 16.868,41.441 16.678,42.169 L10.67,65.133 C10.44,66.01 11.593,66.557 12.127,65.824 L39.443,28.366 C39.992,27.613 39.521,26.547 38.594,26.447 L28.402,25.345 C27.596,25.257 27.101,24.418 27.415,23.671 L35.334,4.796 C35.586,4.195 35.13,3.535 34.478,3.557 L11.31,4.368 C10.906,4.382 10.561,4.666 10.47,5.06" id="Fill-60" fill="#BD508F"></path>
        <path d="M8.915,26.96 L13.305,7.986 C13.412,7.526 13.125,7.066 12.665,6.96 C12.204,6.853 11.745,7.14 11.638,7.6 L7.249,26.575 C7.142,27.035 7.429,27.494 7.889,27.601 C8.349,27.707 8.809,27.421 8.915,26.96" id="Fill-61" fill="#FFFFFF"></path>
        <path d="M18.387,49.155 L19.658,44.296 C19.778,43.839 19.504,43.371 19.047,43.252 C18.59,43.132 18.123,43.406 18.003,43.863 L16.732,48.722 C16.612,49.179 16.886,49.647 17.343,49.766 C17.8,49.886 18.267,49.612 18.387,49.155" id="Fill-62" fill="#FFFFFF"></path>
    </g>
</svg>