<?xml version="1.0" encoding="UTF-8" standalone="no"?>
<svg width="64px" height="70px" viewBox="0 0 64 70" version="1.1" xmlns="http://www.w3.org/2000/svg" xmlns:xlink="http://www.w3.org/1999/xlink">
    <!-- Generator: Sketch 39.1 (31720) - http://www.bohemiancoding.com/sketch -->
    <title>Slice 1</title>
    <desc>Created with Sketch.</desc>
    <defs></defs>
    <g id="Page-1" stroke="none" stroke-width="1" fill="none" fill-rule="evenodd">
        <path d="M36.257,69.094 C34.809,69.094 33.392,68.544 32.321,67.55 L32.22,67.454 C31.434,68.223 30.432,68.77 29.301,68.988 C29.061,69.034 28.815,69.065 28.564,69.08 C28.442,69.088 28.321,69.091 28.199,69.091 C26.742,69.092 25.312,68.532 24.24,67.526 L24.163,67.452 C23.375,68.223 22.372,68.771 21.239,68.989 C21.008,69.033 20.772,69.063 20.531,69.079 C20.407,69.087 20.283,69.091 20.16,69.091 C18.684,69.091 17.247,68.528 16.171,67.518 C15.008,66.427 14.341,64.887 14.341,63.291 L14.341,57.432 C6.594,56.514 0.567,49.902 0.567,41.906 L0.566,33.701 C0.566,18.535 11.359,5.454 26.229,2.597 C28.196,2.22 30.219,2.028 32.239,2.028 C40.698,2.028 48.652,5.323 54.635,11.306 C60.617,17.288 63.912,25.242 63.912,33.701 L63.913,41.907 C63.913,49.393 58.583,55.85 51.241,57.26 C50.873,57.331 50.501,57.388 50.127,57.432 L50.127,63.185 C50.127,66.023 48.145,68.464 45.415,68.989 C45.185,69.033 44.952,69.063 44.712,69.079 C44.588,69.087 44.464,69.091 44.34,69.091 C42.864,69.091 41.428,68.529 40.351,67.519 L40.28,67.451 C39.492,68.223 38.486,68.772 37.351,68.99 C37.132,69.032 36.909,69.062 36.681,69.078 C36.54,69.089 36.398,69.094 36.257,69.094" id="Fill-283" fill="#A0A19D"></path>
        <path d="M45.061,67.15 C44.832,67.194 44.598,67.224 44.359,67.24 C42.754,67.343 41.165,66.774 39.998,65.68 L39.927,65.612 C39.138,66.384 38.133,66.933 36.998,67.151 C36.779,67.194 36.555,67.223 36.328,67.239 C34.735,67.358 33.143,66.802 31.968,65.711 L31.867,65.615 C31.081,66.384 30.079,66.932 28.948,67.149 C28.708,67.195 28.462,67.226 28.211,67.241 C26.63,67.343 25.048,66.777 23.886,65.688 L23.81,65.614 C23.022,66.384 22.019,66.932 20.886,67.15 C20.655,67.194 20.419,67.224 20.178,67.24 C18.574,67.343 16.984,66.774 15.817,65.679 C14.654,64.589 13.987,63.048 13.988,61.452 L13.988,55.593 C6.241,54.676 0.214,48.063 0.213,40.068 L0.213,31.862 C0.213,16.696 11.006,3.615 25.875,0.759 C27.843,0.381 29.866,0.189 31.886,0.189 C40.345,0.189 48.299,3.484 54.281,9.467 C60.264,15.45 63.559,23.403 63.559,31.862 L63.559,40.068 C63.559,47.554 58.23,54.011 50.888,55.421 C50.519,55.492 50.148,55.55 49.774,55.594 L49.774,61.346 C49.774,64.185 47.792,66.625 45.061,67.15" id="Fill-284" fill="#FFFFFF"></path>
        <path d="M61.168,31.862 L61.168,40.068 C61.168,47.38 55.237,53.311 47.925,53.311 L47.383,53.311 L47.383,61.346 C47.383,63.153 46.012,64.737 44.205,64.854 C42.217,64.981 40.559,63.419 40.559,61.452 L40.559,55.617 C40.559,55.277 40.283,55.012 39.943,55.012 C39.603,55.012 39.326,55.277 39.326,55.617 L39.326,61.325 C39.326,63.142 37.966,64.726 36.159,64.854 C34.171,65.002 32.503,63.429 32.503,61.452 L32.503,55.617 C32.503,55.277 32.226,55.012 31.886,55.012 L31.876,55.012 C31.535,55.012 31.259,55.277 31.259,55.617 L31.259,61.346 C31.259,63.164 29.888,64.747 28.071,64.854 C26.094,64.981 24.446,63.419 24.446,61.452 L24.446,55.628 C24.446,55.288 24.17,55.012 23.83,55.012 C23.479,55.012 23.203,55.288 23.203,55.628 L23.203,61.346 C23.203,63.153 21.842,64.737 20.025,64.854 C18.037,64.981 16.379,63.419 16.379,61.453 L16.379,53.311 L15.837,53.311 C8.535,53.311 2.604,47.38 2.604,40.068 L2.604,31.862 C2.604,15.686 15.709,2.58 31.886,2.58 C39.964,2.58 47.287,5.854 52.591,11.158 C57.884,16.451 61.168,23.774 61.168,31.862" id="Fill-285" fill="#6BBE9C"></path>
        <path d="M6.878,29.038 C7.959,19.381 14.54,11.349 23.403,8.167 C23.885,7.994 24.136,7.463 23.963,6.981 C23.789,6.499 23.258,6.248 22.776,6.422 C13.257,9.841 6.2,18.452 5.034,28.832 C4.977,29.341 5.344,29.799 5.853,29.857 C6.362,29.914 6.821,29.547 6.878,29.038" id="Fill-286" fill="#FFFFFF"></path>
        <path d="M6.72,40.068 L6.72,35.278 C6.72,34.765 6.305,34.35 5.793,34.35 C5.281,34.35 4.865,34.765 4.865,35.278 L4.865,40.068 C4.865,40.58 5.281,40.995 5.793,40.995 C6.305,40.995 6.72,40.58 6.72,40.068" id="Fill-287" fill="#FFFFFF"></path>
        <path d="M51.964,31.025 C51.964,36.045 47.895,40.115 42.874,40.115 C37.854,40.115 33.784,36.045 33.784,31.025 C33.784,26.004 37.854,21.935 42.874,21.935 C47.895,21.935 51.964,26.004 51.964,31.025" id="Fill-288" fill="#302F2D"></path>
        <path d="M27.303,31.025 C27.303,35.305 23.833,38.775 19.553,38.775 C15.272,38.775 11.802,35.305 11.802,31.025 C11.802,26.745 15.272,23.275 19.552,23.275 C23.833,23.275 27.302,26.745 27.303,31.025" id="Fill-289" fill="#302F2D"></path>
        <path d="M29.812,47.742 C29.684,47.742 29.548,47.735 29.403,47.72 C28.519,47.634 27.497,46.825 27.372,45.274 L27.372,44.758 C27.488,43.274 30.557,38.987 31.883,37.502 C33.064,38.799 36.279,43.274 36.395,44.758 L36.395,45.274 C36.271,46.825 35.248,47.634 34.365,47.72 C34.219,47.735 34.083,47.742 33.956,47.742 C32.935,47.742 32.444,47.301 31.884,46.631 C31.323,47.301 30.834,47.742 29.812,47.742" id="Fill-290" fill="#302F2D"></path>
    </g>
</svg>