<?xml version="1.0" encoding="UTF-8" standalone="no"?>
<svg width="39px" height="77px" viewBox="0 0 39 77" version="1.1" xmlns="http://www.w3.org/2000/svg" xmlns:xlink="http://www.w3.org/1999/xlink">
    <!-- Generator: Sketch 39.1 (31720) - http://www.bohemiancoding.com/sketch -->
    <title>Slice 1</title>
    <desc>Created with Sketch.</desc>
    <defs></defs>
    <g id="Page-1" stroke="none" stroke-width="1" fill="none" fill-rule="evenodd">
        <path d="M19.546,76.212 C19.162,76.212 18.781,76.178 18.411,76.113 C15.275,75.56 12.999,72.848 12.998,69.666 L12.998,55.468 L7.284,55.468 C6.894,55.468 6.5,55.433 6.116,55.365 C2.914,54.801 0.591,52.029 0.591,48.774 L0.591,19.224 C0.591,16.31 1.323,13.424 2.705,10.879 C5.118,6.435 9.327,3.251 14.252,2.144 C15.51,1.861 16.803,1.718 18.096,1.718 L20.991,1.718 L20.997,1.718 C22.023,1.718 23.05,1.808 24.05,1.985 C28.685,2.801 32.861,5.517 35.507,9.436 C37.463,12.333 38.497,15.717 38.497,19.225 L38.497,48.775 C38.497,51.878 36.3,54.625 33.273,55.305 C32.794,55.413 32.3,55.467 31.806,55.468 L26.09,55.468 L26.091,69.666 C26.091,72.702 23.941,75.388 20.98,76.053 C20.512,76.159 20.029,76.212 19.546,76.212" id="Fill-550" fill="#A0A19D"></path>
        <path d="M20.761,75.08 C20.293,75.186 19.81,75.239 19.327,75.239 C18.944,75.238 18.563,75.205 18.192,75.14 C15.056,74.587 12.78,71.875 12.779,68.693 L12.779,54.495 L7.065,54.495 C6.675,54.494 6.282,54.46 5.898,54.392 C2.695,53.828 0.372,51.056 0.373,47.801 L0.372,18.251 C0.372,15.336 1.104,12.451 2.487,9.906 C4.899,5.462 9.109,2.278 14.034,1.171 C15.291,0.888 16.584,0.745 17.877,0.745 L20.772,0.745 C21.8,0.745 22.829,0.835 23.831,1.012 C28.466,1.828 32.642,4.544 35.288,8.462 C37.244,11.359 38.279,14.744 38.279,18.251 L38.278,47.802 C38.278,50.905 36.082,53.651 33.054,54.332 C32.575,54.44 32.082,54.494 31.587,54.494 L25.871,54.495 L25.872,68.693 C25.872,71.729 23.723,74.415 20.761,75.08" id="Fill-551" fill="#FFFFFF"></path>
        <path d="M19.325,72.847 L19.325,72.847 C17.04,72.847 15.17,70.978 15.17,68.692 L15.17,28.524 C15.17,26.239 17.04,22.775 19.325,22.775 C21.611,22.775 23.481,26.239 23.481,28.524 L23.481,68.692 C23.481,70.978 21.611,72.847 19.325,72.847" id="Fill-552" fill="#F9CE2B"></path>
        <path d="M18.359,66.205 L18.359,55.298 C18.359,54.857 18.002,54.501 17.562,54.501 C17.121,54.501 16.764,54.857 16.764,55.298 L16.764,66.205 C16.764,66.645 17.121,67.002 17.562,67.002 C18.002,67.002 18.359,66.645 18.359,66.205" id="Fill-553" fill="#FFFFFF"></path>
        <path d="M35.887,18.252 C35.887,9.905 29.121,3.139 20.774,3.139 L17.877,3.139 C9.53,3.139 2.764,9.905 2.764,18.252 L2.764,47.802 C2.764,50.177 4.689,52.103 7.065,52.103 L31.586,52.103 C33.961,52.103 35.887,50.177 35.887,47.802 L35.887,18.252" id="Fill-554" fill="#384489"></path>
        <path d="M35.884,18.249 L35.884,25.838 L33.556,25.838 C30.88,25.838 28.71,28.007 28.71,30.683 L28.71,42.71 C28.71,43.728 28.031,44.669 27.032,44.869 C25.693,45.138 24.502,44.103 24.502,42.808 L24.502,29.879 C24.502,31.529 22.988,32.836 21.278,32.483 C20.034,32.226 19.177,31.069 19.177,29.799 L19.177,27.552 C19.177,26.605 18.409,25.838 17.462,25.838 L12.745,25.837 C10.491,25.837 8.663,27.665 8.663,29.919 L8.663,36.378 C8.663,37.785 7.712,39.066 6.333,39.348 C4.438,39.737 2.765,38.291 2.765,36.463 L2.765,18.249 C2.765,9.903 9.531,3.136 17.878,3.136 L20.771,3.136 C29.125,3.136 35.884,9.904 35.884,18.249" id="Fill-555" fill="#E996B7"></path>
        <path d="M5.953,22.775 L5.953,21.274 C5.953,20.834 5.596,20.477 5.156,20.477 C4.716,20.477 4.359,20.834 4.359,21.274 L4.359,22.775 C4.359,23.215 4.716,23.572 5.156,23.572 C5.596,23.572 5.953,23.215 5.953,22.775" id="Fill-556" fill="#FFFFFF"></path>
        <path d="M5.953,18.249 C5.951,12.176 10.523,7.143 16.401,6.416 C16.838,6.362 17.148,5.963 17.094,5.527 C17.04,5.09 16.642,4.779 16.205,4.834 C9.533,5.662 4.361,11.359 4.359,18.249 C4.359,18.69 4.716,19.046 5.156,19.046 C5.596,19.046 5.953,18.69 5.953,18.249" id="Fill-557" fill="#FFFFFF"></path>
        <path d="M23.604,38.045 C23.604,39.019 22.814,39.809 21.84,39.809 C20.866,39.809 20.076,39.019 20.076,38.045 C20.076,37.071 21.84,34.861 21.84,34.861 C21.84,34.861 23.604,37.071 23.604,38.045" id="Fill-558" fill="#E996B7"></path>
        <path d="M12.86,16.649 L12.86,16.649 C12.603,16.259 12.711,15.735 13.101,15.479 L15.971,13.406 C16.36,13.149 16.884,13.257 17.141,13.647 C17.398,14.037 17.29,14.561 16.9,14.817 L14.03,16.89 C13.64,17.147 13.116,17.039 12.86,16.649" id="Fill-559" fill="#F9CE2B"></path>
        <path d="M27.186,20.975 L27.186,20.975 C26.822,21.267 26.29,21.209 25.998,20.845 L23.666,18.181 C23.375,17.817 23.433,17.285 23.797,16.993 C24.161,16.701 24.693,16.76 24.985,17.124 L27.317,19.788 C27.609,20.152 27.55,20.683 27.186,20.975" id="Fill-560" fill="#3973AC"></path>
        <path d="M27.624,11.276 L27.624,11.276 C27.26,11.568 26.729,11.509 26.437,11.145 L24.105,8.481 C23.813,8.117 23.872,7.585 24.236,7.293 C24.6,7.002 25.132,7.06 25.423,7.424 L27.755,10.088 C28.047,10.452 27.988,10.984 27.624,11.276" id="Fill-561" fill="#DC326D"></path>
    </g>
</svg>