<?xml version="1.0" encoding="UTF-8" standalone="no"?>
<svg width="78px" height="65px" viewBox="0 0 78 65" version="1.1" xmlns="http://www.w3.org/2000/svg" xmlns:xlink="http://www.w3.org/1999/xlink">
    <!-- Generator: Sketch 39.1 (31720) - http://www.bohemiancoding.com/sketch -->
    <title>Slice 1</title>
    <desc>Created with Sketch.</desc>
    <defs></defs>
    <g id="Page-1" stroke="none" stroke-width="1" fill="none" fill-rule="evenodd">
        <path d="M36.569,64.373 C35.64,64.373 34.715,64.327 33.798,64.234 L33.501,64.201 C31.309,63.955 29.623,62.255 29.394,60.065 C29.26,58.784 29.648,57.563 30.41,56.63 C12.136,52.725 -0.9,39.889 0.49,26.175 C1.695,14.301 13.369,4.898 29.54,2.777 C31.766,2.485 34.035,2.339 36.324,2.339 C38.158,2.339 40.006,2.432 41.858,2.62 C63.132,4.777 79.191,18.852 77.656,33.997 C76.753,42.918 70.188,50.431 59.65,54.608 C58.002,55.261 56.414,56.252 54.93,57.556 C54.232,58.168 53.503,58.745 52.758,59.274 C49.125,61.855 44.795,63.535 40.237,64.133 C39.016,64.293 37.789,64.373 36.569,64.373" id="Fill-28" fill="#A0A19D"></path>
        <path d="M40.007,62.378 C37.855,62.66 35.689,62.694 33.568,62.479 L33.271,62.447 C31.079,62.201 29.393,60.5 29.164,58.31 C29.03,57.03 29.417,55.808 30.18,54.875 C11.906,50.97 -1.13,38.134 0.26,24.421 C1.464,12.546 13.138,3.144 29.31,1.022 C33.32,0.496 37.465,0.444 41.627,0.865 C62.902,3.022 78.961,17.098 77.426,32.243 C76.522,41.164 69.958,48.676 59.419,52.853 C57.771,53.506 56.184,54.498 54.7,55.802 C54.002,56.413 53.272,56.99 52.528,57.519 C48.894,60.1 44.565,61.78 40.007,62.378" id="Fill-29" fill="#FFFFFF"></path>
        <path d="M33.532,60.07 C32.472,59.951 31.653,59.125 31.542,58.062 C31.43,56.993 32.064,56.009 33.083,55.671 C34.581,55.174 36.006,54.444 37.314,53.51 C36.977,53.482 36.638,53.451 36.3,53.417 C16.338,51.394 1.237,38.494 2.639,24.662 C4.041,10.829 21.423,1.221 41.386,3.245 C61.349,5.268 76.449,18.168 75.047,32.001 C74.236,40.003 68.219,46.793 58.538,50.63 C56.636,51.384 54.814,52.519 53.121,54.005 C52.485,54.563 51.82,55.089 51.142,55.57 C46.22,59.066 39.902,60.718 33.809,60.1 L33.532,60.07" id="Fill-30" fill="#E9CD27"></path>
        <path d="M73.303,31.824 C72.536,39.386 66.553,45.568 57.892,49 C55.71,49.865 53.729,51.139 51.965,52.688 C51.379,53.202 50.766,53.687 50.128,54.141 C45.423,57.483 39.459,58.974 33.728,58.328 C33.188,58.268 33.119,57.506 33.635,57.335 C36.719,56.31 39.493,54.394 41.631,51.932 C39.939,51.936 38.221,51.85 36.477,51.674 C17.442,49.744 3.076,37.734 4.383,24.838 C5.69,11.942 22.174,3.059 41.209,4.989 C60.244,6.918 74.61,18.928 73.303,31.824" id="Fill-31" fill="#35AC56"></path>
        <path d="M11.366,17.917 C14.656,13.901 20.313,10.838 27.2,9.428 C27.62,9.342 27.89,8.932 27.804,8.513 C27.718,8.094 27.308,7.823 26.889,7.909 C19.741,9.379 13.771,12.55 10.167,16.934 C9.895,17.265 9.944,17.753 10.275,18.025 C10.606,18.296 11.094,18.248 11.366,17.917" id="Fill-32" fill="#FFFFFF"></path>
        <path d="M8.171,27.432 C8.148,27.12 8.136,26.807 8.136,26.494 C8.136,26.072 8.157,25.649 8.2,25.226 C8.252,24.716 8.334,24.216 8.445,23.723 C8.539,23.305 8.277,22.89 7.86,22.796 C7.442,22.702 7.027,22.964 6.933,23.381 C6.808,23.935 6.716,24.498 6.658,25.069 C6.609,25.545 6.586,26.02 6.586,26.494 C6.586,26.846 6.599,27.197 6.625,27.547 C6.656,27.974 7.028,28.294 7.455,28.262 C7.882,28.231 8.203,27.859 8.171,27.432" id="Fill-33" fill="#FFFFFF"></path>
        <path d="M29.581,21.413 C29.577,21.786 29.416,22.042 29.1,22.181 L28.971,22.245 L28.862,22.329 C28.734,22.414 28.603,22.577 28.472,22.819 L28.428,22.904 L27.618,24.398 C27.02,25.494 26.278,26.646 25.393,27.853 C25.233,28.052 25.047,28.286 24.838,28.556 C24.627,28.826 24.385,29.124 24.11,29.45 L24.073,32.928 C24.141,33.329 24.31,33.602 24.58,33.748 L24.644,33.77 L24.708,33.813 C25.05,33.989 25.219,34.256 25.216,34.613 C25.209,35.2 24.891,35.49 24.261,35.483 L18.251,35.422 C17.95,35.418 17.723,35.323 17.567,35.136 C17.411,34.948 17.335,34.739 17.338,34.511 C17.341,34.195 17.508,33.94 17.839,33.743 L17.947,33.68 C18.263,33.554 18.445,33.284 18.492,32.87 L18.516,32.677 L18.55,29.392 C18.422,29.263 18.232,29.032 17.977,28.7 C17.723,28.368 17.398,27.935 17.003,27.401 C16.297,26.435 15.686,25.413 15.167,24.334 L14.894,23.773 L14.6,23.105 L14.326,22.673 C14.241,22.529 14.071,22.335 13.817,22.088 L13.731,22.022 C13.404,21.862 13.242,21.596 13.246,21.223 C13.249,20.966 13.336,20.756 13.509,20.593 C13.683,20.431 13.891,20.349 14.135,20.352 L20.531,20.419 C21.147,20.425 21.451,20.722 21.445,21.307 C21.442,21.666 21.267,21.929 20.922,22.097 L20.836,22.161 L20.685,22.245 C20.453,22.371 20.338,22.535 20.336,22.735 L20.356,22.864 C20.438,23.222 20.542,23.517 20.669,23.747 C21.006,24.394 21.342,25.042 21.68,25.689 C22.017,26.337 22.445,26.972 22.97,27.592 C23.346,27.139 23.658,26.751 23.904,26.431 C24.151,26.112 24.325,25.852 24.427,25.653 L25.304,24.01 C25.64,23.341 25.801,22.934 25.788,22.791 C25.776,22.562 25.613,22.368 25.301,22.207 L25.194,22.141 C24.852,21.994 24.683,21.728 24.687,21.342 C24.693,20.755 25.003,20.465 25.618,20.471 L28.646,20.502 C29.074,20.507 29.359,20.688 29.498,21.048 C29.554,21.148 29.582,21.27 29.581,21.413" id="Fill-34" fill="#1A1A19"></path>
        <path d="M41.433,35.661 L30.034,35.543 C29.82,35.541 29.656,35.507 29.542,35.441 C29.429,35.376 29.341,35.297 29.278,35.203 C29.214,35.108 29.175,35.012 29.162,34.911 C29.149,34.811 29.143,34.725 29.144,34.654 C29.148,34.282 29.314,34.018 29.645,33.864 L29.774,33.802 C30.061,33.647 30.236,33.378 30.297,32.992 L30.4,23.075 C30.331,22.674 30.162,22.4 29.893,22.254 L29.828,22.232 L29.765,22.188 C29.438,22.027 29.277,21.762 29.28,21.389 C29.286,20.803 29.589,20.512 30.19,20.518 L40.601,20.626 C41.731,20.638 42.416,20.765 42.657,21.012 C42.913,21.258 43.033,21.939 43.023,23.056 C43.013,23.942 42.602,24.382 41.785,24.373 C41.443,24.37 40.924,23.992 40.23,23.241 C39.862,22.865 39.413,22.652 38.884,22.604 L38.583,22.58 L37.961,22.552 L37.189,22.544 L37.081,22.564 L36.845,22.626 C36.385,22.75 36.154,23.07 36.148,23.586 L36.117,26.547 L36.997,26.556 L37.555,26.583 L38.65,26.595 C39.093,26.598 39.409,26.445 39.599,26.132 L39.664,26.025 L39.751,25.919 L39.904,25.727 C40.091,25.572 40.343,25.496 40.657,25.499 C41.158,25.504 41.463,25.779 41.572,26.324 L41.54,27.397 L41.528,28.621 C41.525,28.892 41.515,29.036 41.501,29.05 L41.304,29.434 C41.187,29.634 40.907,29.73 40.464,29.726 C40.177,29.723 39.913,29.598 39.673,29.352 L39.461,29.137 C39.192,28.876 38.899,28.709 38.585,28.634 C38.557,28.619 38.456,28.61 38.285,28.609 C38.113,28.607 37.863,28.597 37.534,28.58 L36.654,28.549 L36.032,28.543 L35.996,32.019 C36.048,32.536 36.201,32.91 36.456,33.14 C36.755,33.401 37.254,33.536 37.955,33.543 C38.713,33.551 39.244,33.506 39.545,33.409 C40.047,33.285 40.494,33.011 40.885,32.586 L41.08,32.373 L41.276,32.139 C41.508,31.841 41.795,31.693 42.139,31.697 C42.654,31.702 43.032,31.828 43.273,32.073 C43.414,32.219 43.484,32.455 43.481,32.784 C43.479,32.942 43.451,33.195 43.398,33.546 C43.343,33.895 43.264,34.342 43.158,34.884 C43.052,35.413 42.477,35.672 41.433,35.661" id="Fill-35" fill="#1A1A19"></path>
        <path d="M55.735,35.035 C54.411,35.709 52.927,36.037 51.281,36.02 C50.28,36.01 49.215,35.87 48.087,35.6 C47.646,35.481 47.118,35.283 46.506,35.005 C45.081,34.346 44.374,33.502 44.385,32.472 C44.391,31.971 44.527,31.575 44.794,31.284 C45.062,30.994 45.418,30.85 45.862,30.855 C46.305,30.86 46.697,31.035 47.036,31.383 C47.136,31.483 47.27,31.653 47.44,31.891 C47.609,32.129 47.827,32.435 48.094,32.81 C48.164,32.94 48.264,33.056 48.392,33.157 C48.902,33.677 49.678,33.942 50.723,33.953 C51.224,33.958 51.668,33.898 52.056,33.774 L52.316,33.648 C53.034,33.284 53.397,32.872 53.402,32.414 C53.494,31.614 53.014,31.108 51.957,30.896 L49.707,30.444 C49.592,30.429 49.489,30.413 49.397,30.398 C49.304,30.383 49.207,30.36 49.107,30.331 C48.965,30.272 48.822,30.221 48.68,30.176 C48.536,30.132 48.395,30.08 48.252,30.021 C47.754,29.83 47.228,29.546 46.673,29.168 C45.423,28.296 44.805,27.123 44.82,25.649 C44.836,24.104 45.55,22.823 46.963,21.807 C48.232,20.876 49.839,20.421 51.785,20.44 C52.071,20.443 52.308,20.449 52.493,20.458 C52.68,20.468 52.809,20.48 52.88,20.495 C53.052,20.511 53.309,20.553 53.652,20.621 C53.994,20.688 54.423,20.79 54.937,20.924 C55.35,21.028 55.729,21.139 56.07,21.258 C56.413,21.376 56.727,21.493 57.011,21.611 C57.154,21.683 57.275,21.75 57.374,21.807 C57.474,21.866 57.552,21.946 57.609,22.047 C57.664,22.147 57.706,22.269 57.734,22.413 C57.761,22.556 57.787,22.743 57.814,22.972 C57.84,23.201 57.86,23.384 57.872,23.519 C57.885,23.656 57.892,23.753 57.891,23.809 L57.888,24.089 C57.878,25.09 57.522,25.587 56.821,25.58 C56.463,25.576 56.173,25.484 55.953,25.303 C55.734,25.122 55.52,24.722 55.312,24.105 C55.241,23.876 54.975,23.478 54.508,22.916 C54.182,22.526 53.556,22.326 52.625,22.317 C51.896,22.309 51.336,22.443 50.946,22.718 C50.557,22.993 50.36,23.36 50.355,23.817 C50.348,24.533 50.822,25.01 51.779,25.249 L52.207,25.36 L52.529,25.429 L52.656,25.472 L55.823,26.429 L56.006,26.473 L56.124,26.517 C57.109,26.77 57.814,27.176 58.237,27.73 C58.66,28.286 58.867,29.079 58.857,30.109 C58.852,30.596 58.774,31.103 58.626,31.631 C58.224,33.1 57.261,34.235 55.735,35.035" id="Fill-36" fill="#1A1A19"></path>
        <path d="M61.397,35.598 C60.886,35.243 60.618,34.785 60.596,34.227 C60.573,33.497 60.909,32.914 61.601,32.477 C62.207,32.068 62.823,31.882 63.452,31.917 C64.355,31.97 65.067,32.27 65.59,32.819 C65.93,33.195 66.097,33.634 66.092,34.134 C66.085,34.777 65.787,35.29 65.196,35.67 C64.663,35.993 64.068,36.152 63.409,36.145 C62.579,36.137 61.908,35.954 61.397,35.598 L61.397,35.598 Z M64.41,30.767 C64.336,30.895 64.092,30.993 63.676,31.06 L63.355,31.1 L63.011,31.097 C62.839,31.081 62.699,31.057 62.593,31.028 C62.486,30.998 62.397,30.951 62.325,30.886 C62.255,30.82 62.199,30.73 62.157,30.615 C62.115,30.501 62.074,30.349 62.033,30.163 L61.971,29.927 L60.313,22.053 C60.32,21.409 60.446,20.967 60.692,20.725 C60.822,20.569 61.131,20.423 61.619,20.284 C62.021,20.16 62.63,20.101 63.446,20.11 C64.576,20.122 65.383,20.284 65.866,20.597 C66.35,20.909 66.589,21.28 66.584,21.71 C66.581,21.996 66.513,22.403 66.38,22.931 L64.41,30.767 L64.41,30.767 Z" id="Fill-37" fill="#1A1A19"></path>
        <path d="M28.022,22.988 C28.018,23.361 27.857,23.616 27.541,23.757 L27.411,23.819 L27.303,23.904 C27.174,23.989 27.043,24.152 26.912,24.393 L26.868,24.479 L26.059,25.973 C25.46,27.069 24.718,28.221 23.833,29.429 C23.673,29.627 23.488,29.861 23.279,30.131 C23.068,30.401 22.825,30.698 22.55,31.025 L22.514,34.502 C22.581,34.903 22.75,35.178 23.021,35.323 L23.085,35.345 L23.149,35.389 C23.49,35.564 23.66,35.83 23.656,36.188 C23.651,36.775 23.331,37.065 22.701,37.058 L16.692,36.996 C16.391,36.993 16.163,36.898 16.007,36.711 C15.852,36.522 15.777,36.314 15.779,36.086 C15.781,35.77 15.948,35.514 16.279,35.317 L16.388,35.254 C16.703,35.129 16.886,34.859 16.933,34.444 L16.957,34.251 L16.99,30.968 C16.863,30.837 16.672,30.606 16.417,30.274 C16.163,29.943 15.839,29.511 15.444,28.976 C14.737,28.011 14.126,26.988 13.608,25.909 L13.334,25.348 L13.04,24.68 L12.767,24.247 C12.682,24.104 12.512,23.909 12.257,23.663 L12.172,23.597 C11.844,23.437 11.683,23.171 11.687,22.798 C11.69,22.541 11.777,22.331 11.95,22.168 C12.123,22.005 12.331,21.925 12.575,21.928 L18.972,21.993 C19.587,22 19.892,22.297 19.886,22.883 C19.882,23.241 19.707,23.504 19.363,23.672 L19.277,23.735 L19.125,23.82 C18.895,23.946 18.779,24.11 18.777,24.309 L18.796,24.438 C18.879,24.797 18.984,25.092 19.11,25.322 C19.446,25.97 19.783,26.617 20.12,27.264 C20.457,27.912 20.886,28.546 21.41,29.167 C21.787,28.713 22.099,28.326 22.345,28.007 C22.591,27.687 22.766,27.428 22.867,27.228 L23.744,25.585 C24.08,24.915 24.241,24.509 24.229,24.366 C24.216,24.137 24.054,23.942 23.741,23.781 L23.635,23.716 C23.292,23.569 23.123,23.303 23.127,22.916 C23.133,22.33 23.444,22.04 24.059,22.046 L27.086,22.077 C27.515,22.082 27.799,22.264 27.94,22.623 C27.995,22.723 28.023,22.846 28.022,22.988" id="Fill-38" fill="#FFFFFF"></path>
        <path d="M39.873,37.235 L28.476,37.118 C28.261,37.116 28.097,37.082 27.983,37.016 C27.869,36.95 27.781,36.872 27.718,36.777 C27.654,36.683 27.615,36.587 27.603,36.486 C27.589,36.386 27.583,36.301 27.584,36.228 C27.588,35.856 27.755,35.594 28.085,35.439 L28.215,35.376 C28.503,35.222 28.677,34.952 28.738,34.566 L28.841,24.649 C28.774,24.249 28.604,23.974 28.334,23.829 L28.27,23.806 L28.206,23.764 C27.878,23.602 27.717,23.336 27.721,22.964 C27.727,22.377 28.029,22.087 28.631,22.093 L39.041,22.2 C40.171,22.212 40.857,22.341 41.098,22.587 C41.354,22.833 41.475,23.514 41.463,24.63 C41.453,25.516 41.042,25.956 40.226,25.947 C39.883,25.944 39.364,25.566 38.671,24.815 C38.303,24.439 37.854,24.227 37.324,24.18 L37.024,24.154 L36.403,24.127 L35.63,24.119 L35.522,24.139 L35.285,24.201 C34.825,24.325 34.594,24.644 34.589,25.16 L34.558,28.122 L35.438,28.131 L35.995,28.158 L37.09,28.169 C37.533,28.174 37.851,28.02 38.039,27.707 L38.105,27.6 L38.192,27.494 L38.344,27.303 C38.531,27.147 38.783,27.07 39.098,27.074 C39.599,27.079 39.904,27.354 40.013,27.899 L39.981,28.972 L39.968,30.196 C39.965,30.468 39.956,30.611 39.942,30.625 L39.744,31.009 C39.627,31.209 39.348,31.306 38.904,31.301 C38.617,31.298 38.354,31.174 38.113,30.928 L37.902,30.711 C37.632,30.45 37.34,30.283 37.026,30.209 C36.998,30.194 36.898,30.185 36.727,30.183 C36.555,30.182 36.304,30.172 35.975,30.154 L35.095,30.124 L34.473,30.118 L34.437,33.595 C34.488,34.11 34.642,34.484 34.898,34.716 C35.195,34.976 35.695,35.11 36.396,35.117 C37.154,35.125 37.685,35.081 37.986,34.983 C38.487,34.859 38.935,34.586 39.325,34.16 L39.521,33.947 L39.717,33.713 C39.948,33.416 40.236,33.268 40.579,33.271 C41.095,33.277 41.473,33.402 41.714,33.647 C41.855,33.793 41.925,34.029 41.921,34.358 C41.919,34.516 41.892,34.769 41.838,35.12 C41.783,35.47 41.705,35.917 41.599,36.459 C41.492,36.987 40.917,37.246 39.873,37.235" id="Fill-39" fill="#FFFFFF"></path>
        <path d="M54.176,36.61 C52.852,37.284 51.367,37.612 49.722,37.596 C48.721,37.585 47.656,37.445 46.529,37.176 C46.086,37.056 45.559,36.857 44.946,36.579 C43.522,35.921 42.816,35.076 42.825,34.046 C42.831,33.546 42.967,33.15 43.235,32.859 C43.502,32.569 43.859,32.426 44.302,32.431 C44.745,32.434 45.138,32.61 45.477,32.958 C45.576,33.058 45.71,33.228 45.88,33.466 C46.049,33.703 46.268,34.01 46.535,34.385 C46.606,34.514 46.705,34.63 46.833,34.731 C47.343,35.252 48.119,35.517 49.164,35.528 C49.665,35.533 50.109,35.473 50.497,35.348 L50.756,35.222 C51.475,34.858 51.837,34.447 51.842,33.989 C51.936,33.188 51.454,32.683 50.398,32.472 L48.149,32.019 C48.034,32.004 47.931,31.988 47.838,31.972 C47.745,31.958 47.649,31.935 47.549,31.905 C47.406,31.847 47.264,31.795 47.121,31.751 C46.979,31.706 46.836,31.655 46.694,31.596 C46.195,31.405 45.668,31.12 45.114,30.743 C43.863,29.871 43.245,28.698 43.261,27.224 C43.277,25.679 43.991,24.398 45.404,23.383 C46.673,22.451 48.279,21.996 50.226,22.015 C50.512,22.018 50.748,22.024 50.934,22.033 C51.12,22.043 51.249,22.055 51.32,22.069 C51.492,22.086 51.749,22.128 52.092,22.195 C52.435,22.264 52.863,22.365 53.377,22.499 C53.791,22.603 54.169,22.715 54.511,22.833 C54.854,22.951 55.167,23.068 55.452,23.185 C55.595,23.259 55.715,23.324 55.816,23.383 C55.914,23.441 55.992,23.52 56.049,23.621 C56.105,23.722 56.147,23.844 56.174,23.987 C56.201,24.131 56.228,24.317 56.254,24.547 C56.28,24.775 56.3,24.958 56.314,25.094 C56.325,25.23 56.332,25.327 56.332,25.385 L56.329,25.663 C56.319,26.665 55.962,27.162 55.262,27.154 C54.904,27.151 54.614,27.059 54.395,26.878 C54.174,26.696 53.961,26.297 53.752,25.68 C53.683,25.45 53.415,25.054 52.949,24.491 C52.623,24.101 51.996,23.901 51.066,23.891 C50.336,23.884 49.777,24.018 49.387,24.293 C48.997,24.567 48.8,24.934 48.796,25.391 C48.788,26.107 49.263,26.585 50.22,26.824 L50.649,26.935 L50.969,27.004 L51.097,27.047 L54.265,28.003 L54.446,28.048 L54.565,28.093 C55.549,28.346 56.254,28.751 56.677,29.306 C57.101,29.861 57.308,30.653 57.297,31.683 C57.292,32.171 57.215,32.679 57.067,33.206 C56.664,34.676 55.701,35.81 54.176,36.61" id="Fill-40" fill="#FFFFFF"></path>
        <path d="M59.837,37.173 C59.326,36.817 59.059,36.36 59.036,35.802 C59.014,35.071 59.351,34.488 60.041,34.052 C60.648,33.643 61.264,33.457 61.893,33.492 C62.795,33.544 63.507,33.845 64.03,34.393 C64.37,34.769 64.538,35.208 64.532,35.708 C64.527,36.352 64.228,36.864 63.637,37.245 C63.104,37.568 62.508,37.727 61.85,37.721 C61.02,37.712 60.35,37.529 59.837,37.173 L59.837,37.173 Z M62.851,32.343 C62.777,32.471 62.532,32.568 62.117,32.636 L61.795,32.676 L61.451,32.672 C61.279,32.656 61.14,32.633 61.033,32.602 C60.926,32.573 60.838,32.525 60.766,32.461 C60.695,32.395 60.64,32.306 60.598,32.19 C60.556,32.075 60.515,31.925 60.474,31.738 L60.411,31.502 L58.753,23.628 C58.76,22.983 58.887,22.542 59.132,22.301 C59.263,22.144 59.572,21.997 60.06,21.859 C60.462,21.734 61.07,21.677 61.887,21.684 C63.017,21.696 63.824,21.859 64.307,22.171 C64.79,22.484 65.03,22.855 65.027,23.285 C65.024,23.571 64.954,23.977 64.82,24.506 L62.851,32.343 L62.851,32.343 Z" id="Fill-41" fill="#FFFFFF"></path>
    </g>
</svg>