<?xml version="1.0" encoding="UTF-8" standalone="no"?>
<svg width="66px" height="64px" viewBox="0 0 66 64" version="1.1" xmlns="http://www.w3.org/2000/svg" xmlns:xlink="http://www.w3.org/1999/xlink">
    <!-- Generator: Sketch 39.1 (31720) - http://www.bohemiancoding.com/sketch -->
    <title>Slice 1</title>
    <desc>Created with Sketch.</desc>
    <defs></defs>
    <g id="Page-1" stroke="none" stroke-width="1" fill="none" fill-rule="evenodd">
        <path d="M35.785,63.534 L35.782,63.534 L30.645,63.534 C22.628,63.532 15.092,60.412 9.427,54.745 C3.758,49.078 0.637,41.542 0.638,33.527 L0.639,32.246 C0.637,19.143 9.015,7.658 21.482,3.664 C24.434,2.719 27.516,2.239 30.643,2.239 L35.783,2.24 C43.786,2.239 51.318,5.365 56.991,11.038 C62.665,16.712 65.789,24.243 65.789,32.245 L65.789,33.528 C65.789,46.629 57.411,58.115 44.944,62.108 C41.99,63.055 38.909,63.534 35.785,63.534" id="Fill-478" fill="#A0A19D"></path>
        <path d="M44.518,60.779 C41.563,61.726 38.481,62.205 35.356,62.205 L30.219,62.205 C22.202,62.203 14.666,59.083 9.001,53.416 C3.332,47.749 0.211,40.213 0.213,32.197 L0.213,30.916 C0.212,17.814 8.589,6.329 21.057,2.335 C24.008,1.39 27.09,0.91 30.218,0.91 L35.357,0.911 C43.36,0.91 50.892,4.036 56.565,9.709 C62.239,15.383 65.364,22.914 65.363,30.916 L65.363,32.199 C65.363,45.3 56.986,56.786 44.518,60.779" id="Fill-479" fill="#FFFFFF"></path>
        <path d="M35.357,58.574 L30.219,58.574 C15.652,58.574 3.843,46.765 3.843,32.199 L3.843,30.917 C3.843,16.35 15.652,4.542 30.218,4.542 L35.357,4.542 C49.924,4.542 61.732,16.35 61.732,30.917 L61.732,32.199 C61.732,46.765 49.924,58.574 35.357,58.574" id="Fill-480" fill="#F9CE2B"></path>
        <path d="M7.951,27.309 C9.316,18.844 15.422,11.93 23.444,9.4 C23.947,9.242 24.226,8.705 24.068,8.202 C23.909,7.699 23.373,7.42 22.87,7.579 C14.163,10.327 7.551,17.812 6.066,27.005 C5.982,27.525 6.336,28.016 6.856,28.1 C7.377,28.184 7.867,27.83 7.951,27.309" id="Fill-481" fill="#FFFFFF"></path>
        <path d="M8.487,38.247 C8.282,37.512 8.113,36.762 7.983,35.999 C7.895,35.479 7.401,35.129 6.882,35.218 C6.362,35.306 6.012,35.8 6.101,36.32 C6.242,37.148 6.424,37.962 6.647,38.76 C6.788,39.268 7.315,39.565 7.823,39.423 C8.331,39.282 8.628,38.755 8.487,38.247" id="Fill-482" fill="#FFFFFF"></path>
        <path d="M18.2,34.015 C17.35,34.015 16.763,34.831 16.988,35.651 C18.49,41.122 24.981,45.24 32.779,45.24 C40.626,45.24 47.149,41.07 48.597,35.548 C48.802,34.768 48.169,34.015 47.362,34.015 L18.2,34.015" id="Fill-483" fill="#2D2E2B"></path>
        <path d="M32.789,37.351 C30.372,37.351 28.075,37.084 25.969,36.614 L25.969,48.328 C25.969,52.094 29.022,55.148 32.788,55.148 C36.554,55.148 39.607,52.094 39.607,48.328 L39.607,36.614 C37.501,37.084 35.206,37.351 32.789,37.351" id="Fill-484" fill="#DA2D31"></path>
        <polygon id="Fill-485" fill="#DF502E" points="25.969 35.207 39.608 35.207 39.608 34.684 25.969 34.684"></polygon>
        <path d="M39.607,36.614 L39.607,35.207 L25.969,35.207 L25.969,36.614 C28.075,37.084 30.372,37.351 32.789,37.351 C35.206,37.351 37.501,37.084 39.607,36.614" id="Fill-486" fill="#C8232A"></path>
        <path d="M32.789,36.158 C37.046,36.158 40.95,35.353 44.047,34.015 L21.529,34.015 C24.626,35.354 28.531,36.158 32.789,36.158" id="Fill-487" fill="#FFFFFF"></path>
        <path d="M17.601,27.157 C17.162,27.157 16.773,26.848 16.684,26.404 C16.583,25.897 16.911,25.404 17.418,25.304 L21.353,24.516 C19.957,23.632 18.204,22.518 17.449,22.026 C17.015,21.743 16.893,21.164 17.174,20.731 C17.456,20.297 18.038,20.177 18.467,20.457 C19.814,21.333 24.327,24.186 24.327,24.186 C24.651,24.39 24.818,24.771 24.747,25.146 C24.677,25.523 24.386,25.819 24.011,25.894 L17.784,27.138 L17.601,27.157" id="Fill-488" fill="#2D2E2B"></path>
        <path d="M47.974,27.157 L47.791,27.138 L41.566,25.894 C41.191,25.819 40.9,25.523 40.83,25.146 C40.759,24.771 40.926,24.39 41.25,24.186 C41.25,24.186 45.761,21.333 47.108,20.457 C47.54,20.177 48.119,20.297 48.401,20.731 C48.682,21.164 48.56,21.743 48.126,22.026 C47.371,22.518 45.618,23.632 44.222,24.516 L48.157,25.304 C48.663,25.404 48.992,25.897 48.891,26.404 C48.802,26.848 48.412,27.157 47.974,27.157" id="Fill-489" fill="#2D2E2B"></path>
    </g>
</svg>