<?xml version="1.0" encoding="UTF-8" standalone="no"?>
<svg width="54px" height="54px" viewBox="0 0 54 54" version="1.1" xmlns="http://www.w3.org/2000/svg" xmlns:xlink="http://www.w3.org/1999/xlink">
    <!-- Generator: Sketch 39.1 (31720) - http://www.bohemiancoding.com/sketch -->
    <title>Slice 1</title>
    <desc>Created with Sketch.</desc>
    <defs></defs>
    <g id="Page-1" stroke="none" stroke-width="1" fill="none" fill-rule="evenodd">
        <path d="M39.799,53.579 C37.531,53.579 35.398,52.696 33.796,51.093 L27.605,44.902 L21.421,51.087 C19.815,52.692 17.682,53.576 15.414,53.576 C13.145,53.576 11.012,52.692 9.407,51.087 L4.416,46.095 C1.1,42.78 1.097,37.389 4.41,34.077 L10.594,27.892 L4.41,21.707 C1.097,18.396 1.1,13.004 4.416,9.688 L9.407,4.697 C11.012,3.092 13.145,2.208 15.414,2.208 C17.682,2.208 19.815,3.092 21.421,4.697 L27.605,10.881 L33.796,4.691 C35.399,3.088 37.531,2.205 39.799,2.205 C42.071,2.205 44.207,3.09 45.814,4.697 L50.806,9.688 C52.411,11.293 53.295,13.427 53.295,15.695 C53.295,17.964 52.411,20.097 50.806,21.702 L44.616,27.892 L50.806,34.082 C52.411,35.687 53.295,37.82 53.295,40.089 C53.295,42.358 52.411,44.49 50.806,46.095 L45.814,51.087 C44.207,52.694 42.071,53.579 39.799,53.579" id="Fill-198" fill="#A0A19D"></path>
        <path d="M38.464,52.239 C36.196,52.239 34.063,51.356 32.461,49.753 L26.27,43.562 L20.086,49.747 C18.48,51.352 16.348,52.236 14.079,52.236 C11.81,52.236 9.677,51.352 8.072,49.747 L3.081,44.756 C-0.235,41.44 -0.237,36.049 3.075,32.737 L9.259,26.552 L3.075,20.367 C-0.237,17.056 -0.235,11.664 3.081,8.349 L8.072,3.357 C9.677,1.752 11.81,0.868 14.079,0.868 C16.348,0.868 18.48,1.752 20.086,3.357 L26.27,9.541 L32.461,3.351 C34.064,1.748 36.196,0.865 38.464,0.865 C40.736,0.865 42.872,1.75 44.479,3.357 L49.471,8.349 C51.076,9.953 51.96,12.087 51.96,14.355 C51.96,16.624 51.076,18.757 49.471,20.362 L43.281,26.552 L49.471,32.742 C51.076,34.347 51.96,36.48 51.96,38.749 C51.96,41.018 51.076,43.15 49.471,44.756 L44.479,49.747 C42.872,51.354 40.736,52.239 38.464,52.239" id="Fill-199" fill="#FFFFFF"></path>
        <path d="M47.583,42.868 L42.591,47.859 C40.315,50.136 36.624,50.141 34.348,47.865 L26.27,39.787 L18.198,47.859 C15.922,50.136 12.236,50.136 9.96,47.859 L4.968,42.868 C2.692,40.592 2.686,36.901 4.963,34.624 L13.035,26.552 L4.963,18.48 C2.686,16.204 2.692,12.513 4.968,10.236 L9.96,5.245 C12.236,2.969 15.922,2.969 18.198,5.245 L26.27,13.317 L34.348,5.239 C36.624,2.963 40.315,2.969 42.591,5.245 L47.583,10.236 C49.859,12.513 49.859,16.198 47.583,18.474 L39.505,26.552 L47.583,34.63 C49.859,36.906 49.859,40.592 47.583,42.868" id="Fill-200" fill="#35AC56"></path>
        <path d="M7.375,12.644 L11.412,8.608 C11.745,8.275 11.745,7.736 11.412,7.404 C11.08,7.071 10.541,7.071 10.208,7.404 L6.172,11.44 C5.839,11.772 5.839,12.311 6.172,12.644 C6.504,12.976 7.043,12.976 7.375,12.644" id="Fill-201" fill="#FFFFFF"></path>
        <path d="M13.058,21.76 L11.413,20.115 C11.08,19.782 10.541,19.782 10.209,20.115 C9.877,20.447 9.877,20.986 10.209,21.318 L11.854,22.963 C12.186,23.296 12.725,23.296 13.058,22.963 C13.39,22.631 13.39,22.092 13.058,21.76" id="Fill-202" fill="#FFFFFF"></path>
        <path d="M13.896,22.597 L13.058,21.76 C12.725,21.427 12.186,21.427 11.854,21.76 C11.522,22.092 11.522,22.631 11.854,22.963 L12.692,23.801 C13.024,24.134 13.563,24.134 13.896,23.801 C14.228,23.469 14.228,22.93 13.896,22.597" id="Fill-203" fill="#FFFFFF"></path>
        <path d="M8.096,36.305 L13.477,30.925 C13.809,30.593 13.809,30.054 13.477,29.721 C13.144,29.389 12.605,29.389 12.273,29.721 L6.892,35.102 C6.56,35.434 6.56,35.973 6.892,36.305 C7.224,36.638 7.763,36.638 8.096,36.305" id="Fill-204" fill="#FFFFFF"></path>
    </g>
</svg>