<?xml version="1.0" encoding="UTF-8" standalone="no"?>
<svg width="48px" height="86px" viewBox="0 0 48 86" version="1.1" xmlns="http://www.w3.org/2000/svg" xmlns:xlink="http://www.w3.org/1999/xlink">
    <!-- Generator: Sketch 39.1 (31720) - http://www.bohemiancoding.com/sketch -->
    <title>Slice 1</title>
    <desc>Created with Sketch.</desc>
    <defs></defs>
    <g id="Page-1" stroke="none" stroke-width="1" fill="none" fill-rule="evenodd">
        <path d="M24.282,85.626 C22.456,85.626 20.827,84.496 20.13,82.745 L15.208,70.401 L14.731,69.187 L12.756,64.253 L11.024,59.897 L11.024,59.888 L8.944,54.675 C5.069,53.87 2.039,50.691 1.468,46.736 C1.086,44.101 1.797,41.502 3.368,39.481 C2.367,38.192 1.702,36.661 1.468,35.041 C0.887,31.037 2.794,27.197 6.327,25.26 C6.561,25.132 6.662,24.857 6.577,24.575 C6.064,22.861 5.804,21.08 5.804,19.281 C5.804,9.469 13.478,2.347 24.052,2.347 C24.5,2.347 24.953,2.361 25.408,2.387 C35.253,2.971 42.215,9.319 42.732,18.182 C42.86,20.359 42.61,22.513 41.988,24.584 C41.906,24.86 42.007,25.131 42.24,25.26 C45.773,27.196 47.681,31.035 47.101,35.042 C46.866,36.662 46.201,38.193 45.2,39.481 C46.771,41.502 47.483,44.101 47.101,46.737 C46.529,50.69 43.5,53.869 39.628,54.674 L34.59,67.316 L29.441,80.208 L28.433,82.745 C27.735,84.496 26.106,85.626 24.282,85.626" id="Fill-401" fill="#A0A19D"></path>
        <path d="M23.743,84.098 C21.918,84.098 20.289,82.967 19.592,81.217 L14.669,68.873 L14.192,67.658 L12.217,62.725 L10.485,58.368 L10.485,58.359 L8.406,53.146 C4.531,52.342 1.501,49.163 0.93,45.207 C0.548,42.573 1.259,39.973 2.83,37.953 C1.829,36.664 1.163,35.132 0.93,33.513 C0.349,29.509 2.256,25.669 5.789,23.731 C6.023,23.603 6.123,23.328 6.038,23.047 C5.525,21.332 5.266,19.551 5.266,17.752 C5.266,7.94 12.94,0.818 23.514,0.818 C23.962,0.818 24.414,0.832 24.87,0.858 C34.714,1.443 41.676,7.79 42.194,16.654 C42.322,18.83 42.072,20.984 41.45,23.055 C41.367,23.331 41.469,23.603 41.702,23.731 C45.234,25.667 47.142,29.507 46.562,33.513 C46.328,35.133 45.663,36.664 44.662,37.953 C46.233,39.973 46.945,42.573 46.562,45.208 C45.99,49.162 42.962,52.34 39.09,53.146 L34.052,65.788 L28.903,78.68 L27.895,81.216 C27.197,82.967 25.568,84.098 23.743,84.098" id="Fill-402" fill="#FFFFFF"></path>
        <path d="M40.169,43.986 L37.513,50.633 L37.18,51.479 L35.332,56.122 L32.583,63.009 L31.83,64.904 L30.254,68.848 L28.934,72.156 L28.25,73.864 L26.682,77.793 L25.673,80.332 C24.943,82.165 22.543,82.165 21.814,80.332 L21.518,79.587 L16.891,67.987 L16.417,66.783 L14.437,61.837 L13.249,58.84 L12.877,57.908 L12.877,57.9 L7.325,43.986 L40.169,43.986" id="Fill-403" fill="#E9CD27"></path>
        <polyline id="Fill-404" fill="#CDB231" points="33.002 43.249 32.265 43.986 27.738 48.521 24.997 51.269 18.956 57.31 15.338 60.936 14.437 61.837 13.249 58.84 12.877 57.908 12.877 57.9 16.239 54.538 18.987 51.782 24.997 45.772 26.775 43.986 30.254 40.508 33.002 43.249"></polyline>
        <polyline id="Fill-405" fill="#CDB231" points="37.77 50.889 37.18 51.479 33.942 54.725 31.193 57.473 27.847 60.835 25.098 63.584 21.542 67.148 18.801 69.897 17.978 70.712 16.891 67.987 16.417 66.783 18.801 64.399 28.452 54.725 31.193 51.976 35.021 48.148 37.513 50.633 37.77 50.889"></polyline>
        <polyline id="Fill-406" fill="#CDB231" points="32.583 63.009 31.83 64.904 30.254 68.848 28.934 72.156 27.738 73.352 21.518 79.587 19.95 75.658 22.256 73.352 24.997 70.603 28.514 67.078 32.583 63.009"></polyline>
        <polyline id="Fill-407" fill="#CDB231" points="33.942 54.725 35.332 56.122 33.763 60.051 31.193 57.473 28.452 54.725 24.997 51.269 22.248 48.521 17.729 43.986 16.992 43.249 19.74 40.508 23.211 43.986 24.997 45.772 27.738 48.521 33.942 54.725"></polyline>
        <path d="M31.263,64.329 L25.129,58.056 L21.705,54.562 L18.987,51.782 L10.706,43.323 C9.999,44.083 9.322,44.871 8.698,45.691 C8.535,45.904 8.376,46.12 8.219,46.338 L8.296,46.417 L16.239,54.538 L18.956,57.31 L22.38,60.812 L25.098,63.584 L28.514,67.078 L30.254,68.848 L31.83,64.904 L31.263,64.329" id="Fill-408" fill="#CDB231"></path>
        <polyline id="Fill-409" fill="#CDB231" points="28.25 73.864 26.682 77.793 24.997 76.1 22.256 73.352 16.891 67.987 16.417 66.783 14.437 61.837 13.249 58.84 15.338 60.936 18.801 64.399 21.542 67.148 24.997 70.603 27.738 73.352 28.25 73.864"></polyline>
        <path d="M20.869,69.809 L14.291,53.309 C14.15,52.957 13.75,52.785 13.397,52.925 C13.044,53.066 12.872,53.466 13.013,53.819 L19.591,70.319 C19.732,70.671 20.132,70.843 20.485,70.703 C20.838,70.562 21.01,70.162 20.869,69.809" id="Fill-410" fill="#FFFFFF"></path>
        <path d="M22.506,73.917 L21.788,72.115 C21.648,71.762 21.247,71.59 20.895,71.731 C20.542,71.872 20.37,72.272 20.511,72.624 L21.229,74.426 C21.369,74.779 21.77,74.951 22.122,74.81 C22.475,74.669 22.647,74.269 22.506,73.917" id="Fill-411" fill="#FFFFFF"></path>
        <path d="M39.16,34.063 C39.685,32.312 39.921,30.436 39.807,28.488 C39.336,20.433 32.783,13.866 24.728,13.388 C15.397,12.834 7.657,20.237 7.657,29.448 C7.657,31.049 7.892,32.596 8.329,34.055 C8.733,35.404 8.172,36.847 6.938,37.524 C4.434,38.896 2.84,41.719 3.296,44.866 C3.746,47.974 6.27,50.469 9.383,50.889 C12.858,51.358 15.923,49.328 17.062,46.346 C18.09,49.04 20.691,50.956 23.746,50.956 C26.801,50.956 29.402,49.04 30.43,46.346 C31.568,49.328 34.634,51.358 38.109,50.889 C41.221,50.469 43.746,47.974 44.196,44.866 C44.652,41.719 43.057,38.895 40.553,37.523 C39.321,36.848 38.757,35.408 39.16,34.063" id="Fill-412" fill="#DC326D"></path>
        <path d="M7.548,46.816 C6.877,46.187 6.413,45.344 6.281,44.433 C6.251,44.222 6.236,44.013 6.236,43.806 C6.236,43.095 6.412,42.416 6.737,41.819 C6.918,41.485 6.794,41.068 6.461,40.886 C6.127,40.705 5.709,40.828 5.528,41.162 C5.094,41.96 4.86,42.867 4.86,43.806 C4.86,44.079 4.88,44.354 4.92,44.63 C5.101,45.875 5.723,46.99 6.607,47.819 C6.884,48.079 7.319,48.065 7.579,47.788 C7.839,47.511 7.825,47.076 7.548,46.816" id="Fill-413" fill="#FFFFFF"></path>
        <path d="M39.16,22.368 C39.685,20.617 39.921,18.74 39.807,16.793 C39.336,8.737 32.783,3.724 24.728,3.246 C15.397,2.692 7.657,8.542 7.657,17.752 C7.657,19.354 7.892,20.901 8.329,22.36 C8.733,23.708 8.172,25.152 6.938,25.828 C4.434,27.201 2.84,30.024 3.296,33.171 C3.746,36.279 6.27,38.774 9.383,39.194 C12.858,39.663 15.923,37.633 17.062,34.651 C18.09,37.345 20.691,39.261 23.746,39.261 C26.801,39.261 29.402,37.345 30.43,34.651 C31.568,37.633 34.634,39.663 38.109,39.194 C41.221,38.774 43.746,36.279 44.196,33.171 C44.652,30.023 43.057,27.2 40.553,25.828 C39.321,25.153 38.757,23.713 39.16,22.368" id="Fill-414" fill="#BE8BB2"></path>
        <path d="M10.674,17.753 C10.682,13.483 12.708,10.095 16.082,8.1 C16.409,7.907 16.519,7.486 16.326,7.158 C16.133,6.831 15.712,6.722 15.385,6.914 C11.61,9.126 9.29,13.034 9.299,17.753 C9.299,18.132 9.607,18.44 9.986,18.44 C10.366,18.44 10.674,18.132 10.674,17.753" id="Fill-415" fill="#FFFFFF"></path>
        <path d="M6.281,32.738 C6.251,32.527 6.236,32.317 6.236,32.111 C6.238,30.592 7.034,29.219 8.388,28.475 C8.721,28.292 8.843,27.874 8.661,27.541 C8.478,27.208 8.06,27.086 7.727,27.268 C5.934,28.249 4.858,30.104 4.86,32.111 C4.86,32.384 4.88,32.659 4.92,32.935 C4.974,33.311 5.323,33.572 5.699,33.517 C6.075,33.463 6.336,33.114 6.281,32.738" id="Fill-416" fill="#FFFFFF"></path>
        <path d="M32.786,54.275 C32.786,55.544 31.756,56.574 30.487,56.574 C29.217,56.574 28.188,55.544 28.188,54.275 C28.188,53.005 30.487,44.861 30.487,44.861 C30.487,44.861 32.786,53.005 32.786,54.275" id="Fill-417" fill="#DC326D"></path>
    </g>
</svg>