<?xml version="1.0" encoding="UTF-8" standalone="no"?>
<svg width="41px" height="70px" viewBox="0 0 41 70" version="1.1" xmlns="http://www.w3.org/2000/svg" xmlns:xlink="http://www.w3.org/1999/xlink">
    <!-- Generator: Sketch 39.1 (31720) - http://www.bohemiancoding.com/sketch -->
    <title>Slice 1</title>
    <desc>Created with Sketch.</desc>
    <defs></defs>
    <g id="Page-1" stroke="none" stroke-width="1" fill="none" fill-rule="evenodd">
        <path d="M20.268,69.47 C20.027,69.47 19.785,69.448 19.549,69.406 C17.605,69.057 16.193,67.37 16.192,65.395 L16.192,41.185 C7.179,39.253 0.739,31.328 0.739,22.086 C0.74,16.87 2.771,11.965 6.459,8.277 C10.148,4.589 15.052,2.557 20.269,2.557 C21.434,2.557 22.603,2.661 23.741,2.865 C33.045,4.537 39.797,12.62 39.797,22.086 C39.797,27.594 37.453,32.874 33.364,36.572 C33.007,36.896 32.624,37.214 32.195,37.545 L32.099,37.622 C31.707,37.919 31.299,38.205 30.877,38.479 L30.703,38.591 C30.274,38.861 29.847,39.111 29.425,39.336 L29.331,39.383 C28.391,39.874 27.417,40.289 26.437,40.614 L26.316,40.655 C25.82,40.816 25.32,40.957 24.82,41.076 C24.82,41.076 24.447,41.161 24.345,41.183 L24.345,65.394 C24.343,67.642 22.514,69.47 20.268,69.47" id="Fill-264" fill="#A0A19D"></path>
        <path d="M19.871,67.612 C17.928,67.263 16.515,65.576 16.514,63.601 L16.515,39.391 C7.501,37.459 1.062,29.534 1.062,20.292 C1.062,15.076 3.093,10.171 6.782,6.483 C10.471,2.795 15.374,0.763 20.591,0.763 C21.757,0.764 22.925,0.867 24.063,1.071 C33.367,2.743 40.12,10.826 40.12,20.292 C40.12,25.8 37.775,31.08 33.687,34.778 C33.329,35.102 32.946,35.421 32.518,35.752 L32.422,35.828 C32.029,36.126 31.622,36.411 31.199,36.685 L31.025,36.797 C30.597,37.067 30.169,37.317 29.747,37.542 L29.653,37.59 C28.714,38.08 27.739,38.495 26.759,38.821 L26.639,38.862 C26.142,39.023 25.642,39.163 25.143,39.282 C25.143,39.282 24.769,39.368 24.667,39.389 L24.667,63.6 C24.665,65.848 22.837,67.676 20.59,67.676 C20.349,67.676 20.107,67.654 19.871,67.612" id="Fill-265" fill="#FFFFFF"></path>
        <path d="M18.906,30.351 L18.906,63.6 C18.906,64.527 19.664,65.285 20.591,65.285 C21.517,65.285 22.275,64.527 22.275,63.6 L22.275,30.351 L18.906,30.351" id="Fill-266" fill="#1A1A19"></path>
        <path d="M37.728,20.292 C37.728,29.757 30.055,37.43 20.591,37.43 C11.126,37.43 3.453,29.757 3.453,20.292 C3.453,10.827 11.126,3.155 20.591,3.155 C30.056,3.155 37.728,10.827 37.728,20.292" id="Fill-267" fill="#E996B7"></path>
        <path d="M10.807,9.84 C13.372,7.439 16.81,5.969 20.591,5.968 C20.978,5.968 21.292,5.654 21.292,5.267 C21.292,4.879 20.978,4.565 20.591,4.565 C16.442,4.565 12.658,6.182 9.847,8.816 C9.565,9.081 9.55,9.525 9.815,9.808 C10.08,10.091 10.524,10.105 10.807,9.84" id="Fill-268" fill="#FFFFFF"></path>
        <path d="M6.832,16.304 C7.29,14.726 8.013,13.259 8.95,11.955 C9.176,11.64 9.104,11.202 8.789,10.976 C8.475,10.75 8.036,10.822 7.81,11.136 C6.782,12.568 5.987,14.179 5.484,15.913 C5.376,16.285 5.59,16.674 5.962,16.782 C6.334,16.89 6.724,16.676 6.832,16.304" id="Fill-269" fill="#FFFFFF"></path>
        <path d="M27.665,24.414 L27.634,24.444 C27.629,24.45 27.572,24.512 27.665,24.414" id="Fill-270" fill="#FFFFFF"></path>
        <polyline id="Fill-271" fill="#FFFFFF" points="14.741 14.636 14.765 14.612 14.782 14.595 14.802 14.572 14.741 14.636"></polyline>
        <polyline id="Fill-272" fill="#FFFFFF" points="24.748 22.24 24.744 22.244 24.743 22.246 24.748 22.24"></polyline>
        <polyline id="Fill-273" fill="#2097B2" points="26.522 23.781 26.494 23.808 26.522 23.781"></polyline>
        <polyline id="Fill-274" fill="#2097B2" points="14.893 14.982 14.916 14.961 14.931 14.946 14.948 14.925 14.893 14.982"></polyline>
        <path d="M31.394,33.306 C30.039,33.795 28.359,34.244 26.428,34.322 C24.508,34.403 22.336,34.15 20.216,33.289 C19.69,33.067 19.152,32.854 18.646,32.547 C18.116,32.291 17.634,31.931 17.134,31.595 C16.863,31.438 16.688,31.242 16.457,31.072 L16.126,30.81 L15.957,30.676 L15.764,30.487 C15.506,30.234 15.245,29.98 14.983,29.724 L14.885,29.627 L14.836,29.579 C14.865,29.607 14.734,29.483 14.896,29.635 L14.878,29.613 L14.735,29.436 L14.447,29.084 C12.95,27.178 12.023,24.7 12.096,22.083 C12.106,20.78 12.381,19.463 12.875,18.212 C13.014,17.906 13.118,17.58 13.3,17.291 C13.467,17.004 13.614,16.662 13.79,16.435 C13.976,16.172 14.062,15.948 14.385,15.596 L14.794,15.108 L14.931,14.946 L14.916,14.961 L14.893,14.982 L14.948,14.925 L14.931,14.946 L15.093,14.787 C16.918,12.847 19.909,11.997 22.64,12.665 C23.314,12.847 23.983,13.08 24.592,13.435 C24.922,13.6 25.171,13.784 25.43,13.956 C25.657,14.083 26.133,14.548 26.306,14.674 C27.27,15.607 27.96,16.829 28.182,18.167 C28.439,19.498 28.212,20.894 27.655,22.115 C27.497,22.405 27.338,22.731 27.169,22.955 C27.082,23.081 27.03,23.195 26.872,23.365 L26.671,23.6 L26.521,23.777 L26.494,23.808 L26.522,23.781 L26.494,23.808 C26.063,24.261 25.554,24.631 24.994,24.896 C23.85,25.441 22.499,25.525 21.303,25.155 C20.709,24.979 20.127,24.663 19.69,24.341 L19.255,23.972 L18.981,23.696 C18.793,23.473 18.619,23.24 18.479,22.986 C17.911,21.974 17.817,20.724 18.185,19.655 C18.277,19.388 18.396,19.133 18.535,18.89 C18.602,18.773 18.674,18.681 18.739,18.572 C18.814,18.46 18.949,18.317 19.05,18.193 C19.356,17.829 19.829,17.509 20.298,17.33 C21.26,16.943 22.363,17.082 23.197,17.572 L23.474,17.75 L23.803,18.026 C23.914,18.139 24.107,18.338 24.21,18.519 C24.457,18.891 24.591,19.322 24.624,19.749 C24.662,20.178 24.589,20.602 24.434,20.979 C24.364,21.165 24.255,21.356 24.159,21.494 L23.963,21.747 L23.907,21.814 L23.898,21.825 L23.894,21.829 L23.873,21.849 L23.775,21.946 C23.234,22.449 22.483,22.608 21.863,22.473 C21.556,22.414 21.259,22.275 21.044,22.127 C20.777,21.936 20.618,21.77 20.482,21.552 C20.22,21.13 20.187,20.675 20.237,20.332 C20.278,20.112 20.357,19.921 20.448,19.72 C20.518,19.565 20.541,19.422 20.369,19.33 C20.253,19.268 20.142,19.266 20.056,19.379 L19.917,19.596 C19.807,19.791 19.727,20.002 19.672,20.219 C19.571,20.661 19.561,21.272 19.876,21.887 C20.021,22.186 20.292,22.5 20.558,22.718 C20.876,22.98 21.23,23.172 21.657,23.296 C22.491,23.547 23.581,23.429 24.446,22.742 L24.602,22.608 L24.641,22.575 L24.677,22.539 L24.692,22.523 L24.753,22.461 C24.834,22.376 24.913,22.302 25.008,22.174 C25.2,21.937 25.343,21.71 25.47,21.446 C25.724,20.928 25.871,20.328 25.861,19.703 C25.856,19.079 25.702,18.427 25.371,17.838 C25.204,17.527 25.025,17.291 24.744,16.985 L24.427,16.681 C24.284,16.569 24.137,16.446 23.989,16.345 C22.846,15.559 21.252,15.234 19.75,15.712 C18.997,15.953 18.3,16.334 17.684,16.959 C17.564,17.088 17.456,17.184 17.324,17.342 C17.192,17.51 17.046,17.684 16.93,17.857 C16.703,18.196 16.503,18.557 16.341,18.942 C15.691,20.475 15.679,22.359 16.456,24.007 C16.649,24.418 16.893,24.807 17.169,25.177 L17.393,25.441 L17.507,25.573 L17.564,25.639 C17.592,25.667 17.54,25.621 17.635,25.711 L17.661,25.736 L18.072,26.131 C18.813,26.774 19.593,27.231 20.474,27.562 C22.222,28.218 24.268,28.228 26.106,27.486 C27.023,27.119 27.883,26.569 28.614,25.874 L29.094,25.373 C29.227,25.248 29.404,25.015 29.565,24.81 C29.915,24.385 30.148,23.973 30.408,23.543 C31.357,21.794 31.78,19.712 31.5,17.675 C31.259,15.632 30.296,13.659 28.852,12.135 C28.376,11.697 28.255,11.531 27.78,11.156 C27.348,10.812 26.906,10.477 26.474,10.231 C25.61,9.679 24.654,9.279 23.675,8.969 C19.741,7.723 15.149,8.708 12.036,11.494 L11.741,11.748 L11.704,11.78 L11.592,11.893 L11.537,11.95 L11.426,12.064 L10.982,12.521 C10.707,12.772 10.337,13.266 10.013,13.674 C9.657,14.105 9.423,14.518 9.152,14.946 C8.873,15.362 8.678,15.821 8.453,16.266 C7.6,18.065 7.166,20.029 7.101,21.964 C6.992,25.851 8.527,29.589 10.95,32.133 L11.406,32.604 L11.634,32.837 L11.662,32.866 C11.839,33.035 11.726,32.925 11.773,32.969 L11.826,33.013 L11.931,33.101 C12.213,33.336 12.492,33.569 12.769,33.801 L12.977,33.974 L13.239,34.162 L13.77,34.534 C14.123,34.765 14.476,35.048 14.824,35.22 C15.528,35.594 16.21,35.971 16.93,36.232 C17.628,36.542 18.348,36.744 19.048,36.944 C19.394,37.058 19.751,37.113 20.1,37.182 C20.449,37.248 20.792,37.319 21.135,37.366 C21.283,37.375 21.429,37.387 21.575,37.4 C25.609,37.171 29.27,35.549 32.083,33.004 C31.86,33.105 31.638,33.206 31.394,33.306" id="Fill-275" fill="#DC326D"></path>
    </g>
</svg>