<?xml version="1.0" encoding="UTF-8" standalone="no"?>
<svg width="70px" height="74px" viewBox="0 0 70 74" version="1.1" xmlns="http://www.w3.org/2000/svg" xmlns:xlink="http://www.w3.org/1999/xlink">
    <!-- Generator: Sketch 39.1 (31720) - http://www.bohemiancoding.com/sketch -->
    <title>Slice 1</title>
    <desc>Created with Sketch.</desc>
    <defs>
        <polygon id="path-1" points="0.51247976 73.94 142.814717 73.94 142.814717 0.675 0.51247976 0.675 0.51247976 73.94"></polygon>
    </defs>
    <g id="Page-1" stroke="none" stroke-width="1" fill="none" fill-rule="evenodd">
        <g id="Group-371" transform="translate(-73.000000, 1.000000)">
            <mask id="mask-2" fill="white">
                <use xlink:href="#path-1"></use>
            </mask>
            <g id="Clip-369"></g>
            <path d="M87.455,74 C85.473,74 83.594,73.794 81.908,73.388 C81.053,73.182 80.245,72.925 79.507,72.624 C75.395,70.796 74.312,68.166 74.118,66.277 C73.868,63.866 74.875,61.504 77.111,59.262 C78.638,57.622 80.744,56.1 83.412,54.172 L83.625,54.018 C86.236,52.132 89.172,50.011 92.361,47.3 C95.045,44.937 98.554,41.623 101.659,37.106 C101.854,36.82 102.046,36.532 102.234,36.241 C98.223,36.801 94.368,38.595 91.275,41.359 C90.407,42.135 89.335,42.544 88.225,42.545 C87.866,42.545 87.503,42.502 87.142,42.415 C85.861,42.106 84.771,41.265 84.148,40.106 C83.524,38.94 83.433,37.606 83.893,36.349 C85.111,33.007 86.915,30.133 89.255,27.812 C90.093,26.98 91.001,26.22 91.96,25.542 C90.8,25.1 89.876,24.139 89.488,22.941 C89.046,21.57 89.345,20.098 90.286,19.001 C93.534,15.212 98.484,13.028 103.385,13.028 C104.631,13.028 105.873,13.169 107.085,13.461 C107.427,13.543 107.766,13.638 108.102,13.744 C109.019,14.033 109.909,14.411 110.765,14.872 C110.81,14.701 110.991,14.012 110.991,14.012 C111.83,10.825 112.491,8.307 113.502,6.184 C115.061,2.625 117.312,1.342 118.921,0.904 C119.48,0.751 120.047,0.675 120.619,0.675 C121.141,0.675 121.667,0.739 122.194,0.866 C123.769,1.245 125.305,2.194 126.76,3.685 C129.017,6.126 130.841,9.717 131.931,13.832 C132.875,17.429 133.775,23.291 132.702,30.812 C132.647,31.178 132.587,31.546 132.523,31.915 C133.753,32.674 134.78,33.649 135.538,34.785 C135.841,35.241 136.113,35.73 136.352,36.247 C138.456,37.555 140.119,39.298 141.188,41.317 C142.616,44.02 143.098,47.285 142.657,51.299 C142.094,56.447 140.308,61.138 137.491,64.868 C135.092,68.045 131.961,70.486 128.437,71.925 C127.882,72.152 127.302,72.266 126.72,72.266 C126.369,72.266 126.018,72.224 125.671,72.141 C124.337,71.819 123.193,70.878 122.609,69.625 C122.023,68.368 122.043,66.93 122.665,65.683 C123.048,64.917 123.397,64.131 123.713,63.329 C123.191,63.583 122.662,63.818 122.126,64.032 C121.628,64.23 121.109,64.33 120.588,64.33 C120.268,64.33 119.948,64.292 119.632,64.216 C118.321,63.9 117.246,62.959 116.755,61.698 C116.702,61.56 116.656,61.422 116.618,61.282 C113.644,64.051 110.351,66.462 106.763,68.495 C100.009,72.217 94.258,73.451 90.621,73.832 C89.547,73.944 88.487,74 87.455,74" id="Fill-370" fill="#A0A19D" mask="url(#mask-2)"></path>
        </g>
        <path d="M8.356,73.044 C7.5,72.838 6.693,72.581 5.955,72.281 C1.843,70.452 0.76,67.822 0.566,65.934 C0.316,63.522 1.323,61.16 3.559,58.918 C5.086,57.278 7.192,55.756 9.86,53.829 L10.073,53.674 C12.684,51.788 15.62,49.667 18.809,46.956 C21.493,44.594 25.002,41.279 28.107,36.763 C28.302,36.477 28.494,36.188 28.682,35.898 C24.671,36.457 20.816,38.251 17.723,41.016 C16.574,42.043 15.068,42.427 13.59,42.071 C12.309,41.762 11.219,40.921 10.596,39.762 C9.971,38.596 9.881,37.262 10.341,36.005 C11.559,32.663 13.363,29.79 15.703,27.468 C16.541,26.636 17.449,25.876 18.408,25.198 C17.248,24.756 16.324,23.795 15.936,22.597 C15.494,21.226 15.792,19.754 16.734,18.657 C20.807,13.904 27.559,11.677 33.533,13.117 C33.875,13.199 34.214,13.294 34.55,13.4 C35.467,13.69 36.357,14.067 37.213,14.529 C37.258,14.357 37.439,13.669 37.439,13.669 C38.277,10.481 38.939,7.963 39.95,5.84 C41.509,2.281 43.76,0.998 45.369,0.56 C46.437,0.269 47.538,0.256 48.642,0.522 C50.217,0.901 51.752,1.85 53.208,3.341 C55.465,5.783 57.289,9.373 58.379,13.488 C59.323,17.085 60.223,22.947 59.15,30.468 C59.095,30.834 59.035,31.202 58.971,31.571 C60.201,32.33 61.228,33.305 61.986,34.441 C62.289,34.897 62.561,35.386 62.8,35.903 C64.904,37.212 66.567,38.954 67.636,40.973 C69.064,43.676 69.546,46.941 69.105,50.956 C68.542,56.103 66.756,60.794 63.939,64.524 C61.54,67.701 58.409,70.142 54.884,71.582 C53.996,71.944 53.04,72.019 52.119,71.797 C50.785,71.475 49.641,70.535 49.057,69.281 C48.471,68.024 48.491,66.587 49.113,65.339 C49.496,64.573 49.845,63.788 50.161,62.985 C49.639,63.239 49.11,63.474 48.574,63.689 C47.77,64.008 46.909,64.072 46.08,63.872 C44.769,63.557 43.694,62.615 43.203,61.354 C43.15,61.217 43.104,61.078 43.066,60.938 C40.092,63.707 36.799,66.118 33.211,68.151 C26.456,71.873 20.706,73.107 17.069,73.488 C13.931,73.815 10.919,73.662 8.356,73.044" id="Fill-372" fill="#FFFFFF"></path>
        <path d="M8.803,71.187 C8.043,71.004 7.327,70.777 6.675,70.511 C3.448,69.075 2.608,67.125 2.465,65.739 C2.278,63.924 3.101,62.083 4.912,60.267 C6.355,58.718 8.395,57.244 10.978,55.377 L11.193,55.222 C13.828,53.319 16.792,51.177 20.046,48.411 C22.827,45.966 26.453,42.54 29.681,37.846 C30.55,36.57 31.359,35.251 32.127,33.851 C31.352,33.792 30.517,33.799 29.628,33.872 C24.813,34.268 20.134,36.299 16.45,39.591 C15.776,40.193 14.897,40.42 14.037,40.213 C13.284,40.032 12.643,39.537 12.278,38.858 C11.916,38.182 11.865,37.402 12.135,36.661 C13.258,33.582 14.91,30.945 17.048,28.824 C20.127,25.768 24.258,23.811 28.179,23.436 C28.07,23.381 27.96,23.329 27.85,23.279 C27.394,23.074 26.928,22.913 26.465,22.801 C24.763,22.391 22.964,22.582 20.632,23.422 C20.216,23.572 19.773,23.597 19.353,23.496 C18.605,23.316 17.992,22.746 17.753,22.008 C17.518,21.279 17.678,20.491 18.183,19.902 C21.803,15.679 27.791,13.698 33.085,14.974 C33.384,15.046 33.681,15.129 33.975,15.222 C35.541,15.716 37.032,16.514 38.375,17.568 C38.671,16.49 38.942,15.462 39.193,14.511 L39.287,14.153 C40.1,11.062 40.742,8.62 41.674,6.661 C42.698,4.327 44.117,2.881 45.872,2.403 C46.625,2.197 47.407,2.189 48.195,2.379 C49.414,2.673 50.64,3.445 51.84,4.675 C53.863,6.864 55.521,10.158 56.533,13.978 C57.431,17.4 58.287,22.988 57.258,30.198 C57.141,30.983 56.999,31.787 56.833,32.602 C58.334,33.263 59.573,34.265 60.396,35.502 C60.744,36.025 61.044,36.603 61.29,37.228 C63.349,38.39 64.952,39.985 65.947,41.866 C67.192,44.22 67.604,47.126 67.206,50.748 C66.68,55.553 65.023,59.919 62.415,63.373 C60.222,66.277 57.368,68.503 54.162,69.813 C53.648,70.023 53.096,70.067 52.567,69.939 C51.793,69.753 51.129,69.206 50.788,68.475 C50.45,67.747 50.462,66.915 50.823,66.192 C52.004,63.823 52.896,61.264 53.464,58.642 C51.745,60.012 49.855,61.12 47.865,61.914 C47.433,62.087 46.97,62.122 46.527,62.015 C45.824,61.846 45.247,61.339 44.983,60.661 C44.721,59.985 44.806,59.25 45.216,58.642 C45.529,58.177 45.851,57.717 46.174,57.257 C46.919,56.193 47.623,55.188 48.224,54.119 C48.978,52.778 49.422,51.506 49.557,50.311 C49.383,50.576 49.207,50.841 49.029,51.103 C44.621,57.511 38.983,62.685 32.269,66.489 C25.811,70.048 20.332,71.226 16.87,71.588 C13.949,71.894 11.16,71.755 8.803,71.187" id="Fill-373" fill="#1A1A19"></path>
        <path d="M33.546,16.583 C28.519,14.996 22.672,16.859 19.268,20.83 C18.739,21.447 19.384,22.354 20.149,22.078 C23.084,21.021 25.724,20.754 28.437,21.978 C31.872,23.529 34.403,26.793 35.382,30.433 C36.361,34.072 35.863,38.027 34.332,41.471 C34.602,40.865 36.411,40.012 36.959,39.532 C37.814,38.785 38.604,37.965 39.321,37.085 C40.658,35.444 42.101,33.325 42.668,31.257 C43.679,27.564 41.694,23.062 39.266,20.35 C37.726,18.628 35.756,17.281 33.546,16.583" id="Fill-374" fill="#E3862D"></path>
        <path d="M49.469,54.819 C48.562,56.431 47.433,57.907 46.399,59.441 C45.971,60.076 46.624,60.872 47.335,60.589 C54.141,57.872 59.391,51.413 60.479,44.142 C60.881,41.46 60.71,38.551 59.207,36.293 C56.021,31.504 45.942,32.047 45.751,38.911 C45.684,41.338 48.19,43.19 49.499,44.972 C51.79,48.089 51.299,51.563 49.469,54.819" id="Fill-375" fill="#E3862D"></path>
        <path d="M45.756,37.786 C43.068,38.991 40.631,40.842 38.59,42.986 C40.974,39.747 41.469,35.215 39.84,31.539 C39.132,29.942 38.034,28.533 36.691,27.417 C35.283,30.988 33.462,34.834 30.857,38.655 C27.759,43.16 24.227,46.636 20.971,49.499 C17.666,52.309 14.608,54.516 12.029,56.38 C9.449,58.245 7.344,59.752 5.923,61.275 C4.492,62.71 3.739,64.177 3.886,65.592 C3.997,66.675 4.646,67.652 5.903,68.478 C11.074,67.148 16.109,65.225 20.996,62.667 C30.687,56.74 39.998,47.933 45.756,37.786" id="Fill-376" fill="#F9CE2B"></path>
        <path d="M51.077,36.373 C49.226,36.525 47.442,37.03 45.756,37.786 C39.998,47.933 30.687,56.74 20.996,62.667 C16.109,65.225 11.074,67.148 5.903,68.478 C6.284,68.729 6.716,68.967 7.213,69.188 C9.323,70.046 12.539,70.605 16.721,70.168 C20.886,69.732 26.021,68.302 31.565,65.246 C37.042,62.144 42.98,57.377 47.848,50.299 C50.992,45.686 53.074,40.985 54.391,36.532 C53.294,36.343 52.176,36.282 51.077,36.373" id="Fill-377" fill="#E1B92B"></path>
        <path d="M48.888,4.173 C47.954,3.679 47.068,3.556 46.247,3.781 C44.874,4.155 43.785,5.403 42.963,7.275 C42.062,9.169 41.41,11.699 40.596,14.792 C39.779,17.883 38.823,21.538 37.379,25.618 C37.162,26.208 36.93,26.809 36.691,27.417 C38.034,28.533 39.132,29.942 39.84,31.539 C41.469,35.215 40.974,39.747 38.59,42.986 C40.631,40.842 43.068,38.991 45.756,37.786 C51.632,27.432 53.793,15.683 48.888,4.173" id="Fill-378" fill="#FFFFFF"></path>
        <path d="M55.844,29.997 C56.734,23.762 56.226,18.43 55.152,14.344 C54.066,10.242 52.394,7.378 50.818,5.672 C50.155,4.992 49.511,4.502 48.888,4.173 C53.793,15.683 51.632,27.432 45.756,37.786 C47.442,37.03 49.226,36.525 51.077,36.373 C52.176,36.282 53.294,36.343 54.391,36.532 C55.059,34.276 55.534,32.082 55.844,29.997" id="Fill-379" fill="#F3ECD1"></path>
        <path d="M55.599,50.67 C55.809,56.235 54.585,61.846 52.101,66.829 C51.608,67.817 52.6,68.909 53.622,68.491 C56.642,67.258 59.302,65.125 61.275,62.512 C63.867,59.081 65.318,54.867 65.787,50.592 C66.088,47.856 65.971,44.967 64.685,42.534 C63.369,40.046 60.942,38.343 58.317,37.458 C53.509,35.837 47.81,35.362 43.78,38.806 C47.24,37.73 51.374,39.252 53.319,42.202 C54.953,44.681 55.488,47.752 55.599,50.67" id="Fill-380" fill="#F9CE2B"></path>
        <path d="M34.676,32.019 L33.624,34.087 C33.624,34.087 39.657,35.374 39.866,40.733 C39.866,40.733 41.803,35.179 38.949,32.681 C36.095,30.183 34.676,32.019 34.676,32.019" id="Fill-381" fill="#E3862D"></path>
        <path d="M30.944,24.882 C26.384,24.317 21.315,26.6 18.053,29.837 C15.992,31.883 14.474,34.415 13.476,37.15 C13.023,38.395 14.51,39.409 15.499,38.526 C19.36,35.076 24.345,32.874 29.511,32.449 C32.049,32.24 34.737,32.478 36.883,33.85 C39.001,35.204 40.502,38.231 39.866,40.733 C43.402,33.042 37.446,25.688 30.944,24.882" id="Fill-382" fill="#F9CE2B"></path>
    </g>
</svg>