<?xml version="1.0" encoding="UTF-8" standalone="no"?>
<svg width="67px" height="64px" viewBox="0 0 67 64" version="1.1" xmlns="http://www.w3.org/2000/svg" xmlns:xlink="http://www.w3.org/1999/xlink">
    <!-- Generator: Sketch 39.1 (31720) - http://www.bohemiancoding.com/sketch -->
    <title>Slice 1</title>
    <desc>Created with Sketch.</desc>
    <defs></defs>
    <g id="Page-1" stroke="none" stroke-width="1" fill="none" fill-rule="evenodd">
        <path d="M61.949,63.033 L5.367,63.033 C3.074,63.033 1.207,61.167 1.205,58.873 L1.206,48.99 C1.03,48.349 1.026,47.658 1.199,46.986 L5.407,30.486 L5.407,12.684 C5.406,11.689 5.771,10.721 6.422,9.968 L7.802,7.498 C8.634,6.009 10.367,4.903 12.113,4.747 C12.252,4.734 12.389,4.728 12.524,4.728 L40.284,4.728 C40.639,3.102 42.002,1.859 43.73,1.704 C43.844,1.694 43.959,1.689 44.076,1.689 L51.937,1.688 C52.976,1.689 53.951,2.094 54.684,2.827 C55.239,3.382 55.604,4.074 55.75,4.827 C57.284,5.14 58.775,6.168 59.519,7.498 L60.955,10.069 C61.556,10.809 61.882,11.725 61.882,12.685 L61.882,30.486 L66.092,46.991 C66.256,47.637 66.262,48.285 66.112,48.895 L66.111,58.872 C66.112,61.041 64.483,62.824 62.322,63.017 L62.321,63.017 C62.199,63.027 62.074,63.033 61.949,63.033" id="Fill-1" fill="#A0A19D"></path>
        <path d="M61.495,61.626 C61.372,61.637 61.247,61.643 61.122,61.643 L4.54,61.643 C2.247,61.642 0.38,59.776 0.378,57.483 L0.379,47.6 C0.203,46.959 0.199,46.268 0.372,45.596 L4.58,29.096 L4.58,11.294 C4.579,10.299 4.945,9.331 5.595,8.577 L6.975,6.108 C7.807,4.618 9.54,3.512 11.286,3.356 C11.425,3.344 11.562,3.338 11.697,3.337 L39.457,3.337 C39.812,1.711 41.175,0.468 42.903,0.314 C43.017,0.303 43.133,0.299 43.249,0.298 L51.11,0.298 C52.149,0.299 53.124,0.703 53.857,1.436 C54.412,1.991 54.778,2.684 54.923,3.436 C56.457,3.75 57.948,4.777 58.692,6.108 L60.128,8.678 C60.729,9.418 61.055,10.334 61.055,11.295 L61.055,29.095 L65.265,45.6 C65.429,46.247 65.435,46.894 65.285,47.505 L65.284,57.481 C65.285,59.65 63.656,61.433 61.495,61.626" id="Fill-2" fill="#FFFFFF"></path>
        <path d="M61.122,59.251 L4.54,59.251 C3.562,59.251 2.77,58.459 2.77,57.481 L2.77,46.095 L62.893,46.095 L62.893,57.481 C62.893,58.459 62.101,59.251 61.122,59.251" id="Fill-3" fill="#1A1A19"></path>
        <path d="M52.603,4.182 C52.603,3.359 51.935,2.69 51.111,2.69 L43.25,2.69 C42.425,2.69 41.757,3.359 41.757,4.182 L41.166,7.333 L53.194,7.333 L52.603,4.182" id="Fill-4" fill="#1A1A19"></path>
        <path d="M9.062,7.274 L7.073,10.834 L58.593,10.834 L56.604,7.274 C56.128,6.42 54.949,5.729 53.971,5.729 L11.697,5.729 C10.718,5.729 9.539,6.42 9.062,7.274" id="Fill-5" fill="#1A1A19"></path>
        <path d="M6.971,31.857 L6.971,11.293 C6.971,10.316 7.764,9.523 8.741,9.523 L56.893,9.523 C57.871,9.523 58.664,10.316 58.664,11.293 L58.664,31.857 L6.971,31.857" id="Fill-6" fill="#E47AA6"></path>
        <path d="M61.614,47.907 L4.02,47.907 C3.042,47.907 2.445,47.138 2.687,46.191 L6.971,29.395 L58.664,29.395 L62.948,46.191 C63.189,47.139 62.593,47.907 61.614,47.907" id="Fill-7" fill="#E996B7"></path>
        <path d="M52.349,23.983 C52.349,25.286 51.292,26.343 49.989,26.343 C48.686,26.343 47.63,25.286 47.63,23.983 C47.63,22.68 48.686,21.623 49.989,21.623 C51.292,21.623 52.349,22.68 52.349,23.983" id="Fill-8" fill="#1A1A19"></path>
        <path d="M18.523,23.983 C18.523,25.551 17.252,26.823 15.684,26.823 C14.116,26.823 12.844,25.551 12.844,23.983 C12.844,22.415 14.116,21.143 15.684,21.143 C17.252,21.143 18.523,22.415 18.523,23.983" id="Fill-9" fill="#FFFFFF"></path>
        <path d="M17.621,23.982 C17.621,25.052 16.754,25.919 15.685,25.919 C14.615,25.919 13.748,25.052 13.748,23.982 C13.748,22.913 14.615,22.046 15.685,22.046 C16.754,22.046 17.621,22.913 17.621,23.982" id="Fill-10" fill="#35AC56"></path>
        <path d="M18.56,18.986 L12.926,18.986 C12.472,18.986 12.104,18.618 12.104,18.164 L12.104,16.266 C12.104,15.812 12.472,15.444 12.926,15.444 L18.56,15.444 C19.014,15.444 19.382,15.812 19.382,16.266 L19.382,18.164 C19.382,18.618 19.014,18.986 18.56,18.986" id="Fill-11" fill="#1A1A19"></path>
        <polyline id="Fill-12" fill="#DA2D31" points="35.256 47.997 31.815 47.997 33.826 29.439 35.89 29.439 35.256 47.997"></polyline>
        <polyline id="Fill-13" fill="#EEB836" points="38.413 47.997 34.973 47.997 35.673 29.439 37.784 29.439 38.413 47.997"></polyline>
        <polyline id="Fill-14" fill="#35AC56" points="41.537 47.997 38.095 47.997 37.595 29.439 39.445 29.439 41.537 47.997"></polyline>
        <polygon id="Fill-15" fill="#BB242A" points="33.826 29.435 35.695 29.435 35.695 25.114 33.826 25.114"></polygon>
        <polygon id="Fill-16" fill="#D68C32" points="35.674 29.435 37.575 29.435 37.575 25.114 35.674 25.114"></polygon>
        <polygon id="Fill-17" fill="#179646" points="37.576 29.435 39.445 29.435 39.445 25.114 37.576 25.114"></polygon>
        <path d="M45.042,19.537 C45.042,24.158 41.297,27.902 36.677,27.902 C32.058,27.902 28.31,24.158 28.31,19.537 C28.31,14.918 32.058,11.17 36.677,11.17 C41.297,11.17 45.042,14.918 45.042,19.537" id="Fill-18" fill="#1A1A19"></path>
        <path d="M36.676,27.106 C32.502,27.106 29.106,23.709 29.106,19.536 C29.106,15.362 32.502,11.967 36.676,11.967 C40.85,11.967 44.245,15.362 44.245,19.536 C44.245,23.71 40.85,27.106 36.676,27.106" id="Fill-19" fill="#4A8ABD"></path>
        <path d="M43.019,19.536 C43.019,23.041 40.178,25.878 36.677,25.878 C33.176,25.878 30.334,23.041 30.334,19.536 C30.334,16.035 33.176,13.194 36.677,13.194 C40.178,13.194 43.019,16.035 43.019,19.536" id="Fill-20" fill="#1A1A19"></path>
        <path d="M39.039,19.536 C39.039,20.841 37.981,21.899 36.677,21.899 C35.372,21.899 34.314,20.841 34.314,19.536 C34.314,18.231 35.372,17.174 36.677,17.174 C37.981,17.174 39.039,18.231 39.039,19.536" id="Fill-21" fill="#BE8BB2"></path>
        <path d="M34.508,24.646 C33.469,24.147 32.694,23.335 32.199,22.401 C32.023,22.067 32.148,21.65 32.485,21.471 C32.822,21.291 33.237,21.419 33.416,21.756 C33.792,22.462 34.355,23.042 35.104,23.404 C35.445,23.568 35.589,23.983 35.427,24.322 C35.308,24.569 35.062,24.715 34.806,24.715 C34.703,24.715 34.602,24.691 34.508,24.646" id="Fill-22" fill="#FFFFFF"></path>
        <path d="M31.526,20.006 C31.519,19.867 31.513,19.727 31.513,19.598 C31.483,17.206 33.002,14.706 35.986,14.367 C36.367,14.323 36.706,14.591 36.751,14.972 C36.795,15.347 36.525,15.691 36.146,15.734 C33.93,16.004 32.919,17.704 32.888,19.598 C32.888,19.702 32.892,19.803 32.9,19.902 C32.928,20.283 32.645,20.614 32.267,20.641 L32.214,20.643 C31.856,20.643 31.554,20.368 31.526,20.006" id="Fill-23" fill="#FFFFFF"></path>
        <path d="M54.665,17.739 L48.449,17.739 C48.202,17.739 48.002,17.539 48.002,17.292 L48.002,12.007 C48.002,11.76 48.202,11.56 48.449,11.56 L54.665,11.56 C54.912,11.56 55.112,11.76 55.112,12.007 L55.112,17.292 C55.112,17.539 54.912,17.739 54.665,17.739" id="Fill-24" fill="#1A1A19"></path>
        <path d="M53.677,16.88 L49.437,16.88 C49.19,16.88 48.99,16.68 48.99,16.433 L48.99,12.866 C48.99,12.619 49.19,12.419 49.437,12.419 L53.677,12.419 C53.924,12.419 54.124,12.619 54.124,12.866 L54.124,16.433 C54.124,16.68 53.924,16.88 53.677,16.88" id="Fill-25" fill="#FFFFFF"></path>
        <path d="M52.838,14.65 C52.838,15.357 52.265,15.931 51.557,15.931 C50.85,15.931 50.276,15.357 50.276,14.65 C50.276,13.941 50.85,13.368 51.557,13.368 C52.265,13.368 52.838,13.941 52.838,14.65" id="Fill-26" fill="#1A1A19"></path>
        <path d="M57.042,54.011 L7.64,54.011 C7.271,54.011 6.971,53.712 6.971,53.342 C6.971,52.972 7.271,52.673 7.64,52.673 L57.042,52.673 C57.412,52.673 57.712,52.972 57.712,53.342 C57.712,53.712 57.412,54.011 57.042,54.011" id="Fill-27" fill="#BE8BB2"></path>
    </g>
</svg>