<?xml version="1.0" encoding="UTF-8" standalone="no"?>
<svg width="73px" height="75px" viewBox="0 0 73 75" version="1.1" xmlns="http://www.w3.org/2000/svg" xmlns:xlink="http://www.w3.org/1999/xlink">
    <!-- Generator: Sketch 39.1 (31720) - http://www.bohemiancoding.com/sketch -->
    <title>Slice 1</title>
    <desc>Created with Sketch.</desc>
    <defs></defs>
    <g id="Page-1" stroke="none" stroke-width="1" fill="none" fill-rule="evenodd">
        <path d="M36.556,74.527 C36.39,74.527 36.224,74.525 36.058,74.523 C16.306,74.251 0.456,57.96 0.729,38.207 C0.943,22.548 11.596,8.591 26.633,4.265 C29.842,3.342 33.172,2.874 36.539,2.874 C36.707,2.874 36.875,2.876 37.043,2.878 C56.795,3.149 72.644,19.44 72.372,39.192 C72.157,54.852 61.504,68.811 46.467,73.136 C43.255,74.06 39.924,74.527 36.556,74.527" id="Fill-42" fill="#A0A19D"></path>
        <path d="M45.871,71.066 C42.501,72.036 38.999,72.502 35.462,72.453 C15.71,72.182 -0.139,55.89 0.133,36.137 C0.348,20.479 11,6.521 26.037,2.196 C29.407,1.226 32.909,0.759 36.448,0.808 C56.199,1.079 72.048,17.37 71.776,37.122 C71.561,52.783 60.909,66.741 45.871,71.066" id="Fill-43" fill="#FFFFFF"></path>
        <path d="M69.386,37.089 C69.132,55.551 53.959,70.316 35.495,70.062 C17.032,69.809 2.27,54.632 2.524,36.17 C2.777,17.707 17.951,2.945 36.414,3.199 C54.878,3.453 69.639,18.626 69.386,37.089" id="Fill-44" fill="#1A1A19"></path>
        <path d="M34.795,67.891 C22.551,67.376 15.424,59.613 15.563,59.885 C15.518,59.708 23.394,65.889 34.869,66.283 C46.33,66.95 54.75,61.53 54.683,61.696 C54.853,61.448 47.03,68.509 34.795,67.891" id="Fill-45" fill="#FFFEFD"></path>
        <path d="M34.875,63.938 C24.453,63.518 18.285,57.049 18.402,57.271 C18.368,57.129 25.18,62.188 34.936,62.507 C44.684,63.066 51.925,58.645 51.876,58.776 C52.016,58.574 45.284,64.453 34.875,63.938" id="Fill-46" fill="#FFFEFD"></path>
        <path d="M34.946,59.988 C26.352,59.656 21.148,54.482 21.241,54.654 C21.22,54.546 26.96,58.484 35.001,58.733 C43.033,59.101 49.07,55.723 49.068,55.854 C49.146,55.664 43.536,60.323 34.946,59.988" id="Fill-47" fill="#FFFEFD"></path>
        <path d="M35.029,56.017 C28.253,55.757 24.039,51.888 24.08,52.04 C24.096,51.933 28.738,54.741 35.073,54.938 C41.396,55.255 46.257,52.832 46.261,52.936 C46.32,52.789 41.793,56.305 35.029,56.017" id="Fill-48" fill="#FFFEFD"></path>
        <path d="M35.106,52.072 C30.144,51.909 26.891,49.331 26.919,49.422 C26.934,49.36 30.492,51.045 35.137,51.172 C39.773,51.38 43.448,49.955 43.455,50.018 C43.494,49.927 40.056,52.265 35.106,52.072" id="Fill-49" fill="#FFFEFD"></path>
        <path d="M37.065,5.468 C49.308,5.982 56.436,13.741 56.298,13.47 C56.343,13.647 48.463,7.467 36.99,7.075 C25.529,6.404 17.11,11.825 17.175,11.662 C17.006,11.912 24.829,4.848 37.065,5.468" id="Fill-50" fill="#FFFEFD"></path>
        <path d="M36.985,9.416 C47.405,9.84 53.573,16.307 53.458,16.086 C53.492,16.228 46.678,11.169 36.923,10.847 C27.177,10.292 19.932,14.712 19.983,14.58 C19.843,14.783 26.573,8.902 36.985,9.416" id="Fill-51" fill="#FFFEFD"></path>
        <path d="M36.911,13.368 C45.506,13.701 50.711,18.874 50.617,18.703 C50.64,18.81 44.9,14.874 36.858,14.622 C28.827,14.255 22.791,17.634 22.79,17.499 C22.713,17.691 28.324,13.033 36.911,13.368" id="Fill-52" fill="#FFFEFD"></path>
        <path d="M36.829,17.339 C43.606,17.596 47.821,21.469 47.78,21.317 C47.763,21.421 43.122,18.616 36.784,18.417 C30.464,18.102 25.6,20.526 25.597,20.419 C25.537,20.564 30.064,17.048 36.829,17.339" id="Fill-53" fill="#FFFEFD"></path>
        <path d="M36.756,21.282 C41.714,21.448 44.968,24.026 44.938,23.934 C44.925,23.997 41.367,22.31 36.723,22.182 C32.086,21.976 28.41,23.402 28.403,23.339 C28.364,23.429 31.803,21.091 36.756,21.282" id="Fill-54" fill="#FFFEFD"></path>
        <path d="M48.84,36.807 C48.742,43.925 42.894,49.614 35.777,49.516 C28.662,49.418 22.969,43.571 23.067,36.453 C23.165,29.335 29.016,23.643 36.132,23.741 C43.248,23.839 48.938,29.689 48.84,36.807" id="Fill-55" fill="#BE8BB2"></path>
        <path d="M45.725,36.764 C45.651,42.161 41.218,46.475 35.82,46.401 C30.424,46.326 26.11,41.892 26.184,36.496 C26.259,31.099 30.692,26.785 36.089,26.859 C41.486,26.933 45.8,31.367 45.725,36.764" id="Fill-56" fill="#FFFFFF"></path>
        <path d="M38.108,36.66 C38.092,37.849 37.115,38.8 35.925,38.784 C34.737,38.768 33.784,37.79 33.801,36.6 C33.817,35.411 34.797,34.458 35.984,34.474 C37.174,34.491 38.125,35.47 38.108,36.66" id="Fill-57" fill="#1A1A19"></path>
    </g>
</svg>