<?xml version="1.0" encoding="UTF-8" standalone="no"?>
<svg width="52px" height="53px" viewBox="0 0 52 53" version="1.1" xmlns="http://www.w3.org/2000/svg" xmlns:xlink="http://www.w3.org/1999/xlink">
    <!-- Generator: Sketch 39.1 (31720) - http://www.bohemiancoding.com/sketch -->
    <title>Slice 1</title>
    <desc>Created with Sketch.</desc>
    <defs></defs>
    <g id="Page-1" stroke="none" stroke-width="1" fill="none" fill-rule="evenodd">
        <path d="M45.511,52.587 L6.913,52.587 C3.72,52.587 1.122,49.989 1.122,46.795 L1.122,10.764 C1.122,7.571 3.72,4.973 6.913,4.973 L18.471,4.973 C18.808,3.225 20.349,1.901 22.193,1.901 L30.836,1.901 C32.68,1.901 34.221,3.225 34.558,4.973 L45.511,4.973 C48.704,4.973 51.303,7.571 51.303,10.764 L51.303,46.795 C51.303,49.989 48.704,52.587 45.511,52.587" id="Fill-205" fill="#A0A19D"></path>
        <path d="M6.096,51.43 C2.903,51.43 0.305,48.832 0.305,45.639 L0.305,9.608 C0.305,6.414 2.903,3.816 6.096,3.816 L17.654,3.816 C17.991,2.069 19.532,0.745 21.376,0.745 L30.019,0.745 C31.863,0.745 33.404,2.069 33.742,3.816 L44.695,3.816 C47.888,3.816 50.486,6.414 50.486,9.608 L50.486,45.639 C50.486,48.832 47.888,51.43 44.695,51.43 L6.096,51.43" id="Fill-206" fill="#FFFFFF"></path>
        <path d="M2.696,45.639 C2.696,47.516 4.218,49.039 6.096,49.039 L44.695,49.039 C46.572,49.039 48.095,47.516 48.095,45.639 L48.095,12.682 L2.696,12.682 L2.696,45.639" id="Fill-207" fill="#60C1C8"></path>
        <path d="M5.478,26.489 L5.478,15.717 C5.478,15.333 5.167,15.021 4.783,15.021 C4.398,15.021 4.087,15.333 4.087,15.717 L4.087,26.489 C4.087,26.873 4.398,27.184 4.783,27.184 C5.167,27.184 5.478,26.873 5.478,26.489" id="Fill-208" fill="#FFFFFF"></path>
        <path d="M5.478,31.466 L5.478,30.861 C5.478,30.476 5.167,30.165 4.783,30.165 C4.398,30.165 4.087,30.476 4.087,30.861 L4.087,31.466 C4.087,31.85 4.398,32.162 4.783,32.162 C5.167,32.162 5.478,31.85 5.478,31.466" id="Fill-209" fill="#FFFFFF"></path>
        <path d="M39.426,30.785 C39.426,38.534 33.144,44.816 25.395,44.816 C17.646,44.816 11.365,38.534 11.365,30.785 C11.365,23.036 17.646,16.754 25.395,16.754 C33.144,16.754 39.426,23.036 39.426,30.785" id="Fill-210" fill="#FFFFFF"></path>
        <path d="M35.357,30.785 C35.357,36.287 30.897,40.746 25.395,40.746 C19.894,40.746 15.434,36.287 15.434,30.785 C15.434,25.284 19.894,20.824 25.395,20.824 C30.897,20.824 35.357,25.284 35.357,30.785" id="Fill-211" fill="#302F2D"></path>
        <path d="M18.216,30.785 C18.215,27.952 19.867,25.496 22.258,24.328 C22.604,24.16 22.747,23.743 22.578,23.398 C22.41,23.053 21.994,22.909 21.648,23.078 C18.796,24.469 16.826,27.401 16.825,30.785 C16.825,31.169 17.136,31.481 17.521,31.481 C17.905,31.481 18.216,31.169 18.216,30.785" id="Fill-212" fill="#FFFFFF"></path>
        <path d="M19.191,34.394 C19.013,34.089 18.857,33.77 18.725,33.44 C18.582,33.083 18.177,32.909 17.821,33.052 C17.464,33.194 17.29,33.599 17.433,33.956 C17.591,34.351 17.777,34.732 17.99,35.096 C18.183,35.427 18.609,35.539 18.941,35.345 C19.273,35.152 19.385,34.726 19.191,34.394" id="Fill-213" fill="#FFFFFF"></path>
        <path d="M48.095,9.608 C48.095,7.73 46.573,6.207 44.695,6.207 L30.185,6.207 L30.185,12.799 L48.095,12.799 L48.095,9.608" id="Fill-214" fill="#302F2D"></path>
        <path d="M6.096,6.207 C4.218,6.207 2.696,7.73 2.696,9.608 L2.696,12.799 L20.814,12.799 L20.814,6.207 L6.096,6.207" id="Fill-215" fill="#302F2D"></path>
        <path d="M5.478,9.608 C5.479,9.269 5.758,8.99 6.096,8.99 L13.886,8.99 C14.27,8.99 14.581,8.678 14.581,8.294 C14.581,7.91 14.27,7.599 13.886,7.599 L6.096,7.599 C4.987,7.6 4.089,8.498 4.087,9.608 C4.087,9.992 4.398,10.303 4.783,10.303 C5.167,10.303 5.478,9.992 5.478,9.608" id="Fill-216" fill="#FFFFFF"></path>
        <path d="M30.019,14.577 L21.377,14.577 C20.604,14.577 19.977,13.951 19.977,13.178 L19.977,4.535 C19.977,3.762 20.604,3.136 21.377,3.136 L30.019,3.136 C30.792,3.136 31.419,3.762 31.419,4.535 L31.419,13.178 C31.419,13.951 30.792,14.577 30.019,14.577" id="Fill-217" fill="#302F2D"></path>
        <path d="M28.087,12.01 L23.309,12.01 C22.887,12.01 22.545,11.668 22.545,11.245 L22.545,6.468 C22.545,6.045 22.887,5.703 23.309,5.703 L28.087,5.703 C28.509,5.703 28.851,6.045 28.851,6.468 L28.851,11.245 C28.851,11.668 28.509,12.01 28.087,12.01" id="Fill-218" fill="#FFFFFF"></path>
    </g>
</svg>