<?xml version="1.0" encoding="UTF-8" standalone="no"?>
<svg width="66px" height="67px" viewBox="0 0 66 67" version="1.1" xmlns="http://www.w3.org/2000/svg" xmlns:xlink="http://www.w3.org/1999/xlink">
    <!-- Generator: Sketch 39.1 (31720) - http://www.bohemiancoding.com/sketch -->
    <title>Slice 1</title>
    <desc>Created with Sketch.</desc>
    <defs></defs>
    <g id="Page-1" stroke="none" stroke-width="1" fill="none" fill-rule="evenodd">
        <path d="M33.372,66.109 L33.372,66.109 C20.427,66.108 8.778,58.413 3.696,46.503 C0.316,38.579 0.223,29.813 3.437,21.82 C6.65,13.826 12.785,7.565 20.709,4.187 C22.933,3.243 25.215,2.551 27.493,2.13 L30.002,1.667 L30.302,4.2 C30.313,4.294 30.348,4.412 30.407,4.553 C30.617,5.043 31.117,5.376 31.67,5.376 L31.671,5.376 L31.918,5.353 C32.091,5.32 32.268,5.305 32.441,5.305 C33.203,5.305 33.943,5.618 34.473,6.162 C35.002,6.706 35.293,7.452 35.272,8.21 C35.261,8.592 35.305,8.962 35.403,9.312 C35.453,9.489 35.507,9.646 35.564,9.775 C36.163,11.182 37.52,12.078 39.028,12.078 C39.533,12.078 40.029,11.976 40.5,11.775 C41.171,11.487 41.744,11.045 42.108,10.533 L43.068,9.177 L44.674,9.605 L44.761,9.594 L46.058,9.486 L46.53,10.097 L46.587,10.098 C46.867,10.098 47.143,10.041 47.41,9.927 C47.995,9.679 48.305,9.267 48.463,8.963 C48.953,8.028 49.915,7.446 50.975,7.446 C51.592,7.446 52.179,7.641 52.672,8.009 C57.213,11.397 60.795,15.957 63.031,21.198 C70.002,37.557 62.366,56.539 46.011,63.514 C41.976,65.235 37.724,66.109 33.372,66.109" id="Fill-247" fill="#A0A19D"></path>
        <path d="M32.339,64.777 C19.394,64.776 7.746,57.081 2.664,45.171 C-0.717,37.247 -0.809,28.481 2.405,20.488 C5.618,12.494 11.753,6.233 19.677,2.855 C21.901,1.911 24.182,1.219 26.461,0.798 L28.97,0.335 L29.27,2.868 C29.281,2.962 29.316,3.08 29.374,3.221 C29.584,3.711 30.086,4.044 30.639,4.044 L30.886,4.021 C31.059,3.988 31.236,3.973 31.409,3.973 C32.17,3.973 32.911,4.286 33.441,4.831 C33.969,5.374 34.26,6.12 34.239,6.878 C34.228,7.26 34.273,7.631 34.371,7.98 C34.421,8.158 34.474,8.314 34.531,8.443 C35.131,9.85 36.487,10.746 37.996,10.746 C38.501,10.746 38.997,10.644 39.468,10.443 C40.139,10.155 40.712,9.713 41.075,9.201 L42.036,7.845 L43.642,8.273 L43.729,8.262 L45.026,8.154 L45.498,8.766 L45.554,8.766 C45.835,8.766 46.111,8.709 46.378,8.595 C46.962,8.347 47.273,7.935 47.431,7.631 C47.921,6.696 48.883,6.114 49.943,6.114 C50.56,6.114 51.146,6.309 51.64,6.677 C56.18,10.065 59.763,14.625 61.999,19.866 C68.97,36.225 61.333,55.207 44.978,62.182 C40.944,63.903 36.691,64.777 32.34,64.777 L32.339,64.777" id="Fill-248" fill="#FFFFFF"></path>
        <path d="M59.799,20.805 C57.653,15.775 54.297,11.642 50.211,8.594 C49.994,8.432 49.676,8.499 49.55,8.739 C49.084,9.631 48.316,10.372 47.316,10.794 C46.272,11.24 45.156,11.264 44.152,10.929 C44.075,10.836 44.002,10.74 43.928,10.645 C43.602,10.672 43.333,10.665 43.026,10.583 C42.401,11.465 41.478,12.182 40.406,12.643 C37.281,13.974 33.67,12.524 32.339,9.399 C32.228,9.144 32.14,8.881 32.068,8.626 C31.9,8.027 31.832,7.414 31.849,6.812 C31.856,6.531 31.601,6.32 31.325,6.372 C29.623,6.689 27.876,5.794 27.166,4.138 C27.031,3.811 26.935,3.485 26.895,3.15 C24.783,3.54 22.678,4.178 20.614,5.055 C5.445,11.519 -1.609,29.063 4.863,44.232 C11.336,59.401 28.872,66.455 44.041,59.982 C59.217,53.51 66.263,35.974 59.799,20.805" id="Fill-249" fill="#E87C2B"></path>
        <path d="M58.882,35.966 C58.029,38.349 56.435,40.175 55.295,42.375 C54.339,44.24 54.108,46.472 53.167,48.393 C51.007,52.817 46.631,56.722 41.665,57.503 C38.548,57.99 35.129,57.169 31.957,57.416 C30.307,57.551 28.92,58.611 27.238,58.795 C25.038,59.042 23.93,57.288 22.423,56.109 C21.244,55.192 19.737,54.546 18.35,53.988 C15.545,52.84 12.093,51.844 12.005,48.209 C11.974,46.894 12.149,45.523 11.71,44.28 C11.288,43.1 10.355,42.175 9.399,41.362 C8.442,40.549 7.422,39.784 6.705,38.748 C3.182,33.686 9,28.641 10.116,23.962 C10.587,21.993 10.363,19.929 10.682,17.928 C11.312,14.03 14.285,10.682 17.952,9.295 C22.113,7.725 24.711,11.057 28.768,9.957 C29.916,9.646 30.992,9.144 32.068,8.626 C32.14,8.881 32.228,9.144 32.339,9.399 C33.67,12.524 37.281,13.974 40.406,12.643 C41.097,12.346 41.735,11.926 42.275,11.401 C42.535,11.148 42.772,10.872 42.982,10.576 C43.113,10.391 43.252,10.139 43.51,10.215 C43.78,10.295 43.986,10.729 44.152,10.929 C44.296,11.105 44.447,11.264 44.606,11.424 C46.344,13.089 48.982,13.408 50.967,14.771 C52.705,15.959 52.657,16.684 52.801,18.502 C52.944,20.223 53.948,21.786 55.024,23.085 C56.364,24.687 57.958,26.138 58.85,28.035 C59.998,30.49 59.791,33.407 58.882,35.966" id="Fill-250" fill="#6BBE9C"></path>
        <path d="M42.916,28.002 C45.41,33.848 42.691,40.61 36.844,43.104 C30.998,45.598 24.236,42.88 21.742,37.033 C19.248,31.186 21.966,24.424 27.813,21.93 C33.66,19.436 40.422,22.155 42.916,28.002" id="Fill-251" fill="#46B388"></path>
        <path d="M40.166,29.174 C42.012,33.503 40,38.508 35.672,40.354 C31.343,42.2 26.338,40.188 24.492,35.86 C22.646,31.532 24.658,26.526 28.986,24.68 C33.314,22.834 38.32,24.846 40.166,29.174" id="Fill-252" fill="#FFFFFF"></path>
        <path d="M16.817,25.831 L16.817,25.831 C16.321,25.999 15.783,25.734 15.614,25.238 L14.172,21.534 C14.003,21.038 14.269,20.5 14.765,20.331 C15.261,20.162 15.799,20.427 15.968,20.923 L17.41,24.627 C17.579,25.123 17.313,25.662 16.817,25.831" id="Fill-253" fill="#E9CD27"></path>
        <path d="M32.127,52.664 L32.127,52.664 C31.631,52.833 31.092,52.568 30.923,52.072 L29.481,48.368 C29.312,47.872 29.578,47.333 30.074,47.165 C30.57,46.996 31.108,47.261 31.277,47.757 L32.719,51.461 C32.888,51.957 32.622,52.496 32.127,52.664" id="Fill-254" fill="#E9CD27"></path>
        <path d="M43.797,20.195 L43.797,20.195 C43.361,19.905 43.241,19.317 43.531,18.88 L45.581,15.475 C45.871,15.039 46.459,14.919 46.896,15.209 C47.333,15.498 47.452,16.087 47.163,16.524 L45.112,19.928 C44.823,20.365 44.234,20.484 43.797,20.195" id="Fill-255" fill="#E9CD27"></path>
        <path d="M11.849,35.524 L11.849,35.524 C11.413,35.234 11.294,34.646 11.583,34.209 L13.634,30.804 C13.923,30.368 14.512,30.248 14.948,30.538 C15.385,30.827 15.504,31.416 15.215,31.853 L13.164,35.257 C12.875,35.694 12.286,35.813 11.849,35.524" id="Fill-256" fill="#FFFFFF"></path>
        <path d="M37.295,18.607 L37.295,18.607 C36.895,18.945 36.296,18.895 35.958,18.495 L33.263,15.573 C32.925,15.173 32.975,14.575 33.376,14.236 C33.776,13.898 34.374,13.949 34.712,14.349 L37.407,17.27 C37.745,17.67 37.695,18.269 37.295,18.607" id="Fill-257" fill="#3973AC"></path>
        <path d="M23.317,50.423 L23.317,50.423 C22.99,50.833 22.393,50.9 21.984,50.574 L18.772,48.233 C18.362,47.906 18.295,47.31 18.621,46.9 C18.948,46.49 19.545,46.423 19.954,46.75 L23.166,49.09 C23.576,49.417 23.643,50.014 23.317,50.423" id="Fill-258" fill="#3973AC"></path>
        <path d="M48.827,29.932 L48.827,29.932 C48.33,29.766 48.062,29.228 48.229,28.731 L49.326,24.911 C49.492,24.415 50.03,24.147 50.526,24.313 C51.023,24.479 51.291,25.017 51.125,25.514 L50.028,29.334 C49.861,29.83 49.324,30.098 48.827,29.932" id="Fill-259" fill="#BE8BB2"></path>
        <path d="M43.282,51.486 L43.282,51.486 C42.761,51.43 42.385,50.962 42.441,50.441 L42.696,46.475 C42.753,45.954 43.221,45.577 43.741,45.634 C44.262,45.69 44.639,46.158 44.583,46.679 L44.327,50.645 C44.271,51.166 43.803,51.542 43.282,51.486" id="Fill-260" fill="#FFFFFF"></path>
        <path d="M47.927,37.387 L47.927,37.387 C47.896,36.864 48.295,36.415 48.818,36.385 L52.772,35.981 C53.295,35.95 53.744,36.35 53.775,36.873 C53.805,37.396 53.406,37.844 52.883,37.875 L48.929,38.279 C48.406,38.309 47.957,37.91 47.927,37.387" id="Fill-261" fill="#4A8ABD"></path>
        <path d="M26.465,16.912 L26.465,16.912 C26.218,17.373 25.643,17.547 25.181,17.3 L21.6,15.576 C21.138,15.329 20.964,14.754 21.212,14.292 C21.459,13.83 22.034,13.656 22.496,13.904 L26.077,15.627 C26.539,15.875 26.712,16.45 26.465,16.912" id="Fill-262" fill="#DC326D"></path>
        <path d="M20.017,41.472 L20.017,41.472 C20.04,41.995 19.634,42.437 19.11,42.46 L15.151,42.803 C14.627,42.825 14.185,42.419 14.162,41.896 C14.14,41.372 14.546,40.93 15.069,40.907 L19.029,40.565 C19.552,40.542 19.995,40.948 20.017,41.472" id="Fill-263" fill="#DC326D"></path>
    </g>
</svg>