<?xml version="1.0" encoding="UTF-8" standalone="no"?>
<svg width="56px" height="59px" viewBox="0 0 56 59" version="1.1" xmlns="http://www.w3.org/2000/svg" xmlns:xlink="http://www.w3.org/1999/xlink">
    <!-- Generator: Sketch 39.1 (31720) - http://www.bohemiancoding.com/sketch -->
    <title>Slice 1</title>
    <desc>Created with Sketch.</desc>
    <defs></defs>
    <g id="Page-1" stroke="none" stroke-width="1" fill="none" fill-rule="evenodd">
        <path d="M21.811,58.077 C21.397,58.077 20.984,58.06 20.573,58.025 C18.843,57.876 17.152,57.522 15.541,56.972 C7.059,54.072 1.209,46.002 0.64,36.413 C0.344,31.425 0.601,19.387 9.368,15.335 C11.352,14.416 13.644,13.923 16.035,13.86 C15.645,13.419 15.384,12.869 15.294,12.266 C15.138,11.221 15.519,10.181 16.315,9.484 C17.272,8.647 18.358,7.813 19.543,7.007 C20.155,6.592 20.878,6.377 21.606,6.377 C22.005,6.377 22.406,6.442 22.791,6.573 C23.338,6.76 23.84,7.078 24.244,7.492 C24.725,7.986 25.207,8.524 25.682,9.098 C28.414,4.524 34.039,2.862 36.345,2.359 C36.565,2.311 36.787,2.287 37.01,2.287 C37.35,2.287 37.688,2.343 38.012,2.454 C38.943,2.772 39.674,3.523 39.969,4.464 C40.517,6.23 41.452,10.108 40.577,13.931 C42,14.056 43.366,14.336 44.628,14.768 C45.115,14.934 45.593,15.126 46.047,15.336 C54.816,19.389 55.073,31.426 54.776,36.413 C54.088,48.003 45.708,57.092 34.85,58.025 C34.442,58.059 34.029,58.076 33.613,58.076 C31.946,58.076 30.247,57.802 28.719,57.28 C28.368,57.16 28.025,57.026 27.692,56.881 C25.898,57.662 23.85,58.077 21.811,58.077" id="Fill-276" fill="#A0A19D"></path>
        <path d="M16.126,55.261 C7.643,52.361 1.794,44.291 1.225,34.702 C0.929,29.715 1.186,17.677 9.953,13.624 C11.937,12.705 14.229,12.212 16.62,12.149 C16.23,11.708 15.969,11.158 15.879,10.555 C15.723,9.51 16.104,8.47 16.9,7.773 C17.856,6.936 18.943,6.102 20.128,5.296 C21.075,4.653 22.29,4.491 23.376,4.863 C23.923,5.049 24.424,5.367 24.829,5.781 C25.31,6.275 25.792,6.813 26.267,7.387 C28.999,2.813 34.624,1.151 36.93,0.648 C37.486,0.527 38.061,0.56 38.597,0.743 C39.528,1.061 40.259,1.813 40.553,2.753 C41.102,4.519 42.037,8.397 41.162,12.22 C42.584,12.345 43.95,12.625 45.213,13.057 C45.7,13.224 46.178,13.415 46.632,13.626 C55.401,17.679 55.658,29.715 55.361,34.702 C54.673,46.292 46.293,55.381 35.435,56.314 C33.389,56.486 31.213,56.222 29.304,55.569 C28.953,55.449 28.61,55.316 28.276,55.17 C26.119,56.109 23.593,56.52 21.158,56.314 C19.428,56.166 17.736,55.812 16.126,55.261" id="Fill-277" fill="#FFFFFF"></path>
        <path d="M28.273,8.694 C26.006,12.588 27.293,17.742 27.835,19.486 C27.946,19.84 28.304,20.048 28.666,19.969 C30.45,19.58 35.567,18.153 37.834,14.259 C40.1,10.365 38.813,5.211 38.271,3.468 C38.161,3.114 37.802,2.905 37.44,2.984 C35.657,3.374 30.539,4.8 28.273,8.694" id="Fill-278" fill="#35AC56"></path>
        <path d="M18.475,9.571 C19.405,8.757 20.436,7.978 21.472,7.275 C21.989,6.924 22.681,7.004 23.116,7.451 C25.722,10.124 28.325,14.163 29.935,18.285 C31.029,21.086 31.666,23.926 31.526,26.402 L29.935,27.196 L29.432,27.448 C29.949,20.333 24.983,13.587 18.659,10.746 C18.188,10.534 18.086,9.912 18.475,9.571" id="Fill-279" fill="#0A0A08"></path>
        <path d="M3.612,34.56 C4.192,44.315 11.135,53.054 21.359,53.932 C23.6,54.121 26.138,53.691 28.182,52.556 L28.288,52.507 C30.359,53.685 32.95,54.123 35.23,53.932 C45.452,53.053 52.395,44.315 52.974,34.56 C53.365,27.995 52.295,18.877 45.627,15.795 C40.451,13.396 32.923,14.506 28.288,18.33 L28.182,18.25 C23.549,14.494 16.097,13.413 10.957,15.795 C4.288,18.877 3.222,27.995 3.612,34.56" id="Fill-280" fill="#DC326D"></path>
        <path d="M7.053,34.356 C7.017,33.755 6.989,33.023 6.989,32.206 C6.988,29.988 7.2,27.141 8,24.623 C8.399,23.364 8.944,22.19 9.665,21.21 C10.387,20.23 11.278,19.444 12.403,18.923 C12.763,18.757 12.92,18.33 12.754,17.97 C12.587,17.61 12.161,17.453 11.801,17.619 C10.431,18.251 9.346,19.218 8.508,20.359 C7.249,22.074 6.522,24.175 6.097,26.273 C5.673,28.372 5.553,30.475 5.553,32.206 C5.553,33.056 5.582,33.816 5.619,34.441 C5.643,34.837 5.983,35.139 6.379,35.115 C6.775,35.092 7.077,34.752 7.053,34.356" id="Fill-281" fill="#FFFFFF"></path>
        <path d="M9.794,43.033 C9.186,42.046 8.673,41.001 8.262,39.923 C8.12,39.552 7.705,39.367 7.335,39.508 C6.964,39.65 6.779,40.065 6.92,40.435 C7.363,41.595 7.914,42.721 8.572,43.787 C8.78,44.125 9.222,44.23 9.56,44.022 C9.898,43.813 10.003,43.371 9.794,43.033" id="Fill-282" fill="#FFFFFF"></path>
    </g>
</svg>