<?xml version="1.0" encoding="UTF-8" standalone="no"?>
<svg width="70px" height="47px" viewBox="0 0 70 47" version="1.1" xmlns="http://www.w3.org/2000/svg" xmlns:xlink="http://www.w3.org/1999/xlink">
    <!-- Generator: Sketch 39.1 (31720) - http://www.bohemiancoding.com/sketch -->
    <title>Slice 1</title>
    <desc>Created with Sketch.</desc>
    <defs></defs>
    <g id="Page-1" stroke="none" stroke-width="1" fill="none" fill-rule="evenodd">
        <path d="M19.383,25.615 L15.015,25.611 C14.907,25.611 14.814,25.656 14.734,25.742 L13.101,27.626 L13.793,28.346 C12.706,31.622 11.891,34.211 11.356,36.089 L11.254,36.089 L7.874,25.861 C7.77,25.689 7.548,25.603 7.206,25.603 L2.787,25.598 C2.571,25.598 2.479,25.731 2.479,25.731 L0.858,27.602 L3.276,28.101 C3.473,28.694 3.621,29.14 3.708,29.401 C4.97,33.171 6.097,36.648 7.088,39.835 C7.6,41.479 7.975,42.731 8.215,43.587 C8.467,44.127 8.905,44.42 9.511,44.49 C9.699,44.476 10.542,44.469 11.998,44.466 L12.39,46.259 L14.073,44.32 L14.066,44.311 C14.126,44.244 14.183,44.169 14.225,44.055 L17.216,34.656 C18.968,29.144 19.844,26.267 19.845,26.027 C19.845,25.754 19.691,25.616 19.383,25.615" id="Fill-434" fill="#6BBE9C"></path>
        <path d="M9.652,44.513 L9.511,44.49 C9.425,44.497 9.47,44.505 9.652,44.513" id="Fill-435" fill="#6BBE9C"></path>
        <path d="M26.01,25.571 L22.259,25.618 C21.99,25.618 21.818,25.707 21.725,25.868 L21.722,25.851 L20.105,27.703 L21.332,28.321 L21.64,28.187 L21.628,39.85 C21.626,41.22 21.642,42.368 21.676,43.292 C21.676,43.43 21.657,43.738 21.623,44.217 C21.691,44.423 21.948,44.526 22.394,44.527 L24.762,44.499 L24.97,46.287 L26.544,44.449 L26.513,44.441 C26.767,44.336 26.856,43.814 26.762,42.835 L26.831,25.881 C26.832,25.675 26.557,25.571 26.01,25.571" id="Fill-436" fill="#6BBE9C"></path>
        <path d="M35.97,32.62 C35.627,32.587 35.199,32.568 34.685,32.567 C34.48,32.567 34.377,32.38 34.377,32.003 C34.378,31.283 34.447,30.881 34.584,30.795 C34.721,30.71 35.183,30.667 35.972,30.668 C36.656,30.669 36.999,30.977 36.998,31.594 C36.998,32.28 36.654,32.621 35.97,32.62 L35.97,32.62 Z M36.991,39.044 C36.99,39.557 36.766,39.815 36.322,39.814 L35.088,39.813 C34.575,39.812 34.318,39.658 34.319,39.35 C34.32,38.151 34.475,37.552 34.783,37.552 L36.273,37.554 C36.752,37.656 36.992,37.999 36.991,38.582 L36.991,39.044 L36.991,39.044 Z M40.642,35.297 C41.567,34.922 42.013,34.065 41.981,32.73 L41.933,29.544 C41.9,28.208 41.695,27.266 41.32,26.717 C40.807,25.997 39.916,25.637 38.649,25.636 L29.811,25.626 C29.595,25.626 29.448,25.715 29.356,25.873 L29.352,25.859 L27.764,27.679 L28.961,28.572 L29.243,28.433 L29.227,44.123 C29.227,44.294 29.294,44.431 29.432,44.534 L38.747,44.544 L39.375,45.596 L41.046,43.672 L41.037,43.669 L41.122,43.595 C41.721,42.962 42.023,42.218 42.024,41.361 L42.027,38.433 C41.958,37.029 41.669,36.121 41.156,35.709 L40.642,35.297 L40.642,35.297 Z" id="Fill-437" fill="#6BBE9C"></path>
        <path d="M54.818,39.731 L49.835,39.777 C49.663,39.708 49.526,39.64 49.423,39.57 L49.477,37.721 L49.734,37.516 L51.838,37.518 L51.594,38.171 L53.322,39.145 L54.862,37.365 L54.861,37.364 C55.005,37.262 55.077,37.109 55.078,36.905 L55.08,34.182 C55.082,33.121 54.996,32.589 54.826,32.588 L49.739,32.583 C49.533,32.583 49.431,32.463 49.431,32.223 L49.433,30.784 L49.793,30.528 L52.431,30.561 L52.326,31.482 L53.267,32.422 L54.879,30.534 C54.982,30.5 55.034,30.38 55.034,30.174 C55.001,27.537 54.987,26.081 54.987,25.807 C54.679,25.67 54.164,25.6 53.445,25.599 L44.762,25.642 L44.631,25.709 L44.619,25.707 L44.606,25.721 L44.604,25.724 L42.989,27.601 L44.4,28.29 L44.383,44.087 C44.452,44.361 44.657,44.498 45,44.499 L51.93,44.506 L53.266,46.416 L54.876,44.533 C55.038,44.47 55.122,44.091 55.122,43.379 C55.125,40.947 55.024,39.731 54.818,39.731" id="Fill-438" fill="#6BBE9C"></path>
        <path d="M69.363,34.402 C68.988,33.135 68.15,32.5 66.848,32.499 L62.943,32.495 C62.292,32.494 61.968,32.168 61.968,31.517 C61.969,30.935 62.191,30.644 62.637,30.644 C64.378,30.671 65.751,30.692 66.771,30.709 L67.868,32.469 L69.489,30.606 L69.487,30.603 L69.573,30.447 L69.526,25.976 C69.526,25.873 69.441,25.788 69.27,25.719 L60.69,25.659 C59.445,25.657 58.561,26.04 58.011,26.778 L58.005,26.756 L56.191,28.891 L56.919,30.423 L57.345,30.319 L57.341,34.339 C57.339,35.914 57.988,36.874 59.291,37.218 C59.667,37.321 60.986,37.374 63.246,37.376 C64,37.377 64.376,37.703 64.376,38.353 L64.375,38.662 C64.375,39.244 64.152,39.535 63.707,39.535 C60.418,39.497 58.431,39.477 57.747,39.477 C57.543,39.477 57.413,39.526 57.344,39.615 L57.313,39.652 L55.622,41.632 L57.281,43.051 L57.28,44.049 C57.313,44.392 57.553,44.563 57.999,44.564 L65.551,44.572 L65.642,44.568 L65.902,45.351 L67.377,45.175 L68.708,43.642 L68.697,43.639 C68.985,43.373 69.21,43.056 69.355,42.674 C69.527,42.23 69.614,40.637 69.617,37.896 C69.619,36.15 69.534,34.986 69.363,34.402" id="Fill-439" fill="#6BBE9C"></path>
        <path d="M19.734,8.508 L15.469,8.503 C15.313,8.582 15.235,8.66 15.197,8.738 L15.183,8.729 L13.489,10.736 L15.157,11.988 L15.154,14.617 C15.154,14.789 15,14.874 14.692,14.874 C13.287,14.873 12.586,14.701 12.586,14.358 L12.594,6.922 L18.065,7.658 L19.855,5.644 L19.868,5.629 L19.864,5.627 C19.914,5.529 19.943,5.365 19.943,5.117 L19.894,2.445 C19.861,1.487 19.758,0.973 19.588,0.904 L11.316,0.844 C9.693,0.842 8.64,1.272 8.131,2.111 L8.113,2.107 L6.611,3.792 L7.766,4.695 L7.755,15.843 C7.754,17.008 8.094,17.95 8.779,18.67 C9.463,19.39 10.371,19.751 11.501,19.752 L19.722,19.709 C19.893,19.709 19.98,18.443 19.982,15.907 L19.99,8.765 C19.99,8.594 19.905,8.508 19.734,8.508" id="Fill-440" fill="#6BBE9C"></path>
        <path d="M27.907,5.691 L28.728,5.691 C29.345,5.692 29.653,5.933 29.653,6.412 L29.645,13.862 C29.644,14.307 29.438,14.564 29.027,14.632 L27.846,14.631 C27.366,14.63 27.127,14.373 27.127,13.86 L27.083,6.512 C27.084,5.964 27.358,5.69 27.907,5.691 L27.907,5.691 Z M22.247,13.032 C22.246,13.751 22.245,14.351 22.245,14.83 L22.191,17.142 C22.156,17.965 22.583,18.616 23.473,19.096 C24.192,19.508 24.997,19.714 25.888,19.715 C26.264,19.716 27.395,19.734 29.279,19.771 C29.861,19.771 30.272,19.772 30.512,19.772 C30.733,19.772 30.941,19.761 31.144,19.746 L31.971,20.749 L33.736,18.725 L33.86,18.583 L33.961,18.466 L33.949,18.464 C34.094,18.27 34.222,18.061 34.316,17.823 C34.522,17.309 34.625,16.899 34.626,16.59 L34.639,3.591 C34.641,1.845 33.357,0.953 30.788,0.916 L25.548,0.859 C24.76,0.858 24.006,1.123 23.286,1.652 C23,1.863 22.787,2.097 22.615,2.342 L22.605,2.329 L20.8,4.465 L22.205,6.294 C22.208,9.08 22.222,11.329 22.247,13.032 L22.247,13.032 Z" id="Fill-441" fill="#6BBE9C"></path>
        <path d="M42.806,5.706 L43.628,5.707 C44.245,5.708 44.552,5.948 44.552,6.427 L44.544,13.878 C44.544,14.323 44.338,14.58 43.926,14.647 L42.745,14.646 C42.265,14.646 42.026,14.389 42.026,13.875 L41.982,6.528 C41.983,5.98 42.257,5.706 42.806,5.706 L42.806,5.706 Z M37.146,13.048 C37.145,13.767 37.145,14.367 37.144,14.846 L37.09,17.158 C37.055,17.98 37.483,18.631 38.373,19.112 C39.092,19.524 39.896,19.73 40.787,19.731 C41.163,19.731 42.294,19.75 44.178,19.786 C44.76,19.787 45.171,19.787 45.411,19.787 C45.637,19.788 45.85,19.777 46.057,19.761 L46.884,20.764 L48.776,18.576 L48.883,18.452 L48.871,18.45 C49.006,18.263 49.126,18.064 49.216,17.838 C49.422,17.325 49.525,16.914 49.525,16.605 L49.538,3.607 C49.54,1.86 48.257,0.968 45.687,0.931 L40.447,0.874 C39.659,0.873 38.905,1.139 38.185,1.668 C37.931,1.855 37.738,2.062 37.574,2.277 L37.565,2.263 L35.866,4.214 L37.104,6.266 C37.107,9.072 37.121,11.336 37.146,13.048 L37.146,13.048 Z" id="Fill-442" fill="#6BBE9C"></path>
        <path d="M56.883,6.029 C56.883,5.859 57.141,5.773 57.654,5.773 C58.75,5.774 59.299,6.015 59.298,6.494 L59.29,14.15 C59.289,14.698 59.065,14.972 58.621,14.972 L57.851,14.971 C57.131,14.97 56.805,14.885 56.874,14.712 L56.883,6.029 L56.883,6.029 Z M52,8.368 L51.988,19.177 C51.988,19.554 52.091,19.743 52.297,19.743 L54.721,19.746 L54.786,20.018 L60.779,21.35 L63.23,18.915 L63.241,18.906 L63.322,18.824 L63.576,18.571 L63.568,18.569 C64.014,18.066 64.289,17.471 64.373,16.775 L64.336,3.828 C64.337,3.005 64.089,2.312 63.593,1.746 C63.097,1.18 62.438,0.897 61.616,0.896 L52.624,0.835 C52.44,0.835 52.303,0.89 52.202,0.987 L52.198,0.976 L50.67,2.811 L52,8.368 L52,8.368 Z" id="Fill-443" fill="#6BBE9C"></path>
        <path d="M18.173,27.952 C18.173,28.192 17.296,31.068 15.544,36.581 L12.553,45.98 C12.451,46.254 12.297,46.391 12.091,46.39 C8.631,46.387 7.261,46.403 7.981,46.438 C7.295,46.403 6.816,46.094 6.543,45.511 C6.304,44.655 5.928,43.403 5.416,41.759 C4.426,38.572 3.299,35.095 2.036,31.326 C1.9,30.914 1.626,30.092 1.217,28.859 C1.114,28.55 0.978,28.174 0.807,27.728 C0.807,27.591 0.91,27.522 1.115,27.522 L5.534,27.527 C5.876,27.527 6.099,27.614 6.202,27.785 L9.582,38.013 L9.685,38.013 C10.337,35.719 11.403,32.381 12.881,27.998 C12.984,27.689 13.138,27.535 13.344,27.535 L17.711,27.54 C18.019,27.54 18.173,27.678 18.173,27.952" id="Fill-444" fill="#E996B7"></path>
        <path d="M25.16,27.805 L25.09,44.76 C25.193,45.822 25.089,46.371 24.781,46.404 L20.722,46.451 C20.276,46.451 20.019,46.347 19.951,46.141 C19.985,45.662 20.004,45.354 20.004,45.216 C19.97,44.292 19.954,43.144 19.956,41.775 L19.97,28.107 C19.971,27.731 20.176,27.542 20.588,27.543 L24.338,27.495 C24.886,27.496 25.16,27.599 25.16,27.805" id="Fill-445" fill="#E996B7"></path>
        <path d="M35.327,33.518 C35.327,32.901 34.984,32.593 34.3,32.592 C33.511,32.592 33.049,32.635 32.912,32.72 C32.775,32.806 32.706,33.208 32.705,33.927 C32.705,34.304 32.808,34.492 33.014,34.492 C33.527,34.492 33.955,34.511 34.298,34.545 C34.982,34.545 35.326,34.204 35.327,33.518 L35.327,33.518 Z M35.319,40.968 L35.32,40.506 C35.32,39.924 35.08,39.581 34.601,39.478 L33.111,39.476 C32.803,39.476 32.648,40.076 32.647,41.274 C32.647,41.582 32.903,41.737 33.417,41.737 L34.651,41.738 C35.094,41.739 35.318,41.482 35.319,40.968 L35.319,40.968 Z M40.352,43.285 C40.351,44.142 40.049,44.887 39.45,45.519 C38.85,46.153 38.122,46.469 37.266,46.468 L27.76,46.458 C27.623,46.355 27.555,46.218 27.555,46.047 L27.574,28.269 C27.574,27.79 27.763,27.55 28.14,27.551 L36.977,27.56 C38.244,27.561 39.135,27.922 39.648,28.642 C40.023,29.19 40.228,30.133 40.261,31.468 L40.309,34.654 C40.341,35.99 39.896,36.846 38.97,37.221 L39.484,37.633 C39.998,38.045 40.287,38.953 40.355,40.357 L40.352,43.285 L40.352,43.285 Z" id="Fill-446" fill="#E996B7"></path>
        <path d="M53.451,45.303 C53.45,46.228 53.312,46.605 53.038,46.433 L43.328,46.423 C42.985,46.423 42.78,46.286 42.712,46.011 L42.73,28.851 C42.731,27.994 42.851,27.566 43.091,27.566 L51.773,27.524 C52.493,27.524 53.007,27.595 53.315,27.731 C53.315,28.005 53.33,29.461 53.362,32.099 C53.362,32.304 53.31,32.425 53.207,32.458 C53.105,32.492 52.916,32.509 52.642,32.509 L48.121,32.453 L47.761,32.709 L47.759,34.147 C47.759,34.388 47.861,34.507 48.067,34.507 L53.154,34.513 C53.324,34.513 53.41,35.045 53.409,36.107 L53.406,38.829 C53.405,39.24 53.114,39.446 52.532,39.445 L48.062,39.44 L47.805,39.646 L47.752,41.495 C47.854,41.565 47.991,41.633 48.163,41.701 L53.147,41.655 C53.352,41.656 53.453,42.871 53.451,45.303" id="Fill-447" fill="#E996B7"></path>
        <path d="M67.945,39.821 C67.943,42.561 67.855,44.154 67.683,44.599 C67.202,45.865 65.935,46.498 63.879,46.496 L56.327,46.488 C55.881,46.488 55.641,46.316 55.608,45.973 L55.613,41.709 C55.613,41.503 55.767,41.401 56.075,41.401 C56.76,41.402 58.747,41.421 62.035,41.459 C62.48,41.459 62.703,41.169 62.704,40.586 L62.704,40.277 C62.705,39.628 62.328,39.301 61.574,39.3 C59.314,39.298 57.995,39.245 57.619,39.142 C56.317,38.798 55.667,37.838 55.669,36.263 L55.674,31.124 C55.677,28.762 56.791,27.581 59.018,27.583 L67.599,27.643 C67.77,27.713 67.855,27.798 67.855,27.9 L67.902,32.371 C67.901,32.576 67.627,32.679 67.08,32.678 C67.935,32.679 65.897,32.643 60.965,32.569 C60.52,32.568 60.297,32.86 60.297,33.441 C60.296,34.093 60.62,34.418 61.272,34.419 L65.176,34.423 C66.478,34.424 67.316,35.059 67.692,36.326 C67.862,36.91 67.947,38.074 67.945,39.821" id="Fill-448" fill="#E996B7"></path>
        <path d="M18.318,10.69 L18.311,17.831 C18.308,20.367 18.222,21.633 18.05,21.633 L9.83,21.676 C8.699,21.675 7.792,21.315 7.108,20.595 C6.423,19.874 6.082,18.932 6.083,17.767 L6.096,5.436 C6.098,3.656 7.28,2.765 9.644,2.768 L17.916,2.828 C18.086,2.897 18.189,3.411 18.222,4.37 L18.271,7.041 C18.271,7.453 18.201,7.658 18.065,7.658 L11.539,7.651 C11.129,7.651 10.923,7.907 10.923,8.422 L10.914,16.283 C10.914,16.625 11.615,16.797 13.02,16.798 C13.328,16.799 13.482,16.714 13.482,16.542 L13.489,10.736 C13.489,10.633 13.592,10.531 13.798,10.428 L18.062,10.432 C18.233,10.432 18.318,10.518 18.318,10.69" id="Fill-449" fill="#E996B7"></path>
        <path d="M27.981,8.336 C27.981,7.857 27.674,7.616 27.057,7.616 L26.235,7.615 C25.686,7.614 25.412,7.889 25.411,8.437 L25.455,15.784 C25.455,16.298 25.694,16.554 26.174,16.555 L27.355,16.556 C27.767,16.489 27.973,16.231 27.973,15.787 L27.981,8.336 L27.981,8.336 Z M32.954,18.514 C32.954,18.823 32.851,19.233 32.645,19.747 C32.13,21.049 30.861,21.698 28.84,21.696 C28.6,21.696 28.189,21.696 27.607,21.695 C25.723,21.658 24.592,21.64 24.216,21.64 C23.325,21.639 22.521,21.432 21.802,21.02 C20.912,20.54 20.484,19.889 20.519,19.067 L20.573,16.755 C20.574,16.275 20.574,15.676 20.575,14.956 C20.543,12.73 20.529,9.579 20.533,5.503 C20.534,4.75 20.894,4.108 21.614,3.577 C22.334,3.048 23.088,2.782 23.876,2.783 L29.116,2.84 C31.686,2.877 32.969,3.769 32.967,5.516 L32.954,18.514 L32.954,18.514 Z" id="Fill-450" fill="#E996B7"></path>
        <path d="M42.88,8.352 C42.881,7.872 42.573,7.632 41.956,7.631 L41.134,7.63 C40.585,7.63 40.311,7.904 40.311,8.452 L40.355,15.8 C40.354,16.313 40.593,16.57 41.073,16.57 L42.255,16.572 C42.666,16.504 42.872,16.247 42.872,15.802 L42.88,8.352 L42.88,8.352 Z M47.853,18.53 C47.853,18.839 47.75,19.249 47.544,19.762 C47.029,21.065 45.76,21.714 43.74,21.712 C43.5,21.711 43.088,21.711 42.507,21.71 C40.622,21.674 39.492,21.656 39.116,21.655 C38.224,21.654 37.42,21.448 36.701,21.036 C35.811,20.556 35.383,19.905 35.418,19.082 L35.472,16.77 C35.473,16.291 35.474,15.691 35.474,14.972 C35.442,12.746 35.428,9.595 35.433,5.518 C35.433,4.765 35.794,4.123 36.514,3.592 C37.233,3.063 37.987,2.798 38.776,2.798 L44.016,2.855 C46.585,2.893 47.869,3.785 47.867,5.531 L47.853,18.53 L47.853,18.53 Z" id="Fill-451" fill="#E996B7"></path>
        <path d="M57.626,8.419 C57.627,7.939 57.078,7.699 55.983,7.698 C55.469,7.697 55.212,7.783 55.212,7.953 L55.202,16.637 C55.133,16.809 55.46,16.894 56.179,16.895 L56.949,16.896 C57.394,16.896 57.618,16.622 57.618,16.074 L57.626,8.419 L57.626,8.419 Z M62.702,18.699 C62.598,19.556 62.22,20.266 61.57,20.831 C60.918,21.395 60.164,21.677 59.308,21.676 L50.625,21.667 C50.419,21.667 50.316,21.479 50.317,21.102 L50.335,3.478 C50.335,2.999 50.541,2.759 50.953,2.759 L59.944,2.82 C60.766,2.821 61.425,3.105 61.921,3.671 C62.417,4.236 62.665,4.93 62.664,5.752 L62.702,18.699 L62.702,18.699 Z" id="Fill-452" fill="#E996B7"></path>
        <path d="M17.394,11.048 L17.342,10.894 L14.311,10.943 C14.208,10.908 14.105,10.993 14.002,11.199 L13.996,16.953 C13.996,17.126 13.773,17.245 13.328,17.312 C13.053,17.312 12.66,17.294 12.146,17.26 C11.633,17.225 11.239,17.208 10.964,17.208 C10.862,17.207 10.579,17.455 10.116,17.951 C9.653,18.447 9.422,18.747 9.421,18.849 C9.421,19.055 9.558,19.158 9.832,19.159 L15.381,19.165 C15.689,19.165 15.844,18.977 15.844,18.6 L15.85,12.897 C15.85,12.691 16.364,12.075 17.394,11.048 L17.394,11.048 Z M17.452,3.495 L17.247,3.29 L9.643,3.282 C7.622,3.28 6.611,4.118 6.609,5.796 L6.648,18.076 C6.578,18.316 6.655,18.727 6.878,19.31 C7.099,19.892 7.33,20.183 7.57,20.184 C7.707,20.184 7.938,20.004 8.265,19.644 C8.59,19.285 8.754,19.038 8.754,18.9 C8.754,18.867 8.719,18.763 8.651,18.592 C8.582,18.421 8.549,18.301 8.549,18.232 L8.56,7.134 C8.562,5.901 9.128,5.285 10.257,5.286 L15.704,5.292 C15.806,5.292 16.115,5.028 16.63,4.497 C17.144,3.966 17.418,3.633 17.452,3.495 L17.452,3.495 Z M18.318,10.69 L18.311,17.831 C18.308,20.367 18.222,21.633 18.05,21.633 L9.83,21.676 C8.699,21.675 7.792,21.315 7.108,20.595 C6.423,19.874 6.082,18.932 6.083,17.767 L6.096,5.436 C6.098,3.656 7.28,2.765 9.644,2.768 L17.916,2.828 C18.086,2.897 18.189,3.411 18.222,4.37 L18.271,7.041 C18.271,7.453 18.201,7.658 18.065,7.658 L11.539,7.651 C11.129,7.651 10.923,7.907 10.923,8.422 L10.914,16.283 C10.914,16.625 11.615,16.797 13.02,16.798 C13.328,16.799 13.482,16.714 13.482,16.542 L13.489,10.736 C13.489,10.633 13.592,10.531 13.798,10.428 L18.062,10.432 C18.233,10.432 18.318,10.518 18.318,10.69 L18.318,10.69 Z" id="Fill-453" fill="#0A0A08"></path>
        <path d="M27.981,8.336 C27.981,7.857 27.674,7.616 27.057,7.616 L26.235,7.615 C25.686,7.614 25.412,7.889 25.411,8.437 L25.455,15.784 C25.455,16.298 25.694,16.554 26.174,16.555 L27.355,16.556 C27.767,16.489 27.973,16.231 27.973,15.787 L27.981,8.336 L27.981,8.336 Z M30.438,16.817 L30.448,6.952 C30.449,6.438 30.329,6.181 30.089,6.18 C29.987,6.18 29.455,6.763 28.495,7.925 L28.486,16.147 C28.486,16.626 28.178,16.917 27.561,17.019 L26.07,17.018 C25.522,17.017 24.802,17.616 23.91,18.814 C23.945,18.985 24.167,19.07 24.579,19.071 L29.099,19.076 C29.99,19.076 30.436,18.324 30.438,16.817 L30.438,16.817 Z M31.582,3.87 C31.583,3.494 31.069,3.304 30.041,3.303 L26.444,3.299 C24.561,3.297 23.328,3.399 22.745,3.604 C21.614,4.013 21.048,4.938 21.047,6.377 L21.034,18.861 C21.034,19.102 21.127,19.419 21.315,19.813 C21.503,20.207 21.7,20.404 21.906,20.404 C21.974,20.404 22.205,20.191 22.599,19.763 C22.994,19.335 23.191,19.087 23.191,19.018 C23.191,18.847 23.149,18.59 23.064,18.248 C22.978,17.905 22.936,17.649 22.936,17.476 L22.895,7.046 C22.897,5.78 23.394,5.146 24.388,5.147 L27.83,5.151 C28.926,5.152 29.662,5.273 30.039,5.513 C31.068,4.521 31.582,3.973 31.582,3.87 L31.582,3.87 Z M32.954,18.514 C32.954,18.823 32.851,19.233 32.645,19.747 C32.13,21.049 30.861,21.698 28.84,21.696 C28.6,21.696 28.189,21.696 27.607,21.695 C25.723,21.658 24.592,21.64 24.216,21.64 C23.325,21.639 22.521,21.432 21.802,21.02 C20.912,20.54 20.484,19.889 20.519,19.067 L20.573,16.755 C20.574,16.275 20.574,15.676 20.575,14.956 C20.543,12.73 20.529,9.579 20.533,5.503 C20.534,4.75 20.894,4.108 21.614,3.577 C22.334,3.048 23.088,2.782 23.876,2.783 L29.116,2.84 C31.686,2.877 32.969,3.769 32.967,5.516 L32.954,18.514 L32.954,18.514 Z" id="Fill-454" fill="#0A0A08"></path>
        <path d="M42.88,8.352 C42.881,7.872 42.573,7.632 41.956,7.631 L41.134,7.63 C40.585,7.63 40.311,7.904 40.311,8.452 L40.355,15.8 C40.354,16.313 40.593,16.57 41.073,16.57 L42.255,16.572 C42.666,16.504 42.872,16.247 42.872,15.802 L42.88,8.352 L42.88,8.352 Z M45.337,16.832 L45.348,6.967 C45.348,6.454 45.228,6.196 44.989,6.196 C44.886,6.196 44.354,6.779 43.394,7.941 L43.386,16.162 C43.385,16.642 43.077,16.932 42.46,17.035 L40.97,17.033 C40.421,17.033 39.701,17.632 38.81,18.829 C38.844,19.001 39.067,19.086 39.478,19.086 L43.999,19.091 C44.889,19.092 45.336,18.34 45.337,16.832 L45.337,16.832 Z M46.482,3.885 C46.482,3.509 45.968,3.32 44.94,3.319 L41.344,3.315 C39.46,3.313 38.227,3.415 37.644,3.62 C36.513,4.029 35.948,4.953 35.946,6.392 L35.933,18.877 C35.933,19.117 36.026,19.434 36.214,19.829 C36.402,20.223 36.599,20.42 36.805,20.42 C36.873,20.42 37.104,20.206 37.499,19.778 C37.893,19.35 38.09,19.103 38.09,19.033 C38.09,18.863 38.048,18.606 37.963,18.263 C37.878,17.921 37.835,17.664 37.835,17.492 L37.795,7.062 C37.796,5.795 38.293,5.162 39.287,5.163 L42.73,5.166 C43.825,5.167 44.561,5.289 44.938,5.528 C45.967,4.536 46.481,3.989 46.482,3.885 L46.482,3.885 Z M47.853,18.53 C47.853,18.839 47.75,19.249 47.544,19.762 C47.029,21.065 45.76,21.714 43.74,21.712 C43.5,21.711 43.088,21.711 42.507,21.71 C40.622,21.674 39.492,21.656 39.116,21.655 C38.224,21.654 37.42,21.448 36.701,21.036 C35.811,20.556 35.383,19.905 35.418,19.082 L35.472,16.77 C35.473,16.291 35.474,15.691 35.474,14.972 C35.442,12.746 35.428,9.595 35.433,5.518 C35.433,4.765 35.794,4.123 36.514,3.592 C37.233,3.063 37.987,2.798 38.776,2.798 L44.016,2.855 C46.585,2.893 47.869,3.785 47.867,5.531 L47.853,18.53 L47.853,18.53 Z" id="Fill-455" fill="#0A0A08"></path>
        <path d="M57.626,8.419 C57.627,7.939 57.078,7.699 55.983,7.698 C55.469,7.697 55.212,7.783 55.212,7.953 L55.202,16.637 C55.133,16.809 55.46,16.894 56.179,16.895 L56.949,16.896 C57.394,16.896 57.618,16.622 57.618,16.074 L57.626,8.419 L57.626,8.419 Z M60.3,6.88 C60.3,6.298 60.147,6.006 59.838,6.006 C59.632,6.005 59.298,6.306 58.835,6.904 C58.372,7.504 58.141,7.906 58.14,8.111 L58.132,15.766 C58.131,16.657 57.907,17.171 57.463,17.307 L55.665,17.305 C55.15,17.304 54.396,17.852 53.402,18.947 C53.435,19.085 53.59,19.153 53.865,19.153 L59.31,19.159 C59.961,19.159 60.287,18.613 60.289,17.515 L60.3,6.88 L60.3,6.88 Z M61.33,3.901 C61.331,3.49 60.817,3.284 59.79,3.283 L51.569,3.275 C51.054,3.274 50.798,3.376 50.798,3.582 L50.78,20.434 C50.78,20.675 50.831,20.794 50.934,20.794 C52.133,19.871 52.786,19.015 52.889,18.227 C52.854,18.501 52.838,17.302 52.841,14.63 L52.85,5.69 C52.851,5.349 52.936,5.177 53.108,5.177 L58.605,5.183 C58.742,5.183 58.94,5.227 59.196,5.312 C59.453,5.398 59.633,5.441 59.736,5.441 C59.838,5.441 60.129,5.202 60.61,4.723 C61.09,4.244 61.33,3.97 61.33,3.901 L61.33,3.901 Z M62.702,18.699 C62.598,19.556 62.22,20.266 61.57,20.831 C60.918,21.395 60.164,21.677 59.308,21.676 L50.625,21.667 C50.419,21.667 50.316,21.479 50.317,21.102 L50.335,3.478 C50.335,2.999 50.541,2.759 50.953,2.759 L59.944,2.82 C60.766,2.821 61.425,3.105 61.921,3.671 C62.417,4.236 62.665,4.93 62.664,5.752 L62.702,18.699 L62.702,18.699 Z" id="Fill-456" fill="#0A0A08"></path>
        <path d="M17.196,28.31 C17.196,28.173 17.077,28.104 16.836,28.104 L13.703,28.101 C13.497,28.17 13.376,28.238 13.343,28.306 C11.523,32.347 10.269,36.456 9.579,40.633 C9.199,42.928 9.011,43.956 9.011,43.716 C9.011,43.887 9.301,43.972 9.884,43.973 C10.192,43.973 10.38,43.905 10.449,43.768 L11.532,40.224 C11.841,39.266 12.597,36.903 13.8,33.136 C13.937,32.519 14.23,31.63 14.677,30.466 C14.882,30.089 15.722,29.37 17.196,28.31 L17.196,28.31 Z M8.549,43.921 L4.247,30.249 C4.247,30.078 4.453,29.71 4.864,29.145 C5.276,28.58 5.482,28.281 5.482,28.246 C5.482,28.11 5.345,28.041 5.071,28.04 L2.553,28.038 C2.416,28.072 2.399,28.089 2.502,28.089 C1.954,28.055 1.68,28.14 1.68,28.346 C2.533,30.915 4.053,35.627 6.238,42.48 C6.545,43.404 6.886,44.415 7.262,45.512 L7.365,45.666 C7.433,45.666 7.647,45.401 8.008,44.871 C8.368,44.34 8.548,44.023 8.549,43.921 L8.549,43.921 Z M18.173,27.952 C18.173,28.192 17.296,31.068 15.544,36.581 L12.553,45.98 C12.451,46.254 12.297,46.391 12.091,46.39 C8.631,46.387 7.261,46.403 7.981,46.438 C7.295,46.403 6.816,46.094 6.543,45.511 C6.304,44.655 5.928,43.403 5.416,41.759 C4.426,38.572 3.299,35.095 2.036,31.326 C1.9,30.914 1.626,30.092 1.217,28.859 C1.114,28.55 0.978,28.174 0.807,27.728 C0.807,27.591 0.91,27.522 1.115,27.522 L5.534,27.527 C5.876,27.527 6.099,27.614 6.202,27.785 L9.582,38.013 L9.685,38.013 C10.337,35.719 11.403,32.381 12.881,27.998 C12.984,27.689 13.138,27.535 13.344,27.535 L17.711,27.54 C18.019,27.54 18.173,27.678 18.173,27.952 L18.173,27.952 Z" id="Fill-457" fill="#0A0A08"></path>
        <path d="M24.234,28.164 L24.132,27.958 L22.488,27.956 L20.792,28.006 C20.587,28.006 20.484,28.348 20.483,29.033 L20.466,45.372 L20.671,45.577 C21.803,44.551 22.368,43.73 22.369,43.113 L22.382,30.114 C22.451,29.943 22.777,29.593 23.36,29.061 C23.942,28.531 24.234,28.232 24.234,28.164 L24.234,28.164 Z M25.16,27.805 L25.09,44.76 C25.193,45.822 25.089,46.371 24.781,46.404 L20.722,46.451 C20.276,46.451 20.019,46.347 19.951,46.141 C19.985,45.662 20.004,45.354 20.004,45.216 C19.97,44.292 19.954,43.144 19.956,41.775 L19.97,28.107 C19.971,27.731 20.176,27.542 20.588,27.543 L24.338,27.495 C24.886,27.496 25.16,27.599 25.16,27.805 L25.16,27.805 Z" id="Fill-458" fill="#0A0A08"></path>
        <path d="M35.327,33.518 C35.327,32.901 34.984,32.593 34.3,32.592 C33.511,32.592 33.049,32.635 32.912,32.72 C32.775,32.806 32.706,33.208 32.705,33.927 C32.705,34.304 32.808,34.492 33.014,34.492 C33.527,34.492 33.955,34.511 34.298,34.545 C34.982,34.545 35.326,34.204 35.327,33.518 L35.327,33.518 Z M35.319,40.968 L35.32,40.506 C35.32,39.924 35.08,39.581 34.601,39.478 L33.111,39.476 C32.803,39.476 32.648,40.076 32.647,41.274 C32.647,41.582 32.903,41.737 33.417,41.737 L34.651,41.738 C35.094,41.739 35.318,41.482 35.319,40.968 L35.319,40.968 Z M37.786,40.149 C37.788,38.368 37.463,37.477 36.812,37.476 C36.71,37.476 36.435,37.724 35.99,38.22 C35.543,38.717 35.321,39.016 35.321,39.119 L35.577,39.479 C35.748,39.719 35.834,40.062 35.833,40.507 C35.833,41.123 35.78,41.534 35.678,41.739 C35.505,42.047 35.129,42.201 34.547,42.2 L32.543,42.198 C31.378,43.088 30.795,43.619 30.794,43.789 L30.898,43.944 L35.47,44 C36.668,44.001 37.388,43.642 37.629,42.923 C37.732,42.615 37.784,41.69 37.786,40.149 L37.786,40.149 Z M37.846,31.774 C37.847,31.226 37.761,30.952 37.59,30.951 C37.521,30.951 37.205,31.217 36.639,31.747 C36.073,32.278 35.79,32.577 35.79,32.646 C35.755,32.782 35.755,32.954 35.789,33.159 C35.822,33.399 35.84,33.571 35.84,33.673 C35.84,34.461 35.513,34.906 34.862,35.008 L32.859,35.006 C32.687,35.006 31.984,35.605 30.75,36.802 L30.853,36.956 L36.454,37.013 C37.378,37.014 37.842,36.21 37.843,34.6 L37.846,31.774 L37.846,31.774 Z M39.134,28.898 C39.134,28.727 38.979,28.556 38.672,28.384 C38.364,28.213 38.106,28.126 37.901,28.126 L28.345,28.116 C28.31,28.083 28.207,28.168 28.037,28.373 L27.967,45.534 L28.172,45.688 C28.24,45.688 28.532,45.457 29.047,44.995 C29.561,44.533 29.835,44.26 29.869,44.174 C29.903,44.089 29.921,43.858 29.921,43.48 C29.921,43.515 29.941,41.322 29.98,36.904 L30.038,30.276 C30.038,30.037 30.244,29.916 30.655,29.917 L36.82,29.975 C36.923,29.975 37.085,30.01 37.308,30.078 C37.531,30.147 37.694,30.182 37.796,30.182 C37.864,30.182 38.105,29.994 38.516,29.617 C38.928,29.241 39.134,29.001 39.134,28.898 L39.134,28.898 Z M40.352,43.285 C40.351,44.142 40.049,44.887 39.45,45.519 C38.85,46.153 38.122,46.469 37.266,46.468 L27.76,46.458 C27.623,46.355 27.555,46.218 27.555,46.047 L27.574,28.269 C27.574,27.79 27.763,27.55 28.14,27.551 L36.977,27.56 C38.244,27.561 39.135,27.922 39.648,28.642 C40.023,29.19 40.228,30.133 40.261,31.468 L40.309,34.654 C40.341,35.99 39.896,36.846 38.97,37.221 L39.484,37.633 C39.998,38.045 40.287,38.953 40.355,40.357 L40.352,43.285 L40.352,43.285 Z" id="Fill-459" fill="#0A0A08"></path>
        <path d="M52.69,35.181 L52.434,35.027 L47.707,35.072 C47.399,35.072 46.816,35.637 45.958,36.766 L46.112,36.921 L50.685,36.874 C51.233,36.874 51.901,36.31 52.69,35.181 L52.69,35.181 Z M52.786,42.323 C52.752,42.186 52.581,42.117 52.273,42.116 C49.463,42.113 47.896,42.129 47.571,42.163 C47.246,42.197 46.637,42.745 45.745,43.805 C45.779,43.942 45.933,44.01 46.207,44.011 L51.14,43.914 C51.379,43.914 51.928,43.383 52.786,42.323 L52.786,42.323 Z M52.595,28.347 L52.39,28.193 L43.655,28.184 C43.415,28.184 43.296,28.269 43.295,28.44 L43.432,45.601 C44.049,45.088 44.409,44.78 44.512,44.678 C44.923,44.267 45.129,43.874 45.13,43.496 L45.194,30.343 C45.194,30.104 45.314,29.984 45.554,29.984 L50.847,29.99 C51.223,29.99 51.806,29.443 52.595,28.347 L52.595,28.347 Z M53.451,45.303 C53.45,46.228 53.312,46.605 53.038,46.433 L43.328,46.423 C42.985,46.423 42.78,46.286 42.712,46.011 L42.73,28.851 C42.731,27.994 42.851,27.566 43.091,27.566 L51.773,27.524 C52.493,27.524 53.007,27.595 53.315,27.731 C53.315,28.005 53.33,29.461 53.362,32.099 C53.362,32.304 53.31,32.425 53.207,32.458 C53.105,32.492 52.916,32.509 52.642,32.509 L48.121,32.453 L47.761,32.709 L47.759,34.147 C47.759,34.388 47.861,34.507 48.067,34.507 L53.154,34.513 C53.324,34.513 53.41,35.045 53.409,36.107 L53.406,38.829 C53.405,39.24 53.114,39.446 52.532,39.445 L48.062,39.44 L47.805,39.646 L47.752,41.495 C47.854,41.565 47.991,41.633 48.163,41.701 L53.147,41.655 C53.352,41.656 53.453,42.871 53.451,45.303 L53.451,45.303 Z" id="Fill-460" fill="#0A0A08"></path>
        <path d="M66.665,35.709 C66.666,35.298 66.066,35.041 64.868,34.936 C64.456,34.902 63.257,34.883 61.271,34.881 C60.791,34.88 60.055,35.463 59.06,36.626 L59.214,36.78 C59.488,36.781 60.07,36.764 60.961,36.731 C63.05,36.665 64.42,36.837 65.071,37.248 C65.208,37.146 65.508,36.881 65.97,36.453 C66.434,36.026 66.665,35.778 66.665,35.709 L66.665,35.709 Z M66.981,28.311 C66.981,28.175 66.879,28.105 66.673,28.105 L58.606,28.096 C57.065,28.095 56.275,29.019 56.24,30.869 C56.203,32.855 56.185,34.671 56.184,36.314 C56.182,37.514 56.438,38.113 56.952,38.113 C57.055,38.113 57.302,37.917 57.698,37.523 C58.091,37.131 58.289,36.865 58.289,36.728 L58.136,36.316 C57.998,36.077 57.931,35.837 57.931,35.597 L57.883,32.257 C57.85,30.819 58.484,30.1 59.786,30.101 L65.284,30.107 C66.415,29.047 66.981,28.448 66.981,28.311 L66.981,28.311 Z M65.428,39.304 C65.429,38.312 65.309,37.814 65.07,37.814 C64.933,37.814 64.59,38.088 64.042,38.634 C63.492,39.183 63.236,39.525 63.27,39.662 L63.269,40.484 C63.268,41.477 62.925,41.974 62.24,41.973 C60.767,41.971 58.934,41.952 56.742,41.915 C56.4,41.915 56.193,42.378 56.125,43.302 C56.09,43.507 56.089,44.073 56.123,44.998 C56.123,45.17 56.174,45.324 56.276,45.46 C57.168,44.536 57.75,44.074 58.024,44.075 C58.436,44.075 59.035,44.094 59.823,44.128 C60.61,44.164 61.21,44.18 61.621,44.181 C63.539,44.183 64.686,43.876 65.065,43.26 C65.304,42.884 65.426,41.565 65.428,39.304 L65.428,39.304 Z M67.945,39.821 C67.943,42.561 67.855,44.154 67.683,44.599 C67.202,45.865 65.935,46.498 63.879,46.496 L56.327,46.488 C55.881,46.488 55.641,46.316 55.608,45.973 L55.613,41.709 C55.613,41.503 55.767,41.401 56.075,41.401 C56.76,41.402 58.747,41.421 62.035,41.459 C62.48,41.459 62.703,41.169 62.704,40.586 L62.704,40.277 C62.705,39.628 62.328,39.301 61.574,39.3 C59.314,39.298 57.995,39.245 57.619,39.142 C56.317,38.798 55.667,37.838 55.669,36.263 L55.674,31.124 C55.677,28.762 56.791,27.581 59.018,27.583 L67.599,27.643 C67.77,27.713 67.855,27.798 67.855,27.9 L67.902,32.371 C67.901,32.576 67.627,32.679 67.08,32.678 C67.935,32.679 65.897,32.643 60.965,32.569 C60.52,32.568 60.297,32.86 60.297,33.441 C60.296,34.093 60.62,34.418 61.272,34.419 L65.176,34.423 C66.478,34.424 67.316,35.059 67.692,36.326 C67.862,36.91 67.947,38.074 67.945,39.821 L67.945,39.821 Z" id="Fill-461" fill="#0A0A08"></path>
    </g>
</svg>