<?xml version="1.0" encoding="UTF-8" standalone="no"?>
<svg width="69px" height="46px" viewBox="0 0 69 46" version="1.1" xmlns="http://www.w3.org/2000/svg" xmlns:xlink="http://www.w3.org/1999/xlink">
    <!-- Generator: Sketch 39.1 (31720) - http://www.bohemiancoding.com/sketch -->
    <title>Slice 1</title>
    <desc>Created with Sketch.</desc>
    <defs></defs>
    <g id="Page-1" stroke="none" stroke-width="1" fill="none" fill-rule="evenodd">
        <path d="M39.732,45.697 C39.296,45.697 38.858,45.687 38.419,45.666 C37.825,45.639 37.247,45.579 36.674,45.518 C36.015,45.449 35.418,45.386 34.845,45.386 C34.581,45.386 34.323,45.399 34.067,45.431 C32.705,45.601 31.375,45.686 30.084,45.686 C27.855,45.686 25.738,45.433 23.758,44.928 C20.632,44.132 17.898,42.713 15.633,40.713 C12.436,37.89 1.952,28.012 1.28,19.449 L1.083,16.944 L3.594,16.871 C3.897,16.862 4.192,16.859 4.482,16.859 C5.09,16.859 5.672,16.875 6.241,16.89 C6.783,16.905 7.289,16.919 7.767,16.919 C9.696,16.919 11.186,16.697 12.863,15.424 C14.387,14.266 15.591,12.606 16.867,10.849 C17.222,10.36 17.576,9.872 17.939,9.392 C19.705,7.06 22.197,4.263 25.824,3.3 C26.646,3.083 27.485,2.974 28.336,2.974 C29.202,2.974 30.08,3.086 30.964,3.312 C32.368,3.67 33.717,4.297 34.944,5.155 C36.967,3.742 39.294,2.98 41.568,2.98 C42.38,2.98 43.185,3.077 43.968,3.277 L44.056,3.3 C47.684,4.262 50.176,7.06 51.941,9.39 C52.305,9.87 52.657,10.357 53.011,10.844 C54.287,12.603 55.494,14.265 57.02,15.425 C57.826,16.037 58.614,16.427 59.498,16.653 C60.325,16.863 61.2,16.918 62.154,16.918 C62.63,16.918 63.125,16.904 63.644,16.89 C64.213,16.875 64.796,16.859 65.405,16.859 C65.695,16.859 65.99,16.862 66.293,16.871 L68.807,16.944 L68.608,19.45 C67.929,28.013 57.445,37.89 54.248,40.713 C53.736,41.165 53.193,41.591 52.635,41.98 C50.058,43.778 46.848,44.98 43.354,45.456 C42.176,45.616 40.963,45.697 39.732,45.697" id="Fill-224" fill="#A0A19D"></path>
        <path d="M22.927,42.923 C19.802,42.126 17.068,40.708 14.803,38.708 C11.606,35.884 1.122,26.007 0.45,17.443 L0.253,14.939 L2.764,14.866 C3.704,14.838 4.571,14.862 5.411,14.885 C8.138,14.959 9.94,15.007 12.033,13.419 C13.556,12.261 14.761,10.601 16.037,8.844 C16.391,8.355 16.746,7.867 17.109,7.387 C18.875,5.055 21.367,2.257 24.994,1.295 C26.652,0.856 28.381,0.86 30.134,1.306 C31.538,1.664 32.887,2.291 34.114,3.149 C36.859,1.232 40.165,0.514 43.137,1.272 L43.226,1.295 C46.854,2.257 49.346,5.055 51.111,7.384 C51.475,7.865 51.827,8.351 52.181,8.838 C53.457,10.598 54.664,12.259 56.19,13.42 C56.996,14.032 57.784,14.422 58.668,14.647 C59.908,14.963 61.254,14.927 62.814,14.885 C63.654,14.862 64.521,14.838 65.463,14.866 L67.977,14.939 L67.778,17.445 C67.099,26.007 56.614,35.884 53.418,38.708 C52.906,39.16 52.363,39.586 51.804,39.975 C49.228,41.773 46.018,42.975 42.523,43.451 C40.929,43.668 39.269,43.739 37.589,43.661 C36.995,43.634 36.417,43.574 35.844,43.513 C34.883,43.412 34.052,43.324 33.237,43.426 C29.524,43.889 26.055,43.72 22.927,42.923" id="Fill-225" fill="#FFFFFF"></path>
        <path d="M35.24,19.207 L35.24,19.231 C34.865,19.231 34.489,19.225 34.114,19.219 C34.489,19.213 34.865,19.213 35.24,19.207" id="Fill-226" fill="#D4232A"></path>
        <path d="M35.24,19.207 L34.516,19.207 L34.516,19.231 L35.24,19.231 L35.24,18.506 C34.873,18.506 34.501,18.5 34.125,18.494 L34.114,19.219 L34.125,19.944 C34.493,19.938 34.869,19.938 35.252,19.932 L35.24,19.207 L34.516,19.207 L35.24,19.207 L35.229,18.482 C34.861,18.488 34.485,18.488 34.102,18.494 L34.102,19.944 C34.478,19.95 34.857,19.956 35.24,19.956 L35.965,19.956 L35.965,18.47 L35.229,18.482 L35.24,19.207" id="Fill-227" fill="#FFFFFF"></path>
        <path d="M65.394,17.256 C64.77,25.126 54.167,34.856 51.835,36.916 C51.391,37.308 50.925,37.674 50.439,38.013 C48.005,39.71 45.128,40.683 42.201,41.081 C40.711,41.284 39.201,41.341 37.699,41.272 C36.075,41.198 34.581,40.848 32.94,41.053 C27.116,41.78 20.938,40.935 16.386,36.916 C14.054,34.856 3.452,25.126 2.834,17.256 L9.995,19.504 C17.659,19.413 25.317,19.322 32.981,19.231 C33.356,19.231 33.738,19.225 34.114,19.219 C34.489,19.225 34.865,19.231 35.24,19.231 C42.905,19.322 50.562,19.413 58.226,19.504 L65.394,17.256" id="Fill-228" fill="#BF242D"></path>
        <path d="M15.854,32.463 C13.644,30.304 11.43,27.845 9.64,25.391 C9.404,25.068 8.95,24.997 8.627,25.233 C8.304,25.469 8.233,25.922 8.469,26.246 C10.322,28.786 12.584,31.294 14.841,33.5 C15.127,33.779 15.586,33.774 15.866,33.488 C16.146,33.201 16.14,32.743 15.854,32.463" id="Fill-229" fill="#FFFFFF"></path>
        <path d="M20.613,36.377 C19.782,35.912 19.013,35.367 18.306,34.742 C18.006,34.477 17.548,34.505 17.283,34.805 C17.018,35.105 17.046,35.563 17.346,35.828 C18.131,36.522 18.986,37.127 19.905,37.642 C20.255,37.837 20.696,37.713 20.892,37.363 C21.087,37.014 20.963,36.572 20.613,36.377" id="Fill-230" fill="#FFFFFF"></path>
        <path d="M34.114,19.219 C33.738,19.225 33.356,19.231 32.981,19.231 L32.981,19.207 C33.356,19.213 33.738,19.213 34.114,19.219" id="Fill-231" fill="#D4232A"></path>
        <path d="M34.114,19.219 L34.102,18.494 C33.726,18.5 33.349,18.506 32.981,18.506 L32.981,19.231 L33.705,19.231 L33.705,19.207 L32.981,19.207 L32.969,19.932 C33.353,19.938 33.734,19.938 34.102,19.944 L34.114,19.219 L34.102,18.494 L34.114,19.219 L34.125,18.494 C33.742,18.488 33.36,18.488 32.992,18.482 L32.256,18.47 L32.256,19.956 L32.981,19.956 C33.364,19.956 33.749,19.95 34.125,19.944 L34.125,18.494 L34.114,19.219" id="Fill-232" fill="#FFFFFF"></path>
        <path d="M65.394,17.256 C64.249,21.794 57.718,24.448 53.501,24.084 C48.612,23.66 43.716,20.334 39.16,22.145 C37.47,22.818 35.822,24.175 34.108,24.12 C32.399,24.175 30.751,22.818 29.061,22.145 C24.505,20.334 19.61,23.66 14.72,24.084 C10.504,24.447 3.979,21.794 2.834,17.256 C6.796,17.141 9.934,18.013 13.478,15.323 C15.75,13.597 17.295,11.107 19.016,8.829 C20.743,6.551 22.845,4.339 25.608,3.606 C28.625,2.807 31.86,4.042 34.114,6.248 C36.361,4.042 39.597,2.807 42.614,3.606 C45.376,4.339 47.479,6.551 49.205,8.829 C50.926,11.107 52.471,13.597 54.743,15.323 C58.287,18.013 61.425,17.141 65.394,17.256" id="Fill-233" fill="#DA2D31"></path>
        <path d="M18.059,14.901 C18.883,13.93 19.612,12.924 20.32,11.949 L20.32,11.95 C20.657,11.485 20.991,11.024 21.329,10.577 L21.329,10.578 C21.976,9.722 22.735,8.8 23.584,8.035 C24.433,7.268 25.366,6.668 26.351,6.408 C26.738,6.305 26.968,5.908 26.866,5.521 C26.763,5.134 26.366,4.904 25.979,5.007 C24.684,5.353 23.57,6.097 22.613,6.959 C21.655,7.822 20.847,8.814 20.173,9.702 L20.173,9.703 C19.823,10.166 19.484,10.634 19.147,11.098 L19.146,11.098 C18.439,12.072 17.731,13.048 16.954,13.963 C16.695,14.269 16.732,14.726 17.038,14.985 C17.343,15.244 17.8,15.206 18.059,14.901" id="Fill-234" fill="#FFFFFF"></path>
        <path d="M13.002,19 C13.738,18.65 14.482,18.201 15.231,17.633 L15.232,17.632 C15.432,17.48 15.627,17.324 15.816,17.165 C16.122,16.907 16.162,16.45 15.904,16.144 C15.646,15.837 15.189,15.798 14.883,16.055 C14.711,16.2 14.535,16.341 14.355,16.478 C13.681,16.989 13.023,17.384 12.378,17.692 C12.017,17.864 11.864,18.297 12.036,18.658 C12.208,19.019 12.641,19.173 13.002,19" id="Fill-235" fill="#FFFFFF"></path>
    </g>
</svg>