<?xml version="1.0" encoding="UTF-8" standalone="no"?>
<svg width="51px" height="82px" viewBox="0 0 51 82" version="1.1" xmlns="http://www.w3.org/2000/svg" xmlns:xlink="http://www.w3.org/1999/xlink">
    <!-- Generator: Sketch 39.1 (31720) - http://www.bohemiancoding.com/sketch -->
    <title>Slice 1</title>
    <desc>Created with Sketch.</desc>
    <defs></defs>
    <g id="Page-1" stroke="none" stroke-width="1" fill="none" fill-rule="evenodd">
        <path d="M43.242,81.614 C41.975,81.614 40.766,81.036 39.968,80.015 L31.351,68.985 L30.189,68.985 C30.014,70.818 29.797,72.721 29.548,74.589 C29.362,76 28.299,77.114 26.904,77.361 C26.713,77.394 26.52,77.411 26.328,77.411 C25.634,77.411 24.951,77.193 24.392,76.784 C23.68,76.262 23.223,75.482 23.104,74.587 C22.856,72.725 22.638,70.822 22.462,68.985 L20.773,68.985 L12.156,80.015 C11.521,80.827 10.616,81.372 9.608,81.55 C9.368,81.593 9.127,81.613 8.889,81.613 C7.314,81.613 5.835,80.712 5.138,79.261 C2.628,74.038 -4.226,56.327 10.708,43.775 C10.477,41.53 10.361,39.316 10.36,37.177 C10.36,15.182 21.767,4.962 24.339,2.939 L24.363,2.916 L24.489,2.823 C24.607,2.731 24.698,2.667 24.698,2.667 L26.089,1.665 L27.56,2.709 L27.647,2.754 L27.826,2.912 L28.031,3.076 C30.333,4.941 41.839,15.361 41.839,37.176 C41.84,39.334 41.721,41.569 41.486,43.836 C56.323,56.384 49.49,74.051 46.987,79.261 C46.409,80.463 45.282,81.318 43.971,81.55 L43.97,81.55 C43.727,81.593 43.483,81.614 43.242,81.614" id="Fill-326" fill="#A0A19D"></path>
        <path d="M43.456,80.102 C41.938,80.371 40.404,79.782 39.454,78.567 L30.837,67.537 L29.675,67.537 C29.5,69.37 29.283,71.273 29.034,73.141 C28.848,74.552 27.785,75.666 26.39,75.913 C25.507,76.069 24.592,75.858 23.878,75.336 C23.166,74.814 22.709,74.034 22.59,73.14 C22.342,71.277 22.125,69.374 21.949,67.537 L20.259,67.537 L11.643,78.567 C11.008,79.379 10.102,79.924 9.094,80.102 C7.266,80.426 5.427,79.484 4.624,77.813 C2.114,72.591 -4.739,54.879 10.194,42.327 C9.963,40.082 9.847,37.868 9.846,35.729 C9.846,13.734 21.253,3.514 23.825,1.491 L23.85,1.468 L23.975,1.375 C24.094,1.284 24.184,1.219 24.184,1.219 L25.575,0.217 L27.046,1.261 L27.134,1.306 L27.312,1.464 L27.517,1.629 C29.819,3.493 41.325,13.913 41.326,35.728 C41.326,37.886 41.207,40.121 40.972,42.388 C55.81,54.936 48.976,72.604 46.473,77.813 C45.895,79.015 44.768,79.87 43.457,80.102 L43.456,80.102" id="Fill-327" fill="#FFFFFF"></path>
        <path d="M31.695,64.75 L41.339,77.095 C42.144,78.126 43.751,77.957 44.317,76.777 C47.349,70.469 53.376,53.383 36.672,42.126 L31.695,64.75" id="Fill-328" fill="#4A8ABD"></path>
        <path d="M19.402,64.75 L9.758,77.095 C8.952,78.126 7.346,77.957 6.779,76.777 C3.748,70.469 -2.279,53.383 14.425,42.126 L19.402,64.75" id="Fill-329" fill="#4A8ABD"></path>
        <path d="M6.928,67.546 C6.58,65.865 6.359,64.067 6.359,62.216 C6.361,58.408 7.285,54.393 9.971,50.636 C10.216,50.293 10.137,49.817 9.794,49.572 C9.452,49.327 8.975,49.406 8.73,49.748 C5.833,53.794 4.831,58.165 4.833,62.216 C4.833,64.188 5.068,66.089 5.434,67.855 C5.519,68.267 5.923,68.533 6.335,68.447 C6.748,68.362 7.013,67.958 6.928,67.546" id="Fill-330" fill="#FFFFFF"></path>
        <path d="M38.934,35.728 C38.934,12.597 25.586,3.156 25.586,3.156 C25.586,3.156 12.238,12.597 12.238,35.728 C12.238,47.195 15.519,57.582 18.827,65.146 L32.345,65.146 C35.654,57.582 38.934,47.195 38.934,35.728" id="Fill-331" fill="#6BBE9C"></path>
        <path d="M16.838,48.862 C15.964,44.776 15.392,40.339 15.392,35.728 C15.393,27.263 17.283,20.809 19.56,16.088 C19.743,15.708 19.584,15.252 19.205,15.069 C18.825,14.886 18.369,15.045 18.186,15.425 C15.814,20.338 13.866,27.035 13.867,35.728 C13.867,40.465 14.453,45.007 15.346,49.181 C15.434,49.594 15.839,49.856 16.251,49.768 C16.663,49.68 16.926,49.274 16.838,48.862" id="Fill-332" fill="#FFFFFF"></path>
        <path d="M18.933,56.592 C18.501,55.274 18.086,53.89 17.701,52.45 C17.592,52.043 17.174,51.801 16.767,51.91 C16.36,52.018 16.118,52.437 16.227,52.844 C16.619,54.313 17.043,55.724 17.484,57.068 C17.615,57.468 18.046,57.686 18.446,57.555 C18.846,57.424 19.065,56.993 18.933,56.592" id="Fill-333" fill="#FFFFFF"></path>
        <path d="M25.586,3.156 C25.586,3.156 21.271,6.219 17.547,13.11 L33.625,13.11 C29.901,6.219 25.586,3.156 25.586,3.156" id="Fill-334" fill="#DC326D"></path>
        <path d="M23.179,10.17 C24.305,8.69 25.344,7.594 26.114,6.859 C26.418,6.568 26.429,6.085 26.138,5.78 C25.847,5.476 25.364,5.465 25.06,5.756 C24.239,6.54 23.145,7.696 21.965,9.246 C21.71,9.581 21.774,10.06 22.11,10.315 C22.445,10.57 22.923,10.505 23.179,10.17" id="Fill-335" fill="#FFFFFF"></path>
        <path d="M31.695,28.495 C31.695,31.743 29.061,34.377 25.812,34.377 C22.564,34.377 19.93,31.743 19.93,28.495 C19.93,25.246 22.564,22.613 25.812,22.613 C29.061,22.613 31.695,25.246 31.695,28.495" id="Fill-336" fill="#1A1A19"></path>
        <path d="M25.812,32.783 C23.448,32.783 21.525,30.859 21.525,28.494 C21.525,26.13 23.448,24.207 25.812,24.207 C28.177,24.207 30.1,26.13 30.1,28.494 C30.1,30.859 28.177,32.783 25.812,32.783" id="Fill-337" fill="#E996B7"></path>
        <path d="M27.807,57.863 C27.807,63.049 27.206,68.743 26.664,72.826 C26.532,73.821 25.093,73.821 24.961,72.826 C24.419,68.743 23.818,63.049 23.818,57.863 C23.818,48.41 24.711,44.222 25.812,44.222 C26.914,44.222 27.807,48.41 27.807,57.863" id="Fill-338" fill="#4A8ABD"></path>
    </g>
</svg>