<?xml version="1.0" encoding="UTF-8" standalone="no"?>
<!-- Created with Inkscape (http://www.inkscape.org/) -->
<svg xmlns:rdf="http://www.w3.org/1999/02/22-rdf-syntax-ns#" xmlns="http://www.w3.org/2000/svg" xmlns:cc="http://web.resource.org/cc/" xmlns:dc="http://purl.org/dc/elements/1.1/" xmlns:svg="http://www.w3.org/2000/svg" xmlns:inkscape="http://www.inkscape.org/namespaces/inkscape" xmlns:sodipodi="http://sodipodi.sourceforge.net/DTD/sodipodi-0.dtd" xmlns:ns1="http://sozi.baierouge.fr" xmlns:xlink="http://www.w3.org/1999/xlink" id="svg2" viewBox="0 0 360.63 395.7" version="1.1" inkscape:version="0.91 r13725">
  <title id="title3976">bee</title>
  <g id="layer2" transform="translate(-269.64 -203.41)">
    <path id="path3889" style="fill:#000000" d="m509.22 203.44c-0.71328-0.0512-1.3706-0.0173-2 0.0312-3.8515 0.29729-7.3854 1.6551-11.094 3.25-3.7084 1.5949-7.2845 3.4743-10 5.1562-14.01 8.6778-28.898 27.944-35.531 36.719-0.0931 0.0223-0.15463 0.0388-0.25 0.0625-19.624 4.8707-39.419 24.772-56.938 50.719-0.23808-0.30611-0.46985-0.59123-0.71875-0.90625a6.0233 6.0233 0 0 0 0 -0.0312c0.32509 0.41054 0.2785 0.32976-0.15625-0.21875-1.4357-1.8137-2.9203-3.6145-4.4375-5.4375-0.83337-1.0006-1.6644-1.9414-2.4375-2.8438-8.5769-10.015-18.363-19.963-28.844-27.406-10.481-7.4431-21.839-12.628-33.562-11.656-17.206 1.4266-29.618 6.6052-38.094 14.188-8.4758 7.5823-12.713 17.336-14.438 26.781-1.7248 9.4453-1.1148 18.692 0 26.25s2.8257 13.815 3.1875 15.688c5.8734 30.402 23.609 50.271 45.781 60.062a6.0233 6.0233 0 0 0 3.375 2.6875c5.5245 1.7241 11.682 2.9253 18.125 3.6875 0.0417 0.005 0.0833-0.005 0.125 0 0.0416 0.007 0.0833 0.0247 0.125 0.0312 1.2207 0.19126 2.4844 0.22716 3.7188 0.375-2.9715 10.07-5.9515 19.6-8.6875 26.188-7.6317 12.01-10.7 19.298-14.406 30.188-9.236 8.6213-15.443 22.851-17.281 42.969-2.3651 2.5222-4.009 5.3842-4.7188 8.3438a6.0233 6.0233 0 0 0 -0.71875 -0.0625c-0.90749-0.0129-1.781-0.00002-2.5938 0-3.2156 0.00007-7.0567 0.0995-10.969 1.1875-3.9121 1.088-8.3191 3.5788-10.531 8.25-3.4808 7.35-0.89575 15.471 4.75 18.844 2.8229 1.6862 6.4473 2.2816 9.875 1.125 2.4971-0.84258 4.6635-2.6032 6.25-4.9062l9 32.938c5.086 18.622 26.843 29.479 50.562 26.781 14.66-1.6675 28.413-8.0423 37.062-17.531 0.95523 3.881 1.9251 7.8851 3.125 13.844 0.37167 1.8457 0.94424 3.6642 2 5.4688s2.7637 4.1182 6.25 4.75c3.4863 0.63179 6.7868-1.4763 8.5312-3.625 1.7445-2.1487 2.9334-4.7349 4.1562-8.25 2.6938-7.7434 1.3216-16.652 0-24.469-0.60757-3.5932-1.2868-6.7356-1.875-9.25 2.088-1.5854 3.7875-3.685 5.1562-5.9375 2.5718-4.2324 4.3943-9.4406 5.625-15.344 1.8161-8.7107 2.3001-18.927 0.75-29.062 0.65155 0.18374 1.3199 0.37745 1.875 0.53125 2.084 0.57628 4.1044 1.0886 6.0625 1.5625-0.003-0.00084 0.0741 0.0201 0.25 0.0625 0.32472 0.0781 0.72825 0.2053 1.1875 0.3125 0.57987 0.13565 1.1335 0.24053 1.5938 0.34375 1.481 0.33087 2.9037 0.61912 4.2188 0.875 0.71507 0.13931 1.3757 0.2688 1.9688 0.375 1.8907 0.33785 3.6625 0.61318 5.3125 0.8125 1.0024 0.12166 1.889 0.19419 2.7188 0.25 2.0026 5.5299 2.5666 10.128 0.3125 19.969a6.0233 6.0233 0 0 0 9.8125 5.9062c7.1158-6.1584 13.452-13.791 17.125-23 1.1449-0.15652 2.2654-0.30585 3.4375-0.46875 1.9578-0.27232 3.8777-0.54839 5.875-0.84375 0.43032-0.0635 0.87627-0.12671 1.2812-0.1875 4.0327-0.60656 8.1747-1.3126 12.375-2.0938 0.88577-0.16443 1.7925-0.32466 2.6875-0.5 0.21273-0.0417 0.50295-0.0882 0.84375-0.15625 4.8344-0.96341 9.7037-2.066 14.562-3.4062 0.64492-0.17828 0.95159-0.31648 0.9375-0.3125 3.0738-0.86716 6.1787-1.7885 9.25-2.875 0.47015-0.16664 0.95876-0.35665 1.4375-0.53125 0.74657 7.7791 0.01 15.56-1.4688 21.531-0.96428 3.8949-2.2783 7.0316-3.25 8.5938-0.15048 0.24193-0.0965 0.15634-0.21875 0.3125-4.3962-0.35195-8.8438 1.3775-11.469 4.625-3.132 3.8749-4.1858 9.0783-3.4062 14.531 1.4805 10.356 0.72001 19.095 4.5 34.406 0.4314 1.7474 1.0119 3.4993 2.0625 5.25s2.7288 4.0335 6.2188 4.6875c3.4899 0.654 6.7785-1.4795 8.5-3.625s2.9063-4.7156 4.125-8.2188c2.5296-7.2714 2.1701-16.293 1.6875-24.219-0.3575-5.8718-0.76595-8.4603-1.0625-10.719 3.979-3.3233 6.78-8.1101 8.875-13.625 5.711 6.4161 14.415 11.351 24.938 13.5 19.264 3.9353 35.677-3.3749 41.781-16.25l14.05-29.6c0.38645-0.81509 0.55949-1.704 0.8125-2.5625 0.42154-0.63264 0.7047-1.5268 0.875-2.5938h0.0625c0.0158-0.0962 0.0158-0.18523 0.0312-0.28125 0.005-0.0398 0.0272-0.0532 0.0312-0.0937 2.7324-17.067-0.20411-31.016-6.8125-41.062 0.56275-3.4266 0.29868-7.2455-1.0938-11.156-1.833-5.1482-5.9161-10.312-12.406-13.406-5.9179-2.8212-11.74-7.0691-16.812-11.25l-7.0938-24.062c-0.48974-3.7678-1.0794-7.5653-1.8438-11.375-0.18236-0.90872-0.38517-1.7736-0.5625-2.5938-0.86371-3.9989-2.0049-8.0494-3.1562-12.094 10.774-7.1152 21.338-16.93 30.094-36.25 6.1797-13.636 5.9841-35.321-0.0625-53.438-3.0233-9.0584-7.6392-17.331-15.062-22.438-7.4233-5.1063-17.673-6.0491-28.188-1.3125-14.52 6.5409-21.089 19.189-25.906 31.469-4.2135-6.5267-8.5742-13.072-13.281-19.656-1.7824-2.4932-3.9978-4.5282-6.3438-6.3438 5.2533-8.5634 8.9113-16.927 14.875-22.156 3.2582-2.857 10.216-7.1675 16.156-11.312 2.97-2.0725 5.7192-4.0926 7.9688-6.4375 1.1248-1.1724 2.1658-2.4243 2.9688-4.1562 0.80299-1.732 1.3143-4.3106 0.40625-6.7812-0.75777-2.0618-2.7186-3.8225-4.4375-4.5-1.7189-0.67754-3.1757-0.68873-4.4688-0.59375-2.5861 0.18996-4.8128 0.95974-7.1875 1.9688-4.7493 2.018-9.7187 5.0837-13.594 8.7188-9.8554 9.2449-20.646 24.418-27.562 34.438l2.0625-6.875a6.0233 6.0233 0 0 0 -7.8438 -7.4062c-1.7611 0.65107-3.2379 1.5633-4.625 2.5938a6.0233 6.0233 0 0 0 -7.2188 -0.59375c-3.2304 2.0302-7.6479 4.0957-13.188 9.75-0.54163-0.0782-0.5489-0.11483-1.2188-0.1875 3.1587-4.741 6.47-9.0432 11.281-12.094 3.7909-2.4036 11.572-5.9564 18.188-9.5 3.308-1.7718 6.3635-3.5299 8.9062-5.6562 1.2714-1.0632 2.4764-2.2007 3.4688-3.9375 0.99239-1.7368 1.6673-4.5753 0.71875-7.1562-0.83217-2.2642-3.0845-4.018-4.8125-4.5938-0.864-0.28788-1.6305-0.41759-2.3438-0.46875zm-175.47 279.59c3.4865 0.96431 6.849 1.7116 9 2.2812 2.9477 0.7806 4.3525 1.5049 6.3125 2.4375s4.6028 2.1034 8.1562 2.625c2.4415 0.35838 4.3566 0.47737 6.375 0.15625 0.51339-0.0817 1.0758-0.36655 1.625-0.5625 0.90415 2.3391 1.7465 4.9309 2.5312 7.8125-6.7974-0.0629-14.057 0.19753-21.938 1.125-2.902 0.34153-5.4422 0.89246-8.1875 1.3438a6.0233 6.0233 0 0 0 -0.0625 -0.0312c-2.5558-1.1956-5.805-2.5231-9.2812-3.7188 1.3073-5.2178 3.1995-9.7652 5.4688-13.469zm58.44 6.47c4.9992 2.6351 10.145 4.9177 15.281 6.9688 3.0459 7.1234 3.1409 17.225 1.1562 25.781-1.0688 4.6078-2.6855 8.7186-4.1875 11.375s-3.3684 2.955-1.2812 2.6875c-0.45183 0.0579-0.9183 0.17057-1.375 0.25l-0.03-25.28a6.0233 6.0233 0 0 0 -0.0625 -0.6875c-0.34023-2.9222-2.142-5.3915-4.0625-6.9062-0.89192-0.70348-1.8019-1.2603-2.7812-1.75-0.57574-4.3483-1.4658-8.5016-2.6562-12.438z"/>
    <path id="path3743" style="fill:#ffeeaa" d="m409.89 488.38c13.536 17.53 1.9239 52.898-5.9743 53.91-6.3761 0.81715-11.465 4.044-9.7444 12.23 3.0382 14.452 4.6694 18.466 7.612 33.079 1.0619 5.2736 4.9849 10.123 9.3514-2.4282 3.6614-10.525-3.2397-35.121-3.2397-35.121 10.984-0.96821 18.962-35.45 8.7955-60.339l-6.8006-1.3314z"/>
    <path id="path3759" style="fill:#a05a2c" d="m590.19 442.91c-14.162 0.20523-28.783 9.6488-35.219 28.906-4.5314 2.8426-7.4819 6.6794-7.7188 11.344l-1.625 32c-0.55173 10.865 10.001 22.139 27.219 25.656 17.218 3.5173 30.464-3.1075 35.125-12.938l14.04-29.6c0.5153-1.1576 0.81617-2.3939 1.25-3.5312 5.6532-34.337-13.248-52.131-33.062-51.844zm-1.5625 10.688c12.942-0.0845 25.313 11.057 26.094 25.719-6.29-5.402-15.5-9.8715-25.406-11.875-7.2788-1.544-14.731-1.5217-22.031-0.21875 5.7744-9.5752 13.659-13.575 21.344-13.625z"/>
    <path id="path3745" style="fill:#ffeeaa" d="m533.46 482.3c10.363 23.876 0.47875 55.788-5.9742 53.91-6.1721-1.7964-10.928 3.9493-9.7444 12.23 1.5801 11.052 0.79321 19.194 4.3977 33.794 1.2894 5.2227 4.9849 10.123 9.3514-2.4282 3.6614-10.525-0.0254-35.835-0.0254-35.835 12.251-6.6687 19.544-40.593 8.7955-62.864l-6.8006 1.194z"/>
    <path id="path3707" style="fill:#ffffff" d="m533.36 316.97c12.259-17.514 12.366-46.212 35.355-56.569 36.414-16.404 45.367 47.103 35.355 69.195-13.46 29.702-29.463 34.345-47.477 45.457l-23.234-58.084z"/>
    <path id="path3705" style="fill:#ffffff" d="m410.12 334.14c-1.5152-3.0305-48.522-80.415-86.368-77.277-65.056 5.3939-45.927 65.487-43.942 75.761 10.319 53.414 57.242 70.037 101.02 60.104l29.294-58.589z"/>
    <path id="path3821" style="opacity:.15;fill:#2b0000" d="m378.69 291.06c-10.048 13.008-20.459 39.108-28.288 55.434-4.1265 2.4728-8.7482 4.0526-11.715 11.406-4.5682 11.323-10.386 21.714-13.854 32.883 15.761 4.9188 38.781 5.8363 55.982 1.933l10.281-20.562 16.062-42.938c-4.8892-7.7527-15.394-23.349-28.469-38.156z"/>
    <path id="path3964" style="opacity:.3;fill:#2b0000" d="m590.19 442.91c-13.542 0.19624-27.489 8.8441-34.312 26.438 3.3515-0.61379 6.9068-1.9221 11.469-2.5312 0.0926-0.0451 0.18844-0.0812 0.28125-0.125 5.7418-9.1777 13.465-13.045 21-13.094 12.942-0.0845 25.313 11.057 26.094 25.719-0.005 0.0177 0.0934 3.5076-0.625 6.6875-1.7355-5.2373-11.474-11.138-24.219-14.188-15.105-3.6143-28.711-1.8382-30.375 3.9375-1.6643 5.7757 9.239 13.386 24.344 17 14.273 3.4152 27.185 2.0352 29.969-3 0.52633 2.4631 2.7505 2.7152 4.9375 3.3125 1.0522-15.688 7.4696-31.285-26.375-50.094-0.73111-0.039-1.4527-0.0731-2.1875-0.0625z"/>
    <path id="path3770" style="fill:#ffeeaa" d="m575.28 382.62-15.156 8.5938 19.688 44.188s-0.50175 6.5734 2.7812 8.5938c0 0 2.5473-0.27031 4.0625 1.75 0.54233 1.175 1.7797 3.3854 3.125 5.6562-6.6827-0.95439-8.2208 0.97349-7.4375 4.2188 5.1725 4.5642 8.729 4.2027 12.156 3.5312 0.0534 0.0853 0.46875 0.75 0.46875 0.75 6.1039 6.9108 11.882 2.3305 11.625 2.0312-3.153-4.6941-5.3605-8.6186-1.25-14.656 1.1106-1.6313 6.3919 3.5881 10.594 8.3438 1.8794-5.306 0.73264-15.546-9.5938-20.469-7.1631-3.4148-13.886-8.4384-19.438-13.125l-11.625-39.406z"/>
    <path id="path3937" style="opacity:.3;fill:#2b0000" d="m540.25 481.12-6.7812 1.1875c3.5224 8.1156 4.6949 17.139 4.4688 25.469 1.1385-4.589 1.1738-9.8084 6.7812-11.844-0.80024-5.2042-2.2676-10.252-4.4688-14.812z"/>
    <path id="path3960" style="opacity:.3;fill:#2b0000" d="m550 478.78-2.8125 5.6875-1.5625 30.688c-0.55173 10.865 10.001 22.139 27.219 25.656 10.834 2.2132 20.085 0.40216 26.625-3.6875-0.36179-11.584 0.038-23.795 4.8125-36.906-25.119 1.0268-37.495-2.7053-54.281-21.438z"/>
    <path id="path2891" style="fill:#ffeeaa" d="m507.69 209.47c-4.7329 0.36532-13.651 4.5862-18.406 7.5312-12.682 7.8551-29.444 29.296-35.25 37-0.73899 0.15809-1.4852 0.31019-2.25 0.5-49.569 12.303-127.69 156.77-81.062 211.44 22.773 26.7 81.324 37.254 85.505 35.052l18.432 4.5726c31.371-6.9301 78.227-10.287 94.625-43.562 26.281-53.331 3.4964-120.97-47.125-191.78-2.2994-3.2164-5.7653-5.9098-9.625-8.1875 6.5891-9.193 10.335-20.663 19.094-28.344 8.1152-7.1158 27.775-16.753 25.812-22.094-1.3653-3.7147-13.566 1.9904-19.906 7.9375-10.603 9.9459-25.249 30.957-30.969 39.406-2.9985-1.4062-6.0215-2.6368-8.7188-3.7188l4.3125-14.281c-4.5765 1.6919-10.231 8.7532-15.719 15-1.4617-2.4382 0.75872-7.3223 5-13.562-4.389 2.7583-8.1175 3.8675-14.281 11.062 0 0-5.4959-1.4445-14.344-0.75 5.4114-8.2211 9.7052-17.098 19.062-23.031 9.1153-5.7795 30.807-13.753 28.844-19.094-0.34132-0.92868-1.4536-1.2155-3.0312-1.0938z"/>
    <path id="path3753" style="fill:#333333" d="m478.81 286.88c-4.1098-0.0238-8.6474 4.4628-10.594 8.6875-2.21 4.78 1.78 14.31 1.78 14.31s-8.0052 0.92616-6.4375 1.7812c1.9643 1.0714 19.996 0.71875 23.031-0.53125-1.1106-5.9693 1.3565-23.228-7.7812-24.25z"/>
    <path id="path3665" style="fill:#ffffff" d="m479.11 291.18c6.4625 0.36186 2.5749 11.802 4.0893 17.799l-9.0982 0.51339c-4.716-5.8623-3.7493-17.742 5.0089-18.312z"/>
    <path id="path3749" style="fill:#333333" d="m501.59 279.91c-2.765 0.16952-5.4401 1.5446-6.7812 4.5938-0.92073 2.0933-1.5938 25.375-1.5938 25.375 7.3536 1.447 14.862-3.1579 26.25-3.9375 0 0-2.7383-1.4417-4.6562-2.875-1.1197-6.4491-2.2984-13.681-4.625-18.75-1.3087-2.8514-5.0388-4.6242-8.5938-4.4062z"/>
    <path id="path3675" style="fill:#333333" d="m495.18 311.29c-2.7903-1.4217-9.2857 1.4286-9.2857 1.4286-2.2974 0.35345-6.7857 4.4643-5.3571 4.4643 5.5455-1.3184 11.114-1.9471 16.786-1.25 0 0-0.17407-3.6397-2.1429-4.6429z"/>
    <path id="path3942" style="opacity:.3;fill:#2b0000" d="m580.34 420.75-5.2812 4 4.75 10.656s-0.50175 6.5734 2.7812 8.5938c0 0 2.5473-0.27031 4.0625 1.75 0.54233 1.175 1.7797 3.3854 3.125 5.6562-6.6827-0.95439-8.2208 0.97349-7.4375 4.2188 5.1725 4.5642 8.729 4.2027 12.156 3.5312 0.0534 0.0853 0.46875 0.75 0.46875 0.75 6.1039 6.9108 11.882 2.3305 11.625 2.0312-1.3307-1.9811-2.5037-3.8264-3.0938-5.75-1.2475 0.0858-2.3768-0.23235-3.4688-2.3438-1.8922-3.6586 0.21087-8.682 1.5-12.875-8.6726-4.4854-15.881-11.021-21.188-20.219z"/>
    <path id="path3690" style="fill:#333333" d="m391.47 313.41c-5.5294 9.0619-10.686 18.727-15.25 28.688 60.245-11.099 120.91-11.825 182.12-11.969-1.2607-2.6087-2.5783-5.217-3.9375-7.8438-29.264-0.13496-129.42-3.5346-162.94-8.875zm173.88 33.125c-46.473-0.19542-169.66 19.212-202.44 31.375-3.2005 11.378-5.3316 22.661-6.125 33.406 72.983-22.668 146.52-27.773 220.66-26.312-2.4452-12.49-6.4344-25.336-11.781-38.469-0.11017-0.00069-0.20145 0.00047-0.3125 0zm-72.062 63.562c-53.276 0.20576-97.759 10.195-134.62 30.906 2.203 9.4672 6.0979 17.944 12.062 24.938 2.2331 2.6182 4.7976 5.1091 7.625 7.4375 61.562-19.064 121.18-16.928 185.78-3 1.9362-2.5834 3.6712-5.3614 5.1562-8.375 6.926-14.055 10.438-29.099 10.938-44.938-31.271-4.7041-60.216-7.072-86.938-6.9688zm4.5 72.938c-30.444 0.0671-60.009 1.7566-80.562 10.781 19.096 6.6988 36.295 9.3488 38.5 8.1875 3.3488 8.0799 5.0976 14.523 2.125 27.5 7.5603-6.5431 14.025-14.471 16.812-23.938 23.647-3.2167 54.454-7.2392 75.75-22.125-14.679 0.0636-30.37-0.33557-46-0.40625-2.209-0.01-4.4221-0.005-6.625 0z"/>
    <path id="path3922" style="opacity:.3;fill:#2b0000" d="m405.28 541.78c-0.46429 0.26667-0.92919 0.44287-1.375 0.5-6.3761 0.81715-11.471 4.0332-9.75 12.219 3.0382 14.452 4.6824 18.48 7.625 33.094 0.76822 3.815 3.0275 7.3686 5.875 4.3125-2.0963-5.7829-10.27-36.262-8.6453-41.843 1.1509-3.9536 3.9849-4.2269 6.2703-8.282z"/>
    <path id="path3732" style="fill:#a05a2c" d="m344.22 453.62c-17.92 0.64954-34.238 18.32-34.031 60-6.8599 2.9895-10.853 6.277-10.5 9.3125l11.25 41.156c4.0334 14.768 22.578 24.85 44.062 22.406 21.485-2.4437 40.765-16.862 40.75-32.344l-0.0312-42.875c-0.25107-2.1564-2.4659-3.8197-6.3125-5.0625-2.7621-32.453-24.988-53.326-45.188-52.594zm3.875 12.312c10.876-0.35526 22.033 10.491 27.406 38-8.1972-0.57262-18.231-0.32618-28.969 0.9375-9.736 1.1458-18.689 2.9945-26.125 5.1562 0.55769-25.209 13.893-43.643 27.688-44.094z"/>
    <path id="path3772" style="opacity:.3;fill:#280b0b" d="m443.96 260.91c5.2191-4.4065 14.479-5.6231 19.698-6.0609-110.87 155.68-31.988 197.48 0.50507 245.47-25.266 2.5638-58.356-14.246-85.246-32.526-45.186-30.717-8.8839-160.57 65.043-206.88z"/>
    <path id="path3896" style="opacity:.25;fill:#2b0000" d="m334.56 455.78c-13.719 5.8445-24.544 23.852-24.375 57.844-6.8599 2.9895-10.853 6.277-10.5 9.3125l11.25 41.156c4.0334 14.768 22.578 24.85 44.062 22.406 7.0079-0.79709 13.773-2.8772 19.719-5.8438-9.0592 0.49951-19.907 2.1015-29.487-7.8725-5.6788-5.9124-9.4649-52.949-10.201-66.19-5.3051 0.97864-10.229 2.1594-14.625 3.4375 0.55769-25.209 13.893-43.643 27.688-44.094 10.876-0.35526 22.033 10.491 27.406 38l6.8438 1.4375s-7.3459-31.448-19.44-41.422c-7.5498-6.2264-28.341-8.1715-28.341-8.1715z"/>
    <path id="path3730" style="fill:#ffeeaa" d="m377.63 344.19c-11.14-12.826-23.789 56.816-35.684 85.224-9.7331 15.197-11.415 21.161-17.202 38.517-2.553 7.6569 12.176 9.6247 19.533 11.573 6.9046 1.8284 8.1319 4.0563 13.83 4.8928 8.454 1.2409 6.1786-1.9333 7.302-4.1144 3.4827-2.388-8.3473-12.341-9.7348-14.547-1.7887-2.8441-0.33997-7.0748 2.4432-7.4915 5.1804-0.77565 7.1299 2.7466 10.619 5.0562-1.6767-6.3264-0.69436-21.486-11.942-23.721-2.4313-0.48313-6.8481-3.3381-6.9886-8.6461l21.282-62.78c1.6618-4.9021 6.0653 0.0922 9.1225 0.28203l-2.5818-24.244z"/>
    <path id="path3755" style="fill:#ffdd55" d="m317.41 500.34c-2.6615 0.0589-5.1654 0.7815-7.25 2.5625-11.052 9.4429-0.25886 23.819 9.4375 14.719 8.2415-7.7348 8.8633-10.756 15.406-11.938-5.0495-2.3622-11.738-5.4734-17.594-5.3438z"/>
    <path id="path3670" style="fill:#ffffff" d="m506.59 285.41c4.8438 4.4813 4.5775 17.311 4.1071 17.848-1.25 1.4286-12.67 2.5-12.67 2.5s-3.7905-16.871 2.3259-21.241c2.3124-1.344 4.2637-0.49222 6.2366 0.89286z"/>
    <path id="path3826" style="opacity:.25;fill:#2b0000" d="m473 294.72c-2.6556 4.1103-2.0937 10.819 1.0938 14.781l8.875-0.53125c-5.3172-0.60058-8.428-5.6459-9.9688-14.25z"/>
    <path id="path3831" style="opacity:.25;fill:#2b0000" d="m497.38 289.84c-1.4469 6.5814 0.65625 15.906 0.65625 15.906s6.9473-0.62699 10.594-1.5938c-7.9075-1.0694-9.4365-5.9488-11.25-14.312z"/>
    <path id="path3902" style="opacity:.25;fill:#2b0000" d="m309.72 503.31c-10.296 9.4413 0.31501 23.285 9.875 14.312 1.445-1.3562 2.6067-2.5119 3.6562-3.5938-9.2977 3.9612-18.421 1.9726-13.531-10.719z"/>
    <path id="path3908" style="opacity:.6;fill:#ffffff" d="m311.96 502.54c-1.5848 1.2349 1.3654 4.3031 4.1964 2.3214 1.7857-1.25 5.625-3.2143 5.625-3.2143-3.1752-0.57101-6.4827-1.7088-9.8214 0.89286z"/>
    <path id="path3910" style="fill:#ffdd55" d="m284.17 515.55c-2.0082 0.79822-3.7085 2.0568-4.7903 4.0018-5.7354 10.313 6.5457 18.194 11.346 8.5262 4.0805-8.2175 3.6982-10.692 8.3416-13.443-4.5103-0.36775-10.48-0.8412-14.898 0.91497z"/>
    <path id="path3912" style="opacity:.25;fill:#2b0000" d="m279.16 519.98c-5.1601 10.097 6.831 17.625 11.564 8.0933 0.71546-1.4408 1.2721-2.6489 1.7643-3.7691-5.9522 5.6456-13.456 6.7153-13.329-4.3243z"/>
    <path id="path3914" style="opacity:.6;fill:#ffffff" d="m280.65 518.76c-0.8561 1.3881 2.2569 2.8872 3.8497 0.57819 1.0047-1.4565 3.3695-4.0377 3.3695-4.0377-2.5773 0.46442-5.4156 0.53504-7.2192 3.4595z"/>
    <path id="path3916" style="opacity:.3;fill:#2b0000" d="m325.5 465.72c-0.25037 0.75326-0.4834 1.4191-0.75 2.2188-2.553 7.6569 12.174 9.6142 19.531 11.562 6.9046 1.8284 8.1141 4.0698 13.812 4.9062 8.454 1.2409 6.189-1.9439 7.3125-4.125 2.9742-2.0393-5.1797-9.5564-8.5-13.094-2.928 2.1072-4.8547 5.8776-9.0491 5.8795-9.5993 0.004-16.019-3.6253-22.357-7.3482z"/>
    <path id="path3927" style="opacity:.3;fill:#2b0000" d="m525.25 535.88c-5.029 0.01-8.5358 5.3173-7.5 12.562 1.5801 11.052 0.77047 19.212 4.375 33.812 0.96705 3.917 3.3081 7.6408 6.25 3.9688-3.5508-6.3193-7.7782-16.256-8.6562-40.438-0.37206-10.247 5.8134-7.1784 9-9.5938-0.42434 0.13639-0.81544 0.14864-1.2188 0.0312-0.77152-0.22455-1.5316-0.34511-2.25-0.34375z"/>
    <path id="path3950" style="fill:#ffdd55" d="m571.19 475.31c-5.0434 0.0894-9.1832 0.97954-11.781 2.5625 1.0756 5.398 11.14 11.693 24.438 14.875 11.754 2.8126 22.579 2.3667 27.594-0.6875-1.0432-5.4049-11.115-11.687-24.438-14.875-5.6643-1.3554-11.123-1.9582-15.812-1.875z"/>
    <path id="path3970" style="opacity:.7;fill:#ffffff" d="m591.43 484.51a3.9286 2.1429 0 1 1 -7.8571 0 3.9286 2.1429 0 1 1 7.8571 0z" transform="matrix(.93051 .36626 -.36626 .93051 229.35 -180.44)"/>
  </g>
  <metadata>
    <rdf:RDF>
      <cc:Work>
        <dc:format>image/svg+xml</dc:format>
        <dc:type rdf:resource="http://purl.org/dc/dcmitype/StillImage"/>
        <cc:license rdf:resource="http://creativecommons.org/licenses/publicdomain/"/>
        <dc:publisher>
          <cc:Agent rdf:about="http://openclipart.org/">
            <dc:title>Openclipart</dc:title>
          </cc:Agent>
        </dc:publisher>
        <dc:title>bee</dc:title>
        <dc:date>2011-02-02T19:22:42</dc:date>
        <dc:description>A cute Cartoon bee with some honey pots.</dc:description>
        <dc:source>https://openclipart.org/detail/116869/bee-by-tzunghaor</dc:source>
        <dc:creator>
          <cc:Agent>
            <dc:title>tzunghaor</dc:title>
          </cc:Agent>
        </dc:creator>
        <dc:subject>
          <rdf:Bag>
            <rdf:li>animal</rdf:li>
            <rdf:li>bee</rdf:li>
            <rdf:li>cartoon</rdf:li>
            <rdf:li>honey</rdf:li>
          </rdf:Bag>
        </dc:subject>
      </cc:Work>
      <cc:License rdf:about="http://creativecommons.org/licenses/publicdomain/">
        <cc:permits rdf:resource="http://creativecommons.org/ns#Reproduction"/>
        <cc:permits rdf:resource="http://creativecommons.org/ns#Distribution"/>
        <cc:permits rdf:resource="http://creativecommons.org/ns#DerivativeWorks"/>
      </cc:License>
    </rdf:RDF>
  </metadata>
</svg>
