<?xml version="1.0" encoding="UTF-8" standalone="no"?>
<svg width="336px" height="262px" viewBox="0 0 336 262" version="1.1" xmlns="http://www.w3.org/2000/svg" xmlns:xlink="http://www.w3.org/1999/xlink">
    <!-- Generator: Sketch 39.1 (31720) - http://www.bohemiancoding.com/sketch -->
    <title>Slice 1</title>
    <desc>Created with Sketch.</desc>
    <defs></defs>
    <g id="Page-1" stroke="none" stroke-width="1" fill="none" fill-rule="evenodd">
        <g id="17">
            <g id="Group">
                <g transform="translate(227.000000, 161.000000)" id="Shape">
                    <path d="M1.8951,80.993 C0.9498,87.5535 5.4976,93.6385 12.0582,94.5838 L16.5816,95.2391 C23.1412,96.1834 29.2271,91.6346 30.1734,85.075 L35.9117,15.5106 C36.857,8.95 36.5924,2.9939 30.0328,2.0472 L25.5094,1.3939 C18.9498,0.4471 19.0045,7.5438 18.0582,14.1014 L1.8951,80.993 L1.8951,80.993 Z" fill="#FFFFFF"></path>
                    <path d="M3.6302,81.3035 C3.2217,84.003 3.8903,86.6998 5.4615,88.8844 C7.0373,91.0889 9.5093,92.6309 12.2164,93.0587 L16.8091,93.7825 C18.2308,94.0035 19.5849,93.9349 20.9407,93.6159 C23.6301,92.9811 26.0613,91.2267 27.5229,88.8385 C28.258,87.6487 28.7561,86.3104 28.9822,84.9166 L29.4329,80.3175 L30.3251,70.9687 C30.9016,64.7346 31.5357,58.5053 32.065,52.2674 L33.6858,33.5562 L34.4455,24.1965 C34.7073,21.0583 34.8963,17.9945 35.2178,14.7952 C35.4113,13.2762 35.5431,11.7405 35.5047,10.2412 C35.4589,8.749 35.246,7.2607 34.6406,6.0108 C34.0503,4.7554 33.0193,3.8206 31.7105,3.3436 C31.0512,3.0962 30.3779,2.9656 29.6165,2.8673 L27.2893,2.5571 C26.5271,2.4619 25.7076,2.332 24.9924,2.2653 C24.3083,2.2133 23.6438,2.2445 23.0616,2.4513 C21.8891,2.8104 21.1244,3.8989 20.6388,5.2322 C19.7009,7.9491 19.5918,11.1288 19.1555,14.2595 L19.1498,14.3002 L19.1358,14.3617 L11.497,47.9144 L7.642,64.6822 C7.0082,67.4789 6.3473,70.2691 5.6755,73.0567 C5.0287,75.8141 4.3106,78.5542 3.6302,81.3035 L3.6302,81.3035 Z M0.1853,80.5798 C0.8444,77.7892 1.4633,74.9889 2.1552,72.2062 C2.8304,69.4195 3.5164,66.6354 4.2295,63.8578 L8.456,47.1798 L16.9803,13.841 L16.9607,13.9429 L17.6216,9.2965 C17.872,7.7243 18.149,6.1206 18.765,4.5189 C19.0847,3.7244 19.4876,2.9183 20.1078,2.2081 C20.7152,1.4931 21.5635,0.9179 22.4794,0.6442 C23.3871,0.3507 24.3248,0.3424 25.192,0.4307 C26.033,0.5312 26.7573,0.6659 27.5457,0.7817 L29.8656,1.1427 C30.6527,1.2607 31.5234,1.4433 32.3233,1.7685 C33.9571,2.3698 35.413,3.6997 36.1266,5.2994 C36.8729,6.8895 37.0725,8.5822 37.1135,10.2041 C37.1407,11.8364 36.9881,13.4279 36.7739,15.0106 C36.4459,18.0356 36.2177,21.2217 35.9347,24.3194 L35.1505,33.6771 L33.6833,52.4009 C33.1833,58.6413 32.788,64.8903 32.3352,71.1345 L31.6834,80.5032 L31.3595,85.2625 C31.1361,86.9669 30.5746,88.6372 29.7086,90.1375 C27.9869,93.1485 25.0334,95.4377 21.6475,96.349 C19.9729,96.8138 18.1413,96.9285 16.4634,96.7085 L11.7628,96.0855 C8.2626,95.6229 4.9598,93.6916 2.8215,90.8463 C1.7454,89.4305 0.9457,87.7996 0.4886,86.0701 C0.0263,84.3665 -0.0757,82.4636 0.1484,80.7862 L0.1637,80.6718 L0.1853,80.5798 L0.1853,80.5798 Z" fill="#000000"></path>
                </g>
                <path d="M263.1178,220.6443 C263.1178,220.6443 265.6988,228.6873 264.3277,230.8641 C263.7682,231.7518 260.981,232.0047 260.1578,231.3543 C258.3619,229.9363 259.0875,222.2645 259.0875,222.2645 C257.6373,222.7039 256.1178,223.0037 254.5377,223.1541 C254.5377,223.1541 256.7701,233.5516 254.5377,235.784 C253.6539,236.6678 250.4215,236.6678 249.5377,235.784 C247.3053,233.5516 249.5377,223.1541 249.5377,223.1541 C247.7877,222.9842 246.0973,222.6336 244.4976,222.1141 C244.4976,222.1141 244.3883,229.3113 242.6881,230.6941 C241.8726,231.3572 239.151,230.7039 238.5777,229.824 C237.2691,227.8133 240.5572,220.4344 240.5572,220.4344 C234.4381,217.1238 230.3678,211.2342 230.3678,204.534 C230.3678,194.1736 240.068,185.784 252.0377,185.784 C264.0074,185.784 273.7076,194.1736 273.7076,204.534 C273.7076,211.3836 269.4674,217.3738 263.1178,220.6443 L263.1178,220.6443 Z" id="Shape" stroke="#000000" fill="#E6428E"></path>
                <g transform="translate(72.000000, 153.000000)" id="Shape">
                    <path d="M2.356,78.8895 C0.8121,85.3348 4.7848,91.8113 11.2301,93.3553 L15.6754,94.4207 C22.1207,95.9647 28.5973,91.991 30.1412,85.5467 C30.1412,85.5467 35.5992,44.8201 46.4859,17.3211 C48.9254,11.159 44.0572,4.3992 37.6119,2.8553 L33.1666,1.7898 C26.7218,0.2459 24.7589,7.3299 23.3839,13.8123 C16.8067,44.8201 2.356,78.8895 2.356,78.8895 L2.356,78.8895 Z" fill="#FFFFFF"></path>
                    <path d="M3.4876,79.2408 L3.3705,79.7744 L3.2793,80.3358 C3.2284,80.73 3.1911,81.1264 3.1835,81.524 C3.163,82.319 3.2303,83.1167 3.3834,83.8991 C3.6897,85.4648 4.3583,86.9603 5.3036,88.255 C6.2576,89.5439 7.4938,90.6266 8.91,91.3913 C9.619,91.7716 10.3707,92.0741 11.1484,92.2928 L13.6812,92.9343 L16.2229,93.5602 C17.0264,93.7361 17.8134,93.8209 18.6348,93.8211 C20.2589,93.8144 21.8821,93.4387 23.3575,92.7392 C24.8277,92.0306 26.1529,91.0052 27.1894,89.7346 C28.2267,88.4654 28.981,86.9649 29.3823,85.3648 L29.3678,85.4428 C30.4882,77.9948 31.8337,70.6102 33.3366,63.2466 C34.8075,55.8798 36.4514,48.5454 38.3581,41.2755 C39.3131,37.6416 40.2806,34.0085 41.389,30.4145 C41.9103,28.6079 42.492,26.8192 43.094,25.0363 L43.9838,22.358 L44.9633,19.7088 L45.9354,17.0779 C46.1043,16.6175 46.2293,16.2284 46.3171,15.8041 C46.4177,15.3782 46.4681,14.9422 46.4977,14.5063 C46.6007,12.7595 46.1538,10.9842 45.2842,9.4404 C43.5473,6.3224 40.3936,4.0878 36.8603,3.4162 L34.1192,2.782 C33.1946,2.569 32.3173,2.337 31.5198,2.3433 C29.8581,2.3088 28.4228,3.2212 27.4518,4.641 C26.4625,6.046 25.8299,7.7712 25.3202,9.5187 C24.8042,11.2816 24.4561,13.0817 24.0546,14.9396 C23.6497,16.7724 23.2721,18.6055 22.8448,20.4381 L21.5074,25.9359 L20.0636,31.3935 L18.5262,36.8241 C17.4664,40.434 16.3665,44.0317 15.2164,47.6131 C14.0636,51.1935 12.8655,54.7589 11.6333,58.3126 C10.3543,61.8494 9.0612,65.381 7.705,68.8893 C6.3447,72.357 4.9538,75.7999 3.4876,79.2408 L3.4876,79.2408 Z M1.269,78.4284 C2.6778,74.9829 4.0295,71.4833 5.3419,67.9828 C6.686,64.4912 7.9709,60.9766 9.2398,57.4569 C10.5187,53.9407 11.772,50.4151 12.9759,46.8727 C14.1782,43.3297 15.3305,39.7707 16.4429,36.1993 L18.0595,30.8272 L19.5828,25.4292 L20.9948,20.0143 C21.4493,18.2011 21.859,16.3656 22.2933,14.5424 C22.7143,12.7415 23.1093,10.8597 23.6781,9.029 C24.2501,7.1987 24.9381,5.3471 26.1382,3.6896 C26.7367,2.8692 27.4982,2.1043 28.4422,1.5746 C29.3802,1.0342 30.4855,0.7927 31.5354,0.8125 C32.623,0.8322 33.5686,1.1222 34.4654,1.337 L37.1962,2.0143 C41.0245,2.8075 44.5411,5.3433 46.398,8.8356 C47.3316,10.5735 47.8475,12.579 47.713,14.5823 C47.6766,15.081 47.6144,15.5798 47.4974,16.0664 C47.3925,16.5604 47.2232,17.0643 47.0656,17.4825 L46.071,20.1236 L45.0826,22.746 L44.182,25.402 C43.5727,27.1699 42.9832,28.9446 42.4531,30.7397 C41.902,32.5278 41.3465,34.3146 40.8579,36.1222 C40.3576,37.926 39.8246,39.7209 39.387,41.5422 C37.5262,48.7969 35.9197,56.1183 34.4981,63.4745 C33.1236,70.8368 31.8939,78.2402 30.9146,85.65 L30.9099,85.6852 L30.9,85.7284 C30.4794,87.5547 29.6497,89.2932 28.4847,90.7739 C27.321,92.2565 25.8186,93.4688 24.1321,94.3205 C22.4409,95.1632 20.5601,95.6382 18.6607,95.6819 C17.7208,95.7031 16.7448,95.6144 15.8247,95.4293 L13.2239,94.8413 C12.3539,94.637 11.5333,94.4629 10.6226,94.2339 C9.7003,93.9934 8.8017,93.6518 7.9501,93.2153 C6.2481,92.3383 4.7462,91.0751 3.5763,89.554 C2.4147,88.0273 1.5768,86.2467 1.1697,84.361 C0.9661,83.4188 0.8658,82.4529 0.8723,81.487 C0.8729,81.0039 0.908,80.5214 0.9614,80.0414 C0.9878,79.7996 1.0334,79.5448 1.0704,79.2972 L1.2202,78.5471 L1.269,78.4284 L1.269,78.4284 Z" fill="#000000"></path>
                </g>
                <g transform="translate(73.000000, 70.000000)" id="Shape">
                    <path d="M156.1383,140.907 C140.8482,142.9568 124.7379,143.7469 109.0777,143.7469 C102.9679,143.7469 97.0977,143.5867 91.4879,143.2566 C89.4976,143.1473 87.5377,143.0066 85.6178,142.8465 C50.1578,139.9764 25.398,130.0867 13.2276,112.2967 C11.3477,109.5564 9.7677,106.6268 8.4976,103.5066 C6.3678,98.2869 5.0977,92.5267 4.7179,86.2269 C4.628,84.867 4.588,83.4866 4.588,82.077 C4.588,49.5369 -13.622,32.8567 38.6978,18.7366 C53.9679,14.617 75.2276,10.7166 104.7179,6.7068 C106.1676,6.5066 107.648,6.3069 109.1378,6.1067 C125.6876,3.907 139.8775,2.6868 152.0777,2.367 C222.6578,0.4568 226.5074,28.0369 235.108,63.8968 C235.5777,65.867 235.9674,67.8069 236.2779,69.7068 C243.7682,115.6365 203.9879,134.4764 156.1383,140.907 L156.1383,140.907 Z" fill="#FFFFFF"></path>
                    <path d="M156.4909,143.65 C156.4909,143.65 154.0688,143.9637 149.4076,144.4197 C144.776,144.8674 137.9749,145.4158 129.3165,145.7288 C120.6533,146.0194 110.1606,146.1799 98.0892,145.6543 C96.5812,145.5872 95.0496,145.4986 93.495,145.3975 C92.7117,145.3421 91.9225,145.2862 91.1274,145.23 C90.3454,145.1638 89.5578,145.0972 88.7644,145.03 C87.971,144.9628 87.172,144.8952 86.3673,144.8271 L85.7627,144.7759 L85.1071,144.7122 L83.8905,144.5784 C82.2629,144.3994 80.6132,144.218 78.9419,144.0341 C72.1751,143.1617 65.1454,141.9804 57.9056,140.1672 C50.6809,138.3445 43.2537,135.8979 35.9903,132.3706 C32.4111,130.5111 28.7926,128.5353 25.4561,126.007 L24.1829,125.0904 C23.767,124.7717 23.3728,124.4216 22.9659,124.0878 C22.1634,123.4055 21.3348,122.7489 20.5478,122.0386 C19.7887,121.2968 19.0268,120.5524 18.2622,119.8053 C17.87,119.442 17.5046,119.0513 17.1617,118.6371 L16.1037,117.4206 C10.393,110.9733 6.559,102.63 4.9698,93.8062 C4.5638,91.5971 4.2956,89.3535 4.1428,87.0941 C4.0489,85.9257 4.0674,84.8363 4.0241,83.6991 C3.9896,82.5748 3.9712,81.4244 3.9632,80.3009 C3.9198,75.7977 3.4772,71.2674 2.8709,66.7056 C2.2912,62.1425 1.5015,57.5517 1.1442,52.841 C0.7713,48.173 0.9555,43.1815 3.0255,38.7134 C4.0448,36.4944 5.5022,34.4882 7.2017,32.7356 C8.9462,31.0276 10.8815,29.5328 12.9333,28.2252 C17.0482,25.6197 21.5445,23.7037 26.1026,22.0083 C35.2658,18.7062 44.7798,16.3259 54.3687,14.2328 C63.9649,12.1504 73.67,10.4502 83.3786,8.7952 C102.8085,5.6361 122.2857,2.5764 141.7132,1.1836 C144.1399,1.0111 146.5644,0.8603 148.9872,0.7439 C150.206,0.6841 151.3918,0.628 152.6363,0.5917 L156.2385,0.4951 C161.0406,0.3614 165.918,0.4359 170.6962,0.6327 C175.4925,0.9018 180.2668,1.3004 184.9893,2.0435 C189.7062,2.8083 194.3769,3.8436 198.9072,5.3578 C203.4318,6.8689 207.8192,8.8829 211.8049,11.5404 C215.7939,14.1841 219.3441,17.4823 222.2278,21.2052 C225.1416,24.9148 227.3621,29.0133 229.1522,33.1439 C230.9447,37.2827 232.3193,41.4723 233.5147,45.6018 C234.7071,49.7342 235.7217,53.8141 236.7092,57.8075 C236.955,58.8045 237.1998,59.7977 237.4437,60.7871 L237.8086,62.2645 L237.9905,63.001 L238.0359,63.1849 L238.0994,63.4805 L238.1773,63.8517 C238.3851,64.8409 238.5922,65.8262 238.7983,66.8074 L239.1069,68.2762 L239.2607,69.0083 C239.245,68.8917 239.3263,69.3718 239.3264,69.3905 L239.3527,69.5753 L239.4052,69.9447 C239.5452,70.9291 239.6846,71.9093 239.8233,72.8853 C239.978,73.8382 240.0178,74.9541 240.1166,75.9747 C240.3398,78.0728 240.2906,80.0896 240.3292,82.1169 C240.2227,86.1704 239.7192,90.1619 238.8064,94.0008 C236.931,101.6817 233.1373,108.5516 228.4444,113.9532 C223.8057,119.4537 218.3342,123.51 213.011,126.7594 C207.6494,129.9774 202.3436,132.3568 197.3585,134.2323 C192.3683,136.0999 187.7043,137.5218 183.4588,138.6158 C174.967,140.8146 168.1977,141.9336 163.5886,142.6564 C161.283,143.0208 159.5106,143.2498 158.3165,143.4068 C157.1227,143.5657 156.5066,143.6477 156.5066,143.6477 L156.4909,143.65 L156.4909,143.65 Z M155.7699,138.166 C155.7699,138.166 156.3709,138.0735 157.5354,137.8942 C158.7002,137.717 160.4293,137.458 162.671,137.0567 C167.1517,136.2614 173.7283,135.0334 181.8623,132.7494 C185.9293,131.614 190.3653,130.1589 195.0551,128.2946 C199.7281,126.4043 204.6878,124.1389 209.5743,121.1225 C210.7642,120.3289 212.0315,119.5967 213.2017,118.7087 C213.798,118.279 214.3987,117.8461 215.0039,117.4099 C215.5823,116.9442 216.165,116.4751 216.7518,116.0025 C219.0763,114.0959 221.36,112.008 223.3794,109.606 C227.5363,104.8929 230.6924,99.0162 232.4851,92.3948 C233.3313,89.0681 233.8392,85.5658 233.9985,81.9455 C233.9879,80.1379 234.069,78.2731 233.9012,76.4776 C233.8241,75.5526 233.8342,74.6991 233.6909,73.7016 C233.5685,72.7234 233.4456,71.741 233.3221,70.7544 L233.2758,70.3842 L233.2526,70.199 C233.2391,70.0939 233.2986,70.4514 233.2561,70.2131 L233.1146,69.4785 L232.8307,68.0048 C232.6411,67.0203 232.4506,66.0317 232.2593,65.0392 L232.1876,64.6668 C232.1863,64.6538 232.1398,64.4327 232.1756,64.5905 L232.1331,64.405 L231.9628,63.6621 L231.6211,62.172 C231.3939,61.1789 231.1658,60.182 230.9368,59.1813 C230.0197,55.1858 229.0876,51.1555 228.0028,47.1463 C226.9161,43.1396 225.6745,39.1501 224.0823,35.2992 C222.4914,31.4523 220.5474,27.7351 218.0249,24.4153 C215.5165,21.0899 212.4904,18.126 208.9901,15.673 C205.4943,13.214 201.5471,11.2697 197.3661,9.7592 C193.1824,8.2455 188.7739,7.1488 184.2676,6.3038 C179.7525,5.4788 175.1263,4.977 170.4553,4.5991 C165.7566,4.2926 161.0841,4.1022 156.29,4.1169 L152.6865,4.125 C151.5264,4.1301 150.3055,4.1571 149.1155,4.1865 C146.72,4.2417 144.3188,4.3447 141.9126,4.4617 C122.6615,5.4211 103.1506,8.0501 83.6901,10.7842 C73.9648,12.1855 64.2756,13.829 54.6881,15.756 C45.115,17.7167 35.6048,19.9377 26.5296,23.1825 C22.0144,24.8316 17.5724,26.6991 13.5557,29.2118 C11.5528,30.472 9.6793,31.9056 8.0001,33.5286 C6.3691,35.1938 4.9835,37.0812 4.0088,39.1703 C2.0158,43.3651 1.8354,48.1622 2.2166,52.7614 C2.5783,57.3934 3.3765,61.9792 3.9707,66.5609 C4.5906,71.1374 5.0386,75.7244 5.1524,80.2813 C5.1739,81.4224 5.2044,82.5307 5.252,83.6588 C5.3071,84.7729 5.3055,85.9351 5.407,87.0018 C5.5823,89.2148 5.8703,91.4062 6.2915,93.5576 C7.9168,102.185 11.8249,110.1116 17.4812,116.2132 L18.5265,117.3613 C18.8644,117.7524 19.2249,118.1208 19.6125,118.4623 C20.3655,119.1652 21.1158,119.8656 21.8634,120.5635 C22.6381,121.2308 23.4546,121.846 24.2424,122.4861 C24.6423,122.7991 25.0283,123.1278 25.4369,123.4263 L26.6889,124.2833 C29.9616,126.6503 33.5187,128.4845 37.0284,130.209 C44.1554,133.4891 51.4738,135.6736 58.5967,137.2402 C65.7223,138.8057 72.6944,139.7656 79.2867,140.4212 C80.9626,140.5559 82.617,140.6888 84.2492,140.8199 L85.4692,140.9179 L85.7729,140.9423 L86.0268,140.9556 L86.6326,140.989 C87.4389,141.0334 88.2396,141.0776 89.0346,141.1214 C89.8296,141.1652 90.6189,141.2087 91.4024,141.2519 C92.1741,141.2837 92.9402,141.3153 93.7005,141.3466 C95.2346,141.3904 96.7455,141.4335 98.2325,141.476 C110.1292,141.718 120.5524,141.3175 129.082,140.832 C137.6199,140.3243 144.2945,139.629 148.8301,139.084 C153.3366,138.5379 155.7856,138.164 155.7856,138.164 L155.7699,138.166 L155.7699,138.166 Z" fill="#000000"></path>
                </g>
                <path d="M179.5348,100.7283 C176.8292,108.9876 167.5265,117.5398 166.0577,120.0066 C158.8746,132.0706 140.44,140.6131 135.6876,138.887 C125.606,135.2254 119.0977,123.0667 117.0577,122.8167 C115.4679,122.617 112.8077,99.2068 111.6978,88.7366 C126.9679,84.617 148.2276,80.7166 177.7179,76.7068 C177.0177,85.327 183.6832,88.0647 179.5348,100.7283 L179.5348,100.7283 Z" id="Shape" fill="#000000"></path>
                <g transform="translate(261.000000, 172.000000)" id="Shape">
                    <path d="M0.941,5.3357 C12.4439,35.6863 13.8131,74.3016 13.8131,74.3016 C15.0299,80.8172 21.2965,85.1121 27.8121,83.8953 L32.3053,83.0584 C38.8189,81.8406 43.1158,75.574 41.9,69.0584 C41.9,69.0584 32.6461,37.5652 29.0279,0.0945" fill="#FFFFFF"></path>
                    <path d="M1.4358,5.1546 C2.0891,6.4809 2.7526,7.7877 3.3372,9.1595 C3.9405,10.5215 4.5244,11.8856 5.0624,13.2672 C5.5915,14.6511 6.1247,16.0376 6.6192,17.436 C7.118,18.8338 7.5703,20.2458 8.0184,21.6598 C8.9268,24.485 9.7256,27.3435 10.4447,30.2196 C10.8186,31.6552 11.1616,33.0969 11.502,34.5405 L12.412,38.8918 C12.9884,41.7982 13.5552,44.7086 13.991,47.6383 C14.2138,49.1023 14.4478,50.5651 14.6325,52.0343 L15.1841,56.4418 C15.52,59.384 15.7935,62.3327 16.034,65.2858 L16.3544,69.722 C16.4478,71.2109 16.5312,72.6703 16.5885,74.2032 L16.5431,73.792 C16.7889,75.1319 17.3268,76.401 18.1132,77.5044 C18.8989,78.6081 19.9428,79.5304 21.1267,80.2005 C22.3182,80.8572 23.6435,81.2689 25.0008,81.3775 C25.6798,81.4283 26.3655,81.4048 27.0457,81.3068 L29.5735,80.8709 L32.107,80.4176 C32.3522,80.3722 32.483,80.3325 32.6234,80.2969 C32.7588,80.2686 32.9358,80.2068 33.0978,80.1591 C33.4267,80.0557 33.7466,79.9282 34.0629,79.7919 C35.3196,79.228 36.4503,78.3783 37.3582,77.3252 C38.2572,76.2659 38.9367,75.01 39.3043,73.6647 C39.6676,72.3195 39.7557,70.8984 39.5258,69.5017 L39.5827,69.7394 C39.1902,68.2804 38.8247,66.8644 38.4722,65.4279 L37.4343,61.1302 C36.77,58.2614 36.1265,55.3898 35.5211,52.5112 C34.9128,49.6331 34.374,46.7414 33.8288,43.8526 C33.3096,40.9584 32.7916,38.0653 32.3272,35.163 C32.0779,33.7151 31.8561,32.2624 31.654,30.8065 L31.03,26.4435 C30.6611,23.5277 30.2457,20.6209 29.9499,17.6973 C29.6174,14.7793 29.3529,11.8539 29.0975,8.9297 C28.8386,6.006 28.7052,3.0699 28.5034,0.1454 L29.5524,0.0441 C30.001,2.9364 30.3913,5.8318 30.8866,8.7128 C31.3472,11.598 31.8161,14.4797 32.3524,17.3506 C32.6171,18.7864 32.847,20.2266 33.1319,21.6586 L33.9489,25.9585 C34.5295,28.8184 35.1014,31.6781 35.7189,34.5284 C36.3119,37.3833 36.9579,40.2266 37.6043,43.0684 C38.2699,45.9063 38.9568,48.7381 39.6604,51.5645 C40.3543,54.3932 41.0852,57.2114 41.8354,60.0224 L42.9992,64.224 C43.3906,65.618 43.8044,67.0232 44.2173,68.3777 L44.2442,68.4661 L44.2743,68.6157 C44.6898,70.683 44.651,72.8654 44.1236,74.9287 C43.6039,76.9943 42.6127,78.9339 41.2649,80.5859 C39.9096,82.2318 38.1872,83.5867 36.2471,84.5056 C35.7604,84.7306 35.2647,84.9376 34.7571,85.1103 C34.499,85.1943 34.2609,85.2809 33.9679,85.3565 C33.683,85.4355 33.3893,85.513 33.2017,85.5507 L30.5441,86.0831 L29.2479,86.3381 C28.7874,86.4247 28.4509,86.5042 27.8742,86.5973 C26.8147,86.7728 25.731,86.8336 24.652,86.7745 C22.4928,86.6548 20.3615,86.0402 18.4682,84.9965 C16.5784,83.9487 14.9113,82.4931 13.6392,80.7357 C12.3654,78.9812 11.4853,76.9352 11.0833,74.8117 L11.0477,74.6234 L11.0378,74.4001 C10.9762,73.0016 10.8837,71.5321 10.7833,70.0936 L10.4408,65.7534 C10.1908,62.8593 9.887,59.9682 9.5603,57.0802 C9.2445,54.1908 8.8776,51.3076 8.512,48.4245 C8.1236,45.5446 7.755,42.6615 7.3169,39.7887 L6.6329,35.4841 C6.3956,34.0513 6.187,32.6111 5.9306,31.1812 C5.6913,29.747 5.4244,28.319 5.1561,26.8901 L4.3453,22.6027 C4.0696,21.1734 3.7603,19.7522 3.4573,18.3277 C3.1706,16.8983 2.845,15.4786 2.522,14.0555 C2.1732,12.6404 1.8783,11.2052 1.5117,9.798 L0.4461,5.5169 L1.4358,5.1546 L1.4358,5.1546 Z" fill="#000000"></path>
                </g>
                <path d="M309.2779,139.7068 C301.7779,142.9969 294.1773,146.2469 287.068,148.9568 C261.2281,158.827 244.318,162.5867 232.568,159.7669 C220.8277,156.9466 236.7974,127.347 228.3375,105.2669 C224.8375,96.117 224.398,83.7269 225.0777,72.367 C295.6578,70.4568 299.5074,98.0369 308.108,133.8968 C308.5777,135.867 308.9674,137.8069 309.2779,139.7068 L309.2779,139.7068 Z" id="Shape" fill="#000000"></path>
                <path d="M176.5724,124.5897 C172.5553,128.5809 171.4347,140.5027 164.9703,144.0457 C164.379,144.3699 153.8326,158.3504 161.2359,160.9949 C168.6397,163.6385 174.9864,169.012 185.0343,173.2439 C195.0816,177.4744 207.775,155.7908 210.4195,144.6854 C213.0641,133.5799 203.5445,120.3587 195.0816,120.8875 C186.6202,121.4158 179.92,121.263 176.5724,124.5897 L176.5724,124.5897 Z" id="Shape" fill="#000000"></path>
                <path d="M291.3521,99.4676 C291.3521,99.4676 308.3375,108.0506 314.192,112.6639 C326.0221,121.9852 327.6266,136.9598 330.9596,136.9598 C334.2926,136.9598 327.2379,138.0232 327.2379,138.0232 C327.2379,138.0232 313.8385,116.6448 308.8385,114.1448 C303.8385,111.6448 298.7408,112.0833 298.7408,112.0833" id="Shape" stroke="#000000"></path>
                <path d="M334.2818,154.8616 C334.2818,154.8616 335.5396,147.8616 334.8795,142.0984 C334.3941,137.8577 332.8707,134.2864 329.0435,134.6663 C324.0816,135.1585 321.8238,143.1814 329.3189,155.0682 C329.7711,155.7855 329.9078,149.4764 330.4771,150.2532 C331.5279,151.6863 332.7867,153.2215 334.2818,154.8616 L334.2818,154.8616 Z" id="Shape" fill="#000000"></path>
                <g transform="translate(115.000000, 175.000000)" id="Shape">
                    <path d="M0.5553,2.0545 C1.2989,19.5779 3.5328,72.1482 3.5328,72.1482 C3.8145,78.7703 9.4098,83.91 16.0313,83.6277 L20.5987,83.4354 C27.2198,83.1522 32.3599,77.5574 32.0787,70.9354 C32.0787,70.9354 25.9561,46.7811 29.1012,0.8436" fill="#FFFFFF"></path>
                    <path d="M1.0816,2.0321 C1.4574,6.7049 1.8456,11.3772 2.179,16.0519 L3.174,30.076 C3.5021,34.7509 3.8132,39.4264 4.0985,44.1031 L4.9752,58.1322 L5.7782,72.1074 C5.9087,74.0885 6.605,75.8725 7.7614,77.3816 C8.9125,78.8745 10.4887,80.0362 12.2548,80.6483 C13.1362,80.9575 14.0598,81.1317 14.9917,81.1746 C15.8207,81.2062 17.1241,81.0981 18.2664,81.0512 C19.4029,80.9811 20.7313,80.9606 21.5042,80.8281 C22.4196,80.6798 23.3058,80.3975 24.136,79.9964 C25.7943,79.1905 27.2041,77.8803 28.1331,76.2974 C29.0687,74.7174 29.5367,72.8849 29.4484,71.0472 L29.5267,71.5821 C29.1406,70.0007 28.8819,68.5834 28.6003,67.0892 C28.3436,65.6145 28.0926,64.1406 27.8831,62.6667 C27.4375,59.719 27.0982,56.7688 26.7856,53.8168 C26.4995,50.8641 26.2411,47.9104 26.0642,44.9542 C25.9607,43.476 25.9114,41.9973 25.8494,40.5187 C25.7992,39.0398 25.7399,37.5608 25.7349,36.0823 C25.704,33.1244 25.7402,30.1679 25.8243,27.2151 C25.8803,24.2609 26.1245,21.3136 26.2933,18.3685 C26.3962,16.896 26.5649,15.4275 26.7073,13.9589 C26.8447,12.4901 27.0199,11.0239 27.1951,9.5592 C27.5712,6.6315 28.046,3.7135 28.5754,0.8077 L29.6266,0.8797 C29.7286,2.3539 29.8077,3.8245 29.8606,5.292 C29.9322,6.7605 29.9605,8.2252 30.0059,9.6893 C30.0728,11.1542 30.1395,12.6176 30.1686,14.0785 C30.2129,15.5398 30.2308,16.9998 30.3146,18.4593 L30.4474,22.8331 C30.4694,24.2904 30.5836,25.7459 30.6178,27.2008 L30.7683,31.5638 C30.8401,33.0166 30.9352,34.468 30.9876,35.9202 C31.0299,37.3734 31.1387,38.8217 31.2153,40.2716 C31.2896,41.7215 31.3511,43.1726 31.4663,44.6183 C31.572,46.0646 31.6362,47.5153 31.7588,48.9591 L32.1282,53.2898 C32.4162,56.17 32.7299,59.0479 33.1443,61.9005 C33.3387,63.3305 33.5722,64.7482 33.8094,66.1631 C34.0606,67.5513 34.3277,69.0196 34.6303,70.2886 L34.6983,70.5739 L34.7086,70.8239 C34.826,73.6685 34.0909,76.5687 32.5914,78.9942 C31.1017,81.4243 28.8948,83.3951 26.3147,84.5915 C25.0246,85.188 23.6493,85.596 22.2472,85.7958 C20.6987,85.9932 19.6756,85.9449 18.4751,86.0073 C17.2772,86.0275 16.2407,86.1311 14.7279,86.0654 C13.3213,85.9764 11.9253,85.6847 10.6047,85.1934 C7.9632,84.2129 5.628,82.4519 3.9916,80.1777 C2.3454,77.9294 1.3951,75.1119 1.3022,72.4118 L0.9067,58.3053 L0.5905,44.2524 C0.4783,39.5684 0.3916,34.8833 0.3221,30.1974 L0.1243,16.1394 C0.0601,11.4533 0.0507,6.765 0.0288,2.0771 L1.0816,2.0321 L1.0816,2.0321 Z" fill="#000000"></path>
                </g>
                <path d="M221.4625,210.4549 C206.1724,212.5047 190.0621,213.2947 174.4019,213.2947 C168.2921,213.2947 162.422,213.1346 156.8121,212.8045 C154.9522,205.9246 153.7418,198.825 155.8819,196.6844 C160.4019,192.1746 172.1422,180.8846 185.232,180.8846 C198.3316,180.8846 217.7418,183.5848 220.4517,190.365 C222.0123,194.2547 221.7818,203.1951 221.4625,210.4549 L221.4625,210.4549 Z" id="Shape" fill="#000000"></path>
                <path d="M111.1778,168.2366 C109.378,172.7566 106.6676,183.1365 96.2779,179.5272 C92.4176,178.1863 88.9976,179.7772 86.2276,182.2967 C84.3477,179.5564 82.7677,176.6268 81.4976,173.5066 C79.3678,168.2869 78.0977,162.5267 77.7179,156.2269 C87.4078,151.0066 99.858,145.367 103.0577,148.827 C108.4776,154.6966 112.9879,163.7269 111.1778,168.2366 L111.1778,168.2366 Z" id="Shape" fill="#000000"></path>
                <g>
                    <g transform="translate(13.000000, 0.000000)" id="Shape">
                        <path d="M20.6202,50.8694 C20.6202,50.8694 -15.7353,27.3245 15.9517,1.9749 C13.754,36.5652 37.8536,35.4173 37.8536,35.4173" fill="#ECEDED"></path>
                        <path d="M20.2495,51.4328 C19.1082,50.8278 18.0312,50.162 16.9752,49.4463 C15.9304,48.7206 14.8841,47.9851 13.8939,47.176 C12.8959,46.3762 11.9344,45.5269 10.9891,44.652 C10.0431,43.7764 9.1605,42.8313 8.2921,41.8652 L7.0334,40.37 L5.841,38.8058 C5.0804,37.731 4.3816,36.6059 3.7388,35.4354 C3.1104,34.2573 2.5314,33.0406 2.0575,31.7657 C1.5775,30.496 1.194,29.1734 0.9569,27.8123 C0.8945,27.4729 0.816,27.1361 0.7686,26.7934 L0.6633,25.7573 L0.5627,24.7189 C0.5433,24.3717 0.5557,24.0222 0.5519,23.6734 C0.512,22.2766 0.6739,20.8791 0.894,19.5011 L1.3654,17.4608 L2.0357,15.491 C2.237,14.8214 2.5716,14.2223 2.8486,13.5918 C3.1387,12.9682 3.4157,12.3348 3.7812,11.7629 L4.8198,10.0048 C5.2,9.4475 5.5928,8.9024 5.9977,8.3642 C6.7609,7.2432 7.7548,6.3494 8.6978,5.4161 C9.6749,4.5213 10.7791,3.7808 11.8765,3.06 C13.0357,2.4196 14.2386,1.8525 15.5294,1.4475 L17.1719,0.9321 L16.6258,2.018 L16.6245,2.0206 C16.7209,2.9637 16.7913,3.9001 16.8535,4.8323 C16.9114,5.764 17.0428,6.6897 17.1014,7.6131 C17.1744,8.5363 17.3422,9.4476 17.4226,10.3625 C17.5355,11.2739 17.7139,12.1722 17.8437,13.0747 C18.0269,13.9644 18.1773,14.862 18.3959,15.7371 C18.6408,16.6046 18.807,17.4927 19.0991,18.3373 C19.3374,19.2024 19.6699,20.0258 19.98,20.857 C20.1218,21.279 20.3273,21.6685 20.4968,22.0767 C20.6676,22.4847 20.8528,22.8844 21.0685,23.266 C21.4569,24.0567 21.9292,24.7911 22.3964,25.5294 L23.1502,26.5967 C23.4114,26.9446 23.6988,27.2704 23.9712,27.6105 C25.1163,28.917 26.41,30.0983 27.8599,31.0868 C28.5949,31.563 29.3428,32.0319 30.1352,32.4295 C30.9212,32.8412 31.7487,33.1716 32.5841,33.4984 C33.4267,33.8042 34.2917,34.0588 35.1707,34.2786 C36.0421,34.483 36.9677,34.6618 37.8214,34.7437 L37.8856,36.091 C36.8502,36.2085 35.8875,36.2148 34.8913,36.1436 C33.9021,36.0813 32.9217,35.9194 31.9454,35.7164 C30.9723,35.5001 30.0097,35.2156 29.0716,34.8535 C28.1286,34.5029 27.2115,34.073 26.3268,33.5779 C25.4504,33.069 24.5969,32.5128 23.7905,31.8891 C22.9819,31.2673 22.2391,30.5647 21.5302,29.8321 C21.1914,29.4525 20.8372,29.0829 20.5123,28.691 L19.5726,27.4866 C19.0092,26.642 18.4523,25.7909 17.9894,24.8926 C17.735,24.4537 17.5153,24.0006 17.3123,23.5405 C17.1107,23.0806 16.872,22.632 16.7028,22.1614 C16.347,21.2245 16.0122,20.2803 15.7609,19.3186 C15.4651,18.3655 15.2702,17.3964 15.0832,16.4254 C14.9056,15.4544 14.8024,14.477 14.6681,13.5056 C14.6096,12.5289 14.5355,11.5532 14.5129,10.5811 C14.5082,9.6093 14.5141,8.6362 14.5651,7.6709 C14.6272,6.7056 14.7084,5.7416 14.8138,4.7854 C14.9545,3.8303 15.1034,2.8794 15.2782,1.9351 L15.2771,1.9323 L16.3734,2.5027 C15.774,3.7199 15.0709,4.758 14.3527,5.7539 C13.6976,6.802 12.9503,7.7374 12.2562,8.688 C11.599,9.662 10.8258,10.5421 10.1958,11.4936 L9.1834,12.8795 L8.3018,14.3269 C7.9821,14.7994 7.7595,15.3095 7.5165,15.8117 C7.2878,16.3181 6.9919,16.8048 6.835,17.3329 L6.2738,18.8904 L5.8818,20.4857 C5.6789,21.5561 5.4824,22.6371 5.4721,23.7339 C5.4626,24.0075 5.4351,24.2814 5.4379,24.5558 L5.4839,25.38 L5.5252,26.2065 C5.5499,26.4817 5.6048,26.7551 5.6421,27.0301 C5.7257,27.5793 5.7869,28.1331 5.9425,28.6752 C6.0896,29.217 6.1651,29.7767 6.3598,30.3132 C6.6719,31.4036 7.0858,32.4758 7.55,33.5352 C7.8055,34.0559 8.0356,34.5894 8.3107,35.1049 L9.1618,36.6452 L10.0839,38.1616 L11.0854,39.6418 C11.7829,40.6135 12.5253,41.5572 13.2832,42.4996 C14.0533,43.4308 14.8483,44.35 15.6891,45.231 C17.3469,47.011 19.128,48.7301 20.9906,50.3062 L20.2495,51.4328 L20.2495,51.4328 Z" fill="#000000"></path>
                    </g>
                    <g transform="translate(0.000000, 26.000000)" id="Shape">
                        <path d="M142.1978,36.2166 C138.608,39.8069 128.0279,39.577 118.9078,38.577 C122.6378,47.7869 124.7379,58.2269 124.7379,69.2869 C124.7379,81.6966 122.0977,93.327 117.4776,103.2967 C108.3077,123.1468 91.358,136.4666 71.9576,136.4666 C51.2179,136.4666 33.2677,121.2469 24.648,99.0867 C22.338,93.157 20.6876,86.7269 19.8477,79.9568 C19.4078,76.4866 19.1778,72.9168 19.1778,69.2869 C19.1778,67.8167 19.2179,66.347 19.2979,64.8968 C19.338,64.0169 19.3878,63.157 19.4576,62.2967 C20.2476,52.5867 22.6578,43.4969 26.3477,35.4666 C18.6578,36.4866 8.4879,37.097 5.2877,33.8968 C3.6978,32.3069 -0.4921,27.4266 4.0279,22.657 C8.2179,18.2366 24.9776,24.3069 31.898,26.1067 C40.0079,14.7366 52.1378,4.9368 64.6778,2.7366 C66.9078,2.347 69.1876,2.1268 71.4976,2.097 L71.9576,2.097 C72.148,2.097 72.338,2.097 72.5279,2.1067 C87.8678,2.3069 104.7838,15.3265 114.3238,28.8064 C123.9166,23.7576 136.0377,19.4266 142.1978,23.907 C147.7179,27.9266 144.3678,34.0467 142.1978,36.2166 L142.1978,36.2166 Z" fill="#FFFFFF"></path>
                        <path d="M143.3929,37.5241 C143.1305,37.8131 142.4201,38.3896 141.9487,38.679 C141.4284,38.9996 140.8925,39.2779 140.3564,39.4845 C139.2788,39.9131 138.1975,40.1317 137.1355,40.2926 C135.011,40.6071 132.9389,40.6576 130.8894,40.6169 C128.8401,40.5694 126.8174,40.3829 124.8094,40.1576 C122.8017,39.9255 120.8132,39.5964 118.835,39.2473 L118.8344,39.2472 L119.5329,38.3238 C121.6333,43.2649 123.2434,48.4274 124.2908,53.7092 C125.3424,58.9941 125.8837,64.3664 125.9308,69.7793 C125.9876,75.153 125.5227,80.5779 124.5644,85.9007 C123.6073,91.2307 122.0606,96.4613 120.0035,101.4909 C117.948,106.4994 115.3394,111.3517 112.1785,115.7976 C109.0137,120.248 105.2888,124.3417 100.9963,127.8012 C96.7097,131.2583 91.8597,134.0855 86.6209,135.9752 C81.3917,137.8367 75.7242,138.7122 70.216,138.5146 C64.5594,138.3275 59.07,137.0305 53.9417,134.8119 C48.8196,132.602 44.1258,129.4924 40.0168,125.7893 C31.7806,118.3702 25.7929,108.7496 22.0187,98.5178 C20.1005,93.3566 18.7731,88.0376 17.9777,82.6248 C17.1581,77.2289 16.9575,71.747 17.2299,66.3037 C17.3113,64.931 17.4465,63.5836 17.5574,62.2716 L17.7953,60.2325 L18.0847,58.195 C18.5032,55.5087 19.0875,52.8519 19.7764,50.2295 C21.1836,44.9925 23.1483,39.9093 25.7345,35.1849 L26.4363,36.1354 L26.434,36.1356 C23.8558,36.8421 21.2264,37.3419 18.5511,37.6495 C15.8727,37.9451 13.1542,38.0734 10.3344,37.7457 C8.9201,37.5757 7.4845,37.2677 5.999,36.5962 C5.278,36.2686 4.4644,35.7394 3.8585,35.1114 C3.3401,34.5766 2.8589,34.0196 2.4127,33.4133 C1.5261,32.2088 0.7605,30.8212 0.3808,29.2023 C-0.0105,27.5977 0.1243,25.7349 0.828,24.1912 C1.1738,23.4192 1.6293,22.729 2.1341,22.1203 C2.3989,21.8053 2.6218,21.548 2.9535,21.2353 C3.0827,21.1159 3.3862,20.86 3.5507,20.7579 C3.7454,20.6185 3.945,20.5056 4.1448,20.3946 C5.7658,19.5664 7.3109,19.445 8.7568,19.3997 C10.2085,19.3886 11.5945,19.5408 12.952,19.7474 C14.3081,19.9604 15.6364,20.2271 16.9439,20.5489 C19.5562,21.1993 22.1057,21.9686 24.6154,22.8244 C27.1302,23.655 29.6015,24.6016 32.0665,25.4534 L32.0675,25.4538 L31.3487,25.7149 C33.5831,22.1218 36.2484,18.7967 39.1573,15.6846 C42.101,12.6053 45.3618,9.7943 48.9489,7.4028 C52.5262,5.0005 56.4602,3.0554 60.6658,1.7735 C62.7722,1.1339 64.9604,0.733 67.1133,0.4793 C68.1968,0.3524 69.2857,0.2661 70.3769,0.22 C70.9194,0.1978 71.4608,0.181 72.0649,0.1856 L72.8734,0.202 L73.6567,0.229 C78.1638,0.4676 82.4248,1.6614 86.4277,3.3554 C90.4102,5.092 94.1468,7.2812 97.5808,9.8409 C101.0321,12.3779 104.2068,15.2488 107.1192,18.3462 C110.0072,21.4651 112.6571,24.8035 114.872,28.4135 L114.874,28.4167 L114.0095,28.2095 C117.2092,26.4281 120.5063,24.7972 123.9536,23.4607 C127.4003,22.1415 130.9982,21.0411 134.857,20.8088 C136.7798,20.723 138.7951,20.8498 140.7541,21.5701 C141.7142,21.9161 142.7036,22.4715 143.4837,23.0781 C144.3583,23.7477 145.0933,24.5386 145.6871,25.5067 C146.2701,26.4687 146.6431,27.591 146.7509,28.7123 C146.8689,29.8365 146.7424,30.9451 146.4797,31.9799 C146.2124,33.0163 145.809,33.9871 145.3078,34.8964 C144.8026,35.8092 144.2189,36.6549 143.4502,37.4694 L143.3929,37.5241 L143.3929,37.5241 Z M140.9452,34.9639 C141.4515,34.4814 141.951,33.8478 142.3548,33.1873 C142.765,32.524 143.0964,31.8163 143.3187,31.1008 C143.7682,29.6627 143.7308,28.2288 143.0709,27.0134 C142.7471,26.4114 142.2556,25.8192 141.7085,25.3562 C141.0755,24.8191 140.4783,24.4467 139.7452,24.128 C138.3082,23.5061 136.6266,23.2863 134.9267,23.2774 C131.4974,23.3002 127.9869,24.1494 124.5981,25.2579 C121.198,26.3784 117.8784,27.8104 114.6379,29.4032 L114.1438,29.6461 L113.7732,29.196 L113.7709,29.1932 C111.1524,25.9805 108.3342,22.9541 105.2986,20.1759 C102.2817,17.3814 99.06,14.8242 95.6791,12.5427 C92.2803,10.2932 88.7377,8.2681 84.9986,6.7887 C81.2955,5.2744 77.3651,4.2429 73.509,4.0663 L72.726,4.0325 L71.9676,4.0104 C71.5267,4.0037 71.0231,4.0121 70.5213,4.0283 C69.524,4.0608 68.5273,4.1301 67.5339,4.2368 C65.5325,4.4429 63.5995,4.8187 61.6847,5.3225 C57.851,6.3637 54.1837,8.0934 50.7064,10.1661 C48.9701,11.2121 47.3025,12.3794 45.6643,13.5957 C44.0264,14.8139 42.4634,16.1388 40.9385,17.5115 C39.4061,18.8772 37.929,20.3141 36.5219,21.8221 C35.1218,23.3355 33.7585,24.8915 32.4473,26.4985 L32.1659,26.8434 L31.7282,26.7597 L31.7271,26.7595 C29.1012,26.2564 26.5445,25.6259 23.9891,25.0274 C21.432,24.4449 18.8884,23.8542 16.3437,23.4262 C13.8148,22.9905 11.2458,22.6428 8.8658,22.7733 C7.6972,22.8286 6.5484,23.0439 5.8301,23.4675 C5.7453,23.5213 5.658,23.5717 5.5885,23.6291 C5.4798,23.7107 5.533,23.6709 5.4185,23.7719 C5.2736,23.9131 5.0676,24.1591 4.9175,24.3537 C4.5953,24.7683 4.3369,25.1994 4.1593,25.6371 C3.7976,26.5085 3.7295,27.4071 3.9619,28.3611 C4.1924,29.3119 4.7117,30.2882 5.3953,31.1898 C5.7339,31.6412 6.1206,32.079 6.5229,32.4854 C6.8327,32.8073 7.1311,33.0213 7.5998,33.2566 C8.5039,33.71 9.672,33.9715 10.855,34.1977 C13.2562,34.6083 15.8324,34.7159 18.4107,34.769 C20.9973,34.8179 23.6128,34.7795 26.2567,34.7983 L26.259,34.7978 L27.3964,34.5717 L26.9609,35.7485 C25.1269,40.7047 23.6733,45.7594 22.7374,50.9036 C22.2475,53.47 21.9048,56.0589 21.6449,58.6503 L21.4721,60.5767 L21.3463,62.5118 C21.3026,63.8558 21.2399,65.1623 21.2312,66.4489 C21.1289,71.6417 21.5731,76.8292 22.3668,81.9523 C23.1764,87.0599 24.5007,92.1028 26.2496,96.9321 C28.0363,101.8084 30.3006,106.4522 33.0976,110.7771 C35.886,115.0959 39.1873,119.078 42.9771,122.5043 C46.7664,125.9242 51.0375,128.7983 55.6714,130.8538 C60.2845,132.9111 65.3281,134.1297 70.3118,134.3411 C75.4401,134.5729 80.4733,133.814 85.2953,132.1799 C90.1035,130.5403 94.6225,128.0223 98.6728,124.8729 C102.7279,121.7223 106.3051,117.9359 109.3784,113.7716 C112.4573,109.5936 115.0065,105.059 117.0773,100.2608 C119.147,95.4805 120.6814,90.4651 121.758,85.3499 C122.8318,80.2277 123.4357,75.0168 123.5325,69.7476 C123.6381,64.5192 123.2636,59.2421 122.3859,54.0608 C121.504,48.8779 120.1697,43.7578 118.2829,38.8303 L117.893,37.8121 L118.9815,37.9067 L118.9821,37.9067 C120.9698,37.9889 122.9563,38.0125 124.9316,38.0066 C126.9063,38.0016 128.8748,37.9292 130.814,37.7736 C132.7495,37.6195 134.6705,37.3697 136.4628,36.9146 C137.3547,36.6835 138.2142,36.4012 138.9859,36.0785 C139.3816,35.9275 139.7342,35.7465 140.0795,35.573 C140.4558,35.3369 140.5492,35.3165 141.0026,34.9091 L140.9452,34.9639 L140.9452,34.9639 Z" fill="#000000"></path>
                    </g>
                    <path d="M32.898,50.1067 C41.0079,38.7366 52.1378,30.9368 64.6778,28.7366 C66.9078,28.347 69.1876,28.1268 71.4976,28.097 L71.9576,28.097 C72.148,28.097 72.338,28.097 72.5279,28.1067 C73.318,31.7967 73.7379,35.637 73.7379,39.5867 C73.7379,57.0843 74.4019,89.8924 53.4996,89.0355 C35.9322,88.3152 36.94,90.6194 24.9879,91.2469 C23.0601,91.348 21.1676,91.1268 19.2979,90.8968 C19.338,90.0169 19.3878,89.157 19.4576,88.2967 C20.2476,78.5867 22.6578,69.4969 26.3477,61.4666 L32.898,50.1067 L32.898,50.1067 Z" id="Shape" fill="#000000"></path>
                    <g transform="translate(94.000000, 3.000000)" id="Shape">
                        <path d="M0.8277,36.3548 C0.8277,36.3548 22.1143,24.971 7.6632,0.8548 C52.0953,16.2742 17.4893,51.3997 17.4893,51.3997" fill="#ECEDED"></path>
                        <path d="M0.5102,35.7744 C1.1599,35.3113 1.8179,34.7859 2.4433,34.2564 C3.0724,33.7233 3.6627,33.1466 4.2425,32.5677 C4.8305,31.9961 5.3624,31.373 5.8995,30.7624 C6.4235,30.1393 6.9176,29.4954 7.3775,28.8311 C8.3141,27.5139 9.0852,26.0989 9.7256,24.6384 L10.1658,23.5266 L10.5334,22.3905 C10.7477,21.6246 10.9533,20.8551 11.0777,20.0675 C11.163,19.678 11.2034,19.2811 11.2442,18.8842 C11.2866,18.4876 11.3433,18.0922 11.3433,17.6913 C11.3555,17.2917 11.3874,16.8923 11.3915,16.4916 L11.3572,15.2869 C11.3099,14.4845 11.2308,13.6789 11.1075,12.8784 C10.9829,12.0766 10.8494,11.2738 10.6373,10.4826 C10.4684,9.6826 10.21,8.9016 9.9781,8.1111 C9.7496,7.3189 9.4124,6.5603 9.1539,5.7706 C8.8475,4.9989 8.5088,4.2369 8.1866,3.4652 C7.8113,2.7187 7.4541,1.9596 7.0965,1.1962 L7.0952,1.1951 L5.9042,0.1389 L7.8803,0.2292 C9.3163,0.2948 10.7362,0.486 12.1542,0.7205 C13.5472,1.0341 14.9326,1.4231 16.3044,1.8724 C16.9779,2.1349 17.6485,2.4125 18.3153,2.7036 C18.9867,2.9881 19.6557,3.2735 20.2905,3.6546 C20.938,4.008 21.5649,4.3982 22.2048,4.7721 C22.8543,5.1271 23.417,5.6473 24.0273,6.0813 C25.2512,6.9465 26.3086,8.0815 27.3844,9.1627 L28.8386,10.9824 C29.3465,11.5666 29.7042,12.288 30.1375,12.9383 C30.574,13.5911 30.9058,14.3107 31.2292,15.0344 L31.7201,16.1139 C31.8587,16.4842 31.9728,16.8651 32.0982,17.2406 C32.3477,17.9932 32.599,18.7445 32.7158,19.5278 C32.8594,20.3035 33.0403,21.0743 33.0725,21.8569 C33.2436,23.4152 33.2133,24.9733 33.0587,26.4929 C32.9103,28.0164 32.6167,29.5009 32.2207,30.9385 C31.826,32.3769 31.3305,33.7665 30.7552,35.1083 C30.1825,36.4504 29.5292,37.7424 28.8111,38.986 C28.092,40.2282 27.3303,41.4337 26.5211,42.5976 C25.7018,43.7554 24.8318,44.8693 23.9255,45.944 C23.0375,47.0328 22.0652,48.0488 21.0834,49.0439 C20.1006,50.0435 19.0704,50.9729 17.9608,51.8641 L17.0183,50.9355 C17.7955,49.8533 18.5477,48.711 19.2768,47.5843 C20.0023,46.4495 20.6905,45.296 21.3587,44.1415 C22.0345,42.9911 22.6389,41.8046 23.2287,40.6246 C23.8264,39.4487 24.3676,38.2531 24.8593,37.0483 C25.8211,34.6313 26.6089,32.1875 27.0488,29.7412 C27.2592,28.5186 27.4059,27.3017 27.4408,26.1003 C27.4711,24.9002 27.4145,23.7145 27.2338,22.5653 C27.1908,21.9797 27.0124,21.4274 26.8829,20.8662 C26.7749,20.2979 26.5624,19.7633 26.3676,19.2247 C26.2684,18.9561 26.1836,18.6824 26.0767,18.417 L25.6881,17.6473 C25.4401,17.1301 25.1917,16.6135 24.8452,16.1419 C24.5092,15.6669 24.274,15.1372 23.8677,14.6996 L22.755,13.3284 C21.8769,12.5048 21.1043,11.5973 20.1268,10.8325 C19.239,9.9911 18.2207,9.2573 17.2308,8.4682 C16.2488,7.6679 15.1372,6.9994 14.1141,6.1803 C13.0202,5.461 11.9212,4.7134 10.8254,3.9079 C9.6925,3.1696 8.5614,2.3878 7.4464,1.4806 L8.2314,0.5148 L8.2317,0.5165 C8.709,1.2365 9.1873,1.9604 9.6464,2.6976 C10.065,3.4582 10.5012,4.213 10.9075,4.9862 C11.2784,5.7774 11.6772,6.5592 11.9905,7.3811 C12.3048,8.2025 12.6446,9.0176 12.8707,9.8758 C13.1455,10.7179 13.3421,11.5849 13.5268,12.4576 C13.7073,13.3296 13.8148,14.222 13.9001,15.1134 L13.9828,16.4593 C13.9923,16.9091 13.9777,17.3607 13.972,17.8117 C13.9744,18.2633 13.9185,18.7128 13.8751,19.1629 C13.8333,19.6133 13.7905,20.0637 13.7007,20.5083 C13.5675,21.405 13.3461,22.2849 13.1091,23.1598 L12.6736,24.4474 L12.1561,25.7023 C11.7811,26.5247 11.3726,27.3313 10.8972,28.0967 C10.4256,28.8635 9.9119,29.6007 9.3663,30.3102 C8.8085,31.0106 8.2132,31.676 7.5939,32.3143 C6.9669,32.945 6.3086,33.5414 5.6214,34.0981 C4.9423,34.6647 4.2119,35.1654 3.4733,35.6454 C2.7294,36.1257 1.9803,36.5649 1.1454,36.9353 L0.5102,35.7744 L0.5102,35.7744 Z" fill="#000000"></path>
                    </g>
                    <g transform="translate(23.000000, 101.000000)" id="Shape">
                        <path d="M94.4776,28.2967 C85.3077,48.1468 68.358,61.4666 48.9576,61.4666 C28.2179,61.4666 10.2677,46.2469 1.648,24.0867 C13.6876,17.7767 11.7325,3.0272 44.1998,3.0272 C63.5196,3.0272 81.4176,19.4666 94.4776,28.2967 L94.4776,28.2967 Z" fill="#F0DAE9"></path>
                        <path d="M95.1389,28.1492 L93.2317,31.9902 C92.6107,33.1286 91.9497,34.2549 91.3099,35.3874 C90.6367,36.4988 89.9051,37.5698 89.2052,38.6627 C88.4769,39.7362 87.6746,40.7588 86.9125,41.8091 C86.1226,42.8386 85.2558,43.8083 84.4309,44.8105 C83.5749,45.7863 82.6491,46.7005 81.7612,47.6481 C80.8354,48.5587 79.856,49.4155 78.9056,50.3014 C77.9077,51.1336 76.8801,51.9318 75.8684,52.7481 C74.7939,53.4809 73.7366,54.2405 72.6471,54.9502 C71.5168,55.5944 70.4206,56.3014 69.2614,56.8926 C66.9422,58.0737 64.55,59.1256 62.0616,59.9008 C60.8148,60.2794 59.5767,60.6911 58.2913,60.9229 L56.3802,61.3351 C55.7392,61.4496 55.089,61.5109 54.4438,61.6011 C53.797,61.6804 53.1517,61.7765 52.5038,61.8416 L50.5504,61.9256 C49.8905,61.9391 49.2677,62.0131 48.5774,61.9765 L46.6484,61.8882 C46.0037,61.844 45.3661,61.8624 44.7156,61.7669 L42.7664,61.4998 C42.1208,61.3945 41.4579,61.356 40.8267,61.1947 L38.9218,60.755 C37.6391,60.507 36.4089,60.0729 35.1703,59.6684 C33.9148,59.3087 32.7313,58.7591 31.5303,58.2557 C30.3108,57.7897 29.1818,57.1354 28.0252,56.5385 C26.8496,55.9725 25.7796,55.2263 24.6737,54.5413 C23.5487,53.8822 22.5391,53.0575 21.4898,52.2897 C20.4209,51.5445 19.4703,50.6544 18.4833,49.809 C17.4751,48.985 16.5801,48.0414 15.6606,47.1235 C14.717,46.2277 13.8723,45.2409 13.0254,44.2561 C12.6032,43.763 12.1654,43.2825 11.7562,42.7789 L10.5793,41.2277 L9.4028,39.6762 L8.3224,38.0574 C7.6056,36.9756 6.8717,35.9044 6.2537,34.7624 C5.6265,33.6276 4.9141,32.5379 4.3714,31.3583 C3.8086,30.1905 3.1883,29.0487 2.6734,27.8591 L1.157,24.2774 L0.9861,23.8737 L1.4035,23.6197 L1.4048,23.6189 C3.133,22.2471 4.6813,20.8207 6.0289,19.1415 C7.3796,17.4607 8.6428,15.7137 10.0192,13.8824 C11.4073,12.0865 12.9313,10.2712 14.7619,8.7018 C16.5383,7.0763 18.6243,5.7792 20.7685,4.6794 C21.2939,4.3681 21.857,4.1682 22.412,3.9433 L24.0822,3.2782 C24.6355,3.0338 25.2048,2.8764 25.7761,2.725 L27.4869,2.2526 C28.6245,1.8917 29.7771,1.7312 30.9283,1.5321 C32.079,1.3431 33.2305,1.104 34.3788,1.0368 L37.8253,0.7223 C38.9733,0.6253 40.1123,0.6464 41.256,0.6036 L42.9696,0.5625 L43.8263,0.5423 L44.0404,0.5373 L44.1475,0.5348 L44.3804,0.5399 L44.7969,0.5637 C45.9157,0.6318 47.0008,0.6764 48.1456,0.7945 L51.7598,1.3848 L55.1715,2.2571 C57.4003,2.9505 59.5988,3.7146 61.6996,4.6691 C62.774,5.1015 63.7772,5.6582 64.8077,6.1636 C65.8438,6.6613 66.8371,7.2239 67.8258,7.792 C68.8241,8.3459 69.8086,8.9172 70.7624,9.5308 C71.7256,10.1302 72.6954,10.722 73.6163,11.3763 C75.4943,12.6381 77.3157,13.9619 79.1234,15.2959 C80.9257,16.635 82.6731,18.0376 84.4193,19.4308 C86.1634,20.8246 87.8838,22.2415 89.599,23.6588 C91.3245,25.0612 93.0288,26.4845 94.7728,27.8602 L95.1389,28.1492 L95.1389,28.1492 Z M93.7921,28.4927 C91.9983,27.4268 90.2065,26.352 88.4659,25.2125 C86.59,24.0012 84.7234,22.7841 82.8743,21.5524 L80.0875,19.7335 L77.2941,17.9448 C75.4268,16.7692 73.5547,15.6096 71.6505,14.5251 C70.7091,13.9601 69.7389,13.4599 68.7874,12.9259 C67.8387,12.3838 66.8702,11.8894 65.8947,11.4147 C64.9258,10.9241 63.9556,10.44 62.9597,10.0272 C61.9679,9.6057 60.9956,9.1283 59.9817,8.7853 C58.97,8.4385 57.9926,7.9803 56.971,7.6885 C55.9526,7.3899 54.9457,7.0384 53.9225,6.7797 L50.8433,6.0956 L47.8564,5.6923 C46.7869,5.6183 45.6442,5.6034 44.5425,5.5392 L44.1258,5.5199 L44.0737,5.5175 C44.3196,5.5241 44.1273,5.5198 44.1756,5.5216 L44.1502,5.5225 L44.0488,5.5261 L43.8459,5.5333 L43.0345,5.562 L41.4118,5.6189 C40.3332,5.6715 39.2418,5.6602 38.1742,5.7636 L34.9762,6.0906 C33.8994,6.1616 32.8713,6.3955 31.8285,6.5771 C30.791,6.7759 29.7332,6.9164 28.7415,7.2202 C26.7048,7.7073 24.746,8.3523 22.8723,9.1594 L21.4928,9.8095 C21.2637,9.9199 21.0276,10.0197 20.8031,10.1382 L20.156,10.5354 L18.844,11.3116 C18.4093,11.5771 18.0176,11.9093 17.5995,12.2045 C15.9215,13.3805 14.405,14.8471 12.8366,16.3688 C11.2799,17.8827 9.694,19.5628 7.8957,21.0275 C6.1351,22.5507 4.0261,23.7166 1.8941,24.5526 L1.8927,24.5535 L2.1391,23.8961 L3.6343,27.4274 C4.1417,28.6003 4.7536,29.7246 5.3078,30.8759 C5.8419,32.039 6.5446,33.1109 7.1619,34.229 C7.7701,35.3544 8.4931,36.408 9.1985,37.4727 L10.2614,39.0661 L11.4189,40.5917 L12.576,42.1176 C12.9783,42.6126 13.4088,43.0844 13.8237,43.569 C14.6559,44.5368 15.4855,45.5071 16.4122,46.3857 C17.315,47.2866 18.1933,48.2142 19.1824,49.0213 C20.1506,49.8501 21.0825,50.7247 22.1301,51.4536 C23.1583,52.2054 24.1471,53.0153 25.2485,53.659 C26.3311,54.3288 27.378,55.0612 28.5277,55.6131 C29.6587,56.1961 30.7624,56.8379 31.9538,57.2916 C33.1271,57.7829 34.283,58.3217 35.5086,58.6712 C36.7177,59.0657 37.9183,59.4911 39.1696,59.7316 L41.0278,60.1611 C41.6455,60.3196 42.277,60.3528 42.9008,60.4554 L44.7775,60.7157 C45.401,60.8098 46.0581,60.7925 46.6968,60.8363 L48.6258,60.9246 C49.2215,60.959 49.885,60.8868 50.5112,60.8734 L52.4164,60.7923 C53.0483,60.7285 53.6776,60.6342 54.3083,60.5569 C54.9375,60.4688 55.5717,60.41 56.1969,60.2983 L58.0609,59.8955 C59.3148,59.6707 60.5229,59.2672 61.7398,58.8982 C64.1686,58.1421 66.5053,57.1138 68.7729,55.9597 C69.9064,55.382 70.9786,54.6888 72.085,54.0597 C73.1513,53.3646 74.1867,52.6201 75.2395,51.9034 C76.2307,51.1024 77.238,50.3205 78.2168,49.5048 C79.1488,48.6348 80.1099,47.795 81.0188,46.9012 C81.8903,45.9699 82.7998,45.073 83.6409,44.1142 C84.4513,43.1285 85.3036,42.1764 86.0803,41.1638 C86.8294,40.1302 87.6191,39.1251 88.3357,38.0686 C89.0236,36.9934 89.7459,35.9366 90.4062,34.8467 C91.032,33.7373 91.676,32.6427 92.2883,31.5221 L93.7921,28.4927 L93.7921,28.4927 Z" fill="#000000"></path>
                    </g>
                    <ellipse id="Oval" fill="#FFFFFF" cx="55.4014" cy="53.8904" rx="4.6445" ry="8.67"></ellipse>
                    <ellipse id="Oval" fill="#000000" cx="83.8946" cy="53.597" rx="4.8701" ry="8.4414"></ellipse>
                    <g transform="translate(46.000000, 118.000000)">
                        <ellipse id="Oval" fill="#FCF6C1" cx="8.6756" cy="7.1243" rx="6.9958" ry="4.7329"></ellipse>
                        <path d="M16.9146,7.2171 C16.9146,7.2171 16.8924,7.3611 16.8508,7.631 C16.831,7.7662 16.7524,8.0727 16.671,8.3468 C16.5686,8.6071 16.4623,8.8836 16.2879,9.1656 C15.9648,9.7437 15.4425,10.3295 14.7632,10.8072 C14.0866,11.29 13.2666,11.6792 12.3578,11.9595 C11.4502,12.2477 10.4503,12.4248 9.3903,12.5038 C9.119,12.5128 8.8439,12.5219 8.5655,12.5311 C8.3027,12.5259 8.0645,12.5414 7.7728,12.5193 C7.188,12.4828 6.6219,12.4229 6.0465,12.2873 C4.8866,12.0646 3.717,11.6006 2.6184,10.8379 C1.5517,10.0768 0.5342,8.7797 0.433,7.1248 L0.4334,6.5947 C0.4396,6.4244 0.4859,6.1545 0.5239,5.9381 C0.621,5.5095 0.7383,5.148 0.9163,4.7912 C1.2577,4.0845 1.7293,3.4761 2.2553,2.9776 C3.3115,1.9782 4.5722,1.3806 5.8054,1.0102 C7.0276,0.667 8.3468,0.5212 9.4091,0.5935 C10.6925,0.6569 11.7181,0.9481 12.7058,1.3707 C14.6395,2.2228 15.9706,3.6811 16.5121,4.9691 C16.7923,5.6051 16.8803,6.1689 16.9093,6.5441 C16.915,6.9224 16.918,7.1242 16.918,7.1242 L16.9146,7.2171 L16.9146,7.2171 Z M14.4248,7.1243 C14.3974,7.1282 14.4321,6.751 14.0632,6.2089 C13.8928,5.9356 13.594,5.6229 13.1505,5.3434 C12.7116,5.0618 12.1396,4.8087 11.4728,4.6205 C10.8319,4.4253 9.9949,4.294 9.2841,4.2361 C8.3545,4.1835 7.5486,4.1906 6.6574,4.3791 C5.779,4.5266 4.9354,4.8727 4.2179,5.3238 C3.8644,5.5563 3.5707,5.8349 3.3462,6.1361 C3.2292,6.2775 3.1425,6.4648 3.0773,6.5906 C3.0579,6.6583 3.0193,6.6685 2.9907,6.7858 L2.9568,7.0017 L2.9398,7.1097 L2.9313,7.1637 L2.9271,7.1907 L2.925,7.2042 C2.9259,7.1672 2.9201,7.306 2.9264,7.1247 C2.827,7.8341 3.1778,8.6747 3.8554,9.3593 C4.5307,10.047 5.4655,10.5268 6.4172,10.8218 C6.894,10.9708 7.3943,11.0535 7.8519,11.1158 C8.0814,11.1524 8.3634,11.1561 8.612,11.1775 C8.8162,11.1858 9.0782,11.1675 9.304,11.1648 C10.2382,11.1224 11.1008,10.8768 11.8218,10.5472 C13.2825,9.8675 14.0621,8.8117 14.2878,8.1537 C14.3582,7.9909 14.3813,7.8256 14.4089,7.7161 C14.4056,7.6037 14.4294,7.5869 14.4301,7.4505 C14.429,7.1773 14.4284,7.0316 14.4284,7.0316 L14.4248,7.1243 L14.4248,7.1243 Z" id="Shape" fill="#000000"></path>
                    </g>
                    <g transform="translate(69.000000, 119.000000)">
                        <ellipse id="Oval" fill="#FCF6C1" cx="10.2047" cy="6.6785" rx="7.8706" ry="4.5918"></ellipse>
                        <path d="M19.0307,6.761 C19.0307,6.761 19.0087,6.9152 18.9675,7.2044 C18.9258,7.3894 18.8529,7.6823 18.7481,7.9528 C18.6302,8.1986 18.5009,8.4868 18.2967,8.7535 C17.5176,9.882 15.9795,10.8104 14.095,11.4106 C13.1476,11.712 12.0973,11.9545 10.9663,12.0456 C10.6771,12.063 10.384,12.0806 10.0872,12.0985 C9.8074,12.1008 9.5461,12.1175 9.2421,12.1083 C8.6175,12.0917 8.0071,12.0411 7.3834,11.9479 C6.1355,11.7629 4.8355,11.4099 3.5891,10.6734 C2.9705,10.299 2.3628,9.8255 1.8508,9.1698 C1.3413,8.5245 0.947,7.6366 0.9158,6.6797 L0.934,6.0899 C0.9716,5.8283 1.0292,5.5486 1.099,5.2828 C1.1758,5.0624 1.2601,4.8538 1.3486,4.6407 C1.4464,4.4413 1.5645,4.2572 1.6775,4.0677 C2.1605,3.3495 2.7569,2.8081 3.3697,2.3609 C4.6148,1.4935 5.9476,1.0182 7.2443,0.7423 C8.529,0.4696 9.8542,0.4271 10.9699,0.5332 C12.2241,0.6475 13.2983,0.9178 14.2953,1.297 C16.2638,2.0523 17.7626,3.26 18.4648,4.4953 C18.831,5.0969 18.9519,5.6877 19.01,6.072 C19.0257,6.4674 19.0342,6.6783 19.0342,6.6783 L19.0307,6.761 L19.0307,6.761 Z M17.1162,6.6785 C17.1162,6.6785 17.0899,6.5775 17.0632,6.3937 C16.9991,6.2136 16.9233,5.9484 16.6716,5.6435 C16.4356,5.3389 16.058,4.9868 15.5132,4.6794 C14.9675,4.3769 14.2721,4.1167 13.4751,3.9468 C12.6891,3.774 11.7584,3.6824 10.8766,3.6844 C9.8576,3.6787 8.9125,3.7664 7.912,3.9678 C6.93,4.1648 5.9418,4.493 5.1459,4.9935 C4.3363,5.4902 3.8137,6.1115 3.7523,6.6789 C3.6426,7.2542 4.1253,8.0665 4.9279,8.6888 C5.7225,9.3201 6.7438,9.7704 7.7745,10.0582 C8.2914,10.2117 8.8233,10.2926 9.3175,10.3636 C9.573,10.3993 9.868,10.4118 10.1363,10.4366 C10.3558,10.454 10.6383,10.4488 10.8818,10.4525 C11.8868,10.4312 12.8415,10.3117 13.677,10.0609 C15.3701,9.5809 16.4729,8.554 16.8404,7.8217 C16.9525,7.6416 16.9938,7.4715 17.0488,7.3315 C17.0725,7.201 17.0841,7.1415 17.1057,7.0436 C17.1148,6.7516 17.1196,6.5959 17.1196,6.5959 L17.1162,6.6785 L17.1162,6.6785 Z" id="Shape" fill="#000000"></path>
                    </g>
                    <path d="M110.992,18.0149 C110.992,18.0149 111.0652,18.0721 111.2025,18.1794 C111.3385,18.2966 111.5381,18.4782 111.7706,18.7063 C112.2393,19.1701 112.857,19.8771 113.494,20.8307 C113.7763,21.3232 114.132,21.8463 114.3869,22.4652 C114.6927,23.0643 114.9186,23.7428 115.1371,24.4673 C115.2604,24.8236 115.3166,25.2097 115.3876,25.6003 C115.4493,25.993 115.5465,26.3871 115.5554,26.8013 C115.5758,27.6305 115.6331,28.4878 115.4498,29.3489 C115.3699,29.7763 115.3448,30.2227 115.2025,30.6368 C115.0569,31.0526 114.9119,31.4667 114.7681,31.8776 C114.6909,32.0816 114.6231,32.2912 114.5353,32.4875 L114.2172,33.0415 C113.9992,33.4069 113.7839,33.7679 113.5721,34.123 C113.1321,34.8181 112.5572,35.3418 112.0773,35.9071 C111.5917,36.4743 111.037,36.8349 110.4944,37.154 C109.9479,37.4603 109.402,37.6625 108.87,37.6906 C108.3438,37.7425 107.8608,37.7205 107.4424,37.641 C107.0348,37.5818 106.6944,37.4714 106.4613,37.3858 C106.2208,37.2799 106.0926,37.2235 106.0926,37.2235 L105.6477,36.3278 C105.6477,36.3278 105.6685,36.185 105.7076,35.9171 C105.7541,35.6695 105.8236,35.3216 105.9379,34.96 C106.0413,34.5782 106.1919,34.189 106.3926,33.8198 C106.6187,33.4726 106.7987,33.0615 107.0613,32.7237 C107.192,32.5528 107.3432,32.3988 107.5143,32.2568 C107.6904,32.1182 107.8826,31.9873 108.0147,31.8112 C108.3003,31.4761 108.6714,31.1562 108.9571,30.7855 C109.0915,30.5949 109.2281,30.4012 109.3664,30.2051 C109.5194,30.0144 109.6589,29.8142 109.7502,29.5908 L110.0952,28.9367 C110.2112,28.7149 110.2625,28.4649 110.3591,28.2278 C110.571,27.7582 110.63,27.2257 110.7666,26.7041 C110.8231,26.1696 110.9283,25.6201 110.9239,25.0691 C110.9474,24.5148 110.9449,23.9659 110.9023,23.4298 C110.89,22.8922 110.805,22.3802 110.76,21.8926 C110.6864,21.4015 110.6189,20.9514 110.5592,20.5524 C110.4906,20.1476 110.4135,19.7957 110.3554,19.5006 C110.2951,19.2074 110.2477,18.9771 110.2154,18.8201 C110.1857,18.66 110.1587,18.5676 110.1587,18.5676 L110.992,18.0149 L110.992,18.0149 Z" id="Shape" fill="#FFFFFF"></path>
                    <path d="M24.6682,16.2133 C24.6682,16.2133 24.67,16.2083 24.6735,16.1985 L24.6801,16.1801 L24.6843,16.1682 C24.6964,16.1531 24.7286,16.121 24.7562,16.0985 L24.8037,16.0625 L24.8295,16.0455 L24.8429,16.0373 C24.8593,16.0286 24.9063,16.0081 24.9503,15.9976 C25.1474,15.9125 25.5021,16.0977 25.5468,16.238 C25.5813,16.2956 25.6035,16.3522 25.6182,16.422 C25.6327,16.4863 25.6319,16.57 25.6249,16.6174 L25.6229,16.6484 L25.6155,16.715 C25.6135,16.7578 25.6112,16.8074 25.6086,16.8636 C25.6022,17.0408 25.5994,17.2583 25.6047,17.5398 C25.5915,18.0887 25.6141,18.8588 25.6723,19.7125 C25.7408,20.5684 25.8689,21.5122 26.1122,22.4141 C26.3611,23.3186 26.7171,24.1717 27.1771,24.9386 C27.6421,25.7051 28.2043,26.402 28.8306,27.0338 C29.1486,27.3438 29.4793,27.6308 29.7657,27.9568 C30.0514,28.283 30.328,28.6181 30.57,28.9693 C30.8201,29.3134 31.0366,29.6796 31.235,30.0218 C31.4311,30.3671 31.5847,30.7298 31.7291,31.0111 C31.8534,31.3301 31.9694,31.5646 32.0288,31.767 C32.0965,31.9532 32.1262,32.0708 32.1262,32.0708 L31.7083,32.9795 C31.7083,32.9795 31.5983,33.0306 31.4042,33.0919 C31.2039,33.1651 30.9289,33.2305 30.5739,33.297 C30.2335,33.3367 29.8057,33.3922 29.3443,33.3674 C28.8859,33.3385 28.3743,33.2637 27.8453,33.1028 C27.3199,32.9323 26.7659,32.6978 26.2281,32.3497 C25.6878,32.0066 25.1792,31.5463 24.6912,31.0211 C23.7018,29.989 22.8007,28.6445 22.2514,27.1494 C21.6897,25.658 21.5058,24.0526 21.6446,22.6399 C21.7669,21.2206 22.1805,19.9963 22.6474,19.0417 C23.1104,18.0821 23.6497,17.388 24.0283,16.9282 C24.2289,16.7046 24.3925,16.5303 24.4902,16.4367 C24.5167,16.4135 24.536,16.3988 24.5475,16.4045 L24.5498,16.4325 L24.5523,16.4454 C24.5456,16.4868 24.5442,16.5645 24.5586,16.623 C24.573,16.6872 24.5954,16.7377 24.6292,16.7903 C24.6684,16.9302 25.0177,17.1149 25.2096,17.0294 C25.2523,17.0189 25.2979,16.998 25.3132,16.9896 L25.3235,16.9838 L25.3433,16.9714 L25.3793,16.9443 C25.3996,16.9276 25.4246,16.9006 25.4305,16.891 L25.4189,16.8958 L25.401,16.9032 C25.3914,16.9072 25.3866,16.9092 25.3866,16.9092 L24.6682,16.2133 L24.6682,16.2133 Z" id="Shape" fill="#FFFFFF"></path>
                    <path d="M137.7345,55.7445 C137.7345,55.7445 137.686,55.9028 137.5951,56.1996 C137.508,56.5251 137.3584,56.8593 137.175,57.3289 C136.9782,57.7047 136.7487,58.2343 136.4604,58.6663 C136.172,59.0984 135.8411,59.5498 135.4596,59.8982 C134.7047,60.6539 133.7606,61.092 132.6953,61.1523 C131.6369,61.2679 130.4979,61.3161 129.3426,61.2464 C127.0355,61.1236 124.6631,60.5092 122.8605,59.6635 C122.4134,59.4693 121.9958,59.2389 121.6302,59.0325 C121.2646,58.825 120.9455,58.6192 120.6819,58.4343 C120.4205,58.238 120.2152,58.0838 120.0751,57.9787 C119.9359,57.8589 119.8617,57.7951 119.8617,57.7951 L119.8354,57.2956 C119.8354,57.2956 119.9013,57.2228 120.0248,57.0863 C120.1475,56.9644 120.3275,56.7856 120.5565,56.5581 C121.0113,56.1261 121.659,55.5667 122.4363,55.0018 C123.2139,54.4348 124.1236,53.8543 125.112,53.3635 C126.097,52.8463 127.1613,52.4267 128.2372,52.0863 C129.3125,51.7493 130.4021,51.5148 131.4326,51.3626 C132.456,51.1531 133.4605,51.3333 134.3753,51.8635 C134.8286,52.0987 135.263,52.4471 135.6526,52.7854 C136.0425,53.1245 136.404,53.5723 136.6939,53.88 C136.9972,54.2821 137.2299,54.5621 137.4036,54.851 C137.5733,55.1109 137.6639,55.2495 137.6639,55.2495 L137.7345,55.7445 L137.7345,55.7445 Z" id="Shape" fill="#F0DAE9"></path>
                    <path d="M9.4844,52.466 C9.4844,52.466 9.6033,52.4005 9.768,52.2929 C9.9472,52.167 10.1824,52.0562 10.4864,51.8755 C10.7622,51.755 11.1199,51.5489 11.4722,51.416 C11.8356,51.2762 12.2196,51.1407 12.6216,51.0625 C13.4235,50.8858 14.2839,50.8897 15.1649,51.1484 C16.0583,51.3622 17.019,51.6031 17.9927,51.8917 C18.9633,52.1742 19.9458,52.5032 20.8748,52.8537 C21.3408,53.02 21.788,53.2245 22.2195,53.3984 C22.6495,53.5874 23.0585,53.7658 23.4361,53.9599 C24.1921,54.3314 24.8307,54.7017 25.2789,54.97 C25.7266,55.2589 25.9844,55.4514 25.9844,55.4514 L25.9532,56.2006 C25.9532,56.2006 25.6797,56.3646 25.1975,56.6036 C24.7165,56.8115 24.0244,57.1443 23.1894,57.3835 C22.354,57.6379 21.3735,57.8772 20.3184,58.0028 C19.7897,58.0916 19.2456,58.1141 18.688,58.15 C18.1344,58.1658 17.5661,58.1902 17.0023,58.1487 C16.4364,58.1376 15.8718,58.0836 15.3161,58.008 C14.7585,57.96 14.2156,57.832 13.6868,57.7348 C12.6211,57.556 11.678,57.0889 10.957,56.4328 C10.5935,56.1274 10.2884,55.7456 10.0382,55.3957 C9.7833,55.0348 9.6104,54.6333 9.4586,54.328 C9.3309,53.9729 9.2359,53.7035 9.1892,53.4723 C9.1292,53.2563 9.131,53.1275 9.131,53.1275 L9.4844,52.466 L9.4844,52.466 Z" id="Shape" fill="#F0DAE9"></path>
                </g>
                <path d="M142.047,206.8064 C142.047,206.8064 136.752,202.8357 134.546,207.2479 C132.3399,211.66 129.692,216.074 130.1334,219.6033 C130.5748,223.1326 134.9874,219.6023 137.6349,223.574 C140.2823,227.5457 143.3707,229.3104 143.3707,229.3104 L142.047,206.8064 L142.047,206.8064 Z" id="Shape" fill="#000000"></path>
                <path d="M270.0094,204.6004 C270.0094,204.6004 276.6266,207.2479 278.8336,207.2479 C281.0406,207.2479 284.5699,211.2186 285.4527,215.1902 C286.3355,219.1619 285.0113,226.6629 281.9224,227.1043 C278.8336,227.5457 274.4215,224.0154 274.4215,224.0154 L270.0094,204.6004 L270.0094,204.6004 Z" id="Shape" fill="#000000"></path>
                <path d="M86.8912,199.3055 C86.8912,199.3055 93.9513,205.9246 93.9513,208.5721 C93.9513,211.2195 93.0689,215.1893 90.8624,217.3963 C88.6558,219.6033 83.3614,214.3074 83.3614,214.3074 L80.714,214.3074" id="Shape" fill="#000000"></path>
                <path d="M91.7955,40.7171 C91.7955,40.7171 99.3678,37.5623 105.9932,44.2928 C112.6187,51.0232 110.5152,52.6009 112.0929,56.1766 C113.6705,59.7522 91.7955,40.7171 91.7955,40.7171 L91.7955,40.7171 Z" id="Shape" fill="#FFFFFF"></path>
            </g>
        </g>
    </g>
</svg>