<?xml version="1.0" encoding="utf-8"?>
<!DOCTYPE svg PUBLIC "-//W3C//DTD SVG 1.1//EN" "http://www.w3.org/Graphics/SVG/1.1/DTD/svg11.dtd">
<svg version="1.1" id="Ebene_1" xmlns="http://www.w3.org/2000/svg" xmlns:xlink="http://www.w3.org/1999/xlink" x="0px" y="0px"
	 viewBox="0 0 476.7202 270.854" enable-background="new 0 0 476.7202 270.854" xml:space="preserve">
<g>
	<path fill="#ADDBE1" d="M207.0536,197.239c-0.9707-3.0977-50.0991-53.1289-113.0009-83.6685
		C62.6962,98.3469,217.9701-7.2347,215.3725,23.6799c-6.8042,80.9761,35.1846,164.9336,35.1846,164.9336"/>
	<path d="M206.5434,197.4821c0,0-0.0581-0.1035-0.1719-0.3056c-0.1147-0.2119-0.3037-0.3955-0.5449-0.7237
		c-0.5752-0.6816-1.4531-1.6914-2.6787-2.9541c-2.4268-2.5429-6.1504-6.1386-11.003-10.5879
		c-4.8667-4.4345-10.9008-9.6884-18.0278-15.4619c-3.5625-2.8872-7.397-5.9057-11.4878-9.0219
		c-4.0796-3.1309-8.4219-6.3531-13.0234-9.6148c-4.5908-3.2773-9.4434-6.5898-14.5381-9.9043
		c-5.0845-3.3296-10.4248-6.6406-15.9951-9.9014c-2.7735-1.6518-5.6353-3.2353-8.5191-4.8603
		c-2.9179-1.5635-5.8491-3.1856-8.8628-4.7285c-1.499-0.7862-3.0092-1.5708-4.5473-2.3184
		c-0.7661-0.3794-1.5342-0.7602-2.3042-1.1416l-1.1563-0.5732l-0.6391-0.3228l-0.585-0.3139
		c-0.9907-0.5782-1.7856-1.2207-2.5229-2.0909c-0.7193-0.8554-1.2657-1.9004-1.5581-2.9824
		c-0.5899-2.1938-0.2574-4.3179,0.2739-6.1938c1.1494-3.7627,3.1626-6.9219,5.2969-9.937c2.163-3.0005,4.5551-5.8082,7.0556-8.5254
		c5.0137-5.4224,10.4683-10.4805,16.1309-15.3638c11.3428-9.7471,23.5371-18.7954,36.2158-27.1123
		c6.3384-4.1597,12.7959-8.1436,19.3828-11.8648c6.5923-3.7104,13.2949-7.1962,20.2642-10.0952
		c3.4926-1.4321,7.0415-2.7417,10.7944-3.6157c1.8789-0.4277,3.8125-0.7529,5.8833-0.7407
		c1.0361,0.0171,2.1211,0.1245,3.2461,0.4971c1.1055,0.3662,2.3159,1.059,3.1016,2.1835c0.81,1.1036,1.1113,2.3936,1.1626,3.5152
		c0.0444,1.2085-0.0806,2.0171-0.1231,2.9331c-0.1221,1.8042-0.2432,3.602-0.3642,5.3935c-0.1026,1.7867-0.125,3.543-0.1919,5.3052
		c-0.0284,0.8799-0.0562,1.7583-0.0845,2.6348c-0.0015,0.8804-0.0025,1.7593-0.0039,2.6362
		c-0.0879,7.0191,0.2583,13.9248,0.7007,20.6738c0.5376,6.7447,1.2334,13.3345,2.165,19.7188
		c1.8081,12.7773,4.3628,24.7368,7.0757,35.6797c2.7812,10.9287,5.6968,20.8594,8.562,29.5718
		c2.8687,8.7124,5.6499,16.2153,8.0532,22.3481c2.4063,6.1323,4.4219,10.9019,5.8487,14.1284
		c1.4228,3.2285,2.2392,4.9155,2.2392,4.9155l-1.0117,0.5059c0,0-0.8701-1.688-2.3838-4.8931
		c-1.5068-3.208-3.6894-7.9272-6.2187-14.0395c-2.5323-6.1104-5.4722-13.5889-8.5245-22.2866
		c-3.0244-8.7046-6.2324-18.6094-9.1254-29.5904c-2.8624-10.9848-5.5806-23.0048-7.5601-35.8857
		c-1.0176-6.4351-1.8008-13.0879-2.4258-19.9077c-0.1528-1.7051-0.2485-3.4248-0.3765-5.1504
		c-0.1264-1.7266-0.248-3.4619-0.2988-5.2105c-0.0708-1.7475-0.1416-3.5034-0.2124-5.267
		c-0.0117-1.7657-0.0239-3.5396-0.0356-5.3209c-0.002-0.8906-0.0044-1.7836-0.0064-2.6782
		c0.0254-0.8984,0.0503-1.7983,0.0757-2.6997c0.061-1.7998,0.0801-3.6235,0.1763-5.4223c0.1142-1.792,0.2285-3.5909,0.3432-5.3951
		c0.0459-0.8881,0.149-1.8867,0.1104-2.4912c-0.0327-0.6826-0.2051-1.227-0.4873-1.5952c-0.4902-0.749-1.8745-1.1758-3.4736-1.1719
		c-1.5943-0.0053-3.3096,0.2691-5.0108,0.668c-3.418,0.8076-6.833,2.0718-10.1992,3.4707
		c-6.7373,2.832-13.3301,6.2881-19.8149,9.9732c-6.4839,3.6967-12.8589,7.664-19.1172,11.8066
		c-6.2618,4.1396-12.3892,8.4824-18.3926,12.936c-6.0015,4.4561-11.8521,9.065-17.4639,13.8491
		c-5.605,4.7876-10.9931,9.7427-15.8882,14.9893c-2.4389,2.6255-4.7573,5.3267-6.8081,8.145
		c-2.0258,2.8086-3.872,5.7823-4.7978,8.8076c-0.44,1.4971-0.6128,3.001-0.2764,4.2203c0.1641,0.6098,0.4443,1.1508,0.8438,1.6337
		c0.3794,0.4717,0.9619,0.9351,1.4668,1.2383l0.5605,0.3042l0.52,0.2657l1.167,0.5849c0.7769,0.3892,1.5518,0.7778,2.3247,1.1651
		c1.5523,0.7631,3.0747,1.5634,4.5864,2.3647c6.0723,3.1562,11.8687,6.5083,17.4371,9.8818
		c5.5727,3.3672,10.9082,6.7793,15.9829,10.2041c5.0844,3.4097,9.9223,6.812,14.4956,10.1734
		c9.1699,6.6909,17.2969,13.1943,24.3154,19.1684c7.0283,5.9639,12.9683,11.3785,17.7568,15.9463
		c4.7881,4.5694,8.4014,8.3145,10.7818,10.959c1.1977,1.313,2.0693,2.3765,2.6494,3.1099c0.6514,0.8564,0.8164,1.2695,0.8164,1.2695
		L206.5434,197.4821z"/>
</g>
<g>
	<path fill="#97BF0D" d="M326.4076,190.3117c0,6.8101-2.0693,13.1402-5.6201,18.3804c0,0.0098,0,0.0098,0,0.0098
		c-5.9092,8.7402-15.9092,14.4902-27.2597,14.4902c-6.71,0-12.9502-2.0098-18.1397-5.4609
		c-6.7598,3.4394-14.9697,5.4609-23.8105,5.4609c-9.5791,0-18.4097-2.3711-25.4698-6.3399h-0.0097
		c-3.6304,0.629-7.46,0.9688-11.4302,0.9688c-12.3799,0-23.4898-3.2793-31.0498-8.4688c-3.1104,0.709-6.4302,1.0899-9.8901,1.0899
		c-9.23,0-17.5303-2.7109-23.2403-7.0313c-2.8999,0.211-5.8999,0.3204-8.98,0.3204c-14.9697,0-28.1997-2.5704-36.1396-6.5098
		c-5.8804,1.1601-12.52,1.8105-19.5601,1.8105c-20.6001,0-37.8403-5.58-42.2099-13.0503
		c-8.3404-2.79-13.8301-7.5503-13.8301-12.9502c0-8.6201,13.9697-15.6098,31.21-15.6098c11.7797,0,22.04,3.27,27.35,8.0898
		c15.8301,0.3501,29.3799,4,36.15,9.2002c5.2397-0.7602,11-1.1802,17.0297-1.1802c3.69,0,7.2803,0.1602,10.71,0.46
		c5.6001-3.6099,13.1704-5.8301,21.5103-5.8301c6.85,0,13.2001,1.5,18.35,4.0503c6.4898-2.56,14.25-4.0503,22.5899-4.0503
		c3.3301,0,6.5698,0.2403,9.6699,0.69c7.3301-4.6099,16.8403-7.3999,27.2398-7.3999c7.4404,0,14.4306,1.4301,20.4902,3.9301
		c5.7598-4.9599,13.2598-7.9599,21.46-7.9599c2.25,0,4.4502,0.23,6.5703,0.6597
		C315.1078,161.1213,326.4076,174.4016,326.4076,190.3117z"/>
	<path d="M326.9076,190.3308l-0.1123,2.4355c-0.0849,0.8223-0.1953,1.6484-0.2929,2.4707
		c-0.0577,0.4102-0.1573,0.8096-0.2285,1.2158l-0.2305,1.2149c-0.0811,0.4033-0.2061,0.7969-0.3067,1.1963l-0.3203,1.1943
		c-0.1113,0.3965-0.2656,0.7803-0.3955,1.1709l-0.3984,1.1709c-0.2988,0.7686-0.6338,1.5225-0.9502,2.2852
		c-0.3604,0.7421-0.7471,1.4726-1.1201,2.2109l-1.2823,2.123l0.0997-0.3271l0.0009,0.0098l0.002,0.1796l-0.1026,0.1465
		c-0.623,0.8926-1.2324,1.7959-1.9267,2.6377c-0.3291,0.4365-0.6846,0.8496-1.0518,1.253
		c-0.3662,0.4043-0.7129,0.8281-1.1093,1.2041c-0.3877,0.3837-0.7666,0.7783-1.1641,1.1533l-1.2275,1.0898
		c-0.8458,0.6924-1.6993,1.3819-2.6211,1.9756c-0.8936,0.6348-1.8506,1.1729-2.8018,1.7158l-1.4629,0.752
		c-0.4951,0.2373-1.0019,0.4463-1.5029,0.6709c-0.4971,0.2334-1.0186,0.4072-1.5322,0.5996
		c-0.5147,0.1914-1.0293,0.3857-1.5606,0.5264c-1.0488,0.3271-2.1211,0.5654-3.1953,0.791c-1.082,0.1787-2.1631,0.3818-3.2578,0.455
		c-1.0908,0.128-2.1885,0.1299-3.2842,0.1622c-1.1416-0.0645-2.1338-0.0323-3.2578-0.1875l-1.6504-0.2081
		c-0.5449-0.082-1.0762-0.2099-1.6143-0.3125c-1.08-0.1826-2.122-0.5312-3.1767-0.8154c-0.5225-0.1582-1.0303-0.3633-1.5459-0.5439
		c-0.5156-0.1817-1.0283-0.3692-1.5186-0.6114l-1.4863-0.6845c-0.4863-0.2461-0.958-0.5205-1.4365-0.7803
		c-0.9717-0.4932-1.8487-1.1475-2.7696-1.7207l-0.0048-0.002l0.5039,0.0293c-0.9561,0.4942-1.9053,1.0166-2.8867,1.4678
		c-0.9952,0.4151-1.9708,0.8936-2.9893,1.2578c-1.0264,0.3379-2.0293,0.7608-3.0781,1.0283
		c-1.044,0.2842-2.0742,0.6299-3.1377,0.8379c-1.0576,0.2334-2.1114,0.4971-3.1875,0.628
		c-1.0723,0.1543-2.1407,0.3496-3.2217,0.4228c-1.0791,0.0908-2.1563,0.2285-3.2412,0.2393l-1.624,0.0566
		c-0.2832,0.0049-0.5147,0.0274-0.8399,0.0196l-0.7988-0.0274c-1.0703-0.0557-2.1192-0.042-3.208-0.1543
		c-1.086-0.1152-2.1797-0.1973-3.2569-0.3408l-3.208-0.5254l-3.163-0.7451l-3.107-0.9512c-1.019-0.3662-2.0283-0.7598-3.0381-1.1465
		c-0.9892-0.4394-1.9614-0.917-2.9399-1.372c-0.9551-0.5079-1.8901-1.0508-2.8262-1.584l0.2451,0.0634h-0.0073h-0.0024
		l0.0854-0.0068c-1.8105,0.3945-3.646,0.7012-5.4819,1.0537c-1.8506,0.1826-3.7119,0.3174-5.5762,0.4483
		c-1.0024,0.0683-1.8618,0.0039-2.7998,0.0048c-0.9238-0.0292-1.8281,0.0079-2.7681-0.0761l-2.8169-0.2627
		c-0.9448-0.0674-1.872-0.2022-2.7915-0.3779l-2.7666-0.4825l-2.7275-0.6826l-1.3599-0.3525l-1.3349-0.4434l-2.6553-0.9219
		l-2.5767-1.1338c-0.8652-0.3574-1.685-0.8203-2.5009-1.2832c-0.8052-0.4824-1.6514-0.8808-2.4043-1.4501
		c-0.774-0.5284-1.5357-1.0723-2.2876-1.6211l0,0l0.3935,0.0752c-0.7065,0.1855-1.417,0.3632-2.1308,0.5322
		c-0.7154,0.1601-1.44,0.2715-2.1617,0.4092c-0.7216,0.1425-1.4555,0.1777-2.1845,0.2705
		c-0.7295,0.0947-1.4624,0.1328-2.1963,0.1679l-1.1016,0.0577c-0.4306,0.0185-0.7412-0.0127-1.1176-0.0157l-2.1651-0.0615
		c-0.7202-0.0156-1.4726-0.1318-2.208-0.1943c-0.7358-0.0889-1.4888-0.1162-2.207-0.2754l-2.1699-0.4239
		c-0.7256-0.1279-1.4268-0.372-2.1407-0.5537c-0.7094-0.2011-1.4282-0.3691-2.1152-0.6435
		c-0.6963-0.2461-1.3858-0.5108-2.0737-0.7744c-0.6758-0.2959-1.3365-0.6299-2.0039-0.9434
		c-0.6749-0.2969-1.315-0.666-1.9454-1.0527c-0.6206-0.4014-1.2827-0.7276-1.8588-1.1963c-0.5953-0.4385-1.1822-0.8838-1.7627-1.333
		l0.3379,0.1006h-0.0015l-5.7647,0.2988l-2.8857,0.1201c-0.9873,0.0264-1.9238-0.0185-2.8882-0.0244l-2.8735-0.0439l-2.8906-0.1641
		c-0.9634-0.0615-1.9302-0.1006-2.8912-0.1826l-2.873-0.3262c-0.9566-0.1162-1.917-0.1973-2.8667-0.3721l-2.855-0.4658
		c-0.9551-0.1338-1.896-0.3545-2.8393-0.5576l-2.8277-0.6191l-2.7944-0.7745c-0.9365-0.2373-1.854-0.5478-2.7617-0.8886
		c-0.9034-0.3506-1.8379-0.6084-2.7144-1.0352l-2.6504-1.2051l0.3189,0.042l-0.0039,0.001l-4.0376,0.7178
		c-1.3487,0.2236-2.7095,0.3574-4.0645,0.5381c-1.3545,0.1943-2.7207,0.249-4.083,0.3584l-2.0444,0.1484
		c-0.6822,0.0361-1.3653,0.04-2.0479,0.0615c-1.3686,0.0225-2.7256,0.0987-4.104,0.0762c-1.3623-0.0342-2.7114-0.0059-4.084-0.0918
		c-1.3681-0.0723-2.7412-0.1094-4.1006-0.2432c-1.3627-0.1054-2.7255-0.2207-4.081-0.4092
		c-1.3594-0.1494-2.7109-0.3623-4.061-0.5878c-1.3545-0.1924-2.689-0.5108-4.0332-0.7657
		c-1.3335-0.3115-2.6705-0.6142-3.9898-0.9873c-1.3188-0.374-2.6357-0.7568-3.9277-1.2265c-1.3072-0.42-2.5703-0.9766-3.8394-1.5059
		l-1.8667-0.8906c-0.6138-0.3164-1.209-0.6729-1.811-1.0127c-1.1807-0.7227-2.3316-1.5103-3.3765-2.4458
		c-0.5586-0.4204-0.9941-0.9927-1.4873-1.4922c-0.4829-0.5127-0.8354-1.1499-1.2549-1.7202l0.273,0.2217l-0.0025-0.001
		c-1.7671-0.4985-3.5146-1.1109-5.1948-1.9068c-1.6816-0.7895-3.3144-1.7319-4.812-2.915
		c-1.4888-1.1831-2.8643-2.6245-3.7842-4.4336c-0.4731-0.8935-0.7915-1.8848-0.979-2.9077
		c-0.0581-0.5244-0.1255-1.0166-0.1055-1.5815c0.0137-0.2398-0.0014-0.4234,0.0362-0.7095l0.1118-0.8286
		c0.4028-2.0581,1.4453-3.9038,2.7446-5.3907c1.3018-1.5053,2.8467-2.7036,4.4551-3.7382
		c3.2339-2.0635,6.7974-3.3868,10.4063-4.3423c3.6152-0.9541,7.3188-1.4805,11.0263-1.6621
		c0.9273-0.044,1.8545-0.0821,2.7818-0.0816l0.6958,0.0015c0.3354-0.002,0.4829,0.0185,0.7334,0.0268l1.3584,0.0669
		c0.9086,0.0533,1.8027,0.0713,2.7236,0.1529l2.7949,0.3349c0.4639,0.065,0.9326,0.1089,1.3906,0.1919l1.3653,0.2769
		c0.9082,0.1929,1.8217,0.352,2.7221,0.5737c1.7876,0.5186,3.5821,0.9868,5.3018,1.7168c0.8696,0.3286,1.7349,0.6621,2.5547,1.1192
		c0.8218,0.4443,1.6763,0.8076,2.4614,1.3173c0.7808,0.5171,1.5674,1.0157,2.3306,1.545l2.1011,1.8549l0.0083,0.0035l-0.3262-0.1304
		c0.7954-0.1875,1.5942-0.332,2.395-0.4439c0.8013-0.1323,1.6021-0.1733,2.4053-0.2353c0.8042-0.0733,1.6069-0.084,2.4096-0.0786
		c0.8033,0.0039,1.608,0.0053,2.4078,0.0718c1.604,0.0883,3.2006,0.2866,4.7866,0.5517c1.584,0.2837,3.164,0.5918,4.7358,0.9536
		c0.7827,0.1919,1.5591,0.4214,2.3374,0.6304c0.7783,0.2119,1.5464,0.4731,2.3189,0.707c0.769,0.2461,1.5219,0.5591,2.2807,0.8355
		c0.7554,0.292,1.502,0.6162,2.2447,0.9375c1.4668,0.7031,2.9228,1.4306,4.2876,2.332l1.02,0.6719
		c0.3325,0.2363,0.6509,0.499,0.9741,0.7456c0.6602,0.4722,1.2353,1.0771,1.8301,1.6201l0.0112,0.0044l-0.3784-0.0986
		c1.1167-0.4029,2.2568-0.6924,3.4014-0.9795c1.1459-0.2754,2.3007-0.5098,3.4599-0.7241c0.5796-0.1021,1.1607-0.2203,1.7451-0.2574
		c0.584-0.0483,1.1675-0.1089,1.7534-0.1377c1.1705-0.0766,2.3438-0.125,3.5171-0.1425l1.7593-0.0347
		c0.6001-0.0117,1.1421-0.023,1.7896,0.0151c1.1567,0.0694,2.3134,0.1533,3.4692,0.2764c0.5781,0.0537,1.1553,0.1069,1.7339,0.189
		c0.585,0.102,1.1699,0.1845,1.7519,0.3022c1.1636,0.2231,2.3223,0.4575,3.4644,0.772l0.0103-0.001l-0.315,0.0781
		c0.7002-0.5342,1.4102-1.0718,2.1421-1.582c0.7554-0.4639,1.5278-0.9067,2.3008-1.3594l2.4209-1.1426
		c0.8247-0.3393,1.6714-0.6235,2.5112-0.936c0.8477-0.2827,1.7114-0.5132,2.5757-0.7461c0.8618-0.2476,1.7485-0.3667,2.624-0.5552
		c0.875-0.2046,1.7681-0.2675,2.6563-0.3701l1.334-0.1445l1.3393-0.0591c0.4468-0.022,0.8936-0.0352,1.3403-0.043
		c0.2403-0.0014,0.4087-0.0185,0.7081-0.0068l0.6484,0.0239c0.8706,0.0396,1.709,0.0396,2.6318,0.1431
		c0.9033,0.0991,1.812,0.1826,2.6856,0.3491c0.8823,0.1401,1.7627,0.2857,2.6264,0.5234l1.2994,0.3184l1.2802,0.394
		c0.8531,0.2574,1.6846,0.584,2.5113,0.9136c0.8295,0.3184,1.6225,0.7364,2.4184,1.1236c0.7925,0.3964,1.5405,0.8886,2.292,1.3457
		l0.0083,0.0024l-0.4067-0.0176c1.2065-0.6943,2.4712-1.2881,3.7417-1.8935c0.6396-0.2881,1.2793-0.5904,1.9482-0.7862
		c0.6631-0.2202,1.335-0.4126,2.0044-0.6201c0.6694-0.2099,1.3438-0.4062,2.022-0.5854c0.6733-0.2115,1.3637-0.3199,2.0532-0.4409
		l4.1572-0.6226c0.6929-0.1138,1.397-0.0767,2.0952-0.1162c0.6997-0.0166,1.3985-0.0562,2.0982-0.0528l2.0957-0.0068l0.5234-0.0015
		c0.2827,0.0093,0.3721,0.0245,0.5669,0.0435l1.021,0.1069c0.6802,0.0767,1.3613,0.1319,2.041,0.2266
		c0.6812,0.0972,1.3545,0.1528,2.0528,0.3218c1.3823,0.3139,2.7529,0.6245,4.0883,1.0381h0.0064l-0.3384,0.0717
		c0.8486-0.6118,1.7105-1.2168,2.5855-1.8095c0.895-0.5533,1.8271-1.0449,2.7461-1.5723c0.9311-0.501,1.9121-0.8926,2.8711-1.3447
		c0.9541-0.4712,1.977-0.7481,2.9677-1.1265c0.5015-0.1689,0.9937-0.375,1.5049-0.5127l1.5361-0.4072
		c1.0225-0.2808,2.0498-0.5474,3.0957-0.7217c1.044-0.1738,2.0811-0.4219,3.1377-0.5098l3.1631-0.3354l3.1768-0.0835l0.3974-0.0103
		l0.1983-0.0048l0.0996-0.003l0.167,0.0054l0.7734,0.0425l1.5469,0.0957l3.0908,0.2173c1.0596,0.167,2.1162,0.3584,3.168,0.5508
		c1.0449,0.2197,2.1221,0.312,3.1211,0.6655l3.0312,0.9131c1.0137,0.2802,1.9825,0.706,2.9434,1.1377
		c0.9648,0.4223,1.918,0.8593,2.8613,1.3042h0.0049l-0.5186,0.0835c0.4766-0.6617,1.004-1.2867,1.5401-1.9161
		c0.541-0.622,1.1631-1.1523,1.7822-1.6972c0.3145-0.2652,0.6182-0.5518,0.9463-0.8013c0.3301-0.2471,0.6748-0.4726,1.0156-0.7085
		c0.6866-0.4595,1.3662-0.9482,2.1172-1.2998c0.7393-0.376,1.4756-0.7715,2.2432-1.0918c0.7773-0.293,1.5625-0.5762,2.3506-0.8481
		c0.7939-0.2534,1.6142-0.4165,2.4257-0.6045c0.8086-0.21,1.6368-0.3091,2.4639-0.4131c0.8272-0.0991,1.6494-0.2476,2.4834-0.249
		l1.2471-0.0489l0.623-0.0234l0.3116-0.0112l0.1562-0.0059l0.0781-0.0029l0.1817,0.0068l2.3388,0.1602
		c0.753,0.0234,1.6104,0.1738,2.4571,0.3208l1.2627,0.2158l0.6308,0.1103l0.0781,0.0137l0.1592,0.0366l0.1416,0.0386l0.2823,0.0767
		l2.2597,0.6284l2.3897,0.894c0.8047,0.2867,1.5078,0.6944,2.2627,1.0367c0.7548,0.3325,1.4609,0.7602,2.1621,1.1904
		c0.708,0.4194,1.4131,0.8374,2.0644,1.3403c1.3594,0.9199,2.5928,1.9986,3.8115,3.0791l1.711,1.7427
		c0.5605,0.5874,1.0508,1.2397,1.5762,1.855c0.54,0.605,0.9716,1.2964,1.4404,1.9531l0.6914,0.9937l0.6074,1.0478
		c0.8467,1.3726,1.5059,2.8462,2.1699,4.3013l0.8555,2.2451c0.2481,0.7602,0.4482,1.5366,0.6729,2.3017
		c0.2461,0.7598,0.3476,1.5567,0.5253,2.3326l0.2383,1.1699l0.1367,1.1865c0.2383,1.5762,0.2344,3.1694,0.2754,4.7539V190.3308z
		 M325.9076,190.3117c-0.1005-1.5376-0.1543-3.0752-0.4453-4.5874l-0.1738-1.1367l-0.2744-1.1172
		c-0.1992-0.7402-0.3223-1.5-0.6123-2.2124c-0.2617-0.7197-0.4961-1.4477-0.7764-2.1567l-0.9463-2.0835
		c-0.707-1.3482-1.4424-2.6826-2.3486-3.9029l-0.6465-0.9326l-0.7256-0.8745c-0.4892-0.5757-0.9365-1.1841-1.4883-1.7031
		c-0.5371-0.5298-1.0351-1.0947-1.5976-1.5933l-1.7041-1.4697c-1.2031-0.8955-2.4004-1.7856-3.7022-2.5156
		c-0.623-0.4077-1.2939-0.7305-1.9619-1.0547c-0.6631-0.3325-1.3222-0.668-2.0195-0.9209
		c-0.6875-0.2554-1.3692-0.5957-2.0557-0.7827l-2.0459-0.6255l-2.29-0.5025l-0.2861-0.0644l-0.1426-0.0322l-0.0362-0.0083
		c0.0323,0.0073-0.0976-0.022,0.0674,0.0156l-0.0156-0.002l-0.0664-0.0083l-0.5293-0.0659l-1.0537-0.1352
		c-1.3272-0.2578-3.0098-0.187-4.541-0.2754l-2.0869,0.1142c-0.7325,0.0059-1.4502,0.1548-2.1739,0.2505
		c-0.7226,0.1011-1.4472,0.1934-2.1504,0.3916c-0.7041,0.189-1.4287,0.2974-2.1269,0.5088
		c-0.6963,0.2153-1.3965,0.4194-2.1035,0.6138c-0.6992,0.2148-1.376,0.4956-2.0801,0.7192c-0.7119,0.211-1.376,0.5278-2.0713,0.7974
		c-0.6934,0.2724-1.4053,0.5254-2.0752,0.8667c-0.6641,0.3452-1.4219,0.5698-2.085,0.9477
		c-0.6904,0.3389-1.3906,0.6817-2.1416,0.9878l-0.4052,0.1651l-0.1133-0.0816l-0.0029-0.0024
		c-1.0039-0.2451-1.9971-0.4976-2.9795-0.7647c-0.9834-0.2651-1.9502-0.5698-2.9659-0.7031l-2.9863-0.5669
		c-0.9873-0.2344-1.9892-0.2617-2.9795-0.3887c-0.9912-0.104-1.9795-0.2094-2.9638-0.3383l-3.0987-0.0787l-1.5478-0.0527
		l-0.7744-0.0312l-0.6856,0.0278l-3.0156,0.123l-3.0039,0.2793c-1.0059,0.0616-1.9863,0.3008-2.9834,0.4288
		c-1.002,0.1181-1.9844,0.3271-2.9658,0.5498c-0.9834,0.2119-1.9727,0.4072-2.9375,0.6953
		c-0.9654,0.2827-1.961,0.4897-2.9048,0.8432c-0.9507,0.3326-1.9297,0.6104-2.8672,0.9888l-2.8257,1.1362
		c-0.915,0.4385-1.8428,0.8653-2.7837,1.2847l-0.2173,0.0967l-0.1211-0.0249l-0.0063-0.0015
		c-1.3799,0.1201-2.7236,0.1372-4.0567,0.1572c-0.6557-0.0214-1.3515,0.042-2.0336,0.0787
		c-0.6851,0.0458-1.3682,0.0517-2.0523,0.0795l-1.0259,0.0337c-0.146,0.0093-0.3979,0.0044-0.4565,0.0122l-0.4995,0.0445
		l-1.9961,0.1748c-0.6646,0.0644-1.3301,0.0849-1.9942,0.1294c-0.6626,0.0561-1.3335,0.0351-1.9877,0.164l-3.961,0.4766
		c-0.6645,0.0586-1.332,0.104-1.98,0.2515c-0.6518,0.1279-1.3081,0.2387-1.9692,0.3364c-0.6606,0.0996-1.3189,0.2148-1.9863,0.3017
		c-0.6763,0.0586-1.3208,0.2286-1.9746,0.3755c-1.3179,0.2652-2.6421,0.541-4.024,0.7168l-0.3232,0.0415l-0.0835-0.0586
		l-0.0064-0.0044c-0.832-0.2397-1.6289-0.5346-2.4501-0.7612c-0.8262-0.2134-1.6226-0.4902-2.4581-0.6499
		c-0.8198-0.2036-1.6362-0.4038-2.4707-0.5356l-1.2353-0.2437l-1.2481-0.1787c-0.8281-0.1313-1.6621-0.2178-2.4956-0.3042
		c-0.8354-0.1108-1.6557-0.1304-2.4765-0.1782c-0.7989-0.0811-1.6934-0.0669-2.5513-0.0889l-0.6489-0.0112
		c-0.1333-0.0054-0.397,0.0146-0.5889,0.0205c-0.418,0.0205-0.8354,0.0361-1.2539,0.043l-1.2544,0.0302l-1.248,0.1138
		c-0.8321,0.0786-1.668,0.1343-2.4927,0.2676c-0.8237,0.1323-1.6651,0.1938-2.479,0.3818c-0.8135,0.1875-1.647,0.3057-2.4614,0.5015
		l-2.4356,0.6352l-2.4043,0.7691l-2.3696,0.9053c-0.7681,0.3505-1.544,0.7006-2.3374,1.04l-0.2227,0.0952l-0.0927-0.0171
		l-0.0098-0.0019c-1.169,0.1631-2.3218,0.247-3.4693,0.3203c-0.5737,0.042-1.1445,0.0493-1.7148,0.0762
		c-0.5791,0.0488-1.1602,0.083-1.7393,0.1098c-1.1601,0.0733-2.3188,0.1069-3.478,0.1265c-0.5102,0.0137-1.1255,0.0888-1.6826,0.103
		l-1.7129,0.0855c-1.1411,0.0625-2.2827,0.0947-3.4272,0.0981c-0.5713,0.0112-1.1451-0.0093-1.7183-0.0176
		c-0.5757-0.0342-1.1401,0.0567-1.7139,0.0503c-1.144,0.0313-2.292,0.042-3.4492,0.0117c-1.1587-0.0415-2.3218-0.0864-3.5083-0.2436
		l-0.3315-0.044l-0.0474-0.0547l-0.0073-0.0092c-0.7007-0.3521-1.3672-0.7242-2.0781-1.0327
		c-0.6929-0.3316-1.4058-0.6206-2.1158-0.9107c-0.6987-0.3057-1.4487-0.5171-2.1533-0.8027l-2.1889-0.7051
		c-0.7427-0.2017-1.4654-0.4473-2.2095-0.6392c-0.7466-0.186-1.4829-0.3916-2.2329-0.561
		c-0.7491-0.1738-1.4883-0.3735-2.2427-0.5259c-0.7554-0.1499-1.5034-0.3203-2.2617-0.4541
		c-1.5069-0.3115-3.0249-0.5737-4.5479-0.8125c-0.7651-0.1001-1.5273-0.2192-2.289-0.3403l-2.2906-0.3648
		c-1.5278-0.2504-3.0581-0.5263-4.5962-0.831c-0.7695-0.1455-1.539-0.3281-2.3125-0.4971c-0.7739-0.167-1.5493-0.3672-2.3281-0.6103
		l-0.3003-0.0943l-0.0263-0.0361l-0.0044-0.0068l-2.1851-1.4927c-0.771-0.4312-1.561-0.8311-2.334-1.2471
		c-0.7773-0.4082-1.6347-0.6782-2.4424-1.0234c-0.8037-0.3594-1.665-0.586-2.5083-0.8511c-1.666-0.5884-3.4218-0.8936-5.1381-1.3027
		c-0.8677-0.1695-1.7505-0.2769-2.6231-0.419l-1.311-0.2007c-0.437-0.0576-0.8745-0.0752-1.3111-0.1147l-2.6132-0.2329
		c-0.8853-0.0537-1.8067-0.0459-2.7085-0.0718l-1.3594-0.0268c-0.2022-0.001-0.5073-0.0171-0.625-0.0054l-0.6641,0.0185
		c-0.8852,0.0098-1.7695,0.0537-2.6523,0.1045c-3.5308,0.2158-7.0362,0.7505-10.4444,1.5967
		c-1.7016,0.4316-3.3754,0.958-4.9956,1.5962c-1.6162,0.6411-3.2002,1.3608-4.6591,2.2549
		c-1.4585,0.8867-2.8262,1.9121-3.9317,3.1255c-1.1304,1.1909-1.9629,2.5918-2.3242,4.0883l-0.0952,0.5147
		c-0.0391,0.1611-0.0381,0.4341-0.0591,0.646c-0.0308,0.3389,0.0112,0.7549,0.0303,1.1299c0.102,0.7641,0.291,1.5317,0.6299,2.2622
		c0.6342,1.4819,1.7646,2.7812,3.0073,3.9555c1.2646,1.1666,2.7197,2.1685,4.2583,3.0376c1.5444,0.8614,3.1626,1.6216,4.8276,2.2876
		l0.0025,0.001l0.1386,0.0484l0.1343,0.1733c0.3975,0.5127,0.7114,1.082,1.169,1.5513c0.4692,0.4575,0.8667,0.98,1.4062,1.372
		c0.9937,0.8658,2.105,1.605,3.249,2.2832c0.5874,0.3169,1.1582,0.6622,1.7544,0.9644l1.8169,0.8564
		c1.2403,0.5088,2.4722,1.0469,3.7569,1.4512c1.2656,0.4551,2.5615,0.8242,3.8593,1.1856c1.2974,0.3603,2.6162,0.6513,3.9297,0.9521
		c1.3272,0.2451,2.6416,0.5527,3.9805,0.7363c1.333,0.2159,2.6675,0.42,4.0112,0.5606c1.3394,0.1748,2.6846,0.2988,4.0313,0.4101
		c1.3462,0.1397,2.6919,0.1827,4.0381,0.2618c1.3403,0.0927,2.7124,0.0713,4.0673,0.1123c1.3394,0.0293,2.6997-0.0391,4.0489-0.0547
		c0.6757-0.0176,1.3525-0.0176,2.0273-0.0498l2.023-0.1358c1.3476-0.1015,2.7011-0.1484,4.0405-0.334
		c1.3413-0.1621,2.6909-0.2705,4.0263-0.4726l4.002-0.6484h0.0039l0.1514-0.0284l0.1675,0.0703l2.6137,1.1026
		c0.8594,0.3906,1.7906,0.6191,2.6812,0.9375c0.8979,0.3008,1.7925,0.6113,2.7192,0.831l2.752,0.7354l2.792,0.583
		c0.9311,0.1914,1.8588,0.4004,2.8037,0.5234l2.8222,0.4327c0.9375,0.164,1.8892,0.2353,2.835,0.3408l2.8403,0.3027
		c0.9468,0.0908,1.8951,0.1406,2.8428,0.2129l2.8452,0.1963l2.8731,0.0791c0.9507,0.0166,1.9301,0.0723,2.8579,0.0576l2.8579-0.0859
		l5.7236-0.1104h0.0015l0.1474-0.0137l0.1905,0.1143c0.6123,0.3652,1.2177,0.7334,1.8154,1.1104
		c0.582,0.4003,1.252,0.6621,1.8731,0.9951c0.6245,0.3301,1.2485,0.6582,1.913,0.9082c0.6548,0.2666,1.2998,0.5537,1.9595,0.8037
		c0.6734,0.2168,1.3462,0.4326,2.0122,0.667c0.6597,0.2529,1.3535,0.4004,2.0362,0.582c0.6879,0.1611,1.3603,0.3867,2.06,0.4961
		l2.0884,0.3711c0.6943,0.1562,1.3901,0.1963,2.0859,0.292c0.7017,0.0703,1.3784,0.1963,2.1021,0.2246l2.1636,0.0977
		c0.3452,0.0097,0.7563,0.0468,1.0473,0.0341l1.0635-0.0009c0.71,0.0039,1.4209,0.0039,2.1284-0.0518
		c0.7075-0.0527,1.4224-0.0518,2.126-0.1494c0.7065-0.0742,1.4189-0.1221,2.1245-0.2188c0.7026-0.1113,1.4087-0.2138,2.1182-0.3086
		l0.2407-0.0322l0.1538,0.1074l0,0c0.8115,0.419,1.6138,0.8418,2.4028,1.2803c0.7725,0.4658,1.6411,0.7647,2.458,1.1436
		c0.8262,0.3642,1.6338,0.7607,2.4986,1.0351l2.5376,0.9336l2.5971,0.7578l1.295,0.3838l1.3212,0.294l2.6358,0.6045l2.6719,0.4335
		l1.3344,0.2247c0.4444,0.0683,0.8897,0.0996,1.3345,0.1513l2.6709,0.2852c0.8892,0.1055,1.8286,0.1103,2.7402,0.1699
		c0.8995,0.0322,1.878,0.126,2.7124,0.1191l5.4424-0.041c1.8111-0.1181,3.6221-0.2812,5.4585-0.3564l0.0855-0.0069h0.0024h0.0073
		l0.0992-0.0039l0.146,0.0674l2.8623,1.3408c0.9814,0.3848,1.9521,0.7891,2.9355,1.1563l2.9902,0.9932l3.043,0.8086l3.083,0.6328
		l3.1113,0.4687c1.0372,0.125,2.0733,0.1885,3.1094,0.2881c1.0322,0.0967,2.1221,0.0713,3.1807,0.1133l0.7988,0.0234
		c0.209,0.0098,0.5098-0.0078,0.7598-0.0097l1.5722-0.0352c1.0508,0.0049,2.0938-0.1162,3.1407-0.1904
		c1.0488-0.0557,2.083-0.2334,3.123-0.3682c1.044-0.1182,2.0664-0.3555,3.1016-0.5303c1.04-0.1601,2.0478-0.457,3.0713-0.6924
		c1.0302-0.2187,2.0136-0.5917,3.0254-0.8789c1.0117-0.29,1.9834-0.6933,2.9814-1.0341c0.9795-0.3838,1.9375-0.8213,2.9189-1.2159
		l0.2881-0.1171l0.2159,0.1464l0.0039,0.002c0.9228,0.5107,1.7968,1.1025,2.7597,1.5303c0.4746,0.2265,0.9405,0.4697,1.419,0.6826
		l1.4609,0.5859c0.9707,0.3926,1.9805,0.6865,2.9746,1.0059c1.0176,0.2412,2.0195,0.5498,3.0567,0.6933
		c0.5156,0.083,1.0293,0.1924,1.5429,0.2549l1.5391,0.1514c0.999,0.1211,2.1553,0.0976,3.1474,0.1455
		c1.043-0.042,2.087-0.0518,3.1221-0.1846c1.0401-0.0771,2.0654-0.2822,3.0908-0.4599c1.0176-0.2246,2.0323-0.458,3.0235-0.7784
		c0.5039-0.1328,0.9961-0.3046,1.4863-0.4804c0.4902-0.1748,0.9883-0.3301,1.4629-0.5459c0.4785-0.2061,0.9648-0.3965,1.4375-0.6143
		l1.4023-0.6924c0.9121-0.5029,1.833-1,2.6934-1.5918c0.8848-0.5546,1.71-1.1972,2.5469-1.8222l1.2119-0.9971
		c0.3926-0.3447,0.7685-0.709,1.1553-1.0635c0.3945-0.3457,0.7392-0.7402,1.1054-1.1152c0.3682-0.374,0.7246-0.7588,1.0547-1.166
		c0.7002-0.7842,1.3174-1.6338,1.9424-2.4795l-0.1006,0.3262l0.001-0.0098l0.0019-0.1748l0.0977-0.1524l1.2969-2.0146
		c0.3799-0.7022,0.7744-1.3984,1.1435-2.1074c0.3262-0.7305,0.6729-1.4522,0.9844-2.1895c0.2754-0.7519,0.5596-1.5019,0.8027-2.2646
		l0.3164-1.1592c0.0997-0.3887,0.2237-0.7705,0.3047-1.1631c0.1485-0.7861,0.3164-1.5723,0.4356-2.3623
		c0.0801-0.793,0.1748-1.5791,0.2461-2.374l0.0722-2.4375V190.3117z"/>
</g>
<path opacity="0.15" fill="#FFFFFF" d="M300.0981,158.0813c-2.1201-0.4297-4.3203-0.6597-6.5703-0.6597
	c-8.2002,0-15.7002,3-21.46,7.9599c-6.0596-2.5-13.0498-3.9301-20.4902-3.9301c-10.3995,0-19.9097,2.79-27.2398,7.3999
	c-3.1001-0.4497-6.3398-0.69-9.6699-0.69c-8.3399,0-16.1001,1.4903-22.5899,4.0503c-5.1499-2.5503-11.5-4.0503-18.35-4.0503
	c-8.3399,0-15.9102,2.2202-21.5103,5.8296c-3.4297-0.2988-7.02-0.459-10.71-0.459c-6.0297,0-11.79,0.42-17.0297,1.1797
	c-6.7701-5.2002-20.3199-8.8501-36.15-9.2002c-5.31-4.8198-15.5703-8.0898-27.35-8.0898c-14.3638,0-26.4493,4.8535-30.085,11.458
	c2.0059,3.6455,6.582,6.7578,12.7051,8.8066c4.3696,7.4698,21.6098,13.0498,42.2099,13.0498c7.0401,0,13.6797-0.6504,19.5601-1.8105
	c7.9399,3.9394,21.1699,6.5098,36.1396,6.5098c3.0801,0,6.0801-0.1094,8.98-0.3204c5.71,4.3204,14.0103,7.0313,23.2403,7.0313
	c3.4599,0,6.7802-0.3809,9.8896-1.0899c7.5605,5.1895,18.6699,8.4688,31.0508,8.4688c3.9697,0,7.7988-0.3398,11.4297-0.9688h0.0097
	c7.0606,3.9688,15.8907,6.3399,25.4698,6.3399c8.8408,0,17.0507-2.0215,23.8105-5.4609c5.1895,3.4511,11.4297,5.4609,18.1397,5.4609
	c11.3505,0,21.3505-5.75,27.2597-14.4902c0,0,0,0,0-0.0098c2.8301-4.1768,4.6983-9.0537,5.3477-14.3076
	C324.3422,172.0964,313.7582,160.8479,300.0981,158.0813z"/>
<g>
	<path d="M263.2778,209.9353c-0.1914,1.1523-0.5137,2.2382-0.8682,3.3076c-0.3574,1.0664-0.7764,2.1025-1.2344,3.1181
		c-0.459,1.0147-0.9648,2.0059-1.4912,2.9864c-0.5254,0.9804-1.0322,1.9707-1.5713,2.9453
		c-1.0762,1.9482-2.1826,3.8818-3.3467,5.7851c-1.1699,1.9004-2.3759,3.7823-3.706,5.6006l-0.4473-0.8213
		c0.5889-0.3222,1.1641-0.5058,1.7354-0.6494c0.5713-0.1347,1.1367-0.2158,1.6972-0.2471c1.1221-0.0751,2.2207,0.0928,3.3243,0.21
		l3.3085,0.3633l3.3018,0.4424c1.1016,0.1357,2.1973,0.3271,3.2959,0.4961c1.0986,0.1631,2.1943,0.3613,3.29,0.5634
		c1.0967,0.1875,2.1885,0.4239,3.2813,0.6446c1.0918,0.2353,2.1816,0.4892,3.2685,0.7744l0.8506,0.2236l-0.5381,0.7686
		c-0.6914,0.9873-1.4716,1.8691-2.2656,2.7353c-0.4121,0.417-0.8056,0.8535-1.2314,1.253c-0.4248,0.4003-0.836,0.8173-1.2725,1.2041
		c-0.8603,0.789-1.7607,1.5302-2.6543,2.2802c-0.8965,0.7461-1.7783,1.5098-2.6904,2.2383l-2.7256,2.1973
		c-0.9219,0.7158-1.8291,1.4492-2.7637,2.1513c-1.8564,1.419-3.7392,2.8077-5.6836,4.1221l-0.7343-0.8594
		c1.6035-1.7158,3.2685-3.3574,4.9599-4.9687c0.8399-0.8135,1.7061-1.5947,2.5576-2.3945l2.5967-2.3477
		c0.8613-0.7871,1.7539-1.5381,2.6309-2.3076c0.8808-0.7647,1.7539-1.5381,2.667-2.2647c0.4511-0.3711,0.9267-0.7119,1.3886-1.0683
		c0.462-0.3574,0.9551-0.6787,1.4307-1.0205c0.9795-0.6485,1.9727-1.2813,3.0557-1.8096l0.3115,0.9922
		c-1.1211,0.0693-2.2402,0.1064-3.3564,0.125c-1.1153,0.0049-2.2325,0.0244-3.3448-0.0049
		c-1.1133-0.0146-2.2265-0.0322-3.3359-0.0859c-1.1104-0.0469-2.2227-0.0723-3.3301-0.1534l-3.3242-0.207l-3.3174-0.2861
		c-1.1045-0.0996-2.2148-0.1475-3.3008-0.4395c-0.5439-0.1396-1.083-0.3281-1.6172-0.5713
		c-0.5322-0.2529-1.0615-0.5449-1.5761-0.9746l-0.5635-0.4697l0.1162-0.3516c0.7051-2.1386,1.5352-4.2148,2.4023-6.2705
		c0.8721-2.0547,1.8018-4.0781,2.7618-6.0869c0.4795-1.0049,0.9902-1.9931,1.4834-2.9902c0.4921-0.9981,1.0039-1.9863,1.5634-2.9492
		c0.5596-0.9639,1.1592-1.9063,1.8194-2.8174c0.664-0.9102,1.3593-1.8028,2.1865-2.6289L263.2778,209.9353z"/>
</g>
<g>
	<path d="M289.1108,224.1843c-0.1934,0.9453-0.584,1.7344-1.0323,2.4785c-0.456,0.7363-1.0107,1.3955-1.5703,2.0518
		c-0.5576,0.6572-1.1621,1.2763-1.7793,1.8867c-0.6367,0.5937-1.2861,1.1777-2.0302,1.6875l-0.2188-0.8692
		c0.6738,0.0371,1.3135,0.1534,1.9434,0.292c0.6318,0.1338,1.2441,0.3125,1.8525,0.501c0.6025,0.2021,1.2051,0.4043,1.79,0.6455
		c0.5879,0.2354,1.1602,0.5078,1.7373,0.7686c0.5801,0.2539,1.1465,0.54,1.712,0.8271c0.5713,0.2754,1.124,0.5928,1.6816,0.8975
		c0.5537,0.3154,1.1035,0.6386,1.6426,0.9873c0.54,0.3447,1.0732,0.709,1.5888,1.1123l0.3399,0.4971
		c0.6553,0.6523,0.9658,1.3183,1.2031,1.9863c0.2168,0.6689,0.2832,1.3437,0.2852,2.0205c0.0508,1.3525,0.0439,2.707,0.0136,4.0625
		c-0.038,1.3564-0.1064,2.7129-0.2587,4.0732c-0.129,1.3594-0.3165,2.7207-0.628,4.0869l-1.1289,0.043
		c-0.414-1.3389-0.7041-2.6826-0.9355-4.0273c-0.2549-1.3448-0.4258-2.6934-0.5664-4.042c-0.1328-1.3496-0.2422-2.7002-0.294-4.0518
		c-0.0498-0.6758-0.0342-1.3535,0.1319-2.0371c0.1855-0.6846,0.4453-1.3711,1.0488-2.0713l0.3398,0.4971
		c-0.6465-0.0996-1.2763-0.2383-1.8984-0.3955c-0.6231-0.1543-1.2354-0.333-1.8438-0.5205
		c-0.6045-0.1973-1.2148-0.3828-1.8056-0.6104c-0.5967-0.2158-1.1934-0.4316-1.7754-0.6806c-0.585-0.2422-1.1758-0.4717-1.75-0.7393
		c-0.5772-0.2607-1.1367-0.5615-1.6963-0.8623c-0.5547-0.3145-1.1035-0.6387-1.6348-1.0068
		c-0.5322-0.3643-1.0547-0.75-1.5439-1.2159l-0.4053-0.3857l0.1865-0.4834c0.3252-0.8418,0.7442-1.6074,1.1758-2.3643
		c0.4512-0.7412,0.9151-1.4726,1.4268-2.166c0.5088-0.6953,1.0234-1.3867,1.6357-2c0.6211-0.6064,1.2979-1.1689,2.1738-1.5742
		L289.1108,224.1843z"/>
</g>
<g>
	<path d="M214.892,219.2683c-0.2617,0.3193-0.5459,0.5937-0.8364,0.8554c-0.2935,0.2559-0.5889,0.5078-0.9004,0.7285
		c-0.6113,0.4629-1.2568,0.8575-1.9204,1.2159c-0.6651,0.3564-1.353,0.666-2.0283,1.0009
		c-0.6768,0.3331-1.3565,0.6592-2.0464,0.9659c-1.3696,0.6318-2.7564,1.2304-4.1607,1.7939
		c-1.4018,0.5693-2.8256,1.0938-4.2861,1.5449l0.2363-0.2519c0.0464,0.6133-0.0439,1.1689-0.1699,1.7099
		c-0.1269,0.5411-0.3193,1.0538-0.542,1.5538c-0.4375,1.0029-0.8696,2.0087-1.3403,2.998
		c-0.4575,0.9941-0.9434,1.9775-1.4507,2.9512c-0.5029,0.9756-1.0327,1.9394-1.6143,2.8818l-0.0273,0.0449l-0.2837,0.2383
		c-0.5537,0.4639-1.1548,0.7793-1.7627,1.0693c-0.6142,0.2725-1.2412,0.504-1.8838,0.6856
		c-1.2763,0.3887-2.5527,0.7793-3.8398,1.1357c-1.2842,0.3653-2.5752,0.709-3.874,1.0274c-1.2994,0.3174-2.605,0.6142-3.9239,0.8691
		l-0.2988-0.9551c1.2285-0.5429,2.4702-1.0439,3.7183-1.5244c1.2485-0.4795,2.5048-0.9336,3.768-1.3662
		c1.2603-0.4414,2.5313-0.8486,3.8018-1.2568c0.6313-0.2178,1.2783-0.3858,1.9375-0.5127c0.6655-0.1084,1.3384-0.1924,2.0586-0.127
		l-0.3111,0.2823c0.271-1.0733,0.5948-2.125,0.9444-3.1651c0.3457-1.042,0.7129-2.0752,1.1079-3.0967
		c0.3818-1.0263,0.8032-2.0371,1.2183-3.0498c0.2041-0.5078,0.4375-1.0029,0.7368-1.4707c0.3008-0.4668,0.6372-0.9189,1.1098-1.3125
		l0.2364-0.2529c1.2358-0.8994,2.5088-1.7256,3.8032-2.5088c1.2925-0.7871,2.602-1.5391,3.9287-2.2578
		c0.6582-0.3691,1.3267-0.7178,1.9985-1.0605c0.6729-0.3409,1.3325-0.7061,2.0161-1.0254c0.6846-0.3164,1.3873-0.5977,2.1241-0.8096
		c0.3628-0.1182,0.7417-0.2041,1.122-0.2852c0.3838-0.0761,0.7735-0.1396,1.1861-0.1582L214.892,219.2683z"/>
</g>
<g>
	<path d="M222.3168,219.0378c0.0381,0.7871-0.0537,1.5117-0.1909,2.2148c-0.1406,0.7012-0.3413,1.3741-0.5879,2.0245
		c-0.2451,0.6513-0.5439,1.2773-0.854,1.8974c-0.3022,0.6231-0.626,1.2373-0.9512,1.8496c-0.3281,0.6114-0.6674,1.2178-1.019,1.8184
		c-0.3662,0.5928-0.7149,1.1943-1.0962,1.7803c-0.7622,1.1718-1.564,2.3252-2.499,3.414l0.0493-0.2158
		c0.272,0.416,0.4155,0.832,0.5225,1.249c0.1142,0.416,0.1577,0.8321,0.1723,1.2481c0.0078,0.416-0.0107,0.832-0.0146,1.249
		c-0.0025,0.416-0.0186,0.832-0.0454,1.248c-0.0381,0.8321-0.1084,1.6651-0.208,2.4971c-0.0938,0.832-0.2291,1.665-0.4268,2.4971
		l-0.127,0.333c-0.061,0.4307-0.2065,0.7861-0.3754,1.1221c-0.1641,0.3388-0.376,0.6357-0.6055,0.9169
		c-0.2339,0.2774-0.4893,0.5352-0.7324,0.8038c-0.2432,0.2685-0.4937,0.5312-0.7535,0.7851
		c-0.5083,0.5186-1.0376,1.0176-1.5869,1.499c-0.5459,0.4844-1.1191,0.9444-1.7353,1.3672l-0.7461-0.666
		c0.3486-0.6601,0.7402-1.2822,1.1592-1.8799c0.4155-0.6006,0.851-1.1836,1.3076-1.748c0.2226-0.2871,0.4546-0.5654,0.6938-0.8379
		c0.2393-0.2725,0.4658-0.5557,0.7149-0.8203c0.2524-0.2598,0.5234-0.5039,0.8418-0.7061c0.3134-0.206,0.6504-0.3916,1.0713-0.5019
		l-0.1265,0.333c-0.1978-0.8321-0.333-1.6651-0.4268-2.4971c-0.0996-0.832-0.1699-1.665-0.208-2.4971
		c-0.0268-0.416-0.0429-0.832-0.0454-1.248c-0.0039-0.417-0.0224-0.833-0.0146-1.249c0.0146-0.416,0.0581-0.8321,0.1723-1.2481
		c0.107-0.417,0.2505-0.833,0.5225-1.249l0.0122-0.0186l0.0371-0.1982c0.2647-1.4102,0.6626-2.7568,1.1001-4.085
		c0.2183-0.664,0.4702-1.3125,0.7031-1.9697c0.2486-0.6494,0.5088-1.2939,0.7808-1.9316c0.2744-0.6377,0.5508-1.2744,0.8481-1.9004
		c0.2901-0.6299,0.5909-1.2539,0.9458-1.8526c0.3531-0.5996,0.7525-1.1767,1.2115-1.7255c0.4629-0.5469,0.9712-1.0723,1.6089-1.5352
		L222.3168,219.0378z"/>
</g>
<g>
	<path d="M326.9076,191.3308l-0.1123,2.4355c-0.0849,0.8223-0.1953,1.6484-0.2929,2.4707
		c-0.0577,0.4102-0.1573,0.8096-0.2285,1.2158l-0.2305,1.2149c-0.0811,0.4033-0.2061,0.7969-0.3067,1.1963l-0.3203,1.1943
		c-0.1113,0.3965-0.2656,0.7803-0.3955,1.1709l-0.3984,1.1709c-0.2988,0.7686-0.6338,1.5225-0.9502,2.2852
		c-0.3604,0.7421-0.7471,1.4726-1.1201,2.2109l-1.2823,2.123l0.0997-0.3271l0.0009,0.0098l0.002,0.1796l-0.1026,0.1465
		c-0.623,0.8926-1.2324,1.7959-1.9267,2.6377c-0.3291,0.4365-0.6846,0.8496-1.0518,1.253
		c-0.3662,0.4043-0.7129,0.8281-1.1093,1.2041c-0.3877,0.3837-0.7666,0.7783-1.1641,1.1533l-1.2275,1.0898
		c-0.8458,0.6924-1.6993,1.3819-2.6211,1.9756c-0.8936,0.6348-1.8506,1.1729-2.8018,1.7158l-1.4629,0.752
		c-0.4951,0.2373-1.0019,0.4463-1.5029,0.6709c-0.4971,0.2334-1.0186,0.4072-1.5322,0.5996
		c-0.5147,0.1914-1.0293,0.3857-1.5606,0.5264c-1.0488,0.3271-2.1211,0.5654-3.1953,0.791c-1.082,0.1787-2.1631,0.3818-3.2578,0.455
		c-1.0908,0.128-2.1885,0.1299-3.2842,0.1622c-1.1416-0.0645-2.1338-0.0323-3.2578-0.1875l-1.6504-0.2081
		c-0.5449-0.082-1.0762-0.2099-1.6143-0.3125c-1.08-0.1826-2.122-0.5312-3.1767-0.8154c-0.5225-0.1582-1.0303-0.3633-1.5459-0.5439
		c-0.5156-0.1817-1.0283-0.3692-1.5186-0.6114l-1.4863-0.6845c-0.4863-0.2461-0.958-0.5205-1.4365-0.7803
		c-0.9717-0.4932-1.8487-1.1475-2.7696-1.7207l-0.0048-0.002l0.5039,0.0293c-0.9561,0.4942-1.9053,1.0166-2.8867,1.4678
		c-0.9952,0.4151-1.9708,0.8936-2.9893,1.2578c-1.0264,0.3379-2.0293,0.7608-3.0781,1.0283
		c-1.044,0.2842-2.0742,0.6299-3.1377,0.8379c-1.0576,0.2334-2.1114,0.4971-3.1875,0.628
		c-1.0723,0.1543-2.1407,0.3496-3.2217,0.4228c-1.0791,0.0908-2.1563,0.2285-3.2412,0.2393l-1.624,0.0566
		c-0.2832,0.0049-0.5147,0.0274-0.8399,0.0196l-0.7988-0.0274c-1.0703-0.0557-2.1192-0.042-3.208-0.1543
		c-1.086-0.1152-2.1797-0.1973-3.2569-0.3408l-3.208-0.5254l-3.163-0.7451l-3.107-0.9512c-1.019-0.3662-2.0283-0.7598-3.0381-1.1465
		c-0.9892-0.4394-1.9614-0.917-2.9399-1.372c-0.9551-0.5079-1.8901-1.0508-2.8262-1.584l0.2451,0.0634h-0.0073h-0.0024
		l0.0854-0.0068c-1.8105,0.3945-3.646,0.7012-5.4819,1.0537c-1.8506,0.1826-3.7119,0.3174-5.5762,0.4483
		c-1.0024,0.0683-1.8618,0.0039-2.7998,0.0048c-0.9238-0.0292-1.8281,0.0079-2.7681-0.0761l-2.8169-0.2627
		c-0.9448-0.0674-1.872-0.2022-2.7915-0.3779l-2.7666-0.4825l-2.7275-0.6826l-1.3599-0.3525l-1.3349-0.4434l-2.6553-0.9219
		l-2.5767-1.1338c-0.8652-0.3574-1.685-0.8203-2.5009-1.2832c-0.8052-0.4824-1.6514-0.8808-2.4043-1.4501
		c-0.774-0.5284-1.5357-1.0723-2.2876-1.6211l0,0l0.3935,0.0752c-0.7065,0.1855-1.417,0.3632-2.1308,0.5322
		c-0.7154,0.1601-1.44,0.2715-2.1617,0.4092c-0.7216,0.1425-1.4555,0.1777-2.1845,0.2705
		c-0.7295,0.0947-1.4624,0.1328-2.1963,0.1679l-1.1016,0.0577c-0.4306,0.0185-0.7412-0.0127-1.1176-0.0157l-2.1651-0.0615
		c-0.7202-0.0156-1.4726-0.1318-2.208-0.1943c-0.7358-0.0889-1.4888-0.1162-2.207-0.2754l-2.1699-0.4239
		c-0.7256-0.1279-1.4268-0.372-2.1407-0.5537c-0.7094-0.2011-1.4282-0.3691-2.1152-0.6435
		c-0.6963-0.2461-1.3858-0.5108-2.0737-0.7744c-0.6758-0.2959-1.3365-0.6299-2.0039-0.9434
		c-0.6749-0.2969-1.315-0.666-1.9454-1.0527c-0.6206-0.4014-1.2827-0.7276-1.8588-1.1963c-0.5953-0.4385-1.1822-0.8838-1.7627-1.333
		l0.3379,0.1006h-0.0015l-5.7647,0.2988l-2.8857,0.1201c-0.9873,0.0264-1.9238-0.0185-2.8882-0.0244l-2.8735-0.0439l-2.8906-0.1641
		c-0.9634-0.0615-1.9302-0.1006-2.8912-0.1826l-2.873-0.3262c-0.9566-0.1162-1.917-0.1973-2.8667-0.3721l-2.855-0.4658
		c-0.9551-0.1338-1.896-0.3545-2.8393-0.5576l-2.8277-0.6191l-2.7944-0.7745c-0.9365-0.2373-1.854-0.5478-2.7617-0.8886
		c-0.9034-0.3506-1.8379-0.6084-2.7144-1.0352l-2.6504-1.2051l0.3189,0.042l-0.0039,0.001l-4.0376,0.7178
		c-1.3487,0.2236-2.7095,0.3574-4.0645,0.5381c-1.3545,0.1943-2.7207,0.249-4.083,0.3584l-2.0444,0.1484
		c-0.6822,0.0361-1.3653,0.04-2.0479,0.0615c-1.3686,0.0225-2.7256,0.0987-4.104,0.0762c-1.3623-0.0342-2.7114-0.0059-4.084-0.0918
		c-1.3681-0.0723-2.7412-0.1094-4.1006-0.2432c-1.3627-0.1054-2.7255-0.2207-4.081-0.4092
		c-1.3594-0.1494-2.7109-0.3623-4.061-0.5878c-1.3545-0.1924-2.689-0.5108-4.0332-0.7657
		c-1.3335-0.3115-2.6705-0.6142-3.9898-0.9873c-1.3188-0.374-2.6357-0.7568-3.9277-1.2265c-1.3072-0.42-2.5703-0.9766-3.8394-1.5059
		l-1.8667-0.8906c-0.6138-0.3164-1.209-0.6729-1.811-1.0127c-1.1807-0.7227-2.3316-1.5108-3.3765-2.4463
		c-0.5586-0.4199-0.9941-0.9922-1.4873-1.4922c-0.4829-0.5117-0.8354-1.1494-1.2549-1.7197l0.273,0.2217l-0.0025-0.001
		c-1.7671-0.499-3.5146-1.1104-5.1948-1.9072c-1.6816-0.7891-3.3144-1.7315-4.812-2.9141c-1.4888-1.1836-2.8643-2.625-3.7842-4.4336
		c-0.4731-0.8945-0.7915-1.8848-0.979-2.9082c-0.0581-0.5244-0.1255-1.0166-0.1055-1.582c0.0137-0.2393-0.0014-0.4229,0.0362-0.709
		l0.1118-0.8286c0.4028-2.0581,1.4453-3.9038,2.7446-5.3907c1.3018-1.5053,2.8467-2.7036,4.4551-3.7382
		c3.2339-2.0635,6.7974-3.3868,10.4063-4.3423c3.6152-0.9541,7.3188-1.4805,11.0263-1.6621
		c0.9273-0.044,1.8545-0.0821,2.7818-0.0816l0.6958,0.0015c0.3354-0.002,0.4829,0.0185,0.7334,0.0268l1.3584,0.0669
		c0.9086,0.0533,1.8027,0.0713,2.7236,0.1529l2.7949,0.3349c0.4639,0.065,0.9326,0.1089,1.3906,0.1919l1.3653,0.2769
		c0.9082,0.1929,1.8217,0.352,2.7221,0.5737c1.7876,0.5186,3.5821,0.9868,5.3018,1.7168c0.8696,0.3286,1.7349,0.6621,2.5547,1.1192
		c0.8218,0.4443,1.6763,0.8076,2.4614,1.3173c0.7808,0.5171,1.5674,1.0157,2.3306,1.545l2.1011,1.8549l0.0083,0.0035l-0.3262-0.1304
		c0.7954-0.1875,1.5942-0.332,2.395-0.4439c0.8013-0.1323,1.6021-0.1733,2.4053-0.2353c0.8042-0.0733,1.6069-0.084,2.4096-0.0786
		c0.8033,0.0039,1.608,0.0053,2.4078,0.0718c1.604,0.0883,3.2006,0.2866,4.7866,0.5517c1.584,0.2837,3.164,0.5918,4.7358,0.9536
		c0.7827,0.1919,1.5591,0.4214,2.3374,0.6304c0.7783,0.2119,1.5464,0.4731,2.3189,0.707c0.769,0.2461,1.5219,0.5591,2.2807,0.8355
		c0.7554,0.292,1.502,0.6162,2.2447,0.9375c1.4668,0.7031,2.9228,1.4306,4.2876,2.332l1.02,0.6714
		c0.3325,0.2363,0.6509,0.5,0.9741,0.7461c0.6602,0.4726,1.2353,1.0771,1.8301,1.6201l0.0112,0.0049l-0.3784-0.0996
		c1.1167-0.4024,2.2568-0.6914,3.4014-0.9785c1.1459-0.2754,2.3007-0.5098,3.4599-0.7246c0.5796-0.1016,1.1607-0.2208,1.7451-0.2579
		c0.584-0.0478,1.1675-0.1084,1.7534-0.1367c1.1705-0.0771,2.3438-0.125,3.5171-0.1426l1.7593-0.0351
		c0.6001-0.0117,1.1421-0.0235,1.7896,0.0156c1.1567,0.0684,2.3134,0.1524,3.4692,0.2754c0.5781,0.0547,1.1553,0.1074,1.7339,0.1895
		c0.585,0.1015,1.1699,0.1845,1.7519,0.3027c1.1636,0.2226,2.3223,0.457,3.4644,0.7715l0.0103-0.001l-0.315,0.0781
		c0.7002-0.5342,1.4102-1.0713,2.1421-1.582c0.7554-0.4639,1.5278-0.9067,2.3008-1.3594l2.4209-1.1426
		c0.8247-0.3393,1.6714-0.6235,2.5112-0.936c0.8477-0.2827,1.7114-0.5132,2.5757-0.7461c0.8618-0.2476,1.7485-0.3667,2.624-0.5552
		c0.875-0.2046,1.7681-0.2675,2.6563-0.3701l1.334-0.1445l1.3393-0.0591c0.4468-0.022,0.8936-0.0352,1.3403-0.043
		c0.2403-0.0014,0.4087-0.0185,0.7081-0.0068l0.6484,0.0239c0.8706,0.0396,1.709,0.0396,2.6318,0.1431
		c0.9033,0.0991,1.812,0.1826,2.6856,0.3491c0.8823,0.1401,1.7627,0.2857,2.6264,0.5234l1.2994,0.3184l1.2802,0.394
		c0.8531,0.2574,1.6846,0.584,2.5113,0.9136c0.8295,0.3184,1.6225,0.7364,2.4184,1.1236c0.7925,0.3964,1.5405,0.8886,2.292,1.3462
		l0.0083,0.0019l-0.4067-0.0176c1.2065-0.6943,2.4712-1.2881,3.7417-1.8935c0.6396-0.2881,1.2793-0.5904,1.9482-0.7862
		c0.6631-0.2202,1.335-0.4126,2.0044-0.6201c0.6694-0.2099,1.3438-0.4062,2.022-0.5854c0.6733-0.2115,1.3637-0.3199,2.0532-0.4409
		l4.1572-0.6226c0.6929-0.1138,1.397-0.0767,2.0952-0.1162c0.6997-0.0166,1.3985-0.0562,2.0982-0.0528l2.0957-0.0068l0.5234-0.0015
		c0.2827,0.0093,0.3721,0.0245,0.5669,0.0435l1.021,0.1069c0.6802,0.0767,1.3613,0.1319,2.041,0.2266
		c0.6812,0.0972,1.3545,0.1528,2.0528,0.3218c1.3823,0.3139,2.7529,0.6245,4.0883,1.0381h0.0064l-0.3384,0.0717
		c0.8486-0.6118,1.7105-1.2168,2.5855-1.8095c0.895-0.5533,1.8271-1.0449,2.7461-1.5723c0.9311-0.501,1.9121-0.8926,2.8711-1.3447
		c0.9541-0.4712,1.977-0.7481,2.9677-1.1265c0.5015-0.1689,0.9937-0.375,1.5049-0.5127l1.5361-0.4072
		c1.0225-0.2808,2.0498-0.5474,3.0957-0.7217c1.044-0.1738,2.0811-0.4219,3.1377-0.5098l3.1631-0.3354l3.1768-0.0835l0.3974-0.0103
		l0.1983-0.0048l0.0996-0.003l0.167,0.0054l0.7734,0.0425l1.5469,0.0957l3.0908,0.2173c1.0596,0.167,2.1162,0.3584,3.168,0.5508
		c1.0449,0.2197,2.1221,0.312,3.1211,0.6655l3.0312,0.9131c1.0137,0.2802,1.9825,0.706,2.9434,1.1377
		c0.9648,0.4223,1.918,0.8593,2.8613,1.3042h0.0049l-0.5186,0.0835c0.4766-0.6617,1.004-1.2867,1.5401-1.9161
		c0.541-0.622,1.1631-1.1523,1.7822-1.6972c0.3145-0.2652,0.6182-0.5518,0.9463-0.8013c0.3301-0.2471,0.6748-0.4726,1.0156-0.7085
		c0.6866-0.4595,1.3662-0.9482,2.1172-1.2998c0.7393-0.376,1.4756-0.7715,2.2432-1.0918c0.7773-0.293,1.5625-0.5762,2.3506-0.8481
		c0.7939-0.2534,1.6142-0.4165,2.4257-0.6045c0.8086-0.21,1.6368-0.3091,2.4639-0.4131c0.8272-0.0991,1.6494-0.2476,2.4834-0.249
		l1.2471-0.0489l0.623-0.0234l0.3116-0.0112l0.1562-0.0059l0.0781-0.0029l0.1817,0.0068l2.3388,0.1602
		c0.753,0.0234,1.6104,0.1738,2.4571,0.3208l1.2627,0.2158l0.6308,0.1103l0.0781,0.0137l0.1592,0.0366l0.1416,0.0386l0.2823,0.0767
		l2.2597,0.6284l2.3897,0.894c0.8047,0.2867,1.5078,0.6944,2.2627,1.0367c0.7548,0.3325,1.4609,0.7602,2.1621,1.1904
		c0.708,0.4194,1.4131,0.8374,2.0644,1.3403c1.3594,0.9199,2.5928,1.9986,3.8115,3.0791l1.711,1.7427
		c0.5605,0.5874,1.0508,1.2397,1.5762,1.855c0.54,0.605,0.9716,1.2964,1.4404,1.9531l0.6914,0.9937l0.6074,1.0473
		c0.8467,1.3731,1.5059,2.8467,2.1699,4.3018l0.8555,2.2451c0.2481,0.7598,0.4482,1.5371,0.6729,2.3017
		c0.2461,0.7598,0.3476,1.5567,0.5253,2.3331l0.2383,1.1699l0.1367,1.1855c0.2383,1.5762,0.2344,3.1699,0.2754,4.7539V191.3308z
		 M325.9076,191.3112c-0.1005-1.5371-0.1543-3.0742-0.4453-4.5869l-0.1738-1.1367l-0.2744-1.1172
		c-0.1992-0.7402-0.3223-1.5-0.6123-2.2119c-0.2617-0.7207-0.4961-1.4482-0.7764-2.1572l-0.9463-2.083
		c-0.707-1.3487-1.4424-2.6836-2.3486-3.9034l-0.6465-0.9326l-0.7256-0.8745c-0.4892-0.5757-0.9365-1.1841-1.4883-1.7031
		c-0.5371-0.5298-1.0351-1.0947-1.5976-1.5933l-1.7041-1.4697c-1.2031-0.8955-2.4004-1.7856-3.7022-2.5156
		c-0.623-0.4077-1.2939-0.7305-1.9619-1.0547c-0.6631-0.3325-1.3222-0.668-2.0195-0.9209
		c-0.6875-0.2554-1.3692-0.5957-2.0557-0.7827l-2.0459-0.6255l-2.29-0.5025l-0.2861-0.0644l-0.1426-0.0322l-0.0362-0.0083
		c0.0323,0.0073-0.0976-0.022,0.0674,0.0156l-0.0156-0.002l-0.0664-0.0083l-0.5293-0.0659l-1.0537-0.1352
		c-1.3272-0.2578-3.0098-0.187-4.541-0.2754l-2.0869,0.1142c-0.7325,0.0059-1.4502,0.1548-2.1739,0.2505
		c-0.7226,0.1011-1.4472,0.1934-2.1504,0.3916c-0.7041,0.189-1.4287,0.2974-2.1269,0.5088
		c-0.6963,0.2153-1.3965,0.4194-2.1035,0.6138c-0.6992,0.2148-1.376,0.4956-2.0801,0.7192c-0.7119,0.211-1.376,0.5278-2.0713,0.7974
		c-0.6934,0.2724-1.4053,0.5254-2.0752,0.8667c-0.6641,0.3452-1.4219,0.5698-2.085,0.9477
		c-0.6904,0.3389-1.3906,0.6817-2.1416,0.9878l-0.4052,0.1651l-0.1133-0.0816l-0.0029-0.0024
		c-1.0039-0.2451-1.9971-0.4976-2.9795-0.7647c-0.9834-0.2651-1.9502-0.5698-2.9659-0.7031l-2.9863-0.5669
		c-0.9873-0.2344-1.9892-0.2617-2.9795-0.3887c-0.9912-0.104-1.9795-0.2094-2.9638-0.3383l-3.0987-0.0787l-1.5478-0.0527
		l-0.7744-0.0312l-0.6856,0.0278l-3.0156,0.123l-3.0039,0.2793c-1.0059,0.0616-1.9863,0.3008-2.9834,0.4288
		c-1.002,0.1181-1.9844,0.3271-2.9658,0.5498c-0.9834,0.2119-1.9727,0.4072-2.9375,0.6953
		c-0.9654,0.2827-1.961,0.4897-2.9048,0.8432c-0.9507,0.3326-1.9297,0.6104-2.8672,0.9888l-2.8257,1.1362
		c-0.915,0.4385-1.8428,0.8653-2.7837,1.2847l-0.2173,0.0967l-0.1211-0.0249l-0.0063-0.0015
		c-1.3799,0.1201-2.7236,0.1372-4.0567,0.1572c-0.6557-0.0214-1.3515,0.042-2.0336,0.0787
		c-0.6851,0.0458-1.3682,0.0517-2.0523,0.0795l-1.0259,0.0337c-0.146,0.0093-0.3979,0.0044-0.4565,0.0122l-0.4995,0.0445
		l-1.9961,0.1748c-0.6646,0.0644-1.3301,0.0849-1.9942,0.1294c-0.6626,0.0561-1.3335,0.0351-1.9877,0.164l-3.961,0.4766
		c-0.6645,0.0586-1.332,0.104-1.98,0.2515c-0.6518,0.1279-1.3081,0.2387-1.9692,0.3364c-0.6606,0.0996-1.3189,0.2148-1.9863,0.3017
		c-0.6763,0.0586-1.3208,0.2286-1.9746,0.376c-1.3179,0.2647-2.6421,0.541-4.024,0.7168l-0.3232,0.041l-0.0835-0.0586
		l-0.0064-0.0039c-0.832-0.2402-1.6289-0.5351-2.4501-0.7617c-0.8262-0.2129-1.6226-0.4902-2.4581-0.6499
		c-0.8198-0.2036-1.6362-0.4038-2.4707-0.5356l-1.2353-0.2437l-1.2481-0.1787c-0.8281-0.1313-1.6621-0.2178-2.4956-0.3042
		c-0.8354-0.1108-1.6557-0.1304-2.4765-0.1782c-0.7989-0.0811-1.6934-0.0669-2.5513-0.0889l-0.6489-0.0112
		c-0.1333-0.0054-0.397,0.0146-0.5889,0.0205c-0.418,0.0205-0.8354,0.0361-1.2539,0.043l-1.2544,0.0302l-1.248,0.1138
		c-0.8321,0.0786-1.668,0.1343-2.4927,0.2676c-0.8237,0.1323-1.6651,0.1938-2.479,0.3818c-0.8135,0.1875-1.647,0.3057-2.4614,0.5015
		l-2.4356,0.6348l-2.4043,0.7695l-2.3696,0.9053c-0.7681,0.3505-1.544,0.7002-2.3374,1.04l-0.2227,0.0957l-0.0927-0.0176
		l-0.0098-0.0019c-1.169,0.1631-2.3218,0.247-3.4693,0.3203c-0.5737,0.042-1.1445,0.0488-1.7148,0.0762
		c-0.5791,0.0488-1.1602,0.083-1.7393,0.1093c-1.1601,0.0742-2.3188,0.1074-3.478,0.127c-0.5102,0.0137-1.1255,0.0888-1.6826,0.1035
		l-1.7129,0.085c-1.1411,0.0625-2.2827,0.0947-3.4272,0.0986c-0.5713,0.0107-1.1451-0.0098-1.7183-0.0176
		c-0.5757-0.0351-1.1401,0.0567-1.7139,0.0498c-1.144,0.0313-2.292,0.042-3.4492,0.0117c-1.1587-0.042-2.3218-0.0869-3.5083-0.2431
		l-0.3315-0.045l-0.0474-0.0546l-0.0073-0.0088c-0.7007-0.3526-1.3672-0.7237-2.0781-1.0323
		c-0.6929-0.332-1.4058-0.621-2.1158-0.9111c-0.6987-0.3057-1.4487-0.5166-2.1533-0.8027l-2.1889-0.7051
		c-0.7427-0.2017-1.4654-0.4473-2.2095-0.6392c-0.7466-0.186-1.4829-0.3916-2.2329-0.561
		c-0.7491-0.1738-1.4883-0.3735-2.2427-0.5259c-0.7554-0.1499-1.5034-0.3203-2.2617-0.4541
		c-1.5069-0.3115-3.0249-0.5737-4.5479-0.8125c-0.7651-0.1001-1.5273-0.2192-2.289-0.3403l-2.2906-0.3648
		c-1.5278-0.2504-3.0581-0.5263-4.5962-0.831c-0.7695-0.1455-1.539-0.3281-2.3125-0.4971c-0.7739-0.167-1.5493-0.3672-2.3281-0.6103
		l-0.3003-0.0943l-0.0263-0.0361l-0.0044-0.0068l-2.1851-1.4927c-0.771-0.4312-1.561-0.8311-2.334-1.2471
		c-0.7773-0.4082-1.6347-0.6782-2.4424-1.0234c-0.8037-0.3594-1.665-0.586-2.5083-0.8511c-1.666-0.5884-3.4218-0.8936-5.1381-1.3027
		c-0.8677-0.1695-1.7505-0.2769-2.6231-0.419l-1.311-0.2007c-0.437-0.0576-0.8745-0.0752-1.3111-0.1147l-2.6132-0.2329
		c-0.8853-0.0537-1.8067-0.0459-2.7085-0.0718l-1.3594-0.0268c-0.2022-0.001-0.5073-0.0171-0.625-0.0054l-0.6641,0.0185
		c-0.8852,0.0098-1.7695,0.0537-2.6523,0.1045c-3.5308,0.2158-7.0362,0.7505-10.4444,1.5967
		c-1.7016,0.4316-3.3754,0.958-4.9956,1.5962c-1.6162,0.6411-3.2002,1.3608-4.6591,2.2549
		c-1.4585,0.8867-2.8262,1.9121-3.9317,3.1255c-1.1304,1.1909-1.9629,2.5918-2.3242,4.0879l-0.0952,0.5156
		c-0.0391,0.1601-0.0381,0.4336-0.0591,0.6455c-0.0308,0.3389,0.0112,0.7549,0.0303,1.1299c0.102,0.7636,0.291,1.5312,0.6299,2.2617
		c0.6342,1.4824,1.7646,2.7812,3.0073,3.956c1.2646,1.167,2.7197,2.169,4.2583,3.0381c1.5444,0.8614,3.1626,1.6211,4.8276,2.2871
		l0.0025,0.001l0.1386,0.0479l0.1343,0.1738c0.3975,0.5127,0.7114,1.082,1.169,1.5508c0.4692,0.458,0.8667,0.9805,1.4062,1.373
		c0.9937,0.8653,2.105,1.6045,3.249,2.2832c0.5874,0.3164,1.1582,0.6621,1.7544,0.9639l1.8169,0.8564
		c1.2403,0.5088,2.4722,1.0469,3.7569,1.4512c1.2656,0.4551,2.5615,0.8242,3.8593,1.1856c1.2974,0.3603,2.6162,0.6513,3.9297,0.9521
		c1.3272,0.2451,2.6416,0.5527,3.9805,0.7363c1.333,0.2159,2.6675,0.42,4.0112,0.5606c1.3394,0.1748,2.6846,0.2988,4.0313,0.4101
		c1.3462,0.1397,2.6919,0.1827,4.0381,0.2618c1.3403,0.0927,2.7124,0.0713,4.0673,0.1123c1.3394,0.0293,2.6997-0.0391,4.0489-0.0547
		c0.6757-0.0176,1.3525-0.0176,2.0273-0.0498l2.023-0.1358c1.3476-0.1015,2.7011-0.1484,4.0405-0.334
		c1.3413-0.1621,2.6909-0.2705,4.0263-0.4726l4.002-0.6484h0.0039l0.1514-0.0284l0.1675,0.0703l2.6137,1.1026
		c0.8594,0.3906,1.7906,0.6191,2.6812,0.9375c0.8979,0.3008,1.7925,0.6113,2.7192,0.831l2.752,0.7354l2.792,0.583
		c0.9311,0.1914,1.8588,0.4004,2.8037,0.5234l2.8222,0.4327c0.9375,0.164,1.8892,0.2353,2.835,0.3408l2.8403,0.3027
		c0.9468,0.0908,1.8951,0.1406,2.8428,0.2129l2.8452,0.1963l2.8731,0.0791c0.9507,0.0166,1.9301,0.0723,2.8579,0.0576l2.8579-0.0859
		l5.7236-0.1104h0.0015l0.1474-0.0137l0.1905,0.1143c0.6123,0.3652,1.2177,0.7334,1.8154,1.1104
		c0.582,0.4003,1.252,0.6621,1.8731,0.9951c0.6245,0.3301,1.2485,0.6582,1.913,0.9082c0.6548,0.2666,1.2998,0.5537,1.9595,0.8037
		c0.6734,0.2168,1.3462,0.4326,2.0122,0.667c0.6597,0.2529,1.3535,0.4004,2.0362,0.582c0.6879,0.1611,1.3603,0.3867,2.06,0.4961
		l2.0884,0.3711c0.6943,0.1562,1.3901,0.1963,2.0859,0.292c0.7017,0.0703,1.3784,0.1963,2.1021,0.2246l2.1636,0.0977
		c0.3452,0.0097,0.7563,0.0468,1.0473,0.0341l1.0635-0.0009c0.71,0.0039,1.4209,0.0039,2.1284-0.0518
		c0.7075-0.0527,1.4224-0.0518,2.126-0.1494c0.7065-0.0742,1.4189-0.1221,2.1245-0.2188c0.7026-0.1113,1.4087-0.2138,2.1182-0.3086
		l0.2407-0.0322l0.1538,0.1074l0,0c0.8115,0.419,1.6138,0.8418,2.4028,1.2803c0.7725,0.4658,1.6411,0.7647,2.458,1.1436
		c0.8262,0.3642,1.6338,0.7607,2.4986,1.0351l2.5376,0.9336l2.5971,0.7578l1.295,0.3838l1.3212,0.294l2.6358,0.6045l2.6719,0.4335
		l1.3344,0.2247c0.4444,0.0683,0.8897,0.0996,1.3345,0.1513l2.6709,0.2852c0.8892,0.1055,1.8286,0.1103,2.7402,0.1699
		c0.8995,0.0322,1.878,0.126,2.7124,0.1191l5.4424-0.041c1.8111-0.1181,3.6221-0.2812,5.4585-0.3564l0.0855-0.0069h0.0024h0.0073
		l0.0992-0.0039l0.146,0.0674l2.8623,1.3408c0.9814,0.3848,1.9521,0.7891,2.9355,1.1563l2.9902,0.9932l3.043,0.8086l3.083,0.6328
		l3.1113,0.4687c1.0372,0.125,2.0733,0.1885,3.1094,0.2881c1.0322,0.0967,2.1221,0.0713,3.1807,0.1133l0.7988,0.0234
		c0.209,0.0098,0.5098-0.0078,0.7598-0.0097l1.5722-0.0352c1.0508,0.0049,2.0938-0.1162,3.1407-0.1904
		c1.0488-0.0557,2.083-0.2334,3.123-0.3682c1.044-0.1182,2.0664-0.3555,3.1016-0.5303c1.04-0.1601,2.0478-0.457,3.0713-0.6924
		c1.0302-0.2187,2.0136-0.5917,3.0254-0.8789c1.0117-0.29,1.9834-0.6933,2.9814-1.0341c0.9795-0.3838,1.9375-0.8213,2.9189-1.2159
		l0.2881-0.1171l0.2159,0.1464l0.0039,0.002c0.9228,0.5107,1.7968,1.1025,2.7597,1.5303c0.4746,0.2265,0.9405,0.4697,1.419,0.6826
		l1.4609,0.5859c0.9707,0.3926,1.9805,0.6865,2.9746,1.0059c1.0176,0.2412,2.0195,0.5498,3.0567,0.6933
		c0.5156,0.083,1.0293,0.1924,1.5429,0.2549l1.5391,0.1514c0.999,0.1211,2.1553,0.0976,3.1474,0.1455
		c1.043-0.042,2.087-0.0518,3.1221-0.1846c1.0401-0.0771,2.0654-0.2822,3.0908-0.4599c1.0176-0.2246,2.0323-0.458,3.0235-0.7784
		c0.5039-0.1328,0.9961-0.3046,1.4863-0.4804c0.4902-0.1748,0.9883-0.3301,1.4629-0.5459c0.4785-0.2061,0.9648-0.3965,1.4375-0.6143
		l1.4023-0.6924c0.9121-0.5029,1.833-1,2.6934-1.5918c0.8848-0.5546,1.71-1.1972,2.5469-1.8222l1.2119-0.9971
		c0.3926-0.3447,0.7685-0.709,1.1553-1.0635c0.3945-0.3457,0.7392-0.7402,1.1054-1.1152c0.3682-0.374,0.7246-0.7588,1.0547-1.166
		c0.7002-0.7842,1.3174-1.6338,1.9424-2.4795l-0.1006,0.3262l0.001-0.0098l0.0019-0.1748l0.0977-0.1524l1.2969-2.0146
		c0.3799-0.7022,0.7744-1.3984,1.1435-2.1074c0.3262-0.7305,0.6729-1.4522,0.9844-2.1895c0.2754-0.7519,0.5596-1.5019,0.8027-2.2646
		l0.3164-1.1592c0.0997-0.3887,0.2237-0.7705,0.3047-1.1631c0.1485-0.7861,0.3164-1.5723,0.4356-2.3623
		c0.0801-0.793,0.1748-1.5791,0.2461-2.374l0.0722-2.4375V191.3112z"/>
</g>
<g>
	<path fill="#ADDBE1" d="M203.4057,175.5637c0,0,1.5771-45.9536-16.6045-116.5523c-3.1997-12.4253,166.9375-28.1528,133.6777,6.4663
		c-44.0674,45.8687-71.4287,117.5328-71.4287,117.5328"/>
	<path d="M202.8407,175.5524c0,0-0.0024-0.4018-0.0068-1.1796c0.0078-0.7803-0.0391-1.9288-0.0869-3.4278
		c-0.0415-2.9931-0.3701-7.394-0.6812-12.9897c-0.2158-2.7954-0.5278-5.8867-0.8271-9.252
		c-0.1607-1.6821-0.2993-3.4345-0.4951-5.248c-0.2305-1.8101-0.4693-3.6856-0.7163-5.6231c-0.5118-3.872-0.9776-8-1.6118-12.333
		c-0.69-4.3252-1.4156-8.8725-2.1724-13.6181c-0.668-4.7583-1.7749-9.6465-2.7661-14.73c-0.5093-2.5391-1.0274-5.1206-1.5537-7.7427
		c-0.2627-1.3105-0.5279-2.6309-0.7945-3.9614c-0.2568-1.3321-0.6299-2.6499-0.9428-3.9898
		c-1.2984-5.3486-2.6319-10.8432-3.9952-16.4594c-0.3369-1.4043-0.6757-2.8165-1.0166-4.2359l-0.2553-1.0659l-0.0323-0.1338
		c-0.0029,0.001-0.0976-0.4785-0.0669-0.3403l-0.0209-0.1363c-0.0054-0.0263-0.0162-0.0878-0.023-0.2675
		c-0.0098-0.2705,0.0083-0.6201,0.0571-0.8223c0.0469-0.1992,0.1016-0.4072,0.169-0.5937c0.622-1.419,1.4717-1.983,2.1924-2.5313
		c1.4902-1.0225,2.9448-1.6323,4.414-2.2168c1.4673-0.5649,2.9409-1.0469,4.4234-1.4853
		c5.9292-1.7237,11.9941-2.9224,18.1596-3.9502c6.1636-1.021,12.4209-1.8497,18.7412-2.5445
		c12.6392-1.3926,25.5367-2.2055,38.4664-2.332c6.4648-0.0596,12.9375,0.0508,19.3906,0.4512
		c6.4511,0.4199,12.8877,1.0649,19.2422,2.4541c3.1738,0.7129,6.3359,1.5937,9.4043,3.0424
		c1.5263,0.7393,3.0439,1.6202,4.414,2.8882c1.3516,1.2408,2.5801,3.0581,2.8408,5.1724c0.1397,1.0371,0.0528,2.0732-0.1699,3.02
		c-0.2304,0.9458-0.5898,1.8027-0.997,2.6021c-0.835,1.581-1.8702,2.9253-2.9708,4.1362c-2.0664,2.2593-4.1181,4.5024-6.1533,6.727
		c-1.0009,1.1192-2.0683,2.1934-3.0156,3.3257c-0.9434,1.1338-1.8828,2.2627-2.8184,3.3858
		c-0.9355,1.124-1.8671,2.2422-2.7939,3.3545c-0.9336,1.1064-1.8545,2.2153-2.709,3.3789
		c-1.7451,2.2929-3.4717,4.5605-5.1777,6.8012c-0.8711,1.1075-1.6641,2.2618-2.4639,3.4009
		c-0.7998,1.1387-1.5947,2.2705-2.3838,3.3941c-3.2265,4.4487-6.0508,8.9951-8.9062,13.3095
		c-1.3926,2.1807-2.6914,4.3692-4.0049,6.4932c-1.3067,2.1289-2.5977,4.2124-3.7754,6.3061
		c-1.2021,2.0796-2.3779,4.1158-3.5283,6.106c-1.1543,1.9883-2.211,3.9712-3.2793,5.8828
		c-2.1524,3.8164-4.0528,7.5122-5.875,10.9683c-1.8096,3.4624-3.416,6.7475-4.9336,9.7695
		c-1.4531,3.0527-2.8389,5.8345-4.001,8.3882c-2.3701,5.0864-4.1797,9.1094-5.3642,11.8716
		c-1.1963,2.7588-1.7911,4.2402-1.7911,4.2402l-1.0566-0.4033c0,0,0.5518-1.52,1.6562-4.3272
		c1.1055-2.8086,2.7471-6.9194,4.9981-12.083c1.1006-2.5927,2.4189-5.4179,3.7998-8.52c1.4453-3.0713,2.9746-6.4111,4.7021-9.9346
		c1.7413-3.5166,3.5567-7.2793,5.6221-11.1694c1.0254-1.9487,2.0362-3.9692,3.1455-5.9985
		c1.1231-2.0225,2.2725-4.0913,3.4463-6.2041c1.1524-2.125,2.419-4.2432,3.7012-6.4077c1.29-2.1597,2.5644-4.3843,3.9326-6.604
		c2.8106-4.3941,5.5869-9.021,8.7754-13.566c0.7793-1.1474,1.5644-2.3027,2.3545-3.4653c0.79-1.1636,1.5732-2.3418,2.4365-3.4761
		c1.6914-2.2939,3.4024-4.6162,5.1318-6.9638c0.8448-1.1866,1.7676-2.3345,2.7051-3.4825c0.9297-1.1528,1.8653-2.3115,2.8047-3.4755
		c0.9404-1.1646,1.8858-2.3345,2.834-3.5098c0.9551-1.1694,1.9805-2.249,2.9805-3.3794c2.0195-2.2305,4.0547-4.479,6.1054-6.7441
		c0.9522-1.0528,1.7842-2.1773,2.3819-3.3248c0.5927-1.1489,0.8945-2.3061,0.7412-3.2968
		c-0.1289-0.9907-0.7061-1.9317-1.6319-2.7886c-0.9238-0.8525-2.1337-1.5757-3.4267-2.1885
		c-2.6123-1.2217-5.5586-2.0483-8.5527-2.6997c-6.0157-1.2851-12.3086-1.8935-18.6241-2.2695
		c-6.3242-0.3599-12.708-0.4365-19.0908-0.3447c-6.3838,0.0937-12.7705,0.3696-19.124,0.7788
		c-6.3535,0.4057-12.6777,0.9174-18.9331,1.5844c-6.2549,0.667-12.4444,1.4668-18.5152,2.4517
		c-6.06,1.0054-12.0459,2.1182-17.7036,3.7065c-1.4096,0.4014-2.7925,0.8404-4.1167,1.3355
		c-1.3081,0.4946-2.6089,1.0654-3.5644,1.7163c-0.4746,0.2954-0.8101,0.7217-0.7681,0.6772
		c0.0088-0.0131,0.0225-0.0405,0.0186-0.0634c0.0014-0.0244,0.0332-0.1866,0.0034-0.2749
		c-0.0195-0.0874-0.0205-0.0581-0.0083,0.0063l0.0195,0.1362c0.0435,0.2295-0.0381-0.1591-0.0171-0.0698l0.0308,0.1348
		l0.2471,1.0757c0.3286,1.4321,0.6557,2.8574,0.9814,4.2744c1.2861,5.6719,2.5449,11.2207,3.77,16.6225
		c0.2886,1.354,0.6377,2.6851,0.8706,4.0313c0.2432,1.3437,0.4844,2.6777,0.7237,4.0019c0.4785,2.648,0.9502,5.2554,1.4135,7.8194
		c0.899,5.1323,1.9156,10.0639,2.4966,14.8662c0.6694,4.7856,1.3106,9.3721,1.9204,13.7339
		c0.3482,2.1748,0.4717,4.3227,0.6924,6.3965c0.1987,2.0766,0.3911,4.0932,0.5781,6.0478c0.1866,1.9536,0.3672,3.8443,0.541,5.6694
		c0.1392,1.8287,0.2242,3.5962,0.3321,5.2916c0.1943,3.392,0.4096,6.5039,0.5381,9.3188c0.1577,5.6377,0.2778,10.061,0.1948,13.0933
		c-0.0161,1.5127-0.0181,2.6728-0.0586,3.4487c-0.0283,0.7773-0.043,1.1787-0.043,1.1787L202.8407,175.5524z"/>
</g>
<g>
	<g>
		<path fill="#97BF0D" d="M441.8412,151.3269c22.2051,26.3662-22.5107,56.5605-84.9658,48.1191
			c-41.6914-5.6348-52.2246,26.623-67.3828-48.1191c-6.8516-33.7842,29.8809-59.2998,76.1748-55.6231
			C419.3305,99.9646,423.8061,129.9108,441.8412,151.3269z"/>
		<path d="M442.3481,150.9421c0,0,0.2539,0.3369,0.7441,0.9902c0.2461,0.3262,0.5508,0.7324,0.9131,1.2129
			c0.3711,0.4727,0.707,1.1387,1.1377,1.8262c0.2051,0.3535,0.4375,0.7207,0.6543,1.1191c0.1855,0.4141,0.3789,0.8496,0.582,1.3047
			c0.1904,0.461,0.4434,0.9209,0.6065,1.4414c0.1572,0.5225,0.3213,1.0664,0.4902,1.6309c0.5654,2.2695,0.9863,5.0371,0.4131,8.042
			c-0.5127,2.997-1.8369,6.1533-3.9111,9.1201c-2.0733,2.9726-4.876,5.75-8.1973,8.2402
			c-6.668,4.9668-15.3037,8.9199-25.125,11.5703c-4.9111,1.334-10.1182,2.3858-15.5576,3.1016
			c-5.4424,0.6895-11.1084,1.0654-16.9375,1.1201c-5.8311,0.082-11.8194-0.2842-17.9053-0.9238
			c-1.5117-0.166-3.0322-0.333-4.5606-0.5c-1.5312-0.167-3.0712-0.335-4.5849-0.3897c-3.041-0.2002-6.1611-0.1494-9.2764,0.0264
			c-3.122,0.167-6.2578,0.5703-9.417,1.0283c-3.1611,0.461-6.3388,1.043-9.6113,1.4727c-3.2598,0.3926-6.6875,0.7344-10.1611-0.0303
			c-0.8594-0.2178-1.7227-0.4248-2.541-0.8027c-0.8506-0.293-1.6094-0.7764-2.3877-1.2227
			c-0.4053-0.2031-0.7247-0.5185-1.0879-0.7773c-0.3477-0.2774-0.7188-0.5342-1.0459-0.8321
			c-0.6104-0.6328-1.294-1.2177-1.8389-1.9003c-2.2666-2.6797-3.9541-5.7188-5.3301-8.8331
			c-0.3789-0.7695-0.6924-1.5595-1.0058-2.3505c-0.3135-0.7911-0.6465-1.5772-0.9434-2.3741
			c-0.5478-1.6035-1.168-3.1933-1.6562-4.8164c-2.0704-6.4648-3.7188-13.0488-5.1866-19.6601l-1.0634-4.9629
			c-0.1749-0.8526-0.3555-1.6006-0.5254-2.5371l-0.4151-2.4942c-0.459-3.5039-0.5-7.0224-0.0752-10.4863
			c0.8223-6.9619,3.7637-13.5273,7.833-19.04c4.1397-5.4932,9.3828-9.9698,15.0655-13.4346
			c5.6757-3.5039,11.7754-6.0508,17.9336-7.9043c12.3505-3.6987,24.9345-4.4727,36.6084-3.5684
			c11.6298,0.9336,22.6777,3.209,32.0898,7.3829c4.7061,2.0683,8.9932,4.5859,12.7109,7.4482
			c3.7305,2.8467,6.9219,5.9697,9.6534,9.1084c5.4423,6.3154,9.1738,12.5166,12.3554,17.4775
			c3.1416,4.9961,5.6973,8.8389,7.5791,11.3555c0.9366,1.2607,1.6719,2.2139,2.1885,2.8369l0.7881,0.9824L442.3481,150.9421z
			 M441.3432,151.7224c-0.0498-0.0606-0.3135-0.3799-0.7832-0.9502c-0.5342-0.627-1.294-1.584-2.2617-2.8496
			c-1.9414-2.5245-4.5791-6.376-7.792-11.3321c-3.2481-4.9189-7.041-11.0136-12.4375-17.1006
			c-2.7071-3.0244-5.8438-6.0087-9.4873-8.7099c-3.6309-2.7168-7.8018-5.0889-12.3858-7.0293
			c-9.1865-3.9121-19.9365-5.9961-31.4033-6.7861c-5.7178-0.3799-11.6201-0.3272-17.5947,0.2695
			c-5.9649,0.6201-12.0342,1.6572-17.9756,3.5c-5.9404,1.8125-11.7969,4.289-17.1973,7.6514
			c-5.4052,3.3349-10.332,7.583-14.2373,12.6796c-3.8183,5.1348-6.5566,11.1778-7.3457,17.6036
			c-0.4082,3.207-0.3779,6.4668,0.0156,9.6484l0.4034,2.4961c0.1269,0.7226,0.33,1.6172,0.4912,2.418l1.0342,4.9365
			c1.4433,6.5635,3.0087,13.1006,4.9589,19.4638c0.462,1.6016,1.0479,3.1485,1.5635,4.7247
			c0.2803,0.7773,0.5938,1.5371,0.8877,2.3066c0.2949,0.7695,0.5899,1.5381,0.9424,2.2734c1.2842,3.0108,2.8574,5.876,4.8564,8.294
			c1.9717,2.457,4.5957,4.1553,7.5635,4.8506c2.9776,0.7031,6.2031,0.455,9.377,0.1015c6.373-0.8154,12.792-2.0293,19.1884-2.2959
			c3.1993-0.1445,6.3653-0.1611,9.5235,0.0811c1.5918,0.0791,3.123,0.2656,4.6484,0.4482c1.5283,0.1856,3.0479,0.3701,4.5606,0.5528
			c6.0117,0.7002,11.9326,1.1308,17.7011,1.1152c5.7676,0.0107,11.377-0.2979,16.7686-0.918
			c5.3887-0.6474,10.5488-1.6299,15.417-2.8926c9.7305-2.5078,18.3281-6.2968,24.833-11.208
			c3.25-2.4394,5.9736-5.1484,7.9687-8.0146c2.0118-2.8565,3.2247-5.8867,3.6797-8.7158c0.5137-2.8379,0.083-5.4278-0.4677-7.5606
			c-0.1661-0.5322-0.3252-1.0429-0.4776-1.5351c-0.1582-0.4883-0.4062-0.9239-0.5908-1.3584
			c-0.1963-0.4307-0.3838-0.8409-0.5615-1.2305c-0.209-0.3721-0.4297-0.7109-0.625-1.0391
			c-0.4151-0.6464-0.7071-1.2392-1.0869-1.7138c-0.3672-0.4785-0.6768-0.8809-0.9258-1.2051
			C441.6362,152.1042,441.3852,151.7771,441.3432,151.7224z"/>
	</g>
	<g>
		<path fill="#97BF0D" d="M441.8412,151.3269c22.2051,26.3662-22.5107,56.5605-84.9658,48.1191
			c-41.6914-5.6348-52.2246,26.623-67.3828-48.1191c-6.8516-33.7842,29.8809-59.2998,76.1748-55.6231
			C419.3305,99.9646,423.8061,129.9108,441.8412,151.3269z"/>
		<path d="M442.3481,150.9421c0,0,0.2539,0.3369,0.7441,0.9902c0.2461,0.3262,0.5508,0.7324,0.9131,1.2129
			c0.3711,0.4727,0.707,1.1387,1.1377,1.8262c0.2051,0.3535,0.4375,0.7207,0.6543,1.1191c0.1855,0.4141,0.3789,0.8496,0.582,1.3047
			c0.1904,0.461,0.4434,0.9209,0.6065,1.4414c0.1572,0.5225,0.3213,1.0664,0.4902,1.6309c0.5654,2.2695,0.9863,5.0371,0.4131,8.042
			c-0.5127,2.997-1.8369,6.1533-3.9111,9.1201c-2.0733,2.9726-4.876,5.75-8.1973,8.2402
			c-6.668,4.9668-15.3037,8.9199-25.125,11.5703c-4.9111,1.334-10.1182,2.3858-15.5576,3.1016
			c-5.4424,0.6895-11.1084,1.0654-16.9375,1.1201c-5.8311,0.082-11.8194-0.2842-17.9053-0.9238
			c-1.5117-0.166-3.0322-0.333-4.5606-0.5c-1.5312-0.167-3.0712-0.335-4.5849-0.3897c-3.041-0.2002-6.1611-0.1494-9.2764,0.0264
			c-3.122,0.167-6.2578,0.5703-9.417,1.0283c-3.1611,0.461-6.3388,1.043-9.6113,1.4727c-3.2598,0.3926-6.6875,0.7344-10.1611-0.0303
			c-0.8594-0.2178-1.7227-0.4248-2.541-0.8027c-0.8506-0.293-1.6094-0.7764-2.3877-1.2227
			c-0.4053-0.2031-0.7247-0.5185-1.0879-0.7773c-0.3477-0.2774-0.7188-0.5342-1.0459-0.8321
			c-0.6104-0.6328-1.294-1.2177-1.8389-1.9003c-2.2666-2.6797-3.9541-5.7188-5.3301-8.8331
			c-0.3789-0.7695-0.6924-1.5595-1.0058-2.3505c-0.3135-0.7911-0.6465-1.5772-0.9434-2.3741
			c-0.5478-1.6035-1.168-3.1933-1.6562-4.8164c-2.0704-6.4648-3.7188-13.0488-5.1866-19.6601l-1.0634-4.9629
			c-0.1749-0.8526-0.3555-1.6006-0.5254-2.5371l-0.4151-2.4942c-0.459-3.5039-0.5-7.0224-0.0752-10.4863
			c0.8223-6.9619,3.7637-13.5273,7.833-19.04c4.1397-5.4932,9.3828-9.9698,15.0655-13.4346
			c5.6757-3.5039,11.7754-6.0508,17.9336-7.9043c12.3505-3.6987,24.9345-4.4727,36.6084-3.5684
			c11.6298,0.9336,22.6777,3.209,32.0898,7.3829c4.7061,2.0683,8.9932,4.5859,12.7109,7.4482
			c3.7305,2.8467,6.9219,5.9697,9.6534,9.1084c5.4423,6.3154,9.1738,12.5166,12.3554,17.4775
			c3.1416,4.9961,5.6973,8.8389,7.5791,11.3555c0.9366,1.2607,1.6719,2.2139,2.1885,2.8369l0.7881,0.9824L442.3481,150.9421z
			 M441.3432,151.7224c-0.0498-0.0606-0.3135-0.3799-0.7832-0.9502c-0.5342-0.627-1.294-1.584-2.2617-2.8496
			c-1.9414-2.5245-4.5791-6.376-7.792-11.3321c-3.2481-4.9189-7.041-11.0136-12.4375-17.1006
			c-2.7071-3.0244-5.8438-6.0087-9.4873-8.7099c-3.6309-2.7168-7.8018-5.0889-12.3858-7.0293
			c-9.1865-3.9121-19.9365-5.9961-31.4033-6.7861c-5.7178-0.3799-11.6201-0.3272-17.5947,0.2695
			c-5.9649,0.6201-12.0342,1.6572-17.9756,3.5c-5.9404,1.8125-11.7969,4.289-17.1973,7.6514
			c-5.4052,3.3349-10.332,7.583-14.2373,12.6796c-3.8183,5.1348-6.5566,11.1778-7.3457,17.6036
			c-0.4082,3.207-0.3779,6.4668,0.0156,9.6484l0.4034,2.4961c0.1269,0.7226,0.33,1.6172,0.4912,2.418l1.0342,4.9365
			c1.4433,6.5635,3.0087,13.1006,4.9589,19.4638c0.462,1.6016,1.0479,3.1485,1.5635,4.7247
			c0.2803,0.7773,0.5938,1.5371,0.8877,2.3066c0.2949,0.7695,0.5899,1.5381,0.9424,2.2734c1.2842,3.0108,2.8574,5.876,4.8564,8.294
			c1.9717,2.457,4.5957,4.1553,7.5635,4.8506c2.9776,0.7031,6.2031,0.455,9.377,0.1015c6.373-0.8154,12.792-2.0293,19.1884-2.2959
			c3.1993-0.1445,6.3653-0.1611,9.5235,0.0811c1.5918,0.0791,3.123,0.2656,4.6484,0.4482c1.5283,0.1856,3.0479,0.3701,4.5606,0.5528
			c6.0117,0.7002,11.9326,1.1308,17.7011,1.1152c5.7676,0.0107,11.377-0.2979,16.7686-0.918
			c5.3887-0.6474,10.5488-1.6299,15.417-2.8926c9.7305-2.5078,18.3281-6.2968,24.833-11.208
			c3.25-2.4394,5.9736-5.1484,7.9687-8.0146c2.0118-2.8565,3.2247-5.8867,3.6797-8.7158c0.5137-2.8379,0.083-5.4278-0.4677-7.5606
			c-0.1661-0.5322-0.3252-1.0429-0.4776-1.5351c-0.1582-0.4883-0.4062-0.9239-0.5908-1.3584
			c-0.1963-0.4307-0.3838-0.8409-0.5615-1.2305c-0.209-0.3721-0.4297-0.7109-0.625-1.0391
			c-0.4151-0.6464-0.7071-1.2392-1.0869-1.7138c-0.3672-0.4785-0.6768-0.8809-0.9258-1.2051
			C441.6362,152.1042,441.3852,151.7771,441.3432,151.7224z"/>
	</g>
	<path opacity="0.15" fill="#FFFFFF" d="M365.6674,95.7038c-23.834-1.8931-45.1338,3.9531-59.2559,14.6797
		c-6.5019,8.7871-9.2636,19.3809-6.9189,30.9434c15.1582,74.7421,25.6914,42.4843,67.3828,48.1191
		c33.3086,4.502,61.5674-1.9863,77.3242-13.0215c4.9912-7.8301,4.7481-16.6601-2.3584-25.0976
		C423.8061,129.9108,419.3305,99.9646,365.6674,95.7038z"/>
	<g>
		<path d="M442.3481,150.9421c0,0,0.2539,0.3369,0.7441,0.9902c0.2461,0.3262,0.5508,0.7324,0.9131,1.2129
			c0.3711,0.4727,0.707,1.1387,1.1377,1.8262c0.2051,0.3535,0.4375,0.7207,0.6543,1.1191c0.1855,0.4141,0.3789,0.8496,0.582,1.3047
			c0.1904,0.461,0.4434,0.9209,0.6065,1.4414c0.1572,0.5225,0.3213,1.0664,0.4902,1.6309c0.5654,2.2695,0.9863,5.0371,0.4131,8.042
			c-0.5127,2.997-1.8369,6.1533-3.9111,9.1201c-2.0733,2.9726-4.876,5.75-8.1973,8.2402
			c-6.668,4.9668-15.3037,8.9199-25.125,11.5703c-4.9111,1.334-10.1182,2.3858-15.5576,3.1016
			c-5.4424,0.6895-11.1084,1.0654-16.9375,1.1201c-5.8311,0.082-11.8194-0.2842-17.9053-0.9238
			c-1.5117-0.166-3.0322-0.333-4.5606-0.5c-1.5312-0.167-3.0712-0.335-4.5849-0.3897c-3.041-0.2002-6.1611-0.1494-9.2764,0.0264
			c-3.122,0.167-6.2578,0.5703-9.417,1.0283c-3.1611,0.461-6.3388,1.043-9.6113,1.4727c-3.2598,0.3926-6.6875,0.7344-10.1611-0.0303
			c-0.8594-0.2178-1.7227-0.4248-2.541-0.8027c-0.8506-0.293-1.6094-0.7764-2.3877-1.2227
			c-0.4053-0.2031-0.7247-0.5185-1.0879-0.7773c-0.3477-0.2774-0.7188-0.5342-1.0459-0.8321
			c-0.6104-0.6328-1.294-1.2177-1.8389-1.9003c-2.2666-2.6797-3.9541-5.7188-5.3301-8.8331
			c-0.3789-0.7695-0.6924-1.5595-1.0058-2.3505c-0.3135-0.7911-0.6465-1.5772-0.9434-2.3741
			c-0.5478-1.6035-1.168-3.1933-1.6562-4.8164c-2.0704-6.4648-3.7188-13.0488-5.1866-19.6601l-1.0634-4.9629
			c-0.1749-0.8526-0.3555-1.6006-0.5254-2.5371l-0.4151-2.4942c-0.459-3.5039-0.5-7.0224-0.0752-10.4863
			c0.8223-6.9619,3.7637-13.5273,7.833-19.04c4.1397-5.4932,9.3828-9.9698,15.0655-13.4346
			c5.6757-3.5039,11.7754-6.0508,17.9336-7.9043c12.3505-3.6987,24.9345-4.4727,36.6084-3.5684
			c11.6298,0.9336,22.6777,3.209,32.0898,7.3829c4.7061,2.0683,8.9932,4.5859,12.7109,7.4482
			c3.7305,2.8467,6.9219,5.9697,9.6534,9.1084c5.4423,6.3154,9.1738,12.5166,12.3554,17.4775
			c3.1416,4.9961,5.6973,8.8389,7.5791,11.3555c0.9366,1.2607,1.6719,2.2139,2.1885,2.8369l0.7881,0.9824L442.3481,150.9421z
			 M441.3432,151.7224c-0.0498-0.0606-0.3135-0.3799-0.7832-0.9502c-0.5342-0.627-1.294-1.584-2.2617-2.8496
			c-1.9414-2.5245-4.5791-6.376-7.792-11.3321c-3.2481-4.9189-7.041-11.0136-12.4375-17.1006
			c-2.7071-3.0244-5.8438-6.0087-9.4873-8.7099c-3.6309-2.7168-7.8018-5.0889-12.3858-7.0293
			c-9.1865-3.9121-19.9365-5.9961-31.4033-6.7861c-5.7178-0.3799-11.6201-0.3272-17.5947,0.2695
			c-5.9649,0.6201-12.0342,1.6572-17.9756,3.5c-5.9404,1.8125-11.7969,4.289-17.1973,7.6514
			c-5.4052,3.3349-10.332,7.583-14.2373,12.6796c-3.8183,5.1348-6.5566,11.1778-7.3457,17.6036
			c-0.4082,3.207-0.3779,6.4668,0.0156,9.6484l0.4034,2.4961c0.1269,0.7226,0.33,1.6172,0.4912,2.418l1.0342,4.9365
			c1.4433,6.5635,3.0087,13.1006,4.9589,19.4638c0.462,1.6016,1.0479,3.1485,1.5635,4.7247
			c0.2803,0.7773,0.5938,1.5371,0.8877,2.3066c0.2949,0.7695,0.5899,1.5381,0.9424,2.2734c1.2842,3.0108,2.8574,5.876,4.8564,8.294
			c1.9717,2.457,4.5957,4.1553,7.5635,4.8506c2.9776,0.7031,6.2031,0.455,9.377,0.1015c6.373-0.8154,12.792-2.0293,19.1884-2.2959
			c3.1993-0.1445,6.3653-0.1611,9.5235,0.0811c1.5918,0.0791,3.123,0.2656,4.6484,0.4482c1.5283,0.1856,3.0479,0.3701,4.5606,0.5528
			c6.0117,0.7002,11.9326,1.1308,17.7011,1.1152c5.7676,0.0107,11.377-0.2979,16.7686-0.918
			c5.3887-0.6474,10.5488-1.6299,15.417-2.8926c9.7305-2.5078,18.3281-6.2968,24.833-11.208
			c3.25-2.4394,5.9736-5.1484,7.9687-8.0146c2.0118-2.8565,3.2247-5.8867,3.6797-8.7158c0.5137-2.8379,0.083-5.4278-0.4677-7.5606
			c-0.1661-0.5322-0.3252-1.0429-0.4776-1.5351c-0.1582-0.4883-0.4062-0.9239-0.5908-1.3584
			c-0.1963-0.4307-0.3838-0.8409-0.5615-1.2305c-0.209-0.3721-0.4297-0.7109-0.625-1.0391
			c-0.4151-0.6464-0.7071-1.2392-1.0869-1.7138c-0.3672-0.4785-0.6768-0.8809-0.9258-1.2051
			C441.6362,152.1042,441.3852,151.7771,441.3432,151.7224z"/>
	</g>
</g>
<path d="M424.4164,171.6984c0,0-13.4004,3.7754-21.3886,2.6026c-7.9864-1.1729,0.3378,9.1855,9.0976,10.3818
	C420.8871,185.8801,424.4164,171.6984,424.4164,171.6984z"/>
<g>
	
		<ellipse transform="matrix(0.8384 -0.545 0.545 0.8384 -4.9438 249.513)" fill="#FFFFFF" cx="418.3363" cy="133.0944" rx="28.2469" ry="31.2084"/>
	<path d="M442.4809,117.4279c0,0,0.3672,0.6309,1.0556,1.8135c0.1709,0.2969,0.3624,0.6279,0.5723,0.9927
		c0.1826,0.3896,0.3809,0.8149,0.5957,1.2749c0.2139,0.4599,0.4444,0.9541,0.6895,1.4819c0.2138,0.5371,0.4082,1.1192,0.6308,1.728
		c0.4864,1.2056,0.7969,2.6099,1.2158,4.1167c0.2833,1.5352,0.6348,3.1973,0.712,5.0088c0.2392,3.6016-0.0987,7.7535-1.5284,11.9991
		c-1.3711,4.2553-4.0878,8.4892-7.9511,11.8935c-0.4502,0.4639-1.0176,0.7935-1.5274,1.1987
		c-0.5468,0.376-1.0039,0.8047-1.6357,1.1431c-1.1162,0.6431-2.2031,1.3335-3.5059,1.8433
		c-1.2422,0.6152-2.5615,0.9619-3.8789,1.3838c-0.666,0.1806-1.3545,0.2846-2.0361,0.4306l-1.0293,0.2007l-1.0479,0.0972
		c-2.7959,0.3496-5.6836,0.1445-8.5185-0.3858c-2.8545-0.4951-5.6221-1.539-8.2578-2.8447
		c-2.6631-1.2798-5.0742-3.0684-7.3086-5.0322l-1.6153-1.5518c-0.5214-0.5337-0.9882-1.1196-1.4843-1.6787l-0.7305-0.8511
		c-0.2305-0.2939-0.4375-0.6059-0.6572-0.9082l-1.3213-1.8613l-1.1231-1.8794c-0.1845-0.3159-0.3798-0.6191-0.5566-0.9458
		l-0.4941-1.0224c-0.3184-0.6851-0.6973-1.3511-0.9893-2.0435l-0.8359-2.0859c-0.3174-0.6841-0.4561-1.4244-0.7452-2.1226
		c-0.2695-0.7041-0.6894-1.3794-0.9677-2.1001c-0.3125-0.7124-0.585-1.4458-0.75-2.1963c-0.1192-0.7558-0.1221-1.5254-0.1846-2.2851
		c-0.1162-3.044,0.0762-6.1006,0.8193-9.0113c0.7041-2.9067,1.7373-5.7265,3.2618-8.2261l0.5478-0.9448l0.6357-0.8847
		c0.4336-0.5801,0.8321-1.1822,1.2911-1.7315c0.9677-1.061,1.8759-2.1543,2.9707-3.041c1.0117-0.9775,2.1728-1.7397,3.29-2.5254
		l0.209-0.147l0.1045-0.0732l0.0527-0.0366l0.1279-0.0767l0.4219-0.2309l0.8389-0.4595l0.834-0.4561
		c0.2627-0.1577,0.5615-0.2993,0.8896-0.4253c1.2627-0.5244,2.5029-1.0732,3.7451-1.3672c0.6221-0.1601,1.2227-0.3867,1.8477-0.4843
		c0.6221-0.1074,1.2393-0.2134,1.8506-0.3189c0.6084-0.1294,1.2236-0.1533,1.8301-0.1933c0.6064-0.0386,1.207-0.0767,1.8017-0.1143
		c1.1895,0.0659,2.3613,0.0288,3.4912,0.1856c4.542,0.5043,8.503,1.9731,11.7032,3.7285c1.625,0.8476,3.0068,1.8633,4.289,2.7763
		c1.2051,1.0186,2.3496,1.9048,3.2334,2.8702c0.457,0.4648,0.9014,0.8925,1.2959,1.3168c0.3701,0.4463,0.7178,0.8643,1.041,1.2535
		c0.3233,0.3877,0.6221,0.7461,0.8965,1.0747c0.2442,0.351,0.4668,0.6699,0.665,0.9555l1.2159,1.7613L442.4809,117.4279z
		 M441.5668,117.9875c-0.001-0.0029-0.4287-0.5752-1.2324-1.6528c-0.2022-0.2686-0.4268-0.5689-0.6758-0.8994
		c-0.2764-0.3072-0.5781-0.6426-0.9043-1.0049c-0.3262-0.3609-0.6777-0.7491-1.0517-1.1626
		c-0.3975-0.3907-0.8448-0.7818-1.3028-1.208c-0.8847-0.8882-2.0234-1.6836-3.2119-2.6011
		c-1.2637-0.812-2.6152-1.7163-4.1875-2.4443c-3.0957-1.5186-6.8691-2.712-11.0664-2.9825
		c-1.0449-0.0991-2.1182-0.0078-3.2031-0.0249c-0.5401,0.0601-1.084,0.1211-1.6338,0.1826
		c-0.5488,0.0606-1.1045,0.1041-1.6484,0.2505c-0.5469,0.1202-1.0987,0.2412-1.6543,0.3628
		c-0.5577,0.1109-1.087,0.3467-1.6368,0.5137c-1.1269,0.3184-2.1259,0.8394-3.167,1.3086L404.6,106.802l-0.4053,0.2412
		l-0.8144,0.4892l-0.8203,0.4922l-0.4121,0.2471c-0.084,0.0517,0.0556-0.0362,0.0254-0.0142l-0.045,0.0347l-0.0898,0.0693
		l-0.1797,0.1382c-0.957,0.7393-1.959,1.4419-2.8096,2.3423c-0.9345,0.8086-1.6855,1.811-2.499,2.7632
		c-0.3828,0.4961-0.706,1.0415-1.0664,1.5605l-0.5264,0.791l-0.4433,0.8477c-1.2852,2.207-2.1426,4.6977-2.711,7.2627
		c-0.6093,2.5669-0.7177,5.2695-0.5664,7.9512c0.0909,1.3501,0.2959,2.666,0.1182,4.0981c-0.1748,1.4341,0.0508,2.8511,0.4854,4.188
		c0.7421,2.7559,2.0244,5.2036,3.5478,7.7544l1.2315,1.6973c0.2109,0.2861,0.4101,0.582,0.6308,0.8603l0.7012,0.8032
		c0.4726,0.5298,0.914,1.0899,1.4101,1.5967l1.5332,1.4741c2.1172,1.8677,4.379,3.6035,6.8985,4.836
		c2.4892,1.2617,5.1064,2.2812,7.8066,2.7734c2.6826,0.5273,5.416,0.751,8.0615,0.4429l0.9932-0.0811l0.9736-0.1821
		c0.6456-0.1328,1.2989-0.2227,1.9297-0.3872c1.2451-0.3892,2.5147-0.708,3.6455-1.2598c1.169-0.4292,2.2989-1.1225,3.418-1.7554
		c0.5127-0.2592,1.0117-0.7041,1.5147-1.0429c0.4873-0.3804,1.0312-0.6846,1.4609-1.1231
		c3.6924-3.1953,6.3291-7.1972,7.6807-11.2651c1.4082-4.0552,1.7753-8.0527,1.5781-11.5342
		c-0.0654-1.75-0.3594-3.3647-0.6182-4.8569c-0.3799-1.4668-0.6797-2.8316-1.1689-3.9951
		c-0.2198-0.5884-0.4121-1.1538-0.6221-1.6709c-0.2383-0.5025-0.4609-0.9732-0.6689-1.4112
		c-0.2071-0.4384-0.3985-0.8437-0.5743-1.2153c-0.2119-0.3623-0.4052-0.6914-0.5781-0.9863
		C441.9877,118.6984,441.6254,118.0847,441.5668,117.9875z"/>
</g>
<g>
	<g>
		
			<ellipse transform="matrix(0.9027 -0.4303 0.4303 0.9027 -24.2306 174.978)" fill="#FFFFFF" cx="374.765" cy="141.0634" rx="31.6856" ry="34.7506"/>
		<path d="M403.9701,127.176c0,0,0.3067,0.7558,0.8829,2.1723c0.1425,0.355,0.3017,0.752,0.4765,1.1885
			c0.1406,0.4605,0.293,0.9634,0.459,1.5064c0.1729,0.5405,0.3584,1.1211,0.5566,1.7407c0.1573,0.6269,0.293,1.2993,0.4541,2.0063
			c0.3653,1.4068,0.5323,3.0059,0.7832,4.7408c0.1006,1.7461,0.2393,3.6435,0.0782,5.6704
			c-0.2393,4.042-1.2012,8.6225-3.4004,13.1684c-2.1504,4.5557-5.7627,8.937-10.5801,12.2608
			c-0.5723,0.4629-1.2539,0.7578-1.8848,1.1479l-0.9707,0.5537l-0.4882,0.2779c0.04-0.0157-0.1231,0.062-0.129,0.0629
			l-0.0615,0.0269l-0.123,0.0532l-0.2471,0.1074c-1.3252,0.5689-2.6025,1.1924-4.1768,1.6119
			c-1.5107,0.5376-3.0459,0.7636-4.5996,1.0664c-0.7793,0.1259-1.5752,0.1479-2.3691,0.2221l-1.1963,0.0918l-1.2041-0.0283
			c-3.2256,0.0269-6.4805-0.5942-9.6396-1.5664c-3.1866-0.9399-6.1954-2.5-9.0293-4.3345
			c-5.6563-3.7373-10.2344-9.1733-13.2579-15.3398l-0.9951-2.3384c-0.1572-0.3808-0.3252-0.7383-0.4726-1.1377l-0.4082-1.2578
			c-0.2588-0.8389-0.5674-1.6797-0.7754-2.5185l-0.5567-2.5152c-0.5732-3.3745-0.8808-6.8169-0.5244-10.2046
			c0.3106-3.376,0.9737-6.7246,2.2412-9.8213c1.2266-3.0937,2.7725-6.062,4.8555-8.5678l0.7441-0.961l0.8331-0.8799
			c0.5644-0.5752,1.0869-1.185,1.6796-1.7187c1.2188-1.0308,2.3838-2.1006,3.7198-2.9199c1.2568-0.9326,2.6504-1.604,3.9951-2.312
			l0.2519-0.1319l0.126-0.0659l0.0635-0.0327c0.1894-0.0874,0.0879-0.0386,0.1465-0.064l0.5-0.1958l0.9961-0.3886l0.9892-0.3868
			l0.4922-0.1923l0.5498-0.1524c1.4639-0.4033,2.9121-0.834,4.3272-0.9819c0.7099-0.0899,1.4072-0.249,2.1103-0.2764
			c0.7031-0.0298,1.4004-0.0596,2.0918-0.0893c0.6904-0.0562,1.374-0.0049,2.0508,0.041c0.6758,0.0424,1.3447,0.0844,2.0088,0.1259
			c1.3066,0.2325,2.6064,0.3692,3.8369,0.6895c4.9541,1.1948,9.1387,3.3638,12.4512,5.7397
			c1.6855,1.1626,3.0791,2.4756,4.3779,3.6636c1.1934,1.2988,2.3457,2.437,3.1904,3.6328c0.4424,0.5791,0.8741,1.1182,1.2559,1.6416
			c0.3476,0.5474,0.6738,1.0611,0.9766,1.5386c0.3027,0.4771,0.583,0.9185,0.8388,1.3228c0.2207,0.4248,0.4209,0.811,0.6006,1.1567
			c0.708,1.3848,1.0859,2.1235,1.0859,2.1235L403.9701,127.176z M402.7778,127.7111c0,0-0.3907-0.6997-1.1241-2.0122
			c-0.1836-0.3266-0.3896-0.6914-0.6162-1.0932c-0.2607-0.3799-0.5459-0.795-0.8535-1.2432
			c-0.3066-0.4482-0.6367-0.9292-0.9883-1.4429c-0.3847-0.4892-0.8183-0.9902-1.2607-1.5293
			c-0.8457-1.1157-1.9903-2.1606-3.1651-3.3569c-1.2802-1.0845-2.6435-2.2842-4.2763-3.3237
			c-3.2031-2.1436-7.2197-4.0117-11.8418-4.9068c-1.1485-0.2485-2.3506-0.3154-3.5547-0.4829
			c-0.6084-0.0107-1.2217-0.0215-1.8408-0.0322c-0.6192-0.0161-1.2422-0.0391-1.8672,0.043
			c-0.625,0.0537-1.2549,0.1079-1.8906,0.1621c-0.6348,0.0493-1.2579,0.2275-1.8936,0.3344
			c-1.2978,0.188-2.4834,0.628-3.7168,0.9864l-0.4619,0.1372l-0.4854,0.209l-0.9755,0.4199l-0.9815,0.4223l-0.4932,0.2125
			c0.0176-0.0074-0.1279,0.0537,0.0235-0.0098l-0.0547,0.0317l-0.1104,0.063l-0.2207,0.127
			c-1.1748,0.6782-2.3974,1.3061-3.4794,2.1772c-1.1622,0.7588-2.1543,1.7529-3.2032,2.6904
			c-0.5068,0.4878-0.9472,1.0484-1.4277,1.5699l-0.7109,0.7964l-0.625,0.874c-3.4463,4.5844-5.5362,10.3877-5.9932,16.4096
			c-0.3115,3.0142,0.0019,6.0835,0.5127,9.0957l0.4824,2.2515c0.1777,0.7402,0.4365,1.4321,0.6465,2.1528l0.3291,1.0733
			c0.1309,0.3662,0.3066,0.7495,0.458,1.123l0.9043,2.1709l1.0859,2.045c0.1846,0.3388,0.3526,0.6879,0.5498,1.0185l0.6329,0.9678
			c0.4287,0.6396,0.8144,1.3105,1.2744,1.9272l1.4257,1.8145c2,2.3213,4.1963,4.5014,6.7178,6.2041
			c2.4903,1.7246,5.1504,3.2261,7.9863,4.1557c2.8106,0.9624,5.7217,1.625,8.6211,1.6875l1.084,0.064l1.0772-0.0517
			c0.7158-0.0474,1.4365-0.0367,2.1426-0.1211c1.4033-0.2207,2.83-0.3702,4.1181-0.7789c1.3008-0.2622,2.6787-0.8525,4.0186-1.3681
			l0.4297-0.1685l0.4541-0.2373l0.9052-0.4712c0.5889-0.3349,1.2334-0.5742,1.7686-0.9804
			c4.5293-2.8658,8.083-6.7862,10.2285-11.022c2.207-4.21,3.2725-8.5415,3.625-12.4067c0.2188-1.938,0.1416-3.7647,0.1006-5.4532
			c-0.1963-1.6758-0.2783-3.2363-0.6436-4.5976c-0.1513-0.6851-0.2783-1.3389-0.4257-1.9449
			c-0.1856-0.5922-0.3594-1.1474-0.5206-1.664c-0.1689-0.5137-0.3261-0.9888-0.4697-1.4243
			c-0.1855-0.4307-0.3545-0.8223-0.5049-1.1729c-0.6123-1.4014-0.9384-2.1489-0.9384-2.1489L402.7778,127.7111z"/>
	</g>
	
		<ellipse transform="matrix(0.9742 0.2256 -0.2256 0.9742 43.0771 -84.4061)" cx="390.9369" cy="146.3212" rx="8.7729" ry="10.4839"/>
</g>
<ellipse transform="matrix(0.3073 -0.9516 0.9516 0.3073 166.0136 504.4274)" cx="429.5004" cy="138.1781" rx="9.0372" ry="7.9834"/>
<g>
	<path d="M385.1254,99.1755c0,0,0.4492-0.8662,1.2373-2.3809c0.7647-1.5166,1.8877-3.6709,3.1026-6.3183
		c0.6123-1.3203,1.2412-2.7652,1.9003-4.2925c0.6397-1.5357,1.295-3.1626,1.8946-4.8687c0.5957-1.7065,1.1523-3.4878,1.5967-5.3173
		c0.4404-1.8282,0.7734-3.709,0.873-5.5699c0.0449-0.9287,0.0195-1.854-0.1221-2.7285c-0.1289-0.8594-0.4277-1.7339-0.8379-2.2197
		c-0.0488-0.0537-0.0918-0.0942-0.122-0.1182c-0.0049-0.0005-0.0186-0.0102,0.0019-0.0005
		c0.0176,0.0098,0.0371,0.0161,0.0576,0.0186c0.0391,0.0127,0.1348,0.0298,0.1993,0.0171c0.1279-0.0015,0.3339-0.0689,0.4834-0.2183
		c0.0879-0.0805,0.1572-0.1938,0.1904-0.3022c0.0283-0.0835,0.0391-0.1241,0.0449-0.1929c0.0078-0.0547-0.0068-0.1426-0.0098-0.1636
		c-0.0009-0.0185-0.0039-0.0371-0.0087-0.0556c-0.0088-0.0367-0.0352-0.0782-0.0264-0.0694
		c-0.0156-0.0283,0.0195,0.0279,0.0654,0.0718c0.2031,0.21,0.5645,0.4512,0.9307,0.644c0.7412,0.4029,1.5859,0.7012,2.4199,0.9595
		c1.6826,0.5093,3.3945,0.8208,5.0225,1.0596c0.8144,0.126,1.6152,0.2031,2.3867,0.3032c0.7715,0.1094,1.5166,0.2359,2.2334,0.3814
		c1.4336,0.2876,2.7598,0.5673,3.9443,0.663c0.5918,0.0474,1.1475,0.0577,1.6612,0.0459c0.2568-0.0356,0.5029,0.0362,0.7392-0.102
		c0.2373-0.1484,0.4649-0.5552,0.6787-0.9893c0.8516-2.1059,1.4971-1.476,1.9551-0.8574c0.1143,0.1655,0.2158,0.3789,0.3037,0.5474
		c0.0889,0.2275,0.1631,0.4194,0.2236,0.5742c0.0606,0.1387,0.1065,0.2871,0.1377,0.4038c0.0313,0.106,0.0479,0.1597,0.0479,0.1597
		l0.0117,1c0,0-0.0137,0.0542-0.043,0.1601c-0.0283,0.1172-0.0722,0.2657-0.1298,0.4053c-0.0577,0.1553-0.1299,0.3481-0.2149,0.5767
		c-0.0869,0.1694-0.1875,0.3838-0.3017,0.5507c-0.4561,0.6167-1.1524,1.2769-2.0069-0.8515
		c-0.2129-0.438-0.4345-0.8491-0.6699-1.0025c-0.2344-0.1425-0.4824-0.0756-0.7393-0.1162
		c-0.5146-0.0317-1.0712-0.0547-1.6679-0.0361c-1.1924,0.022-2.5459,0.1777-4.0313,0.2598
		c-0.7422,0.0312-1.5156,0.041-2.3135-0.0191c-0.7968-0.06-1.6162-0.1714-2.4609-0.2925c-1.6865-0.2485-3.4648-0.5698-5.2851-1.1206
		c-0.9102-0.2841-1.8311-0.6025-2.7471-1.0971c-0.459-0.2535-0.9131-0.5176-1.3779-0.9883
		c-0.1172-0.1275-0.2374-0.2569-0.3624-0.4971c-0.0263-0.0405-0.0664-0.1406-0.0927-0.2344l-0.0362-0.1406
		c-0.0117-0.0498-0.0175-0.1684-0.0107-0.2524c0.0088-0.0982,0.0156-0.1704,0.0527-0.2808c0.0508-0.1333,0.1377-0.271,0.2422-0.3765
		c0.1846-0.1933,0.4619-0.27,0.6426-0.2846c0.124-0.0044,0.2803,0.0122,0.377,0.039c0.0761,0.0235,0.1513,0.0513,0.2246,0.083
		c0.1289,0.0606,0.2148,0.1192,0.3095,0.1836c0.1612,0.1216,0.2901,0.2481,0.4014,0.3731c0.8193,1.0068,1.0762,2.0703,1.2598,3.1118
		c0.1679,1.0444,0.1914,2.0801,0.1425,3.0986c-0.0986,2.0376-0.4765,4.0137-0.9785,5.9058
		c-0.4961,1.8945-1.1015,3.7148-1.7431,5.4497c-1.3018,3.4619-2.7276,6.5947-4.0674,9.2139
		c-1.3223,2.6274-2.5196,4.7646-3.3604,6.2612c-0.8613,1.4741-1.3535,2.3164-1.3535,2.3164L385.1254,99.1755z"/>
</g>
<g>
	<path d="M379.852,97.6232c0,0,0.1855-1.0229,0.5097-2.8134c0.2979-1.7852,0.7266-4.3418,1.1026-7.4258
		c0.3691-3.082,0.748-6.6885,0.8252-10.5581c0.0732-3.8594-0.1016-8.0122-1.043-11.9834c-0.4785-1.978-1.1601-3.8985-2.1592-5.604
		c-0.248-0.4331-0.5146-0.835-0.7959-1.3003c-0.0713-0.124-0.1445-0.2534-0.2168-0.4243c-0.0517-0.1778-0.2002-0.4781,0.0303-0.9195
		c0.2412-0.3452,0.4766-0.3994,0.6299-0.4687c0.167-0.0601,0.3105-0.0957,0.4453-0.1245c1.0586-0.2085,2.002-0.3159,2.9658-0.4829
		c1.9072-0.3335,3.752-0.6558,5.501-0.962c1.7529-0.3134,3.4092-0.6445,4.9189-1.0253c1.5137-0.3702,2.8741-0.8072,4.0664-1.233
		c0.5899-0.2338,1.1807-0.3295,1.6026-0.81c0.4336-0.4409,0.7353-1.1353,1.0283-1.6895c0.5635-1.1748,1.1358-1.6777,1.6338-1.7055
		c0.1455,0.0547,0.2988,0.1767,0.4785,0.4214c0.0811,0.0961,0.1611,0.1987,0.25,0.3408c0.085,0.1284,0.1543,0.2246,0.2442,0.3906
		c0.1669,0.2974,0.2939,0.5225,0.3789,0.6738c0.1025,0.2017,0.1552,0.3042,0.1552,0.3042l0.3223,0.9463
		c0,0,0.0215,0.1128,0.0635,0.335c0.0244,0.1714,0.0605,0.4272,0.1094,0.7646c0.0292,0.1861,0.0322,0.3047,0.0429,0.458
		c0.0147,0.167,0.0137,0.2969,0.0059,0.4224c0.0039,0.3037-0.0459,0.4946-0.1319,0.627c-0.4277,0.2783-1.206,0.2456-2.375-0.3736
		c-0.5732-0.2744-1.2275-0.6528-1.8388-0.7617c-0.626-0.1523-1.166,0.1074-1.7862,0.252c-1.2334,0.309-2.6103,0.6992-4.1044,1.1582
		c-1.4961,0.4545-3.1094,0.9834-4.8379,1.4775c-1.7286,0.4961-3.5821,0.9268-5.5245,1.2353
		c-0.958,0.1626-1.9863,0.2852-2.8964,0.4624c-0.1104,0.022-0.212,0.0513-0.2803,0.0757c-0.0811,0.0147-0.084,0.0742,0.0078-0.0625
		c0.0977-0.2099,0.0342-0.2422,0.0605-0.188c0.0274,0.063,0.0752,0.1553,0.1309,0.2515c0.2422,0.4028,0.5371,0.8525,0.7979,1.3086
		c1.0683,1.8364,1.7851,3.8809,2.2793,5.9419c0.9697,4.1411,1.1298,8.375,1.0478,12.2978
		c-0.0957,3.9302-0.459,7.5767-0.8789,10.6817c-0.4277,3.1045-0.8994,5.6704-1.2295,7.4697
		c-0.3525,1.7857-0.5537,2.8062-0.5537,2.8062L379.852,97.6232z"/>
</g>
<path fill="none" stroke="#000000" stroke-miterlimit="10" d="M202.8788,64.5075"/>
<g opacity="0.3">
	<path fill="#FFFFFF" d="M288.7446,74.8635c0,0-0.4122,0.125-1.1846,0.3598c-0.3848,0.128-0.8301,0.2139-1.3565,0.3526
		c-0.538,0.1528-1.123,0.2788-1.7783,0.4238c-1.293,0.2627-2.8203,0.5391-4.4834,0.7407c-1.6748,0.2232-3.4765,0.3404-5.3867,0.3936
		c-1.9053,0.0371-3.9014-0.0327-5.9629-0.2183c-2.0644-0.1802-4.2422-0.2514-6.4668-0.3032c-1.1123-0.0269-2.2392-0.0273-3.374-0.02
		c-1.1358,0.0517-2.2764,0.0259-3.4199,0.0888c-0.5723,0.0279-1.1446,0.0401-1.7178,0.0503l-1.7158,0.0953
		c-1.1455,0.0185-2.2842,0.144-3.4219,0.184c-1.1309,0.0762-2.2627,0.1524-3.3896,0.2281
		c-1.1182,0.0883-2.2325,0.1762-3.3389,0.2631c-0.5498,0.0542-1.0977,0.1084-1.6426,0.1622
		c-0.5469,0.0449-1.0967,0.0659-1.6309,0.1435c-1.0673,0.1572-2.1543,0.1807-3.1909,0.3535
		c-2.0971,0.2466-4.123,0.5464-6.0537,0.8706c-0.9663,0.1773-1.9057,0.3496-2.8149,0.5166c-0.8985,0.212-1.793,0.3594-2.689,0.4356
		c-0.9067,0.0517-1.769,0.1435-2.646,0.1323c-0.8677,0.0103-1.751-0.0786-2.5806-0.125c-1.6665-0.1123-3.3046-0.4394-4.7104-0.7212
		c-1.3955-0.2676-2.6548-0.6675-3.5156-0.9184c-0.4532-0.1568-0.8008-0.2769-1.0352-0.358
		c-0.2475-0.0976-0.3755-0.1484-0.3755-0.1484l-0.7138-1.126c0,0,0.0131-0.1347,0.0385-0.395
		c0.0386-0.2436,0.0962-0.6055,0.1714-1.0771c0.1963-0.8809,0.4868-2.2041,1.064-3.648c0.5649-1.4619,1.4443-2.9985,2.5981-4.6201
		c0.5728-0.8174,1.2769-1.5337,2.0298-2.2915c0.7656-0.7319,1.585-1.5059,2.5298-2.1284c0.9365-0.6426,1.9507-1.2442,3.0283-1.8076
		c1.1045-0.5039,2.2466-1.0249,3.4204-1.5606c1.1861-0.5161,2.4366-0.9516,3.708-1.4448c1.2764-0.4766,2.6099-0.8447,3.9639-1.2603
		c2.7188-0.7617,5.5776-1.3725,8.5078-1.7636c1.4639-0.1973,2.9473-0.2994,4.4336-0.4204c1.4854-0.0318,2.9805-0.1246,4.4678-0.0655
		c2.9756,0.063,5.9365,0.3189,8.7988,0.7866c2.8711,0.4214,5.6377,1.1011,8.2793,1.774c2.6367,0.7168,5.1358,1.5312,7.4668,2.3701
		c2.3359,0.8198,4.4649,1.8398,6.333,3.0049c0.9365,0.5722,1.8086,1.1782,2.6104,1.8154c0.8095,0.6099,1.5439,1.271,2.2197,1.8984
		c1.3428,1.2974,2.4238,2.5596,3.249,3.7115c0.4112,0.5717,0.7617,1.1191,1.0459,1.6176c0.2862,0.5054,0.5381,0.8916,0.709,1.2837
		c0.1748,0.3726,0.3145,0.6524,0.4004,0.8594c0.0781,0.2061,0.1182,0.312,0.1182,0.312L288.7446,74.8635z"/>
</g>
<ellipse fill="#FFFFFF" cx="393.226" cy="145.8132" rx="3.3633" ry="3.3774"/>
<ellipse fill="#FFFFFF" cx="370.7148" cy="224.8132" rx="3.8745" ry="3.3769"/>
<ellipse fill="#FFFFFF" cx="431.9296" cy="138.2771" rx="2.3071" ry="2.5366"/>
<g>
	<path d="M345.0239,109.694c0,0,0.0869-0.101,0.2509-0.29c0.1699-0.1934,0.4209-0.4712,0.7451-0.8096
		c0.6543-0.6757,1.629-1.5981,2.8868-2.6079c0.6269-0.5083,1.3242-1.0376,2.0927-1.5547c0.751-0.5459,1.586-1.0581,2.4629-1.5708
		c0.8721-0.5185,1.8194-0.9824,2.7705-1.476c0.9952-0.4009,1.9766-0.8868,3.0186-1.2281c1.0361-0.3589,2.0703-0.7343,3.1396-0.9438
		c0.5284-0.124,1.0528-0.2471,1.5704-0.3687c0.5234-0.1015,1.0498-0.1596,1.5625-0.2387c0.5146-0.0772,1.0205-0.1451,1.5175-0.2002
		c0.5-0.0274,0.9932-0.0152,1.4707-0.0181c0.9561,0.0059,1.8565,0.0244,2.6797,0.209c0.8233,0.1411,1.5694,0.3022,2.2178,0.477
		c0.6435,0.2183,1.1885,0.4649,1.6357,0.6455c0.8868,0.3999,1.3614,0.6792,1.3614,0.6792l-0.2422,0.9698
		c0,0-0.5537,0.0854-1.4668,0.1455c-0.4531,0.0107-1.002,0.0517-1.6113,0.0332c-0.6211,0.0571-1.3125,0.1333-2.0547,0.1553
		c-0.7412-0.0015-1.542,0.1074-2.3838,0.1836c-0.4209,0.0283-0.8535,0.0576-1.2949,0.0874
		c-0.4395,0.0698-0.8897,0.1293-1.3487,0.1826c-0.458,0.0615-0.9267,0.1001-1.3955,0.1811
		c-0.4678,0.1001-0.9404,0.2017-1.417,0.3042c-0.9599,0.1734-1.9072,0.4878-2.873,0.7388c-0.9678,0.248-1.8946,0.6435-2.834,0.9521
		c-0.9151,0.3765-1.8399,0.7046-2.7002,1.107c-0.8574,0.4067-1.707,0.768-2.4834,1.1762c-0.792,0.3794-1.5098,0.7955-2.1924,1.1529
		c-2.7002,1.4985-4.4111,2.664-4.4111,2.6645L345.0239,109.694z"/>
</g>
<g>
	<path d="M404.4223,99.174c0,0,0.0107-0.1201,0.1191-0.3711c0.1055-0.2602,0.2569-0.5737,0.5127-0.9648
		c0.1338-0.1865,0.2832-0.3931,0.4453-0.6182c0.1807-0.1987,0.378-0.4209,0.6045-0.6421c0.4571-0.4184,1.0069-0.8935,1.6719-1.2524
		c0.6523-0.4102,1.4111-0.7144,2.2295-0.9893c0.4082-0.1494,0.8379-0.2173,1.2764-0.3159c0.4384-0.0864,0.8857-0.2046,1.3427-0.2427
		c0.9121-0.1171,1.8584-0.2265,2.8086-0.2138c0.4756-0.0074,0.9571-0.0215,1.4356-0.0049l1.4287,0.1128
		c0.957,0.061,1.8887,0.2226,2.8008,0.4053c0.4541,0.0932,0.9091,0.1679,1.3496,0.2744c0.4345,0.1191,0.8652,0.2368,1.2881,0.3525
		c0.8427,0.2334,1.6582,0.4619,2.3964,0.7632c0.7471,0.2788,1.4463,0.5532,2.084,0.8227c0.6446,0.25,1.2071,0.544,1.7061,0.8033
		c0.4961,0.2607,0.9287,0.4878,1.2851,0.6748c0.7051,0.3857,1.0997,0.6181,1.0997,0.6181l-0.3575,0.9336
		c0,0-0.4482-0.0708-1.2314-0.1948c-0.3848-0.0718-0.8535-0.1592-1.3897-0.2588c-0.539-0.0864-1.123-0.2583-1.7871-0.333
		c-0.6592-0.0908-1.3652-0.207-2.1054-0.3418c-0.7354-0.1626-1.5332-0.1797-2.335-0.3037c-0.4014-0.0527-0.8096-0.106-1.2227-0.1602
		c-0.413-0.041-0.833-0.0488-1.2529-0.0761c-0.8408-0.0474-1.6875-0.1363-2.5293-0.1006l-1.2578-0.0132
		c-0.4121,0.0264-0.8232,0.0527-1.2305,0.0791c-0.8213,0.0156-1.5976,0.1631-2.3554,0.2568
		c-0.753,0.1084-1.4551,0.3028-2.1231,0.4478c-0.6621,0.1626-1.2881,0.3164-1.8662,0.458c-0.2959,0.0659-0.5791,0.125-0.8369,0.2085
		c-0.2647,0.0674-0.5352,0.1177-0.7715,0.1855c-0.498,0.129-0.9316,0.2413-1.2891,0.334c-0.3613,0.0933-0.6748,0.1905-0.8632,0.2305
		c-0.1934,0.042-0.3262,0.0947-0.3262,0.0947L404.4223,99.174z"/>
</g>
</svg>
