<?xml version="1.0" encoding="UTF-8" standalone="no"?>
<!-- Created with Inkscape (http://www.inkscape.org/) -->
<svg xmlns:rdf="http://www.w3.org/1999/02/22-rdf-syntax-ns#" xmlns="http://www.w3.org/2000/svg" xmlns:cc="http://web.resource.org/cc/" xmlns:dc="http://purl.org/dc/elements/1.1/" xmlns:svg="http://www.w3.org/2000/svg" xmlns:inkscape="http://www.inkscape.org/namespaces/inkscape" xmlns:sodipodi="http://sodipodi.sourceforge.net/DTD/sodipodi-0.dtd" xmlns:ns1="http://sozi.baierouge.fr" xmlns:xlink="http://www.w3.org/1999/xlink" id="svg2" viewBox="0 0 338.08 317.56" version="1.1" inkscape:version="0.91 r13725">
  <title id="title3678">frog prince</title>
  <g id="layer2" transform="translate(-189.15 -219.56)">
    <path id="path3676" style="fill:#000000" d="m353.97 221.47a2.573 2.573 0 0 0 -2.4062 1.9375c-0.13959 0.57058-0.27964 1.1456-0.4375 1.7188-1.3402 4.8656-3.0891 8.6129-4.8438 11s-3.3624 3.2552-4.5625 3.3125-2.6648-0.55373-4.4688-3c-1.8039-2.4463-3.671-6.5839-5.1875-12.531a2.573 2.573 0 0 0 -4.9688 -0.125c-2.0405 6.6539-3.7213 11.559-5.1875 14.656-0.73309 1.5488-1.4288 2.637-1.9375 3.2188-0.5087 0.58175-0.71625 0.59718-0.6875 0.59375 0.0288-0.003-0.0738 0.0382-0.625-0.375-0.55116-0.41323-1.3729-1.2585-2.3125-2.5312-1.8792-2.5456-4.2525-6.7048-7.2188-12.219a2.573 2.573 0 0 0 -4.8125 1.625l7.7812 47.344c-21.526 4.9789-35.835 16.666-44.5 28.812-8.9931 12.607-12.204 25.276-11.562 32.5 0.14958 1.6854-1.1125 8.1122 2.7812 15.062-0.94507 0.36619-1.8973 0.74909-2.6562 1.4062-1.9135 1.6568-3.1184 3.9935-3.9062 6.7188-1.5756 5.4505-1.5518 12.689-0.53125 21.156 2.0411 16.935 8.3733 38.667 17 58.062 6.5766 14.786 15.628 24.489 23.312 34.344 0.81991 1.0516 1.6371 2.0627 2.4062 3.0938-0.83778 0.12729-1.0626 0.15582-1.875 0.28125-6.6989 1.0343-19.973 3.0538-31.844 4.625-5.9355 0.78558-11.527 1.4321-15.719 1.8125-2.0958 0.19019-3.8424 0.32014-5.0625 0.34375-0.61005 0.0118-1.1105-0.008-1.375-0.0312-0.2645-0.0236-0.40365-0.2738 0.34375 0.21875-0.66305-0.43696-0.96659-0.45879-1.375-0.5625s-0.84303-0.16978-1.3438-0.25c-1.0014-0.16045-2.2463-0.30734-3.7188-0.4375-2.9449-0.26031-6.7758-0.47621-10.906-0.5625-8.261-0.17257-17.657 0.0911-23.906 1.4688-3.106 0.68473-5.1663 1.5109-6.6562 2.8125-1.49 1.3016-2.1165 3.4217-1.75 4.9688 0.25138 1.0612 0.72498 1.8514 1.2188 2.5-0.58729 0.93353-1.0209 1.9066-1.1562 2.9375-0.23951 1.8239 0.46984 3.5669 1.5 4.8125a2.573 2.573 0 0 0 0 0.0312c0.008 0.01 0.0679 0.0838 0.21875 0.25 0.02 0.0221 0.14675 0.2237 0.4375 0.5 0.13332 0.12701 0.28854 0.24867 0.4375 0.375 0.26283 0.22264 0.4972 0.39365 0.6875 0.53125 0.67248 0.48588 0.68684 0.47443 0.0625 0.0312-0.087-0.062-0.0403-0.01 0.15625 0.125 1.3181 0.90454 2.8118 1.5608 4.3438 2.0938-0.58224-0.20271-0.51127-0.15207 0.21875 0.0937 0.46098 0.15598 0.7675 0.23048 0.9375 0.28125 0.51928 0.15492 1.004 0.26846 1.4375 0.375 0.008 0.002 0.21901 0.0649 0.625 0.15625 0.28688 0.0646 0.29383 0.0568 0.1875 0.0312-0.0173-0.004 0.0592 0.006 0.0312 0 0.25965 0.0553 0.45575 0.10989 0.53125 0.125 0.28986 0.0582 0.70133 0.15776 1.2812 0.25 0.86173 0.13661 1.6983 0.22519 2.4375 0.28125 0.67954 0.0512 1.3297 0.0733 1.9688 0.0625 1.6418-0.0278 4.3452-0.33825 7.8125-0.8125 1.7487-0.23941 3.6657-0.55155 5.625-0.84375 8.4441-1.2592 15.708-2.4822 18.25-2.9062-0.01 0.31309-0.0906 0.61929-0.0312 0.9375 0.24135 1.294 1.0935 2.3402 2 3 1.813 1.3195 3.9787 1.7202 6.5938 1.9375 3.3535 0.27861 7.5019-0.10667 11.781-0.8125-1.1205 0.80477-1.9394 1.6906-2.375 2.5-0.49908 0.92731-0.78958 1.6398-0.5625 1.2812-0.38196 0.60313-0.63605 1.5116-0.5 2.375 0.13605 0.86336 0.58762 1.53 1.0312 1.9688 0.88725 0.87751 1.7974 1.206 2.8125 1.5312 2.0302 0.65041 4.6031 0.97663 7.5 1.125 5.7937 0.29674 12.559-0.10398 17.156-2.3438 2.9329-1.4289 12.927-6.8583 19.469-12.688 3.7035-3.3 7.2196-5.9621 9.75-9.4375 8.609-0.92171 16.307-1.7499 20.188-2.0312 1.0937-0.0794 1.9129-0.11703 2.4375-0.125 1.3509-0.0205 2.6252-0.0559 3.7812-0.0937 2.339-0.0769 4.3317-0.1839 6.0938-0.375 0.8614-0.093 1.671-0.20106 2.4688-0.34375a2.573 2.573 0 0 0 0.0312 0c0.46104-0.0827 0.8132-0.18603 1.0938-0.25 2.5433-0.57767 4.6185-1.5647 6.125-3.1562 0.881-0.93074 1.495-2.0252 2-3.1875 0.47423 0.15297 0.93244 0.30728 1.4375 0.4375 1.3218 0.34082 2.6282 0.62134 3.9062 0.90625a2.573 2.573 0 0 0 0.0312 0c-0.10971-0.0238-0.09-0.01 0.0937 0.0312 1.2263 0.2718 2.4596 0.55348 3.7188 0.78125 1.1848 0.21849 2.3319 0.30644 3.5 0.46875-1.4757 2.2138-3.3502 4.7652-5.375 7.1562-2.9558 3.4903-5.508 6.1247-5.6562 6.2812-0.60866 0.36666-6.409 3.8908-11.656 8.3125-2.7636 2.3288-5.3042 4.7649-6.7812 7.5-0.7385 1.3676-1.2774 2.9195-1 4.625 0.27735 1.7055 1.5102 3.2604 3.0938 4.1562 3.8352 2.1698 7.7624 2.4402 11.062 1.4375 3.3001-1.0027 5.9813-3.1169 8.0625-5.4375s3.5835-4.8846 4.5312-7.0625c0.47389-1.089 0.82406-2.0536 1-3 0.0714-0.38421 0.0713-0.78468 0.0625-1.2188 2.1534-3.4174 4.051-5.9383 5.4062-7.2812 0.65576-0.64981 1.1142-0.96962 1.4062-1.125 0.0351 0.0562-0.0189-0.0423 0.0312 0.0625 0.21504 0.44903 0.49403 1.2994 0.6875 2.4688 0.38694 2.3387 0.53544 5.9392 0.375 10.594a2.573 2.573 0 0 0 0.1875 1.125c0.46706 1.0829 0.64047 2.8605 0.59375 4.9688-0.0467 2.1083-0.25324 4.484 0 6.875s1.0722 5.0355 3.3125 6.8125 5.4152 2.4286 9.6875 2.1562c3.8713-0.24681 6.684-1.2021 8.1562-3.5312s0.83369-4.9416-0.0625-7-2.1959-3.9536-3.3125-5.625-2.0206-3.2737-2.0938-3.5312c-1.4566-5.128-1.9706-8.9419-1.875-11.125 0.04-0.9125 0.20656-1.3221 0.3125-1.5938 0.27879 0.1555 1.357 0.58343 3 2.2812 1.9899 2.0562 4.4762 5.3898 7.0938 9.9062 0.23586 0.40696 0.28001 0.42179 0.4375 0.625s0.35151 0.45785 0.59375 0.75c0.48449 0.58431 1.1344 1.3398 1.9375 2.2188 1.6063 1.7578 3.7962 3.9896 6.2812 6.0938s5.2472 4.1081 8.1875 5.4062c2.9404 1.2982 6.2565 1.9398 9.3438 0.65625 1.5997-0.66508 2.9037-1.519 3.7812-2.7812 0.87756-1.2623 1.1266-2.9222 0.84375-4.2812-0.56575-2.7181-2.473-4.6244-4.5938-6.4688-4.2416-3.6888-10.015-6.7697-12.375-7.9375-0.39071-0.19338-1.6798-1.2413-3.125-2.8438-1.4452-1.6024-3.1869-3.7361-5.125-6.0625-3.6963-4.4369-8.2159-9.5799-13.469-13.75-0.21231-1.1929-0.51975-2.3068-0.8125-3.25 0.1074-0.0588 0.27799-0.18721 0.0937-0.0937 0.48457-0.24535 0.7431-0.41653 0.78125-0.4375 0.17605-0.0975 0.5496-0.25546 1.0938-0.59375 0.64028-0.39446 1.2057-0.80805 1.7188-1.1875-0.72578 0.53732-0.70069 0.53798 0.0625-0.0312 0.43059-0.32056 0.86298-0.6746 1.2812-1.0312-0.22465 0.71196-0.46921 1.4281-0.625 2.125-0.22746 1.0169-0.34627 1.9754-0.34375 2.9062 0.003 0.96309 0.13327 1.9469 0.5 2.875 0.87775 2.2194 2.8276 3.7738 5.375 5.0938 0.10739 0.0556 0.17158 0.13266 0.28125 0.1875 0.21458 0.14348 2.0162 1.3723 4.8438 3.3438 3.7941 2.6453 9.1293 6.4584 13.844 10.25 4.7145 3.7916 8.8584 7.8246 9.875 9.625 3.9614 7.0153 8.9628 12.1 14.438 14.719 5.4746 2.6185 11.595 2.6214 16.688-0.5625 0.48839-0.30533 0.86698-0.64815 1.1562-0.90625 0.3296-0.29407 0.55272-0.55046 0.71875-0.75 0.13356-0.16053 0.37666-0.42353 0.625-0.84375 0.14095-0.2385 0.31146-0.54735 0.46875-0.96875 0.1236-0.3309 0.22025-0.65117 0.28125-0.96875 0.0599-0.30786 0.08-0.61481 0.0937-0.90625 0.0111-0.24013 0.005-0.26536 0-0.0937 0.0307-0.9979-0.16654-1.9682-0.5-2.875-0.20516-0.55779-0.47236-1.1577-0.8125-1.75 0.14665 0.25498 0.13876 0.23198-0.0312-0.0625-0.19687-0.3376-0.35232-0.60643-0.46875-0.78125-0.0312-0.0469-0.0877-0.11897-0.15625-0.21875-0.0699-0.10135-0.19585-0.2823-0.40625-0.5625-0.0211-0.028-0.047-0.0948-0.0937-0.15625a2.573 2.573 0 0 0 -0.0312 0c-0.40447-0.52791-0.82453-1.002-1.2188-1.4375-0.47389-0.52352-0.97428-1.028-1.5-1.5312-0.32167-0.30781-0.70952-0.70066-1.1562-1.0938-0.16126-0.14183-0.33055-0.29308-0.5-0.4375-0.31115-0.26503-0.44489-0.34462-0.40625-0.3125-0.43215-0.35926-0.9056-0.73902-1.4062-1.125-0.46031-0.35506-0.92987-0.73786-1.4688-1.125-0.25777-0.18524-0.37741-0.2517-0.375-0.25-1.3064-0.92335-2.6655-1.7931-4-2.5938-0.55814-0.33474-1.1-0.62874-1.5938-0.90625 0.0504 0.0283-0.0652-0.0617-0.40625-0.25-0.40171-0.22171-0.81178-0.44065-1.2188-0.65625l11.812 3.0312 18.531 4.7188c10.939 5.7069 21.83 8.5504 32.594 10.438 3.25 0.56977 5.7042 0.66002 7.75 0.1875s3.8929-1.8892 4.4062-3.8125c0.51336-1.9233-0.0972-3.6564-0.96875-5.1562-0.20921-0.36003-0.59533-0.65355-0.84375-1 1.2591-0.49512 2.5645-1.1132 3.7188-1.9688 0.0192-0.0142 0.0434-0.0169 0.0625-0.0312 0.002-0.00078 0.024-0.027 0.0312-0.0312 0.033-0.0196 0.017-0.0216 0.15625-0.125a2.573 2.573 0 0 0 0.0937 -0.0625c0.28373-0.2317 0.25873-0.24535 0.25-0.25-0.003-0.002 0.13543-0.13227 0.0937-0.0937 0.1367-0.11621 0.2728-0.23701 0.4375-0.40625 1.0256-1.0539 1.7593-3.0015 1.25-4.7188-0.48274-1.6276-1.6133-2.8308-3.1875-4.0938-0.10313-0.12265-0.11415-0.26525-0.25-0.375-0.14009-0.11317-0.2659-0.11059-0.40625-0.1875-0.59576-0.44773-1.2851-0.9651-2.2188-1.5312-10.454-6.339-16.665-9.1772-34.5-9.6562-17.067-0.45838-37.214-0.56674-57.906-9.5938 8.5948-26.517 30.963-57.003 42.062-89.875 7.1348-21.13 8.8286-39.607 5.4375-50.781-0.84777-2.7936-2.0344-5.1522-3.7188-6.9688-1.6843-1.8166-3.9427-3.0245-6.4375-3.2188-4.9896-0.38854-10.215 2.6808-16.062 8.8438-0.2857 0.30114-0.60032 0.66388-0.90625 1-0.25484 0.28055-0.28295 0.33131-0.125 0.15625-0.51037 0.56425-1.0088 1.14-1.5 1.7188 0.23684-0.2794 0.2026-0.25685-0.0937 0.0937-0.45385 0.53666-0.88049 1.0475-1.3438 1.625-0.65484 0.81626-1.3452 1.7085-2.0312 2.625-0.18535 0.24793-0.20156 0.27957-0.0625 0.0937-1.3429 1.798-2.7396 3.7667-4.1562 5.9062-0.14136 0.21354-0.24913 0.38698-0.34375 0.53125-0.51248 0.78117-1.0237 1.5712-1.5312 2.375-0.25512 0.40405-0.52034 0.84065-0.8125 1.3125-0.26934 0.43499-0.52479 0.85949-0.78125 1.2812-0.39749 0.65373-0.80314 1.2977-1.2188 2-0.68089 1.1499-1.332 2.292-2 3.4688-0.58431 1.0294-1.1967 2.1264-1.8125 3.25-0.14813 0.27013-0.18933 0.40432-0.15625 0.34375-0.59128 1.0824-1.2097 2.2034-1.8125 3.3438-0.10644 0.20138-0.20855 0.39598-0.3125 0.59375-0.0942 0.1793-0.18466 0.38151-0.28125 0.5625-0.78087-5.594-2.0999-12.931-4.4688-22.125-0.39825-1.5458-0.83556-3.1205-1.2812-4.7188-2.4416-8.7557-5.533-17.957-9.2812-26.031-0.32798-0.70653-0.66555-1.4135-1.0312-2.1562-0.70889-1.4398-1.4439-2.828-2.1875-4.1562-3.0167-5.3882-5.517-11.107-8.9688-16.594-0.76091-1.2095-1.5744-2.4176-2.4688-3.625-6.3699-8.6098-16.293-15.859-34.688-19.281l8.05-38.97a2.5777 2.5777 0 0 0 -4.9688 -1.375c-0.95944 2.7725-1.8585 4.9024-2.6562 6.5-0.15206 0.30404-0.21126 0.483-0.1875 0.4375-0.63211 1.2136-1.2156 2.0514-1.625 2.5-0.38413 0.42089-0.20638 0.27752-0.0937 0.25-0.65278-0.7189-2.0647-3.9796-3.125-8-1.0675-4.0479-2.0275-8.9354-3-13.5a2.573 2.573 0 0 0 -2.625 -2.0312z" transform="translate(.0000014938)"/>
    <path id="path3734" style="fill:#447821" d="m414.29 411.65c48.327-117.31 74.2-78.248 53.929-18.214-11.207 33.19-34.589 64.367-42.857 92.143 22.034 10.278 43.467 10.241 61.071 10.714 17.604 0.47281 22.829 2.988 33.214 9.2857 10.977 6.6564 1.4699 8.632-3.2143 10.357 5.2105 4.4522 6.9653 10.732-5.3571 8.5714-10.746-1.884-21.493-4.6921-32.239-10.362l-36.34-9.29c1.3095 2.2137 0.11905 3.6946 1.4286 5 9.9351 4.5049 24.513 15.526 16.786 20.357-8.6972 5.4373-19.974 0.11376-27.5-13.214-4.1965-7.4316-29.643-24.286-29.643-24.286-7.8572-3.9286-4.6429-7.5 0-21.429l10.714-59.643z"/>
    <path id="path3732" style="fill:#447821" d="m300.36 388.79c-59.695-79.26-53.627-4.7264-29.286 50 7.7686 17.466 19.144 27.614 27.857 40.357 0 0-58.728 9.2796-61.429 7.5-1.783-1.175-27.771-2.5384-39.286-0.00001s-4.2857 7.5-4.2857 7.5c-7.4228 7.4228 6.681 11.176 12.857 11.071 5.1128-0.0866 34.286-5 34.286-5s85.297-10.215 94.643-10.357c21.261-0.32296 18.571-2.5 22.5-18.571l-57.857-82.5z"/>
    <path id="path2907" style="fill:#ffff00" d="m316.18 285.15-9.3439-56.821c11.926 22.17 14.518 22.986 22.728-3.7881 6.4547 25.313 19.136 21.406 24.496-0.50508 3.4394 16.143 7.0334 37.043 15.657 12.122l-11.112 54.043-42.426-5.0508z"/>
    <path id="path3618" style="opacity:.4;fill:#000000" d="m271.06 357.62c-4.4736 0.97052-8.56 2.4418-8.9375 16.406-1.0114 37.409 19.853 63.058 35.438 91.531 2.1704 3.9652-1.7466 4.8201-3.5 7 1.6803 2.155 3.3275 4.3305 4.875 6.5938 0 0-3.3785 0.50633-5.9688 0.90625-10.13 5.4887-49.199 14.197-58.094 13.188-13.999-1.5886-34.455 3.5728-42.5 6.7812 2.169 3.5138 10.16 5.2595 14.406 5.1875 5.1128-0.0866 34.281-5 34.281-5s85.31-10.202 94.656-10.344c21.261-0.32296 18.571-2.5223 22.5-18.594l-57.875-82.5c-12.51-16.62-22.11-26.47-29.28-31.17z"/>
    <path id="path3630" style="opacity:.4;fill:#000000" d="m354.06 224.03c-0.1491 0.60945-0.30862 1.1999-0.46875 1.7812-1.1193 19.523 0.24363 40.039-7.125 57.062l13.219 2 10.031-48.719c-8.624 24.921-12.217 4.0177-15.656-12.125z"/>
    <path id="path3635" style="opacity:.4;fill:#000000" d="m451.75 343.91c-9.9188 10.455-22.631 31.731-37.469 67.75l-10.719 59.625c-4.6429 13.929-7.8572 17.509 0 21.438 0 0 2.1463 1.4326 5.1562 3.5312 18.341-24.863 25.735-74.618 39.5-113.88 5.5256-16.5 5.3875-29.45 3.5312-38.469z"/>
    <path id="path2942" style="fill:#447821" d="m333.84 276.06c-59.824 0.66099-76.47 47.378-75.25 61.125 0.48252 5.4366-5.0289 20.018 31.312 32.812 4.4269 37.166 15.524 76.476 13.196 113.64-10.427 8.1449-32.379 15.208-37.165 13.513-5.5525-1.9656-22.937 2.0425-24.5 4.6875-3.2576 5.5126 10.885 6.1763 23.938 2.5 8.5252-2.4012 18.418-2.404 19.438-3.6875 0.53968 1.8889-4.0772 6.0499-8.75 6.3125-18.004 1.0119-17.137 5.1548-17.969 6.4688-2.0758 3.2777 17.304 4.566 24.688 0.96875 2.6476-1.2899 12.736-6.8114 18.875-12.281 6.1387-5.4698 11.298-8.9529 12-15.438 2.8142-26.004-3.995-52.589-5.0625-58.406 4.0404 5.7804 26.681 48.457 50.844 54.688 5.1288 1.3224 10.126 2.2867 14.844 2.625-2.3494 5.6349-13.562 17.469-13.562 17.469s-25.634 15.367-16.781 20.375c13.214 7.4757 22.325-12.224 20.719-13.562 9.8379-16.009 13.855-13.638 13.201 5.3482 2.9777 6.9037-4.6258 20.281 11.062 19.281 14.023-0.894 1.5978-12.133 0.375-16.438-5.9998-21.122 2.4428-21.074 13.205-2.5045 0.48077 0.82953 14.853 18.278 23.576 14.652 10.487-4.36-8.0855-14.585-12.513-16.777-4.2865-2.1215-12.26-15.521-22.839-23.589-0.41451-2.8468-0.68238-3.2216-1.567-6.0982 2.4458-0.97621 4.7187-2.3408 6.7812-4.1875 23.59-21.121 31.476-88.864 30.875-99.25-0.49863-8.619-7.1197-43.126-18.719-63.844-11.005-19.656-14.426-41.067-74.25-40.406z"/>
    <g id="g2944" transform="translate(.0000014938)">
      <path id="path2909" style="fill:#000000" d="m284.86 273.03a7.0711 17.173 0 1 1 -14.142 0 7.0711 17.173 0 1 1 14.142 0z" transform="matrix(.99409 .10853 -.10853 .99409 32.282 -25.504)"/>
      <path id="path2911" style="fill:#000000" d="m284.86 273.03a7.0711 17.173 0 1 1 -14.142 0 7.0711 17.173 0 1 1 14.142 0z" transform="matrix(1.1383 -.019430 .011312 1.1038 63.55 -21.179)"/>
      <path id="path2913" style="fill:#ffffff" d="m280.7 260.66c-0.46396 4.2243 1.7399 7.4169 3.1567 11.364 1.7723-4.4052-0.34428-11.25-3.1567-11.364z"/>
      <path id="path2915" style="fill:#ffffff" d="m382.43 257.83c0.34925 4.2353 3.1209 6.9496 5.2638 10.555 0.90062-4.6622-2.481-10.978-5.2638-10.555z"/>
      <path id="path2917" style="fill:#000000" d="m271.07 238.43c5.2188-28.25 16.709-9.5942 17.857 0.35714 0.10503 0.91065-2.5692 3.5051-4.4114-0.42481-6.0326-12.869-9.7231-7.9406-13.446 0.0677z"/>
      <path id="path2919" style="fill:#000000" d="m400.18 232.36c-11.475-24.182-25.698-8.4071-23.571 1.0714 0.47181 2.1031 2.8853 4.5087 4.0542 0.28948 3.2625-11.776 9.6146-7.4221 17.196-1.0037 1.9845 1.6801 2.9722 1.0143 2.3214-0.35718z"/>
    </g>
    <path id="path2952" style="fill:#aade87" d="m267.84 338.78c4.0724 11.642 9.6014 21.841 22.156 25l19.469 65.875c5.758 9.1954 27.184 47.438 49.969 53.312 5.287 1.3632 10.436 2.3803 15.281 2.6875 5.6092-22.981 6.2072-14.887 11.344-72.594-4.7619-19.643-8.3842-21.996-9.9911-54.259 1.2939-6.1231 1.5405-15.676-6.7902-20.022-9.9989 7.5011-72.568 19.584-101.44 0z"/>
    <path id="path2838" style="opacity:.4;fill:#000000" d="m267.84 338.78c3.9522 11.681 9.6014 21.841 22.156 25l3.6799 13.232c13.801 10.689 17.136 13.813 38.831 11.866-0.33668 49.132 22.789 48.073 6.5541 53.812-8.0466 2.8443-23.893-10.06-30.877-17.348l1.2812 4.3125c5.758 9.1954 27.184 47.438 49.969 53.312 5.287 1.3632 10.436 2.3803 15.281 2.6875 5.6092-22.981 6.2072-14.887 11.344-72.594-4.7619-19.643-8.3932-21.987-10-54.25 1.2939-6.1231 1.6694-15.926-6.7812-20.031-4.6252-2.2467-6.3206-2.8298-7.8408-2.5813 1.475 2.6534 2.8782 5.2666 1.5088 5.6094-16.165 28.788-91.198 26.639-92.521-10.042-2.3588-1.0842-3.9376 3.0144-2.5844 7.0141z"/>
    <path id="path3620" style="opacity:.4;fill:#000000" d="m194.46 494.04c10.595-3.6706 20.307-3.8732 30.902-4.8954-11.979-0.66674-23.523-1.7979-30.902 4.8954z"/>
    <path id="path3625" style="opacity:.4;fill:#000000" d="m389.28 288.66c11.011 20.657 14.766 49.137-10.486 41.967 4.088 6.6712 9.0222 17.217 1.0176 23.47 24.128-3.5622 22.521 32.375 18.938 49.75l-9.3438 79.781c2.348-0.96835 4.5412-2.2807 6.5312-4.0625 23.59-21.121 31.476-88.864 30.875-99.25-0.49863-8.619-7.1197-43.126-18.719-63.844-5.5024-9.828-9.1036-20.085-18.812-27.812z"/>
    <path id="path3640" style="opacity:.4;fill:#000000" d="m441.75 502.38c-3.4426-0.0433-3.5125 3.9414 1.4688 10 12.085 5.5309 18.323 10.929 18.312 17.219 5.7132-5.0975-8.0632-15.397-17.594-19.719-1.3095-1.3054-0.12797-2.7863-1.4375-5l17.625 4.5s-4.4332-4.3311-7.9688-5.5938c-3.6469-0.43385-7.7287-1.3725-10.406-1.4062zm53.25 3.1875c7.0782 3.474 15.528 6.678 21.562 10.5 4.3396-1.5401 12.109-3.6013 5.5-8.7812-0.0922 0.68691-1.6822 2.744-2.0625 3.0312-3.7014 2.7959-25-4.75-25-4.75zm26.812 1.5c0.092 0.0691 0.16304 0.11952 0.25 0.1875 0.0133-0.15275-0.0635-0.22925-0.25-0.1875z"/>
  </g>
  <metadata>
    <rdf:RDF>
      <cc:Work>
        <dc:format>image/svg+xml</dc:format>
        <dc:type rdf:resource="http://purl.org/dc/dcmitype/StillImage"/>
        <cc:license rdf:resource="http://creativecommons.org/licenses/publicdomain/"/>
        <dc:publisher>
          <cc:Agent rdf:about="http://openclipart.org/">
            <dc:title>Openclipart</dc:title>
          </cc:Agent>
        </dc:publisher>
        <dc:title>frog prince</dc:title>
        <dc:date>2011-01-30T12:03:23</dc:date>
        <dc:description>A cartoon frog prince!</dc:description>
        <dc:source>https://openclipart.org/detail/110407/frog-prince-by-tzunghaor</dc:source>
        <dc:creator>
          <cc:Agent>
            <dc:title>tzunghaor</dc:title>
          </cc:Agent>
        </dc:creator>
        <dc:subject>
          <rdf:Bag>
            <rdf:li>animal</rdf:li>
            <rdf:li>fairy tale</rdf:li>
            <rdf:li>frog</rdf:li>
            <rdf:li>frog prince</rdf:li>
            <rdf:li>tale</rdf:li>
          </rdf:Bag>
        </dc:subject>
      </cc:Work>
      <cc:License rdf:about="http://creativecommons.org/licenses/publicdomain/">
        <cc:permits rdf:resource="http://creativecommons.org/ns#Reproduction"/>
        <cc:permits rdf:resource="http://creativecommons.org/ns#Distribution"/>
        <cc:permits rdf:resource="http://creativecommons.org/ns#DerivativeWorks"/>
      </cc:License>
    </rdf:RDF>
  </metadata>
</svg>
