<?xml version="1.0" encoding="UTF-8" standalone="no"?>
<!-- Created with Inkscape (http://www.inkscape.org/) -->
<svg xmlns:rdf="http://www.w3.org/1999/02/22-rdf-syntax-ns#" xmlns="http://www.w3.org/2000/svg" xmlns:cc="http://web.resource.org/cc/" xmlns:dc="http://purl.org/dc/elements/1.1/" xmlns:svg="http://www.w3.org/2000/svg" xmlns:inkscape="http://www.inkscape.org/namespaces/inkscape" xmlns:sodipodi="http://sodipodi.sourceforge.net/DTD/sodipodi-0.dtd" xmlns:ns1="http://sozi.baierouge.fr" xmlns:xlink="http://www.w3.org/1999/xlink" id="svg2" viewBox="0 0 330.48 325.95" version="1.0" inkscape:version="0.91 r13725">
  <path id="path3264" style="fill-rule:evenodd;stroke:#000000;stroke-width:4;fill:#cccccc" d="m227.13 51.998c-1.89-23.292-78.06-85.615-144.79-22.663-66.732 62.952-72.398 33.365-78.693 34.624-6.2953 1.259 6.2658 14.893 23.922 12.59 43.437-5.665 72.395-59.804 112.68-59.175 40.6 0.635 62.33 35.883 62.33 35.883l24.55-1.259z"/>
  <path id="path2407" style="fill-rule:evenodd;fill:#000000;fill-opacity:.31373" d="m140.19 11.188c-18.06 0.208-37.59 7.319-56.284 26.062-17.209 17.257-29.879 27.168-39.344 32.625v1.937c34.528-14.648 60.888-54.981 95.688-54.437 40.6 0.634 62.31 35.875 62.31 35.875l9.44-0.469c-7.28-16.49-36.79-41.998-71.81-41.593z"/>
  <path id="path2383" style="stroke:#000000;stroke-linecap:round;stroke-width:4;fill:#cccccc" d="m317.15 151.46c0 56.99-61.82 161.79-103.24 161.79-42.59 0-103.24-104.8-103.24-161.79 0-56.987 46.25-103.24 103.24-103.24 56.99 0.001 103.24 46.253 103.24 103.24z"/>
  <path id="path3397" style="fill:#000000;fill-opacity:.31373" d="m315.76 134.61c0.25 2.92 0.38 5.86 0.38 8.84 0 56.99-61.8 161.81-103.22 161.81-38.84 0-92.73-87.18-101.91-145.75 5.11 58.25 62.26 153.75 102.91 153.75 41.42 0 103.22-104.82 103.22-161.81 0-5.74-0.48-11.36-1.38-16.84z"/>
  <path id="path2386" style="stroke:#000000;stroke-linecap:round;stroke-width:4;fill:#cccccc" d="m285.67 233.04c24.03-2.36 42.81-22.63 42.81-47.28 0-26.23-21.3-47.53-47.53-47.53-26.24 0-47.53 21.3-47.53 47.53 0 1.85 0.1 3.68 0.31 5.47"/>
  <path id="path2388" style="stroke:#000000;stroke-linecap:round;stroke-width:4;fill:#cccccc" d="m190.85 191.76c0.25-1.96 0.38-3.97 0.38-6 0-26.23-21.26-47.53-47.5-47.53s-47.532 21.3-47.532 47.53c0 25.26 19.712 45.93 44.592 47.44"/>
  <path id="path2390" style="fill:#000000" d="m225.32 291.6c0 6.13-7.33 13.47-11.1 13.47-4.24 0-11.1-7.34-11.1-13.47 0-6.12 4.97-5.43 11.1-5.43s11.1-0.69 11.1 5.43z"/>
  <path id="path2397" style="stroke:#000000;stroke-linecap:round;stroke-width:2;fill:#000000" d="m191.87 250.61c0.01 5.74-3.52 10.39-7.87 10.39-4.34 0-7.87-4.65-7.86-10.39-0.01-5.74 3.52-10.39 7.86-10.39 4.35 0 7.88 4.65 7.87 10.39z"/>
  <path id="path2399" style="stroke:#000000;stroke-linecap:round;stroke-width:2;fill:#000000" d="m248.53 250.61c0 5.74-3.52 10.39-7.87 10.39s-7.87-4.65-7.87-10.39 3.52-10.39 7.87-10.39 7.87 4.65 7.87 10.39z"/>
  <path id="path2401" style="fill:#ffffff" d="m187.15 248.2c0 1.97-0.98 3.56-2.2 3.56s-2.2-1.59-2.2-3.56 0.98-3.57 2.2-3.57 2.2 1.6 2.2 3.57z"/>
  <path id="path2403" style="fill:#ffffff" d="m242.24 249.14c0 1.97-0.99 3.57-2.21 3.57s-2.2-1.6-2.2-3.57 0.98-3.57 2.2-3.57 2.21 1.6 2.21 3.57z"/>
  <path id="path2427" style="fill:#000000;fill-opacity:.31373" d="m281.07 144.98c-17.83 0.25-34.35 14.1-38.62 31.25 8.38-5.51 18.9-8.81 30.31-8.81 22.94 0 42.24 13.27 47.88 31.25 8.97-23.96-11.57-53.86-37.5-53.66-0.69-0.03-1.38-0.04-2.07-0.03z"/>
  <g id="g3221" style="stroke:#000000;stroke-linecap:round;stroke-width:2.8597" transform="matrix(1.3917 0 0 1.4058 -239.25 -659.88)">
    <path id="path2445" style="stroke:#000000;stroke-linecap:round;stroke-width:2.8597;fill:none" d="m340.57 672.76c32.74-15.11 47.84-1.26 47.84-1.26"/>
    <path id="path2447" style="stroke:#000000;stroke-linecap:round;stroke-width:2.8597;fill:none" d="m337.42 678.43c23.93-15.11 44.7 9.44 44.7 9.44"/>
    <path id="path2449" style="stroke:#000000;stroke-linecap:round;stroke-width:2.8597;fill:none" d="m337.42 681.57c25.18-12.59 29.59 18.26 29.59 18.26"/>
  </g>
  <g id="g3384" style="stroke:#000000;stroke-linecap:round;stroke-width:2.8597" transform="matrix(-1.3917 0 0 1.4058 667.06 -659.88)">
    <path id="path3386" style="stroke:#000000;stroke-linecap:round;stroke-width:2.8597;fill:none" d="m340.57 672.76c32.74-15.11 47.84-1.26 47.84-1.26"/>
    <path id="path3388" style="stroke:#000000;stroke-linecap:round;stroke-width:2.8597;fill:none" d="m337.42 678.43c23.93-15.11 44.7 9.44 44.7 9.44"/>
    <path id="path3390" style="stroke:#000000;stroke-linecap:round;stroke-width:2.8597;fill:none" d="m337.42 681.57c25.18-12.59 29.59 18.26 29.59 18.26"/>
  </g>
  <path id="path3405" style="fill:#000000;fill-opacity:.31373" d="m145.56 144.98c17.83 0.25 34.36 14.1 38.62 31.25-8.38-5.51-18.9-8.81-30.31-8.81-22.94 0-42.24 13.27-47.87 31.25-8.977-23.96 11.56-53.86 37.5-53.66 0.69-0.03 1.37-0.04 2.06-0.03z"/>
  <metadata>
    <rdf:RDF>
      <cc:Work>
        <dc:format>image/svg+xml</dc:format>
        <dc:type rdf:resource="http://purl.org/dc/dcmitype/StillImage"/>
        <cc:license rdf:resource="http://creativecommons.org/licenses/publicdomain/"/>
        <dc:publisher>
          <cc:Agent rdf:about="http://openclipart.org/">
            <dc:title>Openclipart</dc:title>
          </cc:Agent>
        </dc:publisher>
        <dc:title>Simple cartoon mouse</dc:title>
        <dc:date>2008-07-04T17:34:18</dc:date>
        <dc:description>A simple cartoon mouse</dc:description>
        <dc:source>https://openclipart.org/detail/17558/simple-cartoon-mouse-by-lemmling</dc:source>
        <dc:creator>
          <cc:Agent>
            <dc:title>lemmling</dc:title>
          </cc:Agent>
        </dc:creator>
        <dc:subject>
          <rdf:Bag>
            <rdf:li>animal</rdf:li>
            <rdf:li>cartoon</rdf:li>
            <rdf:li>colour</rdf:li>
            <rdf:li>how i did it</rdf:li>
            <rdf:li>mammal</rdf:li>
            <rdf:li>mouse</rdf:li>
          </rdf:Bag>
        </dc:subject>
      </cc:Work>
      <cc:License rdf:about="http://creativecommons.org/licenses/publicdomain/">
        <cc:permits rdf:resource="http://creativecommons.org/ns#Reproduction"/>
        <cc:permits rdf:resource="http://creativecommons.org/ns#Distribution"/>
        <cc:permits rdf:resource="http://creativecommons.org/ns#DerivativeWorks"/>
      </cc:License>
    </rdf:RDF>
  </metadata>
</svg>
