<?xml version="1.0" encoding="UTF-8" standalone="no"?>
<svg width="47px" height="53px" viewBox="0 0 47 53" version="1.1" xmlns="http://www.w3.org/2000/svg" xmlns:xlink="http://www.w3.org/1999/xlink">
    <!-- Generator: Sketch 39.1 (31720) - http://www.bohemiancoding.com/sketch -->
    <title>Slice 1</title>
    <desc>Created with Sketch.</desc>
    <defs></defs>
    <g id="Page-1" stroke="none" stroke-width="1" fill="none" fill-rule="evenodd">
        <g id="Shape" fill="#E89D69">
            <path d="M0,24.9229556 C0,32.0290778 2.7606625,38.7106111 7.7738,43.7350111 L10.28125,46.2483889 L10.28125,43.0189222 C12.0772375,44.2479333 14.051825,45.2307889 16.15625,45.9262667 L16.15625,47.7948111 L12.4038875,50.3023 L14.033025,52.7520778 L17.625,50.3523556 L21.2163875,52.7526667 L22.845525,50.3028889 L19.09375,47.7954 L19.09375,46.6894667 C20.5219625,46.9627111 21.99365,47.1111111 23.5,47.1111111 C25.00635,47.1111111 26.4780375,46.9627111 27.90625,46.6900556 L27.90625,47.7959889 L24.1538875,50.3034778 L25.783025,52.7532556 L29.375,50.3523556 L32.9663875,52.7526667 L34.595525,50.3028889 L30.84375,47.7954 L30.84375,45.9268556 C32.948175,45.2307889 34.9227625,44.2485222 36.71875,43.0195111 L36.71875,46.2483889 L39.2262,43.7350111 C44.2393375,38.7106111 47,32.0296667 47,24.9229556 C47,21.7812333 46.775575,18.5070111 45.62525,15.6232222 C44.2816375,11.8702333 42.0133,8.55655556 39.09695,5.95661111 C38.508275,5.00673333 38.1875,3.91198889 38.1875,2.76601111 L38.1875,0 L35.25,0 L35.25,2.76601111 C35.25,2.90557778 35.2641,3.0422 35.269975,3.18058889 C31.806075,1.16246667 27.7869875,0 23.5,0 C19.2130125,0 15.193925,1.16246667 11.730025,3.18058889 C11.7359,3.0422 11.75,2.90557778 11.75,2.76601111 L11.75,0 L8.8125,0 L8.8125,2.76601111 C8.8125,3.91257778 8.491725,5.00732222 7.90305,5.95661111 C4.9867,8.55655556 2.7183625,11.8696444 1.37475,15.6226333 C1.21965,15.9983444 1.1233,16.3534444 1.01755,16.7014778 C0.1991625,19.398 0,22.1227889 0,24.9229556 Z M44.0625,23.5555556 L44.0625,24.9229556 C44.0625,29.9344 42.51855,34.7085222 39.65625,38.6982444 L39.65625,32.4937111 C39.65625,27.8049778 41.0545,23.2251889 43.6330375,19.3520667 C43.9185625,20.7288889 44.0625,22.1345667 44.0625,23.5555556 L44.0625,23.5555556 L44.0625,23.5555556 Z M23.5,4.41666667 C31.82135,4.41666667 38.912475,9.78203333 41.520975,17.2414889 C38.4131,21.6952556 36.71875,27.0264667 36.71875,32.4937111 L36.71875,37.3467444 C33.2854,40.6545333 28.6271125,42.6944444 23.5,42.6944444 C18.3728875,42.6944444 13.7146,40.6545333 10.28125,37.3467444 L10.28125,32.4937111 C10.28125,27.0270556 8.5863125,21.6952556 5.479025,17.2420778 C8.087525,9.78203333 15.17865,4.41666667 23.5,4.41666667 L23.5,4.41666667 L23.5,4.41666667 Z M2.9375,23.5555556 C2.9375,22.1345667 3.0814375,20.7288889 3.3669625,19.3520667 C5.9455,23.2246 7.34375,27.8043889 7.34375,32.4937111 L7.34375,38.6988333 C4.48145,34.7085222 2.9375,29.9349889 2.9375,24.9229556 L2.9375,23.5555556 L2.9375,23.5555556 L2.9375,23.5555556 Z"></path>
            <path d="M13.21875,20.6111111 C13.21875,18.9875444 14.5365125,17.6666667 16.15625,17.6666667 C17.7759875,17.6666667 19.09375,18.9875444 19.09375,20.6111111 L20.5625,20.6111111 L22.03125,20.6111111 C22.03125,17.3639778 19.395725,14.7222222 16.15625,14.7222222 C12.916775,14.7222222 10.28125,17.3639778 10.28125,20.6111111 L11.75,20.6111111 L13.21875,20.6111111 L13.21875,20.6111111 L13.21875,20.6111111 Z"></path>
            <path d="M27.90625,20.6111111 C27.90625,18.9875444 29.2240125,17.6666667 30.84375,17.6666667 C32.4634875,17.6666667 33.78125,18.9875444 33.78125,20.6111111 L35.25,20.6111111 L36.71875,20.6111111 C36.71875,17.3639778 34.083225,14.7222222 30.84375,14.7222222 C27.604275,14.7222222 24.96875,17.3639778 24.96875,20.6111111 L26.4375,20.6111111 L27.90625,20.6111111 L27.90625,20.6111111 L27.90625,20.6111111 Z"></path>
            <polygon points="19.2870375 26.4941111 23.5 33.8840778 27.7129625 26.4941111 25.1620375 25.0336667 23.5 27.9492556 21.8379625 25.0336667"></polygon>
        </g>
    </g>
</svg>