<?xml version="1.0" encoding="iso-8859-1"?>
<!-- Generator: Adobe Illustrator 19.0.0, SVG Export Plug-In . SVG Version: 6.00 Build 0)  -->
<svg version="1.1" id="Layer_1" xmlns="http://www.w3.org/2000/svg" xmlns:xlink="http://www.w3.org/1999/xlink" x="0px" y="0px"
	 viewBox="0 0 512 512" style="enable-background:new 0 0 512 512;" xml:space="preserve">
<rect x="229.517" y="141.241" style="fill:#4A6979;" width="52.966" height="370.759"/>
<rect x="229.517" y="141.241" style="fill:#3B546A;" width="17.655" height="370.759"/>
<polygon style="fill:#2C3442;" points="256,17.655 220.69,150.069 291.31,150.069 "/>
<g>
	<polygon style="fill:#292934;" points="256,17.655 220.69,150.069 247.172,150.069 	"/>
	<path style="fill:#292934;" d="M295.724,0C278.137,0,272.966,8.828,256,8.828v17.655c16.966,0,22.137-8.828,39.724-8.828
		c5.601,0,9.982,1.643,13.241,3.502l-6.207-10.951l6.207-6.705C305.706,1.643,301.325,0,295.724,0z"/>
</g>
<rect x="176.552" y="203.034" style="fill:#4A6979;" width="52.966" height="308.966"/>
<g>
	<path style="fill:#292934;" d="M211.862,256h-17.655v-17.655c0-4.875,3.953-8.828,8.828-8.828l0,0c4.875,0,8.828,3.953,8.828,8.828
		V256z"/>
	<path style="fill:#292934;" d="M211.862,300.138h-17.655v-17.655c0-4.875,3.953-8.828,8.828-8.828l0,0
		c4.875,0,8.828,3.953,8.828,8.828V300.138z"/>
</g>
<path style="fill:#A63F0D;" d="M211.862,406.069h-17.655V380.69c0-0.609,0.494-1.103,1.103-1.103h15.448
	c0.609,0,1.103,0.494,1.103,1.103V406.069z"/>
<rect x="176.552" y="203.034" style="fill:#3B546A;" width="17.655" height="308.966"/>
<polygon style="fill:#2C3442;" points="203.034,79.448 167.724,211.862 238.345,211.862 "/>
<g>
	<polygon style="fill:#292934;" points="203.034,79.448 167.724,211.862 194.207,211.862 	"/>
	<path style="fill:#292934;" d="M242.759,61.793c-17.587,0-22.759,8.828-39.724,8.828v17.655c16.966,0,22.137-8.828,39.724-8.828
		c5.601,0,9.982,1.643,13.241,3.502L249.793,72L256,65.295C252.74,63.436,248.36,61.793,242.759,61.793z"/>
</g>
<rect x="282.483" y="264.828" style="fill:#4A6979;" width="52.966" height="247.172"/>
<rect x="282.483" y="264.828" style="fill:#3B546A;" width="17.655" height="247.172"/>
<polygon style="fill:#2C3442;" points="308.966,141.241 273.655,273.655 344.276,273.655 "/>
<g>
	<polygon style="fill:#292934;" points="308.966,141.241 273.655,273.655 300.138,273.655 	"/>
	<path style="fill:#292934;" d="M348.69,123.586c-17.587,0-22.759,8.828-39.724,8.828v17.655c16.966,0,22.137-8.828,39.724-8.828
		c5.601,0,9.982,1.643,13.241,3.502l-6.207-10.951l6.207-6.705C358.671,125.229,354.291,123.586,348.69,123.586z"/>
</g>
<g>
	<rect x="141.241" y="423.724" style="fill:#2F3F50;" width="229.517" height="88.276"/>
	<rect x="211.862" y="388.414" style="fill:#2F3F50;" width="88.276" height="114.759"/>
</g>
<polygon style="fill:#2C3442;" points="158.897,450.207 141.241,467.862 123.586,450.207 123.586,406.069 158.897,406.069 "/>
<polygon style="fill:#292934;" points="123.586,406.069 123.586,450.207 132.414,459.034 132.414,406.069 "/>
<polygon style="fill:#2C3442;" points="229.517,414.897 211.862,432.552 194.207,414.897 194.207,370.759 229.517,370.759 "/>
<polygon style="fill:#292934;" points="194.207,370.759 194.207,414.897 203.034,423.724 203.034,370.759 "/>
<polygon style="fill:#2C3442;" points="317.793,414.897 300.138,432.552 282.483,414.897 282.483,370.759 317.793,370.759 "/>
<polygon style="fill:#292934;" points="282.483,370.759 282.483,414.897 291.31,423.724 291.31,370.759 "/>
<polygon style="fill:#2C3442;" points="388.414,450.207 370.759,467.862 353.103,450.207 353.103,406.069 388.414,406.069 "/>
<polygon style="fill:#292934;" points="353.103,406.069 353.103,450.207 361.931,459.034 361.931,406.069 "/>
<rect x="141.241" y="494.345" style="fill:#2C3442;" width="229.517" height="17.655"/>
<g>
	<path style="fill:#292934;" d="M256,432.552L256,432.552c-19.501,0-35.31,15.809-35.31,35.31V512h70.621v-44.138
		C291.31,448.361,275.501,432.552,256,432.552z"/>
	<path style="fill:#292934;" d="M264.828,194.207h-17.655v-17.655c0-4.875,3.953-8.828,8.828-8.828l0,0
		c4.875,0,8.828,3.953,8.828,8.828V194.207z"/>
	<path style="fill:#292934;" d="M264.828,238.345h-17.655V220.69c0-4.875,3.953-8.828,8.828-8.828l0,0
		c4.875,0,8.828,3.953,8.828,8.828V238.345z"/>
	<path style="fill:#292934;" d="M264.828,344.276h-17.655v-17.655c0-4.875,3.953-8.828,8.828-8.828l0,0
		c4.875,0,8.828,3.953,8.828,8.828V344.276z"/>
	<path style="fill:#292934;" d="M317.793,317.793h-17.655v-17.655c0-4.875,3.953-8.828,8.828-8.828l0,0
		c4.875,0,8.828,3.953,8.828,8.828V317.793z"/>
	<path style="fill:#292934;" d="M317.793,361.931h-17.655v-17.655c0-4.875,3.953-8.828,8.828-8.828l0,0
		c4.875,0,8.828,3.953,8.828,8.828V361.931z"/>
	<path style="fill:#292934;" d="M203.034,512h-17.655l0,0c0-4.875,3.953-8.828,8.828-8.828l0,0
		C199.082,503.172,203.034,507.125,203.034,512L203.034,512z"/>
	<path style="fill:#292934;" d="M326.621,512h-17.655l0,0c0-4.875,3.953-8.828,8.828-8.828l0,0
		C322.668,503.172,326.621,507.125,326.621,512L326.621,512z"/>
	<path style="fill:#292934;" d="M353.103,512h-17.655l0,0c0-4.875,3.953-8.828,8.828-8.828l0,0
		C349.151,503.172,353.103,507.125,353.103,512L353.103,512z"/>
	<path style="fill:#292934;" d="M176.552,512h-17.655l0,0c0-4.875,3.953-8.828,8.828-8.828l0,0
		C172.599,503.172,176.552,507.125,176.552,512L176.552,512z"/>
</g>
<g>
</g>
<g>
</g>
<g>
</g>
<g>
</g>
<g>
</g>
<g>
</g>
<g>
</g>
<g>
</g>
<g>
</g>
<g>
</g>
<g>
</g>
<g>
</g>
<g>
</g>
<g>
</g>
<g>
</g>
</svg>
