<?xml version="1.0" encoding="iso-8859-1"?>
<!-- Generator: Adobe Illustrator 19.0.0, SVG Export Plug-In . SVG Version: 6.00 Build 0)  -->
<svg version="1.1" id="Layer_1" xmlns="http://www.w3.org/2000/svg" xmlns:xlink="http://www.w3.org/1999/xlink" x="0px" y="0px"
	 viewBox="0 0 512 512" style="enable-background:new 0 0 512 512;" xml:space="preserve">
<path style="fill:#54546F;" d="M494.089,52.966h0.256v-35.31H17.656v35.31h0.285c10.487,0,17.38,11.172,12.415,20.409
	C9.307,112.529-1.873,157.766,0.259,205.812C6.003,335.307,110.58,441.831,239.963,449.717C388.615,458.779,512,340.902,512,194.207
	c0-43.526-10.911-84.478-30.095-120.349C476.849,64.403,483.367,52.966,494.089,52.966z"/>
<path style="fill:#444460;" d="M141.433,205.812c-1.58-48.046,6.709-93.283,22.313-132.437c3.682-9.237-1.429-20.409-9.204-20.409
	h-0.211v-35.31H17.656v35.31h0.284c10.487,0,17.38,11.172,12.415,20.409C9.307,112.529-1.873,157.766,0.258,205.812
	c5.745,129.495,110.322,236.02,239.704,243.906c20.254,1.235,40.012,0.036,59.08-3.194
	C212.605,426.549,145.39,326.121,141.433,205.812z"/>
<path style="fill:#6E6E88;" d="M494.345,52.966H17.656c-9.75,0-17.655-7.904-17.655-17.655l0,0c0-9.751,7.904-17.655,17.655-17.655
	h476.69c9.751,0,17.655,7.904,17.655,17.655l0,0C512,45.062,504.096,52.966,494.345,52.966z"/>
<path style="fill:#54546F;" d="M200.828,52.966H17.656c-9.75,0-17.655-7.904-17.655-17.655l0,0c0-9.751,7.904-17.655,17.655-17.655
	h183.172c1.219,0,2.207,0.988,2.207,2.207v30.897C203.035,51.978,202.047,52.966,200.828,52.966z"/>
<circle style="fill:#6E6E88;" cx="388.414" cy="176.552" r="70.621"/>
<path style="fill:#23233A;" d="M256,512L256,512c-4.875,0-8.828-3.953-8.828-8.828v-70.621c0-4.875,3.953-8.828,8.828-8.828l0,0
	c4.875,0,8.828,3.953,8.828,8.828v70.621C264.828,508.048,260.876,512,256,512z"/>
<g>
	<path style="fill:#393950;" d="M256,512L256,512c-4.875,0-8.828-3.953-8.828-8.828v-35.31c0-4.875,3.953-8.828,8.828-8.828l0,0
		c4.875,0,8.828,3.953,8.828,8.828v35.31C264.828,508.048,260.876,512,256,512z"/>
	<path style="fill:#393950;" d="M406.069,459.035c-3.112,0-6.053,0.636-8.828,1.622v-36.932h-17.655v61.793
		c0,14.626,11.857,26.483,26.483,26.483c14.626,0,26.483-11.857,26.483-26.483S420.696,459.035,406.069,459.035z"/>
</g>
<path style="fill:#23233A;" d="M105.932,459.035c3.112,0,6.054,0.636,8.828,1.622v-36.932h17.655v61.793
	c0,14.626-11.857,26.483-26.483,26.483s-26.483-11.857-26.483-26.483S91.305,459.035,105.932,459.035z"/>
<g>
	<rect x="141.242" y="0" style="fill:#52C874;" width="123.586" height="17.655"/>
	<path style="fill:#52C874;" d="M150.069,0H97.104c-9.751,0-17.655,7.904-17.655,17.655v34.366c0,8.794,6.009,16.947,14.69,18.358
		c11.061,1.8,20.62-6.691,20.62-17.414v-8.828c0-4.875,3.953-8.828,8.828-8.828l0,0c4.875,0,8.828,3.953,8.828,8.828v69.676
		c0,8.794,6.009,16.947,14.69,18.358c11.061,1.8,20.62-6.691,20.62-17.414V17.655C167.725,7.904,159.821,0,150.069,0z"/>
</g>
<g>
	<path style="fill:#79E44F;" d="M361.932,0H256c-9.751,0-17.655,7.904-17.655,17.655v237.4c0,8.794,6.009,16.947,14.69,18.358
		c11.061,1.8,20.62-6.691,20.62-17.414V61.793c0-4.875,3.953-8.828,8.828-8.828l0,0c4.875,0,8.828,3.953,8.828,8.828v34.366
		c0,8.794,6.009,16.947,14.69,18.358c11.061,1.8,20.62-6.691,20.62-17.414v-8.828c0-4.875,3.953-8.828,8.828-8.828l0,0
		c4.875,0,8.828,3.953,8.828,8.828v60.849c0,8.794,6.009,16.947,14.69,18.358c11.061,1.8,20.62-6.691,20.62-17.414V17.655
		C379.587,7.904,371.683,0,361.932,0z"/>
	<path style="fill:#79E44F;" d="M432.552,17.655h-70.621V0h52.966C424.648,0,432.552,7.904,432.552,17.655L432.552,17.655z"/>
</g>
<path style="fill:#393950;" d="M406.069,432.552H105.932c-9.751,0-17.655-7.904-17.655-17.655l0,0
	c0-9.751,7.904-17.655,17.655-17.655h300.138c9.751,0,17.655,7.904,17.655,17.655l0,0
	C423.725,424.648,415.821,432.552,406.069,432.552z"/>
<path style="fill:#23233A;" d="M203.035,432.552h-97.103c-9.751,0-17.655-7.904-17.655-17.655l0,0
	c0-9.751,7.904-17.655,17.655-17.655h97.103c9.751,0,17.655,7.904,17.655,17.655l0,0
	C220.69,424.648,212.786,432.552,203.035,432.552z"/>
<g>
</g>
<g>
</g>
<g>
</g>
<g>
</g>
<g>
</g>
<g>
</g>
<g>
</g>
<g>
</g>
<g>
</g>
<g>
</g>
<g>
</g>
<g>
</g>
<g>
</g>
<g>
</g>
<g>
</g>
</svg>
