<?xml version="1.0" encoding="iso-8859-1"?>
<!-- Generator: Adobe Illustrator 19.0.0, SVG Export Plug-In . SVG Version: 6.00 Build 0)  -->
<svg version="1.1" id="Layer_1" xmlns="http://www.w3.org/2000/svg" xmlns:xlink="http://www.w3.org/1999/xlink" x="0px" y="0px"
	 viewBox="0 0 512 512" style="enable-background:new 0 0 512 512;" xml:space="preserve">
<rect x="97.103" y="379.586" style="fill:#FFC83C;" width="317.793" height="52.966"/>
<rect x="344.276" y="379.586" style="fill:#FFE159;" width="70.621" height="52.966"/>
<rect x="97.103" y="379.586" style="fill:#FFB432;" width="70.621" height="52.966"/>
<g>
	<path style="fill:#FFE159;" d="M414.897,379.586H97.103c-4.875,0-8.828-3.953-8.828-8.828l0,0c0-4.875,3.953-8.828,8.828-8.828
		h317.793c4.875,0,8.828,3.953,8.828,8.828l0,0C423.724,375.634,419.772,379.586,414.897,379.586z"/>
	<path style="fill:#FFE159;" d="M414.897,450.207H97.103c-4.875,0-8.828-3.953-8.828-8.828l0,0c0-4.875,3.953-8.828,8.828-8.828
		h317.793c4.875,0,8.828,3.953,8.828,8.828l0,0C423.724,446.254,419.772,450.207,414.897,450.207z"/>
</g>
<polygon style="fill:#FFC83C;" points="414.897,361.931 97.103,361.931 26.483,167.724 158.897,238.345 256,97.103 353.103,238.345 
	485.517,167.724 "/>
<polygon style="fill:#FFB432;" points="158.897,238.345 26.483,167.724 97.103,361.931 256,361.931 256,97.103 "/>
<g>
	<circle style="fill:#FFE159;" cx="256" cy="300.138" r="44.138"/>
	<circle style="fill:#FFE159;" cx="339.862" cy="313.379" r="30.897"/>
	<circle style="fill:#FFE159;" cx="256" cy="406.069" r="8.828"/>
	<circle style="fill:#FFE159;" cx="291.31" cy="406.069" r="8.828"/>
	<circle style="fill:#FFE159;" cx="220.69" cy="406.069" r="8.828"/>
</g>
<g>
	<circle style="fill:#FFFF95;" cx="361.931" cy="406.069" r="8.828"/>
	<circle style="fill:#FFFF95;" cx="397.241" cy="406.069" r="8.828"/>
</g>
<circle style="fill:#FFE159;" cx="326.621" cy="406.069" r="8.828"/>
<circle style="fill:#FFC83C;" cx="150.069" cy="406.069" r="8.828"/>
<circle style="fill:#FFE159;" cx="185.379" cy="406.069" r="8.828"/>
<circle style="fill:#FFC83C;" cx="114.759" cy="406.069" r="8.828"/>
<circle style="fill:#79E44F;" cx="339.862" cy="313.379" r="13.241"/>
<circle style="fill:#FFC83C;" cx="172.138" cy="313.379" r="30.897"/>
<circle style="fill:#79E44F;" cx="172.138" cy="313.379" r="13.241"/>
<g>
	<path style="fill:#FFC83C;" d="M203.034,379.586H97.103c-4.875,0-8.828-3.953-8.828-8.828l0,0c0-4.875,3.953-8.828,8.828-8.828
		h105.931c4.875,0,8.828,3.953,8.828,8.828l0,0C211.862,375.634,207.91,379.586,203.034,379.586z"/>
	<path style="fill:#FFC83C;" d="M203.034,450.207H97.103c-4.875,0-8.828-3.953-8.828-8.828l0,0c0-4.875,3.953-8.828,8.828-8.828
		h105.931c4.875,0,8.828,3.953,8.828,8.828l0,0C211.862,446.254,207.91,450.207,203.034,450.207z"/>
</g>
<g>
	<path style="fill:#FFFF95;" d="M379.586,379.586h-35.31c-4.875,0-8.828-3.953-8.828-8.828l0,0c0-4.875,3.953-8.828,8.828-8.828
		h35.31c4.875,0,8.828,3.953,8.828,8.828l0,0C388.414,375.634,384.461,379.586,379.586,379.586z"/>
	<path style="fill:#FFFF95;" d="M379.586,450.207h-35.31c-4.875,0-8.828-3.953-8.828-8.828l0,0c0-4.875,3.953-8.828,8.828-8.828
		h35.31c4.875,0,8.828,3.953,8.828,8.828l0,0C388.414,446.254,384.461,450.207,379.586,450.207z"/>
</g>
<path style="fill:#FFC83C;" d="M211.862,300.138c0,24.376,19.762,44.138,44.138,44.138V256
	C231.624,256,211.862,275.762,211.862,300.138z"/>
<circle style="fill:#FF5A4E;" cx="256" cy="300.138" r="26.483"/>
<circle style="fill:#FFC389;" cx="262.621" cy="293.517" r="11.034"/>
<polygon style="fill:#FFC83C;" points="150.589,253.923 164.508,261.346 173.446,248.346 256,128.267 338.554,248.346 
	347.492,261.346 361.411,253.923 476.49,192.547 485.517,167.724 353.103,238.345 256,97.103 158.897,238.345 26.483,167.724 
	35.51,192.547 "/>
<g>
	<polygon style="fill:#FFE159;" points="338.554,248.346 347.492,261.346 361.411,253.923 476.49,192.547 485.517,167.724 
		353.103,238.345 256,97.103 256,128.267 	"/>
	<circle style="fill:#FFE159;" cx="256" cy="88.276" r="26.483"/>
</g>
<circle style="fill:#FFC83C;" cx="26.483" cy="167.724" r="26.483"/>
<circle style="fill:#FFE159;" cx="35.31" cy="167.724" r="17.655"/>
<circle style="fill:#FFFF95;" cx="264.828" cy="88.276" r="17.655"/>
<circle style="fill:#FFE159;" cx="485.517" cy="167.724" r="26.483"/>
<circle style="fill:#FFFF95;" cx="494.345" cy="167.724" r="17.655"/>
<g>
</g>
<g>
</g>
<g>
</g>
<g>
</g>
<g>
</g>
<g>
</g>
<g>
</g>
<g>
</g>
<g>
</g>
<g>
</g>
<g>
</g>
<g>
</g>
<g>
</g>
<g>
</g>
<g>
</g>
</svg>
