<?xml version="1.0" encoding="iso-8859-1"?>
<!-- Generator: Adobe Illustrator 19.0.0, SVG Export Plug-In . SVG Version: 6.00 Build 0)  -->
<svg version="1.1" id="Layer_1" xmlns="http://www.w3.org/2000/svg" xmlns:xlink="http://www.w3.org/1999/xlink" x="0px" y="0px"
	 viewBox="0 0 512 512" style="enable-background:new 0 0 512 512;" xml:space="preserve">
<path id="SVGCleanerId_0" style="fill:#FAE6A7;" d="M273.655,273.655c66.207,0,220.69,26.483,220.69,26.483
	C500.23,291.31,512,264.092,512,238.345c0-25.747-11.77-52.966-17.655-61.793c0,0-154.483,26.483-220.69,26.483V273.655z"/>
<g>
	<path id="SVGCleanerId_0_1_" style="fill:#FAE6A7;" d="M273.655,273.655c66.207,0,220.69,26.483,220.69,26.483
		C500.23,291.31,512,264.092,512,238.345c0-25.747-11.77-52.966-17.655-61.793c0,0-154.483,26.483-220.69,26.483V273.655z"/>
</g>
<path style="fill:#EBD798;" d="M494.345,300.138c0,0-154.483-26.483-220.69-26.483v-15.133c59.317,0,178.369,8.643,232.972,12.865
	C502.74,284.387,497.642,295.192,494.345,300.138z"/>
<path style="fill:#FFF4CB;" d="M494.345,176.552c3.297,4.946,8.395,15.751,12.283,28.75
	c-54.603,4.222-173.655,12.865-232.972,12.865v-15.133C339.862,203.034,494.345,176.552,494.345,176.552z"/>
<path id="SVGCleanerId_1" style="fill:#FAE6A7;" d="M238.345,273.655c-66.207,0-220.69,26.483-220.69,26.483
	C11.77,291.31,0,264.092,0,238.345c0-25.747,11.77-52.966,17.655-61.793c0,0,154.483,26.483,220.69,26.483V273.655z"/>
<g>
	<path id="SVGCleanerId_1_1_" style="fill:#FAE6A7;" d="M238.345,273.655c-66.207,0-220.69,26.483-220.69,26.483
		C11.77,291.31,0,264.092,0,238.345c0-25.747,11.77-52.966,17.655-61.793c0,0,154.483,26.483,220.69,26.483V273.655z"/>
</g>
<path style="fill:#EBD798;" d="M17.655,300.138c0,0,154.483-26.483,220.69-26.483v-15.133c-59.317,0-178.369,8.643-232.972,12.865
	C9.26,284.387,14.358,295.192,17.655,300.138z"/>
<path style="fill:#FFF4CB;" d="M17.655,176.552c-3.297,4.946-8.395,15.751-12.282,28.75c54.603,4.222,173.655,12.865,232.972,12.865
	v-15.133C172.138,203.034,17.655,176.552,17.655,176.552z"/>
<rect x="238.345" y="203.034" style="fill:#F8392E;" width="35.31" height="70.621"/>
<g>
	<path style="fill:#FF5A4E;" d="M220.866,317.815l-0.007-0.001c-4.968-0.633-8.418-5.274-7.597-10.216
		c9.126-54.897,34.449-90.507,35.577-92.073l14.327,10.319c-0.254,0.352-24.024,33.966-32.484,84.664
		C229.903,315.187,225.57,318.415,220.866,317.815z"/>
	<path style="fill:#FF5A4E;" d="M291.108,335.448h-0.003c-4.721,0-8.6-3.719-8.811-8.434
		c-2.684-59.82-33.002-100.564-33.323-100.984l14.051-10.69c1.45,1.899,34.035,45.411,36.914,110.883
		C300.156,331.247,296.138,335.448,291.108,335.448z"/>
</g>
<circle style="fill:#F8392E;" cx="256" cy="220.69" r="35.31"/>
<circle style="fill:#FF5A4E;" cx="256" cy="220.69" r="17.655"/>
<g>
</g>
<g>
</g>
<g>
</g>
<g>
</g>
<g>
</g>
<g>
</g>
<g>
</g>
<g>
</g>
<g>
</g>
<g>
</g>
<g>
</g>
<g>
</g>
<g>
</g>
<g>
</g>
<g>
</g>
</svg>
