<?xml version="1.0" encoding="iso-8859-1"?>
<!-- Generator: Adobe Illustrator 19.0.0, SVG Export Plug-In . SVG Version: 6.00 Build 0)  -->
<svg version="1.1" id="Layer_1" xmlns="http://www.w3.org/2000/svg" xmlns:xlink="http://www.w3.org/1999/xlink" x="0px" y="0px"
	 viewBox="0 0 512 512" style="enable-background:new 0 0 512 512;" xml:space="preserve">
<g>
	<path style="fill:#479100;" d="M238.345,70.621c0,0-44.69-8.276-61.793-70.621c0,0-5.517,61.241,17.655,97.103
		s17.655,26.483,17.655,26.483L238.345,70.621z"/>
	<path style="fill:#479100;" d="M273.655,70.621c0,0,44.69-8.276,61.793-70.621c0,0,5.517,61.241-17.655,97.103
		c-23.172,35.862-17.655,26.483-17.655,26.483L273.655,70.621z"/>
</g>
<path style="fill:#68A600;" d="M229.517,300.138l-44.138-97.103L52.966,52.966c0,0-52.966,80.184-52.966,282.483
	c0,0,39.724-68.966,105.931-79.448c0.726-0.115-11.77,25.012-8.828,61.793c0,0,47.816-61.793,114.759-8.828
	c20.664,16.35,15.77,12.565,15.77,12.565L229.517,300.138z"/>
<g>
	<path style="fill:#479100;" d="M105.931,256c28.69-66.943-35.31-132.414-35.31-132.414C18.391,168.459,0,335.448,0,335.448
		S39.724,266.483,105.931,256z"/>
	<path style="fill:#479100;" d="M158.897,238.345c-46.867,10.311-61.793,79.448-61.793,79.448s47.816-61.793,114.759-8.828V291.31
		C211.862,291.31,186.483,232.276,158.897,238.345z"/>
</g>
<path style="fill:#68A600;" d="M282.483,300.138l44.138-97.103L459.034,52.966c0,0,52.966,80.184,52.966,282.483
	c0,0-39.724-68.966-105.931-79.448c-0.726-0.115,11.77,25.012,8.828,61.793c0,0-47.816-61.793-114.759-8.828
	c-20.664,16.35-15.77,12.565-15.77,12.565L282.483,300.138z"/>
<g>
	<path style="fill:#479100;" d="M406.069,256c-28.69-66.943,35.31-132.414,35.31-132.414C493.609,168.459,512,335.448,512,335.448
		S472.276,266.483,406.069,256z"/>
	<path style="fill:#479100;" d="M353.103,238.345c46.867,10.311,61.793,79.448,61.793,79.448S367.081,256,300.138,308.966V291.31
		C300.138,291.31,325.517,232.276,353.103,238.345z"/>
</g>
<path style="fill:#82BE00;" d="M309.459,467.862h17.162l-35.31-264.828H256h-35.31l-35.31,264.828h17.162
	c10.689,10.545,30.6,17.655,53.459,17.655S298.77,478.407,309.459,467.862z"/>
<path style="fill:#75B200;" d="M247.882,485.203c-25.72-49.336-7.33-260.099-7.33-260.099l-7.05-22.069H220.69l-35.31,264.828
	h17.162C211.943,477.135,228.482,483.744,247.882,485.203z"/>
<g>
	<path style="fill:#68A600;" d="M264.828,61.793h-17.655c-28.056,0-50.913,21.843-52.742,49.436
		c2.948,2.924,5.548,6.196,7.726,9.575c6.466,10.029,7.022,22.712,4.449,34.012c-0.952,4.181-2.932,8.343-5.514,12.196
		c4.659,8.295,11.366,15.284,19.596,20.052v15.971c0,19.501,15.809,35.31,35.31,35.31s35.31-15.809,35.31-35.31v-15.972
		c7.066-4.094,12.999-9.843,17.512-16.616c-3.519-6.59-5.41-14.072-5.742-21.482c-0.492-10.996,5.272-23.555,12.928-31.21
		c0.536-0.535,1.216-0.939,1.785-1.447v-1.549C317.793,85.506,294.08,61.793,264.828,61.793z"/>
	<path style="fill:#68A600;" d="M220.69,187.062c0,0-20.966-4.441-52.966-45.821h44.138L220.69,187.062z"/>
	<path style="fill:#68A600;" d="M211.862,142.924c0,0-20.966-4.441-52.966-45.821h44.138L211.862,142.924z"/>
	<path style="fill:#68A600;" d="M291.31,187.062c0,0,20.966-4.441,52.966-45.821h-44.138L291.31,187.062z"/>
	<path style="fill:#68A600;" d="M300.138,142.924c0,0,20.966-4.441,52.966-45.821h-44.138L300.138,142.924z"/>
</g>
<path style="fill:#FFC83C;" d="M284.367,321.53c-1.201-8.002-5.724-15.125-12.456-19.612c-9.635-6.423-22.188-6.423-31.823,0
	c-6.732,4.487-11.255,11.609-12.456,19.612l-22.307,148.713c11.149,9.196,29.613,15.274,50.675,15.274s39.526-6.078,50.675-15.275
	L284.367,321.53z"/>
<path style="fill:#68A600;" d="M326.328,353.103L326.328,353.103c13.78,0,24.052,12.706,21.165,26.18l-20.873,106.233l25.032-5.006
	c11.674-2.335,23.654,2.241,30.796,11.766L397.241,512H286.397c-4.702,0-7.057-5.685-3.732-9.01l8.646-8.646l13.889-124.291
	C307.4,360.15,316.183,353.103,326.328,353.103z"/>
<path style="fill:#FFC83C;" d="M233.931,145.655L233.931,145.655c-2.438,0-4.414-1.976-4.414-4.414v-4.414
	c0-2.438,1.976-4.414,4.414-4.414l0,0c2.438,0,4.414,1.976,4.414,4.414v4.414C238.345,143.679,236.369,145.655,233.931,145.655z"/>
<path style="fill:#479100;" d="M247.172,216.276L247.172,216.276c-2.438,0-4.414-1.976-4.414-4.414v-4.414
	c0-2.438,1.976-4.414,4.414-4.414l0,0c2.438,0,4.414,1.976,4.414,4.414v4.414C251.586,214.3,249.61,216.276,247.172,216.276z"/>
<path style="fill:#FFC83C;" d="M278.069,145.655L278.069,145.655c-2.438,0-4.414-1.976-4.414-4.414v-4.414
	c0-2.438,1.976-4.414,4.414-4.414l0,0c2.438,0,4.414,1.976,4.414,4.414v4.414C282.483,143.679,280.506,145.655,278.069,145.655z"/>
<path style="fill:#479100;" d="M264.828,216.276L264.828,216.276c-2.438,0-4.414-1.976-4.414-4.414v-4.414
	c0-2.438,1.976-4.414,4.414-4.414l0,0c2.438,0,4.414,1.976,4.414,4.414v4.414C269.241,214.3,267.265,216.276,264.828,216.276z"/>
<path style="fill:#FFB432;" d="M235.592,305.65c-4.23,4.288-7.051,9.826-7.959,15.881l-22.307,148.713
	c6.937,5.724,16.713,10.233,28.179,12.829c0.055,0.012,0.107,0.028,0.162,0.041c2.095,0.47,4.263,0.856,6.464,1.194
	c1.45,0.221,2.944,0.372,4.435,0.532c1.106,0.119,2.189,0.276,3.316,0.362C232.7,456.073,232.889,370.716,235.592,305.65z"/>
<path style="fill:#68A600;" d="M185.672,353.103L185.672,353.103c-13.78,0-24.052,12.706-21.165,26.18l20.873,106.233l-25.032-5.006
	c-11.674-2.335-23.654,2.241-30.796,11.766L114.759,512h110.845c4.702,0,7.057-5.685,3.732-9.01l-8.646-8.646l-13.889-124.291
	C204.6,360.15,195.817,353.103,185.672,353.103z"/>
<g>
</g>
<g>
</g>
<g>
</g>
<g>
</g>
<g>
</g>
<g>
</g>
<g>
</g>
<g>
</g>
<g>
</g>
<g>
</g>
<g>
</g>
<g>
</g>
<g>
</g>
<g>
</g>
<g>
</g>
</svg>
