<?xml version="1.0" encoding="iso-8859-1"?>
<!-- Generator: Adobe Illustrator 19.0.0, SVG Export Plug-In . SVG Version: 6.00 Build 0)  -->
<svg version="1.1" id="Layer_1" xmlns="http://www.w3.org/2000/svg" xmlns:xlink="http://www.w3.org/1999/xlink" x="0px" y="0px"
	 viewBox="0 0 512 512" style="enable-background:new 0 0 512 512;" xml:space="preserve">
<rect x="229.517" y="26.483" style="fill:#4B2E2E;" width="35.31" height="114.759"/>
<polygon style="fill:#8DE1E1;" points="220.69,141.241 273.655,141.241 291.31,423.724 247.172,512 203.034,423.724 "/>
<polygon style="fill:#74D2D2;" points="273.655,141.241 247.172,141.241 247.172,512 291.31,423.724 "/>
<polygon style="fill:#BBF4F4;" points="238.345,150.069 238.345,353.103 247.172,397.241 256,353.103 256,150.069 "/>
<path style="fill:#FFC83C;" d="M232.937,0h28.47c6.025,0,10.28,5.903,8.374,11.619l-4.953,14.863h-35.31l-4.954-14.863
	C222.657,5.903,226.912,0,232.937,0z"/>
<g>
	<polygon style="fill:#6C392C;" points="229.517,123.586 264.828,105.931 264.828,123.586 229.517,141.241 	"/>
	<polygon style="fill:#6C392C;" points="229.517,88.276 264.828,70.621 264.828,88.276 229.517,105.931 	"/>
	<polygon style="fill:#6C392C;" points="229.517,52.966 264.828,35.31 264.828,52.966 229.517,70.621 	"/>
</g>
<polygon style="fill:#FFC83C;" points="247.172,158.897 308.966,167.724 308.966,150.069 247.172,132.414 185.379,150.069 
	185.379,167.724 "/>
<g>
	<polygon style="fill:#FFB432;" points="247.172,158.897 308.966,167.724 308.966,150.069 247.172,132.414 	"/>
	<path style="fill:#FFB432;" d="M247.172,26.483h17.655l4.954-14.863C271.688,5.903,267.433,0,261.407,0h-14.234V26.483z"/>
</g>
<circle style="fill:#FF5A4E;" cx="247.172" cy="26.483" r="8.828"/>
<polygon style="fill:#CAE6EB;" points="247.172,317.793 203.034,353.103 176.552,344.276 114.759,512 397.241,512 344.276,361.931 
	326.621,344.276 "/>
<g>
	<polygon style="fill:#B6D2DC;" points="203.034,353.103 247.172,441.379 247.172,317.793 	"/>
	<polygon style="fill:#B6D2DC;" points="176.552,344.276 238.345,512 114.759,512 	"/>
	<polygon style="fill:#B6D2DC;" points="300.138,512 308.966,406.069 344.276,512 	"/>
</g>
<polygon style="fill:#9DB9C4;" points="185.379,512 176.552,432.552 141.241,512 "/>
<g>
	<polygon style="fill:#DBEFEF;" points="247.172,317.793 326.621,370.759 388.414,512 397.241,512 344.276,361.931 326.621,344.276 
			"/>
	<polygon style="fill:#DBEFEF;" points="247.172,512 247.172,317.793 282.483,512 	"/>
</g>
<g>
</g>
<g>
</g>
<g>
</g>
<g>
</g>
<g>
</g>
<g>
</g>
<g>
</g>
<g>
</g>
<g>
</g>
<g>
</g>
<g>
</g>
<g>
</g>
<g>
</g>
<g>
</g>
<g>
</g>
</svg>
