<?xml version="1.0" encoding="iso-8859-1"?>
<!-- Generator: Adobe Illustrator 19.0.0, SVG Export Plug-In . SVG Version: 6.00 Build 0)  -->
<svg version="1.1" id="Layer_1" xmlns="http://www.w3.org/2000/svg" xmlns:xlink="http://www.w3.org/1999/xlink" x="0px" y="0px"
	 viewBox="0 0 512 512" style="enable-background:new 0 0 512 512;" xml:space="preserve">
<polygon style="fill:#82BE00;" points="406.069,353.103 256,441.379 105.931,353.103 132.414,264.828 379.586,264.828 "/>
<path style="fill:#75B200;" d="M106.072,352.631c0.147,0.269,0.302,0.549,0.452,0.821l53,31.177
	C186.483,313.379,256,291.31,256,291.31l-66.207-26.483h-57.379L106.072,352.631z"/>
<ellipse style="fill:#82BE00;" cx="256" cy="194.207" rx="176.552" ry="105.931"/>
<path style="fill:#68A600;" d="M256,238.345c-73.422,0-138.108-15.489-176.12-39.011c4.488,56.107,81.498,100.804,176.12,100.804
	s171.633-44.697,176.12-100.804C394.108,222.856,329.422,238.345,256,238.345z"/>
<path style="fill:#568C00;" d="M114.759,335.448c0,0-42.658,26.268-35.31,35.31L185.379,476.69c23.105,0,36.948,2.548,56.761-9.34
	L256,459.034v-35.31L114.759,335.448z"/>
<g>
	<path style="fill:#68A600;" d="M176.552,485.517L93.1,470.344c-8.55-1.555-17.319,1.185-23.464,7.329L35.31,512h211.862
		l-10.698-16.046c-4.346-6.52-11.665-10.436-19.5-10.436H176.552z"/>
	<path style="fill:#68A600;" d="M220.69,485.517l-95.458-146.859c-9.941-15.294-31.443-17.549-44.341-4.651l-0.039,0.039
		c-10.712,10.712-11.25,27.908-1.226,39.268l114.581,129.858L220.69,485.517z"/>
</g>
<path style="fill:#568C00;" d="M397.241,335.448c0,0,42.658,26.268,35.31,35.31L326.621,476.69c-23.105,0-36.948,2.548-56.761-9.34
	L256,459.034v-35.31L397.241,335.448z"/>
<g>
	<path style="fill:#68A600;" d="M335.448,485.517l83.452-15.174c8.549-1.555,17.319,1.185,23.464,7.329L476.69,512H264.828
		l10.698-16.046c4.346-6.52,11.665-10.436,19.5-10.436H335.448z"/>
	<path style="fill:#68A600;" d="M291.31,485.517l95.458-146.859c9.941-15.294,31.443-17.549,44.341-4.651l0.039,0.039
		c10.712,10.712,11.25,27.908,1.226,39.268L317.793,503.172L291.31,485.517z"/>
</g>
<polygon style="fill:#FFA035;" points="304.552,97.103 207.448,97.103 195.31,12.138 231.724,73.207 256,12.138 280.276,72.828 
	316.69,12.138 "/>
<g>
	<circle style="fill:#FFBE51;" cx="256" cy="12.138" r="12.138"/>
	<circle style="fill:#FFBE51;" cx="195.31" cy="12.138" r="12.138"/>
	<circle style="fill:#FFBE51;" cx="316.69" cy="12.138" r="12.138"/>
</g>
<circle style="fill:#82BE00;" cx="158.897" cy="123.586" r="70.621"/>
<circle style="fill:#FFFFFF;" cx="158.897" cy="123.586" r="44.138"/>
<circle style="fill:#2F3F50;" cx="158.897" cy="123.586" r="26.483"/>
<circle style="fill:#99A0A9;" cx="165.517" cy="116.966" r="11.034"/>
<circle style="fill:#82BE00;" cx="353.103" cy="123.586" r="70.621"/>
<circle style="fill:#FFFFFF;" cx="353.103" cy="123.586" r="44.138"/>
<circle style="fill:#2F3F50;" cx="353.103" cy="123.586" r="26.483"/>
<circle style="fill:#99A0A9;" cx="359.724" cy="116.966" r="11.034"/>
<g>
</g>
<g>
</g>
<g>
</g>
<g>
</g>
<g>
</g>
<g>
</g>
<g>
</g>
<g>
</g>
<g>
</g>
<g>
</g>
<g>
</g>
<g>
</g>
<g>
</g>
<g>
</g>
<g>
</g>
</svg>
