<?xml version="1.0" encoding="iso-8859-1"?>
<!-- Generator: Adobe Illustrator 19.0.0, SVG Export Plug-In . SVG Version: 6.00 Build 0)  -->
<svg version="1.1" id="Layer_1" xmlns="http://www.w3.org/2000/svg" xmlns:xlink="http://www.w3.org/1999/xlink" x="0px" y="0px"
	 viewBox="0 0 512 512" style="enable-background:new 0 0 512 512;" xml:space="preserve">
<path style="fill:#895438;" d="M264.828,512h-17.655c-4.875,0-8.828-3.953-8.828-8.828V61.793c0-4.875,3.953-8.828,8.828-8.828
	h17.655c4.875,0,8.828,3.953,8.828,8.828v441.379C273.655,508.047,269.703,512,264.828,512z"/>
<path style="fill:#6C392C;" d="M256,326.621V52.966h-8.828c-4.875,0-8.828,4.084-8.828,9.122v264.533H256z"/>
<path style="fill:#FFC83C;" d="M364.422,0C348.913,45.983,306.286,79.071,256,79.071v36.066c50.286,0,92.913,33.087,108.422,79.071
	c30.455-21.076,50.475-56.7,50.475-97.105S394.877,21.075,364.422,0z"/>
<path style="fill:#FFE159;" d="M397.241,97.103c0-32.239-15.433-61.118-39.797-80.657c2.714-5.26,5.057-10.753,6.977-16.447
	c30.455,21.075,50.475,56.698,50.475,97.103s-20.02,76.028-50.475,97.103c-1.92-5.694-4.263-11.187-6.977-16.447
	C381.809,158.221,397.241,129.342,397.241,97.103z"/>
<path style="fill:#FFB432;" d="M360.631,44.392c12.205,15.157,18.955,33.596,18.955,52.712c0,19.115-6.75,37.555-18.955,52.712
	c-21.244-28.036-52.423-46.431-86.976-51.139v-3.145C308.207,90.823,339.388,72.428,360.631,44.392"/>
<path style="fill:#FFC83C;" d="M147.578,0C163.087,45.983,205.714,79.071,256,79.071v36.066c-50.286,0-92.913,33.087-108.422,79.071
	c-30.455-21.076-50.475-56.7-50.475-97.105S117.123,21.075,147.578,0z"/>
<path style="fill:#FFE159;" d="M114.759,97.103c0-32.239,15.433-61.118,39.797-80.657c-2.714-5.26-5.057-10.753-6.977-16.447
	c-30.455,21.075-50.475,56.698-50.475,97.103s20.02,76.028,50.475,97.103c1.92-5.694,4.263-11.187,6.977-16.447
	C130.191,158.221,114.759,129.342,114.759,97.103z"/>
<path style="fill:#FFB432;" d="M151.369,44.392c21.244,28.036,52.424,46.431,86.976,51.139v3.145
	c-34.553,4.708-65.732,23.103-86.976,51.138c-12.205-15.156-18.955-33.596-18.955-52.711
	C132.414,77.987,139.164,59.549,151.369,44.392"/>
<path style="fill:#4B2E2E;" d="M264.828,512h-17.655c-9.751,0-17.655-7.904-17.655-17.655V335.448
	c0-9.751,7.904-17.655,17.655-17.655h17.655c9.751,0,17.655,7.904,17.655,17.655v158.897C282.483,504.096,274.579,512,264.828,512z"
	/>
<path style="fill:#FFC83C;" d="M281.379,123.586h-50.759c-0.609,0-1.103-0.494-1.103-1.103V71.724c0-0.609,0.494-1.103,1.103-1.103
	h50.759c0.609,0,1.103,0.494,1.103,1.103v50.759C282.483,123.092,281.988,123.586,281.379,123.586z"/>
<g>
	<polygon style="fill:#6C392C;" points="282.483,361.931 229.517,379.586 229.517,361.931 282.483,344.276 	"/>
	<polygon style="fill:#6C392C;" points="282.483,397.241 229.517,414.897 229.517,397.241 282.483,379.586 	"/>
	<polygon style="fill:#6C392C;" points="282.483,432.552 229.517,450.207 229.517,432.552 282.483,414.897 	"/>
	<polygon style="fill:#6C392C;" points="282.483,467.862 229.517,485.517 229.517,467.862 282.483,450.207 	"/>
</g>
<path style="fill:#FFB432;" d="M246.069,123.586h-15.448c-0.609,0-1.103-0.494-1.103-1.103V71.724c0-0.609,0.494-1.103,1.103-1.103
	h15.448c0.609,0,1.103,0.494,1.103,1.103v50.759C247.172,123.092,246.678,123.586,246.069,123.586z"/>
<g>
</g>
<g>
</g>
<g>
</g>
<g>
</g>
<g>
</g>
<g>
</g>
<g>
</g>
<g>
</g>
<g>
</g>
<g>
</g>
<g>
</g>
<g>
</g>
<g>
</g>
<g>
</g>
<g>
</g>
</svg>
