<?xml version="1.0" encoding="iso-8859-1"?>
<!-- Generator: Adobe Illustrator 19.0.0, SVG Export Plug-In . SVG Version: 6.00 Build 0)  -->
<svg version="1.1" id="Layer_1" xmlns="http://www.w3.org/2000/svg" xmlns:xlink="http://www.w3.org/1999/xlink" x="0px" y="0px"
	 viewBox="0 0 512 512" style="enable-background:new 0 0 512 512;" xml:space="preserve">
<path style="fill:#FFB432;" d="M172.676,0L172.676,0c-2.438,0-4.414,1.976-4.414,4.414v30.345c0,0.305,0.247,0.552,0.552,0.552
	h7.724c0.305,0,0.552-0.247,0.552-0.552V4.414C177.089,1.976,175.113,0,172.676,0z"/>
<path style="fill:#FF7E68;" d="M301.907,141.241h17.715c14.112,0,15.659,3.561,16.364,17.655l16.256,146.308
	c0.919,8.275-0.125,16.651-3.049,24.447l-22.035,58.762L301.907,141.241z"/>
<g>
	<path style="fill:#EB443F;" d="M230.055,141.241H212.34c-14.112,0-16.89,3.561-17.596,17.655l-17.655,158.897l27.714,70.621
		L230.055,141.241z"/>
	<polygon style="fill:#EB443F;" points="177.089,220.69 177.089,317.793 203.572,361.931 185.917,211.862 	"/>
</g>
<path style="fill:#FFB432;" d="M172.676,512L172.676,512c-2.438,0-4.414-1.976-4.414-4.414V61.793h8.828v445.793
	C177.089,510.024,175.113,512,172.676,512z"/>
<path style="fill:#FFC69F;" d="M177.089,229.517h-8.828c-4.875,0-8.828-3.953-8.828-8.828v-17.655c0-4.875,3.953-8.828,8.828-8.828
	h8.828c4.875,0,8.828,3.953,8.828,8.828v17.655C185.917,225.565,181.964,229.517,177.089,229.517z"/>
<g>
	<path style="fill:#8A2923;" d="M221.227,406.069v79.448l-9.671,4.835c-4.894,2.446-7.985,7.448-7.985,12.919V512h44.138
		l10.089-105.931H221.227z"/>
	<path style="fill:#8A2923;" d="M309.503,406.069v79.448l9.671,4.835c4.894,2.446,7.985,7.448,7.985,12.919V512H283.02
		l-10.089-105.931H309.503z"/>
</g>
<polygon style="fill:#C33F39;" points="238.882,467.862 291.848,467.862 274.193,158.897 256.538,158.897 "/>
<polygon style="fill:#FF5A4E;" points="203.572,150.069 194.745,476.69 238.882,485.517 265.365,158.897 "/>
<polygon style="fill:#F84F46;" points="212.546,480.25 221.227,167.724 203.572,150.069 194.745,476.69 "/>
<polygon style="fill:#FF5A4E;" points="327.158,150.069 335.986,476.69 291.848,485.517 265.365,158.897 "/>
<polygon style="fill:#FF6C5C;" points="309.503,158.897 318.331,476.69 335.986,476.69 327.397,158.897 "/>
<path style="fill:#FFC83C;" d="M265.365,158.897l9.508,14.263c4.721,7.082,13.822,9.786,21.644,6.434l48.296-20.697l-3.948-7.895
	c-2.99-5.982-9.103-9.76-15.791-9.76h-59.709V158.897z"/>
<path style="fill:#FFB432;" d="M265.365,158.897l-9.508,14.263c-4.721,7.082-13.822,9.786-21.645,6.434l-48.295-20.697l3.948-7.895
	c2.99-5.982,9.103-9.76,15.791-9.76h59.709V158.897z"/>
<rect x="238.886" y="79.448" style="fill:#EB443F;" width="52.965" height="8.828"/>
<rect x="265.369" y="79.448" style="fill:#FF5A4E;" width="26.483" height="8.828"/>
<circle style="fill:#EB443F;" cx="243.3" cy="75.034" r="13.241"/>
<circle style="fill:#FF7E68;" cx="287.438" cy="75.034" r="13.241"/>
<circle style="fill:#FF5A4E;" cx="265.369" cy="70.621" r="17.655"/>
<circle style="fill:#FFC83C;" cx="265.369" cy="48.607" r="4.414"/>
<path style="fill:#FFB98F;" d="M265.365,158.897L265.365,158.897c-9.751,0-17.655-7.904-17.655-17.655v-17.655h35.31v17.655
	C283.02,150.993,275.116,158.897,265.365,158.897z"/>
<path style="fill:#FFD5B2;" d="M283.986,137.655l-8.828,5.885c-5.93,3.954-13.656,3.954-19.586,0l-8.828-5.885
	c-4.911-3.274-7.862-8.787-7.862-14.69V88.276h52.966v34.689C291.848,128.868,288.897,134.38,283.986,137.655z"/>
<path style="fill:#FFC69F;" d="M247.71,118.24V88.276h-8.828v34.689c0,5.903,2.951,11.415,7.862,14.69l8.828,5.885
	c2.102,1.401,4.45,2.125,6.844,2.534C254.981,139.822,247.71,130.332,247.71,118.24z"/>
<rect x="238.886" y="88.276" style="fill:#FFC83C;" width="52.965" height="8.828"/>
<rect x="238.886" y="88.276" style="fill:#FFB432;" width="26.483" height="8.828"/>
<path style="fill:#CB5F3D;" d="M278.607,132.414L278.607,132.414c-2.438,0-4.414-1.976-4.414-4.414l0,0
	c0-2.438-1.976-4.414-4.414-4.414h-8.828c-2.438,0-4.414,1.976-4.414,4.414l0,0c0,2.438-1.976,4.414-4.414,4.414l0,0
	c-2.438,0-4.414-1.976-4.414-4.414v-4.414c0-4.875-3.953-8.828-8.828-8.828l0,0v8.206c0,5.902,2.95,11.415,7.861,14.689l8.829,5.886
	c5.93,3.954,13.656,3.954,19.586,0l8.829-5.886c4.911-3.274,7.861-8.787,7.861-14.689v-8.206l0,0c-4.875,0-8.828,3.953-8.828,8.828
	V128C283.02,130.438,281.044,132.414,278.607,132.414z"/>
<path style="fill:#B64A33;" d="M262.416,146.073c-4.26-3.582-8.419-8.26-11.235-13.849c-1.97-0.442-3.471-2.121-3.471-4.224v-4.414
	c0-4.875-3.953-8.828-8.828-8.828v8.206c0,1.475,0.184,2.926,0.537,4.324c0.707,2.796,2.089,5.379,4.023,7.518
	c0.154,0.171,0.365,0.289,0.526,0.454c0.85,0.868,1.742,1.705,2.775,2.392l8.828,5.885c1.155,0.77,2.419,1.263,3.684,1.734
	C260.29,145.614,261.345,145.89,262.416,146.073z"/>
<polygon style="fill:#FFB432;" points="241.168,457.326 195.406,452.242 194.745,476.69 238.882,485.517 "/>
<g>
	<polygon style="fill:#FFC83C;" points="289.563,457.326 335.325,452.242 335.986,476.69 291.848,485.517 	"/>
	<polygon style="fill:#FFC83C;" points="317.706,454.199 318.331,476.69 335.986,476.69 335.325,452.242 	"/>
	<path style="fill:#FFC83C;" d="M159.434,52.966l13.241-17.655l13.241,17.655l-8.887,53.323c-0.82,4.918-7.889,4.918-8.708,0
		L159.434,52.966z"/>
</g>
<circle style="fill:#FF5A4E;" cx="172.679" cy="35.31" r="8.828"/>
<g>
</g>
<g>
</g>
<g>
</g>
<g>
</g>
<g>
</g>
<g>
</g>
<g>
</g>
<g>
</g>
<g>
</g>
<g>
</g>
<g>
</g>
<g>
</g>
<g>
</g>
<g>
</g>
<g>
</g>
</svg>
