<?xml version="1.0" encoding="iso-8859-1"?>
<!-- Generator: Adobe Illustrator 19.0.0, SVG Export Plug-In . SVG Version: 6.00 Build 0)  -->
<svg version="1.1" id="Layer_1" xmlns="http://www.w3.org/2000/svg" xmlns:xlink="http://www.w3.org/1999/xlink" x="0px" y="0px"
	 viewBox="0 0 512 512" style="enable-background:new 0 0 512 512;" xml:space="preserve">
<rect x="233.931" y="35.31" style="fill:#6A7988;" width="8.828" height="35.31"/>
<polygon style="fill:#FFB432;" points="150.069,43.157 163.31,97.103 176.552,43.157 163.31,0 "/>
<polygon style="fill:#FFC83C;" points="163.31,97.103 176.552,43.157 163.31,0 "/>
<path style="fill:#66B4D3;" d="M199.164,141.241L199.164,141.241c-13.01,0-24.073,9.492-26.05,22.349l-8.785,57.102l-14.26-0.003
	l6.273,31.367c1.485,7.426,8.006,12.771,15.578,12.771l0,0c7.766,0,14.394-5.614,15.671-13.276l15.443-92.655L199.164,141.241z"/>
<path style="fill:#5796B6;" d="M185.379,176.552c0,0-12.505,88.276-12.508,88.19c7.345-0.442,13.496-5.848,14.72-13.19
	l11.725-70.355L185.379,176.552z"/>
<path style="fill:#66B4D3;" d="M277.526,141.241L277.526,141.241c13.01,0,24.073,9.492,26.05,22.349L317.793,256l-26.483,8.828
	l-17.655-105.931L277.526,141.241z"/>
<polygon style="fill:#7CC8DE;" points="194.207,335.448 194.207,494.345 220.69,485.517 237.504,335.448 "/>
<g>
	<path style="fill:#66B4D3;" d="M220.69,485.517l-35.671,7.134c-5.343,1.068-9.892,4.544-12.329,9.417L167.724,512h61.793
		L220.69,485.517z"/>
	<path style="fill:#66B4D3;" d="M230.581,397.241h-31.96c-7.313,0-13.241,5.929-13.241,13.241s5.929,13.241,13.241,13.241h28.992
		L230.581,397.241z"/>
</g>
<polygon style="fill:#7CC8DE;" points="282.483,335.448 282.483,494.345 256,485.517 239.186,335.448 "/>
<g>
	<path style="fill:#66B4D3;" d="M256,485.517l35.671,7.134c5.343,1.068,9.892,4.544,12.329,9.417l4.966,9.932h-61.793L256,485.517z"
		/>
	<path style="fill:#66B4D3;" d="M246.109,397.241h31.96c7.313,0,13.241,5.929,13.241,13.241s-5.929,13.241-13.241,13.241h-28.992
		L246.109,397.241z"/>
</g>
<polygon style="fill:#7A8797;" points="185.379,335.448 291.31,335.448 273.655,247.172 203.034,247.172 "/>
<polygon style="fill:#6A7988;" points="247.172,273.655 240.552,247.172 229.517,247.172 196.414,280.276 185.379,335.448 
	231.724,335.448 "/>
<g>
	<path style="fill:#7CC8DE;" d="M281.396,137.295h-78.361c-11.486,0-23.784,14.741-20.999,25.884l20.999,83.993h70.621
		l20.999-83.993C297.439,152.035,292.882,137.295,281.396,137.295z"/>
	<path style="fill:#7CC8DE;" d="M238.345,247.172l-17.655,70.621c0,0-35.327-8.46-35.31-8.828
		c1.839-40.092,17.655-66.391,17.655-66.391L238.345,247.172z"/>
</g>
<path id="SVGCleanerId_0" style="fill:#7CC8DE;" d="M238.345,247.172L256,317.793c0,0,35.327-8.46,35.31-8.828
	c-1.839-40.092-17.655-66.391-17.655-66.391L238.345,247.172z"/>
<g>
	<polygon style="fill:#66B4D3;" points="211.862,335.448 203.034,494.345 194.207,494.345 194.207,335.448 	"/>
	<polygon style="fill:#66B4D3;" points="256,335.448 264.828,494.345 256,485.517 239.186,335.448 	"/>
	<path style="fill:#66B4D3;" d="M185.379,308.966c-0.009,0.191,9.575,2.578,18.76,4.823c2.573-16.041,9.194-49.513,17.329-68.813
		l-18.433-2.401C203.034,242.574,187.219,268.874,185.379,308.966z"/>
</g>
<g>
	<path id="SVGCleanerId_0_1_" style="fill:#7CC8DE;" d="M238.345,247.172L256,317.793c0,0,35.327-8.46,35.31-8.828
		c-1.839-40.092-17.655-66.391-17.655-66.391L238.345,247.172z"/>
</g>
<path style="fill:#5796B6;" d="M275.172,247.172h-73.655c-2.438,0-4.414-1.976-4.414-4.414l0,0c0-2.438,1.976-4.414,4.414-4.414
	h73.655c2.438,0,4.414,1.976,4.414,4.414l0,0C279.586,245.196,277.61,247.172,275.172,247.172z"/>
<path style="fill:#FFC83C;" d="M308.966,370.759L308.966,370.759c-29.252,0-52.966-23.713-52.966-52.966V195.31
	c0-0.609,0.494-1.103,1.103-1.103h103.724c0.609,0,1.103,0.494,1.103,1.103v122.483
	C361.931,347.046,338.218,370.759,308.966,370.759z"/>
<path style="fill:#FFB432;" d="M264.828,194.207c-4.875,0-8.828,3.953-8.828,8.828v114.759c0,29.251,23.713,52.966,52.966,52.966
	V194.207H264.828z"/>
<path style="fill:#66B4D3;" d="M344.276,211.862v105.931c0,19.47-15.84,35.31-35.31,35.31s-35.31-15.84-35.31-35.31V211.862H344.276
	"/>
<path style="fill:#94D7EB;" d="M308.966,353.103c19.47,0,35.31-15.84,35.31-35.31V211.862h-35.31V353.103z"/>
<path style="fill:#6A7988;" d="M163.31,105.931c-2.438,0-4.414-1.976-4.414-4.414v406.069c0,2.438,1.976,4.414,4.414,4.414l0,0
	c2.438,0,4.414-1.976,4.414-4.414V101.517C167.724,103.955,165.748,105.931,163.31,105.931z"/>
<path style="fill:#7CC8DE;" d="M167.724,229.517h-8.828c-4.875,0-8.828-3.953-8.828-8.828v-17.655c0-4.875,3.953-8.828,8.828-8.828
	h8.828c4.875,0,8.828,3.953,8.828,8.828v17.655C176.552,225.565,172.599,229.517,167.724,229.517z"/>
<path style="fill:#66B4D3;" d="M220.69,137.103c-2.759,47.069-52.966,48.276-52.966,48.276l5.99-32.753
	c1.651-9.026,8.896-15.523,17.312-15.523C191.026,137.103,220.69,137.103,220.69,137.103z"/>
<path style="fill:#94D7EB;" d="M256,137.103c2.759,47.069,52.966,48.276,52.966,48.276l-5.99-32.753
	c-1.651-9.026-8.896-15.523-17.312-15.523C285.664,137.103,256,137.103,256,137.103z"/>
<path style="fill:#5796B6;" d="M238.345,158.897L238.345,158.897c-9.751,0-17.655-7.904-17.655-17.655v-26.483H256v26.483
	C256,150.993,248.096,158.897,238.345,158.897z"/>
<path style="fill:#7CC8DE;" d="M238.345,132.414L238.345,132.414c-14.626,0-26.483-11.857-26.483-26.483V88.276
	c0-14.626,11.857-26.483,26.483-26.483l0,0c14.626,0,26.483,11.857,26.483,26.483v17.655
	C264.828,120.557,252.971,132.414,238.345,132.414z"/>
<g>
	<path style="fill:#66B4D3;" d="M211.862,105.931c0,14.626,11.857,26.483,26.483,26.483c14.626,0,26.483-11.857,26.483-26.483
		l-26.483-8.828L211.862,105.931z"/>
	<path style="fill:#66B4D3;" d="M211.862,88.276v17.655c0,6.814,2.645,12.962,6.873,17.655h19.609V61.793
		C223.719,61.793,211.862,73.65,211.862,88.276z"/>
</g>
<path style="fill:#5FA6C5;" d="M211.862,105.931c0,14.626,11.857,26.483,26.483,26.483v-35.31L211.862,105.931z"/>
<g>
	<path style="fill:#FFB432;" d="M163.31,114.759c-7.302,0-13.241-5.94-13.241-13.241s5.94-13.241,13.241-13.241
		c7.302,0,13.241,5.94,13.241,13.241S170.612,114.759,163.31,114.759z M163.31,97.103c-2.435,0-4.414,1.978-4.414,4.414
		s1.978,4.414,4.414,4.414c2.435,0,4.414-1.978,4.414-4.414S165.746,97.103,163.31,97.103z"/>
	<rect x="158.897" y="105.931" style="fill:#FFB432;" width="8.828" height="26.483"/>
	<path style="fill:#FFB432;" d="M273.655,44.138c-19.242,0-21.103,8.828-39.724,8.828V35.31c18.621,0,20.483-8.828,39.724-8.828"/>
	<path style="fill:#FFB432;" d="M167.172,97.103h-7.724c-0.305,0-0.552-0.247-0.552-0.552V75.034c0-2.438,1.976-4.414,4.414-4.414
		l0,0c2.438,0,4.414,1.976,4.414,4.414v21.517C167.724,96.856,167.477,97.103,167.172,97.103z"/>
</g>
<path style="fill:#444460;" d="M251.586,97.103h-26.483c-2.438,0-4.414-1.976-4.414-4.414l0,0c0-2.438,1.976-4.414,4.414-4.414
	h26.483c2.438,0,4.414,1.976,4.414,4.414l0,0C256,95.127,254.024,97.103,251.586,97.103z"/>
<g>
</g>
<g>
</g>
<g>
</g>
<g>
</g>
<g>
</g>
<g>
</g>
<g>
</g>
<g>
</g>
<g>
</g>
<g>
</g>
<g>
</g>
<g>
</g>
<g>
</g>
<g>
</g>
<g>
</g>
</svg>
