<?xml version="1.0" encoding="iso-8859-1"?>
<!-- Generator: Adobe Illustrator 19.0.0, SVG Export Plug-In . SVG Version: 6.00 Build 0)  -->
<svg version="1.1" id="Layer_1" xmlns="http://www.w3.org/2000/svg" xmlns:xlink="http://www.w3.org/1999/xlink" x="0px" y="0px"
	 viewBox="0 0 512 512" style="enable-background:new 0 0 512 512;" xml:space="preserve">
<polygon style="fill:#66B4D3;" points="70.621,512 441.379,512 344.276,370.759 167.724,370.759 "/>
<polygon style="fill:#5FA6C5;" points="256,450.207 256,512 88.276,512 176.552,370.759 "/>
<path style="fill:#5796B6;" d="M414.897,512h26.483l-88.914-129.33l-17.017-11.912v17.655
	C335.448,388.414,366.897,467.862,414.897,512z"/>
<path style="fill:#7CC8DE;" d="M335.448,361.931l135.328,30.073c14.21,3.158,25.026,14.712,27.24,29.1l10.855,70.556
	c1.645,10.695-6.63,20.34-17.45,20.34h-50.041C366.345,458.483,335.448,361.931,335.448,361.931z"/>
<path style="fill:#66B4D3;" d="M335.448,361.931l8.264,1.836c0.192,0.386,0.377,0.708,0.564,1.106
	C393.931,470.621,467.862,512,467.862,512c-13.196,0-26.483,0-26.483,0C366.345,458.483,335.448,361.931,335.448,361.931z"/>
<path style="fill:#4A82A7;" d="M97.103,512H70.621l88.914-129.33l17.017-11.912v17.655C176.552,388.414,145.103,467.862,97.103,512z
	"/>
<path style="fill:#5796B6;" d="M176.552,361.931L41.224,392.004c-14.21,3.158-25.026,14.712-27.24,29.1L3.129,491.66
	C1.484,502.355,9.759,512,20.579,512h50.041C145.655,458.483,176.552,361.931,176.552,361.931z"/>
<path style="fill:#66B4D3;" d="M176.552,361.931l-8.264,1.836c-0.192,0.386-0.377,0.708-0.564,1.106
	C118.069,470.621,44.138,512,44.138,512c13.196,0,26.483,0,26.483,0C145.655,458.483,176.552,361.931,176.552,361.931z"/>
<path style="fill:#5796B6;" d="M256,203.034h-88.276v161.838c0,43.955,88.276,85.334,88.276,85.334s88.276-41.379,88.276-85.334
	V203.034H256z"/>
<path style="fill:#5FA6C5;" d="M256,423.724v26.483c0,0,88.276-41.379,88.276-85.334v-38.252
	C344.276,326.621,338.759,356.966,256,423.724z"/>
<path style="fill:#FFB432;" d="M264.828,26.483v44.138c54.43,0,56.938-25.142,110.426-26.431c2.403-0.058,4.332-2.007,4.332-4.412
	V4.47c0-2.472-2.031-4.476-4.502-4.414C321.761,1.395,319.199,26.483,264.828,26.483z"/>
<rect x="247.172" y="17.655" style="fill:#6A7988;" width="17.655" height="79.448"/>
<path style="fill:#7CC8DE;" d="M346.207,328.276l-70.621,47.081c-11.861,7.907-27.313,7.907-39.174,0l-70.621-47.081
	c-9.823-6.549-15.724-17.573-15.724-29.38v-95.861c0-58.504,47.427-105.931,105.931-105.931l0,0
	c58.504,0,105.931,47.427,105.931,105.931v95.861C361.931,310.701,356.031,321.727,346.207,328.276z"/>
<path style="fill:#66B4D3;" d="M150.069,203.034v95.861c0,0.418,0.063,0.826,0.077,1.242H256V97.103
	C197.495,97.103,150.069,144.53,150.069,203.034z"/>
<path style="fill:#5FA6C5;" d="M256,88.276L256,88.276c-4.875,0-8.828,3.953-8.828,8.828v167.724h17.655V97.103
	C264.828,92.228,260.875,88.276,256,88.276z"/>
<path style="fill:#94D7E6;" d="M264.828,264.828V97.103c0-4.875-3.953-8.828-8.828-8.828v176.552H264.828z"/>
<g>
	<path style="fill:#462D3E;" d="M233.931,238.344h-39.724c-4.875,0-8.828-3.953-8.828-8.828l0,0c0-4.875,3.953-8.828,8.828-8.828
		h39.724c4.875,0,8.828,3.953,8.828,8.828l0,0C242.759,234.392,238.806,238.344,233.931,238.344z"/>
	<path style="fill:#462D3E;" d="M317.793,238.345h-39.724c-4.875,0-8.828-3.953-8.828-8.828l0,0c0-4.875,3.953-8.828,8.828-8.828
		h39.724c4.875,0,8.828,3.953,8.828,8.828l0,0C326.621,234.392,322.668,238.345,317.793,238.345z"/>
</g>
<path style="fill:#66B4D3;" d="M148.727,272.503c-4.307,0.662-7.486,4.367-7.486,8.725v17.667c0,11.807,6.392,22.831,17.035,29.38
	l76.505,47.08c13.013,8.008,29.426,8.008,42.438,0l76.505-47.08c10.642-6.549,17.034-17.573,17.034-29.379v-17.667
	c0-4.358-3.179-8.063-7.486-8.725l-97.452-14.994c-6.509-1.002-13.133-1.002-19.642,0L148.727,272.503z"/>
<g>
	<path style="fill:#5FA6C5;" d="M246.179,257.511l-97.452,14.993c-4.307,0.662-7.486,4.367-7.486,8.725v17.667
		c0,11.807,6.392,22.831,17.035,29.38l76.505,47.08c6.424,3.953,13.822,5.93,21.219,5.93V256.76
		C252.715,256.76,249.43,257.011,246.179,257.511z"/>
	<path style="fill:#5FA6C5;" d="M150.069,203.034v95.861c0,0.418,0.063,0.826,0.077,1.242h31.479
		c-3.329-18.337-4.66-30.759-4.66-30.759s-0.414-68-0.414-92.828c0-20.113,4.921-38.861,21.668-62.237
		C169.252,133.219,150.069,165.864,150.069,203.034z"/>
</g>
<path style="fill:#5796B6;" d="M141.241,281.228v17.667c0,11.807,6.392,22.831,17.035,29.38l34.813,21.422
	c-12.056-41.922-16.122-80.319-16.122-80.319s-0.003-0.495-0.008-1.219l-28.231,4.344
	C144.42,273.166,141.241,276.871,141.241,281.228z"/>
<circle style="fill:#FFB432;" cx="256" cy="13.241" r="13.241"/>
<path style="fill:#FF9B36;" d="M264.828,61.793h-17.655c-1.219,0-2.207-0.988-2.207-2.207V37.517c0-1.219,0.988-2.207,2.207-2.207
	h17.655c1.219,0,2.207,0.988,2.207,2.207v22.069C267.034,60.806,266.047,61.793,264.828,61.793z"/>
<path style="fill:#A6D9E7;" d="M479.656,493.388c-4.28,0-8.039-3.121-8.712-7.482l-8.444-54.888
	c-0.151-0.974-0.862-1.741-1.819-1.949l-12.384-2.75c-4.759-1.06-7.758-5.775-6.702-10.535s5.759-7.742,10.53-6.707l12.384,2.75
	c8.12,1.802,14.182,8.285,15.439,16.509l8.444,54.879c0.742,4.819-2.564,9.327-7.383,10.069
	C480.556,493.354,480.104,493.388,479.656,493.388z"/>
<path style="fill:#B9E1EC;" d="M414.905,418.681c-0.633,0-1.28-0.069-1.922-0.207l-17.655-3.923
	c-4.759-1.06-7.763-5.775-6.702-10.535c1.056-4.759,5.771-7.724,10.53-6.707l17.655,3.923c4.759,1.06,7.763,5.775,6.702,10.535
	C422.599,415.88,418.953,418.681,414.905,418.681z"/>
<path style="fill:#A6D9E7;" d="M335.448,211.862c-4.875,0-8.828-3.948-8.828-8.828c0-11.009-2.474-21.551-7.349-31.353
	c-2.168-4.362-0.392-9.664,3.975-11.837c4.358-2.182,9.664-0.396,11.837,3.975c6.098,12.258,9.193,25.457,9.193,39.215
	C344.276,207.914,340.323,211.862,335.448,211.862z"/>
<path style="fill:#B9E1EC;" d="M305.858,150.051c-1.953,0-3.914-0.647-5.547-1.965c-4.004-3.242-8.366-6.044-12.966-8.328
	c-4.362-2.173-6.138-7.474-3.966-11.837c2.164-4.362,7.453-6.155,11.837-3.975c5.746,2.862,11.198,6.37,16.199,10.414
	c3.789,3.06,4.38,8.621,1.311,12.414C310.983,148.931,308.431,150.051,305.858,150.051z"/>
<g>
</g>
<g>
</g>
<g>
</g>
<g>
</g>
<g>
</g>
<g>
</g>
<g>
</g>
<g>
</g>
<g>
</g>
<g>
</g>
<g>
</g>
<g>
</g>
<g>
</g>
<g>
</g>
<g>
</g>
</svg>
