<?xml version="1.0" encoding="iso-8859-1"?>
<!-- Generator: Adobe Illustrator 19.0.0, SVG Export Plug-In . SVG Version: 6.00 Build 0)  -->
<svg version="1.1" id="Layer_1" xmlns="http://www.w3.org/2000/svg" xmlns:xlink="http://www.w3.org/1999/xlink" x="0px" y="0px"
	 viewBox="0 0 512 512" style="enable-background:new 0 0 512 512;" xml:space="preserve">
<path style="fill:#59291D;" d="M256,0c-19.501,0-35.31,15.809-35.31,35.31v8.828c0,29.426-32,34.759-35.31,97.103
	c0,0,43.402,28.69,70.621,26.483V0z"/>
<path style="fill:#6C392C;" d="M256,0c19.501,0,35.31,15.809,35.31,35.31v8.828c0,56,0,56,0,61.793c0,0-21.793-17.103-35.31,79.448
	V0z"/>
<g>
	<polygon style="fill:#FFD5B2;" points="229.517,106.067 215.172,151.448 203.034,211.862 194.207,203.034 203.034,150.205 
		211.585,101.188 	"/>
	<polygon style="fill:#FFD5B2;" points="194.207,203.034 194.207,229.517 212.966,229.517 203.034,203.034 	"/>
	<polygon style="fill:#FFD5B2;" points="317.793,203.034 317.793,229.517 299.034,229.517 308.966,203.034 	"/>
	<polygon style="fill:#FFD5B2;" points="282.483,106.067 296.828,151.448 308.966,211.862 317.793,203.034 308.966,150.205 
		298.372,100.375 	"/>
</g>
<g>
	<path style="fill:#00BE94;" d="M229.517,176.552l-8.214,26.283c-5.479,17.533-6.676,36.122-3.489,54.214l29.358,166.676
		l8.828-8.828l8.828,8.828l29.357-166.676c3.187-18.09,1.99-36.681-3.489-54.214l-8.213-26.283H229.517z"/>
	<polygon style="fill:#00BE94;" points="256,414.897 247.172,485.517 211.862,494.345 194.207,485.517 150.069,512 185.379,459.034 
			"/>
</g>
<polygon style="fill:#00A68B;" points="194.207,485.517 256,414.897 211.862,494.345 "/>
<polygon style="fill:#00BE94;" points="256,414.897 264.828,485.517 300.138,494.345 317.793,485.517 361.931,512 326.621,459.034 
	"/>
<polygon style="fill:#00A68B;" points="317.793,485.517 256,414.897 300.138,494.345 "/>
<path style="fill:#FFD5B2;" d="M296.828,151.448l12.138-1.244l-7.139-46.293c-1.033-6.694-5.803-12.207-12.278-14.189L256,79.448
	l-33.547,10.274c-6.476,1.983-11.246,7.496-12.278,14.189l-7.14,46.293l12.138,1.244l11.566-36.591
	c12.299,41.618,2.778,61.695,2.778,61.695H256h26.483c0,0-9.505-20.078,2.783-61.678L296.828,151.448z"/>
<path style="fill:#FFB98F;" d="M256,91.034L256,91.034c-4.875,0-8.828-3.953-8.828-8.828V55.724h17.655v26.483
	C264.828,87.082,260.875,91.034,256,91.034z"/>
<path style="fill:#FFD5B2;" d="M274.621,67.034l-8.828,5.885c-5.93,3.954-13.656,3.954-19.586,0l-8.828-5.885
	c-4.911-3.275-7.862-8.787-7.862-14.69V17.655h52.966v34.689C282.483,58.248,279.532,63.759,274.621,67.034z"/>
<path style="fill:#FFC69F;" d="M238.345,47.619V35.31l-8.828,8.828v8.206c0,5.903,2.951,11.415,7.862,14.69l8.828,5.885
	c2.102,1.401,4.45,2.125,6.844,2.534C245.615,69.202,238.345,59.711,238.345,47.619z"/>
<path style="fill:#895438;" d="M220.69,35.31v8.828c15.155,0,49.088-3.348,67.497-23.214C282.671,8.61,270.366,0,256,0
	C236.499,0,220.69,15.809,220.69,35.31z"/>
<path style="fill:#00A68B;" d="M247.172,176.552h-17.655l-8.213,26.283c-5.479,17.533-6.676,36.122-3.489,54.212l29.357,166.677
	l8.828-8.828C241.288,287.631,233.24,224.213,247.172,176.552z"/>
<path style="fill:#FFC69F;" d="M227.678,114.942l-0.803-0.481c-0.035,0.194-0.049,0.386-0.087,0.579
	c12.215,41.489,2.73,61.512,2.73,61.512h17.655C252.414,158.621,239.633,125.057,227.678,114.942z"/>
<path style="fill:#00BE94;" d="M272.928,110.086c-6.483,0-16.928,9.087-16.928,9.087s-10.445-9.087-16.928-9.087
	c-3.738,0-12.545,2.678-12.774,6.231c-0.259,4.02,1.977,15.132,1.977,15.132c1.138,4.911,7.351,7.034,9.931,7.034
	c7.172,0,17.793-4.414,17.793-4.414s10.621,4.414,17.793,4.414c2.58,0,8.793-2.123,9.931-7.034c0,0,2.237-11.112,1.977-15.132
	C285.473,112.762,276.666,110.086,272.928,110.086z"/>
<path style="fill:#00A68B;" d="M249.969,136.217c-8.76,0.568-21.141-3.804-17.708-24.67c-3.069,1.124-5.835,2.802-5.962,4.769
	c-0.259,4.02,1.977,15.132,1.977,15.132c1.138,4.911,7.351,7.034,9.931,7.034C241.857,138.483,246.387,137.341,249.969,136.217z"/>
<g>
</g>
<g>
</g>
<g>
</g>
<g>
</g>
<g>
</g>
<g>
</g>
<g>
</g>
<g>
</g>
<g>
</g>
<g>
</g>
<g>
</g>
<g>
</g>
<g>
</g>
<g>
</g>
<g>
</g>
</svg>
