<?xml version="1.0" encoding="iso-8859-1"?>
<!-- Generator: Adobe Illustrator 19.0.0, SVG Export Plug-In . SVG Version: 6.00 Build 0)  -->
<svg version="1.1" id="Layer_1" xmlns="http://www.w3.org/2000/svg" xmlns:xlink="http://www.w3.org/1999/xlink" x="0px" y="0px"
	 viewBox="0 0 512 512" style="enable-background:new 0 0 512 512;" xml:space="preserve">
<polygon style="fill:#444460;" points="354.171,329.604 253.429,296.855 346.632,67.249 413.793,89.081 "/>
<g>
	<circle style="fill:#54546F;" cx="388.403" cy="52.976" r="52.966"/>
	<polygon style="fill:#54546F;" points="380.212,78.165 287.009,307.771 354.171,329.604 413.793,89.081 	"/>
</g>
<path style="fill:#444460;" d="M374.163,96.1c-12.036-13.572-16.963-32.806-10.948-51.307c7.627-23.463,30.082-37.898,53.615-36.439
	c-3.694-2.35-7.7-4.329-12.056-5.745c-27.819-9.043-57.702,6.177-66.745,33.997c-8.884,27.329,5.209,56.602,32.099,66.201
	C371.057,100.734,373.309,97.051,374.163,96.1z"/>
<path style="fill:#6E6E88;" d="M485.517,247.172H26.483C11.857,247.172,0,259.029,0,273.655v8.828
	c0,85.645,55.465,158.289,132.414,184.108v27.754c0,9.75,7.905,17.655,17.655,17.655h211.862c9.75,0,17.655-7.905,17.655-17.655
	V466.59C456.535,440.771,512,368.128,512,282.482v-8.828C512,259.029,500.143,247.172,485.517,247.172z"/>
<path style="fill:#54546F;" d="M238.345,494.344V466.59c-76.949-25.82-132.414-98.463-132.414-184.108v-8.828
	c0-14.626,11.857-26.483,26.483-26.483H26.483C11.857,247.172,0,259.029,0,273.655v8.828c0,85.645,55.465,158.289,132.414,184.108
	v27.754c0,9.75,7.905,17.655,17.655,17.655H256C246.25,512,238.345,504.094,238.345,494.344z"/>
<circle style="fill:#52C874;" cx="220.69" cy="203.034" r="17.655"/>
<circle style="fill:#79E44F;" cx="256" cy="158.896" r="8.828"/>
<circle style="fill:#52C874;" cx="423.724" cy="220.689" r="8.828"/>
<circle style="fill:#FFE159;" cx="450.207" cy="185.379" r="8.828"/>
<circle style="fill:#79E44F;" cx="132.414" cy="211.862" r="8.828"/>
<g>
	<circle style="fill:#FFE159;" cx="238.345" cy="123.586" r="8.828"/>
	<circle style="fill:#FFE159;" cx="105.931" cy="176.551" r="8.828"/>
</g>
<circle style="fill:#79E44F;" cx="176.552" cy="158.896" r="17.655"/>
<path style="fill:#8B8BA0;" d="M397.255,428.935c-3.057,0-6.022-1.587-7.656-4.423c-2.435-4.224-0.988-9.621,3.242-12.056
	c28.151-16.22,50.612-41.655,63.245-71.616c1.892-4.491,7.06-6.603,11.564-4.703c4.491,1.892,6.599,7.073,4.703,11.564
	c-14.121,33.492-39.233,61.922-70.702,80.052C400.263,428.556,398.75,428.935,397.255,428.935z"/>
<path style="fill:#A9A9B8;" d="M474.492,317.793c-0.483,0-0.974-0.039-1.47-0.12c-4.81-0.81-8.052-5.362-7.245-10.168
	c1.383-8.237,2.086-16.655,2.086-25.022c0-4.875,3.953-8.828,8.828-8.828c4.875,0,8.828,3.953,8.828,8.828
	c0,9.345-0.785,18.745-2.327,27.944C482.465,314.741,478.724,317.793,474.492,317.793z"/>
<g>
</g>
<g>
</g>
<g>
</g>
<g>
</g>
<g>
</g>
<g>
</g>
<g>
</g>
<g>
</g>
<g>
</g>
<g>
</g>
<g>
</g>
<g>
</g>
<g>
</g>
<g>
</g>
<g>
</g>
</svg>
