<?xml version="1.0" encoding="iso-8859-1"?>
<!-- Generator: Adobe Illustrator 19.0.0, SVG Export Plug-In . SVG Version: 6.00 Build 0)  -->
<svg version="1.1" id="Layer_1" xmlns="http://www.w3.org/2000/svg" xmlns:xlink="http://www.w3.org/1999/xlink" x="0px" y="0px"
	 viewBox="0 0 512 512" style="enable-background:new 0 0 512 512;" xml:space="preserve">
<path style="fill:#FFC83C;" d="M339.743,333.377c-5.198,0-10.349-2.264-13.845-6.632l7.538-6.038
	c2.783,3.462,7.854,4.038,11.316,1.255c3.467-2.774,4.028-7.849,1.255-11.311c-2.029-2.547-5.363-3.603-8.49-2.727
	c-5.104,1.462-10.165,0.01-13.207-3.774l-10.486-13.113L321.37,285l10.482,13.104c0.661,0.831,1.995,0.821,3.024,0.537
	c6.864-1.99,14.213,0.386,18.68,5.971c6.099,7.632,4.858,18.802-2.764,24.896C347.53,332.113,343.624,333.377,339.743,333.377z"/>
<path style="fill:#7C4632;" d="M227.025,405.736h-19.321l4.61,101.439c0.123,2.7,2.347,4.825,5.05,4.825l0,0
	c2.702,0,4.927-2.125,5.05-4.825L227.025,405.736z"/>
<path style="fill:#895438;" d="M204.772,415.396h26.566c1.048,0,1.897-0.85,1.897-1.897v-17.424h-30.361v17.424
	C202.875,414.546,203.723,415.396,204.772,415.396z"/>
<path style="fill:#355F6A;" d="M201.63,106.264l-14.557,3.76c-13.611,3.516-23.399,15.414-24.225,29.448l-8.275,140.678
	l19.321,28.981L201.63,106.264z"/>
<path style="fill:#00ABB5;" d="M281.403,106.264l14.557,3.76c13.611,3.516,23.399,15.414,24.225,29.448l8.275,140.678
	l-19.321,28.981L281.403,106.264z"/>
<g>
	<path style="fill:#522E2E;" d="M241.516,19.321h-0.03c-17.767,0-33.856,21.523-38.611,38.642c-1.509,5.434-7.849,38.34-9.66,57.962
		h48.302V19.321z"/>
	<path style="fill:#522E2E;" d="M241.516,19.321h0.03c17.767,0,33.856,21.523,38.611,38.642c1.509,5.434,7.849,38.34,9.66,57.962
		h-48.302V19.321z"/>
</g>
<path style="fill:#373F55;" d="M300.401,488.31l-10.583-5.291V309.132h9.66V260.83h-20.457l-18.184-154.566l-19.321,9.66
	l-19.321-9.66L204.011,260.83h-10.797v48.302v86.943h40.022l8.28-86.943L260.837,512h48.302v-9.552
	C309.139,496.461,305.756,490.987,300.401,488.31z"/>
<rect x="212.54" y="251.17" style="fill:#23233A;" width="57.962" height="19.321"/>
<rect x="221.863" y="241.598" transform="matrix(0.9643 0.2648 -0.2648 0.9643 77.8751 -51.1797)" style="fill:#4B2E2E;" width="13.801" height="43.305"/>
<polygon style="fill:#CAE6EB;" points="213.061,281.381 233.023,286.864 199.35,432.12 173.893,459.673 166.081,422.982 "/>
<polygon style="fill:#B6D2DC;" points="233.023,286.864 223.043,284.123 173.893,459.673 199.35,432.12 "/>
<path style="fill:#FFC83C;" d="M231.759,231.471l10.73,2.946c2.271,0.623,3.285,3.212,1.995,5.095l-3.352,4.895l-13.307-3.655
	l-0.382-5.922C227.295,232.554,229.488,230.847,231.759,231.471z"/>
<g>
	<polygon style="fill:#6C392C;" points="218.154,275.87 233.225,273.101 231.461,279.525 216.389,282.294 	"/>
	<polygon style="fill:#6C392C;" points="221.682,263.022 236.755,260.252 234.99,266.676 219.918,269.446 	"/>
	<polygon style="fill:#6C392C;" points="225.212,250.172 240.283,247.403 238.519,253.828 223.446,256.597 	"/>
</g>
<polygon style="fill:#FFC83C;" points="222.69,285.407 245.096,295.016 246.861,288.59 225.336,275.77 200.283,275.799 
	198.519,282.223 "/>
<polygon style="fill:#FFB432;" points="222.69,285.407 245.096,295.016 246.861,288.59 225.336,275.77 "/>
<path style="fill:#23233A;" d="M289.818,396.075v86.943l10.583,5.291c5.355,2.677,8.738,8.151,8.738,14.138V512h-48.302
	l-11.041-115.925H289.818z"/>
<path style="fill:#23838F;" d="M222.195,106.264l-9.66,309.132l-48.302-19.321L182.351,124.3
	c0.676-10.149,9.106-18.036,19.279-18.036H222.195z"/>
<path style="fill:#2C6979;" d="M182.351,124.3l-18.118,271.775l19.982,7.994l17.414-297.805
	C191.457,106.264,183.027,114.151,182.351,124.3z"/>
<path style="fill:#23838F;" d="M260.837,106.264l9.66,309.132l48.302-19.321L300.681,124.3
	c-0.677-10.149-9.107-18.036-19.278-18.036H260.837z"/>
<path style="fill:#FFB98F;" d="M241.516,125.585L241.516,125.585c-10.671,0-19.321-8.65-19.321-19.321V86.943h38.642v19.321
	C260.837,116.935,252.186,125.585,241.516,125.585z"/>
<path style="fill:#FFD5B2;" d="M261.893,102.34l-9.66,6.44c-6.489,4.327-14.945,4.327-21.434,0l-9.66-6.44
	c-5.375-3.583-8.604-9.616-8.604-16.076V67.623c0-16.006,12.975-28.981,28.981-28.981l0,0c16.006,0,28.981,12.975,28.981,28.981
	v18.641C270.497,92.724,267.268,98.756,261.893,102.34z"/>
<path style="fill:#FFC69F;" d="M238.288,111.552c-8.136-6.841-16.093-17.227-16.093-30.459v-34.93
	c-5.888,5.305-9.66,12.91-9.66,21.459v18.641c0,6.46,3.229,12.492,8.604,16.076l9.66,6.44c1.264,0.843,2.647,1.383,4.032,1.897
	C235.963,111.05,237.117,111.352,238.288,111.552z"/>
<polygon style="fill:#522E2E;" points="212.171,82.783 208.124,76.783 256.878,43.934 260.926,49.934 "/>
<path style="fill:#6E443F;" d="M256.007,96.604L256.007,96.604c-2.667,0-4.83-2.163-4.83-4.83l0,0c0-2.667-2.163-4.83-4.83-4.83
	h-9.66c-2.667,0-4.83,2.163-4.83,4.83l0,0c0,2.667-2.163,4.83-4.83,4.83l0,0c-2.667,0-4.83-2.163-4.83-4.83v-4.83
	c0-5.335-4.325-9.66-9.66-9.66l0,0v8.981c0,6.459,3.228,12.492,8.603,16.075l9.662,6.441c6.489,4.327,14.945,4.327,21.434,0
	l9.662-6.441c5.375-3.583,8.603-9.616,8.603-16.075v-8.981l0,0c-5.335,0-9.66,4.325-9.66,9.66v4.83
	C260.837,94.441,258.674,96.604,256.007,96.604z"/>
<path style="fill:#522E2E;" d="M238.288,111.552c-4.662-3.92-9.214-9.04-12.295-15.156c-2.155-0.484-3.799-2.321-3.799-4.622v-4.83
	c0-5.335-4.325-9.66-9.66-9.66l-0.256,8.981c0,1.614,0.202,3.202,0.588,4.732c0.774,3.06,2.411,5.87,4.528,8.211
	c0.169,0.187,0.729,0.914,0.906,1.094c0.93,0.95,1.663,1.436,2.793,2.189l9.705,6.289c1.264,0.843,2.647,1.383,4.032,1.897
	C235.963,111.05,237.117,111.352,238.288,111.552z"/>
<path style="fill:#23233A;" d="M202.875,57.962c8.365-4.316,20.802-9.66,38.642-9.66s30.277,5.345,38.642,9.66
	c2.84-2.817,9.66-10.636,9.66-19.321c0-14.491-19.321-19.321-19.321-19.321S262.044,0,241.516,0s-28.981,19.321-28.981,19.321
	s-19.321,4.83-19.321,19.321C193.214,47.326,200.034,55.145,202.875,57.962z"/>
<path style="fill:#0096A1;" d="M300.68,124.3l18.119,271.775l-19.983,7.994l-17.414-297.805
	C291.574,106.264,300.004,114.151,300.68,124.3z"/>
<path style="fill:#6C392C;" d="M211.657,492.679l0.658,14.495c0.123,2.7,2.347,4.825,5.05,4.825l0,0c2.702,0,4.927-2.125,5.05-4.825
	l0.658-14.495H211.657z"/>
<circle style="fill:#522E2E;" cx="229.373" cy="67.369" r="9.221"/>
<g>
</g>
<g>
</g>
<g>
</g>
<g>
</g>
<g>
</g>
<g>
</g>
<g>
</g>
<g>
</g>
<g>
</g>
<g>
</g>
<g>
</g>
<g>
</g>
<g>
</g>
<g>
</g>
<g>
</g>
</svg>
