<?xml version="1.0" encoding="iso-8859-1"?>
<!-- Generator: Adobe Illustrator 19.0.0, SVG Export Plug-In . SVG Version: 6.00 Build 0)  -->
<svg version="1.1" id="Layer_1" xmlns="http://www.w3.org/2000/svg" xmlns:xlink="http://www.w3.org/1999/xlink" x="0px" y="0px"
	 viewBox="0 0 512 512" style="enable-background:new 0 0 512 512;" xml:space="preserve">
<g>
	<path style="fill:#FFB432;" d="M256,27.927c-20.565,0-37.236,16.671-37.236,37.236v9.309c0,31.031-33.745,36.655-37.236,102.4
		c0,0,45.769,30.255,74.473,27.927V27.927z"/>
	<path style="fill:#FFB432;" d="M256,27.927c20.565,0,37.236,16.671,37.236,37.236v9.309c0,44.606,9.309,55.467,9.309,74.473
		c0,0-14.74,3.103-46.545,74.473V27.927z"/>
</g>
<path style="fill:#FF5A4E;" d="M279.734,232.87h-47.467l-19.128-90.031c-2.411-11.349,8.745-21.679,23.411-21.679h38.902
	c14.666,0,25.822,10.331,23.411,21.679L279.734,232.87z"/>
<path style="fill:#EB443F;" d="M226.157,204.276l-8.964-42.19l6.409-8.268l7.151,2.496l10.413,48.972
	C236.162,204.977,231.158,204.648,226.157,204.276z"/>
<path style="fill:#FF5A4E;" d="M330.473,512H181.527l15.241-242.036c1.897-31.299,27.833-55.711,59.191-55.711h0.081
	c31.357,0,57.294,24.412,59.191,55.711L330.473,512z"/>
<path style="fill:#FF7E68;" d="M315.231,269.964c-1.378-22.719-15.448-41.755-35.036-50.515c-7.468,0.63-12.632,1.06-12.632,1.06
	s12.486,13.769,17.917,40.145c4.784,23.233,14.377,207.704,16.597,251.345h28.396L315.231,269.964z"/>
<path style="fill:#EB443F;" d="M196.769,269.964c1.378-22.719,15.448-41.755,35.036-50.515c7.468,0.63,12.632,1.06,12.632,1.06
	s-12.486,13.769-17.917,40.145c-4.784,23.233-14.377,207.704-16.597,251.345h-28.396L196.769,269.964z"/>
<g>
	<polygon style="fill:#FFD5B2;" points="228.073,139.779 212.945,187.636 200.145,251.345 190.836,242.036 200.145,186.325 
		209.455,130.47 	"/>
	<path style="fill:#FFD5B2;" d="M190.836,242.036v23.273c0,2.57,2.084,4.655,4.655,4.655h15.127l-10.473-27.927H190.836z"/>
	<path style="fill:#FFD5B2;" d="M321.164,242.036v23.273c0,2.57-2.084,4.655-4.655,4.655h-15.127l10.473-27.927H321.164z"/>
</g>
<polygon style="fill:#EB443F;" points="289.652,186.182 222.348,186.182 229.64,220.509 282.36,220.509 "/>
<path style="fill:#FF7E68;" d="M285.809,204.276l8.964-42.19l-6.409-8.268l-7.151,2.496l-10.413,48.972
	C275.804,204.977,280.808,204.648,285.809,204.276z"/>
<polygon style="fill:#FF5A4E;" points="274.86,186.182 267.562,220.509 282.36,220.509 288.795,190.222 289.652,186.182 "/>
<polygon style="fill:#C33F39;" points="237.105,186.182 244.404,220.509 229.606,220.509 223.171,190.222 222.313,186.182 "/>
<polygon style="fill:#FFD5B2;" points="283.927,139.779 299.055,187.636 311.855,251.345 321.164,242.036 311.855,186.325 
	302.545,130.47 "/>
<path style="fill:#FF5A4E;" d="M302.535,119.583L256,111.709l-46.535,7.874c-5.857,0.991-10.889,4.717-13.546,10.031l-5.083,10.166
	L256,167.564l65.164-27.784l-5.082-10.164C313.425,124.302,308.393,120.575,302.535,119.583z"/>
<path style="fill:#FFC69F;" d="M256,139.493c9.537,0,17.281-10.81,18.368-24.677L256,111.709l-18.368,3.108
	C238.719,128.684,246.463,139.493,256,139.493z"/>
<path style="fill:#FFB98F;" d="M256,121.018L256,121.018c-5.141,0-9.309-4.168-9.309-9.309V83.782h18.618v27.927
	C265.309,116.85,261.141,121.018,256,121.018z"/>
<path style="fill:#FFD5B2;" d="M275.636,98.618l-9.309,6.206c-6.253,4.169-14.401,4.169-20.655,0l-9.309-6.206
	c-5.179-3.454-8.291-9.266-8.291-15.491V46.545h55.855v36.581C283.927,89.352,280.816,95.165,275.636,98.618z"/>
<path style="fill:#FFC69F;" d="M237.382,78.144v-12.98l-9.309,9.309v8.654c0,6.225,3.112,12.038,8.291,15.491l9.309,6.206
	c2.217,1.478,4.693,2.241,7.217,2.672C245.049,100.904,237.382,90.895,237.382,78.144z"/>
<path style="fill:#FFBE51;" d="M218.764,65.164v9.309c15.981,0,51.766-3.53,71.178-24.481C284.126,37.007,271.149,27.927,256,27.927
	C235.435,27.927,218.764,44.599,218.764,65.164z"/>
<path style="fill:#FF7E68;" d="M316.081,129.615c-2.657-5.313-7.688-9.04-13.546-10.032l-28.406-4.806
	c8.197,2.895,23.009,10.22,24.342,11.671c2.764,3.006,5.673,15.224,6.701,20.051l0.251-0.009l15.739-6.711L316.081,129.615z"/>
<path style="fill:#EB443F;" d="M195.919,129.615c2.657-5.313,7.688-9.04,13.546-10.032l28.406-4.806
	c-8.197,2.895-23.009,10.22-24.342,11.671c-2.764,3.006-5.673,15.224-6.701,20.051l-0.251-0.009l-15.739-6.711L195.919,129.615z"/>
<path style="fill:#FF6C5C;" d="M283.927,512l-9.309-237.382c0-2.57-2.084-4.655-4.655-4.655l0,0c-2.57,0-4.655,2.084-4.655,4.655
	V512H283.927z"/>
<path style="fill:#F84F46;" d="M237.382,512V358.4c0-2.57-2.084-4.655-4.655-4.655c-2.57,0-4.655,2.084-4.655,4.655L222.05,512
	H237.382z"/>
<polygon style="fill:#FFA035;" points="274.618,37.236 237.382,37.236 232.727,4.655 246.691,28.073 256,4.655 265.309,27.927 
	279.273,4.655 "/>
<g>
	<circle style="fill:#FFBE51;" cx="256" cy="4.655" r="4.655"/>
	<circle style="fill:#FFBE51;" cx="232.727" cy="4.655" r="4.655"/>
	<circle style="fill:#FFBE51;" cx="279.273" cy="4.655" r="4.655"/>
</g>
<g>
</g>
<g>
</g>
<g>
</g>
<g>
</g>
<g>
</g>
<g>
</g>
<g>
</g>
<g>
</g>
<g>
</g>
<g>
</g>
<g>
</g>
<g>
</g>
<g>
</g>
<g>
</g>
<g>
</g>
</svg>
