<?xml version="1.0" encoding="iso-8859-1"?>
<!-- Generator: Adobe Illustrator 19.0.0, SVG Export Plug-In . SVG Version: 6.00 Build 0)  -->
<svg version="1.1" id="Layer_1" xmlns="http://www.w3.org/2000/svg" xmlns:xlink="http://www.w3.org/1999/xlink" x="0px" y="0px"
	 viewBox="0 0 512 512" style="enable-background:new 0 0 512 512;" xml:space="preserve">
<path style="fill:#FFE159;" d="M257.655,257.655l40.399-15.064c9.279-18.805,18.845-41.247,28.249-67.77l-34.258,3.938l37.716-13.95
	C344.57,121.208,358.837,67.144,370.759,0c0,0-169.021,106.391-184.014,236.066l23.463,38.692l-24.46-16.307
	c0.847,30.892,11.082,62.793,34.943,94.652l8.828-17.655c0,0,28.416-16.778,62.221-80.532L257.655,257.655z"/>
<path style="fill:#FFC83C;" d="M229.517,353.103h-17.655c2.207-73.379,41.379-192,158.897-353.103l0,0
	C246.069,215.172,229.517,306.241,229.517,353.103z"/>
<path style="fill:#54546F;" d="M264.828,388.414H256c-4.875,0-8.828-3.953-8.828-8.828v-8.828H256c4.875,0,8.828-3.953,8.828-8.828
	s-3.953-8.828-8.828-8.828h-70.621c-4.875,0-8.828,3.953-8.828,8.828s3.953,8.828,8.828,8.828h8.828v8.828
	c0,4.875-3.953,8.828-8.828,8.828h-8.828c-19.501,0-35.31,15.809-35.31,35.31v52.966c0,19.501,15.809,35.31,35.31,35.31h88.276
	c19.501,0,35.31-15.809,35.31-35.31v-52.966C300.138,404.223,284.329,388.414,264.828,388.414z"/>
<path style="fill:#444460;" d="M176.552,476.69v-52.966c0-19.501,15.809-35.31,35.31-35.31h8.828c4.875,0,8.828-3.953,8.828-8.828
	v-8.828h-8.828c-4.875,0-8.828-3.953-8.828-8.828s3.953-8.828,8.828-8.828h-35.31c-4.875,0-8.828,3.953-8.828,8.828
	s3.953,8.828,8.828,8.828h8.828v8.828c0,4.875-3.953,8.828-8.828,8.828h-8.828c-19.501,0-35.31,15.809-35.31,35.31v52.966
	c0,19.501,15.809,35.31,35.31,35.31h35.31C192.361,512,176.552,496.191,176.552,476.69z"/>
<path style="fill:#FF6464;" d="M256,467.862h-70.621c-4.875,0-8.828-3.953-8.828-8.828v-17.655c0-4.875,3.953-8.828,8.828-8.828H256
	c4.875,0,8.828,3.953,8.828,8.828v17.655C264.828,463.91,260.875,467.862,256,467.862z"/>
<g>
</g>
<g>
</g>
<g>
</g>
<g>
</g>
<g>
</g>
<g>
</g>
<g>
</g>
<g>
</g>
<g>
</g>
<g>
</g>
<g>
</g>
<g>
</g>
<g>
</g>
<g>
</g>
<g>
</g>
</svg>
