<?xml version="1.0" encoding="iso-8859-1"?>
<!-- Generator: Adobe Illustrator 19.0.0, SVG Export Plug-In . SVG Version: 6.00 Build 0)  -->
<svg version="1.1" id="Layer_1" xmlns="http://www.w3.org/2000/svg" xmlns:xlink="http://www.w3.org/1999/xlink" x="0px" y="0px"
	 viewBox="0 0 512 512" style="enable-background:new 0 0 512 512;" xml:space="preserve">
<path style="fill:#9E6948;" d="M156.878,372.368L156.878,372.368c-1.783-0.988-2.426-3.236-1.436-5.018l45.648-82.166
	c0.988-1.78,3.232-2.422,5.013-1.435l0,0c1.782,0.988,2.426,3.236,1.436,5.018l-45.648,82.166
	C160.902,372.712,158.659,373.355,156.878,372.368z"/>
<path style="fill:#FFD5B2;" d="M268.409,108.309h19.692l36.358,7.271c7.794,1.559,13.889,7.652,15.447,15.447l17.117,85.589
	l-9.846,78.769v-19.692l-9.846-49.231c0,0-12.761-35.042-16-48c-2.462-9.846-4.731-21.418-5.018-18.844l-8.521,66.844
	l-39.385,49.231L268.409,108.309L268.409,108.309z"/>
<path style="fill:#794531;" d="M357.024,216.617c0,0-19.61,9.55-19.692,9.846c-5.231,18.769,4.923,66.052,4.923,66.052
	l-3.291,15.083c-0.96,4.4,1.188,8.891,5.216,10.906l12.843,6.422V216.617H357.024z"/>
<path style="fill:#FFD5B2;" d="M268.409,108.309h-19.692l-36.358,7.271c-7.794,1.559-13.889,7.652-15.447,15.447l-17.118,85.589
	l9.846,78.769v-19.692l9.846-49.231c0,0,12.761-35.042,16-48c2.462-9.846,4.731-21.418,5.018-18.844l8.521,66.844l39.385,49.231
	V108.309z"/>
<path style="fill:#FFC69F;" d="M212.359,115.58c-7.794,1.559-13.889,7.652-15.447,15.447l-17.117,85.589l0.953,7.622l8.894,2.224
	l17.341-86.706c1.436-7.178,6.879-12.887,13.982-14.662l37.6-6.939v-9.846h-9.846L212.359,115.58z"/>
<path style="fill:#895438;" d="M268.409,269.747c-2.874,0-5.746-1.239-7.728-3.716l-31.657-39.569l-14.645,75.751
	c-3.312,14.903-2.849,30.399,1.344,45.079l13.301,46.554l-27.771,64.8c-1.166,2.72-1.767,5.649-1.767,8.608v15.21l-9.846,29.535
	h43.025c3.249,0,5.719-2.917,5.185-6.122l-8.826-52.955l9.846-29.538h0.773c5.236,0,9.705-3.786,10.565-8.949l18.201-109.205
	V269.747z"/>
<path style="fill:#FFB98F;" d="M268.409,128.001L268.409,128.001c-10.876,0-19.692-8.816-19.692-19.692V78.771h39.385v29.538
	C288.101,119.185,279.285,128.001,268.409,128.001z"/>
<path style="fill:#FFD5B2;" d="M289.178,94.463l-9.846,6.564c-6.614,4.41-15.232,4.41-21.846,0l-9.846-6.564
	c-5.478-3.652-8.769-9.801-8.769-16.385V59.078c0-16.314,13.225-29.538,29.538-29.538l0,0c16.314,0,29.538,13.225,29.538,29.538
	v18.999C297.947,84.662,294.656,90.81,289.178,94.463z"/>
<path style="fill:#FFC69F;" d="M265.119,103.852c-8.293-6.972-16.402-17.558-16.402-31.045V37.206
	c-6.001,5.407-9.846,13.158-9.846,21.872v18.999c0,6.585,3.291,12.732,8.769,16.385l9.846,6.564c1.289,0.859,2.698,1.409,4.11,1.934
	C262.748,103.34,263.925,103.648,265.119,103.852z"/>
<path style="fill:#B1693C;" d="M283.178,88.617L283.178,88.617c-2.719,0-4.923-2.204-4.923-4.923l0,0
	c0-2.719-2.204-4.923-4.923-4.923h-9.846c-2.719,0-4.923,2.204-4.923,4.923l0,0c0,2.719-2.204,4.923-4.923,4.923l0,0
	c-2.719,0-4.923-2.204-4.923-4.923v-4.923c0-5.438-4.409-9.846-9.846-9.846l0,0v9.153c0,6.583,3.29,12.732,8.768,16.384l9.847,6.565
	c6.614,4.41,15.232,4.41,21.846,0l9.847-6.565c5.478-3.652,8.768-9.801,8.768-16.384v-9.153l0,0c-5.438,0-9.846,4.409-9.846,9.846
	v4.923C288.101,86.413,285.897,88.617,283.178,88.617z"/>
<path style="fill:#914F2C;" d="M265.119,103.852c-4.752-3.995-9.391-9.214-12.532-15.447c-2.197-0.494-3.872-2.366-3.872-4.711
	v-4.923c0-5.438-4.409-9.846-9.846-9.846v9.153c0,1.646,0.206,3.264,0.599,4.823c0.789,3.119,2.33,6,4.487,8.385
	c0.172,0.191,0.407,0.322,0.587,0.506c0.948,0.969,1.943,1.902,3.095,2.668l9.846,6.564c1.289,0.859,2.698,1.409,4.11,1.934
	C262.748,103.34,263.925,103.648,265.119,103.852z"/>
<path style="fill:#794531;" d="M229.024,226.463l-14.645,75.751c-3.312,14.903-2.849,30.399,1.344,45.079l13.301,46.554
	l-27.771,64.8c-1.166,2.72-1.767,5.648-1.767,8.608v15.211l-3.049,9.146c12.18,5.73,22.741,10.543,22.741,10.543v-49.231
	l17.406-52.218c1.504-4.511,1.936-9.31,1.264-14.016l-5.665-39.659c-2.089-14.617-1.518-29.492,1.686-43.905l12.279-55.259
	L229.024,226.463z"/>
<path style="fill:#59291D;" d="M199.486,482.466l34.487,25.862c1.568,1.177,0.737,3.673-1.223,3.673h-43.11L199.486,482.466z"/>
<path style="fill:#895438;" d="M268.409,269.747c2.874,0,5.746-1.239,7.728-3.716l31.657-39.569l14.645,75.751
	c3.312,14.903,2.849,30.399-1.344,45.079l-13.301,46.554l27.771,64.8c1.166,2.72,1.767,5.649,1.767,8.608v15.21l9.846,29.535
	h-43.025c-3.249,0-5.719-2.917-5.185-6.122l8.826-52.955l-9.846-29.538h-0.773c-5.236,0-9.705-3.786-10.565-8.949L268.409,305.23
	L268.409,269.747L268.409,269.747z"/>
<path style="fill:#9E6948;" d="M307.793,226.463l14.645,75.751c3.312,14.903,2.849,30.399-1.344,45.079l-13.301,46.554l27.771,64.8
	c1.166,2.72,1.767,5.648,1.767,8.608v15.211l3.049,9.146c-12.18,5.73-22.741,10.543-22.741,10.543v-49.231l-17.405-52.218
	c-1.504-4.511-1.936-9.31-1.264-14.016l5.665-39.659c2.089-14.617,1.516-29.492-1.686-43.905l-12.279-55.259L307.793,226.463z"/>
<path style="fill:#59291D;" d="M337.331,482.466l-34.487,25.862c-1.568,1.177-0.737,3.673,1.223,3.673h43.11L337.331,482.466z"/>
<g>
	<path style="fill:#794531;" d="M179.793,216.617c0,0,19.61,9.55,19.692,9.846c5.231,18.769-4.923,66.052-4.923,66.052l3.291,15.083
		c0.96,4.4-1.188,8.891-5.216,10.906l-12.843,6.422V216.617H179.793z"/>
	<path style="fill:#794531;" d="M238.87,59.078c0,0,29.538-3.077,39.385-19.692c0,0,4.308,16.615,19.692,19.692V39.386
		c0-10.876-8.816-19.692-19.692-19.692h-19.692c-10.876,0-19.692,8.816-19.692,19.692V59.078z"/>
</g>
<path style="fill:#FFC83C;" d="M240.231,37.215c0,0-1.274-4.981-3.707-7.993c-2.347-2.721-4.295-5.851-9.234-8.704
	c-2.457-1.422-5.178-2.558-8.05-3.047c-0.544-0.06-1.804-0.261-1.804-0.261l-3.305,0.071c-2.094,0.22-2.907,0.202-4.78,0.726
	c-6.711,1.468-13.012,6.641-14.982,13.495c-1.003,3.355-0.929,6.895,0.283,10.01c0.176,0.841,0.78,1.483,1.111,2.263
	c-0.268-0.049,1.306,1.82,1.637,2.187c0.592,0.7,2.127,1.839,3.452,2.464c5.734,2.896,13.838,0.34,15.317-3.21
	c0.826-1.541,0.923-4.457,0.327-6.428c-0.556-2.081-1.546-3.622-2.55-4.529c-2.011-1.845-3.919-1.815-3.862-1.911l0.982-8.106
	c-0.128,0.19,3.562-0.283,8.443,3.359c2.352,1.813,4.519,4.71,5.808,8.362c1.204,3.686,1.974,7.983,0,13.351
	c-2.112,5.175-6.95,8.73-12.036,10.412c-5.156,1.713-11.092,1.87-16.881-0.222c-2.917-1.18-5.488-2.497-8.262-5.189
	c-1.274-1.366-1.393-1.244-2.9-3.353c-0.818-1.327-1.86-2.55-2.438-4.043c-2.846-5.724-3.535-12.539-2.202-18.757
	c2.543-12.656,12.935-22.401,23.956-25.852c2.49-1.002,6.252-1.605,8.545-1.938l3.289-0.326c2.199-0.117,3.056,0.017,4.629,0.042
	c5.577,0.396,10.526,2.011,14.656,3.919c8.297,3.899,13.606,8.766,17.215,12.209c1.792,1.75,3.113,3.216,4.026,4.284
	c0.939,1.148,1.817,1.633,1.62,2.001C251.351,35.94,240.231,37.215,240.231,37.215z"/>
<path style="fill:#FFB432;" d="M219.511,27.602c-4.881-3.643-8.571-3.169-8.444-3.359l-0.586,4.839
	c10.249,0.29,14.556,13.521,9.941,20.444c-8.625,12.938-28.615,6.308-32.461-7.231c-3.563-12.544,4.359-27.949,20.975-31.846
	c15.279-3.584,32.919,9.12,41.803,21.637c2.671-2.175,5.44-5.177,7.794-9.583c0.197-0.369-0.681-0.853-1.62-2.001
	c-0.913-1.068-2.234-2.535-4.026-4.284c-3.609-3.444-8.918-8.31-17.215-12.209c-4.13-1.908-9.079-3.521-14.656-3.919
	c-1.572-0.026-2.43-0.159-4.629-0.042l-3.289,0.326c-2.293,0.334-6.055,0.937-8.545,1.938c-11.02,3.451-21.413,13.196-23.951,25.852
	c-1.333,6.218-0.642,13.033,2.202,18.757c0.578,1.493,1.621,2.716,2.438,4.043c1.506,2.108,1.626,1.985,2.898,3.353
	c2.774,2.692,5.345,4.009,8.262,5.189c5.79,2.09,11.726,1.934,16.881,0.222c5.086-1.682,9.924-5.237,12.036-10.412
	c1.974-5.367,1.202-9.665,0-13.351C224.032,32.312,221.863,29.414,219.511,27.602z"/>
<path style="fill:#FFC83C;" d="M296.584,37.215c0,0,1.274-4.981,3.707-7.993c2.347-2.721,4.295-5.851,9.234-8.704
	c2.457-1.422,5.178-2.558,8.05-3.047c0.544-0.06,1.804-0.261,1.804-0.261l3.305,0.071c2.094,0.22,2.907,0.202,4.78,0.726
	c6.711,1.468,13.012,6.641,14.982,13.495c1.003,3.355,0.929,6.895-0.283,10.01c-0.176,0.841-0.78,1.483-1.111,2.263
	c0.268-0.049-1.306,1.82-1.637,2.187c-0.592,0.7-2.127,1.839-3.452,2.464c-5.734,2.896-13.838,0.34-15.317-3.21
	c-0.826-1.541-0.923-4.457-0.327-6.428c0.556-2.081,1.546-3.622,2.55-4.529c2.011-1.845,3.919-1.815,3.862-1.911l-0.982-8.106
	c0.128,0.19-3.562-0.283-8.443,3.359c-2.352,1.813-4.519,4.71-5.808,8.362c-1.204,3.686-1.974,7.983,0,13.351
	c2.112,5.175,6.95,8.73,12.036,10.412c5.156,1.713,11.092,1.87,16.881-0.222c2.917-1.18,5.488-2.497,8.262-5.189
	c1.274-1.366,1.393-1.244,2.9-3.353c0.818-1.327,1.86-2.55,2.438-4.043c2.846-5.724,3.535-12.539,2.202-18.757
	c-2.543-12.656-12.935-22.401-23.956-25.852c-2.49-1.002-6.252-1.605-8.545-1.938l-3.289-0.326
	c-2.199-0.117-3.056,0.017-4.629,0.042c-5.577,0.396-10.526,2.011-14.656,3.919c-8.297,3.899-13.606,8.766-17.215,12.209
	c-1.792,1.75-3.113,3.216-4.026,4.284c-0.939,1.148-1.817,1.633-1.62,2.001C285.465,35.94,296.584,37.215,296.584,37.215z"/>
<path style="fill:#FFB432;" d="M317.304,27.602c4.881-3.643,8.571-3.169,8.444-3.359l0.586,4.839
	c-10.249,0.29-14.556,13.521-9.941,20.444c8.625,12.938,28.615,6.308,32.461-7.231c3.563-12.544-4.359-27.949-20.975-31.846
	c-15.279-3.584-32.919,9.12-41.803,21.637c-2.671-2.175-5.44-5.177-7.794-9.583c-0.197-0.369,0.681-0.853,1.62-2.001
	c0.913-1.068,2.234-2.535,4.026-4.284c3.609-3.444,8.918-8.31,17.215-12.209c4.13-1.908,9.079-3.521,14.656-3.919
	c1.572-0.026,2.43-0.159,4.629-0.042l3.289,0.326c2.293,0.334,6.055,0.937,8.545,1.938c11.02,3.451,21.413,13.196,23.951,25.852
	c1.333,6.218,0.642,13.033-2.202,18.757c-0.578,1.493-1.621,2.716-2.438,4.043c-1.506,2.108-1.626,1.985-2.898,3.353
	c-2.774,2.692-5.345,4.009-8.262,5.189c-5.79,2.09-11.726,1.934-16.881,0.222c-5.086-1.682-9.924-5.237-12.036-10.412
	c-1.974-5.367-1.202-9.665,0-13.351C312.784,32.312,314.954,29.414,317.304,27.602z"/>
<g>
	<path style="fill:#FFC69F;" d="M246.148,247.867l-5.691-78.331c-0.714-9.82-11.696-15.277-19.954-9.916l0,0l8.521,66.844
		L246.148,247.867z"/>
	<path style="fill:#FFC69F;" d="M288.101,108.309V96.627c-2.745,4.668-11.847,15.625-37.457,20.048
		c3.152,6.676,9.893,11.327,17.765,11.327C279.285,128.001,288.101,119.184,288.101,108.309z"/>
</g>
<g>
</g>
<g>
</g>
<g>
</g>
<g>
</g>
<g>
</g>
<g>
</g>
<g>
</g>
<g>
</g>
<g>
</g>
<g>
</g>
<g>
</g>
<g>
</g>
<g>
</g>
<g>
</g>
<g>
</g>
</svg>
