<?xml version="1.0" encoding="iso-8859-1"?>
<!-- Generator: Adobe Illustrator 19.0.0, SVG Export Plug-In . SVG Version: 6.00 Build 0)  -->
<svg version="1.1" id="Layer_1" xmlns="http://www.w3.org/2000/svg" xmlns:xlink="http://www.w3.org/1999/xlink" x="0px" y="0px"
	 viewBox="0 0 512 512" style="enable-background:new 0 0 512 512;" xml:space="preserve">
<g>
	<polygon style="fill:#FAE6A7;" points="154.483,105.931 150.069,141.241 145.655,105.931 132.414,105.931 123.586,176.552 
		114.759,105.931 79.448,105.931 79.448,406.069 339.862,406.069 344.276,370.759 348.69,406.069 361.931,406.069 370.759,335.448 
		379.586,406.069 432.552,406.069 432.552,105.931 	"/>
	<rect x="432.552" y="97.103" style="fill:#FAE6A7;" width="70.621" height="317.793"/>
	<rect x="8.828" y="97.103" style="fill:#FAE6A7;" width="70.621" height="317.793"/>
</g>
<g>
	<rect x="8.828" y="105.931" style="fill:#EBD798;" width="26.483" height="300.138"/>
	<rect x="432.552" y="105.931" style="fill:#EBD798;" width="26.483" height="300.138"/>
</g>
<g>
	<rect x="485.517" y="105.931" style="fill:#FFF4CB;" width="17.655" height="300.138"/>
	<rect x="61.793" y="105.931" style="fill:#FFF4CB;" width="17.655" height="300.138"/>
</g>
<rect x="79.448" y="105.931" style="fill:#EBD798;" width="17.655" height="300.138"/>
<rect x="414.897" y="105.931" style="fill:#E1CD93;" width="17.655" height="300.138"/>
<g>
	<path style="fill:#895438;" d="M79.448,105.931H8.828c-4.875,0-8.828-3.953-8.828-8.828l0,0c0-4.875,3.953-8.828,8.828-8.828
		h70.621c4.875,0,8.828,3.953,8.828,8.828l0,0C88.276,101.978,84.323,105.931,79.448,105.931z"/>
	<path style="fill:#895438;" d="M52.966,88.276H35.31l-7.071-70.708C27.299,8.162,34.685,0,44.138,0l0,0
		c9.453,0,16.839,8.162,15.898,17.568L52.966,88.276z"/>
</g>
<path style="fill:#FFE159;" d="M52.966,88.276H35.31c-4.875,0-8.828-3.953-8.828-8.828l0,0c0-4.875,3.953-8.828,8.828-8.828h17.655
	c4.875,0,8.828,3.953,8.828,8.828l0,0C61.793,84.323,57.841,88.276,52.966,88.276z"/>
<path style="fill:#FFC83C;" d="M35.31,88.276L35.31,88.276c-4.875,0-8.828-3.953-8.828-8.828l0,0c0-4.875,3.953-8.828,8.828-8.828
	l0,0c4.875,0,8.828,3.953,8.828,8.828l0,0C44.138,84.323,40.185,88.276,35.31,88.276z"/>
<g>
	<path style="fill:#895438;" d="M8.828,406.069h70.621c4.875,0,8.828,3.953,8.828,8.828l0,0c0,4.875-3.953,8.828-8.828,8.828H8.828
		c-4.875,0-8.828-3.953-8.828-8.828l0,0C0,410.022,3.953,406.069,8.828,406.069z"/>
	<path style="fill:#895438;" d="M35.31,423.724h17.655l7.071,70.708C60.977,503.838,53.591,512,44.138,512l0,0
		c-9.453,0-16.839-8.162-15.898-17.568L35.31,423.724z"/>
</g>
<path style="fill:#FFE159;" d="M35.31,423.724h17.655c4.875,0,8.828,3.953,8.828,8.828l0,0c0,4.875-3.953,8.828-8.828,8.828H35.31
	c-4.875,0-8.828-3.953-8.828-8.828l0,0C26.483,427.677,30.435,423.724,35.31,423.724z"/>
<g>
	<path style="fill:#895438;" d="M503.172,105.931h-70.621c-4.875,0-8.828-3.953-8.828-8.828l0,0c0-4.875,3.953-8.828,8.828-8.828
		h70.621c4.875,0,8.828,3.953,8.828,8.828l0,0C512,101.978,508.047,105.931,503.172,105.931z"/>
	<path style="fill:#895438;" d="M476.69,88.276h-17.655l-7.071-70.708C451.023,8.162,458.409,0,467.862,0l0,0
		c9.453,0,16.839,8.162,15.898,17.568L476.69,88.276z"/>
</g>
<path style="fill:#FFE159;" d="M476.69,88.276h-17.655c-4.875,0-8.828-3.953-8.828-8.828l0,0c0-4.875,3.953-8.828,8.828-8.828
	h17.655c4.875,0,8.828,3.953,8.828,8.828l0,0C485.517,84.323,481.565,88.276,476.69,88.276z"/>
<g>
	<path style="fill:#895438;" d="M432.552,406.069h70.621c4.875,0,8.828,3.953,8.828,8.828l0,0c0,4.875-3.953,8.828-8.828,8.828
		h-70.621c-4.875,0-8.828-3.953-8.828-8.828l0,0C423.724,410.022,427.677,406.069,432.552,406.069z"/>
	<path style="fill:#895438;" d="M459.034,423.724h17.655l7.071,70.708c0.94,9.406-6.445,17.568-15.898,17.568l0,0
		c-9.453,0-16.839-8.162-15.898-17.568L459.034,423.724z"/>
</g>
<path style="fill:#FFE159;" d="M459.034,423.724h17.655c4.875,0,8.828,3.953,8.828,8.828l0,0c0,4.875-3.953,8.828-8.828,8.828
	h-17.655c-4.875,0-8.828-3.953-8.828-8.828l0,0C450.207,427.677,454.159,423.724,459.034,423.724z"/>
<g>
	<path style="fill:#6C392C;" d="M35.31,105.931H8.828c-4.875,0-8.828-3.953-8.828-8.828l0,0c0-4.875,3.953-8.828,8.828-8.828H35.31
		c4.875,0,8.828,3.953,8.828,8.828l0,0C44.138,101.978,40.185,105.931,35.31,105.931z"/>
	<path style="fill:#6C392C;" d="M35.31,423.724H8.828c-4.875,0-8.828-3.953-8.828-8.828l0,0c0-4.875,3.953-8.828,8.828-8.828H35.31
		c4.875,0,8.828,3.953,8.828,8.828l0,0C44.138,419.772,40.185,423.724,35.31,423.724z"/>
	<path style="fill:#6C392C;" d="M459.034,105.931h-26.483c-4.875,0-8.828-3.953-8.828-8.828l0,0c0-4.875,3.953-8.828,8.828-8.828
		h26.483c4.875,0,8.828,3.953,8.828,8.828l0,0C467.862,101.978,463.91,105.931,459.034,105.931z"/>
	<path style="fill:#6C392C;" d="M459.034,423.724h-26.483c-4.875,0-8.828-3.953-8.828-8.828l0,0c0-4.875,3.953-8.828,8.828-8.828
		h26.483c4.875,0,8.828,3.953,8.828,8.828l0,0C467.862,419.772,463.91,423.724,459.034,423.724z"/>
</g>
<g>
	<path style="fill:#FFC83C;" d="M35.31,441.379L35.31,441.379c-4.875,0-8.828-3.953-8.828-8.828l0,0
		c0-4.875,3.953-8.828,8.828-8.828l0,0c4.875,0,8.828,3.953,8.828,8.828l0,0C44.138,437.427,40.185,441.379,35.31,441.379z"/>
	<path style="fill:#FFC83C;" d="M459.034,88.276L459.034,88.276c-4.875,0-8.828-3.953-8.828-8.828l0,0
		c0-4.875,3.953-8.828,8.828-8.828l0,0c4.875,0,8.828,3.953,8.828,8.828l0,0C467.862,84.323,463.91,88.276,459.034,88.276z"/>
	<path style="fill:#FFC83C;" d="M459.034,441.379L459.034,441.379c-4.875,0-8.828-3.953-8.828-8.828l0,0
		c0-4.875,3.953-8.828,8.828-8.828l0,0c4.875,0,8.828,3.953,8.828,8.828l0,0C467.862,437.427,463.91,441.379,459.034,441.379z"/>
</g>
<g>
</g>
<g>
</g>
<g>
</g>
<g>
</g>
<g>
</g>
<g>
</g>
<g>
</g>
<g>
</g>
<g>
</g>
<g>
</g>
<g>
</g>
<g>
</g>
<g>
</g>
<g>
</g>
<g>
</g>
</svg>
