<?xml version="1.0" encoding="iso-8859-1"?>
<!-- Generator: Adobe Illustrator 19.0.0, SVG Export Plug-In . SVG Version: 6.00 Build 0)  -->
<svg version="1.1" id="Layer_1" xmlns="http://www.w3.org/2000/svg" xmlns:xlink="http://www.w3.org/1999/xlink" x="0px" y="0px"
	 viewBox="0 0 512 512" style="enable-background:new 0 0 512 512;" xml:space="preserve">
<rect x="203.035" y="17.655" style="fill:#895438;" width="17.655" height="476.69"/>
<rect x="35.311" y="247.172" style="fill:#4B2E2E;" width="404.91" height="17.655"/>
<path style="fill:#FFC83C;" d="M344.277,291.311h-4.414c-2.392,0-4.414-2.022-4.414-4.414v-30.895v-30.897
	c0-2.392,2.022-4.414,4.414-4.414h4.414c9.75,0,17.655-7.905,17.655-17.655c0-47.604-39.125-86.824-73.642-121.427
	c-23.345-23.405-47.482-47.604-50.116-66.401c-1.35-9.66-10.28-16.392-19.932-15.034c-9.655,1.35-16.388,10.276-15.034,19.932
	c4.267,30.483,31.38,57.664,60.082,86.44c26.526,26.591,53.818,53.953,61.323,81.879c-14.358,5.992-24.474,20.177-24.474,36.681
	v30.897v30.895c0,16.504,10.116,30.689,24.474,36.681c-7.505,27.926-34.797,55.288-61.323,81.878
	c-28.703,28.776-55.815,55.956-60.082,86.439c-1.354,9.655,5.379,18.582,15.034,19.932c9.651,1.357,18.582-5.375,19.932-15.034
	c2.634-18.797,26.772-42.995,50.116-66.4c34.517-34.603,73.642-73.823,73.642-121.426
	C361.932,299.216,354.027,291.311,344.277,291.311z"/>
<path style="fill:#FFB432;" d="M335.45,308.966c-9.75,0-17.655-7.905-17.655-17.655v-35.31v-35.31
	c0-9.751,7.905-17.655,17.655-17.655h8.828c0-77.977-123.586-136.276-123.586-185.379V0.078c-0.812,0-1.621-0.021-2.449,0.096
	c-9.655,1.35-16.388,10.276-15.034,19.932c4.267,30.483,31.38,57.664,60.082,86.44c26.526,26.591,53.819,53.953,61.323,81.879
	c-14.358,5.992-24.474,20.177-24.474,36.681v30.897v30.895c0,16.504,10.116,30.689,24.474,36.681
	c-7.505,27.926-34.797,55.288-61.323,81.878c-28.703,28.776-55.815,55.956-60.082,86.439c-1.354,9.655,5.379,18.582,15.034,19.932
	c0.828,0.116,1.636,0.095,2.449,0.096v-17.576c0-49.103,123.586-107.402,123.586-185.379h-8.828V308.966z"/>
<polygon style="fill:#FFE159;" points="503.173,256 406.069,220.689 422.087,256.002 406.069,291.31 "/>
<polygon style="fill:#FFC83C;" points="422.087,256.001 406.069,291.31 503.173,256 422.087,256 "/>
<g>
	<polygon style="fill:#FFB432;" points="26.483,282.482 8.828,282.482 35.311,256 52.966,256 	"/>
	<polygon style="fill:#FFB432;" points="52.966,282.482 35.311,282.482 61.793,256 79.448,256 	"/>
	<polygon style="fill:#FFB432;" points="79.448,282.482 61.793,282.482 88.276,256 105.931,256 	"/>
</g>
<g>
	<polygon style="fill:#FFC83C;" points="26.483,229.517 8.828,229.517 35.311,256 52.966,256 	"/>
	<polygon style="fill:#FFC83C;" points="52.966,229.517 35.311,229.517 61.793,256 79.448,256 	"/>
	<polygon style="fill:#FFC83C;" points="79.448,229.517 61.793,229.517 88.276,256 105.931,256 	"/>
</g>
<polygon style="fill:#FFB432;" points="105.931,282.482 88.276,282.482 114.759,256 132.414,256 "/>
<polygon style="fill:#FFC83C;" points="105.931,229.517 88.276,229.517 114.759,256 132.414,256 "/>
<g>
</g>
<g>
</g>
<g>
</g>
<g>
</g>
<g>
</g>
<g>
</g>
<g>
</g>
<g>
</g>
<g>
</g>
<g>
</g>
<g>
</g>
<g>
</g>
<g>
</g>
<g>
</g>
<g>
</g>
</svg>
