<?xml version="1.0" encoding="iso-8859-1"?>
<!-- Generator: Adobe Illustrator 19.0.0, SVG Export Plug-In . SVG Version: 6.00 Build 0)  -->
<svg version="1.1" id="Layer_1" xmlns="http://www.w3.org/2000/svg" xmlns:xlink="http://www.w3.org/1999/xlink" x="0px" y="0px"
	 viewBox="0 0 512 512" style="enable-background:new 0 0 512 512;" xml:space="preserve">
<polygon style="fill:#EB443F;" points="176.552,326.621 176.552,308.966 256,256 335.448,308.966 335.448,326.621 "/>
<rect x="176.552" y="326.621" style="fill:#FFAB34;" width="158.897" height="185.379"/>
<rect x="229.517" y="141.241" style="fill:#FFC83C;" width="52.966" height="370.759"/>
<rect x="229.517" y="141.241" style="fill:#FFB432;" width="17.655" height="370.759"/>
<polygon style="fill:#FF5A4E;" points="256,17.655 220.69,150.069 291.31,150.069 "/>
<polygon style="fill:#EB443F;" points="256,17.655 220.69,150.069 247.172,150.069 "/>
<path style="fill:#FF5A4E;" d="M295.724,0C278.137,0,272.966,8.828,256,8.828v17.655c16.966,0,22.138-8.828,39.724-8.828
	c5.601,0,9.982,1.643,13.241,3.502l-6.207-10.951l6.207-6.705C305.706,1.643,301.325,0,295.724,0z"/>
<rect x="123.586" y="203.034" style="fill:#FFC83C;" width="52.966" height="308.966"/>
<g>
	<path style="fill:#A63F0D;" d="M158.897,256h-17.655v-17.655c0-4.875,3.953-8.828,8.828-8.828l0,0c4.875,0,8.828,3.953,8.828,8.828
		V256z"/>
	<path style="fill:#A63F0D;" d="M158.897,300.138h-17.655v-17.655c0-4.875,3.953-8.828,8.828-8.828l0,0
		c4.875,0,8.828,3.953,8.828,8.828V300.138z"/>
	<path style="fill:#A63F0D;" d="M158.897,406.069h-17.655v-17.655c0-4.875,3.953-8.828,8.828-8.828l0,0
		c4.875,0,8.828,3.953,8.828,8.828V406.069z"/>
</g>
<rect x="123.586" y="203.034" style="fill:#FFB432;" width="17.655" height="308.966"/>
<polygon style="fill:#FF5A4E;" points="150.069,79.448 114.759,211.862 185.379,211.862 "/>
<polygon style="fill:#EB443F;" points="150.069,79.448 114.759,211.862 141.241,211.862 "/>
<path style="fill:#FF5A4E;" d="M189.793,61.793c-17.587,0-22.759,8.828-39.724,8.828v17.655c16.966,0,22.138-8.828,39.724-8.828
	c5.601,0,9.982,1.643,13.241,3.502L196.828,72l6.207-6.705C199.775,63.436,195.394,61.793,189.793,61.793z"/>
<rect x="70.621" y="379.586" style="fill:#FFC83C;" width="52.966" height="132.414"/>
<rect x="70.621" y="379.586" style="fill:#FFB432;" width="17.655" height="132.414"/>
<polygon style="fill:#FF5A4E;" points="97.103,256 61.793,388.414 132.414,388.414 "/>
<polygon style="fill:#EB443F;" points="97.103,256 61.793,388.414 88.276,388.414 "/>
<path style="fill:#FF5A4E;" d="M136.828,238.345c-17.587,0-22.759,8.828-39.724,8.828v17.655c16.966,0,22.138-8.828,39.724-8.828
	c5.601,0,9.982,1.643,13.241,3.502l-6.207-10.951l6.207-6.705C146.809,239.988,142.429,238.345,136.828,238.345z"/>
<rect x="388.414" y="379.586" style="fill:#FFC83C;" width="52.966" height="132.414"/>
<rect x="388.414" y="379.586" style="fill:#FFB432;" width="17.655" height="132.414"/>
<polygon style="fill:#FF5A4E;" points="414.897,256 379.586,388.414 450.207,388.414 "/>
<polygon style="fill:#EB443F;" points="414.897,256 379.586,388.414 406.069,388.414 "/>
<path style="fill:#FF5A4E;" d="M454.621,238.345c-17.587,0-22.759,8.828-39.724,8.828v17.655c16.966,0,22.138-8.828,39.724-8.828
	c5.601,0,9.982,1.643,13.241,3.502l-6.207-10.951l6.207-6.705C464.602,239.988,460.222,238.345,454.621,238.345z"/>
<rect x="335.448" y="264.828" style="fill:#FFC83C;" width="52.966" height="247.172"/>
<rect x="335.448" y="264.828" style="fill:#FFB432;" width="17.655" height="247.172"/>
<polygon style="fill:#FF5A4E;" points="361.931,141.241 326.621,273.655 397.241,273.655 "/>
<polygon style="fill:#EB443F;" points="361.931,141.241 326.621,273.655 353.103,273.655 "/>
<path style="fill:#FF5A4E;" d="M401.655,123.586c-17.587,0-22.759,8.828-39.724,8.828v17.655c16.966,0,22.138-8.828,39.724-8.828
	c5.601,0,9.982,1.643,13.241,3.502l-6.207-10.951l6.207-6.705C411.637,125.229,407.256,123.586,401.655,123.586z"/>
<g>
	<rect x="35.31" y="441.379" style="fill:#FF9B36;" width="441.379" height="70.621"/>
	<rect x="194.207" y="388.414" style="fill:#FF9B36;" width="123.586" height="114.759"/>
</g>
<polygon style="fill:#FF8C38;" points="211.862,414.897 194.207,432.552 176.552,414.897 176.552,370.759 211.862,370.759 "/>
<polygon style="fill:#FF7E34;" points="176.552,370.759 176.552,414.897 185.379,423.724 185.379,370.759 "/>
<polygon style="fill:#FF8C38;" points="52.966,467.862 35.31,485.517 17.655,467.862 17.655,423.724 52.966,423.724 "/>
<polygon style="fill:#FF7E34;" points="17.655,423.724 17.655,467.862 26.483,476.69 26.483,423.724 "/>
<polygon style="fill:#FF8C38;" points="494.345,467.862 476.69,485.517 459.034,467.862 459.034,423.724 494.345,423.724 "/>
<polygon style="fill:#FF7E34;" points="459.034,423.724 459.034,467.862 467.862,476.69 467.862,423.724 "/>
<polygon style="fill:#FF8C38;" points="335.448,414.897 317.793,432.552 300.138,414.897 300.138,370.759 335.448,370.759 "/>
<polygon style="fill:#FF7E34;" points="300.138,370.759 300.138,414.897 308.966,423.724 308.966,370.759 "/>
<rect x="35.31" y="494.345" style="fill:#FF8C38;" width="441.379" height="17.655"/>
<g>
	<path style="fill:#A63F0D;" d="M256,423.724L256,423.724c-19.501,0-35.31,15.809-35.31,35.31V512h70.621v-52.966
		C291.31,439.533,275.501,423.724,256,423.724z"/>
	<path style="fill:#A63F0D;" d="M264.828,194.207h-17.655v-17.655c0-4.875,3.953-8.828,8.828-8.828l0,0
		c4.875,0,8.828,3.953,8.828,8.828V194.207z"/>
	<path style="fill:#A63F0D;" d="M264.828,238.345h-17.655V220.69c0-4.875,3.953-8.828,8.828-8.828l0,0
		c4.875,0,8.828,3.953,8.828,8.828V238.345z"/>
	<path style="fill:#A63F0D;" d="M264.828,344.276h-17.655v-17.655c0-4.875,3.953-8.828,8.828-8.828l0,0
		c4.875,0,8.828,3.953,8.828,8.828V344.276z"/>
	<path style="fill:#A63F0D;" d="M370.759,317.793h-17.655v-17.655c0-4.875,3.953-8.828,8.828-8.828l0,0
		c4.875,0,8.828,3.953,8.828,8.828V317.793z"/>
	<path style="fill:#A63F0D;" d="M370.759,361.931h-17.655v-17.655c0-4.875,3.953-8.828,8.828-8.828l0,0
		c4.875,0,8.828,3.953,8.828,8.828V361.931z"/>
	<path style="fill:#A63F0D;" d="M423.724,432.552h-17.655v-17.655c0-4.875,3.953-8.828,8.828-8.828l0,0
		c4.875,0,8.828,3.953,8.828,8.828V432.552z"/>
	<path style="fill:#A63F0D;" d="M105.931,432.552H88.276v-17.655c0-4.875,3.953-8.828,8.828-8.828l0,0
		c4.875,0,8.828,3.953,8.828,8.828V432.552z"/>
	<path style="fill:#A63F0D;" d="M61.793,512H44.138l0,0c0-4.875,3.953-8.828,8.828-8.828l0,0
		C57.841,503.172,61.793,507.125,61.793,512L61.793,512z"/>
	<path style="fill:#A63F0D;" d="M203.034,512h-17.655l0,0c0-4.875,3.953-8.828,8.828-8.828l0,0
		C199.082,503.172,203.034,507.125,203.034,512L203.034,512z"/>
	<path style="fill:#A63F0D;" d="M132.414,512h-17.655l0,0c0-4.875,3.953-8.828,8.828-8.828l0,0
		C128.461,503.172,132.414,507.125,132.414,512L132.414,512z"/>
	<path style="fill:#A63F0D;" d="M97.103,512H79.448l0,0c0-4.875,3.953-8.828,8.828-8.828l0,0
		C93.151,503.172,97.103,507.125,97.103,512L97.103,512z"/>
	<path style="fill:#A63F0D;" d="M167.724,512h-17.655l0,0c0-4.875,3.953-8.828,8.828-8.828l0,0
		C163.772,503.172,167.724,507.125,167.724,512L167.724,512z"/>
	<path style="fill:#A63F0D;" d="M326.621,512h-17.655l0,0c0-4.875,3.953-8.828,8.828-8.828l0,0
		C322.668,503.172,326.621,507.125,326.621,512L326.621,512z"/>
	<path style="fill:#A63F0D;" d="M467.862,512h-17.655l0,0c0-4.875,3.953-8.828,8.828-8.828l0,0
		C463.91,503.172,467.862,507.125,467.862,512L467.862,512z"/>
	<path style="fill:#A63F0D;" d="M397.241,512h-17.655l0,0c0-4.875,3.953-8.828,8.828-8.828l0,0
		C393.289,503.172,397.241,507.125,397.241,512L397.241,512z"/>
	<path style="fill:#A63F0D;" d="M361.931,512h-17.655l0,0c0-4.875,3.953-8.828,8.828-8.828l0,0
		C357.978,503.172,361.931,507.125,361.931,512L361.931,512z"/>
	<path style="fill:#A63F0D;" d="M432.552,512h-17.655l0,0c0-4.875,3.953-8.828,8.828-8.828l0,0
		C428.599,503.172,432.552,507.125,432.552,512L432.552,512z"/>
</g>
<g>
</g>
<g>
</g>
<g>
</g>
<g>
</g>
<g>
</g>
<g>
</g>
<g>
</g>
<g>
</g>
<g>
</g>
<g>
</g>
<g>
</g>
<g>
</g>
<g>
</g>
<g>
</g>
<g>
</g>
</svg>
