<?xml version="1.0" encoding="iso-8859-1"?>
<!-- Generator: Adobe Illustrator 19.0.0, SVG Export Plug-In . SVG Version: 6.00 Build 0)  -->
<svg version="1.1" id="Layer_1" xmlns="http://www.w3.org/2000/svg" xmlns:xlink="http://www.w3.org/1999/xlink" x="0px" y="0px"
	 viewBox="0 0 126.666 126.666" style="enable-background:new 0 0 126.666 126.666;" xml:space="preserve">
<g>
	<g>
		<path style="fill:#FFFFFA;" d="M111.5,77c0,26.601-21.564,48.166-48.166,48.166c-26.604,0-48.168-21.565-48.168-48.166
			c0-26.603,21.564-75.5,48.168-75.5C89.936,1.5,111.5,50.397,111.5,77z"/>
	</g>
	<g>
		<path style="fill:#F9F9E4;" d="M63.334,1.5v123.666c26.602,0,48.166-21.565,48.166-48.166C111.5,50.397,89.936,1.5,63.334,1.5z"/>
	</g>
	<g>
		<g>
			<path style="fill:#7BC67B;" d="M33.486,104.326c4.445,4.857,9.34,7.236,6.738,9.617c-2.604,2.381-8.316,0.371-12.762-4.486
				c-4.443-4.858-5.936-10.727-3.332-13.109C26.732,93.969,29.043,99.465,33.486,104.326z"/>
		</g>
		<g>
			<path style="fill:#54AF79;" d="M93.18,104.326c-4.445,4.857-9.34,7.236-6.738,9.617c2.604,2.381,8.316,0.371,12.762-4.486
				c4.443-4.858,5.936-10.727,3.332-13.109C99.934,93.969,97.623,99.465,93.18,104.326z"/>
		</g>
	</g>
	<g>
		<path style="fill:#33363A;" d="M63.334,126.666c-27.387,0-49.668-22.28-49.668-49.666c0-13.942,5.612-32.964,14.299-48.46
			C38.282,10.136,50.843,0,63.334,0c12.49,0,25.051,10.136,35.367,28.54C107.388,44.036,113,63.058,113,77
			C113,104.386,90.72,126.666,63.334,126.666z M63.334,3C48.01,3,36.236,19.921,30.582,30.007
			C22.128,45.088,16.666,63.534,16.666,77c0,25.732,20.936,46.666,46.668,46.666C89.065,123.666,110,102.732,110,77
			c0-13.466-5.462-31.912-13.916-46.993C90.431,19.921,78.657,3,63.334,3z"/>
	</g>
	<g>
		<path style="fill:#7BC67B;" d="M91.623,89.47c-6.268,13.575-19.066,21.016-28.588,16.62c-9.521-4.396-5.098-12.389,1.17-25.965
			c6.266-13.573,12.002-27.589,21.523-23.191C95.25,61.328,97.889,75.897,91.623,89.47z"/>
	</g>
	<g>
		<path style="fill:#54AF79;" d="M85.729,56.934c-9.521-4.397-15.258,9.618-21.523,23.191c-0.297,0.641-0.586,1.265-0.871,1.88
			v24.209c9.488,4.109,22.088-3.309,28.289-16.744C97.889,75.897,95.25,61.328,85.729,56.934z"/>
	</g>
	<g>
		<circle style="fill:#7BC67B;" cx="35.636" cy="38.547" r="3.06"/>
	</g>
	<g>
		<circle style="fill:#7BC67B;" cx="46.678" cy="23.91" r="1.197"/>
	</g>
	<g>
		<circle style="fill:#7BC67B;" cx="40.426" cy="56.11" r="1.73"/>
	</g>
	<g>
		<circle style="fill:#54AF79;" cx="67.392" cy="113.216" r="1.73"/>
	</g>
	<g>
		<circle style="fill:#7BC67B;" cx="59.251" cy="111.486" r="1.73"/>
	</g>
	<g>
		<circle style="fill:#54AF79;" cx="83.879" cy="29.977" r="3.537"/>
	</g>
	<g>
		<circle style="fill:#54AF79;" cx="93.913" cy="45.066" r="3.46"/>
	</g>
	<g>
		<circle style="fill:#7BC67B;" cx="44.668" cy="91.447" r="3.459"/>
	</g>
	<g>
		<path style="fill:#7BC67B;" d="M67.059,40.692c0,8.108,3.498,14.682-4.611,14.682c-8.109,0-14.682-6.573-14.682-14.682
			s6.572-14.685,14.682-14.685C70.557,26.008,67.059,32.584,67.059,40.692z"/>
	</g>
	<g>
		<path style="fill:#54AF79;" d="M63.334,55.341c6.951-0.482,3.725-6.854,3.725-14.648c0-7.794,3.227-14.169-3.725-14.651V55.341z"
			/>
	</g>
</g>
<g>
</g>
<g>
</g>
<g>
</g>
<g>
</g>
<g>
</g>
<g>
</g>
<g>
</g>
<g>
</g>
<g>
</g>
<g>
</g>
<g>
</g>
<g>
</g>
<g>
</g>
<g>
</g>
<g>
</g>
</svg>
