<?xml version="1.0" encoding="iso-8859-1"?>
<!-- Generator: Adobe Illustrator 19.0.0, SVG Export Plug-In . SVG Version: 6.00 Build 0)  -->
<svg version="1.1" id="Layer_1" xmlns="http://www.w3.org/2000/svg" xmlns:xlink="http://www.w3.org/1999/xlink" x="0px" y="0px"
	 viewBox="0 0 127.485 127.485" style="enable-background:new 0 0 127.485 127.485;" xml:space="preserve">
<g>
	<g>
		<path style="fill:#C0C0C4;" d="M113.748,94.787c0,17.23-22.389,31.198-50.006,31.198c-27.617,0-50.004-13.968-50.004-31.198
			c0-17.23,22.387-46.037,50.004-46.037C91.359,48.75,113.748,77.557,113.748,94.787z"/>
	</g>
	<g>
		<path style="fill:#2AF42F;" d="M113.748,95.497c0,10.499-22.389,19.011-50.006,19.011c-27.617,0-50.004-8.512-50.004-19.011
			c0-10.498,22.387-28.05,50.004-28.05C91.359,67.447,113.748,84.999,113.748,95.497z"/>
	</g>
	<g>
		<path style="fill:#FFFFFF;" d="M113.748,87.373c0,10.499-22.389,19.01-50.006,19.01c-27.617,0-50.004-8.511-50.004-19.01
			c0-10.5,22.387-28.051,50.004-28.051C91.359,59.322,113.748,76.873,113.748,87.373z"/>
	</g>
	<g>
		<path style="fill:#E8E8ED;" d="M92.787,99.109c0,10.5-13.004,7.273-29.045,7.273s-29.045,3.227-29.045-7.273
			c0-10.498,13.004-39.787,29.045-39.787S92.787,88.611,92.787,99.109z"/>
	</g>
	<g>
		<path style="fill:#2AF42F;" d="M99.568,65.809C90.484,56.213,77.794,48.75,63.742,48.75c-14.053,0-26.742,7.463-35.826,17.059
			c9.084,5.822,21.774,9.445,35.826,9.445C77.794,75.254,90.484,71.631,99.568,65.809z"/>
	</g>
	<g>
		<path style="fill:#1AD88F;" d="M31.71,68c8.678,4.524,19.84,7.254,32.031,7.254c12.193,0,23.355-2.729,32.031-7.254
			c-8.676-7.756-19.838-13.377-32.031-13.377C51.55,54.623,40.388,60.244,31.71,68z"/>
	</g>
	<g>
		<path style="fill:#33363A;" d="M63.742,127.485c-28.399,0-51.504-14.668-51.504-32.698c0-18.338,23.571-47.537,51.504-47.537
			c27.934,0,51.506,29.199,51.506,47.537C115.248,112.817,92.142,127.485,63.742,127.485z M63.742,50.25
			c-26.306,0-48.504,27.356-48.504,44.537c0,16.375,21.759,29.698,48.504,29.698c26.746,0,48.506-13.323,48.506-29.698
			C112.248,77.606,90.049,50.25,63.742,50.25z"/>
	</g>
	<g>
		<path style="fill:#33363A;" d="M63.742,127.485c-28.399,0-51.504-14.668-51.504-32.698c0-18.338,23.571-47.537,51.504-47.537
			c27.934,0,51.506,29.199,51.506,47.537C115.248,112.817,92.142,127.485,63.742,127.485z M63.742,50.25
			c-26.306,0-48.504,27.356-48.504,44.537c0,16.375,21.759,29.698,48.504,29.698c26.746,0,48.506-13.323,48.506-29.698
			C112.248,77.606,90.049,50.25,63.742,50.25z"/>
	</g>
	<g>
		<path style="fill:#33363A;" d="M63.742,76.754c-13.883,0-26.894-3.438-36.636-9.683c-0.376-0.241-0.625-0.637-0.679-1.081
			c-0.054-0.444,0.092-0.888,0.399-1.213c6.197-6.546,19.233-17.527,36.916-17.527s30.719,10.981,36.916,17.527
			c0.307,0.325,0.454,0.769,0.399,1.213c-0.054,0.444-0.303,0.84-0.679,1.081C90.636,73.315,77.625,76.754,63.742,76.754z
			 M30.3,65.512c9.076,5.325,20.866,8.242,33.441,8.242s24.366-2.917,33.441-8.242C90.906,59.269,79.167,50.25,63.742,50.25
			S36.577,59.269,30.3,65.512z"/>
	</g>
	<g>
		<g>
			<path style="fill:#33363A;" d="M50.839,86.664c-7.879,0-14.289-6.773-14.289-15.1c0-0.829,0.671-1.5,1.5-1.5s1.5,0.671,1.5,1.5
				c0,6.672,5.064,12.1,11.289,12.1c0.829,0,1.5,0.671,1.5,1.5S51.668,86.664,50.839,86.664z"/>
		</g>
		<g>
			<path style="fill:#33363A;" d="M76.646,86.664c-0.829,0-1.5-0.671-1.5-1.5s0.671-1.5,1.5-1.5c6.225,0,11.289-5.428,11.289-12.1
				c0-0.829,0.671-1.5,1.5-1.5s1.5,0.671,1.5,1.5C90.935,79.891,84.525,86.664,76.646,86.664z"/>
		</g>
	</g>
	<g>
		<circle style="fill:#FFAA00;" cx="63.742" cy="86.278" r="4.699"/>
	</g>
	<g>
		<path style="fill:#33363A;" d="M63.742,99.104c-7.523,0-13.645-6.122-13.645-13.646c0-0.829,0.671-1.5,1.5-1.5s1.5,0.671,1.5,1.5
			c0,5.87,4.775,10.646,10.645,10.646c5.871,0,10.646-4.775,10.646-10.646c0-0.829,0.671-1.5,1.5-1.5s1.5,0.671,1.5,1.5
			C77.388,92.982,71.267,99.104,63.742,99.104z"/>
	</g>
	<g>
		<path style="fill:#33363A;" d="M63.742,92.478c-3.418,0-6.199-2.781-6.199-6.199c0-3.417,2.781-6.198,6.199-6.198
			s6.199,2.781,6.199,6.198C69.941,89.697,67.16,92.478,63.742,92.478z M63.742,83.08c-1.764,0-3.199,1.435-3.199,3.198
			c0,1.764,1.435,3.199,3.199,3.199s3.199-1.435,3.199-3.199C66.941,84.515,65.506,83.08,63.742,83.08z"/>
	</g>
	<g>
		<path style="fill:#2AF42F;" d="M56.673,55.627c1.916,4.525,4.379,7.256,7.068,7.256c2.689,0,5.154-2.73,7.068-7.256
			c-1.914-7.754-4.379-13.375-7.068-13.375C61.052,42.252,58.589,47.873,56.673,55.627z"/>
	</g>
	<g>
		<path style="fill:#1AD88F;" d="M63.742,47.978c-2.244,0-4.33,3.92-6.07,9.719c1.742,3.262,3.824,7.24,6.07,7.24
			c2.246,0,4.328-3.979,6.07-7.24C68.072,51.898,65.986,47.978,63.742,47.978z"/>
	</g>
	<g>
		<path style="fill:#33363A;" d="M70.809,57.127c-0.674,0-1.287-0.458-1.455-1.141c-2.389-9.677-4.716-12.234-5.612-12.234
			c-0.896,0-3.221,2.557-5.612,12.235c-0.199,0.805-1.007,1.297-1.816,1.096c-0.804-0.199-1.295-1.012-1.096-1.816
			c2.414-9.767,5.202-14.515,8.524-14.515c3.325,0,6.114,4.748,8.524,14.516c0.199,0.804-0.292,1.617-1.097,1.815
			C71.049,57.113,70.928,57.127,70.809,57.127z"/>
	</g>
	<g>
		<g>
			<path style="fill:#33363A;" d="M63.742,107.883c-28.881,0-51.504-9.009-51.504-20.51c0-0.829,0.671-1.5,1.5-1.5
				s1.5,0.671,1.5,1.5c0,8.456,19.49,17.51,48.504,17.51c0.829,0,1.5,0.671,1.5,1.5S64.57,107.883,63.742,107.883z"/>
		</g>
		<g>
			<path style="fill:#33363A;" d="M63.742,107.883c-0.829,0-1.5-0.671-1.5-1.5s0.671-1.5,1.5-1.5
				c29.015,0,48.506-9.054,48.506-17.51c0-0.829,0.671-1.5,1.5-1.5s1.5,0.671,1.5,1.5C115.248,98.874,92.624,107.883,63.742,107.883
				z"/>
		</g>
	</g>
	<g>
		<g>
			<path style="fill:#33363A;" d="M63.742,116.461c-28.881,0-51.504-9.009-51.504-20.511c0-0.829,0.671-1.5,1.5-1.5
				s1.5,0.671,1.5,1.5c0,8.457,19.49,17.511,48.504,17.511c0.829,0,1.5,0.671,1.5,1.5S64.57,116.461,63.742,116.461z"/>
		</g>
		<g>
			<path style="fill:#33363A;" d="M63.742,116.461c-0.829,0-1.5-0.671-1.5-1.5s0.671-1.5,1.5-1.5
				c29.015,0,48.506-9.054,48.506-17.511c0-0.829,0.671-1.5,1.5-1.5s1.5,0.671,1.5,1.5
				C115.248,107.452,92.624,116.461,63.742,116.461z"/>
		</g>
	</g>
	<g>
		<g>
			<g>
				<path style="fill:#33363A;" d="M50.636,26.326c-7.71,0-13.982-6.272-13.982-13.981c0-0.829,0.671-1.5,1.5-1.5s1.5,0.671,1.5,1.5
					c0,6.055,4.927,10.981,10.982,10.981c0.829,0,1.5,0.671,1.5,1.5S51.465,26.326,50.636,26.326z"/>
			</g>
			<g>
				<path style="fill:#33363A;" d="M62.685,34.299c-0.602,0-1.169-0.364-1.399-0.958c-0.533-1.375-1.327-2.612-2.36-3.678
					c-0.577-0.595-0.563-1.544,0.033-2.121c0.594-0.577,1.544-0.563,2.121,0.033c1.314,1.355,2.325,2.93,3.003,4.682
					c0.3,0.772-0.084,1.641-0.856,1.94C63.048,34.266,62.865,34.299,62.685,34.299z M55.906,27.311
					c-0.195,0-0.394-0.039-0.584-0.119c-1.355-0.574-2.796-0.865-4.281-0.865c-0.829,0-1.5-0.671-1.5-1.5s0.671-1.5,1.5-1.5
					c1.89,0,3.724,0.371,5.451,1.103c0.763,0.323,1.119,1.204,0.796,1.966C57.046,26.967,56.49,27.311,55.906,27.311z"/>
			</g>
		</g>
		<g>
			<g>
				<path style="fill:#33363A;" d="M50.636,15.481c-7.71,0-13.982-6.272-13.982-13.981c0-0.829,0.671-1.5,1.5-1.5s1.5,0.671,1.5,1.5
					c0,6.055,4.927,10.981,10.982,10.981c0.829,0,1.5,0.671,1.5,1.5S51.465,15.481,50.636,15.481z"/>
			</g>
			<g>
				<path style="fill:#33363A;" d="M62.685,23.455c-0.602,0-1.169-0.364-1.399-0.958c-0.533-1.375-1.327-2.612-2.36-3.678
					c-0.577-0.595-0.563-1.544,0.033-2.121c0.594-0.577,1.544-0.563,2.121,0.033c1.314,1.355,2.325,2.93,3.003,4.682
					c0.3,0.772-0.084,1.641-0.856,1.94C63.048,23.422,62.865,23.455,62.685,23.455z M55.906,16.466
					c-0.195,0-0.394-0.039-0.584-0.119c-1.355-0.574-2.796-0.865-4.281-0.865c-0.829,0-1.5-0.671-1.5-1.5s0.671-1.5,1.5-1.5
					c1.89,0,3.724,0.371,5.451,1.103c0.763,0.323,1.119,1.204,0.796,1.966C57.046,16.122,56.49,16.466,55.906,16.466z"/>
			</g>
		</g>
	</g>
</g>
<g>
</g>
<g>
</g>
<g>
</g>
<g>
</g>
<g>
</g>
<g>
</g>
<g>
</g>
<g>
</g>
<g>
</g>
<g>
</g>
<g>
</g>
<g>
</g>
<g>
</g>
<g>
</g>
<g>
</g>
</svg>
