<?xml version="1.0" encoding="iso-8859-1"?>
<!-- Generator: Adobe Illustrator 19.0.0, SVG Export Plug-In . SVG Version: 6.00 Build 0)  -->
<svg version="1.1" id="Layer_1" xmlns="http://www.w3.org/2000/svg" xmlns:xlink="http://www.w3.org/1999/xlink" x="0px" y="0px"
	 viewBox="0 0 127.02 127.02" style="enable-background:new 0 0 127.02 127.02;" xml:space="preserve">
<g>
	<g>
		<g>
			<g>
				<path style="fill:#12D66B;" d="M1.5,63.509c0,34.248,27.764,62.011,62.008,62.011c34.248,0,62.012-27.763,62.012-62.011
					C125.52,29.264,97.756,1.5,63.508,1.5C29.264,1.5,1.5,29.264,1.5,63.509z"/>
			</g>
			<g>
				<path style="fill:#09B285;" d="M125.52,63.509C125.52,29.264,97.756,1.5,63.508,1.5C29.264,1.5,1.5,29.264,1.5,63.509"/>
			</g>
			<g>
				<path style="fill:#33363A;" d="M1.5,65.009c-0.828,0-1.5-0.672-1.5-1.5C0,28.49,28.489,0,63.508,0c0.828,0,1.5,0.672,1.5,1.5
					S64.336,3,63.508,3C30.144,3,3,30.145,3,63.509C3,64.337,2.328,65.009,1.5,65.009z"/>
			</g>
			<g>
				<path style="fill:#33363A;" d="M63.508,127.02c-0.828,0-1.5-0.672-1.5-1.5s0.672-1.5,1.5-1.5
					c33.366,0,60.512-27.145,60.512-60.511c0-0.828,0.672-1.5,1.5-1.5s1.5,0.672,1.5,1.5C127.02,98.528,98.528,127.02,63.508,127.02
					z"/>
			</g>
		</g>
		<g>
			<g>
				<path style="fill:#21CEA1;" d="M15.838,63.509c0,26.329,21.346,47.67,47.67,47.67c26.33,0,47.67-21.341,47.67-47.67
					c0-26.325-21.34-47.669-47.67-47.669C37.184,15.84,15.838,37.184,15.838,63.509z"/>
			</g>
			<g>
				<path style="fill:#50FF9F;" d="M15.838,63.509c0,26.329,21.346,47.67,47.67,47.67c26.33,0,47.67-21.341,47.67-47.67H15.838z"/>
			</g>
			<g>
				<path style="fill:#0086FF;" d="M110.926,68.439H53.162V16.979c-4.811,1.066-9.346,2.857-13.488,5.256v82.551
					c4.142,2.397,8.678,4.189,13.488,5.254V81.928h54.324C109.258,77.705,110.439,73.176,110.926,68.439z"/>
			</g>
			<g>
				<path style="fill:#33363A;" d="M112.678,63.509c0-27.112-22.058-49.169-49.17-49.169c-1.028,0-2.069,0.032-3.093,0.096
					c-0.827,0.051-1.456,0.763-1.404,1.59c0.049,0.795,0.71,1.407,1.496,1.407c0.031,0,0.063-0.001,0.094-0.003
					c0.962-0.06,1.94-0.09,2.907-0.09c25.458,0,46.17,20.711,46.17,46.169c0,0.968-0.03,1.945-0.09,2.906
					c-0.011,0.183,0.015,0.359,0.065,0.524H54.662V18.178c0.769-0.191,1.265-0.95,1.11-1.738c-0.158-0.813-0.947-1.347-1.76-1.184
					c-0.357,0.07-0.71,0.168-1.067,0.246c-0.036,0.005-0.072,0.003-0.108,0.011c-0.389,0.086-0.775,0.185-1.162,0.281
					c-0.561,0.139-1.116,0.287-1.671,0.446c-0.47,0.134-0.937,0.274-1.402,0.422c-0.275,0.087-0.557,0.158-0.829,0.25
					c-0.054,0.018-0.103,0.046-0.153,0.069c-1.926,0.658-3.809,1.437-5.64,2.331c-0.058,0.02-0.117,0.037-0.173,0.064
					c-0.262,0.129-0.514,0.28-0.774,0.414c-0.399,0.206-0.795,0.419-1.19,0.636c-1.236,0.681-2.455,1.395-3.625,2.177
					c-0.689,0.46-0.874,1.392-0.414,2.08c0.289,0.434,0.765,0.667,1.248,0.667c0.287,0,0.576-0.082,0.832-0.253
					c0.094-0.063,0.195-0.118,0.29-0.18v77.162c-12.539-8.264-20.836-22.463-20.836-38.571c0-0.968,0.03-1.945,0.09-2.906
					c0.052-0.827-0.577-1.538-1.404-1.59c-0.813-0.052-1.539,0.578-1.59,1.404c-0.063,1.022-0.096,2.063-0.096,3.092
					c0,18.118,9.858,33.968,24.485,42.497c0.035,0.024,0.063,0.056,0.1,0.077c0.29,0.168,0.586,0.325,0.879,0.487
					c0.148,0.082,0.294,0.165,0.443,0.245c0.632,0.34,1.268,0.669,1.912,0.981c0.02,0.01,0.04,0.021,0.06,0.03
					c0.645,0.31,1.297,0.603,1.954,0.885c0.245,0.105,0.493,0.203,0.74,0.305c0.41,0.168,0.822,0.332,1.236,0.488
					c0.307,0.116,0.615,0.23,0.924,0.34c0.355,0.126,0.713,0.245,1.071,0.363c0.345,0.114,0.688,0.23,1.036,0.336
					c0.24,0.073,0.483,0.137,0.724,0.206c0.815,0.235,1.638,0.449,2.47,0.642c0.156,0.036,0.31,0.078,0.466,0.113
					c0.013,0.003,0.026,0.002,0.039,0.004c3.426,0.758,6.98,1.171,10.631,1.171c1.028,0,2.069-0.032,3.093-0.096
					c0.827-0.051,1.456-0.763,1.404-1.59c-0.051-0.826-0.774-1.456-1.59-1.404c-0.962,0.06-1.94,0.09-2.907,0.09
					c-3.026,0-5.981-0.301-8.846-0.86V83.428h50.647c-0.149,0.128-0.275,0.286-0.367,0.474c-0.891,1.806-1.909,3.569-3.029,5.243
					c-0.46,0.688-0.275,1.62,0.413,2.081c0.256,0.171,0.546,0.253,0.833,0.253c0.483,0,0.959-0.233,1.248-0.666
					c1.192-1.782,2.277-3.661,3.227-5.585c0.31-0.628,0.135-1.364-0.375-1.8h0.227c0.604,0,1.149-0.362,1.383-0.92
					c0.443-1.057,0.846-2.128,1.213-3.21c0.004-0.011,0.012-0.018,0.015-0.029c0.01-0.03,0.018-0.061,0.028-0.092
					c0.3-0.892,0.567-1.793,0.814-2.7c0.044-0.161,0.09-0.321,0.133-0.483c0.237-0.903,0.445-1.814,0.629-2.73
					c0.016-0.078,0.038-0.154,0.053-0.232c0.005-0.025,0.003-0.05,0.007-0.075c0.281-1.442,0.505-2.897,0.656-4.364
					c0.037-0.366-0.068-0.726-0.28-1.022c0.253-0.25,0.42-0.588,0.444-0.97C112.646,65.578,112.678,64.538,112.678,63.509z
					 M53.162,80.428c-0.828,0-1.5,0.672-1.5,1.5v26.204c-0.012-0.003-0.024-0.007-0.036-0.01c-0.819-0.218-1.63-0.463-2.435-0.726
					c-0.2-0.065-0.398-0.134-0.597-0.202c-0.632-0.216-1.259-0.447-1.881-0.69c-0.23-0.09-0.461-0.179-0.69-0.272
					c-0.652-0.267-1.298-0.553-1.938-0.851c-0.157-0.073-0.318-0.14-0.474-0.214c-0.759-0.363-1.508-0.751-2.248-1.156
					c-0.064-0.035-0.126-0.074-0.19-0.109V23.115c0.112-0.062,0.226-0.12,0.339-0.181c3.216-1.749,6.616-3.111,10.149-4.047v49.553
					c0,0.828,0.672,1.5,1.5,1.5h56.071c-0.121,0.871-0.27,1.737-0.441,2.599c-0.185,0.932-0.4,1.864-0.644,2.788
					c-0.073,0.278-0.165,0.55-0.244,0.827c-0.182,0.642-0.367,1.282-0.577,1.913c-0.264,0.794-0.544,1.582-0.851,2.361H53.162z"/>
				<path style="fill:#33363A;" d="M20.066,43.799c0.213,0.104,0.439,0.154,0.662,0.154c0.553,0,1.085-0.307,1.347-0.837
					c0.889-1.803,1.908-3.567,3.029-5.243c0.46-0.688,0.275-1.62-0.413-2.081c-0.686-0.458-1.62-0.276-2.081,0.413
					c-1.194,1.785-2.279,3.664-3.227,5.585C19.018,42.533,19.323,43.433,20.066,43.799z"/>
				<path style="fill:#33363A;" d="M16.443,55.746c0.098,0.02,0.195,0.028,0.291,0.028c0.702,0,1.33-0.496,1.47-1.211
					c0.388-1.976,0.911-3.944,1.557-5.853c0.266-0.785-0.155-1.636-0.94-1.901c-0.786-0.266-1.636,0.156-1.901,0.94
					c-0.688,2.033-1.245,4.131-1.658,6.235C15.101,54.799,15.631,55.587,16.443,55.746z"/>
				<path style="fill:#33363A;" d="M27.665,33.581c0.417,0,0.832-0.173,1.128-0.511c1.332-1.517,2.773-2.957,4.286-4.283
					c0.622-0.546,0.685-1.494,0.139-2.117c-0.547-0.621-1.492-0.686-2.117-0.139c-1.609,1.412-3.145,2.946-4.562,4.561
					c-0.547,0.622-0.485,1.57,0.138,2.116C26.961,33.458,27.314,33.581,27.665,33.581z"/>
				<path style="fill:#33363A;" d="M89.133,101.922c-1.675,1.12-3.44,2.14-5.247,3.029c-0.743,0.366-1.049,1.266-0.683,2.009
					c0.262,0.53,0.794,0.837,1.347,0.837c0.223,0,0.449-0.05,0.662-0.154c1.924-0.948,3.805-2.034,5.589-3.227
					c0.688-0.461,0.873-1.392,0.413-2.081C90.753,101.646,89.821,101.462,89.133,101.922z"/>
				<path style="fill:#33363A;" d="M98.225,93.949c-1.332,1.517-2.773,2.957-4.286,4.283c-0.622,0.546-0.685,1.494-0.139,2.117
					c0.297,0.338,0.712,0.511,1.129,0.511c0.351,0,0.703-0.122,0.988-0.372c1.609-1.412,3.145-2.946,4.562-4.561
					c0.547-0.622,0.485-1.57-0.138-2.116C99.719,93.264,98.77,93.327,98.225,93.949z"/>
				<path style="fill:#33363A;" d="M78.285,107.265c-1.911,0.645-3.882,1.167-5.857,1.554c-0.813,0.158-1.343,0.946-1.184,1.76
					c0.14,0.716,0.767,1.212,1.47,1.212c0.096,0,0.192-0.009,0.29-0.028c2.104-0.411,4.204-0.968,6.24-1.653
					c0.784-0.265,1.206-1.116,0.942-1.901C79.922,107.423,79.075,107.005,78.285,107.265z"/>
			</g>
		</g>
	</g>
	<g>
		<circle style="fill:#FF8F8F;" cx="78.6" cy="42.529" r="14.205"/>
	</g>
	<g>
		<ellipse style="fill:#FF1A1A;" cx="78.6" cy="42.529" rx="14.205" ry="10.881"/>
	</g>
	<g>
		<path style="fill:#FFFFFF;" d="M64.395,42.529c0,7.846,6.359,14.205,14.205,14.205c7.844,0,14.205-6.359,14.205-14.205H64.395z"/>
	</g>
	<g>
		<path style="fill:#D8E5EA;" d="M78.6,53.41c7.844,0,14.205-4.871,14.205-10.881h-28.41C64.395,48.539,70.754,53.41,78.6,53.41z"/>
	</g>
	<path style="fill:#33363A;" d="M94.305,42.529c0-8.659-7.045-15.704-15.705-15.704S62.895,33.87,62.895,42.529
		c0,8.154,6.247,14.871,14.205,15.629v10.281c0,0.828,0.672,1.5,1.5,1.5s1.5-0.672,1.5-1.5V58.158
		C88.058,57.4,94.305,50.683,94.305,42.529z M78.6,29.825c6.498,0,11.863,4.905,12.608,11.204H65.991
		C66.737,34.73,72.102,29.825,78.6,29.825z M78.6,55.234c-6.498,0-11.863-4.905-12.608-11.205h25.217
		C90.462,50.33,85.097,55.234,78.6,55.234z"/>
	<g>
		<g>
			<circle style="fill:#A7BBC1;" cx="78.599" cy="44.157" r="4.697"/>
		</g>
		<g>
			<circle style="fill:#FFFFFF;" cx="78.599" cy="42.56" r="4.697"/>
		</g>
		<g>
			<path style="fill:#D8E5EA;" d="M75.277,45.881c-1.834-1.833-1.834-4.809,0-6.643c1.836-1.834,4.809-1.834,6.643,0"/>
		</g>
		<g>
			<path style="fill:#33363A;" d="M78.6,48.753c-1.587,0-3.174-0.604-4.383-1.811c-1.17-1.171-1.815-2.727-1.815-4.383
				c0-1.655,0.645-3.212,1.815-4.382c2.418-2.416,6.35-2.416,8.764,0c1.171,1.17,1.815,2.727,1.815,4.382
				c0,1.656-0.646,3.212-1.815,4.382C81.773,48.149,80.187,48.753,78.6,48.753z M78.6,39.364c-0.819,0-1.639,0.313-2.262,0.936
				c-0.604,0.603-0.937,1.406-0.937,2.26c0,0.854,0.333,1.657,0.937,2.261c1.245,1.242,3.274,1.246,4.521,0
				c0.604-0.604,0.937-1.406,0.937-2.261c0-0.854-0.333-1.657-0.937-2.261C80.236,39.676,79.418,39.364,78.6,39.364z"/>
		</g>
	</g>
</g>
<g>
</g>
<g>
</g>
<g>
</g>
<g>
</g>
<g>
</g>
<g>
</g>
<g>
</g>
<g>
</g>
<g>
</g>
<g>
</g>
<g>
</g>
<g>
</g>
<g>
</g>
<g>
</g>
<g>
</g>
</svg>
