<?xml version="1.0" encoding="iso-8859-1"?>
<!-- Generator: Adobe Illustrator 19.0.0, SVG Export Plug-In . SVG Version: 6.00 Build 0)  -->
<svg version="1.1" id="Layer_1" xmlns="http://www.w3.org/2000/svg" xmlns:xlink="http://www.w3.org/1999/xlink" x="0px" y="0px"
	 viewBox="0 0 127.318 127.318" style="enable-background:new 0 0 127.318 127.318;" xml:space="preserve">
<g>
	<g>
		<g>
			<path style="fill:#FFDDD2;" d="M120.864,67.353c0,22.873-27.14,41.422-57.205,41.422S6.454,90.226,6.454,67.353
				c0-22.877,27.14-50.289,57.205-50.289S120.864,44.476,120.864,67.353z"/>
		</g>
		<g>
			<path style="fill:#F4C4B3;" d="M120.864,67.353c0,22.873-27.14,41.422-57.205,41.422S6.454,90.226,6.454,67.353
				c0-22.877,27.14-38.641,57.205-38.641S120.864,44.476,120.864,67.353z"/>
		</g>
		<g>
			<path style="fill:#FFDDD2;" d="M75.252,80.38c0,1.543-5.191,1.82-11.592,1.82c-6.402,0-11.592-0.277-11.592-1.82
				c0-1.541,5.189-5.57,11.592-5.57C70.062,74.81,75.252,78.839,75.252,80.38z"/>
		</g>
		<g>
			<path style="fill:#E8B5A6;" d="M120.864,67.353c0,22.873-27.14,41.422-57.205,41.422S6.454,90.226,6.454,67.353
				c0-22.879,9.692,20.289,57.205,20.289S120.864,44.474,120.864,67.353z"/>
		</g>
		<g>
			<path style="fill:#33363A;" d="M63.659,110.274c-31.821,0-58.705-19.656-58.705-42.922c0-23.313,27.089-51.789,58.705-51.789
				s58.705,28.477,58.705,51.789C122.364,90.618,95.481,110.274,63.659,110.274z M63.659,18.564
				c-29.478,0-55.705,27.283-55.705,48.789c0,10.442,5.93,20.41,16.697,28.065c10.597,7.535,24.815,11.856,39.008,11.856
				s28.411-4.321,39.008-11.856c10.768-7.655,16.697-17.623,16.697-28.065C119.364,45.847,93.137,18.564,63.659,18.564z"/>
		</g>
	</g>
	<g>
		<g>
			<path style="fill:#FFDDD2;" d="M38.563,96.251c0-6.367,12.763-11.531,25.096-11.531c12.334,0,25.098,5.164,25.098,11.531
				c0,6.371-12.764,14.004-25.098,14.004C51.325,110.255,38.563,102.622,38.563,96.251z"/>
		</g>
		<g>
			<path style="fill:#F4C4B3;" d="M38.563,96.251c0-6.367,12.763-11.531,25.096-11.531c12.334,0,25.098,5.164,25.098,11.531
				c0,6.371-12.764,10.76-25.098,10.76C51.325,107.011,38.563,102.622,38.563,96.251z"/>
		</g>
		<g>
			<path style="fill:#FFDDD2;" d="M58.902,92.624c0-0.43,2.129-0.504,4.756-0.504c2.625,0,4.755,0.074,4.755,0.504
				c0,0.43-2.13,1.551-4.755,1.551C61.031,94.175,58.902,93.054,58.902,92.624z"/>
		</g>
		<g>
			<path style="fill:#E8B5A6;" d="M38.563,96.251c0-6.367,12.763-11.531,25.096-11.531c12.334,0,25.098,5.164,25.098,11.531
				c0,6.371-5.607-5.648-25.098-5.648C44.169,90.603,38.563,102.622,38.563,96.251z"/>
		</g>
		<g>
			<path style="fill:#33363A;" d="M63.658,111.755c-12.925,0-26.596-7.97-26.596-15.504c0-0.828,0.671-1.5,1.5-1.5
				s1.5,0.672,1.5,1.5c0,5.229,11.89,12.504,23.596,12.504c11.707,0,23.598-7.274,23.598-12.504c0-0.828,0.671-1.5,1.5-1.5
				s1.5,0.672,1.5,1.5C90.256,103.785,76.584,111.755,63.658,111.755z"/>
		</g>
	</g>
	<g>
		<path style="fill:#2C9DCE;" d="M45.779,74.81c0,4.922-3.988,8.906-8.908,8.906c-4.919,0-8.906-3.984-8.906-8.906
			c0-4.92,3.987-8.908,8.906-8.908C41.791,65.901,45.779,69.89,45.779,74.81z"/>
	</g>
	<g>
		<circle style="fill:#FFFFFF;" cx="32.441" cy="71.915" r="3.629"/>
	</g>
	<g>
		<path style="fill:#2C9DCE;" d="M99.354,74.81c0,4.922-3.988,8.906-8.906,8.906c-4.92,0-8.908-3.984-8.908-8.906
			c0-4.92,3.988-8.908,8.908-8.908C95.365,65.901,99.354,69.89,99.354,74.81z"/>
	</g>
	<g>
		<circle style="fill:#FFFFFF;" cx="86.017" cy="71.915" r="3.629"/>
	</g>
	<path style="fill:#33363A;" d="M36.871,64.401c-0.573,0-1.132,0.059-1.68,0.148c-0.195-0.093-0.41-0.148-0.64-0.148
		c-2.49,0-4.516-2.024-4.516-4.514c0-0.828-0.671-1.5-1.5-1.5s-1.5,0.672-1.5,1.5c0,2.772,1.513,5.192,3.754,6.494
		c-0.95,0.688-1.782,1.528-2.453,2.491c-0.12,0.162-0.225,0.332-0.326,0.508c-0.973,1.583-1.545,3.438-1.545,5.429
		c0,5.738,4.668,10.406,10.406,10.406c5.739,0,10.408-4.668,10.408-10.406C47.279,69.07,42.61,64.401,36.871,64.401z M36.871,82.216
		c-3.096,0-5.75-1.911-6.855-4.614c1.634,0.017,4.098-0.95,6.855-0.95c2.759,0,5.223,0.967,6.857,0.95
		C42.623,80.305,39.968,82.216,36.871,82.216z"/>
	<path style="fill:#33363A;" d="M96.53,66.382c2.24-1.302,3.754-3.723,3.754-6.494c0-0.828-0.671-1.5-1.5-1.5s-1.5,0.672-1.5,1.5
		c0,2.489-2.026,4.514-4.516,4.514c-0.23,0-0.445,0.056-0.64,0.148c-0.548-0.09-1.107-0.148-1.68-0.148
		c-3.537,0-6.663,1.777-8.544,4.481c-0.115,0.155-0.215,0.319-0.312,0.487c-0.978,1.586-1.552,3.445-1.552,5.441
		c0,5.738,4.669,10.406,10.408,10.406c5.738,0,10.406-4.668,10.406-10.406C100.854,71.343,99.143,68.275,96.53,66.382z
		 M90.447,82.216c-3.097,0-5.752-1.911-6.857-4.614c1.634,0.017,4.099-0.95,6.857-0.95c2.758,0,5.222,0.967,6.856,0.95
		C96.198,80.305,93.543,82.216,90.447,82.216z"/>
	<g>
		<g>
			<g>
				<path style="fill:#FFDDD2;" d="M5.254,20.661C-0.279,34.53,0.252,50.441,7.315,64.108c3.682-7.838,9.139-14.992,16.313-20.816
					c7.176-5.824,15.298-9.695,23.728-11.691C35.428,21.882,19.969,18.095,5.254,20.661z"/>
			</g>
			<g>
				<path style="fill:#F4C4B3;" d="M26.654,49.062c2.993-2.432,3.131-10.27,6.408-12.025c-7.648-7.85-17.595-13.074-28.313-15.004
					c-4.97,13.541-4.268,28.854,2.565,42.076C10.996,56.271,19.479,54.886,26.654,49.062z"/>
			</g>
			<g>
				<path style="fill:#33363A;" d="M7.316,65.608c-0.543,0-1.067-0.296-1.334-0.812C-1.173,50.95-1.946,34.66,3.861,20.106
					c0.193-0.483,0.623-0.833,1.135-0.922c15.439-2.696,31.225,1.409,43.307,11.254c0.643,0.523,0.739,1.469,0.216,2.11
					c-0.524,0.644-1.468,0.738-2.11,0.216c-11.192-9.119-25.75-13.018-40.066-10.763C1.193,35.547,2.02,50.595,8.647,63.42
					c0.38,0.736,0.092,1.641-0.644,2.021C7.783,65.555,7.547,65.608,7.316,65.608z"/>
			</g>
		</g>
		<g>
			<g>
				<path style="fill:#FFDDD2;" d="M122.065,20.661c5.533,13.869,5.002,29.779-2.061,43.447
					c-3.682-7.838-9.139-14.992-16.313-20.816c-7.176-5.824-15.299-9.695-23.729-11.691C91.89,21.882,107.349,18.095,122.065,20.661
					z"/>
			</g>
			<g>
				<path style="fill:#F4C4B3;" d="M100.664,49.062c-2.993-2.432-3.131-10.27-6.408-12.025c7.648-7.85,17.594-13.074,28.313-15.004
					c4.97,13.541,4.268,28.854-2.565,42.076C116.322,56.271,107.839,54.886,100.664,49.062z"/>
			</g>
			<g>
				<path style="fill:#33363A;" d="M120.002,65.608c-0.231,0-0.467-0.054-0.687-0.167c-0.736-0.381-1.024-1.285-0.644-2.021
					c6.627-12.825,7.454-27.873,2.305-41.419c-14.317-2.255-28.875,1.643-40.066,10.763c-0.643,0.522-1.587,0.427-2.11-0.216
					c-0.523-0.642-0.427-1.587,0.215-2.11c12.083-9.845,27.868-13.947,43.307-11.254c0.513,0.089,0.942,0.438,1.135,0.922
					c5.807,14.555,5.034,30.845-2.121,44.691C121.07,65.313,120.546,65.608,120.002,65.608z"/>
			</g>
		</g>
	</g>
	<circle style="fill:#FFFFFF;" cx="86.017" cy="71.915" r="2.129"/>
	<circle style="fill:#FFFFFF;" cx="32.441" cy="71.915" r="2.129"/>
</g>
<g>
</g>
<g>
</g>
<g>
</g>
<g>
</g>
<g>
</g>
<g>
</g>
<g>
</g>
<g>
</g>
<g>
</g>
<g>
</g>
<g>
</g>
<g>
</g>
<g>
</g>
<g>
</g>
<g>
</g>
</svg>
