<?xml version="1.0" encoding="iso-8859-1"?>
<!-- Generator: Adobe Illustrator 19.0.0, SVG Export Plug-In . SVG Version: 6.00 Build 0)  -->
<svg version="1.1" id="Layer_1" xmlns="http://www.w3.org/2000/svg" xmlns:xlink="http://www.w3.org/1999/xlink" x="0px" y="0px"
	 viewBox="0 0 127.5 127.5" style="enable-background:new 0 0 127.5 127.5;" xml:space="preserve">
<g>
	<g>
		<path style="fill:#FFFFFF;" d="M99.369,121.93c0,2.248-1.822,4.07-4.07,4.07H32.201c-2.248,0-4.07-1.822-4.07-4.07V5.57
			c0-2.248,1.822-4.07,4.07-4.07h63.098c2.248,0,4.07,1.822,4.07,4.07V121.93z"/>
	</g>
	<g>
		<path style="fill:#BCCAD3;" d="M89.973,121.93c0,2.248-1.34,4.07-2.996,4.07H40.521c-1.652,0-2.994-1.822-2.994-4.07V5.57
			c0-2.248,1.342-4.07,2.994-4.07h46.455c1.656,0,2.996,1.822,2.996,4.07V121.93z"/>
	</g>
	<g>
		<rect x="28.131" y="13.287" style="fill:#00AAFF;" width="71.238" height="96.684"/>
	</g>
	<g>
		<rect x="36.283" y="13.287" style="fill:#0068FF;" width="55.094" height="96.684"/>
	</g>
	<path style="fill:#33363A;" d="M95.299,0H32.201c-3.071,0-5.57,2.499-5.57,5.57v7.379v96.682v12.299c0,3.071,2.499,5.57,5.57,5.57
		h63.098c3.071,0,5.57-2.499,5.57-5.57v-12.299V12.949V5.57C100.869,2.499,98.37,0,95.299,0z M32.201,3h63.098
		c1.417,0,2.57,1.153,2.57,2.57v5.879H29.631V5.57C29.631,4.153,30.784,3,32.201,3z M97.869,108.131H29.631V14.449h68.238V108.131z
		 M95.299,124.5H32.201c-1.417,0-2.57-1.153-2.57-2.57v-10.799h68.238v10.799C97.869,123.347,96.716,124.5,95.299,124.5z"/>
	<g>
		<path style="fill:#33363A;" d="M69.74,122.695H57.76c-2.714,0-4.922-2.208-4.922-4.922c0-2.715,2.208-4.924,4.922-4.924h11.98
			c2.714,0,4.922,2.209,4.922,4.924C74.662,120.487,72.454,122.695,69.74,122.695z M57.76,115.85c-1.06,0-1.922,0.863-1.922,1.924
			c0,1.06,0.862,1.922,1.922,1.922h11.98c1.06,0,1.922-0.862,1.922-1.922c0-1.061-0.862-1.924-1.922-1.924H57.76z"/>
	</g>
	<g>
		<path style="fill:#33363A;" d="M88.514,9.629c-1.438,0-2.609-1.17-2.609-2.608c0-1.439,1.171-2.61,2.609-2.61
			s2.609,1.171,2.609,2.61C91.123,8.459,89.952,9.629,88.514,9.629z M88.514,6.629c-0.216,0-0.391,0.176-0.391,0.392
			c0,0.215,0.175,0.39,0.391,0.39s0.391-0.175,0.391-0.39C88.904,6.801,88.732,6.629,88.514,6.629z"/>
	</g>
	<g>
		<path style="fill:#33363A;" d="M70.789,8.773H56.711c-0.828,0-1.5-0.671-1.5-1.5s0.672-1.5,1.5-1.5h14.078
			c0.828,0,1.5,0.671,1.5,1.5S71.617,8.773,70.789,8.773z"/>
	</g>
	<g>
		<path style="fill:#FF8F8F;" d="M88.801,61.626c0,13.838-11.217,25.054-25.051,25.054c-13.836,0-25.051-11.216-25.051-25.054
			c0-13.834,11.215-25.049,25.051-25.049C77.584,36.577,88.801,47.792,88.801,61.626z"/>
	</g>
	<g>
		<path style="fill:#FF1A1A;" d="M88.801,61.626c0,10.599-11.217,19.19-25.051,19.19c-13.836,0-25.051-8.592-25.051-19.19
			c0-10.594,11.215-19.186,25.051-19.186C77.584,42.44,88.801,51.032,88.801,61.626z"/>
	</g>
	<g>
		<path style="fill:#FFFFFF;" d="M38.699,61.626c0,13.838,11.215,25.054,25.051,25.054c13.834,0,25.051-11.216,25.051-25.054H38.699
			z"/>
	</g>
	<g>
		<path style="fill:#D8E5EA;" d="M63.75,80.816c13.834,0,25.051-8.592,25.051-19.19H38.699
			C38.699,72.225,49.914,80.816,63.75,80.816z"/>
	</g>
	<path style="fill:#33363A;" d="M63.75,35.077c-14.641,0-26.551,11.91-26.551,26.549c0,14.642,11.91,26.554,26.551,26.554
		s26.551-11.912,26.551-26.554C90.301,46.987,78.391,35.077,63.75,35.077z M63.75,38.077c12.482,0,22.721,9.761,23.498,22.049
		H40.252C41.029,47.838,51.268,38.077,63.75,38.077z M63.75,85.18c-12.482,0-22.721-9.763-23.498-22.054h46.996
		C86.471,75.417,76.232,85.18,63.75,85.18z"/>
	<g>
		<g>
			<path style="fill:#A7BBC1;" d="M69.605,58.64c3.236,3.238,3.236,8.479,0,11.715c-3.234,3.235-8.477,3.235-11.713,0
				c-3.234-3.236-3.234-8.477,0-11.715C61.129,55.407,66.371,55.407,69.605,58.64z"/>
		</g>
		<g>
			<path style="fill:#FFFFFF;" d="M69.605,55.825c3.236,3.234,3.236,8.479,0,11.715c-3.234,3.231-8.477,3.231-11.713,0
				c-3.234-3.236-3.234-8.48,0-11.715C61.129,52.589,66.371,52.589,69.605,55.825z"/>
		</g>
		<g>
			<path style="fill:#D8E5EA;" d="M57.893,67.54c-3.234-3.236-3.234-8.48,0-11.715c3.236-3.236,8.479-3.236,11.713,0"/>
		</g>
		<g>
			<path style="fill:#33363A;" d="M63.75,71.458c-2.505,0-5.01-0.952-6.917-2.856c-3.814-3.817-3.814-10.023-0.001-13.837
				c1.849-1.849,4.306-2.867,6.918-2.867s5.068,1.018,6.916,2.866l0,0v0l0,0c1.849,1.848,2.866,4.304,2.866,6.917
				c0,2.613-1.018,5.07-2.866,6.918C68.76,70.505,66.255,71.458,63.75,71.458z M63.75,54.898c-1.812,0-3.515,0.706-4.797,1.988
				c-2.644,2.644-2.644,6.948,0,9.594c2.646,2.642,6.951,2.641,9.592,0c1.282-1.282,1.987-2.985,1.987-4.797
				c0-1.812-0.705-3.515-1.987-4.796c0,0,0,0,0,0C67.264,55.604,65.561,54.898,63.75,54.898z"/>
		</g>
	</g>
</g>
<g>
</g>
<g>
</g>
<g>
</g>
<g>
</g>
<g>
</g>
<g>
</g>
<g>
</g>
<g>
</g>
<g>
</g>
<g>
</g>
<g>
</g>
<g>
</g>
<g>
</g>
<g>
</g>
<g>
</g>
</svg>
