<?xml version="1.0" encoding="iso-8859-1"?>
<!-- Generator: Adobe Illustrator 19.0.0, SVG Export Plug-In . SVG Version: 6.00 Build 0)  -->
<svg version="1.1" id="Layer_1" xmlns="http://www.w3.org/2000/svg" xmlns:xlink="http://www.w3.org/1999/xlink" x="0px" y="0px"
	 viewBox="0 0 127.323 127.323" style="enable-background:new 0 0 127.323 127.323;" xml:space="preserve">
<g>
	<g>
		<path style="fill:#FF908A;" d="M82.853,65.539c-3.857,6.604-11.004,11.065-19.191,11.065S48.328,72.144,44.47,65.539H11.705
			c5.141,23.962,26.48,41.985,51.957,41.985s46.816-18.023,51.957-41.985H82.853z"/>
	</g>
	<g>
		<path style="fill:#FF6155;" d="M63.662,76.604c-8.188,0-15.334-4.461-19.191-11.065H16.343
			c8.809,17.19,26.707,28.991,47.318,28.991s38.51-11.801,47.318-28.991H82.853C78.996,72.144,71.849,76.604,63.662,76.604z"/>
	</g>
	<g>
		<path style="fill:#33363A;" d="M63.662,109.024c-25.589,0-48.058-18.156-53.424-43.171c-0.095-0.443,0.016-0.905,0.3-1.257
			c0.285-0.353,0.714-0.557,1.167-0.557H44.47c0.533,0,1.026,0.283,1.295,0.744c3.719,6.367,10.576,10.322,17.896,10.322
			s14.178-3.955,17.896-10.322c0.269-0.46,0.762-0.744,1.295-0.744h32.766c0.453,0,0.882,0.205,1.167,0.557
			c0.284,0.353,0.395,0.814,0.3,1.257C111.719,90.869,89.251,109.024,63.662,109.024z M13.595,67.039
			c5.744,22.7,26.505,38.985,50.066,38.985s44.322-16.285,50.066-38.985H83.696c-4.344,6.847-11.94,11.065-20.034,11.065
			s-15.69-4.218-20.034-11.065H13.595z"/>
	</g>
	<g>
		<path style="fill:#FF908A;" d="M44.47,43.486c3.857-6.604,11.004-11.067,19.191-11.067s15.334,4.463,19.191,11.067h32.766
			C110.478,19.524,89.138,1.5,63.662,1.5S16.845,19.524,11.705,43.486H44.47z"/>
	</g>
	<g>
		<path style="fill:#FF6155;" d="M63.662,32.419c8.188,0,15.334,4.463,19.191,11.067h28.127
			c-8.809-17.194-26.707-28.992-47.318-28.992s-38.51,11.798-47.318,28.992H44.47C48.328,36.882,55.474,32.419,63.662,32.419z"/>
	</g>
	<g>
		<path style="fill:#33363A;" d="M115.619,44.986H82.853c-0.533,0-1.026-0.283-1.295-0.744c-3.72-6.368-10.577-10.324-17.896-10.324
			s-14.177,3.956-17.896,10.324c-0.269,0.46-0.762,0.744-1.295,0.744H11.705c-0.453,0-0.882-0.205-1.167-0.557
			c-0.284-0.353-0.395-0.814-0.3-1.257C15.605,18.156,38.073,0,63.662,0s48.057,18.156,53.424,43.172
			c0.095,0.443-0.016,0.905-0.3,1.257C116.501,44.782,116.072,44.986,115.619,44.986z M83.696,41.986h30.032
			C107.984,19.286,87.223,3,63.662,3S19.34,19.286,13.595,41.986h30.032c4.345-6.848,11.941-11.067,20.034-11.067
			S79.351,35.138,83.696,41.986z"/>
	</g>
	<g>
		<g>
			<path style="fill:#FF908A;" d="M75.246,54.511c0,6.402-5.186,11.586-11.584,11.586s-11.586-5.184-11.586-11.586
				c0-6.396,5.188-11.586,11.586-11.586S75.246,48.114,75.246,54.511z"/>
		</g>
		<g>
			<path style="fill:#FF6155;" d="M52.076,54.511c0-6.396,5.188-11.586,11.586-11.586s11.584,5.189,11.584,11.586"/>
		</g>
		<g>
			<path style="fill:#33363A;" d="M63.662,67.597c-7.216,0-13.086-5.87-13.086-13.086s5.87-13.086,13.086-13.086
				c7.215,0,13.084,5.87,13.084,13.086S70.877,67.597,63.662,67.597z M63.662,44.425c-5.562,0-10.086,4.524-10.086,10.086
				S58.1,64.597,63.662,64.597c5.561,0,10.084-4.524,10.084-10.086S69.222,44.425,63.662,44.425z"/>
		</g>
	</g>
	<g>
		<g>
			<g>
				<path style="fill:#33363A;" d="M41.566,56.011H25.197c-0.828,0-1.5-0.671-1.5-1.5s0.672-1.5,1.5-1.5h16.369
					c0.828,0,1.5,0.671,1.5,1.5S42.394,56.011,41.566,56.011z"/>
			</g>
			<g>
				<path style="fill:#33363A;" d="M15.771,56.009c-0.399,0-0.779-0.16-1.06-0.44c-0.28-0.28-0.44-0.66-0.44-1.06
					c0-0.39,0.16-0.78,0.431-1.06c0.569-0.56,1.569-0.56,2.13,0c0.28,0.28,0.439,0.67,0.439,1.06c0,0.4-0.159,0.78-0.439,1.06
					C16.552,55.849,16.162,56.009,15.771,56.009z"/>
			</g>
			<g>
				<path style="fill:#33363A;" d="M7.181,56.009c-0.399,0-0.779-0.16-1.069-0.44c-0.271-0.28-0.431-0.66-0.431-1.06
					c0-0.39,0.16-0.78,0.431-1.06c0.569-0.56,1.569-0.56,2.13,0c0.279,0.28,0.439,0.67,0.439,1.06c0,0.39-0.16,0.78-0.439,1.06
					C7.952,55.849,7.572,56.009,7.181,56.009z"/>
			</g>
		</g>
		<g>
			<g>
				<path style="fill:#33363A;" d="M102.127,56.011H85.76c-0.828,0-1.5-0.671-1.5-1.5s0.672-1.5,1.5-1.5h16.367
					c0.828,0,1.5,0.671,1.5,1.5S102.955,56.011,102.127,56.011z"/>
			</g>
			<g>
				<path style="fill:#33363A;" d="M111.552,56.009c-0.39,0-0.78-0.16-1.06-0.44c-0.28-0.28-0.44-0.66-0.44-1.06
					c0-0.39,0.16-0.78,0.44-1.06c0.56-0.56,1.56-0.56,2.12,0c0.279,0.28,0.439,0.67,0.439,1.06c0,0.4-0.16,0.78-0.439,1.06
					C112.332,55.849,111.952,56.009,111.552,56.009z"/>
			</g>
			<g>
				<path style="fill:#33363A;" d="M120.141,56.009c-0.39,0-0.77-0.16-1.06-0.44c-0.28-0.28-0.44-0.66-0.44-1.06
					c0-0.39,0.16-0.78,0.44-1.06c0.57-0.56,1.57-0.56,2.12,0c0.279,0.28,0.439,0.67,0.439,1.06c0,0.4-0.16,0.78-0.439,1.06
					C120.931,55.849,120.542,56.009,120.141,56.009z"/>
			</g>
		</g>
	</g>
	<g>
		<path style="fill:#FFD00B;" d="M83.828,101.588c-0.322-0.996-1.182-1.722-2.217-1.87L70.91,98.161l-4.785-9.699
			c-0.461-0.936-1.418-1.529-2.463-1.529c-1.047,0-2.002,0.594-2.463,1.529l-4.785,9.699l-10.701,1.557
			c-1.037,0.148-1.895,0.874-2.219,1.87c-0.32,0.994-0.053,2.086,0.695,2.815l7.744,7.545l-1.828,10.658
			c-0.178,1.031,0.246,2.073,1.092,2.689c0.85,0.611,1.969,0.695,2.895,0.205l9.57-5.029l9.57,5.029
			c0.402,0.213,0.84,0.317,1.277,0.317c0.57,0,1.137-0.175,1.615-0.522c0.848-0.616,1.271-1.658,1.094-2.689l-1.83-10.658
			l7.744-7.545C83.883,103.674,84.15,102.582,83.828,101.588z"/>
	</g>
	<g>
		<path style="fill:#FFBE08;" d="M75.388,111.948l6.254-6.095c-0.01,0-0.02-0.004-0.031-0.006l-10.701-1.557l-4.785-9.698
			c-0.461-0.938-1.418-1.529-2.463-1.529c-1.047,0-2.002,0.592-2.463,1.529l-4.785,9.698l-10.701,1.557
			c-0.012,0.002-0.021,0.006-0.033,0.006l6.254,6.095l-0.9,5.25l0.9,0.879l-1.17,6.816c0.131,0.146,0.271,0.283,0.434,0.402
			c0.85,0.611,1.969,0.695,2.895,0.205l9.57-5.029l9.57,5.029c0.402,0.213,0.84,0.317,1.277,0.317c0.57,0,1.137-0.175,1.615-0.522
			c0.162-0.119,0.305-0.256,0.434-0.402l-1.17-6.816l0.9-0.879L75.388,111.948z"/>
	</g>
	<g>
		<path style="fill:#33363A;" d="M52.81,127.323c-0.873,0-1.743-0.272-2.489-0.809c-1.324-0.965-1.971-2.558-1.694-4.162
			l1.695-9.879l-7.18-6.995c-1.163-1.134-1.575-2.801-1.076-4.35c0.507-1.557,1.822-2.664,3.434-2.895l9.918-1.443l4.437-8.992
			c0.707-1.437,2.202-2.366,3.808-2.366s3.101,0.929,3.809,2.366l4.436,8.991l9.921,1.443c1.586,0.228,2.933,1.363,3.428,2.892l0,0
			c0.503,1.55,0.091,3.218-1.076,4.353l-7.178,6.994l1.696,9.88c0.276,1.604-0.371,3.198-1.69,4.157
			c-1.28,0.931-3.066,1.064-4.476,0.317l-8.869-4.661l-8.872,4.663C54.165,127.159,53.487,127.323,52.81,127.323z M63.662,88.433
			c-0.472,0-0.91,0.271-1.117,0.692l-4.786,9.7c-0.218,0.443-0.641,0.75-1.129,0.821l-10.701,1.557
			c-0.475,0.068-0.859,0.394-1.008,0.85c-0.145,0.446-0.021,0.949,0.315,1.277l7.744,7.544c0.354,0.344,0.515,0.841,0.432,1.328
			l-1.828,10.658c-0.082,0.473,0.108,0.941,0.497,1.224c0.384,0.277,0.89,0.314,1.309,0.092l9.574-5.031
			c0.438-0.229,0.959-0.229,1.396,0l9.57,5.029c0.424,0.225,0.94,0.18,1.313-0.091c0.388-0.282,0.578-0.75,0.497-1.221l-1.83-10.659
			c-0.083-0.487,0.078-0.983,0.432-1.328l7.744-7.545c0.343-0.333,0.463-0.823,0.315-1.279v0c-0.147-0.455-0.531-0.78-1.003-0.847
			l-10.704-1.557c-0.488-0.071-0.911-0.378-1.129-0.821l-4.785-9.699C64.572,88.704,64.134,88.433,63.662,88.433z"/>
	</g>
</g>
<g>
</g>
<g>
</g>
<g>
</g>
<g>
</g>
<g>
</g>
<g>
</g>
<g>
</g>
<g>
</g>
<g>
</g>
<g>
</g>
<g>
</g>
<g>
</g>
<g>
</g>
<g>
</g>
<g>
</g>
</svg>
