<?xml version="1.0" encoding="iso-8859-1"?>
<!-- Generator: Adobe Illustrator 19.0.0, SVG Export Plug-In . SVG Version: 6.00 Build 0)  -->
<svg version="1.1" id="Layer_1" xmlns="http://www.w3.org/2000/svg" xmlns:xlink="http://www.w3.org/1999/xlink" x="0px" y="0px"
	 viewBox="0 0 126.334 126.334" style="enable-background:new 0 0 126.334 126.334;" xml:space="preserve">
<g>
	<g>
		<circle style="fill:#7BC7FF;" cx="63.167" cy="63.166" r="61.666"/>
	</g>
	<g>
		<ellipse style="fill:#0086FF;" cx="63.167" cy="63.166" rx="61.666" ry="47.232"/>
	</g>
	<g>
		<g>
			<path style="fill:#FF6666;" d="M5.681,40.853h35.787v-13.5H12.981C10.017,31.501,7.554,36.029,5.681,40.853z"/>
		</g>
		<g>
			<path style="fill:#FF1A1A;" d="M8.81,40.853h32.658v-13.5H22.985C17.247,31.135,12.419,35.705,8.81,40.853z"/>
		</g>
		<g>
			<path style="fill:#FF6666;" d="M113.352,27.353H84.866v13.5h35.787C118.78,36.029,116.317,31.501,113.352,27.353z"/>
		</g>
		<g>
			<path style="fill:#FF1A1A;" d="M103.349,27.353H84.866v13.5h32.658C113.915,35.705,109.087,31.135,103.349,27.353z"/>
		</g>
	</g>
	<g>
		<path style="fill:#FFFFFF;" d="M1.501,63.166c0,34.061,27.609,61.668,61.666,61.668s61.666-27.607,61.666-61.668H1.501z"/>
	</g>
	<g>
		<path style="fill:#D8E5EA;" d="M63.167,110.398c34.057,0,61.666-21.148,61.666-47.232H1.501
			C1.501,89.25,29.11,110.398,63.167,110.398z"/>
	</g>
	<path style="fill:#33363A;" d="M122.08,40.422c-0.011-0.037-0.014-0.075-0.028-0.111c-0.177-0.457-0.366-0.91-0.554-1.363
		c-0.06-0.143-0.115-0.289-0.175-0.431c-0.35-0.826-0.724-1.641-1.11-2.451c-0.08-0.167-0.16-0.334-0.241-0.5
		c-0.841-1.728-1.762-3.418-2.759-5.064c-0.022-0.036-0.044-0.073-0.066-0.109c-0.811-1.332-1.665-2.64-2.574-3.911
		c-0.044-0.061-0.099-0.111-0.15-0.165C102.943,10.394,84.251,0,63.167,0S23.391,10.394,11.912,26.316
		c-0.052,0.053-0.107,0.103-0.15,0.165c-0.909,1.271-1.763,2.578-2.574,3.911c-0.022,0.036-0.044,0.073-0.066,0.109
		c-0.997,1.647-1.918,3.336-2.759,5.064c-0.081,0.166-0.161,0.333-0.241,0.5c-0.386,0.811-0.76,1.627-1.111,2.453
		c-0.06,0.141-0.114,0.284-0.173,0.425c-0.189,0.454-0.378,0.909-0.556,1.368c-0.014,0.036-0.017,0.074-0.028,0.111
		c-2.736,7.062-4.253,14.727-4.253,22.744c0,34.831,28.336,63.168,63.166,63.168s63.166-28.337,63.166-63.168
		C126.333,55.149,124.816,47.484,122.08,40.422z M118.389,39.354H86.366v-10.5h26.183C114.831,32.13,116.786,35.648,118.389,39.354z
		 M13.785,28.854h26.183v10.5H7.945C9.548,35.648,11.503,32.13,13.785,28.854z M6.747,42.354h34.721c0.829,0,1.5-0.671,1.5-1.5
		v-13.5c0-0.829-0.671-1.5-1.5-1.5H16.032C27.057,11.945,44.079,3,63.167,3s36.11,8.945,47.135,22.854H84.866
		c-0.829,0-1.5,0.671-1.5,1.5v13.5c0,0.829,0.671,1.5,1.5,1.5h34.721c2.236,6.046,3.541,12.539,3.708,19.313H3.039
		C3.206,54.892,4.511,48.399,6.747,42.354z M63.167,123.334c-32.673,0-59.327-26.184-60.128-58.668h120.256
		C122.494,97.15,95.84,123.334,63.167,123.334z"/>
	<g>
		<g>
			<circle style="fill:#A7BBC1;" cx="63.167" cy="68.868" r="16.764"/>
		</g>
		<g>
			<circle style="fill:#FFFFFF;" cx="63.167" cy="63.167" r="16.764"/>
		</g>
		<g>
			<path style="fill:#D8E5EA;" d="M51.313,75.021c-6.547-6.547-6.547-17.16,0-23.709c6.547-6.546,17.162-6.546,23.707,0"/>
		</g>
		<g>
			<path style="fill:#33363A;" d="M63.167,81.432c-4.878,0-9.465-1.9-12.915-5.35c-7.121-7.12-7.121-18.708,0-25.83
				c3.45-3.449,8.037-5.349,12.915-5.349c4.879,0,9.465,1.899,12.914,5.349h0c7.12,7.123,7.12,18.71,0,25.83
				C72.633,79.532,68.046,81.432,63.167,81.432z M63.167,47.903c-4.077,0-7.91,1.587-10.793,4.47
				c-5.951,5.953-5.951,15.637,0,21.588c2.883,2.883,6.716,4.471,10.793,4.471c4.078,0,7.91-1.588,10.792-4.471
				c5.951-5.951,5.951-15.635,0-21.588C71.078,49.491,67.245,47.903,63.167,47.903z"/>
		</g>
	</g>
	<g>
		<g>
			<path style="fill:#FFFFFF;" d="M68.87,68.87c-3.148,3.146-8.256,3.146-11.404,0c-3.148-3.15-3.148-8.255,0-11.403
				c3.148-3.15,8.256-3.148,11.404,0C72.019,60.615,72.019,65.72,68.87,68.87z"/>
		</g>
		<g>
			<path style="fill:#D8E5EA;" d="M57.466,57.467c3.148-3.15,8.256-3.148,11.404,0c3.148,3.148,3.148,8.253,0,11.403"/>
		</g>
		<g>
			<path style="fill:#33363A;" d="M63.168,72.725c-2.449,0-4.898-0.931-6.762-2.794c-3.729-3.73-3.728-9.797,0-13.525
				c1.805-1.807,4.207-2.802,6.762-2.802c0,0,0,0,0.001,0c2.555,0,4.957,0.996,6.763,2.802c3.728,3.728,3.728,9.794,0,13.524
				c0,0,0,0-0.001,0C68.066,71.794,65.617,72.725,63.168,72.725z M63.167,56.604c-1.753,0-3.401,0.683-4.64,1.923
				c-2.559,2.559-2.559,6.722,0,9.282c2.56,2.558,6.724,2.557,9.283,0c2.558-2.561,2.558-6.724,0-9.282
				C66.57,57.288,64.921,56.605,63.167,56.604C63.167,56.604,63.167,56.604,63.167,56.604z"/>
		</g>
	</g>
</g>
<g>
</g>
<g>
</g>
<g>
</g>
<g>
</g>
<g>
</g>
<g>
</g>
<g>
</g>
<g>
</g>
<g>
</g>
<g>
</g>
<g>
</g>
<g>
</g>
<g>
</g>
<g>
</g>
<g>
</g>
</svg>
