<?xml version="1.0" encoding="iso-8859-1"?>
<!-- Generator: Adobe Illustrator 19.0.0, SVG Export Plug-In . SVG Version: 6.00 Build 0)  -->
<svg version="1.1" id="Layer_1" xmlns="http://www.w3.org/2000/svg" xmlns:xlink="http://www.w3.org/1999/xlink" x="0px" y="0px"
	 viewBox="0 0 126.334 126.334" style="enable-background:new 0 0 126.334 126.334;" xml:space="preserve">
<g>
	<g>
		<circle style="fill:#4E5154;" cx="63.167" cy="63.166" r="61.667"/>
	</g>
	<g>
		<ellipse style="fill:#33363A;" cx="63.167" cy="63.166" rx="61.667" ry="47.232"/>
	</g>
	<g>
		<path style="fill:#FFDB80;" d="M100.578,14.155C90.201,6.223,77.238,1.5,63.168,1.5c-14.072,0-27.035,4.723-37.412,12.656V64.62
			h74.822V14.155z"/>
	</g>
	<g>
		<path style="fill:#FFBE08;" d="M100.578,25.627c-10.377-6.076-23.34-9.693-37.41-9.693c-14.072,0-27.035,3.617-37.412,9.693V64.62
			h74.822V25.627z"/>
	</g>
	<g>
		<path style="fill:#33363A;" d="M64.652,25.096h-2.971c-13.252,0-23.996,10.746-23.996,23.999V64.62h50.963V49.095
			C88.648,35.842,77.904,25.096,64.652,25.096z"/>
	</g>
	<g>
		<path style="fill:#FFFFFF;" d="M1.5,63.166c0,34.061,27.609,61.668,61.668,61.668c34.057,0,61.666-27.607,61.666-61.668H1.5z"/>
	</g>
	<g>
		<path style="fill:#D8E5EA;" d="M63.168,110.398c34.057,0,61.666-21.148,61.666-47.232H1.5
			C1.5,89.25,29.109,110.398,63.168,110.398z"/>
	</g>
	<path style="fill:#33363A;" d="M63.168,0C28.337,0,0,28.336,0,63.166c0,34.831,28.337,63.168,63.168,63.168
		c34.83,0,63.166-28.337,63.166-63.168C126.334,28.336,97.998,0,63.168,0z M63.168,3c32.673,0,59.327,26.183,60.128,58.666H3.038
		C3.839,29.183,30.494,3,63.168,3z M63.168,123.334c-32.674,0-59.329-26.184-60.13-58.668h120.258
		C122.495,97.15,95.841,123.334,63.168,123.334z"/>
	<g>
		<g>
			<path style="fill:#A7BBC1;" d="M75.019,57.014c6.549,6.549,6.549,17.161,0,23.709c-6.545,6.549-17.16,6.549-23.705,0
				c-6.547-6.548-6.547-17.16,0-23.709C57.859,50.467,68.475,50.467,75.019,57.014z"/>
		</g>
		<g>
			<path style="fill:#FFFFFF;" d="M75.019,51.312c6.549,6.549,6.549,17.162,0,23.709c-6.545,6.547-17.16,6.547-23.705,0
				c-6.547-6.547-6.547-17.16,0-23.709C57.859,44.767,68.475,44.767,75.019,51.312z"/>
		</g>
		<g>
			<path style="fill:#D8E5EA;" d="M51.314,75.021c-6.547-6.547-6.547-17.16,0-23.709c6.545-6.546,17.16-6.546,23.705,0"/>
		</g>
		<g>
			<path style="fill:#33363A;" d="M63.167,81.432c-4.878,0-9.465-1.9-12.914-5.35c-7.12-7.12-7.12-18.708,0-25.83
				c3.449-3.449,8.035-5.349,12.914-5.349s9.464,1.899,12.913,5.349l0,0l0,0c3.451,3.451,5.351,8.038,5.351,12.916
				c0,4.878-1.9,9.465-5.351,12.915C72.632,79.532,68.045,81.432,63.167,81.432z M63.167,47.903c-4.077,0-7.91,1.587-10.792,4.47
				c-5.951,5.953-5.951,15.637,0,21.588c2.882,2.883,6.715,4.471,10.792,4.471s7.91-1.588,10.792-4.471
				c2.884-2.883,4.473-6.716,4.473-10.793c0-4.077-1.588-7.91-4.472-10.794l0,0C71.077,49.491,67.244,47.903,63.167,47.903z"/>
		</g>
	</g>
	<g>
		<g>
			<path style="fill:#FFFFFF;" d="M68.871,68.87c-3.15,3.146-8.256,3.146-11.404,0c-3.148-3.15-3.148-8.255,0-11.403
				c3.148-3.15,8.254-3.148,11.404,0C72.019,60.615,72.019,65.72,68.871,68.87z"/>
		</g>
		<g>
			<path style="fill:#D8E5EA;" d="M57.467,57.467c3.148-3.15,8.254-3.148,11.404,0c3.148,3.148,3.148,8.253,0,11.403"/>
		</g>
		<g>
			<path style="fill:#33363A;" d="M63.168,72.725c-2.449,0-4.898-0.931-6.762-2.793c-3.729-3.73-3.728-9.797,0-13.525
				c1.805-1.807,4.207-2.802,6.761-2.802c0,0,0,0,0.001,0c2.554,0,4.956,0.995,6.763,2.801c3.728,3.728,3.728,9.795,0,13.525
				c0,0-0.001,0-0.001,0.001C68.066,71.793,65.617,72.725,63.168,72.725z M63.167,56.604c-1.753,0-3.4,0.683-4.639,1.923
				c-2.559,2.559-2.559,6.722,0,9.282c2.559,2.557,6.723,2.556,9.283,0c2.557-2.56,2.557-6.724,0-9.282
				C66.57,57.288,64.921,56.605,63.167,56.604C63.168,56.604,63.167,56.604,63.167,56.604z"/>
		</g>
	</g>
</g>
<g>
</g>
<g>
</g>
<g>
</g>
<g>
</g>
<g>
</g>
<g>
</g>
<g>
</g>
<g>
</g>
<g>
</g>
<g>
</g>
<g>
</g>
<g>
</g>
<g>
</g>
<g>
</g>
<g>
</g>
</svg>
