<?xml version="1.0" encoding="iso-8859-1"?>
<!-- Generator: Adobe Illustrator 19.0.0, SVG Export Plug-In . SVG Version: 6.00 Build 0)  -->
<svg version="1.1" id="Layer_1" xmlns="http://www.w3.org/2000/svg" xmlns:xlink="http://www.w3.org/1999/xlink" x="0px" y="0px"
	 viewBox="0 0 127.723 127.723" style="enable-background:new 0 0 127.723 127.723;" xml:space="preserve">
<g>
	<g>
		<g>
			<g>
				<path style="fill:#FFFFFF;" d="M9.58,47.725L50.494,6.817c7.097-7.096,19.661-7.084,26.748,0.004l40.902,40.906
					c7.382,7.389,7.382,19.363-0.002,26.748c-7.391,7.377-19.358,7.383-26.745-0.004l-8.617-8.621v41.461
					c0,10.445-8.469,18.912-18.913,18.912c-10.446,0-18.909-8.467-18.909-18.912V65.842l-8.634,8.633
					c-3.696,3.688-8.534,5.535-13.373,5.535c-4.835,0-9.68-1.848-13.372-5.539C2.196,67.083,2.196,55.114,9.58,47.725z"/>
			</g>
			<g>
				<path style="fill:#E9F1F4;" d="M63.623,1.512c4.997-0.059,10.015,1.705,13.618,5.309l40.902,40.906
					c7.382,7.389,7.382,19.363-0.002,26.748c-7.391,7.377-19.358,7.383-26.745-0.004l-8.617-8.621v41.461
					c0,10.445-8.469,18.912-18.913,18.912c-0.082,0-0.161-0.012-0.243-0.012V1.512z"/>
			</g>
			<g>
				<path style="fill:#D8E5EA;" d="M36.323,74.475c-3.696,3.688-8.534,5.535-13.373,5.535c-3.254,0-6.511-0.857-9.419-2.535
					l36.963-36.959c7.097-7.092,19.661-7.084,26.748,0.006l36.949,36.953c-7.23,4.162-16.617,3.176-22.794-3.004l-8.617-8.621
					v33.699v7.762c0,10.445-8.469,18.912-18.913,18.912c-10.446,0-18.909-8.467-18.909-18.912v-7.77V65.842L36.323,74.475z"/>
			</g>
			<g>
				<path style="fill:#E9F1F4;" d="M63.861,35.202v91.021c-10.444-0.002-18.904-8.469-18.904-18.912v-7.77V65.842l-8.634,8.633
					c-3.696,3.688-8.534,5.535-13.373,5.535c-3.254,0-6.511-0.857-9.419-2.535l36.963-36.959
					C54.039,36.973,58.951,35.202,63.861,35.202z"/>
			</g>
			<g>
				<path style="fill:#33363A;" d="M63.866,127.723c-11.253,0-20.409-9.157-20.409-20.412V69.463l-6.074,6.072
					c-3.862,3.854-8.987,5.975-14.434,5.975c-5.451,0-10.577-2.123-14.433-5.979c-7.952-7.96-7.951-20.909,0.002-28.867h0
					L49.433,5.756C53.092,2.098,58.351,0,63.863,0c0.003,0,0.006,0,0.009,0c5.513,0.002,10.772,2.102,14.43,5.76l40.902,40.906
					c7.955,7.962,7.954,20.913-0.002,28.869c-7.965,7.951-20.914,7.947-28.866-0.004l-6.057-6.06v37.839
					C84.279,118.566,75.122,127.723,63.866,127.723z M44.957,64.342c0.193,0,0.388,0.037,0.574,0.114
					c0.561,0.232,0.926,0.779,0.926,1.386v41.469c0,9.601,7.81,17.412,17.409,17.412c9.602,0,17.413-7.812,17.413-17.412V65.85
					c0-0.606,0.366-1.153,0.926-1.386c0.561-0.234,1.206-0.103,1.635,0.325l8.617,8.621c6.783,6.782,17.83,6.785,24.625,0.003
					c6.786-6.786,6.787-17.834,0.001-24.626L76.181,7.881c-3.1-3.1-7.587-4.879-12.311-4.881c-0.002,0-0.005,0-0.007,0
					c-4.723,0-9.208,1.777-12.309,4.877L10.641,48.786h0c-6.785,6.789-6.786,17.836-0.003,24.625c3.289,3.288,7.661,5.1,12.311,5.1
					c4.646,0,9.02-1.811,12.314-5.097l8.633-8.632C44.183,64.495,44.567,64.342,44.957,64.342z"/>
			</g>
		</g>
		<g>
			<g>
				<path style="fill:#33363A;" d="M82.886,67.35c-0.384,0-0.768-0.146-1.061-0.439l-9.095-9.089c-0.586-0.586-0.586-1.536,0-2.122
					c0.586-0.586,1.536-0.585,2.122,0l9.095,9.09c0.586,0.585,0.586,1.535,0,2.121C83.654,67.204,83.269,67.35,82.886,67.35z"/>
			</g>
			<g>
				<path style="fill:#33363A;" d="M44.835,67.35c-0.384,0-0.768-0.146-1.061-0.439c-0.585-0.586-0.585-1.536,0-2.121l9.093-9.09
					c0.586-0.585,1.536-0.585,2.122,0c0.585,0.586,0.585,1.536,0,2.122l-9.093,9.089C45.603,67.204,45.219,67.35,44.835,67.35z"/>
			</g>
		</g>
	</g>
	<g>
		<g>
			<path style="fill:#FF8F8F;" d="M81.285,51.059c0,9.625-7.802,17.426-17.425,17.426c-9.622,0-17.424-7.801-17.424-17.426
				c0-9.621,7.801-17.422,17.424-17.422C73.483,33.637,81.285,41.438,81.285,51.059z"/>
		</g>
		<g>
			<path style="fill:#FF1A1A;" d="M81.285,51.059c0,7.373-7.802,13.348-17.425,13.348c-9.622,0-17.424-5.975-17.424-13.348
				c0-7.367,7.801-13.346,17.424-13.346C73.483,37.713,81.285,43.692,81.285,51.059z"/>
		</g>
		<g>
			<path style="fill:#FFFFFF;" d="M46.436,51.059c0,9.625,7.801,17.426,17.424,17.426c9.623,0,17.425-7.801,17.425-17.426H46.436z"
				/>
		</g>
		<g>
			<path style="fill:#D8E5EA;" d="M63.86,64.407c9.623,0,17.425-5.975,17.425-13.348H46.436
				C46.436,58.432,54.238,64.407,63.86,64.407z"/>
		</g>
		<path style="fill:#33363A;" d="M63.86,32.137c-10.435,0-18.924,8.488-18.924,18.922c0,10.436,8.489,18.926,18.924,18.926
			c10.435,0,18.925-8.49,18.925-18.926C82.785,40.625,74.295,32.137,63.86,32.137z M63.86,35.137c8.274,0,15.09,6.344,15.849,14.422
			H48.012C48.772,41.481,55.586,35.137,63.86,35.137z M63.86,66.985c-8.274,0-15.089-6.346-15.848-14.426h31.697
			C78.95,60.639,72.135,66.985,63.86,66.985z"/>
		<g>
			<g>
				<circle style="fill:#A7BBC1;" cx="63.86" cy="53.056" r="5.761"/>
			</g>
			<g>
				<circle style="fill:#FFFFFF;" cx="63.86" cy="51.098" r="5.761"/>
			</g>
			<g>
				<path style="fill:#D8E5EA;" d="M59.787,55.172c-2.25-2.25-2.25-5.9,0-8.148c2.251-2.25,5.898-2.25,8.147,0"/>
			</g>
			<g>
				<path style="fill:#33363A;" d="M63.861,58.36c-1.939,0-3.763-0.755-5.135-2.126c-1.372-1.372-2.126-3.196-2.126-5.136
					c0-1.94,0.755-3.764,2.126-5.135c1.372-1.371,3.196-2.126,5.135-2.126c1.939,0,3.762,0.755,5.133,2.126l0,0
					c1.372,1.371,2.128,3.194,2.128,5.135c0,1.94-0.756,3.764-2.127,5.135C67.624,57.604,65.801,58.36,63.861,58.36z M63.861,46.836
					c-1.138,0-2.208,0.443-3.014,1.249c-0.805,0.804-1.248,1.874-1.248,3.013c0,1.139,0.443,2.209,1.248,3.014
					c0.805,0.805,1.875,1.248,3.014,1.248s2.208-0.443,3.012-1.248c0.806-0.805,1.249-1.875,1.249-3.014s-0.443-2.208-1.248-3.013
					c0,0,0,0-0.001,0C66.069,47.28,64.999,46.836,63.861,46.836z"/>
			</g>
		</g>
	</g>
	<g>
		<g>
			<path style="fill:#33363A;" d="M68.617,88.374c-0.384,0-0.768-0.146-1.061-0.439l-3.695-3.696l-3.695,3.696
				c-0.586,0.586-1.536,0.586-2.122,0c-0.586-0.585-0.586-1.535,0-2.121l4.756-4.758c0.563-0.563,1.559-0.563,2.122,0l4.756,4.758
				c0.585,0.586,0.585,1.536,0,2.121C69.384,88.227,69,88.374,68.617,88.374z"/>
		</g>
		<g>
			<path style="fill:#33363A;" d="M63.86,94.352c-0.829,0-1.5-0.672-1.5-1.5V82.116c0-0.828,0.671-1.5,1.5-1.5s1.5,0.672,1.5,1.5
				v10.736C65.36,93.68,64.689,94.352,63.86,94.352z"/>
		</g>
		<g>
			<path style="fill:#33363A;" d="M63.861,98.862c-0.4,0-0.78-0.16-1.06-0.44c-0.28-0.279-0.44-0.67-0.44-1.06
				c0-0.4,0.16-0.78,0.44-1.061c0.56-0.56,1.56-0.56,2.12,0c0.28,0.28,0.44,0.66,0.44,1.061c0,0.39-0.16,0.78-0.44,1.06
				C64.641,98.702,64.25,98.862,63.861,98.862z"/>
		</g>
		<g>
			<path style="fill:#33363A;" d="M63.861,103.362c-0.4,0-0.78-0.16-1.06-0.44c-0.28-0.279-0.44-0.67-0.44-1.06
				c0-0.4,0.16-0.78,0.44-1.061c0.56-0.56,1.56-0.56,2.12,0c0.28,0.28,0.44,0.66,0.44,1.061c0,0.39-0.16,0.78-0.44,1.06
				C64.641,103.202,64.25,103.362,63.861,103.362z"/>
		</g>
		<g>
			<path style="fill:#33363A;" d="M63.861,107.862c-0.39,0-0.78-0.16-1.06-0.44c-0.28-0.279-0.44-0.66-0.44-1.06
				c0-0.4,0.16-0.78,0.44-1.061c0.56-0.56,1.57-0.56,2.12,0c0.28,0.28,0.44,0.66,0.44,1.061c0,0.39-0.16,0.78-0.44,1.06
				C64.641,107.702,64.261,107.862,63.861,107.862z"/>
		</g>
	</g>
	<g>
		<g>
			<path style="fill:#33363A;" d="M31.511,105.676l-4.756-4.758c0,0-0.001,0-0.001-0.001c-0.271-0.271-0.646-0.439-1.06-0.439
				s-0.788,0.168-1.06,0.439c0,0-0.001,0-0.001,0.001l-4.756,4.758c-0.585,0.586-0.585,1.536,0,2.121
				c0.586,0.586,1.536,0.586,2.122,0l2.195-2.196v7.114c0,0.828,0.671,1.5,1.5,1.5s1.5-0.672,1.5-1.5v-7.114l2.195,2.196
				c0.293,0.293,0.677,0.439,1.061,0.439s0.768-0.146,1.061-0.439C32.097,107.212,32.097,106.262,31.511,105.676z"/>
			<path style="fill:#33363A;" d="M24.631,116.162c-0.28,0.28-0.44,0.67-0.44,1.06c0,0.391,0.16,0.78,0.44,1.061
				c0.28,0.28,0.67,0.439,1.06,0.439c0.4,0,0.78-0.159,1.07-0.439c0.27-0.28,0.43-0.67,0.43-1.061c0-0.39-0.16-0.779-0.44-1.06
				C26.19,115.602,25.19,115.602,24.631,116.162z"/>
			<path style="fill:#33363A;" d="M24.631,120.662c-0.28,0.28-0.44,0.67-0.44,1.06c0,0.391,0.16,0.78,0.44,1.061
				c0.28,0.28,0.67,0.439,1.06,0.439c0.4,0,0.78-0.159,1.06-0.439c0.28-0.28,0.44-0.67,0.44-1.061c0-0.39-0.16-0.779-0.44-1.06
				C26.19,120.102,25.19,120.102,24.631,120.662z"/>
			<path style="fill:#33363A;" d="M24.631,125.162c-0.28,0.28-0.44,0.67-0.44,1.06c0,0.391,0.16,0.78,0.44,1.061
				c0.28,0.28,0.67,0.439,1.06,0.439c0.39,0,0.78-0.159,1.07-0.439c0.27-0.28,0.43-0.67,0.43-1.061c0-0.39-0.16-0.779-0.44-1.06
				C26.19,124.602,25.19,124.602,24.631,125.162z"/>
		</g>
		<g>
			<path style="fill:#33363A;" d="M107.845,105.676l-4.756-4.758c0,0-0.001,0-0.001-0.001c-0.271-0.271-0.646-0.439-1.06-0.439
				s-0.788,0.168-1.06,0.439c0,0-0.001,0-0.001,0.001l-4.756,4.758c-0.585,0.586-0.585,1.536,0,2.121
				c0.586,0.586,1.536,0.586,2.122,0l2.195-2.196v7.114c0,0.828,0.671,1.5,1.5,1.5s1.5-0.672,1.5-1.5v-7.114l2.195,2.196
				c0.293,0.293,0.677,0.439,1.061,0.439s0.768-0.146,1.061-0.439C108.43,107.212,108.43,106.262,107.845,105.676z"/>
			<path style="fill:#33363A;" d="M100.96,116.162c-0.27,0.28-0.43,0.67-0.43,1.06c0,0.391,0.16,0.78,0.44,1.061
				c0.28,0.28,0.66,0.439,1.06,0.439c0.39,0,0.78-0.159,1.06-0.439c0.28-0.28,0.44-0.67,0.44-1.061c0-0.39-0.16-0.779-0.44-1.06
				C102.531,115.602,101.531,115.602,100.96,116.162z"/>
			<path style="fill:#33363A;" d="M100.971,120.662c-0.28,0.28-0.44,0.67-0.44,1.06c0,0.391,0.16,0.78,0.44,1.061
				c0.28,0.28,0.66,0.439,1.06,0.439c0.39,0,0.78-0.159,1.06-0.439c0.28-0.28,0.44-0.67,0.44-1.061c0-0.39-0.16-0.779-0.44-1.06
				C102.531,120.102,101.52,120.102,100.971,120.662z"/>
			<path style="fill:#33363A;" d="M100.96,125.162c-0.27,0.28-0.43,0.67-0.43,1.06c0,0.391,0.16,0.78,0.44,1.061
				c0.28,0.28,0.66,0.439,1.06,0.439c0.39,0,0.78-0.159,1.06-0.439c0.28-0.28,0.44-0.67,0.44-1.061c0-0.39-0.16-0.779-0.44-1.06
				C102.531,124.602,101.531,124.602,100.96,125.162z"/>
		</g>
	</g>
</g>
<g>
</g>
<g>
</g>
<g>
</g>
<g>
</g>
<g>
</g>
<g>
</g>
<g>
</g>
<g>
</g>
<g>
</g>
<g>
</g>
<g>
</g>
<g>
</g>
<g>
</g>
<g>
</g>
<g>
</g>
</svg>
