<?xml version="1.0" encoding="iso-8859-1"?>
<!-- Generator: Adobe Illustrator 19.0.0, SVG Export Plug-In . SVG Version: 6.00 Build 0)  -->
<svg version="1.1" id="Layer_1" xmlns="http://www.w3.org/2000/svg" xmlns:xlink="http://www.w3.org/1999/xlink" x="0px" y="0px"
	 viewBox="0 0 128.02 128.02" style="enable-background:new 0 0 128.02 128.02;" xml:space="preserve">
<g>
	<g>
		<g>
			<path style="fill:#F2D9A7;" d="M113.219,89.078c0,20.676-22.031,37.441-49.209,37.441s-49.209-16.766-49.209-37.441
				c0-20.68,22.031-45.459,49.209-45.459S113.219,68.398,113.219,89.078z"/>
		</g>
		<g>
			<path style="fill:#DDC38A;" d="M113.219,89.078c0,20.676-22.031,37.441-49.209,37.441s-49.209-16.766-49.209-37.441
				c0-20.68,22.031-34.928,49.209-34.928S113.219,68.398,113.219,89.078z"/>
		</g>
		<g>
			<path style="fill:#F2D9A7;" d="M74.489,88.85c0,1.395-4.691,1.645-10.478,1.645c-5.787,0-10.479-0.25-10.479-1.645
				c0-1.392,4.692-5.035,10.479-5.035C69.798,83.814,74.489,87.457,74.489,88.85z"/>
		</g>
		<g>
			<path style="fill:#C6A86D;" d="M113.219,89.078c0,20.676-22.031,37.441-49.209,37.441s-49.209-16.766-49.209-37.441
				c0-20.682,6.262,18.34,49.209,18.34C106.958,107.418,113.219,68.396,113.219,89.078z"/>
		</g>
		<g>
			<path style="fill:#33363A;" d="M64.01,128.02c-27.961,0-50.709-17.469-50.709-38.941c0-21.27,22.62-46.959,50.709-46.959
				s50.709,25.689,50.709,46.959C114.719,110.551,91.971,128.02,64.01,128.02z M64.01,45.119c-26.428,0-47.709,24.048-47.709,43.959
				c0,19.818,21.402,35.941,47.709,35.941s47.709-16.123,47.709-35.941C111.719,69.167,90.438,45.119,64.01,45.119z"/>
		</g>
	</g>
	<g>
		<path style="fill:#6D5C4D;" d="M47.848,88.271c0,4.449-3.605,8.051-8.052,8.051c-4.446,0-8.051-3.602-8.051-8.051
			c0-4.447,3.604-8.053,8.051-8.053C44.242,80.219,47.848,83.824,47.848,88.271z"/>
	</g>
	<g>
		<circle style="fill:#FFFFFF;" cx="35.792" cy="85.654" r="3.28"/>
	</g>
	<path style="fill:#33363A;" d="M39.796,78.719c-3.243,0-6.109,1.628-7.836,4.107c-0.108,0.145-0.201,0.298-0.292,0.456
		c-0.896,1.454-1.422,3.16-1.422,4.99c0,5.267,4.285,9.551,9.551,9.551c5.267,0,9.552-4.284,9.552-9.551
		C49.348,83.004,45.063,78.719,39.796,78.719z M39.796,94.822c-2.721,0-5.058-1.668-6.047-4.035
		c0.689-0.019,1.527-0.201,2.472-0.397c0.334-0.03,0.655-0.093,0.966-0.189c0.819-0.149,1.694-0.268,2.609-0.268
		c2.413,0,4.572,0.814,6.048,0.854C44.855,93.154,42.517,94.822,39.796,94.822z"/>
	<circle style="fill:#FFFFFF;" cx="35.791" cy="85.654" r="1.779"/>
	<g>
		<path style="fill:#6D5C4D;" d="M96.275,88.271c0,4.449-3.605,8.051-8.051,8.051c-4.447,0-8.053-3.602-8.053-8.051
			c0-4.447,3.605-8.053,8.053-8.053C92.67,80.219,96.275,83.824,96.275,88.271z"/>
	</g>
	<g>
		<circle style="fill:#FFFFFF;" cx="84.22" cy="85.654" r="3.28"/>
	</g>
	<path style="fill:#33363A;" d="M88.225,78.719c-3.249,0-6.121,1.634-7.848,4.12c-0.1,0.137-0.188,0.281-0.273,0.428
		c-0.902,1.458-1.432,3.169-1.432,5.005c0,5.267,4.285,9.551,9.553,9.551c5.266,0,9.551-4.284,9.551-9.551
		C97.775,83.004,93.491,78.719,88.225,78.719z M88.225,94.822c-2.722,0-5.06-1.668-6.049-4.035c0.689-0.019,1.527-0.201,2.472-0.397
		c0.334-0.03,0.656-0.093,0.967-0.189c0.819-0.148,1.694-0.268,2.609-0.268c2.412,0,4.571,0.814,6.047,0.854
		C93.283,93.154,90.946,94.822,88.225,94.822z"/>
	<circle style="fill:#FFFFFF;" cx="84.22" cy="85.654" r="1.779"/>
	<g>
		<g>
			<ellipse style="fill:#AF4AD1;" cx="64.011" cy="107.324" rx="22.447" ry="13.873"/>
		</g>
		<g>
			<path style="fill:#923BB7;" d="M86.458,107.324c0,7.662-10.051,13.873-22.447,13.873c-12.396,0-22.447-6.211-22.447-13.873
				c0-7.66,10.051-1.834,22.447-1.834C76.407,105.49,86.458,99.664,86.458,107.324z"/>
		</g>
		<g>
			<path style="fill:#33363A;" d="M64.011,122.697c-13.428,0-23.947-6.753-23.947-15.373c0-8.619,10.519-15.371,23.947-15.371
				s23.947,6.752,23.947,15.371C87.958,115.944,77.439,122.697,64.011,122.697z M64.011,94.953c-11.55,0-20.947,5.55-20.947,12.371
				c0,6.822,9.397,12.373,20.947,12.373s20.947-5.551,20.947-12.373C84.958,100.503,75.561,94.953,64.011,94.953z"/>
		</g>
	</g>
	<g>
		<path style="fill:#FFFFFF;" d="M86.044,51.316L64.01,1.5L41.979,51.312c-0.397,0.594-0.63,1.211-0.63,1.848
			c0,4.424,10.146,8.008,22.661,8.008c12.516,0,22.662-3.584,22.662-8.008C86.672,52.523,86.44,51.91,86.044,51.316z"/>
	</g>
	<g>
		<path style="fill:#D9E7E8;" d="M53.068,60.174c3.244,0.633,6.973,0.994,10.941,0.994c3.969,0,7.698-0.361,10.943-0.994
			c-0.041-0.199-0.074-0.4-0.129-0.596L64.01,1.5L53.197,59.574C53.142,59.77,53.109,59.973,53.068,60.174z"/>
	</g>
	<g>
		<path style="fill:#33363A;" d="M64.01,62.668c-11.713,0-24.161-3.332-24.161-9.508c0-0.864,0.271-1.727,0.807-2.565L62.638,0.894
			C62.878,0.351,63.416,0,64.01,0s1.132,0.351,1.372,0.894l21.985,49.705c0.535,0.839,0.805,1.7,0.805,2.562
			C88.172,59.336,75.723,62.668,64.01,62.668z M64.01,5.208L43.35,51.919c-0.035,0.08-0.077,0.156-0.125,0.228
			c-0.25,0.373-0.376,0.715-0.376,1.014c0,2.718,8.05,6.508,21.161,6.508c13.111,0,21.162-3.79,21.162-6.508
			c0-0.302-0.123-0.633-0.375-1.011c-0.048-0.071-0.089-0.147-0.124-0.227L64.01,5.208z"/>
	</g>
</g>
<g>
</g>
<g>
</g>
<g>
</g>
<g>
</g>
<g>
</g>
<g>
</g>
<g>
</g>
<g>
</g>
<g>
</g>
<g>
</g>
<g>
</g>
<g>
</g>
<g>
</g>
<g>
</g>
<g>
</g>
</svg>
