<?xml version="1.0" encoding="iso-8859-1"?>
<!-- Generator: Adobe Illustrator 19.0.0, SVG Export Plug-In . SVG Version: 6.00 Build 0)  -->
<svg version="1.1" id="Layer_1" xmlns="http://www.w3.org/2000/svg" xmlns:xlink="http://www.w3.org/1999/xlink" x="0px" y="0px"
	 viewBox="0 0 127.908 127.908" style="enable-background:new 0 0 127.908 127.908;" xml:space="preserve">
<g>
	<g>
		<g>
			<g>
				<g>
					<g>
						<path style="fill:#FFF24D;" d="M63.955,126.408c-2.877,0-5.459-1.759-6.514-4.434L31.084,55.097
							c-1.418-3.597,0.35-7.661,3.945-9.079c3.6-1.416,7.662,0.349,9.08,3.946l19.846,50.354l19.844-50.354
							c1.42-3.597,5.484-5.362,9.08-3.946c3.598,1.418,5.363,5.482,3.945,9.079l-26.357,66.878
							C69.412,124.65,66.83,126.408,63.955,126.408z"/>
					</g>
				</g>
				<g>
					<g>
						<path style="fill:#FFF24D;" d="M99.291,34.246c-0.855,0-1.723-0.157-2.566-0.489c-3.596-1.418-5.363-5.482-3.945-9.079
							l1.934-4.905l-28.584,9.342c-1.412,0.463-2.935,0.463-4.35,0l-28.584-9.342l1.934,4.905c1.418,3.597-0.35,7.661-3.945,9.079
							c-3.598,1.418-7.662-0.35-9.08-3.946l-7.389-18.748C13.72,8.54,14.273,5.67,16.133,3.696c1.859-1.973,4.691-2.697,7.27-1.854
							l40.553,13.254l40.551-13.254c2.58-0.844,5.412-0.119,7.27,1.854c1.861,1.974,2.412,4.844,1.418,7.366l-7.389,18.748
							C104.718,32.564,102.082,34.246,99.291,34.246z"/>
					</g>
				</g>
			</g>
			<g>
				<g>
					<path style="fill:#FFD00B;" d="M63.955,126.408c2.875,0,5.457-1.758,6.512-4.434L96.342,56.32
						c-0.764-1.303-1.947-2.373-3.463-2.97c-3.596-1.416-7.66,0.35-9.08,3.946L63.955,107.65L44.109,57.297
						c-1.418-3.598-5.48-5.362-9.08-3.946c-1.514,0.597-2.699,1.667-3.463,2.97l25.875,65.654
						C58.496,124.649,61.078,126.408,63.955,126.408z"/>
				</g>
				<g>
					<path style="fill:#FFD00B;" d="M96.724,33.757c0.844,0.332,1.711,0.489,2.566,0.489c2.791,0,5.428-1.682,6.514-4.435
						l6.902-17.512c-0.264-0.449-0.564-0.881-0.932-1.27c-1.857-1.973-4.689-2.697-7.27-1.853L63.955,22.43L23.402,9.176
						c-2.578-0.844-5.41-0.119-7.27,1.853c-0.367,0.389-0.666,0.82-0.93,1.27l6.9,17.512c1.418,3.597,5.482,5.364,9.08,3.946
						c1.514-0.597,2.699-1.667,3.463-2.97l-1.451-3.682l2.387,0.779c0.098-1.057-0.037-2.151-0.453-3.207l-1.934-4.905l28.584,9.342
						c1.414,0.463,2.938,0.463,4.35,0l28.584-9.342l-1.934,4.905c-0.416,1.056-0.551,2.15-0.451,3.207l2.385-0.779l-1.451,3.682
						C94.027,32.09,95.211,33.16,96.724,33.757z"/>
				</g>
			</g>
			<g>
				<g>
					<g>
						<path style="fill:#33363A;" d="M63.955,127.908c-3.515,0-6.62-2.113-7.909-5.384L29.688,55.647
							c-1.719-4.359,0.431-9.305,4.791-11.024c4.359-1.717,9.308,0.434,11.025,4.792l18.45,46.813l18.448-46.813
							c1.721-4.359,6.663-6.51,11.025-4.792c2.113,0.833,3.774,2.438,4.68,4.521c0.904,2.082,0.944,4.392,0.111,6.504
							l-26.357,66.877C70.573,125.795,67.469,127.908,63.955,127.908z M37.588,47.031c-0.67,0-1.35,0.123-2.01,0.382
							c-2.82,1.112-4.211,4.312-3.099,7.133l26.357,66.878c0.834,2.116,2.844,3.483,5.118,3.483c2.273,0,4.282-1.367,5.116-3.483
							l26.357-66.878c0.539-1.367,0.514-2.862-0.072-4.209c-0.585-1.347-1.66-2.386-3.027-2.925
							c-2.821-1.11-6.021,0.281-7.135,3.102L65.35,100.867c-0.226,0.573-0.779,0.95-1.396,0.95s-1.17-0.377-1.396-0.95
							L42.714,50.514C41.862,48.353,39.783,47.031,37.588,47.031z"/>
					</g>
				</g>
				<g>
					<g>
						<path style="fill:#33363A;" d="M99.291,35.746c-1.066,0-2.115-0.2-3.115-0.593c-4.361-1.72-6.511-6.666-4.792-11.025
							l0.765-1.938L66.594,30.54c-1.725,0.565-3.552,0.565-5.282,0l-25.553-8.351l0.765,1.938c1.719,4.36-0.431,9.305-4.791,11.025
							c-4.359,1.718-9.306-0.431-11.025-4.792l-7.389-18.749c-1.201-3.048-0.525-6.559,1.722-8.945
							c2.25-2.386,5.714-3.268,8.828-2.25l40.086,13.102L104.04,0.417c3.118-1.019,6.581-0.135,8.827,2.251
							c2.248,2.383,2.924,5.895,1.722,8.944L107.2,30.36C105.91,33.632,102.805,35.746,99.291,35.746z M94.713,18.273
							c0.406,0,0.804,0.166,1.092,0.471c0.398,0.423,0.517,1.038,0.304,1.579l-1.934,4.905c-1.112,2.821,0.278,6.021,3.1,7.133
							c0.648,0.255,1.327,0.385,2.017,0.385c2.274,0,4.283-1.368,5.118-3.486l7.389-18.748c0.777-1.974,0.341-4.245-1.113-5.787
							c-1.455-1.544-3.694-2.117-5.713-1.457L64.421,16.523c-0.303,0.099-0.629,0.099-0.932,0L22.936,3.269
							c-2.016-0.66-4.257-0.087-5.712,1.457c-1.454,1.543-1.892,3.815-1.114,5.788l7.389,18.748
							c1.113,2.822,4.314,4.213,7.135,3.101c2.821-1.113,4.212-4.312,3.1-7.133L31.8,20.323c-0.213-0.541-0.095-1.156,0.304-1.579
							c0.399-0.423,1.011-0.576,1.558-0.397l28.584,9.342c1.118,0.366,2.299,0.366,3.417,0l28.585-9.342
							C94.399,18.297,94.556,18.273,94.713,18.273z"/>
					</g>
				</g>
			</g>
		</g>
	</g>
	<g>
		<g>
			<circle style="fill:#FFAF10;" cx="63.954" cy="48.518" r="15.735"/>
		</g>
		<g>
			<path style="fill:#FFD00B;" d="M79.689,48.518c0,6.658-7.045,12.054-15.736,12.054c-8.689,0-15.734-5.396-15.734-12.054
				c0-6.651,7.045-12.054,15.734-12.054C72.644,36.464,79.689,41.866,79.689,48.518z"/>
		</g>
		<g>
			<path style="fill:#FFFFFF;" d="M48.218,48.518c0,8.691,7.045,15.737,15.734,15.737c8.691,0,15.736-7.046,15.736-15.737H48.218z"
				/>
		</g>
		<g>
			<path style="fill:#DCE6EA;" d="M63.953,60.571c8.691,0,15.736-5.396,15.736-12.054H48.218
				C48.218,55.176,55.263,60.571,63.953,60.571z"/>
		</g>
		<path style="fill:#33363A;" d="M63.953,31.282c-9.503,0-17.234,7.732-17.234,17.235c0,9.505,7.731,17.237,17.234,17.237
			c9.504,0,17.236-7.732,17.236-17.237C81.189,39.014,73.457,31.282,63.953,31.282z M63.953,34.282
			c7.343,0,13.403,5.589,14.156,12.735H49.799C50.551,39.871,56.611,34.282,63.953,34.282z M63.953,62.755
			c-7.342,0-13.402-5.589-14.154-12.737h28.309C77.356,57.165,71.296,62.755,63.953,62.755z"/>
		<g>
			<g>
				<circle style="fill:#A7BBC1;" cx="63.954" cy="50.321" r="5.202"/>
			</g>
			<g>
				<path style="fill:#FFFFFF;" d="M67.633,44.873c2.033,2.03,2.033,5.327,0,7.356c-2.031,2.034-5.326,2.034-7.357,0
					c-2.031-2.029-2.031-5.326,0-7.356C62.306,42.842,65.601,42.842,67.633,44.873z"/>
			</g>
			<g>
				<path style="fill:#D8E5EA;" d="M60.275,52.229c-2.031-2.029-2.031-5.326,0-7.356c2.031-2.031,5.326-2.031,7.357,0"/>
			</g>
			<g>
				<path style="fill:#33363A;" d="M63.954,55.255c-1.791,0-3.475-0.698-4.74-1.965c-1.265-1.264-1.962-2.947-1.962-4.738
					s0.697-3.474,1.963-4.74c2.613-2.612,6.864-2.613,9.478,0l0,0c1.268,1.266,1.966,2.949,1.966,4.741
					c-0.001,1.792-0.698,3.474-1.966,4.739C67.428,54.557,65.745,55.255,63.954,55.255z M63.954,44.851
					c-0.948,0-1.896,0.361-2.618,1.083c-0.699,0.699-1.084,1.628-1.084,2.618c0,0.989,0.385,1.918,1.084,2.617
					c1.4,1.402,3.837,1.401,5.235,0.001c0.701-0.7,1.086-1.628,1.087-2.617c0-0.989-0.386-1.919-1.085-2.618
					c-0.001,0-0.001,0-0.001-0.001C65.85,45.212,64.902,44.851,63.954,44.851z"/>
			</g>
		</g>
	</g>
</g>
<g>
</g>
<g>
</g>
<g>
</g>
<g>
</g>
<g>
</g>
<g>
</g>
<g>
</g>
<g>
</g>
<g>
</g>
<g>
</g>
<g>
</g>
<g>
</g>
<g>
</g>
<g>
</g>
<g>
</g>
</svg>
