<?xml version="1.0" encoding="iso-8859-1"?>
<!-- Generator: Adobe Illustrator 19.0.0, SVG Export Plug-In . SVG Version: 6.00 Build 0)  -->
<svg version="1.1" id="Layer_1" xmlns="http://www.w3.org/2000/svg" xmlns:xlink="http://www.w3.org/1999/xlink" x="0px" y="0px"
	 viewBox="0 0 127 127" style="enable-background:new 0 0 127 127;" xml:space="preserve">
<g>
	<g>
		<path style="fill:#D8E5EA;" d="M103.515,15.271h-12.08v-6.12c0-4.228-3.428-7.651-7.652-7.651H43.222
			c-4.229,0-7.656,3.424-7.656,7.651v6.12h-12.08c-8.338,0-15.1,6.758-15.1,15.1v80.027c0,8.338,6.762,15.102,15.1,15.102h80.029
			c8.34,0,15.1-6.764,15.1-15.102V30.371C118.614,22.029,111.854,15.271,103.515,15.271z M63.501,100.217
			c-16.475,0-29.83-13.359-29.83-29.833c0-16.475,13.355-29.829,29.83-29.829s29.832,13.354,29.832,29.829
			C93.333,86.857,79.976,100.217,63.501,100.217z"/>
	</g>
	<g>
		<path style="fill:#C5D7DD;" d="M103.515,29.525h-12.08v-6.119c0-4.227-3.428-7.653-7.652-7.653H43.222
			c-4.229,0-7.656,3.427-7.656,7.653v6.119h-12.08c-8.338,0-15.1,6.762-15.1,15.098v65.775c0,8.338,6.762,15.102,15.1,15.102h80.029
			c8.34,0,15.1-6.764,15.1-15.102V44.623C118.614,36.287,111.854,29.525,103.515,29.525z M93.333,84.639
			c0,16.475-13.357,29.831-29.832,29.831s-29.83-13.356-29.83-29.831c0-2.461,0.33-4.84,0.893-7.127
			c-0.562-2.289-0.893-4.666-0.893-7.128c0-16.475,13.355-29.829,29.83-29.829s29.832,13.354,29.832,29.829
			c0,2.462-0.332,4.839-0.893,7.128C93.001,79.799,93.333,82.178,93.333,84.639z"/>
	</g>
	<g>
		<circle style="fill:#FF8F8F;" cx="63.501" cy="73.184" r="32.959"/>
	</g>
	<g>
		<path style="fill:#FF1A1A;" d="M96.46,73.184c0,13.943-14.756,25.248-32.959,25.248S30.542,87.127,30.542,73.184
			c0-13.94,14.756-25.244,32.959-25.244S96.46,59.244,96.46,73.184z"/>
	</g>
	<g>
		<path style="fill:#FFFFFF;" d="M30.542,73.184c0,18.205,14.756,32.961,32.959,32.961S96.46,91.389,96.46,73.184H30.542z"/>
	</g>
	<g>
		<path style="fill:#D8E5EA;" d="M63.501,98.432c18.203,0,32.959-11.305,32.959-25.248H30.542
			C30.542,87.127,45.298,98.432,63.501,98.432z"/>
	</g>
	<path style="fill:#33363A;" d="M97.96,73.184c0-19-15.458-34.457-34.459-34.457S29.042,54.184,29.042,73.184
		c0,18.499,14.652,33.634,32.959,34.423v8.271c0,0.828,0.671,1.5,1.5,1.5s1.5-0.672,1.5-1.5v-8.271
		C83.308,106.818,97.96,91.682,97.96,73.184z M63.501,41.727c16.844,0,30.635,13.305,31.421,29.957H32.08
		C32.866,55.032,46.657,41.727,63.501,41.727z M63.501,104.645c-16.844,0-30.635-13.307-31.421-29.961h62.842
		C94.136,91.337,80.345,104.645,63.501,104.645z"/>
	<g>
		<path style="fill:#33363A;" d="M107.104,102.645h-9.623c-0.829,0-1.5-0.672-1.5-1.5s0.671-1.5,1.5-1.5h9.623
			c0.829,0,1.5,0.672,1.5,1.5S107.933,102.645,107.104,102.645z"/>
	</g>
	<g>
		<path style="fill:#33363A;" d="M107.104,108.502h-9.623c-0.829,0-1.5-0.672-1.5-1.5s0.671-1.5,1.5-1.5h9.623
			c0.829,0,1.5,0.672,1.5,1.5S107.933,108.502,107.104,108.502z"/>
	</g>
	<g>
		<path style="fill:#33363A;" d="M107.104,114.357h-9.623c-0.829,0-1.5-0.672-1.5-1.5s0.671-1.5,1.5-1.5h9.623
			c0.829,0,1.5,0.672,1.5,1.5S107.933,114.357,107.104,114.357z"/>
	</g>
	<path style="fill:#33363A;" d="M103.515,13.771h-10.58v-4.62C92.935,4.105,88.829,0,83.782,0H43.222
		c-5.049,0-9.156,4.105-9.156,9.151v4.62h-10.58c-9.153,0-16.6,7.447-16.6,16.6v80.027c0,9.154,7.447,16.602,16.6,16.602h80.029
		c9.153,0,16.6-7.447,16.6-16.602V30.371C120.114,21.218,112.667,13.771,103.515,13.771z M117.114,110.398
		c0,7.5-6.101,13.602-13.6,13.602H65.001v-1.627c0-0.828-0.671-1.5-1.5-1.5s-1.5,0.672-1.5,1.5V124H23.485
		c-7.499,0-13.6-6.102-13.6-13.602V30.371c0-7.499,6.101-13.6,13.6-13.6h12.08c0.829,0,1.5-0.671,1.5-1.5v-6.12
		C37.065,5.759,39.827,3,43.222,3h40.561c3.393,0,6.152,2.759,6.152,6.151v6.12c0,0.829,0.671,1.5,1.5,1.5h12.08
		c7.499,0,13.6,6.101,13.6,13.6V110.398z"/>
	<g>
		<g>
			<circle style="fill:#A7BBC1;" cx="26.312" cy="36.432" r="6.403"/>
		</g>
		<g>
			<circle style="fill:#93FF5A;" cx="26.312" cy="33.255" r="6.403"/>
		</g>
		<g>
			<path style="fill:#65E529;" d="M21.784,37.783c-2.5-2.5-2.5-6.555,0-9.056c2.502-2.5,6.555-2.5,9.055,0"/>
		</g>
		<g>
			<path style="fill:#33363A;" d="M26.313,41.154c-2.023,0-4.047-0.77-5.588-2.31c-3.082-3.081-3.082-8.095-0.001-11.177
				c3.083-3.08,8.096-3.081,11.176,0v0c0,0,0,0,0,0l0,0c1.494,1.493,2.316,3.478,2.316,5.589s-0.823,4.096-2.316,5.588
				C30.359,40.384,28.336,41.154,26.313,41.154z M26.312,28.355c-1.255,0-2.511,0.478-3.468,1.433c-1.911,1.912-1.911,5.022,0,6.934
				c1.912,1.91,5.022,1.91,6.934,0c0.927-0.926,1.437-2.157,1.437-3.467c0-1.31-0.51-2.541-1.437-3.467v0
				C28.823,28.833,27.568,28.355,26.312,28.355z"/>
		</g>
	</g>
	<g>
		<g>
			<circle style="fill:#A7BBC1;" cx="63.5" cy="76.96" r="10.898"/>
		</g>
		<g>
			<circle style="fill:#FFFFFF;" cx="63.5" cy="73.256" r="10.899"/>
		</g>
		<g>
			<path style="fill:#D8E5EA;" d="M55.794,80.963c-4.254-4.256-4.254-11.158,0-15.414c4.258-4.256,11.158-4.256,15.412,0"/>
		</g>
		<g>
			<path style="fill:#33363A;" d="M63.501,85.647c-3.175,0-6.35-1.208-8.768-3.623c-4.833-4.836-4.833-12.701-0.001-17.536
				c2.343-2.342,5.457-3.631,8.769-3.631s6.424,1.29,8.765,3.631l0,0l0,0c0,0,0,0,0,0c2.342,2.342,3.632,5.455,3.632,8.768
				s-1.29,6.427-3.633,8.768C69.851,84.439,66.676,85.647,63.501,85.647z M63.501,63.857c-2.51,0-4.871,0.978-6.647,2.752
				c-3.663,3.665-3.663,9.628,0,13.293c3.666,3.663,9.628,3.661,13.291,0c1.776-1.775,2.754-4.136,2.754-6.646
				s-0.978-4.871-2.754-6.646c0,0,0,0,0,0C68.371,64.834,66.012,63.857,63.501,63.857z"/>
		</g>
	</g>
</g>
<g>
</g>
<g>
</g>
<g>
</g>
<g>
</g>
<g>
</g>
<g>
</g>
<g>
</g>
<g>
</g>
<g>
</g>
<g>
</g>
<g>
</g>
<g>
</g>
<g>
</g>
<g>
</g>
<g>
</g>
</svg>
